<svg width="24" height="24" viewBox="0 0 24 24" fill="none" xmlns="http://www.w3.org/2000/svg">
<path d="M20 5.77778V18.2222C20 19.2041 19.2041 20 18.2222 20H14.8889C14.6434 20 14.4444 19.801 14.4444 19.5556V14.2222H16.5244C16.7357 14.2223 16.9178 14.0736 16.96 13.8667L17.28 12.2667C17.2932 12.202 17.277 12.1349 17.2358 12.0834C17.1946 12.0318 17.1326 12.0013 17.0667 12H14.4444V9.11111C14.4444 8.98838 14.5439 8.88889 14.6667 8.88889H16.8889C17.1343 8.88889 17.3333 8.6899 17.3333 8.44444V7.11111C17.3333 6.86565 17.1343 6.66667 16.8889 6.66667H14.6667C13.1939 6.66667 12 7.86057 12 9.33333V12H10.9067C10.6612 12 10.4622 12.199 10.4622 12.4444V13.7778C10.4622 14.0232 10.6612 14.2222 10.9067 14.2222H12V19.5556C12 19.801 11.801 20 11.5556 20H5.77778C4.79594 20 4 19.2041 4 18.2222V5.77778C4 4.79594 4.79594 4 5.77778 4H18.2222C19.2041 4 20 4.79594 20 5.77778Z" fill="#A3ABC0"/>
</svg>
