<svg width="24" height="24" viewBox="0 0 24 24" fill="none" xmlns="http://www.w3.org/2000/svg">
<path fill-rule="evenodd" clip-rule="evenodd" d="M14.8574 8.04933C14.0861 7.46411 13.1371 7.15133 12.1601 7.16644C10.073 7.16644 8.30045 8.57449 7.66845 10.4705L7.66839 10.4705V10.4705C7.33328 11.4641 7.33328 12.5399 7.66839 13.5335L7.66838 13.5335H7.67139C8.30633 15.4266 10.0759 16.8346 12.163 16.8346C13.2403 16.8346 14.1652 16.5591 14.882 16.0724V16.0704C15.7256 15.5119 16.3018 14.6329 16.4811 13.6394H12.66C12.3838 13.6394 12.16 13.4155 12.16 13.1394V11.0587C12.16 10.7826 12.3838 10.5587 12.66 10.5587H19.2861C19.5288 10.5587 19.7379 10.7329 19.7686 10.9737C19.8197 11.3748 19.844 11.7804 19.844 12.1843C19.844 14.6175 18.9744 16.6746 17.4614 18.068L17.4631 18.0692C16.1373 19.2921 14.3177 20.0005 12.1601 20.0005C9.13529 20.0005 6.36917 18.2956 5.01109 15.5941L5.01104 15.5941C3.87637 13.3336 3.87637 10.6704 5.01104 8.40985H5.0111C6.36918 5.70547 9.13529 4.00054 12.1601 4.00054C13.9744 3.97907 15.7324 4.59964 17.1252 5.74143C17.3436 5.9204 17.3478 6.24697 17.1482 6.44659L15.5743 8.0205C15.3823 8.2125 15.0737 8.21346 14.8574 8.04933Z" fill="#A3ABC0"/>
</svg>
