<svg width="24" height="24" viewBox="0 0 24 24" fill="none" xmlns="http://www.w3.org/2000/svg">
<path d="M18.246 19.2898C18.211 19.4758 18.0943 19.636 17.9284 19.7258L17.579 19.9065C17.5101 19.9417 17.4339 19.9599 17.3566 19.9597C17.2439 19.9576 17.1354 19.9162 17.0496 19.8427L13.0687 16.6525C12.8723 16.4777 12.5769 16.4777 12.3805 16.6525L10.0301 18.875C9.98689 18.9069 9.93537 18.9253 9.88186 18.9282V15.1744C9.88214 15.0254 9.9434 14.8832 10.0513 14.7809C13.4287 11.5907 15.4509 9.80423 16.6579 8.78336C16.7354 8.71207 16.7812 8.61243 16.7849 8.50688C16.7935 8.40332 16.7545 8.30148 16.679 8.2304C16.5728 8.09641 16.3893 8.05252 16.2344 8.12406L8.23022 13.1965C8.08621 13.2654 7.91896 13.2654 7.77496 13.1965L3.73012 11.8092C3.47123 11.7205 3.45669 11.3598 3.70758 11.2505L20.2258 4.05123C20.2885 4.03631 20.3538 4.03631 20.4164 4.05123C20.5714 4.05531 20.7174 4.1248 20.8187 4.24265C20.9653 4.39906 21.0283 4.61656 20.9881 4.82752L18.246 19.2898Z" fill="#A3ABC0"/>
</svg>
