<svg width="288" height="64" viewBox="0 0 288 64" fill="none" xmlns="http://www.w3.org/2000/svg">
<path d="M33.9442 1.70399C32.2768 1.22776 30.9816 1.67422 30.0585 3.04337L27.2894 7.10615C26.3366 8.68364 25.5624 10.1421 24.9669 11.4815C23.0315 15.9163 21.1407 19.4731 19.2946 22.1518C18.9075 22.6876 18.5651 23.0448 18.2674 23.2233C17.8207 23.521 17.3592 23.5656 16.8828 23.3573C16.4659 23.2085 16.198 22.8215 16.0789 22.1965L16.0342 21.3482V20.4553C15.9746 18.6992 15.93 16.9134 15.9002 15.0978L15.8555 12.9548L15.8109 11.035C15.7513 8.26695 15.7067 6.13882 15.6769 4.65062L15.6322 0.855714C15.662 -0.00744092 14.6794 -0.215789 12.6844 0.230671L10.4959 0.766423L8.30741 1.30217C6.49109 1.74863 4.79388 2.13557 3.21577 2.46297L0.89327 2.99872C0.297757 3.20707 0 3.63865 0 4.29345L0.178654 6.48111L1.20591 13.4012C1.53345 16.0205 1.74188 18.3421 1.8312 20.366C1.86098 21.8542 1.87587 23.2531 1.87587 24.5627C1.90564 26.3188 1.92053 28.0153 1.92053 29.6524C1.89075 33.8193 1.78654 37.4803 1.60789 40.6353C1.42923 44.0284 1.36968 48.2846 1.42923 53.404L1.51856 56.1274L1.56322 58.449C1.593 60.0563 1.60789 60.9194 1.60789 61.0385C1.60789 62.4969 2.33739 63.3601 3.7964 63.628C5.34473 63.9256 7.20571 64.0446 9.37933 63.9851L15.0069 63.7172C15.6918 63.7172 16.0937 63.2113 16.2128 62.1993C16.451 60.4432 16.4064 57.824 16.0789 54.3416L15.8109 50.4574C15.8109 50.0705 15.9746 49.7579 16.3022 49.5198C16.6595 49.2817 16.987 49.2519 17.2848 49.4305L19.0713 50.5467C23.0017 53.404 26.2621 57.3031 28.8526 62.2439C29.4481 63.375 30.2074 63.8661 31.1304 63.7172C32.7383 63.628 34.6886 63.6131 36.9814 63.6726L42.4303 63.7172C43.1449 63.7172 43.5469 63.375 43.6362 62.6904C43.7256 62.0653 43.5767 61.3064 43.1896 60.4134L40.5098 54.5202L35.6861 44.7427L30.7731 35.2331C29.6714 33.5366 29.2099 32.2418 29.3886 31.3489C29.5077 30.7239 30.267 29.5333 31.6664 27.7772C33.6316 25.3664 36.2221 21.1845 39.4379 15.2317C42.2963 9.8742 44.0382 6.28764 44.6635 4.47204C44.7826 4.14463 44.6635 3.93629 44.3062 3.84699L33.9442 1.70399Z" fill="#00AB55"/>
<path d="M71.9908 39.1173C72.1397 39.2066 73.9114 39.5935 77.3058 40.2781C78.8839 40.5757 79.9112 39.6531 80.3876 37.5101C80.5662 36.766 80.6704 35.8879 80.7002 34.8759V32.8222C80.7002 30.5602 80.6555 28.1939 80.5662 25.7235V23.8484V21.125C80.596 18.6546 80.4769 16.8092 80.2089 15.5889C80.06 14.7853 79.4943 14.3983 78.5117 14.4281L77.0378 14.562L76.3232 14.696L75.7426 14.7406C75.2959 14.7406 74.9386 14.9638 74.6706 15.4103L74.4027 16.0353L74.2687 16.6157C73.7029 18.8183 73.167 21.5119 72.6608 24.6967L72.0355 28.938C71.7675 30.6643 71.4995 32.2716 71.2316 33.7598L71.0976 34.3402L70.9189 35.0099L70.6509 36.5278C70.5616 37.8077 71.0082 38.6708 71.9908 39.1173ZM52.0709 54.5202C52.4878 53.3594 53.0386 51.9456 53.7235 50.2788L54.5274 48.3144C54.8549 47.5108 55.1676 46.7071 55.4653 45.9035C55.644 45.3975 56.2991 43.1503 57.4305 39.162L58.1451 36.7511L58.8151 34.3848C59.3213 32.6585 59.7084 31.3787 59.9764 30.5453C60.8399 27.7475 61.8224 24.1014 62.9241 19.607L64.264 14.1156L65.6933 8.57947C65.9613 7.53773 66.5568 5.58819 67.4798 2.73085C68.1051 0.796186 69.2664 -0.0967329 70.9636 0.052087L72.0355 0.0967329H73.2861C74.4175 0.037205 75.1917 0.037205 75.6086 0.0967329C77.5142 0.305081 79.3752 0.439019 81.1915 0.498547L83.514 0.587839C84.4966 0.647367 85.5834 0.736659 86.7744 0.855714C89.8116 1.12359 91.3897 2.18021 91.5088 4.02558L91.5534 5.81142C91.5534 6.97221 91.5832 8.50506 91.6428 10.41L91.7321 15.8121C91.8512 20.5446 91.8959 23.7145 91.8661 25.3217V25.8128V26.3039C91.9256 27.4647 92.0745 30.0244 92.3127 33.983L92.4914 36.6618L92.67 39.5191L93.0273 45.457C93.6526 55.547 93.9355 61.0385 93.8759 61.9314C93.7866 63.3303 92.9976 63.9405 91.5088 63.7619C90.9133 63.6726 87.6975 63.494 81.8615 63.2261C81.3255 63.1964 80.9533 62.1844 80.7449 60.1902L80.6109 58.7169L80.4769 57.1543L80.1642 53.7165C80.0749 52.7939 79.7027 52.2879 79.0477 52.1986C78.1842 52.0498 77.3356 51.8712 76.5018 51.6628L74.4473 51.1271C72.899 50.6806 71.3507 50.4276 69.8023 50.3681C68.2838 50.2788 67.2416 50.9336 66.6759 52.3325L64.4427 58.2704C64.3534 58.5085 64.1598 58.9104 63.8621 59.4759C63.5643 60.1307 63.2368 60.7557 62.8795 61.351C61.9267 62.9583 61.2269 63.7768 60.7803 63.8065C58.9044 63.9554 56.5224 64.0149 53.6341 63.9851C52.6218 63.9554 51.6838 63.9256 50.8203 63.8958C50.076 63.8661 49.6889 63.8363 49.6591 63.8065C49.272 63.6577 49.5102 62.1993 50.3737 59.4312C50.6715 58.5383 51.0139 57.5115 51.401 56.3507L51.8476 55.1899L51.9816 54.7881L52.0709 54.5202Z" fill="#00AB55"/>
<path d="M132.115 1.70399C130.447 1.22776 129.152 1.67422 128.229 3.04337L125.46 7.10615C124.507 8.68364 123.733 10.1421 123.137 11.4815C121.202 15.9163 119.311 19.4731 117.465 22.1518C117.078 22.6876 116.735 23.0448 116.438 23.2233C115.991 23.521 115.53 23.5656 115.053 23.3573C114.636 23.2085 114.368 22.8215 114.249 22.1965L114.205 21.3482V20.4553C114.145 18.6992 114.1 16.9134 114.071 15.0978L114.026 12.9548L113.981 11.035C113.922 8.26695 113.877 6.13882 113.847 4.65062L113.803 0.855714C113.832 -0.00744092 112.85 -0.215789 110.855 0.230671L108.666 0.766423L106.478 1.30217C104.661 1.74863 102.964 2.13557 101.386 2.46297L99.0636 2.99872C98.4681 3.20707 98.1703 3.63865 98.1703 4.29345L98.349 6.48111L99.3763 13.4012C99.7038 16.0205 99.9122 18.3421 100.002 20.366C100.031 21.8542 100.046 23.2531 100.046 24.5627C100.076 26.3188 100.091 28.0153 100.091 29.6524C100.061 33.8193 99.9569 37.4803 99.7782 40.6353C99.5996 44.0284 99.54 48.2846 99.5996 53.404L99.6889 56.1274L99.7336 58.449C99.7633 60.0563 99.7782 60.9194 99.7782 61.0385C99.7782 62.4969 100.508 63.3601 101.967 63.628C103.515 63.9256 105.376 64.0446 107.55 63.9851L113.177 63.7172C113.862 63.7172 114.264 63.2113 114.383 62.1993C114.621 60.4432 114.577 57.824 114.249 54.3416L113.981 50.4574C113.981 50.0705 114.145 49.7579 114.473 49.5198C114.83 49.2817 115.157 49.2519 115.455 49.4305L117.242 50.5467C121.172 53.404 124.432 57.3031 127.023 62.2439C127.618 63.375 128.378 63.8661 129.301 63.7172C130.909 63.628 132.859 63.6131 135.152 63.6726L140.601 63.7172C141.315 63.7172 141.717 63.375 141.807 62.6904C141.896 62.0653 141.747 61.3064 141.36 60.4134L138.68 54.5202L133.856 44.7427L128.943 35.2331C127.842 33.5366 127.38 32.2418 127.559 31.3489C127.678 30.7239 128.437 29.5333 129.837 27.7772C131.802 25.3664 134.392 21.1845 137.608 15.2317C140.467 9.8742 142.209 6.28764 142.834 4.47204C142.953 4.14463 142.834 3.93629 142.477 3.84699L132.115 1.70399Z" fill="#00AB55"/>
<path d="M182.282 20.0535L182.192 19.1606V17.1961C182.192 17.1068 182.267 16.8687 182.416 16.4818C182.535 16.0949 182.624 15.827 182.684 15.6782L182.773 18.3569C182.743 19.3987 182.624 20.366 182.416 21.2589L182.282 20.0535ZM179.512 32.7776L179.423 32.1525L179.334 31.081L179.378 28.8041C179.378 28.685 179.497 28.3874 179.736 27.9112C179.944 27.4647 180.108 27.1522 180.227 26.9736L180.316 30.1435C180.257 31.3638 180.033 32.5097 179.646 33.5812L179.512 32.7776ZM168.615 40.3674L168.525 39.5638L168.436 38.2244V35.3224C168.436 35.2033 168.51 34.8462 168.659 34.2509C168.808 33.7151 168.927 33.3282 169.016 33.0901L169.15 37.0636C169.121 38.6113 168.972 40.04 168.704 41.3496L168.615 40.3674ZM167.855 13.8923C167.825 14.0114 167.691 14.309 167.453 14.7853C167.215 15.2615 167.021 15.6038 166.873 15.8121L166.962 12.3744C167.081 11.0648 167.364 9.84444 167.811 8.71341L167.9 9.56168L167.945 10.276L168.034 11.3922L167.855 13.8923ZM166.917 57.3775L166.783 56.1721L166.649 54.163L166.605 49.8323C166.605 49.624 166.694 49.0734 166.873 48.1804C167.021 47.347 167.141 46.7667 167.23 46.4393C167.409 48.999 167.498 51.008 167.498 52.4665C167.498 54.7583 167.349 56.8864 167.051 58.8508L166.917 57.3775ZM166.828 20.7678L166.917 21.5714L166.962 22.9108L166.783 25.7682C166.783 25.917 166.679 26.2742 166.471 26.8397C166.262 27.3754 166.113 27.7624 166.024 28.0005L166.069 23.9823C166.158 22.4644 166.396 21.0506 166.783 19.741L166.828 20.7678ZM153.429 37.3315L153.34 36.4832L153.384 34.5634C153.384 34.4741 153.459 34.236 153.608 33.8491C153.727 33.4919 153.831 33.2389 153.92 33.0901L154.01 35.7242C153.98 36.7064 153.831 37.6291 153.563 38.4923L153.429 37.3315ZM152.357 20.0981L152.268 19.2052L152.312 17.2408C152.312 17.1515 152.402 16.9134 152.58 16.5265C152.729 16.1395 152.848 15.8716 152.938 15.7228L153.027 18.4016C152.997 19.4433 152.833 20.4107 152.536 21.3036L152.357 20.0981ZM150.66 28.4469L150.57 27.6433L150.615 25.9914C150.615 25.9021 150.704 25.6938 150.883 25.3664C151.032 25.0389 151.151 24.8008 151.24 24.652L151.33 26.9736C151.27 27.8665 151.092 28.6999 150.794 29.4738L150.66 28.4469ZM178.396 6.43646C178.009 6.49599 177.681 6.8978 177.413 7.6419L177.101 8.57947L176.877 9.38309C176.55 10.5141 176.252 12.4934 175.984 15.321L175.716 18.5355C175.597 19.6963 175.463 20.6041 175.314 21.2589L175.18 22.5983L175.046 23.9823C174.867 24.9943 174.302 25.7086 173.349 26.1253C172.694 24.8752 172.411 23.1787 172.5 21.0357L172.858 11.6154L173.393 2.23974L173.483 1.39147C173.542 0.558075 173.066 0.126497 172.054 0.0967329C168.748 0.007441 165.964 0.245553 163.702 0.811068C162.481 1.10871 161.855 1.88257 161.826 3.13266L161.87 4.96314L161.915 7.01686C161.975 8.8027 161.989 10.0825 161.96 10.8564L161.2 26.036L160.888 28.4916C160.62 29.9202 159.89 30.5899 158.699 30.5006C158.253 30.4709 157.925 30.2625 157.717 29.8756L157.493 29.2952L157.359 28.7148C157.27 28.3279 157.225 26.2146 157.225 22.3751C157.255 20.9762 157.27 19.607 157.27 18.2676C157.3 17.0176 157.315 16.2586 157.315 15.9907L157.404 14.8745V13.8477V13.803L157.359 13.6691L157.27 13.4905L157.225 13.4459L157.002 13.2673C155.364 12.3446 152.878 12.0321 149.543 12.3297C148.829 12.3893 148.278 12.7167 147.891 13.3119C147.444 14.0263 147.131 15.1424 146.953 16.6604C146.804 18.4165 146.67 20.2618 146.551 22.1965L146.372 27.1968C146.223 31.4828 146.015 34.9652 145.747 37.644L145.657 38.6262L145.747 39.6531C145.806 40.3079 146.149 40.6948 146.774 40.8139L149.231 40.9924C153.012 40.9329 155.707 40.6948 157.315 40.2781C159.488 39.6531 160.664 40.4716 160.843 42.7336C161.409 49.4008 161.439 54.7136 160.932 58.6722L160.664 60.2795L160.441 61.9314C160.322 63.0922 160.843 63.7024 162.004 63.7619L164.684 63.8065L167.587 63.7172C170.029 63.6577 171.875 63.7321 173.126 63.9405C174.138 64.1191 174.689 63.628 174.778 62.4672C174.867 61.5147 174.823 59.5056 174.644 56.44L174.421 52.4218L174.197 48.5823C174.227 47.3917 174.197 46.0374 174.108 44.5195L174.063 43.0015C174.034 42.436 174.004 42.0788 173.974 41.93C173.944 41.0966 174.302 40.5906 175.046 40.412L178.262 39.6531L180.629 39.028L182.951 38.3137C185.125 37.6589 186.257 36.8999 186.346 36.0367C186.584 34.2509 186.793 32.093 186.971 29.5631L187.15 26.2146L187.329 22.9555C187.388 21.8542 187.507 20.4999 187.686 18.8927L188.177 14.562C188.594 10.9606 188.802 8.56458 188.802 7.37403C189.13 5.67748 185.661 5.36496 178.396 6.43646Z" fill="#00AB55"/>
<path d="M236.101 0.319963C232.171 0.260435 229.059 0.453901 226.766 0.90036C226.35 0.989652 226.067 1.65934 225.918 2.90943L225.784 4.42739L225.694 5.63283C225.516 6.88292 225.412 9.21939 225.382 12.6423C225.382 14.0412 225.397 15.7079 225.426 17.6426L225.516 23.0894C225.665 32.8818 225.605 38.7006 225.337 40.546L225.248 41.2603L225.069 42.3765C224.89 43.3884 224.712 44.2814 224.533 45.0552C223.938 47.4066 223.253 48.6864 222.479 48.8948C221.258 49.2222 219.069 49.3561 215.913 49.2966L214.037 49.2519L212.34 49.2073C211.03 49.1478 210.196 49.118 209.839 49.118C209.095 49.118 208.425 48.1656 207.829 46.2607C207.65 45.6059 207.472 44.8469 207.293 43.9837L207.114 43.0015L207.025 42.2425C206.846 41.1115 206.817 38.1946 206.936 33.4919L207.025 30.2328L207.159 26.795L207.338 19.607C207.576 7.25497 207.025 0.989652 205.685 0.811068L202.737 0.409255L199.879 0.052087C197.795 -0.0967329 196.068 0.156261 194.698 0.811068C193.269 1.5254 192.852 9.85932 193.447 25.8128C193.596 29.5035 193.686 33.3133 193.715 37.2422C193.745 40.0102 193.73 43.195 193.671 46.7964C193.611 54.1481 193.626 58.6574 193.715 60.3242C193.775 61.4254 194.534 62.2588 195.993 62.8243C196.529 63.0327 197.125 63.1964 197.78 63.3154C198.316 63.375 198.777 63.4047 199.164 63.4047C199.373 63.4047 201.353 63.4791 205.105 63.628L209.839 63.8512C211.596 63.9107 213.01 63.9554 214.082 63.9851C214.797 64.0149 218.117 63.9405 224.042 63.7619L227.347 63.628L230.205 63.5387C232.081 63.4791 233.109 63.4494 233.287 63.4494C234.091 63.5089 234.791 63.3303 235.386 62.9136C236.131 62.4374 236.622 61.6338 236.86 60.5027C236.89 60.3837 236.979 59.58 237.128 58.0919C237.247 56.3953 237.396 54.416 237.575 52.1539C238.022 45.963 238.379 39.9209 238.647 34.0277C239.451 16.1098 239.213 5.21614 237.932 1.34682C237.694 0.692013 237.084 0.349727 236.101 0.319963Z" fill="#00AB55"/>
<path d="M285.588 1.83793C285.35 0.885478 284.62 0.424137 283.4 0.453901C281.732 0.483665 278.248 0.424137 272.948 0.275317L269.911 0.186025L267.097 0.0967329C265.103 0.037205 263.748 0.007441 263.033 0.007441C260.443 -0.022323 257.51 0.037205 254.234 0.186025L250.036 0.453901L245.793 0.677131C244.513 0.736659 243.947 1.48076 244.096 2.90943C244.245 4.24881 244.289 5.96024 244.23 8.04372L244.14 10.5439L244.185 13.2226C244.245 14.5323 244.9 15.2615 246.15 15.4103C247.639 15.6187 251.078 15.7675 256.468 15.8568C261.5 15.9758 264.924 15.9907 266.74 15.9014C269.926 15.7824 270.849 17.211 269.509 20.1874C269.48 20.2172 266.949 23.3573 261.917 29.6077C260.815 30.9173 259.058 32.9859 256.646 35.8135C254.8 37.9565 252.954 40.0846 251.108 42.1979C250.81 42.5253 250.364 43.0015 249.768 43.6266L248.16 45.3677C246.731 46.8559 245.674 48.0763 244.989 49.0287C244.274 50.0109 243.887 52.1391 243.828 55.4131L243.783 56.1721L243.738 57.1543V59.3866C243.798 61.3212 244.021 62.5713 244.408 63.1368C244.766 63.6131 246.478 63.8809 249.545 63.9405H253.341C254.919 63.9405 255.947 63.9405 256.423 63.9405C258.18 64 260.681 64.0149 263.926 63.9851L268.348 63.9405L272.814 63.8512C280.288 63.7619 284.665 63.7768 285.945 63.8958C286.988 63.9851 287.583 63.4047 287.732 62.1546C287.851 61.0534 287.896 59.8777 287.866 58.6276V57.065L287.911 55.2345L288 53.404L287.955 51.6628C287.836 50.4425 287.464 49.7579 286.839 49.6091C285.469 49.2519 283.817 49.0585 281.881 49.0287L276.789 49.0734H274.11C272.77 49.0734 271.608 49.0138 270.626 48.8948C267.827 48.5971 266.532 47.9423 266.74 46.9304C267.097 45.2636 268.452 42.8676 270.805 39.7424C271.579 38.7304 272.546 37.5249 273.708 36.126L275.048 34.5188L276.12 33.1794C278.531 30.203 280.958 26.9141 283.4 23.3126C284.68 21.378 285.544 19.8898 285.99 18.848C286.377 17.9849 286.675 17.0324 286.883 15.9907L287.017 14.8299L287.107 13.9816C287.107 10.0528 286.601 6.00488 285.588 1.83793Z" fill="#00AB55"/>
</svg>
