<svg width="108" height="24" viewBox="0 0 108 24" fill="none" xmlns="http://www.w3.org/2000/svg">
<path d="M12.7291 0.638995C12.1038 0.460412 11.6181 0.627834 11.2719 1.14126L10.2335 2.66481C9.87621 3.25637 9.5859 3.80328 9.36258 4.30555C8.6368 5.96861 7.92777 7.30241 7.23548 8.30694C7.09033 8.50785 6.96192 8.64179 6.85026 8.70876C6.68277 8.82037 6.5097 8.83711 6.33105 8.75898C6.17473 8.70317 6.07423 8.55807 6.02957 8.32368L6.01282 8.00558V7.67074C5.99049 7.01221 5.97374 6.34252 5.96257 5.66167L5.94583 4.85804L5.92908 4.13812C5.90675 3.1001 5.89 2.30206 5.87883 1.74398L5.86208 0.320893C5.87325 -0.00279035 5.50477 -0.0809208 4.75666 0.0865016L3.93597 0.287408L3.11528 0.488315C2.43416 0.655738 1.79771 0.800837 1.20591 0.923613L0.334976 1.12452C0.111659 1.20265 0 1.36449 0 1.61005L0.0669952 2.43042L0.452218 5.02546C0.575042 6.00767 0.653203 6.87827 0.686701 7.63725C0.697867 8.19533 0.70345 8.71992 0.70345 9.21102C0.714616 9.86955 0.720199 10.5058 0.720199 11.1196C0.709033 12.6822 0.669952 14.0551 0.602957 15.2382C0.535962 16.5106 0.51363 18.1067 0.535962 20.0265L0.569459 21.0478L0.586208 21.9184C0.597374 22.5211 0.602957 22.8448 0.602957 22.8894C0.602957 23.4363 0.876521 23.76 1.42365 23.8605C2.00427 23.9721 2.70214 24.0167 3.51725 23.9944L5.6276 23.894C5.88441 23.894 6.03515 23.7042 6.07982 23.3247C6.16914 22.6662 6.15239 21.684 6.02957 20.3781L5.92908 18.9215C5.92908 18.7764 5.99049 18.6592 6.11331 18.5699C6.2473 18.4806 6.37013 18.4695 6.48179 18.5364L7.15174 18.955C8.62564 20.0265 9.8483 21.4887 10.8197 23.3415C11.043 23.7656 11.3278 23.9498 11.6739 23.894C12.2769 23.8605 13.0082 23.8549 13.868 23.8772L15.9114 23.894C16.1793 23.894 16.3301 23.7656 16.3636 23.5089C16.3971 23.2745 16.3413 22.9899 16.1961 22.655L15.1912 20.4451L13.3823 16.7785L11.5399 13.2124C11.1268 12.5762 10.9537 12.0907 11.0207 11.7558C11.0654 11.5215 11.3501 11.075 11.8749 10.4165C12.6119 9.51238 13.5833 7.94419 14.7892 5.71189C15.8611 3.70283 16.5143 2.35787 16.7488 1.67701C16.7935 1.55424 16.7488 1.47611 16.6148 1.44262L12.7291 0.638995Z" fill="#919EAB"/>
<path d="M26.9966 14.669C27.0524 14.7025 27.7168 14.8476 28.9897 15.1043C29.5815 15.2159 29.9667 14.8699 30.1453 14.0663C30.2123 13.7872 30.2514 13.458 30.2626 13.0785V12.3083C30.2626 11.4601 30.2458 10.5727 30.2123 9.64632V8.94315V7.92187C30.2235 6.99547 30.1788 6.30345 30.0783 5.84583C30.0225 5.54447 29.8104 5.39937 29.4419 5.41053L28.8892 5.46076L28.6212 5.51099L28.4035 5.52773C28.236 5.52773 28.102 5.61144 28.0015 5.77886L27.901 6.01325L27.8507 6.2309C27.6386 7.05685 27.4376 8.06697 27.2478 9.26125L27.0133 10.8518C26.9128 11.4991 26.8123 12.1018 26.7118 12.6599L26.6616 12.8776L26.5946 13.1287L26.4941 13.6979C26.4606 14.1779 26.6281 14.5016 26.9966 14.669ZM19.5266 20.4451C19.6829 20.0098 19.8895 19.4796 20.1463 18.8546L20.4478 18.1179C20.5706 17.8165 20.6878 17.5152 20.7995 17.2138C20.8665 17.0241 21.1121 16.1814 21.5364 14.6857L21.8044 13.7817L22.0557 12.8943C22.2455 12.2469 22.3906 11.767 22.4911 11.4545C22.8149 10.4053 23.1834 9.03802 23.5966 7.35263L24.099 5.29334L24.635 3.2173C24.7355 2.82665 24.9588 2.09557 25.3049 1.02407C25.5394 0.29857 25.9749 -0.0362749 26.6113 0.0195326L27.0133 0.0362749H27.4823C27.9066 0.0139519 28.1969 0.0139519 28.3532 0.0362749C29.0678 0.114405 29.7657 0.164632 30.4468 0.186955L31.3178 0.220439C31.6862 0.242762 32.0938 0.276247 32.5404 0.320893C33.6793 0.421346 34.2711 0.817579 34.3158 1.50959L34.3325 2.17928C34.3325 2.61458 34.3437 3.1894 34.366 3.90373L34.3995 5.92954C34.4442 7.70422 34.4609 8.89292 34.4498 9.49564V9.6798V9.86397C34.4721 10.2993 34.5279 11.2592 34.6173 12.7436L34.6843 13.7482L34.7513 14.8197L34.8852 17.0464C35.1197 20.8301 35.2258 22.8894 35.2035 23.2243C35.17 23.7489 34.8741 23.9777 34.3158 23.9107C34.0925 23.8772 32.8866 23.8103 30.698 23.7098C30.4971 23.6986 30.3575 23.3191 30.2793 22.5713L30.2291 22.0188L30.1788 21.4329L30.0616 20.1437C30.0281 19.7977 29.8885 19.608 29.6429 19.5745C29.3191 19.5187 29.0008 19.4517 28.6882 19.3736L27.9177 19.1727C27.3371 19.0052 26.7565 18.9104 26.1759 18.888C25.6064 18.8546 25.2156 19.1001 25.0035 19.6247L24.166 21.8514C24.1325 21.9407 24.0599 22.0914 23.9483 22.3035C23.8366 22.549 23.7138 22.7834 23.5798 23.0066C23.2225 23.6093 22.9601 23.9163 22.7926 23.9275C22.0892 23.9833 21.1959 24.0056 20.1128 23.9944C19.7332 23.9833 19.3814 23.9721 19.0576 23.9609C18.7785 23.9498 18.6333 23.9386 18.6222 23.9275C18.477 23.8716 18.5663 23.3247 18.8901 22.2867C19.0018 21.9519 19.1302 21.5668 19.2754 21.1315L19.4429 20.6962L19.4931 20.5455L19.5266 20.4451Z" fill="#919EAB"/>
<path d="M49.543 0.638995C48.9177 0.460412 48.432 0.627834 48.0858 1.14126L47.0474 2.66481C46.6901 3.25637 46.3998 3.80328 46.1765 4.30555C45.4507 5.96861 44.7416 7.30241 44.0494 8.30694C43.9042 8.50785 43.7758 8.64179 43.6641 8.70876C43.4967 8.82037 43.3236 8.83711 43.1449 8.75898C42.9886 8.70317 42.8881 8.55807 42.8434 8.32368L42.8267 8.00558V7.67074C42.8044 7.01221 42.7876 6.34252 42.7765 5.66167L42.7597 4.85804L42.743 4.13812C42.7206 3.1001 42.7039 2.30206 42.6927 1.74398L42.676 0.320893C42.6871 -0.00279035 42.3186 -0.0809208 41.5705 0.0865016L40.7498 0.287408L39.9292 0.488315C39.248 0.655738 38.6116 0.800837 38.0198 0.923613L37.1489 1.12452C36.9255 1.20265 36.8139 1.36449 36.8139 1.61005L36.8809 2.43042L37.2661 5.02546C37.3889 6.00767 37.4671 6.87827 37.5006 7.63725C37.5117 8.19533 37.5173 8.71992 37.5173 9.21102C37.5285 9.86955 37.5341 10.5058 37.5341 11.1196C37.5229 12.6822 37.4838 14.0551 37.4168 15.2382C37.3498 16.5106 37.3275 18.1067 37.3498 20.0265L37.3833 21.0478L37.4001 21.9184C37.4113 22.5211 37.4168 22.8448 37.4168 22.8894C37.4168 23.4363 37.6904 23.76 38.2375 23.8605C38.8181 23.9721 39.516 24.0167 40.3311 23.9944L42.4415 23.894C42.6983 23.894 42.849 23.7042 42.8937 23.3247C42.983 22.6662 42.9663 21.684 42.8434 20.3781L42.743 18.9215C42.743 18.7764 42.8044 18.6592 42.9272 18.5699C43.0612 18.4806 43.184 18.4695 43.2957 18.5364L43.9656 18.955C45.4395 20.0265 46.6622 21.4887 47.6336 23.3415C47.8569 23.7656 48.1417 23.9498 48.4878 23.894C49.0908 23.8605 49.8221 23.8549 50.6819 23.8772L52.7252 23.894C52.9932 23.894 53.144 23.7656 53.1775 23.5089C53.211 23.2745 53.1551 22.9899 53.01 22.655L52.005 20.4451L50.1962 16.7785L48.3538 13.2124C47.9407 12.5762 47.7676 12.0907 47.8346 11.7558C47.8793 11.5215 48.164 11.075 48.6888 10.4165C49.4257 9.51238 50.3972 7.94419 51.6031 5.71189C52.675 3.70283 53.3282 2.35787 53.5627 1.67701C53.6073 1.55424 53.5627 1.47611 53.4287 1.44262L49.543 0.638995Z" fill="#919EAB"/>
<path d="M68.3556 7.52006L68.3221 7.18521V6.44855C68.3221 6.41507 68.35 6.32578 68.4058 6.18068C68.4505 6.03558 68.484 5.93512 68.5063 5.87932L68.5398 6.88385C68.5286 7.2745 68.484 7.63725 68.4058 7.9721L68.3556 7.52006ZM67.3171 12.2916L67.2836 12.0572L67.2502 11.6554L67.2669 10.8015C67.2669 10.7569 67.3116 10.6453 67.4009 10.4667C67.479 10.2993 67.5405 10.1821 67.5851 10.1151L67.6186 11.3038C67.5963 11.7614 67.5126 12.1911 67.3674 12.593L67.3171 12.2916ZM63.2304 15.1378L63.1969 14.8364L63.1634 14.3341V13.2459C63.1634 13.2013 63.1914 13.0673 63.2472 12.8441C63.303 12.6432 63.3477 12.4981 63.3812 12.4088L63.4314 13.8988C63.4203 14.4792 63.3644 15.015 63.2639 15.5061L63.2304 15.1378ZM62.9457 5.20963C62.9345 5.25427 62.8843 5.36589 62.795 5.54447C62.7056 5.72306 62.6331 5.85141 62.5772 5.92954L62.6107 4.64039C62.6554 4.14929 62.7615 3.69166 62.929 3.26753L62.9625 3.58563L62.9792 3.85351L63.0127 4.27206L62.9457 5.20963ZM62.594 21.5166L62.5437 21.0645L62.4935 20.3111L62.4767 18.6871C62.4767 18.609 62.5102 18.4025 62.5772 18.0677C62.6331 17.7551 62.6777 17.5375 62.7112 17.4147C62.7782 18.3746 62.8117 19.128 62.8117 19.6749C62.8117 20.5344 62.7559 21.3324 62.6442 22.0691L62.594 21.5166ZM62.5605 7.78793L62.594 8.08929L62.6107 8.59156L62.5437 9.66306C62.5437 9.71887 62.5047 9.85281 62.4265 10.0649C62.3483 10.2658 62.2925 10.4109 62.259 10.5002L62.2758 8.99337C62.3093 8.42414 62.3986 7.89397 62.5437 7.40286L62.5605 7.78793ZM57.5358 13.9993L57.5023 13.6812L57.5191 12.9613C57.5191 12.9278 57.547 12.8385 57.6028 12.6934C57.6475 12.5595 57.6866 12.4646 57.7201 12.4088L57.7536 13.3966C57.7424 13.7649 57.6866 14.1109 57.5861 14.4346L57.5358 13.9993ZM57.1339 7.5368L57.1004 7.20195L57.1171 6.4653C57.1171 6.43181 57.1506 6.34252 57.2176 6.19742C57.2734 6.05232 57.3181 5.95187 57.3516 5.89606L57.3851 6.90059C57.3739 7.29125 57.3125 7.65399 57.2009 7.98884L57.1339 7.5368ZM56.4974 10.6676L56.4639 10.3662L56.4807 9.74677C56.4807 9.71329 56.5142 9.63516 56.5812 9.51238C56.637 9.38961 56.6817 9.30031 56.7151 9.24451L56.7487 10.1151C56.7263 10.4499 56.6593 10.7625 56.5477 11.0527L56.4974 10.6676ZM66.8984 2.41367C66.7533 2.436 66.6304 2.58668 66.53 2.86571L66.4127 3.2173L66.329 3.51866C66.2061 3.9428 66.0945 4.68504 65.994 5.74538L65.8935 6.95082C65.8488 7.38612 65.7986 7.72654 65.7428 7.9721L65.6925 8.47436L65.6423 8.99337C65.5753 9.37286 65.3631 9.64074 65.0058 9.797C64.7602 9.32822 64.6541 8.69201 64.6876 7.88839L64.8216 4.35577L65.0226 0.839902L65.0561 0.5218C65.0784 0.209278 64.8997 0.0474363 64.5201 0.0362749C63.2807 0.00279037 62.2367 0.0920823 61.3881 0.304151C60.9303 0.415766 60.6958 0.705964 60.6846 1.17475L60.7014 1.86118L60.7181 2.63132C60.7404 3.30101 60.746 3.78096 60.7349 4.07115L60.4501 9.76352L60.3329 10.6843C60.2324 11.2201 59.9588 11.4712 59.5122 11.4377C59.3447 11.4266 59.2219 11.3484 59.1437 11.2033L59.06 10.9857L59.0097 10.7681C58.9762 10.623 58.9595 9.83048 58.9595 8.39065C58.9707 7.86606 58.9762 7.35263 58.9762 6.85037C58.9874 6.38158 58.993 6.09697 58.993 5.99651L59.0265 5.57796V5.19288V5.17614L59.0097 5.12592L58.9762 5.05895L58.9595 5.0422L58.8757 4.97524C58.2616 4.62923 57.3293 4.51203 56.0787 4.62365C55.8107 4.64597 55.6041 4.76875 55.459 4.99198C55.2915 5.25985 55.1743 5.67841 55.1073 6.24765C55.0514 6.90617 55.0012 7.59819 54.9565 8.32368L54.8895 10.1988C54.8337 11.8061 54.7555 13.112 54.655 14.1165L54.6216 14.4848L54.655 14.8699C54.6774 15.1155 54.8058 15.2606 55.0403 15.3052L55.9615 15.3722C57.3795 15.3498 58.39 15.2606 58.993 15.1043C59.8081 14.8699 60.2492 15.1768 60.3161 16.0251C60.5283 18.5253 60.5395 20.5176 60.3496 22.0021L60.2491 22.6048L60.1654 23.2243C60.1207 23.6596 60.3161 23.8884 60.7516 23.9107L61.7565 23.9275L62.8452 23.894C63.7608 23.8716 64.4531 23.8995 64.9221 23.9777C65.3017 24.0446 65.5083 23.8605 65.5418 23.4252C65.5753 23.068 65.5585 22.3146 65.4915 21.165L65.4078 19.6582L65.324 18.2183C65.3352 17.7719 65.324 17.264 65.2905 16.6948L65.2738 16.1256C65.2626 15.9135 65.2515 15.7796 65.2403 15.7238C65.2291 15.4112 65.3631 15.2215 65.6423 15.1545L66.8482 14.8699L67.7359 14.6355L68.6068 14.3676C69.4219 14.1221 69.8462 13.8375 69.8797 13.5138C69.969 12.8441 70.0472 12.0349 70.1142 11.0862L70.1812 9.83048L70.2482 8.6083C70.2705 8.19533 70.3152 7.68748 70.3822 7.08476L70.5664 5.46076C70.7227 4.11022 70.8009 3.21172 70.8009 2.76526C70.9237 2.12905 69.6229 2.01186 66.8984 2.41367Z" fill="#919EAB"/>
<path d="M88.5379 0.119986C87.064 0.0976631 85.8972 0.170213 85.0374 0.337635C84.8811 0.37112 84.775 0.622253 84.7192 1.09104L84.6689 1.66027L84.6354 2.11231C84.5684 2.5811 84.5293 3.45727 84.5182 4.74084C84.5182 5.26543 84.5238 5.89048 84.5349 6.61598L84.5684 8.65853C84.6242 12.3307 84.6019 14.5127 84.5014 15.2047L84.4679 15.4726L84.4009 15.8912C84.3339 16.2707 84.2669 16.6055 84.1999 16.8957C83.9766 17.7775 83.7198 18.2574 83.4295 18.3355C82.9717 18.4583 82.151 18.5085 80.9674 18.4862L80.264 18.4695L79.6275 18.4527C79.1362 18.4304 78.8236 18.4193 78.6896 18.4193C78.4104 18.4193 78.1592 18.0621 77.9359 17.3477C77.8689 17.1022 77.8019 16.8176 77.7349 16.4939L77.6679 16.1256L77.6344 15.8409C77.5674 15.4168 77.5563 14.323 77.6009 12.5595L77.6344 11.3373L77.6847 10.0481L77.7516 7.35263C77.841 2.72061 77.6344 0.37112 77.132 0.304151L76.0265 0.153471L74.9546 0.0195326C74.173 -0.0362749 73.5254 0.0585978 73.0117 0.304151C72.4758 0.572026 72.3195 3.69724 72.5428 9.6798C72.5986 11.0638 72.6321 12.4925 72.6433 13.9658C72.6544 15.0038 72.6488 16.1981 72.6265 17.5487C72.6042 20.3055 72.6098 21.9965 72.6433 22.6216C72.6656 23.0345 72.9503 23.3471 73.4975 23.5591C73.6984 23.6373 73.9218 23.6986 74.1674 23.7433C74.3684 23.7656 74.5415 23.7768 74.6866 23.7768C74.7648 23.7768 75.5073 23.8047 76.9142 23.8605L78.6896 23.9442C79.3484 23.9665 79.8788 23.9833 80.2807 23.9944C80.5487 24.0056 81.7937 23.9777 84.0157 23.9107L85.2551 23.8605L86.327 23.827C87.0305 23.8047 87.4157 23.7935 87.4827 23.7935C87.7842 23.8158 88.0466 23.7489 88.2699 23.5926C88.549 23.414 88.7333 23.1127 88.8226 22.6885C88.8338 22.6439 88.8673 22.3425 88.9231 21.7844C88.9678 21.1482 89.0236 20.406 89.0906 19.5577C89.2581 17.2361 89.3921 14.9704 89.4926 12.7604C89.794 6.04116 89.7047 1.95605 89.2246 0.505058C89.1353 0.259505 88.9064 0.131148 88.5379 0.119986Z" fill="#919EAB"/>
<path d="M107.096 0.689222C107.006 0.332054 106.733 0.159051 106.275 0.170213C105.65 0.181374 104.343 0.159051 102.356 0.103244L101.217 0.0697593L100.162 0.0362749C99.4134 0.0139519 98.9054 0.00279037 98.6374 0.00279037C97.666 -0.00837112 96.5661 0.0139519 95.3379 0.0697593L93.7635 0.170213L92.1724 0.253924C91.6922 0.276247 91.4801 0.555284 91.5359 1.09104C91.5918 1.5933 91.6085 2.23509 91.5862 3.01639L91.5527 3.95396L91.5694 4.95849C91.5918 5.4496 91.8374 5.72306 92.3064 5.77886C92.8647 5.85699 94.1543 5.9128 96.1753 5.94629C98.0624 5.99093 99.3464 5.99651 100.028 5.96303C101.222 5.91838 101.568 6.45413 101.066 7.57028C101.055 7.58144 100.106 8.75898 98.2187 11.1029C97.8055 11.594 97.1468 12.3697 96.2423 13.4301C95.5501 14.2337 94.8578 15.0317 94.1655 15.8242C94.0538 15.947 93.8863 16.1256 93.663 16.36L93.0601 17.0129C92.5241 17.571 92.1277 18.0286 91.8709 18.3858C91.6029 18.7541 91.4578 19.5521 91.4354 20.7799L91.4187 21.0645L91.4019 21.4329V22.27C91.4243 22.9955 91.508 23.4643 91.6532 23.6763C91.7872 23.8549 92.4292 23.9554 93.5793 23.9777H95.0029C95.5947 23.9777 95.9799 23.9777 96.1586 23.9777C96.8174 24 97.7553 24.0056 98.9724 23.9944L100.631 23.9777L102.305 23.9442C105.108 23.9107 106.749 23.9163 107.23 23.9609C107.62 23.9944 107.844 23.7768 107.9 23.308C107.944 22.895 107.961 22.4541 107.95 21.9854V21.3994L107.967 20.7129L108 20.0265L107.983 19.3736C107.939 18.9159 107.799 18.6592 107.565 18.6034C107.051 18.4695 106.431 18.3969 105.705 18.3858L103.796 18.4025H102.791C102.289 18.4025 101.853 18.3802 101.485 18.3355C100.435 18.2239 99.9494 17.9784 100.028 17.5989C100.162 16.9738 100.67 16.0753 101.552 14.9034C101.842 14.5239 102.205 14.0719 102.64 13.5473L103.143 12.9445L103.545 12.4423C104.449 11.3261 105.359 10.0928 106.275 8.74224C106.755 8.01674 107.079 7.45867 107.246 7.06802C107.391 6.74433 107.503 6.38716 107.581 5.99651L107.632 5.56121L107.665 5.24311C107.665 3.76979 107.475 2.25183 107.096 0.689222Z" fill="#919EAB"/>
</svg>
