<svg xmlns="http://www.w3.org/2000/svg" width="108" height="24" fill="none"><path fill="#00AB55" fill-rule="evenodd" d="M64.214 2.84c.102-.279.227-.43.375-.452 2.77-.403 4.091-.285 3.967.352 0 .447-.08 1.347-.239 2.7l-.187 1.626a27.373 27.373 0 0 0-.136 1.526l-.068 1.224-.068 1.257c-.069.95-.148 1.76-.239 2.431-.034.325-.465.61-1.294.856l-.885.268-.903.235-1.225.285c-.284.067-.42.257-.409.57.011.056.023.19.034.402l.017.57c.034.57.045 1.079.034 1.526l.085 1.442.085 1.509c.069 1.151.085 1.906.051 2.264-.034.435-.244.62-.63.553-.476-.078-1.18-.106-2.11-.084l-1.107.034-1.022-.017c-.443-.023-.641-.252-.596-.688l.085-.62.102-.604c.193-1.486.182-3.482-.034-5.985-.068-.85-.516-1.157-1.345-.923-.613.157-1.64.246-3.081.269l-.937-.067c-.238-.045-.369-.19-.392-.436l-.034-.386.035-.369c.102-1.006.181-2.314.238-3.924l.068-1.877c.045-.727.096-1.42.153-2.08.068-.57.188-.989.358-1.257a.795.795 0 0 1 .63-.369c1.271-.112 2.219.006 2.843.352l.085.067.017.017.034.067.017.05v.403l-.034.419c0 .1-.005.386-.017.855 0 .503-.005 1.017-.017 1.543 0 1.442.017 2.235.051 2.38l.051.219.086.218c.079.145.204.223.374.234.454.034.732-.218.834-.754l.12-.922.289-5.701c.011-.29.006-.772-.017-1.442l-.017-.772-.017-.687c.011-.47.25-.76.715-.872.863-.212 1.924-.302 3.184-.268.386.011.567.173.545.486l-.034.319-.205 3.52-.136 3.539c-.034.804.074 1.442.324 1.911a1.03 1.03 0 0 0 .647-.805l.05-.52.052-.503c.057-.245.108-.586.153-1.022l.102-1.208c.102-1.061.216-1.805.34-2.23l.086-.301.119-.352Zm1.822 4.326.034.336.051.453c.08-.336.125-.7.136-1.09l-.034-1.006a4.509 4.509 0 0 0-.102.301 1.164 1.164 0 0 0-.085.269v.737Zm-1.056 4.88.034.234.051.302c.148-.402.233-.833.256-1.29l-.034-1.191a2.961 2.961 0 0 0-.188.352c-.09.179-.136.29-.136.335l-.017.855.034.403Zm-4.154 2.783.034.302.034.369a8.757 8.757 0 0 0 .17-1.61l-.05-1.492c-.035.09-.08.235-.137.436a2.703 2.703 0 0 0-.085.402v1.09l.034.503Zm-.409-9.306c.091-.179.142-.29.153-.335l.069-.939-.035-.42-.017-.268-.034-.318c-.17.425-.278.883-.323 1.375l-.034 1.29a3.12 3.12 0 0 0 .221-.385Zm-.255 15.543.05.453.052.554a15.8 15.8 0 0 0 .17-2.398c0-.548-.034-1.303-.102-2.264-.034.123-.08.341-.136.654-.068.335-.102.542-.102.62l.017 1.627.05.754Zm.05-12.994-.033-.302-.017-.386a6.984 6.984 0 0 0-.273 1.593l-.017 1.51.17-.437c.08-.212.12-.346.12-.402l.068-1.073-.017-.503Zm-5.175 5.6.034.319.051.436c.102-.325.159-.671.17-1.04l-.034-.99a1.56 1.56 0 0 0-.119.286 1.169 1.169 0 0 0-.085.268l-.017.721Zm-.409-6.489.034.336.069.452a3.72 3.72 0 0 0 .187-1.09l-.034-1.006a2.19 2.19 0 0 0-.136.302c-.069.145-.103.235-.103.268l-.017.738Zm-.647 3.17.034.301.051.386c.114-.291.182-.604.205-.94l-.034-.871c-.034.056-.08.145-.137.268-.068.123-.102.201-.102.235l-.017.62Z" clip-rule="evenodd"/><path fill="#00AB55" d="M15.057 18.951c-.653-.075-1.746-.139-3.278-.192-1.628-.065-2.721-.075-3.278-.032l-2.427.096c-.289 0-.61-.316-.964-.948-.3-.547-.477-1.007-.53-1.382-.097-.664-.07-2.245.08-4.74l.08-1.383.065-1.317c.032-.922.016-1.602-.048-2.041l-.065-.45.016-.434c.033-.322.156-.536.37-.643.632-.3 2.335-.295 5.11.016l1.51.193.692.096.626.08c.868.119 1.334.172 1.399.161.224-.032.337-.182.337-.45.01-.107-.059-.626-.209-1.558l-.209-1.238-.209-1.22c-.053-.376-.343-.531-.868-.467-.353.043-1.146.038-2.378-.016l-.835-.032-.884-.032-1.88-.08C4.044.84 2.148.995 1.59 1.402.542 2.175.01 3.091 0 4.151c0 .579.091 3.787.273 9.626.193 5.924.31 8.972.354 9.144.096.385.326.642.69.771l.483.096h.418c.075 0 .433.011 1.076.033l.997.032 1.124.048c2.047.075 3.198.107 3.455.096.354-.021 1.286-.032 2.797-.032h2.796c.235 0 .418-.123.546-.37.096-.181.16-.433.193-.755l.321-3.326c.032-.332-.123-.52-.466-.563Z"/><path fill="#00AB55" fill-rule="evenodd" d="M18.092 20.59c.15-.417.348-.926.595-1.526l.289-.707c.118-.29.23-.579.337-.868.065-.182.3-.99.707-2.426l.258-.868.24-.852c.183-.621.322-1.082.418-1.382.311-1.007.665-2.32 1.06-3.937l.483-1.976.514-1.993c.097-.375.31-1.077.643-2.105.225-.697.643-1.018 1.254-.964l.385.016h.45c.407-.022.686-.022.836 0 .685.075 1.355.123 2.008.144l.836.032c.354.022.745.054 1.173.097 1.093.096 1.66.477 1.704 1.14l.016.644c0 .417.01.97.032 1.655l.032 1.944c.043 1.704.059 2.845.048 3.423v.354c.022.417.075 1.339.16 2.763l.065.965.064 1.028.129 2.137c.225 3.632.327 5.609.305 5.93-.032.504-.316.723-.852.659-.214-.032-1.37-.096-3.47-.193-.193-.01-.327-.375-.402-1.093l-.049-.53-.048-.562L28.2 20.3c-.032-.332-.166-.514-.402-.546a12.57 12.57 0 0 1-.916-.193l-.74-.193a6.979 6.979 0 0 0-1.67-.273c-.547-.032-.922.204-1.125.707l-.804 2.137c-.032.086-.101.23-.209.434-.107.236-.225.461-.353.675-.343.579-.595.873-.755.884-.675.054-1.532.075-2.572.064-.364-.01-.701-.021-1.012-.032-.268-.01-.407-.021-.418-.032-.139-.053-.053-.578.257-1.575l.37-1.109.16-.417.081-.241Zm7.167-5.543c.054.032.691.17 1.912.417.568.107.938-.225 1.11-.996.063-.268.1-.584.112-.948v-.74c0-.813-.016-1.665-.049-2.554V8.57c.011-.889-.032-1.553-.128-1.992-.054-.29-.257-.429-.61-.418l-.531.048-.257.048-.21.017c-.16 0-.288.08-.385.24l-.096.226-.048.208a32.362 32.362 0 0 0-.579 2.909l-.225 1.527c-.096.621-.193 1.2-.29 1.735l-.047.21-.065.24-.096.546c-.032.461.128.772.482.932Z" clip-rule="evenodd"/><path fill="#00AB55" d="M46.457 18.759c1.532.053 2.625.117 3.279.192.342.043.498.23.466.563l-.322 3.326c-.032.322-.096.573-.193.756-.128.246-.31.37-.546.37h-2.796c-1.51 0-2.443.01-2.796.031-.257.011-1.41-.021-3.455-.096l-1.125-.048-.997-.032a72.189 72.189 0 0 0-1.076-.033h-.418l-.482-.096c-.364-.129-.595-.386-.691-.771-.043-.172-.16-3.22-.353-9.144-.183-5.839-.274-9.047-.274-9.626.011-1.06.541-1.976 1.591-2.748.557-.407 2.453-.562 5.689-.466l1.88.08.884.033.835.032c1.232.054 2.025.059 2.379.016.525-.064.814.091.867.466l.21 1.221.208 1.238c.15.932.22 1.451.21 1.559 0 .267-.113.417-.338.45-.065.01-.53-.043-1.398-.161l-.627-.08-.691-.097-1.51-.193c-2.775-.31-4.479-.316-5.11-.016-.215.107-.338.321-.37.643l-.016.434.064.45c.064.439.08 1.12.048 2.04l-.064 1.318-.08 1.382c-.15 2.496-.177 4.077-.08 4.74.053.376.23.836.53 1.383.353.632.674.948.964.948l2.426-.096c.557-.043 1.65-.033 3.278.032ZM86.31 1.082c-1.414-.021-2.534.048-3.359.209-.15.032-.251.273-.305.723l-.048.546-.032.434c-.065.45-.102 1.291-.113 2.523 0 .504.006 1.104.016 1.8l.032 1.96c.054 3.525.033 5.62-.064 6.284l-.032.257-.064.402c-.064.364-.129.685-.193.964-.214.846-.46 1.307-.74 1.382-.439.118-1.226.166-2.362.144l-.674-.016-.611-.016a26.905 26.905 0 0 0-.9-.032c-.268 0-.509-.343-.723-1.028a13.705 13.705 0 0 1-.193-.82l-.064-.353-.032-.274c-.065-.407-.075-1.457-.032-3.15l.032-1.172.048-1.238.064-2.587c.086-4.446-.112-6.7-.594-6.765l-1.061-.145-1.028-.128c-.75-.054-1.372.037-1.865.273-.514.257-.664 3.257-.45 8.999.054 1.328.086 2.7.097 4.114.01.996.005 2.142-.016 3.439-.022 2.646-.016 4.269.016 4.869.021.396.294.696.82.9.192.075.407.133.642.176.193.022.36.032.498.032.075 0 .788.027 2.138.08l1.703.081c.632.021 1.141.038 1.527.048.257.011 1.451-.016 3.583-.08l1.19-.048 1.028-.032a91.408 91.408 0 0 1 1.109-.032c.289.02.54-.043.755-.193.268-.172.445-.461.53-.868.01-.043.043-.332.097-.868.042-.61.096-1.323.16-2.137.161-2.229.29-4.403.386-6.524.29-6.45.204-10.37-.257-11.763-.086-.236-.305-.36-.659-.37ZM104.437 11.688c-.215-.996-1.281-1.618-3.198-1.864l-5.4-.418c-.407-.064-.648-.246-.723-.546-.053-.215-.037-.579.048-1.093.086-.557.21-.905.37-1.045.343-.289.798-.47 1.366-.546l.787-.064.836-.016c1.714-.032 3.085.021 4.114.16.9.129 1.473.113 1.719-.048.247-.16.386-.605.418-1.334l.016-.514-.016-.514c-.214-1.403-.466-2.196-.755-2.378-.14-.097-1.077-.241-2.812-.434-.836-.097-3.37-.08-7.601.048-.975.021-1.854.15-2.636.386-1.05.3-1.543.937-1.478 1.912l.096 1.43.065 1.398a40.05 40.05 0 0 1 .032 3.214c-.022.268-.032.595-.032.98.01.461.037.9.08 1.318.15 1.114.428 1.795.835 2.041.547.31 1.302.498 2.266.562.3.011.654.016 1.06.016l.45-.016h.338c2.86.075 4.393.563 4.596 1.463.118.653.14 1.226.064 1.72-.064.406-.701.653-1.912.738-.439.022-.932.027-1.478.017-.418-.011-.81-.033-1.173-.065l-1.784-.225-1.784-.24c-1.135-.14-1.746.181-1.832.963a84.451 84.451 0 0 0-.321 4.178c-.022.525.29.82.932.884l2.185.177c.825.064 1.549.08 2.17.048a57.387 57.387 0 0 1 4.869-.048l.643.016.739.032c.611.011 1.135.016 1.575.016 1.221-.01 1.933-.107 2.137-.289.289-.246.461-.964.514-2.153l.032-1.157.049-1.125c.032-.91.026-1.72-.017-2.427l-.16-2.78c-.075-1.071-.172-1.864-.289-2.378Z"/></svg>