<svg width="34" height="34" viewBox="0 0 34 34" fill="none" xmlns="http://www.w3.org/2000/svg">
<path fill-rule="evenodd" clip-rule="evenodd" d="M17.25 1.5C8.82766 1.5 2 8.32766 2 16.75C2 25.1723 8.82766 32 17.25 32C25.6723 32 32.5 25.1723 32.5 16.75C32.5 15.0844 32.2333 13.4826 31.7407 11.9842L33.1657 11.5158C33.7073 13.1635 34 14.9233 34 16.75C34 26.0008 26.5008 33.5 17.25 33.5C7.99923 33.5 0.5 26.0008 0.5 16.75C0.5 7.49923 7.99923 0 17.25 0C20.2997 0 23.1611 0.815694 25.6255 2.24131L24.8745 3.53972C22.6321 2.24261 20.0289 1.5 17.25 1.5ZM21.5136 22.318C20.223 22.318 19.215 22.0407 18.4896 21.486C17.775 20.9313 17.4176 20.158 17.4176 19.166C17.4176 18.4727 17.599 17.886 17.9616 17.406C18.335 16.9153 18.8203 16.5793 19.4176 16.398C18.8843 16.174 18.463 15.8327 18.1536 15.374C17.8443 14.9047 17.6896 14.366 17.6896 13.758C17.6896 12.8193 18.0363 12.0833 18.7296 11.55C19.423 11.0167 20.351 10.75 21.5136 10.75C22.687 10.75 23.6203 11.0167 24.3136 11.55C25.007 12.0833 25.3536 12.8193 25.3536 13.758C25.3536 14.366 25.1936 14.9047 24.8736 15.374C24.5643 15.8433 24.143 16.1847 23.6096 16.398C24.2176 16.5793 24.703 16.9153 25.0656 17.406C25.4283 17.886 25.6096 18.4727 25.6096 19.166C25.6096 20.158 25.247 20.9313 24.5216 21.486C23.807 22.0407 22.8043 22.318 21.5136 22.318ZM21.5136 15.806C22.2283 15.806 22.783 15.6407 23.1776 15.31C23.583 14.9687 23.7856 14.5047 23.7856 13.918C23.7856 13.342 23.583 12.8887 23.1776 12.558C22.783 12.2273 22.2283 12.062 21.5136 12.062C20.799 12.062 20.2443 12.2273 19.8496 12.558C19.455 12.8887 19.2576 13.342 19.2576 13.918C19.2576 14.5047 19.455 14.9687 19.8496 15.31C20.2443 15.6407 20.799 15.806 21.5136 15.806ZM21.5136 21.006C23.2096 21.006 24.0576 20.3553 24.0576 19.054C24.0576 17.7633 23.2096 17.118 21.5136 17.118C20.6816 17.118 20.047 17.278 19.6096 17.598C19.183 17.918 18.9696 18.4033 18.9696 19.054C18.9696 20.3553 19.8176 21.006 21.5136 21.006ZM8.99188 22.174V20.782H11.5519V12.814L9.55188 14.062L8.87988 12.83L12.0319 10.894H13.1999V20.782H15.5999V22.174H8.99188ZM28.9959 7.42213V10.75H30.5041V7.42213H33.75V5.97951H30.5041V2.75H28.9959V5.97951H25.75V7.42213H28.9959Z" fill="#919EAB"/>
</svg>
