<svg width="58" height="24" viewBox="0 0 58 24" fill="none" xmlns="http://www.w3.org/2000/svg">
<path d="M17.6686 11.4457H22.4458L25.5715 9.17139H16.9258L17.6686 11.4457Z" fill="#919EAB"/>
<path d="M11.72 11.4457L14.2 3.80566L12.9714 0.0170898L9.99429 9.17138H0.365723L3.49144 11.4457H11.72Z" fill="#919EAB"/>
<path d="M9.8801 17.1028L7.89153 15.6514L5.17725 23.9828L8.40582 21.6457L9.8801 17.1028Z" fill="#919EAB"/>
<path d="M14.4742 12.9371V16.1714C14.4742 17.5142 13.7885 18.1885 12.4171 18.1885C12.0513 18.1885 11.7028 18.1428 11.3713 18.0514C11.0456 17.9599 10.7713 17.8228 10.5542 17.6456L10.9542 16.9714C11.1199 17.1085 11.3313 17.2228 11.5885 17.3028C11.8456 17.3885 12.1028 17.4285 12.3656 17.4285C12.7828 17.4285 13.0913 17.3314 13.2856 17.1428C13.4799 16.9542 13.5771 16.6628 13.5771 16.2685V16.0685C13.4228 16.2342 13.2399 16.3599 13.0171 16.4456C12.7999 16.5314 12.5599 16.5771 12.2971 16.5771C11.9371 16.5771 11.6056 16.4971 11.3142 16.3428C11.0228 16.1885 10.7885 15.9714 10.6228 15.6914C10.4571 15.4114 10.3713 15.0914 10.3713 14.7256C10.3713 14.3656 10.4571 14.0456 10.6228 13.7656C10.7942 13.4856 11.0228 13.2742 11.3142 13.1199C11.6056 12.9656 11.9371 12.8914 12.2971 12.8914C12.5713 12.8914 12.8228 12.9371 13.0513 13.0285C13.2799 13.1199 13.4685 13.2571 13.6171 13.4456V12.9371H14.4742ZM13.2685 15.5199C13.4856 15.3199 13.5942 15.0571 13.5942 14.7314C13.5942 14.4114 13.4856 14.1542 13.2685 13.9542C13.0513 13.7542 12.7771 13.6514 12.4342 13.6514C12.0913 13.6514 11.8113 13.7542 11.5942 13.9542C11.3771 14.1542 11.2685 14.4114 11.2685 14.7314C11.2685 15.0571 11.3771 15.3199 11.5942 15.5199C11.8113 15.7199 12.0913 15.8228 12.4342 15.8228C12.7771 15.8228 13.0513 15.7256 13.2685 15.5199Z" fill="#919EAB"/>
<path d="M15.6913 12.1541C15.5828 12.0513 15.5256 11.9256 15.5256 11.7713C15.5256 11.617 15.5828 11.4913 15.6913 11.3884C15.7999 11.2856 15.9371 11.2341 16.0971 11.2341C16.2571 11.2341 16.3942 11.2856 16.5028 11.3827C16.6113 11.4798 16.6685 11.6056 16.6685 11.7484C16.6685 11.9084 16.6171 12.0398 16.5085 12.1427C16.3999 12.2513 16.2628 12.3027 16.0971 12.3027C15.9371 12.3084 15.7999 12.257 15.6913 12.1541ZM15.6456 12.937H16.5371V16.7541H15.6456V12.937Z" fill="#919EAB"/>
<path d="M18.3829 16.5541C18.0743 16.3884 17.8286 16.1541 17.6571 15.857C17.4857 15.5598 17.3943 15.2227 17.3943 14.8455C17.3943 14.4684 17.48 14.1313 17.6571 13.8398C17.8286 13.5427 18.0743 13.3141 18.3829 13.1484C18.6914 12.9827 19.04 12.897 19.4286 12.897C19.8171 12.897 20.1714 12.9827 20.48 13.1484C20.7886 13.3141 21.0286 13.5484 21.2057 13.8398C21.3771 14.137 21.4686 14.4684 21.4686 14.8455C21.4686 15.2227 21.3829 15.5598 21.2057 15.857C21.0343 16.1541 20.7886 16.3884 20.48 16.5541C20.1714 16.7198 19.8229 16.8055 19.4286 16.8055C19.04 16.8055 18.6914 16.7198 18.3829 16.5541ZM20.24 15.7084C20.4571 15.4913 20.56 15.1998 20.56 14.8455C20.56 14.4855 20.4514 14.1998 20.24 13.9827C20.0229 13.7655 19.7543 13.6513 19.4229 13.6513C19.0914 13.6513 18.8229 13.7598 18.6114 13.9827C18.4 14.1998 18.2914 14.4913 18.2914 14.8455C18.2914 15.1998 18.4 15.4913 18.6114 15.7084C18.8229 15.9255 19.0914 16.0398 19.4229 16.0398C19.7543 16.0398 20.0229 15.9313 20.24 15.7084Z" fill="#919EAB"/>
<path d="M23.0056 16.5541C22.6913 16.3884 22.4456 16.1541 22.2685 15.857C22.0913 15.5598 22.0056 15.2227 22.0056 14.8455C22.0056 14.4684 22.0913 14.1313 22.2685 13.8398C22.4456 13.5427 22.6913 13.3141 22.9999 13.1484C23.3142 12.9827 23.6685 12.897 24.0685 12.897C24.4456 12.897 24.777 12.9713 25.057 13.1255C25.3428 13.2798 25.5542 13.497 25.697 13.7827L25.0113 14.1827C24.9028 14.0055 24.7656 13.8741 24.5999 13.7884C24.4342 13.7027 24.257 13.657 24.0628 13.657C23.7313 13.657 23.4513 13.7655 23.2342 13.9827C23.017 14.1998 22.9085 14.4913 22.9085 14.8513C22.9085 15.2113 23.017 15.5027 23.2342 15.7198C23.4513 15.937 23.7256 16.0455 24.0685 16.0455C24.2628 16.0455 24.4456 15.9998 24.6056 15.9141C24.7713 15.8284 24.9085 15.6913 25.017 15.5198L25.7028 15.9198C25.5542 16.2055 25.337 16.4284 25.057 16.5827C24.7713 16.737 24.4456 16.817 24.0742 16.817C23.6742 16.8055 23.3199 16.7198 23.0056 16.5541Z" fill="#919EAB"/>
<path d="M27.0857 16.5541C26.7772 16.3884 26.5315 16.1541 26.36 15.857C26.1886 15.5598 26.0972 15.2227 26.0972 14.8455C26.0972 14.4684 26.1829 14.1313 26.36 13.8398C26.5315 13.5427 26.7772 13.3141 27.0857 13.1484C27.3943 12.9827 27.7429 12.897 28.1315 12.897C28.52 12.897 28.8743 12.9827 29.1829 13.1484C29.4915 13.3141 29.7315 13.5484 29.9086 13.8398C30.08 14.137 30.1715 14.4684 30.1715 14.8455C30.1715 15.2227 30.0857 15.5598 29.9086 15.857C29.7372 16.1541 29.4915 16.3884 29.1829 16.5541C28.8743 16.7198 28.5257 16.8055 28.1315 16.8055C27.7429 16.8055 27.3943 16.7198 27.0857 16.5541ZM28.9429 15.7084C29.16 15.4913 29.2629 15.1998 29.2629 14.8455C29.2629 14.4855 29.1543 14.1998 28.9429 13.9827C28.7257 13.7655 28.4572 13.6513 28.1257 13.6513C27.7943 13.6513 27.5257 13.7598 27.3143 13.9827C27.1029 14.1998 26.9943 14.4913 26.9943 14.8455C26.9943 15.1998 27.1029 15.4913 27.3143 15.7084C27.5257 15.9255 27.7943 16.0398 28.1257 16.0398C28.4572 16.0398 28.7257 15.9313 28.9429 15.7084Z" fill="#919EAB"/>
<path d="M12.897 18.7427V19.5941C12.8227 19.577 12.7541 19.5712 12.6913 19.5712C12.3427 19.5712 12.0741 19.6741 11.8741 19.8741C11.6798 20.0741 11.5827 20.3655 11.5827 20.7484V22.5998H10.6855V18.7827H11.537V19.3427C11.7941 18.9427 12.2455 18.7427 12.897 18.7427Z" fill="#919EAB"/>
<path d="M17.1885 20.9771H14.1943C14.2457 21.2571 14.3828 21.4799 14.6057 21.6456C14.8285 21.8113 15.1028 21.8913 15.4285 21.8913C15.8457 21.8913 16.1943 21.7542 16.4628 21.4799L16.9428 22.0285C16.7714 22.2342 16.5543 22.3885 16.2914 22.4913C16.0285 22.5942 15.7314 22.6513 15.4057 22.6513C14.9885 22.6513 14.6171 22.5656 14.2971 22.3999C13.9771 22.2342 13.7314 21.9999 13.56 21.7028C13.3885 21.4056 13.2971 21.0685 13.2971 20.6913C13.2971 20.3199 13.3828 19.9828 13.5485 19.6856C13.72 19.3885 13.9543 19.1542 14.2514 18.9885C14.5543 18.8228 14.8914 18.7371 15.2685 18.7371C15.64 18.7371 15.9714 18.8171 16.2628 18.9828C16.5543 19.1485 16.7828 19.3771 16.9485 19.6742C17.1143 19.9713 17.1943 20.3142 17.1943 20.7085C17.2057 20.7771 17.2 20.8628 17.1885 20.9771ZM14.5485 19.7085C14.3485 19.8799 14.2285 20.1028 14.1885 20.3828H16.3543C16.3143 20.1085 16.2 19.8856 16.0057 19.7085C15.8114 19.5371 15.5657 19.4513 15.2743 19.4513C14.9885 19.4571 14.7485 19.5371 14.5485 19.7085Z" fill="#919EAB"/>
<path d="M18.3314 22.5255C18.0342 22.4455 17.7999 22.3426 17.6228 22.2169L17.9657 21.5369C18.1371 21.6512 18.3428 21.7426 18.5828 21.8112C18.8228 21.8798 19.0628 21.9141 19.2914 21.9141C19.8228 21.9141 20.0914 21.7712 20.0914 21.4912C20.0914 21.3598 20.0228 21.2626 19.8857 21.2112C19.7485 21.1598 19.5314 21.1083 19.2342 21.0626C18.9199 21.0169 18.6628 20.9598 18.4685 20.8969C18.2685 20.8341 18.0971 20.7255 17.9542 20.5712C17.8114 20.4169 17.7371 20.1998 17.7371 19.9255C17.7371 19.5655 17.8857 19.2741 18.1885 19.0569C18.4914 18.8398 18.8971 18.7312 19.4114 18.7312C19.6742 18.7312 19.9371 18.7598 20.1999 18.8226C20.4628 18.8798 20.6742 18.9598 20.8399 19.0626L20.4971 19.7426C20.1714 19.5541 19.8114 19.4569 19.4057 19.4569C19.1428 19.4569 18.9428 19.4969 18.8114 19.5769C18.6742 19.6569 18.6057 19.7598 18.6057 19.8855C18.6057 20.0283 18.6799 20.1312 18.8228 20.1883C18.9657 20.2455 19.1942 20.3026 19.4971 20.3541C19.7999 20.3998 20.0514 20.4569 20.2457 20.5198C20.4399 20.5826 20.6114 20.6855 20.7485 20.8341C20.8914 20.9826 20.9599 21.1883 20.9599 21.4626C20.9599 21.8169 20.8057 22.1083 20.4971 22.3198C20.1885 22.5369 19.7657 22.6398 19.2342 22.6398C18.9314 22.6512 18.6285 22.6112 18.3314 22.5255Z" fill="#919EAB"/>
<path d="M24.8512 18.9826C25.1427 19.1426 25.3712 19.3712 25.5427 19.6683C25.7084 19.9655 25.7941 20.3026 25.7941 20.6912C25.7941 21.074 25.7084 21.4169 25.5427 21.714C25.377 22.0112 25.1484 22.2398 24.8512 22.4055C24.5598 22.5655 24.2284 22.6512 23.857 22.6512C23.3427 22.6512 22.937 22.4798 22.6341 22.1369V23.9883H21.7427V18.7883H22.5941V19.2912C22.7427 19.1083 22.9255 18.9769 23.1427 18.8855C23.3598 18.794 23.5998 18.7483 23.8627 18.7483C24.2284 18.7426 24.5598 18.8226 24.8512 18.9826ZM24.5655 21.554C24.777 21.3369 24.8855 21.0455 24.8855 20.6912C24.8855 20.3312 24.777 20.0455 24.5655 19.8283C24.3541 19.6112 24.0855 19.4969 23.7541 19.4969C23.537 19.4969 23.3484 19.5483 23.177 19.6455C23.0055 19.7426 22.8684 19.8855 22.7712 20.0626C22.6741 20.2455 22.6227 20.4512 22.6227 20.6912C22.6227 20.9312 22.6741 21.1369 22.7712 21.3198C22.8741 21.5026 23.0055 21.6398 23.177 21.7369C23.3484 21.834 23.5427 21.8855 23.7541 21.8855C24.0855 21.8855 24.3541 21.7769 24.5655 21.554Z" fill="#919EAB"/>
<path d="M27.3143 22.3998C27.0057 22.2341 26.76 21.9998 26.5885 21.7027C26.4171 21.4055 26.3257 21.0684 26.3257 20.6912C26.3257 20.3141 26.4114 19.977 26.5885 19.6855C26.76 19.3884 27.0057 19.1598 27.3143 18.9941C27.6228 18.8284 27.9714 18.7427 28.36 18.7427C28.7485 18.7427 29.1028 18.8284 29.4114 18.9941C29.72 19.1598 29.9657 19.3941 30.1371 19.6855C30.3085 19.9827 30.4 20.3141 30.4 20.6912C30.4 21.0684 30.3143 21.4055 30.1371 21.7027C29.9657 21.9998 29.72 22.2341 29.4114 22.3998C29.1028 22.5655 28.7543 22.6512 28.36 22.6512C27.9714 22.6512 27.6228 22.5655 27.3143 22.3998ZM29.1714 21.5541C29.3885 21.337 29.4914 21.0455 29.4914 20.6912C29.4914 20.3312 29.3828 20.0455 29.1714 19.8284C28.9543 19.6112 28.6857 19.497 28.3543 19.497C28.0228 19.497 27.7543 19.6055 27.5428 19.8284C27.3314 20.0455 27.2228 20.337 27.2228 20.6912C27.2228 21.0455 27.3314 21.337 27.5428 21.5541C27.7543 21.7712 28.0228 21.8855 28.3543 21.8855C28.6857 21.8855 28.9543 21.777 29.1714 21.5541Z" fill="#919EAB"/>
<path d="M34.5712 19.1599C34.8626 19.4399 35.0055 19.8571 35.0055 20.4113V22.5999H34.1141V20.5256C34.1141 20.1942 34.0341 19.9428 33.8798 19.7713C33.7198 19.5999 33.4969 19.5199 33.2055 19.5199C32.8798 19.5199 32.6169 19.6171 32.4284 19.8171C32.2398 20.0171 32.1427 20.2971 32.1427 20.6685V22.5999H31.2512V18.7828H32.1027V19.2742C32.2512 19.0971 32.4341 18.9656 32.6626 18.8742C32.8855 18.7828 33.1369 18.7371 33.4227 18.7371C33.8969 18.7428 34.2798 18.8799 34.5712 19.1599Z" fill="#919EAB"/>
<path d="M36.4171 22.5255C36.1199 22.4455 35.8856 22.3426 35.7085 22.2169L36.0514 21.5369C36.2228 21.6512 36.4285 21.7426 36.6685 21.8112C36.9085 21.8798 37.1428 21.9141 37.3771 21.9141C37.9085 21.9141 38.1771 21.7712 38.1771 21.4912C38.1771 21.3598 38.1085 21.2626 37.9714 21.2112C37.8342 21.1598 37.6171 21.1083 37.3199 21.0626C37.0056 21.0169 36.7485 20.9598 36.5542 20.8969C36.3542 20.8341 36.1828 20.7255 36.0399 20.5712C35.8971 20.4169 35.8228 20.1998 35.8228 19.9255C35.8228 19.5655 35.9714 19.2741 36.2742 19.0569C36.5771 18.8398 36.9828 18.7312 37.4971 18.7312C37.7599 18.7312 38.0228 18.7598 38.2856 18.8226C38.5485 18.8855 38.7599 18.9598 38.9314 19.0626L38.5885 19.7426C38.2628 19.5541 37.9028 19.4569 37.4971 19.4569C37.2342 19.4569 37.0342 19.4969 36.9028 19.5769C36.7656 19.6569 36.6971 19.7598 36.6971 19.8855C36.6971 20.0283 36.7714 20.1312 36.9142 20.1883C37.0571 20.2455 37.2856 20.3026 37.5885 20.3541C37.8914 20.3998 38.1428 20.4569 38.3371 20.5198C38.5314 20.5826 38.6971 20.6855 38.8399 20.8341C38.9828 20.9826 39.0513 21.1883 39.0513 21.4626C39.0513 21.8169 38.8971 22.1083 38.5885 22.3198C38.2799 22.5369 37.8571 22.6398 37.3256 22.6398C37.0114 22.6512 36.7085 22.6112 36.4171 22.5255Z" fill="#919EAB"/>
<path d="M42.5714 19.1427C42.8686 19.4112 43.0172 19.817 43.0172 20.3598V22.5941H42.1714V22.1312C42.0629 22.297 41.9029 22.4284 41.7029 22.5141C41.4972 22.5998 41.2572 22.6455 40.9714 22.6455C40.6857 22.6455 40.4343 22.5941 40.2229 22.497C40.0114 22.3998 39.8457 22.2627 39.7257 22.0912C39.6057 21.9198 39.5486 21.7198 39.5486 21.5027C39.5486 21.1598 39.6743 20.8855 39.9314 20.6798C40.1886 20.4741 40.5886 20.3712 41.1372 20.3712H42.1257V20.3141C42.1257 20.0455 42.0457 19.8398 41.8857 19.697C41.7257 19.5541 41.4914 19.4798 41.1772 19.4798C40.96 19.4798 40.7543 19.5141 40.5429 19.5827C40.3372 19.6512 40.16 19.7427 40.0172 19.8627L39.6686 19.2112C39.8686 19.057 40.1086 18.9427 40.3886 18.8627C40.6686 18.7827 40.9657 18.7427 41.28 18.7427C41.84 18.7427 42.2743 18.8741 42.5714 19.1427ZM41.7543 21.8455C41.9257 21.7427 42.0514 21.5941 42.12 21.4055V20.9655H41.2C40.6857 20.9655 40.4286 21.137 40.4286 21.4741C40.4286 21.6341 40.4914 21.7655 40.6229 21.8627C40.7543 21.9598 40.9314 22.0055 41.16 22.0055C41.3829 21.9998 41.5829 21.9484 41.7543 21.8455Z" fill="#919EAB"/>
<path d="M47.2686 18.9826C47.56 19.1426 47.7886 19.3712 47.96 19.6683C48.1257 19.9654 48.2114 20.3026 48.2114 20.6912C48.2114 21.074 48.1257 21.4169 47.96 21.714C47.7943 22.0112 47.5657 22.2397 47.2686 22.4054C46.9772 22.5654 46.6457 22.6512 46.2743 22.6512C46.0114 22.6512 45.7714 22.6054 45.5543 22.514C45.3372 22.4226 45.1543 22.2854 45.0057 22.1083V22.5997H44.1543V17.2969H45.0457V19.2454C45.2 19.0797 45.3772 18.954 45.5829 18.8683C45.7886 18.7826 46.0172 18.7369 46.2629 18.7369C46.6457 18.7426 46.9772 18.8226 47.2686 18.9826ZM46.9829 21.554C47.1943 21.3369 47.3029 21.0454 47.3029 20.6912C47.3029 20.3312 47.1943 20.0454 46.9829 19.8283C46.7714 19.6112 46.5029 19.4969 46.1714 19.4969C45.9543 19.4969 45.7657 19.5483 45.5943 19.6454C45.4229 19.7426 45.2857 19.8854 45.1886 20.0626C45.0857 20.2454 45.04 20.4512 45.04 20.6912C45.04 20.9312 45.0914 21.1369 45.1886 21.3197C45.2857 21.5026 45.4229 21.6397 45.5943 21.7369C45.7657 21.834 45.96 21.8854 46.1714 21.8854C46.5029 21.8854 46.7714 21.7769 46.9829 21.554Z" fill="#919EAB"/>
<path d="M49.1027 17.9998C48.9942 17.897 48.937 17.7713 48.937 17.617C48.937 17.4627 48.9942 17.337 49.1027 17.2341C49.2113 17.1313 49.3484 17.0798 49.5084 17.0798C49.6684 17.0798 49.8056 17.1313 49.9142 17.2284C50.0227 17.3255 50.0799 17.4513 50.0799 17.5941C50.0799 17.7541 50.0284 17.8855 49.9199 17.9884C49.8113 18.097 49.6742 18.1484 49.5084 18.1484C49.3484 18.1541 49.2113 18.1027 49.1027 17.9998ZM49.0627 18.7827H49.9542V22.5998H49.0627V18.7827Z" fill="#919EAB"/>
<path d="M51.1257 17.2969H52.0172V22.5997H51.1257V17.2969Z" fill="#919EAB"/>
<path d="M56.7657 20.9771H53.7714C53.8228 21.2571 53.96 21.4799 54.1828 21.6456C54.4057 21.8113 54.68 21.8913 55.0057 21.8913C55.4228 21.8913 55.7714 21.7542 56.04 21.4799L56.52 22.0285C56.3486 22.2342 56.1314 22.3885 55.8686 22.4913C55.6057 22.5942 55.3086 22.6513 54.9828 22.6513C54.5657 22.6513 54.1943 22.5656 53.8743 22.3999C53.5543 22.2342 53.3086 21.9999 53.1371 21.7028C52.9657 21.4056 52.8743 21.0685 52.8743 20.6913C52.8743 20.3199 52.96 19.9828 53.1257 19.6856C53.2971 19.3885 53.5314 19.1542 53.8286 18.9885C54.1314 18.8228 54.4686 18.7371 54.8457 18.7371C55.2171 18.7371 55.5486 18.8171 55.84 18.9828C56.1314 19.1485 56.36 19.3771 56.5257 19.6742C56.6914 19.9713 56.7714 20.3142 56.7714 20.7085C56.7771 20.7771 56.7714 20.8628 56.7657 20.9771ZM54.1257 19.7085C53.9257 19.8799 53.8057 20.1028 53.7657 20.3828H55.9314C55.8914 20.1085 55.7771 19.8856 55.5828 19.7085C55.3886 19.5371 55.1428 19.4513 54.8514 19.4513C54.56 19.4571 54.32 19.5371 54.1257 19.7085Z" fill="#919EAB"/>
</svg>
