<svg width="78" height="24" viewBox="0 0 78 24" fill="none" xmlns="http://www.w3.org/2000/svg">
<g clip-path="url(#clip0_1180_8150)">
<path fill-rule="evenodd" clip-rule="evenodd" d="M72.1195 18.2217C71.8679 18.2217 71.645 18.2601 71.4495 18.3359C71.2604 18.4087 71.0885 18.5199 70.9447 18.6626C70.8001 18.809 70.6827 18.9799 70.5979 19.1674C70.5054 19.3718 70.442 19.5881 70.4093 19.81H73.7546C73.6788 19.3079 73.4992 18.917 73.2166 18.6394C72.934 18.3611 72.5674 18.2217 72.1195 18.2217ZM76.5139 23.5861V23.1948H76.4117L76.294 23.4638L76.1767 23.1948H76.0745V23.5857H76.1461V23.2908L76.2568 23.5451H76.3315L76.4415 23.2904V23.5857H76.5139V23.5861ZM75.867 23.5861V23.2613H75.9975V23.1955H75.6646V23.2613H75.7954V23.5861H75.867ZM72.1462 16.9702C72.5949 16.9702 73.0068 17.0515 73.3811 17.2153C73.7484 17.3739 74.0768 17.6106 74.3434 17.909C74.6105 18.2074 74.8188 18.5639 74.9693 18.9789C75.1195 19.3939 75.195 19.8533 75.195 20.3554C75.1961 20.5308 75.187 20.706 75.1679 20.8803H70.4032C70.4477 21.1722 70.5309 21.4207 70.6521 21.6274C70.7732 21.8341 70.9192 22.0037 71.0895 22.1357C71.2598 22.2684 71.4506 22.366 71.6616 22.4283C71.8757 22.4916 72.0979 22.5233 72.3212 22.5224C72.6444 22.5224 72.9684 22.4635 73.2936 22.3443C73.6188 22.2255 73.9161 22.0582 74.1859 21.843L74.8853 22.8456C74.4905 23.1824 74.0721 23.4177 73.63 23.5524C73.177 23.6886 72.7063 23.7566 72.2333 23.7541C71.7495 23.7541 71.3051 23.6732 70.9013 23.5122C70.5095 23.3586 70.154 23.1248 69.8577 22.8259C69.5663 22.5293 69.3394 22.1724 69.178 21.7552C69.0166 21.3379 68.9361 20.8737 68.9361 20.3616C68.9361 19.8595 69.0139 19.3997 69.1714 18.9828C69.3286 18.5651 69.5481 18.2074 69.831 17.909C70.1161 17.6091 70.4611 17.3728 70.8437 17.2153C71.237 17.0519 71.6709 16.9702 72.1462 16.9702ZM64.1972 18.2961C63.8922 18.2961 63.6197 18.351 63.3793 18.461C63.1476 18.5648 62.9402 18.7162 62.7708 18.9053C62.6013 19.0968 62.4708 19.3196 62.3868 19.5611C62.296 19.8181 62.2504 20.089 62.2521 20.3616C62.2521 20.6446 62.297 20.9121 62.3868 21.1633C62.4708 21.4049 62.6012 21.6278 62.7708 21.8194C62.9404 22.0084 63.1477 22.1597 63.3793 22.2638C63.6197 22.3737 63.8922 22.4283 64.1972 22.4283C64.4891 22.4283 64.7539 22.3757 64.9915 22.2696C65.2296 22.1651 65.4336 22.0199 65.6039 21.8361C65.7781 21.6468 65.913 21.425 66.0011 21.1834C66.0974 20.9202 66.1454 20.6418 66.1428 20.3616C66.1428 20.0659 66.0951 19.7918 66.0011 19.541C65.9127 19.2995 65.7778 19.0778 65.6039 18.8883C65.4336 18.7044 65.2296 18.5601 64.9915 18.4536C64.7539 18.3491 64.4891 18.2961 64.1972 18.2961ZM64.0292 16.9702C64.4914 16.9702 64.8886 17.0566 65.2203 17.2296C65.5452 17.3966 65.83 17.6319 66.0553 17.9194V13.894H67.462V23.5861H66.0549V22.8119C65.8301 23.0991 65.5451 23.3335 65.2199 23.4986C64.8882 23.669 64.491 23.7541 64.0288 23.7541C63.5755 23.7541 63.154 23.6705 62.7638 23.5017C62.3793 23.3378 62.0315 23.0987 61.7407 22.7984C61.4431 22.4897 61.2098 22.1249 61.0544 21.7253C60.8875 21.3104 60.8051 20.8555 60.8051 20.3616C60.8051 19.8688 60.8875 19.414 61.0544 18.999C61.21 18.5994 61.4432 18.2345 61.7407 17.9256C62.0373 17.6196 62.3931 17.3771 62.7864 17.2128C63.1797 17.0486 63.6023 16.9661 64.0284 16.9702H64.0292ZM56.3229 18.2961C56.0483 18.2935 55.7759 18.3449 55.5212 18.4474C55.2816 18.5437 55.0643 18.6879 54.8825 18.8713C54.6993 19.0587 54.555 19.2805 54.4579 19.5239C54.3525 19.7905 54.2999 20.075 54.303 20.3616C54.303 20.6674 54.3553 20.9469 54.4579 21.2004C54.5548 21.444 54.699 21.6659 54.8821 21.8535C55.0643 22.0364 55.2817 22.1805 55.5212 22.277C55.7759 22.3792 56.0481 22.4306 56.3225 22.4283C56.6097 22.4283 56.8764 22.378 57.1234 22.2773C57.37 22.1759 57.5841 22.0346 57.766 21.8535C57.951 21.6668 58.0965 21.4447 58.1937 21.2004C58.2971 20.9469 58.3486 20.6674 58.3486 20.3616C58.352 20.075 58.2994 19.7904 58.1937 19.5239C58.0965 19.2798 57.951 19.0579 57.766 18.8713C57.5841 18.6893 57.37 18.5481 57.1234 18.4474C56.8691 18.345 56.5971 18.2937 56.3229 18.2964V18.2961ZM56.3229 16.9702C56.8207 16.9702 57.2817 17.0566 57.7056 17.2296C58.1154 17.3931 58.4892 17.6353 58.8057 17.9426C59.1173 18.2483 59.3646 18.6131 59.5331 19.0157C59.7081 19.4291 59.7952 19.8777 59.7952 20.3616C59.7952 20.847 59.7081 21.2953 59.5331 21.7083C59.3646 22.111 59.1173 22.476 58.8057 22.7817C58.4891 23.089 58.1153 23.3314 57.7056 23.4952C57.2817 23.6682 56.8207 23.7545 56.3229 23.7545C55.8247 23.7545 55.3633 23.6682 54.9394 23.4952C54.5303 23.332 54.1575 23.0895 53.8424 22.7817C53.5326 22.4753 53.2865 22.1104 53.1185 21.7083C52.9443 21.2953 52.8564 20.847 52.8564 20.3616C52.8564 19.8777 52.9443 19.4291 53.1185 19.0157C53.2865 18.6137 53.5326 18.249 53.8424 17.9426C54.1573 17.6347 54.5302 17.3922 54.9394 17.2292C55.3633 17.0566 55.8247 16.9702 56.3229 16.9702ZM48.0104 13.9881C48.4277 13.9881 48.8318 14.033 49.222 14.1228C49.6001 14.2081 49.9663 14.3394 50.3124 14.5137C50.6484 14.6841 50.9546 14.8912 51.2275 15.1358C51.4965 15.3745 51.7279 15.6525 51.9139 15.9603L50.6423 16.8081C50.36 16.3907 49.9797 16.0489 49.5348 15.8124C49.0834 15.5701 48.5763 15.4493 48.0104 15.4493C47.53 15.4493 47.086 15.5322 46.678 15.6979C46.2814 15.8564 45.9216 16.0946 45.6208 16.3977C45.3251 16.6989 45.0928 17.0601 44.9244 17.4816C44.7564 17.9035 44.6721 18.3681 44.6721 18.8748C44.6721 19.3819 44.7564 19.8464 44.9244 20.2679C45.0928 20.6895 45.3251 21.0506 45.6208 21.3518C45.9214 21.6551 46.2811 21.8933 46.6776 22.0517C47.086 22.2173 47.53 22.3002 48.0104 22.3002C48.5709 22.3002 49.0749 22.1817 49.5212 21.9437C49.9675 21.7065 50.3499 21.3649 50.6357 20.9481L51.8744 21.8566C51.6733 22.151 51.4345 22.4178 51.1641 22.6501C50.8891 22.8861 50.5862 23.0874 50.2621 23.2493C49.9243 23.4185 49.5672 23.5463 49.1988 23.6299C48.8194 23.717 48.4234 23.7615 48.0104 23.7615C47.2881 23.7615 46.6238 23.6388 46.0184 23.3937C45.4122 23.1499 44.8919 22.8096 44.4568 22.3745C44.0214 21.9394 43.6826 21.4234 43.4407 20.8269C43.198 20.2296 43.0772 19.5793 43.0772 18.8748C43.0772 18.1702 43.198 17.5199 43.4407 16.9226C43.6826 16.3261 44.0214 15.8101 44.4568 15.375C44.8919 14.9399 45.4122 14.6001 46.0184 14.3554C46.6238 14.1108 47.2881 13.9881 48.0104 13.9881ZM38.8637 18.2217C38.6121 18.2217 38.3895 18.2601 38.194 18.3359C38.005 18.4086 37.8332 18.5199 37.6896 18.6626C37.5448 18.8089 37.4274 18.9798 37.3428 19.1674C37.2504 19.3718 37.1869 19.5881 37.1543 19.81H40.4999C40.4229 19.3079 40.2437 18.917 39.9611 18.6394C39.6785 18.3611 39.3127 18.2217 38.8637 18.2217ZM38.8908 16.9702C39.3398 16.9702 39.7509 17.0515 40.126 17.2153C40.4933 17.3741 40.8218 17.6108 41.0887 17.909C41.355 18.2074 41.5641 18.5639 41.7143 18.9789C41.8644 19.3939 41.9399 19.8533 41.9399 20.3554C41.9396 20.5307 41.9305 20.7059 41.9124 20.8803H37.1473C37.1926 21.1722 37.2754 21.4207 37.3962 21.6274C37.5083 21.8233 37.6569 21.9958 37.834 22.1357C38.0047 22.2683 38.199 22.3676 38.4065 22.4283C38.6204 22.4916 38.8423 22.5233 39.0653 22.5224C39.389 22.5224 39.7133 22.4635 40.0385 22.3443C40.3612 22.227 40.6625 22.0577 40.9304 21.843L41.6303 22.8456C41.2354 23.1824 40.8174 23.4177 40.3749 23.5524C39.9219 23.6886 39.4512 23.7566 38.9783 23.7541C38.4936 23.7541 38.0492 23.6732 37.6455 23.5122C37.2539 23.3585 36.8987 23.1248 36.6026 22.8259C36.3104 22.5293 36.0843 22.1724 35.9229 21.7552C35.7611 21.3379 35.6802 20.8737 35.6802 20.3616C35.6802 19.8595 35.7588 19.3997 35.9163 18.9828C36.0731 18.5651 36.293 18.2074 36.5755 17.909C36.8604 17.6089 37.2055 17.3725 37.5882 17.2153C37.9811 17.0519 38.415 16.9702 38.8912 16.9702H38.8908ZM34.1659 16.9702C34.3608 16.9686 34.5556 16.9832 34.7481 17.014C34.9195 17.0424 35.0874 17.0884 35.2493 17.1514L34.9133 18.545C34.7492 18.4633 34.5747 18.4044 34.3946 18.37C34.2132 18.3311 34.0282 18.3108 33.8426 18.3092C33.6181 18.3092 33.4122 18.3472 33.2233 18.4238C33.0382 18.4977 32.8724 18.6129 32.7386 18.7606C32.5977 18.9191 32.4902 19.1043 32.4224 19.3052C32.3461 19.5204 32.3082 19.7651 32.3082 20.0392V23.5861H30.9015V17.1386H32.295V17.8652C32.5103 17.5555 32.777 17.3291 33.0955 17.1855C33.4145 17.0422 33.771 16.9702 34.1659 16.9702ZM29.031 20.8536C29.031 21.365 28.9451 21.8047 28.7748 22.1724C28.6044 22.5402 28.3799 22.8413 28.102 23.0744C27.8216 23.3093 27.4963 23.4846 27.1459 23.5896C26.7881 23.699 26.416 23.7545 26.0419 23.7541C25.6656 23.7541 25.2971 23.6992 24.9386 23.5896C24.5875 23.4843 24.2612 23.3092 23.9794 23.0748C23.6992 22.8413 23.4746 22.5406 23.3066 22.1724C23.1383 21.8047 23.0543 21.365 23.0543 20.8536V17.1386H24.4672V20.7251C24.4672 21.0348 24.5082 21.2988 24.5887 21.5159C24.6692 21.7339 24.7807 21.9096 24.9216 22.0443C25.064 22.1793 25.2357 22.2795 25.4233 22.337C25.6237 22.3985 25.8322 22.4292 26.0419 22.4279C26.2625 22.4279 26.4684 22.3973 26.662 22.337C26.8544 22.2766 27.0216 22.1786 27.1629 22.0443C27.3046 21.9096 27.4153 21.7339 27.4958 21.5159C27.5771 21.2988 27.6174 21.0348 27.6174 20.7251V17.1382H29.031V20.8536ZM19.4059 16.9702C19.8905 16.9702 20.3415 17.0566 20.7584 17.2296C21.1681 17.3967 21.531 17.6611 21.8155 17.9999L20.9136 18.9619C20.6848 18.7466 20.4468 18.5817 20.2002 18.4675C19.9532 18.3533 19.6753 18.2961 19.3656 18.2961C19.0962 18.2961 18.8446 18.3464 18.6119 18.4474C18.3827 18.5451 18.1764 18.6894 18.0061 18.8713C17.8311 19.0605 17.6949 19.2822 17.6055 19.5239C17.5063 19.7919 17.4571 20.0759 17.4603 20.3616C17.4603 20.6674 17.5091 20.9469 17.6055 21.2004C17.6949 21.4423 17.831 21.6642 18.0061 21.8535C18.1767 22.0349 18.3829 22.1791 18.6119 22.277C18.85 22.3788 19.1066 22.4304 19.3656 22.4283C19.6753 22.4283 19.9648 22.3644 20.2335 22.2363C20.5029 22.1086 20.741 21.9483 20.9469 21.7552L21.8155 22.7244C21.5257 23.0606 21.1615 23.3245 20.7518 23.4952C20.3395 23.6682 19.8905 23.7545 19.4059 23.7545C18.8941 23.7545 18.4296 23.6682 18.0127 23.4952C17.5958 23.3221 17.2385 23.0844 16.9428 22.7817C16.6434 22.4743 16.4099 22.109 16.2564 21.7083C16.0946 21.2953 16.0137 20.847 16.0137 20.3616C16.0137 19.8777 16.095 19.4291 16.2564 19.0157C16.4099 18.6151 16.6434 18.2499 16.9428 17.9426C17.2385 17.6395 17.5958 17.4022 18.0127 17.2292C18.4296 17.0566 18.8941 16.9702 19.4059 16.9702ZM11.9287 18.2217C11.6771 18.2217 11.4541 18.2601 11.2586 18.3359C11.0696 18.4087 10.8977 18.5199 10.7539 18.6626C10.6094 18.809 10.4921 18.98 10.4074 19.1674C10.3149 19.3717 10.2516 19.588 10.2193 19.81H13.5646C13.4883 19.3079 13.3087 18.917 13.0257 18.6394C12.7432 18.3611 12.3773 18.2217 11.9291 18.2217H11.9287ZM11.9554 16.9702C12.4041 16.9702 12.8159 17.0515 13.1903 17.2153C13.5576 17.3741 13.886 17.6108 14.153 17.909C14.4201 18.2074 14.6283 18.5639 14.7793 18.9789C14.9287 19.3939 15.0042 19.8533 15.0042 20.3554C15.004 20.5307 14.995 20.7059 14.9771 20.8803H10.2131C10.258 21.1722 10.3408 21.4207 10.462 21.6274C10.5828 21.8341 10.7291 22.0037 10.8994 22.1357C11.07 22.2683 11.2641 22.3676 11.4715 22.4283C11.6857 22.4916 11.9079 22.5233 12.1312 22.5224C12.4544 22.5224 12.7784 22.4635 13.1035 22.3443C13.4262 22.227 13.7275 22.0577 13.9954 21.843L14.6953 22.8456C14.3004 23.1824 13.8824 23.4177 13.4407 23.5524C12.9875 23.6887 12.5165 23.7566 12.0433 23.7541C11.5586 23.7541 11.1143 23.6732 10.7101 23.5122C10.3185 23.3583 9.96321 23.1246 9.6669 22.8259C9.37541 22.5293 9.14858 22.1724 8.98716 21.7552C8.82574 21.3379 8.74522 20.8737 8.74522 20.3616C8.74522 19.8595 8.82341 19.3997 8.98058 18.9828C9.13735 18.5651 9.35761 18.2074 9.64019 17.909C9.92528 17.609 10.2705 17.3726 10.6532 17.2153C11.0453 17.0519 11.4797 16.9702 11.9554 16.9702ZM6.82058 16.2499C6.42567 15.9983 6.00031 15.7981 5.55477 15.6541C5.10875 15.512 4.64327 15.4404 4.17516 15.442C3.88514 15.4393 3.59588 15.4722 3.31387 15.5399C3.05335 15.6046 2.83 15.699 2.64419 15.8225C2.46789 15.9358 2.31943 16.0875 2.20987 16.2661C2.10651 16.4392 2.05503 16.6339 2.05503 16.8491C2.05503 17.0461 2.09993 17.2145 2.18974 17.3539C2.27954 17.4932 2.40845 17.6109 2.57683 17.7069C2.74522 17.8033 2.95038 17.8834 3.19232 17.9461C3.46303 18.0147 3.73723 18.0687 4.01374 18.1079L4.66677 18.195C5.04511 18.248 5.41857 18.3314 5.78354 18.4443C6.13083 18.5483 6.45924 18.7072 6.75632 18.915C7.03878 19.1144 7.27335 19.3741 7.44303 19.6753C7.61567 19.9811 7.70199 20.3515 7.70199 20.7862C7.70199 21.2662 7.60096 21.6909 7.3989 22.0582C7.19815 22.4253 6.91758 22.7427 6.57787 22.9869C6.23258 23.2381 5.83193 23.429 5.3767 23.559C4.90454 23.6913 4.41621 23.757 3.92587 23.7541C3.60767 23.7541 3.2767 23.7274 2.93335 23.6732C2.59038 23.6194 2.25129 23.5401 1.91722 23.4348C1.58686 23.3307 1.26585 23.199 0.957608 23.0411C0.652576 22.8839 0.379285 22.6997 0.136963 22.4887L0.964963 21.2771C1.14206 21.4367 1.33749 21.5747 1.54716 21.6882C1.78127 21.8171 2.02526 21.9271 2.27683 22.0172C2.54063 22.113 2.81204 22.1863 3.08819 22.2363C3.36845 22.2878 3.64561 22.3137 3.91929 22.3137C4.22896 22.3137 4.51735 22.2828 4.78445 22.2197C5.05116 22.157 5.28341 22.0648 5.48122 21.9437C5.67825 21.8229 5.83425 21.6758 5.94883 21.5028C6.06341 21.3301 6.1207 21.1366 6.1207 20.9213C6.1207 20.5528 5.93954 20.2726 5.57877 20.0794C5.21722 19.8862 4.69154 19.7426 4.00019 19.6486L3.26703 19.5472C2.91806 19.4986 2.57438 19.4176 2.24045 19.3052C1.91718 19.1995 1.61446 19.0391 1.34548 18.831C1.08096 18.6247 0.865023 18.3628 0.712963 18.0638C0.553479 17.7568 0.47335 17.3833 0.47335 16.9428C0.47335 16.4717 0.571673 16.0536 0.766769 15.6878C0.960004 15.3245 1.23255 15.0093 1.56419 14.7657C1.90058 14.5164 2.29425 14.3272 2.74561 14.1971C3.19619 14.067 3.67774 14.002 4.18909 14.002C4.87541 14.002 5.49593 14.093 6.04987 14.2745C6.59583 14.4522 7.11554 14.7021 7.59516 15.0177L6.82096 16.2499H6.82058Z" fill="#919EAB"/>
<path fill-rule="evenodd" clip-rule="evenodd" d="M71.8585 4.80383C71.5423 4.80383 71.2593 4.86112 71.0108 4.97454C70.7702 5.0824 70.5549 5.23945 70.3787 5.43558C70.2032 5.63465 70.0681 5.8659 69.9807 6.11648C69.8867 6.38327 69.8394 6.66431 69.841 6.94719C69.841 7.24061 69.8878 7.517 69.9807 7.7779C70.0736 8.03841 70.2068 8.26564 70.3787 8.45842C70.5546 8.65465 70.7699 8.81172 71.0104 8.91945C71.2593 9.03287 71.5423 9.09016 71.8585 9.09016C72.1616 9.09016 72.4353 9.03558 72.6831 8.92603C72.9233 8.82121 73.1394 8.6681 73.3179 8.47622C73.4982 8.27961 73.638 8.04943 73.7294 7.7988C73.8297 7.52622 73.8796 7.23764 73.8765 6.94719C73.8765 6.63983 73.8277 6.35571 73.7294 6.09519C73.638 5.84465 73.4983 5.61449 73.3183 5.41777C73.1393 5.22609 72.923 5.07302 72.6827 4.96796C72.4357 4.85842 72.1616 4.80383 71.8585 4.80383ZM76.8753 9.97274V10.078H76.9721C76.9945 10.078 77.0127 10.0734 77.0255 10.0649C77.0391 10.0564 77.0456 10.0432 77.0456 10.025C77.046 10.0173 77.0444 10.0096 77.0408 10.0027C77.0373 9.99587 77.032 9.99006 77.0255 9.9859C77.0095 9.97638 76.9911 9.9718 76.9725 9.97274H76.8753ZM76.9733 9.89841C77.0152 9.89582 77.0568 9.90786 77.0909 9.93248C77.1045 9.94365 77.1153 9.95783 77.1224 9.97389C77.1295 9.98995 77.1328 10.0074 77.132 10.025C77.1324 10.0399 77.1298 10.0548 77.1242 10.0687C77.1186 10.0825 77.1102 10.0951 77.0994 10.1055C77.0734 10.1285 77.0405 10.1423 77.0058 10.1446L77.1351 10.294H77.0344L76.914 10.1458H76.8753V10.294H76.7913V9.89803H76.9733V9.89841ZM76.9485 10.4291C76.9945 10.4291 77.0375 10.4202 77.0766 10.4032C77.1365 10.3777 77.1874 10.3351 77.223 10.2806C77.2587 10.2262 77.2773 10.1624 77.2767 10.0974C77.2771 10.0541 77.2689 10.0112 77.2525 9.97111C77.2362 9.93103 77.212 9.8946 77.1815 9.86392C77.151 9.83325 77.1146 9.80893 77.0746 9.7924C77.0346 9.77586 76.9918 9.76742 76.9485 9.76758C76.9046 9.76707 76.8611 9.7753 76.8204 9.79178C76.7797 9.80826 76.7427 9.83267 76.7116 9.86358C76.6809 9.89431 76.6566 9.93085 76.6402 9.97106C76.6238 10.0113 76.6155 10.0543 76.616 10.0978C76.6157 10.1413 76.624 10.1844 76.6404 10.2248C76.6568 10.2651 76.681 10.3018 76.7116 10.3327C76.7748 10.3948 76.8599 10.4296 76.9485 10.4295V10.4291ZM76.9485 9.67235C77.0627 9.67265 77.1723 9.71719 77.2543 9.79661C77.2943 9.83595 77.3261 9.88281 77.3479 9.9345C77.3697 9.98619 77.381 10.0417 77.3812 10.0978C77.381 10.1818 77.3557 10.2639 77.3086 10.3335C77.2616 10.4032 77.1948 10.4572 77.1169 10.4887C77.0637 10.5117 77.0064 10.5235 76.9485 10.5232C76.8873 10.5232 76.8304 10.5116 76.7774 10.4891C76.6741 10.4461 76.5914 10.3648 76.5467 10.2623C76.5242 10.2104 76.5128 10.1543 76.513 10.0978C76.5128 10.0418 76.5239 9.98631 76.5455 9.93465C76.5671 9.88299 76.5988 9.83619 76.6388 9.797C76.7217 9.71646 76.8329 9.67182 76.9485 9.67274V9.67235ZM71.684 3.42848C72.1636 3.42848 72.5754 3.51829 72.9203 3.69713C73.2571 3.87029 73.5524 4.11433 73.7859 4.41248V0.238029H75.2449V10.2909H73.7855V9.48771C73.5529 9.78561 73.2575 10.0287 72.9203 10.1996C72.5754 10.3773 72.1636 10.4655 71.684 10.4655C71.2332 10.4692 70.7865 10.3802 70.3717 10.2038C69.9732 10.0333 69.6126 9.78511 69.3111 9.47377C69.008 9.16216 68.7711 8.79093 68.5988 8.36048C68.4269 7.92964 68.3402 7.45854 68.3402 6.9468C68.3402 6.43506 68.4269 5.96358 68.5988 5.53274C68.7711 5.10306 69.008 4.73145 69.3111 4.41983C69.6125 4.10835 69.9731 3.86016 70.3717 3.68977C70.7866 3.51359 71.2332 3.42453 71.684 3.42809V3.42848ZM66.8948 3.42848C67.1185 3.42848 67.3198 3.44396 67.4987 3.47377C67.6765 3.50371 67.8508 3.5517 68.0189 3.617L67.6698 5.06203C67.5165 4.98306 67.3373 4.92267 67.1329 4.88087C66.9445 4.84077 66.7526 4.81963 66.56 4.81777C66.3402 4.81542 66.1221 4.85578 65.9178 4.93661C65.7259 5.01328 65.5541 5.1327 65.4153 5.28577C65.269 5.45013 65.1573 5.64236 65.0871 5.85093C65.0081 6.07467 64.9682 6.32783 64.9682 6.61196V10.2909H63.5089V3.60345H64.9547V4.35674C65.1776 4.03583 65.4544 3.80087 65.7854 3.65183C66.1156 3.50319 66.4856 3.42848 66.8948 3.42848ZM57.9734 4.80383C57.6571 4.80383 57.3742 4.86112 57.1249 4.97454C56.8845 5.08258 56.6693 5.23961 56.4931 5.43558C56.3178 5.63478 56.1827 5.86599 56.0952 6.11648C56.0015 6.38336 55.9544 6.66435 55.9558 6.94719C55.9558 7.24061 56.0031 7.517 56.0952 7.7779C56.1826 8.02831 56.3178 8.2594 56.4931 8.45842C56.6658 8.65196 56.8764 8.80525 57.1249 8.91945C57.3742 9.03287 57.6571 9.09016 57.9734 9.09016C58.2761 9.09016 58.5505 9.03558 58.7971 8.92603C59.0376 8.82132 59.254 8.66821 59.4327 8.47622C59.6096 8.285 59.7463 8.05971 59.8446 7.7988C59.9425 7.53829 59.9909 7.25454 59.9909 6.94719C59.9941 6.65667 59.9445 6.36799 59.8446 6.09519C59.753 5.8446 59.613 5.61445 59.4327 5.41777C59.2538 5.22597 59.0375 5.07288 58.7971 4.96796C58.5505 4.85842 58.2761 4.80383 57.9734 4.80383ZM61.3593 10.2909H59.9V9.48771C59.6673 9.78561 59.3719 10.0287 59.0348 10.1996C58.6899 10.3773 58.2784 10.4655 57.7992 10.4655C57.3289 10.4655 56.8911 10.378 56.4865 10.2038C56.088 10.0332 55.7273 9.785 55.4255 9.47377C55.1173 9.15304 54.8753 8.77475 54.7132 8.36048C54.5414 7.92964 54.4551 7.45854 54.4551 6.9468C54.4551 6.43506 54.5414 5.96358 54.7132 5.53274C54.8855 5.10306 55.1228 4.73145 55.4255 4.41983C55.7272 4.10847 56.0879 3.86029 56.4865 3.68977C56.9014 3.51355 57.3481 3.42448 57.7988 3.42809C58.2788 3.42809 58.6899 3.5179 59.0348 3.69674C59.3716 3.8699 59.6669 4.11395 59.9003 4.41209V3.60306H61.3593V10.2909ZM51.0831 3.42848C51.5859 3.42848 52.0535 3.51829 52.4859 3.69713C52.9107 3.87076 53.2868 4.14525 53.5818 4.49687L52.6465 5.49558C52.4093 5.27145 52.1627 5.10074 51.9072 4.9819C51.6505 4.86383 51.3625 4.80383 51.0409 4.80383C50.7722 4.80166 50.5061 4.85531 50.2593 4.96138C50.0214 5.06255 49.8073 5.21233 49.6307 5.40112C49.4492 5.59717 49.3081 5.82711 49.2157 6.07777C49.1151 6.341 49.0655 6.63054 49.0655 6.94719C49.0655 7.26383 49.1151 7.55338 49.2157 7.81661C49.3083 8.06732 49.4493 8.29736 49.6307 8.49364C49.8074 8.68217 50.0215 8.8318 50.2593 8.933C50.5061 9.03898 50.7723 9.0925 51.0409 9.09016C51.3622 9.09016 51.6622 9.02358 51.9416 8.89158C52.2127 8.76443 52.4624 8.59597 52.6818 8.39222L53.5818 9.39751C53.2818 9.74645 52.9042 10.0202 52.4793 10.1969C52.0508 10.3761 51.5859 10.4659 51.0831 10.4659C50.5527 10.4659 50.0704 10.3761 49.638 10.1969C49.2049 10.0176 48.8348 9.77106 48.5278 9.45751C48.2176 9.13813 47.9755 8.75913 47.816 8.34345C47.6483 7.91493 47.5647 7.44925 47.5647 6.94719C47.5647 6.44474 47.6483 5.97906 47.8163 5.55054C47.9757 5.13509 48.2177 4.75633 48.5278 4.43725C48.8348 4.12293 49.2052 3.87674 49.638 3.69713C50.0704 3.51829 50.5527 3.42848 51.0831 3.42848ZM46.0918 3.42848C46.3152 3.42848 46.5165 3.44396 46.6957 3.47377C46.8745 3.50435 47.048 3.55158 47.2152 3.617L46.8664 5.06203C46.6962 4.97727 46.5152 4.91631 46.3283 4.88087C46.1404 4.84073 45.9488 4.81959 45.7566 4.81777C45.5367 4.81544 45.3185 4.8558 45.114 4.93661C44.9222 5.01341 44.7504 5.13281 44.6116 5.28577C44.4656 5.45039 44.354 5.64255 44.2833 5.85093C44.2043 6.07467 44.1649 6.32783 44.1649 6.61196V10.2909H42.7059V3.60345H44.1505V4.35674C44.3739 4.03583 44.6511 3.80087 44.9816 3.65183C45.3118 3.50319 45.6819 3.42848 46.0918 3.42848ZM37.8471 4.72758C37.5865 4.72758 37.3547 4.76667 37.1522 4.84564C36.9559 4.92083 36.7776 5.03619 36.6285 5.18435C36.4784 5.3361 36.3568 5.51348 36.2692 5.70809C36.1732 5.91991 36.1074 6.14416 36.0738 6.37429H39.5437C39.464 5.85364 39.2782 5.44835 38.9847 5.15996C38.6913 4.87158 38.312 4.72758 37.8471 4.72758ZM37.8749 3.42848C38.3398 3.42848 38.7672 3.51364 39.1562 3.68319C39.5371 3.84767 39.8776 4.0931 40.1542 4.40241C40.4309 4.71209 40.6477 5.08216 40.8033 5.51261C40.9593 5.94306 41.0371 6.4188 41.0371 6.94022C41.0377 7.12199 41.0286 7.30366 41.01 7.48448H36.0668C36.1129 7.78719 36.1992 8.04577 36.325 8.25983C36.4411 8.46287 36.5951 8.64172 36.7787 8.78667C36.9559 8.92385 37.1571 9.02677 37.3721 9.09016C37.5941 9.15594 37.8245 9.1888 38.0561 9.18771C38.4007 9.18622 38.7424 9.12371 39.0652 9.00306C39.3998 8.88128 39.7122 8.70554 39.99 8.4828L40.7162 9.52293C40.3063 9.87209 39.8723 10.1167 39.414 10.2561C38.9444 10.3976 38.4563 10.4683 37.9659 10.4659C37.4631 10.4659 37.002 10.3815 36.5832 10.2143C36.1769 10.055 35.8084 9.81269 35.5013 9.5028C35.1989 9.19506 34.9632 8.825 34.7963 8.39183C34.6283 7.95945 34.5447 7.47751 34.5447 6.94719C34.5447 6.42616 34.626 5.94848 34.789 5.51571C34.952 5.08293 35.18 4.71209 35.4734 4.40241C35.769 4.09117 36.1272 3.84605 36.5243 3.68319C36.9316 3.51364 37.3814 3.42848 37.8749 3.42848ZM33.3862 4.92925H30.8236V7.84061C30.8236 8.06358 30.8518 8.2548 30.9076 8.41312C30.955 8.55693 31.0325 8.68901 31.1348 8.80061C31.2275 8.89909 31.3421 8.9744 31.4692 9.02048C31.597 9.06693 31.7363 9.09016 31.8854 9.09016C32.1229 9.08855 32.358 9.04369 32.5794 8.95777C32.8148 8.86874 33.0323 8.7619 33.2325 8.63648L33.8116 9.80203C33.5266 9.99174 33.2212 10.1489 32.9011 10.2704C32.5636 10.4001 32.1831 10.4659 31.7592 10.4659C31.0005 10.4659 30.4105 10.2553 29.9894 9.83416C29.5682 9.41222 29.3576 8.75803 29.3576 7.86848V4.92925H28.0237V3.60345H29.3573V1.57854H30.8232V3.60306H33.3858V4.92925H33.3862ZM26.461 5.2788C26.1851 5.12068 25.8923 4.99408 25.5881 4.90138C25.4062 4.84564 25.2149 4.79958 25.0125 4.76203C24.8085 4.72476 24.6016 4.7061 24.3943 4.70629C23.994 4.70629 23.6836 4.77983 23.4622 4.92616C23.2411 5.07209 23.1308 5.26487 23.1308 5.50216C23.1308 5.61829 23.1594 5.71583 23.2179 5.7948C23.2797 5.87735 23.3597 5.94451 23.4517 5.99106C23.5496 6.04216 23.6658 6.0828 23.8012 6.11261C23.936 6.14319 24.0803 6.1699 24.2336 6.19274L24.9246 6.29803C25.6554 6.40487 26.2252 6.61738 26.6352 6.93674C27.0451 7.25532 27.2499 7.70125 27.2499 8.27338C27.2499 8.59467 27.1806 8.88887 27.0436 9.15674C26.902 9.4297 26.699 9.66609 26.4505 9.84732C26.192 10.0409 25.873 10.1907 25.494 10.2979C25.1147 10.4055 24.685 10.4585 24.2058 10.4585C24.0335 10.4585 23.833 10.4481 23.6058 10.4272C23.3774 10.4059 23.1354 10.3641 22.8792 10.3018C22.6121 10.2351 22.3507 10.1476 22.0972 10.0401C21.8268 9.92491 21.5714 9.77724 21.3366 9.60035L22.014 8.50409C22.1393 8.6002 22.2709 8.68763 22.4081 8.76577C22.5502 8.84706 22.7104 8.91945 22.8896 8.98177C23.0828 9.04855 23.2814 9.09879 23.4831 9.13196C23.6998 9.16912 23.9452 9.18771 24.2197 9.18771C24.7225 9.18771 25.1019 9.11454 25.3578 8.96861C25.6136 8.8219 25.7418 8.62254 25.7418 8.37132C25.7418 8.18087 25.6485 8.02332 25.4627 7.90022C25.2761 7.77674 24.9831 7.68693 24.5832 7.63119L23.8849 7.54022C23.1401 7.43803 22.5757 7.22087 22.1917 6.88796C21.8077 6.55506 21.6157 6.1188 21.6157 5.57842C21.6157 5.24822 21.68 4.95054 21.8077 4.685C21.9358 4.42016 22.1247 4.18937 22.3589 4.01145C22.5989 3.82796 22.8885 3.6859 23.2283 3.58564C23.5682 3.48577 23.9522 3.43545 24.3803 3.43545C24.906 3.43545 25.4015 3.49738 25.8676 3.62087C26.3329 3.74358 26.7401 3.917 27.0889 4.14074L26.4606 5.2788H26.461ZM16.3725 4.80383C16.0558 4.80383 15.7729 4.86112 15.5243 4.97454C15.284 5.08258 15.0688 5.23961 14.8926 5.43558C14.717 5.63452 14.5818 5.8658 14.4947 6.11648C14.4005 6.38323 14.3533 6.66431 14.3553 6.94719C14.3553 7.24061 14.401 7.517 14.4947 7.7779C14.5817 8.02849 14.7169 8.25967 14.8926 8.45842C15.0649 8.65196 15.2754 8.80525 15.5243 8.91945C15.7729 9.03287 16.0558 9.09016 16.3721 9.09016C16.6748 9.09016 16.9496 9.03558 17.1958 8.92603C17.4365 8.82142 17.653 8.66829 17.8318 8.47622C18.0083 8.285 18.1454 8.05971 18.2437 7.7988C18.3412 7.53829 18.3896 7.25454 18.3896 6.94719C18.3927 6.65672 18.3433 6.36808 18.2437 6.09519C18.1519 5.8447 18.012 5.61458 17.8318 5.41777C17.6529 5.22587 17.4364 5.07277 17.1958 4.96796C16.9496 4.85842 16.6748 4.80383 16.3721 4.80383H16.3725ZM19.758 10.2909H18.2987V9.48771C18.0662 9.78561 17.7709 10.0287 17.4339 10.1996C17.0894 10.3773 16.6771 10.4655 16.1979 10.4655C15.747 10.4692 15.3002 10.3802 14.8852 10.2038C14.4867 10.0332 14.126 9.785 13.8242 9.47377C13.5162 9.15336 13.2744 8.7753 13.1127 8.36125C12.9405 7.93041 12.8542 7.45932 12.8542 6.94758C12.8542 6.43583 12.9405 5.96435 13.1127 5.53351C13.2744 5.11927 13.5163 4.74106 13.8246 4.42061C14.1263 4.10925 14.487 3.86107 14.8856 3.69055C15.3005 3.51437 15.7472 3.4253 16.1979 3.42887C16.6779 3.42887 17.0894 3.51867 17.4343 3.69751C17.771 3.87067 18.0661 4.11472 18.2994 4.41287V3.60383H19.7584V10.2909H19.758ZM11.4509 10.2909H9.87312V2.249L7.01828 9.33441H5.35686L2.50163 2.32525V10.2909H0.923828V0.517512H3.34589L6.18796 7.49803L9.02925 0.517126H11.4513V10.2909H11.4509Z" fill="#919EAB"/>
</g>
<defs>
<clipPath id="clip0_1180_8150">
<rect width="77.4194" height="24" fill="white" transform="translate(0.142822)"/>
</clipPath>
</defs>
</svg>
