<svg width="110" height="28" fill="none" xmlns="http://www.w3.org/2000/svg"><g clip-path="url(#a)"><path fill-rule="evenodd" clip-rule="evenodd" d="M96.837 10.708a3.244 3.244 0 0 1 .87.575 3.076 3.076 0 0 1 1.035 2.21v.039l6.565-7.518.09-.103 4.078-4.678c.3-.344.345-.653.207-.912a.046.046 0 0 1-.019-.011.037.037 0 0 1-.012-.018.551.551 0 0 0-.048-.085.915.915 0 0 0-.128-.13.483.483 0 0 0-.283-.075h-3.995c-.335 0-.668.026-.999.08a7.071 7.071 0 0 0-2.852 1.932c-1.635 1.875-3.058 4.933-4.05 7.45l-.459 1.244Zm3.493-6.163c-.195.457-.353.93-.476 1.411-.08.326-.144.655-.202.989-.025.16-.05.32-.073.477a21.2 21.2 0 0 0-.132 1.45c-.016.325-.039.643-.062.958l-.006.083V9.926l-.03.397a16.922 16.922 0 0 1-.138 1.173l-.004.028-.004.03-.004.022v.001c-.079.53-.19 1.055-.333 1.571a6.953 6.953 0 0 0 .678-1.55l1.96-2.663 1.034-1.395-2.767 3.19c.018-.086.034-.172.05-.258l.015-.085c.039-.207.07-.414.097-.621l2.587-3.544-2.498 2.847.002-.014.005-.04a.507.507 0 0 0 .01-.087l.076-.766.015.012 1.835-2.564.389-.545-.473.543-1.679 1.878c.037-.304.082-.607.136-.908l1.988-2.808-1.832 2.029c.082-.365.175-.726.289-1.08.306-.912.678-1.802 1.11-2.661a9.486 9.486 0 0 0-1.563 2.487Zm-63.521.96c-.19 0-.336-.06-.44-.182a.606.606 0 0 1-.103-.492l.517-2.41a.742.742 0 0 1 .284-.466c.173-.138.345-.207.517-.207h3.231c.19 0 .336.069.44.207.103.12.138.276.103.466l-.543 2.41a.732.732 0 0 1-.258.492.82.82 0 0 1-.517.182h-3.231Zm-3.697 15.157c.104.121.25.182.44.182h3.231a.72.72 0 0 0 .491-.182.742.742 0 0 0 .284-.466l2.585-12.178c.035-.19 0-.346-.103-.467-.086-.12-.224-.18-.414-.18h-3.23c-.19 0-.363.068-.518.206a.731.731 0 0 0-.284.44l-2.56 12.179a.621.621 0 0 0 .078.466Zm-32.74.052c.087.087.207.13.363.13h3.54c.414 0 .742-.19.983-.57l1.5-2.514h6.746l.413 2.462c.07.415.336.622.802.622H18a.59.59 0 0 0 .465-.207c.121-.139.173-.329.156-.57l-2.508-16.61c-.069-.5-.362-.75-.879-.75h-4.187c-.5 0-.896.25-1.189.75L.321 20.068a.646.646 0 0 0-.078.285c0 .138.043.259.13.362Zm12.873-6.84h-4.6l3.695-6.607.905 6.607Zm9.32 6.97c-.241 0-.414-.052-.517-.156a1.454 1.454 0 0 1-.207-.492L19.49 8.122c-.035-.225 0-.406.103-.545.121-.138.31-.207.569-.207h2.895c.224 0 .38.052.465.156a.97.97 0 0 1 .233.44l1.163 7.696 4.498-7.748c.207-.363.49-.544.853-.544h3.308c.155 0 .276.043.362.13.086.069.13.172.13.31a.714.714 0 0 1-.13.363L26.52 20.196a2.067 2.067 0 0 1-.44.492c-.138.104-.327.156-.568.156h-2.947Zm19.095-.907c.793.777 1.913 1.166 3.36 1.166.913 0 1.672-.138 2.275-.415.603-.293 1.206-.725 1.81-1.295l-.182.803a.562.562 0 0 0 .104.466c.103.121.25.182.44.182h3.075c.172 0 .336-.06.491-.182a.74.74 0 0 0 .285-.466l2.584-12.178a.494.494 0 0 0-.103-.44.516.516 0 0 0-.44-.208h-3.05a.82.82 0 0 0-.517.182.788.788 0 0 0-.258.466l-.155.648a3.506 3.506 0 0 0-1.37-1.14c-.551-.277-1.31-.415-2.275-.415-1.74 0-3.17.536-4.29 1.607-1.12 1.053-1.93 2.539-2.43 4.456l-.388 1.84c-.086.449-.13.967-.13 1.555 0 1.45.388 2.573 1.164 3.368Zm7.108-3.135c-.465.466-1.077.7-1.835.7-.586 0-1-.147-1.24-.441-.242-.294-.363-.717-.363-1.27 0-.276.026-.57.078-.88a9.25 9.25 0 0 1 .336-1.607c.241-.812.577-1.443 1.008-1.892.43-.466 1.017-.7 1.758-.7.603 0 1.042.156 1.318.467.276.311.414.734.414 1.27 0 .12-.018.32-.052.596-.086.57-.224 1.217-.414 1.943-.19.726-.525 1.33-1.008 1.814Zm9.768.414c0 2.418 1.611 3.628 4.834 3.628h2.197c.172 0 .336-.06.49-.182a.742.742 0 0 0 .285-.466l.517-2.384c.035-.19 0-.345-.103-.466-.087-.139-.224-.207-.414-.207h-2.094c-.396 0-.68-.078-.853-.234-.155-.155-.232-.397-.232-.725 0-.294.034-.588.103-.881l.93-4.405h3.258c.172 0 .336-.06.49-.181a.742.742 0 0 0 .285-.467l.465-2.228c.035-.19 0-.346-.103-.467-.086-.12-.224-.18-.414-.18h-3.23l.904-4.276a.494.494 0 0 0-.103-.44c-.087-.139-.224-.208-.414-.208h-3.18a.787.787 0 0 0-.49.181.741.741 0 0 0-.285.467l-.905 4.275h-2.041c-.19 0-.362.07-.517.207a.731.731 0 0 0-.285.44l-.44 2.23a.5.5 0 0 0 .078.466c.104.12.25.18.44.18h2.016l-1.008 4.794a6.958 6.958 0 0 0-.181 1.53Zm9.97 3.446c.104.121.25.182.44.182h3.412c.19 0 .362-.06.517-.182a.741.741 0 0 0 .284-.466l1.396-6.53c.138-.69.43-1.226.879-1.606.448-.38 1.016-.57 1.706-.57h2.61a.82.82 0 0 0 .517-.181.715.715 0 0 0 .259-.467l.594-2.824c.035-.19 0-.346-.103-.467-.086-.12-.216-.18-.388-.18h-1.5c-.895 0-1.653.146-2.274.44a4.406 4.406 0 0 0-1.602 1.217l.207-.984c.034-.19 0-.346-.104-.467-.086-.138-.224-.207-.413-.207h-3.154a.76.76 0 0 0-.517.207.742.742 0 0 0-.284.467l-2.56 12.152a.621.621 0 0 0 .078.466ZM83.728 5.323c.104.121.25.182.44.182h3.23a.82.82 0 0 0 .518-.182.732.732 0 0 0 .258-.492l.543-2.41c.034-.19 0-.345-.104-.466a.516.516 0 0 0-.439-.207h-3.231c-.172 0-.345.069-.517.207a.742.742 0 0 0-.284.466l-.517 2.41c-.035.19 0 .354.103.492Zm-2.817 15.52c-.19 0-.336-.06-.44-.18a.621.621 0 0 1-.077-.467l2.559-12.178a.733.733 0 0 1 .284-.44.759.759 0 0 1 .517-.208h3.231c.19 0 .327.06.414.181.103.121.137.277.103.467l-2.585 12.178a.742.742 0 0 1-.284.466.72.72 0 0 1-.491.182H80.91Zm11.293-7.495-2.508-5.053a.845.845 0 0 1-.052-.207.69.69 0 0 1 .18-.467.636.636 0 0 1 .492-.233h3.205c.328 0 .56.156.698.467l1.621 3.12a3.056 3.056 0 0 1 2.4 2.987 3.052 3.052 0 0 1-3.048 3.056 3.053 3.053 0 0 1-2.988-3.67Zm4.15.614c0 .644-.52 1.165-1.162 1.165a1.164 1.164 0 0 1-1.162-1.165c0-.643.52-1.165 1.162-1.165.642 0 1.162.521 1.162 1.165Zm-2.868 3.259c.048.026.098.05.15.073l-.46 1.244c-.992 2.517-2.415 5.575-4.049 7.45a7.083 7.083 0 0 1-2.853 1.932c-.33.054-.664.08-.999.08h-3.994a.483.483 0 0 1-.284-.074.947.947 0 0 1-.128-.13.549.549 0 0 1-.047-.086.047.047 0 0 0-.031-.029c-.139-.259-.093-.568.206-.912l4.078-4.678.09-.103 6.566-7.518v.04c.012.382.095.758.243 1.11.18.421.45.796.792 1.1.216.198.459.367.72.5Zm-2.868 4.825a9.769 9.769 0 0 1-.475 1.411 9.492 9.492 0 0 1-1.564 2.487c.433-.86.804-1.748 1.11-2.66.114-.355.208-.716.29-1.08l-1.832 2.028 1.987-2.808c.054-.301.1-.604.137-.908l-1.68 1.878-.473.543.39-.545 1.835-2.564.014.012.077-.766c0-.03.005-.059.01-.087a.562.562 0 0 0 .007-.054l-2.498 2.847 2.587-3.544c.026-.207.057-.414.097-.622.02-.114.041-.227.064-.341l-2.767 3.19 1.034-1.396 1.96-2.663c.163-.542.39-1.063.678-1.55a13.21 13.21 0 0 0-.332 1.57l-.01.058v.001l-.003.023a16.6 16.6 0 0 0-.138 1.173l-.03.41c-.025.343-.05.688-.068 1.04-.024.494-.074.973-.132 1.451l-.069.455-.003.022c-.058.334-.122.663-.203.989Zm7.68-6.18a3.636 3.636 0 0 1-3.995 1.637l1.5 2.886c.137.31.37.466.697.466h3.205c.19 0 .354-.078.491-.233a.689.689 0 0 0 .181-.467.858.858 0 0 0-.051-.207l-2.027-4.083Z" fill="#fff"/></g><defs><clipPath id="a"><path fill="#fff" transform="translate(.243 .001)" d="M0 0h109.513v28H0z"/></clipPath></defs></svg>