<svg width="49" height="36" fill="none" xmlns="http://www.w3.org/2000/svg"><path fill-rule="evenodd" clip-rule="evenodd" d="M9.47.001H3.054A2.358 2.358 0 0 0 .7 2.364v6.441a2.358 2.358 0 0 0 2.354 2.363H9.47c1.3 0 2.353-1.058 2.353-2.363V2.364A2.358 2.358 0 0 0 9.47 0ZM7.778 5.383l.008-.005c.13-.078.815-.49.807-1.32-.007-.61-.265-1.08-.805-1.41-.475-.29-1.152-.366-1.974-.366-1.229 0-1.918.166-1.918.166v6.32s.461.114 1.63.114c.666 0 1.61-.024 2.131-.25.66-.29 1.217-.807 1.217-1.716 0-1.15-.915-1.468-1.078-1.525h-.002l-.016-.006v-.002Zm-2.82-2.14.255-.02c.234-.018.4-.03.652-.03.448 0 1.642.003 1.642.89s-1.191.934-1.45.934H4.96V3.244l-.002-.002Zm.796 4.701c-.377 0-.796-.025-.796-.025v-1.97h1.098c.287 0 1.703 0 1.703.95 0 1.011-1.4 1.047-2.005 1.047v-.002ZM15.421.001h6.416c1.3 0 2.353 1.058 2.353 2.363v6.441a2.358 2.358 0 0 1-2.353 2.363H15.42a2.358 2.358 0 0 1-2.354-2.363V2.364A2.358 2.358 0 0 1 15.421 0Zm6.167 8.881H20.45l-.722-2.052h-2.2l-.722 2.052h-1.139l2.446-6.6h1.03l2.445 6.6Zm-2.971-5.155L17.85 5.91h1.552l-.766-2.182s-.003-.006-.01-.006-.01.006-.01.006Zm9.17-3.726h6.417c1.3 0 2.353 1.058 2.353 2.363v6.441a2.358 2.358 0 0 1-2.353 2.363h-6.416a2.358 2.358 0 0 1-2.354-2.363V2.364A2.358 2.358 0 0 1 27.788 0Zm4.574 5.777c.424.213.63.692.876 1.662h.002c.13.508.356 1.107.604 1.442h-1.208c-.175-.213-.39-.885-.505-1.445-.079-.381-.176-.714-.365-.938-.187-.222-.517-.337-.913-.337H29.75v2.72h-1.062v-6.46c.302-.043 1.21-.14 1.983-.14.386 0 1.047 0 1.678.28.59.263 1.079.745 1.079 1.598 0 1.114-.848 1.517-1.067 1.618Zm-2.613-.533h1.195c.255 0 1.404-.065 1.404-.988 0-1.022-1.295-1.022-1.751-1.022h-.015a4.671 4.671 0 0 0-.833.07v1.94Zm4.456 19.589h-6.416a2.358 2.358 0 0 0-2.354 2.363v6.44a2.358 2.358 0 0 0 2.354 2.364h6.416c1.3 0 2.353-1.058 2.353-2.363v-6.441a2.358 2.358 0 0 0-2.353-2.363Zm-1.849 2.284v4.652l-2.714-4.652H28.58v6.6h1.061v-4.652l2.715 4.652h1.061v-6.6h-1.062Zm7.817-2.284h6.416c1.3 0 2.354 1.058 2.354 2.363v6.44a2.358 2.358 0 0 1-2.354 2.364h-6.416a2.358 2.358 0 0 1-2.353-2.363v-6.441a2.358 2.358 0 0 1 2.353-2.363Zm3.525 6.238v-.944h2.414v3.148c-.525.282-1.203.444-2.055.444-2.58 0-3.56-1.483-3.56-3.301s1.335-3.301 3.56-3.301c.742 0 1.33.085 1.91.388l-.33.902c-.433-.23-.967-.357-1.58-.357-1.508 0-2.413 1.063-2.413 2.366 0 1.304.665 2.367 2.413 2.367.381 0 .711-.051.994-.144v-1.568h-1.353Zm-15.91-18.655h6.417c1.3 0 2.353 1.058 2.353 2.363v6.441a2.358 2.358 0 0 1-2.353 2.363h-6.416a2.358 2.358 0 0 1-2.354-2.363v-6.44a2.358 2.358 0 0 1 2.354-2.364Zm4.574 5.777c.424.213.63.692.876 1.662l.002.002c.13.508.356 1.107.604 1.442h-1.208c-.175-.213-.39-.885-.505-1.445-.079-.381-.176-.715-.365-.938-.187-.223-.517-.337-.913-.337H29.75v2.72h-1.062v-6.462c.302-.042 1.21-.14 1.983-.14.386 0 1.047 0 1.678.28.59.264 1.079.745 1.079 1.598 0 1.114-.848 1.517-1.067 1.618Zm-2.613-.533h1.195c.255 0 1.404-.065 1.404-.988 0-1.022-1.295-1.022-1.751-1.021h-.015c-.342 0-.555.03-.744.057l-.089.013v1.939Zm-7.911-5.244H15.42a2.358 2.358 0 0 0-2.354 2.363v6.441a2.358 2.358 0 0 0 2.354 2.363h6.416c1.3 0 2.353-1.058 2.353-2.363v-6.44a2.358 2.358 0 0 0-2.353-2.364Zm-1.387 8.881h1.138l-2.445-6.6h-1.03l-2.445 6.6h1.138l.722-2.052h2.2l.722 2.052Zm-2.599-2.973.766-2.181s.003-.007.01-.007.01.007.01.007l.766 2.181h-1.552Zm22.321-5.908h6.416c1.3 0 2.354 1.058 2.354 2.363v6.441a2.358 2.358 0 0 1-2.354 2.363h-6.416a2.358 2.358 0 0 1-2.353-2.363v-6.44a2.358 2.358 0 0 1 2.353-2.364Zm6.168 8.881H45.2l-.721-2.052h-2.201l-.722 2.052H40.42l2.446-6.6h1.03l2.445 6.6Zm-2.972-5.154-.765 2.181h1.551l-.765-2.181s-.004-.007-.01-.007c-.008 0-.01.007-.01.007ZM9.47 12.417H3.054A2.358 2.358 0 0 0 .7 14.78v6.441a2.358 2.358 0 0 0 2.354 2.363H9.47c1.3 0 2.353-1.058 2.353-2.363v-6.44a2.358 2.358 0 0 0-2.353-2.364ZM7.778 17.8l.008-.005c.13-.078.815-.49.807-1.32-.007-.609-.265-1.08-.805-1.41-.475-.29-1.152-.366-1.974-.366-1.229 0-1.918.166-1.918.166v6.322s.461.114 1.63.114c.666 0 1.61-.024 2.131-.251.66-.289 1.217-.806 1.217-1.715 0-1.15-.915-1.468-1.078-1.525l-.018-.006v-.004Zm-2.57-2.16h.005a7.52 7.52 0 0 1 .652-.03c.448 0 1.642.003 1.642.89s-1.191.935-1.45.935H4.96V15.66l-.002-.002.25-.018Zm.546 4.721c-.377 0-.796-.025-.796-.025v-1.97h1.098c.287 0 1.703 0 1.703.95 0 1.011-1.4 1.047-2.005 1.047v-.002Zm9.667 4.474h6.416c1.3 0 2.353 1.058 2.353 2.363v6.44a2.358 2.358 0 0 1-2.353 2.364H15.42a2.358 2.358 0 0 1-2.354-2.363v-6.441a2.358 2.358 0 0 1 2.354-2.363Zm6.167 8.881H20.45l-.722-2.052h-2.2l-.722 2.052h-1.139l2.446-6.6h1.03l2.445 6.6Zm-2.971-5.155-.766 2.182h1.552l-.766-2.182s-.003-.007-.01-.007-.01.007-.01.007ZM9.47 24.834H3.054A2.358 2.358 0 0 0 .7 27.197v6.44a2.358 2.358 0 0 0 2.354 2.364H9.47c1.3 0 2.353-1.058 2.353-2.363v-6.441a2.358 2.358 0 0 0-2.353-2.363Zm-1.692 5.383.008-.004c.13-.079.815-.491.807-1.322-.007-.608-.265-1.08-.805-1.41-.475-.29-1.152-.365-1.974-.365-1.229 0-1.918.166-1.918.166v6.322s.461.114 1.63.114c.666 0 1.61-.024 2.131-.25.66-.29 1.217-.808 1.217-1.716 0-1.15-.915-1.468-1.078-1.525l-.018-.006v-.004Zm-2.57-2.16h.005a7.52 7.52 0 0 1 .652-.03c.448 0 1.642.003 1.642.89s-1.191.935-1.45.935H4.96v-1.774l-.002-.002.25-.018Zm.546 4.722c-.377 0-.796-.026-.796-.026v-1.97h1.098c.287 0 1.703 0 1.703.95 0 1.011-1.4 1.047-2.005 1.047v-.001Z" fill="#fff"/></svg>