<svg width="78" height="28" fill="none" xmlns="http://www.w3.org/2000/svg"><g clip-path="url(#a)"><path opacity=".996" fill-rule="evenodd" clip-rule="evenodd" d="M77.478.087V27.915H43.123v-10.65H.52V.087h76.957ZM36.595 6.872c-.973-1.366-2.29-1.853-3.95-1.46v1.546c1.317.029 2.634 0 3.95-.086Zm-16.834-1.46h11.68v1.374h-11.68V5.412Zm-3.264.172c1.36.26 1.762 1.005 1.202 2.233a4.611 4.611 0 0 1-1.03.601c1.376.153 1.863.87 1.46 2.147-.298.364-.67.622-1.117.773a72.183 72.183 0 0 1-7.043 0l-1.03-1.03 6.699-.172c.6-.254.657-.597.172-1.03-2.576-.087-5.153-.115-7.73-.087v2.405H6.018v-5.84h10.479Zm21.129-.172h6.87v1.546h-4.809v4.466h-2.061V5.412Zm19.926 0h-11.68v1.374h11.68V5.412Zm13.914 5.84c-.768.17-1.57.227-2.405.172a22.871 22.871 0 0 1-1.717-1.632l-5.154-.171 1.203-1.203 5.497-.172c.382-.347.44-.748.171-1.202a174.018 174.018 0 0 0-7.73-.086v4.466H59.27V5.412c3.379-.029 6.757 0 10.135.086 1.613.277 2.272 1.222 1.975 2.834-.358.653-.902 1.083-1.631 1.289.55.579 1.122 1.123 1.717 1.632ZM31.442 7.818H19.76v1.374h11.68V7.817Zm14.43 0h11.68v1.374h-11.68V7.817Zm-14.43 3.607v-1.202h-11.51v1.202h11.51Zm14.43-1.374h11.68v1.374h-11.68V10.05ZM15.465 6.872a158.898 158.898 0 0 0-7.386-.086v1.031c2.52.029 5.04 0 7.558-.086.256-.347.199-.633-.172-.859Zm35.387 13.141h-1.375v5.154h4.982v-1.031h-3.607v-4.123Zm6.356 5.154h-1.375v-5.154c.42-.167.879-.224 1.375-.172v5.326Zm2.748-5.326H58.24c.78 1.73 1.61 3.448 2.491 5.154a3.178 3.178 0 0 0 2.061 0 50.5 50.5 0 0 1 2.491-4.982 2.234 2.234 0 0 0-1.718 0l-1.803 3.951a65.003 65.003 0 0 1-1.804-4.122Zm11.681.172v.86h-3.95c-.053.439.005.84.17 1.202h3.608v1.03H67.86v1.031h3.78v1.03h-5.326v-5.153h5.325Z" fill="#fff"/></g><defs><clipPath id="a"><path fill="#fff" transform="translate(.436 .001)" d="M0 0h77.129v28H0z"/></clipPath></defs></svg>