<svg width="68" height="32" fill="none" xmlns="http://www.w3.org/2000/svg"><path fill-rule="evenodd" clip-rule="evenodd" d="m46.197.224-.904 1.156a.138.138 0 0 1-.08.05l-1.055.229a.138.138 0 0 1-.147-.206l.716-1.217a.138.138 0 0 1 .103-.068l1.24-.167a.138.138 0 0 1 .127.223ZM31.185 7.022a8.7 8.7 0 0 1-2.746.416.138.138 0 0 1-.12-.078.132.132 0 0 1 .017-.139L31.707 3a.373.373 0 0 1 .25-.141c1.97-.262 3.937-.528 5.896-.798.19-.025.352-.13.524-.24.194-.124.399-.256.664-.288a52.479 52.479 0 0 0 2.735-.414c.389-.068.46.05.21.358l-3.681 4.562a.369.369 0 0 1-.261.14c-.526.052-1.037.129-1.531.233a.934.934 0 0 1-.55-.047.547.547 0 0 0-.674.228l-5.82 9.755c-.065.108-.159.148-.282.12a.905.905 0 0 0-.584.053c-.237.104-.486.16-.748.167-.782.026-1.528.092-2.238.2a.055.055 0 0 1-.052-.023.048.048 0 0 1-.001-.053l5.735-9.647c.088-.148.05-.196-.114-.143Zm18.051-5.278c-.666-.649-1.66.205-2.05.827-.106.166-.145.152-.118-.044.025-.182.066-.354.12-.516.053-.155-.003-.225-.167-.211a7.663 7.663 0 0 1-.23.017c-.41.028-.816.055-1.09.423-.305.402-.599.798-.88 1.185-.11.151-.147.332-.185.52-.038.187-.077.38-.19.557-.425.66-.84 1.347-1.245 2.059-.084.147-.042.206.127.179l.944-.153a.636.636 0 0 0 .46-.31l1.64-2.67a.921.921 0 0 1 .67-.44.253.253 0 0 1 .132.011c.17.06.21.167.12.323l-1.52 2.614c-.125.213-.066.297.176.252l.874-.158a.843.843 0 0 0 .543-.337c.089-.12.18-.232.27-.343.273-.337.534-.66.678-1.11.12-.381.296-.735.472-1.092.2-.405.403-.815.531-1.275a.315.315 0 0 0-.082-.308Zm-7.592 5.213-.886.02c-.18.005-.224-.07-.132-.225.422-.702.833-1.377 1.232-2.025.105-.172.167-.37.184-.592a.722.722 0 0 1 .147-.384l.816-1.071a.964.964 0 0 1 .575-.37l.78-.17c.26-.057.323.03.188.261a42.377 42.377 0 0 1-1.177 1.901c-.159.24-.158.444-.158.704v.115c0 .105-.032.2-.097.284l-1.009 1.317a.602.602 0 0 1-.463.235Zm-22.496 10.98c.78-.14 1.53-.197 2.25-.17l3.207-4.071c.156-.2.111-.273-.135-.22-.888.19-1.838.317-2.849.384a4.457 4.457 0 0 0-.669.1 37.95 37.95 0 0 1-.71.152c-.147.032-.184-.018-.111-.15l.548-.976a.298.298 0 0 1 .264-.162l1.359-.046a.907.907 0 0 0 .278-.056c.18-.07.368-.125.564-.165.178-.036.352-.021.52-.006.319.027.616.053.885-.275.806-.988 1.616-2.007 2.432-3.057.276-.354.2-.465-.229-.332-.285.09-.586.122-.9.094a.483.483 0 0 0-.314.08.538.538 0 0 1-.332.085 5.063 5.063 0 0 0-2.071.296c-.233.086-.3.015-.203-.214a3.13 3.13 0 0 1 .531-.842.643.643 0 0 1 .4-.214c.328-.042.653-.052.977-.06.4-.012.8-.023 1.205-.096.291-.055.588-.1.889-.135a.364.364 0 0 0 .246-.135l3.656-4.556c.22-.274.16-.378-.185-.314a18.3 18.3 0 0 1-2.054.258.068.068 0 0 0-.061.041c-.04.088-.106.122-.2.1-.467-.1-.81.008-1.03.323a.279.279 0 0 1-.196.123l-4.556.684c-.293.043-.558.199-.736.434-.943 1.238-1.9 2.449-2.87 3.632a1.05 1.05 0 0 0-.214.446c-.027.137.025.18.156.132l.22-.082c.332-.122.407-.03.226.272a1196.514 1196.514 0 0 0-5.574 9.362c-.055.092-.046.167.029.226.08.06.16.061.24.003.217-.159.371-.204.461-.135a15.724 15.724 0 0 1 4.295-.605.376.376 0 0 0 .235-.082.337.337 0 0 1 .126-.07Zm-6.422 3.202a4.007 4.007 0 0 0-2.007.32.333.333 0 0 0-.164.146c-.04.07-.098.074-.176.012a.198.198 0 0 0-.223-.027l-2.285 1.077a.369.369 0 0 0-.194.208.276.276 0 0 1-.252.188.443.443 0 0 0-.256.106l-.762.654c-1.303 1.046-2.271 2.307-2.905 3.782-.343.803-.757 2.593.23 3.133.603.328 1.212.452 1.824.37a16.35 16.35 0 0 0 3.808-1.004 39.89 39.89 0 0 0 6.786-3.444c.467-.297.424-.452-.13-.464-.445-.008-1.329-.173-1.534-.666a.294.294 0 0 1 .247-.407c2.493-.198 4.816-.999 6.967-2.403a.125.125 0 0 1 .17.032c.013.017.021.038.024.059a.415.415 0 0 1-.053.264c-1.763 3.08-4.515 5.38-7.575 7.387-.027.018-.052.014-.073-.012l-.053-.067c-.008-.01-.008-.019 0-.027.88-.813 1.67-1.672 2.367-2.575.128-.165.204-.335.23-.51.02-.155-.035-.193-.168-.112l-1.652.994a3.451 3.451 0 0 0-1.376.813l-1.276.683a4.448 4.448 0 0 0-1.543.72c-.25.025-.405.091-.463.199a1.498 1.498 0 0 0-.842.275c-.573.155-1.123.338-1.65.549a3.16 3.16 0 0 1-.85.214c-.305.03-.616.081-.933.156-1.094.258-2.27.381-3.318-.024-.348-.135-.699-.27-1.053-.405-1.942-1.58-.484-4.092.83-5.497 1.565-1.673 3.41-3.05 5.533-4.134a.433.433 0 0 1 .209-.047l.079-.003a.182.182 0 0 0 .085-.026 4.182 4.182 0 0 1 1.54-.631c.22-.037.437-.112.654-.223.215-.111.443-.188.684-.229a4.8 4.8 0 0 0 .754-.194.482.482 0 0 1 .284-.011.506.506 0 0 0 .487-.109.378.378 0 0 1 .255-.097c.15.002.292-.023.429-.076a8.213 8.213 0 0 0 1.67-.111c.697-.12 1.246-.178 1.645-.176 1.797.007 3.604-.01 5.418-.05l7.03 1a.378.378 0 0 0 .378-.182l4.34-7.299c.07-.12.036-.192-.1-.22a.192.192 0 0 0-.168.047c-.162.135-.304.125-.425-.03a.143.143 0 0 1 0-.181c1.18-1.438 2.26-2.778 3.242-4.022.039-.05.08-.096.123-.141.135-.143.238-.196.31-.159a.151.151 0 0 0 .089.015l3.4-.543c.17-.027.211.034.123.182l-2.54 4.251c-.163.272-.086.39.228.352l2.034-.24a.81.81 0 0 0 .63-.411l2.664-4.483a.29.29 0 0 1 .235-.15 28.57 28.57 0 0 0 3.497-.536.135.135 0 0 1 .14.055.142.142 0 0 1 .006.153l-5.738 9.652c-.133.225-.07.325.19.3l.259-.027a.694.694 0 0 0 .595-.423c.677-1.437 1.674-2.722 2.99-3.854 1.437-1.239 2.683-2.104 3.737-2.597.744-.346 1.686-.518 2.829-.516.663.002 1.153.207 1.472.616 1.118 1.443-.184 3.723-1.18 5.025a.622.622 0 0 1-.577.238c-.43-.06-.842-.04-1.235.062a5.514 5.514 0 0 1-1.17.181c-.168.008-.35.012-.54.017-.73.016-1.579.034-2.154.286a.224.224 0 0 0-.138.173.429.429 0 0 0 .195.443c.04.021.085.033.13.035 1.335.067 2.627-.11 3.876-.528.425-.143.496-.04.215.308l-2.611 3.218c-.3.03-.931.184-1.896.464-1.345.387-2.62.283-3.825-.311-.603-.661-.778-1.416-.525-2.265.029-.098-.006-.159-.106-.182-.06-.014-.108.002-.144.047a130.18 130.18 0 0 1-3.007 3.72.422.422 0 0 1-.255.147c-.917.16-1.89.27-2.92.328-.187.01-.322.09-.404.238a.141.141 0 0 0 .103.205c.201.031.408.081.616.131.363.087.73.176 1.08.168.31-.005.605.073.883.235a.51.51 0 0 0 .287.074c.203-.006.392.036.566.126.262.135.432.213.51.234 2.537.704 5.058 1.399 7.564 2.083.499.245.998.36 1.499.346 4.753 1.142 9.22-.173 12.222-4.045.583-.753 1.007-1.517 1.273-2.291a.6.6 0 0 0-.348-.747.59.59 0 0 0-.297-.034l-1.65.24c-.087.012-.107.056-.058.13.028.039.027.07-.003.09a.193.193 0 0 1-.079.036c-.728.13-1.452.208-2.174.238a.4.4 0 0 1-.27-.091l-.252-.214a.279.279 0 0 0-.337-.036 1.81 1.81 0 0 1-1.394.144.058.058 0 0 1-.036-.033.052.052 0 0 1 .004-.046l6.152-10.277c.129-.215.07-.3-.176-.252l-.167.03a.644.644 0 0 0-.452.313L54.352 19.07a.345.345 0 0 1-.37.162c-.324-.07-.532.006-.751.086a1.899 1.899 0 0 1-.436.12c-.632.077-1.22.174-1.767.29a.129.129 0 0 1-.134-.053.136.136 0 0 1-.006-.147c2.063-3.44 4.123-6.878 6.178-10.312.053-.086.042-.163-.032-.232a.118.118 0 0 0-.1-.035.245.245 0 0 0-.182.1c-.066.094-.144.13-.232.108-.193-.047-.226-.147-.1-.302l3.163-3.822c.18-.218.41-.344.69-.379l2.55-.337c.232-.03.287.055.163.255l-1.719 2.82c-.01.015-.007.029.009.04l.076.053c.051.035.095.028.132-.02l2.344-3.002a1.01 1.01 0 0 1 .655-.381l2.59-.375c.258-.038.32.056.188.281L59.187 17.58c-.146.248-.077.391.209.428.428.056 1.003.044 1.422-.088a11.981 11.981 0 0 1 2.694-.53.526.526 0 0 1 .536.689c-1.173 3.523-3.162 6.868-6.383 8.795-.317.19-.654.328-.99.467a10.9 10.9 0 0 0-.67.293c-.23.113-.47.187-.723.22-1.78.24-3.51.32-5.19.238-.238-.01-.477-.016-.718-.018-.328-.003-.64-.084-.952-.164-.352-.091-.703-.182-1.072-.159a.446.446 0 0 1-.273-.064 1.642 1.642 0 0 0-.379-.162c-3.062-.888-6.36-1.988-9.892-3.3a4.64 4.64 0 0 0-.766-.211 3.68 3.68 0 0 1-.622-.182c-1.199-.466-2.567-.84-4.104-1.12a4.332 4.332 0 0 0-1.3-.045c-.485.057-.958.121-1.42.194a.203.203 0 0 1-.23-.157.203.203 0 0 1 .005-.101l.14-.467c.038-.125-.009-.197-.138-.217-.29-.045-.573-.077-.854-.108a13.732 13.732 0 0 1-1.258-.182 52.68 52.68 0 0 0-6.087-.875c-.239-.02-.479 0-.72.059a1.382 1.382 0 0 1-.762-.02c-.614-.2-1.22-.22-1.816-.062-.336.09-.717.124-1.141.103-1.125-.061-2.127.04-3.007.305Zm36.504-7.452 1.048-.023c.277-.006.414-.15.41-.429l-.003-.167c-.006-.325-.169-.457-.49-.396-.798.152-1.463.397-1.995.733-.461.292-.422.478.118.558.168.025.382-.04.642-.197a.535.535 0 0 1 .27-.079Zm-15.924 7.821c.125.11.273.138.443.085a.25.25 0 0 1 .24.044c.237.184.533.287.887.308a.226.226 0 0 0 .217-.117l2.804-4.709c.149-.248.081-.343-.202-.284-.22.047-.435.084-.649.111-.2.027-.389.068-.576.107-.363.077-.716.152-1.116.125a.247.247 0 0 0-.24.126 132.29 132.29 0 0 0-2.298 3.829c-.074.127-.062.248.038.364a.129.129 0 0 0 .182.011.198.198 0 0 1 .103-.047.2.2 0 0 1 .167.047ZM12.98 8.544l-.053-.053c-.017-.017-.02-.037-.006-.058l1.59-2.582c.177-.284.102-.388-.222-.314a21.843 21.843 0 0 1-3.271.475.554.554 0 0 0-.4.206l-3.312 4.09a.182.182 0 0 0 .17.293l.244-.038c.268-.043.331.051.19.284l-5.62 9.403a.111.111 0 0 0 .003.117.105.105 0 0 0 .105.044c1.674-.264 3.36-.5 5.055-.707.211-.027.426-.046.645-.056.478-.02.949-.15 1.414-.393.155-.08.323-.125.505-.135a1.19 1.19 0 0 0 .475-.123c1.2-.587 2.221-1.31 3.066-2.168.913-.924 2.47-3.072 1.933-4.445a.26.26 0 0 0-.079-.102l-.557-.437c-.09-.07-.084-.131.017-.182.696-.344 2.057-1.139 2.465-1.904.198-.372.488-.722.781-1.074.513-.618 1.032-1.242 1.07-2.007.039-.839-.37-1.284-1.23-1.334a17.13 17.13 0 0 0-2.053.005.621.621 0 0 0-.443.23l-2.403 2.96c-.025.03-.052.033-.079.005Zm-.15 2.482c-.191.24-.501.318-.93.232l-.208.073a.222.222 0 0 1-.267-.322l.792-1.338a.24.24 0 0 1 .29-.103c.171.067.352.072.544.018.794-.225.992.017.595.727-.137.245-.409.482-.816.713Zm-3.364 3.336a.514.514 0 0 1 .085-.024c.326-.207.757-.26 1.29-.161l.288.09a.309.309 0 0 1 .179.441c-.285.531-.748 1.018-1.382 1.041a2.445 2.445 0 0 0-.877.209c-.434.19-.539.075-.314-.344l.628-1.17a.172.172 0 0 1 .103-.082Z" fill="#fff"/></svg>