<svg width="112" height="26" fill="none" xmlns="http://www.w3.org/2000/svg"><path d="M32.007.001h1.721c.616.124 1.028.43 1.233.921.093.221.14.604.142 1.15.002.545.001 1.092-.001 1.638-.039.019-.05-.006-.031-.073.001-.008-.002-.011-.01-.01h-.007c-.023-.007-.025-.019-.007-.035a.052.052 0 0 1 .018-.01.014.014 0 0 0 .006-.004.012.012 0 0 0 .002-.012.01.01 0 0 0-.003-.005.106.106 0 0 1-.041-.125c.01-.035-.002-.052-.038-.052h-2.855a.08.08 0 0 0-.07.039l-.066.11.007-3.532ZM47.342 3.844l-.064-.403c-.006-.039-.029-.058-.07-.058l-2.942.002c-.022 0-.033-.01-.033-.033v-.05a.025.025 0 0 0-.041-.019.152.152 0 0 0-.036.05V.11c0-.04.02-.06.06-.06.54-.005 1.07-.006 1.59-.003.63.004 1.23.387 1.45.983.057.16.087.423.088.792.002.674.001 1.348-.002 2.023ZM92.576.052c.74.011 1.373.647 1.446 1.324.03.289.037.663.019 1.124-.001.036-.02.054-.056.054h-3.088c-.031 0-.046-.016-.046-.046L90.849.07c0-.006.002-.011.006-.015a.02.02 0 0 1 .015-.007c.59-.006 1.158-.005 1.706.004ZM109.558 3.661h1.776c.034 0 .051.017.051.05-.004.543.045 1.073-.293 1.514-.405.529-.891.633-1.531.622-.035 0-.053.017-.053.051-.001 2.266 0 4.528.002 6.789 0 .42.327.671.741.691.343.017.7.019 1.072.006.04 0 .06.019.06.059l.001 2.288a.032.032 0 0 1-.009.025.033.033 0 0 1-.023.01c-1.054.056-2.133.04-3.236-.046-1.233-.097-1.759-.966-1.759-2.103.001-4.506 0-9.016-.001-13.532 0-.005.001-.011.003-.016a.04.04 0 0 1 .024-.023.038.038 0 0 1 .016-.003c.373.007.836.006 1.39-.004.256-.005.471.021.646.078a1.575 1.575 0 0 1 1.071 1.452c.005.665.005 1.345 0 2.04 0 .035.017.052.052.052Z" fill="#fff"/><path d="M47.342 3.844v5.412l-.027-.5a.167.167 0 0 0-.166-.156h-2.883a.037.037 0 0 0-.035.027.065.065 0 0 1-.013.022c-.017.018-.038.02-.063.007V3.334a.153.153 0 0 1 .037-.05.025.025 0 0 1 .027-.004.025.025 0 0 1 .014.023v.049c0 .022.01.034.033.034l2.943-.003c.04 0 .063.02.07.058l.063.403ZM43.375 11.097c-.036-.013-.047-.046-.035-.1a.077.077 0 0 0-.015-.064.076.076 0 0 0-.058-.028h-2.95c-.02 0-.03-.01-.029-.03a.048.048 0 0 0-.01-.032c-.015-.019-.026-.016-.031.008-.007.029-.021.043-.044.042.19-1.06.163-2.006-.082-2.84-.231-.793-.795-1.611-1.607-1.856-1.116-.337-2.327.018-2.908 1.084-.196.36-.326.713-.39 1.061a7.124 7.124 0 0 0-.07 2.166 21.418 21.418 0 0 0-3.147 0L32 3.534l.067-.111a.082.082 0 0 1 .07-.04h2.854c.036 0 .049.018.038.053a.106.106 0 0 0 .04.125.01.01 0 0 1 .004.005.012.012 0 0 1-.002.012.014.014 0 0 1-.006.004.052.052 0 0 0-.018.01c-.018.016-.016.028.007.035a.012.012 0 0 0 .008 0c.007-.001.01.002.009.01-.018.067-.008.092.03.073l.002 1.428a.021.021 0 0 0 .035.015c.084-.079.118-.194.19-.287.763-1 1.808-1.51 3.134-1.53 3.278-.048 4.885 3.015 4.98 5.894.022.686 0 1.308-.067 1.867ZM69.633 5.766 69.627 6c0 .031-.016.047-.047.047h-3.66c-.04 0-.045.013-.018.04a.23.23 0 0 1 .05.077 3.486 3.486 0 0 0-1.95-.065l-3.929-.056c.522-1.006 1.25-1.731 2.184-2.176 1.288-.611 2.877-.654 4.256-.34 1.367.31 2.407 1.057 3.12 2.24ZM74.133 14.316c.005 1.57.005 3.03.003 4.38a1.56 1.56 0 0 1-1.05 1.464c-.201.069-.478.099-.83.09a21.602 21.602 0 0 0-1.193-.001.031.031 0 0 1-.023-.01.031.031 0 0 1-.01-.022l.001-11.448c.001-1.763.47-3.459 2.048-4.375 2.135-1.24 4.84-1.483 7.035-.223 1.33.762 2.06 2.433 2.272 3.92.281 1.96.083 4.223-1.038 5.86-1.115 1.626-2.672 2.28-4.67 1.964-1.08-.171-1.9-.712-2.46-1.623-.056-.094-.085-.085-.085.024Zm.07-5.68a8.13 8.13 0 0 0 .018 2.22c.098.663.36 1.232.786 1.706.48.534 1.13.778 1.95.73 1.202-.07 1.936-.976 2.219-2.096.203-.809.228-1.696.076-2.662-.24-1.516-1.129-2.609-2.804-2.49-1.429.104-2.08 1.302-2.245 2.592ZM95.32 5.973c.287-.705.72-1.224 1.382-1.618a7.192 7.192 0 0 1 2.59-.94c1.064-.165 2.141-.048 3.23.351 1.224.448 2.164 1.09 2.59 2.337.244.712.367 1.474.37 2.284a783.69 783.69 0 0 1-.001 7.353.021.021 0 0 1-.003.011.019.019 0 0 1-.006.01.036.036 0 0 1-.009.005 23.708 23.708 0 0 0-1.186.003c-.467.011-.803-.025-1.009-.11a1.44 1.44 0 0 1-.806-.774c-.086-.193-.128-.468-.127-.825.009-2.006.011-3.984.004-5.934-.001-.72-.138-1.386-.782-1.81a2.41 2.41 0 0 0-1.835-.376c-.73.138-1.403.621-1.564 1.38a3.885 3.885 0 0 0-.077.81c.003 2.674.005 5.197.005 7.57 0 .042-.021.063-.064.063l-3.088.001a.041.041 0 0 1-.03-.012.043.043 0 0 1-.011-.03c-.01-2.764-.007-5.278.008-7.544a5.896 5.896 0 0 1 .42-2.205ZM92.59 3.618c.593.006 1.134.445 1.347.974.077.19.115.466.114.827-.008 3.335-.01 6.77-.004 10.303a.044.044 0 0 1-.013.03.043.043 0 0 1-.03.014l-3.125-.003a.03.03 0 0 1-.03-.03l.002-12.095c0-.017.008-.026.025-.026.53-.002 1.1 0 1.715.006ZM51.324 7.608l-.042-.013c-.027-.009-.037-.027-.03-.056a.055.055 0 0 0-.022-.06.088.088 0 0 0-.055-.02c-1.004-.004-2.014-.01-3.032-.017l.004-3.798c0-.018.009-.027.026-.027h3.101c.03 0 .046.015.046.046l.004 3.945ZM58.716 6.476c-.033.027-.062.022-.085-.015-.002-.002-.002-.005 0-.007l.022-.033c.009-.015.005-.023-.014-.023l-2.951.003a.036.036 0 0 0-.037.025.053.053 0 0 1-.015.02c-.02.016-.033.011-.039-.013l-.016-.062-.002-.875c-.002-.407.026-.695.086-.863.25-.713.847-1.036 1.595-1.021.503.01.97.01 1.403.001.038 0 .057.018.056.055l-.003 2.808ZM86.524 8.022c-.187.402-.28.892-.281 1.47a1700.42 1700.42 0 0 0 0 6.226c0 .03-.015.046-.046.046h-3.091c-.041 0-.062-.02-.062-.062-.002-2.013-.001-4.017.002-6.01.001-.432.049-.887.11-1.314a5.849 5.849 0 0 1 .81-2.25c1.22-1.984 3.654-2.595 5.914-2.51.014.001.021.009.021.024V6.81c0 .033-.018.05-.051.05-1.176-.024-2.724-.136-3.326 1.162Z" fill="#fff"/><path d="M69.633 5.766a7.341 7.341 0 0 1 .876 3.353c.008.441.008.88-.001 1.316-.001.053-.029.08-.082.08h-7.812c-.033 0-.047.016-.044.05l.08.71-3.01-.014s-.05.013-.06.04a.393.393 0 0 1-.089.15 10.629 10.629 0 0 1-.051-3.33c.11-.777.321-1.47.633-2.079l3.928.056c-.558.306-.937.67-1.138 1.093a2.86 2.86 0 0 0-.276 1.218c0 .03.015.046.046.046h4.572a.03.03 0 0 0 .022-.009.03.03 0 0 0 .008-.022c-.06-.954-.365-1.816-1.283-2.261a.23.23 0 0 0-.05-.077c-.027-.027-.021-.04.017-.04h3.66c.032 0 .048-.016.048-.047l.006-.233ZM55.581 6.371l.016.061c.006.025.02.03.04.015a.053.053 0 0 0 .014-.02.036.036 0 0 1 .037-.026l2.951-.003c.018 0 .023.008.014.023l-.022.033c-.002.002-.002.005 0 .007.023.037.052.042.085.015l-.012 5.067-.092-.157a.07.07 0 0 0-.063-.037h-2.835a.03.03 0 0 1-.02-.006.062.062 0 0 1-.019-.023c-.016-.032-.029-.03-.038.005a.077.077 0 0 0 .002.04c.015.05.01.053-.018.008a.069.069 0 0 0-.04-.032V6.37ZM48.143 7.442c1.018.008 2.028.013 3.032.017.02 0 .039.007.056.02.02.015.027.035.02.06-.006.029.004.047.031.056l.042.013.002 3.936-.055-.152c-.01-.028-.031-.042-.062-.042h-2.902a.104.104 0 0 1-.072-.029.073.073 0 0 1-.026-.05c-.007-.045-.017-.046-.03-.002-.007.021-.017.03-.031.027l-.005-3.854ZM47.342 9.256l.002 6.475c0 .015-.008.022-.022.022h-3.119c-.03 0-.046-.016-.046-.046l-.001-7.05c.024.012.045.01.062-.008a.065.065 0 0 0 .013-.022.037.037 0 0 1 .035-.026L47.15 8.6a.165.165 0 0 1 .166.157l.027.5ZM35.145 10.508c.038.41.107.776.207 1.095.278.887.988 1.612 1.93 1.716 1.709.187 2.66-.866 2.921-2.426.023.001.037-.013.044-.042.005-.024.016-.027.032-.008.007.009.01.02.01.033-.001.02.008.029.028.029h2.95a.074.074 0 0 1 .073.058.077.077 0 0 1 0 .033c-.012.055 0 .088.035.1-.142 1.095-.505 2.15-1.142 3.061-.488.697-1.157 1.164-1.952 1.435-2.05.7-4.237.459-6.14-.573-1.687-.916-2.16-2.684-2.142-4.511a21.418 21.418 0 0 1 3.146 0Z" fill="#fff"/><path d="M51.326 11.544c.058 1.06.62 1.69 1.685 1.89 1.029.193 2.222-.305 2.495-1.387.05-.2.075-.435.074-.706a.069.069 0 0 1 .041.032c.027.045.033.042.018-.008a.077.077 0 0 1-.002-.04c.009-.036.022-.037.038-.005.005.009.011.017.02.023a.03.03 0 0 0 .019.006h2.835a.07.07 0 0 1 .063.037l.092.157a6.007 6.007 0 0 1-.515 2.157 3.065 3.065 0 0 1-1.322 1.392c-2.204 1.197-4.648 1.18-6.842-.028-1.123-.619-1.613-1.63-1.788-2.885a8.276 8.276 0 0 1-.09-.883c.015.003.025-.006.032-.027.013-.044.023-.043.03.002.002.021.01.038.026.05.02.019.044.029.072.029h2.902c.031 0 .052.014.062.042l.055.152ZM62.65 11.275c.218 1.113.846 1.902 2.006 2.049.683.087 1.551-.051 2.05-.574.398-.416.649-.73 1.283-.729.707.002 1.473.002 2.298 0 .04 0 .056.019.045.058-.657 2.406-2.541 3.76-4.946 3.895a7.57 7.57 0 0 1-1.553-.056c-1.553-.234-2.73-.992-3.532-2.274-.398-.636-.669-1.367-.81-2.192a.392.392 0 0 0 .09-.15c.01-.028.029-.042.058-.041l3.011.014ZM79.329 26.001h-.523c-.984-.088-1.792-.507-2.425-1.257a3.415 3.415 0 0 1-.788-1.718c-.197-1.305.202-2.407 1.195-3.304a3.16 3.16 0 0 1 1.466-.753c1.754-.387 3.299.307 4.035 1.984.011.025.003.038-.025.038l-1.533-.002a.119.119 0 0 1-.095-.044c-.423-.492-.983-.723-1.678-.692-1.127.052-1.965 1.01-1.991 2.119-.053 2.325 2.925 3.13 4.027 1.049a.039.039 0 0 0-.035-.057l-2.607.002a.037.037 0 0 1-.037-.037l-.001-1.055c0-.032.016-.048.049-.048h4.173c.035 0 .054.018.057.053.04.624-.065 1.188-.313 1.693-.596 1.216-1.58 1.893-2.951 2.029ZM108.12 26h-.542c-1.101-.125-1.95-.597-2.546-1.415-1.171-1.604-.873-3.797.709-5.004.847-.646 1.854-.852 3.021-.619 1.017.203 1.784.857 2.301 1.962.021.043.007.065-.041.065h-1.512a.109.109 0 0 1-.085-.038c-.534-.602-1.225-.816-2.073-.643a1.816 1.816 0 0 0-.751.36 2.24 2.24 0 0 0-.173 3.379c.643.615 1.607.75 2.4.352.397-.199.711-.523.942-.974a.038.038 0 0 0 .005-.02.038.038 0 0 0-.006-.021.046.046 0 0 0-.015-.015.047.047 0 0 0-.021-.005l-2.596.002c-.031 0-.047-.016-.047-.048v-1.046c0-.031.016-.047.047-.047l4.188.001c.031 0 .048.016.049.047.052 1.162-.346 2.119-1.194 2.87-.571.506-1.258.792-2.06.858ZM86.47 24.428l-2.502-.001a.031.031 0 0 0-.028.02l-.52 1.399a.031.031 0 0 1-.029.02H82.07a.032.032 0 0 1-.025-.014.03.03 0 0 1-.005-.014c0-.005 0-.01.002-.015l2.637-6.794a.031.031 0 0 1 .03-.02l1.117.004a.031.031 0 0 1 .029.02l2.599 6.791a.031.031 0 0 1-.015.04.032.032 0 0 1-.014.003l-1.37-.002a.03.03 0 0 1-.03-.02l-.525-1.397a.031.031 0 0 0-.03-.02Zm-2.048-1.312a.03.03 0 0 0-.002.014.03.03 0 0 0 .005.013.03.03 0 0 0 .01.009.03.03 0 0 0 .014.003l1.558.005a.03.03 0 0 0 .014-.003.03.03 0 0 0 .01-.009.03.03 0 0 0 .005-.013l-.001-.014-.772-2.102a.03.03 0 0 0-.027-.018.03.03 0 0 0-.027.018l-.787 2.097ZM99.845 21.54c.01.076.015.195.015.357l-.006 3.911c0 .039-.02.058-.057.058H98.6c-.04 0-.061-.02-.061-.061v-6.76a.033.033 0 0 1 .033-.033l1.18-.002a.1.1 0 0 1 .089.048l2.726 4.216c.052.08.079.073.079-.023l-.003-4.189c0-.033.017-.05.051-.05l1.212-.001a.05.05 0 0 1 .02.004.047.047 0 0 1 .017.012.06.06 0 0 1 .012.017.049.049 0 0 1 .004.021v6.748c0 .035-.017.053-.052.053h-1.138a.093.093 0 0 1-.083-.045l-2.734-4.318c-.095-.15-.13-.137-.106.038ZM90.082 20.99a.016.016 0 0 0 .007.01.028.028 0 0 1 .013.025l.054 4.78c0 .04-.02.06-.06.061h-1.22c-.03 0-.045-.015-.045-.045v-6.763c0-.03.015-.046.046-.046h1.707c.016 0 .026.006.03.021l1.69 4.836c.03.085.06.085.09 0l1.676-4.812a.068.068 0 0 1 .064-.046l1.687.001c.03 0 .045.015.045.044v6.767c0 .029-.014.043-.043.043h-1.22c-.043 0-.063-.022-.063-.064l.05-4.839c0-.007-.002-.008-.007-.002a.571.571 0 0 0-.084.16 946.909 946.909 0 0 1-1.633 4.7c-.01.03-.03.045-.062.045h-.907c-.035 0-.058-.017-.07-.05a719.452 719.452 0 0 1-1.658-4.76.163.163 0 0 0-.063-.082c-.023-.017-.031-.011-.024.017ZM97.84 19.012h-1.285a.025.025 0 0 0-.024.025v6.804c0 .014.01.025.024.025h1.285a.025.025 0 0 0 .025-.025v-6.804a.025.025 0 0 0-.025-.025Z" fill="#fff"/><path fill-rule="evenodd" clip-rule="evenodd" d="m27.365 10.248-5.816 3.726 5.34 2.258-5.617.143 2.415 5.977-5.239-3.39.694 7.039-3.844-4.86-1.568 4.455-1.467-4.44-3.775 4.568 1.208-6.73-5.945 2.845 3.905-5.048-6.272.768 4.718-2.82-5.487-1.897 6.37-1.248-4.54-4.365 5.012 1.082-2.381-5.544 5.308 3.893L9.887.634l3.29 4.873L16.325.001l.398 5.093 3.495-3.184-1.371 5.516 6.134-2.723-3.96 5.169 6.344.376Zm-17-.654c-.938-.244-1.494.88-1.494.88s.364-1.413 1.542-1.112c1.051.268.887 1.62.887 1.62s.005-1.144-.934-1.388Zm2.746 3.018.943.013c.252-.039.134.265.134.265-.088.108.016.141.016.141.146 0 .192-.294.192-.294.038-.32-.227-.27-.227-.27l-.982-.015c-.957-.08-.9-1.04-.9-1.04 0-.628.6-1.174.6-1.174.473-.44 1.33-.687 1.33-.687.118-.053.077-.081.077-.081-.026-.09-.493.075-.493.075s-1.624.472-1.73 1.831c0 0-.083 1.127 1.042 1.242l-.002-.006Zm5.92 2.101a2.694 2.694 0 0 1-.736-1.23c-.033-.107-.104-.09-.104-.09-.076.015-.045.1-.045.1.048.214.111.424.189.628-4.44.944-8.43-.094-8.43-.094.118-.193.22-.396.306-.605.026-.097-.023-.118-.023-.118-.075-.026-.097.055-.097.055-.419.803-1.006 1.098-1.006 1.098s-.118.066-.077.125c0 0 .03.049.172-.006.2-.11.388-.236.564-.378a9.993 9.993 0 0 0 1.173 1.614c.46.519 1.028.93 1.664 1.205.569.3 1.345.311 1.345.311 3.099.16 4.503-2.98 4.503-2.98.134.188.298.35.486.483.188.05.116-.118.116-.118Zm-4.967 2.388c-2.586-.03-4.01-2.831-4.01-2.831l.201.042c1.427.331 2.891.478 4.356.435-.563.022 1.607.018 3.334-.338l.228-.045s-1.363 2.77-4.11 2.737Zm3.438-7.362c1.361.107 1.361 1.605 1.361 1.605s-.213-1.316-1.36-1.415c-.795-.072-1.235.916-1.235.916s.248-1.188 1.234-1.106Zm-7.457.726c-.664.008-.977 1.995-.197 2.067.78.072 1.02-2.13.197-2.066Zm-.184.292a.537.537 0 0 0-.225.407 3.58 3.58 0 0 0-.046.384.199.199 0 0 0 .15.035.398.398 0 0 0 .167-.096.65.65 0 0 1 .02-.33c.027-.13.067-.257.118-.38a.258.258 0 0 0-.085-.025.34.34 0 0 0-.099.005Zm7.88.129c.148.11.212.395.226.662.043.62-.297 1.468-.793 1.411-.685-.078-.369-2.23.31-2.187.044.008.087.017.13.03a.785.785 0 0 1 .127.084Zm-.584.328a.537.537 0 0 1 .159-.178.34.34 0 0 1 .099-.004c.03.003.058.011.085.025-.051.122-.09.25-.118.38a.65.65 0 0 0-.02.33.4.4 0 0 1-.168.095.196.196 0 0 1-.15-.035c.01-.129.024-.257.047-.384a.536.536 0 0 1 .066-.229Z" fill="#fff"/></svg>