<svg width="32" height="32" fill="none" xmlns="http://www.w3.org/2000/svg"><path d="M29.123 20.657c-2.853 1.639-6.211 3.131-9.892 4.328C14.014 26.68 8.978 27.51 4.78 27.523c4.118 3.958 10.227 5.578 16.04 3.69 5.694-1.852 9.638-6.593 10.74-12.073a39.49 39.49 0 0 1-2.386 1.488l-.05.029Z" fill="#fff"/><path d="M22.147 22.483a47.787 47.787 0 0 0 4.867-1.876v-7.512h-2.986v-1.76h7.143c-.028-.092-.051-.185-.082-.278a15.936 15.936 0 0 0-3.645-6.112c-3.127.213-6.669.899-10.317 2.084-3.594 1.168-6.824 2.67-9.459 4.306h5.39v1.733H8.15v2.026h4.332v1.679H8.15v2.16h5.082v1.732H6.006v-8.221C2.014 15.304-.133 18.44.672 20.917c1.387 4.268 11.002 4.97 21.475 1.566Zm-7.391-8.969a4.593 4.593 0 0 1 1.832-1.72c.782-.412 1.662-.619 2.64-.619.817 0 1.559.138 2.225.414a4.4 4.4 0 0 1 1.68 1.2l-1.387 1.278c-.666-.701-1.47-1.052-2.412-1.052-.596 0-1.124.124-1.586.373-.453.24-.827.606-1.078 1.053-.258.453-.387.972-.387 1.559 0 .578.13 1.093.387 1.546.251.447.623.814 1.073 1.06.457.253.98.38 1.566.38a3.502 3.502 0 0 0 1.68-.4v-2.732h1.972v3.785a5.63 5.63 0 0 1-1.76.88 6.835 6.835 0 0 1-2.012.308c-.97 0-1.84-.207-2.613-.62a4.616 4.616 0 0 1-1.819-1.72c-.44-.732-.66-1.561-.66-2.485 0-.925.22-1.754.66-2.487h-.001Z" fill="#fff"/><path d="M31.602 13.095h-2.429v6.467a36.632 36.632 0 0 0 2.567-1.467 15.901 15.901 0 0 0-.137-5ZM26.718 4.24C22.605.456 16.627-1.064 10.932.787 5.122 2.675 1.13 7.577.125 13.2c3.405-2.458 7.966-4.747 13.183-6.442C18.1 5.201 22.74 4.374 26.718 4.24Z" fill="#fff"/></svg>