<svg width="114" height="22" fill="none" xmlns="http://www.w3.org/2000/svg"><g clip-path="url(#a)"><path fill-rule="evenodd" clip-rule="evenodd" d="m62.12.323-4.108 21.295h5.248L67.426.042l-5.307.28ZM42.28 14.75c0 4.58 2.703 7.213 7.413 7.213 1.117 0 3.967-.128 6.307-1.322l.093-.046-.374-3.891-.199.1c-1.445.702-2.96 1.047-4.628 1.047-1.41 0-2.48-.433-3.095-1.24-.274-.393-.444-1.007-.473-1.463h.017c.27.006.532.011.79.011 6.757 0 10.04-1.907 10.04-5.82 0-3.084-2.4-5.155-5.974-5.155-2.843 0-5.43 1.188-7.272 3.347-1.685 1.96-2.644 4.592-2.644 7.219Zm9.706-3.96c-.854.303-2.17.45-4.013.45h-.135c.416-1.597 1.703-3.148 3.739-3.148 1.024 0 1.661.492 1.661 1.281 0 .662-.398 1.106-1.252 1.416ZM92.87 21.963c-4.715 0-7.418-2.633-7.418-7.214 0-2.627.965-5.26 2.644-7.22 1.849-2.158 4.429-3.346 7.272-3.346 3.575 0 5.979 2.071 5.979 5.154 0 3.914-3.288 5.822-10.039 5.822-.263 0-.538-.006-.813-.012.035.456.199 1.07.48 1.462.614.808 1.684 1.24 3.089 1.24 1.667 0 3.182-.345 4.627-1.047l.2-.099.374 3.89-.094.047c-2.34 1.194-5.19 1.323-6.3 1.323ZM91.143 11.24c1.849 0 3.16-.147 4.014-.45.854-.31 1.252-.755 1.252-1.417 0-.79-.632-1.28-1.656-1.28-2.036 0-3.329 1.55-3.744 3.147h.134Zm-24.261 5.909c0 3.124 2.176 4.844 6.12 4.844 4.41 0 7.055-2.095 8.488-3.85 1.755-2.141 2.761-5.055 2.761-7.98 0-2.978-1.614-5.979-5.224-5.979-1.919 0-3.715.755-4.99 2.083L75.183.042l-5.289.28-2.632 13.743c-.187.913-.38 1.99-.38 3.084Zm5.89-4.078c.545-2.715 2.171-4.604 3.962-4.604 1.275 0 2.036 1.018 2.036 2.72 0 3.066-2.118 6.763-4.745 6.763-1.065 0-1.697-.62-1.726-1.702-.03-.521.041-.972.111-1.405l.022-.162c.012-.085.024-.166.03-.241l.31-1.37Zm33.746 8.922c-2.82 0-4.505-1.398-4.505-3.75 0-.925.1-1.867.345-3.142l1.264-6.5.778-4.042.837-4.277 5.166-.24-.854 4.517h3.563l-.779 4.042h-3.562l-1.106 5.564c-.105.503-.275 1.45-.275 2.094 0 .86.386 1.247 1.252 1.247.45 0 .912 0 1.345-.065l.211-.035-.632 4.171-.082.03c-.69.269-1.983.386-2.966.386ZM19.037 7.308 12.964.258 1.562 5.548.895 15.925l9.01 5.891 10.83-3.083 12.524 3.171 3.914-8.003.246-11.608L23.893.136l-4.856 7.172Zm7.74-5.33c-.023-.444-.608-.778-1.316-.742-.708.029-1.264.415-1.24.86.017.444.608.778 1.31.743.708-.03 1.264-.416 1.246-.86Zm-2.732 1.469c.731-.035 1.345.31 1.369.772.017.462-.562.866-1.293.901-.737.03-1.352-.316-1.37-.778-.023-.462.557-.866 1.294-.895Zm-.03 3.089c-.023-.486-.66-.848-1.427-.813-.766.035-1.369.456-1.351.936.023.48.66.842 1.427.813.766-.035 1.375-.456 1.352-.936Zm-1.813 3.58c.708.428 1.076 1.118.825 1.533-.258.421-1.036.416-1.738-.011-.708-.428-1.076-1.118-.825-1.533.258-.422 1.036-.416 1.738.011Zm8.278 1.995c.732.44 1.106 1.165.837 1.61-.27.45-1.082.45-1.814.005-.731-.439-1.105-1.164-.836-1.609.269-.444 1.082-.45 1.813-.006Zm-6.4 5.535c.246-.392-.105-1.047-.772-1.451-.673-.404-1.41-.41-1.65-.012-.24.398.111 1.047.778 1.451.673.404 1.404.41 1.644.012Zm7.073.608c.696.421 1.053 1.094.808 1.51-.252.41-1.013.403-1.709-.018-.69-.421-1.053-1.094-.807-1.503.251-.41 1.018-.404 1.708.011Zm-.287-10.928c.855-.006 1.55.41 1.557.924 0 .515-.69.942-1.545.948-.854.006-1.55-.404-1.55-.919-.006-.52.684-.942 1.538-.953Zm2.978-1.574c-.023-.497-.725-.866-1.562-.83-.842.04-1.503.467-1.48.965.024.491.72.865 1.562.824.837-.035 1.498-.468 1.48-.959Zm-.181-3.206c.801-.035 1.468.31 1.486.778.023.468-.608.872-1.41.907-.801.035-1.468-.31-1.492-.778-.017-.468.614-.872 1.416-.907Zm.573 9.647c.129-.801.059-1.48-.163-1.515-.223-.04-.51.58-.644 1.38-.129.802-.059 1.48.164 1.516.222.04.509-.58.643-1.38Zm1.3-.748c.175.035.215.631.087 1.345-.129.708-.375 1.258-.55 1.223-.176-.03-.217-.632-.094-1.34.129-.708.375-1.258.556-1.229Zm1.263-4.529c.129-.807.093-1.486-.082-1.515-.181-.03-.433.603-.562 1.41-.134.807-.1 1.486.082 1.515.176.03.427-.602.562-1.41Zm-2.305 9.858c.163.035.181.597.035 1.252-.147.655-.398 1.159-.562 1.123-.17-.04-.187-.596-.04-1.252.145-.655.397-1.158.567-1.123Zm2.234-3.534c.13-.637.123-1.175-.005-1.199-.135-.029-.346.468-.474 1.1-.123.638-.123 1.176.011 1.2.135.029.346-.469.468-1.1ZM9.898 2.939c.568-.532 1.282-.696 1.598-.357.316.334.117 1.041-.45 1.574-.568.532-1.282.69-1.598.35-.316-.333-.111-1.035.45-1.567ZM11.39 5.67c-.339-.368-1.082-.234-1.65.304-.567.533-.748 1.264-.403 1.627.345.368 1.082.228 1.65-.304.567-.533.749-1.264.403-1.627Zm-6.687-.047c-.321-.304-.97-.14-1.445.363-.48.503-.608 1.158-.286 1.463.321.304.97.146 1.445-.357.48-.51.608-1.165.286-1.469Zm-1.72 3.288c.503-.526 1.176-.69 1.516-.374.333.322.204 1.006-.299 1.533-.503.526-1.176.696-1.515.374-.333-.316-.205-1 .298-1.533Zm1.293 2.668c-.345-.322-1.024-.158-1.527.374-.503.527-.632 1.217-.292 1.54.34.32 1.024.157 1.52-.37.504-.532.639-1.222.3-1.544Zm7.945 1.82c.778.07 1.38.456 1.346.871-.041.41-.697.69-1.475.62-.778-.07-1.38-.456-1.345-.871.035-.41.696-.69 1.474-.62ZM5.832 15.75c.732.07 1.3.427 1.264.79-.04.363-.667.597-1.398.52-.737-.07-1.299-.426-1.264-.789.035-.363.661-.597 1.398-.52Zm6.822 1.486c.035-.368-.538-.713-1.275-.778-.732-.064-1.358.176-1.387.539-.035.368.538.713 1.275.778.732.064 1.358-.176 1.387-.539Zm-.801 2.604c.029-.334-.498-.65-1.176-.708-.679-.065-1.252.158-1.282.491-.029.334.498.65 1.176.708.679.065 1.252-.158 1.282-.491Zm6.464-1.93c.012-.37-.579-.691-1.328-.72-.743-.03-1.357.245-1.375.614-.011.368.58.69 1.328.72.743.029 1.358-.246 1.375-.615ZM9.594 9.15c.58-.544 1.34-.684 1.691-.31.351.374.164 1.123-.415 1.667-.585.545-1.34.685-1.691.31-.351-.374-.164-1.117.415-1.667Zm9.829 6.4c.217-.076.193-.69-.053-1.369-.245-.678-.62-1.17-.836-1.088-.217.076-.193.69.052 1.37.246.678.62 1.17.837 1.087Zm-2.211-6.318c.274.684.321 1.316.099 1.404-.216.088-.62-.398-.895-1.088-.28-.685-.328-1.316-.105-1.404.216-.088.62.398.9 1.088ZM15.17 5.541c.216-.1.152-.702-.146-1.34-.299-.643-.708-1.082-.925-.982-.216.1-.146.702.146 1.34.299.643.714 1.082.925.982Z" fill="#fff"/></g><defs><clipPath id="a"><path fill="#fff" transform="translate(.842 .001)" d="M0 0h112.316v22H0z"/></clipPath></defs></svg>