<svg width="112" height="22" fill="none" xmlns="http://www.w3.org/2000/svg"><g clip-path="url(#a)" fill="#fff"><path d="M.861 1.68c.61 1.76 1.43 3.382 2.463 4.867L5.122 8.28l1.316.78 1.919.71 2.385.436 1.474.085 3.042-.074c.13-.002.194-.07.189-.204-.093-2.18-.81-4.146-2.154-5.898-.105-.162-.198-.266-.278-.313A8.648 8.648 0 0 0 10.24 1.51C7.152-.006 4.045.006.919 1.545a.112.112 0 0 0-.058.135ZM10.757 11.063c-3.15.196-6.102 1.543-7.843 4.226L.896 19.481c-.062.123-.03.216.096.277 3.103 1.506 6.74 1.521 9.653-.25 2.805-1.704 4.426-4.438 4.863-8.202.021-.165-.052-.247-.22-.247l-4.53.004ZM58.949 2.093h-2.941a.15.15 0 0 0-.15.15v17.083c0 .083.067.15.15.15h2.94a.15.15 0 0 0 .151-.15V2.243a.15.15 0 0 0-.15-.15ZM21.962 12.209l.004 4.28a.147.147 0 0 0 .146.147l9.136-.012a.147.147 0 0 1 .147.147l.007 2.559a.147.147 0 0 1-.146.147l-12.359-.004a.146.146 0 0 1-.135-.09.146.146 0 0 1-.012-.057l.004-16.874a.147.147 0 0 1 .147-.147h12.061a.147.147 0 0 1 .147.147l.012 2.55a.146.146 0 0 1-.147.147l-8.866-.007a.146.146 0 0 0-.146.146v3.76a.147.147 0 0 0 .146.146l5.82-.004a.147.147 0 0 1 .147.147l.012 2.582a.146.146 0 0 1-.147.147l-5.832-.004a.147.147 0 0 0-.146.147ZM81.818 2.389l3.065-.006c.079 0 .143.064.143.143l.005 2.84a.143.143 0 0 1-.143.144l-3.064.005a.143.143 0 0 1-.143-.143l-.005-2.84c0-.08.063-.143.142-.143ZM78.097 7.253l2.034-.008c.061 0 .094.032.096.097l.046 2.4c.003.065-.03.097-.096.097l-2.1.015a.265.265 0 0 0-.24.164.256.256 0 0 0-.018.099c.02 1.932.024 3.895.011 5.89-.002.386.173.615.525.687.51.1 1.08.127 1.714.08a.077.077 0 0 1 .085.077l-.008 2.456c0 .085-.043.13-.127.139-2.208.166-5.172.362-5.253-2.718-.057-2.115-.054-4.319.007-6.611a.261.261 0 0 0-.155-.246.252.252 0 0 0-.1-.02l-1.23-.004a.267.267 0 0 1-.251-.172.277.277 0 0 1-.02-.106l.031-2.073c.003-.167.088-.25.255-.247l1.146.008c.219 0 .326-.11.32-.328l-.05-1.606a.54.54 0 0 1 .274-.49l2.598-1.494c.21-.12.315-.06.313.182l-.05 3.485c-.003.165.078.247.243.247Z"/><path fill-rule="evenodd" clip-rule="evenodd" d="M45.165 18.971a6.223 6.223 0 0 0 2.344.749 6.256 6.256 0 0 0 4.636-1.373 6.444 6.444 0 0 0 2.331-4.293 6.48 6.48 0 0 0-.208-2.485 6.403 6.403 0 0 0-1.13-2.212 6.298 6.298 0 0 0-1.881-1.602 6.224 6.224 0 0 0-2.344-.749 6.257 6.257 0 0 0-4.635 1.373 6.443 6.443 0 0 0-2.331 4.292 6.476 6.476 0 0 0 .208 2.486c.23.806.614 1.557 1.13 2.212a6.299 6.299 0 0 0 1.88 1.602Zm4.184-2.112c-.372.185-.77.279-1.17.274a2.555 2.555 0 0 1-1.163-.298 3.098 3.098 0 0 1-.98-.827c-.28-.353-.5-.77-.649-1.23a4.546 4.546 0 0 1-.217-1.443c.005-.495.09-.984.247-1.44.158-.455.387-.868.674-1.214.287-.347.626-.621.998-.807.372-.185.769-.278 1.17-.274.4.004.795.106 1.163.299s.701.474.98.827c.28.352.5.77.649 1.229.148.458.222.949.217 1.444-.005.494-.09.983-.247 1.439a3.922 3.922 0 0 1-.674 1.215c-.287.347-.626.62-.998.806ZM91.837 19.712a6.257 6.257 0 0 1-4.2-2.395 6.444 6.444 0 0 1-1.29-4.711c.102-.834.363-1.64.771-2.372a6.401 6.401 0 0 1 1.606-1.896 6.298 6.298 0 0 1 2.196-1.13 6.224 6.224 0 0 1 2.453-.194c1.66.2 3.17 1.062 4.2 2.395a6.444 6.444 0 0 1 1.29 4.711c-.102.834-.364 1.64-.771 2.372a6.4 6.4 0 0 1-1.606 1.896 6.297 6.297 0 0 1-2.196 1.13 6.224 6.224 0 0 1-2.453.194Zm.736-2.582c.4.004.797-.09 1.169-.274.371-.186.71-.46.996-.806.286-.346.515-.759.673-1.214.158-.455.242-.943.247-1.437a4.542 4.542 0 0 0-.217-1.443 3.918 3.918 0 0 0-.647-1.227 3.092 3.092 0 0 0-.98-.826 2.55 2.55 0 0 0-1.162-.3 2.55 2.55 0 0 0-1.168.275c-.372.185-.71.459-.997.806a3.916 3.916 0 0 0-.673 1.213 4.545 4.545 0 0 0-.246 1.438c-.006.494.068.984.216 1.442.148.459.368.876.647 1.228.28.353.612.633.98.826.367.193.762.295 1.162.299Z"/><path d="M107.519 7.04c-1.786-.166-3.1.452-3.941 1.857-.134.227-.197.209-.189-.054.013-.422.046-.846.1-1.273a.287.287 0 0 0-.286-.32h-2.605c-.236 0-.355.118-.355.354l-.004 11.71c0 .022.004.043.013.063a.16.16 0 0 0 .149.1l2.887-.004a.177.177 0 0 0 .178-.178 341.873 341.873 0 0 1-.012-6.268c.012-1.729.772-3.474 2.826-3.238 1.131.131 1.698 1.123 1.702 2.18.013 2.445.011 4.875-.004 7.291 0 .058.022.113.062.153.04.04.094.064.15.064h2.795c.128 0 .194-.066.196-.197.006-2.568.002-5.131-.011-7.689-.012-2.273-1.208-4.319-3.651-4.55ZM39.392 7.257l2.96-.02a.131.131 0 0 1 .124.178L38.13 19.38a.131.131 0 0 1-.124.085l-2.77.015a.13.13 0 0 1-.124-.085L30.53 7.415a.132.132 0 0 1 .063-.163.131.131 0 0 1 .06-.014l3.061.023a.131.131 0 0 1 .124.089l2.69 8.05a.13.13 0 0 0 .251-.003l2.49-8.047a.131.131 0 0 1 .123-.093ZM68.49 18.118c.229-.298.319-.261.27.112l-.116.9c-.028.23.075.347.309.347h2.675c.177 0 .266-.09.266-.27V7.422c0-.116-.058-.174-.174-.174h-2.902a.193.193 0 0 0-.135.056.186.186 0 0 0-.054.133c.049 2.978.036 5.332-.039 7.064-.058 1.366-1.023 2.578-2.551 2.435-1.51-.139-1.942-1.382-1.918-2.74.038-2.334.04-4.615.007-6.843-.002-.07-.038-.105-.108-.105h-2.93c-.105 0-.159.052-.161.155-.034 2.912-.025 5.552.027 7.92.088 4.048 5.048 6.04 7.534 2.794ZM84.816 7.25h-2.964a.143.143 0 0 0-.143.142v11.942c0 .079.064.143.143.143h2.964a.143.143 0 0 0 .143-.143V7.392a.143.143 0 0 0-.143-.143Z"/></g><defs><clipPath id="a"><path fill="#fff" transform="translate(.807 .001)" d="M0 0h110.386v22H0z"/></clipPath></defs></svg>