<svg width="134" height="22" fill="none" xmlns="http://www.w3.org/2000/svg"><g clip-path="url(#a)"><path fill-rule="evenodd" clip-rule="evenodd" d="M.267 10.794V5.922L22.729 0l-2.39 5.625L.267 10.794Zm0 .93v4.725l16.436-2.303 2.14-5.035L.267 11.724Zm0 5.626V22h13.078l1.98-4.65H.266Zm36.625-3.765h-4.398v2.51h8.43v3.72H28.198V4.018H40.91l-.015.03-1.554 3.69h-6.847v2.393h5.835l-1.437 3.455Zm45.642-9.568h-6.73v15.799h4.399v-4.518h2.17a7.544 7.544 0 0 0 4.882-1.477 5.037 5.037 0 0 0 1.434-1.87c.324-.73.47-1.526.428-2.323a5.107 5.107 0 0 0-1.759-4.12 7.152 7.152 0 0 0-4.824-1.491ZM84 11.311a2.728 2.728 0 0 1-1.774.502H80.16v-4.12h2.038a2.917 2.917 0 0 1 1.847.532 1.875 1.875 0 0 1 .66 1.477 1.928 1.928 0 0 1-.66 1.609H84Zm6.569-7.294h4.354v11.96h6.877l-1.614 3.839h-9.617V4.017Zm18.634-.118-5.615 13.377-1.056 2.54h4.575l1.114-2.82h6.056l1.143 2.82h4.662l-6.685-15.917h-4.194Zm.294 9.686 1.774-4.43 1.744 4.43h-3.518Zm16.114-3.81 3.255-5.758h4.867l-5.967 9.819v5.98h-4.369v-5.921l-5.967-9.878h4.955l3.226 5.759ZM53.768 4.018l-3.563 9.996-3.563-9.996h-4.867l6.363 15.917h4.032l6.378-15.917h-4.78Zm7.595 1.103a8.111 8.111 0 0 1 10.293 1.02 8.251 8.251 0 0 1 1.014 10.366 8.164 8.164 0 0 1-3.658 3.024 8.098 8.098 0 0 1-4.71.467 8.134 8.134 0 0 1-4.174-2.246 8.228 8.228 0 0 1-2.231-4.204 8.262 8.262 0 0 1 .464-4.743 8.197 8.197 0 0 1 3.002-3.684Zm2.15 10.41a4.26 4.26 0 0 0 2.38.727v-.015c1.132 0 2.219-.452 3.021-1.257a4.327 4.327 0 0 0 1.26-3.04c0-.852-.252-1.686-.722-2.394a4.288 4.288 0 0 0-1.921-1.588 4.253 4.253 0 0 0-4.666.934 4.339 4.339 0 0 0-.928 4.699 4.305 4.305 0 0 0 1.577 1.935Z" fill="#fff"/></g><defs><clipPath id="a"><path fill="#fff" transform="translate(.267 .001)" d="M0 0h133.467v22H0z"/></clipPath></defs></svg>