<svg width="100" height="36" fill="none" xmlns="http://www.w3.org/2000/svg"><g clip-path="url(#a)"><path fill-rule="evenodd" clip-rule="evenodd" d="M46.908 8.552c.078.016.16.023.244.023l7.626-.001c.02 0 .03.01.03.03v1.325c0 .02-.01.029-.03.029h-9.349c-.038 0-.058-.019-.058-.057V.367A.028.028 0 0 1 45.4.339h1.442c.009 0 .017.003.023.01.006.005.009.014.009.022V8.51c0 .024.011.038.035.043Zm18.857.043v1.343a.021.021 0 0 1-.021.021l-9.4-.001h-.005l-.003-.002a.022.022 0 0 1-.007-.005h-.002l-.002-.004-.001-.002a.02.02 0 0 1-.002-.008L56.323.36a.021.021 0 0 1 .021-.022h1.472a.021.021 0 0 1 .021.022v8.191a.02.02 0 0 0 .007.015.022.022 0 0 0 .015.007h7.885a.021.021 0 0 1 .021.021ZM2.345 4.122l.006-2.293c0-.024.011-.035.035-.035l7.425-.001a.046.046 0 0 0 .032-.013.044.044 0 0 0 .014-.032L9.86.407a.029.029 0 0 0-.008-.02.028.028 0 0 0-.02-.009H.857a.02.02 0 0 0-.02.02v9.588a.028.028 0 0 0 .04.025.932.932 0 0 1 .023-.01.062.062 0 0 1 .022-.004c3.102.003 6.204.004 9.306.001.026 0 .039-.013.039-.039l.002-1.316c0-.026-.013-.039-.038-.039l-7.85.002a.033.033 0 0 1-.03-.02.032.032 0 0 1-.002-.012l.001-2.97a.029.029 0 0 1 .029-.028 518.16 518.16 0 0 1 4.881.007.028.028 0 0 0 .019-.026V4.19c0-.01-.004-.014-.014-.014H2.4c-.037 0-.055-.018-.055-.055ZM68.82 5.596v2.987a.022.022 0 0 0 .022.022h7.891a.022.022 0 0 1 .022.022l-.005 1.35a.022.022 0 0 1-.021.022H67.33c-.003 0-.005 0-.008-.002h-.002l-.001-.002a.022.022 0 0 1-.004-.003l-.002-.002-.001-.001a.022.022 0 0 1-.003-.012L67.308.4c0-.006.002-.011.006-.015a.022.022 0 0 1 .016-.007h8.98a.022.022 0 0 1 .023.023l-.005 1.37a.022.022 0 0 1-.021.022l-7.467.001a.022.022 0 0 0-.021.022l-.001 2.339c0 .006.002.011.006.015s.01.007.016.007h4.888c.006 0 .011.002.015.006s.007.01.007.015v1.355l-.001.008a.021.021 0 0 1-.003.005l-.002.002a.022.022 0 0 1-.016.007h-4.888a.022.022 0 0 0-.021.02ZM19.767.409l-3.028 3.613c-.02.023-.038.023-.057 0L13.678.436a.159.159 0 0 0-.122-.057l-1.748.003a.01.01 0 0 0-.006.001.01.01 0 0 0-.003.005.009.009 0 0 0-.001.005c0 .002 0 .003.002.005l3.958 4.754c.013.016.013.032 0 .048l-3.983 4.754a.026.026 0 0 0-.006.013.026.026 0 0 0 .026.03l1.68.001a.131.131 0 0 0 .1-.047l2.645-3.126c.082-.097.159-.186.232-.268.024-.027.1-.121.228-.282a.032.032 0 0 1 .025-.012.032.032 0 0 1 .025.011l3.1 3.688a.103.103 0 0 0 .079.037l1.74-.003a.02.02 0 0 0 .016-.01.018.018 0 0 0 0-.019 1.154 1.154 0 0 0-.098-.135c-1.33-1.595-2.63-3.15-3.898-4.666a.052.052 0 0 1 0-.068l3.955-4.68a.023.023 0 0 0 .003-.024.022.022 0 0 0-.008-.01.022.022 0 0 0-.012-.003h-1.78a.075.075 0 0 0-.06.028Zm12.785 8.224-.003 1.337a.029.029 0 0 1-.03.029h-8.933a.029.029 0 0 1-.029-.029V.408a.029.029 0 0 1 .029-.029h8.931a.029.029 0 0 1 .03.03l-.002 1.357a.029.029 0 0 1-.03.029H25.08a.029.029 0 0 0-.029.028v6.756c0 .007.003.015.009.02a.029.029 0 0 0 .02.009l7.442-.003a.029.029 0 0 1 .03.029Zm3.36-.038.001-2.98a.028.028 0 0 1 .028-.027h4.886a.028.028 0 0 0 .028-.027V4.234a.027.027 0 0 0-.017-.025.028.028 0 0 0-.011-.002l-4.886-.002a.028.028 0 0 1-.028-.027V1.845a.027.027 0 0 1 .017-.026.027.027 0 0 1 .01-.002l7.46.001a.028.028 0 0 0 .027-.027V.429a.028.028 0 0 0-.028-.027h-8.954a.028.028 0 0 0-.028.028v9.554a.027.027 0 0 0 .027.028l9.375-.001a.028.028 0 0 0 .027-.028l.007-1.334a.028.028 0 0 0-.028-.028l-7.885.002a.027.027 0 0 1-.02-.008.027.027 0 0 1-.007-.02Zm53.75-6.647V.42a.022.022 0 0 1 .022-.022l9.388-.004a.022.022 0 0 1 .021.021l-.002 1.53a.022.022 0 0 1-.006.016.022.022 0 0 1-.016.007l-4.031.003a.022.022 0 0 0-.022.021v8.017a.022.022 0 0 1-.007.016.019.019 0 0 1-.007.005.022.022 0 0 1-.009.001l-1.344.003a.022.022 0 0 1-.022-.022V1.989a.022.022 0 0 0-.022-.022l-3.922.003a.022.022 0 0 1-.021-.022Zm-11.349 8.086 1.349-.002c.004 0 .01-.002.013-.005a.018.018 0 0 0 .005-.013V2.222c0-.004.001-.008.003-.01a.018.018 0 0 1 .02-.007.018.018 0 0 1 .01.006l6.273 7.818.002.002.002.002.002.001a.018.018 0 0 0 .008.002l1.733.012c.005 0 .01-.002.013-.006a.018.018 0 0 0 .006-.013V.447a.018.018 0 0 0-.019-.018L86.38.43a.018.018 0 0 0-.012.005.018.018 0 0 0-.006.013l.003 7.825a.018.018 0 0 1-.012.016.018.018 0 0 1-.02-.005L80.037.435a.018.018 0 0 0-.014-.006L78.311.413a.018.018 0 0 0-.018.018l.001 9.584a.018.018 0 0 0 .018.019ZM76.17 19.78a589.962 589.962 0 0 1 0-2.183c.003-.384.005-.69-.308-1.01a1.014 1.014 0 0 0-.757-.308H24.528c-.071 0-.141.003-.21.01a.804.804 0 0 0-.242.055c-.407.202-.626.529-.657.98l-1.234-.002a2.81 2.81 0 0 1 .14-.822 2.95 2.95 0 0 1 .22-.426.913.913 0 0 1 .115-.16c.048-.054.095-.11.14-.17a.062.062 0 0 1 .03-.023.1.1 0 0 1 .018-.005.03.03 0 0 0 .017-.01c.099-.117.206-.206.323-.269.064-.035.127-.074.189-.117.059-.041.122-.076.19-.105.271-.117.555-.175.852-.175h50.756c1.274 0 2.242 1.089 2.24 2.298-.003.813-.004 1.633-.004 2.461l3.17-.001c.435 0 .732.022.891.068.521.15.945.552 1.121 1.073.048.14.072.307.072.5-.003 2.986-.004 5.854-.003 8.602 0 .148-.036.314-.093.451-.206.49-.558.817-1.054.982-.166.056-.536.084-1.11.084-.991 0-1.987 0-2.988.002l-.002.137c-.004.245-.008.492-.057.723a2.286 2.286 0 0 1-1.593 1.71c-.19.054-.416.082-.677.082-17.424-.01-34.299-.01-50.625-.002-.535 0-.972-.142-1.387-.463a2.264 2.264 0 0 1-.802-1.176c-.055-.184-.082-.483-.084-.898-.003-.854-.002-1.715.001-2.583l-3.47-.005a.093.093 0 0 1-.055-.017c-.041-.03-.085-.032-.131-.035a.354.354 0 0 1-.104-.016c-.561-.2-.93-.572-1.105-1.117a1.798 1.798 0 0 1-.074-.552c.006-2.752.005-5.503-.003-8.254-.001-.51.16-.933.485-1.266a1.78 1.78 0 0 1 .292-.226l.053-.035a1.67 1.67 0 0 1 .833-.24c1.097 0 2.188 0 3.273-.005l1.234.003h7.73c.326 0 .571.02.737.062.254.062.49.19.71.386.215.192.368.425.457.698.058.179.087.418.087.717-.006 2.79-.007 5.536-.003 8.236 0 .338-.092.645-.278.923a1.68 1.68 0 0 1-.917.676.37.37 0 0 1-.124.016.12.12 0 0 0-.054.01.534.534 0 0 1-.22.04h-8.117l-.002 2.489c0 .354.022.59.066.707.094.252.262.445.504.581a.55.55 0 0 0 .166.062l.056.012a.785.785 0 0 0 .173.027h50.75c.451 0 .852-.305.977-.713.043-.14.047-.289.052-.44.003-.085.005-.17.015-.256H68.5c-.437-.001-.824-.148-1.162-.44-.358-.312-.538-.744-.538-1.295-.004-2.758-.004-5.537-.002-8.336 0-.487.198-.976.59-1.288.333-.267.69-.4 1.068-.4h7.691c.015 0 .022-.006.022-.019Zm-25.864 7.644c0 .259.079.513.237.763.22.348.525.585.912.711.15.05.301.074.452.074 4.488.002 8.714.002 12.678.001.133 0 .27-.023.412-.068.529-.17.893-.522 1.092-1.055.058-.154.087-.307.087-.46 0-2.871 0-5.704.002-8.497 0-.238-.04-.486-.16-.69a.99.99 0 0 1-.048-.101c-.02-.044-.038-.087-.064-.125-.23-.33-.508-.55-.837-.66-.18-.06-.453-.089-.82-.089-3.857.005-7.9.005-12.13.001-.11 0-.215.007-.317.022l-.312.046a.735.735 0 0 0-.254.084 3.164 3.164 0 0 0-.24.151 1.126 1.126 0 0 0-.363.375.069.069 0 0 1-.033.03.046.046 0 0 0-.021.018c-.093.15-.17.307-.233.474a.302.302 0 0 0-.018.085 1.186 1.186 0 0 1-.013.096.88.88 0 0 0-.014.136l.005 8.678Zm6.78-4.03.01 1.736c0 .017.01.026.027.027.162.004.322.006.479.004l2.62-.03c.102 0 .19.021.266.067.432.263.29.944-.251.954-1.198.022-2.414.043-3.646.06-.534.009-.774-.242-.78-.768-.025-1.965-.05-3.534-.077-4.707-.01-.468.098-.88.652-.896a147.3 147.3 0 0 1 3.648-.057c.32 0 .56.229.515.555-.037.284-.206.43-.505.436-.74.016-1.573.03-2.499.042a23.81 23.81 0 0 0-.465.01.043.043 0 0 0-.03.014.042.042 0 0 0-.011.03l.027 1.489a.024.024 0 0 0 .025.023c.265-.006.533-.007.803-.01.449-.002.901-.005 1.349-.023.25-.01.481-.007.69.011a.43.43 0 0 1 .403.423c.027.455-.295.54-.687.546l-2.534.032c-.02 0-.03.01-.03.031Zm-29.689 1.589a4.374 4.374 0 0 0-.204-.298.276.276 0 0 1-.154-.201 3.35 3.35 0 0 0-.495-.524 1.446 1.446 0 0 0-.313-.196c-.024-.01-.024-.023-.002-.037a.3.3 0 0 1 .144-.046.518.518 0 0 0 .189-.05l.348-.16a.703.703 0 0 0 .271-.163c.2-.169.34-.332.418-.491.212-.43.24-.898.083-1.405a1.572 1.572 0 0 0-.731-.91c-.058 0-.122-.031-.192-.092a3.07 3.07 0 0 0-1.097-.167c-1.216.015-2.037.03-2.464.044-.536.018-.649.389-.642.864.007.51.016 1.022.025 1.533v.003c.019 1.06.038 2.117.037 3.152-.001.409.088.907.605.924.63.02.717-.428.708-.938-.012-.655-.02-1.277-.028-1.865 0-.025.012-.037.037-.036.083.002.17 0 .26-.001.236-.005.485-.01.69.067.156.058.29.146.401.262.176.183.35.413.521.691l.609.983c.112.18.224.347.336.5.073.101.26.243.383.267.204.04.389.01.553-.087.159-.094.296-.312.247-.492a2.851 2.851 0 0 0-.309-.737c-.02-.033-.037-.067-.053-.1a.705.705 0 0 0-.136-.203.09.09 0 0 1-.028-.05.113.113 0 0 0-.017-.041Zm-1.002-2.543c-.092.204-.269.311-.467.4a1.313 1.313 0 0 1-.344.084l-.118.019c-.08.015-.16.023-.238.024-.45.008-.892.012-1.325.014-.018 0-.027-.009-.027-.027l-.017-1.675c0-.005 0-.01.002-.014a.032.032 0 0 1 .007-.01.033.033 0 0 1 .011-.008l.002-.001.003-.001a55.146 55.146 0 0 1 1.614-.01c.402.003.813.182.918.588.044.174.055.45-.02.617Zm46.654 6.17c-.33.007-.616-.043-.75-.39a1.097 1.097 0 0 1-.077-.377c-.031-1.569-.056-3.246-.076-5.032-.004-.394.264-.71.669-.691.287.013.478.145.573.394.04.105.061.275.065.51.028 1.534.05 3.026.066 4.477 0 .007.003.013.008.018a.025.025 0 0 0 .018.007c.88-.012 1.733-.022 2.556-.028.26-.002.455.025.605.224.139.185.11.553-.083.698a.734.734 0 0 1-.445.147c-1.103.011-2.146.026-3.13.044ZM49.632 30.39a1.662 1.662 0 0 1-1.661 1.662H35.405a1.662 1.662 0 0 1-1.662-1.662v-8.428a1.661 1.661 0 0 1 1.662-1.662H47.97a1.662 1.662 0 0 1 1.661 1.662v8.428Zm-8.72-4.717-.027-1.504c0-.033.016-.05.05-.048.24.009.471.008.693-.001.448-.02.868-.02 1.291-.019h.212c.09 0 .18-.006.267-.013.119-.009.237-.018.357-.01.376.023.682-.153.64-.583a.24.24 0 0 0-.034-.105.566.566 0 0 1-.036-.074c-.023-.054-.043-.101-.11-.137a.709.709 0 0 0-.34-.094c-1.16.012-2.348.027-3.566.046a.888.888 0 0 0-.398.093c-.233.12-.307.33-.31.582a43.07 43.07 0 0 0 .016 1.685c.005.2.005.395.006.59 0 .209 0 .416.007.626.012.363.016.72.02 1.073.005.351.01.698.021 1.044.006.192.049.415.214.534.148.106.323.16.526.159l.804-.003c.036 0 .07-.006.104-.012.032-.006.065-.012.1-.012.468-.004.951-.006 1.451-.005.04 0 .077-.006.114-.011a.792.792 0 0 1 .112-.012c.266-.003.54-.004.82-.003.05 0 .096-.006.143-.013a1.13 1.13 0 0 1 .131-.012c.244-.006.393-.273.393-.491 0-.211-.085-.36-.255-.448-.079-.04-.225-.06-.44-.058-1.002.006-1.964.017-2.883.032-.036 0-.055-.017-.056-.053l-.024-1.743v-.005l.001-.002v-.001l.002-.002.002-.002a.024.024 0 0 1 .003-.003l.003-.001a1.363 1.363 0 0 0 2.944-.075c.195-.063.296-.209.302-.438.008-.284-.18-.495-.476-.487a.123.123 0 0 1-.065-.016.075.075 0 0 0-.08 0 .127.127 0 0 1-.061.018h-.531a20.838 20.838 0 0 0-1.245.021 5.666 5.666 0 0 1-.673-.002.249.249 0 0 0-.106.017c-.022.01-.033.002-.034-.022ZM27.18 23.31a.703.703 0 0 1-.271.162.477.477 0 0 1 .271-.163Z" fill="#fff"/></g><defs><clipPath id="a"><path fill="#fff" transform="translate(.353 .001)" d="M0 0h99.294v36H0z"/></clipPath></defs></svg>