<svg width="74" height="28" fill="none" xmlns="http://www.w3.org/2000/svg"><path fill-rule="evenodd" clip-rule="evenodd" d="M72.594 5.798a3.174 3.174 0 0 1-1.754.55 3.228 3.228 0 0 1-3.206-3.174 3.174 3.174 0 1 1 4.96 2.624Zm-5.229 16.101h-4.659V7.951h4.66v13.948ZM50.65 14.331c0 1.553.847 2.852 2.456 2.852a3.571 3.571 0 0 0 2.542-1.129v-3.36a3.536 3.536 0 0 0-2.542-1.102c-1.609 0-2.456 1.242-2.456 2.74Zm9.657 7.117c0 4.122-2.316 6.551-7.258 6.551V28a12.052 12.052 0 0 1-5.93-1.637v-4.518a10.48 10.48 0 0 0 5.648 1.92c2.005 0 2.88-.791 2.88-2.316v-1.412a5.678 5.678 0 0 1-3.47 1.242c-3.813 0-6.326-2.906-6.326-6.946 0-3.982 2.513-6.834 6.325-6.834a5.064 5.064 0 0 1 3.471 1.242v-.79h4.66v13.497Zm-22.767.551a5.173 5.173 0 0 1-2.027.354 4.867 4.867 0 0 1-5.026-5.056V7.951h4.66v8.19a1.816 1.816 0 0 0 1.891 1.976 2.674 2.674 0 0 0 2.175-1.243V7.951h4.659V21.9h-4.603v-1.017a5.172 5.172 0 0 1-1.729 1.115Zm-9.17-.098H15.49l.002-3.813 6.495-6.325h-6.382V7.951h12.622v3.728l-6.494 6.325h6.634V21.9Zm-14.57 0H.017V2.134h13.779V6.51h-8.98v3.304h8.105v4.377H4.817v3.19h8.981v4.519Z" fill="#fff"/></svg>