<svg width="96" height="32" fill="none" xmlns="http://www.w3.org/2000/svg"><path d="M24.522 19.382c.788.042 2.328.032 4.619-.028-.302-1.354-.7-2.173-1.197-2.456a18.161 18.161 0 0 1-4.807-3.902c-.157-.186-.327-.197-.508-.035l-6.309 5.697c3.85.395 6.583.636 8.202.724Z" fill="#fff"/><path d="M24.522 19.382c-1.619-.088-4.353-.33-8.202-.724.478 4.184 2.22 5.538 5.224 4.063a1.09 1.09 0 0 0 .494-.466.494.494 0 0 1 .216-.209.326.326 0 0 1 .347.056.311.311 0 0 1 .084.334l-.695 1.962c-.098.273 0 .413.292.417l1.224.007c.468.005.568-.188.3-.577a2.854 2.854 0 0 1-.55-1.524c-.024-.403.139-.5.487-.292 3.051 1.837 4.85.812 5.398-3.075-2.291.06-3.83.07-4.62.028Z" fill="#fff"/><path fill-rule="evenodd" clip-rule="evenodd" d="M12.438.001h20.626c-.092 3.7-.085 7.4.021 11.096.023.88.265 1.836.724 2.866 1.665 3.752 1.595 7.466-.209 11.144-2.583 3.845-5.901 5.909-9.955 6.191-4.452.311-8.245-1.518-11.38-5.488-1.675-2.806-2.162-5.874-1.462-9.204.155-.74.455-1.45.753-2.154.425-1.006.846-2.001.834-3.056A405.51 405.51 0 0 1 12.438 0Zm19.103 19.103a8.786 8.786 0 1 0-17.572 0 8.786 8.786 0 0 0 17.572 0Z" fill="#fff"/><path d="M47.951 16.154c-.742.482-1.474.487-2.198.014-.941-.612-1.505-.948-1.69-1.009-3.015-.923-5.16.149-6.435 3.214-.733 2.75-.1 4.728 1.899 5.934 1.976 1.192 3.944 1.166 5.906-.076.84-.534 1.486-1.517 1.94-2.95-1.478-.584-3.102-.642-4.869-.174l.181-1.607c.033-.246.172-.369.418-.369h5.746c.227 0 .36.114.396.341.227 1.568-.032 3.177-.779 4.828-4.512 3.72-8.749 3.406-12.71-.94-1.27-6.209.86-9.564 6.394-10.065 1.294-.12 2.395 0 3.304.362 1.275.505 2.108 1.338 2.497 2.497ZM9.948 26.658l-2.025.126-.02-5.607c.027-.107.023-.193-.014-.258a.596.596 0 0 0-.487-.334c-1.962-.194-3.706-.041-5.232.46l.056 5.613c-.816.265-1.442.228-1.878-.11V13.391a2.907 2.907 0 0 1 1.593.084c.218.07.327.22.327.452l.014 4.863c0 .102.053.153.16.153h5.391A.167.167 0 0 0 8 18.777l.007-5.023c0-.334.167-.482.5-.445l1.072.118c.1.012.192.06.26.134a.4.4 0 0 1 .102.27l.007 12.827ZM73.906 16.502l1.837.027c.15-.276.208-.61.164-.936a1.418 1.418 0 0 0-.4-.83 1.036 1.036 0 0 0-.416-.25.909.909 0 0 0-.463-.02.997.997 0 0 0-.428.214 1.253 1.253 0 0 0-.315.41c-.102.21-.154.45-.15.694.003.244.063.483.171.69ZM59.374 26.805c-.992.125-1.588-.177-1.788-.905l-.083-5.001c-.599-1.503-1.72-2.127-3.367-1.872-1.174.181-1.825.782-1.955 1.802-.63 1.173-.668 2.143-.111 2.908 1.247 1.707 2.764 1.92 4.55.64a.23.23 0 0 1 .354.118c.13.394.172.993.125 1.795-2.235.895-4.368.587-6.4-.925-1.104-1.804-1.294-3.483-.57-5.037 1.104-2.356 3-3.306 5.69-2.852 4.19.713 3.88 4.91 3.6 8.713l-.045.616ZM70.81 26.867l1.816.021a78.78 78.78 0 0 0 .056-5.537c-.033-1.308-.25-2.224-.654-2.748-1.1-1.42-3.61-1.774-4.974-.397-.209.214-.431.23-.668.05-1.655-1.24-3.868-1.309-5.155.368-.436.57-.677 1.602-.723 3.096a60.37 60.37 0 0 0 .076 5.092l1.823.007.153-6.595c.13-.705.494-1.116 1.092-1.232 1.02-.194 1.649.22 1.885 1.246l.188 6.567 1.816.125.125-6.247c-.125-.886.237-1.44 1.085-1.663 1.109-.292 1.763.1 1.962 1.176l.097 6.671ZM75.722 26.936a4.564 4.564 0 0 0-1.753-.076l-.049-8.793a.633.633 0 0 1 .744-.626l.494.083a.773.773 0 0 1 .633.759l-.07 8.653ZM83.645 27.034c.64-.288 1.208-.302 1.705-.042.012-.235.027-.488.043-.755.141-2.372.35-5.864-.976-7.495-1.419-1.754-4.347-1.941-6.045-.174-1.44 1.502-1.217 5.725-.988 8.25a4.42 4.42 0 0 1 1.788.153l.244-6.275c.162-1.015.647-1.583 1.454-1.704 1.456-.218 2.288.357 2.497 1.725l.278 6.317ZM95.652 20.794v7.012l-.466 1.273c-1.21 1.122-2.272 1.679-3.186 1.67a113.436 113.436 0 0 0-4.417.035l.493-1.49c.098-.287.293-.386.585-.298 2.65.828 5.203.403 5.148-2.894a135.3 135.3 0 0 0-.181-5.239c-1.874-2.648-3.59-2.668-5.148-.062-.654 1.725-.466 2.959.563 3.7 1.183.859 2.442.926 3.778.202a.39.39 0 0 1 .57.341l.021 1.315c-1.744.738-3.775.508-6.094-.689-1.47-2.444-1.505-4.556-.104-6.337 2.58-3.283 6.887-2.456 8.438 1.46Z" fill="#fff"/></svg>