<svg width="38" height="40" fill="none" xmlns="http://www.w3.org/2000/svg"><g clip-path="url(#a)"><path fill-rule="evenodd" clip-rule="evenodd" d="M4.481.305v13.887h3.204V2.732h1.252c.416 0 1.248.008 1.768.404.27.208.645.68.645 1.47 0 .687-.29 1.092-.52 1.32-.54.542-1.331.572-1.914.572h-.742v2.245l3.758 5.43h3.912l-4.265-5.67a4.365 4.365 0 0 0 1.935-1.057c.895-.874 1.082-1.954 1.082-2.828 0-1.54-.624-2.559-1.207-3.12C12.722.874 11.62.27 9.85.27h-5.37v.035Zm-.969 13.887V.282H.308v13.91h3.204Zm30.275-5.525V.275h3.126V14.19h-2.722l-4.512-5.166a7.063 7.063 0 0 1-1.956 3.44c-1.29 1.248-3.038 2.039-5.368 2.039-2.601 0-4.369-1.04-5.41-2.04-1.331-1.248-2.162-3.12-2.162-5.16 0-1.997.897-4.015 2.145-5.264.936-.936 2.668-2.039 5.436-2.039 2.164 0 3.95.7 5.378 2.018.729.674 6.045 6.648 6.045 6.648ZM22.313 11.55c1.415 0 2.414-.52 3.08-1.187.54-.52 1.207-1.498 1.206-3.1 0-1.435-.583-2.496-1.207-3.12-.686-.667-1.79-1.187-3.059-1.187-1.206 0-2.289.438-3.038 1.186-.603.583-1.227 1.603-1.227 3.142 0 1.27.416 2.29 1.27 3.121.895.853 1.893 1.145 2.975 1.145Zm8.237 14.138v-2.752h7.314v.156c0 1.788-.613 4.503-2.246 6.203-1.634 1.7-3.484 2.008-5.227 2.008-.114 0-.229 0-.344-.004-1.667-.039-3.432-.396-5.043-2.049a7.416 7.416 0 0 1-.749-.902l-.002.003-.002.002-.001-.013-.015-.02a5.17 5.17 0 0 1-.689.843c-1.479 1.435-3.399 2.141-5.694 2.141-2.936 0-4.768-1.17-5.762-2.163a7.686 7.686 0 0 1-.755-.88 6.844 6.844 0 0 1-.456.505c-2.03 2.053-4.569 2.208-5.805 2.208H.281v-14.7h4.684c1.942 0 3.995.274 5.805 2.017.218.212.422.422.612.66l-.001.002h.001l.03.052c.211-.365.438-.682.679-.923.994-.992 2.826-2.163 5.761-2.163 2.296 0 4.216.707 5.695 2.141.247.24.477.527.688.843l.016-.021v-.014l.005.006c.259-.368.519-.667.748-.903 1.723-1.766 3.62-2.053 5.387-2.053 1.743 0 3.611.31 5.245 2.01.535.556.961 1.222 1.294 1.929l-2.864 1.39c-.318-.883-.861-1.358-.96-1.437-.331-.287-1.104-.798-2.561-.798-1.125 0-2.097.284-2.98 1.146-1.1 1.074-1.488 2.406-1.664 3.454.022.13.047.266.077.405.207.972.625 2.11 1.587 3.05.11.108.222.206.335.297.304.242.618.423.946.555.528.213 1.09.297 1.699.297.728 0 1.286-.126 1.703-.288.416-.162.692-.36.858-.503.11-.088.772-.651 1.059-1.737H30.55Zm-21.21-.952.047-.134c.053-.15.117-.36.19-.615-.026-.15-.05-.3-.07-.453-.223-1.544-.746-2.593-1.32-3.167-1.104-1.104-2.539-1.269-3.576-1.269h-.927v8.98h.927c.706 0 2.252-.053 3.355-.981.795-.67 1.201-1.856 1.374-2.361Zm11.735 2.175c.25-.25.496-.57.703-.95a6.53 6.53 0 0 0 .77-1.874c.038-.159.073-.318.106-.476a18.865 18.865 0 0 0-.106-.476 6.531 6.531 0 0 0-.77-1.874 4.143 4.143 0 0 0-.703-.95c-.729-.707-1.9-1.259-3.245-1.259-1.281 0-2.429.465-3.223 1.259a3.985 3.985 0 0 0-.465.542l.006.002s-.683.98-1.125 2.757c.442 1.775 1.125 2.756 1.125 2.756h-.006c.15.21.308.39.465.543.795.795 1.942 1.258 3.223 1.258 1.346 0 2.516-.552 3.245-1.258Zm-17.586 7.6a1.609 1.609 0 0 0-.392-.502c-.13-.1-.371-.231-.753-.231-.663 0-1.125.411-1.125 1.034 0 .26.07.411.251.582.2.2.452.311.702.422l.643.28c.392.171.753.352 1.034.633.34.34.481.733.481 1.214 0 1.235-.913 2.058-2.118 2.058-.441 0-.993-.09-1.455-.542-.332-.322-.533-.783-.622-1.185l.722-.2c.05.35.211.652.402.852.29.291.622.372.963.372.914 0 1.346-.653 1.346-1.325a.998.998 0 0 0-.332-.783c-.19-.181-.452-.301-.803-.462l-.602-.281-.055-.025c-.252-.115-.559-.256-.839-.527-.291-.28-.462-.592-.462-1.094 0-1.034.793-1.726 1.877-1.726.411 0 .743.08 1.074.3.27.182.502.453.652.744l-.59.392Zm4.537-.623v5.993h-.743v-5.993H5.657v-.703h3.995v.703H8.026Zm4.478 3.403c0 .562 0 1.174.532 1.626.27.231.733.382 1.104.382.372 0 .834-.151 1.105-.382.532-.452.532-1.064.532-1.626v-4.106h.743v4.306c0 .562-.06 1.105-.422 1.606-.4.552-1.104.904-1.957.904s-1.556-.351-1.957-.904c-.362-.502-.422-1.044-.422-1.606v-4.306h.743v4.106h-.001Zm6.846-4.106h1.365c.672 0 1.626.07 2.47.783.612.512 1.143 1.365 1.143 2.57 0 1.406-.693 2.158-1.174 2.57-.613.522-1.255.773-2.45.773H19.35v-6.696Zm.743 5.993h.652c.532 0 1.265-.06 1.918-.602.502-.422.903-1.084.903-2.038 0-1.606-1.124-2.65-2.82-2.65h-.653v5.29Zm7.448-5.993v6.696h-.743v-6.696h.743Zm3.232 3.353c0 1.536 1.214 2.76 2.72 2.76 1.507 0 2.721-1.224 2.721-2.76 0-1.536-1.214-2.76-2.72-2.76-1.507 0-2.721 1.224-2.721 2.76Zm-.762 0c0-1.998 1.556-3.463 3.483-3.463s3.483 1.465 3.483 3.463c0 1.988-1.546 3.464-3.483 3.464-1.938 0-3.483-1.476-3.483-3.464Z" fill="#fff"/></g><defs><clipPath id="a"><path fill="#fff" transform="translate(.136 .001)" d="M0 0h37.728v40H0z"/></clipPath></defs></svg>