<svg width="84" height="28" fill="none" xmlns="http://www.w3.org/2000/svg"><path d="M12.614 0h.617c.166.014.332.033.495.06 2.328.367 3.342 2.4 3.427 4.578a.015.015 0 0 1-.005.012.016.016 0 0 1-.011.005h-1.672c-.02 0-.032-.01-.033-.03-.097-1.356-.624-2.796-2.164-3.02-1.778-.26-3.114.982-2.745 2.811.224 1.106 1.116 1.91 2.005 2.545.285.204.58.404.874.605l.002.001.002.002h.001c.509.348 1.018.695 1.485 1.06.58.454 1.123.977 1.538 1.574.783 1.127 1.033 2.46.868 3.815a4.728 4.728 0 0 1-.336 1.298c-.503 1.156-1.45 1.879-2.681 2.15a6.042 6.042 0 0 1-1.74.125 4.283 4.283 0 0 1-1.268-.284c-1.855-.728-2.657-2.645-2.667-4.526 0-.013.006-.02.02-.02h1.676c.013 0 .019.007.02.02.015.696.144 1.394.482 1.99.53.932 1.463 1.308 2.52 1.255 1.653-.082 2.388-1.376 2.349-2.899-.03-1.161-.715-2.049-1.576-2.773a13.196 13.196 0 0 0-.867-.673l-.512-.36c-.776-.541-1.553-1.084-2.24-1.724-.58-.54-1.07-1.175-1.36-1.895a4.638 4.638 0 0 1-.292-2.293C8.974 2.116 9.68 1.007 10.85.44A4.569 4.569 0 0 1 12.614 0ZM34.404 9.22v8.138a.015.015 0 0 1-.005.01v.002h-.002l-.001.001a.015.015 0 0 1-.008.002h-1.832a.015.015 0 0 1-.015-.015V.253a.015.015 0 0 1 .004-.011.015.015 0 0 1 .011-.005h7.338a.015.015 0 0 1 .015.01v1.551a.014.014 0 0 1-.003.006v.001a.015.015 0 0 1-.012.005h-5.478a.015.015 0 0 0-.012.015v5.792a.015.015 0 0 0 .004.01.016.016 0 0 0 .011.005h4.097c.004 0 .008.002.01.005a.017.017 0 0 1 .004.006l.001.003V9.19a.015.015 0 0 1-.015.016h-4.097a.015.015 0 0 0-.013.008l-.002.002v.005ZM47.525 17.357V1.826c0-.003 0-.005.002-.007l.001-.003h.001v-.002a.016.016 0 0 1 .012-.004h3.48a.016.016 0 0 0 .012-.005.017.017 0 0 0 .005-.012V.253a.016.016 0 0 0-.005-.011.016.016 0 0 0-.011-.005h-8.856a.016.016 0 0 0-.012.005.016.016 0 0 0-.005.011v1.54a.016.016 0 0 0 .01.015.019.019 0 0 0 .007.002H45.653v.001c.002 0 .004.002.005.003l.001.002.002.002v.001l.001.003v15.535c0 .004.002.008.005.011a.016.016 0 0 0 .012.005h1.832a.016.016 0 0 0 .007-.003l.002-.002.003-.003.002-.004v-.004ZM66.751 1.815l-.001.002a.026.026 0 0 0-.008.018v5.75c0 .01.004.019.01.026.007.006.016.01.025.01.05.003.097.005.142.005a363.653 363.653 0 0 0 4.22.006.031.031 0 0 1 .02.029v1.517a.027.027 0 0 1-.004.015v.001l-.002.001-.001.002a.027.027 0 0 1-.019.008h-4.36a.03.03 0 0 0-.022.009.03.03 0 0 0-.009.021v6.514a.041.041 0 0 0 .012.03.042.042 0 0 0 .03.012h6.193c.003 0 .005 0 .007.002h.003a.026.026 0 0 1 .009.006.027.027 0 0 1 .007.019v1.525c0 .02-.01.03-.03.03h-8.067a.027.027 0 0 1-.019-.008.026.026 0 0 1-.007-.019V.248a.018.018 0 0 1 .017-.011H72.694l.003.001a.034.034 0 0 1 .019.013.034.034 0 0 1 .006.02v1.512a.025.025 0 0 1-.007.018.026.026 0 0 1-.018.008h-5.928a.027.027 0 0 0-.015.005l-.002.001ZM83.49 1.807V.237h-8.836c-.028 0-.042.014-.042.042v1.495a.035.035 0 0 0 .034.035h3.46a.018.018 0 0 1 .013.005.018.018 0 0 1 .006.013v15.51c0 .006 0 .01.003.015a.034.034 0 0 0 .016.017c.005.003.01.004.015.004h1.792c.024 0 .035-.012.035-.035V1.837a.027.027 0 0 1 .027-.027l3.478-.003Z" fill="#fff"/><path fill-rule="evenodd" clip-rule="evenodd" d="M.51 2.696v.49c.062.807.386 1.459.971 1.955 1.717 1.455 4.54.587 4.865-1.737.144-1.035-.174-2.049-.993-2.715A2.921 2.921 0 0 0 3.629.02c-.821-.044-1.54.194-2.154.715C.894 1.229.562 1.93.51 2.696Zm1.716 1.151c-.349-.452-.363-1.114-.133-1.618a.959.959 0 0 1 .069-.124c.183-.28.515-.497.811-.586.807-.241 1.757.176 1.93 1.05.102.511.01 1.052-.37 1.418-.595.577-1.525.568-2.136.04a1.228 1.228 0 0 1-.17-.18ZM24.523 0h.596c.168.015.335.037.5.065 2.461.42 3.398 2.91 3.764 5.053.256 1.503.309 3.08.261 4.634-.03.955-.114 1.854-.255 2.698-.265 1.587-.842 3.418-2.195 4.422-.595.442-1.3.684-2.116.728-1.24.065-2.366-.314-3.21-1.24-.528-.577-.908-1.312-1.167-2.067-.335-.976-.524-2.014-.622-3.041a27.841 27.841 0 0 1-.091-3.51c.03-.928.119-1.822.267-2.683.37-2.153 1.331-4.603 3.801-5.005.126-.02.282-.038.467-.054Zm2.502 14.382a7.09 7.09 0 0 0 .42-1.359c.123-.589.21-1.195.26-1.818.11-1.347.119-2.72.05-4.1a18.42 18.42 0 0 0-.205-1.972 8.983 8.983 0 0 0-.4-1.601c-.312-.877-.871-1.719-1.841-1.913a2.566 2.566 0 0 0-.834-.025c-1.06.135-1.647.982-1.99 1.91a6.34 6.34 0 0 0-.132.402c-.256.87-.39 1.841-.456 2.787a33.236 33.236 0 0 0-.032 3.683 18.428 18.428 0 0 0 .275 2.446c.228 1.181.715 2.724 1.977 3.11.084.026.172.047.263.062.651.107 1.308-.011 1.817-.436.365-.305.635-.73.828-1.176Z" fill="#fff"/><path d="M2.703 7.23a3.112 3.112 0 0 0 1.574-.044.024.024 0 0 1 .015.01l.001.002a.024.024 0 0 1 .003.007V17.38c0 .017-.009.026-.026.026l-1.741.001a.023.023 0 0 1-.01-.002.023.023 0 0 1-.01-.008l-.002-.002a.025.025 0 0 1-.004-.013V7.201a.013.013 0 0 1 .005-.011.014.014 0 0 1 .012-.003l.183.043Z" fill="#fff"/><path fill-rule="evenodd" clip-rule="evenodd" d="m59.015 8.284.001-.006.003-.003a.049.049 0 0 1 .003-.005l.002-.002.002-.002a.049.049 0 0 1 .017-.01l.107-.04.152-.056a3.371 3.371 0 0 0 1.571-1.163c.812-1.09.894-2.653.578-3.923-.303-1.216-1.13-2.197-2.335-2.601a4.424 4.424 0 0 0-1.412-.236h-4.666c-.01 0-.016.005-.016.016v17.084a.033.033 0 0 0 .014.027l.002.002.003.001.015.004c1.134.004 2.271.004 3.41-.002 1.228-.006 2.48-.138 3.553-.738 1.217-.681 1.796-1.843 1.939-3.2.1-.952.04-1.969-.305-2.84-.42-1.06-1.175-1.786-2.268-2.178a5.619 5.619 0 0 0-.366-.118.01.01 0 0 1-.002-.002l-.001-.003a.015.015 0 0 1-.001-.006Zm-1.253-6.406c.774.119 1.446.43 1.763 1.178.175.414.226.86.233 1.325.008.663-.072 1.319-.382 1.876-.34.613-.938.966-1.62 1.137a6.188 6.188 0 0 1-1.287.179c-.495.018-1.016.022-1.563.012h-.002a.031.031 0 0 1-.02-.01l-.002-.002a.031.031 0 0 1-.006-.02V1.834c0-.006.003-.012.007-.017l.002-.001a.024.024 0 0 1 .015-.006h.135c.668-.002 1.303-.001 1.905.002.272.002.546.024.822.066Zm-.849 7.286a122.55 122.55 0 0 0-2.019 0 .024.024 0 0 0-.018.023v6.552c0 .009.003.018.008.025l.002.003a.044.044 0 0 0 .027.015l.01.002.014.002.012.001.017.002.024.002h.032c.573 0 1.14 0 1.7.002.175 0 .35-.005.522-.019 1.206-.093 2.313-.556 2.718-1.863l.025-.082.004-.017.007-.023c.078-.286.123-.587.135-.903a7.8 7.8 0 0 0 .005-.247c.008-1.239-.3-2.517-1.5-3.103a3.714 3.714 0 0 0-1.055-.317 4.602 4.602 0 0 0-.67-.055Z" fill="#fff"/><path d="M20.521 28h-.445c-.506-.043-1.067-.235-1.393-.639-.186-.23-.134-.495.16-.586a.024.024 0 0 1 .025.006.022.022 0 0 1 .004.005c.377.624 1.048.874 1.753.754.419-.071.756-.303.802-.757.059-.587-.503-.825-.965-.934-.26-.061-.511-.127-.752-.197-.392-.114-.79-.347-.928-.742-.34-.965.397-1.697 1.314-1.762.56-.04 1.2.088 1.589.499.205.218.199.515-.12.611-.016.005-.03 0-.038-.014a1.36 1.36 0 0 0-.807-.606c-.462-.132-1.082-.072-1.392.343a.692.692 0 0 0-.135.353c-.05.502.294.742.73.851.263.067.524.134.785.203.53.14 1.063.419 1.183.99.17.806-.317 1.421-1.093 1.577a8.201 8.201 0 0 1-.276.045ZM23.766 23.197h.115c.106 0 .193.086.193.192v4.367a.193.193 0 0 1-.193.192h-.115a.192.192 0 0 1-.193-.192v-4.367c0-.106.087-.192.193-.192ZM26.45 23.87c.007 1.287.008 2.59.003 3.91a.15.15 0 0 1-.077.136.37.37 0 0 1-.197.036c-.137-.005-.206-.08-.206-.226l-.003-4.084a.7.7 0 0 1 .035-.265c.094-.204.394-.205.586-.164.124.027.194.138.245.25l1.261 2.8a.01.01 0 0 0 .004.005h.002l.004.001a.01.01 0 0 0 .006-.001 2112.667 2112.667 0 0 0 1.294-2.847c.046-.1.132-.192.246-.212.233-.04.579-.012.579.297-.001 1.38-.002 2.796 0 4.244 0 .182-.145.21-.294.198-.134-.012-.181-.087-.181-.207a1354.15 1354.15 0 0 1 0-3.891c0-.047-.01-.05-.029-.007-.422.92-.83 1.806-1.224 2.655-.086.188-.237.273-.451.257-.223-.018-.305-.141-.4-.348-.382-.832-.77-1.681-1.165-2.546-.026-.055-.038-.052-.038.009ZM39.593 27.456h-2.275c-.016 0-.025-.008-.025-.025v-3.98c0-.128-.04-.238-.178-.252-.155-.017-.324-.002-.324.2.002 1.41.002 2.819 0 4.228-.001.228.159.297.362.296.853-.003 1.648-.003 2.385 0 .124 0 .239-.073.232-.206a.573.573 0 0 1 0-.064.183.183 0 0 0-.177-.197ZM42.722 25.49c.429-.666.87-1.357 1.323-2.072.066-.106.126-.17.177-.193.135-.06.262-.024.38.111a.081.081 0 0 1 .008.098l-1.63 2.5a.15.15 0 0 0-.024.082c.003.614.002 1.192 0 1.736-.002.182-.163.208-.307.196-.128-.01-.192-.08-.192-.209v-1.697a.237.237 0 0 0-.039-.13l-1.62-2.482a.068.068 0 0 1-.003-.068c.1-.19.396-.234.524-.033a877.389 877.389 0 0 1 1.387 2.165h.003a.013.013 0 0 0 .008 0 .014.014 0 0 0 .005-.004ZM55.442 27.453a607.308 607.308 0 0 1-2.279 0l-.002-.001-.001-.002a.016.016 0 0 1-.006-.011v-4.037c0-.2-.182-.226-.335-.202-.11.017-.165.082-.165.195v4.223c0 .184.116.303.29.303.772 0 1.584 0 2.437.002a.403.403 0 0 0 .063-.004.313.313 0 0 0 .085-.025c.176-.08.157-.441-.087-.44ZM63.696 25.49a.014.014 0 0 0 .005.004l.002.001a.014.014 0 0 0 .012-.001 1648.063 1648.063 0 0 0 1.368-2.139.362.362 0 0 1 .157-.138c.134-.06.31.022.372.144.023.047-.008.077-.031.114l-1.614 2.474a.112.112 0 0 0-.018.063v1.75c-.002.166-.144.192-.276.189-.209-.006-.224-.128-.224-.309a501.47 501.47 0 0 1 0-1.637.129.129 0 0 0-.021-.07l-1.623-2.49c-.075-.114.114-.222.2-.24.204-.044.282.079.388.246l.009.014.02.033c.422.652.846 1.316 1.274 1.991Z" fill="#fff"/><path fill-rule="evenodd" clip-rule="evenodd" d="M32.567 26.121v1.586c0 .123-.053.2-.16.233a.217.217 0 0 1-.041.007.676.676 0 0 1-.096 0l-.025-.001c-.111-.005-.18-.083-.18-.19.002-1.44.002-2.86 0-4.257a.26.26 0 0 1 .259-.268c.466-.001.92 0 1.36.001.61.003 1.274.26 1.495.874.096.264.118.547.068.85-.141.847-.89 1.129-1.667 1.137-.32.003-.649.003-.985 0-.019 0-.028.01-.028.028Zm0-.481a.01.01 0 0 0 .003.006l.003.002.002.001H33.744c.267 0 .525-.095.714-.265a.86.86 0 0 0 .296-.64v-.158a.86.86 0 0 0-.296-.64 1.073 1.073 0 0 0-.714-.265H32.573l-.001.001h-.001v.001h-.001l-.002.004V25.64ZM48.439 27.707v-1.586c0-.019.01-.028.028-.028.336.003.664.003.985 0 .776-.008 1.526-.29 1.666-1.137.05-.303.028-.586-.067-.85-.222-.614-.885-.87-1.495-.874-.44-.002-.894-.002-1.36-.001a.26.26 0 0 0-.258.268v4.257c0 .107.068.185.179.19h.024a.429.429 0 0 0 .138-.006c.106-.033.16-.11.16-.233Zm.003-2.06a.01.01 0 0 1-.003-.007V23.687l.003-.003v-.001l.003-.001.003-.001h1.167c.268 0 .525.095.714.265.19.17.297.4.297.64v.158a.86.86 0 0 1-.296.64c-.19.17-.447.265-.715.265h-1.167a.01.01 0 0 1-.003 0l-.002-.001-.001-.002ZM59.759 26.393h-1.967c-.014 0-.023.006-.028.02l-.499 1.31c-.074.194-.208.262-.403.203a.366.366 0 0 1-.154-.091.036.036 0 0 1-.009-.043l1.716-4.431a.271.271 0 0 1 .235-.17c.188-.018.433-.031.514.18l1.709 4.412a.054.054 0 0 1-.005.048.054.054 0 0 1-.008.01c-.125.127-.349.145-.474.031a.576.576 0 0 1-.126-.22c-.16-.43-.316-.841-.468-1.236a.033.033 0 0 0-.033-.023Zm-1.81-.468a.012.012 0 0 0 0 .007c0 .002 0 .004.002.006a.012.012 0 0 0 .005.004.013.013 0 0 0 .006.001l1.63.003c.002 0 .005 0 .006-.002h.001a.01.01 0 0 0 .004-.004l.002-.003V25.928l-.812-2.135v-.001l-.002-.002-.003-.003h-.002l-.002-.002h-.003c-.003 0-.005 0-.008.002a.013.013 0 0 0-.004.006l-.82 2.133Z" fill="#fff"/></svg>