<svg width="90" height="38" fill="none" xmlns="http://www.w3.org/2000/svg"><g clip-path="url(#a)"><path fill-rule="evenodd" clip-rule="evenodd" d="M41.537 2.393C40.299 1.03 38.716.297 36.787.19c-.825.156-1.876.677-3.155 1.563l-.749-.096c-.165-.022-.235.049-.212.211.032.206-.063.316-.283.33-1.37.093-2.516 1.871-3.104 2.914-.103.182-.061.224.125.126.127-.065.25-.131.37-.2.193-.108.265-.055.215.16a3.25 3.25 0 0 1-1.227 1.922c-.609.13-1.233.235-1.87.32-.429.056-.66.279-.696.666a.36.36 0 0 1-.212.308c-.884.445-1.648 1.13-2.29 2.054-.08.115-.05.158.085.13a.175.175 0 0 1 .13.02c.112.063.149.154.11.273-.284.884-.846.962-1.44 1.043-.38.053-.773.107-1.115.373-.51.4-1.017.81-1.524 1.234-.165.138-.143.176.065.114.298-.093.605-.198.92-.315.056-.02.096-.003.123.05.026.053.014.093-.036.122a12.546 12.546 0 0 0-2.99 2.348.825.825 0 0 1-.312.212.811.811 0 0 0-.42.347c-.107.175-.073.207.101.097.187-.117.39-.204.613-.262.218-.055.242-.01.072.133l-2.563 2.172-2.111.205c1.003-.629 1.825-1.248 2.466-1.857.442-.423.406-.469-.108-.136-.676.435-1.422.92-2.237 1.459-.197.129-.28.297-.308.516a.403.403 0 0 1-.068.175.395.395 0 0 1-.147.115c-1.56.77-2.449 2.104-2.732 3.814a.514.514 0 0 1-.262.377c-.588.341-1.06.744-1.416 1.208-.208.272-.175.307.097.104.437-.323.877-.681 1.32-1.076a.115.115 0 0 1 .19.083c.08 3.154 1.653 4.832 4.717 5.033a10.724 10.724 0 0 0 4.194-.545c.075-.024.104-.074.09-.15l-.416-2.162c-.012-.062-.048-.085-.107-.068-1.628.462-3.793.921-4.919-.642a.244.244 0 0 1 .108-.37 1.09 1.09 0 0 1 .369-.078c.14-.007.16.038.057.136a.256.256 0 0 0-.079.294.158.158 0 0 0 .11.105.165.165 0 0 0 .152-.033c.337-.292.747-.435 1.23-.43 1.257.01 2.508.012 3.753.007.134 0 .203-.067.208-.201l.068-1.409a.313.313 0 0 1 .14-.254l1.434-.968c.026-.02.038-.03.036-.033l-.05-.078c-.008-.012-.017-.015-.03-.008-.484.249-.959.491-1.422.728-.117.06-.185.024-.205-.107a4.734 4.734 0 0 0-.774-2.012c-.079-.117-.057-.21.064-.28l1.108-.64c.105-.063.097-.1-.025-.112a.594.594 0 0 0-.33.09c-.74.583-1.454.487-2.14-.287l3.886-1.696c.26-.114.299-.064.115.151l-.1.122c-.12.139-.089.223.093.254a.967.967 0 0 0 .33-.007c.207.266.236.484.086.656a.249.249 0 0 1-.186.086l-.843.008c-.127 0-.194.063-.201.19l-.082 1.433c-.462.194-.786.45-.972.768-.088.153-.057.183.093.09l.94-.596c-.18.49.177.712 1.071.667.139-.007.208.058.208.197-.01 1.174-.018 2.286-.025 3.338-.007 1.15.233 2.782 1.337 3.38 1.169.635 2.635.52 3.933.305a.36.36 0 0 0 .297-.351v-2.072c0-.117-.058-.182-.175-.194a1.923 1.923 0 0 0-.506.04c-.24.04-.47.08-.72-.03-.423-.186-.64-.513-.649-.982a111.197 111.197 0 0 1-.025-3.488c.002-.126.067-.19.194-.19h1.788c.12 0 .178-.058.176-.175l-.007-1.441a.453.453 0 0 1 .24-.405l.936-.492a.402.402 0 0 0 .036-.021l-.054-.079c-.007-.012-.018-.016-.033-.01-.255.135-.498.266-.727.39a.277.277 0 0 1-.337-.036 1.498 1.498 0 0 1-.344-.427c.485-.274.916-.556 1.294-.846.215-.167.196-.2-.058-.1a8.063 8.063 0 0 0-1.552.846c-.43.24-.882.335-1.355.287-.129-.014-.191-.086-.186-.215l.057-1.226c.968.076 1.816-.147 2.545-.67a7.975 7.975 0 0 1 1.011-.588c.366-.185.67-.453.91-.807.792.053 1.41-.035 1.854-.262.34-.172.633-.514.882-1.025.067-.141.17-.178.312-.111.284.138.56.282.825.43.813.452 1.52-.606 1.82-1.183.14-.275.327-.491.563-.649.158-.1.227-.059.208.126l-.04.383c-.016.155.051.208.202.158l.566-.194a.84.84 0 0 1 .37-.04c.673.07 1.132-.2 1.376-.81a.193.193 0 0 1 .172-.12c.025 0 .049.004.072.013.083.034.117.096.1.187-.038.205.02.237.172.096a10.244 10.244 0 0 1 2.065-1.455c.973-1.248 1.51-2.597 1.61-4.048.107-1.553-.417-2.967-1.574-4.24ZM29.596 9.824c-.634.074-.881-.112-.742-.56a4.4 4.4 0 0 1 .129.098c.506-.56.994-1.003 1.462-1.33.199-.137.348-.382.448-.735.186-.633.71-1.111 1.189-1.548l.141-.13c.139-.127.116-.212-.068-.255a.196.196 0 0 1-.086-.05.168.168 0 0 1-.05-.14.362.362 0 0 1 .176-.276.437.437 0 0 0 .215-.412l-.011-.233a.39.39 0 0 1 .136-.319c.234-.205.444-.423.628-.652.122-.151.176-.13.165.064-.003.036.017.06.06.072.041.012.047.032.018.06-.652.73-.935 1.557-.85 2.482-.13 1.328.117 2.397.743 3.205.22.763.635.875 1.1 1 .328.089.683.184 1.011.523-.64.212-1.213.105-1.717-.323a.52.52 0 0 0-.319-.129l-.645-.043a.535.535 0 0 1-.316-.132 2.824 2.824 0 0 0-1.25-.664.56.56 0 0 0-.345.026c-.576.24-.983.375-1.222.401Zm5.623-7.778c-.537.227-.975.412-1.436.884-.21-.045-.188-.16.068-.344.442-.318.904-.61 1.387-.875a2.65 2.65 0 0 1 1.778-.304c-.317-.031-.486-.044-.505-.036-.425.198-.405.324.06.376.39.043.707-.013.95-.168.175-.11.273-.061.295.147.002.023.01.045.021.064.06.132.16.206.301.222.333.041.665.098.997.172.048.012.085.04.111.083.098.172.05.254-.147.247a1.41 1.41 0 0 0-.713.147c-.15.08-.217.201-.197.366a.3.3 0 0 0 .09.182c.051.047.117.076.186.08.294.016.576.08.846.19a.546.546 0 0 1 .294.276l.43.896a.318.318 0 0 1-.075.376l-.28.248c-.18.16-.322.132-.427-.083l-.19-.39a.625.625 0 0 0-.477-.345 1.547 1.547 0 0 0-.47.015c-.2.038-.28.157-.24.358.06.296.153.539.277.728.067.1.159.159.276.176.246.033.387.156.423.369a.16.16 0 0 1-.054.13.076.076 0 0 1-.029.017.089.089 0 0 1-.035.004c-1.03-.175-1.403-.72-1.119-1.635.04-.124.127-.187.258-.187l.94.008c.093 0 .133-.046.121-.137l-.01-.11a.214.214 0 0 0-.176-.19 2.886 2.886 0 0 0-1.072 0 .484.484 0 0 0-.255.136c-.564.566-1.387.915-2.47 1.046-.24.029-.283-.049-.125-.233.11-.128.233-.205.35-.278.18-.112.349-.217.442-.492a.26.26 0 0 1 .18-.173c.133-.038.2-.126.197-.265-.003-.11-.058-.18-.165-.208-.313-.076-.436-.272-.37-.588.075-.353.266-.639.574-.856.203-.141.184-.236-.057-.284a.451.451 0 0 0-.276.029c-.17.078-.33.145-.481.209Zm3.884 4.573c-.024.273-.184.385-.48.337-.15-.025-.256-.09-.361-.154-.071-.043-.142-.086-.227-.118a.42.42 0 0 0-.377.036.56.56 0 0 1-.333.086c-.139-.007-.218-.08-.237-.215l-.176-1.122c-.023-.153-.113-.224-.268-.212-.345.029-.558.157-.642.384-.115.31-.257.593-.427.85a.314.314 0 0 0-.04.279c.163.53.505.8 1.026.81a.197.197 0 0 1 .144.326l-.735.85a.368.368 0 0 1-.502.05 1.205 1.205 0 0 0-.735-.247c-.172 0-.24.083-.205.25.039.17.125.305.259.406.117.086.303.116.559.09.6-.06.988.017 1.165.232.184.148.45.12.796-.086a.314.314 0 0 0 .161-.333l-.054-.456c-.021-.174.05-.291.215-.351.37-.129.668-.345.893-.649a.535.535 0 0 1 .398-.222c.246-.024.426-.158.541-.402a.255.255 0 0 0-.028-.283c-.067-.083-.177-.129-.33-.136Zm-1.825-3.836c-.28.557-.697.638-1.251.244a.362.362 0 0 1-.143-.368.354.354 0 0 1 .28-.274 1.8 1.8 0 0 1 .989.076c.16.062.202.17.125.322Zm-8.822 1.38-3.17 1.838a.093.093 0 0 0-.034.127l.022.038c.025.044.083.06.127.034l3.17-1.838a.093.093 0 0 0 .034-.127l-.022-.037a.093.093 0 0 0-.127-.034Zm-3.449 3.172-2.86 1.822a.118.118 0 0 0-.036.163l.015.025a.118.118 0 0 0 .163.036l2.86-1.822a.118.118 0 0 0 .037-.164l-.016-.024a.118.118 0 0 0-.163-.036Zm-7.074 5.518 5.7-3.702a.097.097 0 0 1 .135.029l.031.048a.097.097 0 0 1-.028.134l-5.7 3.702a.097.097 0 0 1-.135-.029l-.031-.048a.097.097 0 0 1 .028-.134Zm-2.996 3.19a.022.022 0 0 1-.013.003.02.02 0 0 1-.01-.003.023.023 0 0 1-.006-.006l-.082-.13c-.027-.046.303-.325.92-.774a60.922 60.922 0 0 1 2.367-1.62l.13-.086a75.87 75.87 0 0 1 1.311-.84c.419-.262.803-.495 1.129-.686.326-.19.589-.335.773-.426.184-.09.286-.125.3-.102l.082.129a.022.022 0 0 1-.007.028l-6.89 4.51a.023.023 0 0 1-.004.003Zm2.781-.698c.438-.324.76-.631.718-.687-.041-.056-.43.162-.867.486-.438.323-.76.631-.718.687.041.056.43-.162.867-.486ZM4.856 23.472c.01 2.18-1.204 2.796-3.456 2.108-.043-.015-.069 0-.079.046-.265 1.37-.386 2.238-.362 2.606.003.017.011.027.025.03a8.94 8.94 0 0 0 4.388.089c1.589-.362 2.349-1.42 2.79-2.911.097-.332.148-.667.15-1.004.043-3.752.049-6.968.018-9.647 0-.057-.03-.086-.09-.086l-3.294-.004a.093.093 0 0 0-.093.094c-.008 3.059-.006 5.952.003 8.679Zm30.554-.08h1.793c.179 0 .269.09.269.27v1.72c0 .309-.153.474-.46.495-2.695.191-4.287-.914-4.774-3.316-.201-.982-.03-1.99.512-3.026.882-1.684 2.908-2.394 4.7-2.057.696.129 1.372.317 2.03.566a.29.29 0 0 0 .232-.014.283.283 0 0 0 .144-.18l.584-2.226c.043-.16-.013-.271-.168-.333a6.896 6.896 0 0 0-.915-.276 12.548 12.548 0 0 0-5.746.043c-.928.225-1.825.65-2.693 1.276-.788.571-1.349 1.28-1.68 2.126-1.675 4.262-.567 8.948 4.44 9.916 2.14.41 4.463.258 6.97-.46.146-.042.218-.139.218-.29v-6.614c0-.145-.072-.218-.218-.218H35.41a.09.09 0 0 0-.09.09v2.42c.003.059.033.089.09.089Zm-19.509-1.924a1.942 1.942 0 0 1-.548.322c-.128.05-.246.123-.348.215-.282.26-.629.4-1.04.42-.255.012-.333-.1-.233-.334.476-1.09 1.188-1.392 2.137-.907.153.08.164.174.032.284Zm-.516.835c.031-.053.068-.059.111-.018.024.021.048.021.072 0l.366-.344c.112-.108.222-.104.33.01.069.072.113.167.132.284.021.131-.033.196-.165.193l-.774-.003c-.091-.003-.115-.043-.072-.122Zm32.458-.437c.241-.01.285-.11.132-.298-.167-.2-.36-.36-.58-.477a1.763 1.763 0 0 0-1.094-.183 7.657 7.657 0 0 0-2.269.689.317.317 0 0 1-.262.005.307.307 0 0 1-.172-.195l-.473-1.603a.384.384 0 0 1 .233-.466c1.931-.717 3.766-.88 5.503-.49 2.258.501 2.864 2.344 2.778 4.409-.067 1.63-.04 3.34.08 5.133.009.13-.052.194-.184.194l-2.864.003c-.117 0-.187-.058-.208-.175l-.057-.359c-.024-.136-.094-.167-.208-.093-1.27.825-3.553.982-4.822-.143-1.377-1.223-1.251-3.36-.007-4.56 1.133-1.097 2.925-1.33 4.474-1.391Zm.304 2.502a.53.53 0 0 1 .036-.237.05.05 0 0 0 0-.05.05.05 0 0 0-.043-.025c-1.001-.055-1.72.235-2.154.871a.572.572 0 0 0-.065.552c.196.528.527.748.993.66.913-.17 1.324-.76 1.233-1.771Zm18.689-5.456c-1.65-.598-3.092-.329-4.327.806-.127.115-.24.105-.34-.029-1.008-1.362-3.858-1.38-5.056-.362-.08.07-.168.128-.261.176-.16.086-.236.038-.226-.143l.029-.53c.004-.125-.054-.187-.176-.187h-2.707c-.127 0-.19.063-.19.19l.032 9.625c0 .086.044.13.13.13l3.187-.004a.165.165 0 0 0 .164-.162c.003-1.794.002-3.605-.003-5.43-.003-.546.218-1.001.663-1.367 1.015-.838 1.835.38 1.843 1.284.014 1.792.016 3.65.007 5.574 0 .07.033.104.1.104h3.31c.052 0 .078-.026.078-.079.007-1.794.004-3.61-.01-5.449a1.94 1.94 0 0 1 .709-1.552.71.71 0 0 1 .907.022c.413.358.623.823.627 1.394.022 1.876.027 3.73.015 5.564 0 .067.032.1.097.1h3.312c.052 0 .079-.027.079-.082.005-1.87.002-3.812-.007-5.83-.004-1.451-.506-3.226-1.986-3.763Zm7.295 5.729c-.191 0-.247.087-.169.261.144.32.361.571.653.753.416.263.87.401 1.362.416a9.072 9.072 0 0 0 2.943-.427.056.056 0 0 1 .066.02.056.056 0 0 1 .01.023c.17.736.31 1.484.423 2.244a.11.11 0 0 1-.017.078.117.117 0 0 1-.066.048c-3.95 1.169-8.876.85-8.872-4.488 0-2.302 1.448-4.395 3.803-4.808 3.93-.692 6.159 1.818 5.614 5.697-.017.124-.087.186-.211.186l-5.54-.003Zm-.061-2.212 2.423-.015a.09.09 0 0 0 .09-.09v-.064a1.263 1.263 0 0 0-.385-.903 1.3 1.3 0 0 0-.92-.37h-.007a1.307 1.307 0 0 0-.916.38 1.27 1.27 0 0 0-.375.907v.065a.09.09 0 0 0 .09.09Zm11.974-.076a4.579 4.579 0 0 1-1.19-.52.427.427 0 0 1-.198-.406.418.418 0 0 1 .28-.35c.748-.26 1.558-.159 2.43.305.354.186.584.086.689-.302l.39-1.466c.08-.3-.03-.493-.33-.577-1.942-.555-5.456-.753-6.513 1.301-.8 1.554-.453 2.816 1.043 3.786.43.28.912.44 1.397.6.42.138.842.277 1.234.497a.43.43 0 0 1 .047.724c-.896.656-2.441.036-3.363-.38-.272-.124-.444-.04-.516.251l-.43 1.717c-.072.287.032.475.312.563 2.663.84 8.03 1.04 7.543-3.205-.162-1.426-1.567-2.183-2.825-2.538Zm-54.102 15.31a1.936 1.936 0 0 1-.797-.231 2.118 2.118 0 0 1-.653-.554c-.182-.231-.321-.5-.41-.792a2.587 2.587 0 0 1 .117-1.8 2.39 2.39 0 0 1 .508-.732 2.12 2.12 0 0 1 .719-.465 1.935 1.935 0 0 1 1.618.105c.249.134.47.322.653.553.182.231.321.5.409.792a2.587 2.587 0 0 1-.117 1.8 2.386 2.386 0 0 1-.507.732c-.21.206-.455.364-.72.465a1.935 1.935 0 0 1-.82.127Zm.146-.511c.191 0 .381-.047.559-.138.177-.092.338-.227.474-.397.136-.17.245-.373.319-.596a2.26 2.26 0 0 0 .005-1.407 1.928 1.928 0 0 0-.315-.598 1.488 1.488 0 0 0-.471-.4 1.202 1.202 0 0 0-.558-.142c-.192-.001-.382.046-.56.138a1.488 1.488 0 0 0-.474.397c-.136.17-.244.372-.318.595a2.263 2.263 0 0 0-.005 1.408c.072.223.18.426.314.597.135.172.295.308.472.4.177.094.366.142.558.143Zm5.75.272c-.113-.693-.348-1.29-.707-1.789-.04-.055-.033-.102.022-.143.511-.373.705-.869.58-1.488-.23-1.15-1.695-1.115-2.57-.964-.131.021-.197.099-.197.233l-.004 4.19c0 .123.06.182.18.18l.336-.007c.1 0 .15-.05.147-.15l-.028-1.435c0-.112.055-.178.165-.197.817-.15 1.26.295 1.33 1.337a.48.48 0 0 0 .394.441c.045.01.09.017.136.022.172.023.244-.053.215-.23Zm-2.234-2.258.007-1.506a.158.158 0 0 1 .158-.158l.47.004a.927.927 0 0 1 .62.236.76.76 0 0 1 .254.563v.23a.732.732 0 0 1-.068.304.795.795 0 0 1-.192.258.89.89 0 0 1-.285.17.959.959 0 0 1-.337.06l-.47-.004a.158.158 0 0 1-.157-.157Zm3.172-2.18h-.394a.126.126 0 0 0-.125.126l.007 4.395c0 .07.057.126.126.125h.394c.07 0 .126-.057.126-.126l-.008-4.395a.126.126 0 0 0-.126-.125Zm2.9 2.574c.106.304.374.39.804.258.03-.01.05.001.057.032.077.282.086.64.029 1.072a.16.16 0 0 1-.048.098.167.167 0 0 1-.1.046c-1.495.167-2.201-.424-2.118-1.775.091-1.438.918-1.982 2.48-1.63a.168.168 0 0 0 .198-.116l.065-.2a.164.164 0 0 0-.011-.123.155.155 0 0 0-.093-.078c-1.08-.335-1.955-.161-2.624.52-.9.914-.961 2.72.078 3.517.639.49 1.506.583 2.603.28.141-.04.212-.131.212-.277V35.54c-.003-.149-.077-.221-.223-.22l-1.147.015a.172.172 0 0 0-.161.226Zm2.84-2.574h-.394a.13.13 0 0 0-.13.129l-.007 4.388c0 .07.058.129.129.129h.394c.072 0 .13-.057.13-.128l.007-4.388a.13.13 0 0 0-.129-.13Zm1.563 4.52-.018-3.265c-.002-.167.04-.18.126-.036l1.932 3.262a.34.34 0 0 0 .218.165.687.687 0 0 0 .312.007c.134-.028.201-.11.201-.243v-4.234c0-.117-.058-.176-.175-.176l-.276-.003c-.125 0-.186.062-.183.186l.035 3.123c.003.203-.046.215-.146.035a94.714 94.714 0 0 0-1.865-3.158.375.375 0 0 0-.2-.165.68.68 0 0 0-.42-.003c-.112.035-.168.113-.168.233l.003 4.226c0 .112.056.17.169.172l.319.011c.093 0 .138-.045.136-.136Zm4.478-.931-.327.853a.29.29 0 0 1-.276.2l-.222.015a.143.143 0 0 1-.125-.056.152.152 0 0 1-.026-.138l1.384-4.266a.257.257 0 0 1 .197-.186.97.97 0 0 1 .38-.01.32.32 0 0 1 .276.236l1.366 4.23c.04.122-.003.184-.132.186l-.27.004c-.135.002-.227-.061-.275-.19l-.32-.878a.274.274 0 0 0-.279-.198l-1.068.004a.28.28 0 0 0-.283.194Zm1.362-.886-.455-1.627c-.058-.206-.116-.207-.176-.004l-.452 1.545c-.048.165.014.247.187.247h.774c.11 0 .15-.053.122-.16Zm4.119 1.402-1.599-.004a.114.114 0 0 1-.106-.07.116.116 0 0 1-.009-.045l-.003-3.875a.115.115 0 0 0-.115-.115l-.42.004a.115.115 0 0 0-.114.115v4.427a.115.115 0 0 0 .114.115l2.255-.004a.115.115 0 0 0 .115-.118l-.003-.32a.115.115 0 0 0-.115-.11Zm1.878-2.27c.492.216 1.112.492 1.302 1.03.559 1.58-1.18 2.054-2.366 1.555-.055-.021-.077-.062-.065-.121l.061-.352a.088.088 0 0 1 .017-.04.094.094 0 0 1 .12-.028c.49.255 1.376.477 1.641-.208a.781.781 0 0 0-.408-1 5.374 5.374 0 0 1-.81-.459c-1.514-1.04.136-2.696 1.609-2.025.112.05.144.132.097.247l-.043.093c-.062.141-.165.183-.309.126a1.708 1.708 0 0 0-.666-.119c-.739.018-.825 1.018-.18 1.302Z" fill="#fff"/></g><defs><clipPath id="a"><path fill="#fff" transform="translate(.906 .001)" d="M0 0h88.189v38H0z"/></clipPath></defs></svg>