<svg width="80" height="30" fill="none" xmlns="http://www.w3.org/2000/svg"><g clip-path="url(#a)"><path fill-rule="evenodd" clip-rule="evenodd" d="M25.623 9.358a459.274 459.274 0 0 1-6.977-4.073 4.72 4.72 0 0 0-.35-.215c-2.16-1.23-4.315-2.463-6.468-3.7C10.521.619 9.502.188 8.772.078 6.69-.233 5.012.71 3.737 2.91 2.148 3.41 1.266 4.416 1.09 5.93c-.083.725.104 1.846.563 3.363.59 1.954 1.19 3.906 1.797 5.855.053.208.08.418.08.631-.003 2.178-.002 4.336.002 6.476.002 1.16.095 2.02.28 2.58.626 1.886 1.84 3.273 3.982 3.075.82-.14 1.413-.317 1.78-.53l11.117-6.486 1.164-.71c.01-1.65.012-3.296.008-4.94-.006-1.525-.195-2.875-1.857-3.15-1.57-.26-2.773.799-2.776 2.426a1594.66 1594.66 0 0 0 0 7.324c0 .106-.053.159-.158.159h-3.176c-.106 0-.158-.053-.158-.159.005-2.343.006-4.79.002-7.338-.005-2.228-2.349-3.258-3.95-1.817-.707.635-.697 1.725-.69 2.64l.002.221a879.6 879.6 0 0 1 .005 6.286c0 .111-.055.167-.167.167h-3.19c-.092 0-.138-.047-.138-.142V9.335c0-.098.05-.147.147-.147h2.884c.129 0 .19.064.187.192l-.02.66c-.005.175.057.204.187.087 1.91-1.723 5.454-1.757 7.132.448.07.09.146.095.227.014 2.45-2.451 7.12-2.465 8.606 1.154.244.593.373 1.63.388 3.114.011 1.085.011 2.175 0 3.271 1.494-.686 2.482-1.8 2.963-3.34.234-.75.278-1.421.133-2.011-.041-.17-.198-.552-.47-1.147-.711-1.024-1.496-1.782-2.354-2.272Zm-1.69-2.876a112.705 112.705 0 0 0-5.287-1.197 459.275 459.275 0 0 0 6.977 4.073c.858.49 1.643 1.248 2.354 2.272.473-2.887-1.604-4.53-4.044-5.148Zm26.858-3.58h-3.22a.085.085 0 0 0-.085.085v18.86c0 .047.038.085.085.085h3.22a.085.085 0 0 0 .085-.085V2.987a.085.085 0 0 0-.084-.085Zm-15.32 23.403v-5.35c0-.154.057-.178.17-.073 1.212 1.145 2.765 1.565 4.659 1.26 3-.484 4.902-3.275 4.976-6.25.11-4.313-3.122-7.579-7.56-6.62-.943.204-1.733.696-2.369 1.475-.105.129-.157.11-.156-.056V9.573c0-.132-.065-.198-.195-.198h-2.725c-.13 0-.196.065-.196.195v16.769c0 .107.053.161.159.161h3.042c.13 0 .196-.065.196-.195Zm4.39-7.413a3.045 3.045 0 0 1-1.244.27c-.427 0-.85-.09-1.245-.266a3.247 3.247 0 0 1-1.057-.76 3.54 3.54 0 0 1-.707-1.138 3.757 3.757 0 0 1-.004-2.688c.162-.426.401-.814.703-1.14.301-.327.659-.586 1.053-.764a3.045 3.045 0 0 1 1.244-.27c.427 0 .85.09 1.245.266.395.176.754.434 1.057.76.302.325.542.712.706 1.138a3.759 3.759 0 0 1 .005 2.688 3.544 3.544 0 0 1-.703 1.14c-.301.327-.66.587-1.053.764Zm21.598 1.987c-1.724 1.563-5.01 2.001-6.895.224-1.381-1.302-1.457-3.73-.119-5.007.781-.743 1.777-1.146 2.986-1.208a40.937 40.937 0 0 1 3.705-.02c.13.004.2-.059.212-.187.337-3.456-3.82-3.116-5.267-1.237-.21.272-.424.277-.645.014l-1.319-1.573c-.128-.155-.123-.305.017-.45 1.749-1.834 3.839-2.59 6.269-2.267 1.77.234 3.03 1.081 3.781 2.541.432.838.63 2.172.594 4.002-.04 2.112-.04 4.13-.003 6.057.002.111-.052.167-.164.167h-2.824a.152.152 0 0 1-.106-.043.146.146 0 0 1-.044-.104l.003-.83c0-.162-.06-.188-.181-.079Zm-2.879-3.806c-.553.003-.985.137-1.296.401-.835.702-.212 2.095.824 2.216 1.92.227 3.017-.58 3.288-2.422a.172.172 0 0 0-.17-.198c-.835-.006-1.718-.005-2.646.003Zm16.976-7.596-3.162 7.998a.067.067 0 0 1-.064.042.067.067 0 0 1-.063-.045l-2.94-7.93c-.042-.112-.121-.167-.238-.167h-3.213c-.141 0-.184.065-.13.195l4.681 11.508c.02.05.02.107 0 .158-.283.741-.642 1.622-1.31 2.072-.776.522-1.652.452-2.558.38l-.408-.03c-.083-.003-.125.035-.125.117l.003 2.499c0 .164.08.263.24.297 3.137.693 5.446-.207 6.768-3.218 2.022-4.606 4.052-9.23 6.087-13.874a.074.074 0 0 0-.004-.07.073.073 0 0 0-.063-.034h-3.354a.159.159 0 0 0-.147.102ZM13.776 28.47c1.658-1.755 3.964-4.28 6.916-7.576L9.575 27.38c-.367.214-.96.39-1.78.53 1.084 1.548 2.777 2.482 4.61 1.54.576-.297 1.033-.623 1.37-.98Z" fill="#fff"/></g><defs><clipPath id="a"><path fill="#fff" transform="translate(.802 .001)" d="M0 0h78.396v30H0z"/></clipPath></defs></svg>