<svg width="120" height="32" fill="none" xmlns="http://www.w3.org/2000/svg"><path fill-rule="evenodd" clip-rule="evenodd" d="M8.904 10.624 19.534 0l10.701 10.73-.178.144-2.366 2.351-8.075 8.062c-.019.134-.124.091-.316-.13l-5.302-5.287-4.594-4.617c-.103-.183-.205-.28-.305-.289-.052-.024-.097-.078-.137-.163a.091.091 0 0 1-.069-.04c-.035-.049-.031-.095.01-.138Zm10.612-7.166 7.243 7.237-7.264 7.25-7.228-7.215 7.249-7.272Zm4.87 7.45a.451.451 0 0 0 .15-.171.12.12 0 0 0-.032-.134c-1.65-1.64-3.274-3.261-4.873-4.862a.167.167 0 0 0-.11-.05c-.051-.005-.073 0-.066.014l-4.933 4.915c-.055.054-.058.11-.01.17.032.038.082.07.152.096.016.013.025.03.027.05a.063.063 0 0 0 .02.04l4.663 4.663c.058.135.134.157.228.065 1.596-1.6 3.19-3.199 4.785-4.796Zm-4.866 2.109c.506-1.163 1.306-1.935 2.402-2.318-1.185-.44-1.986-1.233-2.402-2.379-.377 1.137-1.167 1.936-2.37 2.398 1.136.387 1.926 1.153 2.37 2.299ZM5.757 23.286l3.2-3.183 3.287 3.31-3.177 3.156c-.054.053-.114.06-.178.019a.312.312 0 0 1-.102-.121l-2.945-2.942a.207.207 0 0 1-.096-.067c-.047-.06-.044-.118.01-.172Zm3.222-1.552c-.307.764-.87 1.33-1.688 1.698.85.285 1.414.846 1.694 1.682.35-.849.936-1.414 1.757-1.696-.56-.233-.994-.563-1.302-.989a9.093 9.093 0 0 1-.46-.695Zm.79-6.097 3.09 3.088 1.93 1.956 2.669 2.75-8.454 8.457.059.113-8.231-8.19-.304-.332a.081.081 0 0 1-.063-.026c-.033-.033-.033-.067 0-.102l8.49-8.504.814.79Zm-.796 12.852 5.099-5.096-5.095-5.116-5.11 5.114 5.106 5.098Zm17.874-5.071 3.27-3.3 3.278 3.29-3.31 3.247-3.238-3.237Zm3.26-1.75c.331.872.917 1.445 1.759 1.72-.818.281-1.407.856-1.767 1.724-.3-.806-.872-1.376-1.717-1.71.842-.346 1.417-.924 1.725-1.735Zm7.88 2.407.687-.66-8.558-8.572-.68.64-1.622 1.655a1047.862 1047.862 0 0 1-6.064 6.051c-.137.136-.136.272.002.409a5.958 5.958 0 0 1-.066-.098l8.4 8.415 1.847-1.794 6.054-6.046ZM25.023 23.4l-3.337.1 3.337-.1Zm0 0 5.105 5.08 5.103-5.093-5.092-5.107-5.116 5.12Zm-5.578 2.054.012.003a.03.03 0 0 0-.012-.003Zm.012.003a.61.61 0 0 1 .27.146l1.833 1.84 4.33 4.326c.087.087.068.13-.054.13l-12.799.002 5.838-5.827.499-.482c.077-.077.105-.122.083-.135Zm22.77-21.455 8.333 8.45c.16.162.24.13.24-.098l-.008-7.659c-.002-.103.049-.155.152-.157l1.437-.01.003 11.714c0 .206-.073.236-.219.09l-3.938-3.951-4.091-4.28c-.172-.183-.259-.149-.259.104l.019 4.09v3.672l-1.13.107a1.45 1.45 0 0 1-.54-.075V4.001Zm68.344 11.821-1.179-4.6-1.835-7.029c-.021-.087-.05-.09-.088-.008l-2.512 5.688c-.346.372-.506.768-.48 1.19l-.536 1.309c-.041.098-.081.098-.122 0l-3.411-8.115c-.08-.188-.147-.184-.2.013l-.84 3.136-2.203 8.544a.066.066 0 0 0 .035.076.067.067 0 0 0 .03.007l1.391-.005c.041 0 .066-.02.075-.059l1.832-7.112c.043-.165.097-.17.163-.013l3.12 7.408a.093.093 0 0 0 .139.043.096.096 0 0 0 .034-.043l3.024-7.168c.117-.278.213-.27.288.021l1.776 6.859c.212.076.498.098.859.066.188.034.369.023.544-.034.085-.029.117-.087.096-.174Zm-29.486-.016c-2.24.992-5.122.808-7.122-.629-1.282-.92-2.097-2.25-2.446-3.99-.288-2.586.642-4.613 2.79-6.082 1.16-.71 2.49-1.02 3.986-.93 1.785.104 3.337.79 4.656 2.058.084.08.085.161.003.243l-.92.91a.18.18 0 0 1-.126.05.185.185 0 0 1-.127-.05c-2.222-2.169-5.811-2.233-7.768.226-1.008 1.264-1.192 3.165-.416 4.605 1.045 1.941 2.776 2.775 5.192 2.501 1.793-.204 2.97-1.116 3.528-2.736.05-.14 0-.21-.15-.21l-2.757.018a.18.18 0 0 1-.125-.051.174.174 0 0 1-.051-.125l.01-1.232c.002-.112.058-.168.169-.168l4.602.008c.098 0 .148.05.15.147.03 2.416-.996 4.229-3.078 5.437Zm9.078-11.744 2.194 4.79 3.158 6.912c.076.17.021.257-.166.258l-1.13.014a.332.332 0 0 1-.331-.21l-1.179-2.598a.23.23 0 0 0-.224-.144l-4.57.005a.254.254 0 0 0-.251.163l-1.163 2.608a.267.267 0 0 1-.261.168l-1.467-.01 3.499-7.886 1.89-4.07ZM88.4 11.628a.103.103 0 0 0 .008.1.104.104 0 0 0 .088.046l3.397-.013a.103.103 0 0 0 .087-.048.105.105 0 0 0 .007-.099l-1.712-3.776a.104.104 0 0 0-.19 0l-1.685 3.79Zm-27.093-6.21c.02.198.004.378-.046.538-.025.08-.08.12-.165.12l-4.552-.024a.11.11 0 0 0-.08.033.116.116 0 0 0-.032.081l.019 2.58c.001.145.075.218.221.218l4.421-.008c.139 0 .208.07.208.21l-.008 1.136c-.002.136-.069.203-.202.203l-4.542-.016a.103.103 0 0 0-.073.031.108.108 0 0 0-.03.076l.01 3.728c0 .105.051.157.155.157l4.504.014c.108 0 .162.053.162.16l.008 1.144c.038.062.02.119-.053.17a.245.245 0 0 1-.152.043c-1.936.012-3.867.018-5.792.018a.4.4 0 0 1-.227.008c-.09-.026-.136-.087-.136-.18l-.005-7.22.024-4.008c0-.09.045-.136.136-.136h6.09c.066 0 .106.032.12.096l.022.104.192.534c-.025.073-.09.136-.197.19ZM119.56 4.5v1.552c-.14.073-.2.14-.179.2l-.064-.09a.243.243 0 0 0-.197-.105l-4.144-.008c-.112 0-.169.056-.171.168l-.016 2.555c-.001.12.059.181.182.181l2.498.008 2.091-.032v1.57c-.048-.022-.086.006-.115.086l-4.493-.077c-.089-.002-.134.042-.136.133l-.019 3.659c0 .085.042.128.126.128l1.533.008 3.104.008v1.544a.55.55 0 0 0-.248.125l-6.091-.083-.024-11.277c-.009-.005.005-.049.04-.13a.191.191 0 0 1 .19-.126l6.133.003Zm-50.008-.003.645.019c.098.002.147.051.147.15l.008 1.418-2.47-.03c-.16-.001-.24.078-.24.238l.011 9.552c0 .096-.048.145-.144.146l-1.341.02-.141-2.22.064-7.482a.244.244 0 0 0-.15-.227.243.243 0 0 0-.093-.019l-2.61.006-.022-.075.16-1.333c.01-.094.064-.142.16-.142l6.016-.02Zm-1.424 18.08.27.763-2.078.053a.295.295 0 0 0-.288.31l.032.738c.005.153.084.23.237.23l1.683.005c.163 0 .243.082.237.248l-.005.253c-.002.13-.069.196-.2.197l-1.816.019c-.089.002-.133.046-.133.133l.002 1.379c0 .108.054.165.16.168l1.67.056c.163.005.267.087.312.245l.04.147c.056.2-.019.301-.227.301l-2.36.011c-.196.029-.292-.105-.288-.4.016-1.292.02-2.574.013-3.845l-.018-.715c-.004-.09.04-.139.13-.144l2.627-.152Zm21.53 5.41-3.56-3.578c-.149-.15-.223-.118-.223.093l.013 3.054a.223.223 0 0 1-.139.218.813.813 0 0 1-.357.07c-.101-.002-.167-.051-.197-.147a.603.603 0 0 1-.024-.259l-.032-4.613c-.002-.258.087-.293.266-.107l3.342 3.467c.144.15.216.12.216-.088v-3.32c0-.078.04-.115.12-.11l.472.043c.064.006.096.04.096.104l.008 5.174Zm3.2-3.674.211.656.539 1.184a.075.075 0 0 0 .07.046.075.075 0 0 0 .069-.049l1.394-3.442c.068-.168.125-.164.171.01l1.293 4.982c-.185.133-.35.161-.498.085-.102-.052-.182-.172-.24-.36a28.13 28.13 0 0 1-.627-2.456c-.07-.336-.17-.346-.301-.03l-1.11 2.691c-.117.285-.234.285-.352 0l-1.082-2.661c-.139-.34-.253-.332-.342.024-.186.734-.383 1.503-.589 2.307-.117.46-.393.635-.827.525l1.342-5.096c.04-.162.096-.166.165-.013l.715 1.597Zm-38.445 3.592c-.98-.231-1.82-.186-2.52.136-.35-.31-.465-1-.344-2.072.007-.073-.037-.22-.133-.44.066-.007.102-.062.11-.165.031-.455.041-.896.029-1.323l.058-1.2c.006-.089.054-.134.144-.136l2.531-.008a.131.131 0 0 1 .096.038.133.133 0 0 1 .04.095v.462c0 .081-.04.121-.123.12l-1.885-.032a.13.13 0 0 0-.13.13l.002 1.046c0 .083.043.125.128.125l1.797-.01c.146 0 .216.072.211.218l-.01.307c-.008.138-.08.207-.217.205l-1.781-.016c-.085 0-.128.042-.128.125l-.005 1.46c-.002.099.047.148.146.148l1.742-.008c.09-.001.154.04.192.126.094.222.11.445.05.67Zm5.683-.576-.053.51a.069.069 0 0 1-.047.058.07.07 0 0 1-.073-.019l-3.43-3.482c-.14-.143-.21-.114-.21.085l.005 3.195c0 .085-.042.132-.125.14a1.547 1.547 0 0 1-.56-.04l.002-4.804c.002-.376.126-.422.371-.14a42.53 42.53 0 0 0 3.261 3.393c.087.082.132.063.134-.056l.008-3.248c0-.172.087-.259.261-.259.025 0 .05 0 .075-.002a.33.33 0 0 1 .326.192.323.323 0 0 1 .028.13l.027 4.347Zm21.813.192c.116.352-.076.42-.576.203a.323.323 0 0 1-.181-.19l-.27-.7a.485.485 0 0 0-.455-.313l-1.752.005a.23.23 0 0 0-.219.16c-.117.383-.29.73-.517 1.04a.283.283 0 0 1-.23.123c-.279.009-.42-.062-.424-.213l2.235-4.93a.12.12 0 0 1 .219 0l2.17 4.815Zm-3.056-1.699a.092.092 0 0 0 .007.087.09.09 0 0 0 .076.041h1.379a.09.09 0 0 0 .078-.042.09.09 0 0 0 .004-.088l-.693-1.49a.09.09 0 0 0-.165 0l-.686 1.492Zm24.75-1.522 1.682 1.8c.208.222.311.182.31-.12l-.024-3.216c0-.04.019-.06.058-.06l.595.009c.059.002.089.032.091.09.012 1.661.012 3.326 0 4.995a.12.12 0 0 1-.064.107.119.119 0 0 1-.072.01.115.115 0 0 1-.064-.034l-3.379-3.47c-.14-.142-.207-.113-.2.086.027.866.026 1.777-.003 2.733-.019.635-.267.776-.744.424l-.008-4.738c-.001-.326.111-.372.339-.14l1.483 1.524Zm-39.416-.851a2.422 2.422 0 0 0-1.054-.014c-.092.02-.137.078-.136.174l.059 4.003c.002.094-.043.152-.133.176a.843.843 0 0 1-.6-.056l-.003-4.163a.156.156 0 0 0-.047-.111.161.161 0 0 0-.113-.046l-.88-.006a.18.18 0 0 1-.17-.115.18.18 0 0 1-.011-.072l.005-.322c.002-.125.066-.187.192-.187l2.784-.005c.087 0 .14.043.157.128.036.181.019.387-.05.616Zm7.949 1.73-.821.422c-.1.052-.118.123-.054.216l1.235 1.8c.101.146.063.217-.115.213l-.248-.002a.58.58 0 0 1-.474-.262l-1.008-1.552c-.278-.425-.406-.384-.384.123.021.478.025.959.013 1.443-.005.169-.093.253-.261.253l-.251-.003c-.15 0-.224-.075-.224-.226l.013-1.574c.05-.702-.027-1.199-.232-1.49.233-.454.326-1.011.278-1.672-.007-.096.037-.148.133-.155.765-.056 1.664-.072 2.31.424.658.504.591 1.44.09 2.043Zm-1.853-1.765.005 1.595a.11.11 0 0 0 .11.11h.157c.324-.002.635-.089.865-.244.23-.155.358-.365.359-.583v-.16a.6.6 0 0 0-.093-.317.892.892 0 0 0-.267-.269 1.375 1.375 0 0 0-.399-.179 1.754 1.754 0 0 0-.47-.062h-.158a.11.11 0 0 0-.11.11Zm5.312 3.182-.027 1.018c-.005.155-.085.229-.24.221l-.21-.007c-.171-.008-.257-.097-.257-.27l.014-3.925c0-.094-.046-.157-.136-.19a1.429 1.429 0 0 0-.947-.002c-.181-.125-.23-.325-.147-.603.027-.085.086-.129.176-.13l2.819-.003a.147.147 0 0 1 .147.141l.018.419c.004.098-.043.145-.141.141l-.899-.032a.232.232 0 0 0-.24.238l.07 2.984Zm7.888 1.237-.283-.003c-.1 0-.16-.048-.184-.144l-.059-.248.003-4.477c0-.18.09-.27.27-.27h.223c.159 0 .239.08.24.238.006 1.536.002 3.087-.01 4.653a.24.24 0 0 1-.054.155c-.046.057-.095.089-.146.096Zm17.144-.608c.039.204.023.363-.048.475a.233.233 0 0 1-.214.114l-2.586-.042.013-4.883a.181.181 0 0 1 .179-.181l2.394-.03c.157-.001.245.074.264.227l.035.264c.025.181-.054.271-.237.27l-1.731-.025a.22.22 0 0 0-.204.133.213.213 0 0 0-.017.083l-.008.784a.273.273 0 0 0 .274.278l1.638-.022c.167-.001.251.081.253.248l.005.251c.002.146-.07.218-.216.216l-1.826-.013c-.063 0-.094.03-.094.093l-.002 1.592c0 .052.026.077.077.075a20.461 20.461 0 0 1 1.917-.022c.066.002.111.04.134.115Zm8.776.256-.35.472c-.318.007-.478-.146-.48-.459-.007-1.338-.006-2.648.003-3.928 0-.135-.068-.2-.203-.197l-.848.019c-.108.003-.163-.05-.165-.158l-.011-.354c0-.022.004-.044.012-.064a.174.174 0 0 1 .091-.091.175.175 0 0 1 .065-.013l2.782.005c.129 0 .193.065.192.195l-.003.234c-.002.155-.081.233-.237.235l-.808.005a.213.213 0 0 0-.145.062.207.207 0 0 0-.058.144 199.2 199.2 0 0 1-.019 3.442c-.001.12.059.27.182.451Z" fill="#fff"/></svg>