<svg width="136" height="18" fill="none" xmlns="http://www.w3.org/2000/svg"><path fill-rule="evenodd" clip-rule="evenodd" d="M127.03 18.001c-1.299 0-2.575-.176-3.785-.528a9.131 9.131 0 0 1-3.212-1.672 7.952 7.952 0 0 1-2.2-2.817c-.55-1.1-.814-2.443-.814-3.939 0-1.474.264-2.795.814-3.917a8.03 8.03 0 0 1 2.2-2.839 9.598 9.598 0 0 1 3.212-1.716 12.71 12.71 0 0 1 3.785-.572c2.662 0 5.126.88 6.732 1.562.176.088 1.254.55 1.254.55l-1.672 2.795-.242-.154c-1.65-.99-3.52-1.628-5.236-1.826a5.61 5.61 0 0 0-.836-.044h-.22a8.073 8.073 0 0 0-2.311.396 5.945 5.945 0 0 0-2.09 1.188c-.594.506-1.078 1.166-1.43 1.892-.352.749-.528 1.607-.528 2.575 0 .968.176 1.826.528 2.574a5.594 5.594 0 0 0 1.43 1.893 6.712 6.712 0 0 0 2.09 1.188c.792.264 1.65.396 2.531.396 2.838 0 5.214-1.298 6.71-2.398l.264-.176 1.496 2.574-.22.154c-1.87 1.189-4.73 2.663-7.7 2.839-.102 0-.198.006-.292.012-.088.005-.173.01-.258.01ZM3.8 5.304l10.89 12.587h3.037V.221h-3.3v12.103L3.954.22H.5v17.67h3.3V5.304Zm23.718-.198a4.79 4.79 0 0 0-1.672.308 4.712 4.712 0 0 0-1.475.858c-.418.374-.77.836-1.034 1.364-.264.528-.396 1.144-.396 1.849 0 .682.132 1.32.396 1.848s.594.99 1.034 1.364c.418.375.924.66 1.475.859.55.198 1.1.308 1.672.308a4.79 4.79 0 0 0 1.672-.309 4.713 4.713 0 0 0 1.474-.858c.418-.374.77-.836 1.034-1.364.264-.528.396-1.144.396-1.848 0-.683-.132-1.299-.396-1.849a4.567 4.567 0 0 0-1.034-1.364 4.479 4.479 0 0 0-1.474-.858 4.791 4.791 0 0 0-1.672-.308Zm0 11.266c-1.035 0-2.024-.132-2.949-.374a6.777 6.777 0 0 1-2.442-1.254c-.682-.572-1.232-1.32-1.65-2.179-.396-.88-.594-1.892-.594-3.058 0-1.167.198-2.2.594-3.081a5.848 5.848 0 0 1 1.65-2.179 6.925 6.925 0 0 1 2.42-1.298 9.953 9.953 0 0 1 2.949-.44c1.034 0 2.024.154 2.948.44a6.925 6.925 0 0 1 2.42 1.298 6.287 6.287 0 0 1 1.65 2.179c.396.88.594 1.914.594 3.08 0 1.167-.198 2.201-.594 3.06a5.848 5.848 0 0 1-1.65 2.178c-.682.572-1.496.99-2.442 1.254-.88.242-1.87.374-2.904.374ZM57.02 5.106a4.79 4.79 0 0 0-1.672.308 4.712 4.712 0 0 0-1.474.858c-.418.374-.77.836-1.034 1.364-.264.528-.396 1.144-.396 1.849 0 .704.132 1.32.396 1.848s.594.99 1.034 1.364c.418.375.924.66 1.474.859.55.198 1.122.308 1.672.308a4.79 4.79 0 0 0 1.672-.309 4.713 4.713 0 0 0 1.474-.858c.418-.374.77-.836 1.034-1.364.264-.528.396-1.144.396-1.848 0-.705-.132-1.299-.396-1.849a4.567 4.567 0 0 0-1.034-1.364 4.479 4.479 0 0 0-1.474-.858 4.791 4.791 0 0 0-1.672-.308Zm0 11.266c-1.034 0-2.024-.132-2.948-.374a6.777 6.777 0 0 1-2.442-1.254c-.682-.572-1.233-1.32-1.65-2.179-.397-.88-.617-1.892-.617-3.058 0-1.167.198-2.2.616-3.081a5.849 5.849 0 0 1 1.65-2.179 6.925 6.925 0 0 1 2.42-1.298A9.953 9.953 0 0 1 57 2.51c1.034 0 2.024.154 2.948.44a6.926 6.926 0 0 1 2.42 1.298 6.287 6.287 0 0 1 1.65 2.179c.396.88.594 1.914.594 3.08 0 1.167-.198 2.201-.594 3.06a5.848 5.848 0 0 1-1.65 2.178c-.682.572-1.496.99-2.442 1.254-.858.242-1.848.374-2.904.374Zm-13.333-.11h-2.882L34.91 2.665h3.278l4.07 9.462 4.048-9.462h3.279l-5.897 13.599ZM101.53 5.26v11.003h3.059V5.26h4.752V2.664H96.778V5.26h4.752Zm13.179-2.596h-3.102v13.599h3.102v-13.6ZM90.816 5.986l1.87 4.38h-3.74l1.87-4.38Zm2.992 6.976 1.408 3.3h3.058L92.268 2.665h-2.86L83.4 16.263h3.058l1.409-3.301h5.94ZM74.27 10.739l4.422-8.075h3.014v13.599H79v-8.45l-4.73 8.494-4.73-8.494v8.45h-2.707v-13.6h2.993l4.444 8.076Z" fill="#fff"/></svg>