<svg width="92" height="32" fill="none" xmlns="http://www.w3.org/2000/svg"><g clip-path="url(#a)"><path fill-rule="evenodd" clip-rule="evenodd" d="M91.359 29.847V.164l-.42-.003a.157.157 0 0 0-.116.051l-4.749 5.113a.138.138 0 0 1-.101.045c-27.331.016-54.672.015-82.024-.003-.943 0-1.595.078-1.955.234-.698.303-1.15.903-1.352 1.8v22.427c.312 1.444 1.292 2.039 2.685 2.037 28.465-.022 56.922-.024 85.37-.006.526.001.96-.075 1.304-.228.706-.314 1.158-.908 1.358-1.784ZM49.665 9.795c.01.01.015.023.015.037v2.817a.053.053 0 0 1-.053.053H46.35a.053.053 0 0 1-.053-.053V9.832a.053.053 0 0 1 .053-.053h3.278c.014 0 .028.006.037.016Zm-26.656.56c.01.009.014.021.014.034v13.485a.049.049 0 0 1-.048.049H19.64a.048.048 0 0 1-.048-.049V10.39a.048.048 0 0 1 .048-.048h3.336c.013 0 .025.005.034.014Zm-9.998 9.998c-.49-.01-.979-.012-1.467-.008-.07 0-.104.035-.104.104l-.003 3.374c0 .06-.03.09-.09.09l-3.413.013a.07.07 0 0 1-.048-.02.067.067 0 0 1-.02-.047l.001-12.82a.053.053 0 0 1 .051-.052c1.872-.006 3.672-.006 5.4.001 2.379.01 4.31 1.396 4.751 3.763.227 1.217-.007 2.566-.706 3.582-1.013 1.472-2.592 2.056-4.352 2.02Zm25.735-1.043c.02-.908.021-1.78.001-2.614 0-.065-.033-.097-.098-.097l-1.635.001c-.05 0-.075-.025-.075-.075l-.003-.669a.19.19 0 0 1 .053-.131l4.35-4.636a.199.199 0 0 1 .15-.066l.532.002a.092.092 0 0 1 .092.092v2.736c0 .053.026.079.079.079h2.323c.063 0 .095.03.095.093l-.002 2.5c0 .05-.025.074-.075.074H42.29c-.066 0-.1.033-.1.1.003.966.003 1.946.002 2.937-.001 1.355 1.049 1.312 1.996 1.274.136-.006.27-.011.4-.012.057-.001.086.026.086.083l-.002 2.837c0 .062-.03.093-.092.094-.197.003-.397.009-.598.014-2.064.055-4.246.113-5.027-2.242-.166-.495-.236-1.286-.21-2.374Zm-13.342-3.33c1.559-2.486 5.058-3.114 7.393-1.353.056.044.099.033.127-.031l.267-.593a.121.121 0 0 1 .12-.077h2.378c.07 0 .104.034.104.104l.002 9.82c0 .015-.007.03-.017.04a.06.06 0 0 1-.042.018h-2.539c-.046 0-.079-.023-.097-.067l-.212-.537c-.029-.072-.073-.084-.135-.037-1.66 1.279-4.12 1.265-5.844.147-1.183-.768-1.916-1.9-2.2-3.395-.253-1.339-.033-2.88.695-4.039Zm33.453 8.145c-1.245.279-2.415.12-3.51-.474-.064-.035-.096-.016-.096.057v3.724c0 .052-.026.079-.078.079h-3.248c-.05 0-.076-.026-.076-.076V14.024c0-.025.01-.048.027-.065a.09.09 0 0 1 .064-.027h2.172a.12.12 0 0 1 .113.066l.346.64c.032.06.075.069.128.026.938-.761 2.036-1.107 3.295-1.037 2.447.133 4.319 1.692 4.785 4.107.57 2.957-.885 5.71-3.922 6.39Zm20.09-3.404c.067 1.336 2.215 1.24 2.105.154-.042-.415-.552-.598-.898-.672-.203-.043-.41-.083-.62-.124-1.798-.35-3.722-.724-3.768-3.079-.04-1.948 1.438-3.05 3.24-3.31 2.266-.326 5.139.458 5.233 3.246 0 .036-.018.054-.055.054l-3.085-.003c-.058 0-.088-.029-.09-.086-.06-1.161-2.058-1.087-1.937-.043.057.495.804.633 1.722.803 1.5.278 3.462.64 3.623 2.785.155 2.067-1.241 3.344-3.169 3.683-2.484.438-5.47-.383-5.624-3.402-.003-.056.024-.084.082-.084h3.157c.053 0 .08.026.083.078ZM49.68 13.948c.01.01.017.025.017.04v9.877a.056.056 0 0 1-.056.056H46.32a.056.056 0 0 1-.056-.056v-9.877a.055.055 0 0 1 .056-.056h3.32c.016 0 .03.006.04.016Zm18.095 5.392c.001.211.02.425.054.64.159.95 1.051 1.35 1.95 1.076.737-.225.946-.966.943-1.672-.007-1.91-.008-3.7-.003-5.375 0-.052.025-.077.077-.077h3.275c.062 0 .094.031.094.095-.018 1.7-.017 3.387.002 5.06.01.84-.06 1.508-.21 2.004-.746 2.453-3.11 3.402-5.566 3.09-1.814-.231-3.295-1.268-3.842-3.058-.158-.517-.231-1.229-.22-2.138.018-1.651.02-3.308.005-4.97 0-.056.027-.083.083-.083h3.277c.054 0 .081.027.081.081-.003 1.83-.003 3.605 0 5.327Zm-56.312-5.217a.069.069 0 0 0-.02.049l-.006 2.988a.069.069 0 0 0 .043.065.07.07 0 0 0 .026.005l1.474.003a1.51 1.51 0 0 0 1.39-.92 1.49 1.49 0 0 0 .116-.573v-.136c0-.396-.157-.777-.438-1.058a1.507 1.507 0 0 0-1.062-.44l-1.474-.004a.069.069 0 0 0-.049.02Zm43.518 4.776c-.015 1.264.973 2.3 2.208 2.316 1.234.015 2.248-.997 2.263-2.261.015-1.264-.973-2.3-2.207-2.316-1.235-.015-2.248.997-2.264 2.261Zm-24.675 2.305c-1.235.007-2.242-1.007-2.249-2.264-.006-1.257.99-2.282 2.225-2.288 1.236-.007 2.243 1.007 2.25 2.264.006 1.257-.99 2.282-2.226 2.288Z" fill="#fff"/></g><defs><clipPath id="a"><path fill="#fff" transform="translate(.642 .001)" d="M0 0h90.717v32H0z"/></clipPath></defs></svg>