<svg xmlns="http://www.w3.org/2000/svg" width="74" height="34" fill="none"><path fill="#fff" fill-rule="evenodd" d="M62.04 10.286c-2.332 0-4.612.696-6.551 1.999a11.842 11.842 0 0 0-4.343 5.32 11.918 11.918 0 0 0-.672 6.851 11.877 11.877 0 0 0 3.228 6.071 11.773 11.773 0 0 0 6.038 3.245c2.287.458 4.658.223 6.813-.675a11.808 11.808 0 0 0 5.292-4.367 11.902 11.902 0 0 0 1.988-6.587 11.89 11.89 0 0 0-3.454-8.384 11.76 11.76 0 0 0-8.339-3.473Zm0 22.471c-2.087 0-4.128-.621-5.864-1.787a10.598 10.598 0 0 1-3.887-4.762 10.665 10.665 0 0 1-.602-6.131 10.63 10.63 0 0 1 2.888-5.434 10.536 10.536 0 0 1 5.404-2.904 10.5 10.5 0 0 1 6.098.603 10.567 10.567 0 0 1 4.737 3.908 10.653 10.653 0 0 1-1.312 13.399 10.525 10.525 0 0 1-7.462 3.108ZM61.685 2.01c-2.8 2.128-2.313 5.39-2.313 5.39S57.612 2.808 55.327 0c-.308 3.614.818 8.402.818 8.402s-1.43-2.968-4.937-3.135c2.908 1.68 4.036 4.709 4.294 5.52a11.675 11.675 0 0 1 5.75-1.749c-.228-.756-1.044-3.942.433-7.029Zm1.903 11.239c-3.66.229-2.017 5.022 2.03 4.769 3.958-.247 1.87-5.013-2.03-4.769ZM1.194 25.787v-2.482h1.139c.714 0 1.26-.173 1.639-.52.378-.347.567-.822.567-1.427-.002-.609-.188-1.089-.557-1.44-.369-.35-.92-.525-1.653-.525H.167v6.393h1.027Zm1.995-5.258c.201.19.302.467.302.83 0 .736-.424 1.104-1.27 1.104H1.194v-2.218h1.027c.444-.001.767.094.968.284Zm4.004 2.704 1.585 2.553H9.94L8.27 23.188c.526-.087.928-.292 1.207-.615.28-.323.419-.733.419-1.231 0-.587-.187-1.058-.563-1.414-.376-.356-.927-.534-1.653-.534H5.436v6.393h1.027v-2.553h.73Zm.403-.734H6.463v-2.218h1.133c.427 0 .74.098.941.294.202.197.302.47.302.82 0 .736-.414 1.104-1.243 1.104Zm4.334 1.902h2.685l.485 1.386h1.1l-2.333-6.294h-1.18l-2.342 6.294h1.099l.486-1.386Zm1.342-3.784 1.054 2.988h-2.108l1.054-2.988Zm9.115.814a2.646 2.646 0 0 0-1-1.53c-.503-.375-1.134-.562-1.891-.562a3.191 3.191 0 0 0-1.635.412c-.467.27-.846.67-1.094 1.15a3.875 3.875 0 0 0 0 3.378c.249.482.63.883 1.099 1.155a3.18 3.18 0 0 0 1.64.416 3.086 3.086 0 0 0 1.472-.344 2.86 2.86 0 0 0 1.035-.92c.261-.383.432-.821.5-1.281v-.987h-3.197v.761h2.335c-.078.574-.307 1.025-.684 1.354a2 2 0 0 1-1.359.5c-.397.008-.79-.089-1.139-.28a1.882 1.882 0 0 1-.76-.8 2.72 2.72 0 0 1-.27-1.26 2.619 2.619 0 0 1 .26-1.218c.165-.33.421-.607.738-.796a2.05 2.05 0 0 1 1.068-.28c.396-.01.786.097 1.121.308.308.196.546.484.68.824h1.081Zm7.377 4.355v-6.293H28.52l-2.035 5.026-2.072-5.026h-1.242v6.294h1.026v-4.718l1.82 4.718h.9l1.81-4.718v4.718h1.037Zm2.345-1.385h2.68l.487 1.386h1.099l-2.334-6.294h-1.179l-2.342 6.294h1.103l.486-1.386Zm1.338-3.784 1.054 2.988h-2.108l1.054-2.988Zm7.323-.391v-.833h-4.575v.833h1.764v5.56h1.036v-5.56h1.775Zm.55 5.56h1.026v-6.393h-1.027v6.393Zm7.88-4.237a2.924 2.924 0 0 0-1.045-1.622c-.517-.398-1.165-.598-1.945-.598a3.04 3.04 0 0 0-1.594.416c-.46.275-.831.675-1.072 1.155a3.953 3.953 0 0 0 0 3.378c.24.479.612.878 1.072 1.15.484.28 1.035.423 1.594.413.78 0 1.43-.198 1.945-.594.522-.403.89-.973 1.045-1.616h-1.09c-.141.37-.391.687-.716.91a2.064 2.064 0 0 1-1.203.339 1.864 1.864 0 0 1-1.013-.28 1.936 1.936 0 0 1-.703-.802 3.002 3.002 0 0 1 0-2.427 1.94 1.94 0 0 1 .703-.801 1.864 1.864 0 0 1 1.014-.28c.425-.014.845.104 1.202.34.327.225.577.546.716.919h1.09Zm4.844 4.238v-2.482h1.14c.714 0 1.26-.173 1.638-.52.379-.347.568-.822.568-1.427-.002-.609-.187-1.089-.557-1.44-.37-.35-.922-.525-1.653-.525h-2.162v6.393h1.026Zm1.998-5.258c.202.19.302.467.302.83 0 .736-.424 1.104-1.273 1.104h-1.027v-2.218h1.03c.444-.001.767.094.968.284Zm5.307 4.452h-2.198v-5.588h-1.027v6.393h3.225v-.805Zm1.531.805.487-1.385h2.683l.487 1.386h1.1l-2.334-6.294h-1.18l-2.342 6.294h1.1Zm1.828-5.169 1.054 2.988h-2.108l1.054-2.988Zm4.934 2.842 2.116-4.066H70.59l-1.459 2.962-1.46-2.962h-1.19l2.126 4.066v2.328h1.034v-2.328Z" clip-rule="evenodd"/></svg>