<svg xmlns="http://www.w3.org/2000/svg" width="122" height="28" fill="none"><path fill="#fff" fill-rule="evenodd" d="M.642.138V.001l27.845.016v.137c0 .93-.039 1.851-.11 2.77-.07.92-.176 1.833-.327 2.773-.151.94-.334 1.858-.562 2.773-.228.914-.484 1.676-.78 2.556l-.058.172H8.728l-.064-.156a25.742 25.742 0 0 1-.937-2.568l-.051-.176h16.763c.23-.871.425-1.761.581-2.654.148-.854.262-1.728.342-2.6H3.759a32.025 32.025 0 0 0 .95 5.351c.246.93.54 1.856.87 2.747.253.693.532 1.39.845 2.07a31.456 31.456 0 0 0 3.67 6.178c.242.322.476.617.71.901a30.192 30.192 0 0 0 1.631 1.848c.066.069.131.138.198.203.619.639 1.263 1.25 1.922 1.822.65-.57 1.294-1.177 1.919-1.819.068-.068.134-.137.2-.206a29.322 29.322 0 0 0 1.629-1.853c.254-.31.493-.613.712-.903.337-.442.657-.895.97-1.348.116-.168.231-.313.343-.454.15-.19.296-.373.437-.6h-8.889l-.232-.338a23.562 23.562 0 0 1-1.499-2.363l-.11-.203h15.667l-.083.192c-.311.738-.659 1.37-1.021 2.03a124.254 124.254 0 0 0-.332.606c-.285.527-.585.978-.894 1.443-.127.19-.256.384-.386.587a35.713 35.713 0 0 1-2.295 3.17l-.17.208c-.095.115-.19.228-.286.338l-.023.029a32.6 32.6 0 0 1-1.367 1.518 31.847 31.847 0 0 1-1.403 1.39c-.207.19-.416.382-.625.571a35.362 35.362 0 0 1-2.062 1.698l-.111.086-.08.058-.08-.056-.116-.088a35.12 35.12 0 0 1-5.41-5.124c-.11-.129-.217-.257-.325-.387l-.027-.032-.172-.21a34.856 34.856 0 0 1-1.895-2.562c-.118-.176-.235-.356-.352-.535a33.858 33.858 0 0 1-1.328-2.236c-.491-.9-.947-1.837-1.353-2.774l-.005-.012-.048-.111-.039-.092a34.345 34.345 0 0 1-1.773-5.328 34.307 34.307 0 0 1-.89-5.545A34.454 34.454 0 0 1 .64.14Zm80.222 14.22v-.687h-4.465v1.549h2.696a2.236 2.236 0 0 1-.908 1.239 2.95 2.95 0 0 1-1.686.451c-.916 0-1.652-.273-2.207-.82a2.801 2.801 0 0 1-.832-2.08 2.89 2.89 0 0 1 .82-2.104 2.81 2.81 0 0 1 2.093-.833c.498-.006.99.111 1.43.344.397.2.73.507.96.89l1.501-.865a4.215 4.215 0 0 0-1.603-1.508 4.652 4.652 0 0 0-2.276-.565 4.606 4.606 0 0 0-3.314 1.336 4.58 4.58 0 0 0-1.353 3.306 4.46 4.46 0 0 0 1.353 3.279c.904.894 2.042 1.34 3.415 1.34 1.29.002 2.342-.391 3.155-1.181.814-.79 1.221-1.82 1.221-3.091Zm-26.912 3.68c.602.394 1.344.59 2.225.59.957 0 1.737-.241 2.34-.724a2.392 2.392 0 0 0 .897-1.959 2.51 2.51 0 0 0-.325-1.258 1.74 1.74 0 0 0-.388-.446 4.59 4.59 0 0 0-.451-.344 3.559 3.559 0 0 0-.56-.273l-.014-.006c-.235-.094-.42-.168-.558-.21a13.247 13.247 0 0 1-.278-.088c-.098-.032-.211-.07-.339-.11-.66-.203-1.108-.391-1.342-.565a.807.807 0 0 1-.35-.68.776.776 0 0 1 .312-.643c.25-.178.553-.264.859-.247.779 0 1.347.38 1.705 1.144l1.475-.852a3.551 3.551 0 0 0-1.279-1.47 3.439 3.439 0 0 0-1.901-.527 3.11 3.11 0 0 0-2.067.718 2.386 2.386 0 0 0-.858 1.927c-.008.368.065.733.215 1.069.14.301.356.562.624.757.258.187.534.348.826.476.331.138.668.256 1.012.356.72.205 1.22.393 1.5.567a.83.83 0 0 1 .42.68.844.844 0 0 1-.342.725c-.23.178-.589.267-1.08.267-1.018 0-1.7-.453-2.048-1.36l-1.5.877c.232.662.68 1.229 1.27 1.608Zm-13.304-8.49a2.969 2.969 0 0 1 2.168.865 3.009 3.009 0 0 1 0 4.247 2.955 2.955 0 0 1-2.162.865h-1.561v2.925h-1.766V9.552l3.32-.005Zm0 4.336a1.23 1.23 0 0 0 .929-.387 1.447 1.447 0 0 0 0-1.928 1.237 1.237 0 0 0-.93-.381h-1.56v2.696h1.56Zm7.503 4.744c-.993 0-1.806-.28-2.441-.838-.636-.56-.953-1.308-.954-2.246V9.547h1.742v5.85a1.512 1.512 0 0 0 .4 1.109c.268.271.685.405 1.248.405.564 0 .985-.134 1.25-.405a1.509 1.509 0 0 0 .399-1.109v-5.85h1.762v5.995c0 .937-.318 1.688-.955 2.253-.637.565-1.453.843-2.45.832Zm17.4-9.08h1.742v8.897h-1.742v-3.682h-3.306v3.689h-1.756V9.554h1.756v3.536h3.306V9.548Zm22.093 8.903-.565-1.602H83.42l-.534 1.602h-1.895l3.122-8.898h2.175l3.14 8.898h-1.785Zm-3.651-3.243h2.505l-1.285-3.639-1.22 3.64ZM99 18.445V9.547h-1.817l-2.541 4.204-2.548-4.205H90.29v8.897h1.756v-5.752l2.498 4.116.206-.007 2.51-4.13v5.775h1.742Zm1.653-8.897h1.756v8.897h-1.756V9.548Zm10.313 0h-1.754v5.423l-3.818-5.423h-1.334v8.897h1.749v-5.443l3.816 5.443h1.341V9.548Zm10.392 4.123v.687c0 1.27-.408 2.3-1.222 3.09-.815.79-1.866 1.184-3.154 1.182-1.373 0-2.511-.446-3.415-1.34a4.44 4.44 0 0 1-1.355-3.279 4.61 4.61 0 0 1 2.877-4.31 4.605 4.605 0 0 1 1.792-.332 4.654 4.654 0 0 1 2.276.565 4.214 4.214 0 0 1 1.603 1.508l-1.502.865a2.353 2.353 0 0 0-.96-.89 2.967 2.967 0 0 0-1.431-.344 2.806 2.806 0 0 0-2.715 1.803c-.14.363-.207.748-.195 1.137a2.8 2.8 0 0 0 .832 2.08c.556.546 1.291.819 2.207.819a2.939 2.939 0 0 0 1.683-.451 2.24 2.24 0 0 0 .91-1.24h-2.696v-1.55h4.465Z" clip-rule="evenodd"/></svg>