<svg xmlns="http://www.w3.org/2000/svg" width="56" height="34" fill="none"><g clip-path="url(#a)"><path fill="#fff" fill-rule="evenodd" d="M55.181 2.508C54.975 1.7 54.332.96 53.416.482A4.078 4.078 0 0 0 51.542 0c-.908 0-1.674.365-2.1 1.002l-.002.002-.556.833c-.05.075-.092.153-.125.233-.073.08-.14.164-.2.255l-3.033 4.536c-.05.075-.091.154-.125.234-.073.08-.14.164-.2.254l-.92 1.377c-.043.063-.081.128-.115.194H4.437c-.655 0-1.214.476-1.318 1.123L.465 26.624a1.335 1.335 0 0 0 1.318 1.546h30.436l10.755 5.62c.146.077.301.124.459.143a1.348 1.348 0 0 0 .422.068c.442 0 .859-.22 1.109-.592l1.187-1.773c.278-.415.3-.95.059-1.388-.447-.81-1.245-1.274-2.19-1.274-.304 0-.59.049-.833.111l-1.202-.915H50.3c.656 0 1.214-.477 1.318-1.124l2.655-16.58a1.335 1.335 0 0 0-1.319-1.545h-1.207l2.282-3.413c.062-.093.116-.19.16-.29.06-.06.115-.126.163-.199l.556-.83a2.062 2.062 0 0 0 .274-1.68Zm-4.63-.762c.344-.514 1.352-.55 2.247-.082.897.47 1.347 1.266 1.001 1.78l-.557.833c-.05-.514-.495-1.077-1.219-1.455-.722-.376-1.495-.45-2.03-.243l.557-.833Zm-.883 1.321c.343-.514 1.35-.551 2.247-.082.897.468 1.347 1.266 1.003 1.782l-3.033 4.535c-.05-.515-.496-1.077-1.22-1.455-.722-.377-1.494-.452-2.029-.243l3.032-4.537Zm-1.11 4.943c-.898-.47-1.903-.434-2.248.082l-.92 1.376c-.229.343-.105.813.272 1.227l.338-.508c.196-.292.709-.336 1.165-.096.386.2.592.527.532.8h-.223c.076-.197-.097-.472-.417-.638-.347-.182-.739-.168-.872.032l-.406.607h-2.587l-2.277 4.511h-.013l.702-4.511h-2.867l-1.645 10.596h1.606l-2.529 3.785.279.087.904.69 4.08-6.107.326 1.545h3.078l-1.406-4.534 3.202-4.791-1.447 9.325h5.326l.38-2.501h-2.46l.253-1.616h2.207l.394-2.502h-2.207l.239-1.476h2.46l.379-2.501h-3.333l.736-1.103c.345-.514-.104-1.311-1.002-1.78ZM29.43 23.482l6.969 2.11 6.399 4.876.793 2.14-13.368-6.987-.793-2.14Zm11.301-6.856.292 1.382-.68 1.018.374-2.4h.014Zm3.123 16.04-.796-2.12s1.394-.718 1.982.347l-1.186 1.773Zm-12.197-8.935c-.567-1.028-1.883-.395-1.974-.351l-.004.002 1.845.547.133-.198Zm-5.013-6.656.9 4.413h3.105l-1.447-4.413c.609-.224 1.08-.576 1.412-1.054a3.818 3.818 0 0 0 .64-1.602c.018-.15.035-.293.049-.429.014-.135.021-.268.021-.4 0-.534-.094-.974-.281-1.321a2.112 2.112 0 0 0-.787-.822 3.577 3.577 0 0 0-1.209-.429 8.653 8.653 0 0 0-1.532-.126h-2.768l-1.645 10.596h2.867l.436-2.825c.047-.262.084-.521.112-.78l.072-.657v-.001l.013-.122.042-.028Zm.913-1.39c-.159.074-.332.112-.52.112l-.182-.014.407-2.615h.113c.328 0 .587.08.78.24.192.159.288.407.288.744a1.473 1.473 0 0 1-.028.295c-.028.169-.08.336-.155.499-.075.164-.17.31-.288.436a1.341 1.341 0 0 1-.415.302ZM7.886 21.487l-.9-4.413-.041.029-.023.21-.062.57c-.028.258-.065.517-.112.78l-.436 2.824H3.445L5.09 10.892h2.768c.553 0 1.064.042 1.532.126.468.084.871.228 1.209.429.337.201.599.475.786.822.188.347.282.787.282 1.321 0 .132-.008.265-.021.4-.014.136-.03.28-.05.43a3.811 3.811 0 0 1-.639 1.601c-.333.478-.803.83-1.412 1.054l1.447 4.413H7.886Zm-.506-5.691c.187 0 .36-.038.52-.113.16-.075.298-.175.415-.302a1.64 1.64 0 0 0 .288-.436 2.005 2.005 0 0 0 .183-.794c0-.337-.096-.585-.288-.745-.193-.159-.453-.239-.78-.239h-.113l-.407 2.615.182.014Zm9.373-4.905h2.305c.712 0 1.335.093 1.87.28.533.188.98.458 1.341.809.361.351.633.777.816 1.279.182.501.274 1.066.274 1.693 0 .188-.008.38-.021.577a6.35 6.35 0 0 1-.078.618c-.122.815-.307 1.513-.555 2.094-.249.581-.534 1.068-.857 1.462-.323.393-.673.71-1.047.949a4.95 4.95 0 0 1-1.125.54 5.32 5.32 0 0 1-1.096.24 9.21 9.21 0 0 1-.97.055H15.11l1.644-10.596Zm1.616 8.039c.328 0 .607-.091.837-.274.229-.183.419-.408.569-.675.15-.267.267-.553.351-.857.084-.305.145-.584.183-.837.056-.318.084-.665.084-1.04 0-.225-.016-.44-.05-.646a1.648 1.648 0 0 0-.182-.549 1.02 1.02 0 0 0-.365-.379 1.11 1.11 0 0 0-.584-.14l-.843 5.397Zm-2.062-8.04-.38 2.502h-2.459l-.24 1.476h2.207l-.393 2.502h-2.207l-.253 1.616h2.46l-.38 2.502h-3.177l-1.362-4.155a3.239 3.239 0 0 0 1.219-1.045 4.31 4.31 0 0 0 .72-1.812c.018-.153.036-.299.05-.438.015-.152.024-.303.024-.449 0-.61-.114-1.13-.338-1.544a2.58 2.58 0 0 0-.853-.928l.035-.226h5.327Zm20.02 0 .604 10.597h-2.965v-1.363H32.04l-.45 1.363h-.446l-1.136-3.462.45-1.14a3.15 3.15 0 0 0 .542-.597 4.313 4.313 0 0 0 .72-1.812c.019-.153.036-.299.05-.438.015-.152.024-.303.024-.449l-.002-.04a.559.559 0 0 1-.002-.034l1.037-2.624h3.5Zm-2.783 4.526-.773 2.46h1.208l.071-2.46c.01-.328.023-.66.042-.998l.007-.121v-.006l.05-.87h-.03c-.093.327-.187.66-.28.997-.094.337-.192.67-.295.998ZM3.367 26.172c-.396 0-.542-.177-.472-.576l.339-1.921c.07-.398.278-.575.674-.575.398 0 .544.177.474.575l-.06.337h-.299l.06-.337c.032-.182-.052-.297-.225-.299-.132 0-.286.079-.325.299l-.339 1.921c-.032.184.053.298.221.298.17 0 .297-.114.329-.298l.145-.822h-.172l.05-.278h.47l-.194 1.1c-.07.398-.279.576-.676.576Zm4.518-.05h-.301l.03-.667h-.598l-.207.667h-.3l.311-1.01.656-1.962h.491l-.037 1.954-.045 1.018Zm-.173-2.927-.611 1.982h.523l.088-1.982Zm3.77 2.927.524-2.972h-.319l-1.006 2.392-.17-2.392h-.318l-.524 2.972h.285l.377-2.136.158 2.136h.187l.906-2.157-.38 2.157h.28Zm2.543 0 .524-2.972h.3l-.525 2.972h-.299Zm4.324 0 .523-2.97-.266.004-.381 2.164-.183-2.17h-.317l-.524 2.972h.281l.373-2.117.177 2.117h.317Zm3.015.05c-.396 0-.542-.177-.471-.576l.338-1.921c.07-.398.278-.575.675-.575s.543.177.473.575l-.06.337h-.298l.059-.337c.032-.182-.052-.297-.225-.299-.131 0-.286.079-.325.299l-.338 1.921c-.033.184.052.298.221.298.17 0 .296-.114.328-.298l.145-.822h-.171l.049-.278h.47l-.194 1.1c-.07.398-.278.576-.676.576Z" clip-rule="evenodd"/></g><defs><clipPath id="a"><path fill="#fff" d="M.448.001h55.103v34H.448z"/></clipPath></defs></svg>