<svg xmlns="http://www.w3.org/2000/svg" width="90" height="28" fill="none"><path fill="#fff" fill-rule="evenodd" d="m10.662 9.362 3.729 6.242s0 .086.173.173c0 .173-.087.26-.26.26h-2.948a.477.477 0 0 1-.434-.26L7.454 9.709H3.552v5.981a.373.373 0 0 1-.347.347H.43a.373.373 0 0 1-.347-.347V.347C.083.173.257 0 .43 0H8.147c3.209.087 5.81.954 5.723 4.768 0 2.86-1.3 4.16-3.208 4.594ZM7.367 6.935l.867-.087c1.735 0 2.255-.867 2.341-1.994 0-1.126-.52-1.993-2.34-1.993h-4.77v4.074h3.902ZM77.69 2.34a2.34 2.34 0 1 1-4.682-.001 2.34 2.34 0 0 1 4.682 0ZM40.75 27.999c.26 0 .347-.173.347-.52l-.954-5.201c0-.173-.087-.26-.173-.347-.087-.086-.174-.086-.347-.086-.174 0-.26 0-.347.086-.087.087-.173.174-.173.26l-1.214 4.335-1.214-4.248c0-.087-.087-.173-.174-.26-.086-.087-.173-.087-.346-.087-.087 0-.26.087-.347.174-.087.086-.174.173-.174.346l-.867 4.941v.174c0 .26.174.433.347.433.26 0 .433-.086.433-.346l.694-4.768 1.388 4.767c0 .174.173.26.346.26.174 0 .26-.086.347-.26l1.388-4.767.693 4.767c0 .26.174.347.347.347ZM5.286 25.225c0 1.04-.26 1.734-.867 2.254-.347.347-.867.434-1.56.434-.868 0-1.475-.347-1.995-.954a3.12 3.12 0 0 1-.607-1.907c0-.867.173-1.56.694-2.167.26-.26.52-.52.78-.694a2.4 2.4 0 0 1 1.127-.26c.37 0 .678.063 1.03.136l.184.038c.347.086.607.26.78.52.087.087.087.173.087.26 0 .086 0 .173-.086.26-.087.087-.174.087-.26.087-.087 0-.174 0-.26-.087a4.811 4.811 0 0 1-.3-.22 1.97 1.97 0 0 0-.308-.213 7.936 7.936 0 0 1-.126-.044h-.001c-.197-.07-.366-.13-.653-.13-.607 0-1.127.26-1.474.78-.26.434-.434.954-.434 1.56 0 .867.26 1.474.694 1.994.26.26.607.434 1.04.434.26 0 .608-.087.868-.174.607-.26.954-.866.954-1.647v-.26H3.552c-.173 0-.347-.086-.347-.346s.087-.347.347-.347h1.3c.26 0 .434.26.434.607v.086Zm84.543 0c0 1.04-.26 1.734-.867 2.254-.347.347-.867.434-1.56.434-.868 0-1.475-.347-1.995-.954a3.12 3.12 0 0 1-.607-1.907c0-.867.173-1.56.694-2.167.26-.26.52-.52.78-.694a2.4 2.4 0 0 1 1.127-.26c.37 0 .678.063 1.03.136l.184.038c.347.086.607.26.78.52.087.087.087.173.087.26 0 .086 0 .173-.086.26-.087.087-.174.087-.26.087-.087 0-.174 0-.26-.087a4.818 4.818 0 0 1-.3-.22c-.113-.089-.21-.165-.308-.213l-.127-.045c-.197-.07-.366-.129-.653-.129-.607 0-1.127.26-1.474.78-.26.434-.434.954-.434 1.56 0 .867.26 1.474.694 1.994.26.26.607.434 1.04.434.26 0 .608-.087.868-.174.607-.26.954-.866.954-1.647v-.26h-1.041c-.173 0-.347-.086-.347-.346s.087-.347.347-.347h1.3c.348 0 .52.173.52.52v.173h-.086Zm-35.204 2.342c0 .26-.087.433-.347.433s-.347-.086-.347-.346v-5.201c0-.26.087-.347.347-.347s.347.086.347.346v5.115Zm17.082.346c.26 0 .346-.087.346-.347h-.173v-5.201c0-.26-.087-.347-.347-.347-.087 0-.173 0-.26.087-.087.086-.087.173-.087.26v4.247l-3.035-4.42c-.173-.174-.26-.26-.433-.26-.174 0-.26.086-.26.346v5.201c0 .26.086.347.347.347.26 0 .346-.087.346-.347v-4.247l3.122 4.42c.173.174.26.26.434.26Zm-49.252-.26c0 .174-.087.26-.347.26-.087 0-.173 0-.26-.086-.043 0-.065 0-.076-.01-.01-.012-.01-.033-.01-.077l-.348-1.04h-2.688l-.52 1.04c-.087.174-.173.26-.347.26-.173 0-.346-.086-.346-.26v-.173l1.907-5.028c.033-.066.054-.12.071-.165.029-.074.049-.128.103-.182.086-.086.173-.086.26-.086.087 0 .173 0 .347.086.086.087.173.174.173.347l1.908 5.028c.173 0 .173.087.173.087Zm-1.3-1.646-1.128-3.208-1.214 3.208h2.341ZM89.915 2.34c0 1.3-1.04 2.34-2.341 2.34-1.3 0-2.341-1.04-2.341-2.34 0-1.3 1.04-2.341 2.34-2.341 1.302 0 2.342 1.04 2.342 2.34ZM77.69 13.783a2.34 2.34 0 1 1-4.682 0 2.34 2.34 0 0 1 4.682 0Zm12.226 0c0 1.3-1.04 2.34-2.341 2.34-1.3 0-2.341-1.04-2.341-2.34 0-1.3 1.04-2.34 2.34-2.34 1.302 0 2.342 1.04 2.342 2.34Zm-8.411-3.38c1.3 0 2.34-1.04 2.34-2.341 0-1.3-1.04-2.34-2.34-2.34-1.301 0-2.341 1.04-2.341 2.34 0 1.3 1.04 2.34 2.34 2.34Zm-12.4 5.2L62.602.26c-.087-.173-.174-.26-.347-.26H59.48c-.174 0-.261.087-.348.26l-6.59 15.344v.086c0 .174.087.26.26.26h2.949c.173 0 .26-.086.346-.26l1.388-3.554h6.937l1.387 3.554c.087.174.173.26.347.26h2.948c.173 0 .26-.086.26-.26a.264.264 0 0 1-.178-.054c-.025-.018-.046-.032-.082-.032ZM58.44 9.364l2.428-6.156 2.427 6.155H58.44ZM23.322 4.073s-.26.26-.434.867c-.087.607-.173 1.387-.173 1.387v.173h9.018c.173 0 .347.174.347.347v2.167a.373.373 0 0 1-.347.347h-9.018v.347s0 .78.173 1.387c.174.52.434.867.434.867s.347.607 1.127.953c.694.347 1.474.347 1.474.347h5.81c.173 0 .347.173.347.347v2.167a.373.373 0 0 1-.347.347h-6.417c-3.555 0-6.416-3.121-6.416-6.935V6.935C18.9 3.12 21.76 0 25.316 0h6.417c.173 0 .347.173.347.347v2.08a.373.373 0 0 1-.347.347h-5.81s-.694 0-1.474.347c-.78.346-1.127.953-1.127.953Zm19.51 11.876h5.289c.173 0 .26-.173.26-.346v-2.168c0-.173-.087-.346-.26-.346h-4.77s-.606 0-1.213-.347c-.607-.347-.954-.954-.954-.954s-.347-.346-.347-.953V.26c0-.173-.087-.26-.26-.26h-2.775a.373.373 0 0 0-.347.347V10.922c.087 2.774 2.428 5.028 5.376 5.028Z" clip-rule="evenodd"/></svg>