<svg xmlns="http://www.w3.org/2000/svg" width="106" height="28" fill="none"><path fill="#fff" d="M12.951 15.161c-.198-.037-.263.039-.195.229l1.685 4.597a.08.08 0 0 1-.02.084.08.08 0 0 1-.053.022h-1.446c-.051 0-.085-.024-.103-.073a86.72 86.72 0 0 1-1.675-4.796 2.146 2.146 0 0 1-.07-.986c.019-.108.082-.162.19-.162l1.135.003a.245.245 0 0 0 .245-.245l-.01-3.064a.145.145 0 0 0-.146-.146l-1.76.01a.174.174 0 0 0-.114.033c-.033.027-.049.07-.049.13l.004 9.107a.181.181 0 0 1-.054.128.183.183 0 0 1-.129.05l-1.214-.006c-.115 0-.172-.056-.172-.169L8.993 9.502c0-.139.07-.208.209-.208h4.03c.654 0 .978.326.974.98-.009 1.246-.011 2.56-.007 3.94.004.73-.506 1.083-1.248.947ZM16.704 10.859l.007 1.883-.006 5.745c0 .168.083.252.251.252h1.645c.176 0 .265-.088.265-.265l.003-2.578c0-.172-.087-.256-.261-.251l-.692.02c-.146.004-.219-.067-.219-.212v-.877c0-.17.084-.255.252-.255l2.237.003c.17 0 .255.085.255.255l-.003 4.647a.851.851 0 0 1-.85.85l-3.549.007a.895.895 0 0 1-.893-.89l.003-8.936c0-.642.321-.963.963-.963h3.495a.83.83 0 0 1 .83.817l.04 2.257a.196.196 0 0 1-.057.143.195.195 0 0 1-.141.06l-1.268.002c-.108 0-.16-.054-.159-.162l.027-1.582a.212.212 0 0 0-.06-.15.208.208 0 0 0-.068-.045l-.014-.006-.015-.004a.207.207 0 0 0-.052-.007h-1.72c-.164-.002-.245.079-.245.242Z"/><path fill="#fff" fill-rule="evenodd" d="M27.315 15.631c-1.628 2.831-2.274 5.868-1.936 9.112a.395.395 0 0 1-.116.33 15.05 15.05 0 0 1-4.024 2.883.362.362 0 0 1-.314.01c-4.138-1.783-8.26-1.784-12.365-.003a.408.408 0 0 1-.358-.007 15.337 15.337 0 0 1-3.832-2.674.401.401 0 0 1-.126-.357c.443-3.667-.36-7.033-2.41-10.098L.19 12.835a.423.423 0 0 1-.096-.348c.26-1.58.759-3.058 1.496-4.435a.447.447 0 0 1 .088-.116.405.405 0 0 1 .17-.089C6.053 6.766 9.243 4.357 11.416.62a.446.446 0 0 1 .288-.218c2.043-.525 4.014-.533 5.914-.023a.466.466 0 0 1 .275.208c2.226 3.826 5.47 6.257 9.733 7.294a.39.39 0 0 1 .147.069c.045.035.082.08.111.137a14.251 14.251 0 0 1 1.48 4.63.376.376 0 0 1-.076.288l-1.973 2.627Zm-1.784-.245c.122-3.38-.97-6.159-3.273-8.336-3.674-3.469-9.356-4.061-13.533-1.215-3.142 2.14-4.75 5.157-4.822 9.052.196 3.98 1.98 6.99 5.352 9.032 2.098 1.268 4.334 1.768 6.708 1.499 5.23-.592 9.154-4.783 9.568-10.032Z" clip-rule="evenodd"/><path fill="#fff" d="m72.792 2.014.022 7.555-.048 8.47c-.003.19.09.284.28.284h6.13l.016-.003a.147.147 0 0 0 .031-.009l.01-.005.004-.002.01-.005a.156.156 0 0 0 .073-.137l-.049-1.978a.11.11 0 0 0-.11-.105h-3.705c-.145 0-.218-.075-.218-.223l-.005-6.388.03-7.406a.287.287 0 0 0-.08-.2.279.279 0 0 0-.195-.085l-1.93-.026c-.18-.003-.269.085-.266.263ZM43.068 1.773l-6.667-.013v16.493l2.37.01c.138.002.206-.065.206-.202l-.021-13.978c0-.097.048-.145.144-.145l2.874-.03a.136.136 0 0 1 .136.135l.048 4.856c.003.15-.07.224-.219.224h-1.916c-.163 0-.26.08-.293.24-.117.595-.105 1.087.035 1.475.895 2.485 1.773 4.95 2.634 7.393.023.062.068.092.135.092l2.428-.004c.058 0 .089-.019.094-.056a.144.144 0 0 0-.01-.067l-2.59-6.934c-.085-.225-.006-.337.236-.337 1.28.006 1.916-.488 1.907-1.483-.017-2.083-.02-4.127-.008-6.134.005-1.023-.502-1.535-1.523-1.535ZM57.956 12.465 59.65 1.878a.155.155 0 0 1 .018-.053c.02-.035.055-.052.105-.052l2.332.009a.072.072 0 0 1 .032.008l.005.003.007.005.004.003.004.004.006.007a.081.081 0 0 1 .015.031.087.087 0 0 1 .001.035l-3.084 16.17c-.035.184-.146.276-.333.276h-1.925c-.204 0-.325-.101-.363-.302L53.371 1.869a.087.087 0 0 1 .003-.037l.002-.008.006-.01.004-.007.006-.008a.088.088 0 0 1 .067-.03l2.301-.005c.036 0 .067.006.092.019.046.022.074.066.083.13l1.662 10.552c.12.756.24.756.36 0Z"/><path fill="#fff" fill-rule="evenodd" d="M71.396 3.234v7.8l-.008 5.872c0 .945-.473 1.418-1.418 1.418h-5.74a1.245 1.245 0 0 1-1.238-1.243l.022-8.426-.022-5.587a1.298 1.298 0 0 1 1.3-1.304h5.634c.98 0 1.47.49 1.47 1.47Zm-5.92 12.723.014-6.362-.035-5.425a.24.24 0 0 1 .236-.24l3.019-.048c.18-.003.273.087.276.27l.022 11.805a.238.238 0 0 1-.114.208.248.248 0 0 1-.127.037l-3.054-.005c-.157 0-.236-.08-.236-.24Z" clip-rule="evenodd"/><path fill="#fff" d="m88.28 1.773-2.293.009a.137.137 0 0 0-.09.034.14.14 0 0 0-.046.084l-1.675 11.012a.14.14 0 0 1-.173.11l-.013-.004a.141.141 0 0 1-.09-.106L82.19 1.9a.14.14 0 0 0-.136-.118l-2.288-.031a.137.137 0 0 0-.06.013l-.013.006-.009.006-.01.006a.14.14 0 0 0-.05.135l3.13 16.293a.14.14 0 0 0 .14.113l2.28-.021a.144.144 0 0 0 .087-.033.14.14 0 0 0 .048-.081l3.11-16.249a.139.139 0 0 0-.03-.116.139.139 0 0 0-.05-.038l-.007-.003a.094.094 0 0 0-.01-.004l-.014-.003a.142.142 0 0 0-.029-.002ZM91.736 10.868l3.5.057c.18.003.271-.086.271-.267l-.009-1.618a.269.269 0 0 0-.022-.11.275.275 0 0 0-.019-.037l-.01-.016-.009-.012-.009-.011a.27.27 0 0 0-.11-.078.29.29 0 0 0-.11-.02l-3.259.043a.233.233 0 0 1-.232-.227l.035-4.319c0-.148.075-.223.223-.223l3.815.013c.216 0 .324-.108.324-.323l.005-1.497a.393.393 0 0 0-.118-.281.405.405 0 0 0-.285-.117l-6.173.027c-.158 0-.238.08-.24.24l-.018 7.888.017 8.098c0 .164.082.245.245.245h6.217c.24 0 .359-.12.359-.358l.004-1.562c0-.225-.112-.336-.337-.333l-3.81.018c-.149 0-.223-.075-.223-.223l-.022-4.997ZM105.289 8.9V3.015a1.216 1.216 0 0 0-.359-.873 1.246 1.246 0 0 0-.874-.365l-6.572-.026c-.183 0-.275.092-.275.276l.004 16.148a.131.131 0 0 0 .127.13l2.231.023c.07.003.105-.032.105-.105l-.008-14.158c0-.102.05-.153.153-.153l2.944.013a.114.114 0 0 1 .064.02l.009.006.008.008c.021.02.033.05.033.08l.026 4.708c.056.253-.019.377-.223.372a26.129 26.129 0 0 0-1.851.004.466.466 0 0 0-.433.349c-.004.012-.006.025-.009.038l-.004.033c-.049.52.009 1.012.175 1.479.782 2.21 1.628 4.596 2.538 7.157.013.042.04.078.076.104a.22.22 0 0 0 .125.04h2.38a.226.226 0 0 0 .093-.018l.019-.01a.22.22 0 0 0 .06-.046c.006-.008.013-.015.018-.024l.007-.01a.306.306 0 0 0 .021-.041.244.244 0 0 0-.008-.187 5.129 5.129 0 0 0-.199-.377l-.026-.044-.099-.168-.001-.002c-.156-.265-.311-.526-.41-.805a155.638 155.638 0 0 0-2.048-5.456.183.183 0 0 1-.012-.046.167.167 0 0 1 .029-.112c.006-.009.014-.017.021-.025a.29.29 0 0 1 .042-.03.185.185 0 0 1 .082-.018c1.286.026 2.358-.407 2.021-2.004ZM48.414 16.162l.018-5.005c0-.146.074-.219.223-.219l3.268-.004c.172 0 .257-.086.254-.258l-.03-1.654c-.004-.183-.096-.274-.276-.271l-3.216.048h-.02a.26.26 0 0 1-.242-.262l.048-4.284c0-.033.005-.062.013-.087a.19.19 0 0 1 .026-.054.164.164 0 0 1 .068-.056.281.281 0 0 1 .116-.021h3.999c.036 0 .06-.012.074-.034a.08.08 0 0 0 .01-.024.136.136 0 0 0 .003-.03l-.053-1.986c0-.079-.039-.118-.118-.118h-6.357c-.189 0-.282.093-.28.28l.018 11.515-.013 4.432c0 .169.084.253.254.253h6.492a.163.163 0 0 0 .162-.162l-.009-1.885c0-.117-.06-.175-.18-.175l-4.252.061ZM82.607 26.47h-.346a.064.064 0 0 0 0-.047.258.258 0 0 0-.057-.089.304.304 0 0 1-.083-.223c.02-1.137.034-2.272.04-3.404 0-.043.008-.086.026-.127.043-.105.151-.157.323-.157.03 0 .06.007.086.02.027.012.05.031.067.054l1.83 2.442c.078.105.15.099.218-.018.405-.715.866-1.398 1.383-2.052.571-.72.858-.621.861.298l.014 2.97a.247.247 0 0 1-.174.232.245.245 0 0 1-.102.009l-.215-.026a.225.225 0 0 1-.144-.08.228.228 0 0 1-.052-.157l.135-2.349c.02-.327-.063-.356-.25-.087l-1.408 2.03c-.117.169-.235.17-.354.004l-1.453-2.021a.488.488 0 0 0-.063-.075.113.113 0 0 0-.046-.029c-.025-.006-.043.008-.056.043a.403.403 0 0 0-.019.109l-.161 2.73Z"/><path fill="#fff" fill-rule="evenodd" d="M78.975 26.47h.38l.15-.105a.205.205 0 0 0 .09-.12.178.178 0 0 0-.005-.091.297.297 0 0 0-.024-.056l-1.938-3.417a.54.54 0 0 0-.945.022 117.779 117.779 0 0 1-1.85 3.46c-.053.096.023.199.227.306h.162c.204-.195.377-.447.52-.756a.377.377 0 0 1 .368-.237h2.126a.413.413 0 0 1 .376.241l.363.753Zm-2.745-1.642a.149.149 0 0 1 .015-.073l.8-1.536a.148.148 0 0 1 .209-.058.143.143 0 0 1 .054.058l.823 1.518a.148.148 0 0 1-.127.219l-1.623.013a.15.15 0 0 1-.15-.14Z" clip-rule="evenodd"/><path fill="#fff" d="M68.44 26.47h3.325c.607-.272.807-.938.6-2-.03-.157-.124-.239-.285-.245l-1.6-.06a.547.547 0 0 0-.237.043.381.381 0 0 0-.158.117.18.18 0 0 0-.035.106c.003.166.086.264.25.293.332.064.668.061 1.006-.009.306-.061.456.063.45.372l-.004.385c-.006.271-.144.407-.415.407l-2.415-.017a.271.271 0 0 1-.244-.167.26.26 0 0 1-.019-.1l.004-2.223c0-.078.03-.152.085-.207a.287.287 0 0 1 .204-.086h2.28a.61.61 0 0 1 .485.228c.076.093.181.15.315.17.26.038.376-.073.35-.332-.044-.398-.411-.683-.792-.692a45.111 45.111 0 0 0-2.822.01c-.446.017-.701.246-.765.686-.225 1.49-.079 2.597.437 3.32ZM90.298 22.466h.324a.17.17 0 0 1 .17.171v3.57a.17.17 0 0 1-.17.17h-.324a.17.17 0 0 1-.17-.17v-3.57a.17.17 0 0 1 .17-.17ZM98.27 26.47h-.28l-3.15-2.861c-.19-.173-.28-.13-.268.127l.123 2.454a.165.165 0 0 1-.166.175l-.333.004c-.149.003-.222-.068-.219-.214l.044-3.316c.009-.479.19-.557.543-.237l2.961 2.691c.143.128.212.096.206-.096l-.074-2.446c-.006-.166.074-.255.24-.267l.21-.013c.146-.009.218.06.215.206l-.053 3.793ZM101.878 26.47h3.334c.645-.269.837-.957.578-2.065-.029-.126-.108-.19-.237-.193l-1.723-.048c-.167-.006-.245.074-.237.24l.009.119c.012.19.111.278.298.267l1.089-.061c.128-.006.193.056.193.188v.678c-.003.186-.097.278-.28.275l-2.621-.013c-.096 0-.146-.05-.149-.149l-.022-2.458c0-.013.001-.025.004-.037a.123.123 0 0 1 .007-.027c.003-.006.005-.012.009-.017a.301.301 0 0 1 .026-.036.16.16 0 0 1 .116-.05l2.472-.008a.443.443 0 0 1 .381.188l.135.183c.108.146.241.172.398.08.216-.129.24-.377.07-.744a.57.57 0 0 0-.525-.337l-2.992.004a.777.777 0 0 0-.766.656c-.221 1.4-.077 2.522.433 3.365Z"/></svg>