<svg xmlns="http://www.w3.org/2000/svg" width="128" height="32" fill="none"><g clip-path="url(#a)"><path fill="#fff" fill-rule="evenodd" d="M20.968 26.53 11.634 2.49 2.244 26.53l4.326 4.257h10.145l4.253-4.257Zm-19.685.213L11.634.226l10.294 26.51-4.868 4.88H6.233l-4.95-4.871Zm3.826-5.02s4.44-2.066 5.844-1.156c1.997 1.306-3.695 6.135-5.183 7.397a15.26 15.26 0 0 0-.317.273l-2.085-2.092 1.74-4.421Zm6.944-16.077s-1.108 3.364-2.118 6.366c-1.412 4.167-.985 5.348.92 4.757.466-.142.91-.3 1.328-.45 2.036-.727 3.476-1.241 4.007 1.303.681 3.544-2.586 6.931-5.393 9.45-1.223 1.09-2.635 2.132-3.497 2.764h9.087l3.628-3.708-7.962-20.482Zm15.682 14.148a6.169 6.169 0 0 0 2.453.493c.586 0 1.157-.093 1.65-.324.54-.2.988-.462 1.373-.817a3.82 3.82 0 0 0 .926-1.248c.216-.463.324-.987.324-1.526 0-.54-.077-1.018-.247-1.403-.17-.4-.37-.74-.679-1.033a4.68 4.68 0 0 0-1.002-.74c-.386-.2-.756-.385-1.157-.54l-1.543-.616a18.49 18.49 0 0 0-.215-.093 6.17 6.17 0 0 1-.587-.277 3.475 3.475 0 0 1-.648-.462 2.385 2.385 0 0 1-.432-.601 1.838 1.838 0 0 1-.17-.786c0-.34.078-.632.201-.894.139-.278.309-.509.54-.71.231-.2.494-.354.787-.462a3.5 3.5 0 0 1 1.002-.154c.556 0 1.065.093 1.481.278.447.185.833.447 1.188.786l.864-.987a5.362 5.362 0 0 0-1.512-.97c-.54-.232-1.219-.34-2.005-.34-.556 0-1.08.077-1.558.262a3.973 3.973 0 0 0-1.25.724 3.56 3.56 0 0 0-.833 1.095 3.19 3.19 0 0 0-.308 1.372c0 .508.077.94.231 1.295.154.385.355.693.617.97.278.278.571.494.91.694.355.2.71.37 1.08.509l1.589.616c.324.124.617.263.895.401.277.139.524.324.725.509.2.185.37.4.493.663.124.277.185.57.185.91 0 .384-.061.708-.2 1.047-.14.34-.324.632-.571.863a2.76 2.76 0 0 1-.91.57 3.32 3.32 0 0 1-1.188.216c-.71 0-1.373-.154-1.974-.462a4.696 4.696 0 0 1-1.497-1.248l-1.018.863c.556.693 1.234 1.233 1.99 1.557Zm8.546-13.24h4.288c.447 0 .88.03 1.296.107a4.35 4.35 0 0 1 1.095.34c.602.323 1.11.785 1.527 1.402.417.617.617 1.372.617 2.25 0 .509-.062 1.002-.2 1.434a4.787 4.787 0 0 1-.54 1.171c-.232.34-.478.632-.771.879a3.384 3.384 0 0 1-.942.54 5.037 5.037 0 0 1-.94.2c-.324.03-.725.046-1.219.046H37.7v5.117h-1.404l-.015-13.487Zm4.211 7.182c.355 0 .648 0 .88-.015.215-.016.447-.062.693-.154.216-.078.432-.2.617-.37a3.39 3.39 0 0 0 .51-.617c.154-.246.262-.524.354-.832.093-.308.124-.648.124-1.018 0-.662-.124-1.217-.386-1.633-.262-.417-.57-.74-.972-.956-.432-.247-1.033-.37-1.774-.37H37.67v5.98l2.823-.015Zm14.7 5.118h-8.33l.016 1.202h8.314v-1.202Zm0-12.3h-8.314v1.202h8.314V6.553Zm-.324 5.964h-7.99v1.218h7.99v-1.218Zm7.39-6.597 6.03 14.12h-1.542L62.257 9.311 57.722 20.04H56.18l6.078-14.119Zm7.434 14.12h1.404l.015-12.316h3.41c.354 0 .662.015.971.077.293.046.57.138.818.277.416.247.756.57.987 1.002.232.432.355.971.355 1.603 0 .34-.046.663-.123.971a3.15 3.15 0 0 1-.324.863 2.947 2.947 0 0 1-.51.632c-.2.17-.416.293-.648.37-.277.093-.54.139-.771.154-.262.016-.586.016-.987.016v1.202l.808 1.285.003.004c.27.427.539.854.809 1.285.309.51.63 1.008.95 1.508.224.348.448.697.67 1.05h1.68c-.273-.432-.547-.858-.82-1.283l-.001-.001a187.2 187.2 0 0 1-.844-1.32c-.398-.63-.803-1.25-1.211-1.875l-.486-.745c.401-.031.771-.155 1.157-.355.401-.2.74-.478 1.033-.832.309-.355.54-.802.74-1.295.201-.493.294-1.048.294-1.665 0-.848-.2-1.603-.602-2.235a3.893 3.893 0 0 0-1.573-1.433 3.999 3.999 0 0 0-1.126-.355 8.418 8.418 0 0 0-1.265-.092h-4.813V20.04Zm23.339-1.188h8.33v1.187h-8.315l-.015-1.186Zm.015-12.3h8.315v1.203h-8.315V6.553Zm7.991 5.965h-7.99v1.218h7.99v-1.218Zm-11.6 0V6.553h1.404V20.04h-1.404v-6.304H82.17v6.304h-1.388V6.553h1.388v5.965h7.266Zm19.05-6.597 6.031 14.12h-1.542l-4.489-10.729-4.52 10.728h-1.542l6.062-14.119Zm11.245.632h-3.81l.016 13.457h3.84c.448 0 .849 0 1.204-.031a4.265 4.265 0 0 0 1.033-.17 7.062 7.062 0 0 0 1.975-.863 5.942 5.942 0 0 0 1.588-1.449 6.628 6.628 0 0 0 1.049-1.927 7.076 7.076 0 0 0 .371-2.327c0-.879-.139-1.726-.417-2.45-.278-.725-.663-1.404-1.142-1.958a5.877 5.877 0 0 0-1.696-1.388 6.995 6.995 0 0 0-2.082-.74 7.371 7.371 0 0 0-1.019-.123l-.211-.009a16.982 16.982 0 0 0-.699-.022Zm1.049 12.27c-.339.015-.694.03-1.08.03h-2.36V7.757h2.36c.265 0 .558.014.865.028l.045.002c.34.031.633.062.895.124a5.531 5.531 0 0 1 1.651.662c.509.293.941.694 1.296 1.157.354.462.616 1.001.817 1.603.2.6.293 1.279.293 2.003 0 .663-.093 1.295-.278 1.865a5.483 5.483 0 0 1-.786 1.557 4.526 4.526 0 0 1-1.219 1.203 4.847 4.847 0 0 1-1.573.709 5.794 5.794 0 0 1-.926.154Zm-24.06 12.821a2.69 2.69 0 0 1-.6-.103 2.205 2.205 0 0 1-.646-.271 2.551 2.551 0 0 1-.524-.412 1.857 1.857 0 0 1-.318-.561 2.024 2.024 0 0 1-.113-.496 3.555 3.555 0 0 1 0-.552V25.18h.665v4.481c.011.126.034.251.065.374.11.305.321.563.6.73.15.097.314.17.487.215.13.044.265.072.402.084v.58h-.018Zm.337-.57c.13-.01.26-.04.384-.085.171-.049.335-.121.487-.215.138-.085.261-.193.365-.318.1-.12.173-.26.215-.412.035-.12.06-.241.075-.364v-4.472h.646v4.593c-.009.17-.044.337-.103.496a1.864 1.864 0 0 1-.328.561c-.143.174-.318.32-.515.43a2.052 2.052 0 0 1-.655.262c-.185.06-.378.094-.571.103v-.58Zm-9.411-5.314h1.704v5.81h.665v-5.81h1.695v-.57h-4.064v.57Zm14.402-.57h1.797c.137-.01.275-.01.412 0 .161.014.32.04.478.074.33.066.646.186.936.356.303.167.574.389.796.654.227.283.41.598.543.936a3.602 3.602 0 0 1 .01 2.264 3.13 3.13 0 0 1-.496.935 2.82 2.82 0 0 1-.74.674 3.12 3.12 0 0 1-1.424.495h-2.444l.132-6.389Zm1.788 5.818c.168.015.337.015.505 0 .147-.005.292-.03.431-.075.266-.072.517-.193.74-.355.22-.156.412-.345.571-.562a2.45 2.45 0 0 0 .375-.73c.083-.285.127-.581.131-.879 0-.316-.044-.631-.131-.935a2.575 2.575 0 0 0-.384-.749 2.636 2.636 0 0 0-.609-.551 3.292 3.292 0 0 0-.787-.319 4.225 4.225 0 0 0-.421-.056h-1.545v5.239h1.124v-.028Zm6.845-5.819h-.664v6.38h.664v-6.38Zm-27.801 6.455a2.862 2.862 0 0 1-1.162-.234 2.364 2.364 0 0 1-.936-.73l.477-.393c.187.244.423.445.694.59.288.15.61.228.936.224.192.003.381-.029.562-.093.152-.066.291-.158.412-.272.114-.113.206-.246.271-.392.068-.157.103-.326.103-.496a.933.933 0 0 0-.093-.421 1.12 1.12 0 0 0-.234-.328 1.882 1.882 0 0 0-.346-.233l-.422-.178-.75-.29a5.03 5.03 0 0 1-.505-.243 1.631 1.631 0 0 1-.721-.786 1.34 1.34 0 0 1-.112-.608 1.8 1.8 0 0 1 .13-.636c.09-.2.225-.376.394-.515.18-.15.382-.27.6-.355.234-.084.481-.125.73-.122.319-.006.637.047.936.16.261.107.502.259.712.448l-.394.459a1.76 1.76 0 0 0-.561-.365 1.647 1.647 0 0 0-.703-.131 1.18 1.18 0 0 0-.458.084 1.075 1.075 0 0 0-.375.224.865.865 0 0 0-.243.337.935.935 0 0 0-.094.412.787.787 0 0 0 .084.374c.051.106.12.2.206.28.101.08.207.152.319.216.12.064.246.12.374.168l.721.29c.182.078.36.165.534.262.351.185.63.481.796.842.084.211.125.437.122.664a1.87 1.87 0 0 1-.15.72 1.878 1.878 0 0 1-1.067.964c-.258.065-.522.1-.787.103Zm32.792-5.744a2.5 2.5 0 0 1 .824-.215v-.59a3.183 3.183 0 0 0-1.039.244 3.33 3.33 0 0 0-1.751 1.75 3.287 3.287 0 0 0 0 2.572c.157.387.393.737.692 1.029.3.298.657.534 1.05.692.335.13.689.21 1.048.234v-.57a2.435 2.435 0 0 1-.824-.207 2.55 2.55 0 0 1-.833-.58 2.604 2.604 0 0 1-.534-.86 2.708 2.708 0 0 1-.197-1.03 2.81 2.81 0 0 1 .731-1.87c.23-.259.515-.463.833-.599Zm1.208-.215v-.561c.367.022.728.104 1.068.243a3.248 3.248 0 0 1 2.061 3.021 3.241 3.241 0 0 1-2.061 3.022 3.75 3.75 0 0 1-1.077.234v-.57c.288-.035.571-.104.842-.207 2.154-.748 2.192-3.975 0-4.967a2.426 2.426 0 0 0-.833-.215Zm6.854 5.725c.364.158.756.238 1.152.234.278-.002.555-.037.824-.103a1.878 1.878 0 0 0 1.068-.964c.09-.23.138-.473.14-.72a1.574 1.574 0 0 0-.121-.664 1.734 1.734 0 0 0-.328-.487 1.954 1.954 0 0 0-.459-.355 4.928 4.928 0 0 0-.543-.262l-.721-.29a3.078 3.078 0 0 1-.365-.168 2.635 2.635 0 0 1-.319-.215.93.93 0 0 1-.215-.281.936.936 0 0 1 0-.786.873.873 0 0 1 .243-.337c.108-.1.236-.176.375-.224.145-.058.301-.087.459-.084.237-.005.473.04.693.13a1.8 1.8 0 0 1 .571.365l.393-.458a2.465 2.465 0 0 0-.712-.449 2.556 2.556 0 0 0-.936-.159 2.067 2.067 0 0 0-.731.122c-.217.084-.42.204-.598.355a1.647 1.647 0 0 0-.394.515 1.803 1.803 0 0 0-.131.636c-.01.208.028.417.113.608.145.335.398.612.72.785.164.093.332.174.506.244l.749.29.422.177c.124.065.24.144.346.234.097.094.177.205.234.328a.93.93 0 0 1 .094.42 1.28 1.28 0 0 1-.103.496c-.069.145-.16.278-.272.393a1.567 1.567 0 0 1-.412.272 1.655 1.655 0 0 1-.571.093 1.939 1.939 0 0 1-.936-.224 2.175 2.175 0 0 1-.703-.59l-.468.393c.245.319.567.57.936.73Z" clip-rule="evenodd"/></g><defs><clipPath id="a"><path fill="#fff" d="M.857.001h126.286v32H.857z"/></clipPath></defs></svg>