<svg xmlns="http://www.w3.org/2000/svg" width="140" height="22" fill="none"><path fill="#fff" fill-rule="evenodd" d="M34.795 10.162c.843.132 1.672.345 2.475.635 1.925.762 2.417 1.166 2.519 2.734.102 2.084-1.785 2.68-2.404 2.876a8.588 8.588 0 0 1-5.563-.146 3.255 3.255 0 0 1-2.216-3.509.311.311 0 0 1 .335-.275.313.313 0 0 1 .275.336 2.638 2.638 0 0 0 1.818 2.877 7.946 7.946 0 0 0 5.162.137c1.419-.448 2.026-1.144 1.969-2.258-.06-1.235-.3-1.482-2.12-2.2a12.833 12.833 0 0 0-2.368-.602 12.293 12.293 0 0 1-2.75-.745c-.867-.385-1.879-1.01-2.013-2.426a2.45 2.45 0 0 1 1.58-2.593 7.906 7.906 0 0 1 6.05 0 2.912 2.912 0 0 1 1.898 2.882.32.32 0 0 1-.316.3.308.308 0 0 1-.278-.314 2.277 2.277 0 0 0-1.512-2.299 7.31 7.31 0 0 0-5.602 0 1.837 1.837 0 0 0-1.196 1.96c.085.875.577 1.45 1.65 1.926.838.336 1.713.572 2.607.704Zm10.186-.886c.55-.589 1.12-1.197 2.093-1.414 1.694-.38 3.187-.02 4.232 1.007 1.083 1.1 1.507 2.865 1.1 4.614-.534 2.285-1.837 3.317-4.208 3.317h-.275c-1.413-.047-2.563-.638-3.264-1.61-.137.871-.175 1.754-.115 2.633l.002.064c.016.555.032 1.13-.002 1.698a.31.31 0 0 1-.308.29h-.02a.308.308 0 0 1-.288-.328c.034-.549.017-1.123.001-1.66l-.001-.045a18.024 18.024 0 0 1 0-1.848v-2.819a7.224 7.224 0 0 1 0-1.336V9.364a2.587 2.587 0 0 1 0-.636.249.249 0 0 1 0-.044v-.45a.3.3 0 0 1 0-.133.308.308 0 0 1 .6.033 2.55 2.55 0 0 1 0 .647c-.057.26-.021.533.1.77.012.02.022.043.028.066.11-.113.218-.226.325-.341Zm2.953 6.905c2.25.069 3.364-.748 3.85-2.835.36-1.543 0-3.091-.93-4.04-.865-.872-2.155-1.172-3.635-.842-.786.176-1.267.685-1.776 1.235a6.387 6.387 0 0 0-.199.207l-.18.19a.309.309 0 0 1-.245.09 9.259 9.259 0 0 0-.275 3.039c.2 1.762 1.498 2.895 3.39 2.956Zm72.169-8.126c-1.237-.427-3.052-.803-4.491.85-.079.09-.167.176-.254.26l-.037.036-.11.108a.392.392 0 0 0-.055-.097c-.113-.129-.105-.275-.08-.55a1.75 1.75 0 0 0 0-.55.318.318 0 0 0-.046-.11.308.308 0 0 0-.428-.082.302.302 0 0 0-.131.317v.33a.247.247 0 0 0 0 .038 1.791 1.791 0 0 0 0 .517l-.019 3.261v-.052c-.013.446-.009.89-.004 1.332v.001c.002.22.004.44.004.658.014.704.027 1.435 0 2.145a.309.309 0 0 0 .297.322h.014a.313.313 0 0 0 .308-.298c.018-.487.012-.979.006-1.465v-.004c-.003-.24-.006-.479-.006-.714-.028-1.469-.055-2.986.275-4.447a.3.3 0 0 0 .242-.085l.143-.14c.11-.105.225-.215.332-.338.919-1.06 2.099-1.265 3.823-.669 1.309.451 1.543 1.452 1.501 2.92-.031 1.08-.025 2.174-.02 3.239l.001.2v1.49a.307.307 0 0 0 .308.308.308.308 0 0 0 .308-.308v-1.496l-.002-.842v-.001c-.003-.853-.006-1.72.019-2.573.06-1.389-.135-2.901-1.898-3.511ZM68.887 11.26c.002.47-.014.946-.03 1.405a14.54 14.54 0 0 0 .167 3.446.307.307 0 0 1-.24.366h-.063a.311.311 0 0 1-.302-.248 15.114 15.114 0 0 1-.17-3.597c.016-.445.03-.915.03-1.375 0-1.24-.242-2.164-1.375-2.629a3.71 3.71 0 0 0-3.559.29 5.105 5.105 0 0 0-.825.678l-.062.059a9.3 9.3 0 0 1-.325.296.296.296 0 0 1-.204.074v5.286c-.048.35-.004.708.127 1.037a.313.313 0 0 1-.138.415.31.31 0 0 1-.415-.137 2.618 2.618 0 0 1-.193-1.34V8.184a.31.31 0 1 1 .619 0v1.12l.165-.152a5.96 5.96 0 0 1 .913-.756 4.365 4.365 0 0 1 4.125-.336c1.537.633 1.754 1.972 1.754 3.201ZM96.394 7.91c-1.248-.503-2.808-.104-3.877.993l-.305.303-.154.154a.32.32 0 0 0-.05.074c-.877-1.139-1.991-1.766-3.121-1.74-1.015 0-1.966.55-2.712 1.5a.715.715 0 0 1-.063-.51 1.844 1.844 0 0 0 0-.55.308.308 0 1 0-.605.123v.368a1.929 1.929 0 0 0 0 .517l-.025 3.443.02-.107v4.021a.312.312 0 0 0 .604.127.312.312 0 0 0 .014-.127v-4.846c0-.69 0-1.342.396-1.897.65-.919 1.49-1.433 2.376-1.447.938-.025 1.857.512 2.61 1.477v6.704a.312.312 0 0 0 .31.34.31.31 0 0 0 .309-.34V9.834a.305.305 0 0 0 .371-.044l.151-.15.079-.079c.078-.078.156-.155.232-.235.9-.919 2.2-1.26 3.207-.85 1.1.44 1.553 1.248 1.515 2.626-.036 1.26-.028 2.538-.02 3.776v1.614a.308.308 0 0 0 .616 0v-1.617l-.001-.889v-.001c-.003-.951-.006-1.917.02-2.866.053-1.631-.569-2.682-1.897-3.21Zm42.649-3.325a.31.31 0 0 1 .437 0c.057.058.09.137.09.218V16.49a.307.307 0 0 1-.08.238.305.305 0 0 1-.23.102.307.307 0 0 1-.229-.102.307.307 0 0 1-.08-.238V4.802a.313.313 0 0 1 .092-.218ZM107.758 7.89c-2.838-.707-4.815.795-5.453 2.491-.875 2.316-.063 4.917 1.845 5.921a4.677 4.677 0 0 0 2.173.55c1.474 0 2.89-.759 3.921-2.2a.299.299 0 0 0 .054-.23.304.304 0 0 0-.124-.2.31.31 0 0 0-.342-.012.293.293 0 0 0-.088.082c-1.348 1.864-3.43 2.434-5.305 1.444-1.133-.597-1.81-1.865-1.865-3.265h7.555a.31.31 0 0 0 .305-.275c.294-2.194-.704-3.814-2.676-4.306Zm2.093 3.984h-7.263c.04-.436.139-.866.294-1.276a3.629 3.629 0 0 1 3.487-2.269c.418.003.834.056 1.238.16 1.584.394 2.39 1.62 2.244 3.385ZM57.005 11.2l-.002.118a36.46 36.46 0 0 0 .163 5.142.31.31 0 0 1-.275.347h-.039a.313.313 0 0 1-.308-.275 36.966 36.966 0 0 1-.157-5.225 65.15 65.15 0 0 0 0-3.11.309.309 0 0 1 .616-.02 60.44 60.44 0 0 1 .002 3.023Zm19.828-3.475h-.036a.308.308 0 0 0-.113 0c-2.2.245-3.6 1.54-3.932 3.65-.333 2.109.346 3.728 1.944 4.768a4.464 4.464 0 0 0 2.475.74 5.444 5.444 0 0 0 2.129-.46c1.394-.59 2.2-1.85 2.398-3.742a4.582 4.582 0 0 0-1.323-3.8 4.23 4.23 0 0 0-3.542-1.156Zm4.238 4.892c-.176 1.675-.84 2.734-2.027 3.237-1.471.624-2.819.55-4.01-.228-1.4-.91-1.963-2.31-1.672-4.158.292-1.848 1.463-2.915 3.391-3.13.015.003.03.003.044 0 .04.009.08.009.118 0a3.611 3.611 0 0 1 3.025.985 3.976 3.976 0 0 1 1.13 3.294Zm53.403-3.267v2.134c.06.47.064.945.011 1.416v2.134a3.45 3.45 0 0 1 0 .825 3.427 3.427 0 0 0 0 .608.313.313 0 0 1-.159.307.315.315 0 0 1-.116.037h-.036a.306.306 0 0 1-.305-.275 3.91 3.91 0 0 1 0-.718c.04-.294.018-.592-.064-.877-.591.904-1.482 1.353-2.307 1.666a4.394 4.394 0 0 1-1.545.275c-.946 0-1.861-.33-2.588-.935-1.279-1.048-1.873-3.253-1.375-5.129a4.065 4.065 0 0 1 3.36-3.091.295.295 0 0 1 .13 0h.038c1.515-.187 2.926.284 3.85 1.29.145.159.277.329.393.509.117-.307.151-.639.099-.963a3.911 3.911 0 0 1 0-.717.312.312 0 0 1 .457-.234.3.3 0 0 1 .147.185c.011.04.014.08.01.12a3.427 3.427 0 0 0 0 .608 3.45 3.45 0 0 1 0 .825Zm-3.188 6.674c1.494-.558 2.214-1.328 2.489-2.656v-.006c.327-1.584.019-2.978-.85-3.921-.8-.875-1.98-1.263-3.333-1.1a.255.255 0 0 1-.112 0h-.025a3.45 3.45 0 0 0-2.868 2.642c-.44 1.656.071 3.586 1.171 4.491a3.47 3.47 0 0 0 3.528.55Z" clip-rule="evenodd"/><path fill="#fff" d="M.448 11.64.428.836C.453.624.532.42.659.248c.173-.129.375-.214.589-.247l10.396.037c1.952.241 3.808.979 5.393 2.142 2.55 1.913 4.033 4.685 4.033 4.685s.46.879.23 1.014-.63-.288-.63-.288-.669-.44-2.295-.936c-1.626-.496-10.793-.351-10.793-.351s-.516-.037-.65.345a1.216 1.216 0 0 0 0 .745s.114.306.69.306l10.61-.02a3.603 3.603 0 0 1 2.065.709 2.601 2.601 0 0 1 1.077 1.777l.032 11.282a.761.761 0 0 1-.196.363c-.154.153-.632.172-.632.172l-9.416.018s-3.347-.38-5.432-1.664c-2.085-1.282-3.957-3.554-4.722-4.874-.765-1.32-.439-1.491-.439-1.491s.133-.173.612.196a7.159 7.159 0 0 0 2.939 1.228c1.224.173 10.536.077 10.536.077s.323.096.44-.393c.115-.488-.04-.688-.04-.688s-.096-.197-.496-.197H3.43S.911 14.125.448 11.64Z"/></svg>