<svg xmlns="http://www.w3.org/2000/svg" width="134" height="26" fill="none"><path fill="#fff" fill-rule="evenodd" d="M8.32 12.112c-.108-1.156-1.352-1.51-2.76-1.91-1.844-.524-3.97-1.128-4.198-3.716-.168-1.883.296-3.397 1.391-4.541 2.355-2.464 6.294-1.8 9.183-.422.112.055.14.137.083.248L10.52 4.666a.216.216 0 0 1-.244.112.224.224 0 0 1-.087-.04c-1.105-.86-2.999-1.404-4.119-.34-.585.555-.313 1.38.31 1.78.259.168.534.294.828.38l.238.068c2.633.762 5.322 1.54 5.316 4.9-.004 2.526-1.036 4.233-3.096 5.124-2.898 1.253-6.246.644-8.84-1.073a.206.206 0 0 1-.086-.122.211.211 0 0 1 .018-.15l1.687-3.114a.124.124 0 0 1 .198-.03c.892.877 1.937 1.397 3.135 1.56 1.084.152 2.668-.283 2.54-1.61Zm12.743 1.427c3.002.555 3.681-1.57 3.684-3.962.002-2.975.002-5.866 0-8.675A.163.163 0 0 1 24.91.74h3.908c.117 0 .175.059.175.177.006 3.161.004 6.375-.006 9.64-.004.79-.088 1.556-.251 2.296-.92 4.187-5.82 5-9.284 4.19-3.826-.895-4.786-3.546-4.762-7.03.021-3.2.023-6.235.006-9.105 0-.112.056-.168.168-.168h3.906c.122 0 .182.06.18.18-.006 2.856-.004 5.787.006 8.792.003 1.584.257 3.484 2.107 3.827Zm14.879 3.152-.003-5.005c0-.11.056-.165.168-.165.281 0 .565.004.85.007 1.631.023 3.295.046 4.72-.666 2.053-1.025 2.632-3.303 2.44-5.463C43.86 2.474 41.771.796 38.84.757a344.137 344.137 0 0 0-7.067-.012.082.082 0 0 0-.08.083v15.845c0 .136.068.204.204.204l3.859-.003c.124 0 .186-.06.186-.183Zm-.003-8.686v-3.77a.118.118 0 0 1 .118-.118h1.77c.5 0 .98.184 1.335.511.354.327.553.772.553 1.235v.514c0 .463-.2.907-.553 1.235a1.969 1.969 0 0 1-1.335.511h-1.77a.118.118 0 0 1-.118-.118Zm14.37-3.62-.002 2.497a.1.1 0 0 0 .1.1h4.598a.1.1 0 0 1 .1.1l.006 3.343a.1.1 0 0 1-.1.1l-4.604-.003a.1.1 0 0 0-.1.1v2.615a.1.1 0 0 0 .1.1l4.86-.005a.1.1 0 0 1 .101.1l-.006 3.345a.1.1 0 0 1-.1.1h-9.139a.1.1 0 0 1-.1-.1V.84a.1.1 0 0 1 .1-.1h9.142a.1.1 0 0 1 .1.1v3.345a.101.101 0 0 1-.062.092.1.1 0 0 1-.038.008H50.41a.1.1 0 0 0-.1.1Zm11.928 12.306-.006-5.806c0-.195.053-.21.16-.047l3.84 5.945a.21.21 0 0 0 .175.094h5.035a.07.07 0 0 0 .056-.115l-4.964-6.388c-.069-.086-.048-.139.062-.156 2.73-.44 3.794-3.265 3.306-5.785C69.446 2.087 67.26.787 65.015.76a313.3 313.3 0 0 0-6.95-.012.077.077 0 0 0-.076.077v15.848a.204.204 0 0 0 .204.204l3.861-.003c.122 0 .183-.06.183-.183Zm-.012-8.82.018-3.84a.078.078 0 0 1 .024-.056.077.077 0 0 1 .056-.021l1.064.006c.588.003 1.152.2 1.567.545.414.346.645.813.643 1.299v.33c-.002.241-.06.48-.173.701a1.853 1.853 0 0 1-.486.592 2.301 2.301 0 0 1-.723.393c-.27.09-.56.136-.852.134l-1.064-.005a.077.077 0 0 1-.074-.077Zm70.809 8.938a.107.107 0 0 1-.032.078.108.108 0 0 1-.077.032H72.321a.11.11 0 0 1-.11-.11V.85a.11.11 0 0 1 .11-.11h60.604c.029 0 .057.012.077.033.021.02.032.048.032.077v15.96ZM96.427 8.801a6.674 6.674 0 0 0-.562-2.666 6.958 6.958 0 0 0-1.593-2.258A7.367 7.367 0 0 0 91.89 2.37a7.66 7.66 0 0 0-2.806-.526 7.661 7.661 0 0 0-2.804.536 7.366 7.366 0 0 0-2.376 1.515 6.958 6.958 0 0 0-1.585 2.264 6.675 6.675 0 0 0-.553 2.668c.001.915.193 1.821.563 2.666.37.845.91 1.613 1.592 2.259a7.367 7.367 0 0 0 2.381 1.506 7.66 7.66 0 0 0 2.806.526 7.66 7.66 0 0 0 2.805-.535 7.366 7.366 0 0 0 2.375-1.515 6.957 6.957 0 0 0 1.585-2.264 6.674 6.674 0 0 0 .553-2.669Zm35.056-.025a6.663 6.663 0 0 0-.572-2.662 6.956 6.956 0 0 0-1.601-2.251 7.369 7.369 0 0 0-2.386-1.497 7.665 7.665 0 0 0-2.808-.516 7.665 7.665 0 0 0-2.802.545 7.358 7.358 0 0 0-2.37 1.522 6.941 6.941 0 0 0-1.577 2.268 6.647 6.647 0 0 0 .028 5.33 6.937 6.937 0 0 0 1.6 2.25 7.369 7.369 0 0 0 2.386 1.498 7.672 7.672 0 0 0 5.611-.03 7.38 7.38 0 0 0 2.37-1.522 6.956 6.956 0 0 0 1.577-2.267 6.658 6.658 0 0 0 .544-2.668Zm-54.15 3.675a.103.103 0 0 1-.104-.103l.003-9.957a.103.103 0 0 0-.104-.103l-3.194.006a.103.103 0 0 0-.103.103v12.826a.103.103 0 0 0 .103.103l7.33.003a.103.103 0 0 0 .104-.103v-2.674a.103.103 0 0 0-.103-.104l-3.933.003Zm22.37-7.28a.091.091 0 0 1 .093.092v9.969a.092.092 0 0 0 .091.091l3.253.009a.092.092 0 0 0 .092-.092l-.003-9.977c0-.024.009-.048.026-.065a.094.094 0 0 1 .065-.027h2.621a.092.092 0 0 0 .092-.092l.005-2.697a.092.092 0 0 0-.026-.065.094.094 0 0 0-.065-.026h-8.9a.091.091 0 0 0-.09.091L96.95 5.08a.092.092 0 0 0 .092.091h2.662Zm13.757.089a.09.09 0 0 1 .089-.089h2.629a.09.09 0 0 0 .089-.088l.003-2.704a.09.09 0 0 0-.089-.089h-8.911a.087.087 0 0 0-.062.027.087.087 0 0 0-.026.062v2.704c0 .023.009.046.026.062a.087.087 0 0 0 .062.026h2.668a.09.09 0 0 1 .089.089l-.003 9.975a.08.08 0 0 0 .007.033.07.07 0 0 0 .007.014.06.06 0 0 0 .012.015.06.06 0 0 0 .01.009l.005.003a.084.084 0 0 0 .048.014l3.259.006a.092.092 0 0 0 .034-.007l.003-.001.004-.002.011-.007.01-.009a.072.072 0 0 0 .019-.029l.003-.006.001-.005a.083.083 0 0 0 .003-.023V5.26Zm10.865 7.184c2.054-.097 3.641-1.81 3.546-3.829-.095-2.018-1.837-3.575-3.891-3.478-2.053.097-3.641 1.811-3.546 3.83.095 2.017 1.837 3.574 3.891 3.477ZM92.814 8.833c-.021 2.018-1.704 3.637-3.758 3.615-2.055-.021-3.703-1.675-3.681-3.693.02-2.019 1.703-3.638 3.757-3.616 2.055.022 3.703 1.675 3.682 3.694ZM75.678 23.265l1.09.003c.147.002.196.072.144.21-.218.587-.64.885-1.264.895-1.51.02-1.983-1.599-1.578-2.825.325-.984 1.342-1.376 2.249-.907.237.123.368.337.501.554l.054.087c.061.1.145.128.251.083l1.209-.511a.172.172 0 0 0 .082-.24c-1.273-2.328-5.013-2.035-5.959.444-1.058 2.771 1.238 5.315 4.101 4.52 1.485-.411 2.248-1.54 2.29-3.386.002-.12-.057-.18-.177-.18h-2.955c-.099 0-.148.05-.148.148l-.003.993c0 .075.038.112.112.112Zm55.368-.035c-.288-.158-.604-.26-.91-.36-.795-.258-1.526-.495-1.543-1.608-.038-2.393 2.435-2.482 4.03-1.752.115.05.141.13.08.24l-.529.939c-.055.1-.128.115-.218.044-.408-.32-1.495-.535-1.64.207a.401.401 0 0 0 .286.464l.124.034c1.134.315 2.433.677 2.302 2.187-.21 2.388-2.94 2.408-4.538 1.41-.104-.065-.126-.15-.065-.254l.55-.97c.063-.112.143-.127.242-.044.467.4 1.362.768 1.911.316a.507.507 0 0 0 .186-.449.514.514 0 0 0-.268-.404ZM89.57 24.413c.255 0 .506.001.75.007a.219.219 0 0 1 .198.145l.254.703a.302.302 0 0 0 .308.216h1.255c.19 0 .25-.088.183-.263l-2.165-5.69a.452.452 0 0 0-.423-.29l-1.315.003c-.116 0-.194.053-.236.16l-2.302 5.917c-.043.109-.006.163.11.163h1.436c.12 0 .195-.058.224-.174a6.41 6.41 0 0 1 .19-.582c.086-.229.245-.34.475-.331.356.015.71.016 1.058.016Zm-.884-1.326a.093.093 0 0 1 .003-.044l.547-1.651a.091.091 0 0 1 .138-.043c.015.01.027.025.033.043l.565 1.646a.092.092 0 0 1-.012.082.092.092 0 0 1-.074.039l-1.108.006a.092.092 0 0 1-.093-.078Zm16.179-.986-1.155 2.724c-.408.965-.809.962-1.205-.009l-1.085-2.665c-.072-.175-.123-.17-.15.018l-.479 3.217c-.01.064-.047.095-.112.095l-1.412.006a.108.108 0 0 1-.083-.04.108.108 0 0 1-.024-.087l1.022-5.93c.022-.124.096-.186.222-.186l1.226-.003a.297.297 0 0 1 .278.19l1.067 2.803c.096.248.194.25.292.003l1.149-2.848a.216.216 0 0 1 .216-.145l1.335-.006c.043 0 .084.015.115.043a.181.181 0 0 1 .06.108l.916 5.962a.137.137 0 0 1-.003.05.121.121 0 0 1-.024.043.115.115 0 0 1-.089.04h-1.409c-.067 0-.104-.034-.112-.1l-.42-3.265c-.021-.174-.067-.18-.136-.018Zm13.73 2.02h-1.719a.127.127 0 0 1-.127-.123l-.015-.816c0-.09.045-.136.136-.136h1.628c.067 0 .1-.033.1-.1l-.009-1.161a.104.104 0 0 0-.033-.076.109.109 0 0 0-.076-.03l-1.628.008c-.081 0-.12-.04-.118-.12l.021-.87c.002-.059.032-.088.091-.088.593 0 1.183-.001 1.77-.003.057 0 .086-.029.086-.086l.003-1.182a.094.094 0 0 0-.028-.068.096.096 0 0 0-.07-.03l-3.356.004c-.111 0-.166.055-.166.165v5.927c0 .04.016.077.043.105a.15.15 0 0 0 .105.043h3.398c.047 0 .071-.025.071-.074l.003-1.179a.111.111 0 0 0-.032-.077.112.112 0 0 0-.078-.032Z" clip-rule="evenodd"/></svg>