<svg xmlns="http://www.w3.org/2000/svg" width="132" height="24" fill="none"><path fill="#fff" d="m9.907 7.712-8.497.294a.534.534 0 0 0-.384.181.534.534 0 0 0-.15.353l.155 2.316a.533.533 0 0 0 .534.507h2.31l.535 10.876a.534.534 0 0 0 .181.38.533.533 0 0 0 .4.138l2.61-.176a.534.534 0 0 0 .534-.534L7.815 11.3l2.29-.027a.532.532 0 0 0 .389-.176.534.534 0 0 0 .144-.406l-.155-2.47a.535.535 0 0 0-.576-.508Zm9.905.71-2.573-.139a.534.534 0 0 0-.533.534l-.038 5.673-1.12.24-.283-6.436a.534.534 0 0 0-.534-.534l-2.535.064a.533.533 0 0 0-.534.534l.422 14.33a.534.534 0 0 0 .534.533l2.535-.064a.533.533 0 0 0 .39-.16.534.534 0 0 0 .16-.39l-.278-4.803.993.07.176 4.27a.534.534 0 0 0 .15.4.533.533 0 0 0 .389.17l2.668.182h.032a.534.534 0 0 0 .534-.534V8.945a.534.534 0 0 0-.534-.566l-.021.043Zm9.537-1.2-2.322.175a.534.534 0 0 0-.501.534v10.14c0 .694.074 1.863-.689 1.895-.534 0-.704-.742-.715-1.825 0-1.217.09-9.548.09-9.607a.534.534 0 0 0-.485-.533l-2.668-.283a.533.533 0 0 0-.598.533s.101 10.493.107 10.861a3.81 3.81 0 0 0 4.03 3.736c3.308-.09 3.906-2.06 4.108-4.36.086-.956.24-9.703.251-10.674a.535.535 0 0 0-.17-.4.534.534 0 0 0-.438-.193Zm10.284.57-2.428.118a.534.534 0 0 0-.38.181.582.582 0 0 0-.138.4l.4 6.72-2.513-6.938a.533.533 0 0 0-.566-.352l-2.434.266a.534.534 0 0 0-.485.534l.4 13.246a.534.534 0 0 0 .534.534l2.439.181a.534.534 0 0 0 .421-.154.535.535 0 0 0 .166-.417l-.406-5.78 2.108 6.02a.534.534 0 0 0 .48.358h2.605a.534.534 0 0 0 .352-.15.571.571 0 0 0 .17-.4l-.154-13.822a.533.533 0 0 0-.17-.39.571.571 0 0 0-.4-.155Zm3.256-.282h-.534a.534.534 0 0 0-.534.533l-.437 13.764a.533.533 0 0 0 .501.534s.32.026.806.026c1.708 0 5.79-.31 6.73-3.202.785-2.385.656-5.646.459-7.2-.368-2.982-2.663-4.455-6.991-4.455Zm3.634 9.072c-.288 2.327-1.02 2.471-1.82 2.749l.374-8.646a1.48 1.48 0 0 1 1.067.662c.672.87.662 2.956.379 5.23v.005Zm11.34 3.368-3.201.25-.15-2.977 2.066-.118a.533.533 0 0 0 .533-.485l.193-1.83a.534.534 0 0 0-.145-.433.532.532 0 0 0-.426-.171l-2.242.117V11.06h3.314a.534.534 0 0 0 .534-.534.966.966 0 0 0 0-.123l-.187-1.942a.534.534 0 0 0-.56-.491l-6.063.149a.534.534 0 0 0-.534.534l.192 13.614a.534.534 0 0 0 .534.534h6.132a.534.534 0 0 0 .534-.534l.048-1.777a.533.533 0 0 0-.17-.411.535.535 0 0 0-.401-.133v.005Zm9.917-8.005c-.134-1.911-.795-4.446-4.953-4.446a16.544 16.544 0 0 0-3.111.347.534.534 0 0 0-.438.533l.192 13.343a.534.534 0 0 0 .502.533l1.91.15a.533.533 0 0 0 .412-.144.532.532 0 0 0 .176-.4v-4.27l.97-.053 1.068 4.6a.534.534 0 0 0 .534.443h.043l1.91-.15a.534.534 0 0 0 .497-.635l-1.356-5.118c.955-.752 1.836-2.065 1.644-4.718v-.016Zm-3.448 1.878a2.946 2.946 0 0 1-1.868.731v-3.912c.175-.038.355-.058.534-.058.731 0 1.601.325 1.74 1.889a1.687 1.687 0 0 1-.406 1.366v-.016Zm10.727 2.039a10.871 10.871 0 0 0 2.578-7.675.535.535 0 0 0-.582-.533l-2.268.15a.534.534 0 0 0-.534.58c.08 1.196-.71 3.737-1.846 5.338l.165-5.193a.532.532 0 0 0-.16-.395.534.534 0 0 0-.395-.16l-2.924.043a.534.534 0 0 0-.499.345.534.534 0 0 0-.035.21l.32 13.844a.533.533 0 0 0 .192.4.534.534 0 0 0 .427.128l2.28-.304a.533.533 0 0 0 .474-.534l.038-4.04c.464.277 1.82 2.241 2.049 4.184a.533.533 0 0 0 .534.48h2.433a.534.534 0 0 0 .352-.165.533.533 0 0 0 .155-.395c-.01-.518-.827-4.755-2.754-6.308Zm6.8-8.475-2.6.336a.534.534 0 0 0-.475.534v13.507a.533.533 0 0 0 .177.4.535.535 0 0 0 .395.145l2.828-.208a.534.534 0 0 0 .507-.534l-.203-13.63a.534.534 0 0 0-.624-.534l-.005-.016Zm5.529.395c-.79.053-3.373.533-3.587 4.323 0 .485-.053.944-.08 1.382-.155 2.588-.267 4.461.064 6.084.203.971 1.009 3.202 4.216 3.202.198 0 .406 0 .614-.027 1.34-.112 2.332-.533 2.946-1.275.88-1.067.763-2.386.7-3.106v-.144a.531.531 0 0 0-.567-.502l-2.022.09a.532.532 0 0 0-.4.204.571.571 0 0 0-.118.432 2.349 2.349 0 0 1-.261 1.564.77.77 0 0 1-.636.261h-.026a.865.865 0 0 1-.683-.272c-.294-.31-.625-1.068-.534-2.925 0-.432.043-.934.064-1.467.053-1.388.117-2.968.245-3.955v-.016c.097-.752.24-1.067.87-1.1a1.068 1.068 0 0 1 .929.273c.159.246.216.545.16.832a.532.532 0 0 0 .112.449.534.534 0 0 0 .416.202l2.44.032a.533.533 0 0 0 .533-.533 3.981 3.981 0 0 0-1.067-2.711c-.945-.982-2.407-1.425-4.328-1.297Zm16.208 13.812c-.038-.16-1.068-4.27-3.229-6.245 1.067-.987 3.202-2.94 2.471-7.38a.534.534 0 0 0-.598-.454l-2.818.315a.534.534 0 0 0-.373.213.532.532 0 0 0-.102.417c0 .042.582 3.25-1.6 5.176l.053-5.47a.535.535 0 0 0-.182-.41.534.534 0 0 0-.427-.134l-2.818.315a.534.534 0 0 0-.485.533l.33 13.695a.533.533 0 0 0 .187.395c.104.092.24.14.38.133h.042l2.38-.267a.534.534 0 0 0 .486-.534l.197-4.269a9.378 9.378 0 0 1 2.215 4.44.533.533 0 0 0 .603.475l2.813-.315a.532.532 0 0 0 .47-.417.54.54 0 0 0 .005-.212ZM129.608 16.422l.736-5.14-3.079-6.447-2.092.715-2.727-2.924L117.642 0l-1.067 3.896-.747-2.044-3.704 3.618-2.076 3.603-.091 3.736-1.457-.694.993 6.03 2.257 3.87 5.337 1.825 4.361.16 7.514-2.738 2.161-5.337-1.515.497Zm-3.251-2.856-4.269.118-.155 4.803-.229 2.84-3.736-.038v-2.722l-.304-4.755-4.451.192-.155-4.6 6.559-.038 6.789-.192.117.614-.166 3.778Z"/></svg>