<svg xmlns="http://www.w3.org/2000/svg" width="102" height="32" fill="none"><path fill="#fff" fill-rule="evenodd" d="m12.828 31.686 2.026.11c0 .003 0 .005.007.005h.071c.047.002.094.003.142 0a603 603 0 0 0 .992-.058h.003a589.843 589.843 0 0 1 1.338-.078c.53-.03 1.057-.06 1.587-.08a.966.966 0 0 0 .611-.254c1.831-1.533 3.665-3.058 5.498-4.582l1.314-1.094a.454.454 0 0 0 .142-.22c.193-.59.388-1.18.584-1.769l.409-1.238c.05-.153.102-.306.154-.46.132-.384.264-.77.365-1.168.235-.92.459-1.844.682-2.767v-.001l.001-.001v-.004c.152-.623.303-1.246.457-1.867l.006-.024c.06-.241.115-.466-.02-.692a.056.056 0 0 1-.003-.01l-.001-.008-.004-.017-.406-1.418c-.74-2.586-1.482-5.173-2.224-7.757a.451.451 0 0 0-.113-.191c-.773-.722-1.55-1.442-2.326-2.16-.106-.099-.211-.2-.317-.301-.273-.263-.548-.526-.838-.75-.93-.716-1.866-1.415-2.803-2.114l-.836-.624a.198.198 0 0 0-.125-.047 4143.9 4143.9 0 0 0-8.747.016.253.253 0 0 0-.151.054c-.642.478-1.285.958-1.925 1.442-.154.118-.31.232-.465.346-.343.252-.686.504-1.014.792-.778.682-1.549 1.381-2.32 2.08l-1.115 1.01-.02.016a.944.944 0 0 1-.093.078c-.111.078-.207.166-.238.348-.008.052-.024.103-.04.153a2.2 2.2 0 0 0-.022.075L2.007 10.13v.003c-.35 1.225-.697 2.45-1.046 3.676-.172.61-.35 1.214-.53 1.82a.514.514 0 0 0-.007.278c.135.56.268 1.12.402 1.681.133.56.266 1.121.402 1.681l.106.452c.099.428.198.856.329 1.265.379 1.19.772 2.37 1.165 3.55v.001l.295.884c.025.076.074.15.125.193l1.457 1.216.662.552 1.738 1.445 3.187 2.65c.047.037.103.078.154.08.794.047 1.588.088 2.382.129Zm8.35-6.165-.009-.013-.005-.007V25.5l-.008-.012c-.648-1.02-1.296-2.04-1.947-3.068l.4-.332.488-.404a.142.142 0 0 1 .062-.031l.012-.004 1.312-.416h.001l.015-.006.02-.006h.001l1.308-.415.042-.01c.016-.004.033-.007.052-.013l-.015.299c-.013.267-.025.53-.04.793l-.04.743-.077 1.472-.012.233v.002c-.008.161-.015.322-.025.483a.287.287 0 0 1-.03.11l-.822 1.595a.297.297 0 0 1-.023.034l-.005.006-.656-1.032Zm-14.38-4.25-.026-.492.295.093h.001l.482.153 1.403.447.568.181.014.004c.022.007.045.013.062.027l.002.002.888.738-1.608 2.533-1.017 1.603a3.135 3.135 0 0 1-.06-.107c-.258-.498-.515-.997-.77-1.497a.548.548 0 0 1-.05-.201c-.035-.632-.069-1.266-.102-1.9l-.052-.997c-.012-.194-.021-.388-.03-.587Zm-.974-4.103-.055.075c-.19-.345-.38-.68-.568-1.011l-.474-.852v-.001h-.001v-.001c-.275-.494-.55-.987-.823-1.483a.732.732 0 0 1-.082-.27c-.05-.551-.096-1.104-.142-1.674l-.008-.105.918.341 3.34 1.242c-.026.095-.053.188-.08.28-.057.2-.113.395-.164.594a1.708 1.708 0 0 1-.277.595c-.417.59-.832 1.188-1.246 1.784l-.315.454-.023.032Zm18.09.08-.003.003a2.031 2.031 0 0 0-.058-.103l-.85-1.223-.001-.002-.85-1.222-.003-.005a.314.314 0 0 1-.056-.1l-.173-.61-.159-.56c1.42-.53 2.833-1.055 4.259-1.584l-.035.425v.001c-.02.243-.039.481-.06.718-.018.238-.039.478-.061.714a.333.333 0 0 1-.035.12l-.942 1.69-.003.004-.002.004-.938 1.684c-.004.01-.01.018-.03.045Zm-2.868 8.606.555.876-.316.082-.141.037-.45.114h-.002l-.001.001h-.001c-.225.058-.449.115-.673.17a.26.26 0 0 1-.13-.002c-1.117-.326-2.23-.659-3.344-.99-.015-.004-.03-.01-.046-.017a1.198 1.198 0 0 0-.022-.008l.008-.02a.393.393 0 0 1 .025-.052l1.048-1.817.443-.766a.376.376 0 0 1 .055-.078c.275-.232.55-.461.83-.693l.102-.084 2.06 3.247Zm-7.85.211.026.052-.097.03c-.16.048-.315.095-.466.146l-.388.116h-.001c-.814.243-1.628.485-2.443.719-.085.024-.181 0-.273-.023l-.023-.006c-.457-.113-.915-.23-1.372-.346a.204.204 0 0 1-.027-.011l-.033-.014 1.017-1.604.013-.02 1.582-2.495.308.258.615.513a.24.24 0 0 1 .05.066l1.513 2.62Zm5.582-19.77.046.068-.012.005c-.462.197-.91.388-1.357.581l-.509.218h-.002v.001h-.001c-.244.105-.488.21-.733.313a.432.432 0 0 1-.166.035c-.237.003-.476.002-.714.002H14.992V2.437a.367.367 0 0 1 .076.028c.239.12.478.24.718.358l.718.358a.303.303 0 0 1 .102.09c.508.705 1.014 1.41 1.52 2.115l.636.884.016.025Zm-4.075-3.86v5.083h-.253c-.294 0-.585.001-.876-.007a.431.431 0 0 1-.175-.06c-.02-.012-.042-.022-.063-.032l-1.19-.512-1.191-.511a.272.272 0 0 1-.103-.076l.04-.034a.419.419 0 0 0 .085-.083l.77-1.07.002-.003h.001c.436-.606.872-1.213 1.31-1.817a.488.488 0 0 1 .168-.146c.461-.234.92-.464 1.384-.693l.09-.04Zm11.18 9.018.044.046-1.292.481-.001.001c-.994.37-1.977.737-2.967 1.104l-.05-.166a54.353 54.353 0 0 1-.082-.292c-.051-.183-.103-.365-.158-.547a1.295 1.295 0 0 1-.053-.437c.041-.975.078-1.949.115-2.923.001-.035.004-.07.007-.107l.003-.05.448.2.001.001h.001l.332.149 1.244.561 1.244.563a.48.48 0 0 1 .17.141c.219.276.434.556.65.837l.296.384.048.054Zm-17.52.452c-.11.39-.22.78-.335 1.182-1.416-.527-2.823-1.05-4.244-1.575l.02-.03c.016-.025.03-.045.045-.065.324-.422.65-.845.977-1.265a.282.282 0 0 1 .102-.09c.876-.397 1.754-.792 2.632-1.187l.624-.28a.54.54 0 0 1 .061-.025c.003.087.008.174.012.26l.015.374.047 1.255v.001c.016.434.032.868.05 1.302v.016a.41.41 0 0 1-.007.127Zm6.63 9.83v-5.413c.455.715.907 1.428 1.358 2.14l.01.015.002.003 2.065 3.255h-3.434Zm-.297.002h-3.431c1.146-1.81 2.283-3.602 3.431-5.411v5.411Zm.294-6.443V8.588l.973.81.002.003c.602.502 1.203 1.003 1.808 1.505l-2.783 4.388Zm-.283-6.708v6.712l-.967-1.523-1.821-2.869c.551-.46 1.1-.916 1.65-1.373l.006-.005 1.132-.942Zm4.226 12.088-.255.901-1.076-1.696-.001-.002-.002-.002-.003-.006c-.784-1.235-1.566-2.467-2.356-3.715l1.243.463.005.002c1.088.405 2.167.808 3.253 1.21-.27.944-.536 1.886-.805 2.835l-.002.008v.002Zm-4.5-4.49c-1.136 1.793-2.27 3.582-3.419 5.391L9.952 17.83l2.812-1.047h.002l1.66-.618a.084.084 0 0 0 .008.02Zm-2.899-1.793-.004-.001-.012-.005-2.612-.972c.933-.775 1.85-1.538 2.77-2.306.662 1.04 1.321 2.08 1.98 3.12l.768 1.209a.17.17 0 0 1-.007.013l-.006.013-2.87-1.068-.004-.002h-.003Zm5.503-1.743.978-1.543.325.271c.814.678 1.623 1.352 2.447 2.035l-3.091 1.151-.003.001h-.002l-.01.004-2.398.893a.17.17 0 0 0-.006-.013l-.006-.013 1.764-2.784.002-.002Zm-2.74 3.16v.011c-1.478.552-2.957 1.102-4.448 1.652a5626.87 5626.87 0 0 1-.976-3.443l-.003-.01-.002-.008-.075-.265c1.237.462 2.466.919 3.692 1.375l.004.001h.002l1.808.674-.002.013Zm1.095.011c.002-.01.002-.016.002-.024l2.161-.804.007-.003.003-.001h.002l.002-.001.005-.002 3.321-1.235c-.354 1.254-.703 2.484-1.056 3.726a5247.89 5247.89 0 0 1-4.447-1.656Zm11.2-2.768.19-.344.287.407.001.001c.138.195.273.386.408.58.02.03.027.081.029.122.043.808.082 1.614.12 2.423l.014.285c.009.193.018.386.024.578a.225.225 0 0 1-.04.132c-.612.67-1.228 1.338-1.843 2.005l-.001.001-.05.055-.029.025a.654.654 0 0 0-.031.026 606.935 606.935 0 0 1 .226-2.729v-.004a662.551 662.551 0 0 0 .219-2.635.356.356 0 0 1 .035-.133c.145-.265.291-.528.44-.795ZM3.996 19.03l.027.33-.318-.344c-.122-.132-.241-.262-.361-.39l-.544-.593c-.24-.26-.478-.519-.716-.78a.234.234 0 0 1-.053-.146c.049-1.101.102-2.199.158-3.298.002-.037.008-.086.026-.11.182-.265.367-.527.554-.793l.136-.193a1.1 1.1 0 0 1 .047.074c.056.099.11.199.165.299.101.186.203.373.313.55.102.173.15.356.168.573.119 1.491.244 2.98.37 4.47l.028.35Zm19.278 7.194-.361.112c.022-.453.045-.888.07-1.319a.266.266 0 0 1 .032-.098l2.382-4.622a.429.429 0 0 1 .035-.061l.133.811.03.188.082.502c.077.48.154.959.235 1.436.014.094.006.16-.047.234-.349.484-.694.97-1.04 1.455v.001l-.001.001v.001h-.001v.002a403 403 0 0 1-.751 1.053c-.023.03-.052.07-.084.08-.236.076-.47.148-.709.222h-.001l-.002.001h-.001ZM4.257 20.272l.003-.011.006-.023.029.053c.012.022.023.041.032.061.28.546.562 1.091.843 1.636v.001l.002.004c.495.962.99 1.923 1.483 2.885.033.061.05.145.056.221.02.322.037.646.054.98l.013.253a20.293 20.293 0 0 1-.613-.183 9.657 9.657 0 0 1-.42-.133.266.266 0 0 1-.128-.098 611.87 611.87 0 0 1-1.8-2.534.266.266 0 0 1-.04-.154c.092-.577.185-1.153.279-1.73v-.001l.191-1.183a.647.647 0 0 1 .01-.044ZM21.827 5.71l.014-.028.113.016c.105.015.21.03.314.047l.689.104h.001c.46.07.918.138 1.377.204.121.016.208.068.285.21.266.479.534.955.801 1.43.227.404.454.807.678 1.211.031.054.05.14.048.207-.007.271-.019.544-.03.815l-.01.197c0 .026-.003.052-.005.081l-.005.052h-.003c-.031-.01-.057-.019-.083-.03-.112-.052-.224-.102-.337-.153a68.494 68.494 0 0 1-.65-.295.314.314 0 0 1-.12-.094l-1.514-1.96-1.514-1.962c-.011-.014-.026-.023-.041-.031l-.015-.008.007-.013ZM3.63 10.244l-.037.014a73.22 73.22 0 0 0-.031-.74c-.006-.15-.012-.3-.016-.452a.294.294 0 0 1 .032-.141C4.095 8 4.616 7.077 5.138 6.154c.022-.04.065-.074.1-.078.845-.132 1.69-.259 2.535-.386a.547.547 0 0 1 .055 0h.036a.624.624 0 0 0-.036.05 2534.113 2534.113 0 0 0-1.061 1.379v.001h-.001l-1.96 2.54a.402.402 0 0 1-.15.122c-.242.113-.485.222-.727.33a131.79 131.79 0 0 0-.299.132ZM15.98 1.883a.666.666 0 0 1 .012-.027c.332-.148.662-.293.997-.433.03-.014.072-.002.104.008.932.282 1.86.563 2.792.848a.197.197 0 0 1 .117.102c.304.725.605 1.45.905 2.173l.002.003.186.45c.005.01.009.022.014.037l.015.043-.037-.015-.055-.024c-.54-.27-1.082-.538-1.622-.807h-.001l-.002-.002c-.866-.43-1.732-.86-2.597-1.294a.477.477 0 0 1-.145-.129c-.234-.301-.466-.603-.698-.907l.013-.026ZM8.611 5.065a.555.555 0 0 0-.047.022c.025-.06.037-.094.05-.13.356-.855.711-1.708 1.064-2.563.029-.072.062-.11.119-.126l1.396-.422h.003l.002-.001h.002l.002-.001.002-.001h.002l1.4-.424c.03-.008.067-.016.096-.004.28.121.56.244.846.369l.16.07a1.769 1.769 0 0 0-.021.036c-.012.018-.022.035-.034.05l-.187.262c-.152.212-.304.423-.457.633a.299.299 0 0 1-.1.09c-1.22.61-2.441 1.218-3.663 1.825l-.608.302c-.008.005-.016.008-.027.013Zm6.718 23.674-.04-.03.097-.024c.27-.07.523-.134.772-.203l.847-.215h.001c.883-.223 1.765-.446 2.645-.675a.84.84 0 0 1 .517.004c.209.074.422.134.64.196.094.027.189.054.285.083l-.016.03a.823.823 0 0 1-.045.082l-.094.166c-.128.228-.256.455-.388.68a.285.285 0 0 1-.117.114c-.903.407-1.807.806-2.712 1.204-.041.017-.096.017-.133-.008-.498-.307-.995-.617-1.493-.926l-.747-.464a.37.37 0 0 1-.02-.014Zm-.972-.039.047.016-.21.13-.001.001c-.229.142-.449.279-.667.42-.467.29-.937.58-1.405.876a.16.16 0 0 1-.168.013l-1.147-.51h-.002v-.001a394.4 394.4 0 0 1-1.544-.687.284.284 0 0 1-.12-.113c-.18-.314-.358-.628-.545-.958l.097-.032a4.874 4.874 0 0 1 .348-.104c.161-.046.324-.091.484-.147a.8.8 0 0 1 .49-.012 1467.63 1467.63 0 0 0 4.343 1.108ZM9.738 8.14h.001v-.001l.018-.056c.585.919 1.163 1.83 1.742 2.744l-1.24 1.033-.004.003-1.557 1.297c0-.014-.002-.025-.003-.036a.474.474 0 0 1-.005-.053 11.357 11.357 0 0 1-.003-.175 4.747 4.747 0 0 0-.02-.42c-.038-.362.03-.69.128-1.025.21-.718.413-1.44.617-2.161.101-.361.203-.722.306-1.082l.02-.068Zm11.279 4.515-.019.509-.513-.427-.001-.002-.003-.002c-.767-.64-1.524-1.27-2.285-1.901l.58-.914 1.161-1.831c.017.043.03.076.037.107a4340.543 4340.543 0 0 1 1.053 3.71.248.248 0 0 1 .014.08l-.024.67Zm.025 5.267-.94-.35.029-.103c.347-1.223.69-2.432 1.04-3.66l.089.134c.059.09.116.175.179.25.295.357.478.803.611 1.311.186.705.387 1.401.587 2.097v.002h.001v.002a231.052 231.052 0 0 1 .27.948l.018.071c-.632-.236-1.258-.47-1.884-.702Zm-13.823.532-.457.17a371.678 371.678 0 0 0 .429-1.51l.64-2.258.006-.023c.008-.03.017-.06.033-.084l.44-.634.002-.002.21-.303c.278.974.551 1.939.826 2.908l.243.854c-.792.293-1.577.586-2.372.882Zm14.716.191.876.326-.06.056-.03.028-.68.565-.005.005c-.614.51-1.227 1.018-1.838 1.533a1.32 1.32 0 0 1-.49.27c-.14.039-.279.084-.417.128l-.25.08c-.02.008-.04.012-.073.02l-.023.004.602-2.126.456-1.607 1.932.718Zm-15.041.341-.013-.01c.332-.126.648-.243.968-.36l.59-.219c.392-.146.785-.292 1.176-.44.062-.024.087-.001.11.079.2.714.402 1.426.604 2.139l.388 1.368.015.06.016.065c-.138-.04-.26-.078-.384-.117-.04-.012-.08-.026-.12-.04a3.1 3.1 0 0 0-.251-.077 1.206 1.206 0 0 1-.49-.268c-.553-.465-1.107-.925-1.66-1.386h-.001v-.001H7.84l-.001-.001h-.001v-.001h-.001v-.001h-.001l-.855-.713a3.517 3.517 0 0 0-.088-.077Zm8.1 6.492V22.11h3.454c-.027.049-.055.094-.082.139-.05.083-.1.163-.14.247-.198.412-.47.702-.779.95-.538.432-1.07.879-1.603 1.326l-.76.635-.06.047-.03.023Zm-3.465-2.87-.287-.497c1.163 0 2.306 0 3.454.003v3.362a.553.553 0 0 0-.036-.027.515.515 0 0 1-.031-.023h-.002L11.85 23.11a.402.402 0 0 1-.098-.119l-.222-.385ZM19.134 8.76l-1.184 1.867-2.784-2.316.253-.108c.153-.064.3-.126.445-.195.174-.084.348-.113.53-.113.79.003 1.58.003 2.37.002h.917l-.547.863Zm-7.391 1.867-1.732-2.73a1830.14 1830.14 0 0 1 3.47.004c.056 0 .114.013.167.035a38.875 38.875 0 0 1 .827.354l.047.024-.69.573c-.697.582-1.392 1.16-2.09 1.74Zm14.019 4.335v.002l-.002.02v.006l-.366 4.376-.21-.302c-.364-.524-.72-1.036-1.076-1.552l1.15-2.065.52-.93a.043.043 0 0 0 .018.01h.002l-.036.436ZM5.587 17.517 4.3 19.366c-.055-.65-.11-1.295-.163-1.937l-.244-2.902c.009-.004.015-.008.02-.012l.79 1.417.001.001.882 1.583Zm.156 4.94L4.51 20.06c.668.214 1.315.419 1.971.626l.185 3.508-.006.003-.005.003-.006.004-.004.002-.902-1.752ZM23.04 24.2l-.009-.003-.005-.001.123-2.339.061-1.17.114-.035 1.858-.59-.339.657-.001.002v.001c-.604 1.17-1.2 2.326-1.794 3.482a.04.04 0 0 0-.008-.004ZM7.747 6.36l.396-.513.005.124c.006.148.012.284.015.422.02.562.041 1.12.064 1.682.004.07-.006.106-.062.13l-2.016.908h-.001l-.002.001-.715.323c-.013.004-.027.006-.052-.009.787-1.017 1.573-2.036 2.368-3.068Zm16.564 3.068-.012.025-.714-.326c-.68-.306-1.356-.61-2.035-.913-.068-.029-.093-.066-.088-.168.02-.46.037-.924.054-1.387l.026-.683c.002-.033.004-.063.01-.125l2.313 3 .446.577ZM12.496 3.552l.001.005c-.198.279-.397.558-.598.832l-.57.795v.001h-.001c-.23.32-.46.64-.689.962-.05.068-.088.08-.154.052-.398-.175-.797-.346-1.203-.52l-.602-.258c1.281-.635 2.542-1.262 3.802-1.89h.002l.001-.001c.005.009.008.014.01.022Zm6.223.73c.756.375 1.512.75 2.267 1.127v.025l-.117.05c-.566.243-1.13.487-1.7.72-.03.013-.08-.018-.103-.048a460.558 460.558 0 0 1-1.732-2.405 2.368 2.368 0 0 0-.09-.11l-.061-.074.01-.02a.777.777 0 0 0 .01-.02l1.512.753.004.002Zm-.59 23.334-2.963.755.114-.2.157-.274.001-.002.787-1.366c.032-.055.063-.08.119-.064.571.172 1.142.341 1.713.51v.001h.002l.003.002h.002l1.084.322a.1.1 0 0 1 .061.041l-1.08.275Zm-7.648-.275v-.022l.9-.271c.649-.19 1.297-.384 1.945-.576.056-.019.095-.021.138.053.28.492.563.98.845 1.469v.001l.18.31.007.016a.65.65 0 0 0 .022.048l-.605-.154-.006-.001h-.002l-.006-.002c-1.146-.291-2.283-.58-3.418-.87ZM9.351 2.415h.012l-.242.583-.878 2.124-1.198-1.885c.045-.028.089-.059.132-.089.09-.063.177-.124.268-.153.463-.151.93-.292 1.396-.432l.467-.14c.01-.006.023-.007.042-.008Zm11.856 2.118c-.292-.706-.583-1.41-.882-2.125l.228.067c.136.04.267.079.398.12l.377.113c.317.095.634.19.948.297.083.028.163.086.247.147.04.03.081.059.124.087l-.315.497-.003.003-.878 1.385-.244-.59Zm4.956 18.478C26 22 25.841 21.027 25.68 20.039c.529.194 1.05.39 1.573.585l.349.13-.03.104c-.041.14-.08.272-.16.383-.33.45-.655.91-.979 1.369l-.191.27a.804.804 0 0 0-.048.079 4.12 4.12 0 0 1-.03.052Zm-22.626-.05L3.501 23l-.014-.04c-.009-.028-.017-.055-.03-.077l-.282-.4c-.286-.404-.572-.808-.862-1.204-.109-.15-.166-.322-.216-.527l.645-.24 1.273-.474c-.162.984-.32 1.954-.478 2.925Zm23.252-4.36.001-.001.002-.002.9-.976.065 1.357v.002l.01.2.004.076.003.086v.002c.006.116.01.231.018.347.011.178.017.268.005.355-.012.09-.042.176-.102.35a1324.814 1324.814 0 0 0-1.907-.71l.988-1.072.009-.01h.001l.003-.003Zm-24.787-.968.001-.007.953 1.033.95 1.029c-.645.242-1.275.478-1.91.714-.063-.2-.116-.382-.104-.601.035-.581.062-1.162.089-1.744l.016-.349c0-.017.002-.036.005-.075ZM23.97 5.107v.002l.004.006.005.008.002.004v.001l.003.003.002.004v.002l.003.003.302.538-.274-.04c-.78-.116-1.544-.228-2.319-.346l1.172-1.848c.04.04.084.074.127.107.09.071.18.142.248.264.238.43.479.855.725 1.292ZM7.421 4.381l.001.001.577.91-1.624.242-.008.002h-.003l-.952.142.024-.051.02-.042.268-.48c.25-.446.499-.893.757-1.329.058-.097.14-.169.225-.242.038-.033.077-.066.113-.103l.602.95Zm8.46 25.099 1.398.872-.36.162c-.518.233-1.023.46-1.531.671-.082.034-.173.025-.266.017a1.351 1.351 0 0 0-.128-.009v-2.266l.887.553Zm-3.464.872c.768-.48 1.52-.95 2.284-1.425v2.279c-.046-.002-.09-.002-.135-.001-.118.002-.234.003-.352-.05-.406-.185-.812-.364-1.217-.544l-.487-.215a.631.631 0 0 0-.024-.012l-.018-.008a2.993 2.993 0 0 1-.05-.024ZM27.804 14.16l1.15 1.633c-.25.27-.496.538-.747.812l-.27.293-.102-2.092-.03-.646Zm-25.927.03a.043.043 0 0 0 .01.005l-.132 2.7-.547-.594-.001-.002-.47-.508.338-.48.793-1.127.009.005Zm2.916-8.053L3.51 8.417l-.013-.297c-.026-.6-.051-1.181-.08-1.776.314-.047.625-.093.944-.142l.43-.065Zm21.181.163.298.044c-.029.69-.06 1.36-.092 2.074l-.173-.307V8.11c-.37-.66-.733-1.305-1.11-1.97l1.077.16ZM5.152 25.807c-.002.008-.004.016-.008.024l-1.318-.407-.39-.12.118-.721.135-.831.727 1.02v.002l.002.001.006.01.004.004.005.008.719 1.01Zm19.388.01-.004-.008.26-.364v-.001c.399-.558.798-1.117 1.205-1.695.084.528.166 1.032.252 1.553l-1.07.333h-.003l-.633.196-.003-.005-.003-.006-.001-.003Zm-6.127 4.847-.392-.244a378.44 378.44 0 0 1 2.175-.964l-.025.053a.606.606 0 0 1-.024.048c-.29.508-.579 1.017-.868 1.53-.039.068-.068.078-.125.04l-.739-.461-.001-.001Zm-8.9-1.206 2.158.958-.152.096c-.347.217-.679.426-1.013.626-.017.008-.056 0-.066-.02a60.414 60.414 0 0 1-.927-1.66Zm2.58-28.31.043.035c-.748.228-1.483.45-2.231.675.057-.137.11-.264.16-.388l.071-.172.119-.285v-.001c.068-.162.135-.324.201-.487.02-.051.041-.076.09-.054.402.178.804.353 1.206.529l.341.148Zm6.324.297-.87-.264.03-.016a.618.618 0 0 1 .073-.037l.588-.257c.295-.129.589-.257.883-.387.068-.029.096-.008.13.074.111.278.226.552.34.828l.15.357.027.07v.002l.018.045-1.354-.41-.002-.001h-.002l-.004-.002-.003-.001h-.002l-.002-.001ZM6.485 18.527c-.189-.337-.37-.659-.552-.989l.716-1.03.657-.945a.05.05 0 0 1 .008.007l.008.007-.358 1.263-.479 1.687ZM23.2 16.733l.56.805c-.185.328-.363.646-.552.987l-.257-.905-.58-2.043a.039.039 0 0 0 .004-.003l.005-.004a.047.047 0 0 1 .008-.007l.812 1.17Zm-13.752-8.7.015.002c-.28.982-.554 1.952-.827 2.923l-.01-.001a.058.058 0 0 0-.009-.001l-.01-.232v-.001c-.007-.16-.015-.319-.02-.477a441.575 441.575 0 0 0-.064-1.705v-.007c-.002-.052-.004-.094.045-.116.22-.097.437-.195.655-.293l.205-.092c.004-.002.01-.001.02 0Zm11.622 2.924h-.01c-.274-.972-.55-1.94-.828-2.922l.02.004a.205.205 0 0 1 .045.012l.125.057c.23.104.46.21.692.31.04.017.066.035.061.107-.028.771-.057 1.54-.088 2.312v.005c-.002.037-.004.076-.008.114H21.069Zm-8.75 13-.004-.013c.505.422 1.004.837 1.508 1.256l.003.003h.002l.651.542-.036.011a38.463 38.463 0 0 0-.488.146c-.124.037-.248.073-.372.112-.048.014-.082.01-.115-.05-.378-.658-.757-1.314-1.137-1.97-.003-.006-.005-.013-.012-.037Zm5.046 0c.004.006.006.012.01.016l-.04.071h-.001a385.328 385.328 0 0 0-.335.584c-.254.441-.507.881-.764 1.318-.023.037-.07.076-.099.068a22.644 22.644 0 0 1-.647-.19 54.545 54.545 0 0 0-.237-.07c-.004-.002-.007-.006-.012-.013l-.008-.01 2.13-1.772.003-.002Zm-8.57-2.907c-.68-.218-1.358-.433-2.045-.65-.019-.378-.04-.74-.062-1.135l1.016.845.001.001c.367.306.731.61 1.096.912a.049.049 0 0 1-.003.017l-.003.01Zm12.862-.667.001-.001 1.344-1.119-.027.512v.002c-.011.21-.022.416-.035.625-.507.159-1.015.32-1.522.481l-.518.165a.136.136 0 0 0-.009-.027l.76-.633.003-.003.003-.002ZM12.622 7.496l.033.02h-2.603l.015-.029a.295.295 0 0 1 .024-.043l.085-.119c.143-.202.287-.404.434-.601.023-.033.074-.06.103-.047.595.25 1.192.507 1.785.762l.098.042a.42.42 0 0 0 .026.015Zm7.023-.005a.212.212 0 0 0-.013.025c-.856 0-1.713 0-2.57-.002a.033.033 0 0 1-.003-.009.029.029 0 0 0-.002-.008l.244-.103.243-.104 1.417-.605c.029-.012.076-.015.094.008.143.18.284.366.424.55l.175.232a.272.272 0 0 1-.009.016Zm1.605-1.502a.138.138 0 0 0 .02.009l-.08 2.055c-.325-.146-.64-.287-.97-.437.2-.313.395-.623.59-.93l.44-.697Zm-12.828.013.018-.013.218.344.812 1.285c-.326.146-.64.287-.97.437l-.033-.85v-.002l-.045-1.201Zm7.088 21.2-.518.898v-2.035l.524.156h.001l.478.142-.485.84Zm-.81-1.139v2.031c-.34-.585-.666-1.149-1-1.733.34-.1.666-.197 1-.298Zm-4.342-19.54.008.004-.115.15c-.189.246-.372.484-.558.73l-.496-.781-.507-.799.002-.004a.035.035 0 0 1 .006-.012c.547.237 1.096.471 1.66.712Zm9.641.886c-.222-.295-.441-.587-.669-.886l.964-.41v-.001l.7-.299.002.005a.033.033 0 0 0 .006.011c-.336.532-.675 1.065-1.003 1.58Zm3.688 10.858.257-.46c.373.531.738 1.056 1.1 1.584l-.003.006-.001.003-.003.006-.002.005h-.003c-.542-.204-1.085-.407-1.64-.613.1-.18.197-.356.295-.53Zm-17.443.43.057.1c-.558.208-1.1.41-1.646.616a.1.1 0 0 0-.008-.023 757.867 757.867 0 0 1 1.1-1.584l.497.89v.001Zm18.668 1.055v.022c-.156.05-.313.1-.47.148l-.01.004-.007.002h-.002l-.002.001-1.187.378.041-.807.018-.35.634.235.003.001.002.001c.328.122.655.242.98.364Zm-18.49-.156.039.71c-.404-.126-.8-.252-1.195-.378l-.004-.001-.01-.004-.47-.149v-.025l1.617-.6.024.447Zm22.393-3.192.006.01.003.004.004.006c-.255.897-.509 1.795-.761 2.69l-.02-.005c-.008-.12-.014-.243-.02-.364v-.002l-.001-.031-.022-.434c-.014-.282-.028-.564-.04-.845-.002-.04.004-.106.025-.129.273-.301.55-.6.826-.9Zm-27.17 2.692-.01.042c-.262-.919-.516-1.815-.777-2.738l.022.013c.013.006.02.01.026.017l.19.207c.194.211.39.423.583.636a.206.206 0 0 1 .05.126c-.018.422-.039.847-.06 1.27l-.019.395c0 .009-.002.018-.005.032Zm25.576 2.958.009.005c-.257.899-.511 1.8-.774 2.735l-.046-.3c-.036-.242-.07-.471-.122-.693-.063-.275-.018-.456.136-.65.19-.245.373-.507.556-.769l.233-.333h.002l.003.002a.06.06 0 0 1 .003.003Zm-23.979 2.7-.006.027c-.122-.427-.242-.85-.36-1.27h-.001v-.001l-.002-.004-.404-1.424.008-.007a.05.05 0 0 1 .008-.008l.015.018c.014.017.027.032.04.05.183.258.366.514.55.77v.002l.32.449c.037.05.05.094.037.17-.051.296-.099.593-.146.89l-.04.25a1.1 1.1 0 0 1-.019.089ZM10.026.794l.006.007-.021.05L9.948 1c-.121.297-.242.595-.37.888-.018.045-.057.088-.09.098-.46.144-.923.283-1.393.402l.963-.8v-.001l.962-.8a.09.09 0 0 1 .006.007Zm9.637.005.012-.013c.638.536 1.28 1.067 1.92 1.596l-.003.01-.003.01a249.962 249.962 0 0 1-1.361-.407h-.001c-.058-.017-.097-.052-.128-.128a81.288 81.288 0 0 0-.402-.976l-.019-.05V.838l-.015-.041Zm6.129 5.08c0 .009-.002.017-.004.025l-.051-.007c-.338-.051-.678-.102-1.018-.159a.115.115 0 0 1-.074-.051 39.2 39.2 0 0 1-.765-1.4l.598.5h.001c.438.365.875.73 1.313 1.093ZM5.808 4.292a.407.407 0 0 0 .015.02l-.103.183c-.224.398-.447.795-.677 1.196a.11.11 0 0 1-.074.051c-.355.056-.712.111-1.075.142l1.08-.898.834-.694Zm-2.894 7.826c-.158-.281-.332-.593-.515-.924.316-.143.622-.28.942-.422l.007.186.021.556a.096.096 0 0 1-.016.054l-.134.168-.305.382Zm24.03-.295-.163.295-.084-.104c-.119-.15-.237-.296-.353-.446-.013-.014-.019-.043-.019-.066.004-.159.011-.316.018-.48v-.002c.004-.08.008-.163.01-.248l.203.09.004.002.735.33c-.121.216-.239.428-.35.63ZM14.88.906c.185.243.39.51.601.79l-.02.008c-.205.09-.394.171-.581.259l-.01.002c-.013.004-.028.009-.041.002-.14-.06-.279-.12-.421-.183l-.19-.084.45-.587.185-.242.027.035Zm7.55 25.956.177-.054c-.02.381-.039.74-.057 1.118l-.71-.213h-.001l-.264-.078c.115-.206.222-.392.33-.58a.123.123 0 0 1 .06-.05l.465-.143Zm-14.345.711.036.064c-.204.059-.403.118-.601.178l-.373.11-.032-.595-.028-.52.286.089h.001l.368.114a.108.108 0 0 1 .049.047c.097.164.191.33.294.513Zm3.012 3.624v-.001l-.001-.01a.07.07 0 0 1 0-.009c.305-.19.61-.381.92-.57a.072.072 0 0 1 .068-.002c.429.186.857.377 1.284.568.005.001.008.005.013.01.004.006.01.012.018.019h-2.302v-.005Zm7.503-.006-.001.009c-.763 0-1.526 0-2.287-.002l-.001-.004-.002-.006-.001-.009.126-.056.045-.02.171-.078c.31-.14.62-.279.93-.412.03-.014.073-.027.1-.01.237.144.471.29.705.437l.216.135-.001.015ZM1.049 14.829a.646.646 0 0 0-.018.014l.131-.38c.27-.778.535-1.54.798-2.303h.006l.004.002c.004 0 .007 0 .01.002l-.024.595v.019c-.01.24-.021.483-.037.723a.328.328 0 0 1-.039.154c-.269.388-.542.773-.814 1.16l-.017.014Zm27.604-.01a.09.09 0 0 1-.014.011c-.277-.393-.556-.79-.835-1.183a.215.215 0 0 1-.03-.099 28.397 28.397 0 0 1-.048-1.396l.464 1.333c.154.445.308.89.463 1.333Zm-2.145-7.51c.006-.003.012-.003.018-.003l.346 1.56.001.003v.002l.27 1.215a.056.056 0 0 0-.006.008.032.032 0 0 1-.008.008 188.196 188.196 0 0 1-.65-1.161.292.292 0 0 1-.037-.129c.014-.378.032-.758.049-1.136l.017-.368ZM3.166 7.303c.006.004.012.006.019.009.024.498.047.998.065 1.493a.232.232 0 0 1-.02.1c-.22.394-.441.788-.663 1.178-.001.003-.005.005-.012.008l-.01.006a1250.949 1250.949 0 0 0 .621-2.794Zm18.616 21.452.028-.001-.37.352-.002.001v.001l-1.484 1.412-.003-.004-.002-.002-.003-.004-.002-.003.02-.04.02-.04.43-.755.001-.001.09-.157.11-.192a.21.21 0 0 1 .08-.088c.307-.141.618-.278.928-.415l.142-.063.008-.001h.009Zm-12.04 1.756a.03.03 0 0 1-.004.007v-.001h-.001l-.001-.002-.002-.001c-.61-.58-1.22-1.159-1.83-1.736a.086.086 0 0 1 .009-.024l.19.084.382.168a.904.904 0 0 1 .042.021.362.362 0 0 0 .094.04c.307.07.525.302.693.659.087.182.188.35.288.52l.149.255c-.004.003-.006.007-.008.01Zm15.662-4.545v.004c-.654.476-1.31.95-1.967 1.421a.286.286 0 0 0-.02-.031l-.005-.008.025-.025c.033-.034.066-.068.094-.108l.148-.207c.148-.209.295-.417.443-.622a.257.257 0 0 1 .103-.082c.381-.12.763-.238 1.145-.357h.003v-.001h.002c.006-.002.012-.001.019-.001h.008V25.96l.001.002v.006ZM6.258 27.383a.1.1 0 0 1-.007.012l-.72-.523H5.53l-.001-.001-.002-.001-1.24-.899.005-.025.194.06h.001l.195.06.39.12.39.121.005.003c.026.01.053.02.072.045.146.201.29.405.436.61l.29.407-.002.004-.005.007ZM18.165.494V.52c-.1.044-.202.087-.303.13-.186.08-.372.158-.554.247a.674.674 0 0 1-.585.035 5.122 5.122 0 0 0-.504-.16c-.08-.023-.16-.045-.24-.07a.11.11 0 0 1-.066-.04l2.252-.167Zm-4.38.179v.01l-.135.041-.301.092-.313.092-.313.093a.136.136 0 0 1-.094-.002L11.556.533c-.007-.003-.013-.008-.026-.018a1.333 1.333 0 0 0-.027-.02l2.28.167.002.01ZM27.216 12.78l-.28-.346c.156-.28.3-.538.441-.796l.021.008.037.77v.008l.033.668-.252-.312ZM2.31 11.644l.006-.001.17.307h.001c.087.156.176.315.266.48-.09.11-.178.221-.265.33l-.264.327c.022-.445.047-.94.07-1.436.004-.003.01-.005.016-.007Zm24.067-1.3c.009-.285.02-.572.035-.896l.174.309.546.97c-.258-.114-.49-.22-.721-.327a.08.08 0 0 1-.034-.056Zm-23.27-.587.175-.31.014.345c.008.186.016.363.02.54 0 .02-.018.06-.034.068-.172.081-.346.16-.53.243l-.19.085.545-.97Zm20.55 16.751-.812 1.14.001-.021c.016-.311.03-.585.046-.856.002-.023.027-.055.045-.06a6.91 6.91 0 0 1 .72-.203Zm-16.821.864.01.176c-.263-.332-.54-.683-.815-1.035a.176.176 0 0 0 .007-.014l.007-.013c.238.072.478.145.716.221.016.006.039.03.041.05l.034.614v.001Zm15.278.818v.017l-.254.113c-.293.13-.585.26-.875.393l-.01-.02c.13-.232.262-.464.395-.693.008-.019.037-.027.054-.023l.459.135.23.068v.01Zm-5.64-26.953v.022c-.222.099-.443.197-.669.29-.016.008-.047 0-.061-.017-.158-.205-.316-.412-.474-.62a.198.198 0 0 1 .01-.017.175.175 0 0 0 .01-.017l.592.18h.001l.59.179ZM8.502 28.309l.235.413c-.4-.179-.779-.347-1.156-.513v-.027c.139-.045.276-.088.416-.127.029-.008.059-.02.09-.032.076-.03.154-.061.218-.032.058.03.1.12.143.211.018.037.035.075.054.107Zm4.717-27.046v-.022c.394-.121.788-.24 1.182-.353a.114.114 0 0 1 .017.024l.004.007h-.001l-.473.62c-.013.016-.043.024-.062.016a38.376 38.376 0 0 1-.666-.292Zm12.977 11.882-.008-.005c.03-.371.061-.742.094-1.11.107.138.21.267.32.407l-.178.319-.22.394a.028.028 0 0 1-.008-.005Zm-22.7-.001a.028.028 0 0 1-.008.004l-.175-.315-.219-.394.32-.396.043.503c.016.195.032.394.05.592a.03.03 0 0 0-.011.006Zm3.548 12.494.005-.001.216.416v.002l.266.513-.051-.016a11.13 11.13 0 0 1-.386-.122c-.012-.004-.024-.034-.026-.053-.015-.244-.029-.488-.041-.732a.064.064 0 0 1 .017-.007Zm15.6 0c.005.005.016.007.022.009-.013.244-.025.488-.04.736-.001.02-.024.054-.042.058l-.237.074h-.002l-.182.057.305-.594v-.001l.003-.004.002-.003.17-.331ZM3.89 10.849l-.26.337a24.45 24.45 0 0 0-.012-.308l-.008-.161c0-.027.017-.072.033-.08a4.91 4.91 0 0 1 .6-.247l-.353.459Zm22.17.265-.003.072-.61-.796.002-.01.003-.012.047.02c.015.005.03.012.046.019l.118.054c.118.054.237.108.355.16.044.02.064.046.06.112-.009.121-.013.242-.018.38v.001Zm-11.759-9c.042.02.086.039.132.059-.298.15-.566.283-.837.414l-.01-.018a.34.34 0 0 1-.01-.019l.205-.265.205-.266c.012-.016.034-.024.047-.02.087.035.173.074.268.116Zm1.802.455c-.004.007-.008.013-.01.02l-.345-.17-.489-.244.045-.02c.128-.057.239-.106.35-.15.016-.008.046.006.06.026.119.15.235.302.352.456l.047.061a.258.258 0 0 1-.01.02Zm4.558 24.775.87-.221-.06.104c-.056.1-.107.188-.16.275-.015.023-.045.04-.066.035a4.987 4.987 0 0 1-.584-.193ZM8.23 27.244l-.07-.122.48.121.388.098c.002.008.002.015.002.023l-.07.02c-.176.053-.35.105-.525.154-.014.002-.041-.01-.051-.026-.051-.086-.1-.173-.154-.267ZM21.377 13.15l.01.04a1.629 1.629 0 0 0-.11.04v-.357a.07.07 0 0 0 .02-.004l.08.281Zm-12.962-.277v.357l-.075-.028-.035-.013.013-.047c.026-.093.05-.183.077-.273l.005.002h.005l.01.002Zm-.265.858.058-.203c.043.018.074.03.117.045a30.226 30.226 0 0 0-.19.277.045.045 0 0 1-.008-.006l-.007-.006.03-.107Zm13.326-.001a22.82 22.82 0 0 0-.109-.157l.079-.028.038-.013.05.175.038.135a.025.025 0 0 0-.006.005l-.006.005-.084-.122Zm-10.358 8.756-.003.005-.004.005a6.585 6.585 0 0 1-.216-.184l.01-.017.02-.033a3.94 3.94 0 0 0 .038-.065l.082.14.08.139a.266.266 0 0 0-.007.01Zm7.502-.098c.034-.06.07-.121.11-.187l.006.008a6.6 6.6 0 0 1 .075.1l-.232.191a.083.083 0 0 0-.006-.01l-.006-.01.053-.091Zm-7.901-.358a25.052 25.052 0 0 1-.224-.067c.134.168.169.176.224.067Zm8.486-.071c-.088.026-.156.049-.225.072.047.114.067.106.225-.072ZM15.078 7.968a7.127 7.127 0 0 0-.082.036c-.012-.12.008-.127.2-.088l-.118.052Zm-.377.038c.002-.117-.048-.138-.191-.082.07.029.127.053.19.082Zm21.591.599h2.6v6.29h1.958v-6.29h2.6V7.368a.724.724 0 0 0-.723-.722h-6.435v1.959Zm16.179 2.166a4.124 4.124 0 0 1-4.125 4.125 4.124 4.124 0 0 1-4.125-4.125 4.124 4.124 0 0 1 4.125-4.125 4.124 4.124 0 0 1 4.125 4.125Zm-1.97 0c0-1.185-.97-2.156-2.155-2.156-1.196 0-2.156.97-2.156 2.156a2.15 2.15 0 0 0 2.156 2.156c1.185 0 2.156-.96 2.156-2.156Zm5.022-4.125h-1.76v8.248h1.959V9.74l1.68 1.96c.29.33.804.33 1.093 0l.753-.866.927-1.094v5.155h1.96V6.646h-1.752a.26.26 0 0 0-.208.092l-2.227 2.59-2.228-2.59a.26.26 0 0 0-.197-.092Zm11.762 0h1.247c.402 0 .722.32.722.722v2.423h3.196V6.646h1.247c.392 0 .722.32.722.722v7.528H72.45v-3.144h-3.196v3.144h-1.969v-8.25Zm12.546 8.25a4.124 4.124 0 0 0 4.125-4.125 4.124 4.124 0 0 0-4.125-4.125 4.124 4.124 0 0 0-4.125 4.125 4.124 4.124 0 0 0 4.125 4.125Zm0-6.28a2.154 2.154 0 1 1 0 4.312 2.15 2.15 0 0 1-2.156-2.157c0-1.185.96-2.156 2.156-2.156Zm5.413 2.805c0-.391.33-.722.722-.722h2.35a1.03 1.03 0 0 0 1.043-1.083c-.02-.566-.505-1-1.063-1h-3.052v-1.96h3.042c1.65 0 3.052 1.34 3.042 2.991a2.958 2.958 0 0 1-1.723 2.691l2.558 2.558h-2.722l-2.238-2.238v2.238h-1.959v-3.475Zm9.496-4.775h-1.547v8.25h1.959V9.741l4.433 5.155h1.979V7.368a.718.718 0 0 0-.722-.722h-1.237v5.27l-4.32-5.022a.727.727 0 0 0-.545-.248ZM37.89 25.068l-.008-.002a.944.944 0 0 1-.117-.043l-.056-.021c-.02-.009-.041-.017-.063-.024l-.086-.045-.164-.086c-.013-.01-.027-.018-.04-.026a1.921 1.921 0 0 1-.152-.102l-.022-.014-.022-.016a2.64 2.64 0 0 1-1.056-2.107 2.618 2.618 0 0 1 1.056-2.104c.045-.04.099-.072.152-.105a3.013 3.013 0 0 1 .453-.238l.125-.039c.263-.092.544-.137.84-.137.295 0 .576.045.838.137l.125.04c.02.01.041.018.062.027a1.954 1.954 0 0 1 .391.21c.054.033.105.066.159.105.098.078.197.158.283.248l-.88.88c-.066-.06-.132-.12-.203-.164h-.007a.304.304 0 0 0-.053-.04l-.039-.02-.053-.033a.63.63 0 0 0-.111-.045l-.053-.02a.095.095 0 0 0-.04-.012.065.065 0 0 0-.008-.004l-.004-.002a.051.051 0 0 1-.007-.002.02.02 0 0 1-.007-.005.124.124 0 0 1-.045-.012 1.5 1.5 0 0 0-.687 0l-.014.004c-.013.005-.024.008-.04.008l-.02.013a.123.123 0 0 0-.045.012l-.053.02a.536.536 0 0 0-.105.046l-.045.02-.02.02-.04.021a.211.211 0 0 0-.045.033l-.06.039s-.006 0-.006.006h-.006v.006a.203.203 0 0 0-.041.028.249.249 0 0 1-.024.017v.006c-.29.25-.472.624-.472 1.036 0 .415.184.782.472 1.036.012.007.023.017.035.028l.03.026.013.012.06.039c.044.033.098.06.15.086.034.02.066.039.105.053a1.41 1.41 0 0 0 .51.098c.12 0 .237-.02.348-.044a1.285 1.285 0 0 0 .25-.093l.025-.014a.977.977 0 0 0 .143-.086h.007l.104-.078.099-.092v-.965h.787c.257 0 .46.204.46.454v.498c0 .335-.125.657-.361.893l-.006.006c-.087.086-.185.17-.283.25l-.158.105-.078.045c-.054.033-.111.065-.17.092a.325.325 0 0 1-.064.036l-.012.005-.009.004-.104.04v.005h-.013a.565.565 0 0 1-.125.045 2.517 2.517 0 0 1-.839.138 2.521 2.521 0 0 1-.84-.136Zm5.707-4.822-.006.006-2.308 4.952h1.298l.505-1.083h1.87l.505 1.083h1.287l.012-.006-2.322-4.966a.46.46 0 0 0-.841.014Zm.427 1.87.381.834h-.77l.389-.833Zm3.395-2.16h1.12c.045 0 .092.021.125.06l1.417 1.647 1.417-1.647a.166.166 0 0 1 .132-.06h1.116v5.25h-1.248v-3.28l-.59.695-.478.552a.463.463 0 0 1-.696 0l-1.068-1.247v3.28h-1.247v-5.25Zm7.103 0h-.794v5.25h1.253v-4.79a.461.461 0 0 0-.459-.46Zm1.444 0h.983c.131 0 .262.06.348.159l2.75 3.196v-3.352h.787c.256 0 .46.203.46.46v4.789h-1.26l-2.82-3.28v3.28h-1.248v-5.251Zm7.805 5.067c.041.019.086.033.125.046.263.09.546.137.84.135.295 0 .576-.045.838-.138a.565.565 0 0 0 .126-.045h.012v-.006l.104-.039.017-.007c.023-.01.048-.021.07-.038.06-.027.116-.06.17-.092l.078-.045.158-.105c.098-.08.197-.164.28-.25l.007-.006c.236-.236.36-.558.36-.893v-.498a.455.455 0 0 0-.459-.454h-.787v.965l-.099.092-.104.078H65.5a.977.977 0 0 1-.169.1 1.295 1.295 0 0 1-.25.093 1.66 1.66 0 0 1-.348.045 1.41 1.41 0 0 1-.51-.099.552.552 0 0 1-.105-.053c-.053-.027-.107-.053-.152-.086l-.06-.04-.012-.011a.58.58 0 0 1-.03-.026c-.012-.01-.023-.02-.035-.028a1.379 1.379 0 0 1-.472-1.036c0-.412.182-.785.472-1.036v-.006c.008-.005.016-.01.024-.017a.2.2 0 0 1 .041-.028v-.006h.007c0-.006.006-.006.006-.006l.06-.04a.211.211 0 0 1 .044-.032l.04-.02.02-.021.045-.02a.532.532 0 0 1 .105-.046l.053-.02a.124.124 0 0 1 .045-.012l.02-.013c.016 0 .027-.003.04-.008a1.4 1.4 0 0 1 .354-.043c.12 0 .238.012.35.039a.123.123 0 0 0 .044.012.03.03 0 0 0 .014.007.095.095 0 0 1 .013.006c.012 0 .026.006.039.012l.053.02a.628.628 0 0 1 .11.046l.054.032.04.02a.3.3 0 0 1 .053.04h.006c.072.045.137.104.203.164l.88-.88a2.521 2.521 0 0 0-.281-.248 2.316 2.316 0 0 0-.158-.105 1.953 1.953 0 0 0-.392-.21c-.02-.009-.041-.017-.061-.028l-.126-.039a2.517 2.517 0 0 0-.839-.137c-.295 0-.576.045-.839.137l-.125.04a.895.895 0 0 1-.057.024 2.995 2.995 0 0 0-.548.317 2.618 2.618 0 0 0-1.057 2.105c0 .722.296 1.379.768 1.857.092.086.185.172.29.25l.042.03c.035.025.071.051.109.075.013.01.028.018.043.026.015.008.03.017.043.027l.164.086.084.045a.677.677 0 0 1 .063.024.662.662 0 0 0 .056.021Z" clip-rule="evenodd"/></svg>