<svg xmlns="http://www.w3.org/2000/svg" width="92" height="26" fill="none"><g clip-path="url(#a)"><path fill="#fff" fill-rule="evenodd" d="M91.5.001H53.147v1.484h1.31v17.57h8.695v-3.56h-4.884V1.484H91.5V.001ZM.5 3.563v3.62h2.8v14.722h3.81V7.184h2.8V3.563H.5Zm41.212 0v18.342h8.695v-3.562h-4.883v-3.799h3.87v-3.561h-3.87v-3.8h4.883v-3.62h-8.695Zm47.108 8.666c.774-.89 1.192-2.077 1.192-3.324 0-2.909-2.383-5.283-5.301-5.283H80.6v18.343h4.17c3.156 0 5.717-2.553 5.717-5.7 0-1.602-.596-3.027-1.668-4.036Zm-4.288-5.045c.953 0 1.727.771 1.727 1.721 0 .95-.774 1.722-1.727 1.722h-.06V7.242h.06v-.06Zm2.204 9.082a2.068 2.068 0 0 1-2.085 2.077h-.178V14.13h.178c1.131 0 2.085.95 2.085 2.137ZM17.413 3.563a6.712 6.712 0 0 1 6.73 6.707 6.61 6.61 0 0 1-2.502 5.224l3.216 6.411H20.63l-2.442-4.986c-.298.06-.536.06-.774.06h-.298v4.926h-3.812V3.563h4.11Zm-.298 3.62V13.477h.06c1.727 0 3.156-1.425 3.156-3.146 0-1.722-1.43-3.146-3.157-3.146h-.06Zm17.27 9.973c0 .95-.774 1.722-1.726 1.722-.953 0-1.787-.772-1.787-1.722V3.563h-3.812v13.296c0 3.028 2.502 5.521 5.54 5.521 3.037 0 5.538-2.493 5.538-5.52V3.563h-3.812v13.593h.06Zm43.007 7.36H91.5v1.485H53.147v-1.484H64.87L68.81 6.412h4.645l3.938 18.105Zm-3.874 0-.422-1.84h-3.93l-.422 1.84h4.774Zm-2.327-11.1L70 19.056h2.382l-1.191-5.64Z" clip-rule="evenodd"/></g><defs><clipPath id="a"><path fill="#fff" d="M.5.001h91v26H.5z"/></clipPath></defs></svg>