<svg xmlns="http://www.w3.org/2000/svg" width="111" height="28" fill="none"><path fill="#fff" fill-rule="evenodd" d="M65.07 4.317a2.154 2.154 0 1 0 0-4.307 2.154 2.154 0 0 0 0 4.307Zm-43.533 6.521C13.874 14.955 6.907 20.402.64 27.18c-.074.078-.15.08-.229.005l-.132-.127a.255.255 0 0 1-.01-.351c3.105-3.432 6.29-6.456 9.555-9.072C19.988 9.485 31.53 4.492 44.446 2.652c.336-.049.67-.071 1.004-.094.573-.038 1.144-.076 1.71-.247a4.715 4.715 0 0 1 1.196-.188c4.5-.146 8.98-.167 13.44-.061a.276.276 0 0 1 .27.3l-.015.198c-.014.187-.114.275-.3.265-6.167-.251-10.114-.283-11.842-.097-.42.046-.842.09-1.264.134-3.104.326-6.231.655-9.086 1.322-6.662 1.558-12.67 3.776-18.022 6.654ZM68.4 3.768C78.74 5.548 88.503 9.59 97.21 15.46a.487.487 0 0 0 .585-.025l.107-.087a.204.204 0 0 0 .077-.174.215.215 0 0 0-.097-.167c-1.85-1.17-3.71-2.294-5.58-3.37A74.166 74.166 0 0 0 68.364 2.87c-.21-.037-.326.051-.347.265l-.01.132c-.02.285.11.452.392.5Zm7.88 20.79.103-.504c.04-.213.17-.324.387-.33l1.802-.046c.197-.007.31.086.34.28.259 1.619-.201 2.825-1.379 3.62a1.049 1.049 0 0 1-.605.188h-6.94a2.938 2.938 0 0 1-2.728-1.853 2.924 2.924 0 0 1-.204-1.14 57.771 57.771 0 0 0-.035-3.682c-.072-1.578.315-3.09 1.898-3.655a5.06 5.06 0 0 1 1.925-.3c1.415.074 2.866.06 4.353-.046 2.459-.168 4.113 1.008 3.71 3.788-.026.18-.132.27-.315.27l-1.944.005c-.18 0-.277-.089-.29-.265-.065-.676-.437-1.013-1.116-1.013-1.656.003-3.234.01-4.734.02a.88.88 0 0 0-.87.88l-.01 3.228a1.105 1.105 0 0 0 1.104 1.105l4.892-.005a.667.667 0 0 0 .657-.545Zm-13.078-7.24h2.2c.104 0 .188.085.188.19v10.059a.188.188 0 0 1-.188.188h-2.2a.188.188 0 0 1-.188-.188v-10.06c0-.104.084-.188.188-.188Zm-20.21 7.79a.86.86 0 0 0 .807-.543.877.877 0 0 0 .063-.337l-.097-6.395c-.003-.268.131-.402.402-.402l1.9.01c.254 0 .38.128.376.382-.03 2.325-.053 4.741-.066 7.25-.005 1.68-1.064 2.846-2.724 2.825-2.134-.02-4.254-.034-6.358-.04-1.792-.01-2.836-1.6-2.805-3.274.04-2.423.034-4.712-.02-6.868-.004-.186.088-.28.274-.28l2.103-.005a.295.295 0 0 1 .212.09.305.305 0 0 1 .088.216l-.025 6.292c-.004.706.348 1.06 1.053 1.064l4.816.015Zm5.722 2.658 2.29-.005a.199.199 0 0 0 .2-.199l-.067-7.244a.199.199 0 0 1 .366-.112l4.949 7.473a.199.199 0 0 0 .168.087l4.429-.005a.199.199 0 0 0 .198-.199l-.005-9.912a.199.199 0 0 0-.198-.198l-2.2-.016a.198.198 0 0 0-.198.199l.056 8.013a.199.199 0 0 1-.367.107l-5.294-8.227a.199.199 0 0 0-.168-.092h-4.154a.199.199 0 0 0-.199.199l-.005 9.932a.199.199 0 0 0 .199.199Zm35.707-2.663 4.71-.005a.876.876 0 0 0 .875-.875l-.02-6.456c0-.214.107-.322.32-.326l1.965-.01c.19 0 .284.094.28.28-.02 2.39-.016 4.894.01 7.514.01 1.385-.997 2.612-2.438 2.637-2.396.048-4.71.028-6.944-.06-1.568-.057-2.49-1.813-2.494-3.198-.007-2.331-.007-4.63 0-6.898a.279.279 0 0 1 .17-.255.265.265 0 0 1 .105-.02l1.888.01c.234.004.35.12.346.352l-.045 6.027a1.275 1.275 0 0 0 1.272 1.283Zm22.691-5.223a.331.331 0 0 1 .295-.23.178.178 0 0 1 .136.043.176.176 0 0 1 .057.13l-.061 7.79c0 .099.049.148.148.148l2.245.005c.149.003.224-.071.224-.224v-9.765c0-.224-.114-.337-.341-.34l-3.92-.006c-.221 0-.375.1-.463.3l-2.51 5.794a.242.242 0 0 1-.349.108.238.238 0 0 1-.089-.103l-2.709-5.798a.488.488 0 0 0-.473-.3l-4.444.004a.16.16 0 0 0-.115.05.17.17 0 0 0-.048.118v9.984c0 .115.06.173.178.173h2.235c.129.003.195-.061.198-.194.072-2.684.048-5.111-.07-7.28-.065-1.14.157-1.2.666-.178l3.686 7.387a.467.467 0 0 0 .433.27l1.445.005a.613.613 0 0 0 .566-.372 335.702 335.702 0 0 0 3.08-7.52Z" clip-rule="evenodd"/></svg>