<svg width="16" height="16" viewBox="0 0 16 16" fill="none" xmlns="http://www.w3.org/2000/svg">
<path d="M8 10L7.46967 10.5303C7.76256 10.8232 8.23744 10.8232 8.53033 10.5303L8 10ZM4.53033 5.46967C4.23744 5.17678 3.76256 5.17678 3.46967 5.46967C3.17678 5.76256 3.17678 6.23744 3.46967 6.53033L4.53033 5.46967ZM12.5303 6.53033C12.8232 6.23744 12.8232 5.76256 12.5303 5.46967C12.2374 5.17678 11.7626 5.17678 11.4697 5.46967L12.5303 6.53033ZM8.53033 9.46967L4.53033 5.46967L3.46967 6.53033L7.46967 10.5303L8.53033 9.46967ZM11.4697 5.46967L7.46967 9.46967L8.53033 10.5303L12.5303 6.53033L11.4697 5.46967Z" fill="#000000"/>
</svg>
