<svg width="39" height="32" viewBox="0 0 39 32" fill="none" xmlns="http://www.w3.org/2000/svg">
<path fill-rule="evenodd" clip-rule="evenodd" d="M0.5 5C0.5 2.37665 2.62665 0.25 5.25 0.25H34.25C36.8734 0.25 39 2.37665 39 5V27C39 29.6234 36.8734 31.75 34.25 31.75H5.25C2.62665 31.75 0.5 29.6234 0.5 27V5ZM5.25 1.75C3.45507 1.75 2 3.20507 2 5V7.25H10.25H10.5607L10.7803 7.46967L14.5605 11.2499H19V1.75H5.25ZM20.5 1.75V11.2499H24.8701L28.7245 7.46487L28.9433 7.25H29.25H37.5V5C37.5 3.20507 36.0449 1.75 34.25 1.75H20.5ZM37.5 8.75H29.5567L26 12.2426V15.25H37.5V8.75ZM37.5 16.75H26V19.6893L29.5607 23.25H37.5V16.75ZM37.5 24.75H29.25H28.9393L28.7197 24.5303L24.9392 20.7499H20.5V30.25H34.25C36.0449 30.25 37.5 28.7949 37.5 27V24.75ZM19 30.25V20.7499H14.5608L10.7803 24.5303L10.5607 24.75H10.25H2V27C2 28.7949 3.45507 30.25 5.25 30.25H19ZM2 23.25H9.93934L13.5 19.6893V16.75H2V23.25ZM2 15.25H13.5V12.3107L9.93934 8.75H2V15.25ZM15 12.7499V19.2499H24.5V12.7499H15Z" fill="#919EAB"/>
</svg>
