<svg width="24" height="24" viewBox="0 0 24 24" fill="none" xmlns="http://www.w3.org/2000/svg">
<path fill-rule="evenodd" clip-rule="evenodd" d="M2.25 7C2.25 5.48122 3.48122 4.25 5 4.25H12C12.4142 4.25 12.75 4.58579 12.75 5C12.75 5.41421 12.4142 5.75 12 5.75H5C4.30964 5.75 3.75 6.30964 3.75 7V8.25H12C12.4142 8.25 12.75 8.58579 12.75 9C12.75 9.41421 12.4142 9.75 12 9.75H3.75V17C3.75 17.6904 4.30964 18.25 5 18.25H19C19.6904 18.25 20.25 17.6904 20.25 17V12.5C20.25 12.0858 20.5858 11.75 21 11.75C21.4142 11.75 21.75 12.0858 21.75 12.5V17C21.75 18.5188 20.5188 19.75 19 19.75H5C3.48122 19.75 2.25 18.5188 2.25 17V9V7ZM18 4.25C18.4142 4.25 18.75 4.58579 18.75 5V6.75H20.5C20.9142 6.75 21.25 7.08579 21.25 7.5C21.25 7.91421 20.9142 8.25 20.5 8.25H18.75V10C18.75 10.4142 18.4142 10.75 18 10.75C17.5858 10.75 17.25 10.4142 17.25 10V8.25H15.5C15.0858 8.25 14.75 7.91421 14.75 7.5C14.75 7.08579 15.0858 6.75 15.5 6.75H17.25V5C17.25 4.58579 17.5858 4.25 18 4.25ZM6.5 14.25C6.08579 14.25 5.75 14.5858 5.75 15C5.75 15.4142 6.08579 15.75 6.5 15.75H8.5C8.91421 15.75 9.25 15.4142 9.25 15C9.25 14.5858 8.91421 14.25 8.5 14.25H6.5ZM11 14.25C10.5858 14.25 10.25 14.5858 10.25 15C10.25 15.4142 10.5858 15.75 11 15.75H15C15.4142 15.75 15.75 15.4142 15.75 15C15.75 14.5858 15.4142 14.25 15 14.25H11Z" fill="white"/>
</svg>
