<svg width="40" height="40" viewBox="0 0 40 40" fill="none" xmlns="http://www.w3.org/2000/svg">
<path d="M19.9997 3.33331C10.8163 3.33331 3.33301 10.8166 3.33301 20C3.33301 29.1833 10.8163 36.6666 19.9997 36.6666C29.183 36.6666 36.6663 29.1833 36.6663 20C36.6663 10.8166 29.183 3.33331 19.9997 3.33331ZM25.5997 23.8333C26.083 24.3166 26.083 25.1166 25.5997 25.6C25.3497 25.85 25.033 25.9666 24.7163 25.9666C24.3997 25.9666 24.083 25.85 23.833 25.6L19.9997 21.7666L16.1663 25.6C15.9163 25.85 15.5997 25.9666 15.283 25.9666C14.9663 25.9666 14.6497 25.85 14.3997 25.6C13.9163 25.1166 13.9163 24.3166 14.3997 23.8333L18.233 20L14.3997 16.1666C13.9163 15.6833 13.9163 14.8833 14.3997 14.4C14.883 13.9166 15.683 13.9166 16.1663 14.4L19.9997 18.2333L23.833 14.4C24.3163 13.9166 25.1163 13.9166 25.5997 14.4C26.083 14.8833 26.083 15.6833 25.5997 16.1666L21.7663 20L25.5997 23.8333Z" fill="#FF4842"/>
</svg>
