<svg width="24" height="24" viewBox="0 0 24 24" fill="none" xmlns="http://www.w3.org/2000/svg">
<path fill-rule="evenodd" clip-rule="evenodd" d="M22 12C22 17.5 17.5 22 12 22C6.5 22 2 17.5 2 12C2 6.5 6.5 2 12 2C17.5 2 22 6.5 22 12ZM15.9391 8.06082C16.232 8.35371 16.232 8.82859 15.9391 9.12148L13.0606 12L15.9391 14.8786C16.232 15.1715 16.232 15.6463 15.9391 15.9392C15.6462 16.2321 15.1713 16.2321 14.8784 15.9392L11.9999 13.0607L9.12136 15.9392C8.82847 16.2321 8.35359 16.2321 8.0607 15.9392C7.76781 15.6463 7.76781 15.1715 8.0607 14.8786L10.9392 12L8.0607 9.12148C7.76781 8.82859 7.76781 8.35371 8.0607 8.06082C8.35359 7.76793 8.82847 7.76793 9.12136 8.06082L11.9999 10.9394L14.8784 8.06082C15.1713 7.76793 15.6462 7.76793 15.9391 8.06082Z" fill="#C94F4F"/>
</svg>
