<svg width="24" height="24" viewBox="0 0 24 24" fill="none" xmlns="http://www.w3.org/2000/svg">
<circle cx="12" cy="12" r="9" fill="#FF4842"/>
<path d="M12 1C5.928 1 1 5.928 1 12C1 18.072 5.928 23 12 23C18.072 23 23 18.072 23 12C23 5.928 18.072 1 12 1ZM12.363 17.5C12.165 17.566 11.824 17.566 11.626 17.5C9.91 16.917 6.06 14.464 6.06 10.306C6.06 8.469 7.534 6.984 9.36 6.984C10.438 6.984 11.395 7.501 12 8.315C12.594 7.512 13.562 6.984 14.64 6.984C16.466 6.984 17.94 8.469 17.94 10.306C17.94 14.464 14.09 16.917 12.363 17.5Z" fill="white"/>
</svg>
