<svg width="24" height="24" viewBox="0 0 24 24" fill="none" xmlns="http://www.w3.org/2000/svg">
<path fill-rule="evenodd" clip-rule="evenodd" d="M2.25 3C2.25 2.58579 2.58579 2.25 3 2.25H8.78947C9.20369 2.25 9.53947 2.58579 9.53947 3C9.53947 3.41421 9.20369 3.75 8.78947 3.75H3.75V8.78947C3.75 9.20369 3.41421 9.53947 3 9.53947C2.58579 9.53947 2.25 9.20369 2.25 8.78947V3ZM14.4605 3C14.4605 2.58579 14.7963 2.25 15.2105 2.25H21C21.4142 2.25 21.75 2.58579 21.75 3V8.78947C21.75 9.20369 21.4142 9.53947 21 9.53947C20.5858 9.53947 20.25 9.20369 20.25 8.78947V3.75H15.2105C14.7963 3.75 14.4605 3.41421 14.4605 3ZM3 14.4605C3.41421 14.4605 3.75 14.7963 3.75 15.2105V20.25H8.78947C9.20369 20.25 9.53947 20.5858 9.53947 21C9.53947 21.4142 9.20369 21.75 8.78947 21.75H3C2.58579 21.75 2.25 21.4142 2.25 21V15.2105C2.25 14.7963 2.58579 14.4605 3 14.4605ZM21 14.4605C21.4142 14.4605 21.75 14.7963 21.75 15.2105V21C21.75 21.4142 21.4142 21.75 21 21.75H15.2105C14.7963 21.75 14.4605 21.4142 14.4605 21C14.4605 20.5858 14.7963 20.25 15.2105 20.25H20.25V15.2105C20.25 14.7963 20.5858 14.4605 21 14.4605Z" fill="#919EAB"/>
</svg>
