<svg width="64" height="72" viewBox="0 0 64 72" fill="none" xmlns="http://www.w3.org/2000/svg">
<rect x="27" y="58" width="10" height="14" fill="url(#paint0_linear_143_2525)"/>
<g style="mix-blend-mode:multiply" opacity="0.4">
<rect x="34" y="58" width="3" height="14" fill="#D77D41"/>
</g>
<path d="M27 59V58.5C26.7239 58.5 26.5 58.7239 26.5 59H27ZM37 59H37.5C37.5 58.7239 37.2761 58.5 37 58.5V59ZM27.5 72V59H26.5V72H27.5ZM27 59.5H37V58.5H27V59.5ZM36.5 59V72H37.5V59H36.5Z" fill="#212B36"/>
<mask id="path-4-outside-1_143_2525" maskUnits="userSpaceOnUse" x="21" y="50" width="22" height="10" fill="black">
<rect fill="white" x="21" y="50" width="22" height="10"/>
<path d="M22 57.1511V51H42V57.1511C42 57.6407 41.6476 58.0574 41.1634 58.1302C39.3628 58.4011 35.0374 59 32 59C28.9626 59 24.6372 58.4011 22.8366 58.1302C22.3524 58.0574 22 57.6407 22 57.1511Z"/>
</mask>
<path d="M22 57.1511V51H42V57.1511C42 57.6407 41.6476 58.0574 41.1634 58.1302C39.3628 58.4011 35.0374 59 32 59C28.9626 59 24.6372 58.4011 22.8366 58.1302C22.3524 58.0574 22 57.6407 22 57.1511Z" fill="url(#paint1_linear_143_2525)"/>
<path d="M22 51V50H21V51H22ZM22.8366 58.1302L22.9853 57.1414H22.9853L22.8366 58.1302ZM41.1634 58.1302L41.3122 59.1191H41.3122L41.1634 58.1302ZM42 51H43V50H42V51ZM21 51V57.1511H23V51H21ZM22.6878 59.1191C24.4829 59.3891 28.8778 60 32 60V58C29.0474 58 24.7915 57.413 22.9853 57.1414L22.6878 59.1191ZM32 60C35.1222 60 39.5171 59.3891 41.3122 59.1191L41.0147 57.1414C39.2085 57.413 34.9526 58 32 58V60ZM43 57.1511V51H41V57.1511H43ZM42 50H22V52H42V50ZM41.3122 59.1191C42.2947 58.9713 43 58.1264 43 57.1511H41C41 57.153 40.9998 57.1527 41.0002 57.1515C41.0006 57.1506 41.0011 57.1496 41.002 57.1485C41.003 57.1474 41.0048 57.1457 41.0077 57.1441C41.011 57.1422 41.0139 57.1415 41.0147 57.1414L41.3122 59.1191ZM21 57.1511C21 58.1264 21.7053 58.9713 22.6878 59.1191L22.9853 57.1414C22.9861 57.1415 22.989 57.1422 22.9923 57.1441C22.9952 57.1457 22.997 57.1474 22.998 57.1485C22.9989 57.1496 22.9994 57.1506 22.9998 57.1515C23.0002 57.1527 23 57.153 23 57.1511H21Z" fill="#212B36" mask="url(#path-4-outside-1_143_2525)"/>
<g style="mix-blend-mode:multiply" opacity="0.4">
<path d="M42 51V57.1511C42 57.6407 41.6463 58.0576 41.1621 58.1304C40.4353 58.2397 39.2979 58.4024 38 58.5576V51H42Z" fill="#113F58"/>
</g>
<mask id="path-7-outside-2_143_2525" maskUnits="userSpaceOnUse" x="0" y="1" width="64" height="52" fill="black">
<rect fill="white" y="1" width="64" height="52"/>
<path d="M1 48.1467V13.8641C1 13.3678 1.35835 12.948 1.84997 12.8804C4.35326 12.5362 12.0367 11.5368 20.2006 11.0463C20.6677 11.0182 21.0578 10.6751 21.1852 10.2248C21.8031 8.04173 24.2164 2 32 2C39.7836 2 42.1969 8.04173 42.8148 10.2248C42.9422 10.6751 43.3323 11.0182 43.7994 11.0463C51.9633 11.5368 59.6467 12.5362 62.15 12.8804C62.6416 12.948 63 13.3678 63 13.8641V48.1467C63 48.6383 62.6437 49.0564 62.1577 49.1303C58.3696 49.7069 42.6339 52 32 52C21.3661 52 5.63043 49.7069 1.84232 49.1303C1.35635 49.0564 1 48.6383 1 48.1467Z"/>
</mask>
<path d="M1 48.1467V13.8641C1 13.3678 1.35835 12.948 1.84997 12.8804C4.35326 12.5362 12.0367 11.5368 20.2006 11.0463C20.6677 11.0182 21.0578 10.6751 21.1852 10.2248C21.8031 8.04173 24.2164 2 32 2C39.7836 2 42.1969 8.04173 42.8148 10.2248C42.9422 10.6751 43.3323 11.0182 43.7994 11.0463C51.9633 11.5368 59.6467 12.5362 62.15 12.8804C62.6416 12.948 63 13.3678 63 13.8641V48.1467C63 48.6383 62.6437 49.0564 62.1577 49.1303C58.3696 49.7069 42.6339 52 32 52C21.3661 52 5.63043 49.7069 1.84232 49.1303C1.35635 49.0564 1 48.6383 1 48.1467Z" fill="url(#paint2_linear_143_2525)"/>
<path d="M1.84232 49.1303L1.69186 50.1189H1.69186L1.84232 49.1303ZM62.1577 49.1303L62.3081 50.1189L62.1577 49.1303ZM62.15 12.8804L62.0138 13.8711L62.15 12.8804ZM43.7994 11.0463L43.8593 10.0481L43.7994 11.0463ZM20.2006 11.0463L20.1407 10.0481L20.2006 11.0463ZM1.84997 12.8804L1.98618 13.8711H1.98618L1.84997 12.8804ZM42.8148 10.2248L41.8526 10.4972V10.4972L42.8148 10.2248ZM21.1852 10.2248L22.1474 10.4972L22.1474 10.4972L21.1852 10.2248ZM0 13.8641V48.1467H2V13.8641H0ZM1.69186 50.1189C5.46987 50.6939 21.2787 53 32 53V51C21.4535 51 5.79098 48.7198 1.99278 48.1417L1.69186 50.1189ZM32 53C42.7213 53 58.5301 50.6939 62.3081 50.1189L62.0072 48.1417C58.209 48.7198 42.5465 51 32 51V53ZM64 48.1467V13.8641H62V48.1467H64ZM62.2862 11.8897C59.7727 11.5442 52.0604 10.5408 43.8593 10.0481L43.7394 12.0445C51.8661 12.5327 59.5207 13.5283 62.0138 13.8711L62.2862 11.8897ZM20.1407 10.0481C11.9396 10.5408 4.22725 11.5442 1.71376 11.8897L1.98618 13.8711C4.47926 13.5283 12.1339 12.5327 20.2606 12.0445L20.1407 10.0481ZM43.777 9.95249C43.4455 8.78152 42.6304 6.55796 40.8278 4.61384C38.9975 2.63985 36.1879 1 32 1V3C35.5957 3 37.8845 4.38101 39.3612 5.97367C40.8657 7.59619 41.5661 9.48505 41.8526 10.4972L43.777 9.95249ZM32 1C27.8121 1 25.0025 2.63985 23.1722 4.61384C21.3696 6.55796 20.5545 8.78152 20.223 9.95249L22.1474 10.4972C22.4339 9.48505 23.1343 7.59619 24.6388 5.97367C26.1155 4.38101 28.4043 3 32 3V1ZM20.2606 12.0445C21.1928 11.9885 21.9157 11.3159 22.1474 10.4972L20.223 9.95249C20.2136 9.9858 20.1944 10.0135 20.1739 10.0309C20.1549 10.0469 20.1432 10.0479 20.1407 10.0481L20.2606 12.0445ZM64 13.8641C64 12.8793 63.2838 12.0269 62.2862 11.8897L62.0138 13.8711C62.0141 13.8711 62.0134 13.871 62.0119 13.8706C62.0106 13.8701 62.0091 13.8695 62.0076 13.8686C62.0045 13.867 62.0026 13.8652 62.0015 13.864C62.0005 13.8628 62.0001 13.8618 61.9999 13.8613C61.9995 13.8604 62 13.861 62 13.8641H64ZM62.3081 50.1189C63.2869 49.97 64 49.1282 64 48.1467H62C62 48.1481 61.9998 48.1477 62.0002 48.1466C62.0005 48.1459 62.0008 48.1455 62.0011 48.1452C62.0013 48.1449 62.0021 48.1441 62.0037 48.1432C62.0058 48.142 62.0074 48.1417 62.0072 48.1417L62.3081 50.1189ZM0 48.1467C0 49.1282 0.713123 49.97 1.69186 50.1189L1.99278 48.1417C1.9926 48.1417 1.99424 48.142 1.99625 48.1432C1.99787 48.1441 1.99866 48.1449 1.99894 48.1452C1.99921 48.1455 1.99949 48.1459 1.99975 48.1466C2.00016 48.1477 2 48.1481 2 48.1467H0ZM43.8593 10.0481C43.8568 10.0479 43.8451 10.0469 43.8261 10.0309C43.8056 10.0135 43.7864 9.9858 43.777 9.95249L41.8526 10.4972C42.0843 11.3159 42.8072 11.9885 43.7394 12.0445L43.8593 10.0481ZM2 13.8641C2 13.861 2.00046 13.8604 2.00014 13.8613C1.99994 13.8618 1.99949 13.8628 1.99846 13.864C1.9974 13.8652 1.99547 13.867 1.99244 13.8686C1.99093 13.8695 1.98942 13.8701 1.98805 13.8706C1.98665 13.871 1.98592 13.8711 1.98618 13.8711L1.71376 11.8897C0.716212 12.0269 0 12.8793 0 13.8641H2Z" fill="#161C24" mask="url(#path-7-outside-2_143_2525)"/>
<g style="mix-blend-mode:multiply" opacity="0.3">
<path d="M32 52C21.3661 52 5.63043 49.7069 1.84232 49.1303C1.35635 49.0564 1 48.6383 1 48.1467V47C1 47 19.8372 50 32 50C41.5614 50 55.656 47.7334 59.1791 47.1405C59.6577 47.06 60 46.6463 60 46.161V12.5964C60.9042 12.7116 61.6325 12.8093 62.145 12.8797C62.6367 12.9473 63 13.3678 63 13.8641V48.1467C63 48.6383 62.6437 49.0564 62.1577 49.1303C58.3696 49.7069 42.6339 52 32 52Z" fill="#00AB55"/>
</g>
<path d="M10.7571 33.676V26.06H12.3811V33.676H10.7571ZM12.3811 33.662C12.3811 34.4647 12.1711 35.0947 11.7511 35.552C11.3405 36 10.7665 36.224 10.0291 36.224L9.84714 34.894C10.0431 34.894 10.2065 34.8473 10.3371 34.754C10.4678 34.6513 10.5705 34.5113 10.6451 34.334C10.7198 34.1473 10.7571 33.9233 10.7571 33.662H12.3811ZM9.21714 34.656C9.31047 34.7307 9.40847 34.7913 9.51114 34.838C9.6138 34.8753 9.7258 34.894 9.84714 34.894L10.0291 36.224C9.77714 36.224 9.5298 36.182 9.28714 36.098C9.0538 36.0233 8.82514 35.9067 8.60114 35.748L9.21714 34.656Z" fill="#161C24"/>
<path d="M15.5817 34.166V32.836H19.1517V34.166H15.5817ZM17.9477 26.06L15.4977 36H13.9157L16.3657 26.06H17.9477ZM17.9757 26.06L20.4117 36H18.8297L16.3937 26.06H17.9757Z" fill="#161C24"/>
<path d="M21.7491 33.494V28.552H23.3731V33.494H21.7491ZM21.7491 28.566C21.7491 28.034 21.8751 27.5627 22.1271 27.152C22.3791 26.7413 22.7244 26.4193 23.1631 26.186C23.6111 25.9527 24.1198 25.836 24.6891 25.836V27.152C24.2784 27.152 23.9564 27.278 23.7231 27.53C23.4898 27.7727 23.3731 28.118 23.3731 28.566H21.7491ZM21.7491 33.494H23.3731C23.3731 33.9327 23.4898 34.278 23.7231 34.53C23.9564 34.7727 24.2784 34.894 24.6891 34.894V36.224C24.1198 36.224 23.6111 36.1073 23.1631 35.874C22.7244 35.6407 22.3791 35.3187 22.1271 34.908C21.8751 34.4973 21.7491 34.026 21.7491 33.494ZM26.2151 28.958C26.1684 28.398 26.0098 27.9593 25.7391 27.642C25.4684 27.3153 25.1138 27.152 24.6751 27.152V25.836C25.5244 25.836 26.2151 26.088 26.7471 26.592C27.2791 27.0867 27.5918 27.7867 27.6851 28.692L26.2151 28.958ZM26.2151 33.088L27.6851 33.368C27.5918 34.264 27.2791 34.964 26.7471 35.468C26.2151 35.972 25.5244 36.224 24.6751 36.224V34.894C25.1138 34.894 25.4684 34.7353 25.7391 34.418C26.0098 34.1007 26.1684 33.6573 26.2151 33.088Z" fill="#161C24"/>
<path d="M29.9798 30.708L32.7938 26.06H34.3618L31.4778 30.708H29.9798ZM32.8218 36L29.7418 30.708H31.4778L34.5438 36H32.8218ZM29.2238 36V26.06H30.8478V36H29.2238Z" fill="#161C24"/>
<path d="M36.6567 27.376V26.06H37.8467V27.376H36.6567ZM36.6567 32.304V30.988H37.8467V32.304H36.6567ZM39.1487 29.588V28.776H40.7727V29.588H39.1487ZM40.7727 28.79H39.1487C39.1487 28.342 39.032 27.9967 38.7987 27.754C38.5654 27.502 38.2434 27.376 37.8327 27.376V26.06C38.4114 26.06 38.92 26.1767 39.3587 26.41C39.7974 26.6433 40.1427 26.9653 40.3947 27.376C40.6467 27.7867 40.7727 28.258 40.7727 28.79ZM40.7727 29.574C40.7727 30.106 40.6467 30.5773 40.3947 30.988C40.1427 31.3987 39.7974 31.7207 39.3587 31.954C38.92 32.1873 38.4114 32.304 37.8327 32.304V30.988C38.2434 30.988 38.5654 30.8667 38.7987 30.624C39.032 30.372 39.1487 30.022 39.1487 29.574H40.7727ZM35.3827 36V26.06H37.0067V36H35.3827Z" fill="#161C24"/>
<path d="M46.4792 33.494V28.552H48.1032V33.494H46.4792ZM42.2372 33.494V28.552H43.8612V33.494H42.2372ZM48.1032 28.58H46.4792C46.4792 28.132 46.3626 27.7867 46.1292 27.544C45.8959 27.292 45.5739 27.166 45.1632 27.166V25.85C45.7419 25.85 46.2506 25.9667 46.6892 26.2C47.1279 26.4333 47.4732 26.7553 47.7252 27.166C47.9772 27.5767 48.1032 28.048 48.1032 28.58ZM42.2372 28.58C42.2372 28.048 42.3632 27.5767 42.6152 27.166C42.8672 26.7553 43.2126 26.4333 43.6512 26.2C44.0992 25.9667 44.6079 25.85 45.1772 25.85V27.166C44.7666 27.166 44.4446 27.292 44.2112 27.544C43.9779 27.7867 43.8612 28.132 43.8612 28.58H42.2372ZM48.1032 33.48C48.1032 34.012 47.9772 34.4833 47.7252 34.894C47.4732 35.3047 47.1279 35.6267 46.6892 35.86C46.2506 36.0933 45.7419 36.21 45.1632 36.21V34.88C45.5739 34.88 45.8959 34.7587 46.1292 34.516C46.3626 34.264 46.4792 33.9187 46.4792 33.48H48.1032ZM42.2372 33.48H43.8612C43.8612 33.9187 43.9779 34.264 44.2112 34.516C44.4446 34.7587 44.7666 34.88 45.1772 34.88V36.21C44.6079 36.21 44.0992 36.0933 43.6512 35.86C43.2126 35.6267 42.8672 35.3047 42.6152 34.894C42.3632 34.4833 42.2372 34.012 42.2372 33.48Z" fill="#161C24"/>
<path d="M49.2323 27.376V26.06H55.3923V27.376H49.2323ZM51.5003 36V26.06H53.1243V36H51.5003Z" fill="#161C24"/>
<path d="M14 1L17 7M50 1L47 7M4 59L9 55M47 56L50 62" stroke="#01B359" stroke-width="1.5" stroke-linecap="round" stroke-linejoin="round"/>
<path d="M4 4L9 8M60 4L55 8M14 62L17 56M55 55L60 59" stroke="#E1B416" stroke-width="1.5" stroke-linecap="round" stroke-linejoin="round"/>
<path d="M31.5277 9.35869C31.6834 8.91091 32.3166 8.91091 32.4723 9.35869L33.5316 12.4061C33.6002 12.6036 33.7846 12.7376 33.9937 12.7418L37.2193 12.8076C37.6932 12.8172 37.8889 13.4195 37.5111 13.7059L34.9402 15.655C34.7736 15.7814 34.7032 15.9981 34.7637 16.1983L35.698 19.2863C35.8352 19.7401 35.3229 20.1123 34.9338 19.8415L32.2856 17.9987C32.1139 17.8793 31.8861 17.8793 31.7144 17.9987L29.0662 19.8415C28.6771 20.1123 28.1648 19.7401 28.302 19.2863L29.2363 16.1983C29.2968 15.9981 29.2264 15.7814 29.0598 15.655L26.4889 13.7059C26.1111 13.4195 26.3068 12.8172 26.7807 12.8076L30.0063 12.7418C30.2154 12.7376 30.3998 12.6036 30.4684 12.4061L31.5277 9.35869Z" fill="#FFF18D" stroke="#161C24"/>
<mask id="path-14-inside-3_143_2525" fill="white">
<path fill-rule="evenodd" clip-rule="evenodd" d="M16 18C16 19.1046 15.1046 20 14 20C12.8954 20 12 19.1046 12 18C12 16.8954 12.8954 16 14 16C15.1046 16 16 16.8954 16 18ZM52 18C52 19.1046 51.1046 20 50 20C48.8954 20 48 19.1046 48 18C48 16.8954 48.8954 16 50 16C51.1046 16 52 16.8954 52 18ZM14 46C15.1046 46 16 45.1046 16 44C16 42.8954 15.1046 42 14 42C12.8954 42 12 42.8954 12 44C12 45.1046 12.8954 46 14 46ZM34 44C34 45.1046 33.1046 46 32 46C30.8954 46 30 45.1046 30 44C30 42.8954 30.8954 42 32 42C33.1046 42 34 42.8954 34 44ZM50 46C51.1046 46 52 45.1046 52 44C52 42.8954 51.1046 42 50 42C48.8954 42 48 42.8954 48 44C48 45.1046 48.8954 46 50 46Z"/>
</mask>
<path fill-rule="evenodd" clip-rule="evenodd" d="M16 18C16 19.1046 15.1046 20 14 20C12.8954 20 12 19.1046 12 18C12 16.8954 12.8954 16 14 16C15.1046 16 16 16.8954 16 18ZM52 18C52 19.1046 51.1046 20 50 20C48.8954 20 48 19.1046 48 18C48 16.8954 48.8954 16 50 16C51.1046 16 52 16.8954 52 18ZM14 46C15.1046 46 16 45.1046 16 44C16 42.8954 15.1046 42 14 42C12.8954 42 12 42.8954 12 44C12 45.1046 12.8954 46 14 46ZM34 44C34 45.1046 33.1046 46 32 46C30.8954 46 30 45.1046 30 44C30 42.8954 30.8954 42 32 42C33.1046 42 34 42.8954 34 44ZM50 46C51.1046 46 52 45.1046 52 44C52 42.8954 51.1046 42 50 42C48.8954 42 48 42.8954 48 44C48 45.1046 48.8954 46 50 46Z" fill="white"/>
<path d="M14 21C15.6569 21 17 19.6569 17 18H15C15 18.5523 14.5523 19 14 19V21ZM11 18C11 19.6569 12.3431 21 14 21V19C13.4477 19 13 18.5523 13 18H11ZM14 15C12.3431 15 11 16.3431 11 18H13C13 17.4477 13.4477 17 14 17V15ZM17 18C17 16.3431 15.6569 15 14 15V17C14.5523 17 15 17.4477 15 18H17ZM50 21C51.6569 21 53 19.6569 53 18H51C51 18.5523 50.5523 19 50 19V21ZM47 18C47 19.6569 48.3431 21 50 21V19C49.4477 19 49 18.5523 49 18H47ZM50 15C48.3431 15 47 16.3431 47 18H49C49 17.4477 49.4477 17 50 17V15ZM53 18C53 16.3431 51.6569 15 50 15V17C50.5523 17 51 17.4477 51 18H53ZM15 44C15 44.5523 14.5523 45 14 45V47C15.6569 47 17 45.6569 17 44H15ZM14 43C14.5523 43 15 43.4477 15 44H17C17 42.3431 15.6569 41 14 41V43ZM13 44C13 43.4477 13.4477 43 14 43V41C12.3431 41 11 42.3431 11 44H13ZM14 45C13.4477 45 13 44.5523 13 44H11C11 45.6569 12.3431 47 14 47V45ZM32 47C33.6569 47 35 45.6569 35 44H33C33 44.5523 32.5523 45 32 45V47ZM29 44C29 45.6569 30.3431 47 32 47V45C31.4477 45 31 44.5523 31 44H29ZM32 41C30.3431 41 29 42.3431 29 44H31C31 43.4477 31.4477 43 32 43V41ZM35 44C35 42.3431 33.6569 41 32 41V43C32.5523 43 33 43.4477 33 44H35ZM51 44C51 44.5523 50.5523 45 50 45V47C51.6569 47 53 45.6569 53 44H51ZM50 43C50.5523 43 51 43.4477 51 44H53C53 42.3431 51.6569 41 50 41V43ZM49 44C49 43.4477 49.4477 43 50 43V41C48.3431 41 47 42.3431 47 44H49ZM50 45C49.4477 45 49 44.5523 49 44H47C47 45.6569 48.3431 47 50 47V45Z" fill="#161C24" mask="url(#path-14-inside-3_143_2525)"/>
<path fill-rule="evenodd" clip-rule="evenodd" d="M23 19C23.5523 19 24 18.5523 24 18C24 17.4477 23.5523 17 23 17C22.4477 17 22 17.4477 22 18C22 18.5523 22.4477 19 23 19ZM41 19C41.5523 19 42 18.5523 42 18C42 17.4477 41.5523 17 41 17C40.4477 17 40 17.4477 40 18C40 18.5523 40.4477 19 41 19ZM24 44C24 44.5523 23.5523 45 23 45C22.4477 45 22 44.5523 22 44C22 43.4477 22.4477 43 23 43C23.5523 43 24 43.4477 24 44ZM41 45C41.5523 45 42 44.5523 42 44C42 43.4477 41.5523 43 41 43C40.4477 43 40 43.4477 40 44C40 44.5523 40.4477 45 41 45Z" fill="#161C24"/>
<defs>
<linearGradient id="paint0_linear_143_2525" x1="27" y1="58" x2="39.7565" y2="61.2802" gradientUnits="userSpaceOnUse">
<stop stop-color="#F79E60"/>
<stop offset="1" stop-color="#D77D41"/>
</linearGradient>
<linearGradient id="paint1_linear_143_2525" x1="42" y1="58" x2="22" y2="49" gradientUnits="userSpaceOnUse">
<stop stop-color="#142E3E"/>
<stop offset="1" stop-color="#0F5172"/>
</linearGradient>
<linearGradient id="paint2_linear_143_2525" x1="21.5" y1="12.5" x2="63" y2="52" gradientUnits="userSpaceOnUse">
<stop stop-color="#00E974"/>
<stop offset="1" stop-color="#00AB55"/>
</linearGradient>
</defs>
</svg>
