<svg width="40" height="40" viewBox="0 0 40 40" fill="none" xmlns="http://www.w3.org/2000/svg">
<rect width="40" height="40" rx="20" fill="#161C24"/>
<path fill-rule="evenodd" clip-rule="evenodd" d="M13.75 14C13.75 12.2042 15.2043 10.75 17 10.75H23C24.7958 10.75 26.25 12.2042 26.25 14V17C26.25 20.4558 23.4558 23.25 20 23.25C16.5443 23.25 13.75 20.4558 13.75 17V14ZM17 9.25C15.2515 9.25 13.7242 10.1938 12.8997 11.6H12.54C10.7258 11.6 9.29004 13.0358 9.29004 14.85C9.29004 16.4816 9.99355 17.8528 10.9826 18.9517C10.9914 18.9615 11.0004 18.971 11.0097 18.9803C11.5396 19.5102 12.2046 19.9751 12.9696 20.2687C14.1214 22.7451 16.5425 24.509 19.4 24.7272V26.25H17.15C15.6358 26.25 14.4 27.4858 14.4 29V29.25H14.15C13.7358 29.25 13.4 29.5858 13.4 30C13.4 30.4142 13.7358 30.75 14.15 30.75H15.15H25.15H25.9H26.15C26.5643 30.75 26.9 30.4142 26.9 30C26.9 29.5858 26.5643 29.25 26.15 29.25H25.9V29C25.9 27.4858 24.6643 26.25 23.15 26.25H20.9V24.6984C23.6264 24.384 25.9193 22.658 27.0305 20.2687C27.7955 19.9751 28.4605 19.5102 28.9904 18.9803C28.9997 18.971 29.0087 18.9615 29.0175 18.9517C30.0065 17.8528 30.71 16.4816 30.71 14.85C30.71 13.0358 29.2743 11.6 27.46 11.6H27.1004C26.2759 10.1938 24.7486 9.25 23 9.25H17ZM24.4 29V29.25H15.9V29C15.9 28.3142 16.4643 27.75 17.15 27.75H23.15C23.8358 27.75 24.4 28.3142 24.4 29ZM12.1935 13.1325C11.3808 13.2878 10.79 13.9832 10.79 14.85C10.79 16.012 11.2811 17.0359 12.0842 17.9334C12.1338 17.9826 12.1849 18.0309 12.2372 18.0781C12.1735 17.6791 12.14 17.2693 12.14 16.85V13.85C12.14 13.6084 12.1577 13.3684 12.1935 13.1325ZM27.86 13.85C27.86 13.6084 27.8424 13.3684 27.8066 13.1325C28.6193 13.2878 29.21 13.9832 29.21 14.85C29.21 16.012 28.719 17.0359 27.9159 17.9334C27.8662 17.9826 27.8152 18.0309 27.7629 18.0781C27.8266 17.6791 27.86 17.2693 27.86 16.85V13.85Z" fill="#00AB55"/>
</svg>
