<svg width="32" height="32" viewBox="0 0 32 32" fill="none" xmlns="http://www.w3.org/2000/svg">
<rect width="32" height="32" rx="16" fill="#212B36"/>
<path d="M3.14475 6.24687C2.68175 4.42843 3.15112 2.91187 3.82781 2.40818C4.07919 2.22118 4.46106 2.0355 4.85337 2.21218C5.41812 2.46687 5.84331 3.34806 5.94562 4.56937L6.85287 4.49112C6.67062 2.31593 5.76337 1.59425 5.23875 1.35762C4.60844 1.07337 3.9085 1.1795 3.26806 1.65612C2.14956 2.48862 1.72525 4.47156 2.23625 6.47818C2.58956 7.86581 3.34881 9.113 4.43194 10.0849C5.71725 11.2382 7.39512 11.9698 9.431 12.2592L9.56906 11.331C4.76525 10.6482 3.47606 7.54812 3.14475 6.24687Z" fill="#FFE8A7"/>
<path d="M28.9803 6.24693C29.4433 4.4285 28.9739 2.91193 28.2972 2.40825C28.0458 2.22125 27.6639 2.03556 27.2716 2.21225C26.7069 2.46693 26.2814 3.34812 26.179 4.56943L25.2721 4.49118C25.4543 2.31593 26.3616 1.59425 26.8862 1.35762C27.5165 1.07337 28.2164 1.1795 28.8569 1.65612C29.9754 2.48862 30.3997 4.47156 29.8887 6.47818C29.5354 7.86581 28.7761 9.113 27.693 10.0849C26.4077 11.2382 24.7298 11.9698 22.6939 12.2592L22.5559 11.331C27.3598 10.6482 28.6489 7.54818 28.9803 6.24693Z" fill="#FFE8A7"/>
<path d="M19.401 21.3816H12.7229C13.6835 19.5066 13.5748 17.2735 13.4435 16.1929H18.6804C18.5492 17.2729 18.4404 19.5066 19.401 21.3816Z" fill="#FFC54B"/>
<path d="M19.4011 21.3816H18.0261C17.0654 19.5066 17.1742 17.2729 17.3054 16.1929H18.6804C18.5492 17.2729 18.4404 19.5066 19.4011 21.3816Z" fill="#FEAC38"/>
<path d="M21.7165 24.0009L20.1859 24.1703L16.0622 24.6259L10.4072 24.0009C10.4072 21.1196 13.9215 20.7021 16.0622 20.7021C16.5728 20.7021 17.1615 20.7259 17.7622 20.8009C19.6797 21.0415 21.7165 21.8071 21.7165 24.0009Z" fill="#FFE8A7"/>
<path d="M21.7166 24.0003L20.186 24.1697C20.156 22.1659 18.9897 21.194 17.7622 20.8003C19.6797 21.0409 21.7166 21.8065 21.7166 24.0003Z" fill="#FFE26F"/>
<path d="M18.6885 16.1914C18.0397 16.3083 17.1828 16.3783 16.0622 16.3783C9.00471 16.3783 12.3985 13.6089 12.3985 13.6089H19.7253C19.7253 13.6089 22.1266 15.5689 18.6885 16.1914Z" fill="#FFE8A7"/>
<path d="M18.6884 16.1914C20.3978 15.3658 18.8734 13.6089 18.8734 13.6089H19.7253C19.7253 13.6089 22.1266 15.5689 18.6884 16.1914Z" fill="#FFE26F"/>
<path d="M7.31195 24.4817H24.812V29.9686H7.31195L7.31195 24.4817Z" fill="#DF9F7A"/>
<path d="M23.2719 24.4817H24.8119V29.9686H23.2719V24.4817Z" fill="#CC7F6A"/>
<path d="M26.687 29.8083V31.6913C26.687 31.862 26.5488 32.0001 26.3782 32.0001H5.7457C5.57508 32.0001 5.43695 31.8619 5.43695 31.6913V29.8083C5.43695 29.6376 5.57508 29.4995 5.7457 29.4995H26.3782C26.5488 29.4995 26.687 29.6376 26.687 29.8083Z" fill="#A35D4D"/>
<path d="M26.6869 29.8083V31.6913C26.6869 31.862 26.5488 32.0001 26.3782 32.0001H24.9384C25.1091 32.0001 25.2472 31.8619 25.2472 31.6913V29.8083C25.2472 29.6376 25.1091 29.4995 24.9384 29.4995H26.3782C26.5488 29.4995 26.6869 29.6376 26.6869 29.8083Z" fill="#894740"/>
<path d="M25.7495 24.0005H6.37445C6.11558 24.0005 5.9057 24.2103 5.9057 24.4692C5.9057 24.7282 6.11558 24.938 6.37445 24.938H25.7495C26.0083 24.938 26.2182 24.7282 26.2182 24.4692C26.2182 24.2103 26.0083 24.0005 25.7495 24.0005Z" fill="#A35D4D"/>
<path d="M16.0622 14.2837C4.47281 14.2837 5.78906 2.23938 6.08156 0.270625C6.10469 0.115 6.23844 0 6.39594 0H25.7284C25.8859 0 26.0197 0.115 26.0428 0.270625C26.3353 2.23938 27.6509 14.2837 16.0622 14.2837Z" fill="#FFC54B"/>
<path d="M16.0622 14.2837C27.2159 12.8112 24.6065 0 24.6065 0H25.7284C25.8859 0 26.0197 0.115 26.0428 0.270625C26.3353 2.23938 27.6509 14.2837 16.0622 14.2837Z" fill="#FEAC38"/>
</svg>
