<svg width="40" height="40" viewBox="0 0 40 40" fill="none" xmlns="http://www.w3.org/2000/svg">
<rect width="40" height="40" rx="20" fill="#161C24"/>
<path d="M26.91 22.6924C26.91 23.9824 27.97 25.0324 29.26 25.0324C29.26 28.7824 28.32 29.7224 24.57 29.7224H15.19C11.44 29.7224 10.5 28.7824 10.5 25.0324V24.5724C11.79 24.5724 12.85 23.5124 12.85 22.2224C12.85 20.9324 11.79 19.8724 10.5 19.8724V19.4124C10.51 15.6624 11.44 14.7224 15.19 14.7224H24.56C28.31 14.7224 29.25 15.6624 29.25 19.4124V20.3524C27.96 20.3524 26.91 21.3924 26.91 22.6924Z" stroke="#00AB55" stroke-width="1.5" stroke-linecap="round" stroke-linejoin="round"/>
<path d="M24.2111 14.7225H15.1211L18.0511 11.7925C20.4411 9.4025 21.6411 9.4025 24.0311 11.7925L24.6311 12.3925C24.0011 13.0225 23.8511 13.9525 24.2111 14.7225Z" stroke="#00AB55" stroke-width="1.5" stroke-linecap="round" stroke-linejoin="round"/>
<path d="M17.8789 14.7227L17.8789 29.7227" stroke="#00AB55" stroke-width="1.5" stroke-linecap="round" stroke-linejoin="round" stroke-dasharray="5 5"/>
</svg>
