<svg width="16" height="16" viewBox="0 0 16 16" fill="none" xmlns="http://www.w3.org/2000/svg">
<path fill-rule="evenodd" clip-rule="evenodd" d="M5.41678 4.66665C5.41678 3.23991 6.57338 2.08331 8.00011 2.08331C9.42685 2.08331 10.5834 3.23991 10.5834 4.66665C10.5834 6.09338 9.42685 7.24998 8.00011 7.24998C6.57338 7.24998 5.41678 6.09338 5.41678 4.66665ZM8.00011 0.583313C5.74495 0.583313 3.91678 2.41148 3.91678 4.66665C3.91678 6.92181 5.74495 8.74998 8.00011 8.74998C10.2553 8.74998 12.0834 6.92181 12.0834 4.66665C12.0834 2.41148 10.2553 0.583313 8.00011 0.583313ZM8.0001 9.25C4.57723 9.25 1.52344 11.5358 1.52344 14.6667C1.52344 15.0809 1.85922 15.4167 2.27344 15.4167C2.68765 15.4167 3.02344 15.0809 3.02344 14.6667C3.02344 12.6375 5.10298 10.75 8.0001 10.75C10.8972 10.75 12.9768 12.6375 12.9768 14.6667C12.9768 15.0809 13.3126 15.4167 13.7268 15.4167C14.141 15.4167 14.4768 15.0809 14.4768 14.6667C14.4768 11.5358 11.423 9.25 8.0001 9.25Z" fill="white"/>
</svg>
