<svg width="24" height="24" viewBox="0 0 24 24" fill="none" xmlns="http://www.w3.org/2000/svg">
<path fill-rule="evenodd" clip-rule="evenodd" d="M2.75 12C2.75 6.89137 6.89137 2.75 12 2.75C17.1086 2.75 21.25 6.89137 21.25 12C21.25 14.2736 20.4297 16.3556 19.069 17.9662C18.7067 17.2869 18.131 16.6773 17.3887 16.1778L17.3871 16.1767C15.8774 15.1665 13.9234 14.685 12.0075 14.685C10.0914 14.685 8.1336 15.1666 6.61504 16.1753L6.61503 16.1752L6.6113 16.1778C5.86898 16.6773 5.29334 17.2869 4.93103 17.9662C3.57028 16.3556 2.75 14.2736 2.75 12ZM9.49038 20.9055C10.2541 21.1203 11.0578 21.2395 11.8878 21.2493C11.9251 21.2498 11.9625 21.25 12 21.25C12.0329 21.25 12.0657 21.2498 12.0985 21.2495C12.9381 21.2407 13.7508 21.1201 14.5225 20.9019C15.7861 20.544 16.9387 19.9231 17.9216 19.1C17.7538 18.5356 17.323 17.9417 16.5521 17.4228C15.3419 16.6133 13.6963 16.185 12.0075 16.185C10.3195 16.185 8.6681 16.613 7.44685 17.4235C6.67666 17.9422 6.24614 18.5359 6.07839 19.1C7.06467 19.9259 8.22175 20.5482 9.49038 20.9055ZM10.3629 22.6261C5.20281 21.8377 1.25 17.3805 1.25 12C1.25 6.06294 6.06294 1.25 12 1.25C17.9371 1.25 22.75 6.06294 22.75 12C22.75 17.9371 17.9371 22.75 12 22.75C11.8145 22.75 11.63 22.7453 11.4468 22.736C11.1974 22.7234 10.9502 22.7022 10.7056 22.6729C10.5908 22.6591 10.4765 22.6435 10.3629 22.6261ZM12 6.98001C10.5957 6.98001 9.47 8.11273 9.47 9.51001C9.47 10.8588 10.5236 11.9585 11.8587 12.0284C11.9506 12.0209 12.0487 12.0202 12.1439 12.0283C13.4732 11.9572 14.5213 10.8618 14.53 9.50789C14.5289 8.11308 13.3951 6.98001 12 6.98001ZM7.97 9.51001C7.97 7.28729 9.7643 5.48001 12 5.48001C14.2242 5.48001 16.03 7.2858 16.03 9.51001V9.51425H16.03C16.0177 11.6826 14.3122 13.4557 12.1456 13.5296C12.1016 13.5311 12.0575 13.5287 12.0139 13.5225C12.0182 13.5231 12.0191 13.523 12.0163 13.5229C12.0137 13.5227 12.0094 13.5225 12.0038 13.5225C11.9915 13.5225 11.9801 13.5233 11.973 13.5242C11.9337 13.5291 11.8941 13.5309 11.8544 13.5296C9.69161 13.4558 7.97 11.6855 7.97 9.51001Z" fill="#919EAB"/>
</svg>
