<svg width="200" height="48" viewBox="0 0 200 48" fill="none" xmlns="http://www.w3.org/2000/svg">
<g clip-path="url(#clip0_3113_27721)">
<path d="M6.31605 8.5558C6.31605 8.46721 6.28654 8.37862 6.25702 8.23097L4.39763 3.15178C4.16152 2.53164 3.83686 2.26587 3.33512 2.26587C2.80387 2.26587 2.47921 2.53164 2.27261 3.15178L0.383708 8.23097C0.32468 8.40815 0.295166 8.49674 0.295166 8.5558C0.295166 8.82157 0.501765 9.02829 0.796906 9.02829C1.03302 9.02829 1.2101 8.91016 1.32816 8.61486L1.94796 6.87258H4.72229L5.34208 8.61486C5.43063 8.91016 5.60771 9.02829 5.84382 9.02829C6.10945 9.05782 6.31605 8.82157 6.31605 8.5558ZM2.2431 5.98667L3.15804 3.35849C3.18755 3.2699 3.21707 3.24037 3.30561 3.24037C3.36464 3.24037 3.39415 3.2699 3.42366 3.35849L4.3386 5.98667H2.2431ZM14.7866 8.99876H16.7936C18.0922 8.99876 18.8891 8.23097 18.8891 6.90211C18.8891 5.63231 18.1217 4.92359 16.7936 4.92359H15.0227V3.29943H17.9741C18.2988 3.29943 18.5054 3.12225 18.5054 2.79741C18.5054 2.50211 18.2988 2.32493 17.9741 2.32493H14.7571C14.2554 2.32493 13.9602 2.5907 13.9602 3.12225V8.20144C14.0192 8.73298 14.2849 8.99876 14.7866 8.99876ZM15.0522 5.83902H16.705C17.4724 5.83902 17.8266 6.25245 17.8266 6.93164C17.8266 7.64037 17.4724 8.05379 16.705 8.05379H15.0522V5.83902ZM3.45318 15.082H1.47573V13.0149H4.7518C4.9584 13.0149 5.13549 12.8967 5.13549 12.69C5.13549 12.4833 4.98791 12.3652 4.7518 12.3652H1.38719C1.00351 12.3652 0.796906 12.5719 0.796906 12.9558V18.4779C0.796906 18.8618 1.00351 19.0686 1.38719 19.0686H3.45318C4.72229 19.0686 5.46014 18.3303 5.46014 17.0605C5.46014 15.7907 4.72229 15.082 3.45318 15.082ZM3.36464 18.3894H1.47573V15.7021H3.36464C4.3386 15.7021 4.7518 16.1746 4.7518 17.031C4.7518 17.8873 4.36812 18.3894 3.36464 18.3894ZM8.23447 13.9598C7.64419 13.9598 7.08342 14.1075 6.78828 14.2551C6.58168 14.3437 6.49313 14.4323 6.49313 14.6095C6.49313 14.7867 6.64071 14.9048 6.78828 14.9048C6.87682 14.9048 6.96536 14.8753 7.0539 14.8162C7.29002 14.7276 7.73273 14.58 8.17544 14.58C9.03135 14.58 9.44455 14.9343 9.44455 15.7021V16.1746C8.91329 16.0269 8.52961 15.9679 8.05739 15.9679C6.78828 15.9679 6.16848 16.7061 6.16848 17.5035C6.16848 18.478 6.90633 19.0981 8.02787 19.0981C8.97232 19.0981 9.71018 18.7733 9.9758 18.5665C10.0939 18.4779 10.1234 18.4189 10.1234 18.2712V15.6726C10.0939 14.5209 9.38552 13.9598 8.23447 13.9598ZM9.41504 18.1531C9.03135 18.3598 8.52961 18.5075 8.0869 18.5075C7.2605 18.5075 6.78828 18.1531 6.78828 17.533C6.78828 16.9719 7.20148 16.588 8.0869 16.588C8.52961 16.588 8.9133 16.6471 9.41504 16.7947V18.1531ZM27.0055 3.91956C26.12 3.91956 25.4117 4.24439 25.1461 4.39204C24.91 4.53969 24.8804 4.62829 24.8804 5.01218V10.1504C24.8804 10.4753 25.087 10.682 25.3822 10.682C25.6773 10.682 25.8839 10.4753 25.8839 10.1504V8.82157C26.1791 8.96922 26.6513 9.08735 27.094 9.08735C28.2746 9.08735 29.0715 8.31956 29.16 7.19741C29.1895 6.81352 29.1895 6.19339 29.16 5.80949C29.0715 4.68735 28.2746 3.91956 27.0055 3.91956ZM28.1565 7.04976C28.0975 7.69943 27.6843 8.11285 26.976 8.11285C26.5923 8.11285 26.12 7.99473 25.8839 7.81755V5.15983C26.12 4.98265 26.5923 4.86453 26.976 4.86453C27.7138 4.86453 28.0975 5.30748 28.1565 5.92761C28.186 6.28198 28.186 6.6954 28.1565 7.04976ZM11.1859 8.17191L9.44455 6.42963L11.0973 4.77594C11.2154 4.65782 11.3039 4.51016 11.3039 4.36251C11.3039 4.12627 11.1269 3.94909 10.8612 3.94909C10.7137 3.94909 10.5956 4.00815 10.4775 4.1558L8.76572 5.83902C8.67718 5.92761 8.58864 5.98667 8.44107 5.98667H8.0869V4.51016C8.0869 4.18533 7.8803 3.97862 7.58516 3.97862C7.29002 3.97862 7.08342 4.18533 7.08342 4.51016V8.49674C7.08342 8.82157 7.29002 9.02829 7.58516 9.02829C7.8803 9.02829 8.0869 8.82157 8.0869 8.49674V6.90211H8.38204C8.5001 6.90211 8.61815 6.96117 8.7067 7.04976L10.5071 8.8511C10.6546 8.99875 10.7727 9.05782 10.9203 9.05782C11.1859 9.05782 11.363 8.88063 11.363 8.61486C11.363 8.43768 11.3039 8.31956 11.1859 8.17191ZM33.8527 7.16788C33.6166 7.16788 33.4986 7.31553 33.41 7.46318C33.2329 7.84708 32.8788 8.11285 32.3475 8.11285C31.6392 8.11285 31.1965 7.6699 31.1374 7.04976C31.1079 6.6954 31.1079 6.31151 31.1374 5.95714C31.1965 5.30748 31.6097 4.89406 32.3475 4.89406C32.8493 4.89406 33.2329 5.15983 33.41 5.54372C33.4986 5.69137 33.6166 5.83902 33.8527 5.83902C34.1479 5.83902 34.3545 5.66184 34.3545 5.36654C34.3545 5.21889 34.2955 5.07124 34.2069 4.89406C33.9118 4.33298 33.2625 3.91956 32.3475 3.91956C31.1079 3.91956 30.2815 4.71688 30.1635 5.83902C30.134 6.22292 30.134 6.84305 30.1635 7.19741C30.2815 8.31956 31.1079 9.11688 32.3475 9.11688C33.2625 9.11688 33.9118 8.67392 34.2069 8.11285C34.2955 7.93567 34.3545 7.78802 34.3545 7.64037C34.325 7.34506 34.1479 7.16788 33.8527 7.16788ZM21.6634 3.91956C21.1026 3.91956 20.6009 4.06721 20.2762 4.18533C20.0106 4.30345 19.8926 4.4511 19.8926 4.65782C19.8926 4.89406 20.0696 5.10077 20.3058 5.10077C20.4238 5.10077 20.5419 5.04171 20.6894 5.01218C20.896 4.92359 21.2502 4.835 21.6044 4.835C22.3717 4.835 22.6964 5.1303 22.6964 5.7209V6.13433C22.2537 6.0162 21.87 5.95714 21.4568 5.95714C20.1877 5.95714 19.5679 6.6954 19.5679 7.46318C19.5679 8.37862 20.2762 9.08735 21.4863 9.08735C22.4308 9.08735 23.1686 8.76251 23.4638 8.5558C23.6113 8.46721 23.6409 8.37862 23.6409 8.17191V5.7209C23.6704 4.48063 22.9325 3.91956 21.6634 3.91956ZM22.6964 7.9652C22.4013 8.11285 21.9881 8.23097 21.6044 8.23097C20.9551 8.23097 20.5419 7.93567 20.5419 7.46318C20.5419 7.02023 20.896 6.66587 21.6044 6.66587C21.9881 6.66587 22.3127 6.72493 22.7259 6.84305V7.9652H22.6964ZM18.5054 16.4994L20.4238 14.58C20.5124 14.4914 20.5419 14.4028 20.5419 14.3142C20.5419 14.1665 20.4238 14.0189 20.2467 14.0189C20.1582 14.0189 20.0696 14.0484 19.9811 14.137L18.0922 16.0269C17.9741 16.1451 17.8856 16.2041 17.738 16.2041H17.4134V14.4028C17.4134 14.1665 17.2953 14.0484 17.0887 14.0484C16.8821 14.0484 16.7641 14.1665 16.7641 14.4028V18.7733C16.7641 19.0095 16.8821 19.1276 17.0887 19.1276C17.2953 19.1276 17.4134 19.0095 17.4134 18.7733V16.8243H17.7675C17.9151 16.8243 18.0332 16.8833 18.1217 17.0014L20.1287 19.0095C20.2172 19.0981 20.3058 19.1276 20.3943 19.1276C20.5714 19.1276 20.6894 18.98 20.6894 18.8323C20.6894 18.7142 20.6599 18.6551 20.5419 18.537L18.5054 16.4994ZM15.0817 13.9894C14.8752 13.9894 14.7571 14.1075 14.7571 14.3437V16.1451H11.9828V14.3437C11.9828 14.1075 11.8647 13.9894 11.6581 13.9894C11.4515 13.9894 11.3335 14.1075 11.3335 14.3437V18.7142C11.3335 18.9504 11.4515 19.0686 11.6581 19.0686C11.8647 19.0686 11.9828 18.9504 11.9828 18.7142V16.7652H14.7571V18.7142C14.7571 18.9504 14.8752 19.0686 15.0817 19.0686C15.2883 19.0686 15.4064 18.9504 15.4064 18.7142V14.3437C15.4064 14.137 15.2883 13.9894 15.0817 13.9894Z" fill="#212121"/>
<path d="M34.2954 32.4163L29.7798 33.2431C29.0419 33.3908 28.5402 34.0995 28.6582 34.8377C28.8058 35.576 29.5141 36.078 30.252 35.9599L34.7677 35.133C35.8302 34.9263 36.509 35.576 36.7746 36.2552C37.0402 36.9344 36.9812 37.8498 36.0663 38.4404L29.4551 42.7518C28.8353 43.1653 28.0975 43.1653 27.4482 42.8404C26.7988 42.4861 26.4152 41.8364 26.4152 41.0981V30.4968C26.4152 28.725 25.5002 27.1894 23.936 26.333C22.4012 25.4767 20.5714 25.5653 19.0957 26.5102L2.39065 37.3478C0.501744 38.5585 -0.206595 40.7733 0.619801 42.8699C1.4462 44.9666 3.48267 46.0887 5.69623 45.7048L20.2762 43.0767C21.0141 42.929 21.5158 42.2203 21.3978 41.482C21.2502 40.7438 20.5418 40.2418 19.804 40.3599L5.22401 42.9881C4.13198 43.1948 3.48267 42.5451 3.21705 41.8659C2.95142 41.1867 3.01045 40.2713 3.92538 39.6807L20.6304 28.8431C21.2502 28.4297 21.988 28.4297 22.6373 28.7545C23.2867 29.1089 23.6703 29.7585 23.6703 30.4968V41.0981C23.6703 42.8699 24.5853 44.4055 26.1495 45.2619C26.8579 45.6458 27.6548 45.8525 28.4221 45.8525C29.3075 45.8525 30.193 45.5867 30.9898 45.0847L37.6305 40.7733C39.5194 39.5626 40.2278 37.3478 39.4014 35.2512C38.5455 33.1545 36.509 32.0028 34.2954 32.4163ZM57.6706 35.2216C56.8442 33.125 54.8078 32.0028 52.5942 32.3867L48.0785 33.2136C47.3407 33.3612 46.8389 34.0699 46.957 34.8082C47.1046 35.5465 47.8129 36.0485 48.5508 35.9304L53.0664 35.1035C54.1289 34.8968 54.8078 35.5465 55.0734 36.2257C55.339 36.9048 55.28 37.8203 54.3651 38.4109L47.7539 42.7518C47.1341 43.1653 46.3962 43.1653 45.7469 42.8404C45.0976 42.4861 44.7139 41.8364 44.7139 41.0981V27.1304C44.7139 26.3626 44.0941 25.7424 43.3268 25.7424C42.5594 25.7424 41.9396 26.3626 41.9396 27.1304V41.0981C41.9396 42.8699 42.8545 44.4055 44.4188 45.2619C45.1271 45.6458 45.924 45.8525 46.6914 45.8525C47.5768 45.8525 48.4622 45.5867 49.2591 45.0847L55.8998 40.7733C57.7887 39.533 58.497 37.3183 57.6706 35.2216Z" fill="#009B3A"/>
</g>
<defs>
<clipPath id="clip0_3113_27721">
<rect width="58.1429" height="44" fill="white" transform="translate(0 2)"/>
</clipPath>
</defs>
</svg>
