<svg width="137" height="48" viewBox="0 0 137 48" fill="none" xmlns="http://www.w3.org/2000/svg">
<mask id="mask0_3696_10908" style="mask-type:luminance" maskUnits="userSpaceOnUse" x="0" y="-16" width="157" height="64">
<path d="M0 48H156.284V-15.975H0V48Z" fill="white"/>
</mask>
<g mask="url(#mask0_3696_10908)">
<path d="M15.4108 6.10352e-05C18.6773 6.10352e-05 19.7037 2.34298 20.5648 4.68223C20.9266 5.67559 29.4151 28.9212 29.6703 29.6189C29.7382 29.8136 29.6923 30.1331 29.393 30.2487C29.0919 30.3626 24.6815 32.0775 24.4373 32.1694C24.1931 32.263 23.9195 32.1271 23.8314 31.8829C23.7395 31.6424 21.9089 26.5746 21.7033 26.0091H9.12198C8.92367 26.5746 7.071 31.6534 6.98837 31.8829C6.90391 32.1161 6.64134 32.274 6.38061 32.1694C6.11988 32.0665 1.69293 30.3516 1.42852 30.2487C1.17513 30.1496 1.05946 29.8613 1.14759 29.6189C1.45974 28.7486 9.81971 5.87573 10.2457 4.68223C11.0756 2.37787 12.1369 6.10352e-05 15.4108 6.10352e-05ZM0.475562 41.5943C0.211157 41.5943 0 41.8146 0 42.0827V47.5159C0 47.7839 0.211157 48.0006 0.475562 48.0006H30.3331C30.6031 48.0006 30.8142 47.7839 30.8142 47.5159V42.0827C30.8142 41.8146 30.6031 41.5943 30.3331 41.5943H0.475562ZM15.3814 7.59069L11.1289 20.3611H19.7037L15.4365 7.59069H15.3814ZM79.193 28.5301C78.5669 28.7413 78.1537 28.7927 77.6617 28.7927C76.6444 28.7927 76.0807 28.3906 76.0807 27.3476C76.0807 26.2606 76.7968 25.8971 78.2033 25.8971C78.5467 25.8971 78.8845 25.9467 79.0424 26.0017V26.7803C79.0424 27.6194 79.0883 28.1702 79.193 28.5301ZM82.8084 29.775C82.0574 28.6348 81.8609 27.9627 81.8609 26.525V23.6056C81.8609 22.0338 81.6773 21.4665 81.2623 20.8936C80.684 20.082 79.72 19.7295 77.9481 19.7295C76.694 19.7295 75.4766 19.8653 74.2978 20.1665L74.7238 22.2413C75.5207 22.1293 76.3562 22.0338 76.9456 22.0338C78.8276 22.0338 79.0424 22.3056 79.0424 23.7176V24.2445C78.6238 24.1325 78.1537 24.0517 77.6084 24.0517C74.7752 24.0517 73.2788 25.438 73.2788 27.7332C73.2788 29.8852 74.8781 31.0585 76.8262 31.0585C77.5533 31.0585 78.3135 30.9244 78.9157 30.6784C79.2793 30.5205 79.4372 30.4268 79.9073 30.122C80.19 30.5333 80.7574 30.9538 80.9888 31.0328L82.8084 29.775ZM110.833 28.5301C110.204 28.7413 109.798 28.7927 109.302 28.7927C108.281 28.7927 107.71 28.3906 107.71 27.3476C107.71 26.2606 108.435 25.8971 109.846 25.8971C110.189 25.8971 110.529 25.9467 110.683 26.0017V26.7803C110.683 27.6194 110.727 28.1702 110.833 28.5301ZM114.453 29.775C113.696 28.6348 113.503 27.9627 113.503 26.525V23.6056C113.503 22.0338 113.316 21.4665 112.897 20.8936C112.326 20.082 111.36 19.7295 109.583 19.7295C108.331 19.7295 107.106 19.8653 105.927 20.1665L106.348 22.2413C107.147 22.1293 107.984 22.0338 108.59 22.0338C110.461 22.0338 110.683 22.3056 110.683 23.7176V24.2445C110.264 24.1325 109.798 24.0517 109.242 24.0517C106.405 24.0517 104.903 25.438 104.903 27.7332C104.903 29.8852 106.506 31.0585 108.463 31.0585C109.199 31.0585 109.952 30.9244 110.549 30.6784C110.918 30.5205 111.07 30.4268 111.54 30.122C111.827 30.5333 112.394 30.9538 112.627 31.0328L114.453 29.775ZM136.512 30.8143C136.512 30.8143 134.959 27.5037 134.579 26.7509C134.151 25.9026 133.754 25.3169 132.88 25.1057V25.058C133.466 24.946 133.932 24.5916 134.443 23.5082C134.926 22.4525 135.069 22.2248 135.353 21.9732C135.632 21.7235 136.014 21.8135 136.014 21.8135L136.158 19.8617C135.752 19.8066 135.302 19.8047 134.837 19.8304C134.066 19.8763 133.668 20.0985 133.288 20.4804C132.99 20.7724 132.788 21.2094 132.539 21.7107C132.274 22.2578 132.065 22.6985 131.789 23.2549C131.516 23.8259 131.387 24.083 130.651 24.083H130.172V15.4365H127.335V30.8143H130.172V26.3928L130.559 26.3855C131.373 26.3855 131.516 26.5893 131.946 27.4468C132.449 28.4695 133.413 30.8143 133.413 30.8143H136.512ZM56.5956 30.8143H59.8694L54.9173 15.6936C54.3959 15.5192 53.7514 15.4108 53.0628 15.4108C52.3118 15.4108 52.0437 15.51 51.4562 15.6936L46.2158 30.8143H49.3575C49.3575 30.8143 49.7816 29.4886 50.281 27.8452H55.7087C56.1934 29.4867 56.5956 30.8143 56.5956 30.8143ZM51.0779 25.3095C51.0779 25.3095 51.985 22.2744 52.1264 21.8025C52.4863 20.5796 53.0334 18.6369 53.0334 18.6369H53.1234C53.1234 18.6369 53.6302 20.6494 53.9607 21.7804C54.0855 22.2303 54.9522 25.3095 54.9522 25.3095H51.0779ZM87.6411 23.5799C86.6404 23.5799 85.827 24.3969 85.827 25.3976C85.827 26.4057 86.6404 27.2173 87.6411 27.2173C88.6437 27.2173 89.4534 26.4057 89.4534 25.3976C89.4534 24.3969 88.6437 23.5799 87.6411 23.5799ZM63.7565 15.4365H60.9123V30.8124H63.7565V15.4365ZM120.264 22.1734C121.836 22.2064 122.03 22.5314 122.03 23.8498V30.8143H124.849V23.6056C124.849 22.0338 124.665 21.4665 124.247 20.8936C123.668 20.082 122.532 19.7295 120.609 19.7295C118.707 19.7295 117.495 19.9314 115.936 20.396V30.8143H118.784V22.3056C119.531 22.1972 119.664 22.1734 120.264 22.1734ZM70.7908 15.163C69.0134 15.163 68.0458 15.5155 67.4766 16.3252C67.0579 16.9 66.8725 17.4802 66.8725 19.0556V20.396H65.4605V22.6948H66.8725V30.8143H69.6928L69.6854 22.6948H72.4966V20.396H69.6854L69.6928 19.1639C69.6928 17.7538 69.9076 17.4802 71.7915 17.4802C71.9953 17.4802 72.2248 17.4912 72.469 17.5096L72.9134 15.3007C72.2175 15.2089 71.5051 15.163 70.7908 15.163ZM93.4195 15.3062C94.3871 15.2493 96.5501 15.1685 97.907 15.1685C98.1549 15.1685 98.412 15.1703 98.669 15.1832C101.337 15.1832 102.866 17.1258 102.866 19.4063C102.866 20.9578 102.156 21.9879 100.49 22.6012C102.45 23.0345 103.476 24.564 103.476 26.4351C103.476 27.8085 103.089 28.8992 102.378 29.6428C101.456 30.5499 100.061 31.0585 98.2026 31.0585C96.5501 31.0585 94.4753 31.0071 93.4195 30.9446V15.3062ZM97.907 17.8254C97.437 17.8254 96.8549 17.8346 96.2784 17.8548V21.5472H97.9089C98.5552 21.5472 99.0748 21.3673 99.4292 21.0203C99.767 20.6934 99.9433 20.2307 99.9433 19.6817C99.9433 18.5011 99.3043 17.8327 98.1163 17.8254H97.907ZM97.9658 28.4071H98.0888C99.5706 28.4071 100.478 27.6194 100.489 26.0329C100.474 25.4637 100.255 24.9386 99.8644 24.5585C99.4365 24.1289 98.8306 23.9049 98.12 23.9049H96.2784V28.3906C96.798 28.4016 97.3709 28.4034 97.9658 28.4071Z" fill="white"/>
</g>
</svg>
