<svg width="200" height="48" viewBox="0 0 200 48" fill="none" xmlns="http://www.w3.org/2000/svg">
<g clip-path="url(#clip0_3113_26373)">
<path d="M5.98837 6H29.3567C29.7944 6.03383 30.2347 6.04811 30.6777 6.04282C31.0377 6.03806 31.3073 6.18079 31.6483 6.20458C31.7049 6.20871 31.7587 6.23034 31.8021 6.26643C31.8465 6.30449 31.8962 6.32564 31.9512 6.32987C32.0347 6.33621 32.1161 6.3563 32.1954 6.39013C34.652 7.42256 36.1174 9.58573 36.1142 12.2897C36.1078 19.9253 36.1084 27.6936 36.1158 35.5945C36.1158 36.0893 36.0803 36.5683 36.0095 37.0314C35.6828 39.1819 34.1619 40.8613 32.1574 41.7367C32.0432 41.7864 31.9279 41.8144 31.8116 41.8208C31.7154 41.8261 31.6298 41.8583 31.5547 41.9175C31.5124 41.9514 31.4643 41.9656 31.4104 41.9604C31.2296 41.9434 31.0615 41.9566 30.9061 42H5.19225C4.87189 42.0053 4.61392 41.9551 4.41833 41.8493C4.37002 41.8237 4.3148 41.8148 4.26132 41.824C4.15031 41.843 4.0578 41.8086 3.98379 41.7209C3.95313 41.6839 3.91348 41.6648 3.86485 41.6638C3.85004 41.6638 3.83524 41.6633 3.82044 41.6622C3.78449 41.6611 3.75013 41.6532 3.71736 41.6384C1.95172 40.8359 0.787136 39.4874 0.223612 37.5928C0.162291 37.3824 0.0877533 37.1672 0 36.9473V11.1161C0.111013 10.7683 0.225198 10.4236 0.342555 10.0821C0.478943 9.68458 0.624846 9.35418 0.780264 9.09092C1.58485 7.72705 2.75789 6.78079 4.29938 6.25216C4.7096 6.11154 5.2726 6.02749 5.98837 6ZM32.2446 34.459C32.5057 34.6039 32.7658 34.7392 33.0248 34.865C33.3674 35.03 33.6576 35.2441 33.9827 35.4391C34.0409 35.473 34.0927 35.4655 34.1381 35.4169L34.1746 35.3773C34.1823 35.3691 34.1881 35.3593 34.1918 35.3487C34.1955 35.3381 34.1969 35.3269 34.1961 35.3157C34.1952 35.3045 34.1919 35.2936 34.1866 35.2838C34.1813 35.2739 34.174 35.2652 34.1651 35.2583C32.6511 34.07 31.3015 32.8906 30.1163 31.7202C28.4722 30.0973 26.9107 28.2391 25.4315 26.1457C25.1281 25.7165 24.8463 25.3015 24.5863 24.9008C21.4155 20.013 19.339 14.7013 18.3568 8.96564C18.3092 8.68335 18.3616 8.40581 18.2189 8.13621C18.13 7.96969 18.1522 7.78255 18.1554 7.60335C18.1565 7.57057 18.1406 7.55313 18.1078 7.55101L18.0492 7.54467C17.9995 7.54044 17.9699 7.56264 17.9604 7.61128C17.797 8.38678 17.7066 9.16705 17.5559 9.93463C16.1276 17.2404 12.9695 23.7457 8.08176 29.4507C6.30449 31.5262 4.28881 33.4324 2.03471 35.1695C1.97445 35.216 1.95436 35.2758 1.97445 35.3487L1.98872 35.3995C2.00564 35.4576 2.04 35.4708 2.09181 35.4391C5.60617 33.3256 9.31242 31.9697 13.2106 31.3713C19.5468 30.3986 25.6324 31.292 31.4675 34.0515C31.6462 34.136 31.9052 34.2719 32.2446 34.459Z" fill="#FF5001"/>
<path d="M108.401 39.7178L108.403 9.48252C108.403 9.46436 108.407 9.44641 108.414 9.42994C108.422 9.41347 108.433 9.39889 108.447 9.38724C108.461 9.37558 108.477 9.36714 108.495 9.3625C108.512 9.35786 108.531 9.35715 108.549 9.36041L108.763 9.40006C108.791 9.40527 108.817 9.42035 108.836 9.44268C108.854 9.465 108.864 9.49314 108.864 9.52217V39.6987C108.864 39.7294 108.852 39.7589 108.831 39.7815C108.811 39.8041 108.782 39.8181 108.752 39.8208L108.536 39.8399C108.519 39.8414 108.502 39.8394 108.486 39.834C108.469 39.8286 108.454 39.8198 108.442 39.8084C108.429 39.7969 108.419 39.7829 108.412 39.7673C108.405 39.7517 108.401 39.7349 108.401 39.7178Z" fill="#383A37"/>
<path d="M117.03 16.6953H114.692C114.648 16.6953 114.617 16.7159 114.599 16.7572L113.904 18.37C113.882 18.4219 113.843 18.4478 113.787 18.4478H113.516C113.431 18.4488 113.406 18.4107 113.44 18.3336L115.636 13.2539C115.657 13.2055 115.691 13.1642 115.735 13.1352C115.779 13.1063 115.83 13.0908 115.883 13.0908C115.936 13.0908 115.988 13.1063 116.032 13.1352C116.076 13.1642 116.111 13.2055 116.132 13.2539L118.353 18.3859C118.37 18.425 118.357 18.4451 118.315 18.4462L117.961 18.4509C117.905 18.452 117.866 18.4266 117.845 18.3748L117.154 16.7762C117.13 16.7223 117.089 16.6953 117.03 16.6953ZM114.854 16.1545C114.85 16.163 114.849 16.1722 114.85 16.1814C114.851 16.1905 114.854 16.1994 114.859 16.2071C114.864 16.2148 114.87 16.2211 114.879 16.2255C114.887 16.2299 114.896 16.2322 114.905 16.2322L116.833 16.2354C116.842 16.2353 116.851 16.233 116.859 16.2287C116.867 16.2244 116.874 16.2182 116.879 16.2107C116.884 16.2032 116.887 16.1946 116.888 16.1857C116.889 16.1767 116.887 16.1677 116.884 16.1593L115.925 13.9057C115.921 13.8954 115.913 13.8866 115.904 13.8804C115.895 13.8741 115.884 13.8708 115.873 13.8708C115.862 13.8708 115.851 13.8741 115.842 13.8804C115.833 13.8866 115.826 13.8954 115.822 13.9057L114.854 16.1545Z" fill="#383A37"/>
<path d="M49.2694 31.8645C48.9395 32.8943 48.5948 33.9051 48.2353 34.8968C48.0086 35.5264 47.5502 35.7325 46.9444 35.8293C46.7319 35.8631 46.5289 35.8784 46.3354 35.8753C45.533 35.8626 44.6581 35.8642 43.7108 35.88C43.2556 35.888 42.7101 35.6913 42.7751 35.1347C42.7983 34.9317 42.8544 34.7133 42.9432 34.4797C45.506 27.6592 48.0493 20.9001 50.573 14.2023C50.7918 13.6208 51.2523 13.3327 51.9543 13.338C52.7938 13.3443 53.6909 13.3422 54.6456 13.3317C55.3196 13.3253 55.8429 13.5791 56.0856 14.2214C58.6188 20.9667 61.1763 27.7914 63.7582 34.6954C64.0167 35.3884 63.6931 35.8848 62.9953 35.8769C61.9698 35.8652 60.9696 35.8642 59.9948 35.8737C59.7062 35.8769 59.435 35.8214 59.1527 35.7579C58.6336 35.6395 58.2847 35.3059 58.106 34.7572C57.7846 33.7718 57.4669 32.7981 57.1529 31.836C57.1459 31.8153 57.1325 31.7972 57.1146 31.7844C57.0967 31.7716 57.0751 31.7647 57.053 31.7646H49.4057C49.337 31.7646 49.2916 31.7979 49.2694 31.8645ZM51.4008 25.4162C51.1714 26.095 50.9441 26.7738 50.7189 27.4525C50.7171 27.4578 50.7166 27.4634 50.7175 27.4689C50.7183 27.4744 50.7204 27.4796 50.7237 27.4841C50.7269 27.4886 50.7312 27.4923 50.7362 27.4948C50.7411 27.4973 50.7466 27.4986 50.7522 27.4985H55.6875C55.6961 27.4984 55.7045 27.4963 55.7121 27.4924C55.7197 27.4885 55.7262 27.4829 55.7312 27.4761C55.7361 27.4693 55.7393 27.4615 55.7406 27.4532C55.7418 27.445 55.741 27.4366 55.7382 27.4288C55.2022 25.8471 54.6509 24.1967 54.0842 22.4776C53.7236 21.3865 53.4757 20.2229 53.3404 18.987C53.3287 18.877 53.2833 18.7972 53.204 18.7475C53.1395 18.7063 53.1041 18.7237 53.0977 18.7999C53.011 19.9702 52.8672 20.879 52.6664 21.526C52.29 22.7387 51.8681 24.0354 51.4008 25.4162Z" fill="#383A37"/>
<path d="M72.8215 18.164C72.8247 23.6047 72.8242 29.1258 72.82 34.7272C72.8189 35.2209 72.6302 35.5614 72.2538 35.7485C72.0508 35.8489 71.7468 35.8939 71.3419 35.8833C70.5193 35.86 69.682 35.8595 68.8298 35.8817C68.1701 35.8992 67.6325 35.574 67.6325 34.8509C67.6378 29.1554 67.6378 23.5793 67.6325 18.1228C67.6325 18.1072 67.6261 18.0923 67.6148 18.0813C67.6035 18.0703 67.5882 18.0641 67.5722 18.0641C66.0053 18.0567 64.3015 18.0599 62.4608 18.0736C61.9375 18.0768 61.4903 17.8992 61.3983 17.3346C61.3571 17.0856 61.3 16.8636 61.3015 16.6114C61.3058 16.0162 61.3063 15.4135 61.3031 14.8035C61.3031 14.5481 61.3777 14.3261 61.403 14.0724C61.449 13.614 62.0184 13.3429 62.4133 13.3429C67.6753 13.3386 72.8342 13.3376 77.8901 13.3397C78.6154 13.3407 78.9981 13.7155 79.0383 14.4641C79.0848 15.349 79.0843 16.226 79.0367 17.0951C79.0034 17.7104 78.6212 18.0673 78.0344 18.0657C76.1895 18.0636 74.4852 18.063 72.9215 18.0641C72.8548 18.0641 72.8215 18.0974 72.8215 18.164Z" fill="#383A37"/>
<path d="M80.916 34.659V14.648C80.9372 14.5349 80.9525 14.4186 80.962 14.2991C81.008 13.7092 81.395 13.346 82.023 13.3444C86.8674 13.337 91.5046 13.337 95.9345 13.3444C96.332 13.3444 96.6217 13.4908 96.8036 13.7837C96.9284 13.9857 96.9881 14.2299 96.9828 14.5164C96.9691 15.3231 96.9675 16.1145 96.978 16.8905C96.9876 17.7168 96.4436 17.9927 95.6887 17.9911C92.4809 17.9827 89.3239 17.9811 86.2177 17.9864C86.2094 17.9864 86.2011 17.988 86.1934 17.9912C86.1857 17.9944 86.1787 17.999 86.1728 18.0049C86.1669 18.0108 86.1623 18.0178 86.1591 18.0255C86.1559 18.0332 86.1543 18.0415 86.1543 18.0498V21.5768C86.1543 21.5836 86.1556 21.5904 86.1582 21.5966C86.1607 21.6029 86.1645 21.6086 86.1692 21.6133C86.174 21.618 86.1796 21.6217 86.1857 21.6242C86.1919 21.6266 86.1984 21.6278 86.205 21.6276C88.106 21.616 90.0492 21.6202 92.0348 21.6403C92.1839 21.6413 92.3329 21.6503 92.482 21.6672C92.6343 21.6831 92.7839 21.7064 92.9308 21.737C96.0487 22.3851 97.8714 24.2369 98.399 27.2924C98.4963 27.857 98.528 28.5189 98.4942 29.278C98.4646 29.9578 98.3541 30.6064 98.1627 31.2239C97.3476 33.8612 95.2954 35.4027 92.5169 35.7929C92.149 35.8447 91.8143 35.8706 91.513 35.8706C88.4617 35.8653 85.3317 35.8706 82.1229 35.8864C81.8385 35.8875 81.598 35.8299 81.4013 35.7136C81.0788 35.5201 80.9171 35.1686 80.916 34.659ZM86.1606 26.2695L86.1574 31.1414C86.1574 31.2017 86.1876 31.2318 86.2478 31.2318C87.8158 31.2286 89.2811 31.226 90.6439 31.2239C91.7266 31.2218 92.4915 30.746 92.9388 29.7966C93.0455 29.5693 93.1069 29.2854 93.1227 28.9449C93.1396 28.5612 93.1222 28.2725 93.0704 28.079C92.7902 27.0366 92.0929 26.4313 90.9786 26.2632C89.6147 26.2325 88.2445 26.2272 86.8679 26.2473C86.7188 26.2494 86.574 26.2331 86.4334 26.1982C86.3456 26.176 86.2547 26.1997 86.1606 26.2695Z" fill="#383A37"/>
<path d="M121.041 16.6192C121.032 16.6244 121.024 16.6322 121.02 16.6415C121.015 16.6509 121.013 16.6613 121.014 16.6716C121.015 16.6818 121.02 16.6914 121.026 16.699C121.033 16.7067 121.042 16.712 121.052 16.7144C121.277 16.7757 121.432 16.9042 121.517 17.0998C121.775 17.6992 121.445 18.24 120.857 18.424C120.19 18.6333 119.533 18.5392 118.886 18.1417C118.866 18.13 118.852 18.1119 118.845 18.0906C118.838 18.0693 118.839 18.0463 118.847 18.0259C118.886 17.9382 118.935 17.8605 118.995 17.7928C119.034 17.7495 119.078 17.7437 119.127 17.7754C119.62 18.0968 120.135 18.175 120.671 18.0101C121.066 17.888 121.344 17.4043 120.966 17.0807C120.693 16.8476 120.265 16.9015 119.924 16.9285C119.822 16.9359 119.769 16.8883 119.766 16.7858L119.761 16.6668C119.758 16.5664 119.806 16.523 119.905 16.5368C120.418 16.6066 121.103 16.5051 120.968 15.7914C120.928 15.5852 120.706 15.452 120.516 15.4171C120.017 15.3283 119.572 15.4293 119.18 15.72C119.119 15.7666 119.075 15.7539 119.047 15.682L118.973 15.479C118.948 15.4166 118.964 15.3674 119.02 15.3315C119.593 14.9593 120.188 14.8605 120.803 15.0349C121.093 15.1174 121.298 15.2866 121.418 15.5424C121.502 15.719 121.514 15.9024 121.456 16.0927C121.382 16.3338 121.244 16.5093 121.041 16.6192Z" fill="#383A37"/>
<path d="M128.441 18.1035C127.959 18.5619 127.125 18.7125 126.625 18.1939C126.092 17.6389 126.308 16.7508 127.033 16.4939C127.523 16.3205 127.989 16.349 128.431 16.5795C128.483 16.607 128.513 16.5916 128.52 16.5335C128.601 15.8753 128.379 15.352 127.632 15.3837C127.326 15.3975 127.061 15.4688 126.836 15.5978C126.749 15.6465 126.691 15.6232 126.661 15.528L126.622 15.4012C126.597 15.325 126.621 15.2674 126.692 15.2283C127.048 15.0306 127.41 14.9391 127.779 14.9539C128.677 14.9904 128.991 15.5328 128.983 16.3654C128.976 17.0452 128.974 17.7213 128.977 18.3938C128.977 18.4297 128.959 18.4477 128.925 18.4477L128.609 18.4493C128.552 18.4493 128.524 18.4202 128.525 18.362L128.531 18.1432C128.534 18.0565 128.504 18.0433 128.441 18.1035ZM128.546 17.2519C128.531 17.1672 128.493 17.0874 128.436 17.0169C128.378 16.9465 128.301 16.8869 128.209 16.8414C128.117 16.796 128.013 16.7656 127.901 16.7521C127.789 16.7385 127.673 16.7421 127.558 16.7625C127.327 16.8037 127.117 16.9112 126.975 17.0613C126.833 17.2114 126.77 17.3918 126.8 17.5628C126.816 17.6475 126.853 17.7273 126.911 17.7977C126.969 17.8682 127.046 17.9278 127.137 17.9732C127.229 18.0187 127.334 18.049 127.445 18.0626C127.557 18.0761 127.673 18.0726 127.788 18.0522C128.02 18.0109 128.229 17.9034 128.372 17.7534C128.514 17.6033 128.576 17.4229 128.546 17.2519Z" fill="#383A37"/>
<path d="M135.866 15.4869L135.806 15.6201C135.76 15.7195 135.693 15.7375 135.604 15.674C134.868 15.1459 133.967 15.3521 133.522 16.0435C133.391 16.2476 133.327 16.4696 133.33 16.7096C133.339 17.4444 133.671 17.8901 134.326 18.0465C134.826 18.166 135.275 18.0571 135.674 17.7198C135.739 17.6638 135.796 17.6723 135.844 17.7452L135.921 17.8642C135.943 17.8968 135.952 17.9364 135.946 17.9753C135.94 18.0143 135.92 18.0498 135.89 18.0751C135.003 18.8141 133.539 18.6666 133.025 17.539C132.643 16.6985 132.924 15.6233 133.747 15.1776C134.384 14.833 135.069 14.8726 135.804 15.2966C135.836 15.3155 135.86 15.3454 135.872 15.3806C135.883 15.4158 135.881 15.4536 135.866 15.4869Z" fill="#383A37"/>
<path d="M143.345 16.746C143.345 17.2251 143.155 17.6846 142.816 18.0233C142.477 18.3621 142.018 18.5524 141.539 18.5524C141.06 18.5524 140.6 18.3621 140.261 18.0233C139.923 17.6846 139.732 17.2251 139.732 16.746C139.732 16.5088 139.779 16.2739 139.87 16.0548C139.961 15.8356 140.094 15.6365 140.261 15.4688C140.429 15.301 140.628 15.168 140.848 15.0772C141.067 14.9864 141.302 14.9397 141.539 14.9397C141.776 14.9397 142.011 14.9864 142.23 15.0772C142.449 15.168 142.648 15.301 142.816 15.4688C142.984 15.6365 143.117 15.8356 143.208 16.0548C143.298 16.2739 143.345 16.5088 143.345 16.746ZM141.374 18.0966C141.727 18.1399 142.083 18.0386 142.363 17.8151C142.644 17.5916 142.826 17.264 142.87 16.9046C142.915 16.5452 142.817 16.1832 142.599 15.8984C142.38 15.6136 142.06 15.4293 141.707 15.386C141.354 15.3427 140.998 15.4439 140.717 15.6675C140.437 15.891 140.254 16.2185 140.21 16.578C140.166 16.9374 140.264 17.2993 140.482 17.5841C140.7 17.8689 141.021 18.0532 141.374 18.0966Z" fill="#383A37"/>
<path d="M122.968 17.7181L125.12 15.0284C125.125 15.0221 125.131 15.0169 125.138 15.0133C125.145 15.0098 125.153 15.0079 125.161 15.0078L125.504 15.0157C125.517 15.0162 125.53 15.0218 125.54 15.0316C125.549 15.0414 125.554 15.0545 125.554 15.0681V18.3905C125.554 18.4044 125.549 18.4177 125.539 18.4275C125.529 18.4374 125.516 18.4429 125.502 18.4429L125.142 18.4476C125.135 18.4476 125.128 18.4463 125.122 18.4437C125.116 18.441 125.11 18.4372 125.105 18.4323C125.1 18.4274 125.096 18.4217 125.094 18.4153C125.091 18.409 125.09 18.4022 125.09 18.3953V15.8594C125.09 15.8486 125.086 15.838 125.08 15.8293C125.073 15.8205 125.064 15.8139 125.054 15.8104C125.044 15.8069 125.033 15.8067 125.022 15.8098C125.012 15.8129 125.003 15.8192 124.996 15.8277L122.917 18.4334C122.912 18.4399 122.905 18.445 122.897 18.4483C122.889 18.4516 122.881 18.453 122.873 18.4524L122.498 18.4318C122.485 18.431 122.473 18.4251 122.463 18.4154C122.454 18.4056 122.449 18.3928 122.449 18.3794L122.451 15.0776C122.451 15.0642 122.456 15.0514 122.465 15.0417C122.474 15.0319 122.487 15.0261 122.5 15.0253L122.823 15.0094C122.831 15.009 122.838 15.01 122.844 15.0124C122.851 15.0149 122.857 15.0187 122.863 15.0236C122.868 15.0285 122.872 15.0344 122.875 15.0409C122.878 15.0475 122.879 15.0546 122.879 15.0617L122.874 17.6864C122.874 17.6973 122.878 17.7078 122.884 17.7166C122.891 17.7254 122.899 17.732 122.91 17.7355C122.92 17.7389 122.931 17.7391 122.942 17.736C122.952 17.7329 122.961 17.7267 122.968 17.7181Z" fill="#383A37"/>
<path d="M131.268 15.5502L131.27 18.3683C131.27 18.3785 131.268 18.3887 131.264 18.3981C131.26 18.4075 131.254 18.4161 131.247 18.4233C131.24 18.4305 131.231 18.4362 131.222 18.4401C131.212 18.444 131.202 18.4461 131.192 18.4461L130.88 18.4492C130.859 18.4492 130.839 18.441 130.825 18.4265C130.81 18.4119 130.802 18.3921 130.802 18.3715L130.805 15.5502C130.805 15.5296 130.797 15.5098 130.782 15.4952C130.768 15.4807 130.748 15.4725 130.727 15.4725L129.562 15.4788C129.552 15.4788 129.541 15.4768 129.532 15.4728C129.522 15.4688 129.514 15.4629 129.506 15.4555C129.499 15.4481 129.493 15.4394 129.49 15.4298C129.486 15.4201 129.484 15.4099 129.484 15.3995L129.487 15.0887C129.487 15.0681 129.496 15.0483 129.51 15.0337C129.525 15.0192 129.544 15.011 129.565 15.011L132.548 15.0142C132.568 15.0141 132.587 15.0219 132.602 15.0358C132.616 15.0497 132.625 15.0686 132.626 15.0887L132.635 15.3979C132.636 15.4084 132.634 15.4189 132.63 15.4287C132.627 15.4385 132.621 15.4474 132.614 15.455C132.606 15.4625 132.598 15.4685 132.588 15.4726C132.578 15.4767 132.568 15.4788 132.558 15.4788L131.346 15.4725C131.325 15.4725 131.306 15.4807 131.291 15.4952C131.276 15.5098 131.268 15.5296 131.268 15.5502Z" fill="#383A37"/>
<path d="M137.065 15.0127H136.745C136.704 15.0127 136.672 15.0454 136.672 15.0856V18.3748C136.672 18.4151 136.704 18.4478 136.745 18.4478H137.065C137.105 18.4478 137.138 18.4151 137.138 18.3748V15.0856C137.138 15.0454 137.105 15.0127 137.065 15.0127Z" fill="#383A37"/>
<path d="M137.855 16.6873L139.54 18.3652C139.548 18.3723 139.553 18.3814 139.555 18.3914C139.557 18.4014 139.556 18.4118 139.552 18.4213C139.548 18.4307 139.541 18.4387 139.533 18.4442C139.524 18.4498 139.514 18.4527 139.504 18.4524L139.031 18.4445C139.018 18.4444 139.006 18.4393 138.996 18.4302L137.288 16.7317C137.284 16.727 137.28 16.7213 137.277 16.715C137.274 16.7088 137.273 16.702 137.273 16.6952C137.273 16.6884 137.274 16.6817 137.277 16.6754C137.28 16.6692 137.284 16.6635 137.288 16.6588L138.922 15.0237C138.927 15.0185 138.933 15.0144 138.939 15.0117C138.946 15.009 138.953 15.0077 138.96 15.0078L139.428 15.0237C139.438 15.0241 139.447 15.0274 139.455 15.0332C139.464 15.039 139.47 15.047 139.473 15.0563C139.477 15.0656 139.478 15.0757 139.475 15.0854C139.473 15.0951 139.468 15.104 139.461 15.1109L137.855 16.6143C137.85 16.6191 137.846 16.6247 137.843 16.631C137.84 16.6373 137.839 16.644 137.839 16.6508C137.839 16.6576 137.84 16.6644 137.843 16.6706C137.846 16.6769 137.85 16.6826 137.855 16.6873Z" fill="#383A37"/>
<path d="M145.786 16.3877H144.187C144.123 16.3877 144.071 16.4395 144.071 16.5035V16.7128C144.071 16.7767 144.123 16.8286 144.187 16.8286H145.786C145.85 16.8286 145.901 16.7767 145.901 16.7128V16.5035C145.901 16.4395 145.85 16.3877 145.786 16.3877Z" fill="#383A37"/>
<path d="M115.26 22.0191L113.505 22.0255C113.484 22.0255 113.465 22.0174 113.451 22.0032C113.437 21.9889 113.428 21.9695 113.428 21.9493L113.425 21.6448C113.425 21.6347 113.427 21.6246 113.431 21.6152C113.434 21.6058 113.44 21.5972 113.447 21.59C113.454 21.5828 113.463 21.577 113.472 21.5731C113.481 21.5692 113.491 21.5671 113.501 21.5671L117.685 21.5687C117.704 21.5687 117.723 21.5758 117.737 21.5887C117.751 21.6017 117.76 21.6194 117.761 21.6385L117.787 21.943C117.787 21.9535 117.786 21.9641 117.783 21.9741C117.779 21.9841 117.774 21.9932 117.767 22.001C117.759 22.0087 117.751 22.0149 117.741 22.0191C117.731 22.0233 117.721 22.0255 117.71 22.0255L115.877 22.0175C115.857 22.0175 115.838 22.0256 115.823 22.0398C115.809 22.0541 115.801 22.0735 115.801 22.0937V26.8228C115.801 26.8328 115.799 26.8427 115.795 26.852C115.791 26.8612 115.786 26.8696 115.779 26.8766C115.772 26.8837 115.763 26.8893 115.754 26.8932C115.745 26.897 115.735 26.8989 115.725 26.8989L115.412 26.8942C115.402 26.8942 115.393 26.8922 115.383 26.8884C115.374 26.8846 115.366 26.879 115.359 26.8719C115.352 26.8648 115.346 26.8564 115.342 26.8472C115.338 26.838 115.336 26.8281 115.336 26.8181V22.0952C115.336 22.0751 115.328 22.0557 115.314 22.0414C115.3 22.0271 115.28 22.0191 115.26 22.0191Z" fill="#383A37"/>
<path d="M160.294 21.7941C160.191 22.3619 161.366 22.6917 161.589 21.8353C161.599 21.8004 161.617 21.7708 161.643 21.7465C161.688 21.7064 161.741 21.6879 161.803 21.691C161.837 21.6932 161.869 21.7032 161.898 21.7202C161.926 21.7372 161.95 21.7606 161.968 21.7886C161.986 21.8166 161.997 21.8484 162 21.8813C162.003 21.9142 161.998 21.9474 161.986 21.9781C161.813 22.4084 161.541 22.6478 161.167 22.6965C160.405 22.7948 159.967 22.4898 159.853 21.7814C159.846 21.7381 159.865 21.7153 159.908 21.7132L160.214 21.7021C160.226 21.7017 160.238 21.7039 160.248 21.7085C160.259 21.7132 160.269 21.7202 160.276 21.729C160.284 21.7379 160.289 21.7483 160.292 21.7596C160.295 21.7708 160.296 21.7826 160.294 21.7941Z" fill="#383A37"/>
<path d="M128.42 25.1768C128.42 25.6563 128.23 26.1162 127.891 26.4552C127.551 26.7943 127.092 26.9848 126.612 26.9848C126.133 26.9848 125.673 26.7943 125.334 26.4552C124.995 26.1162 124.804 25.6563 124.804 25.1768C124.804 24.6973 124.995 24.2375 125.334 23.8984C125.673 23.5594 126.133 23.3689 126.612 23.3689C127.092 23.3689 127.551 23.5594 127.891 23.8984C128.23 24.2375 128.42 24.6973 128.42 25.1768ZM127.911 25.0343C127.913 24.7218 127.792 24.421 127.573 24.1981C127.354 23.9752 127.055 23.8485 126.743 23.8457L126.511 23.8437C126.199 23.841 125.898 23.9625 125.675 24.1815C125.452 24.4006 125.325 24.6992 125.323 25.0117L125.32 25.3194C125.317 25.6319 125.439 25.9326 125.658 26.1555C125.877 26.3784 126.175 26.5052 126.488 26.5079L126.719 26.51C127.032 26.5127 127.333 26.3912 127.556 26.1721C127.779 25.9531 127.905 25.6544 127.908 25.342L127.911 25.0343Z" fill="#383A37"/>
<path d="M132.642 25.1768C132.642 25.6555 132.452 26.1145 132.113 26.453C131.775 26.7914 131.316 26.9816 130.837 26.9816C130.358 26.9816 129.899 26.7914 129.561 26.453C129.222 26.1145 129.032 25.6555 129.032 25.1768C129.032 24.6982 129.222 24.2391 129.561 23.9007C129.899 23.5622 130.358 23.3721 130.837 23.3721C131.316 23.3721 131.775 23.5622 132.113 23.9007C132.452 24.2391 132.642 24.6982 132.642 25.1768ZM132.196 25.1768C132.196 24.8172 132.053 24.4723 131.799 24.218C131.545 23.9637 131.2 23.8209 130.84 23.8209C130.481 23.8209 130.136 23.9637 129.881 24.218C129.627 24.4723 129.484 24.8172 129.484 25.1768C129.484 25.5364 129.627 25.8813 129.881 26.1356C130.136 26.3899 130.481 26.5328 130.84 26.5328C131.2 26.5328 131.545 26.3899 131.799 26.1356C132.053 25.8813 132.196 25.5364 132.196 25.1768Z" fill="#383A37"/>
<path d="M137.412 25.2987C137.07 25.2977 136.975 25.4499 137.13 25.7555L137.2 25.8919C137.368 26.2228 137.635 26.421 138.002 26.4866C138.561 26.586 139.042 26.476 139.444 26.1567C139.451 26.1512 139.459 26.1474 139.468 26.1457C139.477 26.1439 139.486 26.1443 139.495 26.1468C139.504 26.1493 139.512 26.1537 139.519 26.1599C139.525 26.166 139.531 26.1736 139.534 26.1821L139.629 26.4152C139.643 26.4512 139.635 26.4813 139.605 26.5056C139.014 26.975 138.369 27.0887 137.669 26.8466C136.643 26.4929 136.286 25.3463 136.69 24.3821C137.384 22.7216 140.111 23.2101 139.786 25.2369C139.779 25.2792 139.753 25.3003 139.71 25.3003L137.412 25.2987ZM137.082 24.9213L139.337 24.9023C139.347 24.9023 139.355 24.8986 139.362 24.892C139.369 24.8855 139.372 24.8766 139.372 24.8674V24.8499C139.371 24.7159 139.343 24.5833 139.289 24.4599C139.235 24.3364 139.157 24.2245 139.058 24.1305C138.96 24.0365 138.843 23.9623 138.715 23.9122C138.587 23.862 138.45 23.8368 138.311 23.8381L138.089 23.8413C137.811 23.8439 137.545 23.9535 137.349 24.1462C137.154 24.3389 137.045 24.5988 137.047 24.869V24.8864C137.047 24.891 137.048 24.8955 137.05 24.8997C137.052 24.904 137.054 24.9078 137.058 24.9111C137.061 24.9143 137.065 24.9169 137.069 24.9186C137.073 24.9204 137.078 24.9213 137.082 24.9213Z" fill="#383A37"/>
<path d="M142.536 24.9531C142.581 24.5678 142.497 23.9762 142.072 23.87C141.719 23.7812 141.202 23.8192 140.901 24.0238C140.817 24.0819 140.75 24.0661 140.701 23.9762L140.649 23.8811C140.596 23.7827 140.619 23.7077 140.717 23.6559C141.8 23.0849 143.029 23.353 143.012 24.7945C143.004 25.4976 143.002 26.1589 143.009 26.7785C143.01 26.8599 142.97 26.9001 142.888 26.899L142.614 26.8943C142.563 26.8943 142.538 26.8684 142.538 26.8166V26.6136C142.538 26.5988 142.534 26.5843 142.526 26.572C142.518 26.5596 142.506 26.5499 142.492 26.5441C142.479 26.5383 142.464 26.5367 142.449 26.5395C142.435 26.5423 142.421 26.5493 142.411 26.5597C142.166 26.7944 141.859 26.9202 141.49 26.9371C141.003 26.9593 140.656 26.7653 140.449 26.3551C140.113 25.6938 140.554 25.0308 141.241 24.8723C141.669 24.7739 142.068 24.8183 142.439 25.0055C142.497 25.034 142.529 25.0166 142.536 24.9531ZM142.561 25.6994C142.532 25.5277 142.412 25.3784 142.227 25.2845C142.043 25.1905 141.809 25.1596 141.576 25.1984C141.461 25.2177 141.35 25.2535 141.249 25.3038C141.148 25.3542 141.06 25.418 140.989 25.4918C140.917 25.5655 140.865 25.6477 140.834 25.7336C140.803 25.8195 140.794 25.9075 140.809 25.9926C140.837 26.1643 140.957 26.3136 141.142 26.4075C141.326 26.5015 141.561 26.5324 141.793 26.4936C141.908 26.4743 142.019 26.4385 142.12 26.3882C142.221 26.3378 142.309 26.274 142.381 26.2002C142.452 26.1265 142.504 26.0443 142.535 25.9584C142.566 25.8724 142.575 25.7845 142.561 25.6994Z" fill="#383A37"/>
<path d="M149.267 26.4708C149.744 26.5977 150.323 26.5073 150.669 26.1235C150.679 26.1119 150.692 26.103 150.706 26.0977C150.721 26.0924 150.736 26.0907 150.752 26.0929C150.767 26.0951 150.782 26.1011 150.794 26.1103C150.807 26.1195 150.817 26.1317 150.824 26.1457L150.903 26.3106C150.943 26.3899 150.927 26.456 150.856 26.5089C150.68 26.6389 150.547 26.769 150.331 26.8403C149.563 27.0909 148.903 26.9662 148.35 26.4661C148.059 26.2039 147.9 25.8608 147.873 25.4368C147.801 24.3246 148.26 23.6543 149.251 23.4259C149.729 23.3159 150.229 23.4084 150.751 23.7034C150.881 23.7764 150.904 23.8747 150.819 23.9984L150.792 24.0365C150.716 24.1464 150.624 24.1612 150.516 24.0809C150.065 23.7431 149.245 23.7288 148.807 24.1015C148.016 24.7771 148.177 26.1774 149.267 26.4708Z" fill="#383A37"/>
<path d="M118.021 26.1362C118.667 25.2989 119.324 24.4726 119.991 23.6575C120.148 23.4671 120.299 23.4085 120.529 23.4735C120.576 23.4872 120.6 23.519 120.6 23.5686V26.8213C120.6 26.8424 120.592 26.8625 120.577 26.8774C120.563 26.8923 120.543 26.9006 120.522 26.9006L120.215 26.8975C120.163 26.8964 120.137 26.87 120.137 26.8182V24.276C120.137 24.1607 120.102 24.148 120.032 24.2379C119.433 25.0044 118.773 25.8338 118.053 26.7262C117.935 26.8721 117.767 26.9292 117.55 26.8975C117.499 26.8901 117.474 26.8605 117.474 26.8086V23.548C117.474 23.5249 117.483 23.5027 117.5 23.4864C117.516 23.47 117.538 23.4608 117.561 23.4608H117.844C117.867 23.4608 117.889 23.4698 117.905 23.4859C117.922 23.5019 117.931 23.5237 117.931 23.5464L117.926 26.1029C117.926 26.2065 117.958 26.2176 118.021 26.1362Z" fill="#383A37"/>
<path d="M122.844 25.4732C122.508 25.912 122.172 26.3476 121.835 26.78C121.772 26.8614 121.688 26.9011 121.583 26.899C121.582 26.899 121.513 26.8974 121.375 26.8942C121.268 26.891 121.247 26.8471 121.314 26.7626L122.558 25.1782C122.567 25.167 122.572 25.1532 122.572 25.1391C122.572 25.1249 122.567 25.1114 122.558 25.1005L121.364 23.5575C121.358 23.5487 121.354 23.5384 121.353 23.5276C121.351 23.5167 121.353 23.5059 121.358 23.4961C121.363 23.4864 121.37 23.4783 121.379 23.4726C121.388 23.4669 121.398 23.4639 121.409 23.4639L121.716 23.4575C121.802 23.4565 121.871 23.4898 121.923 23.5575L122.85 24.7707C122.886 24.8182 122.923 24.8182 122.96 24.7707L123.926 23.5257C123.953 23.4898 123.989 23.4708 124.035 23.4686L124.382 23.4512C124.478 23.4459 124.497 23.4813 124.438 23.5575L123.307 25.0038C123.281 25.0373 123.267 25.0785 123.267 25.1207C123.267 25.1629 123.281 25.2038 123.307 25.2369L124.509 26.7927C124.562 26.8614 124.545 26.8958 124.458 26.8958H124.133C124.066 26.8958 124.011 26.8688 123.97 26.8149L122.941 25.4732C122.909 25.432 122.877 25.432 122.844 25.4732Z" fill="#383A37"/>
<path d="M133.852 23.4592H133.557C133.514 23.4592 133.479 23.494 133.479 23.5369V26.8198C133.479 26.8627 133.514 26.8975 133.557 26.8975H133.852C133.895 26.8975 133.929 26.8627 133.929 26.8198V23.5369C133.929 23.494 133.895 23.4592 133.852 23.4592Z" fill="#383A37"/>
<path d="M134.648 25.1433L136.335 26.799C136.344 26.8073 136.349 26.8179 136.351 26.8293C136.353 26.8408 136.352 26.8527 136.348 26.8634C136.343 26.8741 136.335 26.8832 136.326 26.8895C136.316 26.8959 136.304 26.8991 136.293 26.8989L135.879 26.8878C135.864 26.8877 135.85 26.882 135.839 26.872L134.109 25.164C134.098 25.1532 134.091 25.1385 134.091 25.123C134.091 25.1076 134.097 25.0927 134.107 25.0815L135.703 23.4845C135.713 23.4744 135.728 23.4687 135.742 23.4686L136.166 23.4575C136.177 23.4576 136.188 23.4611 136.198 23.4676C136.208 23.474 136.215 23.4832 136.219 23.4938C136.224 23.5045 136.225 23.5162 136.223 23.5275C136.221 23.5388 136.215 23.5492 136.207 23.5574L134.648 25.0593C134.642 25.0647 134.638 25.0713 134.635 25.0785C134.632 25.0857 134.63 25.0935 134.63 25.1013C134.63 25.1091 134.632 25.1169 134.635 25.1241C134.638 25.1313 134.642 25.1379 134.648 25.1433Z" fill="#383A37"/>
<path d="M146.518 25.3703L144.507 25.3782C144.499 25.3782 144.491 25.3798 144.484 25.3829C144.476 25.386 144.469 25.3906 144.464 25.3963C144.458 25.4021 144.453 25.4089 144.45 25.4164C144.447 25.4239 144.446 25.4319 144.446 25.44L144.444 26.8356C144.444 26.852 144.438 26.8678 144.426 26.8794C144.414 26.891 144.399 26.8975 144.382 26.8975H144.054C144.038 26.8975 144.022 26.891 144.01 26.8794C143.999 26.8678 143.992 26.852 143.992 26.8356L143.99 23.5322C143.99 23.5161 143.997 23.5006 144.008 23.489C144.019 23.4775 144.035 23.4708 144.051 23.4704L144.381 23.4592C144.389 23.459 144.397 23.4605 144.405 23.4635C144.412 23.4665 144.419 23.471 144.425 23.4768C144.431 23.4826 144.436 23.4894 144.439 23.4971C144.442 23.5047 144.444 23.5128 144.444 23.5211L144.449 24.8485C144.449 24.8649 144.455 24.8806 144.467 24.8922C144.479 24.9038 144.494 24.9104 144.511 24.9104L146.518 24.9135C146.535 24.9135 146.551 24.907 146.562 24.8954C146.574 24.8838 146.58 24.8681 146.58 24.8517L146.582 23.5259C146.582 23.5095 146.588 23.4937 146.6 23.4821C146.612 23.4705 146.627 23.464 146.644 23.464L146.985 23.4608C147.001 23.4608 147.017 23.4674 147.028 23.479C147.04 23.4905 147.047 23.5063 147.047 23.5227V26.8341C147.047 26.8502 147.04 26.8657 147.029 26.8772C147.018 26.8888 147.002 26.8955 146.986 26.8959L146.644 26.8991C146.628 26.8991 146.612 26.8928 146.601 26.8815C146.589 26.8703 146.582 26.8549 146.582 26.8388L146.58 25.4321C146.58 25.4157 146.574 25.4 146.562 25.3884C146.551 25.3768 146.535 25.3703 146.518 25.3703Z" fill="#383A37"/>
<path d="M151.949 23.4607H151.736C151.67 23.4607 151.617 23.5139 151.617 23.5796V26.78C151.617 26.8457 151.67 26.8989 151.736 26.8989H151.949C152.014 26.8989 152.068 26.8457 152.068 26.78V23.5796C152.068 23.5139 152.014 23.4607 151.949 23.4607Z" fill="#383A37"/>
<path d="M152.86 25.1402L154.545 26.8165C154.552 26.8234 154.556 26.8322 154.558 26.8417C154.56 26.8513 154.559 26.8612 154.555 26.8702C154.552 26.8792 154.545 26.8869 154.537 26.8923C154.529 26.8977 154.52 26.9006 154.51 26.9005L154.028 26.891C154.021 26.8911 154.015 26.8898 154.009 26.8874C154.003 26.8849 153.997 26.8813 153.993 26.8768L152.294 25.1751C152.29 25.1705 152.286 25.1651 152.284 25.1591C152.281 25.1531 152.28 25.1467 152.28 25.1402C152.28 25.1337 152.281 25.1273 152.284 25.1213C152.286 25.1153 152.29 25.1099 152.294 25.1053L153.907 23.494C153.915 23.4859 153.926 23.4809 153.937 23.4798L154.367 23.4417C154.377 23.4406 154.388 23.4427 154.396 23.4477C154.405 23.4527 154.412 23.4603 154.417 23.4696C154.421 23.4788 154.423 23.4892 154.421 23.4993C154.419 23.5094 154.414 23.5186 154.407 23.5257L152.86 25.0704C152.856 25.075 152.852 25.0804 152.85 25.0864C152.847 25.0924 152.846 25.0988 152.846 25.1053C152.846 25.1118 152.847 25.1182 152.85 25.1242C152.852 25.1302 152.856 25.1356 152.86 25.1402Z" fill="#383A37"/>
<path d="M157.766 24.2489C157.181 24.9964 156.519 25.8268 155.78 26.7403C155.657 26.8926 155.495 26.9391 155.293 26.8799C155.238 26.864 155.211 26.8275 155.211 26.7705V23.5669C155.211 23.5432 155.219 23.5203 155.235 23.5029C155.251 23.4855 155.273 23.475 155.296 23.4734L155.536 23.4543C155.615 23.448 155.655 23.4839 155.655 23.5622L155.652 26.0996C155.652 26.218 155.688 26.2302 155.761 26.1361C156.41 25.2966 157.088 24.4439 157.794 23.578C157.905 23.4432 158.064 23.448 158.219 23.4591C158.284 23.4633 158.316 23.4977 158.316 23.5622V26.8545C158.316 26.8663 158.311 26.8776 158.303 26.8859C158.295 26.8942 158.284 26.8989 158.273 26.8989L157.911 26.8957C157.899 26.8957 157.888 26.8909 157.879 26.8823C157.87 26.8736 157.865 26.8619 157.865 26.8497L157.867 24.2838C157.867 24.1738 157.833 24.1622 157.766 24.2489Z" fill="#383A37"/>
<path d="M162.396 23.4894V26.8927L162.067 26.8864C162.003 26.8853 161.971 26.8526 161.971 26.7881L161.975 24.3569C161.976 24.2163 161.932 24.2015 161.844 24.3125C161.194 25.134 160.53 25.9639 159.851 26.8023C159.75 26.9292 159.613 26.9118 159.47 26.8927C159.408 26.8853 159.377 26.8499 159.377 26.7865L159.375 23.5941C159.375 23.5116 159.416 23.4682 159.499 23.464L159.661 23.4545C159.738 23.4503 159.776 23.4868 159.776 23.5639L159.773 26.1093C159.773 26.196 159.801 26.206 159.856 26.1394C160.561 25.2778 161.255 24.4119 161.936 23.5417C162.031 23.4212 162.184 23.4038 162.396 23.4894Z" fill="#383A37"/>
<path d="M90.9786 26.263L86.1606 26.2693C86.2547 26.1996 86.3457 26.1758 86.4334 26.198C86.574 26.2329 86.7189 26.2493 86.868 26.2471C88.2445 26.2271 89.6147 26.2323 90.9786 26.263Z" fill="#FF5001"/>
<path d="M114.656 30.5863V32.0437C114.656 32.1199 114.694 32.1553 114.77 32.15C115.785 32.0786 117.003 32.0691 117.385 33.2015C117.491 33.5155 117.489 33.8448 117.379 34.1895C117.264 34.5553 117.06 34.826 116.767 35.0015C116.416 35.2129 116.011 35.3245 115.554 35.3361C115.139 35.3477 114.73 35.3488 114.326 35.3393C114.291 35.3384 114.257 35.3239 114.233 35.2987C114.208 35.2735 114.194 35.2397 114.194 35.2045L114.193 30.1169C114.193 30.0503 114.226 30.017 114.293 30.017L117.106 30.0122C117.143 30.0122 117.162 30.0302 117.162 30.0661L117.166 30.4214C117.166 30.451 117.151 30.4658 117.12 30.4658H114.775C114.696 30.4658 114.656 30.506 114.656 30.5863ZM114.658 32.6559L114.654 34.8159C114.654 34.8323 114.661 34.848 114.672 34.8596C114.684 34.8712 114.7 34.8778 114.716 34.8778L115.78 34.8793C115.937 34.8796 116.091 34.8522 116.236 34.7989C116.38 34.7455 116.511 34.6672 116.622 34.5684C116.733 34.4696 116.82 34.3522 116.88 34.223C116.94 34.0937 116.971 33.9552 116.971 33.8152V33.663C116.972 33.3803 116.847 33.1091 116.624 32.909C116.401 32.7088 116.099 32.5961 115.784 32.5956L114.719 32.5941C114.703 32.5941 114.687 32.6006 114.676 32.6122C114.664 32.6238 114.658 32.6395 114.658 32.6559Z" fill="#383A37"/>
<path d="M120.196 34.9824C119.875 35.2785 119.477 35.3974 119 35.3393C117.853 35.2013 117.866 33.5948 118.94 33.3172C119.387 33.2009 119.806 33.2332 120.197 33.414C120.275 33.4499 120.309 33.4251 120.299 33.3394C120.272 33.1063 120.343 32.8304 120.229 32.6258C119.894 32.0263 119.133 32.2135 118.61 32.445C118.532 32.4788 118.48 32.4561 118.451 32.3768C118.43 32.3176 118.419 32.2557 118.418 32.1912C118.418 32.15 118.435 32.1183 118.47 32.0961C118.833 31.8688 119.27 31.7826 119.783 31.8376C120.479 31.9105 120.766 32.3927 120.759 33.0587C120.75 33.8644 120.746 34.5965 120.747 35.2552C120.747 35.3176 120.716 35.3483 120.652 35.3472L120.421 35.3424C120.372 35.3414 120.345 35.3171 120.338 35.2695L120.302 35.0205C120.29 34.9412 120.255 34.9285 120.196 34.9824ZM120.338 34.127C120.311 33.9555 120.192 33.8057 120.009 33.7107C119.825 33.6158 119.591 33.5833 119.359 33.6205C119.127 33.6577 118.915 33.7615 118.771 33.909C118.626 34.0566 118.56 34.2359 118.588 34.4074C118.615 34.5789 118.734 34.7287 118.917 34.8236C119.101 34.9186 119.334 34.9511 119.566 34.9139C119.799 34.8767 120.01 34.7729 120.155 34.6254C120.3 34.4778 120.366 34.2985 120.338 34.127Z" fill="#383A37"/>
<path d="M124.335 33.2601L124.325 32.0057C124.325 31.9798 124.335 31.9549 124.352 31.9362C124.37 31.9175 124.395 31.9066 124.42 31.9057L124.681 31.8946C124.694 31.894 124.707 31.8961 124.72 31.9007C124.732 31.9054 124.743 31.9125 124.753 31.9217C124.763 31.9309 124.77 31.942 124.776 31.9542C124.781 31.9665 124.784 31.9796 124.784 31.993L124.782 35.2504C124.782 35.2639 124.779 35.2772 124.774 35.2896C124.769 35.3019 124.761 35.3131 124.751 35.3223C124.741 35.3315 124.73 35.3386 124.717 35.3432C124.704 35.3477 124.691 35.3496 124.677 35.3487L124.425 35.3313C124.4 35.3293 124.377 35.3181 124.361 35.2998C124.344 35.2816 124.335 35.2577 124.335 35.233L124.33 33.8992C124.33 33.8731 124.32 33.8481 124.301 33.8297C124.283 33.8113 124.258 33.8009 124.232 33.8009H122.292C122.266 33.8009 122.241 33.8113 122.223 33.8297C122.204 33.8481 122.194 33.8731 122.194 33.8992L122.199 35.2552C122.199 35.2688 122.196 35.2823 122.19 35.2947C122.185 35.3072 122.177 35.3184 122.167 35.3277C122.157 35.3369 122.145 35.344 122.132 35.3484C122.12 35.3529 122.106 35.3546 122.092 35.3535L121.837 35.3329C121.813 35.3309 121.79 35.3199 121.773 35.302C121.756 35.2841 121.747 35.2606 121.747 35.2361L121.743 32.0009C121.743 31.9751 121.754 31.9503 121.772 31.9319C121.79 31.9135 121.814 31.903 121.84 31.9026L122.095 31.8962C122.109 31.8958 122.122 31.898 122.134 31.9028C122.146 31.9075 122.158 31.9147 122.167 31.9239C122.177 31.9331 122.184 31.944 122.189 31.9562C122.194 31.9683 122.197 31.9814 122.197 31.9946L122.194 33.2633C122.194 33.2894 122.204 33.3144 122.223 33.3328C122.241 33.3512 122.266 33.3616 122.292 33.3616L124.236 33.3584C124.263 33.3584 124.288 33.3481 124.306 33.3296C124.324 33.3112 124.335 33.2862 124.335 33.2601Z" fill="#383A37"/>
<path d="M126.215 31.8964L125.955 31.8959C125.9 31.8958 125.855 31.9405 125.855 31.9957L125.85 35.2436C125.85 35.2988 125.894 35.3436 125.949 35.3437L126.209 35.3441C126.265 35.3442 126.309 35.2996 126.31 35.2444L126.315 31.9965C126.315 31.9413 126.271 31.8965 126.215 31.8964Z" fill="#383A37"/>
<path d="M127.026 33.5885L128.729 35.1887C128.791 35.2468 128.782 35.2901 128.702 35.3187C128.628 35.3451 128.55 35.3594 128.468 35.3615C128.341 35.3636 128.232 35.3198 128.143 35.2299L126.536 33.6186C126.515 33.5975 126.503 33.569 126.503 33.5393C126.503 33.5096 126.515 33.4811 126.536 33.46L127.984 32.0137C128.059 31.9375 128.151 31.8984 128.258 31.8963L128.498 31.8931C128.619 31.891 128.637 31.9323 128.55 32.0168L127.025 33.5108C127.019 33.5159 127.015 33.522 127.013 33.5288C127.01 33.5355 127.009 33.5427 127.009 33.55C127.009 33.5572 127.011 33.5644 127.014 33.571C127.017 33.5776 127.021 33.5836 127.026 33.5885Z" fill="#383A37"/>
</g>
<defs>
<clipPath id="clip0_3113_26373">
<rect width="162.396" height="36" fill="white" transform="translate(0 6)"/>
</clipPath>
</defs>
</svg>
