<svg width="200" height="48" viewBox="0 0 200 48" fill="none" xmlns="http://www.w3.org/2000/svg">
<g clip-path="url(#clip0_3113_24932)">
<path d="M5.51133 21.1172C6.8671 21.1027 8.07195 21.1056 9.12588 21.1259C9.946 21.1418 10.71 21.2522 11.418 21.4571C12.4646 21.7611 13.1802 22.3919 13.1726 23.5526C13.161 25.1386 13.1599 26.8125 13.1693 28.5743C13.1823 30.8707 9.19754 30.9066 7.7046 30.9066C5.25509 30.9051 2.75165 30.9178 0.194284 30.9446C0.182929 30.9447 0.171658 30.9426 0.161125 30.9384C0.150593 30.9341 0.141008 30.9278 0.132928 30.9198C0.124847 30.9119 0.118432 30.9024 0.114053 30.8919C0.109675 30.8814 0.107421 30.8702 0.107422 30.8588V14.1389C0.107419 14.125 0.112875 14.1116 0.122619 14.1017C0.132362 14.0917 0.145618 14.086 0.159539 14.0857L11.912 14.0466C11.9232 14.0465 11.9343 14.0486 11.9447 14.0528C11.9551 14.057 11.9646 14.0632 11.9726 14.0711C11.9806 14.0789 11.9869 14.0883 11.9912 14.0987C11.9955 14.109 11.9978 14.1201 11.9978 14.1313V16.0879C11.9978 16.1226 11.9804 16.14 11.9456 16.14L5.4603 16.1085C5.45195 16.1085 5.44394 16.1118 5.43803 16.1177C5.43213 16.1237 5.42881 16.1317 5.42881 16.14V21.0358C5.42881 21.0908 5.45632 21.1179 5.51133 21.1172ZM5.42881 23.1867V28.8349C5.42881 28.8464 5.43339 28.8575 5.44153 28.8656C5.44968 28.8738 5.46072 28.8783 5.47224 28.8783H7.40167C7.52693 28.8783 7.64707 28.8243 7.73564 28.7282C7.82422 28.6321 7.87398 28.5018 7.87398 28.3659V23.6558C7.87398 23.5198 7.82422 23.3895 7.73564 23.2934C7.64707 23.1973 7.52693 23.1433 7.40167 23.1433H5.47224C5.46072 23.1433 5.44968 23.1478 5.44153 23.156C5.43339 23.1641 5.42881 23.1752 5.42881 23.1867Z" fill="#003E21"/>
<path d="M24.8698 26.7035H21.3171C21.3067 26.7036 21.2966 26.7073 21.2887 26.7141C21.2808 26.7208 21.2755 26.7301 21.2737 26.7404L20.5071 30.9011C20.5053 30.9114 20.5 30.9207 20.4921 30.9274C20.4841 30.9342 20.4741 30.9379 20.4637 30.938H15.3692C15.3625 30.938 15.356 30.9365 15.3499 30.9336C15.3439 30.9307 15.3386 30.9265 15.3345 30.9213C15.3303 30.9161 15.3273 30.91 15.3258 30.9035C15.3243 30.897 15.3243 30.8902 15.3258 30.8837L19.1488 14.0889C19.151 14.0791 19.1565 14.0703 19.1644 14.064C19.1723 14.0576 19.1821 14.0542 19.1922 14.0542H27.0174C27.0275 14.0542 27.0373 14.0576 27.0452 14.064C27.0531 14.0703 27.0586 14.0791 27.0609 14.0889L30.8828 30.8837C30.8843 30.8902 30.8842 30.897 30.8827 30.9035C30.8812 30.91 30.8783 30.9161 30.8741 30.9213C30.87 30.9265 30.8647 30.9307 30.8586 30.9336C30.8526 30.9365 30.846 30.938 30.8394 30.938H25.7503C25.7401 30.938 25.7301 30.9344 25.7222 30.9278C25.7143 30.9213 25.7089 30.9123 25.7069 30.9022L24.9132 26.7393C24.9112 26.7293 24.9058 26.7202 24.8979 26.7137C24.89 26.7071 24.88 26.7035 24.8698 26.7035ZM24.581 24.2876C24.587 24.2876 24.5929 24.2862 24.5984 24.2836C24.6038 24.281 24.6086 24.2772 24.6124 24.2726C24.6163 24.2679 24.619 24.2625 24.6205 24.2566C24.622 24.2508 24.6222 24.2447 24.6211 24.2388L23.2368 16.533C23.235 16.5234 23.2298 16.5148 23.2223 16.5087C23.2147 16.5025 23.2052 16.4992 23.1955 16.4994L23.0207 16.5015C23.011 16.5017 23.0016 16.5052 22.9943 16.5116C22.9869 16.5179 22.982 16.5267 22.9805 16.5363L21.5647 24.2388C21.5635 24.2448 21.5638 24.251 21.5653 24.2569C21.5669 24.2628 21.5697 24.2683 21.5737 24.273C21.5776 24.2777 21.5826 24.2814 21.5882 24.284C21.5937 24.2865 21.5998 24.2877 21.6059 24.2876H24.581Z" fill="#003E21"/>
<path d="M41.0967 20.7741L41.0978 14.0889C41.0978 14.08 41.1014 14.0715 41.1077 14.0651C41.114 14.0588 41.1225 14.0553 41.1315 14.0553L46.2477 14.0542C46.2566 14.0542 46.2651 14.0577 46.2715 14.0641C46.2778 14.0704 46.2813 14.0789 46.2813 14.0879V30.9044C46.2813 30.9133 46.2778 30.9219 46.2715 30.9282C46.2651 30.9345 46.2566 30.938 46.2477 30.938H41.1304C41.1215 30.938 41.1129 30.9345 41.1066 30.9282C41.1003 30.9219 41.0967 30.9133 41.0967 30.9044V23.2627C41.0967 23.2537 41.0932 23.2452 41.0869 23.2389C41.0806 23.2326 41.072 23.229 41.0631 23.229H38.7688C38.7599 23.229 38.7513 23.2326 38.745 23.2389C38.7387 23.2452 38.7352 23.2537 38.7352 23.2627V30.8685C38.7352 30.8775 38.7316 30.886 38.7253 30.8923C38.719 30.8986 38.7104 30.9022 38.7015 30.9022L33.5571 30.9358C33.5482 30.9358 33.5396 30.9323 33.5333 30.926C33.527 30.9197 33.5234 30.9111 33.5234 30.9022V14.0879C33.5234 14.0789 33.527 14.0704 33.5333 14.0641C33.5396 14.0577 33.5482 14.0542 33.5571 14.0542H38.7015C38.7104 14.0542 38.719 14.0577 38.7253 14.0641C38.7316 14.0704 38.7352 14.0789 38.7352 14.0879V20.7914C38.7352 20.8004 38.7387 20.8089 38.745 20.8152C38.7513 20.8216 38.7599 20.8251 38.7688 20.8251L41.0631 20.8077C41.072 20.8077 41.0806 20.8042 41.0869 20.7979C41.0932 20.7916 41.0967 20.783 41.0967 20.7741Z" fill="#003E21"/>
<path d="M55.3473 23.432V30.8837C55.3473 30.9199 55.3292 30.938 55.293 30.938H50.2442C50.237 30.938 50.2301 30.9352 50.225 30.9301C50.2199 30.925 50.217 30.9181 50.217 30.9109V14.1628C50.217 14.134 50.2285 14.1064 50.2488 14.086C50.2692 14.0656 50.2968 14.0542 50.3256 14.0542H55.293C55.3292 14.0542 55.3473 14.0723 55.3473 14.1085V20.6753C55.3473 20.7643 55.3669 20.7686 55.406 20.6883L58.6372 14.1052C58.6539 14.0712 58.6814 14.0542 58.7198 14.0542H63.647C63.6832 14.0542 63.6933 14.0705 63.6774 14.1031L59.8761 21.8935C59.8493 21.9478 59.8493 22.0021 59.8761 22.0564L64.2431 30.8761C64.2634 30.9174 64.2507 30.938 64.2051 30.938H59.4223C59.4013 30.938 59.3807 30.9322 59.3628 30.9213C59.3448 30.9104 59.3301 30.8948 59.3202 30.8761L55.3864 23.4223C55.3843 23.4181 55.3809 23.4147 55.3766 23.4127C55.3723 23.4108 55.3675 23.4103 55.363 23.4115C55.3584 23.4126 55.3544 23.4153 55.3515 23.419C55.3487 23.4228 55.3472 23.4274 55.3473 23.432Z" fill="#003E21"/>
<path d="M81.5875 26.7089L80.8253 30.9055C80.8235 30.9148 80.8185 30.9231 80.8111 30.9291C80.8038 30.935 80.7946 30.9382 80.7851 30.938H75.6885C75.6825 30.938 75.6766 30.9366 75.6712 30.934C75.6657 30.9314 75.661 30.9276 75.6572 30.923C75.6535 30.9183 75.6508 30.9128 75.6495 30.907C75.6481 30.9011 75.6481 30.895 75.6494 30.8892L79.4637 14.0857C79.4657 14.0766 79.4708 14.0685 79.4782 14.0628C79.4855 14.057 79.4946 14.054 79.5039 14.0542H87.3399C87.3493 14.054 87.3583 14.057 87.3657 14.0628C87.373 14.0685 87.3781 14.0766 87.3801 14.0857L91.1988 30.8892C91.2001 30.895 91.2001 30.9011 91.1987 30.907C91.1973 30.9128 91.1947 30.9183 91.1909 30.923C91.1872 30.9276 91.1824 30.9314 91.177 30.934C91.1716 30.9366 91.1657 30.938 91.1597 30.938H86.0609C86.0514 30.9382 86.0422 30.935 86.0349 30.9291C86.0275 30.9231 86.0225 30.9148 86.0207 30.9055L85.2596 26.7089C85.2578 26.6996 85.2528 26.6913 85.2454 26.6853C85.2381 26.6794 85.2289 26.6762 85.2194 26.6764H81.6277C81.6182 26.6762 81.609 26.6794 81.6016 26.6853C81.5943 26.6913 81.5893 26.6996 81.5875 26.7089ZM83.2846 16.5461L81.8752 24.2062C81.8687 24.2424 81.8839 24.2605 81.9208 24.2605H84.9273C84.9332 24.2605 84.939 24.2591 84.9444 24.2566C84.9497 24.254 84.9544 24.2503 84.9581 24.2458C84.9618 24.2412 84.9645 24.2359 84.9659 24.2302C84.9674 24.2245 84.9675 24.2185 84.9664 24.2127L83.5614 16.5548C83.5571 16.5294 83.5452 16.5088 83.5256 16.4929C83.4735 16.448 83.4105 16.4429 83.3367 16.4777C83.3232 16.4844 83.3115 16.4941 83.3025 16.5059C83.2934 16.5178 83.2873 16.5315 83.2846 16.5461Z" fill="#003E21"/>
<path d="M103.354 21.9869C103.321 21.9854 103.306 22.0013 103.309 22.0346L103.317 22.1117C103.318 22.1231 103.324 22.1335 103.333 22.1409C103.342 22.1482 103.353 22.1517 103.365 22.1508C104.293 22.0911 105.728 22.2474 106.144 23.2018C106.235 23.4081 106.279 23.6756 106.277 24.0042C106.267 25.719 106.265 27.2641 106.273 28.6394C106.278 29.8772 104.971 30.4581 103.957 30.6524C103.06 30.824 102.19 30.9098 101.349 30.9098C98.8042 30.9105 96.2929 30.9112 93.8144 30.9119C93.776 30.9119 93.7568 30.8928 93.7568 30.8544V14.1595C93.7568 14.1318 93.7678 14.1053 93.7874 14.0858C93.8069 14.0662 93.8334 14.0553 93.8611 14.0553C96.4155 14.0531 99.05 14.0553 101.764 14.0618C102.631 14.0639 103.44 14.1533 104.192 14.33C105.247 14.5786 106.184 15.1041 106.186 16.2692C106.188 17.3716 106.19 18.5562 106.193 19.8229C106.194 20.1783 106.157 20.4693 106.084 20.6959C105.717 21.8196 104.353 22.0303 103.354 21.9869ZM100.554 20.9445C100.826 20.9575 101.191 20.8718 101.192 20.5265C101.196 19.1251 101.196 17.7932 101.192 16.5308C101.192 16.4209 101.148 16.3157 101.07 16.2382C100.992 16.1607 100.887 16.1171 100.777 16.1171H98.86C98.8419 16.1171 98.8328 16.1262 98.8328 16.1443V20.8652C98.8328 20.9072 98.8538 20.9275 98.8958 20.926C99.451 20.9116 100.004 20.9177 100.554 20.9445ZM98.8285 23.2952L98.8372 28.8414C98.8372 28.8466 98.8382 28.8518 98.8403 28.8566C98.8423 28.8614 98.8453 28.8657 98.849 28.8694C98.8528 28.873 98.8572 28.8759 98.8621 28.8778C98.8669 28.8797 98.8721 28.8806 98.8774 28.8804L100.66 28.8772C100.732 28.8771 100.802 28.8616 100.868 28.8316C100.934 28.8016 100.993 28.7578 101.044 28.7025C101.094 28.6472 101.134 28.5817 101.161 28.5096C101.188 28.4375 101.202 28.3602 101.202 28.2822L101.193 23.8457C101.193 23.6882 101.136 23.5373 101.034 23.4261C100.931 23.3149 100.793 23.2526 100.649 23.2529L98.8665 23.2561C98.8563 23.2564 98.8467 23.2607 98.8396 23.268C98.8325 23.2753 98.8285 23.285 98.8285 23.2952Z" fill="#003E21"/>
<path d="M114.095 26.71L113.329 30.9033C113.327 30.9131 113.322 30.9221 113.314 30.9284C113.307 30.9348 113.297 30.9382 113.287 30.938H108.19C108.184 30.938 108.177 30.9366 108.172 30.9338C108.166 30.931 108.161 30.927 108.157 30.922C108.153 30.9169 108.15 30.9111 108.149 30.9049C108.147 30.8986 108.147 30.8921 108.149 30.8859L111.968 14.0868C111.97 14.0775 111.975 14.0692 111.982 14.0633C111.99 14.0574 111.999 14.0542 112.009 14.0542H119.84C119.85 14.0542 119.859 14.0574 119.867 14.0633C119.874 14.0692 119.88 14.0775 119.882 14.0868L123.703 30.8859C123.704 30.8921 123.704 30.8986 123.703 30.9049C123.701 30.9111 123.699 30.9169 123.695 30.922C123.691 30.927 123.686 30.931 123.68 30.9338C123.674 30.9366 123.668 30.938 123.661 30.938H118.57C118.56 30.9379 118.551 30.9344 118.543 30.9281C118.536 30.9217 118.531 30.913 118.529 30.9033L117.729 26.7122C117.727 26.7025 117.722 26.6937 117.714 26.6874C117.707 26.681 117.697 26.6775 117.687 26.6774L114.137 26.6753C114.127 26.6751 114.117 26.6785 114.109 26.6849C114.102 26.6912 114.096 26.7001 114.095 26.71ZM116.058 16.5547C116.056 16.544 116.051 16.5342 116.043 16.5266C116.035 16.519 116.025 16.514 116.014 16.5124L115.857 16.4896C115.843 16.4877 115.83 16.491 115.819 16.4989C115.808 16.5068 115.801 16.5187 115.798 16.5319L114.384 24.1997C114.383 24.2073 114.383 24.2151 114.385 24.2226C114.387 24.2301 114.391 24.2371 114.396 24.243C114.401 24.249 114.407 24.2537 114.414 24.2569C114.421 24.2601 114.429 24.2617 114.437 24.2616L117.386 24.2605C117.393 24.2604 117.401 24.2588 117.407 24.2555C117.414 24.2523 117.42 24.2477 117.425 24.2419C117.43 24.2361 117.434 24.2293 117.435 24.222C117.437 24.2148 117.438 24.2071 117.437 24.1997L116.058 16.5547Z" fill="#003E21"/>
<path d="M134.039 20.8024V14.1238C134.039 14.1138 134.043 14.1041 134.05 14.097C134.057 14.0898 134.067 14.0858 134.077 14.0858L139.24 14.0457C139.25 14.0457 139.26 14.0497 139.267 14.0568C139.274 14.0639 139.278 14.0736 139.278 14.0837V30.8643C139.278 30.8744 139.274 30.8841 139.267 30.8912C139.26 30.8983 139.25 30.9023 139.24 30.9023L134.077 30.936C134.067 30.936 134.057 30.932 134.05 30.9249C134.043 30.9177 134.039 30.9081 134.039 30.898V23.2672C134.039 23.2571 134.035 23.2474 134.028 23.2403C134.021 23.2332 134.011 23.2292 134.001 23.2292H131.743C131.733 23.2292 131.723 23.2332 131.716 23.2403C131.709 23.2474 131.705 23.2571 131.705 23.2672L131.706 30.9002C131.706 30.9102 131.702 30.9199 131.695 30.927C131.688 30.9342 131.678 30.9382 131.668 30.9382H126.504C126.494 30.9382 126.484 30.9342 126.477 30.927C126.47 30.9199 126.466 30.9102 126.466 30.9002V14.1238C126.466 14.1138 126.47 14.1041 126.477 14.097C126.484 14.0898 126.494 14.0858 126.504 14.0858L131.667 14.0467C131.677 14.0467 131.686 14.0507 131.694 14.0579C131.701 14.065 131.705 14.0747 131.705 14.0847L131.706 20.8014C131.706 20.8114 131.71 20.8211 131.717 20.8282C131.724 20.8354 131.734 20.8394 131.744 20.8394L134.001 20.8404C134.011 20.8404 134.021 20.8364 134.028 20.8293C134.035 20.8222 134.039 20.8125 134.039 20.8024Z" fill="#003E21"/>
<path d="M148.724 16.1541V30.9011C148.724 30.9109 148.72 30.9203 148.713 30.9272C148.707 30.9341 148.697 30.938 148.687 30.938H143.658C143.648 30.938 143.639 30.9341 143.632 30.9272C143.625 30.9203 143.621 30.9109 143.621 30.9011V14.0911C143.621 14.0813 143.625 14.0719 143.632 14.065C143.639 14.0581 143.648 14.0542 143.658 14.0542H153.926C153.936 14.0542 153.945 14.0581 153.952 14.065C153.959 14.0719 153.963 14.0813 153.963 14.0911V16.0803C153.963 16.09 153.959 16.0994 153.952 16.1064C153.945 16.1133 153.936 16.1172 153.926 16.1172H148.761C148.751 16.1172 148.742 16.1211 148.735 16.128C148.728 16.1349 148.724 16.1443 148.724 16.1541Z" fill="#003E21"/>
<path d="M158.745 26.7068L157.947 30.9076C157.945 30.9161 157.94 30.9238 157.934 30.9294C157.927 30.9349 157.918 30.9379 157.91 30.938H152.841C152.836 30.938 152.83 30.9367 152.825 30.9342C152.82 30.9317 152.815 30.9281 152.812 30.9236C152.808 30.9191 152.806 30.9139 152.804 30.9083C152.803 30.9027 152.803 30.8969 152.804 30.8913L156.617 14.0835C156.619 14.0752 156.623 14.0678 156.63 14.0624C156.637 14.0571 156.645 14.0542 156.654 14.0542H164.497C164.506 14.0542 164.514 14.0571 164.521 14.0624C164.527 14.0678 164.532 14.0752 164.534 14.0835L168.388 30.8913C168.389 30.8969 168.389 30.9027 168.388 30.9083C168.386 30.9139 168.384 30.9191 168.38 30.9236C168.377 30.9281 168.372 30.9317 168.367 30.9342C168.362 30.9367 168.356 30.938 168.351 30.938H163.213C163.204 30.9379 163.196 30.9349 163.189 30.9294C163.182 30.9238 163.178 30.9161 163.176 30.9076L162.38 26.7068C162.378 26.6982 162.374 26.6905 162.367 26.685C162.36 26.6795 162.352 26.6764 162.343 26.6763H158.782C158.773 26.6764 158.765 26.6795 158.758 26.685C158.751 26.6905 158.747 26.6982 158.745 26.7068ZM160.408 16.5938L159.034 24.2214C159.032 24.2287 159.033 24.2362 159.035 24.2433C159.037 24.2505 159.04 24.2572 159.045 24.2628C159.049 24.2685 159.055 24.2731 159.062 24.2763C159.069 24.2794 159.076 24.2811 159.084 24.2811L162.053 24.2529C162.059 24.2528 162.065 24.2515 162.07 24.249C162.075 24.2464 162.08 24.2427 162.084 24.2382C162.088 24.2336 162.09 24.2283 162.092 24.2226C162.093 24.2169 162.093 24.2109 162.092 24.2051L160.681 16.5819C160.676 16.5573 160.664 16.5374 160.645 16.5222C160.59 16.4795 160.531 16.4751 160.469 16.5091C160.436 16.5272 160.415 16.5555 160.408 16.5938Z" fill="#003E21"/>
<path d="M175.706 24.9881V30.8687C175.706 30.9135 175.684 30.9356 175.64 30.9349L170.625 30.9023C170.591 30.9023 170.574 30.8857 170.574 30.8524V14.113C170.574 14.0724 170.594 14.0525 170.634 14.0532C173.606 14.054 176.449 14.0547 179.164 14.0554C179.933 14.0554 180.657 14.1448 181.337 14.3236C182.047 14.5104 182.703 14.9284 182.982 15.6309C183.077 15.8719 183.124 16.1814 183.123 16.5592C183.113 18.4391 183.113 20.3533 183.123 22.3019C183.129 23.5668 182.387 24.3247 181.209 24.6287C180.546 24.7995 179.82 24.89 179.029 24.9001C177.93 24.9146 176.848 24.9179 175.785 24.9099C175.732 24.9092 175.706 24.9353 175.706 24.9881ZM175.706 16.1499V22.9012C175.706 22.9058 175.707 22.9103 175.708 22.9145C175.71 22.9187 175.713 22.9226 175.716 22.9258C175.719 22.929 175.723 22.9316 175.727 22.9333C175.732 22.9351 175.736 22.936 175.741 22.936H178.135C178.305 22.936 178.468 22.8654 178.588 22.7398C178.709 22.6141 178.776 22.4437 178.776 22.2661V16.7851C178.776 16.6074 178.709 16.437 178.588 16.3113C178.468 16.1857 178.305 16.1151 178.135 16.1151H175.741C175.731 16.1151 175.723 16.1188 175.716 16.1253C175.71 16.1318 175.706 16.1407 175.706 16.1499Z" fill="#003E21"/>
<path d="M188.654 30.9652V32.9196C188.654 32.9558 188.636 32.9739 188.599 32.9739H183.632C183.596 32.9739 183.578 32.9558 183.578 32.9196V29.1139C183.578 29.0234 183.623 28.9796 183.713 28.9825C184.812 29.0184 186.402 28.735 186.402 27.2746C186.4 22.8845 186.4 18.4968 186.401 14.1117C186.401 14.0734 186.42 14.0542 186.459 14.0542H198.67C198.692 14.0542 198.712 14.0628 198.728 14.0781C198.743 14.0933 198.751 14.114 198.751 14.1356V28.9022C198.751 28.9166 198.757 28.9304 198.767 28.9406C198.777 28.9508 198.791 28.9565 198.806 28.9565H199.946C199.982 28.9565 200 28.9746 200 29.0108V32.9467C200 32.9648 199.991 32.9739 199.973 32.9739H195.005C194.969 32.9739 194.951 32.9558 194.951 32.9196V30.938C194.951 30.9199 194.942 30.9109 194.924 30.9109H188.708C188.694 30.9109 188.68 30.9166 188.67 30.9268C188.659 30.937 188.654 30.9508 188.654 30.9652ZM191.451 27.2062C191.451 27.9206 191.306 28.5406 190.629 28.9098C190.558 28.9482 190.564 28.9659 190.644 28.963C191.871 28.9254 193.092 28.9163 194.308 28.9359C194.353 28.9366 194.376 28.9145 194.376 28.8696C194.383 27.432 194.388 26.0133 194.39 24.6134C194.391 24.4867 194.391 24.36 194.391 24.2334C194.403 21.6478 194.409 18.9717 194.408 16.2051C194.408 16.1818 194.399 16.1594 194.383 16.1429C194.366 16.1264 194.344 16.1172 194.32 16.1172H191.48C191.46 16.1172 191.45 16.1273 191.45 16.1476C191.45 20.0086 191.45 23.6948 191.451 27.2062Z" fill="#003E21"/>
</g>
<defs>
<clipPath id="clip0_3113_24932">
<rect width="200" height="19.0011" fill="white" transform="translate(0 14)"/>
</clipPath>
</defs>
</svg>
