<svg width="200" height="48" viewBox="0 0 200 48" fill="none" xmlns="http://www.w3.org/2000/svg">
<g clip-path="url(#clip0_3113_26615)">
<path fill-rule="evenodd" clip-rule="evenodd" d="M9.84706 26.1707C4.39412 26.1707 0 21.7766 0 16.3236C0 10.8707 4.39412 6.47656 9.84706 6.47656C15.2471 6.47656 19.6412 10.8707 19.6412 16.3236C19.6412 21.7766 15.2471 26.1707 9.84706 26.1707ZM19.6412 40.0413V40.8354C19.6412 41.153 15.2471 41.5236 9.84706 41.5236C4.39412 41.5236 0 41.153 0 40.8354V40.0413C0 39.7236 4.39412 39.353 9.84706 39.353C15.2471 39.353 19.6941 39.7236 19.6412 40.0413ZM9.84706 28.9236C15.2471 28.9236 19.6412 30.406 19.6412 32.206V33.3177C19.6412 35.1177 15.2471 36.6001 9.84706 36.6001C4.39412 36.6001 0 35.1177 0 33.3177V32.206C0 30.406 4.39412 28.9236 9.84706 28.9236Z" fill="#F10D30"/>
<path fill-rule="evenodd" clip-rule="evenodd" d="M62.3116 29.6118L64.2175 32.5765C64.2175 32.5765 62.0999 34.2706 58.1822 34.2706C55.0587 34.2706 52.5175 33.2647 50.5587 31.4118C48.5116 29.4706 47.4881 27 47.4881 24C47.5234 20.9647 48.5293 18.4765 50.5058 16.5353C52.4646 14.7353 55.0587 13.6765 58.1822 13.6765C62.0999 13.6765 64.2175 15.4236 64.2175 15.4236L62.3116 18.3883C60.7234 17.4353 58.2352 17.4883 58.2352 17.4883C56.3999 17.4883 54.8293 18.1059 53.5234 19.3412C52.2881 20.5412 51.6705 22.0942 51.6705 24C51.6705 25.853 52.3058 27.4412 53.6293 28.6589C54.8646 29.8589 56.4528 30.4589 58.394 30.4589C58.9234 30.4589 60.9352 30.4059 62.3116 29.6118ZM71.7881 33.9H67.7116V14.1H84.2293V33.9H80.2058V17.753H71.7881V33.9ZM44.6822 27.3883C44.6822 29.2942 44.0469 30.8295 42.7234 32.1C41.3469 33.2647 39.5469 33.9 37.2175 33.9H28.9058V14.0471H43.3058V17.7H32.9822V20.8236H37.2175C39.5116 20.8589 41.3293 21.4765 42.6705 22.6765C44.0116 23.9118 44.6822 25.4824 44.6822 27.3883ZM40.6058 27.3353C40.6058 26.3471 40.2705 25.6059 39.5999 25.1118C38.9646 24.5824 38.0646 24.2647 36.8999 24.2647H32.9822V30.3H36.8999C38.1175 30.3 39.0175 30.0353 39.6528 29.5059C40.2881 29.0295 40.6058 28.2883 40.6058 27.3353ZM104.823 27.3883C104.823 29.2942 104.135 30.8295 102.812 32.1C101.488 33.2647 99.6352 33.9 97.3587 33.9H89.0469V14.0471H103.394V17.7H93.0705V20.8236H97.3587C99.6528 20.8589 101.47 21.4765 102.812 22.6765C104.153 23.9118 104.823 25.4824 104.823 27.3883ZM100.535 28.3942C100.676 28.0765 100.747 27.7236 100.747 27.3353C100.747 26.8765 100.659 26.4706 100.482 26.1177C100.341 25.7295 100.094 25.3942 99.7411 25.1118C99.1058 24.5824 98.2058 24.2647 97.0411 24.2647H93.0705V30.3H97.0411C98.2058 30.3 99.1058 30.0353 99.794 29.5059C100.147 29.2236 100.394 28.853 100.535 28.3942Z" fill="#10385C"/>
</g>
<defs>
<clipPath id="clip0_3113_26615">
<rect width="104.824" height="36" fill="white" transform="translate(0 6)"/>
</clipPath>
</defs>
</svg>
