<svg width="200" height="48" viewBox="0 0 200 48" fill="none" xmlns="http://www.w3.org/2000/svg">
<path d="M56.7627 21.6647C57.6718 22.0087 58.4849 22.4777 59.1415 23.0742C59.7982 23.6995 60.332 24.4523 60.7385 25.2965C61.1137 26.1408 61.3013 27.0811 61.3013 28.1153C61.3013 29.1494 61.1137 30.0562 60.7385 30.9028C60.332 31.7471 59.7982 32.4998 59.1415 33.0939C58.4849 33.7194 57.6696 34.1906 56.7627 34.5346C55.8224 34.8786 54.8217 35.0662 53.7251 35.0662H42.7917V12.8376H59.3917V17.1574H47.3616V21.1644H53.7251C54.8196 21.1644 55.8224 21.3208 56.7627 21.6647ZM56.01 26.0493C55.4159 25.5801 54.6319 25.33 53.6625 25.33H47.3616V30.8715H53.6625C54.6319 30.8715 55.4159 30.6214 56.01 30.1523C56.6042 29.6833 56.8856 29.0244 56.8856 28.1176C56.8879 27.2062 56.6042 26.5183 56.01 26.0493Z" fill="#006DF0"/>
<path d="M69.7777 35.0662H65.4043V12.8376H69.7777V22.2611L77.5524 12.8376H82.9895L74.1197 23.5141L84.841 35.0662H79.1319L69.7777 24.9838V35.0662Z" fill="#006DF0"/>
<path d="M91.5548 34.5324C90.1455 33.9382 88.9236 33.123 87.8921 32.0911C86.8576 31.0569 86.045 29.8687 85.4506 28.4593C84.8569 27.0499 84.5728 25.5467 84.5728 23.9497C84.5728 22.3527 84.8546 20.8495 85.4506 19.4401C86.045 18.0308 86.8599 16.8112 87.8921 15.7771C88.9236 14.7429 90.1455 13.9299 91.5548 13.3358C92.9648 12.7416 94.53 12.4602 96.2212 12.4602C97.4738 12.4602 98.6934 12.6478 99.8531 13.0231C101.012 13.4296 102.075 13.9634 103.047 14.6514C103.987 15.3706 104.8 16.1858 105.488 17.1552C106.176 18.1268 106.678 19.2212 106.991 20.4117H102.075C101.856 19.8489 101.544 19.3463 101.135 18.9086C100.729 18.4708 100.257 18.0955 99.7257 17.7806C99.1942 17.4991 98.6597 17.249 98.066 17.0927C97.4716 16.9363 96.8441 16.8424 96.2189 16.8424C95.1537 16.8424 94.1837 17.0301 93.3374 17.3741C92.4618 17.7493 91.7092 18.2496 91.084 18.9086C90.4581 19.5652 89.9873 20.3179 89.6432 21.1622C89.2991 22.0065 89.1425 22.9469 89.1425 23.9497C89.1425 24.9526 89.2991 25.8907 89.6432 26.7372C89.9873 27.5815 90.4558 28.3342 91.084 28.9909C91.7092 29.6475 92.4618 30.1501 93.3374 30.4941C94.1815 30.8694 95.1537 31.0569 96.2189 31.0569C96.8441 31.0569 97.4716 30.9631 98.066 30.8068C98.6597 30.6505 99.1942 30.4002 99.7257 30.0876C100.257 29.8062 100.729 29.4309 101.135 28.9909C101.541 28.5531 101.854 28.0505 102.075 27.4877H106.991C106.678 28.6782 106.178 29.7414 105.488 30.713C104.798 31.6846 103.985 32.5289 103.047 33.2168C102.077 33.936 101.012 34.4698 99.8531 34.8451C98.6934 35.2516 97.4738 35.4392 96.2212 35.4392C94.53 35.4415 92.9648 35.1287 91.5548 34.5324Z" fill="#006DF0"/>
<path d="M119.411 22.3812V15.221H130.043V12.9893H117.055V34.9967H124.712C128.989 34.9967 132.12 32.827 132.12 28.7044C132.12 24.52 128.989 22.3812 124.712 22.3812H119.411ZM129.733 28.7044C129.733 31.3082 127.966 32.796 124.743 32.796H119.411V24.5819H124.743C127.966 24.5819 129.733 26.0697 129.733 28.7044Z" fill="#006DF0"/>
<path d="M133.275 34.9967H135.693L138.73 28.1466H149.238L152.307 34.9967H154.786L144.96 12.9893H143.07L133.275 34.9967ZM143.969 16.3059L148.277 25.9458H139.691L143.969 16.3059Z" fill="#006DF0"/>
<path d="M158.102 34.9967H160.457V24.7989H173.321V34.9967H175.677V12.9893H173.321V22.5672H160.457V12.9893H158.102V34.9967Z" fill="#006DF0"/>
<path d="M196.495 34.9967H199.998L186.514 23.4351L197.456 12.9893H194.264L184.128 22.6292V12.9893H181.803V34.9967H184.128V24.3649L196.495 34.9967Z" fill="#006DF0"/>
<mask id="mask0_3113_26201" style="mask-type:alpha" maskUnits="userSpaceOnUse" x="0" y="7" width="34" height="34">
<path d="M16.9981 40.9961C26.3858 40.9961 33.9961 33.3858 33.9961 23.9981C33.9961 14.6103 26.3858 7 16.9981 7C7.61029 7 0 14.6103 0 23.9981C0 33.3858 7.61029 40.9961 16.9981 40.9961Z" fill="#C4C4C4"/>
</mask>
<g mask="url(#mask0_3113_26201)">
<path d="M25.3123 8.80964C33.8048 13.6023 36.8824 24.2335 32.1856 32.5565C27.4889 40.8794 16.7976 43.7386 8.30505 38.9459C-0.187416 34.1533 -3.26504 23.5221 1.43168 15.1991C6.12841 6.87608 16.8198 4.01701 25.3123 8.80964Z" fill="url(#paint0_linear_3113_26201)"/>
<path d="M25.3123 8.80964C33.8048 13.6023 36.8824 24.2335 32.1856 32.5565C27.4889 40.8794 16.7976 43.7386 8.30505 38.9459C-0.187416 34.1533 -3.26504 23.5221 1.43168 15.1991C6.12841 6.87608 16.8198 4.01701 25.3123 8.80964Z" fill="url(#paint1_linear_3113_26201)"/>
<path d="M9.08242 30.5872C2.67291 24.3048 2.05961 15.0429 7.71083 9.90234C13.3621 4.76179 23.1391 5.68731 29.5486 11.9697C35.9581 18.2521 36.5714 27.5118 30.918 32.6546C25.2644 37.7974 15.4897 36.8696 9.08242 30.5872Z" fill="url(#paint2_radial_3113_26201)"/>
<path d="M15.8229 24.0374C9.30475 20.3057 6.18977 13.9751 8.8645 9.90143C11.5393 5.82777 18.9937 5.54845 25.5119 9.28021C32.0301 13.012 35.145 19.3426 32.468 23.4185C29.791 27.4943 22.3411 27.7715 15.8229 24.0374Z" fill="url(#paint3_radial_3113_26201)"/>
</g>
<defs>
<linearGradient id="paint0_linear_3113_26201" x1="16.2586" y1="41.2678" x2="16.8353" y2="8.95071" gradientUnits="userSpaceOnUse">
<stop stop-color="#4581E9"/>
<stop offset="0.479167" stop-color="#80ACF0"/>
<stop offset="1" stop-color="white"/>
</linearGradient>
<linearGradient id="paint1_linear_3113_26201" x1="44.0518" y1="40.9468" x2="14.5028" y2="14.4614" gradientUnits="userSpaceOnUse">
<stop stop-color="#4581E9"/>
<stop offset="1" stop-color="#4581E9" stop-opacity="0"/>
</linearGradient>
<radialGradient id="paint2_radial_3113_26201" cx="0" cy="0" r="1" gradientUnits="userSpaceOnUse" gradientTransform="translate(38.4319 25.944) rotate(-156.356) scale(40.767 84.0555)">
<stop offset="0.0969745" stop-color="#4581E9"/>
<stop offset="0.459935" stop-color="#80ACF0"/>
<stop offset="0.794216" stop-color="#F0F6FD"/>
</radialGradient>
<radialGradient id="paint3_radial_3113_26201" cx="0" cy="0" r="1" gradientUnits="userSpaceOnUse" gradientTransform="translate(51.7353 10.113) rotate(176.049) scale(35.8602 43.0138)">
<stop stop-color="#4581E9"/>
<stop offset="0.536835" stop-color="#87B1F0"/>
<stop offset="0.805657" stop-color="#CCE0FD"/>
<stop offset="1" stop-color="#F0F6FD"/>
</radialGradient>
</defs>
</svg>
