<svg width="200" height="48" viewBox="0 0 200 48" fill="none" xmlns="http://www.w3.org/2000/svg">
<g clip-path="url(#clip0_4529_18849)">
<path opacity="0.99" fill-rule="evenodd" clip-rule="evenodd" d="M27.9844 -0.046875C28.0469 -0.046875 28.1093 -0.046875 28.1719 -0.046875C31.4002 4.25482 34.6502 8.53607 37.9219 12.7969C37.9079 12.8955 37.9235 12.9892 37.9688 13.0781C40.668 16.5417 43.3086 20.0418 45.8906 23.5781C39.9218 23.5781 33.9532 23.5781 27.9844 23.5781C25.5701 20.2208 23.0857 16.9084 20.5312 13.6406C20.0551 12.9939 19.6019 12.3377 19.1719 11.6719C22.1093 7.76562 25.0469 3.85938 27.9844 -0.046875Z" fill="#CFE3F0"/>
<path opacity="0.983" fill-rule="evenodd" clip-rule="evenodd" d="M19.1719 11.6719C19.6019 12.3377 20.0551 12.9939 20.5312 13.6406C23.0857 16.9084 25.5701 20.2208 27.9844 23.5781C18.6406 23.5781 9.29688 23.5781 -0.046875 23.5781C-0.046875 23.4844 -0.046875 23.3906 -0.046875 23.2969C4.67375 17.2159 9.34563 11.0908 13.9688 4.92188C15.7262 7.16251 17.4606 9.4125 19.1719 11.6719Z" fill="#FDFDFD"/>
<path opacity="0.989" fill-rule="evenodd" clip-rule="evenodd" d="M45.8897 23.5781C43.3077 20.0418 40.6671 16.5417 37.9678 13.0781C37.9226 12.9892 37.907 12.8955 37.921 12.7969C39.9493 10.1892 41.965 7.56423 43.9678 4.92188C48.5881 11.0735 53.2444 17.1985 57.9366 23.2969C57.9944 23.3858 57.9789 23.4639 57.8897 23.5312C53.8899 23.5781 49.8898 23.5938 45.8897 23.5781Z" fill="#A1CAE5"/>
<path opacity="0.961" fill-rule="evenodd" clip-rule="evenodd" d="M-0.046875 43.5469C-0.046875 43.2344 -0.046875 42.9218 -0.046875 42.6094C0.33064 42.4669 0.643141 42.2325 0.890625 41.9063C1.17545 41.7329 1.4567 41.5611 1.73438 41.3906C2.15126 41.7949 2.62001 42.123 3.14062 42.375C4.38725 42.7016 5.26225 42.2954 5.76562 41.1563C4.63633 41.1387 3.51133 41.0918 2.39062 41.0156C2.29718 40.3937 2.26594 39.7688 2.29688 39.1406C3.45354 39.1563 4.6098 39.1406 5.76562 39.0938C5.20486 37.8769 4.26736 37.4706 2.95312 37.875C2.50184 38.1395 2.11121 38.4676 1.78125 38.8594C1.17916 38.3789 0.569788 37.9102 -0.046875 37.4531C-0.046875 37.2031 -0.046875 36.9532 -0.046875 36.7031C0.307453 36.4897 0.619953 36.224 0.890625 35.9063C2.96848 34.8287 5.03098 34.8599 7.07812 36C8.67218 37.4498 9.25031 39.2467 8.8125 41.3906C8.08405 43.8346 6.4278 45.0846 3.84375 45.1406C2.79414 45.0998 1.80977 44.8342 0.890625 44.3438C0.619953 44.026 0.307453 43.7603 -0.046875 43.5469Z" fill="#F3FBFF"/>
<path opacity="0.958" fill-rule="evenodd" clip-rule="evenodd" d="M32.6709 35.1094C34.1023 34.9595 35.4461 35.2252 36.7022 35.9062C37.5786 36.833 38.0005 37.9423 37.9678 39.2344C38.0459 41.0789 38.0302 42.9227 37.9209 44.7656C37.0191 44.8726 36.1129 44.8882 35.2022 44.8125C35.046 44.58 34.9679 44.3144 34.9678 44.0156C34.7812 44.3897 34.4843 44.6241 34.0772 44.7187C32.6777 45.2195 31.334 45.0944 30.0459 44.3437C29.024 43.3127 28.774 42.1096 29.2959 40.7344C29.6832 40.1341 30.2145 39.7122 30.8897 39.4687C32.1843 38.9896 33.528 38.7864 34.9209 38.8594C34.9361 38.3864 34.7486 38.0271 34.3584 37.7812C33.1126 37.4443 32.0188 37.7099 31.0772 38.5781C30.6289 38.0171 30.1445 37.4858 29.624 36.9844C29.5615 36.8594 29.5615 36.7343 29.624 36.6094C29.8459 36.4211 30.0646 36.2336 30.2803 36.0469C31.07 35.6648 31.8668 35.3524 32.6709 35.1094ZM33.6084 40.8281C34.0772 40.8281 34.5459 40.8281 35.0147 40.8281C35.1137 42.0882 34.5355 42.7445 33.2803 42.7969C32.637 42.828 32.2151 42.5467 32.0147 41.9531C32.3041 41.2307 32.8353 40.8557 33.6084 40.8281Z" fill="#F2FBFF"/>
<path opacity="0.977" fill-rule="evenodd" clip-rule="evenodd" d="M42.1406 47.9531C41.0782 47.9531 40.0156 47.9531 38.9531 47.9531C38.9531 43.7969 38.9531 39.6406 38.9531 35.4844C39.9844 35.4844 41.0156 35.4844 42.0469 35.4844C42.0314 35.7985 42.0471 36.1109 42.0938 36.4219C42.6977 35.7194 43.4633 35.2975 44.3906 35.1563C46.4447 35.0044 47.929 35.8325 48.8438 37.6406C49.2516 38.4146 49.4235 39.2428 49.3594 40.125C49.3613 40.6458 49.3144 41.1614 49.2188 41.6719C48.9733 42.2835 48.6921 42.8772 48.375 43.4531C46.7919 45.1322 44.9325 45.4915 42.7969 44.5313C42.5313 44.3906 42.3281 44.1875 42.1875 43.9219C42.1406 45.2652 42.125 46.609 42.1406 47.9531ZM43.9219 37.8281C45.1446 37.8388 45.9101 38.4326 46.2188 39.6094C46.368 40.8617 45.8836 41.7523 44.7656 42.2813C43.3484 42.4598 42.4578 41.8504 42.0938 40.4531C42.0439 39.5362 42.372 38.7705 43.0781 38.1563C43.3555 38.0059 43.6368 37.8965 43.9219 37.8281Z" fill="#F2FAFF"/>
<path opacity="0.961" fill-rule="evenodd" clip-rule="evenodd" d="M11.6719 35.4844C12.9844 35.4844 14.2969 35.4844 15.6094 35.4844C16.6701 38.3066 17.6857 41.1503 18.6562 44.0156C18.7303 44.2376 18.8396 44.4407 18.9844 44.625C18.9464 44.7136 18.8839 44.7761 18.7969 44.8125C17.6988 44.8886 16.605 44.873 15.5156 44.7656C14.8923 43.2707 14.361 41.7394 13.9219 40.1719C13.8186 39.9781 13.7092 39.7906 13.5938 39.6094C13.0369 40.9046 12.5525 42.2327 12.1406 43.5938C11.9438 43.9818 11.7563 44.3723 11.5781 44.7656C10.52 44.873 9.4575 44.8885 8.39062 44.8125C8.31487 44.7836 8.25237 44.7367 8.20312 44.6719C9.43397 41.6353 10.5902 38.5728 11.6719 35.4844Z" fill="#F3FBFF"/>
<path opacity="0.966" fill-rule="evenodd" clip-rule="evenodd" d="M19.3594 35.4844C20.4218 35.4844 21.4844 35.4844 22.5469 35.4844C22.5469 36.5782 22.5469 37.6719 22.5469 38.7656C22.8011 38.7879 23.0355 38.7879 23.25 38.7656C23.9566 37.7072 24.6284 36.6291 25.2656 35.5313C26.4527 35.4844 27.6402 35.4687 28.8281 35.4844C28.8421 35.583 28.8265 35.6768 28.7812 35.7656C27.8294 37.093 26.9388 38.4524 26.1094 39.8438C26.1433 39.9586 26.1902 40.0679 26.25 40.1719C26.6138 40.3543 26.9263 40.6043 27.1875 40.9219C27.9905 42.0639 28.5686 43.3138 28.9219 44.6719C28.8726 44.7368 28.8101 44.7836 28.7344 44.8125C27.605 44.8886 26.48 44.8731 25.3594 44.7656C25.2161 44.1952 25.0443 43.6327 24.8437 43.0781C24.6588 42.7072 24.44 42.3634 24.1875 42.0469C23.7064 41.697 23.1751 41.447 22.5937 41.2969C22.5625 42.4531 22.5312 43.6094 22.5 44.7656C21.4872 44.8899 20.4715 44.8899 19.4531 44.7656C19.3594 41.6725 19.3281 38.5788 19.3594 35.4844Z" fill="#F3FAFF"/>
<path opacity="0.939" fill-rule="evenodd" clip-rule="evenodd" d="M49.5468 35.4844C52.3593 35.4844 55.1718 35.4844 57.9843 35.4844C58.0153 36.2993 57.9841 37.1118 57.8905 37.9219C57.0518 38.013 56.2081 38.0443 55.3593 38.0156C55.3905 40.2665 55.3593 42.5165 55.2655 44.7656C54.2471 44.8898 53.2314 44.8898 52.2186 44.7656C52.1718 42.5158 52.1561 40.2658 52.1718 38.0156C51.3229 38.0443 50.4792 38.013 49.6405 37.9219C49.5469 37.1118 49.5157 36.2993 49.5468 35.4844Z" fill="#F2FBFF"/>
</g>
<defs>
<clipPath id="clip0_4529_18849">
<rect width="58.125" height="48" fill="white"/>
</clipPath>
</defs>
</svg>
