<svg width="200" height="48" viewBox="0 0 200 48" fill="none" xmlns="http://www.w3.org/2000/svg">
<g clip-path="url(#clip0_3113_26069)">
<path d="M12.0649 19.957C12.0649 16.208 15.0815 13.1685 18.802 13.1685C22.5224 13.1685 25.539 16.208 25.539 19.957C25.539 23.706 22.5224 26.7455 18.802 26.7455C15.0815 26.7455 12.0649 23.706 12.0649 19.957Z" fill="#FDA329"/>
<path d="M37.4044 29.2786H0.25V34.3951H37.4044V29.2786Z" fill="#FDA329"/>
<path d="M2.76382 13.1174C1.90912 13.1174 1.05443 13.2694 0.25 13.6244V26.2389C3.71908 27.6574 7.64065 25.9349 9.0484 22.4394C10.4562 18.9434 8.74675 14.9919 5.27765 13.6244C4.47323 13.3204 3.61853 13.1174 2.76382 13.1174Z" fill="#FDA329"/>
<path d="M34.8403 13.1174C35.695 13.1174 36.5497 13.2694 37.3541 13.6244V26.2389C33.885 27.6574 29.9635 25.9854 28.5557 22.4899C27.148 18.9944 28.8071 15.0429 32.2762 13.6244C33.1309 13.3204 33.9856 13.1174 34.8403 13.1174Z" fill="#FDA329"/>
<path d="M65.2075 16.41C67.2185 18.4365 68.224 20.9695 68.224 24.009C68.224 27.0485 67.2185 29.5815 65.2075 31.608C63.196 33.685 60.6825 34.6985 57.6155 34.6985C53.895 34.6985 50.627 32.824 48.8674 29.835L52.3365 27.8085C53.2915 29.5815 55.303 30.696 57.6155 30.696C60.934 30.696 63.297 28.822 64.0005 25.833H54.9005V22.033H64.0005C63.297 19.0445 60.934 17.17 57.6155 17.17C55.303 17.17 53.342 18.2335 52.3365 20.108L48.8674 18.0815C50.627 15.0925 53.9455 13.2185 57.6155 13.2185C60.6825 13.3195 63.196 14.333 65.2075 16.41Z" fill="#004259"/>
<path d="M84.3124 34.294H79.9384L74.6594 27.607V34.294H70.8884V19.6025H74.6594V26.087L79.6869 19.6025H84.1614L78.2789 26.847L84.3124 34.294Z" fill="#004259"/>
<path d="M86.5751 32.4705C85.1171 30.9505 84.4131 29.127 84.4131 26.9485C84.4131 24.77 85.1171 22.946 86.5751 21.4265C88.0831 19.9065 89.8931 19.1975 92.1051 19.1975C94.9206 19.1975 97.4346 20.6665 98.6411 22.997L95.4236 24.922C94.8201 23.706 93.5631 22.946 92.1051 22.946C89.8431 22.946 88.1836 24.618 88.1836 26.9485C88.1836 28.1135 88.5861 29.076 89.2896 29.836C90.0441 30.5455 90.9491 30.9505 92.1051 30.9505C93.6136 30.9505 94.8706 30.2415 95.4736 29.0255L98.7416 30.9C97.4346 33.2305 94.9711 34.6995 92.1556 34.6995C89.8931 34.6995 88.0831 33.99 86.5751 32.4705Z" fill="#004259"/>
<path d="M114.126 19.6025V34.294H110.355V23.149H104.574V34.294H100.803V19.6025H114.126Z" fill="#004259"/>
<path d="M124.484 34.6995C122.322 34.6995 120.512 33.99 119.003 32.4705C117.495 30.9505 116.791 29.127 116.791 26.9485C116.791 24.77 117.495 22.946 119.003 21.477C120.512 19.957 122.322 19.1975 124.484 19.1975C126.645 19.1975 128.455 19.957 129.964 21.477C131.472 22.997 132.226 24.8205 132.226 26.9485C132.226 29.076 131.472 30.9505 129.964 32.4705C128.455 33.99 126.645 34.6995 124.484 34.6995ZM124.484 31.001C125.64 31.001 126.545 30.596 127.299 29.836C128.053 29.076 128.455 28.1135 128.455 26.9485C128.455 25.783 128.053 24.8205 127.299 24.0605C126.545 23.301 125.59 22.8955 124.484 22.8955C123.327 22.8955 122.422 23.301 121.668 24.0605C120.964 24.8205 120.562 25.783 120.562 26.9485C120.562 28.1135 120.964 29.076 121.668 29.836C122.422 30.596 123.327 31.001 124.484 31.001Z" fill="#004259"/>
<path d="M136.197 32.47C134.79 30.9505 134.086 29.076 134.086 26.796C134.086 24.314 134.488 22.338 135.192 21.021C135.946 19.653 137.404 18.3865 139.667 17.272C139.968 17.12 140.471 16.8665 141.074 16.6135L142.281 16.0055C142.532 15.904 142.834 15.7015 143.236 15.499C144.292 14.8405 144.594 14.3335 145.096 13.1685L148.163 14.9415C147.912 16.1575 147.359 17.0695 146.454 17.728C145.599 18.3865 144.292 19.045 142.482 19.7035C140.018 20.6665 139.063 21.578 138.56 22.946C139.616 21.8315 141.074 21.274 142.935 21.274C144.543 21.274 146.001 21.882 147.258 23.0475C148.515 24.2125 149.169 25.783 149.169 27.759C149.169 29.785 148.515 31.4065 147.107 32.7235C145.75 34.0405 143.99 34.6485 141.778 34.6485C139.465 34.6995 137.655 33.99 136.197 32.47ZM139.164 25.2255C138.41 25.8335 138.058 26.644 138.058 27.6575C138.058 28.6705 138.41 29.532 139.114 30.1905C139.868 30.849 140.722 31.2035 141.778 31.2035C142.834 31.2035 143.689 30.8995 144.393 30.241C145.046 29.5825 145.398 28.772 145.398 27.759C145.398 25.783 143.89 24.314 141.778 24.314C140.773 24.314 139.918 24.618 139.164 25.2255Z" fill="#004259"/>
<path d="M162.492 19.6025H166.263V34.294H162.492V32.5715C161.336 33.99 159.777 34.6995 157.716 34.6995C155.755 34.6995 154.096 33.99 152.688 32.4705C151.331 30.9505 150.627 29.127 150.627 26.9485C150.627 24.77 151.331 22.946 152.688 21.477C154.096 19.957 155.755 19.1975 157.716 19.1975C159.777 19.1975 161.336 19.9065 162.492 21.325V19.6025ZM158.42 31.1025C159.576 31.1025 160.531 30.6975 161.285 29.9375C162.09 29.127 162.442 28.164 162.442 26.9485C162.442 25.7325 162.04 24.77 161.285 23.9595C160.531 23.149 159.576 22.794 158.42 22.794C157.263 22.794 156.308 23.1995 155.554 23.9595C154.8 24.7195 154.398 25.7325 154.398 26.9485C154.398 28.164 154.8 29.1775 155.554 29.9375C156.308 30.6975 157.263 31.1025 158.42 31.1025Z" fill="#004259"/>
<path d="M179.234 19.6025H183.005V34.294H179.234V28.7215H173.452V34.294H169.682V19.6025H173.452V25.175H179.234V19.6025Z" fill="#004259"/>
<path d="M199.848 34.294H195.474L190.145 27.607V34.294H186.374V19.6025H190.145V26.087L195.172 19.6025H199.647L193.815 26.847L199.848 34.294Z" fill="#004259"/>
</g>
<defs>
<clipPath id="clip0_3113_26069">
<rect width="200" height="22" fill="white" transform="translate(0 13)"/>
</clipPath>
</defs>
</svg>
