<svg width="200" height="48" viewBox="0 0 200 48" fill="none" xmlns="http://www.w3.org/2000/svg">
<path d="M0 24.2697V22.6882C0.17094 20.3278 0.755897 18.1364 1.75487 16.1138C3.96513 11.6389 7.91077 8.24816 12.7056 6.82457C15.8462 5.89261 19.0161 5.80543 22.2154 6.56303C22.8779 6.7203 23.5313 6.91996 24.1754 7.16201C27.6947 8.4844 30.5285 10.68 32.6769 13.7487C34.7207 16.6677 35.7829 20.0191 35.8636 23.803C35.8766 24.4341 35.8417 25.1008 35.759 25.803C35.3391 29.3688 33.9607 32.5405 31.6236 35.3179C31.6195 35.3225 31.6137 35.3252 31.6076 35.3256C31.6015 35.326 31.5954 35.324 31.5908 35.32C31.4561 35.2017 31.3378 35.0735 31.2359 34.9353C30.84 34.4 30.4482 33.7542 30.0605 32.9979C28.7426 30.4277 27.8697 27.601 27.8903 24.762C27.8916 24.5842 27.934 24.4054 28.0174 24.2256C28.4154 23.3661 29.0523 22.603 29.6913 21.9179C30.3634 21.1979 31.0027 20.5012 31.6092 19.8277C32.1002 19.282 32.4567 18.761 32.679 18.2646C32.9569 17.6441 32.9897 16.5948 32.1785 16.3887C31.6718 16.2594 31.1938 16.6246 30.9436 17.0389C30.6154 17.5835 30.2872 18.1969 29.8441 18.6379C29.1077 19.3723 28.3323 19.9466 27.5179 20.361C27.0564 20.5959 26.0523 20.8861 26.2338 19.8964C26.2735 19.681 26.3846 19.4061 26.5672 19.0718C26.9097 18.442 27.2287 17.8523 27.5241 17.3025C27.7846 16.8174 27.8841 16.1333 27.36 15.7774C27.1241 15.6174 26.8 15.5446 26.5097 15.5651C25.0544 15.6677 23.9436 17.0359 23.5415 18.3723C23.2892 19.2092 23.9692 19.9107 23.8718 20.7671C23.8123 21.2851 23.2144 21.7764 22.799 22.0256C21.934 22.5439 21.0591 22.8246 20.1744 22.8677C19.3508 22.9087 18.5179 22.8697 17.7549 22.5825C16.9774 22.2912 16.64 21.7815 16.3774 20.9743C16.0123 19.8584 15.6154 18.7405 15.0492 17.6933C14.5969 16.8574 13.76 16.4502 13.1805 15.7189C12.9467 15.4235 12.8926 15.081 13.0185 14.6912C13.2338 14.0215 13.6892 13.4471 14.0728 12.8759C14.3959 12.3938 14.7385 11.6574 14.5826 11.081C14.4677 10.6564 14.159 10.4365 13.6564 10.4215C12.6892 10.3918 11.7836 11.0225 11.1221 11.7138C10.4561 12.4092 10.2051 13.2194 10.3692 14.1446C10.441 14.5518 10.6144 15.0256 10.5097 15.4277C10.4332 15.7196 10.2738 15.9887 10.0318 16.2348C9.74393 16.5275 9.45402 16.8331 9.16205 17.1518C8.83316 17.51 8.60547 17.961 8.47897 18.5046C8.26769 19.4061 8.21538 20.3312 8.20103 21.2584C8.18462 22.3025 7.98769 23.2974 7.67077 24.2902C7.51624 24.7736 7.40889 25.2259 7.34872 25.6471C7.20718 26.6307 7.32103 27.6697 7.60205 28.6441C7.70393 28.9962 7.78769 29.3302 7.85333 29.6461C8.40991 32.3251 8.38188 34.9572 7.76923 37.5425C7.70838 37.7983 7.63214 38.0263 7.54051 38.2266C7.53667 38.2348 7.53113 38.242 7.52426 38.2478C7.5174 38.2535 7.50938 38.2578 7.50077 38.2601C7.49217 38.2624 7.48319 38.2629 7.47446 38.2613C7.46573 38.2598 7.45747 38.2564 7.45026 38.2512C5.79145 37.0875 4.37265 35.6574 3.19385 33.961C1.17744 31.0598 0.112821 27.8294 0 24.2697Z" fill="#F14635"/>
<path d="M54.0595 21.9119L60.3292 12.7847C60.3324 12.78 60.3366 12.7762 60.3417 12.7735C60.3467 12.7708 60.3522 12.7694 60.3579 12.7693L66.0472 12.7683C66.0537 12.7683 66.0602 12.7701 66.0657 12.7735C66.0713 12.777 66.0758 12.7819 66.0787 12.7878C66.0816 12.7937 66.0828 12.8003 66.0821 12.8068C66.0814 12.8134 66.0789 12.8196 66.0748 12.8247L59.0225 22.0319C59.0183 22.0377 59.0159 22.0446 59.0157 22.0517C59.0155 22.0589 59.0176 22.0659 59.0215 22.0719L65.5118 32.4083C65.515 32.4135 65.5168 32.4195 65.517 32.4257C65.5172 32.4318 65.5158 32.4379 65.5129 32.4433C65.51 32.4487 65.5057 32.4533 65.5004 32.4565C65.4952 32.4597 65.4892 32.4615 65.483 32.4616H60.0441C60.038 32.4616 60.0321 32.4599 60.0269 32.4569C60.0217 32.4538 60.0174 32.4494 60.0143 32.4442L55.9302 25.5499C55.9275 25.5452 55.9237 25.5413 55.9191 25.5383C55.9146 25.5354 55.9094 25.5336 55.9041 25.533C55.8987 25.5324 55.8933 25.533 55.8882 25.5349C55.8831 25.5367 55.8786 25.5398 55.8748 25.5437L54.0071 27.5181C54.001 27.5247 53.9977 27.5336 53.9979 27.5427V32.4268C53.9979 32.4314 53.997 32.4359 53.9953 32.4401C53.9935 32.4443 53.9909 32.4482 53.9877 32.4514C53.9845 32.4547 53.9806 32.4572 53.9764 32.459C53.9722 32.4607 53.9676 32.4616 53.963 32.4616H49.362C49.3528 32.4616 49.3439 32.458 49.3374 32.4514C49.3308 32.4449 49.3271 32.436 49.3271 32.4268V12.8042C49.3271 12.795 49.3308 12.7861 49.3374 12.7796C49.3439 12.773 49.3528 12.7693 49.362 12.7693H53.9641C53.9687 12.7693 53.9732 12.7702 53.9774 12.772C53.9816 12.7737 53.9855 12.7763 53.9887 12.7796C53.992 12.7828 53.9945 12.7866 53.9963 12.7909C53.998 12.7951 53.9989 12.7996 53.9989 12.8042L53.9959 21.8914C53.9957 21.8989 53.998 21.9062 54.0023 21.9124C54.0067 21.9185 54.0129 21.923 54.02 21.9253C54.0272 21.9276 54.0349 21.9276 54.042 21.9251C54.0491 21.9227 54.0552 21.9181 54.0595 21.9119Z" fill="black"/>
<path d="M115.048 17.2543C116.28 17.2543 117.279 16.2555 117.279 15.0235C117.279 13.7915 116.28 12.7927 115.048 12.7927C113.816 12.7927 112.817 13.7915 112.817 15.0235C112.817 16.2555 113.816 17.2543 115.048 17.2543Z" fill="black"/>
<path d="M133.711 23.0175L137.467 18.5775C137.477 18.5653 137.49 18.5555 137.505 18.5488C137.52 18.542 137.536 18.5385 137.552 18.5385H142.821C142.867 18.5385 142.875 18.5556 142.843 18.5898L137.872 24.1139C137.859 24.1284 137.851 24.1467 137.85 24.166C137.849 24.1853 137.854 24.2045 137.865 24.2206L143.193 32.2185C143.195 32.2223 143.197 32.2266 143.197 32.2311C143.197 32.2355 143.196 32.24 143.194 32.2439C143.192 32.2478 143.189 32.251 143.186 32.2532C143.182 32.2555 143.178 32.2566 143.173 32.2565H138.092C138.08 32.2564 138.068 32.2532 138.057 32.2471C138.046 32.241 138.036 32.2322 138.03 32.2216L134.971 27.2134C134.945 27.1696 134.913 27.1655 134.876 27.2011L133.688 28.3334C133.674 28.3477 133.667 28.3648 133.667 28.3847V32.2308C133.667 32.2376 133.664 32.2441 133.659 32.249C133.654 32.2538 133.648 32.2565 133.641 32.2565H129.212C129.2 32.2565 129.189 32.2518 129.18 32.2435C129.172 32.2353 129.167 32.2241 129.167 32.2124V12.8052C129.167 12.7813 129.18 12.7693 129.204 12.7693H133.641C133.648 12.7693 133.654 12.772 133.659 12.7768C133.664 12.7816 133.667 12.7881 133.667 12.7949V23.0011C133.667 23.0476 133.681 23.053 133.711 23.0175Z" fill="black"/>
<path d="M74.7978 31.2513C74.7967 31.246 74.7941 31.2411 74.7904 31.2373C74.7866 31.2334 74.7818 31.2306 74.7766 31.2294C74.7713 31.2281 74.7658 31.2283 74.7607 31.23C74.7556 31.2317 74.751 31.2348 74.7476 31.239C74.1602 31.9665 73.3616 32.4212 72.3517 32.6031C70.4491 32.9457 68.5876 32.4523 67.3076 30.9826C66.4943 30.0492 66.2912 28.7692 66.5312 27.5816C66.7989 26.2523 67.7035 25.2687 68.9178 24.7395C70.685 23.9692 72.6235 23.9898 74.5178 24.0021C74.5568 24.0021 74.5773 23.9826 74.5794 23.9436C74.6235 23.1621 74.6184 22.2533 74.0163 21.718C73.5609 21.3128 72.7537 21.2964 72.1784 21.4605C71.5702 21.6328 71.2543 22.1774 71.2799 22.7898C71.2826 22.8445 71.2563 22.8718 71.2009 22.8718H66.8491C66.8067 22.8718 66.7859 22.8503 66.7866 22.8072C66.8112 21.8062 67.149 20.9648 67.7999 20.2831C68.5431 19.5043 69.4796 18.9675 70.6091 18.6728C73.5743 17.9005 78.1691 18.3805 78.9568 22.1364C79.0498 22.5781 79.0936 23.2157 79.0881 24.0492C79.0765 25.7703 79.0741 27.5036 79.0809 29.2492C79.085 30.2985 79.2009 31.3477 79.7025 32.2677C79.7133 32.2877 79.7187 32.3101 79.7183 32.3328C79.7179 32.3555 79.7116 32.3777 79.7 32.3972C79.6884 32.4167 79.672 32.4329 79.6523 32.4442C79.6326 32.4555 79.6103 32.4615 79.5876 32.4616H75.2594C75.2438 32.4616 75.2286 32.4572 75.2155 32.4488C75.2024 32.4404 75.192 32.4285 75.1855 32.4144C75.0132 32.0431 74.884 31.6554 74.7978 31.2513ZM71.7845 29.5292C72.1031 29.6537 72.4936 29.6752 72.9558 29.5939C73.6375 29.4742 74.1715 29.1313 74.5578 28.5651C74.579 28.5344 74.5896 28.4998 74.5896 28.4616V26.3774C74.5896 26.331 74.5664 26.3077 74.5199 26.3077C73.245 26.3057 71.3127 26.0677 70.9896 27.799C70.8491 28.5528 70.9999 29.2226 71.7845 29.5292Z" fill="black"/>
<path d="M88.2021 21.2421C87.6052 21.1262 86.8873 21.2134 86.4196 21.6462C85.8421 22.1805 85.8893 23.0082 86.5765 23.4287C86.865 23.6051 87.2042 23.7416 87.5939 23.838C88.0897 23.9604 88.5789 24.0674 89.0616 24.159C91.437 24.6103 93.8903 25.5918 93.9693 28.3313C94.0421 30.8236 91.7026 32.1887 89.5611 32.5518C87.4237 32.9149 85.0924 32.6862 83.3221 31.4739C82.198 30.7046 81.358 29.4749 81.3201 28.0872C81.3194 28.0462 81.3392 28.0257 81.3796 28.0257H85.4575C85.4727 28.0256 85.4872 28.0315 85.4982 28.0421C85.5091 28.0526 85.5155 28.0669 85.516 28.0821C85.5775 29.6605 87.1693 30.0113 88.4534 29.799C89.0175 29.7067 89.5601 29.3467 89.6309 28.7416C89.6842 28.2759 89.4972 27.9286 89.0698 27.6995C88.2134 27.239 87.0524 27.0636 86.0514 26.8154C84.2196 26.361 82.0627 25.3046 81.8103 23.2277C81.4627 20.3631 83.9724 18.7292 86.4821 18.4308C87.0476 18.3638 87.625 18.3436 88.2144 18.3703C89.797 18.4421 91.3519 18.8308 92.5591 19.8277C93.504 20.6072 93.9833 21.6041 93.997 22.8185C93.997 22.854 93.9792 22.8718 93.9437 22.8718H89.5662C89.5559 22.8718 89.5456 22.8697 89.5361 22.8657C89.5265 22.8616 89.5179 22.8557 89.5107 22.8482C89.5035 22.8407 89.4979 22.8319 89.4943 22.8222C89.4906 22.8125 89.4889 22.8022 89.4893 22.7918C89.516 21.9426 89.0442 21.4051 88.2021 21.2421Z" fill="black"/>
<path d="M101.131 31.3795V38.2554C101.131 38.2902 101.114 38.3077 101.078 38.3077H96.6842C96.6741 38.3077 96.6645 38.3037 96.6574 38.2966C96.6502 38.2894 96.6462 38.2798 96.6462 38.2697V18.6636C96.6462 18.6314 96.6627 18.6154 96.6955 18.6154H100.792C100.824 18.6154 100.842 18.6314 100.845 18.6636L100.963 19.842C100.964 19.8478 100.966 19.8533 100.969 19.8578C100.973 19.8623 100.978 19.8656 100.984 19.8673C100.989 19.8689 100.995 19.8689 101.001 19.8671C101.006 19.8654 101.011 19.862 101.014 19.8574C101.749 18.9904 102.682 18.5022 103.813 18.3928C104.615 18.3155 105.408 18.3925 106.193 18.6236C106.612 18.7473 107.046 18.9661 107.495 19.28C110.008 21.0369 110.269 24.9918 109.796 27.7128C109.638 28.6202 109.309 29.4824 108.81 30.2995C108.187 31.319 107.321 32.0314 106.21 32.4369C105.932 32.5388 105.568 32.6171 105.118 32.6718C103.632 32.8533 102.201 32.4564 101.186 31.3579C101.149 31.3183 101.131 31.3255 101.131 31.3795ZM103.783 29.3251C104.679 29.1702 105.183 28.1723 105.337 27.3713C105.541 26.3039 105.56 25.1702 105.394 23.9702C105.214 22.6687 104.536 21.6041 103.058 21.7026C102.265 21.7559 101.562 21.9979 101.172 22.721C101.145 22.7701 101.131 22.8252 101.131 22.881C101.132 24.7586 101.132 26.4882 101.13 28.0697C101.129 28.5723 101.831 29.0697 102.224 29.2092C102.711 29.3829 103.23 29.4215 103.783 29.3251Z" fill="black"/>
<path d="M117.202 18.6155H112.773C112.755 18.6155 112.74 18.6302 112.74 18.6483V32.4288C112.74 32.4469 112.755 32.4616 112.773 32.4616H117.202C117.22 32.4616 117.235 32.4469 117.235 32.4288V18.6483C117.235 18.6302 117.22 18.6155 117.202 18.6155Z" fill="black"/>
<path d="M156.933 29.1609V32.4276C156.933 32.4366 156.93 32.4452 156.923 32.4515C156.917 32.4579 156.909 32.4614 156.9 32.4614H144.739C144.73 32.4614 144.721 32.4579 144.715 32.4515C144.708 32.4452 144.705 32.4366 144.705 32.4276L144.704 30.045C144.704 30.0376 144.706 30.0304 144.711 30.0245L151.045 22.002C151.049 21.997 151.051 21.991 151.052 21.9847C151.053 21.9785 151.051 21.9722 151.049 21.9665C151.046 21.9609 151.042 21.9561 151.036 21.9528C151.031 21.9494 151.025 21.9476 151.019 21.9476L143.627 21.9496C143.62 21.9495 143.614 21.9476 143.609 21.944C143.603 21.9404 143.599 21.9353 143.596 21.9293C143.594 21.9234 143.593 21.9168 143.594 21.9104C143.595 21.904 143.598 21.8981 143.602 21.8932L146.552 18.6255C146.555 18.6219 146.559 18.6191 146.563 18.6171C146.568 18.6152 146.573 18.6142 146.578 18.6143L156.756 18.6153C156.765 18.6153 156.774 18.6189 156.78 18.6252C156.786 18.6315 156.79 18.6402 156.79 18.6491V20.9322C156.79 20.9396 156.787 20.9469 156.783 20.9527L150.402 29.0737C150.398 29.0787 150.396 29.0847 150.395 29.091C150.395 29.0972 150.396 29.1035 150.399 29.1092C150.401 29.1148 150.406 29.1196 150.411 29.1229C150.416 29.1263 150.423 29.1281 150.429 29.1281L156.9 29.1271C156.909 29.1271 156.917 29.1306 156.923 29.137C156.93 29.1433 156.933 29.152 156.933 29.1609Z" fill="black"/>
<path d="M20.4975 25.7938C21.8555 26.4431 22.4196 27.6903 22.6206 29.1385C22.6452 29.3176 22.6743 29.5156 22.7078 29.7323C23.1211 32.3815 23.5303 35.0215 23.7601 37.641C23.8223 38.3508 23.8486 39.0062 23.8391 39.6072C23.8339 39.9672 23.797 40.4256 23.5529 40.719C23.2052 41.1385 22.7262 41.3897 22.1847 41.5046C20.9915 41.7569 19.6353 41.907 18.116 41.9549C17.837 41.9631 17.5755 41.9152 17.3314 41.8113C16.7132 41.5487 16.3047 41.0827 16.1057 40.4133C15.7498 39.2174 15.6678 37.9087 15.6473 36.6092C15.6213 34.9566 15.6032 33.2424 15.5929 31.4667C15.5837 29.8133 15.6103 28.2585 16.036 26.8564C16.3447 25.8369 17.0524 25.1959 18.1591 25.2359C18.9662 25.2646 19.7837 25.4523 20.4975 25.7938Z" fill="#F14635"/>
<path d="M123.254 32.2728C124.48 32.2706 125.472 31.3105 125.47 30.1284C125.468 28.9462 124.472 27.9896 123.247 27.9917C122.021 27.9939 121.029 28.9539 121.031 30.1361C121.033 31.3183 122.028 32.2749 123.254 32.2728Z" fill="black"/>
<path d="M12.5323 41.2564L11.6267 40.9343C11.5884 40.9206 11.5607 40.8953 11.5436 40.8584C11.3569 40.4489 11.2239 40.0095 11.1446 39.5405C10.9005 38.0916 10.854 36.5213 11.0051 34.8297C11.0718 34.081 11.1703 33.2595 11.5087 32.6533C11.6564 32.3897 11.9446 32.4369 12.079 32.682C12.2444 32.9856 12.3665 33.3101 12.4451 33.6553C12.7877 35.1702 12.9087 36.6533 12.9949 38.2461C13.0236 38.7836 13.0229 39.3176 12.9928 39.8482C12.9661 40.2984 12.8933 40.9159 12.5713 41.2471C12.5665 41.2523 12.5603 41.2559 12.5533 41.2576C12.5464 41.2592 12.5391 41.2588 12.5323 41.2564Z" fill="#F14635"/>
<path d="M28.0184 34.1764C28.4806 35.0201 28.8417 35.8977 29.1015 36.8092C29.2246 37.24 29.3087 37.9456 28.9097 38.2584C28.3367 38.7077 27.7641 39.0988 27.1918 39.4318C27.0625 39.507 26.935 39.5128 26.8092 39.4492C26.5036 39.2943 26.24 38.2102 26.16 37.8225C25.8906 36.5323 25.7863 35.294 25.8471 34.1077C25.8636 33.7815 25.9641 32.5815 26.4389 32.5651C27.0964 32.5405 27.7384 33.6666 28.0184 34.1764Z" fill="#F14635"/>
</svg>
