<svg width="200" height="48" viewBox="0 0 200 48" fill="none" xmlns="http://www.w3.org/2000/svg">
<g clip-path="url(#clip0_3113_26225)">
<path d="M35.9616 34.5386C35.9616 36.4806 35.1902 38.3431 33.8169 39.7163C32.4437 41.0896 30.5812 41.861 28.6392 41.861H7.50334C5.56131 41.861 3.69882 41.0896 2.3256 39.7163C0.952377 38.3431 0.180908 36.4806 0.180908 34.5386V13.4064C0.180908 11.4644 0.952377 9.6019 2.3256 8.22868C3.69882 6.85545 5.56131 6.08398 7.50334 6.08398H28.6392C30.5812 6.08398 32.4437 6.85545 33.8169 8.22868C35.1902 9.6019 35.9616 11.4644 35.9616 13.4064V34.5386ZM14.3781 13.4247C11.0217 19.1932 7.70619 24.9295 4.43147 30.6334C4.01725 31.3546 3.77543 31.8998 3.70598 32.269C3.04812 35.7502 7.03553 38.1021 9.76751 35.8635C10.0891 35.5991 10.5411 34.9613 11.1234 33.9502C13.4223 29.9555 15.7255 25.9638 18.0329 21.9752C18.0804 21.9995 18.1109 22.0294 18.1243 22.0647C18.1291 22.0769 18.1346 22.0884 18.1407 22.0994C20.4372 26.0734 22.7689 30.1193 25.136 34.2371C25.6185 35.0777 26.0412 35.6387 26.4043 35.9201C27.279 36.5963 28.27 36.8478 29.3775 36.6748C31.7768 36.3002 33.1236 33.6395 32.1387 31.5508C31.9645 31.1817 31.733 30.7467 31.4443 30.246C28.211 24.6286 24.9691 19.0135 21.7188 13.4009C21.3472 12.6639 21.0207 12.162 20.7393 11.8952C18.9356 10.1902 16.0666 10.4387 14.813 12.6755C14.6449 12.9752 14.4999 13.2249 14.3781 13.4247ZM21.8832 33.031C21.8832 32.0147 21.4795 31.0399 20.7609 30.3213C20.0422 29.6026 19.0675 29.1989 18.0512 29.1989C17.0348 29.1989 16.0601 29.6026 15.3415 30.3213C14.6228 31.0399 14.2191 32.0147 14.2191 33.031C14.2191 34.0473 14.6228 35.022 15.3415 35.7407C16.0601 36.4593 17.0348 36.8631 18.0512 36.8631C19.0675 36.8631 20.0422 36.4593 20.7609 35.7407C21.4795 35.022 21.8832 34.0473 21.8832 33.031Z" fill="white"/>
<path d="M21.7188 13.4009C21.7627 14.459 21.8376 15.3855 21.2821 16.3431C20.2161 18.1827 19.1727 19.9942 18.1517 21.7778C18.1371 21.8034 18.1152 21.8198 18.086 21.8271C18.0579 21.8332 18.0238 21.8332 17.9836 21.8271C16.892 19.9473 15.806 18.0639 14.7253 16.1768C14.3586 15.536 14.2429 14.6186 14.3781 13.4247C14.5 13.2249 14.6449 12.9752 14.8131 12.6755C16.0667 10.4387 18.9357 10.1902 20.7394 11.8952C21.0208 12.162 21.3473 12.6639 21.7188 13.4009Z" fill="#043775"/>
<path d="M21.7189 13.4011C24.9692 19.0137 28.2111 24.6287 31.4444 30.2462C31.7331 30.7469 31.9646 31.1818 32.1388 31.551C33.1237 33.6397 31.7769 36.3004 29.3776 36.675C28.2701 36.848 27.2791 36.5965 26.4044 35.9203C26.0413 35.6389 25.6186 35.0779 25.1361 34.2373C22.769 30.1195 20.4372 26.0736 18.1408 22.0996C18.1347 22.0886 18.1292 22.0771 18.1244 22.0649C18.111 22.0296 18.0805 21.9997 18.033 21.9753C18.0123 21.9498 17.9958 21.9004 17.9836 21.8273C18.0238 21.8334 18.058 21.8334 18.086 21.8273C18.1152 21.82 18.1371 21.8036 18.1518 21.778C19.1727 19.9944 20.2161 18.1828 21.2821 16.3433C21.8377 15.3857 21.7627 14.4592 21.7189 13.4011Z" fill="#0054A6"/>
<path d="M14.378 13.4248C14.2428 14.6187 14.3585 15.5361 14.7252 16.1769C15.8058 18.064 16.8919 19.9474 17.9835 21.8272C17.9957 21.9003 18.0121 21.9497 18.0328 21.9753C15.7254 25.9639 13.4223 29.9556 11.1234 33.9503C10.541 34.9615 10.0891 35.5992 9.76744 35.8636C7.03546 38.1022 3.04805 35.7503 3.70592 32.2691C3.77536 31.8999 4.01718 31.3548 4.4314 30.6335C7.70612 24.9296 11.0217 19.1933 14.378 13.4248Z" fill="#00AAE7"/>
<path d="M58.1117 17.5127H53.2161C53.1369 17.5127 53.0955 17.5517 53.0918 17.6297C52.9578 20.2636 52.7403 22.8847 52.4394 25.493C52.3651 26.1472 52.197 26.8916 51.9351 27.7261C51.2808 29.8185 50.0364 31.2439 47.8398 31.8323C47.5462 31.9115 47.3458 31.8079 47.2386 31.5217C47.0498 31.0185 46.8725 30.505 46.7068 29.9811C46.6756 29.8826 46.6829 29.7759 46.7274 29.6826C46.7718 29.5893 46.85 29.5164 46.9462 29.4786C48.1523 29.0059 48.9418 28.155 49.3145 26.9257C49.5582 26.1204 49.7172 25.3346 49.7915 24.5684C50.0291 22.1074 50.252 19.3529 50.4603 16.3048C50.5298 15.2961 51.1219 14.9489 52.0155 14.9507C54.5336 14.9543 57.1535 14.958 59.8752 14.9617C60.6482 14.9635 61.1763 15.5556 61.1763 16.3121C61.1714 21.2888 61.1702 26.2453 61.1726 31.1818C61.1729 31.2105 61.1674 31.2389 61.1565 31.2655C61.1455 31.2921 61.1294 31.3163 61.109 31.3367C61.0887 31.3571 61.0644 31.3733 61.0377 31.3843C61.0109 31.3954 60.9823 31.401 60.9533 31.401H58.5229C58.4502 31.401 58.3805 31.3722 58.329 31.3208C58.2776 31.2694 58.2488 31.1996 58.2488 31.1269V17.6498C58.2488 17.5584 58.2031 17.5127 58.1117 17.5127Z" fill="#0054A6"/>
<path d="M106.346 21.0781C107.903 21.0695 109.336 21.0726 110.646 21.0872C112.152 21.1055 113.862 21.6665 114.853 22.9128C115.686 23.9599 115.945 25.3597 115.85 26.6864C115.701 28.8025 114.219 30.5477 112.229 31.1508C111.627 31.3347 110.859 31.4224 109.926 31.4139C107.876 31.3968 106.004 31.392 104.31 31.3993C103.49 31.4029 103.292 30.7834 103.292 30.1C103.288 25.5631 103.292 20.991 103.305 16.3834C103.307 15.5556 103.817 14.9562 104.623 14.9562C107.547 14.955 110.591 14.955 113.756 14.9562C113.969 14.9562 114.076 15.0628 114.076 15.276V17.2387C114.076 17.2993 114.052 17.3574 114.009 17.4002C113.966 17.443 113.908 17.4671 113.848 17.4671H106.264C106.233 17.4671 106.218 17.4823 106.218 17.5128V20.952C106.218 21.0373 106.261 21.0793 106.346 21.0781ZM106.207 23.5707L106.225 28.7349C106.225 28.7538 106.233 28.7719 106.246 28.7853C106.26 28.7987 106.278 28.8062 106.297 28.8062L110.193 28.7934C110.899 28.7909 111.575 28.5173 112.073 28.0327C112.57 27.5481 112.849 26.8923 112.846 26.2094V26.0523C112.845 25.7141 112.775 25.3795 112.64 25.0676C112.505 24.7556 112.308 24.4724 112.06 24.2342C111.812 23.9959 111.518 23.8073 111.194 23.679C110.871 23.5507 110.524 23.4854 110.175 23.4866L106.278 23.4994C106.26 23.4994 106.241 23.5069 106.228 23.5203C106.215 23.5336 106.207 23.5518 106.207 23.5707Z" fill="#0054A6"/>
<path d="M69.2991 31.6844C66.0755 31.7502 64.0398 30.1932 63.5793 26.9569C62.9488 22.5254 64.8073 18.3424 70.0118 18.8157C72.7072 19.0606 74.3537 20.8734 74.7539 23.4391C74.9598 24.7634 74.9385 26.0505 74.6899 27.3004C74.1033 30.2444 72.1352 31.6277 69.2991 31.6844ZM66.8723 28.1721C67.351 29.1187 68.3908 29.4165 69.4105 29.3453C72.2229 29.1497 72.2741 25.3506 71.8556 23.3349C71.6418 22.3079 71.0132 21.396 69.9368 21.1713C68.8635 20.9459 67.9742 21.2042 67.2688 21.9461C65.9037 23.3824 66.0956 26.6371 66.8723 28.1721Z" fill="#0054A6"/>
<path d="M89.2709 23.8117C89.6583 20.9573 91.6447 18.8832 94.5813 18.7863C95.6193 18.7522 96.483 18.8619 97.1726 19.1153C100.54 20.3524 101.019 24.4732 100.369 27.4355C99.7383 30.3063 97.8103 31.6166 95.029 31.6806C92.0211 31.7518 89.9086 30.4123 89.3531 27.335C89.1387 26.1532 89.1113 24.9788 89.2709 23.8117ZM95.3781 21.1199C92.2221 20.7453 91.736 24.2978 92.0814 26.5126C92.3098 27.9764 92.816 29.1277 94.331 29.3214C97.9035 29.7764 98.0936 25.5021 97.5106 23.152C97.2475 22.0866 96.5147 21.2552 95.3781 21.1199Z" fill="#0054A6"/>
<path d="M125.445 23.3915C125.564 21.8979 124.876 21.1359 123.38 21.1054C122.141 21.0798 120.906 21.2455 119.677 21.6025C119.454 21.667 119.315 21.5866 119.259 21.3612C119.154 20.9348 119.043 20.4804 118.926 19.998C118.853 19.6946 118.968 19.4924 119.27 19.3913C120.577 18.9552 122.104 18.7523 123.851 18.7828C126.652 18.8303 128.222 20.1241 128.25 23.0059C128.272 25.4254 128.284 27.7578 128.288 30.0031C128.289 30.4404 128.113 30.7353 127.758 30.8875C127.112 31.1641 126.436 31.359 125.73 31.4723C123.268 31.867 118.376 32.1448 117.808 28.6782C117.272 25.4053 119.379 23.609 122.471 23.5176C123.38 23.4896 124.329 23.4859 125.318 23.5066C125.396 23.5078 125.438 23.4695 125.445 23.3915ZM120.622 28.1574C120.956 29.9263 124.171 29.422 125.331 29.1022C125.366 29.0922 125.396 29.0712 125.418 29.0422C125.44 29.0132 125.452 28.9778 125.452 28.9413V25.7415C125.452 25.6806 125.421 25.6496 125.36 25.6484C124.426 25.6325 123.54 25.6386 122.702 25.6666C121.245 25.716 120.328 26.5968 120.622 28.1574Z" fill="#0054A6"/>
<path d="M79.9492 26.0558V31.1268C79.9492 31.1995 79.9203 31.2693 79.8689 31.3207C79.8175 31.3721 79.7477 31.4009 79.675 31.4009H77.3908C77.3302 31.4009 77.2721 31.3769 77.2293 31.334C77.1864 31.2912 77.1624 31.2331 77.1624 31.1725V19.34C77.1624 19.2673 77.1912 19.1976 77.2426 19.1462C77.294 19.0948 77.3638 19.0659 77.4365 19.0659H79.6513C79.8499 19.0659 79.9492 19.1646 79.9492 19.362V23.6344C79.9492 23.6954 79.9796 23.7258 80.0405 23.7258H82.0105C82.0402 23.7264 82.0698 23.7194 82.0966 23.7054C82.1234 23.6913 82.1465 23.6707 82.164 23.6454L85.2486 19.1902C85.2752 19.1518 85.3108 19.1204 85.3521 19.0988C85.3935 19.0772 85.4395 19.0659 85.4862 19.0659L87.8966 19.0677C87.9507 19.0679 88.0039 19.0827 88.0503 19.1107C88.0967 19.1386 88.1347 19.1786 88.1602 19.2264C88.1857 19.2742 88.1978 19.328 88.1951 19.3822C88.1924 19.4363 88.1752 19.4887 88.1451 19.5337L84.6346 24.7547C84.6119 24.7878 84.5996 24.827 84.5993 24.8674C84.599 24.9077 84.6107 24.9473 84.6328 24.9812L88.5654 31.0154C88.5898 31.0532 88.6035 31.0969 88.6053 31.1419C88.607 31.1869 88.5967 31.2314 88.5754 31.2709C88.5541 31.3104 88.5225 31.3433 88.4841 31.3662C88.4457 31.3891 88.4018 31.4011 88.3571 31.4009H85.7274C85.6653 31.4009 85.6172 31.3754 85.5831 31.3242L82.0105 25.9973C81.9751 25.9449 81.9258 25.9187 81.8625 25.9187H80.0862C79.9948 25.9187 79.9492 25.9644 79.9492 26.0558Z" fill="#0054A6"/>
<path d="M134.041 26.1015V31.0811C134.041 31.166 134.007 31.2473 133.947 31.3073C133.887 31.3673 133.806 31.4009 133.721 31.4009H131.619C131.522 31.4009 131.43 31.3624 131.361 31.2939C131.292 31.2254 131.254 31.1324 131.254 31.0355V19.5228C131.254 19.2182 131.406 19.0659 131.711 19.0659H133.675C133.772 19.0659 133.865 19.1044 133.934 19.173C134.002 19.2415 134.041 19.3345 134.041 19.4314V23.5888C134.041 23.6497 134.071 23.6801 134.132 23.6801H139.066C139.127 23.6801 139.157 23.6497 139.157 23.5888V19.4771C139.157 19.368 139.201 19.2635 139.278 19.1863C139.355 19.1092 139.46 19.0659 139.569 19.0659H141.67C141.743 19.0659 141.813 19.0948 141.864 19.1462C141.915 19.1976 141.944 19.2673 141.944 19.34V31.1268C141.944 31.3096 141.853 31.4009 141.67 31.4009H139.494C139.45 31.4009 139.406 31.3923 139.366 31.3755C139.325 31.3587 139.288 31.334 139.257 31.303C139.226 31.2719 139.202 31.2351 139.185 31.1945C139.168 31.1539 139.159 31.1104 139.159 31.0665L139.156 26.0101C139.156 25.9796 139.141 25.9644 139.112 25.9644H134.178C134.086 25.9644 134.041 26.0101 134.041 26.1015Z" fill="#0054A6"/>
<path d="M147.7 26.0102V31.1726C147.7 31.2332 147.676 31.2913 147.633 31.3342C147.591 31.377 147.533 31.4011 147.472 31.4011H145.188C145.115 31.4011 145.045 31.3722 144.994 31.3208C144.942 31.2694 144.914 31.1996 144.914 31.127V19.3401C144.914 19.2674 144.942 19.1977 144.994 19.1463C145.045 19.0949 145.115 19.066 145.188 19.066H147.426C147.499 19.066 147.569 19.0949 147.62 19.1463C147.671 19.1977 147.7 19.2674 147.7 19.3401V23.6346C147.7 23.6955 147.731 23.7259 147.792 23.7259H149.756C149.831 23.7259 149.889 23.6955 149.932 23.6346L153.005 19.1994C153.034 19.1583 153.071 19.1247 153.115 19.1015C153.159 19.0782 153.208 19.0661 153.258 19.066C154.073 19.0624 154.861 19.0642 155.622 19.0715C155.707 19.0727 155.784 19.1001 155.852 19.1538C155.908 19.1963 155.945 19.2583 155.956 19.3273C155.967 19.3962 155.952 19.4668 155.913 19.5247L152.377 24.7804C152.338 24.8376 152.337 24.8955 152.375 24.954L156.32 31.0045C156.346 31.043 156.36 31.0877 156.362 31.1337C156.364 31.1798 156.353 31.2255 156.331 31.2661C156.309 31.3067 156.276 31.3407 156.236 31.3645C156.197 31.3882 156.151 31.4009 156.105 31.4011H153.471C153.412 31.4011 153.365 31.3761 153.331 31.3261L149.789 26.012C149.769 25.9827 149.743 25.9587 149.712 25.9422C149.681 25.9256 149.647 25.917 149.612 25.917L147.792 25.9188C147.731 25.9188 147.7 25.9493 147.7 26.0102Z" fill="#0054A6"/>
<path d="M18.0511 36.8631C20.1675 36.8631 21.8832 35.1475 21.8832 33.0311C21.8832 30.9147 20.1675 29.199 18.0511 29.199C15.9347 29.199 14.219 30.9147 14.219 33.0311C14.219 35.1475 15.9347 36.8631 18.0511 36.8631Z" fill="#FBAD3A"/>
</g>
<defs>
<clipPath id="clip0_3113_26225">
<rect width="156.426" height="36" fill="white" transform="translate(0 6)"/>
</clipPath>
</defs>
</svg>
