<svg width="200" height="48" viewBox="0 0 200 48" fill="none" xmlns="http://www.w3.org/2000/svg">
<g clip-path="url(#clip0_4529_18783)">
<path fill-rule="evenodd" clip-rule="evenodd" d="M55.1252 15.4358C57.3892 12.9721 60.8517 11.5079 64.9801 11.5079V11.5081C74.2358 11.5081 80.9609 18.766 80.9609 28.7543C80.9609 38.7425 74.2358 46.0001 64.9801 46.0001C60.7185 46.0001 57.1893 44.4686 54.9252 41.8051C54.7257 44.269 52.928 46.0001 50.597 46.0001C48.0668 46.0001 46.1359 44.0023 46.1359 41.4054V6.59444C46.1359 3.99754 48.0667 2 50.6636 2C53.194 2 55.1252 3.93125 55.1252 6.59444V15.4358ZM54.9921 28.7542C54.9921 34.1473 58.3214 37.8096 63.3157 37.8096C68.3094 37.8096 71.839 34.0143 71.839 28.6871C71.839 23.4935 68.243 19.6313 63.3157 19.6313C58.388 19.6313 54.9921 23.3602 54.9921 28.7542ZM172.915 27.222L182.37 39.0752H182.37C183.102 40.0074 183.435 40.8722 183.435 41.8713C183.435 44.2018 181.637 46 179.373 46C177.975 46 176.91 45.4672 176.044 44.335L164.791 30.4849C163.792 29.1533 163.393 28.2211 163.393 27.222C163.393 26.0904 163.858 25.1584 164.991 23.8929L175.511 12.906C176.377 11.9736 177.509 11.5079 178.641 11.5079C180.972 11.5079 182.77 13.2388 182.77 15.5027C182.77 16.6344 182.303 17.7 181.305 18.6988L172.915 27.222ZM152.939 6.62395V41.4054C152.939 44.0023 154.87 46.0001 157.467 46.0001C159.997 46.0001 161.928 44.0692 161.928 41.4054V6.62395C161.928 3.96106 160.064 2.02951 157.467 2.02951C154.87 2.02951 152.939 4.02705 152.939 6.62395ZM118.025 41.4054V16.0355H118.025C118.025 13.4387 119.956 11.5081 122.487 11.5081C124.551 11.5081 126.215 12.9061 126.682 14.9038C129.012 12.7731 132.275 11.5081 135.937 11.5081C143.462 11.5081 148.322 16.7019 148.322 24.7587V41.4054C148.322 44.0692 146.458 46.0002 143.861 46.0002C141.331 46.0002 139.4 44.0023 139.4 41.4054V25.9572C139.4 22.1618 136.936 19.5649 133.274 19.5649C129.611 19.5649 127.014 22.2282 127.014 25.9572V41.4054C127.014 44.0692 125.083 46.0002 122.553 46.0002C119.956 46.0002 118.025 44.0023 118.025 41.4054ZM99.159 11.5079C94.3649 11.5079 90.0369 12.9721 87.2405 15.5699C86.0418 16.7016 85.3761 17.9003 85.3761 19.1653C85.3761 21.1625 87.0406 22.8272 89.2379 22.8272C90.1038 22.8272 90.8359 22.5613 91.9014 21.762C93.8326 20.097 95.8963 19.2985 98.2271 19.2985C102.222 19.2985 104.42 21.4292 104.42 25.0916V26.5564H96.1627C88.439 26.5564 83.7114 30.2185 83.7114 36.1446C83.7114 42.0048 88.3059 46 95.0976 46C99.0261 46 102.356 44.7347 104.753 42.4709C105.152 44.4685 106.883 45.9337 109.081 45.9337C111.545 45.9337 113.409 44.0692 113.409 41.4723V25.6244C113.409 16.6345 108.215 11.5081 99.159 11.5081V11.5079ZM97.4946 39.4077C94.5649 39.4077 92.7666 38.0095 92.7666 35.812C92.7666 33.6147 94.3651 32.4824 97.3614 32.4824H104.42V32.8825C104.42 36.6113 101.423 39.4077 97.4946 39.4077ZM34.2919 45.9997H34.2916L34.2914 45.9999C31.8931 45.9999 29.9305 44.0388 29.9305 41.6406V26.4007L28.1409 28.1904C26.4449 29.8866 23.6692 29.886 21.9733 28.1904C20.277 26.4944 20.2773 23.719 21.9733 22.0233L31.2126 12.7837C32.9084 11.0879 35.6838 11.0875 37.3799 12.7837C38.2296 13.6334 38.6535 14.7531 38.6523 15.8728V41.6405C38.6523 44.0386 36.6897 45.9997 34.2919 45.9997Z" fill="url(#paint0_linear_4529_18783)"/>
<path fill-rule="evenodd" clip-rule="evenodd" d="M0.000151352 15.8728C-0.00105946 14.7531 0.422878 13.6334 1.27227 12.7837C2.96832 11.0875 5.74381 11.0879 7.43986 12.7837L16.6791 22.0233C18.3752 23.719 18.3755 26.4944 16.6791 28.1904H16.6788C14.9831 29.886 12.2073 29.8866 10.5115 28.1904L8.72166 26.4007V41.6406C8.72166 44.0388 6.75908 45.9999 4.36106 45.9999H4.36075C1.96258 45.9999 0 44.0388 0 41.6406L0.000302704 15.8729L0.000151352 15.8728Z" fill="#FABF00"/>
</g>
<defs>
<linearGradient id="paint0_linear_4529_18783" x1="84.7998" y1="35.2074" x2="81.6805" y2="11.3702" gradientUnits="userSpaceOnUse">
<stop stop-color="#007E8B"/>
<stop offset="1" stop-color="#009C4D"/>
</linearGradient>
<clipPath id="clip0_4529_18783">
<rect width="183.436" height="44" fill="white" transform="translate(0 2)"/>
</clipPath>
</defs>
</svg>
