<svg width="200" height="48" viewBox="0 0 200 48" fill="none" xmlns="http://www.w3.org/2000/svg">
<g clip-path="url(#clip0_4529_18828)">
<path fill-rule="evenodd" clip-rule="evenodd" d="M125.584 29.3386C124.551 29.3386 124.035 28.8307 124.035 28.0688C124.035 27.4326 124.551 26.9498 125.453 26.7991L128.291 26.2912V26.5451C128.291 28.1944 127.13 29.3386 125.584 29.3386ZM124.423 32.1349C126.873 32.1349 128.162 30.3544 128.162 30.3544H128.291V31.8809C129.064 31.8809 131.774 31.8809 131.774 31.8809V24.1284C131.774 21.3321 129.58 19.1721 126.357 19.1721C123.005 19.1721 121.2 21.586 121.2 21.586L123.262 23.6205C123.262 23.6205 124.294 22.2223 126.1 22.2223C127.389 22.2223 128.162 22.9842 128.294 23.8744L124.297 24.586C121.975 24.9935 120.558 26.5423 120.558 28.5767C120.555 30.6112 122.101 32.1349 124.423 32.1349ZM98.38 31.8809H101.863V25.0186C101.863 23.4921 102.895 22.4763 104.313 22.4763C105.602 22.4763 106.375 23.2381 106.375 24.6363V31.8809H109.858V25.0186C109.858 23.4921 110.891 22.4763 112.308 22.4763C113.598 22.4763 114.371 23.2381 114.371 24.6363V31.8809H117.854V24.1284C117.854 21.0781 115.92 19.1721 113.469 19.1721C110.762 19.1721 109.342 21.3321 109.342 21.3321H109.214C109.214 21.3321 108.181 19.1721 105.474 19.1721C103.024 19.1721 101.991 21.2065 101.991 21.2065H101.863V19.426H98.38V31.8809ZM93.2814 17.774C94.3893 17.774 95.2935 16.8837 95.2935 15.8679C95.2935 14.8521 94.3921 13.9619 93.3065 13.9619C92.1986 13.9619 91.2944 14.8521 91.2944 15.8679C91.2972 16.8837 92.1986 17.774 93.2814 17.774ZM91.554 31.8809H95.0368V19.426H91.554V31.8809ZM86.5168 32.1349C87.8061 32.1349 88.8386 31.7526 88.8386 31.7526V28.5767C88.8386 28.5767 88.194 28.8307 87.421 28.8307C86.3884 28.8307 85.7437 28.1944 85.7437 27.0502V22.8558H88.5819V19.6772H85.7437V15.8651H82.6489V18.1535C82.6489 19.1693 82.1326 19.68 81.2312 19.68H80.0703V22.8586H82.2637V27.5609C82.261 30.4828 83.9354 32.1349 86.5168 32.1349ZM71.9382 28.9591C70.1326 28.9591 68.7149 27.5609 68.7149 25.6549C68.7149 23.7488 70.1326 22.3507 71.9382 22.3507C73.7437 22.3507 75.1614 23.7488 75.1614 25.6549C75.1614 27.5609 73.7437 28.9591 71.9382 28.9591ZM65.3605 37.2195H68.8433V30.1033H68.9716C68.9716 30.1033 70.261 32.1377 72.9679 32.1377C75.9344 32.1377 78.6414 29.4698 78.6414 25.6549C78.6414 21.8428 75.9344 19.1721 72.9679 19.1721C70.261 19.1721 68.9716 21.2065 68.9716 21.2065H68.8433V19.426H65.3605V37.2195ZM52.7326 28.7051C49.5093 28.7051 46.9307 26.1628 46.9307 22.987C46.9307 19.8084 49.5093 17.2688 52.7326 17.2688C55.9558 17.2688 58.5344 19.8112 58.5344 22.987C58.5372 26.1628 55.9586 28.7051 52.7326 28.7051ZM52.7326 32.2633C58.2777 32.2633 62.5335 28.0688 62.5335 22.9842C62.5335 17.8995 58.2777 13.7051 52.7326 13.7051C47.1875 13.7051 42.9316 17.8995 42.9316 22.9842C42.9316 28.0688 47.1875 32.2633 52.7326 32.2633Z" fill="white"/>
<path fill-rule="evenodd" clip-rule="evenodd" d="M18.4443 6.23441C15.3912 6.1786 12.5085 6.87348 9.97171 8.14046L28.2089 23.6902C28.3959 23.8521 28.3959 24.1395 28.2089 24.2986L9.97171 39.8484C12.4136 41.0651 15.1708 41.7544 18.0954 41.7544C28.1782 41.7544 36.3243 33.5944 36.115 23.6093C35.9057 14.1349 28.0526 6.41302 18.4443 6.23441ZM183.04 31.8809H186.522V28.9563L188.2 27.0502L191.423 31.8809H195.419L190.519 24.6363L195.162 19.426H191.035L186.522 24.5107V14.0874H183.04V31.8809ZM167.574 31.8809H171.056V25.2726C171.056 23.6205 172.217 22.4763 173.763 22.4763C175.181 22.4763 176.085 23.3665 176.085 24.8902V31.8809H179.568V24.3823C179.568 21.2037 177.506 19.1721 174.924 19.1721C172.474 19.1721 171.185 21.2065 171.185 21.2065H171.056V19.426H167.574V31.8809ZM158.029 29.3386C156.997 29.3386 156.481 28.8307 156.481 28.0688C156.481 27.4325 156.997 26.9498 157.898 26.7991L160.736 26.2912V26.5451C160.736 28.1944 159.575 29.3386 158.029 29.3386ZM156.868 32.1349C159.319 32.1349 160.608 30.3544 160.608 30.3544H160.736V31.8809C161.509 31.8809 164.219 31.8809 164.219 31.8809V24.1284C164.219 21.3321 162.026 19.1721 158.802 19.1721C155.451 19.1721 153.645 21.586 153.645 21.586L155.708 23.6205C155.708 23.6205 156.74 22.2223 158.546 22.2223C159.835 22.2223 160.608 22.9842 160.739 23.8744L156.743 24.586C154.421 24.9935 153.003 26.5423 153.003 28.5767C153.001 30.6112 154.547 32.1349 156.868 32.1349ZM140.35 20.9498V17.3916H143.833C145.122 17.3916 145.895 18.1535 145.895 19.1721C145.895 20.1879 145.122 20.9525 143.833 20.9525H140.35V20.9498ZM140.35 28.5767V24.2539H144.347C145.893 24.2539 146.797 25.1442 146.797 26.4139C146.797 27.6837 145.895 28.5739 144.347 28.5739H140.35V28.5767ZM136.482 31.8809H144.606C148.474 31.8809 150.796 29.5925 150.796 26.7963C150.796 23.3637 147.444 22.4763 147.444 22.4763C147.444 22.4763 149.895 21.586 149.895 18.7898C149.895 16.2474 147.701 14.0874 144.093 14.0874H136.485V31.8809H136.482ZM13.4378 23.2381L9.79031 8.22977C4.01636 11.1907 0.0703125 17.1349 0.0703125 23.9916C0.0703125 30.8484 4.01636 36.7953 9.79031 39.7535L13.4378 24.7451C13.555 24.2484 13.555 23.7321 13.4378 23.2381Z" fill="white"/>
<path fill-rule="evenodd" clip-rule="evenodd" d="M18.4452 6.23441C15.3922 6.1786 12.5094 6.87348 9.97266 8.14046L28.2099 23.6902C28.3968 23.8521 28.3968 24.1395 28.2099 24.2986L9.97266 39.8484C12.4145 41.0651 15.1717 41.7544 18.0964 41.7544C28.1792 41.7544 36.3252 33.5944 36.1159 23.6093C35.9066 14.1349 28.0536 6.41302 18.4452 6.23441ZM183.041 31.8809H186.523V28.9563L188.201 27.0502L191.424 31.8809H195.42L190.52 24.6363L195.163 19.426H191.036L186.523 24.5107V14.0874H183.041V31.8809ZM167.575 31.8809H171.057V25.2726C171.057 23.6205 172.218 22.4763 173.764 22.4763C175.182 22.4763 176.086 23.3665 176.086 24.8902V31.8809H179.569V24.3823C179.569 21.2037 177.507 19.1721 174.925 19.1721C172.475 19.1721 171.186 21.2065 171.186 21.2065H171.057V19.426H167.575V31.8809ZM158.03 29.3386C156.998 29.3386 156.482 28.8307 156.482 28.0688C156.482 27.4325 156.998 26.9498 157.899 26.7991L160.737 26.2912V26.5451C160.737 28.1944 159.576 29.3386 158.03 29.3386ZM156.869 32.1349C159.32 32.1349 160.609 30.3544 160.609 30.3544H160.737V31.8809C161.51 31.8809 164.22 31.8809 164.22 31.8809V24.1284C164.22 21.3321 162.027 19.1721 158.803 19.1721C155.452 19.1721 153.646 21.586 153.646 21.586L155.708 23.6205C155.708 23.6205 156.741 22.2223 158.547 22.2223C159.836 22.2223 160.609 22.9842 160.74 23.8744L156.744 24.586C154.422 24.9935 153.004 26.5423 153.004 28.5767C153.002 30.6112 154.548 32.1349 156.869 32.1349ZM140.351 20.9498V17.3916H143.834C145.123 17.3916 145.896 18.1535 145.896 19.1721C145.896 20.1879 145.123 20.9525 143.834 20.9525H140.351V20.9498ZM140.351 28.5767V24.2539H144.348C145.894 24.2539 146.798 25.1442 146.798 26.4139C146.798 27.6837 145.896 28.5739 144.348 28.5739H140.351V28.5767ZM136.483 31.8809H144.607C148.475 31.8809 150.797 29.5925 150.797 26.7963C150.797 23.3637 147.445 22.4763 147.445 22.4763C147.445 22.4763 149.895 21.586 149.895 18.7898C149.895 16.2474 147.702 14.0874 144.094 14.0874H136.486V31.8809H136.483Z" fill="#EC1C24"/>
</g>
<defs>
<clipPath id="clip0_4529_18828">
<rect width="195.628" height="36" fill="white" transform="translate(0 6)"/>
</clipPath>
</defs>
</svg>
