<svg width="200" height="48" viewBox="0 0 200 48" fill="none" xmlns="http://www.w3.org/2000/svg">
<g clip-path="url(#clip0_3113_26577)">
<path d="M24.005 6H35.955L36.005 29.655C36.0051 29.7644 35.9835 29.8728 35.9414 29.9741C35.8994 30.0753 35.8377 30.1674 35.76 30.245L24.185 41.82C24.1696 41.8363 24.1496 41.8476 24.1276 41.8522C24.1057 41.8569 24.0828 41.8547 24.0622 41.846C24.0415 41.8373 24.024 41.8225 24.012 41.8035C23.9999 41.7846 23.994 41.7624 23.995 41.74L24 18.375C24 18.2755 23.9604 18.1802 23.8901 18.1098C23.8198 18.0395 23.7244 18 23.625 18H12.38C12.3482 17.9998 12.3172 17.9901 12.291 17.9721C12.2647 17.9542 12.2444 17.9289 12.2326 17.8994C12.2208 17.8699 12.2181 17.8376 12.2247 17.8065C12.2314 17.7755 12.2471 17.7471 12.27 17.725L24.005 6Z" fill="#EA5614"/>
<path d="M11.99 41.8561H0V17.8411L11.72 6.11615C11.9067 5.92948 12 5.96781 12 6.23115V29.3561C12 29.4888 12.0527 29.6159 12.1464 29.7097C12.2402 29.8035 12.3674 29.8561 12.5 29.8561H23.395C23.4429 29.8564 23.4898 29.8708 23.5296 29.8974C23.5695 29.924 23.6007 29.9618 23.6193 30.0059C23.638 30.0501 23.6432 30.0988 23.6344 30.1459C23.6257 30.1931 23.6033 30.2366 23.57 30.2711L11.99 41.8561Z" fill="#2B2C84"/>
<path d="M88.53 17.8558C86.425 16.8458 83.475 16.9808 81.69 18.3908C77.21 21.9158 78.66 30.1408 84.69 30.9108C87.4633 31.2675 89.7066 30.2791 91.42 27.9458C91.5366 27.7891 91.665 27.7791 91.805 27.9158L95.245 31.3458C95.3816 31.4825 95.39 31.6275 95.27 31.7808C93.33 34.1875 90.9716 35.7108 88.195 36.3508C82.56 37.6458 76.88 35.1208 74.24 29.9808C70.455 22.6058 74.34 13.1508 82.95 11.7058C87.4966 10.9458 91.4216 12.2908 94.725 15.7408C94.8716 15.8941 94.87 16.0458 94.72 16.1958L91.34 19.5758C91.1933 19.7258 91.0483 19.7258 90.905 19.5758C90.1816 18.8391 89.39 18.2658 88.53 17.8558Z" fill="#2B2C84"/>
<path d="M63.7851 17.37L54.5301 17.375C54.4889 17.375 54.4495 17.3913 54.4205 17.4204C54.3914 17.4495 54.3751 17.4889 54.3751 17.53V35.84C54.3751 35.8811 54.3587 35.9205 54.3297 35.9496C54.3006 35.9787 54.2612 35.995 54.2201 35.995L48.2151 36.005C48.1739 36.005 48.1345 35.9887 48.1055 35.9596C48.0764 35.9305 48.0601 35.8911 48.0601 35.85L48.0651 12.155C48.0651 12.1139 48.0814 12.0745 48.1105 12.0454C48.1395 12.0163 48.1789 12 48.2201 12H70.0951C70.1362 12 70.1756 12.0163 70.2047 12.0454C70.2337 12.0745 70.2501 12.1139 70.2501 12.155V35.845C70.2501 35.8861 70.2337 35.9255 70.2047 35.9546C70.1756 35.9837 70.1362 36 70.0951 36H64.0901C64.0489 36 64.0095 35.9837 63.9805 35.9546C63.9514 35.9255 63.9351 35.8861 63.9351 35.845L63.9401 17.525C63.9401 17.4839 63.9237 17.4445 63.8947 17.4154C63.8656 17.3863 63.8262 17.37 63.7851 17.37Z" fill="#2B2C84"/>
<path d="M118 27.32V29.51C117.335 34.39 113.51 36.055 109.09 36.02C105.217 35.99 101.488 35.9867 97.905 36.01C97.7183 36.0133 97.625 35.92 97.625 35.73V12.125C97.625 12.0918 97.6382 12.0601 97.6616 12.0366C97.6851 12.0132 97.7168 12 97.75 12H115.625C115.691 12 115.755 12.0263 115.802 12.0732C115.849 12.1201 115.875 12.1837 115.875 12.25V17.125C115.875 17.2917 115.792 17.375 115.625 17.375H104C103.967 17.375 103.935 17.3882 103.912 17.4116C103.888 17.4351 103.875 17.4668 103.875 17.5V20.87C103.875 20.9667 103.923 21.0133 104.02 21.01C109.325 20.92 116.815 20.07 118 27.32ZM103.865 26.295L103.875 30.715C103.875 30.7601 103.893 30.8033 103.925 30.8352C103.957 30.8671 104 30.885 104.045 30.885L109.08 30.88C109.776 30.8786 110.443 30.6339 110.935 30.1997C111.426 29.7656 111.701 29.1776 111.7 28.565V28.425C111.699 28.1216 111.631 27.8213 111.498 27.5413C111.366 27.2612 111.172 27.0069 110.928 26.7929C110.684 26.5788 110.394 26.4093 110.075 26.2938C109.756 26.1783 109.415 26.1193 109.07 26.12L104.035 26.125C104.013 26.125 103.991 26.1294 103.97 26.1379C103.949 26.1465 103.931 26.159 103.915 26.1748C103.899 26.1906 103.886 26.2093 103.878 26.2299C103.869 26.2506 103.865 26.2727 103.865 26.295Z" fill="#2B2C84"/>
</g>
<defs>
<clipPath id="clip0_3113_26577">
<rect width="118" height="36" fill="white" transform="translate(0 6)"/>
</clipPath>
</defs>
</svg>
