<svg width="158" height="42" viewBox="0 0 158 42" fill="none" xmlns="http://www.w3.org/2000/svg">
<g clip-path="url(#clip0_3696_10992)">
<path fill-rule="evenodd" clip-rule="evenodd" d="M41.2824 0.717651H0V42H41.2824V0.717651ZM40.0889 1.91074H1.19458V40.8059H40.0889V1.91074Z" fill="white"/>
<path fill-rule="evenodd" clip-rule="evenodd" d="M3.25835 32.9474L8.33206 38.1194L20.2196 26.0585L32.5048 38.3679L37.6527 33.27L25.4908 21.1099L27.8288 18.847V14.0226L29.2963 12.7794V16.559L31.1866 18.1007L36.8314 12.4559L38.6465 13.8483C39.7163 9.89447 33.5237 0.916935 28.4008 5.89055L22.4316 11.8088L23.6506 13.2763L20.6164 16.2355L17.6823 13.3505L19.224 11.9572L12.6836 5.6412C7.76008 1.58723 2.71139 7.75577 2.53711 13.7733L4.32725 12.2816L9.82281 18.2008L11.7872 16.5599V12.9287L13.0054 13.8483V18.5985L15.3925 20.9857L3.25835 32.9474Z" fill="white"/>
<path fill-rule="evenodd" clip-rule="evenodd" d="M51.8271 5.66626V9.24744H53.3688C55.4824 8.84973 54.9105 5.81551 53.3688 5.66626H51.8271ZM47.4505 2.1101V18.3251H51.8271V13.0529L55.5575 18.3251H60.7304L56.1304 11.8348C61.4526 9.24833 59.4631 2.18518 53.8675 2.111L47.4505 2.1101ZM67.6935 10.2171C69.136 10.2171 70.3041 11.3111 70.3041 12.6543C70.3041 13.9967 69.1351 15.0915 67.6935 15.0915C66.276 15.0915 65.107 13.9967 65.107 12.6543C65.107 11.3111 66.276 10.2171 67.6935 10.2171ZM66.773 6.63596C67.967 6.63596 69.0859 7.03367 70.0056 7.67984V7.05869H74.283L74.308 18.3242H69.9806L70.0056 17.628C69.0859 18.2741 67.967 18.6477 66.773 18.6477C63.5895 18.6477 60.9789 15.962 60.9789 12.6543C60.9789 9.34664 63.5904 6.63596 66.773 6.63596ZM76.5718 7.05869H81.1227V18.3242H76.5718V7.05869ZM78.8589 0.617572C80.178 0.617572 81.2469 1.7115 81.2469 3.02975C81.2469 4.34801 80.178 5.44193 78.8589 5.44193C77.5165 5.44193 76.4467 4.34711 76.4467 3.02975C76.4476 1.71239 77.5165 0.617572 78.8589 0.617572ZM113.402 7.05869H117.953V18.3242H113.402V7.05869ZM115.665 0.617572C117.009 0.617572 118.078 1.7115 118.078 3.02975C118.078 4.34801 117.009 5.44193 115.665 5.44193C114.347 5.44193 113.278 4.34711 113.278 3.02975C113.278 1.71239 114.347 0.617572 115.665 0.617572ZM81.9682 7.05869V10.6399H83.5349V18.3242H87.9374V10.6399H92.0655V18.3242H96.6164V10.5907H99.4513V7.10874H96.4913V4.59736C96.4171 3.67771 98.5808 3.30413 99.3271 4.05039V0.369115C95.1489 -0.949138 91.767 1.41389 91.7912 5.06925V7.05869H87.9115V4.59736C87.8614 3.67771 89.7526 3.30413 90.8456 4.05039V0.369115C87.2144 -0.699787 83.3356 1.06533 83.3606 5.04422V7.03367L81.9682 7.05869ZM105.942 18.6477C109.846 18.6227 111.288 17.0068 112.134 14.6438H108.18C106.389 16.9317 103.778 15.2658 103.903 13.4006H112.259C112.259 8.82471 109.821 6.66098 105.943 6.66098C102.064 6.66098 99.6265 9.39669 99.6265 12.7294C99.6265 16.0621 102.461 18.6727 105.942 18.6477ZM104.474 10.74C104.524 9.37167 107.508 9.37167 107.707 10.74H104.474ZM136.928 18.6477C140.857 18.6227 142.3 17.0068 143.145 14.6438H139.166C137.376 16.9317 134.764 15.2658 134.89 13.4006H143.246C143.246 8.82471 140.834 6.66098 136.929 6.66098C133.049 6.66098 130.613 9.39669 130.613 12.7294C130.613 16.0621 133.446 18.6727 136.928 18.6477ZM135.461 10.74C135.511 9.37167 138.495 9.37167 138.693 10.74H135.461ZM129.418 7.28302L128.075 10.0187C126.384 9.4959 124.742 9.596 124.792 10.0679C124.842 10.3664 124.569 10.8883 127.204 11.2619C131.133 11.8831 130.811 19.1947 124.22 18.6477C122.405 18.5235 120.938 18.0507 119.719 17.3294L121.187 14.3944C123.251 15.4142 125.24 16.0112 125.389 14.9914C125.563 13.7232 123.225 14.171 121.808 13.1012C119.272 11.5345 120.713 6.68511 124.867 6.63506C126.334 6.53675 127.851 6.78521 129.418 7.28302ZM144.986 7.05869V18.3242H149.239V11.4353C149.364 9.71933 152.745 9.42082 152.77 11.4353V18.3242H157.072V11.2619C156.973 7.30804 152.82 5.39278 149.064 7.90416V7.05869H144.986ZM49.9619 25.2131L47.127 41.9249H55.1598C60.6062 41.9249 62.8441 35.1612 58.9644 32.8482C62.2721 29.789 60.5812 25.1889 57.025 25.1389L49.9619 25.2131ZM53.2195 35.1853L52.6475 37.946H54.5127C56.6264 38.0452 56.378 35.1853 55.1598 35.1853H53.2195ZM54.1642 29.1919L53.6923 31.4307L54.2643 31.4549C55.9803 31.5541 56.975 29.1919 54.9105 29.1919H54.1642ZM60.7796 41.95H65.654L67.1215 39.0149H72.6421L73.4625 42H77.9634L74.0595 25.3123H69.4586L60.7796 41.95ZM68.7132 35.5088H71.7475L70.7778 31.1063L68.7132 35.5088ZM79.5059 42H84.0077L85.1507 31.5299L91.5919 41.95H96.4162L98.4307 25.2122H93.9299L92.6617 35.6822L86.2197 25.1621H81.5696L79.5059 42ZM101.664 25.163L98.5058 41.95H103.256L104.524 35.6822L108.777 41.95H115.018L108.926 33.1458L116.71 25.138H110.667L105.345 31.0563L106.19 25.138L101.664 25.163Z" fill="white"/>
</g>
<defs>
<clipPath id="clip0_3696_10992">
<rect width="157.071" height="42" fill="white"/>
</clipPath>
</defs>
</svg>
