<svg width="176" height="42" viewBox="0 0 176 42" fill="none" xmlns="http://www.w3.org/2000/svg">
<path d="M98.8764 0.800049L77.0645 3.64953V10.1043L98.8764 8.15781V0.800049Z" fill="#E4003A"/>
<path d="M14.2932 13.762C10.732 13.762 7.83758 15.959 7.11998 16.8685V14.2322H0.800781V41.1998H7.08038V31.6078C7.81758 32.5371 10.692 34.6945 14.2732 34.6945C20.216 34.6945 23.4888 31.4694 23.4888 24.2129C23.4888 16.9561 20.2204 13.762 14.2932 13.762ZM12.0436 29.4704C8.30198 29.4704 7.12438 28.1105 7.12438 24.1976C7.12438 20.2847 8.29318 18.9248 12.0436 18.9248C15.794 18.9248 16.9408 20.265 16.9408 24.1976C16.9408 28.1302 15.8116 29.4616 12.0436 29.4616V29.4704Z" fill="white"/>
<path d="M32.2306 24.3076C32.2306 28.2248 33.3994 29.5804 37.1498 29.5804C40.9002 29.5804 42.0494 28.2183 42.0494 24.3076C42.0494 20.3969 40.9178 19.0348 37.1498 19.0348C33.3814 19.0348 32.2306 20.3705 32.2306 24.3076ZM25.6406 24.2505C25.6406 17.0729 29.629 13.7885 37.1498 13.7885C44.6706 13.7885 48.6766 17.0729 48.6766 24.2505C48.6766 31.428 44.7146 34.8265 37.1498 34.8265C29.585 34.8265 25.6406 31.4277 25.6406 24.2505Z" fill="white"/>
<path d="M67.0121 26.7352C66.5189 28.807 65.1985 29.5803 62.3369 29.5803C58.5953 29.5803 57.4197 28.2182 57.4197 24.3075C57.4197 20.3968 58.5953 19.0347 62.3369 19.0347C65.1985 19.0347 66.5189 19.8058 67.0141 21.8908L73.6041 21.392C72.6201 16.2072 68.7617 13.7972 62.3369 13.7972C54.8161 13.7972 50.8301 17.0817 50.8301 24.2592C50.8301 31.4368 54.7917 34.8352 62.3369 34.8352C68.7573 34.8352 72.5761 32.3746 73.5841 27.2404L67.0121 26.7352Z" fill="white"/>
<path d="M94.7493 15.592L77.0665 3.65601V10.0952L82.5801 13.83L83.6649 14.4628C81.6841 14.4869 80.7353 14.889 79.7825 15.4646C77.0597 17.1057 75.6465 19.9926 75.6465 24.2526C75.6465 31.4302 79.6085 34.8286 87.1557 34.8286C94.7033 34.8286 98.6849 31.4299 98.6849 24.2526C98.6849 20.0982 97.3377 17.2572 94.7493 15.592ZM87.1557 29.58C83.4141 29.58 82.2365 28.2179 82.2365 24.3072C82.2365 20.3965 83.4053 19.0344 87.1557 19.0344C90.9065 19.0344 92.0553 20.3702 92.0553 24.3072C92.0553 28.2442 90.9261 29.58 87.1557 29.58Z" fill="white"/>
<path d="M100.857 24.2132C100.857 31.4632 104.126 34.6948 110.073 34.6948C113.652 34.6948 116.527 32.5374 117.264 31.608V34.0599H123.546V14.2191H117.227V16.8554C116.505 15.9591 113.61 13.7621 110.051 13.7621C104.124 13.7621 100.857 16.9762 100.857 24.2132ZM107.403 24.1846C107.403 20.2476 108.533 18.9118 112.303 18.9118C116.073 18.9118 117.22 20.252 117.22 24.1846C117.22 28.1172 116.051 29.4574 112.303 29.4574C108.555 29.4574 107.401 28.1019 107.401 24.1846H107.403Z" fill="white"/>
<path d="M141.893 14.2412V21.5636H133.556V14.2412H127.236V34.058H133.556V26.6344H141.893V34.058H148.214V14.2412H141.893Z" fill="white"/>
<path d="M174.96 34.0556L164.959 23.6508L174.423 14.2412H166.605L158.125 22.8488V14.2412H151.918V34.0556H158.125V24.9316L166.836 34.0556H174.96Z" fill="white"/>
</svg>
