<svg width="200" height="48" viewBox="0 0 200 48" fill="none" xmlns="http://www.w3.org/2000/svg">
<g clip-path="url(#clip0_3113_27737)">
<path d="M35.1537 23.9558C35.1537 28.604 33.3072 33.0619 30.0204 36.3487C26.7335 39.6356 22.2757 41.4821 17.6274 41.4821C12.9791 41.4821 8.52123 39.6356 5.23441 36.3487C1.94759 33.0619 0.101074 28.604 0.101074 23.9558C0.101074 19.3075 1.94759 14.8496 5.23441 11.5628C8.52123 8.27596 12.9791 6.42944 17.6274 6.42944C22.2757 6.42944 26.7335 8.27596 30.0204 11.5628C33.3072 14.8496 35.1537 19.3075 35.1537 23.9558ZM33.3095 23.9494C33.3095 21.89 32.9039 19.8508 32.1158 17.9482C31.3277 16.0455 30.1725 14.3167 28.7163 12.8605C27.2601 11.4043 25.5313 10.2492 23.6287 9.46107C21.726 8.67297 19.6868 8.26734 17.6274 8.26734C13.4682 8.26734 9.47943 9.91956 6.53847 12.8605C3.5975 15.8015 1.94528 19.7903 1.94528 23.9494C1.94528 28.1086 3.5975 32.0974 6.53847 35.0384C9.47943 37.9793 13.4682 39.6315 17.6274 39.6315C19.6868 39.6315 21.726 39.2259 23.6287 38.4378C25.5313 37.6497 27.2601 36.4946 28.7163 35.0384C30.1725 33.5821 31.3277 31.8534 32.1158 29.9507C32.9039 28.0481 33.3095 26.0088 33.3095 23.9494Z" fill="#393939"/>
<path d="M10.4084 29.8673C8.29891 28.4651 6.53681 26.6799 5.12207 24.5115C4.70844 23.8834 4.55451 23.1183 4.6926 22.3767L5.04628 20.5451C5.19365 19.7704 5.40418 19.7515 5.67786 20.4883C6.14944 21.7557 6.85891 22.922 7.80628 23.9873C8.03786 24.2483 8.10102 24.2125 7.99576 23.8799C7.33891 21.8146 6.85891 19.9009 6.73891 17.6462C6.70523 17.0188 6.8947 16.4673 7.30733 15.9915L8.39997 14.7283C8.86312 14.1936 9.02944 14.2736 8.89891 14.9683C8.67576 16.1641 8.6547 17.3578 8.83576 18.5494C8.91576 19.0757 9.00418 19.0778 9.10102 18.5557C9.49681 16.5051 10.2189 14.6799 11.2673 13.0799C11.8526 12.1915 12.8337 11.6441 14.2105 11.4378C14.4463 11.4041 14.4779 11.4673 14.3052 11.6273C13.7031 12.183 13.2021 12.8336 12.8021 13.5788C12.6 13.9451 12.6631 13.9978 12.9915 13.7367C15.2779 11.8967 18.2105 10.6167 21.7894 9.89673C22.1473 9.82094 22.2694 9.95778 22.1558 10.3073C22.0968 10.4967 22.0821 10.6904 22.1115 10.8883C22.1269 10.9887 22.1695 11.0824 22.2343 11.1584C22.2992 11.2344 22.3836 11.2897 22.4779 11.3178C24.7221 12.0167 25.9263 13.503 26.0905 15.7767C26.1073 16.0209 26.2189 16.2125 26.4252 16.3515L28.8126 17.9557C29.0063 18.0862 29.04 18.2483 28.9136 18.442L28.061 19.743C28.0023 19.8309 27.9236 19.9036 27.8314 19.9552C27.7392 20.0067 27.6361 20.0358 27.5305 20.0399C26.6589 20.0694 25.8021 19.9746 24.96 19.7557C24.7494 19.6967 24.5473 19.7304 24.3537 19.8567C24.1768 19.9662 24.1684 20.0904 24.3284 20.2294C24.8505 20.6757 25.381 20.9599 25.92 21.082C26.1431 21.1283 26.2421 21.2651 26.2168 21.4925L26.1663 21.9094C26.1158 22.3388 25.8842 22.4925 25.4715 22.3704C24.3979 22.0504 23.3326 21.7978 22.2758 21.6125C22.1158 21.583 21.9789 21.5094 21.8652 21.3915C21.8231 21.3451 21.8063 21.2862 21.8147 21.2146C21.8231 21.1136 21.7768 21.063 21.6758 21.063C19.7852 21.0883 17.9242 21.2336 16.0926 21.4988C15.2842 21.6167 14.7579 21.9873 14.5136 22.6104C14.4379 22.8125 14.2968 22.9409 14.0905 22.9957L12.0315 23.5704C11.6856 23.6657 11.3721 23.8522 11.1241 24.1102C10.8762 24.3682 10.7031 24.6879 10.6231 25.0357L10.3894 26.0336C10.2589 26.5894 10.4336 26.7136 10.9136 26.4062C12.2779 25.5346 13.7705 25.4125 15.3915 26.0399C15.4294 26.0567 15.4442 26.0841 15.4358 26.122L15.3852 26.3051C15.36 26.3978 15.3031 26.4273 15.2147 26.3936C14.5789 26.1578 13.9115 26.1641 13.2126 26.4125C13.0442 26.4715 13.0421 26.5346 13.2063 26.602C13.7621 26.8209 14.2926 26.8988 14.7979 26.8357C14.8863 26.823 14.9368 26.8609 14.9494 26.9494L14.9558 26.9557C14.9684 27.0441 14.9305 27.0967 14.8421 27.1136C13.7431 27.3157 13.1726 27.4209 13.1305 27.4294C10.8863 27.9767 10.9179 28.2883 13.2252 28.3641C15.5621 28.4399 19.1115 27.8841 17.4252 31.7051C17.2821 32.0294 17.3558 32.0925 17.6463 31.8946C17.9073 31.7178 18.1389 31.5073 18.341 31.263C18.5937 30.9641 18.7326 31.0104 18.7579 31.402C18.9852 34.4651 16.32 36.4167 13.4463 35.9367C11.96 35.6841 10.6358 35.0736 9.47365 34.1051C8.89681 33.6251 8.9747 33.4651 9.70733 33.6251C11.1979 33.9494 12.7579 33.8651 14.3873 33.3725C15.1579 33.1409 15.141 33.0251 14.3368 33.0251C12.0631 33.0209 9.79997 32.4673 7.54733 31.3641C6.06944 30.6441 5.59576 29.0778 5.12207 27.6378C5.00418 27.2715 5.09681 27.2062 5.39997 27.442C6.94523 28.6462 8.58523 29.5136 10.32 30.0441C10.7537 30.1746 10.7831 30.1157 10.4084 29.8673ZM21.101 11.0083C21.1027 10.9965 21.101 10.9845 21.0961 10.9737C21.0912 10.9628 21.0834 10.9535 21.0735 10.9469C21.0636 10.9403 21.052 10.9367 21.0402 10.9363C21.0283 10.936 21.0165 10.9391 21.0063 10.9451C20.3958 11.282 19.9768 11.7304 19.7494 12.2904C19.5979 12.6694 19.7052 12.7641 20.0715 12.5746C20.6652 12.2715 21.0084 11.7494 21.101 11.0083ZM17.4189 17.2988C17.6715 15.9767 18.2442 14.8778 19.1368 14.002C19.1958 13.943 19.1958 13.8841 19.1368 13.8251V13.8188C19.1031 13.7851 19.0652 13.783 19.0231 13.8125C17.5579 14.962 16.621 16.4399 16.2126 18.2462C16.1621 18.4694 16.2505 18.5978 16.4779 18.6315C16.5326 18.6399 16.5873 18.6357 16.6421 18.6188C16.9579 18.5051 17.101 18.6146 17.0715 18.9473L16.9515 20.2862C16.9179 20.6441 17.0821 20.823 17.4442 20.823H17.9684C18.2926 20.823 18.3831 20.6778 18.24 20.3873C17.84 19.5536 17.8652 18.7283 18.3158 17.9115C18.4673 17.6294 18.3831 17.4946 18.0631 17.5073C17.9831 17.5115 17.9073 17.5346 17.8358 17.5767C17.4779 17.8125 17.3389 17.7199 17.4189 17.2988ZM23.9684 15.3851C23.8547 15.3346 23.7389 15.3157 23.621 15.3283C23.3137 15.3494 23.2673 15.4673 23.4821 15.682L24.0694 16.282C24.2168 16.4294 24.3663 16.4315 24.5179 16.2883C24.6779 16.1325 24.8484 15.9999 25.0294 15.8904C25.1179 15.8357 25.1747 15.7599 25.2 15.663C25.2337 15.5451 25.2168 15.4399 25.1494 15.3473C25.061 15.2251 24.9473 15.1936 24.8084 15.2525L24.5115 15.3851C24.3305 15.4651 24.1494 15.4651 23.9684 15.3851Z" fill="#393939"/>
<path d="M103.768 12.48C104.004 12.261 104.084 11.9873 104.008 11.6589C103.999 11.6156 104 11.5704 104.014 11.528C104.027 11.4856 104.051 11.4474 104.084 11.4173C104.116 11.3872 104.156 11.3662 104.2 11.3566C104.243 11.3469 104.288 11.3488 104.331 11.3621C104.794 11.5179 105.019 11.8694 105.006 12.4168C105.003 12.5758 104.954 12.7306 104.865 12.8635C104.777 12.9964 104.653 13.1021 104.507 13.1684C103.686 13.5347 101.703 13.68 101.438 12.5052C101.316 11.9663 101.528 11.5873 102.076 11.3684C102.131 11.3469 102.191 11.3414 102.249 11.3525C102.307 11.3635 102.361 11.3906 102.405 11.4308C102.448 11.471 102.479 11.5225 102.495 11.5796C102.511 11.6367 102.51 11.697 102.493 11.7536C102.354 12.2168 102.52 12.5179 102.992 12.6568C103.127 12.6956 103.269 12.6998 103.405 12.6688C103.541 12.6379 103.666 12.5729 103.768 12.48Z" fill="#1A1A14"/>
<path d="M42.6253 20.501C42.478 21.5073 42.5348 22.4273 42.7958 23.261C42.8843 23.5389 42.7832 23.68 42.4927 23.6842H40.4022C40.1916 23.6842 40.0927 23.5789 40.1053 23.3684C40.3201 19.8905 40.3327 16.4252 40.1432 12.9726C40.1306 12.7368 40.2422 12.6231 40.4779 12.6315C43.0611 12.7389 48.398 12.0379 48.5369 16.08C48.6632 19.6231 45.7832 20.3494 42.9537 20.2357C42.7643 20.2273 42.6548 20.3157 42.6253 20.501ZM42.6001 14.1663L42.5748 18.701C42.5748 18.7513 42.5948 18.7995 42.6303 18.835C42.6658 18.8705 42.714 18.8905 42.7643 18.8905L43.7874 18.8968C44.0966 18.8986 44.403 18.843 44.6892 18.7335C44.9754 18.6239 45.2357 18.4623 45.4551 18.2582C45.6745 18.054 45.8488 17.8111 45.968 17.5436C46.0872 17.276 46.1489 16.989 46.1495 16.6989V16.1936C46.1509 15.6103 45.9057 15.05 45.4677 14.6356C45.0296 14.2213 44.4345 13.9866 43.8127 13.9831L42.7895 13.9768C42.7393 13.9768 42.6911 13.9968 42.6556 14.0323C42.62 14.0678 42.6001 14.116 42.6001 14.1663Z" fill="#393939"/>
<path d="M123.297 12.8211L122.444 14.6085C122.347 14.8106 122.204 14.8506 122.015 14.7285C117.202 11.6211 114.619 17.0274 116.501 20.8864C117.638 23.2169 120.859 22.7053 122.533 21.1642C122.562 21.136 122.598 21.1159 122.638 21.1059C122.677 21.0959 122.719 21.0963 122.758 21.107C122.798 21.1178 122.835 21.1385 122.865 21.1673C122.895 21.1961 122.918 21.232 122.931 21.2716L123.101 21.7706C123.164 21.9685 123.118 22.1327 122.962 22.2632C119.488 25.2316 113.217 23.7853 113.419 18.3095C113.571 14.4506 116.589 12.0253 120.398 12.7011C121.299 12.8611 122.232 12.8569 123.196 12.6885C123.318 12.6674 123.352 12.7116 123.297 12.8211Z" fill="#1A1A14"/>
<path d="M192.549 13.32C192.688 12.8652 192.992 12.8147 193.459 13.1684C193.525 13.2189 193.579 13.2839 193.615 13.3584C193.652 13.4328 193.672 13.5145 193.672 13.5972C193.672 13.6799 193.652 13.7612 193.615 13.8348C193.579 13.9083 193.525 13.9721 193.459 14.021C193.059 14.3242 192.6 14.4189 192.082 14.3052C191.754 14.2336 191.684 14.0589 191.874 13.781C191.937 13.6842 192.027 13.6336 192.145 13.6294C192.356 13.621 192.49 13.5179 192.549 13.32Z" fill="#1A1A14"/>
<path d="M66.48 15.979C66.4715 16.0019 66.4577 16.0223 66.4397 16.0387C66.4216 16.055 66.3999 16.0668 66.3764 16.073C66.3528 16.0792 66.3281 16.0796 66.3044 16.0743C66.2807 16.0689 66.2585 16.0579 66.24 16.0422C65.0231 15.0527 63.8105 14.9138 62.6021 15.6254C60.7452 16.7243 60.4989 21.2022 62.6336 22.2127C63.9431 22.8317 65.2231 22.5875 66.4736 21.4801C66.6757 21.299 66.8484 21.3222 66.9915 21.5496L67.0989 21.7201C67.1871 21.8603 67.2167 22.0296 67.1813 22.1915C67.1458 22.3534 67.0482 22.4948 66.9094 22.5854C62.88 25.219 58.1494 23.3622 58.9073 18.139C59.2989 15.4169 61.8884 13.5411 64.7431 14.1475C65.4463 14.299 66.1284 14.3306 66.7894 14.2422C67.0589 14.2043 67.1431 14.3117 67.0421 14.5643L66.48 15.979Z" fill="#393939"/>
<path d="M76.0737 14.3683L75.4737 15.8146C75.3684 16.0757 75.2042 16.1199 74.981 15.9473C72.8526 14.2546 70.6231 15.4673 70.181 17.981C69.8337 19.9641 70.421 22.5852 72.9158 22.5409C73.8631 22.5199 74.6547 22.1683 75.2905 21.4862C75.3302 21.4427 75.3784 21.408 75.4323 21.3843C75.4861 21.3605 75.5443 21.3482 75.6031 21.3482C75.662 21.3482 75.7202 21.3605 75.774 21.3843C75.8278 21.408 75.8761 21.4427 75.9158 21.4862L76.0926 21.682C76.2989 21.9052 76.2905 22.1178 76.0673 22.3199C73.7873 24.4357 69.4989 24.4988 68.1789 21.2336C66.5431 17.1788 69.5558 13.2757 74.0274 14.1915C74.68 14.3262 75.3263 14.3388 75.9663 14.2294C76.0842 14.2125 76.12 14.2588 76.0737 14.3683Z" fill="#393939"/>
<path d="M54.4231 20.4127C54.429 20.4237 54.4378 20.4325 54.4487 20.4385C54.4596 20.4445 54.4721 20.4473 54.4849 20.4466C54.4978 20.446 54.5105 20.4419 54.5218 20.4348C54.5332 20.4278 54.5427 20.418 54.5494 20.4064C55.4168 18.5243 56.1052 16.5138 56.6147 14.3748C56.64 14.2654 56.7094 14.2106 56.8231 14.2106L58.421 14.2169C58.5473 14.2212 58.5852 14.2801 58.5347 14.3938C57.4652 16.7727 56.4442 19.3727 55.4715 22.1938C54.4547 25.1433 52.5473 27.3475 49.1936 25.358C49.0252 25.2527 48.9768 25.1075 49.0484 24.9222L49.3579 24.1517C49.3734 24.1124 49.3986 24.0776 49.4311 24.0506C49.4636 24.0235 49.5024 24.0051 49.5439 23.9969C49.5854 23.9887 49.6282 23.9911 49.6685 24.0038C49.7089 24.0165 49.7454 24.0391 49.7747 24.0696C50.9115 25.2317 52.5221 25.3201 53.2357 23.6717C53.3368 23.4485 53.3347 23.2254 53.2294 23.0022L49.2505 14.2864C49.2294 14.2401 49.2442 14.2169 49.2947 14.2169L51.821 14.2106C51.9726 14.2064 52.0673 14.278 52.1052 14.4254C52.6736 16.539 53.4463 18.5348 54.4231 20.4127Z" fill="#393939"/>
<path d="M80.3115 18.3725C81.7221 17.0967 82.9284 15.7473 83.9305 14.3241C83.9936 14.2357 84.0779 14.1936 84.1831 14.1978L86.4063 14.261C86.4177 14.2618 86.4286 14.266 86.4376 14.2731C86.4465 14.2802 86.4531 14.2898 86.4566 14.3007C86.46 14.3116 86.46 14.3233 86.4567 14.3342C86.4533 14.3452 86.4468 14.3549 86.4379 14.362C85.0021 15.6167 83.6526 16.901 82.3894 18.2146C82.2842 18.3241 82.2758 18.4399 82.3642 18.562C83.6694 20.3936 85.1094 22.0546 86.6842 23.5452C86.694 23.5532 86.7009 23.5639 86.7039 23.576C86.707 23.5881 86.7061 23.601 86.7014 23.6131C86.6967 23.6253 86.6883 23.6361 86.6774 23.6442C86.6665 23.6524 86.6534 23.6574 86.64 23.6588L83.5515 23.6904C83.4631 23.6904 83.3979 23.6525 83.3557 23.5767C82.5473 22.1494 81.5031 20.7641 80.2231 19.421C79.9368 19.122 79.8042 19.1789 79.8252 19.5915L80.0526 23.602C80.0526 23.6204 80.0453 23.6381 80.0322 23.6511C80.0192 23.6642 80.0015 23.6715 79.9831 23.6715L77.6589 23.6904C77.5368 23.6904 77.4821 23.6294 77.4947 23.5073C77.76 20.4673 77.7642 17.4146 77.5073 14.3494C77.4989 14.261 77.5368 14.2167 77.621 14.2167C78.3831 14.2041 79.1473 14.2062 79.9136 14.2231C79.9726 14.2231 80.0021 14.2546 80.0021 14.3178L79.8568 18.1578C79.84 18.5915 79.9915 18.6631 80.3115 18.3725Z" fill="#393939"/>
<path d="M94.1622 18.183C94.1588 18.15 94.146 18.1184 94.1255 18.0922C94.105 18.066 94.0775 18.0463 94.0466 18.0355C94.0157 18.0247 93.9826 18.0234 93.9515 18.0317C93.9204 18.0399 93.8926 18.0574 93.8716 18.082L90.4422 21.7894C90.355 21.8825 90.289 21.9938 90.2487 22.1159C90.2083 22.238 90.1946 22.3679 90.2085 22.4967C90.2337 22.7662 90.3053 23.023 90.4232 23.2673C90.5622 23.5452 90.4758 23.6841 90.1643 23.6841H88.2127C87.9432 23.6799 87.819 23.543 87.8401 23.2736C88.0422 20.4062 88.0422 17.4378 87.8401 14.3683C87.8316 14.2715 87.8758 14.223 87.9727 14.223L90.1516 14.2041C90.2527 14.2041 90.3032 14.2546 90.3032 14.3557L90.1516 19.6799C90.1512 19.7218 90.1634 19.7629 90.1867 19.7978C90.2099 19.8327 90.2432 19.8597 90.2821 19.8754C90.3209 19.8911 90.3636 19.8947 90.4046 19.8857C90.4456 19.8768 90.4829 19.8556 90.5116 19.8252L93.9601 16.0925C94.1327 15.9115 94.2211 15.6967 94.2253 15.4483C94.2337 15.1746 94.1664 14.9073 94.0232 14.6462C93.8632 14.3599 93.9474 14.2146 94.2758 14.2104H96.3032C96.5137 14.2104 96.6106 14.3157 96.5937 14.5262C96.3537 17.6252 96.3664 20.6231 96.6316 23.5199C96.6443 23.6294 96.5937 23.6841 96.4801 23.6841L94.1495 23.6778C94.0443 23.6778 94.0001 23.6273 94.0169 23.5262C94.2864 21.7788 94.3348 19.9978 94.1622 18.183Z" fill="#1A1A14"/>
<path d="M104.899 17.9937L101.109 22.1242C101.087 22.1495 101.071 22.1805 101.065 22.2138C101.058 22.2471 101.06 22.2816 101.072 22.3137L101.463 23.4127C101.473 23.4411 101.476 23.4715 101.472 23.5014C101.468 23.5313 101.457 23.5598 101.44 23.5845C101.422 23.6092 101.399 23.6294 101.373 23.6435C101.346 23.6575 101.316 23.665 101.286 23.6653L99.0947 23.7095C99.0693 23.7104 99.044 23.7061 99.0203 23.6969C98.9965 23.6878 98.9749 23.674 98.9566 23.6563C98.9384 23.6386 98.9238 23.6174 98.9139 23.594C98.904 23.5706 98.8989 23.5455 98.8989 23.52V14.3874C98.8989 14.3372 98.9189 14.289 98.9544 14.2534C98.99 14.2179 99.0381 14.1979 99.0884 14.1979H101.084C101.11 14.1979 101.135 14.203 101.158 14.2129C101.182 14.2229 101.203 14.2374 101.22 14.2556C101.238 14.2739 101.252 14.2956 101.261 14.3193C101.27 14.343 101.275 14.3683 101.274 14.3937L101.122 19.699C101.121 19.7374 101.132 19.7751 101.153 19.8072C101.175 19.8393 101.205 19.8641 101.241 19.8785C101.276 19.8929 101.315 19.8961 101.353 19.8878C101.39 19.8794 101.424 19.8598 101.451 19.8316L105.196 15.7769C105.217 15.7535 105.233 15.725 105.241 15.6941C105.248 15.6632 105.248 15.6309 105.24 15.6L104.918 14.4569C104.91 14.4287 104.909 14.3991 104.914 14.3704C104.92 14.3417 104.932 14.3147 104.95 14.2914C104.968 14.2682 104.99 14.2493 105.017 14.2364C105.043 14.2235 105.072 14.2168 105.101 14.2169L107.248 14.1853C107.299 14.1853 107.347 14.2053 107.382 14.2408C107.418 14.2763 107.438 14.3245 107.438 14.3748L107.444 23.52C107.444 23.5703 107.424 23.6185 107.389 23.654C107.353 23.6896 107.305 23.7095 107.255 23.7095L105.227 23.6906C105.202 23.6906 105.177 23.6855 105.153 23.6756C105.13 23.6657 105.109 23.6511 105.091 23.6329C105.073 23.6146 105.06 23.5929 105.05 23.5692C105.041 23.5455 105.037 23.5202 105.038 23.4948L105.227 18.1264C105.228 18.0879 105.217 18.0502 105.196 18.0181C105.175 17.9861 105.144 17.9612 105.109 17.9468C105.073 17.9324 105.034 17.9292 104.997 17.9376C104.959 17.946 104.925 17.9655 104.899 17.9937Z" fill="#1A1A14"/>
<path d="M126.297 15.4862C125.341 15.3683 124.427 15.4504 123.556 15.7326C123.312 15.8126 123.236 15.7305 123.328 15.4862L123.72 14.4757C123.751 14.3973 123.805 14.33 123.874 14.2828C123.942 14.2355 124.023 14.2103 124.105 14.2105H131.987C132.345 14.2105 132.421 14.3557 132.215 14.6462C132.042 14.882 131.92 15.1473 131.848 15.442C131.777 15.7115 131.608 15.7999 131.343 15.7073C130.648 15.4547 129.895 15.3789 129.082 15.4799C128.867 15.5094 128.762 15.6315 128.766 15.8462L128.924 23.621C128.924 23.6631 128.903 23.6841 128.861 23.6841L126.638 23.6778C126.545 23.6778 126.501 23.6315 126.505 23.5389L126.632 15.8715C126.636 15.6441 126.524 15.5157 126.297 15.4862Z" fill="#1A1A14"/>
<path d="M137.255 21.5241H134.192C133.888 21.5241 133.68 21.663 133.566 21.9409C133.39 22.3662 133.324 22.802 133.371 23.2483C133.404 23.543 133.272 23.6904 132.973 23.6904L131.691 23.6715C131.4 23.6673 131.32 23.5367 131.451 23.2799C132.63 20.9262 133.806 18.303 134.981 15.4104C135.065 15.2083 135.036 15.0209 134.893 14.8483L134.703 14.6146C134.493 14.3578 134.554 14.2294 134.886 14.2294L136.825 14.2041C137.011 14.2041 137.139 14.2883 137.211 14.4567L141.114 23.4062C141.194 23.5915 141.135 23.6841 140.937 23.6841H138.6C138.544 23.6839 138.489 23.6716 138.438 23.6481C138.388 23.6245 138.343 23.5902 138.307 23.5475C138.271 23.5049 138.245 23.4549 138.23 23.401C138.215 23.3472 138.212 23.2908 138.221 23.2357C138.301 22.7978 138.221 22.3683 137.981 21.9473C137.821 21.6652 137.579 21.5241 137.255 21.5241ZM134.35 20.0967C134.337 20.1262 134.332 20.1583 134.335 20.1901C134.338 20.2219 134.349 20.2526 134.366 20.2794C134.383 20.3062 134.407 20.3283 134.435 20.3438C134.463 20.3593 134.494 20.3677 134.526 20.3683L137.078 20.3873C137.11 20.3873 137.141 20.3796 137.169 20.3649C137.197 20.3501 137.221 20.3288 137.239 20.3027C137.257 20.2766 137.269 20.2465 137.272 20.2151C137.276 20.1836 137.272 20.1516 137.261 20.122L136.017 16.9009C136.003 16.8637 135.978 16.8317 135.945 16.8091C135.912 16.7865 135.874 16.7743 135.834 16.7743C135.794 16.7743 135.755 16.7865 135.722 16.8091C135.69 16.8317 135.665 16.8637 135.651 16.9009L134.35 20.0967Z" fill="#1A1A14"/>
<path d="M148.472 19.402H145.383C145.105 19.402 144.954 19.541 144.928 19.8189C144.806 21.0736 144.865 22.242 145.105 23.3241C145.156 23.5599 145.061 23.6778 144.821 23.6778L142.857 23.6841C142.6 23.6883 142.482 23.5599 142.503 23.2989C142.764 20.2799 142.768 17.3178 142.516 14.4126C142.503 14.2778 142.564 14.2104 142.699 14.2104L144.916 14.2168C144.93 14.2167 144.945 14.2197 144.958 14.2255C144.972 14.2313 144.984 14.2398 144.994 14.2504C145.004 14.2611 145.012 14.2737 145.017 14.2874C145.022 14.3012 145.024 14.3158 145.023 14.3304L144.853 17.7789C144.84 18.0189 144.956 18.1389 145.2 18.1389L148.453 18.1452C148.714 18.1452 148.855 18.0147 148.876 17.7536C148.981 16.6252 148.928 15.5662 148.718 14.5768C148.663 14.3326 148.762 14.2104 149.015 14.2104H150.954C151.189 14.2104 151.297 14.3283 151.276 14.5641C151.019 17.621 151.023 20.5978 151.288 23.4947C151.301 23.621 151.244 23.6841 151.118 23.6841L148.768 23.6778C148.659 23.6778 148.619 23.6252 148.648 23.5199C148.922 22.4673 149 21.221 148.882 19.781C148.861 19.5283 148.724 19.402 148.472 19.402Z" fill="#1A1A14"/>
<path d="M161.457 22.5726C162.025 22.8715 162.261 23.3852 162.164 24.1136C162.114 24.4968 161.939 24.5662 161.64 24.322C160.314 23.2483 156.41 23.6778 154.693 23.6841C153.941 23.6904 153.284 23.9683 152.672 24.3789C152.423 24.5473 152.276 24.482 152.229 24.1831C152.116 23.4336 152.362 22.8862 152.968 22.541C153.739 22.0947 154.156 21.3873 154.219 20.4189C154.345 18.3347 154.322 16.3726 154.149 14.5326C154.128 14.3178 154.225 14.2104 154.44 14.2104H160.768C161.021 14.2104 161.133 14.3368 161.103 14.5894C160.85 16.9262 160.825 19.3683 161.027 21.9157C161.048 22.2105 161.192 22.4294 161.457 22.5726ZM155.653 22.3704L158.501 22.4715C158.523 22.4724 158.545 22.4687 158.566 22.4609C158.586 22.453 158.605 22.441 158.621 22.4257C158.637 22.4104 158.65 22.392 158.658 22.3716C158.667 22.3513 158.672 22.3294 158.672 22.3073L158.678 22.1873C158.709 21.2891 158.73 20.3996 158.739 19.57C158.749 18.7405 158.746 17.9874 158.732 17.3544C158.718 16.7213 158.693 16.2208 158.657 15.8817C158.622 15.5426 158.577 15.3717 158.526 15.3789L156.12 15.2968C156.069 15.2883 156.013 15.4573 155.954 15.7942C155.895 16.1311 155.835 16.6292 155.777 17.2597C155.719 17.8902 155.664 18.6408 155.616 19.468C155.567 20.2953 155.526 21.183 155.495 22.0799L155.488 22.1999C155.488 22.222 155.491 22.244 155.499 22.2647C155.507 22.2854 155.519 22.3042 155.534 22.3201C155.55 22.3361 155.568 22.3487 155.588 22.3574C155.609 22.366 155.63 22.3705 155.653 22.3704Z" fill="#1A1A14"/>
<path d="M165.24 21.7578C165 22.1831 164.893 22.6567 164.918 23.1788C164.931 23.5157 164.768 23.6841 164.432 23.6841H163.257C162.962 23.6799 162.88 23.5473 163.011 23.2862C164.269 20.7557 165.436 18.122 166.509 15.3852C166.594 15.1788 166.566 14.9873 166.427 14.8104L166.276 14.6209C166.069 14.3557 166.135 14.2209 166.472 14.2167L168.392 14.2041C168.577 14.2041 168.705 14.2883 168.777 14.4567L172.648 23.362C172.741 23.5767 172.669 23.6841 172.434 23.6841H170.173C169.857 23.6841 169.72 23.5283 169.762 23.2167C169.821 22.7494 169.735 22.2988 169.503 21.8652C169.446 21.7603 169.362 21.6727 169.261 21.6116C169.16 21.5505 169.045 21.5181 168.928 21.5178L165.638 21.5241C165.457 21.5241 165.324 21.602 165.24 21.7578ZM165.903 20.103C165.891 20.133 165.886 20.1656 165.889 20.198C165.892 20.2303 165.903 20.2614 165.921 20.2883C165.94 20.3153 165.964 20.3373 165.993 20.3523C166.022 20.3674 166.054 20.3751 166.086 20.3746L168.619 20.3873C168.651 20.3883 168.683 20.3814 168.712 20.3671C168.741 20.3528 168.766 20.3316 168.785 20.3054C168.803 20.2791 168.815 20.2487 168.82 20.2167C168.824 20.1847 168.82 20.1521 168.808 20.122L167.558 16.9009C167.543 16.8657 167.518 16.8357 167.486 16.8145C167.454 16.7934 167.416 16.7822 167.378 16.7822C167.34 16.7822 167.302 16.7934 167.27 16.8145C167.238 16.8357 167.213 16.8657 167.198 16.9009L165.903 20.103Z" fill="#1A1A14"/>
<path d="M176.293 21.1199C176.221 21.8989 176.284 22.6378 176.482 23.3368C176.55 23.5683 176.461 23.6841 176.217 23.6841L174.145 23.6778C173.926 23.6778 173.827 23.5683 173.848 23.3494C174.16 20.4399 174.164 17.5031 173.861 14.5389C173.84 14.3326 173.933 14.2231 174.139 14.2104C175.861 14.1347 177.51 14.1978 179.084 14.3999C180.973 14.6399 182.072 16.4147 181.547 18.221C180.928 20.362 178.667 20.8041 176.659 20.7915C176.432 20.7873 176.31 20.8968 176.293 21.1199ZM176.299 15.5873L176.274 19.3641C176.273 19.3987 176.279 19.433 176.292 19.4652C176.304 19.4973 176.323 19.5266 176.347 19.5513C176.371 19.5761 176.4 19.5957 176.432 19.6091C176.464 19.6225 176.498 19.6294 176.533 19.6294H177.366C177.9 19.6329 178.413 19.4348 178.793 19.0785C179.173 18.7221 179.389 18.2366 179.394 17.7283V17.2736C179.396 17.021 179.346 16.7704 179.247 16.5361C179.148 16.3018 179.001 16.0885 178.815 15.9084C178.629 15.7283 178.407 15.5849 178.163 15.4864C177.919 15.388 177.657 15.3364 177.392 15.3347H176.558C176.49 15.3346 176.425 15.3611 176.377 15.4083C176.329 15.4555 176.301 15.5197 176.299 15.5873Z" fill="#1A1A14"/>
<path d="M187.541 15.7768L187.648 23.5704C187.648 23.6462 187.613 23.682 187.541 23.6778L185.337 23.6652C185.227 23.6652 185.177 23.6104 185.185 23.501C185.413 21.0252 185.459 18.4778 185.324 15.8589C185.312 15.6147 185.183 15.482 184.939 15.461C183.895 15.381 182.973 15.4736 182.173 15.7389C182.038 15.7852 181.996 15.741 182.046 15.6062L182.482 14.482C182.554 14.301 182.684 14.2104 182.874 14.2104H190.737C191.027 14.2147 191.103 14.3452 190.964 14.602L190.592 15.3094C190.491 15.4989 190.333 15.5873 190.118 15.5747L187.907 15.4294C187.659 15.4126 187.537 15.5283 187.541 15.7768Z" fill="#393939"/>
<path d="M28.9011 23.2168L30.3663 23.741C30.5895 23.821 30.6905 23.9789 30.6695 24.2147L30.6253 24.7073C30.6084 24.9221 30.5074 24.9747 30.3221 24.8652L27.2463 23.0716C26.9053 22.8737 26.9305 22.7516 27.3221 22.7052C27.6632 22.6673 27.9979 22.5979 28.3263 22.4968C28.6505 22.3916 28.7621 22.5031 28.6611 22.8316C28.6442 22.8863 28.6463 22.9389 28.6674 22.9895C28.7095 23.1031 28.7874 23.1789 28.9011 23.2168Z" fill="#393939"/>
<path d="M15.8653 23.5327C15.7179 23.6169 15.5558 23.6632 15.379 23.6716C15.0969 23.6927 14.9664 23.5622 14.9874 23.2801C14.9958 23.1748 15.0169 23.0738 15.0506 22.9769C15.1264 22.7832 15.2674 22.6801 15.4737 22.6674L18.1516 22.5538C18.4295 22.5411 18.459 22.6232 18.2401 22.8001L16.939 23.8611C16.3116 24.3664 16.3979 24.6569 17.1979 24.7327C19.1243 24.9032 20.9369 25.6485 22.3832 26.9053C23.0948 27.5243 23.8064 27.9959 24.5179 28.3201C24.8758 28.4843 24.8611 28.6022 24.4737 28.6738L24.1895 28.7243C23.8906 28.779 23.8569 28.9053 24.0885 29.1032C25.2085 30.059 26.0948 31.2822 26.7474 32.7727C26.8569 33.0253 26.8064 33.2401 26.5958 33.4169L25.3327 34.478C25.0674 34.7011 24.9285 34.6401 24.9158 34.2948C24.7579 29.438 21.0001 26.0085 16.4211 24.9032C16.1137 24.8274 16.0064 24.6401 16.099 24.3411L16.2506 23.8422C16.3811 23.4169 16.2527 23.3138 15.8653 23.5327Z" fill="#393939"/>
<path d="M24.2464 25.3642C26.2358 25.9263 27.9537 26.9179 29.5516 28.2C29.7832 28.3895 29.8337 28.619 29.7032 28.8884L28.9769 30.3979C28.9594 30.4343 28.9322 30.4651 28.8983 30.4872C28.8645 30.5092 28.8253 30.5215 28.7849 30.5228C28.7446 30.5241 28.7046 30.5143 28.6695 30.4945C28.6343 30.4748 28.6052 30.4457 28.5853 30.4105C27.4653 28.3558 25.9811 26.76 24.1327 25.6232C23.5432 25.2611 23.5811 25.1748 24.2464 25.3642Z" fill="#393939"/>
<path d="M42.6695 29.5452C42.5727 29.5536 42.5243 29.6083 42.5243 29.7094L42.5306 31.9957C42.5348 32.1178 42.5979 32.1747 42.7201 32.1662C45.4653 31.981 46.9601 32.7599 47.2043 34.5031C47.7285 38.261 42.9727 37.9704 40.4779 37.8504C40.2674 37.842 40.1685 37.7325 40.1811 37.522C40.3706 34.6673 40.3664 31.7199 40.1685 28.6799C40.1558 28.4736 40.2506 28.3704 40.4527 28.3704L46.4337 28.3641C46.6779 28.3599 46.7579 28.4757 46.6737 28.7115L46.3832 29.501C46.2948 29.7452 46.1264 29.8336 45.8779 29.7662C44.9095 29.501 43.8401 29.4273 42.6695 29.5452ZM42.5053 33.4357L42.5369 36.4547C42.5369 36.487 42.5433 36.519 42.5556 36.5489C42.568 36.5788 42.5862 36.606 42.609 36.6288C42.6319 36.6517 42.6591 36.6698 42.6889 36.6822C42.7188 36.6946 42.7509 36.701 42.7832 36.701L43.2758 36.6947C43.7728 36.689 44.2475 36.5149 44.5957 36.2105C44.9438 35.9062 45.137 35.4965 45.1327 35.0715V34.7683C45.1306 34.5574 45.0799 34.3491 44.9835 34.1553C44.8871 33.9614 44.7469 33.7858 44.571 33.6386C44.395 33.4914 44.1867 33.3753 43.9579 33.2972C43.7292 33.219 43.4845 33.1802 43.2379 33.1831L42.7453 33.1894C42.6811 33.191 42.62 33.2177 42.5752 33.2637C42.5304 33.3097 42.5053 33.3715 42.5053 33.4357Z" fill="#393939"/>
<path d="M54.1579 35.8233H50.6905C50.5944 35.8234 50.5008 35.8509 50.4211 35.9026C50.3414 35.9542 50.2792 36.0276 50.2421 36.1138C50.0526 36.5601 49.9768 37.0233 50.0147 37.5033C50.04 37.8148 49.8989 37.939 49.5915 37.8759C49.1789 37.7875 48.7789 37.7896 48.3915 37.8822C48.0589 37.958 47.9663 37.8422 48.1136 37.5348C49.2968 35.1054 50.4442 32.5369 51.5557 29.8296C51.72 29.4212 51.6779 29.0527 51.4294 28.7243C51.2315 28.4633 51.2968 28.3369 51.6252 28.3454L53.4189 28.3833C53.6631 28.3875 53.8315 28.5012 53.9242 28.7243L57.7136 37.4717C57.8231 37.7243 57.741 37.8485 57.4673 37.8443L55.2315 37.8317C54.9831 37.8275 54.8757 37.7033 54.9094 37.4591C54.9642 37.0212 54.8884 36.5875 54.6821 36.158C54.5768 35.9348 54.4021 35.8233 54.1579 35.8233ZM52.4021 30.9348L51.0252 34.2569C50.9073 34.5433 51.0021 34.6864 51.3094 34.6864L53.5515 34.6801C53.8968 34.6801 54.0063 34.5201 53.88 34.2001L52.6042 30.9348C52.5368 30.7706 52.4694 30.7706 52.4021 30.9348Z" fill="#393939"/>
<path d="M61.9136 32.261L65.6589 32.2547C65.6874 32.2547 65.7155 32.249 65.7417 32.2377C65.7678 32.2265 65.7914 32.21 65.8109 32.1892C65.8305 32.1685 65.8455 32.144 65.8552 32.1173C65.8649 32.0905 65.869 32.0621 65.8673 32.0336L65.6652 28.5789C65.6635 28.551 65.6674 28.5231 65.6767 28.4967C65.6861 28.4704 65.7006 28.4462 65.7194 28.4255C65.7383 28.4049 65.7611 28.3883 65.7865 28.3767C65.8119 28.365 65.8394 28.3586 65.8673 28.3578L67.8821 28.3263C67.91 28.3254 67.9377 28.3302 67.9638 28.3403C67.9898 28.3504 68.0135 28.3656 68.0335 28.385C68.0536 28.4045 68.0695 28.4277 68.0804 28.4534C68.0912 28.4792 68.0968 28.5068 68.0968 28.5347L68.0589 37.6484C68.0589 37.7037 68.0369 37.7567 67.9979 37.7958C67.9588 37.8348 67.9058 37.8568 67.8505 37.8568L65.8736 37.8694C65.8452 37.8695 65.817 37.8637 65.7908 37.8524C65.7647 37.8412 65.7411 37.8247 65.7216 37.804C65.7021 37.7833 65.687 37.7588 65.6773 37.732C65.6676 37.7053 65.6635 37.6768 65.6652 37.6484L65.8547 33.7578C65.8564 33.7294 65.8523 33.701 65.8426 33.6742C65.8329 33.6474 65.8178 33.6229 65.7983 33.6022C65.7788 33.5815 65.7552 33.565 65.7291 33.5538C65.7029 33.5425 65.6747 33.5367 65.6463 33.5368L61.92 33.5305C61.8915 33.5304 61.8633 33.5362 61.8372 33.5475C61.811 33.5587 61.7875 33.5752 61.7679 33.5959C61.7484 33.6166 61.7333 33.6411 61.7236 33.6679C61.7139 33.6947 61.7098 33.7231 61.7115 33.7515L61.9136 37.6294C61.9145 37.6568 61.9099 37.6841 61.9002 37.7097C61.8905 37.7353 61.8759 37.7587 61.8571 37.7787C61.8383 37.7986 61.8158 37.8147 61.7908 37.8259C61.7659 37.8371 61.7389 37.8433 61.7115 37.8442L59.7221 37.8694C59.6668 37.8694 59.6138 37.8475 59.5747 37.8084C59.5356 37.7693 59.5136 37.7163 59.5136 37.661L59.5073 28.541C59.5073 28.4857 59.5293 28.4327 59.5684 28.3936C59.6075 28.3545 59.6605 28.3326 59.7157 28.3326L61.7305 28.3452C61.7589 28.3452 61.7871 28.3509 61.8133 28.3622C61.8394 28.3735 61.863 28.3899 61.8825 28.4107C61.902 28.4314 61.9171 28.4559 61.9268 28.4826C61.9365 28.5094 61.9406 28.5379 61.9389 28.5663L61.7052 32.04C61.7035 32.0684 61.7076 32.0968 61.7173 32.1236C61.727 32.1504 61.7421 32.1749 61.7616 32.1956C61.7811 32.2163 61.8047 32.2328 61.8309 32.244C61.857 32.2553 61.8852 32.2611 61.9136 32.261Z" fill="#393939"/>
<path d="M72.8779 28.3579H70.8948C70.8006 28.3579 70.7242 28.4343 70.7242 28.5284V37.6737C70.7242 37.7679 70.8006 37.8442 70.8948 37.8442H72.8779C72.9721 37.8442 73.0485 37.7679 73.0485 37.6737V28.5284C73.0485 28.4343 72.9721 28.3579 72.8779 28.3579Z" fill="#393939"/>
<path d="M75.5179 32.8422C76.8316 34.5474 78.2421 36.1979 79.7494 37.7937C79.7789 37.8274 79.7705 37.8443 79.7242 37.8443H76.7116C76.5852 37.8443 76.4926 37.7895 76.4337 37.68C75.6463 36.2906 74.6758 35.0106 73.5221 33.84C73.4303 33.7466 73.3584 33.6356 73.3105 33.5136C73.2626 33.3916 73.2397 33.2611 73.2433 33.1297C73.2468 32.9984 73.2767 32.869 73.3311 32.7491C73.3854 32.6291 73.4633 32.5212 73.56 32.4316C74.9452 31.1516 76.0968 29.8548 77.0147 28.5411C77.0947 28.4232 77.2063 28.3643 77.3494 28.3643L79.541 28.3706C79.5501 28.3695 79.559 28.3715 79.5666 28.3762C79.5742 28.3809 79.58 28.3882 79.5834 28.3971C79.5869 28.4059 79.5876 28.416 79.5857 28.4259C79.5838 28.4358 79.5792 28.4452 79.5726 28.4527L75.5558 32.2864C75.3747 32.459 75.3621 32.6443 75.5179 32.8422Z" fill="#393939"/>
<path d="M20.1726 36.2969C21.6379 34.6759 22.1537 32.7791 21.72 30.6064C21.7074 30.5475 21.7326 30.5222 21.7958 30.5306C21.8589 30.5391 21.9032 30.5706 21.9284 30.6254C22.6568 32.2675 22.7874 33.9559 22.32 35.6906C22.2274 36.0275 22.0147 36.2401 21.6821 36.3285L20.3937 36.6633C19.9053 36.7938 19.8316 36.6717 20.1726 36.2969Z" fill="#393939"/>
</g>
<defs>
<clipPath id="clip0_3113_27737">
<rect width="193.895" height="36" fill="white" transform="translate(0 6)"/>
</clipPath>
</defs>
</svg>
