<svg width="200" height="48" viewBox="0 0 200 48" fill="none" xmlns="http://www.w3.org/2000/svg">
<path fill-rule="evenodd" clip-rule="evenodd" d="M10.9302 23.8634V26.4748L14.8203 22.653V20.0632L10.9302 23.8634ZM16.6019 43.2097C25.589 43.2097 32.9238 35.7456 32.9238 26.6185C32.9238 17.4805 25.589 10.0344 16.6019 10.0344C15.9159 10.0344 15.2406 10.0775 14.5761 10.1601L10.9302 13.7449V11.13L11.0272 11.033C10.8692 11.0941 10.7075 11.1551 10.5495 11.2198V13.7449L8.82177 12.0459C8.69605 12.1178 8.57392 12.1896 8.4518 12.2614L10.5495 14.3124V16.9274L6.87493 13.3175C2.88067 16.3455 0.283691 21.1839 0.283691 26.6185C0.283691 35.7456 7.61487 43.2097 16.6019 43.2097ZM10.9302 14.3124V16.9274L14.8203 13.1055V10.5122L10.9302 14.3124ZM10.5495 17.4949V20.1099L6.65941 16.288V13.6946L10.5495 17.4949ZM10.9302 17.4949V20.1099L14.8203 16.288V13.6946L10.9302 17.4949ZM10.5495 20.6774V23.2923L6.65941 19.4705V16.8771L10.5495 20.6774ZM10.9302 20.6774V23.2923L14.8203 19.4705V16.8771L10.9302 20.6774ZM10.5495 23.8634V26.4748L6.65941 22.653V20.0632L10.5495 23.8634Z" fill="#008A52"/>
<path fill-rule="evenodd" clip-rule="evenodd" d="M16.6019 9.78296C7.47476 9.78296 0.0322266 17.344 0.0322266 26.6184C0.0322266 35.8821 7.47476 43.4575 16.6019 43.4575C25.7327 43.4575 33.1752 35.8821 33.1752 26.6184C33.1752 17.344 25.7327 9.78296 16.6019 9.78296ZM13.5667 37.8182V42.6637C12.9956 42.5488 12.4352 42.4087 11.8857 42.2363V27.5991H14.2887C14.9137 27.5991 15.3447 27.7248 15.5998 27.969C15.8512 28.2097 15.9661 28.6407 15.9661 29.2657V36.1551C15.9661 36.7765 15.8512 37.2075 15.5998 37.4482C15.219 37.8325 14.5186 37.8325 13.9331 37.8325C13.8074 37.8182 13.6817 37.8182 13.5667 37.8182ZM16.6019 42.9582C15.8189 42.9582 15.0466 42.8972 14.2887 42.7858V38.5294C15.3986 38.5294 16.1206 38.1522 16.4618 37.3943V41.6436C16.4618 42.1644 16.5444 42.6062 16.7061 42.9547C16.6738 42.9582 16.6378 42.9582 16.6019 42.9582ZM21.1781 32.9259H19.5258V29.1508H18.8146V41.8878H19.5258V33.6371H21.1781V41.6436C21.1781 41.8914 21.1601 42.107 21.1206 42.2973C19.9604 42.6457 18.7463 42.8613 17.4927 42.9331C17.2054 42.5919 17.1623 42.0746 17.1623 41.6436V29.3914C17.1623 28.7557 17.288 28.3103 17.5322 28.0552C17.7729 27.8038 18.2039 27.6745 18.8146 27.6745C19.4396 27.6745 20.3519 27.5847 20.8225 28.0552C21.0631 28.3103 21.1781 28.7557 21.1781 29.3914V32.9259ZM26.4654 39.4992C25.9051 39.9446 25.316 40.3505 24.6982 40.7205V33.7126H23.9511V41.1407C23.3799 41.4424 22.7908 41.7082 22.1838 41.9381V33.9173C22.1838 33.1809 22.3634 32.6206 23.1105 32.3656L22.2844 27.8289H23.9511L24.2276 32.7858H24.4324L24.7125 27.8289H26.4654L25.5279 32.3656C26.3146 32.6457 26.4654 33.1271 26.4654 33.9173V39.4992ZM21.8893 32.3476V29.5315L22.385 32.0603C22.1802 32.1357 22.0186 32.2327 21.8893 32.3476ZM27.0509 32.811C26.918 32.4841 26.6809 32.2183 26.2643 32.0603L27.0509 27.9834V32.811ZM32.5179 28.8886C32.5071 28.964 32.4963 29.0358 32.4855 29.1113H29.7844V29.7722H30.1903C30.9661 29.7506 31.8354 29.7399 32.2592 30.3074C31.9072 31.8411 31.3433 33.2923 30.5998 34.6285V31.094H29.7844V35.9396C29.2384 36.7334 28.6278 37.4769 27.9561 38.1594C27.9238 38.1917 27.895 38.2205 27.8663 38.2492V27.7894H32.5179V28.8886ZM21.4187 27.1285L21.5804 27.9475C21.2176 27.283 20.5351 26.9489 19.5258 26.9489H18.8146C17.6041 26.9489 16.8677 27.4338 16.5911 28.3929C16.3289 27.3871 15.5638 26.8878 14.2887 26.8878H11.1637V41.9884C8.92231 41.1659 6.90723 39.844 5.25134 38.1594C2.33826 35.1996 0.531508 31.1156 0.531508 26.6184C0.531508 22.1177 2.33826 18.0337 5.25134 15.0739C8.16441 12.1141 12.1802 10.2822 16.6019 10.2822C21.0272 10.2822 25.043 12.1141 27.9561 15.0739C30.8692 18.0337 32.6723 22.1177 32.6723 26.6184C32.6723 26.7909 32.6723 26.9597 32.6651 27.1285H21.4187ZM13.5667 36.3957H14.2887V29.0215H13.5667V36.3957Z" fill="white"/>
<path fill-rule="evenodd" clip-rule="evenodd" d="M2.7622 17.7463L2.78735 18.2815L2.86278 18.7916L2.99209 19.2729L3.12858 19.7435L3.31896 20.1889L3.53807 20.6199L3.76436 21.0402L4.03376 21.4353L4.31034 21.816L4.63002 22.1968L5.29094 22.9331L5.99137 23.6192L6.71335 24.3196L7.42815 25.0057L8.13936 25.7061L8.78591 26.4281L9.1056 26.8124L9.39654 27.1932L9.66235 27.5847L9.89223 28.005L10.1221 28.4396L10.2981 28.8958L10.4382 29.3519L10.5639 29.8476L10.6286 30.3433L10.6681 30.8785L10.643 35.3397L10.6178 34.8045L10.5388 34.2981L10.4131 33.8131L10.273 33.3426L10.0934 32.9008L9.86709 32.4554L9.63721 32.0495L9.3714 31.64L9.09123 31.2593L8.77154 30.8785L8.11422 30.1529L7.41379 29.4417L6.70258 28.7665L5.977 28.0804L5.2658 27.3692L4.61565 26.6328L4.29956 26.2772L4.00502 25.8713L3.75358 25.4762L3.5237 25.056L3.30818 24.6249L3.10344 24.1795L2.96335 23.709L2.84841 23.2277L2.77298 22.7176L2.73706 22.186L2.7622 17.7463Z" fill="white"/>
<path fill-rule="evenodd" clip-rule="evenodd" d="M2.02225 23.3931L2.06176 23.9606L2.13719 24.4886L2.27728 25.0059L2.43173 25.5015L2.64725 25.9829L2.87714 26.439L3.12857 26.8809L3.42311 27.3011L3.72843 27.707L4.06966 28.1165L4.79524 28.878L5.55673 29.6179L6.35774 30.3579L7.1336 31.087L7.8951 31.827L8.62067 32.5921L8.9655 32.998L9.27081 33.4038L9.56176 33.8241L9.81679 34.2695L10.0718 34.7257L10.2586 35.207L10.4131 35.6991L10.5531 36.2163L10.6286 36.748L10.6681 37.3155L10.6429 42.0353L10.6034 41.4714L10.528 40.9398L10.3987 40.4225L10.2371 39.9304L10.0431 39.4491L9.79165 38.9929L9.5474 38.5475L9.25645 38.1273L8.93676 37.7214L8.59553 37.3155L7.88432 36.5504L7.10846 35.7961L6.3326 35.0705L5.54596 34.3413L4.7701 33.5906L4.05889 32.8148L3.70329 32.4304L3.39797 32.0102L3.10343 31.5791L2.8484 31.1481L2.62211 30.6811L2.40659 30.2106L2.25214 29.7041L2.12642 29.2013L2.04739 28.6696L2.01147 28.0913L2.02225 23.3931Z" fill="white"/>
<path fill-rule="evenodd" clip-rule="evenodd" d="M32.4675 20.8103H22.0257C21.9215 20.5517 21.7599 20.3829 21.5767 20.3829C21.3935 20.3829 21.2318 20.5517 21.1277 20.8103H20.7541C20.6499 20.5517 20.4883 20.3829 20.3051 20.3829C20.1219 20.3829 19.9603 20.5517 19.8561 20.8103H19.5652C19.7879 20.505 19.9208 20.1386 19.9208 19.7435C19.9208 18.6911 19.1665 17.8362 18.0242 17.8362C16.8784 17.8362 15.9517 18.6911 15.9517 19.7435C15.9517 20.2248 16.3144 20.6666 16.4366 20.9935C16.2426 21.0366 16.1025 21.2054 16.1025 21.4102C16.1025 21.6257 16.2642 21.8017 16.4725 21.8304C16.3576 22.2363 15.9517 22.538 15.9517 23.181C15.9517 24.237 16.8784 25.0883 18.0242 25.0883C19.1665 25.0883 19.9208 24.237 19.9208 23.181C19.9208 22.7859 19.7879 22.4195 19.5652 22.1178H19.8561C19.9603 22.3764 20.1219 22.5452 20.3051 22.5452C20.4883 22.5452 20.6499 22.3764 20.7541 22.1178H21.1277C21.2318 22.3764 21.3935 22.5452 21.5767 22.5452C21.7599 22.5452 21.9215 22.3764 22.0257 22.1178H29.6945V22.5452H29.3353V23.4073H29.6945L30.0321 23.8778L29.3353 23.7737V24.9267H30.0321V24.4059H31.0666V24.9267H31.7634V23.7737L31.0666 23.8778L31.4078 23.4073H31.7634V22.5452H31.4078V22.1178H32.4675C32.7405 22.1178 32.9596 21.8915 32.9596 21.6149V21.3096C32.9596 21.0366 32.7405 20.8103 32.4675 20.8103ZM18.3655 20.6774C18.6923 20.6846 18.9545 21.0258 18.9545 21.4461C18.9545 21.8664 18.6923 22.2076 18.3655 22.2184L18.1894 22.635C18.6492 22.635 19.1665 22.6961 19.1665 23.2277C19.1665 23.8707 18.7498 24.3951 18.0242 24.3951C17.2951 24.3951 16.706 23.8707 16.706 23.2277C16.706 22.7248 16.8928 22.6494 17.3956 22.4878L17.2484 22.1896L17.5716 21.8951C17.392 21.8161 17.2627 21.6365 17.2627 21.4281C17.2627 21.2198 17.392 21.0366 17.5716 20.9612L17.2915 20.7457L17.3956 20.4368C16.8928 20.2751 16.706 20.1997 16.706 19.6968C16.706 19.0539 17.2951 18.533 18.0242 18.533C18.7498 18.533 19.1665 19.0539 19.1665 19.6968C19.1665 20.232 18.7211 20.2895 18.1894 20.2895L18.3655 20.6774Z" fill="#FFCA38"/>
<path fill-rule="evenodd" clip-rule="evenodd" d="M15.8655 23.181C15.8691 22.5524 16.2283 22.2255 16.3576 21.895C16.1564 21.8232 16.0127 21.6328 16.0127 21.4101C16.0127 21.1982 16.1385 21.0186 16.3181 20.9396C16.1816 20.6379 15.8691 20.2212 15.8655 19.7435C15.8655 18.6371 16.8353 17.7499 18.0242 17.7463C19.2132 17.7499 20.007 18.6479 20.0106 19.7435C20.0106 20.0991 19.9064 20.4331 19.7304 20.7205H19.7987C19.9064 20.4762 20.0788 20.2966 20.3051 20.293C20.5314 20.2966 20.7002 20.4762 20.8116 20.7205H21.0702C21.178 20.4762 21.3504 20.2966 21.5767 20.293C21.803 20.2966 21.9718 20.4762 22.0832 20.7205H32.4675V20.8965H21.9646L21.9431 20.8426C21.8461 20.5948 21.6988 20.4654 21.5767 20.469C21.4546 20.4654 21.3073 20.5948 21.2103 20.8426L21.1888 20.8965H20.6931L20.6679 20.8426C20.5745 20.5948 20.4273 20.4654 20.3051 20.469C20.1794 20.4654 20.0357 20.5948 19.9352 20.8426L19.9136 20.8965H19.3892L19.4934 20.7564C19.7053 20.4654 19.831 20.1206 19.831 19.7435C19.8274 18.7341 19.1198 17.9259 18.0242 17.9259C16.9215 17.9259 16.0451 18.7449 16.0415 19.7435C16.0379 20.1817 16.3863 20.6127 16.5192 20.9611L16.5515 21.0581L16.4546 21.0797C16.3037 21.112 16.1888 21.2485 16.1888 21.4101C16.1888 21.579 16.3181 21.719 16.4833 21.7442L16.5839 21.755L16.5587 21.8555C16.4222 22.3009 16.0379 22.5775 16.0415 23.181C16.0451 24.1795 16.9215 25.0021 18.0242 25.0021C19.1198 24.9985 19.8274 24.1939 19.831 23.181C19.831 22.8074 19.7053 22.459 19.4934 22.168L19.3892 22.0279H19.9136L19.9352 22.0818C20.0321 22.3297 20.1794 22.459 20.3051 22.4554C20.4273 22.459 20.5745 22.3297 20.6715 22.0818L20.6931 22.0279H21.1852L21.2103 22.0818C21.3073 22.3297 21.4546 22.459 21.5767 22.4554C21.6988 22.459 21.8461 22.3297 21.9431 22.0818L21.9646 22.0279H29.7807V22.635H29.4215V23.3175H29.7376L30.2261 23.9963L29.4215 23.8742V24.8369H29.9459V24.316H31.1564V24.8369H31.6773V23.8742L30.8727 23.9927L31.3612 23.3175H31.6773V22.635H31.3181V22.0279H32.4675C32.6902 22.0279 32.8734 21.8448 32.8734 21.6149V21.3096C32.8734 21.0833 32.6902 20.8965 32.4675 20.8965V20.7205C32.7908 20.7205 33.0494 20.9863 33.0494 21.3096V21.6149C33.0494 21.9381 32.7908 22.204 32.4675 22.204H31.4941V22.459H31.8533V23.4935H31.451L31.2606 23.7593L31.8533 23.6731V25.0129H30.9804V24.492H30.1219V25.0129H29.2455V23.6731L29.8382 23.7593L29.6478 23.4935H29.2455V22.459H29.6047V22.204H22.0832C21.9718 22.4482 21.803 22.6278 21.5767 22.6314C21.3504 22.6278 21.178 22.4482 21.0702 22.204H20.8116C20.7002 22.4482 20.5314 22.6278 20.3051 22.6314C20.0788 22.6278 19.9064 22.4482 19.7987 22.204H19.7304C19.9064 22.4913 20.0106 22.8254 20.0106 23.181C20.007 24.2765 19.2132 25.1745 18.0242 25.1781C16.8353 25.1745 15.8655 24.2909 15.8655 23.181ZM18.0242 24.4813C17.2556 24.4813 16.6198 23.9281 16.6198 23.2277C16.6198 22.969 16.6701 22.7894 16.803 22.6637C16.9179 22.5596 17.0688 22.5021 17.2699 22.4338L17.1406 22.168L17.4244 21.9094C17.2735 21.8017 17.1765 21.6256 17.1765 21.4281C17.1765 21.2341 17.2699 21.0581 17.4136 20.9504L17.1909 20.7779L17.2843 20.4942C17.076 20.4259 16.9215 20.3685 16.803 20.2607C16.6701 20.135 16.6198 19.9554 16.6198 19.6968C16.6198 18.9963 17.2556 18.4432 18.0242 18.4432C18.4086 18.4432 18.7211 18.5833 18.933 18.8131C19.1449 19.043 19.2527 19.3555 19.2527 19.6968C19.2599 19.9877 19.1162 20.1853 18.915 20.2751C18.7462 20.3505 18.5451 20.3685 18.326 20.3756L18.4265 20.5912C18.7857 20.6415 19.0444 21.015 19.0444 21.4461C19.0444 21.8771 18.7893 22.2506 18.4265 22.3009L18.3224 22.5488C18.5163 22.556 18.7139 22.5775 18.8827 22.6494C19.0946 22.7392 19.2599 22.9295 19.2527 23.2277C19.2527 23.5689 19.1449 23.8814 18.933 24.1113C18.7211 24.3412 18.4086 24.4813 18.0278 24.4813H18.0242ZM16.7958 19.6968C16.7958 19.941 16.8389 20.0524 16.9215 20.1314C17.0077 20.214 17.1694 20.2751 17.4244 20.3541L17.507 20.3828L17.3957 20.7169L17.7477 20.9827L17.6076 21.0402C17.4567 21.1048 17.3525 21.2557 17.3525 21.4281C17.3525 21.6005 17.4567 21.7478 17.6076 21.8124L17.7333 21.8663L17.3561 22.2111L17.5214 22.538L17.4244 22.5703C17.1694 22.6529 17.0077 22.714 16.9215 22.793C16.8389 22.8756 16.7958 22.9834 16.7958 23.2277C16.7958 23.8131 17.3382 24.3052 18.0242 24.3052C18.7031 24.3017 19.0695 23.8347 19.0767 23.2277C19.0731 22.9906 18.9761 22.89 18.8145 22.8146C18.6492 22.7427 18.4158 22.7248 18.1895 22.7248H18.0566L18.308 22.1285H18.3655C18.6241 22.1249 18.8684 21.834 18.8684 21.4461C18.8684 21.0581 18.6241 20.7672 18.3655 20.7636H18.308L18.053 20.1996H18.1895C18.4517 20.1996 18.6888 20.1853 18.8396 20.1134C18.9905 20.038 19.0731 19.941 19.0767 19.6968C19.0695 19.0897 18.7031 18.6228 18.0242 18.6192C17.3382 18.6192 16.7958 19.1113 16.7958 19.6968Z" fill="white"/>
<path fill-rule="evenodd" clip-rule="evenodd" d="M10.9303 23.8635V26.4749L14.8203 22.653V20.0632L10.9303 23.8635ZM14.7341 4H14.4935V7.64942L13.5057 8.61207V4H13.2507V8.86351L12.1767 9.91236V4H11.936V10.1494L10.9303 11.13V13.745L14.8203 9.92313V7.32974L14.7341 7.41595V4ZM7.00066 4H6.74563V7.41595L6.65942 7.32974V9.92313L10.5495 13.745V11.13L9.54376 10.1494V4H9.3031V9.91236L8.22911 8.86351V4H7.98845V8.62644L7.00066 7.66379V4ZM10.862 4H10.6178V10.9289H10.862V4ZM10.5495 14.3125V16.9274L6.65942 13.1056V10.5122L10.5495 14.3125ZM10.9303 14.3125V16.9274L14.8203 13.1056V10.5122L10.9303 14.3125ZM10.5495 17.495V20.1099L6.65942 16.2881V13.6947L10.5495 17.495ZM10.9303 17.495V20.1099L14.8203 16.2881V13.6947L10.9303 17.495ZM10.5495 20.6774V23.2924L6.65942 19.4705V16.8772L10.5495 20.6774ZM10.9303 20.6774V23.2924L14.8203 19.4705V16.8772L10.9303 20.6774ZM10.5495 23.8635V26.4749L6.65942 22.653V20.0632L10.5495 23.8635Z" fill="#FFCA38"/>
<path fill-rule="evenodd" clip-rule="evenodd" d="M6.56958 16.3241V13.4865L10.6105 17.434L10.6393 17.4592V20.3219L6.56958 16.3241ZM6.56958 9.95916V7.11792L10.6105 11.0655L10.6393 11.0906V13.9534L6.56958 9.95916ZM6.74559 9.88372L10.4633 13.5331V11.1661L6.74559 7.53818V9.88372ZM10.8404 11.1301V11.0906L14.9101 7.11792V9.95916L10.8404 13.9534V11.1301ZM11.02 13.5331L14.7341 9.88372V7.53818L11.02 11.1661V13.5331ZM10.8404 14.3126V14.2767L14.9101 10.3004V13.1416L10.8404 17.1359V14.3126ZM11.02 16.7156L14.7341 13.0662V10.7206L11.02 14.3485V16.7156ZM10.8404 17.4951V17.4592L14.9101 13.4865V16.3241L10.8404 20.3219V17.4951ZM11.02 19.8981L14.7341 16.2523V13.9031L11.02 17.531V19.8981ZM6.56958 19.5066V16.6689L10.6105 20.6165L10.6393 20.6416V23.5044L6.56958 19.5066ZM6.74559 19.4347L10.4633 23.0842V20.7171L6.74559 17.0892V19.4347ZM10.8404 20.6775V20.6416L14.9101 16.6689V19.5066L10.8404 23.5044V20.6775ZM11.02 23.0842L14.7341 19.4347V17.0892L11.02 20.7171V23.0842ZM6.56958 22.6926V19.8514L10.6105 23.799L10.6393 23.8241V26.6869L6.56958 22.6926ZM6.74559 22.6172L10.4633 26.2666V23.8995L6.74559 20.2717V22.6172ZM10.8404 23.86V23.8241L14.9101 19.8514V22.6926L10.8404 26.6869V23.86ZM11.02 26.2666L14.7341 22.6172V20.2717L11.02 23.8995V26.2666ZM6.56958 13.1416V10.304L10.6105 14.2479L10.6393 14.2767V17.1359L6.56958 13.1416ZM6.74559 13.0662L10.4633 16.7156V14.3485L6.74559 10.7206V13.0662ZM6.74559 16.2523L10.4633 19.8981V17.5346L6.74559 13.9031V16.2523Z" fill="white"/>
<mask id="mask0_3113_28877" style="mask-type:luminance" maskUnits="userSpaceOnUse" x="42" y="19" width="124" height="15">
<path d="M42.0691 19.8621H165.64V33.6552H42.0691V19.8621Z" fill="white"/>
</mask>
<g mask="url(#mask0_3113_28877)">
<path d="M44.1609 33.4645H42.0691V21.1313H46.8193C48.1703 21.1313 49.1781 21.4963 49.8318 22.2209C50.4855 22.9454 50.8124 23.8006 50.8124 24.7866C50.8124 25.9143 50.4583 26.8294 49.7501 27.5267C49.0419 28.224 48.1431 28.5781 47.0536 28.5781H44.1609V33.4645ZM44.1609 26.6715H46.6341C47.2769 26.6715 47.7672 26.5026 48.1104 26.1649C48.4481 25.8271 48.6225 25.375 48.6225 24.8139C48.6225 24.3127 48.4645 23.8769 48.1485 23.5119C47.8326 23.1524 47.266 22.9726 46.4434 22.9726H44.1609V26.6715ZM55.4918 33.6552C54.2225 33.6552 53.2528 33.1649 52.5882 32.2007C51.9182 31.2256 51.5859 30.1197 51.5859 28.8668C51.5859 27.5158 51.9509 26.3936 52.6917 25.4948C53.4326 24.596 54.4077 24.1493 55.6225 24.1493C56.7719 24.1493 57.7144 24.5851 58.4552 25.4567C59.1906 26.3283 59.5611 27.4668 59.5611 28.8668C59.5611 30.305 59.1797 31.4598 58.4116 32.3369C57.6435 33.2139 56.6684 33.6552 55.4918 33.6552ZM55.5626 31.9556C56.8645 31.9556 57.5128 30.9205 57.5128 28.8559C57.5128 27.919 57.3603 27.1835 57.0498 26.6497C56.7338 26.1104 56.2544 25.838 55.6116 25.838C54.9416 25.838 54.4458 26.1158 54.1244 26.6715C53.803 27.2326 53.6396 27.9734 53.6396 28.8941C53.6396 29.8855 53.8139 30.6427 54.1571 31.1711C54.4949 31.6941 54.9688 31.9556 55.5626 31.9556ZM66.2887 30.1089L67.9557 30.2941C67.7378 31.438 67.3238 32.2824 66.7082 32.8326C66.0872 33.3774 65.3463 33.6552 64.4693 33.6552C63.2872 33.6552 62.3774 33.1976 61.7401 32.277C61.1027 31.3563 60.7867 30.2287 60.7867 28.8995C60.7867 27.5267 61.1354 26.3936 61.8272 25.4948C62.53 24.596 63.456 24.1493 64.6164 24.1493C66.4848 24.1493 67.6016 25.1952 67.9557 27.2925L66.2887 27.5376C66.1417 26.4045 65.6187 25.838 64.7144 25.838C64.0607 25.838 63.5813 26.1431 63.2872 26.7532C62.9875 27.3688 62.8405 28.1042 62.8405 28.9758C62.8405 29.8964 62.993 30.6046 63.3035 31.1057C63.614 31.6015 64.0444 31.8575 64.6 31.8575C65.4498 31.8575 66.0109 31.2746 66.2887 30.1089ZM74.3946 30.1089L76.0616 30.2941C75.8437 31.438 75.4297 32.2824 74.8087 32.8326C74.1931 33.3774 73.4468 33.6552 72.5752 33.6552C71.3931 33.6552 70.4833 33.1976 69.846 32.277C69.2086 31.3563 68.8872 30.2287 68.8872 28.8995C68.8872 27.5267 69.2358 26.3936 69.9331 25.4948C70.6304 24.596 71.5619 24.1493 72.7223 24.1493C74.5908 24.1493 75.702 25.1952 76.0616 27.2925L74.3946 27.5376C74.2476 26.4045 73.7246 25.838 72.8203 25.838C72.1666 25.838 71.6872 26.1431 71.3931 26.7532C71.0934 27.3688 70.9464 28.1042 70.9464 28.9758C70.9464 29.8964 71.0989 30.6046 71.4094 31.1057C71.7145 31.6015 72.1503 31.8575 72.7005 31.8575C73.5503 31.8575 74.1168 31.2746 74.3946 30.1089ZM82.9963 30.5555L84.7504 30.8061C84.5216 31.6287 84.0803 32.3151 83.4266 32.849C82.7675 33.3883 81.9449 33.6552 80.9534 33.6552C79.7604 33.6552 78.8071 33.2303 78.0826 32.375C77.3581 31.5307 76.9931 30.3812 76.9931 28.9267C76.9931 27.5485 77.3581 26.41 78.0881 25.5057C78.818 24.6014 79.8149 24.1493 81.0624 24.1493C82.2881 24.1493 83.2305 24.596 83.9006 25.4839C84.5651 26.3773 84.9029 27.5213 84.9029 28.9158L84.8974 29.1555H79.0032C79.0032 29.7766 79.0632 30.2723 79.1721 30.6427C79.2811 31.0186 79.5044 31.34 79.8313 31.6178C80.1581 31.8956 80.5667 32.0373 81.0624 32.0373C82.0212 32.0373 82.664 31.5415 82.9963 30.5555ZM82.8819 27.8263C82.8764 27.1672 82.6912 26.6333 82.3208 26.2139C81.9558 25.8053 81.5091 25.5929 80.9698 25.5929C80.4359 25.5929 79.9947 25.789 79.6351 26.1757C79.2756 26.5625 79.0686 27.1127 79.0032 27.8263H82.8819ZM85.355 33.4645L88.0951 24.3399H90.3831L93.0469 33.4645H91.0259L89.092 25.9361L86.9239 33.4645H85.355ZM94.1364 33.4645V24.3399H96.0703V27.6738H98.3365C99.3116 27.6738 100.036 27.9516 100.494 28.5127C100.957 29.0738 101.186 29.7711 101.186 30.5991C101.186 31.5143 100.94 32.2225 100.434 32.7182C99.9326 33.2139 99.2353 33.4645 98.3365 33.4645H94.1364ZM96.0703 31.863H97.9497C98.4291 31.863 98.7668 31.7649 98.9738 31.5579C99.1808 31.3618 99.2843 31.0349 99.2843 30.5773C99.2843 29.6404 98.8376 29.1719 97.9497 29.1719H96.0703V31.863ZM109.161 33.4645H106.96L105.14 30.1415L103.152 33.4645H101.485L104.34 28.7688L101.872 24.3399H104.084L105.494 27.0201L107.102 24.3399H108.725L106.301 28.2948L109.161 33.4645ZM113.459 33.6552C112.184 33.6552 111.22 33.1649 110.55 32.2007C109.88 31.2256 109.547 30.1197 109.547 28.8668C109.547 27.5158 109.918 26.3936 110.653 25.4948C111.394 24.596 112.369 24.1493 113.584 24.1493C114.728 24.1493 115.676 24.5851 116.417 25.4567C117.152 26.3283 117.523 27.4668 117.523 28.8668C117.523 30.305 117.141 31.4598 116.373 32.3369C115.605 33.2139 114.63 33.6552 113.459 33.6552ZM113.524 31.9556C114.821 31.9556 115.474 30.9205 115.474 28.8559C115.474 27.919 115.322 27.1835 115.011 26.6497C114.695 26.1104 114.216 25.838 113.573 25.838C112.903 25.838 112.407 26.1158 112.086 26.6715C111.765 27.2326 111.601 27.9734 111.601 28.8941C111.601 29.8855 111.775 30.6427 112.113 31.1711C112.456 31.6941 112.925 31.9556 113.524 31.9556ZM121.151 29.4715V28.0497C122.077 28.0497 122.665 27.9298 122.905 27.6847C123.139 27.4396 123.259 27.1563 123.259 26.8349C123.259 26.4863 123.144 26.2084 122.916 25.9905C122.687 25.7726 122.371 25.6691 121.957 25.6691C121.069 25.6691 120.541 26.1158 120.372 27.0201L118.601 26.6878C118.983 24.9936 120.148 24.1493 122.104 24.1493C123.155 24.1493 123.956 24.3835 124.495 24.852C125.04 25.3205 125.313 25.9143 125.313 26.6333C125.313 27.5485 124.784 28.2077 123.727 28.6108C124.953 28.9594 125.563 29.6894 125.563 30.8061C125.563 31.6178 125.269 32.2988 124.681 32.8381C124.087 33.3828 123.237 33.6552 122.126 33.6552C120.088 33.6552 118.846 32.7237 118.4 30.8606L120.181 30.5283C120.415 31.6124 121.004 32.1517 121.957 32.1517C122.447 32.1517 122.828 32.0264 123.101 31.7703C123.373 31.5143 123.515 31.1711 123.515 30.7353C123.515 30.4085 123.417 30.1415 123.232 29.9236C123.046 29.7112 122.807 29.5859 122.513 29.5369C122.224 29.4933 121.772 29.4715 121.151 29.4715ZM127.339 33.4645V21.1313H135.107V23.343H130.008V26.0396H131.964C132.977 26.0396 133.783 26.1376 134.372 26.3501C134.966 26.5571 135.445 26.9547 135.821 27.5376C136.191 28.1205 136.382 28.8396 136.382 29.6948C136.382 30.8824 136.039 31.8085 135.358 32.4676C134.677 33.1322 133.724 33.4645 132.498 33.4645H127.339ZM130.008 31.133H132.1C132.59 31.133 132.972 30.9968 133.239 30.719C133.506 30.4466 133.636 30.0871 133.636 29.6404C133.636 28.6816 133.048 28.2077 131.877 28.2077H130.008V31.133ZM145.468 33.4645H143.017C142.935 33.105 142.897 32.6256 142.897 32.0373C142.467 32.6855 142.036 33.1159 141.612 33.3338C141.181 33.5462 140.696 33.6552 140.152 33.6552C139.351 33.6552 138.697 33.4209 138.201 32.9579C137.706 32.4949 137.461 31.8684 137.461 31.084C137.461 30.5174 137.602 29.989 137.891 29.5042C138.18 29.0248 138.648 28.6435 139.285 28.3711C139.923 28.0987 141.094 27.8917 142.788 27.761V27.238C142.788 26.3501 142.369 25.9088 141.535 25.9088C140.647 25.9088 140.152 26.3501 140.048 27.238L137.717 27.0038C137.869 25.9687 138.327 25.2333 139.1 24.7975C139.868 24.3672 140.74 24.1493 141.715 24.1493C142.298 24.1493 142.848 24.2201 143.366 24.3672C143.883 24.5088 144.281 24.7267 144.57 25.0154C144.858 25.3041 145.054 25.6092 145.152 25.9306C145.256 26.2575 145.31 26.8186 145.31 27.6139V31.754C145.31 32.5493 145.365 33.1213 145.468 33.4645ZM142.788 29.0902C141.012 29.2808 140.13 29.8474 140.13 30.8007C140.13 31.1166 140.222 31.3945 140.408 31.6233C140.593 31.8575 140.86 31.9719 141.208 31.9719C141.655 31.9719 142.026 31.7758 142.331 31.3836C142.63 30.9859 142.788 30.5011 142.788 29.9236V29.0902ZM147.397 33.4645V24.3399H149.93V27.6248H152.561V24.3399H155.094V33.4645H152.561V29.5859H149.93V33.4645H147.397ZM162.688 27.4723L165.64 33.4645H162.993L160.999 29.3898L159.703 30.8443V33.4645H157.175V24.3399H159.703V26.6115C159.703 26.982 159.697 27.5158 159.675 28.224C159.872 27.9135 160.111 27.603 160.395 27.2816L162.988 24.3399H165.33L162.688 27.4723Z" fill="#008A52"/>
</g>
</svg>
