<svg width="96" height="48" viewBox="0 0 96 48" fill="none" xmlns="http://www.w3.org/2000/svg">
<path d="M82.6656 13.7015V25.4367H78.4752V17.2047H74.4404V25.4367H70.25V13.7007H82.6656V13.7015Z" fill="white"/>
<path fill-rule="evenodd" clip-rule="evenodd" d="M61.6439 25.8563C65.3951 25.8563 68.1807 23.5563 68.1807 20.0695C68.1807 16.6947 66.1255 14.5035 62.6907 14.5035C61.1055 14.5035 59.7975 15.0615 58.8123 16.0243C59.0475 14.0343 60.7303 12.5815 62.5831 12.5815C63.0107 12.5815 66.2299 12.5747 66.2299 12.5747L68.0503 9.09106C68.0503 9.09106 64.0087 9.18306 62.1299 9.18306C57.8371 9.25786 54.9375 13.1599 54.9375 17.8991C54.9375 23.4203 57.7655 25.8563 61.6439 25.8563ZM61.6667 17.5891C63.0595 17.5891 64.0251 18.5043 64.0251 20.0691C64.0251 21.4775 63.1671 22.6379 61.6667 22.6411C60.2315 22.6411 59.2659 21.5659 59.2659 20.0931C59.2659 18.5279 60.2315 17.5891 61.6667 17.5891Z" fill="white"/>
<path d="M51.5262 21.5079C51.5262 21.5079 50.5366 22.0783 49.0586 22.1863C47.3594 22.2367 45.8454 21.1635 45.8454 19.2567C45.8454 17.3967 47.1814 16.3307 49.0158 16.3307C50.1406 16.3307 51.6286 17.1103 51.6286 17.1103C51.6286 17.1103 52.7174 15.1123 53.2814 14.1131C52.2486 13.3303 50.873 12.9011 49.273 12.9011C45.235 12.9011 42.1074 15.5339 42.1074 19.2331C42.1074 22.9795 45.047 25.5511 49.273 25.4735C50.4542 25.4295 52.0838 25.0147 53.077 24.3767L51.5262 21.5079Z" fill="white"/>
<path d="M0 10.448L5.8128 20.838V27.1756L0.0068 37.5452L0 10.448Z" fill="#5B57A2"/>
<path d="M22.3184 17.0572L27.7652 13.7188L38.9124 13.7084L22.3184 23.874V17.0572Z" fill="#D90751"/>
<path d="M22.2878 10.3868L22.3186 24.1428L16.4922 20.5628V0L22.2878 10.3868Z" fill="#FAB718"/>
<path d="M38.9126 13.7084L27.765 13.7188L22.2878 10.3868L16.4922 0L38.9126 13.7084Z" fill="#ED6F26"/>
<path d="M22.3186 37.6028V30.9288L16.4922 27.4168L16.4954 48L22.3186 37.6028Z" fill="#63B22F"/>
<path d="M27.752 34.2948L5.8124 20.838L0 10.448L38.8892 34.2812L27.752 34.2948Z" fill="#1487C9"/>
<path d="M16.4961 48L22.3185 37.6028L27.7517 34.2948L38.8889 34.2812L16.4961 48Z" fill="#017F36"/>
<path d="M0.00585938 37.5452L16.5391 27.4172L10.9807 24.0068L5.81186 27.1756L0.00585938 37.5452Z" fill="#984995"/>
<path d="M45.8468 33.3347C45.7188 33.4979 45.5503 33.6211 45.3483 33.7043C45.1411 33.7886 44.9193 33.8316 44.6956 33.8307C44.473 33.8337 44.2517 33.7966 44.0423 33.7211C43.8543 33.6528 43.6824 33.5463 43.5375 33.4083C43.3945 33.27 43.2822 33.1032 43.2079 32.9187C43.1276 32.7165 43.0875 32.5006 43.09 32.2831C43.09 32.0671 43.1271 31.8671 43.2043 31.6775C43.2783 31.4875 43.3859 31.3247 43.5207 31.1879C43.6555 31.0483 43.8171 30.9419 43.9987 30.8587C44.1839 30.7787 44.3859 30.7355 44.6079 30.7355C44.8471 30.7355 45.0691 30.7655 45.2711 30.8251C45.4731 30.8851 45.6447 30.9851 45.7859 31.1251L45.5404 31.5411C45.4216 31.4334 45.2817 31.3517 45.1296 31.3011C44.9849 31.2545 44.8339 31.231 44.6819 31.2315C44.5475 31.2315 44.4195 31.2579 44.2951 31.3079C44.1726 31.3572 44.0605 31.4296 43.9651 31.5211C43.8676 31.6151 43.7908 31.7285 43.7395 31.8539C43.6823 31.9835 43.6555 32.1267 43.6555 32.2863C43.6555 32.4495 43.6855 32.5959 43.7427 32.7223C43.8003 32.8523 43.8775 32.9623 43.9751 33.0551C44.0727 33.1487 44.1872 33.2183 44.3184 33.2651C44.45 33.3151 44.5879 33.3383 44.7359 33.3383C44.9175 33.3383 45.0828 33.3015 45.224 33.2315C45.3639 33.1639 45.4896 33.0702 45.5943 32.9555L45.8468 33.3347ZM46.54 33.7607V30.7987H47.0719V33.0055L48.8019 30.7987H49.3339V33.7611H48.8019V31.5543L47.0719 33.7611L46.54 33.7607ZM52.858 33.3347C52.7271 33.4992 52.5554 33.6267 52.36 33.7043C52.1525 33.7886 51.9306 33.8315 51.7067 33.8307C51.4843 33.8337 51.2632 33.7965 51.0539 33.7211C50.8658 33.6528 50.6938 33.5463 50.5487 33.4083C50.4057 33.27 50.2934 33.1032 50.2192 32.9187C50.1388 32.7165 50.0987 32.5006 50.1012 32.2831C50.1012 32.0671 50.1383 31.8671 50.2155 31.6775C50.2899 31.4875 50.3975 31.3247 50.5319 31.1879C50.6667 31.0483 50.8283 30.9419 51.0099 30.8587C51.2018 30.7742 51.4096 30.7322 51.6192 30.7355C51.8583 30.7355 52.0804 30.7655 52.2824 30.8251C52.4844 30.8851 52.6559 30.9851 52.7975 31.1251L52.5515 31.5411C52.433 31.4333 52.2932 31.3516 52.1411 31.3011C51.9965 31.2545 51.8455 31.231 51.6936 31.2315C51.4262 31.2323 51.1694 31.336 50.9763 31.5211C50.8797 31.6158 50.803 31.729 50.7507 31.8539C50.6935 31.9835 50.6667 32.1267 50.6667 32.2863C50.6667 32.4495 50.6971 32.5959 50.7543 32.7223C50.8115 32.8523 50.8887 32.9623 50.9863 33.0551C51.0839 33.1487 51.1987 33.2183 51.3299 33.2651C51.4611 33.3115 51.5991 33.3383 51.7471 33.3383C51.9291 33.3383 52.0907 33.3015 52.2351 33.2315C52.3751 33.1639 52.5008 33.0702 52.6056 32.9555L52.858 33.3347ZM53.1307 30.7987H55.8603V31.3247H54.7632V33.7607H54.2311V31.3247H53.134V30.7987H53.1307Z" fill="white"/>
<path fill-rule="evenodd" clip-rule="evenodd" d="M58.3448 33.7311C58.5468 33.6679 58.7184 33.5711 58.8664 33.4383L58.7048 33.0255C58.6072 33.1123 58.476 33.1855 58.318 33.2455C58.1596 33.3055 57.9812 33.3351 57.786 33.3351C57.4932 33.3351 57.2508 33.2587 57.0588 33.1023C56.8672 32.9455 56.7628 32.7263 56.7392 32.4463H59.0416C59.0652 32.3431 59.0752 32.2267 59.0752 32.0903C59.0752 31.8871 59.038 31.7043 58.964 31.5379C58.8951 31.3763 58.7945 31.2302 58.668 31.1083C58.5398 30.9875 58.3887 30.8936 58.2236 30.8323C58.0508 30.7652 57.867 30.7313 57.6816 30.7323C57.4324 30.7323 57.2136 30.7755 57.022 30.8555C56.8409 30.9317 56.677 31.0438 56.5404 31.1851C56.4078 31.3256 56.3059 31.4922 56.2412 31.6743C56.1701 31.8682 56.1347 32.0733 56.1368 32.2799C56.1368 32.5131 56.1772 32.7259 56.2512 32.9159C56.3232 33.0999 56.4334 33.2666 56.5744 33.4051C56.7124 33.5411 56.8804 33.6447 57.0792 33.7179C57.292 33.7933 57.5166 33.8304 57.7424 33.8275C57.9469 33.8262 58.15 33.7934 58.3448 33.7311ZM56.9984 31.4511C57.1632 31.3015 57.382 31.2283 57.658 31.2283C57.9172 31.2283 58.126 31.2983 58.2776 31.4383C58.4292 31.5779 58.5096 31.7711 58.5232 32.0171H56.7056C56.7314 31.7993 56.8354 31.5978 56.9984 31.4511Z" fill="white"/>
<path d="M59.7988 30.7987H60.2836L61.4348 32.2667L62.5252 30.7987H62.9964V33.7611H62.4648V31.6011L61.428 32.9755H61.4076L60.3308 31.6007V33.7607H59.7988V30.7987Z" fill="white"/>
<path fill-rule="evenodd" clip-rule="evenodd" d="M64.444 30.8087C64.2825 30.8509 64.1283 30.9169 63.9864 31.0047L64.1276 31.4247C64.2488 31.3647 64.37 31.3147 64.4912 31.2715C64.6124 31.2279 64.7672 31.2079 64.9524 31.2079C65.1004 31.2079 65.2184 31.2315 65.3092 31.2779C65.4 31.3211 65.4672 31.3879 65.5144 31.4679C65.5616 31.5479 65.592 31.6475 65.6088 31.7639C65.6256 31.8803 65.6324 32.0067 65.6324 32.1435C65.5235 32.0676 65.3994 32.0164 65.2688 31.9935C65.1424 31.9684 65.014 31.955 64.8852 31.9535C64.7268 31.9535 64.5788 31.9771 64.4372 32.0167C64.296 32.0567 64.1748 32.1167 64.0772 32.1967C63.9775 32.2765 63.897 32.3777 63.8416 32.4927C63.7823 32.6186 63.7523 32.7563 63.754 32.8955C63.754 33.1851 63.8384 33.4115 64.0064 33.5715C64.1748 33.7311 64.3968 33.8107 64.6728 33.8107C64.922 33.8107 65.1208 33.7675 65.272 33.6811C65.4236 33.5943 65.5448 33.4947 65.6324 33.3815V33.7643H66.1304V31.9471C66.1304 31.5607 66.0464 31.2615 65.8748 31.0515C65.7064 30.8419 65.4068 30.7355 64.9828 30.7355C64.794 30.7355 64.6156 30.7619 64.444 30.8087ZM65.3332 33.2087C65.212 33.2951 65.0536 33.3347 64.8584 33.3347C64.6868 33.3347 64.552 33.2915 64.458 33.2083C64.3636 33.1219 64.3164 33.0087 64.3164 32.8687C64.3164 32.7859 64.3332 32.7159 64.3704 32.6527C64.4076 32.5895 64.458 32.5395 64.5152 32.4995C64.5777 32.4577 64.6472 32.4272 64.7204 32.4095C64.798 32.3895 64.8752 32.3795 64.956 32.3795C65.2188 32.3795 65.444 32.4427 65.6292 32.5759V32.9519C65.5419 33.0497 65.4424 33.1363 65.3332 33.2087ZM70.8264 29.7567C70.934 29.7071 71.0348 29.6239 71.1292 29.5007L70.8396 29.0847C70.7656 29.1847 70.6816 29.2543 70.5872 29.2911C70.4871 29.3302 70.3834 29.3591 70.2776 29.3775L70.1768 29.3955C70.0892 29.4107 69.9952 29.4275 69.894 29.4443C69.7317 29.4743 69.5735 29.5234 69.4228 29.5907C69.1836 29.6939 68.992 29.8335 68.8472 30.0099C68.7024 30.1863 68.588 30.3859 68.5104 30.6059C68.4318 30.8288 68.3788 31.0598 68.3524 31.2947C68.3252 31.5347 68.312 31.7639 68.312 31.9835C68.312 32.2667 68.3488 32.5227 68.4228 32.7523C68.4972 32.9823 68.6012 33.1751 68.7392 33.3315C68.8772 33.4915 69.0424 33.6115 69.2376 33.6979C69.4328 33.7843 69.6516 33.8275 69.8972 33.8275C70.1228 33.8275 70.3316 33.7843 70.52 33.7043C70.7016 33.6274 70.8663 33.5156 71.0048 33.3751C71.1392 33.2383 71.2472 33.0751 71.3212 32.8923C71.3984 32.7091 71.4356 32.5127 71.4356 32.3063C71.4356 32.0835 71.402 31.8807 71.338 31.7007C71.279 31.5291 71.185 31.3716 71.062 31.2383C70.9387 31.1072 70.788 31.0048 70.6208 30.9383C70.4365 30.8657 70.24 30.8296 70.042 30.8319C69.914 30.8319 69.7896 30.8487 69.6684 30.8819C69.5505 30.9151 69.4373 30.9632 69.3316 31.0251C69.229 31.0838 69.135 31.1565 69.0524 31.2411C68.9716 31.3247 68.9044 31.4179 68.8572 31.5243H68.8436C68.854 31.3879 68.8708 31.2483 68.9008 31.1051C68.9312 30.9619 68.9748 30.8251 69.0324 30.6955C69.0896 30.5659 69.1636 30.4491 69.2544 30.3427C69.3517 30.2353 69.4711 30.1501 69.6044 30.0931C69.7509 30.0233 69.906 29.973 70.0656 29.9435L70.1712 29.9243C70.2764 29.9051 70.3768 29.8867 70.4728 29.8667C70.6008 29.8403 70.7184 29.8063 70.8264 29.7567ZM68.9548 32.6027C68.9027 32.4346 68.8777 32.2594 68.8808 32.0835C68.9033 31.9825 68.9444 31.8866 69.002 31.8007C69.0592 31.7107 69.1332 31.6311 69.2208 31.5607C69.4185 31.4058 69.6628 31.3226 69.914 31.3247C70.2272 31.3247 70.4628 31.4211 70.6276 31.6111C70.7928 31.8039 70.8736 32.0435 70.8736 32.3331C70.8736 32.4763 70.8464 32.6063 70.7996 32.7259C70.7541 32.8439 70.6854 32.9515 70.5975 33.0424C70.5096 33.1333 70.4043 33.2056 70.288 33.2551C70.1668 33.3083 70.0352 33.3351 69.8872 33.3351C69.7392 33.3351 69.6044 33.3051 69.48 33.2451C69.3563 33.1863 69.2471 33.1011 69.16 32.9955C69.0687 32.8778 68.9993 32.7448 68.9548 32.6027ZM75.5152 30.7987H74.9832V33.7611H75.5152V30.7987ZM72.2028 30.7987H72.7348V31.6875H73.2264C73.4584 31.6875 73.6468 31.7175 73.7984 31.7739C73.95 31.8307 74.0712 31.9071 74.162 32.0003C74.2528 32.0935 74.3168 32.2035 74.354 32.3263C74.3908 32.4495 74.4112 32.5759 74.4112 32.7091C74.4112 32.8423 74.3908 32.9691 74.3472 33.0955C74.3068 33.2219 74.236 33.3315 74.1416 33.4315C74.0476 33.5315 73.9196 33.6115 73.758 33.6715C73.5964 33.7311 73.4012 33.7643 73.1656 33.7643H72.1996V30.7987H72.2028ZM72.7348 32.1831V33.2683H73.122C73.388 33.2683 73.5764 33.2219 73.684 33.1283C73.792 33.0351 73.8456 32.9023 73.8456 32.7259C73.8456 32.5459 73.7884 32.4099 73.6808 32.3163C73.5696 32.2231 73.3844 32.1763 73.1288 32.1763H72.7348V32.1831Z" fill="white"/>
<path d="M79.0323 33.3347C78.9043 33.4979 78.7359 33.6211 78.5339 33.7043C78.3266 33.7886 78.1049 33.8315 77.8811 33.8307C77.6585 33.8337 77.4373 33.7966 77.2279 33.7211C77.0398 33.6529 76.8679 33.5464 76.7231 33.4083C76.5801 33.27 76.4676 33.1032 76.3931 32.9187C76.313 32.7164 76.2731 32.5006 76.2755 32.2831C76.2755 32.0671 76.3123 31.8671 76.3899 31.6775C76.4639 31.4875 76.5715 31.3247 76.7063 31.1879C76.8411 31.0483 77.0023 30.9419 77.1843 30.8587C77.3761 30.7742 77.5839 30.7321 77.7935 30.7355C78.0323 30.7355 78.2547 30.7655 78.4567 30.8251C78.6587 30.8851 78.8303 30.9851 78.9715 31.1251L78.7259 31.5411C78.6071 31.4334 78.4672 31.3517 78.3151 31.3011C78.1705 31.2545 78.0194 31.231 77.8675 31.2315C77.7331 31.2315 77.6051 31.2579 77.4803 31.3079C77.3578 31.3573 77.246 31.4296 77.1507 31.5211C77.0539 31.6157 76.9772 31.7289 76.9251 31.8539C76.8679 31.9835 76.8411 32.1267 76.8411 32.2863C76.8411 32.4495 76.8711 32.5959 76.9283 32.7223C76.9855 32.8523 77.0631 32.9623 77.1607 33.0551C77.2583 33.1487 77.3727 33.2183 77.5039 33.2651C77.6355 33.3115 77.7735 33.3383 77.9215 33.3383C78.1031 33.3383 78.2647 33.3015 78.4095 33.2315C78.5494 33.1639 78.6751 33.0702 78.7799 32.9555L79.0323 33.3347ZM79.3047 30.7987H82.0347V31.3247H80.9371V33.7607H80.4055V31.3247H79.3083V30.7987H79.3047Z" fill="white"/>
<path fill-rule="evenodd" clip-rule="evenodd" d="M83.1453 30.7991H82.6133V35.0791H83.1453V33.6247C83.2529 33.6947 83.3809 33.7447 83.5289 33.7779C83.6769 33.8111 83.8317 33.8275 83.9901 33.8275C84.2257 33.8275 84.4377 33.7843 84.6297 33.7047C84.8138 33.6259 84.9807 33.5117 85.1209 33.3687C85.2589 33.2251 85.3633 33.0587 85.4373 32.8623C85.5113 32.6663 85.5485 32.4563 85.5485 32.2335C85.5485 32.0135 85.5149 31.8107 85.4509 31.6275C85.3906 31.4535 85.2969 31.293 85.1749 31.1551C85.0552 31.0205 84.9067 30.9147 84.7405 30.8455C84.5588 30.7674 84.3626 30.7288 84.1649 30.7323C83.9565 30.7323 83.7613 30.7723 83.5761 30.8523C83.3909 30.9323 83.2461 31.0283 83.1453 31.1483V30.7991ZM83.5157 31.3483C83.6673 31.2683 83.8321 31.2283 84.0105 31.2283C84.1653 31.2283 84.3033 31.2515 84.4281 31.3015C84.5493 31.3515 84.6501 31.4215 84.7345 31.5147C84.8185 31.6079 84.8825 31.7147 84.9229 31.8407C84.9665 31.9671 84.9869 32.1039 84.9869 32.2535C84.9869 32.4135 84.9597 32.5563 84.9129 32.6895C84.8688 32.8158 84.7987 32.9314 84.7073 33.0291C84.6154 33.1255 84.5042 33.2015 84.3809 33.2519C84.2434 33.3094 84.0955 33.3378 83.9465 33.3351C83.8021 33.3351 83.6673 33.3187 83.5393 33.2855C83.3991 33.2473 83.2662 33.1865 83.1457 33.1055V31.6375C83.2397 31.5247 83.3645 31.4283 83.5157 31.3483ZM89.6281 30.7987H89.0961V33.7611H89.6281V30.7987ZM86.3125 30.7987H86.8445V31.6875H87.3357C87.5681 31.6875 87.7565 31.7175 87.9081 31.7739C88.0597 31.8307 88.1809 31.9071 88.2717 32.0003C88.3625 32.0935 88.4265 32.2035 88.4633 32.3263C88.5005 32.4495 88.5205 32.5759 88.5205 32.7091C88.5205 32.8423 88.5005 32.9691 88.4569 33.0955C88.4165 33.2219 88.3457 33.3315 88.2513 33.4315C88.1573 33.5315 88.0293 33.6115 87.8677 33.6715C87.7061 33.7311 87.5109 33.7643 87.2753 33.7643H86.3093V30.7987H86.3125ZM86.8481 32.1831V33.2683H87.2353C87.5009 33.2683 87.6897 33.2219 87.7973 33.1283C87.9049 33.0351 87.9589 32.9023 87.9589 32.7259C87.9589 32.5459 87.9017 32.4099 87.7941 32.3163C87.6829 32.2231 87.4977 32.1763 87.2421 32.1763H86.8481V32.1831Z" fill="white"/>
<path d="M92.1803 32.2267L93.3179 33.7611H92.6651L91.7863 32.5627L90.8943 33.7611H90.2751L91.4059 32.2531L90.3423 30.7987H90.9955L91.8067 31.9171L92.6311 30.7987H93.2507L92.1803 32.2267ZM45.4535 37.4223H43.8211V39.8919H43.2891V36.9299H45.9851V39.8919H45.4535V37.4223ZM49.0043 37.4555H47.9543L47.9203 37.9547C47.8835 38.3775 47.8331 38.7171 47.7623 38.9763C47.6915 39.2363 47.6039 39.4359 47.5031 39.5755C47.4023 39.7155 47.2843 39.8119 47.1495 39.8587C47.0104 39.9091 46.8634 39.9339 46.7155 39.9319L46.6751 39.4191C46.7323 39.4223 46.7995 39.4091 46.8735 39.3759C46.9479 39.3427 47.0219 39.2695 47.0923 39.1599C47.1631 39.0463 47.2271 38.8867 47.2843 38.6803C47.3415 38.4707 47.3787 38.1979 47.3987 37.8547L47.4527 36.9327H49.5363V39.8951H49.0043V37.4555Z" fill="white"/>
<path fill-rule="evenodd" clip-rule="evenodd" d="M50.9713 36.9367C50.7993 36.9831 50.6445 37.0495 50.5133 37.1327L50.6549 37.5523C50.7761 37.4923 50.8973 37.4423 51.0181 37.3991C51.1393 37.3559 51.2945 37.3359 51.4793 37.3359C51.6277 37.3359 51.7453 37.3591 51.8361 37.4055C51.9273 37.4491 51.9945 37.5155 52.0417 37.5955C52.0885 37.6755 52.1189 37.7755 52.1357 37.8915C52.1525 38.0083 52.1593 38.1347 52.1593 38.2711C52.0505 38.1953 51.9264 38.1443 51.7957 38.1215C51.6694 38.0963 51.541 38.0829 51.4121 38.0815C51.2541 38.0815 51.1057 38.1047 50.9645 38.1447C50.8229 38.1847 50.7017 38.2447 50.6041 38.3247C50.5045 38.4045 50.424 38.5057 50.3685 38.6207C50.3094 38.7466 50.2796 38.8843 50.2813 39.0235C50.2813 39.3127 50.3653 39.5395 50.5337 39.6991C50.7017 39.8587 50.9241 39.9387 51.2001 39.9387C51.4493 39.9387 51.6477 39.8955 51.7993 39.8087C51.9505 39.7223 52.0717 39.6223 52.1593 39.5091V39.8919H52.6577V38.0747C52.6577 37.6887 52.5733 37.3891 52.4017 37.1795C52.2333 36.9695 51.9337 36.8635 51.5097 36.8635C51.3278 36.8636 51.1467 36.8885 50.9713 36.9367ZM51.8633 39.3359C51.7425 39.4227 51.5841 39.4627 51.3889 39.4627C51.2137 39.4627 51.0825 39.4195 50.9885 39.3359C50.8941 39.2495 50.8469 39.1363 50.8469 38.9967C50.8469 38.9135 50.8637 38.8435 50.9009 38.7803C50.9377 38.7171 50.9885 38.6671 51.0457 38.6271C51.1029 38.5871 51.1733 38.5571 51.2509 38.5371C51.3279 38.5172 51.407 38.5072 51.4865 38.5075C51.7489 38.5075 51.9745 38.5707 52.1597 38.7035V39.0795C52.0723 39.1773 51.9727 39.2634 51.8633 39.3359Z" fill="white"/>
<path d="M53.1777 36.9299H55.9077V37.4555H54.8101V39.8919H54.2785V37.4559H53.1813V36.9299H53.1777Z" fill="white"/>
<path fill-rule="evenodd" clip-rule="evenodd" d="M58.3921 39.8619C58.5941 39.7987 58.7657 39.7019 58.9137 39.5691L58.7521 39.1563C58.6545 39.2431 58.5233 39.3163 58.3649 39.3763C58.2069 39.4363 58.0285 39.4659 57.8333 39.4659C57.5405 39.4659 57.2981 39.3895 57.1061 39.2331C56.9141 39.0767 56.8101 38.8571 56.7865 38.5771H59.0889C59.1121 38.4743 59.1225 38.3575 59.1225 38.2211C59.1225 38.0183 59.0853 37.8351 59.0113 37.6687C58.9423 37.5071 58.8415 37.3611 58.7149 37.2395C58.5869 37.1185 58.4359 37.0245 58.2709 36.9631C58.0981 36.8961 57.9142 36.8621 57.7289 36.8631C57.4797 36.8631 57.2609 36.9063 57.0693 36.9863C56.888 37.0623 56.7242 37.1744 56.5877 37.3159C56.4551 37.4565 56.353 37.623 56.2881 37.8051C56.2171 37.999 56.1818 38.2042 56.1837 38.4107C56.1837 38.6439 56.2241 38.8567 56.2981 39.0467C56.3725 39.2363 56.4833 39.3995 56.6213 39.5359C56.7593 39.6723 56.9277 39.7755 57.1265 39.8487C57.3391 39.9243 57.5636 39.9615 57.7893 39.9587C57.9881 39.9587 58.1901 39.9251 58.3921 39.8619ZM57.0425 37.5787C57.2073 37.4291 57.4261 37.3559 57.7021 37.3559C57.9649 37.3559 58.1701 37.4291 58.3217 37.5655C58.4729 37.7055 58.5537 37.8983 58.5673 38.1447H56.7497C56.7753 37.9267 56.8794 37.7255 57.0425 37.5787ZM59.3817 36.9299H60.0549L61.0813 38.3579L59.9841 39.8919H59.3313L60.4821 38.3575L59.3817 36.9299ZM61.2125 36.9299H61.7445V39.8919H61.2125V36.9299ZM63.6461 39.8919L62.4749 38.3575L63.5689 36.9295H62.9089L61.8757 38.3575L62.9865 39.8919H63.6461ZM66.0765 39.8619C66.2785 39.7987 66.4501 39.7019 66.5981 39.5691L66.4365 39.1563C66.3389 39.2431 66.2077 39.3163 66.0497 39.3763C65.8913 39.4363 65.7129 39.4659 65.5177 39.4659C65.2249 39.4659 64.9825 39.3895 64.7905 39.2331C64.5989 39.0767 64.4945 38.8571 64.4709 38.5771H66.7733C66.7969 38.4743 66.8069 38.3575 66.8069 38.2211C66.8069 38.0183 66.7701 37.8351 66.6957 37.6687C66.6267 37.5072 66.5261 37.3613 66.3997 37.2395C66.2716 37.1185 66.1204 37.0245 65.9553 36.9631C65.7825 36.896 65.5986 36.8621 65.4133 36.8631C65.1645 36.8631 64.9457 36.9063 64.7537 36.9863C64.5726 37.0624 64.4089 37.1745 64.2725 37.3159C64.1396 37.4563 64.0375 37.6229 63.9729 37.8051C63.9018 37.999 63.8664 38.2042 63.8685 38.4107C63.8685 38.6439 63.9089 38.8567 63.9829 39.0467C64.0569 39.2363 64.1681 39.3995 64.3061 39.5359C64.4441 39.6723 64.6121 39.7755 64.8109 39.8487C65.0237 39.9243 65.2482 39.9615 65.4741 39.9587C65.6786 39.9571 65.8817 39.9245 66.0765 39.8619ZM64.7269 37.5787C64.8921 37.4291 65.1109 37.3559 65.3869 37.3559C65.6461 37.3559 65.8545 37.4291 66.0061 37.5655C66.1577 37.7055 66.2385 37.8983 66.2517 38.1447H64.4341C64.4597 37.9267 64.5638 37.7255 64.7269 37.5787ZM68.9649 35.9347C68.6517 35.9347 68.4801 35.7615 68.4533 35.4155H67.9517C67.9517 35.5483 67.9753 35.6683 68.0189 35.7815C68.0629 35.8947 68.1269 35.9911 68.2109 36.0711C68.2949 36.1511 68.4029 36.2143 68.5273 36.2639C68.6517 36.3139 68.7965 36.3371 68.9613 36.3371C69.1129 36.3371 69.2477 36.3139 69.3689 36.2639C69.4901 36.2175 69.5909 36.1511 69.6785 36.0711C69.7625 35.9911 69.8301 35.8947 69.8769 35.7815C69.9241 35.6683 69.9477 35.5483 69.9477 35.4155H69.4497C69.4261 35.7615 69.2609 35.9347 68.9649 35.9347ZM67.5273 36.9295V39.8919H68.0593L69.7893 37.6851V39.8919H70.3213V36.9295H69.7893L68.0593 39.1363V36.9295H67.5273Z" fill="white"/>
</svg>
