<svg width="184" height="48" viewBox="0 0 184 48" fill="none" xmlns="http://www.w3.org/2000/svg">
<g clip-path="url(#clip0_3696_10917)">
<path d="M53.8932 22.4529L54.5953 20.2194L52.2726 20.2917C52.0764 20.2917 50.65 20.2515 49.2663 19.2543C49.3694 19.2644 49.4725 19.2784 49.5778 19.2784C51.0021 19.2784 52.3798 18.426 52.9322 17.2076L53.9317 15.0062C52.6793 15.0223 51.5342 14.8655 51.5342 14.8655C51.524 14.8634 50.6217 14.7489 49.5778 13.6893C48.8291 12.9294 47.9026 12.5272 46.899 12.5272C46.4601 12.5272 46.0675 12.6056 45.7297 12.7122C45.7823 12.5333 45.8328 12.3523 45.8613 12.1653C46.1808 10.1046 44.8456 8.53239 44.8456 8.53451L43.0996 6.38532L42.0172 8.9104C42.0131 8.91847 41.74 9.50962 41.2504 9.79904C41.1027 9.05717 40.7406 8.22287 39.9657 7.42468C38.5049 5.92083 36.7266 5.69765 35.7959 5.69765C35.3649 5.69765 35.0575 5.74393 34.9825 5.75596L32.8745 6.16821C32.9958 5.69977 33.2548 4.88544 33.7282 4.15163L34.8916 2.3503L31.964 2.68203L31.0313 0.713711L29.2267 1.63857L27.5576 0L25.8924 1.63857L24.0817 0.713711L23.151 2.68203L20.2256 2.3503L21.3908 4.15163C21.8643 4.88544 22.1233 5.69765 22.2427 6.1661L20.2315 5.77209L20.1628 5.76006C20.0616 5.74393 19.7562 5.69765 19.3232 5.69765C18.3925 5.69765 16.6142 5.92282 15.1574 7.42468C14.3805 8.22089 14.0184 9.05717 13.8687 9.79904C13.3832 9.51358 13.112 8.9305 13.112 8.9305L12.0276 6.39126L10.2534 8.55461C10.0368 8.83398 8.96663 10.3118 9.25791 12.1694C9.28832 12.3544 9.33684 12.5353 9.38947 12.7143C9.05363 12.6077 8.66108 12.5293 8.22212 12.5293C7.21859 12.5293 6.29201 12.9314 5.54141 13.6914C4.50138 14.7469 3.6031 14.8655 3.61129 14.8655C3.61129 14.8655 2.66237 15.0343 1.19356 15.0081L2.18692 17.2097C2.73932 18.4301 4.11901 19.2805 5.54141 19.2805C5.64864 19.2805 5.75176 19.2663 5.85701 19.2563C4.47719 20.2535 3.05083 20.2937 2.87881 20.2957L0.511719 20.2194L1.22794 22.4509C1.5881 23.601 2.79181 25.5069 5.09835 25.7119C4.8474 26.7574 4.29103 27.9275 3.06907 28.4321L1.30687 29.1538L2.26783 30.8165C2.81006 31.7132 4.08265 32.7626 5.89535 32.7626C6.28791 32.7606 6.66618 32.7224 7.03044 32.6461C7.12352 33.0562 7.2408 33.4664 7.37844 33.8724C7.91855 35.4687 7.45327 36.5825 7.44719 36.5946L6.5772 38.406L8.51948 38.9147C8.5438 38.9227 9.13045 39.0815 9.86492 39.0815C10.1988 39.0815 10.5163 39.0474 10.8158 38.9771C11.0423 38.9247 11.2589 38.8544 11.4672 38.7699C11.7181 39.2182 12.0236 39.6264 12.3797 39.9922C13.624 41.2609 15.3862 41.9042 17.6197 41.9042H17.6278L19.2221 41.8841L15.9283 43.2432L18.429 44.4435C19.3374 44.8838 20.4157 45.4044 21.5123 45.8025L21.2007 46.651L22.0626 47.041C22.1394 47.0751 23.7964 47.813 26.5521 47.9698C26.5521 47.9698 27.2177 48 27.5838 48C27.95 48 28.6075 47.9679 28.6075 47.9679C31.345 47.807 32.9897 47.0772 33.0667 47.041L33.9305 46.649L33.6149 45.7986C34.7439 45.3884 35.8606 44.8475 36.7306 44.4254L39.1847 43.2412L35.901 41.8802L37.5014 41.9003C39.7371 41.9003 41.5013 41.2569 42.7434 39.9863C43.0975 39.6224 43.4031 39.2143 43.656 38.7659C43.8644 38.8504 44.0828 38.9207 44.3094 38.973C44.6068 39.0433 44.9245 39.0776 45.2583 39.0776C45.9805 39.0776 46.5734 38.9188 46.5895 38.9147L48.5399 38.4021L47.6901 36.6248C47.6699 36.5785 47.2046 35.4667 47.7448 33.8684C47.8823 33.4603 47.9976 33.0502 48.0907 32.642C48.457 32.7184 48.8393 32.7586 49.2339 32.7586C51.5422 32.7586 52.6489 31.1442 52.8634 30.7944L53.8143 29.1499L52.0521 28.4301C50.8281 27.9254 50.2738 26.7533 50.0249 25.71C52.2989 25.5169 53.5209 23.611 53.8932 22.4529ZM22.3963 6.93613L22.3722 6.94221L22.3924 6.91604L22.3963 6.93613Z" fill="white"/>
<path d="M27.5591 6.83777C25.6937 6.83975 24.2958 7.4469 23.9902 8.16061L27.5591 9.56L31.128 8.16061C30.8245 7.4469 29.4265 6.83975 27.5591 6.83777Z" fill="white"/>
<path d="M27.5962 43.8805H27.5921H27.5617H27.5273H27.5253C26.3943 43.8886 24.8385 43.6573 24.0879 43.4402L23.1855 45.8668C23.7804 46.078 25.7955 46.48 27.5617 46.48C29.3239 46.48 31.341 46.076 31.9338 45.8668L31.0334 43.4402C30.2809 43.6593 28.727 43.8886 27.5962 43.8805Z" fill="white"/>
<path d="M34.4238 41.468C33.7521 41.846 32.2529 42.4129 31.3809 42.6763L32.1133 44.6807C33.4627 44.3147 34.5754 43.8866 35.4961 43.4282L33.9766 42.9255L34.4238 41.468Z" fill="white"/>
<path d="M20.6973 41.468L21.1464 42.9255L19.625 43.4282C20.5435 43.8866 21.6623 44.3147 23.0057 44.6807L23.7381 42.6763C22.8701 42.4129 21.3689 41.8439 20.6973 41.468Z" fill="white"/>
<path d="M27.5595 4.51745C28.9656 4.51745 30.3454 4.85117 31.4055 5.43835C31.5027 5.11455 31.6382 4.72252 31.8223 4.31238L31.4218 4.36064L31.0009 4.40493L30.8228 4.02494L30.2867 2.89911L29.3095 3.40563L28.9292 3.59867L28.6257 3.30118L27.5635 2.25574L26.5034 3.30118L26.1999 3.59867L25.8196 3.40563L24.8363 2.89911L24.3062 4.02494L24.1242 4.40493L23.7033 4.36064L23.3027 4.31238C23.4869 4.7245 23.6204 5.11455 23.7195 5.43835C24.7817 4.85117 26.1574 4.51745 27.5595 4.51745Z" fill="white"/>
<path d="M49.0284 17.5293C49.2106 17.5916 49.3966 17.6197 49.5808 17.6197C50.3758 17.6197 51.1447 17.1091 51.4097 16.524C51.4097 16.524 49.951 16.4356 48.383 14.8533C47.8834 14.3406 47.3553 14.1879 46.9021 14.1879C46.198 14.1879 45.6699 14.5578 45.6699 14.5578C47.5637 15.559 47.95 17.1674 49.0284 17.5293Z" fill="white"/>
<path d="M5.53987 17.6197C5.72392 17.6197 5.91008 17.5916 6.08818 17.5293C7.17051 17.1674 7.55897 15.559 9.45272 14.5578C9.45272 14.5578 8.92253 14.1879 8.22257 14.1879C7.76734 14.1879 7.23927 14.3406 6.7375 14.8533C5.17165 16.4356 3.71289 16.524 3.71289 16.524C3.97389 17.1091 4.74472 17.6197 5.53987 17.6197Z" fill="white"/>
<path d="M49.5421 24.0654C49.5745 24.0673 49.6028 24.0674 49.6372 24.0674C51.6219 24.0674 52.2957 21.9542 52.2957 21.9542H52.2572C51.8931 21.9542 48.9412 21.8699 46.8553 19.2341C45.4816 17.5012 44.3566 15.9772 42.1331 15.378L41.9147 15.3398L41.8661 15.1187C41.8054 14.7809 42.0381 14.4653 42.5662 14.1235C45.6333 12.1272 43.5514 9.5819 43.5514 9.5819C43.5514 9.5819 42.6754 11.6185 40.715 11.6185C40.6684 11.6185 40.6178 11.6164 40.5693 11.6164C40.3468 11.6044 40.1323 11.5963 39.9157 11.5502L39.5536 11.4797C39.5536 11.4797 40.1121 9.96996 38.7646 8.58273C37.7489 7.53531 36.5128 7.3584 35.7986 7.3584C35.4384 7.3584 35.2098 7.40454 35.2098 7.40454C35.8876 8.28511 36.3772 9.74479 35.5943 10.6454C34.9186 11.4194 33.2676 11.4576 33.2676 12.6116C33.2676 13.1002 33.7269 13.6712 34.5523 14.1838C37.0348 15.7379 39.499 17.7986 40.5227 20.5611C41.8034 24.007 40.3609 26.293 38.3013 27.6038C38.3013 27.6038 38.9467 28.1948 39.8835 28.2692C40.0736 28.2873 40.2598 28.2953 40.4338 28.2953C42.4104 28.2953 43.4321 27.3745 43.4321 27.3745C43.4321 27.3745 43.2641 28.6472 42.2343 29.8293C41.2855 30.921 40.0392 31.5624 38.1394 31.5905C38.1394 31.5905 38.0787 32.467 38.9204 33.225C39.4585 33.7035 40.7028 33.8603 40.7028 33.8603C40.7028 33.8603 38.3741 34.3287 38.1172 37.7466C37.9775 39.5981 37.5021 40.2416 37.5021 40.2416H37.5447C42.9485 40.2416 42.8089 35.6356 42.8089 35.6356C42.8089 35.6356 43.1852 36.9987 44.6925 37.3546C44.8745 37.4029 45.0688 37.4209 45.2549 37.4209C45.7406 37.4209 46.1613 37.3083 46.1613 37.3083C46.1613 37.3083 45.3723 35.6537 46.1552 33.3396C46.8047 31.4196 46.6995 29.9963 46.6995 29.9963C46.6995 29.9963 47.4278 31.0899 49.2326 31.1H49.2507C50.754 31.1 51.4094 29.9681 51.4094 29.9681C47.8062 28.4823 48.1623 23.6854 48.1623 23.6854C48.1623 23.6854 48.6297 24.0311 49.5421 24.0654ZM48.4576 29.0753C46.9928 28.3577 46.0662 26.4518 45.8417 25.7641C45.5988 29.5438 43.7416 32.1675 41.5707 34.6926C40.4438 36.0014 40.0514 37.274 40.0514 37.274C40.0514 37.274 40.2678 35.8326 41.2429 34.6585C43.2682 32.2398 45.1923 29.2302 45.3359 25.7502C45.435 23.3214 44.8058 21.3512 43.8246 19.7288C44.3728 21.4196 44.296 23.4903 42.4326 25.4223C42.4326 25.4223 46.1411 21.0053 40.9557 16.4778C38.8799 14.7549 36.6099 13.6913 35.4406 12.9374C39.6649 14.3065 41.7266 12.7986 41.7266 12.7986C40.377 13.9606 38.6311 13.9405 37.5486 13.7737C37.842 13.9165 38.1476 14.0652 38.4773 14.2401C42.0381 16.1622 45.2388 19.3246 45.785 23.7055V23.6712C46.6145 27.9716 48.4576 29.0753 48.4576 29.0753Z" fill="white"/>
<path d="M14.417 33.8603C14.417 33.8603 15.6613 33.7055 16.1995 33.225C17.039 32.467 16.9805 31.5905 16.9805 31.5905C15.0787 31.5643 13.8344 30.921 12.8795 29.8314C11.8577 28.6492 11.6878 27.3766 11.6878 27.3766C11.6878 27.3766 12.7094 28.2974 14.6841 28.2974C14.8622 28.2974 15.0463 28.2894 15.2364 28.2712C16.1732 28.1968 16.8206 27.6057 16.8206 27.6057C14.7609 26.295 13.3165 24.007 14.5951 20.5611C15.6209 17.8006 18.083 15.7379 20.5656 14.1838C21.391 13.6712 21.8502 13.1021 21.8502 12.6116C21.8502 11.4576 20.2013 11.4194 19.5255 10.6454C18.7427 9.74479 19.2343 8.28313 19.91 7.40454C19.91 7.40454 19.6854 7.3584 19.3232 7.3584C18.6111 7.3584 17.3749 7.53531 16.3593 8.58273C15.0078 9.96996 15.5683 11.4797 15.5683 11.4797L15.2061 11.5502C14.9897 11.5963 14.7731 11.6044 14.5526 11.6164C14.5021 11.6164 14.4575 11.6185 14.409 11.6185C12.4445 11.6185 11.5725 9.58389 11.5725 9.58389C11.5725 9.58389 9.49063 12.1292 12.5557 14.1255C13.0838 14.4673 13.3145 14.7829 13.2538 15.1207L13.2051 15.3419L12.9826 15.3801C10.7632 15.9792 9.63634 17.5031 8.2626 19.2361C6.1807 21.8679 3.23291 21.9542 2.86482 21.9542H2.82422C2.82422 21.9542 3.49801 24.0674 5.48272 24.0674C5.51512 24.0674 5.54341 24.0673 5.57779 24.0654C6.49022 24.0331 6.95959 23.6854 6.95959 23.6854C6.95959 23.6854 7.31169 28.4802 3.71246 29.9681C3.71246 29.9681 4.368 31.1 5.87118 31.1H5.88942C7.69604 31.0899 8.42245 29.9963 8.42245 29.9963C8.42245 29.9963 8.3172 31.4196 8.96467 33.3396C9.74753 35.6537 8.96256 37.3083 8.96256 37.3083C8.96256 37.3083 9.38341 37.4209 9.86693 37.4209C10.0551 37.4209 10.2473 37.4029 10.4274 37.3546C11.9325 36.9987 12.3109 35.6356 12.3109 35.6356C12.3109 35.6356 12.1733 40.2416 17.5773 40.2416H17.6156C17.6156 40.2416 17.1423 39.5981 17.0047 37.7466C16.7458 34.3287 14.417 33.8603 14.417 33.8603ZM13.5492 34.6926C11.3783 32.1675 9.52303 29.5438 9.27816 25.7641C9.05366 26.4498 8.13104 28.3577 6.66634 29.0753C6.66634 29.0753 8.50733 27.9716 9.33488 23.6712V23.7055C9.88319 19.3267 13.0818 16.1622 16.6445 14.2401C16.9703 14.0632 17.2798 13.9145 17.5712 13.7737C16.4888 13.9405 14.7428 13.9606 13.3933 12.7986C13.3933 12.7986 15.4549 14.3065 19.6773 12.9374C18.508 13.6913 16.2399 14.7549 14.1641 16.4778C8.9767 21.0053 12.6872 25.4223 12.6872 25.4223C10.8219 23.4882 10.7471 21.4196 11.2953 19.7288C10.3121 21.3532 9.68486 23.3214 9.78601 25.7502C9.92761 29.2302 11.8516 32.2398 13.8728 34.6585C14.8501 35.8306 15.0706 37.274 15.0706 37.274C15.0706 37.274 14.6739 36.0014 13.5492 34.6926Z" fill="white"/>
<path d="M23.5651 17.0208C23.654 17.1152 23.741 17.2179 23.8241 17.3203C23.8443 17.3445 23.8624 17.3666 23.8826 17.3948C23.9596 17.4972 24.0385 17.6059 24.1134 17.7164C24.1295 17.7385 24.1458 17.7647 24.1639 17.7907C24.255 17.9275 24.34 18.0683 24.4249 18.2131C25.2038 19.5499 26.4522 20.3481 27.5588 20.3501C28.6675 20.3481 29.9118 19.5499 30.6948 18.2131C30.7818 18.0642 30.8688 17.9195 30.9597 17.7848C30.9739 17.7647 30.9882 17.7466 31.0002 17.7265C31.0771 17.6119 31.1581 17.4993 31.2431 17.3907C31.2612 17.3666 31.2774 17.3465 31.2936 17.3264C31.3806 17.2198 31.4696 17.1153 31.5607 17.0187C31.5768 17.0027 31.5889 16.9886 31.6031 16.9766C31.9996 16.5725 32.4731 16.2648 33.0921 16.094L32.817 15.9352H32.8009L31.7042 15.3019L30.5774 14.6605L27.5669 16.289L27.5588 16.2829L27.5527 16.289L24.5402 14.6605L23.4154 15.2998L22.3168 15.9331H22.3046L22.0254 16.092C22.6465 16.2628 23.1179 16.5664 23.5165 16.9705C23.5346 16.9866 23.5468 17.0047 23.5651 17.0208ZM26.3408 16.8901H27.6154H28.888V17.7586C28.5887 17.3948 28.006 17.4692 28.006 17.4692V18.7217C28.006 18.7217 28.0282 19.3369 28.2446 19.6042H27.6154H26.9842C27.2047 19.3389 27.225 18.7217 27.225 18.7217V17.4692C27.225 17.4692 26.6443 17.3948 26.3408 17.7586V16.8901Z" fill="white"/>
<path d="M27.2983 15.205V10.1206L24.041 9.02271L24.9008 13.9505L27.2983 15.205ZM26.5983 11.3691V12.1853L26.4405 12.1129C26.4324 12.1069 26.2018 12.0546 25.7971 11.7369C25.1295 11.2223 25.1174 10.7478 25.1174 10.7478L26.5983 11.3691Z" fill="white"/>
<path d="M30.2198 13.9505L31.0756 9.02271L27.8203 10.1206V15.205L30.2198 13.9505ZM28.5204 11.3691L30.0012 10.7498C30.0012 10.7498 29.9892 11.2243 29.3195 11.7389C28.9169 12.0566 28.6842 12.1088 28.6761 12.1149L28.5182 12.1872V11.3691H28.5204Z" fill="white"/>
<path d="M22.6918 26.9927C23.0095 27.1072 23.3939 27.1314 23.5901 27.1314C23.5983 27.1072 23.6083 27.077 23.6185 27.0409C23.6366 26.9826 23.6529 26.9263 23.6651 26.8619C23.7197 26.5806 23.7399 26.261 23.7439 26.0559C23.6103 25.9734 23.4222 25.8265 23.3171 25.6074C23.1957 25.3541 23.0237 25.2375 22.7707 25.2375C22.443 25.2375 22.091 25.4325 21.9412 25.5251C21.822 26.2266 22.3418 26.864 22.6918 26.9927Z" fill="white"/>
<path d="M29.8965 24.2943C29.2916 24.9477 28.108 26.0857 28.0493 26.144L27.9785 26.2164L24.2377 26.158C24.2356 26.526 24.1749 26.8396 24.1163 27.0688C24.1062 27.107 24.0961 27.1472 24.0859 27.1874L28.5369 27.9816C29.0002 27.6599 30.2748 26.735 30.7685 26.3732C30.4083 25.8505 30.3739 25.2312 30.4548 24.795C30.2202 24.6442 30.0401 24.4753 29.8965 24.2943Z" fill="white"/>
<path d="M30.4045 19.8235C29.5425 20.6739 28.7151 20.9875 27.9767 21.0599C27.8431 21.074 27.7076 21.0819 27.57 21.0819H27.5598H27.5517C27.4142 21.0819 27.2766 21.074 27.143 21.0599C27.0136 21.0478 26.8781 21.0277 26.7426 20.9976C26.6939 21.1885 26.6332 21.5886 26.8072 21.9666C26.963 22.3104 27.2807 22.5657 27.744 22.7347L27.8997 22.7949L27.9018 22.9618C27.9018 23.012 27.9382 24.0937 29.1258 24.3932C29.32 24.1942 29.496 24.0153 29.6256 23.8664C29.3827 23.2995 29.5101 22.7205 29.8622 22.437C29.8461 22.4973 29.6923 23.9168 30.8375 24.4434L31.0256 24.532L30.9689 24.731C30.9506 24.7913 30.5683 26.1645 31.9542 26.6751L32.199 26.7676L32.0897 27.0049C32.0655 27.0571 31.5213 28.3037 32.802 29.0113H35.5797V26.8199C34.5925 26.6992 34.1736 25.9112 34.0664 25.3522C33.6072 25.2738 33.2511 25.0768 33.0082 24.7551C32.4255 23.9931 32.9273 23.2955 32.9334 23.2573C32.9314 23.2634 32.9334 24.0072 33.3947 24.4656C33.6233 24.6867 33.8945 24.8577 34.3051 24.8959L34.5074 24.914L34.5257 25.1191C34.5296 25.1632 34.641 26.1685 35.5817 26.3273L35.5797 21.852C35.5797 21.1584 35.7841 20.4608 36.0289 19.8174H30.4045V19.8235Z" fill="white"/>
<path d="M22.9283 21.8735L22.8535 24.7244L23.1791 24.7727L23.9763 22.0384L23.5717 21.198L22.9283 21.8735Z" fill="white"/>
<path d="M31.7185 34.948C31.7428 34.948 31.7711 34.9521 31.7974 34.9581C32.2931 35.0989 32.4186 36.8761 33.2885 37.0349C33.3735 37.053 33.4524 37.057 33.5212 37.057C33.7721 37.057 33.9218 36.9504 34.0836 36.7615C34.0836 36.7615 33.6466 36.0779 33.3189 35.6176C32.8839 35.0144 32.5461 34.2845 31.7368 34.2845C31.7185 34.2845 31.6943 34.2845 31.6741 34.2867C31.407 34.3007 31.2431 34.4293 31.2431 34.4293C30.9153 34.2243 30.6099 34.1539 30.3326 34.1539C29.8249 34.1539 29.4304 34.3852 29.234 34.3852H29.226L27.4172 34.2083C27.134 34.1821 26.9115 33.8986 26.8306 33.7881C26.8103 33.7578 26.8002 33.7398 26.8002 33.7398C26.8002 33.6915 26.8002 33.6413 26.7962 33.597C26.7355 32.1274 25.5904 31.4981 25.1837 31.488C25.1837 31.488 25.2322 31.2086 25.121 31.1021L24.7224 31.5825L23.4134 30.9291L24.3461 32.0128L23.555 32.8953C23.4558 32.996 23.468 33.1327 23.5085 33.1889L23.8504 33.4885L24.2834 33.2271C24.3056 33.2111 24.3441 33.207 24.3926 33.207C24.512 33.207 24.6921 33.2371 24.8539 33.2371C25.0299 33.2371 25.1837 33.1989 25.2019 33.034C25.1473 33.5789 24.6395 34.5258 24.9733 35.2697L25.2202 35.8307L23.6218 35.6014L22.8732 36.858C22.6426 37.2762 22.6062 37.7285 22.8287 37.9738L23.1078 38.3217C23.1078 38.3217 23.5004 37.9074 23.5894 37.636L23.4619 37.4973C23.3547 37.3807 23.3608 37.2762 23.4256 37.1496L23.8949 36.3754L25.7825 36.8178L25.8816 36.6489C26.0091 36.4378 26.1933 36.3734 26.3956 36.3734C26.4785 36.3734 26.5635 36.3835 26.6525 36.3976C27.0026 36.466 27.5792 36.5584 28.1558 36.5584C28.789 36.5584 29.4162 36.4459 29.7499 36.074C30.4338 37.0812 31.8197 37.242 31.7104 37.7526L31.3463 39.4777C31.5871 39.4676 31.8197 39.4515 32.0402 39.4213L32.3862 37.6259C32.4247 37.4309 32.461 37.1675 32.461 37.1675C32.3275 37.0329 32.0038 36.7474 31.8218 36.4016C31.5769 35.9351 31.7104 35.6919 31.4818 35.0847C31.4899 35.0888 31.5587 34.948 31.7185 34.948ZM24.6577 32.4269C24.5646 32.4249 24.4978 32.3465 24.5018 32.2541C24.51 32.1656 24.5848 32.0952 24.6758 32.1032C24.7689 32.1073 24.8357 32.1877 24.8317 32.2762C24.8235 32.3646 24.7467 32.433 24.6577 32.4269Z" fill="white"/>
<path d="M22.0794 36.5804C22.0794 36.5804 22.7045 36.3251 22.7611 36.1421L22.6782 35.935C22.6195 35.8003 22.6276 35.6535 22.7409 35.5732L23.4166 35.1087L24.5456 35.3238C24.5456 35.3238 24.3412 35.0705 24.3615 34.7307L23.2852 34.5035L22.2695 35.1187C21.8345 35.4424 21.8021 35.9711 21.9458 36.2847L22.0794 36.5804Z" fill="white"/>
<path d="M30.0586 39.5037C30.2609 39.4957 30.4834 39.4917 30.7283 39.4917C30.7283 39.4917 31.309 37.8049 31.3412 37.7507C31.0156 37.6079 30.3398 37.2519 30.0788 37.0892C30.2508 37.3445 30.6696 37.638 30.5867 37.8632L30.0586 39.5037Z" fill="white"/>
<path d="M35.5851 29.4998H19.5352V35.499C19.5352 37.9518 21.3218 39.4879 23.9579 39.4879C26.1612 39.4879 26.7417 39.5722 27.5612 40.3805C28.1257 39.8216 28.5931 39.6124 29.552 39.534L29.5742 39.4416L30.08 37.8875C30.0517 37.8533 29.2243 36.9185 29.2243 36.9185C28.8965 37.0271 28.6214 37.0452 28.1581 37.0452C27.6826 37.0452 27.1465 36.9908 26.5658 36.8823C26.5071 36.8683 26.4525 36.8642 26.3978 36.8642C26.327 36.8642 26.321 36.8702 26.3028 36.9044L26.2016 37.0692L26.0175 37.3708L25.6716 37.2924L24.1319 36.9325L23.9214 37.2784L23.9538 37.3145L24.142 37.5196L24.0591 37.787C23.9457 38.1368 23.5775 38.5449 23.4663 38.6576L23.0818 39.0677L22.7319 38.6274L22.4689 38.2997C22.1916 37.9921 22.127 37.5196 22.2827 37.0251C22.2786 37.029 22.2725 37.031 22.2666 37.031L21.8316 37.21L21.6352 36.7877L21.4977 36.4883C21.2611 35.9615 21.3479 35.1915 21.9854 34.727L23.2256 34.0314L24.4051 34.2627C24.4334 34.15 24.4758 33.7479 24.5102 33.6455C24.488 33.6435 24.4658 33.6374 24.4434 33.6374L23.7637 33.8887L23.1081 33.4384C23.1081 33.4384 22.8512 33.193 23.0838 32.9478L23.7191 31.9929L22.1107 29.9863L24.583 30.9957L24.747 30.7926L25.0807 30.3965L25.4591 30.7544C25.5663 30.8569 25.627 30.9835 25.6573 31.1102C26.3391 31.3736 27.5591 32.1517 27.6663 33.4162L27.284 33.569V33.5791C27.371 33.6816 27.4438 33.7239 27.466 33.7278L29.2303 33.9008C29.2748 33.8927 29.3315 33.8726 29.3942 33.8545C29.6127 33.7802 29.9425 33.6736 30.3329 33.6736C30.6506 33.6736 30.958 33.7459 31.2534 33.8827C31.3627 33.8425 31.4963 33.8123 31.6501 33.8023L31.7349 33.8003C32.6798 33.8003 33.1491 34.5018 33.5256 35.0609C33.5882 35.1572 33.6509 35.2498 33.7157 35.3402C34.0454 35.8027 34.4763 36.4802 34.4946 36.5084L34.6888 36.81L34.45 37.0854C34.266 37.2964 33.9908 37.5438 33.5174 37.5438C33.4203 37.5438 33.3131 37.5337 33.1978 37.5115C33.0967 37.4935 33.0056 37.4632 32.9166 37.4271C32.9024 37.5196 32.8842 37.6302 32.8659 37.7246L32.5564 39.329C34.4076 38.8767 35.5831 37.4874 35.5831 35.5011L35.5851 29.4998Z" fill="#FFDD2D"/>
<path d="M19.5368 29.0174H32.0178C31.3946 28.3781 31.4028 27.5679 31.5626 27.0411C31.3805 26.9546 31.2308 26.85 31.0973 26.7375C30.6097 27.0953 29.1206 28.173 28.7322 28.4423L28.6493 28.4987L23.7511 27.6181H23.652C23.5347 27.6181 23.3627 27.614 23.1745 27.5919C23.1219 27.8111 22.9318 27.9619 22.7132 27.9619C22.6889 27.9619 22.6606 27.9599 22.6343 27.9538C22.5068 27.9317 22.3957 27.8673 22.3208 27.7608C22.2439 27.6563 22.2136 27.5316 22.2358 27.403L22.254 27.2984C21.7482 26.9446 21.2829 26.1544 21.4892 25.3221L21.5094 25.2337L21.5803 25.1834C21.5904 25.1754 21.6753 25.1191 21.8008 25.0467L21.4447 24.9924C21.3112 24.9683 21.2222 24.8456 21.2425 24.715C21.2647 24.5823 21.3901 24.4877 21.5216 24.5139L22.3693 24.6466L22.4462 21.6791L23.7087 20.3522L24.4957 21.9989L23.6641 24.8537L24.4128 24.9703C24.5442 24.9904 24.6353 25.113 24.6151 25.2477C24.5948 25.3663 24.4937 25.4488 24.3743 25.4488C24.3621 25.4488 24.348 25.4488 24.3358 25.4468L23.7268 25.3483C23.735 25.3663 23.747 25.3763 23.7552 25.3964C23.8199 25.5292 23.9636 25.6257 24.0485 25.6659L27.7834 25.7242C27.9411 25.5714 28.3337 25.1894 28.7363 24.7853C27.8178 24.4395 27.4839 23.6514 27.4272 23.1286C26.9134 22.9115 26.5593 22.5859 26.3631 22.1616C26.1243 21.637 26.2093 21.1122 26.272 20.8569C25.7743 20.6759 25.2504 20.3463 24.7162 19.8195H19.0918C19.3326 20.4627 19.5368 21.1605 19.5368 21.8541V29.0174Z" fill="#FFDD2D"/>
<path d="M24.6763 32.1031C24.5852 32.095 24.5084 32.1653 24.5023 32.2538C24.4962 32.3462 24.565 32.4246 24.6581 32.4266C24.747 32.4347 24.826 32.3663 24.834 32.2759C24.834 32.1874 24.7694 32.1051 24.6763 32.1031Z" fill="black"/>
<path d="M35.5645 42.9815L34.6399 42.6296L34.8948 41.6807L35.176 40.6453C35.176 40.6453 33.5372 41.528 31.2288 42.1915C30.5733 42.3784 30.0776 42.4628 30.0776 42.4628V43.1664C30.0776 43.1664 28.8435 43.3796 27.5952 43.3796H27.5809H27.5628H27.5385H27.5243C26.2761 43.3796 25.0419 43.1664 25.0419 43.1664V42.4628C25.0419 42.4628 24.5441 42.3784 23.8907 42.1915C21.5822 41.528 19.9455 40.6453 19.9455 40.6453L20.2226 41.6807L20.4836 42.6296L19.557 42.9815L18.5293 43.3634C19.7088 43.9284 21.3414 44.7528 22.8367 45.1588L22.4846 46.1158C22.4846 46.1158 24.3803 46.9743 27.5385 46.9824V46.9844H27.5487H27.5628H27.575H27.583V46.9824C30.7453 46.9743 32.6389 46.1158 32.6389 46.1158L32.2848 45.1588C33.7799 44.7528 35.4168 43.9284 36.5902 43.3634L35.5645 42.9815ZM19.6258 43.4278L21.1472 42.9253L20.6981 41.4676C21.3677 41.8456 22.8711 42.4125 23.7409 42.6759L23.0066 44.6803C21.6631 44.3125 20.5443 43.8842 19.6258 43.4278ZM27.5628 46.4797C25.7965 46.4797 23.7794 46.0756 23.1867 45.8666L24.0889 43.4399C24.8375 43.6571 26.3954 43.8882 27.5263 43.8801H27.5284H27.5628H27.5931H27.5972C28.7282 43.8882 30.2819 43.6571 31.0346 43.4399L31.9348 45.8666C31.3421 46.0776 29.327 46.4797 27.5628 46.4797ZM32.1149 44.6803L31.3826 42.6759C32.2545 42.4125 33.7536 41.8456 34.4254 41.4676L33.9783 42.9253L35.4977 43.4278C34.5771 43.8842 33.4643 44.3125 32.1149 44.6803Z" fill="black"/>
<path d="M27.5607 5.10447C29.4423 5.10447 30.9474 5.72378 31.779 6.38526C31.779 6.38526 32.0258 4.90747 32.8695 3.60275L31.3541 3.77357L30.5611 2.0989L29.0376 2.87899L27.5607 1.42737L26.0878 2.87899L24.5624 2.0989L23.7713 3.77357L22.2559 3.60275C23.0995 4.90747 23.3464 6.38526 23.3464 6.38526C24.1799 5.72378 25.6811 5.10447 27.5607 5.10447ZM23.7024 4.36062L24.1233 4.40491L24.3054 4.02492L24.8354 2.89908L25.8187 3.40362L26.1991 3.59666L26.5026 3.29917L27.5627 2.25373L28.6249 3.29917L28.9284 3.59666L29.3087 3.40362L30.286 2.89908L30.8221 4.02492L31.0001 4.40491L31.4209 4.36062L31.8215 4.31236C31.6374 4.72461 31.5018 5.11452 31.4046 5.43832C30.3445 4.85128 28.9647 4.51743 27.5587 4.51743C26.1587 4.51743 24.7808 4.85128 23.7166 5.43832C23.6176 5.11452 23.484 4.72249 23.2998 4.31236L23.7024 4.36062Z" fill="black"/>
<path d="M49.6341 24.7126C52.0681 24.7126 52.8813 22.2519 52.9157 22.1473L53.1868 21.2807L52.2743 21.3089H52.2704C51.9487 21.3089 49.2639 21.2385 47.3601 18.834L47.18 18.6109C45.9358 17.0387 44.7563 15.5449 42.6481 14.8633C42.7088 14.8091 42.7958 14.7407 42.9152 14.6643C44.034 13.9325 44.6854 13.0438 44.8493 12.0125C45.088 10.4604 44.0927 9.22394 44.0482 9.17369L43.3704 8.34138L42.9476 9.32852C42.9193 9.3908 42.207 10.9711 40.7099 10.9711H40.5986C40.4955 10.965 40.3983 10.961 40.3012 10.9529C40.3539 10.2473 40.2243 9.15558 39.229 8.13222C38.0332 6.89982 36.5644 6.71484 35.7957 6.71484C35.3849 6.71484 35.1118 6.76509 35.0834 6.76919L34.0598 6.97016L34.691 7.79652C35.1867 8.43381 35.6358 9.61001 35.1036 10.2252C34.9337 10.4202 34.5838 10.579 34.2479 10.7378C33.558 11.0534 32.6172 11.4917 32.6172 12.6096C32.6172 13.3334 33.1817 14.0893 34.2054 14.7326C37.2362 16.6265 39.1055 18.6028 39.9128 20.7841C41.1611 24.1397 39.5324 26.0536 37.9503 27.0609L37.2401 27.5152L37.8613 28.0821C37.9442 28.1546 38.705 28.82 39.8278 28.9166C40.0402 28.9306 40.2445 28.9426 40.4348 28.9426C41.155 28.9426 41.7681 28.8301 42.2657 28.6792C42.1281 28.9185 41.9602 29.1618 41.7478 29.4071C40.8435 30.4484 39.7307 30.923 38.1304 30.9471L37.5355 30.9572L37.489 31.5502C37.4829 31.6688 37.4385 32.7686 38.4864 33.7035C38.6463 33.8481 38.8405 33.9669 39.0428 34.0654C38.3327 34.7007 37.6103 35.8064 37.4709 37.7023C37.3535 39.2845 36.9731 39.8696 36.9691 39.8755L36.3116 40.8727L37.4992 40.8889C39.4617 40.8889 40.9648 40.3501 42.0067 39.2845C42.6218 38.6532 42.9739 37.9415 43.1823 37.3103C43.5242 37.5997 43.9653 37.853 44.5397 37.9877C44.7583 38.038 44.9971 38.0661 45.254 38.0661C45.8084 38.0661 46.2717 37.9495 46.3243 37.9375L47.0829 37.7364L46.7471 37.0327C46.7228 36.9765 46.0896 35.5651 46.7713 33.5506C47.0647 32.6801 47.2144 31.9 47.2872 31.2929C47.7647 31.5401 48.4041 31.7452 49.2315 31.7472C51.109 31.7472 51.9365 30.354 51.975 30.2957L52.3452 29.6563L51.6594 29.3749C49.4217 28.4521 48.9261 25.9731 48.8269 24.6302C49.0292 24.6684 49.2599 24.7046 49.5208 24.7126H49.6341ZM51.4084 29.9679C51.4084 29.9679 50.7529 31.0999 49.2497 31.0999H49.2315C47.4268 31.0898 46.6985 29.9961 46.6985 29.9961C46.6985 29.9961 46.8037 31.4196 46.1523 33.3395C45.3693 35.6536 46.1583 37.3083 46.1583 37.3083C46.1583 37.3083 45.7375 37.4208 45.252 37.4208C45.0658 37.4208 44.8716 37.4027 44.6895 37.3544C43.1823 36.9986 42.806 35.6355 42.806 35.6355C42.806 35.6355 42.9455 40.2415 37.5416 40.2415H37.4992C37.4992 40.2415 37.9746 39.5981 38.1162 37.7464C38.3731 34.3287 40.7019 33.8603 40.7019 33.8603C40.7019 33.8603 39.4595 33.7055 38.9214 33.225C38.0797 32.467 38.1384 31.5904 38.1384 31.5904C40.0402 31.5643 41.2845 30.921 42.2333 29.8293C43.2612 28.6471 43.4311 27.3745 43.4311 27.3745C43.4311 27.3745 42.4093 28.2953 40.4328 28.2953C40.2588 28.2953 40.0726 28.2872 39.8824 28.2691C38.9477 28.1948 38.3003 27.6036 38.3003 27.6036C40.3578 26.2928 41.8024 24.0049 40.5218 20.5589C39.496 17.7986 37.0318 15.7359 34.5514 14.1818C33.7259 13.6691 33.2666 13.1002 33.2666 12.6096C33.2666 11.4556 34.9176 11.4194 35.5954 10.6433C36.3762 9.74263 35.8866 8.28109 35.2089 7.40251C35.2089 7.40251 35.4375 7.35623 35.7976 7.35623C36.5118 7.35623 37.748 7.53512 38.7636 8.58057C40.1131 9.96779 39.5526 11.4777 39.5526 11.4777L39.9148 11.5481C40.1313 11.5943 40.3458 11.6024 40.5683 11.6124C40.6168 11.6124 40.6654 11.6144 40.7139 11.6144C42.6744 11.6144 43.5505 9.57775 43.5505 9.57775C43.5505 9.57775 45.6344 12.1251 42.5672 14.1194C42.0391 14.4612 41.8064 14.7768 41.8672 15.1146L41.9158 15.3358L42.1342 15.374C44.3577 15.9731 45.4826 17.4971 46.8563 19.23C48.9422 21.8658 51.8941 21.9503 52.2582 21.9503H52.2967C52.2967 21.9503 51.6229 24.0632 49.6382 24.0632C49.6058 24.0632 49.5775 24.0632 49.5431 24.0613C48.6307 24.029 48.1633 23.6813 48.1633 23.6813C48.1633 23.6813 47.8052 28.4802 51.4084 29.9679Z" fill="black"/>
<path d="M45.3606 15.1289C46.2689 15.6093 46.797 16.2527 47.2603 16.8236C47.7155 17.3805 48.1485 17.9173 48.8241 18.1405C49.0649 18.223 49.3198 18.2612 49.5788 18.2612C50.5944 18.2612 51.6142 17.6439 52.0005 16.7895L52.389 15.933L51.4483 15.8767C51.4037 15.8747 50.1939 15.7661 48.8465 14.397C48.2921 13.8362 47.6224 13.5405 46.9001 13.5405C46.0181 13.5405 45.3645 13.9788 45.2917 14.0231L44.4258 14.6283L45.3606 15.1289ZM46.9022 14.188C47.3553 14.188 47.8834 14.3407 48.3832 14.8534C49.951 16.4357 51.4098 16.5241 51.4098 16.5241C51.1448 17.1071 50.376 17.6198 49.5808 17.6198C49.3968 17.6198 49.2126 17.5917 49.0285 17.5294C47.9502 17.1675 47.5637 15.5591 45.668 14.5578C45.668 14.5578 46.1982 14.188 46.9022 14.188Z" fill="black"/>
<path d="M45.784 23.6714V23.7037C45.2378 19.3249 42.0371 16.1624 38.4763 14.2384C38.1466 14.0634 37.8431 13.9147 37.5477 13.7719C38.6321 13.9388 40.3781 13.9589 41.7255 12.7968C41.7255 12.7968 39.6639 14.3047 35.4395 12.9356C36.609 13.6895 38.881 14.7531 40.9547 16.476C46.1402 21.0035 42.4296 25.4205 42.4296 25.4205C44.293 23.4886 44.3698 21.4178 43.8216 19.727C44.8028 21.3494 45.43 23.3196 45.3328 25.7483C45.1893 29.2284 43.2652 32.2381 41.2399 34.6567C40.2668 35.8308 40.0484 37.2723 40.0484 37.2723C40.0484 37.2723 40.4408 35.9997 41.5677 34.6908C43.7386 32.1658 45.5938 29.542 45.8366 25.7623C46.0612 26.448 46.9858 28.3559 48.4526 29.0736C48.4566 29.0756 46.6135 27.9719 45.784 23.6714Z" fill="black"/>
<path d="M18.1495 39.8735C18.1475 39.8675 17.7712 39.2825 17.6499 37.7002C17.5083 35.8044 16.7879 34.6986 16.0758 34.0633C16.2822 33.9668 16.4723 33.8482 16.6322 33.7015C17.6782 32.7665 17.6336 31.6669 17.6275 31.5483L17.5871 30.9552L16.9882 30.9451C15.392 30.9189 14.2771 30.4445 13.3728 29.405C13.1624 29.1598 12.9925 28.9165 12.8549 28.6773C13.3525 28.828 13.9615 28.9407 14.6838 28.9407C14.8781 28.9407 15.0784 28.9285 15.2908 28.9145C16.4136 28.818 17.1744 28.1544 17.2593 28.0802L17.8804 27.5133L17.1703 27.0588C15.5821 26.0496 13.9595 24.1356 15.2058 20.7822C16.013 18.6008 17.8804 16.6244 20.9152 14.7305C21.939 14.0871 22.4993 13.3314 22.4993 12.6076C22.4993 11.4897 21.5606 11.0495 20.8707 10.7358C20.5348 10.577 20.1849 10.4182 20.015 10.2232C19.4808 9.60991 19.9319 8.43185 20.4256 7.79443L21.0609 6.9682L20.0331 6.7671C20.0028 6.76313 19.7337 6.71289 19.321 6.71289C18.5521 6.71289 17.0874 6.89786 15.8896 8.13026C14.8922 9.15561 14.7608 10.2473 14.8113 10.9509C14.7142 10.959 14.6171 10.9631 14.5159 10.969H14.4067C12.9055 10.969 12.1954 9.38884 12.1671 9.32644L11.7441 8.3393L11.0603 9.17161C11.0219 9.22199 10.0225 10.4604 10.2653 12.0104C10.4271 13.0417 11.0785 13.9303 12.1973 14.6623C12.3187 14.7387 12.4037 14.807 12.4644 14.8614C10.3584 15.5428 9.18082 17.0386 7.93652 18.6108L7.75644 18.834C5.85475 21.2385 3.16386 21.309 2.84218 21.309L1.92578 21.2808L2.20489 22.1472C2.23728 22.2517 3.04857 24.7126 5.48441 24.7126L5.60182 24.7087C5.85872 24.7006 6.08944 24.6664 6.29583 24.6262C6.19455 25.9671 5.69887 28.4461 3.45923 29.3709L2.7754 29.6524L3.14575 30.2916C3.18211 30.3499 4.01164 31.7433 5.89309 31.7433C6.71456 31.7412 7.35383 31.5361 7.83339 31.2889C7.90624 31.896 8.05591 32.6761 8.3493 33.5466C9.03115 35.5611 8.39584 36.9724 8.37151 37.0287L8.03568 37.7325L8.79646 37.9335C8.84697 37.9455 9.31436 38.062 9.86663 38.062C10.1256 38.062 10.3644 38.0339 10.5789 37.9836C11.1555 37.8489 11.6005 37.5958 11.9383 37.3062C12.1447 37.9374 12.4988 38.6492 13.1119 39.2805C14.1557 40.346 15.6569 40.8847 17.6194 40.8847L18.8091 40.8688L18.1495 39.8735ZM17.5749 40.2415C12.171 40.2415 12.3087 35.6355 12.3087 35.6355C12.3087 35.6355 11.9324 36.9986 10.4251 37.3545C10.245 37.4027 10.0528 37.4209 9.86464 37.4209C9.37914 37.4209 8.96028 37.3081 8.96028 37.3081C8.96028 37.3081 9.74525 35.6536 8.96226 33.3396C8.31492 31.4195 8.42017 29.9962 8.42017 29.9962C8.42017 29.9962 7.69377 31.0898 5.88715 31.0998H5.8689C4.36572 31.0998 3.71018 29.9679 3.71018 29.9679C7.31139 28.4822 6.95731 23.6853 6.95731 23.6853C6.95731 23.6853 6.49006 24.031 5.57551 24.0653C5.54312 24.0672 5.51284 24.0673 5.48044 24.0673C3.49361 24.0673 2.82195 21.9543 2.82195 21.9543H2.8624C3.22865 21.9543 6.17644 21.8698 8.2623 19.234C9.63604 17.501 10.7629 15.9791 12.9823 15.3781L13.2048 15.3399L13.2535 15.1187C13.3142 14.7809 13.0835 14.4653 12.5555 14.1234C9.48835 12.127 11.5722 9.58175 11.5722 9.58175C11.5722 9.58175 12.4442 11.6165 14.4087 11.6165C14.4572 11.6165 14.5018 11.6144 14.5523 11.6144C14.7728 11.6023 14.9914 11.5943 15.2058 11.5481L15.568 11.4777C15.568 11.4777 15.0075 9.96782 16.359 8.5806C17.3747 7.53317 18.6108 7.35626 19.3229 7.35626C19.6851 7.35626 19.9097 7.40241 19.9097 7.40241C19.234 8.28298 18.7444 9.74266 19.5252 10.6434C20.201 11.4174 21.8499 11.4556 21.8499 12.6096C21.8499 13.0981 21.3907 13.6692 20.5653 14.1818C18.0827 15.7359 15.6186 17.7986 14.5948 20.559C13.3162 24.005 14.7587 26.2908 16.8203 27.6037C16.8203 27.6037 16.1729 28.1947 15.2362 28.2692C15.046 28.2873 14.8619 28.2952 14.6838 28.2952C12.7092 28.2952 11.6875 27.3744 11.6875 27.3744C11.6875 27.3744 11.8574 28.6472 12.8792 29.8293C13.8341 30.9209 15.0784 31.5642 16.9802 31.5905C16.9802 31.5905 17.0409 32.467 16.1992 33.2248C15.6591 33.7033 14.4167 33.8602 14.4167 33.8602C14.4167 33.8602 16.7475 34.3286 17.0024 37.7464C17.142 39.598 17.6134 40.2415 17.6134 40.2415H17.5749Z" fill="black"/>
<path d="M5.54056 18.2635C5.80156 18.2635 6.05647 18.2252 6.29711 18.1427C6.97697 17.9196 7.40787 17.3828 7.86309 16.8259C8.3285 16.2549 8.85248 15.6116 9.76081 15.1311L10.6956 14.6325L9.82758 14.0273C9.75473 13.9811 9.10329 13.5449 8.22325 13.5449C7.49897 13.5449 6.8273 13.8384 6.2749 14.4012C4.92747 15.7684 3.71966 15.8789 3.6751 15.881L2.73438 15.9352L3.12085 16.7937C3.50917 17.6441 4.52685 18.2635 5.54056 18.2635ZM6.73819 14.8557C7.23995 14.3429 7.76803 14.1902 8.22325 14.1902C8.92321 14.1902 9.45327 14.56 9.45327 14.56C7.55965 15.5633 7.1712 17.1698 6.08874 17.5316C5.91077 17.5939 5.72461 17.6221 5.54056 17.6221C4.7454 17.6221 3.97656 17.1114 3.71358 16.5264C3.71358 16.5244 5.17022 16.4358 6.73819 14.8557Z" fill="black"/>
<path d="M9.78585 25.7502C9.68471 23.3215 10.312 21.3512 11.2951 19.7288C10.7468 21.4196 10.8217 23.4904 12.6871 25.4225C12.6871 25.4225 8.97655 21.0055 14.1639 16.4779C16.2398 14.7549 18.5098 13.6913 19.6772 12.9374C15.4548 14.3065 13.3931 12.7987 13.3931 12.7987C14.7405 13.9608 16.4866 13.9407 17.5711 13.7719C17.2777 13.9145 16.9701 14.0633 16.6443 14.2382C13.0796 16.1622 9.88092 19.3247 9.33261 23.7035V23.6694C8.5052 27.9698 6.66406 29.0735 6.66406 29.0735C8.1289 28.3557 9.05152 26.4498 9.27602 25.7623C9.52089 29.542 11.376 32.1656 13.5469 34.6908C14.6738 35.9995 15.0704 37.2722 15.0704 37.2722C15.0704 37.2722 14.8499 35.8306 13.8727 34.6565C11.8515 32.242 9.92746 29.2303 9.78585 25.7502Z" fill="black"/>
<path d="M26.3398 16.8901V17.7586C26.6413 17.3947 27.224 17.4692 27.224 17.4692V18.7217C27.224 18.7217 27.2037 19.3369 26.9832 19.6042H27.6144H28.2436C28.0272 19.3389 28.0048 18.7217 28.0048 18.7217V17.4692C28.0048 17.4692 28.5875 17.3947 28.887 17.7586V16.8901H27.6144H26.3398Z" fill="black"/>
<path d="M25.7969 11.7392C26.1995 12.057 26.4322 12.1092 26.4403 12.1153L26.5981 12.1876V11.3693L25.1172 10.7501C25.1172 10.7521 25.1313 11.2245 25.7969 11.7392Z" fill="black"/>
<path d="M29.3206 11.7392C29.9903 11.2245 30.0024 10.7501 30.0024 10.7501L28.5215 11.3693V12.1876L28.6772 12.1153C28.6874 12.1092 28.918 12.057 29.3206 11.7392Z" fill="black"/>
<path d="M31.989 8.40776C31.989 7.1673 29.8869 6.05151 27.5663 6.05151H27.5643H27.5583H27.5522C25.2316 6.05151 23.1295 7.1673 23.1295 8.40776L23.1761 8.71332L24.1026 13.9989L23.1721 14.5357L20.7644 15.933H20.7726C20.7726 15.933 20.2304 16.2084 19.9794 16.3793C19.063 17.0127 18.8688 17.9354 19.4008 18.3174C19.5324 17.5655 20.1312 16.7774 21.252 16.7774C22.0593 16.7774 22.6743 17.1915 23.1721 17.8128C23.2995 17.9696 23.4209 18.1365 23.5342 18.3174C23.6737 18.5445 23.8133 18.7437 23.953 18.9367H17.752C18.2072 19.8474 18.6401 20.8125 18.6401 21.8599V35.4989C18.6401 38.8001 21.1954 40.3763 23.959 40.3763C26.0955 40.3763 26.3829 40.2798 27.5624 41.4458C28.7358 40.2778 29.0231 40.3763 31.1616 40.3763C33.9272 40.3763 36.4785 38.8001 36.4785 35.4989V21.8599C36.4785 20.8125 36.9115 19.8474 37.3687 18.9367H31.1656C31.3032 18.7456 31.4428 18.5445 31.5823 18.3174C31.6977 18.1365 31.817 17.9696 31.9425 17.8128C32.4442 17.1896 33.0572 16.7774 33.8645 16.7774C34.9853 16.7774 35.5822 17.5635 35.7157 18.3174C36.2479 17.9354 36.0556 17.0127 35.133 16.3793C34.8862 16.2084 34.3439 15.933 34.3439 15.933H34.3521L31.9445 14.5357L31.0179 13.9989L31.9445 8.71332L31.989 8.40776ZM24.0419 9.02297L27.2993 10.1207V15.2052L24.9019 13.9487L24.0419 9.02297ZM24.7157 19.8232C25.2499 20.3519 25.7739 20.6797 26.2715 20.8606C26.2067 21.116 26.1219 21.6428 26.3626 22.1674C26.5588 22.5896 26.9149 22.9154 27.4267 23.1325C27.4834 23.6553 27.8152 24.4413 28.7358 24.7892C28.3332 25.1932 27.9406 25.5732 27.7808 25.728L24.048 25.6697C23.9631 25.6274 23.8194 25.533 23.7548 25.3983C23.7466 25.3802 23.7345 25.3701 23.7285 25.35L24.3373 25.4485C24.3516 25.4505 24.3636 25.4505 24.3758 25.4505C24.4932 25.4505 24.5963 25.3701 24.6166 25.2495C24.6368 25.1148 24.5458 24.9921 24.4143 24.972L23.6657 24.8554L24.4972 22.0025L23.7102 20.356L22.4478 21.683L22.3708 24.6503L21.5232 24.5177C21.3916 24.4915 21.2662 24.5881 21.244 24.7187C21.2237 24.8495 21.3127 24.972 21.4462 24.9962L21.8023 25.0504C21.6749 25.1229 21.592 25.1791 21.5818 25.1871L21.5089 25.2374L21.4887 25.326C21.2824 26.1583 21.7497 26.9484 22.2536 27.3022L22.2353 27.4067C22.2151 27.5355 22.2434 27.66 22.3203 27.7646C22.3931 27.8712 22.5064 27.9355 22.6318 27.9576C22.6582 27.9616 22.6864 27.9636 22.7108 27.9636C22.9292 27.9636 23.1195 27.8128 23.1741 27.5938C23.3622 27.6158 23.5342 27.6198 23.6515 27.6198H23.7507L28.6488 28.4984L28.7317 28.4442C29.1221 28.1727 30.6092 27.0952 31.0968 26.7392C31.2303 26.8539 31.38 26.9585 31.5621 27.0448C31.4043 27.5715 31.3942 28.3818 32.0194 29.0212H19.5364V21.8619C19.5364 21.1683 19.3321 20.4707 19.0913 19.8273H24.7157V19.8232ZM30.769 26.3734C30.2734 26.7353 28.9988 27.66 28.5375 27.9817L24.0865 27.1876C24.0967 27.1474 24.1067 27.1092 24.1169 27.069C24.1755 26.8397 24.2342 26.5261 24.2383 26.1583L27.9791 26.2186L28.0499 26.1461C28.1066 26.0899 29.2922 24.9519 29.8971 24.2965C30.0407 24.4754 30.2207 24.6464 30.4554 24.7971C30.3745 25.2314 30.4089 25.8506 30.769 26.3734ZM23.3177 25.6073C23.4229 25.8265 23.613 25.9733 23.7446 26.0557C23.7405 26.2607 23.7203 26.5804 23.6657 26.8619C23.6535 26.9242 23.6374 26.9825 23.6191 27.0408C23.6091 27.0771 23.5989 27.1072 23.5908 27.1313C23.3946 27.1313 23.0081 27.1072 22.6925 26.9926C22.3426 26.8639 21.8206 26.2266 21.9419 25.525C22.0937 25.4324 22.4437 25.2374 22.7715 25.2374C23.0244 25.2354 23.1963 25.354 23.3177 25.6073ZM22.8544 24.7248L22.9292 21.8759L23.5726 21.1984L23.9773 22.0388L23.1801 24.773L22.8544 24.7248ZM30.7286 39.4937C30.4858 39.4937 30.2612 39.4977 30.0589 39.5058L30.589 37.8672C30.672 37.64 30.2531 37.3485 30.0811 37.0932C30.3421 37.2561 31.0179 37.6119 31.3437 37.7547C31.3093 37.8069 30.7286 39.4937 30.7286 39.4937ZM32.3916 37.632L32.0457 39.4254C31.8252 39.4555 31.5905 39.4715 31.3497 39.4816L31.7139 37.7567C31.8231 37.2439 30.4373 37.0851 29.7535 36.0779C29.4196 36.4518 28.7904 36.5625 28.1592 36.5625C27.5826 36.5625 27.006 36.4699 26.6559 36.4016C26.5669 36.3876 26.4819 36.3775 26.399 36.3775C26.1967 36.3775 26.0125 36.4398 25.8851 36.6529L25.7839 36.8218L23.8964 36.3795L23.427 37.1515C23.3602 37.2762 23.3561 37.3828 23.4634 37.4992L23.5908 37.6381C23.5038 37.9115 23.1114 38.3236 23.1114 38.3236L22.8302 37.9757C22.6075 37.7285 22.644 37.2782 22.8767 36.86L23.6252 35.6034L25.2236 35.8326L24.9747 35.2697C24.6409 34.5258 25.1487 33.5789 25.2033 33.034C25.1851 33.1989 25.0333 33.2351 24.8553 33.2351C24.6935 33.2351 24.5134 33.2049 24.394 33.2049C24.3475 33.2049 24.307 33.2089 24.2848 33.225L23.8518 33.4864L23.5099 33.1868C23.4694 33.1285 23.4553 32.9938 23.5564 32.8933L24.3475 32.0127L23.4129 30.9291L24.7218 31.5825L25.1203 31.102C25.2297 31.2086 25.1831 31.488 25.1831 31.488C25.5918 31.498 26.7368 32.1274 26.7976 33.595C26.8016 33.6391 26.8016 33.6895 26.8016 33.7376C26.8016 33.7376 26.8118 33.7558 26.832 33.7859C26.9129 33.8966 27.1354 34.18 27.4186 34.2061L29.2274 34.3831H29.2354C29.4338 34.3831 29.8283 34.1519 30.334 34.1519C30.6092 34.1519 30.9167 34.2222 31.2445 34.4273C31.2445 34.4273 31.4083 34.2986 31.6754 34.2845C31.6956 34.2825 31.718 34.2825 31.7382 34.2825C32.5495 34.2825 32.8853 35.0104 33.3203 35.6155C33.6481 36.0759 34.0851 36.7595 34.0851 36.7595C33.9232 36.9504 33.7734 37.055 33.5226 37.055C33.4539 37.055 33.3749 37.0489 33.2899 37.0329C32.4199 36.874 32.2946 35.0968 31.7989 34.956C31.7726 34.948 31.7443 34.946 31.72 34.946C31.5601 34.946 31.4894 35.0868 31.4894 35.0868C31.7158 35.6918 31.5844 35.9372 31.8272 36.4036C32.0092 36.7494 32.3329 37.0349 32.4665 37.1696C32.4665 37.1736 32.4301 37.435 32.3916 37.632ZM22.6784 35.9351L22.7613 36.1423C22.7067 36.3232 22.0796 36.5805 22.0796 36.5805L21.9439 36.2869C21.8003 35.9733 21.8306 35.4446 22.2677 35.1209L23.2833 34.5057L24.3597 34.7328C24.3394 35.0726 24.5437 35.326 24.5437 35.326L23.4148 35.1109L22.7391 35.5753C22.6258 35.6537 22.6177 35.8005 22.6784 35.9351ZM32.5616 39.3269L32.8712 37.7224C32.8873 37.628 32.9075 37.5174 32.9217 37.4249C33.0087 37.4612 33.1018 37.4913 33.2029 37.5094C33.3182 37.5315 33.4254 37.5415 33.5226 37.5415C33.9961 37.5415 34.2712 37.2942 34.4553 37.0831L34.6941 36.8077L34.4998 36.5062C34.4816 36.476 34.0527 35.8005 33.7209 35.338C33.6561 35.2476 33.5933 35.1571 33.5307 35.0586C33.1544 34.4996 32.683 33.7981 31.7382 33.7981L31.6532 33.8001C31.4974 33.8101 31.3639 33.8402 31.2567 33.8804C30.9592 33.7417 30.6537 33.6714 30.336 33.6714C29.9456 33.6714 29.6158 33.778 29.3973 33.8523C29.3346 33.8704 29.278 33.8905 29.2335 33.8986L27.4672 33.7256C27.445 33.7217 27.3721 33.6795 27.2851 33.5749V33.5668L27.6675 33.414C27.5603 32.1495 26.3383 31.3714 25.6565 31.108C25.6262 30.9813 25.5655 30.8546 25.4583 30.7522L25.0779 30.3943L24.744 30.7924L24.5802 30.9955L22.1079 29.9861L23.7163 31.9926L23.081 32.9476C22.8483 33.1929 23.1053 33.4382 23.1053 33.4382L23.7607 33.8865L24.4406 33.6352C24.4648 33.6352 24.4851 33.6413 24.5073 33.6432C24.475 33.7457 24.4325 34.1478 24.4041 34.2604L23.2246 34.0292L21.9844 34.7249C21.3471 35.1893 21.2601 35.9593 21.4969 36.4861L21.6344 36.7855L21.8306 37.2078L22.2636 37.0288C22.2697 37.0268 22.2758 37.0248 22.2797 37.0209C22.124 37.5154 22.1868 37.9858 22.4659 38.2955L22.7289 38.6252L23.079 39.0655L23.4634 38.6553C23.5767 38.5427 23.9429 38.1347 24.0562 37.7848L24.1391 37.5173L23.951 37.3123L23.9206 37.2762L24.1311 36.9303L25.6706 37.2902L26.0166 37.3686L26.2007 37.067L26.3019 36.9021C26.3201 36.868 26.3261 36.8619 26.397 36.8619C26.4516 36.8619 26.5062 36.868 26.5649 36.8801C27.1455 36.9886 27.6816 37.043 28.1571 37.043C28.6184 37.043 28.8935 37.0248 29.2233 36.9163C29.2233 36.9163 30.0508 37.8491 30.0791 37.8853L29.5734 39.4374L29.5511 39.5319C28.5921 39.6082 28.1248 39.8174 27.5603 40.3783C26.7409 39.57 26.1602 39.4857 23.9571 39.4857C21.3208 39.4857 19.5344 37.9497 19.5344 35.4969V29.4997H35.5822L35.5863 35.4969C35.5882 37.4872 34.4128 38.8744 32.5616 39.3269ZM36.0313 19.8232C35.7866 20.4666 35.5822 21.1643 35.5822 21.8579L35.5843 26.3332C34.6434 26.1764 34.5322 25.169 34.5281 25.1249L34.5099 24.9198L34.3076 24.9017C33.8989 24.8635 33.6278 24.6905 33.3992 24.4695C32.9379 24.0111 32.9358 23.2672 32.9379 23.2611C32.9319 23.2993 32.4301 23.9969 33.0128 24.7589C33.2575 25.0806 33.6116 25.2777 34.0709 25.3561C34.1781 25.915 34.5969 26.703 35.5843 26.8237V29.0151H32.8084C31.5277 28.3075 32.0699 27.0609 32.0962 27.0087L32.2055 26.7714L31.9607 26.6789C30.5748 26.1683 30.9552 24.7931 30.9754 24.7348L31.032 24.5337L30.8439 24.4453C29.6987 23.9185 29.8546 22.4972 29.8688 22.4389C29.5167 22.7223 29.3892 23.3013 29.632 23.8683C29.5005 24.0171 29.3246 24.198 29.1323 24.395C27.9467 24.0956 27.9104 23.0119 27.9104 22.9617L27.9082 22.7947L27.7525 22.7344C27.2892 22.5635 26.9715 22.3082 26.8157 21.9643C26.6398 21.5845 26.7024 21.1864 26.7511 20.9953C26.8866 21.0255 27.0221 21.0477 27.1516 21.0577C27.2851 21.0717 27.4227 21.0798 27.5603 21.0798H27.5684H27.5785C27.7161 21.0798 27.8517 21.0717 27.9852 21.0577C28.7236 20.9853 29.5511 20.6697 30.413 19.8212H36.0313V19.8232ZM31.7058 15.2996L32.8023 15.933H32.8185L33.0937 16.0918C32.4746 16.2627 32.0012 16.5703 31.6047 16.9744C31.5905 16.9865 31.5764 17.0026 31.5621 17.0166C31.4711 17.1131 31.38 17.2177 31.2951 17.3243C31.2789 17.3444 31.2627 17.3665 31.2445 17.3886C31.1595 17.4971 31.0807 17.6078 31.0037 17.7243C30.9916 17.7445 30.9774 17.7646 30.9633 17.7826C30.8722 17.9173 30.7853 18.0621 30.6983 18.2108C29.9173 19.5478 28.671 20.346 27.5624 20.348C26.4557 20.346 25.2094 19.5478 24.4284 18.2108C24.3434 18.066 24.2585 17.9254 24.1674 17.7886C24.1492 17.7625 24.133 17.7364 24.1169 17.7142C24.04 17.6037 23.9631 17.4951 23.8842 17.3927C23.864 17.3645 23.8457 17.3423 23.8255 17.3182C23.7405 17.2156 23.6535 17.1131 23.5665 17.0186C23.5484 17.0046 23.5362 16.9865 23.518 16.9704C23.1195 16.5663 22.648 16.2607 22.0269 16.0918L22.3061 15.933H22.3182L23.4148 15.2996L24.5417 14.6584L27.5522 16.2868L27.5583 16.2808L27.5663 16.2868L30.5768 14.6584L31.7058 15.2996ZM30.2207 13.9506L27.8213 15.2072V10.1207L31.0766 9.02297L30.2207 13.9506ZM27.5603 9.56176L23.9914 8.16051C24.2949 7.4468 25.6949 6.83953 27.5603 6.83754C29.4277 6.83953 30.8277 7.4468 31.1292 8.16051L27.5603 9.56176Z" fill="black"/>
<path d="M71.7546 30.8396V22.7894H76.5064V19.86H63.543V22.7894H68.2946V30.8396H71.7546ZM81.2357 26.2494V19.86H77.8911V30.8396H80.8436L86.6102 24.4502V30.8396H89.9549V19.86H87.0023L81.2357 26.2494ZM101.207 26.7569V30.8396H104.552V19.86H101.207V23.8735H95.8325V19.86H92.4879V30.8396H95.8325V26.7569H101.207ZM113.866 30.8396C114.627 30.8396 115.319 30.7705 115.965 30.5859C117.696 30.1016 118.825 28.6944 118.825 26.7799C118.825 24.9577 117.857 23.6891 116.312 23.1123C115.572 22.8356 114.697 22.8125 113.866 22.8125H110.429V19.86H107.085V30.8396H113.866ZM113.289 25.396C113.751 25.396 114.189 25.396 114.581 25.5344C115.135 25.7189 115.458 26.1802 115.458 26.7338C115.458 27.3105 115.135 27.7949 114.604 28.0255C114.235 28.187 113.866 28.187 113.289 28.187H110.429V25.396H113.289ZM124.822 26.6877L128.813 30.8396H133.264L127.706 25.1191L133.057 19.86H128.859L124.822 23.9889H123.9V19.86H120.556V30.8396H123.9V26.6877H124.822ZM140.146 19.5602C135.648 19.5602 132.95 22.0974 132.95 25.3728C132.95 28.6484 135.648 31.1857 140.146 31.1857C144.622 31.1857 147.321 28.6484 147.321 25.3728C147.321 22.0974 144.622 19.5602 140.146 19.5602ZM140.146 28.51C137.909 28.51 136.48 27.1721 136.48 25.3728C136.48 23.5738 137.909 22.2589 140.146 22.2589C142.361 22.2589 143.814 23.5738 143.814 25.3728C143.814 27.1721 142.361 28.51 140.146 28.51ZM158.46 19.2372H155.115V20.3443C150.917 20.4366 148.402 22.2127 148.402 25.3498C148.402 28.4868 150.917 30.1246 155.115 30.2169V31.3241H158.46V30.2169C162.68 30.1246 165.195 28.4868 165.195 25.3498C165.195 22.2127 162.68 20.4366 158.46 20.3443V19.2372ZM155.115 27.8641C152.808 27.7718 151.793 26.8261 151.793 25.3498C151.793 23.8735 152.808 22.8125 155.115 22.7203V27.8641ZM158.46 22.7203C160.79 22.8125 161.781 23.8735 161.781 25.3498C161.781 26.8261 160.79 27.7718 158.46 27.8641V22.7203ZM176.322 19.2372H172.977V20.3443C168.779 20.4366 166.266 22.2127 166.266 25.3498C166.266 28.4868 168.779 30.1246 172.977 30.2169V31.3241H176.322V30.2169C180.544 30.1246 183.058 28.4868 183.058 25.3498C183.058 22.2127 180.544 20.4366 176.322 20.3443V19.2372ZM172.977 27.8641C170.671 27.7718 169.656 26.8261 169.656 25.3498C169.656 23.8735 170.671 22.8125 172.977 22.7203V27.8641ZM176.322 22.7203C178.652 22.8125 179.644 23.8735 179.644 25.3498C179.644 26.8261 178.652 27.7718 176.322 27.8641V22.7203Z" fill="white"/>
</g>
<defs>
<clipPath id="clip0_3696_10917">
<rect width="182.6" height="48" fill="white" transform="translate(0.511719)"/>
</clipPath>
</defs>
</svg>
