<svg width="200" height="48" viewBox="0 0 200 48" fill="none" xmlns="http://www.w3.org/2000/svg">
<path d="M61.1886 9.41187V31.427C61.1886 36.2783 56.9378 39.9673 51.3238 39.9673C45.7098 39.9673 41.459 36.2783 41.459 31.427V14.5849C41.459 11.7376 43.7459 9.41187 46.5918 9.41187H46.9538V31.3867C46.9538 33.9927 49.2781 35.5973 51.5248 35.5973C53.6898 35.5973 56.0155 34.1133 56.0155 31.3867V14.3047C56.0155 11.617 58.2221 9.41187 60.9084 9.41187H61.1886Z" fill="black"/>
<path d="M72.0135 17.1912C79.5109 17.1912 80.7147 21.4017 80.7147 23.9286V39.6473H80.4748C77.708 39.6473 75.342 37.3215 75.342 34.5533V24.009C75.342 22.525 74.7401 20.7596 71.8124 20.7596C70.4491 20.7596 69.6475 20.9204 68.7655 21.2408V39.6473H63.3914V18.8359C65.6769 17.8333 69.3674 17.1912 72.0135 17.1912Z" fill="black"/>
<path d="M88.3929 17.1913V34.5951C88.3929 37.3605 86.1462 39.6474 83.3406 39.6474H83.0993V17.1913H88.3929ZM85.7468 9.41235C87.35 9.41235 88.6329 10.6147 88.6329 12.0987C88.6329 13.5424 87.35 14.7046 85.7468 14.7046C84.1422 14.7046 82.8191 13.5424 82.8191 12.0987C82.8191 10.6147 84.1422 9.41235 85.7468 9.41235Z" fill="black"/>
<path d="M103.661 8.97095C106.187 8.97095 108.553 9.53261 110.518 10.735V16.0287C109.315 14.4643 107.59 13.3812 104.823 13.3812C99.3702 13.3812 96.0015 18.7553 96.0015 24.3291C96.0015 29.5826 99.5311 35.3159 104.823 35.3159C107.149 35.3159 109.275 34.6349 110.518 32.9499V38.1631C108.953 39.3267 106.508 39.9674 103.62 39.9674C94.96 39.9674 90.3875 32.029 90.3875 24.3693C90.3875 16.8303 94.9599 8.97095 103.661 8.97095Z" fill="black"/>
<path d="M120.014 17.1911C120.896 17.1911 122.019 17.2717 123.022 17.4309V21.7218C121.176 20.3988 118.729 20.8398 117.648 21.4014V34.5948C117.648 37.3602 115.362 39.6471 112.595 39.6471H112.314V18.9148C114.4 17.9121 116.524 17.1911 120.014 17.1911Z" fill="black"/>
<path d="M136.975 25.6123C136.815 21.1604 134.048 20.6805 132.564 20.6805H132.364C129.356 20.7595 127.952 22.8857 127.952 26.8549L136.975 25.6123ZM141.627 28.6592L128.273 30.5037C128.714 34.1526 130.558 36.0776 133.927 36.0776C137.656 36.0776 139.541 34.8752 140.904 33.9127V38.3631C139.541 39.0857 137.014 39.9677 133.406 39.9677C126.869 39.9677 122.98 35.5561 122.98 28.4983C122.98 21.6417 126.589 17.1912 132.523 17.1912C138.379 17.1912 141.627 21.0814 141.627 27.8174V28.6592Z" fill="black"/>
<path d="M155.628 21.5223C155.066 21.3615 154.466 21.2824 153.784 21.2824C149.372 21.2824 148.45 25.5318 148.45 29.0614C148.45 33.9931 150.095 36.4395 153.423 36.4395C153.983 36.4395 155.227 36.3188 155.628 36.2382V21.5223ZM160.882 9.41211V39.3657C159.597 39.6472 155.387 39.9676 153.623 39.9676H153.262C146.726 39.887 143.157 36.1176 143.157 29.3414C143.157 22.4847 146.887 18.0731 152.66 18.0731C153.784 18.0731 154.746 18.1938 155.588 18.3951V14.5048C155.588 11.6978 157.833 9.41229 160.64 9.41229L160.882 9.41211Z" fill="black"/>
<path d="M168.678 17.1913V34.5951C168.678 37.3605 166.433 39.6474 163.626 39.6474H163.384V17.1913H168.678ZM166.031 9.41235C167.635 9.41235 168.919 10.6147 168.919 12.0987C168.919 13.5424 167.635 14.7046 166.031 14.7046C164.427 14.7046 163.104 13.5424 163.104 12.0987C163.104 10.6147 164.427 9.41235 166.031 9.41235Z" fill="black"/>
<path d="M178.054 9.4118V17.1907H181.504V21.4817H178.054V33.3921C178.054 34.8345 178.536 35.2755 180.099 35.2755C180.5 35.2755 181.101 35.1548 181.504 34.9952V39.4457C181.262 39.5263 180.219 39.9671 178.816 39.9671C174.887 39.9671 172.721 38.0435 172.721 34.5541V21.4815H170.395V17.1906H172.721V14.464C172.721 11.6972 174.966 9.41162 177.734 9.41162L178.054 9.4118Z" fill="black"/>
<path fill-rule="evenodd" clip-rule="evenodd" d="M18.7144 15.5488L18.7462 15.5032C19.0153 15.1093 18.9029 14.8181 18.7226 14.6613L15.8976 12.9193C15.7021 12.7876 15.5731 12.5643 15.5731 12.3091C15.5731 11.9069 15.813 11.6031 16.3595 11.4519C18.1014 10.9735 24.2286 10.7225 26.3103 10.7225C27.0328 10.7225 28.2768 10.7197 29.3932 10.75L29.3447 10.7028C26.2922 8.0941 22.3299 6.52002 17.9987 6.52002C8.34474 6.52002 0.52002 14.3447 0.52002 23.9987C0.52002 28.2425 2.03171 32.1327 4.54749 35.1602C6.7429 32.0037 12.1628 24.2192 13.3513 22.6299C14.7202 20.7978 17.8406 16.7218 18.369 16.0311L18.3954 15.9997L18.7144 15.5488Z" fill="#E2001A"/>
<path fill-rule="evenodd" clip-rule="evenodd" d="M7.34087 37.8561C10.2907 40.1278 13.9867 41.48 17.9989 41.48C27.6529 41.48 35.4776 33.6553 35.4776 24.0013C35.4776 21.0792 34.762 18.3262 33.4944 15.9061C34.0963 15.3264 34.7911 14.4097 34.3348 13.26C34.1934 12.9176 33.5138 12.1407 33.3391 11.9521L33.3627 12.0186C33.7884 13.3028 32.9466 14.1072 32.3419 14.655C32.0105 14.9558 27.5725 19.1402 22.3676 23.6919C17.7798 27.7027 12.6484 31.7842 9.67635 34.0102C5.49495 37.1403 4.68085 37.5952 4.68085 37.5952C4.57129 37.655 4.38684 37.7061 4.25093 37.7061C3.99575 37.7061 3.77386 37.5909 3.63379 37.4093L3.62944 37.4014L3.61963 37.5359C4.06759 38.2612 4.81094 39.103 5.24365 39.103C5.37955 39.103 5.56399 39.0519 5.67495 38.9934C5.67495 38.9934 6.00252 38.8115 7.34087 37.8561Z" fill="#E2001A"/>
<path fill-rule="evenodd" clip-rule="evenodd" d="M18.7382 15.503C19.0073 15.1106 18.8949 14.8178 18.7146 14.6611L15.8896 12.9207C15.6941 12.789 15.5651 12.5657 15.5651 12.309C15.5651 11.9082 15.805 11.6045 16.3514 11.4519C18.0947 10.9735 24.2205 10.7238 26.3022 10.7238C27.2855 10.7238 29.2313 10.716 30.5127 10.8013C31.9495 10.8956 33.041 11.1924 33.3114 11.8886C33.8426 13.2505 32.9633 14.0909 32.3379 14.6568C32.0064 14.9591 27.5684 19.1433 22.3649 23.6936C17.7757 27.7044 12.6443 31.7874 9.67227 34.0133C5.49086 37.1421 4.67815 37.597 4.67815 37.597C4.5672 37.6567 4.38275 37.7078 4.24822 37.7078C3.81413 37.7078 3.47437 37.3764 3.47437 36.9423C3.47437 36.7772 3.52429 36.6235 3.61026 36.4985C3.61026 36.4985 11.8455 24.6366 13.3433 22.6312C14.8411 20.6258 18.4386 15.934 18.4386 15.934C18.4386 15.934 18.4802 15.8804 18.7382 15.503Z" fill="white"/>
</svg>
