<?xml version="1.0" standalone="no"?>
<!DOCTYPE svg PUBLIC "-//W3C//DTD SVG 1.1//EN" "http://www.w3.org/Graphics/SVG/1.1/DTD/svg11.dtd" >
<svg xmlns="http://www.w3.org/2000/svg">
<metadata></metadata>
<defs>
<font id="designosaurregular" horiz-adv-x="1155" >
<font-face units-per-em="2048" ascent="1536" descent="-512" />
<missing-glyph horiz-adv-x="614" />
<glyph unicode="&#xd;" horiz-adv-x="614" />
<glyph unicode=" "  horiz-adv-x="614" />
<glyph unicode="&#x09;" horiz-adv-x="614" />
<glyph unicode="&#xa0;" horiz-adv-x="614" />
<glyph unicode="!" horiz-adv-x="462" d="M102 41v164q0 41 41 41h176q41 0 41 -41v-164q0 -41 -41 -41h-176q-41 0 -41 41zM102 1434q-2 41 41 41h176q43 0 41 -41l-41 -942q-2 -41 -40 -41h-95q-39 0 -41 41z" />
<glyph unicode="&#x22;" horiz-adv-x="712" d="M84 1434q-2 41 41 41h135q43 0 41 -41l-20 -328q-2 -41 -41 -41h-95q-39 0 -41 41zM412 1434q-2 41 41 41h135q43 0 41 -41l-21 -328q-2 -41 -41 -41h-94q-39 0 -41 41z" />
<glyph unicode="#" horiz-adv-x="1165" d="M82 510v102q0 41 41 41h137l49 185h-106q-41 0 -41 41v102q0 41 41 41h155l111 412q8 41 49 28l98 -26q41 -8 29 -50l-98 -364h221l111 412q8 41 49 28l98 -26q41 -8 29 -50l-99 -364h86q41 0 41 -41v-102q0 -41 -41 -41h-135l-49 -185h105q41 0 41 -41v-102 q0 -41 -41 -41h-154l-115 -428q-8 -41 -49 -29l-98 27q-41 8 -29 49l103 381h-222l-114 -428q-8 -41 -49 -29l-99 27q-41 8 -28 49l102 381h-88q-41 0 -41 41zM449 653h221l49 185h-221z" />
<glyph unicode="$" horiz-adv-x="1136" d="M83 178q-1 10 9 33l33 86q4 12 20.5 10t32.5 -6q20 -6 59 -14t87.5 -15.5t101.5 -13.5t102 -6q129 0 209 42t80 109q0 31 -16.5 56.5t-43 47t-61 40t-69.5 31.5l-199 73q-72 27 -132 60.5t-106.5 80t-72 104.5t-25.5 132q0 78 29 141.5t80 112.5t121.5 81t152.5 44v149 q0 41 41 41h102q41 0 41 -41v-143q59 -6 118 -17.5t106 -25.5t81.5 -28.5t47.5 -24.5q10 -8 11 -18.5t-9 -34.5l-33 -86q-4 -12 -20.5 -10.5t-32.5 6.5q-20 6 -56 14t-81.5 15t-95.5 13.5t-97 6.5q-80 0 -131 -16.5t-82 -41t-43 -54.5t-12 -56q0 -41 34.5 -81t141.5 -77 l196 -68q92 -33 159 -77.5t110 -98t63.5 -112t20.5 -117.5q0 -145 -108.5 -237.5t-287.5 -118.5v-150q0 -41 -41 -41h-102q-41 0 -41 41v141q-61 4 -121.5 15.5t-113 25t-91 29.5t-55.5 29q-10 10 -11 20z" />
<glyph unicode="%" horiz-adv-x="1449" d="M102 1110q0 193 80 287t199 94q59 0 110.5 -23.5t89 -70.5t59.5 -119t22 -168t-22 -168t-59.5 -119t-89 -70.5t-110.5 -23.5q-117 0 -198 94.5t-81 286.5zM193 137l917 1307q23 33 57 10l84 -59q33 -25 11 -58l-918 -1306q-23 -33 -57 -11l-84 60q-33 25 -10 57z M281 1110q0 -111 29.5 -155t70.5 -44t71.5 44t30.5 155t-30.5 154t-71.5 43t-70.5 -43t-29.5 -154zM788 358q0 193 80 287t199 94q59 0 110.5 -23.5t89.5 -70.5t59.5 -118.5t21.5 -168.5q0 -96 -21.5 -167.5t-59.5 -118.5t-89.5 -71t-110.5 -24q-117 0 -198 94.5t-81 286.5z M967 358q0 -111 29.5 -154.5t70.5 -43.5t71.5 44t30.5 154q0 111 -30.5 154t-71.5 43t-70.5 -43t-29.5 -154z" />
<glyph unicode="&#x26;" horiz-adv-x="1460" d="M82 344q0 94 32.5 171t89 139.5t130.5 113.5t155 96l-51 60q-43 59 -68.5 128.5t-25.5 149.5q0 68 26.5 121t76 91t117 58.5t147.5 20.5q88 0 161.5 -20.5t126 -57.5t81 -88t28.5 -113q0 -70 -25.5 -128t-65.5 -108t-92.5 -92t-103.5 -75l183 -281l198 183q29 29 55 -6 l97 -125q25 -33 -6 -60l-211 -182l215 -307q27 -33 -17 -33h-229q-41 0 -64 35l-96 139q-59 -51 -113.5 -87t-105.5 -59.5t-103.5 -33.5t-107.5 -10q-102 0 -183 27.5t-136.5 76.5t-85 114.5t-29.5 141.5zM338 352q0 -66 49 -115t129 -49q70 0 147.5 51.5t155.5 120.5 l-205 322q-133 -78 -204.5 -153.5t-71.5 -176.5zM600 1206q0 -49 25.5 -101t70.5 -118q68 51 112 105.5t44 119.5q0 43 -38 71t-103 28q-41 0 -76 -25t-35 -80z" />
<glyph unicode="'" horiz-adv-x="385" d="M84 1434q-2 41 41 41h135q43 0 41 -41l-20 -328q-2 -41 -41 -41h-95q-39 0 -41 41z" />
<glyph unicode="(" horiz-adv-x="761" d="M82 739q0 233 40 407.5t110.5 289t166 171t205.5 56.5h55q41 0 41 -41v-115q0 -41 -41 -41q-74 0 -131 -33.5t-96 -116.5t-59.5 -223.5t-20.5 -355.5q0 -213 20.5 -353t59.5 -223t96.5 -116t130.5 -33q41 0 41 -41v-114q0 -41 -41 -41h-55q-111 0 -206 56t-165.5 171 t-110.5 289t-40 407z" />
<glyph unicode=")" horiz-adv-x="761" d="M61 -29q0 41 41 41q74 0 131.5 33t96.5 116t59.5 223t20.5 353q0 215 -20.5 355.5t-59.5 223.5t-96.5 116.5t-131.5 33.5q-41 0 -41 41v115q0 41 41 41h56q111 0 206 -56.5t165.5 -171t110.5 -288.5t40 -408q0 -233 -40 -407t-110.5 -289t-166 -171t-205.5 -56h-56 q-41 0 -41 41v114z" />
<glyph unicode="*" horiz-adv-x="876" d="M106 1288l15 49q12 39 51 25l207 -78l-6 232q0 41 39 40h53q39 0 39 -40l-6 -232l207 78q39 14 51 -25l14 -49q12 -39 -29 -51l-211 -63l146 -181q27 -31 -10 -55l-43 -27q-35 -20 -58 13l-127 184l-127 -184q-23 -33 -57 -13l-43 27q-37 25 -10 55l145 181l-211 63 q-41 12 -29 51z" />
<glyph unicode="+" horiz-adv-x="921" d="M82 694v103q0 41 41 41h246v245q0 41 41 41h102q41 0 41 -41v-245h246q41 0 41 -41v-103q0 -41 -41 -41h-246v-245q0 -41 -41 -41h-102q-41 0 -41 41v245h-246q-41 0 -41 41z" />
<glyph unicode="," horiz-adv-x="491" d="M102 41v205q0 41 41 41h205q41 0 41 -41v-236q0 -51 -10 -100t-25.5 -90t-33 -72t-31.5 -45q-10 -10 -21.5 -13t-31.5 11l-66 43q-10 8 -9 23.5t5 29.5q10 31 30.5 83t20.5 120h-74q-41 0 -41 41z" />
<glyph unicode="-" horiz-adv-x="757" d="M102 694v103q0 41 41 41h471q41 0 41 -41v-103q0 -41 -41 -41h-471q-41 0 -41 41z" />
<glyph unicode="." horiz-adv-x="491" d="M102 41v205q0 41 41 41h205q41 0 41 -41v-205q0 -41 -41 -41h-205q-41 0 -41 41z" />
<glyph unicode="/" horiz-adv-x="897" d="M27 53l675 1446q18 39 56 21l92 -43q39 -18 20 -56l-675 -1446q-18 -39 -56 -20l-92 43q-39 18 -20 55z" />
<glyph unicode="0" horiz-adv-x="1282" d="M82 737q0 193 43 335t117.5 237.5t177 142.5t221.5 47t220.5 -47t177 -142.5t118.5 -237.5t43 -335t-43 -335t-118.5 -237t-178 -142.5t-219.5 -47.5t-219.5 47.5t-178 142.5t-118.5 237.5t-43 334.5zM352 737q0 -156 22.5 -264t61.5 -176t92.5 -97.5t112.5 -29.5 t112.5 29.5t92.5 97.5t61.5 176.5t22.5 263.5q0 156 -22.5 264.5t-61.5 176t-92.5 97.5t-112.5 30t-112.5 -30t-92.5 -97.5t-61.5 -176t-22.5 -264.5z" />
<glyph unicode="1" horiz-adv-x="671" d="M20 1081v115q0 43 37 59l475 232q37 16 37 -23v-1423q0 -41 -41 -41h-174q-41 0 -41 41v1133l-256 -117q-37 -16 -37 24z" />
<glyph unicode="2" horiz-adv-x="1040" d="M83 1380q1 9 11 19q16 12 59.5 29.5t101.5 33t124.5 26.5t132.5 11q86 0 162 -22.5t134 -68.5t93 -116.5t39 -167.5q4 -90 -21.5 -165.5t-87.5 -153.5l-493 -621h580q41 0 40 -41v-102q0 -41 -40 -41h-781q-41 0 -41 41v57q0 16 3 37t18 41l434 664q6 8 25.5 34.5 t41 65.5t39 86t17.5 96q0 35 -11.5 68t-34 58.5t-59.5 41t-86 15.5q-33 0 -74.5 -5.5t-84.5 -13.5t-82 -16t-64 -15q-49 -12 -53 5l-33 86q-10 25 -9 34z" />
<glyph unicode="3" horiz-adv-x="1089" d="M83 96q-1 10 9 33l33 86q4 12 20.5 10t32.5 -6q20 -6 59 -14t88.5 -15.5t100.5 -13.5t96 -6q41 0 80 17.5t69.5 53t50 88t19.5 122.5q2 137 -68.5 218t-183.5 79h-51q-41 0 -41 40v43q0 41 23 76l215 383h-477q-41 0 -41 41v103q0 41 41 41h739q41 0 41 -41v-58 q0 -16 -3 -36.5t-17 -41.5l-283 -389q82 -12 150.5 -49t117.5 -94t77 -133t28 -168q0 -106 -39 -195.5t-104.5 -155t-153.5 -102.5t-187 -37q-66 0 -133 10.5t-127.5 26t-105.5 32.5t-64 32q-10 10 -11 20z" />
<glyph unicode="4" horiz-adv-x="1183" d="M82 393v21q0 43 22 73l629 955q25 33 64 33h135q41 0 41 -41v-899h129q41 0 41 -41v-101q0 -41 -41 -41h-129v-311q0 -41 -41 -41h-176q-41 0 -41 41v311h-592q-41 0 -41 41zM379 535h336v536h-4z" />
<glyph unicode="5" horiz-adv-x="1077" d="M83 96q-1 10 9 33l33 86q4 12 20.5 10t32.5 -6q20 -6 59 -14t88.5 -15.5t100.5 -13.5t96 -6q39 0 76 16.5t65.5 52t47 91t18.5 133.5q0 57 -14.5 109.5t-40 91t-62.5 61.5t-82 23q-35 0 -73.5 -4.5t-73.5 -9.5t-62.5 -11t-41.5 -8q-23 -4 -38.5 2t-31.5 22l-12 11 q-31 25 -27 69l33 615q2 41 43 41h604q41 0 41 -41v-103q0 -41 -41 -41h-473l-19 -368q45 10 87 15t87 5q80 0 162 -29.5t148.5 -89t109.5 -148.5t43 -208q0 -104 -34.5 -194.5t-98 -156t-149.5 -103.5t-189 -38q-66 0 -133 10.5t-127.5 26t-105.5 32.5t-64 32 q-10 10 -11 20z" />
<glyph unicode="6" horiz-adv-x="1126" d="M82 729q0 197 39 341t107.5 239.5t163.5 142.5t206 47q61 0 127 -13t120 -32.5t89 -40t35 -35.5q0 -14 -8 -32l-33 -86q-6 -10 -21 -11q2 0 -26.5 8.5t-74.5 19.5t-99.5 19.5t-98.5 8.5q-66 0 -122 -28t-97 -92.5t-64.5 -172t-23.5 -267.5q18 74 49 121t70 75t85 38 t97 10q123 0 207 -40t136 -107.5t75.5 -157.5t23.5 -192q0 -106 -25.5 -200.5t-82.5 -164.5t-148.5 -111t-220.5 -41q-225 0 -355 187.5t-130 566.5zM330 430q0 -68 20.5 -116t52 -80.5t70.5 -48t76 -15.5q76 0 124 27.5t75.5 73.5t39 105.5t11.5 121.5q0 61 -9.5 115.5 t-36 94.5t-71.5 63.5t-115 23.5q-74 0 -120 -30t-72.5 -80t-35.5 -115.5t-9 -139.5z" />
<glyph unicode="7" horiz-adv-x="987" d="M61 1331v103q0 41 41 41h783q41 0 41 -41v-74q0 -23 -5.5 -39t-15.5 -39l-413 -1243q-12 -39 -54 -39h-190q-41 0 -29 39l430 1251h-547q-41 0 -41 41z" />
<glyph unicode="8" horiz-adv-x="1175" d="M82 424q0 135 74.5 234.5t222.5 152.5q-115 47 -175.5 122t-60.5 185q0 84 26 154.5t80 121t138 78t201 27.5t200.5 -27.5t138 -78t80 -120t25.5 -153.5q0 -209 -235 -309q143 -53 220 -151.5t77 -237.5q0 -217 -133.5 -332t-372.5 -115q-248 0 -377 116t-129 333z M338 430q0 -61 20.5 -110.5t54 -83t79 -51t96.5 -17.5t96 17.5t79 51t54.5 82t20.5 109.5q0 63 -20.5 115.5t-54.5 87.5t-79 54.5t-96 19.5t-96.5 -19.5t-79 -55.5t-54 -86t-20.5 -114zM399 1120q0 -43 14.5 -81t40 -66.5t59.5 -46t75 -17.5q37 0 71.5 16.5t60 44t41 66.5 t15.5 84q0 86 -56 136.5t-134 50.5q-82 0 -134.5 -54.5t-52.5 -132.5z" />
<glyph unicode="9" horiz-adv-x="1126" d="M82 983q0 106 25.5 200.5t83 164t148.5 110.5t220 41q225 0 355 -188.5t130 -565.5q0 -197 -38.5 -342t-107.5 -240t-164 -141.5t-206 -46.5q-61 0 -126.5 13.5t-120 33t-89 40t-34.5 34.5t8 33l33 86q4 10 20 10q-4 0 25.5 -8t76 -19.5t99.5 -19.5t98 -8q66 0 122 27.5 t97 92t64.5 172t23.5 267.5q-18 -74 -49 -121t-69.5 -74.5t-85 -38t-97.5 -10.5q-123 0 -208 40t-137 107.5t-74.5 158t-22.5 192.5zM328 977q0 -61 9 -115.5t35.5 -94.5t70.5 -63.5t116 -23.5q68 0 110 29.5t66.5 80t32.5 115.5t8 139q0 68 -18.5 116t-47 81t-64.5 48.5 t-68 15.5q-76 0 -124 -28t-76 -74t-39 -105.5t-11 -120.5z" />
<glyph unicode=":" horiz-adv-x="491" d="M102 41v205q0 41 41 41h205q41 0 41 -41v-205q0 -41 -41 -41h-205q-41 0 -41 41zM102 705v204q0 41 41 41h205q41 0 41 -41v-204q0 -41 -41 -41h-205q-41 0 -41 41z" />
<glyph unicode=";" horiz-adv-x="491" d="M102 41q0 -41 41 -41h74q0 -68 -20.5 -120t-30.5 -83q-4 -14 -5 -29.5t9 -23.5l66 -43q20 -14 31.5 -11t21.5 13q14 14 31.5 45t33 72t25.5 90t10 100v236q0 41 -41 41h-205q-41 0 -41 -41v-205zM102 705v204q0 41 41 41h205q41 0 41 -41v-204q0 -41 -41 -41h-205 q-41 0 -41 41z" />
<glyph unicode="&#x3c;" horiz-adv-x="1241" d="M102 715v57q0 41 37 57l963 433q37 16 37 -25v-111q0 -41 -37 -57l-725 -326l725 -325q37 -16 37 -58v-110q0 -41 -37 -25l-963 432q-37 16 -37 58z" />
<glyph unicode="=" horiz-adv-x="995" d="M82 500v90q0 41 41 41h749q41 0 41 -41v-90q0 -41 -41 -41h-749q-41 0 -41 41zM82 897v90q0 41 41 41h749q41 0 41 -41v-90q0 -41 -41 -41h-749q-41 0 -41 41z" />
<glyph unicode="&#x3e;" horiz-adv-x="1241" d="M102 250v110q0 41 37 58l725 325l-725 326q-37 16 -37 57v111q0 41 37 25l963 -433q37 -16 37 -57v-57q0 -41 -37 -58l-963 -432q-37 -16 -37 25z" />
<glyph unicode="?" horiz-adv-x="1040" d="M83 1380q1 9 11 19q16 12 59.5 29.5t101.5 33t124.5 26.5t132.5 11q80 0 155.5 -20.5t134 -64.5t95.5 -115.5t43 -174.5q8 -184 -109 -319q-6 -8 -37.5 -36t-65.5 -66.5t-61.5 -86t-27.5 -96.5v-28q0 -41 -41 -41h-176q-41 0 -41 41v28q0 45 11 84t32.5 76t53.5 75t73 85 q6 6 25.5 33.5t41 66.5t39 86t17.5 96q0 35 -11.5 68t-34 58.5t-60.5 41t-89 15.5q-31 0 -71.5 -5.5t-82.5 -13.5t-81 -16t-66 -15q-29 -6 -39 -6t-14 11l-33 86q-10 25 -9 34zM381 41v164q0 41 41 41h176q41 0 41 -41v-164q0 -41 -41 -41h-176q-41 0 -41 41z" />
<glyph unicode="@" horiz-adv-x="1671" d="M82 547q0 186 56.5 326.5t162 233.5t255 140t337.5 47q166 0 295 -38.5t218 -125t136 -224.5t47 -337q0 -106 -15 -189t-56 -141.5t-112 -89t-179 -30.5q-72 0 -111 11t-56.5 26.5t-21.5 30t-6 20.5l-26 63h-5q-20 -41 -40.5 -70.5t-45 -48t-55.5 -26.5t-72 -8 q-66 0 -126 21.5t-107 70.5t-75.5 129t-28.5 197t28.5 195.5t75.5 127.5t108.5 69.5t127.5 20.5q74 0 120.5 -31.5t89.5 -121.5h5l20 86q4 23 11 32t30 9h102q41 0 41 -41v-574q0 -10 7.5 -17t29.5 -7q37 0 60.5 20.5t36 55t16.5 84t4 106.5q0 170 -27.5 283.5t-84 182 t-144.5 97.5t-207 29q-289 0 -441.5 -146.5t-152.5 -437.5q0 -158 45 -269.5t126 -183t193.5 -105.5t248.5 -34q59 0 121.5 5t121 13.5t108.5 16.5t85 14t42 6t11 -10l33 -76q12 -29 11 -41t-13 -22q-20 -16 -74.5 -33.5t-129.5 -32t-162 -24.5t-173 -10q-174 0 -323.5 46 t-260 142t-173 241.5t-62.5 346.5zM696 535q0 -74 10.5 -122t29 -76t45 -38t61.5 -10q82 0 123 56.5t41 191.5q0 133 -41 186t-123 53q-35 0 -61.5 -10t-45 -38t-29 -74t-10.5 -119z" />
<glyph unicode="A" horiz-adv-x="1376" d="M24 9q-4 4 -3 10q0 8 6 18l559 1401q14 37 57 37h90q41 0 58 -37l559 -1401q5 -11 5 -19q0 -18 -30 -18h-195q-41 0 -55 39l-127 323h-581l-127 -323q-14 -39 -56 -39h-133q-19 0 -27 9zM434 535h447l-183 530l-41 154l-39 -154z" />
<glyph unicode="B" d="M102 41v1393q0 41 41 41h303q240 0 379.5 -100.5t139.5 -289.5q0 -111 -50.5 -186.5t-144.5 -120.5v-4q150 -23 226.5 -119t76.5 -235q0 -90 -36 -166t-99.5 -133.5t-148 -89t-185.5 -31.5h-461q-41 0 -41 41zM360 172h177q84 0 138 21.5t85 55.5t43 78t12 91 q0 45 -13.5 89t-46 80t-86 57.5t-132.5 21.5h-177v-494zM360 838h123q45 0 86 16t72 48t48.5 77t17.5 102q0 100 -62.5 161t-200.5 61h-84v-465z" />
<glyph unicode="C" horiz-adv-x="1308" d="M82 737q0 193 55.5 335t152.5 237.5t229 142.5t286 47q68 0 132 -10t119.5 -25.5t97.5 -33t60 -31.5q10 -10 11.5 -20.5t-8.5 -32.5l-33 -86q-8 -10 -22.5 -9.5t-31.5 4.5q-47 12 -135 31t-190 19q-92 0 -175 -30t-144.5 -97.5t-97.5 -176t-36 -264.5t36 -264t98.5 -176 t144.5 -97.5t174 -29.5q102 0 190 18.5t135 30.5q14 4 30 5t24 -9l33 -76q9 -26 9 -39t-12 -24q-18 -14 -60 -31.5t-97.5 -33t-120 -26t-131.5 -10.5q-154 0 -286 47.5t-229 142.5t-152.5 237.5t-55.5 334.5z" />
<glyph unicode="D" horiz-adv-x="1320" d="M102 41v1393q0 41 41 41h471q125 0 239 -54.5t200 -152t136 -231.5t50 -294t-53 -295t-144.5 -234t-214 -155.5t-262.5 -58.5h-422q-41 0 -41 41zM360 184h203q88 0 163 43t129 120t84 180.5t30 226.5q0 119 -34 218t-91.5 169.5t-134 109.5t-162.5 39h-187v-1106z" />
<glyph unicode="E" horiz-adv-x="989" d="M102 41v1393q0 41 41 41h723q41 0 41 -41v-103q0 -41 -41 -41h-506v-452h404q41 0 41 -41v-103q0 -41 -41 -41h-404v-469h506q41 0 41 -41v-102q0 -41 -41 -41h-723q-41 0 -41 41z" />
<glyph unicode="F" horiz-adv-x="989" d="M102 41v1393q0 41 41 41h723q41 0 41 -41v-103q0 -41 -41 -41h-506v-452h404q41 0 41 -41v-103q0 -41 -41 -41h-404v-612q0 -41 -41 -41h-176q-41 0 -41 41z" />
<glyph unicode="G" horiz-adv-x="1329" d="M82 737q0 193 55.5 335t152.5 237.5t229 142.5t286 47q68 0 132 -10t119.5 -25.5t97.5 -33t60 -31.5q12 -12 12 -23t-9 -30l-33 -76q-8 -10 -22.5 -9t-31.5 5q-47 12 -135 30.5t-190 18.5q-92 0 -175 -31t-144.5 -99.5t-97.5 -178t-36 -269.5t36 -269.5t98.5 -178 t144.5 -99t174 -30.5q84 0 162 12v481h-181q-41 0 -41 41v103q0 41 41 41h398q41 0 41 -41v-693q2 -18 -11 -28q-18 -14 -60 -31.5t-97.5 -33t-120 -26t-131.5 -10.5q-154 0 -286 47.5t-229 142.5t-152.5 237.5t-55.5 334.5z" />
<glyph unicode="H" horiz-adv-x="1247" d="M102 41v1393q0 41 41 41h176q41 0 41 -41v-586h527v586q0 41 41 41h176q41 0 41 -41v-1393q0 -41 -41 -41h-176q-41 0 -41 41v623h-527v-623q0 -41 -41 -41h-176q-41 0 -41 41z" />
<glyph unicode="I" horiz-adv-x="462" d="M102 41v1393q0 41 41 41h176q41 0 41 -41v-1393q0 -41 -41 -41h-176q-41 0 -41 41z" />
<glyph unicode="J" horiz-adv-x="729" d="M20 45v98q0 41 41 41h27q76 0 132 19.5t94 64.5t56.5 120t18.5 185v861q0 41 41 41h176q41 0 41 -41v-904q-4 -262 -141 -396t-371 -134q-35 0 -58.5 1t-19.5 1q-37 2 -37 43z" />
<glyph unicode="K" horiz-adv-x="1304" d="M102 41v1393q0 41 41 41h176q41 0 41 -41v-631l508 639q25 33 66 33h211q41 0 16 -33l-571 -686l588 -723q9 -12 9 -20q0 -13 -26 -13h-241q-41 0 -66 33l-494 637v-629q0 -41 -41 -41h-176q-41 0 -41 41z" />
<glyph unicode="L" horiz-adv-x="948" d="M102 41v1393q0 41 41 41h176q41 0 41 -41v-1250h506q41 0 41 -41v-102q0 -41 -41 -41h-723q-41 0 -41 41z" />
<glyph unicode="M" horiz-adv-x="1710" d="M102 41v1393q0 41 41 41h187q41 0 61 -35l461 -1118l487 1116q20 37 62 37h166q41 0 41 -41v-1393q0 -41 -41 -41h-176q-41 0 -41 41v573l20 412h-4l-414 -989q-16 -37 -59 -37h-133q-41 0 -62 35l-395 991h-4l20 -412v-573q0 -41 -40 -41h-136q-41 0 -41 41z" />
<glyph unicode="N" horiz-adv-x="1302" d="M102 41v1393q0 41 41 41h144q45 0 67 -33l625 -1000h4l-20 418v574q0 41 41 41h155q41 0 41 -41v-1393q0 -41 -41 -41h-143q-45 0 -68 33l-624 999h-5l21 -418v-573q0 -41 -41 -41h-156q-41 0 -41 41z" />
<glyph unicode="O" horiz-adv-x="1609" d="M82 737q0 193 55.5 335t152.5 237.5t229 142.5t286 47t286 -47t229 -142.5t152.5 -237.5t55.5 -335t-55.5 -335t-152.5 -237t-229 -142.5t-286 -47.5t-286 47.5t-229 142.5t-152.5 237.5t-55.5 334.5zM352 737q0 -156 36 -264t98.5 -176t144.5 -97.5t174 -29.5t174 29.5 t144.5 97.5t98 176.5t35.5 263.5q0 156 -35.5 264.5t-97 176t-144.5 97.5t-175 30t-175 -30t-144.5 -97.5t-97.5 -176t-36 -264.5z" />
<glyph unicode="P" horiz-adv-x="1140" d="M102 41v1393q0 41 41 41h389q117 0 213.5 -40t166 -110t108.5 -164t39 -200q0 -104 -39 -197.5t-108.5 -163.5t-167 -110.5t-212.5 -40.5h-172v-408q0 -41 -41 -41h-176q-41 0 -41 41zM360 631h132q152 0 230.5 82t78.5 248t-79 247.5t-230 83.5h-132v-661z" />
<glyph unicode="Q" horiz-adv-x="1609" d="M82 737q0 193 55.5 335t152.5 237.5t229 142.5t286 47t286 -47t229 -142.5t152.5 -237.5t55.5 -335q0 -217 -68.5 -368.5t-187.5 -245.5l209 -307q12 -16 10 -24.5t-27 -8.5h-225q-41 0 -61 35l-123 192q-121 -35 -250 -35q-154 0 -286 47.5t-229 142.5t-152.5 237.5 t-55.5 334.5zM352 737q0 -156 36 -264t98.5 -176t144.5 -97.5t174 -29.5q35 0 68.5 3t66.5 13l-203 306q-12 16 -10 24t27 8h225q41 0 61 -35l103 -167q53 68 83.5 170t30.5 245q0 156 -35.5 264.5t-97 176t-144.5 97.5t-175 30t-175 -30t-144.5 -97.5t-97.5 -176 t-36 -264.5z" />
<glyph unicode="R" horiz-adv-x="1161" d="M102 41v1393q0 41 41 41h389q117 0 213.5 -40t166 -110t108.5 -164t39 -200q0 -152 -78 -275t-213 -186l315 -467q11 -14 11 -23q0 -10 -27 -10h-225q-41 0 -62 35l-260 414h-160v-408q0 -41 -41 -41h-176q-41 0 -41 41zM360 631h132q152 0 230.5 82t78.5 248t-79 247.5 t-230 83.5h-132v-661z" />
<glyph unicode="S" horiz-adv-x="1136" d="M83 98q0 10 9 31l33 86q4 12 20.5 10t32.5 -6q20 -6 59 -14t88.5 -15.5t100.5 -13.5t96 -6q135 0 215 52t80 138q0 74 -56 129.5t-134 85.5l-199 78q-150 57 -243 157.5t-93 258.5q0 100 40 180t107.5 135.5t157.5 85t193 29.5q68 0 136.5 -11t126.5 -27.5t101 -33 t58 -27.5q10 -8 11 -19t-9 -35l-33 -86q-4 -12 -20.5 -10.5t-32.5 5.5q-20 6 -57 14.5t-82.5 15.5t-94.5 13.5t-92 6.5q-82 0 -135 -20.5t-84 -52.5t-42 -69t-11 -69q0 -55 35.5 -103.5t140.5 -89.5l196 -74q88 -33 155 -81t111 -106t65.5 -123.5t21.5 -133.5 q0 -94 -39 -169t-108.5 -128t-168 -82t-215.5 -29q-66 0 -133 10.5t-127.5 26t-105.5 32.5t-64 32q-11 11 -11 22z" />
<glyph unicode="T" horiz-adv-x="983" d="M20 1331v103q0 41 41 41h861q41 0 41 -41v-103q0 -41 -41 -41h-301v-1249q0 -41 -41 -41h-177q-41 0 -41 41v1249h-301q-41 0 -41 41z" />
<glyph unicode="U" horiz-adv-x="1302" d="M102 524v910q0 41 41 41h176q41 0 41 -41v-852q0 -86 18.5 -163t55.5 -134.5t91.5 -91t125.5 -33.5q86 0 151.5 32.5t109.5 90t68 134.5t24 165v852q0 41 40 41h115q41 0 41 -41v-910q0 -119 -41 -219t-114.5 -174t-175 -115t-222.5 -41q-117 0 -217 42t-173 116 t-114 174.5t-41 216.5z" />
<glyph unicode="V" horiz-adv-x="1273" d="M27 1438q-5 11 -5 19q0 18 29 18h195q41 0 55 -39l215 -660l100 -366l41 -154l39 154l82 284l256 742q14 39 56 39h133q18 1 26 -9q4 -4 4 -11t-6 -17l-518 -1401q-16 -37 -57 -37h-90q-43 0 -58 37z" />
<glyph unicode="W" horiz-adv-x="1785" d="M27 1438q-5 11 -5 19q0 18 29 18h195q47 0 55 -39l197 -822l57 -358l57 358l197 822q8 39 51 39h127q43 0 51 -39l183 -822l51 -358l63 358l211 822q14 39 56 39h133q18 1 26 -9q4 -4 4 -11t-6 -17l-416 -1401q-12 -37 -57 -37h-131q-23 0 -38 8t-19 29l-209 995 l-221 -995q-4 -20 -19.5 -28.5t-38.5 -8.5h-131q-45 0 -57 37z" />
<glyph unicode="X" horiz-adv-x="1202" d="M21 11q0 10 14 34l420 709l-398 676q-14 25 -10 35t33 10h192q55 0 76 -39l260 -469l281 469q23 39 80 39h143q35 0 37 -10.5t-14 -34.5l-398 -656l432 -729q12 -18 12 -29q-1 -3 -1 -5q-4 -11 -35 -11h-193q-49 0 -75 39l-291 510l-305 -510q-12 -23 -33 -31t-45 -8 h-146q-36 0 -36 11z" />
<glyph unicode="Y" horiz-adv-x="1286" d="M29 1440q-7 12 -7 19q0 16 27 16h219q41 0 62 -35l327 -664l353 662q16 37 59 37h168q28 0 28 -19q0 -7 -5 -18l-498 -899v-498q0 -41 -41 -41h-176q-41 0 -41 41v498z" />
<glyph unicode="Z" horiz-adv-x="995" d="M20 41v74q0 39 21 78l621 1097h-588q-41 0 -41 41v103q0 41 41 41h844q41 0 40 -41v-74q0 -39 -20 -78l-619 -1098h615q41 0 41 -41v-102q0 -41 -41 -41h-873q-41 0 -41 41z" />
<glyph unicode="[" horiz-adv-x="559" d="M102 -266v2007q0 41 41 41h314q41 0 41 -41v-103q0 -41 -41 -41h-97v-1720h97q41 0 41 -41v-102q0 -41 -41 -41h-314q-41 0 -41 41z" />
<glyph unicode="\" horiz-adv-x="897" d="M27 1421q-18 37 20 56l92 43q37 18 56 -21l675 -1446q18 -37 -20 -55l-92 -43q-37 -18 -56 20z" />
<glyph unicode="]" horiz-adv-x="559" d="M61 -164q0 41 41 41h97v1720h-97q-41 0 -41 41v103q0 41 41 41h314q41 0 41 -41v-2007q0 -41 -41 -41h-314q-41 0 -41 41v102z" />
<glyph unicode="^" horiz-adv-x="1032" d="M27 897l366 582q10 16 22.5 26.5t35.5 10.5h131q23 0 35 -10.5t22 -26.5l367 -582q10 -18 1.5 -27.5t-26.5 -9.5h-147q-23 0 -33 10.5t-21 28.5l-264 473l-264 -473q-10 -18 -20.5 -28.5t-32.5 -10.5h-148q-43 0 -24 37z" />
<glyph unicode="_" horiz-adv-x="1372" d="M0 -369q0 41 41 41h1290q41 0 41 -41v-102q0 -41 -41 -41h-1290q-41 0 -41 41v102z" />
<glyph unicode="`" horiz-adv-x="612" d="M119 1487q-31 29 10 29h186q41 0 64 -35l123 -201q20 -35 -21 -35h-63q-41 0 -72 29z" />
<glyph unicode="a" horiz-adv-x="1052" d="M82 346q0 98 34 162.5t92 102.5t136 53.5t166 15.5h211q-4 33 -15.5 74t-36 77.5t-66.5 62.5t-105 26q-49 0 -105.5 -14.5t-126.5 -37.5q-29 -10 -39 -6t-14 10l-43 66q-18 29 2 53q14 16 49 34.5t82 33t104.5 24t118.5 9.5q133 0 219 -44t136.5 -120t70 -174.5 t19.5 -208.5v-504q0 -41 -41 -41h-103q-23 0 -29.5 9t-11.5 32l-20 84h-4q-41 -74 -116 -112t-179 -38q-78 0 -147.5 22.5t-123 69t-84 116t-30.5 163.5zM330 352q0 -31 10 -66.5t32.5 -66.5t59.5 -51.5t92 -20.5q94 0 147.5 72t53.5 230v59h-215q-82 0 -131 -41t-49 -115z " />
<glyph unicode="b" horiz-adv-x="1189" d="M102 41v1434q0 41 41 41h164q41 0 41 -41v-535h4q39 59 112 104.5t204 45.5q88 0 169 -28t140 -93.5t95 -173t36 -267.5q0 -158 -35 -264t-94 -170.5t-138 -92.5t-167 -28q-117 0 -208 37t-155 117h-4l-20 -86q-4 -23 -11.5 -32t-29.5 -9h-103q-41 0 -41 41zM348 528 q0 -205 73 -294t210 -89q55 0 99 16.5t72.5 59.5t44 117t15.5 190q0 119 -16.5 195t-46 119t-71.5 59.5t-95 16.5q-135 0 -210 -90.5t-75 -299.5z" />
<glyph unicode="c" horiz-adv-x="980" d="M82 535q0 113 22.5 214t79 176.5t151.5 121t243 45.5q51 0 100 -10.5t90 -26t70.5 -32.5t46.5 -32q10 -9 13 -21q1 -2 1 -5q0 -11 -12 -27l-43 -66q-8 -10 -23.5 -9t-29.5 5q-31 10 -83.5 31t-119.5 21q-76 0 -126 -33t-80 -86t-42 -123t-12 -146q0 -78 12 -147.5 t42 -122.5t80 -84t124 -31q59 0 108 17.5t97 34.5q16 6 30.5 6t22.5 -10l43 -66q18 -29 -2 -53q-29 -33 -113 -67t-215 -34q-139 0 -231.5 46.5t-146.5 123t-75.5 178t-21.5 212.5z" />
<glyph unicode="d" horiz-adv-x="1189" d="M82 528q0 160 36 267.5t95 173t139 93.5t170 28q131 0 204 -45.5t112 -104.5h4v535q0 41 41 41h164q41 0 40 -41v-1434q0 -41 -40 -41h-103q-23 0 -30 9t-11 32l-20 86h-4q-63 -80 -154.5 -117t-208.5 -37q-88 0 -167 28t-138 92.5t-94 171t-35 263.5zM328 528 q0 -117 15 -190.5t44 -116.5t73 -59.5t99 -16.5q137 0 210 89.5t73 293.5q0 209 -75 299.5t-210 90.5q-53 0 -95 -16.5t-72 -59.5t-46 -119t-16 -195z" />
<glyph unicode="e" horiz-adv-x="1056" d="M82 522q0 119 24.5 222.5t79 180t140.5 122t211 45.5q92 0 173 -27t139 -82t92 -138t34 -194q0 -59 -11.5 -98t-37 -62.5t-68.5 -34t-106 -10.5h-420q6 -66 21.5 -120t46 -93.5t76.5 -62.5t114 -23q59 0 118.5 15.5t122.5 36.5q31 10 40.5 6t13.5 -10l43 -66 q18 -29 -2 -53q-14 -16 -48 -34.5t-82 -33t-107.5 -24t-125.5 -9.5q-141 0 -234 45.5t-148.5 121t-77 174t-21.5 206.5zM332 618h315q47 0 63.5 11.5t16.5 58.5q0 45 -13.5 87t-37 74t-56 51.5t-73.5 19.5q-55 0 -94 -25t-65 -66t-39 -95t-17 -116z" />
<glyph unicode="f" horiz-adv-x="604" d="M20 944v80q0 41 41 41h107v131q0 162 71.5 241t211.5 79h75q41 0 41 -41v-91q0 -41 -41 -41h-14q-35 0 -66.5 -32.5t-31.5 -108.5v-137h129q41 0 41 -41v-80q0 -41 -41 -41h-129v-862q0 -41 -41 -41h-164q-41 0 -41 41v862h-107q-41 0 -41 41z" />
<glyph unicode="g" horiz-adv-x="1189" d="M82 537q0 158 35 264t94 170.5t138 92.5t167 28q117 0 208 -37t155 -117h4l20 86q4 23 11.5 32t29.5 9h103q41 0 40 -41v-963q0 -121 -35.5 -219t-100 -167.5t-154.5 -106.5t-199 -37q-66 0 -133.5 10t-128 25.5t-105.5 33t-63 31.5q-10 10 -11 20.5t9 33.5l33 86 q4 12 20.5 10t32.5 -6q20 -6 59 -14.5t88.5 -15.5t100.5 -13t96 -6q55 0 100 22.5t78 64.5t50.5 99t17.5 127v86h-4q-39 -59 -112 -104.5t-204 -45.5q-90 0 -170 28t-139 93.5t-95 173t-36 267.5zM328 537q0 -121 16 -197t46 -119t72 -58.5t95 -15.5q135 0 210 90.5 t75 299.5q0 205 -73 294t-210 89q-55 0 -99 -16.5t-73 -59.5t-44 -117t-15 -190z" />
<glyph unicode="h" horiz-adv-x="1128" d="M102 41v1434q0 41 41 41h164q41 0 41 -41v-535h4q33 59 96.5 104.5t178.5 45.5q82 0 154.5 -28t127 -93.5t86 -173t31.5 -267.5v-487q0 -41 -41 -41h-164q-41 0 -41 41v487q0 119 -13 195t-37.5 119t-59.5 59.5t-78 16.5q-117 0 -180.5 -75t-63.5 -253v-549 q0 -41 -41 -41h-164q-41 0 -41 41z" />
<glyph unicode="i" horiz-adv-x="450" d="M102 41v983q0 41 41 41h164q41 0 41 -41v-983q0 -41 -41 -41h-164q-41 0 -41 41zM102 1311v164q0 41 41 41h164q41 0 41 -41v-164q0 -41 -41 -41h-164q-41 0 -41 41z" />
<glyph unicode="j" horiz-adv-x="450" d="M-10 -319q0 40 39 40h2h14q20 0 38.5 38t18.5 124v1141q0 41 41 41h164q41 0 41 -41v-1155q0 -162 -71.5 -241t-210.5 -79h-35q-41 0 -41 41v91zM102 1311v164q0 41 41 41h164q41 0 41 -41v-164q0 -41 -41 -41h-164q-41 0 -41 41z" />
<glyph unicode="k" horiz-adv-x="997" d="M102 41v1434q0 41 41 41h162q41 0 41 -41v-877l344 434q25 33 66 33h170q45 0 16 -33l-407 -481l430 -518q11 -13 11 -21q0 -12 -28 -12h-200q-41 0 -66 33l-336 432v-424q0 -41 -41 -41h-162q-41 0 -41 41z" />
<glyph unicode="l" horiz-adv-x="462" d="M102 319v1156q0 41 41 41h164q41 0 41 -41v-1141q0 -86 18.5 -124t39.5 -38h14q41 0 41 -41v-90q0 -41 -41 -41h-35q-139 0 -211 79t-72 240z" />
<glyph unicode="m" horiz-adv-x="1581" d="M102 41v983q0 41 41 41h103q23 0 30 -9t11 -32l20 -84h4q31 72 98.5 111t133.5 39q96 0 175 -43t128 -125q41 80 114.5 124t147.5 44q76 0 143.5 -27t117.5 -78t80 -126t30 -171v-647q0 -41 -39 -41h-168q-39 0 -39 41v577q0 59 -7 113.5t-24.5 95.5t-45.5 66t-69 25 q-170 0 -174 -306v-571q0 -41 -39 -41h-167q-39 0 -39 41v577q0 59 -7.5 113.5t-25 95.5t-45 66t-68.5 25q-174 0 -174 -320v-557q0 -41 -41 -41h-164q-41 0 -41 41z" />
<glyph unicode="n" horiz-adv-x="1097" d="M102 41v983q0 41 41 41h103q23 0 30 -9t11 -32l20 -84h4q18 37 48 64.5t67 46t78 29t80 10.5q86 0 160.5 -27t130 -78t88 -126t32.5 -171v-647q0 -41 -39 -41h-168q-39 0 -38 41v577q0 59 -9.5 113.5t-31 95.5t-57.5 66t-89 25q-215 0 -215 -320v-557q0 -41 -41 -41h-164 q-41 0 -41 41z" />
<glyph unicode="o" d="M82 530q0 115 22.5 216.5t78 178t151.5 122t244 45.5q147 0 243.5 -45.5t151.5 -121t77.5 -178t22.5 -215.5q0 -115 -22.5 -216t-77.5 -177t-151.5 -120t-243.5 -44t-243.5 44t-152 119t-78 176.5t-22.5 215.5zM328 532q0 -78 10 -145.5t37.5 -117.5t76 -79.5 t126.5 -29.5q76 0 125 29.5t76.5 79.5t37.5 118t10 145q0 76 -10 144.5t-37.5 120t-77 81t-124.5 29.5q-78 0 -126.5 -29.5t-76 -81t-37.5 -120t-10 -144.5z" />
<glyph unicode="p" horiz-adv-x="1189" d="M102 -410v1434q0 41 41 41h103q23 0 30 -9t11 -32l20 -86h4q63 80 154.5 117t208.5 37q88 0 167 -28t138 -92.5t94 -171t35 -263.5q0 -160 -36 -267.5t-95 -173t-140 -93.5t-169 -28q-131 0 -204 45.5t-112 104.5h-4v-535q0 -41 -41 -41h-164q-41 0 -41 41zM348 537 q0 -209 75 -299.5t210 -90.5q53 0 95 15.5t71.5 58.5t46 119t16.5 197q0 117 -15.5 190.5t-44 116.5t-72.5 59.5t-99 16.5q-137 0 -210 -89.5t-73 -293.5z" />
<glyph unicode="q" horiz-adv-x="1189" d="M82 537q0 158 35 264t94 170.5t138 92.5t167 28q117 0 208 -37t155 -117h4l20 86q4 23 11.5 32t29.5 9h103q41 0 40 -41v-1434q0 -41 -40 -41h-164q-41 0 -41 41v535h-4q-39 -59 -112 -104.5t-204 -45.5q-90 0 -170 28t-139 93.5t-95 173t-36 267.5zM328 537 q0 -121 16 -197t46 -119t72 -58.5t95 -15.5q135 0 210 90.5t75 299.5q0 205 -73 294t-210 89q-55 0 -99 -16.5t-73 -59.5t-44 -117t-15 -190z" />
<glyph unicode="r" horiz-adv-x="647" d="M102 41v983q0 41 41 41h103q23 0 26.5 -10.5t14.5 -30.5l20 -78h4q33 51 69 78t70.5 39t70.5 15t69 3q23 0 30 -4t7 -26v-154q0 -20 -7.5 -27.5t-19.5 -8.5t-27.5 2t-29.5 3q-195 0 -195 -198v-627q0 -41 -41 -41h-164q-41 0 -41 41z" />
<glyph unicode="s" horiz-adv-x="970" d="M92 129l43 66q8 10 23.5 9t29.5 -5q59 -20 123 -36t140 -16q63 0 103 12.5t62.5 32t30.5 44t8 49.5q0 47 -35.5 72.5t-123.5 54.5l-177 53q-115 35 -166 114.5t-51 182.5q0 70 25 130t73 105t119.5 70t165.5 25q131 0 226.5 -33t130.5 -68q6 -6 11 -18t-11 -35l-43 -66 q-6 -14 -22.5 -11t-31.5 7q-55 20 -113.5 36t-123.5 16q-92 0 -132 -37t-40 -97q0 -35 18.5 -61.5t61.5 -38.5l239 -70q133 -39 183.5 -114.5t50.5 -194.5q0 -84 -35 -145.5t-93.5 -103.5t-136 -62.5t-161.5 -20.5q-66 0 -125 8.5t-108.5 21.5t-85 31.5t-50.5 39.5 q-10 14 -10 28q0 13 8 25z" />
<glyph unicode="t" horiz-adv-x="645" d="M20 944v80q0 41 41 41h107v158q0 23 10 27.5t31 13.5l164 61q8 3 14 3q11 0 17 -8q10 -13 10 -36v-219h129q41 0 41 -41v-80q0 -41 -41 -41h-129v-590q0 -76 31.5 -108.5t66.5 -32.5h14q41 0 41 -41v-90q0 -41 -41 -41h-75q-139 0 -211 79t-72 240v584h-107q-41 0 -41 41 z" />
<glyph unicode="u" horiz-adv-x="1097" d="M102 377v647q0 41 39 41h168q39 0 39 -41v-578q0 -59 9.5 -113t31 -95t57 -66t89.5 -25q215 0 215 320v557q0 41 41 41h163q41 0 41 -41v-983q0 -41 -41 -41h-102q-23 0 -30 9t-11 32l-20 84h-5q-18 -37 -47.5 -64.5t-66.5 -46t-78 -29t-80 -10.5q-86 0 -160.5 27 t-130 78t-88.5 126t-33 171z" />
<glyph unicode="v" horiz-adv-x="1032" d="M27 1028q-5 11 -5 19q0 18 29 18h189q41 0 53 -39l223 -780l223 780q8 39 54 39h188q19 0 27 -9q4 -4 3 -10q0 -7 -5 -18l-367 -991q-18 -37 -57 -37h-131q-39 0 -58 37z" />
<glyph unicode="w" horiz-adv-x="1605" d="M27 1028q-5 11 -5 19q0 18 29 18h189q41 0 53 -39l182 -780l203 780q8 39 51 39h148q43 0 51 -39l202 -780l183 780q8 39 53 39h188q18 0 26 -9q4 -4 4 -10q0 -7 -5 -18l-326 -991q-18 -37 -57 -37h-131q-39 0 -57 37l-205 663l-205 -663q-18 -37 -57 -37h-131 q-39 0 -58 37z" />
<glyph unicode="x" horiz-adv-x="1032" d="M31 33l344 512l-328 487q-25 33 16 33h226q41 0 61 -35l166 -348l176 348q20 35 64 35h213q25 0 26.5 -8t-10.5 -25l-328 -487l344 -512q9 -12 9 -20q0 -13 -25 -13h-225q-41 0 -62 35l-182 362l-192 -362q-20 -35 -64 -35h-213q-25 0 -25 13q0 8 9 20z" />
<glyph unicode="y" horiz-adv-x="1073" d="M27 1028q-5 11 -5 19q0 18 29 18h189q41 0 53 -39l248 -782l250 782q14 39 55 39h176q18 0 26 -9q4 -4 4 -10q0 -8 -5 -18l-562 -1442q-18 -37 -57 -37h-182q-18 0 -26.5 9.5t1.5 27.5l193 430z" />
<glyph unicode="z" horiz-adv-x="872" d="M61 41v74q0 39 21 78l430 710h-397q-41 0 -41 41v80q0 41 41 41h639q41 0 41 -41v-74q0 -39 -21 -78l-428 -710h424q41 0 41 -41v-80q0 -41 -41 -41h-668q-41 0 -41 41z" />
<glyph unicode="{" horiz-adv-x="833" d="M102 694v103q0 41 41 41q39 0 71 21.5t53.5 58t32.5 85t11 101.5v295q0 61 24.5 110.5t64.5 83t90.5 52t103.5 18.5h96q41 0 41 -41v-115q0 -41 -41 -41h-28q-53 0 -74 -54t-21 -144v-230q0 -123 -47 -192.5t-121 -97.5v-5q76 -27 122 -97.5t46 -192.5v-242 q0 -90 20.5 -144.5t74.5 -54.5h28q41 0 41 -41v-114q0 -41 -41 -41h-96q-51 0 -102.5 17t-91.5 51t-64.5 83t-24.5 113v307q0 53 -10 101.5t-31.5 85t-53.5 58t-73 21.5t-41 41z" />
<glyph unicode="|" horiz-adv-x="389" d="M102 -266v1802q0 41 41 41h103q41 0 41 -41v-1802q0 -41 -41 -41h-103q-41 0 -41 41z" />
<glyph unicode="}" horiz-adv-x="833" d="M102 -29q0 41 41 41h29q53 0 73.5 54.5t20.5 144.5v242q0 123 46 193.5t122 96.5v5q-74 29 -121 98t-47 192v230q0 90 -20.5 144t-73.5 54h-29q-41 0 -41 41v115q0 41 41 41h97q53 0 103 -18.5t90 -52t64.5 -83t24.5 -110.5v-295q0 -53 11.5 -101.5t33 -85t52 -58 t71.5 -21.5t41 -41v-103q0 -41 -41 -41t-72.5 -21.5t-53 -58t-32 -85t-10.5 -101.5v-307q0 -63 -24.5 -112.5t-64.5 -83.5t-91 -51t-102 -17h-97q-41 0 -41 41v114z" />
<glyph unicode="~" horiz-adv-x="780" d="M102 666q2 41 12.5 77.5t32 64.5t55.5 44t81 16q35 0 68.5 -12t66.5 -27q49 -23 63.5 -27.5t18.5 -4.5q16 0 23 10t13.5 23.5t16.5 23.5t33 10h61q12 0 21.5 -10t9.5 -23q-2 -84 -43 -143t-135 -59q-18 0 -36 5t-34 11q-53 20 -94 37.5t-53 17.5q-16 0 -25.5 -10 t-17 -23.5t-17.5 -23.5t-26 -10h-62q-14 0 -23.5 10t-9.5 23z" />
<glyph unicode="&#xa1;" horiz-adv-x="462" d="M102 -471l41 942q2 41 41 41h95q39 0 40 -41l41 -942q2 -41 -41 -41h-176q-43 0 -41 41zM102 758v164q0 41 41 41h176q41 0 41 -41v-164q0 -41 -41 -41h-176q-41 0 -41 41z" />
<glyph unicode="&#xa2;" horiz-adv-x="980" d="M82 535q0 104 18.5 197t65.5 167t125 123t198 63v246q0 41 41 41h103q41 0 41 -41v-250q74 -14 131 -41.5t80 -48.5q10 -10 13 -21.5t-11 -31.5l-43 -66q-8 -10 -23.5 -9t-29.5 5q-31 10 -83.5 31t-119.5 21q-76 0 -126 -33t-80 -86t-42 -123t-12 -146q0 -78 12 -147.5 t42 -122.5t80 -84t124 -31q59 0 108 17.5t97 34.5q16 6 30.5 6t22.5 -10l43 -66q18 -29 -2 -53q-23 -25 -76 -51.5t-135 -38.5v-252q0 -41 -41 -41h-103q-41 0 -41 41v246q-121 10 -198.5 59t-124.5 124t-65.5 171t-18.5 201z" />
<glyph unicode="&#xa5;" horiz-adv-x="1286" d="M29 1440q-20 35 20 35h219q41 0 62 -35l327 -664l353 662q16 37 59 37h168q39 0 23 -37l-410 -738h168q41 0 41 -41v-90q0 -41 -41 -41h-256v-143h256q41 0 41 -41v-90q0 -41 -41 -41h-256v-172q0 -41 -41 -41h-176q-41 0 -41 41v172h-236q-41 0 -41 41v90q0 41 41 41 h236v143h-236q-41 0 -41 41v90q0 41 41 41h150z" />
<glyph unicode="&#xa8;" horiz-adv-x="819" d="M102 1290v144q0 41 41 41h144q41 0 41 -41v-144q0 -41 -41 -41h-144q-41 0 -41 41zM492 1290v144q0 41 40 41h144q41 0 41 -41v-144q0 -41 -41 -41h-144q-41 0 -40 41z" />
<glyph unicode="&#xa9;" horiz-adv-x="1433" d="M102 573q0 127 48.5 240t131.5 196t195.5 131t239.5 48t239.5 -48t195.5 -131t131 -196t48 -240t-48 -239.5t-131 -195.5t-195.5 -131t-239.5 -48t-239.5 48t-195.5 131t-131.5 195.5t-48.5 239.5zM184 573q0 -111 42 -208t114 -168.5t169 -113.5t208 -42t208 42 t168.5 113.5t113.5 169t42 207.5q0 111 -42 208.5t-113.5 169t-169 113.5t-207.5 42q-111 0 -208 -42t-169 -113.5t-114 -169t-42 -208.5zM397 586q0 96 28 167.5t76 119t113.5 71t143.5 23.5q68 0 127 -18.5t78 -33.5q10 -6 2 -26l-17 -43q-6 -6 -26 -2q-25 6 -69 15t-95 9 q-47 0 -88 -15t-72 -49t-48.5 -87t-17.5 -131t17.5 -132.5t48.5 -88t72 -49t88 -15.5q51 0 95 9t69 16q6 4 14 4t12 -6l17 -37q8 -23 -2 -33q-18 -14 -78 -31.5t-127 -17.5q-76 0 -141.5 23.5t-114.5 70.5t-77 118.5t-28 168.5z" />
<glyph unicode="&#xab;" horiz-adv-x="1097" d="M82 715v57q0 23 10 33t27 24l553 433q37 16 37 -25v-111q0 -23 -10.5 -33t-26.5 -24l-418 -326l418 -325q16 -14 26.5 -24.5t10.5 -33.5v-110q0 -41 -37 -25l-553 432q-16 14 -26.5 24.5t-10.5 33.5zM492 715v57q0 23 10 33t26 24l451 351q18 10 27.5 2t9.5 -27v-111 q0 -23 -10.5 -33t-26.5 -24l-315 -244l315 -243q16 -14 26.5 -24.5t10.5 -33.5v-110q0 -41 -37 -25l-451 350q-16 14 -26 24.5t-10 33.5z" />
<glyph unicode="&#xad;" horiz-adv-x="757" d="M102 694v103q0 41 41 41h471q41 0 41 -41v-103q0 -41 -41 -41h-471q-41 0 -41 41z" />
<glyph unicode="&#xae;" horiz-adv-x="1433" d="M102 942q0 127 48.5 239.5t131.5 195.5t195.5 131t239.5 48t239.5 -48t195.5 -131t131 -195.5t48 -239.5t-48 -239.5t-131 -195.5t-195.5 -131t-239.5 -48t-239.5 48t-195.5 131t-131.5 195.5t-48.5 239.5zM184 942q0 -111 42 -208t114 -168.5t169 -113.5t208 -42t208 42 t168.5 113.5t113.5 168.5t42 208t-42 208t-113.5 169t-169 114t-207.5 42q-111 0 -208 -42t-169 -114t-114 -169t-42 -208zM506 608v697q0 20 20 20h195q57 0 105 -20.5t83 -55.5t54.5 -82t19.5 -100q0 -76 -39 -137.5t-106 -91.5l157 -234q6 -10 5 -13t-13 -3h-113 q-20 0 -30 16l-129 207h-80v-203q0 -20 -21 -20h-88q-20 0 -20 20zM635 903h65q154 0 154 164q0 166 -154 166h-65v-330z" />
<glyph unicode="&#xaf;" horiz-adv-x="921" d="M102 1331v62q0 41 41 41h635q41 0 41 -41v-62q0 -41 -41 -41h-635q-41 0 -41 41z" />
<glyph unicode="&#xb4;" horiz-adv-x="612" d="M111 1280l122 201q23 35 64 35h186q41 0 11 -29l-228 -213q-31 -29 -71 -29h-64q-41 0 -20 35z" />
<glyph unicode="&#xb8;" horiz-adv-x="565" d="M104 -401l2 36q2 41 44 39v-2h43q68 0 99.5 21.5t31.5 56.5q0 31 -28 49.5t-106 18.5l46 182h112l-29 -111q70 -10 107 -52t37 -101q0 -80 -63.5 -135.5t-174.5 -55.5q-37 0 -62.5 2t-21.5 7q-39 2 -37 45z" />
<glyph unicode="&#xbb;" horiz-adv-x="1097" d="M82 332v110q0 23 10 33t27 25l315 243l-315 244q-16 14 -26.5 24.5t-10.5 32.5v111q0 18 9 26.5t28 -1.5l450 -351q16 -14 26.5 -24t10.5 -33v-57q0 -23 -10 -33t-27 -25l-450 -350q-37 -16 -37 25zM389 250v110q0 23 10.5 33t26.5 25l418 325l-418 326 q-16 14 -26.5 24.5t-10.5 32.5v111q0 41 37 25l553 -433q16 -14 26.5 -24t10.5 -33v-57q0 -23 -10.5 -33t-26.5 -25l-553 -432q-37 -16 -37 25z" />
<glyph unicode="&#xbf;" horiz-adv-x="1040" d="M86 -137q6 -102 43 -174t95.5 -117t134 -64.5t155.5 -19.5q63 0 131 11.5t126 26.5t101 32.5t60 29.5q10 10 11 19.5t-9 34.5l-33 86q-4 10 -14 10t-39 -6q-27 -6 -66 -14.5t-81 -16.5t-82.5 -13t-71.5 -5q-53 0 -90 15t-59.5 40.5t-34 58.5t-11.5 68q0 49 16.5 96t38 86 t42 66.5t26.5 33.5q41 47 73 85t53.5 75t32.5 75t11 85v29q0 41 -41 41h-176q-41 0 -41 -41v-29q0 -49 -27.5 -96t-61.5 -86t-65.5 -67t-37.5 -36q-59 -72 -86 -149.5t-23 -169.5zM387 782v164q0 41 41 41h176q41 0 41 -41v-164q0 -41 -41 -41h-176q-41 0 -41 41z" />
<glyph unicode="&#xc0;" horiz-adv-x="1376" d="M24.5 9q-8.5 9 2.5 28l559 1401q14 37 57 37h90q41 0 58 -37l559 -1401q18 -37 -25 -37h-195q-41 0 -55 39l-127 323h-581l-127 -323q-14 -39 -56 -39h-133q-18 0 -26.5 9zM373 1897q-31 29 10 29h186q41 0 64 -35l123 -201q20 -35 -21 -35h-63q-41 0 -72 29zM434 535 h447l-183 530l-41 154l-39 -154z" />
<glyph unicode="&#xc1;" horiz-adv-x="1376" d="M24.5 9q-8.5 9 2.5 28l559 1401q14 37 57 37h90q41 0 58 -37l559 -1401q18 -37 -25 -37h-195q-41 0 -55 39l-127 323h-581l-127 -323q-14 -39 -56 -39h-133q-18 0 -26.5 9zM434 535h447l-183 530l-41 154l-39 -154zM650 1690l122 201q23 35 64 35h186q41 0 11 -29 l-228 -213q-31 -29 -71 -29h-64q-41 0 -20 35z" />
<glyph unicode="&#xc2;" horiz-adv-x="1376" d="M24.5 9q-8.5 9 2.5 28l559 1401q14 37 57 37h90q41 0 58 -37l559 -1401q18 -37 -25 -37h-195q-41 0 -55 39l-127 323h-581l-127 -323q-14 -39 -56 -39h-133q-18 0 -26.5 9zM406 1688l147 205q25 33 66 33h139q41 0 65 -33l148 -205q25 -33 -16 -33h-70q-41 0 -70 29 l-127 127l-127 -127q-29 -29 -69 -29h-70q-41 0 -16 33zM434 535h447l-183 530l-41 154l-39 -154z" />
<glyph unicode="&#xc3;" horiz-adv-x="1376" d="M24.5 9q-8.5 9 2.5 28l559 1401q14 37 57 37h90q41 0 58 -37l559 -1401q18 -37 -25 -37h-195q-41 0 -55 39l-127 323h-581l-127 -323q-14 -39 -56 -39h-133q-18 0 -26.5 9zM399 1690q2 41 12.5 78t32 64.5t55.5 44t81 16.5q35 0 68.5 -12.5t66.5 -26.5q49 -23 63.5 -28 t18.5 -5q16 0 23 10.5t13.5 23.5t16.5 23.5t33 10.5h61q12 0 21.5 -10.5t9.5 -22.5q-2 -84 -43 -143.5t-135 -59.5q-18 0 -36 5t-34 12q-53 20 -94 37.5t-53 17.5q-16 0 -25.5 -10.5t-17 -23.5t-17.5 -23.5t-26 -10.5h-62q-14 0 -23.5 10.5t-9.5 22.5zM434 535h447l-183 530 l-41 154l-39 -154z" />
<glyph unicode="&#xc4;" horiz-adv-x="1376" d="M24.5 9q-8.5 9 2.5 28l559 1401q14 37 57 37h90q41 0 58 -37l559 -1401q18 -37 -25 -37h-195q-41 0 -55 39l-127 323h-581l-127 -323q-14 -39 -56 -39h-133q-18 0 -26.5 9zM381 1700v144q0 41 41 41h144q41 0 41 -41v-144q0 -41 -41 -41h-144q-41 0 -41 41zM434 535h447 l-183 530l-41 154l-39 -154zM771 1700v144q0 41 40 41h144q41 0 41 -41v-144q0 -41 -41 -41h-144q-41 0 -40 41z" />
<glyph unicode="&#xc5;" horiz-adv-x="1376" d="M24.5 9q-8.5 9 2.5 28l559 1401q14 37 57 37h90q41 0 58 -37l559 -1401q18 -37 -25 -37h-195q-41 0 -55 39l-127 323h-581l-127 -323q-14 -39 -56 -39h-133q-18 0 -26.5 9zM434 535h447l-183 530l-41 154l-39 -154zM497 1778q0 39 15.5 74t41 61.5t60.5 41t74 14.5 q82 0 136 -54.5t54 -136.5q0 -39 -14 -73.5t-41 -60.5t-61.5 -41t-73.5 -15q-37 0 -72 15t-61.5 41t-42 60.5t-15.5 73.5zM583 1778q0 -41 32 -72.5t73 -31.5t72.5 28.5t31.5 75.5q0 45 -28.5 75t-75.5 30t-76 -32t-29 -73z" />
<glyph unicode="&#xc6;" horiz-adv-x="1468" d="M27 37l559 1401q14 37 57 37h703q41 0 40 -41v-103q0 -41 -40 -41h-404v-452h301q41 0 41 -41v-103q0 -41 -41 -41h-301v-469h404q41 0 40 -41v-102q0 -41 -40 -41h-621q-41 0 -41 41v321h-317l-127 -323q-14 -39 -56 -39h-133q-41 0 -24 37zM434 535h250v684h-27 l-39 -154z" />
<glyph unicode="&#xc7;" horiz-adv-x="1308" d="M82 737q0 193 55.5 335t152.5 237.5t229 142.5t286 47q68 0 132 -10t119.5 -25.5t97.5 -33t60 -31.5q10 -10 11.5 -20.5t-8.5 -32.5l-33 -86q-8 -10 -22.5 -9.5t-31.5 4.5q-47 12 -135 31t-190 19q-92 0 -175 -30t-144.5 -97.5t-97.5 -176t-36 -264.5t36 -264t98.5 -176 t144.5 -97.5t174 -29.5q102 0 190 18.5t135 30.5q14 4 30 5t24 -9l33 -76q10 -29 9 -41t-12 -22q-18 -12 -55 -28.5t-87 -31t-109.5 -25.5t-120.5 -14l-23 -88q70 -10 107 -52t37 -101q0 -80 -63.5 -135.5t-174.5 -55.5q-37 0 -62.5 2t-21.5 7q-39 2 -37 45l2 36q2 41 43 39 v-2h43q68 0 99.5 21.5t31.5 56.5q0 31 -22.5 38t-73.5 11q-23 2 -28 19.5t1 38.5l29 123q-139 10 -258 62t-205 146.5t-135 231.5t-49 317z" />
<glyph unicode="&#xc8;" horiz-adv-x="989" d="M102 41v1393q0 41 41 41h723q41 0 41 -41v-103q0 -41 -41 -41h-506v-452h404q41 0 41 -41v-103q0 -41 -41 -41h-404v-469h506q41 0 41 -41v-102q0 -41 -41 -41h-723q-41 0 -41 41zM242 1897q-31 29 10 29h186q41 0 64 -35l123 -201q20 -35 -21 -35h-63q-41 0 -72 29z" />
<glyph unicode="&#xc9;" horiz-adv-x="989" d="M102 41v1393q0 41 41 41h723q41 0 41 -41v-103q0 -41 -41 -41h-506v-452h404q41 0 41 -41v-103q0 -41 -41 -41h-404v-469h506q41 0 41 -41v-102q0 -41 -41 -41h-723q-41 0 -41 41zM379 1690l122 201q23 35 64 35h186q41 0 11 -29l-228 -213q-31 -29 -71 -29h-64 q-41 0 -20 35z" />
<glyph unicode="&#xca;" horiz-adv-x="989" d="M102 41v1393q0 41 41 41h723q41 0 41 -41v-103q0 -41 -41 -41h-506v-452h404q41 0 41 -41v-103q0 -41 -41 -41h-404v-469h506q41 0 41 -41v-102q0 -41 -41 -41h-723q-41 0 -41 41zM211 1688l147 205q25 33 66 33h139q41 0 65 -33l148 -205q25 -33 -16 -33h-70 q-41 0 -70 29l-127 127l-127 -127q-29 -29 -69 -29h-70q-41 0 -16 33z" />
<glyph unicode="&#xcb;" horiz-adv-x="989" d="M102 41v1393q0 41 41 41h723q41 0 41 -41v-103q0 -41 -41 -41h-506v-452h404q41 0 41 -41v-103q0 -41 -41 -41h-404v-469h506q41 0 41 -41v-102q0 -41 -41 -41h-723q-41 0 -41 41zM186 1700v144q0 41 41 41h144q41 0 41 -41v-144q0 -41 -41 -41h-144q-41 0 -41 41z M576 1700v144q0 41 40 41h144q41 0 41 -41v-144q0 -41 -41 -41h-144q-41 0 -40 41z" />
<glyph unicode="&#xcc;" horiz-adv-x="462" d="M-39 1897q-31 29 10 29h186q41 0 64 -35l123 -201q20 -35 -21 -35h-63q-41 0 -72 29zM102 41v1393q0 41 41 41h176q41 0 41 -41v-1393q0 -41 -41 -41h-176q-41 0 -41 41z" />
<glyph unicode="&#xcd;" horiz-adv-x="462" d="M102 41v1393q0 41 41 41h176q41 0 41 -41v-1393q0 -41 -41 -41h-176q-41 0 -41 41zM115 1690l122 201q23 35 64 35h186q41 0 11 -29l-228 -213q-31 -29 -71 -29h-64q-41 0 -20 35z" />
<glyph unicode="&#xce;" horiz-adv-x="462" d="M-49 1688l147 205q25 33 66 33h139q41 0 65 -33l148 -205q25 -33 -16 -33h-70q-41 0 -70 29l-127 127l-127 -127q-29 -29 -69 -29h-70q-41 0 -16 33zM102 41v1393q0 41 41 41h176q41 0 41 -41v-1393q0 -41 -41 -41h-176q-41 0 -41 41z" />
<glyph unicode="&#xcf;" horiz-adv-x="462" d="M-74 1700v144q0 41 41 41h144q41 0 41 -41v-144q0 -41 -41 -41h-144q-41 0 -41 41zM102 41v1393q0 41 41 41h176q41 0 41 -41v-1393q0 -41 -41 -41h-176q-41 0 -41 41zM316 1700v144q0 41 40 41h144q41 0 41 -41v-144q0 -41 -41 -41h-144q-41 0 -40 41z" />
<glyph unicode="&#xd0;" horiz-adv-x="1443" d="M82 694v103q0 41 41 41h102v596q0 41 41 41h471q125 0 239 -54.5t200 -152t136 -231.5t50 -294t-53.5 -295t-144.5 -234t-214 -155.5t-262 -58.5h-422q-41 0 -41 41v612h-102q-41 0 -41 41zM483 184h203q88 0 163 43t129 120t84 180.5t30 226.5q0 119 -34 218 t-91.5 169.5t-134 109.5t-162.5 39h-187v-452h316q41 0 41 -41v-103q0 -41 -41 -41h-316v-469z" />
<glyph unicode="&#xd1;" horiz-adv-x="1302" d="M102 41v1393q0 41 41 41h144q45 0 67 -33l625 -1000h4l-20 418v574q0 41 41 41h155q41 0 41 -41v-1393q0 -41 -41 -41h-143q-45 0 -68 33l-624 999h-5l21 -418v-573q0 -41 -41 -41h-156q-41 0 -41 41zM362 1690q2 41 12.5 78t32 64.5t55.5 44t81 16.5q35 0 68.5 -12.5 t66.5 -26.5q49 -23 63.5 -28t18.5 -5q16 0 23 10.5t13.5 23.5t16.5 23.5t33 10.5h61q12 0 21.5 -10.5t9.5 -22.5q-2 -84 -43 -143.5t-135 -59.5q-18 0 -36 5t-34 12q-53 20 -94 37.5t-53 17.5q-16 0 -25.5 -10.5t-17 -23.5t-17.5 -23.5t-26 -10.5h-62q-14 0 -23.5 10.5 t-9.5 22.5z" />
<glyph unicode="&#xd2;" horiz-adv-x="1609" d="M82 737q0 193 55.5 335t152.5 237.5t229 142.5t286 47t286 -47t229 -142.5t152.5 -237.5t55.5 -335t-55.5 -335t-152.5 -237t-229 -142.5t-286 -47.5t-286 47.5t-229 142.5t-152.5 237.5t-55.5 334.5zM352 737q0 -156 36 -264t98.5 -176t144.5 -97.5t174 -29.5t174 29.5 t144.5 97.5t98 176.5t35.5 263.5q0 156 -35.5 264.5t-97 176t-144.5 97.5t-175 30t-175 -30t-144.5 -97.5t-97.5 -176t-36 -264.5zM541 1897q-31 29 10 29h186q41 0 64 -35l123 -201q20 -35 -21 -35h-63q-41 0 -72 29z" />
<glyph unicode="&#xd3;" horiz-adv-x="1609" d="M82 737q0 193 55.5 335t152.5 237.5t229 142.5t286 47t286 -47t229 -142.5t152.5 -237.5t55.5 -335t-55.5 -335t-152.5 -237t-229 -142.5t-286 -47.5t-286 47.5t-229 142.5t-152.5 237.5t-55.5 334.5zM352 737q0 -156 36 -264t98.5 -176t144.5 -97.5t174 -29.5t174 29.5 t144.5 97.5t98 176.5t35.5 263.5q0 156 -35.5 264.5t-97 176t-144.5 97.5t-175 30t-175 -30t-144.5 -97.5t-97.5 -176t-36 -264.5zM705 1690l122 201q23 35 64 35h186q41 0 11 -29l-228 -213q-31 -29 -71 -29h-64q-41 0 -20 35z" />
<glyph unicode="&#xd4;" horiz-adv-x="1609" d="M82 737q0 193 55.5 335t152.5 237.5t229 142.5t286 47t286 -47t229 -142.5t152.5 -237.5t55.5 -335t-55.5 -335t-152.5 -237t-229 -142.5t-286 -47.5t-286 47.5t-229 142.5t-152.5 237.5t-55.5 334.5zM352 737q0 -156 36 -264t98.5 -176t144.5 -97.5t174 -29.5t174 29.5 t144.5 97.5t98 176.5t35.5 263.5q0 156 -35.5 264.5t-97 176t-144.5 97.5t-175 30t-175 -30t-144.5 -97.5t-97.5 -176t-36 -264.5zM523 1688l147 205q25 33 66 33h139q41 0 65 -33l148 -205q25 -33 -16 -33h-70q-41 0 -70 29l-127 127l-127 -127q-29 -29 -69 -29h-70 q-41 0 -16 33z" />
<glyph unicode="&#xd5;" horiz-adv-x="1609" d="M82 737q0 193 55.5 335t152.5 237.5t229 142.5t286 47t286 -47t229 -142.5t152.5 -237.5t55.5 -335t-55.5 -335t-152.5 -237t-229 -142.5t-286 -47.5t-286 47.5t-229 142.5t-152.5 237.5t-55.5 334.5zM352 737q0 -156 36 -264t98.5 -176t144.5 -97.5t174 -29.5t174 29.5 t144.5 97.5t98 176.5t35.5 263.5q0 156 -35.5 264.5t-97 176t-144.5 97.5t-175 30t-175 -30t-144.5 -97.5t-97.5 -176t-36 -264.5zM516 1690q2 41 12.5 78t32 64.5t55.5 44t81 16.5q35 0 68.5 -12.5t66.5 -26.5q49 -23 63.5 -28t18.5 -5q16 0 23 10.5t13.5 23.5t16.5 23.5 t33 10.5h61q12 0 21.5 -10.5t9.5 -22.5q-2 -84 -43 -143.5t-135 -59.5q-18 0 -36 5t-34 12q-53 20 -94 37.5t-53 17.5q-16 0 -25.5 -10.5t-17 -23.5t-17.5 -23.5t-26 -10.5h-62q-14 0 -23.5 10.5t-9.5 22.5z" />
<glyph unicode="&#xd6;" horiz-adv-x="1609" d="M82 737q0 193 55.5 335t152.5 237.5t229 142.5t286 47t286 -47t229 -142.5t152.5 -237.5t55.5 -335t-55.5 -335t-152.5 -237t-229 -142.5t-286 -47.5t-286 47.5t-229 142.5t-152.5 237.5t-55.5 334.5zM352 737q0 -156 36 -264t98.5 -176t144.5 -97.5t174 -29.5t174 29.5 t144.5 97.5t98 176.5t35.5 263.5q0 156 -35.5 264.5t-97 176t-144.5 97.5t-175 30t-175 -30t-144.5 -97.5t-97.5 -176t-36 -264.5zM497 1700v144q0 41 41 41h144q41 0 41 -41v-144q0 -41 -41 -41h-144q-41 0 -41 41zM887 1700v144q0 41 40 41h144q41 0 41 -41v-144 q0 -41 -41 -41h-144q-41 0 -40 41z" />
<glyph unicode="&#xd7;" horiz-adv-x="802" d="M98 514q-29 29 0 57l172 174l-172 175q-29 29 0 57l72 72q29 29 57 0l174 -172l174 172q29 29 58 0l72 -72q29 -29 0 -57l-173 -175l173 -174q29 -29 0 -57l-72 -72q-29 -29 -58 0l-174 172l-174 -172q-29 -29 -57 0z" />
<glyph unicode="&#xd8;" horiz-adv-x="1609" d="M82 737q0 193 55.5 335t152.5 237.5t229 142.5t286 47q123 0 229.5 -29.5t196.5 -89.5l57 68q27 33 60 6l77 -65q33 -27 5 -60l-62 -74q76 -94 118 -223t42 -295q0 -193 -55.5 -335t-152.5 -237t-229.5 -142.5t-285.5 -47.5q-123 0 -229.5 30t-196.5 89l-57 -67 q-27 -33 -60 -7l-78 66q-33 27 -4 59l62 72q-76 94 -118 223t-42 297zM352 737q0 -195 58 -321l677 794q-59 49 -130.5 72t-151.5 23q-92 0 -175 -30t-144.5 -97.5t-97.5 -176t-36 -264.5zM522 262q59 -49 131 -70.5t152 -21.5q92 0 174 29.5t144.5 97.5t98 176.5 t35.5 263.5q0 100 -14 179t-43 143z" />
<glyph unicode="&#xd9;" horiz-adv-x="1302" d="M102 524v910q0 41 41 41h176q41 0 41 -41v-852q0 -86 18.5 -163t55.5 -134.5t91.5 -91t125.5 -33.5q86 0 151.5 32.5t109.5 90t68 134.5t24 165v852q0 41 40 41h115q41 0 41 -41v-910q0 -119 -41 -219t-114.5 -174t-175 -115t-222.5 -41q-117 0 -217 42t-173 116 t-114 174.5t-41 216.5zM463 1897q-31 29 10 29h186q41 0 64 -35l123 -201q20 -35 -21 -35h-63q-41 0 -72 29z" />
<glyph unicode="&#xda;" horiz-adv-x="1302" d="M102 524v910q0 41 41 41h176q41 0 41 -41v-852q0 -86 18.5 -163t55.5 -134.5t91.5 -91t125.5 -33.5q86 0 151.5 32.5t109.5 90t68 134.5t24 165v852q0 41 40 41h115q41 0 41 -41v-910q0 -119 -41 -219t-114.5 -174t-175 -115t-222.5 -41q-117 0 -217 42t-173 116 t-114 174.5t-41 216.5zM455 1690l122 201q23 35 64 35h186q41 0 11 -29l-228 -213q-31 -29 -71 -29h-64q-41 0 -20 35z" />
<glyph unicode="&#xdb;" horiz-adv-x="1302" d="M102 524v910q0 41 41 41h176q41 0 41 -41v-852q0 -86 18.5 -163t55.5 -134.5t91.5 -91t125.5 -33.5q86 0 151.5 32.5t109.5 90t68 134.5t24 165v852q0 41 40 41h115q41 0 41 -41v-910q0 -119 -41 -219t-114.5 -174t-175 -115t-222.5 -41q-117 0 -217 42t-173 116 t-114 174.5t-41 216.5zM369 1688l147 205q25 33 66 33h139q41 0 65 -33l148 -205q25 -33 -16 -33h-70q-41 0 -70 29l-127 127l-127 -127q-29 -29 -69 -29h-70q-41 0 -16 33z" />
<glyph unicode="&#xdc;" horiz-adv-x="1302" d="M102 524v910q0 41 41 41h176q41 0 41 -41v-852q0 -86 18.5 -163t55.5 -134.5t91.5 -91t125.5 -33.5q86 0 151.5 32.5t109.5 90t68 134.5t24 165v852q0 41 40 41h115q41 0 41 -41v-910q0 -119 -41 -219t-114.5 -174t-175 -115t-222.5 -41q-117 0 -217 42t-173 116 t-114 174.5t-41 216.5zM344 1700v144q0 41 41 41h144q41 0 41 -41v-144q0 -41 -41 -41h-144q-41 0 -41 41zM734 1700v144q0 41 40 41h144q41 0 41 -41v-144q0 -41 -41 -41h-144q-41 0 -40 41z" />
<glyph unicode="&#xdd;" horiz-adv-x="1286" d="M29 1440q-20 35 20 35h219q41 0 62 -35l327 -664l353 662q16 37 59 37h168q39 0 23 -37l-498 -899v-498q0 -41 -41 -41h-176q-41 0 -41 41v498zM551 1690l122 201q23 35 64 35h186q41 0 11 -29l-228 -213q-31 -29 -71 -29h-64q-41 0 -20 35z" />
<glyph unicode="&#xde;" horiz-adv-x="1140" d="M102 41v1391q0 41 41 41h176q41 0 41 -41v-185h172q117 0 213.5 -40t166 -109.5t108.5 -163.5t39 -201q0 -104 -39 -196.5t-108.5 -162t-167 -109.5t-212.5 -40h-172v-184q0 -41 -41 -41h-176q-41 0 -41 41zM360 408h132q152 0 230.5 79.5t78.5 245.5t-79 248t-230 84 h-132v-657z" />
<glyph unicode="&#xdf;" horiz-adv-x="1284" d="M20 934v90q0 41 41 41h119v20q0 217 122 334t335 117t335 -105.5t122 -304.5q0 -111 -50.5 -186.5t-144.5 -120.5v-4q150 -27 226.5 -134.5t76.5 -260.5q0 -90 -36 -166t-99 -133.5t-148 -89t-186 -31.5h-125q-41 0 -41 41v90q0 41 41 41h58q84 0 138 21.5t85 55.5t43 78 t12 91q0 53 -13 104t-46 92t-86.5 67t-132.5 26h-56q-41 0 -41 41v90q0 41 43 41q45 0 86 16t72 48t48.5 77t17.5 102q0 111 -47.5 176.5t-149.5 65.5q-104 0 -152.5 -77t-48.5 -206v-1040q0 -41 -41 -41h-176q-41 0 -41 41v852h-119q-41 0 -41 41z" />
<glyph unicode="&#xe0;" horiz-adv-x="1052" d="M82 346q0 98 34 162.5t92 102.5t136 53.5t166 15.5h211q-4 33 -15.5 74t-36 77.5t-66.5 62.5t-105 26q-49 0 -105.5 -14.5t-126.5 -37.5q-29 -10 -39 -6t-14 10l-43 66q-18 29 2 53q14 16 49 34.5t82 33t104.5 24t118.5 9.5q133 0 219 -44t136.5 -120t70 -174.5 t19.5 -208.5v-504q0 -41 -41 -41h-103q-23 0 -29.5 9t-11.5 32l-20 84h-4q-41 -74 -116 -112t-179 -38q-78 0 -147.5 22.5t-123 69t-84 116t-30.5 163.5zM225 1487q-31 29 10 29h186q41 0 64 -35l123 -201q20 -35 -21 -35h-63q-41 0 -72 29zM330 352q0 -31 10 -66.5 t32.5 -66.5t59.5 -51.5t92 -20.5q94 0 147.5 72t53.5 230v59h-215q-82 0 -131 -41t-49 -115z" />
<glyph unicode="&#xe1;" horiz-adv-x="1052" d="M82 346q0 98 34 162.5t92 102.5t136 53.5t166 15.5h211q-4 33 -15.5 74t-36 77.5t-66.5 62.5t-105 26q-49 0 -105.5 -14.5t-126.5 -37.5q-29 -10 -39 -6t-14 10l-43 66q-18 29 2 53q14 16 49 34.5t82 33t104.5 24t118.5 9.5q133 0 219 -44t136.5 -120t70 -174.5 t19.5 -208.5v-504q0 -41 -41 -41h-103q-23 0 -29.5 9t-11.5 32l-20 84h-4q-41 -74 -116 -112t-179 -38q-78 0 -147.5 22.5t-123 69t-84 116t-30.5 163.5zM330 352q0 -31 10 -66.5t32.5 -66.5t59.5 -51.5t92 -20.5q94 0 147.5 72t53.5 230v59h-215q-82 0 -131 -41t-49 -115z M447 1280l122 201q23 35 64 35h186q41 0 11 -29l-228 -213q-31 -29 -71 -29h-64q-41 0 -20 35z" />
<glyph unicode="&#xe2;" horiz-adv-x="1052" d="M82 346q0 98 34 162.5t92 102.5t136 53.5t166 15.5h211q-4 33 -15.5 74t-36 77.5t-66.5 62.5t-105 26q-49 0 -105.5 -14.5t-126.5 -37.5q-29 -10 -39 -6t-14 10l-43 66q-18 29 2 53q14 16 49 34.5t82 33t104.5 24t118.5 9.5q133 0 219 -44t136.5 -120t70 -174.5 t19.5 -208.5v-504q0 -41 -41 -41h-103q-23 0 -29.5 9t-11.5 32l-20 84h-4q-41 -74 -116 -112t-179 -38q-78 0 -147.5 22.5t-123 69t-84 116t-30.5 163.5zM244 1278l147 205q25 33 66 33h139q41 0 65 -33l148 -205q25 -33 -16 -33h-70q-41 0 -70 29l-127 127l-127 -127 q-29 -29 -69 -29h-70q-41 0 -16 33zM330 352q0 -31 10 -66.5t32.5 -66.5t59.5 -51.5t92 -20.5q94 0 147.5 72t53.5 230v59h-215q-82 0 -131 -41t-49 -115z" />
<glyph unicode="&#xe3;" horiz-adv-x="1052" d="M82 346q0 98 34 162.5t92 102.5t136 53.5t166 15.5h211q-4 33 -15.5 74t-36 77.5t-66.5 62.5t-105 26q-49 0 -105.5 -14.5t-126.5 -37.5q-29 -10 -39 -6t-14 10l-43 66q-18 29 2 53q14 16 49 34.5t82 33t104.5 24t118.5 9.5q133 0 219 -44t136.5 -120t70 -174.5 t19.5 -208.5v-504q0 -41 -41 -41h-103q-23 0 -29.5 9t-11.5 32l-20 84h-4q-41 -74 -116 -112t-179 -38q-78 0 -147.5 22.5t-123 69t-84 116t-30.5 163.5zM237 1280q2 41 12.5 78t32 64.5t55.5 44t81 16.5q35 0 68.5 -12.5t66.5 -26.5q49 -23 63.5 -28t18.5 -5q16 0 23 10.5 t13.5 23.5t16.5 23.5t33 10.5h61q12 0 21.5 -10.5t9.5 -22.5q-2 -84 -43 -143.5t-135 -59.5q-18 0 -36 5t-34 12q-53 20 -94 37.5t-53 17.5q-16 0 -25.5 -10.5t-17 -23.5t-17.5 -23.5t-26 -10.5h-62q-14 0 -23.5 10.5t-9.5 22.5zM330 352q0 -31 10 -66.5t32.5 -66.5 t59.5 -51.5t92 -20.5q94 0 147.5 72t53.5 230v59h-215q-82 0 -131 -41t-49 -115z" />
<glyph unicode="&#xe4;" horiz-adv-x="1052" d="M82 346q0 98 34 162.5t92 102.5t136 53.5t166 15.5h211q-4 33 -15.5 74t-36 77.5t-66.5 62.5t-105 26q-49 0 -105.5 -14.5t-126.5 -37.5q-29 -10 -39 -6t-14 10l-43 66q-18 29 2 53q14 16 49 34.5t82 33t104.5 24t118.5 9.5q133 0 219 -44t136.5 -120t70 -174.5 t19.5 -208.5v-504q0 -41 -41 -41h-103q-23 0 -29.5 9t-11.5 32l-20 84h-4q-41 -74 -116 -112t-179 -38q-78 0 -147.5 22.5t-123 69t-84 116t-30.5 163.5zM219 1290v144q0 41 41 41h144q41 0 41 -41v-144q0 -41 -41 -41h-144q-41 0 -41 41zM330 352q0 -31 10 -66.5 t32.5 -66.5t59.5 -51.5t92 -20.5q94 0 147.5 72t53.5 230v59h-215q-82 0 -131 -41t-49 -115zM609 1290v144q0 41 40 41h144q41 0 41 -41v-144q0 -41 -41 -41h-144q-41 0 -40 41z" />
<glyph unicode="&#xe5;" horiz-adv-x="1052" d="M82 346q0 98 34 162.5t92 102.5t136 53.5t166 15.5h211q-4 33 -15.5 74t-36 77.5t-66.5 62.5t-105 26q-49 0 -105.5 -14.5t-126.5 -37.5q-29 -10 -39 -6t-14 10l-43 66q-18 29 2 53q14 16 49 34.5t82 33t104.5 24t118.5 9.5q133 0 219 -44t136.5 -120t70 -174.5 t19.5 -208.5v-504q0 -41 -41 -41h-103q-23 0 -29.5 9t-11.5 32l-20 84h-4q-41 -74 -116 -112t-179 -38q-78 0 -147.5 22.5t-123 69t-84 116t-30.5 163.5zM330 352q0 -31 10 -66.5t32.5 -66.5t59.5 -51.5t92 -20.5q94 0 147.5 72t53.5 230v59h-215q-82 0 -131 -41t-49 -115z M335 1368q0 39 15.5 74t41 61.5t60.5 41t74 14.5q82 0 136 -54.5t54 -136.5q0 -39 -14 -73.5t-41 -60.5t-61.5 -41t-73.5 -15q-37 0 -72 15t-61.5 41t-42 60.5t-15.5 73.5zM421 1368q0 -41 32 -72.5t73 -31.5t72.5 28.5t31.5 75.5q0 45 -28.5 75t-75.5 30t-76 -32t-29 -73z " />
<glyph unicode="&#xe6;" horiz-adv-x="1691" d="M82 346q0 98 34 162.5t92 102.5t136 53.5t166 15.5h211q-4 33 -15.5 74t-36 77.5t-66.5 62.5t-105 26q-49 0 -105.5 -14.5t-126.5 -37.5q-29 -10 -39 -6t-14 10l-43 66q-18 29 2 53q14 16 49 34.5t82 33t104.5 24t118.5 9.5q117 0 195 -34t131 -93q53 59 132 93t187 34 q92 0 173 -27t139.5 -82t92.5 -138t34 -194q0 -59 -11.5 -98t-37 -62.5t-68.5 -34t-107 -10.5h-419q6 -66 21.5 -120t46 -93.5t76.5 -62.5t114 -23q59 0 118.5 15.5t122.5 36.5q31 10 40.5 6t13.5 -10l43 -66q18 -29 -2 -53q-14 -16 -48 -34.5t-82.5 -33t-107.5 -24 t-125 -9.5q-133 0 -222 39t-145 105q-55 -66 -144 -105t-220 -39q-78 0 -147.5 22.5t-123 69t-84 116t-30.5 163.5zM330 352q0 -31 10 -66.5t32.5 -66.5t59.5 -51.5t92 -20.5q94 0 147.5 72t53.5 230v59h-215q-82 0 -131 -41t-49 -115zM967 618h315q47 0 63.5 11.5 t16.5 58.5q0 45 -13.5 87t-37 74t-56 51.5t-73.5 19.5q-55 0 -94 -25t-65 -66t-39 -95t-17 -116z" />
<glyph unicode="&#xe7;" horiz-adv-x="980" d="M82 535q0 113 22.5 214t79 176.5t151.5 121t243 45.5q51 0 100 -10.5t90 -26t70.5 -32.5t46.5 -32q10 -10 13 -21.5t-11 -31.5l-43 -66q-8 -10 -23.5 -9t-29.5 5q-31 10 -83.5 31t-119.5 21q-76 0 -126 -33t-80 -86t-42 -123t-12 -146q0 -78 12 -147.5t42 -122.5t80 -84 t124 -31q59 0 108 17.5t97 34.5q16 6 30.5 6t22.5 -10l43 -66q18 -29 -2 -53q-25 -29 -93.5 -58.5t-175.5 -40.5l-22 -88q70 -10 106.5 -52t36.5 -101q0 -80 -63.5 -135.5t-173.5 -55.5q-37 0 -62.5 2t-21.5 7q-39 2 -37 45l2 36q2 41 43 39v-2h43q68 0 99.5 21.5t31.5 56.5 q0 31 -22.5 38t-73.5 11q-23 2 -27 19.5t0 38.5l29 120q-123 8 -205 56.5t-130 124t-67.5 173t-19.5 204.5z" />
<glyph unicode="&#xe8;" horiz-adv-x="1056" d="M82 522q0 119 24.5 222.5t79 180t140.5 122t211 45.5q92 0 173 -27t139 -82t92 -138t34 -194q0 -59 -11.5 -98t-37 -62.5t-68.5 -34t-106 -10.5h-420q6 -66 21.5 -120t46 -93.5t76.5 -62.5t114 -23q59 0 118.5 15.5t122.5 36.5q31 10 40.5 6t13.5 -10l43 -66 q18 -29 -2 -53q-14 -16 -48 -34.5t-82 -33t-107.5 -24t-125.5 -9.5q-141 0 -234 45.5t-148.5 121t-77 174t-21.5 206.5zM266 1487q-31 29 10 29h186q41 0 64 -35l123 -201q20 -35 -21 -35h-63q-41 0 -72 29zM332 618h315q47 0 63.5 11.5t16.5 58.5q0 45 -13.5 87t-37 74 t-56 51.5t-73.5 19.5q-55 0 -94 -25t-65 -66t-39 -95t-17 -116z" />
<glyph unicode="&#xe9;" horiz-adv-x="1056" d="M82 522q0 119 24.5 222.5t79 180t140.5 122t211 45.5q92 0 173 -27t139 -82t92 -138t34 -194q0 -59 -11.5 -98t-37 -62.5t-68.5 -34t-106 -10.5h-420q6 -66 21.5 -120t46 -93.5t76.5 -62.5t114 -23q59 0 118.5 15.5t122.5 36.5q31 10 40.5 6t13.5 -10l43 -66 q18 -29 -2 -53q-14 -16 -48 -34.5t-82 -33t-107.5 -24t-125.5 -9.5q-141 0 -234 45.5t-148.5 121t-77 174t-21.5 206.5zM332 618h315q47 0 63.5 11.5t16.5 58.5q0 45 -13.5 87t-37 74t-56 51.5t-73.5 19.5q-55 0 -94 -25t-65 -66t-39 -95t-17 -116zM414 1280l122 201 q23 35 64 35h186q41 0 11 -29l-228 -213q-31 -29 -71 -29h-64q-41 0 -20 35z" />
<glyph unicode="&#xea;" horiz-adv-x="1056" d="M82 522q0 119 24.5 222.5t79 180t140.5 122t211 45.5q92 0 173 -27t139 -82t92 -138t34 -194q0 -59 -11.5 -98t-37 -62.5t-68.5 -34t-106 -10.5h-420q6 -66 21.5 -120t46 -93.5t76.5 -62.5t114 -23q59 0 118.5 15.5t122.5 36.5q31 10 40.5 6t13.5 -10l43 -66 q18 -29 -2 -53q-14 -16 -48 -34.5t-82 -33t-107.5 -24t-125.5 -9.5q-141 0 -234 45.5t-148.5 121t-77 174t-21.5 206.5zM246 1278l147 205q25 33 66 33h139q41 0 65 -33l148 -205q25 -33 -16 -33h-70q-41 0 -70 29l-127 127l-127 -127q-29 -29 -69 -29h-70q-41 0 -16 33z M332 618h315q47 0 63.5 11.5t16.5 58.5q0 45 -13.5 87t-37 74t-56 51.5t-73.5 19.5q-55 0 -94 -25t-65 -66t-39 -95t-17 -116z" />
<glyph unicode="&#xeb;" horiz-adv-x="1056" d="M82 522q0 119 24.5 222.5t79 180t140.5 122t211 45.5q92 0 173 -27t139 -82t92 -138t34 -194q0 -59 -11.5 -98t-37 -62.5t-68.5 -34t-106 -10.5h-420q6 -66 21.5 -120t46 -93.5t76.5 -62.5t114 -23q59 0 118.5 15.5t122.5 36.5q31 10 40.5 6t13.5 -10l43 -66 q18 -29 -2 -53q-14 -16 -48 -34.5t-82 -33t-107.5 -24t-125.5 -9.5q-141 0 -234 45.5t-148.5 121t-77 174t-21.5 206.5zM221 1290v144q0 41 41 41h144q41 0 41 -41v-144q0 -41 -41 -41h-144q-41 0 -41 41zM332 618h315q47 0 63.5 11.5t16.5 58.5q0 45 -13.5 87t-37 74 t-56 51.5t-73.5 19.5q-55 0 -94 -25t-65 -66t-39 -95t-17 -116zM611 1290v144q0 41 40 41h144q41 0 41 -41v-144q0 -41 -41 -41h-144q-41 0 -40 41z" />
<glyph unicode="&#xec;" horiz-adv-x="450" d="M-45 1487q-31 29 10 29h186q41 0 64 -35l123 -201q20 -35 -21 -35h-63q-41 0 -72 29zM102 41v983q0 41 41 41h164q41 0 41 -41v-983q0 -41 -41 -41h-164q-41 0 -41 41z" />
<glyph unicode="&#xed;" horiz-adv-x="450" d="M102 41v983q0 41 41 41h164q41 0 41 -41v-983q0 -41 -41 -41h-164q-41 0 -41 41zM115 1280l122 201q23 35 64 35h186q41 0 11 -29l-228 -213q-31 -29 -71 -29h-64q-41 0 -20 35z" />
<glyph unicode="&#xee;" horiz-adv-x="450" d="M-55 1278l147 205q25 33 66 33h139q41 0 65 -33l148 -205q25 -33 -16 -33h-70q-41 0 -70 29l-127 127l-127 -127q-29 -29 -69 -29h-70q-41 0 -16 33zM102 41v983q0 41 41 41h164q41 0 41 -41v-983q0 -41 -41 -41h-164q-41 0 -41 41z" />
<glyph unicode="&#xef;" horiz-adv-x="450" d="M-80 1290v144q0 41 41 41h144q41 0 41 -41v-144q0 -41 -41 -41h-144q-41 0 -41 41zM102 41v983q0 41 41 41h164q41 0 41 -41v-983q0 -41 -41 -41h-164q-41 0 -41 41zM310 1290v144q0 41 40 41h144q41 0 41 -41v-144q0 -41 -41 -41h-144q-41 0 -40 41z" />
<glyph unicode="&#xf0;" horiz-adv-x="1167" d="M82 492q0 106 24.5 200t79 165t142.5 112t217 41q55 0 104 -10.5t91 -38t74 -74.5t52 -121q-2 147 -16 250.5t-45 171.5l-96 -98q-29 -29 -58 0l-43 43q-29 29 0 57l107 108q-59 37 -146 37q-41 0 -41 41v103q0 41 41 41q156 0 275 -90l84 83q29 29 57 0l43 -43 q29 -29 0 -57l-86 -88q68 -96 105.5 -238.5t37.5 -336.5q0 -389 -135 -582t-370 -193q-135 0 -229.5 41t-155 111t-87 164t-26.5 201zM328 498q0 -66 11 -126.5t42 -107.5t83 -75.5t134 -28.5q37 0 76 17.5t70.5 53t52 91t20.5 129.5t-9 139t-36 115.5t-73 80t-119 29.5 q-78 0 -126 -24.5t-77 -67.5t-39 -101.5t-10 -123.5z" />
<glyph unicode="&#xf1;" horiz-adv-x="1097" d="M102 41v983q0 41 41 41h103q23 0 30 -9t11 -32l20 -84h4q18 37 48 64.5t67 46t78 29t80 10.5q86 0 160.5 -27t130 -78t88 -126t32.5 -171v-647q0 -41 -39 -41h-168q-39 0 -38 41v577q0 59 -9.5 113.5t-31 95.5t-57.5 66t-89 25q-215 0 -215 -320v-557q0 -41 -41 -41h-164 q-41 0 -41 41zM260 1280q2 41 12.5 78t32 64.5t55.5 44t81 16.5q35 0 68.5 -12.5t66.5 -26.5q49 -23 63.5 -28t18.5 -5q16 0 23 10.5t13.5 23.5t16.5 23.5t33 10.5h61q12 0 21.5 -10.5t9.5 -22.5q-2 -84 -43 -143.5t-135 -59.5q-18 0 -36 5t-34 12q-53 20 -94 37.5t-53 17.5 q-16 0 -25.5 -10.5t-17 -23.5t-17.5 -23.5t-26 -10.5h-62q-14 0 -23.5 10.5t-9.5 22.5z" />
<glyph unicode="&#xf2;" d="M82 530q0 115 22.5 216.5t78 178t151.5 122t244 45.5q147 0 243.5 -45.5t151.5 -121t77.5 -178t22.5 -215.5q0 -115 -22.5 -216t-77.5 -177t-151.5 -120t-243.5 -44t-243.5 44t-152 119t-78 176.5t-22.5 215.5zM320 1487q-31 29 10 29h186q41 0 64 -35l123 -201 q20 -35 -21 -35h-63q-41 0 -72 29zM328 532q0 -78 10 -145.5t37.5 -117.5t76 -79.5t126.5 -29.5q76 0 125 29.5t76.5 79.5t37.5 118t10 145q0 76 -10 144.5t-37.5 120t-77 81t-124.5 29.5q-78 0 -126.5 -29.5t-76 -81t-37.5 -120t-10 -144.5z" />
<glyph unicode="&#xf3;" d="M82 530q0 115 22.5 216.5t78 178t151.5 122t244 45.5q147 0 243.5 -45.5t151.5 -121t77.5 -178t22.5 -215.5q0 -115 -22.5 -216t-77.5 -177t-151.5 -120t-243.5 -44t-243.5 44t-152 119t-78 176.5t-22.5 215.5zM328 532q0 -78 10 -145.5t37.5 -117.5t76 -79.5 t126.5 -29.5q76 0 125 29.5t76.5 79.5t37.5 118t10 145q0 76 -10 144.5t-37.5 120t-77 81t-124.5 29.5q-78 0 -126.5 -29.5t-76 -81t-37.5 -120t-10 -144.5zM449 1280l122 201q23 35 64 35h186q41 0 11 -29l-228 -213q-31 -29 -71 -29h-64q-41 0 -20 35z" />
<glyph unicode="&#xf4;" d="M82 530q0 115 22.5 216.5t78 178t151.5 122t244 45.5q147 0 243.5 -45.5t151.5 -121t77.5 -178t22.5 -215.5q0 -115 -22.5 -216t-77.5 -177t-151.5 -120t-243.5 -44t-243.5 44t-152 119t-78 176.5t-22.5 215.5zM295 1278l147 205q25 33 66 33h139q41 0 65 -33l148 -205 q25 -33 -16 -33h-70q-41 0 -70 29l-127 127l-127 -127q-29 -29 -69 -29h-70q-41 0 -16 33zM328 532q0 -78 10 -145.5t37.5 -117.5t76 -79.5t126.5 -29.5q76 0 125 29.5t76.5 79.5t37.5 118t10 145q0 76 -10 144.5t-37.5 120t-77 81t-124.5 29.5q-78 0 -126.5 -29.5t-76 -81 t-37.5 -120t-10 -144.5z" />
<glyph unicode="&#xf5;" d="M82 530q0 115 22.5 216.5t78 178t151.5 122t244 45.5q147 0 243.5 -45.5t151.5 -121t77.5 -178t22.5 -215.5q0 -115 -22.5 -216t-77.5 -177t-151.5 -120t-243.5 -44t-243.5 44t-152 119t-78 176.5t-22.5 215.5zM288 1280q2 41 12.5 78t32 64.5t55.5 44t81 16.5 q35 0 68.5 -12.5t66.5 -26.5q49 -23 63.5 -28t18.5 -5q16 0 23 10.5t13.5 23.5t16.5 23.5t33 10.5h61q12 0 21.5 -10.5t9.5 -22.5q-2 -84 -43 -143.5t-135 -59.5q-18 0 -36 5t-34 12q-53 20 -94 37.5t-53 17.5q-16 0 -25.5 -10.5t-17 -23.5t-17.5 -23.5t-26 -10.5h-62 q-14 0 -23.5 10.5t-9.5 22.5zM328 532q0 -78 10 -145.5t37.5 -117.5t76 -79.5t126.5 -29.5q76 0 125 29.5t76.5 79.5t37.5 118t10 145q0 76 -10 144.5t-37.5 120t-77 81t-124.5 29.5q-78 0 -126.5 -29.5t-76 -81t-37.5 -120t-10 -144.5z" />
<glyph unicode="&#xf6;" d="M82 530q0 115 22.5 216.5t78 178t151.5 122t244 45.5q147 0 243.5 -45.5t151.5 -121t77.5 -178t22.5 -215.5q0 -115 -22.5 -216t-77.5 -177t-151.5 -120t-243.5 -44t-243.5 44t-152 119t-78 176.5t-22.5 215.5zM270 1290v144q0 41 41 41h144q41 0 41 -41v-144 q0 -41 -41 -41h-144q-41 0 -41 41zM328 532q0 -78 10 -145.5t37.5 -117.5t76 -79.5t126.5 -29.5q76 0 125 29.5t76.5 79.5t37.5 118t10 145q0 76 -10 144.5t-37.5 120t-77 81t-124.5 29.5q-78 0 -126.5 -29.5t-76 -81t-37.5 -120t-10 -144.5zM660 1290v144q0 41 40 41h144 q41 0 41 -41v-144q0 -41 -41 -41h-144q-41 0 -40 41z" />
<glyph unicode="&#xf8;" d="M74 92l78 92q-39 72 -54.5 160t-15.5 186q0 115 22.5 216.5t78 178t151.5 122t244 45.5q90 0 159.5 -17.5t122.5 -48.5l60 70q27 33 59 6l78 -66q33 -27 4 -59l-70 -82q45 -74 63.5 -166t18.5 -197q0 -115 -22.5 -216t-77.5 -177t-151.5 -120t-243.5 -44q-98 0 -172 19.5 t-127 54.5l-64 -76q-27 -33 -59 -6l-78 66q-33 27 -4 59zM328 532q0 -35 2 -67.5t6 -63.5l387 461q-55 45 -145 45q-78 0 -126.5 -29.5t-76 -81t-37.5 -120t-10 -144.5zM418 215q29 -27 68 -41t92 -14q76 0 125 29.5t76.5 79.5t37.5 118t10 145q0 82 -12 154z" />
<glyph unicode="&#xf9;" horiz-adv-x="1097" d="M102 377v647q0 41 39 41h168q39 0 39 -41v-578q0 -59 9.5 -113t31 -95t57 -66t89.5 -25q215 0 215 320v557q0 41 41 41h163q41 0 41 -41v-983q0 -41 -41 -41h-102q-23 0 -30 9t-11 32l-20 84h-5q-18 -37 -47.5 -64.5t-66.5 -46t-78 -29t-80 -10.5q-86 0 -160.5 27 t-130 78t-88.5 126t-33 171zM277 1487q-31 29 10 29h186q41 0 64 -35l123 -201q20 -35 -21 -35h-63q-41 0 -72 29z" />
<glyph unicode="&#xfa;" horiz-adv-x="1097" d="M102 377v647q0 41 39 41h168q39 0 39 -41v-578q0 -59 9.5 -113t31 -95t57 -66t89.5 -25q215 0 215 320v557q0 41 41 41h163q41 0 41 -41v-983q0 -41 -41 -41h-102q-23 0 -30 9t-11 32l-20 84h-5q-18 -37 -47.5 -64.5t-66.5 -46t-78 -29t-80 -10.5q-86 0 -160.5 27 t-130 78t-88.5 126t-33 171zM439 1280l122 201q23 35 64 35h186q41 0 11 -29l-228 -213q-31 -29 -71 -29h-64q-41 0 -20 35z" />
<glyph unicode="&#xfb;" horiz-adv-x="1097" d="M102 377v647q0 41 39 41h168q39 0 39 -41v-578q0 -59 9.5 -113t31 -95t57 -66t89.5 -25q215 0 215 320v557q0 41 41 41h163q41 0 41 -41v-983q0 -41 -41 -41h-102q-23 0 -30 9t-11 32l-20 84h-5q-18 -37 -47.5 -64.5t-66.5 -46t-78 -29t-80 -10.5q-86 0 -160.5 27 t-130 78t-88.5 126t-33 171zM267 1278l147 205q25 33 66 33h139q41 0 65 -33l148 -205q25 -33 -16 -33h-70q-41 0 -70 29l-127 127l-127 -127q-29 -29 -69 -29h-70q-41 0 -16 33z" />
<glyph unicode="&#xfc;" horiz-adv-x="1097" d="M102 377v647q0 41 39 41h168q39 0 39 -41v-578q0 -59 9.5 -113t31 -95t57 -66t89.5 -25q215 0 215 320v557q0 41 41 41h163q41 0 41 -41v-983q0 -41 -41 -41h-102q-23 0 -30 9t-11 32l-20 84h-5q-18 -37 -47.5 -64.5t-66.5 -46t-78 -29t-80 -10.5q-86 0 -160.5 27 t-130 78t-88.5 126t-33 171zM241 1290v144q0 41 41 41h144q41 0 41 -41v-144q0 -41 -41 -41h-144q-41 0 -41 41zM631 1290v144q0 41 40 41h144q41 0 41 -41v-144q0 -41 -41 -41h-144q-41 0 -40 41z" />
<glyph unicode="&#xfd;" horiz-adv-x="1073" d="M27 1028q-18 37 24 37h189q41 0 53 -39l248 -782l250 782q14 39 55 39h176q18 0 26.5 -9t-1.5 -28l-562 -1442q-18 -37 -57 -37h-182q-18 0 -26.5 9.5t1.5 27.5l193 430zM340 1280l122 201q23 35 64 35h186q41 0 11 -29l-228 -213q-31 -29 -71 -29h-64q-41 0 -20 35z" />
<glyph unicode="&#xfe;" horiz-adv-x="1189" d="M102 -410v1885q0 41 41 41h164q41 0 41 -41v-533h4q16 29 40 56.5t57.5 48t76.5 33t101 12.5q96 0 183 -28t153.5 -92.5t105.5 -171t39 -263.5q0 -160 -39 -267.5t-105.5 -173t-153.5 -93.5t-183 -28q-57 0 -100.5 12.5t-77 33t-57 48t-40.5 56.5h-4v-535q0 -41 -41 -41 h-164q-41 0 -41 41zM348 537q0 -209 64.5 -299.5t179.5 -90.5q61 0 111.5 15.5t86 58.5t54 119t18.5 197q0 119 -18.5 193.5t-54 116.5t-86 57.5t-111.5 15.5q-115 0 -179.5 -88.5t-64.5 -294.5z" />
<glyph unicode="&#xff;" horiz-adv-x="1073" d="M27 1028q-18 37 24 37h189q41 0 53 -39l248 -782l250 782q14 39 55 39h176q18 0 26.5 -9t-1.5 -28l-562 -1442q-18 -37 -57 -37h-182q-18 0 -26.5 9.5t1.5 27.5l193 430zM229 1290v144q0 41 41 41h144q41 0 41 -41v-144q0 -41 -41 -41h-144q-41 0 -41 41zM619 1290v144 q0 41 40 41h144q41 0 41 -41v-144q0 -41 -41 -41h-144q-41 0 -40 41z" />
<glyph unicode="&#x100;" horiz-adv-x="1376" d="M24.5 9q-8.5 9 2.5 28l559 1401q14 37 57 37h90q41 0 58 -37l559 -1401q18 -37 -25 -37h-195q-41 0 -55 39l-127 323h-581l-127 -323q-14 -39 -56 -39h-133q-18 0 -26.5 9zM329 1741v62q0 41 41 41h635q41 0 41 -41v-62q0 -41 -41 -41h-635q-41 0 -41 41zM434 535h447 l-183 530l-41 154l-39 -154z" />
<glyph unicode="&#x101;" horiz-adv-x="1052" d="M82 346q0 98 34 162.5t92 102.5t136 53.5t166 15.5h211q-4 33 -15.5 74t-36 77.5t-66.5 62.5t-105 26q-49 0 -105.5 -14.5t-126.5 -37.5q-29 -10 -39 -6t-14 10l-43 66q-18 29 2 53q14 16 49 34.5t82 33t104.5 24t118.5 9.5q133 0 219 -44t136.5 -120t70 -174.5 t19.5 -208.5v-504q0 -41 -41 -41h-103q-23 0 -29.5 9t-11.5 32l-20 84h-4q-41 -74 -116 -112t-179 -38q-78 0 -147.5 22.5t-123 69t-84 116t-30.5 163.5zM168 1331v62q0 41 41 41h635q41 0 41 -41v-62q0 -41 -41 -41h-635q-41 0 -41 41zM330 352q0 -31 10 -66.5t32.5 -66.5 t59.5 -51.5t92 -20.5q94 0 147.5 72t53.5 230v59h-215q-82 0 -131 -41t-49 -115z" />
<glyph unicode="&#x102;" horiz-adv-x="1376" d="M24.5 9q-8.5 9 2.5 28l559 1401q14 37 57 37h90q41 0 58 -37l559 -1401q18 -37 -25 -37h-195q-41 0 -55 39l-127 323h-581l-127 -323q-14 -39 -56 -39h-133q-18 0 -26.5 9zM405 1893q-4 14 6.5 23.5t24.5 9.5h88q8 0 15.5 -7.5t11.5 -13.5q16 -47 50 -67.5t89 -20.5 q45 0 83 18.5t54 69.5q2 8 10.5 14.5t18.5 6.5h86q12 0 21.5 -10.5t9.5 -22.5q-4 -111 -85 -175.5t-198 -64.5q-49 0 -99 15.5t-90 45t-65.5 74.5t-30.5 105zM434 535h447l-183 530l-41 154l-39 -154z" />
<glyph unicode="&#x103;" horiz-adv-x="1052" d="M82 346q0 98 34 162.5t92 102.5t136 53.5t166 15.5h211q-4 33 -15.5 74t-36 77.5t-66.5 62.5t-105 26q-49 0 -105.5 -14.5t-126.5 -37.5q-29 -10 -39 -6t-14 10l-43 66q-18 29 2 53q14 16 49 34.5t82 33t104.5 24t118.5 9.5q133 0 219 -44t136.5 -120t70 -174.5 t19.5 -208.5v-504q0 -41 -41 -41h-103q-23 0 -29.5 9t-11.5 32l-20 84h-4q-41 -74 -116 -112t-179 -38q-78 0 -147.5 22.5t-123 69t-84 116t-30.5 163.5zM243 1483q-4 14 6.5 23.5t24.5 9.5h88q8 0 15.5 -7.5t11.5 -13.5q16 -47 50 -67.5t89 -20.5q45 0 83 18.5t54 69.5 q2 8 10.5 14.5t18.5 6.5h86q12 0 21.5 -10.5t9.5 -22.5q-4 -111 -85 -175.5t-198 -64.5q-49 0 -99 15.5t-90 45t-65.5 74.5t-30.5 105zM330 352q0 -31 10 -66.5t32.5 -66.5t59.5 -51.5t92 -20.5q94 0 147.5 72t53.5 230v59h-215q-82 0 -131 -41t-49 -115z" />
<glyph unicode="&#x104;" horiz-adv-x="1376" d="M24.5 9q-8.5 9 2.5 28l559 1401q14 37 57 37h90q41 0 58 -37l559 -1401q8 -16 7 -25.5t-1 -11.5l-76 -119q-31 -51 -31 -88q0 -43 41 -43q10 0 17.5 5t15.5 9q23 14 33 4t16 -26q4 -10 8 -20.5t9 -20.5q8 -23 -0.5 -28t-26.5 -21q-14 -10 -51 -31.5t-86 -21.5 q-78 -2 -119 35.5t-41 109.5q0 33 12.5 80t46.5 94l60 82h-54q-41 0 -55 39l-127 323h-581l-127 -323q-14 -39 -56 -39h-133q-18 0 -26.5 9zM434 535h447l-183 530l-41 154l-39 -154z" />
<glyph unicode="&#x105;" horiz-adv-x="1052" d="M82 346q0 98 34 162.5t92 102.5t136 53.5t166 15.5h211q-4 33 -15.5 74t-36 77.5t-66.5 62.5t-105 26q-49 0 -105.5 -14.5t-126.5 -37.5q-29 -10 -39 -6t-14 10l-43 66q-18 29 2 53q14 16 49 34.5t82 33t104.5 24t118.5 9.5q133 0 219 -44t136.5 -120t70 -174.5 t19.5 -208.5v-504q0 -39 -25 -76l-53 -84q-31 -51 -31 -88q0 -43 41 -43q10 0 17.5 5t15.5 9q23 14 33 4t16 -26q4 -10 8 -20.5t8 -20.5q8 -23 0 -28t-26 -21q-14 -10 -51 -29.5t-86 -23.5q-78 4 -119 38.5t-41 106.5q0 29 10 65.5t29.5 73.5t47 68t62.5 49q-23 0 -29.5 9 t-11.5 32l-20 84h-4q-41 -74 -116 -112t-179 -38q-78 0 -147.5 22.5t-123 69t-84 116t-30.5 163.5zM330 352q0 -31 10 -66.5t32.5 -66.5t59.5 -51.5t92 -20.5q94 0 147.5 72t53.5 230v59h-215q-82 0 -131 -41t-49 -115z" />
<glyph unicode="&#x106;" horiz-adv-x="1308" d="M82 737q0 193 55.5 335t152.5 237.5t229 142.5t286 47q68 0 132 -10t119.5 -25.5t97.5 -33t60 -31.5q10 -10 11.5 -20.5t-8.5 -32.5l-33 -86q-8 -10 -22.5 -9.5t-31.5 4.5q-47 12 -135 31t-190 19q-92 0 -175 -30t-144.5 -97.5t-97.5 -176t-36 -264.5t36 -264t98.5 -176 t144.5 -97.5t174 -29.5q102 0 190 18.5t135 30.5q14 4 30 5t24 -9l33 -76q10 -29 9 -41t-12 -22q-18 -14 -60 -31.5t-97.5 -33t-120 -26t-131.5 -10.5q-154 0 -286 47.5t-229 142.5t-152.5 237.5t-55.5 334.5zM666 1690l122 201q23 35 64 35h186q41 0 11 -29l-228 -213 q-31 -29 -71 -29h-64q-41 0 -20 35z" />
<glyph unicode="&#x107;" horiz-adv-x="980" d="M82 535q0 113 22.5 214t79 176.5t151.5 121t243 45.5q51 0 100 -10.5t90 -26t70.5 -32.5t46.5 -32q10 -10 13 -21.5t-11 -31.5l-43 -66q-8 -10 -23.5 -9t-29.5 5q-31 10 -83.5 31t-119.5 21q-76 0 -126 -33t-80 -86t-42 -123t-12 -146q0 -78 12 -147.5t42 -122.5t80 -84 t124 -31q59 0 108 17.5t97 34.5q16 6 30.5 6t22.5 -10l43 -66q18 -29 -2 -53q-29 -33 -113 -67t-215 -34q-139 0 -231.5 46.5t-146.5 123t-75.5 178t-21.5 212.5zM439 1280l122 201q23 35 64 35h186q41 0 11 -29l-228 -213q-31 -29 -71 -29h-64q-41 0 -20 35z" />
<glyph unicode="&#x108;" horiz-adv-x="1308" d="M82 737q0 193 55.5 335t152.5 237.5t229 142.5t286 47q68 0 132 -10t119.5 -25.5t97.5 -33t60 -31.5q10 -10 11.5 -20.5t-8.5 -32.5l-33 -86q-8 -10 -22.5 -9.5t-31.5 4.5q-47 12 -135 31t-190 19q-92 0 -175 -30t-144.5 -97.5t-97.5 -176t-36 -264.5t36 -264t98.5 -176 t144.5 -97.5t174 -29.5q102 0 190 18.5t135 30.5q14 4 30 5t24 -9l33 -76q10 -29 9 -41t-12 -22q-18 -14 -60 -31.5t-97.5 -33t-120 -26t-131.5 -10.5q-154 0 -286 47.5t-229 142.5t-152.5 237.5t-55.5 334.5zM506 1688l147 205q25 33 66 33h139q41 0 65 -33l148 -205 q25 -33 -16 -33h-70q-41 0 -70 29l-127 127l-127 -127q-29 -29 -69 -29h-70q-41 0 -16 33z" />
<glyph unicode="&#x109;" horiz-adv-x="980" d="M82 535q0 113 22.5 214t79 176.5t151.5 121t243 45.5q51 0 100 -10.5t90 -26t70.5 -32.5t46.5 -32q10 -10 13 -21.5t-11 -31.5l-43 -66q-8 -10 -23.5 -9t-29.5 5q-31 10 -83.5 31t-119.5 21q-76 0 -126 -33t-80 -86t-42 -123t-12 -146q0 -78 12 -147.5t42 -122.5t80 -84 t124 -31q59 0 108 17.5t97 34.5q16 6 30.5 6t22.5 -10l43 -66q18 -29 -2 -53q-29 -33 -113 -67t-215 -34q-139 0 -231.5 46.5t-146.5 123t-75.5 178t-21.5 212.5zM289 1278l147 205q25 33 66 33h139q41 0 65 -33l148 -205q25 -33 -16 -33h-70q-41 0 -70 29l-127 127 l-127 -127q-29 -29 -69 -29h-70q-41 0 -16 33z" />
<glyph unicode="&#x10a;" horiz-adv-x="1308" d="M82 737q0 193 55.5 335t152.5 237.5t229 142.5t286 47q68 0 132 -10t119.5 -25.5t97.5 -33t60 -31.5q10 -10 11.5 -20.5t-8.5 -32.5l-33 -86q-8 -10 -22.5 -9.5t-31.5 4.5q-47 12 -135 31t-190 19q-92 0 -175 -30t-144.5 -97.5t-97.5 -176t-36 -264.5t36 -264t98.5 -176 t144.5 -97.5t174 -29.5q102 0 190 18.5t135 30.5q14 4 30 5t24 -9l33 -76q10 -29 9 -41t-12 -22q-18 -14 -60 -31.5t-97.5 -33t-120 -26t-131.5 -10.5q-154 0 -286 47.5t-229 142.5t-152.5 237.5t-55.5 334.5zM641 1721v164q0 41 41 41h164q41 0 41 -41v-164q0 -41 -41 -41 h-164q-41 0 -41 41z" />
<glyph unicode="&#x10b;" horiz-adv-x="980" d="M82 535q0 113 22.5 214t79 176.5t151.5 121t243 45.5q51 0 100 -10.5t90 -26t70.5 -32.5t46.5 -32q10 -10 13 -21.5t-11 -31.5l-43 -66q-8 -10 -23.5 -9t-29.5 5q-31 10 -83.5 31t-119.5 21q-76 0 -126 -33t-80 -86t-42 -123t-12 -146q0 -78 12 -147.5t42 -122.5t80 -84 t124 -31q59 0 108 17.5t97 34.5q16 6 30.5 6t22.5 -10l43 -66q18 -29 -2 -53q-29 -33 -113 -67t-215 -34q-139 0 -231.5 46.5t-146.5 123t-75.5 178t-21.5 212.5zM448 1311v164q0 41 41 41h164q41 0 41 -41v-164q0 -41 -41 -41h-164q-41 0 -41 41z" />
<glyph unicode="&#x10c;" horiz-adv-x="1308" d="M82 737q0 193 55.5 335t152.5 237.5t229 142.5t286 47q68 0 132 -10t119.5 -25.5t97.5 -33t60 -31.5q10 -10 11.5 -20.5t-8.5 -32.5l-33 -86q-8 -10 -22.5 -9.5t-31.5 4.5q-47 12 -135 31t-190 19q-92 0 -175 -30t-144.5 -97.5t-97.5 -176t-36 -264.5t36 -264t98.5 -176 t144.5 -97.5t174 -29.5q102 0 190 18.5t135 30.5q14 4 30 5t24 -9l33 -76q10 -29 9 -41t-12 -22q-18 -14 -60 -31.5t-97.5 -33t-120 -26t-131.5 -10.5q-154 0 -286 47.5t-229 142.5t-152.5 237.5t-55.5 334.5zM506 1893q-25 33 16 33h70q41 0 69 -29l127 -127l127 127 q29 29 70 29h70q41 0 16 -33l-148 -205q-25 -33 -65 -33h-139q-41 0 -66 33z" />
<glyph unicode="&#x10d;" horiz-adv-x="980" d="M82 535q0 113 22.5 214t79 176.5t151.5 121t243 45.5q51 0 100 -10.5t90 -26t70.5 -32.5t46.5 -32q10 -10 13 -21.5t-11 -31.5l-43 -66q-8 -10 -23.5 -9t-29.5 5q-31 10 -83.5 31t-119.5 21q-76 0 -126 -33t-80 -86t-42 -123t-12 -146q0 -78 12 -147.5t42 -122.5t80 -84 t124 -31q59 0 108 17.5t97 34.5q16 6 30.5 6t22.5 -10l43 -66q18 -29 -2 -53q-29 -33 -113 -67t-215 -34q-139 0 -231.5 46.5t-146.5 123t-75.5 178t-21.5 212.5zM289 1483q-25 33 16 33h70q41 0 69 -29l127 -127l127 127q29 29 70 29h70q41 0 16 -33l-148 -205 q-25 -33 -65 -33h-139q-41 0 -66 33z" />
<glyph unicode="&#x10e;" horiz-adv-x="1320" d="M102 41v1393q0 41 41 41h471q125 0 239 -54.5t200 -152t136 -231.5t50 -294t-53 -295t-144.5 -234t-214 -155.5t-262.5 -58.5h-422q-41 0 -41 41zM287 1893q-25 33 16 33h70q41 0 69 -29l127 -127l127 127q29 29 70 29h70q41 0 16 -33l-148 -205q-25 -33 -65 -33h-139 q-41 0 -66 33zM360 184h203q88 0 163 43t129 120t84 180.5t30 226.5q0 119 -34 218t-91.5 169.5t-134 109.5t-162.5 39h-187v-1106z" />
<glyph unicode="&#x10f;" horiz-adv-x="1558" d="M82 528q0 160 36 267.5t95 173t139 93.5t170 28q131 0 204 -45.5t112 -104.5h4v535q0 41 41 41h164q41 0 40 -41v-1434q0 -41 -40 -41h-103q-23 0 -30 9t-11 32l-20 86h-4q-63 -80 -154.5 -117t-208.5 -37q-88 0 -167 28t-138 92.5t-94 171t-35 263.5zM328 528 q0 -117 15 -190.5t44 -116.5t73 -59.5t99 -16.5q137 0 210 89.5t73 293.5q0 209 -75 299.5t-210 90.5q-53 0 -95 -16.5t-72 -59.5t-46 -119t-16 -195zM1189 1270v205q0 41 41 41h205q41 0 41 -41v-236q0 -51 -10 -100t-25.5 -90t-33 -72t-31.5 -45q-10 -10 -21.5 -13 t-31.5 11l-66 43q-10 8 -9 23.5t5 29.5q10 31 30.5 83t20.5 120h-74q-41 0 -41 41z" />
<glyph unicode="&#x110;" horiz-adv-x="1443" d="M82 694v103q0 41 41 41h102v596q0 41 41 41h471q125 0 239 -54.5t200 -152t136 -231.5t50 -294t-53.5 -295t-144.5 -234t-214 -155.5t-262 -58.5h-422q-41 0 -41 41v612h-102q-41 0 -41 41zM483 184h203q88 0 163 43t129 120t84 180.5t30 226.5q0 119 -34 218 t-91.5 169.5t-134 109.5t-162.5 39h-187v-452h316q41 0 41 -41v-103q0 -41 -41 -41h-316v-469z" />
<glyph unicode="&#x111;" horiz-adv-x="1269" d="M82 528q0 160 36 267.5t95 173t139 93.5t170 28q131 0 204 -45.5t112 -104.5h4v266h-310q-41 0 -40 41v103q0 41 40 41h310v84q0 41 41 41h164q41 0 40 -41v-84h121q41 0 41 -41v-103q0 -41 -41 -41h-121v-1165q0 -41 -40 -41h-103q-23 0 -30 9t-11 32l-20 86h-4 q-63 -80 -154.5 -117t-208.5 -37q-88 0 -167 28t-138 92.5t-94 171t-35 263.5zM328 528q0 -117 15 -190.5t44 -116.5t73 -59.5t99 -16.5q137 0 210 89.5t73 293.5q0 209 -75 299.5t-210 90.5q-53 0 -95 -16.5t-72 -59.5t-46 -119t-16 -195z" />
<glyph unicode="&#x112;" horiz-adv-x="989" d="M102 41v1393q0 41 41 41h723q41 0 41 -41v-103q0 -41 -41 -41h-506v-452h404q41 0 41 -41v-103q0 -41 -41 -41h-404v-469h506q41 0 41 -41v-102q0 -41 -41 -41h-723q-41 0 -41 41zM135 1741v62q0 41 41 41h635q41 0 41 -41v-62q0 -41 -41 -41h-635q-41 0 -41 41z" />
<glyph unicode="&#x113;" horiz-adv-x="1056" d="M82 522q0 119 24.5 222.5t79 180t140.5 122t211 45.5q92 0 173 -27t139 -82t92 -138t34 -194q0 -59 -11.5 -98t-37 -62.5t-68.5 -34t-106 -10.5h-420q6 -66 21.5 -120t46 -93.5t76.5 -62.5t114 -23q59 0 118.5 15.5t122.5 36.5q31 10 40.5 6t13.5 -10l43 -66 q18 -29 -2 -53q-14 -16 -48 -34.5t-82 -33t-107.5 -24t-125.5 -9.5q-141 0 -234 45.5t-148.5 121t-77 174t-21.5 206.5zM170 1331v62q0 41 41 41h635q41 0 41 -41v-62q0 -41 -41 -41h-635q-41 0 -41 41zM332 618h315q47 0 63.5 11.5t16.5 58.5q0 45 -13.5 87t-37 74 t-56 51.5t-73.5 19.5q-55 0 -94 -25t-65 -66t-39 -95t-17 -116z" />
<glyph unicode="&#x114;" horiz-adv-x="989" d="M102 41v1393q0 41 41 41h723q41 0 41 -41v-103q0 -41 -41 -41h-506v-452h404q41 0 41 -41v-103q0 -41 -41 -41h-404v-469h506q41 0 41 -41v-102q0 -41 -41 -41h-723q-41 0 -41 41zM213 1893q-4 14 6.5 23.5t24.5 9.5h88q8 0 15.5 -7.5t11.5 -13.5q16 -47 50 -67.5 t89 -20.5q45 0 83 18.5t54 69.5q2 8 10.5 14.5t18.5 6.5h86q12 0 21.5 -10.5t9.5 -22.5q-4 -111 -85 -175.5t-198 -64.5q-49 0 -99 15.5t-90 45t-65.5 74.5t-30.5 105z" />
<glyph unicode="&#x115;" horiz-adv-x="1056" d="M82 522q0 119 24.5 222.5t79 180t140.5 122t211 45.5q92 0 173 -27t139 -82t92 -138t34 -194q0 -59 -11.5 -98t-37 -62.5t-68.5 -34t-106 -10.5h-420q6 -66 21.5 -120t46 -93.5t76.5 -62.5t114 -23q59 0 118.5 15.5t122.5 36.5q31 10 40.5 6t13.5 -10l43 -66 q18 -29 -2 -53q-14 -16 -48 -34.5t-82 -33t-107.5 -24t-125.5 -9.5q-141 0 -234 45.5t-148.5 121t-77 174t-21.5 206.5zM245 1483q-4 14 6.5 23.5t24.5 9.5h88q8 0 15.5 -7.5t11.5 -13.5q16 -47 50 -67.5t89 -20.5q45 0 83 18.5t54 69.5q2 8 10.5 14.5t18.5 6.5h86 q12 0 21.5 -10.5t9.5 -22.5q-4 -111 -85 -175.5t-198 -64.5q-49 0 -99 15.5t-90 45t-65.5 74.5t-30.5 105zM332 618h315q47 0 63.5 11.5t16.5 58.5q0 45 -13.5 87t-37 74t-56 51.5t-73.5 19.5q-55 0 -94 -25t-65 -66t-39 -95t-17 -116z" />
<glyph unicode="&#x116;" horiz-adv-x="989" d="M102 41v1393q0 41 41 41h723q41 0 41 -41v-103q0 -41 -41 -41h-506v-452h404q41 0 41 -41v-103q0 -41 -41 -41h-404v-469h506q41 0 41 -41v-102q0 -41 -41 -41h-723q-41 0 -41 41zM370 1721v164q0 41 41 41h164q41 0 41 -41v-164q0 -41 -41 -41h-164q-41 0 -41 41z" />
<glyph unicode="&#x117;" horiz-adv-x="1056" d="M82 522q0 119 24.5 222.5t79 180t140.5 122t211 45.5q92 0 173 -27t139 -82t92 -138t34 -194q0 -59 -11.5 -98t-37 -62.5t-68.5 -34t-106 -10.5h-420q6 -66 21.5 -120t46 -93.5t76.5 -62.5t114 -23q59 0 118.5 15.5t122.5 36.5q31 10 40.5 6t13.5 -10l43 -66 q18 -29 -2 -53q-14 -16 -48 -34.5t-82 -33t-107.5 -24t-125.5 -9.5q-141 0 -234 45.5t-148.5 121t-77 174t-21.5 206.5zM332 618h315q47 0 63.5 11.5t16.5 58.5q0 45 -13.5 87t-37 74t-56 51.5t-73.5 19.5q-55 0 -94 -25t-65 -66t-39 -95t-17 -116zM405 1311v164q0 41 41 41 h164q41 0 41 -41v-164q0 -41 -41 -41h-164q-41 0 -41 41z" />
<glyph unicode="&#x118;" horiz-adv-x="989" d="M102 41v1393q0 41 41 41h723q41 0 41 -41v-103q0 -41 -41 -41h-506v-452h404q41 0 41 -41v-103q0 -41 -41 -41h-404v-469h506q41 0 41 -41v-102q0 -10 -1 -15.5t-4 -8.5l-6 -6t-9 -11l-76 -119q-31 -51 -31 -88q0 -43 41 -43q10 0 17.5 5t15.5 9q18 16 30.5 5t18.5 -27 q4 -10 8 -20.5t9 -20.5q4 -23 -3.5 -28t-23.5 -21q-14 -10 -51 -29.5t-86 -23.5q-78 4 -119 38.5t-41 106.5q0 33 12.5 80t46.5 94l60 82h-572q-41 0 -41 41z" />
<glyph unicode="&#x119;" horiz-adv-x="1056" d="M82 522q0 119 24.5 222.5t79 180t140.5 122t211 45.5q92 0 173 -27t139 -82t92 -138t34 -194q0 -59 -11.5 -98t-37 -62.5t-68.5 -34t-106 -10.5h-420q6 -66 21.5 -120t46 -93.5t76.5 -62.5t114 -23q59 0 118.5 15.5t122.5 36.5q31 10 40.5 6t13.5 -10l43 -66 q16 -25 0 -53l-109 -195q-31 -55 -31 -88q0 -43 41 -43q10 0 17.5 5t15.5 9q18 16 30.5 5t18.5 -27q4 -10 8.5 -20.5t8.5 -20.5q6 -23 -1 -28t-26 -21q-14 -10 -51 -29.5t-86 -23.5q-78 4 -119 38.5t-41 106.5q0 33 12.5 80t47.5 94l51 72q-35 -6 -73 -10.5t-79 -4.5 q-141 0 -234 45.5t-148.5 121t-77 174t-21.5 206.5zM332 618h315q47 0 63.5 11.5t16.5 58.5q0 45 -13.5 87t-37 74t-56 51.5t-73.5 19.5q-55 0 -94 -25t-65 -66t-39 -95t-17 -116z" />
<glyph unicode="&#x11a;" horiz-adv-x="989" d="M102 41v1393q0 41 41 41h723q41 0 41 -41v-103q0 -41 -41 -41h-506v-452h404q41 0 41 -41v-103q0 -41 -41 -41h-404v-469h506q41 0 41 -41v-102q0 -41 -41 -41h-723q-41 0 -41 41zM211 1893q-25 33 16 33h70q41 0 69 -29l127 -127l127 127q29 29 70 29h70q41 0 16 -33 l-148 -205q-25 -33 -65 -33h-139q-41 0 -66 33z" />
<glyph unicode="&#x11b;" horiz-adv-x="1056" d="M82 522q0 119 24.5 222.5t79 180t140.5 122t211 45.5q92 0 173 -27t139 -82t92 -138t34 -194q0 -59 -11.5 -98t-37 -62.5t-68.5 -34t-106 -10.5h-420q6 -66 21.5 -120t46 -93.5t76.5 -62.5t114 -23q59 0 118.5 15.5t122.5 36.5q31 10 40.5 6t13.5 -10l43 -66 q18 -29 -2 -53q-14 -16 -48 -34.5t-82 -33t-107.5 -24t-125.5 -9.5q-141 0 -234 45.5t-148.5 121t-77 174t-21.5 206.5zM246 1483q-25 33 16 33h70q41 0 69 -29l127 -127l127 127q29 29 70 29h70q41 0 16 -33l-148 -205q-25 -33 -65 -33h-139q-41 0 -66 33zM332 618h315 q47 0 63.5 11.5t16.5 58.5q0 45 -13.5 87t-37 74t-56 51.5t-73.5 19.5q-55 0 -94 -25t-65 -66t-39 -95t-17 -116z" />
<glyph unicode="&#x11c;" horiz-adv-x="1329" d="M82 737q0 193 55.5 335t152.5 237.5t229 142.5t286 47q68 0 132 -10t119.5 -25.5t97.5 -33t60 -31.5q10 -10 11.5 -20.5t-8.5 -32.5l-33 -76q-8 -10 -22.5 -9t-31.5 5q-47 12 -135 30.5t-190 18.5q-92 0 -175 -31t-144.5 -99.5t-97.5 -178t-36 -269.5t36 -269.5 t98.5 -178t144.5 -99t174 -30.5q84 0 162 12v481h-181q-41 0 -41 41v103q0 41 41 41h398q41 0 41 -41v-693q2 -18 -11 -28q-18 -14 -60 -31.5t-97.5 -33t-120 -26t-131.5 -10.5q-154 0 -286 47.5t-229 142.5t-152.5 237.5t-55.5 334.5zM510 1688l147 205q25 33 66 33h139 q41 0 65 -33l148 -205q25 -33 -16 -33h-70q-41 0 -70 29l-127 127l-127 -127q-29 -29 -69 -29h-70q-41 0 -16 33z" />
<glyph unicode="&#x11d;" horiz-adv-x="1189" d="M82 537q0 158 35 264t94 170.5t138 92.5t167 28q117 0 208 -37t155 -117h4l20 86q4 23 11.5 32t29.5 9h103q41 0 40 -41v-963q0 -121 -35.5 -219t-100 -167.5t-154.5 -106.5t-199 -37q-66 0 -133.5 10t-128 25.5t-105.5 33t-63 31.5q-10 10 -11 20.5t9 33.5l33 86 q4 12 20.5 10t32.5 -6q20 -6 59 -14.5t88.5 -15.5t100.5 -13t96 -6q55 0 100 22.5t78 64.5t50.5 99t17.5 127v86h-4q-39 -59 -112 -104.5t-204 -45.5q-90 0 -170 28t-139 93.5t-95 173t-36 267.5zM312 1278l147 205q25 33 66 33h139q41 0 65 -33l148 -205q25 -33 -16 -33 h-70q-41 0 -70 29l-127 127l-127 -127q-29 -29 -69 -29h-70q-41 0 -16 33zM328 537q0 -121 16 -197t46 -119t72 -58.5t95 -15.5q135 0 210 90.5t75 299.5q0 205 -73 294t-210 89q-55 0 -99 -16.5t-73 -59.5t-44 -117t-15 -190z" />
<glyph unicode="&#x11e;" horiz-adv-x="1329" d="M82 737q0 193 55.5 335t152.5 237.5t229 142.5t286 47q68 0 132 -10t119.5 -25.5t97.5 -33t60 -31.5q10 -10 11.5 -20.5t-8.5 -32.5l-33 -76q-8 -10 -22.5 -9t-31.5 5q-47 12 -135 30.5t-190 18.5q-92 0 -175 -31t-144.5 -99.5t-97.5 -178t-36 -269.5t36 -269.5 t98.5 -178t144.5 -99t174 -30.5q84 0 162 12v481h-181q-41 0 -41 41v103q0 41 41 41h398q41 0 41 -41v-693q2 -18 -11 -28q-18 -14 -60 -31.5t-97.5 -33t-120 -26t-131.5 -10.5q-154 0 -286 47.5t-229 142.5t-152.5 237.5t-55.5 334.5zM501 1893q-4 14 6.5 23.5t24.5 9.5h88 q8 0 15.5 -7.5t11.5 -13.5q16 -47 50 -67.5t89 -20.5q45 0 83 18.5t54 69.5q2 8 10.5 14.5t18.5 6.5h86q12 0 21.5 -10.5t9.5 -22.5q-4 -111 -85 -175.5t-198 -64.5q-49 0 -99 15.5t-90 45t-65.5 74.5t-30.5 105z" />
<glyph unicode="&#x11f;" horiz-adv-x="1189" d="M82 537q0 158 35 264t94 170.5t138 92.5t167 28q117 0 208 -37t155 -117h4l20 86q4 23 11.5 32t29.5 9h103q41 0 40 -41v-963q0 -121 -35.5 -219t-100 -167.5t-154.5 -106.5t-199 -37q-66 0 -133.5 10t-128 25.5t-105.5 33t-63 31.5q-10 10 -11 20.5t9 33.5l33 86 q4 12 20.5 10t32.5 -6q20 -6 59 -14.5t88.5 -15.5t100.5 -13t96 -6q55 0 100 22.5t78 64.5t50.5 99t17.5 127v86h-4q-39 -59 -112 -104.5t-204 -45.5q-90 0 -170 28t-139 93.5t-95 173t-36 267.5zM313 1483q-4 14 6.5 23.5t24.5 9.5h88q8 0 15.5 -7.5t11.5 -13.5 q16 -47 50 -67.5t89 -20.5q45 0 83 18.5t54 69.5q2 8 10.5 14.5t18.5 6.5h86q12 0 21.5 -10.5t9.5 -22.5q-4 -111 -85 -175.5t-198 -64.5q-49 0 -99 15.5t-90 45t-65.5 74.5t-30.5 105zM328 537q0 -121 16 -197t46 -119t72 -58.5t95 -15.5q135 0 210 90.5t75 299.5 q0 205 -73 294t-210 89q-55 0 -99 -16.5t-73 -59.5t-44 -117t-15 -190z" />
<glyph unicode="&#x120;" horiz-adv-x="1329" d="M82 737q0 193 55.5 335t152.5 237.5t229 142.5t286 47q68 0 132 -10t119.5 -25.5t97.5 -33t60 -31.5q10 -10 11.5 -20.5t-8.5 -32.5l-33 -76q-8 -10 -22.5 -9t-31.5 5q-47 12 -135 30.5t-190 18.5q-92 0 -175 -31t-144.5 -99.5t-97.5 -178t-36 -269.5t36 -269.5 t98.5 -178t144.5 -99t174 -30.5q84 0 162 12v481h-181q-41 0 -41 41v103q0 41 41 41h398q41 0 41 -41v-693q2 -18 -11 -28q-18 -14 -60 -31.5t-97.5 -33t-120 -26t-131.5 -10.5q-154 0 -286 47.5t-229 142.5t-152.5 237.5t-55.5 334.5zM669 1721v164q0 41 41 41h164 q41 0 41 -41v-164q0 -41 -41 -41h-164q-41 0 -41 41z" />
<glyph unicode="&#x121;" horiz-adv-x="1189" d="M82 537q0 158 35 264t94 170.5t138 92.5t167 28q117 0 208 -37t155 -117h4l20 86q4 23 11.5 32t29.5 9h103q41 0 40 -41v-963q0 -121 -35.5 -219t-100 -167.5t-154.5 -106.5t-199 -37q-66 0 -133.5 10t-128 25.5t-105.5 33t-63 31.5q-10 10 -11 20.5t9 33.5l33 86 q4 12 20.5 10t32.5 -6q20 -6 59 -14.5t88.5 -15.5t100.5 -13t96 -6q55 0 100 22.5t78 64.5t50.5 99t17.5 127v86h-4q-39 -59 -112 -104.5t-204 -45.5q-90 0 -170 28t-139 93.5t-95 173t-36 267.5zM328 537q0 -121 16 -197t46 -119t72 -58.5t95 -15.5q135 0 210 90.5 t75 299.5q0 205 -73 294t-210 89q-55 0 -99 -16.5t-73 -59.5t-44 -117t-15 -190zM471 1311v164q0 41 41 41h164q41 0 41 -41v-164q0 -41 -41 -41h-164q-41 0 -41 41z" />
<glyph unicode="&#x122;" horiz-adv-x="1329" d="M82 737q0 193 55.5 335t152.5 237.5t229 142.5t286 47q68 0 132 -10t119.5 -25.5t97.5 -33t60 -31.5q10 -10 11.5 -20.5t-8.5 -32.5l-33 -76q-8 -10 -22.5 -9t-31.5 5q-47 12 -135 30.5t-190 18.5q-92 0 -175 -31t-144.5 -99.5t-97.5 -178t-36 -269.5t36 -269.5 t98.5 -178t144.5 -99t174 -30.5q84 0 162 12v481h-181q-41 0 -41 41v103q0 41 41 41h398q41 0 41 -41v-693q2 -18 -11 -28q-18 -14 -60 -31.5t-97.5 -33t-120 -26t-131.5 -10.5q-154 0 -286 47.5t-229 142.5t-152.5 237.5t-55.5 334.5zM620 -262q0 41 41 41h205q41 0 41 -41 v-236q0 -51 -10 -100t-25.5 -90t-33 -72t-31.5 -45q-10 -10 -21.5 -13t-31.5 11l-66 43q-10 8 -9 23.5t5 29.5q10 31 30.5 83t20.5 120h-74q-41 0 -41 41v205z" />
<glyph unicode="&#x123;" horiz-adv-x="1189" d="M82 537q0 158 35 264t94 170.5t138 92.5t167 28q117 0 208 -37t155 -117h4l20 86q4 23 11.5 32t29.5 9h103q41 0 40 -41v-963q0 -121 -35.5 -219t-100 -167.5t-154.5 -106.5t-199 -37q-66 0 -133.5 10t-128 25.5t-105.5 33t-63 31.5q-10 10 -11 20.5t9 33.5l33 86 q4 12 20.5 10t32.5 -6q20 -6 59 -14.5t88.5 -15.5t100.5 -13t96 -6q55 0 100 22.5t78 64.5t50.5 99t17.5 127v86h-4q-39 -59 -112 -104.5t-204 -45.5q-90 0 -170 28t-139 93.5t-95 173t-36 267.5zM328 537q0 -121 16 -197t46 -119t72 -58.5t95 -15.5q135 0 210 90.5 t75 299.5q0 205 -73 294t-210 89q-55 0 -99 -16.5t-73 -59.5t-44 -117t-15 -190zM416 1268v235q0 51 10 100.5t25.5 90.5t33 70.5t31.5 45.5q10 10 21.5 13.5t31.5 -11.5l66 -43q10 -8 9 -23t-5 -30q-10 -31 -30.5 -83t-20.5 -120h74q41 0 40 -40v-205q0 -41 -40 -41h-205 q-41 0 -41 41z" />
<glyph unicode="&#x124;" horiz-adv-x="1247" d="M102 41v1393q0 41 41 41h176q41 0 41 -41v-586h527v586q0 41 41 41h176q41 0 41 -41v-1393q0 -41 -41 -41h-176q-41 0 -41 41v623h-527v-623q0 -41 -41 -41h-176q-41 0 -41 41zM340 1688l147 205q25 33 66 33h139q41 0 65 -33l148 -205q25 -33 -16 -33h-70q-41 0 -70 29 l-127 127l-127 -127q-29 -29 -69 -29h-70q-41 0 -16 33z" />
<glyph unicode="&#x125;" horiz-adv-x="1128" d="M102 41v1434q0 41 41 41h164q41 0 41 -41v-535h4q33 59 96.5 104.5t178.5 45.5q82 0 154.5 -28t127 -93.5t86 -173t31.5 -267.5v-487q0 -41 -41 -41h-164q-41 0 -41 41v487q0 119 -13 195t-37.5 119t-59.5 59.5t-78 16.5q-117 0 -180.5 -75t-63.5 -253v-549 q0 -41 -41 -41h-164q-41 0 -41 41zM281 1688l147 205q25 33 66 33h139q41 0 65 -33l148 -205q25 -33 -16 -33h-70q-41 0 -70 29l-127 127l-127 -127q-29 -29 -69 -29h-70q-41 0 -16 33z" />
<glyph unicode="&#x126;" horiz-adv-x="1247" d="M0 1147v61q0 41 41 41l1165 -2q41 0 41 -41v-61q0 -41 -41 -41l-1165 2q-41 0 -41 41zM102 41v1393q0 41 41 41h176q41 0 41 -41v-586h527v586q0 41 41 41h176q41 0 41 -41v-1393q0 -41 -41 -41h-176q-41 0 -41 41v623h-527v-623q0 -41 -41 -41h-176q-41 0 -41 41z" />
<glyph unicode="&#x127;" horiz-adv-x="1202" d="M33 1227v102q0 41 41 41h102v105q0 41 41 41h164q41 0 41 -41v-105h328q41 0 41 -41v-102q0 -41 -41 -41h-328v-246h4q33 59 96.5 104.5t177.5 45.5q82 0 155 -28t127 -93.5t86 -173t32 -267.5v-487q0 -41 -41 -41h-164q-41 0 -41 41v487q0 119 -13.5 195t-38 119 t-59 59.5t-77.5 16.5q-117 0 -180.5 -75t-63.5 -253v-549q0 -41 -41 -41h-164q-41 0 -41 41v1145h-102q-41 0 -41 41z" />
<glyph unicode="&#x128;" horiz-adv-x="462" d="M-54 1690q2 41 12.5 78t32 64.5t55.5 44t81 16.5q35 0 68.5 -12.5t66.5 -26.5q49 -23 63.5 -28t18.5 -5q16 0 23 10.5t13.5 23.5t16.5 23.5t33 10.5h61q12 0 21.5 -10.5t9.5 -22.5q-2 -84 -43 -143.5t-135 -59.5q-18 0 -36 5t-34 12q-53 20 -94 37.5t-53 17.5 q-16 0 -25.5 -10.5t-17 -23.5t-17.5 -23.5t-26 -10.5h-62q-14 0 -23.5 10.5t-9.5 22.5zM102 41v1393q0 41 41 41h176q41 0 41 -41v-1393q0 -41 -41 -41h-176q-41 0 -41 41z" />
<glyph unicode="&#x129;" horiz-adv-x="450" d="M-60 1280q2 41 12.5 78t32 64.5t55.5 44t81 16.5q35 0 68.5 -12.5t66.5 -26.5q49 -23 63.5 -28t18.5 -5q16 0 23 10.5t13.5 23.5t16.5 23.5t33 10.5h61q12 0 21.5 -10.5t9.5 -22.5q-2 -84 -43 -143.5t-135 -59.5q-18 0 -36 5t-34 12q-53 20 -94 37.5t-53 17.5 q-16 0 -25.5 -10.5t-17 -23.5t-17.5 -23.5t-26 -10.5h-62q-14 0 -23.5 10.5t-9.5 22.5zM102 41v983q0 41 41 41h164q41 0 41 -41v-983q0 -41 -41 -41h-164q-41 0 -41 41z" />
<glyph unicode="&#x12a;" horiz-adv-x="462" d="M-125 1741v62q0 41 41 41h635q41 0 41 -41v-62q0 -41 -41 -41h-635q-41 0 -41 41zM102 41v1393q0 41 41 41h176q41 0 41 -41v-1393q0 -41 -41 -41h-176q-41 0 -41 41z" />
<glyph unicode="&#x12b;" horiz-adv-x="450" d="M-131 1331v62q0 41 41 41h635q41 0 41 -41v-62q0 -41 -41 -41h-635q-41 0 -41 41zM102 41v983q0 41 41 41h164q41 0 41 -41v-983q0 -41 -41 -41h-164q-41 0 -41 41z" />
<glyph unicode="&#x12c;" horiz-adv-x="462" d="M-48 1893q-4 14 6.5 23.5t24.5 9.5h88q8 0 15.5 -7.5t11.5 -13.5q16 -47 50 -67.5t89 -20.5q45 0 83 18.5t54 69.5q2 8 10.5 14.5t18.5 6.5h86q12 0 21.5 -10.5t9.5 -22.5q-4 -111 -85 -175.5t-198 -64.5q-49 0 -99 15.5t-90 45t-65.5 74.5t-30.5 105zM102 41v1393 q0 41 41 41h176q41 0 41 -41v-1393q0 -41 -41 -41h-176q-41 0 -41 41z" />
<glyph unicode="&#x12d;" horiz-adv-x="450" d="M-54 1483q-4 14 6.5 23.5t24.5 9.5h88q8 0 15.5 -7.5t11.5 -13.5q16 -47 50 -67.5t89 -20.5q45 0 83 18.5t54 69.5q2 8 10.5 14.5t18.5 6.5h86q12 0 21.5 -10.5t9.5 -22.5q-4 -111 -85 -175.5t-198 -64.5q-49 0 -99 15.5t-90 45t-65.5 74.5t-30.5 105zM102 41v983 q0 41 41 41h164q41 0 41 -41v-983q0 -41 -41 -41h-164q-41 0 -41 41z" />
<glyph unicode="&#x12e;" horiz-adv-x="462" d="M68 -256q0 33 12 80t47 94l59 82h-43q-41 0 -41 41v1393q0 41 41 41h176q41 0 41 -41v-1393l-2 -41l-75 -119q-31 -51 -31 -88q0 -43 41 -43q10 0 17 5t16 9q18 16 30.5 5t18.5 -27q4 -10 8 -20.5t8 -20.5q6 -23 -1 -28t-25 -21q-14 -10 -51.5 -29.5t-86.5 -23.5 q-78 4 -118.5 38.5t-40.5 106.5z" />
<glyph unicode="&#x12f;" horiz-adv-x="450" d="M57 -256q0 33 12.5 80t47.5 94l59 82h-33q-41 0 -41 41v983q0 41 41 41h164q41 0 41 -41v-983q0 -43 -22 -76l-54 -84q-31 -51 -30 -88q0 -43 41 -43q10 0 17 5t15 9q23 14 32 4t18 -26q4 -10 8 -20.5t8 -20.5q8 -23 0 -28t-27 -21q-14 -10 -51 -29.5t-86 -23.5 q-78 4 -119 38.5t-41 106.5zM102 1311v164q0 41 41 41h164q41 0 41 -41v-164q0 -41 -41 -41h-164q-41 0 -41 41z" />
<glyph unicode="&#x130;" horiz-adv-x="462" d="M102 41v1393q0 41 41 41h176q41 0 41 -41v-1393q0 -41 -41 -41h-176q-41 0 -41 41zM108 1721v164q0 41 41 41h164q41 0 41 -41v-164q0 -41 -41 -41h-164q-41 0 -41 41z" />
<glyph unicode="&#x131;" horiz-adv-x="450" d="M102 41v983q0 41 41 41h164q41 0 41 -41v-983q0 -41 -41 -41h-164q-41 0 -41 41z" />
<glyph unicode="&#x132;" horiz-adv-x="1191" d="M102 41v1393q0 41 41 41h176q41 0 41 -41v-1393q0 -41 -41 -41h-176q-41 0 -41 41zM483 45v98q0 41 41 41h27q76 0 132 19.5t94 64.5t56.5 120t18.5 185v861q0 41 41 41h176q41 0 41 -41v-904q-4 -262 -141 -396t-371 -134q-35 0 -58.5 1t-19.5 1q-37 2 -37 43z" />
<glyph unicode="&#x133;" horiz-adv-x="901" d="M102 41v983q0 41 41 41h164q41 0 41 -41v-983q0 -41 -41 -41h-164q-41 0 -41 41zM102 1311v164q0 41 41 41h164q41 0 41 -41v-164q0 -41 -41 -41h-164q-41 0 -41 41zM441 -319q0 41 41 40h14q20 0 38.5 38t18.5 124v1141q0 41 41 41h164q41 0 41 -41v-1155 q0 -162 -71.5 -241t-210.5 -79h-35q-41 0 -41 41v91zM553 1311v164q0 41 41 41h164q41 0 41 -41v-164q0 -41 -41 -41h-164q-41 0 -41 41z" />
<glyph unicode="&#x134;" horiz-adv-x="729" d="M20 45v98q0 41 41 41h27q76 0 132 19.5t94 64.5t56.5 120t18.5 185v861q0 41 41 41h176q41 0 41 -41v-904q-4 -262 -141 -396t-371 -134q-35 0 -58.5 1t-19.5 1q-37 2 -37 43zM240 1688l147 205q25 33 66 33h139q41 0 65 -33l148 -205q25 -33 -16 -33h-70q-41 0 -70 29 l-127 127l-127 -127q-29 -29 -69 -29h-70q-41 0 -16 33z" />
<glyph unicode="&#x135;" horiz-adv-x="450" d="M-55 1278l147 205q25 33 66 33h139q41 0 65 -33l148 -205q25 -33 -16 -33h-70q-41 0 -70 29l-127 127l-127 -127q-29 -29 -69 -29h-70q-41 0 -16 33zM-10 -319q0 41 41 40h14q20 0 38.5 38t18.5 124v1141q0 41 41 41h164q41 0 41 -41v-1155q0 -162 -71.5 -241t-210.5 -79 h-35q-41 0 -41 41v91z" />
<glyph unicode="&#x136;" horiz-adv-x="1304" d="M102 41v1393q0 41 41 41h176q41 0 41 -41v-631l508 639q25 33 66 33h211q41 0 16 -33l-571 -686l588 -723q25 -33 -17 -33h-241q-41 0 -66 33l-494 637v-629q0 -41 -41 -41h-176q-41 0 -41 41zM508 -262q0 41 41 41h205q41 0 41 -41v-236q0 -51 -10 -100t-25.5 -90 t-33 -72t-31.5 -45q-10 -10 -21.5 -13t-31.5 11l-66 43q-10 8 -9 23.5t5 29.5q10 31 30.5 83t20.5 120h-74q-41 0 -41 41v205z" />
<glyph unicode="&#x137;" horiz-adv-x="997" d="M102 41v1434q0 41 41 41h162q41 0 41 -41v-877l344 434q25 33 66 33h170q45 0 16 -33l-407 -481l430 -518q29 -33 -17 -33h-200q-41 0 -66 33l-336 432v-424q0 -41 -41 -41h-162q-41 0 -41 41zM354 -262q0 41 41 41h205q41 0 41 -41v-236q0 -51 -10 -100t-25.5 -90 t-33 -72t-31.5 -45q-10 -10 -21.5 -13t-31.5 11l-66 43q-10 8 -9 23.5t5 29.5q10 31 30.5 83t20.5 120h-74q-41 0 -41 41v205z" />
<glyph unicode="&#x138;" horiz-adv-x="997" d="M102 41v983q0 41 41 41h162q41 0 41 -41v-426l344 434q25 33 66 33h170q45 0 16 -33l-407 -481l430 -518q29 -33 -17 -33h-200q-41 0 -66 33l-336 432v-424q0 -41 -41 -41h-162q-41 0 -41 41z" />
<glyph unicode="&#x139;" horiz-adv-x="948" d="M102 41v1393q0 41 41 41h176q41 0 41 -41v-1250h506q41 0 41 -41v-102q0 -41 -41 -41h-723q-41 0 -41 41zM228 1690l122 201q23 35 64 35h186q41 0 11 -29l-228 -213q-31 -29 -71 -29h-64q-41 0 -20 35z" />
<glyph unicode="&#x13a;" horiz-adv-x="462" d="M102 319v1156q0 41 41 41h164q41 0 41 -41v-1141q0 -86 18.5 -124t39.5 -38h14q41 0 41 -41v-90q0 -41 -41 -41h-35q-139 0 -211 79t-72 240zM228 1690l122 201q23 35 64 35h186q41 0 11 -29l-228 -213q-31 -29 -71 -29h-64q-41 0 -20 35z" />
<glyph unicode="&#x13b;" horiz-adv-x="948" d="M102 41v1393q0 41 41 41h176q41 0 41 -41v-1250h506q41 0 41 -41v-102q0 -41 -41 -41h-723q-41 0 -41 41zM329 -262q0 41 41 41h205q41 0 41 -41v-236q0 -51 -10 -100t-25.5 -90t-33 -72t-31.5 -45q-10 -10 -21.5 -13t-31.5 11l-66 43q-10 8 -9 23.5t5 29.5 q10 31 30.5 83t20.5 120h-74q-41 0 -41 41v205z" />
<glyph unicode="&#x13c;" horiz-adv-x="462" d="M102 319v1156q0 41 41 41h164q41 0 41 -41v-1141q0 -86 18.5 -124t39.5 -38h14q41 0 41 -41v-90q0 -41 -41 -41h-35q-139 0 -211 79t-72 240zM174 -262q0 41 41 41h205q41 0 41 -41v-236q0 -51 -10 -100t-25.5 -90t-33 -72t-31.5 -45q-10 -10 -21.5 -13t-31.5 11l-66 43 q-10 8 -9 23.5t5 29.5q10 31 30.5 83t20.5 120h-74q-41 0 -41 41v205z" />
<glyph unicode="&#x13d;" horiz-adv-x="948" d="M-49 1893q-25 33 16 33h70q41 0 69 -29l127 -127l127 127q29 29 70 29h70q41 0 16 -33l-148 -205q-25 -33 -65 -33h-139q-41 0 -66 33zM102 41v1393q0 41 41 41h176q41 0 41 -41v-1250h506q41 0 41 -41v-102q0 -41 -41 -41h-723q-41 0 -41 41z" />
<glyph unicode="&#x13e;" horiz-adv-x="770" d="M102 319v1156q0 41 41 41h164q41 0 41 -41v-1141q0 -86 18.5 -124t39.5 -38h14q41 0 41 -41v-90q0 -41 -41 -41h-35q-139 0 -211 79t-72 240zM462 1270v205q0 41 41 41h205q41 0 41 -41v-236q0 -51 -10 -100t-25.5 -90t-33 -72t-31.5 -45q-10 -10 -21.5 -13t-31.5 11 l-66 43q-10 8 -9 23.5t5 29.5q10 31 30.5 83t20.5 120h-74q-41 0 -41 41z" />
<glyph unicode="&#x13f;" horiz-adv-x="948" d="M102 41v1393q0 41 41 41h176q41 0 41 -41v-1250h506q41 0 41 -41v-102q0 -41 -41 -41h-723q-41 0 -41 41zM594 512v205q0 41 41 41h205q41 0 41 -41v-205q0 -41 -41 -41h-205q-41 0 -41 41z" />
<glyph unicode="&#x140;" horiz-adv-x="770" d="M102 319v1156q0 41 41 41h164q41 0 41 -41v-1141q0 -86 18.5 -124t39.5 -38h14q41 0 41 -41v-90q0 -41 -41 -41h-35q-139 0 -211 79t-72 240zM462 512v205q0 41 41 41h205q41 0 41 -41v-205q0 -41 -41 -41h-205q-41 0 -41 41z" />
<glyph unicode="&#x141;" horiz-adv-x="1087" d="M31 588q-14 39 20 55l799 373q39 18 53 -21l45 -92q14 -39 -20 -55l-799 -373q-39 -18 -53 21zM242 41v1393q0 41 41 41h176q41 0 41 -41v-1250h506q41 0 41 -41v-102q0 -41 -41 -41h-723q-41 0 -41 41z" />
<glyph unicode="&#x142;" horiz-adv-x="782" d="M20 588q-14 39 21 55l625 289q39 18 53 -21l45 -92q14 -39 -21 -55l-624 -289q-39 -18 -53 21zM231 319v1156q0 41 41 41h164q41 0 41 -41v-1141q0 -86 18.5 -124t39.5 -38h14q41 0 41 -41v-90q0 -41 -41 -41h-35q-139 0 -211 79t-72 240z" />
<glyph unicode="&#x143;" horiz-adv-x="1302" d="M102 41v1393q0 41 41 41h144q45 0 67 -33l625 -1000h4l-20 418v574q0 41 41 41h155q41 0 41 -41v-1393q0 -41 -41 -41h-143q-45 0 -68 33l-624 999h-5l21 -418v-573q0 -41 -41 -41h-156q-41 0 -41 41zM551 1690l122 201q23 35 64 35h186q41 0 11 -29l-228 -213 q-31 -29 -71 -29h-64q-41 0 -20 35z" />
<glyph unicode="&#x144;" horiz-adv-x="1097" d="M102 41v983q0 41 41 41h103q23 0 30 -9t11 -32l20 -84h4q18 37 48 64.5t67 46t78 29t80 10.5q86 0 160.5 -27t130 -78t88 -126t32.5 -171v-647q0 -41 -39 -41h-168q-39 0 -38 41v577q0 59 -9.5 113.5t-31 95.5t-57.5 66t-89 25q-215 0 -215 -320v-557q0 -41 -41 -41h-164 q-41 0 -41 41zM480 1280l122 201q23 35 64 35h186q41 0 11 -29l-228 -213q-31 -29 -71 -29h-64q-41 0 -20 35z" />
<glyph unicode="&#x145;" horiz-adv-x="1302" d="M102 41v1393q0 41 41 41h144q45 0 67 -33l625 -1000h4l-20 418v574q0 41 41 41h155q41 0 41 -41v-1393q0 -41 -41 -41h-143q-45 0 -68 33l-624 999h-5l21 -418v-573q0 -41 -41 -41h-156q-41 0 -41 41zM508 -262q0 41 41 41h205q41 0 41 -41v-236q0 -51 -10 -100 t-25.5 -90t-33 -72t-31.5 -45q-10 -10 -21.5 -13t-31.5 11l-66 43q-10 8 -9 23.5t5 29.5q10 31 30.5 83t20.5 120h-74q-41 0 -41 41v205z" />
<glyph unicode="&#x146;" horiz-adv-x="1097" d="M102 41v983q0 41 41 41h103q23 0 30 -9t11 -32l20 -84h4q18 37 48 64.5t67 46t78 29t80 10.5q86 0 160.5 -27t130 -78t88 -126t32.5 -171v-647q0 -41 -39 -41h-168q-39 0 -38 41v577q0 59 -9.5 113.5t-31 95.5t-57.5 66t-89 25q-215 0 -215 -320v-557q0 -41 -41 -41h-164 q-41 0 -41 41zM405 -262q0 41 41 41h205q41 0 41 -41v-236q0 -51 -10 -100t-25.5 -90t-33 -72t-31.5 -45q-10 -10 -21.5 -13t-31.5 11l-66 43q-10 8 -9 23.5t5 29.5q10 31 30.5 83t20.5 120h-74q-41 0 -41 41v205z" />
<glyph unicode="&#x147;" horiz-adv-x="1302" d="M102 41v1393q0 41 41 41h144q45 0 67 -33l625 -1000h4l-20 418v574q0 41 41 41h155q41 0 41 -41v-1393q0 -41 -41 -41h-143q-45 0 -68 33l-624 999h-5l21 -418v-573q0 -41 -41 -41h-156q-41 0 -41 41zM369 1893q-25 33 16 33h70q41 0 69 -29l127 -127l127 127 q29 29 70 29h70q41 0 16 -33l-148 -205q-25 -33 -65 -33h-139q-41 0 -66 33z" />
<glyph unicode="&#x148;" horiz-adv-x="1097" d="M102 41v983q0 41 41 41h103q23 0 30 -9t11 -32l20 -84h4q18 37 48 64.5t67 46t78 29t80 10.5q86 0 160.5 -27t130 -78t88 -126t32.5 -171v-647q0 -41 -39 -41h-168q-39 0 -38 41v577q0 59 -9.5 113.5t-31 95.5t-57.5 66t-89 25q-215 0 -215 -320v-557q0 -41 -41 -41h-164 q-41 0 -41 41zM267 1483q-25 33 16 33h70q41 0 69 -29l127 -127l127 127q29 29 70 29h70q41 0 16 -33l-148 -205q-25 -33 -65 -33h-139q-41 0 -66 33z" />
<glyph unicode="&#x149;" horiz-adv-x="1097" d="M102 41v983q0 41 41 41h103q23 0 30 -9t11 -32l20 -84h4q18 37 48 64.5t67 46t78 29t80 10.5q86 0 160.5 -27t130 -78t88 -126t32.5 -171v-647q0 -41 -39 -41h-168q-39 0 -38 41v577q0 59 -9.5 113.5t-31 95.5t-57.5 66t-89 25q-215 0 -215 -320v-557q0 -41 -41 -41h-164 q-41 0 -41 41zM108 1516v205q0 41 41 41h205q41 0 41 -41v-236q0 -51 -10 -100t-25.5 -90t-33 -72t-31.5 -45q-10 -10 -21.5 -13t-31.5 11l-66 43q-10 8 -9 23.5t5 29.5q10 31 30.5 83t20.5 120h-74q-41 0 -41 41z" />
<glyph unicode="&#x14a;" horiz-adv-x="1302" d="M102 41v1393q0 41 41 41h144q45 0 67 -33l625 -1000h4l-20 418v574q0 41 41 41h155q41 0 41 -41v-1416q-4 -262 -141 -396t-371 -134q-35 0 -58.5 1t-19.5 1q-37 2 -37 43v98q0 41 41 41h27q76 0 134.5 17.5t98 57.5t61 105.5t26.5 163.5l-637 1016h-5l21 -418v-573 q0 -41 -41 -41h-156q-41 0 -41 41z" />
<glyph unicode="&#x14b;" horiz-adv-x="1097" d="M102 41v983q0 41 41 41h103q23 0 30 -9t11 -32l20 -84h4q18 37 48 64.5t67 46t78 29t80 10.5q86 0 160.5 -27t130 -78t88 -126t32.5 -171v-881q0 -162 -71.5 -240.5t-210.5 -78.5h-35q-41 0 -41 41v90q0 41 41 41h14q20 0 39 38t19 124v796q0 59 -9.5 113.5t-31 95.5 t-57.5 66t-89 25q-215 0 -215 -320v-557q0 -41 -41 -41h-164q-41 0 -41 41z" />
<glyph unicode="&#x14c;" horiz-adv-x="1609" d="M82 737q0 193 55.5 335t152.5 237.5t229 142.5t286 47t286 -47t229 -142.5t152.5 -237.5t55.5 -335t-55.5 -335t-152.5 -237t-229 -142.5t-286 -47.5t-286 47.5t-229 142.5t-152.5 237.5t-55.5 334.5zM352 737q0 -156 36 -264t98.5 -176t144.5 -97.5t174 -29.5t174 29.5 t144.5 97.5t98 176.5t35.5 263.5q0 156 -35.5 264.5t-97 176t-144.5 97.5t-175 30t-175 -30t-144.5 -97.5t-97.5 -176t-36 -264.5zM446 1741v62q0 41 41 41h635q41 0 41 -41v-62q0 -41 -41 -41h-635q-41 0 -41 41z" />
<glyph unicode="&#x14d;" d="M82 530q0 115 22.5 216.5t78 178t151.5 122t244 45.5q147 0 243.5 -45.5t151.5 -121t77.5 -178t22.5 -215.5q0 -115 -22.5 -216t-77.5 -177t-151.5 -120t-243.5 -44t-243.5 44t-152 119t-78 176.5t-22.5 215.5zM219 1331v62q0 41 41 41h635q41 0 41 -41v-62 q0 -41 -41 -41h-635q-41 0 -41 41zM328 532q0 -78 10 -145.5t37.5 -117.5t76 -79.5t126.5 -29.5q76 0 125 29.5t76.5 79.5t37.5 118t10 145q0 76 -10 144.5t-37.5 120t-77 81t-124.5 29.5q-78 0 -126.5 -29.5t-76 -81t-37.5 -120t-10 -144.5z" />
<glyph unicode="&#x14e;" horiz-adv-x="1609" d="M82 737q0 193 55.5 335t152.5 237.5t229 142.5t286 47t286 -47t229 -142.5t152.5 -237.5t55.5 -335t-55.5 -335t-152.5 -237t-229 -142.5t-286 -47.5t-286 47.5t-229 142.5t-152.5 237.5t-55.5 334.5zM352 737q0 -156 36 -264t98.5 -176t144.5 -97.5t174 -29.5t174 29.5 t144.5 97.5t98 176.5t35.5 263.5q0 156 -35.5 264.5t-97 176t-144.5 97.5t-175 30t-175 -30t-144.5 -97.5t-97.5 -176t-36 -264.5zM522 1893q-4 14 6.5 23.5t24.5 9.5h88q8 0 15.5 -7.5t11.5 -13.5q16 -47 50 -67.5t89 -20.5q45 0 83 18.5t54 69.5q2 8 10.5 14.5t18.5 6.5 h86q12 0 21.5 -10.5t9.5 -22.5q-4 -111 -85 -175.5t-198 -64.5q-49 0 -99 15.5t-90 45t-65.5 74.5t-30.5 105z" />
<glyph unicode="&#x14f;" d="M82 530q0 115 22.5 216.5t78 178t151.5 122t244 45.5q147 0 243.5 -45.5t151.5 -121t77.5 -178t22.5 -215.5q0 -115 -22.5 -216t-77.5 -177t-151.5 -120t-243.5 -44t-243.5 44t-152 119t-78 176.5t-22.5 215.5zM294 1483q-4 14 6.5 23.5t24.5 9.5h88q8 0 15.5 -7.5 t11.5 -13.5q16 -47 50 -67.5t89 -20.5q45 0 83 18.5t54 69.5q2 8 10.5 14.5t18.5 6.5h86q12 0 21.5 -10.5t9.5 -22.5q-4 -111 -85 -175.5t-198 -64.5q-49 0 -99 15.5t-90 45t-65.5 74.5t-30.5 105zM328 532q0 -78 10 -145.5t37.5 -117.5t76 -79.5t126.5 -29.5q76 0 125 29.5 t76.5 79.5t37.5 118t10 145q0 76 -10 144.5t-37.5 120t-77 81t-124.5 29.5q-78 0 -126.5 -29.5t-76 -81t-37.5 -120t-10 -144.5z" />
<glyph unicode="&#x150;" horiz-adv-x="1609" d="M82 737q0 193 55.5 335t152.5 237.5t229 142.5t286 47t286 -47t229 -142.5t152.5 -237.5t55.5 -335t-55.5 -335t-152.5 -237t-229 -142.5t-286 -47.5t-286 47.5t-229 142.5t-152.5 237.5t-55.5 334.5zM352 737q0 -156 36 -264t98.5 -176t144.5 -97.5t174 -29.5t174 29.5 t144.5 97.5t98 176.5t35.5 263.5q0 156 -35.5 264.5t-97 176t-144.5 97.5t-175 30t-175 -30t-144.5 -97.5t-97.5 -176t-36 -264.5zM551 1690l122 201q23 35 64 35h186q41 0 11 -29l-228 -213q-31 -29 -71 -29h-64q-41 0 -20 35zM958 1690l123 201q23 35 64 35h186 q41 0 10 -29l-227 -213q-31 -29 -72 -29h-63q-41 0 -21 35z" />
<glyph unicode="&#x151;" d="M82 530q0 115 22.5 216.5t78 178t151.5 122t244 45.5q147 0 243.5 -45.5t151.5 -121t77.5 -178t22.5 -215.5q0 -115 -22.5 -216t-77.5 -177t-151.5 -120t-243.5 -44t-243.5 44t-152 119t-78 176.5t-22.5 215.5zM267 1280l122 201q23 35 64 35h186q41 0 11 -29l-228 -213 q-31 -29 -71 -29h-64q-41 0 -20 35zM328 532q0 -78 10 -145.5t37.5 -117.5t76 -79.5t126.5 -29.5q76 0 125 29.5t76.5 79.5t37.5 118t10 145q0 76 -10 144.5t-37.5 120t-77 81t-124.5 29.5q-78 0 -126.5 -29.5t-76 -81t-37.5 -120t-10 -144.5zM674 1280l123 201q23 35 64 35 h186q41 0 10 -29l-227 -213q-31 -29 -72 -29h-63q-41 0 -21 35z" />
<glyph unicode="&#x152;" horiz-adv-x="1878" d="M82 737q0 193 55.5 335t152.5 237.5t229 142.5t286 47q117 0 215 -26q4 2 12 2h723q41 0 41 -41v-103q0 -41 -41 -41h-506v-452h404q41 0 41 -41v-103q0 -41 -41 -41h-404v-469h506q41 0 41 -41v-102q0 -41 -41 -41h-723h-14q-51 -10 -104.5 -17.5t-108.5 -7.5 q-154 0 -286 47.5t-229 142.5t-152.5 237.5t-55.5 334.5zM352 737q0 -156 36 -264t98.5 -176t144.5 -97.5t174 -29.5q49 0 96 8t90 27v1065q-43 18 -90 26.5t-96 8.5q-92 0 -175 -30t-144.5 -97.5t-97.5 -176t-36 -264.5z" />
<glyph unicode="&#x153;" horiz-adv-x="1802" d="M82 530q0 115 22.5 216.5t78 178t151.5 122t244 45.5q143 0 232 -49.5t140 -135.5q49 86 130 135.5t202 49.5q92 0 173 -27t139.5 -82t92 -138t33.5 -194q0 -59 -11 -98t-36.5 -62.5t-68.5 -34t-107 -10.5h-420q6 -66 21.5 -120t46.5 -93.5t77 -62.5t113 -23 q59 0 118.5 15.5t123.5 36.5q31 10 40 6t13 -10l43 -66q18 -29 -2 -53q-14 -16 -48 -34.5t-82 -33t-107.5 -24t-124.5 -9.5q-135 0 -222.5 48.5t-136.5 130.5q-51 -84 -141 -131.5t-231 -47.5q-147 0 -243.5 44t-152 119t-78 176.5t-22.5 215.5zM328 532q0 -78 10 -145.5 t37.5 -117.5t76 -79.5t126.5 -29.5q76 0 125 29.5t76.5 79.5t37.5 118t10 145q0 76 -10 144.5t-37.5 120t-77 81t-124.5 29.5q-78 0 -126.5 -29.5t-76 -81t-37.5 -120t-10 -144.5zM1077 618h316q47 0 63.5 11.5t16.5 58.5q0 45 -13.5 87t-37 74t-56.5 51.5t-74 19.5 q-55 0 -94 -25t-64.5 -66t-39 -95t-17.5 -116z" />
<glyph unicode="&#x154;" horiz-adv-x="1161" d="M102 41v1393q0 41 41 41h389q117 0 213.5 -40t166 -110t108.5 -164t39 -200q0 -152 -78 -275t-213 -186l315 -467q12 -16 10.5 -24.5t-26.5 -8.5h-225q-41 0 -62 35l-260 414h-160v-408q0 -41 -41 -41h-176q-41 0 -41 41zM360 631h132q152 0 230.5 82t78.5 248t-79 247.5 t-230 83.5h-132v-661zM385 1690l122 201q23 35 64 35h186q41 0 11 -29l-228 -213q-31 -29 -71 -29h-64q-41 0 -20 35z" />
<glyph unicode="&#x155;" horiz-adv-x="647" d="M102 41v983q0 41 41 41h103q23 0 26.5 -10.5t14.5 -30.5l20 -78h4q33 51 69 78t70.5 39t70.5 15t69 3q23 0 30 -4t7 -26v-154q0 -20 -7.5 -27.5t-19.5 -8.5t-27.5 2t-29.5 3q-195 0 -195 -198v-627q0 -41 -41 -41h-164q-41 0 -41 41zM242 1280l122 201q23 35 64 35h186 q41 0 11 -29l-228 -213q-31 -29 -71 -29h-64q-41 0 -20 35z" />
<glyph unicode="&#x156;" horiz-adv-x="1161" d="M102 41v1393q0 41 41 41h389q117 0 213.5 -40t166 -110t108.5 -164t39 -200q0 -152 -78 -275t-213 -186l315 -467q12 -16 10.5 -24.5t-26.5 -8.5h-225q-41 0 -62 35l-260 414h-160v-408q0 -41 -41 -41h-176q-41 0 -41 41zM360 631h132q152 0 230.5 82t78.5 248t-79 247.5 t-230 83.5h-132v-661zM436 -262q0 41 41 41h205q41 0 41 -41v-236q0 -51 -10 -100t-25.5 -90t-33 -72t-31.5 -45q-10 -10 -21.5 -13t-31.5 11l-66 43q-10 8 -9 23.5t5 29.5q10 31 30.5 83t20.5 120h-74q-41 0 -41 41v205z" />
<glyph unicode="&#x157;" horiz-adv-x="647" d="M102 41v983q0 41 41 41h103q23 0 26.5 -10.5t14.5 -30.5l20 -78h4q33 51 69 78t70.5 39t70.5 15t69 3q23 0 30 -4t7 -26v-154q0 -20 -7.5 -27.5t-19.5 -8.5t-27.5 2t-29.5 3q-195 0 -195 -198v-627q0 -41 -41 -41h-164q-41 0 -41 41zM180 -262q0 41 41 41h205 q41 0 41 -41v-236q0 -51 -10 -100t-25.5 -90t-33 -72t-31.5 -45q-10 -10 -21.5 -13t-31.5 11l-66 43q-10 8 -9 23.5t5 29.5q10 31 30.5 83t20.5 120h-74q-41 0 -41 41v205z" />
<glyph unicode="&#x158;" horiz-adv-x="1161" d="M102 41v1393q0 41 41 41h389q117 0 213.5 -40t166 -110t108.5 -164t39 -200q0 -152 -78 -275t-213 -186l315 -467q12 -16 10.5 -24.5t-26.5 -8.5h-225q-41 0 -62 35l-260 414h-160v-408q0 -41 -41 -41h-176q-41 0 -41 41zM297 1893q-25 33 16 33h70q41 0 69 -29l127 -127 l127 127q29 29 70 29h70q41 0 16 -33l-148 -205q-25 -33 -65 -33h-139q-41 0 -66 33zM360 631h132q152 0 230.5 82t78.5 248t-79 247.5t-230 83.5h-132v-661z" />
<glyph unicode="&#x159;" horiz-adv-x="647" d="M43 1483q-25 33 16 33h70q41 0 69 -29l127 -127l127 127q29 29 70 29h70q41 0 16 -33l-148 -205q-25 -33 -65 -33h-139q-41 0 -66 33zM102 41v983q0 41 41 41h103q23 0 26.5 -10.5t14.5 -30.5l20 -78h4q33 51 69 78t70.5 39t70.5 15t69 3q23 0 30 -4t7 -26v-154 q0 -20 -7.5 -27.5t-19.5 -8.5t-27.5 2t-29.5 3q-195 0 -195 -198v-627q0 -41 -41 -41h-164q-41 0 -41 41z" />
<glyph unicode="&#x15a;" horiz-adv-x="1136" d="M83 96q-1 10 9 33l33 86q4 12 20.5 10t32.5 -6q20 -6 59 -14t88.5 -15.5t100.5 -13.5t96 -6q135 0 215 52t80 138q0 74 -56 129.5t-134 85.5l-199 78q-150 57 -243 157.5t-93 258.5q0 100 40 180t107.5 135.5t157.5 85t193 29.5q68 0 136.5 -11t126.5 -27.5t101 -33 t58 -28.5q10 -8 11 -18.5t-9 -34.5l-33 -86q-4 -12 -20.5 -10.5t-32.5 5.5q-20 6 -57 14.5t-82.5 15.5t-94.5 13.5t-92 6.5q-82 0 -135 -20.5t-84 -52.5t-42 -69t-11 -69q0 -55 35.5 -103.5t140.5 -89.5l196 -74q88 -33 155 -81t111 -106t65.5 -123.5t21.5 -133.5 q0 -94 -39 -169t-108.5 -128t-168 -82t-215.5 -29q-66 0 -133 10.5t-127.5 26t-105.5 32.5t-64 32q-10 10 -11 20zM447 1690l122 201q23 35 64 35h186q41 0 11 -29l-228 -213q-31 -29 -71 -29h-64q-41 0 -20 35z" />
<glyph unicode="&#x15b;" horiz-adv-x="970" d="M92 129l43 66q8 10 23.5 9t29.5 -5q59 -20 123 -36t140 -16q63 0 103 12.5t62.5 32t30.5 44t8 49.5q0 47 -35.5 72.5t-123.5 54.5l-177 53q-115 35 -166 114.5t-51 182.5q0 70 25 130t73 105t119.5 70t165.5 25q131 0 226.5 -33t130.5 -68q6 -6 11 -18t-11 -35l-43 -66 q-6 -14 -22.5 -11t-31.5 7q-55 20 -113.5 36t-123.5 16q-92 0 -132 -37t-40 -97q0 -35 18.5 -61.5t61.5 -38.5l239 -70q133 -39 183.5 -114.5t50.5 -194.5q0 -84 -35 -145.5t-93.5 -103.5t-136 -62.5t-161.5 -20.5q-66 0 -125 8.5t-108.5 21.5t-85 31.5t-50.5 39.5 q-18 27 -2 53zM385 1280l122 201q23 35 64 35h186q41 0 11 -29l-228 -213q-31 -29 -71 -29h-64q-41 0 -20 35z" />
<glyph unicode="&#x15c;" horiz-adv-x="1136" d="M83 96q-1 10 9 33l33 86q4 12 20.5 10t32.5 -6q20 -6 59 -14t88.5 -15.5t100.5 -13.5t96 -6q135 0 215 52t80 138q0 74 -56 129.5t-134 85.5l-199 78q-150 57 -243 157.5t-93 258.5q0 100 40 180t107.5 135.5t157.5 85t193 29.5q68 0 136.5 -11t126.5 -27.5t101 -33 t58 -28.5q10 -8 11 -18.5t-9 -34.5l-33 -86q-4 -12 -20.5 -10.5t-32.5 5.5q-20 6 -57 14.5t-82.5 15.5t-94.5 13.5t-92 6.5q-82 0 -135 -20.5t-84 -52.5t-42 -69t-11 -69q0 -55 35.5 -103.5t140.5 -89.5l196 -74q88 -33 155 -81t111 -106t65.5 -123.5t21.5 -133.5 q0 -94 -39 -169t-108.5 -128t-168 -82t-215.5 -29q-66 0 -133 10.5t-127.5 26t-105.5 32.5t-64 32q-10 10 -11 20zM303 1688l147 205q25 33 66 33h139q41 0 65 -33l148 -205q25 -33 -16 -33h-70q-41 0 -70 29l-127 127l-127 -127q-29 -29 -69 -29h-70q-41 0 -16 33z" />
<glyph unicode="&#x15d;" horiz-adv-x="970" d="M92 129l43 66q8 10 23.5 9t29.5 -5q59 -20 123 -36t140 -16q63 0 103 12.5t62.5 32t30.5 44t8 49.5q0 47 -35.5 72.5t-123.5 54.5l-177 53q-115 35 -166 114.5t-51 182.5q0 70 25 130t73 105t119.5 70t165.5 25q131 0 226.5 -33t130.5 -68q6 -6 11 -18t-11 -35l-43 -66 q-6 -14 -22.5 -11t-31.5 7q-55 20 -113.5 36t-123.5 16q-92 0 -132 -37t-40 -97q0 -35 18.5 -61.5t61.5 -38.5l239 -70q133 -39 183.5 -114.5t50.5 -194.5q0 -84 -35 -145.5t-93.5 -103.5t-136 -62.5t-161.5 -20.5q-66 0 -125 8.5t-108.5 21.5t-85 31.5t-50.5 39.5 q-18 27 -2 53zM219 1278l147 205q25 33 66 33h139q41 0 65 -33l148 -205q25 -33 -16 -33h-70q-41 0 -70 29l-127 127l-127 -127q-29 -29 -69 -29h-70q-41 0 -16 33z" />
<glyph unicode="&#x15e;" horiz-adv-x="1136" d="M83 96q-1 10 9 33l33 86q4 12 20.5 10t32.5 -6q20 -6 59 -14t88.5 -15.5t100.5 -13.5t96 -6q135 0 215 52t80 138q0 74 -56 129.5t-134 85.5l-199 78q-150 57 -243 157.5t-93 258.5q0 100 40 180t107.5 135.5t157.5 85t193 29.5q68 0 136.5 -11t126.5 -27.5t101 -33 t58 -28.5q10 -8 11 -18.5t-9 -34.5l-33 -86q-4 -12 -20.5 -10.5t-32.5 5.5q-20 6 -57 14.5t-82.5 15.5t-94.5 13.5t-92 6.5q-82 0 -135 -20.5t-84 -52.5t-42 -69t-11 -69q0 -55 35.5 -103.5t140.5 -89.5l196 -74q88 -33 155 -81t111 -106t65.5 -123.5t21.5 -133.5 q0 -84 -31 -152.5t-87 -120t-135 -84t-175 -44.5l-23 -93q70 -10 107 -52t37 -101q0 -80 -63.5 -135.5t-174.5 -55.5q-37 0 -62.5 2t-21.5 7q-39 2 -37 45l2 36q2 41 43 39v-2h43q68 0 99.5 21.5t31.5 56.5q0 31 -22.5 38t-73.5 11q-23 2 -28 19.5t1 38.5l29 118 q-63 0 -131 10.5t-126 26t-101 32.5t-62 32q-10 10 -11 20z" />
<glyph unicode="&#x15f;" horiz-adv-x="970" d="M92 129l43 66q8 10 23.5 9t29.5 -5q59 -20 123 -36t140 -16q63 0 103 12.5t62.5 32t30.5 44t8 49.5q0 47 -34.5 75.5t-124.5 51.5l-177 53q-117 33 -167 113.5t-50 183.5q0 70 25 130t73 105t119.5 70t165.5 25q131 0 226.5 -33t130.5 -68q6 -6 11 -18t-11 -35l-43 -66 q-6 -14 -22.5 -11t-31.5 7q-55 20 -113.5 36t-123.5 16q-92 0 -132 -37t-40 -97q0 -35 18.5 -61.5t61.5 -38.5l239 -70q133 -39 183.5 -114.5t50.5 -194.5q0 -74 -26.5 -130t-74 -97t-110 -65.5t-133.5 -32.5l-23 -93q70 -10 107 -52t37 -101q0 -80 -63.5 -135.5 t-174.5 -55.5q-37 0 -62.5 2t-21.5 7q-39 2 -37 45l2 36q2 41 43 39v-2h43q68 0 99.5 21.5t31.5 56.5q0 31 -22.5 38t-73.5 11q-23 2 -27 19.5t0 38.5l29 118q-121 4 -215 33t-123 68q-18 27 -2 53z" />
<glyph unicode="&#x160;" horiz-adv-x="1136" d="M83 96q-1 10 9 33l33 86q4 12 20.5 10t32.5 -6q20 -6 59 -14t88.5 -15.5t100.5 -13.5t96 -6q135 0 215 52t80 138q0 74 -56 129.5t-134 85.5l-199 78q-150 57 -243 157.5t-93 258.5q0 100 40 180t107.5 135.5t157.5 85t193 29.5q68 0 136.5 -11t126.5 -27.5t101 -33 t58 -28.5q10 -8 11 -18.5t-9 -34.5l-33 -86q-4 -12 -20.5 -10.5t-32.5 5.5q-20 6 -57 14.5t-82.5 15.5t-94.5 13.5t-92 6.5q-82 0 -135 -20.5t-84 -52.5t-42 -69t-11 -69q0 -55 35.5 -103.5t140.5 -89.5l196 -74q88 -33 155 -81t111 -106t65.5 -123.5t21.5 -133.5 q0 -94 -39 -169t-108.5 -128t-168 -82t-215.5 -29q-66 0 -133 10.5t-127.5 26t-105.5 32.5t-64 32q-10 10 -11 20zM285 1893q-25 33 16 33h70q41 0 69 -29l127 -127l127 127q29 29 70 29h70q41 0 16 -33l-148 -205q-25 -33 -65 -33h-139q-41 0 -66 33z" />
<glyph unicode="&#x161;" horiz-adv-x="970" d="M92 129l43 66q8 10 23.5 9t29.5 -5q59 -20 123 -36t140 -16q63 0 103 12.5t62.5 32t30.5 44t8 49.5q0 47 -35.5 72.5t-123.5 54.5l-177 53q-115 35 -166 114.5t-51 182.5q0 70 25 130t73 105t119.5 70t165.5 25q131 0 226.5 -33t130.5 -68q6 -6 11 -18t-11 -35l-43 -66 q-6 -14 -22.5 -11t-31.5 7q-55 20 -113.5 36t-123.5 16q-92 0 -132 -37t-40 -97q0 -35 18.5 -61.5t61.5 -38.5l239 -70q133 -39 183.5 -114.5t50.5 -194.5q0 -84 -35 -145.5t-93.5 -103.5t-136 -62.5t-161.5 -20.5q-66 0 -125 8.5t-108.5 21.5t-85 31.5t-50.5 39.5 q-18 27 -2 53zM219 1483q-25 33 16 33h70q41 0 69 -29l127 -127l127 127q29 29 70 29h70q41 0 16 -33l-148 -205q-25 -33 -65 -33h-139q-41 0 -66 33z" />
<glyph unicode="&#x162;" horiz-adv-x="983" d="M20 1331v103q0 41 41 41h861q41 0 41 -41v-103q0 -41 -41 -41h-301v-1249q0 -41 -41 -41h-177q-41 0 -41 41v1249h-301q-41 0 -41 41zM348 -262q0 41 41 41h205q41 0 41 -41v-236q0 -51 -10 -100t-25.5 -90t-33 -72t-31.5 -45q-10 -10 -21.5 -13t-31.5 11l-66 43 q-10 8 -9 23.5t5 29.5q10 31 30.5 83t20.5 120h-74q-41 0 -41 41v205z" />
<glyph unicode="&#x163;" horiz-adv-x="645" d="M20 944v80q0 41 41 41h107v158q0 23 10 27.5t31 13.5l164 61q20 8 30.5 -5t10.5 -36v-219h129q41 0 41 -41v-80q0 -41 -41 -41h-129v-590q0 -76 31.5 -108.5t66.5 -32.5h14q41 0 41 -41v-90q0 -41 -41 -41h-75q-139 0 -211 79t-72 240v584h-107q-41 0 -41 41zM178 -262 q0 41 41 41h205q41 0 41 -41v-236q0 -51 -10 -100t-25.5 -90t-33 -72t-31.5 -45q-10 -10 -21.5 -13t-31.5 11l-66 43q-10 8 -9 23.5t5 29.5q10 31 30.5 83t20.5 120h-74q-41 0 -41 41v205z" />
<glyph unicode="&#x164;" horiz-adv-x="983" d="M20 1331v103q0 41 41 41h861q41 0 41 -41v-103q0 -41 -41 -41h-301v-1249q0 -41 -41 -41h-177q-41 0 -41 41v1249h-301q-41 0 -41 41zM209 1893q-25 33 16 33h70q41 0 69 -29l127 -127l127 127q29 29 70 29h70q41 0 16 -33l-148 -205q-25 -33 -65 -33h-139q-41 0 -66 33z " />
<glyph unicode="&#x165;" horiz-adv-x="645" d="M11 1710q-25 33 16 33h70q41 0 69 -29l127 -127l127 127q29 29 70 29h70q41 0 16 -33l-148 -205q-25 -33 -65 -33h-139q-41 0 -66 33zM20 944v80q0 41 41 41h107v158q0 23 10 27.5t31 13.5l164 61q20 8 30.5 -5t10.5 -36v-219h129q41 0 41 -41v-80q0 -41 -41 -41h-129 v-590q0 -76 31.5 -108.5t66.5 -32.5h14q41 0 41 -41v-90q0 -41 -41 -41h-75q-139 0 -211 79t-72 240v584h-107q-41 0 -41 41z" />
<glyph unicode="&#x166;" horiz-adv-x="983" d="M20 1331v103q0 41 41 41h861q41 0 41 -41v-103q0 -41 -41 -41h-301v-225h188q41 0 41 -41v-61q0 -41 -41 -41h-188v-881q0 -41 -41 -41h-177q-41 0 -41 41v881h-188q-41 0 -41 41v61q0 41 41 41h188v225h-301q-41 0 -41 41z" />
<glyph unicode="&#x167;" horiz-adv-x="645" d="M18 655v62q0 41 41 41h109v145h-107q-41 0 -41 41v80q0 41 41 41h107v158q0 23 10 27.5t31 13.5l164 61q20 8 30.5 -5t10.5 -36v-219h129q41 0 41 -41v-80q0 -41 -41 -41h-129v-145h129q41 0 41 -41v-62q0 -41 -41 -41h-129v-301q0 -76 31.5 -108.5t66.5 -32.5h14 q41 0 41 -41v-90q0 -41 -41 -41h-75q-139 0 -211 79t-72 240v295h-109q-41 0 -41 41z" />
<glyph unicode="&#x168;" horiz-adv-x="1302" d="M102 524v910q0 41 41 41h176q41 0 41 -41v-852q0 -86 18.5 -163t55.5 -134.5t91.5 -91t125.5 -33.5q86 0 151.5 32.5t109.5 90t68 134.5t24 165v852q0 41 40 41h115q41 0 41 -41v-910q0 -119 -41 -219t-114.5 -174t-175 -115t-222.5 -41q-117 0 -217 42t-173 116 t-114 174.5t-41 216.5zM362 1690q2 41 12.5 78t32 64.5t55.5 44t81 16.5q35 0 68.5 -12.5t66.5 -26.5q49 -23 63.5 -28t18.5 -5q16 0 23 10.5t13.5 23.5t16.5 23.5t33 10.5h61q12 0 21.5 -10.5t9.5 -22.5q-2 -84 -43 -143.5t-135 -59.5q-18 0 -36 5t-34 12q-53 20 -94 37.5 t-53 17.5q-16 0 -25.5 -10.5t-17 -23.5t-17.5 -23.5t-26 -10.5h-62q-14 0 -23.5 10.5t-9.5 22.5z" />
<glyph unicode="&#x169;" horiz-adv-x="1097" d="M102 377v647q0 41 39 41h168q39 0 39 -41v-578q0 -59 9.5 -113t31 -95t57 -66t89.5 -25q215 0 215 320v557q0 41 41 41h163q41 0 41 -41v-983q0 -41 -41 -41h-102q-23 0 -30 9t-11 32l-20 84h-5q-18 -37 -47.5 -64.5t-66.5 -46t-78 -29t-80 -10.5q-86 0 -160.5 27 t-130 78t-88.5 126t-33 171zM260 1280q2 41 12.5 78t32 64.5t55.5 44t81 16.5q35 0 68.5 -12.5t66.5 -26.5q49 -23 63.5 -28t18.5 -5q16 0 23 10.5t13.5 23.5t16.5 23.5t33 10.5h61q12 0 21.5 -10.5t9.5 -22.5q-2 -84 -43 -143.5t-135 -59.5q-18 0 -36 5t-34 12 q-53 20 -94 37.5t-53 17.5q-16 0 -25.5 -10.5t-17 -23.5t-17.5 -23.5t-26 -10.5h-62q-14 0 -23.5 10.5t-9.5 22.5z" />
<glyph unicode="&#x16a;" horiz-adv-x="1302" d="M102 524v910q0 41 41 41h176q41 0 41 -41v-852q0 -86 18.5 -163t55.5 -134.5t91.5 -91t125.5 -33.5q86 0 151.5 32.5t109.5 90t68 134.5t24 165v852q0 41 40 41h115q41 0 41 -41v-910q0 -119 -41 -219t-114.5 -174t-175 -115t-222.5 -41q-117 0 -217 42t-173 116 t-114 174.5t-41 216.5zM292 1741v62q0 41 41 41h635q41 0 41 -41v-62q0 -41 -41 -41h-635q-41 0 -41 41z" />
<glyph unicode="&#x16b;" horiz-adv-x="1097" d="M102 377v647q0 41 39 41h168q39 0 39 -41v-578q0 -59 9.5 -113t31 -95t57 -66t89.5 -25q215 0 215 320v557q0 41 41 41h163q41 0 41 -41v-983q0 -41 -41 -41h-102q-23 0 -30 9t-11 32l-20 84h-5q-18 -37 -47.5 -64.5t-66.5 -46t-78 -29t-80 -10.5q-86 0 -160.5 27 t-130 78t-88.5 126t-33 171zM190 1331v62q0 41 41 41h635q41 0 41 -41v-62q0 -41 -41 -41h-635q-41 0 -41 41z" />
<glyph unicode="&#x16c;" horiz-adv-x="1302" d="M102 524v910q0 41 41 41h176q41 0 41 -41v-852q0 -86 18.5 -163t55.5 -134.5t91.5 -91t125.5 -33.5q86 0 151.5 32.5t109.5 90t68 134.5t24 165v852q0 41 40 41h115q41 0 41 -41v-910q0 -119 -41 -219t-114.5 -174t-175 -115t-222.5 -41q-117 0 -217 42t-173 116 t-114 174.5t-41 216.5zM368 1893q-4 14 6.5 23.5t24.5 9.5h88q8 0 15.5 -7.5t11.5 -13.5q16 -47 50 -67.5t89 -20.5q45 0 83 18.5t54 69.5q2 8 10.5 14.5t18.5 6.5h86q12 0 21.5 -10.5t9.5 -22.5q-4 -111 -85 -175.5t-198 -64.5q-49 0 -99 15.5t-90 45t-65.5 74.5t-30.5 105 z" />
<glyph unicode="&#x16d;" horiz-adv-x="1097" d="M102 377v647q0 41 39 41h168q39 0 39 -41v-578q0 -59 9.5 -113t31 -95t57 -66t89.5 -25q215 0 215 320v557q0 41 41 41h163q41 0 41 -41v-983q0 -41 -41 -41h-102q-23 0 -30 9t-11 32l-20 84h-5q-18 -37 -47.5 -64.5t-66.5 -46t-78 -29t-80 -10.5q-86 0 -160.5 27 t-130 78t-88.5 126t-33 171zM266 1483q-4 14 6.5 23.5t24.5 9.5h88q8 0 15.5 -7.5t11.5 -13.5q16 -47 50 -67.5t89 -20.5q45 0 83 18.5t54 69.5q2 8 10.5 14.5t18.5 6.5h86q12 0 21.5 -10.5t9.5 -22.5q-4 -111 -85 -175.5t-198 -64.5q-49 0 -99 15.5t-90 45t-65.5 74.5 t-30.5 105z" />
<glyph unicode="&#x16e;" horiz-adv-x="1302" d="M102 524v910q0 41 41 41h176q41 0 41 -41v-852q0 -86 18.5 -163t55.5 -134.5t91.5 -91t125.5 -33.5q86 0 151.5 32.5t109.5 90t68 134.5t24 165v852q0 41 40 41h115q41 0 41 -41v-910q0 -119 -41 -219t-114.5 -174t-175 -115t-222.5 -41q-117 0 -217 42t-173 116 t-114 174.5t-41 216.5zM460 1778q0 39 15.5 74t41 61.5t60.5 41t74 14.5q82 0 136 -54.5t54 -136.5q0 -39 -14 -73.5t-41 -60.5t-61.5 -41t-73.5 -15q-37 0 -72 15t-61.5 41t-42 60.5t-15.5 73.5zM546 1778q0 -41 32 -72.5t73 -31.5t72.5 28.5t31.5 75.5q0 45 -28.5 75 t-75.5 30t-76 -32t-29 -73z" />
<glyph unicode="&#x16f;" horiz-adv-x="1097" d="M102 377v647q0 41 39 41h168q39 0 39 -41v-578q0 -59 9.5 -113t31 -95t57 -66t89.5 -25q215 0 215 320v557q0 41 41 41h163q41 0 41 -41v-983q0 -41 -41 -41h-102q-23 0 -30 9t-11 32l-20 84h-5q-18 -37 -47.5 -64.5t-66.5 -46t-78 -29t-80 -10.5q-86 0 -160.5 27 t-130 78t-88.5 126t-33 171zM358 1368q0 39 15.5 74t41 61.5t60.5 41t74 14.5q82 0 136 -54.5t54 -136.5q0 -39 -14 -73.5t-41 -60.5t-61.5 -41t-73.5 -15q-37 0 -72 15t-61.5 41t-42 60.5t-15.5 73.5zM444 1368q0 -41 32 -72.5t73 -31.5t72.5 28.5t31.5 75.5q0 45 -28.5 75 t-75.5 30t-76 -32t-29 -73z" />
<glyph unicode="&#x170;" horiz-adv-x="1302" d="M102 524v910q0 41 41 41h176q41 0 41 -41v-852q0 -86 18.5 -163t55.5 -134.5t91.5 -91t125.5 -33.5q86 0 151.5 32.5t109.5 90t68 134.5t24 165v852q0 41 40 41h115q41 0 41 -41v-910q0 -119 -41 -219t-114.5 -174t-175 -115t-222.5 -41q-117 0 -217 42t-173 116 t-114 174.5t-41 216.5zM363 1690l122 201q23 35 64 35h186q41 0 11 -29l-228 -213q-31 -29 -71 -29h-64q-41 0 -20 35zM770 1690l123 201q23 35 64 35h186q41 0 10 -29l-227 -213q-31 -29 -72 -29h-63q-41 0 -21 35z" />
<glyph unicode="&#x171;" horiz-adv-x="1097" d="M102 377v647q0 41 39 41h168q39 0 39 -41v-578q0 -59 9.5 -113t31 -95t57 -66t89.5 -25q215 0 215 320v557q0 41 41 41h163q41 0 41 -41v-983q0 -41 -41 -41h-102q-23 0 -30 9t-11 32l-20 84h-5q-18 -37 -47.5 -64.5t-66.5 -46t-78 -29t-80 -10.5q-86 0 -160.5 27 t-130 78t-88.5 126t-33 171zM238 1280l122 201q23 35 64 35h186q41 0 11 -29l-228 -213q-31 -29 -71 -29h-64q-41 0 -20 35zM645 1280l123 201q23 35 64 35h186q41 0 10 -29l-227 -213q-31 -29 -72 -29h-63q-41 0 -21 35z" />
<glyph unicode="&#x172;" horiz-adv-x="1302" d="M102 524v910q0 41 41 41h176q41 0 41 -41v-852q0 -86 18.5 -163t55.5 -134.5t91.5 -91t125.5 -33.5q86 0 151.5 32.5t109.5 90t68 134.5t24 165v852q0 41 40 41h115q41 0 41 -41v-910q0 -98 -27.5 -183t-78 -152.5t-122 -116.5t-157.5 -74q-18 -29 -36.5 -58.5 t-37.5 -58.5q-31 -51 -30 -88q0 -43 41 -43q10 0 17 5t15 9q18 16 30.5 5t19.5 -27q4 -10 8 -20.5t8 -20.5q6 -23 -1 -28t-26 -21q-14 -10 -51 -29.5t-86 -23.5q-78 4 -119 38.5t-41 106.5q0 33 12.5 80t47.5 94l41 57q-115 4 -210 47.5t-166 116t-110 172t-39 213.5z" />
<glyph unicode="&#x173;" horiz-adv-x="1097" d="M102 377v647q0 41 39 41h168q39 0 39 -41v-578q0 -59 9.5 -113t31 -95t57 -66t89.5 -25q215 0 215 320v557q0 41 41 41h163q41 0 41 -41v-983q0 -43 -22 -76l-53 -84q-31 -51 -31 -88q0 -43 41 -43q10 0 17 5t16 9q23 14 33 4t16 -26q4 -10 8 -20.5t8 -20.5q8 -23 0 -28 t-27 -21q-14 -10 -51 -31.5t-86 -21.5q-78 -2 -118.5 35.5t-40.5 109.5q0 29 12 70t47 84l80 102q-16 2 -22.5 11t-10.5 30l-20 84h-5q-18 -37 -47.5 -64.5t-66.5 -46t-78 -29t-80 -10.5q-86 0 -160.5 27t-130 78t-88.5 126t-33 171z" />
<glyph unicode="&#x174;" horiz-adv-x="1785" d="M27 1438q-18 37 24 37h195q47 0 55 -39l197 -822l57 -358l57 358l197 822q8 39 51 39h127q43 0 51 -39l183 -822l51 -358l63 358l211 822q14 39 56 39h133q18 0 26 -9.5t-2 -27.5l-416 -1401q-12 -37 -57 -37h-131q-23 0 -38 8t-19 29l-209 995l-221 -995 q-4 -20 -19.5 -28.5t-38.5 -8.5h-131q-45 0 -57 37zM611 1688l147 205q25 33 66 33h139q41 0 65 -33l148 -205q25 -33 -16 -33h-70q-41 0 -70 29l-127 127l-127 -127q-29 -29 -69 -29h-70q-41 0 -16 33z" />
<glyph unicode="&#x175;" horiz-adv-x="1605" d="M27 1028q-18 37 24 37h189q41 0 53 -39l182 -780l203 780q8 39 51 39h148q43 0 51 -39l202 -780l183 780q8 39 53 39h188q18 0 26.5 -9t-1.5 -28l-326 -991q-18 -37 -57 -37h-131q-39 0 -57 37l-205 663l-205 -663q-18 -37 -57 -37h-131q-39 0 -58 37zM521 1278l147 205 q25 33 66 33h139q41 0 65 -33l148 -205q25 -33 -16 -33h-70q-41 0 -70 29l-127 127l-127 -127q-29 -29 -69 -29h-70q-41 0 -16 33z" />
<glyph unicode="&#x176;" horiz-adv-x="1286" d="M29 1440q-20 35 20 35h219q41 0 62 -35l327 -664l353 662q16 37 59 37h168q39 0 23 -37l-498 -899v-498q0 -41 -41 -41h-176q-41 0 -41 41v498zM361 1688l147 205q25 33 66 33h139q41 0 65 -33l148 -205q25 -33 -16 -33h-70q-41 0 -70 29l-127 127l-127 -127 q-29 -29 -69 -29h-70q-41 0 -16 33z" />
<glyph unicode="&#x177;" horiz-adv-x="1073" d="M27 1028q-18 37 24 37h189q41 0 53 -39l248 -782l250 782q14 39 55 39h176q18 0 26.5 -9t-1.5 -28l-562 -1442q-18 -37 -57 -37h-182q-18 0 -26.5 9.5t1.5 27.5l193 430zM254 1278l147 205q25 33 66 33h139q41 0 65 -33l148 -205q25 -33 -16 -33h-70q-41 0 -70 29 l-127 127l-127 -127q-29 -29 -69 -29h-70q-41 0 -16 33z" />
<glyph unicode="&#x178;" horiz-adv-x="1286" d="M29 1440q-20 35 20 35h219q41 0 62 -35l327 -664l353 662q16 37 59 37h168q39 0 23 -37l-498 -899v-498q0 -41 -41 -41h-176q-41 0 -41 41v498zM335 1700v144q0 41 41 41h144q41 0 41 -41v-144q0 -41 -41 -41h-144q-41 0 -41 41zM725 1700v144q0 41 40 41h144 q41 0 41 -41v-144q0 -41 -41 -41h-144q-41 0 -40 41z" />
<glyph unicode="&#x179;" horiz-adv-x="995" d="M20 41v74q0 39 21 78l621 1097h-588q-41 0 -41 41v103q0 41 41 41h844q41 0 40 -41v-74q0 -39 -20 -78l-619 -1098h615q41 0 41 -41v-102q0 -41 -41 -41h-873q-41 0 -41 41zM301 1690l122 201q23 35 64 35h186q41 0 11 -29l-228 -213q-31 -29 -71 -29h-64q-41 0 -20 35z " />
<glyph unicode="&#x17a;" horiz-adv-x="872" d="M61 41v74q0 39 21 78l430 710h-397q-41 0 -41 41v80q0 41 41 41h639q41 0 41 -41v-74q0 -39 -21 -78l-428 -710h424q41 0 41 -41v-80q0 -41 -41 -41h-668q-41 0 -41 41zM240 1280l122 201q23 35 64 35h186q41 0 11 -29l-228 -213q-31 -29 -71 -29h-64q-41 0 -20 35z" />
<glyph unicode="&#x17b;" horiz-adv-x="995" d="M20 41v74q0 39 21 78l621 1097h-588q-41 0 -41 41v103q0 41 41 41h844q41 0 40 -41v-74q0 -39 -20 -78l-619 -1098h615q41 0 41 -41v-102q0 -41 -41 -41h-873q-41 0 -41 41zM374 1721v164q0 41 41 41h164q41 0 41 -41v-164q0 -41 -41 -41h-164q-41 0 -41 41z" />
<glyph unicode="&#x17c;" horiz-adv-x="872" d="M61 41v74q0 39 21 78l430 710h-397q-41 0 -41 41v80q0 41 41 41h639q41 0 41 -41v-74q0 -39 -21 -78l-428 -710h424q41 0 41 -41v-80q0 -41 -41 -41h-668q-41 0 -41 41zM313 1311v164q0 41 41 41h164q41 0 41 -41v-164q0 -41 -41 -41h-164q-41 0 -41 41z" />
<glyph unicode="&#x17d;" horiz-adv-x="995" d="M20 41v74q0 39 21 78l621 1097h-588q-41 0 -41 41v103q0 41 41 41h844q41 0 40 -41v-74q0 -39 -20 -78l-619 -1098h615q41 0 41 -41v-102q0 -41 -41 -41h-873q-41 0 -41 41zM215 1893q-25 33 16 33h70q41 0 69 -29l127 -127l127 127q29 29 70 29h70q41 0 16 -33 l-148 -205q-25 -33 -65 -33h-139q-41 0 -66 33z" />
<glyph unicode="&#x17e;" horiz-adv-x="872" d="M61 41v74q0 39 21 78l430 710h-397q-41 0 -41 41v80q0 41 41 41h639q41 0 41 -41v-74q0 -39 -21 -78l-428 -710h424q41 0 41 -41v-80q0 -41 -41 -41h-668q-41 0 -41 41zM154 1483q-25 33 16 33h70q41 0 69 -29l127 -127l127 127q29 29 70 29h70q41 0 16 -33l-148 -205 q-25 -33 -65 -33h-139q-41 0 -66 33z" />
<glyph unicode="&#x182;" d="M102 41v1393q0 41 41 41h785q41 0 41 -41v-103q0 -41 -41 -41h-568v-370h246q119 0 206 -39t145.5 -102.5t87 -146.5t28.5 -171q0 -98 -36 -182t-99.5 -146.5t-148 -97.5t-185.5 -35h-461q-41 0 -41 41zM360 172h177q84 0 138 24.5t85 64.5t43 92.5t12 105.5t-13.5 104 t-46 92t-86 67t-132.5 26h-177v-576z" />
<glyph unicode="&#x186;" horiz-adv-x="1308" d="M85 98.5q-1 12.5 9 40.5l33 76q8 10 23.5 9t29.5 -5q47 -12 135 -30.5t191 -18.5q92 0 174 29.5t144.5 97.5t98 176.5t35.5 263.5q0 156 -35.5 264.5t-97 176t-144.5 97.5t-175 30q-102 0 -190.5 -18.5t-135.5 -31.5q-16 -4 -30.5 -5t-22.5 10l-33 86q-10 23 -9 33t11 20 q18 14 60.5 31.5t97.5 33t119.5 25.5t132.5 10q154 0 286 -47t229 -142.5t152.5 -237.5t55.5 -335t-55.5 -335t-152.5 -237t-229.5 -142.5t-285.5 -47.5q-68 0 -132.5 10.5t-119.5 26t-97 32.5t-61 32q-10 10 -11 22.5z" />
<glyph unicode="&#x189;" horiz-adv-x="1443" d="M82 694v103q0 41 41 41h102v596q0 41 41 41h471q125 0 239 -54.5t200 -152t136 -231.5t50 -294t-53.5 -295t-144.5 -234t-214 -155.5t-262 -58.5h-422q-41 0 -41 41v612h-102q-41 0 -41 41zM483 184h203q88 0 163 43t129 120t84 180.5t30 226.5q0 119 -34 218 t-91.5 169.5t-134 109.5t-162.5 39h-187v-452h316q41 0 41 -41v-103q0 -41 -41 -41h-316v-469z" />
<glyph unicode="&#x18b;" d="M82 461q0 88 28.5 171t87 146.5t145.5 102.5t206 39h246v370h-568q-41 0 -41 41v103q0 41 41 41h785q41 0 41 -41v-1393q0 -41 -41 -41h-461q-100 0 -186 35t-148.5 97.5t-98.5 146t-36 182.5zM340 459q0 -53 12.5 -105.5t43 -92.5t85 -64.5t137.5 -24.5h177v576h-177 q-80 0 -133 -26t-85.5 -67t-46 -92t-13.5 -104z" />
<glyph unicode="&#x18e;" horiz-adv-x="989" d="M102 41v102q0 41 41 41h506v469h-403q-41 0 -41 41v103q0 41 41 41h403v452h-506q-41 0 -41 41v103q0 41 41 41h723q41 0 41 -41v-1393q0 -41 -41 -41h-723q-41 0 -41 41z" />
<glyph unicode="&#x190;" horiz-adv-x="1161" d="M82 420q0 139 77 235.5t226 118.5v4q-113 45 -174 121t-61 186q0 94 35.5 170t103 130.5t164 83t217.5 28.5q57 0 112.5 -10t102.5 -25.5t81.5 -33t51.5 -31.5q10 -10 11 -20.5t-9 -33.5l-33 -86q-4 -12 -20.5 -10t-32.5 6q-39 12 -109.5 31t-154.5 19 q-137 0 -199.5 -60.5t-62.5 -161.5q0 -57 21.5 -102t57 -77t83.5 -48t102 -16h82q41 0 41 -41v-90q0 -41 -41 -41h-136q-80 0 -133 -21.5t-85.5 -57.5t-46 -80t-13.5 -89q0 -47 13.5 -91t47 -78t91 -55.5t147.5 -21.5q45 0 96 6t100.5 13.5t88.5 15.5t59 14q16 4 32.5 6 t20.5 -10l33 -86q10 -23 9 -33t-11 -20q-18 -14 -63.5 -31.5t-105.5 -33t-129 -26t-132 -10.5q-119 0 -220.5 34t-176 93.5t-116.5 140.5t-42 175z" />
<glyph unicode="&#x191;" horiz-adv-x="989" d="M-39 -381q0 41 41 41h14q35 0 60.5 33t25.5 108v1633q0 41 41 41h723q41 0 41 -41v-103q0 -41 -41 -41h-506v-452h404q41 0 41 -41v-103q0 -41 -41 -41h-404v-846q0 -162 -71.5 -240.5t-210.5 -78.5h-76q-41 0 -41 41v90z" />
<glyph unicode="&#x192;" horiz-adv-x="604" d="M14 -381q0 41 41 41h15q35 0 66.5 33t31.5 108v1102h-107q-41 0 -41 41v80q0 41 41 41h107v131q0 162 71.5 241t211.5 79h75q41 0 41 -41v-91q0 -41 -41 -41h-14q-35 0 -66.5 -32.5t-31.5 -108.5v-137h129q41 0 41 -41v-80q0 -41 -41 -41h-129v-1096q0 -162 -72 -240.5 t-211 -78.5h-76q-41 0 -41 41v90z" />
<glyph unicode="&#x19e;" horiz-adv-x="1097" d="M102 41v983q0 41 41 41h103q23 0 30 -9t11 -32l20 -84h4q18 37 48 64.5t67 46t78 29t80 10.5q86 0 160.5 -27t130 -78t88 -126t32.5 -171v-1057q0 -41 -39 -41h-168q-39 0 -38 41v987q0 59 -9.5 113.5t-31 95.5t-57.5 66t-89 25q-215 0 -215 -320v-557q0 -41 -41 -41 h-164q-41 0 -41 41z" />
<glyph unicode="&#x19f;" horiz-adv-x="1609" d="M82 737q0 193 55.5 335t152.5 237.5t229 142.5t286 47t286 -47t229 -142.5t152.5 -237.5t55.5 -335t-55.5 -335t-152.5 -237t-229 -142.5t-286 -47.5t-286 47.5t-229 142.5t-152.5 237.5t-55.5 334.5zM354 653q10 -133 49 -224t99.5 -149.5t138.5 -84t164 -25.5 t162.5 25.5t137 84t99.5 149.5t49 224h-899zM356 838h897q-12 127 -52 216t-99.5 144t-136 81t-160.5 26q-86 0 -162 -26t-136.5 -81t-99 -144t-51.5 -216z" />
<glyph unicode="&#x1a0;" horiz-adv-x="1609" d="M82 737q0 193 55.5 335t152.5 237.5t229 142.5t286 47q184 0 334.5 -66.5t249.5 -201.5v2q51 0 77.5 61.5t26.5 149.5v51q0 20 20 21h129q20 0 21 -21v-80q0 -106 -62.5 -180t-160.5 -90q41 -84 64.5 -184.5t23.5 -223.5q0 -193 -55.5 -335t-152.5 -237t-229 -142.5 t-286 -47.5t-286 47.5t-229 142.5t-152.5 237.5t-55.5 334.5zM352 737q0 -156 36 -264t98.5 -176t144.5 -97.5t174 -29.5t174 29.5t144.5 97.5t98 176.5t35.5 263.5q0 156 -35.5 264.5t-97 176t-144.5 97.5t-175 30t-175 -30t-144.5 -97.5t-97.5 -176t-36 -264.5z" />
<glyph unicode="&#x1a1;" d="M82 530q0 115 22.5 216.5t78 178t151.5 122t244 45.5q164 0 264 -54.5t153 -146.5v2q51 0 78 49t27 121v51q0 16 5 18.5t15 2.5h88q16 0 18.5 -5.5t2.5 -15.5v-80q0 -92 -54.5 -154.5t-140.5 -76.5q23 -59 31 -129t8 -142q0 -115 -22.5 -216t-77.5 -177t-151.5 -120 t-243.5 -44t-243.5 44t-152 119t-78 176.5t-22.5 215.5zM328 532q0 -78 10 -145.5t37.5 -117.5t76 -79.5t126.5 -29.5q76 0 125 29.5t76.5 79.5t37.5 118t10 145q0 76 -10 144.5t-37.5 120t-77 81t-124.5 29.5q-78 0 -126.5 -29.5t-76 -81t-37.5 -120t-10 -144.5z" />
<glyph unicode="&#x1a7;" horiz-adv-x="1136" d="M80 383q0 68 21.5 133.5t65.5 123.5t110.5 106.5t154.5 80.5l197 74q104 41 140 89t36 104q0 33 -11.5 69.5t-42 68.5t-84 52.5t-135.5 20.5q-43 0 -92 -6.5t-94 -13.5t-82 -15t-57 -15q-16 -4 -32.5 -6t-20.5 11l-33 86q-10 25 -9 35t11 18q14 12 57 28.5t101.5 33 t127 27.5t136.5 11q102 0 192 -29.5t158 -85t107.5 -135.5t39.5 -180q0 -158 -93 -258t-242 -158l-199 -78q-78 -31 -134.5 -86t-56.5 -129q0 -86 80 -138t215 -52q45 0 96.5 6t100.5 13.5t88 15.5t59 14q16 4 33 6t21 -10l32 -86q10 -23 9.5 -33t-11.5 -20 q-18 -14 -63 -31.5t-105.5 -33t-129 -26t-132.5 -10.5q-117 0 -215 29t-167.5 82t-108.5 128t-39 169z" />
<glyph unicode="&#x1a8;" horiz-adv-x="970" d="M80 307q0 119 50 195t183 114l240 70q43 12 61.5 39t18.5 61q0 59 -40 96.5t-132 37.5q-66 0 -124 -15.5t-114 -36.5q-14 -4 -30.5 -7t-22.5 11l-43 66q-16 23 -11 35t11 18q35 35 130 68t226 33q94 0 166 -25t120 -70t72.5 -105.5t24.5 -129.5q0 -102 -50 -183 t-167 -114l-176 -53q-45 -14 -75.5 -26.5t-49 -27t-27 -32t-8.5 -41.5q0 -25 8.5 -49.5t31 -44t62.5 -32t103 -12.5q76 0 139.5 15.5t122.5 36.5q14 4 29.5 5t24.5 -9l43 -66q16 -27 -3 -53q-14 -20 -50 -39t-85 -32t-109.5 -21.5t-123.5 -8.5q-84 0 -162 20.5t-136 62.5 t-93 103.5t-35 145.5z" />
<glyph unicode="&#x1af;" horiz-adv-x="1302" d="M102 524v910q0 41 41 41h176q41 0 41 -41v-852q0 -86 18.5 -163t55.5 -134.5t91.5 -91t125.5 -33.5q86 0 151.5 32.5t109.5 90t68 134.5t24 165v852q0 41 40 41h115q41 0 41 -41v-201q51 0 78 61.5t27 149.5v51q0 20 20 21h129q20 0 21 -21v-80q0 -59 -21.5 -109.5 t-58.5 -87t-87.5 -57t-107.5 -20.5v-617q0 -119 -41 -219t-114.5 -174t-175 -115t-222.5 -41q-117 0 -217 42t-173 116t-114 174.5t-41 216.5z" />
<glyph unicode="&#x1b0;" horiz-adv-x="1097" d="M102 377v647q0 41 39 41h168q39 0 39 -41v-578q0 -59 9.5 -113t31 -95t57 -66t89.5 -25q215 0 215 320v557q0 41 41 41h163q41 0 41 -41v-131q51 0 78 49t27 121v51q0 16 5 18.5t15 2.5h88q16 0 18.5 -5.5t2.5 -15.5v-80q0 -49 -18.5 -92t-49.5 -74.5t-74 -49t-92 -17.5 v-760q0 -41 -41 -41h-102q-23 0 -30 9t-11 32l-20 84h-5q-18 -37 -47.5 -64.5t-66.5 -46t-78 -29t-80 -10.5q-86 0 -160.5 27t-130 78t-88.5 126t-33 171z" />
<glyph unicode="&#x1c3;" horiz-adv-x="450" d="M102 41v164q0 41 41 41h164q41 0 41 -41v-164q0 -41 -41 -41h-164q-41 0 -41 41zM102 492v983q0 41 41 41h164q41 0 41 -41v-983q0 -41 -41 -41h-164q-41 0 -41 41z" />
<glyph unicode="&#x1c7;" horiz-adv-x="1677" d="M102 41v1393q0 41 41 41h176q41 0 41 -41v-1250h506q41 0 41 -41v-102q0 -41 -41 -41h-723q-41 0 -41 41zM968 45v98q0 41 41 41h27q76 0 132 19.5t94 64.5t56.5 120t18.5 185v861q0 41 41 41h176q41 0 41 -41v-904q-4 -262 -141 -396t-371 -134q-35 0 -58.5 1t-19.5 1 q-37 2 -37 43z" />
<glyph unicode="&#x1c8;" horiz-adv-x="1398" d="M102 41v1393q0 41 41 41h176q41 0 41 -41v-1250h506q41 0 41 -41v-102q0 -41 -41 -41h-723q-41 0 -41 41zM938 -319q0 41 41 40h14q20 0 38.5 38t18.5 124v1141q0 41 41 41h164q41 0 41 -41v-1155q0 -162 -71.5 -241t-210.5 -79h-35q-41 0 -41 41v91zM1050 1311v164 q0 41 41 41h164q41 0 41 -41v-164q0 -41 -41 -41h-164q-41 0 -41 41z" />
<glyph unicode="&#x1c9;" horiz-adv-x="913" d="M102 319v1156q0 41 41 41h164q41 0 41 -41v-1141q0 -86 18.5 -124t39.5 -38h14q41 0 41 -41v-90q0 -41 -41 -41h-35q-139 0 -211 79t-72 240zM453 -319q0 41 41 40h14q20 0 38.5 38t18.5 124v1141q0 41 41 41h164q41 0 41 -41v-1155q0 -162 -71.5 -241t-210.5 -79h-35 q-41 0 -41 41v91zM565 1311v164q0 41 41 41h164q41 0 41 -41v-164q0 -41 -41 -41h-164q-41 0 -41 41z" />
<glyph unicode="&#x1ca;" horiz-adv-x="2031" d="M102 41v1393q0 41 41 41h144q45 0 67 -33l625 -1000h4l-20 418v574q0 41 41 41h155q41 0 41 -41v-1393q0 -41 -41 -41h-143q-45 0 -68 33l-624 999h-5l21 -418v-573q0 -41 -41 -41h-156q-41 0 -41 41zM1323 45v98q0 41 41 41h27q76 0 132 19.5t94 64.5t56.5 120t18.5 185 v861q0 41 41 41h176q41 0 41 -41v-904q-4 -262 -141 -396t-371 -134q-35 0 -58.5 1t-19.5 1q-37 2 -37 43z" />
<glyph unicode="&#x1cb;" horiz-adv-x="1753" d="M102 41v1393q0 41 41 41h144q45 0 67 -33l625 -1000h4l-20 418v574q0 41 41 41h155q41 0 41 -41v-1393q0 -41 -41 -41h-143q-45 0 -68 33l-624 999h-5l21 -418v-573q0 -41 -41 -41h-156q-41 0 -41 41zM1293 -319q0 41 41 40h14q20 0 38.5 38t18.5 124v1141q0 41 41 41 h164q41 0 41 -41v-1155q0 -162 -71.5 -241t-210.5 -79h-35q-41 0 -41 41v91zM1405 1311v164q0 41 41 41h164q41 0 41 -41v-164q0 -41 -41 -41h-164q-41 0 -41 41z" />
<glyph unicode="&#x1cc;" horiz-adv-x="1548" d="M102 41v983q0 41 41 41h103q23 0 30 -9t11 -32l20 -84h4q18 37 48 64.5t67 46t78 29t80 10.5q86 0 160.5 -27t130 -78t88 -126t32.5 -171v-647q0 -41 -39 -41h-168q-39 0 -38 41v577q0 59 -9.5 113.5t-31 95.5t-57.5 66t-89 25q-215 0 -215 -320v-557q0 -41 -41 -41h-164 q-41 0 -41 41zM1088 -319q0 41 41 40h14q20 0 38.5 38t18.5 124v1141q0 41 41 41h164q41 0 41 -41v-1155q0 -162 -71.5 -241t-210.5 -79h-35q-41 0 -41 41v91zM1200 1311v164q0 41 41 41h164q41 0 41 -41v-164q0 -41 -41 -41h-164q-41 0 -41 41z" />
<glyph unicode="&#x1cd;" horiz-adv-x="1376" d="M24.5 9q-8.5 9 2.5 28l559 1401q14 37 57 37h90q41 0 58 -37l559 -1401q18 -37 -25 -37h-195q-41 0 -55 39l-127 323h-581l-127 -323q-14 -39 -56 -39h-133q-18 0 -26.5 9zM406 1893q-25 33 16 33h70q41 0 69 -29l127 -127l127 127q29 29 70 29h70q41 0 16 -33l-148 -205 q-25 -33 -65 -33h-139q-41 0 -66 33zM434 535h447l-183 530l-41 154l-39 -154z" />
<glyph unicode="&#x1ce;" horiz-adv-x="1052" d="M82 346q0 98 34 162.5t92 102.5t136 53.5t166 15.5h211q-4 33 -15.5 74t-36 77.5t-66.5 62.5t-105 26q-49 0 -105.5 -14.5t-126.5 -37.5q-29 -10 -39 -6t-14 10l-43 66q-18 29 2 53q14 16 49 34.5t82 33t104.5 24t118.5 9.5q133 0 219 -44t136.5 -120t70 -174.5 t19.5 -208.5v-504q0 -41 -41 -41h-103q-23 0 -29.5 9t-11.5 32l-20 84h-4q-41 -74 -116 -112t-179 -38q-78 0 -147.5 22.5t-123 69t-84 116t-30.5 163.5zM244 1483q-25 33 16 33h70q41 0 69 -29l127 -127l127 127q29 29 70 29h70q41 0 16 -33l-148 -205q-25 -33 -65 -33 h-139q-41 0 -66 33zM330 352q0 -31 10 -66.5t32.5 -66.5t59.5 -51.5t92 -20.5q94 0 147.5 72t53.5 230v59h-215q-82 0 -131 -41t-49 -115z" />
<glyph unicode="&#x1cf;" horiz-adv-x="462" d="M-49 1893q-25 33 16 33h70q41 0 69 -29l127 -127l127 127q29 29 70 29h70q41 0 16 -33l-148 -205q-25 -33 -65 -33h-139q-41 0 -66 33zM102 41v1393q0 41 41 41h176q41 0 41 -41v-1393q0 -41 -41 -41h-176q-41 0 -41 41z" />
<glyph unicode="&#x1d0;" horiz-adv-x="450" d="M-55 1483q-25 33 16 33h70q41 0 69 -29l127 -127l127 127q29 29 70 29h70q41 0 16 -33l-148 -205q-25 -33 -65 -33h-139q-41 0 -66 33zM102 41v983q0 41 41 41h164q41 0 41 -41v-983q0 -41 -41 -41h-164q-41 0 -41 41z" />
<glyph unicode="&#x1d1;" horiz-adv-x="1609" d="M82 737q0 193 55.5 335t152.5 237.5t229 142.5t286 47t286 -47t229 -142.5t152.5 -237.5t55.5 -335t-55.5 -335t-152.5 -237t-229 -142.5t-286 -47.5t-286 47.5t-229 142.5t-152.5 237.5t-55.5 334.5zM352 737q0 -156 36 -264t98.5 -176t144.5 -97.5t174 -29.5t174 29.5 t144.5 97.5t98 176.5t35.5 263.5q0 156 -35.5 264.5t-97 176t-144.5 97.5t-175 30t-175 -30t-144.5 -97.5t-97.5 -176t-36 -264.5zM523 1893q-25 33 16 33h70q41 0 69 -29l127 -127l127 127q29 29 70 29h70q41 0 16 -33l-148 -205q-25 -33 -65 -33h-139q-41 0 -66 33z" />
<glyph unicode="&#x1d2;" d="M82 530q0 115 22.5 216.5t78 178t151.5 122t244 45.5q147 0 243.5 -45.5t151.5 -121t77.5 -178t22.5 -215.5q0 -115 -22.5 -216t-77.5 -177t-151.5 -120t-243.5 -44t-243.5 44t-152 119t-78 176.5t-22.5 215.5zM295 1483q-25 33 16 33h70q41 0 69 -29l127 -127l127 127 q29 29 70 29h70q41 0 16 -33l-148 -205q-25 -33 -65 -33h-139q-41 0 -66 33zM328 532q0 -78 10 -145.5t37.5 -117.5t76 -79.5t126.5 -29.5q76 0 125 29.5t76.5 79.5t37.5 118t10 145q0 76 -10 144.5t-37.5 120t-77 81t-124.5 29.5q-78 0 -126.5 -29.5t-76 -81t-37.5 -120 t-10 -144.5z" />
<glyph unicode="&#x1d3;" horiz-adv-x="1302" d="M102 524v910q0 41 41 41h176q41 0 41 -41v-852q0 -86 18.5 -163t55.5 -134.5t91.5 -91t125.5 -33.5q86 0 151.5 32.5t109.5 90t68 134.5t24 165v852q0 41 40 41h115q41 0 41 -41v-910q0 -119 -41 -219t-114.5 -174t-175 -115t-222.5 -41q-117 0 -217 42t-173 116 t-114 174.5t-41 216.5zM369 1893q-25 33 16 33h70q41 0 69 -29l127 -127l127 127q29 29 70 29h70q41 0 16 -33l-148 -205q-25 -33 -65 -33h-139q-41 0 -66 33z" />
<glyph unicode="&#x1d4;" horiz-adv-x="1097" d="M102 377v647q0 41 39 41h168q39 0 39 -41v-578q0 -59 9.5 -113t31 -95t57 -66t89.5 -25q215 0 215 320v557q0 41 41 41h163q41 0 41 -41v-983q0 -41 -41 -41h-102q-23 0 -30 9t-11 32l-20 84h-5q-18 -37 -47.5 -64.5t-66.5 -46t-78 -29t-80 -10.5q-86 0 -160.5 27 t-130 78t-88.5 126t-33 171zM267 1483q-25 33 16 33h70q41 0 69 -29l127 -127l127 127q29 29 70 29h70q41 0 16 -33l-148 -205q-25 -33 -65 -33h-139q-41 0 -66 33z" />
<glyph unicode="&#x1d5;" horiz-adv-x="1302" d="M102 524v910q0 41 41 41h176q41 0 41 -41v-852q0 -86 18.5 -163t55.5 -134.5t91.5 -91t125.5 -33.5q86 0 151.5 32.5t109.5 90t68 134.5t24 165v852q0 41 40 41h115q41 0 41 -41v-910q0 -119 -41 -219t-114.5 -174t-175 -115t-222.5 -41q-117 0 -217 42t-173 116 t-114 174.5t-41 216.5zM292 2048v62q0 41 41 41h635q41 0 41 -41v-62q0 -41 -41 -41h-635q-41 0 -41 41zM344 1700v144q0 41 41 41h144q41 0 41 -41v-144q0 -41 -41 -41h-144q-41 0 -41 41zM734 1700v144q0 41 40 41h144q41 0 41 -41v-144q0 -41 -41 -41h-144q-41 0 -40 41z " />
<glyph unicode="&#x1d6;" horiz-adv-x="1097" d="M102 377v647q0 41 39 41h168q39 0 39 -41v-578q0 -59 9.5 -113t31 -95t57 -66t89.5 -25q215 0 215 320v557q0 41 41 41h163q41 0 41 -41v-983q0 -41 -41 -41h-102q-23 0 -30 9t-11 32l-20 84h-5q-18 -37 -47.5 -64.5t-66.5 -46t-78 -29t-80 -10.5q-86 0 -160.5 27 t-130 78t-88.5 126t-33 171zM190 1638v62q0 41 41 41h635q41 0 41 -41v-62q0 -41 -41 -41h-635q-41 0 -41 41zM241 1290v144q0 41 41 41h144q41 0 41 -41v-144q0 -41 -41 -41h-144q-41 0 -41 41zM631 1290v144q0 41 40 41h144q41 0 41 -41v-144q0 -41 -41 -41h-144 q-41 0 -40 41z" />
<glyph unicode="&#x1d7;" horiz-adv-x="1302" d="M102 524v910q0 41 41 41h176q41 0 41 -41v-852q0 -86 18.5 -163t55.5 -134.5t91.5 -91t125.5 -33.5q86 0 151.5 32.5t109.5 90t68 134.5t24 165v852q0 41 40 41h115q41 0 41 -41v-910q0 -119 -41 -219t-114.5 -174t-175 -115t-222.5 -41q-117 0 -217 42t-173 116 t-114 174.5t-41 216.5zM344 1700v144q0 41 41 41h144q41 0 41 -41v-144q0 -41 -41 -41h-144q-41 0 -41 41zM598 1997l122 201q23 35 64 35h186q41 0 11 -29l-228 -213q-31 -29 -71 -29h-64q-41 0 -20 35zM734 1700v144q0 41 40 41h144q41 0 41 -41v-144q0 -41 -41 -41h-144 q-41 0 -40 41z" />
<glyph unicode="&#x1d8;" horiz-adv-x="1097" d="M102 377v647q0 41 39 41h168q39 0 39 -41v-578q0 -59 9.5 -113t31 -95t57 -66t89.5 -25q215 0 215 320v557q0 41 41 41h163q41 0 41 -41v-983q0 -41 -41 -41h-102q-23 0 -30 9t-11 32l-20 84h-5q-18 -37 -47.5 -64.5t-66.5 -46t-78 -29t-80 -10.5q-86 0 -160.5 27 t-130 78t-88.5 126t-33 171zM241 1290v144q0 41 41 41h144q41 0 41 -41v-144q0 -41 -41 -41h-144q-41 0 -41 41zM498 1587l122 201q23 35 64 35h186q41 0 11 -29l-228 -213q-31 -29 -71 -29h-64q-41 0 -20 35zM631 1290v144q0 41 40 41h144q41 0 41 -41v-144q0 -41 -41 -41 h-144q-41 0 -40 41z" />
<glyph unicode="&#x1d9;" horiz-adv-x="1302" d="M102 524v910q0 41 41 41h176q41 0 41 -41v-852q0 -86 18.5 -163t55.5 -134.5t91.5 -91t125.5 -33.5q86 0 151.5 32.5t109.5 90t68 134.5t24 165v852q0 41 40 41h115q41 0 41 -41v-910q0 -119 -41 -219t-114.5 -174t-175 -115t-222.5 -41q-117 0 -217 42t-173 116 t-114 174.5t-41 216.5zM344 1700v144q0 41 41 41h144q41 0 41 -41v-144q0 -41 -41 -41h-144q-41 0 -41 41zM369 2200q-25 33 16 33h70q41 0 69 -29l127 -127l127 127q29 29 70 29h70q41 0 16 -33l-148 -205q-25 -33 -65 -33h-139q-41 0 -66 33zM734 1700v144q0 41 40 41h144 q41 0 41 -41v-144q0 -41 -41 -41h-144q-41 0 -40 41z" />
<glyph unicode="&#x1da;" horiz-adv-x="1097" d="M102 377v647q0 41 39 41h168q39 0 39 -41v-578q0 -59 9.5 -113t31 -95t57 -66t89.5 -25q215 0 215 320v557q0 41 41 41h163q41 0 41 -41v-983q0 -41 -41 -41h-102q-23 0 -30 9t-11 32l-20 84h-5q-18 -37 -47.5 -64.5t-66.5 -46t-78 -29t-80 -10.5q-86 0 -160.5 27 t-130 78t-88.5 126t-33 171zM241 1290v144q0 41 41 41h144q41 0 41 -41v-144q0 -41 -41 -41h-144q-41 0 -41 41zM267 1790q-25 33 16 33h70q41 0 69 -29l127 -127l127 127q29 29 70 29h70q41 0 16 -33l-148 -205q-25 -33 -65 -33h-139q-41 0 -66 33zM631 1290v144 q0 41 40 41h144q41 0 41 -41v-144q0 -41 -41 -41h-144q-41 0 -40 41z" />
<glyph unicode="&#x1db;" horiz-adv-x="1302" d="M102 524v910q0 41 41 41h176q41 0 41 -41v-852q0 -86 18.5 -163t55.5 -134.5t91.5 -91t125.5 -33.5q86 0 151.5 32.5t109.5 90t68 134.5t24 165v852q0 41 40 41h115q41 0 41 -41v-910q0 -119 -41 -219t-114.5 -174t-175 -115t-222.5 -41q-117 0 -217 42t-173 116 t-114 174.5t-41 216.5zM322 2204q-31 29 10 29h186q41 0 64 -35l123 -201q20 -35 -21 -35h-63q-41 0 -72 29zM344 1700v144q0 41 41 41h144q41 0 41 -41v-144q0 -41 -41 -41h-144q-41 0 -41 41zM734 1700v144q0 41 40 41h144q41 0 41 -41v-144q0 -41 -41 -41h-144 q-41 0 -40 41z" />
<glyph unicode="&#x1dc;" horiz-adv-x="1097" d="M102 377v647q0 41 39 41h168q39 0 39 -41v-578q0 -59 9.5 -113t31 -95t57 -66t89.5 -25q215 0 215 320v557q0 41 41 41h163q41 0 41 -41v-983q0 -41 -41 -41h-102q-23 0 -30 9t-11 32l-20 84h-5q-18 -37 -47.5 -64.5t-66.5 -46t-78 -29t-80 -10.5q-86 0 -160.5 27 t-130 78t-88.5 126t-33 171zM221 1794q-31 29 10 29h186q41 0 64 -35l123 -201q20 -35 -21 -35h-63q-41 0 -72 29zM241 1290v144q0 41 41 41h144q41 0 41 -41v-144q0 -41 -41 -41h-144q-41 0 -41 41zM631 1290v144q0 41 40 41h144q41 0 41 -41v-144q0 -41 -41 -41h-144 q-41 0 -40 41z" />
<glyph unicode="&#x1dd;" horiz-adv-x="1056" d="M82 416q0 59 11 98t37 62.5t69 34t106 10.5h420q-6 63 -21.5 118.5t-46 95t-76.5 62.5t-114 23q-59 0 -118.5 -15.5t-123.5 -36.5q-31 -10 -40 -6t-13 10l-43 66q-18 29 2 53q14 16 48 34.5t82 33t107.5 24t125.5 9.5q141 0 234 -45.5t148.5 -121t77 -175t21.5 -205.5 q0 -119 -24.5 -222.5t-79 -180t-140.5 -122t-211 -45.5q-92 0 -173 27t-139 82t-92 138t-34 194zM330 379q0 -45 13 -87t36.5 -74t56.5 -51.5t74 -19.5q55 0 94 25t64.5 66t39 95t17.5 116h-315q-47 0 -63.5 -11.5t-16.5 -58.5z" />
<glyph unicode="&#x1de;" horiz-adv-x="1376" d="M24.5 9q-8.5 9 2.5 28l559 1401q14 37 57 37h90q41 0 58 -37l559 -1401q18 -37 -25 -37h-195q-41 0 -55 39l-127 323h-581l-127 -323q-14 -39 -56 -39h-133q-18 0 -26.5 9zM329 2048v62q0 41 41 41h635q41 0 41 -41v-62q0 -41 -41 -41h-635q-41 0 -41 41zM381 1700v144 q0 41 41 41h144q41 0 41 -41v-144q0 -41 -41 -41h-144q-41 0 -41 41zM434 535h447l-183 530l-41 154l-39 -154zM771 1700v144q0 41 40 41h144q41 0 41 -41v-144q0 -41 -41 -41h-144q-41 0 -40 41z" />
<glyph unicode="&#x1df;" horiz-adv-x="1052" d="M82 346q0 98 34 162.5t92 102.5t136 53.5t166 15.5h211q-4 33 -15.5 74t-36 77.5t-66.5 62.5t-105 26q-49 0 -105.5 -14.5t-126.5 -37.5q-29 -10 -39 -6t-14 10l-43 66q-18 29 2 53q14 16 49 34.5t82 33t104.5 24t118.5 9.5q133 0 219 -44t136.5 -120t70 -174.5 t19.5 -208.5v-504q0 -41 -41 -41h-103q-23 0 -29.5 9t-11.5 32l-20 84h-4q-41 -74 -116 -112t-179 -38q-78 0 -147.5 22.5t-123 69t-84 116t-30.5 163.5zM168 1638v62q0 41 41 41h635q41 0 41 -41v-62q0 -41 -41 -41h-635q-41 0 -41 41zM219 1290v144q0 41 41 41h144 q41 0 41 -41v-144q0 -41 -41 -41h-144q-41 0 -41 41zM330 352q0 -31 10 -66.5t32.5 -66.5t59.5 -51.5t92 -20.5q94 0 147.5 72t53.5 230v59h-215q-82 0 -131 -41t-49 -115zM609 1290v144q0 41 40 41h144q41 0 41 -41v-144q0 -41 -41 -41h-144q-41 0 -40 41z" />
<glyph unicode="&#x1e0;" horiz-adv-x="1376" d="M24.5 9q-8.5 9 2.5 28l559 1401q14 37 57 37h90q41 0 58 -37l559 -1401q18 -37 -25 -37h-195q-41 0 -55 39l-127 323h-581l-127 -323q-14 -39 -56 -39h-133q-18 0 -26.5 9zM329 2048v62q0 41 41 41h635q41 0 41 -41v-62q0 -41 -41 -41h-635q-41 0 -41 41zM434 535h447 l-183 530l-41 154l-39 -154zM565 1721v164q0 41 41 41h164q41 0 41 -41v-164q0 -41 -41 -41h-164q-41 0 -41 41z" />
<glyph unicode="&#x1e1;" horiz-adv-x="1052" d="M82 346q0 98 34 162.5t92 102.5t136 53.5t166 15.5h211q-4 33 -15.5 74t-36 77.5t-66.5 62.5t-105 26q-49 0 -105.5 -14.5t-126.5 -37.5q-29 -10 -39 -6t-14 10l-43 66q-18 29 2 53q14 16 49 34.5t82 33t104.5 24t118.5 9.5q133 0 219 -44t136.5 -120t70 -174.5 t19.5 -208.5v-504q0 -41 -41 -41h-103q-23 0 -29.5 9t-11.5 32l-20 84h-4q-41 -74 -116 -112t-179 -38q-78 0 -147.5 22.5t-123 69t-84 116t-30.5 163.5zM168 1638v62q0 41 41 41h635q41 0 41 -41v-62q0 -41 -41 -41h-635q-41 0 -41 41zM330 352q0 -31 10 -66.5t32.5 -66.5 t59.5 -51.5t92 -20.5q94 0 147.5 72t53.5 230v59h-215q-82 0 -131 -41t-49 -115zM403 1311v164q0 41 41 41h164q41 0 41 -41v-164q0 -41 -41 -41h-164q-41 0 -41 41z" />
<glyph unicode="&#x1e2;" horiz-adv-x="1468" d="M27 37l559 1401q14 37 57 37h703q41 0 40 -41v-103q0 -41 -40 -41h-404v-452h301q41 0 41 -41v-103q0 -41 -41 -41h-301v-469h404q41 0 40 -41v-102q0 -41 -40 -41h-621q-41 0 -41 41v321h-317l-127 -323q-14 -39 -56 -39h-133q-41 0 -24 37zM374 1741v62q0 41 41 41h635 q41 0 41 -41v-62q0 -41 -41 -41h-635q-41 0 -41 41zM434 535h250v684h-27l-39 -154z" />
<glyph unicode="&#x1e3;" horiz-adv-x="1691" d="M82 346q0 98 34 162.5t92 102.5t136 53.5t166 15.5h211q-4 33 -15.5 74t-36 77.5t-66.5 62.5t-105 26q-49 0 -105.5 -14.5t-126.5 -37.5q-29 -10 -39 -6t-14 10l-43 66q-18 29 2 53q14 16 49 34.5t82 33t104.5 24t118.5 9.5q117 0 195 -34t131 -93q53 59 132 93t187 34 q92 0 173 -27t139.5 -82t92.5 -138t34 -194q0 -59 -11.5 -98t-37 -62.5t-68.5 -34t-107 -10.5h-419q6 -66 21.5 -120t46 -93.5t76.5 -62.5t114 -23q59 0 118.5 15.5t122.5 36.5q31 10 40.5 6t13.5 -10l43 -66q18 -29 -2 -53q-14 -16 -48 -34.5t-82.5 -33t-107.5 -24 t-125 -9.5q-133 0 -222 39t-145 105q-55 -66 -144 -105t-220 -39q-78 0 -147.5 22.5t-123 69t-84 116t-30.5 163.5zM330 352q0 -31 10 -66.5t32.5 -66.5t59.5 -51.5t92 -20.5q94 0 147.5 72t53.5 230v59h-215q-82 0 -131 -41t-49 -115zM487 1331v62q0 41 41 41h635 q41 0 41 -41v-62q0 -41 -41 -41h-635q-41 0 -41 41zM967 618h315q47 0 63.5 11.5t16.5 58.5q0 45 -13.5 87t-37 74t-56 51.5t-73.5 19.5q-55 0 -94 -25t-65 -66t-39 -95t-17 -116z" />
<glyph unicode="&#x1e4;" horiz-adv-x="1435" d="M82 737q0 193 55.5 335t152.5 237.5t229 142.5t286 47q68 0 132 -10t119.5 -25.5t97.5 -33t60 -31.5q10 -10 11.5 -20.5t-8.5 -32.5l-33 -76q-8 -10 -22.5 -9t-31.5 5q-47 12 -135 30.5t-190 18.5q-92 0 -175 -31t-144.5 -99.5t-97.5 -178t-36 -269.5t36 -269.5 t98.5 -178t144.5 -99t174 -30.5q84 0 162 12v197h-240q-41 0 -41 41v61q0 41 41 41h240v141h-181q-41 0 -41 41v103q0 41 41 41h398q41 0 41 -41v-285h137q41 0 41 -41v-61q0 -41 -41 -41h-137v-265q2 -18 -11 -28q-18 -14 -60 -31.5t-97.5 -33t-120 -26t-131.5 -10.5 q-154 0 -286 47.5t-229 142.5t-152.5 237.5t-55.5 334.5z" />
<glyph unicode="&#x1e5;" horiz-adv-x="1189" d="M82 537q0 158 35 264t94 170.5t138 92.5t167 28q117 0 208 -37t155 -117h4l20 86q4 23 11.5 32t29.5 9h103q41 0 40 -41v-963q0 -39 -4 -73.5t-10 -69.5h119q41 0 41 -41v-61q0 -41 -41 -41h-170q-61 -117 -171 -180.5t-253 -63.5q-66 0 -133.5 10t-128 25.5t-105.5 33 t-63 31.5q-10 10 -11 20.5t9 33.5l33 86q4 12 20.5 10t32.5 -6q20 -6 59 -14.5t88.5 -15.5t100.5 -13t96 -6q80 0 141 49h-180q-41 0 -41 41v61q0 41 41 41h268q16 59 17 121v86h-4q-39 -59 -112 -104.5t-204 -45.5q-90 0 -170 28t-139 93.5t-95 173t-36 267.5zM328 537 q0 -121 16 -197t46 -119t72 -58.5t95 -15.5q135 0 210 90.5t75 299.5q0 205 -73 294t-210 89q-55 0 -99 -16.5t-73 -59.5t-44 -117t-15 -190z" />
<glyph unicode="&#x1e6;" horiz-adv-x="1329" d="M82 737q0 193 55.5 335t152.5 237.5t229 142.5t286 47q68 0 132 -10t119.5 -25.5t97.5 -33t60 -31.5q10 -10 11.5 -20.5t-8.5 -32.5l-33 -76q-8 -10 -22.5 -9t-31.5 5q-47 12 -135 30.5t-190 18.5q-92 0 -175 -31t-144.5 -99.5t-97.5 -178t-36 -269.5t36 -269.5 t98.5 -178t144.5 -99t174 -30.5q84 0 162 12v481h-181q-41 0 -41 41v103q0 41 41 41h398q41 0 41 -41v-693q2 -18 -11 -28q-18 -14 -60 -31.5t-97.5 -33t-120 -26t-131.5 -10.5q-154 0 -286 47.5t-229 142.5t-152.5 237.5t-55.5 334.5zM488 1893q-25 33 16 33h70 q41 0 69 -29l127 -127l127 127q29 29 70 29h70q41 0 16 -33l-148 -205q-25 -33 -65 -33h-139q-41 0 -66 33z" />
<glyph unicode="&#x1e7;" horiz-adv-x="1189" d="M82 537q0 158 35 264t94 170.5t138 92.5t167 28q117 0 208 -37t155 -117h4l20 86q4 23 11.5 32t29.5 9h103q41 0 40 -41v-963q0 -121 -35.5 -219t-100 -167.5t-154.5 -106.5t-199 -37q-66 0 -133.5 10t-128 25.5t-105.5 33t-63 31.5q-10 10 -11 20.5t9 33.5l33 86 q4 12 20.5 10t32.5 -6q20 -6 59 -14.5t88.5 -15.5t100.5 -13t96 -6q55 0 100 22.5t78 64.5t50.5 99t17.5 127v86h-4q-39 -59 -112 -104.5t-204 -45.5q-90 0 -170 28t-139 93.5t-95 173t-36 267.5zM283 1483q-25 33 16 33h70q41 0 69 -29l127 -127l127 127q29 29 70 29h70 q41 0 16 -33l-148 -205q-25 -33 -65 -33h-139q-41 0 -66 33zM328 537q0 -121 16 -197t46 -119t72 -58.5t95 -15.5q135 0 210 90.5t75 299.5q0 205 -73 294t-210 89q-55 0 -99 -16.5t-73 -59.5t-44 -117t-15 -190z" />
<glyph unicode="&#x1e8;" horiz-adv-x="1304" d="M102 41v1393q0 41 41 41h176q41 0 41 -41v-631l508 639q25 33 66 33h211q41 0 16 -33l-571 -686l588 -723q25 -33 -17 -33h-241q-41 0 -66 33l-494 637v-629q0 -41 -41 -41h-176q-41 0 -41 41zM326 1893q-25 33 16 33h70q41 0 69 -29l127 -127l127 127q29 29 70 29h70 q41 0 16 -33l-148 -205q-25 -33 -65 -33h-139q-41 0 -66 33z" />
<glyph unicode="&#x1e9;" horiz-adv-x="997" d="M102 41v1434q0 41 41 41h162q41 0 41 -41v-877l344 434q25 33 66 33h170q45 0 16 -33l-407 -481l430 -518q29 -33 -17 -33h-200q-41 0 -66 33l-336 432v-424q0 -41 -41 -41h-162q-41 0 -41 41zM215 1893q-25 33 16 33h70q41 0 69 -29l127 -127l127 127q29 29 70 29h70 q41 0 16 -33l-148 -205q-25 -33 -65 -33h-139q-41 0 -66 33z" />
<glyph unicode="&#x1ea;" horiz-adv-x="1609" d="M82 737q0 193 55.5 335t152.5 237.5t229 142.5t286 47t286 -47t229 -142.5t152.5 -237.5t55.5 -335q0 -160 -39 -286.5t-109.5 -219t-168 -150.5t-214.5 -85l-71 -115q-31 -51 -31 -88q0 -43 41 -43q10 0 17.5 5t15.5 9q18 16 30.5 5t18.5 -27q4 -10 8 -20.5t8 -20.5 q6 -23 -1 -28t-25 -21q-14 -10 -51 -29.5t-87 -23.5q-78 4 -118.5 38.5t-40.5 106.5q0 33 12 80t47 94l41 57h-6q-154 0 -286 47.5t-229 142.5t-152.5 237.5t-55.5 334.5zM352 737q0 -156 36 -264t98.5 -176t144.5 -97.5t174 -29.5t174 29.5t144.5 97.5t98 176.5t35.5 263.5 q0 156 -35.5 264.5t-97 176t-144.5 97.5t-175 30t-175 -30t-144.5 -97.5t-97.5 -176t-36 -264.5z" />
<glyph unicode="&#x1eb;" d="M82 530q0 115 22.5 216.5t78 178t151.5 122t244 45.5q147 0 243.5 -45.5t151.5 -121t77.5 -178t22.5 -215.5q0 -94 -14.5 -179t-50 -154.5t-95 -120.5t-149.5 -78l-76 -119q-31 -51 -31 -88q0 -43 41 -43q10 0 17.5 5t15.5 9q18 16 30.5 5t18.5 -27q4 -10 8.5 -20.5 t8.5 -20.5q6 -23 -1.5 -28t-25.5 -21q-14 -10 -51 -29.5t-86 -23.5q-78 4 -119 38.5t-41 106.5q0 33 12.5 80t46.5 94l41 57q-145 0 -240 44t-150.5 120t-78 176.5t-22.5 214.5zM328 532q0 -78 10 -145.5t37.5 -117.5t76 -79.5t126.5 -29.5q76 0 125 29.5t76.5 79.5 t37.5 118t10 145q0 76 -10 144.5t-37.5 120t-77 81t-124.5 29.5q-78 0 -126.5 -29.5t-76 -81t-37.5 -120t-10 -144.5z" />
<glyph unicode="&#x1ec;" horiz-adv-x="1609" d="M82 737q0 193 55.5 335t152.5 237.5t229 142.5t286 47t286 -47t229 -142.5t152.5 -237.5t55.5 -335q0 -160 -39 -286.5t-109.5 -219t-168 -150.5t-214.5 -85l-71 -115q-31 -51 -31 -88q0 -43 41 -43q10 0 17.5 5t15.5 9q18 16 30.5 5t18.5 -27q4 -10 8 -20.5t8 -20.5 q6 -23 -1 -28t-25 -21q-14 -10 -51 -29.5t-87 -23.5q-78 4 -118.5 38.5t-40.5 106.5q0 33 12 80t47 94l41 57h-6q-154 0 -286 47.5t-229 142.5t-152.5 237.5t-55.5 334.5zM352 737q0 -156 36 -264t98.5 -176t144.5 -97.5t174 -29.5t174 29.5t144.5 97.5t98 176.5t35.5 263.5 q0 156 -35.5 264.5t-97 176t-144.5 97.5t-175 30t-175 -30t-144.5 -97.5t-97.5 -176t-36 -264.5zM446 1741v62q0 41 41 41h635q41 0 41 -41v-62q0 -41 -41 -41h-635q-41 0 -41 41z" />
<glyph unicode="&#x1ed;" d="M82 530q0 115 22.5 216.5t78 178t151.5 122t244 45.5q147 0 243.5 -45.5t151.5 -121t77.5 -178t22.5 -215.5q0 -94 -14.5 -179t-50 -154.5t-95 -120.5t-149.5 -78l-76 -119q-31 -51 -31 -88q0 -43 41 -43q10 0 17.5 5t15.5 9q18 16 30.5 5t18.5 -27q4 -10 8.5 -20.5 t8.5 -20.5q6 -23 -1.5 -28t-25.5 -21q-14 -10 -51 -29.5t-86 -23.5q-78 4 -119 38.5t-41 106.5q0 33 12.5 80t46.5 94l41 57q-145 0 -240 44t-150.5 120t-78 176.5t-22.5 214.5zM219 1331v62q0 41 41 41h635q41 0 41 -41v-62q0 -41 -41 -41h-635q-41 0 -41 41zM328 532 q0 -78 10 -145.5t37.5 -117.5t76 -79.5t126.5 -29.5q76 0 125 29.5t76.5 79.5t37.5 118t10 145q0 76 -10 144.5t-37.5 120t-77 81t-124.5 29.5q-78 0 -126.5 -29.5t-76 -81t-37.5 -120t-10 -144.5z" />
<glyph unicode="&#x1f0;" horiz-adv-x="450" d="M-55 1483q-25 33 16 33h70q41 0 69 -29l127 -127l127 127q29 29 70 29h70q41 0 16 -33l-148 -205q-25 -33 -65 -33h-139q-41 0 -66 33zM-10 -319q0 41 41 40h14q20 0 38.5 38t18.5 124v1141q0 41 41 41h164q41 0 41 -41v-1155q0 -162 -71.5 -241t-210.5 -79h-35 q-41 0 -41 41v91z" />
<glyph unicode="&#x1f1;" horiz-adv-x="2316" d="M102 41v1393q0 41 41 41h471q125 0 239 -54.5t200 -152t136 -231.5t50 -294t-53 -295t-144.5 -234t-214 -155.5t-262.5 -58.5h-422q-41 0 -41 41zM360 184h203q88 0 163 43t129 120t84 180.5t30 226.5q0 119 -34 218t-91.5 169.5t-134 109.5t-162.5 39h-187v-1106z M1341 41v74q0 39 21 78l621 1097h-588q-41 0 -41 41v103q0 41 41 41h844q41 0 40 -41v-74q0 -39 -20 -78l-619 -1098h615q41 0 41 -41v-102q0 -41 -41 -41h-873q-41 0 -41 41z" />
<glyph unicode="&#x1f2;" horiz-adv-x="2193" d="M102 41v1393q0 41 41 41h471q125 0 239 -54.5t200 -152t136 -231.5t50 -294t-53 -295t-144.5 -234t-214 -155.5t-262.5 -58.5h-422q-41 0 -41 41zM360 184h203q88 0 163 43t129 120t84 180.5t30 226.5q0 119 -34 218t-91.5 169.5t-134 109.5t-162.5 39h-187v-1106z M1382 41v74q0 39 21 78l430 710h-397q-41 0 -41 41v80q0 41 41 41h639q41 0 41 -41v-74q0 -39 -21 -78l-428 -710h424q41 0 41 -41v-80q0 -41 -41 -41h-668q-41 0 -41 41z" />
<glyph unicode="&#x1f3;" horiz-adv-x="2062" d="M82 528q0 160 36 267.5t95 173t139 93.5t170 28q131 0 204 -45.5t112 -104.5h4v535q0 41 41 41h164q41 0 40 -41v-1434q0 -41 -40 -41h-103q-23 0 -30 9t-11 32l-20 86h-4q-63 -80 -154.5 -117t-208.5 -37q-88 0 -167 28t-138 92.5t-94 171t-35 263.5zM328 528 q0 -117 15 -190.5t44 -116.5t73 -59.5t99 -16.5q137 0 210 89.5t73 293.5q0 209 -75 299.5t-210 90.5q-53 0 -95 -16.5t-72 -59.5t-46 -119t-16 -195zM1251 41v74q0 39 21 78l430 710h-397q-41 0 -41 41v80q0 41 41 41h639q41 0 41 -41v-74q0 -39 -21 -78l-428 -710h424 q41 0 41 -41v-80q0 -41 -41 -41h-668q-41 0 -41 41z" />
<glyph unicode="&#x1f4;" horiz-adv-x="1329" d="M82 737q0 193 55.5 335t152.5 237.5t229 142.5t286 47q68 0 132 -10t119.5 -25.5t97.5 -33t60 -31.5q10 -10 11.5 -20.5t-8.5 -32.5l-33 -76q-8 -10 -22.5 -9t-31.5 5q-47 12 -135 30.5t-190 18.5q-92 0 -175 -31t-144.5 -99.5t-97.5 -178t-36 -269.5t36 -269.5 t98.5 -178t144.5 -99t174 -30.5q84 0 162 12v481h-181q-41 0 -41 41v103q0 41 41 41h398q41 0 41 -41v-693q2 -18 -11 -28q-18 -14 -60 -31.5t-97.5 -33t-120 -26t-131.5 -10.5q-154 0 -286 47.5t-229 142.5t-152.5 237.5t-55.5 334.5zM672 1690l122 201q23 35 64 35h186 q41 0 11 -29l-228 -213q-31 -29 -71 -29h-64q-41 0 -20 35z" />
<glyph unicode="&#x1f5;" horiz-adv-x="1189" d="M82 537q0 158 35 264t94 170.5t138 92.5t167 28q117 0 208 -37t155 -117h4l20 86q4 23 11.5 32t29.5 9h103q41 0 40 -41v-963q0 -121 -35.5 -219t-100 -167.5t-154.5 -106.5t-199 -37q-66 0 -133.5 10t-128 25.5t-105.5 33t-63 31.5q-10 10 -11 20.5t9 33.5l33 86 q4 12 20.5 10t32.5 -6q20 -6 59 -14.5t88.5 -15.5t100.5 -13t96 -6q55 0 100 22.5t78 64.5t50.5 99t17.5 127v86h-4q-39 -59 -112 -104.5t-204 -45.5q-90 0 -170 28t-139 93.5t-95 173t-36 267.5zM328 537q0 -121 16 -197t46 -119t72 -58.5t95 -15.5q135 0 210 90.5 t75 299.5q0 205 -73 294t-210 89q-55 0 -99 -16.5t-73 -59.5t-44 -117t-15 -190zM490 1280l122 201q23 35 64 35h186q41 0 11 -29l-228 -213q-31 -29 -71 -29h-64q-41 0 -20 35z" />
<glyph unicode="&#x1f8;" horiz-adv-x="1302" d="M102 41v1393q0 41 41 41h144q45 0 67 -33l625 -1000h4l-20 418v574q0 41 41 41h155q41 0 41 -41v-1393q0 -41 -41 -41h-143q-45 0 -68 33l-624 999h-5l21 -418v-573q0 -41 -41 -41h-156q-41 0 -41 41zM359 1897q-31 29 10 29h186q41 0 64 -35l123 -201q20 -35 -21 -35 h-63q-41 0 -72 29z" />
<glyph unicode="&#x1f9;" horiz-adv-x="1097" d="M102 41v983q0 41 41 41h103q23 0 30 -9t11 -32l20 -84h4q18 37 48 64.5t67 46t78 29t80 10.5q86 0 160.5 -27t130 -78t88 -126t32.5 -171v-647q0 -41 -39 -41h-168q-39 0 -38 41v577q0 59 -9.5 113.5t-31 95.5t-57.5 66t-89 25q-215 0 -215 -320v-557q0 -41 -41 -41h-164 q-41 0 -41 41zM269 1487q-31 29 10 29h186q41 0 64 -35l123 -201q20 -35 -21 -35h-63q-41 0 -72 29z" />
<glyph unicode="&#x1fa;" horiz-adv-x="1376" d="M24.5 9q-8.5 9 2.5 28l559 1401q14 37 57 37h90q41 0 58 -37l559 -1401q18 -37 -25 -37h-195q-41 0 -55 39l-127 323h-581l-127 -323q-14 -39 -56 -39h-133q-18 0 -26.5 9zM434 535h447l-183 530l-41 154l-39 -154zM497 1778q0 39 15.5 74t41 61.5t60.5 41t74 14.5 q82 0 136 -54.5t54 -136.5q0 -39 -14 -73.5t-41 -60.5t-61.5 -41t-73.5 -15q-37 0 -72 15t-61.5 41t-42 60.5t-15.5 73.5zM583 1778q0 -41 32 -72.5t73 -31.5t72.5 28.5t31.5 75.5q0 45 -28.5 75t-75.5 30t-76 -32t-29 -73zM631 2099l122 201q23 35 64 35h186q41 0 11 -29 l-228 -213q-31 -29 -71 -29h-64q-41 0 -20 35z" />
<glyph unicode="&#x1fb;" horiz-adv-x="1052" d="M82 346q0 98 34 162.5t92 102.5t136 53.5t166 15.5h211q-4 33 -15.5 74t-36 77.5t-66.5 62.5t-105 26q-49 0 -105.5 -14.5t-126.5 -37.5q-29 -10 -39 -6t-14 10l-43 66q-18 29 2 53q14 16 49 34.5t82 33t104.5 24t118.5 9.5q133 0 219 -44t136.5 -120t70 -174.5 t19.5 -208.5v-504q0 -41 -41 -41h-103q-23 0 -29.5 9t-11.5 32l-20 84h-4q-41 -74 -116 -112t-179 -38q-78 0 -147.5 22.5t-123 69t-84 116t-30.5 163.5zM330 352q0 -31 10 -66.5t32.5 -66.5t59.5 -51.5t92 -20.5q94 0 147.5 72t53.5 230v59h-215q-82 0 -131 -41t-49 -115z M335 1368q0 39 15.5 74t41 61.5t60.5 41t74 14.5q82 0 136 -54.5t54 -136.5q0 -39 -14 -73.5t-41 -60.5t-61.5 -41t-73.5 -15q-37 0 -72 15t-61.5 41t-42 60.5t-15.5 73.5zM421 1368q0 -41 32 -72.5t73 -31.5t72.5 28.5t31.5 75.5q0 45 -28.5 75t-75.5 30t-76 -32t-29 -73z M484 1690l122 201q23 35 64 35h186q41 0 11 -29l-228 -213q-31 -29 -71 -29h-64q-41 0 -20 35z" />
<glyph unicode="&#x1fc;" horiz-adv-x="1468" d="M27 37l559 1401q14 37 57 37h703q41 0 40 -41v-103q0 -41 -40 -41h-404v-452h301q41 0 41 -41v-103q0 -41 -41 -41h-301v-469h404q41 0 40 -41v-102q0 -41 -40 -41h-621q-41 0 -41 41v321h-317l-127 -323q-14 -39 -56 -39h-133q-41 0 -24 37zM434 535h250v684h-27 l-39 -154zM781 1690l122 201q23 35 64 35h186q41 0 11 -29l-228 -213q-31 -29 -71 -29h-64q-41 0 -20 35z" />
<glyph unicode="&#x1fd;" horiz-adv-x="1691" d="M82 346q0 98 34 162.5t92 102.5t136 53.5t166 15.5h211q-4 33 -15.5 74t-36 77.5t-66.5 62.5t-105 26q-49 0 -105.5 -14.5t-126.5 -37.5q-29 -10 -39 -6t-14 10l-43 66q-18 29 2 53q14 16 49 34.5t82 33t104.5 24t118.5 9.5q117 0 195 -34t131 -93q53 59 132 93t187 34 q92 0 173 -27t139.5 -82t92.5 -138t34 -194q0 -59 -11.5 -98t-37 -62.5t-68.5 -34t-107 -10.5h-419q6 -66 21.5 -120t46 -93.5t76.5 -62.5t114 -23q59 0 118.5 15.5t122.5 36.5q31 10 40.5 6t13.5 -10l43 -66q18 -29 -2 -53q-14 -16 -48 -34.5t-82.5 -33t-107.5 -24 t-125 -9.5q-133 0 -222 39t-145 105q-55 -66 -144 -105t-220 -39q-78 0 -147.5 22.5t-123 69t-84 116t-30.5 163.5zM330 352q0 -31 10 -66.5t32.5 -66.5t59.5 -51.5t92 -20.5q94 0 147.5 72t53.5 230v59h-215q-82 0 -131 -41t-49 -115zM773 1280l122 201q23 35 64 35h186 q41 0 11 -29l-228 -213q-31 -29 -71 -29h-64q-41 0 -20 35zM967 618h315q47 0 63.5 11.5t16.5 58.5q0 45 -13.5 87t-37 74t-56 51.5t-73.5 19.5q-55 0 -94 -25t-65 -66t-39 -95t-17 -116z" />
<glyph unicode="&#x1fe;" horiz-adv-x="1609" d="M82 737q0 193 55.5 335t152.5 237.5t229 142.5t286 47q123 0 229.5 -29.5t196.5 -89.5l57 68q27 33 60 6l77 -65q33 -27 5 -60l-62 -74q76 -94 118 -223t42 -295q0 -193 -55.5 -335t-152.5 -237t-229.5 -142.5t-285.5 -47.5q-123 0 -229.5 30t-196.5 89l-57 -67 q-27 -33 -60 -7l-78 66q-33 27 -4 59l62 72q-76 94 -118 223t-42 297zM352 737q0 -195 58 -321l677 794q-59 49 -130.5 72t-151.5 23q-92 0 -175 -30t-144.5 -97.5t-97.5 -176t-36 -264.5zM522 262q59 -49 131 -70.5t152 -21.5q92 0 174 29.5t144.5 97.5t98 176.5 t35.5 263.5q0 100 -14 179t-43 143zM705 1690l122 201q23 35 64 35h186q41 0 11 -29l-228 -213q-31 -29 -71 -29h-64q-41 0 -20 35z" />
<glyph unicode="&#x1ff;" d="M74 92l78 92q-39 72 -54.5 160t-15.5 186q0 115 22.5 216.5t78 178t151.5 122t244 45.5q90 0 159.5 -17.5t122.5 -48.5l60 70q27 33 59 6l78 -66q33 -27 4 -59l-70 -82q45 -74 63.5 -166t18.5 -197q0 -115 -22.5 -216t-77.5 -177t-151.5 -120t-243.5 -44q-98 0 -172 19.5 t-127 54.5l-64 -76q-27 -33 -59 -6l-78 66q-33 27 -4 59zM328 532q0 -35 2 -67.5t6 -63.5l387 461q-55 45 -145 45q-78 0 -126.5 -29.5t-76 -81t-37.5 -120t-10 -144.5zM418 215q29 -27 68 -41t92 -14q76 0 125 29.5t76.5 79.5t37.5 118t10 145q0 82 -12 154zM502 1280 l122 201q23 35 64 35h186q41 0 11 -29l-228 -213q-31 -29 -71 -29h-64q-41 0 -20 35z" />
<glyph unicode="&#x200;" horiz-adv-x="1376" d="M24.5 9q-8.5 9 2.5 28l559 1401q14 37 57 37h90q41 0 58 -37l559 -1401q18 -37 -25 -37h-195q-41 0 -55 39l-127 323h-581l-127 -323q-14 -39 -56 -39h-133q-18 0 -26.5 9zM215 1897q-31 29 10 29h186q41 0 64 -35l123 -201q20 -35 -21 -35h-63q-41 0 -72 29zM434 535 h447l-183 530l-41 154l-39 -154zM622 1897q-31 29 11 29h186q41 0 63 -35l123 -201q20 -35 -20 -35h-64q-41 0 -71 29z" />
<glyph unicode="&#x201;" horiz-adv-x="1052" d="M66 1487q-31 29 10 29h186q41 0 64 -35l123 -201q20 -35 -21 -35h-63q-41 0 -72 29zM82 346q0 98 34 162.5t92 102.5t136 53.5t166 15.5h211q-4 33 -15.5 74t-36 77.5t-66.5 62.5t-105 26q-49 0 -105.5 -14.5t-126.5 -37.5q-29 -10 -39 -6t-14 10l-43 66q-18 29 2 53 q14 16 49 34.5t82 33t104.5 24t118.5 9.5q133 0 219 -44t136.5 -120t70 -174.5t19.5 -208.5v-504q0 -41 -41 -41h-103q-23 0 -29.5 9t-11.5 32l-20 84h-4q-41 -74 -116 -112t-179 -38q-78 0 -147.5 22.5t-123 69t-84 116t-30.5 163.5zM330 352q0 -31 10 -66.5t32.5 -66.5 t59.5 -51.5t92 -20.5q94 0 147.5 72t53.5 230v59h-215q-82 0 -131 -41t-49 -115zM473 1487q-31 29 11 29h186q41 0 63 -35l123 -201q20 -35 -20 -35h-64q-41 0 -71 29z" />
<glyph unicode="&#x202;" horiz-adv-x="1376" d="M24.5 9q-8.5 9 2.5 28l559 1401q14 37 57 37h90q41 0 58 -37l559 -1401q18 -37 -25 -37h-195q-41 0 -55 39l-127 323h-581l-127 -323q-14 -39 -56 -39h-133q-18 0 -26.5 9zM405 1686q4 59 30 104t66 75t90 45.5t99 15.5q117 0 198 -65t85 -175q0 -12 -9.5 -22.5 t-21.5 -10.5h-86q-10 0 -18.5 6t-10.5 15q-16 51 -54 69.5t-83 18.5q-55 0 -89 -20.5t-50 -67.5q-4 -6 -11.5 -13.5t-15.5 -7.5h-88q-14 0 -24.5 9.5t-6.5 23.5zM434 535h447l-183 530l-41 154l-39 -154z" />
<glyph unicode="&#x203;" horiz-adv-x="1052" d="M82 346q0 98 34 162.5t92 102.5t136 53.5t166 15.5h211q-4 33 -15.5 74t-36 77.5t-66.5 62.5t-105 26q-49 0 -105.5 -14.5t-126.5 -37.5q-29 -10 -39 -6t-14 10l-43 66q-18 29 2 53q14 16 49 34.5t82 33t104.5 24t118.5 9.5q133 0 219 -44t136.5 -120t70 -174.5 t19.5 -208.5v-504q0 -41 -41 -41h-103q-23 0 -29.5 9t-11.5 32l-20 84h-4q-41 -74 -116 -112t-179 -38q-78 0 -147.5 22.5t-123 69t-84 116t-30.5 163.5zM243 1276q4 59 30 104t66 75t90 45.5t99 15.5q117 0 198 -65t85 -175q0 -12 -9.5 -22.5t-21.5 -10.5h-86 q-10 0 -18.5 6t-10.5 15q-16 51 -54 69.5t-83 18.5q-55 0 -89 -20.5t-50 -67.5q-4 -6 -11.5 -13.5t-15.5 -7.5h-88q-14 0 -24.5 9.5t-6.5 23.5zM330 352q0 -31 10 -66.5t32.5 -66.5t59.5 -51.5t92 -20.5q94 0 147.5 72t53.5 230v59h-215q-82 0 -131 -41t-49 -115z" />
<glyph unicode="&#x204;" horiz-adv-x="989" d="M29 1897q-31 29 10 29h186q41 0 64 -35l123 -201q20 -35 -21 -35h-63q-41 0 -72 29zM102 41v1393q0 41 41 41h723q41 0 41 -41v-103q0 -41 -41 -41h-506v-452h404q41 0 41 -41v-103q0 -41 -41 -41h-404v-469h506q41 0 41 -41v-102q0 -41 -41 -41h-723q-41 0 -41 41z M436 1897q-31 29 11 29h186q41 0 63 -35l123 -201q20 -35 -20 -35h-64q-41 0 -71 29z" />
<glyph unicode="&#x205;" horiz-adv-x="1056" d="M82 522q0 119 24.5 222.5t79 180t140.5 122t211 45.5q92 0 173 -27t139 -82t92 -138t34 -194q0 -59 -11.5 -98t-37 -62.5t-68.5 -34t-106 -10.5h-420q6 -66 21.5 -120t46 -93.5t76.5 -62.5t114 -23q59 0 118.5 15.5t122.5 36.5q31 10 40.5 6t13.5 -10l43 -66 q18 -29 -2 -53q-14 -16 -48 -34.5t-82 -33t-107.5 -24t-125.5 -9.5q-141 0 -234 45.5t-148.5 121t-77 174t-21.5 206.5zM119 1487q-31 29 10 29h186q41 0 64 -35l123 -201q20 -35 -21 -35h-63q-41 0 -72 29zM332 618h315q47 0 63.5 11.5t16.5 58.5q0 45 -13.5 87t-37 74 t-56 51.5t-73.5 19.5q-55 0 -94 -25t-65 -66t-39 -95t-17 -116zM526 1487q-31 29 11 29h186q41 0 63 -35l123 -201q20 -35 -20 -35h-64q-41 0 -71 29z" />
<glyph unicode="&#x206;" horiz-adv-x="989" d="M102 41v1393q0 41 41 41h723q41 0 41 -41v-103q0 -41 -41 -41h-506v-452h404q41 0 41 -41v-103q0 -41 -41 -41h-404v-469h506q41 0 41 -41v-102q0 -41 -41 -41h-723q-41 0 -41 41zM213 1686q4 59 30 104t66 75t90 45.5t99 15.5q117 0 198 -65t85 -175q0 -12 -9.5 -22.5 t-21.5 -10.5h-86q-10 0 -18.5 6t-10.5 15q-16 51 -54 69.5t-83 18.5q-55 0 -89 -20.5t-50 -67.5q-4 -6 -11.5 -13.5t-15.5 -7.5h-88q-14 0 -24.5 9.5t-6.5 23.5z" />
<glyph unicode="&#x207;" horiz-adv-x="1056" d="M82 522q0 119 24.5 222.5t79 180t140.5 122t211 45.5q92 0 173 -27t139 -82t92 -138t34 -194q0 -59 -11.5 -98t-37 -62.5t-68.5 -34t-106 -10.5h-420q6 -66 21.5 -120t46 -93.5t76.5 -62.5t114 -23q59 0 118.5 15.5t122.5 36.5q31 10 40.5 6t13.5 -10l43 -66 q18 -29 -2 -53q-14 -16 -48 -34.5t-82 -33t-107.5 -24t-125.5 -9.5q-141 0 -234 45.5t-148.5 121t-77 174t-21.5 206.5zM245 1276q4 59 30 104t66 75t90 45.5t99 15.5q117 0 198 -65t85 -175q0 -12 -9.5 -22.5t-21.5 -10.5h-86q-10 0 -18.5 6t-10.5 15q-16 51 -54 69.5 t-83 18.5q-55 0 -89 -20.5t-50 -67.5q-4 -6 -11.5 -13.5t-15.5 -7.5h-88q-14 0 -24.5 9.5t-6.5 23.5zM332 618h315q47 0 63.5 11.5t16.5 58.5q0 45 -13.5 87t-37 74t-56 51.5t-73.5 19.5q-55 0 -94 -25t-65 -66t-39 -95t-17 -116z" />
<glyph unicode="&#x208;" horiz-adv-x="462" d="M-215 1897q-31 29 10 29h186q41 0 64 -35l123 -201q20 -35 -21 -35h-63q-41 0 -72 29zM102 41v1393q0 41 41 41h176q41 0 41 -41v-1393q0 -41 -41 -41h-176q-41 0 -41 41zM192 1897q-31 29 11 29h186q41 0 63 -35l123 -201q20 -35 -20 -35h-64q-41 0 -71 29z" />
<glyph unicode="&#x209;" horiz-adv-x="450" d="M-205 1487q-31 29 10 29h186q41 0 64 -35l123 -201q20 -35 -21 -35h-63q-41 0 -72 29zM102 41v983q0 41 41 41h164q41 0 41 -41v-983q0 -41 -41 -41h-164q-41 0 -41 41zM202 1487q-31 29 11 29h186q41 0 63 -35l123 -201q20 -35 -20 -35h-64q-41 0 -71 29z" />
<glyph unicode="&#x20a;" horiz-adv-x="462" d="M-48 1686q4 59 30 104t66 75t90 45.5t99 15.5q117 0 198 -65t85 -175q0 -12 -9.5 -22.5t-21.5 -10.5h-86q-10 0 -18.5 6t-10.5 15q-16 51 -54 69.5t-83 18.5q-55 0 -89 -20.5t-50 -67.5q-4 -6 -11.5 -13.5t-15.5 -7.5h-88q-14 0 -24.5 9.5t-6.5 23.5zM102 41v1393 q0 41 41 41h176q41 0 41 -41v-1393q0 -41 -41 -41h-176q-41 0 -41 41z" />
<glyph unicode="&#x20b;" horiz-adv-x="450" d="M-54 1276q4 59 30 104t66 75t90 45.5t99 15.5q117 0 198 -65t85 -175q0 -12 -9.5 -22.5t-21.5 -10.5h-86q-10 0 -18.5 6t-10.5 15q-16 51 -54 69.5t-83 18.5q-55 0 -89 -20.5t-50 -67.5q-4 -6 -11.5 -13.5t-15.5 -7.5h-88q-14 0 -24.5 9.5t-6.5 23.5zM102 41v983 q0 41 41 41h164q41 0 41 -41v-983q0 -41 -41 -41h-164q-41 0 -41 41z" />
<glyph unicode="&#x20c;" horiz-adv-x="1609" d="M82 737q0 193 55.5 335t152.5 237.5t229 142.5t286 47t286 -47t229 -142.5t152.5 -237.5t55.5 -335t-55.5 -335t-152.5 -237t-229 -142.5t-286 -47.5t-286 47.5t-229 142.5t-152.5 237.5t-55.5 334.5zM346 1897q-31 29 10 29h186q41 0 64 -35l123 -201q20 -35 -21 -35 h-63q-41 0 -72 29zM352 737q0 -156 36 -264t98.5 -176t144.5 -97.5t174 -29.5t174 29.5t144.5 97.5t98 176.5t35.5 263.5q0 156 -35.5 264.5t-97 176t-144.5 97.5t-175 30t-175 -30t-144.5 -97.5t-97.5 -176t-36 -264.5zM753 1897q-31 29 11 29h186q41 0 63 -35l123 -201 q20 -35 -20 -35h-64q-41 0 -71 29z" />
<glyph unicode="&#x20d;" d="M82 530q0 115 22.5 216.5t78 178t151.5 122t244 45.5q147 0 243.5 -45.5t151.5 -121t77.5 -178t22.5 -215.5q0 -115 -22.5 -216t-77.5 -177t-151.5 -120t-243.5 -44t-243.5 44t-152 119t-78 176.5t-22.5 215.5zM113 1487q-31 29 10 29h186q41 0 64 -35l123 -201 q20 -35 -21 -35h-63q-41 0 -72 29zM328 532q0 -78 10 -145.5t37.5 -117.5t76 -79.5t126.5 -29.5q76 0 125 29.5t76.5 79.5t37.5 118t10 145q0 76 -10 144.5t-37.5 120t-77 81t-124.5 29.5q-78 0 -126.5 -29.5t-76 -81t-37.5 -120t-10 -144.5zM520 1487q-31 29 11 29h186 q41 0 63 -35l123 -201q20 -35 -20 -35h-64q-41 0 -71 29z" />
<glyph unicode="&#x20e;" horiz-adv-x="1609" d="M82 737q0 193 55.5 335t152.5 237.5t229 142.5t286 47t286 -47t229 -142.5t152.5 -237.5t55.5 -335t-55.5 -335t-152.5 -237t-229 -142.5t-286 -47.5t-286 47.5t-229 142.5t-152.5 237.5t-55.5 334.5zM352 737q0 -156 36 -264t98.5 -176t144.5 -97.5t174 -29.5t174 29.5 t144.5 97.5t98 176.5t35.5 263.5q0 156 -35.5 264.5t-97 176t-144.5 97.5t-175 30t-175 -30t-144.5 -97.5t-97.5 -176t-36 -264.5zM522 1686q4 59 30 104t66 75t90 45.5t99 15.5q117 0 198 -65t85 -175q0 -12 -9.5 -22.5t-21.5 -10.5h-86q-10 0 -18.5 6t-10.5 15 q-16 51 -54 69.5t-83 18.5q-55 0 -89 -20.5t-50 -67.5q-4 -6 -11.5 -13.5t-15.5 -7.5h-88q-14 0 -24.5 9.5t-6.5 23.5z" />
<glyph unicode="&#x20f;" d="M82 530q0 115 22.5 216.5t78 178t151.5 122t244 45.5q147 0 243.5 -45.5t151.5 -121t77.5 -178t22.5 -215.5q0 -115 -22.5 -216t-77.5 -177t-151.5 -120t-243.5 -44t-243.5 44t-152 119t-78 176.5t-22.5 215.5zM294 1276q4 59 30 104t66 75t90 45.5t99 15.5 q117 0 198 -65t85 -175q0 -12 -9.5 -22.5t-21.5 -10.5h-86q-10 0 -18.5 6t-10.5 15q-16 51 -54 69.5t-83 18.5q-55 0 -89 -20.5t-50 -67.5q-4 -6 -11.5 -13.5t-15.5 -7.5h-88q-14 0 -24.5 9.5t-6.5 23.5zM328 532q0 -78 10 -145.5t37.5 -117.5t76 -79.5t126.5 -29.5 q76 0 125 29.5t76.5 79.5t37.5 118t10 145q0 76 -10 144.5t-37.5 120t-77 81t-124.5 29.5q-78 0 -126.5 -29.5t-76 -81t-37.5 -120t-10 -144.5z" />
<glyph unicode="&#x210;" horiz-adv-x="1161" d="M27 1897q-31 29 10 29h186q41 0 64 -35l123 -201q20 -35 -21 -35h-63q-41 0 -72 29zM102 41v1393q0 41 41 41h389q117 0 213.5 -40t166 -110t108.5 -164t39 -200q0 -152 -78 -275t-213 -186l315 -467q12 -16 10.5 -24.5t-26.5 -8.5h-225q-41 0 -62 35l-260 414h-160v-408 q0 -41 -41 -41h-176q-41 0 -41 41zM360 631h132q152 0 230.5 82t78.5 248t-79 247.5t-230 83.5h-132v-661zM434 1897q-31 29 11 29h186q41 0 63 -35l123 -201q20 -35 -20 -35h-64q-41 0 -71 29z" />
<glyph unicode="&#x211;" horiz-adv-x="647" d="M-65 1487q-31 29 10 29h186q41 0 64 -35l123 -201q20 -35 -21 -35h-63q-41 0 -72 29zM102 41v983q0 41 41 41h103q23 0 26.5 -10.5t14.5 -30.5l20 -78h4q33 51 69 78t70.5 39t70.5 15t69 3q23 0 30 -4t7 -26v-154q0 -20 -7.5 -27.5t-19.5 -8.5t-27.5 2t-29.5 3 q-195 0 -195 -198v-627q0 -41 -41 -41h-164q-41 0 -41 41zM342 1487q-31 29 11 29h186q41 0 63 -35l123 -201q20 -35 -20 -35h-64q-41 0 -71 29z" />
<glyph unicode="&#x212;" horiz-adv-x="1161" d="M102 41v1393q0 41 41 41h389q117 0 213.5 -40t166 -110t108.5 -164t39 -200q0 -152 -78 -275t-213 -186l315 -467q12 -16 10.5 -24.5t-26.5 -8.5h-225q-41 0 -62 35l-260 414h-160v-408q0 -41 -41 -41h-176q-41 0 -41 41zM235 1686q4 59 30 104t66 75t90 45.5t99 15.5 q117 0 198 -65t85 -175q0 -12 -9.5 -22.5t-21.5 -10.5h-86q-10 0 -18.5 6t-10.5 15q-16 51 -54 69.5t-83 18.5q-55 0 -89 -20.5t-50 -67.5q-4 -6 -11.5 -13.5t-15.5 -7.5h-88q-14 0 -24.5 9.5t-6.5 23.5zM360 631h132q152 0 230.5 82t78.5 248t-79 247.5t-230 83.5h-132 v-661z" />
<glyph unicode="&#x213;" horiz-adv-x="647" d="M45 1276q4 59 30 104t66 75t90 45.5t99 15.5q117 0 198 -65t85 -175q0 -12 -9.5 -22.5t-21.5 -10.5h-86q-10 0 -18.5 6t-10.5 15q-16 51 -54 69.5t-83 18.5q-55 0 -89 -20.5t-50 -67.5q-4 -6 -11.5 -13.5t-15.5 -7.5h-88q-14 0 -24.5 9.5t-6.5 23.5zM102 41v983 q0 41 41 41h103q23 0 26.5 -10.5t14.5 -30.5l20 -78h4q33 51 69 78t70.5 39t70.5 15t69 3q23 0 30 -4t7 -26v-154q0 -20 -7.5 -27.5t-19.5 -8.5t-27.5 2t-29.5 3q-195 0 -195 -198v-627q0 -41 -41 -41h-164q-41 0 -41 41z" />
<glyph unicode="&#x214;" horiz-adv-x="1302" d="M102 524v910q0 41 41 41h176q41 0 41 -41v-852q0 -86 18.5 -163t55.5 -134.5t91.5 -91t125.5 -33.5q86 0 151.5 32.5t109.5 90t68 134.5t24 165v852q0 41 40 41h115q41 0 41 -41v-910q0 -119 -41 -219t-114.5 -174t-175 -115t-222.5 -41q-117 0 -217 42t-173 116 t-114 174.5t-41 216.5zM191 1897q-31 29 10 29h186q41 0 64 -35l123 -201q20 -35 -21 -35h-63q-41 0 -72 29zM598 1897q-31 29 11 29h186q41 0 63 -35l123 -201q20 -35 -20 -35h-64q-41 0 -71 29z" />
<glyph unicode="&#x215;" horiz-adv-x="1097" d="M101 1487q-31 29 10 29h186q41 0 64 -35l123 -201q20 -35 -21 -35h-63q-41 0 -72 29zM102 377v647q0 41 39 41h168q39 0 39 -41v-578q0 -59 9.5 -113t31 -95t57 -66t89.5 -25q215 0 215 320v557q0 41 41 41h163q41 0 41 -41v-983q0 -41 -41 -41h-102q-23 0 -30 9t-11 32 l-20 84h-5q-18 -37 -47.5 -64.5t-66.5 -46t-78 -29t-80 -10.5q-86 0 -160.5 27t-130 78t-88.5 126t-33 171zM508 1487q-31 29 11 29h186q41 0 63 -35l123 -201q20 -35 -20 -35h-64q-41 0 -71 29z" />
<glyph unicode="&#x216;" horiz-adv-x="1302" d="M102 524v910q0 41 41 41h176q41 0 41 -41v-852q0 -86 18.5 -163t55.5 -134.5t91.5 -91t125.5 -33.5q86 0 151.5 32.5t109.5 90t68 134.5t24 165v852q0 41 40 41h115q41 0 41 -41v-910q0 -119 -41 -219t-114.5 -174t-175 -115t-222.5 -41q-117 0 -217 42t-173 116 t-114 174.5t-41 216.5zM368 1686q4 59 30 104t66 75t90 45.5t99 15.5q117 0 198 -65t85 -175q0 -12 -9.5 -22.5t-21.5 -10.5h-86q-10 0 -18.5 6t-10.5 15q-16 51 -54 69.5t-83 18.5q-55 0 -89 -20.5t-50 -67.5q-4 -6 -11.5 -13.5t-15.5 -7.5h-88q-14 0 -24.5 9.5t-6.5 23.5z " />
<glyph unicode="&#x217;" horiz-adv-x="1097" d="M102 377v647q0 41 39 41h168q39 0 39 -41v-578q0 -59 9.5 -113t31 -95t57 -66t89.5 -25q215 0 215 320v557q0 41 41 41h163q41 0 41 -41v-983q0 -41 -41 -41h-102q-23 0 -30 9t-11 32l-20 84h-5q-18 -37 -47.5 -64.5t-66.5 -46t-78 -29t-80 -10.5q-86 0 -160.5 27 t-130 78t-88.5 126t-33 171zM266 1276q4 59 30 104t66 75t90 45.5t99 15.5q117 0 198 -65t85 -175q0 -12 -9.5 -22.5t-21.5 -10.5h-86q-10 0 -18.5 6t-10.5 15q-16 51 -54 69.5t-83 18.5q-55 0 -89 -20.5t-50 -67.5q-4 -6 -11.5 -13.5t-15.5 -7.5h-88q-14 0 -24.5 9.5 t-6.5 23.5z" />
<glyph unicode="&#x218;" horiz-adv-x="1136" d="M83 96q-1 10 9 33l33 86q4 12 20.5 10t32.5 -6q20 -6 59 -14t88.5 -15.5t100.5 -13.5t96 -6q135 0 215 52t80 138q0 74 -56 129.5t-134 85.5l-199 78q-150 57 -243 157.5t-93 258.5q0 100 40 180t107.5 135.5t157.5 85t193 29.5q68 0 136.5 -11t126.5 -27.5t101 -33 t58 -28.5q10 -8 11 -18.5t-9 -34.5l-33 -86q-4 -12 -20.5 -10.5t-32.5 5.5q-20 6 -57 14.5t-82.5 15.5t-94.5 13.5t-92 6.5q-82 0 -135 -20.5t-84 -52.5t-42 -69t-11 -69q0 -55 35.5 -103.5t140.5 -89.5l196 -74q88 -33 155 -81t111 -106t65.5 -123.5t21.5 -133.5 q0 -94 -39 -169t-108.5 -128t-168 -82t-215.5 -29q-66 0 -133 10.5t-127.5 26t-105.5 32.5t-64 32q-10 10 -11 20zM424 -262q0 41 41 41h205q41 0 41 -41v-236q0 -51 -10 -100t-25.5 -90t-33 -72t-31.5 -45q-10 -10 -21.5 -13t-31.5 11l-66 43q-10 8 -9 23.5t5 29.5 q10 31 30.5 83t20.5 120h-74q-41 0 -41 41v205z" />
<glyph unicode="&#x219;" horiz-adv-x="970" d="M92 129l43 66q8 10 23.5 9t29.5 -5q59 -20 123 -36t140 -16q63 0 103 12.5t62.5 32t30.5 44t8 49.5q0 47 -35.5 72.5t-123.5 54.5l-177 53q-115 35 -166 114.5t-51 182.5q0 70 25 130t73 105t119.5 70t165.5 25q131 0 226.5 -33t130.5 -68q6 -6 11 -18t-11 -35l-43 -66 q-6 -14 -22.5 -11t-31.5 7q-55 20 -113.5 36t-123.5 16q-92 0 -132 -37t-40 -97q0 -35 18.5 -61.5t61.5 -38.5l239 -70q133 -39 183.5 -114.5t50.5 -194.5q0 -84 -35 -145.5t-93.5 -103.5t-136 -62.5t-161.5 -20.5q-66 0 -125 8.5t-108.5 21.5t-85 31.5t-50.5 39.5 q-18 27 -2 53zM342 -262q0 41 41 41h205q41 0 41 -41v-236q0 -51 -10 -100t-25.5 -90t-33 -72t-31.5 -45q-10 -10 -21.5 -13t-31.5 11l-66 43q-10 8 -9 23.5t5 29.5q10 31 30.5 83t20.5 120h-74q-41 0 -41 41v205z" />
<glyph unicode="&#x21a;" horiz-adv-x="983" d="M20 1331v103q0 41 41 41h861q41 0 41 -41v-103q0 -41 -41 -41h-301v-1249q0 -41 -41 -41h-177q-41 0 -41 41v1249h-301q-41 0 -41 41zM348 -262q0 41 41 41h205q41 0 41 -41v-236q0 -51 -10 -100t-25.5 -90t-33 -72t-31.5 -45q-10 -10 -21.5 -13t-31.5 11l-66 43 q-10 8 -9 23.5t5 29.5q10 31 30.5 83t20.5 120h-74q-41 0 -41 41v205z" />
<glyph unicode="&#x21b;" horiz-adv-x="645" d="M20 944v80q0 41 41 41h107v158q0 23 10 27.5t31 13.5l164 61q20 8 30.5 -5t10.5 -36v-219h129q41 0 41 -41v-80q0 -41 -41 -41h-129v-590q0 -76 31.5 -108.5t66.5 -32.5h14q41 0 41 -41v-90q0 -41 -41 -41h-75q-139 0 -211 79t-72 240v584h-107q-41 0 -41 41zM178 -262 q0 41 41 41h205q41 0 41 -41v-236q0 -51 -10 -100t-25.5 -90t-33 -72t-31.5 -45q-10 -10 -21.5 -13t-31.5 11l-66 43q-10 8 -9 23.5t5 29.5q10 31 30.5 83t20.5 120h-74q-41 0 -41 41v205z" />
<glyph unicode="&#x21c;" d="M77 98.5q-1 10.5 9 32.5l33 86q4 12 20.5 10t32.5 -6q20 -6 59 -14t88.5 -15.5t100.5 -13.5t96 -6q90 0 147.5 21.5t91 55.5t47 78t13.5 91q0 45 -13.5 89t-46 80t-86 57.5t-132.5 21.5h-136q-41 0 -41 41v90q0 41 41 41h82q53 0 101.5 16t84.5 48t57.5 77t21.5 102 q0 100 -62.5 161t-200.5 61q-84 0 -154.5 -18.5t-109.5 -31.5q-16 -4 -32.5 -6t-20.5 10l-33 86q-10 23 -9 33t11 21q16 14 51 31.5t82 33t102.5 25.5t112.5 10q119 0 215.5 -28.5t164 -83t104.5 -130t37 -170.5q0 -111 -61.5 -186.5t-174.5 -120.5v-4q150 -23 226.5 -119 t76.5 -235q0 -94 -42 -175t-116.5 -140.5t-176 -93.5t-220.5 -34q-66 0 -133.5 10.5t-127.5 26t-105.5 32.5t-63.5 32q-10 10 -11 20.5z" />
<glyph unicode="&#x21d;" d="M77 -311.5q-1 10.5 9 32.5l33 86q4 12 20.5 10.5t32.5 -5.5q20 -6 59 -14.5t88.5 -15.5t100.5 -13.5t96 -6.5q90 0 147.5 21.5t91 55.5t47 78t13.5 91q0 45 -13.5 89t-46 80t-86 57.5t-132.5 21.5h-136q-41 0 -41 41v90q0 41 41 41h82q53 0 101.5 16.5t84.5 48t57.5 76.5 t21.5 103q0 100 -62.5 160.5t-200.5 60.5q-84 0 -154.5 -18.5t-109.5 -30.5q-16 -4 -32.5 -6t-20.5 10l-33 86q-10 23 -9 33t11 20q16 14 51 31.5t82 33t102.5 25.5t112.5 10q119 0 215.5 -28.5t164 -82.5t104.5 -130t37 -170q0 -111 -61.5 -186.5t-174.5 -120.5v-4 q150 -23 226.5 -119t76.5 -236q0 -94 -42 -175t-116.5 -140.5t-176 -93t-220.5 -33.5q-66 0 -133.5 10t-127.5 25.5t-105.5 33t-63.5 31.5q-10 10 -11 20.5z" />
<glyph unicode="&#x21e;" horiz-adv-x="1247" d="M102 41v1393q0 41 41 41h176q41 0 41 -41v-586h527v586q0 41 41 41h176q41 0 41 -41v-1393q0 -41 -41 -41h-176q-41 0 -41 41v623h-527v-623q0 -41 -41 -41h-176q-41 0 -41 41zM340 1893q-25 33 16 33h70q41 0 69 -29l127 -127l127 127q29 29 70 29h70q41 0 16 -33 l-148 -205q-25 -33 -65 -33h-139q-41 0 -66 33z" />
<glyph unicode="&#x21f;" horiz-adv-x="1128" d="M102 41v1434q0 41 41 41h164q41 0 41 -41v-535h4q33 59 96.5 104.5t178.5 45.5q82 0 154.5 -28t127 -93.5t86 -173t31.5 -267.5v-487q0 -41 -41 -41h-164q-41 0 -41 41v487q0 119 -13 195t-37.5 119t-59.5 59.5t-78 16.5q-117 0 -180.5 -75t-63.5 -253v-549 q0 -41 -41 -41h-164q-41 0 -41 41zM281 1893q-25 33 16 33h70q41 0 69 -29l127 -127l127 127q29 29 70 29h70q41 0 16 -33l-148 -205q-25 -33 -65 -33h-139q-41 0 -66 33z" />
<glyph unicode="&#x220;" horiz-adv-x="1097" d="M102 41v983q0 41 41 41h103q23 0 30 -9t11 -32l20 -84h4q18 37 48 64.5t67 46t78 29t80 10.5q86 0 160.5 -27t130 -78t88 -126t32.5 -171v-1157q0 -41 -39 -41h-168q-39 0 -38 41v1087q0 59 -9.5 113.5t-31 95.5t-57.5 66t-89 25q-215 0 -215 -320v-557q0 -41 -41 -41 h-164q-41 0 -41 41z" />
<glyph unicode="&#x226;" horiz-adv-x="1376" d="M24.5 9q-8.5 9 2.5 28l559 1401q14 37 57 37h90q41 0 58 -37l559 -1401q18 -37 -25 -37h-195q-41 0 -55 39l-127 323h-581l-127 -323q-14 -39 -56 -39h-133q-18 0 -26.5 9zM434 535h447l-183 530l-41 154l-39 -154zM565 1721v164q0 41 41 41h164q41 0 41 -41v-164 q0 -41 -41 -41h-164q-41 0 -41 41z" />
<glyph unicode="&#x227;" horiz-adv-x="1052" d="M82 346q0 98 34 162.5t92 102.5t136 53.5t166 15.5h211q-4 33 -15.5 74t-36 77.5t-66.5 62.5t-105 26q-49 0 -105.5 -14.5t-126.5 -37.5q-29 -10 -39 -6t-14 10l-43 66q-18 29 2 53q14 16 49 34.5t82 33t104.5 24t118.5 9.5q133 0 219 -44t136.5 -120t70 -174.5 t19.5 -208.5v-504q0 -41 -41 -41h-103q-23 0 -29.5 9t-11.5 32l-20 84h-4q-41 -74 -116 -112t-179 -38q-78 0 -147.5 22.5t-123 69t-84 116t-30.5 163.5zM330 352q0 -31 10 -66.5t32.5 -66.5t59.5 -51.5t92 -20.5q94 0 147.5 72t53.5 230v59h-215q-82 0 -131 -41t-49 -115z M403 1311v164q0 41 41 41h164q41 0 41 -41v-164q0 -41 -41 -41h-164q-41 0 -41 41z" />
<glyph unicode="&#x228;" horiz-adv-x="989" d="M102 41v1393q0 41 41 41h723q41 0 41 -41v-103q0 -41 -41 -41h-506v-452h404q41 0 41 -41v-103q0 -41 -41 -41h-404v-469h506q41 0 41 -41v-102q0 -41 -41 -41h-307l-29 -111q70 -10 107 -52t37 -101q0 -80 -63.5 -135.5t-174.5 -55.5q-37 0 -62.5 2t-21.5 7 q-39 2 -37 45l2 36q2 41 43 39v-2h43q68 0 100 21.5t32 56.5q0 31 -28 49.5t-106 18.5l45 182h-303q-41 0 -41 41z" />
<glyph unicode="&#x229;" horiz-adv-x="1056" d="M82 522q0 119 24.5 222.5t79 180t140.5 122t211 45.5q92 0 173 -27t139 -82t92 -138t34 -194q0 -59 -11.5 -98t-37 -62.5t-68.5 -34t-106 -10.5h-420q6 -66 21.5 -120t46 -93.5t76.5 -62.5t114 -23q59 0 118.5 15.5t122.5 36.5q31 10 40.5 6t13.5 -10l43 -66 q18 -29 -2 -53q-29 -33 -122 -64.5t-216 -36.5l-23 -86q70 -10 107 -52t37 -101q0 -80 -63.5 -135.5t-174.5 -55.5q-37 0 -62.5 2t-21.5 7q-39 2 -37 45l2 36q2 41 43 39v-2h43q68 0 99.5 21.5t31.5 56.5q0 31 -27.5 49.5t-105.5 18.5l39 164q-115 14 -190.5 63t-120.5 122 t-63.5 165t-18.5 190zM332 618h315q47 0 63.5 11.5t16.5 58.5q0 45 -13.5 87t-37 74t-56 51.5t-73.5 19.5q-55 0 -94 -25t-65 -66t-39 -95t-17 -116z" />
<glyph unicode="&#x22a;" horiz-adv-x="1609" d="M82 737q0 193 55.5 335t152.5 237.5t229 142.5t286 47t286 -47t229 -142.5t152.5 -237.5t55.5 -335t-55.5 -335t-152.5 -237t-229 -142.5t-286 -47.5t-286 47.5t-229 142.5t-152.5 237.5t-55.5 334.5zM352 737q0 -156 36 -264t98.5 -176t144.5 -97.5t174 -29.5t174 29.5 t144.5 97.5t98 176.5t35.5 263.5q0 156 -35.5 264.5t-97 176t-144.5 97.5t-175 30t-175 -30t-144.5 -97.5t-97.5 -176t-36 -264.5zM446 2048v62q0 41 41 41h635q41 0 41 -41v-62q0 -41 -41 -41h-635q-41 0 -41 41zM497 1700v144q0 41 41 41h144q41 0 41 -41v-144 q0 -41 -41 -41h-144q-41 0 -41 41zM887 1700v144q0 41 40 41h144q41 0 41 -41v-144q0 -41 -41 -41h-144q-41 0 -40 41z" />
<glyph unicode="&#x22b;" d="M82 530q0 115 22.5 216.5t78 178t151.5 122t244 45.5q147 0 243.5 -45.5t151.5 -121t77.5 -178t22.5 -215.5q0 -115 -22.5 -216t-77.5 -177t-151.5 -120t-243.5 -44t-243.5 44t-152 119t-78 176.5t-22.5 215.5zM219 1638v62q0 41 41 41h635q41 0 41 -41v-62 q0 -41 -41 -41h-635q-41 0 -41 41zM270 1290v144q0 41 41 41h144q41 0 41 -41v-144q0 -41 -41 -41h-144q-41 0 -41 41zM328 532q0 -78 10 -145.5t37.5 -117.5t76 -79.5t126.5 -29.5q76 0 125 29.5t76.5 79.5t37.5 118t10 145q0 76 -10 144.5t-37.5 120t-77 81t-124.5 29.5 q-78 0 -126.5 -29.5t-76 -81t-37.5 -120t-10 -144.5zM660 1290v144q0 41 40 41h144q41 0 41 -41v-144q0 -41 -41 -41h-144q-41 0 -40 41z" />
<glyph unicode="&#x22c;" horiz-adv-x="1609" d="M82 737q0 193 55.5 335t152.5 237.5t229 142.5t286 47t286 -47t229 -142.5t152.5 -237.5t55.5 -335t-55.5 -335t-152.5 -237t-229 -142.5t-286 -47.5t-286 47.5t-229 142.5t-152.5 237.5t-55.5 334.5zM352 737q0 -156 36 -264t98.5 -176t144.5 -97.5t174 -29.5t174 29.5 t144.5 97.5t98 176.5t35.5 263.5q0 156 -35.5 264.5t-97 176t-144.5 97.5t-175 30t-175 -30t-144.5 -97.5t-97.5 -176t-36 -264.5zM446 2048v62q0 41 41 41h635q41 0 41 -41v-62q0 -41 -41 -41h-635q-41 0 -41 41zM516 1690q2 41 12.5 78t32 64.5t55.5 44t81 16.5 q35 0 68.5 -12.5t66.5 -26.5q49 -23 63.5 -28t18.5 -5q16 0 23 10.5t13.5 23.5t16.5 23.5t33 10.5h61q12 0 21.5 -10.5t9.5 -22.5q-2 -84 -43 -143.5t-135 -59.5q-18 0 -36 5t-34 12q-53 20 -94 37.5t-53 17.5q-16 0 -25.5 -10.5t-17 -23.5t-17.5 -23.5t-26 -10.5h-62 q-14 0 -23.5 10.5t-9.5 22.5z" />
<glyph unicode="&#x22d;" d="M82 530q0 115 22.5 216.5t78 178t151.5 122t244 45.5q147 0 243.5 -45.5t151.5 -121t77.5 -178t22.5 -215.5q0 -115 -22.5 -216t-77.5 -177t-151.5 -120t-243.5 -44t-243.5 44t-152 119t-78 176.5t-22.5 215.5zM219 1638v62q0 41 41 41h635q41 0 41 -41v-62 q0 -41 -41 -41h-635q-41 0 -41 41zM288 1280q2 41 12.5 78t32 64.5t55.5 44t81 16.5q35 0 68.5 -12.5t66.5 -26.5q49 -23 63.5 -28t18.5 -5q16 0 23 10.5t13.5 23.5t16.5 23.5t33 10.5h61q12 0 21.5 -10.5t9.5 -22.5q-2 -84 -43 -143.5t-135 -59.5q-18 0 -36 5t-34 12 q-53 20 -94 37.5t-53 17.5q-16 0 -25.5 -10.5t-17 -23.5t-17.5 -23.5t-26 -10.5h-62q-14 0 -23.5 10.5t-9.5 22.5zM328 532q0 -78 10 -145.5t37.5 -117.5t76 -79.5t126.5 -29.5q76 0 125 29.5t76.5 79.5t37.5 118t10 145q0 76 -10 144.5t-37.5 120t-77 81t-124.5 29.5 q-78 0 -126.5 -29.5t-76 -81t-37.5 -120t-10 -144.5z" />
<glyph unicode="&#x22e;" horiz-adv-x="1609" d="M82 737q0 193 55.5 335t152.5 237.5t229 142.5t286 47t286 -47t229 -142.5t152.5 -237.5t55.5 -335t-55.5 -335t-152.5 -237t-229 -142.5t-286 -47.5t-286 47.5t-229 142.5t-152.5 237.5t-55.5 334.5zM352 737q0 -156 36 -264t98.5 -176t144.5 -97.5t174 -29.5t174 29.5 t144.5 97.5t98 176.5t35.5 263.5q0 156 -35.5 264.5t-97 176t-144.5 97.5t-175 30t-175 -30t-144.5 -97.5t-97.5 -176t-36 -264.5zM682 1721v164q0 41 41 41h164q41 0 41 -41v-164q0 -41 -41 -41h-164q-41 0 -41 41z" />
<glyph unicode="&#x22f;" d="M82 530q0 115 22.5 216.5t78 178t151.5 122t244 45.5q147 0 243.5 -45.5t151.5 -121t77.5 -178t22.5 -215.5q0 -115 -22.5 -216t-77.5 -177t-151.5 -120t-243.5 -44t-243.5 44t-152 119t-78 176.5t-22.5 215.5zM328 532q0 -78 10 -145.5t37.5 -117.5t76 -79.5 t126.5 -29.5q76 0 125 29.5t76.5 79.5t37.5 118t10 145q0 76 -10 144.5t-37.5 120t-77 81t-124.5 29.5q-78 0 -126.5 -29.5t-76 -81t-37.5 -120t-10 -144.5zM454 1311v164q0 41 41 41h164q41 0 41 -41v-164q0 -41 -41 -41h-164q-41 0 -41 41z" />
<glyph unicode="&#x230;" horiz-adv-x="1609" d="M82 737q0 193 55.5 335t152.5 237.5t229 142.5t286 47t286 -47t229 -142.5t152.5 -237.5t55.5 -335t-55.5 -335t-152.5 -237t-229 -142.5t-286 -47.5t-286 47.5t-229 142.5t-152.5 237.5t-55.5 334.5zM352 737q0 -156 36 -264t98.5 -176t144.5 -97.5t174 -29.5t174 29.5 t144.5 97.5t98 176.5t35.5 263.5q0 156 -35.5 264.5t-97 176t-144.5 97.5t-175 30t-175 -30t-144.5 -97.5t-97.5 -176t-36 -264.5zM446 2048v62q0 41 41 41h635q41 0 41 -41v-62q0 -41 -41 -41h-635q-41 0 -41 41zM682 1721v164q0 41 41 41h164q41 0 41 -41v-164 q0 -41 -41 -41h-164q-41 0 -41 41z" />
<glyph unicode="&#x231;" d="M82 530q0 115 22.5 216.5t78 178t151.5 122t244 45.5q147 0 243.5 -45.5t151.5 -121t77.5 -178t22.5 -215.5q0 -115 -22.5 -216t-77.5 -177t-151.5 -120t-243.5 -44t-243.5 44t-152 119t-78 176.5t-22.5 215.5zM219 1638v62q0 41 41 41h635q41 0 41 -41v-62 q0 -41 -41 -41h-635q-41 0 -41 41zM328 532q0 -78 10 -145.5t37.5 -117.5t76 -79.5t126.5 -29.5q76 0 125 29.5t76.5 79.5t37.5 118t10 145q0 76 -10 144.5t-37.5 120t-77 81t-124.5 29.5q-78 0 -126.5 -29.5t-76 -81t-37.5 -120t-10 -144.5zM454 1311v164q0 41 41 41h164 q41 0 41 -41v-164q0 -41 -41 -41h-164q-41 0 -41 41z" />
<glyph unicode="&#x232;" horiz-adv-x="1286" d="M29 1440q-20 35 20 35h219q41 0 62 -35l327 -664l353 662q16 37 59 37h168q39 0 23 -37l-498 -899v-498q0 -41 -41 -41h-176q-41 0 -41 41v498zM284 1741v62q0 41 41 41h635q41 0 41 -41v-62q0 -41 -41 -41h-635q-41 0 -41 41z" />
<glyph unicode="&#x233;" horiz-adv-x="1073" d="M27 1028q-18 37 24 37h189q41 0 53 -39l248 -782l250 782q14 39 55 39h176q18 0 26.5 -9t-1.5 -28l-562 -1442q-18 -37 -57 -37h-182q-18 0 -26.5 9.5t1.5 27.5l193 430zM178 1331v62q0 41 41 41h635q41 0 41 -41v-62q0 -41 -41 -41h-635q-41 0 -41 41z" />
<glyph unicode="&#x237;" horiz-adv-x="450" d="M-10 -319q0 41 41 40h14q20 0 38.5 38t18.5 124v1141q0 41 41 41h164q41 0 41 -41v-1155q0 -162 -71.5 -241t-210.5 -79h-35q-41 0 -41 41v91z" />
<glyph unicode="&#x2c6;" horiz-adv-x="770" d="M113 1278l147 205q25 33 66 33h139q41 0 65 -33l148 -205q25 -33 -16 -33h-70q-41 0 -70 29l-127 127l-127 -127q-29 -29 -69 -29h-70q-41 0 -16 33z" />
<glyph unicode="&#x2c7;" horiz-adv-x="770" d="M113 1483q-25 33 16 33h70q41 0 69 -29l127 -127l127 127q29 29 70 29h70q41 0 16 -33l-148 -205q-25 -33 -65 -33h-139q-41 0 -66 33z" />
<glyph unicode="&#x2d8;" horiz-adv-x="774" d="M104 1483q-4 14 6.5 23.5t24.5 9.5h88q8 0 15.5 -7.5t11.5 -13.5q16 -47 50 -67.5t89 -20.5q45 0 83 18.5t54 69.5q2 8 10.5 14.5t18.5 6.5h86q12 0 21.5 -10.5t9.5 -22.5q-4 -111 -85 -175.5t-198 -64.5q-49 0 -99 15.5t-90 45t-65.5 74.5t-30.5 105z" />
<glyph unicode="&#x2d9;" horiz-adv-x="450" d="M102 1311v164q0 41 41 41h164q41 0 41 -41v-164q0 -41 -41 -41h-164q-41 0 -41 41z" />
<glyph unicode="&#x2da;" horiz-adv-x="585" d="M102 1368q0 39 15.5 74t41 61.5t60.5 41t74 14.5q82 0 136 -54.5t54 -136.5q0 -39 -14 -73.5t-41 -60.5t-61.5 -41t-73.5 -15q-37 0 -72 15t-61.5 41t-42 60.5t-15.5 73.5zM188 1368q0 -41 32 -72.5t73 -31.5t72.5 28.5t31.5 75.5q0 45 -28.5 75t-75.5 30t-76 -32 t-29 -73z" />
<glyph unicode="&#x2db;" horiz-adv-x="520" d="M102 -256q0 33 12.5 80t47.5 94l59 82h172l-76 -119q-31 -51 -30 -88q0 -43 41 -43q10 0 17 5t15 9q18 16 30.5 5t19.5 -27q4 -10 8 -20.5t8 -20.5q6 -23 -1 -28t-26 -21q-14 -10 -51 -29.5t-86 -23.5q-78 4 -119 38.5t-41 106.5z" />
<glyph unicode="&#x2dc;" horiz-adv-x="780" d="M102 1280q2 41 12.5 78t32 64.5t55.5 44t81 16.5q35 0 68.5 -12.5t66.5 -26.5q49 -23 63.5 -28t18.5 -5q16 0 23 10.5t13.5 23.5t16.5 23.5t33 10.5h61q12 0 21.5 -10.5t9.5 -22.5q-2 -84 -43 -143.5t-135 -59.5q-18 0 -36 5t-34 12q-53 20 -94 37.5t-53 17.5 q-16 0 -25.5 -10.5t-17 -23.5t-17.5 -23.5t-26 -10.5h-62q-14 0 -23.5 10.5t-9.5 22.5z" />
<glyph unicode="&#x2dd;" horiz-adv-x="1019" d="M111 1280l122 201q23 35 64 35h186q41 0 11 -29l-228 -213q-31 -29 -71 -29h-64q-41 0 -20 35zM518 1280l123 201q23 35 64 35h186q41 0 10 -29l-227 -213q-31 -29 -72 -29h-63q-41 0 -21 35z" />
<glyph unicode="&#x300;" horiz-adv-x="612" d="M119 1487q-31 29 10 29h186q41 0 64 -35l123 -201q20 -35 -21 -35h-63q-41 0 -72 29z" />
<glyph unicode="&#x301;" horiz-adv-x="612" d="M111 1280l122 201q23 35 64 35h186q41 0 11 -29l-228 -213q-31 -29 -71 -29h-64q-41 0 -20 35z" />
<glyph unicode="&#x302;" horiz-adv-x="770" d="M113 1278l147 205q25 33 66 33h139q41 0 65 -33l148 -205q25 -33 -16 -33h-70q-41 0 -70 29l-127 127l-127 -127q-29 -29 -69 -29h-70q-41 0 -16 33z" />
<glyph unicode="&#x303;" horiz-adv-x="780" d="M102 1280q2 41 12.5 78t32 64.5t55.5 44t81 16.5q35 0 68.5 -12.5t66.5 -26.5q49 -23 63.5 -28t18.5 -5q16 0 23 10.5t13.5 23.5t16.5 23.5t33 10.5h61q12 0 21.5 -10.5t9.5 -22.5q-2 -84 -43 -143.5t-135 -59.5q-18 0 -36 5t-34 12q-53 20 -94 37.5t-53 17.5 q-16 0 -25.5 -10.5t-17 -23.5t-17.5 -23.5t-26 -10.5h-62q-14 0 -23.5 10.5t-9.5 22.5z" />
<glyph unicode="&#x304;" horiz-adv-x="921" d="M102 1331v62q0 41 41 41h635q41 0 41 -41v-62q0 -41 -41 -41h-635q-41 0 -41 41z" />
<glyph unicode="&#x306;" horiz-adv-x="774" d="M104 1483q-4 14 6.5 23.5t24.5 9.5h88q8 0 15.5 -7.5t11.5 -13.5q16 -47 50 -67.5t89 -20.5q45 0 83 18.5t54 69.5q2 8 10.5 14.5t18.5 6.5h86q12 0 21.5 -10.5t9.5 -22.5q-4 -111 -85 -175.5t-198 -64.5q-49 0 -99 15.5t-90 45t-65.5 74.5t-30.5 105z" />
<glyph unicode="&#x307;" horiz-adv-x="450" d="M102 1311v164q0 41 41 41h164q41 0 41 -41v-164q0 -41 -41 -41h-164q-41 0 -41 41z" />
<glyph unicode="&#x308;" horiz-adv-x="819" d="M102 1290v144q0 41 41 41h144q41 0 41 -41v-144q0 -41 -41 -41h-144q-41 0 -41 41zM492 1290v144q0 41 40 41h144q41 0 41 -41v-144q0 -41 -41 -41h-144q-41 0 -40 41z" />
<glyph unicode="&#x309;" horiz-adv-x="636" d="M104.5 1672q-0.5 3 4.5 9q8 6 29.5 15.5t51 16.5t62.5 13.5t65 6.5q82 0 145.5 -43t69.5 -146q2 -41 -18 -71.5t-57 -67.5l-15.5 -15.5t-26 -27.5t-24.5 -36.5t-10 -41.5v-14q0 -20 -21 -21h-88q-20 0 -20 21v14q0 41 12 74t53 65q2 2 15.5 14.5t29 29t26.5 37t11 40.5 q0 35 -22.5 62.5t-75.5 27.5q-31 0 -77 -9t-72 -15q-25 -6 -27 2l-16 43q-4 14 -4.5 17z" />
<glyph unicode="&#x30a;" horiz-adv-x="585" d="M102 1368q0 39 15.5 74t41 61.5t60.5 41t74 14.5q82 0 136 -54.5t54 -136.5q0 -39 -14 -73.5t-41 -60.5t-61.5 -41t-73.5 -15q-37 0 -72 15t-61.5 41t-42 60.5t-15.5 73.5zM188 1368q0 -41 32 -72.5t73 -31.5t72.5 28.5t31.5 75.5q0 45 -28.5 75t-75.5 30t-76 -32 t-29 -73z" />
<glyph unicode="&#x30b;" horiz-adv-x="1019" d="M111 1280l122 201q23 35 64 35h186q41 0 11 -29l-228 -213q-31 -29 -71 -29h-64q-41 0 -20 35zM518 1280l123 201q23 35 64 35h186q41 0 10 -29l-227 -213q-31 -29 -72 -29h-63q-41 0 -21 35z" />
<glyph unicode="&#x30c;" horiz-adv-x="770" d="M113 1483q-25 33 16 33h70q41 0 69 -29l127 -127l127 127q29 29 70 29h70q41 0 16 -33l-148 -205q-25 -33 -65 -33h-139q-41 0 -66 33z" />
<glyph unicode="&#x30f;" horiz-adv-x="1019" d="M119 1487q-31 29 10 29h186q41 0 64 -35l123 -201q20 -35 -21 -35h-63q-41 0 -72 29zM526 1487q-31 29 11 29h186q41 0 63 -35l123 -201q20 -35 -20 -35h-64q-41 0 -71 29z" />
<glyph unicode="&#x310;" horiz-adv-x="774" d="M104 1483q-4 14 6.5 23.5t24.5 9.5h88q8 0 15.5 -7.5t11.5 -13.5q16 -47 50 -67.5t89 -20.5q45 0 83 18.5t54 69.5q2 8 10.5 14.5t18.5 6.5h86q12 0 21.5 -10.5t9.5 -22.5q-4 -111 -85 -175.5t-198 -64.5q-49 0 -99 15.5t-90 45t-65.5 74.5t-30.5 105zM264 1628v164 q0 41 41 41h164q41 0 41 -41v-164q0 -41 -41 -41h-164q-41 0 -41 41z" />
<glyph unicode="&#x311;" horiz-adv-x="774" d="M104 1276q4 59 30 104t66 75t90 45.5t99 15.5q117 0 198 -65t85 -175q0 -12 -9.5 -22.5t-21.5 -10.5h-86q-10 0 -18.5 6t-10.5 15q-16 51 -54 69.5t-83 18.5q-55 0 -89 -20.5t-50 -67.5q-4 -6 -11.5 -13.5t-15.5 -7.5h-88q-14 0 -24.5 9.5t-6.5 23.5z" />
<glyph unicode="&#x316;" horiz-adv-x="612" d="M119 -152q-31 29 10 29h186q41 0 64 -35l123 -200q20 -35 -21 -35h-63q-41 0 -72 28z" />
<glyph unicode="&#x317;" horiz-adv-x="612" d="M111 -358l122 200q23 35 64 35h186q41 0 11 -29l-228 -213q-31 -29 -71 -28h-64q-41 0 -20 35z" />
<glyph unicode="&#x323;" horiz-adv-x="450" d="M102 -287q0 41 41 41h164q41 0 41 -41v-164q0 -41 -41 -41h-164q-41 0 -41 41v164z" />
<glyph unicode="&#x324;" horiz-adv-x="819" d="M102 -287q0 41 41 41h144q41 0 41 -41v-143q0 -41 -41 -41h-144q-41 0 -41 41v143zM492 -287q0 41 40 41h144q41 0 41 -41v-143q0 -41 -41 -41h-144q-41 0 -40 41v143z" />
<glyph unicode="&#x325;" horiz-adv-x="585" d="M102 -344q0 39 15.5 73.5t41 61.5t60.5 41t74 14q82 0 136 -54t54 -136q0 -39 -14 -74t-41 -60.5t-61.5 -41t-73.5 -15.5q-37 0 -72 15.5t-61.5 41t-42 60.5t-15.5 74zM188 -344q0 -41 32 -73t73 -32t72.5 29t31.5 76q0 45 -28.5 74.5t-75.5 29.5t-76 -31.5t-29 -72.5z " />
<glyph unicode="&#x32c;" horiz-adv-x="790" d="M113 -238q-25 33 16 33h70q41 0 69 -28l127 -127l127 127q29 29 70 28h70q41 0 16 -33l-148 -204q-25 -33 -65 -33h-139q-41 0 -66 33z" />
<glyph unicode="&#x32d;" horiz-adv-x="790" d="M113 -442l147 204q25 33 66 33h139q41 0 65 -33l148 -204q25 -33 -16 -33h-70q-41 0 -70 29l-127 127l-127 -127q-29 -29 -69 -29h-70q-41 0 -16 33z" />
<glyph unicode="&#x32e;" horiz-adv-x="774" d="M104 -238q-4 14 6.5 23.5t24.5 9.5h88q8 0 15.5 -7t11.5 -13q16 -47 50 -67.5t89 -20.5q45 0 83 18.5t54 69.5q2 8 10.5 14t18.5 6h86q12 0 21.5 -10t9.5 -23q-4 -111 -85 -175t-198 -64q-49 0 -99 15.5t-90 45t-65.5 74.5t-30.5 104z" />
<glyph unicode="&#x32f;" horiz-adv-x="774" d="M104 -444q4 59 30 104t66 74.5t90 45t99 15.5q117 0 198 -64.5t85 -174.5q0 -12 -9.5 -22.5t-21.5 -10.5h-86q-10 0 -18.5 6t-10.5 14q-16 51 -54 69.5t-83 18.5q-55 0 -89 -20.5t-50 -67.5q-4 -6 -11.5 -13t-15.5 -7h-88q-14 0 -24.5 9t-6.5 24z" />
<glyph unicode="&#x330;" horiz-adv-x="780" d="M102 -440q2 41 12.5 77.5t32 64.5t55.5 44t81 16q35 0 68.5 -12t66.5 -26q49 -23 63.5 -28t18.5 -5q16 0 23 10t13.5 23.5t16.5 23.5t33 10h61q12 0 21.5 -10t9.5 -22q-2 -84 -43 -143.5t-135 -59.5q-18 0 -36 5t-34 11q-53 20 -94 37.5t-53 17.5q-16 0 -25.5 -10 t-17 -23.5t-17.5 -23.5t-26 -10h-62q-14 0 -23.5 10t-9.5 23z" />
<glyph unicode="&#x331;" horiz-adv-x="921" d="M102 -246q0 41 41 41h635q41 0 41 -41v-61q0 -41 -41 -41h-635q-41 0 -41 41v61z" />
<glyph unicode="&#x400;" horiz-adv-x="989" d="M102 41v1393q0 41 41 41h723q41 0 41 -41v-103q0 -41 -41 -41h-506v-452h404q41 0 41 -41v-103q0 -41 -41 -41h-404v-469h506q41 0 41 -41v-102q0 -41 -41 -41h-723q-41 0 -41 41zM307 1897q-31 29 10 29h186q41 0 64 -35l123 -201q20 -35 -21 -35h-63q-41 0 -72 29z" />
<glyph unicode="&#x401;" horiz-adv-x="989" d="M102 41v1393q0 41 41 41h723q41 0 41 -41v-103q0 -41 -41 -41h-506v-452h404q41 0 41 -41v-103q0 -41 -41 -41h-404v-469h506q41 0 41 -41v-102q0 -41 -41 -41h-723q-41 0 -41 41zM186 1700v144q0 41 41 41h144q41 0 41 -41v-144q0 -41 -41 -41h-144q-41 0 -41 41z M576 1700v144q0 41 40 41h144q41 0 41 -41v-144q0 -41 -41 -41h-144q-41 0 -40 41z" />
<glyph unicode="&#x402;" horiz-adv-x="1265" d="M41 1331v103q0 41 41 41h749q41 0 41 -41v-103q0 -41 -41 -41h-362v-370h246q119 0 206 -39t145 -102.5t87 -146.5t29 -171q0 -98 -36 -182t-99.5 -146.5t-148.5 -97.5t-185 -35h-62q-41 0 -41 41v90q0 41 41 41q82 0 134.5 25.5t83 65.5t43 91.5t12.5 104.5t-13.5 104 t-46.5 92t-86 67t-133 26h-176v-707q0 -41 -41 -41h-176q-41 0 -41 41v1249h-129q-41 0 -41 41z" />
<glyph unicode="&#x403;" horiz-adv-x="927" d="M102 41v1393q0 41 41 41h723q41 0 41 -41v-103q0 -41 -41 -41h-506v-1249q0 -41 -41 -41h-176q-41 0 -41 41zM428 1690l122 201q23 35 64 35h186q41 0 11 -29l-228 -213q-31 -29 -71 -29h-64q-41 0 -20 35z" />
<glyph unicode="&#x404;" horiz-adv-x="1308" d="M82 737q0 193 55.5 335t152.5 237.5t229 142.5t286 47q68 0 132 -10t119.5 -25.5t97.5 -33t60 -31.5q10 -10 11.5 -20.5t-8.5 -32.5l-33 -86q-8 -10 -22.5 -9.5t-31.5 4.5q-47 12 -135 31t-190 19q-86 0 -162 -26t-136.5 -81t-99 -144t-51.5 -216h613q41 0 41 -41v-103 q0 -41 -41 -41h-615q10 -133 49 -224t99.5 -149.5t138.5 -84t164 -25.5q102 0 190 18.5t135 30.5q14 4 30 5t24 -9l33 -76q10 -29 9 -41t-12 -22q-18 -14 -60 -31.5t-97.5 -33t-120 -26t-131.5 -10.5q-154 0 -286 47.5t-229 142.5t-152.5 237.5t-55.5 334.5z" />
<glyph unicode="&#x405;" horiz-adv-x="1136" d="M83 96q-1 10 9 33l33 86q4 12 20.5 10t32.5 -6q20 -6 59 -14t88.5 -15.5t100.5 -13.5t96 -6q135 0 215 52t80 138q0 74 -56 129.5t-134 85.5l-199 78q-150 57 -243 157.5t-93 258.5q0 100 40 180t107.5 135.5t157.5 85t193 29.5q68 0 136.5 -11t126.5 -27.5t101 -33 t58 -28.5q10 -8 11 -18.5t-9 -34.5l-33 -86q-4 -12 -20.5 -10.5t-32.5 5.5q-20 6 -57 14.5t-82.5 15.5t-94.5 13.5t-92 6.5q-82 0 -135 -20.5t-84 -52.5t-42 -69t-11 -69q0 -55 35.5 -103.5t140.5 -89.5l196 -74q88 -33 155 -81t111 -106t65.5 -123.5t21.5 -133.5 q0 -94 -39 -169t-108.5 -128t-168 -82t-215.5 -29q-66 0 -133 10.5t-127.5 26t-105.5 32.5t-64 32q-10 10 -11 20z" />
<glyph unicode="&#x406;" horiz-adv-x="462" d="M102 41v1393q0 41 41 41h176q41 0 41 -41v-1393q0 -41 -41 -41h-176q-41 0 -41 41z" />
<glyph unicode="&#x407;" horiz-adv-x="462" d="M-74 1700v144q0 41 41 41h144q41 0 41 -41v-144q0 -41 -41 -41h-144q-41 0 -41 41zM102 41v1393q0 41 41 41h176q41 0 41 -41v-1393q0 -41 -41 -41h-176q-41 0 -41 41zM316 1700v144q0 41 40 41h144q41 0 41 -41v-144q0 -41 -41 -41h-144q-41 0 -40 41z" />
<glyph unicode="&#x408;" horiz-adv-x="729" d="M20 45v98q0 41 41 41h27q76 0 132 19.5t94 64.5t56.5 120t18.5 185v861q0 41 41 41h176q41 0 41 -41v-904q-4 -262 -141 -396t-371 -134q-35 0 -58.5 1t-19.5 1q-37 2 -37 43z" />
<glyph unicode="&#x409;" horiz-adv-x="1894" d="M20 41v90q0 41 41 41h15q29 0 48 38t30 124l100 1100q2 41 43 41h776q41 0 41 -41v-408h172q115 0 212 -41t167 -110.5t108.5 -163t38.5 -197.5q0 -109 -38.5 -202t-108.5 -162.5t-166 -109.5t-213 -40h-389q-41 0 -41 41v1249h-373l-92 -971q-16 -160 -80.5 -239.5 t-214.5 -79.5h-35q-41 0 -41 41zM1114 182h131q152 2 230.5 84t78.5 248t-78.5 248t-230.5 82h-131v-662z" />
<glyph unicode="&#x40a;" horiz-adv-x="1925" d="M102 41v1393q0 41 41 41h176q41 0 41 -41v-586h527v586q0 41 41 41h176q41 0 41 -41v-408h172q115 0 212 -41t166.5 -110.5t108.5 -163t39 -197.5q0 -109 -39 -202t-108.5 -162.5t-165.5 -109.5t-213 -40h-389q-41 0 -41 41v623h-527v-623q0 -41 -41 -41h-176 q-41 0 -41 41zM1145 182h131q152 2 230.5 84t78.5 248t-79 248t-230 82h-131v-662z" />
</font>
</defs>
</svg>
