<svg width="24" height="24" viewBox="0 0 24 24" fill="none" xmlns="http://www.w3.org/2000/svg">
<path d="M8 12L7.46967 11.4697C7.17678 11.7626 7.17678 12.2374 7.46967 12.5303L8 12ZM14.5303 6.53033C14.8232 6.23744 14.8232 5.76256 14.5303 5.46967C14.2374 5.17678 13.7626 5.17678 13.4697 5.46967L14.5303 6.53033ZM13.4697 18.5303C13.7626 18.8232 14.2374 18.8232 14.5303 18.5303C14.8232 18.2374 14.8232 17.7626 14.5303 17.4697L13.4697 18.5303ZM8.53033 12.5303L14.5303 6.53033L13.4697 5.46967L7.46967 11.4697L8.53033 12.5303ZM14.5303 17.4697L8.53033 11.4697L7.46967 12.5303L13.4697 18.5303L14.5303 17.4697Z" fill="#74CAFF"/>
</svg>
