<svg width="24" height="24" viewBox="0 0 24 24" fill="none" xmlns="http://www.w3.org/2000/svg">
<path fill-rule="evenodd" clip-rule="evenodd" d="M8.10033 2.81027C8.17743 2.73316 8.31256 2.73316 8.38967 2.81027L9.82934 4.24994H6.66294C6.66821 4.24316 6.67401 4.23659 6.68033 4.23027L8.10033 2.81027ZM9.45033 1.74961C8.78744 1.08672 7.70256 1.08672 7.03967 1.74961L5.61967 3.16961C5.31817 3.47111 5.15342 3.85674 5.12629 4.25H4.5C3.58462 4.25 2.8461 4.52493 2.35528 5.10119C1.88406 5.65444 1.75 6.36071 1.75 7V8C1.75 8.63929 1.88406 9.34556 2.35528 9.89881C2.58962 10.1739 2.88043 10.3804 3.22 10.521V18C3.22 19.5415 3.46725 20.8079 4.31467 21.6553C5.16209 22.5028 6.42845 22.75 7.97 22.75H15.97C17.5115 22.75 18.7779 22.5028 19.6253 21.6553C20.4728 20.8079 20.72 19.5415 20.72 18V10.535C21.071 10.3945 21.3727 10.1849 21.6164 9.90555C22.0927 9.35961 22.25 8.65761 22.25 8V7C22.25 6.34239 22.0927 5.64039 21.6164 5.09445C21.1239 4.52991 20.3942 4.25 19.5 4.25H18.8637C18.8366 3.85674 18.6718 3.47111 18.3703 3.16961L16.9503 1.74961C16.2874 1.08672 15.2026 1.08672 14.5397 1.74961L12.0393 4.25H11.9507L9.45033 1.74961ZM3.49722 6.07381C3.35094 6.24556 3.25 6.53929 3.25 7V8C3.25 8.46071 3.35094 8.75444 3.49722 8.92619C3.6239 9.07493 3.88538 9.25 4.5 9.25H8.94H14.97H19.5C20.0758 9.25 20.3461 9.07991 20.4861 8.91945C20.6423 8.74039 20.75 8.44239 20.75 8V7C20.75 6.55761 20.6423 6.25961 20.4861 6.08055C20.3461 5.92009 20.0758 5.75 19.5 5.75H4.5C3.88538 5.75 3.6239 5.92507 3.49722 6.07381ZM14.22 10.75H9.69V15.14C9.69 15.3341 9.90192 15.4635 10.0821 15.3506L11.0171 14.7339L11.0225 14.7303L11.0226 14.7303C11.6067 14.3523 12.3604 14.3456 12.946 14.736L12.9493 14.7381L12.9492 14.7381L13.8371 15.3367C14.0019 15.4453 14.22 15.3266 14.22 15.13V10.75ZM8.19 10.75V15.14C8.19 16.5449 9.73591 17.3551 10.8951 16.6112L10.8951 16.6112L10.9029 16.6061L11.8394 15.9884C11.9343 15.928 12.0391 15.9347 12.1129 15.9833L13.0008 16.5819L13.0008 16.5819L13.004 16.584C14.1591 17.3541 15.72 16.533 15.72 15.13V10.75H19.22V18C19.22 19.4585 18.9673 20.1921 18.5647 20.5947C18.1621 20.9972 17.4285 21.25 15.97 21.25H7.97C6.51155 21.25 5.77791 20.9972 5.37533 20.5947C4.97275 20.1921 4.72 19.4585 4.72 18V10.75H8.19ZM15.8897 2.81027C15.8126 2.73316 15.6774 2.73316 15.6003 2.81027L14.1607 4.24994H17.3271C17.3218 4.24316 17.316 4.23659 17.3097 4.23027L15.8897 2.81027Z" fill="#919EAB"/>
</svg>
