<svg width="24" height="24" viewBox="0 0 24 24" fill="none" xmlns="http://www.w3.org/2000/svg">
<path fill-rule="evenodd" clip-rule="evenodd" d="M17.3303 7.73053C17.6232 7.43763 17.6232 6.96276 17.3303 6.66987C17.0374 6.37697 16.5625 6.37697 16.2696 6.66987L12 10.9395L7.73028 6.66987C7.43739 6.37697 6.96251 6.37697 6.66962 6.66987C6.37673 6.96276 6.37673 7.43763 6.66962 7.73053L10.9393 12.0002L6.66962 16.2699C6.37673 16.5628 6.37673 17.0376 6.66962 17.3305C6.96251 17.6234 7.43739 17.6234 7.73028 17.3305L12 13.0609L16.2696 17.3305C16.5625 17.6234 17.0374 17.6234 17.3303 17.3305C17.6232 17.0376 17.6232 16.5628 17.3303 16.2699L13.0606 12.0002L17.3303 7.73053Z" fill="#A3ABC0"/>
</svg>
