<svg width="14" height="14" viewBox="0 0 14 14" fill="none" xmlns="http://www.w3.org/2000/svg">
<path fill-rule="evenodd" clip-rule="evenodd" d="M13.5303 1.53035C13.8232 1.23745 13.8232 0.762578 13.5303 0.469685C13.2374 0.176792 12.7626 0.176792 12.4697 0.469685L7 5.93936L1.53033 0.469685C1.23744 0.176792 0.762563 0.176792 0.46967 0.469685C0.176777 0.762578 0.176777 1.23745 0.46967 1.53035L5.93934 7.00002L0.46967 12.4697C0.176777 12.7626 0.176777 13.2375 0.46967 13.5303C0.762563 13.8232 1.23744 13.8232 1.53033 13.5303L7 8.06068L12.4697 13.5303C12.7626 13.8232 13.2374 13.8232 13.5303 13.5303C13.8232 13.2375 13.8232 12.7626 13.5303 12.4697L8.06066 7.00002L13.5303 1.53035Z" fill="#919EAB"/>
</svg>
