<svg width="22" height="19" viewBox="0 0 22 19" fill="none" xmlns="http://www.w3.org/2000/svg">
<path d="M9.5894 1.57337C9.7791 1.32676 9.60329 0.969727 9.29216 0.969727H5.66284C4.6572 0.969727 3.71845 1.4736 3.16265 2.3117L1.20304 5.26668C0.985782 5.59428 0.839797 5.95295 0.764215 6.32208C0.720653 6.53483 0.894521 6.7196 1.11168 6.7196H4.89215C5.35786 6.7196 5.79714 6.5033 6.08109 6.13417L9.5894 1.57337Z" fill="#54D62C"/>
<path d="M1.5921 8.2196C1.31615 8.2196 1.13947 8.50699 1.30534 8.72753C1.32044 8.7476 1.33581 8.76752 1.35147 8.78729L8.64821 18.0003C8.89057 18.3064 9.17773 18.5506 9.49161 18.7331C9.76343 18.8912 10.0239 18.6056 9.8985 18.3172L5.90036 9.12152C5.66225 8.57385 5.12195 8.2196 4.52476 8.2196H1.5921Z" fill="#54D62C"/>
<path d="M12.1014 18.3172C11.9761 18.6056 12.2365 18.8912 12.5083 18.7331C12.8222 18.5506 13.1094 18.3064 13.3517 18.0003L20.6485 8.78729C20.6641 8.76752 20.6795 8.7476 20.6946 8.72753C20.8605 8.50699 20.6838 8.2196 20.4078 8.2196H17.4752C16.878 8.2196 16.3377 8.57385 16.0996 9.12151L12.1014 18.3172Z" fill="#54D62C"/>
<path d="M21.2357 6.32208C21.2793 6.53483 21.1054 6.7196 20.8882 6.7196H17.1078C16.6421 6.7196 16.2028 6.5033 15.9188 6.13417L12.4105 1.57337C12.2208 1.32676 12.3966 0.969727 12.7078 0.969727H16.3371C17.3427 0.969727 18.2815 1.4736 18.8373 2.3117L20.7969 5.26668C21.0141 5.59429 21.1601 5.95295 21.2357 6.32208Z" fill="#54D62C"/>
<path d="M10.4055 2.97263C10.7057 2.58234 11.2942 2.58234 11.5944 2.97263L13.548 5.51232C13.9274 6.00554 13.5758 6.7196 12.9536 6.7196H9.04635C8.4241 6.7196 8.07249 6.00553 8.45188 5.51232L10.4055 2.97263Z" fill="#54D62C"/>
<path d="M8.28778 8.2196C7.74765 8.2196 7.38461 8.77332 7.59998 9.26865L10.6561 16.2976C10.7868 16.5983 11.2132 16.5983 11.3439 16.2976L14.3999 9.26865C14.6153 8.77332 14.2523 8.2196 13.7121 8.2196H8.28778Z" fill="#54D62C"/>
</svg>
