<svg width="17" height="16" viewBox="0 0 17 16" fill="none" xmlns="http://www.w3.org/2000/svg">
<path fill-rule="evenodd" clip-rule="evenodd" d="M5.17269 2C4.33466 2 3.55236 2.4199 3.0892 3.11831L1.91651 4.88666C1.31855 5.78834 1.36847 6.97235 2.04021 7.8205L6.54174 13.5043C7.54267 14.768 9.46042 14.768 10.4613 13.5043L14.9629 7.8205C15.6346 6.97235 15.6845 5.78834 15.0866 4.88666L13.9139 3.11831C13.4507 2.4199 12.6684 2 11.8304 2H8.50139H5.17269ZM7.66428 3H5.17269C4.98668 3 4.80524 3.03448 4.63637 3.09915L6.24757 5.63103L7.66428 3ZM3.86767 3.75382L2.74991 5.43933C2.61168 5.64778 2.53115 5.88137 2.50743 6.1189H5.37273L3.86767 3.75382ZM7.12063 6.1189H9.88215L8.50139 3.55463L7.12063 6.1189ZM11.63 6.1189H14.4956C14.4719 5.88137 14.3914 5.64778 14.2532 5.43933L13.1353 3.75358L11.63 6.1189ZM12.3665 3.09905L10.7552 5.63103L9.33849 3H11.8304C12.0163 3 12.1977 3.03445 12.3665 3.09905ZM8.50154 12.1889L6.95851 7.1189H10.0446L8.50154 12.1889ZM2.76444 7.1189H5.91322L7.7857 13.2713C7.6138 13.1781 7.45665 13.0488 7.32566 12.8834L2.82413 7.19964C2.80323 7.17325 2.78333 7.14632 2.76444 7.1189ZM11.0899 7.1189L9.21738 13.2713C9.38929 13.1781 9.54644 13.0488 9.67742 12.8834L14.179 7.19964C14.1999 7.17325 14.2198 7.14632 14.2386 7.1189H11.0899Z" fill="white"/>
</svg>
