<svg width="24" height="24" viewBox="0 0 24 24" fill="none" xmlns="http://www.w3.org/2000/svg">
<path fill-rule="evenodd" clip-rule="evenodd" d="M4.50977 12C4.50977 9.68843 5.33237 7.89078 6.6188 6.66877C7.91118 5.44112 9.71915 4.75 11.7598 4.75C12.174 4.75 12.5098 4.41421 12.5098 4C12.5098 3.58579 12.174 3.25 11.7598 3.25C9.38038 3.25 7.18835 4.05888 5.58573 5.58123C3.97716 7.10922 3.00977 9.31157 3.00977 12C3.00977 14.6884 3.97716 16.8908 5.58573 18.4188C7.18835 19.9411 9.38038 20.75 11.7598 20.75C12.174 20.75 12.5098 20.4142 12.5098 20C12.5098 19.5858 12.174 19.25 11.7598 19.25C9.71915 19.25 7.91118 18.5589 6.6188 17.3312C5.33237 16.1092 4.50977 14.3116 4.50977 12ZM16.9094 8.96967C17.2023 8.67678 17.6771 8.67678 17.97 8.96967L20.53 11.5297C20.8229 11.8226 20.8229 12.2974 20.53 12.5903L17.97 15.1503C17.6771 15.4432 17.2023 15.4432 16.9094 15.1503C16.6165 14.8574 16.6165 14.3826 16.9094 14.0897L18.189 12.81H9.75977C9.34555 12.81 9.00977 12.4742 9.00977 12.06C9.00977 11.6458 9.34555 11.31 9.75977 11.31H18.189L16.9094 10.0303C16.6165 9.73744 16.6165 9.26256 16.9094 8.96967Z" fill="#919EAB"/>
</svg>
