<svg width="24" height="24" viewBox="0 0 24 24" fill="none" xmlns="http://www.w3.org/2000/svg">
<path fill-rule="evenodd" clip-rule="evenodd" d="M8.79371 4.05038C8.75123 4.37577 8.75002 4.74554 8.75002 5.2V5.25H15.25V5.2C15.25 4.74554 15.2488 4.37577 15.2063 4.05038C15.1647 3.73174 15.0899 3.51724 14.983 3.36267C14.7998 3.09751 14.3295 2.75 12.8 2.75H11.2C9.67051 2.75 9.20027 3.09751 9.017 3.36267C8.91017 3.51724 8.83531 3.73174 8.79371 4.05038ZM7.25002 5.2V5.25H7.00003C4.777 5.25 3.25898 5.76457 2.37357 6.81723C1.49675 7.85967 1.41335 9.22917 1.55388 10.5061L2.30331 18.5L2.30324 18.5L2.3043 18.5099C2.41445 19.538 2.67248 20.6651 3.59042 21.5037C4.50156 22.3361 5.91318 22.75 8.00003 22.75H16C18.0869 22.75 19.4985 22.3361 20.4096 21.5037C21.3276 20.6651 21.5856 19.538 21.6958 18.5099L21.6958 18.5099L21.6968 18.5L22.3867 11.1409C22.3957 11.0938 22.4002 11.046 22.4001 10.998L22.4462 10.5061C22.5867 9.22916 22.5033 7.85966 21.6265 6.81723C20.7411 5.76457 19.2231 5.25 17 5.25H16.75V5.2L16.75 5.17402V5.174C16.75 4.75047 16.7501 4.28788 16.6937 3.85619C16.6353 3.40889 16.5102 2.93401 16.217 2.50983C15.6003 1.61749 14.4705 1.25 12.8 1.25H11.2C9.52953 1.25 8.39978 1.61749 7.78304 2.50983C7.48987 2.93401 7.36473 3.40889 7.30633 3.85619C7.24997 4.28789 7.25 4.75048 7.25002 5.17401L7.25002 5.2ZM20.9533 10.36L20.9317 10.5905C19.0388 11.9054 16.926 12.7538 14.75 13.1467V13L14.75 12.9671V12.9671V12.9671V12.9671C14.7501 12.746 14.7501 12.5219 14.7298 12.3391C14.7091 12.1527 14.6537 11.843 14.4054 11.5947C14.157 11.3463 13.8474 11.2909 13.661 11.2702C13.4781 11.2499 13.254 11.2499 13.0329 11.25L13 11.25H11L10.9672 11.25C10.746 11.2499 10.5219 11.2499 10.3391 11.2702C10.1527 11.2909 9.84306 11.3463 9.59469 11.5947C9.34632 11.843 9.29094 12.1527 9.27023 12.3391C9.24992 12.5219 9.24997 12.746 9.25002 12.9671V12.9672L9.25002 13V13.1679C7.08468 12.8029 4.97412 11.9655 3.07613 10.6733L3.04676 10.36L3.04686 10.36L3.04548 10.3475C2.91699 9.18629 3.04977 8.3436 3.52149 7.78277C3.98608 7.23043 4.95307 6.75 7.00003 6.75H8.00002H16H17C19.047 6.75 20.014 7.23043 20.4786 7.78277C20.9503 8.3436 21.0831 9.18629 20.9546 10.3475L20.9545 10.3475L20.9533 10.36ZM3.25278 12.5576L3.79628 18.3549C3.89633 19.2843 4.10345 19.9407 4.60215 20.3963C5.1085 20.8589 6.06688 21.25 8.00003 21.25H16C17.9332 21.25 18.8916 20.8589 19.3979 20.3963C19.8966 19.9407 20.1037 19.2843 20.2038 18.3549L20.7539 12.4868C18.8704 13.6042 16.8245 14.3294 14.7332 14.6716C14.7277 14.7446 14.7203 14.8177 14.7106 14.8898C14.6697 15.1923 14.58 15.5357 14.3606 15.849C13.8926 16.5172 13.0664 16.75 12 16.75C10.9395 16.75 10.1153 16.5202 9.64563 15.8574C9.42477 15.5458 9.33336 15.2037 9.29124 14.901C9.28153 14.8312 9.27411 14.7606 9.26843 14.6899C7.17956 14.3726 5.13582 13.6566 3.25278 12.5576ZM10.75 14.0387C10.7501 14.0323 10.7501 14.0258 10.75 14.0194V13C10.75 12.9036 10.75 12.8222 10.7508 12.7508C10.8222 12.75 10.9036 12.75 11 12.75H13C13.0965 12.75 13.1778 12.75 13.2492 12.7508C13.25 12.8222 13.25 12.9036 13.25 13V14V14.0001V14.0001V14.0002V14.0002V14.0003V14.0003V14.0004V14.0005V14.0005V14.0006V14.0006V14.0007V14.0007V14.0008V14.0009V14.0009V14.001V14.001V14.0011V14.0011V14.0012V14.0012V14.0013V14.0013V14.0014V14.0014V14.0015V14.0016V14.0016V14.0017V14.0017V14.0018V14.0018V14.0019V14.0019V14.002V14.002V14.0021V14.0021V14.0022V14.0022V14.0023V14.0023V14.0024V14.0024V14.0025V14.0025V14.0026V14.0026V14.0027V14.0027V14.0028V14.0028V14.0029V14.0029V14.0029V14.003V14.003V14.0031V14.0031V14.0032V14.0032V14.0033V14.0033V14.0034V14.0034V14.0035V14.0035V14.0035V14.0036V14.0036V14.0037V14.0037V14.0038V14.0038V14.0039V14.0039V14.0039V14.004V14.004V14.0041V14.0041V14.0042V14.0042V14.0042V14.0043V14.0043V14.0044V14.0044V14.0045V14.0045V14.0045V14.0046V14.0046V14.0047V14.0047V14.0047V14.0048V14.0048V14.0049V14.0049V14.0049V14.005V14.005V14.0051V14.0051V14.0051V14.0052V14.0052V14.0053V14.0053V14.0053V14.0054V14.0054V14.0055V14.0055V14.0055V14.0056V14.0056V14.0056V14.0057V14.0057V14.0058V14.0058V14.0058V14.0059V14.0059V14.0059V14.006V14.006V14.006V14.0061V14.0061V14.0062V14.0062V14.0062V14.0063V14.0063V14.0063V14.0064V14.0064V14.0064V14.0065V14.0065V14.0065V14.0066V14.0066V14.0066V14.0067V14.0067V14.0068V14.0068V14.0068V14.0069V14.0069V14.0069V14.007V14.007V14.007V14.0071V14.0071V14.0071V14.0072V14.0072V14.0072V14.0073V14.0073V14.0073V14.0074V14.0074V14.0074V14.0075V14.0075V14.0075V14.0075V14.0076V14.0076V14.0076V14.0077V14.0077V14.0077V14.0078V14.0078V14.0078V14.0079V14.0079V14.0079V14.008V14.008V14.008V14.0081V14.0081V14.0081C13.2499 14.0154 13.2499 14.0227 13.25 14.03C13.25 14.3078 13.2479 14.513 13.2241 14.6887C13.201 14.8596 13.1638 14.9431 13.1319 14.9885C13.0974 15.0378 12.9236 15.25 12 15.25C11.0806 15.25 10.9047 15.0398 10.8694 14.9901C10.8378 14.9454 10.8004 14.8632 10.7769 14.6943C10.7527 14.5204 10.7501 14.3158 10.75 14.0387Z" fill="#919EAB"/>
</svg>
