<svg width="16" height="16" viewBox="0 0 16 16" fill="none" xmlns="http://www.w3.org/2000/svg">
<path fill-rule="evenodd" clip-rule="evenodd" d="M2.51422 6.92213C2.51422 4.4877 4.48771 2.5142 6.92214 2.5142C9.35657 2.5142 11.3301 4.4877 11.3301 6.92213C11.3301 9.35655 9.35657 11.33 6.92214 11.33C4.48771 11.33 2.51422 9.35655 2.51422 6.92213ZM6.92214 1.32999C3.83369 1.32999 1.33 3.83367 1.33 6.92213C1.33 10.0106 3.83369 12.5143 6.92214 12.5143C10.0106 12.5143 12.5143 10.0106 12.5143 6.92213C12.5143 3.83367 10.0106 1.32999 6.92214 1.32999ZM12.4525 11.3918C12.1596 11.0989 11.6847 11.0989 11.3918 11.3918C11.0989 11.6847 11.0989 12.1595 11.3918 12.4524L13.3918 14.4524C13.6847 14.7453 14.1596 14.7453 14.4525 14.4524C14.7453 14.1595 14.7453 13.6847 14.4525 13.3918L12.4525 11.3918Z" fill="#919EAB"/>
</svg>
