<svg width="24" height="24" viewBox="0 0 24 24" fill="none" xmlns="http://www.w3.org/2000/svg">
<path fill-rule="evenodd" clip-rule="evenodd" d="M7.45946 6.31484L7.45949 6.31468L7.45952 6.31449C7.5496 5.77969 7.60153 5.60454 7.69365 5.50008C7.74208 5.44516 7.92378 5.28027 8.68988 5.28027H11.3099C12.0647 5.28027 12.2522 5.44987 12.3059 5.51183C12.4031 5.62379 12.456 5.80794 12.5397 6.32096L12.5396 6.32096L12.5404 6.32542L12.6969 7.25021H7.30238L7.45946 6.31484ZM5.77509 7.2876L5.98024 6.06606L5.98029 6.06571L5.99204 5.99515C6.0609 5.57927 6.16192 4.96915 6.56861 4.50796C7.04267 3.97039 7.76597 3.78027 8.68988 3.78027H11.3099C12.245 3.78027 12.9676 3.98567 13.4388 4.52872C13.8461 4.99803 13.9446 5.61033 14.0103 6.01918L14.0197 6.07738L14.2245 7.28758C15.6347 7.38479 16.7546 7.69412 17.5303 8.46988C18.5188 9.45839 18.75 11.0056 18.75 13.0002V17.0002C18.75 18.9949 18.5188 20.542 17.5303 21.5305C16.5418 22.5191 14.9946 22.7502 13 22.7502H7C5.00536 22.7502 3.45818 22.5191 2.46967 21.5305C1.48116 20.542 1.25 18.9949 1.25 17.0002V13.0002C1.25 11.0056 1.48116 9.45839 2.46967 8.46988C3.24537 7.69419 4.36509 7.38485 5.77509 7.2876ZM2.75 13.0002C2.75 10.9949 3.01884 10.042 3.53033 9.53054C4.04182 9.01905 4.99464 8.75021 7 8.75021H13C15.0054 8.75021 15.9582 9.01905 16.4697 9.53054C16.9812 10.042 17.25 10.9949 17.25 13.0002V17.0002C17.25 19.0056 16.9812 19.9584 16.4697 20.4699C15.9582 20.9814 15.0054 21.2502 13 21.2502H7C4.99464 21.2502 4.04182 20.9814 3.53033 20.4699C3.01884 19.9584 2.75 19.0056 2.75 17.0002V13.0002ZM19.75 12.5002C19.75 12.086 20.0858 11.7502 20.5 11.7502C20.5838 11.7502 20.6672 11.7515 20.75 11.7546V9.62218C19.8761 9.31331 19.25 8.47988 19.25 7.50021C19.25 6.25757 20.2574 5.25021 21.5 5.25021C22.7426 5.25021 23.75 6.25757 23.75 7.50021C23.75 8.47988 23.1239 9.31331 22.25 9.62218V12.2434C22.3081 12.298 22.3624 12.3584 22.4125 12.4252C22.6168 12.6976 22.6895 13.0005 22.7208 13.2509C22.7501 13.4855 22.75 13.7448 22.75 13.9741V13.9741L22.75 14.0002V16.0002L22.75 16.0263V16.0264C22.75 16.2556 22.7501 16.5149 22.7208 16.7495C22.6895 16.9999 22.6168 17.3028 22.4125 17.5752C21.9868 18.1428 21.2564 18.2502 20.5 18.2502C20.0858 18.2502 19.75 17.9144 19.75 17.5002C19.75 17.086 20.0858 16.7502 20.5 16.7502C20.8433 16.7502 21.0426 16.7204 21.1541 16.6874C21.182 16.6791 21.2008 16.6718 21.2129 16.6663C21.2181 16.6485 21.2257 16.6163 21.2324 16.5634C21.2488 16.432 21.25 16.2647 21.25 16.0002V14.0002C21.25 13.7358 21.2488 13.5684 21.2324 13.437C21.2257 13.3841 21.2181 13.3519 21.2129 13.3341C21.2008 13.3287 21.182 13.3213 21.1541 13.3131C21.0426 13.28 20.8433 13.2502 20.5 13.2502C20.0858 13.2502 19.75 12.9144 19.75 12.5002ZM21.5 8.25021C21.9142 8.25021 22.25 7.91443 22.25 7.50021C22.25 7.086 21.9142 6.75021 21.5 6.75021C21.0858 6.75021 20.75 7.086 20.75 7.50021C20.75 7.91443 21.0858 8.25021 21.5 8.25021ZM21.2311 13.3441C21.231 13.3442 21.2299 13.3434 21.2279 13.3419C21.2303 13.3433 21.2312 13.3441 21.2311 13.3441ZM21.2311 16.6563C21.2312 16.6563 21.231 16.6565 21.2307 16.6567L21.2279 16.6586L21.2303 16.6568L21.2311 16.6563ZM7.5 12.7502C6.80964 12.7502 6.25 13.3099 6.25 14.0002V15.0002C6.25 15.6906 6.80964 16.2502 7.5 16.2502H12.5C13.1904 16.2502 13.75 15.6906 13.75 15.0002V14.0002C13.75 13.3099 13.1904 12.7502 12.5 12.7502H7.5ZM4.75 14.0002C4.75 12.4814 5.98122 11.2502 7.5 11.2502H12.5C14.0188 11.2502 15.25 12.4814 15.25 14.0002V15.0002C15.25 16.519 14.0188 17.7502 12.5 17.7502H7.5C5.98122 17.7502 4.75 16.519 4.75 15.0002V14.0002Z" fill="#919EAB"/>
</svg>
