<svg width="24" height="24" viewBox="0 0 24 24" fill="none" xmlns="http://www.w3.org/2000/svg">
<path fill-rule="evenodd" clip-rule="evenodd" d="M7.8883 3.58266C7.44184 3.96223 7.10819 4.50211 6.92374 5.25H13.19C14.9012 5.25 16.3229 5.67971 17.3116 6.66842C18.3003 7.65714 18.73 9.0788 18.73 10.79V14.6567C19.4787 14.4728 20.0185 14.1404 20.3977 13.695C20.9163 13.086 21.23 12.1544 21.23 10.79V6.79001C21.23 5.31121 20.8597 4.33787 20.2509 3.72908C19.6421 3.12029 18.6688 2.75 17.19 2.75H10.79C9.43122 2.75 8.49903 3.06344 7.8883 3.58266ZM6.14728 6.78247C6.12902 6.78509 6.11056 6.78705 6.09194 6.78832C4.89002 6.89324 4.092 7.2892 3.58266 7.8883C3.06344 8.49903 2.75 9.43122 2.75 10.79V14.79C2.75 16.7255 3.14374 17.6413 3.69207 18.1201C4.2656 18.6209 5.20732 18.83 6.79001 18.83H7.19C7.45271 18.83 7.69761 18.9137 7.88205 19.0069C8.06697 19.1003 8.27317 19.2449 8.42576 19.4444L8.43001 19.45L8.42999 19.45L9.63 21.05L9.63101 21.0514C9.77703 21.247 9.91454 21.2825 9.99001 21.2825C10.0655 21.2825 10.203 21.247 10.349 21.0514L10.35 21.05L11.55 19.45L12.15 19.9L11.55 19.45C11.8416 19.0611 12.3039 18.83 12.79 18.83H13.19C14.55 18.83 15.482 18.5185 16.0922 18.0006C16.6905 17.493 17.0867 16.6957 17.1917 15.4883C17.1929 15.4696 17.1949 15.4511 17.1975 15.4327C17.221 15.2384 17.23 15.0265 17.23 14.79V10.79C17.23 9.31121 16.8597 8.33787 16.2509 7.72908C15.6421 7.12029 14.6688 6.75 13.19 6.75H6.79001C6.55348 6.75 6.3416 6.759 6.14728 6.78247ZM6.91672 2.43984C6.07072 3.15908 5.57257 4.16066 5.36902 5.36902C4.16066 5.57257 3.15908 6.07072 2.43984 6.91672C1.61156 7.89098 1.25 9.21879 1.25 10.79V14.79C1.25 16.8545 1.65627 18.3338 2.70544 19.2499C3.72941 20.1441 5.1827 20.33 6.79001 20.33H7.16804C7.1769 20.3328 7.19004 20.3378 7.20544 20.3456C7.22253 20.3542 7.23609 20.3631 7.24465 20.3695L8.42898 21.9486L8.42948 21.9493C8.81345 22.4633 9.37073 22.7825 9.99001 22.7825C10.6093 22.7825 11.1666 22.4633 11.5505 21.9493L11.551 21.9486L12.75 20.35C12.7531 20.3459 12.759 20.3403 12.7679 20.3358C12.7769 20.3313 12.7848 20.33 12.79 20.33H13.19C14.76 20.33 16.088 19.9715 17.0628 19.1444C17.9098 18.4256 18.408 17.4231 18.6113 16.2111C19.8186 16.0082 20.8202 15.5126 21.5398 14.6675C22.3687 13.694 22.73 12.3657 22.73 10.79V6.79001C22.73 5.0788 22.3003 3.65714 21.3116 2.66842C20.3229 1.67971 18.9012 1.25 17.19 1.25H10.79C9.21879 1.25 7.89098 1.61156 6.91672 2.43984ZM5.4955 13.25C5.4955 12.6977 5.94321 12.25 6.4955 12.25H6.5045C7.05678 12.25 7.5045 12.6977 7.5045 13.25C7.5045 13.8023 7.05678 14.25 6.5045 14.25H6.4955C5.94321 14.25 5.4955 13.8023 5.4955 13.25ZM9.9955 12.25C9.44321 12.25 8.9955 12.6977 8.9955 13.25C8.9955 13.8023 9.44321 14.25 9.9955 14.25H10.0045C10.5568 14.25 11.0045 13.8023 11.0045 13.25C11.0045 12.6977 10.5568 12.25 10.0045 12.25H9.9955ZM13.4955 12.25C12.9432 12.25 12.4955 12.6977 12.4955 13.25C12.4955 13.8023 12.9432 14.25 13.4955 14.25H13.5045C14.0568 14.25 14.5045 13.8023 14.5045 13.25C14.5045 12.6977 14.0568 12.25 13.5045 12.25H13.4955Z" fill="#919EAB"/>
</svg>
