<svg width="32" height="32" viewBox="0 0 32 32" fill="none" xmlns="http://www.w3.org/2000/svg">
<path d="M0 16C0 7.16344 7.16344 0 16 0C24.8366 0 32 7.16344 32 16C32 24.8366 24.8366 32 16 32C7.16344 32 0 24.8366 0 16Z" fill="url(#paint0_linear_355_832)"/>
<path d="M22.0065 9.09072C21.5166 9.28364 11.1795 13.6374 7.61968 15.1354C7.41164 15.2226 7 15.3559 7 15.7898C7 16.1383 7.26761 16.3108 7.57611 16.4335C8.1789 16.6735 10.0326 17.415 10.839 17.7377C11.0817 17.8346 11.2684 18.0329 11.3511 18.2809C11.6338 19.1282 12.2908 21.1019 12.4562 21.6247C12.6687 22.2968 12.8394 22.3128 12.8394 22.3128C12.8865 22.3333 12.9327 22.3413 12.9754 22.3413C13.1123 22.3413 13.2172 22.2613 13.2172 22.2613L15.2878 20.5098C15.631 20.22 16.136 20.2307 16.4658 20.5356L19.0219 22.8996C19.0219 22.8996 19.3331 23.2241 19.6771 23.2241C20.0959 23.2241 20.399 22.8063 20.4524 22.5351C20.5253 22.1564 22.956 9.95133 22.956 9.95133C23.1765 8.96714 22.523 8.88712 22.0065 9.09072Z" stroke="white" stroke-width="1.5" stroke-miterlimit="10"/>
<path d="M19.2691 12.5562C19.1579 12.5562 19.0077 12.662 18.9277 12.7117C17.7825 13.4257 12.041 16.693 10.4665 17.5874C10.9101 17.7652 11.223 17.8905 11.223 17.8905C11.223 17.8905 12.2464 20.9533 12.4588 21.6246C12.6713 22.2967 12.842 22.3127 12.842 22.3127C12.8891 22.3332 12.9354 22.3412 12.9781 22.3412C13.0127 22.3412 13.0367 22.3287 13.0661 22.3207L14.1125 18.2239C14.1125 18.2239 18.8805 13.3981 19.1677 13.1171C19.3989 12.8922 19.4469 12.8131 19.4469 12.7349C19.4469 12.6308 19.3926 12.5562 19.2691 12.5562Z" fill="white"/>
<defs>
<linearGradient id="paint0_linear_355_832" x1="16" y1="0" x2="16" y2="32" gradientUnits="userSpaceOnUse">
<stop stop-color="#38B0E3"/>
<stop offset="1" stop-color="#1D93D2"/>
</linearGradient>
</defs>
</svg>
