<svg width="24" height="24" viewBox="0 0 24 24" fill="none" xmlns="http://www.w3.org/2000/svg">
<path d="M18.91 14.6927C18.91 15.9827 19.97 17.0327 21.26 17.0327C21.26 20.7827 20.32 21.7227 16.57 21.7227H7.19C3.44 21.7227 2.5 20.7827 2.5 17.0327V16.5727C3.79 16.5727 4.85 15.5127 4.85 14.2227C4.85 12.9327 3.79 11.8727 2.5 11.8727V11.4127C2.51 7.66266 3.44 6.72266 7.19 6.72266H16.56C20.31 6.72266 21.25 7.66266 21.25 11.4127V12.3527C19.96 12.3527 18.91 13.3927 18.91 14.6927Z" stroke="#00AB55" stroke-width="1.5" stroke-linecap="round" stroke-linejoin="round"/>
<path d="M16.2111 6.72262H7.12109L10.0511 3.79262C12.4411 1.40262 13.6411 1.40262 16.0311 3.79262L16.6311 4.39262C16.0011 5.02262 15.8511 5.95262 16.2111 6.72262Z" stroke="#00AB55" stroke-width="1.5" stroke-linecap="round" stroke-linejoin="round"/>
<path d="M9.87891 6.72278L9.87891 21.7228" stroke="#00AB55" stroke-width="1.5" stroke-linecap="round" stroke-linejoin="round" stroke-dasharray="5 5"/>
</svg>
