<svg width="16" height="16" viewBox="0 0 16 16" fill="none" xmlns="http://www.w3.org/2000/svg">
<path d="M6 12L5.46967 12.5303C5.76256 12.8232 6.23744 12.8232 6.53033 12.5303L6 12ZM3.53033 8.46967C3.23744 8.17678 2.76256 8.17678 2.46967 8.46967C2.17678 8.76256 2.17678 9.23744 2.46967 9.53033L3.53033 8.46967ZM13.5303 5.53033C13.8232 5.23744 13.8232 4.76256 13.5303 4.46967C13.2374 4.17678 12.7626 4.17678 12.4697 4.46967L13.5303 5.53033ZM6.53033 11.4697L3.53033 8.46967L2.46967 9.53033L5.46967 12.5303L6.53033 11.4697ZM12.4697 4.46967L5.46967 11.4697L6.53033 12.5303L13.5303 5.53033L12.4697 4.46967Z" fill="#54D62C"/>
</svg>
