<svg width="24" height="24" viewBox="0 0 24 24" fill="none" xmlns="http://www.w3.org/2000/svg">
<path fill-rule="evenodd" clip-rule="evenodd" d="M20.18 10.52C19.72 10.98 19.14 11.39 18.48 11.64C17.5297 13.9793 15.3602 15.684 12.75 15.9605V18.25H15C16.1 18.25 17 19.15 17 20.25V20.5H18C18.41 20.5 18.75 20.84 18.75 21.25C18.75 21.66 18.41 22 18 22H6C5.59 22 5.25 21.66 5.25 21.25C5.25 20.84 5.59 20.5 6 20.5H7V20.25C7 19.15 7.9 18.25 9 18.25H11.25V15.9605C8.63975 15.684 6.47033 13.9793 5.52 11.64C4.86 11.39 4.28 10.98 3.82 10.52C2.89 9.49 2.28 8.26 2.28 6.82C2.28 5.38 3.41 4.25 4.85 4.25H5.41C6.06 2.92 7.42 2 9 2H15C16.58 2 17.94 2.92 18.59 4.25H19.15C20.59 4.25 21.72 5.38 21.72 6.82C21.72 8.26 21.11 9.49 20.18 10.52ZM11.2894 15.9646C11.5263 15.991 11.7631 16 12 16C12.2369 16 12.4737 15.991 12.7106 15.9646C12.477 15.988 12.24 16 12 16C11.76 16 11.523 15.988 11.2894 15.9646ZM14.22 9.21L14.84 8.45C15.23 7.99 15.06 7.48 14.48 7.33L13.53 7.09C13.38 7.05 13.2 6.91 13.12 6.78L12.59 5.96C12.26 5.45 11.74 5.45 11.41 5.96L10.88 6.78C10.8 6.91 10.62 7.05 10.47 7.09L9.52 7.33C8.94 7.48 8.77 7.99 9.16 8.45L9.78 9.21C9.88 9.32 9.95 9.54 9.94 9.69L9.88 10.67C9.84 11.27 10.27 11.58 10.83 11.36L11.74 11C11.88 10.95 12.12 10.95 12.26 11L13.17 11.36C13.73 11.58 14.16 11.27 14.12 10.67L14.06 9.69C14.05 9.54 14.12 9.32 14.22 9.21Z" fill="#00AB55"/>
</svg>
