<svg width="31" height="24" fill="none" xmlns="http://www.w3.org/2000/svg"><path fill-rule="evenodd" clip-rule="evenodd" d="M14.887 1.596A9.498 9.498 0 0 0 9.587 0C4.288 0 0 4.284 0 9.579c0 5.295 4.288 9.579 9.588 9.579a9.563 9.563 0 0 0 5.3-1.597c-.04-.026-.08-.06-.12-.093a1.45 1.45 0 0 0-.12-.093 10.282 10.282 0 0 1-3.542-7.796c0-3.007 1.278-5.827 3.542-7.796.04-.027.08-.06.12-.093.04-.034.08-.067.12-.094ZM31 9.58C31 4.31 26.712 0 21.412 0c-1.97 0-3.781.585-5.3 1.596.04.027.08.06.12.094.04.033.08.066.12.093a10.282 10.282 0 0 1 3.542 7.796c0 2.98-1.305 5.827-3.542 7.796-.04.027-.08.06-.12.093-.04.033-.08.067-.12.093a9.563 9.563 0 0 0 5.3 1.597c5.3 0 9.588-4.284 9.588-9.58Zm-15.247-7.31c-.083-.072-.162-.139-.253-.194l-.186.147-.187.146a9.539 9.539 0 0 0-3.302 7.238 9.58 9.58 0 0 0 3.302 7.237c.107.106.24.213.373.293l.186-.147.187-.146a9.538 9.538 0 0 0 3.302-7.237 9.58 9.58 0 0 0-3.422-7.338ZM5.451 22.358v1.588h-.618v-1.404c0-.425-.186-.663-.558-.663-.344 0-.611.213-.611.663v1.405h-.559v-1.405c0-.425-.186-.663-.558-.663-.372 0-.611.213-.611.663v1.405h-.559v-2.543h.559v.318a.86.86 0 0 1 .744-.37c.4 0 .667.16.854.45.238-.346.586-.45.905-.45.64 0 1.012.397 1.012 1.005Zm7.378-.954h.902v.503h-.906v1.138c0 .263.106.423.373.423.133 0 .32-.028.48-.133l.162.479a1.507 1.507 0 0 1-.692.185c-.639 0-.878-.343-.878-.926v-1.166h-.506v-.503h.506v-.769h.559v.769Zm4.979.314a.758.758 0 0 1 .667-.37c.106 0 .264 0 .375.022l-.16.53a1.728 1.728 0 0 0-.348-.052c-.348 0-.534.24-.534.664v1.431h-.558v-2.542h.558v.317Zm-7.536-.37c.4 0 .773.08 1.04.265l-.236.451c-.162-.08-.481-.213-.8-.213-.296 0-.482.105-.482.29 0 .158.186.21.425.238l.267.028c.53.08.878.317.878.768 0 .475-.428.82-1.173.82-.4 0-.8-.104-1.092-.317l.267-.423c.186.133.481.266.853.266.373 0 .587-.133.587-.318 0-.133-.162-.213-.453-.266l-.267-.027c-.558-.078-.878-.318-.878-.741 0-.503.425-.82 1.064-.82Zm15.23.37a.758.758 0 0 1 .667-.37c.109 0 .267 0 .376.028l-.162.524a1.73 1.73 0 0 0-.347-.052c-.348 0-.534.24-.534.664v1.431h-.558v-2.542h.558v.317ZM20.392 24c-.825 0-1.358-.555-1.358-1.324 0-.768.533-1.327 1.358-1.324.373 0 .64.077.906.29l-.266.45a1.096 1.096 0 0 0-.668-.237c-.453.025-.772.343-.772.821 0 .503.32.821.773.821.242 0 .452-.077.667-.238l.266.45c-.266.21-.533.291-.906.291Zm3.807-2.595v2.543h-.558v-.318c-.162.237-.428.37-.8.37-.72 0-1.279-.555-1.279-1.324 0-.768.558-1.324 1.278-1.324.348 0 .615.133.8.37v-.317h.56Zm-1.278.45c-.481 0-.773.37-.773.821 0 .448.295.793.773.821.453 0 .772-.37.772-.82 0-.476-.32-.822-.772-.822Zm-8.734.818c0-.793.534-1.324 1.279-1.324.716 0 1.197.53 1.172 1.349v.213H14.75c.08.447.425.608.772.608.264 0 .531-.105.745-.266l.267.398c-.295.241-.667.346-1.04.346-.772 0-1.306-.528-1.306-1.324Zm1.918-.238c-.053-.395-.292-.607-.64-.607-.4 0-.639.265-.691.607h1.33ZM29.34 20.4V23.948h-.558v-.318c-.162.237-.429.37-.8.37-.72 0-1.28-.555-1.28-1.324 0-.768.56-1.324 1.28-1.324.347 0 .613.133.8.37V20.4h.558Zm-1.278 1.456c-.481 0-.773.37-.773.821 0 .448.292.793.773.821.453 0 .772-.37.772-.82 0-.476-.32-.822-.772-.822Zm-19.468-.45v2.543h-.559v-.318c-.161.237-.428.37-.8.37-.72 0-1.278-.555-1.278-1.324 0-.768.558-1.324 1.278-1.324.347 0 .614.133.8.37v-.317h.559Zm-1.303.45c-.481 0-.773.37-.773.821 0 .448.292.793.773.821.453 0 .772-.37.772-.82 0-.476-.32-.822-.772-.822Z" fill="#333D48"/></svg>