<svg width="63" height="32" fill="none" xmlns="http://www.w3.org/2000/svg"><path fill-rule="evenodd" clip-rule="evenodd" d="M0 9a4.75 4.75 0 0 1 4.75-4.75h8A4.75 4.75 0 0 1 17.5 9v14a4.75 4.75 0 0 1-4.75 4.75h-8A4.75 4.75 0 0 1 0 23V9Zm4.75-3.25A3.25 3.25 0 0 0 1.5 9v14a3.25 3.25 0 0 0 3.25 3.25h8A3.25 3.25 0 0 0 16 23V9a3.25 3.25 0 0 0-3.25-3.25h-8Zm1.5 3A.75.75 0 0 1 7 8h4a.75.75 0 0 1 0 1.5H7a.75.75 0 0 1-.75-.75Zm1.5 13a1.25 1.25 0 1 1 2.5 0 1.25 1.25 0 0 1-2.5 0ZM9 19a2.75 2.75 0 1 0 0 5.5A2.75 2.75 0 0 0 9 19Z" fill="#919EAB"/><path d="M25.524 13.156V7.3H26.7v.948c.176-.336.42-.596.732-.78a2.11 2.11 0 0 1 1.092-.276c.896 0 1.476.392 1.74 1.176.184-.368.448-.656.792-.864a2.228 2.228 0 0 1 1.176-.312c1.312 0 1.968.784 1.968 2.352v3.612h-1.212V9.604c0-.496-.088-.86-.264-1.092-.168-.232-.448-.348-.84-.348-.44 0-.788.156-1.044.468-.256.304-.384.72-.384 1.248v3.276h-1.212V9.604c0-.496-.084-.86-.252-1.092-.168-.232-.448-.348-.84-.348-.44 0-.788.156-1.044.468-.248.304-.372.72-.372 1.248v3.276h-1.212ZM38.559 13.264c-.592 0-1.104-.124-1.536-.372a2.586 2.586 0 0 1-1.009-1.044c-.232-.456-.348-.996-.348-1.62 0-.624.117-1.16.349-1.608.24-.456.575-.808 1.008-1.056.431-.248.944-.372 1.535-.372.577 0 1.08.124 1.513.372.431.248.768.6 1.008 1.056.24.448.36.984.36 1.608 0 .624-.12 1.164-.36 1.62-.24.448-.577.796-1.008 1.044-.432.248-.936.372-1.512.372Zm0-.936c.495 0 .896-.18 1.2-.54.303-.36.456-.88.456-1.56s-.153-1.196-.457-1.548c-.303-.36-.704-.54-1.2-.54-.504 0-.907.18-1.212.54-.303.352-.455.868-.455 1.548s.151 1.2.456 1.56c.303.36.707.54 1.212.54ZM46.064 13.264c-.448 0-.844-.1-1.188-.3-.344-.2-.6-.468-.768-.804v.996H42.92v-8.46h1.212v3.552c.176-.32.432-.576.768-.768a2.347 2.347 0 0 1 1.164-.288c.52 0 .972.124 1.356.372.392.248.692.6.9 1.056.216.448.324.984.324 1.608 0 .624-.108 1.164-.324 1.62a2.384 2.384 0 0 1-.9 1.056c-.384.24-.836.36-1.356.36Zm-.3-.936c.504 0 .904-.18 1.2-.54.304-.36.456-.88.456-1.56s-.152-1.196-.456-1.548c-.296-.36-.696-.54-1.2-.54s-.908.18-1.212.54c-.296.352-.444.868-.444 1.548s.148 1.2.444 1.56c.304.36.708.54 1.212.54ZM50.022 5.944v-1.26h1.416v1.26h-1.416Zm.108 7.212V7.3h1.212v5.856H50.13ZM55.075 13.264c-.64 0-1.12-.18-1.44-.54-.311-.36-.468-.888-.468-1.584V4.696h1.212v6.372c0 .792.325 1.188.973 1.188.096 0 .184-.004.264-.012.087-.008.175-.024.264-.048l-.025.972a3.406 3.406 0 0 1-.78.096ZM59.645 13.264c-.96 0-1.716-.268-2.268-.804-.552-.544-.828-1.284-.828-2.22 0-.6.12-1.128.36-1.584a2.711 2.711 0 0 1 1.02-1.08c.432-.256.928-.384 1.488-.384.808 0 1.444.26 1.908.78.464.512.696 1.22.696 2.124v.408h-4.296c.088 1.216.732 1.824 1.932 1.824.336 0 .664-.052.984-.156.328-.104.636-.276.924-.516l.36.84c-.264.24-.604.428-1.02.564a4.032 4.032 0 0 1-1.26.204Zm-.18-5.22c-.504 0-.904.156-1.2.468-.296.312-.476.728-.54 1.248H61c-.024-.544-.168-.964-.432-1.26-.264-.304-.632-.456-1.104-.456ZM25.5 27.316V19.3h1.188v.996c.168-.336.424-.604.768-.804.344-.2.74-.3 1.188-.3.52 0 .972.124 1.356.372.392.248.692.6.9 1.056.216.448.324.984.324 1.608 0 .624-.108 1.164-.324 1.62a2.384 2.384 0 0 1-.9 1.056c-.384.24-.836.36-1.356.36-.432 0-.82-.092-1.164-.276a1.946 1.946 0 0 1-.768-.78v3.108H25.5Zm2.844-2.988c.504 0 .904-.18 1.2-.54.304-.36.456-.88.456-1.56s-.152-1.196-.456-1.548c-.296-.36-.696-.54-1.2-.54s-.908.18-1.212.54c-.296.352-.444.868-.444 1.548s.148 1.2.444 1.56c.304.36.708.54 1.212.54ZM32.71 25.156v-8.46h1.212v3.516c.2-.336.468-.588.804-.756a2.492 2.492 0 0 1 1.152-.264c1.384 0 2.076.784 2.076 2.352v3.612h-1.212v-3.54c0-.504-.1-.872-.3-1.104-.192-.232-.496-.348-.912-.348-.488 0-.88.156-1.176.468-.288.304-.432.708-.432 1.212v3.312H32.71ZM42.288 25.264c-.592 0-1.104-.124-1.536-.372a2.586 2.586 0 0 1-1.008-1.044c-.232-.456-.348-.996-.348-1.62 0-.624.116-1.16.348-1.608.24-.456.576-.808 1.008-1.056.432-.248.944-.372 1.536-.372.576 0 1.08.124 1.512.372.432.248.768.6 1.008 1.056.24.448.36.984.36 1.608 0 .624-.12 1.164-.36 1.62-.24.448-.576.796-1.008 1.044-.432.248-.936.372-1.512.372Zm0-.936c.496 0 .896-.18 1.2-.54.304-.36.456-.88.456-1.56s-.152-1.196-.456-1.548c-.304-.36-.704-.54-1.2-.54-.504 0-.908.18-1.212.54-.304.352-.456.868-.456 1.548s.152 1.2.456 1.56c.304.36.708.54 1.212.54ZM46.65 25.156V19.3h1.175v.972c.2-.352.472-.62.816-.804a2.5 2.5 0 0 1 1.176-.276c1.384 0 2.076.784 2.076 2.352v3.612h-1.212v-3.54c0-.504-.1-.872-.3-1.104-.192-.232-.496-.348-.912-.348-.488 0-.88.156-1.176.468-.288.304-.432.708-.432 1.212v3.312H46.65ZM56.431 25.264c-.96 0-1.716-.268-2.268-.804-.552-.544-.828-1.284-.828-2.22 0-.6.12-1.128.36-1.584a2.711 2.711 0 0 1 1.02-1.08c.432-.256.928-.384 1.488-.384.808 0 1.444.26 1.908.78.464.512.696 1.22.696 2.124v.408h-4.296c.088 1.216.732 1.824 1.932 1.824.336 0 .664-.052.984-.156.328-.104.636-.276.924-.516l.36.84c-.264.24-.604.428-1.02.564a4.032 4.032 0 0 1-1.26.204Zm-.18-5.22c-.504 0-.904.156-1.2.468-.296.312-.476.728-.54 1.248h3.276c-.024-.544-.168-.964-.432-1.26-.264-.304-.632-.456-1.104-.456Z" fill="#919EAB"/></svg>