<svg width="24" height="24" viewBox="0 0 24 24" fill="none" xmlns="http://www.w3.org/2000/svg">
<path fill-rule="evenodd" clip-rule="evenodd" d="M6.66275 1.25C5.40569 1.25 4.23225 1.87985 3.53751 2.92747L1.57789 5.88245C0.680955 7.23497 0.755833 9.01098 1.76344 10.2832L9.06017 19.4963C10.5616 21.3919 13.4382 21.3919 14.9396 19.4963L22.2363 10.2832C23.2439 9.01098 23.3188 7.23497 22.4218 5.88244L20.4622 2.92747C19.7675 1.87984 18.594 1.25 17.337 1.25H11.9999H6.66275ZM10.7442 2.75H6.66275C6.37373 2.75 6.09208 2.80549 5.83114 2.90931L8.44592 7.01825L10.7442 2.75ZM4.68793 3.90678L2.82799 6.71146C2.61674 7.03001 2.49533 7.38772 2.46236 7.75092C2.47479 7.75031 2.48729 7.75 2.49987 7.75H7.13361L4.68793 3.90678ZM9.75553 7.75H14.2442L11.9999 3.58195L9.75553 7.75ZM16.8661 7.75H21.4999C21.5124 7.75 21.525 7.75031 21.5374 7.75092C21.5044 7.38772 21.383 7.03001 21.1717 6.71146L19.3118 3.90678L16.8661 7.75ZM18.1686 2.90931L15.5538 7.01825L13.2555 2.75H17.337C17.626 2.75 17.9077 2.80549 18.1686 2.90931ZM11.9999 17.4241L9.51209 9.25H14.4876L11.9999 17.4241ZM2.86316 9.25H7.94416L10.9621 19.1659C10.6902 19.0248 10.4416 18.8245 10.2361 18.565L2.93932 9.35191C2.91286 9.31851 2.88747 9.28452 2.86316 9.25ZM16.0556 9.25L13.0377 19.1659C13.3096 19.0249 13.5581 18.8245 13.7637 18.565L21.0604 9.35192C21.0869 9.31851 21.1123 9.28452 21.1366 9.25H16.0556Z" fill="#919EAB"/>
</svg>
