<svg width="24" height="24" viewBox="0 0 24 24" fill="none" xmlns="http://www.w3.org/2000/svg">
<path fill-rule="evenodd" clip-rule="evenodd" d="M2.59739 4.34847C3.58642 3.4639 5.08145 3.25 6.99488 3.25H8.99316H16.9949C18.9895 3.25 20.5367 3.48116 21.5252 4.46967C22.5137 5.45818 22.7449 7.00536 22.7449 9V15C22.7449 16.9946 22.5137 18.5418 21.5252 19.5303C20.5367 20.5188 18.9895 20.75 16.9949 20.75H8.99316H6.99488C5.08145 20.75 3.58642 20.5361 2.59739 19.6515C1.58648 18.7474 1.30059 17.3275 1.25512 15.5188C1.25006 15.3174 1.32627 15.1224 1.46658 14.9778C1.60689 14.8331 1.79949 14.7511 2.001 14.75C3.52057 14.7421 4.74488 13.515 4.74488 12C4.74488 10.4814 3.51788 9.25 2.00488 9.25C1.8027 9.25 1.60909 9.16837 1.46793 9.02362C1.32678 8.87888 1.25004 8.68327 1.25512 8.48115C1.30059 6.67254 1.58648 5.25262 2.59739 4.34847ZM9.74316 19.25V16.5C9.74316 16.0858 9.40738 15.75 8.99316 15.75C8.57895 15.75 8.24316 16.0858 8.24316 16.5V19.25H6.99488C5.07831 19.25 4.12335 19.0039 3.59737 18.5335C3.16425 18.1461 2.88615 17.4788 2.78819 16.1749C4.75601 15.8013 6.24488 14.0782 6.24488 12C6.24488 9.92574 4.75922 8.19117 2.78839 7.82235C2.88654 6.52031 3.16456 5.85363 3.59737 5.46653C4.12335 4.9961 5.07831 4.75 6.99488 4.75H8.24316V7.5C8.24316 7.91421 8.57895 8.25 8.99316 8.25C9.40738 8.25 9.74316 7.91421 9.74316 7.5V4.75H16.9949C19.0002 4.75 19.9531 5.01884 20.4646 5.53033C20.976 6.04182 21.2449 6.99464 21.2449 9V15C21.2449 17.0054 20.976 17.9582 20.4646 18.4697C19.9531 18.9812 19.0002 19.25 16.9949 19.25H9.74316Z" fill="#919EAB"/>
<path d="M15.025 9.33L15.645 10.58C15.705 10.7 15.825 10.79 15.955 10.81L17.335 11.01C17.675 11.06 17.815 11.48 17.565 11.72L16.565 12.69C16.465 12.78 16.425 12.92 16.445 13.06L16.685 14.43C16.745 14.77 16.385 15.03 16.085 14.87L14.855 14.22C14.735 14.16 14.585 14.16 14.465 14.22L13.235 14.87C12.925 15.03 12.575 14.77 12.635 14.43L12.875 13.06C12.895 12.92 12.855 12.79 12.755 12.69L11.765 11.72C11.515 11.48 11.655 11.06 11.995 11.01L13.375 10.81C13.515 10.79 13.625 10.71 13.685 10.58L14.295 9.33C14.435 9.02 14.875 9.02 15.025 9.33Z" stroke="#919EAB" stroke-width="1.5" stroke-linecap="round" stroke-linejoin="round"/>
</svg>
