<svg width="24" height="24" viewBox="0 0 24 24" fill="none" xmlns="http://www.w3.org/2000/svg">
<path fill-rule="evenodd" clip-rule="evenodd" d="M2.52457 8.15996L3.23562 5.07289C3.47051 4.05309 4.3415 3.30384 5.38623 3.22288L8.16945 3.00719C8.92883 2.94834 9.67102 3.25339 10.1689 3.82899L12.2879 6.27866L14.326 3.8701C14.833 3.27095 15.6018 2.95788 16.3838 3.03211L20.1979 3.39421C20.9361 3.46429 21.5 4.08346 21.5 4.82403V19.2846C21.5 19.9468 21.0466 20.5232 20.4023 20.68C19.8465 20.8152 19.2731 20.9041 18.6823 20.9467C17.9016 21.0028 17.5058 21.0146 16.3838 20.9821C15.8653 20.967 15.4528 20.5429 15.4528 20.0249V11.3927L13.1759 13.5547C12.8463 13.9686 12.2431 14.0373 11.8286 13.7082C11.8065 13.6907 11.7852 13.6721 11.7647 13.6527L9.45656 11.5857V19.5183C9.45656 20.2531 8.90119 20.8694 8.16945 20.9467C7.65445 21.001 6.87802 21.0027 6.3 20.9821C5.6062 20.9572 5.34415 20.9609 4.65346 20.8314C3.97343 20.7038 3.48073 20.1107 3.48073 19.4198V9.38103L3.18279 9.29152C2.69925 9.14626 2.41138 8.65139 2.52457 8.15996Z" stroke="#919EAB" stroke-width="1.5"/>
</svg>
