<svg width="24" height="24" viewBox="0 0 24 24" fill="none" xmlns="http://www.w3.org/2000/svg">
<rect x="1" y="3" width="22" height="18" rx="1.5" fill="#00AFCC"/>
<path fill-rule="evenodd" clip-rule="evenodd" d="M3.5 5.25H5V6.75H3.5V5.25ZM3.5 8.25H5V9.75H3.5V8.25ZM5 11.25H3.5V12.75H5V11.25ZM3.5 14.25H5V15.75H3.5V14.25ZM5 17.25H3.5V18.75H5V17.25Z" fill="#FFC600"/>
<path fill-rule="evenodd" clip-rule="evenodd" d="M12.8979 13.5C14.1406 13.5 15.1479 12.4926 15.1479 11.25C15.1479 10.0074 14.1406 9 12.8979 9C11.6553 9 10.6479 10.0074 10.6479 11.25C10.6479 12.4926 11.6553 13.5 12.8979 13.5ZM9.4328 13.2496L9.18244 12.8168L8.31683 13.3176L8.5672 13.7504C9.43097 15.2436 11.0466 16.25 12.898 16.25C14.7493 16.25 16.365 15.2436 17.2288 13.7504L17.4791 13.3176L16.6135 12.8168L16.3632 13.2496C15.6708 14.4465 14.3779 15.25 12.898 15.25C11.418 15.25 10.1252 14.4465 9.4328 13.2496Z" fill="#FFC600"/>
</svg>
