<svg width="24" height="24" viewBox="0 0 24 24" fill="none" xmlns="http://www.w3.org/2000/svg">
<path d="M1 4C1 3.44772 1.44772 3 2 3H22C22.5523 3 23 3.44772 23 4V20C23 20.5523 22.5523 21 22 21H2C1.44772 21 1 20.5523 1 20V4Z" fill="#D0091E"/>
<path d="M10.3078 12L13 11.1184L11.336 13.4266V10.5734L13 12.8816L10.3078 12ZM10.4914 13.6042C10.1465 14.1534 9.63407 14.575 9.03107 14.8053C8.42807 15.0356 7.76716 15.0624 7.1478 14.8814C6.52844 14.7005 5.98413 14.3217 5.59678 13.802C5.20943 13.2824 5 12.65 5 12C5 11.35 5.20943 10.7176 5.59678 10.198C5.98413 9.67831 6.52844 9.29951 7.1478 9.11858C7.76716 8.93764 8.42807 8.96436 9.03107 9.1947C9.63407 9.42504 10.1465 9.84655 10.4914 10.3958C10.1694 10.0346 9.74623 9.78041 9.27788 9.66672C8.80953 9.55302 8.31797 9.5852 7.86814 9.75899C7.41831 9.93279 7.03136 10.24 6.7584 10.6402C6.48545 11.0403 6.33932 11.5144 6.33932 12C6.33932 12.4856 6.48545 12.9597 6.7584 13.3598C7.03136 13.76 7.41831 14.0672 7.86814 14.241C8.31797 14.4148 8.80953 14.447 9.27788 14.3333C9.74623 14.2196 10.1694 13.9654 10.4914 13.6042Z" fill="white"/>
</svg>
