<svg width="60" height="40" xmlns="http://www.w3.org/2000/svg"><g fill="none" fill-rule="evenodd"><path fill="#3A7DCE" d="M0 0h60v40H0z"/><path d="M14.782 19.237c-.327-.654-.327-.654-.327-1.308-.163 0-.194.031-.289.005-.094-.025-.13.603-.436.48-.051-.06.22-.515-.074-.704-.095-.062.023-.435-.018-.598 0 0-.373.194-.654-.49-.138-.18-.327.163-.327.163s.082.21-.066.26c-.21-.153-.363-.072-.629-.283-.265-.21.056-.452-.45-.63.328-.818.328-.655 1.145-.981-.49-.327-.49-.327-.817-.818-.49-.163-.654-.327-1.145-.654-.653-.817-.98-2.451-.98-3.596.413-.383.98 1.308 1.798 1.798l1.144.49c.654.328.817.655 1.308.981l1.47.49c.655.491.981 1.145 1.472 1.309.531 0 .633-.306.804-.325.96-.05 1.451-.174 1.643-.462.194-.23.659.133 1.966-.358l-.163-.654s.347-.286.817-.163c-.013-.299-.043-1.096.42-1.455-.282-.295-.093-.506-.093-.506s.26-.25.291-.384c-.138-.72.12-.73.177-.943.058-.212-.222-.14-.143-.431.079-.292.552-.362.616-.602.063-.241-.135-.362-.124-.42.102-.229.016-.77 0-.98.879-.235 1.165-.95 1.471-.654.164-.98.327-1.307 1.308-1.307.138-.302-.358-.557-.163-.654.326-.041.577-.02.96.475.121.157.143-.23.266-.271.122-.04.415-.041.46-.235.045-.2.112-.46.275-.787.138-.265.245.103.368.624.69.025 2.247.178 2.901.357.49.128.818-.128 1.287-.179.348.348.675.087.859.828.26.4.684.036.776.153.547 1.507 2.426.49 2.57.516.24 0 .533.674.722.657.307-.052.22-.261.488-.177-.072.567.526 1.221.526 1.645 0 0 .146.071.28-.054.135-.126.259-.45.379-.442.286.041.402.078.732.136.886.303 1.337.37 1.682.526.16.293.315.443.64.388.268.18.072.417.23.432.328-.164.435-.342.762-.179.327.164.653.49.817.817 0 .164-.164.818 0 1.798.082.327.121.586.472 1.147-.093.576.442 1.545.442 1.79 0 .327-.26.496-.424.823.654.49 0 1.308-.327 1.798 2.452.49 1.308 1.471 3.27.98-.49 1.145-.317 1.053.173 2.197-.98.654-.02.853-.674 1.67-.04.052.388.71.99.71-.163 1.308-.653.818-.49 2.78-1.287-.026-.766 1.465-1.634 1.307.051.935.495 1.017.327 1.961-.654.164-.654.164-.98.654l-.491-.163c-.164.817-.49.98 0 1.798 0 0-.634.02-.818 0-.015.28.281.357.327.654-.025.117-.93.633-1.634.654-.184.403.49.832.45 1.037-.767.148-1.104 1.087-1.104 1.087s.393.159.327.327c-.21-.153-.327-.163-.654-.163-.163.04-.562-.01-.944.635-.419.138-.617.088-.935.508-.14-.4-.343.004-.591.16-.247.155-.58.542-.625.526.01-.113.153-.521.153-.521l-.818.163-.1.01c-.064.007-.047-.477-.202-.46-.155.018-.598.609-.75.627-.15.019-.198-.188-.328-.17-.13.018-.383.623-.475.639-.092.016-.457-.368-.77-.314-1.609.567-1.864-1.119-2.115-.168-.337-.18-.278-.076-.621.014-.219.057-.238-.289-.433-.283-.389.01-.368.378-.58.269-.174-.767-1.221-.629-1.323-.956-.083-.34.453-.339.627-.57.133-.333-.139-.46.4-.781.702-.475.298-.654.422-1.011.22-.515.221-.641.037-1.096 0 0-.546-1.471-.654-1.471-.327-.092-.327.541-.807.715-.98.327-2.712-.827-3.014-.827-.275.005-1.553.302-1.504-.335-.191.62-.894.146-.937.146-.654 0-.404.505-.843.485-.2-.066-2.212-.184-2.212-.184v.327l-1.308-.654-1.144-.327c-.98-.327-.49-1.144-2.125-.654v-.98h-.817c.327-1.962 0-.981-.163-2.78l-.654.164c-.654-.883.909-.715-.49-1.307 0 0 .025-.976-.327-.654-.072.04.163.49.163.49-1.308-.163-1.635-.49-1.635-1.798 0 0 1.078.153.981 0-.153-.245-.352-1.839-.317-1.946-.015-.215 1.002-.756.805-1.272.125-.046.493-.051.493-.051" fill="#FFF"/><path d="M48.031 23.998c-.057.107-.047.214.012.291.106-.133.017-.194-.012-.291ZM9.638 11.948s-.25-.03-.194.189c.082-.169.189-.179.194-.19Zm.056-.511c-.138.005-.306-.02-.25.2.082-.17.245-.19.25-.2Zm.942 2.927s.215-.015.159.204c-.082-.168-.154-.194-.159-.204Z" stroke-linejoin="round" stroke="#FFF" stroke-width=".5"/></g></svg>