<svg width="60" height="40" xmlns="http://www.w3.org/2000/svg"><g fill="none" fill-rule="evenodd"><path fill="#000" d="M0 20h60V0H0z"/><path fill="#007A3D" d="M0 40h60V20H0z"/><path fill="#FFF" d="M0 26.667h60V13.333H0z"/><path fill="#C4111B" d="M0 0v40l20-20zm30.9 15.6a4.4 4.4 0 1 1 0 8.8 4.4 4.4 0 0 1 0-8.8"/><path d="M32.55 15.6a4.4 4.4 0 1 1 0 8.8 4.4 4.4 0 0 1 0-8.8" fill="#FFF"/><path fill="#C4111B" d="m29.719 22.664 1.876-1.341 1.862 1.362-.696-2.2 1.87-1.349-2.306-.018-.706-2.195-.73 2.188-2.306-.008 1.856 1.37z"/></g></svg>