<svg width="60" height="40" xmlns="http://www.w3.org/2000/svg" xmlns:xlink="http://www.w3.org/1999/xlink"><defs><path id="a" d="M0 40h60V0H0z"/></defs><g fill="none" fill-rule="evenodd"><path fill="#CE1126" d="M0 35h60V0H0z"/><path d="M34.939 19.129c.876.235 2.201.176 2.796.871-.875-.235-1.955 1.181-2.796.871.743.52-10.804 0-9.878 0-.876-.235-2.201-.176-2.796-.871.875.235 1.955-1.181 2.796-.871-.743-.52-2.031-.923-2.33-1.775.743.52 2.254-.444 2.926.138-.52-.742-1.607-1.557-1.583-2.464.52.743 2.271.345 2.702 1.13-.234-.876-.941-2.005-.644-2.857.235.876 1.998 1.093 2.153 1.986.079-.903-.24-2.21.372-2.905-.079.903 1.513 1.71 1.343 2.603.383-.822.595-2.15 1.343-2.603-.383.822.867 2.12.372 2.905.641-.64 1.26-1.829 2.153-1.986-.641.641.042 2.274-.644 2.857.821-.383 1.791-1.288 2.702-1.13-.822.383-.741 2.154-1.583 2.464.904-.079 2.117-.591 2.926-.138-.903.079-1.404 1.775-2.33 1.775" fill="#FCD116"/><path d="M25.08 20.806c.378.03 2.566.13 4.84.185 4.397.107 4.93-.052 4.989-.103-.009.008-.012.025-.01.038l.066-.125c.394.145.857-.128 1.347-.417.403-.238.818-.483 1.211-.485-.423-.345-1.088-.443-1.733-.538a7.94 7.94 0 0 1-.87-.16l.019-.147c.439 0 .78-.419 1.142-.863.29-.356.59-.724.955-.86-.521-.182-1.178-.045-1.815.087-.309.064-.6.125-.872.149l-.032-.145c.395-.146.574-.65.763-1.185.157-.443.318-.898.62-1.152-.55.003-1.121.358-1.676.702a7.68 7.68 0 0 1-.768.439l-.08-.125c.321-.274.317-.81.312-1.377-.005-.468-.009-.95.188-1.293-.508.19-.927.72-1.334 1.234-.197.249-.382.483-.574.675l-.116-.093c.235-.373.038-.883-.17-1.423-.166-.427-.336-.866-.276-1.246-.392.355-.612.995-.826 1.616a8.638 8.638 0 0 1-.312.822l-.142-.045c.08-.421-.272-.83-.645-1.264-.307-.355-.621-.72-.689-1.11-.283.47-.257 1.147-.232 1.804.012.319.024.62 0 .893l-.149.006c-.073-.42-.542-.684-1.039-.963-.405-.229-.822-.463-1.021-.8-.082.533.164 1.16.403 1.767.115.295.224.573.294.835l-.138.055c-.202-.369-.735-.456-1.298-.548-.467-.077-.946-.156-1.249-.411.086.533.541 1.038.983 1.529.214.237.416.462.572.685l-.11.1c-.315-.273-.844-.174-1.403-.07-.465.087-.943.176-1.315.04.269.467.866.788 1.446 1.1.28.15.545.293.768.449l-.069.131c-.395-.145-.857.128-1.347.417-.403.238-.818.483-1.212.485.423.345 1.089.443 1.734.538.313.046.608.09.87.16v.007Zm7.41.371c-.656 0-1.484-.01-2.529-.035-2.346-.057-4.892-.17-4.974-.196l-.062-.02.002-.011a9.37 9.37 0 0 0-.738-.128c-.759-.111-1.543-.227-1.981-.738l-.158-.184.234.063c.4.107.872-.172 1.328-.441.375-.222.76-.45 1.125-.475a14.149 14.149 0 0 0-.472-.26c-.68-.367-1.384-.745-1.605-1.373l-.077-.22.191.134c.34.237.88.136 1.403.039.427-.08.865-.162 1.213-.063-.11-.132-.23-.266-.355-.405-.518-.575-1.054-1.17-1.036-1.838l.006-.227.13.186c.237.338.778.427 1.301.513.43.07.872.143 1.166.357-.056-.16-.12-.325-.188-.496-.28-.715-.572-1.455-.353-2.083l.08-.23.063.236c.107.398.582.665 1.042.924.381.214.772.434.978.74 0-.172-.007-.353-.014-.54-.03-.768-.06-1.562.39-2.073l.152-.172-.02.228c-.036.41.319.822.662 1.22.287.333.581.674.668 1.033.06-.156.117-.324.176-.496.252-.734.513-1.493 1.066-1.828l.211-.128-.104.224c-.172.368.022.87.21 1.356.16.411.322.833.28 1.202.106-.125.213-.26.323-.4.478-.604.973-1.229 1.631-1.345l.234-.041-.168.168c-.293.293-.288.84-.283 1.369.003.436.007.884-.154 1.215.149-.085.302-.18.46-.278.651-.404 1.325-.822 1.995-.706l.236.04-.217.102c-.376.175-.56.691-.736 1.19-.146.412-.295.834-.559 1.088.168-.028.345-.065.527-.103.748-.155 1.521-.316 2.116.018l.212.119-.242.02c-.41.037-.75.454-1.079.858-.279.343-.565.694-.91.843.166.031.342.057.524.084.759.111 1.543.227 1.98.738l.158.184-.234-.063c-.399-.106-.87.172-1.327.441-.456.27-.927.547-1.357.462-.043.073-.232.202-2.54.202Z" fill="#BD9C08"/><path fill="#FCD116" d="m25.836 20-3.159-1.291 3.41-.133-2.527-2.294 3.25 1.042-1.59-3.02 2.698 2.09-.461-3.38 1.82 2.886.723-3.335.723 3.335 1.82-2.887-.461 3.381 2.697-2.09-1.589 3.02 3.249-1.042-2.526 2.294 3.409.133L34.164 20l3.158 1.291H22.677z"/><path d="M23.059 21.216H36.94l-2.804-1.147a.075.075 0 0 1 0-.138l2.837-1.16-3.063-.12a.075.075 0 0 1-.047-.13l2.27-2.062-2.92.936a.075.075 0 0 1-.09-.106l1.429-2.714-2.424 1.878a.075.075 0 0 1-.12-.07l.414-3.037-1.636 2.594a.077.077 0 0 1-.076.034.075.075 0 0 1-.06-.058L30 12.919l-.65 2.997a.075.075 0 0 1-.136.024l-1.636-2.594.414 3.038a.075.075 0 0 1-.12.07l-2.425-1.879 1.43 2.714a.075.075 0 0 1-.09.106l-2.92-.936 2.27 2.061a.075.075 0 0 1-.047.13l-3.064.12 2.838 1.16a.075.075 0 0 1 0 .14l-2.805 1.146Zm14.263.15H22.677a.075.075 0 0 1-.028-.144L25.638 20l-2.99-1.222a.075.075 0 0 1 .026-.144l3.227-.126-2.391-2.17a.075.075 0 0 1 .073-.127l3.075.986-1.504-2.858a.075.075 0 0 1 .112-.094l2.553 1.977-.436-3.199a.075.075 0 0 1 .137-.05l1.723 2.732.684-3.156a.075.075 0 0 1 .146 0l.684 3.156 1.722-2.732a.075.075 0 0 1 .138.05l-.436 3.2 2.552-1.978a.075.075 0 0 1 .094.002.075.075 0 0 1 .018.092l-1.503 2.858 3.074-.986a.075.075 0 0 1 .073.127l-2.39 2.17 3.226.126a.075.075 0 0 1 .025.144L34.362 20l2.988 1.222a.075.075 0 0 1-.028.144Z" fill="#BD9C08"/><path d="M30 15.864a4.136 4.136 0 1 1 0 8.272 4.136 4.136 0 0 1 0-8.272" fill="#FCD116"/><path d="M30 15.954a4.046 4.046 0 1 0 0 8.092 4.046 4.046 0 0 0 0-8.092Zm0-.18a4.226 4.226 0 1 1 0 8.452 4.226 4.226 0 0 1 0-8.452Z" fill="#BD9C08" fill-rule="nonzero"/><path d="m31.36 9.986 2.218.015c.014-.094-.19-.28-.365-.308-.561-.088-.982.094-1.664.1l-.189.193Z" fill="#FCD116"/><path d="m31.502 9.927 1.993.013a.518.518 0 0 0-.291-.188c-.316-.05-.583-.011-.892.032-.225.032-.457.065-.737.07l-.073.073Zm2.128.134-2.412-.016.306-.311h.024c.284-.003.52-.036.747-.069.306-.043.595-.083.927-.031.186.029.437.232.415.376l-.007.051Z" fill="#BD9C08"/><path d="M26.943 9.464c.521.658 1.531 1.116 2.495 1.122 1.3.008 2.742-1.044 4.485-1.367l-5.691-.117c-.737-.504-1.296-.44-1.677-.127l-1.088.032c-.154.084.127.435.355.448l1.121.01Z" fill="#FCD116"/><path d="M25.487 9.067c-.004.006-.006.016-.002.038.026.113.206.282.34.29l1.147.01.018.022c.516.651 1.5 1.093 2.448 1.099h.015c.686 0 1.43-.306 2.218-.628.56-.23 1.137-.467 1.756-.629l-5.214-.107-.015-.01c-.63-.431-1.184-.477-1.605-.131l-.016.013-1.09.033Zm3.966 1.579h-.015c-.973-.006-1.982-.456-2.524-1.122l-1.093-.01c-.198-.01-.417-.223-.453-.383-.017-.078.008-.142.07-.176l.013-.007 1.082-.033c.326-.258.884-.437 1.718.128l5.673.116.01.12c-.796.146-1.519.443-2.218.73-.799.327-1.554.637-2.263.637Z" fill="#BD9C08"/><path d="M29.516 9.087c-.207-.952-.971-1.362-1.889-1.484-1.061-.14-3.502-.285-5.124-.75.702.69 2.171 1.034 3.192 1.19 1.081.165 2.133.405 2.967 1.035l.854.009Z" fill="#FCD116"/><path d="m28.682 9.018.758.008c-.198-.77-.81-1.23-1.82-1.363-.266-.036-.617-.07-1.023-.112-1.136-.114-2.664-.268-3.855-.572.783.597 2.166.883 2.962 1.005 1.04.158 2.12.394 2.978 1.034Zm.909.13-.95-.01-.015-.012c-.839-.633-1.909-.866-2.94-1.024-.883-.134-2.476-.47-3.225-1.207l.059-.1c1.21.347 2.874.515 4.09.637.406.04.758.076 1.025.112 1.098.145 1.75.66 1.94 1.53l.016.074Z" fill="#BD9C08"/><path d="M28.827 9.722c.339.436.865.41 1.431.031.564-.379 1.177-1.445 1.473-1.462 2.069-.12 4.572-.994 5.766-1.668-1.514.214-3.014.457-4.541.463-2.605.01-2.913 1.197-3.975 2.029" fill="#FCD116"/><path d="M29.46 10.102a.836.836 0 0 1-.68-.343.06.06 0 0 1 .094-.074c.411.528 1.023.238 1.35.018.267-.179.552-.524.803-.828.292-.354.522-.633.7-.644 1.973-.115 4.237-.898 5.439-1.5l-.173.024c-1.317.19-2.678.386-4.037.391-1.949.008-2.58.667-3.25 1.365-.21.22-.427.447-.688.65a.06.06 0 1 1-.074-.094c.254-.198.468-.422.676-.639.657-.685 1.336-1.394 3.336-1.402 1.35-.005 2.707-.2 4.02-.39l.513-.073.038.112c-1.3.734-3.821 1.561-5.793 1.676-.126.007-.374.309-.615.6-.256.31-.546.663-.828.852-.297.2-.58.3-.83.3" fill="#BD9C08"/><path d="M29.231 9.27a.06.06 0 0 1-.032-.11 8.49 8.49 0 0 0 .907-.7c.198-.167.402-.34.615-.498.886-.657 1.892-.67 2.958-.682.912-.012 2.476-.378 3.41-.598l.081-.019a.06.06 0 0 1 .028.117l-.081.02c-.94.22-2.511.588-3.436.6-1.046.013-2.034.025-2.888.658-.21.156-.413.327-.61.494a8.523 8.523 0 0 1-.92.709.06.06 0 0 1-.032.01m-.637-.216c-.15-.787-.875-1.053-1.916-1.212-.29-.043-.586-.083-.873-.121-.802-.107-1.631-.218-2.438-.44a3.996 3.996 0 0 1-.532-.204c-.086-.037-.172-.075-.26-.11l.045-.11c.088.034.176.072.263.11.167.073.34.15.516.198.799.22 1.624.33 2.422.437.287.038.584.078.875.122 1.092.166 1.852.452 2.016 1.307l-.118.023Zm.706 1.315c-.099 0-.2-.004-.302-.012a.06.06 0 0 1-.056-.064.06.06 0 0 1 .064-.056c1.05.078 1.816-.255 2.637-.664a.06.06 0 0 1 .054.107c-.73.364-1.465.688-2.397.688" fill="#BD9C08"/><path d="M25.463 9.243a.06.06 0 1 1 0-.12h1.296a.06.06 0 1 1 0 .12h-1.296Z" fill="#BD9C08" fill-rule="nonzero"/><path d="M27.175 8.882a.162.162 0 1 1 0 .324.162.162 0 0 1 0-.324" fill="#BD9C08"/><mask id="b" fill="#fff"><use xlink:href="#a"/></mask><path fill="#003F87" mask="url(#b)" d="M0 40h60V21.5H0z"/><path d="M0 30.714C2 30.714 4 32 6 32s4-1.286 6-1.286S16 32 18 32s4-1.286 6-1.286S28 32 30 32s4-1.286 6-1.286S40 32 42 32s4-1.286 6-1.286S52 32 54 32s4-1.286 6-1.286v-2.143c-2 0-4 1.286-6 1.286s-4-1.286-6-1.286-4 1.286-6 1.286-4-1.286-6-1.286-4 1.286-6 1.286-4-1.286-6-1.286-4 1.286-6 1.286-4-1.286-6-1.286-4 1.286-6 1.286-4-1.286-6-1.286v2.143Zm0-4.286c2 0 4 1.286 6 1.286s4-1.286 6-1.286 4 1.286 6 1.286 4-1.286 6-1.286 4 1.286 6 1.286 4-1.286 6-1.286 4 1.286 6 1.286 4-1.286 6-1.286 4 1.286 6 1.286 4-1.286 6-1.286v-2.143c-2 0-4 1.286-6 1.286s-4-1.286-6-1.286-4 1.286-6 1.286-4-1.286-6-1.286-4 1.286-6 1.286-4-1.286-6-1.286-4 1.286-6 1.286-4-1.286-6-1.286-4 1.286-6 1.286-4-1.286-6-1.286v2.143Zm0-4.285c2 0 4 1.286 6 1.286s4-1.286 6-1.286 4 1.286 6 1.286 4-1.286 6-1.286 4 1.286 6 1.286 4-1.286 6-1.286 4 1.286 6 1.286 4-1.286 6-1.286 4 1.286 6 1.286 4-1.286 6-1.286V20c-2 0-4 1.286-6 1.286S50 20 48 20s-4 1.286-6 1.286S38 20 36 20s-4 1.286-6 1.286S26 20 24 20s-4 1.286-6 1.286S14 20 12 20s-4 1.286-6 1.286S2 20 0 20v2.143Z" fill="#FFF" mask="url(#b)"/></g></svg>