<svg width="60" height="40" xmlns="http://www.w3.org/2000/svg" xmlns:xlink="http://www.w3.org/1999/xlink"><defs><path id="a" d="M0 40h60V0H0z"/></defs><g fill="none" fill-rule="evenodd"><path fill="#3E5EB9" d="M0 40h60V0H0z"/><path fill="#FFD900" d="M0 32.5h60v-25H0z"/><path fill="#B10C0C" d="M0 30h60V10H0z"/><path fill="#FFF" d="m49.285 15.428-2.429.857 2.429.857 2.429-.857z"/><path d="m47.058 16.285 2.227.786 2.227-.786-2.227-.786-2.227.786Zm2.227.928-2.63-.928 2.63-.928 2.63.928-2.63.928Z" fill="#000"/><path d="M12.596 16h35.091c.172 0 .311.128.311.286 0 .157-.139.285-.31.285H12.595c-.172 0-.311-.128-.311-.285 0-.158.14-.286.31-.286" fill="#FFD900"/><path d="M12.596 16.067c-.135 0-.244.098-.244.219 0 .12.11.218.244.218h35.091c.135 0 .244-.098.244-.218s-.11-.219-.244-.219H12.596Zm35.091.572H12.596c-.209 0-.378-.159-.378-.353 0-.195.17-.353.378-.353h35.091c.209 0 .378.158.378.353 0 .194-.17.353-.378.353Z" fill="#000"/><path d="M47.144 16.571a.308.308 0 0 0 .286-.286.308.308 0 0 0-.286-.285" fill="#FFD900"/><path d="M47.144 16.638v-.134c.106 0 .219-.113.219-.219s-.113-.218-.219-.218v-.135c.182 0 .353.172.353.353a.372.372 0 0 1-.353.353" fill="#000"/><path d="M46.858 16.571a.308.308 0 0 0 .286-.286.308.308 0 0 0-.286-.285" fill="#FFD900"/><path d="M46.858 16.638v-.134c.106 0 .219-.113.219-.219s-.113-.218-.219-.218v-.135c.182 0 .353.172.353.353a.372.372 0 0 1-.353.353" fill="#000"/><path d="M46.572 16.571a.308.308 0 0 0 .286-.286.308.308 0 0 0-.286-.285" fill="#FFD900"/><path d="M46.572 16.638v-.134c.106 0 .219-.113.219-.219s-.113-.218-.219-.218v-.135c.182 0 .353.172.353.353a.372.372 0 0 1-.353.353" fill="#000"/><path fill="#FFF" d="M46.958 17.143 44.53 18l2.428.857L49.386 18z"/><path d="m44.732 18 2.226.786L49.184 18l-2.226-.786-2.226.786Zm2.226.929L44.328 18l2.63-.928 2.63.928-2.63.929Z" fill="#000"/><path d="M10.269 17.715H45.36c.172 0 .311.128.311.286 0 .157-.14.285-.31.285H10.268c-.172 0-.311-.128-.311-.285 0-.158.139-.286.31-.286" fill="#FFD900"/><path d="M10.269 17.782c-.135 0-.244.098-.244.219 0 .12.11.218.244.218H45.36c.135 0 .244-.098.244-.218s-.11-.219-.244-.219H10.27Zm35.091.572H10.27c-.209 0-.378-.159-.378-.353 0-.195.17-.353.378-.353h35.09c.209 0 .378.158.378.353 0 .194-.17.353-.378.353Z" fill="#000"/><path d="M44.817 18.286a.308.308 0 0 0 .286-.286.308.308 0 0 0-.286-.285" fill="#FFD900"/><path d="M44.817 18.353v-.134c.106 0 .219-.112.219-.219 0-.106-.113-.218-.219-.218v-.135c.182 0 .353.172.353.353a.372.372 0 0 1-.353.353" fill="#000"/><path d="M44.531 18.286a.308.308 0 0 0 .286-.286.308.308 0 0 0-.286-.285" fill="#FFD900"/><path d="M44.531 18.353v-.134c.106 0 .219-.112.219-.219 0-.106-.113-.218-.219-.218v-.135c.182 0 .353.172.353.353a.372.372 0 0 1-.353.353" fill="#000"/><path d="M44.245 18.286a.308.308 0 0 0 .286-.286.308.308 0 0 0-.286-.285" fill="#FFD900"/><path d="M44.245 18.353v-.134c.106 0 .219-.112.219-.219 0-.106-.113-.218-.219-.218v-.135c.182 0 .353.172.353.353a.372.372 0 0 1-.353.353" fill="#000"/><path d="M6.404 19.572h47.725c.233 0 .422.192.422.429a.425.425 0 0 1-.422.428H6.404a.425.425 0 0 1-.423-.428c0-.237.19-.429.423-.429" fill="#FFD900"/><path d="M6.404 19.644c-.194 0-.35.16-.35.357 0 .196.156.356.35.356h47.725c.193 0 .35-.16.35-.356a.354.354 0 0 0-.35-.357H6.404Zm47.725.857H6.404a.498.498 0 0 1-.495-.5c0-.276.222-.501.495-.501h47.725c.272 0 .494.225.494.5a.498.498 0 0 1-.494.501Z" fill="#000"/><path d="M44.285 20c-2.857 2.857-6.667 8.571-14.286 8.571-6.667 0-11.428-5.714-14.286-8.571 2.857-2.857 7.619-8.572 14.286-8.572 7.619 0 11.428 5.715 14.286 8.572" fill="#FFF"/><path d="M15.808 20c.284.285.588.599.908.93 2.923 3.015 7.34 7.574 13.283 7.574 6.41 0 10.122-4.075 12.831-7.05A47.56 47.56 0 0 1 44.19 20a47.82 47.82 0 0 1-1.36-1.455c-2.71-2.975-6.421-7.05-12.83-7.05-5.947 0-10.364 4.56-13.287 7.578-.319.33-.622.642-.905.927m14.191 8.638c-6.001 0-10.441-4.583-13.38-7.615a87.087 87.087 0 0 0-.954-.976L15.618 20l.047-.047c.297-.297.615-.625.952-.973 2.938-3.034 7.379-7.619 13.382-7.619 6.47 0 10.203 4.1 12.93 7.093.495.544.962 1.057 1.404 1.499l.047.047-.047.047a44.19 44.19 0 0 0-1.403 1.498c-2.727 2.993-6.46 7.093-12.93 7.093" fill="#000"/><path d="M29.002 14.41c.76.855.125 1.2.93 1.256.848.062.367.903 1.081.932.5.022-.05 2.015.43 2.673.49.686.9.201.908.696.009.513-1.331.461-1.355 2.04-.04.91-1.13.967-1.183 1.553-.065.55 2.15.86 2.121 1.352-.03.491-2.392.414-2.495.975-.052.503 3.245.915 3.51 2.37-.492.162-1.892.313-2.95.314-6.666.005-11.428-5.715-14.285-8.572 2.857-2.857 7.619-8.571 14.286-8.571 0 0-1.979 1.808-.997 2.981l-.001.001Zm-4.838 2.542v2.286m-1.386-2.286v2.286m-1.385 0v-2.286" fill="#000"/><mask id="b" fill="#fff"><use xlink:href="#a"/></mask><path d="M20.931 19.238h.924v-2.286h-.924v2.286Zm1.386 0h.923v-2.286h-.923v2.286Zm1.386 0h.923v-2.286h-.923v2.286Z" fill="#FFF" mask="url(#b)"/><path d="M24.164 20.762v2.286m-1.386-2.286v2.286m-1.385 0v-2.286" fill="#000" mask="url(#b)"/><path d="M20.931 23.048h.924v-2.286h-.924v2.286Zm1.386 0h.923v-2.286h-.923v2.286Zm1.386 0h.923v-2.286h-.923v2.286Z" fill="#FFF" mask="url(#b)"/><path d="M28.32 16.952v2.286m-1.386-2.286v2.286m-1.385 0v-2.286" fill="#000" mask="url(#b)"/><path d="M25.087 19.238h.924v-2.286h-.924v2.286Zm1.386 0h.923v-2.286h-.923v2.286Zm1.386 0h.923v-2.286h-.923v2.286Z" fill="#FFF" mask="url(#b)"/><path d="M28.32 20.762v2.286m-1.386-2.286v2.286m-1.385 0v-2.286" fill="#000" mask="url(#b)"/><path d="M25.087 23.048h.924v-2.286h-.924v2.286Zm1.386 0h.923v-2.286h-.923v2.286Zm1.386 0h.923v-2.286h-.923v2.286Z" fill="#FFF" mask="url(#b)"/><path d="M34.64 16.952v2.286m-1.386-2.286v2.286m-1.385 0v-2.286m-.462 2.286h.924v-2.286h-.924v2.286Zm1.385 0h.924v-2.286h-.924v2.286Zm1.387 0h.923v-2.286h-.923v2.286Zm.461 1.524v2.286m-1.386-2.286v2.286m-1.385 0v-2.286m-.462 2.286h.924v-2.286h-.924v2.286Zm1.385 0h.924v-2.286h-.924v2.286Zm1.387 0h.923v-2.286h-.923v2.286Zm4.617-6.096v2.286m-1.386-2.286v2.286m-1.385 0v-2.286m-.462 2.286h.924v-2.286h-.924v2.286Zm1.385 0h.924v-2.286h-.924v2.286Zm1.387 0h.923v-2.286h-.923v2.286Zm.461 1.524v2.286m-1.386-2.286v2.286m-1.385 0v-2.286m-.462 2.286h.924v-2.286h-.924v2.286Zm1.385 0h.924v-2.286h-.924v2.286Zm1.387 0h.923v-2.286h-.923v2.286Z" fill="#000" mask="url(#b)"/><path d="M51.135 19.66c-.433.75.332-.25 2.198 1.006.346.233.649.848.649 1.275-.088-.058-.153-.189-.25-.274-.136.136.13.758.168 1.052-.292-.163-.264-.24-.36-.441.019.242-.05.91.065 1.168-.23-.066-.214-.251-.335-.289.082.292-.07.609-.03.936-.135-.133-.278-.237-.34-.29-.01.155-.259.565-.264.712a.374.374 0 0 1-.164-.248c-.142.178-.646.835-.678 1.036-.388-.343-1.382-1.178-1.512-1.62-.114.25-.28.336-.607.52-.13-.703-.613-1.492-.354-2.094a6.299 6.299 0 0 0-.518.351c.174-1.017 1.06-2.21 2.332-2.8Z" fill="#3D5DA7" mask="url(#b)"/><path d="m50.294 23.52.043.146c.113.386.962 1.128 1.37 1.485l.06.052c.131-.306.636-.942.66-.972l.07-.089.03.11a.385.385 0 0 0 .073.16c.025-.079.07-.175.115-.275.058-.127.124-.271.128-.339l.008-.113.086.074.068.055c.048.039.108.086.171.142.002-.107.017-.211.032-.313.025-.166.049-.324.008-.47l-.029-.1.1.03c.07.022.105.076.139.128a.39.39 0 0 0 .087.106c-.042-.203-.036-.494-.03-.737a4.13 4.13 0 0 0 0-.318l.108-.03.05.115c.039.097.062.155.178.236a5.708 5.708 0 0 0-.066-.246c-.09-.317-.175-.616-.062-.73l.038-.038.04.035a.98.98 0 0 1 .144.165c-.06-.398-.329-.886-.611-1.076-1.05-.705-1.737-.688-2.067-.68-.144.003-.223.005-.26-.058-.027-.044-.016-.1.025-.185-1.045.542-1.885 1.55-2.112 2.538.138-.1.26-.183.404-.268l.15-.09-.069.162c-.166.387-.002.878.156 1.352.07.209.142.423.187.63.275-.154.416-.238.515-.455l.063-.14Zm1.54 1.894-.202-.177c-.409-.358-1.139-.996-1.356-1.422-.115.18-.275.27-.534.415l-.109.061-.014-.078a5.096 5.096 0 0 0-.198-.692c-.146-.438-.296-.888-.203-1.281-.124.08-.241.164-.381.266l-.113.083.023-.139c.19-1.116 1.163-2.284 2.364-2.842l.164-.076-.09.157c-.032.054-.116.198-.11.232l.157-.003c.34-.008 1.054-.025 2.133.7.353.238.674.868.674 1.324v.106l-.089-.06c-.055-.036-.098-.092-.144-.15l-.055-.07c-.011.124.06.378.112.558.04.145.08.282.093.385l.015.113-.099-.055c-.157-.088-.229-.155-.274-.226l-.001.06c-.006.275-.015.653.06.82l.05.111-.117-.034a.405.405 0 0 1-.239-.174c.003.111-.014.224-.03.334-.02.14-.042.284-.025.426l.02.163-.116-.115c-.094-.093-.193-.172-.265-.23-.025.08-.07.178-.116.28-.058.127-.124.27-.126.333l-.004.097-.083-.05a.385.385 0 0 1-.155-.179c-.243.314-.577.782-.6.927l-.017.102Z" fill="#000" mask="url(#b)"/><path d="M49.521 23.372c.18-.36.345-.473.461-.704.205-.407.235-.73.413-.683.179.048.179.214-.053.614-.231.4-.341.485-.821.773m1.215.856c-.023-.273.056-.388.042-.564-.025-.31-.152-.522.013-.537.165-.016.242.09.242.402 0 .313-.047.395-.297.7v-.001Zm.922.536c-.072-.382-.018-.551-.064-.797-.08-.433-.239-.718-.086-.757.152-.04.244.1.302.539.058.439.028.56-.152 1.015m.959-2.674c-.225-.172-.357-.183-.502-.293-.256-.193-.385-.4-.467-.297-.083.103-.024.215.244.392.268.178.359.192.725.197m-.159 1.267c-.119-.247-.244-.309-.32-.468-.136-.278-.136-.52-.283-.458-.148.062-.16.188-.002.458.157.27.24.319.605.468Z" fill="#A70000" mask="url(#b)"/><path d="M8.078 20.382c-.024-.218.023-.244-.112-.409.196.082.203.3.441.145.087-.045.125-.047.02-.29.247.012 1.06.29 1.19.297.34.016.963-.359 1.396.102.415.42.276.855.276 1.436-.166-.08-.086-.12-.263-.327.133.508-.007 1.423-.007 1.962-.068-.13-.058-.073-.125-.208-.177.492-.389.593-.389 1.174-.064-.228-.002-.18-.073-.3-.172.374-1.326.693-.881 1.07-.402-.236-.578-.211-.76-.423-.078.05-.14.146-.213.278-.706-.325-.454-1.026-1.007-1.493-.095.196-.052.167-.155.487-.112-.444-.143-.726-.269-1.051-.108.18-.099.111-.296.384-.081-.54-.214-.667-.162-1.025-.21.148-.072.088-.281.27.198-1.384 1.055-2.407 1.67-2.08v.001Z" fill="#3D5DA7" mask="url(#b)"/><path d="m8.805 24.518.04.047c.095.11.19.15.332.208.058.024.125.052.201.088v-.02c.014-.195.262-.353.524-.52.2-.128.407-.26.465-.386l.057-.123.047.08c.04-.173.105-.297.177-.433.06-.113.12-.23.18-.393l.056-.157.07.143c.006-.114.014-.236.023-.362.032-.47.068-1.001-.02-1.336l.123-.064c.083.097.114.161.137.208l.004.01a5.97 5.97 0 0 1 .01-.196c.02-.405.037-.726-.269-1.035-.28-.298-.647-.213-.972-.138a1.502 1.502 0 0 1-.377.057c-.06-.003-.202-.043-.447-.114a8.476 8.476 0 0 0-.628-.166c.046.135.028.201-.084.258l-.014.007c-.144.093-.233.068-.301.018l.001.04c.001.036.003.079.009.135l.015.134-.12-.063c-.144-.077-.306-.071-.482.018-.462.235-.875.946-1.044 1.774a.871.871 0 0 1 .13-.104l.136-.096-.024.164c-.03.201.003.324.053.508.025.09.054.197.08.333.038-.047.064-.075.085-.098.035-.04.057-.063.108-.15l.075-.124.053.136c.083.217.126.415.176.645l.032.148a.912.912 0 0 1 .085-.234l.04-.082.07.059c.264.222.353.489.44.747.095.288.18.54.492.706a.691.691 0 0 1 .203-.244l.053-.033Zm.71.577a2.777 2.777 0 0 0-.393-.19.966.966 0 0 1-.337-.197.977.977 0 0 0-.145.215l-.032.058-.06-.028c-.417-.192-.524-.51-.627-.819-.071-.214-.145-.434-.326-.619a.742.742 0 0 0-.035.12c-.014.055-.031.13-.077.27l-.076.235-.06-.24a9.131 9.131 0 0 1-.096-.419 4.93 4.93 0 0 0-.124-.493.977.977 0 0 1-.044.051c-.036.04-.08.088-.174.219l-.102.141-.026-.172a3.924 3.924 0 0 0-.105-.48c-.038-.141-.069-.254-.07-.392l-.002.003a.712.712 0 0 1-.15.157l-.144.125.027-.19c.14-.968.616-1.837 1.161-2.114a.672.672 0 0 1 .501-.063v-.03c-.004-.095-.005-.123-.088-.225l.083-.11c.081.033.134.086.177.128.071.072.091.091.197.022l.021-.011a.15.15 0 0 0 .033-.018.653.653 0 0 0-.06-.172l-.047-.105.115.006c.152.007.483.103.776.187.18.053.367.107.414.11.089.002.21-.025.338-.054.344-.08.772-.179 1.107.177.349.353.33.719.307 1.142-.006.11-.012.223-.012.343v.113l-.101-.049a.366.366 0 0 1-.114-.077c.023.32-.002.702-.026 1.05-.015.22-.029.43-.029.598l-.134.033a.598.598 0 0 0-.048-.08 3.523 3.523 0 0 1-.135.274c-.11.209-.197.374-.197.74l-.14.018a.961.961 0 0 1-.033-.157c-.103.11-.26.21-.425.314-.21.135-.45.287-.457.41-.001.015-.005.061.075.129l-.081.116Z" fill="#000" mask="url(#b)"/><path d="M7.21 22.641c.182-.446.346-.586.463-.872.208-.505.242-.908.416-.846.174.061.171.269-.062.764-.233.496-.342.6-.817.954Zm.689 1.115c.072-.4.187-.545.235-.802.084-.453.037-.79.199-.772.162.018.198.189.09.639-.107.45-.182.556-.525.935Zm.823.775c.02-.387.111-.539.125-.788.024-.439-.06-.753.094-.755.155-.002.21.156.163.596-.048.439-.105.549-.382.947m1.768-2.533c-.338-.337-.542-.4-.76-.616-.385-.38-.57-.738-.707-.611-.137.126-.055.316.35.678.404.362.545.415 1.117.55m-.206 1.301c-.22-.338-.382-.426-.524-.643-.25-.383-.337-.711-.479-.63-.142.081-.11.253.161.624.272.37.381.439.842.65V23.3Z" fill="#A70000" mask="url(#b)"/><path d="M25.38 12.95c-.396.765.693-.255 2.4 1.027.316.238.77 1.179.77 1.615-.364-.078-1.007-.436-1.007-.436s.755.756.755 1.628c-.267-.167-.4-.142-.49-.347 0 .283.238.463.238.899a3.526 3.526 0 0 0-.519-.346c.252.436-.458 1.281-.103 1.564-.622-.09-1.258-.487-1.51-.923-.133.09-.147.23-.153.381.02.016-.946-.717-.857-.999-.13.182-.148.282-.178.487-.355-.35-.68-.7-.798-1.153-.158.205-.168.205-.326.41-.118-.717-.118-.691.119-1.306a5.762 5.762 0 0 0-.473.359c.158-1.039.968-2.257 2.132-2.86Z" fill="#3D5DA7" mask="url(#b)"/><path d="m25.933 17.552.03.05c.226.394.782.752 1.333.872-.076-.177.01-.428.098-.69.096-.284.195-.577.086-.767l-.1-.171.174.095c.157.087.294.175.43.277a1.252 1.252 0 0 0-.126-.41c-.054-.12-.104-.233-.104-.37l.105-.022c.05.114.11.142.23.197.043.02.093.042.15.073-.052-.798-.728-1.484-.735-1.492l.065-.087c.006.004.563.313.922.413-.044-.44-.453-1.28-.744-1.5-.956-.716-1.712-.701-2.119-.693-.196.004-.314.006-.365-.075-.028-.045-.024-.104 0-.175-.957.553-1.727 1.585-1.935 2.597.124-.1.234-.184.362-.269l.144-.095-.079.205c-.2.52-.21.547-.119 1.11l.086-.108a5.06 5.06 0 0 0 .162-.203l.069-.09.028.11c.107.408.39.733.707 1.05a.862.862 0 0 1 .17-.403l.098.049c-.056.178.5.673.757.876.013-.123.05-.24.17-.321l.05-.033Zm1.685 1.085-.202-.029c-.607-.088-1.231-.459-1.515-.895-.065.07-.079.163-.083.274l.016.014-.052.082-.043-.02a.2.2 0 0 1-.012-.009l-.01-.008c-.123-.091-.711-.552-.846-.877a.951.951 0 0 0-.09.339l-.016.108-.077-.077c-.332-.327-.64-.656-.782-1.074-.04.052-.07.087-.098.122-.042.051-.084.102-.162.204l-.077.1-.025-.151c-.104-.629-.111-.688.061-1.141a7.854 7.854 0 0 0-.323.253l-.11.09.021-.14c.173-1.134 1.054-2.32 2.146-2.892l.064-.125.04.195-.022.011c-.077.152-.07.192-.064.202.018.029.145.026.27.024.419-.009 1.2-.024 2.186.716.333.25.792 1.212.792 1.659v.068l-.067-.015c-.222-.047-.54-.193-.763-.305.229.292.578.836.578 1.444v.1l-.084-.053a1.8 1.8 0 0 0-.225-.118 1.033 1.033 0 0 1-.137-.07c.015.039.033.079.051.12.067.15.143.32.143.573v.114l-.09-.071a3.465 3.465 0 0 0-.382-.267c.038.21-.048.462-.13.707-.1.293-.193.57-.04.692l.16.126Z" fill="#000" mask="url(#b)"/><path d="M24.404 16.69c.063-.527.201-.726.242-1.066.074-.597-.013-1.034.198-1.023.212.011.273.232.168.828-.104.596-.193.74-.608 1.261Zm1.105.966c-.043-.445.04-.635.012-.921-.047-.505-.203-.846-.018-.878.184-.031.277.138.297.647.02.51-.029.645-.291 1.152Zm1.725.788c-.188-.385-.349-.5-.47-.748-.214-.435-.259-.791-.423-.727-.165.065-.156.249.082.675.238.427.346.514.811.8m.597-3.449c-.478-.251-.723-.255-1.031-.416-.542-.284-.858-.604-.97-.428-.112.177.038.352.597.61.559.257.73.27 1.404.234Zm.175 1.441c-.348-.29-.554-.332-.778-.518-.395-.327-.592-.648-.724-.518s-.044.302.371.61.557.346 1.131.426" fill="#A70000" mask="url(#b)"/></g></svg>