<svg width="24" height="24" viewBox="0 0 24 24" fill="none" xmlns="http://www.w3.org/2000/svg">
<path d="M1 15H23V19.5C23 20.3284 22.3284 21 21.5 21H2.5C1.67157 21 1 20.3284 1 19.5V15Z" fill="#46A753"/>
<path d="M1 4.5C1 3.67157 1.67157 3 2.5 3H21.5C22.3284 3 23 3.67157 23 4.5V15H1V4.5Z" fill="#D0091E"/>
<path fill-rule="evenodd" clip-rule="evenodd" d="M4 4.5H2.5V6H4V7.5H2.5V9H4V10.5H2.5V12H4V13.5H2.5V15H4V16.5H2.5V18H4V19.5H5.5V18H4V16.5H5.5V15H4V13.5H5.5V12H4V10.5H5.5V9H4V7.5H5.5V6H4V4.5Z" fill="white"/>
</svg>
