<svg width="24" height="24" viewBox="0 0 24 24" fill="none" xmlns="http://www.w3.org/2000/svg">
<path d="M1 4.5C1 3.67157 1.67157 3 2.5 3H6V21H2.5C1.67157 21 1 20.3284 1 19.5V4.5Z" fill="#FF0000"/>
<path d="M18 3H21.5C22.3284 3 23 3.67157 23 4.5V19.5C23 20.3284 22.3284 21 21.5 21H18V3Z" fill="#FF0000"/>
<rect x="6" y="3" width="12" height="18" fill="white"/>
<path fill-rule="evenodd" clip-rule="evenodd" d="M12 8.5L11 10.5L9.5 9.5V11.5L8.5 12.5L10.5 13.5H11.5V15.5H12.5V13.5H13.5L15.5 12.5L14.5 11.5V9.5L12.9 10.5L12 8.5Z" fill="#FF0000"/>
</svg>
