<svg width="24" height="24" viewBox="0 0 24 24" fill="none" xmlns="http://www.w3.org/2000/svg">
<path d="M1 4.5C1 3.67157 1.67157 3 2.5 3H8V21H2.5C1.67157 21 1 20.3284 1 19.5V4.5Z" fill="#006700"/>
<path d="M8 3H21.5C22.3284 3 23 3.67157 23 4.5V19.5C23 20.3284 22.3284 21 21.5 21H8V3Z" fill="#FF0000"/>
<path d="M8 13C9.65685 13 11 11.6569 11 10C11 8.34315 9.65685 7 8 7C6.34315 7 5 8.34315 5 10C5 11.6569 6.34315 13 8 13Z" fill="#FFFF00"/>
<path fill-rule="evenodd" clip-rule="evenodd" d="M10 11V8H6V11C6 11.552 6.895 12 8 12C9.105 12 10 11.552 10 11Z" fill="#FF0000"/>
<path fill-rule="evenodd" clip-rule="evenodd" d="M7 9H9V11H7V9Z" fill="white"/>
<path fill-rule="evenodd" clip-rule="evenodd" d="M7 9H8V10H7V9ZM8 10H9V11H8V10Z" fill="#002E9C"/>
</svg>
