<svg width="24" height="24" viewBox="0 0 24 24" fill="none" xmlns="http://www.w3.org/2000/svg">
<mask id="mask0_4197_1136" style="mask-type:alpha" maskUnits="userSpaceOnUse" x="1" y="3" width="22" height="18">
<path d="M1 4C1 3.44772 1.44772 3 2 3H22C22.5523 3 23 3.44772 23 4V20C23 20.5523 22.5523 21 22 21H2C1.44772 21 1 20.5523 1 20V4Z" fill="#22438B"/>
</mask>
<g mask="url(#mask0_4197_1136)">
<path d="M1 3H23V21H1V3Z" fill="#22438B"/>
<path fill-rule="evenodd" clip-rule="evenodd" d="M7.875 3H5.125V5.25L2.375 3H1L4.4375 6H5.125V6.00002H1V9.00002H3.06245L1 10.875V12L4.43745 9.00002H5.125V12H7.875V9.74998L10.625 12H12L8.56255 9.00002H12V6.00002H7.875V3ZM12 3L8.5625 6H9.9375L12 4.125V3Z" fill="white"/>
<path fill-rule="evenodd" clip-rule="evenodd" d="M7.1875 3H5.8125V6.74998H1V8.24998H5.8125V12H7.1875V8.24998H12V6.74998H7.1875V3ZM4.4375 6L1 3V4.125L3.0625 6H4.4375ZM7.875 6V5.25L10.625 3H12L8.5625 6H7.875ZM5.125 8.99998V9.74998L2.375 12H1L4.4375 8.99998H5.125ZM8.5625 8.99998H9.9375L12 10.875V12L8.5625 8.99998Z" fill="#C7152A"/>
<circle cx="17" cy="7" r="1" fill="white"/>
<circle cx="15" cy="12" r="1" fill="white"/>
<circle cx="6.5" cy="16.5" r="1.5" fill="white"/>
<circle cx="20" cy="11" r="1" fill="white"/>
<circle cx="18" cy="16" r="1" fill="white"/>
</g>
</svg>
