<svg width="48" height="48" viewBox="0 0 48 48" fill="none" xmlns="http://www.w3.org/2000/svg">
<path d="M38.1754 0H9.82456C4.39861 0 0 4.4072 0 9.84375V38.1562C0 43.5928 4.39861 48 9.82456 48H38.1754C43.6014 48 48 43.5928 48 38.1562V9.84375C48 4.4072 43.6014 0 38.1754 0Z" fill="url(#paint0_linear_4606_20898)"/>
<path d="M23.9532 45C35.5286 45 44.9123 35.598 44.9123 24C44.9123 12.402 35.5286 3 23.9532 3C12.3778 3 2.99414 12.402 2.99414 24C2.99414 35.598 12.3778 45 23.9532 45Z" fill="url(#paint1_linear_4606_20898)"/>
<path d="M38.2694 9.5625L22.1758 22.2187L25.9185 25.9687L38.2694 9.5625Z" fill="#F13333"/>
<path d="M9.54395 38.3438L22.1755 22.2188L25.9182 25.9688L9.54395 38.3438Z" fill="white"/>
<path d="M23.9534 5.0625V8.15625V5.0625ZM23.9534 39.75V42.8437V39.75ZM27.2283 5.34375L26.6949 8.39062L27.2283 5.34375ZM21.2119 39.4969L20.6786 42.5625L21.2119 39.4969ZM30.4095 6.20625L29.3522 9.1125L30.4095 6.20625ZM18.5639 38.7937L17.5066 41.7L18.5639 38.7937ZM20.6786 5.34375L21.2119 8.39062L20.6786 5.34375ZM26.6949 39.4969L27.2283 42.5625L26.6949 39.4969ZM17.4973 6.20625L18.5546 9.1125L17.4973 6.20625ZM29.3335 38.7937L30.3908 41.7L29.3335 38.7937ZM14.5218 7.59375L16.075 10.275L14.5218 7.59375ZM31.8411 37.6312L33.385 40.3125L31.8411 37.6312ZM11.8365 9.46875L13.8201 11.8406L11.8365 9.46875ZM34.0867 36.0469L36.0704 38.4187L34.0867 36.0469ZM9.49727 11.7937L11.8645 13.7812L9.49727 11.7937ZM36.0236 34.1062L38.3908 36.0937L36.0236 34.1062ZM7.60721 14.5125L10.2832 16.0594L7.60721 14.5125ZM37.6049 31.8562L40.2809 33.4031L37.6049 31.8562ZM6.22242 17.4937L9.123 18.5531L6.22242 17.4937ZM38.7464 29.3344L41.647 30.3937L38.7464 29.3344ZM5.37095 20.6437L8.42125 21.1875L5.37095 20.6437ZM39.4856 26.7L42.5265 27.2344L39.4856 26.7ZM5.09961 23.9531H8.18733H5.09961ZM39.7195 23.9531H42.8072H39.7195ZM5.38031 27.2344L8.42125 26.7L5.38031 27.2344ZM39.4856 21.2062L42.5265 20.6719L39.4856 21.2062ZM6.25049 30.4219L9.15107 29.3625L6.25049 30.4219ZM38.7651 18.5625L41.6657 17.5031L38.7651 18.5625ZM7.62592 33.4031L10.3019 31.8562L7.62592 33.4031ZM37.6236 16.0594L40.2996 14.5125L37.6236 16.0594ZM9.50663 36.0937L11.8739 34.1062L9.50663 36.0937ZM36.0142 13.8L38.3815 11.8125L36.0142 13.8ZM11.8084 38.4375L13.792 36.0656L11.8084 38.4375ZM34.0587 11.8594L36.0423 9.4875L34.0587 11.8594ZM14.5218 40.3125L16.075 37.6312L14.5218 40.3125ZM31.8411 10.275L33.385 7.59375L31.8411 10.275ZM22.3066 5.1375L22.4563 6.825L22.3066 5.1375ZM25.4505 41.1L25.6002 42.7875L25.4505 41.1ZM19.0692 5.71875L19.509 7.35L19.0692 5.71875ZM28.3979 40.575L28.8376 42.2062L28.3979 40.575ZM15.9815 6.84375L16.6926 8.37187L15.9815 6.84375ZM31.1955 39.5531L31.916 41.0812L31.1955 39.5531ZM13.137 8.475L14.1008 9.8625L13.137 8.475ZM33.806 38.0437L34.7698 39.4312L33.806 38.0437ZM10.6201 10.5937L11.8084 11.7844L10.6201 10.5937ZM36.0984 36.1219L37.2867 37.3125L36.0984 36.1219ZM8.51481 13.125L9.89961 14.0906L8.51481 13.125ZM38.0259 33.8437L39.392 34.7812L38.0259 33.8437ZM6.86803 15.9656L8.39318 16.6781L6.86803 15.9656ZM39.5136 31.2094L41.0388 31.9312L39.5136 31.2094ZM5.74522 19.0594L7.37329 19.5L5.74522 19.0594ZM40.5335 28.4062L42.1616 28.8469L40.5335 28.4062ZM5.17446 22.3125L6.85867 22.4625L5.17446 22.3125ZM41.0669 25.4625L42.7511 25.6125L41.0669 25.4625ZM5.19318 25.6125L6.87739 25.4625L5.19318 25.6125ZM41.0856 22.4625L42.7698 22.3125L41.0856 22.4625ZM5.74522 28.8469L7.37329 28.4062L5.74522 28.8469ZM40.5335 19.5L42.1616 19.0594L40.5335 19.5ZM6.86803 31.9406L8.39318 31.2281L6.86803 31.9406ZM39.5136 16.6969L41.0388 15.9844L39.5136 16.6969ZM8.51481 34.7812L9.89961 33.8156L8.51481 34.7812ZM38.0259 14.0625L39.392 13.125L38.0259 14.0625ZM13.137 39.4312L14.1008 38.0437L13.137 39.4312ZM33.7967 9.8625L34.7698 8.475L33.7967 9.8625ZM15.9815 41.0625L16.7019 39.5344L15.9815 41.0625ZM31.2049 8.34375L31.9253 6.81562L31.2049 8.34375ZM19.0692 42.1875L19.509 40.5562L19.0692 42.1875ZM28.3979 7.33125L28.8376 5.7L28.3979 7.33125ZM22.3066 42.75L22.4563 41.0625L22.3066 42.75ZM25.4505 6.7875L25.6002 5.1L25.4505 6.7875Z" fill="black"/>
<path d="M23.9534 5.0625V8.15625M23.9534 39.75V42.8437M27.2283 5.34375L26.6949 8.39062M21.2119 39.4969L20.6786 42.5625M30.4095 6.20625L29.3522 9.1125M18.5639 38.7937L17.5066 41.7M20.6786 5.34375L21.2119 8.39062M26.6949 39.4969L27.2283 42.5625M17.4973 6.20625L18.5546 9.1125M29.3335 38.7937L30.3908 41.7M14.5218 7.59375L16.075 10.275M31.8411 37.6312L33.385 40.3125M11.8365 9.46875L13.8201 11.8406M34.0867 36.0469L36.0704 38.4187M9.49727 11.7937L11.8645 13.7812M36.0236 34.1062L38.3908 36.0937M7.60721 14.5125L10.2832 16.0594M37.6049 31.8562L40.2809 33.4031M6.22242 17.4937L9.123 18.5531M38.7464 29.3344L41.647 30.3937M5.37095 20.6437L8.42125 21.1875M39.4856 26.7L42.5265 27.2344M5.09961 23.9531H8.18733M39.7195 23.9531H42.8072M5.38031 27.2344L8.42125 26.7M39.4856 21.2062L42.5265 20.6719M6.25049 30.4219L9.15107 29.3625M38.7651 18.5625L41.6657 17.5031M7.62592 33.4031L10.3019 31.8562M37.6236 16.0594L40.2996 14.5125M9.50663 36.0937L11.8739 34.1062M36.0142 13.8L38.3815 11.8125M11.8084 38.4375L13.792 36.0656M34.0587 11.8594L36.0423 9.4875M14.5218 40.3125L16.075 37.6312M31.8411 10.275L33.385 7.59375M22.3066 5.1375L22.4563 6.825M25.4505 41.1L25.6002 42.7875M19.0692 5.71875L19.509 7.35M28.3979 40.575L28.8376 42.2062M15.9815 6.84375L16.6926 8.37187M31.1955 39.5531L31.916 41.0812M13.137 8.475L14.1008 9.8625M33.806 38.0437L34.7698 39.4312M10.6201 10.5937L11.8084 11.7844M36.0984 36.1219L37.2867 37.3125M8.51481 13.125L9.89961 14.0906M38.0259 33.8437L39.392 34.7812M6.86803 15.9656L8.39318 16.6781M39.5136 31.2094L41.0388 31.9312M5.74522 19.0594L7.37329 19.5M40.5335 28.4062L42.1616 28.8469M5.17446 22.3125L6.85867 22.4625M41.0669 25.4625L42.7511 25.6125M5.19318 25.6125L6.87739 25.4625M41.0856 22.4625L42.7698 22.3125M5.74522 28.8469L7.37329 28.4062M40.5335 19.5L42.1616 19.0594M6.86803 31.9406L8.39318 31.2281M39.5136 16.6969L41.0388 15.9844M8.51481 34.7812L9.89961 33.8156M38.0259 14.0625L39.392 13.125M13.137 39.4312L14.1008 38.0437M33.7967 9.8625L34.7698 8.475M15.9815 41.0625L16.7019 39.5344M31.2049 8.34375L31.9253 6.81562M19.0692 42.1875L19.509 40.5562M28.3979 7.33125L28.8376 5.7M22.3066 42.75L22.4563 41.0625M25.4505 6.7875L25.6002 5.1" stroke="white" stroke-width="0.414245"/>
<defs>
<linearGradient id="paint0_linear_4606_20898" x1="24" y1="0" x2="24" y2="48" gradientUnits="userSpaceOnUse">
<stop stop-color="#FAFAFA"/>
<stop offset="1" stop-color="#E4E4E4"/>
</linearGradient>
<linearGradient id="paint1_linear_4606_20898" x1="23.9532" y1="3" x2="23.9532" y2="45" gradientUnits="userSpaceOnUse">
<stop stop-color="#19D7FF"/>
<stop offset="1" stop-color="#1E64F0"/>
</linearGradient>
</defs>
</svg>
