<svg width="24" height="24" viewBox="0 0 24 24" fill="none" xmlns="http://www.w3.org/2000/svg">
<path d="M20.9845 16.8873C21.0188 17.0077 20.9956 17.1373 20.9216 17.2382C20.8482 17.3387 20.7318 17.3987 20.6074 17.4001H17.9144C17.5784 17.4008 17.2701 17.2133 17.1155 16.9143C16.7626 16.2131 16.3089 15.5675 15.769 14.9982C15.5855 14.8028 15.3276 14.6948 15.0599 14.7013H14.7008C14.461 14.6935 14.2292 14.7884 14.0635 14.9622C13.8954 15.132 13.8018 15.3618 13.8031 15.6009V16.5005C13.8031 16.9973 13.4013 17.4001 12.9055 17.4001H11.954C7.27714 17.4001 3.40821 9.15984 3.03119 8.05334C2.97745 7.92598 2.99392 7.77976 3.07464 7.66761C3.15536 7.55547 3.28862 7.49367 3.42616 7.50459H6.11915C6.45718 7.50561 6.76596 7.69685 6.91807 7.99936C7.52691 9.14309 8.22318 10.2379 9.00065 11.2739C9.17452 11.5062 9.47723 11.601 9.75215 11.5091C10.0271 11.4173 10.2125 11.1595 10.2125 10.8691V8.82699C10.2013 8.31407 9.90265 7.85125 9.44051 7.63053C9.3797 7.59477 9.33828 7.53338 9.32782 7.4635C9.31736 7.39363 9.33899 7.32276 9.38665 7.27069C9.93407 6.80087 10.642 6.56223 11.3615 6.60499H12.4567C13.2003 6.60499 13.8031 7.20914 13.8031 7.95438V10.2034C13.8031 10.7002 14.205 11.103 14.7008 11.103C14.9961 11.1075 15.2746 10.9662 15.4459 10.7251C16.0652 9.86962 16.6174 8.96733 17.0976 8.02635C17.2511 7.72093 17.5642 7.52919 17.9055 7.53157H20.5985C20.7148 7.53216 20.8241 7.58786 20.8931 7.6818C20.962 7.77574 20.9826 7.89684 20.9485 8.00836C20.394 9.5068 19.6552 10.9301 18.7493 12.2454C18.5852 12.4972 18.6072 12.8274 18.8031 13.0551C19.7469 14.1724 20.4855 15.4486 20.9845 16.8244V16.8873Z" fill="#A3ABC0"/>
</svg>
