<svg width="126" height="28" viewBox="0 0 126 28" fill="none" xmlns="http://www.w3.org/2000/svg">
<g id="logo">
<g id="a-link">
<path id="a" fill-rule="evenodd" clip-rule="evenodd" d="M5.07487 18.2702L5.07594 20.8256V21.4609C5.07808 23.817 5.08023 26.4898 5.07487 27.1186C5.07487 27.6947 4.79531 27.9726 4.22763 27.9823C3.10083 27.992 1.9644 27.992 0.8376 27.9823C0.259206 27.9823 0 27.7044 0 27.1186V0.831809C0 0.26539 0.249566 0.0177157 0.817249 0.0177157C1.78874 0.0177157 2.76022 0.0134084 3.73064 0.00910099H3.73385C6.05171 -0.00166745 8.36957 -0.0124359 10.6874 0.0370989C15.4217 0.137245 18.9424 3.63806 19.1513 8.35033C19.2605 10.8594 18.7828 13.1918 17.1483 15.1754C15.4924 17.1891 13.2891 18.1614 10.7078 18.2605C9.28537 18.3197 6.39125 18.2853 5.40156 18.2734L5.07487 18.2702ZM5.0933 14.0948L6.65389 14.0927L6.66621 14.0927H6.66627H6.66633H6.66639C7.67964 14.0905 8.67704 14.0884 9.67975 14.0948C10.9651 14.1056 12.0126 13.6081 12.8095 12.6271C14.0456 11.1087 14.3647 9.36426 13.8667 7.49809C13.299 5.37456 11.6838 4.18465 9.49017 4.18465H5.10401C5.0933 7.50778 5.0933 10.7717 5.0933 14.0948ZM37.8679 27.9913C37.131 28.0506 36.7218 27.6941 36.4626 27.0588L36.4637 27.0577L35.9924 25.9378L35.9656 25.8743L35.9367 25.8043L35.926 25.7806C35.5404 24.8663 35.1548 23.951 34.7874 23.0314C34.6482 22.6739 34.4586 22.5856 34.0912 22.5856H33.7591L33.7478 22.5856C30.3026 22.5953 26.8682 22.6049 23.423 22.5856C23.0139 22.5856 22.8446 22.7342 22.7054 23.0809C22.3177 24.0479 21.9149 25.0042 21.5111 25.9604L21.3537 26.3351L21.0698 27.0093C20.741 27.8029 20.4625 27.9816 19.5949 27.9816H16.7029C15.8364 27.9816 15.5269 27.5251 15.8953 26.7325C16.4084 25.6072 18.6556 20.7248 21.1427 15.3212L21.5004 14.5426L21.5143 14.5125L21.7468 14.0064C23.7802 9.59251 25.811 5.17745 27.8392 0.761192C28.0288 0.354145 28.2483 0.0773963 28.7464 0.0666278C29.2648 0.0569363 29.5647 0.235692 29.7832 0.721349C33.7217 9.38132 37.6633 18.0381 41.6071 26.6916C41.9959 27.5444 41.6971 27.9913 40.7599 27.9913C40.2607 27.9816 38.3274 27.9515 37.8679 27.9913ZM24.8618 18.3661H32.6584C31.3407 15.4884 30.0279 12.6086 28.7199 9.72656C27.4273 12.6034 26.1413 15.4833 24.8618 18.3661ZM50.2208 9.58265C52.2538 6.61633 54.2775 3.6435 56.2918 0.664235H56.2928C56.582 0.228113 56.9205 0.0482801 57.4389 0.0590486C58.2422 0.0795086 59.0498 0.0762781 59.8553 0.0719707L60.2902 0.0687402H60.8289C61.1974 0.0687402 61.5766 0.0687402 61.7758 0.465018C61.975 0.852682 61.7961 1.15958 61.5766 1.47725C58.7441 5.65444 55.9056 9.82757 53.0613 13.9966C52.8168 14.3438 52.6909 14.7613 52.7025 15.1865C52.7121 19.1052 52.7154 23.0195 52.7121 26.9317C52.7121 27.7555 52.4829 27.9837 51.6453 27.9837H48.6045C47.8665 27.9837 47.6276 27.7361 47.6276 27.0017C47.6276 23.0044 47.6244 19.0061 47.618 15.0078C47.6148 14.716 47.5291 14.4295 47.3684 14.184C46.4718 12.8338 45.2541 11.0111 44.0156 9.15713L43.6474 8.60595L43.6378 8.59195C41.1668 4.893 38.73 1.24465 38.685 1.12943C38.4665 0.624391 38.745 0.0988918 39.2934 0.0881233C40.6564 0.0502304 42.0203 0.0570541 43.3829 0.108583C43.6314 0.118275 43.9302 0.405792 44.0898 0.634083C45.5502 2.75876 47.0076 4.88553 48.462 7.01438C48.6887 7.34576 48.9021 7.6579 49.0969 7.94276C49.7351 8.87606 50.1732 9.51665 50.2208 9.58265Z" fill="#919EAB"/>
</g>
<g id="b-link">
<path id="b" fill-rule="evenodd" clip-rule="evenodd" d="M84.2946 0.996956V13.9772V13.9794C84.2914 18.3094 84.2946 22.6329 84.3054 26.951C84.3054 27.8265 84.4639 27.9859 85.3518 27.9859H100.608C101.306 27.9859 101.516 27.7662 101.516 27.0609V24.9718C101.516 24.0166 101.377 23.8777 100.439 23.8777C96.879 23.8777 93.3294 23.8777 89.769 23.8863C89.3909 23.8863 89.241 23.8067 89.241 23.3996C89.2603 21.1124 89.2603 18.8241 89.241 16.5358C89.241 16.118 89.4006 16.048 89.769 16.048C91.2547 16.0588 97.2282 16.0588 98.7438 16.048C99.3918 16.048 99.621 15.81 99.621 15.1822V13.0931C99.621 12.0788 99.4818 11.9388 98.4342 11.9388C97.7589 11.9388 97.0829 11.9383 96.4067 11.9378C94.2075 11.9363 92.0052 11.9347 89.8097 11.9495C89.3706 11.9495 89.2399 11.83 89.2399 11.3928C89.256 9.75084 89.254 8.10949 89.252 6.46829C89.2513 5.92128 89.2506 5.37428 89.2506 4.82729C89.2506 4.47109 89.2506 4.29207 89.3401 4.20209C89.4306 4.11119 89.6124 4.11119 89.9779 4.11119H100.598C101.317 4.11119 101.516 3.90228 101.516 3.19587V0.95819C101.516 0.202246 101.317 0.00195312 100.539 0.00195312H85.2822C84.4746 0.00195312 84.2946 0.181786 84.2946 0.996956ZM118.666 17.1695C118.608 17.0559 118.548 16.938 118.483 16.8136C118.672 16.7126 118.865 16.6195 119.062 16.5347C123.11 14.5943 124.836 10.7553 124.068 6.59654C123.349 2.6876 120.029 0.0321047 115.961 0.0105679C113.535 -0.00235234 111.109 0.00195312 108.683 0.00625859L108.683 0.00625923L108.682 0.00625987C107.469 0.00841376 106.256 0.0105679 105.042 0.0105679C104.354 0.0105679 104.125 0.249627 104.125 0.936653V26.95C104.125 27.7156 104.334 27.9148 105.102 27.9148H107.994C108.941 27.9148 109.081 27.7748 109.081 26.8207C109.081 23.7668 109.081 20.7226 109.07 17.6686C109.07 17.2314 109.2 17.0807 109.638 17.0915C110.702 17.1213 111.766 17.1213 112.83 17.0915C113.288 17.0818 113.508 17.2508 113.697 17.6493C114.903 20.1626 116.127 22.6707 117.35 25.1776C117.695 25.8844 118.04 26.5911 118.385 27.2978L118.402 27.3354C118.535 27.6222 118.671 27.9148 119.072 27.9148C119.421 27.9148 119.77 27.9154 120.119 27.916H120.119H120.119C121.166 27.9178 122.214 27.9197 123.26 27.9051C123.728 27.8954 123.998 27.497 123.878 27.0393C123.827 26.8638 123.75 26.6958 123.65 26.5408C122.054 23.5407 120.458 20.5427 118.862 17.5491C118.798 17.4262 118.734 17.3009 118.667 17.1697L118.666 17.1695ZM109.493 13.0433L109.16 13.0439V4.12012H115.023C117.088 4.12012 118.543 5.23465 119.091 7.23435C119.61 9.11344 118.912 11.2424 117.417 12.3569C116.833 12.8066 116.117 13.0483 115.382 13.0439C113.768 13.0347 110.549 13.0412 109.494 13.0433H109.493H109.493ZM69.2994 4.11887V11.9475H78.6126C79.4009 11.9475 79.6302 12.1769 79.6302 12.9425V15.1307C79.6302 15.8177 79.3913 16.0568 78.7026 16.0568H69.309V23.8854H80.4881C81.345 23.8854 81.5346 24.0739 81.5346 24.9299V27.019C81.5346 27.7642 81.3054 27.9936 80.5577 27.9936C79.0309 27.9936 76.9181 27.9947 74.7441 27.9959H74.7399C70.1985 27.9983 65.3914 28.0008 65.1018 27.9936C64.6091 27.985 64.3563 27.7965 64.2845 27.3841C64.2738 27.3205 64.2642 9.72923 64.2642 1.17371C64.2642 0.180857 64.4334 0.0214844 65.4102 0.0214844H80.4078C81.3557 0.0214844 81.5249 0.190549 81.5249 1.1554V3.14433C81.5249 3.91966 81.315 4.12856 80.5181 4.12856C76.9974 4.1178 69.5586 4.1178 69.2994 4.1178V4.11887Z" fill="#919EAB"/>
</g>
</g>
</svg>
