<svg width="59" height="32" fill="none" xmlns="http://www.w3.org/2000/svg"><path d="M10.68 7.094c-.685.81-1.78 1.45-2.877 1.359-.137-1.096.4-2.26 1.028-2.98.685-.834 1.883-1.427 2.854-1.473.114 1.142-.331 2.26-1.005 3.094Zm.994 1.576c-1.588-.091-2.946.902-3.7.902-.765 0-1.918-.856-3.174-.834-1.633.023-3.151.948-3.985 2.42-1.712 2.947-.445 7.308 1.21 9.706.811 1.187 1.782 2.489 3.06 2.443 1.21-.045 1.69-.787 3.152-.787 1.473 0 1.895.787 3.174.765 1.325-.023 2.158-1.188 2.969-2.375.924-1.348 1.301-2.66 1.324-2.73-.023-.022-2.558-.993-2.58-3.915-.023-2.444 1.998-3.609 2.09-3.677-1.143-1.69-2.924-1.872-3.54-1.918Zm9.168-3.311v17.8h2.763v-6.086h3.825c3.494 0 5.949-2.398 5.949-5.868 0-3.471-2.41-5.846-5.858-5.846h-6.679Zm2.763 2.329h3.186c2.397 0 3.767 1.279 3.767 3.528 0 2.25-1.37 3.54-3.779 3.54h-3.174V7.688Zm14.82 15.608c1.736 0 3.346-.88 4.076-2.272h.058v2.135h2.557v-8.86c0-2.57-2.055-4.225-5.218-4.225-2.934 0-5.104 1.679-5.184 3.985h2.49c.205-1.096 1.221-1.815 2.614-1.815 1.69 0 2.638.787 2.638 2.237v.982l-3.448.206c-3.209.194-4.944 1.507-4.944 3.79 0 2.307 1.792 3.837 4.361 3.837Zm.742-2.112c-1.473 0-2.409-.708-2.409-1.793 0-1.119.902-1.77 2.626-1.872l3.072-.194v1.004c0 1.667-1.416 2.855-3.289 2.855ZM48.53 28c2.694 0 3.962-1.028 5.07-4.145l4.852-13.61h-2.809L52.39 20.761h-.057l-3.254-10.515h-2.889l4.682 12.959-.252.787c-.422 1.336-1.107 1.85-2.329 1.85-.217 0-.64-.023-.81-.046v2.136c.16.045.844.068 1.05.068Z" fill="#919EAB"/></svg>