<svg width="57" height="16" fill="none" xmlns="http://www.w3.org/2000/svg"><g clip-path="url(#a)" fill-rule="evenodd" clip-rule="evenodd" fill="#333D48"><path d="M5.368.483C5.871.48 7.367.345 8 2.483c.427 1.44 1.106 3.798 2.039 7.076h.38c1-3.455 1.687-5.814 2.061-7.076.64-2.16 2.24-2 2.88-2h4.938v15.36h-5.033V6.79h-.337l-2.806 9.052H8.336L5.53 6.784h-.337v9.059H.16V.483h5.208Zm22.157 0V9.54h.401l3.413-7.449C32 .61 33.413.482 33.413.482h4.87v15.36h-5.138V6.785h-.401l-3.346 7.449c-.662 1.476-2.141 1.61-2.141 1.61h-4.87V.483h5.138Zm28.517 7.299c-.717 2.03-2.968 3.485-5.46 3.485h-5.387v4.576h-4.886V7.782h15.733ZM50.818.482H40.053c.256 3.42 3.2 6.348 6.25 6.348H56.38c.582-2.843-1.42-6.348-5.563-6.348Z"/></g><defs><clipPath id="a"><path fill="#fff" d="M0 0h56.8v16H0z"/></clipPath></defs></svg>