<svg width="55" height="20" fill="none" xmlns="http://www.w3.org/2000/svg"><g clip-path="url(#a)"><path fill-rule="evenodd" clip-rule="evenodd" d="M13.482 17.384c1.693 0 3.53.58 5.564 2.377.203.18.475-.043.297-.267-1.999-2.518-3.847-2.998-5.69-3.403-2.255-.496-3.414-1.762-4.222-3.152-.161-.277-.233-.228-.248.128-.018.434.013 1.01.11 1.576-.091.004-.182.003-.275.003a5.835 5.835 0 0 1-5.84-5.83c0-3.218 2.615-5.827 5.84-5.827 3.226 0 5.84 2.61 5.84 5.828 0 .23-.01.456-.037.678-.426-.077-1.265-.086-1.854-.035-.221.02-.19.122-.023.152 1.931.349 3.257 1.543 3.56 3.71.007.05.073.064.098.021a8.762 8.762 0 0 0 1.251-4.526C17.853 3.948 13.897 0 9.02 0 4.139 0 .184 3.947.184 8.817s3.955 8.818 8.835 8.818c1.293 0 2.579-.251 4.463-.251Zm.657-3.202c.394.332.513.726.305 1.004-.115.153-.303.237-.528.237a.937.937 0 0 1-.6-.217c-.358-.312-.463-.817-.23-1.104a.52.52 0 0 1 .417-.175c.216 0 .442.091.636.255Zm1.814-.842c.058.386-.064.546-.187.546-.135 0-.303-.156-.501-.465-.196-.305-.268-.655-.17-.832.063-.117.197-.168.367-.104.328.123.456.624.491.855ZM28.2 11.321l-1.018-1.223a.196.196 0 0 1 .046-.292.197.197 0 0 1 .106-.03h2.13a3 3 0 0 0 .16-.958c0-1.532-1.143-2.852-2.71-2.852-1.568 0-2.71 1.32-2.71 2.852 0 1.53 1.142 2.833 2.71 2.833.474 0 .91-.121 1.287-.33Zm4.61 2.066c.11.122.02.319-.148.319h-2.325a.318.318 0 0 1-.245-.115l-.393-.473a5.109 5.109 0 0 1-2.785.823c-2.831 0-5.134-2.299-5.134-5.123 0-2.825 2.303-5.124 5.134-5.124 2.83 0 5.133 2.298 5.133 5.124 0 1.018-.3 1.967-.816 2.766l1.578 1.803Zm21.48-9.456H52.39a.253.253 0 0 0-.252.252v9.27c0 .14.112.253.252.253h1.898c.14 0 .252-.113.252-.252V4.182a.253.253 0 0 0-.252-.252v.001Zm-3.194 0h-2.123a.252.252 0 0 0-.241.177l-1.68 5.479-1.847-5.485a.252.252 0 0 0-.24-.171h-1.48a.253.253 0 0 0-.24.17l-1.847 5.486-1.68-5.479a.253.253 0 0 0-.242-.177h-2.123a.253.253 0 0 0-.25.212.247.247 0 0 0 .01.117l3.12 9.276a.252.252 0 0 0 .239.17h1.685a.252.252 0 0 0 .239-.17l1.829-5.42 1.828 5.42a.252.252 0 0 0 .24.17h1.685a.252.252 0 0 0 .24-.17l3.118-9.276a.25.25 0 0 0-.24-.33v.001Zm-14.786.252v9.27c0 .14-.113.253-.253.253H34.16a.253.253 0 0 1-.253-.252V4.182c0-.139.113-.252.253-.252h1.897c.14 0 .253.113.253.252v.001Z" fill="#333D48"/></g><defs><clipPath id="a"><path fill="#fff" d="M0 0h54.375v20H0z"/></clipPath></defs></svg>