<svg width="50" height="32" fill="none" xmlns="http://www.w3.org/2000/svg"><g clip-path="url(#a)" fill="#919EAB"><path d="M21.492 23.77h-4.017l2.513-15.49h4.017l-2.512 15.49ZM36.057 8.66A9.93 9.93 0 0 0 32.454 8c-3.968 0-6.762 2.109-6.78 5.124-.032 2.225 2.001 3.46 3.522 4.202 1.554.758 2.083 1.253 2.083 1.928-.016 1.038-1.256 1.516-2.413 1.516-1.604 0-2.464-.246-3.77-.824l-.529-.247-.562 3.477c.942.428 2.678.807 4.48.824 4.217 0 6.961-2.076 6.994-5.29.016-1.763-1.058-3.114-3.373-4.218-1.405-.708-2.266-1.186-2.266-1.911.017-.66.728-1.335 2.315-1.335a6.846 6.846 0 0 1 2.993.593l.363.165.546-3.345Z"/><path fill-rule="evenodd" clip-rule="evenodd" d="M43.25 8.28h3.108l3.241 15.489h-3.72s-.364-1.78-.48-2.324h-5.158l-.843 2.323h-4.216L41.15 9.566c.413-1.005 1.141-1.285 2.1-1.285Zm-.248 5.667s-1.273 3.443-1.604 4.333h3.34c-.166-.774-.927-4.482-.927-4.482l-.28-1.334c-.119.343-.29.816-.405 1.135-.078.216-.13.361-.124.348Z"/><path d="m14.119 8.28-3.935 10.562-.43-2.142c-.727-2.471-3.009-5.157-5.555-6.492l3.604 13.545h4.25L18.367 8.28h-4.249Z"/><path d="M6.53 8.28H.067L0 8.595c5.043 1.285 8.382 4.383 9.754 8.107L8.35 9.583c-.231-.99-.942-1.27-1.818-1.302Z"/></g><defs><clipPath id="a"><path fill="#fff" d="M0 0h49.599v32H0z"/></clipPath></defs></svg>