<svg width="200" height="48" viewBox="0 0 200 48" fill="none" xmlns="http://www.w3.org/2000/svg">
<mask id="mask0_3113_26422" style="mask-type:luminance" maskUnits="userSpaceOnUse" x="0" y="4" width="151" height="40">
<path d="M150.556 4H0.555664V44H150.556V4Z" fill="white"/>
</mask>
<g mask="url(#mask0_3113_26422)">
<path d="M63.6943 18.9561C61.724 18.9561 60.2502 19.6852 59.5212 20.8912H59.3636V19.3266H55.762V35.8988H59.3636V30.6453H59.5212C60.2463 31.8513 61.724 32.5804 63.6943 32.5804C67.3905 32.5804 70.3222 29.5616 70.3222 25.7663C70.3222 21.9749 67.3905 18.9561 63.6943 18.9561ZM62.9653 29.3014C60.9556 29.3014 59.3636 27.7368 59.3636 25.7663C59.3636 23.7761 60.9556 22.2312 62.9653 22.2312C65.0341 22.2312 66.6063 23.7761 66.6063 25.7663C66.6063 27.7566 65.0143 29.3014 62.9653 29.3014Z" fill="#3B175C"/>
<path d="M144.251 19.929C142.191 19.929 140.578 20.7094 139.597 22.0651H139.436C139.703 19.6137 141.091 18.4235 144.078 17.9979L149.307 17.2412V13.9268L143.731 14.7189C138.581 15.4362 136.109 18.1634 136.109 23.078C136.109 26.6327 136.338 27.756 136.973 29.0999C137.969 31.2556 140.441 32.5799 143.427 32.5799C147.451 32.5799 150.556 29.7265 150.556 25.9904C150.552 22.3961 147.987 19.929 144.251 19.929ZM143.388 29.2851C141.339 29.2851 139.826 27.886 139.826 25.9904C139.826 24.075 141.319 22.676 143.388 22.676C145.417 22.676 146.914 24.075 146.914 25.9904C146.914 27.886 145.398 29.2851 143.388 29.2851Z" fill="#3B175C"/>
<path d="M51.986 15.4346L47.9311 23.6084L42.4065 15.4346H38.0996L46.1185 27.2658L45.8979 27.715C45.5511 28.4323 45.094 28.8185 44.038 28.8185H41.2007V32.2236H44.4399C46.9106 32.2236 47.9075 31.597 48.94 29.5358L56.029 15.4307H51.986V15.4346Z" fill="#3B175C"/>
<path d="M91.1278 19.3418L90.5131 27.3502C90.4184 28.6034 89.9968 29.0605 88.9999 29.0605H88.1172V32.3198H90.2648C92.6803 32.3198 93.7522 31.2163 93.9256 28.9147L94.3984 22.6918H98.8276V32.2094H102.469V19.3418H91.1278Z" fill="#3B175C"/>
<path d="M111.856 22.269C113.329 22.269 114.5 23.0966 115.055 24.2041L118.275 22.9902C117.376 20.5427 114.827 18.9585 111.781 18.9585C107.698 18.9585 104.617 21.9025 104.617 25.7726C104.617 29.6389 107.702 32.5867 111.781 32.5867C114.827 32.5867 117.376 31.0024 118.275 28.555L115.055 27.3411C114.5 28.4446 113.329 29.2762 111.856 29.2762C109.807 29.2762 108.329 27.822 108.329 25.7765C108.329 23.7232 109.807 22.269 111.856 22.269Z" fill="#3B175C"/>
<path d="M129.648 19.3223L124.056 27.504V19.3223H120.455V32.2096H124.439L129.994 24.087V32.2096H133.597V19.3223H129.648Z" fill="#3B175C"/>
<path d="M82.6929 20.8863H82.5354C81.8103 19.6803 80.3326 18.9512 78.3622 18.9512C74.6661 18.9512 71.7344 21.97 71.7344 25.7653C71.7344 29.5567 74.6661 32.5794 78.3622 32.5794C80.3326 32.5794 81.8064 31.8504 82.5354 30.6444H82.6929V32.209H86.2946V19.3217H82.6929V20.8863ZM79.0952 29.3004C77.0461 29.3004 75.4542 27.7555 75.4542 25.7653C75.4542 23.775 77.0265 22.2302 79.0952 22.2302C81.1049 22.2302 82.6969 23.775 82.6969 25.7653C82.693 27.7359 81.1049 29.3004 79.0952 29.3004Z" fill="#3B175C"/>
<path d="M27.9477 24.2041C27.9477 19.5379 25.4061 15.4352 21.5877 13.0981L21.639 16.2667C23.9087 18.2176 25.347 21.0551 25.347 24.2041C25.347 25.6426 25.0396 27.0141 24.4997 28.2674C22.8566 26.7066 21.6862 24.8701 20.9572 22.7025C20.0785 20.0777 19.8736 17.2047 19.8421 13.6932L19.846 12.1838C19.0579 11.8449 18.2344 11.5769 17.3911 11.3877L17.395 13.6893C17.4777 25.812 19.5781 30.8094 22.7029 34.5651C25.8986 32.1532 27.9477 28.4092 27.9477 24.2041C27.9477 24.208 27.9477 24.208 27.9477 24.2041Z" fill="#3B175C"/>
<path d="M11.1123 13.6917L11.1163 11.3901C10.273 11.5793 9.44943 11.8473 8.66133 12.1862L8.66526 13.6957C8.6298 17.2032 8.42883 20.0802 7.55009 22.705C6.82504 24.8725 5.65076 26.7051 4.00756 28.2698C3.46771 27.0165 3.16035 25.645 3.16035 24.2065C3.16035 21.0536 4.5947 18.22 6.86839 16.2692L6.91961 13.1006C3.0973 15.4337 0.555664 19.5364 0.555664 24.2026V24.2065C0.555664 28.4116 2.60868 32.1556 5.8005 34.5676C8.93321 30.8158 11.0296 25.8145 11.1123 13.6917Z" fill="#3B175C"/>
<path d="M15.4813 9.05124C15.036 9.01576 14.6342 9 14.2558 9C13.8775 9 13.4755 9.01576 13.0264 9.05124V11.7745C13.0264 23.7081 12.5653 28.8945 10.7803 36.9501C13.0421 37.5216 15.4459 37.5216 17.7117 36.954C15.9384 28.9576 15.4813 23.7711 15.4813 11.7745V9.05124Z" fill="#3B175C"/>
</g>
</svg>
