<svg width="200" height="48" viewBox="0 0 200 48" fill="none" xmlns="http://www.w3.org/2000/svg">
<g clip-path="url(#clip0_3113_26312)">
<path d="M53.2443 19.4268C53.2443 20.3546 53.1637 20.8982 53.0034 21.0593C52.861 21.2205 52.3255 21.2994 51.3969 21.2994H50.3259V27.242C50.3259 28.116 50.6832 28.5539 51.3969 28.5539C52.2718 28.5539 52.7813 28.6336 52.9229 28.7948C53.0661 28.9559 53.1377 29.5174 53.1377 30.4802C52.7813 30.4981 52.45 30.507 52.1473 30.507C50.6832 30.507 49.622 30.258 48.962 29.7583C48.319 29.2407 47.9984 28.4025 47.9984 27.2419V21.3271H46.5254L46.5523 19.9615C47.3376 19.9615 47.7754 19.9077 47.8641 19.8003C47.9545 19.6937 47.9984 19.3006 47.9984 18.6227V16.6695H50.2731V19.4268L53.2443 19.4268ZM45.2948 30.4002C44.1522 30.4002 43.4832 30.3212 43.2863 30.1601C43.108 29.999 43.0193 29.4285 43.0193 28.447V19.4266C44.1619 19.4266 44.8211 19.5063 45.0002 19.6666C45.1955 19.8099 45.2948 20.3543 45.2948 21.2992V30.4002ZM45.2948 18.7307C44.1522 18.7307 43.4832 18.651 43.2863 18.489C43.108 18.3287 43.0193 17.7582 43.0193 16.7767V16.0272C44.2507 16.0272 44.9107 16.0532 45.0002 16.107C45.1955 16.2136 45.2948 16.7141 45.2948 17.606V18.7307ZM40.7711 30.4002C39.8962 30.4002 39.3876 30.3383 39.2451 30.2138C39.1019 30.0706 39.0311 29.6059 39.0311 28.8222C38.424 29.964 37.0234 30.5337 34.8285 30.5337C31.7058 30.5337 30.1433 28.6521 30.1433 24.8865C30.1433 21.1218 31.6969 19.2386 34.8016 19.2386C36.658 19.2386 37.8982 19.7391 38.5225 20.7384V15.25C39.6472 15.25 40.2974 15.3314 40.4756 15.4925C40.6718 15.6528 40.7711 16.2136 40.7711 17.1771V30.4002ZM38.5493 24.8865C38.5493 23.6731 38.3621 22.7901 37.987 22.2367C37.5239 21.5222 36.6938 21.1665 35.4975 21.1665C33.9805 21.1665 33.0983 21.3268 32.8476 21.6467C32.5986 21.951 32.4733 23.031 32.4733 24.8865C32.4733 26.1178 32.6605 27.0187 33.0348 27.59C33.4987 28.2859 34.3109 28.6334 35.4706 28.6334C37.0055 28.6334 37.8982 28.482 38.1481 28.1784C38.4158 27.8578 38.5493 26.7608 38.5493 24.8865ZM28.9396 24.0031C28.9396 24.9138 28.8419 25.4485 28.6458 25.6088C28.4488 25.752 27.762 25.8236 26.5843 25.8236H20.8558C20.8558 26.6619 21.1146 27.3308 21.6322 27.8305C22.1677 28.3302 22.9254 28.5809 23.9069 28.5809H26.3158C27.2086 28.5809 27.7261 28.6606 27.8694 28.8218C28.0297 28.9642 28.1103 29.4997 28.1103 30.4266H23.9882C20.3651 30.4266 18.5543 28.5809 18.5543 24.8869C18.5543 21.1572 20.383 19.2927 24.0411 19.2927C25.6297 19.2927 26.861 19.7468 27.7359 20.6575C28.5383 21.4965 28.9396 22.6115 28.9396 24.0031ZM26.5843 24.0031C26.6023 23.9673 26.6023 23.9494 26.5843 23.9494C26.6202 22.0223 25.7005 21.0595 23.8271 21.0595C22.363 21.0595 21.4987 21.1832 21.231 21.4339C20.9812 21.6837 20.8558 22.5399 20.8558 24.0031H26.5843ZM18.2597 19.3735C18.2597 20.3721 18.1962 20.9515 18.0717 21.1126C17.9651 21.2559 17.546 21.3267 16.8144 21.3267C15.9037 21.3267 15.343 21.5139 15.1273 21.889C14.967 22.1918 14.8864 23.004 14.8864 24.3248V30.4C13.7446 30.4 13.0756 30.3211 12.8787 30.1599C12.7005 29.9988 12.6118 29.4462 12.6118 28.5005V19.4272C13.4858 19.4272 13.9936 19.4882 14.1369 19.6128C14.2793 19.7389 14.3517 20.1841 14.3517 20.9515C14.9043 19.8097 16.2073 19.2832 18.2597 19.3735ZM10.6846 30.4536H6.50963C4.1536 30.4536 2.45759 29.7667 1.42321 28.3938C0.602063 27.2862 0.191895 25.6715 0.191895 23.5491C0.191895 18.9623 2.29726 16.6698 6.50963 16.6698H10.6846C10.6846 17.6505 10.604 18.2218 10.4437 18.3821C10.3012 18.5432 9.77388 18.623 8.86484 18.623H6.50963C5.02846 18.623 4.10884 18.6767 3.75238 18.7841C3.21689 18.9265 2.87752 19.3359 2.7351 20.0154C2.64558 20.5151 2.60082 21.6919 2.60082 23.5491C2.60082 25.1368 2.85066 26.3039 3.35035 27.0542C3.95747 28.0007 5.00974 28.4727 6.50963 28.4727H8.73056C9.71203 28.4727 10.2825 28.5533 10.4437 28.7144C10.604 28.8756 10.6846 29.4542 10.6846 30.4536Z" fill="#1C297B"/>
<path d="M82.2937 23.7954C82.2937 30.7707 76.6409 36.4235 69.6648 36.4235C62.6886 36.4235 57.0342 30.7707 57.0342 23.7954C57.0342 16.8209 62.6886 11.1672 69.6648 11.1672C76.6409 11.1672 82.2937 16.8209 82.2937 23.7954Z" fill="white"/>
<path d="M63.8689 23.7953L69.665 29.5897L75.4602 23.7953L69.6642 18.0008L63.8689 23.7953ZM57.928 23.7953C57.928 17.3131 63.1829 12.0591 69.665 12.0591C76.1463 12.0591 81.4012 17.3131 81.4012 23.7953C81.4012 30.2774 76.1463 35.5315 69.665 35.5315C63.1829 35.5315 57.928 30.2774 57.928 23.7953Z" fill="#E2001A"/>
<path d="M199.808 30.4002C198.328 30.4002 197.436 30.3644 197.131 30.2928C196.757 30.2049 196.347 29.9103 195.901 29.4106L192.421 25.4757C192.135 25.1543 191.993 24.8865 191.993 24.6725C191.993 24.4584 192.135 24.1907 192.421 23.87L196.302 19.3997H199.381L194.106 24.6196L199.808 30.4002ZM191.806 30.4002C190.664 30.4002 189.995 30.3212 189.797 30.1601C189.619 29.999 189.53 29.4374 189.53 28.473V15.25C190.673 15.25 191.333 15.3314 191.511 15.4925C191.707 15.6349 191.806 16.1778 191.806 17.1242V30.4002ZM187.47 30.4002C186.327 30.4002 185.658 30.3212 185.461 30.1601C185.284 29.999 185.195 29.4374 185.195 28.473V24.2973C185.195 23.2092 185.044 22.4507 184.74 22.0218C184.347 21.4693 183.607 21.1926 182.517 21.1926C181.107 21.1926 180.279 21.3268 180.028 21.5946C179.797 21.8444 179.68 22.7453 179.68 24.2973V30.4002C178.538 30.4002 177.87 30.3212 177.674 30.1601C177.495 29.999 177.405 29.4374 177.405 28.473V19.4526C178.279 19.4526 178.788 19.5161 178.931 19.6406C179.073 19.7651 179.145 20.2111 179.145 20.9793C179.717 19.8546 181.055 19.2923 183.161 19.2923C184.838 19.2923 186.006 19.7651 186.667 20.7108C187.202 21.4969 187.47 22.7543 187.47 24.4853V30.4002ZM175.452 30.4002C174.594 30.4002 174.096 30.3302 173.953 30.187C173.81 30.0445 173.739 29.5619 173.739 28.74C173.453 29.2226 172.962 29.6238 172.266 29.9461C171.463 30.3212 170.535 30.5068 169.483 30.5068C168.233 30.5068 167.225 30.239 166.458 29.7052C165.619 29.116 165.2 28.2769 165.2 27.188C165.2 26.1007 165.556 25.2348 166.271 24.5919C167.056 23.8961 168.216 23.5486 169.75 23.5486H173.203C173.203 22.7453 172.962 22.174 172.482 21.8355C172.018 21.4969 171.258 21.3268 170.205 21.3268H167.957C167.119 21.3268 166.628 21.256 166.485 21.1128C166.341 20.9517 166.271 20.408 166.271 19.4803H170.125C172.177 19.4803 173.605 19.8986 174.407 20.7384C175.103 21.4335 175.452 22.5752 175.452 24.1638V30.4002ZM173.203 25.6898V25.3414H170.098C168.832 25.3414 168.09 25.4212 167.877 25.5823C167.663 25.7256 167.556 26.2505 167.556 27.1612C167.556 28.2142 168.376 28.74 170.017 28.74C171.606 28.74 172.535 28.6163 172.801 28.3656C173.069 28.0995 173.203 27.2067 173.203 25.6898ZM163.836 26.4125C163.836 29.0884 162.016 30.4271 158.374 30.4271H155.163C154.057 30.4271 153.404 30.3466 153.209 30.187C153.03 30.0251 152.941 29.4636 152.941 28.5V18.6503C152.941 17.668 153.03 17.0983 153.209 16.9363C153.404 16.7768 154.057 16.6954 155.163 16.6954H158.294C161.703 16.6954 163.406 17.8918 163.406 20.2828C163.406 21.8885 162.799 22.8341 161.587 23.1198C162.282 23.3159 162.845 23.744 163.274 24.4048C163.647 24.994 163.836 25.663 163.836 26.4125ZM161.104 20.6042C161.104 19.3005 160.194 18.6503 158.374 18.6503H155.297V22.5306H158.509C159.812 22.5306 160.57 22.4508 160.784 22.2905C160.997 22.1294 161.104 21.5678 161.104 20.6042ZM161.426 26.3857C161.426 25.0298 160.454 24.3511 158.509 24.3511H155.297V28.5H158.455C159.936 28.5 160.801 28.4113 161.051 28.2322C161.302 28.054 161.426 27.4379 161.426 26.3857Z" fill="#E2001A"/>
<path d="M150.468 24.003C150.468 24.9137 150.371 25.4484 150.175 25.6087C149.978 25.7519 149.291 25.8236 148.113 25.8236H142.386C142.386 26.6618 142.644 27.3308 143.162 27.8305C143.697 28.3301 144.455 28.5808 145.436 28.5808H147.845C148.738 28.5808 149.256 28.6606 149.398 28.8217C149.558 28.9641 149.639 29.4996 149.639 30.4266H145.517C141.896 30.4266 140.084 28.5808 140.084 24.8868C140.084 21.1571 141.913 19.2926 145.57 19.2926C147.159 19.2926 148.39 19.7467 149.265 20.6574C150.067 21.4964 150.468 22.6114 150.468 24.003ZM148.113 24.003C148.131 23.9672 148.131 23.9493 148.113 23.9493C148.15 22.0222 147.229 21.0594 145.356 21.0594C143.893 21.0594 143.028 21.1831 142.761 21.4338C142.511 21.6836 142.386 22.5398 142.386 24.003H148.113ZM138.665 24.9393C138.665 28.7057 137.122 30.5881 134.035 30.5881C132.179 30.5881 130.939 30.0884 130.314 29.089V34.6296C129.189 34.6296 128.528 34.5498 128.332 34.3879C128.155 34.2454 128.066 33.7018 128.066 32.7561V19.4265C128.922 19.4265 129.423 19.4981 129.564 19.6405C129.707 19.765 129.779 20.2208 129.779 21.0053C130.439 19.8635 131.84 19.2922 133.981 19.2922C137.103 19.2922 138.665 21.1746 138.665 24.9393ZM136.362 24.9393C136.362 23.7088 136.175 22.7982 135.801 22.2098C135.319 21.5139 134.508 21.1664 133.366 21.1664C131.831 21.1664 130.929 21.3268 130.662 21.6466C130.412 21.9689 130.288 23.0659 130.288 24.9393C130.288 26.1715 130.465 27.0634 130.823 27.6168C131.287 28.3306 132.116 28.6878 133.311 28.6878C134.846 28.6878 135.74 28.5356 135.987 28.2329C136.239 27.9114 136.362 26.8136 136.362 24.9393ZM126.247 24.9135C126.247 28.6603 124.425 30.5338 120.786 30.5338C117.181 30.5338 115.378 28.6603 115.378 24.9135C115.378 21.1829 117.19 19.3201 120.812 19.3201C124.434 19.3201 126.247 21.1829 126.247 24.9135ZM123.917 24.9135C123.917 23.7351 123.721 22.8618 123.329 22.2905C122.847 21.5581 122.007 21.1927 120.812 21.1927C119.26 21.1927 118.349 21.353 118.082 21.6745C117.833 21.9788 117.707 23.0572 117.707 24.9135C117.707 27.4119 118.733 28.6603 120.786 28.6603C122.356 28.6603 123.266 28.5098 123.515 28.2062C123.784 27.884 123.917 26.7869 123.917 24.9135ZM115.111 19.3734C115.111 20.372 115.048 20.9515 114.924 21.1126C114.817 21.2558 114.399 21.3266 113.665 21.3266C112.756 21.3266 112.195 21.5138 111.979 21.889C111.819 22.1917 111.738 23.0039 111.738 24.3248V30.4C110.596 30.4 109.928 30.321 109.731 30.1599C109.552 29.9988 109.464 29.4462 109.464 28.5005V19.4272C110.337 19.4272 110.845 19.4882 110.989 19.6127C111.131 19.7389 111.202 20.184 111.202 20.9515C111.756 19.8097 113.059 19.2831 115.111 19.3734ZM107.241 30.4001C106.367 30.4001 105.858 30.3383 105.715 30.2138C105.574 30.0705 105.502 29.6058 105.502 28.8221C104.913 29.9639 103.576 30.5336 101.488 30.5336C99.7912 30.5336 98.6136 30.0705 97.9536 29.142C97.4181 28.3753 97.1512 27.1351 97.1512 25.4212V19.4265C98.2743 19.4265 98.9261 19.5063 99.1044 19.6666C99.3005 19.8277 99.399 20.408 99.399 21.4066V25.6091C99.399 26.6793 99.5593 27.4199 99.8807 27.8309C100.273 28.3485 101.023 28.6065 102.129 28.6065C103.539 28.6065 104.359 28.482 104.591 28.2321C104.825 27.9652 104.94 27.0545 104.94 25.5017V19.4265C106.082 19.4265 106.741 19.5063 106.921 19.6666C107.116 19.8277 107.216 20.408 107.216 21.4066L107.241 30.4001ZM95.4381 30.4001H88.2366C87.0785 30.4001 86.399 30.3212 86.202 30.1601C86.0059 29.9989 85.9091 29.4284 85.9091 28.447V18.6509C85.9091 17.6678 86.0059 17.0982 86.202 16.9362C86.399 16.7767 87.0785 16.6953 88.2366 16.6953H93.511C94.4746 16.6953 95.0361 16.7767 95.1964 16.9362C95.3576 17.0982 95.4381 17.6678 95.4381 18.6509H88.2366V22.4507H92.8681C93.8138 22.4507 94.3672 22.5304 94.5283 22.6916C94.6878 22.8519 94.7684 23.4061 94.7684 24.351H88.2366V28.447H93.3507C94.4038 28.447 95.0101 28.5259 95.1704 28.6879C95.3486 28.8474 95.4381 29.4203 95.4381 30.4001Z" fill="#1C297B"/>
</g>
<defs>
<clipPath id="clip0_3113_26312">
<rect width="200" height="25.5906" fill="white" transform="translate(0 11)"/>
</clipPath>
</defs>
</svg>
