<svg width="33" height="32" viewBox="0 0 64 63" fill="none" xmlns="http://www.w3.org/2000/svg">
<rect x="26" y="37" width="38" height="26" rx="4" fill="#00B6E8"/>
<rect width="38" height="26" rx="4" fill="#2ECC71"/>
<path d="M9 34V46C9 48.2091 10.7909 50 13 50H19M19 50L15 46M19 50L15 54" stroke="#151225" stroke-width="2" stroke-linecap="round" stroke-linejoin="round"/>
<path d="M55 29V17C55 14.7909 53.2091 13 51 13H45M45 13L49 9M45 13L49 17" stroke="#151225" stroke-width="2" stroke-linecap="round" stroke-linejoin="round"/>
<path d="M4.25 11.12C4.17667 11.12 4.11667 11.0967 4.07 11.05C4.02333 11.0033 4 10.9433 4 10.87V4.37C4 4.29667 4.02333 4.23667 4.07 4.19C4.11667 4.14333 4.17667 4.12 4.25 4.12H6.98C7.52 4.12 7.98667 4.20333 8.38 4.37C8.78 4.53667 9.09 4.79 9.31 5.13C9.53667 5.46333 9.65 5.88 9.65 6.38C9.65 6.88667 9.53667 7.30667 9.31 7.64C9.09 7.96667 8.78 8.21 8.38 8.37C7.98667 8.53 7.52 8.61 6.98 8.61H5.64V10.87C5.64 10.9433 5.61667 11.0033 5.57 11.05C5.52333 11.0967 5.46333 11.12 5.39 11.12H4.25ZM5.61 7.37H6.93C7.27 7.37 7.53333 7.28667 7.72 7.12C7.91333 6.95333 8.01 6.70333 8.01 6.37C8.01 6.07667 7.92333 5.83667 7.75 5.65C7.58333 5.46333 7.31 5.37 6.93 5.37H5.61V7.37Z" fill="white"/>
<path d="M10.7099 11.12C10.6366 11.12 10.5766 11.0967 10.5299 11.05C10.4833 11.0033 10.4599 10.9433 10.4599 10.87V10.27C10.4599 10.2167 10.4733 10.1467 10.4999 10.06C10.5333 9.96667 10.6033 9.87667 10.7099 9.79L12.0299 8.48C12.5166 8.10667 12.9099 7.79 13.2099 7.53C13.5166 7.27 13.7433 7.03333 13.8899 6.82C14.0366 6.60667 14.1099 6.4 14.1099 6.2C14.1099 5.94 14.0366 5.72667 13.8899 5.56C13.7499 5.38667 13.5199 5.3 13.1999 5.3C12.9866 5.3 12.8066 5.34667 12.6599 5.44C12.5199 5.52667 12.4099 5.64333 12.3299 5.79C12.2499 5.93667 12.1966 6.09667 12.1699 6.27C12.1499 6.35667 12.1066 6.41667 12.0399 6.45C11.9799 6.48333 11.9166 6.5 11.8499 6.5H10.7899C10.7233 6.5 10.6699 6.48 10.6299 6.44C10.5899 6.39333 10.5699 6.34333 10.5699 6.29C10.5766 5.98333 10.6399 5.69333 10.7599 5.42C10.8866 5.14667 11.0633 4.90333 11.2899 4.69C11.5166 4.47667 11.7899 4.31 12.1099 4.19C12.4299 4.06333 12.7933 4 13.1999 4C13.7599 4 14.2299 4.09333 14.6099 4.28C14.9899 4.46 15.2766 4.71 15.4699 5.03C15.6633 5.35 15.7599 5.72 15.7599 6.14C15.7599 6.46 15.6933 6.75667 15.5599 7.03C15.4333 7.30333 15.2466 7.56667 14.9999 7.82C14.7533 8.06667 14.4599 8.32333 14.1199 8.59L12.9399 9.77H15.6599C15.7333 9.77 15.7933 9.79333 15.8399 9.84C15.8866 9.88667 15.9099 9.94667 15.9099 10.02V10.87C15.9099 10.9433 15.8866 11.0033 15.8399 11.05C15.7933 11.0967 15.7333 11.12 15.6599 11.12H10.7099Z" fill="white"/>
<path d="M17.4578 11.12C17.3845 11.12 17.3245 11.0967 17.2778 11.05C17.2311 11.0033 17.2078 10.9433 17.2078 10.87V4.37C17.2078 4.29667 17.2311 4.23667 17.2778 4.19C17.3245 4.14333 17.3845 4.12 17.4578 4.12H20.1878C20.7278 4.12 21.1945 4.20333 21.5878 4.37C21.9878 4.53667 22.2978 4.79 22.5178 5.13C22.7445 5.46333 22.8578 5.88 22.8578 6.38C22.8578 6.88667 22.7445 7.30667 22.5178 7.64C22.2978 7.96667 21.9878 8.21 21.5878 8.37C21.1945 8.53 20.7278 8.61 20.1878 8.61H18.8478V10.87C18.8478 10.9433 18.8245 11.0033 18.7778 11.05C18.7311 11.0967 18.6711 11.12 18.5978 11.12H17.4578ZM18.8178 7.37H20.1378C20.4778 7.37 20.7411 7.28667 20.9278 7.12C21.1211 6.95333 21.2178 6.70333 21.2178 6.37C21.2178 6.07667 21.1311 5.83667 20.9578 5.65C20.7911 5.46333 20.5178 5.37 20.1378 5.37H18.8178V7.37Z" fill="white"/>
<path d="M5 17H17M5 21H11" stroke="white" stroke-width="2" stroke-linecap="round" stroke-linejoin="round"/>
<path d="M45 43H59M32 51H34M38 51H40M44 51H46M50 51H52M32 56H40" stroke="white" stroke-width="2" stroke-linecap="round" stroke-linejoin="round"/>
</svg>
