<svg width="200" height="48" viewBox="0 0 200 48" fill="none" xmlns="http://www.w3.org/2000/svg">
<g clip-path="url(#clip0_4529_18856)">
<path d="M91.0566 25.7073C91.0566 26.1016 90.9684 26.3637 90.7712 26.5375C90.574 26.6906 90.3561 26.7788 90.1148 26.7788H81.3269C81.3269 27.5209 81.4151 28.2007 81.5449 28.7896C81.6979 29.3786 81.9392 29.882 82.2869 30.3204C82.6372 30.7563 83.0964 31.0858 83.6413 31.3038C84.2095 31.5217 84.8867 31.6541 85.6962 31.6541C86.3293 31.6541 86.8975 31.61 87.4008 31.501C87.9042 31.392 88.3193 31.283 88.6904 31.1507C89.0614 31.0184 89.3468 30.9094 89.5855 30.8004C89.8268 30.6915 90.0006 30.6474 90.1096 30.6474C90.1745 30.6474 90.2419 30.6681 90.2834 30.6915C90.3483 30.7356 90.3717 30.7797 90.4158 30.8446C90.4365 30.9094 90.4806 31.0184 90.4806 31.13C90.4806 31.2623 90.5014 31.4154 90.5014 31.5892C90.5014 31.7215 90.5014 31.8305 90.4806 31.9161C90.4806 32.0043 90.4599 32.09 90.4365 32.1782C90.4158 32.243 90.3924 32.3313 90.3717 32.3754C90.3276 32.4402 90.2834 32.4843 90.2393 32.5492C90.1745 32.6141 90.0214 32.7023 89.7593 32.8113C89.4973 32.9436 89.147 33.0526 88.7111 33.1823C88.2752 33.2913 87.7926 33.4002 87.2244 33.5092C86.6562 33.5974 86.0672 33.6623 85.4316 33.6623C84.3392 33.6623 83.3559 33.5092 82.5256 33.203C81.6953 32.8969 80.9948 32.4376 80.4266 31.8253C79.8584 31.213 79.4432 30.4709 79.1371 29.5524C78.8517 28.634 78.7012 27.5624 78.7012 26.3611C78.7012 25.2039 78.8543 24.1764 79.1371 23.258C79.4432 22.3395 79.8584 21.5533 80.4266 20.9202C80.9948 20.2871 81.672 19.7838 82.4581 19.4569C83.2443 19.1066 84.142 18.9535 85.1254 18.9535C86.1736 18.9535 87.0713 19.1274 87.8134 19.4569C88.5554 19.7838 89.1678 20.243 89.6504 20.8113C90.1304 21.3795 90.4806 22.0567 90.6986 22.8221C90.9165 23.5875 91.0255 24.4177 91.0255 25.2921V25.7073H91.0566ZM88.5866 24.9652C88.6073 23.6757 88.3245 22.6482 87.733 21.9269C87.144 21.1849 86.2463 20.8346 85.0657 20.8346C84.4534 20.8346 83.9293 20.9436 83.47 21.1849C83.0108 21.4028 82.6398 21.709 82.3336 22.08C82.0274 22.451 81.7861 22.8895 81.6123 23.3903C81.4385 23.8936 81.3503 24.4177 81.3269 24.9652H88.5866Z" fill="#D12023"/>
<path d="M112.369 32.9851C112.369 33.0499 112.348 33.1382 112.304 33.1823C112.26 33.2471 112.195 33.2912 112.107 33.3353C112.019 33.3795 111.889 33.4002 111.736 33.4236C111.583 33.4443 111.385 33.4443 111.147 33.4443C110.905 33.4443 110.687 33.4443 110.534 33.4236C110.381 33.4028 110.249 33.3795 110.163 33.3353C110.075 33.2912 110.01 33.2471 109.966 33.1823C109.922 33.1382 109.901 33.0499 109.901 32.9851V24.8329C109.901 24.2646 109.857 23.7405 109.748 23.2813C109.639 22.822 109.486 22.4069 109.268 22.08C109.05 21.7531 108.765 21.491 108.438 21.3146C108.111 21.1382 107.696 21.0525 107.257 21.0525C106.689 21.0525 106.121 21.2705 105.553 21.709C104.985 22.1449 104.351 22.7805 103.674 23.6316V33.0084C103.674 33.0733 103.654 33.1615 103.609 33.2056C103.565 33.2705 103.5 33.3146 103.412 33.3587C103.324 33.4028 103.194 33.4236 103.041 33.4469C102.888 33.4677 102.67 33.4677 102.452 33.4677C102.234 33.4677 102.037 33.4677 101.863 33.4469C101.689 33.4262 101.557 33.4028 101.469 33.3587C101.381 33.3146 101.316 33.2705 101.272 33.2056C101.251 33.1615 101.228 33.0733 101.228 33.0084V24.8562C101.228 24.288 101.163 23.7639 101.075 23.3046C100.966 22.8454 100.789 22.4303 100.571 22.1033C100.353 21.7764 100.068 21.5144 99.7409 21.3379C99.414 21.1615 99.0196 21.0759 98.5604 21.0759C97.9921 21.0759 97.4239 21.2938 96.8557 21.7323C96.2875 22.1708 95.6544 22.8039 94.9772 23.6549V33.0318C94.9772 33.0966 94.9565 33.1849 94.9124 33.229C94.8683 33.2938 94.8034 33.3379 94.7152 33.382C94.627 33.4262 94.4972 33.4469 94.3441 33.4703C94.1911 33.4936 93.9731 33.491 93.7318 33.491C93.4905 33.491 93.2959 33.491 93.1428 33.4703C92.9898 33.4495 92.8574 33.4262 92.7718 33.382C92.6836 33.3379 92.6187 33.2938 92.5746 33.229C92.5305 33.1849 92.5098 33.0966 92.5098 33.0318V19.5684C92.5098 19.4802 92.5305 19.4153 92.5539 19.3712C92.5746 19.3271 92.6421 19.2623 92.7277 19.2182C92.8133 19.174 92.9249 19.1533 93.078 19.1299C93.2103 19.1092 93.4049 19.1092 93.6254 19.1092C93.846 19.1092 94.0198 19.1092 94.1729 19.1299C94.326 19.1507 94.435 19.174 94.4998 19.2182C94.5647 19.2623 94.6322 19.3064 94.6737 19.3712C94.6944 19.4361 94.7178 19.5036 94.7178 19.5684V21.3379C95.4598 20.4843 96.2045 19.8746 96.9258 19.4802C97.6471 19.0858 98.3476 18.8912 99.0689 18.8912C99.6371 18.8912 100.117 18.9561 100.576 19.0884C101.012 19.2208 101.407 19.3946 101.757 19.6359C102.084 19.8772 102.39 20.1392 102.631 20.4662C102.873 20.7931 103.067 21.1433 103.22 21.5585C103.656 21.0785 104.095 20.6633 104.489 20.3131C104.883 19.9628 105.275 19.7007 105.646 19.4828C106.017 19.2649 106.388 19.1325 106.739 19.0236C107.089 18.9353 107.439 18.8912 107.81 18.8912C108.684 18.8912 109.406 19.0443 109.995 19.3505C110.584 19.6566 111.043 20.051 111.417 20.5518C111.788 21.0551 112.029 21.6441 112.182 22.3213C112.335 22.9985 112.4 23.7198 112.4 24.4852V32.9877H112.369V32.9851Z" fill="#D12023"/>
<path d="M116.891 15.5442C116.891 16.1332 116.782 16.5068 116.564 16.7248C116.346 16.9427 115.952 17.0309 115.363 17.0309C114.774 17.0309 114.4 16.922 114.182 16.7248C113.964 16.5276 113.855 16.1358 113.855 15.5676C113.855 14.9994 113.964 14.605 114.182 14.387C114.4 14.1691 114.795 14.0809 115.384 14.0809C115.973 14.0809 116.346 14.1899 116.564 14.387C116.782 14.5816 116.891 14.976 116.891 15.5442ZM116.608 32.9851C116.608 33.05 116.588 33.1382 116.543 33.1823C116.499 33.2471 116.434 33.2913 116.346 33.3354C116.258 33.3795 116.128 33.4002 115.975 33.4236C115.822 33.4443 115.604 33.4443 115.363 33.4443C115.122 33.4443 114.927 33.4443 114.774 33.4236C114.621 33.4028 114.489 33.3795 114.403 33.3354C114.315 33.2913 114.25 33.2471 114.206 33.1823C114.162 33.1382 114.141 33.05 114.141 32.9851V19.5658C114.141 19.501 114.162 19.4335 114.206 19.3687C114.226 19.3038 114.294 19.2597 114.403 19.2156C114.491 19.1715 114.621 19.1507 114.774 19.1274C114.927 19.1066 115.145 19.1066 115.363 19.1066C115.604 19.1066 115.822 19.1066 115.975 19.1274C116.128 19.1481 116.258 19.1715 116.346 19.2156C116.434 19.2597 116.499 19.3038 116.543 19.3687C116.588 19.4335 116.608 19.501 116.608 19.5658V32.9851Z" fill="#D12023"/>
<path d="M126.183 20.461C126.183 20.6789 126.183 20.8553 126.162 21.0084C126.162 21.1615 126.141 21.2705 126.097 21.3587C126.076 21.4469 126.032 21.5118 125.988 21.5559C125.944 21.6 125.879 21.6207 125.791 21.6207C125.703 21.6207 125.617 21.6 125.505 21.5559C125.394 21.5118 125.264 21.4677 125.111 21.4236C124.958 21.3795 124.805 21.3353 124.631 21.2912C124.457 21.2471 124.26 21.2264 124.042 21.2264C123.801 21.2264 123.562 21.2705 123.321 21.3795C123.079 21.4677 122.817 21.6415 122.579 21.8595C122.317 22.0774 122.031 22.3836 121.748 22.7779C121.463 23.149 121.136 23.6082 120.786 24.1557V32.9851C120.786 33.0499 120.765 33.1382 120.721 33.1823C120.677 33.2471 120.612 33.2912 120.524 33.3354C120.436 33.3795 120.306 33.4002 120.153 33.4236C120 33.4443 119.782 33.4443 119.54 33.4443C119.299 33.4443 119.105 33.4443 118.951 33.4236C118.798 33.4028 118.666 33.3795 118.58 33.3354C118.492 33.2912 118.427 33.2471 118.383 33.1823C118.339 33.1382 118.318 33.0499 118.318 32.9851V19.5658C118.318 19.4776 118.339 19.4128 118.362 19.3686C118.386 19.3245 118.451 19.2597 118.536 19.2156C118.625 19.1715 118.733 19.1507 118.887 19.1273C119.019 19.1066 119.213 19.1066 119.434 19.1066C119.655 19.1066 119.828 19.1066 119.981 19.1273C120.135 19.1481 120.244 19.1715 120.308 19.2156C120.373 19.2597 120.441 19.3038 120.482 19.3686C120.503 19.4335 120.526 19.501 120.526 19.5658V21.5118C120.897 20.9643 121.248 20.5284 121.554 20.2015C121.881 19.8746 122.187 19.5892 122.472 19.392C122.758 19.1948 123.041 19.0651 123.326 18.9976C123.611 18.9328 123.894 18.8886 124.18 18.8886C124.312 18.8886 124.465 18.8886 124.618 18.9094C124.771 18.9302 124.945 18.9535 125.142 18.9976C125.316 19.0417 125.492 19.0858 125.622 19.1299C125.775 19.1741 125.863 19.2389 125.928 19.283C125.993 19.3271 126.037 19.3712 126.061 19.4361C126.081 19.4802 126.105 19.5451 126.105 19.6099C126.125 19.6748 126.125 19.7838 126.125 19.9161C126.183 20.0458 126.183 20.2223 126.183 20.461Z" fill="#D12023"/>
<path fill-rule="evenodd" clip-rule="evenodd" d="M24.0434 0.0908203C37.2447 0.0908203 47.9344 10.8013 47.9344 23.9818C47.9344 37.1831 37.2239 47.8729 24.0434 47.8729C10.8628 47.8936 0.152344 37.1857 0.152344 23.9818C0.152344 10.8013 10.8628 0.0908203 24.0434 0.0908203ZM24.0434 2.99677C35.6282 2.99677 45.0259 12.3944 45.0259 23.9793C45.0259 35.5641 35.6282 44.9617 24.0434 44.9617C12.4585 44.9617 3.06089 35.5641 3.06089 23.9793C3.06089 12.397 12.4585 2.99677 24.0434 2.99677Z" fill="#D12023"/>
<path fill-rule="evenodd" clip-rule="evenodd" d="M31.6289 20.6581C30.6897 20.6581 29.7919 20.8553 28.985 21.2056C28.8319 21.2705 28.6581 21.2497 28.5258 21.1615C28.3934 21.0733 28.3078 20.9202 28.3078 20.7671V14.5167C28.3078 14.2547 28.0899 14.0367 27.8278 14.0367H25.4019C25.1398 14.0367 24.9219 14.2547 24.9219 14.5167V32.7905C24.9219 33.0525 25.1398 33.2705 25.4019 33.2705H28.3078V33.0525C29.2912 33.6207 30.4068 33.9477 31.6289 33.9477C35.3003 33.9477 38.2737 30.9743 38.2737 27.3029C38.2737 23.6316 35.3003 20.6581 31.6289 20.6581ZM31.6289 23.5641C29.5532 23.5641 27.8901 25.248 27.8901 27.3029C27.8901 29.3786 29.574 31.0417 31.6289 31.0417C33.7046 31.0417 35.3677 29.3578 35.3677 27.3029C35.3885 25.2272 33.7046 23.5641 31.6289 23.5641Z" fill="#D12023"/>
<path fill-rule="evenodd" clip-rule="evenodd" d="M16.4592 20.6581C17.3985 20.6581 18.2962 20.8553 19.1031 21.2056C19.2562 21.2705 19.4093 21.2497 19.5623 21.1615C19.6947 21.0733 19.7803 20.9202 19.7803 20.7671V14.5167C19.7803 14.2547 19.9982 14.0367 20.2603 14.0367H22.6862C22.9483 14.0367 23.1662 14.2547 23.1662 14.5167V32.7905C23.1662 33.0525 22.9483 33.2705 22.6862 33.2705H19.7803V33.0525C18.7969 33.6207 17.6813 33.9477 16.4592 33.9477C12.7879 33.9477 9.81445 30.9743 9.81445 27.3029C9.81445 23.6316 12.7853 20.6581 16.4592 20.6581ZM16.4592 23.5641C18.5349 23.5641 20.198 25.248 20.198 27.3029C20.198 29.3786 18.5141 31.0417 16.4592 31.0417C14.3835 31.0417 12.7204 29.3578 12.7204 27.3029C12.7204 25.2272 14.4043 23.5641 16.4592 23.5641Z" fill="#D12023"/>
<path d="M77.593 23.4344C77.593 25.0949 77.3751 26.5609 76.96 27.8063C76.5241 29.0517 75.9117 30.0791 75.0815 30.9094C74.272 31.7189 73.2445 32.352 72.064 32.7464C70.8834 33.1615 69.4408 33.3587 67.801 33.3587H63.7146C63.4966 33.3587 63.2787 33.2705 63.0581 33.1408C62.8609 32.9877 62.752 32.7049 62.752 32.3312V15.1291C62.752 14.7347 62.8609 14.4726 63.0581 14.3196C63.2553 14.1665 63.4733 14.1016 63.7146 14.1016H68.0864C69.747 14.1016 71.1688 14.3196 72.326 14.7581C73.4832 15.1965 74.4458 15.8063 75.232 16.6158C76.0181 17.4253 76.6097 18.4086 77.0015 19.5658C77.3958 20.6789 77.593 21.9918 77.593 23.4344ZM74.905 23.5433C74.905 22.4951 74.7727 21.5325 74.5107 20.6374C74.2486 19.7423 73.8542 18.9535 73.286 18.2997C72.7385 17.6432 72.0406 17.1425 71.187 16.7689C70.3334 16.3978 69.2644 16.2214 67.9308 16.2214H65.331V31.2156H67.9749C69.2203 31.2156 70.2477 31.0625 71.1014 30.7563C71.955 30.4502 72.6529 29.9702 73.2211 29.3345C73.7894 28.7014 74.2045 27.8919 74.4899 26.9526C74.752 25.9926 74.905 24.8536 74.905 23.5433Z" fill="#D12023"/>
<path d="M140.477 27.827C140.477 28.4394 140.412 28.9842 140.259 29.5109C140.106 30.0143 139.888 30.4735 139.603 30.8886C139.317 31.3038 138.99 31.6541 138.596 31.9602C138.202 32.2664 137.766 32.5284 137.262 32.7256C136.759 32.9436 136.235 33.0967 135.688 33.1849C135.119 33.2938 134.486 33.3379 133.765 33.3379H128.718C128.5 33.3379 128.283 33.2497 128.062 33.12C127.865 32.9669 127.756 32.6841 127.756 32.3105V15.1317C127.756 14.7373 127.865 14.4753 128.062 14.3222C128.259 14.1691 128.477 14.1042 128.718 14.1042H133.111C134.268 14.1042 135.21 14.2132 135.931 14.4311C136.673 14.6491 137.286 14.9786 137.768 15.3937C138.272 15.8089 138.643 16.333 138.884 16.9245C139.125 17.5369 139.255 18.2141 139.255 18.9795C139.255 19.4387 139.19 19.8746 139.081 20.2897C138.972 20.7049 138.819 21.0992 138.601 21.4469C138.383 21.7972 138.121 22.1034 137.792 22.3862C137.462 22.669 137.091 22.8895 136.676 23.0634C137.2 23.1516 137.704 23.3488 138.139 23.6108C138.599 23.8729 138.993 24.1998 139.341 24.6175C139.691 25.0327 139.953 25.4919 140.15 26.0601C140.368 26.5816 140.477 27.1706 140.477 27.827ZM136.609 19.1948C136.609 18.7356 136.544 18.2997 136.411 17.9261C136.279 17.555 136.085 17.2255 135.799 16.9635C135.514 16.7014 135.166 16.5042 134.707 16.3511C134.271 16.2188 133.679 16.1332 132.937 16.1332H130.293V22.3836H133.223C133.879 22.3836 134.424 22.2954 134.839 22.1215C135.254 21.9477 135.581 21.7064 135.846 21.421C136.108 21.1356 136.305 20.7879 136.435 20.3935C136.565 20.0251 136.609 19.6307 136.609 19.1948ZM137.789 27.9801C137.789 27.4119 137.701 26.8878 137.504 26.4727C137.33 26.0368 137.068 25.6631 136.694 25.3803C136.344 25.0742 135.908 24.8562 135.384 24.7031C134.86 24.5501 134.183 24.4852 133.373 24.4852H130.314V31.283H134.03C134.619 31.283 135.122 31.2182 135.56 31.0651C135.996 30.9328 136.391 30.7148 136.718 30.4528C137.045 30.1907 137.307 29.8404 137.504 29.4253C137.68 28.9868 137.789 28.5276 137.789 27.9801Z" fill="#D12023"/>
<path d="M152.521 33.0084C152.521 33.1174 152.477 33.2264 152.389 33.2705C152.324 33.3354 152.192 33.3795 152.062 33.4028C151.909 33.4236 151.712 33.4469 151.45 33.4469C151.188 33.4469 150.99 33.4262 150.837 33.4028C150.684 33.3821 150.575 33.338 150.51 33.2705C150.446 33.2056 150.401 33.1174 150.401 33.0084V31.6748C149.812 32.3079 149.156 32.7905 148.435 33.1382C147.713 33.4884 146.948 33.6623 146.162 33.6623C145.461 33.6623 144.807 33.5741 144.239 33.3769C143.671 33.203 143.191 32.941 142.776 32.5907C142.382 32.2404 142.055 31.8046 141.837 31.3012C141.619 30.7979 141.51 30.2089 141.51 29.5732C141.51 28.8078 141.663 28.1747 141.969 27.6065C142.275 27.059 142.711 26.579 143.303 26.2288C143.871 25.8577 144.592 25.5723 145.422 25.3985C146.253 25.2247 147.192 25.1131 148.243 25.1131H150.08V24.0649C150.08 23.5408 150.015 23.0815 149.927 22.6871C149.818 22.2928 149.641 21.9658 149.403 21.7038C149.164 21.4417 148.834 21.2446 148.463 21.1148C148.069 20.9825 147.589 20.9176 147.041 20.9176C146.429 20.9176 145.884 20.9825 145.402 21.1356C144.922 21.2887 144.507 21.4417 144.133 21.6156C143.762 21.7894 143.476 21.9425 143.214 22.0956C142.973 22.2279 142.799 22.3135 142.667 22.3135C142.579 22.3135 142.514 22.2928 142.449 22.2487C142.384 22.2046 142.34 22.1397 142.296 22.0748C142.252 22.01 142.208 21.901 142.208 21.7687C142.187 21.6363 142.187 21.5066 142.187 21.3535C142.187 21.1122 142.208 20.9176 142.252 20.7646C142.296 20.6115 142.361 20.4791 142.514 20.3494C142.646 20.2171 142.885 20.064 143.214 19.8902C143.544 19.7163 143.915 19.5633 144.351 19.4102C144.787 19.2778 145.246 19.1481 145.749 19.0599C146.253 18.9717 146.777 18.9276 147.28 18.9276C148.243 18.9276 149.05 19.0365 149.727 19.2545C150.404 19.4724 150.951 19.802 151.367 20.2171C151.782 20.6322 152.088 21.1563 152.285 21.792C152.482 22.4251 152.571 23.1464 152.571 23.9767V33.0033H152.521V33.0084ZM150.072 26.8878H147.973C147.296 26.8878 146.704 26.9527 146.203 27.0616C145.7 27.1706 145.308 27.347 144.958 27.565C144.631 27.7829 144.39 28.0683 144.237 28.3745C144.084 28.6807 144.019 29.0517 144.019 29.4461C144.019 30.1466 144.237 30.6915 144.675 31.1066C145.111 31.5217 145.747 31.7189 146.533 31.7189C147.189 31.7189 147.778 31.5658 148.326 31.2156C148.873 30.8887 149.462 30.3853 150.054 29.7081V26.8878H150.072Z" fill="#D12023"/>
<path d="M165.875 32.9851C165.875 33.0499 165.854 33.1382 165.81 33.1823C165.766 33.2471 165.701 33.2912 165.613 33.3354C165.524 33.3795 165.395 33.4002 165.242 33.4236C165.089 33.4443 164.871 33.4443 164.653 33.4443C164.411 33.4443 164.193 33.4443 164.04 33.4236C163.887 33.4028 163.755 33.3795 163.669 33.3354C163.581 33.2912 163.516 33.2471 163.472 33.1823C163.428 33.1382 163.407 33.0499 163.407 32.9851V25.139C163.407 24.3736 163.342 23.7613 163.233 23.302C163.124 22.8428 162.948 22.4277 162.709 22.1008C162.491 21.7738 162.185 21.5118 161.814 21.3354C161.443 21.1615 161.028 21.0733 160.569 21.0733C159.956 21.0733 159.344 21.2912 158.732 21.7297C158.119 22.1656 157.463 22.8013 156.786 23.6523V33.0292C156.786 33.094 156.765 33.1823 156.721 33.2264C156.677 33.2912 156.612 33.3353 156.524 33.3795C156.436 33.4236 156.306 33.4443 156.153 33.4677C156 33.4884 155.782 33.4884 155.54 33.4884C155.299 33.4884 155.105 33.4884 154.951 33.4677C154.798 33.4469 154.666 33.4236 154.58 33.3795C154.492 33.3353 154.427 33.2912 154.383 33.2264C154.339 33.1823 154.318 33.094 154.318 33.0292V19.5658C154.318 19.4776 154.339 19.4128 154.362 19.3686C154.386 19.3245 154.451 19.2597 154.536 19.2156C154.625 19.1715 154.733 19.1507 154.887 19.1273C155.019 19.1066 155.213 19.1066 155.434 19.1066C155.655 19.1066 155.828 19.1066 155.981 19.1273C156.135 19.1481 156.244 19.1715 156.308 19.2156C156.373 19.2597 156.441 19.3038 156.482 19.3686C156.503 19.4335 156.526 19.501 156.526 19.5658V21.3354C157.268 20.4817 158.034 19.872 158.778 19.4776C159.521 19.0832 160.286 18.8886 161.051 18.8886C161.946 18.8886 162.691 19.0417 163.303 19.3479C163.916 19.6541 164.419 20.0484 164.79 20.5492C165.161 21.0525 165.447 21.6415 165.6 22.3187C165.773 22.9959 165.841 23.8262 165.841 24.768V32.9851H165.875Z" fill="#D12023"/>
<path d="M178.487 32.9643C178.487 33.0525 178.467 33.1174 178.423 33.1823C178.378 33.2471 178.314 33.2912 178.225 33.3353C178.137 33.3795 178.007 33.4002 177.831 33.4236C177.657 33.4443 177.46 33.4443 177.198 33.4443C176.936 33.4443 176.718 33.4443 176.541 33.4236C176.368 33.4028 176.215 33.3795 176.106 33.3587C175.973 33.3146 175.888 33.2705 175.82 33.2056C175.755 33.1407 175.688 33.0525 175.623 32.9877L169.962 25.5567V32.9877C169.962 33.0525 169.941 33.1407 169.897 33.1849C169.853 33.2497 169.788 33.2938 169.7 33.3379C169.611 33.382 169.482 33.4028 169.329 33.4261C169.175 33.4469 168.957 33.4469 168.716 33.4469C168.475 33.4469 168.28 33.4469 168.127 33.4261C167.974 33.4054 167.842 33.382 167.756 33.3379C167.671 33.2938 167.603 33.2497 167.559 33.1849C167.515 33.1407 167.494 33.0525 167.494 32.9877V14.5193C167.494 14.4311 167.515 14.3663 167.559 14.3014C167.58 14.2365 167.647 14.1924 167.756 14.1483C167.844 14.1042 167.974 14.0834 168.127 14.0601C168.28 14.0393 168.498 14.0393 168.716 14.0393C168.957 14.0393 169.175 14.0393 169.329 14.0601C169.482 14.0809 169.614 14.1042 169.7 14.1483C169.785 14.1924 169.853 14.2365 169.897 14.3014C169.941 14.3663 169.962 14.4337 169.962 14.5193V25.2065L175.011 19.6333C175.076 19.5243 175.164 19.4594 175.273 19.392C175.361 19.3271 175.47 19.283 175.6 19.2389C175.729 19.1948 175.862 19.174 176.036 19.1507C176.209 19.1299 176.407 19.1299 176.648 19.1299C176.889 19.1299 177.107 19.1299 177.281 19.1507C177.455 19.1714 177.587 19.1948 177.696 19.2156C177.805 19.2597 177.87 19.3038 177.914 19.3479C177.958 19.392 177.979 19.4802 177.979 19.5658C177.979 19.6982 177.935 19.8071 177.891 19.9161C177.826 20.0484 177.717 20.1781 177.564 20.3312L172.712 25.1831L178.155 32.2638C178.288 32.4376 178.373 32.5699 178.441 32.6789C178.464 32.7879 178.487 32.8761 178.487 32.9643Z" fill="#D12023"/>
<path d="M66.2945 39.1057C66.2945 39.4119 66.2504 39.6947 66.1622 39.9593C66.0739 40.2214 65.965 40.4393 65.7911 40.6158C65.6381 40.7896 65.4409 40.9427 65.2022 41.0517C64.9609 41.1606 64.7222 41.2048 64.416 41.2048C64.1098 41.2048 63.8478 41.1606 63.6298 41.0517C63.4119 40.9635 63.2355 40.8104 63.0824 40.6158C62.9293 40.4186 62.8411 40.1799 62.7555 39.8737C62.6906 39.5883 62.6465 39.2406 62.6465 38.8463C62.6465 38.5193 62.6672 38.1898 62.6906 37.907C62.7113 37.6216 62.7555 37.3596 62.8229 37.1416C62.8878 36.9237 62.9552 36.7265 63.0201 36.5734C63.1083 36.4203 63.1732 36.288 63.2614 36.2024C63.3496 36.1142 63.4352 36.0285 63.5027 35.9844C63.5909 35.9196 63.6765 35.8755 63.7648 35.8313C63.853 35.7872 63.9827 35.7431 64.0917 35.699C64.224 35.6549 64.3537 35.6342 64.5068 35.6108L65.8171 35.3929C65.8612 35.3929 65.9053 35.3721 65.926 35.3929C65.9468 35.3929 65.9702 35.4136 65.9909 35.4136C66.0117 35.4344 66.0117 35.4577 66.0117 35.5226C66.0117 35.5667 66.0117 35.6316 66.0117 35.7198C66.0117 35.7846 66.0117 35.8288 66.0117 35.8521C66.0117 35.8962 65.9909 35.917 65.9909 35.9403C65.9702 35.9611 65.9468 35.9844 65.926 36.0052C65.9053 36.0259 65.8612 36.0259 65.8171 36.0259L64.5924 36.2231C64.4601 36.2439 64.3511 36.2672 64.2655 36.288C64.1773 36.3087 64.0917 36.3321 64.0242 36.3762C63.9593 36.397 63.8919 36.4411 63.827 36.4852C63.7829 36.5293 63.718 36.5734 63.6739 36.6175C63.6298 36.6824 63.565 36.7498 63.5209 36.8355C63.4768 36.9237 63.4326 37.0093 63.4119 37.1209C63.3911 37.2298 63.347 37.3388 63.3237 37.4711C63.3029 37.6035 63.2796 37.7332 63.2588 37.8863C63.347 37.798 63.4326 37.7124 63.5442 37.6242C63.6532 37.536 63.7414 37.4711 63.8711 37.427C63.9801 37.3622 64.1124 37.3388 64.2214 37.2947C64.3537 37.2739 64.4835 37.2506 64.6158 37.2506C64.8778 37.2506 65.1191 37.2947 65.3163 37.3829C65.5135 37.4711 65.6873 37.6009 65.8197 37.7539C65.952 37.9278 66.0376 38.1042 66.1051 38.3429C66.2504 38.5583 66.2945 38.8203 66.2945 39.1057ZM65.5939 39.1498C65.5939 38.976 65.5732 38.7996 65.5498 38.6257C65.5057 38.4726 65.4616 38.3196 65.376 38.1898C65.3111 38.0575 65.2022 37.9719 65.0698 37.8837C64.9375 37.8188 64.7844 37.7747 64.5898 37.7747C64.4809 37.7747 64.3719 37.7955 64.2629 37.8188C64.1539 37.8422 64.0657 37.8837 63.9775 37.9511C63.8893 38.016 63.7803 38.0835 63.6921 38.1691C63.6039 38.2573 63.4949 38.3663 63.3859 38.4752C63.3859 38.5193 63.3859 38.5635 63.3859 38.6283C63.3859 38.6932 63.3859 38.7373 63.3859 38.8022C63.3859 39.1083 63.4067 39.3496 63.4508 39.5883C63.4949 39.8063 63.539 40.0035 63.6246 40.1565C63.7129 40.3096 63.8218 40.4186 63.9516 40.5068C64.0839 40.595 64.2577 40.6158 64.4549 40.6158C64.6288 40.6158 64.7818 40.5717 64.9349 40.5068C65.0672 40.4419 65.197 40.333 65.2852 40.2214C65.3734 40.0891 65.459 39.936 65.5031 39.7622C65.5732 39.5857 65.5939 39.3678 65.5939 39.1498Z" fill="#D12023"/>
<path d="M69.3976 41.0076C69.3976 41.0283 69.3769 41.0724 69.3535 41.0724C69.3328 41.0932 69.3094 41.0932 69.2653 41.1165C69.2212 41.1165 69.1771 41.1373 69.0915 41.1373C69.0266 41.1373 68.9592 41.1373 68.9176 41.1165C68.8735 41.1165 68.8528 41.0958 68.8294 41.0724C68.8087 41.0517 68.8087 41.0283 68.8087 41.0076V40.6365C68.6556 40.8104 68.4584 40.9427 68.2612 41.0309C68.064 41.1191 67.8461 41.184 67.6281 41.184C67.4309 41.184 67.2571 41.1632 67.104 41.0958C66.9509 41.0517 66.8186 40.9635 66.7096 40.8778C66.6007 40.7922 66.5125 40.6599 66.4476 40.5276C66.3827 40.3952 66.3594 40.2214 66.3594 40.0476C66.3594 39.8296 66.4035 39.6532 66.4917 39.5001C66.5799 39.347 66.6889 39.2147 66.8627 39.1291C67.0158 39.0201 67.213 38.9552 67.4517 38.9111C67.6904 38.867 67.9317 38.8463 68.2171 38.8463H68.7205V38.5609C68.7205 38.4078 68.6997 38.2988 68.6763 38.1898C68.653 38.0809 68.5881 37.9926 68.5233 37.9278C68.4584 37.8629 68.3702 37.7955 68.2612 37.7539C68.1522 37.7098 68.0199 37.7098 67.8668 37.7098C67.693 37.7098 67.5607 37.7306 67.4076 37.7747C67.2753 37.8188 67.1663 37.8629 67.0573 37.907C66.9483 37.9511 66.8835 37.9952 66.816 38.0393C66.7512 38.0835 66.707 38.1042 66.6629 38.1042C66.6422 38.1042 66.6188 38.1042 66.5981 38.0835C66.5773 38.0627 66.5773 38.0627 66.554 38.0393C66.5332 38.0186 66.5332 37.9952 66.5332 37.9511C66.5332 37.907 66.5332 37.8863 66.5332 37.8422C66.5332 37.7773 66.5332 37.7098 66.554 37.6891C66.554 37.645 66.5747 37.6009 66.6188 37.5801C66.6629 37.536 66.7278 37.4919 66.816 37.4478C66.9042 37.4037 67.0132 37.3596 67.1222 37.3155C67.2312 37.2714 67.3635 37.2506 67.5166 37.2272C67.6489 37.2065 67.802 37.1831 67.9317 37.1831C68.1938 37.1831 68.4117 37.2039 68.6089 37.2714C68.8061 37.3362 68.9358 37.4244 69.0681 37.5334C69.1771 37.6424 69.2653 37.7955 69.3094 37.9693C69.3535 38.1431 69.3976 38.3403 69.3976 38.5816V41.0076ZM68.7205 39.3237H68.1522C67.9551 39.3237 67.802 39.3444 67.6722 39.3678C67.5399 39.3885 67.4309 39.456 67.322 39.5001C67.2338 39.565 67.1689 39.6324 67.1248 39.7181C67.0807 39.8063 67.0599 39.8919 67.0599 40.0242C67.0599 40.2214 67.1248 40.3745 67.2338 40.4835C67.3661 40.5924 67.5192 40.6573 67.7371 40.6573C67.9109 40.6573 68.0874 40.6132 68.2405 40.525C68.3935 40.4368 68.5466 40.307 68.7205 40.1098V39.3237Z" fill="#D12023"/>
<path d="M73.1774 41.0076C73.1774 41.0283 73.1774 41.0517 73.1566 41.0517C73.1359 41.0724 73.1359 41.0724 73.1125 41.0958C73.0918 41.0958 73.0477 41.1165 73.0036 41.1165C72.9594 41.1165 72.8946 41.1165 72.8297 41.1165C72.7649 41.1165 72.6974 41.1165 72.6559 41.1165C72.6144 41.1165 72.5677 41.0958 72.5469 41.0958C72.5261 41.075 72.5028 41.075 72.5028 41.0517C72.482 41.0309 72.482 41.0076 72.482 41.0076V39.3911H70.6036V41.0076C70.6036 41.0283 70.6036 41.0517 70.5828 41.0517C70.562 41.0724 70.562 41.0724 70.5387 41.0958C70.5179 41.0958 70.4738 41.1165 70.4297 41.1165C70.3856 41.1165 70.3207 41.1165 70.2559 41.1165C70.191 41.1165 70.1469 41.1165 70.082 41.1165C70.0379 41.1165 69.9938 41.0958 69.9731 41.0958C69.9523 41.075 69.929 41.075 69.929 41.0517C69.929 41.0309 69.9082 41.0076 69.9082 41.0076V37.3129C69.9082 37.2921 69.9082 37.2688 69.929 37.248C69.929 37.2272 69.9497 37.2272 69.9731 37.2039C69.9938 37.1831 70.0379 37.1831 70.082 37.1831C70.1261 37.1831 70.191 37.1831 70.2559 37.1831C70.3207 37.1831 70.3882 37.1831 70.4297 37.1831C70.4712 37.1831 70.5179 37.2039 70.5387 37.2039C70.5594 37.2247 70.5828 37.2246 70.5828 37.248C70.6036 37.2688 70.6036 37.2921 70.6036 37.3129V38.8203H72.482V37.3129C72.482 37.2921 72.482 37.2688 72.5028 37.248C72.5236 37.2272 72.5236 37.2272 72.5469 37.2039C72.5677 37.1831 72.6118 37.1831 72.6559 37.1831C72.7 37.1831 72.7649 37.1831 72.8297 37.1831C72.8946 37.1831 72.9387 37.1831 73.0036 37.1831C73.0477 37.1831 73.0918 37.2039 73.1125 37.2039C73.1333 37.2247 73.1566 37.2246 73.1566 37.248C73.1774 37.2688 73.1774 37.2921 73.1774 37.3129V41.0076Z" fill="#D12023"/>
<path d="M76.7194 41.0283C76.7194 41.0491 76.7194 41.0491 76.6986 41.0724C76.6986 41.0932 76.6778 41.0932 76.6545 41.0932C76.6337 41.0932 76.5896 41.114 76.5455 41.114C76.5014 41.114 76.4573 41.114 76.3924 41.114C76.3276 41.114 76.2601 41.114 76.1953 41.114C76.1511 41.114 76.107 41.0932 76.0863 41.0932C76.0655 41.0932 76.0422 41.0724 76.0214 41.0491C76.0007 41.0283 76.0007 41.0283 76.0007 41.005L75.6063 40.0424C75.5622 39.9101 75.4973 39.8011 75.4532 39.7155C75.3883 39.6273 75.3209 39.5624 75.256 39.4975C75.1911 39.4327 75.1029 39.4093 75.0147 39.3886C74.9265 39.3678 74.8175 39.3444 74.6878 39.3444H74.4024V41.005C74.4024 41.0257 74.4024 41.0257 74.3816 41.0491C74.3609 41.0698 74.3375 41.0699 74.3168 41.0699C74.296 41.0699 74.2519 41.0906 74.2078 41.0906C74.1637 41.0906 74.1196 41.0906 74.0547 41.0906C73.9898 41.0906 73.9457 41.0906 73.9016 41.0906C73.8575 41.0906 73.8134 41.0699 73.7927 41.0699C73.7719 41.0699 73.7485 41.0491 73.7278 41.0491C73.707 41.0283 73.707 41.0283 73.707 41.005V37.2454C73.707 37.2247 73.707 37.2247 73.7278 37.2013C73.7485 37.1806 73.7485 37.1805 73.7927 37.1805C73.8134 37.1805 73.8575 37.1598 73.9016 37.1598C73.9457 37.1598 73.9898 37.1598 74.0547 37.1598C74.1196 37.1598 74.1637 37.1598 74.2078 37.1598C74.2519 37.1598 74.296 37.1598 74.3168 37.1805C74.3375 37.1805 74.3609 37.2013 74.3816 37.2013C74.4024 37.2221 74.4024 37.2221 74.4024 37.2454V38.797H74.6878C74.7968 38.797 74.885 38.7762 74.9732 38.7529C75.0614 38.7321 75.147 38.688 75.2145 38.6439C75.282 38.5998 75.3468 38.5116 75.4117 38.426C75.4765 38.3377 75.5207 38.2288 75.5648 38.1198L75.915 37.2662C75.915 37.2454 75.9358 37.2221 75.9358 37.2013C75.9566 37.1806 75.9799 37.1805 76.0007 37.1572C76.0214 37.1364 76.0655 37.1364 76.1096 37.1364C76.1537 37.1364 76.2186 37.1364 76.2835 37.1364C76.3483 37.1364 76.3924 37.1364 76.4365 37.1364C76.4807 37.1364 76.5014 37.1364 76.5455 37.1572C76.5663 37.1572 76.5896 37.178 76.5896 37.178C76.5896 37.1987 76.6104 37.1987 76.6104 37.2221C76.6104 37.2454 76.6104 37.2662 76.6104 37.3103C76.6104 37.331 76.5896 37.3751 76.5896 37.3985L76.2394 38.208C76.1745 38.3403 76.1304 38.4493 76.0655 38.5583C76.0007 38.6465 75.9332 38.7321 75.8683 38.7996C75.8035 38.867 75.736 38.9086 75.6711 38.9527C75.6063 38.9968 75.5388 39.0175 75.474 39.0409C75.5622 39.0616 75.6478 39.1057 75.736 39.1499C75.8242 39.194 75.8891 39.2588 75.954 39.3237C76.0188 39.3886 76.0863 39.4768 76.1511 39.565C76.216 39.6532 76.2601 39.7622 76.325 39.8919L76.7401 40.8311C76.7609 40.8519 76.7609 40.8753 76.7609 40.8753C76.7609 40.896 76.7609 40.896 76.7816 40.9194C76.7816 40.9401 76.7816 40.9401 76.7816 40.9635C76.7194 41.0076 76.7194 41.0283 76.7194 41.0283Z" fill="#D12023"/>
<path d="M78.8384 42.3412C78.8384 42.3619 78.8384 42.3853 78.8176 42.3853C78.8176 42.406 78.7969 42.406 78.7735 42.406C78.7528 42.406 78.7294 42.4268 78.6853 42.4268C78.6412 42.4268 78.5971 42.4268 78.553 42.4268C78.4881 42.4268 78.444 42.4268 78.4207 42.4268C78.3766 42.4268 78.3558 42.406 78.3324 42.406C78.3091 42.406 78.2883 42.3853 78.2883 42.3853C78.2883 42.3645 78.2676 42.3645 78.2676 42.3412V40.7014C78.2676 40.6365 78.2883 40.5924 78.3117 40.5691C78.3324 40.5483 78.3765 40.5483 78.444 40.5483H78.7061C78.815 40.416 78.9033 40.2863 78.9915 40.1332C79.0797 39.9801 79.1653 39.7829 79.2328 39.5442C79.2976 39.3029 79.3859 39.0201 79.43 38.6698C79.4948 38.3429 79.5389 37.9278 79.6038 37.4685C79.6038 37.4244 79.6246 37.4037 79.6246 37.3596C79.6246 37.3388 79.6453 37.2947 79.6687 37.2947C79.6894 37.2739 79.7128 37.2739 79.7335 37.2506C79.7543 37.2298 79.7776 37.2298 79.8217 37.2298H81.8767C81.9415 37.2298 81.9856 37.2506 82.0297 37.2947C82.0738 37.3388 82.0738 37.4037 82.0738 37.4685V40.5276H82.5772C82.6421 40.5276 82.6862 40.5483 82.7095 40.5483C82.7303 40.5691 82.7536 40.6132 82.7536 40.6806V42.3204C82.7536 42.3412 82.7536 42.3645 82.7329 42.3645C82.7329 42.3853 82.7121 42.3853 82.6888 42.3853C82.668 42.3853 82.6447 42.406 82.6005 42.406C82.5564 42.406 82.5123 42.406 82.4682 42.406C82.4241 42.406 82.3593 42.406 82.3359 42.406C82.2918 42.406 82.271 42.3853 82.2477 42.3853C82.2269 42.3853 82.2036 42.3645 82.2036 42.3645C82.2036 42.3438 82.1828 42.3438 82.1828 42.3204V41.075H78.8384V42.3412ZM80.2369 37.7513C80.172 38.1872 80.1279 38.5816 80.063 38.8878C79.9982 39.1939 79.9307 39.456 79.8658 39.6532C79.801 39.8711 79.7128 40.0242 79.6479 40.1773C79.5597 40.3096 79.4948 40.4186 79.4066 40.5276H81.4174V37.7513H80.2369Z" fill="#D12023"/>
<path d="M85.8118 41.0076C85.8118 41.0283 85.8118 41.0517 85.7911 41.0517C85.7703 41.0724 85.7703 41.0724 85.747 41.0958C85.7262 41.0958 85.6821 41.1165 85.638 41.1165C85.5939 41.1165 85.5498 41.1165 85.4849 41.1165C85.42 41.1165 85.3526 41.1165 85.3111 41.1165C85.2695 41.1165 85.2228 41.0958 85.2021 41.0958C85.1813 41.075 85.158 41.075 85.158 41.0517C85.1372 41.0309 85.1372 41.0076 85.1372 41.0076V37.7721H84.1098C84.0657 38.208 84.0215 38.6024 83.9567 38.9293C83.8918 39.2562 83.8244 39.5624 83.7595 39.8244C83.6713 40.0865 83.5857 40.2837 83.4974 40.4575C83.4092 40.6314 83.3003 40.7637 83.1913 40.8727C83.0823 40.9816 82.95 41.0465 82.8203 41.0906C82.6879 41.1347 82.5349 41.1555 82.4051 41.1555C82.3844 41.1555 82.361 41.1555 82.3403 41.1347C82.3195 41.1347 82.3195 41.114 82.2961 41.0906C82.2754 41.0698 82.2754 41.0465 82.2754 41.0024C82.2754 40.9583 82.2754 40.9142 82.2754 40.8493C82.2754 40.7844 82.2754 40.7403 82.2754 40.6962C82.2754 40.6521 82.2961 40.6314 82.2961 40.5872C82.2961 40.5665 82.3169 40.5431 82.3403 40.5431C82.361 40.5431 82.3844 40.5224 82.4051 40.5224C82.4933 40.5224 82.579 40.5016 82.6672 40.4575C82.7554 40.4134 82.8203 40.3485 82.9085 40.2396C82.9733 40.1514 83.0408 40.0216 83.1057 39.8452C83.1705 39.6921 83.238 39.4949 83.2795 39.2562C83.3236 39.0149 83.3885 38.7529 83.4326 38.4467C83.4767 38.1405 83.5208 37.7903 83.5649 37.3985C83.5649 37.3103 83.5857 37.2454 83.6298 37.2247C83.6739 37.1805 83.718 37.1598 83.7828 37.1598H85.6847C85.7495 37.1598 85.7937 37.1805 85.8378 37.2247C85.8819 37.2688 85.8819 37.3336 85.8819 37.3985V41.005H85.8118V41.0076Z" fill="#D12023"/>
<path d="M89.0908 41.0076C89.0908 41.0283 89.0908 41.0517 89.07 41.0724C89.07 41.0932 89.0493 41.0932 89.0259 41.1165C89.0051 41.1165 88.961 41.1373 88.9169 41.1373C88.8728 41.1373 88.808 41.1373 88.7431 41.1373C88.6782 41.1373 88.6108 41.1373 88.59 41.1373C88.5459 41.1373 88.5018 41.1165 88.481 41.1165C88.4603 41.1165 88.4369 41.0958 88.4369 41.0724C88.4369 41.0517 88.4162 41.0283 88.4162 41.0076V39.4326H88.0218C87.848 39.4326 87.7156 39.4534 87.6274 39.4767C87.5392 39.4975 87.4536 39.5416 87.3654 39.6091C87.3005 39.6739 87.2123 39.7621 87.1682 39.8504C87.1033 39.9593 87.0592 40.0683 86.9943 40.2214L86.7089 40.9634C86.6882 41.0076 86.6882 41.0283 86.6648 41.0517C86.6441 41.0724 86.6207 41.0958 86.6 41.0958C86.5792 41.1165 86.5351 41.1165 86.491 41.1165C86.4469 41.1165 86.382 41.1165 86.3171 41.1165C86.273 41.1165 86.2289 41.1165 86.1848 41.1165C86.1407 41.1165 86.12 41.1165 86.0759 41.0958C86.0551 41.0958 86.0317 41.075 86.011 41.075C85.9902 41.0543 85.9902 41.0309 85.9902 41.0101C85.9902 40.9894 85.9902 40.966 86.011 40.9219C86.0317 40.8778 86.0551 40.813 86.0992 40.704L86.4054 40.0034C86.4936 39.8296 86.5792 39.6765 86.6908 39.5442C86.7997 39.4119 86.9321 39.3263 87.0852 39.2588C86.8231 39.2147 86.6052 39.1057 86.4521 38.9319C86.299 38.7788 86.2108 38.5608 86.2108 38.2754C86.2108 38.1016 86.2549 37.9252 86.3197 37.7954C86.3846 37.6424 86.4936 37.5334 86.6467 37.4244C86.7997 37.3154 86.9736 37.2506 87.1708 37.2065C87.3887 37.1624 87.63 37.1183 87.8921 37.1183C87.9569 37.1183 88.0244 37.1183 88.11 37.1183C88.1982 37.1183 88.2839 37.1183 88.3721 37.139C88.4603 37.139 88.5459 37.1598 88.6341 37.1598C88.7223 37.1598 88.7872 37.1805 88.8521 37.1805C88.9403 37.1805 89.0051 37.2246 89.0259 37.2687C89.07 37.3129 89.0908 37.3777 89.0908 37.4659V41.0076ZM88.4136 37.7072C88.3254 37.6865 88.2164 37.6865 88.1074 37.6865C87.9984 37.6865 87.9102 37.6865 87.822 37.6865C87.6248 37.6865 87.4717 37.7072 87.3628 37.7306C87.2304 37.7513 87.1448 37.7954 87.0566 37.8629C86.9917 37.9278 86.9243 37.9952 86.9035 38.0601C86.8828 38.1483 86.8594 38.2339 86.8594 38.3222C86.8594 38.4104 86.8802 38.5193 86.9243 38.5842C86.9684 38.6724 87.0125 38.7373 87.0981 38.7814C87.163 38.8255 87.272 38.8696 87.3835 38.9137C87.4925 38.9345 87.6689 38.9578 87.8869 38.9578H88.4551V37.7124H88.4136V37.7072Z" fill="#D12023"/>
<path d="M94.5759 39.936C94.5759 40.1332 94.5318 40.307 94.467 40.4601C94.4021 40.6132 94.2931 40.7455 94.14 40.8311C93.987 40.9401 93.8131 41.005 93.5926 41.0724C93.3746 41.1165 93.1333 41.1607 92.8272 41.1607C92.739 41.1607 92.6533 41.1607 92.5651 41.1607C92.4769 41.1607 92.3913 41.1607 92.3238 41.1607C92.2356 41.1607 92.1707 41.1607 92.0825 41.1399C91.9943 41.1399 91.9294 41.1191 91.8412 41.1191C91.7323 41.0984 91.644 41.075 91.5999 41.0102C91.5558 40.9453 91.5117 40.8571 91.5117 40.7481V37.5801C91.5117 37.4711 91.5325 37.3829 91.5766 37.3181C91.6207 37.2532 91.7089 37.2298 91.8179 37.2091C91.8827 37.2091 91.971 37.1883 92.0358 37.1883C92.124 37.1883 92.1889 37.1883 92.2771 37.1676C92.3653 37.1676 92.451 37.1676 92.5392 37.1676C92.6274 37.1676 92.713 37.1676 92.8246 37.1676C93.0866 37.1676 93.3279 37.1883 93.5251 37.2324C93.7223 37.2765 93.8754 37.3414 94.0051 37.4296C94.1374 37.5178 94.2231 37.6268 94.2905 37.7358C94.3554 37.8681 94.3787 37.9978 94.3787 38.1509C94.3787 38.3481 94.3139 38.5453 94.2049 38.675C94.0959 38.8281 93.9429 38.9371 93.7249 38.9812C93.987 39.0461 94.2049 39.155 94.3372 39.3081C94.5111 39.4768 94.5759 39.6947 94.5759 39.936ZM93.769 38.2314C93.769 38.1431 93.7483 38.0575 93.7249 37.9901C93.7042 37.9252 93.6367 37.8577 93.5718 37.8162C93.507 37.7747 93.398 37.728 93.2864 37.7072C93.1749 37.6865 93.0244 37.6631 92.8479 37.6631C92.7156 37.6631 92.6066 37.6631 92.4977 37.6631C92.3887 37.6631 92.3005 37.6839 92.2356 37.6839V38.8411H92.9361C93.2216 38.8411 93.4395 38.797 93.5926 38.688C93.6808 38.5583 93.769 38.4285 93.769 38.2314ZM93.878 39.9594C93.878 39.8504 93.8572 39.7622 93.8131 39.674C93.769 39.5857 93.7041 39.5209 93.6393 39.4768C93.5511 39.4327 93.4421 39.3885 93.3124 39.3444C93.18 39.3237 93.027 39.3003 92.8531 39.3003H92.1967V40.6106C92.2408 40.6106 92.3057 40.6314 92.3498 40.6314C92.4146 40.6314 92.4587 40.6314 92.5236 40.6521C92.5885 40.6521 92.6326 40.6521 92.6974 40.6521C92.7623 40.6521 92.8064 40.6521 92.8505 40.6521C93.0244 40.6521 93.1774 40.6314 93.3098 40.608C93.4421 40.5873 93.5511 40.5198 93.6159 40.4757C93.7041 40.4108 93.769 40.3434 93.7898 40.2577C93.8546 40.154 93.878 40.045 93.878 39.9594Z" fill="#D12023"/>
<path d="M97.6379 41.0076C97.6379 41.0283 97.6171 41.0724 97.5938 41.0724C97.573 41.0932 97.5497 41.0932 97.5056 41.1165C97.4614 41.1165 97.4173 41.1373 97.3317 41.1373C97.2669 41.1373 97.1994 41.1373 97.1579 41.1165C97.1138 41.1165 97.093 41.0958 97.0697 41.0724C97.0489 41.0517 97.0489 41.0283 97.0489 41.0076V40.6365C96.8958 40.8104 96.6986 40.9427 96.5014 41.0309C96.3043 41.1191 96.0863 41.184 95.8684 41.184C95.6712 41.184 95.4973 41.1632 95.3443 41.0958C95.1912 41.0517 95.0589 40.9635 94.9499 40.8778C94.8409 40.7922 94.7527 40.6599 94.6878 40.5276C94.623 40.3952 94.5996 40.2214 94.5996 40.0476C94.5996 39.8296 94.6437 39.6532 94.7319 39.5001C94.8201 39.347 94.9291 39.2147 95.103 39.1291C95.256 39.0201 95.4532 38.9552 95.6919 38.9111C95.9332 38.867 96.1719 38.8463 96.4573 38.8463H96.9607V38.5609C96.9607 38.4078 96.9399 38.2988 96.9166 38.1898C96.8958 38.0809 96.8284 37.9926 96.7635 37.9278C96.6986 37.8629 96.6104 37.7955 96.5014 37.7539C96.3925 37.7098 96.2601 37.7098 96.1071 37.7098C95.9332 37.7098 95.8009 37.7306 95.6478 37.7747C95.5155 37.8188 95.4065 37.8629 95.2976 37.907C95.1886 37.9511 95.1237 37.9952 95.0563 38.0393C94.9914 38.0835 94.9473 38.1042 94.9032 38.1042C94.8824 38.1042 94.8591 38.1042 94.8383 38.0835C94.8176 38.0627 94.8176 38.0627 94.7942 38.0393C94.7734 38.0186 94.7734 37.9952 94.7734 37.9511C94.7734 37.907 94.7734 37.8863 94.7734 37.8422C94.7734 37.7773 94.7734 37.7098 94.7942 37.6891C94.7942 37.645 94.815 37.6009 94.8591 37.5801C94.9032 37.536 94.968 37.4919 95.0563 37.4478C95.1445 37.4037 95.2534 37.3596 95.3624 37.3155C95.4714 37.2714 95.6037 37.2506 95.7568 37.2272C95.8891 37.2065 96.0422 37.1831 96.1719 37.1831C96.434 37.1831 96.6519 37.2039 96.8491 37.2714C97.0463 37.3362 97.176 37.4244 97.3084 37.5334C97.4173 37.6424 97.5056 37.7955 97.5497 37.9693C97.5938 38.1431 97.6379 38.3403 97.6379 38.5816V41.0076ZM96.9607 39.3237H96.3925C96.1953 39.3237 96.0422 39.3444 95.9125 39.3678C95.7801 39.3885 95.6712 39.456 95.5622 39.5001C95.474 39.565 95.4091 39.6324 95.365 39.7181C95.3209 39.8063 95.3001 39.8919 95.3001 40.0242C95.3001 40.2214 95.365 40.3745 95.474 40.4835C95.6063 40.5924 95.7594 40.6573 95.9773 40.6573C96.1512 40.6573 96.3276 40.6132 96.4807 40.525C96.6338 40.4368 96.7869 40.307 96.9607 40.1098V39.3237Z" fill="#D12023"/>
<path d="M103.037 40.8545C103.037 40.9427 103.016 40.9868 102.972 41.0283C102.928 41.0724 102.884 41.0932 102.819 41.0932H98.382C98.3171 41.0932 98.273 41.0724 98.2289 41.0283C98.1848 40.9842 98.1641 40.9194 98.1641 40.8545V37.2921C98.1641 37.2714 98.1641 37.248 98.1848 37.2272C98.1848 37.2065 98.2056 37.2065 98.2497 37.1831C98.2704 37.1624 98.3145 37.1624 98.3587 37.1624C98.4028 37.1624 98.4676 37.1624 98.5325 37.1624C98.5974 37.1624 98.6648 37.1624 98.7063 37.1624C98.7478 37.1624 98.7946 37.1831 98.8153 37.1831C98.8361 37.2039 98.8594 37.2039 98.8594 37.2272C98.8802 37.248 98.8802 37.2714 98.8802 37.2921V40.5276H100.302V37.3155C100.302 37.2947 100.302 37.2714 100.323 37.2506C100.323 37.2298 100.344 37.2298 100.367 37.2065C100.388 37.1857 100.432 37.1857 100.455 37.1857C100.499 37.1857 100.543 37.1857 100.629 37.1857C100.694 37.1857 100.738 37.1857 100.782 37.1857C100.826 37.1857 100.87 37.2065 100.891 37.2065C100.912 37.2272 100.935 37.2272 100.935 37.2506C100.956 37.2714 100.956 37.2947 100.956 37.3155V40.5276H102.378V37.3155C102.378 37.2947 102.378 37.2714 102.398 37.2506C102.398 37.2298 102.419 37.2298 102.443 37.2065C102.463 37.1857 102.507 37.1857 102.552 37.1857C102.596 37.1857 102.64 37.1857 102.705 37.1857C102.769 37.1857 102.837 37.1857 102.878 37.1857C102.92 37.1857 102.967 37.2065 102.987 37.2065C103.008 37.2272 103.032 37.2272 103.052 37.2506C103.052 37.2714 103.073 37.2947 103.073 37.3155V40.8571H103.037V40.8545Z" fill="#D12023"/>
<path d="M106.728 38.9968C106.728 39.1057 106.708 39.1706 106.64 39.2147C106.596 39.2588 106.531 39.2796 106.466 39.2796H104.04C104.04 39.4768 104.061 39.674 104.105 39.827C104.149 40.0009 104.214 40.1332 104.302 40.2422C104.391 40.3511 104.52 40.4601 104.673 40.5042C104.826 40.5691 105.024 40.5924 105.242 40.5924C105.415 40.5924 105.569 40.5717 105.701 40.5483C105.833 40.5276 105.963 40.4835 106.051 40.4601C106.16 40.416 106.225 40.3953 106.292 40.3719C106.357 40.3511 106.401 40.3278 106.445 40.3278C106.466 40.3278 106.49 40.3278 106.49 40.3486C106.51 40.3486 106.51 40.3693 106.534 40.3927C106.534 40.4134 106.554 40.4368 106.554 40.4809C106.554 40.525 106.554 40.5457 106.554 40.6132C106.554 40.6573 106.554 40.6781 106.554 40.7014C106.554 40.7222 106.554 40.7455 106.554 40.7663C106.554 40.787 106.534 40.8104 106.534 40.8311C106.534 40.8519 106.513 40.8519 106.49 40.8753C106.469 40.896 106.425 40.9194 106.357 40.9401C106.292 40.9842 106.183 41.005 106.072 41.0491C105.963 41.0698 105.81 41.114 105.657 41.1373C105.504 41.1581 105.33 41.1814 105.153 41.1814C104.847 41.1814 104.585 41.1373 104.344 41.0491C104.126 40.9609 103.929 40.8311 103.776 40.6781C103.623 40.5042 103.49 40.307 103.425 40.045C103.337 39.7829 103.316 39.4975 103.316 39.1706C103.316 38.8644 103.361 38.5583 103.449 38.317C103.537 38.0549 103.646 37.8577 103.799 37.6839C103.952 37.5101 104.149 37.3777 104.367 37.2688C104.585 37.1806 104.826 37.1364 105.109 37.1364C105.395 37.1364 105.657 37.1806 105.851 37.2688C106.049 37.357 106.222 37.4867 106.355 37.6398C106.487 37.7929 106.573 37.9901 106.64 38.1873C106.705 38.4052 106.728 38.6231 106.728 38.8644V38.9968ZM106.051 38.7996C106.051 38.4493 105.986 38.1665 105.81 37.9693C105.636 37.7721 105.395 37.6631 105.068 37.6631C104.894 37.6631 104.762 37.6839 104.632 37.7514C104.5 37.8162 104.391 37.9044 104.326 37.9927C104.237 38.1016 104.173 38.2106 104.129 38.3637C104.084 38.496 104.064 38.6491 104.04 38.7996H106.051Z" fill="#D12023"/>
<path d="M110.359 41.0076C110.359 41.0283 110.359 41.0517 110.338 41.0517C110.338 41.0724 110.317 41.0725 110.294 41.0958C110.273 41.0958 110.229 41.1166 110.185 41.1166C110.141 41.1166 110.097 41.1166 110.032 41.1166C109.967 41.1166 109.9 41.1166 109.858 41.1166C109.817 41.1166 109.77 41.0958 109.749 41.0958C109.728 41.0958 109.705 41.075 109.684 41.0517C109.684 41.0309 109.664 41.0076 109.664 41.0076V38.8878C109.664 38.7788 109.664 38.6699 109.664 38.5609C109.664 38.4519 109.684 38.3429 109.684 38.234C109.619 38.3429 109.552 38.4519 109.487 38.5609C109.422 38.6699 109.334 38.7788 109.269 38.867L107.694 41.0102C107.674 41.0309 107.65 41.0543 107.65 41.075C107.629 41.0958 107.606 41.0958 107.585 41.1192C107.565 41.1192 107.541 41.1399 107.497 41.1399C107.453 41.1399 107.409 41.1399 107.365 41.1399C107.3 41.1399 107.256 41.1399 107.212 41.1399C107.168 41.1399 107.147 41.1192 107.123 41.1192C107.1 41.1192 107.079 41.0984 107.079 41.075C107.079 41.0543 107.059 41.0309 107.059 41.0309V37.3362C107.059 37.3155 107.059 37.2921 107.079 37.2921C107.079 37.2714 107.1 37.2714 107.123 37.248C107.144 37.2273 107.188 37.2273 107.232 37.2273C107.277 37.2273 107.321 37.2273 107.386 37.2273C107.518 37.2273 107.603 37.248 107.648 37.248C107.692 37.2688 107.712 37.2921 107.712 37.3362V39.4794C107.712 39.5883 107.712 39.6973 107.712 39.8063C107.712 39.9153 107.692 40.0242 107.692 40.1125C107.757 40.0035 107.824 39.9153 107.889 39.8063C107.954 39.6973 108.021 39.6091 108.086 39.5209L109.682 37.357C109.702 37.3362 109.726 37.3129 109.726 37.2921C109.747 37.2714 109.77 37.2714 109.791 37.248C109.811 37.248 109.856 37.2273 109.879 37.2273C109.923 37.2273 109.967 37.2273 110.011 37.2273C110.076 37.2273 110.12 37.2273 110.164 37.2273C110.208 37.2273 110.229 37.248 110.253 37.248C110.273 37.2688 110.297 37.2688 110.297 37.2921C110.297 37.3129 110.317 37.3362 110.317 37.357V41.0076H110.359ZM109.985 35.5641C109.985 35.7172 109.965 35.8703 109.92 36C109.876 36.1323 109.788 36.2621 109.702 36.3503C109.594 36.4593 109.461 36.5241 109.308 36.5916C109.155 36.6564 108.958 36.6798 108.74 36.6798C108.543 36.6798 108.346 36.659 108.192 36.5916C108.039 36.5475 107.907 36.4593 107.798 36.3736C107.689 36.2854 107.624 36.1557 107.557 36.0234C107.513 35.891 107.469 35.7172 107.469 35.5434C107.469 35.5226 107.469 35.4993 107.489 35.4785C107.489 35.4577 107.51 35.4344 107.533 35.4344C107.554 35.4136 107.598 35.4136 107.642 35.4136C107.686 35.4136 107.731 35.4136 107.795 35.4136C107.86 35.4136 107.904 35.4136 107.949 35.4344C107.993 35.4344 108.013 35.4551 108.037 35.4551C108.058 35.4759 108.081 35.4759 108.081 35.4993C108.081 35.52 108.081 35.5434 108.081 35.5875C108.081 35.6757 108.102 35.7613 108.125 35.8288C108.146 35.8936 108.19 35.9611 108.257 36.026C108.322 36.0701 108.39 36.1142 108.454 36.1583C108.543 36.179 108.628 36.2024 108.74 36.2024C108.851 36.2024 108.937 36.1816 109.002 36.1583C109.09 36.1375 109.155 36.0934 109.199 36.026C109.264 35.9611 109.287 35.8936 109.331 35.8288C109.352 35.7639 109.376 35.6757 109.376 35.5875C109.376 35.5667 109.376 35.5434 109.376 35.5226C109.376 35.5019 109.396 35.4785 109.42 35.4785C109.44 35.4577 109.464 35.4577 109.508 35.4577C109.552 35.4577 109.596 35.437 109.661 35.437C109.726 35.437 109.793 35.437 109.814 35.437C109.858 35.437 109.902 35.4577 109.923 35.4577C109.944 35.4785 109.967 35.4785 109.988 35.5019C109.985 35.52 109.985 35.5434 109.985 35.5641Z" fill="#D12023"/>
<path d="M117.7 41.0283C117.7 41.0491 117.7 41.0491 117.68 41.0724C117.68 41.0932 117.659 41.0932 117.615 41.0932C117.594 41.0932 117.55 41.1139 117.506 41.1139C117.462 41.1139 117.418 41.1139 117.353 41.1139C117.265 41.1139 117.22 41.1139 117.156 41.1139C117.111 41.1139 117.067 41.0932 117.047 41.0932C117.026 41.0932 117.003 41.0724 116.982 41.0491C116.961 41.0283 116.961 41.0283 116.961 41.005L116.567 40.0424C116.523 39.9101 116.458 39.8011 116.414 39.7155C116.349 39.6273 116.305 39.5624 116.216 39.4975C116.151 39.4327 116.063 39.4093 115.975 39.3652C115.887 39.3444 115.778 39.3211 115.669 39.3211H115.384V40.9816C115.384 41.0024 115.384 41.0024 115.363 41.0257C115.342 41.0465 115.319 41.0465 115.298 41.0465C115.277 41.0465 115.233 41.0672 115.189 41.0672C115.145 41.0672 115.101 41.0672 115.036 41.0672C114.971 41.0672 114.927 41.0672 114.883 41.0672C114.839 41.0672 114.795 41.0673 114.774 41.0465C114.753 41.0465 114.73 41.0257 114.709 41.0257C114.688 41.005 114.688 41.005 114.688 40.9816V39.3211H114.403C114.27 39.3211 114.185 39.3418 114.097 39.3652C114.008 39.386 113.923 39.4301 113.855 39.4975C113.79 39.5416 113.723 39.6298 113.658 39.7155C113.593 39.8037 113.549 39.9127 113.505 40.0424L113.111 41.005C113.111 41.0257 113.09 41.0491 113.09 41.0491C113.069 41.0698 113.046 41.0698 113.025 41.0932C113.004 41.0932 112.96 41.1139 112.916 41.1139C112.872 41.1139 112.807 41.1139 112.742 41.1139C112.677 41.1139 112.633 41.1139 112.589 41.1139C112.545 41.1139 112.501 41.114 112.48 41.0932C112.459 41.0932 112.436 41.0724 112.415 41.0724C112.415 41.0517 112.395 41.0517 112.395 41.0283C112.395 41.0076 112.395 40.9842 112.395 40.9635C112.395 40.9427 112.415 40.8986 112.439 40.8545L112.854 39.9152C112.898 39.7829 112.963 39.6739 113.028 39.5883C113.092 39.5001 113.16 39.4145 113.225 39.347C113.29 39.2822 113.357 39.2147 113.443 39.1732C113.531 39.1291 113.596 39.085 113.705 39.0642C113.64 39.0435 113.572 39.0201 113.508 38.976C113.443 38.9319 113.375 38.8878 113.31 38.8229C113.246 38.7581 113.178 38.6906 113.137 38.5816C113.072 38.4934 113.028 38.3637 112.963 38.2314L112.612 37.4218C112.592 37.3777 112.592 37.357 112.592 37.3336C112.592 37.3129 112.571 37.2895 112.571 37.2454C112.571 37.2247 112.571 37.2247 112.592 37.2013C112.592 37.1805 112.612 37.1805 112.636 37.1805C112.659 37.1805 112.701 37.1598 112.745 37.1598C112.789 37.1598 112.833 37.1598 112.898 37.1598C112.963 37.1598 113.03 37.1598 113.072 37.1598C113.113 37.1598 113.16 37.1805 113.181 37.1805C113.201 37.2013 113.225 37.2013 113.246 37.2247C113.266 37.2454 113.266 37.2688 113.266 37.2895L113.593 38.1431C113.637 38.2521 113.681 38.3611 113.746 38.4493C113.79 38.5375 113.855 38.6024 113.92 38.6672C113.985 38.7114 114.052 38.7555 114.138 38.7762C114.226 38.797 114.312 38.8203 114.424 38.8203H114.709V37.2688C114.709 37.248 114.709 37.248 114.73 37.2247C114.75 37.2039 114.774 37.2039 114.795 37.2039C114.815 37.2039 114.859 37.1831 114.903 37.1831C114.948 37.1831 114.992 37.1831 115.057 37.1831C115.121 37.1831 115.166 37.1831 115.21 37.1831C115.254 37.1831 115.298 37.1831 115.319 37.2039C115.339 37.2039 115.363 37.2247 115.384 37.2247C115.404 37.2454 115.404 37.2454 115.404 37.2688V38.8203H115.69C115.799 38.8203 115.887 38.7996 115.975 38.7762C116.063 38.7555 116.128 38.7114 116.193 38.6672C116.258 38.6231 116.325 38.5349 116.367 38.4701C116.411 38.3818 116.476 38.2962 116.52 38.1639L116.87 37.3103C116.87 37.2895 116.891 37.2662 116.914 37.2454C116.935 37.2247 116.935 37.2247 116.979 37.2013C117 37.1805 117.044 37.1805 117.088 37.1805C117.132 37.1805 117.197 37.1805 117.262 37.1805C117.327 37.1805 117.371 37.1805 117.415 37.1805C117.459 37.1805 117.48 37.1805 117.503 37.2013C117.524 37.2013 117.547 37.2221 117.547 37.2221C117.547 37.2428 117.568 37.2428 117.568 37.2662C117.568 37.2895 117.568 37.3103 117.547 37.3544C117.547 37.3751 117.527 37.4192 117.503 37.4426L117.153 38.2521C117.088 38.3844 117.044 38.4934 116.979 38.6024C116.914 38.6906 116.847 38.7762 116.782 38.8203C116.717 38.8852 116.65 38.9293 116.585 38.9734C116.52 39.0175 116.452 39.0383 116.388 39.0616C116.476 39.0824 116.561 39.1265 116.65 39.1706C116.738 39.2147 116.803 39.2796 116.868 39.3444C116.932 39.4093 117 39.4975 117.065 39.5857C117.13 39.674 117.174 39.7829 117.239 39.9127L117.633 40.8519C117.633 40.8727 117.654 40.896 117.654 40.896C117.654 40.9168 117.675 40.9168 117.675 40.9401C117.675 40.9609 117.675 40.9609 117.675 40.9842C117.7 41.0076 117.7 41.0283 117.7 41.0283Z" fill="#D12023"/>
<path d="M121.154 41.0076C121.154 41.0283 121.154 41.0517 121.133 41.0517C121.133 41.0724 121.112 41.0724 121.089 41.0958C121.068 41.0958 121.024 41.1165 120.98 41.1165C120.936 41.1165 120.892 41.1165 120.827 41.1165C120.762 41.1165 120.695 41.1165 120.653 41.1165C120.609 41.1165 120.565 41.0958 120.544 41.0958C120.523 41.0958 120.5 41.075 120.479 41.0517C120.479 41.0309 120.458 41.0076 120.458 41.0076V38.8878C120.458 38.7788 120.458 38.6698 120.458 38.5609C120.458 38.4519 120.479 38.3429 120.479 38.2339C120.414 38.3429 120.347 38.4519 120.282 38.5609C120.217 38.6698 120.129 38.7788 120.064 38.867L118.489 41.0101C118.468 41.0309 118.445 41.0543 118.445 41.075C118.424 41.0958 118.401 41.0958 118.38 41.1191C118.359 41.1191 118.336 41.1399 118.292 41.1399C118.248 41.1399 118.204 41.1399 118.16 41.1399C118.095 41.1399 118.051 41.1399 118.007 41.1399C117.962 41.1399 117.942 41.1191 117.918 41.1191C117.895 41.1191 117.874 41.0984 117.874 41.075C117.874 41.0517 117.854 41.0309 117.854 41.0309V37.3362C117.854 37.3154 117.854 37.2921 117.874 37.2921C117.874 37.2713 117.895 37.2713 117.918 37.248C117.939 37.2272 117.983 37.2272 118.027 37.2272C118.071 37.2272 118.116 37.2272 118.18 37.2272C118.313 37.2272 118.398 37.248 118.442 37.248C118.487 37.2687 118.507 37.2921 118.507 37.3362V39.4793C118.507 39.5883 118.507 39.6973 118.507 39.8063C118.507 39.9152 118.487 40.0242 118.487 40.1124C118.551 40.0034 118.619 39.9152 118.684 39.8063C118.749 39.6973 118.816 39.6091 118.881 39.5209L120.477 37.357C120.497 37.3362 120.521 37.3129 120.521 37.2921C120.542 37.2713 120.565 37.2713 120.586 37.248C120.606 37.248 120.65 37.2272 120.674 37.2272C120.718 37.2272 120.762 37.2272 120.806 37.2272C120.871 37.2272 120.915 37.2272 120.959 37.2272C121.003 37.2272 121.024 37.248 121.047 37.248C121.068 37.2687 121.092 37.2687 121.092 37.2921C121.092 37.3129 121.112 37.3362 121.112 37.357V41.0076H121.154Z" fill="#D12023"/>
<path d="M124.258 39.9801C124.258 40.1773 124.213 40.3304 124.149 40.4834C124.084 40.6365 123.975 40.7455 123.822 40.8545C123.689 40.9634 123.516 41.0283 123.318 41.0958C123.121 41.1399 122.903 41.184 122.641 41.184C122.509 41.184 122.356 41.1632 122.247 41.1632C122.114 41.1425 122.005 41.1191 121.897 41.075C121.788 41.0543 121.699 41.0102 121.634 40.966C121.57 40.9219 121.525 40.9012 121.481 40.8778C121.461 40.8571 121.437 40.8337 121.417 40.813C121.396 40.7922 121.396 40.7689 121.396 40.7481C121.396 40.7273 121.396 40.704 121.375 40.6599C121.375 40.6158 121.375 40.5717 121.375 40.5276C121.375 40.4835 121.375 40.4393 121.375 40.4186C121.375 40.3978 121.396 40.3537 121.396 40.3537C121.396 40.333 121.417 40.3096 121.417 40.3096C121.437 40.3096 121.437 40.2889 121.461 40.2889C121.481 40.2889 121.525 40.3096 121.593 40.3537C121.637 40.3978 121.725 40.4419 121.811 40.486C121.897 40.5302 122.008 40.5743 122.138 40.6184C122.27 40.6625 122.444 40.6832 122.618 40.6832C122.75 40.6832 122.88 40.6625 122.989 40.6391C123.098 40.6158 123.186 40.5743 123.274 40.5068C123.362 40.4419 123.407 40.3745 123.448 40.2889C123.492 40.2006 123.513 40.115 123.513 39.9827C123.513 39.8945 123.492 39.8089 123.448 39.7206C123.404 39.6324 123.339 39.5883 123.251 39.5234C123.163 39.4793 123.054 39.4352 122.924 39.3911C122.792 39.3704 122.618 39.347 122.421 39.347H122.005C121.985 39.347 121.961 39.347 121.941 39.3263C121.92 39.3263 121.92 39.3055 121.897 39.2821C121.876 39.2614 121.876 39.238 121.876 39.1939C121.876 39.1498 121.876 39.1291 121.876 39.0616C121.876 39.0175 121.876 38.9734 121.876 38.9526C121.876 38.9085 121.897 38.8878 121.897 38.8644C121.917 38.8437 121.917 38.8203 121.941 38.8203C121.964 38.8203 121.985 38.7996 122.005 38.7996H122.4C122.574 38.7996 122.727 38.7788 122.836 38.7554C122.968 38.7347 123.054 38.6906 123.142 38.6231C123.23 38.579 123.295 38.5142 123.316 38.4259C123.36 38.3377 123.381 38.2521 123.381 38.1639C123.381 38.0757 123.36 37.99 123.316 37.9226C123.272 37.8577 123.228 37.7903 123.163 37.7487C123.098 37.7072 123.01 37.6605 122.921 37.6398C122.833 37.619 122.724 37.5957 122.615 37.5957C122.441 37.5957 122.309 37.6164 122.179 37.6605C122.05 37.7046 121.938 37.7487 121.852 37.7929C121.764 37.837 121.679 37.8811 121.611 37.9252C121.546 37.9693 121.502 37.99 121.479 37.99C121.455 37.99 121.458 37.99 121.435 37.99C121.411 37.99 121.414 37.9693 121.414 37.9459C121.414 37.9252 121.393 37.9018 121.393 37.8811C121.393 37.8603 121.393 37.8162 121.393 37.7721C121.393 37.6839 121.393 37.619 121.414 37.5749C121.435 37.5308 121.458 37.4867 121.479 37.4659C121.523 37.4452 121.567 37.4011 121.653 37.357C121.741 37.3129 121.826 37.2687 121.938 37.248C122.047 37.2039 122.179 37.1831 122.288 37.1598C122.421 37.139 122.55 37.1157 122.683 37.1157C122.88 37.1157 123.077 37.1364 123.23 37.1805C123.404 37.2246 123.536 37.2895 123.666 37.3777C123.775 37.4659 123.884 37.5749 123.951 37.7046C124.016 37.837 124.04 37.99 124.04 38.1405C124.04 38.2495 124.019 38.3377 123.996 38.4259C123.951 38.5142 123.907 38.5998 123.863 38.688C123.798 38.7762 123.731 38.8411 123.645 38.8852C123.557 38.95 123.448 38.9942 123.339 39.0175C123.448 39.0383 123.557 39.0616 123.645 39.1057C123.754 39.1498 123.842 39.2147 123.931 39.3029C124.019 39.3911 124.084 39.4767 124.128 39.5883C124.237 39.718 124.258 39.8478 124.258 39.9801Z" fill="#D12023"/>
<path d="M127.798 41.0076C127.798 41.0283 127.798 41.0517 127.778 41.0517C127.757 41.0724 127.757 41.0724 127.734 41.0958C127.713 41.0958 127.669 41.1165 127.625 41.1165C127.581 41.1165 127.516 41.1165 127.451 41.1165C127.386 41.1165 127.318 41.1165 127.277 41.1165C127.235 41.1165 127.189 41.0958 127.168 41.0958C127.147 41.075 127.124 41.075 127.124 41.0517C127.103 41.0309 127.103 41.0076 127.103 41.0076V39.3911H125.225V41.0076C125.225 41.0283 125.225 41.0517 125.204 41.0517C125.183 41.0724 125.183 41.0724 125.16 41.0958C125.139 41.0958 125.095 41.1165 125.051 41.1165C125.007 41.1165 124.942 41.1165 124.877 41.1165C124.812 41.1165 124.768 41.1165 124.703 41.1165C124.659 41.1165 124.615 41.0958 124.594 41.0958C124.573 41.075 124.55 41.075 124.55 41.0517C124.55 41.0309 124.529 41.0076 124.529 41.0076V37.3129C124.529 37.2921 124.529 37.2688 124.55 37.248C124.55 37.2272 124.571 37.2272 124.594 37.2039C124.615 37.1831 124.659 37.1831 124.703 37.1831C124.747 37.1831 124.812 37.1831 124.877 37.1831C124.942 37.1831 125.009 37.1831 125.051 37.1831C125.095 37.1831 125.139 37.2039 125.16 37.2039C125.181 37.2247 125.204 37.2246 125.204 37.248C125.225 37.2688 125.225 37.2921 125.225 37.3129V38.8203H127.103V37.3129C127.103 37.2921 127.103 37.2688 127.124 37.248C127.145 37.2272 127.145 37.2272 127.168 37.2039C127.189 37.1831 127.233 37.1831 127.277 37.1831C127.321 37.1831 127.386 37.1831 127.451 37.1831C127.516 37.1831 127.56 37.1831 127.625 37.1831C127.669 37.1831 127.713 37.2039 127.734 37.2039C127.754 37.2247 127.778 37.2246 127.778 37.248C127.798 37.2688 127.798 37.2921 127.798 37.3129V41.0076Z" fill="#D12023"/>
<path d="M131.625 41.0076C131.625 41.0283 131.625 41.0517 131.604 41.0517C131.604 41.0724 131.583 41.0724 131.56 41.0958C131.539 41.0958 131.495 41.1165 131.451 41.1165C131.407 41.1165 131.362 41.1165 131.298 41.1165C131.233 41.1165 131.165 41.1165 131.124 41.1165C131.08 41.1165 131.036 41.0958 131.015 41.0958C130.994 41.0958 130.971 41.075 130.95 41.0517C130.95 41.0309 130.929 41.0076 130.929 41.0076V38.8878C130.929 38.7788 130.929 38.6698 130.929 38.5609C130.929 38.4519 130.95 38.3429 130.95 38.2339C130.885 38.3429 130.818 38.4519 130.753 38.5609C130.688 38.6698 130.6 38.7788 130.535 38.867L128.96 41.0101C128.939 41.0309 128.916 41.0543 128.916 41.075C128.895 41.0958 128.872 41.0958 128.851 41.1191C128.83 41.1191 128.807 41.1399 128.763 41.1399C128.719 41.1399 128.674 41.1399 128.63 41.1399C128.566 41.1399 128.521 41.1399 128.477 41.1399C128.433 41.1399 128.412 41.1191 128.389 41.1191C128.366 41.1191 128.345 41.0984 128.345 41.075C128.345 41.0517 128.324 41.0309 128.324 41.0309V37.3362C128.324 37.3154 128.324 37.2921 128.345 37.2921C128.345 37.2713 128.366 37.2713 128.389 37.248C128.41 37.2272 128.454 37.2272 128.498 37.2272C128.542 37.2272 128.586 37.2272 128.651 37.2272C128.783 37.2272 128.869 37.248 128.913 37.248C128.957 37.2687 128.978 37.2921 128.978 37.3362V39.4793C128.978 39.5883 128.978 39.6973 128.978 39.8063C128.978 39.9152 128.957 40.0242 128.957 40.1124C129.022 40.0034 129.09 39.9152 129.154 39.8063C129.219 39.6973 129.287 39.6091 129.352 39.5209L130.947 37.357C130.968 37.3362 130.991 37.3129 130.991 37.2921C131.012 37.2713 131.036 37.2713 131.056 37.248C131.077 37.248 131.121 37.2272 131.145 37.2272C131.189 37.2272 131.233 37.2272 131.277 37.2272C131.342 37.2272 131.386 37.2272 131.43 37.2272C131.474 37.2272 131.495 37.248 131.518 37.248C131.539 37.2687 131.562 37.2687 131.562 37.2921C131.562 37.3129 131.583 37.3362 131.583 37.357V41.0076H131.625Z" fill="#D12023"/>
</g>
<defs>
<clipPath id="clip0_4529_18856">
<rect width="178.508" height="48" fill="white"/>
</clipPath>
</defs>
</svg>
