<svg width="200" height="48" viewBox="0 0 200 48" fill="none" xmlns="http://www.w3.org/2000/svg">
<g clip-path="url(#clip0_3113_26592)">
<path fill-rule="evenodd" clip-rule="evenodd" d="M0 24C0 33.9368 8.0632 42 18 42C27.9368 42 36 33.9368 36 24C36 14.0632 27.9368 6 18 6C8.0632 6 0 14.0632 0 24ZM0.635688 24C0.635688 14.3978 8.43123 6.60223 18.0335 6.60223C27.6357 6.60223 35.4312 14.3978 35.4312 24C35.4312 33.5688 27.6357 41.3643 18.0335 41.3643C8.43123 41.3978 0.635688 33.6022 0.635688 24Z" fill="#00487C"/>
<path fill-rule="evenodd" clip-rule="evenodd" d="M5.62075 19.0819C10.2378 16.0707 15.3233 14.2975 23.9553 15.8031C24.4237 15.5354 24.6914 15.2678 24.8252 14.699C22.6839 13.9295 20.3419 13.6618 17.3308 13.6953C14.6207 13.7622 9.73599 14.7659 7.12632 16.3049L7.9293 15.3012C9.76945 14.2306 14.5204 12.8254 18.0668 12.725C20.5761 12.6916 21.881 12.8254 24.8587 13.6284C24.591 13.1265 23.9888 12.8588 23.0854 12.4574C20.2081 11.1525 14.788 11.0522 10.3717 12.9927C10.9404 12.6246 11.4758 12.2901 12.2118 11.9555C13.6839 11.2864 16.0594 10.6507 19.0371 10.6841C21.4126 10.7176 24.2564 11.554 25.9962 13.2603C26.2973 13.5949 26.4646 13.9629 26.5315 14.2641C27.9033 14.9667 28.7062 15.6023 29.1412 16.3719C29.3085 16.7733 29.4088 17.2083 29.3085 17.6767C29.8773 18.0113 30.1449 18.3124 30.446 18.6804C30.6468 18.9815 30.8141 19.3496 30.8475 19.6841C30.9144 20.1191 30.9479 20.5875 30.5129 21.1562C30.9813 21.3904 31.3494 22.0261 31.4163 22.3272C31.617 23.3644 30.9813 24.3681 30.078 25.1711C29.0743 26.0745 26.8326 27.1116 25.026 27.58C21.4126 28.4834 18.2341 28.8849 15.6914 29.3533C16.8289 29.6209 18.368 29.989 20.9107 29.989C26.2973 29.989 31.0483 27.4462 31.0483 27.4462C31.0483 27.4462 30.9479 27.7808 30.8475 28.0819C27.4349 30.1562 21.9813 31.0261 19.6728 30.9258C17.2973 30.8254 15.3233 30.4574 13.3828 29.8551C12.7806 30.0224 12.2118 30.1897 11.6431 30.4574C14.5873 31.7957 16.8289 32.0968 19.3717 32.2975C21.9479 32.4983 26.197 31.8626 29.8103 30.5577C29.643 30.725 29.5761 30.9927 29.4088 31.1265C27.5687 32.0968 23.6542 33.067 21.7137 33.1339C19.7732 33.2009 17.3977 33.1339 15.3233 32.7659C13.5501 32.4313 12.078 31.8626 10.5724 31.1934C10.3048 31.3942 10.1709 31.6618 10.104 31.9629C15.8921 35.041 21.446 35.1079 27.7694 33.1339L27.2007 33.7027C20.2416 36.5131 14.8215 35.409 10.6059 33.4016C10.472 33.3347 10.3048 33.2678 10.1709 33.2009C10.5724 33.87 13.7843 36.212 17.3642 36.5131C19.8401 36.7139 22.8512 36.2789 24.6579 35.5763L23.5873 36.1116C22.7174 36.5466 20.4089 37.5168 17.197 37.2826C12.9144 36.9815 10.5055 35.1079 9.40142 34.1042C8.89956 33.6358 8.66536 33.1005 8.49807 32.4313C7.52781 31.9295 6.92558 31.3942 6.42372 30.6246C6.12261 30.1562 6.18952 29.6544 6.25643 29.2194L6.35681 28.818C5.8884 28.4834 5.42 28.1154 5.21926 27.7473C4.78432 26.9778 5.05197 26.3421 5.35309 25.8068C5.08543 25.5057 4.85123 25.238 4.75086 24.9369C4.65049 24.5689 4.61703 24.2343 4.65049 23.8663C4.7174 23.2306 5.08543 22.6284 5.52037 22.1265C6.45718 21.0559 7.9293 20.2194 10.472 19.383C12.9479 18.58 13.9181 18.4462 15.7918 18.0113C17.9665 17.5094 20.5761 17.3421 22.7509 16.5726C16.6951 15.502 10.3717 16.4722 5.25272 20.0187L5.62075 19.0819ZM26.2639 15.3347C26.197 15.6358 25.8624 15.9704 25.6616 16.2046C26.3308 16.3719 26.9999 16.6061 27.6356 16.8737C27.5352 16.2715 26.8661 15.7027 26.2639 15.3347ZM7.59472 27.4462C7.19324 27.212 6.92558 27.0782 6.62446 26.844C6.45718 27.212 6.79175 27.647 7.12632 27.8477C7.26015 27.7139 7.42744 27.58 7.59472 27.4462ZM28.0371 19.5168C28.472 19.7176 28.8735 19.8849 29.2416 20.1525C29.5092 19.6172 29.3419 19.2826 28.7732 18.8142C28.5724 19.0819 28.3048 19.3161 28.0371 19.5168ZM26.7323 20.3198C25.8624 20.7213 24.5576 21.1562 22.7509 21.6246C21.2787 21.9927 17.6319 22.528 13.7174 23.3644C12.4795 23.6321 9.13376 24.4351 7.49435 25.8068C7.96275 26.1748 8.23041 26.2752 8.76573 26.5429C9.43487 26.1079 10.3717 25.7064 11.7434 25.3384C14.1523 24.7027 15.9256 24.4351 18.1003 24.067C20.2416 23.7325 24.2564 22.896 26.4981 22.093C27.2341 21.8254 27.9033 21.4908 28.4051 21.0893C28.2378 20.9555 26.7992 20.2529 26.7323 20.3198ZM9.86982 29.6544C10.2044 29.4536 10.6059 29.2529 11.0408 29.0856C10.4051 28.818 9.76944 28.5503 9.13376 28.2492C8.83264 28.4165 8.56498 28.6172 8.36424 28.818C8.8661 29.0856 9.3345 29.3867 9.86982 29.6544ZM7.79547 29.8551C7.79547 30.2566 8.02967 30.6246 8.56498 31.0596C8.6319 30.8254 8.73227 30.6916 8.89956 30.4908C8.49807 30.2901 8.1635 30.0559 7.79547 29.8551ZM10.8401 22.4276C15.223 21.1562 19.8401 20.7548 24.5241 19.5168C22.6839 19.015 21.7137 18.8142 19.7732 19.0484C16.9628 19.383 13.8847 19.9852 11.2416 20.7548C10.2044 21.0559 4.75086 22.5949 6.32335 24.7696C6.32335 24.8031 7.26015 23.4983 10.8401 22.4276ZM27.301 17.9443C26.5984 17.6098 25.6951 17.3087 24.7248 17.041C24.2899 17.3756 23.8215 17.6767 23.0854 17.9443C24.2564 18.1451 25.1598 18.4797 26.1635 18.7808C26.3642 18.8812 27.1672 18.1116 27.301 17.9443ZM29.4758 22.16C29.3419 22.2603 29.2081 22.3942 29.0408 22.4945C28.0371 23.2641 26.4646 23.8663 24.2899 24.4685C19.7732 25.673 16.4944 25.8737 12.7471 26.7771C12.0111 26.9443 11.275 27.212 10.5724 27.4797C11.275 27.8477 12.0111 28.1488 12.7806 28.4499C14.2862 28.015 15.0222 27.8142 17.2304 27.4462C18.0668 27.3124 20.6431 26.844 22.5167 26.4425C25.8624 25.7733 30.7806 24.2009 29.4758 22.16Z" fill="#00487C"/>
<path fill-rule="evenodd" clip-rule="evenodd" d="M53.2305 31.8289H56.9442L57.3792 29.1189H59.9219L60.3569 31.8289H64.0706L60.9256 16.0706H56.3085L53.2305 31.8289ZM58.684 20.8215L59.3866 25.6393H58.0149L58.684 20.8215Z" fill="#00487C"/>
<path fill-rule="evenodd" clip-rule="evenodd" d="M67.6169 22.1933C68.2192 22.1933 69.2898 21.8253 69.2898 20.6543C69.2898 19.2825 68.0184 19.1822 67.6838 19.1822C67.2489 19.1822 66.4794 19.2491 65.6764 19.6171L65.6429 16.2045C66.8809 15.9034 67.7842 15.803 68.8214 15.803C71.7991 15.803 73.1708 17.9108 73.1708 19.9517C73.1708 21.9591 71.9998 23.1636 70.8957 23.632V23.7993C71.9664 24.1338 73.405 25.171 73.405 27.5799C73.405 30.5576 71.3307 32.197 68.6876 32.197C67.2489 32.197 66.3455 31.9963 65.2415 31.3941L65.3084 28.1152C66.3455 28.5502 67.0481 28.5836 67.7507 28.5836C68.9218 28.5836 69.3902 27.7138 69.3902 27.0781C69.3902 26.2082 68.8214 25.606 67.5835 25.606H66.0779V22.1933H67.6169Z" fill="#00487C"/>
<path fill-rule="evenodd" clip-rule="evenodd" d="M85.115 31.8289H81.4347V19.8512H78.7916V31.8289H75.1113V16.0706H85.115V31.8289Z" fill="#00487C"/>
<path fill-rule="evenodd" clip-rule="evenodd" d="M87.1895 31.8289H90.8363V26.643H92.0742C95.6876 26.643 96.8251 23.3977 96.8251 21.3233C96.8251 19.2825 95.5538 16.0706 92.0742 16.0706H87.1895V31.8289ZM90.8363 19.5501H91.7062C92.5426 19.5501 93.0445 20.052 93.0445 21.3568C93.0445 23.0631 92.1746 23.1635 91.7062 23.1635H90.8363V19.5501Z" fill="#00487C"/>
<path fill-rule="evenodd" clip-rule="evenodd" d="M103.584 32.0297C107.933 32.0297 109.372 27.9814 109.372 23.9331C109.372 19.8848 107.9 15.8364 103.584 15.8364C99.2341 15.8364 97.7954 19.8848 97.7954 23.9331C97.7954 27.9814 99.2675 32.0297 103.584 32.0297ZM103.584 28.2156C102.312 28.2156 101.643 26.71 101.643 23.9331C101.643 21.1561 102.312 19.6506 103.584 19.6506C104.888 19.6506 105.524 21.1561 105.524 23.9331C105.557 26.71 104.888 28.2156 103.584 28.2156Z" fill="#00487C"/>
<path fill-rule="evenodd" clip-rule="evenodd" d="M125.297 31.8289H129.68C130.617 31.8289 134.565 31.4274 134.598 26.6765C134.598 22.6616 131.52 21.959 129.546 21.959H128.911V19.8847H133.762V16.0706H125.331V31.8289H125.297ZM128.911 28.6839V25.104H129.446C129.881 25.104 131.019 25.1375 131.019 26.7434C131.019 28.4163 129.848 28.6839 129.446 28.6839H128.911Z" fill="#00487C"/>
<path fill-rule="evenodd" clip-rule="evenodd" d="M157.45 31.8289H153.903V25.539H151.327V31.8289H147.747V16.0706H151.327V21.7583H153.903V16.0706H157.45V31.8289Z" fill="#00487C"/>
<path fill-rule="evenodd" clip-rule="evenodd" d="M170.163 16.0706L167.353 23.565L170.565 31.8289H166.349L164.308 25.5055H163.439V31.8289H159.859V16.0706H163.439V21.7583H164.208L166.282 16.0706H170.163Z" fill="#00487C"/>
<path fill-rule="evenodd" clip-rule="evenodd" d="M46.1709 16.0706H53.6653V20.0185H49.8847V31.8289H46.1709V16.0706Z" fill="#00487C"/>
<path fill-rule="evenodd" clip-rule="evenodd" d="M119.208 31.8289V22.2267L117 24.9702L114.792 22.2267V31.8289H111.145V16.0706H114.256L117 19.7843L119.743 16.0706H122.855V31.8289H119.208Z" fill="#00487C"/>
<path fill-rule="evenodd" clip-rule="evenodd" d="M135.301 31.8624H139.015L139.45 29.1523H141.992L142.461 31.8624H146.175L143.03 16.104H138.413L135.301 31.8624ZM140.755 20.8549L141.457 25.6728H140.085L140.755 20.8549Z" fill="#00487C"/>
</g>
<defs>
<clipPath id="clip0_3113_26592">
<rect width="170.565" height="36" fill="white" transform="translate(0 6)"/>
</clipPath>
</defs>
</svg>
