<svg width="200" height="48" viewBox="0 0 200 48" fill="none" xmlns="http://www.w3.org/2000/svg">
<g clip-path="url(#clip0_3113_26030)">
<g clip-path="url(#clip1_3113_26030)">
<path d="M11.2284 17.6108V30.5746H8.0188V25.7593H2.77141V30.6357H-0.438232V17.6726H2.77141V22.8581H8.0188V17.6726H11.2284V17.6108ZM48.2654 30.5738H45.0557V24.0919L42.1545 28.5369H40.3634L37.463 24.0308V30.5738H34.2533V17.6108H36.6606L41.2284 24.5248L45.7963 17.6108H48.2035V30.5746L48.2654 30.5738ZM22.7714 17.0557C17.6477 17.0557 13.512 21.0059 13.512 25.883C13.512 27.6108 14.0059 29.2164 14.932 30.5738H19.3762C18.0188 29.5248 17.1545 27.92 17.1545 26.0678C17.1545 22.981 19.6847 20.4509 22.7714 20.4509C25.8582 20.4509 28.3891 22.981 28.3891 26.0678C28.3891 27.92 27.5248 29.5248 26.1666 30.5738H30.6108C31.475 29.2164 32.0308 27.6108 32.0308 25.883C32.03 21.0059 27.8935 17.0557 22.7714 17.0557Z" fill="#C8102E"/>
<path d="M19.7466 27.3642C20.1787 28.6606 21.3522 29.5867 22.7715 29.5867C24.1916 29.5867 25.3643 28.6606 25.7964 27.3642H19.7466ZM54.1297 20.4509V22.7963H59.8703V25.512H54.1297V27.7345H60.6727V30.512H50.8574V17.5489H60.6727V20.3272H54.1297V20.4509ZM156.475 26.9939C156.475 29.1545 154.747 30.5738 151.845 30.5738H145.302V17.6108H151.475C154.314 17.6108 155.92 18.969 155.92 21.0678C155.92 22.2405 155.241 23.5369 154.129 23.9072C155.673 24.2774 156.475 25.6357 156.475 26.9939ZM148.512 20.2654V22.981H150.92C152.155 22.981 152.833 22.3642 152.833 21.5618C152.833 20.7586 152.155 20.3272 150.92 20.3272H148.512V20.2654ZM153.327 26.5618C153.327 25.7586 152.648 25.3272 151.475 25.3272H148.512V27.92H151.413C152.71 27.92 153.327 27.3642 153.327 26.5618ZM166.413 28.3521H160.919L160.056 30.5738H156.599L162.093 17.6108H165.179L170.673 30.5746H167.216L166.413 28.3521ZM165.364 25.6975L163.636 21.3144L161.907 25.6975H165.364ZM183.698 17.6108V30.5746H181.229L174.994 23.475V30.5738H171.784V17.6108H174.253L180.488 24.8951V17.6108H183.698ZM191.537 25.7594L189.624 27.981V30.6365H186.413V17.6726H189.624V23.5987L194.808 17.6726H198.636L193.698 23.3513L199.068 30.6365H195.056L191.537 25.7594ZM90.9811 30.5738L88.512 26.8084H86.1048V30.5738H82.8333V17.6108H88.512C91.7225 17.6108 93.8823 19.3393 93.8823 22.1786C93.8823 23.8453 93.0799 25.2654 91.7217 26.0678L94.7466 30.5738H90.9811ZM86.043 23.9698H88.451C89.6855 23.9698 90.6727 23.2911 90.6727 22.2413C90.6727 21.1923 89.6847 20.5128 88.451 20.5128H86.043V23.9698ZM99.5619 20.4509V22.7963H105.302V25.512H99.5619V27.7345H106.105V30.512H96.2896V17.5489H106.105V20.3272H99.5619V20.4509ZM120.488 24.0927C120.488 27.92 117.587 30.6357 113.512 30.6357H108.327V17.6726H113.512C117.525 17.6108 120.488 20.2654 120.488 24.0927ZM117.216 24.0927C117.216 22.1168 115.611 20.5746 113.513 20.5746H111.537V27.7345H113.513C115.611 27.6726 117.216 26.1296 117.216 24.0927ZM125.426 17.6108V30.5746H122.216V17.61L125.426 17.6108ZM137.771 20.512H134.068V30.5738H130.858V20.512H127.155V17.6108H137.771V20.512ZM77.5867 25.9441C77.0928 27.1168 76.043 27.8582 74.6229 27.8582C72.5249 27.8582 71.043 26.3144 71.043 24.1545C71.043 21.9939 72.5249 20.4509 74.6237 20.4509C76.043 20.4509 77.0928 21.1296 77.5867 22.3642H80.9811C80.3024 19.4011 77.8952 17.426 74.6237 17.426C70.7345 17.426 67.7723 20.2654 67.7723 24.1545C67.7723 28.0429 70.7345 30.8823 74.6237 30.8823C77.8952 30.8823 80.3024 28.9072 80.9811 25.9441H77.5867Z" fill="#C8102E"/>
</g>
</g>
<defs>
<clipPath id="clip0_3113_26030">
<rect width="200" height="48" fill="white"/>
</clipPath>
<clipPath id="clip1_3113_26030">
<rect width="200" height="14.4578" fill="white" transform="translate(-0.5 16.5)"/>
</clipPath>
</defs>
</svg>
