<svg width="217" height="42" viewBox="0 0 217 42" fill="none" xmlns="http://www.w3.org/2000/svg">
<g clip-path="url(#clip0_3696_11028)">
<path d="M21.1641 0C9.55116 0 0.164062 9.3871 0.164062 21C0.164062 32.6129 9.55116 42 21.1641 42C32.777 42 42.1641 32.6129 42.1641 21C42.1641 9.3871 32.6802 0 21.1641 0ZM18.1641 29.9032L16.6157 34.4516C10.8092 32.5161 6.93826 27 6.93826 20.8065C6.93826 14.6129 10.8092 9.19355 16.7125 7.16129L18.2608 11.7097C14.3899 12.9677 11.8737 16.6452 11.8737 20.7097C11.777 24.9677 14.2931 28.6452 18.1641 29.9032ZM25.4221 34.5484L23.9705 30C27.9383 28.7419 30.5512 25.0645 30.5512 20.9032C30.5512 16.7419 27.9383 13.1613 24.0673 11.9032L25.6157 7.25806C31.5189 9.19355 35.4866 14.7097 35.4866 20.9032C35.3899 27.1935 31.3254 32.7097 25.4221 34.5484Z" fill="white"/>
<path d="M213.358 24.6774L215.681 27.4839C213.262 30 210.262 30.6774 207.842 30.6774C205.52 30.6774 203.874 30.2903 202.423 29.6129C199.326 28.0645 197.778 24.9678 197.778 21.1936C197.778 15.4839 201.649 11.2258 207.358 11.2258C213.745 11.2258 216.842 15.9678 216.358 22.1613H201.842C201.939 23.7097 202.81 25.1613 204.068 25.9355C205.132 26.6129 206.391 26.9032 208.036 26.9032C209.874 27 211.713 26.3226 213.358 24.6774ZM202.036 18.871H212.294C212.003 16.6452 210.165 14.7097 207.261 14.7097C204.165 14.7097 202.326 16.8387 202.036 18.871ZM104.487 30.1936H109.713L101.487 20.6129L109.616 11.6129H104.487L98.2937 18.7742H96.455V11.6129H92.4873V30.0968H96.455V22.742H98.2937L104.487 30.1936ZM121.616 15C118.229 15 116.003 17.6129 116.003 20.9032C116.003 24.1936 118.229 26.8065 121.616 26.8065C125.003 26.8065 127.132 24.2903 127.132 20.9032C127.132 17.7097 125.1 15 121.616 15ZM122.294 11.2258C127.52 11.2258 131.391 15.2903 131.391 20.9032C131.391 26.4194 127.616 30.6774 122.294 30.6774C119.778 30.6774 117.745 29.8065 116.294 28.2581V37.9355H112.229V11.7097H116.197V13.9355C117.745 12.0968 119.681 11.2258 122.294 11.2258ZM174.939 11.7097H158.391V15.3871H164.681V30.1936H168.745V15.3871H175.036V11.7097H174.939ZM89.6808 11.7097H73.1324V15.3871H79.4228V30.1936H83.3905V15.3871H89.6808V11.7097ZM68.197 21C68.197 17.5162 65.7776 15 62.3905 15C59.1002 15 56.584 17.5162 56.584 21C56.584 24.4839 59.0034 27 62.3905 27C65.6808 27 68.197 24.4839 68.197 21ZM52.5195 21C52.5195 15.4839 56.7776 11.3226 62.4873 11.3226C68.197 11.3226 72.455 15.4839 72.455 21C72.455 26.5162 68.197 30.7742 62.4873 30.7742C56.7776 30.7742 52.5195 26.5162 52.5195 21ZM194.584 11.7097V30.1936H190.616V18.2903L180.939 30.1936H177.745V11.7097H181.713V23.6129L191.391 11.7097H194.584ZM155.681 30.1936H151.713V11.7097H155.681V30.1936ZM145.326 23.9032C145.326 22.2581 144.165 21.0968 142.616 21.0968H138.552V26.8065H142.616C144.165 26.8065 145.326 25.5484 145.326 23.9032ZM149.391 23.9032C149.391 27.5807 146.681 30.1936 142.81 30.1936H134.681V11.7097H138.649V17.7097H143.197C146.971 17.7097 149.391 20.1291 149.391 23.9032Z" fill="white"/>
</g>
<defs>
<clipPath id="clip0_3696_11028">
<rect width="216.387" height="42" fill="white" transform="translate(0.164062)"/>
</clipPath>
</defs>
</svg>
