<svg width="200" height="48" viewBox="0 0 200 48" fill="none" xmlns="http://www.w3.org/2000/svg">
<g clip-path="url(#clip0_3113_26100)">
<mask id="mask0_3113_26100" style="mask-type:luminance" maskUnits="userSpaceOnUse" x="-448" y="-872" width="710" height="1015">
<path d="M-447.438 142.059H261.211V-871.309H-447.438V142.059Z" fill="white"/>
</mask>
<g mask="url(#mask0_3113_26100)">
<path d="M21.8484 14.2538C21.8484 11.9063 23.7496 10.0038 26.0971 10.0038C28.4433 10.0038 30.3457 11.9063 30.3457 14.2538C30.3457 16.6012 28.4433 18.5024 26.0971 18.5024C23.7496 18.5024 21.8484 16.6012 21.8484 14.2538Z" fill="#00694F"/>
<path d="M16.7172 12.973C10.8673 12.973 6.12989 17.7142 6.12989 23.5616C6.12989 29.4103 10.8673 34.1502 16.7172 34.1502C22.5646 34.1502 27.3058 29.4103 27.3058 23.5616V23.4316L27.3858 23.5154C27.3858 23.5179 33.3432 23.5216 33.3432 23.5241C33.3432 32.7314 25.8796 40.1951 16.6722 40.1951C7.46362 40.1951 0 32.7314 0 23.5241C0 14.348 7.41487 6.9019 16.581 6.8519L16.7172 12.973Z" fill="#00694F"/>
<path d="M9.43481 23.5742C9.43481 19.5093 12.731 16.2131 16.7959 16.2131C20.8596 16.2131 24.1558 19.5093 24.1558 23.5742C24.1558 27.6404 20.8596 30.9353 16.7959 30.9353C12.731 30.9353 9.43481 27.6404 9.43481 23.5742Z" fill="#67B230"/>
<path d="M79.537 19.6841C80.4158 19.2341 80.9283 18.9941 81.792 18.9941C82.3107 18.9941 83.3282 19.0629 83.9382 20.0316C84.6982 21.2066 84.4057 22.9653 84.097 24.1416C83.567 26.1465 82.437 27.9402 80.7995 28.9077C79.4945 29.6677 78.0946 29.7377 76.8771 29.7715L79.537 19.6841ZM80.7058 14.988L80.5133 14.6767C77.8458 15.228 77.0846 15.3692 74.5146 15.6792L74.2434 15.9217C73.5409 20.0316 73.2584 21.6204 70.6334 31.5689C69.5497 35.6764 68.861 38.0288 67.7272 41.9325C70.3672 42 71.1022 41.965 73.7196 42L73.9721 41.8263L75.8996 33.6064C78.4296 33.5714 81.9295 33.5376 85.4194 30.9114C88.1744 28.839 89.6769 25.904 90.2943 23.5541C91.7443 18.0617 89.2681 14.7467 85.3982 14.7467C83.0157 14.7467 81.4132 15.713 80.2733 16.3717L80.7058 14.988ZM68.591 29.4965C67.9585 29.6677 67.5072 29.8077 66.9198 29.8077C65.1573 29.8077 65.311 28.7027 65.3798 28.1827C65.5123 27.284 66.0135 25.3865 66.4123 24.0041L67.766 19.1341L70.8384 19.2716L71.0997 19.0629L72.4209 15.3692L68.8147 15.1617L70.4497 9.35931C67.7297 9.84181 67.0647 10.0143 64.4473 10.6355L64.2448 10.8768L63.1398 15.1942L61.2936 15.1267L61.0411 15.298L59.7549 18.9941L62.1011 19.1341L60.5499 24.6253C60.2861 25.4903 60.0249 26.3528 59.7861 27.249C58.9499 30.4277 58.1174 33.8489 63.5048 33.8489C64.8523 33.8489 65.9773 33.6414 67.241 33.4326L67.5472 33.1914L68.831 29.6352L68.591 29.4965ZM51.0475 24.2453C50.3 27.0765 49.0913 30.2215 46.2226 30.2215C45.3251 30.2215 44.8126 29.8077 44.4989 29.4277C44.0676 28.839 43.7214 27.6652 44.6064 24.3141C44.8701 23.3116 45.4539 21.1029 46.4614 19.8929C47.2263 18.9579 48.2876 18.3379 49.3926 18.3379C50.36 18.3379 51.0175 18.8567 51.3225 19.4104C51.8863 20.4116 51.5388 22.3803 51.0475 24.2453ZM57.0137 24.2803C57.3712 22.9316 58.8461 17.3367 54.51 15.4342C53.1462 14.8492 51.3675 14.7792 50.47 14.7792C44.4589 14.7792 40.2277 17.9929 38.5515 24.3491C37.9678 26.5578 37.7215 28.8065 38.5065 30.6689C39.049 32.0152 40.2502 33.8839 45.1901 33.8839C52.5125 33.8839 55.6487 29.4615 57.0137 24.2803Z" fill="#00694F"/>
<path d="M91.4205 33.7195L93.8542 33.6857H95.7641C100.244 33.512 104.099 33.2695 107.225 29.6896C109.553 27.0171 110.11 23.6822 110.11 21.9084C110.11 17.5348 107.225 15.2086 103.786 15.2086C101.563 15.2086 100.174 15.9685 98.7153 16.7698L100.313 10.0986L101.285 6.24496L101.113 5.99996L97.3253 6.65995L97.0491 6.90495C96.8379 8.50117 96.7004 9.30116 96.2479 11.4911C95.7266 14.0586 95.1391 16.6973 94.5116 19.3047L93.0879 25.6621L91.2467 33.512L91.4205 33.7195ZM98.1253 19.4797C99.2353 18.7835 100.488 18.0198 102.259 18.0198C104.483 18.0198 106.395 19.2347 106.395 22.3984C106.395 24.6184 105.178 27.7121 102.608 29.4821C100.35 31.0108 97.8478 31.0108 96.0404 31.0108L95.4854 30.9783L98.1253 19.4797Z" fill="#67B230"/>
<path d="M129.865 15.9366L129.689 15.6578L124.899 15.6228C121.702 15.6228 117.221 15.8328 113.991 19.614C112.531 21.3477 111.212 24.3277 111.212 27.0626C111.212 31.3963 114.094 33.8962 117.637 33.8962C120.591 33.8962 122.117 32.6088 122.711 32.125L122.468 33.5125L122.641 33.755L125.904 33.6875L126.149 33.4437C126.843 29.3151 127.086 27.9988 128.304 22.6614L129.865 15.9366ZM123.232 29.4538C122.849 29.7651 122.468 30.1126 122.086 30.3538C121.181 30.9088 120.001 31.1513 119.062 31.1513C115.901 31.1513 114.999 28.4826 114.999 26.8201C114.999 26.6476 115.066 22.1777 118.716 19.684C120.763 18.2965 123.022 18.2278 124.168 18.2278C124.689 18.2278 125.211 18.264 125.732 18.264L123.232 29.4538Z" fill="#67B230"/>
<path d="M146.253 28.8919L146.774 26.5294C147.228 24.5857 147.919 21.527 147.919 19.722C147.919 15.5183 144.169 15.2058 143.023 15.2058C140.141 15.2058 138.404 16.4208 137.047 17.3258L137.534 15.5521L137.361 15.3096C135.693 15.6583 135.311 15.7271 133.681 15.9358L133.434 16.1783C132.879 19.9658 132.703 20.8682 131.767 24.9669L131.214 27.5731L129.788 33.5468L129.962 33.7905L133.504 33.6868L133.749 33.4768C134.861 27.6781 135.276 25.8357 136.561 19.9995C137.603 19.2345 139.029 18.157 141.183 18.157C142.813 18.157 144.1 18.8533 144.1 20.937C144.1 21.772 143.928 22.6045 143.752 23.4045L142.883 27.3281L141.426 33.5468L141.564 33.7905L145.107 33.6868L145.385 33.4768L146.253 28.8919Z" fill="#67B230"/>
<path d="M163.265 18.9581C163.925 18.3681 164.273 18.0194 164.83 17.5669C166.218 16.3869 166.391 16.2482 166.74 15.9357L166.635 15.6219H162.64L162.258 15.8307C161.702 16.4207 158.749 19.4794 157.534 20.6606C156.387 21.7718 155.902 22.2256 155.068 22.9531L157.985 10.552L159.064 6.31335L158.853 6.0696L155.068 6.69584L154.823 6.90459C154.513 8.81456 154.337 9.92579 153.677 13.1207C153.193 15.3444 152.707 17.6019 152.184 19.8606L148.988 33.5479L149.128 33.7554L152.637 33.6854L152.883 33.4766C153.749 28.8917 153.955 27.8505 154.964 23.4393L157.394 28.3717C158.647 30.9054 158.89 31.3929 159.792 33.5479L160.072 33.7554L163.925 33.6504L164.133 33.3741L158.749 23.1268L163.265 18.9581Z" fill="#67B230"/>
<path d="M21.8484 14.2538C21.8484 11.9063 23.7496 10.0038 26.0971 10.0038C28.4433 10.0038 30.3457 11.9063 30.3457 14.2538C30.3457 16.6012 28.4433 18.5024 26.0971 18.5024C23.7496 18.5024 21.8484 16.6012 21.8484 14.2538Z" fill="#00694F"/>
<path d="M16.7172 12.973C10.8673 12.973 6.12989 17.7142 6.12989 23.5616C6.12989 29.4103 10.8673 34.1502 16.7172 34.1502C22.5646 34.1502 27.3058 29.4103 27.3058 23.5616V23.4316L27.3858 23.5154C27.3858 23.5179 33.3432 23.5216 33.3432 23.5241C33.3432 32.7314 25.8796 40.1951 16.6722 40.1951C7.46362 40.1951 0 32.7314 0 23.5241C0 14.348 7.41487 6.9019 16.581 6.8519L16.7172 12.973Z" fill="#00694F"/>
<path d="M9.43481 23.5742C9.43481 19.5093 12.731 16.2131 16.7959 16.2131C20.8596 16.2131 24.1558 19.5093 24.1558 23.5742C24.1558 27.6404 20.8596 30.9353 16.7959 30.9353C12.731 30.9353 9.43481 27.6404 9.43481 23.5742Z" fill="#67B230"/>
<path d="M79.537 19.6841C80.4158 19.2341 80.9283 18.9941 81.792 18.9941C82.3107 18.9941 83.3282 19.0629 83.9382 20.0316C84.6982 21.2066 84.4057 22.9653 84.097 24.1416C83.567 26.1465 82.437 27.9402 80.7995 28.9077C79.4945 29.6677 78.0946 29.7377 76.8771 29.7715L79.537 19.6841ZM80.7058 14.988L80.5133 14.6767C77.8458 15.228 77.0846 15.3692 74.5146 15.6792L74.2434 15.9217C73.5409 20.0316 73.2584 21.6204 70.6334 31.5689C69.5497 35.6764 68.861 38.0288 67.7272 41.9325C70.3672 42 71.1022 41.965 73.7196 42L73.9721 41.8263L75.8996 33.6064C78.4296 33.5714 81.9295 33.5376 85.4194 30.9114C88.1744 28.839 89.6769 25.904 90.2943 23.5541C91.7443 18.0617 89.2681 14.7467 85.3982 14.7467C83.0157 14.7467 81.4132 15.713 80.2733 16.3717L80.7058 14.988ZM68.591 29.4965C67.9585 29.6677 67.5072 29.8077 66.9198 29.8077C65.1573 29.8077 65.311 28.7027 65.3798 28.1827C65.5123 27.284 66.0135 25.3865 66.4123 24.0041L67.766 19.1341L70.8384 19.2716L71.0997 19.0629L72.4209 15.3692L68.8147 15.1617L70.4497 9.35931C67.7297 9.84181 67.0647 10.0143 64.4473 10.6355L64.2448 10.8768L63.1398 15.1942L61.2936 15.1267L61.0411 15.298L59.7549 18.9941L62.1011 19.1341L60.5499 24.6253C60.2861 25.4903 60.0249 26.3528 59.7861 27.249C58.9499 30.4277 58.1174 33.8489 63.5048 33.8489C64.8523 33.8489 65.9773 33.6414 67.241 33.4326L67.5472 33.1914L68.831 29.6352L68.591 29.4965ZM51.0475 24.2453C50.3 27.0765 49.0913 30.2215 46.2226 30.2215C45.3251 30.2215 44.8126 29.8077 44.4989 29.4277C44.0676 28.839 43.7214 27.6652 44.6064 24.3141C44.8701 23.3116 45.4539 21.1029 46.4614 19.8929C47.2263 18.9579 48.2876 18.3379 49.3926 18.3379C50.36 18.3379 51.0175 18.8567 51.3225 19.4104C51.8863 20.4116 51.5388 22.3803 51.0475 24.2453ZM57.0137 24.2803C57.3712 22.9316 58.8461 17.3367 54.51 15.4342C53.1462 14.8492 51.3675 14.7792 50.47 14.7792C44.4589 14.7792 40.2277 17.9929 38.5515 24.3491C37.9678 26.5578 37.7215 28.8065 38.5065 30.6689C39.049 32.0152 40.2502 33.8839 45.1901 33.8839C52.5125 33.8839 55.6487 29.4615 57.0137 24.2803Z" fill="#00694F"/>
<path d="M91.4205 33.7195L93.8542 33.6857H95.7641C100.244 33.512 104.099 33.2695 107.225 29.6896C109.553 27.0171 110.11 23.6822 110.11 21.9084C110.11 17.5348 107.225 15.2086 103.786 15.2086C101.563 15.2086 100.174 15.9685 98.7153 16.7698L100.313 10.0986L101.285 6.24496L101.113 5.99996L97.3253 6.65995L97.0491 6.90495C96.8379 8.50117 96.7004 9.30116 96.2479 11.4911C95.7266 14.0586 95.1391 16.6973 94.5116 19.3047L93.0879 25.6621L91.2467 33.512L91.4205 33.7195ZM98.1253 19.4797C99.2353 18.7835 100.488 18.0198 102.259 18.0198C104.483 18.0198 106.395 19.2347 106.395 22.3984C106.395 24.6184 105.178 27.7121 102.608 29.4821C100.35 31.0108 97.8478 31.0108 96.0404 31.0108L95.4854 30.9783L98.1253 19.4797Z" fill="#67B230"/>
<path d="M129.865 15.9366L129.689 15.6578L124.899 15.6228C121.702 15.6228 117.221 15.8328 113.991 19.614C112.531 21.3477 111.212 24.3277 111.212 27.0626C111.212 31.3963 114.094 33.8962 117.637 33.8962C120.591 33.8962 122.117 32.6088 122.711 32.125L122.468 33.5125L122.641 33.755L125.904 33.6875L126.149 33.4437C126.843 29.3151 127.086 27.9988 128.304 22.6614L129.865 15.9366ZM123.232 29.4538C122.849 29.7651 122.468 30.1126 122.086 30.3538C121.181 30.9088 120.001 31.1513 119.062 31.1513C115.901 31.1513 114.999 28.4826 114.999 26.8201C114.999 26.6476 115.066 22.1777 118.716 19.684C120.763 18.2965 123.022 18.2278 124.168 18.2278C124.689 18.2278 125.211 18.264 125.732 18.264L123.232 29.4538Z" fill="#67B230"/>
<path d="M146.253 28.8919L146.774 26.5294C147.228 24.5857 147.919 21.527 147.919 19.722C147.919 15.5183 144.169 15.2058 143.023 15.2058C140.141 15.2058 138.404 16.4208 137.047 17.3258L137.534 15.5521L137.361 15.3096C135.693 15.6583 135.311 15.7271 133.681 15.9358L133.434 16.1783C132.879 19.9658 132.703 20.8682 131.767 24.9669L131.214 27.5731L129.788 33.5468L129.962 33.7905L133.504 33.6868L133.749 33.4768C134.861 27.6781 135.276 25.8357 136.561 19.9995C137.603 19.2345 139.029 18.157 141.183 18.157C142.813 18.157 144.1 18.8533 144.1 20.937C144.1 21.772 143.928 22.6045 143.752 23.4045L142.883 27.3281L141.426 33.5468L141.564 33.7905L145.107 33.6868L145.385 33.4768L146.253 28.8919Z" fill="#67B230"/>
<path d="M163.265 18.9581C163.925 18.3681 164.273 18.0194 164.83 17.5669C166.218 16.3869 166.391 16.2482 166.74 15.9357L166.635 15.6219H162.64L162.258 15.8307C161.702 16.4207 158.749 19.4794 157.534 20.6606C156.387 21.7718 155.902 22.2256 155.068 22.9531L157.985 10.552L159.064 6.31335L158.853 6.0696L155.068 6.69584L154.823 6.90459C154.513 8.81456 154.337 9.92579 153.677 13.1207C153.193 15.3444 152.707 17.6019 152.184 19.8606L148.988 33.5479L149.128 33.7554L152.637 33.6854L152.883 33.4766C153.749 28.8917 153.955 27.8505 154.964 23.4393L157.394 28.3717C158.647 30.9054 158.89 31.3929 159.792 33.5479L160.072 33.7554L163.925 33.6504L164.133 33.3741L158.749 23.1268L163.265 18.9581Z" fill="#67B230"/>
</g>
</g>
<defs>
<clipPath id="clip0_3113_26100">
<rect width="166.74" height="36" fill="white" transform="translate(0 6)"/>
</clipPath>
</defs>
</svg>
