<svg width="200" height="48" viewBox="0 0 200 48" fill="none" xmlns="http://www.w3.org/2000/svg">
<g clip-path="url(#clip0_3113_26323)">
<path d="M0.325928 22.7861V41.9309H6.21684V22.7861C6.21684 17.0933 10.8311 12.4764 16.5266 12.4764H29.7805V19.8393C29.7805 25.5322 25.1662 30.1491 19.4707 30.1491H9.16095V36.04H19.4707C28.4181 36.04 35.6714 28.7868 35.6714 19.8393V8.06019C35.6714 7.24655 35.013 6.58813 34.1993 6.58813H16.5266C7.57916 6.58813 0.325928 13.8414 0.325928 22.7888V22.7861Z" fill="#FF0078"/>
<path d="M70.6395 15.185C70.6395 15.45 70.6181 15.7149 70.5887 15.9799H61.0256C61.3281 17.8882 62.7038 19.0632 64.6308 19.0632C66.0387 19.0632 67.1788 18.4128 67.8025 17.3369H70.3531C69.4164 19.8233 67.2645 21.3329 64.6335 21.3329C61.1889 21.3329 58.5793 18.6751 58.5793 15.1556C58.5793 11.636 61.1809 8.97827 64.6335 8.97827C68.0862 8.97827 70.6395 11.7564 70.6395 15.185ZM64.6335 11.1676C62.8108 11.1676 61.486 12.265 61.0872 14.0127H68.212C67.7784 12.2222 66.4294 11.1676 64.6335 11.1676Z" fill="#323E48"/>
<path d="M82.6889 9.26733V21.0492H80.2988V16.1191H74.8469V21.0492H72.4568V9.26733H74.8469V13.8842H80.2988V9.26733H82.6889Z" fill="#323E48"/>
<path d="M96.5611 15.185C96.5611 15.45 96.5397 15.7149 96.5103 15.9799H86.9473C87.2497 17.8882 88.6254 19.0632 90.5525 19.0632C91.9603 19.0632 93.1005 18.4128 93.7241 17.3369H96.2748C95.338 19.8233 93.1861 21.3329 90.5552 21.3329C87.1105 21.3329 84.501 18.6751 84.501 15.1556C84.501 11.636 87.1025 8.97827 90.5552 8.97827C94.0078 8.97827 96.5611 11.7564 96.5611 15.185ZM90.5552 11.1676C88.7325 11.1676 87.4076 12.265 87.0088 14.0127H94.1336C93.7 12.2222 92.3511 11.1676 90.5552 11.1676Z" fill="#323E48"/>
<path d="M103.897 21.3355C100.388 21.3355 97.7227 18.6644 97.7227 15.1449C97.7227 11.6253 100.38 8.97827 103.903 8.97827C106.815 8.97827 109.09 10.7608 109.745 13.464H107.345C106.724 12.1097 105.431 11.2907 103.897 11.2907C101.778 11.2907 100.188 12.9662 100.188 15.1502C100.188 17.3342 101.799 19.0231 103.897 19.0231C105.439 19.0231 106.689 18.1907 107.329 16.7588H109.772C109.124 19.5129 106.804 21.3355 103.897 21.3355Z" fill="#323E48"/>
<path d="M116.924 21.3355C113.415 21.3355 110.749 18.6644 110.749 15.1449C110.749 11.6253 113.407 8.97827 116.929 8.97827C119.841 8.97827 122.116 10.7608 122.772 13.464H120.371C119.75 12.1097 118.46 11.2907 116.924 11.2907C114.804 11.2907 113.214 12.9662 113.214 15.1502C113.214 17.3342 114.825 19.0231 116.924 19.0231C118.465 19.0231 119.715 18.1907 120.355 16.7588H122.798C122.151 19.5129 119.83 21.3355 116.924 21.3355Z" fill="#323E48"/>
<path d="M136.371 9.26199V21.0438H134.417L134.182 19.6119C133.114 20.6905 131.625 21.3382 129.91 21.3382C126.401 21.3382 123.775 18.6858 123.775 15.1529C123.775 11.62 126.401 8.98096 129.91 8.98096C131.647 8.98096 133.151 9.63669 134.219 10.734L134.503 9.25931H136.371V9.26199ZM133.943 15.1529C133.943 12.9314 132.321 11.2881 130.1 11.2881C127.878 11.2881 126.24 12.9475 126.24 15.1529C126.24 17.3583 127.878 19.0177 130.1 19.0177C132.321 19.0177 133.943 17.3744 133.943 15.1529Z" fill="#323E48"/>
<path d="M149.189 9.26733V21.0492H146.798V16.1191H141.347V21.0492H138.956V9.26733H141.347V13.8842H146.798V9.26733H149.189Z" fill="#323E48"/>
<path d="M157.178 21.3355C153.669 21.3355 151.003 18.6644 151.003 15.1449C151.003 11.6253 153.661 8.97827 157.183 8.97827C160.095 8.97827 162.37 10.7608 163.026 13.464H160.625C160.004 12.1097 158.714 11.2907 157.178 11.2907C155.058 11.2907 153.468 12.9662 153.468 15.1502C153.468 17.3342 155.079 19.0231 157.178 19.0231C158.719 19.0231 159.969 18.1907 160.609 16.7588H163.053C162.405 19.5129 160.084 21.3355 157.178 21.3355Z" fill="#323E48"/>
<path d="M55.4265 11.2051C55.4265 9.74911 54.3478 8.67585 52.8008 8.67585H49.9424V13.7344H52.8008C54.3478 13.7344 55.4265 12.6611 55.4265 11.2051ZM57.9557 11.2051C57.9557 13.9967 55.7958 16.087 52.9186 16.087H49.9397V21.0492H47.4532V6.32056H52.9186C55.7797 6.32056 57.9557 8.3975 57.9557 11.2024V11.2051Z" fill="#323E48"/>
<path d="M71.579 29.8789V41.6607H69.6252L69.3896 40.2288C68.3217 41.3075 66.8336 41.9552 65.118 41.9552C61.6091 41.9552 58.9835 39.3028 58.9835 35.7698C58.9835 32.2369 61.6091 29.5979 65.118 29.5979C66.855 29.5979 68.3592 30.2536 69.4271 31.351L69.7108 29.8763H71.579V29.8789ZM69.1514 35.7698C69.1514 33.5484 67.5295 31.905 65.308 31.905C63.0865 31.905 61.4486 33.5644 61.4486 35.7698C61.4486 37.9752 63.0865 39.6347 65.308 39.6347C67.5295 39.6347 69.1514 37.9913 69.1514 35.7698Z" fill="#323E48"/>
<path d="M84.3966 29.8843V41.6661H82.0065V36.736H76.5545V41.6661H74.1644V29.8843H76.5545V34.5012H82.0065V29.8843H84.3966Z" fill="#323E48"/>
<path d="M86.9794 29.8843H89.4016V41.6661H86.9794V29.8843ZM97.1232 41.6661H94.2112L89.5943 35.6574V35.454L93.9382 29.8843H96.6869L92.2386 35.5182L97.1232 41.6661Z" fill="#323E48"/>
<path d="M55.2445 37.0171C55.2445 35.6789 54.2435 34.7474 52.8223 34.7474H49.921V39.3135H52.8062C54.2274 39.3135 55.2445 38.3473 55.2445 37.0171ZM57.7871 37.0171C57.7871 39.7177 55.7744 41.6661 53.0043 41.6661H47.4559V26.9402H56.679V29.25H49.921V32.4029H53.031C55.8145 32.4029 57.7871 34.3326 57.7871 37.0171Z" fill="#323E48"/>
</g>
<defs>
<clipPath id="clip0_3113_26323">
<rect width="163.8" height="36" fill="white" transform="translate(0 6)"/>
</clipPath>
</defs>
</svg>
