<svg width="200" height="48" viewBox="0 0 200 48" fill="none" xmlns="http://www.w3.org/2000/svg">
<g clip-path="url(#clip0_3113_26297)">
<path d="M58.7986 43.9922H0L5.32917 26.5625H64.127L58.7986 43.9922Z" fill="#00AEC7"/>
<path d="M25.0842 20.0279V9.12878H29.8753V12.7387H32.0785V9.12878H36.8688V20.0279H32.0785V16.4164H29.8753V20.0279H25.0842ZM48.7916 13.9675L50.6111 9.12878H45.9396L44.4853 12.7395H43.6289V9.12878H38.8378V20.0287H43.6289V16.4172H44.7737L46.2288 20.0287H51.0102L48.7916 13.9675ZM57.7888 16.7081C56.6326 16.7081 56.3612 15.804 56.3612 15.0995C56.3612 14.3982 56.6326 13.5151 57.7888 13.5151C58.9215 13.5151 59.1938 14.3982 59.1938 15.0995C59.1938 15.804 58.9215 16.7081 57.7888 16.7081ZM59.5113 10.3423C58.0603 10.3423 57.0641 10.9071 56.3846 11.6334C56.4072 10.7043 57.0859 9.72989 58.015 9.34611C59.6236 8.66502 61.4819 9.1409 62.7964 7.98474V4.00806C62.7964 4.00806 61.6726 4.46939 59.5994 4.71339C58.3536 4.86043 56.5866 5.25632 55.0248 6.2412C53.0753 7.46442 51.6937 9.48104 51.6937 13.5595C51.6937 18.8847 54.7744 20.3793 57.9472 20.3793C61.0739 20.3793 63.8613 18.7942 63.8613 15.3039C63.8613 11.9509 61.8673 10.3423 59.5113 10.3423ZM16.8351 16.5537C16.1767 16.5537 15.6313 16.1667 15.4269 15.7814V13.3745C15.6539 12.9883 16.1767 12.6029 16.8351 12.6029C17.9921 12.6029 18.4922 13.6015 18.4922 14.5783C18.4922 14.6995 18.4842 14.8231 18.468 14.9427C18.3581 15.7886 17.8475 16.5537 16.8351 16.5537ZM23.419 14.5783C23.419 11.8976 22.2023 9.36389 19.4601 8.85731C19.3979 8.846 19.3349 8.8355 19.2703 8.82661C19.1095 8.80318 18.9431 8.7846 18.771 8.77571C18.6571 8.76925 18.5415 8.76601 18.4236 8.76601C18.3226 8.76601 18.2232 8.76844 18.1238 8.77409C18.1198 8.77409 18.1165 8.77409 18.1117 8.77571C17.2351 8.82742 16.4659 9.1005 15.8794 9.51093C15.4746 9.78079 15.132 10.1032 14.8597 10.4449L14.4566 9.12878H10.6584V24.3819H15.4495V19.3694C15.7856 19.67 16.209 19.9293 16.7188 20.1103C17.1931 20.3026 17.7384 20.3915 18.4236 20.3915C21.8985 20.3915 23.419 17.575 23.419 14.5783Z" fill="#333F48"/>
</g>
<defs>
<clipPath id="clip0_3113_26297">
<rect width="64.127" height="40" fill="white" transform="translate(0 4)"/>
</clipPath>
</defs>
</svg>
