<svg width="253" height="42" viewBox="0 0 253 42" fill="none" xmlns="http://www.w3.org/2000/svg">
<g clip-path="url(#clip0_3696_10969)">
<path d="M112.789 12.183L118.04 8.25854H100.455V31.7695H118.04V27.8417H105.478V21.841H116.215V17.9165H105.478V12.183H112.789Z" fill="white"/>
<path d="M87.1697 17.4145H81.0776V12.183H90.8236L96.0779 8.25854H76.0547V31.7695H86.521C92.3849 31.7695 95.7715 29.0738 95.7715 24.3801C95.7715 19.8787 92.7271 17.4145 87.1697 17.4145ZM86.332 27.8417H81.0776V21.339H86.332C89.5295 21.339 91.0126 22.4179 91.0126 24.6116C91.0126 26.8052 89.4155 27.8417 86.332 27.8417Z" fill="white"/>
<path d="M132.278 8.25854H122.725V31.7695H127.748V25.1103H132.317C138.406 25.1103 142.213 21.8801 142.213 16.6844C142.213 11.4887 138.406 8.25854 132.278 8.25854ZM132.164 21.1858H127.712V12.183H132.164C135.401 12.183 137.151 13.7997 137.151 16.6844C137.151 19.5691 135.401 21.1858 132.164 21.1858Z" fill="white"/>
<path d="M67.4486 26.688C66.1187 27.4213 64.6324 27.806 63.1102 27.806C58.5795 27.806 55.3069 24.5334 55.3069 20.032C55.3069 15.5306 58.5795 12.2581 63.1102 12.2581C64.7465 12.2222 66.3469 12.76 67.6768 13.7216L71.2949 11.0292L71.0667 10.7978C68.9741 8.91053 66.1546 7.94897 62.957 7.94897C59.4954 7.94897 56.3337 9.14196 54.052 11.2965C51.7671 13.5293 50.473 16.6454 50.548 19.8788C50.5089 23.1481 51.7671 26.3033 54.052 28.6111C56.4477 30.883 59.6453 32.1542 62.9211 32.0759C66.536 32.0759 69.6944 30.8047 71.8262 28.497L68.5927 26.0719L67.4486 26.688Z" fill="white"/>
<path d="M202.625 8.29766V31.8053H207.648V22.1865H218.346V31.8053H223.372V8.29766H218.346V17.9556H207.648V8.29766H202.625ZM193.984 31.8053H199.274L189.454 8.29766H184.352L174.342 31.8053H179.404L181.422 27.0725H192.081L193.984 31.8053ZM182.944 23.148L186.826 13.7215L190.48 23.148H182.944ZM234.64 22.3038H237.76L245.449 31.7695H251.919L241.642 19.6082L250.625 8.25854H244.878L237.417 18.3402H234.64V8.25854H229.614V31.7695H234.64V22.3038ZM157.745 17.4537V12.2221H170.878V8.29766H152.719V31.8053H163.188C169.049 31.8053 172.439 29.113 172.439 24.4192C172.439 19.9178 169.394 17.4537 163.834 17.4537H157.745ZM157.745 27.8809V21.3781H162.999C166.194 21.3781 167.68 22.457 167.68 24.6507C167.68 26.8443 166.119 27.92 162.999 27.92H157.745V27.8809Z" fill="white"/>
<path d="M34.8281 8.10535C35.7408 9.29833 36.5035 10.6054 37.1489 11.9907L19.5638 25.1103L12.1777 20.4166V14.8004L19.5247 19.455L34.8281 8.10535Z" fill="white"/>
<path d="M4.67711 20.0319C4.67711 19.7614 4.67711 19.5332 4.71623 19.2627L0.263724 19.0312C0.263724 19.3409 0.224609 19.6864 0.224609 19.9928C0.224609 25.3808 2.39545 30.2668 5.89617 33.8067L9.05465 30.6123C6.35251 27.92 4.67711 24.1878 4.67711 20.0319Z" fill="white"/>
<path d="M19.5245 5.02508C19.7918 5.02508 20.02 5.02508 20.2873 5.06419L20.5154 0.562795C20.209 0.562795 19.8668 0.523682 19.5637 0.523682C14.2343 0.523682 9.40047 2.71734 5.89648 6.25718L9.05496 9.45151C11.7212 6.72003 15.4501 5.02508 19.5245 5.02508Z" fill="white"/>
<path d="M19.5241 35.0387C19.2568 35.0387 19.0287 35.0387 18.7614 34.9996L18.5332 39.501C18.8396 39.501 19.1818 39.5401 19.485 39.5401C24.8143 39.5401 29.6514 37.3465 33.1522 33.8066L29.9937 30.6123C27.3274 33.3829 23.6344 35.0387 19.5241 35.0387Z" fill="white"/>
<path d="M27.8971 7.64253L31.6652 4.83282C28.3535 2.14046 24.1291 0.484619 19.5234 0.484619V4.98602C22.6461 5.02513 25.5373 5.98669 27.8971 7.64253Z" fill="white"/>
<path d="M38.8626 20.032C38.8626 18.839 38.7486 17.6851 38.5563 16.5312L34.4069 19.6474C34.4069 19.7614 34.4069 19.9179 34.4069 20.032C34.4069 24.4584 32.5033 28.422 29.498 31.1535L32.5033 34.501C36.3887 30.9611 38.8626 25.7655 38.8626 20.032Z" fill="white"/>
<path d="M19.5235 35.0388C15.146 35.0388 11.2248 33.1157 8.52261 30.0746L5.21094 33.1157C8.75078 37.0793 13.8519 39.5402 19.5235 39.5402V35.0388Z" fill="white"/>
<path d="M9.58921 8.91051L6.58067 5.56299C2.65947 9.14194 0.224609 14.2985 0.224609 20.032H4.67711C4.67711 15.6447 6.58067 11.6453 9.58921 8.91051Z" fill="white"/>
</g>
<defs>
<clipPath id="clip0_3696_10969">
<rect width="252" height="42" fill="white" transform="translate(0.111328)"/>
</clipPath>
</defs>
</svg>
