<svg width="200" height="48" viewBox="0 0 200 48" fill="none" xmlns="http://www.w3.org/2000/svg">
<g clip-path="url(#clip0_3113_26480)">
<path d="M10.2754 15.0821L8.13711 19.7087L11.6184 21.2133L11.5935 23.6243L0.501221 25.1714V31.9897C0.501221 31.9897 8.61487 31.8772 13.6872 26.9967C17.9482 22.8986 15.6642 19.4771 12.0913 19.8678C11.9937 19.8759 11.9759 19.7858 12.1063 19.7534C14.1858 19.2936 18.0825 19.3685 19.4165 23.6667C20.689 27.7648 17.6118 31.9897 17.6118 31.9897H22.918V9.4187L10.2754 15.0821Z" fill="#DC0533"/>
<path d="M0.500244 31.9894H0.50615C0.75306 31.9852 8.69435 31.8012 13.6873 26.997C17.9484 22.8984 15.6644 19.4773 12.0915 19.869C11.9938 19.8761 11.976 19.787 12.1053 19.7537C14.1851 19.2934 18.0818 19.3687 19.4158 23.6674C20.688 27.7646 17.6119 31.9894 17.6119 31.9894H22.9182V9.41895L10.2747 15.0819L8.13612 19.7089L11.6177 21.2141L11.5936 23.6245L0.500244 25.1716V31.9894Z" fill="#DC0533"/>
<path d="M9.72975 14.4101C5.47187 18.5096 7.75459 21.9302 11.3267 21.5381C11.4252 21.5323 11.4413 21.6205 11.3117 21.6543C9.23303 22.1146 5.33555 22.0374 4.0016 17.7406C2.72916 13.6434 5.80655 9.41895 5.80655 9.41895H0.5V26.7321C3.92286 27.3038 6.97823 27.1051 10.6279 25.3608C14.2775 23.6164 14.3791 20.5942 11.6233 20.5942C9.03806 20.5942 8.1929 18.8174 10.9593 16.618C14.5724 13.7487 22.9179 14.9156 22.9179 14.9156V9.41895C22.9179 9.41895 14.8044 9.5312 9.72975 14.4101Z" fill="#DC0533"/>
<path d="M0.500244 9.41895V26.7321C3.92197 27.3048 6.9782 27.1061 10.6279 25.3608C14.2789 23.6155 14.3782 20.5942 11.6236 20.5942C9.03803 20.5942 8.19286 18.8165 10.9595 16.618C14.5723 13.7487 22.9182 14.9156 22.9182 14.9156V9.41895C22.9182 9.41895 14.8043 9.53011 9.73 14.4101C5.47098 18.5096 7.75484 21.9302 11.3258 21.5381C11.4255 21.5309 11.4404 21.6205 11.312 21.6543C9.23328 22.1146 5.3358 22.0374 4.00156 17.7406C2.7294 13.6434 5.80565 9.41895 5.80565 9.41895H0.500244Z" fill="#DC0533"/>
<path d="M30.1592 21.0636C30.1592 16.9622 33.3528 13.6431 37.4996 13.6431C39.6228 13.6431 41.3522 14.425 42.5825 15.6047L40.752 18.2753C39.8868 17.5225 38.9202 17.0656 37.7044 17.0656C35.61 17.0656 33.8508 18.7618 33.8508 21.0636C33.8508 23.3364 35.61 25.0312 37.7044 25.0312C38.964 25.0312 39.9303 24.5452 40.7657 23.8514L42.5975 26.5082C41.3522 27.658 39.5802 28.4694 37.5284 28.4694C33.2803 28.4694 30.1592 25.1055 30.1592 21.0636Z" fill="black"/>
<path d="M58.5264 28.0419H54.8052V19.4254L48.3881 28.0419H44.989V13.9827H48.7106V22.0517L54.8776 13.9827H58.5264V28.0419Z" fill="black"/>
<path d="M61.2175 28.0419V13.9827H64.954V19.1014H71.0047V13.9827H74.725V28.0419H71.0047V22.4653H64.954V28.0419H61.2175Z" fill="black"/>
<path d="M88.051 21.0345C88.051 18.7765 86.38 17.1546 84.2707 17.1546C82.1614 17.1546 80.5633 18.7765 80.5633 21.0345C80.5633 23.2911 82.1614 24.8849 84.2707 24.8849C86.3662 24.8849 88.051 23.2911 88.051 21.0345ZM88.3583 13.9823H91.5521V28.042H88.3436L88.1234 26.3896C87.0833 27.5998 85.6325 28.3955 83.788 28.3955C79.993 28.3955 76.8721 25.1355 76.8721 21.0193C76.8721 16.9331 80.0077 13.6426 83.788 13.6426C85.6325 13.6426 87.0833 14.4397 88.1234 15.6499L88.3583 13.9823Z" fill="black"/>
<path d="M105.257 21.0345C105.257 18.7765 103.661 17.1546 101.55 17.1546C99.4399 17.1546 97.7694 18.7765 97.7694 21.0345C97.7694 23.2911 99.4547 24.8849 101.55 24.8849C103.661 24.8849 105.257 23.2911 105.257 21.0345ZM108.948 21.0193C108.948 25.1355 105.828 28.3955 102.034 28.3955C100.348 28.3955 99.0011 27.7323 97.9905 26.6993V33.2789H94.2693V13.9823H97.403L97.6532 15.709C98.6933 14.4688 100.158 13.6426 102.034 13.6426C105.814 13.6426 108.948 16.9331 108.948 21.0193Z" fill="black"/>
<path d="M121.739 21.0345C121.739 18.7765 120.068 17.1546 117.959 17.1546C115.85 17.1546 114.252 18.7765 114.252 21.0345C114.252 23.2911 115.85 24.8849 117.959 24.8849C120.054 24.8849 121.739 23.2911 121.739 21.0345ZM122.047 13.9823H125.241V28.042H122.032L121.813 26.3896C120.772 27.5998 119.322 28.3955 117.476 28.3955C113.681 28.3955 110.561 25.1355 110.561 21.0193C110.561 16.9331 113.696 13.6426 117.476 13.6426C119.322 13.6426 120.772 14.4397 121.813 15.6499L122.047 13.9823Z" fill="black"/>
<path d="M144.058 21.137C144.058 18.2157 141.802 15.9587 138.944 15.9587C136.058 15.9587 133.788 18.2157 133.788 21.137C133.788 24.0735 136.058 26.3 138.944 26.3C141.802 26.3 144.058 24.0735 144.058 21.137ZM146.314 21.1518C146.314 25.2237 143.105 28.4394 138.916 28.4394C134.725 28.4394 131.547 25.2094 131.547 21.1518V21.137V16.1655C131.547 10.5897 134.169 7.84489 138.109 7.35866C140.936 6.97443 141.977 6.70904 143.34 6L143.925 7.80049C142.33 8.68572 140.775 8.95145 138.329 9.30556C135.56 9.71842 133.685 11.6062 133.685 16.2389V16.7711C134.813 14.8676 136.777 13.8346 138.988 13.8346C143.105 13.8346 146.314 17.0651 146.314 21.1518Z" fill="black"/>
<path d="M159.144 21.1225C159.144 18.2018 157.356 16.0324 154.676 16.0324C151.98 16.0324 150.222 18.2018 150.222 21.1225C150.222 24.059 151.98 26.1831 154.662 26.1831C157.356 26.1831 159.144 24.059 159.144 21.1225ZM158.968 14.1589H161.254V28.0419H159.041V25.9316C158.03 27.422 156.477 28.3806 154.456 28.3806C150.705 28.3806 147.98 25.1945 147.98 21.1073C147.98 17.0502 150.705 13.834 154.44 13.834C156.434 13.834 157.958 14.7493 158.968 16.1663V14.1589Z" fill="black"/>
<path d="M163.938 28.0425V14.1582H166.209V19.9135H174.164V14.1582H176.436V28.0425H174.164V21.978H166.209V28.0425H163.938Z" fill="black"/>
<path d="M178.816 28.0425V14.1582H181.073V19.8825H183.812L187.607 14.1582H190.245L185.614 20.8574L190.949 28.0425H188.325L183.842 22.0824H181.073V28.0425H178.816Z" fill="black"/>
<path d="M94.4609 41.8669H95.1656V39.7847H97.9754V41.8669H98.6848V37.157H97.9754V39.1434H95.1656V37.157H94.4609V41.8669Z" fill="black"/>
<path d="M102.257 41.9898C103.599 41.9898 104.667 40.903 104.667 39.5298C104.667 38.148 103.599 37.0569 102.262 37.0569C100.921 37.0569 99.8569 38.148 99.8569 39.5298C99.8569 40.903 100.921 41.9898 102.257 41.9898ZM100.562 39.5255C100.562 38.5115 101.321 37.7297 102.266 37.7297C103.203 37.7297 103.962 38.5115 103.962 39.5255C103.962 40.5437 103.203 41.3165 102.266 41.3165C101.321 41.3165 100.562 40.5437 100.562 39.5255Z" fill="black"/>
<path d="M105.836 41.8672H108.137C108.937 41.8672 109.669 41.4122 109.669 40.5393C109.669 39.9666 109.26 39.4892 108.728 39.362C109.11 39.2252 109.414 38.8207 109.414 38.389C109.414 37.6386 108.837 37.1521 107.927 37.1521H105.836V41.8672ZM106.55 41.2621V39.6845H108.046C108.555 39.6845 108.964 40.0028 108.964 40.4712C108.964 40.9715 108.551 41.2621 108.1 41.2621H106.55ZM106.55 39.148V37.7525H107.914C108.401 37.7525 108.719 38.0479 108.719 38.4481C108.719 38.8436 108.346 39.148 107.905 39.148H106.55Z" fill="black"/>
<path d="M112.922 41.9898C114.263 41.9898 115.332 40.903 115.332 39.5298C115.332 38.148 114.263 37.0569 112.926 37.0569C111.586 37.0569 110.522 38.148 110.522 39.5298C110.522 40.903 111.586 41.9898 112.922 41.9898ZM111.226 39.5255C111.226 38.5115 111.985 37.7297 112.931 37.7297C113.868 37.7297 114.627 38.5115 114.627 39.5255C114.627 40.5437 113.868 41.3165 112.931 41.3165C111.985 41.3165 111.226 40.5437 111.226 39.5255Z" fill="black"/>
<path d="M118.479 41.985C119.197 41.985 119.788 41.7168 120.234 41.2984L119.861 40.78C119.529 41.1078 119.061 41.3213 118.515 41.3213C117.665 41.3213 116.988 40.6985 116.878 39.7709H120.493C120.506 39.6756 120.511 39.5936 120.511 39.5117C120.511 38.098 119.67 37.0569 118.351 37.0569C117.092 37.0569 116.178 38.1523 116.178 39.5298C116.178 40.8939 117.169 41.985 118.479 41.985ZM116.892 39.13C117.028 38.2843 117.61 37.7206 118.374 37.7206C119.129 37.7206 119.665 38.2752 119.792 39.13H116.892Z" fill="black"/>
<path d="M128.107 41.8669V37.157H127.421L124.616 40.7029V37.157H123.915V41.8669H124.57L127.398 38.2386V41.8669H128.107Z" fill="black"/>
<path d="M129.039 41.8669H129.749L130.167 38.2205L131.622 41.8669H132.19L133.645 38.2205L134.059 41.8669H134.768L134.199 37.157H133.381L131.904 40.8849L130.417 37.157H129.603L129.039 41.8669Z" fill="black"/>
<path d="M139.173 41.8669V37.157H137.14C136.176 37.157 135.49 37.7888 135.49 38.666C135.49 39.3802 135.895 39.7981 136.39 40.012L135.376 41.8669H136.176L137.054 40.1845C137.145 40.194 137.24 40.1983 137.331 40.1983H138.464V41.8669H139.173ZM136.176 38.6845C136.176 38.1571 136.568 37.7616 137.158 37.7616H138.464V39.6256H137.209C136.568 39.6256 136.176 39.1982 136.176 38.6845Z" fill="black"/>
<path d="M145.893 41.971C146.752 41.971 147.493 41.6351 148.057 41.1529L147.638 40.5845C147.12 41.0028 146.561 41.2482 145.893 41.2482C144.506 41.2482 143.364 40.1299 143.364 38.6753C143.364 37.2158 144.506 36.0928 145.893 36.0928C146.561 36.0928 147.17 36.352 147.629 36.7336L148.057 36.1747C147.493 35.6878 146.752 35.3743 145.893 35.3743C144.056 35.3743 142.605 36.8199 142.605 38.6705C142.605 40.5163 144.056 41.971 145.893 41.971Z" fill="black"/>
<path d="M149.276 41.8668H150.031V38.8569L151.371 38.8527L153.454 41.8668H154.313L151.94 38.5025L154.191 35.4792H153.327L151.371 38.1708L150.031 38.1751V35.4792H149.276V41.8668Z" fill="black"/>
<path d="M155.35 41.8668H157.755C158.987 41.8668 159.719 41.1349 159.719 40.021C159.719 38.9256 158.946 38.2251 157.76 38.2251H156.059V36.1611H159.046V35.4792H155.35V41.8668ZM156.059 41.2031V38.816H157.75C158.455 38.816 159.005 39.2572 159.005 40.021C159.005 40.7847 158.555 41.2031 157.746 41.2031H156.059Z" fill="black"/>
<path d="M160.632 39.798H163.487V39.1348H160.632V39.798Z" fill="black"/>
<path d="M164.692 38.025V39.5301C164.692 40.8986 165.774 41.9897 167.193 41.9897C168.62 41.9897 169.707 40.9029 169.707 39.5301C169.707 38.1522 168.62 37.0568 167.211 37.0568C166.433 37.0568 165.747 37.4342 165.37 38.1117V38.034C165.37 36.5746 166.065 36.0019 166.938 35.8885C167.706 35.7884 168.216 35.7017 168.77 35.4153L168.579 34.8469C168.111 35.0833 167.756 35.1652 166.829 35.2791C165.633 35.4244 164.692 36.243 164.692 38.025ZM165.392 39.5254C165.392 38.5024 166.193 37.7162 167.202 37.7162C168.207 37.7162 169.002 38.5024 169.002 39.5254C169.002 40.5531 168.207 41.3303 167.202 41.3303C166.193 41.3303 165.392 40.5531 165.392 39.5254Z" fill="black"/>
<path d="M172.773 41.976C173.491 41.976 174.032 41.6258 174.382 41.1078V41.8669H175.074V39.6436H175.078V37.1569H174.368V37.9021C174.023 37.3976 173.487 37.0569 172.773 37.0569C171.491 37.0569 170.559 38.1432 170.559 39.5164C170.559 40.8939 171.486 41.976 172.773 41.976ZM171.263 39.5212C171.263 38.5068 171.882 37.7387 172.823 37.7387C173.769 37.7387 174.414 38.5068 174.414 39.5212C174.414 40.5394 173.769 41.2941 172.818 41.2941C171.877 41.2941 171.263 40.5394 171.263 39.5212Z" fill="black"/>
<path d="M176.573 41.8669H177.278V39.7847H180.087V41.8669H180.796V37.157H180.087V39.1434H177.278V37.157H176.573V41.8669Z" fill="black"/>
<path d="M182.291 41.8669H182.997V39.8028H183.987L185.556 41.8669H186.38L184.534 39.4297L186.143 37.157H185.31L183.974 39.13H182.997V37.157H182.291V41.8669Z" fill="black"/>
<path d="M188.783 41.976C189.502 41.976 190.042 41.6258 190.393 41.1078V41.8669H191.083V39.6436H191.088V37.1569H190.379V37.9021C190.033 37.3976 189.496 37.0569 188.783 37.0569C187.5 37.0569 186.569 38.1432 186.569 39.5164C186.569 40.8939 187.497 41.976 188.783 41.976ZM187.273 39.5212C187.273 38.5068 187.892 37.7387 188.833 37.7387C189.779 37.7387 190.424 38.5068 190.424 39.5212C190.424 40.5394 189.779 41.2941 188.829 41.2941C187.887 41.2941 187.273 40.5394 187.273 39.5212Z" fill="black"/>
</g>
<defs>
<clipPath id="clip0_3113_26480">
<rect width="192" height="36" fill="white" transform="translate(0 6)"/>
</clipPath>
</defs>
</svg>
