<svg width="200" height="48" viewBox="0 0 200 48" fill="none" xmlns="http://www.w3.org/2000/svg">
<g clip-path="url(#clip0_3113_28740)">
<path d="M39.3817 16.0237C42.157 16.0237 44.4054 17.2533 45.354 18.1667L43.7731 20.0989C43.0002 19.3962 41.2788 18.4477 39.3817 18.4477C35.9037 18.4477 33.7256 20.8366 33.7256 24.1038C33.7256 27.3709 35.7984 29.7598 39.4168 29.7598C41.5247 29.7598 43.3515 28.6357 44.1244 27.8628L45.635 29.8652C44.6865 30.8489 42.2976 32.1839 39.3817 32.1839C34.2526 32.1839 31.0908 28.7411 31.0908 24.0686C31.0908 19.4665 34.358 16.0237 39.3817 16.0237Z" fill="#213A8B"/>
<path d="M55.1906 16.0237C59.9333 16.0237 63.3761 19.4665 63.3761 24.1389C63.3761 28.8113 59.9333 32.2541 55.1906 32.2541C50.448 32.2541 47.0051 28.8113 47.0051 24.1389C47.0051 19.4665 50.448 16.0237 55.1906 16.0237ZM55.1906 29.795C58.3875 29.795 60.7764 27.371 60.7764 24.1389C60.7764 20.8717 58.4227 18.4828 55.1906 18.4828C51.9937 18.4828 49.6048 20.9069 49.6048 24.1389C49.6048 27.371 51.9937 29.795 55.1906 29.795Z" fill="#213A8B"/>
<path d="M79.6768 27.371C79.6768 29.6545 78.2013 31.8677 74.4423 31.8677H66.1865V16.375H73.9504C77.1122 16.375 78.9039 18.3072 78.9039 20.5204C78.9039 21.75 78.3418 22.8742 76.9717 23.7876C78.3418 24.2443 79.6768 25.2631 79.6768 27.371ZM68.7159 18.799V22.9445L73.6343 22.9093C75.3908 22.9093 76.3042 21.9257 76.3042 20.7664C76.3042 19.7124 75.5313 18.799 73.9856 18.799H68.7159ZM74.5828 29.4437C76.3745 29.4437 77.0771 28.46 77.0771 27.371C77.0771 26.2116 76.2691 25.228 74.6531 25.228H68.7511V29.4437H74.5828Z" fill="#213A8B"/>
<path d="M89.8648 23.893L96.7153 31.8677H93.3427L87.6164 25.0875H84.6654V31.8677H82.1008V16.375H84.6654V22.7688H87.6164L93.2022 16.375H96.6099L89.8648 23.893Z" fill="#213A8B"/>
<path d="M104.585 16.0237C109.327 16.0237 112.77 19.4665 112.77 24.1389C112.77 28.8113 109.327 32.2541 104.585 32.2541C99.842 32.2541 96.3992 28.8113 96.3992 24.1389C96.3992 19.4665 99.842 16.0237 104.585 16.0237ZM104.585 29.795C107.782 29.795 110.17 27.371 110.17 24.1389C110.17 20.8717 107.817 18.4828 104.585 18.4828C101.388 18.4828 98.9989 20.9069 98.9989 24.1389C98.9989 27.371 101.388 29.795 104.585 29.795Z" fill="#213A8B"/>
<path d="M129.949 16.375H132.408V31.8677H129.844V20.3448L124.75 27.1602H123.204L118.11 20.3448V31.8677H115.545V16.375H118.005L123.977 24.3146L129.949 16.375Z" fill="#213A8B"/>
<path d="M144.072 22.6986C147.479 22.6986 149.341 24.701 149.341 27.2656C149.341 29.8301 147.479 31.8677 144.247 31.8677H135.816V16.375H147.901V18.799H138.38V22.6986H144.072ZM144.142 29.4437C145.898 29.4437 146.706 28.46 146.706 27.3007C146.706 26.1414 145.898 25.1577 144.142 25.1577H138.38V29.4437H144.142Z" fill="#213A8B"/>
<path d="M163.499 31.8677L161.813 28.0033H154.47L152.784 31.8677H150.009L156.754 16.375H159.564L166.31 31.8677H163.499ZM155.489 25.6847H160.829L158.159 19.5016L155.489 25.6847Z" fill="#213A8B"/>
<path d="M179.694 16.375H182.259V31.8677H179.694V25.228H170.736V31.8677H168.171V16.375H170.736V22.8039H179.694V16.375Z" fill="#213A8B"/>
<path d="M193.43 23.893L200.316 31.8677H196.908L191.182 25.0875H188.231V31.8677H185.667V16.375H188.231V22.7688H191.182L196.768 16.375H200.176L193.43 23.893Z" fill="#213A8B"/>
<path d="M0.421631 24.1389C0.421631 31.2353 6.18309 36.9968 13.3147 36.9968C13.4903 36.9968 13.666 36.9968 13.8416 36.9968V32.1136H13.3147C8.88817 32.1136 5.33995 28.5302 5.33995 24.1389C5.33995 19.7475 8.9233 16.1642 13.3147 16.1642H13.8416V11.2458C13.666 11.2458 13.4903 11.2458 13.3147 11.2458C6.18309 11.2458 0.421631 17.0073 0.421631 24.1389Z" fill="#DA5155"/>
<path d="M15.8791 11.4919V18.2019H13.3146C10.0123 18.2019 7.37744 20.8368 7.37744 24.1391C7.37744 27.4062 10.0474 30.0762 13.3146 30.0762H15.8791V36.7862C21.746 35.5917 26.1725 30.3923 26.1725 24.1742C26.1725 17.8858 21.746 12.6864 15.8791 11.4919Z" fill="#213A8B"/>
</g>
<defs>
<clipPath id="clip0_3113_28740">
<rect width="200" height="26.1022" fill="white" transform="translate(0 11)"/>
</clipPath>
</defs>
</svg>
