<svg width="200" height="48" viewBox="0 0 200 48" fill="none" xmlns="http://www.w3.org/2000/svg">
<g clip-path="url(#clip0_3113_28606)">
<path d="M9.14561 7.26322C9.37961 7.80516 9.60864 8.34931 9.8327 8.89567C9.86029 8.96189 9.89561 9.02094 9.93866 9.07282C9.98391 9.1269 10.0016 9.18871 9.99164 9.25825C9.98419 9.30847 9.99535 9.36019 10.0231 9.40395C10.1511 9.61476 10.2538 9.82723 10.331 10.0414C10.4028 10.2433 10.4927 10.4464 10.6009 10.6506C10.8195 11.0656 10.9254 11.4729 10.9188 11.8725L7.23999 11.8808C7.1572 11.4889 7.01592 11.1015 6.81614 10.7185C6.76096 10.6126 6.71405 10.5016 6.67542 10.3857C6.63678 10.2698 6.58932 10.1573 6.53303 10.048C6.45356 9.89346 6.38403 9.72735 6.32442 9.54964C6.22288 9.24832 6.08932 8.9641 5.92376 8.69699C5.9061 8.6694 5.89727 8.63905 5.89727 8.60593V8.5364C5.8973 8.50783 5.88965 8.47973 5.8751 8.45499C5.86055 8.43025 5.83963 8.40978 5.81449 8.39567C5.75268 8.36145 5.72508 8.30516 5.73171 8.22679C5.73498 8.19421 5.73044 8.16181 5.71846 8.13242L5.39893 7.3311C6.62851 7.23176 7.8774 7.20913 9.14561 7.26322Z" fill="#7E094B"/>
<path d="M9.14575 7.26321C9.75502 7.24997 10.3621 7.2439 10.9669 7.245C11.5928 7.2461 12.0475 7.31895 12.3312 7.46354C13.8693 8.24831 14.0663 10.3808 12.6905 11.4122C12.1717 11.8018 11.5812 11.9553 10.9189 11.8725C10.9256 11.4729 10.8196 11.0656 10.6011 10.6506C10.4929 10.4464 10.4029 10.2433 10.3312 10.0414C10.2539 9.82723 10.1513 9.61476 10.0232 9.40394C9.99549 9.36018 9.98432 9.30847 9.99178 9.25825C10.0017 9.18871 9.98405 9.1269 9.9388 9.07282C9.89575 9.02094 9.86043 8.96189 9.83284 8.89566C9.60878 8.34931 9.37975 7.80516 9.14575 7.26321Z" fill="#5B1251"/>
<path d="M24.6789 7.25488L25.4372 9.29627C25.4526 9.34042 25.4747 9.38071 25.5034 9.41713C25.5729 9.50764 25.5901 9.61029 25.5547 9.72508C25.5446 9.75744 25.5467 9.79242 25.5608 9.82329C25.5748 9.85416 25.5998 9.87874 25.6309 9.8923C25.7137 9.92762 25.7562 9.98888 25.7584 10.0761C25.7594 10.1235 25.7757 10.1698 25.8047 10.2085C25.9548 10.4028 26.0387 10.6467 26.0564 10.9403C26.0597 10.9977 26.0873 11.0408 26.1392 11.0695C26.2131 11.1092 26.2551 11.1715 26.265 11.2565C26.2749 11.3371 26.2959 11.4138 26.3279 11.4867C26.3963 11.639 26.4907 11.7703 26.611 11.8807L25.3842 11.894C25.329 11.894 25.3014 11.9221 25.3014 11.9784L25.2865 20.0728C25.3086 19.8068 25.2512 19.6324 25.1143 19.5496C25.0834 19.5319 25.0592 19.5071 25.0415 19.4751C25.0205 19.4365 24.9924 19.405 24.9571 19.3807C24.9284 19.3597 24.9317 19.3487 24.967 19.3476C24.9902 19.3476 25.0051 19.336 25.0117 19.3128C25.0138 19.3061 25.0144 19.2989 25.0135 19.2918C25.0127 19.2846 25.0104 19.2777 25.0067 19.2714C24.8809 19.0496 24.7678 18.8068 24.6673 18.543C24.1232 17.1125 23.5884 15.7383 23.063 14.4204C22.9852 14.2251 22.9885 14.0397 22.9107 13.8476C22.4063 12.5982 21.9162 11.3691 21.4405 10.1605C21.4261 10.123 21.4206 10.0855 21.4239 10.0479C21.4306 9.99274 21.4118 9.94859 21.3677 9.91548C21.3213 9.87906 21.2854 9.83491 21.26 9.78303C21.1519 9.55897 21.0592 9.32111 20.9819 9.06945C20.972 9.03855 20.9532 9.02089 20.9256 9.01647C20.8781 9.00764 20.8478 8.9806 20.8345 8.93535L20.6624 8.35091V7.34594C20.6624 7.28965 20.6905 7.26151 20.7468 7.26151L24.6789 7.25488Z" fill="#5B1251"/>
<path d="M24.6787 7.25507L27.485 7.25342L29.336 11.8792L26.6108 11.8809C26.4905 11.7705 26.3962 11.6392 26.3277 11.4869C26.2957 11.414 26.2747 11.3373 26.2648 11.2567C26.2549 11.1717 26.2129 11.1094 26.139 11.0696C26.0871 11.0409 26.0595 10.9979 26.0562 10.9405C26.0385 10.6469 25.9546 10.403 25.8045 10.2087C25.7755 10.17 25.7593 10.1237 25.7582 10.0763C25.756 9.98907 25.7135 9.92781 25.6307 9.89249C25.5996 9.87893 25.5746 9.85435 25.5606 9.82348C25.5465 9.79261 25.5444 9.75763 25.5545 9.72527C25.5899 9.61048 25.5727 9.50783 25.5032 9.41733C25.4745 9.3809 25.4524 9.34061 25.437 9.29646L24.6787 7.25507Z" fill="#7E094B"/>
<path d="M27.4851 7.25342L31.0381 7.25673C31.0193 7.28322 30.9961 7.30419 30.9686 7.31964C30.8913 7.35938 30.8935 7.39525 30.9752 7.42726C30.9939 7.43499 31.0138 7.43885 31.0348 7.43885C31.0966 7.43774 31.138 7.46644 31.1589 7.52494C31.5795 8.68278 32.037 9.82571 32.5315 10.9537C32.5535 11.0045 32.6369 11.1486 32.7815 11.3859C32.8852 11.5558 32.9299 11.7214 32.9156 11.8826L29.3361 11.8792L27.4851 7.25342Z" fill="#A00142"/>
<path d="M31.038 7.25659L33.6009 7.29964C33.5214 7.63187 33.6009 7.99776 33.8393 8.39732C33.8702 8.4492 33.884 8.50494 33.8807 8.56454C33.8763 8.65063 33.9066 8.72238 33.9718 8.77977C34.0214 8.82282 34.0452 8.87745 34.0429 8.94368C34.0385 9.17767 34.0888 9.39732 34.1936 9.60262C34.2797 9.7726 34.3553 9.94809 34.4204 10.1291C34.65 10.7737 34.9177 11.4188 35.2234 12.0645C34.6329 11.8957 34.0716 11.8603 33.5396 11.9586C33.3873 11.9983 33.1793 11.9729 32.9155 11.8824C32.9298 11.7213 32.8851 11.5557 32.7814 11.3857C32.6368 11.1484 32.5534 11.0044 32.5314 10.9536C32.0369 9.82558 31.5794 8.68264 31.1588 7.5248C31.1379 7.4663 31.0965 7.43761 31.0347 7.43871C31.0137 7.43871 30.9938 7.43485 30.9751 7.42712C30.8934 7.39511 30.8912 7.35924 30.9684 7.31951C30.996 7.30405 31.0192 7.28308 31.038 7.25659Z" fill="#B70039"/>
<path d="M33.6011 7.29956L35.3246 7.68367C35.3058 7.94636 35.3318 8.14614 35.4024 8.283C35.4918 8.4574 35.5895 8.64062 35.6955 8.83267C35.7253 8.88565 35.7385 8.9425 35.7352 9.0032C35.7286 9.13676 35.7782 9.25155 35.8842 9.34757C35.9328 9.39172 35.9653 9.44526 35.9819 9.50817C36.0062 9.60089 36.0481 9.6798 36.1077 9.74493C36.1497 9.79128 36.1706 9.84481 36.1706 9.90552C36.1728 10.1594 36.254 10.3763 36.414 10.5562C36.4537 10.5992 36.4791 10.65 36.4902 10.7085L36.5597 11.081C36.5684 11.1286 36.5902 11.1723 36.6226 11.2068C36.6988 11.2907 36.7363 11.3901 36.7352 11.5049C36.7352 11.5667 36.7473 11.6263 36.7716 11.6837L37.1359 12.5363L35.2236 12.0645C34.9179 11.4188 34.6502 10.7736 34.4206 10.129C34.3555 9.94802 34.2799 9.77252 34.1938 9.60254C34.0889 9.39724 34.0387 9.1776 34.0431 8.9436C34.0454 8.87738 34.0216 8.82274 33.972 8.77969C33.9068 8.7223 33.8765 8.65055 33.8809 8.56446C33.8842 8.50486 33.8704 8.44912 33.8395 8.39724C33.6011 7.99768 33.5216 7.63179 33.6011 7.29956Z" fill="#C0052B"/>
<path d="M5.39908 7.33105L5.71862 8.13238C5.73059 8.16176 5.73514 8.19417 5.73187 8.22675C5.72524 8.30512 5.75284 8.36141 5.81465 8.39562C5.83978 8.40973 5.86071 8.43021 5.87526 8.45495C5.88981 8.47968 5.89746 8.50778 5.89743 8.53635V8.60589C5.89743 8.639 5.90626 8.66936 5.92392 8.69695C6.08948 8.96406 6.22304 9.24827 6.32458 9.5496C6.38418 9.7273 6.45372 9.89342 6.53319 10.0479C6.58948 10.1572 6.63694 10.2698 6.67557 10.3857C6.71421 10.5016 6.76111 10.6125 6.8163 10.7185C7.01608 11.1015 7.15736 11.4889 7.24014 11.8807C6.73242 11.8476 6.31685 11.8934 5.99346 12.0181C5.35107 11.8807 4.6524 12.1671 4.02988 12.3907L2.45703 8.8145C3.20096 8.13569 4.18165 7.64121 5.39908 7.33105Z" fill="#A00142"/>
<path d="M35.3245 7.68384C38.5282 8.74675 40.7931 11.111 41.8378 14.2931C41.9371 14.5966 42.0099 14.9482 42.0563 15.3477C40.564 14.0751 38.9238 13.138 37.1358 12.5365L36.7715 11.6838C36.7472 11.6264 36.7351 11.5668 36.7351 11.505C36.7362 11.3902 36.6987 11.2909 36.6225 11.207C36.5901 11.1725 36.5683 11.1288 36.5596 11.0812L36.4901 10.7087C36.479 10.6502 36.4536 10.5994 36.4139 10.5564C36.2539 10.3764 36.1727 10.1596 36.1705 9.90569C36.1705 9.84499 36.1496 9.79145 36.1076 9.7451C36.048 9.67998 36.0061 9.60106 35.9818 9.50834C35.9652 9.44543 35.9327 9.3919 35.8841 9.34775C35.7782 9.25172 35.7285 9.13693 35.7351 9.00337C35.7384 8.94267 35.7252 8.88582 35.6954 8.83284C35.5894 8.64079 35.4917 8.45757 35.4023 8.28318C35.3317 8.14631 35.3057 7.94653 35.3245 7.68384Z" fill="#CE0916"/>
<path d="M20.6624 8.35107L20.8345 8.93551C20.8478 8.98077 20.8781 9.00781 20.9256 9.01664C20.9532 9.02105 20.972 9.03871 20.9819 9.06962C21.0592 9.32127 21.1519 9.55913 21.26 9.78319C21.2854 9.83507 21.3213 9.87922 21.3677 9.91564C21.4118 9.94876 21.4306 9.99291 21.4239 10.0481C21.4206 10.0856 21.4261 10.1231 21.4405 10.1607C21.9162 11.3693 22.4063 12.5983 22.9107 13.8478C22.9885 14.0398 22.9852 14.2252 23.063 14.4206C23.5884 15.7385 24.1232 17.1127 24.6673 18.5431C24.7678 18.8069 24.8809 19.0498 25.0067 19.2716C25.0104 19.2779 25.0127 19.2848 25.0135 19.2919C25.0144 19.299 25.0138 19.3062 25.0117 19.313C25.0051 19.3362 24.9902 19.3478 24.967 19.3478C24.9317 19.3489 24.9284 19.3599 24.9571 19.3809C24.9924 19.4052 25.0205 19.4366 25.0415 19.4752C25.0592 19.5073 25.0834 19.5321 25.1143 19.5498C25.2512 19.6325 25.3086 19.8069 25.2865 20.0729L25.2849 24.7898C25.2297 24.8284 25.2104 24.9007 25.2269 25.0067C25.2291 25.0217 25.2258 25.0371 25.2176 25.0498C25.2094 25.0626 25.1968 25.072 25.1822 25.0762C25.148 25.0862 25.1386 25.0685 25.1541 25.0233C25.1608 25.003 25.1604 24.9811 25.1528 24.9609C25.1453 24.9408 25.1312 24.9237 25.1127 24.9123C25.0365 24.866 24.9973 24.7986 24.9951 24.7103C24.9929 24.653 24.9819 24.5983 24.962 24.5464L22.5763 18.3925C22.5718 18.3792 22.5636 18.3693 22.5514 18.3627L22.5018 18.3362C22.4554 18.3108 22.4234 18.2733 22.4057 18.2236C22.2865 17.866 22.1486 17.515 21.9918 17.1706C21.76 16.6596 21.5674 16.1358 21.414 15.5994C21.4074 15.5751 21.3925 15.5602 21.3693 15.5547C21.3395 15.5481 21.3235 15.5293 21.3213 15.4984C21.3058 15.3031 21.2308 15.132 21.0961 14.9852C21.0597 14.9454 21.0382 14.8985 21.0316 14.8445C20.9786 14.4228 20.8566 14.0188 20.6657 13.6325L20.6624 8.35107Z" fill="#56366A"/>
<path d="M2.45685 8.81445L4.0297 12.3906C3.39615 12.6445 2.78632 13.001 2.20023 13.4601C2.21347 13.1412 2.12021 12.8409 1.92043 12.5595C1.89068 12.517 1.87825 12.4643 1.88566 12.4121C1.8967 12.3459 1.89118 12.2929 1.8691 12.2532C1.56888 11.7057 1.3084 11.1152 1.08765 10.4817C1.37131 9.92428 1.82771 9.36854 2.45685 8.81445Z" fill="#B70039"/>
<path d="M1.08786 10.4817C1.30862 11.1152 1.5691 11.7058 1.86932 12.2532C1.8914 12.2929 1.89692 12.3459 1.88588 12.4122C1.87847 12.4644 1.89089 12.517 1.92065 12.5595C2.12043 12.841 2.21369 13.1412 2.20045 13.4602C1.44327 14.054 0.840072 14.7654 0.390845 15.5943C0.3776 15.6307 0.331242 15.6379 0.251772 15.6158C0.248461 14.8001 0.247357 13.9839 0.248461 13.1671C0.249565 12.3327 0.529366 11.4375 1.08786 10.4817Z" fill="#CE0916"/>
<path d="M149.99 11.9801C150.384 11.7362 150.767 11.4299 151.137 11.0613C151.268 10.931 151.402 10.9261 151.541 11.0464L152.248 11.6573C152.376 11.7677 152.39 11.8913 152.288 12.0282C151.715 12.7975 151.123 13.3499 150.51 13.6854C148.566 14.7484 146.816 13.808 145.646 12.1772C145.525 12.0094 145.539 11.8527 145.685 11.707L146.321 11.0745C146.474 10.9233 146.624 10.9244 146.773 11.0778C147.624 11.9586 148.783 12.7268 149.99 11.9801Z" fill="#181716"/>
<path d="M35.2236 12.0644L37.1358 12.5363C38.9239 13.1378 40.5641 14.0749 42.0563 15.3476C42.1435 15.5462 42.1987 15.8619 42.2219 16.2946L39.6954 16.2896C39.6815 16.2897 39.6686 16.2944 39.659 16.3029C39.6391 16.3216 39.6093 16.3293 39.5696 16.326C38.9692 16.2742 38.2953 16.2863 37.5481 16.3625C37.1022 14.1638 35.7661 12.6958 33.5398 11.9585C34.0718 11.8603 34.6331 11.8956 35.2236 12.0644Z" fill="#5B1251"/>
<path d="M67.9305 18.4188L69.9321 12.1191C69.9818 11.9624 70.0889 11.884 70.2533 11.884H72.6457C72.6731 11.884 72.7001 11.8906 72.7244 11.9032C72.7488 11.9158 72.7697 11.9341 72.7854 11.9565C72.8012 11.9789 72.8113 12.0048 72.8149 12.032C72.8186 12.0591 72.8156 12.0867 72.8063 12.1125C71.5458 15.6346 70.308 19.0568 69.0927 22.3791C68.6076 23.7069 67.51 24.2946 66.0811 24.3327C65.3527 24.3526 64.6645 24.2543 64.0166 24.038C63.9594 24.0186 63.9111 23.9791 63.881 23.927C63.8508 23.8749 63.8407 23.8137 63.8527 23.7549L64.1672 22.1489C64.1757 22.1079 64.1996 22.0717 64.2338 22.0479C64.2681 22.0242 64.3101 22.0147 64.351 22.0215C64.9652 22.1208 66.2831 22.2996 66.6739 21.7069C66.8582 21.4254 67.0061 21.0584 67.1176 20.6059C67.1204 20.5937 67.1203 20.581 67.1171 20.5689C67.1139 20.5568 67.1078 20.5457 67.0993 20.5366C67.0907 20.5274 67.0801 20.5205 67.0683 20.5164C67.0565 20.5123 67.0438 20.5112 67.0315 20.5132C66.6043 20.5844 66.0696 20.5198 65.8907 20.0777C64.8256 17.453 63.7622 14.8106 62.7003 12.1506C62.6887 12.1209 62.6845 12.0888 62.688 12.0572C62.6914 12.0255 62.7026 11.9952 62.7204 11.9689C62.7382 11.9426 62.7621 11.9211 62.7901 11.9063C62.818 11.8915 62.8492 11.8839 62.8808 11.884H65.2649C65.3208 11.8841 65.3753 11.9011 65.4211 11.9327C65.467 11.9644 65.502 12.0092 65.5215 12.0612C66.3383 14.2356 67.0922 16.3548 67.7831 18.4188C67.8339 18.5711 67.883 18.5711 67.9305 18.4188Z" fill="#181716"/>
<path d="M162.252 16.3212C163.322 16.3014 164.33 16.3041 165.275 16.3295C167.127 16.3775 168.677 17.4239 168.954 19.3461C169.073 20.1739 169.014 20.9068 168.778 21.5448C168.363 22.6772 167.288 23.5712 166.101 23.861C165.634 23.9747 165.13 24.0282 164.589 24.0216C163.18 24.0061 161.747 24.0045 160.29 24.0166C160.12 24.0177 159.962 23.9774 159.816 23.8958C159.571 23.7567 159.447 23.5056 159.445 23.1424C159.43 19.5806 159.431 16.2451 159.45 13.1358C159.454 12.5116 159.642 11.9322 160.376 11.9305C162.686 11.9239 165.025 11.9228 167.394 11.9272C167.457 11.9272 167.518 11.9523 167.563 11.997C167.607 12.0417 167.632 12.1024 167.632 12.1656V13.9951C167.632 14.05 167.611 14.1026 167.572 14.1414C167.533 14.1802 167.48 14.202 167.425 14.202H162.21C162.155 14.202 162.127 14.2296 162.127 14.2848V16.1987C162.127 16.2815 162.169 16.3224 162.252 16.3212ZM162.121 18.5911V21.6077C162.121 21.6314 162.13 21.6541 162.147 21.6709C162.164 21.6877 162.186 21.6971 162.21 21.6971H164.632C165.065 21.6971 165.48 21.5303 165.786 21.2335C166.091 20.9367 166.263 20.5341 166.263 20.1143V20.0845C166.263 19.6647 166.091 19.2621 165.786 18.9653C165.48 18.6685 165.065 18.5017 164.632 18.5017H162.21C162.186 18.5017 162.164 18.5111 162.147 18.5279C162.13 18.5447 162.121 18.5674 162.121 18.5911Z" fill="#181716"/>
<path d="M5.99331 12.0183C5.58602 12.2092 5.28636 12.489 5.0943 12.8577C4.96296 13.1082 4.89452 13.4918 4.889 14.0083C4.88128 14.6993 4.87907 15.4195 4.88238 16.1689C4.47289 16.0773 3.96296 16.0332 3.35258 16.0365C2.44309 16.042 1.53194 16.0442 0.619137 16.0431C0.461301 16.042 0.385142 15.8924 0.390661 15.5944C0.839888 14.7655 1.44309 14.0541 2.20026 13.4603C2.78636 13.0012 3.39618 12.6446 4.02973 12.3908C4.65225 12.1673 5.35093 11.8809 5.99331 12.0183Z" fill="#5B1251"/>
<path d="M20.6656 13.6326C20.8566 14.0189 20.9785 14.4229 21.0315 14.8445C21.0381 14.8986 21.0597 14.9455 21.0961 14.9852C21.2307 15.132 21.3058 15.3031 21.3212 15.4985C21.3234 15.5294 21.3395 15.5481 21.3693 15.5548C21.3924 15.5603 21.4073 15.5752 21.414 15.5995C21.5674 16.1359 21.76 16.6596 21.9918 17.1706C22.1485 17.515 22.2865 17.866 22.4057 18.2236C22.4233 18.2733 22.4553 18.3108 22.5017 18.3362L22.5514 18.3627C22.5635 18.3693 22.5718 18.3793 22.5762 18.3925L24.962 24.5465C24.9818 24.5984 24.9929 24.653 24.9951 24.7104C24.9973 24.7987 25.0365 24.866 25.1126 24.9124C25.1311 24.9237 25.1453 24.9408 25.1528 24.961C25.1603 24.9811 25.1607 25.0031 25.154 25.0233C25.1386 25.0686 25.148 25.0862 25.1822 25.0763C25.1968 25.072 25.2093 25.0627 25.2175 25.0499C25.2258 25.0371 25.2291 25.0218 25.2269 25.0067C25.2103 24.9008 25.2296 24.8285 25.2848 24.7899L25.2865 29.0018C25.0679 28.717 24.9073 28.4284 24.8047 28.1359C24.6612 27.7253 24.5878 27.5167 24.5845 27.5101C24.4675 27.2264 24.361 26.9389 24.2649 26.6475C24.1568 26.3163 24.0519 26.0283 23.9504 25.7832C23.8047 25.4289 23.6711 25.0835 23.5497 24.7468C23.5254 24.6784 23.5216 24.6795 23.5381 24.7501C23.5414 24.7656 23.5392 24.7805 23.5315 24.7948C23.505 24.8412 23.4818 24.8395 23.462 24.7899L21.2087 19.0713C21.1899 19.0216 21.1656 18.9747 21.1358 18.9306C21.0696 18.8323 21.0249 18.7049 21.0017 18.5481C20.9741 18.3594 20.8604 18.0244 20.6606 17.5432L20.6656 13.6326Z" fill="#4A4E80"/>
<path d="M89.1125 18.1125C89.1456 17.2008 88.6787 16.7505 87.7118 16.7615C86.7825 16.7714 85.9022 16.8879 85.0711 17.1108C85.0376 17.1198 85.0026 17.1219 84.9683 17.1171C84.9339 17.1123 84.901 17.1007 84.8713 17.0829C84.8416 17.0651 84.8159 17.0416 84.7956 17.0137C84.7753 16.9858 84.7609 16.9541 84.7532 16.9204C84.6462 16.4591 84.5446 16.0214 84.4486 15.6075C84.4011 15.4011 84.474 15.2654 84.6671 15.2002C85.6682 14.8603 86.7924 14.6914 88.0396 14.6936C89.4089 14.6953 90.8095 15.0529 91.4006 16.4039C91.5728 16.799 91.655 17.437 91.6473 18.3178C91.634 19.9249 91.6324 21.4889 91.6423 23.0098C91.6456 23.3642 91.3641 23.5777 91.0545 23.682C89.4905 24.2008 87.8653 24.3415 86.1787 24.1042C84.889 23.9221 83.7433 23.2069 83.5943 21.8112C83.331 19.3426 84.9983 18.192 87.2019 18.2135C87.8211 18.219 88.4221 18.2201 89.0049 18.2168C89.0744 18.2168 89.1103 18.182 89.1125 18.1125ZM86.187 21.1456C86.1754 22.4734 88.1191 22.2334 88.9635 21.9999C89.0374 21.98 89.0744 21.932 89.0744 21.8559L89.0728 20.0297C89.0728 19.9591 89.0369 19.9227 88.9651 19.9204C88.4464 19.8995 87.948 19.9039 87.4701 19.9337C86.6213 19.9867 86.1936 20.3906 86.187 21.1456Z" fill="#181716"/>
<path d="M114.517 21.3344C113.877 18.6804 114.588 15.2019 117.859 14.7698C119.098 14.6065 120.308 14.8024 121.492 15.3576C121.548 15.384 121.592 15.4304 121.615 15.4877C121.639 15.5449 121.64 15.609 121.619 15.6672L121.074 17.1506C121.045 17.2307 120.985 17.2963 120.909 17.3336C120.832 17.371 120.743 17.3772 120.662 17.3509C120.094 17.1639 119.49 17.0182 118.889 16.9983C116.92 16.9337 116.743 19.3509 117.101 20.6639C117.578 22.4188 119.644 22 120.93 21.4917C121.115 21.4188 121.241 21.4751 121.31 21.6605L121.848 23.1076C121.875 23.18 121.875 23.2601 121.847 23.3325C121.819 23.4049 121.765 23.4645 121.695 23.5C120.764 23.9735 119.689 24.2119 118.47 24.2152C116.493 24.2185 114.993 23.3145 114.517 21.3344Z" fill="#181716"/>
<path d="M176.069 18.129C176.165 17.2714 175.776 16.8205 174.901 16.7764C174.055 16.7322 173.118 16.8437 172.089 17.1108C172.052 17.1202 172.014 17.1222 171.976 17.1165C171.939 17.1109 171.903 17.0978 171.87 17.0781C171.838 17.0583 171.81 17.0323 171.788 17.0015C171.766 16.9707 171.75 16.9358 171.742 16.8989L171.437 15.5645C171.395 15.3802 171.464 15.2587 171.644 15.2002C173.093 14.7267 174.99 14.5032 176.463 14.8625C178.321 15.3161 178.684 16.692 178.655 18.4535C178.632 19.9933 178.631 21.4679 178.651 22.8774C178.657 23.2637 178.477 23.5225 178.109 23.6539C176.742 24.1417 175.229 24.3095 173.571 24.1572C172.028 24.0165 170.685 23.3277 170.571 21.6042C170.43 19.4933 171.862 18.2483 173.897 18.2218C174.572 18.2129 175.26 18.2135 175.963 18.2234C176.027 18.2245 176.063 18.1931 176.069 18.129ZM173.228 20.7946C172.892 22.485 174.95 22.2747 175.977 21.9999C176.043 21.9822 176.076 21.9392 176.076 21.8708V20.0314C176.076 19.9596 176.04 19.9221 175.968 19.9188C175.391 19.8967 174.84 19.9055 174.316 19.9453C173.814 19.9834 173.333 20.2681 173.228 20.7946Z" fill="#181716"/>
<path d="M75.9107 24.0993V27.3228C75.9107 27.3777 75.8889 27.4303 75.85 27.4691C75.8112 27.5079 75.7586 27.5297 75.7037 27.5297H73.5878C73.5557 27.5297 73.5239 27.5234 73.4943 27.5112C73.4647 27.4989 73.4377 27.481 73.4151 27.4583C73.3925 27.4357 73.3746 27.4089 73.3625 27.3794C73.3503 27.3498 73.3442 27.3182 73.3444 27.2863C73.3455 23.3879 73.345 19.6059 73.3428 15.9403C73.3428 15.6831 73.4647 15.5082 73.7087 15.4155C75.3698 14.7852 77.042 14.6004 78.7252 14.8608C80.6275 15.1539 81.6275 16.682 81.8444 18.4767C82.1193 20.7549 81.4719 23.4999 78.8742 24.0612C78.053 24.2389 77.1049 24.219 76.0299 24.0016C75.9504 23.985 75.9107 24.0176 75.9107 24.0993ZM79.1077 18.3095C78.7567 16.7913 77.207 16.8012 76.015 17.0926C75.9454 17.1103 75.9107 17.1544 75.9107 17.2251V21.7036C75.9107 21.7687 75.9427 21.809 76.0067 21.8244C76.5288 21.9525 77.0348 22.001 77.5249 21.9701C79.3262 21.8575 79.3974 19.5612 79.1077 18.3095Z" fill="#181716"/>
<path d="M99.3792 17.0166H97.5464C97.5057 17.0166 97.4666 17.0324 97.4375 17.0606C97.4084 17.0887 97.3916 17.127 97.3908 17.1673C97.3643 18.526 97.2434 19.8511 97.0282 21.1425C96.7324 22.9239 95.7208 24.0122 93.9934 24.4074C93.7936 24.4526 93.6562 24.3776 93.5812 24.1822C93.4222 23.7661 93.2523 23.3378 93.0712 22.8974C93.0536 22.8542 93.0449 22.8079 93.0454 22.7613C93.046 22.7146 93.056 22.6686 93.0747 22.626C93.0933 22.5834 93.1204 22.545 93.1542 22.5131C93.1881 22.4812 93.228 22.4565 93.2716 22.4405C94.5464 21.9653 94.7285 20.8113 94.8477 19.5978C94.9515 18.5448 95.042 17.2931 95.1193 15.8428C95.1513 15.2501 95.4537 14.9532 96.0265 14.9521C97.8643 14.9477 99.6143 14.946 101.277 14.9471C101.487 14.9475 101.689 15.0313 101.837 15.18C101.986 15.3286 102.07 15.5301 102.07 15.7402V23.8047C102.07 23.8596 102.048 23.9123 102.009 23.9511C101.97 23.9899 101.918 24.0117 101.863 24.0117H99.7517C99.6858 24.0117 99.6227 23.9855 99.5761 23.9389C99.5295 23.8924 99.5034 23.8292 99.5034 23.7633V17.1408C99.5034 17.058 99.462 17.0166 99.3792 17.0166Z" fill="#181716"/>
<path d="M107.073 17.7649C107.834 17.7594 108.574 17.7588 109.293 17.7632C111.132 17.7765 112.704 18.6623 112.783 20.6738C112.858 22.5331 111.445 23.9619 109.594 23.995C108.123 24.0204 106.668 24.0232 105.228 24.0033C105.015 24.0007 104.812 23.9141 104.662 23.7622C104.513 23.6104 104.429 23.4055 104.429 23.1921V15.154C104.429 15.0991 104.451 15.0464 104.489 15.0076C104.528 14.9688 104.581 14.947 104.636 14.947H106.788C106.832 14.947 106.874 14.9645 106.905 14.9955C106.936 15.0266 106.954 15.0687 106.954 15.1126V17.6457C106.954 17.7252 106.993 17.7649 107.073 17.7649ZM106.944 19.8129L106.937 21.9189C106.937 21.9343 106.94 21.9496 106.946 21.9639C106.952 21.9781 106.961 21.9911 106.971 22.002C106.982 22.0129 106.995 22.0216 107.01 22.0275C107.024 22.0334 107.039 22.0364 107.055 22.0364L108.962 22.043C109.122 22.0435 109.28 22.0141 109.428 21.9565C109.576 21.899 109.71 21.8143 109.823 21.7075C109.937 21.6006 110.027 21.4737 110.088 21.3338C110.15 21.1939 110.182 21.044 110.182 20.8924V20.8593C110.183 20.5533 110.055 20.2594 109.828 20.0424C109.6 19.8254 109.291 19.7029 108.968 19.702L107.061 19.6954C107.03 19.6954 107 19.7078 106.978 19.7298C106.956 19.7518 106.944 19.7817 106.944 19.8129Z" fill="#181716"/>
<path d="M126.281 18.2235C127.199 18.2252 127.942 18.2583 128.303 17.2103C128.535 16.5381 128.758 15.8444 128.972 15.1291C128.987 15.0766 129.02 15.0305 129.064 14.9977C129.108 14.9649 129.162 14.9471 129.217 14.947H131.217C131.25 14.9472 131.283 14.955 131.313 14.9698C131.343 14.9847 131.369 15.0062 131.389 15.0328C131.41 15.0593 131.424 15.0902 131.43 15.1229C131.437 15.1557 131.436 15.1896 131.427 15.2219C131.225 15.9746 130.998 16.7903 130.745 17.6689C130.56 18.3179 130.205 18.7837 129.68 19.0662C129.615 19.1004 129.618 19.1286 129.689 19.1507C130.323 19.346 130.739 19.7655 130.935 20.4089C131.279 21.527 131.609 22.6462 131.927 23.7666C131.935 23.7952 131.937 23.8254 131.931 23.8547C131.926 23.884 131.914 23.9117 131.896 23.9354C131.878 23.9592 131.854 23.9785 131.828 23.9917C131.801 24.0049 131.771 24.0117 131.742 24.0116H129.591C129.478 24.0116 129.406 23.9575 129.372 23.8493C129.082 22.8869 128.805 21.9807 128.541 21.1308C128.225 20.1142 127.174 20.0993 126.255 20.1738C126.191 20.1783 126.159 20.213 126.159 20.2781V23.846C126.159 23.8899 126.141 23.9321 126.11 23.9631C126.079 23.9941 126.037 24.0116 125.993 24.0116H123.758C123.725 24.0116 123.694 23.9985 123.67 23.9752C123.647 23.9519 123.634 23.9204 123.634 23.8874V15.1126C123.634 15.0687 123.651 15.0266 123.683 14.9955C123.714 14.9645 123.756 14.947 123.8 14.947H125.993C126.037 14.947 126.079 14.9645 126.11 14.9955C126.141 15.0266 126.159 15.0687 126.159 15.1126V18.101C126.159 18.1827 126.2 18.2235 126.281 18.2235Z" fill="#181716"/>
<path d="M139.694 18.6772C139.694 18.5702 139.666 18.5624 139.609 18.654C138.568 20.3549 137.534 21.9912 136.505 23.563C136.313 23.8544 136.01 24.0266 135.652 24.0199C135.256 24.0122 134.86 24.0072 134.464 24.005C133.977 24.0034 133.689 23.6689 133.689 23.207C133.691 20.3616 133.693 17.6739 133.694 15.1441C133.694 15.0917 133.715 15.0416 133.752 15.0047C133.79 14.9678 133.84 14.9471 133.892 14.9471H136.051C136.095 14.9471 136.137 14.9645 136.168 14.9956C136.199 15.0266 136.217 15.0687 136.217 15.1127V20.3676C136.217 20.4835 136.247 20.4923 136.308 20.3941C137.328 18.7274 138.356 17.068 139.394 15.4156C139.574 15.1276 139.881 14.9372 140.235 14.9405C140.647 14.9427 141.061 14.9465 141.478 14.9521C142.126 14.962 142.26 15.4454 142.26 15.9603C142.26 18.4979 142.26 21.1005 142.26 23.7683C142.26 23.8328 142.234 23.8947 142.189 23.9404C142.143 23.986 142.081 24.0117 142.017 24.0117H139.942C139.876 24.0117 139.813 23.9855 139.766 23.9389C139.72 23.8924 139.694 23.8292 139.694 23.7633V18.6772Z" fill="#181716"/>
<path d="M147.144 20.3708C147.144 20.4922 147.175 20.5011 147.238 20.3973C148.304 18.6545 149.345 16.9751 150.363 15.3592C150.54 15.0794 150.839 14.9503 151.187 14.9453C151.609 14.9398 152.033 14.9415 152.459 14.9503C152.653 14.9542 152.838 15.0344 152.975 15.1737C153.111 15.313 153.187 15.5003 153.187 15.6953V23.8046C153.187 23.8595 153.165 23.9121 153.126 23.9509C153.088 23.9897 153.035 24.0115 152.98 24.0115H150.828C150.784 24.0115 150.742 23.9941 150.711 23.9631C150.68 23.932 150.662 23.8899 150.662 23.846V18.7202C150.662 18.5447 150.616 18.532 150.525 18.6821C149.595 20.2053 148.57 21.8294 147.447 23.5546C147.243 23.8675 146.93 24.0264 146.555 24.0198C146.142 24.0132 145.749 24.0077 145.377 24.0033C144.73 23.9933 144.623 23.538 144.621 22.9668C144.619 20.3642 144.618 17.7731 144.619 15.1937C144.62 15.0292 144.703 14.947 144.866 14.947H146.978C147.022 14.947 147.064 14.9644 147.096 14.9955C147.127 15.0265 147.144 15.0686 147.144 15.1125V20.3708Z" fill="#181716"/>
<path d="M183.522 20.3709L183.528 23.8411C183.528 23.8863 183.51 23.9297 183.478 23.9616C183.446 23.9936 183.403 24.0116 183.358 24.0116L181.174 24.005C181.129 24.005 181.085 23.987 181.053 23.955C181.021 23.923 181.003 23.8797 181.003 23.8344V15.1242C181.003 15.0789 181.021 15.0356 181.053 15.0036C181.085 14.9716 181.129 14.9536 181.174 14.9536L183.358 14.947C183.403 14.947 183.446 14.965 183.478 14.997C183.51 15.0289 183.528 15.0723 183.528 15.1176L183.522 18.0497C183.522 18.0949 183.54 18.1383 183.572 18.1703C183.604 18.2022 183.647 18.2202 183.692 18.2202H186.546C186.592 18.2202 186.635 18.2022 186.667 18.1703C186.699 18.1383 186.717 18.0949 186.717 18.0497V15.1209C186.717 15.0756 186.735 15.0323 186.767 15.0003C186.799 14.9683 186.842 14.9503 186.888 14.9503L189.065 14.9553C189.11 14.9553 189.153 14.9733 189.185 15.0052C189.217 15.0372 189.235 15.0806 189.235 15.1258L189.239 23.8427C189.239 23.8879 189.221 23.9313 189.189 23.9633C189.157 23.9953 189.113 24.0132 189.068 24.0132L186.889 24.0033C186.844 24.0033 186.801 23.9853 186.769 23.9534C186.737 23.9214 186.719 23.878 186.719 23.8328L186.715 20.3709C186.715 20.3256 186.697 20.2823 186.665 20.2503C186.633 20.2183 186.59 20.2003 186.545 20.2003H183.692C183.647 20.2003 183.604 20.2183 183.572 20.2503C183.54 20.2823 183.522 20.3256 183.522 20.3709Z" fill="#181716"/>
<path d="M197.682 19.149C198.306 19.34 198.721 19.7721 198.927 20.4454C199.257 21.5226 199.574 22.6043 199.877 23.6904C199.938 23.9045 199.856 24.0116 199.632 24.0116H197.553C197.511 24.0117 197.47 23.9982 197.436 23.9732C197.402 23.9481 197.377 23.9129 197.364 23.8725C197.074 22.9476 196.79 22.0276 196.512 21.1126C196.202 20.0944 195.121 20.106 194.2 20.1689C194.148 20.1722 194.122 20.1998 194.122 20.2517V23.9288C194.122 23.9503 194.114 23.971 194.098 23.9862C194.083 24.0014 194.062 24.0099 194.04 24.0099L191.763 24.0116C191.719 24.0116 191.677 23.9941 191.646 23.9631C191.615 23.9321 191.598 23.8899 191.598 23.846V15.1126C191.598 15.0687 191.615 15.0266 191.646 14.9955C191.677 14.9645 191.719 14.947 191.763 14.947H193.957C194.001 14.947 194.043 14.9645 194.074 14.9955C194.105 15.0266 194.122 15.0687 194.122 15.1126V18.1258C194.122 18.1921 194.156 18.2241 194.222 18.2219C195.144 18.1921 195.899 18.3146 196.265 17.2483C196.485 16.6082 196.711 15.9095 196.944 15.1523C196.986 15.0155 197.078 14.947 197.222 14.947H199.141C199.366 14.947 199.45 15.0557 199.392 15.2732C199.162 16.1429 198.922 16.9884 198.672 17.8096C198.504 18.3604 198.171 18.7748 197.671 19.053C197.6 19.0927 197.604 19.1247 197.682 19.149Z" fill="#181716"/>
<path d="M0.251549 15.616C0.331019 15.6381 0.377377 15.6309 0.390622 15.5945C0.385103 15.8925 0.461262 16.0421 0.619099 16.0432C1.5319 16.0443 2.44305 16.0421 3.35254 16.0365C3.96292 16.0332 4.47285 16.0774 4.88234 16.169L4.87903 18.0912L0.246582 18.0812L0.251549 15.616Z" fill="#7E094B"/>
<path d="M42.2218 16.2948L42.2168 18.4885L37.5049 18.5017C37.6528 17.7898 37.6671 17.0768 37.5479 16.3626C38.2952 16.2865 38.969 16.2743 39.5695 16.3262C39.6092 16.3295 39.639 16.3218 39.6589 16.303C39.6685 16.2946 39.6814 16.2898 39.6953 16.2898L42.2218 16.2948Z" fill="#7E094B"/>
<path d="M20.6606 17.543C20.8604 18.0242 20.9741 18.3592 21.0017 18.5479C21.0249 18.7047 21.0696 18.8322 21.1358 18.9304C21.1656 18.9745 21.1899 19.0214 21.2086 19.0711L23.4619 24.7897C23.4818 24.8393 23.505 24.841 23.5315 24.7946C23.5392 24.7803 23.5414 24.7654 23.5381 24.7499C23.5215 24.6793 23.5254 24.6782 23.5497 24.7466C23.6711 25.0833 23.8047 25.4287 23.9504 25.783C24.0519 26.0281 24.1568 26.3161 24.2649 26.6473C24.361 26.9387 24.4675 27.2262 24.5845 27.5099C24.5878 27.5165 24.6612 27.7251 24.8047 28.1357C24.9073 28.4282 25.0679 28.7168 25.2864 29.0016C25.2887 29.2422 25.2826 29.4961 25.2682 29.7632C25.1236 32.442 24.1943 34.8128 22.4802 36.8758C22.3499 36.804 22.2743 36.6942 22.2533 36.5463C22.2467 36.4933 22.2257 36.4464 22.1904 36.4056C22.1187 36.3217 22.0889 36.2174 22.101 36.0926C22.1065 36.0242 22.0861 35.9712 22.0398 35.9337C22.0066 35.9072 21.9818 35.8741 21.9653 35.8344L21.7682 35.3658C21.7484 35.3184 21.7445 35.2703 21.7566 35.2218C21.7721 35.1622 21.7544 35.1191 21.7037 35.0926C21.6617 35.0695 21.6314 35.0358 21.6126 34.9916C21.5122 34.7433 21.4465 34.5242 21.4156 34.3344C21.4079 34.2869 21.3808 34.2577 21.3345 34.2466C21.2627 34.229 21.2357 34.1842 21.2533 34.1125C21.271 34.0441 21.2555 33.9839 21.207 33.932C21.1264 33.8459 21.0927 33.7372 21.106 33.6059C21.1137 33.5308 21.0872 33.474 21.0265 33.4354C20.9986 33.4182 20.977 33.392 20.9653 33.3609L20.7699 32.846C20.7591 32.819 20.7568 32.7896 20.7633 32.7615C20.7809 32.6809 20.7566 32.6258 20.6904 32.596C20.6441 32.575 20.6126 32.5408 20.5961 32.4933C20.5883 32.4701 20.5872 32.4464 20.5927 32.4221C20.6071 32.3559 20.5905 32.2979 20.5431 32.2483C20.468 32.1721 20.4509 32.0877 20.4917 31.995C20.5138 31.9442 20.516 31.8923 20.4984 31.8393C20.4222 31.6131 20.3245 31.559 20.2053 31.6771C20.5022 30.7941 20.6507 30.0877 20.6507 29.5579C20.6518 25.5678 20.6551 21.5628 20.6606 17.543Z" fill="#196DA1"/>
<path d="M4.87903 18.091V18.9155L0.249893 18.8228L0.246582 18.0811L4.87903 18.091Z" fill="#A00142"/>
<path d="M42.2169 18.4885L41.7931 20.4852C41.5988 20.4223 41.244 20.3903 40.7285 20.3892C39.3687 20.3837 38.0254 20.3804 36.6987 20.3793C37.0685 19.8583 37.3373 19.2325 37.505 18.5018L42.2169 18.4885Z" fill="#A00142"/>
<path d="M0.249893 18.8228L4.87903 18.9155L4.88069 21.9751L0.246582 21.8724L0.249893 18.8228Z" fill="#B70039"/>
<path d="M41.793 20.4851C41.6373 20.6286 41.7394 20.8455 42.0993 21.1358L36.384 21.1192L36.6986 20.3792C38.0253 20.3803 39.3686 20.3836 40.7284 20.3891C41.2439 20.3902 41.5987 20.4222 41.793 20.4851Z" fill="#B70039"/>
<path d="M42.0994 21.1357C42.5807 21.575 43.0475 22.1225 43.5001 22.7781C41.7782 22.7979 40.0624 22.7996 38.3527 22.783C38.3086 22.7819 38.1276 22.8002 37.8097 22.8377C37.6231 22.8598 37.4372 22.8432 37.2517 22.788C37.1513 22.7582 36.9912 22.7919 36.7716 22.889C36.3268 22.3989 36.1976 21.809 36.3842 21.1191L42.0994 21.1357Z" fill="#C0052B"/>
<path d="M0.246582 21.8726L4.88069 21.9752V23.7136L0.251549 23.6987L0.246582 21.8726Z" fill="#CE0916"/>
<path d="M43.5 22.7781L44.3774 24.2517L38.6904 24.2997L36.7715 22.8891C36.9911 22.7919 37.1512 22.7583 37.2516 22.7881C37.437 22.8433 37.623 22.8598 37.8096 22.8378C38.1274 22.8002 38.3085 22.782 38.3526 22.7831C40.0623 22.7997 41.7781 22.798 43.5 22.7781Z" fill="#CE0916"/>
<path d="M4.88085 23.7136V25.1607L0.251709 25.1193V23.6987L4.88085 23.7136Z" fill="#C0052B"/>
<path d="M44.3775 24.2517L44.9686 25.6292C44.9156 25.6027 44.8626 25.6077 44.8096 25.6441C44.7909 25.6573 44.771 25.6695 44.75 25.6805C44.707 25.7026 44.6821 25.6938 44.6755 25.654C44.67 25.6198 44.6496 25.6027 44.6143 25.6027L40.1424 25.6077C40.1289 25.6076 40.1154 25.6104 40.103 25.6159C40.0906 25.6214 40.0794 25.6294 40.0702 25.6396C40.0611 25.6497 40.054 25.6617 40.0496 25.6747C40.0453 25.6877 40.0436 25.7015 40.0447 25.7153C40.0503 25.7859 40.0006 25.8008 39.8957 25.76L38.6904 24.2997L44.3775 24.2517Z" fill="#C0052B"/>
<path d="M4.88085 25.1605V27.8559C4.58173 27.8857 4.23791 27.8763 3.84939 27.8278C3.79089 27.8211 3.75005 27.8322 3.72687 27.8609C3.69707 27.8984 3.65844 27.9155 3.61098 27.9122C3.22908 27.8791 2.84663 27.8542 2.46363 27.8377C2.44818 27.8366 2.43328 27.8393 2.41893 27.846C2.40348 27.8526 2.3952 27.8642 2.39409 27.8807C2.39189 27.9127 2.37643 27.9216 2.34774 27.9072C2.24619 27.8553 2.13968 27.8305 2.0282 27.8327C1.44431 27.846 0.85215 27.857 0.251709 27.8658V25.1191L4.88085 25.1605Z" fill="#A00142"/>
<path d="M44.9686 25.629C45.3141 26.5805 45.5221 27.5308 45.5928 28.48L40.9107 28.4651C40.7429 27.4839 40.4046 26.5821 39.8958 25.7598C40.0006 25.8007 40.0503 25.7858 40.0448 25.7151C40.0436 25.7014 40.0453 25.6876 40.0497 25.6745C40.0541 25.6615 40.0611 25.6495 40.0703 25.6394C40.0795 25.6293 40.0906 25.6212 40.103 25.6157C40.1155 25.6102 40.1289 25.6074 40.1424 25.6075L44.6143 25.6025C44.6496 25.6025 44.67 25.6196 44.6756 25.6539C44.6822 25.6936 44.707 25.7024 44.7501 25.6804C44.771 25.6693 44.7909 25.6572 44.8097 25.6439C44.8626 25.6075 44.9156 25.6025 44.9686 25.629Z" fill="#A00142"/>
<path d="M0.251709 27.8659C0.85215 27.857 1.44431 27.846 2.0282 27.8328C2.13968 27.8305 2.24619 27.8554 2.34774 27.9073C2.37643 27.9216 2.39189 27.9128 2.39409 27.8808C2.3952 27.8642 2.40348 27.8526 2.41893 27.846C2.43328 27.8394 2.44818 27.8366 2.46363 27.8377C2.84663 27.8543 3.22908 27.8791 3.61098 27.9122C3.65844 27.9155 3.69707 27.8984 3.72687 27.8609C3.75005 27.8322 3.79089 27.8212 3.84939 27.8278C4.23791 27.8764 4.58173 27.8857 4.88085 27.8559L4.87754 29.2798C4.58835 29.303 4.30083 29.3123 4.01495 29.3079C3.02378 29.2925 1.91341 29.2947 0.683828 29.3145C0.627537 29.3156 0.574557 29.325 0.524888 29.3427C0.46087 29.3659 0.415064 29.3443 0.387471 29.2781C0.386779 29.2768 0.386565 29.2752 0.386865 29.2738C0.387164 29.2723 0.387958 29.271 0.389116 29.27C0.390274 29.269 0.391726 29.2685 0.393233 29.2685C0.39474 29.2684 0.396211 29.2689 0.397404 29.2698C0.431621 29.2886 0.453144 29.2798 0.461974 29.2434C0.468596 29.2147 0.459215 29.1931 0.433828 29.1788C0.391886 29.1534 0.332283 29.1539 0.25502 29.1804L0.251709 27.8659Z" fill="#7E094B"/>
<path d="M40.9106 28.4653L45.5927 28.4802L45.6325 29.3842L44.8046 31.0216C44.7285 30.9576 44.5425 30.9256 44.2467 30.9256C43.1352 30.9234 42.0177 30.9201 40.894 30.9157C41.0232 30.0823 41.0287 29.2656 40.9106 28.4653Z" fill="#7E094B"/>
<path d="M0.254891 29.1804C0.332154 29.154 0.391756 29.1534 0.433699 29.1788C0.459085 29.1931 0.468467 29.2147 0.461845 29.2434C0.453015 29.2798 0.431491 29.2886 0.397275 29.2698C0.396082 29.2689 0.394611 29.2684 0.393104 29.2685C0.391597 29.2685 0.390144 29.269 0.388986 29.27C0.387828 29.271 0.387034 29.2723 0.386735 29.2738C0.386436 29.2753 0.38665 29.2768 0.387341 29.2781C0.414935 29.3444 0.460741 29.3659 0.524758 29.3427C0.574427 29.325 0.627407 29.3157 0.683699 29.3146C1.91328 29.2947 3.02365 29.2925 4.01482 29.3079C4.3007 29.3123 4.58822 29.303 4.87741 29.2798C4.905 30.112 5.0369 30.8482 5.2731 31.4884C6.27089 34.1849 8.25103 35.8968 11.2135 36.6242C6.37244 36.0061 2.7146 33.5463 0.23999 29.245C0.246613 29.2417 0.25158 29.2202 0.254891 29.1804Z" fill="#5B1251"/>
<path d="M0.23999 29.2451C2.7146 33.5464 6.37244 36.0062 11.2135 36.6243C12.5214 36.8119 13.7229 36.7584 14.8178 36.4637C17.3785 35.776 19.1743 34.1805 20.2052 31.6772C20.3244 31.5591 20.4221 31.6132 20.4983 31.8395C20.5159 31.8925 20.5137 31.9443 20.4916 31.9951C20.4508 32.0878 20.4679 32.1723 20.543 32.2484C20.5904 32.2981 20.607 32.356 20.5926 32.4223C20.5871 32.4466 20.5882 32.4703 20.5959 32.4935C20.6125 32.5409 20.644 32.5751 20.6903 32.5961C20.7565 32.6259 20.7808 32.6811 20.7632 32.7617C20.7567 32.7897 20.759 32.8192 20.7698 32.8461L20.9652 33.361C20.9769 33.3921 20.9985 33.4183 21.0264 33.4355C21.0871 33.4741 21.1136 33.531 21.1059 33.606C21.0926 33.7374 21.1263 33.8461 21.2069 33.9322C21.2554 33.9841 21.2709 34.0442 21.2532 34.1127C21.2356 34.1844 21.2626 34.2291 21.3344 34.2468C21.3807 34.2578 21.4078 34.2871 21.4155 34.3345C21.4464 34.5244 21.5121 34.7435 21.6125 34.9918C21.6313 35.036 21.6616 35.0696 21.7036 35.0928C21.7543 35.1193 21.772 35.1623 21.7565 35.2219C21.7444 35.2705 21.7483 35.3185 21.7681 35.366L21.9652 35.8345C21.9817 35.8743 22.0065 35.9074 22.0397 35.9339C22.086 35.9714 22.1064 36.0244 22.1009 36.0928C22.0888 36.2175 22.1186 36.3218 22.1903 36.4057C22.2256 36.4466 22.2466 36.4935 22.2532 36.5464C22.2742 36.6943 22.3498 36.8042 22.4801 36.8759C20.2163 39.5161 17.3581 40.999 13.9056 41.3246C12.2775 41.478 10.6395 41.2975 8.99164 40.7832C6.01372 39.8527 3.70136 38.0895 2.05456 35.4935C0.870233 33.627 0.265377 31.5442 0.23999 29.2451Z" fill="#009DE2"/>
<path d="M45.6324 29.384C45.8079 33.3724 43.7781 37.0777 40.5943 39.3493C40.3791 39.2168 40.2908 38.9056 40.3294 38.4155C40.3979 37.5579 40.3658 36.5066 40.2334 35.2615C42.0888 34.3013 43.6125 32.8879 44.8046 31.0215L45.6324 29.384Z" fill="#CE0916"/>
<path d="M44.8045 31.0215C43.6125 32.8879 42.0887 34.3013 40.2333 35.2616C39.0457 35.8554 37.9094 36.2527 36.8244 36.4536C36.5109 36.5209 36.24 36.5254 36.0115 36.4669C38.6583 35.5375 40.2858 33.6871 40.8939 30.9155C42.0175 30.9199 43.1351 30.9233 44.2466 30.9255C44.5424 30.9255 44.7284 30.9575 44.8045 31.0215Z" fill="#5B1251"/>
<path d="M70.6739 34.2336C70.3207 34.2347 70.2434 34.3809 70.4421 34.6723C70.5105 34.7705 70.5629 34.8472 70.5994 34.9024C70.766 35.1464 70.9967 35.2788 71.2914 35.2998C71.7649 35.334 72.2213 35.2523 72.6606 35.0548C72.8052 34.9907 72.9101 35.0305 72.9752 35.174L73.2749 35.8346C73.3422 35.9836 73.3024 36.0934 73.1556 36.164C72.2219 36.6155 71.2721 36.706 70.3063 36.4355C68.7517 36.0001 68.6093 34.1028 68.9404 32.7832C69.3527 31.1392 71.1639 30.6922 72.5927 31.3097C73.5066 31.7038 73.8229 32.8826 73.6143 33.7567C73.4967 34.2485 73.1623 34.2385 72.7335 34.2369C72.0767 34.2336 71.3902 34.2325 70.6739 34.2336ZM70.4768 33.3147L72.1689 33.265C72.1787 33.2646 72.1883 33.2622 72.1972 33.2581C72.206 33.254 72.214 33.2481 72.2206 33.2409C72.2272 33.2336 72.2324 33.2252 72.2357 33.216C72.239 33.2068 72.2405 33.197 72.2401 33.1872V33.1607C72.2327 32.9225 72.1313 32.697 71.9581 32.5337C71.7848 32.3705 71.554 32.2827 71.3162 32.2899L71.2699 32.2915C71.0321 32.2984 70.8069 32.3996 70.6436 32.5728C70.4803 32.7461 70.3923 32.9772 70.399 33.2153L70.4007 33.2418C70.4009 33.2516 70.403 33.2613 70.407 33.2702C70.4109 33.2792 70.4166 33.2873 70.4237 33.294C70.4307 33.3008 70.4391 33.3061 70.4482 33.3097C70.4573 33.3132 70.4671 33.3149 70.4768 33.3147Z" fill="#181716"/>
<path d="M85.6945 34.2842C85.694 34.5869 85.6338 34.8865 85.5175 35.1659C85.4012 35.4453 85.231 35.699 85.0166 35.9127C84.8022 36.1263 84.5479 36.2956 84.2681 36.411C83.9883 36.5263 83.6885 36.5854 83.3858 36.5848L82.9388 36.5841C82.6362 36.5835 82.3366 36.5234 82.0572 36.4071C81.7777 36.2908 81.524 36.1206 81.3104 35.9062C81.0967 35.6918 80.9274 35.4375 80.8121 35.1577C80.6967 34.8778 80.6377 34.5781 80.6382 34.2754L80.6398 33.3648C80.6403 33.0622 80.7004 32.7626 80.8167 32.4832C80.9331 32.2038 81.1033 31.95 81.3176 31.7364C81.532 31.5227 81.7864 31.3534 82.0662 31.2381C82.346 31.1228 82.6458 31.0637 82.9484 31.0642L83.3955 31.065C83.6981 31.0655 83.9977 31.1257 84.2771 31.242C84.5565 31.3583 84.8103 31.5285 85.0239 31.7428C85.2375 31.9572 85.4068 32.2116 85.5222 32.4914C85.6375 32.7712 85.6966 33.071 85.6961 33.3737L85.6945 34.2842ZM83.1199 35.3456C83.3925 35.3522 83.6579 35.1979 83.8576 34.9164C84.0574 34.6349 84.1751 34.2494 84.185 33.8447C84.1949 33.44 84.0961 33.0492 83.9104 32.7583C83.7246 32.4674 83.4671 32.3002 83.1945 32.2935C82.9219 32.2869 82.6565 32.4413 82.4568 32.7227C82.257 33.0042 82.1393 33.3897 82.1294 33.7944C82.1195 34.1992 82.2183 34.59 82.404 34.8809C82.5898 35.1717 82.8473 35.3389 83.1199 35.3456Z" fill="#181716"/>
<path d="M95.5678 32.404C94.4701 32.4388 94.4436 33.9587 94.6952 34.6391C95.0098 35.4934 96.1654 35.265 96.8178 34.9918C96.9513 34.9355 97.044 34.9752 97.0959 35.111L97.3757 35.8577C97.4024 35.9282 97.4003 36.0064 97.37 36.0754C97.3396 36.1444 97.2834 36.1988 97.2135 36.2269C95.6654 36.8444 93.5711 36.8428 93.1207 34.8626C92.7383 33.1871 93.2582 31.1871 95.2863 31.0597C95.964 31.0166 96.6125 31.1441 97.2317 31.4421C97.2547 31.453 97.2728 31.4721 97.2824 31.4958C97.2919 31.5194 97.2921 31.5458 97.283 31.5696L96.9303 32.5282C96.9186 32.5601 96.8953 32.5865 96.8652 32.6018C96.835 32.6172 96.8003 32.6205 96.7681 32.611C96.3674 32.5001 95.9899 32.3908 95.5678 32.404Z" fill="#181716"/>
<path d="M162.954 32.9669C162.924 32.2864 162.359 32.192 161.813 32.2566C161.382 32.3074 160.974 32.3747 160.586 32.4586C160.492 32.4784 160.435 32.442 160.416 32.3493L160.233 31.538C160.21 31.4376 160.248 31.3719 160.346 31.341C161.313 31.0364 162.221 30.9624 163.07 31.1192C163.979 31.288 164.437 31.8929 164.442 32.9337C164.448 33.9823 164.448 34.9393 164.444 35.8046C164.442 36.0574 164.311 36.2207 164.053 36.2947C162.935 36.617 161.896 36.6694 160.935 36.452C160.027 36.2467 159.584 35.442 159.75 34.5496C160.033 33.0265 161.575 32.9933 162.826 33.0894C162.914 33.096 162.957 33.0552 162.954 32.9669ZM161.662 34.1804C161.247 34.3195 161.108 34.9205 161.469 35.2086C161.811 35.4818 162.411 35.4056 162.808 35.298C162.838 35.29 162.865 35.2721 162.884 35.2473C162.903 35.2224 162.914 35.1919 162.914 35.1606V34.2284C162.914 34.1644 162.882 34.1291 162.818 34.1225C162.318 34.0706 161.933 34.0899 161.662 34.1804Z" fill="#181716"/>
<path d="M169.209 33.7053C169.802 33.9846 170.06 34.4465 169.98 35.0911C169.75 36.9702 166.762 36.654 165.632 36.25C165.476 36.1937 165.425 36.0872 165.48 35.9305L165.713 35.2633C165.765 35.1143 165.867 35.063 166.018 35.1093C166.564 35.2765 168.503 35.712 168.475 34.712C168.462 34.2103 167.53 34.1937 167.199 34.1822C167.046 34.1777 166.97 34.0994 166.97 33.9471V33.4967C166.97 33.4315 166.995 33.3688 167.04 33.3216C167.085 33.2744 167.147 33.2464 167.212 33.2434C167.487 33.2285 168.424 33.159 168.29 32.6557C168.119 32.0083 166.613 32.4206 166.199 32.5547C166.159 32.5673 166.116 32.564 166.079 32.5455C166.042 32.5269 166.014 32.4946 166 32.4553L165.725 31.6855C165.69 31.5861 165.721 31.5155 165.818 31.4735C166.649 31.117 167.493 30.9907 168.351 31.0944C168.919 31.1623 169.561 31.4255 169.758 32.0116C169.972 32.649 169.738 33.2103 169.199 33.5861C169.132 33.6314 169.136 33.6711 169.209 33.7053Z" fill="#181716"/>
<path d="M64.2799 36.5596V38.4155C64.2799 38.4696 64.2523 38.4967 64.1971 38.4967L62.8726 38.5C62.8174 38.5 62.7898 38.4718 62.7898 38.4155V31.7069C62.7899 31.6544 62.806 31.6033 62.8359 31.5604C62.8658 31.5174 62.908 31.4848 62.957 31.4668C63.9703 31.0949 64.9471 30.9867 65.8875 31.1423C67.5431 31.4155 67.957 33.0894 67.7037 34.5033C67.3825 36.293 66.1077 36.7914 64.3875 36.4718C64.3157 36.4575 64.2799 36.4867 64.2799 36.5596ZM64.2716 32.6887L64.2583 34.947C64.2581 34.9892 64.2662 35.031 64.2822 35.07C64.2981 35.1091 64.3216 35.1446 64.3512 35.1746C64.3809 35.2046 64.4162 35.2284 64.4551 35.2447C64.494 35.2611 64.5357 35.2696 64.5779 35.2698L65.1044 35.2731C65.2458 35.274 65.386 35.2451 65.517 35.1882C65.648 35.1313 65.7671 35.0475 65.8677 34.9416C65.9683 34.8356 66.0482 34.7096 66.1031 34.5708C66.1579 34.4319 66.1864 34.283 66.1871 34.1324L66.1905 33.5231C66.1919 33.2195 66.08 32.9278 65.8795 32.712C65.679 32.4963 65.4061 32.3741 65.1209 32.3725L64.5944 32.3692C64.5522 32.3689 64.5104 32.377 64.4714 32.393C64.4323 32.4089 64.3968 32.4324 64.3668 32.4621C64.3368 32.4917 64.313 32.527 64.2967 32.5659C64.2803 32.6048 64.2718 32.6465 64.2716 32.6887Z" fill="#181716"/>
<path d="M105.133 36.6308V38.3328C105.133 38.4431 105.077 38.4983 104.967 38.4983H103.808C103.67 38.4983 103.601 38.4293 103.601 38.2914V31.7599C103.601 31.709 103.615 31.6592 103.641 31.616C103.668 31.5728 103.705 31.5378 103.75 31.5149C104.512 31.1258 105.55 31.0364 106.368 31.091C107.523 31.1683 108.233 31.7522 108.497 32.8427C108.72 33.7632 108.641 34.8973 108.083 35.6887C107.541 36.4569 106.62 36.7191 105.32 36.4751C105.195 36.452 105.133 36.5038 105.133 36.6308ZM105.128 32.6821L105.114 34.947C105.114 34.9885 105.122 35.0297 105.138 35.0681C105.153 35.1066 105.177 35.1416 105.206 35.1711C105.235 35.2006 105.27 35.2241 105.308 35.2402C105.346 35.2563 105.387 35.2647 105.429 35.2649L105.974 35.2682C106.112 35.269 106.25 35.2387 106.379 35.179C106.507 35.1193 106.624 35.0315 106.723 34.9205C106.821 34.8095 106.9 34.6775 106.954 34.532C107.008 34.3866 107.036 34.2305 107.037 34.0728L107.04 33.5761C107.041 33.2579 106.932 32.9523 106.735 32.7262C106.538 32.5002 106.27 32.3724 105.99 32.3708L105.445 32.3675C105.404 32.3673 105.363 32.3753 105.324 32.391C105.286 32.4067 105.251 32.4298 105.221 32.459C105.192 32.4882 105.168 32.5229 105.152 32.5612C105.136 32.5995 105.128 32.6406 105.128 32.6821Z" fill="#181716"/>
<path d="M155.215 36.5829V38.3329C155.215 38.4432 155.16 38.4984 155.05 38.4984H153.844C153.738 38.4984 153.685 38.4454 153.685 38.3395C153.683 36.2192 153.683 34.0917 153.684 31.957C153.684 31.6513 153.811 31.4576 154.066 31.3759C154.773 31.1496 155.549 31.0531 156.396 31.0862C157.771 31.1408 158.531 32.0067 158.664 33.3362C158.728 33.9841 158.663 34.5762 158.468 35.1127C157.963 36.51 156.634 36.7203 155.344 36.4769C155.258 36.4603 155.215 36.4957 155.215 36.5829ZM155.199 32.6789L155.202 34.9637C155.202 35.0042 155.21 35.0444 155.225 35.0819C155.241 35.1194 155.264 35.1534 155.293 35.182C155.321 35.2106 155.356 35.2333 155.393 35.2486C155.431 35.264 155.471 35.2718 155.511 35.2716L156.055 35.27C156.338 35.2691 156.609 35.1415 156.809 34.9152C157.009 34.6889 157.121 34.3824 157.121 34.063V33.5729C157.12 33.4145 157.093 33.2577 157.038 33.1114C156.984 32.9652 156.905 32.8324 156.806 32.7206C156.706 32.6088 156.588 32.5202 156.458 32.46C156.328 32.3997 156.188 32.3689 156.048 32.3693L155.505 32.3709C155.423 32.3714 155.346 32.404 155.288 32.4617C155.231 32.5194 155.199 32.5975 155.199 32.6789Z" fill="#181716"/>
<path d="M76.4684 33.0778C77.139 33.1655 77.5098 32.9221 77.6787 32.2764C77.7703 31.9244 77.8763 31.5927 77.9966 31.2814C78.0242 31.2075 78.0777 31.171 78.1572 31.1721H79.2549C79.4006 31.1721 79.4546 31.2428 79.4171 31.3841C79.2825 31.8796 79.145 32.3653 79.0049 32.841C78.9188 33.1368 78.7471 33.373 78.49 33.5496C78.4171 33.6004 78.4226 33.6401 78.5065 33.6688C78.7935 33.7682 78.9822 33.9475 79.0728 34.2069C79.3277 34.9299 79.5463 35.6639 79.7284 36.4089C79.7294 36.4137 79.7294 36.4186 79.7283 36.4233C79.7273 36.428 79.7253 36.4324 79.7225 36.4362C79.7196 36.44 79.716 36.4431 79.7119 36.4453C79.7077 36.4474 79.7032 36.4485 79.6986 36.4486C79.2825 36.4773 78.815 36.4817 78.2963 36.4619C78.2822 36.4613 78.2686 36.4566 78.2573 36.4483C78.2461 36.4401 78.2377 36.4286 78.2333 36.4155C78.0612 35.8835 77.8879 35.3256 77.7135 34.7417C77.5545 34.2135 76.8873 34.1986 76.4453 34.2367C76.3923 34.2411 76.3658 34.2704 76.3658 34.3245V36.3857C76.3658 36.4409 76.3388 36.4685 76.2847 36.4685L74.9585 36.4702C74.9033 36.4702 74.8757 36.4426 74.8757 36.3874V31.3791C74.8757 31.2411 74.9447 31.1721 75.0827 31.1721H76.2002C76.3106 31.1721 76.3658 31.2273 76.3658 31.3377V32.9619C76.3658 33.0303 76.4 33.0689 76.4684 33.0778Z" fill="#181716"/>
<path d="M88.5911 33.0795H90.1324C90.1514 33.0795 90.1701 33.0757 90.1876 33.0685C90.205 33.0613 90.2209 33.0506 90.2343 33.0373C90.2477 33.0239 90.2583 33.008 90.2655 32.9905C90.2728 32.9731 90.2765 32.9543 90.2765 32.9354L90.2748 31.3212C90.2748 31.283 90.29 31.2463 90.317 31.2193C90.344 31.1923 90.3807 31.1771 90.4189 31.1771L91.6192 31.1738C91.6574 31.1738 91.694 31.189 91.721 31.216C91.7481 31.243 91.7632 31.2797 91.7632 31.3179V36.3228C91.7632 36.361 91.7481 36.3977 91.721 36.4247C91.694 36.4517 91.6574 36.4669 91.6192 36.4669L90.4172 36.4685C90.379 36.4685 90.3424 36.4534 90.3154 36.4263C90.2883 36.3993 90.2732 36.3627 90.2732 36.3245L90.2781 34.4172C90.2781 34.379 90.263 34.3424 90.236 34.3154C90.2089 34.2883 90.1723 34.2732 90.1341 34.2732H88.5911C88.5529 34.2732 88.5162 34.2883 88.4892 34.3154C88.4622 34.3424 88.447 34.379 88.447 34.4172L88.4536 36.3228C88.4536 36.361 88.4385 36.3977 88.4114 36.4247C88.3844 36.4517 88.3478 36.4669 88.3096 36.4669L87.106 36.4685C87.0678 36.4685 87.0311 36.4534 87.0041 36.4263C86.9771 36.3993 86.9619 36.3627 86.9619 36.3245V31.3195C86.9619 31.2813 86.9771 31.2447 87.0041 31.2177C87.0311 31.1907 87.0678 31.1755 87.106 31.1755L88.3079 31.1771C88.3461 31.1771 88.3828 31.1923 88.4098 31.2193C88.4368 31.2463 88.452 31.283 88.452 31.3212L88.447 32.9354C88.447 32.9543 88.4507 32.9731 88.458 32.9905C88.4652 33.008 88.4758 33.0239 88.4892 33.0373C88.5026 33.0506 88.5185 33.0613 88.5359 33.0685C88.5534 33.0757 88.5721 33.0795 88.5911 33.0795Z" fill="#181716"/>
<path d="M99.4537 32.4072L98.1093 32.4171C98.0919 32.4171 98.0747 32.4137 98.0586 32.407C98.0425 32.4004 98.0279 32.3906 98.0156 32.3783C98.0033 32.366 97.9936 32.3514 97.9869 32.3353C97.9803 32.3193 97.9769 32.3021 97.9769 32.2847L97.9702 31.3045C97.97 31.2869 97.9733 31.2693 97.98 31.2529C97.9866 31.2366 97.9965 31.2217 98.009 31.2092C98.0215 31.1967 98.0364 31.1868 98.0528 31.1802C98.0691 31.1735 98.0867 31.1702 98.1043 31.1704L102.596 31.1754C102.631 31.1754 102.665 31.1893 102.69 31.2142C102.715 31.239 102.729 31.2727 102.729 31.3078L102.725 32.2764C102.725 32.2938 102.722 32.311 102.715 32.3271C102.708 32.3431 102.699 32.3577 102.686 32.37C102.674 32.3823 102.659 32.3921 102.643 32.3987C102.627 32.4054 102.61 32.4088 102.593 32.4088L101.205 32.4105C101.17 32.4105 101.137 32.4244 101.112 32.4493C101.087 32.4741 101.073 32.5078 101.073 32.5429L101.078 36.3343C101.078 36.3695 101.064 36.4031 101.039 36.428C101.014 36.4528 100.981 36.4668 100.945 36.4668H99.7169C99.6818 36.4668 99.6481 36.4528 99.6233 36.428C99.5984 36.4031 99.5845 36.3695 99.5845 36.3343L99.5878 32.5413C99.588 32.5236 99.5847 32.5061 99.578 32.4897C99.5714 32.4733 99.5615 32.4585 99.549 32.446C99.5365 32.4335 99.5216 32.4236 99.5052 32.4169C99.4889 32.4103 99.4713 32.407 99.4537 32.4072Z" fill="#181716"/>
<path d="M112.043 34.9784L113.116 31.3857C113.159 31.2433 113.254 31.1721 113.402 31.1721H114.599C114.748 31.1721 114.799 31.2428 114.75 31.384C114.183 33.0242 113.534 34.9403 112.805 37.1324C112.49 38.0744 112.026 38.6191 110.916 38.6208C110.563 38.6219 110.219 38.5744 109.882 38.4784C109.753 38.4409 109.702 38.3559 109.73 38.2234L109.889 37.4635C109.919 37.3211 110.005 37.2659 110.149 37.2979C111.081 37.5049 111.404 37.2268 111.608 36.3393C111.61 36.3303 111.61 36.3208 111.608 36.3117C111.606 36.3026 111.602 36.294 111.596 36.2867C111.591 36.2793 111.583 36.2734 111.575 36.2693C111.567 36.2653 111.557 36.2632 111.548 36.2632H111.245C111.169 36.2632 111.095 36.2394 111.033 36.1952C110.971 36.151 110.924 36.0886 110.899 36.0165L109.311 31.3923C109.303 31.3671 109.3 31.3403 109.304 31.314C109.308 31.2877 109.318 31.2628 109.334 31.2412C109.349 31.2197 109.369 31.2022 109.393 31.1902C109.416 31.1782 109.442 31.172 109.468 31.1721H110.72C110.844 31.1721 110.922 31.2312 110.954 31.3493L111.96 34.9784C111.963 34.9874 111.968 34.9953 111.976 35.001C111.983 35.0066 111.992 35.0096 112.002 35.0096C112.011 35.0096 112.02 35.0066 112.028 35.001C112.035 34.9953 112.04 34.9874 112.043 34.9784Z" fill="#181716"/>
<path d="M119.255 33.6556C119.561 33.7549 119.773 33.9894 119.891 34.3592C120.118 35.0656 120.314 35.7444 120.477 36.3956C120.479 36.404 120.48 36.4128 120.478 36.4213C120.476 36.4299 120.473 36.4379 120.467 36.4448C120.462 36.4517 120.455 36.4573 120.447 36.4611C120.44 36.4649 120.431 36.4669 120.422 36.4668L119.061 36.4701C119.044 36.4701 119.026 36.4643 119.012 36.4536C118.998 36.4429 118.987 36.4278 118.982 36.4105C118.814 35.8432 118.642 35.2913 118.465 34.7549C118.278 34.1854 117.702 34.2135 117.219 34.2334C117.163 34.2356 117.136 34.2643 117.136 34.3195V36.3228C117.136 36.361 117.121 36.3976 117.094 36.4246C117.067 36.4516 117.03 36.4668 116.992 36.4668L115.772 36.4718C115.688 36.4718 115.646 36.4298 115.646 36.346V31.2963C115.646 31.2146 115.687 31.1738 115.77 31.1738L116.97 31.1721C117.081 31.1721 117.136 31.2273 117.136 31.3377V32.9602C117.136 33.0209 117.166 33.0562 117.227 33.0662C117.935 33.1837 118.282 32.8824 118.449 32.2317C118.532 31.9094 118.63 31.6037 118.743 31.3145C118.781 31.2196 118.85 31.1721 118.952 31.1721H119.998C120.151 31.1721 120.208 31.2455 120.171 31.3923C120.026 31.9519 119.876 32.4679 119.722 32.9403C119.636 33.2008 119.476 33.405 119.242 33.5529C119.173 33.5971 119.178 33.6313 119.255 33.6556Z" fill="#181716"/>
<path d="M124.917 35.1456V31.3029C124.917 31.2691 124.931 31.2367 124.954 31.2128C124.978 31.1889 125.011 31.1754 125.045 31.1754L126.242 31.1721C126.352 31.171 126.407 31.2262 126.407 31.3377V35.1804C126.407 35.2433 126.439 35.2742 126.503 35.2731C126.672 35.2698 126.839 35.288 127.003 35.3278C127.062 35.3423 127.114 35.3768 127.15 35.4254C127.187 35.474 127.205 35.5337 127.202 35.5943L127.091 37.8162C127.085 37.9398 127.021 38.0016 126.897 38.0016H126.045C125.912 38.0016 125.844 37.9359 125.839 37.8046L125.796 36.5761C125.794 36.5055 125.757 36.4701 125.685 36.4701H122.103C121.96 36.4701 121.823 36.4135 121.722 36.3125C121.621 36.2116 121.564 36.0748 121.564 35.9321V31.3791C121.564 31.2411 121.633 31.1721 121.771 31.1721H122.889C122.999 31.1721 123.055 31.2273 123.055 31.3377V35.187C123.055 35.2422 123.082 35.2698 123.137 35.2698H124.793C124.876 35.2698 124.917 35.2284 124.917 35.1456Z" fill="#181716"/>
<path d="M131.747 33.4885C131.747 33.3527 131.711 33.3428 131.641 33.4587C131.09 34.3616 130.505 35.2826 129.887 36.2219C129.657 36.5746 128.97 36.4885 128.599 36.4537C128.509 36.4451 128.425 36.4031 128.364 36.3361C128.304 36.2691 128.27 36.1817 128.27 36.0911V31.3378C128.27 31.2263 128.325 31.1712 128.435 31.1723L129.594 31.1739C129.676 31.1739 129.717 31.2148 129.717 31.2964L129.72 34.2319C129.72 34.3908 129.76 34.4013 129.841 34.2633C130.366 33.3627 130.927 32.4515 131.523 31.5299C131.585 31.4338 131.658 31.3483 131.742 31.2733C131.785 31.2346 131.834 31.2114 131.891 31.2037C132.207 31.1574 132.527 31.1546 132.849 31.1954C133.17 31.2352 133.235 31.4703 133.235 31.7435C133.237 33.2733 133.238 34.8108 133.237 36.356C133.236 36.4322 133.197 36.4703 133.121 36.4703H131.829C131.774 36.4703 131.747 36.4427 131.747 36.3875V33.4885Z" fill="#181716"/>
<path d="M138.109 33.414C137.554 34.3224 136.972 35.2446 136.363 36.1806C136.091 36.5961 135.581 36.4637 135.162 36.4687C134.869 36.4736 134.687 36.2501 134.686 35.9736C134.686 34.3842 134.686 32.8307 134.686 31.313C134.686 31.2766 134.7 31.2416 134.725 31.2159C134.751 31.1901 134.785 31.1756 134.821 31.1756L136.008 31.1706C136.12 31.1706 136.176 31.2258 136.176 31.3362L136.177 34.2004C136.177 34.355 136.216 34.3655 136.295 34.2319C136.879 33.2485 137.466 32.3031 138.056 31.3958C138.265 31.0763 139.043 31.1541 139.328 31.2071C139.564 31.2512 139.683 31.4008 139.686 31.6557C139.699 33.0465 139.7 34.5967 139.691 36.3064C139.69 36.35 139.672 36.3917 139.641 36.4224C139.61 36.4531 139.569 36.4703 139.525 36.4703H138.369C138.259 36.4703 138.204 36.4151 138.204 36.3047V33.4405C138.204 33.3202 138.172 33.3114 138.109 33.414Z" fill="#181716"/>
<path d="M145.772 34.2517C146.343 33.3202 146.917 32.3969 147.492 31.4819C147.624 31.2699 147.848 31.1706 148.089 31.1656C148.538 31.1557 149.177 31.0564 149.176 31.7236C149.172 33.2997 149.171 34.8511 149.172 36.3776C149.172 36.4394 149.141 36.4703 149.079 36.4703H147.765C147.743 36.4703 147.722 36.4615 147.706 36.446C147.691 36.4305 147.682 36.4094 147.682 36.3875V33.457C147.682 33.35 147.654 33.3422 147.598 33.4338C147.039 34.3444 146.471 35.2457 145.894 36.1375C145.586 36.611 145.063 36.4719 144.594 36.462C144.49 36.4598 144.391 36.417 144.319 36.3427C144.246 36.2684 144.205 36.1686 144.205 36.0646V31.2964C144.205 31.2136 144.247 31.1723 144.329 31.1723H145.53C145.574 31.1723 145.616 31.1897 145.647 31.2207C145.678 31.2518 145.695 31.2939 145.695 31.3378V34.2302C145.695 34.3284 145.721 34.3356 145.772 34.2517Z" fill="#181716"/>
<path d="M175.306 33.6075C175.816 33.8162 176.076 34.3592 176.043 34.894C175.96 36.2118 174.818 36.5082 173.618 36.4784C172.94 36.4607 172.276 36.4591 171.627 36.4734C171.566 36.4748 171.504 36.4637 171.447 36.441C171.39 36.4183 171.337 36.3844 171.293 36.3412C171.249 36.298 171.214 36.2465 171.19 36.1896C171.166 36.1327 171.154 36.0716 171.154 36.0099L171.151 31.7383C171.151 31.373 171.333 31.1865 171.699 31.1787C172.617 31.1578 173.489 31.1627 174.316 31.1936C175.095 31.2223 175.574 31.5253 175.752 32.1026C175.927 32.6721 175.774 33.1434 175.293 33.5165C175.244 33.554 175.249 33.5844 175.306 33.6075ZM172.639 32.4221L172.636 33.0645C172.636 33.0779 172.638 33.0912 172.643 33.1037C172.648 33.1161 172.655 33.1274 172.665 33.137C172.674 33.1465 172.685 33.1541 172.698 33.1593C172.71 33.1645 172.723 33.1671 172.737 33.1671L173.755 33.1705C173.821 33.1707 173.886 33.1612 173.947 33.1423C174.007 33.1235 174.063 33.0958 174.109 33.0607C174.156 33.0256 174.193 32.984 174.218 32.938C174.243 32.8921 174.256 32.8428 174.257 32.793V32.7069C174.257 32.6064 174.205 32.5098 174.111 32.4384C174.018 32.367 173.891 32.3266 173.758 32.3261L172.74 32.3228C172.714 32.3228 172.688 32.3332 172.669 32.3518C172.65 32.3703 172.639 32.3956 172.639 32.4221ZM172.636 34.2416L172.632 35.2284C172.632 35.2534 172.642 35.2774 172.66 35.2951C172.678 35.3128 172.702 35.3228 172.727 35.3228L173.856 35.3244C173.941 35.3247 174.025 35.3104 174.104 35.2826C174.182 35.2548 174.254 35.2139 174.314 35.1622C174.374 35.1105 174.422 35.0492 174.455 34.9815C174.488 34.9139 174.505 34.8414 174.505 34.7681V34.7085C174.505 34.5606 174.438 34.4185 174.316 34.3135C174.195 34.2086 174.031 34.1494 173.859 34.1489L172.73 34.1473C172.705 34.1473 172.681 34.1572 172.663 34.1749C172.646 34.1926 172.636 34.2166 172.636 34.2416Z" fill="#181716"/>
<path d="M180.795 33.4056C180.794 33.3984 180.792 33.3916 180.787 33.386C180.783 33.3804 180.776 33.3763 180.77 33.3743C180.763 33.3723 180.755 33.3725 180.749 33.3748C180.742 33.3772 180.736 33.3815 180.732 33.3874L178.942 36.2218C178.897 36.2919 178.837 36.3504 178.765 36.3925C178.693 36.4345 178.612 36.4589 178.528 36.4635C178.127 36.4834 177.293 36.6258 177.286 35.9867C177.272 34.4679 177.27 32.9298 177.281 31.3725C177.282 31.2378 177.35 31.1705 177.483 31.1705L178.601 31.1738C178.711 31.1738 178.766 31.2284 178.766 31.3377V34.2383C178.766 34.3598 178.798 34.3686 178.861 34.2648C179.449 33.3035 180.037 32.3559 180.626 31.4221C180.843 31.0761 181.541 31.1556 181.874 31.1887C182.228 31.2234 182.281 31.5099 182.283 31.8377C182.286 33.3244 182.286 34.814 182.281 36.3062C182.281 36.3497 182.264 36.3914 182.233 36.4221C182.203 36.4529 182.161 36.4701 182.117 36.4701H180.96C180.85 36.4701 180.795 36.4149 180.795 36.3046V33.4056Z" fill="#181716"/>
<path d="M186.296 32.5546L186.301 36.3195C186.301 36.3585 186.286 36.396 186.258 36.4237C186.23 36.4513 186.193 36.4668 186.154 36.4668L184.957 36.4685C184.938 36.4685 184.918 36.4647 184.901 36.4573C184.883 36.4499 184.866 36.439 184.853 36.4253C184.839 36.4116 184.828 36.3954 184.821 36.3775C184.813 36.3596 184.81 36.3405 184.81 36.3211L184.813 32.5546C184.813 32.5351 184.809 32.5158 184.801 32.4978C184.794 32.4798 184.783 32.4635 184.769 32.4498C184.755 32.4361 184.739 32.4253 184.721 32.418C184.703 32.4106 184.683 32.407 184.664 32.4072L183.344 32.4172C183.325 32.4174 183.306 32.4137 183.287 32.4064C183.269 32.3991 183.253 32.3883 183.239 32.3746C183.225 32.3609 183.214 32.3446 183.207 32.3266C183.199 32.3086 183.195 32.2893 183.195 32.2698V31.3195C183.195 31.3001 183.199 31.281 183.207 31.2631C183.214 31.2452 183.225 31.229 183.238 31.2153C183.252 31.2016 183.268 31.1907 183.286 31.1833C183.304 31.1759 183.323 31.1721 183.343 31.1721L187.803 31.1738C187.842 31.1738 187.879 31.1893 187.907 31.2169C187.935 31.2446 187.95 31.282 187.95 31.3211L187.947 32.2665C187.947 32.3056 187.931 32.343 187.904 32.3707C187.876 32.3983 187.839 32.4138 187.8 32.4138L186.444 32.4072C186.405 32.4072 186.367 32.4227 186.339 32.4504C186.312 32.478 186.296 32.5155 186.296 32.5546Z" fill="#181716"/>
<path d="M192.257 33.4173C191.677 34.3599 191.091 35.2881 190.498 36.202C190.387 36.3742 190.23 36.4614 190.028 36.4636C189.5 36.4686 188.829 36.659 188.826 35.8494C188.819 34.3626 188.82 32.8615 188.828 31.3461C188.828 31.2313 188.885 31.1739 189 31.1739L190.149 31.1722C190.259 31.1722 190.315 31.2274 190.315 31.3378L190.316 34.1921C190.316 34.3389 190.355 34.3499 190.432 34.2252L192.182 31.404C192.215 31.3516 192.258 31.3068 192.31 31.2728C192.361 31.2388 192.419 31.2164 192.48 31.207C192.901 31.1408 193.829 31.0017 193.831 31.6904C193.833 33.2169 193.833 34.7545 193.831 36.303C193.831 36.3474 193.813 36.3899 193.782 36.4213C193.751 36.4526 193.708 36.4703 193.664 36.4703H192.467C192.384 36.4703 192.343 36.4289 192.343 36.3461V33.4404C192.343 33.3312 192.314 33.3235 192.257 33.4173Z" fill="#181716"/>
<path d="M195.993 34.0578C195.605 33.8735 195.376 33.5843 195.308 33.1903C195.166 32.3691 195.413 31.7819 196.05 31.4287C196.406 31.2311 196.943 31.1423 197.661 31.1621C198.242 31.1787 198.843 31.1842 199.464 31.1787C199.523 31.1783 199.582 31.1896 199.637 31.212C199.692 31.2345 199.742 31.2676 199.784 31.3094C199.826 31.3513 199.86 31.4011 199.883 31.4559C199.905 31.5108 199.917 31.5696 199.917 31.629V36.3873C199.917 36.4414 199.89 36.469 199.834 36.4701H198.573C198.503 36.4701 198.468 36.4359 198.468 36.3674V34.5711C198.468 34.517 198.441 34.4883 198.387 34.485C197.785 34.4568 197.03 34.3426 196.819 35.0893C196.707 35.4878 196.589 35.873 196.467 36.2449C196.445 36.3109 196.403 36.3682 196.347 36.4087C196.291 36.4492 196.223 36.4707 196.154 36.4701H195.119C194.96 36.4701 194.906 36.3939 194.955 36.2416C195.104 35.7858 195.257 35.315 195.414 34.8294C195.482 34.6174 195.589 34.4442 195.733 34.3095C195.78 34.2665 195.832 34.2328 195.891 34.2085L195.992 34.1688C196.076 34.1334 196.076 34.0965 195.993 34.0578ZM198.47 33.4204L198.473 32.4105C198.473 32.4003 198.471 32.3902 198.468 32.3807C198.464 32.3713 198.458 32.3627 198.451 32.3555C198.443 32.3482 198.435 32.3425 198.425 32.3386C198.416 32.3347 198.406 32.3327 198.396 32.3327L197.467 32.3294C197.283 32.3288 197.106 32.3842 196.975 32.4835C196.844 32.5829 196.771 32.718 196.77 32.8592V32.9585C196.769 33.0286 196.787 33.0981 196.822 33.163C196.856 33.2279 196.907 33.287 196.972 33.3368C197.036 33.3866 197.113 33.4262 197.197 33.4534C197.282 33.4805 197.372 33.4946 197.464 33.4949L198.392 33.4982C198.413 33.4982 198.433 33.49 198.447 33.4754C198.462 33.4609 198.47 33.4411 198.47 33.4204Z" fill="#181716"/>
<path d="M40.2334 35.2615C40.3659 36.5065 40.3979 37.5578 40.3294 38.4154C40.2908 38.9055 40.3791 39.2168 40.5943 39.3492C39.5502 40.0744 38.4072 40.6114 37.1655 40.9602C37.1346 40.8674 37.07 40.8106 36.9718 40.7896C36.9461 40.7846 36.9229 40.7708 36.9063 40.7505C36.8897 40.7303 36.8807 40.7049 36.8808 40.6787L36.8245 36.4535C37.9095 36.2526 39.0458 35.8553 40.2334 35.2615Z" fill="#B70039"/>
<path d="M36.0115 36.4669C36.24 36.5254 36.511 36.5209 36.8244 36.4536L36.8807 40.6788C36.8806 40.705 36.8897 40.7304 36.9063 40.7506C36.9229 40.7709 36.9461 40.7847 36.9718 40.7897C37.07 40.8107 37.1346 40.8675 37.1655 40.9602C36.2196 41.2218 35.4756 41.3532 34.9337 41.3543C34.065 41.3554 33.15 41.3543 32.1887 41.351L32.187 36.7218C32.9475 36.7185 33.7251 36.7174 34.5198 36.7185C34.82 36.7185 35.3173 36.6346 36.0115 36.4669Z" fill="#A00142"/>
<path d="M28.197 36.7252C28.1098 36.7186 28.0706 36.8356 28.0794 37.0762C28.0871 37.2605 28.0904 37.3814 28.0893 37.4388C28.0562 38.7489 28.0744 40.053 28.144 41.351C27.7698 41.3554 27.3471 41.3565 26.8758 41.3543C26.3283 41.3521 25.921 41.287 25.6539 41.159C23.4751 40.1176 24.1407 36.8129 26.5744 36.7219C26.846 36.7108 27.3868 36.7119 28.197 36.7252Z" fill="#5B1251"/>
<path d="M28.1971 36.7252L32.1872 36.7219L32.1888 41.3511H28.1441C28.0746 40.053 28.0564 38.749 28.0895 37.4388C28.0906 37.3814 28.0873 37.2606 28.0796 37.0762C28.0707 36.8356 28.1099 36.7186 28.1971 36.7252Z" fill="#7E094B"/>
</g>
<defs>
<clipPath id="clip0_3113_28606">
<rect width="200" height="34.4371" fill="white" transform="translate(0 7)"/>
</clipPath>
</defs>
</svg>
