<svg width="118" height="42" viewBox="0 0 118 42" fill="none" xmlns="http://www.w3.org/2000/svg">
<g clip-path="url(#clip0_3696_11013)">
<path fill-rule="evenodd" clip-rule="evenodd" d="M8.02764 0L6.03756 5.45123H33.6157L35.6058 0H8.02764ZM5.04189 8.17561L3.05181 13.6256H30.63L32.62 8.17561H5.04189ZM2.06235 16.3512L0.0722656 21.8012H27.6504L29.6393 16.3512H2.06235Z" fill="white"/>
<mask id="mask0_3696_11013" style="mask-type:luminance" maskUnits="userSpaceOnUse" x="41" y="8" width="76" height="34">
<path d="M41.4492 41.6726H116.941V8.2804H41.4492V41.6726Z" fill="#0A2973"/>
</mask>
<g mask="url(#mask0_3696_11013)">
<path fill-rule="evenodd" clip-rule="evenodd" d="M58.7026 23.8785V23.9935C59.9629 24.4561 61.1668 25.2651 61.7976 25.7845C63.7464 27.4024 64.6067 29.5397 64.6067 32.3127C64.6067 36.878 62.1989 40.1706 58.2436 41.2108C57.0397 41.5571 55.7794 41.6734 53.428 41.6734H41.4492V8.2804H52.0536C54.2319 8.2804 55.7217 8.39541 57.0397 8.74173C60.8809 9.78194 63.4028 12.44 63.4028 16.6564C63.4028 18.91 62.6002 20.8173 61.2822 22.0875C60.7091 22.6652 59.9065 23.3591 58.7026 23.8785ZM48.0982 27.4024V36.1841H52.6844C54.0588 36.1841 55.3204 36.0691 56.2384 35.2021C57.1551 34.335 57.5564 33.2379 57.5564 31.7932C57.5564 30.6962 57.2692 29.6559 56.6961 28.9052C55.7217 27.6918 54.5178 27.4024 52.4549 27.4024H48.0982ZM48.0406 21.6249H51.7664C52.9126 21.6249 53.4857 21.6249 54.0588 21.4518C55.6076 20.9892 56.582 19.6039 56.582 17.6967C56.582 15.4443 55.5499 14.461 54.0588 13.9997C53.428 13.8265 52.7985 13.7684 51.5369 13.7684H48.0406V21.6249ZM74.5803 41.6734V13.8834H65.008V8.2804H91.6054L89.7143 13.8834H81.2293V41.6734H74.5803ZM93.6683 41.6734V8.2804H115.222L113.331 13.8834H100.261V21.2786H105.592C109.891 21.2786 112.127 22.3188 113.674 23.6472C114.878 24.6874 116.941 26.9979 116.941 31.5632C116.941 36.0691 114.821 38.5527 113.044 39.8242C110.981 41.2676 108.802 41.6734 104.388 41.6734H93.6683ZM100.261 36.0691H105.248C107.139 36.0691 108.286 35.6065 109.088 34.5663C109.49 34.0468 110.063 33.1216 110.063 31.3888C110.063 29.6559 109.49 28.4426 108.343 27.5755C107.656 27.056 106.738 26.7679 105.191 26.7679H100.261V36.0691Z" fill="white"/>
</g>
</g>
<defs>
<clipPath id="clip0_3696_11013">
<rect width="117.091" height="42" fill="white" transform="translate(0.0722656)"/>
</clipPath>
</defs>
</svg>
