<svg width="42" height="32" fill="none" xmlns="http://www.w3.org/2000/svg"><path fill-rule="evenodd" clip-rule="evenodd" d="M19.854 2.129A12.668 12.668 0 0 0 12.786 0C5.718 0 0 5.712 0 12.772c0 7.06 5.718 12.772 12.786 12.772 2.593 0 5.043-.78 7.068-2.129a1.945 1.945 0 0 1-.16-.124c-.053-.044-.107-.089-.16-.124a13.708 13.708 0 0 1-4.723-10.395c0-4.01 1.704-7.77 4.723-10.395.053-.035.107-.08.16-.124.053-.045.107-.089.16-.124Zm21.488 10.643C41.342 5.747 35.623 0 28.555 0c-2.628 0-5.043.78-7.067 2.129.053.035.106.08.16.124.053.044.106.089.16.124a13.708 13.708 0 0 1 4.723 10.395c0 3.973-1.74 7.77-4.724 10.395-.053.035-.106.08-.16.124a1.945 1.945 0 0 1-.16.124 12.755 12.755 0 0 0 7.069 2.129c7.067 0 12.786-5.712 12.786-12.772ZM21.008 3.024a2.536 2.536 0 0 0-.337-.257c-.089.071-.169.133-.249.195l-.248.195a12.717 12.717 0 0 0-4.405 9.65c0 3.832 1.705 7.309 4.405 9.65.142.142.32.284.497.39l.248-.195c.08-.062.16-.124.249-.195a12.717 12.717 0 0 0 4.404-9.65c0-3.831-1.705-7.308-4.404-9.65a6.296 6.296 0 0 1-.16-.133ZM7.27 29.811v2.12h-.823v-1.873c0-.568-.248-.885-.745-.885-.46 0-.815.284-.815.885v1.872h-.745v-1.872c0-.568-.248-.885-.744-.885-.497 0-.816.284-.816.885v1.872h-.744v-3.39h.744v.423c.282-.386.638-.493.993-.493.534 0 .89.214 1.138.6.319-.46.782-.6 1.208-.6.853 0 1.35.53 1.35 1.341Zm9.84-1.271h1.203v.67h-1.208v1.519c0 .35.14.563.496.563.178 0 .427-.037.642-.177l.215.638c-.248.14-.604.247-.923.247-.852 0-1.17-.457-1.17-1.234V29.21h-.675v-.67h.674v-1.025h.745v1.025Zm6.64.42a1.01 1.01 0 0 1 .89-.494c.14 0 .35 0 .5.028l-.215.708a2.3 2.3 0 0 0-.464-.07c-.463 0-.711.321-.711.885v1.909h-.745v-3.39h.745v.423Zm-10.05-.494c.534 0 1.03.107 1.386.353l-.315.601c-.215-.107-.64-.284-1.067-.284-.393 0-.641.14-.641.387 0 .21.248.28.567.317l.355.037c.708.107 1.171.424 1.171 1.024 0 .634-.57 1.095-1.564 1.095-.534 0-1.067-.14-1.456-.424l.356-.564a1.97 1.97 0 0 0 1.138.354c.496 0 .782-.177.782-.423 0-.177-.216-.285-.605-.354l-.355-.037c-.745-.103-1.171-.424-1.171-.988 0-.67.567-1.094 1.419-1.094Zm20.31.493a1.01 1.01 0 0 1 .89-.493c.145 0 .356 0 .5.037l-.214.7a2.301 2.301 0 0 0-.464-.07c-.463 0-.711.32-.711.884v1.909h-.745v-3.39h.745v.423ZM27.196 32c-1.1 0-1.812-.74-1.812-1.765s.712-1.77 1.812-1.765c.497 0 .852.103 1.208.387l-.355.6c-.286-.21-.571-.317-.89-.317-.604.033-1.03.457-1.03 1.095 0 .67.426 1.094 1.03 1.094.323 0 .604-.102.89-.317l.355.601c-.355.28-.711.387-1.208.387Zm5.077-3.46v3.39h-.745v-.424c-.215.317-.57.494-1.067.494-.96 0-1.705-.74-1.705-1.765s.745-1.765 1.705-1.765c.463 0 .819.177 1.067.493v-.423h.745Zm-1.705.6c-.641 0-1.03.494-1.03 1.095 0 .596.393 1.057 1.03 1.094.604 0 1.03-.493 1.03-1.094 0-.634-.426-1.095-1.03-1.095ZM18.92 30.23c0-1.057.712-1.764 1.705-1.764.956 0 1.597.707 1.564 1.798v.284h-2.52c.108.596.567.81 1.03.81.352 0 .708-.14.993-.354l.356.531c-.393.321-.89.46-1.386.46-1.03 0-1.742-.703-1.742-1.764Zm2.557-.316c-.07-.527-.389-.81-.852-.81-.534 0-.852.353-.923.81h1.775Zm17.65-2.716v4.732h-.744v-.424c-.215.317-.571.494-1.068.494-.96 0-1.704-.74-1.704-1.765s.745-1.765 1.704-1.765c.464 0 .82.177 1.068.493v-1.765h.745Zm-1.704 1.942c-.641 0-1.03.494-1.03 1.095 0 .596.389 1.057 1.03 1.094.604 0 1.03-.493 1.03-1.094 0-.634-.426-1.095-1.03-1.095Zm-25.963-.6v3.39h-.744v-.424c-.215.317-.571.494-1.068.494-.96 0-1.704-.74-1.704-1.765s.744-1.765 1.704-1.765c.464 0 .82.177 1.068.493v-.423h.744Zm-1.737.6c-.642 0-1.03.494-1.03 1.095 0 .596.388 1.057 1.03 1.094.604 0 1.03-.493 1.03-1.094 0-.634-.426-1.095-1.03-1.095Z" fill="#919EAB"/></svg>