<svg width="98" height="20" fill="none" xmlns="http://www.w3.org/2000/svg"><g clip-path="url(#a)" fill-rule="evenodd" clip-rule="evenodd"><path d="M93.945.097c4.387 0 4.387 6.564 0 6.564-4.37.016-4.37-6.564 0-6.564ZM25.413.984c.435 0 .822.08 1.129.258.29.177.452.42.468.71a.777.777 0 0 1-.194.419.597.597 0 0 1-.435.145.43.43 0 0 1-.194-.048.41.41 0 0 1-.193-.13 2.739 2.739 0 0 0-.549-.5 1.239 1.239 0 0 0-.742-.21c-.242 0-.451.082-.661.243a1.55 1.55 0 0 0-.484.645 7.58 7.58 0 0 0-.323 1.806c-.032.323-.032.646-.032.904v.484c0 .193 0 .322.032.387.033.064.113.096.259.064h1.838c.065.065.08.13.08.242l-.031.226-.017.064a.395.395 0 0 1-.177.146h-1.71c-.145-.017-.225.032-.258.096-.032.049-.032.178-.032.371v3.436c0 .37 0 .661.032.855.033.193.081.338.162.419.08.065.242.113.435.13l.565.047c.064.049.096.097.064.21a.436.436 0 0 1-.08.194l-.936-.065h-1.661l-.726.065c-.065-.049-.08-.113-.113-.194 0-.113.032-.177.097-.21l.37-.048c.194-.016.323-.064.42-.161.097-.065.13-.194.161-.403.049-.194.049-.484.017-.855V7.29c.016-.193.016-.322-.017-.355-.032-.064-.145-.113-.29-.096h-.58c-.049-.049-.065-.081-.065-.13a.32.32 0 0 1 .016-.177l.694-.339c.064-.016.113-.064.16-.112a.324.324 0 0 0 .065-.21c0-.984.178-1.952.517-2.855a6.55 6.55 0 0 1 .564-.935c.258-.323.597-.581.952-.775.451-.193.919-.322 1.403-.322Zm12.242 5.71a.505.505 0 0 0 .08.16h.436c.161-.015.258.033.306.098.033.048.049.177.049.37v3.694c-.016.323.016.63.113.871.113.258.258.484.5.629a2.324 2.324 0 0 0 2.113-.016c.29-.161.5-.306.629-.5.016-.049.016-.08-.033-.161-.016-.065-.064-.097-.129-.097-.016 0-.08.048-.177.097a.815.815 0 0 1-.242.112.353.353 0 0 0-.08.049.354.354 0 0 0-.081.048c-.097.016-.178.016-.226.016-.339-.016-.613-.096-.774-.274a1.055 1.055 0 0 1-.339-.661c-.064-.258-.08-.548-.08-.871v-3c0-.145.032-.258.064-.323.016-.064.097-.08.258-.064h1.774c.08-.065.13-.178.13-.323.031-.145-.017-.274-.13-.338h-1.774c-.13 0-.21-.017-.242-.049-.016-.016-.048-.097-.048-.258v-.742c-.033-.064-.097-.097-.178-.08-.08-.033-.145-.033-.177 0-.097.177-.21.338-.323.516-.097.161-.21.29-.355.419-.08.08-.21.177-.419.258-.177.113-.371.178-.613.242a.58.58 0 0 0-.032.177Zm-6.823 1.145c0 .129 0 .225-.016.29l-.032.064-.016.081c-.016.032-.08.065-.242.08-.162.017-.403.017-.726.017h-2.984c-.193-.032-.306 0-.355.048-.064.065-.08.194-.064.387 0 .549.113 1.033.306 1.5a2.457 2.457 0 0 0 2.371 1.5c.258.033.5-.048.71-.145.258-.113.5-.306.742-.629.113-.032.177 0 .226.016.048.049.064.113.096.178-.21.338-.419.629-.71.87a3.187 3.187 0 0 1-3.225.34 2.58 2.58 0 0 1-.952-.759 3.35 3.35 0 0 1-.661-2.096c0-.678.129-1.275.387-1.823a3.2 3.2 0 0 1 2.823-1.823c.484.017.903.097 1.242.275.322.193.596.435.79.725.21.29.29.597.29.904Zm-1.226-.404c0-.145-.048-.306-.112-.467a.73.73 0 0 0-.404-.355 1.464 1.464 0 0 0-.726-.178c-.322 0-.645.081-.887.242-.274.162-.5.339-.677.565-.145.193-.242.387-.258.58 0 .033 0 .033.016.049.032.032.049.032.113.032H27.8c.597 0 1.016-.032 1.274-.048.242-.033.371-.049.42-.08.032-.033.064-.065.064-.114a.57.57 0 0 0 .049-.226ZM35.962 6a4.395 4.395 0 0 0-2.92.484 3.67 3.67 0 0 0-1.29 1.338 3.895 3.895 0 0 0-.16 3.065c.177.42.403.758.677 1.016.29.29.629.484 1 .597.71.274 1.484.306 2.21.064.322-.096.66-.306.983-.548.307-.242.549-.565.726-.952-.016-.064-.048-.129-.097-.16-.048-.065-.113-.098-.193-.065-.178.274-.403.5-.678.693-.274.178-.629.258-1.096.258a2.45 2.45 0 0 1-2.323-1.467 2.908 2.908 0 0 1-.306-1.275c.032-.58.129-1.064.322-1.451.21-.371.5-.662.839-.855.322-.194.693-.29 1.064-.29.323 0 .662.08.952.258.274.16.484.338.677.564.049.048.081.08.13.097h.112c.097 0 .178-.065.242-.178a.948.948 0 0 0 .048-.79c-.048-.097-.096-.193-.193-.258A3.212 3.212 0 0 1 35.961 6Zm50.533.097c-.065.016-.097.096-.113.177 0 .113.016.178.064.21l.5.08c.145.033.242.065.307.113.064.049.096.081.096.162 0 .096-.048.29-.16.564l-.017.049-.403 1.016-.549 1.29-.032.08-.355.759c-.113.242-.177.338-.21.338A9.606 9.606 0 0 1 85.22 10l-.064-.194-.5-1.484-.016-.048a2.297 2.297 0 0 1-.145-.435l-.097-.29-.097-.307a1.382 1.382 0 0 1-.08-.436c0-.048.016-.096.064-.129h.016l.032-.016c.049-.016.13-.048.226-.064l.403-.081c.065-.048.081-.097.065-.21 0-.08-.049-.16-.097-.177a2.614 2.614 0 0 1-.355.016l-.37.032h-1.452c-.13-.016-.258-.016-.387-.032l-.371-.016c-.065.016-.113.097-.113.177-.016.113 0 .178.048.21l.42.08c.29.065.483.194.596.404.113.193.242.484.339.855l1.29 3.467c.097.29.178.5.21.662V12c.016.145.048.29.048.435 0 .113-.032.242-.064.371a1.957 1.957 0 0 1-.08.29v.017l-.017.016c-.065.194-.194.452-.339.742-.161.322-.355.677-.596 1.048-.065.08-.13.145-.21.21a.722.722 0 0 1-.323.065h-.306a.662.662 0 0 0-.452.177.86.86 0 0 0-.193.484c0 .193.064.37.193.5a.77.77 0 0 0 .516.177.723.723 0 0 0 .549-.129c.193-.097.338-.322.5-.629l.258-.564.42-.904.29-.645.451-.951c.226-.533.452-1.017.677-1.468l.017-.049c.225-.435.403-.806.516-1.096l.903-1.839c.29-.565.5-.984.694-1.242.21-.258.435-.42.677-.484l.29-.048a.267.267 0 0 0 .08-.21c-.031-.08-.064-.161-.128-.177l-.307.016-.306.032h-1.306l-.388-.032-.354-.016Zm-68.662-.355c.032.032.032.064.049.097v.919c0 .064.032.129.048.161.29-.242.597-.484.903-.677.274-.194.58-.29.887-.307.194.033.371.081.5.194.162.113.21.258.21.484a.91.91 0 0 1-.242.564.9.9 0 0 1-.452.162c-.096 0-.16 0-.21-.033-.015 0-.031-.016-.048-.032-.032-.016-.064-.048-.096-.064a1.628 1.628 0 0 0-.371-.194.842.842 0 0 0-.339-.064.407.407 0 0 0-.323.096.694.694 0 0 0-.241.242 1.258 1.258 0 0 0-.178.5c-.016.21-.048.452-.048.742v2.194c0 .37 0 .661.032.854.016.194.08.34.194.42.064.064.21.113.403.129l.596.048c.065.049.081.097.065.21 0 .08-.032.161-.08.194l-.952-.065h-1.645l-.694.065c-.048-.049-.065-.113-.08-.194-.033-.113 0-.177.064-.21l.322-.048a.616.616 0 0 0 .388-.161c.08-.065.16-.194.177-.404.032-.193.032-.483 0-.854V7.903c.032-.21.032-.339 0-.451a.496.496 0 0 0-.097-.307.8.8 0 0 0-.306-.21l-.162-.129c-.016-.032-.048-.064-.048-.129 0-.064.016-.145.08-.161l.05-.016c.193-.065.386-.161.564-.258l.467-.226.016-.016c.21-.097.388-.178.5-.274.049 0 .081 0 .097.016Zm-2.548 2.387c.016-.065.016-.177.016-.29a1.63 1.63 0 0 0-.29-.92 2.771 2.771 0 0 0-.774-.726c-.34-.177-.759-.258-1.226-.274a3.416 3.416 0 0 0-1.71.516 3.367 3.367 0 0 0-1.129 1.29 4.155 4.155 0 0 0-.242 2.92c.21.774.726 1.42 1.452 1.758.419.194.887.274 1.419.307a3.278 3.278 0 0 0 1.839-.63c.29-.241.5-.516.693-.87-.016-.065-.032-.146-.08-.178a.315.315 0 0 0-.21-.016 1.805 1.805 0 0 1-1.484.774 2.421 2.421 0 0 1-2.355-1.5 3.673 3.673 0 0 1-.306-1.5c-.016-.193 0-.322.064-.387.049-.048.162-.064.339-.048h2.984c.322 0 .564 0 .726-.033.161-.016.21-.048.242-.08l.016-.08c0 .031 0 0 .016-.033ZM13.96 6.984c.08.161.113.306.08.468 0 .112 0 .177-.015.21-.016.064-.049.08-.065.112-.048.048-.193.065-.435.08-.242.017-.662.05-1.242.05h-1.145c-.065 0-.08 0-.097-.033-.032-.016-.032-.016-.032-.049a1.32 1.32 0 0 1 .258-.58c.177-.226.387-.42.677-.565a1.65 1.65 0 0 1 .871-.242c.339 0 .565.065.758.178.194.097.339.226.387.37Zm56.307-1.242c-.049-.032-.097-.032-.113-.032-.145.112-.307.21-.452.29l-.258.129c-.29.145-.597.29-.887.387-.048.016-.064.08-.064.161 0 .065.016.097.048.13l.145.08.097.065c.08.08.177.145.21.193.064.08.08.13.08.21l.016.016c.016.08.016.258.016.435v2.936c.017.37 0 .661-.032.855-.016.193-.064.322-.145.403-.08.08-.21.129-.42.161l-.338.049c-.048.048-.065.096-.048.21 0 .08.016.16.08.193l.71-.065h1.597l.645.065a.23.23 0 0 0 .097-.194c0-.113-.016-.177-.065-.21l-.29-.048A.773.773 0 0 1 70.46 12a.74.74 0 0 1-.161-.403c-.016-.194-.016-.484-.016-.855V8.274c0-.37 0-.677.21-.984.096-.161.306-.306.564-.42.242-.112.5-.144.823-.144.532.016.903.177 1.145.451.242.323.37.742.339 1.145v2.42c0 .37 0 .661-.033.855 0 .145-.064.29-.145.403-.129.08-.274.129-.435.161l-.307.049c-.048.048-.064.096-.064.21.016.08.048.16.096.193l.694-.065h1.58l.452.049.29.032a.558.558 0 0 0 .114-.194c0-.113-.033-.177-.081-.21l-.339-.048a.724.724 0 0 1-.435-.161.741.741 0 0 1-.162-.403c-.016-.194-.016-.484-.016-.855v-2.79a2.38 2.38 0 0 0-.193-.984 1.7 1.7 0 0 0-.597-.742c-.29-.178-.63-.258-1.08-.29-.42.032-.807.112-1.178.258-.371.16-.742.354-1.097.564-.048 0-.08-.016-.097-.048-.032-.033-.032-.065-.048-.097v-.323c0-.113 0-.258.016-.435a.126.126 0 0 0-.032-.13ZM67.88 9.258c0 .629-.145 1.258-.436 1.806-.274.517-.71.936-1.21 1.226a3.813 3.813 0 0 1-1.79.436 3.78 3.78 0 0 1-1.677-.404 3.002 3.002 0 0 1-1.162-1.128 3.107 3.107 0 0 1-.451-1.775c0-.693.145-1.29.451-1.806a3.09 3.09 0 0 1 1.242-1.21c.5-.29 1.097-.435 1.742-.451.565.016 1.13.145 1.645.403.5.29.888.677 1.178 1.177.29.5.452 1.08.468 1.726ZM66.3 8.113c-.145-.484-.37-.871-.677-1.178-.29-.322-.694-.5-1.194-.5-.548 0-1 .242-1.339.742-.338.452-.516 1.145-.548 2.033 0 .5.08.983.242 1.467.145.468.37.823.693 1.13.29.29.678.435 1.162.435.468 0 .822-.13 1.113-.42a3.503 3.503 0 0 0 .742-2.306 4.16 4.16 0 0 0-.194-1.403Zm10.742.322c.064-.048.177-.064.387-.048h3.032c.323 0 .565 0 .71-.032.306-.049.306-.226.306-.516 0-.323-.112-.63-.306-.92a2.408 2.408 0 0 0-.774-.726c-.355-.177-.774-.258-1.258-.274a3.252 3.252 0 0 0-2.855 1.807 3.846 3.846 0 0 0 .274 3.92c.242.305.548.564.952.757.42.194.887.274 1.403.307a3.25 3.25 0 0 0 1.855-.63c.29-.241.532-.516.742-.87-.033-.065-.049-.146-.113-.178-.049-.016-.113-.048-.226-.016-.242.323-.484.516-.726.63-.21.096-.451.176-.758.144-.597 0-1.08-.129-1.468-.42a2.511 2.511 0 0 1-.919-1.08 3.547 3.547 0 0 1-.323-1.677c-.016-.065.017-.13.065-.178Zm.21-.532c-.049 0-.065 0-.081-.032l-.032-.016v-.033a1.32 1.32 0 0 1 .258-.58c.177-.226.403-.42.661-.565.258-.161.58-.242.903-.242.307 0 .549.065.726.178a.822.822 0 0 1 .42.355c.064.16.112.306.096.467 0 .113 0 .178-.016.21-.016.065-.048.08-.064.113-.049.048-.194.064-.452.08-.242.017-.677.049-1.274.049h-1.145v.016ZM48.67 1.855h.58c.452 0 .904-.016 1.355-.049-.016.323.049.71.194 1.178.177.451.387.951.629 1.484l1.855 3.71.161.338c.29.645.597 1.274.936 1.903h.048c.242-.387.452-.774.645-1.21l.242-.5.339-.741 1.532-3.081.597-1.258.258-.565c.21-.483.339-.903.355-1.258.403.033.79.049 1.21.049h.677l.387-.033.387-.016c.048.049.065.097.065.178.032.097 0 .177-.049.21l-.322.016c-.34.048-.613.096-.758.193a.747.747 0 0 0-.307.484c-.048.29-.08.58-.064.871v2.08L59.67 7l.048 1.339v.016c.033 1.048.065 2.096.13 3.145.048.403.387.58.741.613l.516.048c.049.065.065.13.049.21a.278.278 0 0 1-.08.21l-.985-.065h-1.887l-.661.048-.355.033a.21.21 0 0 1-.08-.21c-.017-.113 0-.177.048-.21l.484-.048c.387-.032.71-.145.774-.565.016-.193.048-.451.016-.806l-.048-6.742h-.017c-.37.565-.725 1.339-1.048 2.065-.177.37-.355.758-.516 1.08l-.887 1.774-.5.952-.242.468c-.21.435-.403.855-.597 1.29-.177.339-.29.63-.403.887l-.048.097-.033.016c-.016 0-.016.016-.016.032-.032.017-.064.017-.113.017l-.064-.017c0-.016-.016-.016-.016-.032-.017 0-.033-.016-.033-.016a5.486 5.486 0 0 0-.403-1.048 27.107 27.107 0 0 0-.564-1.194 23.299 23.299 0 0 0-.452-.984L50.961 6.29l-.5-1.097-.032-.064c-.145-.42-.323-.79-.5-1.161h-.048l-.049.903-.016.532-.097 1.42-.064 1.758v.016c-.016.677-.049 1.338-.049 2-.032.403 0 .693.065.919.032.194.097.339.194.435.112.097.258.146.451.162l.613.048c.065.065.08.13.08.21 0 .097-.032.161-.096.21l-.871-.065h-1.726l-.322.032-.5.049a.307.307 0 0 1-.081-.21c-.016-.113 0-.177.064-.21l.34-.048c.209-.032.386-.08.547-.161a.636.636 0 0 0 .307-.34c.065-.177.113-.467.145-.838l.048-.516.049-.516.032-.436c.016-.21.049-.435.049-.693l.032-.436c.016-.29.048-.596.048-.935l.016-.097a84.7 84.7 0 0 0 .178-3.5c.016-.322 0-.58-.049-.79a.65.65 0 0 0-.306-.436 3.55 3.55 0 0 0-.71-.193l-.258-.016c-.048-.065-.064-.145-.048-.21.016-.097.048-.161.097-.177.242-.017.451 0 .677.016Zm-46.258.258c-.032.097.016.161.08.21l.565.064c.242.016.42.08.516.194.113.08.178.241.194.483.032.242.048.581.048 1.065V7.37c.436.016.871.016 1.307 0V2.887a.69.69 0 0 1 .048-.42c.016-.064.097-.128.21-.16.129-.017.338-.017.645-.017.839.016 1.468.242 1.92.694.435.451.66 1.097.66 1.887.017.71-.145 1.29-.532 1.774-.322.42-.806.726-1.468.871-.629.161-1.532.226-2.741.194A39.077 39.077 0 0 1 .429 7.5c1.387.29 2.42.484 3.065.548 1.064.145 2.129.113 3.112-.048a6.965 6.965 0 0 0 1.388-.339c.419-.21.822-.435 1.21-.71.241-.177.467-.451.644-.822a3.094 3.094 0 0 0-1.032-3.71 4.48 4.48 0 0 0-1.339-.5c-.5-.08-1.096-.145-1.774-.145-.661 0-1.258 0-1.774.032-.516.033-1 .049-1.42.081a.318.318 0 0 0-.096.226Zm2.71 6.484v1.532c-.017.548 0 .952.048 1.242.048.29.145.451.306.564.13.097.355.178.71.194l.436.048c.048.049.064.097.064.21a.436.436 0 0 1-.08.194c-.388-.017-.775-.049-1.162-.065h-1.92l-.967.065a.23.23 0 0 1-.097-.194c-.016-.08 0-.161.065-.21l.322-.048c.323-.016.533-.113.646-.226.145-.097.241-.258.258-.548.048-.29.064-.71.064-1.242V8.516c.387.08.823.097 1.307.08ZM70.252 18.807V16.66h-.371v-.5h.37v-.113c0-.338.081-.693.323-.903.194-.193.468-.258.71-.258.177 0 .322.032.435.065l-.048.516a.913.913 0 0 0-.29-.049c-.34 0-.452.275-.452.597v.13h.597v.5h-.597v2.144h-.677v.017ZM48.88 15.194h.66v2.354c0 1-.483 1.34-1.209 1.34-.193 0-.42-.033-.564-.081l.08-.533c.097.033.258.065.404.065.387 0 .612-.178.612-.807v-2.338h.017Zm4.193 2.854c0 .323.016.565.032.79h-.596l-.033-.402c-.112.193-.387.451-.87.451-.5 0-.936-.29-.936-1.129v-1.532h.677v1.42c0 .435.146.709.5.709a.575.575 0 0 0 .517-.339c.016-.064.048-.129.048-.21v-1.564h.677v1.806h-.016Zm1.774.355c-.225 0-.516-.096-.66-.193l-.13.484c.194.113.468.193.79.193.694 0 1.065-.338 1.065-.822 0-.388-.226-.63-.694-.807-.338-.113-.451-.193-.451-.37 0-.162.129-.275.37-.275.243 0 .436.08.55.145l.128-.468a1.57 1.57 0 0 0-.693-.16c-.597 0-.984.37-.984.838 0 .306.21.58.71.758.322.113.435.194.435.37-.016.194-.13.307-.436.307Zm2.855-2.919v.693h.645v.5h-.645v1.178c0 .322.08.484.339.484.097 0 .177-.016.274-.032l.016.516a1.656 1.656 0 0 1-.484.064.754.754 0 0 1-.596-.226c-.146-.16-.21-.387-.21-.742v-1.258h-.387v-.5h.387v-.484l.661-.193Zm3.807 2.452c-.017-.065-.033-.113-.033-.178v-.403c0-.065.017-.113.033-.178a.635.635 0 0 1 .596-.5c.436 0 .662.388.662.855 0 .517-.258.871-.678.871a.639.639 0 0 1-.58-.467Zm-.726-1.726.016.887v2.839h.677v-1.371h.017c.145.21.419.354.758.354.596 0 1.21-.467 1.21-1.403 0-.822-.517-1.355-1.13-1.355-.403 0-.71.178-.903.468h-.016l-.032-.403h-.597v-.016Zm5.29 1.032c0-.242-.097-.645-.548-.645-.42 0-.597.37-.63.645h1.178Zm-1.177.468c.016.484.403.677.822.677.307 0 .533-.048.742-.129l.097.452a2.41 2.41 0 0 1-.92.161c-.87 0-1.37-.532-1.37-1.339 0-.725.451-1.403 1.29-1.403.871 0 1.145.71 1.145 1.274l-.016.274h-1.79v.033Zm2.774-1.5.016.838v1.759h.661v-1.34l.017-.209c.064-.29.274-.484.596-.484.08 0 .145 0 .194.016v-.629c-.049-.016-.097-.016-.162-.016-.274 0-.58.194-.71.565h-.031l-.016-.5h-.565Zm5.677.403c.452 0 .565.387.549.645h-1.162c.033-.274.21-.645.613-.645Zm.21 1.774c-.435 0-.806-.21-.823-.677h1.775l.016-.274c0-.581-.274-1.275-1.145-1.275-.855 0-1.29.694-1.29 1.404 0 .806.516 1.338 1.37 1.338.387 0 .694-.08.936-.177l-.097-.452c-.21.065-.435.113-.742.113Zm3.935.355a2.02 2.02 0 0 1-.757.145c-.84 0-1.388-.532-1.388-1.338 0-.775.549-1.404 1.5-1.404.226 0 .452.049.662.13l-.113.5a.956.956 0 0 0-.516-.098c-.516 0-.823.372-.823.855 0 .549.371.84.823.84.242 0 .403-.05.532-.098l.08.468Zm1.759-2.58v-.678l-.646.194v.483h-.37v.5h.37v1.258c0 .34.065.581.194.742.129.146.323.226.565.226.21 0 .37-.032.467-.064l-.016-.516a.478.478 0 0 1-.258.032c-.258 0-.323-.178-.323-.484v-1.178h.613v-.5l-.596-.016Z" fill="#333D48"/><path d="M93.8 2.355h-.435c-.017 0-.017.016-.033.032 0 .016 0 .033.016.049l.049.016.177.048c.032.032.065.065.065.097 0 .048.016.097 0 .177l-.016.387-.033.452c0 .242-.016.823-.08 1-.016.032-.049.065-.081.097-.048.016-.08.016-.129.016l-.08.016c-.017.016-.017.032-.017.048 0 .017 0 .033.032.049l.194-.016h.403l.194.016c.016-.016.016-.016.016-.049 0-.016 0-.032-.016-.048h-.13a.146.146 0 0 1-.112-.048c-.016-.016-.016-.033-.032-.049a1.414 1.414 0 0 1-.033-.258V3.92l.017-.404.032-.322c0-.113 0-.21.016-.323l.129.258.113.274.355.71.096.226.146.274.048.145.032.097c.016.016.049.016.065 0l.097-.226c.096-.21.193-.42.306-.629l.323-.645c.032-.048.048-.113.08-.177a1.84 1.84 0 0 1 .162-.307v1.726c0 .048-.017.08-.049.08a.195.195 0 0 1-.129.049l-.097.016c-.016.016-.016.032-.016.048 0 .017.016.033.032.049l.242-.016h.436l.226.016c.016 0 .032-.016.032-.049 0-.016 0-.032-.016-.048h-.113c-.049-.016-.08-.032-.13-.048-.031-.033-.047-.065-.047-.097l-.017-.161c0-.178-.016-.371-.016-.565 0-.193-.016-.387-.032-.564v-.484l.016-.194a.26.26 0 0 1 .065-.113.325.325 0 0 1 .177-.048h.097V2.42l-.016-.049-.178.016h-.42c0 .08-.031.178-.08.29l-.193.42-.355.71a4.68 4.68 0 0 1-.29.564l-.258-.516L94.17 3a2.913 2.913 0 0 1-.13-.339.732.732 0 0 1-.047-.258H93.8v-.048Zm-2.064 1.887v.29c-.017.13-.097.178-.226.178l-.081.016c-.032.032-.032.08 0 .097l.468-.016.5.016.032-.049-.016-.048-.097-.016c-.097 0-.145-.016-.177-.049-.032-.032-.065-.064-.065-.129a.879.879 0 0 1 0-.29v-.355c-.129 0-.226 0-.322-.016l-.016.371Zm-.323-1.855c0 .016 0 .033.016.049l.13.016c.047 0 .096.032.128.048s.049.049.049.113l.016.242v.758h.306V2.581l.016-.097c0-.016.032-.032.049-.032l.16-.016c.194 0 .34.048.453.161a.625.625 0 0 1 .16.435c0 .178-.031.307-.112.42-.097.097-.21.177-.339.193a3.389 3.389 0 0 1-.645.049c-.242 0-.516-.016-.806-.049.322.065.564.113.725.13.355.048.71.016 1.049-.081.08-.049.193-.097.29-.178a.646.646 0 0 0 .161-.193c.033-.08.049-.178.065-.29a.805.805 0 0 0-.08-.34.57.57 0 0 0-.21-.225.843.843 0 0 0-.323-.113c-.13-.016-.258-.032-.42-.032l-.419.016-.322.016c-.081 0-.097.016-.097.032Z" fill="#161C24"/></g><defs><clipPath id="a"><path fill="#fff" transform="translate(.3)" d="M0 0h97.5v20H0z"/></clipPath></defs></svg>