<svg width="112" height="30" fill="none" xmlns="http://www.w3.org/2000/svg"><path fill-rule="evenodd" clip-rule="evenodd" d="M1.431 20.26a7.31 7.31 0 0 1 2.052-.048c1.368.098 2.565.098 3.59.098.57 0 .855-.098.855-.293 0-.194-.342-.243-.968-.292a64.631 64.631 0 0 1-1.469-.086c-.105-.007-.167-.011-.184-.011-.285-.049-.4-.195-.4-.487 0-.439.685-2.192 1.996-5.26h7.123c.55 1.376.937 2.428 1.2 3.14v.001c.118.321.211.574.282.755l.17.39.286.779c.057.146.057.195.057.243 0 .341-.969.487-2.964.487-.627 0-.911.098-.911.341 0 .195.227.293.683.293.171 0 .342 0 .513-.05l4.275-.097 4.217.098c.08 0 .17.01.269.022.113.012.235.026.358.026.342 0 .513-.097.513-.243s-.285-.243-.855-.292c-.855 0-1.425-.098-1.71-.195-.285-.097-.513-.39-.684-.828l-5.984-13.88C12.716 2.533 12.031.975 11.747.196 11.69.098 11.633 0 11.576 0c-.114 0-.228.097-.285.292l-.114.585c-.171.292-.285.535-.285.779a976.933 976.933 0 0 0-7.01 16.948c-.17.438-.399.78-.74.925-.286.146-.799.244-1.54.293-.683 0-1.025.097-1.025.292 0 .195.17.243.456.243.064-.027.128-.04.202-.053.058-.01.122-.023.196-.044Zm9.062-15.243 1.596 3.945c.289.676.545 1.284.774 1.826.447 1.06.785 1.863 1.05 2.411H7.13c1.311-3.312 2.451-6.088 3.363-8.182Zm15.96 2.727c.797 0 1.31.098 1.48.195.172.097.229.487.229 1.12v9.692c0 .535-.057.828-.114.925-.057.098-.342.146-.855.146-.74 0-1.083.098-1.083.244s.171.243.513.243h3.761c.456 0 .684-.097.684-.243s-.17-.195-.456-.195c-.513 0-.911 0-1.196-.049-.228-.049-.342-.195-.342-.438v-9.79c2.507 5.212 3.989 8.475 4.502 9.79.228.536.399.78.57.78.114 0 .285-.293.513-.878l.473-1.243.004-.01c.577-1.517 1.054-2.77 1.46-3.812.67-1.611 1.187-2.88 1.572-3.826l.001-.003.365-.895v9.205c0 .633-.057.974-.114 1.071-.057.05-.342.098-.798.098-.44 0-.767.024-.963.038-.083.006-.143.01-.177.01-.114 0-.17.05-.17.147 0 .146.227.195.626.195h5.984c.399 0 .627-.098.627-.244s-.171-.244-.513-.244c-.855 0-1.368-.048-1.539-.097-.17-.049-.228-.487-.228-1.217V8.426c0-.34.171-.536.456-.633.035 0 .093-.005.171-.011.176-.015.461-.038.855-.038.399 0 .627-.097.627-.243 0-.195-.285-.244-.855-.244h-4.046L35.57 14.27l-.174.439c-.165.412-.38.947-.623 1.607l-1.71-3.75c-.333-.728-.619-1.312-.84-1.765V10.8c-.12-.244-.22-.45-.3-.62l-.798-1.705a8.097 8.097 0 0 0-.456-.877l-.114-.292c-2.28 0-3.647 0-3.989.049-.399 0-.57.097-.57.194 0 .098.171.195.456.195ZM47.937 20.31h-.057c-.342 0-.513-.098-.57-.244 0-.146.172-.243.456-.243.26 0 .472-.021.62-.036.078-.007.139-.013.178-.013.4-.049.627-.146.741-.244.171-.048.684-1.12 1.653-3.263.286-.692.612-1.384.91-2.02l.08-.168.093-.198c.143-.205.207-.376.257-.511l.028-.073c.057-.098.17-.341.285-.585.12-.276.27-.602.444-.979.316-.685.71-1.54 1.151-2.576l.57-1.169.228-.536c.114-.292.285-.438.399-.438.114 0 .228.244.456.78.456.908 1.368 2.857 2.752 5.815h.001l.005.011.003.007v.001l.003.005.004.009c.689 1.472 1.494 3.192 2.418 5.158.228.584.513.876.74.925.038.032.225.043.528.06.156.01.343.02.556.038.399 0 .627.097.627.243s-.228.195-.684.195H56.202c-.399 0-.627-.098-.627-.244s.399-.243 1.197-.243c.969-.049 1.425-.098 1.425-.292 0-.02-.018-.053-.046-.108a2.841 2.841 0 0 1-.182-.428c0-.107-.152-.472-.41-1.096l-.001-.001-.001-.003c-.096-.231-.207-.498-.33-.8l-.398-.973h-4.787c-.912 1.947-1.368 3.116-1.368 3.409 0 .194.114.292.399.292l.456.049h.513l.228.097c.284 0 .398.097.398.195 0 .146-.227.195-.683.195-.057 0-.456 0-1.197-.05-.741-.048-1.368-.048-1.938-.048h-.285l-.285.049-.342.049Zm8.72-4.676-2.166-4.87-.598 1.316c-.442.974-.983 2.168-1.624 3.554h4.388Zm10.485-4.53c.228 0 .342-.194.456-.632.17-1.17.513-1.948 1.025-2.29.513-.34 1.653-.486 3.42-.438V18.02c0 .78 0 1.267-.057 1.462 0 .146-.114.243-.285.292-.114.048-.285.048-.513.048-.741 0-1.083.098-1.083.244s.228.195.684.195h5.414c.399 0 .57-.049.57-.195 0-.146-.342-.195-.969-.244-.627 0-.969-.194-.969-.584V7.793c.267 0 .495-.017.684-.03.134-.01.248-.019.342-.019 1.539 0 2.508.341 2.907.974.284.487.512 1.12.57 1.851 0 .341.17.536.455.536.285 0 .4-.146.4-.39 0-.049 0-.146-.058-.34l-.057-.488-.114-1.169-.114-1.022-.057-.585-.17.03c-.207.037-.378.068-.513.068-2.11.048-3.534.048-4.218.048h-7.807c-.228 1.608-.285 2.679-.285 3.215 0 .438.114.633.342.633ZM85.89 7.648h-.342c-.228 0-.285-.049-.4-.195 0-.146.172-.195.457-.195h5.585c.342 0 .513.098.513.244 0 .097-.4.195-1.14.195-.342 0-.513.048-.57.146-.057.097-.114.34-.114.779v10.665c0 .195.057.341.228.39.17.049.57.098 1.197.146.285 0 .399.098.399.195 0 .146-.057.195-.285.195H85.89c-.4 0-.57-.049-.57-.146 0-.146.228-.244.74-.244.628-.049.97-.097 1.026-.195.058-.097.058-.487.058-1.217V9.157c0-.73 0-1.17-.058-1.315-.056-.098-.227-.195-.512-.195h-.684Zm19.436 12.809c1.767 0 3.135-.438 4.16-1.266a.773.773 0 0 1 .047.093c.019.041.032.071.067.101l.285.536c.171.341.342.487.513.487.171 0 .285-.097.285-.292v-.195l-.035-.322v-.001c-.043-.39-.079-.712-.079-.943 0-.28.023-.659.055-1.175.018-.292.039-.629.059-1.017 0-.168.027-.313.044-.402a.561.561 0 0 0 .013-.085c0-.34-.114-.535-.342-.535-.171 0-.342.243-.456.73-.228 1.17-.741 2.094-1.538 2.776-.741.682-1.71 1.023-2.907 1.023-1.539 0-2.735-.536-3.59-1.656-.912-1.12-1.311-2.63-1.311-4.53 0-1.899.399-3.408 1.197-4.528.798-1.12 1.88-1.656 3.248-1.656 1.653 0 2.793.536 3.534 1.607.285.487.569 1.266.797 2.289.057.292.171.438.342.438.228 0 .342-.39.342-1.217 0-1.267.114-2.24.228-2.874.057-.146.057-.243.057-.243 0-.146-.057-.244-.228-.244-.228 0-.399.195-.57.633l-.028.061c-.096.207-.152.329-.257.329a.418.418 0 0 1-.203-.06 1.552 1.552 0 0 0-.081-.037c-1.14-.73-2.565-1.12-4.218-1.12-2.165 0-3.875.633-5.3 1.85-1.368 1.266-2.051 2.825-2.051 4.773 0 1.948.74 3.555 2.222 4.821 1.596 1.218 3.477 1.851 5.699 1.851ZM1.546 25.374h.683v4.53h-.684v-4.53Zm12.597 3.263-1.368-3.263h-.855v4.53h.627V26.25l1.539 3.653h.684v-4.53h-.627v3.263Zm10.313-3.263h1.425c.968 0 1.367.439 1.367 1.12v2.29c0 .681-.456 1.12-1.367 1.12h-1.425v-4.53Zm1.482 4.091c.456 0 .683-.195.683-.633h.057v-2.338c0-.39-.228-.633-.74-.633h-.741v3.604h.74Zm13.05-.633c0 .39-.228.633-.684.633-.513 0-.684-.243-.684-.633v-3.458h-.683v3.458c0 .682.399 1.169 1.31 1.169.912 0 1.368-.438 1.368-1.169v-3.458h-.627v3.458Zm11.627-3.02c-.456 0-.684.244-.684.633 0 .497.47.775.966 1.07.527.311 1.084.641 1.142 1.268 0 .682-.456 1.12-1.367 1.12-.912 0-1.368-.438-1.368-1.12v-.244h.627v.293c0 .39.228.633.684.633.456 0 .683-.244.683-.633 0-.484-.446-.761-.917-1.053-.524-.324-1.077-.667-1.077-1.334 0-.681.399-1.12 1.31-1.12.855 0 1.311.439 1.311 1.12v.146h-.627v-.146c0-.39-.227-.633-.683-.633Zm10.713 0h1.083v4.092h.684v-4.091h1.083v-.439h-2.85v.439Zm14.305 1.9c.513.097.741.438.741.925v.73c0 .196 0 .39.114.537h-.684c-.057-.098-.114-.244-.114-.536v-.73c0-.536-.285-.682-.855-.682h-.455v1.948h-.684v-4.53h1.368c.911 0 1.31.341 1.31 1.023v.39c0 .487-.228.779-.74.925Zm-1.253-.195h.513c.512 0 .854-.146.797-.633v-.438c0-.439-.17-.633-.683-.633h-.627v1.704Zm12.478-2.143h-.684v4.53h.684v-4.53ZM99 29.904h-2.45v-4.53H99v.439h-1.767v1.558h1.482v.487h-1.482v1.607H99v.439Zm10.314-3.459c0-.39.228-.633.684-.633.456 0 .684.244.684.633v.146h.627v-.146c0-.681-.456-1.12-1.311-1.12-.911 0-1.31.439-1.31 1.12 0 .667.553 1.01 1.077 1.334.47.292.917.569.917 1.053 0 .39-.228.633-.684.633-.456 0-.684-.244-.684-.633v-.293h-.626v.244c0 .682.455 1.12 1.367 1.12.912 0 1.368-.438 1.368-1.12-.059-.627-.615-.957-1.142-1.269-.497-.294-.967-.572-.967-1.069ZM.747 22.404h110.389v.487H.746v-.487Z" fill="#fff"/></svg>