<svg width="80" height="26" fill="none" xmlns="http://www.w3.org/2000/svg"><g clip-path="url(#a)"><path fill-rule="evenodd" clip-rule="evenodd" d="M47.145 4.318c0-1.156.452-2.228 1.279-3.035C50.685-.927 54.5.086 55.337 3.174c.102.376.15.931.145 1.666a623.885 623.885 0 0 0-.01 7.575c0 .018-.01.027-.027.027h-2.708c-.035 0-.052-.017-.051-.052l.005-8.022c.002-1.956-2.783-1.924-2.788.003-.006 2.637-.008 5.31-.006 8.018 0 .036-.018.053-.054.053H47.16c-.016 0-.025-.008-.025-.025.006-2.676.009-5.375.01-8.099ZM32.794 2.942l-.004 9.464a.036.036 0 0 1-.036.036h-2.712a.036.036 0 0 1-.036-.036l.006-9.46a.036.036 0 0 0-.036-.036l-2.699.003a.036.036 0 0 1-.025-.011.036.036 0 0 1-.01-.025l.004-2.74A.036.036 0 0 1 27.282.1L35.26.096a.036.036 0 0 1 .036.036l-.005 2.74a.036.036 0 0 1-.036.036l-2.425-.002a.036.036 0 0 0-.036.036Zm-17.206.284c-.5-1.833-2.104-3.127-4.038-3.129-1.238-.001-2.5 0-3.787.001-.078 0-.117.04-.117.118v12.226a.024.024 0 0 0 .024.024h7.346c.01 0 .02-.002.03-.007a.063.063 0 0 0 .022-.022c.441-.7.66-1.473.654-2.32-.01-1.684-.01-3.437-.002-5.258.004-.753-.04-1.297-.132-1.633Zm-5.178 8.322V2.956a.052.052 0 0 1 .052-.052h1.031a1.4 1.4 0 0 1 1.004.427c.266.273.415.643.415 1.03v5.782c0 .386-.15.757-.415 1.03a1.4 1.4 0 0 1-1.004.427h-1.031a.052.052 0 0 1-.053-.052Zm14.852.045h-4.407a.04.04 0 0 1-.04-.04V2.949a.04.04 0 0 1 .04-.04l4.382.004a.04.04 0 0 0 .04-.04l.01-2.734a.04.04 0 0 0-.04-.04H18.07a.04.04 0 0 0-.04.039l-.006 12.265c0 .011.004.021.012.029a.04.04 0 0 0 .028.011h7.197a.04.04 0 0 0 .04-.04v-.769a.04.04 0 0 0-.011-.028.04.04 0 0 0-.029-.012Zm12.907-9.96a4.094 4.094 0 0 0-.962 2.563c-.02 1.454-.023 2.956-.009 4.505.012 1.347.392 2.638 1.213 3.69a.126.126 0 0 0 .105.051h4.443c.052 0 .058-.017.02-.051-.193-.167-.4-.333-.608-.5-.475-.382-.96-.772-1.314-1.195-.706-.846-1.065-1.86-1.076-3.041-.007-.903-.005-1.98.008-3.234.003-.254.035-.46.096-.616.458-1.172 2.14-1.213 2.596-.028.075.194.108.49.101.888-.01.536-.01 1.06-.002 1.57a.036.036 0 0 0 .036.035h2.714a.046.046 0 0 0 .033-.014.049.049 0 0 0 .013-.034c-.011-.54-.01-1.053.005-1.542.018-.568-.024-1.051-.126-1.45C45.04 1.593 43.62.303 41.897.126c-1.504-.154-2.746.348-3.728 1.507Zm26.478 9.96H60.172l-.004-.001h-.001a.029.029 0 0 1-.014-.013l-.002-.002v-.002a.03.03 0 0 1-.003-.012v-8.63a.03.03 0 0 1 .019-.027.03.03 0 0 1 .011-.002h4.47a.03.03 0 0 0 .03-.03l.011-2.747a.03.03 0 0 0-.03-.03h-7.303a.03.03 0 0 0-.03.03l-.008 12.285a.03.03 0 0 0 .019.028h.002l.002.002H64.648a.03.03 0 0 0 .03-.03l-.001-.789a.03.03 0 0 0-.03-.03Zm6.595.85h-2.744a.034.034 0 0 1-.034-.035l-.002-9.471a.034.034 0 0 0-.034-.034l-2.736.004a.034.034 0 0 1-.033-.034L65.666.13a.034.034 0 0 1 .034-.034h8.077a.034.034 0 0 1 .031.021.034.034 0 0 1 .003.013l-.01 2.74a.034.034 0 0 1-.009.024.034.034 0 0 1-.024.01l-2.46-.001a.034.034 0 0 0-.033.034v9.47a.034.034 0 0 1-.034.034Zm-66.137.536L.225 8.197a.03.03 0 0 0-.05.021v9.564a.03.03 0 0 0 .036.029.03.03 0 0 0 .015-.008l4.879-4.782a.03.03 0 0 0 .006-.032.03.03 0 0 0-.006-.01Zm74.667 4.823-4.876-4.78a.031.031 0 0 1 0-.044l4.876-4.78a.031.031 0 0 1 .053.022v9.56a.03.03 0 0 1-.011.023.028.028 0 0 1-.008.005.029.029 0 0 1-.01.003h-.008a.03.03 0 0 1-.016-.009Zm-54.503 5.3-4.406-.012a.038.038 0 0 1-.038-.038l.008-8.607a.038.038 0 0 1 .038-.038h4.389a.038.038 0 0 0 .037-.038l.002-.826V13.534l-.003-.005a.037.037 0 0 0-.02-.02.038.038 0 0 0-.014-.003l-7.198-.001a.037.037 0 0 0-.027.01.038.038 0 0 0-.01.027v12.321a.038.038 0 0 0 .037.038l7.177.003a.038.038 0 0 0 .038-.038l.028-2.727a.038.038 0 0 0-.038-.038Zm34.89-8.656-.007 11.42a.037.037 0 0 1-.037.037h-2.761a.037.037 0 0 1-.037-.037V13.544a.037.037 0 0 1 .037-.037h7.3a.037.037 0 0 1 .036.037v.821a.037.037 0 0 1-.038.037l-4.456.007a.037.037 0 0 0-.036.037Zm-30.117-.941h2.705c.02 0 .037.016.037.036v12.325c0 .02-.017.037-.037.037h-2.705a.037.037 0 0 1-.037-.037V13.541c0-.02.017-.036.037-.036Zm10.498 9.362c.921.596 2.187-.046 2.185-1.184a830.558 830.558 0 0 0-.013-3.325c-.006-1.186-.335-2.184-.985-2.993-.384-.477-.923-.906-1.45-1.326-.202-.161-.403-.32-.591-.481-.04-.034-.034-.05.018-.05h4.466c.035 0 .064.013.086.04.845 1.026 1.25 2.383 1.262 3.694.013 1.409.01 2.897-.005 4.463a4.207 4.207 0 0 1-4.312 4.197 4.161 4.161 0 0 1-3.933-3.106c-.105-.406-.15-.907-.132-1.504a27.78 27.78 0 0 0 .003-1.521.039.039 0 0 1 .039-.04H39.9a.03.03 0 0 1 .007 0l.005.002h.002a.039.039 0 0 1 .02.021l.003.015c-.01.642-.02 1.253-.027 1.834-.007.567.203.988.63 1.264Zm12.144-1.176c0 .68-.499 1.263-1.144 1.376-.92.163-1.659-.508-1.657-1.433.004-2.668.008-5.359.014-8.073 0-.036-.018-.053-.054-.053H47.2c-.043 0-.065.021-.064.065.005 2.567.002 5.151-.01 7.754-.002.646.045 1.148.142 1.506.45 1.65 1.914 2.926 3.662 3.056 1.37.1 2.51-.35 3.418-1.35.743-.817 1.114-1.783 1.114-2.898 0-2.695.003-5.385.009-8.067 0-.044-.022-.066-.066-.066h-2.652c-.045 0-.067.022-.067.067l-.001 8.116Zm18.55-8.183h-2.731a.04.04 0 0 0-.04.04v12.314c0 .022.018.04.04.04h2.732a.04.04 0 0 0 .04-.04V13.547a.04.04 0 0 0-.04-.04Zm-59.536 12.4c1.742.01 3.171-.882 3.906-2.45.246-.528.37-1.02.374-1.477.01-1.414.012-3.399.01-5.955-.001-.961-.146-1.677-.625-2.45a.086.086 0 0 0-.077-.042H7.671a.025.025 0 0 0-.017.006.023.023 0 0 0-.008.017l.004 12.295c0 .036.018.054.055.054 1.278-.006 2.61-.006 3.993.002Zm-1.271-2.851.015-8.617c0-.011.005-.022.013-.03a.042.042 0 0 1 .03-.012l1.273.002a1.446 1.446 0 0 1 1.443 1.447l-.01 5.81a1.447 1.447 0 0 1-1.449 1.443l-1.273-.002a.042.042 0 0 1-.042-.042Z" fill="#fff"/></g><defs><clipPath id="a"><path fill="#fff" transform="translate(.175)" d="M0 0h79.649v26H0z"/></clipPath></defs></svg>