<svg width="82" height="26" fill="none" xmlns="http://www.w3.org/2000/svg"><g clip-path="url(#a)" fill="#fff"><path fill-rule="evenodd" clip-rule="evenodd" d="M18.351.001h1.137c2.266.21 4.028 1.198 5.288 2.962.955 1.336 1.348 2.87 1.18 4.602a6.997 6.997 0 0 1-.51 1.975 29082.74 29082.74 0 0 1-4.864 11.25c-.14.326-.377.71-.709 1.156a6.622 6.622 0 0 1-3.98 2.532c-2.61.548-5.232-.46-6.943-2.446a166.98 166.98 0 0 1-.99-1.271c-1.45-1.873-2.899-3.748-4.344-5.625l-1.039-1.342c-.449-.584-.757-1.022-.924-1.315a7.405 7.405 0 0 1-.94-3.031V8.373l.086-.658c.26-1.428.845-2.635 1.753-3.62C3.65 2.902 5.014 2.173 6.648 1.905A8523.508 8523.508 0 0 1 18.35.001Zm-.317 8.825 1.204-1.111.532-.502a.05.05 0 0 0 .017-.035.053.053 0 0 0-.013-.037c-1.006-1.164-2.325-1.847-3.96-2.05a7.494 7.494 0 0 0-2.079.029c-1.868.288-3.32 1.158-4.355 2.61-.438.672-.73 1.342-.877 2.01-.436 1.986-.05 4.05 1.285 5.62 1.178 1.3 2.661 2.01 4.45 2.13.299.02.6.027.903.02 1.03-.022 1.968-.246 2.812-.673a5.814 5.814 0 0 0 1.816-1.424c.04-.047.009-.106-.091-.176l-1.64-1.522a.046.046 0 0 0-.034-.012.047.047 0 0 0-.034.016c-.914 1.06-2.071 1.518-3.473 1.376-2.349-.24-3.638-2.303-3.277-4.543.299-1.853 1.772-3.067 3.617-3.119 1.256-.035 2.302.428 3.139 1.39a.04.04 0 0 0 .044.012.04.04 0 0 0 .014-.009ZM40.68 1.068c0-.014.007-.02.021-.02h3.395c.027 0 .04.013.04.04v16.228c0 .035-.018.052-.052.052h-3.351c-.034 0-.05-.017-.05-.05l-.002-16.25Zm.075 6.545a.025.025 0 0 0-.003.003l.002-.002.001-.001Zm-.047.004.014.004-.014-.004Zm.026-.052.001.001.001.002a.054.054 0 0 0-.003-.004l.001.001ZM61.632 2.958l-.003 2.187-.006.612c0 .027-.013.04-.04.04h-1.727c-.04 0-.06.02-.06.06v2.556c0 .027.013.04.04.04h1.77c.015 0 .023.008.023.025v1.448c-.007 1.666-.006 2.892.004 3.678.007.552.115 1.102.326 1.653.52 1.364 1.78 2.056 3.18 2.234 1.25.159 2.645.044 3.71-.669a.045.045 0 0 0 .016-.053l-.911-2.381a.024.024 0 0 0-.018-.015h-.002a.025.025 0 0 0-.016.004c-.504.357-1.07.49-1.7.399-.753-.109-1.124-.684-1.125-1.413-.001-1.18-.003-2.36-.007-3.536l.005-1.335c0-.026.013-.039.04-.039h2.855c.027 0 .04-.013.04-.04V5.837c0-.027-.013-.04-.04-.04h-2.855c-.025 0-.038-.013-.04-.038l-.01-.197.005-2.622c0-.014-.007-.021-.021-.021H61.67c-.026 0-.04.013-.04.04Zm3.343 2.207h.001-.001ZM37.477 9.287c-.354-2.4-2.219-3.642-4.498-3.877-2.073-.213-4.458.15-6.192 1.353-.025.017-.03.039-.016.066l1.197 2.323c.015.028.035.033.061.015 1.134-.788 2.4-1.14 3.795-1.06.537.032.998.169 1.383.411.357.225.611.533.763.924.113.325.167.633.165.923 0 .03-.015.044-.045.044a131.42 131.42 0 0 0-3.127.006c-1.942.03-4.25.661-4.601 2.926a3.693 3.693 0 0 0 .082 1.586c.64 2.259 3.17 2.814 5.203 2.569 1.084-.131 2.09-.573 2.666-1.507.03-.049.046-.045.046.013v1.326c0 .027.014.04.04.04h3.157c.027 0 .04-.013.04-.04.004-2.242.004-4.483 0-6.72a7.37 7.37 0 0 0-.12-1.321Zm-3.414 4.521c-.484 1.028-1.47 1.443-2.571 1.41-.983-.028-1.909-.45-1.796-1.596.094-.957 1.133-1.192 1.934-1.188.807.005 1.628.005 2.461.001.035 0 .051.018.05.052-.008.303-.007.607.003.914a.89.89 0 0 1-.081.407ZM55.21 5.781c1.752.664 2.916 1.944 3.491 3.84.244.925.296 1.86.157 2.807-.001.006-.005.01-.011.01H49.95a.034.034 0 0 0-.014.003.034.034 0 0 0-.018.037c.35 1.378 1.54 2.193 2.907 2.281 1.331.086 2.45-.165 3.4-1.099.023-.022.045-.021.066.002l1.773 1.916c.032.035.032.07 0 .104-1.104 1.207-2.597 1.751-4.22 1.848-1.775.105-3.62-.219-5.012-1.244-1.345-.992-2.127-2.295-2.344-3.908a6.703 6.703 0 0 1 .134-2.565c.45-1.577 1.339-2.757 2.663-3.54a6.493 6.493 0 0 1 2.501-.859c1.154-.149 2.339-.042 3.422.367Zm-5.211 4.062c.353-.997 1.083-1.609 2.19-1.835.346-.071.857-.059 1.222.018 1.042.22 1.753.828 2.133 1.822l.12.515c.007.028-.004.042-.032.042h-5.723c-.032 0-.045-.016-.037-.047L50 9.842ZM81.224 9.598c-.38-3.455-3.39-4.434-6.415-4.22-1.531.109-3.07.535-4.33 1.377-.024.017-.03.039-.016.066l1.209 2.35c.01.02.024.023.043.01 1.073-.794 2.505-1.166 3.792-1.072 1.115.082 2.06.587 2.281 1.774l.035.483c.003.03-.012.045-.042.045-1.044-.013-2.079-.011-3.103.005-.975.015-1.831.17-2.57.462-1.516.602-2.258 1.925-2.069 3.51.232 1.944 1.854 2.947 3.675 3.126 1.4.136 3.143-.06 4.065-1.2.079-.097.154-.2.228-.308.028-.041.043-.037.043.013l-.002 1.305c0 .028.013.042.041.042l3.199.002v-7.174l-.064-.596Zm-7.775 4.647c.205.63.849.901 1.474.958 1.164.107 2.276-.258 2.816-1.354a.878.878 0 0 0 .092-.41c-.007-.341-.007-.66-.002-.954 0-.032-.015-.047-.047-.047-.895-.002-1.76-.001-2.592.001-.59.002-1.377.194-1.666.747a1.318 1.318 0 0 0-.075 1.059Zm4.434-4.414h.002a.009.009 0 0 0-.002 0Z"/><path d="m32.47 23.546 1.603-1.463a.025.025 0 0 1 .017-.006l.436-.002c.005 0 .01.002.014.005a.025.025 0 0 1 .003.039l-1.15 1.09a.025.025 0 0 0-.002.034l1.264 1.592a.025.025 0 0 1 .002.026.025.025 0 0 1-.022.014l-.433-.003a.025.025 0 0 1-.02-.01l-1.088-1.35a.025.025 0 0 0-.036-.003l-.62.57a.025.025 0 0 0-.008.018l-.008.746a.025.025 0 0 1-.024.024l-.348.005a.025.025 0 0 1-.025-.025v-3.89a.025.025 0 0 1 .025-.024h.352a.025.025 0 0 1 .024.025l.002 2.57a.024.024 0 0 0 .008.018l.004.003.003.001a.025.025 0 0 0 .025-.003l.002-.001ZM35.38 21.483a.27.27 0 1 0 0-.54.27.27 0 0 0 0 .54Z"/><path fill-rule="evenodd" clip-rule="evenodd" d="M63.472 22.701c.224-.775.736-1.178 1.536-1.21a1.5 1.5 0 0 1 1.144.439.027.027 0 0 0 .022 0 .026.026 0 0 0 .006-.005l.002-.002.213-.24c.013-.014.012-.028-.001-.04-.547-.545-1.426-.628-2.13-.39-.544.183-.918.564-1.123 1.143-.342 1.123.267 2.277 1.458 2.477.656.11 1.237-.02 1.743-.392a.131.131 0 0 0 .054-.106v-1.352c0-.013-.006-.02-.02-.02h-.362c-.013 0-.02.006-.02.02v1.204a.064.064 0 0 1-.032.055c-.34.209-.707.291-1.097.248-.7-.076-1.155-.446-1.362-1.109-.065-.205-.049-.449-.034-.673l.003-.047Zm-.126.009Z"/><path d="M24.317 22.06v2.794c0 .013-.006.02-.02.02l-.363-.002c-.013 0-.02-.006-.02-.019v-3.662a.04.04 0 0 1 .041-.04h.247c.034 0 .06.015.078.045l1.564 2.658.002.003.002.001v.001a.026.026 0 0 0 .008.005h.002l.006.001a.022.022 0 0 0 .02-.01l1.545-2.658a.086.086 0 0 1 .08-.046h.24c.033 0 .05.017.05.05v3.653c0 .013-.007.02-.02.02h-.363c-.013 0-.02-.007-.02-.02V22.04c0-.06-.014-.063-.044-.012l-1.355 2.311a.164.164 0 0 1-.282.001l-1.353-2.293c-.03-.05-.045-.047-.045.012Z"/><path fill-rule="evenodd" clip-rule="evenodd" d="M48.425 24.006c.047-.527-.17-.87-.651-1.03-.037-.012-.04-.028-.006-.047.362-.215.516-.526.462-.934-.09-.682-.76-.843-1.342-.844H45.35c-.029 0-.044.015-.044.044v3.636c0 .03.015.044.044.044.61-.002 1.2-.002 1.773 0 .573.003 1.242-.198 1.302-.87ZM45.729 22.8l-.002-1.281a.022.022 0 0 1 .007-.016.022.022 0 0 1 .016-.007l1.271-.002c.105 0 .21.015.307.046s.185.077.26.134a.633.633 0 0 1 .174.2c.04.075.06.155.06.236v.093c0 .163-.083.32-.233.436a.936.936 0 0 1-.566.181l-1.271.003a.023.023 0 0 1-.016-.007.022.022 0 0 1-.007-.016Zm-.002 1.704.002-1.315a.026.026 0 0 1 .016-.024.026.026 0 0 1 .01-.002l1.447.003c.218 0 .427.067.581.185.155.118.241.278.241.445v.108a.505.505 0 0 1-.063.24.647.647 0 0 1-.178.205.872.872 0 0 1-.267.136c-.1.032-.207.048-.315.048l-1.448-.003a.026.026 0 0 1-.026-.026Z"/><path d="M52.49 22.017v-.524a.02.02 0 0 1 .007-.013.02.02 0 0 1 .014-.006h.362c.014 0 .02.006.02.02v.543c0 .026.014.04.04.04h.765c.027 0 .04.013.04.04v.262c0 .026-.013.04-.04.04h-.762c-.027 0-.04.013-.041.04-.003.447-.004.943-.003 1.49 0 .34.066.604.444.61a.632.632 0 0 0 .389-.112c.038-.027.068-.02.09.022l.092.18c.02.04.012.072-.027.096-.227.143-.478.19-.753.143-.413-.07-.623-.333-.63-.788-.01-.524-.01-1.07-.003-1.636 0-.03-.014-.045-.044-.045h-.402c-.027 0-.04-.014-.04-.04v-.262c0-.027.013-.04.04-.04h.382c.04 0 .06-.02.06-.06ZM54.584 21.493v.534c0 .033-.017.05-.051.05h-.411c-.027 0-.04.013-.04.04l-.002.262c0 .026.014.04.04.04h.423c.025 0 .038.013.039.039.005.512.004 1.02-.003 1.523-.007.396.087.751.508.878.293.087.653.054.9-.133a.047.047 0 0 0 .017-.028.048.048 0 0 0-.004-.032l-.12-.23c-.01-.02-.024-.023-.041-.01-.311.224-.854.191-.853-.301.001-.497 0-1.05-.002-1.661 0-.03.015-.045.046-.045h.761c.027 0 .04-.014.04-.04v-.262c0-.027-.013-.04-.04-.04h-.765c-.027 0-.04-.014-.04-.04v-.544c0-.013-.007-.02-.02-.02h-.362c-.014 0-.02.007-.02.02Z"/><path fill-rule="evenodd" clip-rule="evenodd" d="M30.608 24.533c-.172.21-.413.33-.724.364-.521.054-1.214-.137-1.213-.794 0-.593.464-.806.995-.816.29-.004.596-.005.92 0 .03 0 .048-.015.05-.045.093-1.073-1.152-.96-1.698-.515-.012.01-.023.008-.032-.005l-.16-.278c-.006-.01-.004-.019.005-.025.448-.31.938-.422 1.468-.332.636.107.825.597.821 1.176a170.71 170.71 0 0 0 0 1.568c0 .028-.015.042-.043.042l-.3.001c-.027 0-.04-.013-.04-.04l-.001-.284c0-.05-.016-.055-.048-.017Zm-1.194.005c.432.141.9.02 1.153-.368.078-.12.075-.248.072-.38a1.665 1.665 0 0 1 .001-.154c.003-.033-.012-.05-.046-.05-.324-.002-.639 0-.942.007-.286.005-.598.144-.589.475a.467.467 0 0 0 .351.47Z"/><path d="M39.187 23.17c-.007-1.239-1.517-1.442-2.173-.658-.026.032-.04.027-.04-.013l.001-.402c0-.013-.006-.02-.02-.02h-.322c-.013 0-.02.007-.02.02v2.737c0 .026.013.04.04.04h.305c.027 0 .04-.014.04-.041-.005-.473-.005-.962.003-1.467.01-.652.485-1.009 1.114-.942.412.043.672.363.672.765v1.606c0 .052.026.078.078.078l.246.001a.078.078 0 0 0 .077-.076c.002-.563.002-1.105-.002-1.628ZM42.808 23.692l.004.173c.024.96.05 1.978-1.218 2.055-.593.036-1.083-.093-1.47-.387-.028-.021-.032-.047-.013-.077l.147-.22c.019-.03.042-.034.07-.013.388.297.837.408 1.347.334.661-.097.782-.651.727-1.22-.004-.041-.018-.045-.044-.013-.104.134-.236.24-.397.315-.307.144-.64.172-.996.081-.608-.153-.951-.535-1.03-1.145.092.036.152.057.18.062.1.018.173.007.22-.032.155.608.55.877 1.188.806.57-.063.872-.404.909-1.021-.023-.364-.167-.632-.432-.805-.434-.282-1.07-.239-1.42.141-.2.218-.282.51-.244.88-.048.038-.122.049-.221.03a1.251 1.251 0 0 1-.18-.061c-.08-.785.392-1.396 1.176-1.502.532-.072.96.08 1.282.456.024.028.036.024.036-.013v-.399c0-.026.013-.04.04-.04h.302c.026 0 .04.013.04.04l-.003 1.575Z"/><path fill-rule="evenodd" clip-rule="evenodd" d="M50.242 24.536c-.495-.077-.793-.367-.895-.87-.007-.04.01-.06.05-.06h2.246c.026 0 .04-.013.041-.04.04-.81-.48-1.497-1.31-1.507-.575-.006-.99.223-1.244.69-.215.394-.245.81-.089 1.245.189.525.581.824 1.177.898.49.06.906-.068 1.246-.383.04-.036.042-.075.008-.117l-.134-.161c-.032-.04-.066-.04-.101-.004-.257.27-.589.372-.995.309Zm1.04-1.232h-1.909a.009.009 0 0 1-.006-.002.009.009 0 0 1-.003-.006v-.007c0-.235.1-.46.28-.626a.992.992 0 0 1 .673-.259h.021c.126 0 .25.023.365.068.116.044.22.11.31.191.088.083.158.18.206.288a.83.83 0 0 1 .072.338v.006a.01.01 0 0 1-.002.007.01.01 0 0 1-.007.002ZM56.735 23.606h-.003a.046.046 0 0 0-.009.002l-.004.002-.002.001a.05.05 0 0 0-.027.034.05.05 0 0 0 0 .022c.105.51.41.8.912.873.395.057.729-.053 1.002-.33.021-.021.041-.02.06.002l.168.2a.05.05 0 0 1 0 .064c-.359.43-1.069.51-1.557.357-1.522-.473-1.216-2.854.46-2.772.834.04 1.332.695 1.294 1.505-.001.027-.015.04-.042.04h-2.252Zm-.021-.305 1.912.007a.009.009 0 0 0 .009-.01v-.005c0-.235-.1-.46-.278-.627a.995.995 0 0 0-.674-.262h-.02c-.125 0-.25.023-.366.067a.964.964 0 0 0-.31.19.885.885 0 0 0-.208.287.83.83 0 0 0-.074.339V23.296l.002.003h.001l.002.002a.01.01 0 0 0 .004 0Z"/><path d="M61.185 22.06c-.433-.014-.762.136-.988.45-.026.037-.04.033-.04-.012v-.401c0-.013-.006-.02-.02-.02h-.341a.02.02 0 0 0-.02.02v2.737c0 .027.013.04.04.04h.325c.02 0 .032-.011.032-.032.01-.36.01-.741 0-1.142-.01-.352.025-.613.103-.781.155-.331.457-.493.908-.485.013 0 .02-.005.02-.018v-.336c0-.013-.006-.02-.019-.02Z"/><path fill-rule="evenodd" clip-rule="evenodd" d="M69.118 24.514a.981.981 0 0 1-.629.364c-.591.109-1.32-.093-1.322-.802-.002-.53.429-.764.906-.782.348-.013.685-.015 1.012-.006.035.001.053-.016.054-.051.004-.555-.258-.832-.787-.833-.342 0-.648.107-.917.32-.014.01-.025.009-.034-.006l-.163-.273c-.005-.009-.004-.016.005-.022.46-.323.961-.433 1.504-.33.447.084.76.44.764.893.006.567.007 1.183.003 1.847 0 .027-.014.04-.041.04h-.28c-.027 0-.04-.013-.04-.04l.002-.306c0-.042-.012-.046-.037-.013Zm-1.01-.92c-.727.03-.739.895-.037.985.44.056.767-.079.985-.405.087-.13.084-.265.08-.406-.001-.045-.002-.09 0-.135 0-.03-.014-.046-.043-.046a18.221 18.221 0 0 0-.984.008Z"/><path d="M72.884 22.568c-.377-.702-1.46-.649-1.924-.085-.037.045-.056.038-.056-.02v-.346c0-.027-.013-.04-.04-.04h-.302c-.027 0-.04.014-.04.04v2.717c0 .026.013.04.04.04h.325c.023 0 .034-.011.034-.034.006-.408.006-.85 0-1.326-.005-.24.021-.425.077-.555.201-.468.684-.642 1.151-.497.416.13.496.537.502.912.006.49.007.978.002 1.461 0 .026.012.039.038.039h.31c.02 0 .03-.01.031-.032.009-.41.009-.823 0-1.239-.016-.674.227-1.21 1-1.184a.729.729 0 0 1 .715.746c.002.539.002 1.096 0 1.672 0 .025.013.037.038.037h.327c.024 0 .036-.013.036-.036.007-.696.005-1.281-.006-1.755-.011-.518-.357-.943-.885-1.008-.574-.071-1.011.094-1.312.497-.022.03-.042.03-.06-.004Z"/><path fill-rule="evenodd" clip-rule="evenodd" d="M76.278 23.662c.135.612.526.907 1.174.887.286-.01.533-.12.742-.333.021-.022.042-.022.063.001l.165.184a.06.06 0 0 1 .016.044.063.063 0 0 1-.019.043c-.36.345-.808.477-1.345.393-.86-.133-1.291-.86-1.162-1.697.185-1.201 1.746-1.527 2.446-.582.19.255.274.576.254.962-.001.028-.016.042-.045.042h-2.245c-.037 0-.052.019-.044.056Zm.026-.358h1.913c.002 0 .004 0 .006-.002a.008.008 0 0 0 .002-.006v-.005c0-.236-.1-.462-.28-.628a.993.993 0 0 0-.675-.26h-.019a.992.992 0 0 0-.675.26.857.857 0 0 0-.28.628v.005a.008.008 0 0 0 .004.007h.001l.004.001Z"/><path d="M81.288 24.249v-.272a.667.667 0 0 0-.505-.529 9.832 9.832 0 0 0-.92-.202c-.138-.025-.333-.15-.37-.299-.089-.356.257-.523.556-.545.363-.026.68.05.953.228.013.008.023.005.03-.008l.162-.295c.003-.006.002-.01-.004-.013a2.048 2.048 0 0 0-1.362-.225c-.369.064-.718.314-.744.71-.026.401.168.654.583.759.226.057.485.114.779.169a.917.917 0 0 1 .273.1c.24.132.215.444.012.593a.697.697 0 0 1-.354.127c-.458.042-.848-.05-1.171-.274-.033-.023-.06-.017-.08.018l-.13.226a.059.059 0 0 0 .02.08c.383.232.818.33 1.306.295.511-.037.833-.252.966-.643ZM35.534 22.077h-.318a.031.031 0 0 0-.032.031v2.734c0 .017.014.031.032.031h.318a.031.031 0 0 0 .032-.031v-2.734a.031.031 0 0 0-.032-.031Z"/></g><defs><clipPath id="a"><path fill="#fff" transform="translate(.712 .001)" d="M0 0h80.576v26H0z"/></clipPath></defs></svg>