<svg width="84" height="28" viewBox="0 0 84 28" fill="none" xmlns="http://www.w3.org/2000/svg">
<g clip-path="url(#clip0_4134_9607)">
<path fill-rule="evenodd" clip-rule="evenodd" d="M23.0659 4.56292C23.0938 5.79379 22.6255 6.98548 21.764 7.87583C20.9025 8.76619 19.7184 9.28227 18.4721 9.31056C17.855 9.32456 17.2412 9.21838 16.6658 8.99809C16.0904 8.7778 15.5646 8.4477 15.1185 8.02665C14.6723 7.60559 14.3146 7.10183 14.0657 6.54411C13.8167 5.9864 13.6815 5.38566 13.6677 4.7762C13.6397 3.54533 14.108 2.35364 14.9695 1.46329C15.831 0.572936 17.0152 0.0568514 18.2615 0.0285689C18.8786 0.0145645 19.4923 0.12074 20.0677 0.341034C20.6432 0.561328 21.1689 0.891425 21.6151 1.31248C22.0612 1.73353 22.419 2.2373 22.6679 2.79501C22.9168 3.35272 23.0521 3.95346 23.0659 4.56292ZM18.3155 8.25948C19.2631 8.27272 20.1773 7.90428 20.8568 7.23523C21.5364 6.56618 21.9257 5.65133 21.9391 4.69192C21.9525 3.73251 21.5889 2.80713 20.9283 2.11937C20.2677 1.43161 19.3642 1.03779 18.4165 1.02456C17.4689 1.01133 16.5547 1.37976 15.8752 2.04881C15.1956 2.71786 14.8063 3.63272 14.7929 4.59213C14.7795 5.55154 15.1431 6.47691 15.8037 7.16467C16.4643 7.85243 17.3679 8.24625 18.3155 8.25948ZM6.15618 1.24984C4.89771 1.66601 4.08525 2.70568 3.86416 4.02C3.62547 5.44601 4.21377 7.01432 5.50667 7.74874C5.98864 8.02262 6.50988 8.19348 7.07039 8.26131C7.69388 8.33628 8.43672 8.19093 8.96689 7.88568C9.21833 7.74084 9.4713 7.58554 9.7258 7.41978C9.73009 7.41699 9.73506 7.41539 9.74018 7.41514C9.7453 7.41489 9.75037 7.416 9.75485 7.41835C9.75933 7.42071 9.76305 7.42423 9.76561 7.42852C9.76817 7.43281 9.76948 7.43773 9.7694 7.44273L9.77017 8.60557C9.77017 8.65351 9.74824 8.68692 9.70438 8.70579C8.8404 9.07147 7.96368 9.24004 7.07421 9.21147C6.53767 9.19464 6.0478 9.1082 5.60459 8.95213C4.36117 8.513 3.48827 7.6753 2.98591 6.43901C2.80434 5.99224 2.69315 5.50645 2.65235 4.98164C2.61716 4.52466 2.65643 4.04984 2.77017 3.55716C2.9423 2.81202 3.35924 2.18623 3.82591 1.59945C4.46904 0.791584 5.28864 0.300182 6.2847 0.125245C6.70292 0.0523129 7.07676 0.0232419 7.40623 0.0380324C8.00754 0.0655734 8.69913 0.160436 9.23924 0.388414C9.39632 0.454717 9.55545 0.520254 9.71661 0.585026C9.7513 0.599307 9.76864 0.625063 9.76864 0.662294L9.7717 1.70273C9.7717 1.79708 9.73217 1.81851 9.65312 1.76699C9.16095 1.44568 8.64762 1.23071 8.11312 1.12208C7.73443 1.04481 7.29224 1.04787 6.91432 1.08153C6.68787 1.10142 6.43516 1.15752 6.15618 1.24984ZM38.8098 5.08575C38.7231 4.40742 38.8318 3.72425 39.1357 3.03624C39.6231 1.93383 40.7316 1.18105 41.951 1.07547C42.2963 1.04538 42.6235 1.05252 42.9326 1.09689C43.5252 1.18156 44.1025 1.41311 44.6646 1.79154C44.7492 1.84866 44.788 1.82622 44.7809 1.72422C44.7574 1.39679 44.7549 1.05278 44.7732 0.692195C44.7736 0.680707 44.7709 0.669328 44.7652 0.659331C44.7595 0.649333 44.7512 0.641111 44.7411 0.635583C44.2484 0.366294 43.7284 0.193908 43.1812 0.118425C42.7543 0.0595178 42.3328 0.00749591 41.8975 0.0472773C41.6093 0.0732883 41.4137 0.0949639 41.3107 0.112305C40.3101 0.283161 39.492 0.753142 38.8565 1.52225C38.35 2.13504 37.9224 2.80061 37.7319 3.60848C37.6916 3.77941 37.6761 3.9458 37.6604 4.11425C37.6528 4.19536 37.6452 4.27694 37.6348 4.35974C37.6098 4.5566 37.6095 4.74225 37.634 4.91668C37.6474 5.01399 37.6547 5.11118 37.662 5.2083C37.6726 5.35014 37.6833 5.49182 37.7128 5.63351C37.953 6.79023 38.6476 7.90028 39.6628 8.51613C40.2443 8.86881 40.9037 9.11438 41.5792 9.17635C41.7888 9.19573 41.9898 9.20771 42.1821 9.2123C42.991 9.2327 43.8368 9.057 44.7197 8.6852C44.7492 8.67245 44.764 8.65026 44.764 8.61864L44.7747 7.43821C44.7749 7.43429 44.774 7.43042 44.7723 7.42691C44.7705 7.4234 44.7679 7.42036 44.7647 7.41804C44.7615 7.41571 44.7577 7.41418 44.7537 7.41356C44.7498 7.41295 44.7457 7.41326 44.7419 7.41449C44.6506 7.44662 44.5667 7.48921 44.4902 7.54225C43.9875 7.89034 43.5346 8.1275 42.9111 8.23307C42.5807 8.28866 42.265 8.29376 41.964 8.24837C40.2305 7.98673 39.0401 6.88433 38.8098 5.08575ZM27.3151 2.52897V2.52898C27.3213 2.57483 27.3275 2.62073 27.3275 2.66597C27.3296 4.76622 27.3314 6.88076 27.3329 9.00957C27.3329 9.03865 27.3184 9.05318 27.2893 9.05318L26.3483 9.05471C26.3347 9.05471 26.3217 9.04923 26.3121 9.03947C26.3024 9.02972 26.297 9.01649 26.297 9.00269L26.2993 0.138318C26.2993 0.102616 26.3169 0.0822153 26.3521 0.0771151C26.4501 0.0648747 26.5878 0.0786451 26.6589 0.158973C28.4108 2.14039 30.3002 4.26003 32.327 6.51788C32.4882 6.6969 32.609 6.84276 32.6896 6.95548C32.7554 7.04728 32.7883 7.03682 32.7883 6.92411L32.7807 0.361705C32.7807 0.348314 32.7859 0.335471 32.7952 0.326002C32.8045 0.316533 32.8172 0.311214 32.8304 0.311214L33.7943 0.311978C33.8372 0.311978 33.8586 0.3334 33.8586 0.376241C33.8723 3.34047 33.8649 6.24987 33.8364 9.10444C33.8364 9.14116 33.8356 9.17788 33.8341 9.2146C33.8335 9.23262 33.828 9.25013 33.8182 9.26527C33.8084 9.2804 33.7947 9.29258 33.7785 9.30052C33.7623 9.30846 33.7443 9.31184 33.7263 9.31032C33.7083 9.3088 33.6911 9.30242 33.6765 9.29187C33.5612 9.20976 33.4493 9.10826 33.3407 8.98739C31.6729 7.13704 29.9261 5.1875 28.1002 3.13875C27.8457 2.85314 27.5966 2.5813 27.3528 2.32324C27.3491 2.31954 27.3445 2.31692 27.3394 2.31568C27.3344 2.31444 27.3291 2.31463 27.3242 2.31623C27.3193 2.31784 27.315 2.32078 27.3118 2.32473C27.3086 2.32868 27.3066 2.33347 27.3061 2.33854C27.2976 2.40055 27.3063 2.46463 27.3151 2.52883V2.52885V2.52887V2.52889V2.5289V2.52892V2.52894V2.52895V2.52897ZM55.4874 3.83259L51.9033 3.8303C51.8943 3.8303 51.8858 3.82675 51.8795 3.82044C51.8731 3.81413 51.8696 3.80556 51.8696 3.79664L51.8604 1.32713C51.8604 1.3182 51.864 1.30964 51.8703 1.30333C51.8766 1.29701 51.8852 1.29347 51.8941 1.29347L55.4874 1.29959C55.4963 1.29959 55.5049 1.29604 55.5112 1.28973C55.5175 1.28342 55.5211 1.27485 55.5211 1.26593L55.5203 0.350953C55.5203 0.342026 55.5168 0.333464 55.5104 0.327151C55.5041 0.320839 55.4956 0.317292 55.4866 0.317292L50.8077 0.318822C50.7988 0.318822 50.7902 0.322369 50.7839 0.328681C50.7776 0.334994 50.7741 0.343556 50.7741 0.352483L50.7748 9.02254C50.7748 9.02696 50.7757 9.03133 50.7774 9.03542L50.778 9.0368C50.7797 9.04034 50.7819 9.04357 50.7847 9.04634C50.7858 9.0474 50.7869 9.04839 50.7881 9.04929L50.7897 9.05045C50.7915 9.0517 50.7935 9.05277 50.7956 9.05364C50.7997 9.05533 50.8041 9.0562 50.8085 9.0562H55.492C55.5009 9.0562 55.5095 9.05265 55.5158 9.04634C55.5221 9.04003 55.5257 9.03146 55.5257 9.02254L55.5195 8.09226C55.5195 8.08334 55.516 8.07477 55.5097 8.06846C55.5034 8.06215 55.4948 8.0586 55.4859 8.0586L51.8994 8.06931C51.8905 8.06931 51.8819 8.06577 51.8756 8.05945C51.8693 8.05314 51.8658 8.04458 51.8658 8.03565L51.865 4.79117C51.865 4.78675 51.8659 4.78237 51.8676 4.77829C51.8693 4.77421 51.8717 4.77049 51.8749 4.76737C51.878 4.76424 51.8817 4.76176 51.8858 4.76007C51.8899 4.75838 51.8942 4.75751 51.8987 4.75751L55.4882 4.76592C55.4971 4.76592 55.5057 4.76238 55.512 4.75607C55.5183 4.74975 55.5218 4.74119 55.5218 4.73226L55.5211 3.86625C55.5211 3.85733 55.5175 3.84876 55.5112 3.84245C55.5049 3.83614 55.4963 3.83259 55.4874 3.83259ZM63.7367 5.16069L63.7444 8.9843C63.7444 9.03224 63.7204 9.05596 63.6725 9.05545L62.6427 9.04856C62.6354 9.04856 62.6284 9.04566 62.6232 9.0405C62.6181 9.03533 62.6152 9.02833 62.6152 9.02102L62.6167 0.380803C62.6167 0.340511 62.6366 0.320366 62.6764 0.320366C63.4491 0.320876 64.2725 0.318581 65.1467 0.313481C65.4894 0.31144 65.7862 0.351987 66.0372 0.43512C66.9422 0.73348 67.6345 1.42736 67.6483 2.42649C67.6519 2.69527 67.6437 2.93421 67.6238 3.14332C67.5412 4.01239 66.8573 4.76058 66.044 5.02528C65.7962 5.10587 65.4766 5.14157 65.0855 5.13239C64.6167 5.12066 64.1771 5.12015 63.7666 5.13086C63.7586 5.13106 63.751 5.13429 63.7454 5.13986C63.7398 5.14544 63.7367 5.15291 63.7367 5.16069ZM63.7428 1.29348L63.7321 4.18375C63.7321 4.19004 63.7346 4.19608 63.7391 4.20052C63.7435 4.20497 63.7495 4.20747 63.7558 4.20747L65.0763 4.21206C65.2663 4.21276 65.4546 4.17563 65.6305 4.1028C65.8063 4.02996 65.9662 3.92285 66.1011 3.78759C66.2359 3.65232 66.343 3.49154 66.4163 3.31444C66.4896 3.13735 66.5277 2.9474 66.5283 2.75545V2.74015C66.5295 2.35274 66.3784 1.9807 66.1081 1.70583C65.8378 1.43096 65.4706 1.27576 65.087 1.27435L63.7666 1.26976C63.7603 1.26976 63.7542 1.27226 63.7498 1.27671C63.7453 1.28116 63.7428 1.28719 63.7428 1.29348ZM73.5788 1.26443L75.9144 1.25066C75.9389 1.25066 75.9511 1.2629 75.9511 1.28738L75.9466 9.01033C75.9466 9.02109 75.9508 9.0314 75.9584 9.039C75.966 9.04661 75.9764 9.05088 75.9871 9.05088L77.0398 9.05394C77.0882 9.05394 77.1125 9.02971 77.1125 8.98126L77.1033 1.2652C77.1033 1.26195 77.1046 1.25884 77.1069 1.25654C77.1092 1.25425 77.1123 1.25296 77.1155 1.25296L79.5376 1.25908C79.545 1.25918 79.5523 1.25781 79.5591 1.25504C79.5659 1.25227 79.5721 1.24816 79.5773 1.24295C79.5825 1.23774 79.5866 1.23154 79.5894 1.22472C79.5922 1.2179 79.5936 1.21059 79.5934 1.20323L79.5911 0.398421C79.5911 0.344359 79.5641 0.317328 79.5101 0.317328C77.7112 0.315288 75.9058 0.315288 74.0937 0.317328C73.9157 0.317838 73.74 0.322428 73.5666 0.331098C73.537 0.332629 73.5209 0.34793 73.5184 0.377001C73.4944 0.669241 73.4939 0.94618 73.5168 1.20782C73.5204 1.24556 73.5411 1.26443 73.5788 1.26443ZM34.4645 18.0208C34.4645 18.0682 34.4777 18.0726 34.5043 18.0338L39.1954 11.2503C39.2102 11.2289 39.2303 11.2182 39.2558 11.2182L42.0658 11.2235C42.0742 11.2237 42.0821 11.2272 42.088 11.2332C42.0939 11.2392 42.0972 11.2473 42.0972 11.2557L42.0987 27.9042C42.0987 27.9145 42.0945 27.9245 42.087 27.9318C42.0796 27.9391 42.0695 27.9432 42.0589 27.9432L38.9781 27.944C38.9526 27.944 38.9399 27.9312 38.9399 27.9057L38.9544 16.9046C38.9544 16.8062 38.9271 16.7978 38.8726 16.8794L31.4732 27.8208C31.4462 27.8611 31.413 27.8958 31.3738 27.9249C31.3696 27.9278 31.3647 27.9294 31.3596 27.9295C31.3545 27.9296 31.3495 27.9282 31.3452 27.9256C31.3409 27.9229 31.3375 27.919 31.3353 27.9144C31.3332 27.9098 31.3325 27.9046 31.3332 27.8996C31.3562 27.7665 31.3676 27.6403 31.3676 27.5209C31.3733 24.1181 31.3727 20.5533 31.3661 16.8266C31.3662 16.8225 31.3651 16.8184 31.363 16.8149C31.3621 16.8133 31.3609 16.8118 31.3596 16.8105C31.3585 16.8094 31.3573 16.8084 31.356 16.8076L31.3542 16.8065C31.3505 16.8046 31.3464 16.8038 31.3423 16.8041C31.34 16.8043 31.3377 16.8048 31.3355 16.8057C31.3339 16.8064 31.3323 16.8072 31.3309 16.8082C31.3156 16.8184 31.3029 16.8314 31.2927 16.8473C28.7997 20.5235 26.3101 24.2002 23.8237 27.8774C23.8098 27.8979 23.791 27.9147 23.769 27.9263C23.747 27.9379 23.7225 27.944 23.6975 27.944H20.0957C20.0356 27.944 20.0226 27.9195 20.0567 27.8705L31.5864 11.2947C31.6027 11.2713 31.6244 11.2522 31.6495 11.239C31.6747 11.2259 31.7027 11.219 31.731 11.219L34.4224 11.2212C34.4499 11.2212 34.4637 11.235 34.4637 11.2626L34.4645 18.0208ZM62.9866 23.1984C62.9902 23.2417 62.9937 23.2847 62.99 23.327C62.9897 23.3301 62.9889 23.3331 62.9876 23.3359C62.9863 23.3389 62.9845 23.3416 62.9823 23.344C62.978 23.3488 62.9724 23.352 62.9661 23.3534C62.9599 23.3547 62.9534 23.3541 62.9475 23.3516C62.9416 23.349 62.9367 23.3447 62.9334 23.3393L56.1668 11.2725C56.1579 11.2571 56.1451 11.2444 56.1296 11.2355C56.1142 11.2266 56.0967 11.222 56.0788 11.222L52.6147 11.2235C52.6083 11.2235 52.602 11.226 52.5974 11.2305C52.5928 11.2349 52.5903 11.241 52.5903 11.2472L52.591 27.9034C52.591 27.9142 52.5953 27.9245 52.6029 27.9321C52.6105 27.9397 52.6208 27.944 52.6316 27.944L55.6573 27.9432C55.6838 27.9432 55.697 27.9302 55.697 27.9042L55.6978 15.969C55.6978 15.8338 55.7312 15.8249 55.798 15.9422L62.5892 27.9164C62.594 27.925 62.6011 27.9322 62.6095 27.9371C62.6115 27.9383 62.6135 27.9393 62.6156 27.9402L62.621 27.9422C62.6263 27.9439 62.6318 27.9447 62.6374 27.9447L65.9652 27.9432C65.9803 27.9432 65.9947 27.9372 66.0053 27.9266C66.0159 27.916 66.0219 27.9016 66.0219 27.8866L66.0226 11.2641C66.0226 11.2365 66.0088 11.2228 65.9813 11.2228L63.0023 11.2251C62.9742 11.2251 62.9602 11.2391 62.9602 11.2671C62.9551 15.2529 62.9622 19.2012 62.9816 23.112C62.9819 23.1409 62.9843 23.1696 62.9866 23.1982V23.1983V23.1983V23.1984V23.1984ZM77.8553 22.2399C77.8554 22.2381 77.8553 22.2363 77.855 22.2345C77.8546 22.2314 77.8538 22.2284 77.8526 22.2256C77.8507 22.221 77.8478 22.2169 77.8442 22.2136C77.8406 22.2103 77.8363 22.2077 77.8316 22.2062C77.8269 22.2047 77.822 22.2042 77.8171 22.2047C77.664 22.2231 77.5034 22.2325 77.3351 22.233C75.8616 22.2361 74.4191 22.2394 73.0073 22.243C72.9584 22.243 72.9336 22.2185 72.9331 22.1695L72.9293 19.42C72.9293 19.4167 72.9296 19.4134 72.9302 19.4101L72.931 19.4064L72.932 19.4027L72.9335 19.3988L72.9354 19.3946L72.9373 19.3913C72.9383 19.3896 72.9395 19.3878 72.9407 19.3862C72.9422 19.3843 72.9438 19.3825 72.9455 19.3808C72.9496 19.3767 72.9544 19.3732 72.9596 19.3706L72.9634 19.3689C72.97 19.3662 72.9772 19.3648 72.9844 19.3649L83.1608 19.3726C83.1703 19.3727 83.1796 19.3753 83.1877 19.3802C83.1958 19.3852 83.2024 19.3922 83.2069 19.4006C83.2114 19.4089 83.2135 19.4184 83.2131 19.4279C83.2126 19.4373 83.2096 19.4465 83.2044 19.4545C81.4142 22.0933 79.6582 24.689 77.9364 27.2417C77.867 27.3442 77.7709 27.4151 77.648 27.4543C76.4476 27.8392 75.2695 28.0595 74.0546 27.8942C73.896 27.8728 73.7456 27.8522 73.6033 27.8323C71.8101 27.5829 70.1783 26.7673 68.8532 25.5058C68.4921 25.1621 68.168 24.7867 67.8809 24.3797C66.5523 22.4947 66.0869 20.3814 66.4847 18.0399C66.5995 17.3672 66.8262 16.6863 67.1648 15.9973C68.6191 13.0412 71.6586 11.1386 74.9696 11.2128C77.5524 11.2702 80.272 12.6258 81.7493 14.7748C82.0431 15.2024 82.2871 15.7104 82.509 16.2008C82.5137 16.2111 82.5158 16.2224 82.5151 16.2336C82.5143 16.2449 82.5107 16.2559 82.5046 16.2654C82.4985 16.2749 82.4901 16.2828 82.4801 16.2882C82.4702 16.2936 82.4591 16.2964 82.4478 16.2964H79.0434C79.0243 16.2964 79.0055 16.2917 78.9887 16.2828C78.9719 16.2739 78.9576 16.2609 78.947 16.2452C78.0366 14.8941 76.567 14.0885 74.9337 14.0304C72.1214 13.9294 69.795 15.9743 69.3887 18.7261C69.3377 19.0709 69.3204 19.4409 69.3367 19.8362C69.3727 20.7091 69.6672 21.6172 70.0727 22.3593C70.9525 23.9712 72.559 24.9542 74.3997 25.0912C74.8138 25.1218 75.2879 25.1111 75.8219 25.059C75.929 25.0483 75.9818 24.981 76.0384 24.8984C76.5973 24.0783 77.1729 23.25 77.765 22.4136C77.7684 22.4088 77.7718 22.4041 77.7753 22.3995C77.7767 22.3976 77.7781 22.3956 77.7796 22.3937L77.7916 22.3781C77.8235 22.3371 77.8541 22.2978 77.8553 22.2399ZM12.0117 22.2147C12.0897 22.2131 12.1662 22.2124 12.2412 22.2124C12.2492 22.2123 12.2571 22.2145 12.264 22.2186C12.2709 22.2227 12.2765 22.2287 12.2803 22.2358C12.284 22.2429 12.2857 22.2509 12.2851 22.259C12.2846 22.267 12.2818 22.2747 12.2772 22.2812L10.4158 24.9634C10.3776 25.0185 10.3253 25.0494 10.259 25.056C9.48481 25.1386 8.63334 25.1394 7.89585 24.9489C5.33301 24.2864 3.9223 22.2108 3.72951 19.6289C3.7173 19.464 3.74198 19.2971 3.76664 19.1304C3.77905 19.0465 3.79145 18.9626 3.79913 18.8792C3.87028 18.1164 4.1411 17.3514 4.52437 16.6958C5.93202 14.2905 8.93093 13.3381 11.4593 14.5606C12.2343 14.9347 12.8762 15.5031 13.349 16.2077C13.3893 16.2679 13.4456 16.2977 13.518 16.2972L16.9285 16.2934C16.9337 16.2933 16.9387 16.2919 16.9432 16.2894C16.9477 16.2869 16.9515 16.2834 16.9543 16.2791C16.9571 16.2748 16.9588 16.2699 16.9592 16.2647C16.9596 16.2596 16.9588 16.2545 16.9568 16.2498C16.8064 15.9137 16.6498 15.5936 16.4871 15.2896C16.1785 14.7133 15.7642 14.1765 15.2439 13.6793C13.9842 12.4746 12.4758 11.6976 10.7188 11.3482C10.2516 11.2554 9.74824 11.21 9.20864 11.2121C8.591 11.2141 8.03559 11.2687 7.54241 11.3758C5.67574 11.7812 4.11101 12.6916 2.8482 14.1069C1.62798 15.4748 0.805578 17.3858 0.778802 19.2793C0.770641 19.8321 0.786452 20.2649 0.826233 20.5775C1.26918 24.076 3.8305 26.8622 7.25399 27.6892C7.46208 27.7397 7.72754 27.7884 8.05039 27.8353C8.31457 27.8736 8.57902 27.9052 8.84372 27.9302C9.91629 28.0304 11.011 27.8009 12.1004 27.449C12.2091 27.4143 12.296 27.3485 12.3613 27.2516C14.1632 24.5827 15.8585 22.0714 17.4472 19.7176C17.5028 19.635 17.563 19.531 17.6278 19.4055C17.6395 19.3831 17.6326 19.3718 17.6071 19.3718C14.2083 19.3723 10.8244 19.37 7.45519 19.3649C7.40674 19.3649 7.38252 19.3894 7.38252 19.4384L7.38099 22.1856C7.38099 22.2001 7.38668 22.214 7.39685 22.2243C7.40701 22.2346 7.42083 22.2405 7.4353 22.2407C8.95465 22.2468 10.4801 22.2381 12.0117 22.2147ZM23.5414 16.9153C23.5419 16.8378 23.5205 16.8312 23.4772 16.8954L16.022 27.8736C15.9898 27.9205 15.9452 27.9439 15.8881 27.9439H12.3384C12.2772 27.9439 12.2642 27.9187 12.2993 27.8682L23.8038 11.2847C23.8159 11.2672 23.8321 11.2529 23.851 11.2431C23.8699 11.2332 23.891 11.2281 23.9125 11.2281L26.6207 11.2258C26.6462 11.2258 26.6589 11.2386 26.6589 11.2641L26.6436 17.3544C26.6431 17.4214 26.6205 17.4865 26.5793 17.5396L23.6707 21.2844C23.56 21.4267 23.509 21.4078 23.5177 21.2278C23.5194 21.1917 23.5234 21.1563 23.5276 21.1208C23.5329 21.0742 23.5384 21.0274 23.5384 20.9784C23.5338 19.6539 23.5348 18.2995 23.5414 16.9153ZM45.7884 24.965C45.7884 24.9818 45.78 24.9902 45.7632 24.9902L43.0305 24.9818C42.9922 24.9818 42.9731 25.0009 42.9731 25.0392V27.8759C42.9731 27.9213 42.9958 27.944 43.0412 27.944L51.6959 27.9432C51.7108 27.9432 51.725 27.9373 51.7354 27.9269C51.7459 27.9164 51.7518 27.9022 51.7518 27.8874L51.7464 25.0522C51.7459 25.0042 51.7217 24.9803 51.6738 24.9803L48.9204 24.991C48.9135 24.991 48.9066 24.9896 48.9003 24.9868C48.8939 24.984 48.8882 24.9799 48.8835 24.9748C48.8789 24.9697 48.8753 24.9637 48.8731 24.9571C48.8709 24.9505 48.8701 24.9436 48.8707 24.9367C48.8814 24.828 48.8868 24.7125 48.8868 24.5901C48.8857 21.048 48.8842 17.587 48.8822 14.2072C48.8822 14.1908 48.8903 14.1827 48.9067 14.1827L51.7327 14.1941C51.735 14.1941 51.7373 14.1937 51.7394 14.1927C51.7409 14.1921 51.7424 14.1912 51.7437 14.1901C51.7442 14.1897 51.7447 14.1892 51.7451 14.1888C51.7467 14.1871 51.748 14.185 51.7489 14.1828C51.7498 14.1806 51.7503 14.1782 51.7503 14.1758L51.751 11.2626C51.751 11.2371 51.738 11.2243 51.712 11.2243L42.9953 11.2258C42.9939 11.2258 42.9924 11.226 42.991 11.2263C42.9897 11.2265 42.9884 11.2269 42.9871 11.2274C42.9856 11.228 42.9841 11.2288 42.9828 11.2297C42.9819 11.2304 42.981 11.2311 42.9801 11.2319C42.9782 11.2338 42.9766 11.2361 42.9755 11.2386C42.9748 11.2403 42.9743 11.2421 42.974 11.244C42.9739 11.2448 42.9739 11.2457 42.9739 11.2465L42.9723 14.1421C42.9723 14.1547 42.9774 14.1668 42.9865 14.1757C42.9955 14.1846 43.0078 14.1896 43.0205 14.1896L45.7662 14.1857C45.7723 14.1857 45.7781 14.1882 45.7825 14.1925C45.7868 14.1968 45.7892 14.2026 45.7892 14.2087L45.7884 24.965Z" fill="white"/>
</g>
<defs>
<clipPath id="clip0_4134_9607">
<rect width="82.4699" height="28" fill="white" transform="translate(0.76503 0.000976562)"/>
</clipPath>
</defs>
</svg>
