<svg width="84" height="32" fill="none" xmlns="http://www.w3.org/2000/svg"><path fill-rule="evenodd" clip-rule="evenodd" d="m.73 11.893-.007-.184c-.02-.58-.042-1.182.088-1.741.069-.296.127-.593.176-.892.08-.502.25-.98.423-1.463l.127-.362c.062-.179.223-.475.482-.89 1.377-1.955 3.549-3.51 5.665-4.618.696-.365 1.42-.66 2.175-.884.789-.235 1.528-.41 2.217-.528 1.368-.23 3.213-.285 4.595.235 1.034.388 1.867.818 2.497 1.287 2.303 1.72 3.948 3.976 4.935 6.768.091.26.22.812.385 1.655.444 3.392-.279 6.486-2.168 9.282-1.406 2.078-3.543 3.726-5.939 4.366-2.272.607-4.41.51-6.413-.29-1.197-.478-2.372-1.183-3.528-2.112a20.18 20.18 0 0 1-4.339-4.85c-.444-.693-.8-1.393-1.065-2.1-.29-.776-.393-1.67-.306-2.679Zm15.502.572-.114-.215c-.73-.989-1.676-.252-1.99.594l-.086.802c.001.086.012.15.032.19.022.415.183.725.482.928.606.526 1.282-.038 1.568-.62.143-.287.21-.609.198-.963.021-.184-.008-.423-.09-.716Zm.45 7.158c-.018-.107.008-.273.076-.5.13-.529.38-.908.753-1.138.59-.365 1.044-.227 1.361.411.08.28.111.488.094.623.043.334.018.596-.075.787a.27.27 0 0 1-.041.184c-.135.355-.33.626-.585.814-.285.22-.571.256-.86.108a1.215 1.215 0 0 1-.344-.262.182.182 0 0 1-.103-.128 1.417 1.417 0 0 1-.276-.9Zm6.65-4.714.053-.317c.098-.466.103-.8.017-1.002-.295-.688-.742-.817-1.343-.388-.416.296-.656.773-.718 1.43l.013.23c-.005.166.016.32.063.466a.913.913 0 0 0 .333.472c.227.103.478.122.755.057l.373-.287.36-.507.093-.154Zm-3.239-.51a4.618 4.618 0 0 0-.032.133c-.14.338-.353.62-.64.845-.353.198-.666.217-.94.057a.798.798 0 0 0-.052-.013c-.377-.317-.577-.748-.598-1.291 0-.715.455-1.644 1.245-1.753a.8.8 0 0 1 .64.194c.287.237.438.529.453.877.032.436.007.753-.076.95ZM21.316 8.9a1.63 1.63 0 0 1-.285.512l-.061.11c-.186.245-.46.384-.821.42a1.048 1.048 0 0 1-.461-.135.575.575 0 0 1-.353-.37c-.117-.21-.183-.39-.2-.543l.046-.863.059-.133c.22-.947 1.413-1.61 2.006-.512a.535.535 0 0 1 .112.276l.067.53-.109.708Zm-8.39-4.076c.251.263.21.606-.126 1.03-.03-.015-.05-.012-.065.01-.554.506-1.727 1.112-2.45.638l-.06-.132a.828.828 0 0 1 .059-.468c.265-.338.583-.61.954-.815.474-.233.97-.353 1.49-.36.1.028.166.06.198.097ZM7.625 8.297c.559-.867 1.356-1.308 2.392-1.322.407.038.59.183.553.435-.044.26-.17.476-.381.65a2.937 2.937 0 0 1-1.016.685c-.118.009-.247.047-.38.087-.314.094-.648.193-.917-.064-.222-.082-.306-.238-.251-.47Zm.331-3.844c-.058.134-.17.27-.335.412-.594.386-1.177.737-1.928.573-.095.033-.174-.002-.236-.107a.199.199 0 0 1-.019-.177c.095-.271.22-.42.375-.447.428-.498.972-.77 1.633-.817a.91.91 0 0 0 .096-.01c.262-.013.423.087.483.301.025.036.002.126-.069.272Zm2.172-1.857c-.73.746-1.51.99-2.343.735.037-.116.045-.197.026-.241a.704.704 0 0 1 .334-.48c.274-.304.64-.543 1.097-.719.293-.074.602-.09.927-.047.134.009.213.077.239.206a.4.4 0 0 1-.054.268c-.073.14-.149.233-.226.278ZM3.06 6.926l-.265.565c.888.299 1.742.046 2.564-.76.296-.298.348-.518.156-.66-.143-.139-.3-.197-.47-.176-.782.1-1.444.444-1.985 1.03Zm.89 7.813a.342.342 0 0 1-.098.248.342.342 0 0 1-.254.079 1.014 1.014 0 0 1-.373-.103 2.332 2.332 0 0 1-.434-.268 3.464 3.464 0 0 1-.79-.85 2.334 2.334 0 0 1-.235-.453 1.014 1.014 0 0 1-.075-.379.342.342 0 0 1 .097-.247.342.342 0 0 1 .254-.08c.108.005.234.04.373.103.138.064.286.155.434.268a3.47 3.47 0 0 1 .79.85c.102.156.182.31.235.453.054.143.079.272.075.38Zm2.999.928c-.23-.285-.398-.578-.48-.83-.076-.239-.072-.43.012-.547.073-.103.204-.145.379-.122.244.031.557.187.878.434.192.148.378.323.545.512.292.33.51.685.606.985a.816.816 0 0 1 .04.416.296.296 0 0 1-.185.224c-.11.043-.258.035-.434-.021a2.21 2.21 0 0 1-.576-.305 3.989 3.989 0 0 1-.785-.746Zm-1.403 4.457a2.17 2.17 0 0 1-.446-.547l-.005-.007c-.236-.33-.633-.884-.328-1.147.236-.204.632.011.85.168a.689.689 0 0 1 .25.205c.524.38.84.861.947 1.444a.462.462 0 0 1-.135.349c-.375-.012-.752-.167-1.133-.465Zm5.619 2.373a3.66 3.66 0 0 1-1.292-1.091 6.675 6.675 0 0 0-.087-.144c-.204-.331-.468-.76-.202-1.058a.204.204 0 0 1 .165-.073c.839.02 1.627.993 1.99 1.663.07.227.152.585-.09.73-.134.08-.295.071-.484-.027Zm4.106-19.903c-.8-.108-1.503.128-2.11.709-.231.094-.405.318-.52.674-.04.152.015.273.168.362.173.1.364.12.571.137l.238-.044.655-.183a2.04 2.04 0 0 0 1-.714c.173-.098.27-.292.292-.583.01-.142-.05-.236-.18-.282-.049-.066-.087-.091-.114-.076Zm58.09 6.09 1.79-3.254a.152.152 0 0 1 .143-.083l6.06.005.87-.002.766-.01c.068 0 .084.028.047.087L71.815 23.714l-.268.482a.2.2 0 0 1-.176.103l-4.472.004c-.074 0-.116-.036-.128-.109l-2.845-18.64a.193.193 0 0 1-.082-.165c-.001-.068.032-.101.1-.101l7.62-.002c.06 0 .093.03.097.093l.33 5.766 1.37-2.461Zm-44.034 4.145 1.522-7.385c.012-.064.051-.095.116-.095l8.925.011h.002c.502.048.986.093 1.465.236 2.52.75 4.194 2.373 5.025 4.869.222.666.355 1.375.4 2.125a8.714 8.714 0 0 1-.143 2.056c-.452 2.546-1.534 4.827-3.246 6.843-1.442 1.698-3.466 2.781-5.737 2.78-3.687-.004-7.216-.004-10.586 0-.078 0-.108-.038-.092-.113l1.593-7.684.756-3.644Zm7.708-2.848-.823 3.89-.893 4.356-.238 1.215c-.02.103.021.156.126.16.405.018.783.028 1.135.032 1.112.008 1.882-.632 2.438-1.548.898-1.477 1.347-3.132 1.347-4.964 0-.815-.176-1.537-.528-2.166-.505-.903-1.505-.967-2.564-.975Zm10.486 14.318c.176.022.346.01.509-.032l13.874.034a.132.132 0 0 0 .087-.033.129.129 0 0 0 .042-.081l.067-.55 1.05-4.959c.015-.075-.016-.112-.092-.112h-6.89c-.106 0-.149-.053-.127-.158L58.716 5.45c.017-.077-.015-.116-.095-.116h-7.192c-.064 0-.103.032-.117.095l-3.866 18.762c-.013.064.012.1.076.107Zm-15.189 6.333c.644.357 1.385.332 2.159.164.099-.021.129.015.09.11l-.054.143c-.037.095-.005.142.095.142l.863.001a.092.092 0 0 0 .07-.033.094.094 0 0 0 .021-.075l-.108-.636a.195.195 0 0 1 .053-.176c.931-.979.366-2.06-.815-2.342-.771-.185-1.499-.058-2.183.38-.783.501-1.217 1.759-.19 2.322Zm2.29-1.922a.645.645 0 0 1 .243.558.818.818 0 0 1-.1.326 1.08 1.08 0 0 1-.235.291 1.281 1.281 0 0 1-.717.313 1.08 1.08 0 0 1-.373-.025.817.817 0 0 1-.307-.148.645.645 0 0 1-.244-.559.816.816 0 0 1 .1-.325 1.08 1.08 0 0 1 .235-.29 1.28 1.28 0 0 1 .717-.314 1.08 1.08 0 0 1 .373.025c.117.03.221.08.307.148Zm-20.613-.29h-.913a.067.067 0 0 1-.052-.023.066.066 0 0 1-.014-.056l.083-.413a.067.067 0 0 1 .067-.054l.899.008a.067.067 0 0 1 .063.05c.003.009.003.018.002.028l-.07.406a.066.066 0 0 1-.065.055Zm3.761.006-.796-.009a.077.077 0 0 1-.071-.054.075.075 0 0 1-.003-.032l.05-.377a.076.076 0 0 1 .076-.065l.88-.011a.076.076 0 0 1 .077.065.076.076 0 0 1-.003.036l-.137.396a.076.076 0 0 1-.073.052Zm27.317-.542.815-.008a.115.115 0 0 1 .092.046.116.116 0 0 1 .02.1l-.086.315a.116.116 0 0 1-.114.086l-.805-.006a.114.114 0 0 1-.092-.046.116.116 0 0 1-.019-.1l.076-.302a.116.116 0 0 1 .113-.085Zm12.476 1.895c.124-.05.218-.003.282.141.018.043.02.091.004.135a.177.177 0 0 1-.088.1c-.535.27-1.49.026-1.265-.763.274-.952 1.735-.9 2.46-.666.026.009.04 0 .043-.029l.074-.62c.003-.019-.005-.03-.023-.035-1.007-.305-2.318-.183-3.162.48-.241.189-.497.7-.523.996-.153 1.684 2.137 1.495 3.251 1.291a.167.167 0 0 0 .089-.047.173.173 0 0 0 .046-.09l.256-1.411c.014-.079-.02-.118-.101-.118h-1.195a.192.192 0 0 0-.186.146l-.092.378c-.03.123.013.16.13.112ZM1.577 28.575l-.788.036a.061.061 0 0 1-.06-.035.06.06 0 0 1-.005-.024l-.008-.571a.061.061 0 0 1 .06-.061l3.138-.004a.06.06 0 0 1 .048.023.06.06 0 0 1 .011.051l-.125.564a.061.061 0 0 1-.061.048l-.945-.006a.061.061 0 0 0-.06.05l-.464 2.186a.061.061 0 0 1-.059.048l-.996.002a.06.06 0 0 1-.047-.023.061.061 0 0 1-.012-.05l.436-2.162a.06.06 0 0 0-.063-.072Zm7.93 2.212c.411.202.848.18 1.31-.063a.069.069 0 0 1 .042-.009.066.066 0 0 1 .038.018.066.066 0 0 1 .02.058c-.007.06.02.09.081.09h.718c.083 0 .133-.04.15-.121l.565-2.678c.022-.108-.02-.162-.13-.162l-.728-.002c-.118 0-.18.059-.184.175l-.02.38c-.005.096-.055.14-.15.133-.675-.057-1.242.082-1.7.417-.55.404-.74 1.407-.012 1.764Zm.6-.76c-.149-.598.44-.848.958-.816.084.006.116.049.097.13l-.029.128c-.092.417-.19.853-.773.78a.3.3 0 0 1-.253-.222Zm34.257-2.04-.61 2.841a.06.06 0 0 1-.057.046l-.88.008a.058.058 0 0 1-.046-.023.06.06 0 0 1-.011-.05l.594-2.84a.06.06 0 0 1 .057-.045l.894-.01a.059.059 0 0 1 .059.046.057.057 0 0 1 0 .027Zm-28.103.672-.331.004c-.08 0-.112-.038-.094-.114l.067-.313c.019-.086-.015-.124-.103-.112l-.76.09c-.117.013-.175.08-.173.197.005.224-.104.306-.326.246-.083-.021-.134.009-.154.092l-.115.451a.074.074 0 0 0 .015.064.075.075 0 0 0 .06.027l.179-.003c.084-.002.12.04.108.123a9.817 9.817 0 0 1-.167.867c-.198.842.874.714 1.31.613a.16.16 0 0 0 .109-.087l.25-.513c.04-.08.016-.11-.073-.09a1.138 1.138 0 0 1-.452.018c-.08-.013-.113-.059-.095-.139l.164-.693c.015-.066.057-.099.126-.098l.287.004c.105.003.167-.047.187-.15l.074-.372c.015-.076-.016-.113-.093-.112Zm31.964.135a.587.587 0 0 0-.067.345c.005.076-.03.123-.105.139a.796.796 0 0 1-.31.004.173.173 0 0 0-.196.124l-.18.636c-.029.108.012.169.123.183.148.019.291.008.428-.033a.07.07 0 0 1 .082.1l-.25.496a.201.201 0 0 1-.144.113c-.27.058-.56.07-.87.032-.294-.034-.52-.308-.424-.605a4.38 4.38 0 0 0 .202-.938c.008-.07-.024-.104-.095-.102l-.18.003c-.07.002-.098-.031-.087-.099l.078-.43a.14.14 0 0 1 .15-.114l.191.015a.116.116 0 0 0 .126-.109.657.657 0 0 1 .061-.234.196.196 0 0 1 .162-.114l.737-.082c.09-.01.126.029.107.118l-.06.285a.114.114 0 0 0 .023.095.11.11 0 0 0 .086.04l1.408-.003a.13.13 0 0 1 .13.108l.196 1.197c.018.108.052.114.104.019l.637-1.16a.293.293 0 0 1 .274-.164l.676.002c.114 0 .14.048.078.145-.614.947-1.196 1.822-1.745 2.626-.322.469-1.167.412-1.674.364-.075-.008-.114-.049-.116-.124l-.01-.432c0-.074.03-.094.096-.061.344.173.811.131.996-.202a.239.239 0 0 0 .023-.19l-.555-1.98c-.025-.09-.06-.094-.106-.013Zm26.836.495h.124c.091 0 .127.045.106.134-.07.32-.13.632-.182.937-.12.707.762.63 1.182.562.292-.048.412-.385.477-.629a.08.08 0 0 0-.06-.098.08.08 0 0 0-.041.001.704.704 0 0 1-.383.023.142.142 0 0 1-.11-.114.138.138 0 0 1 .003-.056l.16-.641a.157.157 0 0 1 .16-.12l.27.015a.124.124 0 0 0 .123-.084l.14-.457a.083.083 0 0 0-.041-.097.078.078 0 0 0-.037-.008l-.371.006a.107.107 0 0 1-.107-.13l.073-.325c.015-.066-.011-.095-.078-.086l-.789.09c-.093.01-.144.061-.154.154l-.016.165a.145.145 0 0 1-.144.13h-.216c-.064 0-.103.032-.116.095l-.084.4c-.017.09.02.134.111.134Zm-69.943-.485c.232-.174.483-.248.75-.223.026.002.037.016.035.042l-.055.668a.042.042 0 0 1-.033.038.045.045 0 0 1-.019 0c-.404-.09-.77-.036-.905.423-.115.4-.202.759-.26 1.08-.006.033-.025.05-.06.05l-.862-.002c-.05 0-.07-.025-.06-.074l.402-2.008a.171.171 0 0 1 .168-.139l.684.002c.04 0 .075.013.107.038.027.022.042.046.043.074.004.05.026.06.065.03Zm15.74 1.45c.24-.28.334-.602.26-.895a.864.864 0 0 0-.222-.394 1.204 1.204 0 0 0-.425-.276 1.746 1.746 0 0 0-.563-.115 2.166 2.166 0 0 0-.614.063c-.411.102-.777.316-1.017.595-.24.28-.333.601-.26.895a.865.865 0 0 0 .222.394c.111.114.256.208.425.275.17.067.36.106.563.115.202.01.41-.012.614-.063.412-.101.777-.316 1.017-.595Zm-.886-.902c.05.035.09.081.117.134a.358.358 0 0 1 .036.175.466.466 0 0 1-.051.189.637.637 0 0 1-.13.173.765.765 0 0 1-.41.202.635.635 0 0 1-.216-.002.466.466 0 0 1-.18-.074.358.358 0 0 1-.154-.31.467.467 0 0 1 .05-.188.637.637 0 0 1 .131-.173.765.765 0 0 1 .41-.203.637.637 0 0 1 .216.002c.068.014.13.039.18.075Zm2.849-.48c.481-.32.996-.398 1.545-.234a.424.424 0 0 1 .3.444 9.28 9.28 0 0 1-.338 1.754c-.01.033-.033.05-.067.05l-.905-.01c-.04 0-.054-.02-.046-.059l.25-1.11c.071-.32-.055-.45-.377-.395l-.053.01c-.313.053-.496.236-.55.548l-.159.894c-.014.077-.06.116-.137.116h-.79c-.086 0-.125-.042-.117-.126.015-.166.048-.333.1-.5.16-.528.265-1.024.315-1.49.008-.068.045-.102.113-.103l.74-.004c.067 0 .1.033.098.1a.123.123 0 0 1-.01.047c-.04.112-.011.134.088.068Zm2.838 1.012a.914.914 0 0 1 .267.255c.063.094.04.135-.073.124l-.859-.086c-.04-.004-.061.015-.063.055l-.019.49c0 .034.015.056.048.066.724.229 1.354.171 1.89-.173a.408.408 0 0 0 .186-.251c.096-.397-.112-.553-.348-.73-.063-.048-.129-.097-.19-.152-.191-.172-.158-.26.098-.263.207-.003.4.017.577.059a.108.108 0 0 0 .12-.056.102.102 0 0 0 .01-.045l.01-.438c0-.065-.031-.102-.096-.11-.55-.08-1.024-.066-1.423.043-.613.17-.651.886-.135 1.212Zm41.663-1.097c.225-.141.436-.215.634-.221.107-.004.155.047.145.154l-.044.51c-.009.098-.06.134-.156.109-.424-.11-.697.033-.817.43-.104.342-.181.697-.23 1.065-.004.03-.021.044-.05.044l-.9.002c-.046 0-.065-.023-.056-.069l.411-2.044c.015-.072.06-.108.133-.108.246 0 .484.001.717.004.054 0 .1.017.137.053a.157.157 0 0 1 .04.06.024.024 0 0 0 .006.008.024.024 0 0 0 .02.006.024.024 0 0 0 .01-.003Zm6.748-.206c-.53-.079-.982.018-1.354.291-.081.06-.113.04-.095-.059a.164.164 0 0 0 .002-.055c-.013-.066-.052-.098-.118-.097h-.686c-.065 0-.105.032-.12.097l-.442 2.02a.085.085 0 0 0 .084.102l.846.002c.062 0 .1-.03.112-.092.06-.303.11-.593.149-.87.044-.31.229-.51.554-.6a.316.316 0 0 1 .097-.012c.325.003.438.159.34.467a5.818 5.818 0 0 0-.23 1.053c0 .007 0 .014.002.02a.05.05 0 0 0 .01.018c.004.005.01.01.015.012a.044.044 0 0 0 .02.004l.912.002c.034 0 .054-.017.06-.05.114-.515.224-1.053.33-1.613.065-.335-.166-.59-.488-.64Zm4.227 1.291c-.433.004-.463.114-.09.33.236.134.676.122 1.323-.038a.027.027 0 0 1 .026.009.026.026 0 0 1 .006.013c0 .005 0 .01-.002.014l-.246.594a.093.093 0 0 1-.07.06c-.82.165-2.337.213-2.272-.978.085-1.613 3.443-1.777 2.893-.118a.144.144 0 0 1-.145.105c-.481.001-.956.004-1.423.01Zm-.097-.426.716-.04a.028.028 0 0 0 .02-.01.029.029 0 0 0 .007-.019l-.002-.02a.224.224 0 0 0-.033-.106.285.285 0 0 0-.082-.086.38.38 0 0 0-.12-.054.447.447 0 0 0-.138-.014l-.058.004a.416.416 0 0 0-.247.096.251.251 0 0 0-.094.201v.021l.001.004v.001l.002.006a.028.028 0 0 0 .017.014l.005.002h.006Zm2.884.558c-.027-.09.007-.136.103-.136l1.57-.001c.087 0 .141-.042.163-.126.425-1.617-2.299-1.381-2.79-.24-.28.649-.082 1.095.594 1.337.401.144.926.144 1.575.002a.131.131 0 0 0 .103-.093l.166-.509c.019-.058-.001-.08-.06-.063-.376.11-.769.139-1.176.084a.256.256 0 0 1-.23-.194l-.018-.061Zm.906-.595-.739.035a.028.028 0 0 1-.02-.008.029.029 0 0 1-.008-.019l-.002-.023a.22.22 0 0 1 .022-.107.285.285 0 0 1 .075-.093.385.385 0 0 1 .114-.066.462.462 0 0 1 .138-.027l.072-.004a.464.464 0 0 1 .14.014c.044.012.085.03.12.055a.285.285 0 0 1 .083.086.22.22 0 0 1 .032.104v.023a.03.03 0 0 1-.007.02.03.03 0 0 1-.02.01Zm-74.339-.222c-.306-.108-.722-.045-1.25.19a.019.019 0 0 1-.02-.003.019.019 0 0 1-.006-.02l.149-.52a.084.084 0 0 1 .063-.063c.575-.152 1.863-.377 2.272.227a.22.22 0 0 1 .027.21 6.104 6.104 0 0 0-.318 1.525c-.007.079-.05.122-.128.128-.687.053-1.345.061-1.973.025-.31-.02-.523-.167-.64-.444a.244.244 0 0 1-.002-.18c.228-.588 1.09-.754 1.703-.872l.108-.02c.231-.045.236-.106.015-.183Zm-.007.727-.75.269a.027.027 0 0 0-.016.034l.006.015c.014.04.036.076.066.106.03.03.067.055.109.071a.368.368 0 0 0 .134.026.406.406 0 0 0 .138-.024l.119-.043a.389.389 0 0 0 .21-.174.3.3 0 0 0 .024-.247l-.006-.016a.027.027 0 0 0-.034-.017Zm33.758-.56a.072.072 0 0 1-.034.015c-.503.078-1 .218-1.492.42-.543.222-.417 1.078.223 1.098.625.022 1.273.018 1.945-.01.066-.003.108-.036.127-.1.174-.593.296-1.162.364-1.707a.206.206 0 0 0-.072-.184c-.513-.433-1.534-.28-2.137-.128a.256.256 0 0 0-.21.232l-.036.252c-.014.104.026.134.12.091a2.233 2.233 0 0 1 1.023-.2.2.2 0 0 1 .148.073l.04.045a.072.072 0 0 1 .013.072.073.073 0 0 1-.022.03Zm-.84.827.724-.252a.034.034 0 0 1 .042.021l.003.012a.294.294 0 0 1-.018.238.33.33 0 0 1-.19.162l-.169.057a.343.343 0 0 1-.249-.01.307.307 0 0 1-.162-.175l-.002-.01a.036.036 0 0 1-.002-.013.035.035 0 0 1 .023-.03Zm23.973-.947-.047-.051a.292.292 0 0 0-.28-.084l-.936.227a.043.043 0 0 1-.04-.012.048.048 0 0 1-.013-.042l.082-.375a.158.158 0 0 1 .12-.125c.619-.164 1.768-.347 2.225.167.05.057.066.123.051.196l-.352 1.625c-.017.077-.065.117-.145.12-.57.014-1.16.024-1.771.029-.358.003-.896-.246-.74-.7.19-.55 1.133-.723 1.719-.83l.083-.015a.078.078 0 0 0 .063-.093.078.078 0 0 0-.019-.037Zm-.095.697-.748.246a.028.028 0 0 0-.018.014.027.027 0 0 0-.003.011v.003l.001.008.002.008a.313.313 0 0 0 .167.188.341.341 0 0 0 .258.016l.158-.052a.353.353 0 0 0 .2-.166.323.323 0 0 0 .021-.25l-.002-.006a.026.026 0 0 0-.002-.006.028.028 0 0 0-.012-.012.029.029 0 0 0-.022-.002Zm5.501-.651.002.05c0 .01-.004.02-.01.027a.045.045 0 0 1-.026.014 5.371 5.371 0 0 0-1.518.423c-.343.158-.517.68-.164.934.375.27 1.358.209 2.018.168.137-.009.26-.016.36-.02.082-.002.128-.044.138-.124.065-.466.16-.955.284-1.466.232-.96-1.75-.642-2.17-.532a.228.228 0 0 0-.156.137l-.162.395c-.035.089-.01.114.078.076a2.513 2.513 0 0 1 1.197-.22c.085.007.128.053.129.138Zm-.844.893.715-.253a.032.032 0 0 1 .04.019l.003.011c.028.08.021.168-.02.245a.357.357 0 0 1-.195.169l-.13.047a.366.366 0 0 1-.26-.006.317.317 0 0 1-.17-.178l-.004-.012a.031.031 0 0 1-.001-.007v-.006a.032.032 0 0 1 .022-.029Zm-55.139-1.428-.417 2.078a.072.072 0 0 1-.07.059l-.886-.008a.071.071 0 0 1-.056-.027.072.072 0 0 1-.015-.06l.46-2.067a.072.072 0 0 1 .07-.057l.842-.006a.071.071 0 0 1 .057.026.073.073 0 0 1 .015.062Zm3.389 2.083.468-2.083a.063.063 0 0 0-.06-.076l-.905-.008a.063.063 0 0 0-.061.051l-.43 2.096a.064.064 0 0 0 .012.053.063.063 0 0 0 .05.023l.865-.006a.063.063 0 0 0 .06-.05Zm20.063-.712c.272.194.672.08.754-.272.093-.399.19-.776.291-1.132.01-.033.031-.05.067-.05l.834-.003c.056 0 .078.027.067.082l-.42 2.019c-.016.077-.063.117-.142.118l-.67.006c-.08 0-.128-.04-.142-.118a.087.087 0 0 0-.022-.046c-.032-.034-.068-.04-.107-.015-.533.338-1.035.331-1.505-.02a.379.379 0 0 1-.146-.38l.312-1.604c.006-.028.023-.042.051-.042l.976.002c.025 0 .034.012.026.036-.25.874-.325 1.347-.224 1.42Zm7.417-1.37-.436 2.006a.11.11 0 0 0 .021.092.109.109 0 0 0 .085.04l.798-.004a.108.108 0 0 0 .107-.086l.423-2.004a.108.108 0 0 0-.022-.09.109.109 0 0 0-.083-.041l-.787.002a.109.109 0 0 0-.106.086Zm16.268 1.94c-.467.308-.944.336-1.43.084-.274-.143-.361-.36-.261-.654.145-.42.24-.87.287-1.348a.114.114 0 0 1 .038-.076.12.12 0 0 1 .08-.031h.858c.07 0 .096.034.08.1l-.27 1.08c-.063.252.035.372.294.36l.088-.001c.237-.008.385-.127.442-.358l.276-1.141a.053.053 0 0 1 .02-.03.056.056 0 0 1 .033-.012l.894.004c.037.001.051.02.044.055l-.435 2.038c-.017.083-.068.124-.152.124l-.648.002c-.082 0-.135-.04-.158-.12l-.015-.053c-.011-.037-.033-.045-.065-.023Zm-30.838-.808a.636.636 0 1 1-1.272 0 .636.636 0 0 1 1.272 0Zm22.91.64a.64.64 0 1 0 0-1.28.64.64 0 0 0 0 1.28Z" fill="#fff"/></svg>