<svg width="84" height="32" viewBox="0 0 84 32" fill="none" xmlns="http://www.w3.org/2000/svg">
<path fill-rule="evenodd" clip-rule="evenodd" d="M0.729545 11.8934C0.727525 11.832 0.72531 11.7704 0.723087 11.7085C0.702248 11.1284 0.680645 10.527 0.81145 9.96765C0.880022 9.67178 0.938434 9.37464 0.986688 9.07622C1.06754 8.57432 1.23759 8.09686 1.40973 7.6135C1.45252 7.49334 1.49545 7.37282 1.53716 7.25146C1.59939 7.07242 1.76002 6.77591 2.01907 6.36194C3.39621 4.40575 5.56764 2.85146 7.68383 1.74289C8.3797 1.37845 9.10478 1.08384 9.85907 0.859083C10.6476 0.624162 11.3867 0.448291 12.0762 0.331466C13.4438 0.10099 15.2895 0.0457508 16.6705 0.565751C17.7054 0.954322 18.5378 1.38353 19.1676 1.85337C21.4711 3.57273 23.1162 5.82861 24.1029 8.62099C24.1943 8.8813 24.3226 9.43305 24.4876 10.2762C24.9321 13.668 24.2095 16.7619 22.32 19.5581C20.9143 21.6362 18.7772 23.2838 16.381 23.9238C14.1092 24.5308 11.9715 24.4343 9.96764 23.6343C8.77145 23.1556 7.59558 22.4515 6.44002 21.5219C4.74859 20.1594 3.30224 18.5429 2.10097 16.6724C1.65653 15.9791 1.30161 15.2788 1.03621 14.5715C0.745419 13.7956 0.643196 12.9029 0.729545 11.8934ZM16.2324 12.4648L16.1181 12.2496C15.3886 11.261 14.4419 11.9981 14.1276 12.8438L14.0419 13.6457C14.0432 13.7321 14.054 13.7956 14.0743 13.8362C14.0959 14.2515 14.2565 14.5607 14.5562 14.7638C15.1619 15.2896 15.8381 14.7257 16.1238 14.1448C16.2673 13.8565 16.3334 13.5353 16.3219 13.181C16.3435 12.9969 16.3137 12.7581 16.2324 12.4648ZM16.6819 19.6229C16.6642 19.5162 16.6895 19.3499 16.7581 19.1238C16.8876 18.5943 17.1384 18.2146 17.5105 17.9848C18.101 17.6204 18.5549 17.7575 18.8724 18.3962C18.9524 18.6769 18.9835 18.8845 18.9657 19.0191C19.0089 19.3531 18.9841 19.6153 18.8915 19.8057C18.9016 19.8642 18.8876 19.9258 18.8495 19.9905C18.7149 20.3448 18.52 20.6159 18.2648 20.8038C17.9803 21.0235 17.694 21.0597 17.4057 20.9124C17.2813 20.8502 17.1664 20.7626 17.061 20.6496C17.0051 20.6216 16.9708 20.5791 16.9581 20.5219C16.7588 20.2375 16.6667 19.9378 16.6819 19.6229ZM23.3315 14.9086L23.3848 14.5924C23.4826 14.1264 23.4883 13.7924 23.4019 13.5905C23.1073 12.9023 22.6597 12.7727 22.0591 13.2019C21.6426 13.4978 21.4032 13.9746 21.341 14.6324L21.3543 14.8629C21.3492 15.028 21.3702 15.1829 21.4172 15.3277C21.4705 15.5118 21.5816 15.6692 21.7505 15.8C21.9765 15.9029 22.228 15.9219 22.5048 15.8572L22.8781 15.5696L23.2381 15.0629L23.3315 14.9086ZM20.0934 14.3981C20.0819 14.4426 20.0711 14.487 20.061 14.5315C19.9213 14.8705 19.708 15.1524 19.421 15.3772C19.068 15.5753 18.7549 15.5943 18.4819 15.4343C18.4641 15.4292 18.4464 15.4248 18.4286 15.421C18.0515 15.1035 17.8521 14.673 17.8305 14.1296C17.8305 13.4153 18.2857 12.4857 19.0762 12.3772C19.3073 12.3454 19.5207 12.4102 19.7162 12.5715C20.0032 12.8077 20.1543 13.0997 20.1695 13.4477C20.2013 13.8845 20.1759 14.2013 20.0934 14.3981ZM21.3162 8.90099C21.2591 9.07622 21.1638 9.24702 21.0305 9.41337L20.9695 9.52384C20.7841 9.76765 20.5105 9.90733 20.1486 9.94289C19.9734 9.93019 19.8197 9.88511 19.6876 9.80765C19.5073 9.734 19.3899 9.61083 19.3353 9.43813C19.2184 9.22861 19.1518 9.04765 19.1353 8.89527L19.181 8.03241L19.24 7.89908C19.4591 6.95242 20.6534 6.28956 21.2457 7.3867C21.3067 7.46162 21.3441 7.55368 21.3581 7.66289L21.4248 8.19241L21.3162 8.90099ZM12.9257 4.8248C13.1772 5.08765 13.1353 5.43115 12.8 5.85527C12.7708 5.84004 12.7492 5.84321 12.7353 5.8648C12.181 6.37146 11.0076 6.97718 10.2857 6.50289L10.2248 6.37146C10.1968 6.22797 10.2165 6.07178 10.2838 5.90289C10.5492 5.56511 10.8674 5.29327 11.2381 5.08755C11.7118 4.85518 12.2083 4.73527 12.7276 4.72765C12.828 4.75559 12.894 4.78797 12.9257 4.8248ZM7.62478 8.29718C8.18351 7.42988 8.98098 6.98924 10.0172 6.97527C10.4235 7.01337 10.6076 7.15813 10.5695 7.40956C10.5264 7.66988 10.3994 7.88638 10.1886 8.05908C9.91558 8.34734 9.57717 8.57591 9.17336 8.7448C9.05489 8.75391 8.92552 8.79248 8.79213 8.83226C8.47942 8.92551 8.14459 9.02535 7.87621 8.76765C7.65399 8.68638 7.57018 8.52956 7.62478 8.29718ZM7.95621 4.45337C7.8978 4.5867 7.78605 4.72384 7.62097 4.8648C7.02669 5.25146 6.44383 5.60194 5.69336 5.43813C5.59812 5.47115 5.51939 5.43559 5.45717 5.33146C5.42288 5.27559 5.41653 5.21654 5.43812 5.15432C5.53336 4.88257 5.65843 4.73337 5.81336 4.7067C6.24129 4.20892 6.78542 3.93654 7.44574 3.88956C7.47676 3.88827 7.50878 3.88516 7.54178 3.88025C7.80353 3.86702 7.96453 3.96727 8.02478 4.18099C8.05018 4.21654 8.02732 4.30734 7.95621 4.45337ZM10.1276 2.59623C9.39875 3.34162 8.6178 3.5867 7.78478 3.33146C7.82161 3.21464 7.8305 3.134 7.81145 3.08956C7.85209 2.88257 7.9632 2.72257 8.14478 2.60956C8.41907 2.30607 8.78478 2.0667 9.24193 1.89146C9.53526 1.81654 9.84447 1.80067 10.1695 1.84384C10.3029 1.85273 10.3822 1.9213 10.4076 2.04956C10.4241 2.13083 10.4064 2.22035 10.3543 2.31813C10.2807 2.45781 10.2051 2.55051 10.1276 2.59623ZM3.06097 6.92575L2.79621 7.49146C3.68383 7.78988 4.53843 7.53654 5.36002 6.73146C5.65589 6.43305 5.70796 6.21273 5.51621 6.07051C5.37272 5.9321 5.2159 5.87368 5.04574 5.89527C4.26351 5.99559 3.60193 6.33908 3.06097 6.92575ZM3.95019 14.7391C3.94636 14.8467 3.91336 14.9309 3.85307 14.9869C3.79279 15.0429 3.7064 15.0697 3.59883 15.0656C3.49127 15.0615 3.36464 15.0268 3.22617 14.9632C3.08771 14.8997 2.94011 14.8087 2.79182 14.6954C2.64353 14.5821 2.49745 14.4487 2.36191 14.3028C2.22637 14.157 2.10403 14.0015 2.00188 13.8453C1.89973 13.6891 1.81977 13.5352 1.76656 13.3925C1.71335 13.2498 1.68793 13.1209 1.69176 13.0133C1.69559 12.9058 1.72859 12.8216 1.78888 12.7656C1.84916 12.7095 1.93555 12.6828 2.04311 12.6869C2.15068 12.6909 2.27731 12.7257 2.41577 12.7892C2.55424 12.8527 2.70183 12.9438 2.85013 13.0571C2.99842 13.1704 3.1445 13.3038 3.28004 13.4496C3.41558 13.5955 3.53791 13.751 3.64006 13.9071C3.74221 14.0633 3.82218 14.2172 3.87539 14.3599C3.9286 14.5027 3.95402 14.6315 3.95019 14.7391ZM6.94979 15.667C6.72082 15.3815 6.5522 15.0892 6.4705 14.8362C6.3938 14.5985 6.3978 14.4074 6.48193 14.2896C6.55539 14.1873 6.68642 14.1452 6.86097 14.1677C7.10455 14.1994 7.41838 14.3546 7.73907 14.6019C7.93087 14.7498 8.11714 14.925 8.28383 15.1143C8.57645 15.4449 8.79417 15.7989 8.88955 16.0991C8.94175 16.2624 8.95585 16.4041 8.93087 16.5146C8.90588 16.625 8.84241 16.7016 8.74478 16.7391C8.63542 16.7817 8.4866 16.7743 8.31089 16.7176C8.13519 16.6609 7.93776 16.5566 7.73526 16.4134C7.45509 16.2151 7.17876 15.9526 6.94979 15.667ZM5.54669 20.1238C5.38542 19.9867 5.23685 19.8045 5.10097 19.5772L5.09555 19.5696C4.8605 19.2409 4.46333 18.6856 4.76764 18.4229C5.00383 18.2191 5.40002 18.4343 5.61717 18.5905C5.7124 18.635 5.79621 18.7035 5.86859 18.7962C6.39177 19.1759 6.70732 19.6572 6.81526 20.24C6.81907 20.3759 6.77399 20.4921 6.68002 20.5886C6.30542 20.5772 5.92764 20.4223 5.54669 20.1238ZM11.1657 22.4972C10.6337 22.2203 10.2032 21.8565 9.87431 21.4057C9.84801 21.3605 9.81817 21.3121 9.78694 21.2615L9.78682 21.2613C9.58283 20.9306 9.31891 20.5027 9.58478 20.2038C9.62796 20.1543 9.6832 20.1302 9.7505 20.1315C10.5886 20.1505 11.3772 21.1238 11.7391 21.7943C11.8095 22.021 11.8915 22.3791 11.6495 22.5238C11.5162 22.6038 11.3549 22.595 11.1657 22.4972ZM15.2724 2.59417C14.4724 2.48623 13.7689 2.72242 13.1619 3.30274C12.9308 3.39671 12.7575 3.62147 12.6419 3.97703C12.6013 4.12941 12.6572 4.25004 12.8095 4.33893C12.9835 4.43971 13.1742 4.4586 13.381 4.47608L13.6191 4.43235L14.2743 4.24949C14.6692 4.12251 15.0026 3.88441 15.2743 3.53521C15.447 3.43743 15.5441 3.24314 15.5657 2.95235C15.5759 2.81013 15.5162 2.71616 15.3867 2.67045C15.3372 2.60441 15.2991 2.57893 15.2724 2.59417ZM73.3619 8.68376L75.1524 5.43043C75.1829 5.37456 75.2305 5.34662 75.2952 5.34662L81.3543 5.35234L82.2248 5.35043L82.9905 5.3409C83.0591 5.33963 83.0749 5.36821 83.0381 5.42662L71.8153 23.7142L71.5467 24.1961C71.5293 24.2274 71.5039 24.2534 71.4731 24.2715C71.4423 24.2896 71.4072 24.2991 71.3714 24.299L66.8991 24.3028C66.8254 24.3028 66.7829 24.2666 66.7714 24.1942L63.9257 5.55424C63.8711 5.51487 63.8438 5.45963 63.8438 5.38852C63.8426 5.32122 63.8762 5.28757 63.9448 5.28757L71.5638 5.28567C71.6248 5.28567 71.6572 5.31678 71.661 5.379L71.9905 11.1447L73.3619 8.68376ZM29.3276 12.8285L30.8496 5.44376C30.8622 5.38027 30.901 5.34853 30.9657 5.34853L39.8915 5.35995L39.893 5.3601C40.3953 5.40767 40.8786 5.45343 41.3581 5.59615C43.8775 6.34662 45.5524 7.96948 46.3829 10.4647C46.6051 11.1314 46.7384 11.84 46.7829 12.5904C46.821 13.2139 46.7734 13.899 46.64 14.6457C46.188 17.1917 45.1061 19.473 43.3943 21.4895C41.9524 23.1866 39.9276 24.2704 37.6572 24.2685C33.9696 24.2647 30.4407 24.2647 27.0705 24.2685C26.993 24.2685 26.9626 24.2311 26.9791 24.1561L28.5715 16.4723L29.3276 12.8285ZM37.0362 9.9809L36.2134 13.8704L35.32 18.2266L35.0819 19.4419C35.0616 19.5447 35.1035 19.598 35.2076 19.6019C35.6127 19.6196 35.9911 19.6304 36.3429 19.6342C37.4553 19.6419 38.2248 19.0019 38.781 18.0857C39.6788 16.6088 40.1276 14.9542 40.1276 13.1219C40.1276 12.3066 39.9518 11.5847 39.6 10.9561C39.0953 10.0533 38.0953 9.98852 37.0362 9.9809ZM47.5219 24.299C47.6984 24.3206 47.868 24.3098 48.0305 24.2666L61.9048 24.3009C61.9368 24.3007 61.9677 24.289 61.9915 24.268C62.0154 24.2469 62.0306 24.218 62.0343 24.1866L62.101 23.6361L63.1505 18.678C63.1657 18.6031 63.1353 18.5657 63.0591 18.5657H56.1695C56.0629 18.5657 56.0203 18.513 56.0419 18.4076L58.7162 5.45138C58.7327 5.37392 58.701 5.33519 58.621 5.33519H51.4286C51.3651 5.33519 51.3264 5.36694 51.3124 5.43043L47.4457 24.1923C47.433 24.2558 47.4584 24.2914 47.5219 24.299ZM32.3334 30.6324C32.9772 30.9886 33.7181 30.9638 34.4915 30.7962C34.5905 30.7746 34.621 30.8114 34.5829 30.9067L34.5276 31.0495C34.4908 31.1435 34.5226 31.1905 34.6229 31.1905L35.4857 31.1924C35.4992 31.1923 35.5125 31.1893 35.5247 31.1835C35.537 31.1778 35.5478 31.1695 35.5565 31.1592C35.5652 31.1488 35.5715 31.1368 35.5751 31.1238C35.5787 31.1108 35.5794 31.0971 35.5772 31.0838L35.4686 30.4476C35.4572 30.3803 35.4749 30.3219 35.5219 30.2724C36.4534 29.2933 35.8876 28.2114 34.7067 27.9295C33.9359 27.7454 33.2083 27.8724 32.5238 28.3105C31.741 28.8114 31.3067 30.0686 32.3334 30.6324ZM34.6221 28.7101C34.7079 28.778 34.7736 28.8623 34.8154 28.9581C34.8573 29.0539 34.8745 29.1594 34.8661 29.2685C34.8576 29.3776 34.8237 29.4882 34.7663 29.594C34.7089 29.6997 34.629 29.7986 34.5313 29.885C34.4336 29.9713 34.32 30.0434 34.1969 30.0972C34.0738 30.151 33.9437 30.1854 33.8139 30.1984C33.6842 30.2114 33.5574 30.2028 33.4407 30.1731C33.3241 30.1434 33.2199 30.0931 33.1341 30.0252C33.0484 29.9572 32.9827 29.8729 32.9408 29.7771C32.8989 29.6813 32.8817 29.5758 32.8902 29.4667C32.8986 29.3576 32.9325 29.2471 32.9899 29.1413C33.0474 29.0355 33.1272 28.9366 33.2249 28.8503C33.3226 28.7639 33.4363 28.6918 33.5594 28.638C33.6824 28.5842 33.8126 28.5499 33.9423 28.5368C34.0721 28.5238 34.1989 28.5324 34.3155 28.5621C34.4321 28.5919 34.5363 28.6421 34.6221 28.7101ZM14.0096 28.4209H13.0972C13.0872 28.4211 13.0773 28.419 13.0682 28.4149C13.0591 28.4107 13.051 28.4046 13.0446 28.3969C13.0382 28.3892 13.0336 28.3802 13.0312 28.3705C13.0287 28.3608 13.0285 28.3507 13.0305 28.3409L13.1143 27.9276C13.1174 27.9123 13.1258 27.8986 13.138 27.8888C13.1502 27.8791 13.1654 27.8739 13.181 27.8742L14.08 27.8818C14.0897 27.882 14.0992 27.8842 14.1079 27.8884C14.1166 27.8925 14.1243 27.8985 14.1304 27.9059C14.1366 27.9134 14.1411 27.922 14.1435 27.9314C14.146 27.9407 14.1464 27.9504 14.1448 27.9599L14.0743 28.3657C14.0717 28.381 14.0637 28.3949 14.0519 28.4049C14.0401 28.415 14.0251 28.4207 14.0096 28.4209ZM17.7714 28.4265L16.9752 28.417C16.9645 28.4168 16.954 28.4144 16.9443 28.4099C16.9346 28.4053 16.926 28.3988 16.919 28.3907C16.912 28.3826 16.9067 28.3732 16.9036 28.3629C16.9005 28.3527 16.8996 28.3419 16.901 28.3313L16.9505 27.9542C16.9532 27.936 16.9625 27.9194 16.9765 27.9075C16.9905 27.8956 17.0083 27.8892 17.0267 27.8894L17.9067 27.878C17.919 27.8776 17.9312 27.8802 17.9423 27.8856C17.9534 27.891 17.963 27.899 17.9703 27.909C17.9776 27.9189 17.9824 27.9304 17.9842 27.9426C17.9861 27.9548 17.985 27.9673 17.981 27.9789L17.8438 28.3751C17.8386 28.3902 17.8289 28.4032 17.8159 28.4125C17.8029 28.4217 17.7874 28.4266 17.7714 28.4265ZM45.0876 27.8837L45.9029 27.8761C45.9208 27.876 45.9384 27.8801 45.9544 27.888C45.9705 27.8959 45.9845 27.9074 45.9954 27.9216C46.0062 27.9358 46.0137 27.9523 46.0171 27.9698C46.0206 27.9874 46.0199 28.0055 46.0153 28.0227L45.9295 28.337C45.9228 28.362 45.9078 28.384 45.8871 28.3995C45.8664 28.415 45.8411 28.4232 45.8153 28.4227L45.0095 28.417C44.9918 28.4168 44.9744 28.4125 44.9586 28.4044C44.9428 28.3964 44.929 28.3849 44.9184 28.3708C44.9077 28.3566 44.9004 28.3402 44.8971 28.3228C44.8937 28.3054 44.8944 28.2875 44.8991 28.2704L44.9753 27.9694C44.982 27.9447 44.9966 27.923 45.0169 27.9075C45.0372 27.892 45.0621 27.8836 45.0876 27.8837ZM57.5638 29.7791C57.6883 29.7295 57.7822 29.7765 57.8457 29.92C57.8641 29.963 57.8657 30.0112 57.8501 30.0548C57.8345 30.0984 57.803 30.134 57.7619 30.1543C57.2267 30.4248 56.2724 30.181 56.4972 29.3924C56.7714 28.44 58.2324 28.4914 58.9562 28.7257C58.9829 28.7346 58.9975 28.7251 59 28.6972L59.0743 28.0762C59.0768 28.0584 59.0692 28.047 59.0514 28.0419C58.0438 27.7372 56.7333 27.8591 55.8895 28.5219C55.6476 28.7105 55.3924 29.2229 55.3657 29.5181C55.2134 31.2019 57.5029 31.0133 58.6172 30.8095C58.6506 30.8034 58.6815 30.787 58.7057 30.7625C58.7298 30.738 58.7461 30.7066 58.7524 30.6724L59.0076 29.261C59.0216 29.1822 58.988 29.1429 58.9067 29.1429H57.7124C57.6694 29.1429 57.6276 29.1574 57.5937 29.184C57.5599 29.2106 57.536 29.2477 57.5257 29.2895L57.4343 29.6667C57.4038 29.7899 57.447 29.8273 57.5638 29.7791ZM1.57717 28.5751L0.788594 28.6113C0.780432 28.6118 0.772251 28.6107 0.764537 28.608C0.756823 28.6053 0.749734 28.601 0.743691 28.5955C0.737649 28.59 0.732776 28.5833 0.729364 28.5759C0.725953 28.5685 0.724071 28.5604 0.723832 28.5523L0.716213 27.9808C0.716205 27.965 0.722364 27.9498 0.733386 27.9384C0.744408 27.927 0.759427 27.9204 0.77526 27.9199L3.91431 27.9161C3.92341 27.9161 3.93238 27.9182 3.94056 27.9222C3.94874 27.9262 3.95593 27.932 3.96159 27.9391C3.96726 27.9462 3.97125 27.9545 3.97329 27.9634C3.97532 27.9723 3.97535 27.9815 3.97336 27.9904L3.84764 28.5542C3.84456 28.5679 3.8368 28.5802 3.82569 28.5889C3.81457 28.5976 3.80079 28.6021 3.78669 28.6018L2.84193 28.5961C2.82789 28.5963 2.81434 28.6013 2.80358 28.6103C2.79282 28.6193 2.78551 28.6318 2.78288 28.6456L2.31812 30.8323C2.3151 30.8457 2.30763 30.8577 2.2969 30.8664C2.28618 30.875 2.27284 30.8798 2.25907 30.8799L1.26288 30.8818C1.25398 30.8817 1.24521 30.8796 1.23719 30.8757C1.22917 30.8718 1.2221 30.8663 1.21647 30.8594C1.21084 30.8525 1.2068 30.8444 1.20461 30.8358C1.20243 30.8271 1.20216 30.8181 1.20383 30.8094L1.64002 28.6475C1.64176 28.6384 1.64142 28.6291 1.63903 28.6202C1.63663 28.6112 1.63224 28.603 1.62619 28.596C1.62013 28.5891 1.61257 28.5835 1.60408 28.5799C1.59559 28.5763 1.58639 28.5747 1.57717 28.5751ZM9.50669 30.7867C9.91812 30.9886 10.3549 30.9676 10.8172 30.7238C10.83 30.7166 10.8447 30.7137 10.8591 30.7154C10.8735 30.7171 10.8869 30.7234 10.8972 30.7333C10.9124 30.7486 10.9188 30.7676 10.9162 30.7905C10.9099 30.8514 10.9372 30.8819 10.9981 30.8819H11.7162C11.7988 30.8819 11.8489 30.8413 11.8667 30.76L12.4305 28.0819C12.4534 27.974 12.4102 27.92 12.301 27.92L11.5734 27.9181C11.4553 27.9181 11.3937 27.9765 11.3886 28.0933L11.3696 28.4724C11.3645 28.5689 11.3143 28.6133 11.2191 28.6057C10.5435 28.5486 9.97653 28.6876 9.51812 29.0229C8.96955 29.4267 8.77907 30.4305 9.50669 30.7867ZM10.1067 30.0267C9.95812 29.4286 10.5467 29.1791 11.0648 29.2114C11.1486 29.2165 11.181 29.2597 11.1619 29.341C11.152 29.3829 11.1425 29.4256 11.133 29.4686C11.0405 29.8857 10.9438 30.3221 10.36 30.2495C10.3001 30.2422 10.2438 30.217 10.1985 30.1772C10.1533 30.1374 10.1213 30.0849 10.1067 30.0267ZM44.3638 27.9866L43.7543 30.8285C43.7513 30.8414 43.744 30.853 43.7337 30.8613C43.7233 30.8696 43.7104 30.8741 43.6972 30.8742L42.8172 30.8818C42.8083 30.8818 42.7996 30.8797 42.7916 30.8758C42.7837 30.872 42.7767 30.8663 42.7712 30.8594C42.7657 30.8524 42.7618 30.8443 42.7599 30.8357C42.758 30.8271 42.758 30.8181 42.76 30.8095L43.3543 27.9695C43.3573 27.9565 43.3646 27.945 43.3749 27.9367C43.3853 27.9284 43.3982 27.9238 43.4114 27.9237L44.3048 27.9142C44.3138 27.914 44.3227 27.9158 44.3309 27.9196C44.3391 27.9233 44.3464 27.9289 44.3521 27.9359C44.3578 27.9429 44.3618 27.9511 44.3638 27.9599C44.3659 27.9687 44.3659 27.9778 44.3638 27.9866ZM16.261 28.659L15.9295 28.6628C15.8495 28.6628 15.8184 28.6248 15.8362 28.5486L15.9029 28.2362C15.9219 28.1498 15.8876 28.1124 15.8 28.1238L15.04 28.2133C14.9232 28.2273 14.8654 28.2933 14.8667 28.4114C14.8718 28.6349 14.7632 28.7168 14.541 28.6571C14.4584 28.6355 14.407 28.666 14.3867 28.7486L14.2724 29.2C14.2698 29.2111 14.2697 29.2226 14.2723 29.2337C14.2748 29.2448 14.2798 29.2552 14.287 29.264C14.2942 29.2728 14.3033 29.2799 14.3137 29.2847C14.324 29.2894 14.3353 29.2917 14.3467 29.2914L14.5257 29.2876C14.6095 29.2863 14.6457 29.3276 14.6343 29.4114C14.5962 29.6781 14.5403 29.967 14.4667 30.2781C14.2686 31.12 15.341 30.9924 15.7772 30.8914C15.8267 30.8787 15.8629 30.8495 15.8857 30.8038L16.1353 30.2914C16.1759 30.2101 16.1518 30.1803 16.0629 30.2019C15.9207 30.2375 15.7702 30.2432 15.6114 30.219C15.5302 30.2063 15.4984 30.16 15.5162 30.08L15.68 29.3867C15.6953 29.3206 15.7372 29.2882 15.8057 29.2895L16.0934 29.2933C16.1975 29.2959 16.2597 29.2457 16.28 29.1428L16.3543 28.7714C16.3695 28.6952 16.3384 28.6578 16.261 28.659ZM48.2248 28.7942C48.1689 28.8945 48.1467 29.0094 48.1581 29.139C48.1632 29.2152 48.1283 29.2615 48.0533 29.278C47.9518 29.2996 47.8483 29.3009 47.7429 29.2818C47.7006 29.2746 47.6572 29.2832 47.621 29.3061C47.5848 29.3289 47.5583 29.3644 47.5467 29.4056L47.3676 30.0418C47.3384 30.1498 47.3791 30.2107 47.4895 30.2247C47.6381 30.2437 47.781 30.2329 47.9181 30.1923C47.9312 30.1887 47.945 30.189 47.958 30.1931C47.9709 30.1971 47.9824 30.2049 47.9911 30.2153C47.9997 30.2258 48.0052 30.2385 48.0068 30.252C48.0083 30.2655 48.006 30.2792 48 30.2913L47.7505 30.7885C47.72 30.8494 47.6718 30.8869 47.6057 30.9009C47.3353 30.9593 47.0451 30.9701 46.7352 30.9332C46.4419 30.899 46.2153 30.6247 46.3124 30.3275C46.4153 30.0164 46.4826 29.704 46.5143 29.3904C46.5219 29.3205 46.4902 29.2863 46.4191 29.2875L46.2381 29.2913C46.1695 29.2926 46.141 29.2596 46.1524 29.1923L46.2305 28.7618C46.2369 28.7279 46.2556 28.6975 46.283 28.6764C46.3104 28.6553 46.3446 28.6451 46.3791 28.6475L46.5714 28.6628C46.5869 28.6641 46.6024 28.6623 46.6171 28.6575C46.6318 28.6527 46.6454 28.645 46.6571 28.6349C46.6688 28.6248 46.6784 28.6125 46.6853 28.5986C46.6922 28.5847 46.6962 28.5696 46.6972 28.5542C46.7035 28.4704 46.7238 28.3923 46.7581 28.3199C46.7911 28.2526 46.8451 28.2145 46.92 28.2056L47.6572 28.1237C47.7473 28.1136 47.7829 28.1529 47.7638 28.2418L47.7048 28.5275C47.7014 28.544 47.7016 28.5609 47.7055 28.5772C47.7094 28.5935 47.7168 28.6087 47.7272 28.6217C47.7376 28.6346 47.7507 28.6451 47.7656 28.6522C47.7806 28.6593 47.7969 28.6629 47.8133 28.6628L49.221 28.659C49.2519 28.6589 49.2818 28.6698 49.3055 28.6897C49.3292 28.7095 49.3451 28.7371 49.3505 28.7675L49.5467 29.9637C49.5645 30.0717 49.5994 30.078 49.6514 29.9828L50.2876 28.8228C50.3473 28.7136 50.4387 28.659 50.5619 28.659L51.2381 28.6609C51.3524 28.6609 51.3784 28.7091 51.3162 28.8056C50.7016 29.7529 50.12 30.6285 49.5714 31.4323C49.2495 31.9009 48.4038 31.8437 47.8972 31.7961C47.8222 31.7885 47.7835 31.7472 47.781 31.6723L47.7714 31.2399C47.7702 31.1663 47.8019 31.1459 47.8667 31.179C48.2114 31.3523 48.6781 31.3104 48.8629 30.9771C48.8972 30.9161 48.9048 30.8526 48.8857 30.7866L48.3314 28.8075C48.306 28.7174 48.2705 28.7129 48.2248 28.7942ZM75.061 29.2895H75.1848C75.2762 29.2895 75.3118 29.3339 75.2914 29.4228C75.2216 29.7428 75.1607 30.0552 75.1086 30.36C74.9886 31.0666 75.8705 30.9904 76.2914 30.9219C76.5829 30.8743 76.7029 30.5371 76.7676 30.2933C76.7713 30.2795 76.7713 30.2649 76.7674 30.2511C76.7636 30.2374 76.7561 30.2249 76.7458 30.2149C76.7355 30.205 76.7227 30.198 76.7088 30.1947C76.6949 30.1914 76.6804 30.1919 76.6667 30.1962C76.5397 30.2393 76.4121 30.247 76.2838 30.219C76.2655 30.2149 76.2481 30.2073 76.2328 30.1965C76.2175 30.1857 76.2044 30.172 76.1945 30.1562C76.1846 30.1404 76.1779 30.1229 76.1749 30.1045C76.172 30.0862 76.1727 30.0675 76.1772 30.0495L76.3372 29.4076C76.3459 29.3722 76.3666 29.3409 76.3958 29.3191C76.4249 29.2972 76.4607 29.2861 76.4972 29.2876L76.7676 29.3028C76.7945 29.3039 76.8209 29.2962 76.8429 29.2811C76.8649 29.266 76.8813 29.2442 76.8895 29.219L77.0305 28.7619C77.0328 28.754 77.0339 28.7459 77.0338 28.7377C77.0338 28.7331 77.0334 28.7284 77.0326 28.7238C77.0312 28.7161 77.0287 28.7087 77.0253 28.7017C77.0231 28.6973 77.0205 28.693 77.0176 28.6891C77.01 28.6789 77.0001 28.6706 76.9888 28.6651C76.9774 28.6595 76.965 28.6568 76.9524 28.6571L76.581 28.6628C76.5648 28.6632 76.5488 28.6599 76.5341 28.6532C76.5194 28.6465 76.5064 28.6365 76.4961 28.624C76.4859 28.6115 76.4786 28.5969 76.4748 28.5812C76.471 28.5655 76.4708 28.5491 76.4743 28.5333L76.5467 28.2076C76.5619 28.1416 76.5359 28.113 76.4686 28.1219L75.68 28.2114C75.5873 28.2216 75.5359 28.273 75.5257 28.3657L75.5105 28.5314C75.5067 28.5671 75.4898 28.6001 75.4631 28.6241C75.4363 28.648 75.4016 28.6611 75.3657 28.6609H75.1505C75.0857 28.6609 75.047 28.6927 75.0343 28.7562L74.9505 29.1562C74.9327 29.2451 74.9695 29.2895 75.061 29.2895ZM5.11811 28.8037C5.35049 28.6298 5.60065 28.5555 5.86859 28.5809C5.89398 28.5834 5.90541 28.5974 5.90287 28.6228L5.84764 29.2914C5.84726 29.2973 5.84557 29.303 5.8427 29.3082C5.83983 29.3134 5.83584 29.318 5.83098 29.3216C5.82612 29.3252 5.82051 29.3277 5.81452 29.3291C5.80853 29.3305 5.80229 29.3306 5.79621 29.3295C5.3924 29.2399 5.02668 29.2933 4.89145 29.7523C4.77589 30.1511 4.68891 30.511 4.63049 30.8323C4.62541 30.8653 4.60573 30.8818 4.57144 30.8818L3.70859 30.8799C3.65906 30.8799 3.63938 30.8552 3.64954 30.8057L4.05144 28.798C4.05895 28.759 4.07976 28.7238 4.11034 28.6985C4.14091 28.6731 4.17934 28.6592 4.21906 28.659L4.90287 28.6609C4.94224 28.6609 4.97779 28.6736 5.00954 28.699C5.03748 28.7206 5.05208 28.7453 5.05335 28.7733C5.05716 28.8228 5.07875 28.833 5.11811 28.8037ZM20.8581 30.2531C21.0977 29.9738 21.1915 29.6521 21.1189 29.3589C21.083 29.2137 21.0073 29.0798 20.8961 28.9649C20.785 28.8501 20.6405 28.7565 20.4711 28.6894C20.3016 28.6224 20.1105 28.5833 19.9085 28.5743C19.7065 28.5653 19.4977 28.5866 19.294 28.6371C18.8826 28.7389 18.5168 28.953 18.2772 29.2324C18.0376 29.5117 17.9438 29.8334 18.0163 30.1267C18.0523 30.2719 18.128 30.4057 18.2391 30.5206C18.3503 30.6354 18.4947 30.729 18.6642 30.7961C18.8337 30.8631 19.0248 30.9022 19.2268 30.9112C19.4288 30.9202 19.6376 30.8989 19.8413 30.8485C20.2527 30.7466 20.6185 30.5325 20.8581 30.2531ZM19.9716 29.3515C20.0227 29.3873 20.0625 29.4331 20.0888 29.4862C20.1151 29.5394 20.1272 29.5988 20.1246 29.6612C20.1221 29.7236 20.1047 29.7877 20.0737 29.8498C20.0426 29.9119 19.9984 29.9708 19.9436 30.0232C19.8888 30.0756 19.8245 30.1204 19.7543 30.1551C19.6841 30.1898 19.6095 30.2137 19.5346 30.2254C19.4597 30.2371 19.386 30.2364 19.3178 30.2233C19.2496 30.2103 19.1882 30.1851 19.1371 30.1493C19.0859 30.1135 19.0461 30.0677 19.0198 30.0145C18.9936 29.9614 18.9814 29.9019 18.984 29.8396C18.9866 29.7772 19.0039 29.7131 19.0349 29.651C19.066 29.5889 19.1102 29.53 19.165 29.4776C19.2198 29.4252 19.2841 29.3804 19.3543 29.3457C19.4245 29.311 19.4992 29.2871 19.5741 29.2754C19.649 29.2637 19.7226 29.2644 19.7908 29.2774C19.859 29.2905 19.9204 29.3156 19.9716 29.3515ZM22.821 28.8723C23.3022 28.5523 23.8172 28.4742 24.3657 28.638C24.4597 28.6659 24.5411 28.7254 24.596 28.8063C24.6509 28.8873 24.6759 28.9847 24.6667 29.0818C24.6172 29.6406 24.5041 30.2253 24.3276 30.8361C24.3175 30.8691 24.2953 30.8856 24.261 30.8856L23.3562 30.8761C23.3168 30.8761 23.3016 30.8564 23.3105 30.8171L23.56 29.7066C23.6311 29.3879 23.5054 29.2564 23.1829 29.3123L23.1295 29.3218C22.8172 29.3752 22.6337 29.558 22.5791 29.8704L22.421 30.7637C22.407 30.8412 22.3613 30.8799 22.2838 30.8799H21.4934C21.4083 30.8799 21.3695 30.838 21.3772 30.7542C21.3924 30.5879 21.4254 30.4209 21.4762 30.2533C21.6362 29.7263 21.7416 29.2298 21.7924 28.7637C21.8 28.6964 21.8375 28.6621 21.9048 28.6609L22.6457 28.6571C22.7118 28.6571 22.7441 28.6901 22.7429 28.7561C22.7429 28.7726 22.7397 28.7885 22.7334 28.8037C22.6927 28.9155 22.7219 28.9383 22.821 28.8723ZM25.6591 29.8837C25.7657 29.951 25.8546 30.0361 25.9257 30.1389C25.9892 30.2329 25.9651 30.2742 25.8534 30.2627L24.9943 30.177C24.9537 30.1732 24.9327 30.1916 24.9315 30.2323L24.9124 30.7218C24.9111 30.7561 24.927 30.7783 24.96 30.7884C25.6838 31.017 26.3137 30.9592 26.8496 30.6151C26.9486 30.5516 27.0108 30.4678 27.0362 30.3637C27.1323 29.9673 26.9242 29.8111 26.6881 29.634L26.688 29.634L26.688 29.634L26.688 29.634C26.6246 29.5864 26.5592 29.5374 26.4972 29.4818C26.3067 29.3104 26.3397 29.2227 26.5962 29.2189C26.8032 29.2164 26.9956 29.2361 27.1734 29.278C27.1889 29.2814 27.2049 29.2814 27.2204 29.2779C27.2359 29.2744 27.2503 29.2676 27.2627 29.2579C27.2751 29.2483 27.2852 29.236 27.2921 29.222C27.2991 29.208 27.3028 29.1926 27.3029 29.177L27.3124 28.7389C27.3137 28.6742 27.2819 28.6373 27.2172 28.6284C26.6673 28.5484 26.193 28.563 25.7943 28.6723C25.181 28.8418 25.1429 29.558 25.6591 29.8837ZM67.3219 28.7866C67.5467 28.6456 67.7581 28.572 67.9562 28.5656C68.0629 28.5618 68.1111 28.6132 68.101 28.7199L68.0572 29.2304C68.0483 29.3282 67.9962 29.3644 67.901 29.339C67.4768 29.2285 67.2045 29.372 67.0838 29.7694C66.9797 30.111 66.9029 30.4659 66.8533 30.8342C66.8495 30.8634 66.833 30.878 66.8038 30.878L65.9048 30.8799C65.8578 30.8799 65.8387 30.8571 65.8476 30.8113L66.2591 28.7675C66.2743 28.6952 66.3187 28.659 66.3924 28.659C66.6375 28.659 66.8762 28.6602 67.1086 28.6628C67.1632 28.6628 67.2089 28.6805 67.2457 28.7161C67.2635 28.7326 67.2768 28.7523 67.2857 28.7752C67.2871 28.7785 67.2892 28.7815 67.2919 28.7839C67.2945 28.7864 67.2977 28.7882 67.3012 28.7893C67.3046 28.7904 67.3083 28.7907 67.3118 28.7902C67.3154 28.7898 67.3189 28.7885 67.3219 28.7866ZM74.0705 28.5809C73.5397 28.5022 73.0883 28.5993 72.7162 28.8723C72.6349 28.932 72.6032 28.9123 72.621 28.8133C72.6248 28.7942 72.6254 28.7758 72.6229 28.758C72.6102 28.692 72.5708 28.6596 72.5048 28.6609H71.8191C71.7543 28.6609 71.7143 28.6933 71.6991 28.758L71.2572 30.7771C71.2546 30.7895 71.2549 30.8024 71.2579 30.8147C71.261 30.827 71.2667 30.8385 71.2747 30.8484C71.2827 30.8582 71.2928 30.8662 71.3043 30.8716C71.3096 30.8741 71.3151 30.8761 71.3208 30.8775C71.3274 30.8791 71.3341 30.8799 71.341 30.8799L72.1867 30.8818C72.2489 30.8818 72.2864 30.8514 72.2991 30.7904C72.3588 30.4869 72.4083 30.1968 72.4476 29.9199C72.4921 29.6101 72.6769 29.4101 73.0019 29.3199C73.0337 29.3111 73.0661 29.3072 73.0991 29.3085C73.4241 29.3111 73.5372 29.4666 73.4381 29.7752C73.3315 30.1091 73.2553 30.4603 73.2095 30.8285C73.2087 30.8353 73.2093 30.8421 73.2112 30.8486C73.2132 30.855 73.2164 30.861 73.2207 30.8661C73.2251 30.8711 73.2304 30.8751 73.2363 30.8779C73.2423 30.8806 73.2487 30.8819 73.2553 30.8818L74.1676 30.8838C74.2019 30.8838 74.2223 30.8672 74.2286 30.8342C74.3416 30.3187 74.4515 29.7809 74.5581 29.2209C74.6229 28.8857 74.3924 28.6304 74.0705 28.5809ZM78.2972 29.8724C77.8642 29.8762 77.8343 29.9861 78.2076 30.2019C78.4426 30.3365 78.8832 30.3238 79.5295 30.1638C79.5343 30.1628 79.5393 30.163 79.5439 30.1646C79.5485 30.1661 79.5526 30.1689 79.5558 30.1727C79.5589 30.1764 79.561 30.1809 79.5617 30.1858C79.5625 30.1906 79.5619 30.1955 79.56 30.2L79.3143 30.7943C79.3016 30.8261 79.2781 30.8457 79.2438 30.8534C78.4248 31.0191 76.9067 31.0667 76.9715 29.8762C77.0572 28.2629 80.4153 28.0991 79.8648 29.7581C79.8407 29.8267 79.7924 29.8616 79.72 29.8629C79.2388 29.8642 78.7645 29.8673 78.2972 29.8724ZM78.2 29.4457L78.9162 29.4057C78.9235 29.4053 78.9302 29.402 78.9352 29.3967C78.9401 29.3914 78.9429 29.3844 78.9429 29.3772L78.941 29.3562C78.9392 29.3196 78.9281 29.2838 78.9083 29.251C78.8885 29.2181 78.8605 29.1888 78.8258 29.1647C78.7911 29.1407 78.7504 29.1223 78.7061 29.1107C78.6618 29.0991 78.6148 29.0945 78.5676 29.0972L78.5105 29.101C78.416 29.1065 78.327 29.1408 78.2631 29.1965C78.1992 29.2522 78.1656 29.3247 78.1695 29.3981V29.4191C78.1696 29.4203 78.1698 29.4215 78.17 29.4226C78.1701 29.4231 78.1702 29.4236 78.1703 29.424C78.1708 29.426 78.1715 29.428 78.1724 29.4299C78.1741 29.4333 78.1764 29.4363 78.1792 29.4387C78.1821 29.4412 78.1854 29.4431 78.1889 29.4443C78.1906 29.4449 78.1924 29.4453 78.1942 29.4455C78.1961 29.4458 78.1981 29.4459 78.2 29.4457ZM81.0838 30.0038C81.0572 29.9136 81.0915 29.8685 81.1867 29.8685L82.7562 29.8666C82.8438 29.8666 82.8984 29.8247 82.92 29.7409C83.3448 28.1238 80.621 28.36 80.1295 29.5009C79.8502 30.1498 80.0483 30.5955 80.7238 30.8381C81.1251 30.9816 81.6502 30.9822 82.2991 30.84C82.3511 30.8285 82.3854 30.7974 82.4019 30.7466L82.5676 30.2381C82.5867 30.1797 82.567 30.1587 82.5086 30.1752C82.1315 30.2857 81.7391 30.3136 81.3315 30.259C81.2134 30.2438 81.1372 30.179 81.1029 30.0647L81.0838 30.0038ZM81.9905 29.4095L81.2514 29.4438C81.2465 29.4438 81.2416 29.4425 81.2374 29.4401C81.2354 29.439 81.2336 29.4377 81.2319 29.4361C81.2266 29.4311 81.2234 29.4244 81.2229 29.4171L81.221 29.3943C81.2192 29.358 81.2268 29.3216 81.2434 29.2872C81.2599 29.2529 81.2851 29.2212 81.3175 29.1939C81.3499 29.1667 81.3888 29.1444 81.432 29.1285C81.4753 29.1125 81.522 29.1032 81.5695 29.1009L81.6419 29.0971C81.6895 29.0948 81.7369 29.0997 81.7815 29.1114C81.8262 29.1232 81.8671 29.1417 81.9019 29.1657C81.9368 29.1898 81.9649 29.219 81.9847 29.2517C82.0045 29.2844 82.0155 29.3199 82.0172 29.3562V29.379C82.0174 29.3828 82.0169 29.3865 82.0157 29.3901C82.0145 29.3937 82.0126 29.397 82.0102 29.3998C82.0077 29.4026 82.0047 29.4049 82.0013 29.4066C81.9979 29.4083 81.9943 29.4093 81.9905 29.4095ZM7.65146 29.1866C7.34543 29.0787 6.92892 29.1422 6.40194 29.3771C6.39858 29.3788 6.39481 29.3794 6.39108 29.379C6.38736 29.3785 6.38386 29.377 6.38101 29.3745C6.37816 29.3721 6.3761 29.3689 6.37507 29.3653C6.37405 29.3616 6.37412 29.3578 6.37527 29.3542L6.52384 28.8342C6.53273 28.8012 6.55368 28.7803 6.5867 28.7714C7.16194 28.619 8.44955 28.3942 8.85908 28.998C8.90352 29.0628 8.91241 29.1327 8.88575 29.2076C8.71686 29.6914 8.61082 30.2 8.56765 30.7333C8.5613 30.812 8.51876 30.8546 8.44003 30.8609C7.75305 30.9142 7.09527 30.9225 6.4667 30.8857C6.15686 30.8666 5.94352 30.7187 5.8267 30.4419C5.80342 30.3856 5.80274 30.3216 5.82479 30.2628C6.05283 29.6739 6.91559 29.5081 7.52754 29.3905L7.63622 29.3695C7.86733 29.325 7.87241 29.2641 7.65146 29.1866ZM7.64384 29.9142L6.89336 30.1828C6.88682 30.1854 6.88155 30.1904 6.8787 30.1968C6.87584 30.2032 6.87564 30.2105 6.87813 30.2171L6.88384 30.2323C6.89775 30.2718 6.92037 30.3077 6.9504 30.3381C6.98043 30.3684 7.01729 30.3926 7.05887 30.4092C7.10045 30.4259 7.14592 30.4346 7.1927 30.435C7.23947 30.4354 7.28663 30.4273 7.33146 30.4114L7.44956 30.3676C7.53992 30.3354 7.61535 30.2729 7.65929 30.194C7.70322 30.1151 7.71205 30.0261 7.68384 29.9466L7.67813 29.9314C7.67705 29.928 7.6753 29.9248 7.67298 29.9221C7.67066 29.9194 7.66782 29.9171 7.66462 29.9155C7.66142 29.9139 7.65793 29.913 7.65436 29.9128C7.65079 29.9126 7.64721 29.9131 7.64384 29.9142ZM41.402 29.3539C41.3922 29.362 41.3803 29.3674 41.3676 29.3694C40.8648 29.4469 40.3676 29.5866 39.8762 29.7885C39.3334 30.0114 39.4591 30.8666 40.0991 30.8875C40.7238 30.9091 41.3721 30.9053 42.0438 30.8761C42.1099 30.8736 42.1524 30.8406 42.1714 30.7771C42.3454 30.184 42.4667 29.6152 42.5353 29.0704C42.5399 29.036 42.5357 29.001 42.5231 28.9686C42.5104 28.9363 42.4897 28.9077 42.4629 28.8856C41.9505 28.4533 40.9295 28.6056 40.3257 28.758C40.2026 28.7885 40.1327 28.866 40.1162 28.9904L40.08 29.2418C40.066 29.346 40.106 29.3764 40.2 29.3333C40.5251 29.186 40.866 29.1193 41.2229 29.1333C41.2826 29.1358 41.3321 29.1599 41.3714 29.2056L41.4114 29.2514C41.4197 29.2611 41.4252 29.273 41.4274 29.2856C41.4296 29.2982 41.4284 29.3112 41.424 29.3232C41.4195 29.3352 41.4119 29.3458 41.402 29.3539ZM40.5619 30.1809L41.2857 29.9295C41.2941 29.927 41.303 29.9278 41.3108 29.9317C41.3186 29.9355 41.3246 29.9422 41.3276 29.9504L41.3314 29.9618C41.3449 30.0001 41.3502 30.0409 41.3471 30.0817C41.344 30.1226 41.3324 30.1627 41.3131 30.1999C41.2938 30.2371 41.2672 30.2705 41.2347 30.2983C41.2022 30.3261 41.1645 30.3477 41.1238 30.3618L40.9543 30.419C40.9136 30.4332 40.8706 30.4397 40.8278 30.438C40.7851 30.4364 40.7434 30.4268 40.7052 30.4096C40.6669 30.3924 40.6329 30.3681 40.6051 30.338C40.5772 30.3079 40.5561 30.2726 40.5429 30.2342L40.541 30.2247C40.5395 30.2204 40.5388 30.2159 40.539 30.2114C40.5393 30.2069 40.5404 30.2025 40.5424 30.1984C40.5443 30.1944 40.547 30.1907 40.5504 30.1877C40.5537 30.1847 40.5577 30.1824 40.5619 30.1809ZM64.5353 29.2343L64.4876 29.1829C64.4524 29.1454 64.4079 29.1179 64.3587 29.1031C64.3095 29.0884 64.2574 29.087 64.2076 29.0991L63.2724 29.3258C63.2653 29.3276 63.2578 29.3274 63.2507 29.3254C63.2436 29.3234 63.2371 29.3196 63.2318 29.3143C63.2265 29.309 63.2225 29.3024 63.2203 29.295C63.2181 29.2877 63.2177 29.2799 63.2191 29.2724L63.301 28.8972C63.3162 28.8312 63.3562 28.7892 63.421 28.7715C64.04 28.6077 65.1886 28.4248 65.6457 28.9391C65.6953 28.9962 65.7124 29.0616 65.6972 29.1353L65.3448 30.76C65.3283 30.8375 65.28 30.8775 65.2 30.88C64.6299 30.894 64.0394 30.9035 63.4286 30.9086C63.0705 30.9124 62.5334 30.6629 62.6895 30.2096C62.8784 29.6594 63.8219 29.4865 64.408 29.3792L64.4914 29.3639C64.5052 29.3614 64.518 29.3553 64.5286 29.3461C64.5392 29.337 64.5471 29.3252 64.5516 29.312C64.556 29.2988 64.5569 29.2846 64.554 29.2709C64.5512 29.2573 64.5447 29.2446 64.5353 29.2343ZM64.44 29.9315L63.6915 30.1772C63.6878 30.1783 63.6844 30.1801 63.6815 30.1825C63.6785 30.1849 63.6761 30.1879 63.6743 30.1913C63.6725 30.1946 63.6714 30.1983 63.6711 30.2021L63.671 30.2048C63.671 30.2077 63.6715 30.2106 63.6724 30.2134L63.6743 30.221C63.6876 30.2618 63.7092 30.2994 63.7378 30.3317C63.7664 30.364 63.8014 30.3904 63.8409 30.4094C63.8803 30.4283 63.9234 30.4394 63.9678 30.4421C64.0121 30.4447 64.0567 30.4388 64.0991 30.4248L64.2572 30.3734C64.2997 30.3595 64.3392 30.3377 64.3734 30.3092C64.4076 30.2807 64.4358 30.2461 64.4563 30.2073C64.4769 30.1685 64.4894 30.1264 64.4931 30.0833C64.4968 30.0402 64.4918 29.997 64.4781 29.9562L64.4762 29.9505C64.4756 29.9485 64.4748 29.9466 64.4738 29.9449C64.473 29.9433 64.472 29.9419 64.4709 29.9405C64.4685 29.9376 64.4655 29.9351 64.4621 29.9334C64.4588 29.9316 64.4551 29.9305 64.4513 29.9302C64.4475 29.9299 64.4436 29.9303 64.44 29.9315ZM69.941 29.28L69.9429 29.3295C69.943 29.3394 69.9394 29.3491 69.9328 29.3567C69.9261 29.3644 69.9169 29.3696 69.9067 29.3714C69.3403 29.4489 68.8343 29.5898 68.3886 29.7943C68.0457 29.9524 67.8724 30.4743 68.2248 30.7276C68.6001 30.9973 69.5826 30.9366 70.2425 30.8958C70.3797 30.8874 70.5029 30.8798 70.6038 30.8762C70.6851 30.8736 70.7308 30.8324 70.741 30.7524C70.8057 30.2863 70.9003 29.7974 71.0248 29.2857C71.2572 28.3257 69.2743 28.6438 68.8553 28.7543C68.8204 28.7631 68.788 28.7802 68.7609 28.804C68.7338 28.8278 68.7126 28.8578 68.6991 28.8914L68.5372 29.2857C68.5016 29.3746 68.5276 29.4 68.6153 29.3619C69.0127 29.1879 69.4115 29.1149 69.8115 29.1428C69.8965 29.1492 69.9397 29.1949 69.941 29.28ZM69.0972 30.1733L69.8115 29.92C69.8193 29.9175 69.8278 29.918 69.8352 29.9216C69.8426 29.9251 69.8484 29.9314 69.8514 29.939L69.8553 29.9504C69.8832 30.0296 69.8762 30.1175 69.8359 30.195C69.7956 30.2724 69.7252 30.3331 69.64 30.3638L69.5105 30.4114C69.468 30.4266 69.4232 30.4339 69.3785 30.4328C69.3339 30.4318 69.2903 30.4224 69.2503 30.4053C69.2103 30.3881 69.1747 30.3635 69.1455 30.3328C69.1163 30.3022 69.094 30.2661 69.08 30.2266L69.0762 30.2152C69.0753 30.2128 69.0748 30.2103 69.0745 30.2077L69.0743 30.2043L69.0744 30.2023C69.0746 30.198 69.0758 30.1937 69.0777 30.1898C69.0789 30.1874 69.0804 30.1851 69.0822 30.1831C69.0833 30.1818 69.0845 30.1806 69.0858 30.1795C69.0891 30.1767 69.093 30.1746 69.0972 30.1733ZM13.9581 28.7448L13.541 30.8229C13.5379 30.8393 13.5292 30.8542 13.5163 30.865C13.5035 30.8758 13.4873 30.8818 13.4705 30.8819L12.5848 30.8743C12.574 30.8743 12.5634 30.8718 12.5537 30.8671C12.544 30.8625 12.5354 30.8557 12.5287 30.8473C12.5219 30.8389 12.5171 30.8291 12.5146 30.8186C12.5122 30.8081 12.512 30.7972 12.5143 30.7867L12.9734 28.72C12.9768 28.7039 12.9857 28.6894 12.9985 28.679C13.0114 28.6686 13.0273 28.6629 13.0438 28.6629L13.8857 28.6572C13.8967 28.6569 13.9075 28.6591 13.9175 28.6637C13.9274 28.6682 13.9362 28.675 13.9432 28.6834C13.9501 28.6918 13.9551 28.7017 13.9577 28.7124C13.9603 28.723 13.9604 28.7341 13.9581 28.7448ZM17.3467 30.8285L17.8153 28.7447C17.8172 28.7355 17.8172 28.7261 17.815 28.717C17.8129 28.7079 17.8087 28.6994 17.8029 28.6921C17.7971 28.6848 17.7897 28.6789 17.7813 28.6748C17.7729 28.6707 17.7636 28.6685 17.7543 28.6685L16.8495 28.6609C16.835 28.6611 16.821 28.6663 16.8099 28.6757C16.7987 28.685 16.7912 28.698 16.7886 28.7123L16.3581 30.8075C16.3561 30.8168 16.3562 30.8264 16.3584 30.8357C16.3607 30.8449 16.365 30.8535 16.371 30.8609C16.3771 30.8682 16.3847 30.8741 16.3934 30.878C16.402 30.882 16.4115 30.8839 16.421 30.8837L17.2857 30.878C17.3 30.8779 17.3138 30.8729 17.3249 30.8639C17.336 30.8549 17.3437 30.8424 17.3467 30.8285ZM37.4095 30.1161C37.6819 30.3104 38.0819 30.1961 38.1638 29.8438C38.2565 29.445 38.3537 29.0679 38.4553 28.7123C38.4641 28.6793 38.4864 28.6628 38.5219 28.6628L39.3562 28.659C39.4121 28.659 39.4343 28.6863 39.4229 28.7409L39.0038 30.7599C38.9873 30.8374 38.9397 30.8768 38.861 30.878L38.1905 30.8838C38.1105 30.8838 38.0635 30.8444 38.0495 30.7657C38.047 30.7492 38.0394 30.7339 38.0267 30.7199C37.9949 30.6857 37.9594 30.6806 37.92 30.7047C37.3867 31.0425 36.8851 31.0361 36.4153 30.6857C36.3572 30.6429 36.3125 30.5843 36.2865 30.5168C36.2606 30.4494 36.2543 30.3758 36.2686 30.3047L36.581 28.7009C36.5873 28.673 36.6045 28.659 36.6324 28.659L37.6076 28.6609C37.633 28.6609 37.6419 28.673 37.6343 28.6971C37.3841 29.5707 37.3092 30.0438 37.4095 30.1161ZM44.8267 28.7466L44.3905 30.7523C44.3871 30.7682 44.3873 30.7847 44.391 30.8005C44.3948 30.8162 44.4021 30.831 44.4123 30.8436C44.4226 30.8562 44.4355 30.8664 44.4502 30.8733C44.4649 30.8803 44.4809 30.8838 44.4972 30.8838L45.2953 30.8799C45.3202 30.8801 45.3444 30.8716 45.3638 30.856C45.3832 30.8404 45.3967 30.8186 45.4019 30.7942L45.8248 28.7904C45.8282 28.7747 45.828 28.7584 45.8243 28.7428C45.8207 28.7271 45.8136 28.7125 45.8035 28.6999C45.7935 28.6873 45.7808 28.6771 45.7664 28.67C45.7519 28.663 45.7361 28.6592 45.72 28.659L44.9333 28.6609C44.9084 28.6608 44.8842 28.6692 44.8648 28.6848C44.8454 28.7004 44.8319 28.7223 44.8267 28.7466ZM61.0953 30.6857C60.628 30.9942 60.1511 31.0222 59.6648 30.7695C59.3905 30.6273 59.3035 30.4095 59.4038 30.1161C59.5486 29.6958 59.6445 29.2463 59.6915 28.7676C59.6938 28.7384 59.7073 28.7112 59.7292 28.6915C59.7511 28.6717 59.7798 28.6608 59.8095 28.6609H60.6667C60.7365 28.6609 60.7632 28.6946 60.7467 28.7619L60.4762 29.8419C60.414 30.0933 60.5124 30.2133 60.7714 30.2019C60.8007 30.2006 60.8299 30.1999 60.8591 30.1999C61.0965 30.1923 61.2438 30.073 61.301 29.8419L61.5772 28.7009C61.5798 28.6891 61.5865 28.6785 61.5961 28.6709C61.6058 28.6632 61.618 28.6591 61.6305 28.659L62.5238 28.6628C62.5607 28.6641 62.5753 28.6825 62.5676 28.718L62.1334 30.7561C62.1156 30.8387 62.0648 30.8799 61.981 30.8799L61.3334 30.8819C61.2508 30.8819 61.1981 30.8419 61.1753 30.7619L61.16 30.7085C61.1486 30.6717 61.127 30.6641 61.0953 30.6857ZM30.2572 29.878C30.2572 30.2293 29.9723 30.5142 29.621 30.5142C29.2696 30.5142 28.9848 30.2293 28.9848 29.878C28.9848 29.5266 29.2696 29.2418 29.621 29.2418C29.9723 29.2418 30.2572 29.5266 30.2572 29.878ZM53.1676 30.5181C53.5211 30.5181 53.8076 30.2315 53.8076 29.878C53.8076 29.5246 53.5211 29.2381 53.1676 29.2381C52.8142 29.2381 52.5276 29.5246 52.5276 29.878C52.5276 30.2315 52.8142 30.5181 53.1676 30.5181Z" fill="white"/>
</svg>
