<svg width="40" height="34" fill="none" xmlns="http://www.w3.org/2000/svg"><g clip-path="url(#a)" fill="#fff"><path d="M14.9 13.387v-.782c-.082.36-.16.7-.26 1.05-.095.037-.178.05-.241.093a351.262 351.262 0 0 0-4.054 2.772c-.22.152-.424.327-.635.492-.096-.235-.2-.467-.287-.705a4.554 4.554 0 0 1-.152-.547c.066-.1.115-.192.191-.245.537-.374 1.08-.738 1.62-1.108 1.064-.73 2.126-1.464 3.192-2.194.857-.587 1.72-1.166 2.577-1.753.8-.549 1.593-1.107 2.396-1.651.106-.073.252-.087.38-.129.294.294.588.588.88.9-.492.343-.984.66-1.468.989-.665.451-1.324.912-1.985 1.368-.544.375-1.086.752-1.632 1.124-.17.115-.347.218-.521.326Z"/><path d="M19.622 8.67c-.123.052-.269.066-.375.139-.803.544-1.596 1.102-2.396 1.65-.857.588-1.72 1.167-2.577 1.754-1.066.73-2.128 1.464-3.193 2.194-.539.37-1.082.734-1.619 1.108-.076.053-.125.144-.189.232-.069-.179-.138-.37-.2-.563-.032-.097-.052-.197-.08-.31-.164.253-.296.51-.477.726-.184.219-.415.399-.64.593-.015-.003-.018-.006-.018-.006.118-.165.24-.326.353-.494.23-.338.382-.71.484-1.123.095-.08.162-.16.245-.216.517-.362 1.039-.718 1.559-1.077l3.06-2.111 2.258-1.55c.785-.54 1.568-1.082 2.359-1.613.162-.109.356-.17.535-.254.302.304.604.607.91.92ZM9.483 7.126a9.596 9.596 0 0 1 .976-1.995c1.044-1.656 2.475-2.891 4.172-3.835.35-.194.717-.36 1.08-.53.04-.018.124.001.154.034.299.323.59.653.884.98.064.071.136.135.192.214-.113.045-.228.055-.313.112-.544.363-1.08.737-1.62 1.107l-2.03 1.39c-.862.589-1.728 1.172-2.582 1.772-.304.214-.67.366-.85.73-.006.014-.04.014-.063.021Z"/><path d="M9.474 7.134c.031-.015.066-.015.073-.03.18-.363.545-.515.85-.729.853-.6 1.719-1.183 2.58-1.773l2.031-1.389c.54-.37 1.076-.744 1.62-1.107.085-.057.2-.067.316-.1.015 0 .013 0 .014.011.034.04.066.067.098.095.235.255.469.51.693.78-.073.041-.142.06-.198.097-.648.443-1.294.891-1.943 1.335-.626.428-1.256.85-1.88 1.279-.691.475-1.376.958-2.066 1.434-.69.475-1.384.945-2.076 1.42-.207.141-.41.289-.615.433.126-.475.251-.952.38-1.426.03-.11.076-.215.123-.33ZM8.693 11.175c.002-.062.004-.124.026-.199.292-.192.567-.368.837-.553 1.05-.722 2.099-1.447 3.149-2.17.733-.505 1.466-1.009 2.2-1.512.668-.458 1.332-.923 2.008-1.369.275-.18.51-.434.853-.5.238.245.475.49.706.757-.184.12-.37.207-.538.32-.64.427-1.277.86-1.912 1.295-1.284.88-2.567 1.763-3.85 2.645-.417.286-.833.573-1.25.858-.327.223-.657.442-.982.667-.405.281-.807.568-1.216.856 0-.242.003-.5-.001-.757-.002-.113-.02-.225-.03-.338ZM18.708 7.739c-.176.094-.37.155-.532.264-.791.53-1.574 1.074-2.359 1.613-.752.516-1.505 1.032-2.257 1.55l-3.061 2.111c-.52.359-1.042.715-1.56 1.077-.082.057-.149.136-.234.208 0-.392.012-.786.039-1.195.037-.022.063-.024.08-.037.196-.156.382-.326.588-.468.627-.435 1.264-.857 1.894-1.288.663-.453 1.32-.914 1.983-1.368.52-.357 1.046-.708 1.567-1.066.719-.493 1.435-.991 2.154-1.485.459-.315.915-.634 1.381-.937.232-.151.43-.374.733-.394.172.17.343.342.553.552l-1.525.291c.198.2.375.38.556.572Z"/><path d="M19.12 6.312c-.3.032-.497.255-.729.406-.466.303-.922.622-1.38.937-.72.494-1.436.992-2.155 1.485-.521.358-1.046.709-1.567 1.066-.662.454-1.32.915-1.983 1.368-.63.431-1.267.853-1.894 1.288-.206.142-.392.312-.589.468-.016.014-.042.015-.076.022a75.125 75.125 0 0 1-.062-2.165c.018.101.036.213.038.326.004.258.001.515.001.757.41-.288.81-.575 1.216-.856.325-.225.655-.444.982-.667.417-.285.833-.572 1.25-.858 1.283-.882 2.566-1.765 3.85-2.645.635-.435 1.272-.868 1.912-1.296.168-.112.354-.199.54-.308.22.213.43.437.645.672ZM8.967 8.904c.21-.158.412-.306.62-.448.69-.474 1.385-.944 2.075-1.42.69-.475 1.375-.958 2.065-1.433.625-.43 1.255-.851 1.881-1.28.649-.443 1.294-.89 1.943-1.334.056-.038.125-.056.2-.086.127.107.245.212.353.326.197.209.388.423.602.658l-1.709.117c.105.12.183.209.25.307-.113.02-.235 0-.314.05-.336.208-.662.435-.988.66-.646.448-1.287.901-1.934 1.346-.7.481-1.406.954-2.107 1.432-.892.608-1.786 1.213-2.672 1.829-.163.112-.37.199-.408.436-.002.015-.036.025-.054.037.064-.395.129-.79.197-1.197ZM14.893 13.397c.182-.118.36-.22.529-.336.546-.372 1.088-.749 1.632-1.124.661-.456 1.32-.916 1.985-1.368.484-.329.976-.646 1.472-.978.285.267.561.544.835.841-.317.235-.632.446-.945.66-.876.601-1.751 1.204-2.627 1.807l-2.056 1.418c-.154.106-.31.21-.465.314v-.369l-.462.387c.007-.159.01-.291.02-.423.023-.273.049-.546.082-.83Z"/><path d="M8.766 10.115c.022-.026.056-.036.058-.05.038-.238.245-.325.408-.437.886-.616 1.78-1.221 2.671-1.829.702-.478 1.408-.95 2.107-1.432.648-.445 1.29-.898 1.935-1.345.326-.226.652-.453.988-.662.079-.049.201-.028.316-.037.179.177.344.351.514.537-.34.078-.575.332-.85.512-.676.446-1.34.91-2.008 1.369-.734.503-1.467 1.007-2.2 1.512-1.05.723-2.098 1.448-3.15 2.17-.269.185-.544.36-.83.542a2.68 2.68 0 0 1 .01-.472.914.914 0 0 0 .023-.185c.001-.06.003-.119.008-.193ZM21.52 12.591c-.279.417-.44.885-.604 1.376-.063.21-.109.402-.168.595-.086.031-.166.051-.23.094-.499.337-.996.676-1.492 1.017-.88.605-1.76 1.21-2.636 1.82-.1.07-.177.17-.264.255h-.623c0-.361 0-.72.014-1.097.106-.096.192-.18.29-.25.43-.297.86-.59 1.292-.886l2.426-1.664c.54-.37 1.076-.743 1.62-1.106.11-.073.25-.104.375-.154Z"/><path d="M21.526 12.581c-.131.06-.27.09-.38.164-.545.363-1.082.737-1.62 1.107l-2.427 1.663c-.431.295-.863.589-1.291.887-.099.068-.185.153-.288.234a.683.683 0 0 1 .005-.23c.024-.128.032-.236.04-.345-.002-.114-.005-.23-.002-.369a.158.158 0 0 0-.022-.074l-.037.041s-.01.012-.028.011c-.114-.068-.026-.088.013-.115.522-.365 1.043-.732 1.567-1.093.624-.428 1.255-.848 1.878-1.277.884-.607 1.762-1.222 2.645-1.83.14-.096.295-.171.443-.256l.443.437c-.32.354-.626.695-.939 1.045Z"/><path d="M22.017 11.088c-.143.096-.297.17-.438.267-.883.608-1.761 1.223-2.645 1.83-.623.43-1.254.849-1.878 1.277-.524.36-1.045.728-1.567 1.093-.04.027-.127.047-.02.117-.094.094-.2.185-.305.277l-.04-.016c.016-.205.031-.41.06-.633a.18.18 0 0 0 .011-.079c.014-.187.028-.374.05-.575.163-.12.32-.223.473-.33l2.056-1.417 2.627-1.807c.313-.214.628-.425.948-.649.226.204.445.419.668.645ZM9.71 17.024c.211-.177.415-.352.634-.505a351.262 351.262 0 0 1 4.055-2.771c.063-.043.146-.056.234-.082-.036.427-.086.854-.151 1.301-.027.074-.035.129-.052.18-.014.039-.032.086-.063.107-.346.233-.697.458-1.042.693-.776.53-1.55 1.06-2.322 1.596-.07.049-.113.136-.169.205-.252.003-.503.01-.755.004-.042 0-.107-.041-.123-.08-.089-.21-.166-.424-.247-.648ZM16.142 17.751c.071-.089.149-.189.248-.258.876-.61 1.756-1.215 2.636-1.82.496-.34.993-.68 1.493-1.017.064-.043.143-.063.235-.094h.034c0 .026 0 .053-.017.098-.024.121-.032.224-.04.327 0 .036 0 .071-.013.13-.018.327-.024.63-.041.935-.076.048-.14.097-.205.142-.411.281-.813.577-1.237.838-.347.215-.627.537-1.041.645-.025.006-.042.046-.062.071-.658.002-1.316.004-1.99.003Z"/><path d="M10.85 17.751c.04-.072.083-.16.153-.208.771-.535 1.546-1.067 2.322-1.596.345-.235.696-.46 1.042-.693.031-.021.05-.068.063-.107.017-.051.025-.106.048-.164.005.143-.002.29-.011.483l.38-.25c-.052.383-.1.732-.163 1.096-.084.045-.157.066-.216.106-.54.37-1.079.742-1.618 1.114-.107.073-.215.144-.322.216-.554.002-1.108.004-1.678.003ZM18.148 17.751c.004-.028.02-.068.046-.075.414-.107.694-.43 1.041-.644.424-.261.826-.557 1.237-.838.066-.045.129-.094.206-.13.024.047.034.084.045.121.005.05.009.1.008.18.003.095.011.163.02.23l.218 1.16c-.94 0-1.873 0-2.821-.004ZM26.71 2.005c.312.29.625.58.934.872.066.063.116.141.16.224-.078.024-.154.02-.21.05a6.925 6.925 0 0 0-.479.306c-.757.518-1.513 1.039-2.27 1.558-.814.558-1.63 1.114-2.442 1.673-.596.41-1.188.826-1.786 1.234-.108.074-.183.154-.172.292l-.564-.761.911-.396c-.163-.22-.313-.421-.452-.638.03-.024.054-.029.073-.042.403-.283.804-.57 1.21-.852.702-.487 1.407-.971 2.112-1.455.46-.314.922-.624 1.382-.937.47-.32.938-.642 1.405-.966.068-.047.126-.107.189-.162Z"/><path d="M20.45 8.224c-.016-.148.059-.228.167-.302.598-.408 1.19-.824 1.785-1.234.814-.559 1.63-1.115 2.443-1.673.757-.52 1.513-1.04 2.27-1.558.156-.107.315-.211.48-.305.055-.032.131-.027.212-.039.235.308.456.615.672.949-.077.076-.149.129-.223.179-.645.44-1.292.878-1.934 1.323-.362.25-.715.513-1.086.77-.095-.022-.177-.056-.26-.061-.439-.025-.751.256-.853.754-.075.07-.137.138-.206.197-.047.04-.106.067-.158.103-.496.338-.994.673-1.486 1.018-.383.268-.757.548-1.134.823-.228-.311-.457-.622-.69-.944ZM24.974 11.145c-.025 0-.05 0-.1-.013a21.578 21.578 0 0 0-.927.004.532.532 0 0 1-.103.009c-.102-.005-.174-.005-.246-.018.023-.038.04-.07.065-.089.285-.203.57-.406.857-.605.832-.572 1.667-1.141 2.499-1.715.713-.491 1.421-.99 2.137-1.478.149-.102.322-.169.484-.252.005.015.01.03.005.063.004.036.016.056.029.075.074.428.148.856.208 1.301-.535.372-1.056.727-1.576 1.084-.781.534-1.563 1.068-2.34 1.607-.079.055-.132.147-.197.222-.185-.046-.37-.092-.574-.154a1.382 1.382 0 0 0-.22-.04ZM26.704 1.996a1.039 1.039 0 0 1-.182.171c-.467.324-.935.646-1.405.966-.46.313-.923.623-1.382.937-.705.484-1.41.968-2.113 1.455-.405.281-.806.569-1.21.852-.018.013-.041.018-.076.03a12.766 12.766 0 0 1-.572-.711c-.068-.164-.018-.25.11-.334.355-.232.7-.481 1.051-.72 1.194-.817 2.386-1.638 3.585-2.446.426-.286.81-.64 1.304-.818.295.203.59.406.89.618Z"/><path d="M29.642 6.975c-.164.096-.337.163-.486.265-.716.487-1.424.987-2.137 1.478-.832.574-1.667 1.143-2.499 1.715-.288.199-.572.402-.857.605-.026.019-.042.051-.072.094a1.02 1.02 0 0 0-.027.063c-.235.053-.473.095-.704.161-.118.035-.177 0-.24-.091-.118-.176-.244-.346-.356-.53.034-.017.06-.017.078-.029.377-.261.753-.525 1.13-.785 1.263-.87 2.527-1.738 3.79-2.607.5-.345.997-.697 1.502-1.036.184-.124.386-.22.58-.33.1.338.2.676.298 1.027Z"/><path d="M29.344 5.935c-.194.123-.396.22-.58.343-.505.34-1.002.691-1.503 1.036-1.262.87-2.526 1.737-3.788 2.607-.378.26-.754.524-1.131.785-.018.012-.044.012-.079.017a9.643 9.643 0 0 1-.506-.707c.077-.074.141-.14.216-.19.289-.198.583-.387.871-.585.62-.425 1.237-.853 1.854-1.283.044-.03.075-.077.127-.118a4.02 4.02 0 0 1 .332-.018c.026-.007.046-.02.076-.04a.932.932 0 0 0 .458-.519c.047-.02.087-.032.119-.055.29-.204.577-.413.869-.615a231.35 231.35 0 0 1 2.023-1.391c.09-.061.208-.083.313-.123.11.28.22.562.329.856ZM29.924 12.625c-.05.475-.077.953-.156 1.423-.14.833-.304 1.662-.474 2.49-.078.376-.194.744-.3 1.114-.011.043-.066.104-.102.104-.397.008-.793.005-1.198.005l.112-.904c.123-.988.128-1.975-.044-2.971a.36.36 0 0 0 .332-.068c.156-.116.324-.217.484-.328.408-.285.814-.573 1.224-.855.029-.02.08-.008.122-.01ZM25.778 11.347c.056-.082.109-.174.188-.229.777-.539 1.559-1.073 2.34-1.607.52-.357 1.041-.712 1.574-1.069.047.33.088.66.114.992.02.247.018.494.009.757-.073.096-.113.197-.188.253-.229.173-.469.332-.707.491l-1.991 1.327c-.016.011-.02.04-.03.06-.164-.164-.31-.353-.496-.487-.252-.183-.535-.324-.813-.489ZM25.808 1.368c-.488.188-.872.542-1.298.828-1.2.808-2.39 1.629-3.585 2.445-.35.24-.696.489-1.052.72-.128.084-.177.17-.116.324-.28-.337-.56-.687-.874-1.077h1.27a1.615 1.615 0 0 1-.112-.27c.071-.087.12-.173.194-.225.508-.354 1.021-.7 1.533-1.05l1.55-1.054c.502-.343 1.003-.687 1.504-1.032.025-.018.038-.053.056-.08.308.153.616.307.93.471Z"/><path d="M27.091 12.334c.006-.032.01-.06.026-.072.663-.443 1.328-.884 1.99-1.327.24-.16.48-.318.708-.49.075-.057.115-.158.182-.239.017.269.035.54.025.809-.02.53-.055 1.058-.09 1.598-.05.014-.101.002-.13.022-.41.282-.816.57-1.224.855-.16.111-.328.212-.484.328-.101.075-.2.102-.331.053-.099-.259-.166-.525-.274-.774-.111-.26-.26-.502-.398-.763ZM24.87.888c-.01.036-.023.071-.048.089-.5.345-1.002.689-1.504 1.032l-1.55 1.054c-.512.35-1.025.696-1.533 1.05-.073.052-.123.138-.195.212-.161-.25-.31-.504-.458-.783.049-.099.082-.193.148-.241.288-.209.587-.403.88-.605.485-.337.968-.677 1.454-1.013.311-.216.622-.432.94-.639.243-.159.497-.302.743-.457.028-.017.039-.06.058-.092.352.128.704.257 1.064.393Z"/><path d="M23.79.49c-.004.036-.015.08-.043.097-.246.155-.5.298-.744.457-.317.207-.628.423-.939.639-.486.336-.969.676-1.455 1.013-.293.202-.591.396-.88.605-.065.048-.098.142-.147.23a18.705 18.705 0 0 1-.478-.829.573.573 0 0 0-.068-.106s-.009-.01-.008-.032c.037-.112.047-.237.113-.288.25-.192.517-.36.777-.538.426-.29.845-.593 1.28-.87.362-.229.661-.572 1.118-.638.014-.002.024-.035.036-.054a.432.432 0 0 1 .13.02c.056.025.095.033.133.042l.929.203.247.049ZM29.012 5.066c-.102.053-.22.075-.31.136-.678.459-1.35.925-2.023 1.39-.292.203-.579.412-.869.616a.25.25 0 0 1-.12.041c.072-.421-.105-.705-.441-.915.358-.257.711-.52 1.073-.77.642-.445 1.29-.882 1.934-1.323.074-.05.146-.103.223-.167.138.222.277.457.408.696.05.09.083.188.125.296Z"/><path d="M22.34.168c0 .027-.01.06-.024.062-.457.066-.756.41-1.118.639-.435.276-.854.578-1.28.87-.26.177-.528.345-.777.537-.066.051-.076.176-.112.282a36.39 36.39 0 0 1-.53-.873 1.118 1.118 0 0 1-.106-.223.545.545 0 0 1 .231-.294c.4-.257.798-.516 1.18-.799.216-.16.441-.254.708-.267.038-.002.074-.049.111-.074.337.022.675.043 1.011.068.233.017.464.042.707.072ZM24.81 7.842c-.037.039-.068.086-.112.116-.617.43-1.234.858-1.854 1.283-.288.198-.582.387-.871.584-.075.051-.139.117-.22.18a18.31 18.31 0 0 1-.613-.824c.376-.288.75-.568 1.133-.836.492-.345.99-.68 1.486-1.018.052-.036.11-.062.158-.103.07-.06.131-.128.21-.182.004.228.067.426.239.558.132.102.295.163.445.242Z"/><path d="M20.607.024c-.021.03-.057.076-.095.078a1.256 1.256 0 0 0-.709.267c-.38.283-.78.542-1.179.8a.573.573 0 0 0-.232.281c-.025-.02-.039-.042-.054-.087-.021-.041-.04-.062-.06-.082l-.67-1.154c1.007-.158 1.997-.096 3-.103ZM12.54 17.754c.095-.078.203-.149.31-.222.54-.372 1.077-.744 1.618-1.114.06-.04.132-.061.21-.091-.02.21-.053.42-.094.679l.334-.226-.077.98c-.764 0-1.526 0-2.3-.006ZM16.37 28.502c-.002-.208-.004-.417.013-.641.294-.028.569-.04.844-.05.36-.014.722-.02 1.083-.038.28-.014.559-.057.838-.062.297-.005.595.019.893.03.003.213 0 .426.01.639.007.134-.035.18-.175.178-.604-.007-1.21-.004-1.814-.003-.068 0-.137.011-.222.007-.01-.126-.086-.134-.174-.13l-1.296.07ZM11.913 29.333v.691c-1.204 0-2.406 0-3.623-.02-.016-.147-.012-.274-.016-.4-.003-.093.029-.13.127-.136.526-.03 1.05-.079 1.575-.098.645-.024 1.291-.026 1.937-.037ZM12.297 27.187c-.002-.197-.004-.393.011-.606.097-.028.175-.046.255-.05.63-.024 1.261-.045 1.891-.07.235-.01.47-.018.704-.044.274-.03.545-.064.81.044.008.143.01.286.024.429.012.127-.034.169-.165.168-.66-.007-1.322-.004-2.01-.006-.045.01-.062.021-.093.032-.205 0-.398-.013-.588.003-.28.023-.56.066-.839.1ZM4.182 25.966c.038-.007.077-.02.115-.02 1.149-.002 2.298-.002 3.447-.001.028 0 .056.004.112.01 0 .135 0 .27-.014.424-.051.045-.087.091-.126.094-.399.023-.798.04-1.196.056-.606.025-1.213.044-1.818.073-.17.008-.338.044-.508.051l-.012-.686ZM16.37 26.634v-.679h3.677c0 .216 0 .432-.016.66-.068-.155-.197-.17-.344-.155-.16.016-.32.029-.48.035-.654.025-1.309.043-1.963.072-.291.013-.582.044-.873.067ZM24.508 26.6c-.005-.161-.003-.322-.015-.482-.01-.132.031-.178.172-.177.886.007 1.771.003 2.656.003h.874c0 .17 0 .327-.02.501-.57.039-1.12.064-1.67.084-.666.026-1.332.047-1.997.07Z"/><path d="M11.919 29.318c-.652.026-1.298.028-1.943.052-.525.02-1.05.068-1.575.098-.098.006-.13.043-.127.136.004.126 0 .253 0 .395-.02-.03-.056-.075-.056-.121-.004-.333-.001-.665.017-1.014a.543.543 0 0 1 .156-.026l1.301-.023c.05.034.098.093.15.096.18.012.363.005.574.003.108-.047.186-.122.27-.13.283-.026.569-.033.854-.039.276-.006.276-.001.348.252.003.009.017.015.025.022.004.095.008.19.006.3ZM24.503 26.615c.67-.039 1.336-.06 2.002-.086.55-.02 1.1-.045 1.666-.068.018.151.021.302.004.469-.4.027-.781.034-1.162.053-.105.006-.21.046-.33.072H26a.611.611 0 0 1-.047.167l-1.445.034a29.091 29.091 0 0 1-.005-.641ZM32.654 26.634v-.679h3.676c0 .158 0 .316-.017.49-.154.004-.291-.02-.427-.015-.668.03-1.336.066-2.004.1-.251.013-.503.018-.754.038-.159.012-.316.043-.474.066ZM15.97 29.404c.002.161.002.322.007.483.003.088-.021.14-.124.14-1.168-.003-2.336-.003-3.504-.005-.01 0-.021-.007-.057-.02 0-.091 0-.192.014-.312.09-.187.25-.177.393-.183.429-.018.858-.023 1.288-.038.251-.009.502-.031.754-.039.41-.012.819-.018 1.229-.026Z"/><path d="M32.65 26.648c.162-.037.32-.068.478-.08.251-.02.503-.025.754-.038.668-.034 1.336-.07 2.004-.1.136-.006.273.02.424.03.014.19.014.378.014.608-.363 0-.722 0-1.109.008-.367.014-.706.032-1.044.025-.242-.005-.4.06-.407.33-.006-.017-.016-.032-.017-.049-.03-.327-.03-.327-.368-.327h-.732c0-.144 0-.268.004-.407ZM4.172 25.975c.014.215.018.438.021.694l.002.535-.001.465c.238-.025.44-.056.644-.064.465-.019.93-.024 1.395-.039.137-.004.275-.016.41-.036.04-.006.074-.05.11-.077h1.103c0 .162 0 .33-.018.514-.459.039-.9.064-1.34.083-.624.027-1.249.052-1.874.07-.346.01-.386.03-.454.337-.009-.044-.025-.088-.025-.132-.002-.747-.002-1.495-.001-2.242 0-.034.012-.067.028-.108ZM32.25 28.121c.002.174.004.348-.013.538-.548.04-1.077.06-1.606.089-.1.005-.198.045-.297.069l-.276-.243a.695.695 0 0 1-.039.19c-.492.05-.965.084-1.439.118-.002-.185-.005-.37.012-.572.419-.039.819-.065 1.219-.083.813-.038 1.626-.07 2.439-.106ZM22.662 28.71c.008-.135-.057-.18-.187-.17-.13.01-.263.01-.394 0-.135-.01-.194.04-.197.19-.39.026-.762.035-1.134.05-.102.004-.203.022-.305.033a5.71 5.71 0 0 1 .013-.572c.602-.05 1.184-.09 1.767-.117.629-.03 1.259-.048 1.888-.072.003.197.005.394-.01.607-.098.006-.178-.015-.256-.011-.395.017-.79.04-1.185.061ZM15.977 29.392c-.417.02-.827.026-1.236.038-.252.008-.503.03-.754.04-.43.014-.86.019-1.289.037-.141.006-.301-.004-.39.167a5.809 5.809 0 0 1 0-.707.823.823 0 0 1 .19-.023l1.266-.034c.673.002 1.346.009 2.019.002.164-.002.232.04.21.21-.012.084-.007.171-.016.27Z"/><path d="m4.196 27.188-.002-.503c.17-.039.338-.075.508-.083.605-.03 1.212-.048 1.818-.073.398-.016.797-.033 1.196-.056.039-.003.075-.049.124-.078.01.209.01.42.01.65-.064.003-.125.01-.186.01-.614 0-1.23-.001-1.844.002-.058 0-.116.022-.189.048a.106.106 0 0 1-.067.012c-.148 0-.283-.006-.417.002-.317.02-.634.046-.951.069ZM4.162 28.472c.076-.321.116-.343.462-.352.625-.018 1.25-.043 1.874-.07.44-.019.881-.044 1.337-.067.015.182.015.364.015.56-.08.005-.147.01-.215.01-.61.002-1.219 0-1.829.003-.065 0-.16-.036-.18.1-.091-.103-.207-.09-.321-.083-.181.01-.362.026-.543.032-.203.005-.41-.025-.591.102a2.15 2.15 0 0 1-.009-.235ZM15.972 26.445c-.27-.092-.54-.058-.814-.028-.233.026-.469.034-.704.043-.63.026-1.26.047-1.89.072-.08.003-.16.021-.253.033-.014-.2-.014-.4-.014-.61h3.678c0 .159 0 .317-.003.49ZM24.508 28.398c-.003-.151-.006-.302.01-.468 1.235-.074 2.451-.131 3.668-.189.003.163.006.325-.01.503-.582.039-1.144.063-1.706.084-.654.025-1.308.047-1.962.07ZM7.85 29.505v.509H4.162c0-.116 0-.229.018-.357.193-.038.368-.067.544-.081.235-.019.47-.027.705-.035.636-.025 1.273-.047 1.91-.071.068-.003.138-.02.205-.014.103.01.204.032.306.049Z"/><path d="M28.19 27.726c-1.22.073-2.437.13-3.668.188a7.213 7.213 0 0 1-.019-.642c.482-.027.958-.038 1.455-.036.037.075.053.189.073.19.22.007.439-.002.658-.01.013 0 .025-.036.052-.056l1.445-.069c.003.14.006.28.005.435ZM16.368 26.65c.294-.039.585-.07.876-.083.654-.029 1.309-.047 1.963-.072.16-.006.32-.02.48-.035.147-.014.276 0 .34.171.016.12.018.235.004.365-.08-.008-.143-.048-.206-.047-.29.005-.581.016-.871.036-.13.01-.256.046-.4.07-.252.01-.488.02-.74.027-.07-.012-.127-.034-.182-.031-.42.02-.84.044-1.261.067-.002-.15-.004-.301-.003-.468ZM32.253 28.105c-.816.051-1.63.084-2.442.122-.4.018-.8.044-1.215.067a2.118 2.118 0 0 1-.004-.468c.61-.05 1.198-.09 1.788-.118.623-.03 1.246-.048 1.87-.071.002.15.004.302.003.468ZM7.853 29.49c-.105-.002-.206-.025-.309-.034-.067-.005-.137.011-.205.014l-1.91.07c-.235.01-.47.017-.705.036-.176.014-.35.043-.54.067a2.321 2.321 0 0 1-.005-.469c.143-.038.266-.074.39-.081.521-.03 1.043-.052 1.564-.071.459-.017.918-.023 1.377-.038.048-.002.095-.04.142-.06a.105.105 0 0 1 .06.008c.056.073.097.133.139.192.001.117.003.233.002.365ZM24.117 28.037c-.633.039-1.263.057-1.893.087-.582.028-1.164.067-1.763.101a2.013 2.013 0 0 1-.003-.468c.237-.027.454-.041.672-.05l1.907-.07c.069-.003.137-.012.206-.014.29-.008.58-.014.87-.02.003.139.006.278.004.434Z"/><path d="M32.253 27.621c-.627.04-1.25.057-1.873.087-.59.028-1.179.068-1.784.102a1.55 1.55 0 0 1-.005-.4c1.232-.073 2.445-.13 3.658-.188.003.128.005.256.004.4ZM15.608 27.453a1.55 1.55 0 0 1 .262.008c.038.034.059.053.081.088 0 .143 0 .27-.014.398-.064-.008-.115-.025-.165-.022-.81.04-1.621.086-2.432.126-.319.016-.638.02-.96.03l-.083-.132a1.396 1.396 0 0 1 .012-.262c.096-.027.175-.045.254-.049.52-.025 1.04-.05 1.56-.069.447-.016.895-.022 1.341-.04.049-.001.096-.05.144-.076ZM24.503 28.413c.659-.038 1.313-.06 1.967-.085.562-.021 1.124-.045 1.701-.068.018.162.021.325.005.503-.497.039-.974.062-1.45.085-.035-.293-.035-.293-.338-.293-.08 0-.16.007-.24-.002-.126-.014-.184.033-.19.176-.496.038-.973.061-1.45.084-.003-.128-.006-.256-.005-.4ZM20.044 27.726c-.3.004-.599-.02-.896-.015-.28.005-.558.048-.838.062-.36.019-.722.024-1.083.037-.275.01-.55.023-.84.035a1.32 1.32 0 0 1-.005-.365c.498-.028.978-.04 1.47-.048.189.006.366.014.544.01.063-.002.126-.03.202-.05.078-.023.14-.056.207-.063.17-.019.343-.051.51-.032.246.03.549-.158.726.169.002.081.004.163.003.26ZM24.117 27.587c-.294.022-.584.028-.874.036-.069.002-.137.011-.206.014l-1.907.07c-.218.009-.435.023-.669.034a1.005 1.005 0 0 1-.003-.33c.493-.027.965-.039 1.438-.05.06.031.118.085.18.09.146.014.295.01.442.005.167-.006.13-.138.156-.255.492-.026.965-.037 1.44-.048.002.14.004.279.003.434Z"/><path d="M12.294 27.965c.034.033.065.082.086.115.322-.01.641-.013.96-.029.81-.04 1.621-.085 2.432-.126.05-.003.101.014.166.038.014.133.014.25 0 .364-.128-.012-.243-.034-.358-.031-.698.02-1.396.043-2.094.068-.269.01-.539.013-.806.039-.156.015-.368-.007-.334.265.001.012-.032.027-.05.04a64.548 64.548 0 0 1-.002-.743ZM25.968 29.194v.82H24.5c0-.241 0-.48.019-.735.496-.039.973-.062 1.45-.085Z"/><path d="M12.294 28.724c.02-.029.053-.044.052-.056-.034-.272.178-.25.334-.265.268-.026.537-.03.806-.04.698-.024 1.396-.048 2.094-.067.115-.003.23.019.36.046a.761.761 0 0 1 .019.164l-.018-.001c-.687-.002-1.359-.004-2.03-.002-.066 0-.161-.035-.166.088l.017.304c-.42.026-.842.037-1.264.049-.057.001-.114.005-.186.008a.94.94 0 0 1-.018-.228ZM32.252 27.207a281.4 281.4 0 0 1-3.657.188.706.706 0 0 1-.005-.262c.353-.05.687-.098 1.022-.115.364-.018.73-.007 1.095-.009.015.004.03.009.057.02.02.004.025-.001.028-.009 0-.007 0-.014.017-.03.073-.022.13-.041.185-.043.419-.014.837-.025 1.255-.036.002.093.005.187.003.296ZM9.7 28.8c-.442.023-.875.03-1.31.038-.045.001-.09.007-.15.01a3.963 3.963 0 0 1-.008-.578c.067-.152.177-.18.303-.184.211-.008.422-.035.632-.03.193.005.44-.097.525.2.005.177.01.353.008.544Z"/><path d="M9.7 28.242c-.094-.283-.34-.18-.533-.186-.21-.005-.42.022-.632.03-.126.005-.236.032-.299.168a17.397 17.397 0 0 1-.004-1.147c.03.117.045.244.058.348.235-.009.456-.016.678-.026l.689-.034c0-.154 0-.319.004-.491.01-.016.02-.022.03-.026.007.192.02.385.022.578.002.257-.004.514-.013.786ZM24.113 29.265c.006.235.015.469.016.703 0 .033-.029.076-.057.098-.462.354-.927.705-1.418 1.078 0-.409 0-.786.02-1.176.437-.025.854-.04 1.27-.046.106-.002.143-.04.139-.142-.006-.149-.002-.298 0-.456.01-.026.02-.043.03-.059ZM30.338 28.828c.095-.035.193-.075.293-.08.529-.03 1.058-.05 1.603-.073.018.185.02.37.002.572-.293.028-.568.034-.842.054-.17.012-.338.046-.507.07a42.654 42.654 0 0 1-.549-.543ZM30.798 26.669l-.01-.62c0-.027.008-.055.013-.093h1.455c0 .204 0 .408-.02.628-.493.038-.965.062-1.438.085ZM28.58 26.807c-.002-.129-.005-.257.005-.411.05-.278.095-.315.357-.315.183 0 .367.003.55-.002.088-.003.175-.024.263-.037.208.212.416.424.613.647a8.91 8.91 0 0 0-1.788.118ZM22.662 26.634v-.678h1.46c0 .204 0 .408-.019.628-.091.005-.166-.017-.238-.014-.401.018-.802.042-1.203.064Z"/><path d="M24.117 29.25a.184.184 0 0 1-.05.073c-.48.02-.943.032-1.405.043a43.085 43.085 0 0 1-.003-.64c.398-.038.793-.061 1.188-.078.078-.004.158.017.252.027.017.186.02.372.018.574ZM11.92 29.004c-.015.008-.03.002-.032-.007-.072-.253-.072-.258-.348-.252-.285.006-.571.013-.854.04-.084.007-.162.082-.254.13-.009-.199 0-.4-.004-.6-.002-.106.024-.156.143-.154.407.006.815.005 1.222 0 .106-.001.142.035.139.14-.007.229-.005.459-.013.703ZM15.592 27.45c-.032.03-.079.078-.128.08-.447.017-.894.023-1.34.039-.52.019-1.04.044-1.561.07-.08.003-.158.021-.252.033a4.15 4.15 0 0 1-.017-.469c.283-.05.561-.093.842-.116.19-.016.383-.004.588.012.033.122.05.228.069.334.594.004 1.189.009 1.799.016ZM28.186 29.367c.004.183.014.367.008.55 0 .037-.06.103-.093.103-.453.007-.907.005-1.384.005 0-.194 0-.376.018-.573.496-.04.974-.062 1.451-.085ZM35.215 29.367v.648h-1.459c0-.184 0-.366.019-.564.492-.038.966-.061 1.44-.084ZM20.442 28.83c.105-.028.206-.046.308-.05.372-.015.743-.024 1.13-.036.019.197.021.394.005.607-.493.039-.967.062-1.44.085a38.543 38.543 0 0 1-.003-.607ZM7.636 28.92c-.031.024-.078.062-.126.063-.459.016-.918.022-1.377.039-.521.019-1.043.042-1.564.07-.124.008-.247.044-.384.067a2.848 2.848 0 0 1-.023-.438c.19-.141.397-.11.6-.116.18-.006.362-.021.543-.032.114-.007.23-.02.317.098.017.077.023.15.03.247.66 0 1.314 0 1.984.003ZM20.442 29.452c.476-.04.95-.062 1.439-.085.015.211.015.423.015.647h-1.458c0-.183 0-.365.004-.562ZM30.031 29.367v.66h-.484c-.282 0-.564-.002-.847.002-.095.001-.136-.031-.131-.13.006-.143.003-.288.024-.447.493-.04.965-.062 1.438-.085ZM16.368 28.518c.434-.04.866-.062 1.298-.085.088-.005.164.003.16.135.002.174.003.332-.012.504-.174.004-.332-.02-.488-.014-.32.013-.637.043-.955.066-.002-.196-.004-.393-.003-.606ZM33.76 27.446c.01-.286.17-.35.411-.345.339.007.677-.01 1.032-.017.017.197.018.393.001.606-.102.006-.188-.017-.272-.014-.39.018-.78.043-1.169.065a8.104 8.104 0 0 1-.003-.295Z"/><path d="M28.19 29.351c-.481.039-.959.062-1.45.085a5.817 5.817 0 0 1-.019-.573c.481-.038.958-.061 1.45-.084.018.185.021.37.02.572ZM30.035 29.35c-.477.04-.95.063-1.438.086a4.788 4.788 0 0 1-.02-.538c.477-.05.95-.085 1.44-.12.017.186.02.371.018.573ZM22.659 29.382c.465-.027.928-.038 1.406-.05.016.15.012.3.018.448.004.102-.033.14-.139.142-.416.006-.833.02-1.265.032a5.455 5.455 0 0 1-.02-.572ZM29.75 26.032c-.083.023-.17.044-.258.047-.183.005-.367.001-.55.002-.262 0-.306.037-.353.3a49.132 49.132 0 0 1-.03-1.18v-.35c.416.41.8.79 1.19 1.181ZM33.76 27.757c.393-.038.782-.063 1.172-.08.084-.004.17.019.269.03.016.173.018.347.001.537-.492.039-.965.062-1.438.085-.003-.186-.005-.37-.004-.572ZM21.897 25.908c.002.174.004.348-.013.537-.492.04-.966.062-1.44.085.002-.19.003-.382.032-.582.493-.019.957-.03 1.42-.04Z"/><path d="M33.76 28.345c.477-.04.95-.062 1.439-.085.018.174.02.348.003.537-.492.04-.965.062-1.438.085-.003-.174-.005-.348-.004-.537Z"/><path d="M33.76 28.898c.477-.039.95-.062 1.439-.085.018.174.02.348.02.538-.478.039-.952.062-1.44.085a5.067 5.067 0 0 1-.019-.538ZM4.195 27.204c.318-.04.635-.065.952-.085a2.41 2.41 0 0 1 .417.013c.037.111.06.204.083.297.358.006.716.012 1.09.02-.02.03-.054.075-.094.08-.135.02-.273.033-.41.037-.465.015-.93.02-1.395.039-.204.008-.406.04-.644.064l.001-.465ZM20.442 26.546c.476-.039.95-.062 1.439-.085.018.174.02.348.006.537-.067.008-.117-.01-.167-.007-.425.018-.85.038-1.275.058-.002-.162-.005-.325-.003-.503ZM22.659 26.65c.404-.038.805-.062 1.206-.08.073-.003.147.019.234.03.017.174.02.348.018.537-.478.027-.951.038-1.44.05a5.217 5.217 0 0 1-.018-.537ZM21.9 25.892a38.18 38.18 0 0 1-1.412.047c.189-.164.392-.33.6-.49.257-.196.518-.387.816-.609 0 .376 0 .706-.004 1.052ZM16.368 29.14c.32-.039.639-.069.958-.082.156-.006.314.018.485.03.015.141.017.28.001.436a.711.711 0 0 1-.203.049c-.413.014-.826.024-1.239.036-.001-.151-.003-.302-.002-.469ZM9.695 26.863a.146.146 0 0 1-.048.04c-.062-.002-.108-.022-.151-.019-.422.03-.843.063-1.264.096-.005-.22-.01-.44 0-.67a.449.449 0 0 1 .052.118H9.69c.003.14.006.28.004.435Z"/><path d="M9.699 26.414c-.471.014-.935.014-1.415.014a1.145 1.145 0 0 0-.048-.133c-.01-.112-.01-.22-.01-.35.472 0 .937 0 1.417.014.026.037.037.06.047.084 0 .028 0 .056.003.103.008.025.012.03.018.034-.001.074-.003.147-.012.234ZM8.226 26.99a45.76 45.76 0 0 1 1.27-.106c.043-.003.089.017.147.026.014.166.014.331.014.485l-.689.034c-.222.01-.443.017-.678.026-.013-.104-.027-.231-.053-.364a.21.21 0 0 1-.01-.102ZM25.973 29.179c-.482.038-.96.061-1.45.084a3.29 3.29 0 0 1-.02-.434 43.72 43.72 0 0 1 1.45-.085c.018.14.021.28.02.435ZM30.892 29.381c.164-.035.332-.068.502-.08.274-.02.549-.026.84-.038.017.185.02.37.002.571-.082.016-.146.01-.208.018-.195.023-.39.05-.584.076-.182-.179-.365-.357-.552-.547ZM16.368 29.624c.415-.027.828-.037 1.24-.051.063-.003.125-.021.201-.033.015.153.015.306.015.474h-1.46c0-.126 0-.25.004-.39ZM28.576 26.822a7.416 7.416 0 0 1 1.798-.122c.119.095.222.19.33.297-.362.014-.728.003-1.092.021-.335.017-.67.065-1.018.1a1.579 1.579 0 0 1-.018-.296ZM28.19 27.276c-.48.038-.957.061-1.454.07-.025-.108-.03-.2-.037-.292.105-.024.209-.065.314-.07.38-.02.762-.027 1.158-.039.018.105.021.21.02.331ZM20.047 27.453c-.183-.314-.486-.127-.733-.155-.166-.02-.34.012-.51.03-.065.008-.128.041-.208.05-.019-.117-.023-.22-.026-.323.128-.024.255-.06.384-.07.29-.02.58-.031.871-.036.063-.002.126.039.202.062.018.145.022.287.02.442ZM17.84 27.428l-1.455.036a1.973 1.973 0 0 1-.017-.33c.423-.039.844-.063 1.264-.083a.474.474 0 0 1 .184.047c.019.122.021.226.024.33ZM20.442 27.065c.428-.036.853-.056 1.278-.074.05-.002.1.015.163.023.016.106.018.21.017.331-.477.027-.95.039-1.439.05a1.757 1.757 0 0 1-.02-.33ZM30.794 26.684c.477-.038.95-.062 1.439-.085.019.094.02.188.02.296-.422.027-.84.038-1.259.052-.056.002-.112.02-.182.032a1.569 1.569 0 0 1-.018-.295Z"/><path d="M31.447 29.939a7.95 7.95 0 0 1 .581-.087c.062-.007.126-.002.205-.002.016.29.016.58.016.89a74.846 74.846 0 0 1-.802-.801ZM13.76 28.585c-.01-.117.085-.082.151-.082.671-.002 1.343 0 2.03.001-.038.018-.093.048-.149.049-.604.003-1.209.001-1.813.003-.068 0-.136.015-.219.03ZM15.97 28.5c-.013-.043-.015-.093-.018-.156V27.537l.001-.075c.016.015.045.03.045.044-.003.33-.01.659-.027.994ZM13.793 27.417a6.752 6.752 0 0 1-.055-.318.116.116 0 0 1 .063-.048c.004.116-.002.233-.008.366ZM5.646 27.414a4.052 4.052 0 0 1-.069-.28c.013-.015.026-.015.048-.016.014.094.017.187.021.296ZM7.853 29.11a1.047 1.047 0 0 1-.13-.175c.167-.052.132.069.13.175ZM9.7 26.04a.169.169 0 0 1-.04-.077.168.168 0 0 1 .04.077Z"/><path d="M15.943 27.456c.01.022.01.038.008.065-.022-.007-.043-.026-.066-.056.015-.013.031-.014.058-.009ZM30.785 27.023c.004.005-.001.01-.012.014-.003 0 .006-.011.012-.014ZM9.714 26.174c-.009.003-.013-.003-.019-.014.01-.007.017-.003.02.014ZM33.35 17.193H33.904c.141 0 .218.047.213.214-.012.35-.008.698-.003 1.048v.04c.002.109-.03.153-.146.152-.54-.005-1.081-.004-1.622 0-.107 0-.138-.043-.137-.144.003-.391.004-.782 0-1.173-.002-.107.04-.14.142-.139.236.003.471.003.713.002h.288ZM20.519 24.42h-.932c-.997 0-1.987-.001-2.977.004-.167 0-.212-.046-.212-.213a639.31 639.31 0 0 0 0-4.876c0-.171.053-.21.216-.21 1.081.005 2.163.004 3.244.004h1.096c.22 0 .222.003.222.223v.578c0 .47-.001.94.003 1.411.001.136-.038.18-.176.178a56.07 56.07 0 0 0-1.556 0c-.138.002-.183-.041-.177-.178.006-.119.005-.238.004-.357 0-.083-.002-.165 0-.248.002-.109-.041-.158-.153-.156-.219.004-.438.003-.657 0-.106-.002-.16.035-.16.15.002.703.003 1.406 0 2.11 0 .097.039.13.134.13.236-.005.473-.005.709 0 .1.001.129-.045.127-.137a11.996 11.996 0 0 1 0-.281c0-.12.001-.24-.003-.359-.004-.116.03-.164.155-.162.53.005 1.061.005 1.591 0 .118-.001.162.033.161.157a159.5 159.5 0 0 0 0 2.075c.001.12-.036.165-.158.16-.111-.007-.223-.005-.34-.004h-.001l-.16.001Z"/><path fill-rule="evenodd" clip-rule="evenodd" d="m26.919 21.148-.001.644v.625c0 .609.001 1.21-.002 1.812-.001.14.04.195.187.194a59.321 59.321 0 0 1 1.556 0c.153.002.2-.052.197-.201-.003-.266-.003-.531-.003-.797 0-.247.001-.494-.002-.742-.001-.127.037-.174.167-.168.19.009.381.012.57 0 .16-.012.205.042.204.202-.005.725-.004 1.451-.004 2.177v.953l.052-.03h.001c.023-.012.038-.02.051-.03l.472-.356c.405-.306.81-.611 1.219-.911a.309.309 0 0 0 .144-.285v-.062l-.002-.087c-.005-.44-.011-.881.005-1.32.01-.234-.099-.356-.274-.472-.16-.108-.314-.225-.476-.349l-.22-.167.237-.18c.18-.138.35-.268.525-.394.14-.102.213-.217.207-.403-.013-.489-.01-.98-.001-1.469.003-.162-.054-.207-.21-.206-1.47.005-2.94.005-4.409 0-.152-.001-.196.041-.194.194.005.607.004 1.214.004 1.828Zm2.866-.223V21c-.294.04-.578.053-.863.059-.019 0-.04-.033-.058-.058l-.003-.005-.003-.004c-.006-.009-.005-.023-.004-.037v-.131c-.001-.14-.002-.201.028-.227.024-.02.067-.02.144-.017.042.001.095.003.16.001.058-.001.115 0 .172.001a2.6 2.6 0 0 0 .26-.004c.144-.011.185.05.172.18-.005.056-.005.112-.005.167Z"/><path d="M14.91 22.969a189.44 189.44 0 0 0-.66 0c-.349 0-.689 0-1.03-.003-.053 0-.15-.017-.153-.036a1.08 1.08 0 0 1-.002-.358c.007-.031.136-.052.209-.053.583-.002 1.165-.002 1.748-.002h.638c.25 0 .258-.009.258-.248v-.309c-.001-.243-.002-.485.003-.728.002-.127-.036-.173-.166-.17-.213.006-.426.005-.64.004a44.998 44.998 0 0 0-.697-.001h-.001c-.401-.001-.803-.002-1.204.003-.128.001-.183-.04-.166-.168a.359.359 0 0 0 0-.103c-.03-.179.047-.222.22-.22.453.005.907.005 1.36.004.365 0 .73 0 1.095.003.151 0 .203-.05.199-.2a22.896 22.896 0 0 1 0-1.055c.003-.147-.04-.204-.196-.203-1.475.005-2.95.004-4.426 0-.145 0-.19.05-.19.192.004 1.637.004 3.274 0 4.911 0 .14.042.194.188.194 1.487-.004 2.974-.004 4.461 0 .117 0 .165-.03.163-.156-.007-.38-.006-.76 0-1.141.001-.12-.036-.162-.158-.16-.282.004-.564.004-.852.003ZM2.825 22.516a.862.862 0 0 0-.097.002l-.059.004c-.069.005-.147.01-.15.026-.02.123-.017.251-.001.375.003.022.107.043.165.043l.288.001c.728.003 1.456.006 2.184-.003.18-.002.225.052.219.224-.013.351-.009.703-.002 1.054.002.137-.05.18-.184.18-1.469-.003-2.938-.003-4.408 0-.147.001-.185-.057-.185-.195.003-1.636.003-3.272 0-4.909 0-.141.045-.192.189-.192 1.463.004 2.927.005 4.39 0 .153 0 .202.052.198.201-.008.346-.01.692 0 1.037.006.165-.045.222-.214.22-.819-.007-1.637-.005-2.455 0-.065 0-.183.037-.187.067a1.46 1.46 0 0 0 .015.389c.002.016.104.024.16.024l.43.001c.68.002 1.36.003 2.041-.004.169-.001.217.048.211.214-.012.35-.008.703-.001 1.054.003.143-.048.191-.19.19-.565-.003-1.13-.003-1.7-.002h-.656ZM35.633 24.42H39.219c.095 0 .184 0 .184-.135v-1.163l-.001-.93c0-.112-.054-.162-.173-.16-.541.003-1.083.003-1.625 0-.108-.001-.141.04-.139.143.003.104.002.207.002.31-.001.11-.002.22.001.33.003.107-.025.159-.144.155-.23-.007-.461-.005-.692 0-.095 0-.134-.032-.134-.13.002-.704.002-1.407 0-2.11 0-.114.052-.152.16-.15.218.004.437.004.656 0 .112-.002.155.047.154.156a11.3 11.3 0 0 0 0 .267c0 .119 0 .237-.004.356-.004.12.038.16.16.16a68.423 68.423 0 0 1 1.607 0c.141.002.176-.047.174-.18-.004-.473-.003-.946-.003-1.419v-.552c0-.223-.014-.239-.232-.239h-1.276c-1.033 0-2.066 0-3.099-.003-.148 0-.202.043-.202.197.004 1.637.004 3.274 0 4.911 0 .146.053.19.193.188.28-.004.56-.003.847-.003ZM7.337 24.42h1.098l2.018.001h.003c.098 0 .175 0 .174-.14-.005-.703-.004-1.406-.001-2.109 0-.104-.036-.141-.14-.14-.543.003-1.084.003-1.626 0-.106-.001-.142.038-.14.142.003.097.002.194.001.29 0 .117-.001.233.003.35.004.122-.042.16-.16.156a6.296 6.296 0 0 0-.623.002c-.158.01-.191-.05-.19-.198l.003-1.82c0-.546 0-1.092.002-1.638 0-.137-.03-.193-.18-.19-.513.008-1.026.006-1.54 0-.144-.001-.188.052-.188.193.004 1.642.004 3.285 0 4.927 0 .136.039.179.176.177.434-.005.869-.004 1.31-.003ZM21.662 19.688c.001-.121.003-.237-.004-.352-.01-.157.044-.212.206-.21.592.005 1.184.004 1.777.003H24.805c.484.001.967.002 1.45-.004.17-.002.22.056.215.22-.01.345-.008.692 0 1.037.003.149-.044.205-.198.202-.17-.005-.34-.004-.51-.003-.181.001-.363.002-.544-.003-.155-.005-.207.036-.206.2.003.56.003 1.12.003 1.68 0 .58 0 1.162.004 1.743.001.173-.04.228-.22.224-.494-.013-.99-.01-1.486-.001-.157.003-.205-.041-.204-.203.005-.878.004-1.755.003-2.633v-.772c0-.234 0-.235-.228-.235l-.27-.001c-.255-.001-.511-.002-.767.003-.146.003-.196-.051-.189-.192.006-.12.005-.24.003-.365v-.338ZM34.111 22.827v-1.249c0-.758 0-1.509.003-2.259 0-.14-.043-.194-.188-.193a62.58 62.58 0 0 1-1.556 0c-.135-.002-.163.05-.163.173.003 1.648.003 3.297 0 4.945 0 .133.033.181.174.18a55.668 55.668 0 0 1 1.556-.001c.135.002.18-.037.178-.176-.005-.47-.004-.94-.004-1.417v-.003ZM32.244 33.436c.002.082.003.158-.002.235-.013.193-.118.291-.31.295l-.04.001a3.002 3.002 0 0 1-.287-.002c-.19-.014-.334-.256-.25-.425.017-.035.095-.057.142-.053.043.004.113.047.118.08.02.137.107.13.19.123l.05-.003c.11 0 .11-.08.112-.157V33.512c.005-.229-.011-.248-.226-.273-.294-.033-.398-.147-.397-.44 0-.029 0-.058-.002-.087-.006-.161-.012-.325.19-.4a.673.673 0 0 1 .58.028c.146.083.15.24.122.385-.006.03-.089.062-.135.06-.044-.001-.122-.043-.123-.071-.008-.132-.082-.185-.192-.156-.062.016-.143.087-.154.145l-.002.01c-.02.101-.045.23.12.264a.891.891 0 0 1 .086.023c.038.012.076.023.114.028.173.02.268.116.295.3l.001.108ZM8.341 33.453c.03.216-.014.25-.284.219-.02-.338-.034-.667-.034-.997 0-.111.089-.13.186-.127.108.002.137.06.137.155 0 .122.08.122.16.122l.039.001c.108.004.109-.064.11-.137v-.014c.005-.23-.046-.332-.262-.382a1.052 1.052 0 0 0-.44.009c-.165.035-.239.16-.233.336.005.173.004.346.003.52l-.001.222c0 .567.047.611.608.587.166-.007.273-.088.307-.248a1.228 1.228 0 0 0 .017-.274c.002-.338 0-.34-.332-.305-.04.004-.1.041-.107.073-.008.031.016.072.038.108a.265.265 0 0 0 .046.065c.02.022.039.043.042.067ZM20.345 33.371v.318l.001.047v.073c-.01.103.046.126.136.125.088 0 .142-.018.14-.123v-.575c0-.264 0-.527-.004-.79 0-.045-.059-.13-.075-.126-.06.012-.136.042-.16.09a1.624 1.624 0 0 0-.1.25l-.036.1-.136.376-.003.007-.004.012-.067.183-.036-.076c-.018-.036-.03-.061-.04-.087l-.077-.225c-.058-.168-.116-.336-.182-.5-.017-.04-.061-.07-.106-.098-.02-.013-.041-.027-.059-.041-.01.017-.021.034-.034.05-.026.037-.052.074-.052.11-.004.272-.004.543-.004.814l-.001.517c0 .096.034.133.131.133s.153-.022.148-.134c-.005-.093-.003-.186-.002-.279v-.12l.047-.003.041.116c.035.098.07.197.11.292.015.033.043.06.07.087a.653.653 0 0 1 .038.037l.041-.037a.255.255 0 0 0 .076-.087c.043-.104.078-.21.113-.316l.041-.125.045.005ZM26.063 32.58c.118.002.236-.018.36-.041.036-.173-.033-.238-.19-.233a6.197 6.197 0 0 1-.432 0c-.117-.004-.166.042-.165.162.004.442.003.885 0 1.328 0 .09.024.14.126.138.184-.005.368-.004.552 0 .09.001.12-.037.121-.124 0-.09-.036-.125-.124-.122h-.005a1.76 1.76 0 0 1-.27-.002c-.042-.005-.11-.042-.112-.069a.953.953 0 0 1 .015-.339c.005-.016.045-.019.092-.022a.393.393 0 0 0 .127-.021c.037-.018.066-.055.095-.092.013-.017.026-.034.04-.048-.014-.01-.027-.023-.04-.036-.029-.027-.057-.055-.087-.057L26.154 33c-.123-.011-.184-.017-.213-.05-.03-.033-.03-.091-.028-.206v-.015c0-.113.039-.15.15-.149Z"/><path fill-rule="evenodd" clip-rule="evenodd" d="m14.588 33.894-.153-.59a6.258 6.258 0 0 1-.038-.146 20.387 20.387 0 0 1-.052-.19c-.05-.189-.1-.377-.164-.561-.017-.05-.125-.09-.19-.09-.049 0-.125.066-.14.116-.12.422-.232.847-.337 1.273l-.01.034c-.022.073-.049.164.076.188.119.024.217-.008.23-.158.009-.113.043-.196.188-.186l.035.002c.11.007.204.012.234.166.04.205.116.23.321.142Zm-.641-.816.002-.017.001-.003.002-.011.046-.197c.066.054.144.25.157.376a.33.33 0 0 1 .002.03c0 .028-.004.05-.013.064-.027.037-.104.051-.158.05-.022 0-.057-.066-.06-.105v-.003a.742.742 0 0 1 .015-.145l.006-.04Z"/></g><defs><clipPath id="a"><path fill="#fff" transform="translate(.562 .001)" d="M0 0h38.877v34H0z"/></clipPath></defs></svg>