<svg width="124" height="28" fill="none" xmlns="http://www.w3.org/2000/svg"><g clip-path="url(#a)"><path fill-rule="evenodd" clip-rule="evenodd" d="M47.396 3.9c-1.065 4.073-4.123 8.174-7.16 11.04-.014.01-.016.022-.005.033l.11.104c.048.051.099.055.154.011 3.192-2.42 5.677-5.444 7.456-9.075.768-1.565 1.707-3.717.203-5.16-1.016-.978-2.68-.824-3.723.01-.366.29-.76.503-1.185.642-.125.044-.158.125-.1.242l.067.132c.01.022.027.027.049.016 1.537-.692 2.813-.655 3.827.11a.75.75 0 0 1 .274.4c.15.506.161 1.004.033 1.494ZM14.172 22.731a.132.132 0 0 1-.069.026c-1.456.087-2.737-.21-3.843-.89a.483.483 0 0 1-.06-.774c.157-.135.278-.295.362-.478.1-.208.046-.261-.159-.159-.758.38-1.31.84-1.658 1.378a.615.615 0 0 0 .031.718.63.63 0 0 0 .194.166 9.29 9.29 0 0 0 3.173 1.049c6.171.87 12.134.884 17.888.038a23.611 23.611 0 0 0 6.215-1.79c1.075-.477 1.432-2.822 1.542-3.865.03-.282-.022-.298-.153-.05a17.136 17.136 0 0 0-.764 1.686c-.282.729-.596 1.16-.944 1.296-6.215 2.41-14.423 3.278-20.473-.198-4.826-2.772-7.456-9.295-7.126-14.834.093-1.581 1.328-2.937 2.91-2.987.992-.03 1.998.172 3.02.604 4.018 1.697 8.339 3.2 12.797 3.563 4.277.352 9.02-1.015 12.825-3.442.18-.114.302-.07.368.132.516 1.61.644 2.99.384 4.14-.278 1.23-.772 2.657-1.482 4.282-.03.066-.011.117.055.153l.153.083c.088.047.158.025.209-.066 1.285-2.339 1.87-4.683 1.757-7.033-.051-1.05-.328-2.094-.83-3.13-.12-.241-.288-.281-.504-.12-5.27 3.945-11.156 4.784-17.657 2.514-1.067-.373-2.14-.815-3.219-1.26-2.714-1.117-5.475-2.254-8.327-2.38-3.48-.148-4.079 2.85-3.914 5.666.351 5.946 3.146 11.299 7.318 15.768a.132.132 0 0 1-.02.194ZM56.834 10.57c1.683.186 2.816-.376 3.398-1.686a.374.374 0 0 1 .39-.247l.527.01c.154.008.2.081.137.22a231.303 231.303 0 0 0-1.921 4.502c-.128.3-.344.442-.648.423-.216-.01-.308-.124-.275-.34l.132-.9c.088-.593-.168-.89-.768-.89l-1.384-.005a.6.6 0 0 0-.593.384l-2.174 4.974a.182.182 0 0 0 .005.153.169.169 0 0 0 .121.089c3.302.567 5.727-.34 7.275-2.724.146-.226.35-.305.61-.236l.142.033a.252.252 0 0 1 .16.363l-1.79 3.442a.425.425 0 0 1-.407.247H49.488a.181.181 0 0 1-.181-.154l-.028-.164a.313.313 0 0 1 .074-.256.324.324 0 0 1 .245-.112c.966-.008 1.634-.427 2.004-1.258a615.211 615.211 0 0 0 4.535-10.403.573.573 0 0 0-.2-.697.587.587 0 0 0-.24-.1l-.648-.104c-.37-.062-.419-.223-.148-.483.055-.055.114-.102.176-.143a.731.731 0 0 1 .423-.131c3.03-.008 6.121-.008 9.273 0a.368.368 0 0 1 .34.505c-.359.922-.74 1.83-1.142 2.723-.143.318-.397.448-.763.39-.205-.033-.293-.152-.264-.357l.105-.72a1.18 1.18 0 0 0-1.131-1.345l-2.795-.098a.573.573 0 0 0-.593.367l-1.91 4.343c-.103.227-.031.355.214.384Zm48.209-1.72-.45.248a.535.535 0 0 1-.566-.005c-1.284-.733-2.527-.56-3.727.516-.934.84-.967 2.42-.313 3.491.085.14.192.303.309.48v.001h.001v.001c.815 1.236 2.131 3.23.069 3.921-.645.216-1.197.092-1.659-.373-.392-.392-.373-.885-.354-1.383a8.34 8.34 0 0 0 .009-.324.572.572 0 0 0-.357-.56.447.447 0 0 0-.28-.039.46.46 0 0 0-.357.324l-.944 2.855c-.074.212.001.333.225.362a.835.835 0 0 0 .67-.197c.332-.275.693-.308 1.081-.099 1.087.593 2.58.373 3.552-.274 2.46-1.659 1.719-3.838.165-5.76-.67-.834-.78-2.086.406-2.525a.65.65 0 0 1 .522.033c.783.417 1.094 1.198.933 2.344a.223.223 0 0 0 .014.123.224.224 0 0 0 .196.133.218.218 0 0 0 .119-.03l.22-.122a.928.928 0 0 0 .428-.521l.703-2.114c.227-.692.022-.86-.615-.505Zm7.099 3.185c-.132-.025-.234-.128-.307-.307a.36.36 0 0 1-.028-.22c.15-.801-.027-1.41-.532-1.828-.443-.366-.851-.33-1.225.11l-.159.192c-.41.483-.439.988-.088 1.515.079.118.164.242.253.371.912 1.33 2.21 3.223 1.114 4.719-1.328 1.815-3.04 2.27-5.133 1.367a.457.457 0 0 0-.533.099 1.079 1.079 0 0 1-.851.296c-.252-.018-.34-.148-.263-.39l.917-2.789a.498.498 0 0 1 .68-.304c.087.038.161.1.215.178a.788.788 0 0 1 .115.67c-.059.23-.057.466.005.708.577 2.245 4.113.977 2.954-1.164-.174-.32-.386-.647-.602-.981-.554-.856-1.136-1.755-1.188-2.703-.088-1.79 1.719-2.97 3.327-2.904.227.01.436.075.626.192.344.216.703.298 1.076.247a.918.918 0 0 0 .467-.209.7.7 0 0 1 .428-.175c.293-.022.399.108.319.39-.26.896-.568 1.76-.923 2.591-.124.282-.346.392-.664.33Zm11.161.598c.308-1.267.095-2.385-.593-3.108a2.64 2.64 0 0 0-1.315-.735c-.527-.127-1.125-.13-1.76-.008a6.713 6.713 0 0 0-1.937.719 8.724 8.724 0 0 0-1.819 1.337c-1.124 1.07-1.929 2.384-2.238 3.652-.308 1.267-.095 2.385.593 3.107.34.358.787.608 1.315.735.528.128 1.126.131 1.76.01a6.714 6.714 0 0 0 1.937-.72 8.759 8.759 0 0 0 1.82-1.337c1.124-1.07 1.928-2.384 2.237-3.652Zm-6.31 4.954c-.318.081-.595.058-.816-.07-.445-.257-.631-.92-.518-1.844.114-.923.518-2.031 1.124-3.08.3-.52.64-1.01 1.002-1.44a6.863 6.863 0 0 1 1.104-1.074c.368-.277.722-.462 1.04-.543.318-.081.596-.058.816.07.445.257.631.92.518 1.843-.114.924-.518 2.032-1.123 3.081-.3.52-.641 1.01-1.002 1.44a6.909 6.909 0 0 1-1.105 1.074c-.368.277-.721.462-1.04.543ZM70.175 9.334a1.96 1.96 0 0 1 .933-.29c.267-.019.357.098.27.35l-.907 2.56c-.066.19-.197.288-.395.296l-.241.01c-.216.011-.324-.09-.324-.307.003-.282.01-.562.022-.84.032-.856-.62-1.592-1.527-1.28a1.223 1.223 0 0 0-.61 1.851l.212.303c.97 1.38 2.332 3.321 1.112 4.93-1.292 1.697-2.954 2.13-4.985 1.295a.559.559 0 0 0-.494.022 2.253 2.253 0 0 1-.89.258c-.267.018-.358-.097-.274-.346l.917-2.729c.073-.22.225-.327.455-.323.074.003.145.014.215.032.19.052.281.176.274.374l-.01.215c-.032.593-.064 1.18.41 1.635.733.695 1.461.725 2.186.088 1.12-.98.418-2.062-.343-3.235-.832-1.283-1.735-2.674-.398-4.16 1.094-1.216 2.404-1.444 3.93-.687.162.08.316.073.462-.022Zm7.148.247c-.311.202-.613.408-.906.62-.27.198-.318.154-.142-.131.171-.282.24-.565.203-.851-.026-.198-.138-.282-.335-.253-1 .154-2.035.312-3.108.473a.464.464 0 0 0-.384.285c-.106.223-.037.35.209.379l.774.093a.335.335 0 0 1 .269.462c-1.464 3.356-3 6.866-4.607 10.53-.302.691-1.174.905-1.86 1.015a.12.12 0 0 0-.1.077l-.054.137a.285.285 0 0 0 .03.271.297.297 0 0 0 .244.13l4.667.006a.345.345 0 0 0 .302-.176c.095-.161.102-.31.022-.445-.11-.179-.267-.245-.472-.197-.308.07-.56-.006-.758-.225a.36.36 0 0 1-.06-.396l1.185-2.74c.103-.237.28-.323.533-.257.128.032.246.067.36.1.407.119.757.22 1.254.152a6.633 6.633 0 0 0 3.404-1.532c1.713-1.449 4.074-4.55 3.333-6.813-.577-1.746-2.702-1.56-4.003-.714Zm1.95 1.905c-.17.875-.46 1.732-.874 2.57-.774 1.57-3.146 4.886-5.09 3.437-.164-.125-.21-.282-.136-.472.971-2.52 2.091-5.31 4.545-6.666a1.06 1.06 0 0 1 1.554 1.131Zm7.034-.16c.894-.956 1.839-1.967 3.056-2.36a.862.862 0 0 1 1.045.468c.056.127.08.266.07.405-.059.765-.42 1.355-1.082 1.768-.549.344-.937.207-1.164-.412-.099-.27-.252-.307-.461-.11-2.16 2.032-3.704 4.309-4.634 6.83-.113.308-.333.462-.659.462l-1.147.01c-.322 0-.42-.146-.291-.439l3.228-7.346a.292.292 0 0 0-.03-.292.304.304 0 0 0-.272-.125c-.373.033-.626.02-.757-.038-.604-.267-.586-.485.054-.654 1.099-.285 2.191-.439 3.278-.46a.291.291 0 0 1 .258.439 13.573 13.573 0 0 0-.999 2.07c-.135.358-.071.398.192.12.105-.11.21-.222.315-.335Zm5.955 5.936c-1.065-.126-1.532-1.416-1.224-2.306a.873.873 0 0 1 .768-.593c2.147-.148 5.749-1.306 6.292-3.706a1.318 1.318 0 0 0-.928-1.564c-3.03-.857-6.105 1.608-7.593 4.095-1.224 2.043-1.52 5.403 1.812 5.375 1.9-.014 3.589-.823 5.067-2.426.041-.043.064-.1.063-.16a.234.234 0 0 0-.068-.159l-.209-.208c-.04-.04-.082-.044-.126-.011-.878.651-1.696 1.143-2.454 1.477-.417.186-.884.248-1.4.186Zm-.45-3.629c-.348.066-.438-.057-.27-.368 1.018-1.87 2.072-2.959 3.163-3.266 1.596-.447 1.942.045 1.038 1.476-.67 1.066-1.98 1.785-3.931 2.158ZM2.437 21.715c-.344.633-.21 1.142.4 1.526 2.866 1.817 7.297 2.35 10.553 2.685 8.791.893 17.144.572 25.057-.961 2.46-.478 8.878-1.999 9.784-4.755a.632.632 0 0 0-.072-.554c-.557-.863-1.8-1.562-2.838-2.146-.21-.119-.413-.232-.599-.341-.344-.202-.322-.255.066-.16 1.314.323 2.577.866 3.788 1.631.897.567 1.247 1.288 1.05 2.163-.544 2.41-7.012 4.2-9.115 4.667-8.125 1.815-16.509 2.507-25.15 2.075-3.704-.187-7.178-.703-10.42-1.548a12.899 12.899 0 0 1-3.092-1.268C.4 23.916.098 22.198 1.4 21.127a12.038 12.038 0 0 1 2.624-1.63c1.19-.535 1.252-.425.187.329-.805.567-1.396 1.197-1.773 1.889Zm77.796-1.274c-1.603-.362-2.619 1.56-1.087 2.591.285.194.262.34-.072.44a.545.545 0 0 1-.257.016c-.293-.044-.372.066-.237.33.085.168.22.287.407.356 1.054.4 1.874.273 2.46-.378a.717.717 0 0 0 .18-.478l.011-2.443c0-.224-.11-.332-.329-.324a4.168 4.168 0 0 1-1.076-.11Zm.353.959c.138.12.214.281.212.449a.588.588 0 0 1-.221.444.811.811 0 0 1-.526.18.812.812 0 0 1-.523-.191.588.588 0 0 1-.212-.449.588.588 0 0 1 .222-.444.811.811 0 0 1 .526-.18c.196.003.384.071.522.191Zm10.517 1.407a.515.515 0 0 1-.521.51l-1.394-.005a1.45 1.45 0 0 1-1.007-.413 1.362 1.362 0 0 1-.41-.981v-.099c.001-.182.04-.361.113-.529.073-.167.18-.319.313-.446a1.465 1.465 0 0 1 1.013-.397l1.394.005a.516.516 0 0 1 .51.522l-.01 1.833Zm-.96-.938a.697.697 0 1 0-1.395 0 .697.697 0 0 0 1.395 0Zm20.868 1.29c.274-.14.313-.332.115-.577-.175-.216-.124-.304.154-.264.256.033.346-.274.269-.922a.888.888 0 0 0-.318-.576c-.84-.692-2.032-.637-2.614.313-.983 1.603 1.016 2.723 2.394 2.025Zm-1.137-1.368c.081.019.132.053.154.105a.347.347 0 0 0 .209.208c.055.019.113.033.176.044.194.033.203.093.027.181l-.423.22c-.19.099-.311.044-.362-.165a1.24 1.24 0 0 1-.028-.417c.015-.157.097-.216.247-.176Zm-10.876-.576c-.483.314-.63.854-.439 1.62.07.274-.038.418-.324.433l-.192.006c-.241.01-.362-.105-.362-.346v-2.043c0-.175.088-.272.263-.29l1.378-.149c.183-.018.36.01.533.082.417.187.838.165 1.263-.065a.875.875 0 0 1 1.171.322c.077.128.12.274.124.424l.05 1.801c.007.234-.105.326-.335.275l-.45-.1a.236.236 0 0 1-.156-.116.247.247 0 0 1-.02-.196c.165-.53.143-1.025-.066-1.483a.452.452 0 0 0-.505-.264.456.456 0 0 0-.368.435l-.049 1.389a.328.328 0 0 1-.319.318l-.181.006c-.245.007-.368-.112-.368-.357l-.016-1.367a.406.406 0 0 0-.632-.335Zm19.277.582c.296.066.477.225.543.477.051.198-.022.268-.22.21a5.664 5.664 0 0 0-.137-.034.48.48 0 0 0-.34.06.47.47 0 0 0-.242.335c-.04.202.037.332.231.39.735.224 1.277.16 1.625-.192.461-.468.386-.897-.225-1.285-.392-.248-.363-.426.088-.532.249-.059.313-.236.192-.533a.5.5 0 0 0-.467-.302c-.951.022-1.444.302-1.477.84-.018.308.125.496.429.566Z" fill="#fff"/></g><defs><clipPath id="a"><path fill="#fff" transform="translate(.51 .001)" d="M0 0h122.98v28H0z"/></clipPath></defs></svg>