<svg width="98" height="32" fill="none" xmlns="http://www.w3.org/2000/svg"><path fill-rule="evenodd" clip-rule="evenodd" d="M61.322 3.4a1.739 1.739 0 0 1-.016-.211c-.036 0-.062-.005-.082-.009-.03-.005-.047-.009-.064.009-.33 0-.658-.002-.984-.004-.974-.005-1.937-.01-2.898.033-1.051.03-1.956.905-2.248 1.897-.234.789-.205 1.635.058 2.452.35 1.139 1.343 1.898 2.51 1.927h3.766c.964 0 1.694-.438 2.19-1.226.32-.525.496-1.11.496-1.751 0-.672.007-1.343.015-2.015.007-.671.014-1.342.014-2.014 0-.233 0-.467-.087-.642a2.767 2.767 0 0 0-.497-.788C62.882.328 62.123.007 61.19.007h-3.94c-.35 0-.38.029-.38.38v1.605c0 .321.03.35.35.35h3.97c.642 0 .964.263.964.905.019.66.013 1.308.006 1.96v.003c-.003.327-.006.655-.006.985 0 .176-.059.35-.117.497-.175.35-.497.438-.847.438h-3.357c-.117 0-.263-.03-.409-.059-.32-.087-.613-.438-.613-.73 0-.437.322-.817.789-.875h3.415c.263 0 .292-.03.321-.292V3.568c0-.055-.006-.11-.013-.168ZM79.317.065c.044 0 .095-.007.146-.014.051-.008.102-.015.146-.015h4.116c1.11 0 1.927.526 2.481 1.46.176.32.292.642.263.992l.003.876c.004 1.168.009 2.335-.061 3.503-.059 1.08-.613 1.985-1.693 2.423a2.094 2.094 0 0 1-.847.175c-.855.02-1.697.013-2.544.006-.425-.003-.85-.006-1.28-.006-1.168 0-2.131-.73-2.51-1.81-.292-.846-.35-1.722-.088-2.598.321-1.022 1.284-1.897 2.394-1.897h3.649c.026 0 .052.006.081.012.035.008.075.017.123.017.03.117.03.233.03.38v1.634c-.03.234-.06.234-.293.234H79.96c-.496.058-.846.554-.73 1.021.088.292.263.526.585.613.145.03.32.059.467.059h3.21c.672 0 1.052-.205 1.052-1.022v-2.54c0-.07-.007-.139-.014-.212v-.001c-.008-.08-.016-.163-.016-.254 0-.38-.292-.73-.759-.759H79.58c-.292 0-.321-.029-.35-.292V.27c.029-.059.058-.117.087-.205ZM26.244 11.65c.009.184.018.37.032.557.03.467.03.934.03 1.401 0 1.197 0 2.365-.03 3.562 0 .467 0 .963-.087 1.43a3.174 3.174 0 0 1-1.051 1.927c-.555.525-1.139.963-1.898 1.168-.496.145-.963.262-1.488.262h-7.59c-.088 0-.205 0-.322-.029a1.74 1.74 0 0 0-.015-.211c-.007-.058-.014-.113-.014-.168v-2.394c0-.234.03-.263.292-.263.453 0 .912.007 1.372.015.46.007.92.014 1.372.014h4.612c.35 0 .701-.029.993-.262.146-.117.292-.263.35-.438.146-.321.175-.672.175-1.051 0-.19.015-.372.03-.555.014-.182.029-.365.029-.554 0-.54-.007-1.08-.015-1.62-.007-.54-.014-1.08-.014-1.62.029-.993-.672-1.49-1.518-1.49-1.263.02-2.526.014-3.797.007a372.06 372.06 0 0 0-1.925-.006c-.233 0-.467.029-.671.087-.526.146-.818.525-.905 1.05-.03.147.029.293.087.439.026.1.094.201.15.283l.026.038c.262.467.7.613 1.196.613.779.02 1.557.013 2.336.006.389-.003.778-.006 1.167-.006h2.452v3.415a.342.342 0 0 0-.106.017c-.022.007-.042.012-.069.012h-6.072a4.097 4.097 0 0 1-2.452-.788c-.759-.554-1.284-1.255-1.576-2.16-.292-.905-.409-1.81-.233-2.773v-.146c.029-.234.058-.292.292-.292.788-.087 1.517-.38 2.189-.788a6.138 6.138 0 0 0 2.16-2.248c.117-.175.234-.263.438-.263h5.108c.38 0 .76 0 1.11.03.554.058 1.109.175 1.605.438.172.102.348.187.523.272.272.131.542.262.79.457.013.012.065.075.126.147.087.103.19.228.225.262l.35.555c.176.55.203 1.099.23 1.66Zm30.683 3.478v6.714c0 .176-.058.234-.233.234h-1.547c-.176 0-.263-.088-.263-.263V14.02c0-.204.029-.409.058-.613a.942.942 0 0 1 .934-.759h3.737c.525 0 1.022.175 1.46.467.029.015.065.037.102.059.036.021.073.043.102.058h.058v-.38c0-.146.059-.233.204-.233.227 0 .453-.002.68-.004a27.04 27.04 0 0 1 2.006.033c.993.059 1.78.526 2.306 1.401.292.497.35 1.051.35 1.577.02.797.014 1.58.007 2.369-.003.395-.006.792-.006 1.192v2.452c0 .088 0 .175-.03.234-.029.058-.087.146-.146.146h-1.868V16.88c0-.35 0-.7-.029-1.051 0-.496-.263-.759-.73-.759h-1.605c-.03 0-.059.007-.088.015a.366.366 0 0 1-.088.014v6.89c-.043 0-.087.007-.13.014-.045.007-.088.015-.132.015h-1.489c-.26 0-.263-.029-.29-.254l-.002-.01v-.846c0-1.693 0-3.386-.03-5.079 0-.438-.233-.73-.67-.73-.789.03-1.694.03-2.628.03Zm-9.429 6.945H51.673c.146 0 .262-.03.38-.058.788-.234 1.313-.73 1.663-1.46.263-.555.321-1.139.35-1.752.03-.934.03-1.839.03-2.773 0-.268-.025-.524-.051-.783v-.001c-.013-.136-.027-.272-.037-.413a.933.933 0 0 0-.088-.408c-.583-1.11-1.459-1.752-2.744-1.752h-3.97c-.35 0-.379 0-.379.35v1.665c0 .32.03.35.35.35h4c.613-.03.934.32.934.905 0 .33.003.658.006.984v.007c.007.649.013 1.288-.006 1.928-.03.555-.321.934-.964.934h-3.619c-.41-.058-.818-.496-.76-.876.059-.467.35-.788.847-.788H50.943c.263 0 .321-.03.321-.321v-1.722c0-.263-.058-.292-.292-.292h-3.474c-1.284-.03-2.422 1.05-2.627 2.218-.014.073-.014.146-.014.22 0 .072 0 .145-.015.218-.088.672-.03 1.314.233 1.956.38.963 1.343 1.693 2.423 1.664Zm-4.29-8.579a.61.61 0 0 1 .116.176c.38.438.526.963.555 1.518 0 .087.014.182.029.277.014.095.029.19.029.277 0 .232.002.466.004.701v.002c.005.71.01 1.427-.033 2.129-.03.554-.059 1.109-.205 1.664-.262.963-.904 1.576-1.868 1.839a3.743 3.743 0 0 1-.54.064 6.99 6.99 0 0 0-.277.023h-4c-.029 0-.087 0-.175-.029 0-.04-.006-.081-.013-.125a1.049 1.049 0 0 1-.016-.167v-1.78c0-.176.03-.205.263-.205.38 0 .759.008 1.139.015.379.007.758.014 1.138.014h1.489c.116 0 .233 0 .35-.029.438-.058.555-.233.671-.671.194-.84.166-1.678.137-2.517-.01-.3-.02-.6-.02-.899 0-.467-.32-.817-.846-.817h-3.62c-.467 0-.76.233-.818.613-.087.555.292.992.876 1.022h3.007c.555 0 .555 0 .555.554v1.402c0 .262-.03.32-.322.32h-3.269c-.613 0-1.226-.116-1.722-.525-.497-.408-.847-.934-.993-1.547-.204-.817-.146-1.605 0-2.423.069-.34.243-.576.44-.842h.001c.056-.076.114-.154.172-.238l.117-.117a.516.516 0 0 1 .12-.069l.005-.002a.24.24 0 0 0 .05-.045.496.496 0 0 1 .134-.056c.05-.016.098-.03.129-.061.47-.247.688-.243 1.097-.236l.246.002h3.94c.672 0 1.227.263 1.694.7.029.015.05.037.073.06.022.021.044.043.073.058l.087-.03Zm38.776-.413c-.133.062-.27.127-.42.238l-.145.263c-.175.263-.263.525-.35.847a4.524 4.524 0 0 0 0 2.335c.262.963.846 1.693 1.868 1.956.321.058.642.087.963.087h3.095c.04 0 .087-.006.137-.013.058-.008.121-.016.184-.016v-1.956c.014-.146.022-.219-.011-.255-.033-.037-.106-.037-.252-.037H83.93c-.176 0-.35-.029-.526-.087-.35-.088-.467-.38-.525-.672-.059-.32.058-.584.35-.73.175-.058.38-.116.584-.116H87.403c.409.058.73.38.73.788.006.22.014.437.023.655.032.852.064 1.69-.052 2.527-.03.175-.088.38-.146.555-.117.291-.409.379-.7.379H83.17c-.117 0-.176.058-.176.204v1.84c0 .13 0 .196.033.23.033.032.099.032.23.032h2.044c.393-.015.788-.022 1.182-.03.394-.006.788-.014 1.182-.028.759-.059 1.343-.438 1.81-1.051.438-.555.555-1.226.584-1.927.029-1.197.058-2.393.029-3.59 0-.584-.088-1.197-.467-1.694-.496-.67-1.11-1.138-1.956-1.167-.934-.02-1.868-.013-2.802-.007-.468.004-.934.007-1.402.007-.438 0-.875.117-1.255.321a3.019 3.019 0 0 1-.223.112ZM32.552.036h1.81c1.139 0 1.985.526 2.57 1.489.116.204.203.438.233.671.087.7.116 1.401-.088 2.102-.321 1.168-1.255 2.043-2.598 2.043h-3.328c-.292 0-.32-.029-.32-.35V4.356c0-.291.028-.32.32-.32H34.45c.613 0 .846-.439.846-.847 0-.467-.35-.818-.875-.818h-3.504c-.583 0-.904.322-.934.935-.029.875-.029 1.722-.029 2.597v.112c-.005.22-.008.423.117.648.117.233.263.408.525.467.146.029.322.058.468.058h3.065c.32 0 .32 0 .35.321v1.635c0 .35-.03.35-.35.35H30.83c-1.11 0-2.043-.642-2.481-1.664-.205-.496-.263-1.021-.292-1.547-.03-1.05-.03-2.073 0-3.123 0-.76.175-1.49.7-2.102.555-.613 1.197-.993 2.044-.964.555-.058 1.168-.058 1.751-.058Zm32.666 8.816v.613c.117 0 .204 0 .233.059h5.109c.263 0 .525-.03.759-.088 1.343-.35 1.926-1.314 2.072-2.365.044-.371.039-.759.033-1.15v-.005c-.002-.13-.004-.261-.004-.392l-.003-.027c-.028-.226-.06-.478-.172-.703-.584-1.138-1.46-1.722-2.773-1.693-.642.02-1.284.013-1.926.007-.322-.003-.643-.007-.964-.007a.487.487 0 0 0-.062.006c-.049.007-.102.014-.142-.006-.117-.029-.234-.087-.234-.233-.029-.146.03-.263.175-.292.147-.03.263-.03.41-.03h4.466c.291 0 .32-.028.32-.32V.416c0-.04-.006-.081-.012-.125a1.047 1.047 0 0 1-.017-.167c-.043 0-.095-.007-.146-.015a1.095 1.095 0 0 0-.145-.014H67.64c-.292 0-.613.029-.876.116-.76.234-1.314.76-1.547 1.548a3.412 3.412 0 0 0 .117 2.218c.379.876 1.021 1.43 2.014 1.46 1.05.029 2.072.029 3.123.029.038 0 .079-.003.121-.006.088-.007.18-.014.259.006.38.058.554.233.642.642.058.321-.088.7-.35.817-.176.088-.38.117-.555.117h-1.372c-.628 0-1.248-.007-1.868-.014-.62-.008-1.241-.015-1.869-.015-.233 0-.262.03-.262.204v1.635Zm24.258-6.335c0 .059-.007.11-.015.16a1.093 1.093 0 0 0-.014.161c0 2.073 0 4.117-.03 6.19 0 .072-.007.145-.014.218-.007.073-.015.146-.015.219h-1.985c0-.063-.008-.117-.016-.167-.007-.044-.013-.084-.013-.125v-7.94c0-.146 0-.263.03-.409a.962.962 0 0 1 .817-.759c.043 0 .094-.007.146-.014.05-.008.102-.015.146-.015h4.29c1.256 0 2.307.467 3.095 1.46.496.584.759 1.284.759 2.043v5.75c0 .06 0 .088-.03.176-.028 0-.058.007-.087.015-.029.007-.058.014-.087.014h-1.577c-.175 0-.262-.058-.262-.233V4.21c0-.817-.613-1.663-1.635-1.693-.76-.02-1.533-.013-2.302-.006-.383.003-.764.006-1.143.006.03-.029 0-.029-.058 0ZM72.734 16.861c.008-.57.015-1.138.015-1.708.059 0 .088-.029.059-.087.4 0 .796-.003 1.192-.007.788-.006 1.572-.013 2.369.007.233 0 .438.087.642.175.672.35.934.934.934 1.635 0 .51.008 1.028.015 1.545v.002c.007.518.014 1.036.014 1.547v1.78c0 .234.03.264.263.264h1.46c.233 0 .262-.03.292-.263v-.175c0-.92-.008-1.847-.015-2.774-.007-.926-.015-1.853-.015-2.773 0-.554-.175-1.08-.467-1.547-.759-1.197-1.897-1.81-3.328-1.839h-4.407c-.497 0-.905.321-.993.788l-.01.068a3.453 3.453 0 0 0-.048.516v7.735c0 .264.058.322.32.322h1.46c.044 0 .08-.008.117-.015a.567.567 0 0 1 .117-.014v-3.474c0-.57.007-1.139.014-1.708ZM40.084.065v.438c0 .535-.004 1.066-.007 1.597v.004c-.006 1.061-.013 2.117.007 3.187 0 .73.35 1.342 1.08 1.634.233.088.496.117.759.117h3.036c.175 0 .262 0 .306-.044.044-.044.044-.131.044-.306V6.69c0-2.043 0-4.116-.03-6.159 0-.496 0-.496.497-.496.219 0 .43-.007.642-.015.212-.007.424-.014.642-.014.234 0 .263 0 .263.263v2.014c0 1.926 0 3.824-.029 5.75l.001.138c.004.268.007.518-.118.767-.175.35-.467.555-.876.555h-4.583c-1.4 0-2.744-.905-3.298-2.19-.263-.641-.409-1.284-.409-1.955-.03-1.605-.03-3.24-.03-4.845 0-.439 0-.439.468-.41.467 0 .934 0 1.401.03.068-.068.1-.066.166-.062.02.002.041.003.068.003Zm8.524 9.4h1.81c0-.146 0-.263-.03-.38V3.247c.03-.438.234-.7.672-.759.146-.03.292-.03.438-.03h3.94c.161 0 .241 0 .281-.04.04-.04.04-.12.04-.28V.27c0-.234 0-.263-.262-.263-.7 0-1.401.007-2.102.014-.7.008-1.401.015-2.102.015-.408 0-.788.058-1.167.234-.818.379-1.43.992-1.635 1.897-.088.35-.117.7-.117 1.05v5.81c0 .044.007.088.015.131a.804.804 0 0 1 .014.132c.03.117.088.175.205.175Zm25.717 0v-9.4c.044 0 .08-.007.117-.014a.567.567 0 0 1 .117-.015h1.518c.234 0 .263 0 .263.234v8.874c-.03.263-.059.292-.322.321H74.326Zm-6.538 3.178v9.429c.583 0 1.109 0 1.634-.03.35 0 .38-.029.38-.379v-8.845c0-.117-.059-.175-.175-.175h-1.84ZM9.549 10.866h.292s.292-.059.292.262v2.657s.03.233-.292.233H2.952S.5 13.726.5 10.486V3.013S.53.62 4.674.62c4.146 0 8.232.059 8.232.059s2.774.117 2.774 1.868v3.036s.204 4.145-4.554 4.145H5.287s-.233.059-.233-.233V6.516s-.03-.321.292-.321h6.042s1.051 0 1.051-1.11c0-1.109-1.08-1.313-1.08-1.313H4.908S3.71 3.89 3.71 5.436v4.495s-.03.935 1.051.935h4.787ZM80.143 26.74c.174.078.315.184.421.32l.792-.835a2.284 2.284 0 0 0-.8-.472 2.639 2.639 0 0 0-1.604-.066 1.91 1.91 0 0 0-.639.284c-.189.13-.341.297-.457.5a1.455 1.455 0 0 0-.175.734c0 .232.037.43.11.595.077.16.176.298.297.414.126.112.266.204.421.276.16.073.322.136.487.189.17.053.32.104.45.152.135.044.247.095.334.153a.658.658 0 0 1 .21.182c.049.067.073.15.073.246a.55.55 0 0 1-.058.262.46.46 0 0 1-.16.174.63.63 0 0 1-.225.095c-.087.019-.177.029-.269.029-.203 0-.409-.051-.617-.153a1.552 1.552 0 0 1-.493-.392l-.814.828c.228.237.513.42.857.552.344.125.7.188 1.067.188.252 0 .497-.034.734-.101.237-.068.448-.172.632-.313a1.5 1.5 0 0 0 .435-.53c.112-.217.167-.474.167-.77 0-.256-.05-.469-.152-.638a1.452 1.452 0 0 0-.385-.436 1.957 1.957 0 0 0-.516-.276c-.188-.072-.37-.138-.544-.196-.121-.039-.23-.075-.327-.109a1.774 1.774 0 0 1-.254-.123.538.538 0 0 1-.16-.153.428.428 0 0 1-.05-.218c0-.101.021-.184.065-.246a.546.546 0 0 1 .174-.16.608.608 0 0 1 .225-.087 1.127 1.127 0 0 1 .748.102Zm-8.706.045v4.081h-1.242v-4.08h-1.452v-1.06h4.146v1.06h-1.452Zm-7.443 2.609c.14-.339.21-.712.21-1.118 0-.412-.07-.782-.21-1.111a2.41 2.41 0 0 0-.588-.85 2.56 2.56 0 0 0-.886-.537 3.227 3.227 0 0 0-1.119-.19c-.402 0-.774.064-1.118.19a2.652 2.652 0 0 0-.886.537c-.247.232-.44.516-.58.85-.141.329-.211.7-.211 1.11 0 .407.07.78.21 1.119.14.334.334.622.581.864.252.237.547.421.886.552.344.13.716.196 1.118.196a3.12 3.12 0 0 0 1.119-.196c.343-.13.639-.315.886-.552a2.56 2.56 0 0 0 .588-.864Zm-1.227-1.743c.072.194.108.402.108.625 0 .232-.036.447-.108.646a1.462 1.462 0 0 1-.77.835c-.18.077-.378.116-.596.116-.218 0-.416-.039-.595-.116a1.462 1.462 0 0 1-.465-.334 1.564 1.564 0 0 1-.297-.501 1.865 1.865 0 0 1-.11-.646c0-.223.034-.431.102-.625a1.418 1.418 0 0 1 .77-.82 1.41 1.41 0 0 1 .595-.124c.218 0 .417.041.596.124.184.077.339.186.465.326.13.136.232.3.304.494Zm-11.938 3.215v-5.14h1.249v4.058h1.99v1.082h-3.24Zm-5.751-4.126c.174.078.314.184.42.32l.792-.835a2.283 2.283 0 0 0-.798-.472 2.638 2.638 0 0 0-1.605-.066 1.91 1.91 0 0 0-.64.284c-.188.13-.34.297-.457.5a1.455 1.455 0 0 0-.174.734c0 .232.036.43.109.595.078.16.177.298.298.414.126.112.266.204.42.276.16.073.323.136.487.189.17.053.32.104.45.152.136.044.247.095.335.153a.659.659 0 0 1 .21.182c.049.067.073.15.073.246a.55.55 0 0 1-.058.262.462.462 0 0 1-.16.174.63.63 0 0 1-.225.095c-.087.019-.177.029-.269.029a1.4 1.4 0 0 1-.617-.153 1.555 1.555 0 0 1-.494-.392l-.813.828c.227.237.513.42.857.552.343.125.7.188 1.067.188.252 0 .496-.034.734-.101.237-.068.447-.172.631-.313.184-.14.33-.317.436-.53.111-.217.167-.474.167-.77 0-.256-.05-.469-.152-.638a1.454 1.454 0 0 0-.385-.436 1.956 1.956 0 0 0-.516-.276c-.189-.072-.37-.138-.544-.196-.121-.039-.23-.075-.327-.109a1.774 1.774 0 0 1-.254-.123.537.537 0 0 1-.16-.153.427.427 0 0 1-.05-.218c0-.101.02-.184.064-.246a.546.546 0 0 1 .175-.16.608.608 0 0 1 .225-.087c.087-.015.172-.022.254-.022.16 0 .324.04.494.123Z" fill="#fff"/></svg>