<svg width="122" height="28" fill="none" xmlns="http://www.w3.org/2000/svg"><g clip-path="url(#a)"><path fill-rule="evenodd" clip-rule="evenodd" d="M77.084 4.022c0 .097.01.185.02.267.009.073.017.143.017.213V6.53c-.037.332-.074.369-.406.369H72.4c-.59.073-.996.553-.996 1.106 0 .37.369.812.775.923.184.036.369.073.516.073h4.243c.442 0 .848-.11 1.07-.553.073-.185.147-.406.147-.627 0-.418.004-.831.008-1.244v-.005c.008-.824.017-1.643-.008-2.477 0-.812-.406-1.144-1.217-1.144H71.92c-.406 0-.443-.037-.443-.442V.48c0-.442.037-.479.48-.479h4.98c1.18 0 2.14.406 2.914 1.328.258.295.48.627.627.996.11.221.11.517.11.812 0 .848-.008 1.697-.018 2.545v.002c-.009.848-.018 1.696-.018 2.544 0 .811-.221 1.549-.627 2.213-.627.996-1.55 1.55-2.767 1.55H72.4c-1.475-.037-2.73-.997-3.172-2.435-.332-1.033-.37-2.103-.074-3.1.369-1.253 1.512-2.36 2.84-2.397 1.216-.055 2.432-.048 3.663-.042.413.003.827.005 1.244.005.022-.022.044-.018.08-.01.026.004.06.01.104.01ZM100.03.056c-.064.01-.129.019-.184.019-.037.11-.074.184-.11.258v2.25c.036.332.073.37.442.37H105.453c.59.036.959.479.959.958 0 .116.01.221.02.322.009.092.017.18.017.268v3.21c0 1.033-.479 1.291-1.328 1.291h-4.058c-.184 0-.406-.037-.59-.074-.406-.11-.627-.405-.738-.774-.147-.59.295-1.218.922-1.292H105.047c.296 0 .332 0 .369-.295V4.501c0-.184 0-.332-.037-.48-.06 0-.11-.01-.155-.02a.474.474 0 0 0-.103-.016h-4.611c-1.402 0-2.62 1.107-3.025 2.398-.332 1.107-.258 2.213.11 3.283.48 1.365 1.698 2.287 3.173 2.287.543 0 1.081.005 1.618.009 1.07.008 2.134.016 3.215-.009.369 0 .738-.073 1.07-.22 1.365-.554 2.065-1.698 2.139-3.063.089-1.476.083-2.951.077-4.427l-.003-1.106c.037-.443-.111-.849-.332-1.255-.701-1.18-1.734-1.844-3.136-1.844h-5.201c-.056 0-.12.009-.185.018Zm-67.256 14.66c-.034-.71-.068-1.404-.29-2.098l-.443-.701a9.147 9.147 0 0 1-.284-.33v-.001a6.682 6.682 0 0 0-.159-.186c-.314-.247-.656-.412-1-.578-.22-.107-.443-.214-.66-.344-.627-.332-1.328-.48-2.029-.554-.443-.036-.922-.036-1.402-.036h-6.456c-.258 0-.405.11-.553.332a7.757 7.757 0 0 1-2.73 2.84c-.848.517-1.77.886-2.767.996-.295 0-.332.074-.369.37v.184c-.221 1.217-.073 2.36.296 3.504.368 1.144 1.032 2.03 1.992 2.73a5.177 5.177 0 0 0 3.098.996h7.674c.033 0 .058-.007.087-.015.035-.01.073-.022.134-.022v-4.316H23.814c-.492 0-.983.004-1.475.008-.984.008-1.968.017-2.952-.008-.627 0-1.18-.184-1.512-.775l-.032-.047c-.071-.104-.158-.231-.19-.358-.073-.185-.147-.37-.11-.554.11-.664.48-1.143 1.143-1.328.259-.074.554-.11.849-.11.814 0 1.625.004 2.432.008 1.607.008 3.203.016 4.799-.008 1.07 0 1.955.627 1.918 1.88 0 .683.009 1.366.018 2.048.01.683.019 1.365.019 2.048 0 .24-.019.47-.037.7-.019.231-.037.462-.037.702 0 .48-.037.922-.221 1.328-.074.221-.259.405-.443.553-.37.295-.812.332-1.254.332h-5.83c-.57 0-1.152-.01-1.733-.018-.581-.01-1.162-.019-1.734-.019-.332 0-.369.037-.369.332v3.025c0 .07.008.14.017.213.01.082.02.17.02.267.148.037.295.037.406.037h9.591c.665 0 1.255-.148 1.882-.332.959-.259 1.697-.812 2.398-1.476.738-.664 1.18-1.476 1.328-2.435.11-.59.11-1.217.11-1.807.037-1.513.037-2.989.037-4.501 0-.59 0-1.18-.036-1.77-.019-.238-.03-.472-.042-.705Zm38.777 5.685v-1.29c1.18 0 2.324 0 3.32-.038.553 0 .848.37.848.923.037 2.14.037 4.279.037 6.419v1.07l.002.011c.035.285.04.32.367.32h1.882c.055 0 .11-.009.166-.018.055-.01.11-.018.166-.018v-8.707c.037 0 .073-.009.11-.018a.463.463 0 0 1 .11-.018h2.03c.59 0 .922.332.922.959.037.442.037.885.037 1.328v6.493h2.361c.074 0 .148-.111.184-.185.037-.074.037-.184.037-.295v-3.099c0-.505.005-1.007.009-1.507.008-.996.016-1.987-.009-2.994 0-.664-.073-1.365-.442-1.992-.664-1.106-1.66-1.697-2.915-1.77-.83-.056-1.68-.049-2.535-.042-.286.002-.572.005-.859.005-.184 0-.258.11-.258.295v.48h-.074a2.147 2.147 0 0 1-.129-.074 2.147 2.147 0 0 0-.129-.074c-.553-.37-1.18-.59-1.844-.59h-4.722c-.59 0-1.07.405-1.18.959a5.502 5.502 0 0 0-.075.774v9.85c0 .222.111.332.332.332h1.956c.22 0 .295-.074.295-.295v-7.194Zm-9.481 7.49h-2.435c-1.365.036-2.582-.886-3.062-2.103-.332-.812-.406-1.623-.295-2.472.018-.092.018-.184.018-.277 0-.092 0-.184.019-.276.258-1.476 1.697-2.84 3.32-2.804h4.39c.295 0 .369.037.369.369v2.176c0 .37-.074.406-.406.406h-4.205c-.627 0-.997.406-1.07.996-.074.48.443 1.033.959 1.107h4.574c.812 0 1.18-.48 1.218-1.18.024-.81.016-1.618.008-2.437v-.001c-.004-.414-.008-.83-.008-1.252 0-.737-.406-1.18-1.18-1.143h-5.055c-.406 0-.443-.037-.443-.443v-2.103c0-.442.037-.442.48-.442h5.017c1.623 0 2.73.811 3.468 2.213.074.148.11.332.11.517.013.177.03.35.047.522.032.328.064.651.064.99 0 1.18 0 2.324-.037 3.505-.037.774-.11 1.512-.442 2.213-.443.922-1.107 1.55-2.103 1.845a1.87 1.87 0 0 1-.48.073h-2.84Zm-7.71-10.625a.77.77 0 0 0-.148-.222l-.11.037c-.037-.018-.065-.046-.093-.073-.028-.028-.055-.056-.092-.074-.59-.554-1.291-.886-2.14-.886h-4.98c-.114 0-.216-.001-.31-.003-.518-.009-.794-.014-1.387.298-.04.04-.1.058-.163.078a.628.628 0 0 0-.169.07.296.296 0 0 1-.063.058.663.663 0 0 0-.158.09l-.148.147c-.073.106-.147.205-.218.3-.25.338-.47.634-.556 1.065-.185 1.033-.259 2.03 0 3.062.184.775.627 1.439 1.254 1.955.627.517 1.402.664 2.176.664h4.132c.369 0 .406-.074.406-.406v-1.77c0-.701 0-.701-.701-.701h-3.8c-.738-.037-1.217-.59-1.106-1.291.073-.48.442-.775 1.032-.775h4.575c.664 0 1.07.443 1.07 1.033 0 .378.013.757.025 1.136.036 1.06.072 2.12-.173 3.18-.147.553-.295.775-.848.849-.148.036-.296.036-.443.036h-1.881c-.48 0-.96-.009-1.44-.018-.479-.01-.958-.018-1.438-.018-.295 0-.332.036-.332.258v2.25c0 .08.01.148.02.211.009.055.017.107.017.158a.65.65 0 0 0 .221.037h5.054c.113-.013.23-.021.35-.03.23-.016.464-.032.683-.08 1.218-.333 2.03-1.107 2.361-2.325.185-.7.222-1.402.258-2.103.056-.886.049-1.793.042-2.69v-.005c-.002-.296-.005-.59-.005-.883 0-.11-.018-.23-.037-.35a2.377 2.377 0 0 1-.036-.351c-.037-.7-.222-1.365-.701-1.918Zm48.326-.443c.189-.141.362-.222.53-.3.095-.045.189-.09.282-.142a3.38 3.38 0 0 1 1.586-.406c.591 0 1.181-.004 1.771-.008 1.181-.009 2.361-.017 3.542.008 1.069.037 1.844.627 2.471 1.475.48.628.59 1.402.59 2.14.037 1.511 0 3.022-.036 4.533v.004c-.037.886-.185 1.734-.738 2.435-.59.775-1.328 1.255-2.287 1.328-.498.019-.996.028-1.494.037h-.001c-.498.01-.996.019-1.494.037h-2.582c-.332 0-.332 0-.332-.332v-2.324c0-.184.074-.258.221-.258h5.165c.369 0 .738-.11.885-.48.074-.221.148-.48.185-.7.147-1.06.106-2.117.065-3.195-.01-.274-.021-.55-.028-.827 0-.516-.406-.922-.922-.996h-4.538c-.258 0-.516.074-.738.148-.369.184-.516.516-.443.922.074.369.222.738.665.848.221.074.442.111.664.111h3.947c.184 0 .276 0 .318.046.042.046.032.138.014.323v2.472c-.079 0-.158.01-.232.02a1.387 1.387 0 0 1-.174.017h-3.91c-.406 0-.812-.037-1.218-.111-1.291-.332-2.029-1.254-2.361-2.472a5.723 5.723 0 0 1 0-2.95c.111-.407.222-.739.443-1.07l.184-.333ZM43.034.038h-2.287c-.738 0-1.513 0-2.213.074-1.07-.037-1.882.442-2.583 1.217-.664.775-.885 1.697-.885 2.656a70.39 70.39 0 0 0 0 3.947c.037.664.11 1.328.369 1.956.553 1.29 1.734 2.102 3.136 2.102h4.168c.406 0 .443 0 .443-.442V9.482c-.037-.406-.037-.406-.443-.406h-3.873c-.185 0-.406-.037-.59-.074-.333-.074-.517-.295-.665-.59-.157-.284-.153-.541-.149-.817l.002-.142c0-1.107 0-2.177.037-3.284.037-.774.442-1.18 1.18-1.18h4.427c.664 0 1.107.443 1.107 1.033 0 .516-.295 1.07-1.07 1.07h-4.169c-.369 0-.405.037-.405.406v2.065c0 .406.036.443.405.443h4.206c1.697 0 2.877-1.107 3.283-2.582.258-.886.221-1.771.11-2.656a2.328 2.328 0 0 0-.294-.849C45.543.702 44.473.038 43.034.038Zm38.994 11.915v-2.84c0-.221.036-.258.332-.258.793 0 1.577.009 2.36.018.785.01 1.569.019 2.362.019h1.734c.22 0 .48-.037.7-.148.332-.148.517-.627.443-1.033-.11-.516-.332-.738-.811-.812a1.07 1.07 0 0 0-.327-.007c-.053.004-.105.007-.153.007-1.328 0-2.62 0-3.947-.036-1.255-.037-2.066-.738-2.546-1.845a4.313 4.313 0 0 1-.147-2.804c.295-.996.996-1.66 1.955-1.955.332-.11.738-.147 1.107-.147h5.754c.056 0 .12.009.185.018.065.01.13.018.184.018 0 .08.011.148.02.211.01.056.017.107.017.158v2.288c0 .369-.037.405-.406.405H85.2c-.184 0-.332 0-.516.037-.185.037-.258.185-.222.37 0 .184.148.257.296.294.05.026.118.016.179.008.028-.004.055-.008.079-.008.406 0 .811.004 1.217.009.812.008 1.623.016 2.435-.009 1.66-.037 2.767.701 3.505 2.14.141.284.181.602.217.888l.004.034c0 .167.002.333.005.5.007.495.013.986-.042 1.455-.184 1.329-.922 2.546-2.62 2.989a4.02 4.02 0 0 1-.958.11h-6.456c-.037-.073-.148-.073-.295-.073Zm30.637-8.577c.01-.064.019-.129.019-.203.074-.036.11-.036.074 0 .478 0 .96-.004 1.444-.008a85.827 85.827 0 0 1 2.909.008c1.291.037 2.066 1.107 2.066 2.14v6.382c0 .221.11.295.332.295h1.992c.037 0 .073-.009.11-.018a.467.467 0 0 1 .111-.019c.037-.11.037-.147.037-.22V4.464a3.93 3.93 0 0 0-.959-2.583c-.996-1.254-2.324-1.844-3.911-1.844h-5.423c-.055 0-.119.009-.184.018-.065.01-.129.019-.184.019a1.214 1.214 0 0 0-1.033.959c-.037.184-.037.332-.037.516v10.034c0 .052.008.103.016.158.01.064.021.132.021.211h2.508c0-.092.009-.184.019-.276.009-.092.018-.185.018-.277.037-2.62.037-5.202.037-7.82 0-.075.009-.139.018-.204Zm-21.12 15.771c0 .72-.009 1.439-.018 2.158-.01.72-.018 1.439-.018 2.158v4.39c-.056 0-.102.01-.148.019s-.092.018-.148.018H89.37c-.332 0-.406-.073-.406-.406V17.71c0-.23.03-.43.062-.653l.012-.085c.11-.59.627-.996 1.254-.996h5.571c1.807.036 3.246.811 4.205 2.324.369.59.59 1.254.59 1.955 0 1.162.01 2.333.019 3.505.009 1.17.018 2.342.018 3.504v.221c-.037.296-.073.332-.369.332h-1.844c-.295 0-.332-.036-.332-.332v-2.25c0-.645-.01-1.3-.019-1.954v-.001c-.009-.655-.018-1.31-.018-1.955 0-.886-.332-1.623-1.18-2.066-.259-.11-.517-.221-.812-.221-1.007-.025-1.998-.017-2.994-.009-.5.004-1.001.009-1.507.009.037.073 0 .11-.074.11ZM50.265.628V.075c-.034 0-.061-.002-.085-.004-.083-.005-.125-.008-.21.078-.59-.037-1.18-.037-1.771-.037-.59-.037-.59-.037-.59.516 0 2.03 0 4.095.036 6.124 0 .848.185 1.66.517 2.472.7 1.623 2.398 2.766 4.169 2.766h5.791c.517 0 .886-.258 1.107-.7.158-.316.154-.632.15-.97-.002-.058-.002-.116-.002-.174.037-2.435.037-4.833.037-7.268V.333c0-.332-.037-.332-.332-.332-.277 0-.544.01-.812.018-.267.01-.535.019-.812.019-.627 0-.627 0-.627.627.037 2.582.037 5.202.037 7.784 0 .221 0 .332-.055.387-.056.056-.166.056-.388.056H52.59c-.332 0-.664-.037-.96-.148-.921-.369-1.364-1.144-1.364-2.066-.025-1.351-.017-2.686-.008-4.026.004-.673.008-1.346.008-2.024Zm13.06 11.325h-2.288c-.148 0-.221-.073-.258-.22 0-.056-.01-.112-.019-.167-.009-.055-.018-.11-.018-.166V4.06c0-.443.037-.885.147-1.328.258-1.144 1.033-1.918 2.066-2.398.48-.221.96-.295 1.476-.295.885 0 1.77-.01 2.656-.019.885-.009 1.77-.018 2.656-.018.332 0 .332.037.332.332v2.361c0 .203 0 .304-.05.355-.051.05-.153.05-.356.05h-4.98c-.184 0-.369 0-.553.038-.554.073-.812.405-.849.959v7.378c.037.147.037.295.037.48ZM93.536.075v11.878h2.14c.332-.037.37-.073.406-.405V.333c0-.295-.037-.295-.332-.295h-1.918a.716.716 0 0 0-.148.018c-.046.01-.092.019-.148.019ZM85.274 27.89V15.975h2.324c.148 0 .222.073.222.22V27.375c0 .443-.037.48-.48.48-.664.036-1.328.036-2.066.036ZM12.046 13.724H5.627c-1.365 0-1.328-1.18-1.328-1.18V6.862c0-1.955 1.513-2.102 1.513-2.102h8.152s1.365.258 1.365 1.66-1.328 1.402-1.328 1.402H6.365c-.406 0-.369.405-.369.405v3.763c0 .37.295.295.295.295h7.378c6.014 0 5.755-5.238 5.755-5.238V3.21C19.424.997 15.92.85 15.92.85S10.755.775 5.516.775C.278.776.241 3.8.241 3.8v9.444c0 4.094 3.099 4.463 3.099 4.463h8.706c.406 0 .369-.295.369-.295v-3.357c0-.406-.369-.332-.369-.332Z" fill="#fff"/></g><defs><clipPath id="a"><path fill="#fff" transform="translate(.241 .001)" d="M0 0h121.518v28H0z"/></clipPath></defs></svg>