<svg width="86" height="32" fill="none" xmlns="http://www.w3.org/2000/svg"><g clip-path="url(#a)"><path fill-rule="evenodd" clip-rule="evenodd" d="M84.777.001h-19.51a.385.385 0 0 0-.386.385v.01c0 .213.172.385.385.385h19.511a.385.385 0 0 0 .385-.385v-.01a.385.385 0 0 0-.385-.385Zm-.549 2.393H65.815a.933.933 0 0 0-.933.932v.02c0 .514.418.932.933.932h18.413a.933.933 0 0 0 .933-.933v-.019a.933.933 0 0 0-.933-.932Zm-19.35 4.88v17.528a1.387 1.387 0 0 0 1.387 1.386l17.512.001a1.386 1.386 0 0 0 1.386-1.387l.002-17.527a1.386 1.386 0 0 0-1.387-1.387H66.264a1.387 1.387 0 0 0-1.386 1.387ZM76.52 9.338c.005.004.007.01.007.016v2.305a.023.023 0 0 1-.023.023H73.54a.023.023 0 0 1-.016-.007.023.023 0 0 1-.007-.016V9.353c0-.006.003-.012.007-.016a.023.023 0 0 1 .016-.007h2.964c.006 0 .012.002.016.007Zm-2.994 13.008a.03.03 0 0 1-.009-.021v-8.987a.03.03 0 0 1 .009-.021.03.03 0 0 1 .02-.01l2.95.002a.03.03 0 0 1 .022.009.03.03 0 0 1 .009.021V22.328a.03.03 0 0 1-.009.017.03.03 0 0 1-.021.009h-2.95a.03.03 0 0 1-.018-.006l-.003-.003Zm-52.412 8.283a1.373 1.373 0 0 1-1.373 1.373H2.208a1.373 1.373 0 0 1-1.372-1.373v-17.55a1.373 1.373 0 0 1 1.372-1.373h17.533a1.373 1.373 0 0 1 1.373 1.373v17.55Zm-9.737-9.031h1.836a.02.02 0 0 0 .02-.02v-1.8c0-.023-.013-.035-.037-.035h-1.82a.029.029 0 0 1-.029-.028c-.01-.425-.007-.845.009-1.26a1.3 1.3 0 0 1 .377-.88.537.537 0 0 1 .156-.102c.032-.016.065-.033.095-.053a.582.582 0 0 1 .173-.076c.445-.117.901-.05 1.363.022.02.003.032-.006.034-.027l.218-1.897a.046.046 0 0 0-.037-.051c-.254-.05-.506-.093-.755-.13-1.47-.215-3.24.203-3.934 1.682-.223.475-.337 1.014-.343 1.614-.003.371-.005.754-.005 1.15a.036.036 0 0 1-.036.036h-1.39c-.02 0-.03.01-.03.03v1.804a.02.02 0 0 0 .02.02h1.405c.009 0 .017.003.024.009.006.006.01.015.01.023l-.001 6.14c0 .003.001.007.004.01a.016.016 0 0 0 .012.005l2.595.002c.022 0 .032-.01.032-.032v-6.122c0-.023.012-.034.034-.034Zm30.686 10c.259-.258.404-.608.404-.974v-17.54a1.378 1.378 0 0 0-1.378-1.378H23.562a1.378 1.378 0 0 0-1.378 1.377v17.541a1.378 1.378 0 0 0 1.378 1.378h17.527c.366 0 .716-.145.974-.403Zm-8.143-4.024a5.779 5.779 0 0 1-.387-1.387c-.006-.044-.02-.047-.042-.008-.42.763-1.218 1.415-2.07 1.557a4.276 4.276 0 0 1-1.623-.063c-.916-.2-1.655-.802-1.97-1.69a3.573 3.573 0 0 1-.135-1.72c.319-1.864 2.291-2.41 3.906-2.452.573-.015 1.189-.017 1.847-.006a.04.04 0 0 0 .036-.023.036.036 0 0 0 .002-.01v-.005a14.33 14.33 0 0 0-.007-.927c-.017-.392-.179-.796-.502-1.041-.381-.29-1.008-.326-1.444-.217-.551.137-.842.5-.871 1.089a.03.03 0 0 1-.03.028h-2.493a.036.036 0 0 1-.036-.033c-.056-.729.256-1.395.792-1.91.684-.66 1.58-1.01 2.519-1.113 1.18-.129 2.465.008 3.45.713a2.882 2.882 0 0 1 1.201 1.922c.046.266.069.576.069.932 0 1.266-.001 2.478-.005 3.636-.004.952.097 1.834.425 2.723.007.018 0 .028-.019.028h-2.578a.038.038 0 0 1-.035-.023Zm9.608 3.048V13.086a1.38 1.38 0 0 1 1.381-1.38l17.523-.001a1.38 1.38 0 0 1 1.38 1.38l.003 17.536a1.38 1.38 0 0 1-1.38 1.38H44.909a1.38 1.38 0 0 1-1.38-1.38Zm9.394-5.052a.021.021 0 0 1-.018-.012.02.02 0 0 1-.002-.01v-.005a.02.02 0 0 1 .004-.006l4.68-6.237a.02.02 0 0 0 .005-.012v-1.49a.02.02 0 0 0-.02-.02H49.76a.02.02 0 0 0-.015.006.02.02 0 0 0-.003.005.02.02 0 0 0-.003.01v2.005c0 .006.003.01.006.015a.02.02 0 0 0 .015.006l4.47.001a.02.02 0 0 1 .011.004.02.02 0 0 1 .006.03L49.6 26.035a.02.02 0 0 0-.005.012v1.526a.02.02 0 0 0 .021.02h8.111a.02.02 0 0 0 .02-.013.021.021 0 0 0 0-.008v-1.991a.023.023 0 0 0-.005-.007.019.019 0 0 0-.007-.004.02.02 0 0 0-.008-.002h-4.804Zm-20.99-2.272c-.546.006-1.05.157-1.385.615-.25.344-.331.85-.186 1.245.16.433.572.65 1.02.668.794.031 1.437-.252 1.931-.849.09-.109.177-.253.176-.4a1890.375 1890.375 0 0 1-.002-1.272.018.018 0 0 0-.01-.01 95.814 95.814 0 0 0-1.545.002Z" fill="#fff"/></g><defs><clipPath id="a"><path fill="#fff" transform="translate(.836 .001)" d="M0 0h84.329v32H0z"/></clipPath></defs></svg>