<svg width="102" height="28" fill="none" xmlns="http://www.w3.org/2000/svg"><g clip-path="url(#a)"><path fill-rule="evenodd" clip-rule="evenodd" d="m57.63 15.136 7.807.286.352.01a.254.254 0 0 0 .265-.175c1.196-3.011.704-5.43-1.475-7.26-.195-.163-.429-.332-.673-.508-.658-.476-1.397-1.01-1.685-1.668-.298-.69.226-1.349.918-1.421 1.226-.133 2.255.789 2.927 1.737.078.113.117.1.117-.039l-.009-5.088a.205.205 0 0 0-.114-.184c-1.598-.81-3.272-.99-5.022-.539-1.335.496-2.306 1.394-2.915 2.695-1.454 3.107-.614 5.555 1.855 7.587.105.086.233.184.373.29h.001v.001c.635.483 1.511 1.149 1.54 1.792.073 1.578-1.863 1.437-2.793.88a4.424 4.424 0 0 1-1.397-1.238.354.354 0 0 0-.105-.111c-.083-.046-.124-.022-.124.072v2.719c0 .104.052.158.157.162Zm-25.736-.945 8.851.34c.247-.353.348-.929.301-1.725-.008-.15-.07-.177-.186-.079-2.047 1.759-4.483 1.063-5.061-1.568-.376-1.722-.312-3.273.19-4.652.785-2.162 2.88-2.749 4.648-1.22.136.12.205.088.205-.092l-.003-4.67a.208.208 0 0 0-.172-.205 15.82 15.82 0 0 0-1.939-.217c-2.415-.122-4.38.673-5.898 2.385-.937 1.242-1.555 2.574-1.854 3.995-.494 2.333-.31 5.103.593 7.47a.367.367 0 0 0 .325.238ZM3.758.302l3.664.003c.139 0 .207.068.205.205l-.006 5.886c0 .046.018.09.05.123a.17.17 0 0 0 .122.052l1.972.024c.09.002.135-.042.135-.133L9.894.465c0-.097.05-.145.148-.145l4.462.003a.139.139 0 0 1 .138.139v12.925a.122.122 0 0 1-.039.09.128.128 0 0 1-.093.036l-3.11-.096-1.346-.063c-.107-.004-.16-.06-.163-.169L9.88 12.11l.033-.9c.008-.205-.091-.307-.298-.307l-1.737.006c-.19 0-.281.094-.271.283l.048.87-.036 1.02c-.006.125-.07.185-.193.181l-4.374-.168c-.119-.004-.179-.066-.18-.187l-.019-2.7.04-9.695c0-.106.052-.163.159-.169l.707-.042Zm16.463.093-3.125 13.103a.1.1 0 0 0 .017.084.098.098 0 0 0 .076.04l11.628.436a.1.1 0 0 0 .1-.117L26.07.41a.1.1 0 0 0-.1-.079L20.318.32a.1.1 0 0 0-.096.075ZM22.94 5.42c.054-.467.11-.467.168 0l.783 6.356c.016.129-.04.193-.168.193l-1.617.003a.125.125 0 0 1-.1-.048.132.132 0 0 1-.027-.109c.406-2.172.726-4.303.96-6.395Zm24.998 1.976c-.008.36.051.373.178.036L50.693.47c.038-.105.111-.157.22-.157l4.606.003a.148.148 0 0 1 .127.068.155.155 0 0 1 .012.146L52.02 8.726a.337.337 0 0 0 .003.283l2.752 5.89a.089.089 0 0 1-.008.085.087.087 0 0 1-.077.038l-4.688-.178a.208.208 0 0 1-.183-.132l-1.713-4.438c-.115-.3-.17-.29-.166.03l.066 4.287c.002.12-.057.179-.177.175l-4.327-.166c-.122-.004-.183-.068-.183-.192V.462a.138.138 0 0 1 .042-.1.145.145 0 0 1 .102-.042l4.429.003a.175.175 0 0 1 .165.114.184.184 0 0 1 .013.07l-.133 6.889ZM77.197.302 74.95.296 71.624.32c-.067.002-.107.035-.12.097l-3.58 14.96a.115.115 0 0 0 .02.098.121.121 0 0 0 .09.047l12.384.463c.157.006.219-.067.187-.22l-2.25-10.642-.984-4.68c-.02-.094-.078-.14-.174-.14Zm-3.911 11.55 1.071-6.958c.006-.028.01-.028.013 0 .218 2.302.501 4.611.849 6.928a.133.133 0 0 1-.077.141.13.13 0 0 1-.056.012l-1.695-.003a.107.107 0 0 1-.103-.076.099.099 0 0 1-.002-.044Zm14.59 4.422-3.005-.16c-.1-.005-.162-.058-.184-.156l-2.366-10.63L81.264.473c-.024-.115.022-.17.139-.169l4.317.021c.047 0 .093.016.13.046.036.03.06.071.069.117.62 3.364 1.114 6.781 1.481 10.251.03.285.062.285.096 0 .42-3.59.964-7.035 1.632-10.332a.096.096 0 0 1 .09-.079L93.073.32a.12.12 0 0 1 .08.027.124.124 0 0 1 .044.073 103.755 103.755 0 0 1 1.707 10.311c.044.4.085.4.123 0C95.35 7.39 95.827 3.975 96.46.49c.02-.115.088-.172.202-.172l4.23-.003a.175.175 0 0 1 .133.062.167.167 0 0 1 .036.14l-3.222 16.032c-.012.062-.049.093-.111.09l-4.89-.192a.174.174 0 0 1-.162-.139 153.055 153.055 0 0 1-1.466-8.84c-.017-.11-.032-.11-.046 0l-1.114 8.696c-.014.11-.076.164-.186.162l-1.987-.05ZM5.917 18.34v-4.556a.1.1 0 0 0-.096-.1l-4.55-.168a.1.1 0 0 0-.102.1l.003 4.727a.1.1 0 0 0 .1.099l4.546-.003a.1.1 0 0 0 .099-.1Zm5.558-4.46 1.303.058c.105.006.158.061.16.166l.03 4.118c.002.115-.052.187-.162.217a.448.448 0 0 1-.22.006l-4.215-.027c-.125 0-.187-.062-.187-.187l.006-4.248c0-.122.06-.181.18-.178l3.105.076Zm7.774 4.448.349-2.03a.133.133 0 0 1 .13-.111h2.974a.132.132 0 0 1 .132.111l.323 2.033a.133.133 0 0 0 .132.111h4.634a.132.132 0 0 0 .13-.16l-.78-3.697a.132.132 0 0 0-.124-.105l-11.66-.425a.132.132 0 0 0-.136.103l-1.02 4.127a.131.131 0 0 0 .022.114.132.132 0 0 0 .104.052l4.66-.015a.132.132 0 0 0 .13-.108Zm19.66-.157c-3.634 1.445-7.163.015-8.858-3.42-.054-.11-.019-.164.106-.16l8.987.34a.101.101 0 0 1 .093.07.106.106 0 0 1 .006.042l-.148 2.869a.272.272 0 0 1-.186.259Zm2.64-2.999.063 3.246 4.568.006c.126 0 .188-.062.187-.187l-.046-2.83c0-.126-.064-.19-.192-.193l-4.58-.042Zm12.85 3.276-4.925-.009a.094.094 0 0 1-.088-.06l-1.159-2.975a.092.092 0 0 1 .011-.087.093.093 0 0 1 .08-.04l4.766.178a.094.094 0 0 1 .081.054l1.319 2.807a.093.093 0 0 1-.085.132Zm7.903-.482a4.82 4.82 0 0 0 1.376-1.252c.201-.215.347-.447.44-.696.038-.102.003-.155-.105-.16l-8.115-.3c-.068-.004-.102.028-.102.096l-.009 2.183c0 .108.05.181.15.22 2.081.803 4.387 1.041 6.365-.09Zm8.108.47-4.67.009a.109.109 0 0 1-.108-.133l.54-2.279a.108.108 0 0 1 .11-.08l4.523.228a.108.108 0 0 1 .098.084.109.109 0 0 1 .001.045l-.385 2.039a.108.108 0 0 1-.109.087Zm4.363.072 1.258-.054 3.258-.012a.074.074 0 0 0 .072-.058.075.075 0 0 0 0-.032l-.385-1.84c-.014-.062-.053-.095-.117-.1l-4.54-.17c-.13-.007-.191.054-.187.183.036.951.25 1.646.64 2.083Zm12.961-1.773c.472-.024.65.088.533.337l-.21 1.216c-.017.1-.076.15-.178.15l-4.297.004c-.108 0-.173-.054-.195-.163l-.31-1.547c-.02-.109.025-.16.135-.157l4.522.16Zm3.628 1.707h4.405a.114.114 0 0 0 .111-.093l.226-1.157a.115.115 0 0 0-.108-.138l-4.872-.184a.116.116 0 0 0-.09.039.114.114 0 0 0-.027.094l.24 1.346a.114.114 0 0 0 .115.093Zm-84.165 3.3c.618.315 1.083.747 1.397 1.297.04.07.023.12-.052.15l-1.255.534a.146.146 0 0 1-.105.002.152.152 0 0 1-.082-.069c-.617-1.09-2.122-1.062-2.61.112-.49 1.186-.09 2.752 1.493 2.716.556-.012.925-.266 1.105-.762.048-.133.001-.199-.141-.199l-.949-.003a.148.148 0 0 1-.147-.147l.003-.916c0-.094.047-.141.141-.141h2.776c.107 0 .16.053.163.16.028 1.832-.762 2.925-2.37 3.278-2.977.65-4.6-2.077-3.564-4.66.907-1.444 2.306-1.894 4.197-1.352Zm89.175 5.717c1.006-.56 1.488-1.584 1.448-3.07l-3.035-.055c-.044 0-.066.022-.066.066l.003 1.039c0 .054.027.081.082.081h.969a.172.172 0 0 1 .166.22c-.286.97-1.668.897-2.268.361-.267-.236-.43-.57-.487-1.002-.157-1.18.388-2.424 1.794-2.19.428.073.735.305.921.696.06.125.154.16.28.106l1.117-.485c.129-.056.157-.143.085-.262-.514-.859-1.247-1.33-2.198-1.412-2.202-.193-3.423.772-3.664 2.893-.012 1.018.256 1.829.804 2.433.942 1.036 2.833 1.262 4.05.581Zm-69.533.145a4.428 4.428 0 0 1-1.497.093.221.221 0 0 1-.201-.168l-.23-.714a.235.235 0 0 0-.086-.122.246.246 0 0 0-.145-.047h-1.906c-.108 0-.178.052-.21.154l-.223.71c-.035.113-.11.172-.226.178l-.482.024-.825-.054c-.112-.006-.15-.062-.111-.169l1.126-3.022.981-2.623a.256.256 0 0 1 .256-.177l1.361-.006c.11 0 .185.05.223.153l2.195 5.79Zm-2.544-2.159a.092.092 0 0 0 .075-.04.094.094 0 0 0 .012-.083l-.557-1.635a.094.094 0 0 0-.14-.044.094.094 0 0 0-.035.044l-.566 1.644a.093.093 0 0 0 .09.123l1.12-.009Zm21.948 2.108-.723-4.29-.24-1.413c-.02-.122-.093-.184-.217-.184l-1.208.01c-.108 0-.18.05-.216.15l-1.036 2.779c-.064.177-.13.178-.196.003l-1.047-2.785a.226.226 0 0 0-.23-.16l-1.192.007c-.12.002-.19.062-.21.18l-.997 5.847 1.38-.012c.12 0 .189-.06.207-.18l.455-3.035c.026-.167.069-.171.129-.012l1.186 3.062c.038.098.11.152.214.162l.43.04 1.262-3.063c.13-.319.22-.308.271.033l.422 2.873a.16.16 0 0 0 .156.135l1.277-.006a.125.125 0 0 0 .12-.089.118.118 0 0 0 .003-.052Zm14.033-2.698v2.749a.688.688 0 0 1-.253.105l-1.138-.033c-.108-.002-.162-.057-.162-.165l-.052-5.77c.42-.096.896-.116 1.428-.06.1.01.15.066.15.166l.027 3.008Zm12.696 2.848c.067-.008.11-.003.133.015l1.243-.033a.198.198 0 0 0 .196-.202l-.006-3.182c-.002-.197.057-.218.178-.063l2.589 3.315a.352.352 0 0 0 .292.144l1.168.003c.145.002.217-.07.217-.217l-.012-5.714c0-.07-.035-.105-.105-.105l-1.37.015c-.05 0-.076.025-.076.075v3.324c0 .18-.055.2-.165.057l-2.608-3.327a.351.351 0 0 0-.295-.142l-1.132.007c-.16 0-.24.079-.24.237l-.007 5.793Z" fill="#fff"/></g><defs><clipPath id="a"><path fill="#fff" transform="translate(.871 .001)" d="M0 0h100.258v28H0z"/></clipPath></defs></svg>