<svg width="102" height="28" viewBox="0 0 102 28" fill="none" xmlns="http://www.w3.org/2000/svg">
<g clip-path="url(#clip0_4134_9900)">
<path fill-rule="evenodd" clip-rule="evenodd" d="M57.6297 15.1363L65.4366 15.4223L65.7888 15.4313C65.9173 15.4353 66.0056 15.3771 66.0537 15.2567C67.25 12.2459 66.7583 9.82631 64.5785 7.99778C64.3835 7.83382 64.1501 7.66522 63.9056 7.48856C63.2475 7.0132 62.5086 6.47951 62.2211 5.82101C61.923 5.13154 62.4469 4.47219 63.1393 4.39993C64.3647 4.26746 65.3944 5.18875 66.0658 6.13713C66.1441 6.24954 66.1832 6.23649 66.1832 6.09799L66.1742 1.00982C66.1741 0.971866 66.1634 0.934595 66.1432 0.902166C66.123 0.869738 66.0941 0.843426 66.0598 0.826167C64.4621 0.0152705 62.7881 -0.164371 61.0378 0.287242C59.7031 0.783013 58.7316 1.68122 58.1234 2.98187C56.6692 6.08896 57.5092 8.5367 59.9781 10.569C60.0828 10.6553 60.211 10.7527 60.3507 10.859L60.3512 10.8593L60.3516 10.8596L60.3517 10.8597L60.352 10.8599L60.3521 10.86C60.9874 11.3429 61.8633 12.0088 61.8929 12.6524C61.9651 14.23 60.0292 14.0885 59.0989 13.5315C58.559 13.2305 58.0933 12.818 57.7019 12.2941C57.6638 12.2379 57.6287 12.2008 57.5965 12.1827C57.5143 12.1366 57.4731 12.1606 57.4731 12.255V14.9737C57.4731 15.0781 57.5253 15.1323 57.6297 15.1363ZM31.8938 14.1906L40.7454 14.5309C40.9923 14.1776 41.0926 13.6025 41.0464 12.8057C41.0384 12.6552 40.9762 12.6291 40.8598 12.7274C38.8125 14.4857 36.3768 13.7902 35.7987 11.1588C35.4234 9.43667 35.4866 7.88614 35.9884 6.50721C36.7742 4.34549 38.8697 3.75839 40.637 5.28786C40.7735 5.40628 40.8417 5.37517 40.8417 5.19452L40.8387 0.524845C40.8387 0.475987 40.8216 0.42868 40.7902 0.391237C40.7588 0.353794 40.7152 0.328611 40.6671 0.320114C40.0409 0.20972 39.3946 0.137462 38.7282 0.10334C36.3135 -0.0190973 34.3475 0.775741 32.8301 2.48786C31.8928 3.73029 31.2745 5.06205 30.9755 6.48312C30.4817 8.81646 30.6654 11.5863 31.5686 13.9528C31.5937 14.0198 31.6379 14.078 31.6957 14.1203C31.7534 14.1625 31.8223 14.187 31.8938 14.1906ZM3.75827 0.302188L7.42236 0.305199C7.56085 0.305199 7.6291 0.373443 7.62709 0.50993L7.62107 6.39595C7.62107 6.44227 7.63915 6.48668 7.67133 6.51943C7.70352 6.55218 7.74717 6.57058 7.79268 6.57058L9.76473 6.59466C9.85505 6.59667 9.90021 6.55251 9.90021 6.46219L9.89419 0.464769C9.89419 0.368425 9.94336 0.320253 10.0417 0.320253L14.5036 0.323264C14.5404 0.323264 14.5756 0.337855 14.6016 0.363828C14.6276 0.389801 14.6421 0.425027 14.6421 0.461758V13.3869C14.6422 13.4038 14.6387 13.4205 14.632 13.436C14.6253 13.4516 14.6155 13.4656 14.6032 13.4774C14.5909 13.4892 14.5762 13.4985 14.5602 13.5046C14.5441 13.5108 14.5269 13.5138 14.5097 13.5134L11.3996 13.417L10.0538 13.3538C9.94738 13.3498 9.89318 13.2936 9.89118 13.1852L9.87913 12.1104L9.91225 11.2101C9.92028 11.0054 9.82093 10.903 9.61419 10.903L7.87698 10.9091C7.6863 10.9091 7.59598 11.0034 7.60602 11.1921L7.65419 12.0622L7.61806 13.0828C7.61204 13.2073 7.54781 13.2675 7.42537 13.2635L3.05075 13.0949C2.93232 13.0909 2.87211 13.0286 2.8701 12.9082L2.85204 10.2076L2.89118 0.512941C2.89118 0.406561 2.94437 0.35036 3.05075 0.344339L3.75827 0.302188ZM20.2211 0.395392L17.0959 13.4982C17.0923 13.5126 17.092 13.5276 17.0949 13.5422C17.0979 13.5567 17.1041 13.5704 17.1131 13.5822C17.122 13.5941 17.1335 13.6038 17.1467 13.6106C17.1599 13.6174 17.1744 13.6212 17.1893 13.6216L28.8168 14.0582C28.8315 14.0584 28.8461 14.0554 28.8595 14.0493C28.8729 14.0432 28.8848 14.0343 28.8943 14.023C28.9038 14.0118 28.9107 13.9986 28.9145 13.9844C28.9182 13.9701 28.9188 13.9552 28.9161 13.9408L26.071 0.410446C26.0661 0.387889 26.0535 0.367738 26.0354 0.353453C26.0172 0.339169 25.9947 0.331643 25.9716 0.332167L20.3174 0.320123C20.2953 0.320134 20.2738 0.327547 20.2563 0.341184C20.2389 0.354822 20.2265 0.373902 20.2211 0.395392ZM22.9398 5.42034C22.994 4.95267 23.0502 4.95267 23.1084 5.42034L23.8912 11.776C23.9073 11.9045 23.8511 11.9687 23.7226 11.9687L22.1058 11.9717C22.0868 11.9717 22.0681 11.9674 22.051 11.9591C22.0338 11.9509 22.0187 11.9389 22.0066 11.9239C21.9945 11.909 21.9858 11.8915 21.9811 11.8727C21.9764 11.8539 21.9758 11.8343 21.9794 11.8152C22.3848 9.64342 22.705 7.51181 22.9398 5.42034ZM47.9381 7.39553C47.93 7.75682 47.9893 7.76887 48.1157 7.43166L50.6929 0.470802C50.731 0.366429 50.8043 0.314243 50.9127 0.314243L55.5191 0.317253C55.5442 0.316973 55.5689 0.323064 55.591 0.334975C55.613 0.346887 55.6318 0.364241 55.6456 0.385467C55.6593 0.406694 55.6676 0.431121 55.6697 0.456536C55.6718 0.481951 55.6677 0.507551 55.6576 0.531017L52.0206 8.72629C52.0008 8.77055 51.9908 8.81874 51.9913 8.86757C51.9918 8.91641 52.0029 8.96474 52.0237 9.0093L54.7755 14.8983C54.7817 14.912 54.7843 14.9271 54.7831 14.942C54.7818 14.957 54.7766 14.9714 54.7682 14.9838C54.7597 14.9963 54.7481 15.0063 54.7347 15.0129C54.7212 15.0196 54.7062 15.0226 54.6912 15.0218L50.0034 14.8441C49.963 14.8422 49.924 14.8286 49.8914 14.8051C49.8588 14.7815 49.8339 14.7491 49.8198 14.7117L48.1067 10.2738C47.9923 9.97474 47.9371 9.98478 47.9411 10.3039L48.0073 14.5912C48.0093 14.7117 47.9501 14.7699 47.8297 14.7659L43.5032 14.6003C43.3808 14.5962 43.3196 14.532 43.3196 14.4076V0.46177C43.3196 0.443187 43.3233 0.424786 43.3306 0.407618C43.3378 0.39045 43.3485 0.37485 43.3619 0.36171C43.3753 0.34857 43.3913 0.338147 43.4088 0.331036C43.4263 0.323925 43.4451 0.320264 43.4641 0.320264L47.8929 0.323275C47.9165 0.323265 47.9398 0.32803 47.9616 0.337293C47.9833 0.346555 48.0031 0.36013 48.0196 0.377226C48.0361 0.394321 48.0491 0.414595 48.0579 0.436864C48.0666 0.459133 48.0709 0.482952 48.0705 0.506931L47.9381 7.39553ZM77.1966 0.30233L74.9505 0.296308L71.6237 0.320394C71.5574 0.322401 71.5173 0.354516 71.5032 0.416738L67.9234 15.3772C67.9195 15.3939 67.9193 15.4113 67.923 15.4281C67.9267 15.445 67.9341 15.4608 67.9447 15.4746C67.9553 15.4884 67.9689 15.4997 67.9845 15.5079C68.0001 15.516 68.0172 15.5207 68.0348 15.5217L80.4181 15.9853C80.5746 15.9914 80.6368 15.9181 80.6047 15.7656L78.3557 5.12254L77.3712 0.443835C77.3511 0.349498 77.2929 0.30233 77.1966 0.30233ZM73.2856 11.8516L74.3574 4.89373C74.3634 4.86563 74.3675 4.86563 74.3695 4.89373C74.5882 7.19595 74.8713 9.5052 75.2185 11.8215C75.2216 11.8405 75.2204 11.8601 75.2152 11.8787C75.2099 11.8972 75.2006 11.9145 75.188 11.9291C75.1754 11.9437 75.1597 11.9554 75.1421 11.9633C75.1245 11.9713 75.1053 11.9753 75.086 11.975L73.391 11.972C73.3755 11.9722 73.3601 11.969 73.346 11.9627C73.3319 11.9564 73.3193 11.9472 73.3093 11.9357C73.2992 11.9242 73.2919 11.9107 73.2878 11.8962C73.2837 11.8816 73.2829 11.8664 73.2856 11.8516ZM87.8757 16.2742L84.871 16.1146C84.7706 16.1086 84.7094 16.0564 84.6873 15.9581L82.3209 5.32712L81.2641 0.473782C81.24 0.359374 81.2862 0.303173 81.4026 0.30518L85.72 0.326256C85.7673 0.326067 85.813 0.342242 85.8494 0.371957C85.8857 0.401672 85.9102 0.443039 85.9187 0.488837C86.5389 3.85285 87.0327 7.27005 87.4 10.7404C87.4301 11.0255 87.4622 11.0255 87.4963 10.7404C87.9158 7.14962 88.4598 3.70532 89.1282 0.407546C89.1322 0.386235 89.1433 0.366913 89.1597 0.352707C89.1761 0.338501 89.1968 0.330242 89.2185 0.329266L93.0722 0.320234C93.1009 0.319088 93.1291 0.328467 93.1517 0.346681C93.1744 0.364896 93.19 0.39075 93.1957 0.419589C93.9604 3.96425 94.5295 7.40152 94.9028 10.7314C94.9469 11.1308 94.9881 11.1308 95.0262 10.7314C95.3494 7.38948 95.8271 3.97529 96.4593 0.488837C96.4794 0.374428 96.5467 0.317223 96.6611 0.317223L100.891 0.314213C100.917 0.314261 100.942 0.319832 100.965 0.330527C100.987 0.341222 101.008 0.356775 101.024 0.376065C101.04 0.395356 101.052 0.417905 101.058 0.44209C101.064 0.466275 101.065 0.491494 101.06 0.515933L97.8383 16.5482C97.8262 16.6104 97.7891 16.6405 97.7269 16.6385L92.8374 16.4458C92.7988 16.444 92.7619 16.4294 92.7325 16.4043C92.7031 16.3793 92.6828 16.3452 92.6748 16.3073C92.0968 13.3568 91.608 10.4103 91.2086 7.46776C91.1925 7.35737 91.1775 7.35737 91.1634 7.46776L90.0495 16.1628C90.0354 16.2732 89.9732 16.3274 89.8628 16.3254L87.8757 16.2742ZM5.91699 18.3395V13.7843C5.91701 13.7584 5.90695 13.7336 5.88897 13.7151C5.87098 13.6965 5.84648 13.6857 5.82065 13.6849L1.2714 13.5163C1.2581 13.5159 1.24486 13.5182 1.23246 13.523C1.22005 13.5278 1.20874 13.5351 1.19919 13.5443C1.18965 13.5536 1.18206 13.5647 1.17688 13.5769C1.1717 13.5892 1.16903 13.6024 1.16904 13.6157L1.17205 18.3426C1.17205 18.3689 1.18251 18.3942 1.20115 18.4128C1.21978 18.4314 1.24505 18.4419 1.2714 18.4419L5.81764 18.4389C5.84399 18.4389 5.86926 18.4284 5.88789 18.4098C5.90653 18.3912 5.91699 18.3659 5.91699 18.3395ZM11.4749 13.8808L12.7785 13.938C12.8829 13.944 12.9361 13.9992 12.9381 14.1036L12.9682 18.2223C12.9702 18.3367 12.916 18.4089 12.8056 18.439C12.7394 18.4591 12.6661 18.4611 12.5858 18.4451L8.37077 18.418C8.24633 18.418 8.18411 18.3557 8.18411 18.2313L8.19013 13.9831C8.19013 13.8607 8.25034 13.8015 8.37077 13.8055L11.4749 13.8808ZM19.2486 18.3276L19.5979 16.2984C19.6028 16.2675 19.6186 16.2394 19.6422 16.219C19.6659 16.1986 19.6961 16.1873 19.7273 16.187H22.702C22.7337 16.1866 22.7646 16.1976 22.7889 16.2181C22.8132 16.2385 22.8294 16.267 22.8344 16.2984L23.1566 18.3306C23.1616 18.362 23.1778 18.3905 23.2021 18.411C23.2264 18.4314 23.2573 18.4424 23.289 18.442H27.9226C27.9423 18.442 27.9617 18.4376 27.9795 18.4291C27.9972 18.4206 28.0129 18.4083 28.0253 18.393C28.0377 18.3777 28.0465 18.3599 28.0511 18.3408C28.0558 18.3216 28.0561 18.3017 28.0521 18.2825L27.2723 14.5853C27.2663 14.5565 27.2509 14.5305 27.2286 14.5115C27.2062 14.4924 27.1782 14.4813 27.1488 14.4799L15.4882 14.0554C15.4572 14.0539 15.4266 14.0633 15.4019 14.082C15.3771 14.1007 15.3597 14.1275 15.3527 14.1577L14.3321 18.2855C14.327 18.3049 14.3265 18.3252 14.3305 18.3449C14.3345 18.3646 14.3429 18.3831 14.355 18.399C14.3672 18.415 14.3829 18.4279 14.4008 18.4369C14.4187 18.446 14.4384 18.4508 14.4585 18.4511L19.1192 18.436C19.15 18.4358 19.1798 18.4249 19.2034 18.4051C19.227 18.3853 19.243 18.3579 19.2486 18.3276ZM38.9088 18.1709C35.2749 19.6161 31.7463 18.186 30.0512 14.7507C29.997 14.6403 30.0321 14.5871 30.1566 14.5911L39.1437 14.9313C39.1574 14.9317 39.1709 14.9349 39.1834 14.9407C39.1959 14.9466 39.2071 14.9549 39.2163 14.9653C39.2256 14.9757 39.2327 14.9879 39.2373 15.0012C39.2419 15.0145 39.2439 15.0286 39.243 15.0427L39.0955 17.912C39.0895 18.0384 39.0273 18.1247 38.9088 18.1709ZM41.5493 15.1722L41.6125 18.4178L46.1798 18.4238C46.3062 18.4238 46.3685 18.3616 46.3665 18.2371L46.3213 15.407C46.3213 15.2806 46.2571 15.2163 46.1286 15.2143L41.5493 15.1722ZM54.3991 18.4481L49.4736 18.4391C49.4546 18.4391 49.4361 18.4333 49.4205 18.4226C49.4049 18.4118 49.393 18.3966 49.3862 18.3789L48.2271 15.4042C48.2216 15.3899 48.2198 15.3744 48.2218 15.3591C48.2238 15.3439 48.2295 15.3293 48.2384 15.3168C48.2473 15.3043 48.2592 15.2942 48.273 15.2874C48.2868 15.2806 48.3021 15.2773 48.3174 15.2778L53.0835 15.4554C53.1007 15.4561 53.1174 15.4615 53.1318 15.471C53.1461 15.4806 53.1575 15.494 53.1647 15.5096L54.4835 18.3156C54.49 18.3298 54.4929 18.3454 54.4918 18.361C54.4908 18.3766 54.4859 18.3917 54.4775 18.4049C54.4691 18.4181 54.4575 18.4289 54.4438 18.4365C54.4301 18.444 54.4148 18.448 54.3991 18.4481ZM62.3024 17.9663C62.8523 17.6291 63.311 17.2116 63.6783 16.7138C63.879 16.4991 64.0255 16.2672 64.1179 16.0183C64.156 15.916 64.1209 15.8628 64.0125 15.8588L55.8985 15.5577C55.8303 15.5537 55.7961 15.5858 55.7961 15.654L55.7871 17.8368C55.7871 17.9452 55.8373 18.0185 55.9377 18.0566C58.0181 18.8605 60.3243 19.0983 62.3024 17.9663ZM70.4103 18.436L65.7406 18.445C65.7241 18.4454 65.7078 18.4421 65.6927 18.4352C65.6777 18.4283 65.6645 18.4181 65.654 18.4053C65.6436 18.3925 65.6362 18.3775 65.6324 18.3614C65.6286 18.3454 65.6286 18.3286 65.6323 18.3125L66.1712 16.0334C66.1774 16.009 66.192 15.9876 66.2123 15.9728C66.2326 15.9579 66.2575 15.9506 66.2826 15.9521L70.8047 16.1809C70.8202 16.1819 70.8352 16.1862 70.8488 16.1935C70.8625 16.2007 70.8744 16.2108 70.8838 16.2231C70.8932 16.2354 70.8999 16.2495 70.9034 16.2646C70.9069 16.2796 70.9071 16.2952 70.9041 16.3104L70.5187 18.3487C70.5138 18.3736 70.5002 18.3961 70.4804 18.412C70.4606 18.428 70.4358 18.4365 70.4103 18.436ZM74.7729 18.5082L76.0314 18.454L79.289 18.4419C79.3001 18.4417 79.3109 18.4391 79.3208 18.4342C79.3307 18.4293 79.3394 18.4223 79.3463 18.4137C79.3494 18.4098 79.3521 18.4056 79.3544 18.4013C79.3572 18.3959 79.3593 18.3902 79.3607 18.3843C79.3633 18.3736 79.3635 18.3624 79.3613 18.3516L78.9759 16.512C78.9619 16.4498 78.9227 16.4167 78.8585 16.4127L74.3183 16.2411C74.1898 16.235 74.1276 16.2963 74.1316 16.4247C74.1677 17.3761 74.3815 18.0706 74.7729 18.5082ZM87.7342 16.7347C88.2059 16.7107 88.3835 16.8231 88.2671 17.0719L88.0564 18.2883C88.0403 18.3886 87.9811 18.4388 87.8787 18.4388L83.5824 18.4418C83.474 18.4418 83.4088 18.3876 83.3867 18.2793L83.0766 16.7317C83.0565 16.6233 83.1017 16.5712 83.2121 16.5752L87.7342 16.7347ZM91.3622 18.4419H95.7669C95.7934 18.4416 95.819 18.4322 95.8393 18.4151C95.8596 18.3981 95.8734 18.3746 95.8783 18.3485L96.1041 17.1924C96.1077 17.176 96.1075 17.159 96.1038 17.1426C96.1 17.1263 96.0927 17.111 96.0824 17.0977C96.072 17.0845 96.0589 17.0737 96.0439 17.0662C96.029 17.0586 96.0125 17.0544 95.9957 17.0539L91.1243 16.8702C91.1074 16.8696 91.0905 16.8727 91.075 16.8793C91.0594 16.886 91.0455 16.896 91.0342 16.9087C91.023 16.9213 91.0147 16.9364 91.01 16.9526C91.0053 16.9689 91.0042 16.986 91.0069 17.0027L91.2478 18.3485C91.2527 18.3751 91.267 18.399 91.2879 18.4161C91.3088 18.4332 91.3352 18.4423 91.3622 18.4419ZM7.19658 21.7417C7.81479 22.0568 8.28046 22.4894 8.59357 23.0393C8.63372 23.1096 8.61666 23.1598 8.54239 23.1899L7.28691 23.7228C7.25354 23.7367 7.21611 23.7376 7.1817 23.7254C7.14729 23.7132 7.11831 23.6887 7.10024 23.6565C6.48304 22.5666 4.97766 22.5937 4.48992 23.7679C3.99916 24.9542 4.3996 26.5198 5.98325 26.4836C6.53924 26.4716 6.90755 26.2177 7.0882 25.7219C7.13637 25.5894 7.0892 25.5232 6.94669 25.5232L5.9983 25.5202C5.95918 25.5202 5.92165 25.5046 5.89399 25.477C5.86632 25.4493 5.85078 25.4118 5.85078 25.3727L5.85379 24.4574C5.85379 24.3631 5.90096 24.3159 5.99529 24.3159H8.77121C8.87759 24.3159 8.93178 24.3691 8.93379 24.4755C8.96189 26.308 8.17207 27.4009 6.56433 27.7542C3.58669 28.4045 1.9639 25.6767 2.99959 23.0935C3.90683 21.6504 5.30583 21.1998 7.19658 21.7417ZM96.3721 27.4592C97.3777 26.8992 97.8604 25.8755 97.8202 24.3882L94.7854 24.334C94.7412 24.334 94.7192 24.3561 94.7192 24.4002L94.7222 25.4389C94.7222 25.4931 94.7493 25.5202 94.8035 25.5202H95.7729C95.7996 25.5201 95.826 25.5262 95.85 25.5381C95.8739 25.5499 95.8948 25.5672 95.9109 25.5886C95.9269 25.6099 95.9378 25.6347 95.9426 25.661C95.9474 25.6873 95.946 25.7144 95.9385 25.74C95.6525 26.7095 94.2706 26.6372 93.6714 26.1013C93.4045 25.8645 93.2419 25.5303 93.1837 25.0987C93.0271 23.9185 93.5721 22.6751 94.9781 22.9099C95.4056 22.9822 95.7127 23.214 95.8994 23.6054C95.9596 23.7298 96.0529 23.765 96.1794 23.7108L97.2964 23.226C97.4248 23.1698 97.4529 23.0825 97.3807 22.9641C96.8668 22.105 96.1342 21.6344 95.1828 21.5521C92.9809 21.3594 91.7596 22.3238 91.5187 24.4454C91.5067 25.463 91.7746 26.2739 92.3226 26.8781C93.265 27.9138 95.1557 28.1396 96.3721 27.4592ZM26.8387 27.6038C26.3731 27.7182 25.8743 27.7493 25.3424 27.6972C25.238 27.6851 25.1708 27.6289 25.1407 27.5286L24.9118 26.815C24.897 26.7662 24.8664 26.7235 24.8247 26.6932C24.7829 26.6628 24.7322 26.6464 24.68 26.6464H22.7742C22.6658 26.6464 22.5956 26.6976 22.5635 26.8L22.3407 27.5105C22.3065 27.6229 22.2313 27.6821 22.1149 27.6881L21.6331 27.7122L20.8082 27.658C20.6958 27.652 20.6586 27.5958 20.6968 27.4894L21.8228 24.4666L22.8043 21.8443C22.8485 21.7278 22.9338 21.6686 23.0602 21.6666L24.4211 21.6606C24.5315 21.6606 24.6057 21.7118 24.6439 21.8141L26.8387 27.6038ZM24.2946 25.4451C24.3094 25.445 24.3239 25.4413 24.337 25.4344C24.35 25.4276 24.3613 25.4177 24.3698 25.4057C24.3783 25.3936 24.3839 25.3797 24.386 25.3651C24.3881 25.3505 24.3867 25.3356 24.3819 25.3217L23.825 23.6868C23.8183 23.6691 23.8063 23.6538 23.7907 23.643C23.7751 23.6323 23.7566 23.6265 23.7376 23.6265C23.7187 23.6265 23.7002 23.6323 23.6846 23.643C23.669 23.6538 23.657 23.6691 23.6503 23.6868L23.0843 25.3307C23.0795 25.3449 23.0781 25.3601 23.0804 25.3749C23.0827 25.3898 23.0885 25.4038 23.0973 25.4159C23.1062 25.4281 23.1178 25.4379 23.1313 25.4445C23.1448 25.4512 23.1596 25.4545 23.1746 25.4541L24.2946 25.4451ZM46.243 27.5526L45.5204 23.2622L45.2796 21.8502C45.2595 21.7278 45.1872 21.6665 45.0628 21.6665L43.8555 21.6756C43.7471 21.6756 43.6748 21.7258 43.6387 21.8261L42.603 24.605C42.5388 24.7817 42.4736 24.7827 42.4073 24.6081L41.3596 21.8231C41.3194 21.7167 41.2432 21.6635 41.1308 21.6635L39.9385 21.6696C39.8181 21.6716 39.7478 21.7318 39.7277 21.8502L38.7312 27.6971L40.1101 27.685C40.2305 27.685 40.2998 27.6248 40.3179 27.5044L40.7725 24.4696C40.7986 24.303 40.8417 24.299 40.9019 24.4575L42.0882 27.5195C42.1263 27.6178 42.1976 27.672 42.3019 27.682L42.7325 27.7212L43.994 24.6592C44.1245 24.3401 44.2148 24.3511 44.265 24.6924L44.6865 27.5646C44.6922 27.6021 44.7111 27.6364 44.7398 27.6612C44.7685 27.686 44.8051 27.6998 44.843 27.7001L46.1196 27.6941C46.1377 27.6943 46.1557 27.6906 46.1722 27.6832C46.1888 27.6758 46.2035 27.665 46.2153 27.6515C46.227 27.638 46.2356 27.6221 46.2404 27.605C46.2452 27.5879 46.2461 27.57 46.243 27.5526ZM60.2761 24.855V27.6038C60.1938 27.658 60.1095 27.6931 60.0232 27.7092L58.8852 27.6761C58.7768 27.6741 58.7226 27.6189 58.7226 27.5105L58.6714 21.7419C59.0909 21.6455 59.5666 21.6255 60.0985 21.6817C60.1989 21.6917 60.249 21.7469 60.249 21.8473L60.2761 24.855ZM72.9725 27.7031C73.0387 27.6951 73.0829 27.7001 73.1049 27.7182L74.3484 27.685C74.3745 27.6847 74.4002 27.6791 74.4242 27.6688C74.4482 27.6584 74.4698 27.6435 74.488 27.6247C74.5062 27.606 74.5205 27.5839 74.5301 27.5596C74.5397 27.5353 74.5445 27.5094 74.5441 27.4833L74.5381 24.301C74.536 24.1043 74.5953 24.0832 74.7157 24.2377L77.3049 27.5526C77.3792 27.6489 77.4766 27.6971 77.597 27.6971L78.7652 27.7001C78.9097 27.7021 78.9819 27.6298 78.9819 27.4833L78.9699 21.7689C78.9699 21.6987 78.9348 21.6635 78.8645 21.6635L77.4946 21.6786C77.4444 21.6786 77.4193 21.7037 77.4193 21.7539V25.0777C77.4193 25.2584 77.3642 25.2774 77.2538 25.1349L74.6465 21.8081C74.5702 21.7117 74.4718 21.6645 74.3514 21.6665L73.2193 21.6726C73.0588 21.6726 72.9785 21.7519 72.9785 21.9104L72.9725 27.7031Z" fill="white"/>
</g>
<defs>
<clipPath id="clip0_4134_9900">
<rect width="100.258" height="28" fill="white" transform="translate(0.870972 0.000976562)"/>
</clipPath>
</defs>
</svg>
