<svg width="44" height="36" fill="none" xmlns="http://www.w3.org/2000/svg"><g clip-path="url(#a)"><path fill-rule="evenodd" clip-rule="evenodd" d="M16.835.001h.503a3.23 3.23 0 0 1 1.878 1.622c.508.976.55 1.978.127 3.005-.026.061-.006.09.062.083L37.82 3.097a.164.164 0 0 1 .157.083L39.15 5.29c.03.056.044.115.04.178l-.464 5.362a.143.143 0 0 1-.11.136.44.44 0 0 1-.172.012c-.088-.01-.135.028-.142.116l-.152 1.779a.32.32 0 0 0 .034.171c.028.055.06.109.09.162.104.178.205.35.184.572-.085.944-.17 1.895-.253 2.855-.006.073.028.108.1.107a16.173 16.173 0 0 1 3.787.37c.06.012.106.045.136.099l1.174 2.126c.022.04.032.085.029.132l-.428 4.98c-.006.07-.045.106-.116.104l-.17-.001c-.078-.002-.1.033-.067.103.184.372.38.791.44 1.205.126.864.099 1.825-.082 2.883-.352 2.066-1.427 3.675-3.568 4.112a11.577 11.577 0 0 1-3.248.194 1.587 1.587 0 0 0-.411.038c-.08.014-.16.028-.24.035-7.874.719-16.606 1.487-26.198 2.304-.583.05-1.202.134-1.857.254-1.48.272-3.286.29-4.463-.672-.331-.272-.71-.812-1.138-1.619a74.942 74.942 0 0 0-1.04-1.892c-.21-.37-.346-1.039-.41-2.003v-1.467c.06-1.132.197-2.349.412-3.65.187-1.131.572-2.113 1.155-2.946a.122.122 0 0 0 .007-.14l-.668-1.197a.45.45 0 0 1-.055-.254l1.15-13.565c.005-.064.04-.099.104-.105l8.496-.743c.064-.005.085-.037.062-.098-.533-1.392-.28-2.671.76-3.837a2.61 2.61 0 0 1 .472-.41c.12-.082.22-.182.318-.282.139-.14.277-.28.473-.368.774-.351 1.545 0 2.112.55.046.046.096.05.148.011.296-.214.553-.444.772-.69.1-.112.327-.212.682-.299Zm-.545 2.484a.582.582 0 0 1 .04-.25c.046-.116.025-.129-.061-.038a2.335 2.335 0 0 0-.66 1.44c-.071.773.446 1.308 1.25 1.094 1.7-.451 1.528-2.312.333-3.167-.066-.046-.1-.03-.105.05-.025.394-.099.8-.433 1.042a.232.232 0 0 1-.234.022.227.227 0 0 1-.13-.193Zm-3.274.32a.512.512 0 0 1-.002-.245c.024-.1 0-.113-.07-.035-.278.305-.469.677-.57 1.115-.254 1.103.544 1.786 1.57 1.262.812-.415 1.066-1.084.763-2.007a1.947 1.947 0 0 0-.78-1.032c-.107-.072-.154-.044-.141.084.032.353-.086.673-.353.96a.246.246 0 0 1-.417-.103Zm20.231 6.372a.059.059 0 0 1-.064-.064l.146-1.675a.059.059 0 0 1 .054-.053l2.477-.213a.059.059 0 0 0 .053-.053l.179-2.128a.06.06 0 0 0-.017-.047.058.058 0 0 0-.047-.017l-5.147.444a.059.059 0 0 0-.054.053l-.879 10.305a.06.06 0 0 0 .017.047.06.06 0 0 0 .048.017l5.15-.462a.059.059 0 0 0 .054-.053l.176-2.126a.06.06 0 0 0-.017-.047.06.06 0 0 0-.047-.017l-2.434.217c-.01 0-.018 0-.026-.003a.058.058 0 0 1-.035-.036.06.06 0 0 1-.004-.025l.152-1.782a.059.059 0 0 1 .053-.054l2.098-.187a.06.06 0 0 0 .053-.053l.184-2.1a.058.058 0 0 0-.017-.047.06.06 0 0 0-.047-.017l-2.059.176Zm-6.107 4.56c-.008 0-.017 0-.024-.004a.054.054 0 0 1-.034-.033.057.057 0 0 1-.003-.024l.686-7.981a.057.057 0 0 0-.015-.045.056.056 0 0 0-.045-.016l-2.579.234a.055.055 0 0 0-.05.05l-.879 10.308c0 .008 0 .016.003.024a.056.056 0 0 0 .034.034.053.053 0 0 0 .024.003l4.839-.423a.055.055 0 0 0 .05-.05l.192-2.21c0-.008 0-.016-.003-.024a.055.055 0 0 0-.058-.036l-2.138.192Zm-5.74.509a.057.057 0 0 1-.06-.036.057.057 0 0 1-.003-.025l.692-7.98a.057.057 0 0 0-.038-.06.057.057 0 0 0-.025-.003l-2.577.232a.057.057 0 0 0-.052.052l-.878 10.308a.057.057 0 0 0 .062.062l4.832-.424a.057.057 0 0 0 .051-.052l.2-2.21a.057.057 0 0 0-.062-.06l-2.143.196Zm-9.567-6.054c-.214.457-.362 1.026-.444 1.705a64.95 64.95 0 0 0-.396 4.591c-.066 1.342.014 2.732 1.763 2.829a9.238 9.238 0 0 0 2.238-.15c2.175-.41 2.445-1.83 2.68-3.825.232-1.964.333-3.613.304-4.947-.024-1.034-.683-1.702-1.71-1.775-1.464-.102-3.74.078-4.435 1.572Zm-4.597 5.583a.06.06 0 0 1 .048.017.058.058 0 0 1 .017.048l-.332 3.897a.059.059 0 0 0 .064.063l2.584-.234a.059.059 0 0 0 .053-.055l.88-10.301a.057.057 0 0 0-.018-.046.059.059 0 0 0-.047-.016l-2.57.23a.059.059 0 0 0-.053.053l-.339 3.874a.059.059 0 0 1-.053.054l-1.077.092a.06.06 0 0 1-.047-.017.058.058 0 0 1-.017-.047l.339-3.837a.059.059 0 0 0-.064-.062l-2.577.237a.059.059 0 0 0-.052.055l-.879 10.294a.059.059 0 0 0 .065.064l2.559-.226a.06.06 0 0 0 .053-.054l.335-3.942a.058.058 0 0 1 .054-.053l1.074-.088Zm30.27 11.708c.007.313-.03.636-.111.97a.559.559 0 0 1-.471.42c-.753.096-1.606.144-2.557.144-.07 0-.109.035-.114.105L34.084 29c-.005.055.02.084.075.089 1.306.137 3.026.176 4.27-.294 1.46-.55 1.754-2.456 1.814-3.966.032-.825-.07-1.992-1.048-2.172a17.001 17.001 0 0 0-1.643-.214c-.226-.019-.346-.142-.36-.369-.036-.552-.052-1.297.68-1.383a14.696 14.696 0 0 1 2.252-.101c.068.002.104-.03.11-.098l.157-1.879c.006-.067-.025-.106-.093-.116a9.63 9.63 0 0 0-3.528.152c-1.091.255-1.77 1.026-2.052 2.073-.213.8-.684 3.961.638 4.099.524.053 1.096.115 1.715.185.285.032.43.191.435.478ZM31.065 23.2a.056.056 0 0 1-.046-.017.058.058 0 0 1-.016-.046l.14-1.69a.057.057 0 0 1 .052-.051l2.483-.223a.057.057 0 0 0 .051-.051l.182-2.132a.058.058 0 0 0-.016-.046.058.058 0 0 0-.046-.016l-5.154.447a.057.057 0 0 0-.052.052l-.877 10.306a.057.057 0 0 0 .063.062l5.157-.449a.057.057 0 0 0 .052-.051l.166-2.132a.057.057 0 0 0-.063-.062l-2.432.223a.057.057 0 0 1-.063-.063l.154-1.79a.057.057 0 0 1 .051-.053l2.1-.183a.057.057 0 0 0 .051-.052l.188-2.106a.056.056 0 0 0-.038-.06.058.058 0 0 0-.025-.003l-2.062.186Zm-8.952 3.027a.053.053 0 0 1-.044-.05l-.259-6.082c-.003-.08-.044-.116-.123-.109l-3.733.323c-.082.007-.127.052-.134.135l-.868 10.196c-.006.067.024.097.091.091l2.368-.201c.03-.003.046-.019.049-.048l.6-6.98c.005-.059.036-.078.093-.058l.046.016c.013.005.02.013.02.026l.36 6.812c.005.08.047.118.128.11l2.053-.174c.073-.006.117-.045.132-.116l1.58-7.052c.005-.015.014-.021.03-.018l.047.01c.04.01.058.034.054.074l-.59 6.88c-.007.078.029.114.107.108l2.337-.207c.065-.005.1-.04.105-.105l.87-10.22c.005-.072-.027-.104-.099-.097l-3.726.324c-.06.005-.095.037-.107.095l-1.303 6.26c-.01.044-.037.063-.084.057ZM11.688 29.49a.056.056 0 0 1 .05-.043l1.77-.16a.056.056 0 0 1 .041.013.054.054 0 0 1 .02.038l.081 1.64a.057.057 0 0 0 .02.039.055.055 0 0 0 .02.01c.006.003.014.003.021.003l2.579-.23a.056.056 0 0 0 .048-.04.053.053 0 0 0 .002-.02l-.98-10.147a.052.052 0 0 0-.007-.02.055.055 0 0 0-.054-.03l-3.828.33a.055.055 0 0 0-.05.041L8.684 31.39a.055.055 0 0 0 .058.07l2.526-.223a.055.055 0 0 0 .05-.043l.37-1.705Zm-5.6-1.76-.135 1.56c-.032.369-.229.516-.591.444a3.039 3.039 0 0 1-.125-.025c-.38-.076-.565-.308-.554-.697.054-1.891.2-3.452.434-4.681.15-.78.89-.897 1.562-.941.692-.046 1.352-.05 1.98-.015.08.005.125-.033.133-.114l.164-1.837c.009-.085-.03-.131-.114-.141-1.551-.185-2.904-.113-4.058.216-1.486.422-2.053 1.694-2.306 3.083a26.646 26.646 0 0 0-.4 3.901c-.024.765.036 1.45.18 2.057.27 1.124 1.264 1.427 2.3 1.388 1.19-.044 2.346-.24 3.468-.588a.15.15 0 0 0 .114-.143l.503-5.84c.006-.068-.026-.098-.095-.09l-2.82.252c-.067.006-.103.043-.108.11l-.155 1.916c-.007.077.027.112.103.106l.407-.036c.083-.007.12.03.114.114Zm8.149-12.658-.146.009c-.298.017-.44-.124-.426-.422.08-1.715.228-3.43.445-5.146.049-.385.266-.594.65-.627a.843.843 0 0 1 .135-.003c.298.01.44.165.429.465a57.59 57.59 0 0 1-.444 5.127c-.05.377-.264.576-.643.597Zm-1.159 8.3c-.057.19-.11.4-.158.629a204.598 204.598 0 0 1-.68 3.136c-.016.076.014.11.092.104l.985-.08c.073-.006.107-.046.104-.12l-.186-3.65c-.015-.312-.067-.319-.157-.02Z" fill="#fff"/></g><defs><clipPath id="a"><path fill="#fff" transform="translate(.436 .001)" d="M0 0h43.129v36H0z"/></clipPath></defs></svg>