<svg width="44" height="36" viewBox="0 0 44 36" fill="none" xmlns="http://www.w3.org/2000/svg">
<g clip-path="url(#clip0_4132_8603)">
<path fill-rule="evenodd" clip-rule="evenodd" d="M16.8353 0.000976562H17.3378C18.1778 0.289689 18.804 0.830284 19.2163 1.62276C19.7236 2.59939 19.7658 3.60098 19.3428 4.62751C19.3167 4.68929 19.3374 4.71721 19.4052 4.71127L37.8204 3.09662C37.8518 3.09402 37.8834 3.10054 37.9112 3.1154C37.939 3.13025 37.9619 3.15282 37.9772 3.18038L39.1499 5.2887C39.1808 5.34454 39.1939 5.40395 39.1891 5.46692L38.7258 10.8295C38.7198 10.8996 38.683 10.9447 38.6153 10.9649C38.5582 10.9804 38.5012 10.9845 38.4442 10.9774C38.3563 10.9667 38.3087 11.0053 38.3016 11.0933L38.1501 12.8719C38.1454 12.9313 38.1566 12.9883 38.184 13.043C38.2123 13.0984 38.2436 13.1519 38.2746 13.205L38.2746 13.2051C38.3782 13.3825 38.479 13.5551 38.4584 13.7772C38.3729 14.7206 38.2885 15.6723 38.2054 16.6323C38.1994 16.7047 38.2327 16.7404 38.3052 16.7392C39.5812 16.7131 40.8436 16.836 42.0923 17.1081C42.1529 17.1212 42.198 17.1544 42.2277 17.2079L43.4022 19.334C43.4242 19.3736 43.4342 19.4194 43.4307 19.4659L43.003 24.4453C42.997 24.5166 42.9584 24.5517 42.8871 24.5505L42.7161 24.5487C42.6388 24.5475 42.6168 24.582 42.6501 24.6521C42.8337 25.0245 43.0297 25.4434 43.0903 25.8568C43.2163 26.7206 43.1889 27.6818 43.0083 28.7404C42.6555 30.8059 41.5808 32.4152 39.4404 32.8519C38.3723 33.0693 37.2893 33.134 36.1915 33.0461C36.0509 33.0349 35.916 33.0591 35.7805 33.0835C35.7013 33.0977 35.6219 33.112 35.541 33.1192C27.6673 33.838 18.9347 34.6061 9.34299 35.4235C8.75963 35.4723 8.14062 35.5566 7.48596 35.6766C6.00676 35.9493 4.19963 35.9671 3.02339 35.0047C2.69191 34.7327 2.3123 34.1933 1.88458 33.3865C1.56379 32.7806 1.21745 32.1497 0.84557 31.4938C0.635273 31.1232 0.498639 30.4554 0.435669 29.4907V28.0239C0.495075 26.8917 0.632303 25.675 0.847352 24.374C1.03389 23.243 1.41884 22.261 2.0022 21.4281C2.03428 21.383 2.03666 21.336 2.00933 21.2873L1.34102 20.0915C1.29804 20.0148 1.27881 19.9262 1.28577 19.8366L2.43527 6.27246C2.44121 6.2083 2.47626 6.17325 2.54042 6.16731L11.0361 5.42414C11.1002 5.41939 11.121 5.38672 11.0984 5.32612C10.565 3.93365 10.818 2.65464 11.8576 1.4891C11.9919 1.33939 12.1493 1.20276 12.3299 1.07919C12.4508 0.996866 12.5498 0.896635 12.6484 0.796743C12.7868 0.656609 12.9246 0.517141 13.1212 0.428699C13.8947 0.0776102 14.6664 0.428699 15.2331 0.979392C15.2794 1.02454 15.3287 1.02811 15.381 0.990085C15.6769 0.776224 15.9341 0.546323 16.1527 0.300382C16.2525 0.187511 16.48 0.0877092 16.8353 0.000976562ZM16.2899 2.48533C16.2852 2.39979 16.2988 2.31662 16.3309 2.23583C16.3761 2.11939 16.3553 2.10632 16.2685 2.19662C15.88 2.60177 15.6602 3.08177 15.6091 3.63662C15.5378 4.41009 16.0547 4.94474 16.8584 4.73088C18.5586 4.27999 18.3875 2.41939 17.1917 1.56395C17.1264 1.51761 17.0913 1.53424 17.0866 1.61385C17.0616 2.00771 16.9885 2.41405 16.6535 2.65642C16.62 2.68052 16.5807 2.69526 16.5397 2.6991C16.4986 2.70294 16.4573 2.69573 16.4202 2.67824C16.383 2.66074 16.3513 2.6336 16.3284 2.59966C16.3054 2.56572 16.2922 2.52623 16.2899 2.48533ZM13.0161 2.80434C12.9959 2.73068 12.9953 2.64929 13.0143 2.56018C13.038 2.45919 13.0149 2.44731 12.9448 2.52454C12.6656 2.82989 12.4755 3.20177 12.3745 3.64018C12.1196 4.74335 12.918 5.42593 13.9446 4.90197C14.7561 4.48731 15.0103 3.8184 14.7073 2.89523C14.566 2.46395 14.3058 2.11999 13.9268 1.86335C13.8198 1.79088 13.7729 1.8188 13.786 1.94712C13.818 2.29999 13.7004 2.62018 13.4331 2.90771C13.4032 2.93971 13.3653 2.96315 13.3233 2.9756C13.2813 2.98805 13.2367 2.98906 13.1942 2.97852C13.1517 2.96798 13.1128 2.94628 13.0814 2.91566C13.0501 2.88504 13.0276 2.84661 13.0161 2.80434ZM33.2473 9.17741C33.2387 9.17824 33.23 9.17715 33.2218 9.17422C33.2137 9.17129 33.2063 9.16659 33.2001 9.16045C33.194 9.15432 33.1893 9.14691 33.1864 9.13875C33.1834 9.13059 33.1824 9.12188 33.1832 9.11325L33.3293 7.43801C33.3305 7.42423 33.3365 7.41132 33.3463 7.40154C33.3561 7.39177 33.369 7.38575 33.3828 7.38454L35.86 7.17246C35.8738 7.17126 35.8867 7.16524 35.8965 7.15546C35.9063 7.14568 35.9123 7.13277 35.9135 7.119L36.0917 4.99108C36.0925 4.98244 36.0914 4.97374 36.0885 4.96558C36.0856 4.95742 36.0809 4.95001 36.0747 4.94387C36.0686 4.93774 36.0612 4.93304 36.053 4.93011C36.0449 4.92718 36.0362 4.92609 36.0275 4.92692L30.8806 5.37068C30.8668 5.37188 30.8539 5.3779 30.8441 5.38768C30.8344 5.39746 30.8284 5.41037 30.8271 5.42414L29.9485 15.7287C29.9477 15.7373 29.9488 15.746 29.9517 15.7542C29.9547 15.7624 29.9594 15.7698 29.9655 15.7759C29.9716 15.782 29.979 15.7867 29.9872 15.7897C29.9954 15.7926 30.0041 15.7937 30.0127 15.7929L35.1632 15.3313C35.177 15.3301 35.1899 15.324 35.1996 15.3143C35.2094 15.3045 35.2154 15.2916 35.2166 15.2778L35.3931 13.1517C35.3939 13.143 35.3928 13.1343 35.3899 13.1262C35.387 13.118 35.3823 13.1106 35.3761 13.1045C35.37 13.0983 35.3626 13.0936 35.3544 13.0907C35.3463 13.0878 35.3376 13.0867 35.3289 13.0875L32.8945 13.3049C32.8858 13.3058 32.8771 13.3047 32.869 13.3017C32.8608 13.2988 32.8534 13.2941 32.8473 13.288C32.8411 13.2818 32.8364 13.2744 32.8335 13.2663C32.8306 13.2581 32.8295 13.2494 32.8303 13.2408L32.9818 11.4586C32.983 11.4448 32.989 11.4319 32.9988 11.4221C33.0086 11.4124 33.0215 11.4063 33.0353 11.4051L35.1329 11.218C35.1467 11.2168 35.1596 11.2108 35.1693 11.201C35.1791 11.1912 35.1851 11.1783 35.1864 11.1645L35.3699 9.06514C35.3707 9.0565 35.3697 9.0478 35.3667 9.03964C35.3638 9.03148 35.3591 9.02406 35.353 9.01793C35.3468 9.0118 35.3394 9.0071 35.3313 9.00417C35.3231 9.00124 35.3144 9.00015 35.3058 9.00098L33.2473 9.17741ZM27.1398 13.7362C27.1317 13.7371 27.1234 13.7361 27.1157 13.7333C27.1079 13.7306 27.1009 13.7261 27.0951 13.7203C27.0893 13.7145 27.0849 13.7075 27.0821 13.6998C27.0794 13.692 27.0784 13.6838 27.0792 13.6756L27.7654 5.69504C27.7662 5.68687 27.7652 5.67863 27.7625 5.67089C27.7597 5.66316 27.7553 5.65614 27.7495 5.65034C27.7437 5.64453 27.7366 5.6401 27.7289 5.63735C27.7212 5.6346 27.7129 5.63361 27.7048 5.63444L25.126 5.86791C25.1131 5.8691 25.1011 5.87474 25.092 5.88385C25.0829 5.89296 25.0772 5.90498 25.0761 5.91781L24.1974 16.2259C24.1966 16.2341 24.1976 16.2423 24.2003 16.2501C24.2031 16.2578 24.2075 16.2648 24.2133 16.2706C24.2191 16.2764 24.2262 16.2809 24.2339 16.2836C24.2416 16.2864 24.2499 16.2874 24.258 16.2865L29.0967 15.8641C29.1095 15.863 29.1215 15.8573 29.1306 15.8482C29.1397 15.8391 29.1454 15.8271 29.1466 15.8142L29.339 13.6043C29.3399 13.5962 29.3389 13.5879 29.3361 13.5802C29.3334 13.5725 29.3289 13.5654 29.3231 13.5596C29.3173 13.5538 29.3103 13.5494 29.3026 13.5467C29.2948 13.5439 29.2866 13.5429 29.2784 13.5437L27.1398 13.7362ZM21.3994 14.2459C21.3912 14.2467 21.3829 14.2457 21.3751 14.243C21.3673 14.2402 21.3601 14.2358 21.3542 14.2301C21.3483 14.2243 21.3437 14.2173 21.3407 14.2096C21.3377 14.2019 21.3365 14.1936 21.337 14.1853L22.0285 6.20474C22.0294 6.19634 22.0283 6.18786 22.0255 6.17992C22.0226 6.17197 22.0181 6.16475 22.0121 6.15879C22.0061 6.15282 21.9989 6.14825 21.991 6.14541C21.983 6.14257 21.9746 6.14153 21.9662 6.14236L19.3891 6.37405C19.3758 6.37524 19.3634 6.38107 19.3539 6.39052C19.3445 6.39996 19.3386 6.41243 19.3374 6.42573L18.4588 16.7338C18.458 16.7422 18.459 16.7507 18.4619 16.7587C18.4647 16.7666 18.4693 16.7738 18.4753 16.7798C18.4812 16.7858 18.4884 16.7903 18.4964 16.7932C18.5043 16.796 18.5128 16.7971 18.5212 16.7962L23.3527 16.3721C23.366 16.3709 23.3785 16.365 23.3879 16.3556C23.3973 16.3461 23.4032 16.3337 23.4044 16.3204L23.604 14.1105C23.6045 14.1022 23.6033 14.0939 23.6003 14.0862C23.5974 14.0785 23.5927 14.0715 23.5868 14.0657C23.5809 14.06 23.5738 14.0556 23.566 14.0528C23.5581 14.0501 23.5498 14.0491 23.5416 14.0499L21.3994 14.2459ZM11.8327 8.19187C11.6188 8.64929 11.4709 9.21781 11.3889 9.89741C11.2 11.455 11.0681 12.9853 10.9933 14.4883C10.9273 15.8303 11.0075 17.2204 12.7559 17.3166C13.4996 17.3582 14.2458 17.3083 14.9943 17.1669C17.1685 16.757 17.4394 15.3366 17.6747 13.3424C17.9064 11.3784 18.0073 9.72929 17.9776 8.39504C17.9545 7.36137 17.2951 6.69306 16.2685 6.61999C14.8036 6.5184 12.5277 6.6984 11.8327 8.19187ZM7.23646 13.7754C7.24509 13.7746 7.2538 13.7757 7.26196 13.7786C7.27012 13.7816 7.27753 13.7863 7.28366 13.7924C7.28979 13.7985 7.29449 13.8059 7.29742 13.8141C7.30035 13.8223 7.30145 13.831 7.30062 13.8396L6.96913 17.7372C6.96858 17.7457 6.96988 17.7542 6.97293 17.7621C6.97598 17.7701 6.98072 17.7773 6.98682 17.7832C6.99292 17.7891 7.00024 17.7937 7.00826 17.7965C7.01628 17.7993 7.02482 17.8004 7.03329 17.7996L9.61745 17.5661C9.63151 17.5649 9.64464 17.5586 9.65446 17.5484C9.66427 17.5383 9.67011 17.525 9.67091 17.5109L10.5495 7.20989C10.5501 7.2014 10.5488 7.19289 10.5457 7.18495C10.5427 7.17701 10.5379 7.16983 10.5318 7.1639C10.5257 7.15797 10.5184 7.15343 10.5104 7.1506C10.5024 7.14778 10.4938 7.14672 10.4854 7.14751L7.91547 7.37741C7.90169 7.37862 7.88878 7.38464 7.87901 7.39441C7.86923 7.40419 7.86321 7.4171 7.862 7.43088L7.52339 11.3053C7.52219 11.3191 7.51617 11.332 7.50639 11.3418C7.49661 11.3516 7.4837 11.3576 7.46992 11.3588L6.39349 11.4515C6.38486 11.4523 6.37615 11.4512 6.36799 11.4483C6.35983 11.4453 6.35242 11.4406 6.34629 11.4345C6.34016 11.4284 6.33546 11.421 6.33253 11.4128C6.32959 11.4047 6.3285 11.3959 6.32933 11.3873L6.66794 7.55028C6.6685 7.54179 6.6672 7.53329 6.66415 7.52535C6.66109 7.51741 6.65635 7.51023 6.65025 7.5043C6.64415 7.49837 6.63684 7.49383 6.62882 7.491C6.6208 7.48817 6.61226 7.48712 6.60379 7.48791L4.02676 7.72494C4.01302 7.72659 4.00031 7.73304 3.99085 7.74315C3.9814 7.75325 3.97581 7.76637 3.97507 7.78018L3.09646 18.074C3.09563 18.0827 3.09672 18.0914 3.09965 18.0995C3.10259 18.1077 3.10729 18.1151 3.11342 18.1212C3.11955 18.1274 3.12696 18.1321 3.13512 18.135C3.14328 18.1379 3.15199 18.139 3.16062 18.1382L5.71983 17.9119C5.7336 17.9107 5.74651 17.9046 5.75629 17.8949C5.76607 17.8851 5.77209 17.8722 5.77329 17.8584L6.10834 13.9162C6.10955 13.9024 6.11556 13.8895 6.12534 13.8798C6.13512 13.87 6.14803 13.864 6.16181 13.8628L7.23646 13.7754ZM37.5067 25.4826C37.5127 25.7962 37.4753 26.1194 37.3945 26.4521C37.3676 26.5617 37.3083 26.6605 37.2243 26.7356C37.1403 26.8107 37.0356 26.8585 36.924 26.8727C36.1707 26.9689 35.3182 27.017 34.3666 27.017C34.2965 27.017 34.2584 27.0521 34.2525 27.1222L34.085 28.9988C34.0802 29.0535 34.1052 29.0832 34.1598 29.0879C35.4662 29.2251 37.186 29.2643 38.4299 28.7938C39.8895 28.2432 40.1836 26.338 40.2442 24.8285C40.2762 24.0034 40.1747 22.836 39.1963 22.656C38.7103 22.5657 38.1626 22.4944 37.5531 22.4422C37.3273 22.4232 37.2073 22.3002 37.1931 22.0733C37.1574 21.5208 37.1414 20.7758 37.8739 20.6903C38.6497 20.5976 39.4 20.5637 40.1248 20.5887C40.1925 20.5911 40.2293 20.5584 40.2353 20.4907L40.3921 18.6123C40.398 18.5445 40.3671 18.5059 40.2994 18.4964C39.097 18.3301 37.9208 18.3806 36.7707 18.6479C35.68 18.9028 35.001 19.6744 34.7194 20.7206C34.5056 21.5208 34.0351 24.6824 35.3574 24.8196C35.8814 24.8731 36.4529 24.9348 37.0719 25.0049C37.357 25.037 37.502 25.1962 37.5067 25.4826ZM31.0642 23.1996C31.0558 23.2004 31.0473 23.1994 31.0394 23.1965C31.0314 23.1937 31.0242 23.1891 31.0182 23.1832C31.0123 23.1772 31.0077 23.17 31.0048 23.162C31.002 23.1541 31.001 23.1456 31.0018 23.1372L31.1426 21.4477C31.1438 21.4344 31.1496 21.4219 31.1591 21.4125C31.1685 21.4031 31.181 21.3972 31.1943 21.396L33.6768 21.1733C33.6902 21.1721 33.7026 21.1662 33.7121 21.1568C33.7215 21.1473 33.7273 21.1349 33.7285 21.1216L33.9103 18.9901C33.9111 18.9817 33.9101 18.9732 33.9073 18.9653C33.9044 18.9573 33.8999 18.9501 33.8939 18.9441C33.8879 18.9382 33.8807 18.9336 33.8728 18.9308C33.8648 18.9279 33.8563 18.9269 33.8479 18.9277L28.6939 19.375C28.6806 19.3762 28.6681 19.3821 28.6587 19.3915C28.6492 19.401 28.6434 19.4134 28.6422 19.4267L27.7654 29.7331C27.7645 29.7415 27.7656 29.7499 27.7684 29.7579C27.7713 29.7658 27.7758 29.773 27.7818 29.779C27.7878 29.785 27.795 29.7895 27.8029 29.7924C27.8109 29.7952 27.8193 29.7963 27.8277 29.7954L32.9854 29.3463C32.9987 29.3451 33.0111 29.3393 33.0206 29.3298C33.03 29.3204 33.0358 29.3079 33.037 29.2946L33.2028 27.1632C33.2036 27.1548 33.2026 27.1463 33.1997 27.1383C33.1983 27.1342 33.1963 27.1303 33.1939 27.1266C33.1918 27.1232 33.1892 27.1201 33.1864 27.1172C33.1804 27.1112 33.1732 27.1067 33.1652 27.1038C33.1573 27.101 33.1488 27.0999 33.1404 27.1008L30.7077 27.3235C30.6993 27.3244 30.6909 27.3233 30.6829 27.3205C30.675 27.3177 30.6678 27.3131 30.6618 27.3071C30.6558 27.3012 30.6513 27.2939 30.6484 27.286C30.6456 27.278 30.6445 27.2696 30.6454 27.2612L30.7986 25.4701C30.7998 25.4568 30.8057 25.4443 30.8151 25.4349C30.8245 25.4254 30.837 25.4196 30.8503 25.4184L32.9497 25.2348C32.963 25.2336 32.9755 25.2278 32.9849 25.2184C32.9944 25.2089 33.0002 25.1965 33.0014 25.1832L33.1885 23.0766C33.1894 23.0682 33.1883 23.0597 33.1855 23.0518C33.1826 23.0439 33.1781 23.0366 33.1721 23.0307C33.1698 23.0283 33.1673 23.0262 33.1646 23.0244C33.1604 23.0214 33.1558 23.019 33.151 23.0173C33.143 23.0145 33.1346 23.0134 33.1262 23.0142L31.0642 23.1996ZM22.1123 26.2275C22.1003 26.2255 22.0893 26.2195 22.0812 26.2104C22.0732 26.2013 22.0684 26.1898 22.0677 26.1776L21.8093 20.095C21.8058 20.0154 21.7648 19.9792 21.6864 19.9863L17.9527 20.3089C17.8707 20.316 17.8262 20.3612 17.819 20.4443L16.9511 30.6402C16.9452 30.7067 16.9755 30.737 17.042 30.7311L19.4105 30.5297C19.4402 30.5273 19.4563 30.5113 19.4586 30.4816L20.0592 23.5026C20.064 23.4432 20.0949 23.4235 20.1519 23.4437L20.1982 23.4598C20.2113 23.4645 20.2178 23.4734 20.2178 23.4865L20.5778 30.298C20.5826 30.3788 20.6254 30.4156 20.7062 30.4085L22.7592 30.2338C22.8317 30.2279 22.8757 30.1893 22.8911 30.118L24.4719 23.0659C24.4755 23.0505 24.485 23.0445 24.5004 23.0481L24.5485 23.0588C24.5877 23.0671 24.6056 23.0915 24.602 23.1319L24.0121 30.0111C24.005 30.0895 24.0406 30.1257 24.119 30.1198L26.4555 29.9131C26.5208 29.9083 26.5559 29.8733 26.5606 29.8079L27.4303 19.5889C27.4363 19.5164 27.4036 19.4837 27.3323 19.4909L23.6058 19.8152C23.5464 19.82 23.5107 19.8515 23.4988 19.9097C23.0664 21.9925 22.6321 24.0794 22.1961 26.1705C22.1866 26.2144 22.1586 26.2335 22.1123 26.2275ZM11.6883 29.4889C11.691 29.4774 11.6973 29.467 11.7062 29.4593C11.7152 29.4516 11.7264 29.447 11.7382 29.4461L13.5079 29.2857C13.5153 29.285 13.5228 29.2858 13.5299 29.288C13.537 29.2902 13.5436 29.2938 13.5492 29.2987C13.5549 29.3035 13.5595 29.3094 13.5628 29.3161C13.5662 29.3227 13.5681 29.33 13.5685 29.3374L13.6505 30.977C13.651 30.9844 13.6529 30.9917 13.6562 30.9984C13.6595 31.005 13.6642 31.0109 13.6698 31.0158C13.6755 31.0206 13.682 31.0242 13.6891 31.0264C13.6962 31.0287 13.7037 31.0294 13.7111 31.0287L16.2899 30.7988C16.2972 30.7981 16.3043 30.796 16.3107 30.7926C16.3172 30.7892 16.3229 30.7845 16.3275 30.7789C16.3321 30.7733 16.3356 30.7668 16.3377 30.7598C16.3399 30.7528 16.3406 30.7455 16.3398 30.7382L15.3596 20.5923C15.359 20.585 15.3569 20.5779 15.3534 20.5715C15.35 20.565 15.3454 20.5593 15.3397 20.5547C15.3341 20.55 15.3276 20.5466 15.3206 20.5444C15.3136 20.5423 15.3063 20.5416 15.299 20.5424L11.4709 20.8721C11.4593 20.8728 11.4483 20.8772 11.4394 20.8845C11.4304 20.8919 11.424 20.9019 11.421 20.9131L8.68359 31.3905C8.68123 31.3991 8.68101 31.4082 8.68295 31.417C8.68489 31.4257 8.68893 31.4339 8.69471 31.4407C8.7005 31.4475 8.70787 31.4529 8.71618 31.4562C8.72448 31.4596 8.73348 31.4609 8.7424 31.46L11.2677 31.2372C11.2795 31.2364 11.2908 31.2318 11.2997 31.2241C11.3087 31.2164 11.315 31.206 11.3176 31.1944L11.6883 29.4889ZM6.08874 27.7281L5.95329 29.2893C5.92121 29.6576 5.72398 29.8055 5.36161 29.7331C5.31527 29.7247 5.27369 29.7164 5.23686 29.7081C4.85666 29.6321 4.67191 29.3998 4.6826 29.0113C4.73725 27.1198 4.8822 25.5592 5.11745 24.3295C5.26715 23.5507 6.00676 23.4331 6.67864 23.3885C7.37131 23.3434 8.03131 23.3386 8.65864 23.3742C8.73943 23.379 8.78398 23.341 8.7923 23.2602L8.95626 21.4228C8.96458 21.3384 8.92656 21.2915 8.8422 21.282C7.29052 21.0966 5.93785 21.1685 4.78418 21.4976C3.29785 21.92 2.73111 23.1925 2.47804 24.5808C2.25705 25.795 2.12399 27.0954 2.07884 28.482C2.05389 29.2471 2.11389 29.9327 2.25884 30.5386C2.52795 31.6632 3.5224 31.9661 4.55785 31.9269C5.74834 31.883 6.90438 31.6869 8.02596 31.3388C8.09606 31.3174 8.13408 31.2699 8.14002 31.1962L8.6426 25.356C8.64854 25.2883 8.61705 25.258 8.54814 25.2651L5.72874 25.5182C5.66101 25.5241 5.62478 25.561 5.62002 25.6287L5.46497 27.5445C5.45785 27.6206 5.4923 27.6556 5.56834 27.6497L5.97468 27.614C6.05785 27.6069 6.09587 27.6449 6.08874 27.7281ZM14.2368 15.0711L14.0907 15.08C13.7925 15.0966 13.6505 14.9558 13.6648 14.6576C13.7444 12.9431 13.8929 11.2281 14.1103 9.51245C14.159 9.12749 14.3759 8.91839 14.7608 8.88512C14.806 8.88037 14.8505 8.87918 14.8945 8.88155C15.1927 8.89225 15.3359 9.0473 15.324 9.3467C15.2539 11.0457 15.106 12.7548 14.8802 14.474C14.8303 14.8507 14.6159 15.0497 14.2368 15.0711ZM13.0784 23.3706C13.0214 23.5607 12.9685 23.7704 12.9198 23.9997C12.6977 25.0655 12.4713 26.111 12.2408 27.1363C12.2242 27.2124 12.2545 27.2468 12.3317 27.2397L13.3173 27.1595C13.3897 27.1536 13.4242 27.1138 13.4206 27.0401L13.2353 23.3902C13.2198 23.0777 13.1676 23.0712 13.0784 23.3706Z" fill="white"/>
</g>
<defs>
<clipPath id="clip0_4132_8603">
<rect width="43.1287" height="36" fill="white" transform="translate(0.435669 0.000976562)"/>
</clipPath>
</defs>
</svg>
