<svg width="80" height="30" fill="none" xmlns="http://www.w3.org/2000/svg"><path fill-rule="evenodd" clip-rule="evenodd" d="M39.148.001c10.135 0 19.661 1.524 26.836 4.296 7.337 2.806 11.35 6.616 11.35 10.704 0 4.088-4.013 7.864-11.35 10.704-7.175 2.772-16.701 4.296-26.836 4.296-10.134 0-19.66-1.524-26.836-4.296C5.016 22.9.962 19.09.962 15.001c0-4.088 4.013-7.864 11.35-10.704C19.488 1.525 29.014 0 39.148 0Zm-36.97 15c0 7.69 16.58 13.96 36.97 13.96s36.97-6.27 36.97-13.96c0-7.69-16.58-13.96-36.97-13.96S2.178 7.31 2.178 15Zm68.145-6.582c-.608.104-1.297.138-2.067.173 0-.381-.122-.727-.365-1.005-.244-.277-.608-.52-1.095-.658a5.866 5.866 0 0 0-1.662-.242c-1.216 0-2.23.242-3 .762-1.094.693-1.946 1.974-2.513 3.81h-1.54l-.122.347h1.58L55.893 23.21c1.094-.139 2.31-.208 3.607-.243l3.568-11.362h2.716l-1.946 5.716c-.122.38-.203.762-.203 1.074 0 .554.203 1.004.568 1.35.365.347.932.486 1.662.486.77 0 1.419-.174 1.946-.555.527-.346.932-.866 1.216-1.524l.365-.935h-.365l-.325.727c-.162.381-.364.693-.648.936-.284.242-.527.38-.81.38-.285 0-.406-.138-.406-.38 0-.104 0-.208.04-.312l2.392-6.963h2.027l.04-.347H69.35l.973-2.84ZM64.93 9.978c.284.207.69.312 1.176.312h.04l-.324.935H63.107l.73-2.252c.284-.866.567-1.42.973-1.697.243-.174.567-.278.973-.278.162 0 .324.035.527.104-.568.174-.973.45-1.297.797a1.738 1.738 0 0 0-.487 1.213c-.04.38.122.692.405.866ZM11.705 19.4c-.08-.069-.121-.208-.121-.38 0-.174.04-.451.162-.832l2.635-8.453c.121-.416.284-.727.405-.935.122-.208.325-.312.568-.416.243-.07.608-.104 1.094-.138l.081-.347c-.973.035-2.23.035-3.73.035-1.62 0-2.796 0-3.526-.035l-.122.347c.325 0 .609.034.811.069a.807.807 0 0 1 .406.173.558.558 0 0 1 .121.381c0 .173-.04.45-.162.832l-2.635 8.452a4.125 4.125 0 0 1-.405.936c-.162.207-.325.346-.568.415-.243.07-.567.104-1.054.139l-.08.346c.77-.035 1.945-.035 3.526-.035 1.621 0 2.878 0 3.73.035l.08-.346c-.324 0-.608-.035-.81-.07-.162-.034-.325-.069-.406-.173Zm34.782-6.443c0 .416.122.762.324 1.04.244.276.527.38.933.38.284 0 .567-.069.77-.208.203-.138.365-.346.486-.588.122-.243.163-.486.163-.728 0-.693-.325-1.212-.973-1.524-.649-.312-1.46-.45-2.432-.45-.852 0-1.582.103-2.19.346-.608.208-1.053.52-1.337.935a2.188 2.188 0 0 0-.446 1.317c0 .277.04.588.162.831.081.277.203.52.365.728.067.085.14.195.227.323v.001c.124.182.272.402.462.646.365.52.649.97.851 1.385.203.416.284.797.284 1.143 0 .381-.122.693-.405.936-.284.242-.608.346-1.014.346-.284 0-.486-.035-.689-.139.081-.138.162-.277.243-.485.04-.103.081-.198.122-.294.04-.095.08-.19.121-.294.081-.208.081-.416.081-.659 0-.45-.121-.796-.364-1.073a1.205 1.205 0 0 0-.933-.416c-.08 0-.162 0-.243.035.446-.936.69-1.837.69-2.737 0-.936-.284-1.663-.893-2.148-.608-.485-1.5-.762-2.634-.762-1.5 0-2.757.346-3.811 1.004-.365.243-.73.52-1.013.797v-.138c0-.312-.082-.59-.244-.832a1.642 1.642 0 0 0-.648-.589c-.284-.138-.649-.208-1.054-.208-.446 0-.811.07-1.135.174-.325.138-.649.311-.933.623a4.274 4.274 0 0 0-.81 1.143v-.311c0-.485-.163-.866-.446-1.178-.284-.312-.77-.45-1.42-.45-.729 0-1.337.138-1.823.415.04-.138.08-.277.162-.416-1.095.139-2.27.243-3.608.243l-.243.727c-.081-.658-.487-.97-1.257-.97-.932 0-1.865.381-2.878 1.109-1.014.727-1.824 1.663-2.513 2.806-.69 1.143-1.014 2.217-1.014 3.291 0 .693.203 1.213.608 1.593.406.347 1.014.555 1.865.555.689 0 1.297-.139 1.784-.45.405-.243.81-.52 1.094-.901l-.973 2.736c-.203.693-.486 1.144-.77 1.351-.203.14-.446.208-.77.208-.096 0-.193-.021-.309-.047l-.097-.022c.446-.139.77-.346 1.054-.658.244-.277.365-.624.365-.97a.85.85 0 0 0-.324-.693 2.201 2.201 0 0 0-.973-.242c-.324 0-.649.069-.892.207-.243.139-.486.312-.608.52-.162.208-.203.416-.203.658 0 .312.082.59.284.797l.02.025c.194.232.359.429.75.53.365.138.933.311 1.46.311h.284c2.675-.381 3.85-.693 5.107-4.642l.053-.159c.265-.793.278-.832 2.339-6.735.162-.104.324-.173.486-.173.162 0 .244.104.244.277 0 .071-.02.159-.045.274a8.33 8.33 0 0 0-.037.177l-2.432 7.378h3.527l1.46-4.78c.445-1.178.891-2.079 1.297-2.668.405-.589.81-.935 1.135-1.074.324-.138.73-.208 1.135-.208.04 0 .162.035.284.07-.406.07-.77.208-1.095.415-.324.208-.608.45-.81.763a1.675 1.675 0 0 0-.285.935c0 .416.122.727.365.97.244.208.608.312 1.095.312.324 0 .608-.035.851-.139a5.974 5.974 0 0 0-.69 2.806c0 .936.285 1.628.893 2.148.608.485 1.5.762 2.635.762 1.5 0 2.756-.346 3.81-1.004a5.517 5.517 0 0 0 1.338-1.11c.04.728.365 1.283 1.054 1.594.69.347 1.58.52 2.635.52.851 0 1.58-.104 2.148-.346.608-.243 1.054-.52 1.338-.936.324-.38.446-.831.446-1.281 0-.381-.081-.763-.243-1.178-.162-.416-.487-.936-.933-1.56-.059-.1-.162-.24-.292-.415-.048-.064-.1-.134-.153-.208-.203-.277-.365-.554-.527-.831-.163-.277-.203-.554-.203-.832 0-.45.121-.796.365-1.004.243-.243.608-.347 1.054-.347.202 0 .364.035.486.07-.162.138-.324.38-.446.658 0 .114-.018.242-.036.38-.022.155-.045.32-.045.486Zm-25.539-.485-1.54 4.4c-.324.83-.608 1.385-.892 1.697-.283.312-.527.485-.77.485a.396.396 0 0 1-.365-.208c-.08-.139-.08-.381-.08-.693 0-.97.202-1.94.567-2.944.405-1.005.85-1.836 1.378-2.495.527-.658.973-.97 1.378-.97.243 0 .365.174.365.486 0 .069 0 .138-.04.242Zm16.824 3.187a13.56 13.56 0 0 1-1.46 3.014c-.567.831-1.013 1.212-1.378 1.212a.288.288 0 0 1-.284-.208c-.08-.138-.08-.38-.08-.727 0-1.005.202-2.113.648-3.291.405-1.212.932-2.252 1.5-3.083.567-.866 1.054-1.282 1.418-1.282.122 0 .203.07.244.208.04.139.08.381.08.797a14.22 14.22 0 0 1-.688 3.36Zm20.59-1.836c0 .935-.243 1.905-.77 2.91-.527 1.005-1.338 1.836-2.351 2.529-1.054.658-2.31 1.005-3.81 1.005-1.136 0-2.028-.278-2.636-.763-.608-.52-.892-1.212-.892-2.147 0-.97.244-1.94.77-2.945.528-1.005 1.298-1.836 2.352-2.494 1.054-.658 2.31-1.005 3.81-1.005 1.136 0 2.027.277 2.635.762.608.485.892 1.213.892 2.148Zm-5.391 4.85a13.563 13.563 0 0 0 1.46-3.014c.404-1.212.607-2.356.688-3.36 0-.416-.04-.658-.08-.797-.041-.139-.123-.208-.244-.208-.365 0-.851.416-1.419 1.282-.567.831-1.094 1.87-1.5 3.083-.446 1.178-.648 2.286-.648 3.291 0 .347 0 .589.08.728.041.138.163.207.284.207.365 0 .811-.38 1.379-1.212ZM76.482 4.504 76.36 4.4c.325-.069.527-.173.69-.346a.86.86 0 0 0 .243-.589c0-.312-.122-.554-.365-.693-.243-.173-.649-.242-1.135-.242h-1.338v3.36h.77V4.574h.325c.08 0 .121 0 .162.034.015.013.03.022.044.029.021.01.037.02.037.04l.81 1.109c.041.07.122.104.244.104h.73l-.933-1.247a.353.353 0 0 1-.124-.1.43.43 0 0 0-.038-.039Zm-.405-.415c-.122.034-.244.034-.406.034h-.486V3.015h.567c.163 0 .284 0 .365.034l.243.104c.04.035.122.104.122.173.04.07.04.139.04.243 0 .104 0 .173-.04.242a.746.746 0 0 1-.122.174c-.04.034-.162.069-.283.104Zm2.029-1.802c.283.242.527.52.689.866.162.311.243.692.243 1.108 0 .381-.081.728-.243 1.074a2.978 2.978 0 0 1-.69.866c-.283.243-.607.45-1.013.589a3.8 3.8 0 0 1-1.257.208c-.283 0-.567-.035-.85-.104a4.829 4.829 0 0 1-.771-.277 2.482 2.482 0 0 1-.649-.416c-.202-.173-.405-.346-.527-.554a3.484 3.484 0 0 1-.324-.658 2.282 2.282 0 0 1-.121-.728c0-.242.04-.485.121-.727.081-.243.203-.45.324-.659.163-.207.325-.38.527-.554.203-.173.406-.346.649-.45.243-.104.487-.208.77-.277.284-.07.568-.104.852-.104a3.8 3.8 0 0 1 1.256.208c.365.138.73.346 1.014.589Zm.08 3.117c.122-.173.203-.346.284-.554.082-.208.082-.416.082-.658 0-.243 0-.45-.082-.658-.08-.208-.162-.416-.283-.59a2.726 2.726 0 0 0-.446-.484 3.046 3.046 0 0 0-.568-.381c-.202-.104-.405-.208-.648-.243-.244-.034-.487-.07-.73-.07s-.487 0-.73.07-.446.139-.648.243c-.14.07-.259.158-.386.25a7.21 7.21 0 0 1-.182.13 1.377 1.377 0 0 0-.446.486 3.9 3.9 0 0 0-.284.589c-.04.208-.08.45-.08.658 0 .208 0 .416.08.623.082.208.163.416.284.59.122.173.284.346.446.484.162.139.365.277.568.381.202.104.405.174.648.243.243.034.487.07.73.07s.486 0 .73-.07l.136-.046a3.59 3.59 0 0 0 .512-.197c.203-.104.406-.242.568-.38.203-.14.324-.312.446-.486Z" fill="#fff"/></svg>