<svg width="76" height="28" fill="none" xmlns="http://www.w3.org/2000/svg"><path d="M14.407 28c7.732 0 14-6.268 14-14s-6.268-14-14-14-14 6.268-14 14a13.97 13.97 0 0 0 5.019 10.74 7.155 7.155 0 0 1-.24-.245c3.978-.073 7.547-1.216 10.707-3.43.247-.173.495-.37.744-.589.37-.326.322-.409-.145-.246a9.08 9.08 0 0 1-1.208.327c-2.793.568-5.341 1.132-7.643 1.69a.149.149 0 0 1-.103-.013.154.154 0 0 1-.07-.078l-.027-.067A.065.065 0 0 1 7.48 22a436.065 436.065 0 0 0 9.797-3.43c.137-.05.137-.101 0-.153l-8.493-3.223-1.125-.404a.137.137 0 0 1-.096-.122.625.625 0 0 0-.01-.07c-.006-.031.007-.046.038-.044l.286.005 2.696.695 7.264 1.76c.121.03.148-.01.08-.117l-3.746-5.88a.403.403 0 0 1-.093-.119c-.043-.084-.017-.122.078-.114.104.01.205.067.303.169l4.835 5.086c.061.064.094.052.099-.036l.703-9.984.075-1.62c.003-.102.056-.154.158-.156h.101a.114.114 0 0 1 .117.112l.02.811.444 9.96c.008.187.06.2.153.037 2.04-3.538 2.801-7.405 2.286-11.602-.027-.026.008-.057.107-.093l.697.661c.268 3.357-.252 6.551-1.56 9.585l-.708 1.306c-.175.325-.132.357.13.096a377.039 377.039 0 0 0 4.176-4.27c.012-.012.024-.012.036 0l.06.045c.046.04.053.084.02.134l-3.932 5.904c-.097.146-.06.201.111.163l5.65-1.232-.138.835-4.942 1.75c-.236.083-.237.17-.002.26l3.793 1.441-.472.863-3.93-.977c-.17-.042-.208.011-.114.158l2.151 3.37-.541.56-2.946-3.147a.094.094 0 0 0-.099-.024.094.094 0 0 0-.061.081l-.387 5.55-.923.413-.233-5.958a.114.114 0 0 0-.195-.075l-5.045 5.165a.097.097 0 0 1-.106.019.095.095 0 0 1-.031-.022l-.052-.052c-.019-.02-.02-.043-.005-.067l3.388-5.027c.248-.365.2-.41-.145-.135l-1.154.923a19.95 19.95 0 0 1-3.668 1.98c-1.986.816-4.116 1.29-6.39 1.424a.837.837 0 0 1-.072-.036A13.938 13.938 0 0 0 14.408 28ZM55.212 20.681l.005-3.653c0-.081-.041-.122-.124-.122h-4.322c-.123 0-.184-.06-.184-.181l.003-2.67a.12.12 0 0 1 .036-.087.126.126 0 0 1 .088-.035l7.638-.003c.088 0 .132.045.132.135v8.413c0 .09-.038.158-.114.205-4.273 2.727-10.08 2.997-14.156-.26a9.39 9.39 0 0 1-2.965-4.067c-2.367-6.228 1.247-12.707 7.738-13.91 3.086-.572 6.087.018 9.005 1.768.084.052.102.12.054.205l-1.42 2.474a.132.132 0 0 1-.082.063.127.127 0 0 1-.1-.017c-1.53-.954-3.123-1.48-4.778-1.579-3.381-.2-6.262 1.559-7.203 4.887-.593 2.106-.352 4.548.858 6.38 1.307 1.982 3.183 3.03 5.629 3.146 1.536.072 2.91-.213 4.12-.856a.25.25 0 0 0 .142-.236ZM34.793 4.57h3.178c.056 0 .102.046.102.102v19.693a.101.101 0 0 1-.102.101h-3.178a.101.101 0 0 1-.101-.1V4.671c0-.056.045-.101.101-.101ZM75.593 7.65V4.574l-15.81-.002c-.095 0-.143.047-.143.142l-.01 2.829a.109.109 0 0 0 .03.077.107.107 0 0 0 .076.032l6.132.002c.018 0 .035.007.047.02.013.011.02.028.02.045l-.002 16.603c0 .099.049.148.147.148l3.114-.003c.076 0 .114-.038.114-.114l-.002-16.629c0-.046.022-.07.067-.07l6.22-.002Z" fill="#fff"/></svg>