<svg width="148" height="24" fill="none" xmlns="http://www.w3.org/2000/svg"><path fill-rule="evenodd" clip-rule="evenodd" d="M4.047 5.807a7.621 7.621 0 0 1 3.586.01.037.037 0 0 0 .032-.007.04.04 0 0 0 .015-.03c-.001-1.313 0-2.684.005-4.113.001-.517.32-1.067.755-1.351 1.212-.794 2.708.075 2.707 1.516-.002 4.21 0 8.517.003 12.923 0 .572-.117 1.073-.416 1.573a.048.048 0 0 1-.032.022.045.045 0 0 1-.036-.01 1.154 1.154 0 0 0-.614-.287c-.55-.065-1.02-.057-1.411.025-.666.14-.873.805-.87 1.417 0 .05-.025.074-.075.074H3.841a.075.075 0 0 1-.075-.074c-.016-.813-.31-1.42-1.2-1.47l-.032-.001c-.537-.03-1.13-.062-1.587.244a.054.054 0 0 1-.045.008.058.058 0 0 1-.036-.029A2.797 2.797 0 0 1 .513 14.9c.002-4.207.002-8.57 0-13.088 0-.584.217-1.055.65-1.411.908-.747 2.286-.353 2.7.736.086.226.126.557.12.994a183.544 183.544 0 0 0-.007 3.62c.001.048.025.067.071.056ZM1.423 7.22c.498-.5 1.053-.822 1.698-1.107.04-.018.06-.05.06-.095-.004-1.58-.004-2.986.003-4.22C3.19.504 1.31.507 1.31 1.752c0 1.753 0 3.56-.002 5.42 0 .108.038.124.115.047Zm7.113-1.102a5.165 5.165 0 0 1 1.72 1.123c.059.059.088.046.088-.037-.004-1.731-.003-3.52 0-5.365.004-1.366-1.866-1.316-1.868-.103-.004 1.453-.004 2.883-.002 4.29a.097.097 0 0 0 .062.092ZM3.97 13.692l-2.167-.394a.106.106 0 0 0-.078.017.104.104 0 0 0-.044.068l-.023.127a1.237 1.237 0 0 0 .191.91 1.196 1.196 0 0 0 .77.503l.017.003a1.179 1.179 0 0 0 .897-.2 1.22 1.22 0 0 0 .499-.785l.022-.127a.105.105 0 0 0-.084-.122Zm5.89-.386-2.21.4a.082.082 0 0 0-.065.096l.023.133c.058.32.237.604.498.79.26.186.582.259.892.202l.03-.005c.31-.056.585-.237.763-.503.179-.266.246-.595.188-.914l-.023-.134a.082.082 0 0 0-.095-.065Zm-3.99 1.96c.278.418.674.655 1.176.622.095-.006.141-.057.138-.153l-.001-.03c-.004-.097-.054-.146-.152-.147-.41-.003-.707-.172-.893-.507-.02-.036-.014-.067.018-.093.19-.16.37-.656-.023-.69a4.452 4.452 0 0 0-.62-.005.235.235 0 0 0-.218.2c-.026.193.04.36.201.501.03.027.035.057.015.092a.949.949 0 0 1-.858.499.182.182 0 0 0-.183.132.105.105 0 0 0-.004.055c.02.104.083.155.19.153.493-.01.869-.22 1.127-.627.028-.046.057-.046.087-.001Z" fill="#fff"/><path d="m108.078 5.105-1.552.419c-.044.012-.068-.005-.071-.051-.077-1.184-.361-2.509-1.836-2.517-.992-.006-1.518.478-1.576 1.454-.045.75.22 1.38.794 1.89.817.727 1.647 1.457 2.491 2.192a7.397 7.397 0 0 1 1.444 1.708c.666 1.077.815 2.679.291 3.837-.598 1.32-1.897 1.882-3.328 1.811-1.532-.076-2.571-.821-3.117-2.237a5.406 5.406 0 0 1-.368-1.864c0-.008.002-.015.007-.022a.033.033 0 0 1 .018-.012l1.64-.442a.069.069 0 0 1 .055.01.081.081 0 0 1 .019.02.084.084 0 0 1 .008.028c.069.949.324 2.598 1.45 2.886.838.216 1.812-.027 2.009-.962.197-.936.022-1.728-.525-2.377a9.79 9.79 0 0 0-.945-.97 140.096 140.096 0 0 0-1.957-1.724c-.561-.483-.952-.894-1.173-1.231-.569-.871-.687-2.024-.513-3.058.24-1.428 1.31-2.301 2.766-2.44 1.388-.131 2.802.2 3.477 1.52.303.592.486 1.275.549 2.052a.07.07 0 0 1-.014.05.073.073 0 0 1-.043.03Z" fill="#fff"/><path fill-rule="evenodd" clip-rule="evenodd" d="M139.791 11.402c.004 2.106.67 4.079 3.033 4.395a5.74 5.74 0 0 0 2.173-.103c1.97-.494 2.502-2.522 2.511-4.289.009-2.049.006-3.988-.007-5.817-.015-1.885-.711-3.695-2.739-4.058-.939-.168-1.822-.133-2.648.106-1.13.327-1.821 1.22-2.108 2.358a6.42 6.42 0 0 0-.211 1.541c-.006 1.997-.008 3.952-.004 5.867Zm1.995-6.038c.003-.9.117-2 1.109-2.29.53-.154 1.342-.152 1.829.132.771.45.791 1.583.792 2.423.003 2.384 0 4.544-.009 6.48a4.14 4.14 0 0 1-.089.78c-.155.794-.567 1.305-1.445 1.385-1.81.167-2.184-.94-2.188-2.477-.007-2.33-.007-4.473.001-6.433Z" fill="#fff"/><path d="M17.105 13.884a2.96 2.96 0 0 0 .187-1.086c.004-3.768.005-7.492.002-11.175a.072.072 0 0 1 .022-.052.075.075 0 0 1 .052-.022l1.837.002a.05.05 0 0 1 .05.05v11.03c0 .608-.068 1.168-.206 1.683-.48 1.802-2.28 1.762-3.757 1.71-.033-.001-.05-.018-.05-.052l.001-1.286c0-.052.026-.078.078-.079.651-.008 1.515-.035 1.784-.723Z" fill="#fff"/><path fill-rule="evenodd" clip-rule="evenodd" d="M20.766 15.694h1.731a.062.062 0 0 0 .06-.051l.66-3.46a.062.062 0 0 1 .06-.05l2.766.001a.062.062 0 0 1 .06.05l.623 3.458a.061.061 0 0 0 .06.05l1.75.002a.06.06 0 0 0 .06-.047.062.062 0 0 0 0-.028l-2.99-14.021a.062.062 0 0 0-.06-.048l-1.808-.001a.061.061 0 0 0-.06.049L20.706 15.62a.062.062 0 0 0 .034.068.06.06 0 0 0 .026.006Zm3.912-11.178 1.142 6.156a.034.034 0 0 1-.02.037.035.035 0 0 1-.014.004h-2.249c-.031 0-.044-.015-.038-.045l1.127-6.153c.017-.094.034-.094.052 0ZM33.6 15.68c-1.193.018-2.367.021-3.522.01a.046.046 0 0 1-.033-.014.048.048 0 0 1-.013-.033V1.615a.066.066 0 0 1 .065-.065c1.015-.002 2.025-.002 3.031.002 1.747.006 3.373.442 3.91 2.336.19.672.251 1.368.25 2.04-.004 1.72-.006 3.515-.007 5.383 0 1.026-.189 1.916-.564 2.67-.588 1.178-1.817 1.681-3.117 1.7Zm-.128-1.423c.967-.045 1.562-.522 1.704-1.505.06-.406.091-.802.097-1.187.025-1.886.028-3.829.008-5.827a7.244 7.244 0 0 0-.15-1.479c-.163-.739-.676-1.14-1.54-1.205a13.5 13.5 0 0 0-1.553-.018.036.036 0 0 0-.035.036l.001 11.16c0 .026.013.039.04.04.463.013.94.008 1.428-.015Z" fill="#fff"/><path d="m41.186 14.232-.001-5.088a.045.045 0 0 1 .045-.045h2.746a.045.045 0 0 0 .046-.045V7.738a.045.045 0 0 0-.046-.045l-2.745.002a.045.045 0 0 1-.045-.045V3.072a.045.045 0 0 1 .045-.045h3.416a.045.045 0 0 0 .045-.045V1.595a.045.045 0 0 0-.046-.045H39.25a.045.045 0 0 0-.045.045v14.053c0 .012.005.024.013.032.009.008.02.013.032.013h5.424a.046.046 0 0 0 .032-.013.046.046 0 0 0 .013-.032v-1.33a.046.046 0 0 0-.013-.031.046.046 0 0 0-.032-.013l-3.443.003a.045.045 0 0 1-.045-.045Z" fill="#fff"/><path fill-rule="evenodd" clip-rule="evenodd" d="M52.266 9.132v6.506a.056.056 0 0 1-.057.056h-1.876a.051.051 0 0 1-.05-.051V1.593a.044.044 0 0 1 .043-.043c.932-.001 1.892 0 2.881.003.761.002 1.435.097 2.022.286 1.324.425 1.9 1.46 2.022 2.808.134 1.484-.088 3.387-1.648 3.937-.042.015-.057.043-.045.086l1.964 6.944c.015.054-.005.08-.06.08h-1.773a.073.073 0 0 1-.069-.054l-1.81-6.505c-.013-.044-.043-.066-.089-.066l-1.39-.001c-.044 0-.065.021-.065.064Zm2.871-2.435c.317-.706.3-1.773.098-2.541-.22-.835-.87-1.123-1.651-1.161a21.557 21.557 0 0 0-1.268-.02c-.036 0-.053.018-.053.054l.005 4.544c0 .04.02.06.058.063.984.054 2.362.064 2.811-.939ZM61.142 12.133l2.774.001a.056.056 0 0 1 .054.045l.626 3.468a.055.055 0 0 0 .054.045l1.762.003a.054.054 0 0 0 .024-.005.055.055 0 0 0 .03-.037.056.056 0 0 0 0-.024L63.475 1.593a.055.055 0 0 0-.054-.044h-1.818a.056.056 0 0 0-.054.045l-2.975 14.033a.056.056 0 0 0 .054.067l1.745-.002a.056.056 0 0 0 .054-.045l.661-3.469a.055.055 0 0 1 .054-.045Zm1.348-7.596c.02-.11.04-.11.06 0l1.136 6.114c.008.043-.01.064-.053.064l-2.225-.001a.04.04 0 0 1-.03-.014.04.04 0 0 1-.008-.033l1.12-6.13ZM73.03 8.119c1.733.429 2.25 1.853 2.262 3.468.012 1.382-.313 2.816-1.5 3.56-.57.358-1.228.539-1.975.542-1.187.006-2.474.007-3.863.004-.038 0-.056-.018-.055-.055V1.637c0-.06.03-.09.09-.09l3.243.005c1.518.002 2.971.455 3.465 2.008.303.95.306 2.301-.074 3.232-.283.69-.813 1.114-1.591 1.272-.082.016-.082.034-.001.055Zm.055-1.933a5.2 5.2 0 0 0 .045-1.876c-.157-.987-.894-1.188-1.76-1.246-.49-.034-.971-.046-1.445-.035-.035 0-.052.018-.052.053v4.302c0 .036.018.056.054.057a14.1 14.1 0 0 0 1.67-.026c.792-.061 1.33-.478 1.488-1.23Zm.22 6.595c.264-1.45.181-3.646-1.816-3.793a13.95 13.95 0 0 0-1.588-.02c-.02.002-.03.012-.03.03l.002 5.238c0 .027.014.04.042.04.45.002.904 0 1.364-.003 1.094-.008 1.817-.345 2.027-1.492ZM84.371 12.49c.208-1.895-.141-3.842-2.213-4.372-.08-.02-.079-.038.001-.055 1.877-.379 2.042-2.423 1.799-3.954-.299-1.874-1.746-2.54-3.507-2.552a333.61 333.61 0 0 0-3.359-.01.067.067 0 0 0-.065.067v14.031c0 .014.006.028.016.038.01.01.024.016.038.016 1.02-.012 2.056-.012 3.105 0 .843.01 1.475-.047 1.898-.172 1.438-.425 2.127-1.578 2.287-3.038Zm-2.105-8.13c.063.423.072.846.03 1.27-.101 1.003-.43 1.69-1.584 1.785-.516.043-1.068.051-1.656.024-.035-.002-.053-.02-.053-.056v-4.3c0-.037.017-.056.054-.056.737-.018 1.397.017 1.982.102.711.103 1.12.514 1.227 1.23ZM81.18 9.102c1.335.43 1.418 2.017 1.325 3.169-.09 1.117-.474 1.883-1.682 1.973-.49.036-1.076.046-1.761.029-.04-.002-.06-.022-.06-.062V9.026c0-.046.022-.068.067-.067.145 0 .293-.002.443-.004h.001c.565-.01 1.148-.02 1.668.147Z" fill="#fff"/><path d="M88.154 1.555h-1.848a.05.05 0 0 0-.05.049v14.041c0 .027.022.05.05.05h1.848a.05.05 0 0 0 .05-.05V1.604a.05.05 0 0 0-.05-.05ZM89.692 3.026l2.28.004a.052.052 0 0 1 .052.052l-.001 12.56a.052.052 0 0 0 .052.053l1.873-.003A.052.052 0 0 0 94 15.64l-.001-12.561a.052.052 0 0 1 .052-.052h2.21a.052.052 0 0 0 .052-.052V1.602a.052.052 0 0 0-.053-.052h-6.567a.053.053 0 0 0-.052.052l-.001 1.371a.052.052 0 0 0 .052.053ZM111.455 3.1c.003-.008.004-.017.003-.025a.052.052 0 0 0-.029-.041.054.054 0 0 0-.025-.006l-2.286-.001c-.042 0-.063-.021-.063-.062l.001-1.372c0-.012.005-.023.013-.03a.047.047 0 0 1 .032-.013h6.575c.008 0 .016.002.024.005a.071.071 0 0 1 .02.014.059.059 0 0 1 .014.02.065.065 0 0 1 .004.024l.004 1.363a.052.052 0 0 1-.015.036.051.051 0 0 1-.036.015h-2.224a.048.048 0 0 0-.034.013.047.047 0 0 0-.014.034v12.564a.056.056 0 0 1-.056.057l-1.869-.002a.052.052 0 0 1-.037-.015.056.056 0 0 1-.015-.037V3.179c0-.027.004-.053.013-.079ZM122.611 10.894c0 .816-.01 1.815-.366 2.558-.235.492-.647.767-1.236.825-1.153.113-1.827-.416-2.023-1.587a8.669 8.669 0 0 1-.123-1.448c-.003-3.187-.004-6.397-.004-9.629a.064.064 0 0 0-.018-.045.067.067 0 0 0-.046-.02l-1.755.002a.072.072 0 0 0-.051.02.07.07 0 0 0-.022.051c-.001 2.956-.001 6.119.001 9.49.001.796.09 1.564.269 2.306.206.86.637 1.5 1.292 1.922.928.6 2.511.628 3.567.357 1.264-.323 1.919-1.284 2.177-2.524.141-.684.212-1.392.213-2.123.002-3.307.002-6.457 0-9.452 0-.031-.016-.046-.047-.046l-1.76-.002a.068.068 0 0 0-.068.067v9.278Z" fill="#fff"/><path fill-rule="evenodd" clip-rule="evenodd" d="M130.148 15.683c-1.103.013-2.285.016-3.547.01-.033 0-.05-.018-.05-.051l.006-14.03c0-.042.02-.062.061-.062h3.007c1.891.003 3.514.517 3.987 2.543a7.76 7.76 0 0 1 .196 1.742 791.67 791.67 0 0 1-.001 5.35c-.007 1.853-.497 3.807-2.546 4.339a4.661 4.661 0 0 1-1.113.159Zm1.615-3.54c.03-.472.046-.935.046-1.388.002-1.577.002-3.164.002-4.76 0-.608-.05-1.166-.148-1.675-.196-1.015-.993-1.281-1.908-1.29a64.165 64.165 0 0 0-1.204-.001c-.02 0-.03.01-.03.03l.002 11.176c0 .01.005.022.012.03a.043.043 0 0 0 .03.012c.398 0 .789-.002 1.171-.006 1.498-.017 1.939-.726 2.027-2.129Z" fill="#fff"/><path d="M135.885 1.549h1.826c.033 0 .059.026.059.06v14.026c0 .033-.026.06-.059.06h-1.826a.059.059 0 0 1-.059-.06V1.608c0-.033.026-.06.059-.06ZM2.599 18.48c-.185.433-.71.481-.92.03a.042.042 0 0 0-.076-.001c-.256.525-.987.356-.972-.228.002-.1.001-.21 0-.322-.006-.735-.015-1.651.912-1.77.35-.044.722-.047 1.115-.01.998.095.986 1.093.976 1.856 0 .087-.002.17-.001.25.004.59-.75.74-.979.195-.018-.044-.037-.044-.055 0ZM9.11 18.735c.355.17.61.086.764-.252.02-.044.04-.044.057.002.2.509.948.408.964-.142.01-.33.007-.664-.01-1.004-.03-.599-.27-1.086-.943-1.159a4.428 4.428 0 0 0-1.185.023c-.403.064-.655.294-.757.69-.07.271-.106.628-.109 1.07 0 .364 0 .79.45.852.242.034.416-.065.524-.297.023-.05.05-.052.079-.004l.097.16c.017.027.04.048.069.061ZM36.215 18.234c-.19-.435-.97-.455-1.088.05-.093.393.068.693.36.938l.204.17c.716.589 1.564 1.287 1.332 2.32-.141.626-.57.934-1.288.925-.844-.01-1.257-.684-1.292-1.488 0-.009.002-.018.007-.024a.036.036 0 0 1 .02-.014l.58-.155c.022-.006.034.002.035.024.062.802.352 1.158.87 1.07a.46.46 0 0 0 .393-.358.988.988 0 0 0-.275-.971c-.302-.304-.63-.602-.984-.894-.53-.437-.735-.93-.609-1.588.092-.479.386-.767.881-.864.975-.19 1.524.343 1.61 1.284.001.009-.002.015-.01.019-.094.047-.296.104-.606.17-.005 0-.007 0-.007-.005a1.692 1.692 0 0 0-.133-.61Z" fill="#fff"/><path fill-rule="evenodd" clip-rule="evenodd" d="M40.989 22.593c1.171.256 1.856-.38 1.86-1.54.002-.73.001-1.474-.003-2.233-.004-.65-.283-1.29-.98-1.432-1.154-.235-1.854.335-1.854 1.529v2.113c0 .687.222 1.399.977 1.563Zm.939-4.492a.621.621 0 0 1 .182.44v2.894a.621.621 0 0 1-.622.621h-.117a.621.621 0 0 1-.621-.621V18.54a.621.621 0 0 1 .621-.622h.117c.165 0 .323.065.44.182Z" fill="#fff"/><path d="M60.648 21.65a1.002 1.002 0 0 0-.291-.94 14.229 14.229 0 0 0-.995-.898c-.249-.205-.42-.416-.51-.633-.168-.393-.166-.999.088-1.367.324-.47.97-.545 1.494-.405.553.149.764.67.822 1.195.007.059-.018.096-.075.11l-.44.12c-.073.02-.11-.007-.113-.081-.018-.413-.163-.818-.631-.84-.76-.037-.739.845-.322 1.212l.976.864c.44.388.67.836.695 1.344.035.765-.45 1.299-1.217 1.313-.898.016-1.375-.642-1.392-1.5 0-.018.008-.028.024-.033l.588-.158c.013-.004.02.001.021.015.038.547.196 1.2.911 1.072a.462.462 0 0 0 .367-.39ZM17.276 18.9c.007-.038.017-.039.032-.004.033.086.059.177.077.273.223 1.217.431 2.336.626 3.357.008.039.031.058.071.058l.402.003c.047 0 .074-.024.081-.07l.804-5.028c.011-.068-.018-.102-.086-.102l-.4-.003a.107.107 0 0 0-.108.093l-.48 3.317c-.03.209-.065.21-.104.002l-.626-3.316c-.009-.049-.038-.073-.088-.073l-.371.001c-.052 0-.082.025-.09.075l-.624 3.346c-.034.184-.065.183-.093-.003l-.505-3.409a.017.017 0 0 0-.014-.014c-.08-.022-.275-.025-.582-.01-.003 0-.005.002-.008.003a.017.017 0 0 0-.006.005.017.017 0 0 0-.003.006v.008l.834 5.122c.006.034.026.05.06.05l.448-.002c.038 0 .06-.019.068-.056l.685-3.63ZM20.738 17.985v1.612a.045.045 0 0 0 .045.045l.953.002c.012 0 .023.005.032.013.008.008.013.02.014.031l.004.424a.044.044 0 0 1-.013.032.044.044 0 0 1-.032.014h-.958a.045.045 0 0 0-.046.045l.002 1.81a.045.045 0 0 0 .045.045l1.203-.007a.045.045 0 0 1 .045.045v.445a.045.045 0 0 1-.045.046h-1.935a.045.045 0 0 1-.045-.045l-.002-5.11a.045.045 0 0 1 .045-.045h1.934a.045.045 0 0 1 .045.045l-.004.463a.045.045 0 0 1-.045.045h-1.196a.045.045 0 0 0-.046.044Z" fill="#fff"/><path fill-rule="evenodd" clip-rule="evenodd" d="m24.481 22.552.236-1.24a.042.042 0 0 1 .04-.033l.982.003a.042.042 0 0 1 .041.035l.217 1.232a.042.042 0 0 0 .04.035l.61.002a.042.042 0 0 0 .033-.016.042.042 0 0 0 .008-.036L25.6 17.42a.042.042 0 0 0-.041-.034l-.638.004a.042.042 0 0 0-.041.032l-1.082 5.116a.042.042 0 0 0 .041.051l.601-.003c.01 0 .02-.004.026-.01a.042.042 0 0 0 .015-.024Zm.354-1.875.372-2.035c.025-.133.05-.133.074 0l.373 2.027c.01.052-.012.079-.065.079l-.696-.002a.06.06 0 0 1-.057-.044.058.058 0 0 1-.001-.025ZM27.943 20.218l.003 2.317c0 .033-.016.05-.049.05h-.64c-.032 0-.048-.015-.048-.046v-5.08c0-.04.02-.062.06-.064a9.867 9.867 0 0 1 1.455.03c1.024.108 1.186 1.084.995 1.896a.884.884 0 0 1-.535.647.048.048 0 0 0-.024.023.046.046 0 0 0-.003.032l.717 2.536c.004.015-.002.023-.018.023-.39.012-.618.007-.683-.016a.016.016 0 0 1-.01-.011l-.651-2.347c-.01-.037-.035-.057-.075-.057l-.424-.003c-.047 0-.07.023-.07.07Zm-.005-2.27.007 1.642a.03.03 0 0 0 .03.03l.452-.003a.634.634 0 0 0 .457-.196.668.668 0 0 0 .189-.471l-.002-.37a.675.675 0 0 0-.192-.47.639.639 0 0 0-.459-.193l-.452.002a.03.03 0 0 0-.03.03Z" fill="#fff"/><path d="M32.248 19.642h-.94a.052.052 0 0 1-.052-.051l.001-1.604c0-.013.006-.027.016-.036a.052.052 0 0 1 .037-.016l1.178.01a.052.052 0 0 0 .053-.053l-.002-.451a.052.052 0 0 0-.052-.052l-1.91-.002a.053.053 0 0 0-.052.053v5.093a.052.052 0 0 0 .051.052h1.935a.052.052 0 0 0 .048-.033.053.053 0 0 0 .004-.02l-.007-.427a.052.052 0 0 0-.052-.05l-1.195.002a.052.052 0 0 1-.053-.052l.001-1.796a.052.052 0 0 1 .053-.052l.94.002a.052.052 0 0 0 .053-.052l-.002-.413a.052.052 0 0 0-.053-.052ZM38.386 22.058l1.233-.005a.046.046 0 0 1 .047.046v.44a.046.046 0 0 1-.045.046h-1.962a.046.046 0 0 1-.046-.046v-5.103c0-.012.004-.024.013-.033a.046.046 0 0 1 .032-.013l.635-.003a.046.046 0 0 1 .047.046v4.58a.046.046 0 0 0 .046.045ZM44.846 22.533v-4.546a.052.052 0 0 1 .051-.052l.752.006a.052.052 0 0 0 .053-.052l.004-.45a.052.052 0 0 0-.053-.052l-2.362.002a.052.052 0 0 0-.052.052v.448a.052.052 0 0 0 .052.052l.777-.004a.052.052 0 0 1 .052.053v4.546a.053.053 0 0 0 .052.053l.622-.003a.052.052 0 0 0 .052-.053ZM48.192 20.155l-1.227-.001a.046.046 0 0 0-.032.013.046.046 0 0 0-.013.032l.006 2.338a.045.045 0 0 1-.045.045l-.653.006a.045.045 0 0 1-.045-.046l-.002-5.11c0-.012.005-.024.014-.032a.045.045 0 0 1 .032-.013l.652.003c.012 0 .023.004.032.013.008.008.013.02.013.032v2.155c0 .012.004.023.012.032.009.008.02.013.032.013h1.223a.046.046 0 0 0 .032-.012.046.046 0 0 0 .013-.032l-.002-2.158a.045.045 0 0 1 .045-.045l.645.003a.045.045 0 0 1 .045.045l.001 5.102a.045.045 0 0 1-.045.046l-.646.004a.045.045 0 0 1-.045-.046l.003-2.342a.045.045 0 0 0-.045-.045ZM51.507 19.644l-.96-.001a.04.04 0 0 1-.04-.04v-1.628a.04.04 0 0 1 .04-.04l1.197.007a.04.04 0 0 0 .04-.04l.006-.476a.04.04 0 0 0-.012-.028.04.04 0 0 0-.028-.012l-1.942.003a.04.04 0 0 0-.04.04l.001 5.118c0 .01.004.02.012.028a.04.04 0 0 0 .028.012h1.949a.04.04 0 0 0 .04-.04l-.002-.454a.04.04 0 0 0-.04-.04l-1.206.004a.042.042 0 0 1-.016-.003.04.04 0 0 1-.024-.03v-.006l-.004-1.82a.04.04 0 0 1 .04-.04h.96a.041.041 0 0 0 .026-.009l.002-.002a.035.035 0 0 0 .007-.009v-.002l.002-.002a.04.04 0 0 0 .003-.015v-.435a.04.04 0 0 0-.04-.04Z" fill="#fff"/><path fill-rule="evenodd" clip-rule="evenodd" d="m53.015 21.319-.231 1.228a.047.047 0 0 1-.047.037l-.593.005a.049.049 0 0 1-.02-.005.047.047 0 0 1-.027-.053l1.084-5.104a.047.047 0 0 1 .046-.037l.63-.005c.01 0 .02.004.03.011a.047.047 0 0 1 .016.027l1.087 5.11a.047.047 0 0 1-.01.039.047.047 0 0 1-.036.018l-.6-.006a.047.047 0 0 1-.046-.038l-.218-1.226a.047.047 0 0 0-.046-.04h-.972a.047.047 0 0 0-.047.039Zm.115-.602v.006l.001.002a.038.038 0 0 0 .006.01.031.031 0 0 0 .016.01l.004.001a.03.03 0 0 0 .005 0h.767c.005 0 .01 0 .014-.002a.031.031 0 0 0 .018-.024v-.011l-.385-2.096a.032.032 0 0 0-.05-.017.032.032 0 0 0-.011.017l-.385 2.096v.008ZM55.537 17.394a.054.054 0 0 0-.016.038l-.018 5.101.001.014v.002l.002.005a.055.055 0 0 0 .03.03.054.054 0 0 0 .02.005l1.256.004a1.361 1.361 0 0 0 1.257-.83 1.35 1.35 0 0 0 .105-.518l.009-2.505a1.35 1.35 0 0 0-.833-1.253 1.36 1.36 0 0 0-.52-.105l-1.255-.004a.054.054 0 0 0-.038.016Zm.699 4.636.014-4.068a.03.03 0 0 1 .03-.03l.48.002a.655.655 0 0 1 .485.214.762.762 0 0 1 .2.513l-.011 2.677a.746.746 0 0 1-.203.512.668.668 0 0 1-.485.211l-.48-.002a.03.03 0 0 1-.03-.03ZM6.371 20.75l-.135.1c-.04.029-.072.023-.098-.018a.878.878 0 0 0-.29-.28c-.051-.03-.05-.06.001-.09a4.33 4.33 0 0 0 1.574-1.591.105.105 0 0 1 .116-.057l.463.074a.077.077 0 0 1 .06.048.076.076 0 0 1-.013.076.61.61 0 0 1-.1.093c-.13.095-.114.14.047.136.368-.01.72-.012 1.054-.006a.61.61 0 0 1 .433.197c.023.023.025.048.006.074l-.442.598a.035.035 0 0 0-.003.036.035.035 0 0 0 .032.019l1.377-.003c.046 0 .068.022.068.068v1.714c0 .048-.024.072-.072.072l-1.39.004a.063.063 0 0 0-.063.064l.006 1.196c0 .078.04.117.117.117l1.146.002a.18.18 0 0 0 .18-.168l.04-.562c0-.004.002-.008.004-.012a.027.027 0 0 1 .01-.009.024.024 0 0 1 .014-.002c.004 0 .008.002.012.004.125.084.26.145.405.185.027.007.04.025.04.053 0 .366-.06.964-.526.987-.446.02-.935.021-1.465.002-.39-.016-.51-.273-.499-.619.01-.4.012-.773.002-1.12-.005-.15-.032-.155-.083-.014-.36 1.007-1.228 1.568-2.24 1.811a.05.05 0 0 1-.052-.02l-.269-.397a.019.019 0 0 1 0-.02c0-.002.002-.003.003-.004a.016.016 0 0 1 .007-.004c.868-.199 1.65-.592 2.017-1.425a.035.035 0 0 0-.032-.049H6.52c-.053 0-.079-.026-.079-.079l.006-1.143c0-.063-.025-.076-.076-.038Zm1.127-1.031c-.004 0-.009 0-.013.002a.034.034 0 0 0-.011.008l-.357.376a.034.034 0 0 0 .006.052.033.033 0 0 0 .02.005l1.221-.007a.033.033 0 0 0 .027-.014l.277-.366a.034.034 0 0 0-.01-.049.033.033 0 0 0-.017-.005l-1.143-.002Zm.494 1.799a.06.06 0 0 0 .058-.051l.1-.748a.06.06 0 0 0-.033-.062.06.06 0 0 0-.025-.006l-1.08-.003a.06.06 0 0 0-.06.06l.002.756a.06.06 0 0 0 .06.059l.978-.005Zm.737-.87a.054.054 0 0 0-.053.047l-.097.767a.053.053 0 0 0 .054.061l1.296-.003a.053.053 0 0 0 .054-.053l-.007-.762a.053.053 0 0 0-.052-.053l-1.195-.004Z" fill="#fff"/><path d="M2.815 19.753v1.262a.045.045 0 0 1-.045.045H1.18a.045.045 0 0 0-.046.046v.42a.045.045 0 0 0 .044.044l1.596.001a.045.045 0 0 1 .045.045l-.007 1.506a.045.045 0 0 1-.045.045l-2.082.002a.045.045 0 0 0-.042.028.045.045 0 0 0-.003.017l.002.442a.045.045 0 0 0 .045.046l4.874-.007a.045.045 0 0 0 .045-.044l.004-.428a.045.045 0 0 0-.044-.046l-2.162-.009a.045.045 0 0 1-.045-.045l.002-1.509a.045.045 0 0 1 .045-.045l1.683.001a.045.045 0 0 0 .045-.045v-.42a.045.045 0 0 0-.045-.046H3.405a.045.045 0 0 1-.045-.045v-1.262a.045.045 0 0 1 .045-.045l1.884.005a.045.045 0 0 0 .042-.028.045.045 0 0 0 .003-.017v-.443a.045.045 0 0 0-.046-.045L.96 19.18a.045.045 0 0 0-.045.046l.004.442a.045.045 0 0 0 .045.045l1.807-.005a.045.045 0 0 1 .045.045Z" fill="#fff"/><path d="M3.995 21.728c.046-.032.09-.03.134.004.397.316.735.639 1.012.968.043.052.038.098-.015.14l-.276.218a.103.103 0 0 1-.113.009.1.1 0 0 1-.03-.026 6.101 6.101 0 0 0-.995-1.003.073.073 0 0 1-.028-.06.074.074 0 0 1 .032-.058l.279-.192ZM10.354 22.826l-.83-.773a.067.067 0 0 0-.083-.006l-.288.199a.067.067 0 0 0-.025.078c.003.01.009.018.016.025l.85.823a.067.067 0 0 0 .093.001l.267-.25a.068.068 0 0 0 .021-.049.067.067 0 0 0-.021-.048Z" fill="#fff"/></svg>