<svg width="148" height="24" viewBox="0 0 148 24" fill="none" xmlns="http://www.w3.org/2000/svg">
<path fill-rule="evenodd" clip-rule="evenodd" d="M4.04718 5.80713C5.25196 5.52542 6.44718 5.52884 7.63282 5.81739C7.6384 5.81879 7.64423 5.81886 7.64987 5.81761C7.6555 5.81635 7.66079 5.8138 7.66534 5.81015C7.66989 5.80649 7.67357 5.80182 7.67611 5.7965C7.67865 5.79118 7.67998 5.78535 7.68 5.77944C7.67863 4.4673 7.68034 3.09636 7.68513 1.66662C7.68615 1.14969 8.00513 0.59995 8.44 0.315848C9.65231 -0.477998 11.1477 0.390719 11.1467 1.83175C11.1453 6.04166 11.1463 10.3494 11.1497 14.7548C11.1497 15.3271 11.0328 15.8276 10.7344 16.3282C10.7309 16.3339 10.7263 16.3389 10.7208 16.3428C10.7153 16.3466 10.709 16.3492 10.7025 16.3504C10.696 16.3515 10.6893 16.3513 10.6829 16.3495C10.6765 16.3478 10.6706 16.3447 10.6656 16.3405C10.4872 16.1887 10.2851 16.081 10.0523 16.0533C9.50256 15.9876 9.03213 15.9959 8.64102 16.0779C7.97538 16.2174 7.7682 16.883 7.77025 17.4953C7.77025 17.5446 7.74564 17.5692 7.69641 17.5692H3.84102C3.82134 17.5692 3.80245 17.5614 3.78844 17.5476C3.77443 17.5338 3.76642 17.515 3.76615 17.4953C3.74974 16.682 3.45641 16.0748 2.56512 16.0256L2.53352 16.0239C1.99709 15.9944 1.40332 15.9619 0.946664 16.2676C0.940236 16.2721 0.932921 16.2751 0.925201 16.2765C0.917482 16.2779 0.909533 16.2776 0.901877 16.2757C0.894222 16.2737 0.887034 16.2702 0.880788 16.2653C0.874541 16.2604 0.869378 16.2542 0.865638 16.2471C0.638971 15.8276 0.512817 15.3805 0.512817 14.9005C0.514869 10.6933 0.51521 6.33055 0.513843 1.81226C0.513843 1.22764 0.730253 0.757215 1.16307 0.400976C2.07077 -0.345691 3.44923 0.0481557 3.86359 1.13739C3.94906 1.36303 3.98906 1.69431 3.98359 2.13123C3.96923 3.37636 3.96683 4.58286 3.97641 5.75072C3.97709 5.79927 4.00068 5.81807 4.04718 5.80713ZM1.42256 7.21944C1.92102 6.71995 2.47589 6.39687 3.12102 6.11175C3.16136 6.09397 3.18154 6.06252 3.18154 6.01739C3.17675 4.4379 3.17743 3.03106 3.18359 1.79687C3.18974 0.50354 1.30974 0.507643 1.30974 1.75175C1.30974 3.50491 1.30906 5.3114 1.30769 7.17123C1.30769 7.27995 1.34598 7.29602 1.42256 7.21944ZM8.53641 6.11687C9.17436 6.37328 9.76513 6.75175 10.2554 7.23995C10.3149 7.29876 10.3443 7.28645 10.3436 7.20303C10.3402 5.47175 10.3405 3.68337 10.3446 1.8379C10.3477 0.471745 8.47795 0.522002 8.47589 1.73534C8.47248 3.18764 8.47179 4.61773 8.47384 6.02559C8.47379 6.04524 8.47973 6.06448 8.4909 6.08077C8.50206 6.09706 8.51793 6.10964 8.53641 6.11687ZM3.97025 13.6923L1.80307 13.2984C1.78954 13.2959 1.77563 13.2961 1.76216 13.2989C1.74869 13.3018 1.73592 13.3073 1.72458 13.3151C1.71325 13.3229 1.70356 13.3329 1.69608 13.3445C1.68861 13.356 1.68349 13.369 1.68102 13.3825L1.65846 13.5097C1.62978 13.6672 1.63187 13.8287 1.6646 13.9849C1.69733 14.1412 1.76006 14.2892 1.84921 14.4205C1.93836 14.5517 2.05219 14.6637 2.18418 14.7499C2.31617 14.8361 2.46374 14.895 2.61846 14.923L2.63589 14.9261C2.79056 14.9543 2.94936 14.9511 3.10322 14.9169C3.25708 14.8827 3.40299 14.818 3.53261 14.7265C3.66224 14.6351 3.77304 14.5187 3.85869 14.384C3.94434 14.2493 4.00316 14.0989 4.03179 13.9415L4.05436 13.8143C4.05687 13.8008 4.05669 13.7869 4.05383 13.7734C4.05096 13.7599 4.04546 13.7472 4.03765 13.7358C4.02984 13.7245 4.01986 13.7148 4.00829 13.7073C3.99673 13.6998 3.9838 13.6947 3.97025 13.6923ZM9.86051 13.3056L7.65025 13.7066C7.62892 13.7106 7.61004 13.7229 7.59774 13.7408C7.58544 13.7586 7.58072 13.7807 7.58461 13.802L7.6082 13.9353C7.66635 14.2549 7.84544 14.5389 8.10607 14.7249C8.36669 14.9109 8.68751 14.9836 8.99795 14.9271L9.02769 14.922C9.33814 14.8656 9.61283 14.6846 9.79133 14.4188C9.96982 14.153 10.0375 13.8241 9.97949 13.5046L9.9559 13.3712C9.95191 13.3499 9.93963 13.331 9.92176 13.3187C9.90388 13.3064 9.88186 13.3017 9.86051 13.3056ZM5.86974 15.2666C6.14769 15.6841 6.54359 15.921 7.04615 15.8882C7.14119 15.882 7.18701 15.8311 7.18359 15.7353L7.18256 15.7056C7.17914 15.6078 7.12854 15.5586 7.03077 15.5579C6.62188 15.5545 6.32444 15.3856 6.13846 15.0512C6.11863 15.015 6.12444 14.9839 6.15589 14.9579C6.34564 14.7979 6.52513 14.3015 6.13333 14.2676C5.94325 14.2519 5.73641 14.2506 5.51282 14.2635C5.45895 14.2668 5.40788 14.2885 5.36825 14.3249C5.32862 14.3614 5.30287 14.4103 5.29538 14.4635C5.26871 14.6557 5.33572 14.8225 5.49641 14.9641C5.52649 14.9907 5.53128 15.0215 5.51077 15.0564C5.31863 15.3839 5.03282 15.55 4.65333 15.5548C4.56171 15.5562 4.50051 15.6003 4.46974 15.6871C4.46359 15.7049 4.46222 15.723 4.46564 15.7415C4.48547 15.8461 4.54872 15.8974 4.65538 15.8953C5.14906 15.8851 5.52478 15.6759 5.78256 15.2676C5.81128 15.2225 5.84034 15.2222 5.86974 15.2666Z" fill="white"/>
<path d="M108.078 5.10454L106.526 5.52402C106.482 5.53633 106.458 5.51924 106.455 5.47274C106.378 4.28915 106.094 2.96402 104.619 2.95582C103.627 2.94966 103.101 3.43445 103.043 4.41018C102.998 5.16026 103.263 5.79035 103.837 6.30043C104.654 7.02659 105.484 7.75719 106.328 8.49223C106.89 8.98112 107.371 9.55035 107.772 10.1999C108.438 11.2768 108.587 12.8789 108.063 14.0368C107.465 15.3579 106.166 15.9189 104.735 15.8481C103.203 15.7722 102.164 15.0266 101.618 13.6112C101.383 12.9992 101.26 12.3777 101.25 11.7466C101.25 11.739 101.252 11.7315 101.257 11.7254C101.261 11.7193 101.268 11.7148 101.275 11.7127L102.915 11.2707C102.924 11.2683 102.934 11.2679 102.943 11.2696C102.953 11.2714 102.962 11.2752 102.97 11.2807C102.977 11.2863 102.984 11.2935 102.989 11.3019C102.993 11.3103 102.996 11.3196 102.997 11.3292C103.066 12.2779 103.321 13.9271 104.447 14.2153C105.285 14.4307 106.259 14.1876 106.456 13.2533C106.653 12.3172 106.478 11.5247 105.931 10.8758C105.645 10.5374 105.33 10.2139 104.986 9.90556C104.324 9.31206 103.672 8.7377 103.029 8.18248C102.468 7.69907 102.077 7.28847 101.856 6.95069C101.287 6.07992 101.169 4.9271 101.343 3.89325C101.583 2.46453 102.653 1.59171 104.109 1.45325C105.497 1.32197 106.911 1.65223 107.586 2.97325C107.889 3.56471 108.072 4.24847 108.135 5.02454C108.137 5.04237 108.132 5.06019 108.121 5.07483C108.111 5.08946 108.096 5.09999 108.078 5.10454Z" fill="white"/>
<path fill-rule="evenodd" clip-rule="evenodd" d="M139.791 11.4019C139.795 13.5076 140.461 15.4809 142.824 15.7968C143.589 15.8994 144.314 15.8652 144.997 15.6942C146.967 15.1999 147.499 13.1722 147.508 11.405C147.517 9.35645 147.514 7.4173 147.501 5.58756C147.486 3.70346 146.79 1.8932 144.762 1.53012C143.823 1.36192 142.94 1.39713 142.114 1.63576C140.984 1.96294 140.293 2.85525 140.006 3.99371C139.867 4.54756 139.796 5.0614 139.795 5.53525C139.789 7.53183 139.787 9.48739 139.791 11.4019ZM141.786 5.36397C141.789 4.46346 141.903 3.36397 142.895 3.07474C143.425 2.91987 144.237 2.92192 144.724 3.20602C145.495 3.65525 145.515 4.78858 145.516 5.62858C145.519 8.01286 145.516 10.1732 145.507 12.1096C145.506 12.3332 145.477 12.593 145.418 12.8891C145.263 13.6829 144.851 14.1937 143.973 14.2737C142.163 14.4409 141.789 13.3332 141.785 11.7968C141.778 9.4679 141.778 7.32363 141.786 5.36397Z" fill="white"/>
<path d="M17.1046 13.884C17.2297 13.5647 17.2923 13.2026 17.2923 12.7978C17.2964 9.03031 17.2971 5.30553 17.2944 1.62347C17.2942 1.61369 17.296 1.60398 17.2997 1.5949C17.3033 1.58582 17.3087 1.57756 17.3156 1.57059C17.3225 1.56363 17.3307 1.5581 17.3397 1.55432C17.3487 1.55055 17.3584 1.5486 17.3682 1.5486L19.2051 1.55065C19.2117 1.55065 19.2183 1.55195 19.2244 1.55448C19.2305 1.55701 19.236 1.56071 19.2407 1.56537C19.2453 1.57004 19.249 1.57558 19.2516 1.58168C19.2541 1.58778 19.2554 1.59431 19.2554 1.60091V12.6317C19.2554 13.2389 19.1867 13.7995 19.0492 14.3137C18.5692 16.1158 16.7692 16.0758 15.2923 16.0235C15.2588 16.0228 15.242 16.0057 15.242 15.9722L15.2431 14.686C15.2431 14.6341 15.2691 14.6078 15.321 14.6071C15.9723 14.5989 16.8359 14.5722 17.1046 13.884Z" fill="white"/>
<path fill-rule="evenodd" clip-rule="evenodd" d="M20.7662 15.6942L22.4974 15.6932C22.5118 15.6932 22.5257 15.6882 22.5368 15.679C22.5478 15.6698 22.5553 15.6571 22.5579 15.643L23.2174 12.1835C23.2201 12.1694 23.2276 12.1566 23.2386 12.1474C23.2497 12.1382 23.2636 12.1332 23.2779 12.1332L26.0431 12.1342C26.0574 12.1342 26.0714 12.1393 26.0824 12.1484C26.0935 12.1576 26.101 12.1704 26.1036 12.1845L26.7262 15.6419C26.7288 15.6561 26.7363 15.6688 26.7473 15.678C26.7584 15.6872 26.7723 15.6922 26.7867 15.6922L28.5354 15.6942C28.5446 15.6943 28.5538 15.6923 28.5621 15.6883C28.5705 15.6844 28.5779 15.6786 28.5837 15.6714C28.5895 15.6642 28.5936 15.6558 28.5957 15.6468C28.5978 15.6378 28.5979 15.6284 28.5959 15.6194L25.6062 1.59783C25.6031 1.58409 25.5954 1.57181 25.5844 1.56303C25.5734 1.55426 25.5597 1.54953 25.5456 1.54963L23.7385 1.5486C23.7242 1.54855 23.7104 1.55343 23.6994 1.56241C23.6884 1.57138 23.6808 1.5839 23.6779 1.59783L20.7056 15.6204C20.7038 15.6294 20.704 15.6386 20.7062 15.6475C20.7084 15.6564 20.7125 15.6646 20.7183 15.6717C20.7241 15.6788 20.7314 15.6845 20.7397 15.6884C20.748 15.6923 20.757 15.6943 20.7662 15.6942ZM24.6779 4.51578L25.8195 10.6717C25.8205 10.6766 25.8205 10.6817 25.8193 10.6865C25.8181 10.6914 25.8158 10.696 25.8125 10.6999C25.8093 10.7039 25.8052 10.707 25.8005 10.7092C25.7959 10.7115 25.7908 10.7126 25.7856 10.7127H23.5374C23.506 10.7134 23.493 10.6983 23.4985 10.6676L24.6256 4.51476C24.6427 4.42108 24.6602 4.42142 24.6779 4.51578Z" fill="white"/>
<path fill-rule="evenodd" clip-rule="evenodd" d="M33.6 15.6809C32.4075 15.698 31.2335 15.7011 30.0779 15.6902C30.0657 15.6902 30.054 15.6852 30.0453 15.6764C30.0367 15.6675 30.0318 15.6555 30.0318 15.643V1.6153C30.0318 1.59789 30.0387 1.58119 30.051 1.56888C30.0633 1.55657 30.08 1.54966 30.0974 1.54966C31.1121 1.54761 32.1224 1.54829 33.1282 1.55171C34.8749 1.55786 36.5015 1.99376 37.0379 3.88812C37.2277 4.55991 37.2892 5.25632 37.2882 5.92709C37.2841 7.6488 37.2817 9.44333 37.281 11.3107C37.2803 12.337 37.0923 13.2269 36.7169 13.9804C36.1292 15.1589 34.8995 15.6625 33.6 15.6809ZM33.4718 14.2574C34.439 14.2122 35.0338 13.7353 35.1764 12.7517C35.2352 12.3456 35.2673 11.95 35.2728 11.565C35.2981 9.67855 35.3009 7.73632 35.281 5.73838C35.2759 5.23479 35.2359 4.7435 35.1303 4.2594C34.9682 3.52026 34.4554 3.11855 33.5918 3.05427C33.1084 3.01872 32.5904 3.01256 32.0379 3.03581C32.0286 3.03608 32.0197 3.03998 32.0132 3.04668C32.0067 3.05338 32.0031 3.06236 32.0031 3.07171L32.0041 14.2327C32.0041 14.258 32.0171 14.271 32.0431 14.2717C32.5074 14.2847 32.9836 14.2799 33.4718 14.2574Z" fill="white"/>
<path d="M41.1856 14.2317L41.1846 9.14448C41.1846 9.13251 41.1894 9.12103 41.1978 9.11257C41.2063 9.1041 41.2178 9.09935 41.2297 9.09935H43.9764C43.9884 9.09935 43.9999 9.09459 44.0083 9.08613C44.0168 9.07767 44.0215 9.06619 44.0215 9.05422V7.73832C44.0215 7.72636 44.0168 7.71488 44.0083 7.70641C43.9999 7.69795 43.9884 7.6932 43.9764 7.6932L41.2308 7.69525C41.2188 7.69525 41.2073 7.69049 41.1989 7.68203C41.1904 7.67357 41.1856 7.66209 41.1856 7.65012V3.07166C41.1856 3.05969 41.1904 3.04821 41.1989 3.03975C41.2073 3.03128 41.2188 3.02653 41.2308 3.02653L44.6472 3.02755C44.6591 3.02755 44.6706 3.0228 44.6791 3.01434C44.6876 3.00587 44.6923 2.99439 44.6923 2.98243L44.6913 1.59473C44.6913 1.58276 44.6865 1.57129 44.6781 1.56282C44.6696 1.55436 44.6581 1.5496 44.6462 1.5496H39.2503C39.2383 1.5496 39.2268 1.55436 39.2183 1.56282C39.2099 1.57129 39.2051 1.58276 39.2051 1.59473V15.6481C39.2051 15.66 39.2099 15.6715 39.2183 15.68C39.2268 15.6884 39.2383 15.6932 39.2503 15.6932H44.6738C44.6858 15.6932 44.6973 15.6884 44.7058 15.68C44.7142 15.6715 44.719 15.66 44.719 15.6481V14.3188C44.719 14.3069 44.7142 14.2954 44.7058 14.2869C44.6973 14.2785 44.6858 14.2737 44.6738 14.2737L41.2308 14.2768C41.2188 14.2768 41.2073 14.272 41.1989 14.2636C41.1904 14.2551 41.1856 14.2436 41.1856 14.2317Z" fill="white"/>
<path fill-rule="evenodd" clip-rule="evenodd" d="M52.2656 9.13217V15.6378C52.2656 15.6528 52.2597 15.6671 52.2491 15.6777C52.2385 15.6883 52.2242 15.6942 52.2092 15.6942H50.3333C50.3197 15.6942 50.3067 15.6888 50.2971 15.6792C50.2875 15.6696 50.2821 15.6565 50.2821 15.6429V1.59371C50.2821 1.58202 50.2867 1.5708 50.295 1.56253C50.3032 1.55426 50.3145 1.54961 50.3262 1.54961C51.2581 1.54893 52.2185 1.54995 53.2072 1.55269C53.9682 1.55474 54.6421 1.65012 55.2287 1.83884C56.5528 2.26448 57.1292 3.29935 57.2513 4.64705C57.3846 6.13115 57.1631 8.03371 55.6031 8.58448C55.5614 8.59884 55.5463 8.62722 55.5579 8.66961L57.5221 15.6142C57.5371 15.6676 57.5169 15.6939 57.4615 15.6932H55.6892C55.6736 15.6929 55.6584 15.6875 55.646 15.6779C55.6337 15.6683 55.6247 15.655 55.6205 15.6399L53.8092 9.13525C53.7969 9.09081 53.7675 9.06859 53.721 9.06859L52.3303 9.06756C52.2872 9.06756 52.2656 9.0891 52.2656 9.13217ZM55.1374 6.6973C55.4544 5.99064 55.4369 4.92397 55.2349 4.15576C55.0154 3.32089 54.3641 3.03269 53.5836 2.99474C53.1904 2.97628 52.7679 2.96978 52.3159 2.97525C52.2803 2.97525 52.2626 2.99303 52.2626 3.02858L52.2677 7.5732C52.2677 7.61217 52.2872 7.63303 52.3262 7.63576C53.3097 7.69012 54.6882 7.70038 55.1374 6.6973Z" fill="white"/>
<path fill-rule="evenodd" clip-rule="evenodd" d="M61.1415 12.1332L63.9159 12.1342C63.9288 12.1343 63.9413 12.1388 63.9512 12.147C63.9611 12.1553 63.9679 12.1667 63.9703 12.1794L64.5959 15.6471C64.5983 15.6597 64.605 15.6712 64.615 15.6794C64.6249 15.6877 64.6374 15.6922 64.6503 15.6922L66.4123 15.6953C66.4167 15.6953 66.4212 15.6948 66.4255 15.6937C66.4291 15.6928 66.4327 15.6916 66.4361 15.6899C66.4436 15.6864 66.4502 15.6813 66.4554 15.6749C66.4606 15.6685 66.4643 15.661 66.4662 15.653C66.4682 15.645 66.4683 15.6367 66.4667 15.6286L63.4738 1.59271C63.4712 1.58022 63.4644 1.56901 63.4545 1.56098C63.4446 1.55294 63.4322 1.54857 63.4195 1.5486L61.6021 1.54963C61.5893 1.5496 61.5769 1.55397 61.567 1.562C61.5571 1.57004 61.5503 1.58125 61.5477 1.59373L58.5733 15.6266C58.5717 15.6346 58.5718 15.643 58.5737 15.651C58.5757 15.659 58.5794 15.6664 58.5846 15.6728C58.5898 15.6792 58.5964 15.6844 58.6039 15.6879C58.6113 15.6914 58.6194 15.6932 58.6277 15.6932L60.3723 15.6922C60.3852 15.6922 60.3977 15.6877 60.4076 15.6794C60.4175 15.6712 60.4243 15.6597 60.4267 15.6471L61.0872 12.1783C61.0896 12.1657 61.0963 12.1542 61.1062 12.146C61.1161 12.1378 61.1286 12.1332 61.1415 12.1332ZM62.4903 4.53732C62.5101 4.42655 62.5303 4.42655 62.5508 4.53732L63.6862 10.6512C63.6937 10.6936 63.6759 10.7148 63.6328 10.7148L61.4082 10.7137C61.4024 10.7137 61.3966 10.7124 61.3914 10.7098C61.3861 10.7073 61.3815 10.7037 61.3777 10.6992C61.374 10.6947 61.3713 10.6895 61.3699 10.6838C61.3684 10.6782 61.3682 10.6723 61.3692 10.6666L62.4903 4.53732Z" fill="white"/>
<path fill-rule="evenodd" clip-rule="evenodd" d="M73.0308 8.11891C74.7631 8.54763 75.28 9.97224 75.2923 11.5866C75.3036 12.9692 74.9795 14.403 73.7928 15.1476C73.2226 15.5052 72.5641 15.6857 71.8174 15.6892C70.6304 15.6946 69.3426 15.696 67.9538 15.6933C67.9162 15.6933 67.8978 15.6748 67.8985 15.6379L67.8995 1.63686C67.8995 1.57669 67.9296 1.5466 67.9897 1.5466C69.0961 1.54865 70.1768 1.55036 71.2318 1.55173C72.7497 1.55378 74.2031 2.00711 74.6974 3.55993C75 4.50968 75.0031 5.86147 74.6226 6.79173C74.3402 7.48164 73.8099 7.90558 73.0318 8.06352C72.9504 8.07994 72.9501 8.0984 73.0308 8.11891ZM73.0851 6.18558C73.2144 5.57224 73.2287 4.92096 73.1303 4.30968C72.9733 3.32301 72.2359 3.12198 71.3692 3.06352C70.8803 3.03002 70.399 3.01839 69.9251 3.02865C69.8903 3.02934 69.8728 3.04711 69.8728 3.08198V7.38352C69.8728 7.42045 69.8909 7.43959 69.9272 7.44096C70.5159 7.46489 71.0725 7.45634 71.5969 7.41532C72.3887 7.35378 72.9262 6.93737 73.0851 6.18558ZM73.3056 12.7815C73.5692 11.3312 73.4862 9.13532 71.4892 8.98763C70.9908 8.95139 70.4615 8.94489 69.9015 8.96814C69.8817 8.96951 69.8718 8.97976 69.8718 8.99891L69.8728 14.2358C69.8728 14.2632 69.8868 14.2769 69.9149 14.2769C70.3641 14.2775 70.8188 14.2762 71.279 14.2728C72.3733 14.2646 73.0964 13.9281 73.3056 12.7815Z" fill="white"/>
<path fill-rule="evenodd" clip-rule="evenodd" d="M84.3713 12.4891C84.5785 10.5947 84.2297 8.64808 82.158 8.11782C82.0786 8.09799 82.079 8.07987 82.159 8.06346C84.0359 7.68398 84.201 5.63987 83.958 4.10859C83.6595 2.23474 82.2123 1.5691 80.4513 1.5568C79.265 1.54791 78.1453 1.54483 77.0923 1.54757C77.0748 1.54783 77.0581 1.55498 77.0458 1.56745C77.0336 1.57992 77.0267 1.59673 77.0267 1.61423L77.0277 15.645C77.0277 15.6594 77.0333 15.6732 77.0433 15.6834C77.0533 15.6936 77.0669 15.6994 77.081 15.6994C78.1019 15.6871 79.1368 15.6871 80.1856 15.6994C81.0287 15.7096 81.6615 15.6522 82.0841 15.5271C83.5221 15.1024 84.2113 13.9486 84.3713 12.4891ZM82.2656 4.35987C82.3286 4.78312 82.3385 5.20637 82.2954 5.62962C82.1949 6.63269 81.8656 7.3209 80.7118 7.41526C80.1962 7.45834 79.6444 7.4662 79.0564 7.43885C79.0209 7.43748 79.0031 7.41902 79.0031 7.38346L79.0021 3.08295C79.0021 3.04603 79.0205 3.02722 79.0574 3.02654C79.7938 3.00945 80.4544 3.04363 81.039 3.1291C81.7501 3.23235 82.159 3.64261 82.2656 4.35987ZM81.1815 9.10244C82.5159 9.53116 82.599 11.1188 82.5056 12.2706C82.4154 13.3876 82.0318 14.1537 80.8236 14.244C80.3347 14.2802 79.7477 14.2898 79.0626 14.2727C79.0229 14.2713 79.0031 14.2508 79.0031 14.2112L79.0021 9.02551C79.0021 8.98039 79.0246 8.95816 79.0697 8.95885C79.2151 8.95971 79.3633 8.95722 79.5129 8.95472H79.5144C80.0788 8.94528 80.6622 8.93553 81.1815 9.10244Z" fill="white"/>
<path d="M88.1538 1.55481H86.3056C86.2785 1.55481 86.2564 1.57685 86.2564 1.60404V15.6451C86.2564 15.6723 86.2785 15.6943 86.3056 15.6943H88.1538C88.181 15.6943 88.2031 15.6723 88.2031 15.6451V1.60404C88.2031 1.57685 88.181 1.55481 88.1538 1.55481Z" fill="white"/>
<path d="M89.6923 3.0255L91.9713 3.0296C91.9852 3.0296 91.9985 3.03512 92.0083 3.04493C92.0181 3.05474 92.0236 3.06804 92.0236 3.08191L92.0226 15.6429C92.0226 15.6568 92.0281 15.6701 92.0379 15.6799C92.0477 15.6897 92.061 15.6952 92.0749 15.6952L93.9477 15.6922C93.9616 15.6922 93.9749 15.6867 93.9847 15.6769C93.9945 15.667 94 15.6537 94 15.6399L93.999 3.07884C93.999 3.06496 94.0045 3.05166 94.0143 3.04185C94.0241 3.03204 94.0374 3.02653 94.0513 3.02653L96.2605 3.02755C96.2744 3.02755 96.2877 3.02204 96.2975 3.01223C96.3073 3.00242 96.3128 2.98912 96.3128 2.97525V1.60191C96.3128 1.58804 96.3073 1.57473 96.2975 1.56493C96.2877 1.55512 96.2744 1.5496 96.2605 1.5496H89.6933C89.6795 1.5496 89.6662 1.55512 89.6563 1.56493C89.6465 1.57473 89.641 1.58804 89.641 1.60191L89.64 2.97319C89.64 2.98707 89.6455 3.00037 89.6553 3.01018C89.6651 3.01999 89.6784 3.0255 89.6923 3.0255Z" fill="white"/>
<path d="M111.455 3.10037C111.458 3.09215 111.459 3.08334 111.458 3.07468C111.457 3.06601 111.454 3.05776 111.449 3.05061C111.444 3.04347 111.437 3.03764 111.429 3.03363C111.421 3.02961 111.413 3.02753 111.404 3.02755L109.118 3.02653C109.076 3.02653 109.055 3.00602 109.055 2.96499L109.056 1.59268C109.056 1.58126 109.061 1.5703 109.069 1.56222C109.078 1.55414 109.089 1.5496 109.101 1.5496L115.676 1.55063C115.684 1.55063 115.692 1.55225 115.7 1.55539C115.707 1.55854 115.714 1.56315 115.72 1.56896C115.726 1.57476 115.731 1.58166 115.734 1.58925C115.737 1.59684 115.738 1.60498 115.738 1.61319L115.742 2.97627C115.742 2.9896 115.736 3.00238 115.727 3.01181C115.717 3.02123 115.705 3.02653 115.691 3.02653H113.467C113.454 3.02653 113.442 3.0315 113.433 3.04035C113.424 3.04919 113.419 3.06119 113.419 3.07371V15.6378C113.419 15.653 113.414 15.6677 113.403 15.6784C113.392 15.6892 113.378 15.6952 113.363 15.6952L111.494 15.6932C111.48 15.6932 111.467 15.6877 111.457 15.6779C111.448 15.6681 111.442 15.6548 111.442 15.6409V3.17935C111.442 3.152 111.446 3.12567 111.455 3.10037Z" fill="white"/>
<path d="M122.611 10.8942C122.611 11.7096 122.601 12.7086 122.245 13.4522C122.01 13.9445 121.598 14.2194 121.009 14.2768C119.856 14.3896 119.182 13.8607 118.986 12.6901C118.904 12.2054 118.863 11.7226 118.863 11.2419C118.86 8.05493 118.859 4.84536 118.859 1.61322C118.859 1.59608 118.853 1.57965 118.841 1.56753C118.828 1.55541 118.812 1.5486 118.795 1.5486L117.04 1.54963C117.021 1.54963 117.002 1.55719 116.989 1.57066C116.975 1.58412 116.967 1.60238 116.967 1.62142C116.966 4.57664 116.966 7.73972 116.968 11.1107C116.969 11.9066 117.058 12.6754 117.237 13.4173C117.443 14.2761 117.874 14.9168 118.529 15.3394C119.457 15.9394 121.04 15.9671 122.096 15.6963C123.36 15.3732 124.015 14.4122 124.273 13.1722C124.414 12.4878 124.485 11.7801 124.486 11.0491C124.488 7.74245 124.488 4.59168 124.486 1.59681C124.486 1.56604 124.47 1.55065 124.439 1.55065L122.679 1.5486C122.661 1.5486 122.644 1.55573 122.631 1.56843C122.618 1.58112 122.611 1.59834 122.611 1.6163C122.611 4.71442 122.611 7.80707 122.611 10.8942Z" fill="white"/>
<path fill-rule="evenodd" clip-rule="evenodd" d="M130.148 15.683C129.045 15.696 127.863 15.6991 126.601 15.6922C126.568 15.6922 126.551 15.6755 126.551 15.642L126.557 1.61118C126.557 1.57016 126.577 1.54965 126.618 1.54965C127.663 1.54896 128.665 1.5493 129.625 1.55067C131.516 1.55272 133.139 2.06657 133.612 4.09324C133.741 4.6464 133.806 5.22691 133.808 5.83477C133.814 7.73221 133.813 9.5158 133.807 11.1855C133.8 13.0379 133.31 14.9917 131.261 15.524C130.868 15.6259 130.497 15.6789 130.148 15.683ZM131.763 12.1425C131.793 11.6707 131.809 11.2081 131.809 10.7548C131.811 9.17802 131.811 7.59136 131.811 5.99478C131.811 5.38691 131.761 4.82862 131.663 4.3199C131.467 3.30452 130.67 3.03888 129.755 3.02965C129.354 3.02554 128.953 3.0252 128.551 3.02862C128.531 3.02862 128.521 3.03854 128.521 3.05836L128.523 14.2348C128.523 14.2459 128.528 14.2566 128.535 14.2645C128.543 14.2724 128.554 14.2768 128.565 14.2768C128.963 14.2775 129.354 14.2755 129.736 14.2707C131.234 14.2543 131.675 13.5455 131.763 12.1425Z" fill="white"/>
<path d="M135.885 1.5486H137.711C137.744 1.5486 137.77 1.57524 137.77 1.60809V15.6348C137.77 15.6676 137.744 15.6942 137.711 15.6942H135.885C135.852 15.6942 135.826 15.6676 135.826 15.6348V1.60809C135.826 1.57524 135.852 1.5486 135.885 1.5486Z" fill="white"/>
<path d="M2.59897 18.4799C2.41436 18.9128 1.88923 18.961 1.67897 18.5107C1.67565 18.5035 1.67035 18.4974 1.66369 18.493C1.65704 18.4887 1.64929 18.4864 1.64135 18.4863C1.63341 18.4861 1.6256 18.4883 1.61882 18.4924C1.61205 18.4966 1.60659 18.5026 1.60308 18.5097C1.34666 19.0338 0.616408 18.8646 0.630767 18.281C0.633228 18.1802 0.632245 18.0716 0.631223 17.9587C0.624578 17.2243 0.616285 16.3079 1.54256 16.1897C1.89333 16.1452 2.2653 16.1418 2.65846 16.1794C3.65555 16.2743 3.64354 17.2716 3.63435 18.0348C3.6333 18.1218 3.63229 18.2058 3.63282 18.2851C3.63692 18.8748 2.88307 19.0246 2.65436 18.4799C2.6359 18.4355 2.61743 18.4355 2.59897 18.4799Z" fill="white"/>
<path d="M9.10974 18.7353C9.46461 18.9055 9.71931 18.8214 9.87384 18.4829C9.89436 18.4385 9.9135 18.4392 9.93128 18.485C10.1313 18.9937 10.879 18.8932 10.8954 18.3435C10.905 18.0139 10.9015 17.6792 10.8851 17.3394C10.8544 16.7404 10.6144 16.2532 9.94154 16.1804C9.52308 16.1353 9.1282 16.1428 8.75692 16.2029C8.35419 16.2672 8.10188 16.4973 8 16.8932C7.93025 17.164 7.89402 17.5206 7.89128 17.9629C7.89025 18.327 7.89128 18.7527 8.34154 18.8153C8.5829 18.8488 8.75726 18.7496 8.86461 18.5178C8.88786 18.4672 8.91419 18.4659 8.94359 18.5137L9.04102 18.6737C9.0578 18.7005 9.08165 18.7219 9.10974 18.7353Z" fill="white"/>
<path d="M36.2154 18.2338C36.0246 17.7989 35.2451 17.7794 35.1272 18.284C35.0338 18.6769 35.1949 18.9774 35.4862 19.2215C35.5524 19.2771 35.621 19.3336 35.6908 19.3911C36.4073 19.981 37.2553 20.6791 37.0226 21.7128C36.8817 22.3377 36.4527 22.6457 35.7354 22.6369C34.8913 22.6266 34.4779 21.9528 34.4431 21.1487C34.4428 21.14 34.4453 21.1315 34.4504 21.1246C34.4554 21.1177 34.4626 21.1128 34.4708 21.1107L35.0503 20.9558C35.0721 20.9497 35.0838 20.9579 35.0851 20.9804C35.1467 21.7818 35.4369 22.1381 35.9559 22.0492C36.1518 22.0153 36.3026 21.8922 36.3477 21.6922C36.4332 21.3155 36.3415 20.9917 36.0728 20.721C35.7713 20.4167 35.4434 20.1186 35.0892 19.8266C34.559 19.3897 34.3538 18.8963 34.48 18.2389C34.5723 17.7603 34.866 17.4724 35.361 17.3753C36.3364 17.1845 36.8851 17.7179 36.9713 18.6594C36.972 18.6676 36.9685 18.6738 36.961 18.6779C36.8674 18.7251 36.6653 18.7818 36.3549 18.8481C36.3501 18.8488 36.3477 18.8471 36.3477 18.843C36.3374 18.614 36.2933 18.4109 36.2154 18.2338Z" fill="white"/>
<path fill-rule="evenodd" clip-rule="evenodd" d="M40.9887 22.5928C42.16 22.8492 42.8451 22.2122 42.8492 21.0522C42.8513 20.3227 42.8503 19.5787 42.8462 18.8205C42.8421 18.1692 42.5631 17.5292 41.8667 17.3876C40.7118 17.1528 40.0123 17.723 40.0123 18.9169V21.0297C40.0123 21.7169 40.2338 22.4287 40.9887 22.5928ZM41.9277 18.101C42.0443 18.2175 42.1097 18.3756 42.1097 18.5405V21.4348C42.1097 21.5997 42.0443 21.7577 41.9277 21.8743C41.8111 21.9909 41.653 22.0563 41.4882 22.0563H41.3713C41.2064 22.0563 41.0484 21.9909 40.9318 21.8743C40.8152 21.7577 40.7497 21.5997 40.7497 21.4348V18.5405C40.7497 18.3756 40.8152 18.2175 40.9318 18.101C41.0484 17.9844 41.2064 17.9189 41.3713 17.9189H41.4882C41.653 17.9189 41.8111 17.9844 41.9277 18.101Z" fill="white"/>
<path d="M60.6482 21.6502C60.7138 21.2809 60.6168 20.9678 60.3569 20.7107C60.0431 20.3989 59.7115 20.0994 59.3621 19.8122C59.1132 19.6071 58.9429 19.3962 58.8513 19.1794C58.6841 18.7856 58.6861 18.1804 58.9395 17.8122C59.2636 17.3425 59.9108 17.2666 60.4338 17.4071C60.9867 17.5558 61.1979 18.0779 61.2564 18.602C61.2632 18.6608 61.2383 18.6977 61.1815 18.7127L60.7405 18.8327C60.668 18.8526 60.6304 18.8252 60.6277 18.7507C60.6103 18.3384 60.4646 17.9332 59.9969 17.9107C59.2379 17.8738 59.2585 18.7558 59.6749 19.123C59.9901 19.402 60.3156 19.6898 60.6513 19.9866C61.0903 20.375 61.3217 20.8232 61.3456 21.3312C61.3805 22.0963 60.8954 22.6297 60.1292 22.644C59.2308 22.6604 58.7538 22.002 58.7374 21.1435C58.7367 21.1264 58.7446 21.1155 58.761 21.1107L59.3487 20.9527C59.3624 20.9493 59.3696 20.9544 59.3703 20.9681C59.4082 21.5148 59.5662 22.1671 60.281 22.0399C60.479 22.004 60.6144 21.844 60.6482 21.6502Z" fill="white"/>
<path d="M17.2759 18.8993C17.2827 18.8624 17.2933 18.8614 17.3077 18.8963C17.3412 18.9817 17.3668 19.0727 17.3846 19.1691C17.6075 20.3862 17.8164 21.5052 18.0113 22.526C18.0188 22.565 18.0424 22.5845 18.0821 22.5845L18.4841 22.5865C18.5313 22.5865 18.5583 22.5633 18.5651 22.5168L19.3692 17.4891C19.3802 17.4214 19.3514 17.3872 19.2831 17.3865L18.8831 17.3845C18.857 17.3842 18.8317 17.3934 18.8119 17.4104C18.7921 17.4274 18.7791 17.451 18.7754 17.4768L18.2954 20.7937C18.2646 21.0029 18.2297 21.0036 18.1908 20.7958L17.5651 17.4799C17.5562 17.4313 17.5268 17.407 17.4769 17.407L17.1056 17.4081C17.0544 17.4081 17.0243 17.433 17.0154 17.4829L16.3918 20.8286C16.3576 21.0132 16.3268 21.0125 16.2995 20.8265L15.7938 17.4173C15.7925 17.4098 15.788 17.405 15.7805 17.4029C15.6991 17.3811 15.505 17.378 15.1979 17.3937C15.1953 17.3938 15.1928 17.3945 15.1904 17.3957C15.1881 17.3968 15.186 17.3985 15.1844 17.4005C15.1827 17.4026 15.1815 17.4049 15.1809 17.4075C15.1802 17.41 15.1801 17.4127 15.1805 17.4152L16.0154 22.5373C16.0209 22.5708 16.0407 22.5876 16.0749 22.5876L16.5231 22.5855C16.5614 22.5848 16.5839 22.566 16.5908 22.5291L17.2759 18.8993Z" fill="white"/>
<path d="M20.7385 17.9845L20.7374 19.5968C20.7374 19.6088 20.7422 19.6203 20.7507 19.6287C20.7591 19.6372 20.7706 19.6419 20.7826 19.6419L21.7364 19.644C21.7482 19.644 21.7595 19.6486 21.768 19.6568C21.7764 19.6651 21.7813 19.6763 21.7815 19.6881L21.7856 20.1117C21.7858 20.1177 21.7847 20.1237 21.7825 20.1293C21.7803 20.1349 21.777 20.14 21.7728 20.1443C21.7686 20.1486 21.7636 20.152 21.758 20.1543C21.7559 20.1552 21.7538 20.1559 21.7516 20.1564C21.748 20.1574 21.7443 20.1578 21.7405 20.1578H20.7826C20.7706 20.1578 20.7591 20.1626 20.7507 20.171C20.7422 20.1795 20.7374 20.191 20.7374 20.203L20.7385 22.0132C20.7385 22.0252 20.7432 22.0367 20.7517 22.0451C20.7601 22.0536 20.7716 22.0583 20.7836 22.0583L21.9867 22.0512C21.9986 22.0512 22.0101 22.0559 22.0186 22.0644C22.027 22.0728 22.0318 22.0843 22.0318 22.0963V22.5414C22.0318 22.5534 22.027 22.5649 22.0186 22.5733C22.0101 22.5818 21.9986 22.5865 21.9867 22.5865L20.0523 22.5876C20.0403 22.5876 20.0289 22.5828 20.0204 22.5744C20.0119 22.5659 20.0072 22.5544 20.0072 22.5424L20.0051 17.4317C20.0051 17.4197 20.0099 17.4082 20.0183 17.3998C20.0268 17.3913 20.0383 17.3865 20.0503 17.3865H21.9836C21.9956 17.3865 22.007 17.3913 22.0155 17.3998C22.024 17.4082 22.0287 17.4197 22.0287 17.4317L22.0246 17.8953C22.0246 17.9072 22.0199 17.9187 22.0114 17.9272C22.0029 17.9356 21.9915 17.9404 21.9795 17.9404L20.7836 17.9394C20.7716 17.9394 20.7601 17.9441 20.7517 17.9526C20.7432 17.961 20.7385 17.9725 20.7385 17.9845Z" fill="white"/>
<path fill-rule="evenodd" clip-rule="evenodd" d="M24.481 22.5517L24.7169 21.3127C24.7188 21.3032 24.7239 21.2946 24.7314 21.2885C24.7389 21.2823 24.7483 21.2789 24.7579 21.2789L25.7395 21.2819C25.7493 21.282 25.7588 21.2856 25.7663 21.2919C25.7738 21.2983 25.7788 21.3071 25.7805 21.3168L25.9969 22.5486C25.9986 22.5583 26.0036 22.5671 26.0111 22.5735C26.0186 22.5798 26.0281 22.5834 26.0379 22.5835L26.6472 22.5855C26.6535 22.5855 26.6597 22.5841 26.6654 22.5814C26.6711 22.5786 26.6761 22.5747 26.68 22.5697C26.684 22.5648 26.6867 22.5591 26.6882 22.5529C26.6896 22.5468 26.6896 22.5404 26.6882 22.5342L25.6 17.4204C25.5981 17.4109 25.593 17.4023 25.5855 17.3962C25.578 17.39 25.5687 17.3866 25.559 17.3865L24.921 17.3896C24.9115 17.3896 24.9022 17.3929 24.8948 17.3988C24.8873 17.4048 24.8821 17.4131 24.88 17.4224L23.7979 22.5383C23.7966 22.5445 23.7966 22.5509 23.798 22.557C23.7994 22.5632 23.8022 22.5689 23.8061 22.5738C23.8101 22.5788 23.8151 22.5827 23.8208 22.5855C23.8264 22.5882 23.8327 22.5896 23.839 22.5896L24.44 22.5855C24.4497 22.5855 24.4591 22.5821 24.4665 22.5759C24.474 22.5697 24.4791 22.5612 24.481 22.5517ZM24.8349 20.6768L25.2072 18.6419C25.2318 18.5086 25.2564 18.5086 25.281 18.6419L25.6544 20.6686C25.6639 20.7212 25.642 20.7476 25.5887 20.7476L24.8933 20.7465C24.8846 20.7465 24.8759 20.7446 24.868 20.7409C24.86 20.7372 24.853 20.7318 24.8474 20.7252C24.8418 20.7185 24.8378 20.7107 24.8356 20.7024C24.8335 20.694 24.8332 20.6853 24.8349 20.6768Z" fill="white"/>
<path fill-rule="evenodd" clip-rule="evenodd" d="M27.9426 20.2184L27.9456 22.5353C27.9456 22.5681 27.9296 22.5845 27.8974 22.5845L27.2564 22.5856C27.225 22.5856 27.2092 22.5702 27.2092 22.5394V17.4584C27.2092 17.4181 27.2294 17.3969 27.2697 17.3948C27.8222 17.3709 28.307 17.3811 28.7241 17.4256C29.7477 17.5333 29.9097 18.5086 29.719 19.321C29.6458 19.6314 29.4674 19.8471 29.1836 19.9681C29.1731 19.9727 29.1646 19.9809 29.1597 19.991C29.1548 20.0012 29.1538 20.0128 29.1569 20.0235L29.8738 22.5589C29.878 22.5739 29.8721 22.5818 29.8564 22.5825C29.466 22.5941 29.2383 22.5886 29.1733 22.5661C29.1679 22.564 29.1644 22.5603 29.1631 22.5548L28.5118 20.2081C28.5015 20.1705 28.4766 20.1514 28.4369 20.1507L28.0133 20.1476C27.9662 20.1476 27.9426 20.1712 27.9426 20.2184ZM27.9385 17.9487L27.9446 19.5897C27.9446 19.5936 27.9454 19.5975 27.9469 19.6011C27.9484 19.6047 27.9506 19.6079 27.9533 19.6107C27.9561 19.6135 27.9594 19.6157 27.963 19.6172C27.9666 19.6186 27.9705 19.6194 27.9744 19.6194L28.4267 19.6174C28.5118 19.6171 28.596 19.5996 28.6746 19.5659C28.7531 19.5322 28.8244 19.483 28.8844 19.421C28.9444 19.359 28.992 19.2854 29.0243 19.2046C29.0566 19.1237 29.0731 19.0371 29.0728 18.9497L29.0708 18.5804C29.0702 18.4039 29.0014 18.2348 28.8794 18.1104C28.7575 17.9859 28.5924 17.9163 28.4205 17.9169L27.9682 17.9189C27.9643 17.9189 27.9604 17.9197 27.9568 17.9212C27.9545 17.9221 27.9523 17.9234 27.9503 17.9249C27.9492 17.9257 27.9481 17.9266 27.9472 17.9276C27.9444 17.9304 27.9422 17.9337 27.9407 17.9373C27.94 17.9391 27.9394 17.9411 27.939 17.9431C27.9386 17.9449 27.9385 17.9468 27.9385 17.9487Z" fill="white"/>
<path d="M32.2482 19.6419L31.3087 19.6429C31.2948 19.6429 31.2815 19.6374 31.2717 19.6276C31.2619 19.6178 31.2564 19.6045 31.2564 19.5906L31.2574 17.9875C31.2574 17.9737 31.2629 17.9604 31.2728 17.9506C31.2826 17.9408 31.2959 17.9352 31.3097 17.9352L32.4882 17.9445C32.5021 17.9445 32.5154 17.939 32.5252 17.9291C32.535 17.9193 32.5405 17.906 32.5405 17.8922L32.5395 17.4409C32.5395 17.427 32.534 17.4137 32.5242 17.4039C32.5144 17.3941 32.5011 17.3886 32.4872 17.3886L30.5774 17.3875C30.5636 17.3875 30.5503 17.3931 30.5404 17.4029C30.5306 17.4127 30.5251 17.426 30.5251 17.4399L30.5241 22.5332C30.5241 22.5471 30.5296 22.5604 30.5394 22.5702C30.5492 22.58 30.5625 22.5855 30.5764 22.5855H32.5108C32.5177 22.5855 32.5246 22.5841 32.531 22.5814C32.5374 22.5787 32.5433 22.5748 32.5481 22.5698C32.553 22.5648 32.5568 22.559 32.5594 22.5525C32.562 22.546 32.5632 22.5391 32.5631 22.5322L32.5559 22.1055C32.5556 22.0918 32.55 22.0788 32.5402 22.0692C32.5304 22.0596 32.5173 22.0542 32.5036 22.0542L31.3087 22.0573C31.2948 22.0573 31.2815 22.0518 31.2717 22.042C31.2619 22.0322 31.2564 22.0189 31.2564 22.005L31.2574 20.2091C31.2574 20.1952 31.2629 20.1819 31.2728 20.1721C31.2826 20.1623 31.2959 20.1568 31.3097 20.1568L32.2503 20.1588C32.2641 20.1588 32.2774 20.1533 32.2872 20.1435C32.2971 20.1337 32.3026 20.1204 32.3026 20.1065L32.3005 19.6942C32.3005 19.6803 32.295 19.667 32.2852 19.6572C32.2754 19.6474 32.2621 19.6419 32.2482 19.6419Z" fill="white"/>
<path d="M38.3856 22.0583L39.6195 22.0532C39.6317 22.0532 39.6435 22.0581 39.6521 22.0667C39.6608 22.0754 39.6656 22.0871 39.6656 22.0994L39.6667 22.5394C39.6667 22.5516 39.6618 22.5633 39.6531 22.572C39.6445 22.5807 39.6328 22.5855 39.6205 22.5855H37.6595C37.6472 22.5855 37.6355 22.5807 37.6269 22.572C37.6182 22.5633 37.6133 22.5516 37.6133 22.5394L37.6123 17.4358C37.6123 17.4235 37.6172 17.4118 37.6258 17.4031C37.6345 17.3945 37.6462 17.3896 37.6585 17.3896L38.2933 17.3865C38.3056 17.3865 38.3173 17.3914 38.326 17.4001C38.3346 17.4087 38.3395 17.4205 38.3395 17.4327V22.0122C38.3395 22.0244 38.3443 22.0362 38.353 22.0448C38.3617 22.0535 38.3734 22.0583 38.3856 22.0583Z" fill="white"/>
<path d="M44.8462 22.5332L44.8451 17.9875C44.8451 17.9737 44.8506 17.9604 44.8604 17.9506C44.8703 17.9408 44.8836 17.9352 44.8974 17.9352L45.6492 17.9414C45.6631 17.9414 45.6764 17.9359 45.6862 17.9261C45.696 17.9163 45.7015 17.903 45.7015 17.8891L45.7056 17.4399C45.7056 17.426 45.7001 17.4127 45.6903 17.4029C45.6805 17.3931 45.6672 17.3875 45.6533 17.3875L43.2913 17.3886C43.2774 17.3886 43.2641 17.3941 43.2543 17.4039C43.2445 17.4137 43.239 17.427 43.239 17.4409V17.8891C43.239 17.903 43.2445 17.9163 43.2543 17.9261C43.2641 17.9359 43.2774 17.9414 43.2913 17.9414L44.0677 17.9373C44.0816 17.9373 44.0949 17.9428 44.1047 17.9526C44.1145 17.9624 44.12 17.9757 44.12 17.9896V22.5363C44.12 22.5501 44.1255 22.5634 44.1353 22.5733C44.1451 22.5831 44.1584 22.5886 44.1723 22.5886L44.7938 22.5855C44.8077 22.5855 44.821 22.58 44.8308 22.5702C44.8406 22.5604 44.8462 22.5471 44.8462 22.5332Z" fill="white"/>
<path d="M48.1918 20.1548L46.9651 20.1537C46.9532 20.1537 46.9417 20.1585 46.9332 20.1669C46.9248 20.1754 46.92 20.1869 46.92 20.1989L46.9262 22.5373C46.9262 22.5493 46.9214 22.5608 46.9129 22.5692C46.9045 22.5777 46.893 22.5824 46.881 22.5824L46.2277 22.5876C46.2157 22.5876 46.2043 22.5828 46.1958 22.5744C46.1873 22.5659 46.1826 22.5544 46.1826 22.5424L46.1815 17.4317C46.1815 17.4197 46.1863 17.4082 46.1948 17.3998C46.2032 17.3913 46.2147 17.3865 46.2267 17.3865L46.879 17.3896C46.8909 17.3896 46.9024 17.3944 46.9109 17.4028C46.9194 17.4113 46.9241 17.4228 46.9241 17.4348L46.9231 19.5896C46.9231 19.6016 46.9278 19.6131 46.9363 19.6215C46.9448 19.63 46.9562 19.6348 46.9682 19.6348L48.1908 19.6358C48.2027 19.6358 48.2142 19.631 48.2227 19.6226C48.2311 19.6141 48.2359 19.6026 48.2359 19.5907L48.2338 17.4327C48.2338 17.4207 48.2386 17.4093 48.2471 17.4008C48.2555 17.3923 48.267 17.3876 48.279 17.3876L48.9241 17.3906C48.9361 17.3906 48.9476 17.3954 48.956 17.4039C48.9645 17.4123 48.9692 17.4238 48.9692 17.4358L48.9703 22.5383C48.9703 22.5503 48.9655 22.5618 48.957 22.5703C48.9486 22.5787 48.9371 22.5835 48.9251 22.5835L48.279 22.5876C48.267 22.5876 48.2555 22.5828 48.2471 22.5744C48.2386 22.5659 48.2338 22.5544 48.2338 22.5424L48.2369 20.1999C48.2369 20.1879 48.2322 20.1764 48.2237 20.168C48.2152 20.1595 48.2038 20.1548 48.1918 20.1548Z" fill="white"/>
<path d="M51.5067 19.644L50.5477 19.643C50.5371 19.643 50.5269 19.6387 50.5194 19.6312C50.5119 19.6237 50.5077 19.6136 50.5077 19.603V17.9753C50.5077 17.9647 50.5119 17.9545 50.5194 17.947C50.5269 17.9395 50.5371 17.9353 50.5477 17.9353L51.7436 17.9424C51.7542 17.9424 51.7644 17.9382 51.7719 17.9307C51.7794 17.9232 51.7836 17.9131 51.7836 17.9024L51.7897 17.4265C51.7897 17.4213 51.7887 17.4161 51.7867 17.4112C51.7847 17.4064 51.7817 17.402 51.778 17.3983C51.7763 17.3965 51.7744 17.3949 51.7724 17.3936C51.7701 17.392 51.7676 17.3907 51.765 17.3896C51.7602 17.3876 51.755 17.3865 51.7497 17.3865L49.8082 17.3886C49.7976 17.3886 49.7874 17.3928 49.7799 17.4003C49.7724 17.4078 49.7682 17.418 49.7682 17.4286L49.7692 22.5465C49.7692 22.5572 49.7734 22.5673 49.781 22.5748C49.7885 22.5823 49.7986 22.5865 49.8092 22.5865H51.7579C51.7686 22.5865 51.7787 22.5823 51.7862 22.5748C51.7937 22.5673 51.798 22.5572 51.798 22.5465L51.7959 22.0932C51.7959 22.0826 51.7917 22.0724 51.7842 22.0649C51.7767 22.0574 51.7665 22.0532 51.7559 22.0532L50.5497 22.0573C50.5471 22.0573 50.5444 22.057 50.5418 22.0565C50.5393 22.056 50.5368 22.0553 50.5344 22.0543C50.5296 22.0523 50.5252 22.0493 50.5215 22.0456C50.5177 22.0419 50.5148 22.0375 50.5128 22.0326C50.5115 22.0296 50.5107 22.0265 50.5102 22.0233L50.5101 22.0226L50.51 22.0216L50.5098 22.0202L50.5098 22.0196L50.5098 22.0184L50.5097 22.0173L50.5056 20.1978C50.5056 20.1872 50.5099 20.177 50.5174 20.1695C50.5249 20.162 50.535 20.1578 50.5456 20.1578L51.5056 20.1589C51.5094 20.1589 51.5131 20.1583 51.5167 20.1573C51.5182 20.1569 51.5196 20.1564 51.5209 20.1558C51.5239 20.1546 51.5267 20.153 51.5293 20.1511C51.53 20.1506 51.5308 20.15 51.5315 20.1494C51.5323 20.1487 51.5331 20.1479 51.5339 20.1471C51.5355 20.1456 51.5369 20.1438 51.5382 20.142C51.5391 20.1408 51.5399 20.1395 51.5406 20.1382C51.5411 20.1374 51.5415 20.1367 51.5419 20.1358C51.5421 20.1353 51.5424 20.1347 51.5426 20.1342C51.5446 20.1293 51.5456 20.1241 51.5456 20.1189L51.5467 19.684C51.5467 19.6734 51.5425 19.6632 51.535 19.6557C51.5274 19.6482 51.5173 19.644 51.5067 19.644Z" fill="white"/>
<path fill-rule="evenodd" clip-rule="evenodd" d="M53.0154 21.3189L52.7836 22.5466C52.7815 22.5573 52.7757 22.5669 52.7673 22.5738C52.7589 22.5807 52.7483 22.5845 52.7374 22.5845L52.1436 22.5886C52.1405 22.5886 52.1374 22.5883 52.1343 22.5877C52.1305 22.587 52.1267 22.5857 52.1231 22.584C52.1168 22.581 52.1111 22.5765 52.1067 22.571C52.1023 22.5655 52.0991 22.559 52.0975 22.5521C52.0959 22.5453 52.0959 22.5381 52.0974 22.5312L53.1805 17.4266C53.1829 17.4161 53.1887 17.4067 53.1971 17.4C53.2055 17.3933 53.2159 17.3896 53.2267 17.3896L53.8564 17.3855C53.8673 17.3856 53.8779 17.3894 53.8863 17.3963C53.8947 17.4032 53.9004 17.4128 53.9026 17.4235L54.9897 22.5322C54.9913 22.5391 54.9912 22.5463 54.9896 22.5532C54.988 22.5601 54.9849 22.5665 54.9805 22.572C54.976 22.5775 54.9704 22.582 54.964 22.585C54.9577 22.5881 54.9507 22.5897 54.9436 22.5896L54.3446 22.5845C54.3336 22.5844 54.3229 22.5805 54.3145 22.5734C54.3061 22.5663 54.3004 22.5564 54.2985 22.5455L54.08 21.3199C54.0781 21.309 54.0724 21.2992 54.064 21.2921C54.0555 21.2849 54.0449 21.281 54.0338 21.2809L53.0615 21.2799C53.0505 21.28 53.0398 21.2839 53.0314 21.291C53.023 21.2982 53.0173 21.308 53.0154 21.3189ZM53.1298 20.7174C53.1299 20.7192 53.1302 20.7209 53.1307 20.7227C53.1308 20.7234 53.131 20.724 53.1312 20.7247C53.1319 20.7267 53.1328 20.7287 53.1338 20.7305C53.1348 20.7322 53.1358 20.7337 53.1371 20.7352C53.1401 20.7388 53.144 20.7418 53.1483 20.7437C53.1497 20.7444 53.1512 20.7449 53.1527 20.7454C53.1541 20.7457 53.1554 20.746 53.1568 20.7462C53.1585 20.7465 53.1603 20.7466 53.1621 20.7466H53.9292C53.934 20.7467 53.9387 20.7457 53.943 20.7437C53.9473 20.7418 53.9512 20.7388 53.9542 20.7352C53.9573 20.7316 53.9595 20.7273 53.9606 20.7227C53.9609 20.7217 53.9611 20.7207 53.9612 20.7197C53.9615 20.7183 53.9616 20.7167 53.9616 20.7152C53.9616 20.7141 53.9616 20.713 53.9615 20.7119C53.9614 20.7108 53.9612 20.7097 53.961 20.7086L53.5764 18.6132C53.5757 18.6106 53.5747 18.6081 53.5734 18.6058C53.5713 18.602 53.5685 18.5987 53.5651 18.5961C53.5595 18.5918 53.5527 18.5895 53.5456 18.5895C53.5386 18.5895 53.5318 18.5918 53.5262 18.5961C53.5206 18.6004 53.5167 18.6064 53.5149 18.6132L53.1303 20.7086C53.1297 20.7115 53.1295 20.7145 53.1298 20.7174Z" fill="white"/>
<path fill-rule="evenodd" clip-rule="evenodd" d="M55.5373 17.3939C55.5271 17.4039 55.5213 17.4174 55.521 17.4317L55.5026 22.5332C55.5025 22.5379 55.503 22.5425 55.5041 22.5471C55.5043 22.5477 55.5044 22.5484 55.5046 22.549C55.5051 22.5508 55.5057 22.5526 55.5064 22.5543C55.5091 22.561 55.5131 22.5672 55.5181 22.5723C55.5232 22.5775 55.5292 22.5816 55.5359 22.5844C55.5425 22.5872 55.5497 22.5886 55.5569 22.5886L56.8123 22.5927C56.9905 22.5934 57.1671 22.559 57.332 22.4917C57.4969 22.4243 57.6468 22.3252 57.7733 22.2001C57.8998 22.0749 58.0003 21.9262 58.0691 21.7623C58.1379 21.5984 58.1737 21.4227 58.1744 21.245L58.1826 18.7404C58.1832 18.5627 58.1488 18.3867 58.0812 18.2223C58.0137 18.0579 57.9143 17.9084 57.7888 17.7823C57.6632 17.6562 57.514 17.556 57.3496 17.4874C57.1853 17.4188 57.009 17.3831 56.8308 17.3824L55.5754 17.3783C55.5611 17.3783 55.5475 17.3839 55.5373 17.3939ZM56.2359 22.0296L56.2503 17.9619C56.2503 17.954 56.2534 17.9465 56.259 17.9409C56.2645 17.9353 56.2721 17.9322 56.28 17.9322L56.76 17.9342C56.8501 17.9345 56.9393 17.9535 57.0225 17.9902C57.1056 18.0268 57.1811 18.0805 57.2446 18.148C57.3082 18.2155 57.3585 18.2956 57.3927 18.3837C57.4269 18.4718 57.4444 18.5662 57.4441 18.6614L57.4338 21.3383C57.4333 21.5306 57.3604 21.7148 57.2314 21.8504C57.1023 21.986 56.9276 22.0619 56.7456 22.0614L56.2656 22.0594C56.2578 22.0594 56.2502 22.0562 56.2446 22.0506C56.239 22.0451 56.2359 22.0375 56.2359 22.0296Z" fill="white"/>
<path fill-rule="evenodd" clip-rule="evenodd" d="M6.37128 20.7497L6.2359 20.8502C6.19692 20.8789 6.16444 20.8728 6.13846 20.8317C6.0653 20.7182 5.96854 20.6252 5.8482 20.5528C5.79692 20.522 5.79726 20.4916 5.84923 20.4615C6.51179 20.0704 7.03624 19.5401 7.42256 18.8707C7.44855 18.8249 7.48752 18.8061 7.53949 18.8143L8.00205 18.8881C8.01546 18.8901 8.02811 18.8956 8.03869 18.904C8.04926 18.9125 8.05738 18.9236 8.06219 18.9363C8.06701 18.949 8.06835 18.9627 8.06606 18.976C8.06379 18.9894 8.05797 19.0019 8.04923 19.0122C8.01983 19.0464 7.98667 19.0772 7.94974 19.1046C7.81914 19.1996 7.83453 19.2451 7.9959 19.241C8.36444 19.2314 8.7159 19.2293 9.05025 19.2348C9.21162 19.2375 9.3559 19.3032 9.48308 19.4317C9.50632 19.455 9.50837 19.4796 9.48923 19.5056L9.04718 20.1035C9.04337 20.1088 9.04109 20.115 9.0406 20.1214C9.04012 20.1279 9.04144 20.1343 9.04442 20.1401C9.0474 20.1458 9.05192 20.1507 9.05748 20.154C9.06304 20.1573 9.06942 20.159 9.0759 20.1589L10.4533 20.1558C10.4985 20.1558 10.521 20.1784 10.521 20.2235V21.9384C10.521 21.9863 10.4971 22.0102 10.4492 22.0102L9.05949 22.0143C9.05118 22.0143 9.04296 22.0159 9.0353 22.0192C9.02765 22.0224 9.0207 22.0271 9.01488 22.033C9.00906 22.0389 9.00447 22.0459 9.00139 22.0536C8.9983 22.0613 8.99679 22.0696 8.99692 22.0779L9.00205 23.2738C9.00273 23.3517 9.04171 23.3907 9.11897 23.3907L10.2646 23.3928C10.3104 23.3929 10.3546 23.3755 10.3881 23.3443C10.4216 23.3131 10.442 23.2703 10.4451 23.2246L10.4851 22.6635C10.4854 22.659 10.4869 22.6547 10.4894 22.6509C10.492 22.6472 10.4954 22.6442 10.4995 22.6422C10.5035 22.6402 10.508 22.6393 10.5126 22.6397C10.5171 22.64 10.5214 22.6415 10.5251 22.644C10.6496 22.7275 10.7846 22.789 10.9303 22.8287C10.9569 22.8362 10.9703 22.854 10.9703 22.882C10.9692 23.2481 10.9097 23.8461 10.4441 23.8687C9.99761 23.8899 9.5094 23.8905 8.97949 23.8707C8.58872 23.8553 8.46974 23.5979 8.48 23.2522C8.49094 22.8529 8.49162 22.4793 8.48205 22.1312C8.47726 21.9815 8.44957 21.977 8.39897 22.1179C8.03897 23.1251 7.17128 23.6861 6.15897 23.9292C6.14931 23.9313 6.13919 23.9305 6.12988 23.9269C6.12058 23.9232 6.1125 23.9169 6.10667 23.9087L5.83795 23.5117C5.83632 23.5092 5.83529 23.5064 5.83495 23.5034C5.8346 23.5005 5.83495 23.4975 5.83596 23.4948C5.8364 23.4936 5.83697 23.4924 5.83764 23.4914C5.83851 23.49 5.83955 23.4888 5.84074 23.4878C5.84287 23.4859 5.84543 23.4846 5.8482 23.484C6.7159 23.2851 7.49743 22.8922 7.86461 22.0594C7.86701 22.0541 7.86804 22.0483 7.86761 22.0425C7.86718 22.0367 7.86529 22.031 7.86213 22.0261C7.85897 22.0213 7.85463 22.0172 7.84951 22.0144C7.84439 22.0117 7.83865 22.0102 7.83282 22.0102H6.52C6.46735 22.0102 6.44102 21.9839 6.44102 21.9312L6.44718 20.7876C6.44718 20.7247 6.42188 20.7121 6.37128 20.7497ZM7.49846 19.7189C7.49388 19.7189 7.48933 19.7198 7.4851 19.7215C7.48087 19.7233 7.47704 19.7259 7.47384 19.7292L7.11692 20.1046C7.11219 20.1094 7.10903 20.1156 7.10784 20.1222C7.10665 20.1289 7.1075 20.1358 7.11026 20.142C7.11302 20.1482 7.11758 20.1534 7.12334 20.1569C7.1291 20.1605 7.13579 20.1623 7.14256 20.162L8.3641 20.1548C8.36927 20.1548 8.37436 20.1535 8.37898 20.1512C8.3836 20.1489 8.38764 20.1456 8.39077 20.1415L8.66769 19.7753C8.6715 19.7703 8.67384 19.7644 8.67445 19.7581C8.67507 19.7519 8.67393 19.7455 8.67116 19.7399C8.66839 19.7343 8.6641 19.7295 8.65878 19.7262C8.65346 19.7228 8.64731 19.721 8.64102 19.721L7.49846 19.7189ZM7.99179 21.5179C8.00607 21.5178 8.01983 21.5125 8.03056 21.5031C8.0413 21.4937 8.04829 21.4807 8.05025 21.4666L8.15077 20.7189C8.15194 20.7105 8.1513 20.702 8.1489 20.6939C8.14651 20.6857 8.14241 20.6782 8.13687 20.6718C8.13134 20.6654 8.1245 20.6603 8.11681 20.6567C8.10913 20.6532 8.10077 20.6513 8.09231 20.6512L7.01231 20.6481C6.99653 20.6481 6.9814 20.6544 6.97024 20.6656C6.95909 20.6767 6.95282 20.6919 6.95282 20.7076L6.95385 21.4635C6.95385 21.4793 6.96011 21.4944 6.97127 21.5056C6.98242 21.5167 6.99755 21.523 7.01333 21.523L7.99179 21.5179ZM8.72923 20.6481C8.71609 20.6481 8.70338 20.6528 8.69354 20.6615C8.68369 20.6702 8.67741 20.6823 8.6759 20.6953L8.57949 21.4625C8.57846 21.4701 8.57907 21.4778 8.58128 21.4851C8.5835 21.4924 8.58726 21.4992 8.59232 21.5049C8.59738 21.5107 8.60362 21.5153 8.6106 21.5184C8.61759 21.5215 8.62517 21.5231 8.63282 21.523L9.92923 21.5199C9.94337 21.5199 9.95694 21.5143 9.96694 21.5043C9.97694 21.4943 9.98256 21.4808 9.98256 21.4666L9.97641 20.7046C9.97615 20.6908 9.97055 20.6776 9.9608 20.6679C9.95104 20.6581 9.93789 20.6525 9.9241 20.6522L8.72923 20.6481Z" fill="white"/>
<path d="M2.81538 19.7527V21.0153C2.81538 21.0273 2.81063 21.0388 2.80216 21.0472C2.7937 21.0557 2.78222 21.0604 2.77025 21.0604H1.17948C1.16751 21.0604 1.15604 21.0652 1.14757 21.0737C1.13911 21.0821 1.13435 21.0936 1.13435 21.1056L1.13333 21.5251C1.13333 21.537 1.13808 21.5485 1.14655 21.557C1.15501 21.5654 1.16649 21.5702 1.17846 21.5702L2.77435 21.5712C2.78632 21.5712 2.7978 21.576 2.80627 21.5844C2.81473 21.5929 2.81948 21.6044 2.81948 21.6163L2.8123 23.122C2.8123 23.1339 2.80755 23.1454 2.79909 23.1539C2.79062 23.1624 2.77914 23.1671 2.76718 23.1671L0.685124 23.1692C0.679198 23.1692 0.673329 23.1703 0.667854 23.1726C0.662379 23.1749 0.657404 23.1782 0.653214 23.1824C0.649023 23.1866 0.645699 23.1915 0.643431 23.197C0.641163 23.2025 0.639996 23.2084 0.639996 23.2143L0.642047 23.6563C0.642047 23.6623 0.643214 23.6681 0.645482 23.6736C0.64775 23.6791 0.651074 23.6841 0.655265 23.6882C0.659455 23.6924 0.66443 23.6958 0.669905 23.698C0.675381 23.7003 0.681249 23.7015 0.687175 23.7015L5.56102 23.6953C5.57281 23.6953 5.58414 23.6907 5.59257 23.6825C5.60101 23.6742 5.60588 23.663 5.60615 23.6512L5.61025 23.2225C5.61026 23.2107 5.60564 23.1994 5.5974 23.1909C5.58916 23.1825 5.57794 23.1776 5.56615 23.1774L3.4041 23.1681C3.39213 23.1681 3.38065 23.1634 3.37219 23.1549C3.36372 23.1465 3.35897 23.135 3.35897 23.123L3.36102 21.6143C3.36102 21.6023 3.36578 21.5908 3.37424 21.5824C3.3827 21.5739 3.39418 21.5692 3.40615 21.5692L5.08923 21.5702C5.1012 21.5702 5.11267 21.5654 5.12114 21.557C5.1296 21.5485 5.13435 21.537 5.13435 21.5251V21.1045C5.13435 21.0926 5.1296 21.0811 5.12114 21.0726C5.11267 21.0642 5.1012 21.0594 5.08923 21.0594H3.40512C3.39316 21.0594 3.38168 21.0547 3.37321 21.0462C3.36475 21.0377 3.36 21.0263 3.36 21.0143V19.7517C3.36 19.7398 3.36475 19.7283 3.37321 19.7198C3.38168 19.7113 3.39316 19.7066 3.40512 19.7066L5.28923 19.7117C5.29515 19.7117 5.30102 19.7106 5.3065 19.7083C5.31197 19.706 5.31695 19.7027 5.32114 19.6985C5.32533 19.6943 5.32865 19.6893 5.33092 19.6839C5.33319 19.6784 5.33436 19.6725 5.33436 19.6666L5.33333 19.2245C5.33333 19.2126 5.32857 19.2011 5.32011 19.1926C5.31165 19.1842 5.30017 19.1794 5.2882 19.1794L0.95897 19.1804C0.947001 19.1804 0.935523 19.1852 0.92706 19.1937C0.918596 19.2021 0.913842 19.2136 0.913842 19.2256L0.917945 19.6676C0.917945 19.6796 0.922699 19.6911 0.931162 19.6995C0.939625 19.708 0.951104 19.7127 0.963073 19.7127L2.77025 19.7076C2.78222 19.7076 2.7937 19.7124 2.80216 19.7208C2.81063 19.7293 2.81538 19.7408 2.81538 19.7527Z" fill="white"/>
<path d="M3.99487 21.7281C4.04068 21.6959 4.08547 21.6973 4.12923 21.7322C4.52649 22.0481 4.86359 22.3708 5.14051 22.7004C5.18359 22.7517 5.1788 22.7982 5.12615 22.8399L4.85025 23.0583C4.8396 23.0666 4.82742 23.0728 4.81443 23.0764C4.80144 23.08 4.78788 23.081 4.77454 23.0794C4.76119 23.0778 4.74833 23.0736 4.73668 23.0669C4.72504 23.0603 4.71483 23.0515 4.70666 23.0409C4.42632 22.6806 4.0947 22.3462 3.71179 22.0378C3.70289 22.0306 3.69578 22.0215 3.69103 22.011C3.68628 22.0006 3.68401 21.9893 3.68441 21.9778C3.68481 21.9664 3.68786 21.9552 3.69332 21.9451C3.69879 21.9351 3.70652 21.9264 3.71589 21.9199L3.99487 21.7281Z" fill="white"/>
<path d="M10.3538 22.8255L9.5241 22.0532C9.51301 22.0429 9.49874 22.0367 9.48364 22.0356C9.46854 22.0344 9.45351 22.0385 9.44102 22.0471L9.15282 22.246C9.14469 22.2516 9.13788 22.2589 9.13289 22.2674C9.12791 22.2758 9.12487 22.2853 9.12398 22.2951C9.1231 22.3049 9.1244 22.3148 9.12779 22.3241C9.13118 22.3333 9.13658 22.3417 9.14359 22.3486L9.99487 23.1722C10.0072 23.1842 10.0236 23.1911 10.0408 23.1913C10.058 23.1915 10.0746 23.185 10.0872 23.1732L10.3538 22.923C10.3605 22.9167 10.3658 22.9092 10.3695 22.9008C10.3731 22.8924 10.375 22.8834 10.375 22.8742C10.375 22.8651 10.3731 22.8561 10.3695 22.8477C10.3658 22.8393 10.3605 22.8318 10.3538 22.8255Z" fill="white"/>
</svg>
