<svg width="112" height="28" fill="none" xmlns="http://www.w3.org/2000/svg"><path d="M7.17 1.765c-1.418.467-2.52 1.241-3.303 2.324-.766 1.064-1.148 2.39-1.148 3.976 0 .71.065 1.195.196 1.456.13.261.196.42.196.476-1.998 0-2.996-.85-2.996-2.548 0-1.157.438-2.315 1.316-3.472.896-1.176 2.034-2.128 3.416-2.856 1.4-.747 2.79-1.12 4.172-1.12.69 0 1.4.13 2.128.392l-.644 14.756L16.663.393h4.032l-2.94 20.608h-4.032l1.792-12.572-5.264 12.572H6.415l.56-12.628-4.676 12.628H.059L7.17 1.765ZM24.226 21.169c-1.382 0-2.455-.355-3.22-1.064-.766-.728-1.148-1.857-1.148-3.388 0-1.288.252-2.707.756-4.256a9.767 9.767 0 0 1 2.464-4.004c1.138-1.139 2.585-1.708 4.34-1.708 2.053 0 3.08.896 3.08 2.688a5.018 5.018 0 0 1-.896 2.884c-.598.877-1.391 1.587-2.38 2.128a7.814 7.814 0 0 1-3.164.896 21 21 0 0 0-.056 1.12c0 .915.158 1.54.476 1.876.317.317.83.476 1.54.476 1.008 0 1.866-.233 2.576-.7.728-.467 1.521-1.176 2.38-2.128h.952c-2.072 3.453-4.639 5.18-7.7 5.18Zm.056-7.168c.69-.037 1.344-.28 1.96-.728a4.934 4.934 0 0 0 1.512-1.708 4.36 4.36 0 0 0 .588-2.184c0-.765-.234-1.148-.7-1.148-.672 0-1.335.588-1.988 1.764-.635 1.176-1.092 2.51-1.372 4.004Z" fill="#fff"/><path d="M35.924 28.001c-.896 0-1.643-.233-2.24-.7-.598-.467-.896-1.139-.896-2.016 0-1.064.43-1.923 1.288-2.576.858-.635 1.95-1.167 3.276-1.596l.336-1.484c-.952 1.027-2.072 1.54-3.36 1.54-1.064 0-1.95-.364-2.66-1.092-.71-.728-1.064-1.867-1.064-3.416 0-1.381.27-2.828.812-4.34.56-1.53 1.381-2.819 2.464-3.864 1.101-1.064 2.408-1.596 3.92-1.596.765 0 1.334.13 1.708.392.373.261.56.607.56 1.036v.168l.308-1.456h4.032l-2.772 12.992c.896-.299 1.614-.747 2.156-1.344.541-.597.998-1.484 1.372-2.66h1.176c-.504 1.661-1.186 2.884-2.044 3.668a6.934 6.934 0 0 1-2.912 1.568l-.42 2.016c-.374 1.81-1.018 3.052-1.932 3.724a5.025 5.025 0 0 1-3.108 1.036Zm.224-9.548c.43 0 .868-.196 1.316-.588.448-.392.756-.924.924-1.596l1.428-6.636c0-.224-.094-.448-.28-.672-.187-.243-.476-.364-.868-.364-.747 0-1.419.439-2.016 1.316-.598.859-1.064 1.904-1.4 3.136-.336 1.213-.504 2.287-.504 3.22 0 .933.13 1.53.392 1.792.28.261.616.392 1.008.392Zm-.868 7.364c.317 0 .625-.215.924-.644.298-.43.532-1.045.7-1.848l.168-.812c-1.83.672-2.744 1.465-2.744 2.38 0 .243.084.457.252.644.168.187.401.28.7.28Z" fill="#fff"/><path d="M48.52 21.169c-1.065 0-1.952-.364-2.66-1.092-.71-.728-1.065-1.867-1.065-3.416 0-1.381.27-2.828.812-4.34.56-1.53 1.382-2.819 2.464-3.864 1.102-1.064 2.408-1.596 3.92-1.596.766 0 1.335.13 1.708.392.373.261.56.607.56 1.036v.196l.308-1.484H58.6l-2.016 9.52c-.075.28-.112.579-.112.896 0 .373.084.644.252.812.187.15.486.224.896.224.261 0 .467-.037.616-.112-.41 1.045-.803 1.783-1.176 2.212-.373.41-.914.616-1.624.616-.765 0-1.39-.224-1.876-.672-.466-.467-.756-1.11-.868-1.932-1.139 1.736-2.53 2.604-4.172 2.604Zm1.82-2.716c.466 0 .923-.215 1.371-.644.467-.448.784-1.055.952-1.82l1.344-6.328c0-.243-.093-.476-.28-.7-.186-.243-.476-.364-.868-.364-.747 0-1.419.439-2.016 1.316-.597.859-1.064 1.904-1.4 3.136-.336 1.213-.504 2.287-.504 3.22 0 .933.13 1.53.392 1.792.28.261.616.392 1.008.392ZM62.85 26.797c-1.326 0-2.352-.364-3.08-1.092-.71-.71-1.065-1.661-1.065-2.856 0-1.008.309-1.885.925-2.632.615-.747 1.446-1.12 2.491-1.12.803 0 1.456.121 1.96.364.523.224.784.728.784 1.512 0 .336-.055.71-.167 1.12-.336-.28-.626-.476-.868-.588a2.245 2.245 0 0 0-.813-.14c-.616 0-1.1.205-1.456.616-.336.41-.504.896-.504 1.456 0 .653.197 1.139.588 1.456.392.336.831.504 1.316.504.449 0 .822-.093 1.12-.28.318-.168.598-.504.84-1.008.243-.485.476-1.204.7-2.156l4.397-19.992c-1.251.504-2.222 1.279-2.912 2.324C66.415 5.33 66.07 6.6 66.07 8.093c0 .69.065 1.176.196 1.456.13.261.195.41.195.448-1.007 0-1.763-.205-2.267-.616-.486-.43-.729-1.13-.729-2.1 0-1.195.486-2.352 1.456-3.472.99-1.139 2.25-2.053 3.78-2.744C70.233.355 71.763.001 73.294.001h1.12l-4.2 19.88c-.486 2.296-1.288 4.023-2.409 5.18-1.12 1.157-2.772 1.736-4.956 1.736ZM76.601 21.169c-1.064 0-1.95-.364-2.66-1.092-.71-.728-1.064-1.867-1.064-3.416 0-1.381.27-2.828.812-4.34.56-1.53 1.382-2.819 2.464-3.864 1.101-1.064 2.408-1.596 3.92-1.596.766 0 1.335.13 1.708.392.373.261.56.607.56 1.036v.196l.308-1.484h4.032l-2.016 9.52c-.075.28-.112.579-.112.896 0 .803.383 1.204 1.148 1.204.523 0 .97-.243 1.344-.728.392-.485.7-1.12.924-1.904h1.176c-.69 2.016-1.55 3.388-2.576 4.116-1.008.71-2.025 1.064-3.052 1.064-.784 0-1.418-.215-1.904-.644-.466-.448-.746-1.092-.84-1.932-.541.765-1.148 1.39-1.82 1.876-.653.467-1.437.7-2.352.7Zm1.82-2.716c.467 0 .924-.215 1.372-.644.467-.448.784-1.055.952-1.82l1.344-6.328c0-.243-.093-.476-.28-.7-.186-.243-.476-.364-.868-.364-.746 0-1.419.439-2.016 1.316-.597.859-1.064 1.904-1.4 3.136-.336 1.213-.504 2.287-.504 3.22 0 .933.13 1.53.392 1.792.28.261.616.392 1.008.392Z" fill="#fff"/><path d="M91.984 21.169c-1.382 0-2.455-.355-3.22-1.064-.766-.728-1.148-1.857-1.148-3.388 0-1.288.252-2.707.755-4.256a10.178 10.178 0 0 1 2.464-4.004c1.14-1.139 2.577-1.708 4.313-1.708 1.12 0 1.913.243 2.38.728.485.485.727 1.101.727 1.848 0 .653-.14 1.157-.42 1.512-.28.355-.634.532-1.063.532-.318 0-.645-.112-.98-.336.223-.616.335-1.167.335-1.652 0-.355-.065-.635-.195-.84-.131-.205-.327-.308-.588-.308-.56 0-1.12.457-1.68 1.372-.56.915-1.018 2.025-1.373 3.332-.354 1.307-.531 2.483-.531 3.528 0 .915.158 1.54.475 1.876.318.317.831.476 1.54.476 1.008 0 1.867-.233 2.576-.7.728-.467 1.522-1.176 2.38-2.128h.952c-2.072 3.453-4.638 5.18-7.7 5.18Z" fill="#fff"/><path d="M109.254 21.169c-1.158 0-2.035-.27-2.632-.812-.598-.56-.896-1.353-.896-2.38 0-.448.056-.933.168-1.456l.224-1.092c.074-.317.112-.663.112-1.036 0-.896-.336-1.344-1.008-1.344-.299 0-.616.084-.952.252-.318.168-.691.43-1.12.784l-1.456 6.916h-4.032l4.06-19.04 4.144-.56-2.1 9.856 5.404-4.256h2.772l-5.6 3.892a3.58 3.58 0 0 1 .924-.112c1.008 0 1.773.308 2.296.924.522.616.784 1.4.784 2.352 0 .392-.038.747-.112 1.064l-.308 1.4c-.094.336-.14.635-.14.896 0 .69.364 1.036 1.092 1.036.41 0 .672-.028.784-.084a.88.88 0 0 1 .196-.084c-.038.616-.215 1.139-.532 1.568-.299.43-.654.756-1.064.98-.392.224-.728.336-1.008.336Z" fill="#fff"/></svg>