<svg width="106" height="30" viewBox="0 0 106 30" fill="none" xmlns="http://www.w3.org/2000/svg">
<g clip-path="url(#clip0_4416_8614)">
<path d="M10.2436 1.83773C10.0792 1.30328 10.3669 0.768825 10.9014 0.60435C20.2338 -2.15015 29.6074 4.88003 29.5663 14.5002C29.5663 15.0347 29.114 15.4869 28.5796 15.4869C28.0451 15.4869 27.5929 15.0347 27.5929 14.5002C27.5929 6.1545 19.4938 0.111 11.4769 2.49548C10.9425 2.65995 10.408 2.37218 10.2436 1.83773Z" fill="white"/>
<path d="M18.3837 20.0914C18.0136 19.6802 18.0959 19.0636 18.507 18.6935C22.2893 15.5279 20.0692 9.32 15.0947 9.2789C10.079 9.2789 7.85899 15.6101 11.7646 18.7346C12.2169 19.0636 12.258 19.6802 11.9291 20.1325C11.6001 20.5846 10.9835 20.6258 10.5312 20.2969C8.76342 18.8991 7.77679 16.8024 7.77679 14.5823C7.77679 10.5533 11.0657 7.2644 15.0947 7.2644C19.1237 7.2644 22.4126 10.5533 22.4126 14.5823C22.4126 16.7613 21.4671 18.8169 19.7814 20.2147C19.3704 20.5846 18.7536 20.5024 18.3837 20.0914Z" fill="white"/>
<path d="M74.4193 9.52532C74.5835 9.68972 74.666 9.8953 74.666 10.142C74.666 10.3886 74.5835 10.5942 74.4193 10.7587C74.255 10.9231 74.0495 11.0054 73.7615 11.0054H71.5003V19.0222C71.5003 19.2689 71.4185 19.4744 71.213 19.6799C71.0068 19.8444 70.8013 19.9266 70.514 19.9266C70.226 19.9266 70.0205 19.8444 69.8563 19.6799C69.6913 19.5155 69.6095 19.31 69.6095 19.0222V10.9642H67.307C67.0603 10.9642 66.8137 10.882 66.6492 10.7175C66.4848 10.5531 66.4026 10.3475 66.4026 10.1009C66.4026 9.8542 66.4848 9.64862 66.6492 9.48422C66.8137 9.31975 67.0192 9.23755 67.307 9.23755H73.8028C74.0495 9.27865 74.255 9.36085 74.4193 9.52532Z" fill="white"/>
<path fill-rule="evenodd" clip-rule="evenodd" d="M48.9299 17.296C48.5188 18.1183 47.9021 18.7349 47.1621 19.2283C46.4221 19.6805 45.5587 19.9272 44.6131 19.9272C43.6675 19.9272 42.8042 19.6805 42.0642 19.2283C41.3242 18.7761 40.7075 18.1183 40.2964 17.296C39.8852 16.4738 39.6386 15.6104 39.6386 14.6237C39.6386 13.6371 39.8441 12.7737 40.2964 11.9515C40.7075 11.1292 41.3242 10.5125 42.0642 10.0192C42.8042 9.56699 43.6675 9.32031 44.6131 9.32031C45.5587 9.32031 46.4221 9.56699 47.1621 10.0192C47.9021 10.4714 48.5188 11.1292 48.9299 11.9515C49.341 12.7737 49.5877 13.6371 49.5877 14.6237C49.5466 15.6104 49.341 16.4738 48.9299 17.296ZM47.2854 12.856C47.0387 12.3214 46.6687 11.9104 46.1754 11.5815C45.7231 11.2525 45.1887 11.1292 44.572 11.1292C43.9553 11.1292 43.462 11.2936 42.9686 11.5815C42.5164 11.8693 42.1464 12.3214 41.8997 12.856C41.653 13.3904 41.5297 14.0071 41.5297 14.6649C41.5297 15.3226 41.653 15.8982 41.8997 16.4738C42.1464 17.0083 42.5164 17.4193 42.9686 17.7483C43.4209 18.0361 43.9553 18.2005 44.572 18.2005C45.1476 18.2005 45.682 18.0361 46.1754 17.7483C46.6276 17.4193 46.9976 17.0083 47.2854 16.4738C47.5321 15.9393 47.6965 15.3637 47.6965 14.706C47.6554 13.966 47.5321 13.3904 47.2854 12.856Z" fill="white"/>
<path d="M57.1113 12.6499C57.4812 13.2254 57.6868 14.0476 57.6868 15.1165V19.0222C57.6868 19.2688 57.6046 19.4744 57.4401 19.68C57.2757 19.8445 57.0702 19.9267 56.8235 19.9267C56.5768 19.9267 56.3712 19.8445 56.2068 19.68C56.0424 19.5155 55.9601 19.31 55.9601 19.0222V15.1165C55.9601 14.5821 55.8368 14.171 55.6312 13.8421C55.4256 13.5543 55.0146 13.3899 54.4801 13.3899C53.9045 13.3899 53.4523 13.5543 53.1645 13.8832C52.8356 14.2121 52.6712 14.6232 52.6712 15.1165V19.0222C52.6712 19.2688 52.5889 19.4744 52.4245 19.68C52.26 19.8445 52.0545 19.9267 51.8078 19.9267C51.5611 19.9267 51.3555 19.8445 51.1911 19.68C51.0267 19.5155 50.9445 19.31 50.9445 19.0222V12.6499C50.9445 12.4032 51.0267 12.1976 51.1911 11.992C51.3555 11.8276 51.5611 11.7454 51.8078 11.7454C52.0545 11.7454 52.26 11.8276 52.4245 11.992C52.5889 12.1565 52.6712 12.3621 52.6712 12.6499V13.0609C52.9179 12.691 53.2878 12.4032 53.699 12.1565C54.1101 11.9098 54.6034 11.7865 55.0968 11.7865C56.0424 11.7865 56.7412 12.0742 57.1113 12.6499Z" fill="white"/>
<path fill-rule="evenodd" clip-rule="evenodd" d="M65.5802 16.4328C65.8269 16.4328 66.0324 16.3917 66.1969 16.2273C66.3614 16.0628 66.4847 15.8983 66.4847 15.6928C66.4847 14.9939 66.3203 14.3772 65.9913 13.7605C65.6624 13.1439 65.2102 12.6916 64.6346 12.3216C64.0591 11.9516 63.4835 11.7871 62.8257 11.7871C62.1679 11.7871 61.5512 11.9516 60.9757 12.2805C60.4001 12.6094 59.9479 13.1028 59.5778 13.7194C59.2079 14.3772 59.0434 15.1172 59.0434 15.9395C59.0434 16.6794 59.2079 17.3373 59.5367 17.9539C59.8656 18.5295 60.3179 19.0228 60.9346 19.3518C61.5512 19.6806 62.2502 19.8451 63.0724 19.8451C63.5657 19.8451 64.018 19.7628 64.4702 19.5984C64.9224 19.434 65.2925 19.2284 65.5802 19.0229C65.868 18.8173 65.9913 18.5706 65.9913 18.324C65.9913 18.1595 65.9502 17.9951 65.7857 17.8306C65.6213 17.7072 65.4569 17.625 65.2513 17.625C65.0869 17.625 64.9224 17.6661 64.7579 17.7484C64.6758 17.7895 64.5935 17.8306 64.4702 17.9128C64.3469 17.995 64.1413 18.0773 63.9357 18.1595C63.689 18.2417 63.4013 18.2829 62.9902 18.2829C62.4557 18.2829 61.9624 18.1184 61.5512 17.7895C61.099 17.4606 60.8523 17.0084 60.729 16.4328H65.5802ZM64.5935 14.9939H60.7701C60.9757 13.925 61.6334 13.3905 62.7435 13.3905C63.1957 13.3905 63.6068 13.5549 63.9768 13.8427C64.3469 14.1306 64.5524 14.5005 64.5935 14.9117V14.9939Z" fill="white"/>
<path fill-rule="evenodd" clip-rule="evenodd" d="M79.6408 19.3929C80.2573 19.064 80.7096 18.5706 81.0793 17.9539C81.4498 17.3373 81.6141 16.6383 81.6141 15.8572C81.6141 15.0761 81.4498 14.3772 81.0793 13.7605C80.7508 13.1439 80.2573 12.6505 79.6408 12.3216C79.0243 11.9516 78.3658 11.7871 77.6263 11.7871C76.886 11.7871 76.2283 11.9927 75.6118 12.3216C74.9953 12.6505 74.5431 13.1439 74.1726 13.7605C73.8028 14.3772 73.6385 15.0761 73.6385 15.8572C73.6385 16.6383 73.8028 17.3373 74.1726 17.9539C74.5431 18.5706 74.9953 19.064 75.6118 19.3929C76.2283 19.7217 76.886 19.8862 77.6263 19.8862C78.3658 19.8862 79.0243 19.7217 79.6408 19.3929ZM78.7363 13.7194C79.106 13.925 79.3528 14.2128 79.5583 14.5827C79.7638 14.9528 79.8463 15.3639 79.8463 15.8572C79.8463 16.3506 79.7638 16.7617 79.5583 17.1317C79.3528 17.5017 79.0648 17.7895 78.7363 17.9951C78.4071 18.2006 78.0373 18.2829 77.6263 18.2829C77.2153 18.2829 76.8448 18.2006 76.5163 17.9951C76.1458 17.7895 75.8998 17.5017 75.6936 17.1317C75.4881 16.7617 75.4063 16.3506 75.4063 15.8572C75.4063 15.405 75.4881 14.9528 75.6936 14.5827C75.8998 14.2128 76.187 13.925 76.5163 13.7194C76.8448 13.5138 77.2153 13.4316 77.6263 13.4316C78.0373 13.4316 78.4071 13.5138 78.7363 13.7194Z" fill="white"/>
<path d="M89.3428 12.0338C89.507 12.1983 89.5895 12.4038 89.5895 12.6916V16.5561C89.5895 17.625 89.3015 18.4473 88.7263 19.0229C88.151 19.6395 87.3283 19.9273 86.2595 19.9273C85.1908 19.9273 84.368 19.6395 83.7928 19.0229C83.2175 18.4062 82.9295 17.5839 82.9295 16.5561V12.6916C82.9295 12.4449 83.012 12.2394 83.1763 12.0338C83.3405 11.8694 83.546 11.7871 83.7928 11.7871C84.0395 11.7871 84.245 11.8694 84.4093 12.0338C84.5743 12.1983 84.656 12.4038 84.656 12.6916V16.5561C84.656 17.1728 84.7798 17.5839 85.067 17.8717C85.3138 18.1595 85.7248 18.324 86.2595 18.324C86.7943 18.324 87.2053 18.1595 87.452 17.8717C87.6988 17.5839 87.863 17.1317 87.863 16.5561V12.6916C87.863 12.4449 87.9448 12.2394 88.1098 12.0338C88.274 11.8694 88.4795 11.7871 88.7263 11.7871C88.973 11.7871 89.1785 11.8694 89.3428 12.0338Z" fill="white"/>
<path d="M97.5245 13.1847C97.5245 12.7735 97.2365 12.4036 96.743 12.1569C96.2495 11.9102 95.5918 11.7868 94.7285 11.9102C93.9883 11.9102 93.3305 12.1157 92.7553 12.4447C92.18 12.7735 91.7278 13.2669 91.3985 13.8835C91.07 14.5003 90.905 15.1991 90.905 15.9802C90.905 16.7203 91.0288 17.4192 91.3573 18.0358C91.6453 18.6526 92.0975 19.1048 92.6728 19.4748C93.2488 19.8448 93.9065 20.0092 94.6468 20.0092C95.1395 20.0092 95.633 19.9681 96.0853 19.8448C96.5375 19.7215 96.8668 19.557 97.154 19.3515C97.442 19.1459 97.565 18.9403 97.565 18.6937C97.565 18.447 97.4833 18.2414 97.3595 18.077C97.2365 17.9125 97.031 17.8303 96.7843 17.8303C96.6613 17.8303 96.5375 17.8303 96.455 17.8714L96.4474 17.8752C96.4376 17.88 96.4274 17.8848 96.4167 17.8896L96.3904 17.9015C96.3165 17.9345 96.23 17.9733 96.1678 18.0358C96.121 18.0669 96.0803 18.0921 96.0454 18.1137C95.9881 18.1492 95.9467 18.1747 95.921 18.2003C95.6743 18.3237 95.345 18.3648 94.8523 18.3648C94.1945 18.3648 93.6598 18.1181 93.2488 17.6659C92.8378 17.1725 92.6323 16.597 92.6323 15.898C92.6323 15.158 92.8378 14.5825 93.2488 14.1302C93.6598 13.678 94.235 13.4314 94.9753 13.4314C95.099 13.4314 95.222 13.4314 95.4275 13.4725C95.633 13.5136 95.7973 13.5547 95.8798 13.5958C96.0028 13.6369 96.0853 13.678 96.1678 13.7602C96.23 13.8228 96.3166 13.8616 96.3904 13.8946C96.4136 13.905 96.4355 13.9148 96.455 13.9246C96.5375 13.9658 96.6613 14.0069 96.8255 14.0069C97.031 14.0069 97.1953 13.9246 97.319 13.7602C97.442 13.5958 97.5245 13.3902 97.5245 13.1847Z" fill="white"/>
<path d="M104.925 12.6505C105.295 13.2261 105.5 14.0483 105.5 15.1172V19.0229C105.5 19.2695 105.418 19.4751 105.253 19.6807C105.089 19.8451 104.884 19.9273 104.637 19.9273C104.39 19.9273 104.185 19.8451 104.02 19.6807C103.855 19.5162 103.774 19.3106 103.774 19.0229V15.1172C103.774 14.5828 103.65 14.1716 103.444 13.8427C103.239 13.555 102.869 13.3905 102.334 13.3905C101.8 13.3905 101.348 13.555 101.06 13.8838C100.772 14.2128 100.608 14.6239 100.608 15.1172V19.0229C100.608 19.2695 100.525 19.4751 100.361 19.6807C100.197 19.8451 99.9913 19.9273 99.7445 19.9273C99.4978 19.9273 99.2923 19.8451 99.1273 19.6807C98.963 19.5162 98.8813 19.3106 98.8813 19.0229V10.1838C98.8813 9.93712 98.963 9.73155 99.1273 9.52597C99.2923 9.36157 99.4978 9.2793 99.7445 9.2793C99.9913 9.2793 100.197 9.36157 100.361 9.52597C100.525 9.69045 100.608 9.89602 100.608 10.1838V13.0616C100.855 12.6916 101.224 12.4039 101.594 12.1572C102.006 11.9105 102.458 11.7871 102.951 11.7871C103.897 11.7871 104.554 12.0749 104.925 12.6505Z" fill="white"/>
<path d="M21.5493 23.5863C24.3449 21.5718 26.1538 18.324 26.1538 14.6239C26.1538 14.0895 25.7016 13.6372 25.1672 13.6372C24.6327 13.6372 24.1805 14.0895 24.1805 14.6239C24.1805 17.6662 22.7004 20.3385 20.4393 21.9418C19.987 22.2707 19.9048 22.8874 20.1926 23.3397C20.4804 23.833 21.0971 23.9152 21.5493 23.5863Z" fill="white"/>
<path d="M22.0838 6.07219C14.9303 0.275444 4.07678 5.33224 4.07678 14.6646C4.07678 20.7492 9.01021 25.6827 15.0947 25.6827C15.6292 25.6827 16.0814 25.2304 16.0814 24.696C16.0814 24.1615 15.6292 23.7093 15.0947 23.7093C10.1202 23.7093 6.05011 19.6803 6.05011 14.6646C6.05011 7.05889 14.9303 2.9066 20.7682 7.67562C21.1793 8.0456 21.8371 7.96339 22.166 7.55224C22.5771 7.05889 22.4949 6.44224 22.0838 6.07219Z" fill="white"/>
<path d="M0.5 14.7059C0.5 14.1715 0.95225 13.7192 1.4867 13.7192C2.06225 13.7192 2.5145 14.1715 2.5145 14.7059C2.5145 21.6539 8.14685 27.2861 15.0948 27.2861C18.0548 27.2861 20.9326 26.2583 23.1938 24.3672C23.6049 23.9972 24.2216 24.0794 24.5917 24.4906C24.9616 24.9017 24.8794 25.5184 24.4683 25.8884C21.8371 28.1084 18.507 29.3006 15.0948 29.3006C7.03677 29.3006 0.5 22.7639 0.5 14.7059Z" fill="white"/>
<path fill-rule="evenodd" clip-rule="evenodd" d="M41.653 23.1337C41.8175 23.2982 41.8997 23.5449 41.8997 23.8326C41.8997 24.0382 41.8586 24.2027 41.7764 24.3671C41.6942 24.5316 41.5708 24.6549 41.4475 24.7371C41.283 24.8193 41.1186 24.8604 40.9542 24.8604H39.8441V26.3405C39.8441 26.3816 39.8441 26.3816 39.803 26.4227C39.7619 26.4638 39.7619 26.4638 39.7208 26.4638C39.6797 26.4638 39.6797 26.4638 39.6386 26.4227C39.6386 26.4227 39.5974 26.3816 39.5974 26.3405V22.9693C39.5974 22.9282 39.5974 22.9282 39.6386 22.887C39.6797 22.8459 39.6797 22.8459 39.7208 22.8459H40.9542C41.2419 22.8459 41.4475 22.9693 41.653 23.1337ZM41.4886 24.4082C41.6119 24.2438 41.6942 24.0793 41.6942 23.8326C41.6942 23.586 41.6119 23.4215 41.4886 23.2571C41.3652 23.1337 41.1597 23.0515 40.9542 23.0515H39.8441V24.6138H40.9542C41.1597 24.6549 41.3652 24.5727 41.4886 24.4082Z" fill="white"/>
<path fill-rule="evenodd" clip-rule="evenodd" d="M45.0653 26.4637C45.1064 26.4637 45.1475 26.4226 45.1475 26.4226C45.1886 26.3815 45.1886 26.3815 45.1886 26.3404C45.1886 26.2993 45.1886 26.2581 45.1475 26.2993C45.1065 26.2582 45.0654 26.176 45.0243 26.0938C44.9832 25.9704 44.9831 25.8471 44.9831 25.6004C44.9831 25.3537 44.942 25.1892 44.8187 25.0248C44.6954 24.9015 44.572 24.7782 44.4075 24.7371C44.6131 24.6959 44.7776 24.5726 44.9009 24.4081C45.0242 24.2437 45.0653 24.0792 45.0653 23.8326C45.0653 23.627 45.0242 23.4626 44.942 23.3392C44.8598 23.2159 44.7365 23.0925 44.572 23.0103C44.4075 22.9281 44.2431 22.887 44.0375 22.887H42.6809C42.6634 22.887 42.6534 22.887 42.6445 22.8901C42.6324 22.8944 42.6223 22.9044 42.5986 22.9281C42.5575 22.9692 42.5575 22.9692 42.5575 23.0103V26.3815C42.5575 26.4226 42.5986 26.4637 42.5986 26.4637C42.6398 26.5048 42.6398 26.5048 42.6809 26.5048C42.722 26.5048 42.722 26.5048 42.7631 26.4637C42.8042 26.4226 42.8042 26.4226 42.8042 26.3815V24.9015H43.9964C44.202 24.9015 44.3664 24.9426 44.5309 25.0659C44.6542 25.1892 44.7365 25.3537 44.7365 25.6415C44.7365 25.8882 44.7776 26.0937 44.8187 26.217C44.8598 26.3404 44.942 26.4226 45.0242 26.4637H45.0653ZM44.6131 24.4081C44.4898 24.5315 44.2842 24.6137 44.0786 24.6548H42.8042V23.0925H43.9964C44.2431 23.0925 44.4487 23.1747 44.6131 23.2981C44.7365 23.4626 44.8187 23.627 44.8187 23.8326C44.8187 24.0792 44.7776 24.2437 44.6131 24.4081Z" fill="white"/>
<path d="M48.0664 26.2582C48.0664 26.2788 48.0767 26.2891 48.087 26.2994C48.0973 26.3097 48.1075 26.32 48.1075 26.3405C48.1075 26.3816 48.1075 26.3816 48.0664 26.4227C48.0664 26.4227 48.0254 26.4638 47.9842 26.4638H46.0519C46.0108 26.4638 46.0109 26.4638 45.9697 26.4227C45.9697 26.4227 45.9286 26.3816 45.9286 26.3405V22.9693C45.9286 22.9519 45.9286 22.9418 45.9318 22.9329C45.9361 22.9208 45.9461 22.9107 45.9697 22.887C45.9933 22.8635 46.0034 22.8534 46.0155 22.8491C46.0244 22.8459 46.0345 22.8459 46.0519 22.8459H47.9842C48.0017 22.8459 48.0118 22.8459 48.0207 22.8491C48.0328 22.8534 48.0428 22.8634 48.0664 22.887C48.0664 22.887 48.1075 22.9282 48.1075 22.9693C48.1075 23.0104 48.1075 23.0104 48.0664 23.0515C48.0664 23.0515 48.0254 23.0926 47.9842 23.0926H46.1753V24.5316H47.7787C47.8198 24.5316 47.8198 24.5316 47.8609 24.5727C47.8609 24.5932 47.8712 24.6035 47.8815 24.6138C47.8918 24.6241 47.902 24.6343 47.902 24.6549C47.902 24.696 47.9021 24.696 47.8609 24.7371C47.8403 24.7371 47.8301 24.7474 47.8198 24.7577C47.8095 24.768 47.7992 24.7782 47.7787 24.7782H46.1753V26.2994H47.9842C47.9842 26.2582 48.0253 26.2582 48.0664 26.2582Z" fill="white"/>
<path d="M52.0133 22.9691C52.0133 22.928 51.9722 22.8869 51.9722 22.8869C51.9722 22.8869 51.9311 22.8458 51.8077 22.8869C51.7902 22.8869 51.7802 22.8869 51.7713 22.8901C51.7592 22.8943 51.7491 22.9044 51.7255 22.928L50.3277 25.0247L48.9299 22.928C48.9299 22.8869 48.8888 22.8869 48.8477 22.8869C48.8066 22.8869 48.7654 22.8869 48.7654 22.928C48.7243 22.9691 48.7243 22.9691 48.7243 23.0102V26.3815C48.7243 26.4226 48.7654 26.4637 48.7654 26.4637C48.8066 26.5048 48.8066 26.5048 48.8477 26.5048C48.8888 26.5048 48.9299 26.5048 48.9299 26.4637C48.9535 26.44 48.9636 26.43 48.9678 26.4179C48.971 26.409 48.971 26.3989 48.971 26.3815V23.2981L50.2866 25.3125C50.2866 25.3537 50.3277 25.3537 50.3688 25.3537C50.4099 25.3537 50.451 25.3537 50.451 25.3125L51.7666 23.2981V26.3403C51.7666 26.3815 51.8077 26.4226 51.8077 26.4226C51.8313 26.4462 51.8414 26.4562 51.8535 26.4605C51.8624 26.4637 51.8725 26.4637 51.89 26.4637C51.9074 26.4637 51.9175 26.4637 51.9264 26.4605C51.9385 26.4563 51.9485 26.4462 51.9721 26.4226C52.0132 26.3815 52.0133 26.3815 52.0133 26.3403V22.9691Z" fill="white"/>
<path d="M53.1645 26.4227C53.1234 26.4638 53.1234 26.4638 53.0823 26.4638C53.0412 26.4638 53.0412 26.4638 53.0001 26.4227C53.0001 26.4227 52.959 26.3816 52.959 26.3405V22.9693C52.959 22.9519 52.959 22.9418 52.9621 22.9329C52.9664 22.9208 52.9764 22.9107 53.0001 22.887C53.0236 22.8635 53.0338 22.8534 53.0458 22.8491C53.0548 22.8459 53.0648 22.8459 53.0823 22.8459C53.0997 22.8459 53.1098 22.8459 53.1187 22.8491C53.1308 22.8534 53.1408 22.8634 53.1644 22.887C53.1644 22.887 53.2057 22.9282 53.2057 22.9693V26.3405C53.2057 26.361 53.1954 26.3713 53.1851 26.3816C53.1748 26.3919 53.1645 26.4021 53.1645 26.4227Z" fill="white"/>
<path d="M56.8234 22.9693C56.8234 22.9282 56.7822 22.887 56.7822 22.887C56.7411 22.887 56.7411 22.8459 56.8234 22.8459C56.7822 22.8459 56.7411 22.8459 56.7411 22.887C56.7 22.9282 56.7001 22.9282 56.7001 22.9693V25.1893C56.7001 25.3949 56.659 25.6005 56.5356 25.7649C56.4123 25.9293 56.2889 26.0939 56.1245 26.176C55.9189 26.2994 55.7544 26.3405 55.549 26.3405C55.3845 26.3405 55.1789 26.2582 55.0144 26.176C54.85 26.0527 54.6855 25.9293 54.6034 25.7649C54.48 25.5594 54.4389 25.3949 54.4389 25.1893V22.9693C54.4389 22.9282 54.3978 22.887 54.3978 22.887C54.3742 22.8635 54.3641 22.8534 54.352 22.8491C54.3483 22.8478 54.3443 22.847 54.3397 22.8466C54.3333 22.8459 54.3257 22.8459 54.3156 22.8459C54.295 22.8459 54.2848 22.8562 54.2745 22.8665C54.2642 22.8768 54.2539 22.887 54.2333 22.887C54.2097 22.9107 54.1996 22.9208 54.1953 22.9329C54.1922 22.9418 54.1922 22.9519 54.1922 22.9693V25.1893C54.1922 25.436 54.2334 25.6416 54.3567 25.8471C54.48 26.0527 54.6444 26.2171 54.85 26.3405C55.0556 26.4638 55.2612 26.5049 55.5078 26.5049C55.7544 26.5049 55.96 26.4638 56.1656 26.3405C56.3712 26.2171 56.5356 26.0527 56.659 25.8471C56.7822 25.6416 56.8234 25.436 56.8234 25.1893V22.9693Z" fill="white"/>
<path d="M60.9757 22.8869C60.9757 22.8869 61.0168 22.928 61.0168 22.9691V26.3403C61.0168 26.3815 61.0168 26.3815 60.9757 26.4226C60.952 26.4462 60.9419 26.4563 60.9298 26.4605C60.9209 26.4637 60.9108 26.4637 60.8934 26.4637C60.8759 26.4637 60.8659 26.4637 60.8569 26.4605C60.8449 26.4563 60.8348 26.4462 60.8113 26.4227C60.8113 26.4227 60.7701 26.3815 60.7701 26.3403V23.2981L59.4545 25.3125C59.4545 25.3537 59.4134 25.3537 59.3722 25.3537C59.3311 25.3537 59.29 25.3537 59.29 25.3125L57.9745 23.2981V26.3815C57.9745 26.4226 57.9745 26.4226 57.9334 26.4637C57.9334 26.5048 57.8923 26.5048 57.8512 26.5048C57.81 26.5048 57.81 26.5048 57.7689 26.4637C57.7689 26.4637 57.7278 26.4226 57.7278 26.3815V23.0102C57.7278 22.9691 57.7278 22.9691 57.7689 22.928C57.7689 22.8869 57.81 22.8869 57.8512 22.8869C57.8923 22.8869 57.9334 22.8869 57.9334 22.928L59.3311 25.0247L60.729 22.928C60.7526 22.9044 60.7627 22.8943 60.7747 22.8901C60.7837 22.8869 60.7937 22.8869 60.8112 22.8869C60.8971 22.8583 60.9232 22.8696 60.945 22.879C60.9545 22.8832 60.9632 22.8869 60.9757 22.8869Z" fill="white"/>
<path d="M66.5258 22.9691C66.5258 22.928 66.4847 22.8869 66.4847 22.8869C66.4847 22.8869 66.4436 22.8458 66.3203 22.8869C66.3028 22.8869 66.2928 22.8869 66.2838 22.8901C66.2718 22.8943 66.2617 22.9044 66.2381 22.928L64.8402 25.0247L63.4424 22.928C63.4424 22.8869 63.4013 22.8869 63.3602 22.8869C63.3191 22.8869 63.278 22.8869 63.278 22.928C63.2543 22.9517 63.2443 22.9617 63.24 22.9738C63.2369 22.9827 63.2369 22.9928 63.2369 23.0102V26.3815C63.2369 26.4226 63.278 26.4637 63.278 26.4637C63.3191 26.5048 63.3191 26.5048 63.3602 26.5048C63.4013 26.5048 63.4424 26.5048 63.4424 26.4637C63.4661 26.44 63.4761 26.43 63.4804 26.4179C63.4836 26.409 63.4836 26.3989 63.4836 26.3815V23.2981L64.7991 25.3125C64.7991 25.3537 64.8402 25.3537 64.8813 25.3537C64.9224 25.3537 64.9635 25.3537 64.9635 25.3125L66.2792 23.2981V26.3403C66.2792 26.3815 66.3203 26.4226 66.3203 26.4226C66.3439 26.4462 66.354 26.4563 66.366 26.4605C66.37 26.4619 66.3742 26.4627 66.3791 26.4631C66.3822 26.4634 66.3856 26.4635 66.3895 26.4636L66.4025 26.4637C66.4199 26.4637 66.43 26.4637 66.4389 26.4605C66.451 26.4563 66.461 26.4462 66.4846 26.4227C66.5257 26.3817 66.5258 26.3815 66.5258 26.3405V22.9691Z" fill="white"/>
<path fill-rule="evenodd" clip-rule="evenodd" d="M70.4316 25.6006C70.2673 25.8883 70.1023 26.0939 69.8151 26.2584C69.5683 26.4228 69.2803 26.5051 68.9106 26.5051C68.5401 26.5051 68.2934 26.4228 68.0061 26.2584C67.7593 26.0939 67.5537 25.8883 67.3892 25.6006C67.2248 25.3128 67.1837 24.9839 67.1837 24.655C67.1837 24.285 67.2659 23.9972 67.3892 23.7094C67.5537 23.4217 67.7182 23.2161 68.0061 23.0516C68.2528 22.8871 68.5401 22.8049 68.9106 22.8049C69.2803 22.8049 69.5271 22.8871 69.8151 23.0516C70.0618 23.2161 70.2673 23.4217 70.4316 23.7094C70.5958 23.9972 70.6371 24.3261 70.6371 24.655C70.6371 25.025 70.5546 25.3128 70.4316 25.6006ZM70.2261 23.7916C70.1023 23.545 69.9381 23.3394 69.6913 23.2161C69.4446 23.0927 69.1978 23.0105 68.9106 23.0105C68.6226 23.0105 68.3758 23.0927 68.1291 23.2161C67.8826 23.3394 67.7182 23.545 67.5948 23.7916C67.4715 24.0383 67.3892 24.3261 67.3892 24.655C67.3892 24.9839 67.4715 25.2717 67.5948 25.5184C67.7182 25.765 67.8826 25.9705 68.1291 26.0939C68.3758 26.2172 68.6226 26.2995 68.9106 26.2995C69.1978 26.2995 69.4446 26.2172 69.6913 26.0939C69.9381 25.9705 70.1023 25.765 70.2261 25.5184C70.3491 25.2717 70.4316 24.9839 70.4316 24.655C70.4316 24.3261 70.3491 24.0383 70.2261 23.7916Z" fill="white"/>
<path fill-rule="evenodd" clip-rule="evenodd" d="M73.9257 25.4773C73.9257 25.2306 73.8439 25.025 73.7202 24.8605C73.5972 24.6961 73.4322 24.6139 73.2267 24.5317C73.3917 24.4495 73.5559 24.3672 73.6384 24.2028C73.7202 24.0383 73.7614 23.8738 73.7614 23.6683C73.7614 23.4217 73.6789 23.2161 73.5147 23.0516C73.3504 22.8871 73.145 22.8049 72.8569 22.8049H71.5002C71.4589 22.8049 71.4184 22.8049 71.4184 22.846C71.3772 22.8871 71.3772 22.8872 71.3772 22.9283V26.2995C71.3772 26.3406 71.4184 26.3817 71.4184 26.3817C71.4589 26.4228 71.4589 26.4228 71.5002 26.4228H72.8982C73.1862 26.4228 73.4322 26.3406 73.6384 26.1761C73.8439 26.0117 73.9257 25.8061 73.9257 25.4773ZM72.8157 23.0927C73.0624 23.0927 73.2267 23.1338 73.3504 23.2572C73.4734 23.3805 73.5147 23.545 73.5559 23.7505C73.5559 23.9972 73.4734 24.2028 73.3504 24.3261C73.1862 24.4495 73.0212 24.5317 72.8157 24.5317H71.5827V23.0927H72.8157ZM73.7202 25.4773C73.7202 25.7239 73.6384 25.9294 73.4734 26.0528C73.3092 26.1761 73.1037 26.2584 72.8569 26.2172H71.5827V24.6961H72.8569C73.1037 24.6961 73.3092 24.7783 73.4734 24.9016C73.6384 25.025 73.7202 25.2306 73.7202 25.4773Z" fill="white"/>
<path d="M74.8303 26.4227C74.8303 26.4638 74.789 26.4638 74.7485 26.4638C74.7073 26.4638 74.7073 26.4638 74.666 26.4227C74.666 26.4227 74.6248 26.3816 74.6248 26.3405V22.9693C74.6248 22.9617 74.6248 22.9555 74.625 22.9501C74.6252 22.9472 74.6254 22.9445 74.6257 22.942L74.6264 22.9383C74.6268 22.9365 74.6273 22.9347 74.6279 22.9329C74.6322 22.9208 74.6423 22.9107 74.666 22.887C74.666 22.8459 74.7073 22.8459 74.7485 22.8459C74.7656 22.8459 74.7755 22.8459 74.7843 22.849C74.7963 22.8532 74.8064 22.8633 74.8303 22.887C74.8303 22.887 74.8715 22.9282 74.8715 22.9693V26.3405C74.8303 26.3816 74.8303 26.3816 74.8303 26.4227Z" fill="white"/>
<path d="M77.9103 26.304C77.9061 26.2919 77.8962 26.2819 77.8729 26.2582H76.0227V22.9693C76.0227 22.9282 75.9814 22.887 75.9814 22.887C75.9577 22.8634 75.9477 22.8534 75.9355 22.8491C75.9266 22.8459 75.9165 22.8459 75.8989 22.8459C75.8584 22.8459 75.8172 22.8459 75.8172 22.887C75.7934 22.9107 75.7834 22.9208 75.7791 22.9329C75.7759 22.9418 75.7759 22.9519 75.7759 22.9693V26.3405C75.7759 26.3816 75.8172 26.4227 75.8172 26.4227C75.8584 26.4638 75.8584 26.4638 75.8989 26.4638H77.7904C77.8317 26.4638 77.8729 26.4227 77.8729 26.4227C77.9134 26.3816 77.9134 26.3816 77.9134 26.3405C77.9134 26.3294 77.9134 26.3212 77.9126 26.3145C77.9124 26.3122 77.912 26.31 77.9115 26.308L77.9103 26.304Z" fill="white"/>
<path d="M80.5452 26.2582C80.5452 26.2788 80.5554 26.2891 80.5655 26.2994C80.5756 26.3097 80.5857 26.32 80.5857 26.3405C80.5857 26.3816 80.5857 26.3816 80.5452 26.4227C80.5246 26.4227 80.5143 26.433 80.504 26.4432C80.4937 26.4535 80.4834 26.4638 80.4627 26.4638H78.5307C78.4895 26.4638 78.4895 26.4638 78.4482 26.4227C78.4482 26.4227 78.407 26.3816 78.407 26.3405V22.9693C78.407 22.9519 78.407 22.9418 78.4101 22.9329C78.4144 22.9208 78.4245 22.9107 78.4482 22.887C78.4482 22.8459 78.4895 22.8459 78.5307 22.8459H80.4627C80.4803 22.8459 80.4904 22.8459 80.4993 22.8491C80.5114 22.8534 80.5215 22.8634 80.5452 22.887C80.5452 22.887 80.5857 22.9282 80.5857 22.9693C80.5857 23.0104 80.5857 23.0104 80.5452 23.0515C80.5246 23.0515 80.5143 23.0618 80.504 23.0721C80.4937 23.0823 80.4834 23.0926 80.4627 23.0926H78.6537V24.5316H80.2572C80.2985 24.5316 80.2985 24.5316 80.3397 24.5727C80.3802 24.6138 80.3802 24.6138 80.3802 24.6549C80.3802 24.6724 80.3802 24.6824 80.3771 24.6914C80.3729 24.7034 80.363 24.7135 80.3397 24.7371C80.3397 24.7371 80.2985 24.7782 80.2572 24.7782H78.6537V26.2994H80.4627C80.4864 26.2757 80.4965 26.2657 80.5086 26.2614C80.5118 26.2603 80.515 26.2596 80.5186 26.2591C80.5221 26.2587 80.526 26.2584 80.5304 26.2583L80.5392 26.2582L80.5452 26.2582Z" fill="white"/>
<path d="M85.3343 24.7373C85.324 24.727 85.3137 24.7168 85.3137 24.6962C85.2732 24.6962 85.2319 24.6962 85.1907 24.614H84.1632C84.1426 24.614 84.1323 24.6243 84.1219 24.6346C84.1116 24.6448 84.1013 24.6551 84.0807 24.6551C84.0394 24.6962 84.0394 24.6962 84.0394 24.7373C84.0394 24.7784 84.0807 24.8195 84.0807 24.8195C84.1044 24.8432 84.1145 24.8533 84.1266 24.8575C84.1306 24.8589 84.1349 24.8597 84.1399 24.8602C84.1423 24.8604 84.1449 24.8605 84.1477 24.8606C84.1522 24.8607 84.1573 24.8607 84.1632 24.8607H85.0669V26.0118C84.9439 26.094 84.7797 26.1763 84.6147 26.2174C84.4505 26.2585 84.2862 26.2996 84.1219 26.2996C83.8339 26.2996 83.5459 26.2174 83.2992 26.094C83.0524 25.9707 82.8469 25.8062 82.7239 25.5184C82.6009 25.2307 82.5184 24.984 82.5184 24.6551C82.5184 24.3262 82.6009 24.0384 82.7239 23.7917C82.8469 23.545 83.0524 23.3395 83.2992 23.2162C83.5459 23.0929 83.7927 23.0106 84.1219 23.0106C84.4504 23.0106 84.7384 23.0929 85.0264 23.2573H85.1082C85.1257 23.2573 85.1358 23.2573 85.1448 23.2541C85.1569 23.2498 85.167 23.2398 85.1907 23.2162C85.2319 23.1751 85.2319 23.1751 85.2319 23.134C85.2319 23.0929 85.2319 23.0518 85.1907 23.0518C85.0669 22.9695 84.9027 22.8873 84.7384 22.8462C84.5742 22.8051 84.4092 22.7639 84.2037 22.7639C83.8339 22.7639 83.5459 22.8462 83.2587 23.0106C82.9707 23.1751 82.7652 23.3806 82.6009 23.6684C82.4359 23.9562 82.3542 24.244 82.3542 24.614C82.3542 24.984 82.4359 25.2718 82.6009 25.5595C82.7652 25.8473 82.9707 26.0529 83.2587 26.2174C83.5459 26.3818 83.8339 26.464 84.2037 26.464C84.3797 26.464 84.5261 26.4339 84.6936 26.3993C84.7216 26.3936 84.7502 26.3877 84.7797 26.3818C84.9852 26.3407 85.1494 26.2585 85.3137 26.1351C85.3549 26.1351 85.3549 26.094 85.3549 26.0529V24.7784C85.3549 24.7579 85.3446 24.7476 85.3343 24.7373Z" fill="white"/>
<path fill-rule="evenodd" clip-rule="evenodd" d="M88.685 26.4225C88.685 26.4225 88.6438 26.4636 88.6033 26.4636H88.5208L88.4795 26.4225L88.0685 25.3536H86.342L85.931 26.3814C85.931 26.4225 85.8898 26.4636 85.8485 26.4636C85.8405 26.4636 85.834 26.4636 85.8285 26.4633C85.822 26.463 85.8168 26.4622 85.812 26.4605C85.7998 26.4562 85.7898 26.4461 85.7661 26.4225L85.7248 26.3814V26.3403L87.0815 22.9691C87.0815 22.928 87.1228 22.928 87.1228 22.928H87.164C87.2053 22.928 87.2465 22.9691 87.2465 23.0102L88.7263 26.3403C88.7263 26.3814 88.7263 26.3814 88.685 26.4225ZM86.465 25.1481H88.0273L87.2465 23.2158L86.465 25.1481Z" fill="white"/>
<path d="M92.6323 22.9691C92.6323 22.928 92.591 22.8869 92.591 22.8869C92.5785 22.8869 92.5698 22.8831 92.5603 22.879C92.5385 22.8696 92.5125 22.8583 92.4268 22.8869C92.3855 22.8869 92.3855 22.8869 92.3443 22.928L90.9463 25.0247L89.5483 22.928C89.5483 22.8869 89.5078 22.8869 89.4665 22.8869C89.4253 22.8869 89.384 22.8869 89.384 22.928C89.3603 22.9517 89.3502 22.9617 89.3459 22.9738C89.3428 22.9827 89.3428 22.9928 89.3428 23.0102V26.3815C89.3428 26.4226 89.384 26.4637 89.384 26.4637C89.4253 26.5048 89.4253 26.5048 89.4665 26.5048C89.5078 26.5048 89.5078 26.5048 89.5483 26.4637C89.572 26.44 89.5821 26.43 89.5864 26.4179C89.5895 26.409 89.5895 26.3989 89.5895 26.3815V23.2981L90.905 25.3125C90.905 25.3537 90.9463 25.3537 90.9875 25.3537C91.0288 25.3537 91.07 25.3537 91.07 25.3125L92.3855 23.2981V26.3403C92.3855 26.3815 92.4268 26.4226 92.4268 26.4226C92.45 26.4461 92.4599 26.4562 92.4718 26.4605C92.4808 26.4637 92.4909 26.4637 92.5085 26.4637C92.5498 26.4637 92.5498 26.4637 92.591 26.4226C92.6323 26.3815 92.6323 26.3815 92.6323 26.3403V22.9691Z" fill="white"/>
<path d="M95.6743 26.2582C95.6743 26.2788 95.6846 26.2891 95.695 26.2994C95.7053 26.3097 95.7156 26.32 95.7156 26.3405C95.7156 26.3816 95.7156 26.3816 95.6743 26.4227C95.6537 26.4227 95.6434 26.433 95.6331 26.4432C95.6228 26.4535 95.6124 26.4638 95.5918 26.4638H93.6598C93.6186 26.4638 93.6186 26.4638 93.5773 26.4227C93.5773 26.4227 93.5361 26.3816 93.5361 26.3405V22.9693C93.5361 22.9519 93.5361 22.9418 93.5392 22.9329C93.5435 22.9208 93.5536 22.9108 93.5772 22.8871C93.5772 22.846 93.6186 22.8459 93.6598 22.8459H95.5918C95.6331 22.8459 95.6331 22.8459 95.6743 22.887C95.6743 22.887 95.7156 22.9282 95.7156 22.9693C95.7156 23.0104 95.7156 23.0104 95.6743 23.0515C95.6537 23.0515 95.6434 23.0618 95.6331 23.0721C95.6228 23.0823 95.6124 23.0926 95.5918 23.0926H93.7828V24.5316H95.3863C95.4276 24.5316 95.4276 24.5316 95.4688 24.5727C95.5101 24.6138 95.5101 24.6138 95.5101 24.6549C95.5101 24.6671 95.5101 24.6757 95.509 24.6828C95.5085 24.6858 95.5079 24.6886 95.5069 24.6913C95.5026 24.7034 95.4926 24.7134 95.4688 24.7371C95.4688 24.7371 95.4276 24.7782 95.3863 24.7782H93.7828V26.2994H95.5918C95.6331 26.2582 95.6743 26.2582 95.6743 26.2582Z" fill="white"/>
<path d="M96.0853 25.9705C96.2908 26.1761 96.4551 26.2995 96.6613 26.3817C96.8668 26.4639 97.0723 26.505 97.3596 26.5462C97.5651 26.5462 97.7713 26.5051 97.9356 26.4228C98.1411 26.3406 98.2641 26.2172 98.3466 26.0939C98.4291 25.9294 98.4696 25.8061 98.4696 25.6417C98.4696 25.4361 98.3878 25.2306 98.3053 25.1072C98.183 24.9437 98.0601 24.8615 97.9378 24.7798L97.9356 24.7783C97.7713 24.6961 97.6063 24.6139 97.3596 24.5317C97.2909 24.4973 97.2222 24.4701 97.1564 24.444C97.065 24.4078 96.9793 24.3739 96.9073 24.3261C96.7855 24.2854 96.6637 24.164 96.5813 24.0819L96.5788 24.0794C96.4963 23.9972 96.4551 23.8738 96.4551 23.7094C96.4551 23.5039 96.5376 23.3394 96.7018 23.2161C96.8668 23.0927 97.1136 23.0516 97.3596 23.0516C97.5246 23.0516 97.6888 23.0927 97.8531 23.175C98.0173 23.2572 98.1411 23.3394 98.2236 23.4628C98.2468 23.4863 98.2567 23.4964 98.2686 23.5006C98.2776 23.5039 98.2877 23.5039 98.3053 23.5039C98.3466 23.5039 98.3466 23.5039 98.3878 23.4628C98.4291 23.4217 98.4291 23.4217 98.4291 23.3805C98.4291 23.3394 98.4291 23.2983 98.3878 23.2572C98.3053 23.0927 98.1411 23.0105 97.9768 22.9283C97.8118 22.846 97.6063 22.8049 97.4008 22.8049C97.1953 22.8049 96.9898 22.846 96.8256 22.9283C96.6201 23.0105 96.4963 23.1338 96.4146 23.2572C96.3321 23.3805 96.2908 23.545 96.2908 23.7094C96.2908 23.9149 96.3321 24.0794 96.4146 24.2028C96.4956 24.3251 96.618 24.4069 96.74 24.4885L96.7431 24.4906C96.8668 24.5728 97.0311 24.655 97.2778 24.7372C97.3438 24.7636 97.4055 24.7858 97.463 24.8064C97.5846 24.85 97.6873 24.8869 97.7713 24.9427C97.8943 24.9839 98.0173 25.0661 98.0998 25.1894C98.1823 25.3128 98.2236 25.4361 98.2236 25.6006C98.2236 25.8061 98.1411 25.9705 97.9768 26.0939C97.8118 26.2172 97.5651 26.2995 97.3191 26.2995C97.1136 26.2995 96.9073 26.2584 96.7431 26.1761C96.5376 26.0939 96.3733 25.9705 96.2496 25.8061C96.2091 25.765 96.2091 25.765 96.1678 25.765C96.1266 25.765 96.1266 25.765 96.0853 25.8061C96.0441 25.8472 96.0441 25.8472 96.0441 25.8883C96.0441 25.9294 96.0853 25.9705 96.0853 25.9705Z" fill="white"/>
</g>
<defs>
<clipPath id="clip0_4416_8614">
<rect width="105" height="30" fill="white" transform="translate(0.5 0.000976562)"/>
</clipPath>
</defs>
</svg>
