<svg width="148" height="28" viewBox="0 0 148 28" fill="none" xmlns="http://www.w3.org/2000/svg">
<g clip-path="url(#clip0_4595_8435)">
<path fill-rule="evenodd" clip-rule="evenodd" d="M2.09922 4.39456C1.86745 4.57721 1.69347 4.82415 1.59846 5.10533C1.10666 6.55918 0.819482 8.17277 0.736918 9.9461C0.645379 11.9976 2.01846 13.7961 3.18692 15.2715C3.51717 15.6879 3.94615 15.923 4.47384 15.9769L6.67615 16.2084C7.22179 16.2658 7.33666 16.0702 7.02076 15.6215C5.76615 13.8553 5.09846 12.2076 5.51846 9.95687C5.65487 9.23174 6.02282 8.68789 6.6223 8.32533C8.24128 7.34892 9.7382 6.89841 11.1131 6.97379C11.3392 6.98815 11.5061 6.89482 11.6138 6.69379C12.3282 5.38713 13.4141 4.54174 14.8715 4.15764C15.1192 4.09302 15.1767 3.95302 15.0438 3.73764C14.3169 2.55302 13.4769 1.29302 11.9854 1.02918C10.8223 0.824563 9.73281 0.664819 8.71692 0.549948C8.08512 0.474563 7.45512 0.639691 6.82692 1.04533C5.08948 2.15456 3.51358 3.27097 2.09922 4.39456ZM20.6331 6.97345C22.0797 6.91243 23.5856 7.36114 25.1508 8.31961C26.9492 9.42345 26.4485 12.6488 25.6354 14.1188C25.2872 14.7506 24.9372 15.3591 24.5854 15.9442C24.4238 16.217 24.4992 16.3337 24.8115 16.2942C25.0363 16.2661 25.2674 16.2441 25.501 16.2218C26.745 16.1032 28.0609 15.9777 28.8769 14.8942L29.0157 14.7109C30.0482 13.3487 31.1863 11.8472 31.0523 10.0696C30.9195 8.32499 30.6646 6.75627 30.2877 5.36345C30.1932 5.01 29.9897 4.69534 29.7061 4.46422C28.5431 3.50217 27.17 2.49166 25.5869 1.43268C23.6108 0.118836 21.5215 0.603451 19.3731 1.12037C18.3351 1.36645 17.7358 2.20733 17.155 3.02214C17.0368 3.18797 16.9194 3.35271 16.7992 3.51114C16.753 3.57276 16.7227 3.64489 16.711 3.72099C16.6993 3.7971 16.7066 3.87476 16.7323 3.94696C16.7579 4.01915 16.8011 4.08358 16.858 4.13442C16.9148 4.18525 16.9834 4.22088 17.0577 4.23807C18.5474 4.58986 19.6046 5.42268 20.2292 6.73653C20.3118 6.90525 20.4464 6.98422 20.6331 6.97345ZM13.9992 15.3142L15.2215 16.5419C15.3723 16.6927 15.4477 16.8722 15.4477 17.0804L15.4423 18.125C15.4387 18.4193 15.3113 18.6401 15.06 18.7873L12.9869 19.9988C12.7572 20.1316 12.6351 20.067 12.6208 19.805L12.3354 15.0557C12.321 14.8152 12.4197 14.6375 12.6315 14.5227C12.7214 14.4739 12.8133 14.4249 12.9063 14.3754L12.9068 14.3751L12.907 14.375C13.7892 13.9052 14.7745 13.3805 15.13 12.4065C15.8892 10.3119 14.85 8.2119 12.8631 7.24267C12.6477 7.13856 12.6118 6.98959 12.7554 6.79574C14.0405 5.02959 15.7403 4.62215 17.8546 5.57344C18.149 5.70626 18.5654 6.15856 19.1038 6.93036C19.2259 7.10985 19.1918 7.25164 19.0015 7.35574C18.912 7.40379 18.8221 7.45091 18.7324 7.49792C18.0082 7.87765 17.2992 8.24935 16.9015 9.03036C16.1297 10.5309 16.2662 11.956 17.3108 13.3057C17.7237 13.8389 18.3091 14.0625 18.9094 14.2919L18.9638 14.3127C19.0802 14.3583 19.1794 14.4393 19.2479 14.5444C19.3164 14.6496 19.3507 14.7737 19.3462 14.8996L19.1631 19.6865C19.1523 19.9737 19.0267 20.0419 18.7862 19.8911L16.9931 18.7765C16.8037 18.6588 16.643 18.5003 16.5225 18.3127C16.402 18.1251 16.3247 17.913 16.2964 17.6918C16.268 17.4707 16.2893 17.246 16.3585 17.034C16.4278 16.8221 16.5434 16.6282 16.6969 16.4665L17.8169 15.2927C17.8466 15.2608 17.8672 15.2215 17.8765 15.1789C17.8858 15.1364 17.8834 15.0921 17.8696 15.0507C17.8558 15.0094 17.8312 14.9725 17.7982 14.944C17.7652 14.9156 17.7252 14.8965 17.6823 14.8888C16.6269 14.7201 15.4405 14.7398 14.1231 14.948C13.8395 14.9911 13.7982 15.1132 13.9992 15.3142ZM99.6469 14.9267L98.6238 15.9875C98.4731 16.1419 98.3313 16.1347 98.1985 15.966L96.5723 13.9629C96.4072 13.7583 96.4197 13.5626 96.61 13.376C96.7256 13.2633 96.85 13.1498 96.9763 13.0345L96.9763 13.0345L96.9764 13.0345C97.3148 12.7257 97.6671 12.4042 97.9023 12.0513C99.3992 9.77904 98.1662 7.26981 95.5331 6.77981C91.7531 6.07442 89.9815 10.0375 92.0762 12.8967C92.2449 13.1301 92.2072 13.3239 91.9631 13.4783C90.0246 14.706 89.1721 16.2603 89.4054 18.1413C89.9546 22.5029 95.1131 23.1706 98.0315 20.586C98.0652 20.556 98.1047 20.5332 98.1477 20.5191C98.1906 20.5049 98.2361 20.4997 98.2814 20.5038C98.3267 20.5078 98.3708 20.521 98.4112 20.5425C98.4515 20.564 98.4872 20.5935 98.5162 20.629L99.1731 21.4529C99.3741 21.7006 99.6308 21.8424 99.9431 21.8783C100.902 21.9967 101.786 21.9824 102.598 21.8352C102.633 21.8285 102.667 21.8125 102.695 21.789C102.722 21.7654 102.744 21.735 102.756 21.7008C102.769 21.6666 102.772 21.6297 102.766 21.5938C102.76 21.5579 102.745 21.5242 102.722 21.496L100.363 18.5829C100.241 18.4321 100.241 18.2831 100.363 18.136L101.537 16.7467C101.803 16.4272 101.779 16.1293 101.467 15.8529L100.385 14.8944C100.13 14.6719 99.8839 14.6826 99.6469 14.9267ZM94.4077 11.4644C94.3826 11.4178 94.361 11.3711 94.3431 11.3244C94.3179 11.2419 94.2767 11.1719 94.2192 11.1144C93.6628 10.5221 93.6969 9.91365 94.3215 9.28904C94.6267 8.9875 94.9605 8.9534 95.3231 9.18673C95.6462 9.39494 95.8436 9.70186 95.9154 10.1075C95.9513 10.3013 95.8992 10.4683 95.7592 10.6083L94.8492 11.5183C94.6769 11.6906 94.5297 11.6726 94.4077 11.4644ZM94.0738 15.2821L96.4808 18.1575C96.4918 18.1705 96.5002 18.1856 96.5054 18.2019C96.5105 18.2182 96.5124 18.2354 96.5109 18.2524C96.5094 18.2694 96.5045 18.286 96.4966 18.3011C96.4886 18.3163 96.4778 18.3297 96.4646 18.3406L95.5654 19.089C95.1202 19.4613 94.568 19.6686 94.0299 19.6656C93.4919 19.6625 93.012 19.4494 92.6954 19.0729L92.5069 18.8467C92.3502 18.6595 92.2386 18.4378 92.1784 18.1941C92.1183 17.9504 92.1107 17.6896 92.1562 17.4265C92.2017 17.1635 92.2994 16.9034 92.4437 16.6611C92.5879 16.4188 92.7759 16.199 92.9969 16.0144L93.8962 15.266C93.9222 15.2453 93.9551 15.2354 93.9882 15.2385C94.0213 15.2415 94.052 15.2571 94.0738 15.2821ZM114.239 10.6676C112.252 7.44219 108.338 10.8507 111.956 12.4445C114.783 13.6883 117.319 15.0237 116.775 18.3299C116.388 20.6919 114.927 21.9465 112.392 22.0937C109.725 22.2481 107.93 21.0868 107.008 18.6099C106.932 18.4089 106.986 18.2527 107.169 18.1414L108.822 17.1614C109.041 17.0322 109.203 17.0824 109.307 17.3122C109.899 18.5991 110.949 19.8322 112.548 19.4822C113.371 19.3027 113.884 18.7983 114.088 17.9691C114.325 16.9891 113.27 16.106 112.489 15.7345C112.275 15.6333 112.057 15.5338 111.837 15.4336C110.1 14.6425 108.26 13.8048 107.821 11.7499C106.685 6.41373 114.503 4.71219 116.533 9.49373C116.576 9.59783 116.547 9.67501 116.447 9.72527L114.487 10.7376C114.383 10.7914 114.3 10.7681 114.239 10.6676ZM40.0769 21.8084L40.0823 17.2046C40.0823 16.8923 40.2367 16.7541 40.5454 16.79C41.6044 16.9192 42.5933 16.8384 43.5123 16.5477C47.6746 15.2446 47.8092 9.13844 43.9646 7.46921C42.6773 6.91213 41.1216 6.94445 39.6157 6.97573C38.9674 6.9892 38.3283 7.00247 37.7238 6.96844C37.4977 6.95408 37.3846 7.06178 37.3846 7.29152V21.8084C37.3846 21.8982 37.4295 21.9431 37.5192 21.9431L39.9423 21.9377C40.032 21.9377 40.0769 21.8946 40.0769 21.8084ZM40.0769 14.1623L40.0877 9.6069C40.0877 9.58806 40.0915 9.5694 40.0988 9.55206C40.1062 9.53471 40.117 9.51903 40.1306 9.50596C40.1442 9.49288 40.1602 9.48269 40.1778 9.47597C40.1955 9.46926 40.2142 9.46618 40.2331 9.46691L41.3638 9.47229C42.0596 9.47533 42.7258 9.72419 43.2163 10.1643C43.7069 10.6044 43.9818 11.1998 43.9808 11.82V11.9708C43.9803 12.2789 43.9116 12.5838 43.7786 12.8681C43.6456 13.1524 43.451 13.4105 43.2059 13.6276C42.9608 13.8447 42.6701 14.0165 42.3503 14.1332C42.0305 14.2499 41.688 14.3092 41.3423 14.3077L40.2115 14.3023C40.1753 14.3009 40.1411 14.2855 40.116 14.2594C40.0909 14.2333 40.0769 14.1985 40.0769 14.1623ZM9.40335 9.09172C8.3911 10.3153 8.54572 12.114 9.7487 13.1092C10.9517 14.1044 12.7475 13.9192 13.7597 12.6956C14.772 11.472 14.6173 9.67333 13.4144 8.67815C12.2114 7.68296 10.4156 7.86812 9.40335 9.09172ZM22.0714 13.1495C22.5849 12.7262 22.9092 12.1163 22.973 11.4539L23.0277 10.8857C23.0593 10.5577 23.0259 10.2267 22.9296 9.91161C22.8332 9.59649 22.6758 9.30344 22.4662 9.04917C22.2566 8.79491 21.999 8.58442 21.708 8.42972C21.4171 8.27502 21.0985 8.17914 20.7705 8.14756L20.2559 8.09802C19.5935 8.03425 18.9329 8.23623 18.4194 8.65953C17.9059 9.08283 17.5816 9.69278 17.5178 10.3552L17.4631 10.9233C17.4315 11.2513 17.4648 11.5823 17.5612 11.8975C17.6575 12.2126 17.815 12.5056 18.0246 12.7599C18.2342 13.0142 18.4918 13.2247 18.7828 13.3794C19.0737 13.5341 19.3923 13.6299 19.7203 13.6615L20.2348 13.7111C20.8972 13.7748 21.5579 13.5728 22.0714 13.1495ZM20.1483 10.0924C20.213 10.0895 20.2751 10.0666 20.3262 10.0268L20.9938 9.50453C21.0521 9.46109 21.1237 9.43933 21.1963 9.44301C21.2689 9.44669 21.338 9.47558 21.3916 9.5247C21.4451 9.57381 21.4799 9.64009 21.4899 9.71209C21.4998 9.78409 21.4844 9.85732 21.4462 9.91915L20.9831 10.6299C20.9481 10.6843 20.9308 10.7483 20.9337 10.8129C20.9366 10.8775 20.9595 10.9396 20.9992 10.9907L21.5215 11.6584C21.565 11.7167 21.5867 11.7883 21.5831 11.8609C21.5794 11.9335 21.5505 12.0025 21.5014 12.0561C21.4523 12.1097 21.386 12.1444 21.314 12.1544C21.242 12.1644 21.1688 12.1489 21.1069 12.1107L20.3962 11.6476C20.3418 11.6126 20.2778 11.5954 20.2132 11.5983C20.1486 11.6012 20.0864 11.624 20.0354 11.6638L19.3677 12.1861C19.3094 12.2295 19.2378 12.2513 19.1652 12.2476C19.0926 12.2439 19.0236 12.215 18.97 12.1659C18.9164 12.1168 18.8816 12.0505 18.8717 11.9785C18.8617 11.9065 18.8772 11.8333 18.9154 11.7715L19.3785 11.0607C19.4135 11.0063 19.4307 10.9424 19.4278 10.8777C19.4249 10.8131 19.402 10.751 19.3623 10.6999L18.84 10.0322C18.7966 9.97395 18.7748 9.90234 18.7785 9.82974C18.7822 9.75714 18.811 9.6881 18.8602 9.63452C18.9093 9.58094 18.9755 9.54616 19.0476 9.5362C19.1196 9.52623 19.1928 9.54169 19.2546 9.57992L19.9654 10.043C20.0198 10.078 20.0837 10.0952 20.1483 10.0924ZM61.8523 15.1689L61.9654 19.1051C61.9678 19.2339 62.0092 19.3588 62.0841 19.4634C62.1591 19.568 62.2641 19.6476 62.3855 19.6918C62.5069 19.7359 62.6392 19.7426 62.7649 19.711C62.8907 19.6793 63.0043 19.6108 63.0908 19.5143L63.7208 18.8089C63.8823 18.6294 64.0636 18.6079 64.2646 18.7443L65.7292 19.7351C65.9267 19.8679 65.9608 20.033 65.8315 20.2305C64.7941 21.8136 63.3797 22.3987 61.5885 21.9859C59.0671 21.4084 59.1871 18.702 59.2841 16.5162V16.5162V16.5161V16.5161V16.516V16.516V16.5159V16.5159V16.5158V16.5158C59.3056 16.0317 59.3259 15.5731 59.3162 15.1689C59.3126 14.9356 59.1941 14.8171 58.9608 14.8136H58.1154C57.9359 14.81 57.8462 14.7184 57.8462 14.5389V12.5843C57.8462 12.3582 57.9592 12.2469 58.1854 12.2505L59.0523 12.2612C59.2318 12.2612 59.3215 12.1697 59.3215 11.9866L59.3323 9.15432C59.3337 9.1196 59.3479 9.08676 59.372 9.06267C59.3961 9.03859 59.4282 9.02512 59.4615 9.02509H61.7446C61.8308 9.02509 61.8738 9.06637 61.8738 9.14894L61.89 11.9866C61.89 12.1661 61.9797 12.2559 62.1592 12.2559L65.1154 12.2505C65.1511 12.2505 65.1853 12.2647 65.2106 12.2899C65.2358 12.3151 65.25 12.3494 65.25 12.3851V14.6736C65.25 14.7633 65.2051 14.8082 65.1154 14.8082H62.2023C61.9618 14.8082 61.8451 14.9284 61.8523 15.1689ZM54.2008 18.9005C53 20.1875 51.04 19.929 50.3669 18.249C50.2772 18.0192 50.3561 17.9044 50.6038 17.9044L56.2631 17.899C56.4785 17.899 56.5987 17.7913 56.6238 17.5759C56.9038 14.8082 55.6115 12.2236 52.6177 12.019C48.6923 11.7498 47.0715 14.7975 47.5346 18.2813C47.8523 20.6559 49.8285 22.1205 52.2785 22.1259C53.8831 22.1295 55.2669 21.4959 56.43 20.2251C56.5951 20.0421 56.5736 19.8841 56.3654 19.7513L54.8846 18.809C54.6333 18.651 54.4054 18.6816 54.2008 18.9005ZM53.7323 15.8959L50.5554 15.8744C50.534 15.8744 50.5134 15.8659 50.4983 15.8507C50.4831 15.8356 50.4746 15.815 50.4746 15.7936V15.7505C50.4759 15.5815 50.5181 15.4143 50.5989 15.2587C50.6797 15.103 50.7975 14.9619 50.9455 14.8434C51.0935 14.7249 51.2689 14.6313 51.4616 14.568C51.6543 14.5047 51.8605 14.4729 52.0685 14.4744H52.2408C52.6604 14.4774 53.0618 14.6159 53.3567 14.8592C53.6515 15.1025 53.8157 15.4309 53.8131 15.7721V15.8151C53.8131 15.8258 53.811 15.8363 53.8069 15.8461C53.8029 15.8559 53.7969 15.8648 53.7894 15.8723C53.7819 15.8798 53.773 15.8857 53.7632 15.8898C53.7534 15.8938 53.7429 15.8959 53.7323 15.8959ZM69.9777 18.3515C70.6777 19.9292 72.7346 20.2576 73.8815 18.8684C74.0467 18.6674 74.2405 18.6369 74.4631 18.7769L75.8631 19.6707C76.1036 19.8251 76.1287 20.0064 75.9385 20.2146C74.3877 21.9448 72.4672 22.5012 70.1769 21.8838C68.9851 21.5607 68.129 20.8446 67.6085 19.7353C65.9123 16.1169 68.0177 11.2815 72.5946 12.0515C75.3462 12.5092 76.4715 15.0346 76.2885 17.6246C76.2777 17.8112 76.179 17.9046 75.9923 17.9046H70.2631C69.94 17.9046 69.8449 18.0535 69.9777 18.3515ZM70.1662 15.8046L73.2623 15.9123C73.2729 15.913 73.2836 15.9116 73.2937 15.9082C73.3037 15.9048 73.313 15.8995 73.3211 15.8925C73.3291 15.8855 73.3356 15.8769 73.3403 15.8674C73.345 15.8579 73.3478 15.8475 73.3485 15.8369V15.7884C73.3604 15.4491 73.2077 15.1179 72.9241 14.8675C72.6404 14.6171 72.2488 14.4681 71.8354 14.453L71.6954 14.4476C71.4904 14.44 71.2862 14.4655 71.0944 14.5228C70.9026 14.58 70.7269 14.6679 70.5774 14.7814C70.4279 14.895 70.3075 15.0318 70.2231 15.1843C70.1387 15.3367 70.0919 15.5018 70.0854 15.67V15.7184C70.0846 15.7295 70.0862 15.7406 70.0899 15.751C70.0937 15.7614 70.0995 15.771 70.1071 15.779C70.1146 15.7871 70.1238 15.7936 70.134 15.7979C70.1441 15.8023 70.1551 15.8046 70.1662 15.8046ZM85.0923 12.8912C83.581 11.6994 82.2959 11.6832 81.2369 12.8427C80.9497 13.155 80.8295 13.0994 80.8762 12.6758C80.8869 12.5789 80.8851 12.4837 80.8708 12.3904C80.8528 12.2971 80.7972 12.2504 80.7038 12.2504L78.4423 12.2558C78.3526 12.2558 78.3077 12.2989 78.3077 12.385V21.8081C78.3077 21.8424 78.3219 21.8752 78.3471 21.8995C78.3724 21.9237 78.4066 21.9373 78.4423 21.9373L80.7308 21.9427C80.7708 21.9427 80.8091 21.9263 80.8374 21.897C80.8657 21.8677 80.8815 21.828 80.8815 21.7866C80.8385 20.0599 80.8456 18.4266 80.9031 16.8866C80.9785 14.9212 82.0823 14.1081 83.9023 15.1743C83.9633 15.2102 84.01 15.1958 84.0423 15.1312L85.1192 13.015C85.1444 12.9648 85.1354 12.9235 85.0923 12.8912ZM128.438 17.0914C128.438 18.4466 127.9 19.7464 126.942 20.7047C125.983 21.663 124.684 22.2014 123.328 22.2014C121.973 22.2014 120.673 21.663 119.715 20.7047C118.757 19.7464 118.218 18.4466 118.218 17.0914C118.218 15.7361 118.757 14.4364 119.715 13.4781C120.673 12.5197 121.973 11.9814 123.328 11.9814C124.684 11.9814 125.983 12.5197 126.942 13.4781C127.9 14.4364 128.438 15.7361 128.438 17.0914ZM123.331 19.7405C123.972 19.7439 124.588 19.4686 125.044 18.9751C125.5 18.4817 125.759 17.8106 125.762 17.1094C125.766 16.4082 125.515 15.7344 125.064 15.2363C124.613 14.7381 124 14.4563 123.358 14.453C122.717 14.4496 122.101 14.7249 121.645 15.2184C121.189 15.7118 120.931 16.3829 120.927 17.0841C120.923 17.7853 121.174 18.4591 121.625 18.9572C122.076 19.4554 122.69 19.7372 123.331 19.7405ZM135.196 12.0245C134.5 12.0245 133.9 12.3045 133.398 12.8645C133.175 13.1122 133.006 13.0781 132.892 12.7622L132.805 12.5199C132.741 12.3404 132.613 12.2506 132.423 12.2506H130.404C130.224 12.2506 130.135 12.3404 130.135 12.5199V21.8083C130.135 21.8981 130.179 21.943 130.269 21.943L132.692 21.9376C132.789 21.9376 132.836 21.8909 132.832 21.7976C132.8 20.2181 132.818 18.556 132.886 16.8114C132.918 15.9247 133.231 15.2409 133.823 14.7599C134.48 14.2322 135.045 14.3094 135.519 14.9914C135.742 15.3145 135.866 15.7578 135.891 16.3214C135.98 18.1988 136.009 20.0332 135.977 21.8245C135.977 21.8963 136.013 21.9322 136.085 21.9322L138.465 21.943C138.536 21.943 138.574 21.9071 138.578 21.8353C138.689 19.1465 138.655 16.8401 138.475 14.916C138.299 12.9883 137.206 12.0245 135.196 12.0245ZM144.328 19.5788C144.529 19.4101 144.573 19.166 144.458 18.8465C144.405 18.7076 144.306 18.5929 144.178 18.5234C143.973 18.4103 143.747 18.2961 143.512 18.1772C142.316 17.5721 140.879 16.8456 140.699 15.5134C140.161 11.4804 144.684 11.0334 146.762 13.7096C146.913 13.9106 146.884 14.0775 146.676 14.2104L145.308 15.0827C145.231 15.132 145.14 15.1526 145.049 15.1408C144.958 15.129 144.875 15.0855 144.813 15.0181C144.508 14.6734 144.111 14.4563 143.623 14.3665C143.361 14.3163 143.194 14.4204 143.122 14.6788L143.074 14.8511C143.06 14.8997 143.061 14.9515 143.079 14.999C143.096 15.0465 143.129 15.0871 143.171 15.115C143.595 15.3956 144.048 15.6274 144.49 15.8535C145.99 16.6212 147.363 17.3238 147.042 19.6488C146.917 20.5822 146.468 21.2355 145.696 21.6088C143.377 22.736 141.502 22.1904 140.069 19.9719C140.04 19.9288 140.046 19.8911 140.085 19.8588C140.663 19.3814 141.317 18.974 142.045 18.6365C142.096 18.6114 142.137 18.6222 142.169 18.6688C142.535 19.1606 142.957 19.5088 143.435 19.7134C143.761 19.8534 144.059 19.8086 144.328 19.5788ZM9.43308 14.6198L8.49615 16.7628C8.46714 16.8298 8.45736 16.9036 8.46791 16.9758C8.47846 17.0481 8.50892 17.116 8.55588 17.1719C8.60284 17.2278 8.66444 17.2695 8.73378 17.2924C8.80312 17.3152 8.87746 17.3183 8.94846 17.3013L10.8977 16.8167C10.9783 16.7964 11.0504 16.751 11.1036 16.6872C11.1568 16.6233 11.1884 16.5442 11.1938 16.4613L11.2962 15.0613C11.3036 14.9668 11.2766 14.8728 11.2202 14.7966C11.1638 14.7204 11.0818 14.6672 10.9892 14.6467L9.88 14.3936C9.79083 14.3735 9.69742 14.385 9.61585 14.4263C9.53428 14.4676 9.46965 14.536 9.43308 14.6198ZM22.9431 17.3551L21.1069 16.8651C20.9789 16.8299 20.8639 16.7582 20.7759 16.6588C20.688 16.5594 20.6308 16.4365 20.6115 16.3051L20.4069 14.9643C20.3746 14.7489 20.4644 14.6125 20.6761 14.5551L21.7692 14.2643C22.0456 14.1889 22.2359 14.2841 22.34 14.5497L23.2823 16.9836C23.4151 17.3282 23.302 17.452 22.9431 17.3551ZM18.7862 22.1367C19.041 22.2588 19.0428 22.3844 18.7915 22.5136L16.2446 23.8382C16.04 23.9423 15.8282 23.9567 15.6092 23.8813C14.3564 23.4254 13.3154 22.8259 12.4862 22.0829C12.0446 21.688 11.8759 21.7813 11.98 22.3629L12.4323 24.8613C12.5082 25.2797 12.7434 25.6537 13.0892 25.9059C13.8754 26.4767 14.7387 26.9972 15.6792 27.4675C16.7627 28.007 17.968 27.8155 19.1178 27.6328C19.3566 27.5948 19.593 27.5573 19.8254 27.5267C20.0336 27.5016 20.1305 27.3831 20.1162 27.1713L19.7931 23.2621C19.788 23.1993 19.8011 23.1363 19.8309 23.0808C19.8606 23.0252 19.9057 22.9794 19.9607 22.9487C20.0158 22.9181 20.0785 22.9039 20.1414 22.9079C20.2043 22.9119 20.2647 22.9339 20.3154 22.9713C22.2054 24.339 24.9192 25.3836 26.4646 22.8313C26.7841 22.3072 26.6979 21.8621 26.2062 21.4959C25.6354 21.0723 24.9785 20.7672 24.2354 20.5806C23.8441 20.4836 23.5497 20.6111 23.3523 20.9629L22.5554 22.4006C22.4154 22.6518 22.2215 22.7093 21.9738 22.5729L16.3362 19.4821C16.1672 19.3893 15.9762 19.3443 15.7836 19.3519C15.5911 19.3595 15.4042 19.4194 15.2431 19.5252L13.1915 20.8713C12.9367 21.0365 12.9313 21.2106 13.1754 21.3936C13.9508 21.968 14.7818 22.3916 15.6685 22.6644C15.8695 22.729 16.0669 22.7165 16.2608 22.6267L17.9085 21.8675C17.9627 21.8438 18.0214 21.832 18.0809 21.8329C18.1403 21.8339 18.199 21.8475 18.2531 21.8729L18.7862 22.1367Z" fill="white"/>
</g>
<defs>
<clipPath id="clip0_4595_8435">
<rect width="147" height="28" fill="white" transform="translate(0.5 0.000976562)"/>
</clipPath>
</defs>
</svg>
