<svg width="128" height="24" viewBox="0 0 128 24" fill="none" xmlns="http://www.w3.org/2000/svg">
<path fill-rule="evenodd" clip-rule="evenodd" d="M49.7735 0.762843C50.354 0.72475 50.9345 0.66761 51.5149 0.610469C52.0954 0.553329 52.6758 0.496189 53.2563 0.458095L53.2566 0.458053C54.3281 0.305694 55.3996 0.153336 56.3818 0.000976562L51.9168 14.9336C51.9168 14.9651 51.9014 14.9967 51.8835 15.0336L51.8835 15.0336C51.8581 15.0859 51.8275 15.149 51.8275 15.2383C51.7382 15.4669 51.7382 15.5431 51.7382 15.6192C51.7382 15.7716 51.7382 15.924 51.8275 16.0002C51.9168 16.0764 52.0061 16.1525 52.1847 16.1525C52.3633 16.1525 52.5419 16.0764 52.7205 15.8478C52.8991 15.6954 53.3456 15.1621 53.8814 14.4003L53.9207 14.4255C54.0133 13.5018 54.2841 12.5408 54.7769 11.5797C55.0448 10.3608 55.8485 9.21795 56.8308 8.3037C57.6345 7.54184 58.4382 6.93234 59.3312 6.55141C60.2242 6.17047 61.0279 5.94191 61.8316 5.94191C62.546 5.94191 63.1711 6.09428 63.6176 6.39903C64.0641 6.70378 64.332 7.1609 64.5106 7.84658L64.957 6.39903L68.9755 6.32285L68.9179 6.50639C69.6211 6.43103 70.3244 6.33872 71.0276 6.24642L71.0277 6.24641C72.1886 6.09404 72.8137 6.01785 72.903 6.01785C73.3495 6.01785 73.9746 7.77014 74.7783 11.3509C74.9792 12.4364 75.1801 13.3506 75.3433 14.0933L75.3434 14.0936C75.3978 14.3412 75.448 14.5698 75.4927 14.7793C76.3857 13.2556 77.0108 12.1128 77.368 11.4271C77.7252 10.7414 77.9038 10.2081 77.9038 9.90337C77.9038 9.67481 77.6359 9.29388 77.1001 8.98913C76.5643 8.6082 76.2964 8.22726 76.2964 7.77014C76.2964 7.23684 76.475 6.77972 76.8322 6.47497C77.1894 6.17022 77.7252 6.01785 78.3503 6.01785C78.8319 6.01785 79.2605 6.1083 79.5952 6.2892L79.6895 6.02104C80.8504 5.79248 81.8327 5.33536 82.7257 4.64968C83.6187 3.88782 84.4224 2.8974 85.1367 1.60223H86.0297L84.8689 5.86866H87.1906L86.9227 6.7829H84.4224L82.0113 14.9349C81.922 15.0872 81.922 15.3158 81.922 15.4682V15.8491C81.922 16.1538 82.0113 16.3062 82.1006 16.4586C82.1899 16.611 82.4578 16.6871 82.6364 16.6871C82.9936 16.6871 83.3508 16.5348 83.7973 16.23C84.206 15.951 84.6896 15.4805 85.3165 14.8185C85.3347 13.7844 85.6023 12.682 86.1191 11.5795C86.6549 10.4367 87.3693 9.44625 88.2623 8.6082C89.1553 7.77014 90.1376 7.16065 91.1199 6.70353C92.1915 6.24641 93.2631 6.01785 94.3347 6.01785C95.317 6.01785 96.1207 6.24641 96.7458 6.62734C97.3709 7.00828 97.6388 7.61777 97.6388 8.30345C97.6388 9.59862 96.7458 10.6652 95.0491 11.5795C93.2631 12.4175 91.0306 13.027 88.2623 13.1794L88.2623 13.1795C88.173 13.4842 88.0837 13.7889 88.0837 14.0936C87.9944 14.3984 87.9944 14.6269 87.9944 14.8555C87.9944 15.5412 88.173 16.0745 88.6195 16.4554C89.066 16.8364 89.6018 17.1411 90.4055 17.1411C91.2092 17.1411 92.1022 16.8364 93.0845 16.3792C93.9769 15.964 95.0166 15.3601 96.0699 14.5676C96.0452 14.3652 96.0329 14.1565 96.0329 13.9416C96.0329 12.9511 96.3008 11.9607 96.7473 10.9703C97.2831 9.97983 97.9082 9.06559 98.8012 8.22753C99.6049 7.46565 100.498 6.93234 101.569 6.55141C102.552 6.17047 103.623 5.94191 104.606 5.94191C105.677 5.94191 106.57 6.17047 107.195 6.6276C107.82 7.08472 108.178 7.61803 108.178 8.3799C108.178 8.83702 107.999 9.14177 107.642 9.44652C107.285 9.75127 106.927 9.90364 106.392 9.90364C106.034 9.90364 105.677 9.82746 105.499 9.59889C105.231 9.37033 105.141 9.14177 105.141 8.76084C105.141 8.53227 105.231 8.22752 105.409 7.92278C105.588 7.61803 105.677 7.38947 105.677 7.31328C105.677 7.16091 105.588 7.00853 105.409 6.93234C105.231 6.85616 104.963 6.77997 104.606 6.77997C103.891 6.77997 103.266 6.93234 102.552 7.31328C101.837 7.69422 101.212 8.15134 100.677 8.83702C100.051 9.59889 99.5156 10.437 99.1584 11.275C98.8012 12.1131 98.6226 12.9511 98.6226 13.7892C98.6226 14.7034 98.8905 15.4653 99.4263 15.9986C99.9621 16.5319 100.766 16.9129 101.748 16.9129C102.462 16.9129 103.266 16.6081 103.981 16.2272C104.943 15.9286 106.077 15.1178 107.383 13.4366L110.767 2.97056C110.767 2.93901 110.782 2.90745 110.8 2.87048C110.826 2.81819 110.856 2.75508 110.856 2.66582V2.36107C110.856 2.05633 110.767 1.90395 110.588 1.82777C110.41 1.75158 109.963 1.67539 109.249 1.67539H108.088L108.266 0.989716C108.891 0.989716 109.515 0.91521 110.109 0.844348C110.365 0.813872 110.614 0.784069 110.856 0.761157C111.66 0.608784 112.374 0.456411 113.089 0.227851H113.982L110.499 10.894C112.285 9.37023 113.892 8.15125 115.41 7.31319C116.929 6.47514 118.089 6.01802 118.982 6.01802C119.429 6.01802 119.786 6.09421 119.965 6.32277C120.143 6.55133 120.322 6.77989 120.322 7.23701C120.322 7.38938 120.322 7.54175 120.233 7.69413C120.233 7.8465 120.143 8.07506 120.054 8.30362L117.554 15.5413C117.554 15.6175 117.531 15.6937 117.509 15.7699C117.487 15.8461 117.464 15.9223 117.464 15.9985C117.464 16.0746 117.442 16.1508 117.42 16.227L117.42 16.2271C117.397 16.3033 117.375 16.3794 117.375 16.4556C117.375 16.5318 117.464 16.6079 117.554 16.6841C117.575 16.7021 117.596 16.7243 117.618 16.7478C117.69 16.8238 117.774 16.9127 117.911 16.9127C118.179 16.9127 118.536 16.6841 118.893 16.3794C119.34 16.0746 119.786 15.6937 120.233 15.2366L120.768 15.6175C119.875 16.5318 119.072 17.2174 118.268 17.7507C117.464 18.2079 116.75 18.5126 116.036 18.5126C115.589 18.5126 115.232 18.4364 114.964 18.2079C114.696 18.0555 114.607 17.7507 114.607 17.446V17.0651C114.607 16.9127 114.696 16.7603 114.785 16.6079L117.375 9.06548C117.464 8.91311 117.464 8.76074 117.464 8.68455V8.45599C117.464 8.27514 117.408 8.18968 117.341 8.0864C117.323 8.05916 117.304 8.03067 117.286 7.99887C117.196 7.92269 117.018 7.8465 116.75 7.8465C116.393 7.8465 115.857 8.07506 115.143 8.45599C114.596 8.74753 113.997 9.17293 113.305 9.6639C113.093 9.81446 112.873 9.97118 112.642 10.1321C111.749 10.8178 111.124 11.3511 110.767 11.8082C110.41 12.2653 110.052 12.7224 109.874 13.2557L108.177 18.4364C108.088 18.4364 107.865 18.4174 107.641 18.3983C107.418 18.3793 107.195 18.3602 107.106 18.3602H107.016H106.391C106.213 18.3602 106.034 18.3602 105.766 18.4364L106.582 15.914C105.902 16.575 105.165 17.1028 104.427 17.5224C103.355 18.0557 102.105 18.3604 100.855 18.3604C99.4263 18.3604 98.2654 17.9795 97.3724 17.1414C96.9139 16.7111 96.5731 16.2205 96.35 15.6697C95.1463 16.5555 93.9624 17.2238 92.9059 17.6744C91.6557 18.2077 90.3162 18.5125 89.1553 18.5125C87.9052 18.5125 87.0121 18.2077 86.2978 17.5982C85.7803 17.1567 85.4971 16.5553 85.3802 15.823C84.7082 16.543 84.0485 17.1214 83.4401 17.5252C82.6364 18.1347 81.8327 18.3632 81.1183 18.3632C80.5825 18.3632 80.136 18.2109 79.7788 17.9061C79.4216 17.6014 79.3323 17.1443 79.3323 16.611C79.3323 16.4586 79.3323 16.23 79.4216 16.0015C79.4216 15.8206 79.4775 15.6397 79.5451 15.4211C79.563 15.3635 79.5816 15.3032 79.6002 15.2396L82.1006 6.7829H80.1369C80.3151 7.06136 80.4042 7.41584 80.4042 7.84633C80.4042 8.6082 79.9577 9.751 79.154 11.3509C78.3503 12.9508 77.1894 14.7793 75.8499 16.8364C74.2425 19.122 72.8137 20.7981 71.4742 21.8647C70.1347 22.9313 68.8845 23.4646 67.7236 23.4646C66.9199 23.4646 66.2948 23.3122 65.8483 23.0075C65.4018 22.7027 65.1339 22.2456 65.1339 21.7123C65.1339 21.2552 65.3125 20.7981 65.759 20.4933C66.1162 20.1886 66.652 20.0362 67.2771 20.0362C67.7236 20.0362 68.2594 20.1886 68.7952 20.4933C69.331 20.7981 69.6882 20.9504 69.8668 20.9504C70.224 20.9504 70.5812 20.7219 71.0277 20.2648C71.4742 19.8076 71.6528 19.3505 71.6528 18.8934C71.6528 18.5887 71.6528 18.2077 71.5635 17.6744C71.4742 17.2173 71.3849 16.6078 71.2956 15.8459C71.0277 14.3222 70.7598 12.9508 70.4919 11.7319C70.224 10.5129 69.9561 9.52244 69.6882 8.76057C69.5096 8.15108 69.2417 7.77014 69.0631 7.54158C68.9716 7.46349 68.8331 7.3854 68.6598 7.32782L66.6537 13.713C66.2965 14.8558 66.1179 15.5415 66.1179 15.6938C66.1179 15.8462 66.1179 15.9986 66.2072 16.151C66.2965 16.2271 66.3858 16.3033 66.5644 16.3033C66.9216 16.3033 67.4574 15.9224 68.0825 15.1605C68.1608 15.0604 68.239 14.9749 68.3098 14.8976L68.3099 14.8975L68.3099 14.8974C68.4006 14.7983 68.4789 14.7128 68.529 14.6272L69.2434 15.0843C68.4397 16.2271 67.7253 17.0652 66.9216 17.5985C66.1179 18.1318 65.3142 18.4366 64.4212 18.4366C63.7069 18.4366 63.0818 18.2842 62.7246 17.9794C62.3674 17.6747 62.0995 17.2938 62.0995 16.6843C62.0995 16.5319 62.0995 16.3033 62.1888 16.0748C62.1888 15.8462 62.2781 15.4653 62.3674 15.0843C61.653 16.2271 60.8493 16.989 60.0456 17.5223C59.2419 18.0556 58.2596 18.3604 57.2773 18.3604C56.2057 18.3604 55.402 18.0556 54.7769 17.5223C54.2853 17.043 54.0147 16.4695 53.9215 15.7647C53.2579 16.5895 52.607 17.2013 52.0061 17.6001C51.2024 18.1334 50.3986 18.4381 49.5056 18.4381C48.7019 18.4381 48.1661 18.2858 47.7196 17.9048C47.2731 17.5239 47.0945 16.9906 47.0945 16.3049C47.0945 16.0002 47.2731 15.0859 47.7196 13.6384V13.6314C47.4004 14.1869 47.0265 14.7133 46.5637 15.2397C45.6707 16.3063 44.7777 17.0682 43.7954 17.6015C42.8131 18.1348 41.7415 18.3634 40.6699 18.3634C40.2234 18.3634 39.7769 18.2872 39.4197 18.211C39.0625 18.0586 38.7053 17.9063 38.3481 17.6777L37.4551 20.4966C37.3658 20.649 37.3658 20.8775 37.3658 21.0299V21.5632C37.3658 21.868 37.4551 22.1727 37.723 22.2489C37.9909 22.4013 38.4374 22.4774 39.1518 22.4774V23.1631H31.1148V22.4774H31.2041H31.2934C31.8292 22.4774 32.1864 22.4013 32.4543 22.1727C32.7222 21.9441 32.9901 21.3346 33.258 20.4204L36.4728 9.29718C36.5621 9.14481 36.5621 8.91625 36.5621 8.76387C36.5621 8.67462 36.5928 8.58536 36.6182 8.51141C36.6361 8.45913 36.6514 8.4145 36.6514 8.38294C36.6514 8.0782 36.5621 7.84964 36.2942 7.77345C36.1156 7.62108 35.6691 7.62108 35.1333 7.62108L34.9547 6.9354C36.1156 6.85921 37.2765 6.78303 38.3481 6.63065C38.6894 6.58213 39.0306 6.54133 39.369 6.50088C40.0932 6.4143 40.8041 6.32931 41.4736 6.17353L40.6699 8.76387C41.4736 7.77345 42.2773 7.01158 43.081 6.55447C43.7954 6.09735 44.5991 5.86879 45.4921 5.86879C46.653 5.86879 47.4567 6.17353 48.0818 6.78302C48.6995 7.38529 48.9684 8.21074 48.9747 9.33286L50.6665 3.73412C50.6665 3.70256 50.6819 3.65793 50.6998 3.60565C50.7252 3.5317 50.7558 3.44245 50.7558 3.35319C50.9344 2.74369 51.0238 2.28658 51.0238 2.1342C51.0238 1.90564 50.9344 1.67708 50.7558 1.6009C50.5772 1.44852 50.22 1.44852 49.8628 1.44852H49.5949L49.7735 0.762843ZM29.5006 8.62186C29.5067 8.63796 29.5067 8.65637 29.5067 8.68754C29.6853 6.40194 28.0779 4.80202 24.7738 4.57346C22.6306 4.49727 19.9517 4.95439 17.362 5.94482L18.255 6.40194C23.6129 5.18295 28.1672 6.021 29.4174 8.53516C29.4702 8.58019 29.4918 8.5986 29.5006 8.62186ZM10.9324 20.0393C15.1295 20.3441 21.3804 17.7537 24.7738 14.0206C28.1672 10.3636 27.5421 7.08762 23.1664 6.78287C22.0055 6.70668 20.6661 6.85906 19.3266 7.23999L24.4166 9.75415C25.3989 10.2113 25.4882 11.4303 24.5059 11.9636L11.9147 18.5156C11.0217 18.9727 9.68222 18.4394 9.68222 17.2204V12.5731C9.68222 12.6492 9.59292 12.7254 9.50362 12.8016C6.11024 16.5348 6.73533 19.7346 10.9324 20.0393ZM4.41355 16.6871C3.43125 19.6584 4.94935 21.8678 8.78922 22.0964C12.0933 22.2488 16.3797 21.0298 20.2196 18.8965C20.1303 18.9346 20.0633 18.9537 19.9963 18.9727C19.9293 18.9918 19.8624 19.0108 19.7731 19.0489C12.9863 21.6393 6.19954 21.2583 4.68145 18.0585C4.50285 17.6776 4.41355 17.1443 4.41355 16.6871ZM21.6483 10.0589L13.1649 5.4877C12.4505 5.18295 11.5575 5.64007 11.5575 6.32575V15.1634C11.4682 15.9253 12.4505 16.3062 13.0756 16.0015L21.6483 11.5826C22.3627 11.2017 22.2734 10.3636 21.6483 10.0589ZM15.6653 5.03058C23.6129 2.66879 30.9355 3.43066 32.7215 7.1638C34.6861 11.2779 29.0602 17.3728 20.2196 20.725C11.2896 24.1534 2.53826 23.6201 0.57367 19.506C-1.12302 15.9253 2.80616 10.8969 9.68222 7.39236V4.3449C9.77152 3.27828 11.0217 2.5926 12.0933 3.12591L15.6653 5.03058ZM38.9732 14.935L39.7769 12.497C40.3127 10.9733 40.7592 9.83048 41.4736 9.14481C42.0987 8.45913 42.7238 8.0782 43.3489 8.0782C43.6168 8.0782 43.8847 8.23057 44.0633 8.45913C44.2419 8.68769 44.3312 9.06862 44.3312 9.44955C44.3312 9.98286 44.1526 10.8209 43.7954 11.8113C43.4382 12.8779 42.9917 13.8684 42.4559 14.935C42.0094 15.6968 41.4736 16.3063 41.0271 16.7635C40.4913 17.2206 40.0448 17.4491 39.5983 17.4491C39.3304 17.4491 39.0625 17.3729 38.8839 17.2206C38.7053 17.0682 38.616 16.8396 38.616 16.6111C38.616 16.4587 38.616 16.2302 38.7053 15.9254C38.7946 15.6207 38.8839 15.3159 38.9732 14.935ZM63.3497 7.69421C63.5283 7.92277 63.6176 8.15133 63.6176 8.53227C63.6176 8.98939 63.439 9.67507 63.1711 10.5893C63.0831 10.8144 62.9952 11.0441 62.9059 11.2773C62.6326 11.9912 62.3467 12.7378 62.0102 13.4844C61.5637 14.3987 61.1172 15.0843 60.5814 15.5415C60.1349 16.0748 59.5991 16.3033 59.1526 16.3033C58.7954 16.3033 58.5275 16.2271 58.3489 15.9986C58.1703 15.77 58.081 15.3891 58.081 15.0082C58.081 14.3225 58.2596 13.5606 58.6168 12.5702C58.974 11.6559 59.4205 10.6655 60.0456 9.67507C60.5814 8.9132 61.0279 8.3037 61.3851 7.92277C61.8316 7.54184 62.1888 7.38946 62.6353 7.38946C62.9032 7.38946 63.1711 7.46565 63.3497 7.69421ZM88.5302 12.2652C90.4948 12.189 92.1915 11.7319 93.4417 10.8938C94.7812 10.0557 95.4063 9.1415 95.4063 8.07489C95.4063 7.69396 95.317 7.4654 95.0491 7.23684C94.8705 7.08446 94.5133 7.00828 94.0668 7.00828C92.9059 7.00828 91.745 7.4654 90.7627 8.37964C89.8697 9.37006 89.066 10.6652 88.5302 12.2652ZM76.1177 22.9347V22.7061L75.4033 22.7823V22.9347V23.2394C75.4033 23.468 75.5819 23.6965 75.8498 23.8489C76.0284 23.9251 76.3856 24.0013 76.8321 24.0013C77.8143 24.0013 78.3501 23.6965 78.3501 23.0108C78.3501 22.6299 78.1715 22.3252 77.8143 22.1728C77.7251 22.0966 77.5464 22.0204 77.2785 21.9442C77.0107 21.868 76.8321 21.7918 76.6535 21.7157C76.3856 21.5633 76.207 21.4109 76.207 21.1823C76.207 20.8014 76.4749 20.649 76.9214 20.649C77.2785 20.649 77.5464 20.7252 77.5464 21.03V21.1823V21.2585H78.2608V21.1823C78.2608 20.8014 78.1715 20.5728 77.9929 20.4205C77.8143 20.2681 77.4572 20.1919 76.9214 20.1919C76.4749 20.1919 76.207 20.2681 75.9391 20.3443C75.6712 20.4967 75.4926 20.7252 75.4926 21.1062C75.4926 21.4871 75.6712 21.7157 75.9391 21.868L76.4749 22.0966L77.0107 22.3252C77.1893 22.4013 77.3679 22.4775 77.4572 22.5537C77.6357 22.7061 77.725 22.8585 77.725 23.0108C77.725 23.3156 77.5464 23.468 77.2785 23.5442C77.1893 23.6203 77.1 23.6203 76.9214 23.6203C76.4749 23.6203 76.2963 23.468 76.207 23.2394C76.1177 23.1632 76.1177 23.0108 76.1177 22.9347ZM78.887 21.4109C78.887 21.1061 78.887 20.8776 78.9763 20.7252C79.0656 20.4966 79.2442 20.3443 79.6014 20.2681C79.8693 20.1919 80.0479 20.1919 80.4051 20.1919C80.673 20.1919 80.9409 20.1919 81.2088 20.2681C81.566 20.3443 81.7446 20.4966 81.8339 20.7252V21.4109V22.6299V23.1632C81.7446 23.6203 81.2981 23.8488 80.4051 23.8488C79.78 23.8488 79.3335 23.7726 79.1549 23.5441C78.9763 23.3917 78.887 23.087 78.887 22.6299V21.4109ZM79.6014 22.6299C79.6014 22.9346 79.6014 23.1632 79.6907 23.2393L79.9586 23.4679C80.1372 23.5441 80.2265 23.5441 80.4051 23.5441C80.4944 23.5441 80.673 23.5441 80.7623 23.4679C81.0302 23.3917 81.1195 23.2393 81.1195 23.087V22.706V21.4109C81.1195 21.1823 81.1195 20.9538 81.0302 20.8776C80.9409 20.7252 80.673 20.649 80.3158 20.649C80.2265 20.649 80.0479 20.649 79.9586 20.7252C79.6907 20.8014 79.6014 20.9538 79.6014 21.1823V21.4871V22.6299ZM83.1705 20.2681H82.4561V22.6299V23.087C82.4724 23.1288 82.4858 23.1656 82.4978 23.1987L82.4979 23.1988C82.5514 23.3461 82.5782 23.4197 82.724 23.5441C82.9919 23.7726 83.4384 23.8488 83.9742 23.8488C84.51 23.8488 84.8672 23.7726 85.1351 23.5441C85.3137 23.3917 85.403 23.2393 85.403 23.087V22.6299V20.1919H84.5993V22.6299V23.0108C84.5993 23.3917 84.3314 23.5441 83.8849 23.5441C83.4384 23.5441 83.1705 23.3917 83.1705 23.0108V22.706V20.2681ZM87.2805 20.266H87.727H88.1735C88.7093 20.3422 88.9772 20.6469 88.9772 21.104C88.9772 21.3326 88.8879 21.5611 88.7986 21.7135C88.62 21.8659 88.4414 21.9421 87.9949 22.0182C88.1647 22.0182 88.2987 22.0489 88.3967 22.0713C88.4534 22.0842 88.498 22.0944 88.5307 22.0944C88.7093 22.1706 88.7986 22.2468 88.7986 22.3992C88.7986 22.4754 88.7986 22.6277 88.8879 22.7039V23.161C88.8879 23.3134 88.8879 23.4658 88.9772 23.542C88.9772 23.6943 88.9772 23.7705 89.0665 23.8467H88.3521L88.2628 23.6181V23.3896V23.0848V22.7801C88.2628 22.5515 88.0842 22.3992 87.8163 22.323H87.4591H86.9233V23.9229H86.2089V20.3422L87.2805 20.266ZM86.834 20.6469V21.7897H87.3698H87.727C87.9056 21.7897 88.0842 21.7135 88.1735 21.5611C88.2628 21.4849 88.2628 21.3326 88.2628 21.1802C88.2628 20.9516 88.1735 20.8755 87.9949 20.7993C87.9056 20.7231 87.6377 20.7231 87.3698 20.7231L86.834 20.6469ZM91.0289 20.649C91.4754 20.649 91.654 20.8014 91.654 21.1062V21.2585V21.3347H92.2791V21.1823V20.8776C92.1898 20.4205 91.7433 20.1919 90.9396 20.1919C90.3145 20.1919 89.9573 20.3443 89.6894 20.5728C89.6001 20.649 89.5108 20.8014 89.5108 20.9538V21.4109V22.9347C89.5108 23.468 89.7787 23.8489 90.4038 23.9251C90.5824 24.0013 90.761 24.0013 90.9396 24.0013C91.2075 24.0013 91.3861 24.0013 91.5647 23.9251C91.7433 23.9251 91.9219 23.8489 92.0112 23.7727C92.2791 23.6203 92.3684 23.468 92.3684 23.1632V22.9347V22.7823H91.654V22.9347V23.1632C91.654 23.468 91.3861 23.6203 91.0289 23.6203C90.761 23.6203 90.4931 23.5442 90.4038 23.3918C90.3145 23.3156 90.3145 23.087 90.3145 22.8585V21.4109V21.1062C90.3145 21.03 90.3145 20.9538 90.4038 20.8776C90.4931 20.7252 90.6717 20.649 91.0289 20.649ZM92.9945 20.266H95.3164V20.6469H93.7089V21.7897H95.2271V22.1706H93.7089V23.3896H95.4057V23.7705H92.9945V20.266ZM97.3747 20.7252C97.2854 20.8776 97.2854 21.1061 97.2854 21.4109V22.7061C97.2854 23.1632 97.3747 23.4679 97.5533 23.6203C97.7319 23.8489 98.1784 23.9251 98.8035 23.9251C99.6965 23.9251 100.143 23.6965 100.322 23.1632V22.6299V21.4109C100.322 21.1061 100.322 20.8776 100.232 20.7252C100.143 20.4967 99.9644 20.3443 99.6072 20.2681C99.3393 20.1919 99.0714 20.1919 98.8035 20.1919C98.4463 20.1919 98.2677 20.1919 97.9998 20.2681C97.6426 20.3443 97.464 20.4967 97.3747 20.7252ZM98.0891 23.2394C97.9998 23.1632 97.9998 22.9346 97.9998 22.6299L98.0891 21.4871V21.1823C98.0891 20.9538 98.1784 20.8014 98.4463 20.7252C98.5356 20.649 98.7142 20.649 98.8035 20.649C99.0714 20.649 99.3393 20.7252 99.4286 20.8776C99.5179 20.9538 99.5179 21.1823 99.5179 21.4109V22.7061V23.087C99.5179 23.2394 99.4286 23.3917 99.1607 23.4679C99.0714 23.5441 98.8928 23.5441 98.8035 23.5441C98.6249 23.5441 98.5356 23.5441 98.357 23.4679L98.0891 23.2394ZM103.173 20.266V20.6469H101.566V21.7897H103.084V22.1706H101.566V23.8467H100.852V20.266H103.173ZM105.587 22.9347V22.7061L104.873 22.7823V22.9347V23.2394C104.873 23.468 105.051 23.6965 105.319 23.8489C105.498 23.9251 105.855 24.0013 106.301 24.0013C107.284 24.0013 107.82 23.6965 107.82 23.0108C107.82 22.6299 107.641 22.3252 107.284 22.1728C107.194 22.0966 107.016 22.0204 106.748 21.9442C106.48 21.868 106.301 21.7918 106.123 21.7157C105.855 21.5633 105.676 21.4109 105.676 21.1823C105.676 20.8014 105.944 20.649 106.391 20.649C106.837 20.649 107.016 20.7252 107.016 21.03V21.1823V21.2585H107.73V21.1823C107.73 20.8014 107.641 20.5728 107.462 20.4205C107.284 20.2681 106.927 20.1919 106.391 20.1919C105.944 20.1919 105.676 20.2681 105.408 20.3443C105.141 20.4967 104.962 20.7252 104.962 21.1062C104.962 21.4871 105.141 21.7157 105.408 21.868L105.944 22.0966L106.48 22.3252C106.659 22.4013 106.837 22.4775 106.927 22.5537C107.105 22.7061 107.194 22.8585 107.194 23.0108C107.194 23.3156 107.016 23.468 106.748 23.5442C106.569 23.6203 106.48 23.6203 106.301 23.6203C105.855 23.6203 105.676 23.468 105.587 23.2394V22.9347ZM108.351 20.2681H109.065V22.706V23.0108C109.065 23.3917 109.333 23.5441 109.78 23.5441C110.226 23.5441 110.494 23.3917 110.494 23.0108V22.6299V20.1919H111.298V22.6299V23.087C111.298 23.2393 111.208 23.3917 111.03 23.5441C110.762 23.7726 110.405 23.8488 109.869 23.8488C109.333 23.8488 108.887 23.7726 108.619 23.5441C108.473 23.4197 108.446 23.3461 108.393 23.1988C108.381 23.1657 108.367 23.1289 108.351 23.087V22.6299V20.2681ZM113.533 20.649C113.979 20.649 114.158 20.8014 114.158 21.1062V21.2585L114.068 21.3347H114.783V21.1823V20.8776C114.694 20.4205 114.247 20.1919 113.443 20.1919C112.818 20.1919 112.461 20.3443 112.193 20.5728C112.104 20.649 112.015 20.8014 112.015 20.9538V21.4109V22.9347C112.015 23.468 112.282 23.8489 112.908 23.9251C113.086 24.0013 113.265 24.0013 113.443 24.0013C113.711 24.0013 113.89 24.0013 114.068 23.9251C114.247 23.9251 114.426 23.8489 114.515 23.7727C114.783 23.6203 114.872 23.468 114.872 23.1632V22.9347V22.7823H114.158V22.9347V23.1632C114.158 23.468 113.89 23.6203 113.533 23.6203C113.265 23.6203 112.997 23.5442 112.908 23.3918C112.818 23.3156 112.818 23.087 112.818 22.8585V21.4109V21.1062C112.818 21.03 112.818 20.9538 112.908 20.8776C112.997 20.7252 113.175 20.649 113.533 20.649ZM117.551 21.1062C117.551 20.8014 117.373 20.649 116.926 20.649C116.569 20.649 116.391 20.7252 116.301 20.8776C116.212 20.9538 116.212 21.03 116.212 21.1062V21.4109V22.8585C116.212 23.087 116.212 23.3156 116.301 23.3918C116.391 23.5442 116.658 23.6203 116.926 23.6203C117.284 23.6203 117.551 23.468 117.551 23.1632V22.9347V22.7823H118.266V22.9347V23.1632C118.266 23.468 118.177 23.6203 117.909 23.7727C117.819 23.8489 117.641 23.9251 117.462 23.9251C117.284 24.0013 117.105 24.0013 116.837 24.0013C116.658 24.0013 116.48 24.0013 116.301 23.9251C115.676 23.8489 115.408 23.468 115.408 22.9347V21.4109V20.9538C115.408 20.8014 115.498 20.649 115.587 20.5728C115.855 20.3443 116.212 20.1919 116.837 20.1919C117.641 20.1919 118.087 20.4205 118.177 20.8776V21.1823V21.3347H117.551V21.2585V21.1062ZM121.215 20.266H118.893V23.7705H121.304V23.3896H119.607V22.1706H121.125V21.7897H119.607V20.6469H121.215V20.266ZM122.372 22.7061V22.9347C122.372 23.0108 122.372 23.1632 122.461 23.2394C122.55 23.468 122.729 23.6203 123.176 23.6203C123.354 23.6203 123.443 23.6203 123.622 23.5442C123.89 23.468 124.069 23.3156 124.069 23.0108C124.069 22.8585 123.979 22.7061 123.801 22.5537C123.711 22.4775 123.533 22.4013 123.354 22.3252L122.818 22.0966L122.283 21.868C122.015 21.7157 121.836 21.4871 121.836 21.1062C121.836 20.7252 122.015 20.4967 122.283 20.3443C122.55 20.2681 122.818 20.1919 123.265 20.1919C123.801 20.1919 124.158 20.2681 124.337 20.4205C124.515 20.5728 124.604 20.8014 124.604 21.1823V21.2585H123.89V21.1823V21.03C123.89 20.7252 123.622 20.649 123.265 20.649C122.818 20.649 122.55 20.8014 122.55 21.1823C122.55 21.4109 122.729 21.5633 122.997 21.7157C123.176 21.7918 123.354 21.868 123.622 21.9442C123.89 22.0204 124.069 22.0966 124.158 22.1728C124.515 22.3252 124.694 22.6299 124.694 23.0108C124.694 23.6965 124.158 24.0013 123.176 24.0013C122.729 24.0013 122.372 23.9251 122.193 23.8489C121.925 23.6965 121.747 23.468 121.747 23.2394V22.9347V22.7823L122.372 22.7061ZM125.677 22.9347V22.7061L124.873 22.7823V22.9347V23.2394C124.873 23.468 125.052 23.6965 125.32 23.8489C125.498 23.9251 125.856 24.0013 126.302 24.0013C127.284 24.0013 127.82 23.6965 127.82 23.0108C127.82 22.6299 127.642 22.3252 127.284 22.1728C127.195 22.0966 127.016 22.0204 126.749 21.9442C126.481 21.868 126.302 21.7918 126.123 21.7157C125.856 21.5633 125.677 21.4109 125.677 21.1823C125.677 20.8014 125.945 20.649 126.391 20.649C126.749 20.649 127.016 20.7252 127.016 21.03V21.1823V21.2585H127.731V21.1823C127.731 20.8014 127.642 20.5728 127.463 20.4205C127.284 20.2681 126.927 20.1919 126.391 20.1919C125.945 20.1919 125.677 20.2681 125.409 20.3443C125.141 20.4967 124.963 20.7252 124.963 21.1062C124.963 21.4871 125.141 21.7157 125.409 21.868L125.945 22.0966L126.481 22.3252C126.659 22.4013 126.838 22.4775 126.927 22.5537C127.106 22.7061 127.195 22.8585 127.195 23.0108C127.195 23.3156 127.016 23.468 126.749 23.5442C126.659 23.6203 126.57 23.6203 126.391 23.6203C125.945 23.6203 125.766 23.468 125.677 23.2394V22.9347Z" fill="white"/>
</svg>
