<svg xmlns="http://www.w3.org/2000/svg" width="42" height="34" fill="none"><g clip-path="url(#a)"><path fill="#fff" fill-rule="evenodd" d="M29.902 25.094c-.019.082-.132 1.26-.257 2.621-.125 1.36-.295 3.236-.376 4.17l-.048.523v.001c-.118 1.292-.126 1.389-.115 1.495.012.119 3.135.119 3.172 0 .013-.038.126-1.192.251-2.552.12-1.36.295-3.242.383-4.17l.086-.974c.045-.503.08-.882.083-.97l.013-.25-1.58-.02-1.587-.012-.025.138ZM.658 25.006c-.063.044-.075.985-.063 4.502l.02 4.446h3.197l.031-3.768c.032-3.537.038-3.781.144-3.9a.547.547 0 0 1 .621-.132l.018.007c.05.02.092.037.128.063.218.154.218.617.218 3.863v3.899l1.586-.013 1.58-.019v-1.38c0-1.36 0-1.385-.169-1.736-.301-.64-.922-1.167-1.511-1.273-.351-.07-.332-.138.056-.176.452-.044.972-.3 1.217-.595.313-.383.407-.76.407-1.643 0-.69-.019-.822-.15-1.116a1.645 1.645 0 0 0-.94-.86c-.164-.05-.571-.118-.916-.156-.753-.069-5.361-.081-5.474-.013ZM10.653.233l.144-.113c.138-.113.332-.119 3.668-.119 2.727 0 3.549.019 3.624.075.063.05.27.684.508 1.555.226.81.652 2.339.947 3.405.294 1.06.539 1.956.539 1.988 0 .037-.376.062-.947.062h-.947l.038.213a97 97 0 0 0 .596 2.208c.852 3.053 1.26 4.54 1.26 4.602 0 .037-.389.063-.96.063h-.965l.364 1.297.15.542c.224.803.55 1.973.809 2.913.332 1.185.602 2.182.602 2.214 0 .094-7.43.075-7.512-.025-.031-.038-.357-1.148-.72-2.458l-.16-.569c-.99-3.557-1.036-3.722-.973-3.796l.01-.01.012-.014c.063-.076.251-.094.954-.094.802 0 .871-.007.84-.113-.025-.078-.105-.37-.377-1.352l-.288-1.043-.243-.876-.001-.006v-.001l-.003-.008-.001-.005-.435-1.569a55.172 55.172 0 0 1-.508-1.856c0-.031.044-.106.1-.156.075-.082.257-.1.94-.1.778 0 .847-.007.816-.114-.036-.115-.413-1.469-.838-2.992V3.98l-.523-1.871-.52-1.875Zm12.063 1.335c.377-1.366.42-1.492.552-1.523.063-.019 1.674-.032 3.593-.038 3.31-.006 3.499 0 3.637.113l.144.113-.52 1.875-.698 2.497-.002.01c-.4 1.436-.636 2.278-.661 2.358-.031.107.038.113.815.113.683 0 .865.02.94.1.057.05.1.126.1.157 0 .032-.225.866-.507 1.856l-.071.258a1735.041 1735.041 0 0 1-1.277 4.602c-.031.106.038.113.84.113.715 0 .89.018.953.1.07.075.038.25-.175 1.016-.092.335-.306 1.104-.548 1.97v.004l-.002.006-.002.004-.376 1.351c-.364 1.33-.696 2.452-.728 2.49-.05.062-.884.081-3.793.081H21.2l.037-.175c.037-.145.802-2.897 1.636-5.894l.264-.954h-.96c-.62 0-.965-.024-.965-.062 0-.07.25-.978 1.254-4.577a63.13 63.13 0 0 0 .595-2.214l.044-.232h-.947c-.583 0-.946-.025-.946-.062 0-.032.263-1.016.589-2.176l.396-1.422v-.002l.001-.001c.21-.757.407-1.462.518-1.855ZM9.424 30.6V24.956l3.154.013 3.147.019.019 1.11.013 1.116H11.68v1.128l2.025.013 2.02.018.018 1.11.013 1.116H9.424Zm7.587-4.514v1.128h6.332l-.012-1.116-.019-1.11-3.148-.018-3.153-.013v1.129Zm7.674.175c-.056-.614-.087-1.16-.062-1.21.03-.081.238-.094 1.586-.081l1.555.019.044.345.005.054c.03.295.134 1.334.233 2.422l.376 4.1c.1 1.086.17 1.995.15 2.026-.018.025-.733.05-1.592.05h-1.555l-.038-.238c-.018-.125-.062-.57-.1-.984-.037-.414-.138-1.518-.226-2.446-.077-.822-.159-1.727-.199-2.167v-.001l-.014-.152-.018-.204c-.036-.395-.092-1.025-.145-1.532Zm9.669-.545c.357-.414.803-.596 1.705-.69.264-.031.947-.056 1.518-.056 2.357-.019 3.241.244 3.668 1.078l.188.377v2.947c0 2.68 0 3.238-.26 3.62-.068.101-.155.19-.264.302l-.003.003c-.35.363-.79.539-1.561.627-.652.075-2.684.075-3.31.006-1.004-.12-1.587-.445-1.882-1.053l-.182-.364-.018-2.972c-.02-3.317-.02-3.33.4-3.825Zm3.9 3.875c.019-3.198.013-3.248-.307-3.411-.264-.138-.42-.113-.627.088l-.182.182v3.034c.006 2.283.025 3.054.081 3.13a.572.572 0 0 0 .84.093l.176-.15.019-2.966ZM17.01 33.985h6.332l-.012-1.116-.019-1.11-2.05-.018-2.057-.013V30.6H23.344l-.013-1.116-.019-1.11-3.148-.018-3.153-.013V33.985Zm-7.587 0V31.728l3.154.013 3.147.018.019 1.11.013 1.116H9.424Z" clip-rule="evenodd"/></g><defs><clipPath id="a"><path fill="#fff" d="M.567.001h40.866v34H.567z"/></clipPath></defs></svg>