<svg width="106" height="28" viewBox="0 0 106 28" fill="none" xmlns="http://www.w3.org/2000/svg">
<path d="M12.9515 15.1614C12.7529 15.124 12.6878 15.2 12.7562 15.3897L14.4408 19.9867C14.4449 19.9987 14.4463 20.0113 14.4446 20.0237C14.443 20.036 14.4384 20.048 14.4313 20.0583C14.4282 20.0627 14.4246 20.067 14.4205 20.0709C14.4155 20.0756 14.4099 20.0796 14.4038 20.083C14.3927 20.089 14.3805 20.0924 14.3679 20.0927H12.9217C12.8709 20.0927 12.8367 20.0685 12.8191 20.0198C12.1903 18.3696 11.632 16.771 11.1444 15.2244C11.0452 14.911 11.022 14.5822 11.0749 14.2381C11.0926 14.13 11.1555 14.076 11.2636 14.076L12.3988 14.0792C12.4637 14.0792 12.526 14.0533 12.5719 14.0074C12.5993 13.98 12.6196 13.9467 12.6315 13.9104C12.6395 13.886 12.6437 13.8604 12.6437 13.8343L12.6337 10.7697C12.6337 10.7511 12.6302 10.733 12.6235 10.7161C12.6163 10.6979 12.6053 10.6811 12.5911 10.6667C12.5638 10.6394 12.5267 10.624 12.4881 10.624L10.7274 10.6341C10.6787 10.6341 10.6409 10.645 10.6141 10.667C10.5815 10.6939 10.5653 10.7368 10.5653 10.7962L10.5686 19.904C10.5686 19.9277 10.5638 19.9512 10.5547 19.9732C10.5455 19.995 10.532 20.0149 10.5151 20.0316C10.4981 20.0482 10.478 20.0613 10.456 20.0702C10.4444 20.0747 10.4325 20.0781 10.4203 20.0803C10.4092 20.0822 10.3979 20.083 10.3865 20.0828L9.17192 20.0762C9.05721 20.0762 8.99982 20.0198 8.99982 19.9074L8.99323 9.50207C8.99323 9.363 9.06271 9.29357 9.20172 9.29357H13.2328C13.8858 9.29357 14.2102 9.6202 14.2058 10.2732C14.197 11.5197 14.1947 12.8337 14.1991 14.2148C14.2025 14.9431 13.6928 15.2972 12.9515 15.1614Z" fill="white"/>
<path d="M16.7045 10.859L16.7111 12.7421L16.7045 18.4875C16.7045 18.6552 16.7883 18.7391 16.956 18.7391H18.6009C18.7774 18.7391 18.8656 18.6509 18.8656 18.4745L18.869 15.8962C18.869 15.7241 18.7818 15.6403 18.6075 15.6446L17.9158 15.6645C17.7702 15.6689 17.6974 15.5984 17.6974 15.4528V14.5756C17.6974 14.4058 17.7812 14.3208 17.9489 14.3208L20.1862 14.3242C20.3561 14.3242 20.441 14.4092 20.441 14.579L20.4377 19.2256C20.4377 19.4511 20.3481 19.6675 20.1886 19.8271C20.0291 19.9865 19.8127 20.0762 19.5871 20.0762L16.0393 20.0828C15.8023 20.0828 15.575 19.989 15.4074 19.822C15.2398 19.6552 15.1457 19.4287 15.1457 19.1924L15.149 10.2566C15.149 9.61465 15.47 9.29357 16.1121 9.29357H19.607C19.825 9.29357 20.0343 9.37923 20.1897 9.53219C20.3451 9.68514 20.4342 9.893 20.4377 10.1111L20.4774 12.3682C20.4776 12.3823 20.4764 12.3964 20.4736 12.4101C20.4713 12.4221 20.4678 12.4338 20.4632 12.4452C20.4534 12.4697 20.4389 12.4919 20.4204 12.5107C20.4019 12.5295 20.3799 12.5445 20.3556 12.5545C20.3313 12.5648 20.3052 12.5701 20.2788 12.5701L19.0113 12.5733C18.9031 12.5733 18.8502 12.5193 18.8524 12.4112L18.8789 10.8293C18.8793 10.8015 18.8742 10.7742 18.864 10.7483C18.8537 10.7227 18.8384 10.6994 18.819 10.6796C18.7996 10.6599 18.7765 10.6443 18.7509 10.6336L18.7372 10.6283L18.7218 10.6238C18.705 10.6195 18.6878 10.6174 18.6704 10.6174H16.9494C16.7861 10.6153 16.7045 10.6958 16.7045 10.859Z" fill="white"/>
<path fill-rule="evenodd" clip-rule="evenodd" d="M27.3149 15.6313C25.6867 18.4621 25.0413 21.4994 25.3789 24.7426C25.3921 24.8706 25.3535 24.981 25.263 25.0737C24.0782 26.2585 22.7367 27.2193 21.2386 27.9563C21.2184 27.9662 21.1981 27.9743 21.1778 27.9805C21.0939 28.0065 21.0094 28.0018 20.9242 27.9662C16.7872 26.1835 12.6657 26.1824 8.55965 27.963C8.43831 28.0157 8.31916 28.0136 8.20223 27.9563C6.78572 27.2591 5.50826 26.3676 4.36975 25.2822C4.26825 25.185 4.22633 25.0658 4.24398 24.9246C4.68746 21.2578 3.88434 17.8919 1.83463 14.8273L0.189783 12.8348C0.105936 12.7331 0.0739457 12.6173 0.0938127 12.4872C0.354166 10.9075 0.85279 9.42922 1.58974 8.05242C1.60098 8.03084 1.6135 8.01076 1.62731 7.99218C1.64266 7.97167 1.65962 7.95308 1.67818 7.93642C1.72472 7.89455 1.7813 7.86486 1.84787 7.84713C6.05321 6.76598 9.24255 4.35673 11.4158 0.619181C11.4798 0.506602 11.5758 0.433756 11.7038 0.400645C13.7469 -0.124441 15.7182 -0.132132 17.6179 0.377573C17.7328 0.409403 17.8311 0.483958 17.8926 0.58607C20.1189 4.41185 23.3633 6.84331 27.6261 7.88024C27.682 7.89391 27.7309 7.91677 27.7727 7.94881C27.8183 7.98363 27.8554 8.02913 27.8842 8.08553C28.641 9.53945 29.1341 11.0829 29.3636 12.7156C29.3709 12.7658 29.368 12.8171 29.3549 12.8664C29.3418 12.916 29.3189 12.9626 29.2875 13.0036L27.3149 15.6313ZM25.5311 15.3863C25.6525 12.0062 24.5614 9.22735 22.258 7.04967C18.5843 3.58107 12.9018 2.98869 8.72516 5.83501C5.58326 7.97509 3.97591 10.9923 3.90312 14.8867C4.09949 18.8669 5.88333 21.8777 9.25467 23.9186C11.3529 25.1871 13.5891 25.687 15.9631 25.4179C21.1923 24.8255 25.1174 20.6353 25.5311 15.3863Z" fill="white"/>
<path d="M72.7919 2.0135L72.8138 9.56914L72.7657 18.0389C72.7628 18.2286 72.8561 18.3234 73.0457 18.3234H79.1619L79.1757 18.3228C79.1811 18.3224 79.1865 18.3215 79.1917 18.3204C79.2025 18.3185 79.2131 18.3153 79.2233 18.311L79.2328 18.3065L79.2373 18.304L79.2465 18.2989C79.2568 18.2922 79.2663 18.2843 79.2749 18.2756C79.2896 18.2606 79.3011 18.2427 79.3088 18.223C79.3164 18.2034 79.32 18.1824 79.3195 18.1615L79.2713 16.184C79.2702 16.1558 79.2582 16.1291 79.2378 16.1094C79.2337 16.1054 79.2293 16.102 79.2247 16.0988C79.221 16.096 79.2171 16.0936 79.213 16.0915C79.2043 16.087 79.195 16.0836 79.1853 16.0814C79.1777 16.0797 79.1699 16.0789 79.1619 16.0789H75.4563C75.3105 16.0789 75.2376 16.0045 75.2376 15.8559L75.2332 9.46831L75.2638 2.06157C75.2638 1.98701 75.2349 1.91523 75.1834 1.86204C75.1318 1.80885 75.0617 1.77852 74.9882 1.77723L73.0588 1.75096C72.878 1.74818 72.789 1.83555 72.7919 2.0135Z" fill="white"/>
<path d="M43.0681 1.77253L36.4006 1.7595V18.2534L38.7719 18.2621C38.909 18.2649 38.9775 18.1978 38.9775 18.0607L38.9557 4.08266C38.9557 3.98631 39.0038 3.93825 39.1 3.93825L41.9744 3.9077C42.0104 3.9077 42.0449 3.92201 42.0703 3.94743C42.0837 3.96089 42.094 3.9767 42.1008 3.994C42.1068 4.0096 42.11 4.02626 42.11 4.04335L42.1581 8.89944C42.1611 9.04833 42.0882 9.12267 41.9394 9.12267H40.0232C39.8598 9.12267 39.7621 9.20278 39.73 9.36321C39.6133 9.95837 39.625 10.4497 39.765 10.8376C40.6604 13.3227 41.5384 15.7873 42.3988 18.2314C42.4221 18.2927 42.4673 18.3232 42.5344 18.3232L44.9625 18.3189C45.0198 18.3189 45.051 18.3004 45.0561 18.2628C45.0586 18.2448 45.0551 18.2226 45.0457 18.1963L42.4557 11.2621C42.3711 11.0374 42.4498 10.9252 42.6919 10.9252C43.9723 10.931 44.6082 10.4367 44.5994 9.44204C44.5819 7.35942 44.579 5.31484 44.5906 3.30827C44.5965 2.28459 44.089 1.77253 43.0681 1.77253Z" fill="white"/>
<path d="M57.9563 12.4654L59.6494 1.87785C59.6528 1.85734 59.6588 1.83982 59.6672 1.8253C59.6875 1.79048 59.7224 1.77296 59.7719 1.77296L62.1038 1.78172C62.1103 1.78193 62.1167 1.783 62.1229 1.78492C62.1274 1.78621 62.1318 1.78791 62.136 1.79005L62.1405 1.79261L62.1481 1.79774L62.1519 1.80095L62.1563 1.80522L62.1619 1.81184C62.1652 1.81611 62.1682 1.82081 62.1706 1.82573C62.1733 1.83128 62.1754 1.83705 62.1768 1.84303C62.1786 1.85029 62.1794 1.85777 62.1793 1.86503C62.1793 1.8693 62.1789 1.87358 62.1782 1.87785L59.0938 18.0481C59.0588 18.2318 58.9479 18.3236 58.7613 18.3236H56.8363C56.6321 18.3236 56.5111 18.223 56.4732 18.0218L53.3713 1.8693C53.3694 1.8567 53.3702 1.84388 53.3738 1.83171L53.3764 1.82402L53.3816 1.81312L53.3855 1.80671L53.3918 1.7986C53.4001 1.78898 53.4104 1.78151 53.422 1.77617C53.4272 1.77382 53.4327 1.77211 53.4383 1.77082C53.445 1.76933 53.4519 1.76847 53.4588 1.76847L55.76 1.7642C55.796 1.7642 55.8266 1.7704 55.8517 1.78279C55.8978 1.80543 55.9256 1.8488 55.935 1.91288L57.5975 12.4654C57.7171 13.2208 57.8367 13.2208 57.9563 12.4654Z" fill="white"/>
<path fill-rule="evenodd" clip-rule="evenodd" d="M71.3963 3.23414V11.0348L71.3876 16.906C71.3876 17.8511 70.9151 18.3236 69.9701 18.3236H64.2301C63.9017 18.3236 63.5868 18.1927 63.3546 17.9596C63.1224 17.7266 62.9919 17.4106 62.9919 17.081L63.0138 8.65484L62.9919 3.06795C62.9908 2.72337 63.127 2.39247 63.3707 2.14787C63.6144 1.90348 63.9455 1.76527 64.2913 1.7642H69.9263C70.9063 1.7642 71.3963 2.25425 71.3963 3.23414ZM65.4769 15.9567L65.4901 9.59542L65.455 4.17045C65.455 4.10744 65.4798 4.04677 65.524 4.00191C65.5682 3.95683 65.6282 3.93098 65.6913 3.92992L68.71 3.88164C68.8909 3.87886 68.9828 3.96922 68.9857 4.15294L69.0076 15.9567C69.0082 15.9887 69.0024 16.0204 68.9905 16.05C68.9844 16.0656 68.9766 16.0804 68.9675 16.0941C68.9591 16.1069 68.9494 16.1188 68.9387 16.1297C68.9252 16.1434 68.9103 16.1554 68.8941 16.1654C68.8833 16.172 68.8719 16.178 68.8601 16.1829C68.8455 16.1891 68.8305 16.1938 68.8151 16.1968C68.8079 16.1983 68.8006 16.1994 68.7932 16.2002C68.7845 16.2013 68.7757 16.2017 68.767 16.2017L65.7132 16.1974C65.5557 16.1974 65.4769 16.1171 65.4769 15.9567Z" fill="white"/>
<path d="M88.2795 1.77296L85.9869 1.78151C85.9731 1.78172 85.9594 1.78407 85.9464 1.78834C85.9286 1.79411 85.912 1.80351 85.8977 1.81611C85.8729 1.83769 85.8565 1.86717 85.8513 1.89964L84.1757 12.9117C84.1699 12.944 84.1529 12.9732 84.1277 12.9944C84.1025 13.0153 84.0707 13.0271 84.0379 13.0271C84.0259 13.0271 84.014 13.0256 84.0026 13.0226L83.9895 13.0183C83.9839 13.0162 83.9784 13.0138 83.9731 13.011C83.9642 13.0063 83.9558 13.0008 83.948 12.9944C83.9228 12.9732 83.9058 12.944 83.9001 12.9117L82.1894 1.89964C82.1843 1.86717 82.1679 1.83769 82.1431 1.81611C82.1183 1.79432 82.0867 1.78215 82.0538 1.78151L79.7657 1.75096C79.7449 1.75053 79.7243 1.7548 79.7053 1.76356L79.6931 1.76976L79.6841 1.77552L79.6749 1.78236C79.6681 1.78791 79.6618 1.79411 79.6561 1.80073C79.6427 1.81675 79.633 1.83534 79.6277 1.85563C79.6225 1.87571 79.6218 1.89686 79.6257 1.91716L82.7538 18.2098C82.76 18.2422 82.7774 18.2713 82.8031 18.2922C82.818 18.3044 82.8352 18.3132 82.8535 18.3183C82.8665 18.3219 82.8801 18.3236 82.8938 18.3234L85.1732 18.3016C85.1885 18.3014 85.2036 18.2986 85.2179 18.2937C85.2336 18.2882 85.2483 18.2798 85.2613 18.269C85.286 18.2482 85.3028 18.2196 85.3088 18.1878L88.4195 1.93916C88.4216 1.92784 88.4224 1.91652 88.4217 1.90519C88.4212 1.89579 88.4198 1.88639 88.4174 1.87742C88.4121 1.85734 88.4024 1.83854 88.389 1.82274C88.3756 1.80671 88.3588 1.7939 88.3399 1.78535L88.3315 1.78193C88.3281 1.78044 88.3246 1.77937 88.3211 1.7783C88.3168 1.77702 88.3124 1.77617 88.308 1.77531C88.2986 1.7736 88.289 1.77275 88.2795 1.77296Z" fill="white"/>
<path d="M91.7357 10.8684L95.2357 10.9252C95.4165 10.9282 95.507 10.8393 95.507 10.6584L95.4982 9.03979C95.4982 9.02932 95.4977 9.01885 95.4965 9.0086C95.4948 8.99279 95.4917 8.97719 95.4874 8.96181C95.4843 8.95092 95.4805 8.94024 95.4762 8.92977C95.4708 8.91695 95.4645 8.90456 95.4573 8.89281L95.4473 8.87722L95.4383 8.86483L95.4292 8.85393C95.4242 8.84816 95.4189 8.8424 95.4134 8.83706C95.3865 8.81057 95.3546 8.78963 95.3196 8.77575C95.2957 8.76613 95.2707 8.75994 95.2452 8.75695C95.2334 8.75567 95.2214 8.75502 95.2095 8.75524L91.9501 8.79903C91.9254 8.79903 91.9011 8.79519 91.8781 8.78771C91.8437 8.77681 91.8121 8.75802 91.7861 8.73238C91.7807 8.72704 91.7755 8.72149 91.7707 8.71572C91.7627 8.70611 91.7556 8.69606 91.7494 8.6856C91.744 8.67641 91.7393 8.6668 91.7352 8.65697C91.7297 8.64373 91.7255 8.63006 91.7226 8.61596C91.7197 8.60143 91.7182 8.58648 91.7182 8.57152L91.7532 4.25334C91.7532 4.10466 91.8276 4.03032 91.9763 4.03032L95.7913 4.04335C96.0072 4.04335 96.1151 3.93547 96.1151 3.71971L96.1195 2.22349C96.1195 2.17735 96.1114 2.13206 96.0959 2.08934C96.0869 2.06413 96.0753 2.03999 96.0613 2.01713C96.0447 1.99 96.0247 1.96479 96.0016 1.94194C95.9644 1.90519 95.9207 1.87635 95.8732 1.85649C95.8242 1.83598 95.7712 1.8253 95.717 1.8253L89.5438 1.85157C89.3863 1.85157 89.3061 1.93168 89.3032 2.09211L89.2857 9.98037L89.3032 18.0782C89.3032 18.2416 89.3849 18.3232 89.5482 18.3232H95.7651C96.0043 18.3232 96.1238 18.2038 96.1238 17.9645L96.1282 16.4027C96.1282 16.178 96.0159 16.0674 95.7913 16.0701L91.9807 16.0876C91.832 16.0876 91.7576 16.0133 91.7576 15.8646L91.7357 10.8684Z" fill="white"/>
<path d="M105.289 8.89965V3.01539C105.29 2.85325 105.259 2.69282 105.197 2.54286C105.164 2.46232 105.122 2.38563 105.073 2.31428C105.031 2.25255 104.983 2.19487 104.93 2.14167C104.815 2.02675 104.679 1.93531 104.529 1.87272C104.448 1.83897 104.364 1.81398 104.278 1.79795C104.205 1.7845 104.13 1.77745 104.056 1.77723L97.4845 1.75096C97.3007 1.75096 97.2088 1.84282 97.2088 2.02653L97.2132 18.1747C97.2132 18.2087 97.2264 18.2416 97.2501 18.266C97.2738 18.2905 97.306 18.3048 97.3401 18.3059L99.5714 18.3279C99.6413 18.3307 99.6763 18.2959 99.6763 18.2228L99.6676 4.06535C99.6676 3.96324 99.7186 3.91218 99.8207 3.91218L102.765 3.92543C102.78 3.92543 102.794 3.92821 102.807 3.93355C102.815 3.93654 102.822 3.94038 102.829 3.94487L102.838 3.95149L102.846 3.95875C102.867 3.9799 102.879 4.00896 102.879 4.03908L102.905 8.74669C102.961 9.00027 102.886 9.12438 102.682 9.11861C102.081 9.0981 101.464 9.0996 100.831 9.12288C100.804 9.12395 100.778 9.12737 100.751 9.13314C100.724 9.13912 100.697 9.14745 100.671 9.15813C100.619 9.17971 100.57 9.21068 100.529 9.24999C100.481 9.29506 100.444 9.34911 100.419 9.4085C100.41 9.42901 100.403 9.45016 100.398 9.47173C100.394 9.48433 100.392 9.49715 100.389 9.51018C100.388 9.52108 100.386 9.53197 100.385 9.54287C100.336 10.0622 100.394 10.555 100.56 11.0218C101.342 13.2326 102.188 15.6183 103.098 18.1792C103.111 18.2211 103.138 18.2574 103.174 18.2833C103.197 18.2997 103.223 18.3112 103.25 18.3177C103.266 18.3215 103.282 18.3236 103.299 18.3236H105.679C105.695 18.3239 105.71 18.3224 105.726 18.3194C105.742 18.3164 105.757 18.3115 105.772 18.3051C105.778 18.3023 105.785 18.2991 105.791 18.2954C105.814 18.2833 105.834 18.2675 105.851 18.2489C105.857 18.2414 105.864 18.2337 105.869 18.2254L105.876 18.2151C105.884 18.2019 105.891 18.188 105.897 18.1735C105.905 18.1508 105.91 18.1271 105.912 18.1028C105.914 18.0628 105.906 18.0229 105.889 17.9868C105.842 17.8874 105.791 17.7904 105.738 17.6947C105.722 17.6663 105.706 17.6383 105.69 17.6104L105.664 17.5657C105.632 17.5095 105.598 17.4538 105.565 17.3982L105.564 17.3963C105.408 17.1314 105.253 16.8699 105.154 16.5912C104.506 14.7623 103.824 12.9438 103.106 11.1354C103.1 11.1207 103.096 11.1051 103.094 11.0893C103.093 11.0778 103.093 11.066 103.094 11.0545C103.097 11.0267 103.107 11.0002 103.123 10.9771C103.129 10.9682 103.137 10.9598 103.144 10.9521C103.15 10.9468 103.156 10.9419 103.162 10.9374C103.17 10.9318 103.178 10.9267 103.186 10.9224C103.198 10.9163 103.211 10.9116 103.224 10.9083C103.233 10.9064 103.241 10.9049 103.25 10.9041C103.256 10.9036 103.262 10.9034 103.268 10.9036C104.554 10.9299 105.626 10.4967 105.289 8.89965Z" fill="white"/>
<path d="M48.4144 16.1622L48.4319 11.1572C48.4319 11.0113 48.5063 10.9385 48.655 10.9385L51.9232 10.934C52.0953 10.934 52.1798 10.8481 52.1769 10.6759L52.1463 9.02227C52.1434 8.83855 52.0515 8.74798 51.8707 8.75097L48.655 8.79903L48.6406 8.79882L48.6347 8.7986C48.6278 8.79818 48.6209 8.79754 48.614 8.79647C48.5938 8.79348 48.574 8.78814 48.5549 8.78045C48.5231 8.76742 48.4942 8.74819 48.4697 8.72384C48.458 8.71209 48.4475 8.69927 48.4382 8.6856C48.4324 8.67705 48.4271 8.66829 48.4223 8.65911C48.4188 8.65227 48.4156 8.64522 48.4126 8.63796C48.4049 8.61916 48.3993 8.59951 48.396 8.57943C48.3937 8.56533 48.3925 8.55101 48.3925 8.53649L48.4407 4.25334C48.4413 4.22044 48.4456 4.19118 48.4536 4.16576C48.4599 4.14546 48.4685 4.12752 48.4795 4.11192C48.4966 4.08757 48.5193 4.06898 48.5477 4.05617C48.5794 4.04185 48.6181 4.03459 48.6638 4.03459H52.6626C52.6987 4.03459 52.7236 4.02348 52.7374 4.00105C52.7416 3.99422 52.7449 3.9861 52.747 3.97691C52.749 3.96794 52.75 3.95811 52.75 3.94722L52.6975 1.96095C52.6975 1.88212 52.6582 1.84282 52.5794 1.84282H46.2225C46.033 1.84282 45.9396 1.93617 45.9425 2.12288L45.96 13.6378L45.9469 18.0696C45.9469 18.2388 46.0315 18.3234 46.2007 18.3234H52.6932C52.7183 18.3234 52.7429 18.3174 52.765 18.3065C52.7807 18.2989 52.7951 18.2886 52.8076 18.276C52.8227 18.2608 52.8346 18.2431 52.8426 18.2237C52.8507 18.2042 52.855 18.1831 52.855 18.1615L52.8463 16.2758C52.8463 16.1592 52.7865 16.1009 52.6669 16.1009L48.4144 16.1622Z" fill="white"/>
<path d="M82.6066 26.4697H82.2609C82.267 26.4565 82.2673 26.4411 82.2619 26.4234C82.2542 26.3982 82.235 26.3685 82.2041 26.3341C82.1457 26.27 82.118 26.1957 82.1209 26.1111C82.1413 24.9735 82.1545 23.839 82.1603 22.7072C82.1603 22.6636 82.1691 22.6213 82.1866 22.5805C82.2303 22.4754 82.3382 22.4229 82.5103 22.4229C82.5404 22.4231 82.5698 22.4297 82.5964 22.4427C82.6229 22.4555 82.6459 22.4743 82.6634 22.4972L84.4922 24.9385C84.5709 25.0436 84.6439 25.0378 84.7109 24.921C85.1164 24.2064 85.5772 23.5226 86.0935 22.8691C86.6651 22.1488 86.9524 22.2479 86.9553 23.1667L86.9685 26.1373C86.9681 26.1719 86.9604 26.2059 86.946 26.2373C86.9416 26.2469 86.9366 26.2561 86.9311 26.2649C86.9184 26.2852 86.9027 26.3035 86.8846 26.3193C86.8586 26.3422 86.828 26.3591 86.795 26.3691C86.7619 26.3792 86.7271 26.3822 86.6928 26.3779L86.4784 26.3516C86.4512 26.348 86.4251 26.3394 86.4013 26.3266C86.3758 26.3129 86.3529 26.2946 86.334 26.2719C86.2976 26.2281 86.2789 26.1724 86.2816 26.1153L86.4172 23.7661C86.4376 23.4393 86.3545 23.4102 86.1678 23.6785L84.7591 25.7086C84.6424 25.8778 84.5243 25.8791 84.4047 25.7129L82.9522 23.6916C82.9289 23.6591 82.9079 23.6343 82.889 23.617C82.8719 23.6012 82.8566 23.5916 82.843 23.5882C82.8183 23.5818 82.7996 23.5959 82.7869 23.6307C82.7775 23.6561 82.7714 23.6924 82.7684 23.7398L82.6066 26.4697Z" fill="white"/>
<path fill-rule="evenodd" clip-rule="evenodd" d="M78.9753 26.4695H79.3559L79.5047 26.3646C79.5543 26.3296 79.5842 26.2899 79.5944 26.2452C79.6009 26.2166 79.5993 26.186 79.5896 26.1536C79.5842 26.1356 79.5763 26.117 79.5659 26.0978L77.6278 22.6809C77.5796 22.597 77.5096 22.5277 77.4254 22.4801C77.3411 22.4327 77.2455 22.4088 77.1488 22.4111C77.0521 22.4132 76.9577 22.4417 76.8757 22.4929C76.7937 22.5442 76.7271 22.6166 76.6828 22.7027C76.0586 23.9161 75.4418 25.0697 74.8322 26.1634C74.7797 26.2595 74.8555 26.3616 75.0597 26.4695H75.2215C75.4257 26.2743 75.5993 26.022 75.7422 25.7127C75.8151 25.5552 75.9376 25.4764 76.1097 25.4764H78.2359C78.3146 25.4766 78.3917 25.4992 78.4583 25.542C78.5249 25.5845 78.5783 25.6454 78.6122 25.7171L78.9753 26.4695ZM76.2303 24.8283C76.2289 24.8028 76.2341 24.7774 76.2453 24.7546L77.0459 23.219C77.0586 23.1951 77.0775 23.1752 77.1006 23.1614C77.1238 23.1475 77.1502 23.1402 77.1772 23.1402C77.1898 23.1402 77.2023 23.1417 77.2144 23.1449C77.2282 23.1483 77.2414 23.1539 77.2537 23.1614C77.2685 23.1701 77.2815 23.1814 77.2923 23.1947C77.2984 23.2022 77.3038 23.2103 77.3084 23.219L78.1309 24.737C78.1429 24.7595 78.1489 24.7845 78.1484 24.8099C78.148 24.8351 78.1411 24.8599 78.1284 24.8819C78.1157 24.9037 78.0976 24.922 78.0758 24.9351C78.0541 24.9479 78.0294 24.9551 78.0041 24.9558L76.3809 24.969C76.3555 24.9692 76.3304 24.9633 76.308 24.9511C76.2856 24.9389 76.2667 24.9212 76.2531 24.8998C76.2395 24.8782 76.2316 24.8537 76.2303 24.8283Z" fill="white"/>
<path d="M68.4403 26.4697H71.7653C72.372 26.1984 72.5718 25.5319 72.3647 24.4702C72.3355 24.3128 72.2407 24.2312 72.0803 24.2252L70.4791 24.1641C70.3974 24.1611 70.3186 24.1756 70.2428 24.2077C70.1688 24.2414 70.1161 24.2803 70.0848 24.3247C70.0618 24.3572 70.0503 24.3927 70.0503 24.4309C70.0532 24.5971 70.1364 24.695 70.2997 24.724C70.6322 24.7881 70.9676 24.7853 71.3059 24.7153C71.6122 24.6539 71.7624 24.7781 71.7566 25.0872L71.7522 25.4721C71.7464 25.7434 71.6078 25.8791 71.3365 25.8791L68.9216 25.8616C68.8865 25.8609 68.8519 25.8536 68.8198 25.8398C68.7876 25.8261 68.7585 25.8062 68.7341 25.7814C68.7098 25.7567 68.6906 25.7274 68.6777 25.6954C68.6648 25.6633 68.6585 25.6291 68.659 25.5947L68.6634 23.3722C68.6634 23.2944 68.6939 23.2199 68.748 23.1648C68.8021 23.1099 68.8756 23.0791 68.9522 23.0791H71.2316C71.427 23.0791 71.5889 23.1549 71.7172 23.3066C71.793 23.3998 71.898 23.4568 72.0322 23.4771C72.2918 23.5151 72.4084 23.4042 72.3822 23.1447C72.3384 22.7465 71.9709 22.4622 71.5903 22.4534C70.587 22.4271 69.6464 22.4301 68.7684 22.4622C68.3222 22.4797 68.067 22.7087 68.0028 23.149C67.7782 24.6394 67.924 25.7464 68.4403 26.4697Z" fill="white"/>
<path d="M90.2978 22.4664H90.6216C90.7158 22.4664 90.7922 22.5429 90.7922 22.6371V26.207C90.7922 26.3012 90.7158 26.3777 90.6216 26.3777H90.2978C90.2036 26.3777 90.1272 26.3012 90.1272 26.207V22.6371C90.1272 22.5429 90.2036 22.4664 90.2978 22.4664Z" fill="white"/>
<path d="M98.2691 26.47H97.9891L94.8391 23.6087C94.6495 23.4365 94.5605 23.4788 94.5722 23.7356L94.6947 26.1899C94.6959 26.2125 94.6925 26.235 94.6847 26.2561C94.6819 26.2636 94.6786 26.2709 94.6749 26.2779C94.6679 26.2907 94.6593 26.3025 94.6492 26.3132C94.6337 26.3296 94.6149 26.3426 94.5942 26.3514C94.5734 26.3604 94.551 26.3648 94.5285 26.3648L94.1959 26.3693C94.0472 26.3721 93.9743 26.3008 93.9772 26.1549L94.021 22.8386C94.0297 22.3603 94.2105 22.2817 94.5635 22.6023L97.5253 25.2931C97.6683 25.4213 97.7368 25.3892 97.731 25.1968L97.6566 22.7512C97.6507 22.5848 97.731 22.4959 97.8972 22.4842L98.1072 22.4711C98.2531 22.4624 98.3245 22.531 98.3216 22.6769L98.2691 26.47Z" fill="white"/>
<path d="M101.878 26.4697H105.212C105.857 26.2012 106.049 25.5129 105.79 24.4046C105.761 24.2792 105.682 24.2152 105.553 24.2122L103.83 24.1641C103.663 24.1581 103.585 24.2384 103.593 24.4046L103.602 24.5228C103.614 24.7123 103.713 24.8013 103.9 24.7896L104.989 24.7285C105.117 24.7225 105.182 24.7853 105.182 24.9165V25.5947C105.179 25.7812 105.085 25.8731 104.902 25.8703L102.281 25.8571C102.185 25.8571 102.135 25.8075 102.132 25.7084L102.11 23.2496C102.11 23.2372 102.111 23.2248 102.114 23.2126C102.115 23.2037 102.118 23.1949 102.121 23.1863C102.124 23.1804 102.126 23.1744 102.13 23.1686C102.134 23.1609 102.138 23.1537 102.144 23.1466C102.148 23.1415 102.152 23.1368 102.156 23.1323C102.171 23.1169 102.189 23.1045 102.209 23.0962C102.216 23.0932 102.223 23.0906 102.231 23.0887C102.244 23.0851 102.258 23.0834 102.272 23.0834L104.744 23.0746C104.902 23.0716 105.028 23.1344 105.125 23.2628L105.26 23.4465C105.368 23.5924 105.501 23.6185 105.658 23.5254C105.874 23.397 105.898 23.149 105.728 22.7815C105.683 22.6811 105.609 22.5959 105.516 22.5361C105.423 22.4765 105.315 22.4446 105.203 22.4446L102.211 22.4489C102.026 22.4498 101.848 22.5162 101.708 22.6365C101.567 22.7568 101.474 22.9229 101.445 23.1052C101.224 24.5053 101.368 25.6268 101.878 26.4697Z" fill="white"/>
</svg>
