<svg width="92" height="32" viewBox="0 0 92 32" fill="none" xmlns="http://www.w3.org/2000/svg">
<g clip-path="url(#clip0_4595_8344)">
<path fill-rule="evenodd" clip-rule="evenodd" d="M60.5533 0.000976562H63.2503C63.2418 0.0687911 63.2411 0.137783 63.2482 0.207952C63.2646 0.379454 63.2589 0.555956 63.2532 0.730806V0.731608C63.2503 0.819336 63.2475 0.906714 63.2475 0.992765C63.2499 5.02208 63.2506 9.06906 63.2496 13.1337C63.2496 13.3463 63.2765 13.5625 63.3153 13.7695C63.3407 13.9056 63.3528 14.0633 63.3513 14.2427C63.3495 14.4848 63.3565 14.7229 63.3725 14.9569C63.3773 15.0254 63.3993 15.0911 63.4215 15.1576C63.4481 15.2372 63.4751 15.318 63.4735 15.4062C63.4731 15.4283 63.4813 15.4465 63.4983 15.4606C63.5143 15.4747 63.5246 15.4926 63.5294 15.5143C63.56 15.6612 63.632 15.7257 63.7455 15.7078C63.7714 15.8449 63.8051 15.9209 63.8465 15.936C64.0443 16.1536 64.2266 16.2572 64.3933 16.2468C64.8842 16.4298 65.2579 16.3591 65.7651 16.1995C66.0053 16.1241 66.184 15.9864 66.3013 15.7862C66.3076 15.7754 66.3162 15.7661 66.3266 15.759C66.3369 15.7519 66.3487 15.7473 66.3612 15.7453C66.3736 15.7433 66.3863 15.7442 66.3984 15.7477C66.4106 15.7512 66.4218 15.7574 66.4312 15.7657C66.4981 15.8241 66.5601 15.888 66.617 15.9572C66.8826 16.2779 67.1548 16.6146 67.4336 16.9673C67.5321 17.0912 67.6277 17.2066 67.7204 17.3135C67.8212 17.4303 67.9137 17.5506 67.998 17.6744C68 17.6773 68.0017 17.6804 68.0031 17.6835C68.0046 17.6869 68.0057 17.6904 68.0064 17.6941L68.0072 17.6988L68.0075 17.702L68.0076 17.7058L68.0073 17.7107L68.0066 17.7155C68.0052 17.7226 68.0024 17.7293 67.9984 17.7354C67.9944 17.7414 67.9892 17.7467 67.9832 17.7507C67.9537 17.7705 67.9243 17.7884 67.8953 17.8062C67.8318 17.8449 67.7699 17.8827 67.7112 17.9365C67.5671 18.0684 67.404 18.1899 67.2217 18.301C67.1751 18.3293 67.1259 18.3479 67.0741 18.3568C67.0308 18.3639 66.9907 18.3813 66.954 18.4091C66.9205 18.4341 66.8833 18.4538 66.8424 18.4684C66.7505 18.5009 66.6573 18.5346 66.5626 18.5695C66.4623 18.6067 66.3672 18.6297 66.2773 18.6387C66.1772 18.6489 66.0781 18.6604 65.9793 18.672L65.9792 18.672C65.7558 18.6981 65.5337 18.724 65.3045 18.7333C64.8859 18.7508 64.5162 18.7388 64.1955 18.6973C63.9501 18.6662 63.713 18.6481 63.4841 18.6429C63.3551 18.6401 63.2571 18.6102 63.1903 18.5532C63.121 18.4943 63.0396 18.4609 62.9459 18.4529C62.9072 18.4496 62.8722 18.4388 62.8406 18.4204C62.7586 18.3737 62.652 18.3503 62.5595 18.33L62.5432 18.3265C62.5183 18.3208 62.5018 18.3057 62.4938 18.2812L62.4507 18.1541C62.4403 18.1235 62.4194 18.1053 62.3878 18.0997L62.2119 18.0672C62.1996 18.0648 62.1884 18.0582 62.1803 18.0486C62.1722 18.0389 62.1677 18.0268 62.1674 18.0142V17.945C62.1669 17.9163 62.153 17.8974 62.1257 17.8885C62.0796 17.8739 62.0322 17.8666 61.9837 17.8666C61.9582 17.8667 61.9335 17.857 61.9146 17.8396C61.8958 17.8222 61.8842 17.7983 61.882 17.7726L61.8728 17.6667C61.871 17.6394 61.8566 17.6222 61.8298 17.6151C61.7949 17.6057 61.7593 17.6052 61.7231 17.6137C61.7098 17.617 61.6959 17.6173 61.6824 17.6144C61.669 17.6116 61.6564 17.6057 61.6456 17.5973C61.6348 17.5888 61.626 17.578 61.62 17.5657C61.6139 17.5534 61.6108 17.5398 61.6108 17.5261L61.6093 17.3608C61.6089 17.3269 61.5919 17.3116 61.5585 17.3149L61.4243 17.3276C61.4147 17.3285 61.4051 17.3275 61.396 17.3246C61.3869 17.3218 61.3784 17.3172 61.3711 17.3111C61.3638 17.3049 61.3578 17.2974 61.3535 17.289C61.3492 17.2806 61.3466 17.2714 61.3459 17.2619L61.3296 17.045C61.3273 17.013 61.3101 16.9987 61.278 17.0019L61.2003 17.009C61.1926 17.0098 61.1847 17.009 61.1773 17.0068C61.1698 17.0045 61.1629 17.0008 61.1569 16.9959C61.1509 16.991 61.146 16.9849 61.1424 16.9781C61.1388 16.9712 61.1367 16.9637 61.1361 16.956C61.1224 16.7856 61.0671 16.6363 60.9701 16.5082C60.914 16.4342 60.8705 16.3497 60.8394 16.2546C60.6496 15.6716 60.5545 15.0925 60.554 14.5175C60.5507 9.67868 60.5505 4.83983 60.5533 0.000976562ZM41.3377 18.4996L40.7069 18.6437L39.8162 18.6967L38.3532 18.7136C38.0819 18.6707 37.8114 18.6373 37.5415 18.6133C37.2835 18.5902 37.0327 18.5391 36.7892 18.46L36.789 18.46L36.7887 18.4598L36.7886 18.4596L36.7885 18.4595L36.7885 18.4593C35.9851 18.2464 35.2476 17.9335 34.5761 17.5205C34.4979 17.4725 34.4237 17.4176 34.3535 17.3559C34.3142 17.321 34.2712 17.2902 34.2284 17.2597C34.1145 17.1783 34.0026 17.0983 33.9671 16.9448C33.961 16.9193 33.9662 16.8963 33.9827 16.8755C34.2558 16.5369 34.5104 16.1863 34.7463 15.8237C34.7693 15.7891 34.7966 15.7614 34.8239 15.7337C34.8512 15.7061 34.8784 15.6786 34.901 15.6443C35.0216 15.462 35.1346 15.2798 35.2401 15.0975C35.2478 15.0842 35.2581 15.0727 35.2704 15.0635C35.2828 15.0544 35.2968 15.0479 35.3118 15.0444C35.3267 15.041 35.3421 15.0407 35.3571 15.0435C35.3722 15.0463 35.3864 15.0522 35.399 15.0608C35.4856 15.12 35.5556 15.1867 35.6254 15.2533C35.7014 15.3257 35.7773 15.3981 35.8744 15.4606C36.1236 15.6212 36.3574 15.7502 36.5759 15.8477C37.1702 16.1138 37.8646 16.3118 38.6591 16.4418C39.458 16.5718 40.2555 16.4687 40.9252 16.0498C41.3992 15.7531 41.5122 15.2339 41.3646 14.7048C41.342 14.6237 41.2996 14.5628 41.2567 14.5012C41.2229 14.4528 41.1888 14.4039 41.164 14.3445C41.1569 14.3278 41.1461 14.313 41.1322 14.3012C41.1184 14.2895 41.1019 14.2811 41.0841 14.2767C41.0224 14.2612 40.9718 14.2298 40.9323 14.1827C40.896 14.1399 40.8503 14.1022 40.7952 14.0697C40.5899 13.9506 40.3916 13.8512 40.2004 13.7716C39.8425 13.6223 39.4568 13.4832 39.0433 13.3541C38.1599 13.0777 37.397 12.8083 36.7546 12.546C36.36 12.3845 36.032 12.155 35.687 11.9136L35.6307 11.8742C35.5821 11.8401 35.5452 11.8008 35.5096 11.7628C35.4499 11.6991 35.3935 11.6389 35.2909 11.6129C35.2787 11.6098 35.2673 11.6039 35.2577 11.5957C35.2482 11.5875 35.2407 11.5771 35.2358 11.5655L35.1652 11.4031C35.1558 11.3814 35.14 11.3661 35.1179 11.3571C35.0585 11.3338 35.0119 11.307 34.9879 11.2441C34.9527 11.1533 34.9135 11.066 34.8746 10.9792C34.7871 10.784 34.7008 10.5917 34.6637 10.3682C34.6241 10.1318 34.5918 9.893 34.5669 9.65188C34.5556 9.54169 34.5584 9.43219 34.5754 9.32341C34.613 9.21509 34.6246 9.10489 34.61 8.99281C34.6651 8.62972 34.7211 8.40461 34.7781 8.31749C34.8344 8.23145 34.8794 8.14068 34.9238 8.05113C34.9764 7.94511 35.0281 7.84081 35.0967 7.74813C35.1157 7.72255 35.1344 7.69705 35.1529 7.67171L35.153 7.67165L35.153 7.67158C35.238 7.55565 35.3205 7.44299 35.4202 7.33983C35.959 6.78083 36.5959 6.36782 37.331 6.1008C37.4403 6.06124 37.5524 6.02781 37.6673 6.00049C37.7817 5.99767 37.8863 5.97812 37.9809 5.94186C38.3327 5.85474 38.5569 5.80553 38.6534 5.79422C39.1432 5.73677 39.7024 5.74666 40.3311 5.82389C40.487 5.8432 40.7691 5.89453 41.1774 5.97789C42.03 6.15237 42.8014 6.45259 43.5933 6.87078C43.652 6.90194 43.7028 6.93934 43.7526 6.97606C43.8315 7.03425 43.9081 7.09074 44.0108 7.11802C44.022 7.121 44.0324 7.12643 44.0412 7.13392C44.0501 7.1414 44.0572 7.15077 44.062 7.16134C44.0669 7.17192 44.0694 7.18346 44.0693 7.19514C44.0692 7.20682 44.0666 7.21835 44.0616 7.22893C44.0423 7.26917 44.0106 7.29245 43.9773 7.31701C43.9497 7.33729 43.921 7.35843 43.897 7.39069C43.5792 7.82018 43.2486 8.23955 42.9052 8.64879C42.8788 8.68021 42.8493 8.72627 42.8167 8.77716L42.8167 8.77721C42.6917 8.97231 42.5212 9.23845 42.3027 9.02389C42.0583 8.78419 41.7682 8.59299 41.4324 8.45029C40.8108 8.18563 40.1821 8.04105 39.5463 8.01656C39.3881 8.01044 39.113 8.04882 38.7212 8.13171C38.5602 8.16561 38.4264 8.2113 38.32 8.26875C38.2639 8.29919 38.2073 8.32496 38.1513 8.35048L38.1511 8.35054L38.1511 8.35057C38.0342 8.40378 37.9196 8.45592 37.817 8.54707C37.5081 8.82021 37.4141 9.17412 37.5352 9.60879C37.5583 9.69215 37.6119 9.77503 37.6962 9.85745C37.7366 9.89707 37.777 9.94045 37.818 9.98448L37.8181 9.98459L37.8182 9.9847C37.927 10.1015 38.0399 10.2228 38.1681 10.2905C38.2248 10.3203 38.278 10.354 38.3309 10.3874C38.4269 10.4482 38.5218 10.5083 38.6343 10.5434C38.7644 10.5835 38.8899 10.6294 39.0152 10.6753C39.1614 10.7288 39.3072 10.7822 39.4594 10.8259C39.6209 10.8721 39.7724 10.9227 39.9136 10.9778C40.0604 11.035 40.2099 11.0753 40.3597 11.1158C40.5394 11.1643 40.7195 11.2129 40.8955 11.2907C40.9681 11.3229 41.0441 11.3403 41.1197 11.3577C41.1788 11.3712 41.2377 11.3847 41.2947 11.4052C41.8447 11.6039 42.3966 11.8768 42.9505 12.2239C43.2999 12.4429 43.5853 12.7035 43.8066 13.0059C44.0242 13.303 44.1692 13.6447 44.2418 14.0309C44.3317 14.5108 44.3383 14.9944 44.2615 15.4818C44.1396 16.2607 43.7762 16.9163 43.1716 17.4484C42.6276 17.9269 42.0164 18.2773 41.3377 18.4996ZM56.5494 8.22844C56.5541 8.29767 56.5774 8.35065 56.6193 8.38738C56.6368 8.40292 56.6481 8.42176 56.6532 8.44389C56.6735 8.52442 56.6973 8.54514 56.7246 8.50606L56.7959 8.86561C56.8002 8.88822 56.8096 8.90847 56.8242 8.92637C56.8835 9.00171 56.9196 9.09119 56.9323 9.1948C56.9403 9.26214 56.9626 9.32195 56.9994 9.37422C57.0093 9.38882 57.0149 9.40483 57.0163 9.42226C57.0545 9.85128 57.0728 10.1487 57.0714 10.3144C57.054 12.9696 57.0542 15.6242 57.0721 18.2784C57.0698 18.3458 57.0554 18.3971 57.029 18.4324C57.0144 18.4517 56.9951 18.4607 56.9711 18.4593L56.8196 18.4511L56.683 18.4434H56.6829C56.0668 18.4089 55.4486 18.3742 54.8314 18.4268C54.8046 18.4291 54.7794 18.4367 54.7558 18.4494C54.7172 18.4701 54.6781 18.4814 54.6386 18.4833C54.6131 18.4842 54.6 18.4722 54.599 18.4472L54.5503 17.2301C54.5496 17.2128 54.5452 17.1959 54.5373 17.1805C54.5294 17.1651 54.5183 17.1516 54.5047 17.1409C54.4911 17.1301 54.4753 17.1225 54.4584 17.1184C54.4415 17.1143 54.424 17.1138 54.4069 17.1171C54.3169 17.135 54.2468 17.1797 54.1964 17.2513C53.7184 17.6017 53.3468 17.8515 53.0817 18.0008C52.7944 18.1619 52.3823 18.3486 51.8455 18.561C51.7113 18.56 51.5709 18.5883 51.4244 18.6457C50.8405 18.731 50.3333 18.767 49.9029 18.7538C49.6594 18.7463 49.3641 18.7096 49.017 18.6436C48.8847 18.6187 48.738 18.5718 48.5769 18.5031C48.4343 18.4428 48.2897 18.387 48.1432 18.3356C48.0344 18.2975 47.9814 18.2444 47.904 18.1671L47.8995 18.1626C47.8595 18.1226 47.8173 18.0999 47.7756 18.0774C47.7229 18.049 47.6708 18.021 47.6247 17.9591C47.5846 17.9046 47.5366 17.8661 47.4892 17.8279L47.4891 17.8279C47.4314 17.7815 47.3744 17.7357 47.333 17.6624C47.2941 17.5937 47.2404 17.5622 47.1779 17.5257L47.1778 17.5256L47.1571 17.5134C47.126 17.4951 47.1023 17.4664 47.09 17.4321C47.0589 17.3497 47.0043 17.2838 46.9261 17.2344C46.895 17.215 46.8731 17.1884 46.8604 17.1545C46.8159 17.0381 46.7561 16.9334 46.6965 16.8289L46.6965 16.8289L46.6965 16.8289L46.6965 16.8289L46.6965 16.8288L46.6965 16.8288L46.6965 16.8288C46.6198 16.6945 46.5434 16.5607 46.5001 16.4029C46.4798 16.3287 46.4572 16.2548 46.4345 16.1807L46.4343 16.1804L46.4343 16.1802C46.3702 15.971 46.3058 15.7612 46.2939 15.5432C46.2854 15.3991 46.2764 15.2491 46.267 15.0933C46.2176 14.2816 46.4344 13.376 46.9784 12.7289C47.2925 12.3555 47.6598 12.0392 48.0803 11.7802C48.1811 11.7181 48.305 11.6601 48.4519 11.6065C48.5918 11.5551 48.7189 11.5036 48.8334 11.4518C48.9313 11.408 49.0759 11.3813 49.2671 11.3719C49.4164 11.3898 49.5626 11.3731 49.7058 11.3218L49.9212 11.2985L51.7141 11.3225C52.0692 11.3545 52.4287 11.3738 52.7928 11.3804C53.0117 11.3842 53.2025 11.4032 53.3649 11.4376C53.5547 11.4781 53.7389 11.5106 53.9173 11.5351C53.9588 11.5412 53.9988 11.5551 54.0374 11.5768C54.0996 11.6116 54.1707 11.6192 54.2508 11.5994C54.2748 11.5933 54.2894 11.578 54.2946 11.5535C54.3115 11.4696 54.3209 11.3844 54.3228 11.2978C54.3322 10.8767 54.3141 10.4852 54.2684 10.123C54.2497 9.97572 54.2036 9.83914 54.1578 9.70326C54.1102 9.56218 54.0628 9.42186 54.0466 9.27109C54.0419 9.22871 54.0186 9.21199 53.9767 9.22093C53.8641 9.24589 53.8128 9.19645 53.8227 9.07259C53.8293 8.99159 53.7925 8.94473 53.7125 8.93202C53.6692 8.92495 53.6298 8.91129 53.5945 8.89105C53.5745 8.88015 53.5592 8.86231 53.5514 8.84089C53.5274 8.77661 53.4942 8.71303 53.4243 8.68972C53.3141 8.65299 53.2121 8.6033 53.1184 8.54067C53.035 8.48463 52.9432 8.43989 52.8429 8.40645C52.2754 8.21714 51.6971 8.15545 51.108 8.22138C50.9719 8.23645 50.8417 8.26188 50.7173 8.29767C50.6446 8.31879 50.571 8.33689 50.4976 8.35495C50.2984 8.40392 50.1004 8.45259 49.9255 8.56045C49.867 8.59641 49.8096 8.62833 49.7529 8.65989L49.7528 8.65992C49.6401 8.7226 49.5298 8.7839 49.419 8.87268C49.2457 9.01066 49.0771 9.14888 48.9132 9.28734C48.8129 9.33349 48.7597 9.394 48.7535 9.46888L48.6222 9.68575C48.6145 9.69837 48.6037 9.70876 48.5908 9.71588C48.5779 9.723 48.5633 9.7266 48.5486 9.72631C48.5338 9.72603 48.5194 9.72186 48.5068 9.71425C48.4942 9.70663 48.4838 9.69583 48.4766 9.68292L48.3883 9.52116C48.378 9.50185 48.3624 9.48819 48.3417 9.48018L48.2117 9.43144C48.1996 9.42703 48.1886 9.41994 48.1794 9.41066C48.1702 9.40138 48.1632 9.39014 48.1588 9.37776C48.1267 9.28498 48.061 9.23082 47.9617 9.21528C47.9447 9.21262 47.9286 9.20621 47.9145 9.19655C47.9004 9.18689 47.8888 9.17421 47.8804 9.15948C47.8569 9.11851 47.8439 9.07612 47.8416 9.03233C47.8407 9.01832 47.8351 9.00503 47.8255 8.99473C47.816 8.98443 47.8032 8.97775 47.7893 8.97581C47.6744 8.95933 47.6009 8.89552 47.5689 8.78438C47.5638 8.76686 47.554 8.75105 47.5407 8.73862C47.5274 8.72619 47.5111 8.7176 47.4933 8.71374C47.4147 8.69726 47.3544 8.65864 47.3125 8.59789C47.2795 8.55032 47.2407 8.50794 47.1959 8.47074C47.0787 8.37325 46.9701 8.26941 46.8703 8.15921C46.8519 8.13849 46.8293 8.12413 46.8025 8.11612L46.6838 8.08151C46.6651 8.07619 46.6481 8.06623 46.6343 8.05258C46.6206 8.03893 46.6105 8.02202 46.605 8.00341C46.5995 7.98481 46.5988 7.96512 46.6029 7.94617C46.6071 7.92722 46.6159 7.90963 46.6287 7.89502C46.7794 7.72313 46.9419 7.54935 47.1161 7.37369C47.2805 7.2084 47.4465 7.06453 47.6141 6.94208C48.1331 6.56157 48.7081 6.27642 49.3392 6.08663C49.5902 6.01081 49.8482 5.9623 50.1134 5.94111C50.2311 5.94158 50.3432 5.91662 50.4496 5.86623C51.1678 5.74614 51.8921 5.72943 52.6225 5.81608C52.7723 5.83397 53.0511 5.88837 53.4589 5.97926C53.6176 6.01411 53.7622 6.05531 53.8926 6.10288L53.9649 6.12902L53.9654 6.12917L53.9654 6.12918C54.1335 6.18974 54.3013 6.25019 54.4556 6.33599C54.579 6.40522 54.7052 6.47021 54.8343 6.53096C54.9173 6.57028 54.9915 6.61974 55.0653 6.66899C55.156 6.72943 55.2462 6.7896 55.352 6.83047C55.3779 6.84036 55.397 6.85755 55.4093 6.88204L55.4531 6.96751C55.4597 6.98066 55.469 6.99228 55.4803 7.00164C55.4916 7.011 55.5047 7.0179 55.5188 7.02191C55.6242 7.05158 55.7003 7.10974 55.7469 7.19639C55.761 7.22271 55.7847 7.24288 55.8133 7.2529C55.9221 7.29199 55.9902 7.36922 56.0175 7.4846C56.0205 7.49805 56.0266 7.51062 56.0351 7.52138C56.0437 7.53215 56.0546 7.54082 56.0669 7.54676C56.1607 7.59246 56.2133 7.6721 56.2668 7.75318C56.2936 7.79368 56.3205 7.83453 56.353 7.87171C56.3968 7.9221 56.4324 7.97908 56.4597 8.04266C56.4875 8.10765 56.5174 8.16957 56.5494 8.22844ZM49.5737 15.8088C49.7503 15.9845 49.9547 16.1072 50.1868 16.1769C50.4567 16.2574 50.7308 16.3111 51.0119 16.2807C51.5427 16.2218 52.0108 16.0996 52.4162 15.9141C53.0642 15.6169 53.6522 15.2564 54.1801 14.8326C54.2395 14.785 54.2745 14.7212 54.2854 14.6412C54.3263 14.3374 54.3259 14.0353 54.284 13.7348C54.2811 13.7145 54.2717 13.6957 54.2573 13.6813C54.2429 13.6669 54.2242 13.6576 54.2041 13.655C53.5448 13.5646 52.8719 13.4692 52.1852 13.3689C51.4697 13.2637 50.5895 13.2714 49.9304 13.5752C49.4943 13.7758 49.2461 14.1269 49.1859 14.6284C49.1293 15.1013 49.2586 15.4947 49.5737 15.8088ZM74.2914 18.7072C73.7526 18.6789 73.2066 18.6848 72.6532 18.7248C72.4305 18.6664 72.2171 18.6372 72.0132 18.6372C71.7293 18.6382 71.4667 18.5956 71.2256 18.5094C70.9346 18.4053 70.785 18.3521 70.777 18.3497C70.3004 18.2052 69.8396 18.0189 69.3946 17.791C69.0249 17.6017 68.7101 17.3992 68.4501 17.1835C68.2976 17.057 68.2785 16.8274 68.4438 16.6975C68.5295 16.6299 68.5819 16.5477 68.6346 16.4652C68.6804 16.3934 68.7265 16.3212 68.7949 16.2581C68.8499 16.2072 68.8818 16.148 68.914 16.0883L68.914 16.0883L68.9141 16.0881C68.9422 16.0361 68.9705 15.9836 69.0146 15.936C69.0609 15.8854 69.0953 15.8293 69.1295 15.7737C69.1741 15.7011 69.2184 15.6291 69.2879 15.5708C69.3708 15.5011 69.4316 15.4097 69.4702 15.2967C69.5585 15.036 69.8545 15.0212 69.988 15.2571C70.045 15.3584 70.1919 15.4523 70.3164 15.5319L70.3165 15.5319L70.3166 15.532C70.3587 15.5589 70.3982 15.5841 70.4309 15.6075C70.4894 15.649 70.552 15.6711 70.6135 15.6927C70.6775 15.7152 70.7403 15.7373 70.7961 15.7806C70.8828 15.8484 70.9831 15.9009 71.097 15.9381C71.2826 15.9988 71.479 16.0638 71.6862 16.1331C72.3912 16.3695 73.0443 16.4891 73.6457 16.4919C74.2935 16.4947 74.9646 16.3238 75.4315 15.9014C75.7593 15.6047 75.8617 15.1286 75.7006 14.7245C75.6874 14.6915 75.6768 14.6602 75.6665 14.6301C75.6357 14.5395 75.6085 14.4598 75.5269 14.3798C75.42 14.2752 75.3131 14.1876 75.2062 14.117C74.9278 13.9333 74.5283 13.7485 74.0074 13.5625C73.5016 13.3821 72.937 13.1958 72.3135 13.0037C71.7375 12.8266 71.2199 12.6149 70.7608 12.3686C70.6002 12.2825 70.2931 12.0884 69.8396 11.7866C69.8142 11.7696 69.7947 11.7475 69.781 11.7202C69.7344 11.6255 69.6628 11.5721 69.5663 11.5598C69.5328 11.5556 69.5109 11.5374 69.5006 11.5054C69.4605 11.3787 69.4021 11.2685 69.3254 11.1748C69.2238 11.0512 69.172 10.9029 69.1202 10.7548L69.1202 10.7547L69.1201 10.7546C69.0974 10.6896 69.0747 10.6246 69.0478 10.5617C68.8683 10.1421 68.8761 9.49853 68.9305 9.07751C68.9983 8.55666 69.194 8.08007 69.5175 7.64776L69.5189 7.64597C69.6576 7.46143 69.8042 7.26651 69.9788 7.11372C70.3565 6.78171 70.7883 6.5008 71.2743 6.27098C71.6224 6.10615 71.9409 5.99737 72.2301 5.94462C72.307 5.93054 72.3835 5.91582 72.4599 5.90112L72.4604 5.90101C72.7748 5.84052 73.0866 5.78052 73.4098 5.76802C73.885 5.74966 74.3201 5.77155 74.7152 5.83372C74.9691 5.87375 75.2387 5.92131 75.524 5.97641C76.3187 6.1304 77.0584 6.42709 77.8001 6.78948C77.8746 6.82599 77.9424 6.87219 78.01 6.91833C78.0994 6.97932 78.1886 7.04019 78.2932 7.0784C78.311 7.08483 78.327 7.09541 78.3399 7.10926C78.3528 7.12311 78.3623 7.13984 78.3674 7.15806C78.3726 7.17628 78.3734 7.19547 78.3697 7.21405C78.366 7.23262 78.3579 7.25005 78.3461 7.26489L76.8867 9.12202C76.88 9.1305 76.8714 9.13727 76.8616 9.14177C76.8518 9.14626 76.8411 9.14836 76.8303 9.14787C76.8196 9.14739 76.809 9.14434 76.7997 9.13899C76.7903 9.13363 76.7824 9.12612 76.7765 9.11707C76.7063 9.0086 76.6235 8.95924 76.5345 8.90618C76.4855 8.877 76.4347 8.8467 76.383 8.80484C76.3115 8.74645 76.2352 8.69582 76.1542 8.65297C75.8603 8.49615 75.5474 8.36216 75.2153 8.25102C74.912 8.14917 74.5934 8.1017 74.2756 8.05435C74.19 8.04161 74.1045 8.02887 74.0194 8.01509C73.8619 7.98966 73.7093 7.99531 73.5497 8.0278C73.2897 8.08055 73.0613 8.13117 72.8645 8.17968C72.6624 8.22913 72.2887 8.4029 72.1305 8.59292C72.0876 8.6452 72.0389 8.69229 71.9843 8.7342C71.8289 8.85358 71.8289 9.11566 71.8303 9.30851C71.8331 9.58306 71.9311 9.80558 72.1241 9.97606C72.1527 10.0015 72.1814 10.0283 72.2104 10.0556C72.3162 10.1548 72.4271 10.2587 72.5579 10.313C72.6196 10.3386 72.6691 10.3759 72.718 10.4126C72.7675 10.4499 72.8163 10.4866 72.8765 10.5101C73.2617 10.6603 73.6596 10.8004 74.0703 10.9304C74.2492 10.9874 74.4228 11.0387 74.5909 11.0844C74.7571 11.1291 74.9281 11.1828 75.1037 11.2455C75.2071 11.282 75.3111 11.3134 75.4149 11.3447C75.566 11.3903 75.7168 11.4358 75.8645 11.4969C76.5333 11.7729 77.1248 12.0969 77.639 12.4689C77.7163 12.5245 77.7739 12.59 77.8121 12.6653C77.8257 12.6921 77.8489 12.7128 77.8771 12.7233C77.9741 12.759 78.0396 12.8262 78.0735 12.9246C78.0815 12.9477 78.0942 12.9677 78.1116 12.9846C78.327 13.1902 78.4938 13.631 78.5524 13.8902C78.7054 14.5604 78.701 15.1992 78.539 15.8067C78.349 16.518 77.9527 17.0436 77.408 17.536C77.2903 17.6419 77.1679 17.7394 77.0407 17.8284C76.5764 18.1529 76.0727 18.3959 75.5297 18.5574C75.3653 18.6059 75.1602 18.6377 74.9144 18.6528C74.7053 18.666 74.4977 18.6841 74.2914 18.7072ZM90.9935 8.42196C91.0274 8.60186 91.0755 8.77822 91.1376 8.95106C91.2078 9.14555 91.2523 9.3132 91.2712 9.45402C91.3545 10.0761 91.383 10.576 91.3566 10.9537C91.3241 11.4275 91.3069 11.8567 91.3051 12.2415C91.2966 14.1436 91.2879 15.9812 91.2789 17.7542C91.2789 17.8017 91.2834 17.8483 91.2879 17.8948L91.2879 17.8949V17.8951L91.2879 17.8952C91.2918 17.9351 91.2956 17.9748 91.2966 18.0149C91.2975 18.0384 91.3029 18.0608 91.3128 18.082C91.3722 18.2054 91.3446 18.3146 91.2302 18.4098C91.0056 18.4079 90.7809 18.4022 90.5563 18.3928C90.0948 18.374 89.5906 18.4046 89.0439 18.4847C89.0332 18.4862 89.0224 18.4853 89.0122 18.482L89.007 18.4802C89.0024 18.4783 88.998 18.476 88.9939 18.4733C88.9906 18.4711 88.9876 18.4687 88.9847 18.466C88.9769 18.4587 88.9707 18.4498 88.9668 18.4398C88.9629 18.4298 88.9612 18.4191 88.9619 18.4084C88.9633 18.3909 88.9436 18.3714 88.9026 18.3497L88.8426 17.4349C88.8581 17.3464 88.8539 17.2692 88.8298 17.2032C88.8129 17.1566 88.7729 17.1463 88.7097 17.1722C88.6424 17.2047 88.584 17.239 88.5346 17.2753C88.0057 17.6648 87.4236 18.0076 86.7883 18.3038C86.6113 18.3862 86.4314 18.4585 86.2486 18.5207C86.0749 18.5795 85.8973 18.6217 85.716 18.6471C85.133 18.7281 84.5872 18.7594 84.0786 18.7411C83.9882 18.7383 83.8961 18.7265 83.8024 18.7058C83.59 18.6591 83.3717 18.6387 83.1475 18.6443C83.1174 18.6452 83.0906 18.6361 83.067 18.6168C83.0458 18.5989 83.0216 18.5868 82.9942 18.5807C82.8723 18.5529 82.7618 18.4938 82.6629 18.4034C82.6383 18.3806 82.6066 18.3671 82.5732 18.3653C82.5021 18.3606 82.4402 18.3321 82.3875 18.2798C82.3084 18.2012 82.2098 18.1478 82.1113 18.0945C82.0708 18.0725 82.0303 18.0506 81.9912 18.0269C81.969 18.0137 81.9532 17.9951 81.9438 17.9711C81.9005 17.8614 81.8207 17.7954 81.7044 17.7733C81.6766 17.7681 81.6575 17.7526 81.6471 17.7267L81.5603 17.5183C81.5499 17.4929 81.5315 17.4761 81.5052 17.4681L81.4275 17.4455C81.4044 17.4385 81.386 17.4246 81.3724 17.4039C81.3281 17.336 81.2916 17.2647 81.2629 17.1898C81.2349 17.1149 81.1904 17.0754 81.1356 17.0266L81.1283 17.0202L81.1235 17.0158L81.1166 17.0097C81.0945 16.9899 81.0786 16.9641 81.0707 16.9355C81.0481 16.8489 81.0086 16.77 80.952 16.6989C80.9054 16.6395 80.8699 16.5684 80.8454 16.4855C80.7272 16.0852 80.657 15.753 80.6349 15.4888C80.6142 15.2411 80.6101 14.9298 80.6229 14.5549C80.6337 14.2375 80.6867 13.9496 80.7818 13.691C81.0721 12.9005 81.5581 12.3693 82.2299 11.9066C82.3759 11.8063 82.5447 11.7147 82.7364 11.6319C82.9135 11.5556 83.083 11.4901 83.245 11.4355C83.3755 11.3917 83.525 11.3686 83.6936 11.3662C83.7878 11.3648 83.8869 11.354 83.991 11.3337C84.0894 11.3144 84.1883 11.3024 84.2877 11.2977C84.4365 11.2949 84.5832 11.298 84.7278 11.3069C85.2364 11.3389 85.7513 11.3415 86.2727 11.3147C86.5383 11.3622 86.8126 11.386 87.0956 11.386C87.2896 11.386 87.4531 11.3961 87.5859 11.4164C87.7545 11.4423 87.9172 11.4684 88.074 11.4948C88.1154 11.5014 88.1894 11.5247 88.2958 11.5647C88.3754 11.5944 88.4538 11.6041 88.531 11.5937C88.5641 11.5894 88.5944 11.573 88.6162 11.5477C88.6379 11.5224 88.6496 11.49 88.649 11.4567C88.6475 11.3482 88.6475 11.24 88.6474 11.1321C88.6473 10.6789 88.6472 10.2288 88.5388 9.7719C88.5256 9.71585 88.5011 9.66782 88.4653 9.62779C88.4507 9.61178 88.4406 9.59294 88.435 9.57128L88.3361 9.199C88.2805 9.08221 88.187 8.99415 88.0556 8.93481L88.0358 8.91644C87.961 8.78929 87.868 8.70005 87.7568 8.64872C87.6435 8.64507 87.5669 8.58907 87.4904 8.53325C87.4334 8.4916 87.3765 8.45006 87.3047 8.43044C87.1766 8.39559 87.0455 8.35886 86.9112 8.32024C86.4189 8.17967 85.8778 8.1726 85.3579 8.23759C85.2345 8.25266 85.1123 8.28045 84.9912 8.32095C84.9181 8.34507 84.8437 8.36208 84.7695 8.37903C84.6482 8.40674 84.5276 8.4343 84.4141 8.4926C84.1424 8.63106 83.8603 8.80177 83.5678 9.00474C83.5214 9.03685 83.4929 9.07157 83.464 9.10676C83.4389 9.1374 83.4135 9.16838 83.3757 9.1983L83.3623 9.20887L83.3498 9.21857L83.344 9.22303C83.2933 9.26214 83.2454 9.29904 83.2097 9.35582C83.1329 9.47874 83.0183 9.56657 82.8657 9.61931C82.844 9.62685 82.8233 9.62449 82.8035 9.61225C82.6825 9.5369 82.5775 9.45048 82.4885 9.353C82.4258 9.28471 82.358 9.22278 82.285 9.16721C82.213 9.11259 82.1569 9.05113 82.1169 8.98284C82.1083 8.96795 82.0965 8.95504 82.0826 8.94494C82.0686 8.93484 82.0526 8.92778 82.0357 8.92421C81.9302 8.90114 81.8635 8.84203 81.8358 8.74691C81.8314 8.7313 81.8232 8.71703 81.8118 8.70542C81.8005 8.69382 81.7864 8.68524 81.7708 8.6805C81.6686 8.64895 81.5956 8.58137 81.5518 8.47777C81.5417 8.45405 81.524 8.4348 81.5016 8.42337L81.3752 8.35697C81.354 8.34567 81.3356 8.33107 81.3201 8.31318C81.2334 8.21098 81.1275 8.13116 81.0022 8.0737C81.0135 8.00212 81.0135 7.9369 81.0022 7.87803C81.022 7.79044 81.0554 7.7238 81.1025 7.67812C81.2782 7.5067 81.4795 7.32657 81.7065 7.13772C81.9316 6.95029 82.1515 6.79535 82.3663 6.67291C82.8009 6.4252 83.2584 6.22552 83.7388 6.07388C83.8325 6.04421 83.9276 6.01925 84.0242 5.999C84.2182 5.99806 84.4056 5.9651 84.5865 5.90011C85.2458 5.77107 85.9115 5.73175 86.5835 5.78214C87.0702 5.81887 87.6092 5.93401 88.1164 6.06046C88.2454 6.09248 88.4119 6.15206 88.6158 6.23918C88.8789 6.35179 89.1183 6.49827 89.3586 6.6453C89.4227 6.68458 89.487 6.7239 89.5518 6.76262C89.6361 6.81254 89.7088 6.86435 89.7701 6.91803C89.8122 6.95492 89.8556 6.98843 89.8985 7.02166C89.9872 7.09026 90.0745 7.15771 90.1473 7.25145C90.1795 7.29305 90.218 7.32495 90.2564 7.35668C90.2961 7.3896 90.3356 7.42232 90.3677 7.46549C90.4581 7.58652 90.5523 7.70426 90.6502 7.81869C90.6895 7.86482 90.7157 7.91701 90.7414 7.96805C90.766 8.01706 90.7901 8.06501 90.8247 8.10549C90.9142 8.21098 90.9705 8.31647 90.9935 8.42196ZM84.306 13.5603C83.8335 13.7708 83.5558 14.1353 83.5135 14.6637C83.4791 15.0899 83.5999 15.4723 83.8758 15.8109C83.936 15.8844 84.0086 15.9154 84.0817 15.9466C84.1443 15.9733 84.2072 16.0002 84.2629 16.0539C84.3303 16.1189 84.4136 16.1644 84.513 16.1903C84.805 16.2661 85.056 16.2962 85.266 16.2807C85.9809 16.2279 86.6786 16.0066 87.3591 15.6167C87.6925 15.4259 88.0768 15.174 88.512 14.8608C88.6102 14.7902 88.6483 14.6842 88.6497 14.5677C88.6525 14.2884 88.6513 14.0058 88.6462 13.72C88.646 13.7083 88.6416 13.6971 88.634 13.6885C88.6264 13.6798 88.6159 13.6742 88.6045 13.6726C87.9475 13.578 87.2863 13.4807 86.6209 13.3809C86.1618 13.3124 85.675 13.294 85.2343 13.3357C84.8745 13.3701 84.5651 13.4449 84.306 13.5603ZM72.1503 21.6007C72.1588 21.8003 72.1604 22.0005 72.1552 22.2011C72.1313 23.0474 72.1361 23.8972 72.1408 24.7459V24.7464C72.1425 25.0515 72.1442 25.3565 72.1446 25.6611C72.1456 26.1089 72.163 26.5561 72.1969 27.0025C72.2046 27.1071 72.2067 27.2116 72.2088 27.3155V27.316C72.2132 27.5439 72.2177 27.7695 72.2817 27.9901C72.2956 28.0376 72.2986 28.0878 72.3015 28.1376V28.1376C72.3061 28.2164 72.3106 28.294 72.3587 28.3581C72.5042 28.5507 72.702 28.6371 72.952 28.6173C73.048 28.6098 73.1261 28.5592 73.2045 28.5084C73.2293 28.4922 73.2543 28.476 73.2798 28.4612C73.3133 28.4419 73.3479 28.4332 73.3837 28.4351C73.4359 28.4379 73.5014 28.4551 73.58 28.4867C73.5814 28.4873 73.5827 28.488 73.5839 28.4888L73.5846 28.4893L73.5854 28.4899L73.586 28.4904L73.5873 28.4917L73.5885 28.493L73.9678 28.9267C74.0154 28.9616 74.0288 29.0174 74.0081 29.0942C74.0015 29.1177 73.9883 29.1363 73.9686 29.15C73.8249 29.2522 73.7013 29.3179 73.5977 29.3471C73.1056 29.4855 72.6003 29.4671 72.0818 29.292C72.0358 29.2765 71.9985 29.2511 71.9615 29.226C71.9309 29.2052 71.9005 29.1845 71.8656 29.1698C71.7427 29.1182 71.6508 29.0532 71.5922 28.931C71.5616 28.8674 71.5192 28.8133 71.4651 28.7685C71.4467 28.753 71.434 28.7339 71.4269 28.7113L71.3761 28.5495C71.361 28.5006 71.3509 28.4506 71.3457 28.3998C71.2826 27.74 71.2614 27.0776 71.2821 26.4127C71.3279 24.9515 71.321 23.4825 71.3141 22.0112V22.0109V22.0107V22.0104V22.0102V22.0099V22.0097V22.0094V22.0092V22.009V22.0087V22.0085V22.0082L71.313 21.7767L71.3125 21.6515C71.312 21.6157 71.3297 21.5978 71.3655 21.5978L72.1503 21.6007ZM40.8694 29.1648L40.146 29.1684C40.0933 29.1688 40.0669 29.1427 40.0669 29.0899V22.4667C40.0669 22.4441 40.0556 22.4328 40.033 22.4328L39.7921 22.4293L37.8877 22.4272L37.911 21.7688C37.9119 21.7462 37.9089 21.7243 37.9018 21.7031L37.8721 21.6162L42.9822 21.6148C43.0091 21.6148 43.0225 21.6282 43.0225 21.6551L43.0239 22.3805C43.0239 22.3935 43.0189 22.4059 43.0099 22.415C43.0008 22.4241 42.9886 22.4293 42.9759 22.4293H40.9139C40.8847 22.4293 40.8701 22.4439 40.8701 22.4731L40.8694 29.1648ZM53.2484 21.6196L53.822 21.6189C53.7857 22.2104 53.8027 22.7977 53.8728 23.3807C53.8907 23.5281 53.9002 23.6602 53.9011 23.777C53.9017 23.8307 53.9004 23.8865 53.8991 23.9431C53.8958 24.0859 53.8924 24.2343 53.9188 24.3704C53.9291 24.4241 53.9371 24.4777 53.9428 24.5314C53.9449 24.5516 53.9515 24.571 53.9621 24.5882C53.9727 24.6054 53.9871 24.62 54.0042 24.6309C54.0213 24.6419 54.0407 24.6488 54.0608 24.6513C54.081 24.6537 54.1015 24.6516 54.1208 24.6452L54.2607 24.5971C54.2856 24.5887 54.307 24.575 54.3249 24.5562L54.6576 24.2065C54.9774 24.0812 55.3057 24.0113 55.6424 23.9967C56.0507 23.9793 56.4345 24.0819 56.7938 24.3047C56.8173 24.3194 56.8448 24.3268 56.8729 24.3259C56.9097 24.3245 56.9438 24.3299 56.9754 24.3421C56.9965 24.3506 57.0107 24.3657 57.0177 24.3873L57.0707 24.5519C57.1117 24.6103 57.1637 24.6605 57.2268 24.7024C57.2461 24.7151 57.2607 24.7321 57.2706 24.7532C57.3151 24.8486 57.3427 24.8882 57.4338 24.9666C57.48 25.0066 57.5181 25.0549 57.5482 25.1114C57.5671 25.1858 57.5944 25.2503 57.6302 25.3049C57.6241 25.394 57.6304 25.4839 57.6493 25.5748C57.6723 25.6864 57.6836 25.7742 57.6832 25.8383L57.6818 26.0502C57.6813 26.1142 57.6737 26.1837 57.6591 26.2586C57.6182 26.4691 57.5963 26.682 57.5935 26.8972C57.5831 27.6502 57.5824 28.4152 57.5913 29.1923L56.774 29.1647C56.7726 28.3962 56.7705 27.6168 56.7677 26.8265L56.7675 26.7752V26.7699C56.7665 26.2524 56.7657 25.8342 56.5162 25.3904C56.5049 25.3702 56.4882 25.3563 56.466 25.3487C56.378 25.3195 56.3146 25.2619 56.276 25.1757C56.2647 25.1512 56.2478 25.1314 56.2252 25.1163C55.9346 24.9265 55.628 24.8448 55.3054 24.8712C55.1825 24.8816 55.0718 24.9136 54.9734 24.9673C54.9237 24.9943 54.8725 25.0147 54.8217 25.0349C54.7411 25.067 54.6616 25.0987 54.5905 25.1559C54.4295 25.2845 54.3127 25.4034 54.2402 25.5126C54.1837 25.5974 54.1314 25.7342 54.0833 25.923C54.0118 26.0785 53.9713 26.2452 53.9618 26.4232C53.9604 26.4472 53.9491 26.4653 53.9279 26.4776C53.9058 26.4903 53.8936 26.5068 53.8912 26.527C53.8615 26.7601 53.8422 26.9855 53.8333 27.203C53.8074 27.8402 53.7994 28.4889 53.8093 29.1492C53.8097 29.161 53.8038 29.1671 53.7916 29.1676L53.2971 29.1683C53.283 29.1687 53.2757 29.1617 53.2752 29.1471C53.2691 28.5174 53.2609 27.8911 53.2505 27.268C53.2481 27.1013 53.2357 26.9379 53.2131 26.7778C53.1967 26.6593 53.1968 26.5427 53.1969 26.4261C53.197 26.3466 53.197 26.2671 53.1919 26.1872C53.1829 26.0516 53.1817 25.9233 53.1883 25.8023C53.194 25.6935 53.1945 25.5743 53.1898 25.4448C53.1676 24.8269 53.1584 24.2491 53.1622 23.7113C53.1626 23.6195 53.186 23.5388 53.2093 23.4586L53.2093 23.4586C53.2299 23.3876 53.2504 23.317 53.2547 23.2394C53.2835 22.6993 53.2813 22.1593 53.2484 21.6196ZM46.2826 24.3867C46.3155 24.4781 46.3727 24.5327 46.4542 24.5506C46.5606 24.6161 46.6266 24.6683 46.652 24.7074C46.9242 25.119 47.0916 25.4371 47.1543 25.6618C47.2762 26.096 47.3221 26.5412 47.292 26.9976C47.2892 27.0418 47.2656 27.0645 47.2214 27.0654C47.0702 27.0687 46.9235 27.0675 46.7813 27.0619C45.7575 27.0228 44.6602 27.0167 43.4894 27.0435C43.4329 27.0444 43.3945 27.0718 43.3743 27.1254C43.3555 27.1754 43.3578 27.2236 43.3814 27.2703C43.4159 27.3389 43.4276 27.4087 43.4395 27.4792C43.4492 27.5372 43.4591 27.5956 43.4817 27.6545C43.509 27.7247 43.5368 27.7944 43.565 27.8636C43.5914 27.9281 43.6314 27.9851 43.6851 28.0346C43.7553 28.0986 43.8214 28.1622 43.8836 28.2253C43.9429 28.2861 44.0218 28.3393 44.1203 28.385C44.4254 28.5258 44.7532 28.5858 45.1036 28.5651C45.2467 28.5571 45.3805 28.5225 45.5048 28.4612C45.6739 28.3774 45.8029 28.2943 45.8919 28.2119C46.0078 28.104 46.1248 27.9741 46.243 27.822C46.2877 27.7636 46.3447 27.7398 46.4139 27.7506C46.5053 27.7647 46.5847 27.805 46.652 27.8714C46.7471 27.9656 46.8507 28.0485 46.9628 28.1201C46.9771 28.1291 46.9893 28.141 46.9989 28.1549C47.0084 28.1688 47.0151 28.1845 47.0185 28.2011C47.0218 28.2176 47.0218 28.2347 47.0185 28.2512C47.0151 28.2677 47.0084 28.2834 46.9988 28.2974C46.8802 28.4716 46.7457 28.6409 46.5955 28.8053C46.5443 28.8615 46.4849 28.8944 46.422 28.9294C46.4042 28.9392 46.3862 28.9492 46.368 28.96C46.3478 28.9717 46.3332 28.9887 46.3242 29.0108C46.3021 29.064 46.2543 29.1095 46.1808 29.1472C45.7217 29.3807 45.2258 29.474 44.6931 29.4269C44.4723 29.4071 44.2846 29.3819 44.1301 29.3513L43.493 29.1161C43.4101 29.0841 43.3394 29.02 43.2811 28.9239C43.2692 28.9044 43.2504 28.8898 43.2281 28.883C43.1687 28.8655 43.1212 28.8326 43.0854 28.7841C43.0359 28.7191 42.9813 28.6555 42.9215 28.5933C42.8678 28.5373 42.8188 28.4744 42.7746 28.4047C42.6432 28.1975 42.5619 28.023 42.5309 27.8813C42.4725 27.6119 42.424 27.3183 42.3853 27.0004C42.3651 26.8356 42.366 26.6778 42.3882 26.5271C42.4094 26.384 42.4277 26.2415 42.4433 26.0997C42.4612 25.9363 42.4833 25.7736 42.5097 25.6116C42.5111 25.6022 42.5148 25.6008 42.521 25.6074L42.5252 25.6116C42.528 25.6159 42.5299 25.6154 42.5309 25.6102C42.5725 25.3298 42.9483 24.7795 43.2019 24.588C43.2792 24.5301 43.3552 24.4727 43.4301 24.4157C43.7939 24.1395 44.2262 24.0597 44.6889 23.9996C44.8486 23.9789 45.0193 23.9841 45.2011 24.0152C45.6086 24.0851 45.8933 24.1776 46.2826 24.3867ZM43.6003 25.548C43.5584 25.5758 43.5262 25.6147 43.5036 25.6646C43.495 25.6834 43.4863 25.7019 43.4776 25.7202L43.4607 25.7552L43.4468 25.7836L43.4467 25.7838C43.4073 25.8645 43.3682 25.9444 43.3369 26.0333C43.2966 26.1485 43.3121 26.335 43.4577 26.3555C44.2144 26.4614 44.943 26.4894 45.6433 26.4395C45.732 26.4334 45.8187 26.4212 45.9057 26.4089C46.0001 26.3955 46.0947 26.3822 46.1921 26.3767C46.2628 26.3724 46.3304 26.3581 46.3949 26.3336C46.4184 26.3246 46.4333 26.3079 46.4394 26.2834C46.461 26.2029 46.4438 26.136 46.3878 26.0828C46.3713 26.0672 46.3624 26.0482 46.361 26.0256C46.3581 25.9813 46.3421 25.9759 46.3129 26.0093L46.2759 25.8814L46.2458 25.7769C46.2227 25.6987 46.1872 25.63 46.1392 25.5706C46.0633 25.476 45.992 25.3809 45.9251 25.2853C45.8446 25.1699 45.7292 25.0762 45.579 25.0041C45.035 24.7432 44.5173 24.7816 44.0256 25.1193C43.8919 25.2111 43.7501 25.354 43.6003 25.548ZM51.5989 25.1228C51.5186 25.0945 51.4395 25.0578 51.3602 25.0211L51.3601 25.0211C51.2339 24.9626 51.1073 24.904 50.9745 24.8784C50.6957 24.8252 50.467 24.8247 50.2886 24.877C49.8675 24.9999 49.5193 25.216 49.3165 25.6088C48.952 26.3157 48.925 27.0056 49.2353 27.6785C49.321 27.865 49.4357 28.0376 49.5793 28.1963C49.8781 28.5269 50.54 28.6696 50.8939 28.5976C51.071 28.5613 51.3105 28.4584 51.6124 28.2889C51.6274 28.2807 51.6391 28.2674 51.6456 28.2514L51.6999 28.1172C51.7103 28.0913 51.7291 28.0746 51.7565 28.0671C51.7904 28.0581 51.8236 28.0567 51.8561 28.0628C51.8806 28.0671 51.8942 28.0814 51.897 28.1059C51.93 28.4351 51.9269 28.7544 51.8878 29.0638C51.8846 29.093 51.869 29.1128 51.8412 29.1231C51.7738 29.1476 51.7126 29.1777 51.6514 29.2077C51.5697 29.2478 51.4881 29.2879 51.392 29.3146C50.621 29.526 49.8791 29.4504 49.1661 29.0878C49.0799 29.044 49.0057 28.9764 48.9436 28.8851C48.928 28.8629 48.9078 28.8465 48.8828 28.8356C48.7863 28.7947 48.7194 28.721 48.6822 28.6145C48.6731 28.589 48.6551 28.5675 48.6313 28.5538C48.5546 28.51 48.4959 28.4497 48.4554 28.3729C48.235 27.9555 48.1199 27.5895 48.0959 27.1198C48.0761 26.7463 48.0799 26.3938 48.1072 26.0623C48.1331 25.7468 48.2628 25.4065 48.4964 25.0415C48.7875 24.5871 49.1793 24.2864 49.6719 24.1395C49.9784 24.0486 50.2601 24.0001 50.5167 23.994C50.7117 23.9897 50.9733 24.0319 51.3015 24.1204C51.4015 24.1471 51.4934 24.1856 51.5848 24.2239C51.6819 24.2646 51.7784 24.3051 51.8836 24.3309C51.9076 24.337 51.9194 24.3523 51.9189 24.3768L51.914 25.298C51.914 25.3352 51.8963 25.3599 51.861 25.3721C51.784 25.3983 51.6894 25.3538 51.6731 25.2669C51.6665 25.2325 51.6573 25.1995 51.6456 25.168C51.6371 25.1454 51.6215 25.1303 51.5989 25.1228ZM60.5646 25.3057C60.4252 25.3655 60.3343 25.4371 60.2919 25.5204C60.2641 25.5741 60.2321 25.6219 60.1958 25.6638C60.1568 25.7086 60.1243 25.7561 60.0984 25.8065C60.0673 25.8649 60.0508 25.9224 60.0489 25.9789C60.0122 27.0456 60.0035 28.1077 60.0228 29.1655L59.2019 29.1535L59.2104 24.162C59.2104 24.1074 59.2375 24.0813 59.2916 24.0836L59.9726 24.1097C60.0079 24.1112 60.0412 24.1266 60.0651 24.1526C60.0891 24.1785 60.1018 24.2129 60.1005 24.2482C60.0981 24.3179 60.1075 24.3834 60.1287 24.4446C60.1377 24.47 60.1551 24.4863 60.181 24.4933C60.2728 24.5178 60.352 24.5027 60.4184 24.4481C60.6237 24.279 60.8462 24.1681 61.0859 24.1154C61.2465 24.0806 61.4137 24.0471 61.5875 24.0151C62.072 23.9247 62.5976 24.0949 63.0186 24.3393C63.0732 24.3714 63.1213 24.4097 63.1627 24.4545C63.2046 24.4995 63.2491 24.5358 63.2929 24.5716C63.3591 24.6258 63.4238 24.6787 63.4757 24.7582C63.5119 24.8143 63.5515 24.8658 63.5943 24.9129C63.6386 24.9619 63.6704 25.0168 63.6897 25.0775C63.701 25.1143 63.7137 25.1508 63.7279 25.187C63.742 25.2237 63.7519 25.2605 63.7575 25.2972L63.7716 25.3877L63.7717 25.3883L63.7717 25.3883C63.7993 25.5644 63.8259 25.7347 63.8253 25.9132C63.822 27.0948 63.8145 28.2168 63.8027 29.2792C63.8024 29.3091 63.7905 29.3377 63.7696 29.359C63.7486 29.3803 63.7203 29.3927 63.6904 29.3936L63.025 29.4134C63.0172 29.4136 63.0094 29.4122 63.0021 29.4094C62.9948 29.4065 62.9882 29.4022 62.9826 29.3967L62.9805 29.3946L62.9794 29.3934L62.9785 29.3923C62.9768 29.3903 62.9753 29.3881 62.9739 29.3859C62.9722 29.3833 62.9708 29.3805 62.9695 29.3776C62.9665 29.3703 62.9649 29.3626 62.9649 29.3548C62.9701 28.3814 62.96 27.4143 62.9346 26.4536C62.9313 26.325 62.919 26.2035 62.8978 26.0891C62.87 25.9389 62.8288 25.8053 62.7742 25.6886C62.7309 25.5953 62.7055 25.5134 62.6979 25.4427C62.6951 25.4173 62.6833 25.3973 62.6626 25.3827C62.6292 25.3591 62.5913 25.3455 62.5489 25.3417C62.5201 25.3394 62.4997 25.325 62.4874 25.2986C62.4139 25.1404 62.2753 25.0347 62.0713 24.9814C61.9282 24.9442 61.7907 24.9117 61.6588 24.884C61.4911 24.8486 61.2922 24.8866 61.0619 24.9977C61.0407 25.0081 61.0186 25.0158 60.9955 25.021C60.9493 25.0309 60.9046 25.0476 60.8613 25.0712C60.7129 25.1517 60.614 25.2299 60.5646 25.3057ZM65.0757 27.4835C65.014 27.095 64.9869 26.7037 64.9944 26.3095C65.0637 25.7321 65.2833 25.2207 65.6535 24.7752C65.7274 24.6862 65.8011 24.6184 65.8746 24.5718C65.9264 24.5393 65.9702 24.5019 66.014 24.4645C66.0694 24.4172 66.1249 24.3698 66.1967 24.3323C66.5716 24.1387 66.9766 24.0243 67.4117 23.989C67.6094 23.9728 67.7943 24.007 67.9818 24.0416C68.0396 24.0523 68.0976 24.063 68.1563 24.0723C68.3841 24.1089 68.5816 24.1975 68.7838 24.2883L68.7841 24.2884L68.835 24.3112L68.8698 24.3266C68.9563 24.3652 69.0145 24.4235 69.0733 24.4825C69.1159 24.5251 69.1588 24.5681 69.2131 24.6043C69.2879 24.6537 69.3499 24.7128 69.3988 24.7816C69.4333 24.8294 69.4718 24.8707 69.5105 24.9123L69.5106 24.9124L69.5107 24.9124C69.5554 24.9604 69.6004 25.0086 69.6397 25.0677C70.1801 25.8807 70.2154 26.7489 69.9788 27.6729C69.8757 28.0748 69.4963 28.6682 69.1551 28.9077C69.0501 28.9811 68.946 29.0511 68.8429 29.1175C68.3209 29.4537 67.5799 29.482 66.9554 29.3774C66.724 29.3386 66.5133 29.2405 66.3009 29.1417L66.3008 29.1416L66.3005 29.1415C66.2271 29.1073 66.1535 29.0731 66.0788 29.0412C66.0477 29.028 66.0222 29.0077 66.0025 28.9804C65.9464 28.9027 65.8758 28.8526 65.7905 28.83C65.7734 28.8254 65.7578 28.8165 65.7451 28.8041C65.7323 28.7918 65.7229 28.7763 65.7178 28.7593C65.6905 28.6698 65.6377 28.6041 65.5596 28.5622C65.5285 28.5457 65.5037 28.5222 65.4854 28.4916C65.4096 28.3654 65.3333 28.2406 65.2565 28.1172C65.1727 27.982 65.1124 27.7708 65.0757 27.4835ZM67.4976 28.5711C67.7092 28.5751 67.9196 28.5311 68.1168 28.4416C68.3141 28.352 68.4943 28.2186 68.6472 28.0491C68.8001 27.8796 68.9227 27.6771 69.008 27.4534C69.0933 27.2297 69.1396 26.989 69.1442 26.7452C69.1489 26.5014 69.1119 26.2591 69.0353 26.0323C68.9586 25.8055 68.8439 25.5985 68.6976 25.4232C68.5513 25.2479 68.3763 25.1077 68.1827 25.0107C67.989 24.9136 67.7805 24.8615 67.5689 24.8575C67.3573 24.8534 67.1469 24.8974 66.9497 24.987C66.7524 25.0765 66.5722 25.2099 66.4193 25.3795C66.2664 25.549 66.1438 25.7514 66.0585 25.9751C65.9732 26.1989 65.9269 26.4395 65.9222 26.6833C65.9175 26.9272 65.9546 27.1694 66.0312 27.3963C66.1078 27.6231 66.2226 27.8301 66.3689 28.0054C66.5152 28.1806 66.6901 28.3208 66.8838 28.4179C67.0775 28.515 67.286 28.567 67.4976 28.5711ZM74.2956 26.2092L74.3302 26.0269C74.3345 26.0039 74.3425 25.9824 74.3543 25.9627C74.3924 25.8972 74.4058 25.8193 74.3945 25.7288C74.4798 25.4698 74.6041 25.2261 74.7675 24.9977C74.9366 24.7622 75.1332 24.5713 75.3573 24.4248C76.0119 23.9981 76.748 23.8872 77.5656 24.0921C77.8246 24.1571 78.0367 24.2522 78.202 24.3775C78.3193 24.4656 78.4384 24.544 78.5595 24.6127C78.5783 24.6236 78.5927 24.6384 78.6026 24.6572C78.6354 24.7207 78.6807 24.7607 78.7257 24.8003C78.7678 24.8374 78.8095 24.8743 78.8406 24.9299C78.882 25.004 78.9269 25.0757 78.9717 25.1472L78.9718 25.1474L78.9719 25.1475C79.0709 25.3055 79.1696 25.4629 79.2284 25.6448C79.4992 26.4774 79.4644 27.2773 79.1239 28.0444C79.0222 28.2742 78.8529 28.5064 78.616 28.7409C78.2896 29.063 77.943 29.2653 77.5762 29.3477C76.8778 29.505 76.2288 29.4447 75.6293 29.1669C75.4913 29.1033 75.3621 29.019 75.2415 28.914C75.1205 28.8085 75.0067 28.6997 74.9003 28.5876C74.6446 28.3173 74.4633 27.9839 74.3564 27.5874C74.2537 27.2078 74.2335 26.7484 74.2956 26.2092ZM76.7949 28.5746C77.2199 28.5821 77.631 28.3932 77.9376 28.0497C78.2442 27.7062 78.4213 27.2362 78.4299 26.7429C78.4386 26.2497 78.278 25.7738 77.9835 25.4198C77.6891 25.0658 77.2849 24.8627 76.8598 24.8553C76.4348 24.8479 76.0238 25.0367 75.7171 25.3802C75.4105 25.7237 75.2334 26.1938 75.2248 26.687C75.2162 27.1802 75.3768 27.6562 75.6712 28.0102C75.9657 28.3642 76.3699 28.5672 76.7949 28.5746ZM83.9394 24.4248C84.0039 24.7234 84.1706 24.8514 84.4395 24.8091C84.4683 24.8048 84.4838 24.7883 84.4862 24.7596C84.4975 24.624 84.4881 24.4693 84.4579 24.2955C84.4561 24.2848 84.4566 24.2738 84.4594 24.2634C84.4622 24.2529 84.4673 24.2432 84.4743 24.2349C84.4752 24.2339 84.4761 24.2329 84.477 24.232C84.478 24.2308 84.4792 24.2297 84.4803 24.2286C84.4824 24.2267 84.4846 24.2248 84.4869 24.2231C84.491 24.2201 84.4953 24.2176 84.4999 24.2154C84.5098 24.2109 84.5205 24.2086 84.5314 24.2086L85.0612 24.2072C85.0885 24.2072 85.1055 24.2206 85.112 24.2475C85.1537 24.4201 85.1303 24.5884 85.1065 24.7591C85.0928 24.8574 85.079 24.9565 85.0774 25.0577C85.0704 25.5225 85.0692 25.9786 85.0739 26.426C85.0767 26.6944 85.1014 27.1491 85.1481 27.7901C85.198 28.4649 85.2105 29.148 85.1855 29.8393C85.1813 29.934 85.1549 30.0614 85.1064 30.2215C84.9303 30.8059 84.607 31.2505 84.1365 31.5552C83.8398 31.7473 83.4866 31.8606 83.0769 31.895C82.6987 31.9265 82.3203 31.9011 81.9417 31.8187L81.5341 31.6463C81.3839 31.6087 81.2647 31.5672 81.1767 31.522C81.1319 31.4994 81.1082 31.4627 81.1053 31.4118C81.0865 31.0558 81.0816 30.7223 81.0905 30.4115C81.0908 30.404 81.0932 30.3966 81.0975 30.3904C81.0998 30.3872 81.1025 30.3843 81.1056 30.3819C81.1084 30.3797 81.1115 30.3779 81.1149 30.3765C81.1219 30.3736 81.1295 30.3727 81.137 30.3741C81.1444 30.3754 81.1513 30.3788 81.1569 30.384C81.2313 30.4532 81.3128 30.5048 81.4013 30.5387C81.4551 30.5593 81.4923 30.5957 81.5299 30.6324L81.53 30.6325C81.5606 30.6623 81.5914 30.6924 81.6316 30.7146C82.1529 31.0035 82.8713 31.2006 83.4047 30.9074C84.1422 30.5027 84.2969 29.7525 84.2898 28.974C84.2893 28.9307 84.2827 28.8883 84.27 28.8469C84.2661 28.8344 84.259 28.8232 84.2494 28.8144C84.2398 28.8056 84.2281 28.7994 84.2154 28.7964C84.2027 28.7935 84.1895 28.794 84.177 28.7977C84.1645 28.8015 84.1532 28.8084 84.1443 28.8179L84.1364 28.8263C83.95 29.0238 83.7971 29.1857 83.5262 29.2728C82.8141 29.5024 82.0533 29.4918 81.3773 29.1294C81.2591 29.0658 81.1548 28.9858 81.0644 28.8892C81.0148 28.8368 80.9618 28.7878 80.9089 28.7388L80.9088 28.7388C80.7929 28.6316 80.6774 28.5248 80.5988 28.3827C80.3653 27.958 80.2325 27.5485 80.2004 27.1543C80.1263 26.2395 80.2492 25.3855 80.8736 24.6918C81.0917 24.4493 81.3512 24.2753 81.6521 24.1698C82.0561 24.0275 82.4162 23.9708 82.7322 23.9995C82.995 24.0231 83.3069 24.1038 83.6682 24.2418C83.7237 24.263 83.8141 24.324 83.9394 24.4248ZM84.2368 26.0029C84.2392 25.8536 84.1476 25.693 83.962 25.5211C83.7251 25.2174 83.4393 25.0158 83.1044 24.9164C82.7409 24.8081 82.3801 24.8566 82.0222 25.062C81.5692 25.3214 81.2942 25.722 81.1972 26.2635C81.1623 26.4571 81.1548 26.6966 81.1746 26.982C81.2019 27.3676 81.329 27.6945 81.556 27.9624C81.6712 28.0988 81.8153 28.2662 81.97 28.3552C82.6997 28.772 83.4117 28.5389 83.9359 27.9412C84.0847 27.7717 84.1801 27.5885 84.222 27.3917C84.3082 26.9876 84.3131 26.5247 84.2368 26.0029ZM87.7738 24.2963C87.7747 25.0149 87.7752 25.7418 87.7752 26.4769C87.7752 27.1174 87.7964 27.509 87.8388 27.6517C87.9617 28.0684 88.2692 28.3607 88.7613 28.5283C88.9351 28.5876 89.1075 28.5961 89.2784 28.5537C89.9905 28.3778 90.4652 27.9173 90.4666 27.1614C90.4689 26.1984 90.4696 25.241 90.4687 24.2892L91.2168 24.3125C91.2321 24.3129 91.2466 24.3193 91.2573 24.3304C91.268 24.3415 91.274 24.3563 91.274 24.3718C91.2688 25.5101 91.2705 26.5308 91.2789 27.4341C91.2808 27.6182 91.2956 27.804 91.3234 27.9914C91.3691 28.2957 91.3858 28.6013 91.3736 28.9084C91.3642 29.1405 91.3576 29.3889 91.3538 29.6536C91.35 29.8985 91.3373 30.1462 91.3157 30.3967C91.0444 31.1865 90.4715 31.7707 89.6203 31.9042L89.1082 31.9685C88.6695 32.0067 88.3058 31.9363 87.8383 31.8458L87.7603 31.8307C87.6356 31.8067 87.5326 31.7667 87.4517 31.7107C87.3363 31.6311 87.211 31.576 87.0758 31.5454C87.0567 31.5409 87.0397 31.5302 87.0275 31.5149C87.0154 31.4996 87.0087 31.4807 87.0087 31.4613L87.0059 30.5246C87.0059 30.5172 87.0074 30.5099 87.0102 30.5031C87.0115 30.4999 87.0131 30.4969 87.015 30.4941C87.0165 30.4917 87.0183 30.4894 87.0202 30.4873L87.0225 30.4849C87.0277 30.4797 87.034 30.4756 87.0408 30.4728C87.0429 30.472 87.045 30.4713 87.0471 30.4707L87.0518 30.4697C87.0553 30.4691 87.0588 30.4688 87.0624 30.4688C87.2042 30.4702 87.328 30.5274 87.434 30.6405C87.4886 30.6988 87.559 30.7478 87.6452 30.7874C88.0639 30.9809 88.4875 31.0878 88.916 31.1081C89.0531 31.1147 89.2066 31.0954 89.3766 31.0502C89.961 30.8943 90.3069 30.5175 90.4143 29.9199C90.4666 29.6284 90.4894 29.3155 90.4828 28.9811C90.4823 28.9411 90.4703 28.8989 90.4468 28.8547C90.4534 28.8297 90.4529 28.809 90.4454 28.7925C90.4341 28.7675 90.4152 28.7595 90.3889 28.7685C90.3526 28.7807 90.3251 28.8097 90.3062 28.8554C90.1838 29.0301 90.0743 29.1391 89.9777 29.1824C89.3552 29.4622 88.7199 29.5036 88.0719 29.3068C87.9927 29.2829 87.9195 29.2469 87.8465 29.211C87.7833 29.1799 87.7202 29.1489 87.6537 29.1259C87.5769 29.099 87.538 29.0515 87.4996 29.0045C87.4694 28.9675 87.4394 28.9309 87.3916 28.9048C87.2941 28.8516 87.2329 28.7694 87.2079 28.6583C87.2065 28.6519 87.2041 28.6457 87.2009 28.64C87.1987 28.6362 87.1962 28.6326 87.1934 28.6293C87.1863 28.6209 87.1772 28.6144 87.167 28.6103C87.0855 28.5768 87.0353 28.5269 87.0165 28.4605C86.9694 28.2947 86.9322 28.1904 86.9049 28.1476C86.9223 28.0769 86.9129 27.9691 86.8766 27.824C86.8475 27.7078 86.8785 27.5778 86.9096 27.4476C86.9312 27.3569 86.9529 27.2662 86.9543 27.1798C86.9706 26.2269 86.9699 25.2852 86.9678 24.3634C86.9673 24.329 86.9845 24.3113 87.0193 24.3104L87.7738 24.2963ZM30 17.1665C30 25.2813 23.4216 31.8597 15.3068 31.8597C7.19203 31.8597 0.613678 25.2813 0.613678 17.1665C0.613678 9.05173 7.19203 2.47338 15.3068 2.47338C23.4216 2.47338 30 9.05173 30 17.1665ZM28.8697 17.1665C28.8697 24.6571 22.7974 30.7295 15.3068 30.7295C7.81624 30.7295 1.74392 24.6571 1.74392 17.1665C1.74392 9.67595 7.81624 3.60363 15.3068 3.60363C22.7974 3.60363 28.8697 9.67595 28.8697 17.1665ZM15.3068 29.8818C22.3293 29.8818 28.0221 24.189 28.0221 17.1665C28.0221 10.1441 22.3293 4.45131 15.3068 4.45131C8.28441 4.45131 2.5916 10.1441 2.5916 17.1665C2.5916 24.189 8.28441 29.8818 15.3068 29.8818ZM20.8026 8.43829C20.6284 8.23909 20.3776 8.04789 20.0503 7.86469L19.7621 7.76226C19.7463 7.75666 19.7295 7.75431 19.7128 7.75536C19.6961 7.7564 19.6797 7.76082 19.6648 7.76834C19.6498 7.77586 19.6365 7.78634 19.6257 7.79913C19.6148 7.81193 19.6067 7.82678 19.6018 7.84279C19.5262 8.08862 19.4047 8.2518 19.1942 8.41286C18.509 8.9363 17.686 9.22239 16.8843 9.49788L16.8842 9.4978C16.2579 9.71255 15.6374 9.91905 15.0229 10.1173C14.3377 10.3387 13.5265 10.6601 12.5893 11.0816C11.8043 11.4343 11.0948 11.8671 10.4609 12.3799C10.0578 12.7063 9.74981 13.088 9.53695 13.525C9.22801 14.1608 9.20635 14.8196 9.47196 15.5015C9.57697 15.7704 9.65068 15.9367 9.69306 16.0002C9.99681 16.4547 10.3566 16.858 10.7724 17.2103C10.8967 17.3153 11.0348 17.387 11.1771 17.4609L11.1776 17.4612C11.2179 17.4821 11.2586 17.5032 11.2994 17.5254C11.4934 17.6384 11.8424 17.7928 12.3463 17.9888C12.9759 18.2336 14.3209 18.8009 16.3813 19.6905C16.5028 19.7428 16.6238 19.7861 16.7444 19.8205C16.8621 19.8539 16.8612 19.8836 16.7415 19.9095C16.5485 19.951 16.369 20.0135 16.1918 20.0752C16.083 20.1131 15.9752 20.1506 15.8656 20.1828C15.4592 20.3025 15.0546 20.4277 14.652 20.5586C14.0101 20.7776 13.3788 21.0223 12.7581 21.2926C12.0955 21.5808 11.4645 21.9453 10.865 22.3861C10.2589 22.8319 9.57862 23.4627 9.39991 24.2051C9.27181 24.7373 9.33633 25.243 9.59346 25.7224C9.65177 25.8309 9.72985 25.9112 9.81081 25.9944L9.81085 25.9945L9.81093 25.9946L9.81101 25.9946C9.83493 26.0192 9.8591 26.0441 9.88308 26.07C10.0964 26.3 10.4394 26.4822 10.7226 26.6326L10.7253 26.6341L10.7724 26.6591C10.7816 26.6641 10.7916 26.667 10.802 26.6678C10.8123 26.6685 10.8227 26.6671 10.8324 26.6635C10.8421 26.66 10.851 26.6544 10.8585 26.6472C10.8659 26.64 10.8717 26.6313 10.8756 26.6217C10.9749 26.3735 11.1334 26.1592 11.351 25.9789C11.683 25.7038 12.1483 25.4625 12.7468 25.2548L14.5799 24.6551C15.599 24.3565 16.5939 24.0101 17.5645 23.6159C18.302 23.3348 18.9641 23 19.5509 22.6114C19.9479 22.3491 20.3369 22.0049 20.7179 21.5787C20.9246 21.3475 21.0741 21.1214 21.1664 20.9005C21.4525 20.216 21.3904 19.3684 21.0739 18.7142C20.8898 18.3347 20.6211 17.9593 20.2679 17.5882C20.1106 17.4234 19.9455 17.2871 19.7727 17.1792C19.5297 17.028 19.3413 16.9233 19.2076 16.8649C18.8473 16.7076 18.5097 16.5573 18.1946 16.4142C17.7905 16.2305 17.451 16.0822 17.176 15.9691C15.7255 15.372 14.7869 14.9922 14.3603 14.8297C14.1535 14.7506 14.0247 14.6922 13.9739 14.6545C14.093 14.5453 14.2133 14.4711 14.3348 14.432C14.9094 14.2455 15.4837 14.0569 16.0577 13.8662C16.1774 13.8266 16.3384 13.7645 16.5409 13.6797C16.6991 13.6138 16.8606 13.5537 17.0255 13.4996L17.0255 13.4997C17.788 13.1653 18.3364 12.9011 18.6707 12.7071C19.2062 12.3963 19.6872 12.0544 20.1139 11.6814C20.4798 11.3616 20.7555 11.032 20.9411 10.6924C21.254 10.1195 21.3452 9.33189 21.0061 8.74699C20.9185 8.59582 20.8507 8.49292 20.8026 8.43829Z" fill="white"/>
</g>
<defs>
<clipPath id="clip0_4595_8344">
<rect width="90.7726" height="32" fill="white" transform="translate(0.613678 0.000976562)"/>
</clipPath>
</defs>
</svg>
