<svg xmlns="http://www.w3.org/2000/svg" width="146" height="26" fill="none"><g clip-path="url(#a)"><path fill="#fff" fill-rule="evenodd" d="M25.017 12.249c-.01-.455-.147-1.109-.243-1.496-.06-.24.07-.134.208.273-.134-.619-.346-1.282-.392-1.282-.032 0-.03.044-.029.085 0 .02.001.038-.002.05a2.158 2.158 0 0 1-.055-.174c-.026-.087-.055-.186-.087-.267-.074-.18-.148-.285-.096-.122.1.295.49 1.865.532 2.143a42.608 42.608 0 0 1-.098-.351v-.004l-.023-.082a17.86 17.86 0 0 0-1.547-3.764l.047.039a.936.936 0 0 1 .055.049l.003-.03.018-.178.132.19v.001h.001c.078.113.152.218.224.325-.172-.462-.445-.87-.714-1.27-.09-.136-.18-.27-.266-.406l-.045.074a8.139 8.139 0 0 0-.393-.497c-.293-.352-.584-.701-.73-1.137a1.007 1.007 0 0 0-.024.066c-.013-.155-.117-.19-.216-.223-.104-.034-.2-.067-.18-.233.239.124.636.448.827.623.181.167.265.175.331.181l.01.001c.034.003.017-.022-.004-.053-.02-.031-.044-.067-.024-.085.034-.03.275.265.508.55.114.14.226.277.31.373-.493-1.105-1.554-1.725-2.605-2.34-.474-.276-.945-.552-1.362-.87-3.52-2.284-8.251-2.873-12.021-.686a11.75 11.75 0 0 0-.495.308c-.065.043.006.027.065.014.03-.007.058-.013.06-.01-.06.044-.116.083-.175.123l-.128.087c-.064.045-.01.045.035.044.032 0 .06 0 .04.015-.051.038-.265.327.015.142l.014-.009c.276-.182.586-.386.752-.386.123 0-.29.251-.641.465-.131.08-.254.154-.337.208l-.021.014c-.475.31-.896.584-1.167.775-.23.164-.47.329-.52.295-.067-.05.087-.204.191-.308.039-.039.07-.07.081-.087.033-.05-.064 0-.151.043-.079.04-.149.075-.103.027.304-.3.623-.584.958-.85l.04-.03c.21-.16.337-.256.333-.327-.004-.075-.24.047-.492.185-1.514.827-2.208 2.421-2.87 3.94-.139.318-.276.632-.419.936l.229-.017a9.045 9.045 0 0 1-.144.289c-.158.308-.31.606-.34.953a.818.818 0 0 0 .091-.08c.05-.048.097-.094.167-.116.031.106-.003.205-.037.305a1.287 1.287 0 0 0-.037.117c.007 0 .013.003.019.005a.065.065 0 0 0 .011.005l.1-.266V8.53l.066-.175.054.004.076.007-.069.513c-.124.935-.248 1.864-.5 2.782l.09-.85h-.031c-.064.286-.085.58-.064.871l-.002.005.014-.013c-.15.46-.101.919-.052 1.387.037.35.075.705.03 1.07h-.03c-.017-.099-.038-.198-.06-.297-.07-.32-.139-.638-.07-.974l-.063.08a13.381 13.381 0 0 0-.038-.34c-.008-.082-.116-.082-.11-.01.015.168.01.334.005.5-.009.28-.018.56.07.845l.025-.092.018-.066.101.47c.163.757.385 1.788.305 1.621a3.05 3.05 0 0 1-.158-.478c-.025-.09-.05-.18-.077-.264.1.88.415 1.711.736 2.53-.025 0-.098-.058-.154-.189-.033-.08-.117-.074-.103-.028.085.214.182.423.29.625-.044-.14-.093-.307-.08-.331.153.179.312.49.439.736.039.076.074.145.106.203l.067.122c.175.32.496.903.227.522l-.135-.19c-.34-.475-.884-1.233-1.163-1.89-.044-.101-.08-.226-.11-.332-.035-.124-.063-.222-.088-.224-.035-.002-.039.058-.041.103 0 .014-.002.026-.003.035a.375.375 0 0 1-.03-.114c-.01-.063-.022-.127-.044-.119-.035.013.024.289.073.516.04.188.074.343.04.286-.075-.123-.21-.688-.241-.856.015.207.055.402.086.549.023.11.04.193.036.23-.241-.38-.204-.786-.179-1.065.007-.073.013-.137.013-.19.003.147.032.292.084.43-.024-.182-.01-.37 0-.503.007-.073.011-.13.007-.16-.01-.088-.131-.017-.124.086a.47.47 0 0 1-.02-.065c-.011-.042-.021-.08-.04-.075-.025.006-.028.072-.031.129l-.002.037a.135.135 0 0 1-.014-.029c-.006-.017-.011-.032-.024-.023-.006.005-.01.039-.013.078-.006.074-.014.168-.052.143-.02-.012-.015-.097-.008-.203.004-.063.008-.133.008-.2 0-.166-.02-.309-.053-.295-.04.014-.038.047-.033.122.003.056.009.133 0 .242-.011.133-.081.08-.137.039-.041-.031-.074-.056-.066.01.002.017-.002.046-.008.084-.012.086-.032.219 0 .366.023.105.021.235.02.334-.002.102-.003.17.025.14a.18.18 0 0 0 .042-.073c.006-.02.012-.035.031-.05.004.005.006.014.007.023.004.018.008.037.028.026.02-.01.024-.043.028-.08a.46.46 0 0 1 .012-.063c.894 5.264 5.79 7.68 10.472 9.115l-.089.04c5.693 1.097 11.536-3.463 13.078-8.702.04-.138.134-.672.196-1.057-.207.69-.352.672-.348.623.056-.462.12-.777.236-.992.334-.523.128-1.856.026-1.923-.064-.041-.096.025-.11.053l-.006.012c.008-.105.036-.453-.042-.285-.012.024-.014.16-.017.37-.01.88-.039 3.08-.88 4.14-.03-.588.186-1.158.4-1.727.09-.235.178-.47.25-.705l-.02-.006c-.053.085-.106.173-.161.266l-.03.05a.923.923 0 0 0-.006-.027l-.007-.028-.006-.023c-.034.02-.052.054-.07.088-.029.052-.057.104-.136.108l.028-.152c.021-.116.042-.228.061-.34-.27.492-.47 1.038-.67 1.588-.299.817-.6 1.642-1.142 2.318-.12.147.014-.207.157-.582l.13-.345c.146-.397.118-.575-.155-.077-.32.583-.913 1.298-1.4 1.75-1.727 1.602-3.73 3.04-6.195 3.126v.016h.221c-1.75.203-3.784.044-5.408-.707a.12.12 0 0 1 .009-.016c.065.023.152.06.241.1.224.097.468.203.455.117-.004-.026-.157-.085-.39-.176a14.326 14.326 0 0 1-.876-.366c-.88-.413-1.87-.968-1.934-1.022-.069-.056-.014.008.04.07a.47.47 0 0 1 .067.084c-1.244-.86-2.105-2.241-2.766-3.642-.046-.096-.107-.181-.168-.268-.073-.1-.146-.204-.2-.331-.07-.168-.106-.481-.087-.51.08-.13-.114-.261-.1-.05.053.295.127.585.221.87.037.105-.087-.11-.133-.236-.299-.802-.337-.973-.4-1.25l-.008-.038c0 .766.512 1.933.688 2.332l.045.105c-.136-.093-.332-.362-.423-.636l.075.256c.062.204.11.364.105.44-.27-.48-.507-1.285-.68-1.873-.123-.42-.214-.73-.261-.73-.08 0-.046.142-.016.272.012.053.024.105.028.144-.268-.403-.442-1.683-.341-2.01.073-1.461.3-2.957.814-4.334a.013.013 0 0 1 0-.01c0-.005.003-.01.006-.016l.004-.011c.442-1.17 1.083-2.253 2.008-3.15a.103.103 0 0 1-.013-.009.154.154 0 0 0-.009-.007c-.155.141-.31.275-.465.41L5 7.04c.107-.345.358-.598.606-.848.207-.209.411-.415.526-.668L6.1 5.5c.134-.124.266-.244.422-.385l.008-.007c-.111.05-.2.128-.285.203-.128.112-.251.22-.436.23.793-.898 1.962-1.666 2.84-2.187-.081.05-.073.208.087.264.082.029.155-.044.236-.127a.663.663 0 0 1 .219-.168c1.204-.48 2.505-.422 3.694-.193-1.278-.458-2.917-.318-3.272-.234.322-.16.77-.17 1.035-.176.052 0 .097-.002.133-.004 3.699-.19 7.214 2.232 9.36 5.173.118.163.368.553.462.84.04.122.261.512.338.456.078-.056-.047-.369-.203-.554-.15-.178-.258-.384-.401-.655-.061-.116-.128-.245-.208-.388l.248.294c.14.167.269.319.403.481-.262-.455-.736-1.02-1.138-1.5-.344-.41-.635-.756-.694-.916.7.511 1.235 1.174 1.68 1.895.39.635.785 1.468 1.032 1.989l.017.035c.016.04.035.078.058.114a23.034 23.034 0 0 0-.368-.875c-.15-.476-.383-.934-.615-1.393l-.001-.001c-.089-.175-.178-.35-.262-.527l.091.08c.06.054.082.073.1.07.01-.002.018-.01.031-.022l.01-.009c.027-.025-.044-.145-.136-.298-.102-.17-.228-.38-.266-.545l.77 1.205a20.406 20.406 0 0 1-.098-.245 29.091 29.091 0 0 0-.063-.157l.02-.009c.258.318.512.635.767.952l.175.218c-.148-.307-.345-.585-.541-.862a6.08 6.08 0 0 1-.517-.817l.021-.01.03-.015c.187.306.527.667.762.916.104.111.188.2.229.253.058.075.01-.024-.048-.14-.07-.145-.154-.317-.06-.208.17.196.432.57.488.651.056.082.1.084.028-.02l-.224-.322-.602-.867.028-.02c.704.917 1.374 1.88 1.768 2.973-.33-1.313-1.161-2.409-1.978-3.486-.21-.277-.418-.552-.618-.83.33.262.592.582.853.902.13.16.26.32.4.473a.221.221 0 0 1 .026-.018l-.067-.124c-.036-.069-.072-.137-.108-.201.811.705 1.394 2.52 1.567 3.06.024.076.04.126.048.144.06.147-.042-.305-.112-.613s.05-.221.046-.01c0 .069.033.18.072.31.082.274.189.63.06.853a2.112 2.112 0 0 1-.05-.084l-.009-.016c.073.22.1.444.125.664.03.254.059.502.157.735.084.687.045 1.374.008 2.057l-.008.13h.024l.042-.323.044-.347h.03v.26c.015-.138.016-.279.017-.42.003-.27.005-.542.1-.783.026.213.051.425.08.635a.37.37 0 0 0 .049-.004c.084-.871-.005-1.737-.095-2.603l-.006-.063c.014 0 .026 0 .037-.005l.017.107.042.28.02-.047.005-.013v-.002l.026-.061c.033.088.06.178.087.267.06.2.118.397.247.564a2.33 2.33 0 0 1 .001-.615c.011-.117.022-.233.022-.352.1.254.164.663.204.923.02.126.034.216.044.238.03.062.032-.04.024-.07.065.194.118.623.15.878.018.148.03.236.03.185.01-.294 0-.588-.03-.88.064.201.111.408.142.617Zm-3.182 8.429c-.19.14-.21.142.024-.148.233-.29.744-1.105.938-1.454.099-.178.087-.063.076.051-.01.109-.02.215.066.059l.068-.12c.143-.25.258-.45.436-1.117.019.243-.233 1.225-.555 1.778-.267.46-.741.988-1.03 1.31l-.149.168c-.235.271.43-.611.673-.913.175-.21.321-.442.436-.69-.245.343-.797.936-.983 1.076ZM4.47 18.892c.294.81 1.529 2.047 2.124 2.363-.978-.421-1.794-.998-1.93-1.267-.088-.172.055-.14.181.01.11.145.249.265.407.355-.494-.638-.715-1.054-.782-1.461Zm3.86-17.11-.002.001c-.294.091-.552.171-.212-.012.305-.164.982-.404 1.105-.276.083.087-.223.147-.52.204-.14.028-.277.054-.37.083Zm10.082 3.14c.414.074.587.424.721.695.06.12.111.225.173.283-.373-.346-.75-.729-.894-.979Zm1.825.895a.628.628 0 0 1-.173-.277c.125.118.24.245.346.38.038.045-.052.001-.172-.103Zm18.61 4.503L39.9 8.241a6.498 6.498 0 0 0-3.549-1.084c-1.844 0-3.728 1.356-3.728 3.492 0 1.192.804 2.26 2.176 2.94.258.128.51.246.751.358 1.027.479 1.828.853 1.828 1.526 0 1.067-1.081 1.123-1.65 1.123-1.275 0-2.8-1.29-2.8-1.29l-1.303 2.191s1.622 1.51 4.298 1.51c2.231 0 4.31-.953 4.31-3.683 0-1.498-1.4-2.579-2.675-3.119l-.015-.006c-1.297-.552-2.369-1.008-2.369-1.643 0-.624.474-1.026 1.358-1.026 1.179 0 2.315.79 2.315.79Zm15.802 6.196H50.71V7.364h-2.605V18.8h6.542v-2.283ZM66.733 7.16c3.174 0 5.753 2.578 5.753 5.919 0 3.34-2.467 5.932-5.753 5.932-3.382 0-5.766-2.592-5.766-5.932 0-3.34 2.62-5.92 5.766-5.92Zm0 9.328c2.08 0 2.939-1.705 2.939-3.41 0-1.704-.915-3.409-2.939-3.409-2.009 0-2.952 1.705-2.952 3.41 0 1.704.818 3.41 2.952 3.41Zm19.875-9.124h-8.04v2.29h2.717v9.148h2.606v-9.15h2.717V7.364Zm16.509 4.66h-.07l-2.342 6.71h-1.552l-2.343-6.71h-.07l-.54 6.778h-2.602l1.023-11.438h2.771l2.537 6.598 2.536-6.598h2.773l1.026 11.435h-2.607l-.54-6.774Zm11.404 6.778h2.608l-.003-11.438h-2.605v11.438Zm14.366-2.286h3.936V18.8h-6.542V7.363h2.606v9.152Zm16.476 0h-3.937V7.364h-2.606V18.8h6.543v-2.283ZM3.503 9.776l-.235 1.139.046.02.221-1.153-.032-.007ZM22.62 17.39c-.088.165-.197.475 0 .307.197-.168.09-.474 0-.307Zm1.524-2.137c.032-.083.039-.204.044-.296.006-.12.01-.19.065-.055.097.24-.221.657-.109.351Zm-23.312-.07c.098-.005.142.643.084.526a.219.219 0 0 0-.067-.076.287.287 0 0 1-.115-.187c-.044-.189.001-.257.098-.262Zm.252-.113-.015-.035c-.042-.106-.128-.317-.095-.365.037-.055.091-.034.128.087.037.121.018.408-.018.313Zm1.74.144a1.4 1.4 0 0 0-.007.026c-.014.058-.06-.1-.05-.171.012-.073.045-.092.079-.068.03.021-.004.146-.022.213Zm-1.65-.806c.099-.006.028.117-.025.165-.028.025-.09-.157.025-.165Zm.302 1.133c.078.02.025.092-.015.114-.022.014-.075-.136.015-.114Zm20.476-5.736c-.074-.178.122.18.245.516l.01.027c.07.186.128.342.093.438-.037.103-.09-.098-.16-.368-.053-.199-.115-.436-.188-.613Zm.434-.657c-.05.02-.134-.105-.263-.344-.073-.135.19.023.264.117.073.095.05.205 0 .227Zm.204.057c.03.095.2.052.129-.045-.072-.096-.163-.058-.13.045Zm1.671 5.224c.008.086-.154.082-.128-.013.026-.095.12-.082.128.013Zm.47 1.48c.038-.13-.08-.147-.09-.031-.013.127.052.157.09.032Zm-.789-.7c.036.172-.2.315-.189.09.012-.223.153-.28.19-.09ZM5.904 2.065l.07-.04c.11-.061.251-.14.225-.196-.032-.069-.216.065-.295.14-.078.076-.104.158 0 .096ZM3.752 16.264c-.064-.034-.01-.113.03-.088.039.026.054.132-.03.088ZM21.221 9.31c-.06.013-.005.184.063.16.068-.024.005-.174-.063-.16Zm.884-.879a.043.043 0 0 1 .017-.008c.067-.014.098.056.03.08a.043.043 0 0 1-.063-.041.042.042 0 0 1 .017-.031Zm-.182 1.067c-.022-.081.214.126.155.226-.06.1-.12-.098-.155-.226ZM8.282 3.926c-.106-.025-.004-.096.087-.143.094-.046.157-.047.134.034a.178.178 0 0 1-.221.109Z" clip-rule="evenodd"/></g><defs><clipPath id="a"><path fill="#fff" d="M.333.001h145.333v26H.333z"/></clipPath></defs></svg>