<svg width="146" height="26" viewBox="0 0 146 26" fill="none" xmlns="http://www.w3.org/2000/svg">
<g clip-path="url(#clip0_4659_8274)">
<path fill-rule="evenodd" clip-rule="evenodd" d="M25.0171 12.2488C25.0075 11.7936 24.8697 11.1401 24.7739 10.7526C24.7135 10.5124 24.8439 10.6192 24.9817 11.0259C24.8483 10.4071 24.6361 9.74402 24.5897 9.74402C24.5582 9.74402 24.5597 9.78839 24.5611 9.82926V9.82928C24.5617 9.84846 24.5624 9.86687 24.5595 9.87955C24.5436 9.84072 24.5248 9.77708 24.5037 9.70539C24.4779 9.61794 24.4486 9.51852 24.4166 9.43755C24.3429 9.25782 24.2693 9.15315 24.3209 9.31602C24.4218 9.61069 24.8115 11.1814 24.8535 11.4591C24.8208 11.3444 24.785 11.2146 24.7555 11.1075L24.755 11.1059L24.7548 11.1052L24.7545 11.1038L24.7544 11.1035L24.7319 11.0222C24.3614 9.71248 23.8423 8.44942 23.1849 7.25762C23.2033 7.27354 23.2183 7.28607 23.2315 7.29702C23.253 7.31495 23.2694 7.32864 23.2873 7.34602L23.2902 7.31629L23.2903 7.31531C23.2956 7.26077 23.3004 7.21111 23.3079 7.13829C23.3537 7.2044 23.3974 7.26709 23.4397 7.32772L23.4405 7.32889L23.4405 7.32896L23.441 7.32969C23.5193 7.44196 23.5927 7.54719 23.6652 7.65395C23.4929 7.19216 23.2198 6.78462 22.9514 6.38405L22.9514 6.38404L22.9514 6.38402C22.8606 6.24848 22.7703 6.11373 22.6846 5.97795C22.6706 6.00149 22.6595 6.01996 22.6404 6.05162C22.5182 5.87946 22.3825 5.71676 22.2473 5.55468C21.9539 5.20279 21.6629 4.85386 21.5177 4.41755C21.5124 4.43286 21.5081 4.44465 21.504 4.45568L21.504 4.45575C21.5006 4.46487 21.4974 4.47348 21.4941 4.48315C21.4804 4.32944 21.3759 4.29443 21.2773 4.26136C21.1735 4.2266 21.0762 4.19399 21.0977 4.02782C21.3357 4.15162 21.7328 4.47576 21.9236 4.65109C22.1055 4.81828 22.189 4.82604 22.2551 4.83218L22.2647 4.83309C22.2986 4.83639 22.2816 4.81074 22.2611 4.77985C22.2407 4.74902 22.2168 4.71297 22.2367 4.69529C22.2713 4.66562 22.5118 4.96 22.7446 5.24499C22.8586 5.38452 22.9707 5.5218 23.0559 5.61769C22.5617 4.51343 21.5008 3.89313 20.4497 3.27851C19.9762 3.00169 19.5048 2.72603 19.0879 2.40782C15.5679 0.124018 10.8367 -0.465382 7.067 1.72195C6.899 1.81988 6.66987 1.96429 6.57193 2.02989C6.50737 2.07306 6.57841 2.05712 6.63712 2.04394C6.66752 2.03712 6.69461 2.03104 6.69787 2.03429C6.63727 2.07788 6.58055 2.11657 6.5216 2.15678L6.52158 2.15679C6.48092 2.18453 6.43919 2.21299 6.3944 2.24428C6.32985 2.28932 6.38396 2.28877 6.42935 2.28832C6.46117 2.288 6.4887 2.28772 6.46807 2.30322C6.41793 2.34075 6.20427 2.62955 6.48427 2.44535L6.49794 2.43636C6.77448 2.25443 7.08447 2.05049 7.2504 2.05049C7.37344 2.05049 6.96058 2.30121 6.60855 2.51499L6.60852 2.515L6.60851 2.51501L6.6084 2.51507L6.60835 2.5151L6.6083 2.51514C6.47766 2.59448 6.35541 2.66872 6.27207 2.72315L6.2508 2.73702L6.25079 2.73703L6.25078 2.73704L6.25072 2.73708C5.77616 3.04666 5.3552 3.32128 5.08373 3.51215C4.85313 3.67569 4.61447 3.84075 4.5636 3.80682C4.49706 3.75747 4.65148 3.60288 4.75529 3.49895C4.79396 3.46023 4.82561 3.42855 4.8362 3.41195C4.86943 3.36173 4.77166 3.41114 4.6849 3.45498L4.6849 3.45498C4.60616 3.49477 4.53649 3.52998 4.58207 3.48196C4.88567 3.18169 5.2054 2.89809 5.5398 2.63249L5.58059 2.60152C5.79001 2.44259 5.91747 2.34588 5.91327 2.27522C5.90887 2.20009 5.67313 2.32235 5.42113 2.46008C3.9073 3.28713 3.21269 4.88102 2.55033 6.40092L2.55033 6.40093L2.55032 6.40093L2.55032 6.40094C2.41202 6.7183 2.27512 7.03243 2.13247 7.33568L2.36087 7.31875C2.31476 7.4172 2.26568 7.51299 2.21708 7.60782C2.05911 7.91612 1.9063 8.21435 1.8776 8.56088C1.9115 8.53631 1.94018 8.50835 1.96819 8.48104C2.01748 8.43299 2.0647 8.38694 2.13467 8.36489C2.16642 8.47074 2.132 8.57013 2.09754 8.66962C2.08404 8.7086 2.07053 8.74761 2.061 8.78702C2.06774 8.78702 2.07393 8.78976 2.0799 8.79241C2.08373 8.79411 2.08747 8.79576 2.0912 8.79662C2.1246 8.70875 2.158 8.61929 2.19093 8.53107L2.19096 8.531L2.19104 8.53077L2.19107 8.5307L2.19109 8.53063L2.19118 8.53041L2.1912 8.53035L2.19122 8.5303L2.1913 8.53009L2.19132 8.53003L2.19134 8.52998L2.19141 8.52978L2.19143 8.52973L2.19145 8.52969L2.19152 8.52948L2.19154 8.52944L2.19155 8.5294L2.19157 8.52936C2.21363 8.47025 2.23549 8.41169 2.257 8.35456C2.27606 8.35639 2.29363 8.35784 2.31093 8.35927L2.31097 8.35928L2.311 8.35928L2.31101 8.35928L2.31102 8.35928L2.31105 8.35928C2.33582 8.36133 2.36007 8.36333 2.3874 8.36635C2.36383 8.53739 2.34108 8.70821 2.31835 8.87881C2.19377 9.81404 2.07009 10.7425 1.81851 11.6612C1.84872 11.378 1.87848 11.0945 1.90773 10.8109H1.8768C1.81324 11.0968 1.79161 11.3904 1.81263 11.6825L1.81127 11.6875L1.82527 11.6735C1.67547 12.1347 1.72384 12.593 1.77327 13.0614C1.81015 13.4108 1.84762 13.7658 1.80387 14.1319H1.77367C1.75618 14.032 1.73455 13.9328 1.71292 13.8336C1.64343 13.5147 1.574 13.1961 1.64253 12.8596C1.62853 12.878 1.61453 12.8964 1.57993 12.9392C1.57234 12.8623 1.56383 12.7885 1.55558 12.717C1.55102 12.6775 1.54654 12.6386 1.54233 12.6003C1.53353 12.5185 1.42593 12.5185 1.4326 12.5907C1.44743 12.7579 1.4422 12.924 1.43697 13.0902C1.42816 13.3701 1.41935 13.65 1.50627 13.9352C1.51553 13.9037 1.52424 13.8714 1.53183 13.8432C1.53931 13.8155 1.5457 13.7918 1.55047 13.7768C1.5776 13.9056 1.61273 14.0688 1.65113 14.2473L1.65114 14.2474C1.81399 15.0042 2.0357 16.0347 1.9564 15.8684C1.89204 15.7333 1.84485 15.5622 1.79751 15.3904C1.77276 15.3007 1.74797 15.2107 1.72067 15.1258C1.82087 16.0061 2.13613 16.8371 2.45733 17.6564C2.4316 17.6564 2.3594 17.5982 2.3034 17.467C2.27027 17.3874 2.18627 17.3934 2.20027 17.439C2.285 17.6528 2.38167 17.8616 2.4898 18.0645C2.4456 17.9245 2.39693 17.7566 2.41093 17.733C2.56257 17.9116 2.72236 18.2227 2.84881 18.4689L2.84886 18.4689L2.84902 18.4693L2.84909 18.4694L2.84915 18.4695C2.88785 18.5448 2.92342 18.6141 2.95467 18.6716C2.97205 18.7035 2.99518 18.7456 3.02156 18.7936C3.1975 19.1136 3.51839 19.6973 3.24933 19.3162C3.20951 19.2597 3.16373 19.1959 3.11351 19.1258C2.77352 18.6515 2.22985 17.8931 1.95127 17.2364C1.90728 17.135 1.87169 17.01 1.84156 16.9043C1.80607 16.7797 1.77816 16.6818 1.75307 16.6802C1.71772 16.6779 1.71441 16.7377 1.71192 16.7826C1.71114 16.7966 1.71044 16.8092 1.70887 16.818C1.69593 16.8 1.68758 16.7521 1.67925 16.7043C1.66814 16.6406 1.65707 16.5772 1.6352 16.5852C1.5997 16.5977 1.65909 16.8738 1.70796 17.101C1.74839 17.289 1.78162 17.4435 1.74793 17.3874C1.67347 17.2637 1.5372 16.6994 1.507 16.5314C1.52171 16.7376 1.56229 16.9334 1.59267 17.0799C1.61556 17.1904 1.63266 17.2728 1.62853 17.3108C1.38766 16.9291 1.42471 16.5241 1.45028 16.2447C1.45693 16.172 1.4628 16.1078 1.4628 16.0547C1.46627 16.2016 1.49467 16.3468 1.5468 16.4842C1.52251 16.3034 1.53728 16.1158 1.5478 15.9821C1.55356 15.9089 1.55805 15.8519 1.55413 15.8212C1.54307 15.7342 1.423 15.805 1.4304 15.9081C1.42212 15.8892 1.41584 15.8655 1.40987 15.8429C1.39883 15.8011 1.38887 15.7634 1.36927 15.7682C1.34465 15.7741 1.34155 15.8396 1.33885 15.8967C1.33823 15.9098 1.33763 15.9225 1.3368 15.9339C1.33103 15.9255 1.32704 15.9148 1.32343 15.9051C1.31689 15.8876 1.31159 15.8733 1.29927 15.8823C1.29252 15.8873 1.28969 15.9207 1.28634 15.9604C1.28014 16.0337 1.27215 16.1282 1.2344 16.1034C1.2135 16.0913 1.21897 16.0065 1.22585 15.8997C1.22988 15.8372 1.2344 15.7671 1.2344 15.6996C1.2344 15.5339 1.21307 15.391 1.18067 15.405C1.14031 15.4185 1.14256 15.4522 1.14761 15.5274C1.15132 15.5827 1.15653 15.6603 1.14747 15.7689C1.13697 15.9021 1.06651 15.8493 1.01134 15.8079C0.969821 15.7768 0.936964 15.7521 0.944866 15.8182C0.946896 15.8353 0.942705 15.864 0.937206 15.9017C0.924648 15.9879 0.905264 16.1208 0.937532 16.2684C0.960351 16.3727 0.958405 16.5033 0.956931 16.6021C0.955409 16.7042 0.954391 16.7724 0.981733 16.7428C1.00946 16.7128 1.01741 16.6889 1.02414 16.6686C1.03048 16.6495 1.03575 16.6337 1.0554 16.619C1.05902 16.6243 1.06074 16.6331 1.06248 16.6419C1.06605 16.6601 1.06968 16.6786 1.09 16.6677C1.10946 16.6572 1.11364 16.6254 1.11848 16.5885C1.12116 16.5681 1.12404 16.5462 1.1298 16.5255C2.0242 21.7886 6.91966 24.2049 11.6015 25.6402L11.5131 25.6802C17.2057 26.7769 23.0485 22.2174 24.5912 16.9778C24.631 16.8401 24.7246 16.306 24.7872 15.9206C24.5795 16.6117 24.4351 16.5926 24.4395 16.5439C24.4955 16.082 24.5588 15.7667 24.6752 15.5515C25.0089 15.0292 24.8034 13.6958 24.701 13.6287C24.6374 13.5875 24.6053 13.6536 24.5916 13.6818C24.5882 13.6889 24.5859 13.6936 24.5846 13.6936C24.5935 13.589 24.6214 13.2412 24.5426 13.4091C24.5307 13.4332 24.529 13.5682 24.5263 13.7799C24.5152 14.6589 24.4873 16.8594 23.646 17.9186C23.6163 17.3308 23.8318 16.7606 24.0465 16.1924C24.1353 15.9574 24.2239 15.7228 24.2951 15.4874L24.2759 15.4808C24.2226 15.5661 24.1703 15.6536 24.1147 15.7468L24.1146 15.7469L24.0851 15.7962C24.083 15.7865 24.0809 15.7778 24.0789 15.7697L24.0719 15.7423L24.0659 15.7188C24.0323 15.7385 24.0138 15.7729 23.9952 15.8074C23.9674 15.8589 23.9394 15.9108 23.8604 15.9147L23.8882 15.7629L23.8882 15.7626C23.9094 15.647 23.93 15.5347 23.9495 15.4226C23.6791 15.9154 23.4797 16.4613 23.2787 17.0113C22.9805 17.8278 22.6788 18.6534 22.1365 19.3287C22.017 19.4762 22.1513 19.1225 22.2941 18.7467L22.2941 18.7466L22.2941 18.7465L22.2942 18.7463C22.3388 18.6288 22.3843 18.5091 22.4231 18.4019C22.5704 18.0048 22.5424 17.8273 22.2691 18.3246C21.9493 18.908 21.3563 19.6226 20.8693 20.0757C19.1425 21.6766 17.1393 23.1147 14.6743 23.2009V23.2171H14.8953C13.1449 23.4202 11.1115 23.2613 9.48707 22.5098C9.4896 22.5042 9.49253 22.4988 9.49593 22.4936C9.56135 22.517 9.64767 22.5545 9.73719 22.5935C9.96121 22.691 10.2053 22.7973 10.1921 22.711C10.1885 22.6853 10.0351 22.6257 9.80266 22.5353L9.8026 22.5353L9.80254 22.5352L9.80252 22.5352L9.80245 22.5352L9.8023 22.5351L9.8022 22.5351L9.80205 22.535C9.56674 22.4435 9.25051 22.3205 8.92647 22.1694C8.0468 21.7562 7.05667 21.2007 6.99187 21.1469C6.92316 21.091 6.9782 21.1546 7.03154 21.2162L7.03155 21.2162L7.03156 21.2162L7.03157 21.2162L7.03158 21.2162L7.03159 21.2163C7.06745 21.2577 7.10253 21.2982 7.09867 21.3009C5.85507 20.4419 4.99387 19.0598 4.33307 17.6593C4.28691 17.5626 4.22637 17.4778 4.1647 17.3913C4.09248 17.2901 4.01871 17.1868 3.96467 17.0596C3.89467 16.8916 3.85933 16.5786 3.87847 16.5506C3.95807 16.4202 3.76427 16.289 3.77827 16.4997C3.83147 16.7946 3.90527 17.0853 3.99933 17.3698C4.03613 17.4751 3.9124 17.2608 3.86593 17.134C3.56709 16.3325 3.52855 16.161 3.46639 15.8844L3.4578 15.8462C3.4578 16.6116 3.9701 17.7786 4.14558 18.1783C4.16536 18.2234 4.18086 18.2587 4.19087 18.2826C4.05527 18.1897 3.85933 17.9208 3.768 17.6475C3.79353 17.7377 3.81942 17.8235 3.8433 17.9027C3.90483 18.1068 3.95306 18.2667 3.94773 18.3437C3.67835 17.8629 3.44129 17.0577 3.26826 16.47C3.14458 16.0499 3.05362 15.7409 3.00693 15.7409C2.92778 15.7409 2.96057 15.882 2.99074 16.0118C3.00323 16.0655 3.01528 16.1173 3.01873 16.1564C2.7506 15.7527 2.57673 14.473 2.67767 14.1466C2.75133 12.6849 2.97893 11.1895 3.49247 9.81182C3.49147 9.80895 3.49147 9.80582 3.49247 9.80295C3.49247 9.79715 3.49514 9.79138 3.49775 9.78576C3.49945 9.78208 3.50113 9.77846 3.502 9.77495C3.94407 8.60509 4.585 7.52209 5.5096 6.62548C5.5053 6.62293 5.50126 6.61962 5.49719 6.61628L5.49717 6.61627C5.49424 6.61387 5.49129 6.61146 5.4882 6.60929C5.33276 6.74996 5.17865 6.88395 5.02269 7.01955L5.02267 7.01957L5.02259 7.01964L5.00053 7.03882C5.10767 6.69445 5.35934 6.44062 5.607 6.19083C5.81395 5.9821 6.01811 5.77618 6.1328 5.52262L6.1004 5.50129C6.2338 5.37733 6.36642 5.25699 6.5222 5.11563L6.52226 5.11558L6.52993 5.10862C6.41892 5.15938 6.33064 5.23668 6.2445 5.3121C6.11684 5.42388 5.99389 5.53153 5.80867 5.54255C6.60213 4.64375 7.77053 3.87609 8.64947 3.35522C8.56767 3.40462 8.5758 3.56295 8.73567 3.61895C8.81838 3.64792 8.89065 3.57471 8.97241 3.49188C9.03629 3.42717 9.10596 3.3566 9.19093 3.32429C10.3955 2.84322 11.6957 2.90216 12.8855 3.13056C11.6066 2.67302 9.9682 2.81302 9.61307 2.89702C9.93519 2.73685 10.3829 2.72707 10.6481 2.72128C10.7001 2.72014 10.7451 2.71916 10.7808 2.71722C14.4798 2.52642 17.9954 4.94875 20.1407 7.88969C20.2593 8.05329 20.5091 8.44295 20.6027 8.73029C20.6424 8.85189 20.8642 9.24155 20.9415 9.18562C21.0189 9.12962 20.8944 8.81722 20.7382 8.63229C20.5875 8.4543 20.4795 8.24849 20.3369 7.97688L20.3369 7.97677C20.2759 7.8606 20.2086 7.73238 20.1289 7.58915C20.2173 7.69429 20.2988 7.79091 20.3767 7.88317L20.3769 7.88331C20.5172 8.04956 20.6457 8.20169 20.7802 8.36415C20.5185 7.90867 20.0438 7.34316 19.6417 6.86413C19.2979 6.45447 19.0071 6.10805 18.948 5.94776C19.6479 6.45902 20.1827 7.12202 20.6285 7.84329C21.0188 8.47791 21.4135 9.31112 21.6602 9.83195L21.6602 9.83198L21.6768 9.86702C21.6929 9.90669 21.7124 9.94488 21.735 9.98122C21.7136 9.90755 21.3711 9.10602 21.3666 9.10602C21.2163 8.63008 20.9843 8.17225 20.7517 7.71329L20.7516 7.71324L20.7516 7.71318L20.7516 7.71312L20.7515 7.71304L20.7515 7.71296L20.7515 7.71288L20.7514 7.7128L20.7514 7.71271L20.7513 7.71263L20.7513 7.71255L20.7513 7.71247L20.7512 7.71239L20.7512 7.71231L20.7511 7.71222L20.7511 7.71214L20.7511 7.71206L20.751 7.71198L20.7509 7.71185C20.6623 7.5369 20.5735 7.36178 20.4892 7.18542C20.5271 7.21798 20.5568 7.24438 20.5805 7.26543L20.5805 7.26546C20.6406 7.31887 20.6619 7.33773 20.6795 7.33485C20.6892 7.33328 20.6978 7.32524 20.7111 7.31281L20.7205 7.30402C20.7484 7.27862 20.6765 7.15864 20.5853 7.00634C20.4833 6.83604 20.3571 6.62532 20.319 6.46122C20.571 6.85389 20.8229 7.24802 21.0889 7.66575C21.0531 7.57848 21.0212 7.49793 20.9906 7.42057L20.9906 7.42054C20.9695 7.3673 20.949 7.31558 20.9283 7.26422L20.9489 7.25542C21.2056 7.57262 21.4603 7.88986 21.715 8.20711L21.8897 8.42455C21.7421 8.11789 21.5449 7.83953 21.349 7.56306L21.349 7.56305C21.1604 7.29691 20.9731 7.03253 20.8325 6.74636C20.8398 6.74257 20.8467 6.73925 20.8534 6.73602L20.8535 6.73599C20.8637 6.73104 20.8735 6.72632 20.8833 6.72055C21.0695 7.02656 21.4096 7.38768 21.6448 7.63739L21.6448 7.63741L21.6448 7.63743C21.7493 7.74839 21.8331 7.83734 21.8735 7.88969C21.9318 7.96546 21.8832 7.86601 21.8263 7.74963C21.7553 7.60459 21.6715 7.43325 21.7659 7.54195C21.9361 7.73795 22.1977 8.11149 22.2536 8.19322C22.3096 8.27502 22.3538 8.27722 22.2816 8.17262C22.2543 8.13303 22.1687 8.01008 22.058 7.85101C21.8762 7.58976 21.6266 7.23108 21.4558 6.98429L21.4837 6.96369C22.1881 7.88089 22.8585 8.84448 23.2519 9.93702C22.9213 8.62401 22.0907 7.52832 21.2741 6.45104C21.0644 6.17439 20.8556 5.89895 20.6564 5.62136C20.9864 5.88255 21.2476 6.20297 21.5086 6.52309C21.6392 6.68332 21.7698 6.84347 21.9089 6.99609C21.917 6.98935 21.9256 6.98322 21.9346 6.97769C21.9125 6.93686 21.8904 6.89518 21.8683 6.85351C21.8322 6.78536 21.7961 6.71721 21.76 6.65275C22.5711 7.35803 23.1538 9.17373 23.3267 9.71226L23.3267 9.71227L23.3267 9.7123C23.3512 9.78862 23.3674 9.83928 23.3749 9.85748C23.4353 10.0041 23.3329 9.55175 23.2629 9.24382C23.1929 8.93582 23.3123 9.02275 23.3093 9.23422C23.3084 9.30261 23.3418 9.41404 23.381 9.54463L23.381 9.54464C23.463 9.81769 23.57 10.1745 23.4405 10.3968C23.4262 10.374 23.4136 10.3519 23.3917 10.3132L23.3823 10.2966C23.4549 10.5169 23.4812 10.7408 23.507 10.9612C23.5368 11.2147 23.5659 11.4634 23.6645 11.6963C23.7476 12.3834 23.7095 13.0698 23.6717 13.7531L23.6645 13.8836H23.688C23.7015 13.7769 23.7156 13.6686 23.7296 13.5603L23.7297 13.5595C23.7447 13.4436 23.7598 13.3276 23.7742 13.2132H23.8044V13.4725C23.8188 13.3355 23.82 13.1942 23.8213 13.0527C23.8236 12.7821 23.826 12.5112 23.9208 12.2702C23.9466 12.4832 23.9724 12.6953 24.0004 12.9053C24.0169 12.9049 24.0334 12.9034 24.0497 12.9008C24.1339 12.03 24.0446 11.1641 23.9554 10.2983L23.9488 10.2347C23.9628 10.2347 23.9746 10.2347 23.9864 10.2302L24.0027 10.3368L24.0027 10.3368C24.0161 10.4236 24.03 10.5135 24.0446 10.6178L24.0644 10.5701L24.0697 10.5572L24.0701 10.5562L24.0704 10.5557L24.0706 10.5551L24.0706 10.555C24.0796 10.5332 24.0872 10.5147 24.0961 10.494C24.1293 10.5818 24.156 10.6715 24.1825 10.7605C24.2421 10.9606 24.3009 11.1578 24.4299 11.325C24.3942 11.1164 24.4127 10.9138 24.4314 10.7096V10.7095V10.7095V10.7095V10.7095V10.7094V10.7094V10.7094V10.7094V10.7093V10.7093L24.4314 10.7093C24.442 10.5933 24.4527 10.4768 24.4535 10.3584C24.5528 10.6118 24.6167 11.0212 24.6572 11.2811C24.6768 11.4067 24.6909 11.4974 24.701 11.5188C24.7304 11.581 24.7332 11.4787 24.7252 11.4492C24.79 11.6431 24.8433 12.0724 24.8749 12.3266L24.8749 12.3267L24.8749 12.3267L24.8749 12.3268L24.8749 12.3268L24.8749 12.3269L24.8749 12.3269L24.8749 12.327L24.8749 12.327L24.8749 12.3271L24.8749 12.3271L24.8749 12.3272L24.8749 12.3272L24.8749 12.3273L24.8749 12.3273L24.8749 12.3274C24.8932 12.4748 24.9042 12.563 24.9058 12.5119C24.9151 12.2181 24.905 11.924 24.8756 11.6315C24.9391 11.8332 24.9865 12.0396 25.0171 12.2488ZM21.8352 20.6776C21.6459 20.8176 21.6252 20.8198 21.8587 20.5303C22.0923 20.2408 22.6028 19.4252 22.7966 19.076C22.8956 18.8976 22.8844 19.0135 22.8734 19.127C22.8629 19.2357 22.8527 19.3422 22.9395 19.1858C22.9628 19.1438 22.9852 19.1048 23.0068 19.0669C23.1502 18.8161 23.2648 18.6157 23.4434 17.9488C23.4619 18.192 23.2099 19.174 22.8879 19.7272C22.6206 20.1867 22.1468 20.7153 21.8589 21.0366L21.8587 21.0369L21.8583 21.0373L21.8583 21.0374C21.7998 21.1026 21.749 21.1593 21.7092 21.2051C21.4735 21.4762 22.1387 20.5936 22.3818 20.2923C22.5568 20.082 22.7035 19.8497 22.8179 19.6013C22.5726 19.9445 22.0215 20.5376 21.8352 20.6776ZM4.4686 18.8918C4.76327 19.7022 5.998 20.9392 6.59253 21.2545C5.61493 20.8338 4.7994 20.257 4.66307 19.988C4.5754 19.8156 4.7176 19.8488 4.84433 19.9984C4.95467 20.1426 5.09293 20.2632 5.251 20.3527C4.75667 19.7155 4.5364 19.2992 4.4686 18.8918ZM8.32973 1.78236L8.32673 1.78329C8.03324 1.87424 7.77542 1.95413 8.1146 1.77056C8.42033 1.60702 9.0974 1.36682 9.21967 1.49502C9.30274 1.58213 8.99673 1.6417 8.70051 1.69935C8.56078 1.72655 8.42324 1.75332 8.32973 1.78236ZM18.4109 4.92149C18.8247 4.99595 18.9978 5.34565 19.132 5.61655C19.1916 5.73684 19.2434 5.8416 19.3053 5.89982C18.9318 5.55435 18.5553 5.17122 18.4109 4.92149ZM20.2365 5.81735C20.1553 5.74169 20.0955 5.64582 20.0634 5.53962C20.1876 5.65802 20.3031 5.78536 20.4089 5.92049C20.4465 5.96469 20.3573 5.92122 20.2365 5.81735ZM38.8466 10.32L39.9001 8.24104C38.8478 7.54231 37.6146 7.16551 36.3514 7.15658C34.5074 7.15658 32.6229 8.51291 32.6229 10.6494C32.6229 11.8414 33.4267 12.9088 34.7991 13.5881C35.0569 13.717 35.3097 13.8349 35.5501 13.947C36.5767 14.4259 37.3777 14.7995 37.3777 15.4734C37.3777 16.5401 36.2969 16.5961 35.7281 16.5961C34.4529 16.5961 32.9286 15.3069 32.9286 15.3069L31.6253 17.4971C31.6253 17.4971 33.2469 19.0074 35.9226 19.0074C38.1541 19.0074 40.2331 18.0541 40.2331 15.3238C40.2331 13.8261 38.8326 12.7453 37.5581 12.2053L37.5431 12.1989C36.2465 11.647 35.1741 11.1906 35.1741 10.5558C35.1741 9.93184 35.6478 9.53031 36.5318 9.53031C37.7106 9.53031 38.8466 10.32 38.8466 10.32ZM54.6477 16.5157H50.7114V7.36426H48.1057V18.7995H54.6477V16.5157ZM66.7333 7.15983C69.9073 7.15983 72.486 9.73837 72.486 13.0786C72.486 16.4189 70.0187 19.0106 66.7333 19.0106C63.3513 19.0106 60.9673 16.4189 60.9673 13.0786C60.9673 9.73837 63.5867 7.15983 66.7333 7.15983ZM66.7333 16.4882C68.8127 16.4882 69.672 14.7834 69.672 13.0786C69.672 11.3739 68.7573 9.6691 66.7333 9.6691C64.724 9.6691 63.7813 11.3739 63.7813 13.0786C63.7813 14.7834 64.5993 16.4882 66.7333 16.4882ZM86.608 7.36426H78.5687V9.65472H81.2854V18.8025H83.8907V9.65172H86.608V7.36426ZM103.117 12.0247H103.047L100.705 18.7333H99.1526L96.81 12.0247H96.7406L96.2006 18.8025H93.598L94.6207 7.36426H97.392L99.9286 13.9623L102.465 7.36426H105.238L106.264 18.7995H103.657L103.117 12.0247ZM114.521 18.8025H117.129L117.126 7.36426H114.521V18.8025ZM128.887 16.5157H132.823V18.7995H126.281V7.36426H128.887V16.5157ZM145.363 16.5157H141.426V7.36426H138.82V18.7995H145.363V16.5157ZM3.50347 9.77506C3.42494 10.1553 3.34634 10.5351 3.26774 10.9148L3.31414 10.9347L3.5352 9.78173L3.50347 9.77506ZM22.6191 17.3913C22.5306 17.5555 22.4223 17.8657 22.6191 17.6977C22.8157 17.5298 22.7089 17.224 22.6191 17.3913ZM24.1433 15.2541C24.175 15.1706 24.1817 15.0497 24.1868 14.9581C24.1935 14.8372 24.1974 14.7676 24.2523 14.9035C24.3488 15.1421 24.0305 15.5599 24.1433 15.2541ZM0.83139 15.1846C0.928657 15.1794 0.972856 15.827 0.914656 15.7099C0.896865 15.6743 0.872985 15.6549 0.847771 15.6345C0.806187 15.6009 0.760973 15.5643 0.733457 15.4469C0.689257 15.2583 0.73419 15.1897 0.83139 15.1846ZM1.08266 15.0714L1.06839 15.0359C1.02558 14.9304 0.939683 14.7188 0.97286 14.6706C1.01046 14.6161 1.06419 14.6375 1.10106 14.7583C1.13786 14.8791 1.11873 15.1657 1.08266 15.0714ZM2.8231 15.2146C2.82028 15.2251 2.81786 15.2342 2.81614 15.2412C2.80214 15.2987 2.75574 15.1417 2.7668 15.0695C2.7778 14.9973 2.811 14.9782 2.84487 15.0025C2.87409 15.0235 2.84083 15.1481 2.8231 15.2146ZM1.17327 14.4094C1.27194 14.4028 1.20054 14.5258 1.14821 14.5737C1.12021 14.5988 1.05834 14.4168 1.17327 14.4094ZM1.47534 15.5423C1.5534 15.5621 1.50034 15.6343 1.4598 15.6565C1.43847 15.6697 1.38467 15.5201 1.47534 15.5423ZM21.9508 9.8062C21.8771 9.62794 22.0731 9.98594 22.1961 10.3219L22.2062 10.3489C22.2756 10.5352 22.3337 10.6911 22.2993 10.7867C22.2625 10.89 22.2094 10.6886 22.1385 10.4195L22.1385 10.4195C22.0859 10.22 22.0236 9.98339 21.9508 9.8062ZM22.3855 9.14852C22.3347 9.16986 22.2514 9.04392 22.1217 8.80519C22.0488 8.67039 22.3118 8.82805 22.3855 8.92232C22.4591 9.01665 22.4363 9.12712 22.3855 9.14852ZM22.5888 9.20632C22.6198 9.30138 22.7892 9.25792 22.7177 9.16138C22.6463 9.06485 22.5549 9.10318 22.5888 9.20632ZM24.2604 14.4295C24.2685 14.5157 24.1065 14.512 24.1322 14.417C24.158 14.3219 24.2515 14.3352 24.2604 14.4295ZM24.7305 15.9105C24.768 15.7809 24.6494 15.7632 24.6391 15.8789C24.6273 16.0063 24.6921 16.0357 24.7305 15.9105ZM23.9414 15.2093C23.9768 15.3824 23.7403 15.5246 23.7521 15.3006C23.7639 15.0767 23.9046 15.0207 23.9414 15.2093ZM5.9044 2.06556C5.92411 2.05369 5.94791 2.04041 5.97336 2.0262C6.08386 1.96451 6.22545 1.88547 6.19906 1.82976C6.16666 1.76129 5.98326 1.89536 5.9044 1.9705C5.8256 2.04563 5.7998 2.12816 5.9044 2.06556ZM3.75247 16.2641C3.68767 16.2302 3.74147 16.1513 3.7812 16.1764C3.821 16.2015 3.83647 16.3083 3.75247 16.2641ZM21.2207 9.30854C21.1618 9.3218 21.2163 9.49347 21.2841 9.46913C21.3519 9.4448 21.2893 9.29454 21.2207 9.30854ZM22.1055 8.43C22.1103 8.42626 22.1159 8.42366 22.1217 8.42226C22.1895 8.40753 22.2197 8.47753 22.1512 8.5018C22.1458 8.5046 22.1399 8.50613 22.1339 8.50646C22.1279 8.5068 22.1218 8.5058 22.1162 8.5036C22.1105 8.50146 22.1055 8.49806 22.1012 8.4938C22.097 8.48946 22.0937 8.48433 22.0916 8.47866C22.0895 8.47299 22.0887 8.46693 22.0891 8.46093C22.0895 8.45486 22.0911 8.449 22.094 8.44366C22.0969 8.43833 22.1008 8.43366 22.1055 8.43ZM21.9228 9.49653C21.9007 9.41553 22.1365 9.62326 22.0775 9.72273C22.0186 9.82219 21.9582 9.62473 21.9228 9.49653ZM8.2818 3.92551C8.17647 3.90051 8.27813 3.82977 8.36946 3.78337C8.46307 3.73697 8.5264 3.73617 8.5028 3.8165C8.48713 3.85963 8.45533 3.89503 8.4142 3.91537C8.373 3.93563 8.3256 3.93931 8.2818 3.92551Z" fill="white"/>
</g>
<defs>
<clipPath id="clip0_4659_8274">
<rect width="145.333" height="26" fill="white" transform="translate(0.333328 0.000976562)"/>
</clipPath>
</defs>
</svg>
