<svg xmlns="http://www.w3.org/2000/svg" width="94" height="32" fill="none"><g clip-path="url(#a)"><path fill="#fff" fill-rule="evenodd" d="M2.486 17.925 9.361 21.2c1.006.483 2.018.952 3.037 1.407.355.16.625.26.81.304a3.298 3.298 0 0 0 3.268-1.063c.105-.12.193-.247.264-.378.52-.826.602-1.943.172-2.821a3.268 3.268 0 0 0-1.551-1.537 9.808 9.808 0 0 0-.746-.318 1334.09 1334.09 0 0 1-4.413-1.816c-.61-.252-1.105-.698-1.482-1.337a2.928 2.928 0 0 1-.392-1.238c-.107-1.59.578-3.338 1.949-4.28 1.397-.958 2.959-1.44 4.687-1.444 1.034-.002 2.112.248 3.083.605 1.412.52 2.733 1.249 3.98 2.138.58.413 1.23.651 1.933.669.642.016 1.185-.089 1.63-.314.81-.408 1.409-1.063 1.796-1.964.176-.387.158-.723-.056-1.01a.991.991 0 0 0-.285-.266A9753.12 9753.12 0 0 1 17.05.599a4.755 4.755 0 0 0-.838-.411c-.937-.324-1.873-.226-2.81.294a3717.08 3717.08 0 0 1-10.814 5.98c-.436.24-.745.441-.924.604a3.312 3.312 0 0 0-1.06 1.862C.56 9.153.539 9.51.542 10c.009 1.498.01 2.986.003 4.464-.002.502.083.977.257 1.425.328.85.89 1.528 1.684 2.035Zm9.6-7.552c-.58 1.702.258 3.41 1.873 4.118 1.348.59 2.742 1.186 4.18 1.79.51.214.854.372 1.032.472a3.329 3.329 0 0 1 1.569 2.023c.074.267.113.482.116.646a5.599 5.599 0 0 1-.904 3.201 4.971 4.971 0 0 1-1.632 1.487 8.69 8.69 0 0 1-1.964.853c-1.806.518-3.573.352-5.334-.285a17.494 17.494 0 0 1-3.036-1.501 71.93 71.93 0 0 1-1.164-.736c-.713-.46-1.566-.65-2.437-.615-1.268.05-2.398.67-3.19 1.67-.12.149-.202.285-.25.408-.162.42.017.836.397 1.06 3.677 2.156 7.37 4.328 11.08 6.514.894.527 1.798.655 2.713.386.242-.07.575-.223.999-.456.873-.48 1.744-.96 2.614-1.444l2.567-1.417 1.226-.693c.135-.067.261-.133.377-.197 1.24-.69 2.461-1.364 3.664-2.025.482-.264.809-.465.98-.603.836-.668 1.25-1.587 1.246-2.755-.006-1.506-.005-3.038.002-4.596a8.508 8.508 0 0 0-.051-1.109 4.153 4.153 0 0 0-1.058-2.275 3.704 3.704 0 0 0-1.09-.862c-3.276-1.636-6.74-3.354-10.168-4.952a2.471 2.471 0 0 0-.606-.197c-1.072-.195-2.013.05-2.822.736-.43.363-.739.814-.93 1.354Zm26.251 1.891c.464.027 1.154.067 1.255.586.07.356-.204.59-.513.677-.506.142-.944.094-1.314-.144a.55.55 0 0 1-.257-.43c-.003-.027-.018-.04-.046-.04h-1.606c-.027 0-.04.014-.04.042-.005 1.682 1.679 2.29 3.083 2.185 1.02-.076 2.096-.581 2.39-1.605.086-.304.098-.647.035-1.028-.232-1.387-1.727-1.56-2.843-1.658a2.012 2.012 0 0 1-.488-.109.532.532 0 0 1-.05-.992c.473-.217 1.453-.173 1.515.497a.047.047 0 0 0 .015.03c.008.007.02.012.03.012h1.577a.046.046 0 0 0 .046-.047c-.027-1.866-2.091-2.478-3.615-2.031-1.038.304-1.684 1.11-1.623 2.23.068 1.232 1.208 1.729 2.28 1.814.051.005.108.008.169.011Zm31.23-.684c.61.573 1.486.669 2.331.721.16.01.324.05.492.121.483.204.52.825.027 1.039a1.657 1.657 0 0 1-1.287.034c-.265-.1-.42-.278-.465-.536a.053.053 0 0 0-.052-.043l-1.592-.004c-.033 0-.05.016-.049.05.014.906.52 1.595 1.347 1.919.979.383 1.95.373 2.913-.031.72-.301 1.253-.95 1.29-1.761.039-.827-.266-1.507-1.03-1.85-.528-.238-1.092-.304-1.654-.371a23.3 23.3 0 0 1-.404-.05c-.299-.041-.632-.184-.64-.54-.005-.319.163-.518.506-.597.485-.113 1.251-.051 1.322.566.003.027.018.04.045.04l1.58.002a.044.044 0 0 0 .043-.044c-.013-1.606-1.56-2.28-2.939-2.16-1.396.121-2.454.996-2.282 2.512.044.385.21.712.498.983Zm12.532-.856c.439 2.108-.69 4.135-2.937 4.374-1.786.19-3.44-.733-3.83-2.567a4.34 4.34 0 0 1-.012-1.771c.705-3.53 6.04-3.58 6.779-.036Zm-2.6-.757c-.94-.485-2.127-.014-2.405 1.042-.205.778-.027 1.655.638 2.127.359.255.763.351 1.213.288.837-.12 1.376-.762 1.453-1.587.072-.76-.207-1.513-.899-1.87Zm-27.505 4.19 2.391-.002c.033 0 .056.014.07.044l.36.762a.079.079 0 0 0 .07.045h1.739c.02 0 .033-.01.04-.03a.401.401 0 0 0-.024-.289c-.992-2.121-2.002-4.287-3.03-6.497a.059.059 0 0 0-.022-.026.06.06 0 0 0-.032-.01l-.744-.004a.057.057 0 0 0-.055.034c-1.013 2.164-2.03 4.325-3.05 6.483a.457.457 0 0 0-.034.302c.006.026.022.038.048.038l1.76-.002a.063.063 0 0 0 .058-.037l.335-.733a.133.133 0 0 1 .12-.078Zm.503-1.508c0-.005 0-.01.002-.014l.65-1.52a.03.03 0 0 1 .01-.012.029.029 0 0 1 .043.013l.654 1.517a.03.03 0 0 1 .002.014.028.028 0 0 1-.015.022.03.03 0 0 1-.007.003.03.03 0 0 1-.007 0l-1.303.003a.03.03 0 0 1-.024-.013.03.03 0 0 1-.005-.013Zm-8.276-.735h-.003a.015.015 0 0 0-.005.004.016.016 0 0 0-.005.012v3.035c0 .027-.014.041-.041.041h-1.7a.04.04 0 0 1-.027-.01.038.038 0 0 1-.012-.028V8.244c0-.03.015-.045.046-.045l.559.001a.073.073 0 0 1 .054.025l2.625 2.858a.056.056 0 0 0 .083 0l2.606-2.85a.1.1 0 0 1 .073-.032l.547-.003a.044.044 0 0 1 .044.045v6.726c0 .025-.013.037-.038.037l-1.697-.002c-.025 0-.038-.013-.038-.038v-2.998c0-.058-.02-.066-.061-.024l-1.312 1.377a.234.234 0 0 1-.339 0 684.55 684.55 0 0 1-1.333-1.397.036.036 0 0 0-.022-.01.02.02 0 0 0-.005 0Zm14.848 3.026v-2.013c0-.035.017-.052.053-.052h.84a.047.047 0 0 1 .042.025l1.123 2.052a.081.081 0 0 0 .072.043l1.787-.002c.02 0 .034-.01.04-.03a.37.37 0 0 0-.04-.309l-1.251-2.029c-.014-.021-.01-.04.01-.055 1.223-.866 1.283-2.805.184-3.779-.49-.434-1.093-.577-1.742-.581a212.17 212.17 0 0 0-2.888.003.014.014 0 0 0-.014.013v6.736c0 .022.01.033.033.033l1.697-.001c.036 0 .054-.018.054-.054Zm-.029-3.559.005-1.585a.047.047 0 0 1 .047-.047l1.137.004a.766.766 0 0 1 .76.764v.155a.761.761 0 0 1-.766.76l-1.136-.004a.047.047 0 0 1-.033-.014.047.047 0 0 1-.014-.033ZM90.06 9.78h-1.61a.026.026 0 0 1-.026-.026l.001-1.506a.026.026 0 0 1 .026-.026l4.981.002a.026.026 0 0 1 .026.026v1.505a.026.026 0 0 1-.025.026h-1.596a.026.026 0 0 0-.026.026v5.173a.027.027 0 0 1-.003.01.018.018 0 0 1-.002.004l-.001.002-.002.002a.026.026 0 0 1-.018.008H90.11a.026.026 0 0 1-.025-.025V9.805a.026.026 0 0 0-.026-.025Zm-26.654.001 1.603-.003a.033.033 0 0 1 .033.033v5.161a.033.033 0 0 0 .033.033h1.65a.033.033 0 0 0 .034-.032v-5.16a.033.033 0 0 1 .033-.033h1.587a.033.033 0 0 0 .023-.01.033.033 0 0 0 .01-.022l-.001-1.493a.033.033 0 0 0-.033-.032l-4.972-.001a.033.033 0 0 0-.033.033v1.493a.033.033 0 0 0 .033.033Zm21.65 3.073-.004 2.116a.036.036 0 0 1-.035.036h-1.713a.035.035 0 0 1-.035-.036V8.257a.035.035 0 0 1 .035-.035l4.173.001a.036.036 0 0 1 .035.036v1.475a.036.036 0 0 1-.035.036H85.09a.036.036 0 0 0-.035.036l.001 1.422c0 .01.004.018.01.025.007.007.016.01.026.01h2.095a.035.035 0 0 1 .035.036v1.484a.035.035 0 0 1-.035.036H85.09a.036.036 0 0 0-.025.01.036.036 0 0 0-.01.025Zm-3.591 9.743 2.314.001c.035 0 .052.018.048.053-.112 1.044-.69 1.803-1.688 2.053-1.645.412-3.096-.435-3.34-2.128-.243-1.683.717-3.236 2.544-3.238.963-.001 1.812.313 2.173 1.26a.066.066 0 0 0 .062.042l.722.001c.004 0 .008 0 .012-.003a.031.031 0 0 0 .006-.003.029.029 0 0 0 .01-.017v-.005a.03.03 0 0 0 0-.008c-.27-1-1.078-1.671-2.079-1.904-2.245-.524-4.21.875-4.304 3.194-.072 1.79.98 3.391 2.842 3.634 1.193.155 2.398-.19 3.136-1.148.521-.677.7-1.553.667-2.422a.06.06 0 0 0-.06-.057h-3.08a.024.024 0 0 0-.022.013.024.024 0 0 0-.002.01v.634c0 .025.013.038.038.038Zm-30.939-.001h-2.323c-.024 0-.036-.011-.036-.036v-.626a.027.027 0 0 1 .027-.028l3.093-.003c.023 0 .035.012.037.036.087 1.176-.325 2.357-1.273 3.039-1.158.833-2.963.773-4.082-.09-.994-.768-1.376-1.978-1.27-3.223.14-1.623 1.3-2.854 2.914-3.038 1.506-.172 2.978.437 3.454 1.958a.04.04 0 0 1-.006.037.042.042 0 0 1-.034.017l-.702-.001a.075.075 0 0 1-.07-.05c-.35-.91-1.166-1.228-2.08-1.25-1.137-.027-2.072.542-2.476 1.616-.379 1.005-.234 2.353.571 3.15.503.499 1.156.731 1.96.698 1.298-.052 2.197-.813 2.339-2.158.003-.032-.011-.048-.043-.048Zm1.158 2.88h.744a.071.071 0 0 0 .064-.04l.759-1.593a.07.07 0 0 1 .064-.04l3.29-.002a.071.071 0 0 1 .065.041l.756 1.594a.07.07 0 0 0 .063.04l.737.003a.072.072 0 0 0 .06-.033.07.07 0 0 0 .005-.068L55.176 18.7a.072.072 0 0 0-.064-.04h-.285a.071.071 0 0 0-.064.04l-3.144 6.675a.07.07 0 0 0 .005.068.072.072 0 0 0 .06.033Zm1.872-2.4c0-.004 0-.008.002-.011l1.38-3.074a.022.022 0 0 1 .021-.013c.005 0 .009.001.012.004a.023.023 0 0 1 .009.01l1.38 3.073a.022.022 0 0 1-.02.032h-2.762a.022.022 0 0 1-.022-.021Zm18.33-2.653.004.104c.032.794.063 1.584.062 2.39v2.535a.025.025 0 0 1-.024.025l-.759-.002c-.02 0-.03-.01-.03-.03V18.71c0-.03.015-.046.046-.046l.2.006a.09.09 0 0 1 .07.032l4.325 5.026c.035.04.05.034.048-.02l-.01-.235c-.036-.74-.07-1.45-.07-2.201.002-.867.002-1.724.002-2.572a.024.024 0 0 1 .024-.024h.755c.022 0 .032.012.032.033v6.723c0 .034-.016.05-.049.049a.9.9 0 0 0-.058.002c-.073.004-.149.008-.2-.051-1.46-1.696-2.905-3.37-4.331-5.024-.026-.031-.039-.026-.037.014Zm-11.791 5.022-.001-4.778c0-.046.013-.05.04-.013l2.144 2.95a.12.12 0 0 0 .151.037.12.12 0 0 0 .042-.036l2.146-2.955c.03-.042.046-.037.046.016v4.78c0 .02.01.031.032.031l.74-.001c.031 0 .046-.015.046-.046v-6.706a.046.046 0 0 0-.014-.032.045.045 0 0 0-.032-.014l-.228-.002a.082.082 0 0 0-.065.033l-2.732 3.71a.036.036 0 0 1-.03.015.04.04 0 0 1-.01-.001l-.003-.001-.004-.002a.037.037 0 0 1-.013-.01l-2.728-3.704a.088.088 0 0 0-.073-.038l-.235-.003c-.029 0-.042.014-.042.042v6.728c0 .021.01.032.032.032h.759a.032.032 0 0 0 .031-.032Zm8.625-6.082v5.427c0 .003 0 .006.002.009a.021.021 0 0 0 .005.008.021.021 0 0 0 .005.003l.002.002a.024.024 0 0 0 .01.001l1.122-.001c.006 0 .012.002.016.007.005.004.007.01.007.016v.618a.023.023 0 0 1-.016.022.025.025 0 0 1-.008.002l-3.114-.001a.022.022 0 0 1-.012-.004.015.015 0 0 1-.004-.003.022.022 0 0 1-.005-.007v-.002a.024.024 0 0 1-.002-.007l.003-.616c0-.006.002-.012.006-.016a.023.023 0 0 1 .017-.007l1.116-.001a.023.023 0 0 0 .017-.007.023.023 0 0 0 .006-.016l.001-5.427a.023.023 0 0 0-.007-.016.023.023 0 0 0-.016-.007h-1.039a.023.023 0 0 1-.016-.007.023.023 0 0 1-.007-.016v-.601c0-.007.002-.012.006-.017a.023.023 0 0 1 .016-.006h2.962c.006 0 .011.002.016.006.004.005.007.01.007.017v.602a.023.023 0 0 1-.007.017.023.023 0 0 1-.016.006l-1.05-.002-.008.002a.024.024 0 0 0-.015.021Z" clip-rule="evenodd"/></g><defs><clipPath id="a"><path fill="#fff" d="M.542.001h92.917v32H.542z"/></clipPath></defs></svg>