<svg xmlns="http://www.w3.org/2000/svg" width="144" height="26" fill="none"><g clip-path="url(#a)"><path fill="#fff" fill-rule="evenodd" d="M20.316 9.083c2.495 4.076 1.67 8.116-.439 9.996-1.247 1.124-2.986 1.317-4.269 1.23.105.21.264.439.457.65.79.843 2.16 1.282 4.058 1.282v1.107c-2.249 0-3.883-.562-4.901-1.669-.879-.966-1.054-2.126-1.072-2.67.931.193 3.531.562 5.042-.79 1.757-1.582 2.407-5.043.228-8.609-2.084-3.423-7.093-6.829-7.651-7.208l-.043-.03-.158-.105-.159.105c-.21.14-5.533 3.69-7.694 7.238-2.179 3.566-1.546 7.027.228 8.608 1.511 1.37 4.111.984 5.042.79-.017.545-.193 1.705-1.071 2.671-1.02 1.107-2.67 1.669-4.902 1.669V22.24c1.897 0 3.268-.421 4.058-1.282.193-.211.352-.422.457-.65-1.353.07-3.092-.123-4.34-1.248-2.107-1.88-2.933-5.92-.438-9.996 2.204-3.63 7.422-7.177 7.986-7.56l.042-.029.755-.51.756.51c.246.158 5.744 3.848 8.028 7.607Zm-6.763 9.574.035-.316.316.088.043.01c.39.089 3.326.76 4.84-.59 1.564-1.387 2.127-4.638.124-7.905-1.898-3.127-6.483-6.36-7.379-6.974-.896.614-5.48 3.847-7.378 6.974-2.003 3.267-1.423 6.518.123 7.905 1.515 1.35 4.451.679 4.84.59l.044-.01.316-.088.035.316.001.021c.01.22.094 1.964-1.195 3.387-1.125 1.23-2.917 1.845-5.306 1.845v1.107c2.723 0 4.796-.738 6.131-2.214 1.667-1.824 1.511-3.999 1.494-4.25v-.001l-.159-1.616-1.563.421c-.703.176-2.899.527-3.865-.333-1.23-1.09-1.616-3.76.07-6.518 1.511-2.477 4.92-5.095 6.448-6.201 1.528 1.089 4.918 3.706 6.447 6.201 1.686 2.758 1.3 5.428.07 6.518-.966.86-3.162.527-3.865.333l-1.58-.421-.141 1.634c-.018.252-.174 2.426 1.493 4.25 1.335 1.459 3.408 2.214 6.131 2.214v-1.106c-2.407 0-4.181-.633-5.305-1.845-1.354-1.437-1.277-3.16-1.266-3.4v-.026ZM64.71 17.41c0 .914.21 1.37.65 1.37.14 0 .333-.035.58-.14l.122.51-2.617.825c-.246-.316-.37-.703-.404-1.16v-.123l-1.213.72c-.632.37-1.16.563-1.598.563-1.142 0-2.09-.457-2.881-1.353-.79-.913-1.177-2.02-1.177-3.355 0-1.423.439-2.583 1.352-3.478.914-.896 2.09-1.336 3.549-1.336.703 0 1.37.106 1.985.299V8.433c0-.474-.07-.773-.21-.878-.141-.106-.387-.158-.739-.158h-.491v-.492a8.75 8.75 0 0 0 3.092-.545v11.05Zm-1.95.685c.21-.228.316-.72.316-1.44v-4.48c-.51-.738-1.23-1.107-2.179-1.107-.93 0-1.669.387-2.196 1.177-.456.703-.685 1.546-.685 2.53 0 1.019.229 1.932.668 2.74.527.984 1.265 1.476 2.196 1.476.334 0 .685-.105 1.054-.28.334-.177.615-.387.826-.616Zm-31.622-6.904c.316.264 1.019.808 2.108 1.616.984.756 1.669 1.353 2.038 1.88.351.51.544 1.107.544 1.775 0 1.071-.404 1.932-1.23 2.582-.825.668-1.897.984-3.232.984-.492 0-1.054-.07-1.686-.176-.615-.105-1.054-.228-1.3-.351-.14-.07-.211-.194-.211-.387V16.55h.457c.14.79.298 1.335.527 1.67.562.807 1.335 1.211 2.336 1.211.72 0 1.3-.21 1.757-.667.457-.457.685-1.02.685-1.704 0-.65-.21-1.23-.65-1.74-.422-.527-1.317-1.247-2.67-2.195-.861-.615-1.458-1.142-1.774-1.564-.334-.44-.492-.949-.492-1.563 0-1.02.421-1.827 1.265-2.407.737-.492 1.633-.756 2.705-.756 1.44 0 2.284.141 2.53.422.052.035.07.105.07.21v2.337h-.474c-.229-1.563-1.002-2.336-2.302-2.336-.615 0-1.089.176-1.44.527-.352.351-.527.826-.527 1.423 0 .457.123.825.351 1.107.228.263.44.492.615.667Zm8.467.773c.791-1.001 1.845-1.493 3.127-1.493 1.142 0 2.038.386 2.723 1.142.686.773 1.02 1.81 1.02 3.127 0 1.51-.457 2.775-1.37 3.76-.914.983-2.056 1.475-3.444 1.475-.668 0-1.353-.14-2.056-.422v2.46c0 .808.088 1.3.246 1.458.159.158.703.281 1.617.369v.474h-4.972v-.474c.72-.088 1.124-.229 1.265-.387.14-.158.21-.632.21-1.423v-9.469c0-.368-.087-.614-.228-.72-.158-.105-.421-.158-.808-.158h-.422v-.457c1.265-.052 2.302-.316 3.092-.755v1.493Zm2.056 7.431c.948 0 1.686-.369 2.213-1.107.527-.737.79-1.791.773-3.18 0-1.176-.246-2.107-.737-2.775-.492-.668-1.16-1.001-2.003-1.001-1.16 0-1.88.632-2.161 1.88-.088.439-.14 1.159-.14 2.125v3.198c.65.58 1.334.86 2.055.86Zm13.14-.615a.533.533 0 0 1-.51-.298c-.087-.211-.14-.562-.14-1.072v-4.04c0-1.02-.246-1.757-.72-2.214-.492-.457-1.265-.685-2.336-.685-.861 0-1.634.158-2.32.474-.263.106-.42.281-.474.527l-.28 1.02c-.018.087.017.14.14.175l.562.14a.436.436 0 0 0 .14.018c.088 0 .229-.14.387-.44.474-.878 1.036-1.334 1.704-1.334 1.019 0 1.546.878 1.564 2.652l-1.986.773c-.808.299-1.387.563-1.756.773-.914.545-1.388 1.3-1.388 2.266 0 .738.21 1.318.65 1.775.439.457 1.001.685 1.704.685.386 0 .826-.176 1.318-.51l1.405-.93c.035.509.175.983.44 1.44l2.581-.826-.122-.51c-.211.106-.404.141-.563.141Zm-2.266-2.95c0 2.02-.667 3.02-1.985 3.02-.457 0-.808-.14-1.09-.42-.263-.282-.403-.668-.403-1.108 0-1.001.615-1.756 1.862-2.283.33-.144.753-.299 1.26-.484l.356-.131v1.405Zm21.626-3.04c-.475-1.564-1.546-2.319-3.198-2.319-1.247 0-2.248.422-3.004 1.265-.808.913-1.212 2.02-1.212 3.338 0 1.352.404 2.547 1.23 3.548.773.931 1.95 1.388 3.549 1.388H72l2.372-1.124-.281-.545c-.826.422-1.529.615-2.109.615-.65 0-1.212-.14-1.704-.421-1.16-.65-1.756-1.915-1.774-3.778h5.868c0-.825-.07-1.475-.211-1.967Zm-2.53 1.3h-3.127a8.98 8.98 0 0 1 .193-1.247c.352-1.178 1.054-1.775 2.126-1.775.562 0 1.037.194 1.405.562.37.37.563.844.563 1.406 0 .703-.387 1.054-1.16 1.054Zm12.473-3.619.21.228-.526.756h-1.88c.527.597.79 1.3.79 2.125 0 .879-.333 1.617-1.018 2.214s-1.529.896-2.548.896h-.72c-.351.263-.51.51-.51.72 0 .193.124.352.37.44.351.14 1.001.263 1.95.403.913.14 1.58.299 2.02.492.966.44 1.44 1.16 1.44 2.179s-.474 1.88-1.44 2.582c-.755.545-1.722.826-2.899.826-.773 0-1.475-.123-2.143-.404-.65-.281-1.16-.65-1.493-1.09-.387-.509-.58-1.141-.58-1.88 0-.35.088-.561.228-.65l1.915-1.036c-.79-.175-1.177-.544-1.177-1.089 0-.035 0-.088.018-.158v-.14l1.739-1.441c-1.388-.615-2.073-1.581-2.073-2.899 0-.93.334-1.669 1.019-2.23.667-.563 1.563-.844 2.635-.844.562 0 1.107.07 1.599.246.158.018.316.018.474.018.949 0 1.827-.088 2.6-.264Zm-4.216 9.258-1.792-.316c-.58.369-.966.703-1.142.984-.21.28-.316.615-.316 1.036 0 .668.263 1.212.808 1.651.544.44 1.23.65 2.055.65.808 0 1.476-.193 2.003-.597.51-.404.773-.93.773-1.546 0-.826-.44-1.353-1.282-1.616a10.657 10.657 0 0 0-1.107-.246Zm-1.775-4.374c.352.544.809.825 1.37.825 1.02 0 1.547-.808 1.564-2.424 0-.878-.158-1.581-.456-2.073-.3-.492-.703-.738-1.23-.738-.562 0-1.002.194-1.318.615-.316.404-.474.966-.474 1.704 0 .843.193 1.546.544 2.09Zm13.598 3.425a.533.533 0 0 1-.51-.298c-.087-.211-.14-.562-.14-1.072v-4.04c0-1.02-.246-1.757-.72-2.214-.492-.457-1.265-.685-2.337-.685-.86 0-1.634.158-2.336.474a.788.788 0 0 0-.475.527l-.263 1.02c-.018.087.017.14.14.175l.562.14a.386.386 0 0 0 .141.018c.105 0 .228-.14.386-.44.475-.878 1.037-1.334 1.687-1.334 1.036 0 1.546.878 1.563 2.652l-1.985.773c-.808.299-1.388.563-1.756.773-.914.545-1.388 1.3-1.388 2.266 0 .738.21 1.318.65 1.775.439.457 1.001.685 1.704.685.386 0 .843-.176 1.335-.51l1.405-.93c.035.509.176.983.44 1.44l2.582-.826-.106-.51c-.228.106-.439.141-.58.141Zm-2.284-2.95c0 2.02-.668 3.02-1.985 3.02-.44 0-.808-.14-1.09-.42-.263-.282-.403-.668-.403-1.108 0-1.001.615-1.756 1.862-2.283.403-.169.904-.353 1.532-.584l.084-.031v1.405Zm18.182-2.127v3.813c0 .825.071 1.3.176 1.475.123.158.562.264 1.283.334v.474h-4.55v-.474c.72-.07 1.141-.193 1.264-.351.123-.159.194-.65.194-1.459v-3.32c0-1.001-.141-1.704-.404-2.108-.264-.404-.738-.615-1.388-.615-.756 0-1.335.264-1.739.773-.281.37-.475.879-.563 1.511-.035.299-.052.843-.052 1.634v2.108c0 .826.07 1.3.193 1.458.123.158.562.281 1.282.351v.475h-4.567v-.475c.72-.07 1.142-.193 1.265-.35.14-.159.193-.65.193-1.459v-3.32c0-1.002-.123-1.704-.369-2.108-.263-.387-.72-.598-1.388-.598-.755 0-1.317.246-1.721.738-.44.51-.668 1.581-.668 3.18v2.125c0 .826.07 1.3.193 1.459.123.158.562.28 1.283.351v.474h-4.568v-.474c.72-.07 1.142-.193 1.265-.351.123-.159.193-.65.193-1.459v-4.918c0-.37-.07-.615-.21-.72-.159-.124-.422-.176-.826-.176h-.422v-.457c1.247-.053 2.284-.316 3.092-.773v1.599c.878-1.072 1.985-1.599 3.32-1.599.633 0 1.107.105 1.458.351.334.246.65.65.914 1.248.949-1.072 2.055-1.599 3.285-1.599 1.388 0 2.214.58 2.477 1.757.07.351.105.825.105 1.475Zm4.129-4.444c.298 0 .562-.106.755-.299a.994.994 0 0 0 .316-.755 1.02 1.02 0 0 0-.316-.756 1.012 1.012 0 0 0-.738-.316c-.298 0-.544.106-.755.316-.211.211-.316.457-.316.72 0 .3.105.563.316.774.193.228.439.316.738.316Zm.984 1.124v7.027c0 .79.052 1.283.193 1.44.105.176.544.3 1.265.37v.474h-4.55v-.474c.72-.07 1.142-.194 1.265-.352.123-.158.193-.65.193-1.458v-4.919c0-.369-.07-.615-.211-.72-.158-.106-.422-.158-.826-.158h-.421v-.457c1.247-.053 2.284-.316 3.092-.773Zm11.524 7.027v-3.83c0-.79-.053-1.335-.158-1.65-.369-1.037-1.212-1.547-2.53-1.547-1.44 0-2.653.527-3.636 1.581v-1.58c-.791.438-1.827.702-3.092.755v.456h.421c.387 0 .65.053.808.158.159.106.229.352.229.72v4.937c0 .773-.07 1.247-.193 1.423-.141.158-.545.299-1.248.387v.474h4.568v-.474c-.72-.106-1.16-.229-1.283-.387s-.193-.632-.193-1.423v-2.23c0-.809.053-1.441.141-1.88.281-1.3 1.124-1.95 2.494-1.95.773 0 1.3.21 1.599.597.299.404.457 1.106.457 2.09v3.373c0 .773-.053 1.247-.141 1.388-.14.21-.562.351-1.317.422v.474h4.55v-.474c-.738-.07-1.177-.194-1.3-.387-.123-.123-.176-.597-.176-1.423Zm11.05-7.027.211.229-.527.755h-1.88c.527.597.791 1.3.791 2.126 0 .878-.334 1.616-1.019 2.213-.668.597-1.529.896-2.548.896h-.702c-.334.264-.51.51-.51.72 0 .194.123.352.369.44.351.14 1.001.263 1.95.404.914.14 1.581.298 2.02.491.967.44 1.441 1.16 1.441 2.179s-.492 1.88-1.441 2.582c-.755.545-1.721.826-2.898.826-.773 0-1.476-.123-2.144-.404-.65-.281-1.159-.65-1.493-1.09-.386-.509-.579-1.141-.579-1.879 0-.351.07-.562.21-.65l1.915-1.037c-.773-.175-1.177-.544-1.177-1.089 0-.035 0-.088.018-.158v-.14l1.739-1.44c-1.388-.616-2.073-1.582-2.073-2.9 0-.93.334-1.668 1.019-2.23.685-.563 1.563-.844 2.635-.844.562 0 1.089.07 1.599.246.14.018.316.018.474.018.966 0 1.827-.088 2.6-.264Zm-4.216 9.258-1.792-.316c-.58.369-.966.703-1.142.984-.211.28-.316.615-.316 1.036 0 .668.263 1.212.808 1.652.527.439 1.212.65 2.038.65.808 0 1.475-.194 2.002-.598.527-.404.791-.93.791-1.546 0-.825-.439-1.352-1.282-1.616a10.749 10.749 0 0 0-1.107-.246Zm-1.775-4.374c.352.545.809.826 1.371.826 1.019 0 1.528-.809 1.528-2.425 0-.878-.14-1.58-.439-2.073-.299-.492-.703-.738-1.23-.738-.544 0-.984.194-1.3.615-.316.404-.474.966-.474 1.704 0 .844.193 1.546.544 2.09Zm8.837-4.023h-.861v-.334h2.091v.334h-.861v2.319h-.369v-2.32Zm2.389-.334h-.545v2.653h.369v-2.179l.914 2.179h.246l.913-2.179v2.179h.369V10.91h-.544l-.844 2.02h-.017l-.861-2.02Z" clip-rule="evenodd"/></g><defs><clipPath id="a"><path fill="#fff" d="M.149.001h143.703v26H.149z"/></clipPath></defs></svg>