<svg width="144" height="26" viewBox="0 0 144 26" fill="none" xmlns="http://www.w3.org/2000/svg">
<g clip-path="url(#clip0_4132_6922)">
<path fill-rule="evenodd" clip-rule="evenodd" d="M20.3162 9.08301C22.8108 13.1587 21.9851 17.1992 19.877 19.079C18.6297 20.2033 16.8905 20.3965 15.6081 20.3087C15.7135 20.5195 15.8716 20.7479 16.0649 20.9587C16.8554 21.8019 18.2257 22.2411 20.123 22.2411V23.3479C17.8743 23.3479 16.2405 22.7857 15.2216 21.679C14.3432 20.7127 14.1676 19.5533 14.15 19.0087C15.0811 19.2019 17.6811 19.5708 19.1919 18.2181C20.9486 16.6371 21.5986 13.1763 19.4203 9.61004C17.3361 6.18732 12.3266 2.78095 11.7688 2.40163L11.7257 2.3722L11.5676 2.2668L11.4095 2.3722C11.1986 2.51274 5.87567 6.06139 3.71486 9.61004C1.53648 13.1763 2.16891 16.6371 3.94323 18.2181C5.45405 19.5884 8.05405 19.2019 8.98513 19.0087C8.96756 19.5533 8.79188 20.7127 7.9135 21.679C6.89459 22.7857 5.24323 23.3479 3.01215 23.3479V22.2411C4.90945 22.2411 6.27972 21.8195 7.07026 20.9587C7.2635 20.7479 7.42161 20.5371 7.52702 20.3087C6.17432 20.379 4.43513 20.1857 3.18783 19.0614C1.07972 17.1817 0.254045 13.1411 2.74864 9.06544C4.95349 5.43592 10.1712 1.88826 10.7347 1.5051L10.777 1.47626L11.5324 0.966797L12.2878 1.47626C12.5338 1.63436 18.0324 5.32355 20.3162 9.08301ZM13.5527 18.6574L13.5878 18.3412L13.9041 18.429C13.9062 18.429 13.9209 18.4324 13.9469 18.4383C14.3369 18.5276 17.2726 19.1998 18.7878 17.8493C20.3513 16.4615 20.9135 13.2115 18.9108 9.94389C17.0135 6.81687 12.4284 3.58443 11.5324 2.96957C10.6365 3.58443 6.05135 6.81687 4.15405 9.94389C2.15135 13.2115 2.73108 16.4615 4.27702 17.8493C5.79224 19.1998 8.72798 18.5276 9.11794 18.4383C9.14393 18.4324 9.15861 18.429 9.16081 18.429L9.47702 18.3412L9.51216 18.6574C9.51216 18.6607 9.5125 18.6678 9.51301 18.6785C9.52359 18.8983 9.60744 20.6416 8.31756 22.0655C7.19324 23.2952 5.40135 23.9101 3.01216 23.9101V25.0169C5.73513 25.0169 7.8081 24.279 9.14324 22.8034C10.8099 20.9789 10.6545 18.804 10.6366 18.553L10.6365 18.552L10.4784 16.9358L8.91486 17.3574C8.21216 17.5331 6.01621 17.8844 5.05 17.0236C3.82027 15.9344 3.43378 13.2642 5.12027 10.5061C6.63108 8.02903 10.0392 5.41146 11.5676 4.3047C13.0959 5.39389 16.4865 8.01146 18.0149 10.5061C19.7013 13.2642 19.3149 15.9344 18.0851 17.0236C17.1189 17.8844 14.923 17.5507 14.2203 17.3574L12.6392 16.9358L12.4986 18.5696L12.4986 18.5706C12.4806 18.8215 12.3253 20.9964 13.9919 22.8209C15.327 24.279 17.4 25.0344 20.123 25.0344V23.9277C17.7162 23.9277 15.9419 23.2952 14.8176 22.0831C13.464 20.646 13.541 18.9228 13.5518 18.6825C13.5523 18.6701 13.5527 18.6617 13.5527 18.6574ZM64.7095 17.4101C64.7095 18.3236 64.9203 18.7803 65.3595 18.7803C65.5 18.7803 65.6933 18.7452 65.9392 18.6398L66.0622 19.1493L63.4446 19.9749C63.1987 19.6587 63.0757 19.2722 63.0405 18.8155V18.6925L61.8284 19.4128C61.196 19.7817 60.6689 19.9749 60.2297 19.9749C59.0878 19.9749 58.1392 19.5182 57.3487 18.6222C56.5581 17.7087 56.1716 16.602 56.1716 15.2668C56.1716 13.8439 56.6108 12.6844 57.5243 11.7885C58.4378 10.8925 59.6149 10.4533 61.073 10.4533C61.7757 10.4533 62.4433 10.5587 63.0581 10.752V8.43305C63.0581 7.95872 62.9878 7.66007 62.8473 7.55467C62.7068 7.44926 62.4608 7.39656 62.1095 7.39656H61.6176V6.90467C62.6892 6.90467 63.7257 6.72899 64.7095 6.36007V17.4101ZM62.7595 18.0952C62.9703 17.8668 63.0757 17.3749 63.0757 16.6547V12.1749C62.5662 11.4371 61.846 11.0682 60.8973 11.0682C59.9662 11.0682 59.2284 11.4547 58.7014 12.2452C58.2446 12.9479 58.0162 13.7912 58.0162 14.7749C58.0162 15.7939 58.2446 16.7074 58.6838 17.5155C59.2108 18.4993 59.9487 18.9912 60.8797 18.9912C61.2135 18.9912 61.5649 18.8858 61.9338 18.7101C62.2676 18.5344 62.5487 18.3236 62.7595 18.0952ZM31.1378 11.1912C31.4541 11.4547 32.1568 11.9993 33.2459 12.8074C34.2297 13.5628 34.9149 14.1601 35.2838 14.6871C35.6351 15.1966 35.8284 15.7939 35.8284 16.4615C35.8284 17.5331 35.4243 18.3939 34.5986 19.0439C33.773 19.7115 32.7013 20.0277 31.3662 20.0277C30.8743 20.0277 30.3122 19.9574 29.6797 19.852C29.0649 19.7466 28.6257 19.6236 28.3797 19.5007C28.2392 19.4304 28.1689 19.3074 28.1689 19.1142V16.5493H28.6257C28.7662 17.3398 28.9243 17.8844 29.1527 18.2182C29.7149 19.0263 30.4878 19.4304 31.4892 19.4304C32.2095 19.4304 32.7892 19.2196 33.2459 18.7628C33.7027 18.3061 33.9311 17.7439 33.9311 17.0588C33.9311 16.4088 33.7203 15.829 33.2811 15.3196C32.8595 14.7925 31.9635 14.0723 30.6108 13.1236C29.75 12.5088 29.1527 11.9817 28.8365 11.5601C28.5027 11.1209 28.3446 10.6115 28.3446 9.9966C28.3446 8.97768 28.7662 8.16957 29.6095 7.58984C30.3473 7.09795 31.2432 6.83443 32.3149 6.83443C33.7554 6.83443 34.5986 6.97497 34.8446 7.25606C34.8973 7.29119 34.9149 7.36146 34.9149 7.46687V9.80335H34.4405C34.2122 8.23984 33.4392 7.46687 32.1392 7.46687C31.5243 7.46687 31.05 7.64254 30.6986 7.99389C30.3473 8.34524 30.1716 8.81957 30.1716 9.41687C30.1716 9.87362 30.2946 10.2425 30.523 10.5236C30.7513 10.7871 30.9622 11.0155 31.1378 11.1912ZM39.6054 11.9642C40.396 10.9628 41.45 10.471 42.7324 10.471C43.8743 10.471 44.7703 10.8574 45.4554 11.6128C46.1405 12.3858 46.4743 13.4223 46.4743 14.7399C46.4743 16.2507 46.0176 17.5155 45.1041 18.4993C44.1905 19.4831 43.0487 19.975 41.6608 19.975C40.9932 19.975 40.3081 19.8345 39.6054 19.5534V22.0128C39.6054 22.821 39.6932 23.3128 39.8514 23.471C40.0095 23.6291 40.5541 23.752 41.4676 23.8399V24.3142H36.4959V23.8399C37.2162 23.752 37.6203 23.6115 37.7608 23.4534C37.9014 23.2953 37.9716 22.821 37.9716 22.0304V12.5615C37.9716 12.1926 37.8838 11.9466 37.7432 11.8412C37.5851 11.7358 37.3216 11.6831 36.9351 11.6831H36.5135V11.2264C37.7784 11.1737 38.8149 10.9101 39.6054 10.471V11.9642ZM41.6608 19.3953C42.6095 19.3953 43.3473 19.0264 43.8743 18.2885C44.4014 17.5507 44.6649 16.4966 44.6473 15.1088C44.6473 13.9318 44.4014 13.0007 43.9095 12.3331C43.4176 11.6655 42.75 11.3318 41.9068 11.3318C40.7473 11.3318 40.027 11.9642 39.7459 13.2115C39.6581 13.6507 39.6054 14.371 39.6054 15.3372V18.5345C40.2554 19.1142 40.9405 19.3953 41.6608 19.3953ZM54.8014 18.7804C54.5554 18.7804 54.3973 18.675 54.2919 18.4818C54.2041 18.271 54.1514 17.9196 54.1514 17.4101V13.3696C54.1514 12.3507 53.9054 11.6128 53.4311 11.1561C52.9392 10.6993 52.1662 10.471 51.0946 10.471C50.2338 10.471 49.4608 10.6291 48.7757 10.9453C48.5122 11.0507 48.3541 11.2264 48.3014 11.4723L48.0203 12.4912C48.0027 12.5791 48.0378 12.6318 48.1608 12.6669L48.723 12.8074C48.7757 12.825 48.8284 12.825 48.8635 12.825C48.9514 12.825 49.0919 12.6845 49.25 12.3858C49.7243 11.5074 50.2865 11.0507 50.9541 11.0507C51.973 11.0507 52.5 11.9291 52.5176 13.7034L50.5324 14.4764C49.7243 14.775 49.1446 15.0385 48.7757 15.2493C47.8622 15.7939 47.3878 16.5493 47.3878 17.5155C47.3878 18.2534 47.5987 18.8331 48.0378 19.2899C48.477 19.7466 49.0392 19.975 49.7419 19.975C50.1284 19.975 50.5676 19.7993 51.0595 19.4655L52.4649 18.5345C52.5 19.0439 52.6405 19.5183 52.9041 19.975L55.4865 19.1493L55.3635 18.6399C55.1527 18.7453 54.9595 18.7804 54.8014 18.7804ZM52.5351 15.8291C52.5351 17.8493 51.8676 18.8507 50.55 18.8507C50.0932 18.8507 49.7419 18.7101 49.4608 18.4291C49.1973 18.148 49.0568 17.7615 49.0568 17.3223C49.0568 16.321 49.6716 15.5655 50.9189 15.0385C51.2485 14.8952 51.6715 14.7403 52.1785 14.5546L52.1786 14.5545L52.1787 14.5545L52.1789 14.5544C52.2934 14.5125 52.4122 14.469 52.5351 14.4237V15.8291ZM74.1608 12.7899C73.6865 11.2264 72.6149 10.471 70.9635 10.471C69.7162 10.471 68.7149 10.8926 67.9594 11.7358C67.1513 12.6493 66.7473 13.7561 66.7473 15.0737C66.7473 16.4264 67.1513 17.621 67.977 18.6223C68.75 19.5534 69.927 20.0101 71.5257 20.0101H72L74.3716 18.8858L74.0905 18.3412C73.2649 18.7628 72.5622 18.9561 71.9824 18.9561C71.3324 18.9561 70.7703 18.8155 70.2784 18.5345C69.1189 17.8845 68.5216 16.6196 68.5041 14.7574H74.3716C74.3716 13.9318 74.3013 13.2818 74.1608 12.7899ZM71.6311 14.0899H68.5041C68.5567 13.5453 68.627 13.1237 68.6973 12.8426C69.0486 11.6655 69.7513 11.0683 70.823 11.0683C71.3851 11.0683 71.8595 11.2615 72.2284 11.6304C72.5973 11.9993 72.7905 12.4737 72.7905 13.0358C72.7905 13.7385 72.404 14.0899 71.6311 14.0899ZM84.1041 10.471L84.3149 10.6993L83.7878 11.4547H81.9081C82.4351 12.052 82.6987 12.7547 82.6987 13.5804C82.6987 14.4588 82.3649 15.1966 81.6797 15.7939C80.9946 16.3912 80.1514 16.6899 79.1324 16.6899H78.4122C78.0608 16.9534 77.9027 17.1993 77.9027 17.4101C77.9027 17.6034 78.0257 17.7615 78.2716 17.8493C78.623 17.9899 79.273 18.1128 80.2216 18.2534C81.1351 18.3939 81.8027 18.552 82.2419 18.7453C83.2081 19.1845 83.6824 19.9047 83.6824 20.9237C83.6824 21.9426 83.2081 22.8034 82.2419 23.5061C81.4865 24.0507 80.5203 24.3318 79.3432 24.3318C78.5703 24.3318 77.8676 24.2088 77.2 23.9277C76.55 23.6466 76.0405 23.2777 75.7068 22.8385C75.3203 22.3291 75.127 21.6966 75.127 20.9588C75.127 20.6074 75.2149 20.3966 75.3554 20.3088L77.2703 19.2723C76.4797 19.0966 76.0932 18.7277 76.0932 18.1831C76.0932 18.148 76.0932 18.0953 76.1108 18.025V17.8845L77.85 16.4439C76.4622 15.8291 75.777 14.8628 75.777 13.5453C75.777 12.6142 76.1108 11.8764 76.796 11.3142C77.4635 10.752 78.3595 10.471 79.4311 10.471C79.9932 10.471 80.5378 10.5412 81.0297 10.7169C81.1878 10.7345 81.346 10.7345 81.5041 10.7345C82.4527 10.7345 83.3311 10.6466 84.1041 10.471ZM79.8878 19.7291L78.096 19.4128C77.5162 19.7818 77.1297 20.1155 76.9541 20.3966C76.7432 20.6777 76.6378 21.0115 76.6378 21.4331C76.6378 22.1007 76.9014 22.6453 77.446 23.0845C77.9905 23.5237 78.6757 23.7345 79.5014 23.7345C80.3095 23.7345 80.977 23.5412 81.5041 23.1372C82.0135 22.7331 82.277 22.2061 82.277 21.5912C82.277 20.7655 81.8378 20.2385 80.9946 19.975C80.6784 19.8872 80.3095 19.7993 79.8878 19.7291ZM78.1135 15.3547C78.4649 15.8993 78.9216 16.1804 79.4838 16.1804C80.5027 16.1804 81.0297 15.3723 81.0473 13.7561C81.0473 12.8777 80.8892 12.175 80.5905 11.6831C80.2919 11.1912 79.8878 10.9453 79.3608 10.9453C78.7987 10.9453 78.3595 11.1385 78.0432 11.5601C77.727 11.9642 77.5689 12.5264 77.5689 13.2642C77.5689 14.1074 77.7622 14.8101 78.1135 15.3547ZM91.7108 18.7804C91.4649 18.7804 91.3068 18.675 91.2014 18.4818C91.1135 18.271 91.0608 17.9196 91.0608 17.4101V13.3696C91.0608 12.3507 90.8149 11.6128 90.3405 11.1561C89.8487 10.6993 89.0757 10.471 88.0041 10.471C87.1432 10.471 86.3703 10.6291 85.6676 10.9453C85.4216 11.0507 85.2635 11.2264 85.1932 11.4723L84.9297 12.4912C84.9122 12.5791 84.9473 12.6318 85.0703 12.6669L85.6324 12.8074C85.6851 12.825 85.7203 12.825 85.773 12.825C85.8784 12.825 86.0014 12.6845 86.1595 12.3858C86.6338 11.5074 87.196 11.0507 87.846 11.0507C88.8824 11.0507 89.3919 11.9291 89.4095 13.7034L87.4243 14.4764C86.6162 14.775 86.0365 15.0385 85.6676 15.2493C84.7541 15.7939 84.2797 16.5493 84.2797 17.5155C84.2797 18.2534 84.4905 18.8331 84.9297 19.2899C85.3689 19.7466 85.9311 19.975 86.6338 19.975C87.0203 19.975 87.477 19.7993 87.9689 19.4655L89.3743 18.5345C89.4095 19.0439 89.55 19.5183 89.8135 19.975L92.396 19.1493L92.2905 18.6399C92.0622 18.7453 91.8514 18.7804 91.7108 18.7804ZM89.427 15.8291C89.427 17.8493 88.7595 18.8507 87.4419 18.8507C87.0027 18.8507 86.6338 18.7101 86.3527 18.4291C86.0892 18.148 85.9487 17.7615 85.9487 17.3223C85.9487 16.321 86.5635 15.5655 87.8108 15.0385C88.2145 14.8703 88.7149 14.686 89.3428 14.4547L89.343 14.4546L89.3433 14.4545L89.3434 14.4545L89.427 14.4237V15.8291ZM107.609 13.7034V17.5155C107.609 18.3412 107.68 18.8155 107.785 18.9912C107.908 19.1493 108.347 19.2547 109.068 19.325V19.7993H104.518V19.325C105.238 19.2547 105.659 19.1318 105.782 18.9737C105.905 18.8155 105.976 18.3237 105.976 17.5155V14.1953C105.976 13.1939 105.835 12.4912 105.572 12.0872C105.308 11.6831 104.834 11.4723 104.184 11.4723C103.428 11.4723 102.849 11.7358 102.445 12.2453C102.164 12.6142 101.97 13.1237 101.882 13.7561C101.847 14.0547 101.83 14.5993 101.83 15.3899V17.498C101.83 18.3237 101.9 18.798 102.023 18.9561C102.146 19.1142 102.585 19.2372 103.305 19.3074V19.7818H98.7378V19.3074C99.4581 19.2372 99.8797 19.1142 100.003 18.9561C100.143 18.798 100.196 18.3061 100.196 17.498V14.1777C100.196 13.1764 100.073 12.4737 99.827 12.0696C99.5635 11.6831 99.1068 11.4723 98.4392 11.4723C97.6838 11.4723 97.1216 11.7183 96.7176 12.2101C96.2784 12.7196 96.05 13.7912 96.05 15.3899V17.5155C96.05 18.3412 96.1203 18.8155 96.2433 18.9737C96.3662 19.1318 96.8054 19.2547 97.5257 19.325V19.7993H92.9581V19.325C93.6784 19.2547 94.1 19.1318 94.223 18.9737C94.346 18.8155 94.4162 18.3237 94.4162 17.5155V12.5966C94.4162 12.2277 94.346 11.9818 94.2054 11.8764C94.0473 11.7534 93.7838 11.7007 93.3797 11.7007H92.9581V11.2439C94.2054 11.1912 95.2419 10.9277 96.05 10.471V12.0696C96.9284 10.998 98.0351 10.471 99.3703 10.471C100.003 10.471 100.477 10.5764 100.828 10.8223C101.162 11.0683 101.478 11.4723 101.742 12.0696C102.691 10.998 103.797 10.471 105.027 10.471C106.415 10.471 107.241 11.0507 107.504 12.2277C107.574 12.5791 107.609 13.0534 107.609 13.7034ZM111.738 9.25879C112.036 9.25879 112.3 9.15339 112.493 8.96014C112.704 8.7669 112.809 8.50339 112.809 8.20474C112.809 7.90609 112.704 7.66014 112.493 7.44933C112.282 7.23852 112.036 7.13312 111.755 7.13312C111.457 7.13312 111.211 7.23852 111 7.44933C110.789 7.66014 110.684 7.90609 110.684 8.1696C110.684 8.46825 110.789 8.73177 111 8.94258C111.193 9.17095 111.439 9.25879 111.738 9.25879ZM112.722 10.3831V17.4101C112.722 18.2007 112.774 18.6926 112.915 18.8507C113.02 19.0264 113.459 19.1493 114.18 19.2196V19.6939H109.63V19.2196C110.35 19.1493 110.772 19.0264 110.895 18.8682C111.018 18.7101 111.088 18.2183 111.088 17.4101V12.4912C111.088 12.1223 111.018 11.8764 110.877 11.771C110.719 11.6655 110.455 11.6128 110.051 11.6128H109.63V11.1561C110.877 11.1034 111.914 10.8399 112.722 10.3831ZM124.246 17.4101V13.5804C124.246 12.7899 124.193 12.2453 124.088 11.9291C123.719 10.8926 122.876 10.3831 121.558 10.3831C120.118 10.3831 118.905 10.9101 117.922 11.9642V10.3831C117.131 10.8223 116.095 11.0858 114.83 11.1385V11.5953H115.251C115.638 11.5953 115.901 11.648 116.059 11.7534C116.218 11.8588 116.288 12.1047 116.288 12.4737V17.4101C116.288 18.1831 116.218 18.6574 116.095 18.8331C115.954 18.9912 115.55 19.1318 114.847 19.2196V19.6939H119.415V19.2196C118.695 19.1142 118.255 18.9912 118.132 18.8331C118.009 18.675 117.939 18.2007 117.939 17.4101V15.1791C117.939 14.371 117.992 13.7385 118.08 13.2993C118.361 11.9993 119.204 11.3493 120.574 11.3493C121.347 11.3493 121.874 11.5601 122.173 11.9466C122.472 12.3507 122.63 13.0534 122.63 14.0372V17.4101C122.63 18.1831 122.577 18.6574 122.489 18.798C122.349 19.0088 121.927 19.1493 121.172 19.2196V19.6939H125.722V19.2196C124.984 19.1493 124.545 19.0264 124.422 18.8331C124.299 18.7101 124.246 18.2358 124.246 17.4101ZM135.296 10.3831L135.507 10.6115L134.98 11.3669H133.1C133.627 11.9642 133.891 12.6669 133.891 13.4926C133.891 14.371 133.557 15.1088 132.872 15.7061C132.204 16.3034 131.343 16.602 130.324 16.602H129.622C129.288 16.8655 129.112 17.1115 129.112 17.3223C129.112 17.5155 129.235 17.6737 129.481 17.7615C129.832 17.902 130.482 18.025 131.431 18.1655C132.345 18.3061 133.012 18.4642 133.451 18.6574C134.418 19.0966 134.892 19.8169 134.892 20.8358C134.892 21.8547 134.4 22.7155 133.451 23.4183C132.696 23.9628 131.73 24.2439 130.553 24.2439C129.78 24.2439 129.077 24.121 128.409 23.8399C127.759 23.5588 127.25 23.1899 126.916 22.7507C126.53 22.2412 126.337 21.6088 126.337 20.871C126.337 20.5196 126.407 20.3088 126.547 20.221L128.462 19.1845C127.689 19.0088 127.285 18.6399 127.285 18.0953C127.285 18.0601 127.285 18.0074 127.303 17.9372V17.7966L129.042 16.3561C127.654 15.7412 126.969 14.775 126.969 13.4574C126.969 12.5264 127.303 11.7885 127.988 11.2264C128.673 10.6642 129.551 10.3831 130.623 10.3831C131.185 10.3831 131.712 10.4534 132.222 10.6291C132.362 10.6466 132.538 10.6466 132.696 10.6466C133.662 10.6466 134.523 10.5588 135.296 10.3831ZM131.08 19.6412L129.288 19.325C128.708 19.6939 128.322 20.0277 128.146 20.3088C127.935 20.5899 127.83 20.9237 127.83 21.3453C127.83 22.0128 128.093 22.5574 128.638 22.9966C129.165 23.4358 129.85 23.6466 130.676 23.6466C131.484 23.6466 132.151 23.4534 132.678 23.0493C133.205 22.6453 133.469 22.1183 133.469 21.5034C133.469 20.6777 133.03 20.1507 132.187 19.8872C131.87 19.7993 131.501 19.7115 131.08 19.6412ZM129.305 15.2669C129.657 15.8115 130.114 16.0926 130.676 16.0926C131.695 16.0926 132.204 15.2845 132.204 13.6683C132.204 12.7899 132.064 12.0872 131.765 11.5953C131.466 11.1034 131.062 10.8574 130.535 10.8574C129.991 10.8574 129.551 11.0507 129.235 11.4723C128.919 11.8764 128.761 12.4385 128.761 13.1764C128.761 14.0196 128.954 14.7223 129.305 15.2669ZM138.142 11.2438H137.281V10.91H139.372V11.2438H138.511V13.5627H138.142V11.2438ZM140.531 10.91H139.986V13.5627H140.355V11.3843L141.269 13.5627H141.515L142.428 11.3843V13.5627H142.797V10.91H142.253L141.409 12.9302H141.392L140.531 10.91Z" fill="white"/>
</g>
<defs>
<clipPath id="clip0_4132_6922">
<rect width="143.703" height="26" fill="white" transform="translate(0.148651 0.000976562)"/>
</clipPath>
</defs>
</svg>
