<svg xmlns="http://www.w3.org/2000/svg" width="70" height="28" fill="none"><path fill="#fff" d="M.94 5.806C.94 2.112 2.758 0 6.29 0c3.532 0 5.347 2.11 5.347 5.805v.725H8.204v-.956c0-1.65-.66-2.276-1.816-2.276-1.155 0-1.816.627-1.816 2.276 0 4.75 7.099 5.64 7.099 12.236 0 3.694-1.85 5.805-5.415 5.805S.842 21.506.842 17.811v-1.418h3.433v1.65c0 1.648.727 2.242 1.882 2.242 1.156 0 1.882-.594 1.882-2.243 0-4.75-7.098-5.64-7.098-12.236ZM19.1.265c3.631 0 5.414 2.012 5.414 5.706v3.001c0 3.694-1.783 5.706-5.414 5.706h-1.717v8.674H13.75V.265H19.1Zm0 3.298h-1.717v7.817H19.1c1.155 0 1.782-.528 1.782-2.177V5.74c0-1.65-.627-2.177-1.782-2.177ZM37.586 23.352h-3.698c-.198-.593-.33-.956-.33-2.836v-3.628c0-2.144-.727-2.936-2.377-2.936h-1.255v9.4h-3.631V.265h5.48c3.764 0 5.381 1.748 5.381 5.31v1.814c0 2.375-.759 3.925-2.377 4.683 1.816.76 2.41 2.507 2.41 4.915v3.562c0 1.121.033 1.946.397 2.803Zm-5.91-19.789h-1.75v7.091h1.42c1.353 0 2.179-.593 2.179-2.44V5.938c0-1.65-.561-2.375-1.85-2.375ZM39.578 23.352V.265h3.631v23.087h-3.631ZM51.345.265c3.764 0 5.382 1.748 5.382 5.31V6.4c0 2.374-.727 3.891-2.344 4.65 1.947.759 2.707 2.507 2.707 4.947v1.88c0 3.562-1.882 5.475-5.514 5.475h-5.711V.265h5.48Zm-.23 12.698h-1.619v7.091h2.08c1.222 0 1.882-.56 1.882-2.276v-2.011c0-2.144-.693-2.804-2.344-2.804Zm.131-9.4h-1.75v6.102h1.42c1.354 0 2.179-.594 2.179-2.44V5.937c0-1.65-.561-2.375-1.849-2.375ZM62.909 3.563v6.432h4.985v3.298h-4.985v6.761h6.272v3.298h-9.904V.265h9.904v3.298H62.91ZM.71 24.78H69.29v3.221H.71v-3.22Z"/></svg>