<svg xmlns="http://www.w3.org/2000/svg" width="82" height="32" fill="none"><g clip-path="url(#a)"><path fill="#fff" fill-rule="evenodd" d="M9.94 5.14 6.7.226l.514 4.914H9.94Zm27.212 1.01a9.4 9.4 0 1 0 9.4 9.4 9.41 9.41 0 0 0-9.4-9.4Zm0 16.225a6.825 6.825 0 1 1 6.825-6.825 6.836 6.836 0 0 1-6.825 6.825ZM28.138 9.307v-3.09H14.23l2.06 3.09h3.864v15.386h2.962V9.307h5.022Zm29.747-2.576c1 0 4.09 1.844 4.09 5.409 0 4.46-3.039 5.321-4.63 5.537 1.575 2.06 4.635 6.924 4.635 6.924h-2.9l-5.795-8.886h3.38c1.972 0 3.152-2.024 3.152-3.348 0-1.324-1.515-3.158-2.576-3.158h-5.31v15.484h-2.514V6.731h8.468ZM79.2 6.633l-5.923 8.886-5.924-8.886H64.87v18.06h2.673V11.784l4.96 7.274h1.546l4.956-7.274v12.91h2.673V6.633H79.2ZM7.214 31.776l-3.997-5.934h2.658l1.34 5.934ZM10.738 6.35l2.333 3.534H4.38l8.37 11.914v2.833H2.403l-1.952-2.9h8.242L.322 9.822V6.345l4.013.005h.005l3.003.005-.005-.005h3.4Z" clip-rule="evenodd"/></g><defs><clipPath id="a"><path fill="#fff" d="M.322.001h81.356v32H.322z"/></clipPath></defs></svg>