<svg xmlns="http://www.w3.org/2000/svg" width="134" height="26" fill="none"><g clip-path="url(#a)"><path fill="#fff" fill-rule="evenodd" d="M5.56 10.202c1.408.4 2.652.754 2.76 1.91.127 1.326-1.457 1.76-2.541 1.61-1.198-.164-2.243-.684-3.135-1.56a.125.125 0 0 0-.106-.036.124.124 0 0 0-.092.065L.76 15.305a.211.211 0 0 0-.018.15c.012.05.043.094.086.122 2.594 1.717 5.942 2.325 8.84 1.073 2.06-.89 3.092-2.598 3.096-5.123.006-3.362-2.683-4.14-5.316-4.901l-.238-.069a3.082 3.082 0 0 1-.827-.378c-.624-.402-.896-1.226-.31-1.782 1.12-1.063 3.013-.52 4.118.34a.224.224 0 0 0 .183.042.219.219 0 0 0 .148-.113l1.498-2.895c.057-.11.03-.193-.083-.248C9.046.146 5.108-.52 2.753 1.945 1.658 3.089 1.194 4.603 1.362 6.486c.228 2.588 2.354 3.192 4.198 3.716Zm19.187-.625c-.003 2.393-.682 4.517-3.684 3.962-1.85-.343-2.104-2.243-2.107-3.827-.01-3.005-.012-5.936-.006-8.792.002-.12-.058-.18-.18-.18h-3.906c-.112 0-.168.056-.168.168.017 2.87.015 5.905-.006 9.106-.024 3.483.936 6.134 4.763 7.029 3.462.81 8.364-.003 9.283-4.19.163-.74.247-1.506.25-2.296.01-3.265.013-6.479.007-9.64 0-.118-.058-.177-.175-.177H24.91a.163.163 0 0 0-.163.162c.002 2.809.002 5.7 0 8.675Zm11.192 2.11.003 5.004c0 .122-.062.183-.186.183l-3.859.003c-.136 0-.204-.068-.204-.204V.828a.083.083 0 0 1 .08-.083c2.635-.02 4.991-.015 7.067.012 2.931.039 5.02 1.717 5.277 4.642.192 2.16-.387 4.438-2.44 5.463-1.425.712-3.089.689-4.72.666-.285-.003-.569-.007-.85-.007-.112 0-.168.055-.168.165Zm0-7.452v3.77a.118.118 0 0 0 .118.118h1.77c.5 0 .98-.184 1.335-.511.354-.328.553-.772.553-1.235v-.514c0-.463-.2-.908-.553-1.235a1.969 1.969 0 0 0-1.335-.511h-1.77a.118.118 0 0 0-.118.118Zm14.368 2.647.003-2.497a.1.1 0 0 1 .1-.1h4.855a.1.1 0 0 0 .1-.1V.84a.1.1 0 0 0-.1-.1h-9.142a.1.1 0 0 0-.1.1v15.937a.1.1 0 0 0 .1.1h9.139a.1.1 0 0 0 .1-.1l.006-3.345a.1.1 0 0 0-.1-.1l-4.86.006a.1.1 0 0 1-.101-.1v-2.615a.1.1 0 0 1 .1-.101l4.604.003a.1.1 0 0 0 .07-.03.101.101 0 0 0 .03-.07l-.006-3.342a.1.1 0 0 0-.1-.1h-4.598a.1.1 0 0 1-.1-.101Zm11.924 4.003.006 5.806c0 .122-.06.183-.183.183l-3.861.003a.204.204 0 0 1-.204-.204V.825a.077.077 0 0 1 .077-.077 313.3 313.3 0 0 1 6.948.012c2.246.027 4.432 1.327 4.887 3.673.488 2.52-.576 5.344-3.306 5.785-.11.017-.13.07-.062.156l4.964 6.388a.07.07 0 0 1 .008.075.07.07 0 0 1-.064.04h-5.035a.206.206 0 0 1-.174-.094l-3.841-5.945c-.106-.163-.16-.148-.16.047Zm.012-6.854-.018 3.84a.076.076 0 0 0 .074.078l1.064.005c.292.002.581-.043.852-.134.27-.09.516-.224.723-.393.208-.17.373-.37.486-.592.112-.222.171-.46.173-.7v-.331c.002-.486-.23-.953-.643-1.299-.415-.345-.978-.542-1.567-.545l-1.064-.006a.076.076 0 0 0-.08.077Zm70.759 12.856a.107.107 0 0 0 .032-.078V.85a.107.107 0 0 0-.032-.077.108.108 0 0 0-.077-.032H72.321a.11.11 0 0 0-.11.109v15.96a.11.11 0 0 0 .11.11h60.604a.108.108 0 0 0 .077-.032ZM95.865 6.135c.37.845.56 1.751.562 2.666a6.674 6.674 0 0 1-.553 2.669 6.957 6.957 0 0 1-1.585 2.264 7.366 7.366 0 0 1-2.376 1.515 7.66 7.66 0 0 1-2.804.535 7.66 7.66 0 0 1-2.806-.526 7.367 7.367 0 0 1-2.38-1.506 6.956 6.956 0 0 1-1.594-2.259 6.673 6.673 0 0 1-.562-2.666 6.675 6.675 0 0 1 .553-2.668 6.958 6.958 0 0 1 1.585-2.264 7.366 7.366 0 0 1 2.376-1.515 7.661 7.661 0 0 1 2.804-.535 7.66 7.66 0 0 1 2.806.525c.89.349 1.699.86 2.38 1.507a6.958 6.958 0 0 1 1.594 2.258Zm35.046-.021c.373.843.567 1.747.572 2.662a6.658 6.658 0 0 1-.544 2.668 6.956 6.956 0 0 1-1.577 2.267 7.38 7.38 0 0 1-2.37 1.522 7.672 7.672 0 0 1-5.611.03 7.369 7.369 0 0 1-2.386-1.498 6.937 6.937 0 0 1-1.6-2.25 6.647 6.647 0 0 1-.028-5.33 6.941 6.941 0 0 1 1.577-2.268 7.358 7.358 0 0 1 2.37-1.522 7.665 7.665 0 0 1 2.802-.544 7.665 7.665 0 0 1 2.808.515 7.369 7.369 0 0 1 2.386 1.497 6.956 6.956 0 0 1 1.601 2.25ZM77.259 12.42c.02.02.046.03.073.03l3.933-.003a.103.103 0 0 1 .103.104v2.674a.103.103 0 0 1-.103.103l-7.33-.003a.103.103 0 0 1-.104-.103V2.397a.103.103 0 0 1 .103-.103l3.194-.006a.104.104 0 0 1 .104.103l-.003 9.957c0 .027.01.054.03.073Zm22.51-7.223a.091.091 0 0 0-.065-.027h-2.662a.091.091 0 0 1-.092-.091l.006-2.698a.092.092 0 0 1 .092-.091h8.899c.024 0 .047.01.065.026.017.018.026.04.026.065l-.005 2.698a.092.092 0 0 1-.092.091h-2.621a.094.094 0 0 0-.065.027.092.092 0 0 0-.026.065l.003 9.977a.093.093 0 0 1-.092.092l-3.253-.009a.092.092 0 0 1-.091-.091v-9.97a.092.092 0 0 0-.027-.064Zm13.717 0a.091.091 0 0 0-.026.062v9.98a.083.083 0 0 1-.003.023l-.001.005-.003.006a.072.072 0 0 1-.019.03l-.01.008-.011.007-.004.002-.003.001a.092.092 0 0 1-.034.007l-3.259-.006a.082.082 0 0 1-.034-.007.076.076 0 0 1-.014-.007l-.005-.003a.06.06 0 0 1-.01-.009.06.06 0 0 1-.012-.015.07.07 0 0 1-.007-.014.08.08 0 0 1-.007-.034l.003-9.974a.09.09 0 0 0-.089-.089h-2.668a.087.087 0 0 1-.062-.026.087.087 0 0 1-.026-.062V2.379c0-.023.009-.046.026-.062a.087.087 0 0 1 .062-.026h8.911a.09.09 0 0 1 .089.088l-.003 2.704a.09.09 0 0 1-.089.089h-2.629a.09.09 0 0 0-.063.025Zm14.385 3.417c.095 2.018-1.492 3.732-3.546 3.83-2.054.096-3.796-1.461-3.891-3.479-.095-2.018 1.493-3.732 3.546-3.829 2.054-.097 3.796 1.46 3.891 3.478Zm-38.815 3.833c2.054.022 3.737-1.597 3.758-3.615.02-2.019-1.627-3.672-3.682-3.694-2.054-.022-3.736 1.597-3.758 3.616-.02 2.018 1.627 3.672 3.682 3.693Zm42.134 8.175v4.953h-1.507v-4.953h-1.763v-1.287h5.033v1.287h-1.763Zm-17.93-.04c.212.093.382.222.511.387l.96-1.013a2.772 2.772 0 0 0-.969-.572 3.2 3.2 0 0 0-1.945-.08c-.288.071-.546.186-.775.344a1.839 1.839 0 0 0-.555.608c-.141.246-.211.543-.211.889 0 .282.044.522.132.722.094.193.214.36.361.502.153.135.323.246.511.334.193.088.39.164.589.229.206.065.388.126.546.185.165.053.3.114.405.185a.798.798 0 0 1 .256.22.506.506 0 0 1 .088.3.664.664 0 0 1-.071.316.554.554 0 0 1-.194.211.765.765 0 0 1-.272.115 1.51 1.51 0 0 1-.326.035c-.247 0-.496-.062-.748-.185a1.873 1.873 0 0 1-.599-.475l-.986 1.003c.276.288.622.511 1.039.67.416.152.848.228 1.294.228.305 0 .601-.04.889-.123a2.28 2.28 0 0 0 .766-.378c.223-.17.399-.385.528-.643.135-.264.203-.575.203-.933 0-.311-.062-.57-.185-.775a1.755 1.755 0 0 0-.467-.528 2.37 2.37 0 0 0-.625-.335 15.675 15.675 0 0 0-.66-.238 14.889 14.889 0 0 1-.396-.131 2.13 2.13 0 0 1-.308-.15.643.643 0 0 1-.194-.185.518.518 0 0 1-.062-.264c0-.123.027-.223.079-.3a.669.669 0 0 1 .212-.193.735.735 0 0 1 .273-.106c.105-.017.208-.026.308-.026.193 0 .393.05.598.15Zm-18.275 4.993L94.5 24.35h-2.415l-.458 1.225h-1.64l2.618-6.24h1.463l2.591 6.24h-1.674Zm-1.675-4.574-.793 2.141h1.569l-.776-2.141Zm-19.6.908v-1.287h2.618v-1.287H72.22v6.24h1.49v-2.424h2.415V21.91H73.71Z" clip-rule="evenodd"/></g><defs><clipPath id="a"><path fill="#fff" d="M.67.001h132.66v26H.67z"/></clipPath></defs></svg>