<svg xmlns="http://www.w3.org/2000/svg" width="70" height="28" fill="none"><g clip-path="url(#a)"><path fill="#fff" fill-rule="evenodd" d="M11.229.232h10.64l5.32 9.215-2.597 4.502-.003-.004h-4.81v-.002l-3.167-4.605 2.659 4.607h-.002l-.001.001 2.66 4.607h.005l-.063.108.001.002-5.32 9.215H5.911L.588 18.663l2.725-4.718h4.749v.001l.275.402 2.484 3.61.408.595v-.002l-2.658-4.606H8.57v-.002L5.975 9.447l-.034-.056L11.229.232Zm22.777 11.955c0 .803.813 1.053 1.699 1.317l.045.013c1.187.345 2.54.738 2.54 2.39 0 1.687-1.388 2.608-2.932 2.608-1.077 0-2.238-.442-3.04-1.423l1.03-1.077c.54.695 1.376 1.065 2.118 1.065.778 0 1.317-.407 1.317-1.006 0-.709-.762-.941-1.63-1.205l-.165-.05c-1.16-.348-2.477-.826-2.477-2.466 0-1.675 1.388-2.596 2.884-2.596.98 0 1.975.407 2.644 1.22l-.957 1.03c-.419-.538-1.125-.826-1.76-.826-.694 0-1.316.323-1.316 1.006Zm11.345 4.178-1.353-4.117H42.55l-1.365 4.117-1.352-4.117h-1.555l2.238 6.08h1.34l1.412-4.046 1.412 4.045h1.352l2.238-6.079h-1.628l-1.291 4.117Zm3.74-4.117h1.46v6.08h-1.46v-6.08Zm.73-2.788c-.55 0-.98.408-.98.945 0 .526.43.934.98.934.552 0 .982-.408.982-.934 0-.539-.432-.945-.981-.945Zm3.276 3.662c.372-.636 1.1-1.018 1.94-1.018 1.22 0 2.19.79 2.19 2.321v3.902H55.78v-3.662c0-.837-.528-1.268-1.185-1.268-.719 0-1.46.54-1.46 1.664v3.266h-1.45v-6.08h1.412v.875Zm8.212 3.973c-.55 0-.98-.323-.98-.994v-2.56h2.085l-.748-1.292h-1.338V9.76h-1.46v2.49h-1.69l.748 1.292h.942v2.776c0 1.364.969 2.083 2.094 2.083.551 0 1.15-.18 1.676-.551l-.384-1.065c-.3.203-.646.31-.945.31Zm4.261-.994c0 .67.43.994.981.994.3 0 .646-.108.945-.311l.384 1.065a2.934 2.934 0 0 1-1.676.55c-1.125 0-2.094-.718-2.094-2.082v-2.776h-.943l-.747-1.292h1.69V9.76h1.46v2.49h1.338l.748 1.292H65.57v2.56Zm3.207-3.854c-.369 0-.639.274-.639.647s.27.646.64.646c.369 0 .639-.274.639-.646a.623.623 0 0 0-.64-.647Zm0 1.198c-.305 0-.536-.227-.536-.551 0-.326.232-.551.536-.551.306 0 .535.226.535.55a.523.523 0 0 1-.535.552Zm.053-.919c.15 0 .253.094.253.227a.23.23 0 0 1-.132.204l.155.25h-.182l-.13-.214h-.12v.215h-.151v-.682h.307Zm-.155.34h.148c.062 0 .105-.044.103-.096 0-.053-.042-.095-.105-.095h-.146v.191Z" clip-rule="evenodd"/></g><defs><clipPath id="a"><path fill="#fff" d="M.583.001h68.833v28H.583z"/></clipPath></defs></svg>