<svg width="102" height="32" viewBox="0 0 102 32" fill="none" xmlns="http://www.w3.org/2000/svg">
<path fill-rule="evenodd" clip-rule="evenodd" d="M12.8277 31.6859L14.8544 31.7966C14.8544 31.7987 14.8544 31.8007 14.8605 31.8007C14.8754 31.8007 14.8902 31.8009 14.905 31.8011L14.932 31.8016H14.9321C14.9792 31.8026 15.0261 31.8035 15.0739 31.8007C15.405 31.7817 15.7356 31.7622 16.0659 31.7427L16.0669 31.7427L16.0679 31.7426L16.0688 31.7425L16.0694 31.7425C16.3804 31.7241 16.6912 31.7058 17.0021 31.6879C17.1373 31.6804 17.2724 31.6727 17.4074 31.665C17.9363 31.635 18.4644 31.6049 18.9939 31.5853C19.2195 31.5771 19.4103 31.4951 19.6051 31.331C21.4361 29.798 23.2698 28.273 25.1028 26.7485L25.103 26.7484L26.4174 25.6551C26.4831 25.5997 26.5262 25.5341 26.559 25.4356C26.7521 24.8454 26.9473 24.2559 27.1426 23.6664L27.143 23.6652C27.2795 23.2531 27.416 22.8409 27.5518 22.4284C27.602 22.2749 27.6542 22.1219 27.7064 21.9688C27.8378 21.5836 27.9695 21.1974 28.0708 20.7997C28.3057 19.8798 28.5296 18.9562 28.7535 18.0328L28.7535 18.0326L28.7536 18.0322L28.7537 18.0317L28.7539 18.0312L28.754 18.0308L28.7541 18.0303L28.7542 18.0298L28.7543 18.0294L28.7544 18.0289L28.7545 18.0284L28.7547 18.0279L28.7548 18.0275L28.7549 18.027C28.9059 17.404 29.0569 16.7812 29.2113 16.1597L29.2171 16.1362C29.2766 15.8949 29.332 15.6703 29.1969 15.4438C29.1956 15.4406 29.1947 15.4371 29.194 15.4335L29.1927 15.4264C29.1917 15.4207 29.1907 15.4148 29.1887 15.4089L28.7828 13.9915C28.0422 11.405 27.3013 8.81783 26.559 6.23355C26.5364 6.1597 26.4933 6.08585 26.4462 6.04278C25.6728 5.32072 24.8954 4.60073 24.12 3.88278C24.0139 3.78409 23.9086 3.68302 23.8032 3.58187C23.5296 3.31929 23.2554 3.05613 22.9651 2.83252C22.0355 2.11631 21.0985 1.41717 20.1618 0.718177L20.1618 0.718166L20.1617 0.718134L20.1617 0.718119L20.1616 0.718059L20.1614 0.717921C19.8829 0.510101 19.6044 0.302294 19.3262 0.0940567C19.2892 0.0632875 19.2441 0.046875 19.201 0.046875C16.2862 0.0489263 13.3692 0.0550805 10.4544 0.0632857C10.4031 0.0632857 10.3477 0.0817493 10.3026 0.116621C9.66052 0.594569 9.01847 1.07457 8.37847 1.55867C8.22407 1.67655 8.06827 1.79103 7.91251 1.90548C7.56955 2.15749 7.22676 2.40937 6.89949 2.69714C6.12062 3.37917 5.35014 4.078 4.57988 4.77664L4.57987 4.77665L4.57986 4.77666L4.57985 4.77666L4.57984 4.77667L4.57983 4.77668L4.57982 4.77669L4.57981 4.7767L4.5798 4.77671L4.57979 4.77672L4.57978 4.77672L4.57977 4.77673L4.57976 4.77674L4.57973 4.77677L4.57963 4.77686C4.20788 5.11404 3.83617 5.45118 3.4636 5.78637L3.44481 5.80318L3.4448 5.80319C3.41409 5.83078 3.38314 5.85858 3.35078 5.88073C3.24001 5.95867 3.1436 6.04688 3.11283 6.22944C3.10462 6.28141 3.08912 6.33155 3.07362 6.38169C3.06587 6.40676 3.05813 6.43184 3.05129 6.45714C2.70281 7.68193 2.35485 8.90621 2.00688 10.1305L2.00671 10.1311L2.00611 10.1332C1.65792 11.3583 1.30974 12.5833 0.961034 13.8089C0.788726 14.4182 0.610264 15.0233 0.431802 15.6284C0.405136 15.7248 0.398983 15.8048 0.423598 15.9074C0.558972 16.4674 0.692295 17.0278 0.825618 17.5883C0.958962 18.1488 1.09231 18.7094 1.2277 19.2694C1.26401 19.4195 1.29893 19.5702 1.33384 19.7209C1.43302 20.1491 1.53208 20.5767 1.66257 20.9864C2.04167 22.1762 2.43521 23.3568 2.82849 24.5366L2.82858 24.5369L2.82866 24.5372C2.9269 24.8319 3.02511 25.1265 3.12308 25.4212C3.1477 25.4971 3.19693 25.571 3.24821 25.6141C3.73331 26.0202 4.21937 26.4253 4.70507 26.8302L5.36719 27.3823C5.94628 27.8636 6.52537 28.3453 7.10456 28.827C8.16665 29.7103 9.22905 30.5939 10.2923 31.4766C10.3395 31.5135 10.3949 31.5546 10.4462 31.5566C11.24 31.6038 12.0339 31.6448 12.8277 31.6859ZM21.1771 25.5209L21.1692 25.5083L21.1687 25.5076L21.1643 25.5007L21.1642 25.5005L21.1641 25.5003L21.164 25.5001L21.1638 25.4999L21.1561 25.4878L21.156 25.4875L21.1558 25.4872C20.5081 24.4672 19.8604 23.4471 19.2092 22.4202C19.345 22.3083 19.4778 22.1977 19.6097 22.0879C19.7727 21.9521 19.9341 21.8176 20.0974 21.6838C20.1146 21.6667 20.1375 21.6595 20.1589 21.6529L20.1713 21.6489C20.6088 21.5102 21.0458 21.3714 21.4828 21.2327L21.4836 21.2325L21.4843 21.2322L21.4995 21.2274L21.5194 21.2211L21.5202 21.2208C21.9558 21.0825 22.3915 20.9442 22.8277 20.8059C22.8414 20.8019 22.855 20.799 22.8696 20.7958L22.8697 20.7958L22.8698 20.7958L22.8699 20.7958L22.87 20.7957L22.87 20.7957L22.8701 20.7957L22.8701 20.7957L22.8702 20.7957L22.8702 20.7957L22.8702 20.7957L22.8703 20.7957C22.8861 20.7922 22.903 20.7886 22.9221 20.7833L22.9074 21.0816C22.8944 21.3492 22.8817 21.6124 22.8667 21.8746L22.8275 22.6176L22.7498 24.09C22.7458 24.1679 22.742 24.2457 22.7382 24.3234L22.7381 24.3254C22.7303 24.4862 22.7225 24.6466 22.7128 24.8079C22.7108 24.8448 22.6985 24.8879 22.6821 24.9187C22.4092 25.45 22.1364 25.9812 21.8615 26.5125C21.8546 26.5247 21.8476 26.534 21.8381 26.5466L21.8328 26.5535L21.1771 25.5209ZM6.79724 21.271C6.78942 21.1103 6.78148 20.947 6.77231 20.7792C6.87191 20.8108 6.97005 20.8416 7.0675 20.8722L7.06781 20.8723L7.06794 20.8723L7.06822 20.8724L7.06843 20.8725L7.06845 20.8725L7.06862 20.8725C7.22971 20.9231 7.38894 20.973 7.54975 21.0253C8.01696 21.1728 8.48522 21.3223 8.95303 21.4718L9.52103 21.653L9.53501 21.6572C9.5574 21.6637 9.57997 21.6702 9.59693 21.6838L9.59904 21.6856C9.89167 21.9291 10.1843 22.1726 10.4872 22.4243C9.95044 23.269 9.41524 24.1122 8.87922 24.9566L7.86154 26.5597C7.83898 26.5207 7.82052 26.4879 7.80206 26.453C7.5436 25.9546 7.28719 25.4561 7.03283 24.9556C7.00411 24.8982 6.98565 24.8223 6.98154 24.7546C6.94659 24.1227 6.9134 23.489 6.88023 22.8559L6.88022 22.8558L6.88022 22.8556L6.88021 22.8554L6.8802 22.8553L6.88019 22.8551L6.88018 22.8549L6.88017 22.8548C6.86276 22.5223 6.84535 22.19 6.8277 21.8582C6.81636 21.6642 6.8069 21.4696 6.79724 21.271ZM5.82401 17.1682C5.80827 17.1901 5.79101 17.2142 5.76924 17.2428C5.57847 16.8982 5.38975 16.5638 5.20103 16.2315C5.04329 15.9474 4.88528 15.6639 4.7273 15.3804L4.72719 15.3802L4.72709 15.38L4.72698 15.3798L4.72687 15.3796L4.72677 15.3794L4.72666 15.3793L4.72656 15.3791L4.72645 15.3789L4.72635 15.3787L4.72624 15.3785L4.72613 15.3783L4.72603 15.3781L4.726 15.3781L4.72598 15.378L4.72596 15.378L4.72593 15.3779L4.72591 15.3779L4.72588 15.3779L4.72586 15.3778L4.72583 15.3778L4.72581 15.3777L4.72578 15.3777L4.72576 15.3776L4.72574 15.3776C4.45074 14.8842 4.17583 14.3909 3.90257 13.8951C3.86154 13.8192 3.82872 13.7187 3.82052 13.6243C3.77028 13.0736 3.7255 12.5211 3.67933 11.9514L3.67932 11.9513L3.67932 11.9512L3.67078 11.8459L4.58862 12.187C5.70305 12.6013 6.81362 13.0141 7.92924 13.4294C7.90268 13.524 7.87592 13.6169 7.84941 13.709L7.84936 13.7092L7.84934 13.7093C7.79191 13.9087 7.73564 14.1041 7.68513 14.3033C7.6277 14.5351 7.53334 14.7218 7.40821 14.8982C6.99104 15.4887 6.57648 16.0858 6.16245 16.6822L6.16241 16.6822L5.84719 17.1361L5.82401 17.1682ZM23.9133 17.2476L23.9108 17.251C23.8903 17.212 23.8718 17.1792 23.8533 17.1484C23.5703 16.7402 23.2867 16.3325 23.0031 15.9248L23.0019 15.9231L23.0013 15.9223C22.7183 15.5154 22.4353 15.1086 22.1528 14.7012L22.1492 14.6963C22.1275 14.6668 22.1031 14.6335 22.0933 14.5966C22.0351 14.3949 21.978 14.192 21.9202 13.9868L21.9201 13.9864C21.868 13.8015 21.8154 13.6148 21.761 13.4253C23.1805 12.8961 24.5939 12.371 26.0195 11.8418C26.0075 11.986 25.9961 12.1276 25.9848 12.2673L25.9848 12.2678L25.9848 12.2679L25.9848 12.2681C25.9652 12.5115 25.946 12.7493 25.9251 12.9864C25.9067 13.2243 25.8862 13.4643 25.8636 13.7002C25.8595 13.7412 25.8472 13.7843 25.8287 13.8192C25.5151 14.3829 25.201 14.946 24.8869 15.5092L24.8862 15.5103L24.884 15.5143L24.8818 15.5184C24.5689 16.0793 24.256 16.6403 23.9436 17.2018C23.9397 17.2116 23.9338 17.2196 23.9134 17.2475L23.9133 17.2476L23.9133 17.2476ZM21.0456 25.8539L21.601 26.73C21.4914 26.7581 21.3876 26.7852 21.2849 26.8121L21.1436 26.8489C20.9934 26.8867 20.8433 26.9251 20.6931 26.9635L20.6927 26.9636L20.6922 26.9637L20.6918 26.9638L20.6914 26.9639L20.6909 26.964L20.6905 26.9641L20.6901 26.9642L20.6897 26.9644L20.6892 26.9645C20.4653 27.0217 20.2414 27.079 20.0174 27.1341C19.9744 27.1443 19.9292 27.1443 19.8862 27.132C18.7703 26.8059 17.6564 26.4735 16.5426 26.1412C16.528 26.1383 16.5135 26.1323 16.4968 26.1255L16.4967 26.1254L16.4965 26.1253C16.4897 26.1225 16.4826 26.1196 16.4749 26.1166L16.4831 26.0971C16.4913 26.0773 16.4983 26.0605 16.5077 26.0448C16.8567 25.4391 17.2067 24.8334 17.5563 24.2284L17.999 23.4623C18.0154 23.4335 18.0339 23.4048 18.0544 23.3843C18.3288 23.1519 18.6049 22.9228 18.8841 22.6912L18.8847 22.6906L18.9856 22.6069C19.6731 23.689 20.3568 24.7674 21.0456 25.8539ZM13.1969 26.0653C13.2031 26.0776 13.2092 26.09 13.2215 26.1166L13.1246 26.1461L13.1244 26.1462C12.9644 26.1948 12.8098 26.2418 12.6595 26.293L12.2712 26.4088L12.2705 26.409L12.2704 26.409L12.2703 26.409L12.2702 26.409L12.2701 26.4091L12.27 26.4091L12.2699 26.4091L12.2698 26.4092L12.2697 26.4092L12.2696 26.4092L12.2695 26.4092L12.2694 26.4093C11.4558 26.6518 10.642 26.8944 9.82667 27.1279C9.74156 27.1525 9.64599 27.1283 9.55443 27.105L9.53129 27.0992C9.07385 26.9864 8.61642 26.8694 8.15898 26.7525C8.15095 26.7502 8.14293 26.7467 8.13204 26.7418L8.13195 26.7418L8.13193 26.7417C8.12336 26.7379 8.11301 26.7333 8.09949 26.7279L9.11622 25.1242L9.12934 25.1035C9.65695 24.2714 10.1835 23.4409 10.7108 22.6089L11.0194 22.8666C11.2254 23.0385 11.4296 23.2089 11.6339 23.3802C11.6523 23.3946 11.6687 23.4212 11.6831 23.4459C12.1877 24.3176 12.6923 25.1915 13.1969 26.0653ZM18.7781 6.2947C18.7907 6.31386 18.8052 6.33587 18.8236 6.36278L18.812 6.36774L18.8114 6.36797C18.3501 6.56511 17.9027 6.75627 17.4554 6.94944C17.2857 7.0217 17.1159 7.09431 16.9461 7.16697L16.9458 7.16707L16.9456 7.16717L16.9454 7.16727L16.9451 7.16737L16.9449 7.16747L16.9447 7.16757L16.9444 7.16767L16.9442 7.16777L16.944 7.16787L16.9437 7.16797L16.9435 7.16807L16.9433 7.16817L16.9432 7.1682L16.9431 7.16823L16.9431 7.16826L16.943 7.16829L16.9429 7.16832L16.9429 7.16835L16.9428 7.16838L16.9427 7.1684L16.9426 7.16843L16.9426 7.16846L16.9425 7.16849L16.9424 7.16852C16.6988 7.27274 16.4549 7.37709 16.2103 7.48073C16.1569 7.50329 16.0995 7.5156 16.0441 7.5156C15.8071 7.51868 15.5677 7.51829 15.3296 7.5179H15.3296H15.3295H15.3295H15.3295H15.3295H15.3295H15.3295H15.3295H15.3295H15.3295H15.3295H15.3295L15.0923 7.51765H14.9918V2.43662C15.0205 2.44483 15.0451 2.45303 15.0677 2.46534C15.3067 2.58534 15.5461 2.7043 15.7856 2.82327C16.0251 2.94225 16.2646 3.06123 16.5036 3.18124C16.5405 3.1997 16.5774 3.23252 16.6062 3.27149C17.1138 3.97577 17.6203 4.68107 18.1266 5.38594L18.7621 6.27047L18.7781 6.2947ZM14.7026 2.43457V7.51765C14.6181 7.51765 14.5338 7.51785 14.4497 7.51805H14.4496C14.156 7.51876 13.8645 7.51947 13.5744 7.51149C13.5158 7.50999 13.4571 7.47986 13.3993 7.45014C13.3782 7.4393 13.3573 7.42851 13.3364 7.41919C12.9395 7.2479 12.5426 7.07765 12.1456 6.90739C11.7487 6.73714 11.3518 6.56688 10.9549 6.3956C10.9303 6.38534 10.9036 6.37303 10.8523 6.3197C10.8656 6.30769 10.8793 6.29665 10.8928 6.28568C10.9233 6.26107 10.9533 6.23683 10.9774 6.20278C11.2342 5.84651 11.4909 5.48969 11.7478 5.13271L11.7494 5.13043L11.7498 5.12997L11.7499 5.12983L11.75 5.12969L11.7501 5.12955C12.1861 4.52361 12.6224 3.91726 13.0595 3.31252C13.1046 3.24893 13.1682 3.19765 13.2277 3.16688C13.6892 2.93303 14.1487 2.70329 14.6123 2.47355C14.639 2.46124 14.6677 2.44893 14.7026 2.43457ZM25.8834 11.4526L25.8835 11.4526C25.896 11.4658 25.9104 11.4808 25.9272 11.4992C25.494 11.6605 25.0639 11.8208 24.6354 11.9805L24.6339 11.9811C23.6405 12.3513 22.6566 12.7181 21.6667 13.0848L21.6174 12.9187C21.5896 12.8217 21.5623 12.7245 21.535 12.6272L21.535 12.6272L21.535 12.6271L21.5349 12.627L21.5349 12.627L21.5349 12.627L21.5349 12.627L21.5349 12.627L21.5349 12.627L21.5349 12.627L21.5349 12.6269C21.4836 12.4444 21.4323 12.2616 21.3774 12.0797C21.3344 11.9382 21.318 11.7966 21.3241 11.6428C21.3651 10.6684 21.4021 9.69406 21.439 8.7197C21.4404 8.68479 21.4429 8.65092 21.4457 8.61296L21.4492 8.5638C21.6001 8.63046 21.749 8.69712 21.897 8.7634L21.8984 8.76402L21.8993 8.76446C22.0101 8.81408 22.1205 8.86349 22.2308 8.91252C22.6451 9.10018 23.0599 9.28733 23.4747 9.47448C23.8896 9.66169 24.3046 9.8489 24.719 10.0366C24.7805 10.0653 24.8421 10.1166 24.8892 10.1782C25.1076 10.4543 25.323 10.7343 25.5389 11.0148L25.5389 11.0148L25.539 11.0149L25.539 11.0149L25.5391 11.0151C25.6375 11.1429 25.736 11.2709 25.8349 11.3987C25.8486 11.4162 25.8639 11.4321 25.8834 11.4526ZM8.36206 11.9053C8.25334 12.2951 8.14257 12.6848 8.0277 13.0869C6.61231 12.5597 5.20513 12.0366 3.7836 11.5115L3.80368 11.4819C3.82043 11.4571 3.83429 11.4366 3.84924 11.4171C4.17334 10.9946 4.49949 10.572 4.82565 10.1515C4.85436 10.1125 4.89129 10.0776 4.92821 10.0612C5.80377 9.66492 6.68201 9.26993 7.55969 8.8752L7.56008 8.87503L8.1836 8.59457C8.20001 8.58637 8.21642 8.58021 8.24513 8.56996C8.24849 8.65727 8.25254 8.74424 8.25657 8.83087L8.25657 8.83094C8.26238 8.95594 8.26817 9.08023 8.2718 9.2038C8.2879 9.62229 8.3035 10.0408 8.31909 10.459L8.31913 10.4601C8.33532 10.8944 8.3515 11.3283 8.36821 11.7618L8.36893 11.7779C8.37096 11.822 8.37303 11.867 8.36206 11.9053ZM14.9939 21.7351V16.3218C15.4476 17.0372 15.8998 17.7498 16.3514 18.4617L16.3613 18.4772L16.3628 18.4796C17.0508 19.5639 17.7378 20.6465 18.4277 21.7351H14.9939ZM14.6964 21.7371H11.2646C12.4113 19.9279 13.5477 18.1351 14.6964 16.3259V21.7371ZM14.9897 15.2941V8.58842C15.315 8.85919 15.6389 9.1292 15.9625 9.39891L15.9649 9.40092L15.965 9.40097C16.5672 9.90291 17.1681 10.4038 17.7733 10.9064C16.8462 12.3689 15.9251 13.8212 14.9897 15.2941ZM14.7067 8.58637V15.2982L13.7398 13.7753C13.1311 12.8168 12.5259 11.8638 11.919 10.9064C12.4704 10.4461 13.0188 9.99011 13.5683 9.53334L13.5695 9.53233L13.5753 9.52754C13.9515 9.21474 14.3283 8.90157 14.7067 8.58637ZM18.9332 20.6741L18.678 21.5751C18.3184 21.0081 17.9601 20.4434 17.602 19.8792L17.6007 19.8771L17.6006 19.8769L17.5994 19.875L17.5959 19.8695C16.8121 18.6344 16.0299 17.4017 15.24 16.1535L16.4834 16.6171L16.4881 16.6189C17.5756 17.0245 18.6549 17.427 19.7405 17.8294C19.4715 18.7735 19.2048 19.7151 18.936 20.6642L18.9338 20.672L18.9332 20.6741ZM14.4339 16.1843C13.2974 17.9771 12.1631 19.7659 11.0144 21.5751C10.6574 20.3156 10.3067 19.0787 9.9518 17.8294C10.8907 17.4791 11.828 17.1304 12.7637 16.7823L12.7657 16.7816C13.3196 16.5755 13.8729 16.3697 14.4256 16.1638C14.4277 16.172 14.4297 16.1761 14.4339 16.1843ZM11.5341 14.3913L11.5303 14.3899L11.5175 14.3851C10.6504 14.0625 9.78053 13.7389 8.90565 13.413C9.83898 12.6376 10.7559 11.8746 11.6769 11.1074C12.3376 12.1464 12.9972 13.1865 13.6565 14.2261L13.6565 14.2261L14.4236 15.4356C14.4215 15.4407 14.4195 15.4448 14.4174 15.4489C14.4154 15.453 14.4133 15.4571 14.4113 15.4623C13.4555 15.1061 12.4997 14.7506 11.5407 14.3938L11.5366 14.3922L11.5341 14.3913ZM17.0371 12.6476C17.3629 12.134 17.689 11.6201 18.0154 11.1053L18.3402 11.376C19.1535 12.0539 19.9629 12.7284 20.7867 13.411C19.7511 13.7972 18.7219 14.1802 17.6955 14.5621L17.6931 14.563L17.6906 14.5639L17.6814 14.5674C16.8808 14.8653 16.0819 15.1625 15.2831 15.4602C15.281 15.4551 15.279 15.451 15.2769 15.4469C15.2749 15.4428 15.2728 15.4387 15.2708 15.4335C15.8582 14.5056 16.4464 13.5785 17.0355 12.6501L17.0368 12.648L17.0369 12.6478L17.0371 12.6476ZM14.2974 15.8083C14.2969 15.8119 14.2964 15.8153 14.2964 15.8192C12.8195 16.371 11.3405 16.9207 9.84924 17.4705C9.52474 16.3281 9.20201 15.1893 8.87291 14.0279L8.87288 14.0278L8.86995 14.0175L8.86796 14.0105L8.79283 13.7453C10.0304 14.2068 11.2587 14.6637 12.4846 15.1197L12.4885 15.1212L12.4905 15.1219L14.2985 15.7946C14.2985 15.8 14.2979 15.8043 14.2974 15.8083L14.2974 15.8083ZM15.3918 15.8192C15.3939 15.8089 15.3939 15.8028 15.3939 15.7946V15.7946C16.1141 15.527 16.8339 15.2592 17.555 14.9908L17.5619 14.9883L17.5652 14.987L17.5658 14.9868L17.5668 14.9864L17.5669 14.9864L17.567 14.9864L17.5686 14.9858L17.5737 14.9839C18.6763 14.5736 19.7818 14.1623 20.8954 13.7494C20.5405 15.0028 20.1918 16.2335 19.839 17.4746C18.3539 16.9228 16.8728 16.371 15.3918 15.8192ZM26.5913 13.0512L26.7826 12.7074C26.8794 12.8451 26.9748 12.9801 27.0693 13.1137L27.0693 13.1137L27.0693 13.1137L27.0694 13.1138L27.0694 13.1138L27.0694 13.1138L27.0695 13.1139L27.0704 13.1152C27.2078 13.3096 27.3432 13.5011 27.478 13.6941C27.4985 13.7248 27.5046 13.7761 27.5067 13.8171C27.5497 14.6253 27.5887 15.4315 27.6277 16.2397C27.6318 16.3347 27.6363 16.4299 27.6408 16.5252C27.65 16.718 27.6591 16.9111 27.6646 17.1033C27.6667 17.1464 27.6482 17.2079 27.6256 17.2346C27.0132 17.9049 26.3968 18.5733 25.7823 19.2397L25.7822 19.2398L25.7821 19.2399L25.7808 19.2414L25.7806 19.2416L25.7303 19.2961C25.7217 19.3047 25.7125 19.3122 25.7022 19.3206L25.7022 19.3206C25.6928 19.3282 25.6825 19.3367 25.6708 19.3474C25.7139 18.8161 25.7569 18.2992 25.8 17.7843C25.832 17.3951 25.8645 17.0064 25.8971 16.618V16.6179L25.8971 16.6177L25.8971 16.6173L25.8971 16.6171L25.8972 16.6167L25.8972 16.6163L25.8972 16.6159L25.8973 16.6156L25.8973 16.615L25.8974 16.6144L25.8974 16.6139L25.8974 16.6135C25.9274 16.2563 25.9573 15.8993 25.9867 15.5423C26.0277 15.0212 26.0708 14.5002 26.1159 13.9792C26.12 13.9341 26.1303 13.8828 26.1508 13.8459C26.2961 13.5811 26.4425 13.3183 26.5913 13.0512ZM3.99683 19.0297C4.00528 19.1354 4.01399 19.2444 4.0236 19.3597C3.91464 19.2423 3.80955 19.1283 3.70637 19.0164C3.58421 18.8839 3.46472 18.7543 3.34462 18.6253C3.16389 18.4278 2.98239 18.2306 2.80079 18.0333C2.56192 17.7738 2.32286 17.5141 2.08513 17.253C2.05642 17.2223 2.02975 17.1566 2.0318 17.1074C2.08103 16.0059 2.13437 14.9084 2.18975 13.8089C2.1918 13.772 2.19795 13.7228 2.21642 13.6982C2.39835 13.4335 2.58296 13.1716 2.77023 12.9058L2.90565 12.7135C2.92411 12.7402 2.93847 12.7628 2.95283 12.7874C3.00856 12.886 3.06305 12.9858 3.1175 13.0856L3.11752 13.0857C3.2194 13.2724 3.32117 13.4588 3.43078 13.6366C3.53334 13.8089 3.58052 13.9915 3.59898 14.2089C3.71795 15.7002 3.84308 17.1894 3.96821 18.6787C3.97802 18.7942 3.98726 18.9098 3.99683 19.0297ZM23.2752 26.2239L23.2751 26.2239C23.1559 26.2608 23.0357 26.298 22.9139 26.3361C22.9364 25.8828 22.959 25.4479 22.9836 25.0171C22.9856 24.9823 23.0021 24.9474 23.0164 24.9187L25.398 20.2971C25.4062 20.2787 25.4144 20.2643 25.4328 20.2356C25.4793 20.5143 25.523 20.7823 25.5663 21.0471L25.5664 21.0479L25.5969 21.2346C25.624 21.402 25.651 21.5696 25.678 21.7372C25.7551 22.2164 25.8323 22.6959 25.9128 23.173C25.9272 23.2674 25.919 23.333 25.8656 23.4069C25.5174 23.8906 25.1719 24.3764 24.8264 24.8623L24.8263 24.8624L24.8263 24.8625L24.8262 24.8626L24.8261 24.8626L24.8261 24.8627L24.8257 24.8632L24.8253 24.8638L24.8249 24.8643L24.8246 24.8649L24.8242 24.8654L24.8238 24.8659L24.8234 24.8665C24.5736 25.2178 24.3238 25.5691 24.0728 25.9197C24.0503 25.9505 24.0215 25.9894 23.9887 25.9997C23.7533 26.0759 23.5187 26.1485 23.2803 26.2223L23.2799 26.2224L23.2794 26.2226L23.2791 26.2227L23.2787 26.2228L23.2783 26.2229L23.2783 26.2229L23.2782 26.2229L23.2774 26.2232L23.2766 26.2235L23.276 26.2236L23.2754 26.2238L23.2752 26.2239ZM4.25718 20.2721L4.26007 20.2606L4.26565 20.2376C4.27613 20.2577 4.28588 20.2752 4.29487 20.2914L4.29489 20.2914C4.307 20.3132 4.31777 20.3325 4.32719 20.3525C4.60761 20.8978 4.88856 21.443 5.16957 21.9884L5.16971 21.9887L5.16984 21.9889L5.16997 21.9892L5.1701 21.9894L5.17023 21.9897L5.17186 21.9928L5.17218 21.9935L5.17227 21.9936L5.17235 21.9938C5.66743 22.9546 6.16266 23.9157 6.65539 24.8776C6.68821 24.9392 6.70462 25.0233 6.71078 25.0992C6.73046 25.4207 6.74752 25.7448 6.7651 26.079L6.76511 26.0791L6.76512 26.0792L6.76512 26.0792L6.76512 26.0792L6.76512 26.0793L6.77847 26.332C6.61026 26.2848 6.45026 26.2356 6.29026 26.1864C6.24847 26.1737 6.20679 26.1612 6.16517 26.1488L6.16502 26.1487L6.16486 26.1487L6.16471 26.1486C6.02465 26.1068 5.88524 26.0651 5.74462 26.0161C5.69744 25.9997 5.65026 25.9648 5.61744 25.9176C5.01642 25.0766 4.41539 24.2315 3.81642 23.3843C3.7918 23.3474 3.77129 23.2776 3.77744 23.2305C3.86877 22.6533 3.96226 22.0768 4.05578 21.5002L4.05579 21.5002L4.0558 21.5001L4.05581 21.5L4.05583 21.4999L4.05584 21.4999L4.05585 21.4998L4.05586 21.4997L4.05587 21.4997L4.05589 21.4996L4.0559 21.4995L4.05591 21.4994L4.05592 21.4994L4.056 21.4989L4.05601 21.4988L4.05602 21.4988L4.05603 21.4987L4.05604 21.4986L4.05605 21.4986L4.05607 21.4985L4.05608 21.4984L4.05609 21.4983L4.0561 21.4983L4.05611 21.4982L4.05612 21.4981C4.12003 21.1041 4.18395 20.71 4.24719 20.3156C4.24973 20.3016 4.25306 20.2884 4.25718 20.2721ZM21.827 5.71034C21.8317 5.70124 21.8369 5.69149 21.841 5.68175C21.8787 5.68722 21.9166 5.69253 21.9545 5.69786C22.0589 5.71254 22.1639 5.72728 22.2677 5.74534C22.4975 5.77953 22.7272 5.81418 22.957 5.84882L22.9571 5.84884L22.9572 5.84885L22.9573 5.84887L22.9574 5.84889L22.9575 5.8489L22.9576 5.84892L22.9577 5.84893L22.9578 5.84895L22.9579 5.84896L22.9581 5.84898L22.9582 5.849L22.9583 5.84901C23.4173 5.91823 23.8764 5.98746 24.3354 6.05303C24.4564 6.06944 24.5426 6.12073 24.6205 6.26226C24.8859 6.74192 25.1537 7.21797 25.4212 7.69366C25.648 8.09681 25.8746 8.4997 26.0995 8.90431C26.1303 8.95765 26.1487 9.0438 26.1467 9.11149C26.1401 9.38241 26.1281 9.65466 26.1162 9.92609L26.1077 10.1228C26.1064 10.1492 26.1042 10.1748 26.1017 10.204V10.204L26.1017 10.2041L26.0974 10.2561L26.0945 10.2552L26.0944 10.2552C26.063 10.2453 26.0371 10.2373 26.0113 10.2253C25.8988 10.1743 25.7865 10.1238 25.6744 10.0733C25.4574 9.97566 25.241 9.87825 25.0246 9.77816C24.9795 9.7597 24.9364 9.72483 24.9036 9.6838C24.3992 9.03079 23.8949 8.37726 23.3905 7.72373C22.8856 7.06957 22.3808 6.4154 21.8759 5.76175C21.8649 5.74755 21.8502 5.73942 21.8347 5.73082L21.8346 5.73081C21.83 5.72823 21.8252 5.72561 21.8205 5.72278L21.827 5.71034ZM3.63016 10.2438C3.61853 10.2482 3.60611 10.2528 3.59283 10.2582C3.59042 10.2065 3.58785 10.1559 3.5853 10.1059L3.5853 10.1059C3.57914 9.9851 3.57316 9.86779 3.57026 9.74739C3.56749 9.67053 3.56449 9.59391 3.56149 9.51735C3.5556 9.36713 3.54972 9.2172 3.54565 9.06637C3.5436 9.01919 3.55795 8.96175 3.57847 8.92483C4.09539 7.9997 4.61642 7.07662 5.13744 6.15355C5.16001 6.11457 5.20308 6.0797 5.23795 6.0756C6.08308 5.94431 6.92821 5.81714 7.77334 5.68996C7.79049 5.68864 7.80764 5.68901 7.82751 5.68945H7.82753H7.82754C7.83856 5.68969 7.85043 5.68996 7.8636 5.68996C7.84931 5.70782 7.83847 5.72429 7.82829 5.73979L7.82828 5.7398L7.82826 5.73983L7.82826 5.73984C7.82091 5.75102 7.81389 5.76169 7.80616 5.77201C7.45953 6.22093 7.11338 6.66985 6.7673 7.11868L6.76651 7.11971L6.76606 7.1203L6.76588 7.12053C6.11302 7.96724 5.46039 8.81365 4.80513 9.65919C4.76411 9.71457 4.70872 9.75765 4.65539 9.78226C4.41391 9.89526 4.17126 10.0036 3.92921 10.1117C3.8505 10.1468 3.77186 10.1819 3.69334 10.2171C3.6753 10.2268 3.65445 10.2347 3.63016 10.2438ZM15.9785 1.88277C15.9826 1.87354 15.9867 1.86431 15.9908 1.85611C16.3231 1.70842 16.6533 1.56277 16.9877 1.42329C17.0185 1.40893 17.0595 1.42123 17.0923 1.43149C18.0236 1.71252 18.9528 1.99354 19.8841 2.27867C19.9272 2.29098 19.9805 2.33201 20.001 2.38124C20.3048 3.10589 20.6058 3.83055 20.9063 4.55404L20.9076 4.55725L21.0944 5.00688C21.099 5.01732 21.103 5.02908 21.1082 5.04439L21.1082 5.04449C21.1122 5.05621 21.1169 5.07001 21.1231 5.08688L21.0864 5.07166L21.0863 5.07164L21.0863 5.07163L21.0863 5.07161L21.0862 5.07157C21.0655 5.06305 21.0481 5.05591 21.0308 5.0479C20.4903 4.77843 19.9494 4.50957 19.4087 4.24073L19.4079 4.24036L19.4062 4.23949C18.5399 3.80885 17.6738 3.37826 16.8092 2.94534C16.7559 2.91867 16.7067 2.86944 16.6636 2.81611C16.4298 2.51457 16.198 2.21303 15.9662 1.90944C15.9703 1.90123 15.9744 1.892 15.9785 1.88277ZM8.61223 5.06488C8.6004 5.06986 8.5856 5.07611 8.56513 5.08688C8.58975 5.02739 8.60206 4.99252 8.61436 4.95765C8.97129 4.10226 9.32616 3.24893 9.67898 2.39355C9.7077 2.32175 9.74052 2.28483 9.79795 2.26842L11.1945 1.84608L11.1954 1.84581L11.1963 1.84554L11.1972 1.84527L11.1991 1.84469L11.2011 1.8441L11.203 1.84351L11.205 1.84292L11.2059 1.84265L11.2068 1.84238L12.6062 1.41918C12.6369 1.41098 12.6739 1.40277 12.7026 1.41508C12.9826 1.53609 13.2627 1.65856 13.5489 1.78371L13.5491 1.78381L13.7097 1.85405C13.7014 1.86694 13.6942 1.8787 13.6875 1.88965L13.6874 1.88986L13.6873 1.88988C13.6759 1.90848 13.666 1.92475 13.6544 1.94021L13.4668 2.20155L13.4667 2.20164C13.3146 2.4137 13.163 2.62517 13.0103 2.83457C12.9836 2.87355 12.9467 2.90431 12.9097 2.92483C11.6907 3.53523 10.4687 4.14261 9.24746 4.74956L8.63898 5.05201C8.63119 5.05688 8.62293 5.06036 8.61223 5.06488ZM15.3296 28.7387C15.3203 28.7318 15.3081 28.7227 15.2892 28.7094L15.387 28.6845L15.3871 28.6845L15.3874 28.6844C15.6563 28.6159 15.9101 28.5513 16.159 28.4818C16.4413 28.4102 16.7237 28.3388 17.006 28.2675L17.0067 28.2673L17.0068 28.2673L17.0069 28.2673L17.0069 28.2673L17.007 28.2672L17.0071 28.2672L17.0071 28.2672L17.0072 28.2672L17.0073 28.2672L17.0073 28.2672L17.0074 28.2671L17.0075 28.2671C17.8897 28.0442 18.7716 27.8214 19.6523 27.5915C19.8287 27.5443 19.9949 27.5341 20.1692 27.5956C20.378 27.6699 20.5907 27.7303 20.8081 27.792L20.8081 27.7921C20.9026 27.8189 20.998 27.846 21.0944 27.8746L21.0782 27.9058L21.0782 27.9058C21.0618 27.9379 21.0485 27.9638 21.0328 27.9874L20.9394 28.1529C20.811 28.3807 20.6829 28.6079 20.5508 28.8325C20.5221 28.8818 20.479 28.9269 20.4339 28.9474C19.5313 29.3535 18.6267 29.7535 17.7221 30.1515C17.681 30.1679 17.6256 30.1679 17.5887 30.1433C17.0912 29.8358 16.5937 29.5264 16.0962 29.2171L16.0952 29.2164C15.8463 29.0617 15.5975 28.907 15.3487 28.7525C15.3431 28.7488 15.3374 28.7446 15.3296 28.7387L15.3296 28.7387ZM14.3576 28.7001C14.3704 28.7045 14.3857 28.7097 14.4051 28.7156L14.1944 28.8468L14.1943 28.8469L14.1937 28.8473L14.1934 28.8475L14.1932 28.8476C13.9651 28.9895 13.7455 29.126 13.5272 29.2674C13.0595 29.5566 12.5898 29.8479 12.1221 30.1433C12.0646 30.1802 12.0154 30.1823 11.9539 30.1556C11.5722 29.9853 11.1898 29.8157 10.8072 29.6461L10.8062 29.6456L10.8061 29.6456L10.806 29.6455L10.8058 29.6455L10.8057 29.6454L10.8056 29.6454L10.8054 29.6453L10.8053 29.6452L10.8052 29.6452L10.8051 29.6451L10.8049 29.6451L10.8048 29.645L10.8047 29.645C10.2896 29.4166 9.7744 29.1881 9.26052 28.9576C9.21539 28.9371 9.17026 28.8941 9.14154 28.8448C8.96103 28.531 8.78257 28.2171 8.5959 27.8869C8.62933 27.8763 8.66147 27.8657 8.69282 27.8553L8.69289 27.8553C8.74039 27.8396 8.7861 27.8246 8.8318 27.811C8.90112 27.7906 8.97081 27.7709 9.04064 27.7512L9.04067 27.7512C9.2023 27.7055 9.36472 27.6597 9.52513 27.6038C9.69129 27.5443 9.84719 27.5484 10.0154 27.5915C11.4472 27.9587 12.879 28.3238 14.3128 28.6869C14.3261 28.6893 14.3393 28.6938 14.3576 28.7001ZM9.73893 8.13865L9.73898 8.13851L9.73908 8.1382L9.73916 8.13794L9.73917 8.13792L9.73921 8.13778C9.74455 8.12116 9.75042 8.10291 9.75693 8.08175C10.3415 9.00073 10.92 9.91149 11.4985 10.8264C11.084 11.1717 10.6712 11.5155 10.2583 11.8593L10.2547 11.8623C9.73703 12.2934 9.21933 12.7244 8.69847 13.1587C8.69712 13.1452 8.69578 13.1336 8.69458 13.1232L8.69458 13.1231L8.69457 13.1231L8.69457 13.1231L8.69456 13.123C8.69211 13.1017 8.69026 13.0856 8.69026 13.0705C8.68845 13.0124 8.68752 12.9538 8.6866 12.895C8.68439 12.7544 8.68216 12.613 8.6677 12.4756C8.62872 12.1125 8.69642 11.7843 8.79488 11.45C9.00411 10.732 9.20786 10.0104 9.41162 9.28885C9.5135 8.92804 9.61539 8.56723 9.71795 8.20688C9.72406 8.18488 9.7309 8.16362 9.7389 8.13874L9.73893 8.13865ZM21.0168 12.6539C21.0105 12.8202 21.004 12.9891 20.998 13.1628L20.4854 12.7358L20.4839 12.7345L20.481 12.7321L20.4809 12.7321L20.4809 12.732L20.4808 12.732L20.4808 12.7319C19.7136 12.0928 18.9568 11.4623 18.1959 10.8305L18.7755 9.91696L19.9374 8.08585C19.9539 8.12893 19.9662 8.16175 19.9744 8.19252C20.3231 9.41919 20.6718 10.6479 21.0205 11.8787C21.0225 11.8865 21.0248 11.8946 21.0272 11.9029C21.0347 11.9291 21.0426 11.9568 21.041 11.9833C21.0339 12.2053 21.0255 12.4267 21.0169 12.6528L21.0169 12.6531L21.0168 12.6534L21.0168 12.6539ZM21.0418 17.9209C20.7286 17.8044 20.4154 17.6879 20.1015 17.571L20.1308 17.4678C20.4778 16.2455 20.8211 15.0359 21.1703 13.8089C21.2013 13.8535 21.2308 13.898 21.2597 13.9417L21.2598 13.9418L21.2598 13.9418L21.2598 13.9419L21.2599 13.9419L21.2599 13.942L21.2599 13.942L21.2599 13.942C21.3189 14.0311 21.3757 14.1169 21.439 14.1925C21.7344 14.5494 21.9169 14.9946 22.0503 15.5033C22.2365 16.2077 22.4369 16.904 22.6373 17.6001L22.6377 17.6017L22.6378 17.602L22.6379 17.6022L22.638 17.6025L22.638 17.6028L22.6381 17.603L22.6382 17.6033L22.6383 17.6036L22.6383 17.6039L22.6384 17.6041L22.6385 17.6044L22.6386 17.6047C22.7225 17.8962 22.8064 18.1877 22.8892 18.4797C22.8961 18.5027 22.9018 18.5257 22.9083 18.5524L22.9083 18.5524C22.9133 18.5733 22.919 18.5963 22.9262 18.6233C22.2944 18.3867 21.6681 18.1538 21.0418 17.9209ZM7.21874 18.453L6.76206 18.6233C6.84162 18.3448 6.9188 18.0723 6.99521 17.8025C7.06063 17.5715 7.12549 17.3425 7.19078 17.1135L7.83078 14.8551C7.83291 14.8478 7.83496 14.8402 7.83705 14.8324C7.84499 14.8029 7.85351 14.7712 7.86975 14.7484C8.01637 14.5376 8.16204 14.3277 8.31065 14.1135L8.3118 14.1119L8.52206 13.8089C8.79958 14.7826 9.07343 15.7478 9.34833 16.7166L9.59078 17.571C8.79853 17.8638 8.01352 18.1566 7.21874 18.453ZM21.9351 18.6444L22.8113 18.97C22.7869 18.9919 22.7676 19.0103 22.7512 19.0258L22.7509 19.0261L22.7508 19.0261L22.7507 19.0263C22.7397 19.0367 22.73 19.0459 22.721 19.0541C22.4943 19.2427 22.2678 19.4309 22.0414 19.619L22.0357 19.6237C21.422 20.1335 20.8094 20.6423 20.198 21.1566C20.0421 21.2859 19.8841 21.3782 19.7077 21.4274C19.5682 21.4658 19.4294 21.5106 19.291 21.5553L19.291 21.5553L19.2909 21.5553L19.2909 21.5553L19.2909 21.5553L19.2908 21.5553L19.2908 21.5554L19.2908 21.5554L19.2907 21.5554L19.2907 21.5554L19.2906 21.5554L19.2906 21.5554L19.2906 21.5554L19.2904 21.5555C19.2072 21.5823 19.1241 21.6092 19.041 21.6346C19.0209 21.643 19.0008 21.6472 18.9684 21.6541L18.9684 21.6541L18.9683 21.6541L18.9683 21.6541L18.9683 21.6541L18.9446 21.6592C19.1465 20.9462 19.3471 20.2391 19.5474 19.5328C19.6993 18.9975 19.851 18.4626 20.0031 17.9259C20.6478 18.1662 21.2895 18.4046 21.9351 18.6444ZM6.89387 18.9851L6.88103 18.9741C7.21334 18.8489 7.52924 18.732 7.84924 18.6151C8.04542 18.5419 8.24184 18.469 8.43825 18.3961C8.83124 18.2502 9.22423 18.1043 9.61539 17.9566C9.67693 17.932 9.70154 17.9546 9.72411 18.0346C9.92419 18.7486 10.1266 19.4611 10.3289 20.1735L10.329 20.1738C10.4585 20.6299 10.588 21.0859 10.7169 21.5423C10.7225 21.5611 10.7268 21.58 10.7319 21.6021C10.7362 21.6209 10.7411 21.642 10.7477 21.6674C10.6103 21.6264 10.4872 21.5894 10.3641 21.5505C10.3242 21.5378 10.2843 21.5243 10.2443 21.5108C10.161 21.4826 10.0774 21.4543 9.99283 21.4335C9.81437 21.3905 9.65642 21.2941 9.50257 21.1648C8.94987 20.7 8.39627 20.2396 7.84238 19.7789L7.84214 19.7787L7.84203 19.7786L7.84131 19.778L7.84085 19.7776L7.84038 19.7772L7.83991 19.7768L7.83945 19.7765L7.83898 19.7761L7.83851 19.7757L7.8382 19.7754L7.83788 19.7752L7.83756 19.7749L7.83725 19.7746L7.83693 19.7744C7.55186 19.5373 7.2667 19.3001 6.98154 19.0623C6.9575 19.0401 6.93179 19.0179 6.89388 18.9852L6.89387 18.9851ZM14.9939 25.4766V22.1105H18.4482C18.4206 22.1587 18.3929 22.2042 18.366 22.2485C18.3151 22.3323 18.2669 22.4116 18.2267 22.4961C18.0277 22.9084 17.7569 23.1976 17.4472 23.4459C16.909 23.8784 16.3764 24.325 15.8438 24.7717C15.5908 24.9839 15.3378 25.1962 15.0841 25.4069C15.0654 25.4227 15.0457 25.4375 15.0236 25.4541L15.0235 25.4542L14.9939 25.4766ZM11.5286 22.6072C11.4357 22.4456 11.3411 22.2812 11.2421 22.1105C12.4051 22.1105 13.5477 22.1105 14.6964 22.1125V25.4746C14.6844 25.4648 14.6719 25.4561 14.6597 25.4477L14.6597 25.4477C14.6489 25.4403 14.6383 25.433 14.6287 25.4253L14.6274 25.4243C13.7007 24.6533 12.7739 23.8824 11.8492 23.1115C11.8103 23.0807 11.7774 23.0397 11.7508 22.9925C11.6768 22.8647 11.6032 22.7368 11.5286 22.6072ZM19.1335 8.76032C18.7365 9.38633 18.3441 10.0049 17.9497 10.6274C17.0185 9.85201 16.0995 9.08688 15.1662 8.31149C15.2522 8.27389 15.3365 8.23832 15.4193 8.20336L15.4194 8.20335L15.4195 8.20331L15.4196 8.20327L15.4197 8.20323C15.5717 8.13906 15.7189 8.07692 15.8636 8.00791C16.038 7.9238 16.2123 7.89508 16.3949 7.89508C17.184 7.89816 17.9731 7.89778 18.7631 7.89739L19.5539 7.89714H19.681L19.1335 8.76032ZM11.7426 10.6274C11.1703 9.72278 10.6 8.82432 10.0113 7.89714H10.0113C10.0667 7.89714 10.0995 7.89714 10.1262 7.89919C11.2462 7.89919 12.3641 7.89919 13.4821 7.90124C13.5374 7.90124 13.5949 7.91355 13.6482 7.93611C13.9149 8.04483 14.1815 8.1597 14.4462 8.27457C14.4552 8.2791 14.4647 8.28403 14.4752 8.28953L14.4753 8.28954C14.4886 8.2965 14.5037 8.30438 14.5221 8.31355L13.8329 8.88739C13.1349 9.46856 12.4405 10.0468 11.7426 10.6274ZM25.7617 14.9625L25.7616 14.9641L25.7599 14.9843L25.7594 14.9901C25.6389 16.4384 25.518 17.8904 25.3939 19.3659L25.1842 19.0642C24.8195 18.5395 24.4643 18.0284 24.1077 17.5115C24.492 16.8207 24.8752 16.1337 25.2582 15.4474L25.7774 14.5166C25.7829 14.522 25.7898 14.5243 25.7956 14.5261L25.798 14.5269L25.7617 14.9625ZM5.58667 17.5156C5.16001 18.131 4.73744 18.7382 4.30052 19.3659C4.24586 18.7157 4.19186 18.0707 4.13811 17.4289C4.05671 16.4568 3.97591 15.4918 3.89437 14.5269C3.90257 14.5228 3.90872 14.5187 3.91488 14.5146C4.1777 14.9869 4.44098 15.4592 4.7045 15.9319L4.70522 15.9332C4.99884 16.4599 5.29276 16.9872 5.58667 17.5156ZM5.74269 22.4551C5.33422 21.6623 4.92402 20.8662 4.50975 20.0612C5.17847 20.2746 5.82462 20.4797 6.48103 20.6869L6.66565 24.1946L6.65979 24.1982L6.65539 24.2007L6.64856 24.2047L6.64513 24.2069C6.34464 23.6233 6.04414 23.0401 5.74269 22.4551ZM23.0407 24.2009C23.0379 24.1999 23.035 24.1991 23.0323 24.1983L23.0267 24.1966L23.1498 21.8583L23.2113 20.6889L23.3245 20.6531L23.3258 20.6527C23.9414 20.4578 24.5529 20.2642 25.1826 20.0633L24.8442 20.7197L24.843 20.7221L24.8423 20.7234C24.2391 21.8937 23.6434 23.0492 23.0492 24.2048C23.0468 24.2032 23.0438 24.202 23.0407 24.2009ZM7.74719 6.36088L8.14257 5.8479L8.14777 5.97154C8.15408 6.12028 8.15985 6.25628 8.16308 6.39355C8.1836 6.9556 8.20411 7.51355 8.22667 8.0756C8.23077 8.14534 8.22052 8.18226 8.16513 8.20688C7.49353 8.50789 6.8208 8.81114 6.14861 9.11415L6.14794 9.11444L6.14631 9.11518L5.43078 9.43765C5.41847 9.44175 5.40411 9.4438 5.37949 9.42944C6.16635 8.41199 6.95169 7.39302 7.74719 6.36088ZM24.3108 9.42944L24.2985 9.45406L23.5846 9.1279C22.9056 8.82226 22.2287 8.51867 21.5497 8.21508C21.4821 8.18637 21.4574 8.14944 21.4615 8.04688C21.4822 7.58607 21.4991 7.12342 21.5161 6.66016L21.5161 6.65993C21.5244 6.43243 21.5328 6.20478 21.5415 5.97714C21.5436 5.94431 21.5456 5.91355 21.5518 5.85201C22.3286 6.86079 23.0982 7.85805 23.8654 8.85224L24.3108 9.42944ZM12.4957 3.55228L12.4974 3.55662C12.2985 3.8356 12.0995 4.11457 11.8985 4.38944C11.7092 4.65486 11.519 4.91943 11.3288 5.18412L11.3288 5.18413L11.3288 5.18413L11.3287 5.18414L11.3286 5.18433L11.3286 5.18434L11.3286 5.18434L11.3286 5.18435L11.3286 5.18436L11.3286 5.18437L11.3286 5.18437L11.3284 5.18457L11.3284 5.18463L11.3283 5.18469L11.3283 5.18476L11.3283 5.18482L11.3282 5.18488L11.3282 5.18495L11.3281 5.18501L11.3281 5.18507L11.328 5.18513L11.328 5.1852L11.3279 5.18526C11.0979 5.50525 10.8679 5.8254 10.639 6.14739C10.5898 6.21508 10.5508 6.22739 10.4851 6.19867C10.0867 6.02357 9.68819 5.85309 9.28162 5.67916C9.08332 5.59432 8.8831 5.50866 8.68001 5.42124C9.96098 4.78587 11.2215 4.1587 12.482 3.53154L12.4842 3.5304L12.4851 3.52996C12.4904 3.53868 12.4926 3.54444 12.4957 3.55228ZM18.7191 4.28154C19.475 4.65719 20.2307 5.03269 20.9856 5.40893V5.43355L20.8695 5.48354C20.3033 5.72735 19.7385 5.97058 19.1682 6.20483C19.1395 6.21714 19.0882 6.18637 19.0656 6.1556C18.694 5.6429 18.3231 5.12681 17.9526 4.61115C17.7465 4.32425 17.5404 4.03748 17.3344 3.75149C17.3051 3.71254 17.2745 3.67648 17.2441 3.64073L17.2441 3.64069C17.2233 3.61621 17.2026 3.59188 17.1826 3.56688C17.1856 3.56073 17.1892 3.55406 17.1928 3.54739C17.1964 3.54073 17.2 3.53406 17.2031 3.5279C17.7073 3.77876 18.2114 4.02929 18.7155 4.27976L18.7191 4.28154ZM18.1296 27.616C17.1496 27.8654 16.165 28.116 15.1662 28.371C15.2063 28.3006 15.2441 28.2348 15.2804 28.1716C15.3351 28.0764 15.3864 27.9871 15.4369 27.8971L15.4382 27.8949C15.7003 27.4403 15.9625 26.9856 16.2246 26.5289C16.2574 26.4735 16.2882 26.4489 16.3436 26.4653C16.9151 26.637 17.4859 26.8064 18.0568 26.9759L18.0571 26.976L18.0573 26.976L18.0576 26.9761L18.0579 26.9762L18.0582 26.9763L18.0585 26.9764L18.0587 26.9765L18.059 26.9766L18.0593 26.9766L18.0596 26.9767L18.0625 26.9776L18.0636 26.9779C18.4248 27.0851 18.7861 27.1924 19.1477 27.3002C19.1682 27.3043 19.1887 27.3146 19.2092 27.3412L18.1296 27.616ZM10.481 27.3412V27.3187C10.7824 27.2285 11.0818 27.1382 11.3811 27.048L11.3815 27.0479C12.0297 26.8571 12.678 26.6643 13.3262 26.4715C13.3815 26.453 13.4205 26.451 13.4636 26.5248C13.7444 27.0171 14.0266 27.5052 14.3091 27.9937L14.3092 27.9939L14.3093 27.9941L14.3094 27.9943L14.3098 27.995L14.4892 28.3053C14.4915 28.3098 14.4935 28.3146 14.496 28.3207C14.5003 28.3312 14.5063 28.3455 14.518 28.3689L13.9128 28.2151L13.9068 28.2136L13.9053 28.2132L13.8989 28.2116C12.7532 27.9205 11.6164 27.6316 10.481 27.3412ZM9.35008 2.41499L9.36308 2.41406L9.1211 2.99837C8.82826 3.70542 8.53756 4.40727 8.24308 5.12175C7.84513 4.49406 7.45539 3.88073 7.04513 3.23662C7.09022 3.20877 7.13381 3.17814 7.17673 3.14797L7.17674 3.14797C7.26659 3.08481 7.35351 3.02372 7.44513 2.99457C7.9082 2.8438 8.37474 2.70342 8.84127 2.56304C8.99679 2.51624 9.15231 2.46945 9.3077 2.42226C9.31787 2.41718 9.33084 2.4163 9.35008 2.41499ZM21.207 4.53341C20.9147 3.82699 20.6237 3.12373 20.3251 2.4079C20.4028 2.43114 20.4784 2.45334 20.5527 2.47515L20.5533 2.47532L20.5534 2.47536C20.6888 2.5151 20.8198 2.55356 20.9508 2.59457C21.0766 2.63302 21.2024 2.67064 21.3282 2.70823L21.3283 2.70828C21.6453 2.80305 21.9617 2.89763 22.2759 3.00483C22.3594 3.03266 22.4391 3.09069 22.5234 3.15204C22.5633 3.18113 22.6043 3.21096 22.6472 3.23867L22.3317 3.73563L22.3294 3.73939C22.0351 4.20287 21.746 4.65833 21.4513 5.1238L21.207 4.53341ZM26.1631 23.011C25.999 21.9997 25.841 21.0274 25.679 20.0387C26.2079 20.2335 26.7286 20.4282 27.2523 20.6241L27.2526 20.6243L27.601 20.7546C27.5903 20.7892 27.5803 20.8236 27.5704 20.8575C27.5296 20.9979 27.4912 21.13 27.4103 21.2407C27.0811 21.6916 26.7562 22.1511 26.4321 22.6096L26.432 22.6097L26.432 22.6098L26.4319 22.6099L26.4318 22.61L26.4318 22.61L26.4317 22.6101L26.4316 22.6102L26.4316 22.6103L26.4315 22.6104L26.4315 22.6105L26.4314 22.6106L26.4312 22.6108L26.241 22.8797C26.2255 22.9009 26.2119 22.925 26.1929 22.9587C26.1843 22.974 26.1746 22.9912 26.1631 23.011ZM3.53744 22.9618L3.50052 22.9987C3.49573 22.9857 3.4914 22.972 3.48707 22.9583C3.47841 22.931 3.46975 22.9036 3.45744 22.8818C3.3631 22.7489 3.26901 22.6158 3.17498 22.4829L3.17495 22.4829L3.17493 22.4829L3.17491 22.4828L3.1749 22.4828C2.88869 22.0782 2.60308 21.6744 2.31283 21.2776C2.20411 21.1279 2.14668 20.9556 2.09745 20.7505L2.7421 20.5104L2.74221 20.5103L2.74232 20.5103C3.16206 20.3539 3.58424 20.1966 4.01539 20.0366C3.85334 21.0212 3.69539 21.9915 3.53744 22.9618ZM26.7887 18.6016L26.7904 18.5997L26.7922 18.5978C27.0906 18.2743 27.3896 17.9501 27.6913 17.6223C27.7144 18.0902 27.736 18.5365 27.7574 18.9786L27.7575 18.9804L27.7575 18.9814L27.7575 18.9819L27.7672 19.1812L27.7707 19.2575L27.7745 19.3429L27.7746 19.3446L27.7746 19.3449V19.3449V19.345V19.345V19.345V19.345V19.3451V19.3451V19.3451V19.3451V19.3451C27.7797 19.4611 27.7848 19.5761 27.7918 19.692C27.803 19.8699 27.8086 19.9596 27.797 20.047C27.7852 20.1361 27.7554 20.2227 27.6954 20.3976C27.4319 20.2995 27.1677 20.2013 26.9018 20.1025C26.5343 19.966 26.1638 19.8283 25.7877 19.6879C26.1185 19.3283 26.4472 18.9719 26.7764 18.6149L26.7847 18.6059L26.7862 18.6043L26.7887 18.6016ZM2.00247 17.6328L2.00308 17.6264L2.9562 18.6586L3.90667 19.6879C3.26052 19.93 2.63078 20.1659 1.99693 20.4018C1.93334 20.2028 1.88001 20.0202 1.89232 19.8007C1.9265 19.2196 1.95356 18.6385 1.98062 18.0574L1.98062 18.0574L1.99693 17.7084C1.99693 17.6909 1.99878 17.6715 2.00247 17.6328ZM23.969 5.1073L23.9698 5.10877L23.9732 5.11484L23.9776 5.12255L23.9802 5.12714L23.9808 5.12828L23.9826 5.13143L23.9848 5.13544L23.9855 5.13653L23.9875 5.14018C24.0873 5.31716 24.1881 5.49601 24.2903 5.67765L24.0157 5.63715C23.2358 5.52213 22.4724 5.40953 21.6974 5.29201C22.0933 4.66637 22.4769 4.06124 22.8687 3.4438C22.9098 3.48355 22.953 3.51753 22.9961 3.55139C23.0864 3.62237 23.1761 3.69287 23.2441 3.81508C23.4823 4.24415 23.7225 4.67021 23.969 5.1073ZM7.42142 4.38104L7.42154 4.38124L7.42213 4.38217C7.61324 4.6831 7.80489 4.98487 7.99898 5.29201C7.4521 5.37436 6.91411 5.45429 6.37537 5.53433L6.37425 5.5345L6.36745 5.53551L6.36431 5.53598C6.04791 5.58299 5.73122 5.63004 5.41231 5.67765C5.42201 5.65729 5.42941 5.64106 5.43582 5.627L5.43583 5.62698L5.43586 5.62692C5.443 5.61126 5.44891 5.5983 5.45539 5.58534C5.54533 5.42552 5.63483 5.26526 5.72433 5.10503C5.97367 4.6586 6.22291 4.21236 6.48103 3.77611C6.539 3.67855 6.62134 3.6073 6.70587 3.53416C6.74397 3.50118 6.78253 3.46782 6.81949 3.43149C7.02101 3.75057 7.22092 4.06534 7.42142 4.38104ZM15.8807 29.4799C16.3432 29.7681 16.8073 30.0572 17.279 30.3525C17.1582 30.4066 17.0383 30.4605 16.9191 30.514C16.4009 30.7468 15.8964 30.9735 15.3877 31.1853C15.3062 31.2191 15.2151 31.2104 15.1223 31.2017C15.0796 31.1976 15.0365 31.1935 14.9939 31.1935V28.9269C15.2899 29.1117 15.585 29.2956 15.8807 29.4799ZM12.4174 30.3525C13.1846 29.8725 13.9374 29.4028 14.7005 28.9269V31.2059C14.6553 31.2036 14.6108 31.2043 14.5665 31.2049C14.4482 31.2066 14.3323 31.2083 14.2144 31.1546C13.8084 30.9699 13.4025 30.7905 12.9966 30.6111C12.8343 30.5394 12.672 30.4677 12.5097 30.3956C12.5022 30.3918 12.4946 30.3882 12.4865 30.3845L12.4682 30.3761L12.4681 30.376C12.454 30.3696 12.4378 30.3622 12.4174 30.3525ZM27.8041 14.1597C28.1939 14.7135 28.5713 15.2489 28.9549 15.7925C28.7033 16.0638 28.4584 16.3307 28.207 16.6046L27.9374 16.8982C27.9029 16.1957 27.8695 15.5077 27.8355 14.8064L27.8041 14.1597ZM1.87693 14.1894C1.88001 14.1915 1.88309 14.1935 1.88616 14.1946C1.84309 15.0869 1.80001 15.9771 1.75488 16.8941C1.56996 16.6937 1.38918 16.4975 1.20842 16.3014L1.20661 16.2994C1.05109 16.1306 0.89558 15.9619 0.737444 15.7905L1.07492 15.3104C1.34013 14.933 1.60392 14.5576 1.8677 14.1843C1.87078 14.1853 1.87385 14.1874 1.87693 14.1894ZM4.79283 6.13714L3.51078 8.41611L3.49792 8.12003C3.47186 7.51918 3.44668 6.93857 3.41847 6.34432C3.7325 6.29742 4.04259 6.25053 4.3617 6.20228L4.36184 6.20226L4.79283 6.13714ZM25.9743 6.30015L26.2718 6.34432C26.2431 7.03355 26.2123 7.70432 26.1795 8.41816L26.0072 8.11129L26.0069 8.11069L26.0064 8.10981C25.6364 7.45075 25.2738 6.80496 24.8974 6.13919C25.2677 6.19528 25.6204 6.24762 25.9742 6.30012L25.9743 6.30015ZM5.1518 25.8069C5.14975 25.8151 5.1477 25.8233 5.1436 25.8315C4.70606 25.6952 4.2673 25.5601 3.82637 25.4243L3.43693 25.3043L3.5542 24.5825L3.68924 23.7515C3.93344 24.095 4.17513 24.4345 4.41557 24.7722L4.41565 24.7723L4.4165 24.7735L4.41778 24.7753L4.4241 24.7842L4.42761 24.7891L4.43296 24.7966C4.6734 25.1344 4.9126 25.4704 5.1518 25.8069ZM24.5399 25.8165L24.5364 25.8089L24.7963 25.4445L24.7965 25.4442L24.7969 25.4437C25.1945 24.8864 25.5936 24.3269 26.001 23.7494C26.0851 24.2766 26.1672 24.7812 26.2533 25.3023C25.8958 25.4141 25.5391 25.5244 25.1827 25.6346L25.182 25.6348L25.1803 25.6353C24.969 25.7006 24.7579 25.7659 24.5467 25.8315L24.5442 25.8263L24.5415 25.8202L24.5399 25.8165ZM18.4134 30.6644C18.285 30.5845 18.1547 30.5034 18.0215 30.4202C18.7559 30.092 19.4677 29.7761 20.1959 29.4561C20.1853 29.4773 20.1774 29.4944 20.1706 29.5088C20.1617 29.5279 20.1548 29.5426 20.1467 29.5566C19.8574 30.0653 19.5682 30.5741 19.279 31.0869C19.24 31.1546 19.2113 31.1648 19.1539 31.1279C18.91 30.9735 18.6662 30.8217 18.4152 30.6656L18.414 30.6648L18.4138 30.6647L18.4134 30.6644ZM9.51283 29.4582C10.2246 29.7741 10.9364 30.09 11.6708 30.4161L11.5187 30.5116L11.5183 30.5119C11.172 30.7294 10.8404 30.9377 10.5056 31.1382C10.4892 31.1464 10.4503 31.1382 10.44 31.1176C10.1262 30.5741 9.81642 30.0243 9.51283 29.4582ZM12.0933 1.14842C12.1036 1.15457 12.1139 1.16277 12.1364 1.18329C11.3877 1.41098 10.6533 1.63252 9.90462 1.85816C9.96186 1.72135 10.0143 1.59404 10.0653 1.47041L10.1364 1.29816C10.1757 1.20296 10.2153 1.10803 10.2548 1.01318L10.2549 1.01304L10.2549 1.01294L10.255 1.01281L10.255 1.0127L10.2551 1.01257L10.2551 1.0125L10.2551 1.01238L10.2552 1.01229L10.2552 1.01225L10.2553 1.01205L10.2553 1.0119L10.2554 1.0118L10.2554 1.01173C10.323 0.849561 10.3905 0.687599 10.4564 0.524824C10.4769 0.473542 10.4974 0.448928 10.5467 0.471492C10.9483 0.649085 11.3498 0.824183 11.7524 0.999704L11.7524 0.999719L12.0933 1.14842ZM18.4168 1.44482L17.5477 1.18123L17.5779 1.16456C17.6061 1.14882 17.627 1.13719 17.6503 1.1279C17.8461 1.04184 18.042 0.956444 18.2379 0.871044L18.2386 0.87072C18.5328 0.742485 18.8269 0.614251 19.121 0.4838C19.1887 0.455082 19.2174 0.475595 19.2503 0.557646C19.362 0.835514 19.4767 1.11038 19.5916 1.38574L19.5918 1.38613C19.6414 1.50499 19.6911 1.62395 19.7405 1.74329C19.7488 1.76401 19.7571 1.78567 19.7679 1.8139L19.7681 1.81442L19.7681 1.81451L19.7684 1.81521L19.7685 1.81544L19.7856 1.86021C19.3314 1.72206 18.8831 1.58617 18.4318 1.44934L18.4303 1.44891L18.4281 1.44824L18.4242 1.44704L18.4208 1.44601L18.4188 1.44542L18.4174 1.44498L18.4168 1.44482ZM6.48513 18.5269C6.29642 18.1905 6.1159 17.8684 5.93334 17.5382C6.17248 17.1933 6.41106 16.8502 6.64909 16.5078L6.64952 16.5072C6.8687 16.1919 7.08741 15.8774 7.30565 15.5628C7.30872 15.5648 7.31129 15.5674 7.31385 15.57C7.31642 15.5725 7.31898 15.5751 7.32206 15.5771C7.20258 15.9975 7.08349 16.4179 6.96379 16.8404L6.96367 16.8408C6.80596 17.3975 6.64721 17.9579 6.48513 18.5269ZM23.1992 16.7325L23.759 17.5382C23.5744 17.8664 23.3959 18.1843 23.2072 18.5248L22.9502 17.6201C22.7555 16.9346 22.5629 16.2564 22.3703 15.5771C22.3717 15.5762 22.373 15.5751 22.3743 15.574L22.3785 15.57C22.381 15.5674 22.3836 15.5648 22.3867 15.5628C22.6571 15.9525 22.9275 16.3416 23.1992 16.7325ZM9.44713 8.03296L9.46154 8.03457C9.18257 9.01714 8.9077 9.98739 8.63488 10.9576C8.6318 10.9576 8.62872 10.9571 8.62565 10.9566C8.62257 10.9561 8.61949 10.9556 8.61642 10.9556C8.61306 10.8784 8.60948 10.801 8.60591 10.7235L8.60587 10.7229C8.59852 10.5638 8.59116 10.4043 8.58565 10.2459C8.5752 9.95554 8.56423 9.6663 8.55326 9.3773C8.54269 9.09862 8.53213 8.82018 8.52206 8.54124L8.52178 8.53415C8.51975 8.48201 8.51811 8.43975 8.56719 8.41816C8.78616 8.32119 9.00394 8.22302 9.22235 8.12457L9.22272 8.1244L9.42667 8.03252C9.43112 8.03104 9.43665 8.0317 9.44713 8.03296ZM21.0687 10.9566L21.064 10.9573L21.0595 10.9576C20.7846 9.98534 20.5098 9.01714 20.2308 8.03457L20.2508 8.03863C20.2689 8.04216 20.2826 8.04486 20.2964 8.05098L20.4214 8.10782C20.651 8.21236 20.8819 8.31747 21.1128 8.41816C21.1539 8.43457 21.1785 8.45303 21.1744 8.52483C21.1456 9.29611 21.1169 10.0653 21.0862 10.8366L21.0859 10.8421L21.0859 10.8422V10.8422C21.0839 10.8795 21.0819 10.9185 21.078 10.9556C21.0762 10.9556 21.0744 10.9558 21.0727 10.956L21.0687 10.9566ZM12.3185 23.9568L12.3149 23.9443C12.8198 24.366 13.3187 24.7807 13.8235 25.2003L13.8263 25.2027L13.8278 25.2039L14.479 25.7453L14.4425 25.7562C14.348 25.7841 14.2681 25.8078 14.1898 25.8315C14.1112 25.8553 14.033 25.8785 13.9549 25.9016L13.9546 25.9017L13.9544 25.9018C13.8306 25.9385 13.707 25.9751 13.5826 26.0141C13.5354 26.0284 13.5005 26.0243 13.4677 25.9648C13.0903 25.3064 12.7108 24.65 12.3313 23.9935C12.3277 23.9882 12.3257 23.9813 12.3185 23.9568ZM17.3651 23.9566C17.3692 23.9628 17.3713 23.9689 17.3754 23.973C17.3618 23.9968 17.348 24.0205 17.3342 24.0443L17.3339 24.0449C17.3061 24.0927 17.2783 24.1406 17.2523 24.1884C17.1677 24.3351 17.0832 24.4818 16.9988 24.6286C16.7453 25.069 16.4918 25.5094 16.2349 25.9464C16.2123 25.9833 16.1651 26.0223 16.1364 26.0141C15.9201 25.9555 15.7048 25.8903 15.4891 25.8249C15.4103 25.801 15.3314 25.7771 15.2523 25.7535C15.2481 25.7521 15.2448 25.7478 15.2399 25.7413L15.2399 25.7412C15.2376 25.7383 15.235 25.7348 15.2318 25.731C15.9447 25.139 16.6534 24.549 17.3622 23.9591L17.3651 23.9566ZM8.79488 21.05C8.1159 20.8325 7.43693 20.6171 6.74975 20.3997C6.73129 20.0223 6.71077 19.6592 6.68821 19.2653C7.02946 19.5487 7.36743 19.8303 7.70368 20.1103L7.70499 20.1114C8.07169 20.4169 8.43636 20.7206 8.80103 21.0233C8.80103 21.0296 8.79947 21.0344 8.7978 21.0395C8.79676 21.0427 8.79567 21.046 8.79488 21.05ZM21.6573 20.3827L21.6573 20.3826L21.6583 20.3818C22.1014 20.0122 22.5472 19.6402 23.0021 19.2633C22.9921 19.4391 22.9833 19.6086 22.9747 19.7753V19.7753V19.7754V19.7754V19.7755V19.7755V19.7755L22.9747 19.7759L22.9746 19.7765L22.9746 19.7766C22.9637 19.9868 22.9531 20.1927 22.9405 20.4018C22.4326 20.5608 21.9248 20.7222 21.4177 20.8833L20.8995 21.0479C20.8974 21.0376 20.8954 21.0315 20.8913 21.0212C21.1444 20.8105 21.3973 20.5995 21.6511 20.3878L21.6544 20.385L21.6573 20.3827ZM12.6217 7.49609C12.63 7.50087 12.6407 7.50696 12.6554 7.5156H10.0523C10.0578 7.50534 10.0626 7.49576 10.067 7.48695C10.0758 7.46933 10.0831 7.45474 10.0913 7.4438L10.1755 7.32536C10.3193 7.12294 10.4626 6.92121 10.6103 6.7238C10.6328 6.69098 10.6841 6.66431 10.7128 6.67662C11.3078 6.92743 11.9046 7.18377 12.498 7.43866L12.4982 7.43874L12.5959 7.48073C12.603 7.48547 12.6101 7.48953 12.6216 7.49608L12.6217 7.49609ZM19.6452 7.4907C19.6404 7.49872 19.6354 7.50716 19.6318 7.5156H19.6312C18.776 7.5156 17.9188 7.5156 17.0615 7.51355C17.0605 7.51149 17.06 7.50842 17.0595 7.50534C17.059 7.50226 17.0585 7.49919 17.0574 7.49714C17.1385 7.46329 17.2195 7.42842 17.3005 7.39355L17.3006 7.3935C17.3816 7.35864 17.4626 7.32379 17.5436 7.28996C18.0174 7.08688 18.4892 6.88585 18.961 6.68483C18.9897 6.67252 19.0369 6.67047 19.0554 6.69303C19.1985 6.87379 19.3386 7.05862 19.4786 7.24322L19.4786 7.24325L19.4786 7.24328L19.4786 7.24331L19.4787 7.24334L19.4787 7.24337L19.4787 7.2434L19.4787 7.24343L19.4787 7.24346L19.4788 7.24349L19.4788 7.24352L19.4789 7.24361L19.479 7.24381C19.5374 7.32088 19.5958 7.3979 19.6544 7.47457C19.6518 7.47965 19.6486 7.48507 19.6452 7.4907ZM21.2503 5.98944C21.2585 5.99355 21.2646 5.9956 21.2708 5.99765C21.2441 6.67662 21.2174 7.3556 21.1908 8.05303C20.8646 7.90739 20.5508 7.76585 20.2205 7.61611C20.4192 7.30293 20.6152 6.99308 20.81 6.68505C20.9572 6.45236 21.1037 6.22071 21.2503 5.98944ZM8.42154 6.00175L8.44001 5.98944L8.65794 6.33323C8.92613 6.75617 9.1954 7.18082 9.46975 7.61816C9.1436 7.7638 8.82975 7.90534 8.49949 8.05508C8.48853 7.76917 8.47791 7.48602 8.46735 7.20451L8.46731 7.20336C8.45221 6.8006 8.43723 6.40117 8.42154 6.00175ZM15.5103 27.2022C15.3396 27.4985 15.1681 27.7961 14.9918 28.1002V26.0653C15.1675 26.1182 15.341 26.1693 15.5158 26.2208L15.5161 26.2209L15.517 26.2212C15.6744 26.2676 15.8328 26.3142 15.9949 26.3628C15.8316 26.6445 15.6713 26.9228 15.5103 27.2022ZM14.7005 26.0633V28.0941C14.36 27.5094 14.0339 26.9453 13.6995 26.3607C14.04 26.2602 14.3662 26.1638 14.7005 26.0633ZM10.3576 6.52323L10.3662 6.52688L10.2506 6.67747C10.0622 6.92294 9.87918 7.16137 9.69334 7.40688C9.53134 7.15055 9.36524 6.88961 9.19735 6.62586C9.02935 6.36193 8.85955 6.09517 8.69026 5.82739L8.69218 5.82276C8.69374 5.8187 8.69561 5.81384 8.69847 5.81098C9.24545 6.04773 9.79446 6.28245 10.3576 6.52323ZM19.999 7.40893C19.7774 7.11355 19.558 6.82226 19.3303 6.52278C19.6542 6.38563 19.9748 6.24848 20.2935 6.11212L20.2944 6.11171C20.5284 6.01162 20.7613 5.91196 20.9939 5.81303L20.9958 5.81766C20.9973 5.82173 20.9992 5.82658 21.0021 5.82944C20.6656 6.36073 20.3272 6.89406 19.999 7.40893ZM23.6872 18.2671C23.7725 18.1143 23.8576 17.9617 23.9436 17.8069C24.3169 18.3382 24.6821 18.8633 25.0431 19.3905L25.0431 19.3905L25.041 19.3965L25.0399 19.3996L25.0374 19.4057L25.0349 19.411L25.0325 19.4101C24.4897 19.2073 23.9469 19.0045 23.3918 18.7976C23.4915 18.618 23.5894 18.4424 23.6872 18.2671L23.6872 18.2671ZM6.24449 18.6971L6.30052 18.7976C5.74257 19.0048 5.20103 19.2079 4.65539 19.413C4.65334 19.4048 4.65129 19.3987 4.64719 19.3905C4.87337 19.0659 5.09955 18.7397 5.32821 18.41C5.4666 18.2104 5.60591 18.0095 5.74667 17.8069C5.91284 18.1023 6.07569 18.3944 6.24419 18.6966L6.24449 18.6971ZM24.9118 19.7515V19.7741C24.7556 19.8236 24.5993 19.8731 24.4429 19.9225L24.4317 19.9261L24.4252 19.9281L24.4235 19.9287L24.4212 19.9294C24.0282 20.0537 23.6336 20.1785 23.2339 20.3074C23.2468 20.0354 23.2608 19.7705 23.275 19.4999L23.2751 19.4991L23.2933 19.1505C23.5057 19.2295 23.7168 19.3076 23.927 19.3854L23.9296 19.3863L23.9303 19.3866L23.9322 19.3873C24.2604 19.5087 24.5865 19.6293 24.9118 19.7515ZM6.42291 19.5963L6.42292 19.5966C6.43546 19.8301 6.44799 20.0635 6.46052 20.3053C6.05706 20.1801 5.66084 20.0538 5.26598 19.9279L5.26592 19.9279L5.26569 19.9278L5.26563 19.9278L5.2619 19.9266L5.25116 19.9232C5.09488 19.8734 4.93881 19.8236 4.78257 19.7741V19.7494C5.3159 19.5505 5.85129 19.3515 6.39898 19.1484L6.42291 19.5963ZM28.8154 16.4038C28.8174 16.4079 28.8195 16.411 28.8215 16.4141L28.824 16.4177C28.8252 16.4197 28.8265 16.4218 28.8277 16.4243C28.5733 17.3207 28.319 18.2192 28.0667 19.1135C28.0585 19.1115 28.0523 19.1115 28.0462 19.1094C28.0387 18.9893 28.0329 18.8657 28.0272 18.7449L28.0272 18.7438L28.0271 18.7427L28.0271 18.7423L28.0256 18.7115C28.0187 18.5669 28.0115 18.4223 28.0043 18.2777C27.9903 17.9958 27.9763 17.7142 27.9641 17.4335C27.9621 17.3925 27.9682 17.3269 27.9887 17.3043C28.2615 17.0028 28.5385 16.7033 28.8154 16.4038ZM1.64483 19.0963C1.64241 19.1068 1.63934 19.1201 1.63591 19.1382C1.37334 18.2192 1.11898 17.3228 0.858469 16.3997C0.86718 16.4051 0.874359 16.4091 0.880363 16.4125L0.880571 16.4126L0.880593 16.4126L0.880687 16.4127L0.880728 16.4127C0.892885 16.4195 0.900179 16.4236 0.905649 16.4305L1.09535 16.6365C1.29047 16.8483 1.48531 17.0597 1.67898 17.2735C1.7036 17.3002 1.73026 17.3576 1.72821 17.3987C1.711 17.8212 1.69021 18.2461 1.66947 18.6697L1.65026 19.0643C1.65026 19.0727 1.64818 19.0817 1.64483 19.0963ZM27.2215 22.0541C27.2241 22.0561 27.2267 22.0582 27.2297 22.0592C26.9733 22.9576 26.719 23.8582 26.4564 24.7935C26.4399 24.6914 26.4249 24.5916 26.4102 24.4938C26.3738 24.2521 26.3393 24.0228 26.2882 23.8007C26.2246 23.5259 26.2698 23.3453 26.4236 23.1505C26.6149 22.9059 26.7972 22.6442 26.9795 22.3823C27.0572 22.2708 27.1349 22.1592 27.2133 22.0489L27.2154 22.0498L27.2175 22.051C27.2189 22.052 27.2202 22.053 27.2215 22.0541ZM3.24206 24.7547L3.2359 24.7812C3.11419 24.3538 2.99427 23.9313 2.87509 23.5114L2.87494 23.5109L2.87472 23.5101L2.8747 23.51L2.87468 23.51L2.87466 23.5099L2.87463 23.5098L2.87348 23.5058C2.73812 23.0288 2.60371 22.5553 2.46872 22.0818C2.4718 22.0797 2.47436 22.0771 2.47693 22.0746C2.47949 22.072 2.48206 22.0694 2.48513 22.0674L2.50032 22.0855C2.51427 22.102 2.52683 22.1168 2.54052 22.1351C2.72297 22.3926 2.90624 22.6493 3.08929 22.9057L3.08997 22.9066C3.19688 23.0563 3.30371 23.206 3.41026 23.3556C3.44719 23.4069 3.45949 23.45 3.44719 23.5259C3.3959 23.8223 3.34838 24.1188 3.30069 24.4163L3.30068 24.4163L3.26052 24.6664C3.25714 24.69 3.25099 24.7164 3.24206 24.7547ZM10.0256 0.792519C10.0277 0.795082 10.0297 0.797645 10.0318 0.799696L10.0107 0.850229L10.0107 0.850257C9.99084 0.898046 9.97039 0.947242 9.9477 0.99867C9.82667 1.29611 9.70565 1.59354 9.57847 1.88687C9.56001 1.932 9.52103 1.97508 9.48821 1.98534C9.02872 2.12893 8.56513 2.26842 8.09539 2.38739C8.41547 2.11963 8.73658 1.85289 9.05769 1.58616L9.05781 1.58606L9.05787 1.58601C9.37875 1.31946 9.69964 1.05291 10.0195 0.785339C10.0215 0.78739 10.0236 0.789955 10.0256 0.792519ZM19.6626 0.797644L19.6749 0.785339C20.3128 1.32072 20.9549 1.85201 21.5949 2.38124C21.5939 2.38534 21.5928 2.38842 21.5918 2.39149C21.5908 2.39457 21.5898 2.39765 21.5887 2.40175C21.3733 2.33816 21.16 2.27457 20.9467 2.21098C20.707 2.13724 20.4674 2.06555 20.2277 1.99386L20.2275 1.99381L20.2274 1.99377L20.2267 1.99354C20.1692 1.97713 20.1303 1.94226 20.0995 1.86636C19.9682 1.54021 19.8328 1.21405 19.6974 0.889952C19.6906 0.873996 19.6844 0.856774 19.6781 0.839342L19.6781 0.839318L19.6781 0.839288L19.6781 0.839252L19.6781 0.839206L19.6781 0.839148L19.678 0.839076L19.678 0.839L19.678 0.838964L19.678 0.838941C19.673 0.825128 19.668 0.811187 19.6626 0.797644ZM25.7918 5.87867C25.7918 5.88688 25.7897 5.89508 25.7877 5.90329L25.7369 5.89566L25.7369 5.89566L25.7369 5.89565L25.7368 5.89565L25.7368 5.89564L25.7368 5.89564L25.7368 5.89564L25.7367 5.89563L25.7367 5.89563L25.7367 5.89562L25.7366 5.89562L25.7366 5.89561L25.7366 5.89561C25.3986 5.84482 25.0588 5.79377 24.719 5.73714C24.6923 5.73303 24.6615 5.71252 24.6451 5.68585C24.3846 5.22842 24.1282 4.76688 23.88 4.28688L24.4778 4.78509L24.4785 4.78565L24.4788 4.78591L24.4791 4.78617L24.4795 4.78644C24.9168 5.15104 25.3538 5.51534 25.7918 5.87867ZM5.80821 4.29098C5.81231 4.29714 5.81642 4.30329 5.82257 4.31149L5.72018 4.49357C5.49619 4.89196 5.27273 5.28941 5.04308 5.68996C5.02872 5.71662 4.9959 5.73714 4.96924 5.74124C4.61437 5.79662 4.25744 5.85201 3.89437 5.88278C4.25535 5.58427 4.61502 5.28447 4.97449 4.98483L4.9746 4.98474C5.25242 4.75316 5.53012 4.52168 5.80821 4.29098ZM2.91385 12.1166C2.7559 11.8356 2.58154 11.5238 2.39898 11.1935C2.71488 11.05 3.02052 10.9125 3.34052 10.771L3.34799 10.9574C3.35566 11.1475 3.36303 11.3305 3.36924 11.5135C3.37129 11.53 3.36103 11.5546 3.35283 11.5669L3.21865 11.7355L3.21852 11.7356L3.21848 11.7357C3.11747 11.8627 3.01615 11.9902 2.91385 12.1166ZM26.9442 11.8225C26.888 11.9236 26.8334 12.0219 26.7805 12.1166L26.6974 12.0129L26.6974 12.0129L26.6974 12.0128L26.6974 12.0128L26.6974 12.0128C26.5781 11.8639 26.4602 11.7168 26.3436 11.5669C26.3313 11.5525 26.3251 11.5238 26.3251 11.5012C26.3293 11.342 26.3361 11.1845 26.3433 11.0203L26.3433 11.0202L26.3433 11.02L26.3433 11.0198L26.3433 11.0195L26.3434 11.019C26.3469 10.9383 26.3505 10.856 26.3539 10.771L26.5562 10.8616L26.5566 10.8618L26.5568 10.8619L26.5596 10.8631L26.5603 10.8634C26.8049 10.973 27.047 11.0814 27.2954 11.1935C27.1739 11.4092 27.056 11.6213 26.9442 11.8225ZM14.8786 0.905886C15.0644 1.14906 15.2685 1.41604 15.48 1.69611L15.4609 1.70436L15.4609 1.70437L15.4609 1.70439C15.255 1.79346 15.066 1.87522 14.879 1.96277L14.8699 1.96529C14.8559 1.96931 14.8411 1.97359 14.8277 1.96687C14.6881 1.90703 14.5494 1.84619 14.4069 1.78367L14.2164 1.70021C14.3713 1.49796 14.5212 1.30273 14.6668 1.11313L14.8523 0.87149L14.8786 0.905886ZM22.4299 26.8616L22.6062 26.8079C22.5856 27.1894 22.5672 27.5484 22.5487 27.9259C22.3116 27.8538 22.0767 27.784 21.8384 27.7131L21.8379 27.713L21.5744 27.6346C21.6892 27.4294 21.7959 27.2428 21.9046 27.0541C21.919 27.0294 21.9436 27.013 21.9641 27.0048C22.117 26.9569 22.2709 26.91 22.4292 26.8618L22.4299 26.8616ZM8.08416 27.5731L8.12001 27.6366C7.91551 27.6959 7.71724 27.7553 7.51896 27.8146C7.39503 27.8517 7.27109 27.8888 7.14565 27.9259C7.13466 27.7259 7.12426 27.5283 7.11382 27.3299L7.11381 27.3296C7.10476 27.1577 7.09568 26.9851 7.08616 26.81C7.18281 26.8401 7.27793 26.8695 7.37218 26.8986L7.37291 26.8988L7.37314 26.8989L7.37385 26.8991C7.49706 26.9372 7.61879 26.9748 7.74052 27.013C7.75693 27.0192 7.77744 27.0376 7.78975 27.0602C7.88724 27.2239 7.98143 27.3909 8.08416 27.5731ZM11.0962 31.1968L11.0961 31.1956L11.0949 31.1851C11.0946 31.1825 11.0944 31.1798 11.0944 31.1771C11.4 30.9864 11.7056 30.7956 12.0154 30.6069C12.0359 30.5946 12.0626 30.5946 12.0831 30.6048C12.5118 30.7915 12.9405 30.9823 13.3672 31.173C13.3718 31.1742 13.3751 31.1779 13.3804 31.1839C13.3845 31.1885 13.3899 31.1945 13.398 31.2018H11.0964L11.0962 31.1968ZM18.5988 31.1905L18.5988 31.1905C18.5983 31.194 18.598 31.197 18.598 31.1997C17.8349 31.1997 17.0718 31.1997 16.3108 31.1976C16.3103 31.1966 16.3099 31.1955 16.3096 31.1943C16.3091 31.1925 16.3088 31.1906 16.3085 31.1884C16.308 31.1857 16.3075 31.1826 16.3067 31.1792L16.4326 31.1227L16.478 31.1023C16.5349 31.0766 16.5918 31.051 16.6492 31.0253C16.959 30.8859 17.2687 30.7464 17.5785 30.613C17.6092 30.5987 17.6523 30.5864 17.679 30.6028C17.9159 30.7471 18.1504 30.8939 18.3844 31.0403L18.6 31.1751C18.6 31.1809 18.5994 31.186 18.5988 31.1904L18.5988 31.1905ZM1.04862 14.829C1.04379 14.8326 1.0379 14.8371 1.03078 14.8428L1.16225 14.4638C1.4323 13.6853 1.69691 12.9225 1.96001 12.1597L1.96594 12.1609L1.97017 12.1616H1.97018L1.97019 12.1616L1.9702 12.1616C1.97386 12.1622 1.97719 12.1627 1.98052 12.1638L1.95591 12.7587L1.95511 12.7779C1.94511 13.0178 1.93497 13.2615 1.91898 13.5012C1.91693 13.5546 1.90462 13.6182 1.88001 13.6551C1.61129 14.0428 1.33847 14.4284 1.06565 14.8141C1.06297 14.8181 1.05768 14.8221 1.04862 14.829ZM28.6533 14.8182L28.6533 14.8182C28.6492 14.8223 28.6451 14.8264 28.639 14.8305C28.3621 14.4366 28.0831 14.0407 27.8041 13.6469C27.7877 13.6223 27.7754 13.5833 27.7733 13.5484C27.7487 13.0869 27.7282 12.6233 27.7262 12.1515C27.881 12.5956 28.0354 13.0403 28.1898 13.4849C28.3441 13.9295 28.4985 14.3741 28.6533 14.8182ZM26.5077 7.30842C26.5139 7.30637 26.52 7.30637 26.5262 7.30637C26.6412 7.82635 26.7569 8.34634 26.8725 8.86596L26.8732 8.86929L26.8736 8.87085C26.9637 9.27613 27.0539 9.68119 27.1436 10.0859C27.141 10.0885 27.1391 10.0911 27.1374 10.0935L27.1374 10.0935L27.1373 10.0935C27.136 10.0955 27.1347 10.0973 27.1331 10.0989C27.132 10.1001 27.1307 10.1013 27.1292 10.1023C27.1169 10.0818 27.1067 10.0633 27.0964 10.0428C26.8892 9.6756 26.6841 9.31047 26.479 8.94124C26.4605 8.90431 26.44 8.85303 26.4421 8.81201C26.456 8.43381 26.4735 8.05445 26.4909 7.67569L26.4909 7.67536L26.5077 7.30842ZM3.16616 7.30432C3.17231 7.30842 3.17847 7.31047 3.18462 7.31252C3.20924 7.81098 3.2318 8.31149 3.25026 8.80585C3.25026 8.83867 3.24411 8.8797 3.22975 8.90637C3.01026 9.30021 2.78872 9.69406 2.56719 10.0838C2.56573 10.0867 2.56223 10.0886 2.55523 10.0923L2.54462 10.0982C2.6443 9.65157 2.74305 9.20683 2.84153 8.7633C2.94976 8.27582 3.05768 7.78979 3.16616 7.30432ZM21.7815 28.7556C21.7882 28.7556 21.7969 28.7556 21.8103 28.7546L21.4399 29.1067L21.4381 29.1084L21.4373 29.1091C20.9393 29.5826 20.4466 30.051 19.9539 30.5207L19.951 30.5175L19.9487 30.5146L19.9459 30.511L19.9436 30.5084C19.9508 30.4951 19.9574 30.4818 19.9641 30.4684C19.9708 30.4551 19.9774 30.4418 19.9846 30.4284C20.1273 30.1752 20.271 29.9238 20.4143 29.6731L20.4144 29.673L20.4144 29.6729L20.4152 29.6715L20.5044 29.5155L20.6144 29.3228C20.6349 29.2859 20.6636 29.2489 20.6944 29.2346C21.0021 29.094 21.313 28.9566 21.6229 28.8195L21.7651 28.7566C21.7677 28.7561 21.7701 28.7559 21.7726 28.7557L21.7815 28.7556ZM9.74285 30.5122C9.74146 30.5147 9.74013 30.517 9.73847 30.5187L9.73766 30.5179L9.73685 30.5171L9.73604 30.5164L9.73524 30.5156L9.73443 30.5148C9.12449 29.9356 8.51456 29.3564 7.90462 28.7792C7.90667 28.7689 7.90872 28.7628 7.91283 28.7546C7.97644 28.7826 8.04005 28.8109 8.10366 28.8392C8.23081 28.8957 8.35797 28.9522 8.48513 29.0069C8.49943 29.0137 8.51317 29.0211 8.52668 29.0284C8.55775 29.0452 8.58764 29.0613 8.62052 29.0684C8.92821 29.1382 9.14565 29.37 9.31385 29.7269C9.40137 29.9088 9.50166 30.0779 9.60194 30.247C9.65208 30.3315 9.70223 30.4161 9.75078 30.5023C9.74711 30.5047 9.74491 30.5086 9.74285 30.5122ZM25.4039 25.967L25.4041 25.971C24.7498 26.4469 24.0933 26.9207 23.4369 27.3925C23.432 27.3826 23.4244 27.3714 23.4173 27.361L23.4123 27.3535L23.4371 27.3279L23.4371 27.3279C23.4702 27.2937 23.5034 27.2596 23.5313 27.2202L23.6788 27.0125C23.8265 26.8044 23.9743 26.5962 24.1221 26.3915C24.1508 26.3566 24.1877 26.3218 24.2246 26.3094C24.6064 26.189 24.9882 26.0706 25.37 25.9521L25.3703 25.952L25.3707 25.9519L25.371 25.9518L25.3713 25.9517L25.3717 25.9516L25.372 25.9515L25.3723 25.9514L25.3727 25.9513L25.373 25.9512L25.3733 25.9511L25.3737 25.951L25.374 25.9509L25.3754 25.9505C25.3809 25.9491 25.3874 25.9496 25.3936 25.95L25.3972 25.9503L25.4021 25.9505L25.4022 25.954L25.4028 25.9587L25.4031 25.9607L25.4036 25.9638L25.4039 25.967ZM6.25847 27.3833L6.25846 27.3833C6.25641 27.3869 6.25436 27.3905 6.25129 27.3946C6.01116 27.2207 5.77103 27.0465 5.5308 26.8723L5.53043 26.872L5.53006 26.8718L5.52999 26.8717L5.52992 26.8716L5.52894 26.8709L5.52736 26.8698L5.52714 26.8696L5.52692 26.8695C5.1138 26.5698 4.70039 26.27 4.28616 25.971L4.29231 25.9464C4.35655 25.9657 4.4213 25.9856 4.48605 26.0055L4.48705 26.0058C4.55222 26.0258 4.6174 26.0458 4.68206 26.0653C4.81231 26.1053 4.94206 26.1459 5.0718 26.1864C5.20154 26.2269 5.33129 26.2674 5.46154 26.3074L5.46731 26.3096C5.49255 26.3192 5.52044 26.3298 5.53949 26.3546C5.68471 26.5564 5.82993 26.7604 5.97514 26.9645C6.07198 27.1005 6.16881 27.2366 6.26565 27.372L6.26293 27.3759C6.26123 27.3785 6.25985 27.3809 6.25847 27.3833ZM18.1651 0.494057V0.51867C18.0642 0.563368 17.963 0.606292 17.862 0.649135L17.862 0.649151C17.6756 0.728204 17.4899 0.806979 17.3077 0.896106C17.1108 0.996619 16.9262 1.00893 16.7231 0.930978C16.5576 0.865622 16.3884 0.818176 16.2192 0.770748C16.1388 0.748212 16.0584 0.725681 15.9785 0.701234C15.9559 0.697131 15.9333 0.684826 15.9128 0.66021L18.1651 0.494057ZM13.7846 0.672517C13.7851 0.675595 13.7856 0.678672 13.7856 0.682774L13.6504 0.724214C13.5489 0.755375 13.4483 0.786233 13.3487 0.816106L13.0358 0.908436L12.7231 1.00072C12.6923 1.01098 12.6574 1.01098 12.6287 0.99867C12.2718 0.844824 11.9128 0.688928 11.5559 0.533031C11.5493 0.530387 11.5427 0.525186 11.53 0.515231C11.5231 0.509741 11.5142 0.502806 11.5026 0.494057L13.7836 0.66226C13.7836 0.666362 13.7841 0.66944 13.7846 0.672517ZM27.2162 12.7813C27.1244 12.668 27.0304 12.5518 26.9364 12.4346C27.0923 12.1556 27.2359 11.8971 27.3774 11.6387C27.3856 11.6428 27.3918 11.6448 27.398 11.6469C27.4097 11.906 27.4225 12.1651 27.435 12.4173L27.4351 12.4189L27.4352 12.4203L27.4352 12.4217L27.4353 12.4231L27.4354 12.4238L27.4354 12.4248C27.4468 12.6552 27.458 12.8797 27.4677 13.093C27.3871 12.9925 27.3026 12.8882 27.2162 12.7813ZM2.30926 11.6444L2.31488 11.6428C2.37124 11.7449 2.42825 11.847 2.48591 11.9503L2.48592 11.9503L2.48593 11.9503L2.48593 11.9503L2.48594 11.9503L2.48595 11.9503L2.48595 11.9503L2.48596 11.9503L2.48597 11.9503L2.48597 11.9504L2.48598 11.9504L2.48599 11.9504L2.48599 11.9504C2.57311 12.1064 2.66171 12.2651 2.7518 12.4305C2.66252 12.5408 2.57372 12.6512 2.48686 12.7591L2.48683 12.7592C2.39609 12.8719 2.30746 12.9821 2.22257 13.0869C2.24514 12.6418 2.26975 12.1474 2.29232 11.651C2.29683 11.648 2.30357 11.6461 2.30926 11.6444ZM26.3764 10.3443C26.3846 10.0592 26.3969 9.77201 26.4113 9.4479L26.5855 9.75701C26.7682 10.0809 26.9456 10.3955 27.1313 10.7279C26.873 10.6131 26.6414 10.5065 26.4097 10.3999L26.4097 10.3999L26.4097 10.3999L26.4096 10.3999L26.4096 10.3999L26.4096 10.3998L26.4096 10.3998L26.4095 10.3998L26.4095 10.3998L26.4095 10.3998L26.4094 10.3998L26.4094 10.3998L26.4094 10.3998L26.4092 10.3997C26.3969 10.3935 26.3764 10.3648 26.3764 10.3443ZM3.10668 9.7572L3.28103 9.4479C3.28563 9.56735 3.29051 9.68137 3.29524 9.79208L3.29525 9.79221C3.3032 9.97806 3.31076 10.1546 3.3159 10.332C3.3159 10.3525 3.29744 10.3915 3.28103 10.3997C3.10866 10.4813 2.93514 10.5594 2.75007 10.6427L2.56103 10.7279C2.74662 10.3957 2.9239 10.0813 3.10641 9.75767L3.10668 9.7572ZM23.6564 26.5084C23.3918 26.8797 23.1272 27.251 22.8441 27.6489L22.8452 27.6267C22.8612 27.3159 22.8753 27.0415 22.8913 26.771C22.8933 26.7484 22.918 26.7156 22.9364 26.7115C23.1723 26.6335 23.4082 26.5618 23.6564 26.5084ZM6.83476 27.3723L6.84411 27.5484C6.58154 27.2161 6.30462 26.8653 6.02975 26.5125C6.03283 26.5074 6.03488 26.5033 6.03693 26.4992C6.03898 26.4951 6.04103 26.491 6.04411 26.4859C6.28206 26.5576 6.52206 26.6315 6.76001 26.7074C6.77642 26.7135 6.79898 26.7361 6.80103 26.7566C6.81342 26.9688 6.82464 27.1809 6.83469 27.3709L6.83472 27.3716L6.83475 27.3721L6.83476 27.3723ZM22.1126 28.1903C22.1132 28.1953 22.1139 28.2011 22.1139 28.2069L21.859 28.3202L21.8584 28.3205L21.8582 28.3206C21.5661 28.4504 21.2742 28.5801 20.9836 28.7135L20.9733 28.693C21.1046 28.4612 21.2359 28.2294 21.3692 27.9997C21.3774 27.9812 21.4062 27.973 21.4226 27.9771C21.5757 28.0209 21.7288 28.0665 21.8819 28.112C21.9585 28.1348 22.0352 28.1576 22.1118 28.1802C22.1118 28.1829 22.1122 28.1863 22.1126 28.1902L22.1126 28.1903L22.1126 28.1903ZM16.4728 1.23662V1.25918L16.4727 1.25923L16.4727 1.25924C16.2512 1.35768 16.0297 1.45613 15.8041 1.54842C15.7877 1.55662 15.7569 1.54842 15.7426 1.53201C15.5846 1.32688 15.4267 1.1197 15.2687 0.912516C15.2718 0.906362 15.2754 0.900721 15.279 0.89508C15.2826 0.889439 15.2862 0.883798 15.2892 0.877644C15.4871 0.937111 15.684 0.99709 15.8808 1.05707L15.8809 1.05708L15.881 1.05713L15.8812 1.05719L15.8814 1.05723L15.8815 1.05727L15.8816 1.05731L15.8817 1.05734L15.8819 1.05738L15.882 1.05742L15.882 1.05743C16.0786 1.11733 16.2752 1.17723 16.4728 1.23662ZM8.50154 28.3094C8.57539 28.4366 8.64924 28.5659 8.73744 28.7218C8.33744 28.5433 7.95795 28.3751 7.58052 28.2089V28.1823C7.72001 28.1371 7.85744 28.0941 7.99693 28.0551C8.02586 28.047 8.05593 28.0351 8.08617 28.0232L8.08619 28.0232L8.08621 28.0232L8.08622 28.0232C8.1632 27.9928 8.24131 27.962 8.30462 27.9915C8.36278 28.0206 8.40548 28.1115 8.44806 28.2021C8.46555 28.2394 8.48303 28.2766 8.50154 28.3094ZM13.2195 1.26329V1.24072C13.6133 1.1197 14.0072 1.00072 14.401 0.887903C14.4075 0.894376 14.4127 0.903403 14.4176 0.911961L14.4215 0.91867L14.421 0.919444C14.2632 1.12637 14.1055 1.33328 13.9477 1.53816C13.9354 1.55457 13.9046 1.56277 13.8862 1.55457C13.6626 1.46021 13.441 1.36175 13.2195 1.26329L13.2195 1.26329ZM26.1959 13.1453C26.1933 13.1433 26.1908 13.1412 26.1877 13.1402C26.2185 12.7689 26.2492 12.3976 26.2821 12.0305C26.3887 12.1679 26.4913 12.2971 26.6021 12.4366C26.5421 12.5438 26.483 12.6501 26.4243 12.7557L26.4239 12.7564C26.3502 12.889 26.2771 13.0204 26.2041 13.1505C26.201 13.1494 26.1985 13.1474 26.1959 13.1453ZM3.49568 13.144L3.49567 13.144C3.49323 13.1458 3.49092 13.1475 3.48821 13.1484C3.43029 13.0436 3.37196 12.9388 3.31322 12.8333L3.31287 12.8326L3.31281 12.8325C3.24062 12.7028 3.1678 12.572 3.09436 12.4387C3.20308 12.3033 3.3077 12.1741 3.41437 12.0428C3.42869 12.207 3.44257 12.3752 3.45662 12.5456L3.45662 12.5457L3.45663 12.5457L3.45663 12.5457C3.47276 12.7413 3.48913 12.9397 3.50667 13.1382C3.50208 13.1393 3.49878 13.1417 3.49568 13.144ZM7.04361 25.6383L7.04924 25.6366C7.12089 25.7743 7.19211 25.9124 7.26489 26.0535L7.26503 26.0537L7.26517 26.054L7.26542 26.0545L7.26566 26.055L7.26578 26.0552C7.35106 26.2205 7.4385 26.3901 7.53129 26.5679L7.47996 26.5523C7.33975 26.5098 7.21706 26.4726 7.09436 26.4305C7.08206 26.4264 7.06975 26.3956 7.0677 26.3771C7.05334 26.133 7.03898 25.8889 7.02667 25.6448C7.03118 25.6418 7.03789 25.6399 7.04358 25.6383L7.04361 25.6383ZM22.6431 25.6387C22.6492 25.6428 22.6595 25.6448 22.6656 25.6469C22.6533 25.891 22.641 26.1351 22.6267 26.3833C22.6246 26.4038 22.6021 26.4366 22.5836 26.4407C22.5069 26.4659 22.4295 26.4896 22.3473 26.5149L22.347 26.515L22.3469 26.515L22.3463 26.5152L22.3461 26.5152L22.3455 26.5154C22.2876 26.5332 22.2272 26.5517 22.1631 26.572C22.2687 26.3647 22.3694 26.1694 22.4684 25.9777L22.4688 25.9769L22.4709 25.9729L22.4725 25.9698C22.5297 25.8588 22.5864 25.749 22.6431 25.6387ZM3.89086 10.8484L3.89083 10.8484C3.80661 10.9578 3.7206 11.0695 3.6318 11.1853C3.62789 11.0733 3.62316 10.9729 3.61865 10.8772L3.61865 10.8772L3.61864 10.8771L3.61864 10.8771L3.61864 10.877L3.61864 10.8769L3.61863 10.8769C3.61605 10.822 3.61353 10.7687 3.61129 10.7156C3.61129 10.6889 3.6277 10.6438 3.64411 10.6356C3.84103 10.5433 4.0359 10.4551 4.24308 10.3894C4.12753 10.5411 4.01128 10.6921 3.89141 10.8477L3.89098 10.8483L3.89086 10.8484ZM26.061 11.1132L26.0585 11.1853C25.8431 10.9043 25.6462 10.6479 25.4472 10.3894L25.4503 10.3782L25.4533 10.3669C25.4687 10.3741 25.4841 10.3802 25.4995 10.3864L25.4995 10.3864C25.5149 10.3925 25.5303 10.3987 25.5456 10.4059L25.6641 10.4599C25.7825 10.5142 25.901 10.5684 26.0195 10.6192C26.0626 10.6397 26.0831 10.6664 26.079 10.732C26.0702 10.853 26.0659 10.9739 26.061 11.1128V11.1129L26.061 11.113L26.061 11.1132ZM14.3023 2.11384C14.3443 2.1325 14.3879 2.15187 14.4339 2.17201C14.1364 2.32175 13.8677 2.45508 13.5969 2.58637C13.5939 2.58021 13.5903 2.57406 13.5867 2.5679L13.5867 2.56787C13.5831 2.56173 13.5795 2.55558 13.5764 2.54944C13.6452 2.4612 13.7134 2.37244 13.7816 2.28369C13.8498 2.19501 13.918 2.10633 13.9867 2.01816C13.999 2.00175 14.0215 1.99354 14.0339 1.99765C14.1206 2.03319 14.2073 2.07168 14.3022 2.11382L14.3023 2.11384ZM16.1036 2.5679C16.1 2.57457 16.0964 2.58124 16.0933 2.58842C15.979 2.53125 15.865 2.47482 15.7494 2.41757L15.7494 2.41755L15.7494 2.41754L15.7493 2.41752L15.7493 2.41751C15.5912 2.3392 15.4299 2.25936 15.2605 2.17406L15.3048 2.15437C15.4332 2.09723 15.5438 2.04803 15.6544 2.0038C15.6708 1.99559 15.7015 2.00995 15.7159 2.03046C15.8335 2.18064 15.9495 2.3324 16.0667 2.48576L16.0668 2.48585L16.0668 2.48586L16.0668 2.4859L16.1139 2.54739C16.1108 2.55457 16.1072 2.56124 16.1036 2.5679ZM20.6615 27.3433C20.9446 27.2715 21.2277 27.1997 21.5313 27.1218L21.4723 27.2256L21.4721 27.2258L21.472 27.226L21.4719 27.2261C21.4157 27.3253 21.3655 27.4138 21.3118 27.5012C21.2974 27.5238 21.2667 27.5402 21.2462 27.5361C21.0513 27.4828 20.8564 27.4233 20.6615 27.3433ZM8.23067 27.2441L8.16103 27.1218C8.32577 27.164 8.48447 27.2039 8.64008 27.243L8.64037 27.2431L8.64073 27.2432L8.64195 27.2435C8.77246 27.2763 8.90081 27.3086 9.02872 27.3412C9.03078 27.3494 9.03078 27.3556 9.03078 27.3638L8.96193 27.3844L8.96171 27.3845L8.96068 27.3848C8.78547 27.4372 8.61149 27.4893 8.4359 27.5382C8.42154 27.5402 8.39488 27.5279 8.38462 27.5115C8.33405 27.4263 8.2845 27.339 8.23095 27.2446L8.23078 27.2443L8.23067 27.2441ZM21.3767 13.1502L21.3877 13.1894C21.3446 13.2038 21.3118 13.2161 21.2769 13.2305V12.8735C21.2831 12.8735 21.2913 12.8715 21.2974 12.8694C21.3229 12.9586 21.3484 13.0493 21.3767 13.1502ZM8.41539 12.8735V13.2305C8.3903 13.2201 8.36733 13.2119 8.3396 13.202L8.33956 13.202L8.33954 13.202L8.30462 13.1894L8.31777 13.1421L8.31778 13.142L8.31784 13.1418C8.34373 13.0485 8.36855 12.959 8.39488 12.8694L8.40041 12.8706L8.40507 12.8714C8.40873 12.8719 8.41206 12.8724 8.41539 12.8735ZM8.15004 13.7313C8.16833 13.666 8.18699 13.5995 8.20821 13.5279C8.25129 13.5464 8.28206 13.5587 8.32513 13.573C8.29234 13.6203 8.26181 13.6648 8.23227 13.7079C8.19899 13.7565 8.16697 13.8032 8.13436 13.85C8.13129 13.8479 8.12924 13.8459 8.12719 13.8438C8.12513 13.8418 8.12308 13.8397 8.12001 13.8376C8.13015 13.8021 8.14004 13.7669 8.15004 13.7313ZM21.4756 13.7298C21.4416 13.6803 21.4062 13.6288 21.3672 13.573C21.3986 13.5607 21.4219 13.553 21.446 13.5449L21.4462 13.5449C21.4582 13.5409 21.4705 13.5368 21.4841 13.532C21.5003 13.5909 21.5171 13.6491 21.5338 13.7071C21.5468 13.7521 21.5598 13.7969 21.5723 13.8418C21.5703 13.8428 21.5682 13.8448 21.5662 13.8469C21.5641 13.8489 21.5621 13.851 21.56 13.852C21.5319 13.8117 21.5042 13.7715 21.4756 13.7298ZM11.118 22.4858L11.1179 22.4859L11.1146 22.4908L11.1108 22.4961C11.041 22.4387 10.9733 22.3812 10.8954 22.3115L10.9052 22.2947L10.9248 22.2617C10.937 22.2413 10.9494 22.2205 10.9631 22.1966C10.9912 22.2458 11.0183 22.292 11.0447 22.337L11.0447 22.337L11.0447 22.337C11.0722 22.384 11.0989 22.4295 11.1251 22.4756C11.1221 22.4797 11.12 22.4828 11.118 22.4858ZM18.6199 22.3885C18.6544 22.3288 18.69 22.267 18.7292 22.2007L18.7359 22.2095C18.7595 22.2403 18.7794 22.2663 18.8113 22.3094C18.7231 22.3812 18.6533 22.4387 18.5795 22.5002C18.5774 22.4961 18.5754 22.493 18.5733 22.49C18.5713 22.4869 18.5692 22.4838 18.5672 22.4797L18.6199 22.3885ZM10.719 22.0305C10.6431 22.0079 10.5754 21.9874 10.4954 21.9628C10.6287 22.131 10.6636 22.1392 10.719 22.0305ZM19.2051 21.9587C19.1169 21.9853 19.0492 22.0079 18.9795 22.0305C19.0267 22.1453 19.0472 22.1371 19.2051 21.9587ZM15.0776 7.96801C15.049 7.98039 15.0225 7.99189 14.9959 8.0038C14.9836 7.88483 15.0041 7.87662 15.1969 7.9156C15.1515 7.93602 15.1131 7.95268 15.0777 7.968L15.0776 7.96801ZM14.7005 8.00585C14.7026 7.88893 14.6533 7.86842 14.5097 7.9238C14.5795 7.95252 14.6369 7.97714 14.7005 8.00585ZM36.2923 8.60501H38.8913V14.8942H40.8503V8.60501H43.4492V7.36808C43.4492 6.97629 43.1292 6.64603 42.7272 6.64603H36.2923V8.60501ZM52.4708 10.7712C52.4708 13.0501 50.6246 14.8963 48.3456 14.8963C46.0667 14.8963 44.2205 13.0501 44.2205 10.7712C44.2205 8.49219 46.0667 6.64603 48.3456 6.64603C50.6246 6.64603 52.4708 8.49219 52.4708 10.7712ZM50.5015 10.7712C50.5015 9.58552 49.5313 8.61526 48.3456 8.61526C47.1497 8.61526 46.1897 9.58552 46.1897 10.7712C46.1897 11.9671 47.1497 12.9271 48.3456 12.9271C49.5313 12.9271 50.5015 11.9671 50.5015 10.7712ZM55.5231 6.64603H53.7631V14.8942H55.722V9.73937L57.402 11.6983C57.6913 12.0286 58.2061 12.0286 58.4954 11.6983L59.2482 10.8327L60.1754 9.73937V14.8942H62.1343V6.64603H60.3825C60.2984 6.64603 60.2267 6.6768 60.1754 6.73834L57.9477 9.32706L55.72 6.73834C55.6667 6.6768 55.5949 6.64603 55.5231 6.64603ZM67.2851 6.64603H68.5323C68.9344 6.64603 69.2543 6.96603 69.2543 7.36808V9.79065H72.4502V6.64603H73.6974C74.0892 6.64603 74.4195 6.96603 74.4195 7.36808V14.8963H72.4502V11.7517H69.2543V14.8963H67.2851V6.64603ZM79.8307 14.8963C82.1097 14.8963 83.9559 13.0501 83.9559 10.7712C83.9559 8.49219 82.1097 6.64603 79.8307 6.64603C77.5518 6.64603 75.7056 8.49219 75.7056 10.7712C75.7056 13.0501 77.5518 14.8963 79.8307 14.8963ZM79.8307 8.61526C81.0164 8.61526 81.9866 9.58552 81.9866 10.7712C81.9866 11.9671 81.0184 12.9271 79.8307 12.9271C78.6349 12.9271 77.6749 11.9671 77.6749 10.7712C77.6749 9.58552 78.6349 8.61526 79.8307 8.61526ZM85.2441 11.4214C85.2441 11.0296 85.5743 10.6993 85.9661 10.6993H88.3169C88.9159 10.6993 89.3897 10.2152 89.359 9.61625C89.3384 9.0501 88.8543 8.61522 88.2964 8.61522H85.2441V6.65625H88.2861C89.9354 6.65625 91.3384 7.99574 91.3282 9.64702C91.3282 10.8429 90.6267 11.8645 89.6051 12.3383L92.1631 14.8963H89.441L87.2031 12.6583V14.8963H85.2441V11.4214ZM94.7395 6.64603H93.1928V14.8963H95.1518V9.74142L99.5846 14.8963H101.564V7.36808C101.564 6.96603 101.244 6.64603 100.842 6.64603H99.6051V11.9158L95.2851 6.89424C95.1518 6.73834 94.9466 6.64603 94.7395 6.64603ZM37.8903 25.0685L37.8815 25.0657L37.8814 25.0657L37.8814 25.0657C37.8443 25.054 37.8012 25.0404 37.7651 25.0233C37.7466 25.0175 37.7281 25.0098 37.7093 25.002C37.6886 24.9934 37.6677 24.9847 37.6461 24.9782L37.56 24.9331L37.3959 24.8469C37.3832 24.8372 37.3691 24.8293 37.3552 24.8214L37.3551 24.8214C37.3398 24.8128 37.3247 24.8043 37.3118 24.7936C37.2743 24.7705 37.2378 24.7444 37.203 24.7195L37.1823 24.7047L37.16 24.689C37.0554 24.611 36.9631 24.5249 36.8708 24.4388L36.8708 24.4387C36.399 23.9608 36.1036 23.3044 36.1036 22.5823C36.1036 21.8541 36.399 21.1977 36.8708 20.7259C36.9631 20.6336 37.0554 20.5557 37.16 20.4777C37.2051 20.4387 37.2585 20.4059 37.3118 20.3731C37.4226 20.3013 37.5354 20.2418 37.6461 20.1885C37.6667 20.1777 37.6873 20.1691 37.7081 20.1605C37.7268 20.1527 37.7457 20.1448 37.7651 20.1351L37.8903 20.0962C38.1528 20.0039 38.4338 19.9587 38.7292 19.9587C39.0246 19.9587 39.3056 20.0039 39.5682 20.0962L39.6933 20.1351C39.7139 20.146 39.7344 20.1545 39.7553 20.1632C39.774 20.1709 39.7929 20.1788 39.8123 20.1885C39.9313 20.2418 40.042 20.2992 40.1467 20.3731C40.2 20.4059 40.2513 20.4387 40.3046 20.4777C40.4031 20.5557 40.5015 20.6357 40.5877 20.7259L39.7077 21.6059L39.7077 21.6059C39.642 21.5464 39.5764 21.4869 39.5046 21.4418H39.4985C39.4861 21.4295 39.4656 21.4151 39.4451 21.4028L39.4062 21.3823L39.3528 21.3495C39.3138 21.329 39.281 21.3167 39.242 21.3044L39.1887 21.2839C39.1764 21.2777 39.162 21.2716 39.1497 21.2716C39.1466 21.27 39.1438 21.2688 39.1412 21.2679L39.1366 21.2662C39.134 21.2654 39.1317 21.2646 39.1296 21.2636C39.1272 21.2625 39.125 21.2612 39.1231 21.2592C39.1108 21.2592 39.0903 21.2531 39.0779 21.2469C38.9672 21.2203 38.8482 21.208 38.7313 21.208C38.6123 21.208 38.4954 21.2203 38.3908 21.2469L38.3775 21.2512C38.364 21.2556 38.3531 21.2592 38.3374 21.2592L38.3169 21.2716C38.3046 21.2716 38.2841 21.2777 38.2718 21.2839L38.2185 21.3044C38.1795 21.3167 38.1467 21.331 38.1138 21.3495L38.0687 21.37L38.0482 21.3905L38.0092 21.411C37.9969 21.4172 37.9764 21.4316 37.9641 21.4439L37.9046 21.4828C37.9046 21.4828 37.8985 21.4828 37.8985 21.489H37.8923V21.4951C37.8763 21.5025 37.8633 21.5128 37.851 21.5226C37.8428 21.5291 37.8349 21.5353 37.8267 21.5403V21.5464C37.5374 21.7967 37.3549 22.17 37.3549 22.5823C37.3549 22.9967 37.5395 23.3639 37.8267 23.6182C37.8386 23.6254 37.8498 23.6353 37.8623 23.6463C37.8714 23.6543 37.8811 23.6629 37.8923 23.6716L37.9046 23.6839L37.9641 23.7228C38.0092 23.7557 38.0626 23.7823 38.1159 23.809C38.1487 23.8295 38.1815 23.848 38.2205 23.8623C38.2738 23.8828 38.3313 23.9013 38.3908 23.9157C38.4954 23.9423 38.6144 23.9608 38.7313 23.9608C38.8503 23.9608 38.9672 23.9403 39.0779 23.9157C39.1313 23.9033 39.1887 23.8828 39.242 23.8623C39.2723 23.8528 39.2988 23.8383 39.3273 23.8227L39.3528 23.809C39.4062 23.7823 39.4513 23.7557 39.4964 23.7228H39.5026L39.6072 23.6449L39.7056 23.5526V22.5885H40.4933C40.7497 22.5885 40.9528 22.7916 40.9528 23.0418V23.5403C40.9528 23.8746 40.8277 24.1967 40.5918 24.4326L40.5856 24.4387C40.4995 24.5249 40.401 24.609 40.3026 24.689L40.1446 24.7936L40.0667 24.8387C40.0133 24.8716 39.9559 24.9044 39.8964 24.931C39.8765 24.9463 39.8533 24.9571 39.8325 24.9666L39.8208 24.9721L39.8123 24.9762L39.7077 25.0151V25.0213H39.6954C39.6564 25.0418 39.6174 25.0541 39.5703 25.0664C39.3077 25.1587 39.0267 25.2039 38.7313 25.2039C38.4338 25.2059 38.1528 25.1587 37.8903 25.0685ZM43.5969 20.246L43.5908 20.2522L41.2831 25.204H42.5815L43.0861 24.1209H44.9569L45.4615 25.204H46.7477L46.76 25.1978L44.4379 20.2317C44.3641 20.0737 44.2082 19.9629 44.0174 19.9629C43.8267 19.9629 43.6626 20.0819 43.5969 20.246ZM44.0236 22.1168L44.4051 22.9496H43.6359L44.0236 22.1168ZM47.4185 19.9567H48.5385C48.5836 19.9567 48.6308 19.9772 48.6636 20.0162L50.081 21.6634L51.4985 20.0162C51.5313 19.9772 51.5764 19.9567 51.6297 19.9567H52.7456V25.206H51.4985V21.926L50.9077 22.6213L50.4297 23.1731C50.2451 23.3824 49.9169 23.3824 49.7344 23.1731L48.6656 21.926V25.206H47.4185V19.9567ZM54.5221 19.9567H53.7282V25.206H54.9815V20.4162C54.9815 20.1598 54.7703 19.9567 54.5221 19.9567ZM55.9661 19.9567H56.9487C57.08 19.9567 57.2113 20.0162 57.2974 20.1147L60.0461 23.3106V19.9588H60.8338C61.0902 19.9588 61.2933 20.1619 61.2933 20.4183V25.208H60.0338L57.2133 21.928V25.208H55.9661V19.9567ZM63.7713 25.0233C63.8123 25.0418 63.8574 25.0562 63.8964 25.0685C64.159 25.1587 64.4421 25.2059 64.7354 25.2039C65.0308 25.2039 65.3118 25.1587 65.5744 25.0664C65.6215 25.0541 65.6605 25.0418 65.6995 25.0213H65.7118V25.0151L65.8164 24.9762C65.8217 24.9737 65.8273 24.9713 65.833 24.9688C65.8559 24.9586 65.8812 24.9475 65.9026 24.931C65.9621 24.9044 66.0195 24.8716 66.0728 24.8387L66.1508 24.7936L66.3087 24.689C66.4072 24.609 66.5056 24.5249 66.5898 24.4387L66.5959 24.4326C66.8318 24.1967 66.9569 23.8746 66.9569 23.5403V23.0418C66.9569 22.7916 66.7538 22.5885 66.4974 22.5885H65.7097V23.5526L65.6113 23.6449L65.5067 23.7228H65.5005C65.4554 23.7557 65.4103 23.7823 65.3569 23.809C65.3482 23.8136 65.3397 23.8182 65.3314 23.8227C65.3029 23.8383 65.2764 23.8528 65.2462 23.8623C65.1928 23.8828 65.1354 23.9033 65.0821 23.9157C64.9692 23.9403 64.8503 23.9608 64.7333 23.9608C64.6164 23.9608 64.4974 23.9423 64.3928 23.9157C64.3333 23.9013 64.2759 23.8828 64.2226 23.8623C64.1836 23.848 64.1508 23.8295 64.118 23.809C64.0646 23.7823 64.0113 23.7557 63.9662 23.7228L63.9067 23.6839L63.8944 23.6716C63.8832 23.6629 63.8734 23.6543 63.8644 23.6463C63.8518 23.6353 63.8406 23.6254 63.8287 23.6182C63.5415 23.3639 63.3569 22.9967 63.3569 22.5823C63.3569 22.17 63.5395 21.7967 63.8287 21.5464V21.5403C63.8369 21.5353 63.8448 21.5291 63.8531 21.5226C63.8653 21.5128 63.8784 21.5025 63.8944 21.4951V21.489H63.9005C63.9005 21.4828 63.9067 21.4828 63.9067 21.4828L63.9662 21.4439C63.9785 21.4316 63.999 21.4172 64.0113 21.411L64.0503 21.3905L64.0708 21.37L64.1159 21.3495C64.1487 21.331 64.1815 21.3167 64.2205 21.3044L64.2738 21.2839C64.2862 21.2777 64.3067 21.2716 64.319 21.2716L64.3395 21.2592C64.3552 21.2592 64.3661 21.2556 64.3795 21.2512C64.3837 21.2498 64.388 21.2484 64.3928 21.2469C64.4974 21.2203 64.6144 21.208 64.7333 21.208C64.8523 21.208 64.9713 21.2203 65.0821 21.2469C65.0944 21.2531 65.1149 21.2592 65.1272 21.2592C65.1308 21.2629 65.1352 21.2644 65.1407 21.2662C65.1445 21.2675 65.1488 21.269 65.1539 21.2716C65.1662 21.2716 65.1805 21.2777 65.1928 21.2839L65.2462 21.3044C65.2851 21.3167 65.318 21.329 65.3569 21.3495L65.4103 21.3823L65.4492 21.4028C65.4697 21.4151 65.4903 21.4295 65.5026 21.4418H65.5087C65.5805 21.4869 65.6461 21.5464 65.7117 21.6058L65.7118 21.6059L66.5918 20.7259C66.5077 20.6357 66.4092 20.5557 66.3108 20.4777C66.2574 20.4387 66.2062 20.4059 66.1528 20.3731C66.0482 20.2992 65.9374 20.2418 65.8185 20.1885C65.7991 20.1788 65.7802 20.1709 65.7615 20.1632C65.7406 20.1545 65.72 20.146 65.6995 20.1351L65.5744 20.0962C65.3118 20.0039 65.0308 19.9587 64.7354 19.9587C64.44 19.9587 64.159 20.0039 63.8964 20.0962L63.7713 20.1351C63.7519 20.1448 63.733 20.1527 63.7143 20.1605C63.6934 20.1691 63.6729 20.1777 63.6523 20.1885C63.5415 20.2418 63.4287 20.3013 63.318 20.3731C63.2646 20.4059 63.2113 20.4387 63.1662 20.4777C63.0615 20.5557 62.9692 20.6336 62.8769 20.7259C62.4051 21.1977 62.1097 21.8541 62.1097 22.5823C62.1097 23.3044 62.4051 23.9608 62.8769 24.4387L62.8769 24.4388C62.9692 24.5249 63.0616 24.611 63.1662 24.689C63.1802 24.6987 63.1945 24.709 63.2092 24.7195C63.244 24.7444 63.2804 24.7705 63.318 24.7936C63.3313 24.8039 63.3462 24.8121 63.361 24.8203C63.3759 24.8285 63.3908 24.8367 63.4041 24.8469L63.5682 24.9331L63.6523 24.9782C63.6738 24.9847 63.6948 24.9934 63.7155 25.002C63.7342 25.0098 63.7528 25.0175 63.7713 25.0233Z" fill="white"/>
</svg>
