<svg xmlns="http://www.w3.org/2000/svg" width="80" height="28" fill="none"><path fill="#fff" fill-rule="evenodd" d="M3.968 13.418c-.28-.188-.56-.376-.824-.583-2.05-1.608-2.048-1.612-.995-4.018C5.909.224 17.424-1.536 23.563 5.52a13.538 13.538 0 0 1 2.644 4.784c.188.602.141 1.06-.376 1.495a25.039 25.039 0 0 1-2.226 1.717c-.521.355-.779.295-.83-.377a6.746 6.746 0 0 0-.605-2.444l-.002-.013c-.045-.278-.089-.556-.365-.717l-.35-.59c.021-.307-.17-.496-.36-.685l-.046-.045a8.102 8.102 0 0 0-3.6-2.888c-2.62-1.062-5.198-1.108-7.697.376-1.736.79-3.022 2.023-3.761 3.799-.664.992-.858 2.134-.995 3.279-.075.632-.31.698-.777.376a41.753 41.753 0 0 0-.25-.169Zm36.65-5.307v6.582c0 .602-.003 1.204-.006 1.806v.005c-.008 1.524-.016 3.048.018 4.57.02.77-.239.94-.965.94-2.234-.028-4.463-.025-6.69-.021h-.004l-2.144.002c-1.726-.004-2.963-1.04-3.008-2.78-.085-3.253-.06-6.512-.02-9.767a2.09 2.09 0 0 1 2.124-2.087c1.988-.022 3.975-.021 5.962-.02 1.363 0 2.726 0 4.089-.006.588-.004.645.312.645.776Zm-3.687 4.608c.42-.007.838-.014 1.256.016.642.045.852-.193.762-.791a1.873 1.873 0 0 1-.003-.367c.021-.402.043-.795-.723-.762-.938.04-1.876.03-2.815.021-.407-.004-.815-.008-1.222-.008h-4.038c-.04 0-.081-.002-.123-.004-.202-.01-.412-.022-.54.215a1.129 1.129 0 0 0 .953 1.693c.18 0 .36.003.54.007.449.008.896.016 1.34-.019.681-.052.862.235.845.875-.013.61-.008 1.222-.003 1.833.007.86.015 1.72-.027 2.578-.038.779.365.753.788.725.084-.005.168-.011.25-.01.074 0 .15.005.225.01.431.028.85.055.813-.732a47.566 47.566 0 0 1-.028-2.639c.005-.625.01-1.25-.002-1.874-.015-.568.178-.794.752-.77.333.014.667.008 1 .003Zm5.277-5.384c3.727.021 7.453.021 11.179 0 .607-.004.818.18.81.805-.02 4.352-.02 8.705 0 13.057.004.61-.18.814-.803.814-3.725-.03-7.451-.03-11.177 0-.707.006-.818-.291-.818-.9.02-1.582.016-3.17.014-4.756v-.011l-.003-1.715.003-1.788V12.831c.004-1.56.008-3.123-.014-4.684-.01-.624.196-.812.809-.812Zm10.029 6.114a23.28 23.28 0 0 1 .008-1.566c.042-.825-.246-1.22-1.128-1.184-.81.031-1.62.024-2.432.017-.348-.003-.696-.006-1.043-.006-.36 0-.722.005-1.082.009h-.001c-.832.01-1.662.02-2.49-.024-.73-.039-.712.345-.693.76a4.116 4.116 0 0 1 .002.398c-.017.422-.033.81.706.784a77.05 77.05 0 0 1 3.46-.021h.001c.506.004 1.012.008 1.519.008.066 0 .137-.003.21-.007.41-.02.864-.041.89.55.008.664-.464.632-.888.604-.083-.005-.165-.01-.24-.01-.206.001-.412.004-.617.006h-.001c-1.39.016-2.785.033-4.174-.018-.737-.032-.904.227-.867.908a27.703 27.703 0 0 1 0 3.009c-.037.697.111.978.903.959.758-.019 1.096-.179.98-.984-.03-.204-.021-.414-.012-.624.009-.2.018-.4-.007-.594-.098-.779.257-.96.97-.94 1.135.029 2.272.023 3.41.018.46-.003.92-.005 1.381-.005 1.055 0 1.243-.175 1.243-1.264 0-.26-.004-.522-.008-.783Zm-25.755-.768c-.22-.085-.35.061-.476.202-.022.025-.044.05-.066.072a14.413 14.413 0 0 1-2.696 2.166l-.03.019c-.253.163-.512.329-.566.664-.189 1.09-.664 2.055-1.234 2.986l-.105.18c-.301.523-.603 1.046-1.181 1.334-1.102 1.373-2.61 2.068-4.269 2.435-2.444.534-4.754.188-6.835-1.279C7.994 20.847 7.098 20.1 6.55 19c-.474-.533-.69-1.202-.903-1.857-.183-.566-.362-1.12-.7-1.568-.396-.523-.972-.908-1.559-1.3-.498-.332-1.004-.67-1.413-1.102-.049-.048-.094-.11-.14-.172-.133-.178-.272-.365-.509-.288-.31.095-.284.363-.259.613.007.072.014.142.013.207-.09 4.281 1.536 7.779 4.821 10.53 3.74 3.123 9.414 3.697 13.855 1.386 4.513-2.353 7.355-7.334 6.939-12.187-.004-.046-.004-.092-.005-.139-.001-.182-.003-.363-.21-.442Zm41.388-.728c-.026-2.674-1.88-4.566-4.543-4.6-1.326-.016-2.652-.014-3.978-.013-1.119.001-2.237.002-3.356-.007-.636 0-.88.163-.876.842.026 4.321.026 8.643 0 12.964 0 .752.288.878.94.869 2.285-.032 4.571-.038 6.858 0 1.203.018 2.29-.249 3.264-.956l.741-.767c.715-.972.976-2.068.952-3.26-.014-.908-.01-1.816-.004-2.724v-.002c.005-.782.01-1.564.002-2.346Zm-1.529 5.656c-.075.615-.59.997-1.296.99-.772-.01-1.544-.007-2.316-.004-.386.002-.773.003-1.159.003h-3.384c-.982 0-1.574-.583-1.586-1.562a218.467 218.467 0 0 1 0-4.79c.01-.94.583-1.52 1.524-1.525 1.203-.008 2.407-.007 3.61-.007 1.053 0 2.106.001 3.16-.004a1.483 1.483 0 0 1 1.221.564 1.114 1.114 0 0 1 .275 1.05c-.11.356-.405.326-.677.298a1.99 1.99 0 0 0-.21-.015l-1.156.001c-1.65.002-3.298.004-4.947-.03-.564-.014-.799.14-.778.725.03.874.032 1.753 0 2.633-.02.554.23.695.733.688.94-.013 1.88-.008 2.82-.004.47.002.938.004 1.406.004h.043c.338 0 .698.002.709-.472.011-.495-.305-.656-.732-.662l-.584-.008c-.682-.01-1.365-.021-2.048.008-.665.034-.656-.355-.645-.783l.002-.067c0-.063 0-.125-.002-.186-.008-.38-.014-.702.61-.702 1.44.034 2.88.021 4.326 0 .564 0 .87.232 1.006.77.252 1.034.201 2.074.075 3.087ZM10.731 6.203c1.467-.5 2.964-.743 4.513-.469 3.082.546 5.132 2.377 6.398 5.15.9 2.285.767 4.536-.215 6.76l-.376.753-1.346 1.693c-.144.103-.285.21-.426.316-.307.232-.613.463-.941.658-3.323 1.965-6.542 1.671-9.664-.48l-1.88-1.843a1.493 1.493 0 0 0-.09-.451c-1.42-2.501-1.477-5.085-.48-7.734C7.12 8.98 8.13 7.498 9.78 6.579c.297.042.522-.104.746-.25.068-.044.136-.088.205-.126Zm-.915 12.862c-.11-.4-.209-.76-.279-1.125-.397-2.057.587-3.417 2.668-3.729a5.728 5.728 0 0 1 1.495.055c.178.018.355.045.532.072.532.08 1.064.161 1.608 0l.064-.02c.5-.147 1.005-.295 1.15-.876.13-.568-.224-.97-.621-1.28-.956-.745-1.954-1.418-3.191-1.655-1.586-.318-3.17-.293-4.77-.177-.445.032-.648.252-.836.615-1.504 2.935-.519 6.768 2.35 8.753-.058-.225-.115-.434-.17-.633Zm3.82 1.89c2.98.156 5.771-1.75 6.808-4.64h-.002c1.011-2.83.002-6.171-2.392-7.9-2.595-1.865-5.86-1.865-8.293.016a1.051 1.051 0 0 0-.726.641h.008c.444-.013.805-.024 1.12-.242 1.853-.217 3.684-.198 5.47.432 2.316.816 4.029 2.902 4.029 4.929.002 1.353-.589 2.092-1.892 2.42a4.655 4.655 0 0 1-2.138-.044c-.219-.046-.437-.1-.655-.153-.452-.11-.903-.221-1.363-.27-1.536-.158-2.56.775-2.706 2.445-.146 1.67.248 2.11 2.078 2.307.218.025.436.047.655.058ZM76.335 6.4a.59.59 0 0 1-.565-.197.6.6 0 0 0-.72.216l-1.348 4.287-.188.564a.712.712 0 0 1-.188.565l-.203.74c-.056.48-.226.938-.497 1.337-.004.26-.07.51-.137.762-.097.363-.193.728-.103 1.119a.272.272 0 0 1 .028.15c.666.43 1.202.23 1.66-.344-.037-.22-.05-.434.153-.592a3.16 3.16 0 0 1 .428-1.277l2.044-6.35.017-.052c.132-.417.256-.807-.381-.928Zm.629-4.497c.392.03.768.176 1.078.418.675.5 1.023 1.189.863 2.03a2.082 2.082 0 0 1-1.525 1.733c-.273.058-.55.092-.83.102a.824.824 0 0 0-.582-.177l-.376-.188c-1.262-1.33-1.17-2.956.242-3.667.344-.193.737-.28 1.13-.25ZM32.24 4.332c.518.449.85.917.513 1.583-.047.588.209.775.658.476.528-.352 1.004-.442 1.529-.04.188.137.397.231.605.077.209-.154.168-.404.089-.603-.235-.598.011-1 .45-1.39.437-.39.375-.765-.244-.797-.618-.032-.955-.301-1.184-.854-.188-.468-.532-.703-.824-.066-.276.606-.675.91-1.36.94-.462.012-.63.33-.233.674Zm27.788 1.675c.324-.716.076-1.213-.472-1.657-.385-.317-.29-.673.192-.693.717-.034 1.13-.316 1.41-.975.23-.54.602-.393.78.057.234.594.588.884 1.25.899.502.011.709.334.268.72-.487.429-.718.846-.517 1.532.172.578-.188.773-.68.454-.542-.35-1.008-.32-1.531.04-.444.308-.677.11-.7-.377ZM45.895 4.4c.444.403.797.816.476 1.414-.066.638.171.877.679.503.564-.409 1.006-.292 1.53.033.484.3.766.066.613-.45-.188-.627-.065-1.075.44-1.483.506-.408.337-.737-.244-.752-.622-.024-.965-.282-1.183-.848-.203-.526-.564-.643-.816-.049a1.317 1.317 0 0 1-1.262.907c-.53.03-.658.338-.233.725Zm28.98 9.489c.036-.152.072-.304.268-.324.272-.023.288.179.303.36.003.037.006.073.011.107.583 2.386-.765 5.52-2.871 6.711-.5.508-1.141.752-1.798.94-1.105.318-2.072-.325-2.087-1.474-.03-2.74-.017-5.482-.005-8.223l.005-1.134c.002-.397.064-.81.417-1.093.651-.855 1.379-1.096 2.319-.763.705.247 1.283.697 1.862 1.147l.018.015-.01.893a.773.773 0 0 0-.178.587.177.177 0 0 1-.178 0c-.193.137-.127.274-.061.41.025.052.05.103.06.154-.323.527-.637 1.057-.51 1.717-.315.382-.625.763-.593 1.303-.028.444.07.809.536.974.043.339.291.367.553.376a.512.512 0 0 0 .588-.022l.35-.017.42-.546.174-.376.346-1.534a.803.803 0 0 0 .061-.188Z" clip-rule="evenodd"/></svg>