<svg xmlns="http://www.w3.org/2000/svg" width="78" height="32" fill="none"><g clip-path="url(#a)"><path fill="#fff" fill-rule="evenodd" d="M38.913.001h-8.767c0 .355.063.671.19.948.332.72.877 1.176 1.636 1.367.216.054.486.08.81.077a162.187 162.187 0 0 1 2.643 0 .015.015 0 0 1 .008.01l-.001.008-1.188 3.09a.016.016 0 0 0 .002.015.016.016 0 0 0 .013.007h2.508c.017 0 .029-.008.034-.023L38.913 0Zm-3.648 8.998c3.328.008 5.26 3.761 3.274 6.457-1.593 2.162-4.844 2.19-6.469.05-.674-.888-.938-1.905-.793-3.05.003-.021-.006-.032-.027-.032h-2.328c-.028 0-.043.014-.045.042-.104 1.316.15 2.537.76 3.662a6.44 6.44 0 0 0 6.547 3.293 6.425 6.425 0 0 0 5.356-4.823c.947-3.75-1.65-7.475-5.478-7.94-.51-.061-1.06-.056-1.606-.051-.213.002-.425.004-.635.002a.031.031 0 0 0-.029.02l-.902 2.345a.018.018 0 0 0 .005.02.016.016 0 0 0 .007.004h.005c.813-.001 1.6 0 2.358.001Zm3.612 23.002h-.266c-1.29-.075-2.317-.604-3.083-1.584-1.034-1.324-1.112-3.2-.204-4.635 1.345-2.122 4.25-2.505 6.13-.837a.011.011 0 0 1 .002.004v.004a.01.01 0 0 1-.003.009l-.317.29c-.007.005-.013.005-.02 0-.971-.88-2.359-1.113-3.56-.698a3.492 3.492 0 0 0-1.837 1.436c-1.375 2.114-.216 4.928 2.254 5.48 1.123.25 2.27-.066 3.146-.814a.014.014 0 0 1 .015-.003l.003.003.315.28c.007.007.007.014 0 .02-.732.643-1.59.991-2.575 1.045Zm-12.181-4.588v-2.385a.017.017 0 0 1 .017-.017h3.207a.017.017 0 0 0 .017-.017v-.991c0-.003 0-.006-.002-.009l-.001-.002-.002-.001a.018.018 0 0 0-.005-.004h-.004l-.003-.001h-4.233a.017.017 0 0 0-.017.017v7.883l.001.007a.016.016 0 0 0 .008.008l.002.001.003.001h.003l4.233.001h.003l.004-.001.002-.001.001-.001.002-.002a.018.018 0 0 0 .005-.012v-.996a.017.017 0 0 0-.017-.017h-3.207a.017.017 0 0 1-.012-.006.017.017 0 0 1-.005-.012v-2.389a.017.017 0 0 1 .017-.017H29.922a.02.02 0 0 0 .003 0 .016.016 0 0 0 .007-.005.017.017 0 0 0 .005-.012v-.986a.017.017 0 0 0-.017-.017h-3.207a.017.017 0 0 1-.017-.017Zm42.664-3.425.472-.003h.003l.003.002h.002a.016.016 0 0 1 .006.007v.002a.019.019 0 0 1 .001.009.017.017 0 0 1-.001.005l-2.714 4.69a.017.017 0 0 0-.002.008v3.181a.016.016 0 0 1-.016.015h-.41a.016.016 0 0 1-.016-.016V28.71c0-.002 0-.005-.002-.008l-2.702-4.692-.001-.001v-.002l-.001-.002v-.003c0-.003 0-.006.002-.008 0-.002.002-.003.003-.004l.003-.002h.001l.002-.001h.002l.003-.001.47.001c.003 0 .006 0 .008.002a.015.015 0 0 1 .006.006l2.412 4.191.003.004.002.002h.001a.015.015 0 0 0 .008.003h.004l.002-.001.003-.002a.016.016 0 0 0 .005-.006l2.424-4.19.002-.004.004-.002a.016.016 0 0 1 .008-.003Zm-63.942 0H.724v1.022h1.83a.018.018 0 0 1 .018.018v6.857a.02.02 0 0 0 .02.021h.98c.02 0 .03-.01.03-.03v-6.838c0-.017.01-.026.027-.026h1.79c.017 0 .026-.01.026-.027v-.97c0-.018-.009-.027-.027-.027Zm2.045 5.416v2.474c0 .02-.01.03-.029.03h-.96a.031.031 0 0 1-.032-.032v-7.86c0-.02.01-.03.031-.03.596.004 1.253.003 1.97-.001.216-.002.414.02.592.064 1.816.454 2.664 2.6 1.586 4.152-.29.416-.658.749-1.108 1-.017.008-.02.02-.01.037l1.72 2.65.002.002v.011a.013.013 0 0 1-.012.006h-1.19a.048.048 0 0 1-.04-.022l-1.568-2.492a.045.045 0 0 0-.04-.023h-.879c-.022 0-.033.012-.033.034Zm-.003-4.372.006 3.296a.02.02 0 0 0 .02.02l.902-.002c.445-.001.872-.177 1.186-.489.314-.312.49-.734.49-1.175v-.013a1.644 1.644 0 0 0-.494-1.174 1.68 1.68 0 0 0-1.188-.484l-.903.001a.02.02 0 0 0-.019.02Zm4.88-1.026v7.882a.018.018 0 0 0 .018.019h.983a.018.018 0 0 0 .019-.02v-7.88a.018.018 0 0 0-.018-.018l-.984-.002a.018.018 0 0 0-.018.019ZM16 29.368c-.003 0-.006 0-.01.002a.026.026 0 0 0-.016.024v2.488c0 .017-.008.025-.025.025h-.98a.016.016 0 0 1-.01-.005.017.017 0 0 1-.006-.012l-.001-7.889a.016.016 0 0 1 .015-.015c.6.005 1.221.004 1.867-.003.27-.002.499.018.687.063a2.717 2.717 0 0 1 2.084 2.563c.038 1.542-1.187 2.75-2.713 2.761-.304.002-.6.002-.892-.002Zm-.026-4.33v3.28a.027.027 0 0 0 .027.027h.898c.445 0 .872-.175 1.187-.486.315-.312.492-.734.492-1.175v-.012c0-.44-.177-.863-.492-1.174a1.688 1.688 0 0 0-1.187-.487H16a.027.027 0 0 0-.027.027Zm8.504 6.852v-.995a.016.016 0 0 0-.017-.017h-2.8a.016.016 0 0 1-.016-.016v-6.857a.017.017 0 0 0-.017-.016l-.986-.002-.006.001a.017.017 0 0 0-.011.016v7.886c0 .004.001.008.005.011a.017.017 0 0 0 .011.005h3.82a.016.016 0 0 0 .017-.017Zm18.686-3.974h3.289a.015.015 0 0 0 .01-.004.013.013 0 0 0 .004-.005l.001-.006v-3.898a.015.015 0 0 1 .016-.015h.41c.004 0 .008.001.011.004a.016.016 0 0 1 .005.011v7.893l-.002.002-.001.003h-.001a.014.014 0 0 1-.005.004.015.015 0 0 1-.006.001h-.411a.016.016 0 0 1-.016-.015V28.368l-.001-.002a.015.015 0 0 0-.014-.008h-3.289a.016.016 0 0 0-.01.004c-.002 0-.002.002-.003.003l-.001.002a.017.017 0 0 0-.001.006v3.518a.016.016 0 0 1-.005.011.014.014 0 0 1-.005.003.014.014 0 0 1-.006.002h-.412l-.005-.002a.015.015 0 0 1-.009-.007.016.016 0 0 1-.001-.008v-7.886a.016.016 0 0 1 .015-.016h.412c.004 0 .008.001.011.004a.016.016 0 0 1 .005.011v3.898a.015.015 0 0 0 .015.015Zm9.175 3.547h-3.481c-.002 0-.005 0-.007-.002a.02.02 0 0 1-.003-.001l-.002-.002a.02.02 0 0 1-.004-.006.017.017 0 0 1 0-.006v-3.264a.016.016 0 0 1 .016-.017h3.481l.006-.001a.016.016 0 0 0 .006-.004.017.017 0 0 0 .005-.012v-.409a.017.017 0 0 0-.004-.01l-.001-.001a.016.016 0 0 0-.006-.004l-.003-.001h-3.484a.017.017 0 0 1-.012-.005.017.017 0 0 1-.005-.012v-3.26c0-.004.002-.009.005-.012a.017.017 0 0 1 .012-.005h3.481a.017.017 0 0 0 .012-.005.017.017 0 0 0 .005-.011v-.409a.016.016 0 0 0-.005-.012.018.018 0 0 0-.004-.002l-.002-.001a.015.015 0 0 0-.006-.002h-3.923l-.005.001-.003.001a.016.016 0 0 0-.009.015v7.886l.001.005a.016.016 0 0 0 .016.011h3.923a.017.017 0 0 0 .012-.005.017.017 0 0 0 .005-.011v-.414a.017.017 0 0 0-.004-.007v-.002l-.003-.001-.003-.002h-.003l-.004-.001Zm3.812-2.377a.014.014 0 0 0-.005.003.013.013 0 0 0-.004.005.012.012 0 0 0 .002.012l1.823 2.795v.004l-.002.002h-.526a.025.025 0 0 1-.022-.012l-1.757-2.723a.039.039 0 0 0-.033-.017h-1.444a.02.02 0 0 0-.019.02v2.722l-.001.002-.001.002-.002.002a.013.013 0 0 1-.009.004h-.418c-.008 0-.012-.004-.012-.012V23.995a.015.015 0 0 1 .015-.01c.58.006 1.17.005 1.77-.001.227-.003.425.018.596.062 1.851.479 2.645 2.696 1.389 4.193a2.577 2.577 0 0 1-1.34.847Zm-1.984-4.625-.007 4.223a.027.027 0 0 0 .027.027l1.24.002a2.173 2.173 0 0 0 1.529-.622c.405-.399.633-.941.635-1.507v-.011a2.12 2.12 0 0 0-.63-1.51 2.172 2.172 0 0 0-1.526-.627l-1.24-.003h-.005l-.004.002h-.003a.028.028 0 0 0-.014.013.028.028 0 0 0-.002.013Zm5.39 7.433v-2.723a.016.016 0 0 1 .016-.016h1.444c.016 0 .028.006.037.02l1.757 2.723c.004.006.01.01.017.01h.52a.008.008 0 0 0 .008-.005.009.009 0 0 0 0-.009l-1.803-2.777c-.011-.017-.007-.03.014-.035 1.14-.338 1.906-1.303 1.915-2.498.01-1.378-1.144-2.611-2.547-2.6-.622.006-1.221.006-1.796.002-.02 0-.03.01-.03.03v7.88l.001.004a.01.01 0 0 0 .003.004l.002.001.001.001.005.001h.424a.013.013 0 0 0 .013-.013Zm-.003-3.209.007-4.226a.026.026 0 0 1 .026-.026l1.238.003a2.188 2.188 0 0 1 1.528.627 2.13 2.13 0 0 1 .63 1.51v.011a2.119 2.119 0 0 1-.636 1.507c-.406.4-.956.623-1.529.622l-1.238-.002a.026.026 0 0 1-.019-.007.026.026 0 0 1-.007-.019Zm10.711 2.55c.404.37 1.006.479 1.521.337.24-.066.438-.222.477-.48.056-.365-.217-.571-.53-.656a113 113 0 0 0-.79-.21c-.257-.068-.574-.238-.665-.516-.164-.505.123-.943.618-1.074.476-.125 1.043-.066 1.465.21.02.012.025.03.015.05l-.056.124c-.014.03-.034.037-.063.02-.46-.264-.916-.318-1.366-.163-.42.145-.592.711-.178.982.125.081.265.141.42.178.277.067.533.136.77.206.348.106.603.353.615.711.018.53-.406.817-.879.877-.52.066-1.096-.036-1.482-.402-.01-.009-.01-.019-.004-.03l.086-.16c.007-.013.015-.014.026-.004Zm6.172.602-.003-.19a.015.015 0 0 0-.015-.016h-1.85a.015.015 0 0 1-.012-.007l-.002-.002v-3.029a.016.016 0 0 0-.016-.015h-.204a.016.016 0 0 0-.011.005.016.016 0 0 0-.005.01v3.244a.016.016 0 0 0 .016.015h2.086a.015.015 0 0 0 .016-.015Zm-3.16.011a.202.202 0 1 0 0-.404.202.202 0 0 0 0 .404Zm3.988-.202a.202.202 0 1 1-.404 0 .202.202 0 0 1 .404 0Z" clip-rule="evenodd"/></g><defs><clipPath id="a"><path fill="#fff" d="M.724.001h76.551v32H.725z"/></clipPath></defs></svg>