<svg xmlns="http://www.w3.org/2000/svg" width="90" height="26" fill="none"><g clip-path="url(#a)"><path fill="#fff" fill-rule="evenodd" d="M.29 12.758C.29 5.711 6 .001 13.047.001c7.046 0 12.757 5.71 12.757 12.757s-5.71 12.757-12.757 12.757S.29 19.805.29 12.758Zm18.613 9.404 3.62-3.62c.51-.511.51-1.313 0-1.823l-4.082-4.083 4.082-4.082c.51-.51.51-1.312 0-1.822l-3.62-3.62a1.276 1.276 0 0 0-1.823 0l-4.082 4.082L8.916 3.11a1.276 1.276 0 0 0-1.823 0l-3.62 3.62c-.51.511-.51 1.313 0 1.823l4.082 4.082-4.082 4.083c-.51.51-.51 1.312 0 1.822l3.62 3.62c.51.511 1.313.511 1.823 0l4.082-4.082 4.082 4.083c.51.51 1.313.51 1.823 0ZM77.56 6.076A6.077 6.077 0 0 1 83.635 0a6.077 6.077 0 0 1 6.075 6.075 6.077 6.077 0 0 1-6.075 6.074 6.077 6.077 0 0 1-6.074-6.074Zm8.869 1.75a.381.381 0 0 0 0-.535L85.24 6.1l1.19-1.19a.381.381 0 0 0 0-.535l-1.07-1.07a.381.381 0 0 0-.534 0l-1.19 1.191-1.191-1.19a.381.381 0 0 0-.535 0l-1.069 1.069a.381.381 0 0 0 0 .534l1.19 1.191-1.19 1.19a.381.381 0 0 0 0 .535l1.07 1.07a.381.381 0 0 0 .534 0l1.19-1.191 1.191 1.19a.381.381 0 0 0 .535 0l1.069-1.069Zm-40.847 7.24h3.402c.146 0 .292.098.34.243l3.79 10.133c.098.243-.096.486-.34.486h-3.158a.365.365 0 0 1-.34-.243l-.316-.875a.365.365 0 0 0-.34-.243h-2.673a.365.365 0 0 0-.34.243l-.316.875a.365.365 0 0 1-.34.243h-3.135c-.243 0-.438-.243-.34-.486l3.766-10.157a.381.381 0 0 1 .34-.219Zm2.43 7.023a.357.357 0 0 0 .34-.462l-1.045-3.232h-.072l-1.021 3.232a.35.35 0 0 0 .34.462h1.458Zm9.21-7.023H54.72c-.22 0-.365.146-.365.365v10.133c0 .194.17.364.365.364h2.916c.194 0 .364-.17.364-.364v-2.139l-.024-2.235.048-.024 1.604 2.21c.073.098.17.146.292.146h1.7a.346.346 0 0 0 .292-.145l1.604-2.187h.049l-.025 2.235v2.139c0 .194.17.364.365.364h2.94c.194 0 .364-.17.364-.364V15.43a.374.374 0 0 0-.364-.365h-2.479a.346.346 0 0 0-.291.146l-2.989 4.034a.364.364 0 0 1-.583 0l-2.989-4.034a.346.346 0 0 0-.292-.146Zm28.915 4.301h-3.474s-.754.049-.754-.607.754-.656.754-.656h6.682c.194 0 .364-.17.364-.365v-2.333a.374.374 0 0 0-.364-.364h-6.901c-1.774 0-3.596 0-3.596 3.596 0 3.007 1.492 2.989 3.136 2.968.136-.002.274-.003.411-.003h3.475s.778 0 .778.607c0 .608-.754.632-.754.632H71.486v-.875c0-.194.17-.364.364-.364h3.5c.194 0 .364-.17.364-.365v-1.555a.374.374 0 0 0-.364-.364h-3.864v-.85c0-.195.17-.365.364-.365h5.298c.194 0 .364-.17.364-.365v-2.333a.374.374 0 0 0-.364-.364h-8.335a.374.374 0 0 0-.364.364V25.54c0 .195.17.365.364.365h17.301c1.847 0 3.572 0 3.572-3.597.022-2.984-1.55-2.964-3.15-2.943l-.398.003ZM59.385 8.481l2.041 3.402c.097.17.243.243.413.243h3.062c.389 0 .632-.413.437-.729l-2.065-3.596c-.024-.024 0-.073.024-.097 1.312-.753 1.968-2.163 1.968-3.572 0-2.041-1.409-4.107-4.203-4.107h-6.95a.487.487 0 0 0-.486.486v11.105c0 .267.219.486.486.486h2.795a.487.487 0 0 0 .486-.486V8.724c0-.267.218-.486.486-.486h1.093c.17 0 .316.098.413.243Zm-1.944-3.037a.052.052 0 0 1-.049-.048v-2.09c0-.268.22-.486.486-.486h2.309c.923 0 1.385.656 1.385 1.312s-.462 1.312-1.385 1.312H57.44Zm18.273.462c-.014-.014-.02-.02-.022-.027-.002-.006-.002-.012-.002-.022 0-.024 0-.024.024-.049.583-.607.923-1.579.923-2.551 0-2.26-1.458-3.256-2.915-3.256h-6.683a.602.602 0 0 0-.607.607v10.935c0 .34.267.607.607.607h6.683c2.21 0 3.207-1.798 3.207-3.45 0-1.142-.462-2.163-1.215-2.794Zm-3.305-.802h-2.624V3.136c0-.195.17-.365.365-.365h2.26c.85 0 1.239.583 1.239 1.166 0 .584-.39 1.167-1.24 1.167Zm-2.26 2.138h2.26c.85 0 1.24.583 1.24 1.166 0 .56-.39 1.167-1.24 1.167h-2.624V7.607c0-.195.17-.365.365-.365ZM36.495 19.416h3.937c.316 0 .559.243.583.607 0 0 .024 3.961 0 4.01-.17.437-2.454 1.92-3.937 1.92H35.84a118.614 118.614 0 0 1-2.454-.025c-2.794-.219-4.398-2.187-4.398-5.37v-.024c0-2.892 2.138-5.176 5.103-5.395.097-.024 4.568-.024 6.22-.024.243 0 .462.194.462.462v1.968a.461.461 0 0 1-.462.462c-1.628-.025-5.929 0-6.196.072-1.118.316-1.847 1.288-1.847 2.455v.024c0 1.36.826 2.406 1.944 2.479.535.024 1.118.048 2.26.048h.073c.535 0 .948-.097 1.312-.291a.184.184 0 0 0 .049-.098v-.704a.105.105 0 0 0-.098-.098h-1.312a.55.55 0 0 1-.558-.558v-1.361a.55.55 0 0 1 .558-.559ZM38.925.001h-9.258a.487.487 0 0 0-.486.486v2.77c0 .267.219.486.486.486h2.26c.267 0 .486.219.486.486v7.436c0 .267.219.486.486.486h2.77a.487.487 0 0 0 .486-.486V4.253c0-.267.219-.486.486-.486h2.26a.487.487 0 0 0 .486-.486V.487a.453.453 0 0 0-.462-.486Zm9.647.51c0-.267.219-.486.486-.486h2.819c.267 0 .486.22.486.486v7.922c0 1.263-.316 2.211-.924 2.819-.607.583-1.603.899-2.916.899h-4.058c-1.312 0-2.308-.292-2.916-.9-.607-.583-.923-1.53-.923-2.818V.51c0-.267.219-.486.486-.486h2.867c.268 0 .486.22.486.486v7.436c0 .51.195.705.73.705h2.648c.535 0 .729-.195.729-.705V.51Z" clip-rule="evenodd"/></g><defs><clipPath id="a"><path fill="#fff" d="M.29.001h89.42v26H.29z"/></clipPath></defs></svg>