<svg width="16" height="16" viewBox="0 0 16 16" fill="none" xmlns="http://www.w3.org/2000/svg">
<path d="M6.95433 1.14771C7.51543 0.531856 8.48457 0.531856 9.04567 1.14771C9.41789 1.55625 9.99395 1.7106 10.5206 1.5429C11.3144 1.29011 12.1537 1.77468 12.3317 2.58858C12.4498 3.12849 12.8715 3.55019 13.4114 3.66827C14.2253 3.84628 14.7099 4.68558 14.4571 5.47943C14.2894 6.00605 14.4438 6.58211 14.8523 6.95433C15.4681 7.51543 15.4681 8.48457 14.8523 9.04567C14.4438 9.41789 14.2894 9.99395 14.4571 10.5206C14.7099 11.3144 14.2253 12.1537 13.4114 12.3317C12.8715 12.4498 12.4498 12.8715 12.3317 13.4114C12.1537 14.2253 11.3144 14.7099 10.5206 14.4571C9.99395 14.2894 9.41789 14.4438 9.04567 14.8523C8.48457 15.4681 7.51543 15.4681 6.95433 14.8523C6.58211 14.4438 6.00605 14.2894 5.47943 14.4571C4.68558 14.7099 3.84628 14.2253 3.66827 13.4114C3.55019 12.8715 3.12849 12.4498 2.58858 12.3317C1.77468 12.1537 1.29011 11.3144 1.5429 10.5206C1.7106 9.99395 1.55625 9.41789 1.14771 9.04567C0.531856 8.48457 0.531856 7.51543 1.14771 6.95433C1.55625 6.58211 1.7106 6.00605 1.5429 5.47943C1.29011 4.68558 1.77468 3.84628 2.58858 3.66827C3.12849 3.55019 3.55019 3.12849 3.66827 2.58858C3.84628 1.77468 4.68558 1.29011 5.47943 1.5429C6.00605 1.7106 6.58211 1.55625 6.95433 1.14771Z" fill="#FF4842"/>
<path d="M6 6L10 10M6 10L10 6" stroke="white" stroke-width="1.5" stroke-linecap="round"/>
</svg>
