<svg width="58" height="16" fill="none" xmlns="http://www.w3.org/2000/svg"><g clip-path="url(#a)"><path d="M3.66 10.799a2.527 2.527 0 0 1-1.664.647c-1.03.079-1.927-.7-1.993-1.73v-.171c-.04-.7.37-1.347 1.03-1.598a4.726 4.726 0 0 1 1.544-.37l1.03-.079v-.224c0-.66-.436-.95-1.175-.95a3.527 3.527 0 0 0-1.545.435l-.515-.95c.7-.383 1.479-.581 2.27-.594 1.598 0 2.35.726 2.35 2.125v2.429c-.039.515.014 1.043.146 1.545H3.884l-.225-.515Zm-.964-2.205a1.61 1.61 0 0 0-.885.225.8.8 0 0 0-.37.66c0 .435.357.805.793.805h.079a1.976 1.976 0 0 0 1.175-.436V8.594h-.792Zm3.155-.158c0-1.901 1.4-3.155 3.22-3.155a3.32 3.32 0 0 1 .806.066V2.495h1.466v8.581c-.7.304-1.44.449-2.205.436-1.822-.066-3.287-1.083-3.287-3.076Zm4.04 1.69V6.6a1.942 1.942 0 0 0-.727-.066A1.787 1.787 0 0 0 7.33 8.277v.172a1.691 1.691 0 0 0 1.545 1.835c.092.013.198.013.29 0 .212-.08.502-.08.726-.159Zm1.98-4.687h1.544l1.466 4.04 1.465-4.027h1.465l-2.416 5.94H14.3L11.87 5.44ZM18.022 8.436a3.083 3.083 0 0 1 3.01-3.155h.12a3.93 3.93 0 0 1 1.596.37v1.24a2.422 2.422 0 0 0-1.465-.436c-1.096 0-1.756.806-1.756 1.901 0 1.241.66 1.901 1.69 1.901.489 0 .964-.118 1.4-.37l.435 1.03c-.62.383-1.333.581-2.06.581-1.623.027-2.956-1.28-2.983-2.904.013-.04.013-.092.013-.158Zm8.95 2.363a2.492 2.492 0 0 1-1.689.66c-1.03.079-1.927-.7-1.993-1.73v-.171c-.04-.7.37-1.347 1.03-1.598a4.725 4.725 0 0 1 1.544-.37l1.03-.065V7.3c0-.66-.436-.95-1.175-.95a3.527 3.527 0 0 0-1.545.435l-.488-.976c.7-.383 1.491-.581 2.284-.594 1.597 0 2.35.726 2.35 2.125v2.429c-.04.515.013 1.043.145 1.544h-1.268l-.224-.514Zm-.95-2.205a1.61 1.61 0 0 0-.884.224.76.76 0 0 0-.37.647c0 .436.357.806.792.806h.08a1.976 1.976 0 0 0 1.174-.436v-1.24c.014-.014-.792 0-.792 0Zm3.446 1.162c.475.317 1.03.501 1.597.515.581 0 1.03-.146 1.03-.66 0-1.03-2.799-.66-2.799-2.561 0-1.03.885-1.756 2.27-1.756a6.112 6.112 0 0 1 1.757.29v1.241a4.37 4.37 0 0 0-1.69-.37c-.515 0-.805.146-.805.515 0 .95 2.798.581 2.798 2.64 0 1.32-1.095 1.835-2.415 1.835a4.352 4.352 0 0 1-2.205-.594c.013 0 .462-1.095.462-1.095Zm4.99-7.261h1.465V6.1a3.265 3.265 0 0 1 1.994-.805c.95 0 1.9.435 1.9 2.125V11.3h-1.465V7.842c0-.726-.145-1.32-.884-1.32a2.329 2.329 0 0 0-1.479.673V11.3h-1.465V2.508l-.066-.013ZM49.349 16c4.41 0 8-3.578 8-8 0-4.422-3.577-8-8-8-4.422 0-8 3.578-8 8 0 4.422 3.578 8 8 8Z" fill="#333D48"/><path d="m45.085 12.25 4.106-9.016.29 3.155-2.72 5.796-1.676.066Z" fill="#161C24"/><path d="M45.389 8.436h7.775L52.28 9.53h-6.165c0 .014-.726-1.095-.726-1.095Zm-1.32-1.98h10.27l-.884 1.095h-8.647c-.013.013-.74-1.095-.74-1.095Z" fill="#212B36"/><path d="m53.296 12.25-4.105-9.016-.29 3.155 2.706 5.796 1.69.066Z" fill="#161C24"/></g><defs><clipPath id="a"><path fill="#fff" d="M0 0h57.6v16H0z"/></clipPath></defs></svg>