<svg width="50" height="16" fill="none" xmlns="http://www.w3.org/2000/svg"><g clip-path="url(#a)"><path d="M21.423 15.77h-4.005L19.923.28h4.005l-2.505 15.49ZM35.94.66A9.87 9.87 0 0 0 32.35 0c-3.955 0-6.74 2.109-6.757 5.124-.033 2.225 1.994 3.46 3.51 4.202 1.55.758 2.076 1.253 2.076 1.928-.016 1.038-1.252 1.516-2.405 1.516-1.6 0-2.456-.246-3.758-.824l-.527-.247-.56 3.477c.939.428 2.67.807 4.466.824 4.202 0 6.938-2.076 6.97-5.29.016-1.763-1.054-3.114-3.361-4.218-1.401-.708-2.259-1.186-2.259-1.911.017-.66.726-1.335 2.307-1.335a6.804 6.804 0 0 1 2.983.593l.362.165.545-3.345ZM41.264 10.282c.33-.89 1.598-4.333 1.598-4.333-.016.033.33-.907.527-1.483l.28 1.334s.759 3.708.923 4.482h-3.328ZM46.207.281h-3.098c-.955 0-1.68.28-2.093 1.285l-5.948 14.203h4.202l.84-2.323h5.142c.115.543.478 2.323.478 2.323h3.708L46.207.281ZM14.073.28l-3.922 10.562L9.723 8.7c-.725-2.471-3-5.157-5.537-6.492l3.592 13.545h4.235L18.308.28h-4.235Z" fill="#333D48"/><path d="M6.51.28H.065L0 .595C5.026 1.879 8.355 4.977 9.723 8.7L8.322 1.583C8.092.593 7.382.313 6.509.28Z" fill="#212B36"/></g><defs><clipPath id="a"><path fill="#fff" d="M0 0h50v16H0z"/></clipPath></defs></svg>