<svg width="57" height="16" viewBox="0 0 57 16" fill="none" xmlns="http://www.w3.org/2000/svg">
<g clip-path="url(#clip0_355_851)">
<path fill-rule="evenodd" clip-rule="evenodd" d="M5.3681 0.482602C5.87125 0.479592 7.3666 0.344912 8 2.48264C8.42667 3.92264 9.10633 6.28143 10.039 9.559H10.4188C11.419 6.10356 12.106 3.74477 12.48 2.48264C13.12 0.322644 14.72 0.482644 15.36 0.482644L20.2978 0.482651V15.8426H15.2651V6.79073H14.9276L12.1221 15.8426H8.33565L5.53017 6.78402H5.1927V15.8426H0.160004V0.482651L5.3681 0.482602ZM27.5246 0.482651V9.54127H27.9261L31.3387 2.09243C32.0011 0.610091 33.413 0.482651 33.413 0.482651H38.2832V15.8426H33.1454V6.78402H32.7439L29.3982 14.2329C28.7357 15.7085 27.2569 15.8426 27.2569 15.8426H22.3868V0.482651H27.5246ZM56.0417 7.78182C55.325 9.81269 53.0744 11.2671 50.5826 11.2671H45.1947V15.8426H40.3089V7.78182H56.0417Z" fill="#333D48"/>
<path fill-rule="evenodd" clip-rule="evenodd" d="M50.8183 0.482422H40.0527C40.3089 3.90208 43.2538 6.82952 46.3024 6.82952H56.3812C56.9628 3.98739 54.9606 0.482422 50.8183 0.482422Z" fill="#333D48"/>
</g>
<defs>
<clipPath id="clip0_355_851">
<rect width="56.8" height="16" fill="white"/>
</clipPath>
</defs>
</svg>
