<svg width="98" height="20" viewBox="0 0 98 20" fill="none" xmlns="http://www.w3.org/2000/svg">
<g clip-path="url(#clip0_355_863)">
<path fill-rule="evenodd" clip-rule="evenodd" d="M93.9452 0.0966797C98.3323 0.0966797 98.3323 6.66119 93.9452 6.66119C89.5742 6.67732 89.5742 0.0966797 93.9452 0.0966797ZM25.4129 0.983776C25.8484 0.983776 26.2355 1.06442 26.5419 1.24184C26.8323 1.41926 26.9936 1.6612 27.0097 1.95152C26.9936 2.11281 26.9129 2.25797 26.8161 2.37087C26.7032 2.46765 26.5419 2.53216 26.3807 2.51603C26.3161 2.51603 26.2516 2.4999 26.1871 2.46764C26.1065 2.43539 26.0419 2.40313 25.9936 2.33861C25.8323 2.14507 25.671 1.9999 25.4452 1.83861C25.2194 1.69345 24.9613 1.61281 24.7032 1.62894C24.4613 1.62894 24.2516 1.70958 24.0419 1.87087C23.8484 2.01603 23.671 2.24184 23.5581 2.51603C23.3807 3.09668 23.2677 3.70958 23.2355 4.32248C23.2032 4.64506 23.2032 4.96765 23.2032 5.22571V5.70958C23.2032 5.90313 23.2032 6.03216 23.2355 6.09668C23.2677 6.16119 23.3484 6.19345 23.4936 6.1612H25.3323C25.3968 6.22571 25.4129 6.29023 25.4129 6.40313L25.3807 6.62894L25.3645 6.69345C25.3161 6.75797 25.2677 6.80635 25.1871 6.83861H23.4774C23.3323 6.82248 23.2516 6.87087 23.2194 6.93539C23.1871 6.98378 23.1871 7.11281 23.1871 7.30635V10.7418C23.1871 11.1128 23.1871 11.4031 23.2194 11.5967C23.2516 11.7902 23.3 11.9354 23.3807 12.016C23.4613 12.0805 23.6226 12.1289 23.8161 12.1451L24.3807 12.1935C24.4452 12.2418 24.4774 12.2902 24.4452 12.4031C24.429 12.4838 24.3968 12.5644 24.3645 12.5967L23.429 12.5322H21.7677L21.0419 12.5967C20.9774 12.5483 20.9613 12.4838 20.929 12.4031C20.929 12.2902 20.9613 12.2257 21.0258 12.1935L21.3968 12.1451C21.5903 12.1289 21.7194 12.0805 21.8161 11.9838C21.9129 11.9193 21.9452 11.7902 21.9774 11.5805C22.0258 11.387 22.0258 11.0967 21.9936 10.7257V7.29023C22.0097 7.09668 22.0097 6.96765 21.9774 6.93539C21.9452 6.87087 21.8323 6.82248 21.6871 6.83861H21.1065C21.0581 6.79023 21.0419 6.75797 21.0419 6.70958C21.0258 6.64507 21.0419 6.58055 21.0581 6.53216L21.7516 6.19345C21.8161 6.17732 21.8645 6.12894 21.9129 6.08055C21.9613 6.01604 21.9774 5.95152 21.9774 5.87087C21.9774 4.887 22.1548 3.91926 22.4936 3.01604C22.6387 2.70958 22.8323 2.40313 23.0581 2.08055C23.3161 1.75797 23.6548 1.49991 24.0097 1.30636C24.4613 1.11281 24.929 0.983776 25.4129 0.983776ZM37.6548 6.69345C37.671 6.75797 37.7032 6.80636 37.7355 6.85474H38.171C38.3323 6.83861 38.429 6.887 38.4774 6.95152C38.5097 6.99991 38.5258 7.12894 38.5258 7.32248V11.016C38.5097 11.3386 38.5419 11.6451 38.6387 11.887C38.7516 12.1451 38.8968 12.3709 39.1387 12.516C39.8 12.8547 40.5903 12.8386 41.2516 12.4999C41.5419 12.3386 41.7516 12.1935 41.8807 11.9999C41.8968 11.9515 41.8968 11.9193 41.8484 11.8386C41.8323 11.7741 41.7839 11.7418 41.7194 11.7418C41.7032 11.7418 41.6387 11.7902 41.5419 11.8386C41.4613 11.887 41.3807 11.9354 41.3 11.9515C41.2678 11.9676 41.2355 11.9838 41.2194 11.9999C41.1871 12.016 41.1549 12.0322 41.1387 12.0483C41.0419 12.0644 40.9613 12.0644 40.9129 12.0644C40.5742 12.0483 40.3 11.9676 40.1387 11.7902C39.9452 11.6128 39.8323 11.387 39.8 11.1289C39.7355 10.8709 39.7194 10.5806 39.7194 10.258V7.25797C39.7194 7.11281 39.7516 6.9999 39.7839 6.93539C39.8 6.87087 39.8807 6.85474 40.0419 6.87087H41.8161C41.8968 6.80636 41.9452 6.69345 41.9452 6.54829C41.9774 6.40313 41.929 6.2741 41.8161 6.20958H40.0419C39.9129 6.20958 39.8323 6.19345 39.8 6.1612C39.7839 6.14507 39.7516 6.06442 39.7516 5.90313V5.16119C39.7194 5.09668 39.6548 5.06442 39.5742 5.08055C39.4936 5.04829 39.429 5.04829 39.3968 5.08055C39.3 5.25797 39.1871 5.41926 39.0742 5.59668C38.9774 5.75797 38.8645 5.887 38.7194 6.01603C38.6387 6.09668 38.5097 6.19345 38.3 6.2741C38.1226 6.387 37.929 6.45152 37.6871 6.51603C37.671 6.56442 37.6548 6.62894 37.6548 6.69345ZM30.8323 7.83861C30.8323 7.96765 30.8323 8.06442 30.8161 8.12894L30.7839 8.19345L30.7677 8.2741C30.7516 8.30635 30.6871 8.33861 30.5258 8.35474C30.3645 8.37087 30.1226 8.37087 29.8 8.37087H26.8161C26.6226 8.33861 26.5097 8.37087 26.4613 8.41926C26.3968 8.48378 26.3807 8.61281 26.3968 8.80636C26.3968 9.35474 26.5097 9.83861 26.7032 10.3064C27.1065 11.258 28.0581 11.8547 29.0742 11.8064C29.3323 11.8386 29.5742 11.758 29.7839 11.6612C30.0419 11.5483 30.2839 11.3547 30.5258 11.0322C30.6387 10.9999 30.7032 11.0322 30.7516 11.0483C30.8 11.0967 30.8161 11.1612 30.8484 11.2257C30.6387 11.5644 30.429 11.8547 30.1387 12.0967C29.2032 12.7902 27.9613 12.9193 26.9129 12.4354C26.5419 12.258 26.2032 11.9999 25.9613 11.6773C25.5097 11.0805 25.2839 10.3386 25.3 9.58055C25.3 8.90313 25.429 8.30636 25.6871 7.75797C26.2032 6.6612 27.3 5.96764 28.5097 5.93539C28.9936 5.95152 29.4129 6.03216 29.7516 6.20958C30.0742 6.40313 30.3484 6.64507 30.5419 6.93539C30.7516 7.22571 30.8323 7.53216 30.8323 7.83861ZM29.6065 7.43539C29.6065 7.29023 29.5581 7.12894 29.4936 6.96765C29.4129 6.80636 29.2677 6.67732 29.0903 6.61281C28.8645 6.48378 28.6065 6.43539 28.3645 6.43539C28.0419 6.43539 27.7194 6.51603 27.4774 6.67732C27.2032 6.83861 26.9774 7.01603 26.8 7.24184C26.6548 7.43539 26.5581 7.62894 26.5419 7.82248C26.5419 7.85474 26.5419 7.85474 26.5581 7.87087C26.5903 7.90313 26.6065 7.90313 26.671 7.90313H27.8C28.3968 7.90313 28.8161 7.87087 29.0742 7.85474C29.3161 7.82249 29.4452 7.80636 29.4936 7.7741C29.5258 7.74184 29.5581 7.70958 29.5581 7.66119C29.5903 7.58055 29.6065 7.51603 29.6065 7.43539ZM35.9613 5.99991C34.9613 5.82249 33.9452 5.98378 33.0419 6.48378C32.5097 6.80636 32.0581 7.2741 31.7516 7.82248C31.2839 8.7741 31.2194 9.887 31.5903 10.887C31.7677 11.3064 31.9936 11.6451 32.2677 11.9031C32.5581 12.1935 32.8968 12.387 33.2677 12.4999C33.9774 12.7741 34.7516 12.8064 35.4774 12.5644C35.8 12.4676 36.1387 12.258 36.4613 12.016C36.7677 11.7741 37.0097 11.4515 37.1871 11.0644C37.171 10.9999 37.1387 10.9354 37.0903 10.9031C37.0419 10.8386 36.9774 10.8064 36.8968 10.8386C36.7194 11.1128 36.4936 11.3386 36.2194 11.5322C35.9452 11.7096 35.5903 11.7902 35.1226 11.7902C34.1226 11.8225 33.2032 11.2418 32.8 10.3225C32.6065 9.91926 32.4936 9.49991 32.4936 9.04829C32.5258 8.46765 32.6226 7.98378 32.8161 7.59668C33.0258 7.22571 33.3161 6.93539 33.6548 6.74184C33.9774 6.54829 34.3484 6.45152 34.7194 6.45152C35.0419 6.45152 35.3807 6.53216 35.671 6.70958C35.9452 6.87087 36.1548 7.04829 36.3484 7.2741C36.3968 7.32249 36.429 7.35474 36.4774 7.37087H36.5903C36.6871 7.37087 36.7677 7.30636 36.8323 7.19345C36.8968 7.08055 36.9452 6.93539 36.9452 6.7741C36.9452 6.64507 36.929 6.51604 36.8807 6.40313C36.8323 6.30636 36.7839 6.20958 36.6871 6.14507C36.4613 6.12894 36.2194 6.08055 35.9613 5.99991ZM86.4936 6.09668C86.4291 6.11281 86.3968 6.19345 86.3807 6.2741C86.3807 6.387 86.3968 6.45152 86.4452 6.48378L86.9452 6.56442C87.0903 6.59668 87.1871 6.62894 87.2516 6.67732C87.3161 6.72571 87.3484 6.75797 87.3484 6.83861C87.3484 6.93539 87.3 7.12894 87.1871 7.40313L87.171 7.45152L86.7678 8.46765L86.2194 9.75797L86.1871 9.83861L85.8323 10.5967C85.7194 10.8386 85.6549 10.9354 85.6226 10.9354C85.4774 10.6289 85.3323 10.3225 85.2194 9.9999L85.1549 9.80635L84.6549 8.32249L84.6387 8.2741C84.5742 8.12893 84.5258 7.98378 84.4936 7.83861L84.3968 7.54829L84.3 7.24184C84.2516 7.09668 84.2194 6.95152 84.2194 6.80636C84.2194 6.75797 84.2355 6.70958 84.2839 6.67732H84.3L84.3323 6.66119C84.3807 6.64506 84.4613 6.61281 84.5581 6.59668L84.9613 6.51603C85.0258 6.46765 85.042 6.41926 85.0258 6.30636C85.0258 6.22571 84.9774 6.14507 84.9291 6.12894C84.8162 6.14507 84.6871 6.14507 84.5742 6.14507L84.2032 6.17732H82.7516C82.6226 6.16119 82.4936 6.1612 82.3645 6.14507L81.9936 6.12894C81.9291 6.14507 81.8807 6.22571 81.8807 6.30636C81.8645 6.41926 81.8807 6.48377 81.929 6.51603L82.3484 6.59668C82.6387 6.66119 82.8323 6.79023 82.9452 6.9999C83.0581 7.19345 83.1871 7.48378 83.2839 7.85474L84.5742 11.3225C84.671 11.6128 84.7516 11.8225 84.7839 11.9838V11.9999C84.8 12.1451 84.8323 12.2902 84.8323 12.4354C84.8323 12.5483 84.8 12.6773 84.7678 12.8064C84.7516 12.9031 84.7194 12.9999 84.6871 13.0967V13.1128L84.671 13.1289C84.6065 13.3225 84.4774 13.5805 84.3323 13.8709C84.171 14.1935 83.9774 14.5483 83.7355 14.9193C83.671 14.9999 83.6065 15.0644 83.5258 15.1289C83.4291 15.1773 83.3161 15.1935 83.2032 15.1935H82.8968C82.7194 15.1935 82.5742 15.258 82.4452 15.3709C82.3323 15.4999 82.2678 15.6773 82.2516 15.8547C82.2516 16.0483 82.3161 16.2257 82.4452 16.3547C82.5742 16.4676 82.7516 16.5322 82.9613 16.5322C83.171 16.5644 83.3484 16.516 83.5097 16.4031C83.7033 16.3064 83.8484 16.0805 84.0097 15.7741L84.2678 15.2096L84.6871 14.3064L84.9774 13.6612L85.4291 12.7096C85.6549 12.1773 85.8807 11.6935 86.1065 11.2418L86.1226 11.1935C86.3484 10.758 86.5258 10.387 86.6387 10.0967L87.542 8.25797C87.8323 7.69345 88.042 7.2741 88.2355 7.01603C88.4452 6.75797 88.671 6.59668 88.9129 6.53216L89.2032 6.48378C89.2678 6.41926 89.2839 6.35474 89.2839 6.2741C89.2516 6.19345 89.2194 6.11281 89.1549 6.09668L88.8484 6.11281L88.542 6.14507H87.2355L86.8484 6.11281L86.4936 6.09668ZM17.8323 5.74184C17.8645 5.7741 17.8645 5.80636 17.8806 5.83862V6.75797C17.8806 6.82248 17.9129 6.887 17.929 6.91926C18.2194 6.67732 18.5258 6.43539 18.8323 6.24184C19.1065 6.04829 19.4129 5.95152 19.7194 5.93539C19.9129 5.96764 20.0903 6.01603 20.2194 6.12894C20.3807 6.24184 20.429 6.387 20.429 6.61281C20.4129 6.83861 20.3161 7.04829 20.1871 7.17732C20.0581 7.2741 19.8968 7.32248 19.7355 7.33861C19.6387 7.33861 19.5742 7.33861 19.5258 7.30635C19.5097 7.30635 19.4936 7.29023 19.4774 7.2741C19.4452 7.25797 19.4129 7.22571 19.3807 7.20958C19.2677 7.12894 19.1387 7.06442 19.0097 7.01603C18.8968 6.96765 18.7839 6.95152 18.671 6.95152C18.5581 6.93539 18.4452 6.96765 18.3484 7.04829C18.2516 7.09668 18.171 7.19345 18.1065 7.29023C18.0419 7.40313 17.9613 7.54829 17.929 7.79023C17.9129 7.9999 17.8806 8.24184 17.8806 8.53216V10.7257C17.8806 11.0967 17.8806 11.387 17.9129 11.5805C17.929 11.7741 17.9936 11.9193 18.1065 11.9999C18.171 12.0644 18.3161 12.1128 18.5097 12.1289L19.1065 12.1773C19.171 12.2257 19.1871 12.2741 19.171 12.387C19.171 12.4676 19.1387 12.5483 19.0903 12.5805L18.1387 12.516H16.4936L15.8 12.5805C15.7516 12.5322 15.7355 12.4676 15.7194 12.387C15.6871 12.2741 15.7194 12.2096 15.7839 12.1773L16.1065 12.1289C16.2839 12.1128 16.4129 12.0483 16.4936 11.9676C16.5742 11.9031 16.6548 11.7741 16.671 11.5644C16.7032 11.3709 16.7032 11.0805 16.671 10.7096V7.90313C16.7032 7.69345 16.7032 7.56442 16.671 7.45152C16.671 7.33862 16.6387 7.22571 16.5742 7.14506C16.4936 7.04829 16.3807 6.98378 16.2677 6.93539L16.1065 6.80636C16.0903 6.7741 16.0581 6.74184 16.0581 6.67732C16.0581 6.61281 16.0742 6.53216 16.1387 6.51603L16.1871 6.4999C16.3807 6.43539 16.5742 6.33862 16.7516 6.24184L17.2194 6.01603L17.2355 5.99991C17.4452 5.90313 17.6226 5.82248 17.7355 5.72571C17.7839 5.72571 17.8161 5.72571 17.8323 5.74184ZM15.2839 8.12894C15.3 8.06442 15.3 7.95152 15.3 7.83861C15.3 7.51603 15.2032 7.20958 15.0097 6.91926C14.8 6.62894 14.5419 6.387 14.2355 6.19345C13.8968 6.01603 13.4774 5.93539 13.0097 5.91926C12.4129 5.93539 11.8161 6.11281 11.3 6.43539C10.8161 6.75797 10.4452 7.19345 10.171 7.72571C9.73549 8.64506 9.65484 9.67732 9.92904 10.6451C10.1387 11.4193 10.6548 12.0644 11.3806 12.4031C11.8 12.5967 12.2677 12.6773 12.8 12.7096C13.4613 12.6935 14.1065 12.4676 14.6387 12.0805C14.929 11.8386 15.1387 11.5644 15.3323 11.2096C15.3161 11.1451 15.3 11.0644 15.2516 11.0322C15.1871 10.9999 15.1065 10.9999 15.0419 11.016C14.7032 11.4999 14.1548 11.7902 13.5581 11.7902C12.5419 11.8386 11.5903 11.2418 11.2032 10.2902C10.9936 9.82248 10.8968 9.30636 10.8968 8.79023C10.8806 8.59668 10.8968 8.46765 10.9613 8.40313C11.0097 8.35474 11.1226 8.33861 11.3 8.35474H14.2839C14.6065 8.35474 14.8484 8.35474 15.0097 8.32249C15.171 8.30636 15.2194 8.2741 15.2516 8.24184L15.2677 8.1612C15.2677 8.19345 15.2677 8.16119 15.2839 8.12894ZM13.9613 6.98377C14.0419 7.14506 14.0742 7.29023 14.0419 7.45152C14.0419 7.56442 14.0419 7.62894 14.0258 7.66119C14.0097 7.72571 13.9774 7.74184 13.9613 7.7741C13.9129 7.82249 13.7677 7.83862 13.5258 7.85474C13.2839 7.87087 12.8645 7.90313 12.2839 7.90313H11.1387C11.0742 7.90313 11.0581 7.90313 11.0419 7.87087C11.0097 7.85474 11.0097 7.85474 11.0097 7.82248C11.0419 7.62894 11.1226 7.43539 11.2677 7.24184C11.4452 7.01603 11.6548 6.82248 11.9452 6.67732C12.2032 6.51603 12.5097 6.43539 12.8161 6.43539C13.1548 6.43539 13.3807 6.4999 13.5742 6.61281C13.7677 6.70958 13.9129 6.83861 13.9613 6.98377ZM70.2678 5.74184C70.2194 5.70958 70.171 5.70958 70.1549 5.70958C70.0097 5.82248 69.8484 5.91926 69.7032 5.99991L69.4452 6.12894C69.1549 6.2741 68.8484 6.41926 68.5581 6.51603C68.5097 6.53216 68.4936 6.59668 68.4936 6.67732C68.4936 6.74184 68.5097 6.7741 68.542 6.80636L68.6871 6.887L68.7839 6.95152C68.8645 7.03216 68.9613 7.09668 68.9936 7.14506C69.0581 7.22571 69.0742 7.2741 69.0742 7.35474L69.0903 7.37087C69.1065 7.45152 69.1065 7.62894 69.1065 7.80635V10.7418C69.1226 11.1128 69.1065 11.4031 69.0742 11.5967C69.0581 11.7902 69.0097 11.9193 68.9291 11.9999C68.8484 12.0805 68.7194 12.1289 68.5097 12.1612L68.171 12.2096C68.1226 12.258 68.1065 12.3064 68.1226 12.4193C68.1226 12.4999 68.1387 12.5806 68.2032 12.6128L68.9129 12.5483H70.5097L71.1549 12.6128C71.2194 12.5644 71.2516 12.4999 71.2516 12.4193C71.2516 12.3064 71.2355 12.2418 71.1871 12.2096L70.8968 12.1612C70.7032 12.1451 70.5581 12.0805 70.4613 11.9999C70.3645 11.887 70.3161 11.7418 70.3 11.5967C70.2839 11.4031 70.2839 11.1128 70.2839 10.7418V8.2741C70.2839 7.90313 70.2839 7.59668 70.4936 7.29023C70.5903 7.12894 70.8 6.98378 71.0581 6.87087C71.3 6.75797 71.5581 6.72571 71.8807 6.72571C72.4129 6.74184 72.7839 6.90313 73.0258 7.17732C73.2678 7.4999 73.3968 7.91926 73.3645 8.32249V10.7418C73.3645 11.1128 73.3645 11.4031 73.3323 11.5967C73.3323 11.7418 73.2678 11.887 73.1871 11.9999C73.0581 12.0805 72.9129 12.1289 72.7516 12.1612L72.4452 12.2096C72.3968 12.258 72.3807 12.3064 72.3807 12.4193C72.3968 12.4999 72.4291 12.5806 72.4774 12.6128L73.171 12.5483H74.7516L75.2032 12.5967L75.4936 12.6289C75.542 12.5805 75.5742 12.516 75.6065 12.4354C75.6065 12.3225 75.5742 12.258 75.5258 12.2257L75.1871 12.1773C75.0258 12.1773 74.8807 12.1128 74.7516 12.016C74.6549 11.9031 74.6065 11.758 74.5903 11.6128C74.5742 11.4193 74.5742 11.1289 74.5742 10.758V7.96765C74.5742 7.59668 74.5097 7.2741 74.3807 6.98377C74.2516 6.67732 74.042 6.41926 73.7839 6.24184C73.4936 6.06442 73.1549 5.98377 72.7032 5.95152C72.2839 5.98377 71.8968 6.06442 71.5258 6.20958C71.1549 6.37087 70.7839 6.56442 70.429 6.7741C70.3807 6.7741 70.3484 6.75797 70.3323 6.72571C70.3 6.69345 70.3 6.6612 70.2839 6.62894V6.30636C70.2839 6.19345 70.2839 6.04829 70.3 5.87087C70.3161 5.82248 70.3 5.7741 70.2678 5.74184ZM67.8807 9.25797C67.8807 9.887 67.7355 10.516 67.4452 11.0644C67.171 11.5806 66.7355 11.9999 66.2355 12.2902C65.6871 12.5806 65.0742 12.7257 64.4452 12.7257C63.8645 12.7257 63.2839 12.5805 62.7678 12.3225C62.2839 12.0644 61.8968 11.6773 61.6065 11.1935C61.2839 10.6612 61.1226 10.0483 61.1549 9.41926C61.1549 8.72571 61.3 8.12894 61.6065 7.61281C61.8968 7.09668 62.3323 6.67733 62.8484 6.40313C63.3484 6.11281 63.9452 5.96765 64.5903 5.95152C65.1549 5.96765 65.7194 6.09668 66.2355 6.35474C66.7355 6.64506 67.1226 7.03216 67.4129 7.53216C67.7032 8.03216 67.8645 8.61281 67.8807 9.25797ZM66.3 8.11281C66.1549 7.62893 65.9291 7.24184 65.6226 6.93539C65.3323 6.61281 64.9291 6.43539 64.4291 6.43539C63.8807 6.43539 63.429 6.67732 63.0903 7.17732C62.7516 7.62894 62.5742 8.32249 62.542 9.20958C62.542 9.70958 62.6226 10.1935 62.7839 10.6773C62.929 11.1451 63.1549 11.4999 63.4774 11.8064C63.7678 12.0967 64.1549 12.2418 64.6387 12.2418C65.1065 12.2418 65.4613 12.1128 65.7516 11.8225C66.2678 11.1612 66.5258 10.3547 66.4936 9.51603C66.5097 9.04829 66.4452 8.56442 66.3 8.11281ZM77.042 8.43539C77.1065 8.387 77.2194 8.37087 77.4291 8.387H80.4613C80.7839 8.387 81.0258 8.387 81.171 8.35474C81.4774 8.30635 81.4774 8.12894 81.4774 7.83861C81.4774 7.51603 81.3645 7.20958 81.171 6.91926C80.9936 6.64506 80.7355 6.40313 80.3968 6.19345C80.042 6.01603 79.6226 5.93539 79.1387 5.91926C77.9291 5.93539 76.8161 6.64506 76.2839 7.72571C75.6549 8.98377 75.7516 10.4838 76.5581 11.6451C76.8 11.9515 77.1065 12.2096 77.5097 12.4031C77.9291 12.5967 78.3968 12.6773 78.9129 12.7096C79.5742 12.6935 80.2194 12.4838 80.7678 12.0805C81.0581 11.8386 81.3 11.5644 81.5097 11.2096C81.4774 11.1451 81.4613 11.0644 81.3968 11.0322C81.3484 11.016 81.2839 10.9838 81.171 11.016C80.9291 11.3386 80.6871 11.5322 80.4452 11.6451C80.2355 11.7418 79.9936 11.8225 79.6871 11.7902C79.0903 11.7902 78.6065 11.6612 78.2194 11.3709C77.8162 11.1128 77.5097 10.7418 77.3 10.2902C77.0581 9.75797 76.9452 9.19345 76.9774 8.61281C76.9613 8.54829 76.9936 8.48377 77.042 8.43539ZM77.2516 7.90313C77.2032 7.90313 77.1871 7.90313 77.171 7.87087L77.1387 7.85474V7.82248C77.171 7.62894 77.2516 7.43539 77.3968 7.24184C77.5742 7.01603 77.8 6.82248 78.0581 6.67732C78.3162 6.51603 78.6387 6.43539 78.9613 6.43539C79.2678 6.43539 79.5097 6.4999 79.6871 6.61281C79.8645 6.67732 80.0097 6.80636 80.1065 6.96765C80.171 7.12894 80.2194 7.2741 80.2032 7.43539C80.2032 7.54829 80.2032 7.61281 80.1871 7.64506C80.171 7.70958 80.1387 7.72571 80.1226 7.75797C80.0742 7.80636 79.929 7.82249 79.671 7.83861C79.429 7.85474 78.9936 7.887 78.3968 7.887H77.2516V7.90313ZM48.671 1.85474H49.2516C49.7032 1.85474 50.1549 1.83862 50.6065 1.80636C50.5903 2.12894 50.6549 2.51603 50.8 2.98378C50.9774 3.43539 51.1871 3.93539 51.429 4.46765L53.2839 8.17733L53.4452 8.51603C53.7355 9.16119 54.0419 9.79023 54.3807 10.4193H54.429C54.671 10.0322 54.8807 9.64507 55.0742 9.20958L55.3161 8.70958L55.6549 7.96765L57.1871 4.887L57.7839 3.62894L58.042 3.06442C58.2516 2.58055 58.3807 2.1612 58.3968 1.80636C58.8 1.83862 59.1871 1.85474 59.6065 1.85474H60.2839L60.671 1.82248L61.0581 1.80636C61.1065 1.85475 61.1226 1.90313 61.1226 1.98377C61.1549 2.08055 61.1226 2.1612 61.0742 2.19345L60.7516 2.20958C60.4129 2.25797 60.1387 2.30635 59.9936 2.40313C59.8323 2.51603 59.7194 2.69345 59.6871 2.887C59.6387 3.17732 59.6065 3.46764 59.6226 3.75797V5.83862L59.671 6.9999L59.7194 8.33862V8.35474C59.7516 9.40313 59.7839 10.4515 59.8484 11.4999C59.8968 11.9031 60.2355 12.0806 60.5903 12.1128L61.1065 12.1612C61.1549 12.2257 61.171 12.2902 61.1549 12.3709C61.1549 12.4676 61.1226 12.5322 61.0742 12.5805L60.0903 12.516H58.2032L57.5419 12.5644L57.1871 12.5967C57.1226 12.5483 57.0903 12.4676 57.1065 12.387C57.0903 12.2741 57.1065 12.2096 57.1549 12.1773L57.6387 12.1289C58.0258 12.0967 58.3484 11.9838 58.4129 11.5644C58.429 11.3709 58.4613 11.1128 58.429 10.758L58.3807 4.01603H58.3645C57.9936 4.58055 57.6387 5.35474 57.3161 6.08055C57.1387 6.45152 56.9613 6.83861 56.8 7.16119L55.9129 8.93539L55.4129 9.887L55.171 10.3547C54.9613 10.7902 54.7678 11.2096 54.5742 11.6451C54.3968 11.9838 54.2839 12.2741 54.171 12.5322L54.1226 12.6289L54.0903 12.6451C54.0742 12.6451 54.0742 12.6612 54.0742 12.6773C54.0419 12.6935 54.0097 12.6935 53.9613 12.6935L53.8968 12.6773C53.8968 12.6612 53.8807 12.6612 53.8807 12.6451C53.8645 12.6451 53.8484 12.6289 53.8484 12.6289C53.7678 12.3225 53.6387 11.9676 53.4452 11.5805C53.2678 11.1773 53.0742 10.7741 52.8807 10.387C52.7032 9.98377 52.5581 9.66119 52.429 9.40313L50.9613 6.29023L50.4613 5.19345L50.429 5.12893C50.2839 4.70958 50.1065 4.33861 49.929 3.96765H49.8807L49.8323 4.87087L49.8161 5.40313L49.7194 6.82248L49.6549 8.58055V8.59668C49.6387 9.2741 49.6065 9.93539 49.6065 10.5967C49.5742 10.9999 49.6065 11.2902 49.671 11.516C49.7032 11.7096 49.7678 11.8547 49.8645 11.9515C49.9774 12.0483 50.1226 12.0967 50.3161 12.1128L50.929 12.1612C50.9936 12.2257 51.0097 12.2902 51.0097 12.3709C51.0097 12.4676 50.9774 12.5322 50.9129 12.5805L50.0419 12.516H48.3161L47.9936 12.5483L47.4936 12.5967C47.4452 12.5483 47.4129 12.4676 47.4129 12.387C47.3968 12.2741 47.4129 12.2096 47.4774 12.1773L47.8161 12.1289C48.0258 12.0967 48.2032 12.0483 48.3645 11.9676C48.4936 11.9031 48.6065 11.7902 48.671 11.6289C48.7355 11.4515 48.7839 11.1612 48.8161 10.7902L48.8645 10.2741L48.9129 9.75797L48.9452 9.32248C48.9613 9.11281 48.9936 8.887 48.9936 8.62894L49.0258 8.19345C49.042 7.90313 49.0742 7.59668 49.0742 7.25797L49.0903 7.16119C49.171 5.9999 49.2355 4.82249 49.2678 3.6612C49.2839 3.33862 49.2678 3.08055 49.2194 2.87087C49.1871 2.69345 49.0742 2.53216 48.9129 2.43539C48.6871 2.35474 48.4452 2.2741 48.2032 2.24184L47.9452 2.22571C47.8968 2.16119 47.8807 2.08055 47.8968 2.01603C47.9129 1.91926 47.9452 1.85474 47.9936 1.83861C48.2355 1.82248 48.4452 1.83861 48.671 1.85474ZM2.41291 2.11281C2.38065 2.20958 2.42904 2.2741 2.49355 2.32248L3.05807 2.387C3.3 2.40313 3.47742 2.46765 3.5742 2.58055C3.6871 2.66119 3.75162 2.82248 3.76775 3.06442C3.8 3.30636 3.81613 3.64507 3.81613 4.12894V7.37087C4.25162 7.387 4.6871 7.387 5.12258 7.37087V2.887C5.09033 2.70958 5.12258 2.58055 5.17097 2.46764C5.1871 2.40313 5.26775 2.33861 5.38065 2.30635C5.50968 2.29023 5.71936 2.29023 6.02581 2.29023C6.86452 2.30636 7.49355 2.53216 7.94517 2.98378C8.38065 3.43539 8.60646 4.08055 8.60646 4.87087C8.62259 5.58055 8.46129 6.1612 8.0742 6.64507C7.75162 7.06442 7.26775 7.37087 6.60646 7.51603C5.97742 7.67732 5.0742 7.74184 3.86452 7.70958C2.81613 7.69345 1.67097 7.62894 0.429035 7.4999C1.81613 7.79023 2.84839 7.98377 3.49355 8.04829C4.55807 8.19345 5.62258 8.1612 6.60646 7.99991C7.0742 7.93539 7.54194 7.82248 7.99355 7.66119C8.41291 7.45152 8.81613 7.22571 9.20323 6.95152C9.44517 6.7741 9.67097 6.4999 9.84839 6.12894C10.4129 4.80636 9.97742 3.25797 8.81613 2.41926C8.39678 2.17732 7.94517 2.01603 7.47742 1.91926C6.97742 1.83861 6.38065 1.7741 5.70323 1.7741C5.04194 1.7741 4.44517 1.7741 3.92904 1.80636C3.41291 1.83862 2.92904 1.85475 2.50968 1.887C2.44516 1.95152 2.41291 2.03216 2.41291 2.11281ZM5.12258 8.59668V10.1289C5.10646 10.6773 5.12258 11.0805 5.17097 11.3709C5.21936 11.6612 5.31613 11.8225 5.47742 11.9354C5.60646 12.0322 5.83226 12.1128 6.1871 12.1289L6.62258 12.1773C6.67097 12.2257 6.6871 12.2741 6.6871 12.387C6.67097 12.4676 6.63871 12.5483 6.60646 12.5805C6.21936 12.5644 5.83226 12.5322 5.44517 12.516H3.52581L2.55807 12.5805C2.49355 12.5322 2.46129 12.4676 2.46129 12.387C2.44516 12.3064 2.46129 12.2257 2.52581 12.1773L2.84839 12.1289C3.17097 12.1128 3.38065 12.016 3.49355 11.9031C3.63871 11.8064 3.73549 11.6451 3.75162 11.3547C3.8 11.0644 3.81613 10.6451 3.81613 10.1128V8.51603C4.20323 8.59668 4.63871 8.61281 5.12258 8.59668Z" fill="#333D48"/>
<path fill-rule="evenodd" clip-rule="evenodd" d="M70.2516 18.8066V16.6614H69.8806V16.1614H70.2516V16.0485C70.2516 15.7098 70.3323 15.355 70.5742 15.1453C70.7677 14.9517 71.0419 14.8872 71.2839 14.8872C71.4613 14.8872 71.6064 14.9195 71.7194 14.9517L71.671 15.4679C71.5742 15.4356 71.4774 15.4195 71.3806 15.4195C71.0419 15.4195 70.929 15.6937 70.929 16.0162V16.1453H71.5258V16.6453H70.929V18.7904H70.2516V18.8066ZM48.8806 15.1937H49.5419V17.5485C49.5419 18.5485 49.0581 18.8872 48.3323 18.8872C48.1387 18.8872 47.9129 18.855 47.7677 18.8066L47.8484 18.2743C47.9452 18.3066 48.1065 18.3388 48.2516 18.3388C48.6387 18.3388 48.8645 18.1614 48.8645 17.5324V15.1937H48.8806ZM53.0742 18.0485C53.0742 18.3711 53.0903 18.613 53.1065 18.8388H52.5097L52.4774 18.4356C52.3645 18.6291 52.0903 18.8872 51.6065 18.8872C51.1065 18.8872 50.671 18.5969 50.671 17.7582V16.2259H51.3484V17.6453C51.3484 18.0808 51.4936 18.3549 51.8484 18.3549C52.1226 18.3549 52.3 18.1614 52.3645 18.0162C52.3806 17.9517 52.4129 17.8872 52.4129 17.8066V16.2421H53.0903V18.0485H53.0742ZM54.8484 18.4033C54.6226 18.4033 54.3323 18.3066 54.1871 18.2098L54.0581 18.6937C54.2516 18.8066 54.5258 18.8872 54.8484 18.8872C55.5419 18.8872 55.9129 18.5485 55.9129 18.0646C55.9129 17.6775 55.6871 17.4356 55.2194 17.2582C54.8806 17.1453 54.7677 17.0646 54.7677 16.8872C54.7677 16.7259 54.8968 16.613 55.1387 16.613C55.3806 16.613 55.5742 16.6937 55.6871 16.7582L55.8161 16.2904C55.6548 16.2098 55.4129 16.1291 55.1226 16.1291C54.5258 16.1291 54.1387 16.5001 54.1387 16.9679C54.1387 17.2743 54.3484 17.5485 54.8484 17.7259C55.171 17.8388 55.2839 17.9195 55.2839 18.0969C55.2677 18.2904 55.1548 18.4033 54.8484 18.4033ZM57.7032 15.484V16.1775H58.3484V16.6775H57.7032V17.855C57.7032 18.1775 57.7839 18.3388 58.0419 18.3388C58.1387 18.3388 58.2194 18.3227 58.3161 18.3066L58.3323 18.8227C58.2355 18.855 58.0581 18.8872 57.8484 18.8872C57.6226 18.9033 57.4129 18.8227 57.2516 18.6614C57.1065 18.5001 57.0419 18.2743 57.0419 17.9195V16.6614H56.6548V16.1614H57.0419V15.6775L57.7032 15.484ZM61.5097 17.9356C61.4935 17.8711 61.4774 17.8227 61.4774 17.7582V17.355C61.4774 17.2904 61.4935 17.242 61.5097 17.1775C61.5742 16.8872 61.8161 16.6937 62.1065 16.6775C62.5419 16.6775 62.7677 17.0646 62.7677 17.5324C62.7677 18.0485 62.5097 18.4033 62.0903 18.4033C61.8161 18.3872 61.5742 18.1937 61.5097 17.9356ZM60.7839 16.2098L60.8 17.0969V19.9356H61.4774V18.5646H61.4935C61.6387 18.7743 61.9129 18.9195 62.2516 18.9195C62.8484 18.9195 63.4613 18.4517 63.4613 17.5162C63.4613 16.6937 62.9452 16.1614 62.3323 16.1614C61.929 16.1614 61.6226 16.3388 61.429 16.6291H61.4129L61.3806 16.2259H60.7839V16.2098ZM66.0742 17.242C66.0742 17.0001 65.9774 16.5969 65.5258 16.5969C65.1065 16.5969 64.929 16.9679 64.8968 17.242H66.0742ZM64.8968 17.7098C64.9129 18.1937 65.3 18.3872 65.7194 18.3872C66.0258 18.3872 66.2516 18.3388 66.4613 18.2582L66.5581 18.7098C66.3323 18.8066 66.0097 18.8711 65.6387 18.8711C64.7677 18.8711 64.2677 18.3388 64.2677 17.5324C64.2677 16.8066 64.7194 16.1291 65.5581 16.1291C66.429 16.1291 66.7032 16.8388 66.7032 17.4033L66.6871 17.6775H64.8968V17.7098ZM67.671 16.2098L67.6871 17.0485V18.8066H68.3484V17.4679L68.3645 17.2582C68.429 16.9679 68.6387 16.7743 68.9613 16.7743C69.0419 16.7743 69.1065 16.7743 69.1548 16.7904V16.1614C69.1065 16.1453 69.0581 16.1453 68.9935 16.1453C68.7194 16.1453 68.4129 16.3388 68.2839 16.7098H68.2516L68.2355 16.2098H67.671ZM73.3484 16.613C73.8 16.613 73.9129 17.0001 73.8968 17.2582H72.7355C72.7677 16.984 72.9452 16.613 73.3484 16.613ZM73.5581 18.3872C73.1226 18.3872 72.7516 18.1775 72.7355 17.7098H74.5097L74.5258 17.4356C74.5258 16.855 74.2516 16.1614 73.3806 16.1614C72.5258 16.1614 72.0903 16.855 72.0903 17.5646C72.0903 18.3711 72.6065 18.9033 73.4613 18.9033C73.8484 18.9033 74.1548 18.8227 74.3968 18.7259L74.3 18.2743C74.0903 18.3388 73.8645 18.3872 73.5581 18.3872ZM77.4935 18.7421C77.3484 18.8066 77.0581 18.8872 76.7355 18.8872C75.8968 18.8872 75.3484 18.3549 75.3484 17.5485C75.3484 16.7743 75.8968 16.1453 76.8484 16.1453C77.0742 16.1453 77.3 16.1937 77.5097 16.2743L77.3968 16.7743C77.2355 16.6937 77.0581 16.6614 76.8806 16.6775C76.3645 16.6775 76.0581 17.0485 76.0581 17.5324C76.0581 18.0808 76.429 18.3711 76.8806 18.3711C77.1226 18.3711 77.2839 18.3227 77.4129 18.2743L77.4935 18.7421ZM79.2516 16.1614V15.484L78.6064 15.6775V16.1614H78.2355V16.6614H78.6064V17.9195C78.6064 18.2582 78.671 18.5001 78.8 18.6614C78.929 18.8066 79.1226 18.8872 79.3645 18.8872C79.5742 18.8872 79.7355 18.855 79.8323 18.8227L79.8161 18.3066C79.7355 18.3388 79.6387 18.355 79.5581 18.3388C79.3 18.3388 79.2355 18.1614 79.2355 17.855V16.6775H79.8484V16.1775L79.2516 16.1614Z" fill="#333D48"/>
<path fill-rule="evenodd" clip-rule="evenodd" d="M93.8 2.35501H93.3645C93.3484 2.35501 93.3484 2.37114 93.3323 2.38727C93.3323 2.4034 93.3323 2.41953 93.3484 2.43566L93.3968 2.45179L93.5742 2.50017C93.6065 2.53243 93.6387 2.56469 93.6387 2.59695C93.6387 2.64534 93.6548 2.69372 93.6387 2.77437L93.6226 3.16147L93.5903 3.61308C93.5903 3.85501 93.5742 4.43566 93.5097 4.61308C93.4936 4.64534 93.4613 4.67759 93.429 4.70985C93.3807 4.72598 93.3484 4.72598 93.3 4.72598L93.2194 4.74211C93.2032 4.75824 93.2032 4.77437 93.2032 4.7905C93.2032 4.80663 93.2032 4.82275 93.2355 4.83888L93.429 4.82275H93.8323L94.0258 4.83888C94.0419 4.82275 94.0419 4.82276 94.0419 4.7905C94.0419 4.77437 94.0419 4.75824 94.0258 4.74211H93.8968C93.8484 4.74211 93.8161 4.72598 93.7839 4.69372C93.7677 4.67759 93.7677 4.66146 93.7516 4.64533C93.7355 4.56469 93.7194 4.46792 93.7194 4.38727V3.91953L93.7355 3.5163L93.7677 3.19372C93.7677 3.08082 93.7677 2.98404 93.7839 2.87114L93.9129 3.12921L94.0258 3.4034L94.3806 4.11308L94.4774 4.33888L94.6226 4.61308L94.671 4.75824L94.7032 4.85501C94.7194 4.87114 94.7516 4.87114 94.7677 4.85501L94.8645 4.62921C94.9613 4.41953 95.0581 4.20985 95.171 4.00017L95.4936 3.35501C95.5258 3.30662 95.5419 3.24211 95.5742 3.1776C95.6226 3.06469 95.671 2.96791 95.7355 2.87114V4.41953V4.59695C95.7355 4.64533 95.7194 4.67759 95.6871 4.67759C95.671 4.69372 95.6226 4.72598 95.5581 4.72598L95.4613 4.74211C95.4452 4.75824 95.4452 4.77437 95.4452 4.7905C95.4452 4.80663 95.4613 4.82275 95.4774 4.83888L95.7194 4.82275H96.1548L96.3807 4.83888C96.3968 4.83888 96.4129 4.82276 96.4129 4.7905C96.4129 4.77437 96.4129 4.75824 96.3968 4.74211H96.2839C96.2355 4.72598 96.2032 4.70985 96.1548 4.69372C96.1226 4.66146 96.1065 4.62921 96.1065 4.59695L96.0903 4.43566C96.0903 4.25824 96.0742 4.06469 96.0742 3.87114C96.0742 3.67759 96.0581 3.48404 96.0419 3.30663V2.82275L96.0581 2.6292C96.0742 2.58082 96.0903 2.54856 96.1226 2.5163C96.171 2.48405 96.2355 2.46791 96.3 2.46791H96.3968V2.41953L96.3807 2.37114L96.2032 2.38727H95.7839C95.7839 2.46791 95.7516 2.56469 95.7032 2.67759L95.5097 3.09695L95.1548 3.80663C95.0742 4.00017 94.9774 4.17759 94.8645 4.37114L94.6065 3.85501L94.171 3.00017C94.1226 2.88727 94.0742 2.77437 94.0419 2.66146C94.0097 2.58082 93.9936 2.48404 93.9936 2.4034H93.8V2.35501ZM91.7355 4.24211V4.53243C91.7194 4.66146 91.6387 4.70985 91.5097 4.70985L91.429 4.72598C91.3968 4.75824 91.3968 4.80662 91.429 4.82275L91.8968 4.80662L92.3968 4.82275L92.429 4.77437L92.4129 4.72598L92.3161 4.70985C92.2194 4.70985 92.171 4.69372 92.1387 4.66146C92.1065 4.6292 92.0742 4.59695 92.0742 4.53243C92.0581 4.43566 92.0581 4.33888 92.0742 4.24211V3.88727C91.9452 3.88727 91.8484 3.88727 91.7516 3.87114L91.7355 4.24211ZM91.4129 2.38727C91.4129 2.4034 91.4129 2.41953 91.429 2.43566L91.5581 2.45179C91.6064 2.45179 91.6548 2.48405 91.6871 2.50017C91.7194 2.5163 91.7355 2.54856 91.7355 2.61308L91.7516 2.85501V3.61308H92.0581V2.58082L92.0742 2.48404C92.0742 2.46792 92.1064 2.45179 92.1226 2.45179L92.2839 2.43566C92.4774 2.43566 92.6226 2.48405 92.7355 2.59695C92.8323 2.69372 92.8968 2.85501 92.8968 3.03243C92.8968 3.20985 92.8645 3.33888 92.7839 3.45179C92.6871 3.54856 92.5742 3.62921 92.4452 3.64534C92.2839 3.67759 92.0742 3.69372 91.8 3.69372C91.5581 3.69372 91.2839 3.67759 90.9935 3.64534C91.3161 3.70985 91.5581 3.75824 91.7194 3.77437C92.0742 3.82275 92.429 3.7905 92.7677 3.69372C92.8484 3.64533 92.9613 3.59695 93.0581 3.5163C93.1226 3.46791 93.171 3.4034 93.2194 3.32276C93.2516 3.24211 93.2677 3.14533 93.2839 3.03243C93.2839 2.91953 93.2516 2.7905 93.2032 2.69372C93.1548 2.59695 93.0742 2.5163 92.9936 2.46791C92.9129 2.41953 92.8 2.37114 92.671 2.35501C92.5419 2.33888 92.4129 2.32275 92.2516 2.32275L91.8323 2.33888L91.5097 2.35501C91.429 2.35501 91.4129 2.37114 91.4129 2.38727Z" fill="#161C24"/>
</g>
<defs>
<clipPath id="clip0_355_863">
<rect width="97.5" height="20" fill="white" transform="translate(0.300003)"/>
</clipPath>
</defs>
</svg>
