<svg width="42" height="61" viewBox="0 0 42 61" fill="none" xmlns="http://www.w3.org/2000/svg">
<mask id="mask0_192_5340" style="mask-type:alpha" maskUnits="userSpaceOnUse" x="5" y="40" width="32" height="21">
<path d="M5 59.2902V41C5 40.4477 5.44772 40 6 40H36C36.5523 40 37 40.4477 37 41V59.2902C37 60.055 36.1763 60.5367 35.5097 60.1617L21 52L6.49026 60.1617C5.82366 60.5367 5 60.055 5 59.2902Z" fill="#9BB0F9"/>
</mask>
<g mask="url(#mask0_192_5340)">
<path d="M5 59.2902V41C5 40.4477 5.44772 40 6 40H36C36.5523 40 37 40.4477 37 41V59.2902C37 60.055 36.1763 60.5367 35.5097 60.1617L21.4903 52.2758C21.1858 52.1045 20.8142 52.1045 20.5097 52.2758L6.49026 60.1617C5.82366 60.5367 5 60.055 5 59.2902Z" fill="#F8D373"/>
<path d="M5 42.4152V41C5 40.4477 5.44772 40 6 40H36C36.5523 40 37 40.4477 37 41V59.2902C37 60.055 36.1763 60.5367 35.5097 60.1617L21 52L5.50974 43.2867C5.19486 43.1096 5 42.7764 5 42.4152Z" fill="url(#paint0_linear_192_5340)"/>
<g style="mix-blend-mode:multiply" opacity="0.3">
<path d="M5 40H9V61H5V40Z" fill="#F4B850"/>
</g>
<g style="mix-blend-mode:multiply" opacity="0.3">
<path d="M33 40H37V61H33V40Z" fill="#EFA342"/>
</g>
</g>
<path d="M20.072 2.4861L1.07199 12.4385C0.412954 12.7837 0 13.4662 0 14.2101V36.8394C0 37.5571 0.384572 38.2198 1.00772 38.5758L20.0077 49.433C20.6226 49.7843 21.3774 49.7843 21.9923 49.433L40.9923 38.5758C41.6154 38.2198 42 37.5571 42 36.8394V14.2101C42 13.4662 41.587 12.7837 40.928 12.4385L21.928 2.4861C21.3468 2.18165 20.6532 2.18165 20.072 2.4861Z" fill="#E5A23C"/>
<path d="M20.072 0.486102L1.07199 10.4385C0.412954 10.7837 0 11.4662 0 12.2101V34.8394C0 35.5571 0.384572 36.2198 1.00772 36.5758L20.0077 47.433C20.6226 47.7843 21.3774 47.7843 21.9923 47.433L40.9923 36.5758C41.6154 36.2198 42 35.5571 42 34.8394V12.2101C42 11.4662 41.587 10.7837 40.928 10.4385L21.928 0.486103C21.3468 0.181653 20.6532 0.181653 20.072 0.486102Z" fill="url(#paint1_linear_192_5340)"/>
<path d="M20.0642 4.49541L5.06422 12.4366C4.4095 12.7832 4 13.4633 4 14.2042V32.8561C4 33.5648 4.37508 34.2206 4.98596 34.58L19.986 43.4035C20.6119 43.7717 21.3881 43.7717 22.014 43.4035L37.014 34.58C37.6249 34.2206 38 33.5648 38 32.8561V14.2042C38 13.4633 37.5905 12.7832 36.9358 12.4366L21.9358 4.49541C21.3504 4.18551 20.6496 4.18551 20.0642 4.49541Z" fill="url(#paint2_linear_192_5340)"/>
<g filter="url(#filter0_i_192_5340)">
<path d="M17.3447 28.132C16.3207 28.132 15.5367 27.752 14.9927 26.992C14.4567 26.232 14.1887 25.148 14.1887 23.74C14.1887 22.332 14.4567 21.26 14.9927 20.524C15.5367 19.78 16.3207 19.408 17.3447 19.408C18.3687 19.408 19.1487 19.78 19.6847 20.524C20.2287 21.26 20.5007 22.332 20.5007 23.74C20.5007 25.148 20.2287 26.232 19.6847 26.992C19.1487 27.752 18.3687 28.132 17.3447 28.132ZM17.3447 26.62C17.8087 26.62 18.1527 26.392 18.3767 25.936C18.6007 25.472 18.7127 24.74 18.7127 23.74C18.7127 22.74 18.6007 22.02 18.3767 21.58C18.1527 21.14 17.8087 20.92 17.3447 20.92C16.8807 20.92 16.5367 21.14 16.3127 21.58C16.0887 22.02 15.9767 22.74 15.9767 23.74C15.9767 24.74 16.0887 25.472 16.3127 25.936C16.5367 26.392 16.8807 26.62 17.3447 26.62ZM24.984 28.132C23.904 28.132 23.068 27.764 22.476 27.028C21.892 26.284 21.6 25.236 21.6 23.884C21.6 22.468 21.932 21.368 22.596 20.584C23.26 19.8 24.18 19.408 25.356 19.408C25.812 19.408 26.26 19.488 26.7 19.648C27.148 19.808 27.54 20.032 27.876 20.32L27.276 21.7C26.988 21.452 26.676 21.268 26.34 21.148C26.012 21.02 25.676 20.956 25.332 20.956C24.02 20.956 23.364 21.816 23.364 23.536V23.764C23.532 23.364 23.792 23.056 24.144 22.84C24.496 22.616 24.9 22.504 25.356 22.504C25.836 22.504 26.26 22.624 26.628 22.864C27.004 23.096 27.3 23.42 27.516 23.836C27.732 24.244 27.84 24.712 27.84 25.24C27.84 25.8 27.716 26.3 27.468 26.74C27.228 27.172 26.892 27.512 26.46 27.76C26.036 28.008 25.544 28.132 24.984 28.132ZM24.888 26.68C25.256 26.68 25.552 26.556 25.776 26.308C26.008 26.052 26.124 25.72 26.124 25.312C26.124 24.912 26.008 24.584 25.776 24.328C25.552 24.072 25.256 23.944 24.888 23.944C24.512 23.944 24.208 24.072 23.976 24.328C23.752 24.584 23.64 24.912 23.64 25.312C23.64 25.72 23.752 26.052 23.976 26.308C24.208 26.556 24.512 26.68 24.888 26.68Z" fill="#F4B949"/>
</g>
<g style="mix-blend-mode:multiply" opacity="0.25">
<path d="M19.8669 30.779L5 41L20.0195 49.4485C20.6283 49.7909 21.3717 49.7909 21.9805 49.4485L37 41L22.1331 30.779C21.4506 30.3098 20.5494 30.3098 19.8669 30.779Z" fill="#FADD92"/>
</g>
<defs>
<filter id="filter0_i_192_5340" x="14.1887" y="19.408" width="13.6873" height="9.72412" filterUnits="userSpaceOnUse" color-interpolation-filters="sRGB">
<feFlood flood-opacity="0" result="BackgroundImageFix"/>
<feBlend mode="normal" in="SourceGraphic" in2="BackgroundImageFix" result="shape"/>
<feColorMatrix in="SourceAlpha" type="matrix" values="0 0 0 0 0 0 0 0 0 0 0 0 0 0 0 0 0 0 127 0" result="hardAlpha"/>
<feOffset dy="1"/>
<feGaussianBlur stdDeviation="0.5"/>
<feComposite in2="hardAlpha" operator="arithmetic" k2="-1" k3="1"/>
<feColorMatrix type="matrix" values="0 0 0 0 0.0862745 0 0 0 0 0.109804 0 0 0 0 0.141176 0 0 0 0.3 0"/>
<feBlend mode="normal" in2="shape" result="effect1_innerShadow_192_5340"/>
</filter>
<linearGradient id="paint0_linear_192_5340" x1="5" y1="40" x2="36" y2="60" gradientUnits="userSpaceOnUse">
<stop stop-color="#F7CC5C"/>
<stop offset="1" stop-color="#F2B243"/>
</linearGradient>
<linearGradient id="paint1_linear_192_5340" x1="20.5" y1="0" x2="20.5" y2="48" gradientUnits="userSpaceOnUse">
<stop stop-color="#FBE9A1"/>
<stop offset="1" stop-color="#F8D67E"/>
</linearGradient>
<linearGradient id="paint2_linear_192_5340" x1="20.5" y1="4" x2="20.5" y2="44" gradientUnits="userSpaceOnUse">
<stop stop-color="#FDF0BC"/>
<stop offset="1" stop-color="#FBE7B1"/>
</linearGradient>
</defs>
</svg>
