<svg width="88" height="24" viewBox="0 0 88 24" fill="none" xmlns="http://www.w3.org/2000/svg">
<g clip-path="url(#clip0_4728_12739)">
<path opacity="0.3" fill-rule="evenodd" clip-rule="evenodd" d="M8.5713 6.20532H5.60083V11.4287H10.7316V8.40461C10.7316 7.18995 9.76436 6.20532 8.5713 6.20532ZM8.16622 13.6284C6.74939 13.6284 5.60083 14.7977 5.60083 16.2401C5.60083 17.6825 6.74939 18.8518 8.16622 18.8518H10.7316V13.6284H8.16622Z" fill="#919EAB"/>
<path fill-rule="evenodd" clip-rule="evenodd" d="M35.6739 4.67331H36.5419V0.202393C36.0588 0.202393 35.6672 0.591641 35.6672 1.0718V1.74678C35.5827 1.66478 35.4848 1.5961 35.3734 1.54077C35.1909 1.44785 34.9839 1.4014 34.7525 1.4014C34.4497 1.4014 34.1804 1.4744 33.9445 1.62041C33.713 1.76641 33.5283 1.96552 33.3903 2.21771C33.2567 2.46991 33.19 2.75529 33.19 3.07385C33.19 3.38799 33.2567 3.67115 33.3903 3.92335C33.5283 4.17555 33.7152 4.37465 33.9512 4.52065C34.1871 4.66666 34.4542 4.73964 34.7525 4.73964C34.9839 4.73964 35.1931 4.691 35.3801 4.59366C35.4914 4.53569 35.5894 4.46517 35.6739 4.38209V4.67331ZM34.8993 3.93663C35.064 3.93663 35.2065 3.90123 35.3267 3.83044C35.4513 3.75522 35.5471 3.65346 35.6138 3.52515C35.685 3.39241 35.7206 3.23977 35.7206 3.06721C35.7206 2.89908 35.685 2.75086 35.6138 2.62255C35.5471 2.48982 35.4513 2.38806 35.3267 2.31726C35.2065 2.24205 35.0663 2.20444 34.906 2.20444C34.7413 2.20444 34.5966 2.24205 34.472 2.31726C34.3518 2.39248 34.2561 2.49424 34.1849 2.62255C34.1181 2.75086 34.0847 2.89908 34.0847 3.06721C34.0847 3.23977 34.1181 3.39241 34.1849 3.52515C34.2561 3.65346 34.354 3.75522 34.4786 3.83044C34.6033 3.90123 34.7435 3.93663 34.8993 3.93663ZM30.2229 4.52068C30.4855 4.66668 30.7793 4.73966 31.1043 4.73966C31.4293 4.73966 31.7208 4.66668 31.979 4.52068C32.2417 4.37024 32.4486 4.16893 32.6 3.91673C32.7513 3.66011 32.8271 3.37473 32.8271 3.06059C32.8271 2.74646 32.7513 2.4655 32.6 2.21773C32.4486 1.96554 32.2417 1.76644 31.979 1.62043C31.7208 1.46999 31.427 1.39478 31.0976 1.39478C30.7771 1.39478 30.4855 1.46999 30.2229 1.62043C29.9603 1.76644 29.7532 1.96554 29.6019 2.21773C29.4505 2.4655 29.3749 2.74646 29.3749 3.06059C29.3749 3.37473 29.4505 3.66011 29.6019 3.91673C29.7577 4.16893 29.9647 4.37024 30.2229 4.52068ZM31.5316 3.82382C31.407 3.89461 31.2623 3.93 31.0976 3.93C30.9374 3.93 30.7949 3.89461 30.6702 3.82382C30.5456 3.7486 30.4477 3.64684 30.3764 3.51853C30.3052 3.38579 30.2696 3.23536 30.2696 3.06723C30.2696 2.8991 30.3052 2.75088 30.3764 2.62257C30.4477 2.49426 30.5456 2.39471 30.6702 2.32392C30.7949 2.2487 30.9374 2.21109 31.0976 2.21109C31.2623 2.21109 31.407 2.2487 31.5316 2.32392C31.6563 2.39471 31.7542 2.49426 31.8254 2.62257C31.8967 2.75088 31.9323 2.8991 31.9323 3.06723C31.9323 3.23536 31.8967 3.38579 31.8254 3.51853C31.7587 3.64684 31.6607 3.7486 31.5316 3.82382ZM37.8699 4.52066C38.1058 4.66667 38.3707 4.73969 38.6645 4.73969C38.896 4.73969 39.103 4.69321 39.2855 4.6003C39.4068 4.5356 39.5114 4.45623 39.5993 4.3622V4.6733H40.4674V1.46776H39.5993V1.77592C39.5114 1.68092 39.4068 1.60253 39.2855 1.54077C39.103 1.44786 38.896 1.4014 38.6645 1.4014C38.3707 1.4014 38.1058 1.47441 37.8699 1.62041C37.634 1.76642 37.4492 1.96552 37.3157 2.21772C37.1821 2.46991 37.1154 2.75529 37.1154 3.07385C37.1154 3.38799 37.1821 3.67116 37.3157 3.92336C37.4492 4.17555 37.634 4.37465 37.8699 4.52066ZM39.419 3.69771C39.2677 3.85699 39.0696 3.93663 38.8248 3.93663C38.6645 3.93663 38.5221 3.90123 38.3974 3.83044C38.2772 3.75523 38.1815 3.65346 38.1103 3.52515C38.0435 3.39242 38.0101 3.23977 38.0101 3.06722C38.0101 2.89909 38.0435 2.75087 38.1103 2.62256C38.1815 2.48983 38.2772 2.38806 38.3974 2.31727C38.5221 2.24205 38.6645 2.20444 38.8248 2.20444C38.9895 2.20444 39.1319 2.24205 39.2521 2.31727C39.3767 2.38806 39.4725 2.48983 39.5392 2.62256C39.6105 2.75087 39.646 2.89909 39.646 3.06722C39.646 3.32384 39.5704 3.534 39.419 3.69771ZM28.8839 4.6733C28.4008 4.6733 28.0092 4.28405 28.0092 3.80389V2.83493C28.0092 2.64468 27.9491 2.48983 27.8288 2.37036C27.7087 2.2509 27.5528 2.19117 27.3615 2.19117C27.2368 2.19117 27.1255 2.21772 27.0276 2.27081C26.9296 2.32391 26.8517 2.39912 26.7939 2.49646C26.7404 2.5938 26.7137 2.7066 26.7137 2.83491V4.67331C26.2306 4.67331 25.839 4.28406 25.839 3.8039V1.46777H26.7137V1.76822C26.7934 1.68691 26.8847 1.61773 26.9875 1.56068C27.1834 1.4545 27.4037 1.4014 27.6486 1.4014C27.8845 1.4014 28.096 1.46113 28.2829 1.58059C28.4699 1.69563 28.6168 1.84827 28.7236 2.03853C28.8305 2.22435 28.8839 2.42567 28.8839 2.64247V4.6733ZM7.09886 1.38864H5.25525L5.1737 1.38859H5.17318H5.17312C4.80118 1.38824 4.31187 1.38777 3.88374 1.44701C3.35283 1.52049 2.56804 1.72408 1.89782 2.41394C1.2276 3.1038 1.02981 3.91159 0.958427 4.45805C0.900869 4.89873 0.901322 5.40231 0.901666 5.78515L0.901666 5.78527V5.78584L0.901719 5.86979V7.79047H3.34999V5.86979C3.34999 4.94532 3.34999 4.48306 3.62901 4.19586C3.90804 3.90866 4.35712 3.90866 5.25525 3.90866H7.09886V1.38864ZM20.2593 7.79047V5.86979C20.2593 4.94532 20.2593 4.48306 19.9802 4.19586C19.7013 3.90866 19.2521 3.90866 18.354 3.90866H16.485V1.38864H18.354L18.4355 1.38859H18.4361H18.4361C18.8081 1.38824 19.2974 1.38777 19.7255 1.44701C20.2564 1.52049 21.0412 1.72408 21.7114 2.41394C22.3816 3.1038 22.5794 3.91159 22.6508 4.45805C22.7084 4.89878 22.7079 5.40241 22.7076 5.78527L22.7075 5.82987V5.83655V5.86979V7.79047H20.2593ZM16.485 21.0683H18.354C19.2521 21.0683 19.7013 21.0683 19.9802 20.7811C20.2593 20.4939 20.2593 20.0317 20.2593 19.1072V17.1766H22.7075V19.1072V19.1484L22.7076 19.1917C22.7079 19.5746 22.7084 20.0782 22.6508 20.5189C22.5794 21.0654 22.3816 21.8732 21.7114 22.563C21.0412 23.2529 20.2564 23.4565 19.7255 23.53C19.2983 23.5891 18.8101 23.5887 18.4384 23.5884H18.4361L18.354 23.5884H16.485V21.0683ZM3.34999 17.1766V19.1072C3.34999 20.0317 3.34999 20.4939 3.62901 20.7811C3.90804 21.0683 4.35712 21.0683 5.25525 21.0683H7.09886V23.5884H5.25525H5.22165L5.17312 23.5884H5.17078C4.79914 23.5887 4.311 23.5891 3.88374 23.53C3.35283 23.4565 2.56804 23.2529 1.89782 22.563C1.2276 21.8732 1.02981 21.0654 0.958427 20.5189C0.900869 20.0783 0.901322 19.5747 0.901666 19.1918L0.901666 19.1917L0.901719 19.1072V17.1766H3.34999ZM15.3077 11.6238C16.7991 11.6238 18.0082 10.393 18.0082 8.87466C18.0082 7.35629 16.7991 6.12546 15.3077 6.12546C13.8164 6.12546 12.6074 7.35629 12.6074 8.87466C12.6074 10.393 13.8164 11.6238 15.3077 11.6238ZM15.3077 13.548C13.8164 13.548 12.6074 14.7789 12.6074 16.2972V18.7714H18.0082V16.2972C18.0082 14.7789 16.7991 13.548 15.3077 13.548ZM86.5609 18.5913C86.2447 18.2406 85.7705 18.0653 85.1381 18.0653C84.7531 18.0653 84.3853 18.1513 84.0341 18.3232C83.6908 18.495 83.4122 18.7254 83.1988 19.0142L83.0647 18.1891H81.3837V23.6345H83.4362V20.4374C83.4362 20.1967 83.515 19.9939 83.6736 19.8289C83.8317 19.6639 84.0378 19.5814 84.2924 19.5814C84.512 19.5814 84.6806 19.6536 84.7974 19.798C84.9211 19.9355 84.9832 20.1211 84.9832 20.3549V23.6345H87.0357V20.1074C87.0357 19.4473 86.8776 18.942 86.5609 18.5913ZM77.5265 18.0653C78.4823 18.0653 79.2321 18.3094 79.7752 18.7975C80.3251 19.2788 80.6001 19.9836 80.6001 20.9118C80.6001 21.84 80.3251 22.5482 79.7752 23.0364C79.2321 23.5176 78.4823 23.7583 77.5265 23.7583C76.5712 23.7583 75.8215 23.5176 75.2783 23.0364C74.7352 22.5551 74.4639 21.8468 74.4639 20.9118C74.4639 19.9767 74.7352 19.2685 75.2783 18.7873C75.8215 18.306 76.5712 18.0653 77.5265 18.0653ZM77.5265 19.4576C76.8529 19.4576 76.5159 19.8461 76.5159 20.623V21.2109C76.5159 21.9809 76.8529 22.366 77.5265 22.366C78.2074 22.366 78.5475 21.9809 78.5475 21.2109V20.623C78.5475 19.8461 78.2074 19.4576 77.5265 19.4576ZM71.5552 16.1573V17.5497H73.6077V16.1573H71.5552ZM71.5552 18.1891V23.6345H73.6077V18.1891H71.5552ZM70.7372 18.1891V19.5814H69.582V21.6544C69.582 21.9019 69.6232 22.0841 69.7057 22.201C69.7881 22.311 69.9394 22.366 70.1596 22.366H70.7372V23.5726C70.5723 23.6277 70.3589 23.6723 70.0975 23.7067C69.8366 23.7411 69.6097 23.7583 69.4172 23.7583C68.8119 23.7583 68.3445 23.6483 68.0142 23.4283C67.6912 23.2083 67.5295 22.8335 67.5295 22.3041V19.5814H66.7667V18.1891H67.6119L68.0554 16.539H69.582V18.1891H70.7372ZM65.3288 18.4882C64.8065 18.2063 64.1293 18.0653 63.2971 18.0653C62.3825 18.0653 61.6781 18.2166 61.183 18.5191C60.6947 18.8216 60.4505 19.2307 60.4505 19.7464C60.4505 19.8083 60.4541 19.8564 60.4609 19.8908H62.4821V19.8495C62.4821 19.6845 62.5578 19.5642 62.7091 19.4885C62.8672 19.4129 63.0529 19.3751 63.2663 19.3751C63.5001 19.3751 63.6889 19.4301 63.8335 19.5401C63.9848 19.6501 64.0604 19.8117 64.0604 20.0248V20.293C63.1938 20.293 62.4926 20.3446 61.9562 20.4477C61.4199 20.5508 61.0077 20.7434 60.7187 21.0253C60.4369 21.3003 60.2961 21.7025 60.2961 22.2319C60.2961 23.2495 60.9352 23.7583 62.214 23.7583C62.6475 23.7583 63.0258 23.6964 63.3488 23.5726C63.6717 23.4488 63.9639 23.2839 64.2253 23.0776C64.3218 23.2907 64.4971 23.4592 64.7512 23.5829C65.0126 23.6998 65.3428 23.7583 65.7415 23.7583C65.9475 23.7583 66.1296 23.7411 66.2882 23.7067C66.4463 23.6792 66.5663 23.6517 66.6488 23.6242C66.7385 23.5898 66.7933 23.5658 66.8141 23.552V22.366H66.4427C66.3326 22.366 66.2501 22.3282 66.1954 22.2525C66.1401 22.1769 66.1124 22.0806 66.1124 21.9638V19.8392C66.1124 19.2135 65.8515 18.7632 65.3288 18.4882ZM62.7608 21.4584C63.0425 21.3278 63.4761 21.2624 64.0604 21.2624V21.7265C64.0604 21.9397 63.9571 22.1185 63.751 22.2628C63.5517 22.4072 63.318 22.4794 63.0498 22.4794C62.5823 22.4794 62.3481 22.3075 62.3481 21.9638C62.3481 21.7506 62.4858 21.5822 62.7608 21.4584ZM56.7483 18.0653C57.642 18.0653 58.3641 18.2579 58.914 18.6428C59.4712 19.021 59.7493 19.602 59.7493 20.3858H57.7589C57.7589 19.767 57.4224 19.4576 56.7483 19.4576C56.0747 19.4576 55.7377 19.8461 55.7377 20.623V21.2109C55.7377 21.9809 56.0883 22.366 56.7895 22.366C57.4907 22.366 57.8413 22.0497 57.8413 21.4171H59.7493C59.7493 22.2078 59.4712 22.7957 58.914 23.1807C58.3641 23.5658 57.642 23.7583 56.7483 23.7583C55.7925 23.7583 55.0432 23.5176 54.5001 23.0364C53.957 22.5551 53.6852 21.8468 53.6852 20.9118C53.6852 19.9767 53.957 19.2685 54.5001 18.7873C55.0432 18.306 55.7925 18.0653 56.7483 18.0653ZM49.9209 16.0955C49.7216 16.0543 49.5531 16.0336 49.4156 16.0336C48.7762 16.0336 48.2846 16.1815 47.9408 16.4771C47.597 16.7659 47.4252 17.2609 47.4252 17.9622V18.1891H46.7238V19.5814H47.4252V23.6345H49.4775V19.5814H50.4057V18.1891H49.4775V17.9725C49.4775 17.7731 49.5153 17.6322 49.591 17.5497C49.6665 17.4672 49.8144 17.4259 50.0344 17.4259H50.4057V16.2192C50.2819 16.1711 50.1204 16.1299 49.9209 16.0955ZM50.8388 16.1574V17.5497H52.891V16.1574H50.8388ZM50.8388 18.1891V23.6345H52.891V18.1891H50.8388ZM44.1042 17.5497V16.1573H46.1565V17.5497H44.1042ZM44.1042 23.6345V18.1891H46.1565V23.6345H44.1042ZM43.3891 18.1169C43.2653 18.0756 43.1244 18.055 42.9662 18.055C42.6293 18.055 42.3268 18.1375 42.0587 18.3025C41.7905 18.4607 41.5945 18.6979 41.4708 19.0142L41.3367 18.1891H39.6556V23.6345H41.708V21.2109C41.708 20.7777 41.8008 20.4512 41.9865 20.2311C42.179 20.0111 42.4884 19.9011 42.9146 19.9011H43.5747V18.1788C43.5747 18.1719 43.5128 18.1513 43.3891 18.1169ZM35.7985 18.0653C36.7955 18.0653 37.5552 18.2991 38.0778 18.7666C38.6072 19.2342 38.8719 19.9492 38.8719 20.9118V21.2624H34.7878C34.7878 21.6544 34.8738 21.95 35.0456 22.1494C35.2244 22.3488 35.5029 22.4485 35.881 22.4485C36.2248 22.4485 36.4758 22.3763 36.6339 22.2319C36.7989 22.0875 36.8814 21.895 36.8814 21.6544H38.8719C38.8719 22.3144 38.6209 22.8301 38.119 23.2013C37.6171 23.5726 36.8849 23.7583 35.9222 23.7583C34.9116 23.7583 34.1278 23.5245 33.5708 23.057C33.0139 22.5826 32.7355 21.8675 32.7355 20.9118C32.7355 19.9767 33.007 19.2685 33.5502 18.7873C34.0934 18.306 34.8428 18.0653 35.7985 18.0653ZM35.881 19.3751C35.2347 19.3751 34.8738 19.6811 34.7981 20.293H36.7989C36.7989 20.0111 36.7164 19.7876 36.5514 19.6226C36.3932 19.4576 36.1698 19.3751 35.881 19.3751ZM25.2425 16.539L27.7589 23.6345H30.3991L32.9053 16.539H30.5744L29.1409 21.2831H29.0996L27.6764 16.539H25.2425ZM65.2306 13.9323C64.9484 14.6955 64.6014 15.2731 64.1887 15.665C63.7833 16.0638 63.2126 16.2632 62.4769 16.2632C62.0298 16.2632 61.6348 16.2013 61.291 16.0775V14.8502H62.1159C62.6313 14.8502 62.9376 14.5993 63.0336 14.0974L60.8679 8.65193H63.0748L64.1167 12.2719H64.1887L65.1482 8.65193H67.1694L65.2306 13.9323ZM60.7406 10.0442V8.65192H59.5854V7.00182H58.0593L57.6159 8.65192H56.7701V10.0442H57.5334V12.7669C57.5334 13.2963 57.6952 13.6711 58.0181 13.8911C58.3479 14.1111 58.8158 14.2211 59.4205 14.2211C59.6131 14.2211 59.84 14.2039 60.1014 14.1695C60.3628 14.1352 60.5757 14.0905 60.7406 14.0355V12.8288H60.163C59.9433 12.8288 59.792 12.7738 59.7096 12.6638C59.6272 12.5469 59.5854 12.3647 59.5854 12.1172V10.0442H60.7406ZM53.9543 8.01245V6.62019H56.0068V8.01245H53.9543ZM53.9543 14.0973V8.6519H56.0068V14.0973H53.9543ZM53.1362 10.0442V8.65192H51.9811V7.00182H50.4548L50.0114 8.65192H49.1657V10.0442H49.9289V12.7669C49.9289 13.2963 50.0904 13.6711 50.4136 13.8911C50.7436 14.1111 51.211 14.2211 51.8162 14.2211C52.0087 14.2211 52.2357 14.2039 52.4971 14.1695C52.7579 14.1352 52.9713 14.0905 53.1362 14.0355V12.8288H52.5586C52.339 12.8288 52.1877 12.7738 52.1047 12.6638C52.0223 12.5469 51.9811 12.3647 51.9811 12.1172V10.0442H53.1362ZM46.5875 8.52818C47.22 8.52818 47.6945 8.70349 48.0107 9.05415C48.327 9.40481 48.4852 9.91016 48.4852 10.5702V14.0974H46.4328V10.8177C46.4328 10.584 46.3709 10.3984 46.2472 10.2608C46.1303 10.1164 45.9618 10.0443 45.7418 10.0443C45.4874 10.0443 45.2812 10.1267 45.123 10.2918C44.9649 10.4568 44.8858 10.6596 44.8858 10.9003V14.0974H42.8335V8.65194H44.5145L44.6486 9.47702C44.8617 9.18823 45.1402 8.95789 45.484 8.78603C45.8346 8.61411 46.2024 8.52818 46.5875 8.52818ZM41.2556 9.2295C40.7331 8.76197 39.9733 8.52818 38.9764 8.52818C38.0206 8.52818 37.2712 8.76881 36.728 9.25011C36.1849 9.73142 35.9133 10.4396 35.9133 11.3746C35.9133 12.3304 36.1918 13.0454 36.7487 13.5198C37.3056 13.9873 38.0894 14.2211 39.1001 14.2211C40.0627 14.2211 40.7949 14.0355 41.2969 13.6642C41.7988 13.2929 42.0497 12.7773 42.0497 12.1172H40.0592C40.0592 12.3579 39.9767 12.5504 39.8117 12.6947C39.6536 12.8392 39.4026 12.9114 39.0589 12.9114C38.6807 12.9114 38.4022 12.8117 38.2235 12.6123C38.0516 12.4128 37.9657 12.1172 37.9657 11.7253H42.0497V11.3746C42.0497 10.4121 41.785 9.69703 41.2556 9.2295ZM37.976 10.7559C38.0516 10.144 38.4126 9.83796 39.0589 9.83796C39.3476 9.83796 39.5711 9.9205 39.7292 10.0855C39.8943 10.2505 39.9767 10.474 39.9767 10.7559H37.976ZM33.4484 14.0973L33.2731 13.3238C32.8744 13.922 32.2968 14.2211 31.5405 14.2211C30.8048 14.2211 30.2376 13.9804 29.8388 13.4992C29.44 13.0179 29.2406 12.3063 29.2406 11.3643C29.2406 10.4293 29.44 9.72449 29.8388 9.25007C30.2376 8.76876 30.8048 8.52814 31.5405 8.52814C32.1662 8.52814 32.675 8.73783 33.0669 9.15725V6.62019H35.1192V14.0973H33.4484ZM32.1799 10.0442C31.5886 10.0442 31.293 10.3983 31.293 11.1065V11.6531C31.293 12.3544 31.5886 12.705 32.1799 12.705C32.4824 12.705 32.7093 12.5984 32.8606 12.3853C33.0118 12.1722 33.0875 11.8937 33.0875 11.5499V11.2096C33.0875 10.8658 33.0118 10.5873 32.8606 10.3742C32.7093 10.1542 32.4824 10.0442 32.1799 10.0442ZM25.9335 7.00182V14.0974H28.2127V7.00182H25.9335Z" fill="#919EAB"/>
</g>
<defs>
<clipPath id="clip0_4728_12739">
<rect width="86.6087" height="24" fill="white" transform="translate(0.496826)"/>
</clipPath>
</defs>
</svg>
