<svg width="52" height="20" viewBox="0 0 52 20" fill="none" xmlns="http://www.w3.org/2000/svg">
<g clip-path="url(#clip0_1180_8162)">
<path fill-rule="evenodd" clip-rule="evenodd" d="M34.8604 10.8833L35.357 11.0041C35.3276 11.1096 35.2733 11.2065 35.1987 11.2866C35.1245 11.3638 35.0331 11.4223 34.932 11.4575C34.8254 11.4958 34.6904 11.5158 34.5262 11.5158C34.3606 11.5208 34.1953 11.4968 34.0379 11.445C33.8964 11.3921 33.7753 11.2958 33.6918 11.1699C33.6083 11.0441 33.5666 10.8951 33.5729 10.7441C33.5729 10.4983 33.6537 10.31 33.8145 10.1775C33.9762 10.0458 34.2045 9.97998 34.4995 9.97998C34.7304 9.97998 34.912 10.0175 35.0445 10.0933C35.177 10.1683 35.2745 10.285 35.3395 10.4416L34.8395 10.5316C34.8271 10.4952 34.8082 10.4614 34.7837 10.4316C34.7514 10.3965 34.7115 10.3692 34.667 10.3516C34.6183 10.3322 34.5662 10.3226 34.5137 10.3233C34.4581 10.32 34.4025 10.3296 34.3512 10.3513C34.2999 10.3729 34.2543 10.4062 34.2179 10.4483C34.1662 10.5108 34.1404 10.6083 34.1404 10.7408C34.1404 10.9058 34.1712 11.0183 34.2329 11.08C34.2681 11.1118 34.3093 11.1362 34.3541 11.152C34.3989 11.1677 34.4463 11.1744 34.4937 11.1716C34.602 11.1716 34.6837 11.1466 34.7395 11.0966C34.8 11.0387 34.8421 10.9642 34.8604 10.8825V10.8833ZM35.5604 10.7483C35.5604 10.5066 35.6437 10.3175 35.8104 10.1816C35.977 10.0475 36.2104 9.97998 36.5079 9.97998C36.8129 9.97998 37.0479 10.0466 37.2129 10.1791C37.3787 10.3116 37.4612 10.4975 37.4612 10.7358C37.4674 10.8856 37.4298 11.0338 37.3529 11.1625C37.2761 11.2774 37.1675 11.3675 37.0404 11.4216C36.8788 11.4882 36.705 11.5197 36.5304 11.5141C36.3237 11.5141 36.152 11.4875 36.0162 11.4341C35.8844 11.3836 35.77 11.2959 35.687 11.1816C35.5991 11.0547 35.5547 10.9026 35.5604 10.7483ZM36.127 10.75C36.127 10.9 36.162 11.0083 36.2304 11.0733C36.3075 11.1415 36.4084 11.1766 36.5112 11.1708C36.6146 11.1776 36.7165 11.1431 36.7945 11.075C36.8612 11.0108 36.8945 10.8958 36.8945 10.73C36.8945 10.59 36.8595 10.4883 36.7895 10.4241C36.7111 10.3565 36.6096 10.3219 36.5062 10.3275C36.4053 10.3226 36.3065 10.3576 36.2312 10.425C36.162 10.4908 36.127 10.5991 36.127 10.75ZM37.7604 10.005H38.5054L38.7937 10.9083L39.0795 10.005H39.8229V11.4883H39.3604V10.3583L39.0012 11.49H38.582L38.2237 10.3583V11.49H37.7604V10.0066V10.005ZM40.182 10.005H41.1237C41.3295 10.005 41.4829 10.045 41.5854 10.1233C41.687 10.2025 41.7387 10.315 41.7387 10.4608C41.7387 10.6108 41.6829 10.7275 41.572 10.8116C41.4595 10.8966 41.2904 10.9383 41.0612 10.9383H40.7512V11.4883H40.182V10.005ZM40.7512 10.6383H40.8904C40.9987 10.6383 41.0762 10.6225 41.1204 10.5916C41.1406 10.5794 41.1574 10.5622 41.169 10.5416C41.1807 10.521 41.1869 10.4978 41.187 10.4741C41.187 10.4513 41.1817 10.4287 41.1716 10.4082C41.1615 10.3877 41.1468 10.3698 41.1287 10.3558C41.0904 10.3225 41.0187 10.3066 40.912 10.3066H40.7512V10.6375V10.6383ZM42.0345 10.005H42.6012V11.1233H43.4862V11.4891H42.0345V10.0058V10.005ZM43.7662 10.005H44.3345V11.4883H43.7662V10.005ZM45.8695 11.2441H45.2237L45.1345 11.4891H44.5554L45.2454 10.0058H45.8629L46.552 11.4891H45.9595L45.8695 11.2441ZM45.7504 10.9233L45.5479 10.39L45.3462 10.9233H45.7504ZM46.7379 10.005H47.267L47.957 10.8258V10.005H48.4912V11.4883H47.9579L47.2704 10.6741V11.4891H46.737V10.0058L46.7379 10.005ZM48.7395 10.005H50.462V10.3716H49.8837V11.4883H49.317V10.3716H48.7395V10.005Z" fill="#919EAB"/>
<path fill-rule="evenodd" clip-rule="evenodd" d="M29.7613 12.2417L28.1088 12.7658C28.4363 12.1758 28.8288 11.5367 29.2263 11.0425L29.7613 12.2417ZM24.3038 0.0141602L27.5463 7.27666H27.5455C27.1777 7.78573 26.0766 9.31643 25.0395 10.8191V6.00166H22.0978V12.4637C21.6911 12.1864 21.2637 11.9915 20.852 11.9218V11.5999C20.852 11.5758 20.8354 11.5666 20.8137 11.5799C20.8137 11.5799 20.497 11.8366 19.0995 11.9741C18.7037 12.0191 18.5162 11.9974 18.3729 11.9741C16.3929 11.6391 16.2979 10.1791 16.2979 10.1791C16.2951 10.1498 16.2937 10.1203 16.2937 10.0908V9.53245C16.2936 9.50266 16.2953 9.47288 16.2987 9.44328C16.2987 9.44328 16.4329 7.87995 18.3737 7.71495H19.0995C19.957 7.83162 20.6454 8.25662 20.6454 8.25662V8.25745C20.6662 8.26995 20.6829 8.25995 20.6829 8.23495V6.27662C20.6823 6.26335 20.6785 6.25043 20.6718 6.23896C20.6652 6.22748 20.6558 6.21781 20.6445 6.21078C20.6445 6.21078 20.2587 5.95828 19.0804 5.88745C19.0179 5.85245 17.9929 5.84745 17.7087 5.88745C13.4295 6.23245 13.2712 9.34661 13.2712 9.48911V10.2458C13.2712 10.3383 13.2712 13.5224 17.7079 13.8041C18.0598 13.8312 18.6867 13.8143 18.9575 13.807H18.9575C19.0201 13.8053 19.0636 13.8041 19.0804 13.8041C19.0868 13.8041 19.0933 13.8041 19.0997 13.8041C19.1944 14.3248 19.4506 14.883 19.8055 15.3983L7.15384 19.4092L0.583008 1.36916L24.3038 0.0141602ZM25.367 3.55583C25.367 4.49833 24.562 5.26166 23.5687 5.26166C22.5753 5.26166 21.7703 4.4975 21.7703 3.55583C21.7703 2.61416 22.5753 1.85 23.5687 1.85C24.562 1.85 25.367 2.61416 25.367 3.55583ZM5.10958 13.6999C5.10958 13.7241 5.12958 13.7441 5.15375 13.7441H8.02041C8.02621 13.744 8.03193 13.7428 8.03725 13.7404C8.04257 13.7381 8.04738 13.7348 8.0514 13.7306C8.05542 13.7264 8.05859 13.7215 8.0607 13.7161C8.06282 13.7107 8.06386 13.7049 8.06375 13.6991V11.4566C8.06373 11.4508 8.0649 11.4451 8.0672 11.4399C8.0695 11.4346 8.07287 11.4298 8.0771 11.4259C8.08133 11.422 8.08633 11.419 8.09177 11.4171C8.09722 11.4152 8.103 11.4145 8.10875 11.4149C8.10875 11.4149 12.6837 11.7483 12.6837 8.65828C12.6837 6.22078 9.81291 5.95328 8.86791 5.99745H5.15458C5.14264 5.99745 5.1312 6.00219 5.12276 6.01063C5.11432 6.01907 5.10958 6.03051 5.10958 6.04245V13.6991V13.6999ZM8.01291 9.70161V7.68078H8.71458C8.71458 7.68078 9.73458 7.72745 9.81375 8.42495C9.83208 8.47995 9.82791 8.82161 9.81375 8.83995C9.68208 9.66161 8.79625 9.70161 8.79625 9.70161H8.01291Z" fill="#919EAB"/>
<path d="M23.6497 17.4618C23.8888 17.4618 24.0722 17.4618 24.3747 17.3268C25.4188 16.7734 28.9355 8.13509 32.6438 5.47842C32.6705 5.45975 32.6944 5.4373 32.7147 5.41175C32.7292 5.39053 32.7379 5.36578 32.7397 5.34009C32.7397 5.34009 32.7397 5.16175 32.1897 5.16175C28.888 5.07175 25.4547 12.0343 23.6497 14.7893C23.6272 14.8193 23.503 14.7893 23.503 14.7893C23.503 14.7893 22.2938 13.3543 21.243 12.8026C21.1581 12.771 21.0675 12.758 20.9772 12.7643C20.8938 12.7643 20.4055 12.8634 20.1772 13.1051C19.9088 13.3901 19.9138 13.5509 19.9163 13.8984C19.9163 13.9268 19.9347 14.0409 19.968 14.1001C20.2247 14.5518 21.3988 16.1751 22.3597 17.0701C22.5088 17.1768 22.7347 17.4618 23.6497 17.4618Z" fill="#919EAB"/>
<path fill-rule="evenodd" clip-rule="evenodd" d="M33.573 3.17174H36.3038C36.8422 3.17174 37.2763 3.24507 37.608 3.3909C37.9397 3.53673 38.213 3.7459 38.4297 4.0184C38.6463 4.29174 38.803 4.60924 38.9005 4.9709C38.998 5.33257 39.0463 5.7159 39.0463 6.1209C39.0463 6.7559 38.9738 7.2484 38.8297 7.59757C38.6847 7.94757 38.4838 8.2409 38.2272 8.47673C37.994 8.69981 37.7095 8.86208 37.3988 8.94923C36.9963 9.05757 36.6305 9.1109 36.3038 9.1109H33.573V3.17174ZM35.4105 4.51674V7.76173H35.8605C36.2455 7.76173 36.5188 7.72007 36.6805 7.63423C36.843 7.54924 36.9705 7.4009 37.0622 7.1884C37.1538 6.97674 37.2005 6.6334 37.2005 6.15757C37.2005 5.5284 37.0972 5.09757 36.8922 4.8659C36.6863 4.63257 36.3455 4.51674 35.8697 4.51674H35.4113H35.4105ZM39.6913 7.1459L41.4405 7.03757C41.478 7.3209 41.5555 7.53674 41.6713 7.68507C41.8613 7.92507 42.1313 8.0459 42.483 8.0459C42.7455 8.0459 42.948 7.98423 43.0897 7.8609C43.2313 7.7384 43.303 7.5959 43.303 7.43423C43.303 7.28007 43.2355 7.14257 43.0997 7.0209C42.9647 6.89924 42.6513 6.78424 42.158 6.67673C41.3522 6.49507 40.778 6.25507 40.4338 5.95507C40.2667 5.81524 40.1332 5.63953 40.0433 5.44101C39.9535 5.24249 39.9095 5.02626 39.9147 4.8084C39.9147 4.5034 40.003 4.21507 40.1813 3.94423C40.358 3.67257 40.6238 3.45924 40.9797 3.3034C41.3355 3.1484 41.823 3.07007 42.443 3.07007C43.203 3.07007 43.7822 3.21173 44.1813 3.49423C44.5805 3.77673 44.818 4.22507 44.893 4.8409L43.1605 4.94257C43.1147 4.67507 43.0188 4.4809 42.8705 4.35923C42.723 4.23757 42.5205 4.17674 42.2597 4.17674C42.0463 4.17674 41.8847 4.22174 41.7772 4.31257C41.7266 4.35143 41.6856 4.4014 41.6574 4.45862C41.6293 4.51585 41.6146 4.57878 41.6147 4.64257C41.6147 4.73757 41.6597 4.82257 41.7488 4.89757C41.8355 4.9759 42.0405 5.04923 42.3655 5.11673C43.1688 5.28923 43.7447 5.46423 44.0922 5.64173C44.4397 5.8184 44.6922 6.03757 44.8505 6.30007C45.0096 6.56515 45.0918 6.86926 45.088 7.1784C45.088 7.55924 44.983 7.9109 44.7713 8.23174C44.5553 8.55756 44.2477 8.81215 43.8872 8.9634C43.5088 9.13007 43.0313 9.21257 42.4547 9.21257C41.443 9.21257 40.7422 9.01757 40.353 8.62923C39.9638 8.24007 39.743 7.7459 39.6913 7.1459Z" fill="#919EAB"/>
<path fill-rule="evenodd" clip-rule="evenodd" d="M45.8555 7.1459L47.5971 7.03757C47.6346 7.3209 47.7121 7.53674 47.828 7.68507C48.0163 7.92507 48.2855 8.0459 48.6363 8.0459C48.8971 8.0459 49.098 7.98423 49.2396 7.8609C49.3813 7.7384 49.4521 7.5959 49.4521 7.43423C49.4521 7.28007 49.3846 7.14257 49.2496 7.0209C49.1155 6.89924 48.803 6.78424 48.3121 6.67673C47.5096 6.49507 46.9371 6.25507 46.5955 5.95507C46.4289 5.81491 46.2959 5.63908 46.2065 5.44059C46.1171 5.2421 46.0734 5.02604 46.0788 4.8084C46.0788 4.5034 46.1663 4.21507 46.343 3.94423C46.5188 3.67257 46.7846 3.45924 47.1388 3.3034C47.493 3.1484 47.9788 3.07007 48.5955 3.07007C49.3521 3.07007 49.9288 3.21173 50.3263 3.49423C50.7238 3.77673 50.9596 4.22507 51.0355 4.8409L49.3105 4.94257C49.2646 4.67507 49.1688 4.4809 49.0213 4.35923C48.8746 4.23757 48.6713 4.17674 48.413 4.17674C48.2005 4.17674 48.0405 4.22174 47.933 4.31257C47.8826 4.35156 47.8418 4.40158 47.8138 4.45878C47.7858 4.51599 47.7712 4.57886 47.7713 4.64257C47.7713 4.73757 47.8155 4.82257 47.9046 4.89757C47.9905 4.9759 48.1955 5.04923 48.5188 5.11673C49.3188 5.28923 49.8913 5.46423 50.238 5.64173C50.5838 5.8184 50.8355 6.03757 50.993 6.30007C51.1513 6.56173 51.2296 6.85424 51.2296 7.1784C51.2296 7.55924 51.1246 7.9109 50.9146 8.23174C50.6998 8.55732 50.3933 8.81193 50.0338 8.9634C49.6563 9.13007 49.1813 9.21257 48.6071 9.21257C47.5996 9.21257 46.9021 9.01757 46.5146 8.62923C46.1263 8.24007 45.9063 7.7459 45.8563 7.1459H45.8555Z" fill="#919EAB"/>
</g>
<defs>
<clipPath id="clip0_1180_8162">
<rect width="50.8333" height="20" fill="white" transform="translate(0.562256)"/>
</clipPath>
</defs>
</svg>
