<svg width="49" height="24" viewBox="0 0 49 24" fill="none" xmlns="http://www.w3.org/2000/svg">
<g clip-path="url(#clip0_1180_8177)">
<path d="M3.02816 8.42766L0.480469 0.61566H1.5697L2.78631 4.46489C3.12231 5.51904 3.41216 6.47074 3.62078 7.38643H3.64478C3.86447 6.48089 4.18939 5.49504 4.53647 4.47597L5.85831 0.614737H6.93555L4.14139 8.42858H3.02816V8.42766ZM10.4608 5.07781C10.4737 4.42889 10.194 3.41997 9.04662 3.41997C8.01462 3.41997 7.56324 4.37074 7.48201 5.07781H10.4608ZM7.47001 5.80889C7.49401 7.18889 8.3737 7.75658 9.39462 7.75658C10.1257 7.75658 10.5651 7.62735 10.9482 7.46581L11.1226 8.19689C10.7626 8.35843 10.1488 8.54489 9.25616 8.54489C7.52816 8.54489 6.49616 7.40766 6.49616 5.71474C6.49616 4.02274 7.49308 2.68981 9.12693 2.68981C10.9592 2.68981 11.4475 4.30243 11.4475 5.33258C11.4475 5.54028 11.4235 5.70274 11.4115 5.80889H7.47001ZM12.2469 4.56735C12.2469 3.90828 12.2349 3.33966 12.2008 2.8172H13.0934L13.1275 3.91843H13.1737C13.4285 3.1652 14.0432 2.69074 14.7282 2.69074C14.8426 2.69074 14.9257 2.70181 15.0171 2.72489V3.68766C14.9029 3.66204 14.7861 3.64996 14.6691 3.65166C13.9509 3.65166 13.4414 4.19628 13.302 4.96243C13.2727 5.11926 13.2566 5.27829 13.254 5.43781V8.42858H12.2479V4.56735H12.2469ZM15.6199 2.81628H16.6417V8.42766H15.6199V2.81535V2.81628ZM16.7571 1.24058C16.7691 1.58858 16.5125 1.86735 16.1082 1.86735C16.026 1.8684 15.9446 1.85278 15.8687 1.82144C15.7927 1.7901 15.724 1.74369 15.6665 1.68501C15.609 1.62634 15.5641 1.55662 15.5343 1.48007C15.5046 1.40353 15.4906 1.32174 15.4934 1.23966C15.4934 0.881507 15.7592 0.602737 16.1322 0.602737C16.5125 0.602737 16.7571 0.881507 16.7571 1.23966V1.24058ZM17.9746 8.42766V3.59443H17.1854V2.8172H17.9746V2.55135C17.9746 1.76397 18.1491 1.04489 18.6235 0.59166C19.0066 0.221506 19.5152 0.0710449 19.9915 0.0710449C20.3515 0.0710449 20.6635 0.151353 20.8611 0.233506L20.7226 1.02089C20.5176 0.931669 20.2954 0.888501 20.0719 0.89443C19.2042 0.89443 18.9835 1.65966 18.9835 2.5172V2.8172H20.3386V3.59443H18.9835V8.42951H17.9746V8.42766ZM21.3457 2.81628H22.3648V8.42766H21.3457V2.81535V2.81628ZM22.4792 1.24058C22.4931 1.58858 22.2355 1.86735 21.8312 1.86735C21.749 1.86852 21.6675 1.853 21.5914 1.82171C21.5154 1.79043 21.4465 1.74404 21.389 1.68535C21.3314 1.62666 21.2864 1.5569 21.2565 1.48029C21.2267 1.40368 21.2128 1.32182 21.2155 1.23966C21.2155 0.881507 21.4832 0.602737 21.8543 0.602737C22.2355 0.602737 22.4792 0.881507 22.4792 1.23966V1.24058ZM27.1519 5.07781C27.1629 4.42889 26.886 3.41997 25.7377 3.41997C24.7066 3.41997 24.2552 4.37074 24.1722 5.07781H27.1519ZM24.1611 5.80889C24.1851 7.18889 25.0657 7.75658 26.0866 7.75658C26.8177 7.75658 27.2562 7.62735 27.6402 7.46581L27.8155 8.19689C27.4546 8.35843 26.838 8.54489 25.9472 8.54489C24.2192 8.54489 23.1872 7.40766 23.1872 5.71474C23.1872 4.02274 24.1851 2.68981 25.818 2.68981C27.6512 2.68981 28.1377 4.30243 28.1377 5.33258C28.1377 5.54028 28.1155 5.70274 28.1017 5.80889H24.162H24.1611ZM32.7642 5.10181C32.7642 4.97351 32.7522 4.79904 32.718 4.67166C32.5675 4.02274 32.01 3.49012 31.2457 3.49012C30.1906 3.49012 29.5657 4.41689 29.5657 5.65935C29.5657 6.79474 30.1205 7.73166 31.2235 7.73166C31.9057 7.73166 32.5315 7.2812 32.718 6.51412C32.7522 6.37566 32.7642 6.2372 32.7642 6.07566V5.10181ZM33.7851 0.19843V6.97843C33.7851 7.47689 33.7962 8.04366 33.8303 8.42766H32.9165L32.8685 7.45474H32.8445C32.5315 8.07966 31.8485 8.55412 30.9319 8.55412C29.5749 8.55412 28.5337 7.40674 28.5337 5.70181C28.5217 3.83535 29.6811 2.68981 31.0491 2.68981C31.9057 2.68981 32.4863 3.09597 32.7402 3.54735H32.7642V0.197506H33.7851V0.19843ZM38.6174 6.17904C38.6174 6.30551 38.6414 6.43381 38.6645 6.55012C38.8611 7.2572 39.4509 7.74366 40.194 7.74366C41.2611 7.74366 41.898 6.87504 41.898 5.58828C41.898 4.46489 41.3174 3.50212 40.23 3.50212C39.534 3.50212 38.8851 3.97658 38.6755 4.75289C38.6515 4.8692 38.6174 5.00766 38.6174 5.17012V6.17904ZM37.5623 8.42858C37.5854 8.04458 37.6085 7.47781 37.6085 6.97935V0.196583H38.6174V3.72089H38.6414C38.9995 3.09505 39.6485 2.68889 40.554 2.68889C41.946 2.68889 42.93 3.84828 42.9199 5.55135C42.9199 7.5572 41.6552 8.55412 40.4035 8.55412C39.5912 8.55412 38.9423 8.2412 38.5251 7.49997H38.4909L38.4429 8.42766H37.5623V8.42858ZM44.0331 2.81628L45.2608 6.13289C45.39 6.50397 45.5285 6.9452 45.6199 7.2812H45.6429C45.7491 6.94428 45.8645 6.51504 46.0039 6.10889L47.1162 2.81628H48.1943L46.6639 6.81689C45.9337 8.74151 45.4352 9.72643 44.7402 10.3292C44.2417 10.7686 43.7432 10.943 43.4885 10.9901L43.2319 10.1317C43.4885 10.0514 43.8226 9.88889 44.1245 9.6332C44.4032 9.41258 44.7503 9.01935 44.9839 8.49782C45.03 8.39258 45.0642 8.3132 45.0642 8.25412C45.0548 8.16239 45.0311 8.07269 44.994 7.98828L42.9199 2.81535H44.0331V2.81628ZM17.4005 12.2566L14.3082 20.0769L13.0565 13.4289C12.9125 12.6867 12.3328 12.2566 11.6875 12.2566H6.63093L6.56262 12.5889C7.59924 12.8178 8.77801 13.1797 9.49339 13.5655C9.93001 13.8055 10.0555 14.0132 10.1968 14.5772L12.5691 23.7461H15.7112L20.526 12.2566H17.4005ZM21.7989 12.2566L19.3435 23.7461H22.3149L24.7675 12.2566H21.7989ZM28.6685 15.4412C28.6777 15.0295 29.0709 14.592 29.9294 14.4757C30.3568 14.4221 31.5282 14.3806 32.8602 14.9907L33.3817 12.5566C32.4931 12.2217 31.5519 12.0482 30.6023 12.0443C27.6632 12.0443 25.5992 13.6089 25.578 15.8474C25.5623 17.4987 27.0559 18.4218 28.1802 18.9729C29.3386 19.5332 29.7291 19.8941 29.7217 20.4018C29.7152 21.1726 28.7977 21.5095 27.9448 21.5234C26.4494 21.5464 25.5817 21.1209 24.8894 20.7997L24.354 23.3169C25.0463 23.6354 26.3294 23.9132 27.6605 23.9261C30.7777 23.9261 32.8205 22.3837 32.8315 19.9957C32.8445 16.9615 28.6389 16.7954 28.6685 15.4412ZM38.4014 12.2566C37.83 12.2566 37.3491 12.588 37.1349 13.1003L32.6765 23.7461H35.8002L36.4195 22.0292H40.2226L40.5808 23.7461H43.3362L40.9389 12.2566H38.4014ZM37.2734 19.6781L38.8519 15.3627L39.7417 19.6772H37.2725L37.2734 19.6781Z" fill="#919EAB"/>
</g>
<defs>
<clipPath id="clip0_1180_8177">
<rect width="48" height="24" fill="white" transform="translate(0.395508)"/>
</clipPath>
</defs>
</svg>
