<svg width="32" height="32" fill="none" xmlns="http://www.w3.org/2000/svg"><path d="M22.667 2.667H9.333c-3.68 0-6.666 2.973-6.666 6.64v9.306c0 3.667 2.986 6.64 6.666 6.64h2c.36 0 .84.24 1.067.534l2 2.653c.88 1.173 2.32 1.173 3.2 0l2-2.653a1.352 1.352 0 0 1 1.067-.534h2c3.68 0 6.666-2.973 6.666-6.64V9.307c0-3.667-2.986-6.64-6.666-6.64ZM10.667 16c-.747 0-1.334-.6-1.334-1.333 0-.734.6-1.334 1.334-1.334.733 0 1.333.6 1.333 1.334C12 15.4 11.413 16 10.667 16ZM16 16c-.747 0-1.333-.6-1.333-1.333 0-.734.6-1.334 1.333-1.334s1.333.6 1.333 1.334C17.333 15.4 16.747 16 16 16Zm5.333 0C20.587 16 20 15.4 20 14.667c0-.734.6-1.334 1.333-1.334.734 0 1.334.6 1.334 1.334 0 .733-.587 1.333-1.334 1.333Z" fill="#fff"/></svg>