<svg width="60" height="40" xmlns="http://www.w3.org/2000/svg" xmlns:xlink="http://www.w3.org/1999/xlink"><defs><path id="a" d="M0 .01h11.997v10.617H0z"/><path id="c" d="M0 15.98h11.997V0H0z"/><path id="e" d="M30 .04v3.267l-5.381 2.99H30v7.072h-7.042L30 17.281V20h-3.179l-8.756-4.865V20h-6.63v-5.787L1.018 20H0v-3.919l4.881-2.712H0V6.297h6.542L0 2.662V.04h3.35l8.085 4.491V.04h6.63v5.414L27.811.04z"/><path id="g" d="M16.656.04v7.887H30v3.812H16.656V20h-3.812v-8.261H0V7.927h12.844V.04z"/><path id="i" d="M.065.369H3.44L12 5.125V7z"/><path id="k" d="M.065.369H3.44L12 5.125V7z"/><path id="m" d="M.065.369H3.44L12 5.125V7z"/><path id="o" d="M0 6.722V4.847L8.06.37h3.375z"/><path id="q" d="m.173.04 11.262 6.257H8.06L0 1.819V.04z"/><path id="s" d="m.173.04 11.262 6.257H8.06L0 1.819V.04z"/><path id="u" d="m.173.04 11.262 6.257H8.06L0 1.819V.04z"/><path id="w" d="M12 .04v1.501L3.44 6.297H.065L11.327.04z"/></defs><g fill="none" fill-rule="evenodd"><path fill="#00247D" d="M.02 40h59.95V.042H.02z"/><path d="M29.996.042.02 15.029M.02.042l29.975 14.987M15.008 7.535l14.988 7.494-14.988-7.494ZM.021 15.03l14.987-7.494L.021 15.03Z" fill="#000"/><g transform="translate(39 13)"><path d="M11.937 5.422c-.011 4.05-.655 8.415-5.938 10.493C.715 13.837.07 9.473.059 5.422h11.878Z" fill="#128BBF"/><path d="M5.999 15.916c2.395-.943 3.878-2.48 4.74-4.12-.136-.046-.406-.05-.516-.01-.13-.01-5.108-.376-5.692-.589-.509-.185-2.449.158-3.354.479.844 1.744 2.308 3.25 4.822 4.24" fill="#E8ECE9"/><path d="M2.306 13.404a.806.806 0 0 1 .296-.009c.072.013.085.02.11-.058.027-.077.085-.058.13-.019.046.039.163.02.208-.045.046-.064.059-.058.104-.013.046.045.065.032.11.02a.31.31 0 0 0 .163-.136c.04-.07.097-.097.13-.058.032.039.065.058.11.052.046-.007.059.038.052.096-.006.058.02.071.13-.019.098.097.13.058.13-.045 0-.103-.026-.483-.065-.535a.736.736 0 0 1-.084-.316c-.013-.22-.013-.232-.28-.367 0-.078-.02-.11-.207-.097.006-.026-.026-.103-.065-.136-.04-.032-.046-.045-.026-.135.078.007.162-.006.208-.07.045-.065.194-.052.285-.014.091.04.208.046.383.02.065-.052.176-.11.293-.174.116-.065.149-.09.155-.18a1.305 1.305 0 0 0-.13-.62c-.064-.122-.084-.277-.175-.47-.099-.21-.097-.264-.208-.393-.03-.036-.065-.065-.071-.135a.366.366 0 0 0-.11-.24c-.197-.178-.273-.753-.351-1.179-.045-.243-.013-.818-.117-.908-.175-.142-.26-.116-.377-.162-.084-.116-.123-.348-.201-.554-.123.02-.208.148-.292.194-.085.045-.098.045-.098.16 0 .117-.065.278-.181.458-.117.18-.312.13-.475.4-.357-.432-.363-.554-.39-.677-.025-.122-.084-.148-.285-.322 0-.052-.026-.258-.006-.374-.15-.122-.26-.103-.332-.013-.071.09-.123.226-.234.277-.066.084-.265.295-.429.546.149 2.243.659 4.47 2.192 6.25" fill="#69522B"/><path d="M11.937 5.422c.005-1.526-.08-3.007-.041-4.305C9.92.24 7.324.06 5.999.06 4.674.06 2.076.24.102 1.117.14 2.415.056 3.897.06 5.422h11.877Z" fill="#BCA76B"/><path d="M.381 7.188c.065.104.182.28.195.377.045-.093.081-.135.09-.193.01-.058.079-.17.053-.232-.026-.061-.046-.11.026-.064.071.045.057.123.042.238-.042.316-.175.38-.195.593.192.448.049.61.257 1.048.032.019.119-.016.145-.01.11-.077.192-.049.348-.016.156.032.24.141.24.238s0 .123.033.18c.033.059.098.149.085.213-.014.065.013.103.032.136.02.032-.006.103-.026.148-.02.045-.013.103.065.2.078.096.26.503.26.74 0 .24.013.35.11.394.098.045.13.084.117.187-.013.103.046.638.059.722.013.084.045.065.084.11.039.045.065.096.195.096s.255-.017.34-.004c.116.161.188.38.214.516.026.135.024.32.07.32.045 0 .09.006.077-.161-.013-.168-.026-.194-.084-.277-.059-.084-.091-.123-.059-.175a.298.298 0 0 0 .026-.2c-.013-.064-.032-.16.078-.032.11.13.143.161.176.207a.344.344 0 0 1 .039.206c-.007.077.006.11.051.07.046-.038.104.026.078.11-.026.084.007.136.085.162.078.025.11.045.13.103.02.058.084.083.084-.033s-.045-.36-.078-.438a1.39 1.39 0 0 1-.065-.342c-.006-.096-.026-.122-.071-.141-.046-.02-.085-.052-.091-.097-.007-.045-.046-.061-.075-.061-.03 0-.055-.023-.071-.055-.016-.032-.033-.035-.065-.039-.033-.003-.085.016-.1-.035-.017-.052-.04-.126-.072-.168-.033-.042-.062-.055-.065-.2-.004-.145-.007-.164-.052-.216a1.952 1.952 0 0 1-.156-.244c-.032-.058-.065-.116-.065.006 0 .122 0 .187.078.232.078.045.097.045.065.11-.033.064 0 .11.013.154.013.046.039.09 0 .136-.04.045-.078.032-.072-.039a.4.4 0 0 0-.051-.213c-.033-.058-.059-.096-.098-.064-.039.032-.071-.007-.045-.032.026-.026.02-.046 0-.065-.02-.02-.026-.039.006-.077.033-.039.033-.058.013-.148-.02-.09-.162-.542-.227-.645-.065-.103-.059-.18.026-.077.084.103.156.193.162.277.007.084.026.135.052.167.026.033.046.02.059-.051.013-.071.065-.045-.026-.18-.091-.136-.26-.362-.325-.768s-.091-.677-.156-.786c-.065-.11-.084-.135-.091-.238-.006-.104 0-.207-.045-.284-.046-.077-.078-.09-.085.026-.006.116.007.374.04.419.032.045.012.16.006.225-.007.065-.11.128.104.258.084.052.07.123.058.168-.013.045-.026.038-.071-.032a.766.766 0 0 0-.137-.168c-.045-.039-.052-.065-.045-.155.006-.09.026-.155 0-.187s-.04-.006-.052.045c-.013.052-.026.194-.052.232-.026.04-.04.013-.059-.07-.02-.084.007-.213.052-.361a.958.958 0 0 0 .033-.497c-.04-.193-.02-.251-.17-.412-.149-.161-.317-.316-.389-.516-.071-.2-.084-.374-.162-.464-.078-.09-.188-.206-.26-.238V6.46c0-.07-.032-.116-.117-.103-.084.013-.136.084-.188.18-.052.097-.091.052-.163.22-.071.167-.175.25-.175.431" fill="#CFA763"/><path d="M.849 9.077c.052.032.101.054.18.015.077-.039.17-.15.274-.04.104.109.163.29.163.431 0 .142 0 .406.162.554.162.148.247.303.253.497.007.193.078.49.098.567.02.077.065.167.117.219.052.052.09.2.097.354.007.155-.02.265 0 .342.02.077 0 .142-.058.103-.059-.038-.072-.058-.104-.122-.033-.065-.072-.052-.04.045.033.097.13.187.215.187.085 0 .11.013.162.064.052.052.059.078.15.078a.46.46 0 0 1 .188.025c.085.026.085.013.13 0 .046-.013.09.026.123.11s.11.316.11.38c0 .065 0 .13.046.194s.033.129-.02.09c-.051-.039-.051-.026-.09-.02-.04.007-.065-.012-.117-.045-.052-.032-.02-.025-.071-.103-.052-.077-.085-.103-.085-.045 0 .058-.006.13-.045.097-.04-.032-.059-.032-.091 0-.033.032-.046.058-.085-.007-.039-.064-.084-.064-.123-.077-.04-.013-.04-.013-.058-.071-.02-.058-.078-.07-.13-.07-.052 0-.078-.027-.085-.065-.006-.039-.039-.065-.065-.084-.026-.02-.013-.064-.02-.11-.006-.045-.045-.025-.07-.038-.027-.013-.046-.007-.046-.071 0-.065-.026-.084-.046-.13-.02-.044 0-.09.013-.14.013-.052.007-.085-.032-.13s-.007-.09-.11-.18c-.104-.09-.156-.013-.189-.226-.032-.213-.097-.65-.156-.722-.058-.07-.097-.122-.156-.142-.058-.019-.097-.006-.104-.129-.006-.122-.045-.277-.123-.354a1.613 1.613 0 0 0-.15-.135c-.038-.033-.051-.09 0-.2.053-.11.033-.258.027-.329-.007-.07-.026-.16-.013-.238a.506.506 0 0 0-.013-.226c-.02-.052-.046-.065-.013-.103" fill="#CFA763"/><path d="M2.823 12.603c-.039.077-.084.051-.123.013-.04-.04-.085-.04-.065-.11.02-.071.013-.084-.04-.123l-.017-.012h-.06c-.091 0-.098-.026-.15-.078a.447.447 0 0 0-.031-.029v.049c0 .07 0 .058-.072.077-.072.02-.059-.071-.072-.13a.213.213 0 0 0-.011-.034c-.078-.015-.16-.097-.19-.184-.033-.097.006-.11.039-.045.032.064.045.084.104.122.058.039.078-.025.058-.103a.326.326 0 0 1-.007-.085.125.125 0 0 0-.058-.057c-.104-.045-.071-.058-.065-.142.007-.083-.013-.083-.078-.038-.065.045-.071-.007-.071-.135 0-.13-.085-.13-.104-.04-.02.091-.052.033-.09-.096-.04-.129-.092-.161-.098-.039-.006.104-.035.129-.103.071l.031.2c.033.213.085.135.189.226.103.09.071.135.11.18.039.045.045.078.032.13-.013.05-.032.096-.013.14.02.046.046.065.046.13 0 .064.02.058.045.07.016.009.037.004.053.01.016-.021.032-.048.051-.067.078-.078.195.006.234.103.04.097.084.122.143.045.058-.077.039-.064.104.007.065.07.09.058.09.058s.066-.026.111.012c.046.04.072.033.156-.09.084-.122-.039-.084-.078-.006Z" fill="#D7C99C"/><path d="M2.882 13.505c.155-.013.578-.135.623-.174.104.07.286.168.364.168-.15.032-.247.012-.286-.013.02.045.071.116.104.122-.143-.006-.305-.039-.357-.09-.124.051-.332.064-.448-.013m.278.193c.056.017.332.062.368.062-.091.077-.013.151.14.138-.075.01-.157.038-.101.048.133.026.493-.07.565-.11-.124.159-.724.304-.971-.138m.247.407c.074-.06.26-.04.347.025-.098.055-.289.055-.347-.025" fill="#7FB8C1"/><path d="M3.687 14.085c.133-.022.51.068.643-.013-.046.12-.283.136-.364.11-.081-.026-.16-.058-.214-.055.029-.016-.02-.02-.065-.042m.136.184c.1.016.461-.03.572-.071.116.039.347.1.4.093-.111.068-.323.03-.39 0-.195.065-.355.084-.582-.022" fill="#7FB8C1"/><path d="M3.995 14.33a.74.74 0 0 0 .41-.039.652.652 0 0 0 .246.037c.065.037.153.089.237.095-.087.036-.41 0-.474-.035-.162.003-.442.039-.51.093-.003-.045.027-.107.091-.152m-.172-.727c.113.037.52.02.727-.078.082-.038.133.026.04.058-.338.116-.605.162-.8.058-.076-.04-.084-.077.033-.038m1.994-.548c-.5.232-.832.303-1.526.09-.065-.02-.11 0-.04.045.072.045.455.148.546.155.091.006.059.048.004.064-.056.016-.072.055.003.026.074-.029.492-.04.662.048.075.04.094.033.088.004-.007-.03.032-.049.087-.055.056-.007.088-.026.046-.042-.042-.016-.049-.026-.016-.042.032-.016.035-.032-.013-.042-.049-.01-.081-.022-.036-.045a.573.573 0 0 1 .166-.045c.013-.035-.01-.129.029-.161" fill="#7FB8C1"/><path d="M4.985 13.112c.286.02.812-.11 1.092-.38.097.057.233.122.305.135.071.013.136.077.026.077a.998.998 0 0 1-.338-.077c-.37.226-.803.3-1.078.277-.078-.006-.097-.039-.007-.032m-.451-.806c-.038.007-.204.045-.25.042-.045-.003-.09.01-.087.042.003.032.016.051-.052.045-.069-.006-.127.02-.143.039-.017.02-.03.038.039.045.068.006.104.013.182-.023.077-.035.152-.09.237-.093.084-.003.168-.113.074-.097" fill="#7FB8C1"/><path d="M4.3 12.506c.071.046.423.164.55.155.126-.01.102.05.006.07-.198.042-.44-.043-.604-.173-.081-.065-.007-.088.048-.052" fill="#7FB8C1"/><path d="M5.963 12.677a1.297 1.297 0 0 1-.653.026c-.11-.03-.21-.036-.136.035.075.07.315.12.451.084-.484.11-.61.1-.73.08a2.347 2.347 0 0 0-.442-.006.427.427 0 0 1-.211-.03c-.042-.025-.055-.073.071-.06.127.012.143-.013.033-.03-.11-.016-.263.03-.114.123.15.094.478-.006.685.052.208.058.65.1 1.069-.236.021-.017.058-.064-.023-.038m-.627-.267a.586.586 0 0 1-.204-.056c-.052-.022-.127-.025-.072.049.055.074.296.116.38.08.085-.035.05-.074.133-.022a.514.514 0 0 0 .234.087c.062 0 .085 0 .016-.039-.068-.039-.1-.048-.107-.08-.006-.033-.016-.052.046-.033.061.02.133.055.182.03.048-.026.14-.084.22-.084l.02-.049c-.117-.01-.192.026-.224.039a.319.319 0 0 1-.153.01c-.062-.01-.143-.017-.162-.033-.02-.016-.02-.029.032-.038.052-.01.068-.046-.003-.033a1.035 1.035 0 0 1-.364-.025c-.1-.032-.143-.036-.185-.02-.042.016-.036.061.026.065.062.003.202.016.25.06.049.046.043.05-.013.027-.055-.023-.156-.01-.052.064m2.351-.174c-.195.142-.428.174-.708.194-.08.005-.056.028.013.035.293.029.63-.077.74-.193.033-.034.03-.09-.045-.036m-1.327.329c.084.003.376.077.47.11.071-.007.09-.023.078-.049-.013-.026-.023-.055.107-.048.13.006.429.003.484.003.046-.02.146-.097.191-.1a13.52 13.52 0 0 1-.665.026c-.062-.006-.094 0-.133.022-.04.023-.062.033-.11.013-.05-.019-.137-.045-.186-.016-.048.03-.15.003-.237.039" fill="#7FB8C1"/><path d="M7.499 12.58c.046-.02.146-.097.191-.1.085-.006.182.03.228.036.045.006.094-.004.062-.04-.033-.035-.004-.096.13-.08.132.016.2.039.33.026.13-.013.19.084.436-.013-.02.097.026.103.071.084.046-.02.098-.013.176.045.078.058.552.065.662.045.11-.019.169.039.084.065-.084.026-.104.064-.084.09.02.026.039.058-.065.045-.104-.013-.123.02-.175.058-.052.039-.065.052-.208.026s-.169-.007-.247.006a.274.274 0 0 1-.175-.013.702.702 0 0 0-.35-.019c-.105.032-.183.065-.274.039-.09-.026-.097-.013-.039-.071.059-.058.072-.052.182-.065.11-.012.195-.045.117-.09s-.104-.038-.208.013c-.104.052-.156.084-.272.02a.288.288 0 0 0-.254-.033c-.078.02-.207-.025-.318-.074m.39.193c-.15.021-.19-.074-.345-.054-.052.006-.14.07-.019.06.12-.009.25.056.367.046.117-.01.065-.061-.003-.052m-.173.116c.079-.037.24.033.31.016.067-.016.132.038.06.067-.07.029-.243-.054-.32-.025-.079.029-.157-.009-.05-.058m-1.552.413c.107.003.494-.013.647-.335.011-.025.022-.036.071-.003.049.032.227.138.562.167.093.008.195.055.006.042-.188-.013-.487-.064-.587-.126-.17.265-.473.296-.699.29-.136-.003-.103-.038 0-.035" fill="#7FB8C1"/><path d="M6.999 12.864c-.052.07-.23.193-.312.2a1.636 1.636 0 0 1-.386-.04c-.062-.022-.137-.015-.049.046a.697.697 0 0 0 .393.084c.088-.02.188-.049.256-.007.069.042.195.123.27.106a.66.66 0 0 1 .276.007c.049.023.133.09.007.052-.127-.04-.231-.007-.29-.033.065.09.213.236.338.236.03 0 .049.051-.013.08.062.03.205.052.28-.016-.02.026-.01.042.022.058.033.016.072.039.013.045-.058.007-.191.023-.23.007.126.08.454.21.789.145.063-.013.097-.039-.007-.036-.214.007-.227.003-.266-.019-.039-.023-.032-.042.03-.061.06-.02.217-.042.282-.042.065 0 .13-.026-.004-.026-.133 0-.295 0-.36-.023-.065-.022-.114-.051-.045-.096.068-.045.14-.032.172-.074-.215-.004-.478-.116-.332-.22.034-.023.023-.025-.032-.032a1.12 1.12 0 0 1-.286-.09c-.068-.039-.022-.07.033-.08-.127.022-.38-.046-.55-.171m1.907-.007c-.117.087-.338.123-.432.123-.094 0-.107.032-.032.042.074.01.156.019.188.01.033-.01.052-.014.1.009a.38.38 0 0 0 .244.006c.091-.029.24-.042.302-.038.062.003.13.006.007-.03a.938.938 0 0 0-.374.004c-.049.013-.182.003-.11-.02a.54.54 0 0 0 .169-.087.464.464 0 0 1-.062-.019m-.062.252a.757.757 0 0 1-.396.15c.137.05.25.188.338.182-.042.025-.094.064-.15.07.085.023.228-.003.345-.067.195.055.448.02.532-.052a.615.615 0 0 1-.347-.103.21.21 0 0 0 .15-.074.79.79 0 0 1-.472-.106" fill="#7FB8C1"/><path d="M8.636 13.511c.055-.006.107-.045.149-.07-.107.035-.575-.04-.714-.162-.14-.122-.14-.029-.043.058.098.087.27.22.608.174m.344.297c-.059.032-.338.051-.429.032-.09-.02-.13-.01-.107.026.023.035.032.068-.042.058a.759.759 0 0 0-.263.026c-.055.019-.124.067-.007.048.117-.02.224-.042.312-.02.088.023.4.03.461.004.062-.026.02-.026-.01-.026-.029 0-.042-.02 0-.039s.075-.074.085-.11m-2.702-.373a3.296 3.296 0 0 1-.61.161.857.857 0 0 1-.3.09.49.49 0 0 0 .293.059c-.039.038-.13.083-.162.103.104-.013.227.012.279.019a.782.782 0 0 1-.422.09c.032.045.078.09.136.09a.722.722 0 0 1-.35.007c.032.064.064.103.11.11-.104.012-.234.032-.344-.033.084.11.272.148.552.116.279-.032.513-.154.578-.206a1.63 1.63 0 0 1-.351.006c.156-.038.493-.18.552-.238a.313.313 0 0 1-.175-.052c.09.013.409-.025.506-.064a.372.372 0 0 1-.22-.142c.409.13.864.087 1.084.032.052-.012.058-.078-.045-.07-.182.012-.533-.04-.624-.084a.65.65 0 0 0 .26.116c-.169.045-.403.077-.747-.11" fill="#7FB8C1"/><path d="M5.499 13.847c.032-.02.123-.065.162-.103a.49.49 0 0 1-.292-.058.857.857 0 0 0 .298-.09c-.233-.007-.396-.007-.48-.052-.085-.045-.24-.033-.299-.02-.058.013-.039.11.208.084-.104.071-.383.097-.487.071.026.084.045.168.02.213.136.077.493.174.668.16-.156-.057-.24-.122-.11-.135.13-.012.201-.038.312-.07m-.403.419c.31-.026.727-.032 1.058-.31.085-.07.142-.047.059.026-.175.155-.61.367-1.026.374-.17.002-.247-.078-.091-.09m2.328-.51a1.227 1.227 0 0 1-.36.055c-.065-.01-.16-.013-.211.02-.052.032-.055.051.016.057.071.007.162.013.208.01a.342.342 0 0 0-.11.097.657.657 0 0 1 .35.051c-.042.013-.09-.003-.127-.022.176.184.695.184.78.151-.04.03-.075.058-.114.068a.687.687 0 0 0 .48-.074c-.055.01-.22-.007-.262-.01a.313.313 0 0 1 .126-.074c-.065-.013-.27-.006-.318.02.02-.04.055-.088.094-.104-.256 0-.568-.003-.682-.064.182.02.384-.087.468-.087-.143-.003-.299-.036-.338-.094m-.652.142a2.058 2.058 0 0 0-.37.106c-.053.03-.108.046.006.046s.422.013.49.022a3.893 3.893 0 0 0-.451-.032c-.046 0-.098-.003-.013-.029.084-.026.195-.084.338-.113m-.257.3c.045 0 .244 0 .322-.068.08.062.237.148.337.148.1 0 .091.026.003.036a.633.633 0 0 1-.347-.106c-.117.042-.214.006-.315-.01m-1.503.867c.2.077.467.135.662.07.11.097.338.104.461.078a.66.66 0 0 1 .37.007c.137.045.416.048.494.112-.072.004-.224 0-.26.01-.036.01-.016.032.049.068-.22-.013-.6.08-.718.18a.41.41 0 0 1 .377-.235c-.117-.042-.49-.045-.61.029a.373.373 0 0 1-.082-.129c-.198.113-.588-.048-.743-.19m-.517-.361c.24-.034.403-.11.474-.18.043.038.218.077.41.019a.093.093 0 0 0-.026.113 1.473 1.473 0 0 0-.449.106c-.08.042-.318.07-.396.029-.078-.042-.08-.077-.013-.087" fill="#7FB8C1"/><path d="M5.353 14.656a1.473 1.473 0 0 0-.449.106.375.375 0 0 1 .03.119c.233-.084.77-.135.974-.103-.098.006-.283.106-.386.12.253-.02.5.031.564.047.065.017.078.065.03.11-.05.045-.072.052.032.055.104.003.318-.01.416-.103-.04-.042-.14-.026-.17-.055a.451.451 0 0 0 .176-.106 1.593 1.593 0 0 1-.299-.02c-.058-.012-.1-.029-.029-.067a.42.42 0 0 0 .127-.097c-.127.035-.325.064-.49-.064a.582.582 0 0 0 .26-.017.333.333 0 0 0-.147-.051c.133-.065.396-.123.721.006.162-.013.338-.006.461.026.052-.052.163-.174.221-.206-.383.032-1.072-.039-1.059-.239-.123.161-.409.252-.532.226-.013.058.039.129.084.167a1.59 1.59 0 0 1-.454.026c.058.058.169.11.233.103-.136 0-.207.026-.314.017" fill="#7FB8C1"/><path d="M6.148 15.11c.104.003.318-.01.416-.103-.04-.042-.14-.026-.169-.055a.451.451 0 0 0 .175-.106c.273-.023.517-.01.633-.045.117-.036.416-.016.475-.033-.26.042-.312.065-.325.107-.013.042.084.077.146.077-.117-.007-.263.116-.276.164-.156-.09-.23.017-.247.052a.496.496 0 0 0-.39.074c-.142-.042-.237-.064-.38-.042.088-.02.072-.077-.058-.09m1.247-.754c.088-.004.28.006.347-.004a.415.415 0 0 0-.116.084c.22-.026.522-.042.61-.029-.107-.016-.217.052-.273.087-.055.036-.022.058.052.068.075.01.176.068.04.048a2.649 2.649 0 0 0-.472-.01c-.065.01-.1-.022-.006-.035a.548.548 0 0 0 .204-.07.79.79 0 0 1-.272.006c-.046-.013-.075-.039-.023-.052.052-.013.016-.032-.039-.026a.623.623 0 0 0-.273.14c.085-.088.16-.165.221-.207m-.99.144a.56.56 0 0 0 .435.194c.042.001.12.058.02.062-.274.01-.41-.055-.53-.23-.025-.035.02-.085.075-.025m3.461-1.466c-.08.054-.188.151-.117.286l.025-.014a7.87 7.87 0 0 0 .822-1.2c.003-.014.006-.027.007-.04a1.143 1.143 0 0 1-.292.175c.039.103-.143.238-.24.277.039.064.026.161-.059.18.02.058-.045.058-.123.09-.078.033-.117.058-.143.097.042-.022.1-.042.133-.032.033.01.04.058-.02.07a.202.202 0 0 0-.116.072c.084-.032.204-.016.123.039m-5.725-1.47c.098.068.27.18.494.164.11.087.283.161.36.177-.149.062-.311.113-.354.162-.068-.065-.155-.055-.178-.087-.065.051-.055.083-.013.11.042.025.37.08.451.057.081-.022.103.044.036.068-.175.061-.516.003-.633-.184-.117-.187-.218-.258-.536-.087-.036-.09-.036-.113-.098-.113-.061 0-.175-.08-.087-.077a1.03 1.03 0 0 0 .558-.19" fill="#7FB8C1"/><path d="M4.22 11.98c-.055.014-.209.097-.264.104-.055.006-.152.084-.052.087.1.003.23-.107.302-.116.072-.01.078-.09.013-.074m.426.302c.01.033.01.068 0 .09-.01.023-.01.052.032.02s.068-.07.11-.048c.043.022.15.02.198.013.05-.007.065-.016-.006-.046a.443.443 0 0 0-.182-.035.296.296 0 0 1-.12-.02c-.032-.012-.042-.006-.032.026m1.539.01-.02.049c.12-.004.413.025.507.083.09-.07.075-.093.14-.08.064.013.146.035.181.016.036-.02.062-.016.101-.01a.324.324 0 0 0 .172-.039.527.527 0 0 1 .208-.067c.058 0 .13-.013.023-.03a.87.87 0 0 0-.325.036 1.44 1.44 0 0 1-.318.032c-.098 0-.23.049-.341.02-.11-.03-.263-.01-.328-.01m1.848-.045c.143.067.431.126.656.116.039-.002.117.04.019.048a1.17 1.17 0 0 1-.692-.129c-.058-.032-.039-.06.017-.035m.146-.003c.22-.007.386-.003.454.061.127-.039.354-.061.406-.052.052.01.11-.012-.01-.041a1.786 1.786 0 0 0-.487-.023c-.087.016-.36.026-.451.016.039.007.065.013.088.039m.857.087c.104-.055.402-.003.493-.042-.064.077.208.084.445.023-.09.058-.285.067-.37.103-.084.035-.13.01-.195-.02a.745.745 0 0 0-.373-.064" fill="#7FB8C1"/><path d="M9.973 12.312c-.237.062-.51.055-.445-.022-.09.039-.39-.013-.493.042.107-.065.188-.013.266-.145.049.01.163.016.201-.035.069.016.189.045.225.08.035.035.09-.01.045-.064.107-.039.04.046.289-.016.052-.013.179-.036.22-.04a1.538 1.538 0 0 1-.308.2" fill="#7FB8C1"/><g transform="translate(0 5.353)"><mask id="b" fill="#fff"><use xlink:href="#a"/></mask><path d="M.12.13c.018 4.193.757 8.343 5.879 10.369 5.122-2.026 5.86-6.176 5.879-10.37H.12Zm5.879 10.497-.022-.009C3.558 9.667 1.929 8.182.997 6.08.124 4.106.006 1.83 0 .07V.01h11.997v.06c-.01 3.352-.538 4.973-.997 6.01-.932 2.102-2.56 3.587-4.98 4.538l-.02.009Z" fill="#000" mask="url(#b)"/></g><path d="M2.414 7.244a1.408 1.408 0 0 1-.303.292c-.121.086-.277.155-.19.301.086.146.155.164.172.275.018.112.044.207.13.232.087.026.122.009.122.19 0 .18 0 .249.077.317.078.069.07.138.104.301.035.163.035.516.139.756.104.241.338.697.312.791-.026.095-.061.163.043.275a.734.734 0 0 1 .182.37c.008.094.026.128.13.094.104-.034.156-.069.19-.112.035-.043.104-.034.2.017.095.052.242.104.328.052.087-.052.13-.129.208-.129.122-.086.165-.266.19-.318.027-.051.01-.051-.043-.103-.052-.051-.025-.137-.034-.223a1.086 1.086 0 0 0-.147-.404c-.104-.19-.165-.421-.234-.481-.07-.06-.104-.207-.113-.276-.008-.068-.086-.129-.138-.18-.052-.051-.104-.129-.165-.43a6.69 6.69 0 0 1-.104-.567c0-.051-.008-.06-.06-.077s-.078-.103-.06-.146c.016-.043-.018-.086-.036-.138a.272.272 0 0 1 .035-.197c.035-.052.026-.198-.009-.318-.034-.12-.069-.224-.208-.241-.138-.017-.164-.052-.216-.163-.052-.112-.104-.31-.121-.353-.017-.043-.043-.051-.147.035-.104.085-.139.114-.139.275a.32.32 0 0 0 .052.197c.035.06.043.078.07.24.025.164.173.422-.018.568-.19.146-.165.18-.156.284.009.103-.052.172-.087.025-.034-.146 0-.231.104-.3.104-.07.2-.155.13-.25-.07-.094-.095-.317-.104-.42-.008-.104-.026-.138-.086-.06" fill="#CFA763"/><path d="M.871 9.435c-.005.07.011.147.017.209.006.071.026.22-.026.329-.052.11-.04.167 0 .2a.143.143 0 0 1 .006.005c.106-.035.12-.153.091-.21a.206.206 0 0 1 .013-.193c.035-.06.035-.094.005-.137-.031-.043-.031-.043.004-.164.03-.106-.047-.105-.11-.039M1.979 11.1a3.337 3.337 0 0 1-.098-.566c-.006-.194-.09-.349-.253-.497-.127-.115-.154-.301-.16-.445-.096-.058-.136-.032-.128.076.009.116.126.172.108.34-.017.167-.017.124.065.206.083.081.113.158.07.193-.044.034-.048.094.013.116.06.021.065.086.056.146-.009.06.047.073.082.116.035.043.039.146.004.206-.034.06-.039.155.022.103.06-.051.087-.004.134.078.041.07.076.048.12.027a.54.54 0 0 1-.035-.098m-.507-3.58c-.064.005-.108.061-.071.256.023.121-.07.095-.104.034-.035-.06-.06-.189-.13-.3-.07-.112-.035.077-.043.18-.009.103.06.103.12.19.061.085.01.12-.06.12-.069 0-.034.137-.017.232.017.094-.017.111-.07.034-.051-.077-.017-.198-.008-.344.009-.146.017-.112-.078-.146-.095-.034-.078-.051-.043-.137.034-.086.069-.13.026-.172-.044-.043-.035-.07.034-.078.07-.008.044-.06.104-.077s.087.009.095-.103c.008-.093.04-.15.11-.122.042.143.097.367.135.433m1.583 1.545c.025-.189.008-.378.086-.447.078-.069.173-.206.165.086-.009.292-.018.275-.078.344-.06.069-.113.086-.052.198.06.111.07.12.06.292-.008.172-.008.24.061.327.07.085.087.094.104.189a.568.568 0 0 0 .156.292c.078.068.164.266.173.404.009.137.13.172.242.266.113.095-.025.163-.112.12-.087-.043-.052 0-.104.06s-.07.07-.113-.034c-.043-.103-.19-.172-.26-.198-.069-.025-.13-.137-.19-.249a.334.334 0 0 0-.249-.173c.026.072.04.13.033.156-.026.095-.06.163.043.275a.735.735 0 0 1 .182.37c.008.094.026.128.13.094.104-.034.156-.069.19-.112.035-.043.104-.034.2.017.095.052.242.104.328.052.087-.052.13-.129.208-.129.121-.086.165-.266.19-.318.027-.051.01-.051-.043-.103-.052-.051-.026-.137-.034-.223a1.088 1.088 0 0 0-.147-.404c-.104-.19-.165-.421-.234-.481-.07-.06-.104-.207-.113-.276-.008-.068-.086-.129-.138-.18-.052-.051-.104-.129-.165-.43a13.404 13.404 0 0 1-.098-.51c-.062.098-.104.122-.127.055-.026-.077-.06-.12-.095-.069-.035.052-.044-.043-.044-.086s-.008-.051-.052-.051c-.043 0-.008-.07-.026-.198-.017-.129-.043-.146-.06.009-.017.154-.104.249-.07.283.035.035.018.103-.017.206a.3.3 0 0 0 .009.232c.026.07-.017.198-.035.31-.017.112.07.223.096.034Zm-.71-.533c0 .18 0 .25.077.318.078.07.07.138.104.301.035.163.035.516.139.756.03.072.074.163.117.258a.485.485 0 0 0 .126-.163c.025-.06-.052-.18-.113-.284-.06-.103.009-.137.069-.266.06-.129-.008-.138-.104-.172-.095-.034-.095-.12-.147-.258-.052-.137-.043-.197-.009-.275.035-.077.009-.137-.06-.155-.07-.017-.052-.068-.026-.154s.043-.103-.06-.077c-.08.019-.099.033-.122.062a.488.488 0 0 1 .009.11" fill="#D7C99C"/><path fill="#000" d="m3.788 10.735-.03-.002.208-2.27.03.002zm.519.315-.029-.01c.107-.35.22-.783.31-1.189l.029.007c-.09.406-.203.84-.31 1.191m3.608-1.981a2.792 2.792 0 0 0-.233-.097c-.138-.052-.268-.102-.373-.2l.02-.021c.1.093.222.14.363.193.076.03.154.059.236.099l-.013.026Zm.346 1.574-.03-.004.116-.875.03.004zm-.204.063-.029-.006.207-.899.029.007zm-3.93.241-.028-.01.052-.144a9.69 9.69 0 0 0 .3-.914l.03.007c-.084.323-.195.625-.302.918l-.052.143"/><path d="M8.97 11.994a.27.27 0 0 1-.036.006h-.02a.5.5 0 0 0-.037.005.082.082 0 0 0-.016.006.045.045 0 0 0-.013.008.036.036 0 0 0-.008.013.14.14 0 0 1-.017.02.475.475 0 0 1-.018.02l-.01.01a.403.403 0 0 0-.024.035.317.317 0 0 1-.161.069.433.433 0 0 1-.185 0c-.08 0-.166-.005-.214-.039-.058-.03-.132-.01-.177.016-.036.02-.043.057-.084.069-.025.032-.135.029-.177.015-.096.006-.154-.025-.223-.046-.045-.032-.117-.055-.168-.008a.246.246 0 0 1-.13.07c-.095-.004-.2.012-.27-.024-.076-.006-.106-.048-.176-.069-.08-.013-.118.028-.169.046-.046.038-.11.043-.192.039-.083-.004-.185.01-.238-.023-.068-.008-.111-.047-.16-.07-.05-.038-.142.002-.185.024-.074.011-.101.069-.194.06-.076-.008-.127-.04-.198-.06-.065-.03-.125-.076-.23-.07-.031.042-.099.06-.168.062a.52.52 0 0 1-.17-.015c-.125-.004-.185-.136-.276-.207l-.454-.45c.026-.08.035-.094-.006-.147.017-.08-.038-.09-.016-.171.034-.062-.06-.051-.084-.085-.055-.01-.078-.05-.13-.069a1.008 1.008 0 0 0-.139-.076c-.047-.02-.087-.046-.13-.07-.033-.028-.075-.047-.108-.076a.551.551 0 0 1-.107-.07c-.044-.013-.066-.046-.108-.068-.03-.029-.08-.053-.115-.077-.056-.018-.107-.055-.169-.07-.042 0-.055-.094.023-.091.055.002.09.037.13.061.066.027.13.055.208.07.045.026.086.04.138.06.046.036.105.042.161.077.053.024.115.052.146.077.045.019.068.051.116.07.016.02.05.028.076.053.047.018.09.038.123.061.044.03.068.032.1.062.04.012.29.138.276.123.246.047.355.062.602.097l1.793.028.65-.271.197-.313.96-.175c-.017-.02 1.687-.06 1.723.083.015.06.061.181.006.21-.036.019-1.61-.2-1.634-.059-.01.061.002.443.011.505a171.94 171.94 0 0 1 .053.37l.026.184.027.185" fill="#666"/><path d="m3.222 10.432-.019-.023c.353-.287.626-.547.886-.843l.022.02a7.101 7.101 0 0 1-.889.846m2.48-2.187-.02-.023.935-.808.02.023zm.249 1.123a2.029 2.029 0 0 1-.686-.324l.017-.024a2 2 0 0 0 .677.32l-.008.028Z" fill="#000"/><path d="M5.798 8.295c-.408-.107-.55-.286-.669-.476l.025-.016c.117.185.254.36.651.463l-.007.029ZM4.29 6.439l-.012-.027c.257-.125.46-.28.586-.448l.024.018c-.13.172-.336.33-.597.457m1.426.956c-.196-.072-.383-.148-.516-.277l.02-.022c.13.126.314.2.507.271l-.01.028Zm-.238 3.742a16.85 16.85 0 0 1-.283-1.214l.03-.006c.09.447.173.824.282 1.212l-.03.008Z" fill="#000"/><path d="m5.147 11.134-.021-.021c.552-.567.923-1.089 1.166-1.64l.027.011c-.244.556-.617 1.08-1.172 1.65m2.716-3.087a1.15 1.15 0 0 1-.578-.36l.022-.02c.176.189.34.29.564.352l-.008.028Zm.541-.35a8.642 8.642 0 0 0-.116-.145 3.274 3.274 0 0 1-.331-.464l.026-.015c.098.176.215.32.328.46.04.048.079.096.117.145l-.024.019ZM6.29 7.023l-.026-.013.055-.109c.088-.173.189-.369.202-.56l.03.002c-.014.197-.116.396-.206.572l-.054.108" fill="#000"/><path d="m6.302 6.988-.013-.027c.208-.104.364-.28.515-.45l.056-.063.023.02c-.02.02-.038.042-.057.063-.153.172-.31.35-.524.457m.191-1.131-.01-.028c.136-.05.306-.15.41-.221l.017.025c-.11.075-.278.173-.417.224m1.664 2.08-.016-.025c.198-.124.328-.282.454-.435l.065-.08.023.02c-.022.025-.043.052-.065.079-.121.147-.259.315-.461.44m-.009 1.409-.016-.025c.148-.093.275-.224.398-.35.051-.052.104-.106.158-.156l.02.021a5.77 5.77 0 0 0-.156.156c-.125.128-.253.26-.404.354m.589 1.181-.014-.027c.39-.2.738-.458 1.027-.684l.018.023a6.5 6.5 0 0 1-1.031.688" fill="#000"/><path d="m8.913 10.559-.016-.026c.295-.184.561-.44.819-.686l.032-.031.021.021-.032.031c-.26.248-.527.505-.824.69m.227-2.669a1.158 1.158 0 0 1-.338-.441l.028-.01c.054.142.184.31.33.427l-.02.024Z" fill="#000"/><path fill="#BCA76B" d="m8.614 5.9-.027 4.651.338-.02-.142-4.646z"/><path d="m8.622 5.908-.027 4.634.322-.02-.142-4.628-.153.014Zm-.044 4.652v-.009l.027-4.659.187-.016v.009l.142 4.654h-.008l-.348.021Z" fill="#472B1F"/><path d="M8.84 11.897c.08.049.126.092.193.157.148.136.247.137.459-.001.079.009.159.05.244.034a.913.913 0 0 0 .223-.027c.09-.021.103-.13.135-.203a1.31 1.31 0 0 1 .146-.245c.079-.053.163-.107.217-.186.062-.072.052-.167.039-.255-.007-.083-.014-.16-.013-.244-.02-.106.07-.188.063-.291-.052-.047-.139-.06-.21-.08a2.655 2.655 0 0 0-.374-.054c-.103-.008-.206-.02-.309-.027a3.982 3.982 0 0 0-.304-.015c-.114.003-.231-.011-.343.007-.08.019-.18.012-.246.049a.754.754 0 0 0-.052.237c-.01.07-.015.141-.015.213.004.132-.013.267.023.394.025.103.033.208.053.31.002.081.012.165.07.227Z" fill="#333"/><path d="M8.858 11.874c.08.048.127.092.196.159.138.127.22.126.422-.005l.009-.006.01.001a.67.67 0 0 1 .089.019c.05.013.098.025.147.016h.006a.894.894 0 0 0 .216-.027c.053-.013.073-.07.093-.13a.741.741 0 0 1 .021-.056 1.29 1.29 0 0 1 .15-.252l.007-.006.012-.009a.709.709 0 0 0 .197-.169c.054-.063.047-.143.033-.233a2.584 2.584 0 0 1-.013-.246c-.012-.064.01-.117.032-.17a.304.304 0 0 0 .031-.11.413.413 0 0 0-.139-.052 2.631 2.631 0 0 0-.418-.066l-.14-.013a9.547 9.547 0 0 0-.168-.014 3.935 3.935 0 0 0-.302-.015l-.12-.001a1.172 1.172 0 0 0-.218.008.787.787 0 0 1-.097.014c-.047.005-.095.01-.13.026a.717.717 0 0 0-.046.217 1.4 1.4 0 0 0-.015.212v.114a.925.925 0 0 0 .022.272c.015.063.024.126.033.186.006.043.012.085.02.127.003.09.015.158.06.209m.38.312c-.077 0-.146-.037-.225-.11a.955.955 0 0 0-.19-.153l-.006-.005c-.064-.07-.075-.16-.078-.247a1.793 1.793 0 0 1-.02-.124c-.009-.06-.018-.12-.032-.18a.98.98 0 0 1-.024-.288c0-.037.002-.075 0-.112 0-.082.005-.153.016-.218a.775.775 0 0 1 .053-.244l.004-.01.01-.005a.428.428 0 0 1 .162-.039.604.604 0 0 0 .091-.013c.078-.013.156-.01.232-.009a3.972 3.972 0 0 1 .425.016l.17.015.138.012c.13.01.257.028.38.055l.048.013c.063.016.127.032.174.073l.009.008v.012c.005.056-.015.104-.034.15-.02.047-.038.091-.029.138v.006c0 .083.007.16.014.241.014.1.022.198-.046.278-.053.076-.133.13-.21.182l-.01.006a1.25 1.25 0 0 0-.139.236.697.697 0 0 0-.018.05c-.023.066-.05.149-.137.17a.924.924 0 0 1-.228.027.399.399 0 0 1-.17-.018.583.583 0 0 0-.07-.015c-.105.068-.186.102-.26.102" fill="#000"/><path fill="#000" d="m9.674 10.501-.461-.862.026-.014.46.862zm.692.049a1.68 1.68 0 0 1-.327-.516l.027-.011c.084.2.192.37.322.506l-.022.02Z"/><path d="m10.346 9.194.152.107.01.004c-.05-.046-.098-.097-.16-.11h-.002Zm-.32.046a2.234 2.234 0 0 1-.017.005l-.214.834.23-.84Zm1.017.033a.345.345 0 0 0-.152.084l.09-.052.116-.03a.202.202 0 0 0-.054-.002m-.991.763-.041.014a.12.12 0 0 1 .048.007.22.22 0 0 1 .057.04l-.064-.06Zm.084.039c.055.036.1.081.165.1l-.165-.1Zm.494.043-.285.095c.1.015.188-.05.284-.095" fill="#472B1F"/><path d="m10.04 9.188-.245.89.257-.05.27.15.408-.08.207.03c.064-.285.045-.623.213-.865l-.17.025-.27.095-.212-.082-.17-.12-.288.007Z" fill="#FFF"/><path d="M10.429 9.295a.724.724 0 0 0-.094.263s-.12-.042-.182-.05c-.066-.009-.2 0-.2 0l-.003.006-.057.21c.006 0 .164-.02.235-.01.053.009.15.057.15.057l-.079.34.05.027.11.034.003-.001.046-.01c.021-.115.038-.235.09-.32 0 0 .165.044.257.037.063-.005.193-.019.225-.022.01-.072.019-.144.031-.214a.928.928 0 0 1-.25.035.783.783 0 0 1-.2-.075 1.21 1.21 0 0 1 .087-.22l-.22-.087Z" fill="#C20505"/><path d="M9.848 9.19a6.59 6.59 0 0 1-.299-1.172l.03-.004c.056.396.193.882.297 1.165l-.028.01Z" fill="#000"/><path d="M10.007 10.006c.023 0 .043.002.06.006a.392.392 0 0 1 .133.07c.04.027.078.053.127.061.079.013.15-.01.227-.034a.838.838 0 0 1 .173-.041c.092-.01.247.02.318.036v-.215l.156-.572a.725.725 0 0 0-.155-.018c-.056.005-.11.031-.167.058-.074.036-.15.073-.235.061a.368.368 0 0 1-.175-.094.352.352 0 0 0-.136-.081c-.08-.017-.265.016-.349.035l-.189.757c.055-.012.143-.029.212-.029m.366.2a.338.338 0 0 1-.056-.004.36.36 0 0 1-.15-.072.358.358 0 0 0-.116-.06c-.064-.017-.23.02-.289.035l-.049.012.222-.89.018-.003c.01-.003.276-.065.392-.04a.4.4 0 0 1 .162.093c.047.039.092.075.145.082.067.01.132-.022.201-.055.06-.029.121-.059.188-.064a.868.868 0 0 1 .203.026l.03.007-.17.628v.278l-.036-.009c-.003 0-.227-.054-.335-.043a.783.783 0 0 0-.16.039.67.67 0 0 1-.2.04" fill="#472B1F"/><path fill="#BCA76B" d="m10.009 9.245-.107.006-.339 1.198.157.006z"/><path d="m9.575 10.44.138.005.284-1.19-.088.004-.334 1.181Zm.152.024-.175-.007.343-1.215.125-.007-.293 1.229Z" fill="#472B1F"/><path d="M9.902 9.25c-.047-.025-.08-.102-.056-.15.027-.054.117-.067.175-.05.064.02.153.088.132.15-.028.081-.176.092-.251.05" fill="#BCA76B"/><path d="M9.906 9.243a.24.24 0 0 0 .179.01c.021-.01.05-.025.06-.055a.061.061 0 0 0-.006-.049.217.217 0 0 0-.12-.09c-.059-.017-.142-.002-.165.045-.023.044.01.116.052.139m.1.04a.23.23 0 0 1-.108-.024c-.05-.027-.087-.11-.06-.163.028-.056.12-.074.186-.054a.236.236 0 0 1 .13.099.078.078 0 0 1 .007.063c-.01.028-.034.05-.07.065a.242.242 0 0 1-.085.014m1.131-.006c-.164.236-.15.56-.212.837.078.013.142.027.142.027v-.244l.079-.276.092-.326s-.048-.01-.101-.018" fill="#472B1F"/><path d="M9.776 8.977a3.609 3.609 0 0 1-.29-.342c-.106-.136-.197-.254-.287-.315l.017-.025c.094.064.187.183.294.321.084.109.18.232.287.34l-.021.02ZM9.51 7.878a4.65 4.65 0 0 1-.243-1.265l.03-.001c.017.406.119.934.24 1.255l-.027.01Zm-.23 2.61-.265-.69.027-.012.265.691zm.008-4.184c-.229-.058-.452-.223-.488-.36l.029-.007c.033.127.247.282.467.338l-.008.03Zm-1.476.228h-.008l.002-.03h.006c.147 0 .645-.368.723-.567l.028.01c-.077.196-.58.587-.751.587m1.661 3.945L9.108 9.7l.027-.012.365.778z" fill="#000"/><path fill="#000" d="m9.098 9.969-.01-.028.265-.1.01.028zm.046.145-.012-.028.283-.118.012.027zm.116.291-.012-.027.309-.131.011.027zm.038-1.136-.372-.399.022-.02.372.398zm-1.392 1.428-.028-.008.257-.868.028.009z"/><path fill="#000" d="M8.078 10.065v-.05l.26-.006v.05zm.239.225-.303-.015.001-.05.303.015zm-.047.25-.328-.068.006-.033.328.068z"/><path d="M8.816 5.783c-.061-.02-.22-.025-.284.026-.035.027-.006.12.036.12.087.002.196.006.23-.02.036-.026.059-.112.018-.126" fill="#BCA76B"/><path d="M8.701 5.777c-.062 0-.13.01-.164.039-.013.01-.016.036-.007.064.007.02.022.04.039.04h.018c.078.002.176.004.206-.017a.11.11 0 0 0 .035-.09c-.002-.011-.007-.019-.015-.022a.379.379 0 0 0-.112-.014m-.048.162-.066-.001h-.019c-.027 0-.045-.028-.054-.053-.01-.028-.01-.065.012-.083.066-.053.229-.05.292-.027.015.005.024.018.027.036a.127.127 0 0 1-.042.105c-.025.02-.085.023-.15.023" fill="#472B1F"/><path d="M7.875 6.509c.112.454.594.379.572-.036" fill="#BCA76B"/><path d="M8.186 6.83c-.127 0-.267-.094-.322-.318l.023-.006c.056.231.207.316.332.298.115-.017.227-.126.216-.33l.023-.002c.012.22-.11.337-.236.355a.25.25 0 0 1-.036.003" fill="#472B1F"/><path d="M8.318 6.488c.145.522.772.435.743-.042" fill="#BCA76B"/><path d="M8.723 6.857c-.162 0-.347-.108-.419-.366l.028-.007c.076.272.284.367.445.34.144-.024.283-.15.27-.377l.028-.002c.015.245-.136.381-.293.407a.356.356 0 0 1-.059.005" fill="#472B1F"/><path d="M8.849 6.478c.14.382.34.308.577-.04" fill="#BCA76B"/><path d="m9.08 6.746-.02-.001c-.089-.011-.162-.097-.223-.263l.023-.009c.057.154.125.237.203.247.095.011.214-.085.353-.289l.02.014c-.137.202-.254.3-.357.3" fill="#472B1F"/><path fill="#BCA76B" d="m9.564 6.296-1.763.101.004.12 1.778-.092z"/><path d="m7.813 6.408.004.096 1.752-.09-.015-.105-1.74.1Zm-.02.121-.005-.143.012-.001 1.775-.102.022.154-1.803.092Z" fill="#472B1F"/><path d="M7.94 8.065c.107.5.61.426.594-.03" fill="#BCA76B"/><path d="M8.261 8.422c-.133 0-.28-.106-.334-.354l.025-.006c.054.252.207.35.336.333.168-.02.239-.2.234-.359h.025c.008.241-.127.369-.256.384a.25.25 0 0 1-.03.002" fill="#472B1F"/><path d="M8.4 8.05c.14.574.795.49.773-.032" fill="#BCA76B"/><path d="M8.819 8.462c-.174 0-.363-.121-.433-.409l.03-.007c.072.297.278.406.45.382.152-.022.302-.157.292-.41h.03c.012.271-.151.417-.318.44a.364.364 0 0 1-.051.004" fill="#472B1F"/><path d="M8.952 8.048c.14.422.348.344.602-.032" fill="#BCA76B"/><path d="m9.19 8.346-.021-.001c-.094-.013-.168-.109-.23-.292l.026-.009c.056.171.126.263.207.274.099.014.223-.09.37-.31l.023.015c-.146.217-.27.323-.375.323" fill="#472B1F"/><path fill="#BCA76B" d="m9.7 7.863-1.836.078.003.131 1.85-.068z"/><path d="m7.878 7.953.001.106 1.823-.067-.013-.116-1.811.077Zm-.024.132-.003-.156h.013l1.847-.08.02.168h-.014l-1.863.068Z" fill="#472B1F"/><path d="M7.893 9.475c.118.51.633.425.609-.041" fill="#BCA76B"/><path d="M8.224 9.835c-.135 0-.286-.106-.344-.357l.025-.006c.06.257.22.353.35.335.173-.024.242-.21.234-.372l.026-.002c.013.248-.124.381-.256.4a.257.257 0 0 1-.035.002" fill="#472B1F"/><path d="M8.365 9.45c.127.762.823.49.792-.046" fill="#BCA76B"/><path d="M8.754 9.937c-.162 0-.345-.126-.404-.484l.03-.005c.061.362.25.473.406.455.184-.02.372-.217.355-.498l.032-.002c.017.3-.185.51-.383.532a.332.332 0 0 1-.036.002" fill="#472B1F"/><path d="M8.931 9.44c.15.429.363.346.616-.044" fill="#BCA76B"/><path d="M9.177 9.74h-.019c-.096-.012-.174-.109-.24-.296l.026-.009c.06.174.134.267.217.277.101.013.227-.097.375-.324l.023.015c-.148.227-.273.337-.382.337" fill="#472B1F"/><path fill="#BCA76B" d="m9.694 9.236-1.88.113.004.134 1.896-.102z"/><path d="m7.827 9.362.004.107 1.868-.1-.016-.12-1.856.113Zm-.022.135-.005-.16.012-.001 1.894-.114.023.171-.014.001-1.91.103Z" fill="#472B1F"/><path fill="#BCA76B" d="m9.062 7.204-.698.021.002.173.704-.002z"/><path d="m8.372 7.232.002.159.688-.003-.007-.176-.683.02Zm-.013.174-.003-.188h.008l.705-.021.008.207-.718.002Z" fill="#472B1F"/><path fill="#BCA76B" d="m9.067 8.68-.698.021.002.174.703-.003z"/><path d="m8.377 8.709.001.158.688-.003-.007-.175-.682.02Zm-.014.173-.002-.188h.008l.705-.021.008.207h-.008l-.71.002Z" fill="#472B1F"/><path fill="#000" d="M7.825 10.734 7.31 9.496l.027-.012.515 1.239zm-3.339.412-.029-.008c.086-.323.177-.795.245-1.264l.03.004c-.069.47-.16.944-.246 1.268"/><path d="M10.49 10.63c-.293-.047-.587-.096-.884-.108a5.265 5.265 0 0 0-.701.024c-.34.03-.687.046-1.013.147a.3.3 0 0 0-.124.061c-.092.09-.1.24-.178.341-.075.1-.362.265-.465.334-.754.019-1.592.008-2.529-.132l-.132-.147-.054-.055.147.055.334.008.814-.032s.688.001 1.032-.015c.194-.01.389-.02.581-.047.042-.005.09 0 .125-.023.057-.038.076-.114.116-.17.038-.053.061-.122.116-.156.147-.11.334-.1.493-.13.192-.037.369-.044.562-.073a7.35 7.35 0 0 1 .675-.06c.144-.008.29-.019.434-.008.22.016.46-.001.652.109.035.02.098.058.077.093-.013.022-.051-.012-.077-.016" fill="#000"/><path d="M4.6 11.289c.988.147 1.866.147 2.522.131l.088-.056c.126-.079.315-.198.373-.274a.586.586 0 0 0 .075-.155.497.497 0 0 1 .104-.187c.036-.035.087-.05.127-.063.278-.087.574-.111.86-.135l.155-.013c.192-.017.446-.036.703-.024.29.012.58.06.862.105l.023.003c.01.002.022.007.033.013.021.01.032.013.035.007a.018.018 0 0 0 .002-.015c-.006-.026-.057-.055-.076-.066-.149-.085-.33-.093-.507-.1a4.095 4.095 0 0 1-.14-.007c-.127-.01-.257-.002-.383.005l-.05.003a7.346 7.346 0 0 0-.675.06c-.079.012-.156.02-.231.028-.112.012-.217.023-.33.045a1.9 1.9 0 0 1-.13.018c-.124.015-.253.03-.36.11a.262.262 0 0 0-.08.1.71.71 0 0 1-.034.054.545.545 0 0 0-.036.063c-.021.041-.043.084-.083.11a.171.171 0 0 1-.092.021 29.657 29.657 0 0 1-1.65.065l-.814.031-.337-.008-.109-.04.026.025.13.146Zm1.993.156c-.572 0-1.254-.028-1.998-.139h-.003l-.002-.003-.132-.147-.054-.054.01-.015.145.054.332.008.814-.031c.007 0 .692 0 1.031-.016a6.698 6.698 0 0 0 .618-.049.169.169 0 0 0 .084-.02c.035-.022.055-.061.076-.102a.518.518 0 0 1 .038-.066.654.654 0 0 0 .032-.051.28.28 0 0 1 .087-.106c.11-.083.24-.098.368-.114.044-.005.087-.01.128-.018.113-.022.224-.033.33-.045.075-.008.153-.016.232-.028.229-.033.46-.049.675-.06l.051-.003c.126-.007.257-.014.385-.005l.14.007c.178.008.362.015.515.103.038.021.077.047.085.077.002.01.001.02-.004.028-.013.022-.039.01-.06 0a.096.096 0 0 0-.027-.011l-.023-.004c-.281-.045-.572-.092-.86-.105a5.346 5.346 0 0 0-.7.025l-.155.013c-.285.024-.58.048-.856.134a.296.296 0 0 0-.12.059c-.05.048-.074.112-.1.18a.58.58 0 0 1-.078.16c-.06.079-.243.194-.377.278l-.09.057-.003.002h-.002c-.164.004-.342.007-.532.007Zm.983-5.623c-.209-.032-.415-.106-.524-.19l.018-.024c.106.081.306.153.51.185l-.004.03ZM6.09 9.148l-.008-.029c.277-.087.518-.206.74-.365l.017.024c-.224.16-.468.282-.748.37" fill="#000"/><path fill="#000" d="m7.484 10.982-.41-1.076.027-.011.41 1.076zm.143-.202-.472-1.227.028-.01.472 1.227z"/><path fill="#000" d="m7.115 9.88-.01-.029.314-.108.01.028z"/><path fill="#BCA76B" d="m6.893 5.461-.097 5.717.338-.02-.063-5.696z"/><path d="m6.901 5.47-.097 5.699.321-.02-.063-5.678-.16-.001Zm-.114 5.717v-.01l.098-5.724h.194v.009l.064 5.704-.356.02Z" fill="#472B1F"/><path d="M7.947 6.952a1.35 1.35 0 0 1-.66-.6l.026-.014c.135.256.352.453.646.587l-.012.027Z" fill="#000"/><path d="M6.193 5.989c.107.5.61.426.595-.03" fill="#BCA76B"/><path d="M6.514 6.346c-.133 0-.28-.106-.333-.355l.025-.005c.053.252.207.349.335.333.168-.02.24-.2.234-.359H6.8c.008.241-.127.368-.256.384a.238.238 0 0 1-.03.002" fill="#472B1F"/><path d="M6.654 5.974c.14.574.794.49.773-.033" fill="#BCA76B"/><path d="M7.072 6.386c-.173 0-.363-.122-.433-.409l.03-.007c.073.297.278.406.45.382.153-.022.302-.157.292-.41l.031-.001c.011.272-.152.418-.319.441a.372.372 0 0 1-.051.004" fill="#472B1F"/><path d="M7.206 5.972c.14.422.394.46.6-.032" fill="#BCA76B"/><path d="M7.482 6.312h-.006c-.113-.005-.213-.124-.283-.336l.025-.008c.067.2.158.313.259.317h.005c.106 0 .217-.124.313-.35l.024.01c-.101.24-.217.367-.337.367" fill="#472B1F"/><path fill="#BCA76B" d="m7.953 5.786-1.835.079.002.13 1.85-.067z"/><path d="m6.13 5.877.003.106 1.823-.067-.014-.116-1.811.077Zm-.023.132-.002-.156h.012l1.847-.08.02.168H7.97l-1.863.068Z" fill="#472B1F"/><path d="M6.193 7.141c.107.5.61.426.595-.03" fill="#BCA76B"/><path d="M6.514 7.498c-.133 0-.28-.106-.333-.354l.025-.006c.053.252.207.35.335.333.168-.02.24-.2.234-.359H6.8c.008.241-.127.369-.256.384a.25.25 0 0 1-.03.002" fill="#472B1F"/><path d="M6.654 7.126c.14.574.794.49.773-.032" fill="#BCA76B"/><path d="M7.072 7.538c-.173 0-.363-.121-.433-.409l.03-.007c.073.297.278.406.45.382.153-.022.302-.157.292-.41h.031c.011.271-.152.417-.319.44a.363.363 0 0 1-.051.004" fill="#472B1F"/><path d="M7.206 7.124c.14.422.56.351.6-.032" fill="#BCA76B"/><path d="M7.52 7.424c-.116 0-.254-.076-.327-.295l.025-.009c.074.222.216.289.326.277.11-.012.23-.111.25-.306l.026.002c-.019.182-.129.314-.273.33a.257.257 0 0 1-.028.001" fill="#472B1F"/><path fill="#BCA76B" d="m7.953 6.939-1.835.078.002.131 1.85-.068z"/><path d="m6.13 7.03.003.105 1.823-.067-.014-.116-1.811.077Zm-.023.131-.002-.156h.012l1.847-.08.02.168H7.97l-1.863.068Z" fill="#472B1F"/><path d="m6.21 8.106-.008-.028c.164-.05.291-.14.414-.227l.116-.08.016.025a2.157 2.157 0 0 0-.115.08c-.125.087-.254.179-.422.23" fill="#000"/><path d="M6.138 8.223c.107.5.61.426.595-.03" fill="#BCA76B"/><path d="M6.46 8.58c-.133 0-.281-.106-.334-.355l.025-.005c.053.252.207.35.335.333.169-.02.24-.2.234-.36h.025c.009.242-.127.37-.256.385a.251.251 0 0 1-.03.002" fill="#472B1F"/><path d="M6.6 8.207c.14.575.793.491.772-.032" fill="#BCA76B"/><path d="M7.017 8.62c-.173 0-.363-.122-.433-.409l.03-.007c.073.297.279.406.45.381.153-.021.303-.156.292-.409l.031-.001c.011.272-.152.418-.319.441a.372.372 0 0 1-.05.004" fill="#472B1F"/><path d="M7.15 8.206c.14.422.513.29.602-.032" fill="#BCA76B"/><path d="M7.43 8.485c-.128 0-.234-.1-.292-.275l.025-.008c.054.164.152.257.268.257h.005c.132-.004.257-.122.303-.289l.026.007c-.05.178-.184.305-.328.308H7.43" fill="#472B1F"/><path fill="#BCA76B" d="m7.898 8.02-1.835.08.002.13 1.85-.067z"/><path d="m6.076 8.111.002.106L7.9 8.15l-.014-.116-1.811.077Zm-.024.132-.002-.156h.012l1.848-.08.02.168h-.014l-1.864.068Z" fill="#472B1F"/><path d="m5.958 11.144-.029-.009c.045-.154.096-.31.146-.46.121-.367.247-.746.28-1.145l.03.002c-.034.403-.16.784-.281 1.152-.05.15-.102.305-.146.46m.272-.024-.03-.008.084-.301c.116-.411.235-.836.276-1.277l.03.003c-.041.443-.161.87-.277 1.282l-.084.3m.253-.002-.028-.008c.146-.547.219-1.103.275-1.624l.03.003c-.057.522-.13 1.08-.277 1.629" fill="#000"/><path d="M6.162 9.257c.107.5.61.426.594-.029" fill="#BCA76B"/><path d="M6.483 9.615c-.133 0-.28-.106-.334-.355l.025-.005c.054.252.208.348.336.333.168-.02.239-.2.234-.36h.025c.008.242-.127.37-.256.385a.25.25 0 0 1-.03.002" fill="#472B1F"/><path d="M6.623 9.242c.14.575.793.49.772-.032" fill="#BCA76B"/><path d="M7.04 9.654c-.173 0-.362-.12-.432-.408l.03-.008c.072.298.278.406.45.382.152-.021.302-.156.292-.41h.03c.012.272-.152.417-.318.44a.363.363 0 0 1-.051.004" fill="#472B1F"/><path d="M7.174 9.24c.14.423.507.34.602-.032" fill="#BCA76B"/><path d="M7.465 9.537c-.13 0-.243-.109-.303-.292l.025-.008c.057.174.159.273.278.273h.008c.128-.004.244-.127.29-.305l.025.007c-.049.192-.172.32-.314.324h-.009" fill="#472B1F"/><path fill="#BCA76B" d="m7.922 9.055-1.836.079.003.13 1.85-.067z"/><path d="m6.1 9.146.001.105 1.823-.066-.013-.117-1.812.078Zm-.024.132-.003-.157h.013l1.847-.08.02.168H7.94l-1.863.069Z" fill="#472B1F"/><path fill="#BCA76B" d="m7.339 6.563-.66.02.003.174.664-.003z"/><path d="m6.687 6.59.002.16.649-.003-.007-.176-.644.02Zm-.013.174-.002-.188h.008l.666-.02v.007l.007.199-.679.002Z" fill="#472B1F"/><path fill="#BCA76B" d="m7.311 7.677-.585.019.001.162.59-.002z"/><path d="m6.732 7.702.002.15.577-.003-.006-.165-.573.018Zm-.011.163-.002-.176h.006l.593-.02.007.194h-.007l-.597.002Z" fill="#472B1F"/><path fill="#BCA76B" d="m7.348 8.76-.637.021.002.174.642-.002z"/><path d="m6.719 8.788.002.16.627-.003-.007-.177-.622.02Zm-.013.175-.002-.189.651-.021.008.207h-.008l-.649.003Z" fill="#472B1F"/><path fill="#000" d="m6.696 9.821-.342-.07.006-.03.342.071zm-.024.291-.395-.014v-.05l.396.014zm-.052.304-.41-.115.009-.029.409.116zm-.516.287-.001-.05.48-.037.001.05zm-.084.291-.001-.05.506-.023.001.05z"/><path d="M6.392 11.134a6.026 6.026 0 0 0-.174-.395c-.183-.39-.372-.793-.332-1.223l.03.003c-.04.421.148.82.329 1.207.065.138.126.269.175.397l-.028.01Zm1.06-.294-.009-.029.325-.097.009.029zm-.076-.175-.012-.028.368-.154.011.027zm-.118-.275-.008-.028.379-.112.008.028zm-.086-.259-.007-.028.371-.097.008.029zM5.18 12.15c-.043.001-.084-.015-.127-.02-.042-.014-.085-.027-.125-.047-.04-.02-.077-.049-.113-.074a.842.842 0 0 1-.101-.087c-.04-.037-.081-.07-.117-.111-.039-.04-.08-.078-.112-.118-.035-.04-.078-.07-.107-.115-.033-.032-.033-.088-.061-.124-.046-.009-.113-.016-.115-.076-.015-.037-.021-.081-.067-.076-.018 0-.023.029-.012.011-.023-.012-.017.043-.02.013-.014.023-.029.07-.028.066-.02.04-.018.086.035.091.05.008.056.062.098.085.034.033.076.076.114.106.036.045.064.07.091.12.018.035.064.06.09.09a.513.513 0 0 0 .186.189l.104.058c.04.02.076.046.118.054.045.025.102.017.151.028.05.003.099 0 .14-.032.04-.027-.001-.022-.021-.03Zm2.68-1.299c-.06.144-.156.343-.276.466.393.076.71-.034 1.064-.094a1.469 1.469 0 0 1-.024-.493c-.281.029-.482.093-.764.121" fill="#000"/><path d="M7.893 10.89c-.05.127-.088.258-.186.367.322.068.586-.03.877-.083-.056-.117-.04-.245-.02-.373-.23.025-.44.064-.671.09" fill="#333"/><path d="m4.495 11.462 1.142.086c.918.028 1.97-.013 2.88-.118.037-.004.098-.014.11.021.015.043-.045.097-.09.104-1.044.136-2.1.083-3.149.076l-.623-.065-.27-.104ZM4 9.5l-.01-.028c.323-.126.614-.35.896-.568l.02-.015.018.024-.02.015c-.283.218-.576.444-.903.572m.141-1.112-.011-.027c.212-.087.417-.244.615-.396.067-.051.136-.104.204-.153l.018.024a8.942 8.942 0 0 0-.204.153c-.2.153-.406.31-.622.4" fill="#000"/><path fill="#BCA76B" d="M4.86 5.857 4.852 11.2l.293-.02-.17-5.352z"/><path d="M4.868 5.864 4.86 11.19l.277-.02-.17-5.334-.1.027Zm-.024 5.344v-.009l.008-5.348.131-.035v.01l.17 5.36-.309.022Z" fill="#472B1F"/><path d="M5.594 6.414a14.133 14.133 0 0 0-.113-.094 4.56 4.56 0 0 1-.517-.483l.022-.02c.193.213.356.349.514.48l.113.095-.019.022Z" fill="#000"/><path d="M5.051 5.674c-.06-.03-.217-.036-.28.038-.033.04-.006.174.037.175.084.002.192.008.226-.028.035-.039.058-.164.017-.185" fill="#BCA76B"/><path d="M4.938 5.663c-.06 0-.125.016-.159.056-.02.023-.014.09.003.13.008.017.018.027.026.028h.018c.077.002.172.005.2-.026a.209.209 0 0 0 .035-.14c-.002-.01-.006-.023-.015-.027a.258.258 0 0 0-.108-.02m-.047.235-.066-.001h-.018c-.017-.001-.032-.015-.043-.041-.021-.047-.027-.12 0-.151.065-.078.228-.073.292-.04.013.006.021.02.025.04a.228.228 0 0 1-.04.16c-.025.028-.086.033-.15.033" fill="#472B1F"/><path d="M4.884 11.89c.008-.046.043-.059.084-.067.048.002.105-.007.136.012.036.01.055.028.087.042.02.025.054.041.079.055.095.037.043-.074.098-.079.046.004.095-.017.134 0 .034.007.05.032.069.055.02.018.043.034.054.054.008.028.111.078.115.012.021-.045.012-.124.084-.115.081-.004.143.016.217.025.039.015.07.02.103.054.028.016.025.05.05.048.074.054.059-.046.082-.078.018-.03.072-.021.097-.043.046-.013.091-.029.156-.024l.103.055c.023.02.052.049.066.084.003.035.035.063.067.036.016-.04.048-.04.078-.06.031-.007.051-.027.072-.048.019-.005.037-.045.055-.06.032-.025.096-.019.15-.025.053.016.103.022.133.048.018.02.032.045.06.055.017.035.058.006.085-.006a.593.593 0 0 1 .084-.049.16.16 0 0 1 .11-.042c.06-.006.09.025.137.03.044.02.093.022.12.049.032.021.075.04.106.012.041 0 .01-.08.025-.098.048-.038.16-.033.22-.01.049 0 .107-.007.14.011.034.008.039.04.052.073.015.03.102.03.133.006.028 0-.007-.041-.019-.055a.184.184 0 0 1-.048-.06c.045-.022.066.02.103.024.021.019.05.025.072.048.035.013.066.03.12.024.05.015.028.089-.03.073-.042.014-.11.002-.162.006-.08-.01-.164-.005-.247-.006-.042.015-.11.011-.157.024-.051 0-.091.01-.146.006-.052.008-.114.006-.173.006-.053.01-.1.012-.155.018-.048 0-.088.01-.14.006-.07.013-.162.003-.242.006-.05.008-.092.007-.138.012-.05.002-.095.01-.149.012-.055-.001-.096.01-.154.006-.086.013-.18.003-.27.006-.043-.01-.1-.006-.146-.012-.044-.001-.081-.01-.13-.006-.038-.013-.103.002-.14-.012-.073.004-.128-.009-.2-.006h-.39c-.033-.014-.093-.002-.136-.006-.072-.001-.159.003-.223-.002-.059-.01-.122.001-.171-.022-.078-.014-.177-.04-.17-.102" fill="#000"/><path d="m8.588 11.94.038.001a.314.314 0 0 0 .09-.005l.007-.002.006.002c.018.005.028-.004.03-.013.002-.004.003-.013-.008-.018a.216.216 0 0 1-.11-.02l-.023-.011c-.01-.011-.023-.018-.036-.025a.208.208 0 0 1-.03-.018.115.115 0 0 1-.039-.017.114.114 0 0 0-.02-.01.115.115 0 0 0 .025.026l.004.004c.026.03.04.053.032.072a.028.028 0 0 1-.022.016.114.114 0 0 1-.037.014c.023 0 .046.002.068.005a.264.264 0 0 1 .025 0Zm-3 .061h.045a.07.07 0 0 1-.028-.034.2.2 0 0 0-.033-.031l-.015-.013-.01-.011c-.015-.019-.027-.034-.05-.038a.133.133 0 0 0-.07-.003.288.288 0 0 1-.06.003c-.003 0-.005.003-.01.026-.004.02-.008.042-.03.054-.016.009-.037.008-.065-.003l-.011-.006a.263.263 0 0 1-.073-.05.369.369 0 0 1-.03-.017.141.141 0 0 0-.05-.022l-.005-.003c-.017-.01-.05-.01-.083-.009h-.043c-.04.008-.057.02-.062.048-.005.05.114.072.153.08l.005.001c.026.013.06.014.094.015.024 0 .048.002.071.006.037.002.085.002.131.001a2.783 2.783 0 0 1 .143 0 .242.242 0 0 1 .086.006Zm.59.006.004.002a.076.076 0 0 0 .014.003.085.085 0 0 1-.008-.005c-.021-.003-.03-.02-.038-.03a.052.052 0 0 0-.017-.021l-.004-.004a.16.16 0 0 0-.07-.04l-.023-.008-.069-.01a.596.596 0 0 0-.142-.014c-.035-.004-.041.012-.052.057a.265.265 0 0 1-.013.042.06.06 0 0 1-.006.022h.22c.035-.001.067.001.098.003.033.003.065.005.101.003h.005Zm.453.03h.076a.075.075 0 0 1-.03-.052.228.228 0 0 0-.057-.072 4.69 4.69 0 0 0-.041-.022c-.02-.01-.04-.02-.056-.03a.357.357 0 0 0-.133.021l-.008.002a.13.13 0 0 1-.049.018c-.017.004-.034.008-.04.017a.123.123 0 0 0-.01.035c-.005.022-.01.046-.027.06.022 0 .042 0 .06.005.03-.002.057 0 .083.003.015.001.03.003.046.003.02.003.042.004.063.005.029 0 .058.002.084.007h.039Zm.22-.062a.206.206 0 0 1-.028.015c-.019.009-.031.014-.039.034l-.006.008a.095.095 0 0 1-.008.006c.03 0 .059-.002.087-.006a.57.57 0 0 0 .086-.003c.023-.002.046-.004.072-.004a.551.551 0 0 0 .071-.006c.025-.002.05-.005.076-.006a.896.896 0 0 1 .054-.004.73.73 0 0 0 .082-.008h.094a.869.869 0 0 0 .147-.005l.002-.001h.003a.47.47 0 0 0 .082-.002c.019-.002.037-.004.057-.004l.046-.004c.035-.004.069-.006.105-.014h.03c.05 0 .101 0 .144-.006.034.002.058 0 .085-.002a.944.944 0 0 1 .061-.004c.024-.006.05-.008.075-.01.029-.003.058-.005.077-.013l.004-.001h.105c-.02-.006-.035-.016-.042-.03a.681.681 0 0 1-.007-.02c-.01-.027-.015-.038-.03-.041l-.005-.002c-.02-.011-.057-.01-.092-.01h-.04l-.007-.001c-.057-.021-.155-.023-.195.004v.027c.002.025.003.05-.012.067a.038.038 0 0 1-.022.011c-.021.015-.062.028-.125-.015a.156.156 0 0 0-.065-.029.424.424 0 0 1-.05-.016.228.228 0 0 1-.052-.016.153.153 0 0 0-.076-.014c-.044.002-.076.014-.098.036l-.006.004a.555.555 0 0 0-.08.046l-.018.01c-.02.01-.047.023-.07.015a.046.046 0 0 1-.024-.018.135.135 0 0 1-.05-.043l-.011-.014a.223.223 0 0 0-.084-.032l-.036-.01a.783.783 0 0 1-.043.003c-.037.002-.075.004-.093.017-.004.003-.01.013-.016.022a.115.115 0 0 1-.039.04.16.16 0 0 1-.076.05Zm-.102.105h-.06c-.033-.001-.066-.002-.098 0h-.003l-.002-.001c-.023-.006-.052-.007-.08-.008a.667.667 0 0 1-.065-.004.617.617 0 0 1-.046-.003c-.026-.003-.05-.005-.08-.003h-.004l-.004-.001c-.016-.005-.04-.005-.062-.005-.026 0-.052 0-.073-.006a.845.845 0 0 1-.103-.003.771.771 0 0 0-.094-.003l-.399-.002a.231.231 0 0 0-.073-.004c-.019 0-.039.002-.057 0h-.087c-.047 0-.096 0-.136-.002-.023-.004-.045-.004-.067-.005-.037-.002-.075-.003-.108-.018-.06-.01-.194-.037-.185-.125v-.001c.01-.059.057-.075.101-.083h.045c.037-.002.076-.002.103.013.024.006.04.016.057.026l.03.016.008.006a.216.216 0 0 0 .063.044l.01.005c.02.008.027.005.028.004.004-.002.006-.015.008-.025.005-.021.012-.056.05-.06.02.002.037 0 .056-.003a.162.162 0 0 1 .088.005c.033.006.052.03.07.051l.007.01.012.009a.18.18 0 0 1 .045.048c.006.014.045.037.067.033.003 0 .007-.001.008-.012l.002-.008c.005-.01.008-.024.011-.038.01-.039.024-.097.095-.088.053-.004.101.005.148.013a.715.715 0 0 0 .069.01l.005.002.024.01c.029.01.056.02.084.047.015.01.023.024.03.034.001.004.005.01.006.01h.008l.006.004c.017.012.023.012.023.012.005-.003.01-.025.012-.036.004-.018.008-.036.017-.05.014-.022.041-.028.065-.033a.092.092 0 0 0 .035-.013l.008-.004.01-.003c.045-.013.09-.026.154-.021l.008.002.059.031.044.023.004.003c.02.02.055.051.072.092l.001.006c.001.014.009.024.015.027.002.001.006.003.013-.002a.096.096 0 0 1 .059-.05c.008-.005.017-.008.025-.014l.007-.004c.025-.005.042-.02.062-.042l.004-.004.006-.002c.005-.002.015-.017.021-.026.008-.01.016-.022.025-.03.03-.022.072-.024.117-.026.015 0 .03 0 .045-.002l.004-.001.004.001.039.01c.039.01.075.02.102.043a.252.252 0 0 1 .015.018c.012.014.022.027.038.032l.008.003.004.008c0 .001.002.004.004.004.007.003.026-.007.038-.013a.341.341 0 0 1 .015-.007.512.512 0 0 1 .08-.047.182.182 0 0 1 .122-.046c.04-.004.07.007.096.017.015.006.03.012.045.014l.005.001a.365.365 0 0 0 .048.016c.028.008.058.016.079.036.022.015.056.031.077.012l.006-.005h.009v-.034c-.002-.022-.003-.043.008-.057.057-.045.175-.04.239-.018h.035c.04 0 .08 0 .11.014.036.01.047.04.057.067l.006.017s.005.004.019.007c.029.007.066.001.08-.009a.203.203 0 0 0-.018-.023.212.212 0 0 1-.052-.066l-.01-.02.02-.009c.037-.018.065-.002.085.01a.1.1 0 0 0 .028.013h.007l.004.004a.144.144 0 0 0 .027.017c.014.008.03.016.044.03l.012.004a.173.173 0 0 0 .094.017h.008c.037.011.049.044.04.072-.007.028-.036.05-.075.042a.36.36 0 0 1-.1.006.596.596 0 0 0-.062 0 1.354 1.354 0 0 0-.18-.006h-.065c-.024.008-.055.01-.084.013a.453.453 0 0 0-.07.01h-.006c-.022 0-.041.002-.06.004-.027.003-.055.005-.088.003a.934.934 0 0 1-.145.006h-.026a.918.918 0 0 1-.105.013l-.048.005c-.02 0-.038.002-.055.003a.511.511 0 0 1-.087.003.833.833 0 0 1-.152.006h-.089c-.028.005-.056.006-.083.008a.986.986 0 0 0-.054.004.964.964 0 0 0-.075.006c-.024.002-.048.005-.075.006a.572.572 0 0 0-.068.004c-.027.002-.055.005-.089.002a.7.7 0 0 1-.11.007Z" fill="#000"/><path d="M4.238 6.515c.094.346.534.295.52-.02" fill="#BCA76B"/><path d="M4.52 6.763c-.115 0-.244-.072-.291-.245l.019-.006c.049.183.194.246.31.229a.225.225 0 0 0 .19-.246h.02a.244.244 0 0 1-.248.268" fill="#472B1F"/><path d="M4.642 6.504c.122.398.694.34.676-.022" fill="#BCA76B"/><path d="M5.009 6.79a.391.391 0 0 1-.379-.282l.023-.007c.064.208.26.289.419.26.113-.02.242-.105.234-.278l.024-.001c.008.155-.092.275-.254.303a.387.387 0 0 1-.067.006" fill="#472B1F"/><path d="M5.124 6.503c.122.292.345.319.526-.022" fill="#BCA76B"/><path d="M5.366 6.74h-.008c-.096-.005-.183-.087-.243-.233l.019-.008c.057.138.137.216.225.22.097.005.197-.082.282-.243l.018.01c-.087.164-.19.254-.293.254" fill="#472B1F"/><path fill="#BCA76B" d="m5.778 6.375-1.606.054.002.09 1.62-.046z"/><path d="m4.182 6.439.002.07 1.598-.046-.012-.078-1.588.054Zm-.017.091-.003-.11h.01l1.615-.056.018.119-1.64.047Z" fill="#472B1F"/><path d="M4.169 7.437c-.007 0-.013 0-.019-.002l.004-.03c.114.016.374-.143.512-.264l.02.022c-.133.116-.386.274-.517.274" fill="#000"/><path d="m3.18 10.552-.029-.011a40.017 40.017 0 0 0 1.223-3.838l.029.008a40.09 40.09 0 0 1-1.224 3.84" fill="#000"/><path d="M4.22 7.513c.096.372.548.316.535-.022" fill="#BCA76B"/><path d="M4.51 7.78c-.118 0-.252-.079-.3-.265l.02-.005c.05.194.198.263.314.246.105-.015.207-.103.2-.265h.021c.007.174-.104.269-.218.285a.262.262 0 0 1-.037.003" fill="#472B1F"/><path d="M4.603 7.505c.126.499.714.426.695-.027" fill="#BCA76B"/><path d="M4.981 7.863c-.153 0-.328-.105-.391-.354l.026-.007c.066.258.258.352.408.33.136-.02.27-.137.26-.354l.028-.001c.01.234-.135.361-.284.383a.327.327 0 0 1-.047.003" fill="#472B1F"/><path d="M5.131 7.5c.14.313.394.341.6-.023" fill="#BCA76B"/><path d="M5.407 7.754a.19.19 0 0 1-.01 0c-.109-.006-.207-.094-.276-.248l.02-.01c.066.147.157.23.257.235.11.006.225-.087.323-.26l.02.011c-.1.176-.218.272-.334.272" fill="#472B1F"/><path fill="#BCA76B" d="m5.801 7.324-1.647.072.002.12 1.66-.062z"/><path d="m4.166 7.408.001.096 1.636-.06-.012-.108-1.625.072Zm-.022.12-.002-.143 1.67-.073.017.154-1.685.063Z" fill="#472B1F"/><path d="M4.133 8.465c.104.455.595.387.58-.027" fill="#BCA76B"/><path d="M4.446 8.79c-.13 0-.272-.096-.324-.323l.023-.005c.053.232.205.32.331.303.117-.016.232-.123.225-.327h.024c.008.219-.118.334-.246.35a.271.271 0 0 1-.033.002" fill="#472B1F"/><path d="M4.583 8.46c.146.67.827.573.805-.038" fill="#BCA76B"/><path d="M5.02 8.94c-.18 0-.38-.143-.453-.477l.033-.007c.074.34.284.47.458.447.163-.02.324-.177.313-.48l.034-.001c.008.226-.096.484-.343.515a.34.34 0 0 1-.042.003" fill="#472B1F"/><path d="M5.12 8.45c.136.384.384.418.586-.03" fill="#BCA76B"/><path d="M5.39 8.76h-.007c-.11-.005-.206-.114-.275-.306l.024-.009c.064.183.154.285.251.29.107.005.217-.11.312-.32l.023.01c-.124.275-.246.334-.328.334" fill="#472B1F"/><path fill="#BCA76B" d="m5.848 8.28-1.876.072.002.12 1.891-.063z"/><path d="m3.985 8.364.001.094 1.865-.06-.014-.105-1.852.07Zm-.023.12-.003-.144 1.9-.072.02.153h-.013l-1.904.063Z" fill="#472B1F"/><path d="M4.1 9.576c.113.493.643.42.627-.029" fill="#BCA76B"/><path d="M4.438 9.929c-.14 0-.295-.104-.35-.35l.024-.006c.058.251.222.345.36.328.126-.017.25-.132.242-.353l.026-.001c.009.237-.127.361-.265.38a.282.282 0 0 1-.037.002" fill="#472B1F"/><path d="M5.86 11.134a13.122 13.122 0 0 1-.387-1.298l.03-.007c.108.472.25.899.385 1.296l-.028.01Zm-.213-.003c-.12-.39-.254-.845-.315-1.313l.03-.004c.06.466.194.92.314 1.309l-.029.008Z" fill="#000"/><path d="M4.586 9.56c.136.655.822.6.816-.03" fill="#BCA76B"/><path d="M5.025 10.043c-.244 0-.405-.242-.454-.479l.03-.006c.071.338.282.472.46.452.164-.018.328-.173.325-.48h.032c.003.326-.175.492-.353.511a.386.386 0 0 1-.04.002" fill="#472B1F"/><path d="M5.168 9.56c.148.415.417.453.635-.032" fill="#BCA76B"/><path d="M5.46 9.895h-.007c-.118-.005-.223-.122-.297-.33l.025-.01c.07.197.167.309.273.313h.006c.113 0 .23-.122.33-.346l.026.011c-.134.297-.266.362-.356.362" fill="#472B1F"/><path fill="#BCA76B" d="m5.955 9.354-2.09.085.003.143 2.106-.074z"/><path d="m3.88 9.453.002.114 2.076-.073-.015-.126-2.063.085Zm-.026.144-.003-.171 2.117-.087.022.183h-.015l-2.121.075Z" fill="#472B1F"/><path fill="#BCA76B" d="m5.274 7.002-.6.016.002.134.604-.002z"/><path d="m4.68 7.024.002.122.592-.002-.006-.136-.588.016Zm-.01.134-.003-.146h.007l.606-.016.007.16H5.28l-.61.002Z" fill="#472B1F"/><path fill="#BCA76B" d="m5.274 7.974-.6.016.002.134.604-.002z"/><path d="m4.68 7.996.002.122.592-.002-.006-.136-.588.016Zm-.01.134-.003-.146h.007l.606-.016.007.16H5.28l-.61.002Z" fill="#472B1F"/><path fill="#BCA76B" d="m5.312 9.032-.638.016.002.134.643-.002z"/><path d="m4.68 9.055.002.12.63-.001-.006-.135-.626.016Zm-.01.133-.003-.146h.007l.644-.016.008.16h-.007l-.65.002Z" fill="#472B1F"/><path fill="#000" d="m5.208 10.055-.006-.03.342-.07.006.029zm.054.261-.006-.03.342-.07.007.029zm.415.248-.348-.028.002-.05.347.028zm-.252.306-.005-.035.359-.065.004.035zm-.89-.054-.36-.071.006-.03.36.071zm.064-.294-.325-.071.007-.03.324.072zm.063-.22-.3-.077.007-.029.3.077zm.025-.209-.27-.065.006-.035.27.064zm5.8 1.231c-.414-.161-1.017-.13-1.549-.102l-.238.012-.002-.06.237-.012c.538-.028 1.148-.06 1.574.106l-.022.056Z"/><path d="M10.395 11.485c-.499-.191-1.183-.121-1.653-.052l-.01-.059c.478-.07 1.172-.141 1.685.056l-.022.055Zm-1.59.347-.013-.058c.364-.081.914-.118 1.324-.015l-.015.058c-.346-.087-.867-.08-1.296.015m.725.172c-.227 0-.467-.026-.697-.078l.013-.058c.427.096.888.102 1.232.016l.014.058a2.35 2.35 0 0 1-.562.062m-6.522-1.501 1.294.782.027-.035-.408-.283c-.291-.18-.584-.358-.913-.464m6.212.639-.018-.432h.05l.017.431z" fill="#000"/><mask id="d" fill="#fff"><use xlink:href="#c"/></mask><path fill="#000" mask="url(#d)" d="M9.348 11.157h.05v-.442h-.05zm.244.005h.05V10.7h-.05zm.268.02v-.444h.05v.444zm.17.005-.008-.452h.05l.008.452zm.207.015h.05v-.42h-.05zm.154.046h-.05l.009-.472h.05zm-1.076.488h-.05l.009-.407h.05zm-.18-.001h.05v-.385h-.05zm.385-.009-.05-.001.025-.386.05.001zm.145-.006h-.05l.009-.386h.05zm.171-.014-.05-.002.043-.376.05.002zm.12.022-.029-.006.071-.345.03.006z"/><path d="m10.482 10.84-.254-.026c-.498-.052-1.012-.106-1.516-.047l-.007-.06c.51-.06 1.029-.005 1.53.048l.253.026-.006.06ZM.12 5.362h11.758c0-.636-.013-1.265-.027-1.875-.019-.824-.037-1.603-.016-2.332C11.229.891 9.182.12 5.999.12 5.18.12 2.355.194.163 1.155c.02.73.002 1.511-.016 2.337a81.028 81.028 0 0 0-.028 1.87Zm11.877.12H0v-.06c-.002-.656.013-1.305.027-1.933.02-.84.037-1.632.015-2.37l-.001-.04.037-.017C2.297.077 5.17 0 5.998 0c.83 0 3.702.077 5.922 1.062l.036.016v.04c-.023.738-.005 1.529.014 2.367.014.629.03 1.28.027 1.937v.06Z" fill="#000" mask="url(#d)"/><path d="M5.642 2.943s.214.318.271.488a.687.687 0 0 1 .033.263c-.01.16-.073.314-.123.468-.035.106-.111.186-.07.29.021.05.041.095.095.087.032-.005.048-.045.073-.066.019-.014.036-.032.058-.04.03-.013.074.006.098-.017.02-.02.034-.06.017-.082-.016-.02-.05-.001-.074 0-.036.001-.076.026-.107.008-.032-.018-.05-.098-.05-.098s.065-.176.1-.263c.028-.072.074-.138.09-.213.004-.024-.002-.05 0-.074.002-.039-.01-.087.016-.115.017-.018.065.007.074-.016.035-.09-.129-.149-.164-.238-.014-.034-.005-.073-.017-.107-.025-.074-.114-.205-.114-.205l-.206-.07Z" fill="#69737C" mask="url(#d)"/><path d="M5.75 3.027c.068.11.168.278.206.39a.747.747 0 0 1 .035.28 1.012 1.012 0 0 1-.032.186.51.51 0 0 0 .05-.124.123.123 0 0 0 0-.03.274.274 0 0 1-.001-.038v-.03c-.002-.035-.003-.078.028-.112a.078.078 0 0 1 .064-.022.25.25 0 0 0-.065-.07c-.039-.034-.08-.069-.098-.116a.213.213 0 0 1-.012-.069.122.122 0 0 0-.005-.04 1.087 1.087 0 0 0-.101-.181l-.07-.024Zm.27 1.379h.024a.16.16 0 0 0 .04-.001.055.055 0 0 0 .008-.015.3.3 0 0 1-.053.009.223.223 0 0 0-.04.007h.02Zm-.195-.134c-.033.069-.05.111-.03.163.024.057.031.062.046.06a.1.1 0 0 0 .02-.022.339.339 0 0 1 .032-.035l.012-.01c.015-.012.033-.027.056-.037a.105.105 0 0 1-.07-.01c-.037-.02-.057-.075-.066-.11Zm.01.313c-.075 0-.104-.072-.123-.116-.037-.092-.001-.166.033-.238a.71.71 0 0 0 .035-.083l.028-.084c.042-.121.085-.247.093-.373a.643.643 0 0 0-.03-.245c-.055-.163-.264-.474-.266-.478l-.074-.11.345.117.008.013c.004.005.094.137.12.216.008.022.01.044.01.063.001.016.002.03.006.041a.274.274 0 0 0 .074.082c.055.048.123.107.09.189-.016.043-.063.04-.08.038h-.006a.186.186 0 0 0 0 .041v.064a.196.196 0 0 1-.001.055.59.59 0 0 1-.059.147c-.012.025-.024.049-.034.074a7.926 7.926 0 0 0-.093.248.157.157 0 0 0 .025.058.115.115 0 0 0 .034-.006.216.216 0 0 1 .048-.009l.017-.003c.023-.005.065-.015.093.02.034.04.017.106-.02.142-.027.026-.061.025-.086.025h-.026a.16.16 0 0 0-.033.024l-.014.011-.018.02c-.016.021-.039.05-.077.055a.123.123 0 0 1-.02.002Z" fill="#000" mask="url(#d)"/><path d="M6.308 3.19s.19.236.209.38c.004.031-.021.061-.022.093-.001.05.03.098.027.148-.007.162-.092.31-.132.468-.033.133-.088.401-.088.401l.121-.01.022-.204s.064-.23.094-.347c.02-.08.032-.163.06-.242.019-.051.059-.095.072-.148.017-.07.037-.15.005-.214-.01-.023-.043-.026-.06-.044a.6.6 0 0 1-.1-.149c-.026-.054-.06-.17-.06-.17a3.061 3.061 0 0 1-.148.038" fill="#66452B" mask="url(#d)"/><path d="M6.385 3.218c.059.081.161.235.176.345a.135.135 0 0 1-.013.073.103.103 0 0 0-.008.028c0 .018.005.038.012.06a.25.25 0 0 1 .015.09l-.002.03c.008-.02.019-.037.029-.054a.282.282 0 0 0 .033-.072c.016-.065.033-.135.01-.184a.113.113 0 0 1-.014-.006c-.012-.006-.027-.013-.04-.026a.655.655 0 0 1-.106-.16 1.068 1.068 0 0 1-.05-.135l-.042.01Zm.114.875-.01.028c-.02.055-.041.113-.055.169-.023.092-.058.254-.076.34l.025-.002.02-.174s.063-.23.092-.346l.004-.015Zm-.252.637.012-.059c.002-.01.055-.27.088-.403.015-.06.037-.12.058-.178a.96.96 0 0 0 .073-.28.197.197 0 0 0-.012-.061c-.008-.026-.017-.055-.016-.087 0-.023.008-.042.014-.058a.086.086 0 0 0 .008-.028c-.014-.108-.149-.295-.199-.358l-.044-.055.069-.016a2.59 2.59 0 0 0 .143-.037l.045-.017.013.046c0 .001.033.113.058.163.03.06.06.104.091.138l.015.008c.017.009.04.02.053.047.039.077.017.168 0 .241-.01.04-.028.07-.045.099a.357.357 0 0 0-.03.058 1.125 1.125 0 0 0-.038.148l-.02.09-.093.343-.026.237-.217.02Z" fill="#000" mask="url(#d)"/><path fill="#FFF" mask="url(#d)" d="m5.414 2.76.135.107.233.141.108.007.122.044.152-.005.112.115.032.021.125-.017.046-.051.238-.364-.057-.599-1.136.074z"/><path d="M5.414 2.76c-.131-.065-.227-.188-.35-.261-.094-.133-.215-.266-.209-.44-.015-.18-.062-.43.024-.602-.062-.134-.148-.17-.216-.303-.05-.184-.235-.289-.124-.428.124-.11.211-.24.371-.298a.697.697 0 0 1 .395.028c.164.019.255.16.342.281.105.164.175.35.205.543.076.16.278.191.426.26.127.06.255.111.36.208m0 0c.154.125.303.255.423.413.093.11.15.259.285.327.191.204 1.01.44 1.012.505-.189-.077-.27.18-.453.139-.17.05-.31-.062-.458-.124-.22-.008-.45.004-.648.116-.107.058-.235-.032-.32-.002l-.01.018-.013.012" fill="#FFF" mask="url(#d)"/><path d="M7.535 2.81c-.064-.009-.218.055-.178-.04-.158-.012-.324.022-.476-.03a2.777 2.777 0 0 0-.497-.172c-.165-.009-.36.03-.486-.106-.132-.077-.324-.021-.445-.133a.512.512 0 0 1-.19-.407c-.025-.157-.083-.368.093-.46.115-.035.224-.005.294-.12.146-.025.28.029.406.1.148.073.31.119.454.2.138.092.255.21.384.313.101.116.22.224.285.367.078.153.239.233.376.322.083.021.28.113.093.137-.039.007-.074.026-.113.03" fill="#000" mask="url(#d)"/><path d="M5.924 2.295a.472.472 0 0 1-.228-.077c-.052-.031-.181-.107-.098-.166.07-.008.15.026.211-.021.094-.02.192-.022.279-.068.08-.043.175-.014.258-.04.063-.034.054-.159.149-.138.087-.022.062.146-.016.092-.048.068.087.09.123.133.072.081-.087.1-.1.16-.101.03-.175-.096-.275-.06-.018.033.002.102-.07.085-.084-.051-.156.006-.239.017.024.018-.028.085.006.083m1.741.6c-.047-.024-.107-.003-.16 0-.035 0-.07.002-.103-.013-.051-.001-.15-.057-.165.017.004.033.088.046.018.057-.071.01-.135-.023-.2-.046-.027-.025-.083-.056-.07.004.023.052-.033.077-.077.075a.284.284 0 0 1-.181-.068c-.034.041.047.1.094.102.048.04-.071.025-.098.019-.04-.007-.086-.012-.12.013-.056.012-.058.066.007.06.062.02.132.04.193.007a.642.642 0 0 1 .216-.08c.06-.013.12-.022.182-.028.08-.009.162-.008.244-.008.064.034.127.005.183-.025.035-.01.14-.05.063-.08-.01.003-.017-.013-.026-.006" fill="#69737C" mask="url(#d)"/><path d="M7.447 3.008a.18.18 0 0 0 .091-.015c.03-.018.064-.023.097-.035.042 0 .061-.056.017-.068-.023-.015-.05-.026-.075-.037-.025-.021-.061-.028-.084-.05.02-.024.035-.05.054-.073.03-.011.065-.007.097-.015.023-.007.047-.003.071-.004.033.016.068.027.1.045a.546.546 0 0 0 .101.045c.03.009.058.02.087.031.032.017.07.022.104.034.035.007.049.046.09.04.04.007.076.015.105.043.023.01.062.03.063.05-.032.003-.06-.026-.094-.02-.026.007-.043.032-.074.028-.014.04-.065.033-.09.066A.462.462 0 0 1 8 3.138a.125.125 0 0 1-.096-.003c-.035-.01-.073-.001-.11-.007a.182.182 0 0 1-.11-.01c-.032-.01-.056-.033-.084-.05-.033-.013-.093-.029-.126-.043-.017-.008-.015-.013-.034-.017h.008ZM5.005.407c-.033 0-.067 0-.098.013a.256.256 0 0 0-.14.089.85.85 0 0 1-.159.14.23.23 0 0 0-.069.077c.034.022.086.028.11-.012a.33.33 0 0 1 .137-.101c.048-.01.096.01.143.014.038.02.077.037.121.043.022.009.061.012.093.021.044.017.09.024.136.036a.43.43 0 0 0 .155-.001.419.419 0 0 1 .035-.002.103.103 0 0 0-.013.04.21.21 0 0 0 .029.086l.05.081c.013.031.028.061.04.093.016.024.024.05.035.076.007.03.019.059.04.08.02.027.045.052.064.08.017.026.03.054.042.08.023.02.047.047.078.044.032.004.062-.009.094-.012l-.01-.003c-.03-.015-.045-.046-.06-.073-.008-.03-.01-.063-.016-.092-.002-.03-.013-.06-.023-.088-.008-.026-.018-.05-.025-.075a.816.816 0 0 1-.032-.08c-.01-.028-.02-.058-.036-.083C5.711.851 5.7.822 5.682.795 5.664.771 5.654.739 5.635.716A.067.067 0 0 0 5.598.69c.005-.014 0-.034-.017-.049-.022-.026-.052-.05-.069-.084C5.477.51 5.42.497 5.37.474a.812.812 0 0 0-.181-.05.482.482 0 0 0-.15-.017h-.033" fill="#000" mask="url(#d)"/><path d="M5.58 1.216c-.002-.044-.062-.027-.08-.003-.03.029-.047.07-.083.093-.052.038-.121.044-.173.082-.03.031-.053.07-.094.09-.04.022-.085.047-.107.09-.01.033-.03.077.003.102.042.017.001.056.004.083.02.03.068.042.099.02.04-.024.084-.046.11-.087a.42.42 0 0 1 .138-.12.19.19 0 0 0 .09-.06c.026-.022.004-.064.044-.07.037-.015.056-.05.08-.078.02-.033-.018-.065-.013-.1-.002-.016-.004-.033-.018-.042" fill="#69737C" mask="url(#d)"/><path d="M6.208 4.71h-.221c-.037-.014-.063-.075-.11-.05-.04.015-.08.034-.12.055a.276.276 0 0 0-.093.081c-.004.024-.073.05-.015.051.05.004.08-.047.129-.054.038-.015.08-.006.12-.008A.439.439 0 0 0 6 4.792c.04-.003.076.005.115.004.055.005-.021.039-.039.046-.043.02-.092.026-.138.036-.046 0-.094-.002-.136.019a.85.85 0 0 0-.125.067c-.021.012-.076.041-.022.042.04.005.08-.005.117-.017a1.05 1.05 0 0 1 .205-.053c.046-.01.088-.03.134-.038.028 0 .104-.014.08.036a.3.3 0 0 1-.11.077c-.035.02-.067.05-.11.05-.032-.012-.101.013-.051.046.025.045.077.014.11-.002.039-.02.076-.035.117-.05.045-.017.091-.035.135-.054.036-.023.08-.031.114-.056.04-.023.086-.042.105-.087a.113.113 0 0 1 .075-.072c.04-.01.083-.004.124-.013.046 0 .033-.083-.01-.085-.037-.024-.068-.053-.106-.074a.325.325 0 0 0-.14-.024.118.118 0 0 0-.092.062c-.025.03-.031.08-.08.07-.023.005-.044-.003-.065-.011" fill="#66452B" mask="url(#d)"/><path d="m5.901 4.771.007.003a.165.165 0 0 0 .051.01c-.015-.014-.028-.034-.04-.052a.144.144 0 0 0-.021-.03 1.218 1.218 0 0 0-.093.071.246.246 0 0 1 .054-.001h.042Zm.253.08c.029 0 .06.005.077.032.008.011.018.035.001.07l-.006.01a.232.232 0 0 1-.02.022l.056-.024a.294.294 0 0 1 .057-.027.225.225 0 0 0 .051-.025l.026-.015c.03-.016.055-.03.064-.053a.155.155 0 0 1 .102-.098.341.341 0 0 1 .078-.009.452.452 0 0 0 .037-.002l-.01-.007a.93.93 0 0 1-.047-.033.433.433 0 0 0-.054-.037.272.272 0 0 0-.118-.02c-.03.002-.049.026-.057.04l-.004.006a.142.142 0 0 0-.013.021c-.014.024-.04.073-.101.065a.142.142 0 0 1-.073-.011h-.06c.03.009.038.028.04.04.003.024-.008.041-.026.055Zm-.198.324a.08.08 0 0 1-.069-.037c-.033-.026-.033-.058-.022-.08.018-.037.073-.052.113-.042a.13.13 0 0 0 .054-.027l.027-.017a.409.409 0 0 0 .053-.028.483.483 0 0 0-.059.017.69.69 0 0 1-.065.02.948.948 0 0 0-.199.05.326.326 0 0 1-.138.019c-.042 0-.057-.022-.061-.04-.011-.042.03-.065.064-.083a.91.91 0 0 1 .13-.07.294.294 0 0 1 .13-.024.288.288 0 0 1-.02-.003h-.038c-.024-.001-.045-.002-.062.005l-.01.002a.115.115 0 0 0-.04.02c-.025.017-.056.038-.099.035-.011 0-.049-.001-.061-.036-.012-.033.015-.056.028-.067a.219.219 0 0 0 .01-.008v-.003l.006-.008a.322.322 0 0 1 .108-.095c.043-.023.085-.042.126-.058.054-.028.097.013.12.034l.016.015h.219l.008.003c.014.006.028.011.036.009l.01-.003.012.002c.002 0 .008-.01.012-.018a.218.218 0 0 1 .02-.033.162.162 0 0 1 .126-.08.374.374 0 0 1 .159.026l.007.003c.024.014.046.03.067.045l.034.025c.043.01.068.055.067.096-.001.042-.03.074-.068.077a.394.394 0 0 1-.064.006.24.24 0 0 0-.055.005.067.067 0 0 0-.044.042c-.022.056-.068.081-.105.102l-.02.01a.281.281 0 0 1-.066.034.287.287 0 0 0-.046.022l-.006.003a2.23 2.23 0 0 1-.138.055.991.991 0 0 0-.112.048l-.005.002a.2.2 0 0 1-.09.028Z" fill="#000" mask="url(#d)"/><path d="M5.128 4.987s.042-.155.097-.209c.11-.108.427-.188.427-.188-.135.053-.297.014-.427.051-.109.034-.295.173-.295.173s.069-.148.122-.208c.156-.171.406-.191.594-.163l.214.03s.036.022.02.055c-.033.068-.135.107-.203.14-.192.097-.43.173-.549.319" fill="#66452B" mask="url(#d)"/><path d="M5.505 4.477c-.13 0-.301.03-.42.159a.35.35 0 0 0-.029.039.778.778 0 0 1 .155-.077.793.793 0 0 1 .205-.021.962.962 0 0 0 .155-.01c.04-.012.066-.02.07-.02l.024.076.02-.01c.056-.025.125-.056.15-.098l-.195-.028a.916.916 0 0 0-.135-.01m.087.176c-.107.033-.27.092-.336.157a.136.136 0 0 0-.02.026c.082-.053.176-.095.269-.137l.108-.05a.61.61 0 0 1-.02.004m-.43.362-.078-.04c.005-.017.047-.168.108-.229a.472.472 0 0 1 .108-.074.392.392 0 0 0-.064.012 1.34 1.34 0 0 0-.28.166l-.067-.055c.002-.006.072-.154.128-.219.198-.216.51-.196.635-.177l.222.031.008.005c.036.022.06.067.037.113-.036.073-.125.114-.197.147l-.027.013c-.048.024-.101.048-.154.072-.146.067-.297.135-.38.235" fill="#000" mask="url(#d)"/><path d="M5.779 4.443c-.172.116-.57.324-.554.335 0 0 .338-.077.493-.152.053-.026.129-.045.147-.102a.082.082 0 0 0-.03-.086c-.016-.01-.041-.005-.056.005" fill="#69737C" mask="url(#d)"/><path d="M5.804 4.48c-.073.05-.183.113-.288.174a1.414 1.414 0 0 0 .22-.085c.038-.016.078-.033.086-.059.003-.01-.003-.029-.012-.034.002 0-.003.002-.006.004Zm-.59.347L5.18 4.8v-.025c.003-.033.01-.037.238-.168.119-.068.254-.145.336-.201.027-.018.072-.028.106-.006a.13.13 0 0 1 .049.138c-.021.064-.086.092-.137.113l-.034.015a3.198 3.198 0 0 1-.502.156l-.02.005Z" fill="#000" mask="url(#d)"/><path d="M6.612 3.542c-.052-.003-.06.074-.062.115-.002.03-.002.08.035.083.046.003.057-.062.062-.099.004-.034.008-.097-.035-.099M6.423 4.67c.002-.034-.04-.016-.06-.01-.04.009-.077.033-.113.054-.029.018-.06.033-.088.05-.058.028-.11.066-.168.093a.331.331 0 0 1-.076.029c-.021.004-.014.018.005.016a.22.22 0 0 0 .119-.01c.042-.013.09-.024.131-.041.022-.02.068-.027.093-.042.021-.013.076-.022.099-.032.038-.02.022-.047.065-.048.027 0 .031-.04.004-.046a.023.023 0 0 1-.01-.014Z" fill="#69737C" mask="url(#d)"/><path d="M6.374 4.703a.301.301 0 0 0-.086.057l-.016.013a.62.62 0 0 1-.029.025.21.21 0 0 1 .068-.034l.035-.014c.004-.003.005-.006.01-.015a.135.135 0 0 1 .018-.032Zm-.41.248a.249.249 0 0 1-.045-.004c-.03 0-.054-.019-.058-.046-.003-.023.01-.052.049-.06a.29.29 0 0 0 .065-.024.996.996 0 0 0 .08-.045.917.917 0 0 1 .087-.048.752.752 0 0 1 .033-.019c.017-.009.034-.018.05-.029l.018-.01a.382.382 0 0 1 .11-.05c.024-.008.061-.021.091 0a.058.058 0 0 1 .021.031.067.067 0 0 1 .032.065.066.066 0 0 1-.066.062.115.115 0 0 1-.045.042.299.299 0 0 1-.052.017.27.27 0 0 0-.044.014.256.256 0 0 1-.048.02.159.159 0 0 0-.039.017l-.013.008c-.03.013-.063.022-.094.031a1.347 1.347 0 0 0-.04.012.273.273 0 0 1-.092.016Z" fill="#000" mask="url(#d)"/><path d="M6.033 5.032c.03-.008.063-.007.093-.018.037-.01.073-.021.11-.034l.05-.025c.031-.022.052-.054.072-.084l.04-.079c.006-.021-.02-.03-.033-.015-.02.014-.038.03-.058.043-.02.017-.044.028-.062.046-.022.026-.033.06-.058.084a.128.128 0 0 1-.04.028c-.031.017-.066.026-.098.042-.006.004-.012.007-.016.012" fill="#69737C" mask="url(#d)"/><path d="M6.325 4.893a.221.221 0 0 0-.03.024.24.24 0 0 0-.019.028.284.284 0 0 0 .049-.052Zm-.413.219.086-.108a.09.09 0 0 1 .026-.021c.02-.01.038-.017.054-.024.016-.006.032-.012.047-.02a.092.092 0 0 0 .03-.02.174.174 0 0 0 .026-.037.296.296 0 0 1 .03-.045.26.26 0 0 1 .044-.034c.008-.006.016-.01.023-.017.015-.01.026-.019.036-.027l.021-.016a.065.065 0 0 1 .076-.011.061.061 0 0 1 .03.072l-.003.008-.01.02-.03.06-.004.005a.323.323 0 0 1-.081.094l-.006.004-.052.025a1.345 1.345 0 0 1-.175.05.134.134 0 0 0-.035.005l-.133.037Zm.409-1.877a.092.092 0 0 1-.08-.039l-.02-.022c-.013-.015-.026-.03-.04-.041l-.007-.007c-.03-.03-.06-.06-.082-.1a1 1 0 0 1-.028-.043l-.02-.032a.396.396 0 0 1-.016-.031l-.004-.008.08-.039.005.01.01.022a.84.84 0 0 0 .047.072l.004.005c.015.03.04.054.067.08l.005.004a.375.375 0 0 1 .047.05.72.72 0 0 0 .02.022l.006.008h.005c.004 0 .01 0 .019-.002.015-.005.033-.003.048-.002l.007.001V3.12c0-.016 0-.033.004-.052.002-.008.002-.016.002-.026v-.027a.13.13 0 0 1 .028-.059.12.12 0 0 0 .01-.015l-.006-.031a.756.756 0 0 1-.008-.047.101.101 0 0 0-.014-.048l.076-.048a.184.184 0 0 1 .027.088l.007.038.007.043v.009c-.001.029-.016.049-.027.064-.004.006-.01.014-.01.017v.015c0 .014 0 .03-.005.047-.002.008-.001.019-.001.03 0 .02 0 .046-.01.071-.025.05-.073.045-.096.043a.057.057 0 0 0-.018-.001.174.174 0 0 1-.039.004" fill="#000" mask="url(#d)"/><path d="M6.101 3.104h-.098L5.995 3.1a.164.164 0 0 0-.02-.004.178.178 0 0 1-.053-.015.13.13 0 0 1-.037-.018l-.012-.007a.101.101 0 0 1-.032.001l-.022-.003-.01-.02a.304.304 0 0 0-.039-.046c-.012-.006-.028-.014-.042-.03a.12.12 0 0 1-.04-.043.161.161 0 0 1-.02-.036.082.082 0 0 0-.008-.014.204.204 0 0 1-.017-.032l-.01-.018a.057.057 0 0 1-.007-.044l.088.015c0-.002 0-.01-.006-.02l.015.029.01.017c.007.01.012.02.016.03l.007.013a.133.133 0 0 1 .009.013l.008.012.01.003.01.014c.002.003.006.005.016.01l.021.014a.606.606 0 0 1 .04.045c.012 0 .027 0 .041.01a.178.178 0 0 1 .022.012c.008.005.01.006.015.007l.009.002.008.005a.16.16 0 0 0 .025.006l.03.006h.068c.015.002.026 0 .04-.002a.295.295 0 0 1 .036-.003v.09L6.14 3.1a.217.217 0 0 1-.038.003Z" fill="#000" mask="url(#d)"/><path d="M5.833 3.074a.115.115 0 0 1-.053-.018l-.01-.005-.008-.003-.013-.007c-.009-.004-.017-.009-.026-.012l-.014-.007a.152.152 0 0 0-.027-.014l-.008-.003-.02-.01a.183.183 0 0 1-.031-.02.153.153 0 0 1-.036-.02.09.09 0 0 0-.014-.01l-.01-.003-.01-.007a.223.223 0 0 0-.048-.036l-.008-.006-.024-.018a.385.385 0 0 1-.053-.043.13.13 0 0 1-.052-.092.155.155 0 0 0-.013-.054l-.007-.013.002-.008a.066.066 0 0 1-.004-.037l.088.016a.025.025 0 0 0-.001-.012c.002.006.006.014.007.026.01.024.016.05.018.076 0 .008.005.016.024.033a.338.338 0 0 0 .044.036l.023.018.006.003c.017.012.035.024.053.039.013.005.023.013.031.019l.016.01.013.003.01.01.017.009a.278.278 0 0 1 .022.012h.002a.241.241 0 0 1 .038.02c.013.005.024.01.034.016l.008.005c.008.002.016.007.023.01a.117.117 0 0 0 .015.008.029.029 0 0 0-.02.004.03.03 0 0 0-.014.017l.089.014a.061.061 0 0 1-.033.048.057.057 0 0 1-.026.006" fill="#000" mask="url(#d)"/><path d="M7.536 3.033c.023.001.047 0 .07-.006.023-.002.045-.011.068-.016.024-.01.043-.034.071-.032.025-.001.053.008.076-.008a.055.055 0 0 1 .058-.022c.023-.003.046.004.068.009.021.008.043.012.065.02.02.01.04.022.061.03.022.012-.015.027-.021.037-.022.01-.048.001-.067.018a.098.098 0 0 0-.046.045c-.011.023-.04.017-.06.024-.021.003-.042 0-.063.004-.017 0-.036.007-.052-.002a.25.25 0 0 0-.068-.012c-.018-.013-.033-.033-.056-.035-.032-.007-.058-.028-.089-.038a.027.027 0 0 1-.015-.016" fill="#BCA76B" mask="url(#d)"/><path d="M4.68.987C4.626.976 4.574 1 4.521.999c-.048.011-.099.003-.149.006a.485.485 0 0 0-.16.003c-.078.013-.152.044-.23.056-.107.007-.215 0-.322.003-.075.006.008-.091.05-.087.098-.026.193-.062.294-.071.075-.012.148-.035.222-.048.06-.017.122-.03.182-.048.063-.01.126-.022.19-.011.064-.017.13-.032.192-.059.057-.028.125-.009.178-.044.033-.05.096-.048.15-.043.056.01.119.031.153.081.042.06-.086.053-.047.117-.023.023-.067.028-.101.027-.03-.002-.062.006-.089-.01-.049-.018-.086-.055-.13-.08-.046-.008-.048.077-.106.068-.073.028-.153.02-.23.022.048.017.101.035.14.069.015.023-.012.032-.03.037" fill="#000" mask="url(#d)"/><path d="M3.715 1.036h.069c.064.002.131.002.196-.002.036-.006.073-.016.113-.027.037-.01.076-.022.116-.028a.529.529 0 0 1 .166-.004h.052c.032 0 .061.001.089-.005h.007c.02 0 .039-.004.06-.008a.279.279 0 0 1 .082-.007.471.471 0 0 0-.094-.042L4.558.91l.01-.058h.045c.062 0 .121 0 .175-.02l.008-.003.007.001c.011.002.016-.002.031-.024.014-.02.036-.05.075-.044l.01.003c.018.01.035.022.051.034a.306.306 0 0 0 .075.044l.005.003c.012.007.028.007.047.006h.028a.15.15 0 0 0 .063-.009c-.007-.04.03-.063.046-.073L5.25.758 5.248.754C5.224.72 5.18.697 5.113.685c-.056-.005-.098-.001-.12.03l-.008.009a.228.228 0 0 1-.107.03.237.237 0 0 0-.074.016c-.062.027-.125.042-.186.057l-.019.005-.006-.001a.502.502 0 0 0-.169.01l-.01.002-.091.024-.087.023c-.036.007-.07.014-.102.022a1.2 1.2 0 0 1-.125.026c-.073.007-.14.027-.213.049a3.392 3.392 0 0 1-.077.022l-.005.001h-.006c-.008 0-.027.014-.038.027h.045m.138.06h-.191c-.032.002-.047-.011-.055-.023-.006-.01-.013-.03.006-.06C3.63.985 3.67.95 3.708.95l.071-.02c.072-.022.146-.044.223-.051.038-.006.08-.016.118-.025.034-.008.068-.016.102-.022l.086-.023L4.4.784l.013-.002c.06-.01.12-.02.183-.01L4.604.77c.061-.016.12-.03.175-.054.03-.015.062-.018.093-.021a.202.202 0 0 0 .076-.018c.046-.062.128-.055.173-.051.086.016.143.046.176.094a.064.064 0 0 1 .013.05c-.006.026-.027.04-.044.05a.102.102 0 0 0-.019.013l.003.005.012.02-.016.016c-.034.036-.092.038-.124.037H5.1c-.024 0-.05.001-.077-.013a.365.365 0 0 1-.086-.051L4.898.82c-.005.003-.01.012-.015.018-.014.02-.036.052-.08.05a.38.38 0 0 1-.1.02.218.218 0 0 1 .025.018l.006.007c.013.02.01.036.006.044-.01.026-.039.034-.053.038l-.007.002-.007-.002a.21.21 0 0 0-.08.005.373.373 0 0 1-.067.008c-.034.007-.068.006-.1.006h-.054l-.004-.001a.466.466 0 0 0-.15.004.987.987 0 0 0-.11.026c-.039.011-.08.023-.121.03a2.03 2.03 0 0 1-.134.003" fill="#000" mask="url(#d)"/><path d="m4.99.78.048-.024.027-.048s.041.069.022.092c-.023.026-.098-.02-.098-.02Zm.129-.124c.01-.008-.04-.04-.003-.047.04-.048.102-.009.148.006.09.028.183.063.242.139.085.098.105.233.172.342.03.052.048.109.067.165.014.044.082.09.047.139-.042.025-.085-.009-.124-.02-.054-.005-.028.055.007.062.038.015.05.076-.004.072-.052-.006-.104-.01-.155-.018-.04-.022.01-.062.034-.077.03-.018.07-.043.064-.084 0-.075-.051-.137-.062-.21-.014-.054-.027-.11-.054-.159C5.475.849 5.37.769 5.262.733c-.047-.024-.096-.045-.14-.07L5.119.655" fill="#FFF" mask="url(#d)"/><path d="m5.508.714.046.026a.575.575 0 0 1 .05.072c.006.013.01.027.012.04.003.018.017.03.026.044.009.02.015.041.023.061a.15.15 0 0 1 .025.051.266.266 0 0 0 .014.047c.01.012.014.037-.008.038a.064.064 0 0 1-.038-.024c-.017-.015-.026-.037-.04-.055a.141.141 0 0 1-.015-.041c-.01-.016-.011-.035-.018-.051-.008-.016-.01-.034-.02-.05S5.551.837 5.54.82C5.531.8 5.498.749 5.506.725l.002-.01m-.35-.131a.07.07 0 0 1-.03-.023C5.12.556 5.102.55 5.096.543c-.023.01-.004-.015-.016-.01-.005-.01-.004-.016-.01-.025-.007-.009-.016-.015-.022-.024 0-.004-.01-.01 0-.01a.073.073 0 0 1 .036.003c.012-.002.02.007.033.005h.05c.007-.003.009.008.017.005.006 0 .008.006.014.003.014.001.016.015.023.023.01.006.015.017.017.028a.033.033 0 0 1 .004.012c.001-.003.001.012-.005.011-.008.009-.02.01-.03.015-.011.001-.02.012-.032.01L5.158.583" fill="#BCA76B" mask="url(#d)"/><path d="M5.128.561a.101.101 0 0 1-.054.012c-.012.003-.021.012-.03.02a.1.1 0 0 1-.037.012c-.01-.003-.018-.01-.028-.013-.008-.004-.008-.016-.018-.018-.009-.007-.02-.011-.03-.015-.01-.004-.006-.015-.007-.023 0-.01 0-.018.004-.026 0-.013.011-.018.022-.015h.062c.01-.006.022-.012.034-.01.011.004.017.016.026.023.02.017.038.036.056.053m.093-.048a.14.14 0 0 1 .044-.016c.015 0 .03.006.044.01a.15.15 0 0 1 .046.017c.016.005.031.014.047.021.014.008.028.017.043.024a.27.27 0 0 1 .039.023c.013.01.026.02.036.034.009.01 0 .03-.014.02a.19.19 0 0 0-.044-.02.124.124 0 0 1-.041-.011C5.406.612 5.39.602 5.377.598l-.06-.024C5.31.568 5.298.567 5.29.561L5.235.534C5.23.528 5.22.523 5.221.514" fill="#FFF" mask="url(#d)"/><path d="M5.442.828c-.06-.005-.12.023-.178.004-.045-.006-.08.028-.118.044-.05-.005-.06.066-.104.063-.038-.005-.083-.034-.117-.02.077.033.155.068.224.117.037.035.08.065.128.08.033.014.072.047.057.088-.015.047-.085.055-.088.108-.008.047-.06.067-.076.109-.018.033-.06.052-.063.092.01.05.068.013.067-.024.008-.032.037-.082.077-.061.032.046.072-.032.11-.014.019.027.06.042.079.006.026-.01.068-.028.042-.065 0-.039.047-.036.069-.058.03-.014.062-.053.029-.081-.03-.041.002-.1-.035-.138-.028-.044 0-.099-.023-.144-.02-.038-.035-.091-.075-.107h-.005Z" fill="#000" mask="url(#d)"/><path d="M7.045 2.453c-.068-.002-.123.05-.19.056-.082.011.021.048.046.066.065.043.143.058.215.083a.367.367 0 0 0 .218.039c.07-.016.018-.085-.001-.123-.042-.06-.112-.09-.164-.139-.038-.033-.095-.021-.124.018" fill="#69737C" mask="url(#d)"/><path d="M7 2.598c-.026.003-.05.01-.076.008-.029.003-.06.009-.087-.007-.03-.008-.061-.014-.089-.03-.02-.014-.05-.02-.062-.044-.018-.025.019-.027.035-.03a.237.237 0 0 1 .094-.006c.033.017.07.027.104.044a.218.218 0 0 1 .075.049c0-.001.005.01.005.016m.335-.021c.005.03-.047.002-.065.011a.18.18 0 0 1-.098-.02.762.762 0 0 0-.157-.059c-.025-.007-.077-.03-.04-.06a.226.226 0 0 1 .104-.045c.039-.002.072.024.107.037.036.017.074.032.105.058.022.018.047.046.044.078" fill="#FFF" mask="url(#d)"/><path d="M6.409 2.247a.302.302 0 0 1-.164.042c-.051.02-.14-.027-.157.04-.025.056.042.08.077.104.104.06.228.057.344.062.032.002.133-.012.08-.05-.06-.045-.102-.105-.149-.16-.012-.012-.024-.023-.031-.038m.585.038c-.024-.003-.046-.013-.068-.02-.031-.01-.057-.03-.087-.045-.04-.023-.078-.047-.12-.066-.02-.008-.016-.03.006-.027.022.001.03-.034.051-.011a.296.296 0 0 1 .073.058c.025.021.049.046.081.054.024.013.062.026.064.057m-.079.108s-.106.028-.155.007c-.037-.01-.074-.017-.108-.035-.041-.021-.086-.04-.118-.074-.026-.033.006-.085.048-.071.026-.007.015-.066.055-.04a.718.718 0 0 1 .154.088c.028.027.06.05.086.078l.038.047m-.789-.743c.07.018.153.051.196.113.062.076-.06.117-.114.074-.09-.044-.18-.089-.277-.116-.092.012.041.065.067.09.04.023.076.07.075.116-.06.047-.139-.003-.206-.01-.073-.008-.114-.072-.16-.121-.033-.035-.072-.056-.117-.036 0 .062.045.077.073.129.025.03.122.11.029.11a.282.282 0 0 1-.168-.125c-.042-.044-.075-.133.011-.144a.48.48 0 0 1 .247-.067c.094-.008.19.007.282-.018.013.004.073-.027.062.005" fill="#69737C" mask="url(#d)"/><path d="M5.412 1.704a.123.123 0 0 0-.02.06c-.002.026 0 .05.003.073.007.02.011.041.02.06.01.021.03.034.047.05.014.015.029.023.047.033a.214.214 0 0 0 .043.02.305.305 0 0 0 .056.015c.02.004.036 0 .044-.017.021-.013.004-.024-.01-.029-.017-.003-.03-.016-.045-.028a.184.184 0 0 1-.038-.048c-.006-.016-.017-.03-.027-.046-.011-.013-.02-.026-.034-.039a.352.352 0 0 1-.042-.046.523.523 0 0 0-.039-.045c-.003-.004-.006-.008-.005-.013m.62.244a.989.989 0 0 1-.15-.033.275.275 0 0 1-.134-.096c-.04-.037-.078-.075-.123-.104-.048-.014-.068.053-.037.082.026.042.064.074.094.114a.469.469 0 0 0 .12.086.405.405 0 0 0 .187.05c.038-.005.082-.028.092-.067.003-.026-.03-.03-.049-.032m-.137.316c-.035.006-.073.006-.102-.016a.186.186 0 0 1-.066-.07.198.198 0 0 0-.088-.068c-.032-.01-.07.013-.06.05.004.03.027.054.048.075.034.034.08.049.123.067a.16.16 0 0 0 .072.015c.025 0 .064.009.072-.023.002-.01 0-.02 0-.03Zm.345-.101c.03.013.05.05.03.08a.108.108 0 0 1-.099.044c-.032-.001-.064.004-.096-.006a.544.544 0 0 1-.101-.045c-.036-.011-.04-.054-.064-.078-.015-.028.035-.041.055-.033.035.011.057.044.09.057a.24.24 0 0 0 .085.03c.026.007.06.012.077-.014a.244.244 0 0 1 .023-.035m.302-.076c.025.027.01.077-.026.085-.03.006-.061.013-.091.003a.41.41 0 0 1-.12-.058c-.023-.019-.059-.025-.075-.052-.01-.035.029-.064.062-.051.048.015.099.021.143.046.033.014.066.029.1.03l.007-.003Z" fill="#FFF" mask="url(#d)"/><path d="M7.82 3.189c-.108 0-.204-.049-.291-.093-.03-.015-.06-.03-.091-.043-.2-.007-.427.002-.617.11-.076.041-.157.024-.222.01a.335.335 0 0 0-.09-.012l-.01.013-.013.011-.06-.067.007-.006.014-.027.017-.006c.049-.017.102-.005.154.006.058.013.114.025.16 0 .211-.12.458-.13.671-.122l.016.004a1.1 1.1 0 0 1 .104.05c.108.054.21.105.323.072l.011-.003.012.002c.066.015.118-.023.177-.067a.55.55 0 0 1 .107-.068l-.175-.071c-.26-.104-.582-.232-.705-.358a.616.616 0 0 1-.214-.225c-.026-.039-.05-.076-.078-.109a2.441 2.441 0 0 0-.417-.407l.029-.035-.03.033a1.112 1.112 0 0 0-.298-.177L6.26 1.58a1.284 1.284 0 0 0-.111-.044c-.127-.047-.271-.1-.337-.236l-.003-.013A1.356 1.356 0 0 0 5.61.762l-.014-.02C5.516.63 5.435.516 5.299.5L5.29.498a.648.648 0 0 0-.37-.026.696.696 0 0 0-.25.19c-.031.03-.063.063-.098.095-.045.058-.02.103.04.196a.69.69 0 0 1 .093.184c.03.057.062.094.097.133.04.045.083.092.117.168l.01.02-.01.019c-.066.131-.046.317-.029.481l.01.097c-.005.139.078.251.159.36l.037.05c.055.035.104.077.152.119.06.052.118.102.185.135l-.04.08a.995.995 0 0 1-.204-.148c-.05-.042-.096-.083-.147-.114l-.008-.005-.006-.007c-.013-.02-.027-.038-.041-.057-.086-.115-.182-.246-.177-.41a8.044 8.044 0 0 0-.009-.09c-.017-.16-.038-.358.028-.51a.586.586 0 0 0-.094-.128c-.037-.043-.077-.087-.112-.156l-.003-.009a.587.587 0 0 0-.083-.164c-.058-.089-.123-.19-.033-.303L4.51.692c.033-.03.065-.062.096-.093a.77.77 0 0 1 .29-.213.736.736 0 0 1 .419.026c.172.022.268.158.353.278l.015.021c.109.17.181.36.212.556.051.1.17.143.284.185.04.014.08.03.117.046l.053.025c.11.05.223.103.319.191.15.122.305.257.429.42.03.035.057.076.083.115.054.081.104.158.186.2l.013.008c.105.113.436.245.678.342.291.116.344.14.346.192l.003.07-.065-.027c-.072-.03-.121.003-.195.058-.065.049-.138.104-.24.086a.346.346 0 0 1-.087.01" fill="#000" mask="url(#d)"/></g><path fill="#00227C" d="M0-.041h30v20H0z"/><g transform="translate(0 -.041)"><mask id="f" fill="#fff"><use xlink:href="#e"/></mask><path fill="#F0F0F0" mask="url(#f)" d="M0 20.08h30V.04H0z"/></g><g transform="translate(0 -.041)"><mask id="h" fill="#fff"><use xlink:href="#g"/></mask><path fill="#D70027" mask="url(#h)" d="M0 20.08h30V.04H0z"/></g><g transform="translate(18 12.959)"><mask id="j" fill="#fff"><use xlink:href="#i"/></mask><path fill="#0057B4" mask="url(#j)" d="M0 7.08h12V.36H0z"/></g><g transform="translate(18 12.959)"><mask id="l" fill="#fff"><use xlink:href="#k"/></mask><path fill="#F0F0F0" mask="url(#l)" d="M0 7.08h12V.36H0z"/></g><g transform="translate(18 12.959)"><mask id="n" fill="#fff"><use xlink:href="#m"/></mask><path fill="#D70027" mask="url(#n)" d="M0 7.08h12V.36H0z"/></g><g transform="translate(0 12.959)"><mask id="p" fill="#fff"><use xlink:href="#o"/></mask><path fill="#D70027" mask="url(#p)" d="M0 6.84h11.52V.36H0z"/></g><g transform="translate(0 -.041)"><mask id="r" fill="#fff"><use xlink:href="#q"/></mask><path fill="#0057B4" mask="url(#r)" d="M0 6.4h11.52V.04H0z"/></g><g transform="translate(0 -.041)"><mask id="t" fill="#fff"><use xlink:href="#s"/></mask><path fill="#F0F0F0" mask="url(#t)" d="M0 6.4h11.52V.04H0z"/></g><g transform="translate(0 -.041)"><mask id="v" fill="#fff"><use xlink:href="#u"/></mask><path fill="#D70027" mask="url(#v)" d="M0 6.4h11.52V.04H0z"/></g><g transform="translate(18 -.041)"><mask id="x" fill="#fff"><use xlink:href="#w"/></mask><path fill="#D70027" mask="url(#x)" d="M0 6.4h12V.04H0z"/></g></g></svg>