<svg width="60" height="40" xmlns="http://www.w3.org/2000/svg" xmlns:xlink="http://www.w3.org/1999/xlink"><defs><path id="a" d="M0 0h30v20H0z"/><path id="b" d="M30-.001v3.267l-5.381 2.99H30v7.072h-7.042L30 17.24v2.719h-3.179l-8.756-4.865v4.865h-6.63v-5.787L1.018 19.959H0V16.04l4.881-2.712H0V6.256h6.542L0 2.62V-.001h3.35l8.085 4.49V0h6.63v5.414L27.811 0z"/><path id="d" d="M16.656-.001v7.887H30v3.812H16.656v8.26h-3.812v-8.26H0V7.886h12.844V-.001z"/><path id="f" d="M18.065 13.328h3.375L30 18.084v1.875z"/><path id="h" d="M18.065 13.328h3.375L30 18.084v1.875z"/><path id="j" d="M18.065 13.328h3.375L30 18.084v1.875z"/><path id="l" d="M0 19.681v-1.875l8.06-4.478h3.375z"/><path id="n" d="m.173-.001 11.262 6.257H8.06L0 1.778v-1.78z"/><path id="p" d="m.173-.001 11.262 6.257H8.06L0 1.778v-1.78z"/><path id="r" d="m.173-.001 11.262 6.257H8.06L0 1.778v-1.78z"/><path id="t" d="M30-.001v1.5l-8.56 4.757h-3.375L29.327-.001z"/></defs><g fill="none" fill-rule="evenodd"><path fill="#0096C8" d="M-.004 0 .02 40h59.95V0z"/><path d="m33.17 31.852 1.47-1.069h-1.817l-.562-1.729-.562 1.73h-1.818l1.471 1.068-.562 1.728 1.47-1.068 1.472 1.068zm6.781-7.439h1.818l-1.47-1.069.56-1.728-1.47 1.068-1.47-1.068.561 1.728-1.47 1.069h1.818l.561 1.729zm6.642 3.485.562-1.728-1.47 1.068-1.471-1.068.561 1.728-1.47 1.069h1.818l.561 1.729.562-1.73h1.818zm3.77-4.656-.562-1.729-.561 1.729h-1.818l1.47 1.069-.561 1.728 1.47-1.068 1.471 1.068-.562-1.728 1.47-1.069zm5.663-2.353 1.47-1.069h-1.818l-.561-1.728-.562 1.728h-1.818l1.47 1.069-.56 1.729 1.47-1.069 1.47 1.069zm-9.433-6.25.562-1.73-1.47 1.07-1.471-1.07.561 1.73-1.47 1.068h1.818l.561 1.729.562-1.729h1.818zm5.291-1.809.561-1.728-1.47 1.068-1.47-1.068.56 1.729-1.47 1.068h1.818l.562 1.729.561-1.729h1.818zm4.142-3.635 1.47-1.068h-1.818l-.561-1.73-.562 1.73h-1.818l1.47 1.068-.56 1.729 1.47-1.069 1.47 1.069zM40.298 29.439l.562-1.73-1.47 1.07-1.471-1.07.561 1.73-1.47 1.068h1.818l.561 1.729.562-1.729h1.818z" fill="#FFCE00"/><use fill="#00247D" xlink:href="#a"/><mask id="c" fill="#fff"><use xlink:href="#b"/></mask><path fill="#F0F0F0" mask="url(#c)" d="M0 20.039h30V-.001H0z"/><mask id="e" fill="#fff"><use xlink:href="#d"/></mask><path fill="#D70027" mask="url(#e)" d="M0 20.039h30V-.001H0z"/><mask id="g" fill="#fff"><use xlink:href="#f"/></mask><path fill="#0057B4" mask="url(#g)" d="M18 20.039h12v-6.72H18z"/><mask id="i" fill="#fff"><use xlink:href="#h"/></mask><path fill="#F0F0F0" mask="url(#i)" d="M18 20.039h12v-6.72H18z"/><mask id="k" fill="#fff"><use xlink:href="#j"/></mask><path fill="#D70027" mask="url(#k)" d="M18 20.039h12v-6.72H18z"/><mask id="m" fill="#fff"><use xlink:href="#l"/></mask><path fill="#D70027" mask="url(#m)" d="M0 19.799h11.52v-6.48H0z"/><mask id="o" fill="#fff"><use xlink:href="#n"/></mask><path fill="#0057B4" mask="url(#o)" d="M0 6.359h11.52v-6.36H0z"/><mask id="q" fill="#fff"><use xlink:href="#p"/></mask><path fill="#F0F0F0" mask="url(#q)" d="M0 6.359h11.52v-6.36H0z"/><mask id="s" fill="#fff"><use xlink:href="#r"/></mask><path fill="#D70027" mask="url(#s)" d="M0 6.359h11.52v-6.36H0z"/><mask id="u" fill="#fff"><use xlink:href="#t"/></mask><path fill="#D70027" mask="url(#u)" d="M18 6.359h12v-6.36H18z"/></g></svg>