<svg width="48" height="48" viewBox="0 0 48 48" fill="none" xmlns="http://www.w3.org/2000/svg">
<mask id="mask0_4607_20982" style="mask-type:luminance" maskUnits="userSpaceOnUse" x="0" y="0" width="48" height="48">
<path d="M24 48C37.2548 48 48 37.2548 48 24C48 10.7452 37.2548 0 24 0C10.7452 0 0 10.7452 0 24C0 37.2548 10.7452 48 24 48Z" fill="white"/>
</mask>
<g mask="url(#mask0_4607_20982)">
<path d="M3.81836 0V29.4545H14.5638L24.0002 13.0909H48.0002V0H3.81836Z" fill="#DB4437"/>
<path d="M3.81836 0V29.4545H14.5638L24.0002 13.0909H48.0002V0H3.81836Z" fill="url(#paint0_linear_4607_20982)"/>
<path d="M0 48H22.8545L33.4909 37.3636V29.4545H14.5091L0 4.5V48Z" fill="#0F9D58"/>
<path d="M0 48H22.8545L33.4909 37.3636V29.4545H14.5091L0 4.5V48Z" fill="url(#paint1_linear_4607_20982)"/>
<path d="M24.0001 13.0908L33.4365 29.4545L22.9092 47.9999H48.0001V13.0908H24.0001Z" fill="#FFCD40"/>
<path d="M24.0001 13.0908L33.4365 29.4545L22.9092 47.9999H48.0001V13.0908H24.0001Z" fill="url(#paint2_linear_4607_20982)"/>
<path d="M14.8093 29.3721L3.81836 11.0176L14.4547 29.5085L14.8093 29.3721Z" fill="#3E2723" fill-opacity="0.1"/>
<path d="M33.219 29.8083L33.0009 29.6992L22.8281 47.9719L33.2736 29.6992L33.219 29.8083Z" fill="#263238" fill-opacity="0.1"/>
<path d="M24 13.0908V18.8181L45.3818 13.0908H24Z" fill="url(#paint3_radial_4607_20982)"/>
<path d="M3.81836 11.0449L19.4184 26.6449L14.5638 29.454L3.81836 11.0449Z" fill="url(#paint4_radial_4607_20982)"/>
<path d="M22.8545 48.0001L28.5818 26.6455L33.4363 29.4546L22.8545 48.0001Z" fill="url(#paint5_radial_4607_20982)"/>
<path d="M23.9999 34.909C30.0248 34.909 34.909 30.0248 34.909 23.9999C34.909 17.975 30.0248 13.0908 23.9999 13.0908C17.975 13.0908 13.0908 17.975 13.0908 23.9999C13.0908 30.0248 17.975 34.909 23.9999 34.909Z" fill="#F1F1F1"/>
<path d="M24.0007 32.728C28.8207 32.728 32.728 28.8207 32.728 24.0007C32.728 19.1808 28.8207 15.2734 24.0007 15.2734C19.1808 15.2734 15.2734 19.1808 15.2734 24.0007C15.2734 28.8207 19.1808 32.728 24.0007 32.728Z" fill="#4285F4"/>
<path d="M24 48C37.2548 48 48 37.2548 48 24C48 10.7452 37.2548 0 24 0C10.7452 0 0 10.7452 0 24C0 37.2548 10.7452 48 24 48Z" fill="url(#paint6_radial_4607_20982)"/>
<path d="M33.4364 29.4553C32.4774 31.1084 31.101 32.4806 29.4449 33.4345C27.7888 34.3884 25.9112 34.8905 24 34.8905C22.0888 34.8905 20.2112 34.3884 18.5551 33.4345C16.899 32.4806 15.5226 31.1084 14.5636 29.4553L0 4.77344L14.5636 29.728C15.5226 31.3811 16.899 32.7534 18.5551 33.7072C20.2112 34.6611 22.0888 35.1632 24 35.1632C25.9112 35.1632 27.7888 34.6611 29.4449 33.7072C31.101 32.7534 32.4774 31.3811 33.4364 29.728V29.4553Z" fill="white" fill-opacity="0.1"/>
<path d="M24.2727 13.0908H24.1364C27.0296 13.0908 29.8044 14.2402 31.8503 16.286C33.8961 18.3319 35.0455 21.1066 35.0455 23.9999C35.0455 26.8932 33.8961 29.668 31.8503 31.7138C29.8044 33.7597 27.0296 34.909 24.1364 34.909H24.2727C30.2727 34.909 35.1818 29.9999 35.1818 23.9999C35.1818 17.9999 30.2727 13.0908 24.2727 13.0908ZM24 47.7272C30.3416 47.7273 36.4256 45.2174 40.9225 40.746C45.4195 36.2746 47.964 30.2051 48 23.8635V23.9999C48 30.3651 45.4714 36.4696 40.9706 40.9705C36.4697 45.4713 30.3652 47.9999 24 47.9999C17.6348 47.9999 11.5303 45.4713 7.02944 40.9705C2.52856 36.4696 0 30.3651 0 23.9999V23.8635C0.036032 30.2051 2.58049 36.2746 7.07747 40.746C11.5744 45.2174 17.6584 47.7273 24 47.7272Z" fill="#3E2723" fill-opacity="0.1"/>
<path d="M33.5455 29.8091C34.3071 28.5022 34.7835 27.0489 34.9433 25.5447C35.1031 24.0405 34.9427 22.5196 34.4727 21.0818C34.8968 22.4721 35.0236 23.9359 34.8451 25.3784C34.6665 26.8209 34.1866 28.2097 33.4364 29.4545L23.1818 48L33.6 29.8636L33.5455 29.8091ZM24 0.272727C30.3416 0.272625 36.4256 2.78246 40.9225 7.25388C45.4195 11.7253 47.964 17.7948 48 24.1364V24C48 17.6348 45.4714 11.5303 40.9706 7.02944C36.4697 2.52856 30.3652 0 24 0C17.6348 0 11.5303 2.52856 7.02944 7.02944C2.52856 11.5303 0 17.6348 0 24V24.1364C0.036032 17.7948 2.58049 11.7253 7.07747 7.25388C11.5744 2.78246 17.6584 0.272625 24 0.272727Z" fill="white" fill-opacity="0.2"/>
<path d="M23.9999 12.8184C17.9999 12.8184 13.0908 17.7274 13.0908 23.7274V24.0002C13.0908 18.0002 17.9999 13.0911 23.9999 13.0911H47.9999V12.8184H23.9999Z" fill="#3E2723" fill-opacity="0.2"/>
</g>
<defs>
<linearGradient id="paint0_linear_4607_20982" x1="5.80927" y1="18.5455" x2="20.1274" y2="10.2" gradientUnits="userSpaceOnUse">
<stop stop-color="#A52714" stop-opacity="0.6"/>
<stop offset="0.7" stop-color="#A52714" stop-opacity="0"/>
</linearGradient>
<linearGradient id="paint1_linear_4607_20982" x1="28.0636" y1="42.9545" x2="12.1364" y2="33.6273" gradientUnits="userSpaceOnUse">
<stop stop-color="#055524" stop-opacity="0.4"/>
<stop offset="0.3" stop-color="#055524" stop-opacity="0"/>
</linearGradient>
<linearGradient id="paint2_linear_4607_20982" x1="31.3365" y1="11.6726" x2="35.3455" y2="29.209" gradientUnits="userSpaceOnUse">
<stop stop-color="#EA6100" stop-opacity="0.3"/>
<stop offset="0.7" stop-color="#EA6100" stop-opacity="0"/>
</linearGradient>
<radialGradient id="paint3_radial_4607_20982" cx="0" cy="0" r="1" gradientUnits="userSpaceOnUse" gradientTransform="translate(22.9636 13.0908) scale(22.9364 22.9364)">
<stop stop-color="#3E2723" stop-opacity="0.2"/>
<stop offset="1" stop-color="#3E2723" stop-opacity="0"/>
</radialGradient>
<radialGradient id="paint4_radial_4607_20982" cx="0" cy="0" r="1" gradientUnits="userSpaceOnUse" gradientTransform="translate(3.79109 11.0449) scale(21.2727)">
<stop stop-color="#3E2723" stop-opacity="0.2"/>
<stop offset="1" stop-color="#3E2723" stop-opacity="0"/>
</radialGradient>
<radialGradient id="paint5_radial_4607_20982" cx="0" cy="0" r="1" gradientUnits="userSpaceOnUse" gradientTransform="translate(23.9454 24.0273) scale(23.9727)">
<stop stop-color="#263238" stop-opacity="0.2"/>
<stop offset="1" stop-color="#263238" stop-opacity="0"/>
</radialGradient>
<radialGradient id="paint6_radial_4607_20982" cx="0" cy="0" r="1" gradientUnits="userSpaceOnUse" gradientTransform="translate(7.17273 6.54545) scale(48.2182)">
<stop stop-color="white" stop-opacity="0.1"/>
<stop offset="1" stop-color="white" stop-opacity="0"/>
</radialGradient>
</defs>
</svg>
