<svg width="24" height="24" viewBox="0 0 24 24" fill="none" xmlns="http://www.w3.org/2000/svg">
<path fill-rule="evenodd" clip-rule="evenodd" d="M19.122 4.25H4.87803C5.18691 3.37611 6.02034 2.75 7 2.75H17C17.9797 2.75 18.8131 3.37611 19.122 4.25ZM23.25 8C23.25 6.35227 22.1873 4.95275 20.7099 4.44946C20.4436 2.63939 18.884 1.25 17 1.25H7C5.11596 1.25 3.55643 2.63939 3.29013 4.44946C1.81271 4.95275 0.75 6.35227 0.75 8V16C0.75 17.6477 1.81271 19.0472 3.29013 19.5505C3.55643 21.3606 5.11596 22.75 7 22.75H17C18.884 22.75 20.4436 21.3606 20.7099 19.5505C22.1873 19.0472 23.25 17.6477 23.25 16V8ZM7 21.25C6.02034 21.25 5.18691 20.6239 4.87803 19.75H19.122C18.8131 20.6239 17.9797 21.25 17 21.25H7ZM2.25 8C2.25 6.75736 3.25736 5.75 4.5 5.75H8V18.25H4.5C3.25736 18.25 2.25 17.2426 2.25 16V8ZM9 18.25H15V5.75H9V18.25ZM16 5.75V18.25H19.5C20.7426 18.25 21.75 17.2426 21.75 16V8C21.75 6.75736 20.7426 5.75 19.5 5.75H16ZM10.7613 14.393C10.8587 14.463 10.9863 14.498 11.144 14.498C11.325 14.498 11.4711 14.4677 11.5825 14.407C11.6984 14.3417 11.7935 14.2367 11.8678 14.092L13.6492 10.774C13.7142 10.6527 13.7675 10.5383 13.8093 10.431C13.8557 10.319 13.8789 10.1883 13.8789 10.039C13.8789 9.86633 13.8209 9.73333 13.7049 9.64C13.5936 9.54667 13.4521 9.5 13.2804 9.5H10.6639C10.4922 9.5 10.3577 9.54433 10.2603 9.633C10.1675 9.72167 10.1211 9.85233 10.1211 10.025C10.1211 10.1977 10.1675 10.3283 10.2603 10.417C10.3577 10.5057 10.4922 10.55 10.6639 10.55H12.4162L10.6917 13.7C10.6129 13.8447 10.5804 13.9777 10.5943 14.099C10.6082 14.2203 10.6639 14.3183 10.7613 14.393ZM18.023 14.498C17.8652 14.498 17.7376 14.463 17.6402 14.393C17.5428 14.3183 17.4871 14.2203 17.4732 14.099C17.4593 13.9777 17.4918 13.8447 17.5706 13.7L19.2951 10.55H17.5428C17.3711 10.55 17.2366 10.5057 17.1392 10.417C17.0464 10.3283 17 10.1977 17 10.025C17 9.85233 17.0464 9.72167 17.1392 9.633C17.2366 9.54433 17.3711 9.5 17.5428 9.5H20.1593C20.331 9.5 20.4725 9.54667 20.5838 9.64C20.6998 9.73333 20.7578 9.86633 20.7578 10.039C20.7578 10.1883 20.7346 10.319 20.6882 10.431C20.6465 10.5383 20.5931 10.6527 20.5282 10.774L18.7467 14.092C18.6725 14.2367 18.5773 14.3417 18.4614 14.407C18.35 14.4677 18.2039 14.498 18.023 14.498ZM3.89022 14.393C3.98764 14.463 4.11522 14.498 4.27296 14.498C4.45389 14.498 4.60002 14.4677 4.71137 14.407C4.82735 14.3417 4.92245 14.2367 4.99668 14.092L6.77815 10.774C6.8431 10.6527 6.89646 10.5383 6.93821 10.431C6.9846 10.319 7.0078 10.1883 7.0078 10.039C7.0078 9.86633 6.94981 9.73333 6.83383 9.64C6.72248 9.54667 6.58099 9.5 6.40933 9.5H3.79279C3.62114 9.5 3.4866 9.54433 3.38918 9.633C3.29639 9.72167 3.25 9.85233 3.25 10.025C3.25 10.1977 3.29639 10.3283 3.38918 10.417C3.4866 10.5057 3.62114 10.55 3.79279 10.55H5.54513L3.82063 13.7C3.74176 13.8447 3.70929 13.9777 3.7232 14.099C3.73712 14.2203 3.79279 14.3183 3.89022 14.393Z" fill="#919EAB"/>
</svg>
