<svg width="24" height="24" viewBox="0 0 24 24" fill="none" xmlns="http://www.w3.org/2000/svg">
<path fill-rule="evenodd" clip-rule="evenodd" d="M10.8227 6.08188C12.4164 6.53555 13.6744 7.20754 15.0144 8.10433C15.9523 6.66862 16.6343 5.06601 17.1036 3.40198C12.8491 0.86878 7.28652 1.82078 4.13341 5.83422C6.52424 5.41462 8.76856 5.49706 10.8227 6.08188ZM14.3331 9.05866C13.6721 9.90435 12.8051 10.7829 11.9313 11.3573C9.0551 9.93631 5.23302 9.96323 2.08522 10.6998C2.24775 9.45404 2.64035 8.28009 3.21893 7.22101C7.75824 6.13305 11.1135 6.89853 14.3331 9.05866ZM7.10068 11.4383L7.10068 11.4384L7.10066 11.4386L7.10062 11.4391L7.10059 11.4396C7.09334 11.5467 7.08563 11.6607 7.07821 11.7812C6.95904 13.7989 6.98913 17.6391 10.5324 21.8941C5.58545 21.1628 1.92339 16.8234 2.00122 11.9265C3.64001 11.5112 5.37972 11.2937 7.10399 11.3893L7.10068 11.4383ZM13.4151 15.5296C13.0224 14.5566 12.687 13.3556 12.6267 12.3035C13.206 11.9168 14.4206 10.9803 15.6492 9.254C16.7055 7.76914 17.5353 6.03698 18.1213 4.09618C19.0925 4.84974 19.9214 5.77795 20.5613 6.83313C20.4473 7.21717 20.325 7.58438 20.1961 7.93519V7.93558C18.8288 11.6612 16.6304 13.9745 13.4151 15.5296ZM12.5885 16.5734C12.5865 16.5674 12.5768 16.5462 12.5609 16.511C12.3989 16.1545 11.5846 14.3615 11.4598 12.4324C11.2352 12.3195 10.8348 12.1375 10.2719 11.9558H10.2711C9.74368 11.7855 9.07333 11.6155 8.27128 11.5022C8.01011 15.2687 9.01684 18.6322 12.1923 22C13.4611 21.9762 14.6734 21.7148 15.7852 21.2585C14.4136 19.7908 13.34 18.2181 12.5884 16.5738V16.5734H12.5885ZM14.2483 16.4257C16.061 15.5175 19.3905 13.5634 21.3024 8.32469C23.1186 12.9046 21.3204 18.2298 16.8927 20.7226C15.7184 19.5119 14.6749 18.1285 13.9006 16.5969C14.0089 16.5441 14.1249 16.4875 14.2483 16.4257Z" fill="#A3ABC0"/>
</svg>
