<svg width="24" height="24" viewBox="0 0 24 24" fill="none" xmlns="http://www.w3.org/2000/svg">
<path fill-rule="evenodd" clip-rule="evenodd" d="M5.75005 6C5.75005 4.20421 7.20426 2.75 9.00005 2.75H15C16.7958 2.75 18.25 4.20421 18.25 6V9C18.25 12.4558 15.4558 15.25 12 15.25C8.54426 15.25 5.75005 12.4558 5.75005 9V6ZM9.00005 1.25C7.25149 1.25 5.72423 2.1938 4.89967 3.59998H4.54004C2.72583 3.59998 1.29004 5.03576 1.29004 6.84998C1.29004 8.48156 1.99355 9.85279 2.98257 10.9517C2.99136 10.9615 3.00041 10.971 3.00971 10.9803C3.53961 11.5102 4.20459 11.9751 4.96958 12.2687C6.12137 14.7451 8.54253 16.509 11.4 16.7272V18.25H9.15004C7.63583 18.25 6.40004 19.4858 6.40004 21V21.25H6.15004C5.73583 21.25 5.40004 21.5858 5.40004 22C5.40004 22.4142 5.73583 22.75 6.15004 22.75H7.15004H17.15H17.9H18.15C18.5643 22.75 18.9 22.4142 18.9 22C18.9 21.5858 18.5643 21.25 18.15 21.25H17.9V21C17.9 19.4858 16.6643 18.25 15.15 18.25H12.9V16.6984C15.6264 16.384 17.9193 14.658 19.0305 12.2687C19.7955 11.9751 20.4605 11.5102 20.9904 10.9803C20.9997 10.971 21.0087 10.9615 21.0175 10.9517C22.0065 9.85279 22.71 8.48156 22.71 6.84998C22.71 5.03576 21.2743 3.59998 19.46 3.59998H19.1004C18.2759 2.1938 16.7486 1.25 15 1.25H9.00005ZM16.4 21V21.25H7.90004V21C7.90004 20.3142 8.46425 19.75 9.15004 19.75H15.15C15.8358 19.75 16.4 20.3142 16.4 21ZM4.19352 5.13246C3.38081 5.2878 2.79004 5.98325 2.79004 6.84998C2.79004 8.01197 3.28109 9.03585 4.08417 9.93338C4.13384 9.98262 4.18485 10.0309 4.23715 10.0781C4.17345 9.67915 4.14004 9.26933 4.14004 8.84998V5.84998C4.14004 5.60838 4.15769 5.36845 4.19352 5.13246ZM19.86 5.84998C19.86 5.60838 19.8424 5.36845 19.8066 5.13246C20.6193 5.2878 21.21 5.98325 21.21 6.84998C21.21 8.01197 20.719 9.03585 19.9159 9.93338C19.8662 9.98262 19.8152 10.0309 19.7629 10.0781C19.8266 9.67915 19.86 9.26933 19.86 8.84998V5.84998Z" fill="#919EAB"/>
</svg>
