<svg width="426" height="96" fill="none" xmlns="http://www.w3.org/2000/svg"><path fill-rule="evenodd" clip-rule="evenodd" d="M73.328-68 213 47.928 0-68h73.328ZM213 47.928 233.951-68h-41.902L213 47.928Zm0 0L314.262-68h-45.393L213 47.928Zm0 0L426-68h-73.328L213 47.928Zm0 0L426-2.354v-33.87L213 47.927Zm0 0 213-5.587V17.549L213 47.928Zm0 0L426 98.21v33.87L213 47.928Zm0 0 213 5.587v24.792l-213-30.38Zm0 0 139.672 115.928H426L213 47.928Zm0 0 55.869 115.928h45.393L213 47.928Zm0 0-20.951 114.531h41.902L213 47.928Zm0 0L111.738 163.856h45.393L213 47.928Zm0 0L0-36.225v33.87l213 50.283Zm0 0L73.328 163.856H0L213 47.928Zm0 0L0 98.21v33.87l213-84.152Zm0 0L0 53.515v24.792l213-30.38Zm0 0L0 17.549v24.792l213 5.587ZM157.131-68 213 47.928 111.738-68h45.393Z" fill="#fff" style="mix-blend-mode:overlay" opacity=".2"/></svg>