<svg width="426" height="96" viewBox="0 0 426 96" fill="none" xmlns="http://www.w3.org/2000/svg">
<g style="mix-blend-mode:overlay" opacity="0.2">
<path fill-rule="evenodd" clip-rule="evenodd" d="M73.3279 -68L213 47.9279L0 -68H73.3279ZM213 47.9279L233.951 -68H192.049L213 47.9279ZM213 47.9279L314.262 -68H268.869L213 47.9279ZM213 47.9279L426 -68H352.672L213 47.9279ZM213 47.9279L426 -2.35411V-36.2246L213 47.9279ZM213 47.9279L426 42.341V17.5492L213 47.9279ZM213 47.9279L426 98.2098V132.08L213 47.9279ZM213 47.9279L426 53.5148V78.3066L213 47.9279ZM213 47.9279L352.672 163.856H426L213 47.9279ZM213 47.9279L268.869 163.856H314.262L213 47.9279ZM213 47.9279L192.049 162.459H233.951L213 47.9279ZM213 47.9279L111.738 163.856H157.131L213 47.9279ZM213 47.9279L0 -36.2246V-2.35411L213 47.9279ZM213 47.9279L73.3279 163.856H0L213 47.9279ZM213 47.9279L0 98.2098V132.08L213 47.9279ZM213 47.9279L0 53.5148V78.3066L213 47.9279ZM213 47.9279L0 17.5492V42.341L213 47.9279ZM157.131 -68L213 47.9279L111.738 -68H157.131Z" fill="white"/>
</g>
</svg>
