<svg width="24" height="25" viewBox="0 0 24 25" fill="none" xmlns="http://www.w3.org/2000/svg">
<path fill-rule="evenodd" clip-rule="evenodd" d="M3.02328 8.60411L3.6969 5.7743C3.91943 4.83948 4.74457 4.15267 5.73432 4.07845L8.37106 3.88073C9.09047 3.82679 9.79359 4.10642 10.2653 4.63405L12.2727 6.87959L14.2036 4.67174C14.6839 4.12252 15.4122 3.83553 16.153 3.90358L19.7664 4.2355C20.4658 4.29975 21 4.86731 21 5.54617V18.8017C21 19.4087 20.5704 19.9371 19.96 20.0808C19.4335 20.2048 18.8903 20.2863 18.3306 20.3252C17.591 20.3768 17.216 20.3876 16.153 20.3577C15.6619 20.3439 15.2711 19.9552 15.2711 19.4803V11.5674L13.114 13.5493C12.8018 13.9287 12.2303 13.9917 11.8376 13.69C11.8167 13.6739 11.7965 13.6569 11.7771 13.6391L9.59042 11.7443V19.016C9.59042 19.6895 9.06428 20.2545 8.37106 20.3252C7.88317 20.3751 7.14759 20.3767 6.6 20.3577C5.94271 20.3349 5.69445 20.3383 5.04012 20.2196C4.39588 20.1026 3.92912 19.559 3.92912 18.9256V9.72342L3.64686 9.64138C3.18876 9.50822 2.91604 9.05459 3.02328 8.60411Z" fill="#7D5AFF"/>
</svg>
