<svg width="16" height="16" viewBox="0 0 16 16" fill="none" xmlns="http://www.w3.org/2000/svg">
<path fill-rule="evenodd" clip-rule="evenodd" d="M10.0303 6.03033C10.3232 5.73744 10.3232 5.26256 10.0303 4.96967C9.73744 4.67678 9.26256 4.67678 8.96967 4.96967L4.5 9.43934L2.53033 7.46967C2.23744 7.17678 1.76256 7.17678 1.46967 7.46967C1.17678 7.76256 1.17678 8.23744 1.46967 8.53033L3.96967 11.0303C4.26256 11.3232 4.73744 11.3232 5.03033 11.0303L10.0303 6.03033ZM14.5303 6.03033C14.8232 5.73744 14.8232 5.26256 14.5303 4.96967C14.2374 4.67678 13.7626 4.67678 13.4697 4.96967L8.46967 9.96967C8.17678 10.2626 8.17678 10.7374 8.46967 11.0303C8.76256 11.3232 9.23744 11.3232 9.53033 11.0303L14.5303 6.03033Z" fill="#00AB55"/>
</svg>
