<svg width="60" height="24" viewBox="0 0 60 24" fill="none" xmlns="http://www.w3.org/2000/svg">
<g clip-path="url(#clip0_1019_13868)">
<path d="M11.4576 3.0942C10.7725 3.90485 9.67645 4.54424 8.58035 4.4529C8.44334 3.3568 8.97997 2.1922 9.60795 1.47288C10.293 0.639391 11.4919 0.0456708 12.4624 0C12.5765 1.14177 12.1313 2.2607 11.4576 3.0942ZM12.451 4.66984C10.8639 4.5785 9.50519 5.57184 8.75162 5.57184C7.98663 5.57184 6.83344 4.71551 5.5775 4.73834C3.94477 4.76118 2.42621 5.68601 1.59272 7.1589C-0.119934 10.1047 1.14743 14.4662 2.803 16.8639C3.61365 18.0514 4.58416 19.353 5.86294 19.3073C7.07322 19.2617 7.55276 18.5195 9.01422 18.5195C10.4871 18.5195 10.9096 19.3073 12.1883 19.2845C13.5128 19.2617 14.3463 18.0971 15.1569 16.9096C16.0818 15.5623 16.4586 14.2493 16.4814 14.1808C16.4586 14.1579 13.9238 13.1874 13.901 10.2645C13.8782 7.82112 15.8991 6.65652 15.9904 6.58801C14.8487 4.89819 13.0675 4.71551 12.451 4.66984ZM21.6194 1.35871V19.1589H24.3824V13.0733H28.2074C31.7012 13.0733 34.156 10.6755 34.156 7.20457C34.156 3.73359 31.7469 1.35871 28.2987 1.35871H21.6194ZM24.3824 3.68792H27.568C29.9657 3.68792 31.3358 4.9667 31.3358 7.21598C31.3358 9.46527 29.9657 10.7555 27.5566 10.7555H24.3824V3.68792ZM39.2026 19.2959C40.9381 19.2959 42.548 18.4167 43.2787 17.0238H43.3358V19.1589H45.8934V10.2988C45.8934 7.72978 43.8382 6.07421 40.6755 6.07421C37.7412 6.07421 35.5718 7.75262 35.4919 10.059H37.9809C38.1864 8.96289 39.2026 8.24358 40.5956 8.24358C42.2854 8.24358 43.2331 9.0314 43.2331 10.4814V11.4634L39.7849 11.6689C36.5765 11.863 34.8411 13.176 34.8411 15.4596C34.8411 17.7659 36.6336 19.2959 39.2026 19.2959ZM39.9448 17.1836C38.4719 17.1836 37.5356 16.4757 37.5356 15.3911C37.5356 14.2721 38.4376 13.6213 40.1617 13.5186L43.2331 13.3245V14.3292C43.2331 15.9962 41.8173 17.1836 39.9448 17.1836ZM49.3073 24C52.0019 24 53.2692 22.9724 54.3767 19.8554L59.2293 6.24548H56.4205L53.1665 16.7612H53.1094L49.8553 6.24548H46.9667L51.6479 19.2046L51.3967 19.9924C50.9743 21.3283 50.2892 21.8421 49.0675 21.8421C48.8506 21.8421 48.4281 21.8192 48.2569 21.7964V23.9315C48.4167 23.9772 49.1018 24 49.3073 24Z" fill="#919EAB"/>
</g>
<defs>
<clipPath id="clip0_1019_13868">
<rect width="58.4586" height="24" fill="white" transform="translate(0.770508)"/>
</clipPath>
</defs>
</svg>
