<svg width="112" height="32" viewBox="0 0 112 32" fill="none" xmlns="http://www.w3.org/2000/svg">
<g id="mir-logo">
<g id="g5">
<path id="path7" fill-rule="evenodd" clip-rule="evenodd" d="M30.1798 3.0592e-07V0.013974C30.166 0.013974 25.8051 3.17889e-07 24.6423 4.20608C23.5763 8.06282 20.5721 18.7108 20.4891 19.0042H19.6584C19.6584 19.0042 16.5851 8.11871 15.5052 4.19211C14.3423 -0.0139734 9.96765 3.0592e-07 9.96765 3.0592e-07H0V31.9997H9.96765V12.9955H10.383H10.7983L16.6128 31.9997H23.5347L29.3492 13.0095H30.1798V31.9997H40.1475V3.0592e-07H30.1798Z" fill="#919EAB"/>
</g>
<g id="g9">
<path id="path11" fill-rule="evenodd" clip-rule="evenodd" d="M66.5888 0C66.5888 0 63.6677 0.2655 62.2972 3.35368L55.2368 19.0042H54.4061V0H44.4385V31.9997H53.8524C53.8524 31.9997 56.9119 31.7203 58.2824 28.6461L65.2044 12.9955H66.0351V31.9997H76.0027V0H66.5888Z" fill="#919EAB"/>
</g>
<g id="g13">
<path id="path15" fill-rule="evenodd" clip-rule="evenodd" d="M80.4331 14.5332V32.0003H90.4008V21.7995H101.199C105.906 21.7995 109.893 18.7672 111.374 14.5332H80.4331Z" fill="#919EAB"/>
</g>
<g id="g17">
<path id="path24" fill-rule="evenodd" clip-rule="evenodd" d="M101.2 0H79.0356C80.1432 6.09253 84.6701 10.9833 90.5261 12.5763C91.8552 12.9396 93.2534 13.1353 94.6932 13.1353H111.777C111.929 12.4086 111.998 11.668 111.998 10.8995C111.998 4.87681 107.167 0 101.2 0Z" fill="#919EAB"/>
</g>
</g>
</svg>
