<svg width="63" height="32" viewBox="0 0 63 32" fill="none" xmlns="http://www.w3.org/2000/svg">
<path fill-rule="evenodd" clip-rule="evenodd" d="M0 9C0 6.37665 2.12665 4.25 4.75 4.25H12.75C15.3734 4.25 17.5 6.37665 17.5 9V23C17.5 25.6234 15.3734 27.75 12.75 27.75H4.75C2.12665 27.75 0 25.6234 0 23V9ZM4.75 5.75C2.95507 5.75 1.5 7.20507 1.5 9V23C1.5 24.7949 2.95507 26.25 4.75 26.25H12.75C14.5449 26.25 16 24.7949 16 23V9C16 7.20507 14.5449 5.75 12.75 5.75H4.75ZM6.25 8.75C6.25 8.33579 6.58579 8 7 8H11C11.4142 8 11.75 8.33579 11.75 8.75C11.75 9.16421 11.4142 9.5 11 9.5H7C6.58579 9.5 6.25 9.16421 6.25 8.75ZM7.75 21.75C7.75 21.0596 8.30964 20.5 9 20.5C9.69036 20.5 10.25 21.0596 10.25 21.75C10.25 22.4404 9.69036 23 9 23C8.30964 23 7.75 22.4404 7.75 21.75ZM9 19C7.48122 19 6.25 20.2312 6.25 21.75C6.25 23.2688 7.48122 24.5 9 24.5C10.5188 24.5 11.75 23.2688 11.75 21.75C11.75 20.2312 10.5188 19 9 19Z" fill="#919EAB"/>
<path d="M25.524 13.1561V7.30008H26.7V8.24808C26.876 7.91208 27.12 7.65208 27.432 7.46808C27.744 7.28408 28.108 7.19208 28.524 7.19208C29.42 7.19208 30 7.58408 30.264 8.36808C30.448 8.00008 30.712 7.71208 31.056 7.50408C31.4 7.29608 31.792 7.19208 32.232 7.19208C33.544 7.19208 34.2 7.97608 34.2 9.54408V13.1561H32.988V9.60408C32.988 9.10808 32.9 8.74408 32.724 8.51208C32.556 8.28008 32.276 8.16408 31.884 8.16408C31.444 8.16408 31.096 8.32008 30.84 8.63208C30.584 8.93608 30.456 9.35208 30.456 9.88008V13.1561H29.244V9.60408C29.244 9.10808 29.16 8.74408 28.992 8.51208C28.824 8.28008 28.544 8.16408 28.152 8.16408C27.712 8.16408 27.364 8.32008 27.108 8.63208C26.86 8.93608 26.736 9.35208 26.736 9.88008V13.1561H25.524Z" fill="#919EAB"/>
<path d="M38.5585 13.2641C37.9665 13.2641 37.4545 13.1401 37.0225 12.8921C36.5905 12.6441 36.2545 12.2961 36.0145 11.8481C35.7825 11.3921 35.6665 10.8521 35.6665 10.2281C35.6665 9.60408 35.7825 9.06808 36.0145 8.62008C36.2545 8.16408 36.5905 7.81208 37.0225 7.56408C37.4545 7.31608 37.9665 7.19208 38.5585 7.19208C39.1345 7.19208 39.6385 7.31608 40.0705 7.56408C40.5025 7.81208 40.8385 8.16408 41.0785 8.62008C41.3185 9.06808 41.4385 9.60408 41.4385 10.2281C41.4385 10.8521 41.3185 11.3921 41.0785 11.8481C40.8385 12.2961 40.5025 12.6441 40.0705 12.8921C39.6385 13.1401 39.1345 13.2641 38.5585 13.2641ZM38.5585 12.3281C39.0545 12.3281 39.4545 12.1481 39.7585 11.7881C40.0625 11.4281 40.2145 10.9081 40.2145 10.2281C40.2145 9.54808 40.0625 9.03208 39.7585 8.68008C39.4545 8.32008 39.0545 8.14008 38.5585 8.14008C38.0545 8.14008 37.6505 8.32008 37.3465 8.68008C37.0425 9.03208 36.8905 9.54808 36.8905 10.2281C36.8905 10.9081 37.0425 11.4281 37.3465 11.7881C37.6505 12.1481 38.0545 12.3281 38.5585 12.3281Z" fill="#919EAB"/>
<path d="M46.0637 13.2641C45.6157 13.2641 45.2197 13.1641 44.8757 12.9641C44.5317 12.7641 44.2757 12.4961 44.1077 12.1601V13.1561H42.9197V4.69608H44.1317V8.24808C44.3077 7.92808 44.5637 7.67208 44.8997 7.48008C45.2437 7.28808 45.6317 7.19208 46.0637 7.19208C46.5837 7.19208 47.0357 7.31608 47.4197 7.56408C47.8117 7.81208 48.1117 8.16408 48.3197 8.62008C48.5357 9.06808 48.6437 9.60408 48.6437 10.2281C48.6437 10.8521 48.5357 11.3921 48.3197 11.8481C48.1117 12.3041 47.8117 12.6561 47.4197 12.9041C47.0357 13.1441 46.5837 13.2641 46.0637 13.2641ZM45.7637 12.3281C46.2677 12.3281 46.6677 12.1481 46.9637 11.7881C47.2677 11.4281 47.4197 10.9081 47.4197 10.2281C47.4197 9.54808 47.2677 9.03208 46.9637 8.68008C46.6677 8.32008 46.2677 8.14008 45.7637 8.14008C45.2597 8.14008 44.8557 8.32008 44.5517 8.68008C44.2557 9.03208 44.1077 9.54808 44.1077 10.2281C44.1077 10.9081 44.2557 11.4281 44.5517 11.7881C44.8557 12.1481 45.2597 12.3281 45.7637 12.3281Z" fill="#919EAB"/>
<path d="M50.0215 5.94408V4.68408H51.4375V5.94408H50.0215ZM50.1295 13.1561V7.30008H51.3415V13.1561H50.1295Z" fill="#919EAB"/>
<path d="M55.0755 13.2641C54.4355 13.2641 53.9555 13.0841 53.6355 12.7241C53.3235 12.3641 53.1675 11.8361 53.1675 11.1401V4.69608H54.3795V11.0681C54.3795 11.8601 54.7035 12.2561 55.3515 12.2561C55.4475 12.2561 55.5355 12.2521 55.6155 12.2441C55.7035 12.2361 55.7915 12.2201 55.8795 12.1961L55.8555 13.1681C55.5835 13.2321 55.3235 13.2641 55.0755 13.2641Z" fill="#919EAB"/>
<path d="M59.6449 13.2641C58.6849 13.2641 57.9289 12.9961 57.3769 12.4601C56.8249 11.9161 56.5489 11.1761 56.5489 10.2401C56.5489 9.64008 56.6689 9.11208 56.9089 8.65608C57.1569 8.19208 57.4969 7.83208 57.9289 7.57608C58.3609 7.32008 58.8569 7.19208 59.4169 7.19208C60.2249 7.19208 60.8609 7.45208 61.3249 7.97208C61.7889 8.48408 62.0209 9.19208 62.0209 10.0961V10.5041H57.7249C57.8129 11.7201 58.4569 12.3281 59.6569 12.3281C59.9929 12.3281 60.3209 12.2761 60.6409 12.1721C60.9689 12.0681 61.2769 11.8961 61.5649 11.6561L61.9249 12.4961C61.6609 12.7361 61.3209 12.9241 60.9049 13.0601C60.4889 13.1961 60.0689 13.2641 59.6449 13.2641ZM59.4649 8.04408C58.9609 8.04408 58.5609 8.20008 58.2649 8.51208C57.9689 8.82408 57.7889 9.24008 57.7249 9.76008H61.0009C60.9769 9.21608 60.8329 8.79608 60.5689 8.50008C60.3049 8.19608 59.9369 8.04408 59.4649 8.04408Z" fill="#919EAB"/>
<path d="M25.5 27.3161V19.3001H26.688V20.2961C26.856 19.9601 27.112 19.6921 27.456 19.4921C27.8 19.2921 28.196 19.1921 28.644 19.1921C29.164 19.1921 29.616 19.3161 30 19.5641C30.392 19.8121 30.692 20.1641 30.9 20.6201C31.116 21.0681 31.224 21.6041 31.224 22.2281C31.224 22.8521 31.116 23.3921 30.9 23.8481C30.692 24.3041 30.392 24.6561 30 24.9041C29.616 25.1441 29.164 25.2641 28.644 25.2641C28.212 25.2641 27.824 25.1721 27.48 24.9881C27.144 24.7961 26.888 24.5361 26.712 24.2081V27.3161H25.5ZM28.344 24.3281C28.848 24.3281 29.248 24.1481 29.544 23.7881C29.848 23.4281 30 22.9081 30 22.2281C30 21.5481 29.848 21.0321 29.544 20.6801C29.248 20.3201 28.848 20.1401 28.344 20.1401C27.84 20.1401 27.436 20.3201 27.132 20.6801C26.836 21.0321 26.688 21.5481 26.688 22.2281C26.688 22.9081 26.836 23.4281 27.132 23.7881C27.436 24.1481 27.84 24.3281 28.344 24.3281Z" fill="#919EAB"/>
<path d="M32.7098 25.1561V16.6961H33.9218V20.2121C34.1218 19.8761 34.3898 19.6241 34.7258 19.4561C35.0698 19.2801 35.4538 19.1921 35.8778 19.1921C37.2618 19.1921 37.9538 19.9761 37.9538 21.5441V25.1561H36.7418V21.6161C36.7418 21.1121 36.6418 20.7441 36.4418 20.5121C36.2498 20.2801 35.9458 20.1641 35.5298 20.1641C35.0418 20.1641 34.6498 20.3201 34.3538 20.6321C34.0658 20.9361 33.9218 21.3401 33.9218 21.8441V25.1561H32.7098Z" fill="#919EAB"/>
<path d="M42.2879 25.2641C41.6959 25.2641 41.1839 25.1401 40.7519 24.8921C40.3199 24.6441 39.9839 24.2961 39.7439 23.8481C39.5119 23.3921 39.3959 22.8521 39.3959 22.2281C39.3959 21.6041 39.5119 21.0681 39.7439 20.6201C39.9839 20.1641 40.3199 19.8121 40.7519 19.5641C41.1839 19.3161 41.6959 19.1921 42.2879 19.1921C42.8639 19.1921 43.3679 19.3161 43.7999 19.5641C44.2319 19.8121 44.5679 20.1641 44.8079 20.6201C45.0479 21.0681 45.1679 21.6041 45.1679 22.2281C45.1679 22.8521 45.0479 23.3921 44.8079 23.8481C44.5679 24.2961 44.2319 24.6441 43.7999 24.8921C43.3679 25.1401 42.8639 25.2641 42.2879 25.2641ZM42.2879 24.3281C42.7839 24.3281 43.1839 24.1481 43.4879 23.7881C43.7919 23.4281 43.9439 22.9081 43.9439 22.2281C43.9439 21.5481 43.7919 21.0321 43.4879 20.6801C43.1839 20.3201 42.7839 20.1401 42.2879 20.1401C41.7839 20.1401 41.3799 20.3201 41.0759 20.6801C40.7719 21.0321 40.6199 21.5481 40.6199 22.2281C40.6199 22.9081 40.7719 23.4281 41.0759 23.7881C41.3799 24.1481 41.7839 24.3281 42.2879 24.3281Z" fill="#919EAB"/>
<path d="M46.6491 25.1561V19.3001H47.8251V20.2721C48.0251 19.9201 48.2971 19.6521 48.6411 19.4681C48.9931 19.2841 49.3851 19.1921 49.8171 19.1921C51.2011 19.1921 51.8931 19.9761 51.8931 21.5441V25.1561H50.6811V21.6161C50.6811 21.1121 50.5811 20.7441 50.3811 20.5121C50.1891 20.2801 49.8851 20.1641 49.4691 20.1641C48.9811 20.1641 48.5891 20.3201 48.2931 20.6321C48.0051 20.9361 47.8611 21.3401 47.8611 21.8441V25.1561H46.6491Z" fill="#919EAB"/>
<path d="M56.4311 25.2641C55.4711 25.2641 54.7151 24.9961 54.1631 24.4601C53.6111 23.9161 53.3351 23.1761 53.3351 22.2401C53.3351 21.6401 53.4551 21.1121 53.6951 20.6561C53.9431 20.1921 54.2831 19.8321 54.7151 19.5761C55.1471 19.3201 55.6431 19.1921 56.2031 19.1921C57.0111 19.1921 57.6471 19.4521 58.1111 19.9721C58.5751 20.4841 58.8071 21.1921 58.8071 22.0961V22.5041H54.5111C54.5991 23.7201 55.2431 24.3281 56.4431 24.3281C56.7791 24.3281 57.1071 24.2761 57.4271 24.1721C57.7551 24.0681 58.0631 23.8961 58.3511 23.6561L58.7111 24.4961C58.4471 24.7361 58.1071 24.9241 57.6911 25.0601C57.2751 25.1961 56.8551 25.2641 56.4311 25.2641ZM56.2511 20.0441C55.7471 20.0441 55.3471 20.2001 55.0511 20.5121C54.7551 20.8241 54.5751 21.2401 54.5111 21.7601H57.7871C57.7631 21.2161 57.6191 20.7961 57.3551 20.5001C57.0911 20.1961 56.7231 20.0441 56.2511 20.0441Z" fill="#919EAB"/>
</svg>
