<svg width="140" height="56" viewBox="0 0 140 56" fill="none" xmlns="http://www.w3.org/2000/svg">
<g id="logo_blue_animated">
<g id="logo_1">
<path id="Path" d="M23.0772 22.6973C21.1927 19.7027 20.0951 16.5961 19.7844 13.3774C17.0435 11.1362 12.6733 10.0358 6.67367 10.0763C6.52574 12.5238 6.89074 14.9753 7.74497 17.2716H7.68468C8.30678 18.7499 9.17402 20.1109 10.2493 21.2965C10.2527 21.3427 10.2745 21.3856 10.3096 21.4156C10.6893 21.8353 11.1087 22.2169 11.5618 22.5549C14.2006 24.5907 17.3272 25.8514 20.9415 26.337C21.275 24.9356 22.019 23.6676 23.0772 22.6973Z" fill="#919EAB"/>
<path id="Path_2" d="M11.5594 36.8432H11.4991C9.79092 39.444 8.69797 43.1646 8.22029 48.0051C10.8483 48.4051 13.2723 48.2852 15.4922 47.6455C17.4049 47.0687 19.1728 46.0864 20.6771 44.7646V44.7039L21.0342 44.3444H21.0991C23.4752 41.8136 25.0597 38.665 25.8528 34.8984C24.7664 34.5724 23.7729 33.9906 22.9542 33.2012C19.3105 35.5934 15.5123 36.8074 11.5594 36.8432Z" fill="#919EAB"/>
<path id="Path_3" d="M10.3699 24.0593C9.97422 23.7405 9.59644 23.3999 9.23826 23.0391C6.45565 23.7986 3.37623 25.5387 0 28.2593C1.37828 30.2961 3.19088 31.9975 5.30551 33.2391C7.05439 34.2449 9.0144 34.8208 11.0261 34.92H11.5617C15.1173 34.8857 18.5183 33.811 21.7646 31.6959C21.1431 30.6563 20.7951 29.4743 20.7536 28.2616C16.7791 27.7278 13.3179 26.327 10.3699 24.0593Z" fill="#919EAB"/>
<path id="Path_4" d="M31.6803 21.9222C33.5586 19.0086 34.6206 16.0016 34.8664 12.9012V12.7821C34.9073 12.4037 34.9275 12.0234 34.9267 11.6428C34.902 9.42658 34.3068 7.2547 33.1992 5.3393C32.0908 3.34397 30.4459 1.5642 28.2647 0H28.2508C26.0649 1.55642 24.4162 3.33696 23.3047 5.34163C22.1971 7.25704 21.6019 9.42891 21.5772 11.6451C21.5764 12.0257 21.5965 12.4061 21.6374 12.7844V12.9035C21.874 15.8934 22.8726 18.7969 24.6334 21.614C26.8708 20.4481 29.5549 20.5664 31.6827 21.9245L31.6803 21.9222Z" fill="#919EAB"/>
<path id="Path_5" d="M34.2119 43.145V43.0843C33.8409 40.1364 32.8121 37.2454 31.1256 34.4111C30.1213 34.9306 29.0083 35.2012 27.8792 35.2002C27.8328 35.2002 27.7864 35.2002 27.7401 35.2002C26.8713 39.3388 25.1151 42.8072 22.4717 45.6057C22.4551 45.6033 22.4383 45.6089 22.4265 45.6209C22.4146 45.6328 22.409 45.6497 22.4114 45.6664C22.4137 45.6831 22.4081 45.7 22.3963 45.7119C22.3844 45.7238 22.3677 45.7295 22.3511 45.7271C22.9478 48.8072 24.7951 52.2314 27.8931 55.9995C29.8836 54.568 31.5497 52.7274 32.7812 50.5995C33.6545 49.0478 34.2022 47.3323 34.3905 45.559C34.3162 45.4538 34.275 45.3285 34.2722 45.1995C34.3529 44.5154 34.3326 43.8231 34.2119 43.145Z" fill="#919EAB"/>
</g>
<g id="logo_2">
<path id="Path_6" d="M26.0428 22.9624C25.9524 22.9927 25.8573 23.0161 25.7692 23.0557C23.4819 23.9957 22.1641 26.4231 22.6132 28.869C22.641 29.0254 22.6689 29.1818 22.7083 29.3359C22.7477 29.49 22.7964 29.6464 22.8497 29.8028C23.2285 30.8489 23.9112 31.756 24.8092 32.4059C24.8857 32.4573 24.9599 32.5087 25.041 32.5577C25.2103 32.6632 25.3852 32.759 25.5651 32.8448C25.6903 32.9079 25.8179 32.9686 25.95 33.0223C26.57 33.2707 27.2307 33.3998 27.8979 33.4028C27.9605 33.4028 28.0184 33.3865 28.0787 33.3841V33.3655C28.7833 33.3333 29.4767 33.1752 30.1263 32.8985C32.627 31.8002 33.9012 28.9787 33.0793 26.3593C32.2574 23.74 29.6046 22.1675 26.9309 22.7149C26.8544 22.7312 26.7802 22.7429 26.699 22.7616C26.4762 22.8141 26.257 22.8812 26.0428 22.9624Z" fill="#919EAB"/>
</g>
<g id="logo_3">
<path id="Shape" fill-rule="evenodd" clip-rule="evenodd" d="M43.2677 18.46H46.1013L46.099 37.8187H43.2677V38.2856H51.9401V37.8187H49.0161V28.737C49.5888 29.0265 50.732 29.2273 51.7059 29.2273C55.168 29.2273 58.9732 27.6724 58.9732 23.6102C58.9732 19.4639 55.6828 17.993 51.4207 17.993H43.2677V18.46ZM51.2233 28.7715C50.4477 28.7776 49.6855 28.5684 49.0204 28.1668L49.0181 18.4548H50.7641C54.1705 18.4548 55.8865 20.096 55.8865 23.8688C55.8865 27.7629 53.1108 28.7715 51.2233 28.7715Z" fill="#919EAB"/>
<path id="Shape_2" fill-rule="evenodd" clip-rule="evenodd" d="M65.7121 20.6443C65.7117 19.8343 65.0599 19.1777 64.2555 19.1766C64.2556 19.1766 64.2558 19.1766 64.2559 19.1766H64.2536C64.2542 19.1766 64.2549 19.1766 64.2555 19.1766C63.4499 19.1794 62.7976 19.8363 62.795 20.6475C62.7963 21.4582 63.4499 22.1145 64.2551 22.1136C65.0604 22.1127 65.7126 21.4551 65.7121 20.6443ZM60.7633 26.9276H63.052V37.8187H60.7633V38.2856H67.743V37.8187H65.4543V25.828C64.8839 26.4047 63.9679 26.4607 63.052 26.4607H60.7633V26.9276Z" fill="#919EAB"/>
<path id="Shape_3" fill-rule="evenodd" clip-rule="evenodd" d="M80.5468 37.9879C79.7747 37.9879 79.6889 37.2689 79.6889 36.7202L79.6773 29.1747C79.6773 26.9568 77.1033 25.8339 74.9283 25.8339C72.0668 25.8339 70.5225 27.4448 70.5225 28.9156C70.5225 29.8961 70.9816 30.5288 71.7816 30.5288C72.526 30.5288 73.0987 30.0199 73.0987 29.3195C73.0987 28.5727 72.7853 28.3641 72.5197 28.1874C72.3244 28.0574 72.1549 27.9446 72.1549 27.6479C72.1549 26.6113 74.1074 26.2938 74.9376 26.2938C76.0251 26.2938 77.2842 26.6113 77.2842 27.963V31.5093H76.7416C73.7944 31.5093 69.5323 32.3148 69.5323 35.5413C69.5323 37.5 70.8773 38.623 73.108 38.623C74.9955 38.623 76.2825 38.1327 77.2564 36.837H77.3144C77.5138 37.8455 78.4877 38.623 79.8326 38.623C81.0639 38.623 81.8083 38.0183 82.3509 37.0681L82.0355 36.8346C81.6042 37.4393 81.2054 37.9879 80.5468 37.9879ZM72.1085 35.1087C72.1085 32.027 74.7126 31.9686 76.7995 31.9686H77.2865V35.7414C77.2865 36.318 76.3404 37.9313 74.1955 37.9313C72.3659 37.9313 72.1085 36.7219 72.1085 35.1087Z" fill="#919EAB"/>
<path id="Path_7" d="M84.1402 34.0998H84.5113C84.7431 35.5683 85.4829 38.1597 88.4881 38.1597C90.0626 38.1597 91.2707 37.1232 91.2707 35.4819C91.2707 33.2056 89.5547 33.1776 88.0382 33.0049C86.1831 32.8041 84.3768 32.5379 84.3768 29.5473C84.3768 27.4718 85.7217 25.8329 87.9524 25.8329C89.4968 25.8329 90.5565 26.8414 90.8417 26.8414C91.0133 26.8414 91.0411 26.6407 91.0411 26.2368V26.0033H91.4423L91.5559 29.4306H91.1849C90.9855 27.7963 90.1252 26.2905 87.8666 26.2905C86.4081 26.2905 85.2347 27.0959 85.2347 28.5948C85.2347 30.0936 86.3501 30.6119 88.2492 30.7263L89.2208 30.7846C91.5397 30.9294 92.4834 32.1854 92.4834 34.1839C92.4834 36.8617 90.7095 38.6197 88.5066 38.6197C86.2458 38.6197 85.5594 37.3823 84.9866 37.3823C84.6156 37.3823 84.7014 37.8492 84.6434 38.4469H84.1959L84.1402 34.0998Z" fill="#919EAB"/>
<path id="Path_8" d="M96.7335 26.9296H94.2454V26.4627C97.2204 26.5211 98.308 25.2534 98.7949 22.4308H99.1381V26.4627H103.08V26.9296H99.1381V36.609C99.1381 37.7903 99.6228 38.1639 100.529 38.1639C101.96 38.1639 102.591 36.8378 102.76 36.3498L103.189 36.4362C102.99 37.1366 102.16 38.6261 100.042 38.6261C98.0413 38.6261 96.7242 37.9631 96.7242 36.058L96.7335 26.9296Z" fill="#919EAB"/>
<path id="Path_9" d="M107.391 26.9266H104.989V26.4597H107.391C108.319 26.4597 109.223 26.4037 109.796 25.827V29.2262H109.854C110.197 27.9305 111.199 25.827 113.543 25.827C114.603 25.827 115.433 26.5274 115.433 27.5266C115.433 28.2761 114.969 28.8807 114.116 28.8807C113.172 28.8807 112.857 28.3904 112.857 27.613C112.83 27.1161 113.07 26.6428 113.485 26.3733C113.365 26.3012 113.224 26.2708 113.084 26.2869C111.911 26.2869 109.794 28.1547 109.794 31.9041V37.8177H112.395V38.2846H104.975V37.8177H107.378L107.391 26.9266Z" fill="#919EAB"/>
<path id="Shape_4" fill-rule="evenodd" clip-rule="evenodd" d="M122.17 20.6443C122.17 19.8343 121.518 19.1777 120.714 19.1766C120.714 19.1766 120.714 19.1766 120.714 19.1766H120.712C120.712 19.1766 120.713 19.1766 120.714 19.1766C119.908 19.1794 119.256 19.8363 119.253 20.6475C119.254 21.4582 119.908 22.1145 120.713 22.1136C121.518 22.1127 122.171 21.4551 122.17 20.6443ZM117.221 26.9276H119.51V37.8187H117.221V38.2856H124.203V37.8187H121.915V25.828C121.342 26.4047 120.438 26.4607 119.51 26.4607H117.221V26.9276Z" fill="#919EAB"/>
<path id="Path_10" d="M133.712 30.5812L135.104 28.7135C135.447 28.2466 135.82 27.6769 135.82 27.4458C135.82 27.0699 135.419 26.9275 134.561 26.9275H133.961V26.4606H139.254V26.9275H138.397C137.281 26.9275 136.794 27.3011 136.022 28.2816L133.935 30.9594L138.109 37.8162H139.997V38.2832H132.998V37.8162H135.229L132.368 33.1213L130.281 35.8878C129.817 36.4925 129.585 37.0388 129.585 37.3563C129.585 37.6155 129.729 37.8232 130.281 37.8232H131.568V38.2902H125.988V37.8232H126.703C128.133 37.8232 128.648 37.2769 129.821 35.7478L132.14 32.7127L128.65 26.9229H126.589V26.4559H133.225V26.9229H131.51L133.712 30.5812Z" fill="#919EAB"/>
</g>
</g>
</svg>
