<svg width="108" height="48" viewBox="0 0 108 48" fill="none" xmlns="http://www.w3.org/2000/svg">
<g id="qiwi_koshelek_rgb">
<path id="Shape" fill-rule="evenodd" clip-rule="evenodd" d="M53.8563 27.2119H52.2169V36.458H53.8872V32.4245H55.0935L57.3206 36.458H59.2075L56.4546 31.6488V31.6178L59.0528 27.2119H57.2279L55.0626 30.9662H53.8563V27.2119ZM66.6008 33.1352C66.6008 31.1184 64.9614 29.6601 62.9508 29.6601C60.9403 29.6601 59.3318 31.0874 59.3627 33.1352C59.3627 35.183 60.9712 36.6103 62.9818 36.6103C64.9924 36.6103 66.6008 35.183 66.6008 33.1352ZM62.9507 35.183C64.0333 35.183 64.9303 34.3453 64.9303 33.1042C64.9303 31.8941 64.0333 31.0254 62.9507 31.0254C61.868 31.0254 61.0019 31.8631 61.0019 33.1042C61.0019 34.3453 61.868 35.183 62.9507 35.183ZM69.4769 29.8213H67.9613V36.4611H76.7769V29.8213H75.1994V35.0339H73.1269V29.8213H71.5494V35.0339H69.4769V29.8213ZM81.4482 29.6601C83.3351 29.6601 84.3868 31.0564 84.3868 32.7939C84.3868 33.0111 84.3559 33.2283 84.3249 33.4455H79.7779C79.8707 34.5935 80.7677 35.2141 81.7576 35.2141C82.4381 35.2141 83.1186 34.9038 83.6444 34.5004L84.294 35.6795C83.6135 36.269 82.5927 36.6413 81.6338 36.6413C79.4377 36.6413 78.0766 35.0589 78.0766 33.1662C78.0766 31.0874 79.4686 29.6601 81.4482 29.6601ZM81.3848 30.9023C82.1272 30.9023 82.7149 31.4298 82.7149 32.2986H79.7764C79.931 31.4608 80.5497 30.9023 81.3848 30.9023ZM85.1597 35.0649C85.9639 34.9408 86.5516 34.2582 86.5516 31.9001V29.8213H91.377V36.4611H89.7376V31.1554H88.1291V31.9001C88.1291 34.7857 87.3558 36.4611 85.1597 36.5232V35.0649ZM99.0167 32.7939C99.0167 31.0564 97.965 29.6601 96.0781 29.6601C94.0985 29.6601 92.7065 31.0874 92.7065 33.1662C92.7065 35.0589 94.0675 36.6413 96.2637 36.6413C97.2226 36.6413 98.2434 36.269 98.9239 35.6795L98.2743 34.5004C97.7485 34.9038 97.0679 35.2141 96.3874 35.2141C95.3976 35.2141 94.5006 34.5935 94.4078 33.4455H98.9548C98.9857 33.2283 99.0167 33.0111 99.0167 32.7939ZM97.3477 32.2986C97.3477 31.4298 96.76 30.9023 96.0176 30.9023C95.1825 30.9023 94.5638 31.4608 94.4092 32.2986H97.3477ZM102.017 29.8213H100.378H100.347V36.4611H101.987V33.7618H102.853L104.585 36.4611H106.503L104.152 33.0171V32.9861L106.255 29.8213H104.43L102.822 32.3655H102.017V29.8213Z" fill="#919EAB"/>
<path id="Shape_2" fill-rule="evenodd" clip-rule="evenodd" d="M0 21.3469C0 33.1373 9.52707 42.6938 21.2813 42.6938C22.7286 42.6938 24.1692 42.5673 25.7509 42.4284C27.5833 42.2675 29.6051 42.0899 32.0456 42.0733C36.0977 42.0733 40.5519 43.5005 45.4392 47.8444C45.9341 48.2788 46.5837 47.7203 46.1506 47.1928C41.3562 41.0804 36.9019 39.9324 32.4477 38.9395C27.0037 37.7294 24.2198 34.6887 22.2711 31.3067C21.8999 30.6241 21.7143 30.7482 21.6834 31.617C21.6524 32.6719 21.7143 34.0682 21.9618 35.4334H21.3122C13.5482 35.4334 7.2381 29.1038 7.2381 21.3159C7.2381 13.528 13.5482 7.19838 21.3122 7.19838C29.0761 7.19838 35.3863 13.528 35.3863 21.3159C35.3863 21.8744 35.3553 22.4329 35.2935 22.9603C34.2418 22.7742 32.2312 22.7431 30.8083 22.8673C30.2825 22.9293 30.3444 23.1775 30.7465 23.2396C35.3863 24.1084 38.5723 26.9939 39.3146 32.2376C39.3456 32.3617 39.5002 32.3927 39.5621 32.2996C41.449 29.1038 42.5625 25.3495 42.5625 21.3469C42.5625 9.55646 33.0354 0 21.2813 0C9.52707 0 0 9.55646 0 21.3469ZM69.1318 23.1481C69.4102 23.1481 69.5648 22.8378 69.3793 22.6206L66.781 19.5799C67.6471 18.2147 68.142 16.6013 68.142 14.8948C68.142 10.1166 64.2755 6.23813 59.5119 6.23813C54.7484 6.23813 50.8819 10.1166 50.8819 14.8948C50.8819 19.673 54.7484 23.5515 59.5119 23.5515C61.2132 23.5515 62.8217 23.024 64.1827 22.1552L64.8322 22.9619C64.925 23.086 65.0797 23.1481 65.2344 23.1481H69.1318ZM75.2899 22.7478V7.07892C75.2899 6.8307 75.1043 6.64453 74.8568 6.64453H71.6708C71.4234 6.64453 71.2378 6.8307 71.2378 7.07892V22.7478C71.2378 22.996 71.4234 23.1822 71.6708 23.1822H74.8568C75.1043 23.1822 75.2899 22.996 75.2899 22.7478ZM96.6046 6.64453H100.162C100.286 6.64453 100.44 6.70659 100.595 6.8307C100.688 6.92378 100.688 7.07892 100.657 7.20303L95.3982 22.9029C95.3364 23.0581 95.1817 23.1822 94.9961 23.1822H92.1504C91.9648 23.1822 91.8101 23.0891 91.7483 22.9029L88.686 13.7498L85.6237 22.9029C85.5618 23.0581 85.4072 23.1822 85.2216 23.1822H82.3758C82.1903 23.1822 82.0356 23.0891 81.9737 22.9029L76.7153 7.20303C76.6843 7.07892 76.6843 6.95481 76.7771 6.8307C76.839 6.70659 76.9937 6.64453 77.1174 6.64453H80.6746C80.8602 6.64453 81.0148 6.76864 81.0767 6.95481L83.8915 16.232L86.9847 6.95481C87.0466 6.79967 87.2012 6.67556 87.3868 6.67556H89.8923C90.0779 6.67556 90.2326 6.76864 90.2945 6.95481L93.3877 16.232L96.2025 6.95481C96.2643 6.76864 96.419 6.64453 96.6046 6.64453ZM105.538 6.64453H102.352C102.105 6.64453 101.919 6.8307 101.919 7.07892V22.7478C101.919 22.996 102.105 23.1822 102.352 23.1822H105.538C105.786 23.1822 105.972 22.996 105.972 22.7478V7.07892C105.941 6.8307 105.755 6.64453 105.538 6.64453ZM61.6506 19.1469L59.9493 17.0681C59.7637 16.8509 59.9184 16.5096 60.1968 16.5096H63.7849C63.9705 16.0132 64.0633 15.4547 64.0633 14.8962C64.0633 12.3209 62.1455 10.0869 59.5163 10.0869C56.887 10.0869 54.9692 12.3209 54.9692 14.8962C54.9692 17.4715 56.887 19.6744 59.5163 19.6744C60.2586 19.7054 61.001 19.4882 61.6506 19.1469ZM35.9112 30.4681C36.0659 30.1889 36.4062 30.0648 36.8083 30.2199C37.6125 30.5302 37.9218 31.7403 37.9837 32.2677C38.1074 33.2296 37.829 33.6019 37.5197 33.6019C37.2104 33.6019 36.7773 33.2296 36.3134 32.4849C35.8494 31.7403 35.6638 30.9025 35.9112 30.4681ZM32.1084 33.7266C31.6753 33.7266 31.3351 33.8817 31.1185 34.1609C30.5618 34.8436 30.8092 36.0847 31.6753 36.8293C32.0465 37.1706 32.6033 37.3568 33.1291 37.3568C33.655 37.3568 34.119 37.1396 34.3973 36.7983C34.8923 36.1157 34.6139 35.1849 33.655 34.3781C33.1601 33.9438 32.6033 33.7266 32.1084 33.7266Z" fill="#919EAB"/>
</g>
</svg>
