<svg width="100" height="32" viewBox="0 0 100 32" fill="none" xmlns="http://www.w3.org/2000/svg">
<g id="visa">
<path id="polygon9" d="M42.985 31.5384H34.9492L39.9754 0.561523H48.0107L42.985 31.5384Z" fill="#919EAB"/>
<path id="path11" d="M72.1152 1.31881C70.5302 0.692034 68.0163 0 64.9078 0C56.9722 0 51.384 4.2179 51.3497 10.2482C51.2838 14.6974 55.3507 17.1686 58.3924 18.6521C61.5014 20.168 62.5582 21.1574 62.5582 22.5086C62.5265 24.5839 60.046 25.5404 57.7324 25.5404C54.5241 25.5404 52.8051 25.0472 50.1927 23.8927L49.1346 23.3978L48.0101 30.3514C49.8948 31.2072 53.3671 31.9667 56.9722 32C65.4039 32 70.8932 27.8474 70.9582 21.4211C70.9903 17.8948 68.8428 15.1928 64.213 12.9848C61.4025 11.5675 59.6813 10.6118 59.6813 9.16157C59.7142 7.8432 61.1371 6.49286 64.3097 6.49286C66.9221 6.42672 68.8415 7.05261 70.2956 7.67895L71.0224 8.00788L72.1152 1.31881Z" fill="#919EAB"/>
<path id="path13" fill-rule="evenodd" clip-rule="evenodd" d="M86.4999 0.560547H92.7156L99.1985 31.537H91.7581C91.7581 31.537 91.03 27.9778 90.7993 26.8903H80.482C80.1836 27.7137 78.7955 31.537 78.7955 31.537H70.3638L82.2999 3.13071C83.1269 1.12031 84.5832 0.560547 86.4999 0.560547ZM86.0041 11.8934C86.0041 11.8934 83.4577 18.7809 82.7959 20.5605H89.4752C89.1447 19.0117 87.623 11.5969 87.623 11.5969L87.0614 8.92773C86.8249 9.61505 86.4829 10.56 86.2522 11.1974C86.0959 11.6294 85.9907 11.9201 86.0041 11.8934Z" fill="#919EAB"/>
<path id="path15" d="M28.2385 0.561584L20.3689 21.6848L19.5089 17.4008C18.054 12.4576 13.491 7.08685 8.3989 4.41639L15.6072 31.5056H24.1049L36.7357 0.561584H28.2385Z" fill="#919EAB"/>
<path id="path17" d="M13.0611 0.561584H0.132267L0 1.18748C10.0853 3.75808 16.7645 9.95441 19.5087 17.4021L16.6982 3.16547C16.2355 1.18704 14.8135 0.626846 13.0611 0.561584Z" fill="#919EAB"/>
</g>
</svg>
