<svg width="42" height="61" viewBox="0 0 42 61" fill="none" xmlns="http://www.w3.org/2000/svg">
<mask id="mask0_27_1786" style="mask-type:alpha" maskUnits="userSpaceOnUse" x="5" y="40" width="32" height="21">
<path d="M5 59.2902V41C5 40.4477 5.44772 40 6 40H36C36.5523 40 37 40.4477 37 41V59.2902C37 60.055 36.1763 60.5367 35.5097 60.1617L21 52L6.49026 60.1617C5.82366 60.5367 5 60.055 5 59.2902Z" fill="#9BB0F9"/>
</mask>
<g mask="url(#mask0_27_1786)">
<path d="M5 59.2902V41C5 40.4477 5.44772 40 6 40H36C36.5523 40 37 40.4477 37 41V59.2902C37 60.055 36.1763 60.5367 35.5097 60.1617L21.4903 52.2758C21.1858 52.1045 20.8142 52.1045 20.5097 52.2758L6.49026 60.1617C5.82366 60.5367 5 60.055 5 59.2902Z" fill="#9BB0F9"/>
<path d="M5 42.4152V41C5 40.4477 5.44772 40 6 40H36C36.5523 40 37 40.4477 37 41V59.2902C37 60.055 36.1763 60.5367 35.5097 60.1617L21 52L5.50974 43.2867C5.19486 43.1096 5 42.7764 5 42.4152Z" fill="url(#paint0_linear_27_1786)"/>
<g style="mix-blend-mode:multiply" opacity="0.3">
<path d="M5 40H9V61H5V40Z" fill="#6B91F7"/>
</g>
<g style="mix-blend-mode:multiply" opacity="0.3">
<path d="M33 40H37V61H33V40Z" fill="#666DF6"/>
</g>
</g>
<path d="M20.072 2.4861L1.07199 12.4385C0.412954 12.7837 0 13.4662 0 14.2101V36.8394C0 37.5571 0.384572 38.2198 1.00772 38.5758L20.0077 49.433C20.6226 49.7843 21.3774 49.7843 21.9923 49.433L40.9923 38.5758C41.6154 38.2198 42 37.5571 42 36.8394V14.2101C42 13.4662 41.587 12.7837 40.928 12.4385L21.928 2.4861C21.3468 2.18165 20.6532 2.18165 20.072 2.4861Z" fill="#9AADCD"/>
<path d="M20.072 0.486102L1.07199 10.4385C0.412954 10.7837 0 11.4662 0 12.2101V34.8394C0 35.5571 0.384572 36.2198 1.00772 36.5758L20.0077 47.433C20.6226 47.7843 21.3774 47.7843 21.9923 47.433L40.9923 36.5758C41.6154 36.2198 42 35.5571 42 34.8394V12.2101C42 11.4662 41.587 10.7837 40.928 10.4385L21.928 0.486103C21.3468 0.181653 20.6532 0.181653 20.072 0.486102Z" fill="url(#paint1_linear_27_1786)"/>
<path d="M20.0642 4.49541L5.06422 12.4366C4.4095 12.7832 4 13.4633 4 14.2042V32.8561C4 33.5648 4.37508 34.2206 4.98596 34.58L19.986 43.4035C20.6119 43.7717 21.3881 43.7717 22.014 43.4035L37.014 34.58C37.6249 34.2206 38 33.5648 38 32.8561V14.2042C38 13.4633 37.5905 12.7832 36.9358 12.4366L21.9358 4.49541C21.3504 4.18551 20.6496 4.18551 20.0642 4.49541Z" fill="url(#paint2_linear_27_1786)"/>
<g filter="url(#filter0_i_27_1786)">
<path d="M17.3447 28.132C16.3207 28.132 15.5367 27.752 14.9927 26.992C14.4567 26.232 14.1887 25.148 14.1887 23.74C14.1887 22.332 14.4567 21.26 14.9927 20.524C15.5367 19.78 16.3207 19.408 17.3447 19.408C18.3687 19.408 19.1487 19.78 19.6847 20.524C20.2287 21.26 20.5007 22.332 20.5007 23.74C20.5007 25.148 20.2287 26.232 19.6847 26.992C19.1487 27.752 18.3687 28.132 17.3447 28.132ZM17.3447 26.62C17.8087 26.62 18.1527 26.392 18.3767 25.936C18.6007 25.472 18.7127 24.74 18.7127 23.74C18.7127 22.74 18.6007 22.02 18.3767 21.58C18.1527 21.14 17.8087 20.92 17.3447 20.92C16.8807 20.92 16.5367 21.14 16.3127 21.58C16.0887 22.02 15.9767 22.74 15.9767 23.74C15.9767 24.74 16.0887 25.472 16.3127 25.936C16.5367 26.392 16.8807 26.62 17.3447 26.62ZM22.26 28V26.476H24.156V21.616L22.704 22.468L21.996 21.112L24.696 19.54H26.016V26.476H27.792V28H22.26Z" fill="#8791B6"/>
</g>
<g style="mix-blend-mode:multiply" opacity="0.25">
<path d="M19.8669 30.779L5 41L20.0195 49.4485C20.6283 49.7909 21.3717 49.7909 21.9805 49.4485L37 41L22.1331 30.779C21.4506 30.3098 20.5494 30.3098 19.8669 30.779Z" fill="#BBC7EA"/>
</g>
<defs>
<filter id="filter0_i_27_1786" x="14.1887" y="19.408" width="13.6033" height="9.72412" filterUnits="userSpaceOnUse" color-interpolation-filters="sRGB">
<feFlood flood-opacity="0" result="BackgroundImageFix"/>
<feBlend mode="normal" in="SourceGraphic" in2="BackgroundImageFix" result="shape"/>
<feColorMatrix in="SourceAlpha" type="matrix" values="0 0 0 0 0 0 0 0 0 0 0 0 0 0 0 0 0 0 127 0" result="hardAlpha"/>
<feOffset dy="1"/>
<feGaussianBlur stdDeviation="0.5"/>
<feComposite in2="hardAlpha" operator="arithmetic" k2="-1" k3="1"/>
<feColorMatrix type="matrix" values="0 0 0 0 0.0862745 0 0 0 0 0.109804 0 0 0 0 0.141176 0 0 0 0.3 0"/>
<feBlend mode="normal" in2="shape" result="effect1_innerShadow_27_1786"/>
</filter>
<linearGradient id="paint0_linear_27_1786" x1="5" y1="40" x2="36" y2="60" gradientUnits="userSpaceOnUse">
<stop stop-color="#6C8FF7"/>
<stop offset="1" stop-color="#846EF6"/>
</linearGradient>
<linearGradient id="paint1_linear_27_1786" x1="20.5" y1="0" x2="20.5" y2="48" gradientUnits="userSpaceOnUse">
<stop stop-color="#E8F2FD"/>
<stop offset="1" stop-color="#B5BFE8"/>
</linearGradient>
<linearGradient id="paint2_linear_27_1786" x1="20.5" y1="4" x2="20.5" y2="44" gradientUnits="userSpaceOnUse">
<stop stop-color="#EFF5FE"/>
<stop offset="1" stop-color="#D7E3FC"/>
</linearGradient>
</defs>
</svg>
