<svg width="136" height="24" fill="none" xmlns="http://www.w3.org/2000/svg"><mask id="a" style="mask-type:luminance" maskUnits="userSpaceOnUse" x="0" y="0" width="136" height="25"><path d="M135.8.001H.2v24h135.6v-24Z" fill="#fff"/></mask><g mask="url(#a)" fill="#919EAB"><path fill-rule="evenodd" clip-rule="evenodd" d="M40.885.001h7.209a2.079 2.079 0 0 0-.668 1.02c-.992.045-1.99.189-2.982.44-1.111.281-2.079.963-2.079 2.135 0 .38.1.738.27 1.05l-.01-.246.15-.076c.134-.072.279-.134.418-.195a9.475 9.475 0 0 1 1.107-.39c2.193-.634 5.424-.634 7.617 0 .374.108.748.241 1.107.39.14.056.284.123.419.195l.15.076-.01.246a2.2 2.2 0 0 0 .269-1.05c0-1.172-.967-1.864-2.08-2.135a15.708 15.708 0 0 0-3.17-.446c.22-.287.559-.471.898-.65.214-.118.428-.23.623-.364h5.21c.707 0 1.285.594 1.285 1.321v21.352c0 .728-.578 1.322-1.286 1.322H40.885c-.708 0-1.286-.594-1.286-1.322V1.322c-.005-.727.573-1.321 1.286-1.321Zm8.3 10.397c1.83-1.07 2.667-2.305 2.772-4.348-.743 2.499-1.83 3.708-2.772 4.348Zm-6.171-3.196c.259 3.585 4.028 3.887 5.095 5.915 1.066-2.028 4.835-2.335 5.095-5.915l.12-2.643c-2.578-1.377-7.848-1.377-10.425 0l.115 2.643ZM21.185.001h14.448c.707 0 1.286.594 1.286 1.321v21.352c0 .728-.579 1.322-1.286 1.322H21.185c-.708 0-1.286-.594-1.286-1.322V1.322c0-.727.578-1.321 1.286-1.321Zm8.38 16.425c1.83-1.07 2.668-2.305 2.772-4.348-.743 2.5-1.83 3.708-2.772 4.348Zm-6.246-3.001c.26 3.585 4.028 3.892 5.095 5.915 1.067-2.028 4.835-2.335 5.095-5.915l.12-2.643c-2.578-1.378-7.847-1.378-10.425 0l.115 2.643Zm4.412-6.182c-.992.046-1.99.19-2.981.44-1.112.282-2.08.963-2.08 2.136 0 .38.1.738.27 1.05l-.01-.246.15-.076c.134-.072.279-.134.418-.195a9.49 9.49 0 0 1 1.107-.39c2.194-.634 5.424-.634 7.618 0 .373.108.747.241 1.106.39.14.056.285.123.42.194l.149.077-.01.246a2.2 2.2 0 0 0 .269-1.05c0-1.173-.967-1.864-2.079-2.136a15.707 15.707 0 0 0-3.17-.445c.219-.287.558-.471.897-.65.747-.405 1.475-.8 1.565-1.931-1.386.179-.688.112-2.054.978-.658.358-1.33.722-1.585 1.608ZM1.486.001h2.08l.05 1.122C3.873 4.708 7.642 5.01 8.71 7.038c1.067-2.028 4.836-2.335 5.095-5.915L13.855 0h2.079c.708 0 1.286.594 1.286 1.321v21.352c0 .728-.578 1.322-1.286 1.322H13.86l.065-1.419c-2.578-1.378-7.847-1.378-10.425 0l.065 1.419H1.486C.778 24 .2 23.402.2 22.674V1.322C.2.595.778.001 1.486.001Zm11.172 0c-.732 2.136-1.724 3.216-2.597 3.805 1.66-.973 2.503-2.084 2.722-3.805h-.125ZM8.032 19.043c-.992.046-1.989.19-2.981.44-1.112.282-2.079.964-2.079 2.136 0 .38.1.738.27 1.05l-.01-.245.149-.077c.134-.072.279-.134.419-.195a9.478 9.478 0 0 1 1.106-.39c2.194-.634 5.424-.634 7.618 0 .374.108.748.241 1.107.39.14.056.284.123.418.195l.15.076-.01.246a2.2 2.2 0 0 0 .27-1.05c0-1.172-.968-1.864-2.08-2.135a15.712 15.712 0 0 0-3.17-.446c.219-.287.558-.471.897-.65.748-.405 1.476-.8 1.565-1.931-1.385.179-.688.113-2.054.978-.658.354-1.33.717-1.585 1.608ZM70.573 13.803c2.897 0 4.676-1.85 4.676-4.364v-.036c0-2.479-1.725-3.431-3.49-3.738l3.286-3.222V.23h-8.779v2.515h5.105l-3.1 3.201.442 1.87H69.9c1.596 0 2.542.61 2.542 1.695v.036c0 .993-.762 1.618-1.84 1.618-1.315 0-2.243-.573-3.135-1.603l-1.959 1.936c1.112 1.352 2.727 2.305 5.065 2.305ZM89.761 13.804c4.008 0 6.92-3.109 6.92-6.904v-.036c0-3.795-2.877-6.863-6.885-6.863s-6.92 3.109-6.92 6.899v.036c0 3.8 2.877 6.868 6.885 6.868Zm.035-2.71c-2.303 0-3.933-1.905-3.933-4.194v-.036c0-2.29 1.595-4.154 3.898-4.154 2.304 0 3.934 1.906 3.934 4.195v.036c0 2.29-1.595 4.153-3.899 4.153ZM97.273 13.572h2.912l1.186-2.991h5.494l1.186 2.991h2.986L105.479.132h-2.637l-5.569 13.44Zm5.125-5.583 1.725-4.327 1.725 4.327h-3.45ZM113.047 13.572h2.861V9.496l1.501-1.604 4.028 5.68h3.43l-5.529-7.682 5.289-5.66h-3.45l-5.269 5.834V.23h-2.861v13.342ZM131.029 13.767c2.802 0 4.771-1.485 4.771-4.138v-.036c0-2.325-1.485-3.298-4.117-4.005-2.244-.59-2.802-.876-2.802-1.752v-.04c0-.651.573-1.163 1.67-1.163s2.228.496 3.375 1.316l1.486-2.213C134.095.65 132.48.041 130.586.041c-2.652 0-4.547 1.603-4.547 4.02v.036c0 2.648 1.69 3.396 4.307 4.082 2.174.574 2.618.953 2.618 1.696v.035c0 .784-.703 1.26-1.875 1.26-1.485 0-2.707-.63-3.878-1.618l-1.69 2.08a8.135 8.135 0 0 0 5.508 2.135ZM68.358 24c.992 0 1.76-.4 2.318-.886v-2.417h-2.358v1.06h1.201v.794c-.304.225-.687.333-1.121.333-.963 0-1.64-.748-1.64-1.767v-.015c0-.948.688-1.737 1.555-1.737.628 0 1.002.205 1.416.564l.753-.932c-.564-.492-1.157-.764-2.13-.764-1.64 0-2.84 1.296-2.84 2.884v.015C65.505 22.782 66.667 24 68.357 24ZM78.798 23.905h1.216l.494-1.25h2.294l.493 1.25h1.246l-2.323-5.613h-1.101l-2.319 5.613Zm2.14-2.33.722-1.808.723 1.808h-1.446ZM92.832 23.904H94v-3.616l1.51 2.362h.035l1.526-2.382v3.636h1.187v-5.572H96.97l-1.427 2.356-1.425-2.356h-1.287v5.572Z"/><path d="M108.247 18.332h-1.191v5.572h1.191v-5.572Z"/><path fill-rule="evenodd" clip-rule="evenodd" d="M117.047 23.904h1.182V20.36l2.627 3.544h1.012v-5.572h-1.176v3.431l-2.543-3.431h-1.102v5.572ZM133.223 24c.992 0 1.76-.4 2.318-.886v-2.417h-2.358v1.06h1.202v.794c-.305.225-.689.333-1.123.333-.961 0-1.645-.748-1.645-1.767v-.015c0-.948.688-1.737 1.556-1.737.628 0 1.002.205 1.415.564l.753-.932c-.563-.492-1.156-.764-2.128-.764-1.64 0-2.842 1.296-2.842 2.884v.015c0 1.65 1.166 2.868 2.852 2.868Z"/></g></svg>