<svg width="110" height="26" fill="none" xmlns="http://www.w3.org/2000/svg"><path fill-rule="evenodd" clip-rule="evenodd" d="M1.245 12.247c2.44.245 5.013.697 7.72 1.357.18.044.218.142.11.295l-5.41 7.773c-.066.097-.04.145.077.145l10.43-.011c.125 0 .204-.059.237-.176l1.667-5.854c.041-.15.136-.201.283-.153 7.127 2.284 13.594 5.615 19.401 9.995.296.222.339.18.13-.126L18.604.363c-.08-.117-.158-.117-.237 0a2905.512 2905.512 0 0 1-6.71 9.785c-.037.053-.072.107-.105.161-.164.26-.316.5-.683.504-3.561.023-6.778.324-9.65.902-1.173.235-1.164.412.026.532Zm19.262.434a.126.126 0 0 1-.076-.002l-3.146-.96a.126.126 0 0 1-.084-.157l.944-3.154a.126.126 0 0 1 .233-.023l2.203 4.11a.126.126 0 0 1-.074.186Zm24.307-3.676c-.232.244-.247.513-.046.806a.525.525 0 0 0 .386.222c.65.044 1.336.04 2.031.037 1.373-.007 2.782-.014 4.026.342 1.25.355 1.239 2.057 1.025 3.058-.158.745-.63 1.168-1.415 1.27-1.98.26-4.238.296-6.772.107-1.315-.1-1.955-.806-1.919-2.118.008-.263.143-.394.405-.394l1.675.004c.306.002.478.155.516.458.028.237.171.36.428.367 1.37.039 2.684.045 3.946.02.403-.008.627-.21.673-.608a.617.617 0 0 0-.076-.371.453.453 0 0 0-.383-.241 747.712 747.712 0 0 0-4.34-.122c-.902-.023-1.683-.206-2.343-.547a.446.446 0 0 1-.226-.26c-.227-.63-.294-1.363-.202-2.199.164-1.518 1.69-1.701 2.948-1.728 2.847-.056 4.56-.025 5.138.092 1.275.26 1.834 1.012 1.679 2.256-.015.135-.09.201-.226.199l-1.9-.023c-.17-.003-.282-.087-.333-.253a.801.801 0 0 0-.244-.378.498.498 0 0 0-.337-.126l-3.83.007a.39.39 0 0 0-.284.123Zm33.406 3.402a2.512 2.512 0 0 1-2.512 2.512h-6.033a2.513 2.513 0 0 1-2.512-2.512V9.64a2.512 2.512 0 0 1 2.512-2.512h6.033A2.512 2.512 0 0 1 78.22 9.64v2.768Zm-2.563-2.222a1.094 1.094 0 0 0-1.095-1.092l-3.763.007a1.094 1.094 0 0 0-1.091 1.095l.003 1.644a1.094 1.094 0 0 0 1.095 1.092l3.762-.007a1.095 1.095 0 0 0 1.092-1.095l-.003-1.644ZM27.007 7.31v3.877c0 .024.007.048.02.069l2.225 3.3a.123.123 0 0 0 .226-.07l-.02-7.184a.123.123 0 0 0-.121-.122l-2.207.008a.122.122 0 0 0-.122.122Zm5.809 2.283.015 5.089a.127.127 0 0 1-.126.126l-2.233-.02a.125.125 0 0 1-.117-.077.125.125 0 0 1-.01-.048l.009-7.353a.126.126 0 0 1 .126-.126h3.636a.126.126 0 0 1 .096.046l4.439 5.322a.127.127 0 0 0 .205-.008.127.127 0 0 0 .02-.076l-.027-5.154a.127.127 0 0 1 .078-.117.126.126 0 0 1 .049-.01l2.21-.007a.126.126 0 0 1 .126.126l.004 7.372a.127.127 0 0 1-.127.126h-3.685a.125.125 0 0 1-.096-.046L33.04 9.51a.126.126 0 0 0-.225.085Zm31.827-2.318-1.598 5.3a.122.122 0 0 1-.233.003l-1.863-5.307a.122.122 0 0 0-.118-.08l-2.145-.004a.122.122 0 0 0-.115.08l-1.892 5.224a.122.122 0 0 1-.234-.004L54.851 7.28a.122.122 0 0 0-.115-.084l-2.172-.02a.123.123 0 0 0-.114.165l2.538 7.383a.122.122 0 0 0 .115.085l2.7-.004a.122.122 0 0 0 .114-.08l1.721-4.673a.122.122 0 0 1 .23 0l1.712 4.672a.122.122 0 0 0 .115.08l2.715.005a.123.123 0 0 0 .114-.085l2.528-7.379a.124.124 0 0 0-.015-.112.121.121 0 0 0-.1-.052l-2.175.007a.122.122 0 0 0-.12.088Zm23.174 4.665c1.183.309 1.136 1.626 1.102 2.597v.007c-.008.173-.099.26-.272.26l-2.023.004c-.186.002-.277-.09-.275-.276 0-.106.006-.218.012-.33v-.001c.033-.657.069-1.358-.884-1.351-1.28.008-2.551.002-3.816-.015-.13-.003-.193.06-.19.19l.015 1.4c.002.255-.125.383-.383.383h-1.72c-.245 0-.367-.123-.367-.367l.003-7.074a.18.18 0 0 1 .18-.18c2.47-.005 4.948-.002 7.433.008 1.537.005 2.313.856 2.329 2.554.007 1.066-.375 1.728-1.147 1.988-.227.077-.226.144.003.203ZM86.43 9.479a.377.377 0 0 0-.378-.38l-4.22-.006a.378.378 0 0 0-.38.377l-.002 1.086a.377.377 0 0 0 .378.38l4.221.007a.378.378 0 0 0 .38-.378l.001-1.086Zm9.13 5.112-.02-5.235c0-.186.094-.278.28-.275 1.04.005 2.026.013 2.96.023.168.003.252-.082.252-.252l.004-1.4c0-.176-.088-.264-.264-.264H89.92c-.222 0-.331.111-.329.333l.012 1.28c.003.195.1.291.294.291l3.074-.003a.138.138 0 0 1 .138.137l-.038 5.307a.272.272 0 0 0 .076.192.263.263 0 0 0 .188.08l2.003.004c.148 0 .222-.073.222-.218Zm11.815-4.88-.016-2.335c0-.052.021-.102.058-.138a.193.193 0 0 1 .137-.057l2.046-.004a.196.196 0 0 1 .195.195l.015 7.242a.192.192 0 0 1-.057.137.19.19 0 0 1-.138.058l-2.068-.004a.194.194 0 0 1-.195-.195l.027-2.455a.202.202 0 0 0-.058-.142.192.192 0 0 0-.141-.057l-4.845.004a.193.193 0 0 0-.14.06.202.202 0 0 0-.055.143l.084 2.428a.197.197 0 0 1-.053.141.19.19 0 0 1-.138.061l-2.133.02a.195.195 0 0 1-.2-.196l.02-7.245a.195.195 0 0 1 .195-.195l2.095.023a.198.198 0 0 1 .182.123c.009.024.014.05.013.076l-.057 2.309a.18.18 0 0 0 .014.076.2.2 0 0 0 .105.108c.024.01.05.015.076.015h4.837c.051 0 .101-.02.138-.057a.197.197 0 0 0 .057-.138Z" fill="#919EAB"/></svg>