<svg width="116" height="22" fill="none" xmlns="http://www.w3.org/2000/svg"><g clip-path="url(#a)"><path d="M83.863 10.878c-.064.095-.128.095-.192-.002L76.698.27a.248.248 0 0 0-.205-.112H72.14a.052.052 0 0 0-.042.02.055.055 0 0 0-.013.044.28.28 0 0 0 .047.11c2.972 4.388 6.14 9.074 9.504 14.056.213.315.319.714.317 1.197-.005 2.01-.005 4.068 0 6.175 0 .055.028.083.083.083l3.372-.002c.072 0 .108-.036.108-.108l-.012-6.637c0-.197.06-.39.17-.553L95.425.24a.05.05 0 0 0-.006-.063.047.047 0 0 0-.033-.014l-4.27.002a.277.277 0 0 0-.23.124l-7.023 10.589Z"/><path d="m71.503 21.833 4.304-.002a.23.23 0 0 1-.084-.019c-.07-.033-.068-.064.003-.094a.11.11 0 0 0 .057-.056.108.108 0 0 0-.005-.102 54.739 54.739 0 0 1-1.755-3.08c-.123-.233-.26-.457-.398-.681-.166-.27-.332-.54-.474-.828l-.5-1.01-.063-.115a46.365 46.365 0 0 0-1.087-1.94c-.298-.5-.626-1.085-.982-1.755-.6-1.13-1.416-2.55-2.447-4.26a3.23 3.23 0 0 1-.21-.448 2.632 2.632 0 0 0-.282-.556 3.715 3.715 0 0 1-.415-.746 3.862 3.862 0 0 0-.293-.564 5.363 5.363 0 0 1-.29-.521 28.697 28.697 0 0 0-1.352-2.44c-.197-.32-.372-.65-.548-.983a23.145 23.145 0 0 0-.417-.764c-.058-.1-.125-.107-.2-.019a1.183 1.183 0 0 0-.213.362 4.482 4.482 0 0 1-.46.953c-.194.292-.37.59-.531.893a291.106 291.106 0 0 1-3.645 6.715c-.13.233-.32.607-.57 1.122-.126.259-.27.51-.413.76-.191.335-.382.668-.528 1.016-.105.25-.223.48-.354.689-.158.252-.306.506-.445.763-.15.28-.302.559-.457.837a289.9 289.9 0 0 1-2.238 3.932 5.94 5.94 0 0 0-.268.54 34.504 34.504 0 0 1-.083.18 3.75 3.75 0 0 1-.303.518 7.84 7.84 0 0 0-.882 1.703l4.066.005a.289.289 0 0 0 .255-.153l7.086-13.159a.096.096 0 0 1 .083-.049.092.092 0 0 1 .081.05l7.136 13.234a.135.135 0 0 0 .12.072ZM115.025 21.831l-4.305.002a.142.142 0 0 1-.071-.02.14.14 0 0 1-.05-.052l-7.136-13.235a.086.086 0 0 0-.033-.036.095.095 0 0 0-.096 0 .099.099 0 0 0-.035.036l-7.086 13.159a.29.29 0 0 1-.255.153l-4.065-.005c.226-.608.52-1.175.881-1.703.13-.19.23-.363.303-.518.029-.06.056-.12.083-.18v-.001c.083-.183.165-.362.268-.54a289.9 289.9 0 0 0 2.238-3.93c.155-.28.308-.558.458-.838.138-.257.286-.511.445-.763.13-.208.248-.438.353-.689.146-.348.337-.681.528-1.015.144-.25.287-.502.413-.76.25-.516.441-.89.57-1.123a291.883 291.883 0 0 0 3.645-6.715c.161-.304.337-.601.531-.893.172-.26.326-.578.461-.953.049-.133.119-.253.212-.362.075-.088.142-.082.201.02.145.251.281.507.416.763.176.332.352.664.548.983.512.832.963 1.645 1.352 2.44.086.177.183.35.29.52.116.186.214.374.293.565.11.265.248.514.415.746.126.176.204.366.282.556.062.152.124.303.211.447 1.03 1.71 1.846 3.13 2.447 4.261.356.67.683 1.255.982 1.756.419.7.738 1.293 1.087 1.939l.062.116c.008.012.174.349.501 1.009.142.287.308.558.473.828.138.224.275.448.399.681a54.551 54.551 0 0 0 1.755 3.08.1.1 0 0 1 .015.05v.019a.13.13 0 0 1-.01.033.11.11 0 0 1-.058.056c-.071.03-.072.061-.003.094.022.01.051.017.085.02ZM19.691 21.833l4.305-.002a.23.23 0 0 1-.085-.019c-.069-.033-.068-.064.003-.094a.11.11 0 0 0 .058-.056.107.107 0 0 0-.005-.102 54.739 54.739 0 0 1-1.755-3.08c-.124-.233-.261-.457-.399-.681-.165-.27-.331-.54-.473-.828l-.5-1.01-.063-.115c-.348-.646-.667-1.238-1.087-1.94-.299-.5-.626-1.085-.982-1.755-.6-1.13-1.416-2.55-2.447-4.26-.087-.145-.149-.296-.211-.448a2.632 2.632 0 0 0-.282-.556 3.715 3.715 0 0 1-.415-.746 3.852 3.852 0 0 0-.293-.564 5.362 5.362 0 0 1-.29-.521 28.699 28.699 0 0 0-1.352-2.44c-.196-.32-.372-.65-.548-.983-.135-.256-.27-.512-.416-.764-.059-.1-.126-.107-.201-.019a1.185 1.185 0 0 0-.212.362 4.482 4.482 0 0 1-.461.953c-.194.292-.37.59-.53.893a291.072 291.072 0 0 1-3.645 6.715c-.13.233-.32.607-.571 1.122-.126.259-.27.51-.413.76-.191.335-.382.668-.528 1.016a4.75 4.75 0 0 1-.353.689 12.95 12.95 0 0 0-.445.763c-.15.28-.303.559-.458.837A290 290 0 0 1 2.4 18.892a5.946 5.946 0 0 0-.268.54c-.027.06-.054.12-.083.18a3.751 3.751 0 0 1-.303.518 7.836 7.836 0 0 0-.881 1.703l4.065.005a.289.289 0 0 0 .255-.153L12.27 8.526a.095.095 0 0 1 .083-.049.092.092 0 0 1 .082.05L19.57 21.76a.136.136 0 0 0 .121.072ZM49.114 21.822l-3.54.024a.093.093 0 0 1-.067-.028.097.097 0 0 1-.028-.068l.027-10.06c0-.245-.073-.269-.218-.071l-6.917 9.388c-.082.11-.164.11-.244 0l-7.162-9.777c-.075-.104-.113-.092-.113.037l.013 10.491c0 .056-.028.085-.083.085l-3.395-.002a.045.045 0 0 1-.045-.045l.008-8.374L27.32.352c0-.142.041-.157.126-.044l10.715 14.241a.1.1 0 0 0 .124.029.1.1 0 0 0 .035-.029L49.03.313c.08-.105.12-.092.12.04l-.035 21.469Z" fill="#00AB55"/><path d="m106.207 14.465-5.634.004a.052.052 0 0 0-.026.008.046.046 0 0 0-.018.019.043.043 0 0 0-.005.01.085.085 0 0 0-.002.016l.001.005.002.01a.046.046 0 0 0 .005.01l2.83 4.88.003.005.004.005.011.009a.062.062 0 0 0 .021.006h.005a.053.053 0 0 0 .044-.025l2.804-4.886a.057.057 0 0 0 .007-.026.057.057 0 0 0-.007-.025.054.054 0 0 0-.019-.019.06.06 0 0 0-.015-.005h-.003l-.008-.001ZM15.272 14.544l-2.814 4.882a.051.051 0 0 1-.09 0l-2.813-4.882a.051.051 0 0 1 .02-.07.052.052 0 0 1 .025-.006h5.627c.01 0 .018.002.026.006a.05.05 0 0 1 .02.07ZM64.308 19.422l2.801-4.868a.057.057 0 0 0 0-.057.057.057 0 0 0-.05-.03h-5.601a.057.057 0 0 0-.05.086l2.801 4.87a.058.058 0 0 0 .05.028c.01 0 .02-.003.028-.008a.058.058 0 0 0 .021-.02Z" fill="#00AB55"/></g><defs><clipPath id="a"><path fill="#fff" transform="translate(.848)" d="M0 0h114.304v22H0z"/></clipPath></defs></svg>