<svg width="116" height="30" fill="none" xmlns="http://www.w3.org/2000/svg"><path fill-rule="evenodd" clip-rule="evenodd" d="M25.35.139c3.582.396 7.036 1.83 9.764 4.212a16.171 16.171 0 0 1 4.013 5.3 15.087 15.087 0 0 1 1.127 3.369l.243 1.677.059 1.33a13.999 13.999 0 0 1-.839 4.796 14.902 14.902 0 0 1-1.525 3.096.854.854 0 0 1-.714.41c-.5.024-1.099.017-1.796-.02-.427-.023-.715-.355-.837-.738a7.826 7.826 0 0 0-.323-.84c-.026-.06-.007-.088.058-.086.62.026 1.244.027 1.87.003a.435.435 0 0 0 .418-.39.44.44 0 0 0-.026-.203l-.43-1.128-.812-2.117a.087.087 0 0 1 .024-.104 1.12 1.12 0 0 0 .38-.86c-.012-1.127-1.255-1.664-2.18-1.147-1.162.647-.74 2.159.468 2.405.048.01.08.038.098.085l.69 1.98c.008.019.001.029-.02.029h-1.033c-.025 0-.042-.012-.05-.037l-1.757-4.855-.375-1.055a.157.157 0 0 0-.16-.114l-3.153-.001a.048.048 0 0 0-.038.018.051.051 0 0 0-.01.042l.397 1.903c.21 1.026.422 2.05.636 3.071.057.266.067.464.03.592-.087.318-.434.4-.726.397-.902-.011-1.81-.011-2.726 0a.081.081 0 0 1-.055-.02.084.084 0 0 1-.027-.053l-.468-3.942-.232-1.93c-.006-.05-.035-.077-.087-.077l-.585-.004c-.05 0-.074.024-.07.074l.089 1.74.206 4.133c.003.053-.022.08-.075.08h-3.624c-.048 0-.071-.024-.068-.072l.178-3.4.124-2.484a.067.067 0 0 0-.019-.05.069.069 0 0 0-.049-.02l-.573.002c-.053 0-.082.026-.089.079l-.338 2.862a.43.43 0 0 1-.256-.038c.225-2.027-3.1-2.075-2.836.077.505 1.395 2.435 1.382 2.836-.076a.43.43 0 0 0 .256.037l-.358 3.007c-.005.049-.033.074-.083.075-.79.002-1.704.01-2.74.027-.454.008-.872-.24-.758-.76.193-.885.378-1.77.556-2.654l.529-2.565c.01-.047-.01-.071-.057-.071l-3.158.001a.102.102 0 0 0-.104.073l-.398 1.063c-.066-.062-.228-.08-.486-.058a.029.029 0 0 1-.018-.005.026.026 0 0 1-.01-.015c-.016-.065-.06-.097-.131-.095-.04.001-.067.02-.08.058l-.012.035a.063.063 0 0 1-.064.045h-.724a.06.06 0 0 1-.054-.03l-.02-.034c-.04-.066-.067-.06-.083.021-.006.03-.024.042-.052.038a.185.185 0 0 0-.06.001c-.202.04-.366.019-.49-.064-.03-.02-.054-.014-.073.016-.037.059-.089.075-.157.048a.305.305 0 0 0-.138-.021c-1.12.076-2.242.085-3.367.025-.048-.002-.097 0-.147.006-.068.008-.12-.015-.154-.069a.082.082 0 0 0-.087-.04.435.435 0 0 1-.224-.027.087.087 0 0 0-.1.02.085.085 0 0 0-.024.038c-.016.048-.05.072-.1.072h-.401a.103.103 0 0 1-.103-.068c-.022-.052-.061-.076-.12-.071a.084.084 0 0 0-.077.061l-.016.046c-.011.031-.033.044-.066.039a1.153 1.153 0 0 0-.704.095l.052-1.513v-.055a.398.398 0 0 1 .026-.136l.234-1.688c.23-1.108.584-2.178 1.062-3.21L7.867 7.78c.227-.018.38.011.458.088.035.034.073.037.113.008.154-.113.35-.136.59-.067a.164.164 0 0 1 .079.05c.064.071.141.087.231.047a.11.11 0 0 0 .07-.088c.003-.018.013-.028.032-.029.034-.003.055.013.062.046a.106.106 0 0 0 .037.06c.047.04.084.032.113-.022l.021-.041c.04-.073.072-.07.098.01a.22.22 0 0 0 .019.038.064.064 0 0 0 .064.032c.038-.003.061-.022.071-.055.013-.048.046-.072.096-.072h.864a.1.1 0 0 1 .093.052c.052.084.13.112.235.083a.1.1 0 0 0 .075-.072.062.062 0 0 1 .045-.044.032.032 0 0 1 .04.021.13.13 0 0 0 .099.094c.095.025.164-.003.208-.084a.082.082 0 0 1 .05-.042c.15-.044.27-.01.36.102.031.038.06.037.085-.004.053-.083.11-.088.17-.014.027.033.062.05.105.053.075.004.13-.025.162-.087a.097.097 0 0 1 .067-.054c.141-.036.253-.004.333.094.031.037.066.041.103.012a.08.08 0 0 0 .028-.042c.02-.078.053-.084.1-.017.051.074.126.104.224.091a.114.114 0 0 0 .103-.095.038.038 0 0 1 .027-.03c.028-.009.046 0 .055.029a.125.125 0 0 0 .083.083.18.18 0 0 0 .2-.047.373.373 0 0 1 .224-.108.312.312 0 0 1 .224.064c.073.057.14.05.203-.02.028-.031.058-.032.088-.002l.091.091c.037.037.07.034.1-.01a.192.192 0 0 1 .031-.035c.024-.023.048-.024.074-.004.18.134.342.126.488-.026a.124.124 0 0 1 .115-.04c.047.008.078.031.093.07a.115.115 0 0 0 .121.07.993.993 0 0 1 .544.085l-.261.696c-.017.043-.003.065.044.065l13.752.001a.056.056 0 0 0 .056-.052c.001-.009 0-.018-.004-.027l-.45-1.046a11.7 11.7 0 0 0-1.989-3.074c-2.17-2.467-5.494-3.012-8.088-.885-.392.32-.756.67-1.093 1.047-.826.99-1.482 2.081-1.967 3.275a.993.993 0 0 0-.544-.084.115.115 0 0 1-.12-.071c-.016-.039-.047-.062-.094-.07a.124.124 0 0 0-.115.04c-.146.152-.308.16-.488.026-.026-.02-.05-.019-.074.004a.192.192 0 0 0-.03.036c-.03.043-.064.046-.1.01l-.092-.092c-.03-.03-.06-.03-.088.003-.063.07-.13.076-.203.019a.312.312 0 0 0-.224-.064.373.373 0 0 0-.224.108.18.18 0 0 1-.2.047.125.125 0 0 1-.083-.083c-.009-.028-.027-.038-.055-.029a.038.038 0 0 0-.027.03.114.114 0 0 1-.103.095c-.098.013-.173-.017-.225-.091-.046-.067-.08-.061-.099.017a.08.08 0 0 1-.028.042c-.037.03-.072.025-.103-.012-.08-.098-.192-.13-.333-.094a.097.097 0 0 0-.067.054c-.033.062-.087.091-.162.087a.142.142 0 0 1-.105-.053c-.06-.074-.117-.07-.17.014-.026.04-.054.042-.084.004-.091-.112-.211-.146-.36-.102a.082.082 0 0 0-.051.042c-.044.08-.114.109-.208.084a.13.13 0 0 1-.1-.094.033.033 0 0 0-.015-.019.032.032 0 0 0-.024-.002.062.062 0 0 0-.045.044.1.1 0 0 1-.075.072c-.105.029-.183.001-.235-.083a.1.1 0 0 0-.093-.052h-.864c-.05 0-.083.024-.096.072-.01.033-.033.052-.071.055a.064.064 0 0 1-.064-.032.22.22 0 0 1-.019-.039c-.026-.08-.059-.082-.098-.01l-.021.042c-.029.054-.066.061-.113.022a.106.106 0 0 1-.037-.06c-.007-.033-.028-.049-.062-.046-.019 0-.03.01-.032.03a.11.11 0 0 1-.07.087c-.09.04-.167.024-.231-.047a.164.164 0 0 0-.08-.05c-.239-.069-.435-.046-.589.067-.04.029-.078.026-.113-.008-.078-.077-.23-.106-.458-.088a16.027 16.027 0 0 1 2.764-3.258C14.686.877 19.997-.455 25.35.14Zm13.031 20.63a.04.04 0 0 0-.02.006.039.039 0 0 0-.008.005h.001l.002-.002a.04.04 0 0 1 .025-.008Zm-1.405.088-.001-.004v.003l.001.001Zm0 0v.002l.002.003a.253.253 0 0 1-.002-.005Zm.258-.017.002.006.003.006a.164.164 0 0 1-.005-.012Zm-11.207-3.632a1.498 1.498 0 0 1 2.507-.064c.387.676.18 1.437-.496 1.804-.49.267-.98.27-1.471.008-.644-.342-.872-1.09-.54-1.748Zm-.197-.064-.098-.03a.118.118 0 0 1 .018.03l.004.009.001.003a.093.093 0 0 0 .023.035c.012.01.025.005.037-.016a.2.2 0 0 0 .015-.032Zm-4.189.21c-.12.356-.104.691.05 1.006.726 1.488 3.361.633 2.584-1.143-.65-1.036-2.083-.939-2.634.137Zm17.953-2.77a.014.014 0 0 0-.003.003.011.011 0 0 0-.002.002l.002-.002.002-.002a.019.019 0 0 1 .001 0Zm-5.072.003a.052.052 0 0 1-.003-.015.035.035 0 0 0-.018-.032.17.17 0 0 0-.107-.027c-.089.005-.135-.031-.14-.107 1.193-.258 2.2-.808 3.02-1.649l.527-.787c.09-.134.06-.17-.089-.109a504.9 504.9 0 0 0-2.863 1.188 1.46 1.46 0 0 1-1.161.018 893.932 893.932 0 0 0-5.018-1.965.153.153 0 0 0-.113 0c-1.649.642-3.423 1.33-5.322 2.064a.644.644 0 0 1-.481-.001c-1.796-.69-3.58-1.376-5.35-2.06a.163.163 0 0 0-.126 0c-1.77.684-3.465 1.346-5.082 1.986-.297.118-.634.155-.937.03-1.012-.421-2.006-.84-2.984-1.256-.142-.06-.176-.023-.102.112.175.322.403.64.683.952.903.869 1.926 1.295 3.149 1.561a.44.44 0 0 1-.028.098l-.115.01c-.005-.004-.089-.02-.094-.026-.025-.027-.046-.034-.064-.02a.075.075 0 0 0-.02.027.213.213 0 0 0-.003.01l.18.01c.07.07.047.075.087.035a.15.15 0 0 0 .03-.046l22.544-.001Zm3.51 6.242v.002l.001.002v-.004ZM8.308 9.616c-.066.1-.127.195-.122.32.018.405.016.816-.005 1.233a.103.103 0 0 0 .066.102l3.388 1.32a.136.136 0 0 0 .098 0 3423.16 3423.16 0 0 0 5.155-2.005c.325-.127.704-.103 1.035.03l4.994 1.99a.183.183 0 0 0 .14 0c1.68-.68 3.381-1.365 5.106-2.054.279-.112.597-.073.87.033 1.846.721 3.564 1.388 5.153 2.001a.17.17 0 0 0 .12 0l3.436-1.32a.09.09 0 0 0 .063-.092l.005-1.33c-.205-.379-.529-.567-.97-.567-9.263-.002-18.526-.002-27.79 0-.252 0-.5.113-.742.339Z" fill="#00AB55"/><path fill-rule="evenodd" clip-rule="evenodd" d="m13.762 16.273-1.709 4.69c-.471 1.291-.79 2.183-.955 2.676-.151.453-.467.659-.93.682-.806.04-1.416.032-1.831-.023-.179-.024-.336-.137-.472-.339a13.648 13.648 0 0 1-1.449-2.78 14.28 14.28 0 0 1-.996-4.84c.214-.104.449-.135.704-.094.033.005.055-.008.066-.039l.016-.046a.084.084 0 0 1 .077-.061c.059-.005.098.02.12.07a.103.103 0 0 0 .103.07h.402c.05 0 .083-.025.099-.073a.085.085 0 0 1 .024-.038.087.087 0 0 1 .1-.02.435.435 0 0 0 .224.027.082.082 0 0 1 .087.04c.035.054.086.076.154.069.05-.006.1-.008.147-.006 1.125.06 2.248.052 3.367-.025a.305.305 0 0 1 .138.021c.068.027.12.01.157-.048.019-.03.043-.036.072-.016.125.083.29.104.492.064a.185.185 0 0 1 .059-.001c.028.004.046-.008.052-.038.016-.08.044-.087.083-.021l.02.033c.012.02.03.031.054.031h.724a.063.063 0 0 0 .064-.045l.012-.035c.013-.038.04-.057.08-.058.07-.002.115.03.13.095a.026.026 0 0 0 .011.015.029.029 0 0 0 .018.005c.258-.023.42-.004.486.058Zm-6.006 4.576v.01a.25.25 0 0 0 .005.073l-.005-.083Z" fill="#00AB55"/><path d="M24.887 24.47v1.915c0 .05.025.076.075.077 4.306.08 8.58.493 12.823 1.24 1.27.223 2.55.504 3.84.842 1.274.334 2.44.749 3.5 1.245.273.128.26.168-.037.12a151.72 151.72 0 0 0-17.053-1.719c-3.089-.136-6.22-.13-9.397.019-5.984.28-11.896.864-17.736 1.752a.207.207 0 0 1-.132-.023l-.046-.023c-.041-.021-.04-.042.001-.062 1.602-.75 3.176-1.241 5.008-1.65 4.9-1.092 10.153-1.62 15.3-1.75.046 0 .07-.024.068-.071l-.001-1.938c0-.05-.025-.075-.075-.075-1.23.013-2.499.013-3.808 0-1.127-.01-1.153-1.709.054-1.707 3.775.002 7.585.002 11.43-.002 1.195-.001 1.145 1.714.044 1.714-1.214.001-2.466 0-3.756-.005-.068 0-.102.034-.102.1Z" fill="#00AB55"/><path fill-rule="evenodd" clip-rule="evenodd" d="M114.192 9.6c-1.695-1.905-4.39-2.204-6.782-2.016a9.126 9.126 0 0 0-2.031.412 5.008 5.008 0 0 0-2.79 2.14c.323.039.646.05.968.035.406-.02.728-.025.964-.016.235.01.471.012.706.008.186-.003.421.002.705.018a5.22 5.22 0 0 0 1.635-.16c.457-.683 1.267-.9 1.896-.286.324.453.529.921.618 1.403l.143 1.476-.035.82c-.001.535-.162 1.112-.483 1.729-.351.469-.823.65-1.416.543a1.303 1.303 0 0 1-.752-.441l-3.728.033a.044.044 0 0 1-.041-.025c-.007-.015-.018-.022-.032-.023a9.182 9.182 0 0 1-.963-.082c1.726 2.395 5.437 2.807 8.113 2.2 1.216-.277 2.267-.878 3.153-1.805a8.18 8.18 0 0 0 .363-.402c.416-.633.656-1.29.722-1.967l.026-.703a4.212 4.212 0 0 0-.186-1.409 4.291 4.291 0 0 0-.773-1.481Zm-1.173.052-.002.007-.004.01.005-.013.001-.004Z" fill="#00AB55"/><path d="M107.567 10.021A4.577 4.577 0 0 0 107 11.57l-.072.859a6.897 6.897 0 0 0 .192 1.978c.075.28.214.566.418.859l-3.728.033a.044.044 0 0 1-.041-.025c-.007-.015-.018-.022-.032-.023a9.182 9.182 0 0 1-.963-.082l-.425-.755a4.309 4.309 0 0 1-.332-1.981l.07-.751c.098-.575.265-1.09.502-1.545.323.039.646.05.968.035.406-.02.728-.025.964-.016.235.01.471.012.706.008.186-.003.421.002.705.018a5.22 5.22 0 0 0 1.635-.16ZM86.335 9.836c.285-.267.578-.42.879-.462.054-.007.082-.038.082-.093l-.006-1.466c0-.025-.01-.049-.028-.067a.097.097 0 0 0-.068-.028l-6.065-.014c-.113 0-.17.056-.171.17l-.007 1.402c0 .059.03.093.087.102.306.048.604.21.896.485.118.836.15 1.718.095 2.646l.026 2.395c.016.576-.324.909-1.02.996-.044.005-.066.03-.066.076l-.002 1.333c0 .046.023.068.069.068l6.293.002c.067 0 .1-.034.1-.102v-1.334c0-.046-.022-.071-.068-.077-.58-.068-1.196-.368-1.13-1.047l.013-2.157a13.971 13.971 0 0 1 .091-2.828Z" fill="#00AB55"/><path fill-rule="evenodd" clip-rule="evenodd" d="m58.687 8.465-.265-.619a.191.191 0 0 0-.178-.116l-4.026.004a.09.09 0 0 0-.087.057l-.397.92-1.372 3.203-.665 1.539c-.082.175-.157.36-.233.547-.18.442-.364.893-.655 1.257-.271.272-.621.383-1.05.332a.058.058 0 0 0-.059.033.055.055 0 0 0-.005.023l.012 1.631a.103.103 0 0 0 .103.103l5.411.002c.047 0 .071-.024.071-.071l-.007-1.524c0-.083-.042-.124-.124-.122-.445.01-.754-.118-.927-.383-.013-.27.036-.473.146-.606.085-.103.257-.155.515-.156.577-.003 1.155-.004 1.732-.002.54.001.754.288.643.861-.236.172-.525.259-.87.262-.085 0-.128.043-.128.128l.003 1.56a.051.051 0 0 0 .05.051h6.462c.068 0 .101-.033.101-.1l-.001-1.575c0-.054-.026-.086-.079-.098l-.69-.143c-.384-.233-.644-.541-.78-.924-.055-.154-.188-.45-.398-.89l-1.177-2.726-1.076-2.458Zm-5.452 5.196h-.01.01Zm4.372.018-.04.001h.04Zm-1.206-.81a.145.145 0 0 1 .007-.007l.004-.005.003-.003.002-.002a.16.16 0 0 0-.016.018Zm4.265.787a.142.142 0 0 1-.005.003l-.006.003a.292.292 0 0 0 .011-.006Zm-4.37-.647-.545-1.505c-.084-.233-.147-.228-.19.016a2.165 2.165 0 0 1-.19.544l-.295.88c-.014.043.002.065.047.065h1.172Zm.227-4.265-.04-.002.026.001.014.001Zm.634-.012Zm-1.558.009.048.003h-.01L55.6 8.74ZM69.807 7.774a.096.096 0 0 0-.095-.063l-6.186.01c-.064 0-.096.033-.095.097l.01 1.45c.001.059.03.093.089.102.264.044.494.146.69.307.206.195.309.418.309.67 0 .716 0 1.427-.003 2.132l-.024 1.215c.143.933.049 1.529-.282 1.787l-.68.252a.097.097 0 0 0-.069.1l-.01 1.482c0 .045.023.067.068.067l4.978-.003c.063 0 .095-.031.095-.095l.002-1.446a.096.096 0 0 0-.07-.1l-.712-.234c-.209-.138-.324-.272-.345-.403-.033-.2-.038-.496-.014-.89l-.01-1.892c-.293.151-.513.184-.66.1-.029-.017-.053-.012-.073.016-.041.057-.097.066-.167.026h-.002l-.001-.002a.018.018 0 0 1-.004-.005.016.016 0 0 1 .002.003.016.016 0 0 0 .005.004c.07.04.126.03.167-.026.02-.028.044-.033.074-.016.146.085.366.051.659-.1l.025-1.03c.002-.047.026-.074.074-.08.11-.014.197.032.26.138l.412 1.045 1.002 2.514a.352.352 0 0 1 .268-.046.25.25 0 0 0 .128-.004c.129-.038.26-.053.395-.046.06.004.113.02.164.034.093.027.18.051.292 0a.275.275 0 0 1 .134-.023c.29.026.596.023.918-.01a.68.68 0 0 1 .271.029.217.217 0 0 0 .133.001.646.646 0 0 1 .4.002c.05.017.1.014.147-.008a.307.307 0 0 1 .25-.011c.045.018.091.02.139.01.18-.044.38-.048.604-.013l.319-.82.58-1.483.5-1.306c.093-.052.167-.055.221-.008.024.021.038.06.042.115l.016 3.044-.035.822c-.21.268-.501.453-.874.555a.14.14 0 0 0-.104.131l-.021 1.444c0 .043.02.064.063.064h6.087c.045 0 .067-.022.068-.067l.019-1.476c0-.06-.028-.095-.087-.107-.484-.09-.837-.278-1.06-.565l-.041-.743-.001-4.153c.093-.526.412-.826.957-.9.045-.006.069-.03.073-.075a7.934 7.934 0 0 0-.02-1.476c-.006-.066-.043-.1-.11-.1h-6.42a.11.11 0 0 0-.104.069l-1.53 3.672-.22.553c-.074.189-.15.189-.224 0l-.29-.721-1.466-3.516Zm-1.583 4.618a.126.126 0 0 1 .004 0h-.004Zm5.393.099h.003-.003Zm.015.01c.004.013.01.023.017.03l-.017-.03Zm1.594 1.866h.003-.007a.03.03 0 0 0-.001 0h.005Zm-10.52-.044Z" fill="#00AB55"/><path d="m73.469 14.821-.968 2.486a.114.114 0 0 1-.106.072h-2.08a.126.126 0 0 1-.126-.084l-.963-2.39a.352.352 0 0 1 .268-.045.25.25 0 0 0 .128-.004c.129-.038.26-.053.395-.046.06.004.113.02.164.034.093.027.18.051.292 0a.275.275 0 0 1 .134-.023c.29.026.596.023.918-.01a.68.68 0 0 1 .271.029.217.217 0 0 0 .133.001.646.646 0 0 1 .4.002c.05.017.1.014.147-.008a.307.307 0 0 1 .25-.011c.045.018.091.02.139.01.18-.044.38-.048.604-.013Z" fill="#00AB55"/><path fill-rule="evenodd" clip-rule="evenodd" d="M92.987 10.608c.209-.336.49-.597.846-.782.729-.262 1.484-.17 2.264.273.3.17.503.331.61.482.123.174.142.4.16.618.006.085.013.168.026.246a.09.09 0 0 0 .031.055.093.093 0 0 0 .06.021l3.41-.002c.048 0 .072-.024.072-.073l.005-3.471c0-.052-.025-.078-.077-.078l-1.747.006a.146.146 0 0 0-.114.05l-.04.047c-.189.216-.468.535-.768.4-1.733-.772-3.501-.803-5.403-.564-1.526.192-2.818.836-3.875 1.934l-.661.965a3.607 3.607 0 0 0-.406 1.744c-.02.45.023.878.131 1.28l.248.743c.197.434.471.842.822 1.225.356.348.633.586.83.713 1.299.842 2.71 1.224 4.234 1.147 1.322-.068 2.782-.31 4.378-.723.29-.077.521.107.624.375.02.049.055.074.107.075l1.642.018c.054.001.081-.025.081-.079l.01-1.435.025-1.692a2.818 2.818 0 0 0-.559-.052c-.809.027-1.657.035-2.544.024-.358-.004-.715 0-1.072.013-.01.001-.016.007-.017.016.001-.01.007-.015.017-.016.357-.013.714-.017 1.072-.013.887.01 1.735.003 2.544-.024.14-.005.326.012.559.052.262-.3.581-.464.956-.489a.076.076 0 0 0 .072-.075l-.001-1.218a.091.091 0 0 0-.091-.09l-6.208-.003c-.026 0-.05.01-.069.028a.096.096 0 0 0-.029.069l-.006 1.246a.09.09 0 0 0 .056.091c.134.066.26.086.381.106.197.032.38.063.567.279.284.675-.18 1.205-.809 1.329-.349.068-.7.07-1.051.006-.55-.099-.958-.365-1.227-.8-.173-.306-.27-.59-.29-.847l-.009-.923c0-.128-.003-.261-.007-.396-.016-.613-.033-1.276.24-1.831Zm-4.175.099a.021.021 0 0 0-.009.002h.002a.02.02 0 0 1 .007-.002Z" fill="#00AB55"/><path d="M55.747 23.692c0 .01-.001.02-.005.029-.87 2.03-3.9 1.316-4.002-.83-.04-.84.474-1.657 1.244-1.96.962-.378 1.813-.219 2.553.477a.223.223 0 0 0 .16.064l1.222-.003c.063 0 .078-.027.047-.081-.95-1.668-2.88-2.075-4.57-1.42-.795.308-1.648 1.1-1.857 1.935-.347 1.388.009 2.494 1.066 3.32.578.45 1.262.693 2.053.726 1.48.063 2.535-.497 3.167-1.678.262-.489.349-1.06.387-1.619.001-.01 0-.02-.004-.028a.073.073 0 0 0-.025-.034.067.067 0 0 0-.013-.007l-.002-.001h-.002l-.002-.002h-.004a.067.067 0 0 0-.017-.003l-3.496-.004c-.063 0-.096.032-.097.095l-.015.907a.066.066 0 0 0 .004.025.066.066 0 0 0 .035.035.063.063 0 0 0 .025.005l2.088-.002a.062.062 0 0 1 .05.027.059.059 0 0 1 .01.027ZM110.74 23.643l2.035-.01c.012 0 .024.004.035.01a.08.08 0 0 1 .026.023c.007.01.011.021.012.033a.07.07 0 0 1-.006.035c-.775 1.889-3.626 1.372-3.955-.527-.381-2.217 2.308-3.239 3.775-1.788.034.034.075.05.123.05l1.257.005c.063 0 .078-.027.046-.08-.451-.75-1.016-1.243-1.696-1.48-1.47-.516-3.186-.204-4.216 1.034-1.158 1.392-.75 3.538.804 4.464.824.492 1.729.653 2.716.481 1.637-.284 2.62-1.622 2.614-3.262a.056.056 0 0 0-.016-.04.054.054 0 0 0-.039-.015l-3.494-.002c-.067 0-.101.034-.102.1l-.017.87a.098.098 0 0 0 .017.057c.004.005.007.01.011.013a.097.097 0 0 0 .07.03Z" fill="#00AB55"/><path fill-rule="evenodd" clip-rule="evenodd" d="m63.37 25.838-1.272.008a.044.044 0 0 1-.039-.02.045.045 0 0 1-.002-.045l2.926-5.967a.046.046 0 0 1 .04-.025l1.24.006a.045.045 0 0 1 .04.026l2.91 5.962.003.005a.042.042 0 0 1 .003.014v.004a.046.046 0 0 1-.047.043l-1.33-.012a.046.046 0 0 1-.04-.026l-.597-1.265a.045.045 0 0 0-.042-.026h-3.092a.045.045 0 0 0-.04.026l-.622 1.267a.047.047 0 0 1-.016.018.046.046 0 0 1-.024.007Zm1.251-2.435a.042.042 0 0 0 .002.041.042.042 0 0 0 .036.02l1.926-.008a.042.042 0 0 0 .035-.02.043.043 0 0 0 .006-.02c0-.006 0-.013-.004-.02l-.97-1.957a.042.042 0 0 0-.059-.017.042.042 0 0 0-.015.017l-.957 1.964Z" fill="#00AB55"/><path d="m79.19 25.826 1.882-3.623a.045.045 0 0 1 .05-.021.044.044 0 0 1 .033.042l-.023 3.575a.044.044 0 0 0 .044.045l1.274.004a.042.042 0 0 0 .009-.001.048.048 0 0 0 .017-.008.054.054 0 0 0 .01-.01.034.034 0 0 0 .005-.009.041.041 0 0 0 .003-.017l.005-5.966a.044.044 0 0 0-.044-.044l-1.446-.006a.046.046 0 0 0-.023.007.044.044 0 0 0-.016.017l-2.455 4.687a.044.044 0 0 1-.078 0l-2.454-4.684a.044.044 0 0 0-.04-.024l-1.497-.003a.044.044 0 0 0-.044.044l-.001 5.968a.044.044 0 0 0 .044.045h1.259a.044.044 0 0 0 .044-.043l-.012-3.6a.045.045 0 0 1 .033-.046.044.044 0 0 1 .051.024l1.893 3.637a.044.044 0 0 0 .039.024l1.4.01a.044.044 0 0 0 .038-.024ZM89.591 19.785l-1.168.002a.092.092 0 0 0-.092.093l.01 5.876c0 .051.042.093.093.093l1.168-.002a.093.093 0 0 0 .092-.093l-.01-5.877a.092.092 0 0 0-.093-.092ZM95.729 25.842l1.258.004a.045.045 0 0 0 .045-.045l-.004-4.085c0-.01.003-.019.008-.027a.045.045 0 0 1 .074-.001l3.296 4.134a.031.031 0 0 0 .007.007.03.03 0 0 0 .008.006.048.048 0 0 0 .02.005l1.39.008a.046.046 0 0 0 .032-.014.044.044 0 0 0 .013-.032l.003-5.965a.047.047 0 0 0-.013-.032.046.046 0 0 0-.033-.014l-1.266-.002a.047.047 0 0 0-.033.013.047.047 0 0 0-.013.032l.008 4.085a.05.05 0 0 1-.008.027.05.05 0 0 1-.011.01.046.046 0 0 1-.04.007h-.002l-.003-.002a.049.049 0 0 1-.018-.014l-3.286-4.136a.047.047 0 0 0-.004-.004l-.001-.001a.047.047 0 0 0-.03-.012l-1.398-.005a.046.046 0 0 0-.046.045l.001 5.963a.046.046 0 0 0 .046.045Z" fill="#00AB55"/></svg>