<svg width="120" height="24" fill="none" xmlns="http://www.w3.org/2000/svg"><g clip-path="url(#a)"><path fill-rule="evenodd" clip-rule="evenodd" d="m10.568 3.02-9.807.003a.049.049 0 0 1-.046-.06L1.442.078A.049.049 0 0 1 1.49.043L13.306.042a.049.049 0 0 1 .048.037l4.464 17.87a.05.05 0 0 1-.009.041.05.05 0 0 1-.038.019h-3.667a.048.048 0 0 1-.046-.037l-.847-3.632a.049.049 0 0 0-.046-.038l-7.87.001a.048.048 0 0 0-.046.038l-.837 3.632a.049.049 0 0 1-.046.037l-3.605.002a.05.05 0 0 1-.047-.04.049.049 0 0 1 0-.021L3.906 5.326a.049.049 0 0 1 .048-.036l3.314-.005a.049.049 0 0 1 .048.06l-1.363 5.92a.048.048 0 0 0 .048.06l6.464-.002a.05.05 0 0 0 .022-.005.05.05 0 0 0 .026-.033.05.05 0 0 0 0-.022l-1.897-8.205a.049.049 0 0 0-.047-.038Zm102.82 4.244.005 5.476c0 .892.158 1.888 1.065 2.254.297.12.77.176 1.42.167.888-.012 1.768-.01 2.639.01.042 0 .063.022.063.064l-.001 2.718a.056.056 0 0 1-.014.033.048.048 0 0 1-.033.014c-1.266.013-2.531.016-3.794.009-2.925-.015-4.7-1.742-4.709-4.72a805.89 805.89 0 0 1 .005-6.023.073.073 0 0 0-.021-.05.074.074 0 0 0-.051-.022h-2.447a.052.052 0 0 1-.035-.015.049.049 0 0 1-.014-.034l.004-2.671c0-.044.022-.066.066-.066l2.461-.002c.025 0 .05-.008.07-.023a.112.112 0 0 0 .04-.062l.891-3.655c.008-.033.028-.049.061-.049l2.273.003c.038 0 .057.02.058.057l.002 3.644a.08.08 0 0 0 .025.06.083.083 0 0 0 .06.025h5.748c.009 0 .017.002.025.006.007.004.014.01.019.016a.05.05 0 0 1 .011.023.07.07 0 0 1-.001.025l-.684 2.649a.091.091 0 0 1-.089.07h-5.049c-.046 0-.069.022-.069.069Zm-87.89 9.082c0-.078.026-.088.08-.03 1.156 1.289 2.612 1.962 4.367 2.02 2.66.089 5.05-1.266 6.248-3.65 1.597-3.174.835-7.61-2.352-9.605a6.633 6.633 0 0 0-3.932-1.017c-1.859.091-3.355.84-4.49 2.245a.043.043 0 0 1-.043.014.042.042 0 0 1-.031-.034l-.332-1.802c-.01-.056-.044-.084-.102-.084l-5.276.007c-.038 0-.057.02-.057.059l-.002 2.487c0 .015.005.03.015.04.01.01.023.017.037.017l2.463.166c.011 0 .021.005.028.013a.041.041 0 0 1 .012.028v13.837c0 .05-.024.076-.075.08l-2.326.155a.057.057 0 0 0-.053.057l-.002 2.503a.065.065 0 0 0 .064.064l10.674-.009a.032.032 0 0 0 .032-.032v-2.54a.042.042 0 0 0-.01-.028.04.04 0 0 0-.028-.013l-4.85-.173a.062.062 0 0 1-.06-.063v-4.712Zm5.669-1.255a3.995 3.995 0 0 1-3.134.011 4.088 4.088 0 0 1-1.332-.909 4.224 4.224 0 0 1-.892-1.363 4.322 4.322 0 0 1-.011-3.225c.204-.512.504-.978.883-1.37.378-.393.829-.705 1.325-.918a3.994 3.994 0 0 1 3.134-.011c.497.21.95.519 1.331.909.382.39.685.853.892 1.363a4.318 4.318 0 0 1 .012 3.225 4.223 4.223 0 0 1-.883 1.37c-.379.393-.83.705-1.325.918Zm12.502 1.182c-.038-.044-.057-.037-.057.02v4.753a.073.073 0 0 0 .071.075l4.848.173c.009 0 .017.005.023.011.006.007.01.015.01.024v2.55a.035.035 0 0 1-.034.036l-10.687-.003a.057.057 0 0 1-.04-.018.06.06 0 0 1-.017-.041v-2.494a.065.065 0 0 1 .061-.066l2.369-.16a.055.055 0 0 0 .051-.055l.001-16.625c0-.031.016-.047.047-.047h2.741c.044 0 .07.022.079.066l.332 1.833a.032.032 0 0 0 .008.015.033.033 0 0 0 .033.009.033.033 0 0 0 .015-.01c1.173-1.418 2.665-2.168 4.476-2.25 1.816-.084 3.377.433 4.685 1.55 2.998 2.558 3.25 7.584.645 10.517-2.506 2.823-7.15 3.034-9.66.137Zm4.05-.855a3.996 3.996 0 0 0 1.567-.327 4.09 4.09 0 0 0 1.325-.918c.379-.392.679-.858.883-1.37a4.318 4.318 0 0 0-.012-3.225 4.222 4.222 0 0 0-.892-1.363 4.089 4.089 0 0 0-1.332-.91 3.995 3.995 0 0 0-3.133.012 4.09 4.09 0 0 0-1.325.918 4.223 4.223 0 0 0-.883 1.37 4.32 4.32 0 0 0 .011 3.225c.208.51.51.974.892 1.364.382.39.834.698 1.332.908.497.21 1.03.317 1.568.316ZM69.453 4.486 69.14 6.27c-.011.064-.038.072-.081.023a4.525 4.525 0 0 1-.135-.162 3.2 3.2 0 0 0-.193-.226c-1.315-1.343-2.948-1.954-4.901-1.833-2.88.18-5.2 2.07-6.02 4.833-.59 1.987-.396 4.363.665 6.16 1.434 2.425 4.113 3.646 6.885 3.191 1.499-.247 2.74-.973 3.722-2.177a.026.026 0 0 1 .026-.01c.005.002.01.004.013.008a.026.026 0 0 1 .006.013l.33 1.854c.007.044.033.067.079.067h2.742c.036 0 .054-.018.054-.054L72.329 4.48c0-.044-.022-.066-.066-.066l-2.714-.01a.097.097 0 0 0-.063.024.101.101 0 0 0-.034.06ZM66.47 15.092a3.996 3.996 0 0 1-3.135.011 4.089 4.089 0 0 1-1.332-.909 4.226 4.226 0 0 1-.892-1.364 4.32 4.32 0 0 1-.011-3.226c.204-.512.504-.977.883-1.37.379-.393.829-.705 1.325-.918a3.995 3.995 0 0 1 3.135-.011c.497.21.95.519 1.332.909.381.39.684.853.892 1.364a4.323 4.323 0 0 1 .011 3.226 4.223 4.223 0 0 1-.883 1.37c-.379.393-.829.705-1.325.918Zm34.82-8.794c.005.006.011.01.018.013a.036.036 0 0 0 .039-.01.045.045 0 0 0 .01-.02l.331-1.81a.077.077 0 0 1 .028-.048.081.081 0 0 1 .052-.019l2.72.007a.069.069 0 0 1 .069.07v13.46c0 .043-.022.065-.066.065l-2.728.005c-.045 0-.071-.022-.079-.066l-.323-1.827a.052.052 0 0 0-.012-.024.045.045 0 0 0-.049-.012.046.046 0 0 0-.021.016c-.52.706-1.325 1.32-2.12 1.675-1.425.637-2.925.746-4.502.329-3.895-1.03-5.59-5.104-4.721-8.816.813-3.475 4.013-5.669 7.555-5.159 1.556.224 2.823.948 3.799 2.171Zm-4.165 9.12a4.035 4.035 0 0 0 2.892-1.239 4.28 4.28 0 0 0 1.194-2.982 4.279 4.279 0 0 0-1.204-2.978 4.037 4.037 0 0 0-2.897-1.23 4.035 4.035 0 0 0-2.892 1.24 4.278 4.278 0 0 0-1.194 2.982 4.279 4.279 0 0 0 1.204 2.978 4.035 4.035 0 0 0 2.897 1.23ZM85.005 4.175c-1.426.035-2.826.723-3.46 2.021-.044.09-.073.086-.087-.013l-.231-1.712a.078.078 0 0 0-.076-.066l-5.11.006c-.038 0-.057.019-.057.058l-.005 2.463a.087.087 0 0 0 .081.087l2.425.158c.037.003.056.022.056.059l-.005 7.94c0 .044-.022.067-.065.07l-2.453.153a.04.04 0 0 0-.037.04v2.513c0 .015.007.03.017.04.01.01.025.017.04.017l10.673-.001a.043.043 0 0 0 .03-.012.041.041 0 0 0 .013-.03v-2.499a.066.066 0 0 0-.064-.067l-4.754-.158a.051.051 0 0 1-.034-.016.05.05 0 0 1-.014-.034c-.006-1.52-.007-3.12-.003-4.8.006-1.96 1.137-3.182 3.125-3.194.834-.006 1.693-.007 2.576-.004.027 0 .04-.013.04-.04V4.228a.057.057 0 0 0-.056-.057c-.84-.02-1.695-.018-2.566.004Z" fill="#00AB55"/></g><defs><clipPath id="a"><path fill="#fff" transform="translate(.62 .001)" d="M0 0h118.759v24H0z"/></clipPath></defs></svg>