<svg width="84" height="28" fill="none" xmlns="http://www.w3.org/2000/svg"><path fill-rule="evenodd" clip-rule="evenodd" d="M40.45 0c2.388 0 2.975.75 2.975 3.352v21.296c0 2.603-.587 3.352-2.976 3.352h-1.37c-2.35 0-2.976-.75-2.976-3.352V3.352C36.103.75 36.729 0 39.079 0h1.37Zm8.184 0c2.35 0 2.937.75 2.937 3.352v7.69h-2.78V3.707c0-.63-.08-.868-.588-.868h-.196c-.47 0-.548.237-.548.868v20.586c0 .63.078.867.548.867h.196c.509 0 .587-.236.587-.867v-8.518h2.78v8.873c0 2.603-.587 3.352-2.936 3.352H47.42c-2.35 0-2.977-.75-2.977-3.352V3.352C44.444.75 45.07 0 47.42 0h1.214ZM25.882 0c2.389 0 3.016.75 3.016 3.352v6.547h-2.82V3.707c0-.63-.078-.868-.587-.868h-.157c-.47 0-.548.237-.548.868v3.865c0 1.735.117 2.524 1.527 4.535 1.997 2.918 2.585 4.062 2.585 7.256v5.285c0 2.602-.627 3.352-3.016 3.352h-1.135c-2.35 0-2.976-.75-2.976-3.352V16.72h2.82v7.572c0 .63.077.867.586.867h.118c.509 0 .587-.236.587-.867v-5.324c0-1.696-.156-2.485-1.566-4.496-1.997-2.958-2.545-4.101-2.545-7.296V3.352C21.77.749 22.397 0 24.747 0h1.135Zm52.266 23.675.315.909c-.262.066-.737.347-.737 1.053 0 .574.38 1.25 1.319 1.25.879 0 1.336-.587 1.336-1.274 0-.7-.451-.993-.689-1.047v1.274h-.796v-2.16h2.251v.766l-.428.06c.268.185.517.586.517 1.19 0 1.179-.861 2.147-2.191 2.147-1.325 0-2.198-1.01-2.198-2.206 0-1.215.713-1.777 1.3-1.962ZM74.087.197v2.8H72.48v24.806h-2.976V2.997H67.9v-2.8h6.187Zm-38.532 0v2.8h-1.606v24.806h-2.976V2.997h-1.605v-2.8h6.187Zm31.052 0 1.88 27.606h-3.015l-.235-3.747h-1.723l-.196 3.747h-2.702L62.496.197h4.111Zm-52.942 0c2.389 0 3.015.75 3.015 3.352v7.138c0 1.972-.391 2.88-1.605 3.195 1.214.315 1.605 1.222 1.605 3.233v8.045c0 .986.04 1.893.353 2.643h-3.094c-.235-.474-.274-1.42-.274-2.327v-9.228c0-.67-.156-.947-.705-.947h-.626v12.502H9.318V.197h4.347Zm-6.93 0 1.879 27.606H5.598l-.234-3.747H3.64l-.195 3.747H.743L2.623.197h4.111Zm50.24 0c2.388 0 3.014.75 3.014 3.352v7.138c0 1.972-.391 2.88-1.605 3.195 1.214.315 1.605 1.222 1.605 3.233v8.045c0 .986.04 1.893.353 2.643h-3.094c-.235-.474-.274-1.42-.274-2.327v-9.228c0-.67-.156-.947-.705-.947h-.626v12.502h-3.016V.197h4.347Zm-36.222 0v27.606h-3.016V.197h3.016Zm61.515 26.701v.167h-.24v.619h-.175v-.619h-.24v-.167h.655Zm.333 0 .214.53.204-.53h.238v.786h-.17v-.521l-.204.52h-.14l-.204-.514v.515h-.165v-.786h.227ZM39.86 2.84h-.195c-.47 0-.548.237-.548.868v20.586c0 .63.078.867.548.867h.196c.509 0 .587-.236.587-.867V3.707c0-.63-.078-.868-.587-.868Zm41.286 15.728v1.028l-.855.306v1.638l.855.305v.993l-4.21-1.597v-1.094l4.21-1.58Zm-1.71 1.633-1.455.508 1.455.52V20.2Zm1.71-7.405v.927h-2.791l2.791 1.106v.766L78.391 16.7h2.756v.898h-4.21v-1.233L79.78 15.2l-2.845-1.107v-1.297h4.211Zm-68.07-9.758h-.743v9.425h.744c.509 0 .587-.237.587-.868v-7.69c0-.63-.078-.867-.587-.867Zm43.31 0h-.744v9.425h.744c.509 0 .587-.237.587-.868v-7.69c0-.63-.078-.867-.587-.867Zm24.76 7.43v.958h-4.21v-.957h4.21Zm0-5.047v.998L78.38 8.165h2.768v.939h-4.21V7.956l2.56-1.591h-2.56V5.42h4.21Zm-3-5.288.316.91c-.262.065-.737.346-.737 1.052 0 .574.38 1.25 1.319 1.25.879 0 1.336-.586 1.336-1.274 0-.7-.451-.993-.689-1.047v1.274h-.796V.138h2.251v.765l-.428.06c.268.186.517.586.517 1.19 0 1.179-.861 2.148-2.191 2.148-1.325 0-2.198-1.01-2.198-2.207 0-1.214.713-1.776 1.3-1.962Z" fill="#00AB55"/></svg>