<svg width="112" height="26" fill="none" xmlns="http://www.w3.org/2000/svg"><path fill-rule="evenodd" clip-rule="evenodd" d="M1.087-.076h-.75v26.155h111.326V-.076H1.087Zm.75 24.654V1.425h108.325v23.153H1.838Zm9.544-12.496h10.154c.646 0 1.112-.197 1.112-.775 0-.565-.466-.763-1.112-.763H11.38v1.538Zm14.398-1.208c0 1.038-.763 1.945-2.135 2.037 1.45.092 2.654.867 2.654 2.261 0 1.539-1.449 2.511-3.727 2.511H14.5l-2.033-2.063h9.442c.712 0 1.152-.248 1.152-.841s-.44-.829-1.152-.829H11.38v3.733H8.275V8.48h13.778c2.278 0 3.727.947 3.727 2.395Zm31.397 6.81h-3.16V8.478h10.28v2.433h-7.12v6.771Zm-10.268-6.772V8.479h3.627l2.394 2.433h-6.021Zm36.162 3.236H66.186v-2.131H83.07v2.13Zm0 3.535H66.186v-2.129H83.07v2.13Zm0-7.073H66.186V8.48H83.07v2.13Zm-37.78 3.538H28.406v-2.131H45.29v2.13Zm0 3.535H28.406v-2.129H45.29v2.13Zm0-7.073H28.406V8.48H45.29v2.13Zm55.712 4.063c-.112.037-.217.07-.32.097l2.868 2.913h-3.776l-2.666-2.708h-7.465l2.11-2.143h6.917c.816 0 1.398-.238 1.398-1.027 0-.789-.582-1.025-1.398-1.025H88.555v6.903h-3.132V8.48H98.93c2.419 0 4.336 1.051 4.336 3.248 0 1.512-.904 2.492-2.264 2.946Z" fill="#919EAB"/></svg>