<svg xmlns="http://www.w3.org/2000/svg" width="140" height="22" fill="none"><path fill="#00AB55" fill-rule="evenodd" d="M13.613 6.31c-.003-.055.023-.082.078-.082 2.647-.021 5.18.401 7.597 1.267a.142.142 0 0 0 .177-.185C19.765 3.031 15.813.235 11.061.25c-2.306.004-4.5.787-6.578 2.348a.551.551 0 0 0-.213.532c.437 2.57 1.343 5.03 2.718 7.381a.21.21 0 0 1-.071.284l-.731.443a.219.219 0 0 1-.305-.074c-1.342-2.26-2.215-4.586-2.62-6.98-.035-.217-.12-.24-.255-.067-2.604 3.335-3.3 7.292-1.635 11.088 1.213 2.773 3.256 4.735 6.128 5.887a.393.393 0 0 0 .4-.064c2.172-1.807 3.886-3.827 5.142-6.06.062-.109.15-.134.263-.075l.791.412c.12.064.147.155.078.273-1.232 2.177-2.856 4.12-4.872 5.83a.128.128 0 0 0 .068.224c4.975.582 8.717-1.18 11.227-5.287 1.367-2.236 1.79-4.658 1.267-7.268a.23.23 0 0 0-.146-.17 21.592 21.592 0 0 0-7.952-1.362.128.128 0 0 1-.094-.037.135.135 0 0 1-.04-.095l-.018-1.103Zm18.018.674-.21.106c-.172.09-.257.038-.255-.156l.008-3.445c0-.031-.016-.046-.047-.046l-2.427.014c-.08 0-.12.04-.12.12l-.004 12.548c0 .122.062.186.185.191.759.026 1.522.014 2.288-.035.246-.017.491-.02.735-.011a78.18 78.18 0 0 0 5.358.032.97.97 0 0 0 .944-.965l.003-7.445a.999.999 0 0 0-1.004-1h-5.074a.811.811 0 0 0-.38.092Zm-.454 3.534c.005-.48.216-.816.635-1.008.155-.07.323-.106.494-.106h3.012c.047 0 .092.019.126.053.033.034.051.08.051.128v3.974a.256.256 0 0 1-.255.256l-3.843-.008a.23.23 0 0 1-.23-.23c-.005-1.01-.002-2.03.01-3.059ZM51.45 9.4l-.703.004a.18.18 0 0 1-.18-.181V7.14c0-.154.076-.233.23-.238l.703-.014c.137-.002.206-.072.206-.21l.007-3.125a.103.103 0 0 1 .099-.103l2.392-.007a.1.1 0 0 1 .099.099l.004 3.144a.202.202 0 0 0 .202.202l1.135.004c.194 0 .291.097.291.29l-.007 1.938c0 .075-.03.146-.083.198a.278.278 0 0 1-.197.082l-1.082.007c-.173 0-.26.088-.26.263l-.003 3.935c0 .137.069.205.206.202l1.1-.003c.22 0 .33.11.33.33l-.015 1.824c-.002.243-.125.365-.369.365h-2.863a.981.981 0 0 1-.983-.986V9.659c0-.172-.086-.259-.259-.259Zm32.422 4.39a.904.904 0 0 1-.327.032c-.144-.012-.216-.09-.216-.231V3.556c0-.076-.038-.113-.114-.113l-2.331.003c-.095.002-.142.051-.142.146l-.004 11.755a.972.972 0 0 0 .973.973l2.242.003c.138.003.206-.065.206-.202l.025-2.094c.002-.217-.102-.296-.312-.237ZM97.223 9.4l-.614.004c-.18.002-.27-.088-.27-.27V7.14c0-.154.078-.233.231-.238l.703-.014c.137-.005.206-.076.206-.213l.007-3.122c0-.028.01-.054.029-.073a.098.098 0 0 1 .07-.03l2.392-.007a.1.1 0 0 1 .07.029.098.098 0 0 1 .029.07l.004 3.098c0 .163.081.245.245.245l1.096.007c.192.002.286.099.284.29l-.007 1.938c0 .187-.094.28-.281.28l-1.078.007c-.173 0-.259.088-.259.263l-.004 3.935c0 .137.069.206.206.206l1.125-.007c.203 0 .305.102.305.305l-.018 1.849c-.002.243-.125.365-.369.365h-2.814a1.034 1.034 0 0 1-1.032-1.029l.003-5.635c0-.172-.086-.259-.259-.259Zm6.15-5.954h2.036c.153 0 .277.124.277.277v1.944a.277.277 0 0 1-.277.277h-2.036a.277.277 0 0 1-.277-.277V3.723c0-.153.124-.277.277-.277Zm-60.678 9.421a.163.163 0 0 0-.163.156l-.021.625a.162.162 0 0 0 .043.113.154.154 0 0 0 .11.046l6.642.004c.094 0 .14.046.138.138l-.01 2.19a.185.185 0 0 1-.185.184h-8.254a1.066 1.066 0 0 1-1.064-1.06l.004-7.339a1.034 1.034 0 0 1 1.029-1.032l7.302-.004c.788 0 1.182.395 1.182 1.185l-.007 3.808a.985.985 0 0 1-.99.986h-5.756Zm4.162-3.325a.139.139 0 0 0-.138-.138h-4.052a.139.139 0 0 0-.139.138v.681a.14.14 0 0 0 .086.128.14.14 0 0 0 .053.01h4.052a.14.14 0 0 0 .128-.085.14.14 0 0 0 .01-.053v-.68Zm11.884 3.329 5.677-.008c.121 0 .18.062.178.185l-.01.596c0 .109-.056.163-.168.163l-3.914.004a.241.241 0 0 1-.24-.241v-.16c0-.123-.062-.185-.185-.185h-2.236c-.113 0-.17.058-.17.174l.003 1.952a.973.973 0 0 0 .973.972h7.547a.987.987 0 0 0 .987-.986l.003-3.974a.991.991 0 0 0-.993-.994l-5.696-.007c-.172 0-.254-.087-.244-.26l.028-.5c.007-.132.076-.198.206-.198h3.928c.12 0 .18.06.177.18l-.003.16a.25.25 0 0 0 .153.239c.031.013.065.02.099.02l1.895.011c.286 0 .435-.143.447-.43.028-.676.015-1.277-.04-1.802-.061-.594-.39-.89-.986-.89h-7.451a1.027 1.027 0 0 0-1.03 1.032l-.003 3.882a1.065 1.065 0 0 0 1.068 1.065Zm20.161 2.393a1.05 1.05 0 0 1-1.048 1.053l-7.41.012a1.05 1.05 0 0 1-1.052-1.048L69.38 7.95a1.05 1.05 0 0 1 1.048-1.052l7.41-.013a1.05 1.05 0 0 1 1.051 1.048l.013 7.331Zm-2.597-5.711a.146.146 0 0 0-.145-.146L72.122 9.4a.146.146 0 0 0-.145.145l-.008 4.117a.146.146 0 0 0 .146.145l4.038.007a.146.146 0 0 0 .145-.145l.007-4.116Zm12.69 4.272c-.23-.002-.345-.118-.345-.348l.004-6.376c0-.142-.072-.213-.217-.213l-2.104.014c-.18 0-.27.091-.27.273l-.003 8.13a1.018 1.018 0 0 0 1.018 1.018h4.287c.13 0 .252-.033.365-.1.123-.07.25-.08.38-.027.467.188 1.164.166 1.778.147.23-.007.448-.014.638-.01.187.006.28-.085.28-.272l.008-8.992c0-.12-.06-.181-.181-.181l-2.21.01c-.145.003-.217.076-.217.22l-.004 5.575c0 .674-.336 1.034-1.007 1.079-.642.043-1.375.06-2.2.053ZM105.534 6.9h-2.286a.152.152 0 0 0-.152.152v9.12c0 .084.068.152.152.152h2.286a.152.152 0 0 0 .152-.152V7.05a.152.152 0 0 0-.152-.152Zm11.611 8.765c.053-.128.08-.265.08-.403l-.013-7.324a1.053 1.053 0 0 0-1.056-1.052l-7.402.013a1.055 1.055 0 0 0-1.052 1.056l.013 7.323a1.053 1.053 0 0 0 1.056 1.053l7.402-.013a1.054 1.054 0 0 0 .972-.653Zm-2.528-6.167a.152.152 0 0 1 .011.056l-.007 4.116c0 .02-.004.038-.011.056a.15.15 0 0 1-.079.078.149.149 0 0 1-.056.011l-4.038-.007a.15.15 0 0 1-.056-.01.148.148 0 0 1-.089-.135l.007-4.117c0-.019.004-.038.011-.055a.15.15 0 0 1 .079-.079.149.149 0 0 1 .056-.01l4.038.006a.149.149 0 0 1 .103.043c.013.013.024.03.031.047Zm10.944.276c0-.246-.123-.37-.369-.37h-2.044c-.762 0-1.143.382-1.143 1.143v5.678c0 .066-.033.1-.099.1l-2.406-.004c-.054 0-.082-.029-.082-.085v-9.07a.249.249 0 0 1 .238-.252 20.328 20.328 0 0 1 2.271.039c.256.019.512.02.77.003a41.223 41.223 0 0 1 4.524-.039.986.986 0 0 1 .948.99l-.007 8.211c0 .138-.069.206-.206.206h-2.236c-.108 0-.163-.055-.163-.167l.004-6.383Zm5.567 3.098 5.677-.008c.121 0 .18.06.178.181l-.004.547c-.002.144-.077.216-.223.216l-3.861.007a.24.24 0 0 1-.17-.07.238.238 0 0 1-.071-.17v-.164c0-.123-.063-.185-.188-.185h-2.236c-.113 0-.17.058-.17.174l.004 1.952a.973.973 0 0 0 .972.972h7.547a.992.992 0 0 0 .987-.986l.003-3.974a.999.999 0 0 0-.993-.994l-5.695-.007a.247.247 0 0 1-.179-.077.253.253 0 0 1-.052-.084.252.252 0 0 1-.014-.098l.028-.5a.214.214 0 0 1 .064-.142.204.204 0 0 1 .142-.057h3.924c.142 0 .2.068.174.206a.395.395 0 0 0 0 .145c.036.163.136.245.302.245l1.849.014c.281.003.429-.137.443-.419.04-.75.019-1.402-.064-1.958a.87.87 0 0 0-.862-.745h-7.544a1.036 1.036 0 0 0-.954.635 1.023 1.023 0 0 0-.078.394l-.004 3.881a1.07 1.07 0 0 0 1.068 1.069Z" clip-rule="evenodd"/></svg>