<svg xmlns="http://www.w3.org/2000/svg" width="106" height="28" fill="none"><g fill="#919EAB" clip-path="url(#a)"><path d="M8.764 11.817c-.353-.81-1.568-.915-2.096-.264-.21.323-.195.706-.179 1.077.007.156.013.31.003.455.174-.005.349 0 .523.003.406.01.808.02 1.203-.09.493-.124.686-.74.546-1.18ZM7.135 14.776c-.216.005-.43.01-.643 0v2.483c.651.334 1.409.282 2.095.194 1.004-.353 1.075-2.096.07-2.501-.484-.2-1.004-.187-1.522-.176Z"/><path fill-rule="evenodd" d="M26.074 10.55C24.348 4.262 18.291.282 11.97 1.268c-2.026.334-3.945 1.127-5.565 2.36C.769 7.837-.446 15.92 3.692 21.66c1.708-.757 3.592-1.003 5.424-.95 1.708.046 3.392.305 5.075.564 1.526.235 3.051.47 4.593.545 1.937.088 3.962-.053 5.758-.88 1.973-3.012 2.483-6.921 1.532-10.39ZM13.41 2.933c.152-.475.303-.947.46-1.419.15.48.306.961.465 1.45l.31.963c.276 0 .552-.002.828-.004.552-.004 1.104-.008 1.655.004a148.07 148.07 0 0 1-2.007 1.496c.123.397.25.798.378 1.198.128.401.256.802.379 1.198L13.87 6.34l-2.007 1.48c.14-.461.286-.916.431-1.369.11-.343.22-.685.326-1.026-.669-.51-1.338-1.004-2.007-1.497.62-.026 1.24-.023 1.862-.02l.62.002c.107-.327.212-.652.315-.976ZM7.998 5.24c.035-.203.07-.405.114-.608.176.388.352.758.528 1.075l1.215-.159c-.281.282-.58.581-.88.863.088.185.176.374.264.564.088.189.176.378.264.563a12.75 12.75 0 0 1-.777-.415h-.001a31.792 31.792 0 0 0-.296-.166c-.3.3-.598.58-.898.862.047-.257.094-.531.14-.805l.071-.41-1.074-.598 1.215-.159c.044-.202.08-.405.115-.607Zm9.888.36 1.215.16c.176-.37.352-.74.528-1.092.046.2.082.411.118.624.034.197.069.396.11.59l1.216.16c-.226.118-.445.242-.662.366h-.001c-.138.079-.274.157-.411.232.024.141.047.285.07.43.041.268.084.539.141.803-.15-.141-.3-.286-.449-.432-.15-.145-.3-.29-.449-.431l-1.074.58c.088-.184.176-.373.264-.563.088-.189.176-.378.264-.563-.3-.282-.58-.563-.88-.863ZM4.308 8.279l-.053-.74c.159.176.317.37.458.564L5.4 7.82l-.387.634.457.563-.704-.158a7.28 7.28 0 0 0-.387.616l-.053-.74-.705-.176.687-.281Zm18.033-.458.67.282.475-.564-.053.74.669.281-.704.177-.053.74-.388-.617-.704.158c.08-.097.158-.189.238-.281.079-.093.158-.185.237-.282l-.387-.634ZM4.22 10.813c.387-.722 1.126-1.215 1.901-1.426.828-.229 1.69-.229 2.518-.14 1.286.14 2.448 1.32 2.43 2.676.036.757-.44 1.426-1.056 1.814.616.282 1.197.74 1.462 1.391.493 1.162.21 2.624-.723 3.452-.598.563-1.426.774-2.236.827-.81.053-1.62.106-2.413-.105a5.814 5.814 0 0 1-1.901-.863c.007-1.095.005-2.186.003-3.276-.003-1.452-.006-2.9.014-4.35Zm7.22.458c-.318-.898-.916-1.743-1.832-2.078.973 0 1.948.002 2.924.004 1.957.004 3.92.008 5.88-.004-1.056.353-1.919 1.145-2.535 2.078h-1.145v8.154h-2.078V11.27H11.44Zm4.666.511a4.537 4.537 0 0 1 2.571-2.307c1.585-.528 3.504-.387 4.772.793a40.84 40.84 0 0 0-.602 1.162c-.098.194-.196.387-.296.581-.757-.652-1.796-1.092-2.8-.828-.81.159-1.461.793-1.778 1.568-.335.845-.388 1.778-.212 2.676.176.88.758 1.726 1.603 2.06.775.283 1.69.283 2.377-.193v-1.867h-1.32v-1.866h3.38v4.878c-.898.74-2.077 1.056-3.204 1.144-1.11.088-2.307-.14-3.223-.863-.969-.757-1.567-1.901-1.743-3.116-.194-1.286-.106-2.642.475-3.822Z" clip-rule="evenodd"/><path d="M13.834 21.765c-1.12-.172-2.24-.343-3.362-.456.83.19 1.636.46 2.44.728.39.13.779.26 1.17.382 1.902.633 3.804 1.25 5.793 1.514.67.07 1.357.14 2.043.018.863-.652 1.55-1.48 2.201-2.343a9.6 9.6 0 0 1-2.588.634c-2.583.306-5.14-.085-7.697-.477ZM12.264 23.042c-1.379-.454-2.763-.908-4.205-.94 1.25.299 2.413.898 3.54 1.55.636.378 1.262.77 1.884 1.159.91.569 1.817 1.135 2.747 1.658.05.016.098.042.146.067.105.055.209.11.33.074 1.268-.282 2.448-.793 3.575-1.427-2.156-.172-4.195-.86-6.23-1.548a116.922 116.922 0 0 0-1.787-.593ZM9.327 24.937c-1.004-.493-2.13-.652-3.24-.722a13.113 13.113 0 0 0 6.41 2.677l-.388-.27c-.89-.619-1.782-1.24-2.782-1.685Z"/><path fill-rule="evenodd" d="M27.536 12.821C26.884 5.125 20.246-.563 12.69.089a13.684 13.684 0 0 0-9.633 5.353C-1.592 11.553-.5 20.34 5.488 25.078a13.514 13.514 0 0 0 17.152-.3c3.452-2.923 5.283-7.396 4.896-11.957Zm-26.89 2.29C.063 7.678 5.505 1.162 12.795.563c2.888-.229 5.741.493 8.154 2.06a13.604 13.604 0 0 1 6.11 10.32c.582 7.45-4.842 13.947-12.15 14.546C7.618 28.09 1.226 22.542.644 15.11ZM42.716 12.997c.317.282.651.564.986.845-.106.08-.216.155-.326.23-.11.074-.22.15-.326.228.423.687.44 1.568.088 2.29-.387.686-1.162 1.074-1.937 1.074-.107.005-.217-.005-.326-.016-.231-.023-.462-.045-.678.086-.14.053-.352.264-.123.37.195.084.412.046.625.01.056-.01.112-.02.168-.027.757-.141 1.62-.159 2.289.264.81.58.704 1.954-.123 2.465-1.391.898-3.293.74-4.65-.176h.001c.3-.352.599-.704.898-1.039.757.67 1.902.863 2.8.37.211-.106.282-.37.176-.581a.486.486 0 0 0-.247-.212c-.443-.134-.891-.085-1.34-.035-.37.04-.74.081-1.107.018-.44-.036-.934-.3-.969-.793-.088-.528.37-.898.775-1.127-1.004-.563-1.338-2.06-.616-2.976.792-1.039 2.306-1.145 3.434-.651l.528-.617Zm-2.307 1.515c-.687.264-.793 1.285-.3 1.76.317.318.81.353 1.216.23.616-.23.774-1.127.422-1.638-.282-.44-.88-.528-1.338-.352ZM104.281 13.596l.273-.3.272-.299c.317.282.652.564.987.845-.106.08-.216.155-.326.23-.11.074-.22.15-.326.228.37.617.44 1.391.176 2.06a2.06 2.06 0 0 1-1.602 1.251c-.247.047-.493.031-.74.016a5.867 5.867 0 0 0-.37-.016c-.028.01-.058.019-.09.028-.201.06-.44.133-.456.377.177.192.428.149.66.11.046-.009.09-.016.133-.022.757-.158 1.602-.194 2.307.212.81.475.827 1.796.123 2.377-.704.58-1.62.757-2.501.722a4.417 4.417 0 0 1-2.324-.775l.155-.18.129-.15c.203-.236.404-.468.596-.709a2.607 2.607 0 0 0 1.902.634l.089-.012c.371-.048.809-.105 1.021-.463.123-.3-.159-.6-.441-.617-.366-.052-.738-.016-1.111.02-.504.05-1.008.1-1.495-.073a.853.853 0 0 1-.651-.845c-.018-.476.422-.792.774-1.004-1.003-.546-1.338-2.06-.616-2.976.828-1.039 2.342-1.162 3.452-.669Zm-1.779.916c-.757.299-.775 1.532-.088 1.902.458.246 1.145.193 1.444-.282.246-.44.246-1.057-.123-1.427-.3-.317-.828-.352-1.233-.193Z" clip-rule="evenodd"/><path d="M54.937 13.913c.898-.845 2.395-.757 3.329 0 .827-.687 2.113-.81 3.028-.229.529.352.775 1.004.775 1.62v3.857H60.66v-3.505c0-.352-.052-.757-.334-.986-.529-.405-1.374-.229-1.708.335-.02.794-.018 1.583-.015 2.373v.001c.002.593.005 1.186-.003 1.782h-1.409c0-.429.002-.857.004-1.286.004-.857.008-1.714-.004-2.57.018-.758-.95-1.057-1.514-.723a2.506 2.506 0 0 1-.057.037l-.042.026c-.203.127-.447.28-.447.536-.012.88-.008 1.758-.004 2.643.002.444.004.89.004 1.337h-1.409v-5.724h.969l.246.476Z"/><path fill-rule="evenodd" d="M63.337 14.336c1.04-1.216 2.994-1.339 4.244-.37.81.634 1.11 1.778.81 2.747h-4.314c.053.563.37 1.11.898 1.285.74.265 1.655.194 2.307-.334l.172.324c.125.234.254.475.374.715-.828.563-1.867.616-2.835.528-.951-.088-1.885-.757-2.202-1.708-.352-1.057-.229-2.342.546-3.187Zm1.69.21c-.492.16-.774.652-.897 1.146h2.958c-.088-.37-.176-.74-.493-.969-.44-.317-1.057-.335-1.567-.176ZM77.25 13.649a4.565 4.565 0 0 1 3.169-.088c.599.211 1.004.792 1.11 1.409.123.585.12 1.17.118 1.756-.002.418-.004.837.04 1.255.035.352.194.669.44.898-.246.37-.704.44-1.11.352-.31-.086-.486-.36-.642-.602l-.009-.014c-.387.44-1.004.616-1.567.651-.617.018-1.268-.105-1.726-.563-.475-.476-.546-1.25-.352-1.884.194-.634.775-1.04 1.391-1.25a4.584 4.584 0 0 1 2.13-.142c-.052-.352-.193-.722-.545-.845-.687-.264-1.48-.158-2.148.106a17.892 17.892 0 0 1-.3-1.04Zm1.161 3.046c-.493.3-.528 1.215.053 1.427.476.14 1.074.123 1.48-.23.3-.3.298-.728.296-1.143 0-.095 0-.19.003-.283-.617-.088-1.303-.105-1.832.23Z" clip-rule="evenodd"/><path d="M83.818 13.913c.88-.845 2.395-.757 3.31 0 .828-.687 2.114-.81 3.012-.229.528.352.792 1.004.775 1.62.011.856.007 1.711.003 2.572-.002.433-.004.867-.004 1.302h-1.408v-3.504c0-.352-.053-.757-.335-1.004-.528-.405-1.374-.229-1.726.335-.02.794-.017 1.583-.014 2.373.002.593.004 1.186-.003 1.783h-1.41a93.877 93.877 0 0 1-.002-1.653c.003-.735.005-1.47-.015-2.204 0-.757-.968-1.056-1.532-.722l-.098.063c-.203.127-.448.28-.448.536v3.98h-1.409v-5.724h.97c.14.159.246.317.334.476ZM96.004 13.948c.687-.687 1.778-.757 2.659-.475.792.264 1.32 1.056 1.356 1.902.02.724.017 1.448.014 2.172v.001c-.002.544-.004 1.087.004 1.63h-1.41v-3.38c0-.441-.105-.952-.51-1.18-.651-.335-1.444-.124-1.937.37-.012.927-.008 1.854-.004 2.782.002.463.004.927.004 1.39H94.77v-5.723h1.022c.052.177.123.335.21.511ZM35.584 13.438h2.201v5.723h-1.426v-4.632h-.775c.011-.234.008-.476.004-.72a22.895 22.895 0 0 1-.004-.371ZM50.447 13.438h2.2v5.723h-1.426v-4.632h-.774v-1.091ZM91.478 13.438h2.201v5.723H92.27v-4.632h-.774c-.018-.37-.018-.722-.018-1.091ZM71.05 12.011c.846-.651 1.973-.863 3.03-.792.704.052 1.39.299 1.972.757-.106.185-.207.374-.309.563-.1.19-.202.379-.308.564-.704-.476-1.55-.793-2.395-.581-.915.158-1.637.95-1.831 1.849-.194.863-.159 1.831.317 2.606.687 1.127 2.342 1.427 3.416.687v-1.55h-1.144v-1.197h2.606v3.522c-.88.616-1.972.845-3.011.845-1.022.018-2.114-.335-2.8-1.127-.916-.969-1.145-2.395-.951-3.698a3.729 3.729 0 0 1 1.408-2.448Z"/><path fill-rule="evenodd" d="M29.79 11.324c.325-.007.648-.02.97-.032.48-.02.958-.038 1.443-.038.704.017 1.444.14 2.007.581.546.44.757 1.215.564 1.884-.141.476-.546.775-.951 1.004.546.194 1.074.546 1.303 1.092.334.775.282 1.76-.317 2.395-.616.669-1.532.933-2.395.933-.588.012-1.183.008-1.776.004h-.002c-.295-.002-.589-.004-.881-.004l.035-7.819Zm1.462 1.127v1.867c.075.002.152.006.23.01.48.021.985.044 1.425-.168.581-.265.67-1.216.106-1.533-.416-.221-.896-.203-1.374-.185-.13.005-.26.01-.387.01Zm0 2.976V18l.11.006c.582.034 1.175.069 1.721-.13.969-.3 1.004-2.007.035-2.307-.513-.186-1.081-.167-1.644-.148l-.222.007Z" clip-rule="evenodd"/><path d="M35.601 11.342h2.184v1.233h-2.201c0-.203.004-.41.008-.616.005-.208.01-.415.01-.617ZM44.142 11.324h5.847v1.25h-1.744v6.587h-1.479v-6.586h-2.624v-1.25ZM50.447 12.575v-1.233h2.183v1.233h-2.183ZM91.496 11.342h2.2v1.233h-2.183c-.017-.405-.017-.828-.017-1.233Z"/></g><defs><clipPath id="a"><path fill="#fff" d="M.082.001h105.836v28H.082z"/></clipPath></defs></svg>