<svg xmlns="http://www.w3.org/2000/svg" width="112" height="28" fill="none"><path fill="#00AB55" fill-rule="evenodd" d="M55.785 9.784V3.375a.589.589 0 0 0-.597-.578h-.845c-.13 0-.254.04-.357.115l-.972.705-1.64 1.19a.568.568 0 0 0-.239.461v1.449c1.165.365 2.212.952 3.07 1.738l1.58 1.329Zm19.603-6.87-2.61 1.894a.57.57 0 0 0-.239.462v14.722c0 .32.267.578.597.578h3.455c.33 0 .598-.259.598-.578V3.375a.587.587 0 0 0-.598-.577h-.844c-.13 0-.256.04-.359.115Zm17.783 5.163v11.902a.587.587 0 0 1-.596.577h-2.6a.598.598 0 0 1-.552-.355l-.244-.569c-1.106.866-2.505 1.366-4.073 1.366-4.127 0-7.077-2.913-7.077-6.971 0-4.044 2.95-6.922 7.077-6.922 1.59 0 3.01.514 4.125 1.404l.316-.672a.599.599 0 0 1 .544-.338h2.484c.329 0 .596.26.596.578Zm-4.422 5.96c0-1.694-1.28-2.967-3.022-2.967-1.752 0-3.021 1.273-3.021 2.968 0 1.704 1.28 2.977 3.021 2.977 1.742 0 3.022-1.273 3.022-2.977Zm19.536-6.524c.43 0 .719.428.546.81l-5.29 11.666c-1.82 3.997-3.493 5.44-6.978 5.44h-.995a.587.587 0 0 1-.597-.577v-2.71c0-.319.268-.577.597-.577h.681c1.78 0 2.316-.448 2.945-2.073L93.996 8.328c-.178-.382.111-.814.545-.814h3.718c.247 0 .47.148.557.37l2.719 6.822 2.527-6.81a.595.595 0 0 1 .562-.383h3.661ZM61.243 21.364v3.488a.587.587 0 0 1-.597.577h-.845a.605.605 0 0 1-.357-.115l-2.5-1.814-.006-.004-.002-.002-.104-.075a.57.57 0 0 1-.238-.462V18.3l1.58 1.327a8.09 8.09 0 0 0 3.07 1.738Zm2.919-14.279c-3.203 0-5.753 1.54-6.903 3.94l4.01 3.37a3.324 3.324 0 0 1-.019-.354c0-1.725 1.216-2.916 2.912-2.916.898 0 1.662.337 2.182.91a2.6 2.6 0 0 1 .14.168l.028.036.039.056.001.002.019.027.019.027.031.05a1.912 1.912 0 0 1 .057.094l.01.017.01.017.032.06.01.02.01.02.032.066.01.02.008.018.008.018.031.072.01.02.006.018.007.016c.013.033.025.067.036.101l.005.015.005.015c.013.037.024.073.035.11l.002.006.002.007.002.006.002.007.03.12.003.01v.003l.002.006c.01.043.02.087.028.132l.002.008v.003c.037.196.055.402.055.615 0 1.725-1.216 2.916-2.91 2.916-.9 0-1.502-.369-2.186-.907l-8.329-7.002c-1.343-1.235-3.236-1.963-5.432-1.963-4.4 0-7.568 2.91-7.568 6.957 0 1.759.602 3.305 1.645 4.491l.004.004.002.003.003.003a2.788 2.788 0 0 0 .06.066c.02.02.04.043.06.065l.002.003.002.002.003.003.001.002c1.353 1.445 3.386 2.315 5.786 2.315 3.19 0 5.744-1.546 6.898-3.941l-4.004-3.364c.01.113.018.23.018.35 0 1.724-1.216 2.916-2.91 2.916-.901 0-1.666-.336-2.185-.91a2.822 2.822 0 0 1-.155-.187l-.002-.003-.004-.005a1.192 1.192 0 0 1-.056-.08l-.023-.034a.948.948 0 0 1-.028-.044l-.008-.014-.008-.011-.028-.046a1.278 1.278 0 0 1-.038-.066l-.014-.026-.014-.026-.011-.02-.009-.017-.015-.03-.027-.055a1.233 1.233 0 0 1-.03-.069l-.014-.028-.011-.028a1.983 1.983 0 0 1-.018-.044l-.011-.028-.006-.017-.005-.012-.01-.027a1.554 1.554 0 0 1-.026-.076l-.017-.055-.007-.024a1.23 1.23 0 0 1-.016-.058l-.014-.052a1.941 1.941 0 0 1-.017-.072l-.004-.016v-.002l-.007-.03-.003-.014a2.577 2.577 0 0 1-.021-.117l-.003-.018-.006-.036c-.004-.025-.008-.05-.01-.074-.002-.006-.002-.014-.003-.02a3.518 3.518 0 0 1-.026-.426c0-1.726 1.216-2.916 2.91-2.916.899 0 1.572.411 2.183.91l8.33 6.998c1.224 1.125 2.905 1.83 4.86 1.946.015.002.03.002.046.003l.05.002.03.002h.028l.057.004c.02 0 .04 0 .06.002h.028l.041.002.13.002h.05l.053.001c4.386 0 7.568-2.923 7.568-6.957 0-4.048-3.182-6.957-7.568-6.957Zm-26.23-4.172-2.61 1.895a.57.57 0 0 0-.239.462v14.722c0 .32.267.578.597.578h3.456c.33 0 .597-.259.597-.578V3.375a.587.587 0 0 0-.597-.577h-.845c-.13 0-.255.04-.359.115Zm-18.87 11.128c0-4.047 3.167-6.956 7.568-6.956 4.386 0 7.568 2.909 7.568 6.956 0 4.033-3.18 6.957-7.568 6.957-4.401 0-7.569-2.923-7.569-6.957Zm7.568 2.918c1.695 0 2.911-1.19 2.911-2.917 0-1.715-1.216-2.916-2.911-2.916-1.696 0-2.912 1.19-2.912 2.916s1.216 2.917 2.912 2.917Zm-8.47-2.907c0-4.058-2.936-6.946-7.092-6.946-1.249 0-2.389.323-3.355.9v-4.63a.587.587 0 0 0-.597-.578h-.791c-.13 0-.255.04-.359.115l-2.61 1.895a.57.57 0 0 0-.239.462v14.723c0 .32.267.578.597.578h2.454a.597.597 0 0 0 .546-.346l.282-.624c1.097.887 2.496 1.397 4.072 1.397 4.156 0 7.092-2.888 7.092-6.946Zm-7.714-2.978c1.742 0 3.022 1.273 3.022 2.978 0 1.69-1.292 2.964-3.022 2.964-1.741 0-3.021-1.273-3.021-2.964 0-1.705 1.28-2.978 3.021-2.978Z" clip-rule="evenodd"/></svg>