<svg xmlns="http://www.w3.org/2000/svg" width="128" height="26" fill="none"><path fill="#919EAB" fill-rule="evenodd" d="M22.045 5.548c-2.783-2.51-6.032-3.637-9.746-3.38-.036.005-.055-.008-.055-.04v-.204c-.005-.079.032-.12.11-.126 3.887-.32 7.249.806 10.085 3.38.227.206.4.448.575.69.233.325.468.65.828.894.304.2.389.13.252-.205a6.63 6.63 0 0 0-1.363-2.128C17.279-1.259 7.903-.408 3.286 5.848.024 10.26.087 16.744 3.648 21.022c5.271 6.335 16.294 6.232 20.604-1.56.068-.126.042-.226-.08-.3l-.165-.102c-.026-.015-.05-.01-.07.016-2.31 3.207-6.288 5.113-10.164 4.097-4.649-1.218-7.351-4.323-8.108-9.313-.015-.094.024-.155.119-.18l.197-.056a.055.055 0 0 1 .046.007.054.054 0 0 1 .024.04c1.15 6.335 7.044 10.384 13.127 7.863 1.334-.556 1.286-.727-.142-.512-4.822.733-8.588 0-10.889-4.16-2.15-3.908-.953-8.083 2.647-10.44.475-.308.998-.516 1.516-.722.566-.225 1.127-.448 1.612-.798.363-.257.323-.365-.118-.323-8.666.804-11.723 11.062-5.247 16.656.005.005.005.008 0 .008l-.126.157c-.074.09-.158.098-.252.024-5.46-4.2-5.878-11.676-.26-15.986 4.25-3.262 8.89-3.054 13.922.622.036.027.07.021.102-.015l.134-.174a.233.233 0 0 0 .047-.165.248.248 0 0 0-.079-.158ZM9.518 23.425c-.698-.515-.654-.59.134-.228.904.42 1.783.69 2.64.811.063.01.1.047.11.11a.136.136 0 0 1-.008.08c-.01.041-.037.062-.079.062-1.019.063-1.951-.215-2.797-.835Z" clip-rule="evenodd"/><path fill="#919EAB" d="M9.999 14.821c-1.45-6.295 6.059-10.565 10.66-5.728.079.079.152.076.22-.008l.15-.181c.079-.1.076-.194-.008-.284-1.86-1.996-4.12-2.802-6.784-2.418-8.666 1.244-7.421 15.072 1.955 14.016 2.458-.273 4.23-1.44 5.318-3.498.02-.037.015-.071-.016-.103l-.158-.126c-.026-.02-.05-.018-.07.008-2.543 2.968-5.313 3.643-8.313 2.025-1.602-.861-2.587-2.096-2.954-3.703ZM121.586 19.493c1.665.557 3.314.213 4.948-1.032.284-.22.452-.152.504.205.11.78-.283 1.442-1.048 1.63-.331.082-.641.178-.941.271-.843.262-1.618.503-2.628.329-3.934-.683-6.035-2.9-6.303-6.65-.41-5.807 4.767-8.25 9.707-6.894.362.1.654.3.874.599.242.33.347.704.316 1.119-.016.189-.103.23-.26.126-2.711-1.868-6.233-1.513-8.218 1.11-2.561 3.388-.867 7.871 3.049 9.187ZM27.75 20.219l-.032-5.783a.26.26 0 0 1 .26-.26l7.532-.048a.26.26 0 0 1 .26.26l.055 5.775a.26.26 0 0 0 .245.26l.772.04a.26.26 0 0 0 .276-.26L37.11 7.439a.26.26 0 0 0-.26-.26H36.1a.26.26 0 0 0-.26.26l-.047 5.665a.26.26 0 0 1-.26.26l-7.611.055a.26.26 0 0 1-.26-.26l.016-5.736a.262.262 0 0 0-.172-.244.26.26 0 0 0-.104-.016l-.804.04a.26.26 0 0 0-.244.252l-.031 12.748a.26.26 0 0 0 .252.26l.906.016a.259.259 0 0 0 .268-.26Z"/><path fill="#919EAB" fill-rule="evenodd" d="M46.706 16.28h-3.648c-.454 0-.893.16-1.24.45-.348.291-.58.695-.659 1.14a5.515 5.515 0 0 1-.937 2.301.874.874 0 0 1-.654.363.452.452 0 0 1-.339-.103c-.178-.152-.226-.336-.142-.551l4.357-11.417c.751-1.97 1.502-1.97 2.254 0l4.451 11.63a.308.308 0 0 1-.33.41l-.49-.08a.762.762 0 0 1-.622-.496l-1.252-3.136c-.137-.336-.386-.507-.749-.512Zm-4.333-1.6a.274.274 0 0 0 .13.347c.04.02.084.032.13.03l3.813.048a.275.275 0 0 0 .26-.37l-1.844-5.043a.276.276 0 0 0-.512-.007l-1.977 4.995ZM59.69 17.736a6.073 6.073 0 0 0-1.993-2.97c-.236-.19-.226-.37.031-.544 1.844-1.229 2.577-3.23 1.592-5.09-1.308-2.458-3.97-2.198-6.28-1.97-.577.059-.866.38-.866.962l.016 11.913c0 .252.126.37.378.354l.268-.007c.042 0 .063-.024.063-.071l.189-5.256c.01-.289.163-.436.457-.44 3.514-.017 4.814 2.544 5.76 5.443a.643.643 0 0 0 .253.333c.12.08.264.118.408.109l.307-.016a.285.285 0 0 0 .23-.137.3.3 0 0 0 .022-.273 31.796 31.796 0 0 1-.835-2.34Zm-6.68-5.121v-3.42a.936.936 0 0 1 .929-.945h1.158c.453-.001.902.064 1.321.191.42.128.8.315 1.122.551.32.236.576.517.75.827.175.309.265.64.266.976v.19c.002.676-.36 1.326-1.006 1.806-.645.48-1.522.751-2.437.754h-1.158a.938.938 0 0 1-.946-.93Z" clip-rule="evenodd"/><path fill="#919EAB" d="M63.606 7.17h-.693a.307.307 0 0 0-.308.308v12.685c0 .17.138.307.308.307h.693c.17 0 .307-.137.307-.307V7.478a.307.307 0 0 0-.307-.307ZM69.198 13.954c1.396.848 2.73 1.658 3.311 3.396a.742.742 0 0 1-.079.647c-1.544 2.481-3.71 2.024-5.657.52-.289-.226-.428-.155-.417.212l.031 1.095c.01.326.176.497.497.512a4.703 4.703 0 0 1 1.97.56 1.25 1.25 0 0 0 1.016.087c.242-.08.487-.15.728-.219 1.375-.395 2.656-.763 2.951-2.539.515-3.032-2.538-4.8-4.837-6.13l-.473-.275a.863.863 0 0 1-.426-.576c-.394-1.607.24-2.7 1.9-3.277.278-.095.553-.087.826.023l2.403.954c.505.2.654.047.45-.457l-.229-.575c-.184-.463-.525-.715-1.024-.757a24.017 24.017 0 0 0-3.325-.04c-2.38.135-2.923 2.632-2.238 4.453.237.62.804 1.223 1.702 1.812.305.2.614.387.92.573ZM77.197 11.662l.024 8.564a.252.252 0 0 1-.252.252l-.686-.016c-.194-.005-.289-.105-.284-.3l.016-12.487a.62.62 0 0 1 .347-.56c.389-.189.677-.089.867.3a416.312 416.312 0 0 1 5.034 10.873c.168.372.336.375.504.008l4.255-9.258c1.323-2.884 1.988-2.74 1.993.433l.016 10.755c0 .168-.084.25-.252.244l-.733-.016c-.163-.005-.244-.089-.244-.252l.04-8.194c.004-1.292-.258-1.35-.789-.173l-3.687 8.194a.914.914 0 0 1-1.67 0l-3.853-8.51c-.436-.96-.651-.913-.646.143Z"/><path fill="#919EAB" fill-rule="evenodd" d="m94.68 16.271 3.987.016a.767.767 0 0 1 .71.488l1.425 3.633a.32.32 0 0 0 .226.192.314.314 0 0 0 .286-.082l.181-.166c.14-.13.237-.299.279-.486a.963.963 0 0 0-.043-.561L97.587 8.479c-.746-1.954-1.494-1.954-2.245 0L90.89 20.07c-.089.236-.008.365.245.386l.582.04c.247.015.418-.093.513-.324l1.181-3.04a1.352 1.352 0 0 1 1.269-.86Zm2.111-6.468 1.364 3.797c.084.237.2.46.346.67l.15.22c.236.347.142.52-.284.52H94.72a.362.362 0 0 1-.291-.152.346.346 0 0 1-.04-.32l1.813-4.743a.315.315 0 0 1 .59.008Z" clip-rule="evenodd"/><path fill="#919EAB" d="m105.679 8.243-3.136-.055a.174.174 0 0 1-.142-.087l-.425-.725a.175.175 0 0 1 .063-.237.172.172 0 0 1 .086-.023l8.848.04a.173.173 0 0 1 .165.117.172.172 0 0 1 .009.072l-.04.472a.171.171 0 0 1-.165.158l-3.569.268a.175.175 0 0 0-.158.173l.032 11.944a.17.17 0 0 1-.057.129.173.173 0 0 1-.132.045l-1.025-.087a.173.173 0 0 1-.157-.173l-.024-11.858a.171.171 0 0 0-.051-.123.171.171 0 0 0-.122-.05ZM113.188 7.124h.031c.209 0 .379.168.38.377l.043 12.543a.378.378 0 0 1-.376.38h-.032a.377.377 0 0 1-.379-.378l-.044-12.543a.378.378 0 0 1 .377-.379Z"/></svg>