<svg xmlns="http://www.w3.org/2000/svg" width="144" height="28" fill="none"><g clip-path="url(#a)"><path fill="#919EAB" fill-rule="evenodd" d="m12.063 6.726-4.16-.01c-.366 0-.42-.13-.163-.387L13.094.998A1.85 1.85 0 0 1 14.4.459c.49 0 .96.194 1.309.539l5.465 5.432c.172.171.137.26-.106.263-.416.005-.85 0-1.29-.007-3.268-.046-6.923-.097-6.903 4.453.008 1.662-.01 3.258-.05 4.788-.145 5.629 3.827 5.42 8.042 5.197l.111-.005c.37-.023.424.098.163.364l-5.477 5.448c-.33.329-.777.514-1.242.514a1.75 1.75 0 0 1-1.239-.514L1.39 15.132a1.737 1.737 0 0 1 .01-2.464l3.014-2.962a.728.728 0 0 1 .52-.219l4.43-.078a3.222 3.222 0 0 0 2.313-.986c.362-.362.618-.62.767-.773.612-.616.485-.924-.38-.924Zm10.998 2.75h.001l.806.011a.75.75 0 0 1 .51.213l3.046 2.962a1.79 1.79 0 0 1 .402 1.97c-.091.22-.226.418-.396.584l-3.058 2.99a.765.765 0 0 1-.554.224l-5.959-.016c-1.165-.004-1.758-.587-1.78-1.748a129.943 129.943 0 0 1 0-5.392c.022-1.094.556-1.675 1.601-1.742 1.754-.112 3.576-.084 5.38-.057Zm-1.173 1.722a.162.162 0 0 0-.162-.163l-1.243-.004a.162.162 0 0 0-.163.161l-.005 1.244a.161.161 0 0 0 .1.15c.02.008.04.012.062.013l1.244.004a.163.163 0 0 0 .162-.162l.005-1.243Zm-.005 2.628a.223.223 0 0 0-.224-.224l-1.12.002a.225.225 0 0 0-.224.225l.005 2.822a.223.223 0 0 0 .224.224l1.12-.002a.223.223 0 0 0 .207-.139.225.225 0 0 0 .017-.086l-.005-2.822Zm14.546 2.23c-.825.004-1.24-.407-1.243-1.232v-1.938c-.004-.836.412-1.254 1.248-1.254h3.758c.086 0 .129-.041.129-.123l.028-1.848a.162.162 0 0 0-.151-.163c-2.252-.15-4.021-.093-5.31.168-2.53.521-2.362 3.386-2.24 5.467.009.134.016.264.023.39.164 3.125 3.36 3.016 5.842 2.932.58-.02 1.12-.038 1.573-.014a.228.228 0 0 0 .227-.137.229.229 0 0 0 .019-.092V16.24a.184.184 0 0 0-.185-.185H36.43Zm10.231-4.178v6.345a.19.19 0 0 1-.19.19l-2.156.006a.19.19 0 0 1-.19-.19l.005-6.345a.19.19 0 0 0-.19-.19l-2.448.01a.191.191 0 0 1-.19-.195l.033-1.87a.19.19 0 0 1 .19-.186h7.74a.19.19 0 0 1 .19.19v1.866a.19.19 0 0 1-.19.19l-2.414-.011a.19.19 0 0 0-.19.19Zm7.767-2.408h2.184c.115 0 .207.093.207.208V18.2a.207.207 0 0 1-.207.207h-2.184a.207.207 0 0 1-.207-.207V9.678c0-.115.093-.208.207-.208Zm10.433 5.337V9.655c0-.138.069-.207.207-.207l2.01.022c.202 0 .303.103.303.308l.006 8.283a.353.353 0 0 1-.353.353H63.98a.511.511 0 0 1-.504-.33l-2.067-4.7c-.186-.425-.28-.404-.28.062l.017 4.76a.213.213 0 0 1-.213.213l-2.122.006c-.168 0-.252-.084-.252-.252V9.846c0-.25.125-.376.375-.376l3.007-.005a.47.47 0 0 1 .476.313l2.196 5.08c.164.384.246.367.246-.05Zm8.977 3.433-.006-6.35a.191.191 0 0 1 .19-.191l2.325-.017a.19.19 0 0 0 .184-.19l-.033-1.854a.19.19 0 0 0-.19-.185l-7.622.012a.19.19 0 0 0-.19.19v1.848a.19.19 0 0 0 .19.19h2.285a.19.19 0 0 1 .19.19v6.34a.19.19 0 0 0 .19.19l2.296.017a.19.19 0 0 0 .19-.19Zm6.518-2.145 3.803.017a.224.224 0 0 1 .224.224l.016 1.854a.224.224 0 0 1-.224.224h-6.372a.224.224 0 0 1-.224-.224l.028-8.518a.224.224 0 0 1 .224-.224l6.25.028a.224.224 0 0 1 .223.224l.011 1.758a.224.224 0 0 1-.224.224l-3.724.017a.224.224 0 0 0-.218.219l-.011.873a.223.223 0 0 0 .224.23h2.497a.224.224 0 0 1 .224.224l-.01 1.394a.224.224 0 0 1-.225.224l-2.48-.011a.224.224 0 0 0-.225.218l-.01.796a.223.223 0 0 0 .223.23Zm7.515 2.212.017-2.458c0-.422.135-.47.403-.146l2.072 2.47c.135.16.308.242.521.246l2.285.017a.246.246 0 0 0 .19-.404L91.55 15.82c-.135-.164-.103-.281.095-.352 1.766-.642 2.382-2.026 1.848-4.15-.31-1.22-1.182-1.839-2.615-1.853a222.827 222.827 0 0 0-5.242.005c-.224 0-.336.112-.336.336l.006 8.36c0 .162.08.242.24.242l2.201.022a.123.123 0 0 0 .123-.123Zm-.061-5.034.011-1.3a.168.168 0 0 1 .168-.168l1.988.017c.245.002.479.082.65.221.173.14.27.328.268.524v.157a.613.613 0 0 1-.072.283.75.75 0 0 1-.201.238.964.964 0 0 1-.302.159 1.125 1.125 0 0 1-.354.053l-1.988-.017a.168.168 0 0 1-.168-.167Zm11.693-.661a.264.264 0 0 0-.488-.006l-2.413 5.622a.119.119 0 0 1-.067.068c-.366.149-1.199.177-2.498.084-.067-.008-.086-.041-.056-.101l3.802-7.991a1.64 1.64 0 0 1 1.489-.939 1.653 1.653 0 0 1 1.491.944l3.701 7.79a.226.226 0 0 1-.014.222.242.242 0 0 1-.199.109h-6.092c-.27 0-.35-.124-.241-.37l.565-1.26a.424.424 0 0 1 .415-.27l1.809.006c.298 0 .39-.14.274-.42l-1.478-3.488Zm8.433 3.438c-.791 0-1.187-.396-1.187-1.187l-.006-2.022c0-.806.404-1.21 1.21-1.21l3.802.006c.097 0 .146-.048.146-.145v-1.82a.212.212 0 0 0-.213-.213c-1.336 0-2.697.004-4.082.011-2.124.015-3.25 1.055-3.377 3.12-.151 2.469-.325 5.644 2.783 5.784 1.557.071 3.129.079 4.715.023.116-.004.174-.064.174-.18v-1.97a.193.193 0 0 0-.124-.182.212.212 0 0 0-.078-.015h-3.763Zm10.203-4.172v6.362c0 .05-.02.099-.055.135a.193.193 0 0 1-.135.055l-2.234-.01a.192.192 0 0 1-.191-.191l.006-6.34a.183.183 0 0 0-.015-.072.177.177 0 0 0-.041-.062.196.196 0 0 0-.135-.056l-2.402-.017a.19.19 0 0 1-.135-.055.193.193 0 0 1-.055-.135l.011-1.837a.19.19 0 0 1 .19-.19l7.723-.017c.05 0 .099.02.134.056a.19.19 0 0 1 .056.134l.011 1.876a.19.19 0 0 1-.19.19l-2.352-.016a.19.19 0 0 0-.191.19Zm3.708-2.413h2.24c.08 0 .145.065.145.146v8.668c0 .08-.065.146-.145.146h-2.24a.146.146 0 0 1-.146-.146V9.611c0-.08.065-.146.146-.146Zm8.176 6.17c.089.292.179.294.268.006l1.876-5.97c.045-.141.142-.212.292-.212l2.581.011c.112 0 .15.052.112.157l-2.917 8.518c-.064.182-.195.274-.392.274l-3.316-.006a.353.353 0 0 1-.364-.257l-3.04-8.585c-.023-.071.003-.107.078-.107l2.822-.005c.068 0 .111.032.129.095l1.871 6.082Zm8.556.27.017-.863a.2.2 0 0 1 .059-.135.198.198 0 0 1 .137-.055h2.537a.195.195 0 0 0 .141-.06.2.2 0 0 0 .055-.142l-.017-1.434a.2.2 0 0 0-.059-.14.194.194 0 0 0-.142-.056l-2.526.012a.197.197 0 0 1-.139-.058.199.199 0 0 1-.057-.138l-.011-.952a.195.195 0 0 1 .196-.196l3.785.022a.195.195 0 0 0 .196-.196l.006-1.86a.199.199 0 0 0-.057-.138.197.197 0 0 0-.139-.057h-6.311a.195.195 0 0 0-.196.196v8.562a.195.195 0 0 0 .196.196l6.395.006a.197.197 0 0 0 .196-.196l-.006-1.926a.195.195 0 0 0-.196-.197l-3.864.006a.195.195 0 0 1-.182-.125.201.201 0 0 1-.014-.076Z" clip-rule="evenodd"/></g><defs><clipPath id="a"><path fill="#fff" d="M.88.001h142.24v28H.88z"/></clipPath></defs></svg>