<svg xmlns="http://www.w3.org/2000/svg" width="150" height="26" fill="none"><g fill="#919EAB" clip-path="url(#a)"><path d="M12.22.001h1.836c4.426.485 7.815 2.591 10.167 6.317.366.581.713 1.315 1.042 2.2-.07.073-.081.18-.035.32-.318-.834-.55-1.389-.695-1.663-.282-.53-.712-1.194-1.292-1.993a3.687 3.687 0 0 0-.526-.582c-.505-.451-.936-.934-1.497-1.338-.397-.282-.798-.565-1.203-.848-1.031-.722-2.23-1.298-3.459-1.591-.66-.156-1.333-.356-2-.404a5.864 5.864 0 0 1-.893-.137c-.45-.106-1.152-.092-1.595.056-.37.125-.758.05-1.157.135-1.086.234-2.175.488-3.268.76A14.3 14.3 0 0 1 12.22 0Z"/><path d="M25.23 8.839c.58 1.843.734 3.747.46 5.714-.17.353-.394.646-.672.88a.434.434 0 0 0-.117.151l-1.574 3.355c-.539.809-.896 1.303-1.072 1.483a79.296 79.296 0 0 0-2.826 3.06 1.38 1.38 0 0 0-.393.377c-.082.074-.148.103-.196.085a.078.078 0 0 1-.046-.051.078.078 0 0 1 .013-.068 9.698 9.698 0 0 0 1.658-3.11c.43.174.671.066.725-.324.052-.38.084-.592.096-.636.379-1.53.02-3.264-.699-4.628-.929-1.76-2.379-3.014-4.35-3.76-.242-.094-.517-.097-.825-.01-.166.048-.29.178-.37.39.132.625.63 1.153 1.493 1.585.246.122.586.426 1.022.913-.045.032-.091.025-.14-.021a.13.13 0 0 0-.052-.03c-.026-.006-.043 0-.05.02a.119.119 0 0 0 .027.137 7.188 7.188 0 0 1 1.681 2.93c.162.544.114 1.086.21 1.64a.261.261 0 0 0 .126.18.232.232 0 0 0 .211.007.375.375 0 0 0 .108-.113.408.408 0 0 0 .06-.139c.06-.281.125-.57.196-.865l-.01.838-.127.543a.256.256 0 0 1-.106.158c-.404.293-.65.528-.737.707-.192.401-.39.82-.592 1.259a8.258 8.258 0 0 1-2.594 2.537c-1.369.855-3.846.564-5.354.188-.412-.103-.99-.307-1.733-.612a60.743 60.743 0 0 0-1.714-.67.406.406 0 0 1-.018-.12.179.179 0 0 1 .226-.046c.572.31 1.034.455 1.71.47.92.02 1.535.015 1.843-.013 1.018-.09 2.083-.364 3.195-.823.419.133.912-.057 1.479-.57.758-.687 1.327-1.364 1.705-2.032a.141.141 0 0 0-.014-.173c-.18-.215-.372-.354-.578-.418l.189-.624a.882.882 0 0 1 .214-.181c.043-.024.08-.017.11.02a.125.125 0 0 1 .027.059.121.121 0 0 0 .076.09.128.128 0 0 0 .118-.013.46.46 0 0 0 .202-.35c.076-.632.25-1.468-.206-1.953a.104.104 0 0 0-.131-.017.105.105 0 0 0-.034.034l-1.938 3.116a1.291 1.291 0 0 0-.43.518c-.119.166-.242.267-.371.301-.078.023-.094 0-.05-.068.545-.817.996-1.668 1.352-2.555 1.162-1.349 1.158-2.63-.012-3.843a3.181 3.181 0 0 0-.912-.67c-.571-.277-1.237-.589-1.838-.297a.228.228 0 0 0-.123.254.226.226 0 0 0 .044.09l.996 1.247c.056.052.092.148.108.287.024.116.012.21-.035.28a.136.136 0 0 1-.178.046.135.135 0 0 1-.049-.045c-.31-.483-.664-.968-1.06-1.457-.41-.505-1.111-.497-1.702-.54-.687-.052-1.184.582-1.5 1.108a.198.198 0 0 0-.004.21.2.2 0 0 1 .01.192.356.356 0 0 1-.166.168c-.88.434-1.887.813-3.024 1.136-.811.23-1.616.601-2.089 1.202a.29.29 0 0 0-.064.185v.113c0 .098.048.146.146.143.205-.003.328.07.368.22.098.372.265.582.499.629l.41.393a4.85 4.85 0 0 1-1.64-.738.367.367 0 0 0-.17-.065 4.01 4.01 0 0 1-1.217-.347c-.247-.115-.534-.366-.86-.751a18.193 18.193 0 0 0-.797-.874l.106-.628c.013-.089.05-.1.11-.033l.233.258c-.053.292.037.51.27.653.157.097.284.055.383-.125.025-.047.05-.046.075.002.014.026.009.05-.015.069a.074.074 0 0 0-.017.09c.005.01.012.018.021.024.061.044.127.05.198.017.193-.089.363-.207.512-.356a11.661 11.661 0 0 0 1.533-1.93.303.303 0 0 0-.038-.372l-.44-.454c.198-.69.412-1.378.644-2.061.13-.386.352-.709.664-.97.257-.214.634-.467 1.129-.757.521.429 1.012.222 1.473-.622.09-.165.16-.336.208-.513a.883.883 0 0 1 .303-.47.222.222 0 0 1 .185-.046c.369.066.733.07 1.06-.15.36-.244.611-.524.754-.84-.04.477.173.769.639.876.162.037.277-.02.345-.173.128-.291.3-.55.518-.774 1.043-.797 1.745-1.857 2.107-3.18.02-.07.042-.072.067-.004.088.235.108.505.06.809l-.52 1.406a.157.157 0 0 1-.042.062l-1.836 1.712c-.146.284-.217.495-.213.632l-.08.009c-.084.01-.1.05-.05.116.2.27.447.36.74.266a9.827 9.827 0 0 0 1.32-.53c.389-.187.781-.553 1.178-1.098.157-.214.361-.43.614-.65a.197.197 0 0 1 .18-.04c.274.067.481.209.622.424.034.05.077.086.131.11.064.029.114.072.148.129a.352.352 0 0 0 .241.164.307.307 0 0 0 .143-.012.292.292 0 0 0 .12-.075c.066-.067.167-.076.303-.027l-1.514.894a.181.181 0 0 0 .065.335l.771.118c-.194.188-.453.25-.778.188a.15.15 0 0 0-.118.025.822.822 0 0 1-.05.029c-.096.057-.095.112.002.166.35.2.697.275 1.044.225a6.826 6.826 0 0 0 1.91-.566c.43.089.86-.124 1.293-.638a.17.17 0 0 1 .268.008l.535.722a.087.087 0 0 0 .14.003.088.088 0 0 0 .018-.05l.015-.234c.197.18.456.374.778.582.782.504 1.154.175 1.911-.056a.165.165 0 0 0 .087-.06c.032-.045.04-.084.021-.119.082-.01.165-.019.25-.027.058-.007.158.103.3.33-1.642.42-2.686.62-3.131.602a3.339 3.339 0 0 0-1.441.272.195.195 0 0 0-.106.246.19.19 0 0 0 .056.079c.116.097.329.155.638.175-.154.163-.246.304-.276.422-.032.129.047.235.239.318A3.42 3.42 0 0 0 21.92 11c.441-.096.71-.166.803-.21.311-.148.432-.444.362-.886a5.23 5.23 0 0 0 .65-.558c.23-.253.3-.215.211.117a.492.492 0 0 0 .021.326c-.254.927-.188 1.813.198 2.66.039.395.168.689.387.883.192.188.281.204.266.045.166-.027.262-.11.287-.247.1-.569.107-1.252.023-2.049a6.574 6.574 0 0 0-.133-.676 3.881 3.881 0 0 1-.098-.69c-.001-.02-.006-.02-.012-.002-.003.008-.009.011-.017.01-.014 0-.022-.007-.025-.02-.872-3.757-3.723-6.944-7.307-8.34-.357-.138-.81-.279-1.36-.422-.672-.173-1.135-.28-1.39-.32a10.981 10.981 0 0 0-4.495.237c-2.604.617-4.762 1.96-6.473 4.031-.542.556-.946 1.131-1.212 1.726-.27.318-.486.66-.647 1.026a.483.483 0 0 0-.044.206.296.296 0 0 1-.1.229.191.191 0 0 0-.054.19.234.234 0 0 1-.054.228.42.42 0 0 0-.098.187l-.305 1.3a1.636 1.636 0 0 0-.194.64c-.183.353-.3.728-.35 1.126-.01.076.019.093.084.052.219-.139.375-.34.468-.605 0-.004.003-.007.006-.009a.013.013 0 0 1 .01 0c.003 0 .006.002.007.005a.013.013 0 0 1 .002.01 2.87 2.87 0 0 1-.125.437c-.133.361-.49.461-.587.823-.03.118-.06.118-.089 0l-.104-.424v-.13c.485-4.891 2.89-8.45 7.213-10.674C8.738.961 9.827.707 10.913.473c.4-.085.786-.01 1.157-.135.443-.148 1.146-.162 1.595-.056.298.07.596.115.892.137.668.048 1.342.248 2.001.404 1.23.293 2.428.869 3.46 1.59.404.284.805.567 1.201.85.562.403.993.886 1.498 1.337.196.175.371.369.526.582.58.799 1.01 1.463 1.292 1.993.146.274.377.83.695 1.664Zm-19.69 4.16c-.073-.036-.131-.12-.174-.25-.06-.179-.146-.202-.258-.068a.358.358 0 0 0 .106.545c.482.257 1.148-.156 1.51-.5.244-.228.47-.452.676-.671.13-.138.138-.276.023-.416a.18.18 0 0 0-.17-.07l-.284.034c.161-.315.348-.57.56-.767a.248.248 0 0 0-.106-.42c-.474-.125-1.479.41-1.722.827a.7.7 0 0 0-.077.412A4.9 4.9 0 0 1 5.54 13Zm19.319 1.126a.243.243 0 0 0 .023-.203.343.343 0 0 0-.36-.227.262.262 0 0 0-.101.036.23.23 0 0 0-.072.072.243.243 0 0 0-.024.203.327.327 0 0 0 .14.178c.034.021.07.036.108.045a.31.31 0 0 0 .113.004.261.261 0 0 0 .1-.036.229.229 0 0 0 .073-.072Z"/><path d="M24.818 13.377c.028-.983.007-1.658-.063-2.026-.243-1.297-.545-2.395-.904-3.292-.384-.961-.985-1.91-1.802-2.846-1.931-2.211-4.35-3.515-7.257-3.912-.262-.179-.49-.28-.682-.304-.347-.043-.87-.057-1.572-.043-.31.007-.683-.01-1.122-.05-.366-.035-.74-.05-1.125-.046A10.981 10.981 0 0 1 14.786.62c.255.04.718.147 1.39.32.55.143 1.004.284 1.36.422 3.584 1.396 6.435 4.583 7.307 8.34.003.013.011.02.025.02.008.001.014-.002.017-.01.006-.019.01-.018.012.002.012.237.045.467.098.69.076.329.12.554.133.676.084.798.077 1.48-.023 2.049-.025.137-.12.22-.287.247Z"/><path d="M14.792 1.301c-1.597-.137-3.44-.098-4.967.426-.682.235-1.368.416-1.994.787-.996.592-1.644 1.035-1.943 1.33-.388.382-.76.723-1.117 1.022-.41.264-.752.662-1.028 1.196a.082.082 0 0 0-.01.043c.002.014.006.028.015.04.079.114.128.062.15-.156-.023.391-.193.69-.512.897a.013.013 0 0 1-.017-.021c.16-.146.306-.31.439-.49a.053.053 0 0 0 .012-.04.057.057 0 0 0-.02-.038l-.046-.041c-.01-.007-.019-.007-.027.002l-.325.347c-.353.22-.62.54-.798.957.015-.373.16-.684.436-.932a.348.348 0 0 0 .108-.169c.071-.238.227-.538.466-.898.064-.097.132-.322.204-.674C5.53 2.819 7.687 1.475 10.291.858c.384-.004.76.011 1.125.046.439.04.812.057 1.122.05.701-.014 1.225 0 1.572.043.193.024.42.125.682.304Z"/><path d="m11.192 2.599.118.53c.024.386.028.77.013 1.153a1.67 1.67 0 0 1-.266.83 43.509 43.509 0 0 0-.922 1.54c-.143.317-.394.597-.755.841-.326.22-.69.216-1.059.15a.222.222 0 0 0-.185.046.883.883 0 0 0-.303.47 2.377 2.377 0 0 1-.208.513c-.46.844-.952 1.05-1.473.622C7.596 7.67 8.263 5.25 8.348 3.117c.012-.255.082-.273.213-.054l.251.426c.043.384.11.765.2 1.142.132.55.072 1.23-.179 2.04-.02.068.002.09.069.067.222-.078.28-.168.174-.272a5.182 5.182 0 0 0 1.022-1.614c.43-.016.668-.228.715-.637a5.262 5.262 0 0 0-.1-1.774l.038-.39c.008-.084.044-.098.108-.043.158.139.27.336.333.59Z"/><path d="M10.713 2.44c.135.598.168 1.19.1 1.775-.047.41-.285.621-.715.637a9.532 9.532 0 0 0 .615-2.411ZM11.192 2.599a.376.376 0 0 1 .145.212 6.438 6.438 0 0 1 .173 3.164c-.04.2-.16.412-.358.634-.083.093-.062.134.063.123l.098-.01c-.08.097-.168.137-.265.12a.1.1 0 0 1-.082-.115.1.1 0 0 1 .022-.047c.076-.096.138-.198.185-.308.051-.12.09-.243.114-.372a7.6 7.6 0 0 0 .023-2.87l-.118-.531Z"/><path d="M11.31 3.13A7.6 7.6 0 0 1 11.287 6a1.806 1.806 0 0 1-.114.372c-.047.11-.109.212-.185.308a.1.1 0 0 0 .06.162c.097.017.185-.023.264-.12l.325-.14c-.218.225-.39.483-.518.774-.068.152-.183.21-.345.173-.466-.107-.679-.4-.639-.876.298-.523.606-1.037.922-1.541a1.67 1.67 0 0 0 .266-.83c.015-.383.011-.767-.013-1.153ZM15.104 4.313c.06.36.045.756-.045 1.185.682.805 1.743 1.25 2.71.662.355-.216.676-.491.963-.824.353-.26.488-.23.403.09a6.18 6.18 0 0 1-2.265 1.379c-.136-.049-.237-.04-.303.027a.292.292 0 0 1-.12.075.307.307 0 0 1-.143.012.352.352 0 0 1-.24-.164.328.328 0 0 0-.149-.13.298.298 0 0 1-.13-.11 1.002 1.002 0 0 0-.622-.424.2.2 0 0 0-.181.042c-.253.219-.457.435-.614.649-.397.545-.789.91-1.177 1.098a9.827 9.827 0 0 1-1.321.53c-.293.093-.54.005-.74-.266-.05-.066-.034-.105.05-.116l.08-.009c.225.125.464.162.718.11.938-.188 1.25-.554.936-1.098a4.151 4.151 0 0 0 1.516-1.978c.254-.104.346-.456.277-1.056l.069-.776c.008-.089.023-.09.045-.004l.283 1.096ZM8.812 3.49c.458.892.546 1.884.264 2.976.106.104.048.194-.174.272-.067.024-.09.001-.069-.066.251-.812.31-1.492.179-2.04a9.412 9.412 0 0 1-.2-1.143Z"/><path d="M14.43 5.053c.254-.104.346-.456.277-1.056l-.277 1.056ZM13.87 4.207c.213.761.037 1.462-.527 2.103-.233.263-.467.54-.701.83-.3.24-.69.323-1.17.247l1.837-1.712a.157.157 0 0 0 .042-.062l.52-1.406ZM15.104 4.313c.053-.003.08.068.081.214.082.13.13.264.142.4a.218.218 0 0 1-.06.178.93.93 0 0 0-.208.393c.09-.43.105-.825.045-1.185Z"/><path d="M15.185 4.527c.073-.015.122.01.15.077.637 1.487 1.985 1.32 3.397.732a4.057 4.057 0 0 1-.963.824c-.967.588-2.028.143-2.71-.662a.93.93 0 0 1 .208-.393.218.218 0 0 0 .06-.179.901.901 0 0 0-.142-.399ZM4.77 4.866 3.898 5.99c-.02.218-.07.27-.15.156a.078.078 0 0 1-.013-.04c0-.015.002-.03.01-.043.275-.534.618-.932 1.027-1.196ZM3.818 4.889c-.072.352-.14.577-.204.674-.24.36-.395.66-.466.898a.348.348 0 0 1-.108.169 1.276 1.276 0 0 0-.436.932c-.12.108-.22.276-.302.505l-.295.375.599-1.827c.266-.595.67-1.17 1.212-1.726ZM20.044 5.295a.156.156 0 0 0-.156.008l.102-.252c.036-.089.062-.086.077.009a.527.527 0 0 1-.023.235Z"/><path d="M19.888 5.303c.049-.03.1-.033.156-.008l.056.224c-.019.341.032.646.152.913l.196.8a.235.235 0 0 1-.027.184c-.135.23-.118.435.05.614l-.015.235a.088.088 0 0 1-.063.078.087.087 0 0 1-.095-.032l-.534-.722a.171.171 0 0 0-.269-.009c-.432.515-.864.728-1.294.64.172-.181.334-.288.485-.321a.359.359 0 0 0 .225-.537c-.061-.1-.071-.25-.03-.45a5.024 5.024 0 0 0 1.007-1.61ZM19.135 5.426l.073.399a.261.261 0 0 1-.035.196c-.4.664-.941 1.19-1.625 1.576-.147-.04-.314.022-.503.185-.056.047-.047.075.027.083l.316.036-1.196.252-.771-.12a.18.18 0 0 1-.065-.334l1.514-.894a6.18 6.18 0 0 0 2.265-1.38Z"/><path d="m20.1 5.52.487 1.493c-.094-.068-.206-.262-.335-.58a1.927 1.927 0 0 1-.151-.914Z"/><path d="M20.252 6.432c.13.32.24.513.335.58.576 1.17 1.481 1.315 2.681 1.365.018.035.011.074-.02.119a.165.165 0 0 1-.088.06c-.757.23-1.13.56-1.911.056a5.947 5.947 0 0 1-.778-.582c-.168-.18-.185-.384-.05-.614a.235.235 0 0 0 .027-.185l-.196-.799ZM3.402 6.605l-1.55 2.508.036-.262c.17-.216.309-.477.414-.784.082-.229.182-.397.302-.505.178-.418.445-.737.798-.957ZM2.606 6.615l-.6 1.827a.75.75 0 0 1-.05-.027c-.027-.018-.046-.012-.058.018l-.293.824a.482.482 0 0 0-.083.401l-.218.323.305-1.3a.42.42 0 0 1 .098-.187.234.234 0 0 0 .054-.227.191.191 0 0 1 .054-.191.296.296 0 0 0 .1-.23.483.483 0 0 1 .044-.205c.16-.366.376-.708.647-1.026ZM18.882 6.913c-.042.2-.032.35.029.45a.357.357 0 0 1-.225.536c-.151.033-.313.14-.485.32a6.826 6.826 0 0 1-1.909.566c-.347.05-.695-.025-1.044-.225-.097-.054-.098-.11-.002-.166a.822.822 0 0 0 .05-.03c.036-.024.075-.033.118-.024.325.062.584 0 .778-.188l1.196-.251c.03.046.15-.004.356-.15l1.138-.838ZM12.914 7.031c.313.544.002.91-.936 1.099a1.018 1.018 0 0 1-.717-.11c-.005-.138.066-.349.212-.633.48.076.87-.006 1.169-.247.14-.075.23-.111.272-.109Z"/><path d="M17.548 7.597c-.245.126-.18.178.196.154-.207.146-.325.196-.356.15l-.316-.036c-.073-.008-.082-.036-.027-.083.189-.163.356-.225.503-.185ZM81.972 10.65l-.069.21c-.076-.134-.233-.245-.472-.334.068-.083-.004-.108-.218-.073l.252-.044a.034.034 0 0 0 .027-.03.034.034 0 0 0-.023-.034.443.443 0 0 0-.323.025c-.031.015-.034.012-.006-.01.054-.045.111-.056.17-.034.033.013.064.006.096-.019.053-.041.046-.068-.02-.079a1.309 1.309 0 0 0-.188-.016.157.157 0 0 0-.104.03.66.66 0 0 0-.066.06c-.113.103-.127.101-.044-.007.113-.147.271-.172.477-.075a.04.04 0 1 0 .039-.069.795.795 0 0 1-.272-.303.082.082 0 0 0-.084-.05c-.188.005-.284.094-.287.266a.134.134 0 0 1-.091.131c-.096.035-.206.014-.331-.062-.39-.812-.883-1.36-1.48-1.648-.705-.335-1.262-.512-1.671-.53-.759-.03-1.52.236-2.282.8-.235.175-.614.196-.72-.15 1.217-.72 2.53-.959 3.942-.715 1.689.292 2.938 1.212 3.748 2.76ZM93.924 12.065l-1.21.135a.137.137 0 0 1-.146-.077.11.11 0 0 1-.004-.102.18.18 0 0 1 .145-.114c.986-.173.593-1.729-.314-1.298a.355.355 0 0 1-.466-.152 8.01 8.01 0 0 0-.884-1.337c-.343-.408-1.167-.911-1.695-.992a1.861 1.861 0 0 1-.6-.2.53.53 0 0 0-.538.023 1.005 1.005 0 0 1-.466.158c-.622.048-1.51.626-1.826.992-.302.35-.596.323-.88-.083 1.697-1.438 4.285-1.579 6.18-.539 1.202.66 1.98 1.68 2.332 3.062.034.136.158.31.372.524ZM94.5 7.838l1.835.851c.053.025.11.04.17.044l.784.054 4.214 4.956.724.704a.282.282 0 0 0 .437-.059c.119-.2.053-.38-.198-.543-.09-.126-.11-.23-.06-.312a.3.3 0 0 1 .196-.139c.176-.042.261-.152.255-.333a31.48 31.48 0 0 1 .005-1.682c.022-.774.137-1.594.139-2.397a.186.186 0 0 0-.092-.166l-.657-.408c-.046-.052-.048-.11-.008-.17a.125.125 0 0 1 .074-.054.129.129 0 0 1 .092.01c.456.243.884.233 1.282-.029a.42.42 0 0 1 .208-.073 1.59 1.59 0 0 0 .78-.258c.174.025.288.133.341.325l-1.015.193a.15.15 0 0 0-.127.123c-.135.6-.204 1.034-.208 1.302-.027 1.701-.013 4.215.041 7.54.002.083-.041.259-.129.526-.041-.052-.07-.07-.087-.054a71.991 71.991 0 0 1-.926-2.542c-.164-.48-.688-.68-1.008-1.058a881.049 881.049 0 0 1-4.127-4.91c-.39-.467-.522-.282-1.042-.365a1.335 1.335 0 0 1-.462-.181 5.281 5.281 0 0 0-1.758-.628c.024-.232.133-.32.327-.267Z"/><path d="m94.5 7.838 3.147.007a2.093 2.093 0 0 1-.358.942l-.784-.054a.488.488 0 0 1-.17-.044L94.5 7.84ZM104.68 7.834a1.59 1.59 0 0 1-.78.258.42.42 0 0 0-.208.073c-.398.262-.826.272-1.282.03a.129.129 0 0 0-.092-.011.125.125 0 0 0-.074.054c-.04.06-.038.118.008.17a2.515 2.515 0 0 0-.832-.116.188.188 0 0 1-.116-.033c-.024-.016-.028-.039-.013-.07a.048.048 0 0 0 .005-.03.056.056 0 0 0-.014-.028.052.052 0 0 0-.029-.014.048.048 0 0 0-.03.006.455.455 0 0 0-.161.165.347.347 0 0 1-.116-.21.235.235 0 0 1 .235-.265l3.499.021ZM93.924 12.065c.091.07.163.175.214.312-.477.17-1.012.21-1.604.118a.094.094 0 0 0-.106.073l-.014.077a.071.071 0 0 0 .008.053c.01.015.024.026.042.03l.77.2a.141.141 0 0 1 .103.154l-.056.512c-.126.169-.247.254-.364.254a.2.2 0 0 1-.195-.157c-.043-.196-.155-.276-.335-.239a.182.182 0 0 0-.125.092l-.352.628c-.22.256-.321.45-.303.578-.151.17-.244.304-.277.404-.825 1.123-1.93 1.622-3.316 1.497a.333.333 0 0 0-.226-.029c-1.828-.434-3.006-2.2-3.035-4.018a.185.185 0 0 0-.091-.162.195.195 0 0 0-.16-.023l-1.96.068c-.428.01-.863.008-1.304-.004-.433-.012-.612-.223-.539-.632a.31.31 0 0 0-.035-.208 1.906 1.906 0 0 1-.208-.576 3.24 3.24 0 0 0-.202-.68c-.44-1.053-1.195-1.748-2.26-2.085-.524-.205-1-.204-1.432.002a.572.572 0 0 0-.366.098c-.74.226-1.28.668-1.622 1.325a.133.133 0 0 0-.007.11c.021.057.059.072.113.044l.237-.12c.116-.062.185-.027.206.103l.033.225c-.437 1.57-.408 3.112.087 4.628.954 1.832 2.055 2.155 3.301.97.294-.282.511-.617.651-1.005a5.38 5.38 0 0 0 .28-1.194c.2-.014.46.023.777.11.257.07.398-.027.424-.293l-.018-.46c-.003-.075.031-.123.104-.146.16-.05.3-.025.424.075.063.051.142.077.222.073a.78.78 0 0 1 .518.16c.053.04.081.095.086.162l.014.354-.177.391c-.113.123-.23.181-.347.173a.16.16 0 0 1-.148-.104c-.187-.436-.38-.456-.578-.06-.114.067-.152.164-.116.288a3.612 3.612 0 0 0-.668.974l-.543.672a5.05 5.05 0 0 1-1.635.79l-1.306-.002c-.366-.158-.795-.233-1.109-.453-1.235-.867-1.897-2.076-1.984-3.628a.112.112 0 0 0-.036-.075.116.116 0 0 0-.078-.03l-1.741.005c.145-.18.292-.355.44-.524.346-.387.42-.767.596-1.231.325-.87.888-1.57 1.686-2.103.106.345.485.324.72.15.763-.565 1.523-.832 2.282-.801.409.018.966.195 1.67.53.598.287 1.091.836 1.481 1.648l.302.414c.018.26.1.467.25.62a.156.156 0 0 0 .261-.071.634.634 0 0 0-.025-.43c-.029-.07-.007-.115.065-.136a.308.308 0 0 1 .143-.004c.239.088.396.2.472.335l.086.557a.175.175 0 0 1-.067.173 1.17 1.17 0 0 1-.576.25.266.266 0 0 0-.156.076.083.083 0 0 0-.027.052c-.003.068.028.113.092.136.434.156.915.194 1.445.114.236.114.481-.014.736-.383.1-.141.201-.38.304-.717a4.838 4.838 0 0 1 1.3-2.101c.284.406.578.434.88.083.316-.366 1.204-.944 1.826-.992.168-.014.323-.067.466-.158a.527.527 0 0 1 .539-.023c.194.102.394.169.599.2.528.08 1.352.584 1.695.992.302.36.597.806.884 1.337a.355.355 0 0 0 .466.152c.907-.43 1.3 1.125.314 1.298a.18.18 0 0 0-.145.114.11.11 0 0 0 .004.102c.032.059.08.084.145.077l1.21-.135Zm-6.45-3.657-.425.198c-.497.21-.888.562-1.173 1.052-.048.333-.138.582-.27.747-.248.31-.187.396.185.256.028-.011.131-.03.31-.056l.133.168.025.344a11.164 11.164 0 0 0 .141 3.37v.831c0 .082.037.14.11.175.07.032.12.082.15.152a.696.696 0 0 0 .188.243c.521.446 1.04.596 1.558.45 1.593-.028 2.217-1.438 2.354-2.807a.76.76 0 0 1 .703.127c.088.067.169.06.244-.023.181-.2.277-.444.287-.734a.552.552 0 0 1 .087-.285.154.154 0 0 0 .01-.147 1.586 1.586 0 0 1-.145-.58c-.085-1.105-.531-2.073-1.34-2.907-.328-.338-.825-.575-1.491-.71-.655-.08-1.202-.034-1.641.136Z"/><path d="M97.647 7.845c.223.17.424.363.603.578a441.654 441.654 0 0 1 4.004 4.875c.122.153.185.132.19-.064a67.386 67.386 0 0 0-.011-3.355c-.012-.419-.132-.755-.358-1.009a.378.378 0 0 0-.174-.108 1.938 1.938 0 0 1-.839-.474.455.455 0 0 1 .161-.165.048.048 0 0 1 .03-.006.052.052 0 0 1 .029.014.056.056 0 0 1 .014.028c.002.01 0 .021-.005.03-.015.031-.011.054.013.07a.188.188 0 0 0 .116.033c.3-.006.577.033.832.116l.657.408a.186.186 0 0 1 .092.166c-.002.803-.117 1.623-.139 2.397a31.48 31.48 0 0 0-.005 1.682c.006.18-.079.291-.255.333a.3.3 0 0 0-.196.14c-.05.081-.03.185.06.311a2.229 2.229 0 0 1-.848-.318c-.082-.051-.122-.028-.119.069l.004.147-4.214-4.956c.194-.28.314-.594.358-.942ZM66.482 7.95c-.39.117-.737.12-1.042.01.343-.076.69-.079 1.042-.01ZM125.8 8.038a46.849 46.849 0 0 0-1.71.006c-.028.002-.042.016-.042.042v.002c0 .03.015.044.044.046.462.01 1.242-.098 1.641.125.156.087.321.167.495.24.872.365 1.616 1.521 2.047 2.328a.124.124 0 0 0 .162.052l.304-.143a.453.453 0 0 1 .597.208c.104.208.136.434.096.678a.206.206 0 0 1-.142.173 4.574 4.574 0 0 1-.422.137c-.243.066-.261.172-.056.316.014.01.086.01.216.002.359-.022.723-.032 1.092-.029a.353.353 0 0 1 .162.237l-.36.13-1.25-.049c-.083-.003-.117.037-.102.119.018.096.077.158.177.187.189.054.374.106.556.156a.191.191 0 0 1 .133.14l.064.28-.185.66c-.523-.13-.943-.104-1.26.08a.32.32 0 0 0-.133.142l-.612 1.21-.189.217c-.386.34-.802.615-1.25.826-.458.216-.936.3-1.436.251-1.413-.134-2.441-.888-3.084-2.263-.293-.645-.443-1.234-.449-1.768-.023-.183-.123-.271-.3-.266-.487.014-1.004.031-1.552.052.064-.143.16-.273.289-.39.516-.477.556-1.09.851-1.698.614-1.26 1.67-2.057 3.168-2.388a5.928 5.928 0 0 1 2.44-.048Zm-2.149.47a.292.292 0 0 1-.085.056 2.28 2.28 0 0 0-1.506 1.205 3.381 3.381 0 0 1-.395.599c-.086.104-.123.199-.11.285.004.03.016.059.035.083a.174.174 0 0 0 .161.07.178.178 0 0 0 .084-.033c.099-.07.203-.126.314-.166.086-.032.136-.002.148.09l.1.786c-.186 1.327-.054 2.497.395 3.51.23.534.488.903.772 1.105.678.485 1.394.475 2.148-.031.375-.25.645-.56.81-.932a5.23 5.23 0 0 0 .428-1.868c.232.059.415.032.551-.079a.214.214 0 0 1 .196-.043l.264.064a.201.201 0 0 0 .229-.107.222.222 0 0 0 .021-.088c.002-1.036-.216-1.986-.656-2.848-.403-.796-.993-1.35-1.768-1.662-.725-.277-1.437-.276-2.136.004Zm-2.896 3.387c.027-.037.031-.09.01-.145a.358.358 0 0 0-.122-.154.41.41 0 0 0-.091-.051.3.3 0 0 0-.092-.022.195.195 0 0 0-.08.01.126.126 0 0 0-.056.04c-.027.038-.031.09-.01.146a.357.357 0 0 0 .122.154.41.41 0 0 0 .091.05.3.3 0 0 0 .092.022.193.193 0 0 0 .08-.01.126.126 0 0 0 .056-.04Z"/><path d="M65.44 7.96c.305.11.653.107 1.042-.01a5.694 5.694 0 0 1 1.874.448c.07.03.14.031.209.002.239-.1.336-.248.63-.254.187-.005.303.045.347.152l-.017 1.939-.058-1.79c-.001-.074-.034-.091-.098-.051l-.124.079c-.329-.039-.509.07-.54.324-.01.103-.066.143-.165.119-.19-.042-.381-.266-.583-.343-.886-.341-1.519-.513-1.899-.516-.813-.006-1.645.311-2.496.95l-.611.595a.192.192 0 0 1-.3-.041l-.241-.418c.855-.716 1.865-1.111 3.03-1.186ZM117.833 8.458l-.047 1.889-.079-1.479a.295.295 0 0 0-.194-.262.298.298 0 0 0-.254.008.222.222 0 0 0-.112.15c-.091.41-.087.804.013 1.184-.225-.594-.731-1.04-1.519-1.34-.641-.245-1.27-.281-1.889-.108.232-.198.525-.264.88-.196.017.003.029-.002.038-.014a.059.059 0 0 1 .048-.027c.127-.018.13-.048.008-.09a.861.861 0 0 0-.468-.027c-.277.063-.546.132-.805.208-.176.053-.42.175-.73.366-.372.228-.795.351-1.271.37 1.294-1.405 3.544-1.364 5.158-.615.063.029.123.025.181-.013.228-.142.387-.223.479-.24.278-.05.466.028.563.236ZM2.302 8.067a2.643 2.643 0 0 1-.414.784l.119-.41.295-.374Z"/><path d="M69.245 8.475c-.362.256-.51.573-.446.948-1.207-.954-2.463-1.236-3.766-.846-.545.12-.977.351-1.294.692l.008-.135c.004-.066-.027-.104-.093-.112l-.092-.013c.852-.639 1.684-.956 2.496-.95.38.003 1.013.175 1.9.516.2.077.392.301.582.343.1.024.155-.016.166-.119.03-.255.21-.363.539-.324ZM94.173 8.105c.644.112 1.23.321 1.758.628.17.1.325.16.462.18.52.084.653-.101 1.042.367a881.049 881.049 0 0 0 4.127 4.909c.32.378.844.578 1.008 1.058.293.855.602 1.702.926 2.542l-6.512-7.446c-.06-.068-.096-.057-.107.033-.018.142-.001.295.05.462l-.18-.483c-.014-.287-.095-.494-.242-.622a.28.28 0 0 0-.45.12c-.149.44-.02.78-.037 1.214a40.701 40.701 0 0 0-.029 3.236c.017.426-.156.695-.52.81.071-1.461.084-3.257.04-5.388-.007-.347-.139-.6-.395-.76a3.179 3.179 0 0 1-.94-.86ZM125.8 8.038c1.488.28 2.625 1.07 3.413 2.371.147.242.289.603.426 1.084.07.243.231.485.483.728-.369-.003-.733.007-1.092.03-.13.007-.202.007-.216-.003-.205-.144-.187-.25.056-.316.143-.039.283-.085.422-.137a.206.206 0 0 0 .142-.173c.04-.244.008-.47-.096-.678a.45.45 0 0 0-.597-.208l-.304.143a.124.124 0 0 1-.162-.052c-.431-.807-1.175-1.963-2.047-2.327a4.971 4.971 0 0 1-.495-.241c-.399-.223-1.179-.115-1.641-.125-.029-.002-.044-.017-.044-.046v-.002c0-.026.014-.04.042-.042a46.849 46.849 0 0 1 1.71-.006ZM54.847 8.128l.599.725a.21.21 0 0 0 .354-.045.83.83 0 0 1 .257-.319.114.114 0 0 1 .078-.022.11.11 0 0 1 .072.035l.12.133a.046.046 0 0 0 .073-.007.046.046 0 0 0 .007-.026l-.01-.119 1.067 2.484c.015.498.215.96.599 1.387-.006-.047.005-.027.033.06-.024.358.087.615.333.77l.925 2.157a1.38 1.38 0 0 0-.016.572c.014.07.048.125.104.166.23.174.478.244.744.21.36.042.587.2.678.473a4.664 4.664 0 0 1-2.758-.99.49.49 0 0 1-.18-.287 4.753 4.753 0 0 0-.462-1.255c-.109-.204-.119-.451-.194-.667a.17.17 0 0 0-.148-.123.459.459 0 0 0-.21.019c-.54.044-.739-.05-.599-.281-.076-.175.113-.281.566-.319a.1.1 0 0 0 .085-.133l-1.137-3.11c-.038-.521-.552-.536-.832-.245-.132.136-.156.27-.073.4.055.2.004.36-.154.482a.417.417 0 0 0-.125.165l-.87 2.04a.315.315 0 0 0-.006.233c.106.298.013.51-.278.634a.217.217 0 0 1-.302-.207c.008-.25-.06-.493-.206-.729l1.866-4.261Zm3.411 5.838a.217.217 0 0 0-.064-.233.134.134 0 0 0-.098-.035c-.042.002-.065-.017-.069-.059a.107.107 0 0 0-.038-.07.103.103 0 0 0-.074-.023.16.16 0 0 0-.117.064c-.029.043-.038.09-.029.142.049.24.159.44.331.603a.11.11 0 0 0 .106.024.109.109 0 0 0 .073-.08.34.34 0 0 0-.015-.2.192.192 0 0 1-.006-.133Z"/><path d="M54.847 8.128c.922-.118 1.438 0 1.55.355l.01.119a.046.046 0 0 1-.08.033l-.12-.133a.11.11 0 0 0-.072-.035.114.114 0 0 0-.078.022.83.83 0 0 0-.258.319.21.21 0 0 1-.353.045l-.6-.725ZM105.021 8.159c.116.115.169.235.16.36-.009.081-.054.126-.135.133-.394.037-.843.087-1.009.507-.117.296-.176.67-.177 1.121-.001 2.621-.003 5.175-.006 7.663 0 .074-.035.098-.104.073a.276.276 0 0 1-.167-.173c.088-.267.131-.443.129-.526-.054-3.325-.068-5.839-.041-7.54.004-.268.073-.702.208-1.302a.15.15 0 0 1 .127-.123l1.015-.193ZM113.752 8.5c-.058.007-.09.017-.097.031-.409.086-.728.275-.955.566-.087.112-.085.222.008.33.206.235.279.517.221.847a.229.229 0 0 1-.183.194l-.304.072a.142.142 0 0 0-.071.043.14.14 0 0 0-.033.076c-.032.316.061.573.279.772a.974.974 0 0 0 .422.301c.928.408 1.889.764 2.885 1.067.172.052.458.224.857.518l.231.219c.036.113.147.183.333.21a.293.293 0 0 0 .193-.04.76.76 0 0 1 .414-.11.168.168 0 0 1 .16.104c.136.294.187.634.152 1.021.012.027.007.073-.017.14-.116.404-.367.503-.753.297a.136.136 0 0 1-.077-.131.293.293 0 0 0-.004-.073c-.012-.073.001-.078.04-.014.009.016.027.015.052-.005.026-.019.029-.041.008-.066a1.182 1.182 0 0 0-.349-.296 2.5 2.5 0 0 0-.391-.857 2.715 2.715 0 0 0-1.317-.909c-1.026-.316-1.877-.623-2.552-.92-.624-.277-.977-.748-1.059-1.413a.293.293 0 0 0-.43-.22c-.146.078-.317.064-.514-.044.109-.416.293-.79.551-1.12.476-.019.899-.142 1.271-.37.31-.191.554-.313.73-.366.259-.076.528-.145.805-.208a.861.861 0 0 1 .468.027c.122.042.119.072-.008.09a.059.059 0 0 0-.048.027c-.009.012-.021.017-.038.014-.355-.068-.648-.002-.88.196ZM77.993 8.302l-1.43.002c.43-.206.907-.207 1.43-.002ZM39.413 10.513c-.235-.126-.43-.165-.582-.116-.076.025-.11.077-.1.156a.8.8 0 0 0 .297.516.12.12 0 0 1 .039.121.115.115 0 0 1-.093.085.38.38 0 0 1-.428-.196c-.697-1.16-1.531-2.1-2.856-2.54-.017-.005-.028 0-.035.017l-.019.05c-.02.054-.005.091.048.112 1.682.69 2.58 1.948 2.696 3.777.024.376-.012.738-.11 1.086a.173.173 0 0 0 .211.215l.219-.059a.663.663 0 0 1-.248.144.206.206 0 0 0-.13.13 24.48 24.48 0 0 1-.209.58.71.71 0 0 1-.243.303l.283-.74a.235.235 0 0 0-.083-.277 1.709 1.709 0 0 0-.889-.335c.154-.997.066-1.943-.264-2.837-.549-1.492-1.693-1.806-3.157-1.693-.082.005-.123.049-.123.13v6.388c0 .606.474.801 1.028.755-.463.15-.875.077-1.236-.218a.197.197 0 0 1-.075-.173c0-.03.008-.06.023-.087a.458.458 0 0 0 .048-.204c.006-2.081.01-4.183.015-6.304 0-.233-.075-.52-.186-.722a.156.156 0 0 0-.251-.03l-.47.512a.317.317 0 0 1-.427.036c-.267-.212-.56-.401-.875-.566-.263-.135-.558-.002-.735-.1a.108.108 0 0 1-.04-.04.141.141 0 0 0-.149-.085.877.877 0 0 1-.464-.079c2.607-.02 4.313-.022 5.117-.008 1.745.03 3.471.817 4.453 2.296ZM45.612 8.232c.385.24.756.461 1.112.661.415.233.72.504.914.813.095.154.225.193.389.117.396-.186.689-.201.877-.046.08.266.1.548.056.847a.248.248 0 0 1-.104.17c-.117.085-.24.078-.368-.02a.326.326 0 0 0-.183-.07l-.501-.026c-.07-.005-.116-.04-.135-.107-.307-1.05-1.004-1.678-2.093-1.886-.258-.05-.83-.024-1.718.077-.001-.086-.014-.146-.037-.181-.022-.035-.051-.042-.088-.02-.262.156-.488.339-.678.548a.196.196 0 0 1-.212.06c-.27-.078-.405-.276-.645-.388-.156-.074-.237-.052-.243.064l-1.556-.187-.044-.181a.204.204 0 0 1 .198-.252l5.059.007Z"/><path d="M45.612 8.232c1.27-.046 2.654.226 3.359 1.335-.054.08-.076.15-.067.21-.188-.155-.48-.14-.877.046-.164.076-.294.037-.39-.117-.194-.309-.498-.58-.913-.813-.356-.2-.727-.42-1.112-.661ZM131.58 8.22l1.643.94c.078.044.144.03.198-.04.299-.387.636-.596 1.011-.626a22.012 22.012 0 0 1 2.816-.02c.614.032 1.065.56 1.571-.247.108.068.177.16.208.277l-.036 1.635c-.003.139-.073.217-.21.235a.318.318 0 0 1-.114-.004.17.17 0 0 1-.131-.125l-.273-.998a.44.44 0 0 0-.299-.308 4.428 4.428 0 0 0-1.205-.192 80.338 80.338 0 0 0-2.489-.022.113.113 0 0 0-.054.014.114.114 0 0 0-.039.04.11.11 0 0 0-.014.052.1.1 0 0 0 .013.054c.116.208.218.393.225.638a32.3 32.3 0 0 1-.042 2.656.082.082 0 0 0 .007.041.082.082 0 0 0 .024.034.09.09 0 0 0 .077.021l.639-.129c.782.104 1.314-.184 1.595-.865.072-.175.148-.348.227-.518a.174.174 0 0 1 .156-.108c.138-.01.283.075.435.256-.141.952-.165 1.909-.075 2.87.012.123-.023.22-.106.29a.219.219 0 0 1-.307-.032.22.22 0 0 1-.045-.104l-.171-1.163a.322.322 0 0 0-.32-.277l-2.111.01c-.089 0-.121.043-.098.128.094.347.135.678.133 1.038a205.94 205.94 0 0 0 .056 5.69.187.187 0 0 1-.019.09.198.198 0 0 1-.232.108c-.113-.029-.191-.12-.235-.274a67.365 67.365 0 0 0-.541-1.762c-.042-.128-.138-.284-.289-.47l-.04-4.098.084-.287c.022-.077-.007-.116-.088-.116l-1.762-.002.745-.945.811.094a.209.209 0 0 0 .162-.052.205.205 0 0 0 .067-.156l-.042-1.868a.278.278 0 0 0-.079-.19c-.357-.367-.654-.593-.89-.677-.183-.067-.631-.117-1.346-.152-.117-.228-.087-.348.092-.362.223-.017.459-.024.707-.023Z"/><path d="m131.58 8.22 7.239.007c-.506.807-.957.28-1.571.248a22.012 22.012 0 0 0-2.816.019c-.375.03-.712.239-1.011.626-.054.07-.12.084-.198.04l-1.643-.94ZM140.272 8.207c.397.46.766.63 1.107.507a3.86 3.86 0 0 1 1.344-.233c.697.004 1.239.054 1.678.583a.233.233 0 0 0 .253.068.223.223 0 0 0 .078-.05c.341-.326.73-.584 1.227-.595a6.671 6.671 0 0 1 2.107.273.2.2 0 0 0 .189-.033l.627-.473.147.142.027 1.95a.256.256 0 0 1-.152.24.258.258 0 0 1-.28-.042c-.456-.403.066-1.426-.818-1.597a8.224 8.224 0 0 0-2.273-.125.12.12 0 0 0-.1.072.127.127 0 0 0-.01.064.13.13 0 0 0 .024.06l.213.28a.38.38 0 0 1 .079.242l-.019 2.08-.942.586c-.067.145-.196.266-.389.364l-1.799.059-.071-.065a.134.134 0 0 1-.041-.113.138.138 0 0 1 .068-.101c.345-.193.625-.43.838-.713.244-.028.472-.017.684.035a.306.306 0 0 0 .261-.059.297.297 0 0 0 .112-.243 31.821 31.821 0 0 1-.009-1.512.758.758 0 0 0-.143-.462.82.82 0 0 0-.416-.322c-.535-.528-2.13-.237-2.771-.035a.232.232 0 0 0-.133.112.628.628 0 0 0 .002.564c.029.063.036.13.021.197-.105.441-.362.69-.772.745-.144-.874-.126-1.69.052-2.45Z"/><path d="m140.272 8.207 8.61.047-.627.473a.2.2 0 0 1-.189.033 6.671 6.671 0 0 0-2.107-.273c-.497.01-.886.269-1.227.595a.223.223 0 0 1-.169.063.233.233 0 0 1-.09-.024.236.236 0 0 1-.072-.057c-.439-.529-.981-.579-1.678-.583a3.86 3.86 0 0 0-1.344.233c-.341.122-.71-.047-1.107-.507ZM29.843 8.225c.136.067.29.093.464.08.07-.006.12.022.15.085a.108.108 0 0 0 .04.04c.176.097.471-.036.734.099.316.165.608.354.875.566a.313.313 0 0 0 .427-.036l.47-.511a.157.157 0 0 1 .202-.025c.02.014.037.032.05.054.11.202.184.489.184.722-.004 2.121-.008 4.223-.014 6.304 0 .07-.016.139-.048.204a.18.18 0 0 0-.023.087c-.004.071.021.129.075.173.36.295.773.368 1.236.218 1.624.042 2.417-1.283 2.516-2.743.306.02.602.13.889.335a.235.235 0 0 1 .083.276l-.283.74c-.383.63-1.005 1.127-1.868 1.492-1.295.546-2.472.383-3.532-.489a.414.414 0 0 0-.568.038 2.648 2.648 0 0 1-1.102.705l-1.021-.102c-.013-.089.016-.136.085-.142.474-.039 1.115.01 1.235-.621l.805-.1a.256.256 0 0 0 .225-.248l.063-2.585c-.157-.347-.769-.445-1.835-.295l.732-.882c.304-.084.576-.095.816-.034.195.049.295-.028.301-.229.03-.983-.063-1.688-.277-2.115-.697-.52-1.405-.733-2.123-.64a.469.469 0 0 1 .037-.42ZM89.115 8.271c-.327.14-.614.186-.861.137a.727.727 0 0 0-.774.352c-.024.041-.125.102-.304.18l.298-.532c.44-.17.986-.216 1.64-.137Z"/><path d="M89.115 8.271c.666.136 1.163.373 1.491.711.809.834 1.255 1.802 1.34 2.906.016.222.065.415.145.58a.154.154 0 0 1-.01.148.552.552 0 0 0-.087.285 1.11 1.11 0 0 1-.287.734c-.075.082-.156.09-.244.023a.76.76 0 0 0-.703-.127c.175-1.335.119-3.663-.938-4.534a1.375 1.375 0 0 0-.915-.306c-.358.003-.692.05-1.003.142.061-.071.18-.137.354-.198.901.053 1.111.015.63-.112-.613-.161-1.109-.047-1.487.343-.061.064-.072.145-.031.243a1.07 1.07 0 0 1-.391.26 1.2 1.2 0 0 0 .197-.428c.18-.08.28-.14.304-.181a.73.73 0 0 1 .774-.352c.247.049.534.003.86-.137ZM69.525 10.237l.082.823c-.102.16-.22.189-.358.088a.375.375 0 0 1-.152-.242L68.8 9.423c-.066-.375.083-.692.445-.948l.124-.08c.064-.04.097-.022.098.053l.058 1.789Z"/><path d="M69.542 8.298c.205.433.273.91.204 1.431l-.14 1.331-.08-.823.016-1.939ZM76.562 8.304l1.431-.002c1.067.337 1.82 1.032 2.261 2.084.093.222.16.449.202.68.037.202.107.394.208.577a.31.31 0 0 1 .035.208c-.073.409.106.62.539.632.44.012.876.014 1.304.004-.24.296-.412.64-.516 1.036l-.014-.354a.211.211 0 0 0-.086-.162.78.78 0 0 0-.517-.16.328.328 0 0 1-.223-.073.431.431 0 0 0-.424-.075c-.073.023-.107.071-.104.146l.018.46-.108.035c-.09.028-.098.012-.025-.048l.044-.031a.144.144 0 0 0 .06-.112 1.35 1.35 0 0 0-.02-.3c-.02-.101-.063-.112-.13-.033a.055.055 0 0 0-.012.054c.026.104-.01.139-.11.104a.474.474 0 0 1-.244-.181.162.162 0 0 0-.147-.073c-.077.002-.117-.031-.121-.098-.005-.076-.046-.114-.123-.114a.382.382 0 0 0-.208.075l-.018-.836.025-.096c.018-.066.06-.096.126-.09.02.003.04.005.059.005a.184.184 0 0 1 .116.035l.508.358c.066.047.118.035.156-.035.048-.09.03-.152-.052-.183a.223.223 0 0 1-.086-.057 1.685 1.685 0 0 0-.902-.503 9.019 9.019 0 0 0-.262-1.092c-.239-.761-.728-1.249-1.467-1.462-.11-.18-.362-.236-.757-.167-.064.011-.1.045-.106.102a.03.03 0 0 0 .006.019c.004.006.01.008.017.006.066-.004.07.01.01.04a.599.599 0 0 0-.154.114.523.523 0 0 0-.189.106c.063-.122.144-.231.246-.328a.288.288 0 0 1 .187-.082 3.49 3.49 0 0 1 .753.034c.032.005.049-.009.052-.042v-.002c.002-.035-.013-.051-.048-.05-.279.004-.553 0-.824-.014a.96.96 0 0 0-.611.185c-.185.13-.35.294-.497.49a.616.616 0 0 1 .297-.486c.094-.063.12-.112.079-.15a.572.572 0 0 1 .366-.098ZM125.787 8.504c-.152.032-.319.03-.501-.008l-1.635.012c.699-.28 1.411-.281 2.136-.004ZM2.007 8.442l-.119.41c-.076.218-.17.354-.283.405l.293-.824c.012-.03.03-.036.059-.018a.75.75 0 0 0 .05.027Z"/><path d="m68.8 9.423.297 1.483c.02.102.07.182.152.242.137.1.256.072.358-.088l.139-1.33.037 1.705c.003.091-.042.138-.135.141-.39.013-.707-.285-.84-.626-.36-.913-.822-1.866-1.914-2.011-.88-.118-1.69.097-2.427.645l-.11-.104a.687.687 0 0 0 .41-.5.274.274 0 0 1 .097-.162.604.604 0 0 0 .169-.241c1.303-.39 2.559-.108 3.766.846ZM76.562 8.847l-.722.422-.42.394c.105-.382.239-.59.4-.624.147-.197.312-.361.497-.491a.96.96 0 0 1 .611-.185c.27.013.545.018.824.014.035-.001.05.015.048.05v.002c-.003.033-.02.047-.052.042a3.49 3.49 0 0 0-.753-.034.288.288 0 0 0-.188.082 1.227 1.227 0 0 0-.245.328ZM117.16 9.948c.074.425.167.715.276.869.067.093.145.122.235.087.07-.025.105-.075.106-.15l.009-.407.047-1.889c.167.963.222 1.931.167 2.906a.113.113 0 0 1-.014.047.113.113 0 0 1-.13.05c-.844-.26-.936-.929-1.339-1.611-.484-.82-1.202-1.138-2.153-.955a1.543 1.543 0 0 0-1.1.776.751.751 0 0 1 .072-.25c.084-.172.283-.245.412-.389a.056.056 0 0 0 .014-.027.06.06 0 0 0-.004-.03.064.064 0 0 0-.02-.022.053.053 0 0 0-.029-.008.255.255 0 0 0-.167.06c-.012.009-.013.007-.004-.004.011-.014.015-.035.013-.062-.003-.049-.023-.057-.061-.025l-.235.208.4-.59c.007-.015.039-.025.097-.032.619-.173 1.248-.137 1.889.108.788.3 1.294.746 1.519 1.34Z"/><path d="M76.196 8.402c.042.038.015.087-.079.15a.616.616 0 0 0-.297.487c-.161.034-.294.242-.4.624l-.264.426-.033-.225c-.021-.13-.09-.165-.206-.104l-.237.121c-.054.028-.092.013-.113-.044a.133.133 0 0 1 .007-.11c.342-.657.883-1.099 1.622-1.325ZM87.474 8.408l-.298.533a1.2 1.2 0 0 1-.197.428c.027.08-.013.113-.12.098a3.136 3.136 0 0 0-.07-.033l.26-.828.425-.198ZM149.029 8.396c.194.799.236 1.619.125 2.46-.012.103-.067.137-.164.102-.325-.116-.606-.287-.747-.626-.399-.959-1.194-.786-2.018-.93a.246.246 0 0 0-.206.058.25.25 0 0 0-.087.196c.013.562.01 1.142-.008 1.74-.013.347.187.607.435.827-.125.044-.222.015-.29-.09a12.786 12.786 0 0 0-.349-.513l.019-2.08a.38.38 0 0 0-.079-.241l-.213-.281a.13.13 0 0 1-.024-.06.127.127 0 0 1 .05-.114.12.12 0 0 1 .06-.022 8.224 8.224 0 0 1 2.273.125c.884.17.362 1.194.818 1.598a.256.256 0 0 0 .28.042.26.26 0 0 0 .152-.24l-.027-1.951ZM77.735 8.627l-.984.114a.599.599 0 0 1 .154-.114c.06-.03.056-.044-.01-.04a.016.016 0 0 1-.017-.006.03.03 0 0 1-.006-.019c.007-.057.042-.09.106-.102.395-.069.648-.014.757.167ZM88.888 8.523c-.342.005-.552.043-.63.112-.175.061-.293.127-.354.198l-.534.276c-.04-.098-.03-.18.03-.243.38-.39.875-.504 1.488-.343ZM125.286 8.496l.035.077c-.757-.057-1.341.021-1.753.235l-.32.218.318-.462a.292.292 0 0 0 .085-.056l1.635-.012Z"/><path d="M125.286 8.496c.182.037.349.04.501.008.775.312 1.365.866 1.768 1.662.44.862.658 1.812.656 2.848a.222.222 0 0 1-.021.088.198.198 0 0 1-.139.108.201.201 0 0 1-.09-.001l-.264-.064a.214.214 0 0 0-.196.043c-.136.111-.319.137-.551.08.121-1.313.027-3.183-.923-4.096a.336.336 0 0 0-.175-.088 5.17 5.17 0 0 0-1.24-.05c-.353.027-.649.333-.959.495-.009.006-.013.003-.01-.008l.004-.019a.038.038 0 0 1 .023-.033c.226-.101.421-.238.584-.412a.61.61 0 0 1 .283-.17.92.92 0 0 1 .433-.031c.302.055.473.024.514-.094-.133-.229-.188-.292-.163-.19l-.035-.076ZM25.265 8.519c1.912 5.301.223 10.98-4.127 14.487a3.597 3.597 0 0 1-.832.503.465.465 0 0 0-.212.03.4.4 0 0 1-.197.016l-.468-.073a79.296 79.296 0 0 1 2.826-3.06c.177-.18.534-.674 1.072-1.483.133-.05.237-.049.312.007a.26.26 0 0 0 .208.047c.181-.031.305-.146.372-.343a.33.33 0 0 1 .148-.187.23.23 0 0 0 .1-.125c.065-.191.19-.471.376-.84.435-.861.718-1.843.846-2.945.275-1.967.122-3.871-.46-5.714-.045-.142-.033-.248.036-.32ZM43.858 8.762c.092.2.138.347.14.443l.05 2.496c.004.172-.037.339-.123.501-.033.063-.017.104.05.125a.92.92 0 0 0 .439.017l1.38.603c.15.065.278.17.373.302a43.893 43.893 0 0 0 2.694 3.394c.306.345.735.597 1.285.755a.399.399 0 0 1 .196.127c.206.251.459.431.757.54l.784 1.005c-.21.114-.43.052-.66-.185-.834-.858-1.575-1.468-2.223-1.828a1.76 1.76 0 0 1-.441-.36c-.799-.977-1.62-2.015-2.463-3.111a1.68 1.68 0 0 0-.692-.514 4.915 4.915 0 0 0-1.332-.356.833.833 0 0 0-.682.094c-.065.04-.06.064.017.072l.445.05c.133.106.2.198.202.277.004.937-.018 1.86-.067 2.768a.319.319 0 0 0 .202.314c.184.073.402.08.653.021.276.064.45.206.524.425-.915.043-1.796-.304-2.643-1.04l.068-2.64c.064-.323.002-.498-.187-.524-.248-.033-.792-.022-1.63.033l.75-.967.747.01c.058.001.114-.02.156-.06a.222.222 0 0 0 .07-.15c.034-.614.035-1.171.003-1.672-.018-.266-.118-.43-.3-.49l-.445-.392c.006-.116.087-.138.243-.064.24.112.375.31.645.389a.196.196 0 0 0 .212-.06c.19-.21.416-.393.678-.55.037-.02.066-.014.088.021.023.035.036.095.037.18ZM113.655 8.531l-.4.59c-.127.133-.189.321-.185.567-.065.22-.05.406.044.557-.039.064-.035.114.01.152-.088.38-.258.724-.507 1.034-.218-.199-.311-.456-.279-.772a.14.14 0 0 1 .033-.076.142.142 0 0 1 .071-.043l.304-.072a.229.229 0 0 0 .183-.194c.058-.33-.015-.612-.221-.846-.093-.109-.095-.219-.008-.331.227-.291.546-.48.955-.566Z"/><path d="M125.321 8.573c-.025-.103.03-.04.163.189a2.404 2.404 0 0 0-.997-.117.184.184 0 0 0-.147.096.313.313 0 0 1-.171.14 3.809 3.809 0 0 0-.911.5l.31-.573c.412-.214.996-.292 1.753-.235ZM139.027 8.504a6.39 6.39 0 0 1 .104 2.223c-.016.11-.073.14-.171.09-.279-.142-.52-.2-.682-.51-.215-.411-.497-.875-1.019-.919a22.678 22.678 0 0 0-2.436-.048.22.22 0 0 0-.214.22l.016 2.372a.14.14 0 0 0 .083.133.86.86 0 0 0 .398.081l-.639.13a.091.091 0 0 1-.101-.056.082.082 0 0 1-.007-.04 32.3 32.3 0 0 0 .042-2.657c-.007-.245-.109-.43-.225-.638a.1.1 0 0 1-.013-.054.11.11 0 0 1 .014-.053.114.114 0 0 1 .039-.039.113.113 0 0 1 .054-.014c.794-.006 1.624.002 2.489.022.429.011.83.075 1.205.192a.438.438 0 0 1 .299.308l.273.998a.17.17 0 0 0 .131.125c.04.008.078.01.114.004.137-.018.207-.096.21-.235l.036-1.635ZM39.413 10.513c.107.239.157.287.15.146a5.639 5.639 0 0 0-.037.13.332.332 0 0 0 .01.199 4.67 4.67 0 0 1 .179 2.666c-.04.19-.159.27-.356.237a.273.273 0 0 1-.177-.102c-.148-.185-.309-.203-.482-.052l-.219.059a.172.172 0 0 1-.213-.124.173.173 0 0 1 .001-.09c.099-.349.136-.71.11-1.087-.115-1.829-1.013-3.088-2.695-3.777-.053-.02-.069-.058-.048-.112l.019-.05c.007-.017.018-.022.035-.017 1.325.44 2.16 1.38 2.856 2.54a.38.38 0 0 0 .428.196.114.114 0 0 0 .093-.085.12.12 0 0 0-.038-.121.8.8 0 0 1-.298-.516c-.01-.08.024-.131.1-.156.152-.049.346-.01.582.116ZM65.033 8.577a.604.604 0 0 1-.169.241.274.274 0 0 0-.098.162.687.687 0 0 1-.41.5l-.463.732c.036-.222.005-.355-.094-.4a.134.134 0 0 0-.085-.009.13.13 0 0 0-.073.045.158.158 0 0 1-.175.058.135.135 0 0 1-.085-.198 1.73 1.73 0 0 1 .358-.439c.317-.34.749-.572 1.294-.692ZM117.786 10.347l-.009.408c-.001.074-.036.124-.106.15-.09.034-.168.005-.235-.088-.109-.154-.202-.444-.276-.87-.1-.38-.104-.774-.013-1.183a.222.222 0 0 1 .112-.15.298.298 0 0 1 .254-.008.295.295 0 0 1 .194.262l.079 1.479ZM123.566 8.564l-.318.462a.31.31 0 0 0-.1.135c-.018.04-.022.038-.013-.004a.058.058 0 0 0-.029-.066c-.041-.028-.068-.018-.079.03a.438.438 0 0 0 .065.356c.02.032.013.05-.023.052-.046-.033-.088-.045-.125-.037-.029.006-.053.032-.073.08a6.435 6.435 0 0 0-.462 1.817c.017.004.025.04.023.106l-.035-.012-.1-.787c-.012-.091-.062-.121-.148-.09-.111.041-.215.097-.314.167a.178.178 0 0 1-.28-.12c-.013-.086.024-.181.11-.285.151-.183.283-.383.395-.6a2.28 2.28 0 0 1 1.506-1.204ZM132.098 11.605l-.035-2.08a.466.466 0 0 0-.41-.451c-.298-.036-.589-.193-.872-.47.715.035 1.163.085 1.346.152.236.084.533.31.89.678.05.052.077.116.079.19l.042 1.867a.205.205 0 0 1-.229.208l-.811-.094ZM23.817 8.68c-.438.917-1.282 1.414-2.533 1.49-.358.022-.72.036-1.086.042a.626.626 0 0 1-.364-.158c-.309-.02-.522-.078-.638-.175a.19.19 0 0 1-.028-.265.195.195 0 0 1 .078-.06 3.339 3.339 0 0 1 1.441-.272c.445.018 1.489-.182 3.13-.601ZM29.806 8.645c.718-.092 1.426.121 2.123.641-.583-.082-.874-.071-.873.031-.065-.119-.135-.186-.21-.201a2.471 2.471 0 0 1-1.04-.47ZM40.4 8.658l1.555.187.445.391c.03.147-.211.178-.726.092l-1.275-.67ZM87.05 8.606l-.26.828-.354.67c-.093.178-.16.402-.202.67l-.133-.17c.086-.195.136-.388.152-.58a.161.161 0 0 0-.073-.155l-.304-.21c.285-.491.676-.842 1.173-1.053ZM48.904 9.777c-.01-.06.013-.13.067-.21.45 1.197.207 2.117-.728 2.76-.117.08-.312.165-.587.254-.252.08-.445.184-.578.312l-.576-.522c.234-.455.59-.904 1.067-1.346a.156.156 0 0 0 .044-.154.154.154 0 0 0-.117-.11l-1.044-.22-.096-.68c-.047-.346-.244-.54-.59-.581l-1.072-.13c-.307-.035-.462.101-.463.41l-.013 2.476c-.001.07.03.116.096.14.195.074.43.094.705.06a1.35 1.35 0 0 1-.605.108.92.92 0 0 1-.44-.017c-.066-.02-.082-.062-.05-.125.087-.162.128-.33.123-.501l-.05-2.496c0-.096-.047-.243-.139-.443.888-.101 1.46-.127 1.718-.077 1.089.208 1.786.837 2.093 1.886.02.067.064.103.135.107l.501.027a.326.326 0 0 1 .183.068c.128.099.25.106.368.021a.248.248 0 0 0 .105-.17c.043-.299.024-.58-.057-.847ZM143.873 9.074c-.366.079-.542.184-.528.314-.581.054-1.02.114-1.317.181-.216.048-.474.175-.599.38-.18.297-.323.598-.429.901a.142.142 0 0 1-.143.104c-.23.007-.442-.092-.637-.297.41-.056.667-.304.772-.745a.306.306 0 0 0-.021-.197.628.628 0 0 1-.002-.564.232.232 0 0 1 .133-.112c.641-.202 2.236-.493 2.771.035ZM1.888 8.851l-.035.262-.065.198-.266.347a.482.482 0 0 1 .083-.401c.112-.051.207-.187.283-.406Z"/><path d="m123.568 8.808-.31.574-.166.095a.438.438 0 0 1-.065-.355c.011-.049.038-.06.079-.031a.058.058 0 0 1 .029.066c-.009.042-.005.043.013.004a.31.31 0 0 1 .1-.135l.32-.218ZM113.264 9.67l-.071.223c.005-.353-.035-.422-.123-.205-.004-.246.058-.434.185-.566l.235-.208c.038-.032.058-.024.061.025.002.027-.002.048-.013.062-.009.011-.008.013.004.004a.255.255 0 0 1 .167-.06c.01 0 .02.002.029.008a.064.064 0 0 1 .02.023c.004.009.005.02.004.03a.056.056 0 0 1-.014.026c-.129.144-.328.217-.412.39a.751.751 0 0 0-.072.249ZM63.562 9.01l.092.012c.066.008.097.046.093.112l-.008.135a1.73 1.73 0 0 0-.358.44.136.136 0 0 0 .085.197.158.158 0 0 0 .175-.058.13.13 0 0 1 .073-.045.134.134 0 0 1 .085.01c.099.044.13.177.094.399l-.194.923c-.235 1.121-.093 2.365.198 3.46l-.008.476a.305.305 0 0 1-.075.197c-.059.068-.077.14-.054.216a.237.237 0 0 0 .112.142c.393.233.75.578 1.132.736.452.188.874.22 1.268.096.658-.076 1.142-.28 1.454-.612l.768-.097a.142.142 0 0 0 .129-.113c.226-.815.146-1.45-.24-1.905a5.122 5.122 0 0 0-2.086-.603c.009-.16.071-.265.188-.316.242.09.48.152.71.185.343.048.58.102.708.162.291.136.548.313.77.53a.255.255 0 0 0 .36-.002c.482-.49 1.09-.78 1.826-.867.131.017.238.116.318.297l-1.184.302c-.077.02-.115.07-.114.15.004.233.1.44.098.682-.011 1.645-.006 3.348.016 5.109a.156.156 0 0 1-.074.133c-.061.037-.12.046-.177.027a.39.39 0 0 1-.254-.296 6.708 6.708 0 0 0-.805-2.207l-.069-.154a.635.635 0 0 0-.014-.24.154.154 0 0 0-.133-.12 1.883 1.883 0 0 0-.963.082c-1.567.592-2.947.287-4.14-.913-.758-.764-1.168-1.74-1.23-2.929a.225.225 0 0 0-.23-.212l-1.643.031c.18-.219.349-.43.506-.634.148-.194.275-.43.38-.705.31-.81.616-1.469 1.263-2.078l.241.418a.192.192 0 0 0 .3.041l.611-.595ZM143.873 9.074a.82.82 0 0 1 .416.322.758.758 0 0 1 .143.462c-.009.5-.006 1.005.009 1.512a.297.297 0 0 1-.112.243.3.3 0 0 1-.261.059 1.952 1.952 0 0 0-.684-.036l-.039-2.248c-.014-.13.162-.235.528-.314ZM31.93 9.286c.213.427.305 1.132.276 2.116-.006.2-.106.277-.302.228-.24-.06-.511-.05-.815.034l-.033-2.347c-.002-.102.29-.113.873-.03ZM42.4 9.236c.182.061.282.225.3.491.032.5.03 1.058-.002 1.672a.222.222 0 0 1-.071.15.226.226 0 0 1-.156.06l-.747-.01-.05-2.271c.515.086.757.055.726-.092ZM55.827 9.617c.05.3-.214.375-.795.227l-.11-.073c-.083-.13-.06-.264.073-.4.28-.29.794-.276.832.246ZM75.84 9.27c-.44.944-.694 1.676-.761 2.196-.091.716-.037 1.8.164 3.251-.495-1.516-.524-3.058-.087-4.628l.264-.426.42-.394ZM1.788 9.311c-.005.352-.107.619-.306.799l.04-.452.266-.347ZM86.79 9.434c.023.01.046.022.068.033l-.36 1.304c-.033.124-.1.187-.202.19-.027-.186.003-.265.092-.236.057-.206.073-.413.048-.621l.353-.67Z"/><path d="m64.357 9.48.11.104c-.064.106-.12.21-.166.312a.823.823 0 0 0-.073.31.827.827 0 0 1-.104.372c-.06.112-.105.234-.135.366a7.31 7.31 0 0 0 .284 4.297c-.14-.144-.265-.36-.376-.647-.291-1.094-.433-2.338-.198-3.459l.194-.923.464-.732ZM123.069 9.53l-.383 1.38a.746.746 0 0 0-.027.2.503.503 0 0 1-.046.22c-.037.087-.105.106-.204.059.063-.62.217-1.226.462-1.818.02-.047.044-.073.073-.079.037-.008.079.004.125.037ZM113.193 9.893c-.008.12.001.24.029.362.011.049.006.07-.017.065-.02-.006-.051-.03-.091-.075-.094-.151-.109-.337-.044-.557.088-.217.128-.148.123.205ZM55.827 9.617l1.137 3.11a.1.1 0 0 1-.085.133c-.453.037-.642.143-.566.318a1.607 1.607 0 0 1-.075-.027c-.033-.018-.033-.063 0-.136l.017-.112a.332.332 0 0 0-.017-.164l-.788-2.176c-.011-.22-.109-.315-.293-.283.004-.091-.038-.237-.125-.436.581.148.846.072.795-.227ZM96.746 10.355c-.105 1.756-.105 3.21 0 4.362.028.31-.095.528-.368.657-.016.167-.14.282-.372.348l-.849.376c-.018.008-.02.02-.004.033.025.02.041.02.048.003-.28.094-.645.09-1.094-.013.73-.189 1.185-.525 1.362-1.009.364-.114.537-.383.52-.809a40.701 40.701 0 0 1 .03-3.236c.016-.433-.113-.774.037-1.213a.281.281 0 0 1 .45-.12c.146.127.227.334.24.621ZM1.522 9.658l-.04.452-.372.511c.022-.232.087-.446.194-.64l.218-.323ZM85.876 9.658l.304.21c.054.038.078.09.073.156a1.794 1.794 0 0 1-.152.58 2.422 2.422 0 0 0-.31.057c-.372.14-.433.055-.185-.256.132-.165.222-.414.27-.747Z"/><path d="M113.264 9.67c-.132.689.146 1.164.834 1.426 1.185.451 2.593.68 3.563 1.535-.279-.064-.504-.029-.674.106-.092.072-.101.154-.027.245l.079.098a.121.121 0 0 1 .025.057.122.122 0 0 1-.096.143l-.187.037c-.399-.294-.685-.466-.857-.518a26.059 26.059 0 0 1-2.885-1.067c.129-.543.206-.9.231-1.071.019-.12-.029-.207-.146-.264-.045-.038-.049-.088-.01-.152.04.044.071.07.091.075.023.005.028-.016.017-.065a1.239 1.239 0 0 1-.029-.362l.071-.222ZM54.922 9.77l.11.074c.087.2.129.345.125.436L54.065 13a.226.226 0 0 1-.112.123l-.177.085c-.13.065-.123.094.023.087.18-.01.35-.041.511-.095a.508.508 0 0 1 .208-.027l1.54.126a.147.147 0 0 0 .145-.072.37.37 0 0 0 .035-.075l.075.027c-.14.231.06.325.6.28-.225.127-.505.195-.841.204a19.27 19.27 0 0 1-4.534-.395l1.443-.877c.146.235.214.478.206.727a.218.218 0 0 0 .195.225.217.217 0 0 0 .107-.017c.29-.124.384-.336.278-.634a.315.315 0 0 1 .007-.233l.869-2.04a.417.417 0 0 1 .125-.165c.158-.122.21-.283.154-.482ZM23.967 9.79l.227 2.59-.03.07c-.385-.848-.45-1.734-.197-2.66ZM81.213 10.453a.66.66 0 0 0-.035.493.037.037 0 0 1 0 .022.044.044 0 0 1-.01.02l-.061.064c-.044.047-.082.042-.112-.014l-.258-.491-.302-.414c.125.076.235.097.33.062a.134.134 0 0 0 .092-.131c.003-.172.099-.26.287-.266a.082.082 0 0 1 .084.05.795.795 0 0 0 .284.314.04.04 0 0 1 .007.029.039.039 0 0 1-.015.026.04.04 0 0 1-.044.003c-.205-.097-.363-.072-.476.075-.083.108-.069.11.044.006a.66.66 0 0 1 .066-.058.157.157 0 0 1 .104-.031c.067.001.13.007.188.016.066.011.073.038.02.08-.032.024-.063.03-.095.018-.06-.022-.117-.011-.17.033-.029.023-.026.026.005.01a.443.443 0 0 1 .323-.024.033.033 0 0 1-.004.064l-.252.044ZM23.085 9.904c.07.442-.051.738-.362.886-.094.044-.362.114-.802.21a3.42 3.42 0 0 1-2.124-.206c-.192-.083-.271-.19-.24-.318.031-.118.123-.259.277-.422a.626.626 0 0 0 .364.158c1.057.337 2.02.234 2.887-.308ZM86.436 10.104c.025.208.009.415-.048.622-.089-.03-.12.049-.092.234a.33.33 0 0 0-.037.156l-.025-.343c.042-.267.109-.49.202-.67Z"/><path d="M110.901 10.21c.197.108.368.122.514.043a.289.289 0 0 1 .273-.003.293.293 0 0 1 .157.224c.082.665.435 1.136 1.059 1.412.675.298 1.526.605 2.552.921.514.16.953.463 1.317.91a.405.405 0 0 1-.029.28c-.028.049-.102.091-.221.127a1.114 1.114 0 0 0-.551.38 3.137 3.137 0 0 0-1.192-.656 26.34 26.34 0 0 1-1.959-.68c-1.369-.536-2.009-1.522-1.92-2.958ZM55.45 10.563c-.1-.083-.154-.102-.162-.056a6.42 6.42 0 0 1-.87 2.255.127.127 0 0 0-.004.124.123.123 0 0 0 .104.065l1.72.064c-.033.073-.033.118 0 .136a.37.37 0 0 1-.035.075.147.147 0 0 1-.146.072l-1.539-.127a.508.508 0 0 0-.208.028c-.16.054-.331.085-.511.095-.146.007-.154-.022-.023-.087l.176-.085a.226.226 0 0 0 .113-.123l1.092-2.719c.184-.032.282.063.293.283ZM96.746 10.355l.181.483a.83.83 0 0 1 .06.291c-.035.947-.05 1.935-.04 2.964.003.426.055.845.155 1.258a.3.3 0 0 0 .102.169c.17.147.36.255.568.324-.553.035-1.018-.122-1.394-.47.273-.129.396-.348.368-.657-.105-1.152-.105-2.606 0-4.362ZM6.97 11.603c0-.053.002-.105.004-.158-.362.12-.623.32-.782.603-.1.18-.051.246.147.2l.13-.031c-.102.34-.411.6-.929.782a4.9 4.9 0 0 0 .084-1.344.7.7 0 0 1 .077-.412c.243-.418 1.248-.952 1.722-.828a.248.248 0 0 1 .106.42 2.725 2.725 0 0 0-.56.768Z"/><path d="M113.124 10.397c.117.057.165.145.146.264-.025.17-.102.528-.231 1.071a.974.974 0 0 1-.422-.301c.249-.31.419-.654.507-1.034ZM81.213 10.453c.214-.035.286-.01.218.073a.308.308 0 0 0-.143.004c-.072.02-.094.066-.065.135a.634.634 0 0 1 .025.43.157.157 0 0 1-.192.112.156.156 0 0 1-.07-.04c-.148-.153-.231-.36-.25-.62l.259.49c.03.057.067.062.112.015l.06-.064a.044.044 0 0 0 .012-.02.037.037 0 0 0-.001-.022.66.66 0 0 1 .035-.493ZM46.502 12.37c.258.252.231.426-.08.523a.31.31 0 0 1-.386-.204l-.206-.682c.39-.34.597-.829.622-1.467l1.044.22a.155.155 0 0 1 .117.11.155.155 0 0 1-.044.155c-.477.442-.833.89-1.067 1.346ZM81.972 10.65c.114.582.357 1.104.728 1.569-.53.08-1.011.042-1.445-.114-.064-.023-.095-.068-.092-.136a.083.083 0 0 1 .027-.052.266.266 0 0 1 .156-.077 1.17 1.17 0 0 0 .576-.25.175.175 0 0 0 .067-.172l-.086-.557.07-.21ZM39.563 10.659c.862 2.126.621 3.817-.724 5.075-.713.67-1.77 1.109-2.802 1.256-.513.075-1.065.177-1.58.16a73.701 73.701 0 0 0-3.917-.02c-.22.004-.462-.11-.724-.343.388.018.716-.032.984-.148a2.648 2.648 0 0 0 1.102-.705.414.414 0 0 1 .568-.038c1.06.872 2.237 1.035 3.532.49.863-.366 1.485-.863 1.868-1.492a.71.71 0 0 0 .243-.304c.072-.193.142-.385.208-.578a.206.206 0 0 1 .131-.131.663.663 0 0 0 .248-.144c.173-.15.334-.133.482.052.046.057.105.091.177.102.197.032.316-.047.356-.237a4.67 4.67 0 0 0-.179-2.666.332.332 0 0 1-.01-.198l.037-.131ZM86.498 10.771a5.89 5.89 0 0 1-.087.824c-.007.036-.024.06-.052.07a.085.085 0 0 0-.054.082c-.036 1.091.099 2.166.405 3.224l-.31-.485a11.164 11.164 0 0 1-.141-3.37.33.33 0 0 1 .037-.155c.102-.003.169-.066.202-.19ZM137.519 10.91a17.49 17.49 0 0 1 .11 3.566c-.007.094-.054.124-.142.091-.26-.1-.526-.204-.634-.484-.478-1.255-.79-.968-1.943-1.095a.266.266 0 0 0-.268.154.26.26 0 0 0-.023.107l.002 6.512c0 .118-.057.164-.173.14-.285-.063-.596-.325-.746-.573-.304-.504-.536-.804-.695-.898a10.912 10.912 0 0 1-.928-.603l1.08-.774c.151.186.247.342.289.47.175.54.355 1.128.541 1.762.044.154.122.245.235.274a.2.2 0 0 0 .251-.197 205.94 205.94 0 0 1-.056-5.691c.002-.36-.039-.69-.133-1.038-.023-.085.009-.127.098-.127l2.111-.01a.32.32 0 0 1 .32.276l.171 1.163a.22.22 0 0 0 .136.17.219.219 0 0 0 .216-.035c.083-.07.118-.166.106-.289-.09-.961-.066-1.918.075-2.87ZM57.464 10.967l.599 1.387c-.385-.427-.584-.89-.6-1.387ZM79.514 11.747l-.05-.566c.346.07.647.237.902.503a.223.223 0 0 0 .086.057c.083.031.1.092.052.183-.038.07-.09.082-.156.035l-.508-.358a.184.184 0 0 0-.116-.035.408.408 0 0 1-.059-.004c-.066-.007-.108.023-.126.09l-.025.095ZM20.465 20.716c.485-1.635.392-3.183-.28-4.643-.76-1.653-2.028-2.867-3.806-3.642a4.29 4.29 0 0 0-1.337-.684c.08-.212.204-.342.37-.39.308-.087.583-.084.826.01 1.97.746 3.42 2 4.35 3.76.719 1.364 1.077 3.099.698 4.628-.012.044-.044.256-.096.636-.054.39-.296.498-.726.325ZM122.397 11.483l.035.012c.004 1.157.124 2.323.36 3.499-.449-1.014-.581-2.184-.395-3.511ZM120.436 11.873c.119.088.262.098.319.022.057-.077.006-.21-.112-.3-.119-.088-.262-.098-.319-.021-.057.076-.006.21.112.299ZM6.974 11.445l-.005.158.283-.033a.18.18 0 0 1 .17.069c.116.14.108.278-.022.416-.207.219-.432.443-.676.671-.362.344-1.028.757-1.51.5a.357.357 0 0 1-.106-.545c.112-.133.198-.11.258.068.043.13.101.214.174.25.518-.182.827-.443.928-.782.257-.162.425-.42.506-.772ZM145.72 11.62c.107.148.223.32.349.514.068.104.165.133.29.09.015.005.022.02.022.045a4.877 4.877 0 0 1-1.603-.063l.942-.586Z"/><path d="M15.042 11.747c.49.15.935.379 1.337.684 1.469.934 2.842 2.342 3.403 4.004a.55.55 0 0 0-.035.25c-.076-.308-.164-.53-.262-.668-.154-.215-.343-.326-.566-.333a.355.355 0 0 1-.254-.122l-1.108-1.317c-.436-.487-.776-.791-1.022-.913-.864-.432-1.361-.96-1.493-1.585ZM45.83 12.007l.206.682a.31.31 0 0 0 .387.204c.31-.097.337-.271.079-.522l.576.522 2.793 3.659c.017.022.04.034.07.035.02.001.039 0 .055-.002.003.06.01.11.021.152.013.045.04.075.081.09.059.018.103-.003.133-.065.007.356.106.523.298.5l.57.804c-.298-.11-.55-.29-.757-.541a.399.399 0 0 0-.196-.127c-.55-.158-.979-.41-1.285-.755a43.893 43.893 0 0 1-2.694-3.395.912.912 0 0 0-.372-.301l-1.381-.603a1.35 1.35 0 0 0 .605-.108l.811-.23ZM144.778 12.206c.539.11 1.074.13 1.603.063.12.047.217.124.294.23-.092.174-.29.268-.595.284-.631.034-1.195-.037-1.691-.213.193-.098.322-.22.389-.364ZM24.194 12.38l.358.952c-.22-.194-.348-.488-.387-.882l.029-.07ZM94.138 12.377c.076.061.13.139.162.233.024.072.002.125-.066.16-.343.175-.668.45-.73.849-.106.688-.394 1.334-.864 1.938-.39.5-.935.888-1.636 1.16a7.886 7.886 0 0 1-1.943.486c-.265.032-.519 0-.762-.096a1.367 1.367 0 0 0-.603-.104 1.748 1.748 0 0 1-.555-.054c-1.394-.383-2.4-1.156-3.02-2.32-.264-.496-.387-1.025-.622-1.547.26-.197.582-.318.97-.362a.14.14 0 0 0 .125-.119c.009-.056-.022-.117-.093-.182a.195.195 0 0 1 .16.022c.06.038.09.092.092.163.03 1.818 1.207 3.584 3.035 4.018-.02.067.017.108.11.125.14.024.48.053 1.02.09.034.002.052-.014.053-.048l.004-.059c.002-.027-.011-.042-.039-.043l-.922-.036c1.386.125 2.491-.374 3.316-1.497.216-.072.374-.044.472.085a.215.215 0 0 0 .165.087c.474.027.775-.181.904-.624.07-.152.086-.237.05-.253.196-.296.316-.58.36-.855l.056-.512a.142.142 0 0 0-.104-.154l-.77-.2a.068.068 0 0 1-.04-.03.071.071 0 0 1-.01-.053l.015-.077a.093.093 0 0 1 .106-.072c.592.091 1.127.051 1.604-.119ZM58.096 12.414l.333.77c-.246-.155-.357-.412-.333-.77Z"/><path d="M84.501 12.419c.071.065.102.126.092.183a.14.14 0 0 1-.125.118c-.387.044-.71.165-.97.362-.175-.243-.38-.363-.613-.36a.193.193 0 0 0-.15.077l-.415.551a.41.41 0 0 0-.084.192c-.235 1.374-.967 2.386-2.194 3.037l.364-.701c.353-.14.439-.218.256-.233.162-.233.445-.31.607-.502a2.55 2.55 0 0 0 .58-1.229l.177-.39c.104-.396.276-.741.516-1.037l1.96-.068ZM30.357 12.546c1.066-.15 1.678-.052 1.834.295-.262.23-.644.37-1.146.42l-.688-.715ZM71.56 12.464l1.74-.006a.112.112 0 0 1 .114.106c.088 1.552.75 2.761 1.985 3.628.314.22.743.295 1.109.453.45.143.885.144 1.306.002a5.05 5.05 0 0 0 1.635-.79l.957.02-.364.702c-1.876.9-3.709.847-5.498-.163-.924-.522-1.586-1.296-1.984-2.319.196.065.36.094.491.085a.346.346 0 0 0 .315-.292.339.339 0 0 0-.013-.153 1.994 1.994 0 0 1-.1-.684.226.226 0 0 0-.223-.233c-.407-.011-.675.09-.803.306l-.667-.662ZM120.904 12.776c-.545.08-.942.248-1.19.504l-.662-.718c.548-.02 1.065-.038 1.552-.052.177-.005.277.083.3.266ZM130.284 12.458l.14.21c.041.063.034.118-.023.167l-.614.526a.26.26 0 0 0-.093.175c-.149 1.184-.706 2.129-1.673 2.835l.441-.818c.402-.444.687-.935.855-1.473l.185-.659.422-.834.36-.129ZM146.675 12.5c.094.062.165.149.212.26.028.068.008.117-.058.147a6.038 6.038 0 0 0-.662.368c-.187.12-.227.31-.229.516-.008.917-.009 1.863-.004 2.837 0 .069.025.134.071.183.136.15.319.248.549.294a1.006 1.006 0 0 1-.767-.137.18.18 0 0 1-.086-.163c.022-1.043.038-2.087.048-3.132 0-.064.004-.129.011-.194.016-.15-.049-.26-.196-.328-.383-.18-.727-.265-1.032-.258-.484.089-.879.22-1.185.395l-.757-.66 1.799-.058c.496.176 1.06.247 1.691.213.305-.016.503-.11.595-.283ZM42.791 13.057c-.606.06-.973.221-1.102.485.003-.118-.052-.25-.164-.393a5.17 5.17 0 0 0-.552-.583c.84-.055 1.383-.066 1.631-.033.189.026.251.201.187.524ZM68.614 16.863a3.943 3.943 0 0 1-.426-.033c-.383-.051-.59.072-.622.37-.116-.056-.264-.054-.443.009a1.65 1.65 0 0 1-.412.1c-2.596.147-4.794-.88-5.6-3.466.263.117.529.169.797.156.086-.004.13-.049.13-.135a2.276 2.276 0 0 0-.132-.828.155.155 0 0 0-.237-.072c-.219.156-.46.27-.721.343-.14-.235-.37-.483-.687-.745l1.643-.031a.225.225 0 0 1 .23.212c.062 1.188.472 2.165 1.23 2.929 1.193 1.2 2.573 1.505 4.14.913.284-.108.605-.135.963-.081.069.01.113.05.133.118.02.067.024.147.014.241ZM80.676 13.305c-.026.266-.168.364-.424.293-.318-.087-.577-.124-.778-.11l.058-.905a.382.382 0 0 1 .208-.075c.077 0 .118.038.123.114.004.067.044.1.12.098a.162.162 0 0 1 .148.073c.059.085.14.145.244.18.1.036.136 0 .11-.103a.055.055 0 0 1 .012-.054c.067-.08.11-.068.13.033.017.099.024.198.02.3a.144.144 0 0 1-.06.112l-.044.031c-.073.06-.065.076.025.048l.108-.035Z"/><path d="m129.924 12.587-.422.834-.064-.28a.191.191 0 0 0-.133-.14c-.182-.05-.367-.102-.556-.156-.1-.03-.159-.091-.177-.187-.015-.082.019-.122.102-.119l1.25.048ZM133.119 12.955l-1.071.319-.695-.724 1.762.002c.081 0 .11.039.088.116l-.084.287ZM15.643 17.591c.198-.813.257-1.442.177-1.884-.128-.704-.468-1.204-1.021-1.5a7.714 7.714 0 0 0-1.144-.49c-.08-.028-.106-.003-.077.076l.22.579-.996-1.246a.226.226 0 0 1 .079-.345c.6-.292 1.267.02 1.838.297.333.16.637.384.912.67 1.17 1.213 1.174 2.494.012 3.844ZM117.661 12.63c.144.112.27.257.378.438-.381-.09-.633.063-.757.461l-.27.007-.231-.219.187-.037a.124.124 0 0 0 .071-.2l-.079-.098c-.074-.091-.065-.173.027-.245.17-.135.395-.17.674-.106ZM44.072 12.716c-.098.007-.169.035-.212.083-.044.052-.047.096-.008.133l-.445-.05c-.076-.008-.082-.032-.017-.072a.833.833 0 0 1 .682-.094ZM120.904 12.776c.006.534.156 1.123.449 1.768l-1.063.28-.576-1.544c.248-.255.645-.423 1.19-.504Z"/><path d="M44.072 12.716c.47.058.913.177 1.332.356.294.125.524.296.692.514a133.974 133.974 0 0 0 2.463 3.111c.104.127.295.279.441.36.648.36 1.389.97 2.224 1.828.23.237.45.3.659.185a.759.759 0 0 1 .193.325c.028.083-.001.116-.087.1-.212-.04-.4-.12-.566-.237-.84-.601-1.645-1.02-2.679-1.107-.205-.017-.427-.179-.665-.487a131.664 131.664 0 0 0-3.295-4.087 1.082 1.082 0 0 0-.5-.333c-.078-.026-.113.002-.103.084.1.805.118 1.512.056 2.121-.05.495.152.783.605.863-.25.059-.469.052-.653-.02a.315.315 0 0 1-.202-.315c.049-.908.07-1.83.067-2.768-.002-.08-.069-.171-.202-.277-.039-.037-.036-.082.008-.133.043-.048.114-.076.212-.083ZM70.859 12.82c-.735.087-1.344.377-1.826.867a.255.255 0 0 1-.36.003 2.744 2.744 0 0 0-.77-.53c-.129-.06-.365-.115-.707-.163a3.459 3.459 0 0 1-.712-.185l4.375.008ZM72.56 14.097l-.333-.971c.128-.215.396-.317.803-.306a.227.227 0 0 1 .223.233c-.007.231.026.46.1.684a.339.339 0 0 1-.155.4.346.346 0 0 1-.147.045 1.34 1.34 0 0 1-.49-.085ZM144.532 12.893c-.05.258-.095.512-.135.763-.137.847-.05 1.818-.06 2.656a.198.198 0 0 1-.26.188.914.914 0 0 0-.687.05l-.043-3.262c.306-.175.701-.306 1.185-.395Z"/><path d="M144.532 12.893c.305-.007.649.079 1.032.258.147.068.212.177.196.328a1.81 1.81 0 0 0-.011.194c-.01 1.045-.026 2.09-.048 3.132a.18.18 0 0 0 .086.163c.22.145.476.19.767.137.305.035.53.135.676.301l-.008.1c-.006.07-.043.104-.113.102-.973-.01-1.799-.326-2.477-.95a.25.25 0 0 0-.356.02c-.617.726-1.428.982-2.433.77.186-.225.507-.35.963-.378.176-.013.304-.057.383-.134a.711.711 0 0 0 .201-.387.914.914 0 0 1 .687-.05.2.2 0 0 0 .26-.187c.01-.838-.077-1.81.06-2.656.04-.25.085-.505.135-.763ZM13.906 14.659l.227.973c.03.138-.002.155-.098.052-.857-.905-1.722-1.62-2.937-1.701-.722-.048-.873.788-1 1.325a.308.308 0 0 1-.131.189c-.29.193-.554.334-.79.424-.928.351-1.899.685-2.913 1.003-.604.19-.975.348-1.112.474-.324.297-.355.58-.094.85-.234-.046-.4-.256-.5-.627-.04-.15-.162-.224-.367-.22-.098.002-.146-.046-.146-.144v-.113a.29.29 0 0 1 .064-.185c.473-.6 1.278-.971 2.089-1.202 1.137-.323 2.145-.702 3.024-1.136a.356.356 0 0 0 .166-.168.2.2 0 0 0-.01-.191.198.198 0 0 1 .004-.21c.316-.527.813-1.161 1.5-1.11.59.044 1.292.036 1.701.541.397.489.75.974 1.061 1.457a.135.135 0 0 0 .227 0c.047-.071.059-.165.035-.281ZM32.191 12.84l-.062 2.586a.256.256 0 0 1-.224.248l-.806.1-.054-2.513c.502-.05.884-.19 1.146-.42ZM61.112 13.843l-.165-.536c.263-.072.503-.187.722-.344a.157.157 0 0 1 .198.014c.018.016.031.037.04.06.09.246.135.522.13.827 0 .086-.043.131-.129.135a1.74 1.74 0 0 1-.796-.156ZM133.119 12.955l.04 4.098-1.08.774-.031-4.554 1.071-.318ZM42.791 13.057l-.068 2.64c-.598.783-1.393 1.105-2.386.965.01-.151.092-.241.243-.27.464-.09 1.096-.092 1.128-.739a25.89 25.89 0 0 0-.02-2.111c.13-.264.497-.425 1.103-.485ZM66.297 13.128c.727.048 1.422.25 2.087.603-.125.098-.36.142-.704.131-.583-.162-1.044-.407-1.383-.734ZM71.177 13.117c.139.107.186.226.143.358a.177.177 0 0 1-.15.13l-.681.12a.389.389 0 0 0-.323.383l-.01 5.65a.154.154 0 0 1-.065.123.148.148 0 0 1-.135.02c-.266-.094-.551-.294-.693-.552a3.26 3.26 0 0 0-1.422-1.362.402.402 0 0 1-.152-.133c-.061-.088-.08-.149-.056-.183.345-.08.695-.299 1.05-.654.394.677.662 1.413.805 2.207a.38.38 0 0 0 .254.296c.057.02.115.01.177-.027a.157.157 0 0 0 .074-.133 264.155 264.155 0 0 1-.016-5.109c.002-.241-.094-.45-.098-.682-.001-.08.037-.13.114-.15l1.184-.302ZM118.039 13.068l.177.253a.199.199 0 0 1-.023.133c-.051.088-.089.082-.114-.018-.033-.138-.117-.204-.252-.198a.214.214 0 0 0-.156.075c-.125.141-.254.213-.389.216.124-.398.376-.552.757-.461ZM3.714 13.082l.441.454a.299.299 0 0 1 .038.372c-.466.726-.977 1.37-1.533 1.93a1.757 1.757 0 0 1-.512.356.182.182 0 0 1-.198-.017.073.073 0 0 1-.004-.114c.024-.02.029-.043.015-.069-.025-.048-.05-.05-.075-.002-.099.18-.226.222-.383.125-.233-.143-.323-.36-.27-.653.123.16.291.152.503-.021a8.05 8.05 0 0 0 1.978-2.36Z"/><path d="M118.216 13.321a.228.228 0 0 1 .048.094v1.306c.035-.387-.016-.727-.152-1.021a.168.168 0 0 0-.16-.104.76.76 0 0 0-.414.11.293.293 0 0 1-.193.04c-.186-.027-.297-.097-.333-.21l.27-.007c.135-.002.264-.075.389-.216a.214.214 0 0 1 .156-.075c.135-.005.219.06.252.198.025.1.063.106.114.018a.199.199 0 0 0 .023-.133ZM51.538 13.267a19.27 19.27 0 0 0 4.534.395c.336-.01.616-.077.84-.203a.459.459 0 0 1 .21-.02.17.17 0 0 1 .148.124c.075.216.085.463.194.667.208.383.361.801.461 1.255a.49.49 0 0 0 .181.287 4.664 4.664 0 0 0 2.758.99c.099.006.16.086.181.239.014.095-.026.136-.12.12-.452-.068-.878.034-1.354.017a32.626 32.626 0 0 0-2.925.015c-.218.01-.464-.13-.738-.42.678-.094 1.285-.048 1.838-.502a.185.185 0 0 0 .063-.192.19.19 0 0 0-.15-.139c-.208-.036-.363.02-.466.165l-.495-1.573a.185.185 0 0 0-.177-.129l-2.419-.004a.455.455 0 0 0-.434.31l-.414 1.223a.143.143 0 0 0 .047.17l.44.356c-.74.027-.81-.497-.614-1.056a2.006 2.006 0 0 0-.004-1.365.152.152 0 0 0-.134-.108 1.415 1.415 0 0 0-.742.096c-.122-.203-.359-.442-.71-.718ZM93.281 13.594c-.044.274-.164.56-.36.855-.237.063-.574-.029-1.01-.277l.35-.628a.185.185 0 0 1 .126-.092c.18-.037.292.043.335.24a.199.199 0 0 0 .195.155c.117 0 .238-.084.364-.253Z"/><path d="M118.264 13.415c.435 1 .358 1.893-.233 2.681-.276.366-.785.679-1.527.938l.947-.653c.055-.039.051-.07-.013-.096l-.098-.04a.624.624 0 0 1 .304-.249c.158-.062.173-.094.046-.096a.773.773 0 0 0-.227.057c.455-.175.725-.433.811-.774l-.027-.322c.024-.067.029-.114.017-.14v-1.306ZM102.466 13.845c.251.163.317.344.198.543a.278.278 0 0 1-.204.135.28.28 0 0 1-.233-.076l-.724-.704-.004-.147c-.003-.097.037-.12.119-.069.252.161.535.267.848.319ZM58.264 14.1a.34.34 0 0 1 .015.199.108.108 0 0 1-.179.056 1.11 1.11 0 0 1-.33-.603.183.183 0 0 1 .028-.142.16.16 0 0 1 .117-.064.103.103 0 0 1 .075.024.107.107 0 0 1 .037.07c.004.041.027.06.069.058.037-.002.07.01.098.035.069.067.09.144.064.233a.192.192 0 0 0 .006.133ZM81.85 13.914a2.55 2.55 0 0 1-.58 1.23c-.163.19-.446.268-.608.5a.589.589 0 0 1-.34.036c-.069-.01-.094-.048-.074-.117.115-.38.03-.507-.256-.378.18-.377.403-.702.668-.974a.706.706 0 0 1 .289-.224c.058-.022.104-.007.137.046.142.229.332.314.572.258a.09.09 0 0 0 .073-.073c.005-.027-.007-.05-.038-.069a.165.165 0 0 0-.124-.02c-.2.04-.327-.03-.381-.215-.02-.072-.069-.105-.144-.1a.61.61 0 0 0-.268.108c.198-.395.391-.375.578.06a.16.16 0 0 0 .148.105c.118.008.234-.05.347-.173ZM111.556 14.182l-.017.988a.34.34 0 0 0 .054.185c.252.392 1.015.677 1.423.874.53.258 1.118.314 1.766.166.056-.012.06-.035.013-.068-.056-.038-.152-.043-.287-.017.725-.015 1.247-.32 1.566-.915.173.058.272.033.297-.075a.331.331 0 0 1 .223.01c.066.03.086.078.058.144-.083.201-.087.318-.01.352l-.631.563-.782.3c-1.462.326-2.45-.241-3.715-.897-.165-.026-.263-.099-.295-.218a18.072 18.072 0 0 0-.549-1.687c.212-.352.507-.254.886.295ZM24.465 14.184c.141.089.317.062.394-.06.076-.12.024-.291-.117-.38-.14-.089-.317-.062-.393.06-.077.12-.025.291.116.38ZM68.383 13.731c.386.455.466 1.09.24 1.905a.142.142 0 0 1-.13.113l-.767.097-.046-1.984c.344.011.579-.033.703-.13ZM116.773 13.716a2.5 2.5 0 0 1 .391.857c.144.35-.21.477-1.061.381.075.118.09.105.046-.037.022.058.061.061.118.01a.343.343 0 0 1 .352-.085.33.33 0 0 0 .201-.002c.228-.075.32-.164.277-.267-.033-.081-.071-.083-.114-.006l-.077.146c-.025.044-.043.042-.052-.006-.013-.064-.041-.082-.086-.052a.948.948 0 0 1-.682.139.268.268 0 0 0-.021-.129l.441-.287a.335.335 0 0 1 .204-.054c.09.007.133.007.129 0a.4.4 0 0 0-.063-.099.33.33 0 0 0-.083-.07.202.202 0 0 0-.088-.028.137.137 0 0 0-.078.018 2.858 2.858 0 0 0-.528.4c.011.048.002.035-.027-.04.148-.186.332-.313.551-.38.119-.037.193-.08.221-.128a.405.405 0 0 0 .029-.28Z"/><path d="M80.66 14.211c-.036-.124.002-.22.116-.289a.61.61 0 0 1 .269-.108c.074-.005.122.028.143.1.054.184.18.256.38.214a.165.165 0 0 1 .125.021c.03.02.043.042.038.069a.09.09 0 0 1-.073.073c-.24.056-.43-.03-.572-.258-.033-.053-.079-.068-.137-.046a.706.706 0 0 0-.29.224ZM53.74 16.418l.16.169c-.029.118-.103.166-.222.143a4.128 4.128 0 0 1-1.319-.49.43.43 0 0 0-.347-.038l-1.78.56c-.031.062-.075.084-.134.064a.121.121 0 0 1-.08-.09.732.732 0 0 1-.022-.151c.059-.108.138-.169.237-.181.704-.085 1.206-.476 1.508-1.173.282-.648.45-1.063.506-1.246.227-.097.475-.13.742-.096a.152.152 0 0 1 .134.108c.16.454.162.909.004 1.365-.196.56-.125 1.083.613 1.056ZM110.67 13.887c.187.481.37 1.043.549 1.687.032.12.13.192.295.218-.144.01-.201.068-.17.173.046.166.066.306.062.418a.124.124 0 0 1-.116.12l-.529.028-.091-2.644ZM129.317 14.08a3.916 3.916 0 0 1-.855 1.473c-.181.06-.287.128-.316.204l-.306-.033a.146.146 0 0 1-.129-.104c-.047-.135-.18-.17-.399-.106l.612-1.21a.32.32 0 0 1 .133-.142c.317-.185.737-.212 1.26-.082ZM116.065 14.665c-.029.014-.051-.026-.066-.12.161-.155.337-.288.528-.4a.137.137 0 0 1 .078-.018.202.202 0 0 1 .088.029.33.33 0 0 1 .083.07.4.4 0 0 1 .063.098c.004.007-.039.007-.129 0a.335.335 0 0 0-.204.054l-.441.287ZM17.557 14.245l1.108 1.317a.352.352 0 0 0 .254.122c.223.007.412.118.566.333.098.137.186.36.262.668l.187 1.306c-.07.295-.136.584-.195.865a.408.408 0 0 1-.06.14.375.375 0 0 1-.109.112.224.224 0 0 1-.21-.008.261.261 0 0 1-.126-.18c-.097-.553-.049-1.095-.211-1.638a7.188 7.188 0 0 0-1.68-2.931.119.119 0 0 1-.028-.137c.007-.02.024-.026.05-.02a.13.13 0 0 1 .052.03c.049.046.095.053.14.02ZM92.921 14.449c.036.016.02.1-.05.253a.877.877 0 0 0-.23.223c-.088.12-.165.188-.231.202-.213.047-.48-.079-.803-.377-.018-.129.083-.322.303-.578.437.248.774.34 1.011.277ZM111.556 14.182c.703 1.244 1.383 2.107 2.952 2.128.135-.026.231-.02.287.017.047.033.043.056-.013.068-.648.148-1.236.092-1.766-.166-.408-.197-1.171-.482-1.423-.873a.34.34 0 0 1-.054-.186l.017-.988ZM86.4 14.486l.31.485c.301.791.866 1.247 1.696 1.366-.518.147-1.037-.003-1.558-.449a.696.696 0 0 1-.188-.243.291.291 0 0 0-.15-.152.18.18 0 0 1-.11-.175v-.832ZM116.149 14.917a.43.43 0 0 1-.063-.123.948.948 0 0 0 .682-.14c.045-.028.073-.011.086.053.009.048.027.05.052.006l.077-.146c.043-.077.081-.075.114.006.043.103-.049.192-.277.267a.33.33 0 0 1-.201.002.343.343 0 0 0-.352.085c-.057.051-.096.048-.118-.01ZM25.69 14.553c-.13 1.102-.412 2.084-.847 2.945a7.324 7.324 0 0 0-.377.84.23.23 0 0 1-.1.125.33.33 0 0 0-.147.187c-.067.197-.19.312-.372.344a.26.26 0 0 1-.208-.048c-.075-.056-.18-.058-.312-.007l1.574-3.355a.434.434 0 0 1 .117-.152c.278-.232.502-.526.671-.88Z"/><path d="M117.164 14.573c.133.074.249.172.349.296.021.025.018.047-.008.066-.025.02-.043.021-.052.005-.039-.064-.052-.06-.04.014.004.024.006.048.004.073a.136.136 0 0 0 .077.13c.386.207.637.108.753-.296l.027.322c-.061.044-.157.15-.289.316-.145.184-.305.195-.478.031a.319.319 0 0 0-.187-.087.51.51 0 0 0-.256.035c-.083.035-.124.007-.123-.083l.002-.123c.002-.082-.037-.131-.116-.15a.876.876 0 0 0-.337-.014 1.067 1.067 0 0 0-.348.044c.017-.036.004-.102-.039-.198.851.096 1.205-.031 1.061-.38ZM121.353 14.544c.643 1.374 1.671 2.129 3.084 2.263.5.049.978-.035 1.436-.251.448-.211.864-.486 1.25-.826.549.254.89.263 1.023.027.029-.076.135-.144.316-.204l-.441.818a.856.856 0 0 1-.447.245c-.173-.039-.331.035-.472.223-.433.219-.876.348-1.331.387a5.083 5.083 0 0 1-.787-.084 1.437 1.437 0 0 0-.544.004 4.277 4.277 0 0 1-.55.077c-1.612-.306-2.812-1.106-3.6-2.4l1.063-.279ZM63.897 14.594c.11.287.236.503.376.647.407.775 1.073 1.18 2 1.217-.394.123-.817.091-1.27-.096-.38-.158-.738-.503-1.131-.736a.237.237 0 0 1-.112-.141c-.023-.077-.005-.149.054-.217a.305.305 0 0 0 .075-.197l.008-.477ZM92.871 14.702c-.129.443-.43.65-.904.624a.215.215 0 0 1-.165-.087c-.098-.129-.256-.157-.472-.085.033-.1.126-.235.277-.404.323.298.59.424.803.377.066-.014.143-.081.23-.202a.877.877 0 0 1 .231-.223Z"/><path d="m116.49 15.108.335.067c.068.013.104.055.108.124.014.188-.083.363-.291.527-.077-.034-.073-.15.01-.352.028-.066.008-.114-.058-.143a.331.331 0 0 0-.223-.01c-.025.107-.124.132-.297.074l.068-.243c.121-.035.237-.05.348-.044Z"/><path d="M116.49 15.108a.876.876 0 0 1 .337.015c.079.018.118.068.116.15l-.002.122c-.001.09.04.118.123.083a.51.51 0 0 1 .256-.035.319.319 0 0 1 .187.087c.173.164.333.154.478-.03.132-.167.228-.273.289-.317-.086.341-.356.599-.811.774-.059.04-.147.05-.262.029-.057-.01-.085-.043-.085-.1a.28.28 0 0 0-.008-.081c-.025-.088-.065-.095-.119-.023-.244.322-.57.524-.978.607l.631-.563c.208-.164.305-.34.291-.527-.004-.069-.04-.11-.108-.124l-.335-.067ZM80.662 15.645c.183.015.097.093-.256.233l-.957-.021.543-.672c.286-.129.37-.003.256.378-.02.069.005.107.075.117.125.02.238.009.339-.035ZM59.354 15.341c.157.434.434.75.832.949a.996.996 0 0 1-.744-.21.266.266 0 0 1-.104-.167 1.38 1.38 0 0 1 .016-.572ZM96.378 15.374c.376.348.84.505 1.394.47.29.078.467.234.532.468-.714-.069-1.185-.158-1.412-.268a4.523 4.523 0 0 0-.886-.322c.231-.066.356-.181.372-.348ZM127.312 15.514c.219-.064.352-.029.399.106a.146.146 0 0 0 .129.104l.306.033c-.133.236-.474.227-1.023-.027l.189-.216Z"/><path d="M117.463 15.957a.773.773 0 0 1 .227-.057c.127.002.112.034-.046.096a.624.624 0 0 0-.304.25c-.228.273-.56.397-.996.372a.47.47 0 0 0-.2.036c-.252.105-.557.117-.915.035l.782-.3c.408-.083.734-.285.978-.607.054-.072.094-.065.119.023a.28.28 0 0 1 .008.08c0 .058.028.091.085.1.115.022.203.012.262-.028ZM42.723 15.697c.847.736 1.728 1.083 2.643 1.04.13.063.192.152.183.264-.005.073-.045.11-.118.112-1.469.015-2.93.014-4.385-.004-.298-.004-.535-.153-.71-.447.994.14 1.789-.182 2.387-.965ZM96.006 15.722c.298.073.593.18.886.322.227.11.698.199 1.412.268.107.074.162.167.167.28.002.073-.033.11-.106.111-1.663.046-2.813.051-3.449.015-.302-.018-.572-.217-.81-.597.45.103.815.107 1.095.013-.007.017-.023.017-.048-.003-.015-.014-.014-.025.004-.033l.849-.376Z"/><path d="M111.514 15.792c1.265.656 2.253 1.223 3.715.897.358.082.663.07.915-.035a.47.47 0 0 1 .2-.036c.436.025.768-.1.996-.372l.098.04c.064.024.068.056.013.095l-.947.653c-.855.264-1.769.341-2.741.233-.662-.075-1.204-.385-1.841-.534-.079-.02-.141.005-.185.074l-.108.177a.209.209 0 0 1-.225.102c-.394-.06-.608-.245-.643-.555l.529-.027a.124.124 0 0 0 .116-.12 1.425 1.425 0 0 0-.062-.419c-.031-.105.026-.163.17-.173ZM.784 15.867c.282.291.548.583.796.874.327.385.614.636.861.75a4.01 4.01 0 0 0 1.217.348c.062.007.12.03.17.065a4.85 4.85 0 0 0 1.64.738c.098.035.164.089.197.162.032.07.01.106-.066.11-1.44.07-2.758 0-3.907-.823-.751-.54-1.054-1.28-.908-2.224ZM55.908 16.733c-.04-.092-.043-.171-.009-.238a.177.177 0 0 1 .156-.102c.444-.027.823-.137 1.138-.328.103-.146.258-.2.466-.165a.191.191 0 0 1 .15.139.187.187 0 0 1-.063.192c-.553.454-1.16.408-1.838.502ZM53.9 16.587c.111.12.187.243.227.37a.136.136 0 0 1-.067.162.134.134 0 0 1-.062.015c-.916 0-1.816.003-2.7.01a1.075 1.075 0 0 1-.376-.066c-.571-.21-.702-.148-.393.185-.192.022-.29-.145-.298-.501l1.78-.56a.433.433 0 0 1 .348.037c.407.238.846.401 1.319.491.12.023.193-.025.223-.143ZM16.704 18.59c.126-.362.127-.67.004-.921-.03-.063-.056-.06-.077.006l-.212.682a.908.908 0 0 0-.258.279.446.446 0 0 1-.133.145l-.886.614 1.938-3.116a.105.105 0 0 1 .125-.043.104.104 0 0 1 .04.026c.455.485.282 1.321.206 1.953a.46.46 0 0 1-.202.35.13.13 0 0 1-.118.012.124.124 0 0 1-.076-.089.125.125 0 0 0-.027-.058c-.03-.038-.067-.045-.11-.021-.07.04-.142.1-.214.18ZM19.782 16.435l.22.705-.05 1.88-.028-.19.01-.84-.187-1.305a.55.55 0 0 1 .035-.25ZM29.779 16.537l1.021.102c-.268.116-.596.166-.984.148-.054-.056-.066-.14-.037-.25ZM127.574 16.616a.956.956 0 0 1-.472.223c.141-.188.299-.262.472-.223ZM147.23 17.406c.14.132.204.26.191.383a.123.123 0 0 1-.12.112 106.13 106.13 0 0 1-4.555.017 1.083 1.083 0 0 1-.903-.47c1.005.212 1.816-.044 2.433-.77a.25.25 0 0 1 .356-.02c.678.624 1.504.94 2.477.95.07.002.107-.032.113-.102l.008-.1ZM77.814 16.647l-1.306-.002c.45.143.885.144 1.306.002ZM87.788 16.622a.333.333 0 0 1 .227.03l.921.035c.028.001.04.016.04.043l-.005.059c-.001.034-.02.05-.054.047-.54-.036-.879-.065-1.019-.089-.093-.017-.13-.058-.11-.125ZM68.614 16.863l.069.154c-.355.355-.705.573-1.05.654l-.067-.47c.032-.299.24-.422.622-.37.15.019.292.03.426.032ZM125.771 17.226l-1.881-.003c.186-.014.369-.04.55-.077.181-.036.363-.037.544-.004.25.047.512.075.787.084Z"/><path d="M20.003 17.14c.674 3.282-.974 6.221-3.688 7.93a2.832 2.832 0 0 1-1.15.434c-3.792.49-7.247-.582-9.924-3.364l1.726.8c.576.214 1.147.437 1.714.669.744.305 1.321.509 1.733.611 1.508.377 3.985.668 5.354-.187a8.258 8.258 0 0 0 2.594-2.537c.152-.208.29-.327.411-.356.078-.02.13.008.159.083.023.065.065.091.124.077a.227.227 0 0 0 .144-.102 4.84 4.84 0 0 0 .753-2.178l.05-1.88Z"/><path d="M16.419 18.357a4.383 4.383 0 0 1-1.06 1.51.09.09 0 0 1-.074.024.084.084 0 0 1-.062-.043c-.07-.12-.241-.099-.512.065.095-.207.238-.38.43-.518l.887-.614a.446.446 0 0 0 .133-.145.908.908 0 0 1 .258-.279ZM19.924 18.83l.029.19a4.84 4.84 0 0 1-.753 2.178.227.227 0 0 1-.144.102c-.06.014-.1-.012-.125-.077-.027-.075-.08-.102-.158-.083-.122.03-.259.148-.411.356.202-.438.4-.858.592-1.259.088-.179.333-.414.737-.707a.256.256 0 0 0 .106-.158l.127-.543ZM16.515 19.214c.206.064.399.203.578.418.044.054.049.112.014.173-.378.668-.947 1.345-1.705 2.032-.567.513-1.06.703-1.48.57.41-.293.768-.521 1.074-.685a.197.197 0 0 0 .068-.286.198.198 0 0 0-.085-.07c-.067-.028-.103-.094-.108-.195a5.122 5.122 0 0 0 1.644-1.957Z"/><path d="M14.871 21.171c.005.101.04.167.108.196a.198.198 0 0 1 .017.355 9.998 9.998 0 0 0-1.073.685c-1.112.459-2.177.733-3.195.823-.308.028-.922.032-1.843.013-.676-.015-1.138-.16-1.71-.47a.179.179 0 0 0-.226.046.406.406 0 0 0 .018.12l-1.726-.799a1.84 1.84 0 0 1-.302-.332c-.1-.139-.071-.173.086-.102 3.093 1.408 6.953 1.37 9.846-.535ZM19.429 23.482l.468.073a.4.4 0 0 0 .197-.017.465.465 0 0 1 .212-.029c-.223.239-.463.325-.72.26a.3.3 0 0 0-.193.015.985.985 0 0 1-.358.075 1.38 1.38 0 0 1 .394-.377Z"/></g><defs><clipPath id="a"><path fill="#fff" d="M.432.001h149.136v26H.432z"/></clipPath></defs></svg>