<svg xmlns="http://www.w3.org/2000/svg" width="78" height="30" fill="none"><path fill="#00AB55" fill-rule="evenodd" d="M6.8 28.408c0 .78-.535 1.592-1.997 1.592-.935 0-1.633-.358-2.08-.86l.407-.52a2.235 2.235 0 0 0 1.697.779c.967 0 1.275-.52 1.275-.943 0-.642-.677-.824-1.41-1.02-.86-.233-1.798-.485-1.798-1.53 0-.893.796-1.51 1.868-1.51.82 0 1.462.284 1.917.763l-.406.495c-.407-.454-.975-.65-1.568-.65-.642 0-1.113.35-1.113.861 0 .533.613.7 1.303.887.889.241 1.906.518 1.906 1.656Zm9.47-3.322v4.816h-.674v-4.816h-1.713v-.601h4.11v.601H16.27Zm13.54 2.705c0 1.348-.747 2.209-2.217 2.209-1.462 0-2.21-.87-2.21-2.201v-3.314h.683v3.297c0 .991.528 1.617 1.527 1.617.998 0 1.535-.626 1.535-1.617v-3.297h.682v3.306Zm8.439 1.51h1.177c1.316 0 2.08-.942 2.08-2.103 0-1.17-.74-2.112-2.08-2.112h-1.178v4.216Zm3.955-2.103c0 1.543-1.089 2.704-2.778 2.704h-1.852v-5.417h1.852c1.69 0 2.778 1.178 2.778 2.713Zm8.227 2.704h-.674v-5.417h.675v5.417Zm8.244-2.704c0 1.258.771 2.2 1.99 2.2 1.21 0 1.998-.942 1.998-2.2 0-1.268-.788-2.201-1.998-2.201-1.219 0-1.99.933-1.99 2.201Zm4.687 0c0 1.6-1.097 2.802-2.697 2.802s-2.688-1.202-2.688-2.802 1.088-2.803 2.688-2.803 2.697 1.202 2.697 2.803Zm11.297 1.21c0 .78-.536 1.592-1.998 1.592-.934 0-1.633-.358-2.08-.86l.407-.52a2.235 2.235 0 0 0 1.697.779c.967 0 1.275-.52 1.275-.943 0-.642-.677-.824-1.41-1.02-.86-.233-1.798-.485-1.798-1.53 0-.893.796-1.51 1.868-1.51.82 0 1.462.284 1.917.763l-.406.495c-.406-.454-.975-.65-1.568-.65-.641 0-1.112.35-1.112.861 0 .533.612.7 1.302.887.889.241 1.906.518 1.906 1.656ZM56.173 19.16l.011-6 7.165 6h10.57l-10.78-9.047 10.667-8.82H63.58l-7.424 5.32.025-5.32h-7.735v11.28H33.103V1.203l-26.087.024c-.543 0-2.411.101-3.606 1.398C1.96 4.199 1.966 6.11 1.984 6.498L1.98 14.15c-.004.277.03 2.09 1.443 3.583 1.275 1.348 3.058 1.494 3.764 1.494.068 0 .136-.002.204-.005h18.992v-.001l23.444-.06h6.345ZM77.148.09l-12.13 10.03 12.205 10.243h-14.31l-5.531-4.632-.009 4.632h-6.342l-23.444.06-20.4.005c-.861 0-3.04-.182-4.636-1.87C.845 16.757.774 14.584.778 14.143l.003-7.619C.755 5.85.819 3.663 2.526 1.81 4.052.153 6.349.024 7.016.024L34.306 0v11.37h12.937V.09H57.39l-.02 4.174L63.193.091h13.954ZM25.182 6.65V2.437L7.066 2.432s-1.788-.059-2.771 1.01C3.07 4.768 3.186 6.467 3.186 6.467l-.002 7.691s-.035 1.533 1.114 2.748c1.184 1.252 3.06 1.113 3.06 1.113h17.824v-4.212H9.585s-.317.033-.66-.272c-.249-.22-.263-.637-.263-.637l-.005-.564h16.495V8.213H8.664v-.578s-.022-.406.245-.702c.282-.313.748-.284.748-.284h15.525ZM31.9 2.405h-5.444V18.02h22.17v-4.241H31.9V2.405Zm38.564.09h-6.497L54.94 8.965l.032-6.467h-5.325v15.462h5.325l.014-7.37 8.8 7.37h6.828l-9.355-7.851 9.204-7.611Z" clip-rule="evenodd"/></svg>