<svg width="48" height="32" fill="none" xmlns="http://www.w3.org/2000/svg"><g clip-path="url(#a)"><path fill-rule="evenodd" clip-rule="evenodd" d="m9.207 4.226-.77-2.122c-.082-.222-.232-.292-.45-.21L2.895 3.803c-.22.082-.288.234-.208.456l5.754 15.898c.082.224.23.293.45.211l2.089-.783c.219-.082.288-.234.207-.457l-2.603-7.22 2.324-.872c.218-.082.288-.234.207-.456l-.771-2.122c-.08-.222-.23-.293-.45-.21l-2.323.87-1.247-3.432L9 4.683c.22-.082.289-.234.208-.457Zm12.698 13.007-.234-2.447c-.024-.232-.153-.336-.385-.311l-2.836.299-.537-5.1 2.462-.26c.232-.024.336-.152.311-.384l-.233-2.214c-.025-.232-.153-.336-.385-.311l-2.463.26-.378-3.582 2.836-.3c.232-.024.336-.152.312-.384l-.2-2.183c-.025-.232-.153-.336-.385-.312l-5.432.561c-.232.025-.335.153-.311.385l1.78 16.964c.024.232.152.336.384.311l5.382-.608c.232-.023.336-.152.312-.384Zm10.06.691.332-2.256c.033-.232-.066-.365-.297-.398l-3.07-.442L30.967.594C31 .362 30.901.229 30.67.196L28.442.007c-.232-.033-.364.067-.397.298l-2.42 16.913c-.033.232.065.365.297.398l5.645.607c.232.033.364-.067.397-.299ZM44.522 6.326l.75-2.038c.083-.218.013-.369-.205-.451l-6.106-2.223c-.219-.082-.37-.014-.452.204l-.681 1.989c-.082.218-.015.368.204.45l1.639.617-5.152 13.62a.325.325 0 0 0 .017.274.35.35 0 0 0 .188.177l2.142.657c.218.082.368.014.45-.205L42.41 5.905l1.663.626c.218.082.367.014.45-.205ZM13.65 27.67v-2.82h1.036c.126 0 .19-.064.19-.19v-.382a.191.191 0 0 0-.054-.13.177.177 0 0 0-.136-.06h-1.416a.378.378 0 0 0-.38.381v7.152a.37.37 0 0 0 .106.274.37.37 0 0 0 .274.107h1.415c.127 0 .191-.064.191-.19v-.381a.192.192 0 0 0-.054-.131.178.178 0 0 0-.136-.06h-1.036v-2.808h1.036c.055 0 .1-.02.136-.06a.193.193 0 0 0 .054-.13v-.381c0-.127-.064-.19-.19-.19h-1.036Zm3.713-2.213v.405c0 .127.064.19.19.19h.381c.127 0 .191-.063.191-.19v-.405c0-.19-.036-.367-.107-.53a1.418 1.418 0 0 0-.732-.732 1.298 1.298 0 0 0-.53-.107c-.19 0-.367.036-.53.107a1.416 1.416 0 0 0-.731.732c-.071.163-.107.34-.107.53v.607c0 .071.001.143.006.214a.91.91 0 0 0 .024.155c.011.047.033.1.065.154.045.08.088.159.13.238l1.714 3.023a.423.423 0 0 1 .03.072.698.698 0 0 1 .006.118v.595a.6.6 0 0 1-.178.44.587.587 0 0 1-.429.18.586.586 0 0 1-.428-.18.6.6 0 0 1-.179-.44v-.404a.192.192 0 0 0-.053-.131.176.176 0 0 0-.137-.06h-.381a.175.175 0 0 0-.137.06.192.192 0 0 0-.053.131v.404a1.346 1.346 0 0 0 .404.97c.126.123.273.221.435.292.162.071.339.107.53.107.19 0 .366-.036.529-.107.161-.07.308-.17.434-.292a1.342 1.342 0 0 0 .405-.97v-.595c0-.087-.002-.156-.006-.208a.618.618 0 0 0-.09-.303 11.96 11.96 0 0 1-.13-.239l-1.714-3.022a.39.39 0 0 1-.03-.071.762.762 0 0 1-.006-.131v-.607c0-.167.06-.31.179-.429a.586.586 0 0 1 .428-.178c.167 0 .31.06.429.178.119.12.178.262.178.429Zm3.368-1.179a.19.19 0 0 0-.054-.13.177.177 0 0 0-.137-.06h-1.832a.176.176 0 0 0-.137.06.192.192 0 0 0-.054.13v.382c0 .127.064.19.19.19h.536v6.961c0 .127.064.191.19.191h.382c.126 0 .19-.064.19-.19v-6.962h.535c.127 0 .191-.064.191-.19v-.382Zm3.344 5.784c0-.071.002-.115.006-.131a.397.397 0 0 1 .03-.071l1.713-3.023c.055-.103.101-.184.137-.244a.63.63 0 0 0 .095-.31c.004-.051.006-.12.006-.207v-.607c0-.191-.036-.369-.107-.536a1.386 1.386 0 0 0-.738-.738 1.34 1.34 0 0 0-.536-.107c-.19 0-.367.036-.53.108a1.416 1.416 0 0 0-.731.737 1.346 1.346 0 0 0-.107.536v.404c0 .127.063.19.19.19h.381c.127 0 .19-.063.19-.19v-.404c0-.175.06-.322.18-.44a.586.586 0 0 1 .427-.18.6.6 0 0 1 .44.18c.12.119.18.265.18.44v.607a.741.741 0 0 1-.007.119.433.433 0 0 1-.03.071L23.538 29.3c-.056.103-.1.184-.131.244a.735.735 0 0 0-.09.308 2.75 2.75 0 0 0-.005.209v1.75c0 .126.063.19.19.19h2.369c.047 0 .09-.018.13-.054a.178.178 0 0 0 .06-.137v-.38a.184.184 0 0 0-.06-.131.186.186 0 0 0-.13-.06h-1.797v-1.178Zm4.878-5.867a1.341 1.341 0 0 0-.535-.107 1.334 1.334 0 0 0-.97.405 1.428 1.428 0 0 0-.291.44 1.347 1.347 0 0 0-.108.536v5.164a1.357 1.357 0 0 0 1.369 1.369 1.352 1.352 0 0 0 .97-.4 1.375 1.375 0 0 0 .399-.969v-5.164c0-.191-.036-.369-.107-.536a1.446 1.446 0 0 0-.292-.44 1.325 1.325 0 0 0-.434-.298Zm-.107.833c.12.12.179.266.179.44v.727c0 .015-.008.04-.024.071l-1.19 2.095v-2.892c0-.175.06-.322.179-.44a.586.586 0 0 1 .428-.18c.167 0 .31.06.428.18Zm-1 4.832 1.179-2.095v2.868c0 .167-.06.31-.179.428a.58.58 0 0 1-.428.18.582.582 0 0 1-.428-.18.583.583 0 0 1-.179-.428v-.571c0-.071.002-.115.006-.131a.455.455 0 0 1 .03-.071Zm4.142-5.39a.368.368 0 0 0-.113-.269.365.365 0 0 0-.267-.113h-1a.176.176 0 0 0-.137.06.19.19 0 0 0-.054.13v.382c0 .127.064.19.19.19h.62v6.961c0 .127.063.191.19.191h.38a.192.192 0 0 0 .131-.054.177.177 0 0 0 .06-.137v-7.342Zm3.267 3.135c.075-.17.112-.351.112-.542v-1.594a1.384 1.384 0 0 0-1.91-1.273 1.413 1.413 0 0 0-.731.738 1.347 1.347 0 0 0-.108.535v.404c0 .127.064.191.191.191h.38c.128 0 .191-.064.191-.19v-.405c0-.167.06-.31.179-.428a.581.581 0 0 1 .428-.18c.174 0 .321.06.44.18a.585.585 0 0 1 .179.428v1.595c0 .166-.06.309-.178.428a.597.597 0 0 1-.441.178c-.127 0-.19.064-.19.19v.381c0 .127.063.191.19.191.174 0 .321.059.44.179a.585.585 0 0 1 .179.428v1.594c0 .167-.06.31-.178.428a.597.597 0 0 1-.441.18.581.581 0 0 1-.428-.18.58.58 0 0 1-.179-.428v-.404c0-.127-.063-.19-.19-.19h-.38c-.128 0-.192.063-.192.19v.404a1.348 1.348 0 0 0 .405.97c.126.123.273.222.434.292.163.071.34.107.53.107s.369-.036.535-.107c.164-.07.313-.168.44-.292a1.339 1.339 0 0 0 .404-.97v-1.594c.001-.19-.036-.371-.111-.542a1.382 1.382 0 0 0-.316-.446c.134-.126.241-.278.316-.446Zm-35.142-.88h9.502v-1.046H.112v1.046Zm0 2.112h9.502v-1.045H.112v1.045Zm0 2.113h9.502v-1.046H.112v1.046Zm47.776-4.225h-9.502v-1.046h9.502v1.046Zm0 2.112h-9.502v-1.045h9.502v1.045Zm0 2.113h-9.502v-1.046h9.502v1.046Z" fill="#919EAB"/></g><defs><clipPath id="a"><path fill="#fff" transform="translate(.112 .001)" d="M0 0h47.777v32H0z"/></clipPath></defs></svg>