<svg width="78" height="28" fill="none" xmlns="http://www.w3.org/2000/svg"><g clip-path="url(#a)"><path fill-rule="evenodd" clip-rule="evenodd" d="M11.667 19.686 9.23 15.544l-2.244-3.876h-.01L.36.488 22.971.51l-2.345 4.028L7.42 4.518l1.847 3.12h9.503l-2.345 4.03H11.71l2.324 4.012-.001.002 2.343 4.046 4.77-8.061h-2.351l2.345-4.03h6.956L16.357 27.664l-4.69-7.977ZM36.228 9.104H32.61v2.001h2.965v1.48H32.61v3.045h-1.634V7.624h5.252v1.48Zm4.55 6.671c1.937 0 3.389-1.31 3.389-3.457V7.624h-1.634v4.816c0 1.2-.75 1.819-1.755 1.819-.992 0-1.754-.619-1.754-1.82V7.625H37.39v4.694c0 2.147 1.44 3.457 3.388 3.457Zm12.344-6.562-1.162.958c-.533-.74-1.246-1.176-2.227-1.176-1.549 0-2.565 1.104-2.565 2.632 0 1.553 1.053 2.68 2.662 2.68.932 0 1.67-.388 2.106-.994v-.655h-2.203v-1.42h3.837v2.366c-.702 1.262-2.106 2.171-3.812 2.171-2.397 0-4.273-1.795-4.273-4.148 0-2.353 1.864-4.148 4.273-4.148 1.427 0 2.602.642 3.364 1.734Zm3.195 5.374h3.267l.448 1.043h1.755l-3.558-8.151h-.545l-3.57 8.15h1.755l.448-1.042Zm.569-1.347 1.064-2.705 1.066 2.705h-2.13ZM67.97 8.995l-1.113.861c-.387-.582-.871-.922-1.525-.922-.532 0-.992.243-.992.776 0 .461.351.655.932.922l.907.4c1.259.559 1.973 1.201 1.973 2.342 0 1.492-1.21 2.401-2.795 2.401-1.38 0-2.493-.703-3.086-1.77l1.125-.85c.436.607 1.005 1.165 1.96 1.165.703 0 1.138-.328 1.138-.886 0-.521-.387-.703-1.016-.994l-.86-.388c-1.137-.522-1.936-1.177-1.936-2.305 0-1.383 1.15-2.268 2.65-2.268 1.272 0 2.167.642 2.638 1.516Zm5.41 6.78c2.348 0 4.26-1.795 4.26-4.148 0-2.353-1.912-4.148-4.26-4.148s-4.236 1.795-4.236 4.148c0 2.353 1.888 4.148 4.236 4.148Zm.012-1.516c-1.489 0-2.566-1.08-2.566-2.632 0-1.54 1.077-2.632 2.566-2.632 1.464 0 2.566 1.091 2.566 2.632 0 1.553-1.102 2.632-2.566 2.632Z" fill="#00AB55"/></g><defs><clipPath id="a"><path fill="#fff" transform="translate(.36 .001)" d="M0 0h77.28v28H0z"/></clipPath></defs></svg>