<svg width="130" height="32" fill="none" xmlns="http://www.w3.org/2000/svg"><g clip-path="url(#a)"><path fill-rule="evenodd" clip-rule="evenodd" d="M17.03.001h-.378L.8 16.607v.378l15.692 15.016h.386l9.452-9.872a.524.524 0 0 0-.014-.74l-8.466-8.134c-.284-.273-.562-.268-.834.016l-3.006 3.144a.58.58 0 0 0-.111.631.57.57 0 0 0 .129.183l4.466 4.238a.646.646 0 0 1 .024.912l-1.624 1.718a.542.542 0 0 1-.764.02l-7.438-7.092a.556.556 0 0 1-.018-.786l7.948-8.332a.525.525 0 0 1 .746-.016l6.128 5.878a.506.506 0 0 0 .714-.016l3.102-3.232a.484.484 0 0 0-.016-.684L17.03.001Zm31.83 19.224c.764.041 1.513.057 2.246.046.356-.005.737.003 1.134.011.69.015 1.425.03 2.148-.021a.166.166 0 0 0 .15-.138c.039-.237.06-.471.062-.702.013-1.48.038-2.966.074-4.458a21.463 21.463 0 0 0-.062-2.278c-.023-.26-.164-.393-.424-.398l-5.038-.112a.229.229 0 0 0-.232.154c-.068.173-.101.36-.1.558.024 2.319.03 4.757.018 7.314 0 .016.008.024.024.024Zm2.05-1.878.022-4.2a.233.233 0 0 1 .234-.232l1.104.004a.524.524 0 0 1 .147.023.14.14 0 0 1 .044.025c.01.01.015.02.015.03l-.024 4.516c0 .02-.023.039-.061.053a.44.44 0 0 1-.145.021l-1.104-.004a.231.231 0 0 1-.165-.07.234.234 0 0 1-.067-.166Zm-6.298-1.216-.026 2.98c-.001.128-.066.191-.194.19l-1.704-.026c-.11-.003-.163-.059-.162-.168.027-2.199.019-4.335-.024-6.41-.005-.238.012-.476.028-.714.012-.18.025-.36.028-.542a.126.126 0 0 1 .124-.124l5.184-.058c.208-.001.311.101.31.308l-.006 1.04c-.001.248-.126.371-.374.37l-3.074-.02c-.083 0-.124.04-.124.122l.004 1.086c0 .075.037.113.112.114l1.718.02c.252.003.383.13.392.382l.034.864c.01.244-.108.373-.352.386l-1.786.088c-.07.004-.107.041-.108.112Zm30.128-4.532-.016 2.616a.138.138 0 0 1-.138.136h-1.39c-.09 0-.135-.045-.132-.134.03-.915.011-1.83-.058-2.744-.01-.132-.08-.205-.212-.218a5.263 5.263 0 0 0-1.528.044c-.185.035-.28.145-.282.332-.045 2.339-.035 4.767.032 7.286.007.253.137.374.39.362l1.352-.064c.187-.008.281-.106.284-.294l.036-2.71c.001-.107.055-.16.162-.16h1.316c.055 0 .107.022.146.06.039.038.06.09.062.146l.038 2.742c.003.196.101.29.296.282l1.454-.06c.173-.008.26-.099.26-.272v-7.394a.348.348 0 0 0-.38-.346 5.683 5.683 0 0 1-.51.014c-.344 0-.694 0-.998.114a.256.256 0 0 0-.184.262Zm13.908 5.972 1.248-.054c.104-.004.162-.058.174-.162l.018-.15c.016-.136-.045-.204-.182-.204h-.456c-.2 0-.303-.1-.31-.3l-.018-.498c-.007-.19.086-.292.278-.304a20.047 20.047 0 0 1 2.61.006c.157.01.235.095.232.254l-.038 2.828a.34.34 0 0 1-.34.334h-5.132c-.192 0-.288-.096-.288-.288l.022-7.58a.2.2 0 0 1 .162-.196c.17-.03.345-.043.522-.038 1.653.05 3.276.072 4.868.068a.177.177 0 0 1 .178.18l-.004 2.678c-.001.224-.113.335-.336.334l-1.452-.008c-.175-.001-.261-.09-.26-.264l.006-1.056c0-.068-.033-.102-.1-.102l-1.354.006c-.067 0-.1.033-.102.1l-.068 4.296c-.001.083.04.123.122.12Zm16.462-.152-.05-4.362a.132.132 0 0 1 .039-.096.13.13 0 0 1 .095-.04h1.4a.123.123 0 0 1 .086.036.113.113 0 0 1 .027.04.128.128 0 0 1 .009.048l-.044 5.934c-.001.205.101.305.306.3l1.558-.034a.28.28 0 0 0 .274-.28l-.044-7.558c0-.073-.037-.11-.112-.11-2.872.001-5.873-.025-9.004-.08a.354.354 0 0 0-.32.19c-.036.065-.052.18-.048.344.053 2.267.069 4.674.046 7.222-.001.164.08.247.244.248l1.476.004c.16 0 .237-.08.232-.24a67.794 67.794 0 0 1 .074-6.03c.004-.065.039-.098.104-.098l1.39-.008c.013 0 .026.002.039.007a.11.11 0 0 1 .033.022.105.105 0 0 1 .03.071v4.452c0 .2.1.3.3.3l1.582-.002c.187 0 .279-.093.278-.28Zm21.04-.206v-1.006c0-.128-.065-.191-.194-.19l-3.016.046c-.268.004-.405-.128-.41-.396l-.068-4.088a.273.273 0 0 1 .25-.28c1.16-.1 2.304-.066 3.437-.032.626.018 1.249.036 1.871.032.204-.001.313.1.328.304l.062.9c.016.244-.098.363-.342.358a27.826 27.826 0 0 0-3.092.09c-.156.015-.242.1-.258.256l-.08.836c-.016.152.053.23.206.232l3.204.064c.171.004.255.091.252.262l-.08 4.456a.226.226 0 0 1-.226.22l-5.126-.004c-.168 0-.257-.085-.266-.254l-.058-1.16a.303.303 0 0 1 .18-.291.297.297 0 0 1 .118-.025l2.998-.018c.207-.001.31-.105.31-.312ZM57.4 19.007V16.75c0-.188.053-.204.158-.048l1.458 2.18c.17.256.409.385.714.386l1.322.006c.236 0 .293-.1.172-.302l-1.734-2.868c-.032-.055-.018-.093.042-.114 1.224-.432 1.82-1.258 1.788-2.478-.036-1.412-1.418-2.248-2.722-2.25a73.074 73.074 0 0 0-3.08.06.147.147 0 0 0-.094.038.143.143 0 0 0-.046.09c-.032.292-.05.574-.054.846a224.4 224.4 0 0 0-.012 6.816.138.138 0 0 0 .085.124c.016.007.033.01.051.01l1.748-.032a.208.208 0 0 0 .204-.208Zm-.036-4.874v-.876a.16.16 0 0 1 .099-.147.16.16 0 0 1 .061-.011l1.198.002a.538.538 0 0 1 .39.168.572.572 0 0 1 .16.404v.052a.586.586 0 0 1-.163.402.55.55 0 0 1-.391.166l-1.198-.002a.158.158 0 0 1-.156-.158Zm8.992-1.194-1.492.028c-.17.004-.26-.08-.27-.252l-.054-1.064c-.01-.2.085-.303.284-.31a88.226 88.226 0 0 1 5.252-.028c.156.004.235.084.238.24l.012 1.136c.001.16-.078.241-.238.244l-1.35.024c-.168.004-.252.09-.252.256l-.03 5.706c-.001.216-.11.325-.324.326l-1.34.008c-.21.001-.314-.102-.314-.31l-.004-5.886c0-.08-.04-.12-.118-.118Zm14.956 1.348-1.62-.004c-.093-.001-.14-.048-.14-.14l-.004-1.036c0-.099.05-.148.148-.148l3.046.018c.247.001.37-.121.372-.368l.01-1.028c.003-.216-.104-.323-.32-.32l-5.162.054a.112.112 0 0 0-.108.092c-.061.364-.09.746-.084 1.146.033 2.344.04 4.51.018 6.496-.003.15.071.225.222.226l5.048.034c.333.001.493-.164.48-.496l-.032-.878c-.01-.241-.135-.36-.376-.354l-3.162.064c-.065.001-.098-.03-.098-.096v-1.44c0-.06.03-.091.092-.094l1.67-.058c.332-.01.496-.183.492-.516l-.01-.678c-.005-.316-.166-.475-.482-.476Zm15.12-1.322-1.472.018c-.143.001-.195.07-.158.208.045.17.055.34.028.506-.013.083-.062.124-.146.124l-1.582-.002a.208.208 0 0 1-.195-.134.215.215 0 0 1-.015-.082l.038-2.2a.118.118 0 0 1 .118-.116l5.298.006c.203 0 .305.101.306.304l.026 7.43a.256.256 0 0 1-.157.235.25.25 0 0 1-.097.019l-5.324-.024a.208.208 0 0 1-.206-.206l-.026-4.432c-.001-.177.087-.265.264-.264l3.286.012a.13.13 0 0 0 .093-.04.135.135 0 0 0 .039-.094v-1.15c0-.079-.04-.118-.118-.118Zm.117 3.127a.093.093 0 0 0-.057-.085.092.092 0 0 0-.035-.007l-1.496.006a.093.093 0 0 0-.091.092l.004 1.428a.092.092 0 0 0 .093.091l1.496-.005a.093.093 0 0 0 .085-.057.092.092 0 0 0 .007-.035l-.006-1.428Zm14.981.023c.001-.085.045-.126.13-.122a10.14 10.14 0 0 0 1.724-.066c.269-.032.401-.183.396-.454l-.016-.726c-.007-.305-.163-.459-.468-.46l-1.594-.004c-.12 0-.18-.06-.18-.18l-.002-.982a.164.164 0 0 1 .098-.15.163.163 0 0 1 .062-.012l3.056.018c.24.001.361-.119.362-.36l.002-1.062c.001-.2-.097-.299-.296-.296l-5.158.058c-.104.001-.159.054-.166.158a24.59 24.59 0 0 0-.038 2.186c.034 1.191.025 2.355.016 3.53v.001c-.005.65-.01 1.303-.008 1.967a.12.12 0 0 0 .116.116l5.244.034c.28.001.413-.138.398-.418l-.044-.908c-.015-.272-.158-.405-.43-.4l-3.082.058c-.093.001-.139-.045-.138-.138l.016-1.388Zm6.388.58.006 2.298c0 .145-.072.22-.216.222l-1.72.034a.158.158 0 0 1-.162-.16l.012-7.472c.001-.201.102-.304.302-.308a261.5 261.5 0 0 1 2.988-.054c.507-.007 1.012.127 1.516.4 1.104.598 1.498 1.822 1.004 2.988-.256.604-.781 1.053-1.576 1.346a.087.087 0 0 0-.052.052c-.004.012-.006.025-.004.038a.077.077 0 0 0 .012.036l1.728 2.85c.127.21.068.313-.176.31l-1.296-.008a.863.863 0 0 1-.75-.404l-1.478-2.21c-.092-.137-.138-.123-.138.042Zm-.024-3.468.008.952c0 .032.013.062.035.085a.12.12 0 0 0 .085.035l1.242-.008a.514.514 0 0 0 .379-.17.573.573 0 0 0 .155-.402v-.056a.587.587 0 0 0-.16-.4.525.525 0 0 0-.382-.164l-1.242.008a.121.121 0 0 0-.085.035.122.122 0 0 0-.035.085Zm-85.092 2.618a3.48 3.48 0 1 1-6.96 0 3.48 3.48 0 0 1 6.96 0Z" fill="#00AB55"/></g><defs><clipPath id="a"><path fill="#fff" transform="translate(.8 .001)" d="M0 0h128.4v32H0z"/></clipPath></defs></svg>