<svg width="116" height="26" fill="none" xmlns="http://www.w3.org/2000/svg"><path fill-rule="evenodd" clip-rule="evenodd" d="M91.847 11.353c0 1.8 1.47 3.273 3.266 3.273a3.279 3.279 0 0 0 3.265-3.273c0-1.8-1.47-3.273-3.265-3.273a3.279 3.279 0 0 0-3.266 3.273Zm0-5.789a6.537 6.537 0 0 1 3.266-.86c3.653 0 6.612 2.987 6.612 6.649s-2.98 6.648-6.633 6.648-6.633-2.986-6.633-6.648V0h3.388v5.564ZM18.254 18.002h-3.367v-6.75c0-3.662 2.98-6.649 6.633-6.649V8a3.279 3.279 0 0 0-3.266 3.273v6.73Zm-14.696-6.69c0 1.82 1.47 3.293 3.286 3.293 1.796 0 3.266-1.473 3.286-3.293 0-1.82-1.47-3.293-3.286-3.293a3.287 3.287 0 0 0-3.286 3.293Zm6.572-6.69h3.388v6.69c0 3.682-2.98 6.689-6.674 6.689a6.666 6.666 0 0 1-6.673-6.669c0-3.682 3-6.689 6.673-6.689 1.204 0 2.306.307 3.286.86v-.88ZM.15 26H3.54c0-1.8 1.449-3.273 3.245-3.252h6.735v-3.396H6.784C3.13 19.352.15 22.34.15 26Zm73.473-14.647c0 3.662 2.98 6.648 6.653 6.648 3.653 0 6.633-2.987 6.654-6.648v-6.73h-3.388v6.73c0 1.8-1.47 3.273-3.266 3.273a3.279 3.279 0 0 1-3.265-3.273v-6.73h-3.388v6.73ZM63.908 18H60.56v-6.71c0-1.8-1.469-3.272-3.265-3.272a3.279 3.279 0 0 0-3.265 3.273v6.71h-3.388v-6.71c0-3.662 2.98-6.648 6.633-6.648s6.633 2.986 6.633 6.648v6.71Zm8.041-9.982V4.623h-3.265V0h-3.388v11.312c0 3.662 2.98 6.648 6.633 6.648v-3.375a3.279 3.279 0 0 1-3.266-3.273V8.02h3.286Zm-36.736 3.335c0 .593-.082 1.166-.225 1.698h-7.347V9.656h3.694a3.274 3.274 0 0 0-2.796-1.575 3.279 3.279 0 0 0-3.265 3.273c0 1.8 1.47 3.273 3.265 3.273.674 0 1.306-.205 1.837-.573h4.245a6.62 6.62 0 0 1-6.062 3.948c-3.653 0-6.612-2.987-6.612-6.648 0-3.662 2.98-6.648 6.633-6.648s6.633 2.986 6.633 6.648Zm6.796 1.698V9.656h3.694a3.273 3.273 0 0 0-2.796-1.575 3.279 3.279 0 0 0-3.265 3.273c0 1.8 1.469 3.273 3.265 3.273.673 0 1.306-.205 1.837-.573h4.245a6.598 6.598 0 0 1-6.062 3.948c-3.653 0-6.633-2.987-6.633-6.648 0-3.662 2.98-6.648 6.633-6.648 3.654 0 6.633 2.986 6.633 6.648 0 .593-.082 1.145-.224 1.698h-7.327Zm66.288 0h7.327a6.673 6.673 0 0 0 .225-1.698c0-3.662-2.98-6.648-6.633-6.648-3.674 0-6.633 2.986-6.633 6.648 0 3.661 2.98 6.648 6.633 6.648 2.694 0 5.02-1.616 6.061-3.948h-4.245a3.203 3.203 0 0 1-1.837.573 3.278 3.278 0 0 1-3.265-3.273c0-1.8 1.469-3.273 3.265-3.273 1.184 0 2.225.634 2.796 1.575h-3.694v3.396Z" fill="#00AB55"/></svg>