<svg width="126" height="26" fill="none" xmlns="http://www.w3.org/2000/svg"><path d="M7.77 1.144a.57.57 0 1 0 0-1.14.57.57 0 0 0 0 1.14ZM10.07.652h-.046a.547.547 0 0 0-.544.55l.009 1.692a.547.547 0 0 0 .55.545h.046a.547.547 0 0 0 .545-.55l-.01-1.692a.547.547 0 0 0-.55-.545ZM7.75 2.167h.045c.303 0 .548.247.548.55L8.34 4.409a.548.548 0 0 1-.55.548h-.045a.548.548 0 0 1-.548-.55L7.2 2.715c0-.303.247-.548.55-.548ZM12.34 5.402a.57.57 0 1 0 0-1.14.57.57 0 0 0 0 1.14Z" fill="#919EAB"/><path fill-rule="evenodd" clip-rule="evenodd" d="M10.621 7.599c.005-.835.007-1.667.005-2.498a.869.869 0 0 0-.043-.316c-.196-.46-.838-.456-1.048-.013a.593.593 0 0 0-.053.256c.002.702.002 1.444.001 2.224a.568.568 0 0 1-1.113.165.774.774 0 0 1-.029-.232l.004-.68a.738.738 0 0 0-.038-.26c-.181-.485-.878-.502-1.069-.016a1.085 1.085 0 0 0-.042.36v1.636c0 .05-.02.117-.06.201-.305.528-1.08.332-1.078-.276l.003-2.34a.64.64 0 0 0-.052-.267.574.574 0 0 0-1.043-.011c-.035.072-.052.193-.052.363v3.544a.6.6 0 0 1-.057.238c-.23.438-.835.43-1.036-.02a.888.888 0 0 1-.052-.36c.005-.297.005-.586.001-.87a.557.557 0 0 0-.29-.462c-.313-.168-.713-.03-.82.313a1.297 1.297 0 0 0-.038.369c.004.803.005 1.621.005 2.455 0 .11-.014.199-.04.266a.57.57 0 0 1-1.099-.238c.005-.304.005-.587.001-.849-.008-.643-.865-.808-1.106-.22-.027.063-.04.198-.042.403 0 .151-.005.303-.013.454v10.076l.012.046c.003.013.01.023.022.03L8.9 26h.014l1.556-.901 6.989-4.037a.043.043 0 0 0 .02-.036l.005-10.792c0-.68-.91-.84-1.121-.199a.888.888 0 0 0-.028.302c.002.11.005.22-.038.325a.568.568 0 0 1-.693.338c-.285-.088-.41-.33-.41-.616l.001-1.346c.002-.657-.905-.805-1.112-.192-.01.03-.02.104-.029.223a.83.83 0 0 1-.048.222c-.27.563-1.09.382-1.092-.243-.001-.738 0-1.514.002-2.327 0-.225-.075-.41-.267-.532a.57.57 0 0 0-.823.235.678.678 0 0 0-.057.308c.004.314.004.6 0 .857a.576.576 0 0 1-.759.53c-.224-.079-.354-.252-.389-.52ZM7.534 19.336c.016 0 .024-.007.024-.023V17.32c0-.02.01-.03.03-.03h2.641a.025.025 0 0 1 .025.025c.002.668.002 1.332-.001 1.991a.04.04 0 0 0 .005.02.082.082 0 0 0 .014.017l2.664-.006a.007.007 0 0 0 .007-.008v-6.387c0-.013-.006-.02-.019-.02h-2.477l-.172-.001c-.013 0-.02.006-.02.02v2.118c0 .015-.008.023-.023.023H7.578c-.013 0-.02-.007-.02-.02v-2.12c0-.012-.007-.018-.019-.018l-.434-.004H4.92a.079.079 0 0 0-.031 0c-.014.004-.02.012-.02.027v6.367c0 .013.005.021.017.025a.026.026 0 0 0 .023-.002h2.626Zm6.497-7.648c-.002.032-.005.064-.002.099l.004.074.003.367a102.264 102.264 0 0 1-.003-.367l-.002-.173ZM108.908 20.446c-.551-.292-.949-.806-1.178-1.388a5.077 5.077 0 0 1-.338-1.465 13.604 13.604 0 0 1-.041-.972c-.005-.66-.006-1.332-.002-2.016.004-.686.057-1.352.161-1.998.161-1.002.641-1.938 1.568-2.371a5.87 5.87 0 0 1 .729-.276 8.713 8.713 0 0 1 2.166-.387c.237-.012.5-.017.787-.015.664.004 1.282.05 1.853.138.781.12 1.622.37 2.207.874.549.474.836 1.227.983 1.953.088.433.142.87.164 1.298.06 1.188.015 2.37-.137 3.548a9.012 9.012 0 0 1-.422 1.83 3.992 3.992 0 0 1-.135.338c-.396.87-1.455 1.256-2.359 1.418-1.123.201-2.305.2-3.452.132a7.22 7.22 0 0 1-1.826-.341 4.72 4.72 0 0 1-.728-.3Zm2.841-1.971c.427.056.878.061 1.352.016.331-.031.657-.085.965-.222.362-.16.526-.466.623-.829.091-.342.138-.719.141-1.13.002-.414.008-.787.018-1.117.012-.387.011-.755-.002-1.106-.019-.498-.089-1.03-.347-1.414-.189-.281-.616-.416-.949-.454a7.245 7.245 0 0 0-1.62.02c-.306.034-.662.104-.921.276-.132.088-.228.235-.287.44a4.03 4.03 0 0 0-.129.626c-.11.906-.114 1.79-.103 2.69.006.545.07 1.026.19 1.443.076.263.215.449.42.557.197.105.413.173.649.204Z" fill="#919EAB"/><path d="m34.146 13.911.002-4.281a.015.015 0 0 1 .014-.015h3.04a.015.015 0 0 1 .015.012V21.029a.015.015 0 0 1-.01.014h-3.045a.015.015 0 0 1-.015-.015V16.57a.015.015 0 0 0-.015-.015h-3.943l-.004.002h-.003a.017.017 0 0 0-.004.003l-.002.002v.001l-.001.002a.015.015 0 0 0-.001.006v4.457a.015.015 0 0 1-.015.015H27.12a.015.015 0 0 1-.015-.015V9.63a.015.015 0 0 1 .015-.015h3.037a.015.015 0 0 1 .015.015l.001 4.282a.015.015 0 0 0 .015.015h3.942a.015.015 0 0 0 .015-.015Z" fill="#919EAB"/><path fill-rule="evenodd" clip-rule="evenodd" d="m41.553 21.032.546-1.955.001-.004.003-.003a.013.013 0 0 1 .009-.003h4.069a.014.014 0 0 1 .013.01l.595 1.956a.014.014 0 0 0 .005.007.014.014 0 0 0 .009.003h3.093c.002 0 .005 0 .006-.002a.016.016 0 0 0 .005-.004.014.014 0 0 0 .002-.012l-3.47-11.4a.014.014 0 0 0-.013-.01h-4.629a.014.014 0 0 0-.007.001l-.001.001a.014.014 0 0 0-.005.007l-3.419 11.401v.007c0 .002 0 .004.002.005a.014.014 0 0 0 .011.006h3.162a.014.014 0 0 0 .013-.01Zm2.613-9.097v.002l1.42 4.903v.005a.014.014 0 0 1-.002.006.013.013 0 0 1-.01.005h-2.807l-.003-.002h-.002a.013.013 0 0 1-.005-.014l1.386-4.902a.013.013 0 0 1 .007-.008.011.011 0 0 1 .005-.002c.002 0 .005.001.007.003a.013.013 0 0 1 .004.004ZM58.939 15.286c.369.037.695.122.978.255.362.17.617.469.766.895a3.7 3.7 0 0 1 .194 1.14c.021.94-.059 2.307-.894 2.896-.252.176-.55.306-.896.388a6.96 6.96 0 0 1-1.607.182c-2.132.002-4.269.002-6.41 0h-.006a.014.014 0 0 1-.009-.013V9.628c0-.009.005-.013.013-.013h6.328c.827.001 1.804.182 2.477.66.632.45.794 1.35.817 2.072a5.657 5.657 0 0 1-.192 1.703 1.46 1.46 0 0 1-.231.501c-.303.394-.857.569-1.33.642a.03.03 0 0 0-.023.018.07.07 0 0 0-.001.054.03.03 0 0 0 .026.02Zm-2.713-1.088a3.23 3.23 0 0 0 .982-.12.529.529 0 0 0 .385-.377c.081-.294.085-.62.01-.98-.046-.223-.151-.374-.317-.453a1.254 1.254 0 0 0-.537-.114c-.883-.005-1.75-.006-2.601-.004-.013 0-.019.007-.019.019v1.993c0 .017.009.026.026.026h1.708c.12 0 .241.003.363.01Zm1.177 2.238c-.306-.097-.653-.124-.976-.123H54.15c-.014 0-.021.008-.021.022v2.16c0 .006.003.013.008.018a.027.027 0 0 0 .019.008c.733.002 1.486.002 2.259 0 .242 0 .511-.03.807-.09.31-.062.496-.255.56-.58.068-.344.06-.68-.024-1.006-.049-.193-.164-.347-.356-.409Z" fill="#919EAB"/><path d="m81.954 9.63.12 8.653-.002.005a.014.014 0 0 1-.011.009h-.002l-.092.002a.015.015 0 0 1-.014-.01L78.74 9.624a.013.013 0 0 0-.002-.004l-.002-.002-.001-.001a.014.014 0 0 0-.009-.003H73.59a.014.014 0 0 0-.01.005.014.014 0 0 0-.005.01V21.031a.015.015 0 0 0 .004.008.014.014 0 0 0 .01.004h2.973c.002 0 .003 0 .005-.002a.016.016 0 0 0 .005-.003l.002-.002v-.001l.001-.002.001-.002v-.003l-.136-8.762a.015.015 0 0 1 .004-.01.014.014 0 0 1 .01-.005h.11a.015.015 0 0 1 .013.01l3.215 8.773v.002l.002.002.003.003h.002l.002.002h5.178a.015.015 0 0 0 .015-.015V9.63a.015.015 0 0 0-.005-.01.014.014 0 0 0-.01-.004h-3.01a.015.015 0 0 0-.009.003l-.001.001a.014.014 0 0 0-.003.005l-.001.003v.003Z" fill="#919EAB"/><path fill-rule="evenodd" clip-rule="evenodd" d="M103.992 16.628v.05c0 .02.01.03.028.03.336.017.648.086.936.209.845.36 1.111 1.197 1.112 2.058l.001 2.046a.027.027 0 0 1-.002.009.022.022 0 0 1-.005.007.022.022 0 0 1-.016.006h-3.088c-.012 0-.017-.005-.017-.016v-1.579c0-.41-.091-.755-.272-1.03-.185-.283-.581-.386-.906-.388-.769-.004-1.558-.005-2.367-.002-.007 0-.01.004-.01.011l-.001 2.98-.001.007v.001a.026.026 0 0 1-.005.009.024.024 0 0 1-.018.007h-3.037a.014.014 0 0 1-.01-.004l-.002-.003v-.002l-.001-.002V9.626a.01.01 0 0 1 0-.005.011.011 0 0 1 .01-.007c2.006-.001 4.04 0 6.101.005.27 0 .608.03 1.014.088.517.074.969.204 1.358.392.428.206.739.508.934.907.167.343.28.728.341 1.155.092.645.108 1.332.047 2.061-.035.415-.104.848-.247 1.24-.252.693-1.161.991-1.852 1.136-.016.003-.025.013-.025.03Zm-4.583-4.373c-.016 0-.024.007-.024.023v3.089c0 .025.013.037.038.037.849.002 1.685.002 2.509-.001.326 0 .76-.068.902-.385.108-.239.15-.517.167-.782a4.622 4.622 0 0 0-.078-1.283 1.076 1.076 0 0 0-.135-.349c-.172-.275-.701-.329-.99-.332-.785-.009-1.581-.014-2.389-.017ZM61.237 21.043h3.162a.014.014 0 0 0 .008-.003.014.014 0 0 0 .004-.005l.001-.002.544-1.956.001-.002.002-.002c0-.002.001-.003.002-.003l.003-.002h.001l.005-.001h4.07a.014.014 0 0 1 .013.01l.594 1.956c0 .002.001.003.003.005v.001l.002.001a.014.014 0 0 0 .009.003h3.094a.014.014 0 0 0 .01-.004v-.002a.014.014 0 0 0 .003-.005v-.006l-3.47-11.402a.012.012 0 0 0-.002-.004.014.014 0 0 0-.011-.006h-4.63a.014.014 0 0 0-.008.003.014.014 0 0 0-.005.007l-3.418 11.401v.007c0 .002 0 .004.002.005a.015.015 0 0 0 .005.005l.006.001Zm4.375-4.195v-.005l1.395-4.905c0-.003.002-.005.004-.007a.012.012 0 0 1 .011-.001h.001l.003.001a.013.013 0 0 1 .003.004v.001l.001.002 1.412 4.9v.005a.012.012 0 0 1-.002.006.012.012 0 0 1-.004.003l-.003.001h-.003l-2.806.005a.012.012 0 0 1-.01-.005.013.013 0 0 1-.002-.005Z" fill="#919EAB"/><path d="M89.562 16.328v2.179a.015.015 0 0 0 .015.015h5.286a.015.015 0 0 1 .015.014v2.492a.014.014 0 0 1-.005.01.015.015 0 0 1-.01.005h-8.354a.015.015 0 0 1-.015-.015V9.629a.015.015 0 0 1 .015-.015h8.25a.014.014 0 0 1 .007.002l.004.003a.015.015 0 0 1 .005.01v2.493a.017.017 0 0 1-.004.005.016.016 0 0 1-.005.003h-.002l-.004.001h-5.183a.015.015 0 0 0-.01.005l-.002.001c0 .002-.001.003-.002.003a.016.016 0 0 0 0 .006v2.026a.015.015 0 0 0 .014.015h4.841l.006.002.002.001.003.002.002.003a.015.015 0 0 1 .002.008v2.096a.015.015 0 0 1-.015.015h-4.843a.01.01 0 0 0-.003 0 .011.011 0 0 0-.004.002l-.001.002a.015.015 0 0 0-.005.01ZM121.203 12.477V10.45c0-.006.002-.01.006-.014a.021.021 0 0 1 .014-.006l.69.002h.004l.003-.002c.002 0 .005-.002.006-.004a.02.02 0 0 0 .005-.006l.001-.004v-.004l-.002-.588a.022.022 0 0 0-.005-.013.032.032 0 0 0-.003-.003l-.002-.001a.022.022 0 0 0-.009-.002h-2.094a.017.017 0 0 0-.013.006c-.002.001-.003.002-.003.004l-.002.003v.002l-.001.005.002.586c0 .005.002.01.006.013l.005.004a.024.024 0 0 0 .009.002l.642.001a.02.02 0 0 1 .014.006.022.022 0 0 1 .005.013l.001 2.027c0 .006.003.01.006.014a.02.02 0 0 0 .014.006h.682a.02.02 0 0 0 .014-.006.022.022 0 0 0 .005-.014ZM123.032 12.496h-.686a.01.01 0 0 1-.008-.004.01.01 0 0 1-.004-.008l-.002-2.67.001-.004a.042.042 0 0 1 .003-.004.007.007 0 0 1 .004-.003h.004l1.118.002c.003 0 .006.001.008.003.002.001.004.003.004.006l.511 1.682c0 .002.002.005.004.006a.013.013 0 0 0 .008.003c.002 0 .005 0 .007-.003l.002-.002.002-.004.482-1.683c.001-.002.002-.004.005-.006a.01.01 0 0 1 .007-.003l1.148.002c.003 0 .007 0 .009.003a.013.013 0 0 1 .003.009v2.666a.013.013 0 0 1-.003.008.013.013 0 0 1-.009.004h-.689l-.004-.001c-.001 0-.002 0-.003-.002h-.002l-.002-.005-.001-.002v-.003l.051-2.022a.013.013 0 0 0-.003-.008.023.023 0 0 0-.003-.003l-.005-.002a.01.01 0 0 0-.008.002.01.01 0 0 0-.004.004l-.001.003-.659 2.03c0 .003-.002.005-.004.006a.012.012 0 0 1-.007.003h-.609a.01.01 0 0 1-.005-.002.015.015 0 0 1-.005-.006l-.678-2.046c-.001-.003-.002-.006-.005-.007a.008.008 0 0 0-.004-.002h-.005l-.004.001a.018.018 0 0 0-.003.003.014.014 0 0 0-.003.009l.06 2.037v.002l-.001.003a.049.049 0 0 1-.003.004.008.008 0 0 1-.004.003h-.003l-.002.001Z" fill="#919EAB"/></svg>