<svg xmlns="http://www.w3.org/2000/svg" width="142" height="16" fill="none"><g clip-path="url(#a)"><path fill="#919EAB" fill-rule="evenodd" d="M72.532.02c1.741-.151 3.567.494 4.89 1.729 1.267 1.182 1.942 2.75 1.905 4.413a5.648 5.648 0 0 1-1.276 3.64 6.538 6.538 0 0 1-4.31 2.361l-.01.018-.025-.011h-.004a5.845 5.845 0 0 1-3.044-.48 5.846 5.846 0 0 1-2.883-2.59 6.322 6.322 0 0 1-.724-3.601h.021v-.015h-.022c.218-2.22 1.55-4.07 3.563-4.949A5.78 5.78 0 0 1 72.5.026v.01h.005V.02h.027Zm2.744 5.194c.021.098.04.19.055.276a9.86 9.86 0 0 1 .244 2.585c1-.427 1.83-.943 2.483-1.534.005-.13.005-.255.005-.377a5.18 5.18 0 0 0-.466-2.194c-.724.5-1.503.917-2.321 1.244Zm-.078 5.654a5.147 5.147 0 0 0 2.56-2.825v-.001c-.7.478-1.463.86-2.266 1.135a16.133 16.133 0 0 1-.294 1.691Zm-.202-6.617c.837-.376 1.578-.816 2.054-1.216v-.001a5.423 5.423 0 0 0-3.925-2.21c.866 1.223 1.495 2.375 1.87 3.427Zm-3.322 5.647a13.22 13.22 0 0 0 3.186-.515c.033.582.042 1.129.027 1.628a5.206 5.206 0 0 1-1.943.4 9.355 9.355 0 0 1-1.27-1.513Zm-4.046-4.612c.275-1.71 1.305-3.156 2.78-3.909a9.19 9.19 0 0 0-1.161 4.079 10.374 10.374 0 0 1-1.619-.17Zm3.158-4.082c-.447 1.137-.685 2.717-.639 4.243v-.002a13.614 13.614 0 0 0 4-.845A26.681 26.681 0 0 0 72.805.812a5.112 5.112 0 0 0-1.932.356l-.076.031-.01.005Zm-.505 5.623c.197.81.508 1.589.924 2.312a14.529 14.529 0 0 0 3.583-.76 41.344 41.344 0 0 0-.33-2.595l-.012-.052-.049-.202a13.948 13.948 0 0 1-4.199.664c.02.221.048.437.083.633Zm-.04 2.354a6.031 6.031 0 0 1-.862-2.174c-.061-.278-.101-.56-.12-.844-.572-.04-1.14-.129-1.696-.265a5.344 5.344 0 0 0 .778 3.082c.623.144 1.26.211 1.9.2Zm-1.687.05a.266.266 0 0 0-.038-.02l-.028-.013.038.053.028-.02Zm.024.015h.004v.001c.001.007.004.014.009.02l.01-.01.005-.051-.033-.019a.052.052 0 0 0-.006.012.052.052 0 0 0 0 .022.067.067 0 0 0 .011-.012.042.042 0 0 0 0 .037Zm3.772 2.136a8.238 8.238 0 0 1-1.593-1.488v.002a9.37 9.37 0 0 1-1.93-.273A5.134 5.134 0 0 0 70.83 11c.485.2.997.33 1.519.383Zm40.233.325c-.196 0-.389-.048-.562-.141a1.056 1.056 0 0 1-.423-.427l-2.843-4.98v5.407h-2.311V1.954a1.153 1.153 0 0 1 1.143-1.162h.082a1.138 1.138 0 0 1 .673.267c.097.082.179.181.243.292l3.994 6.942 3.993-6.941c.13-.22.329-.391.567-.484a1.188 1.188 0 0 1 .742-.044c.246.067.463.214.617.417.158.202.243.453.241.71v9.615h-2.317V6.163l-2.831 4.98c-.098.18-.248.329-.431.424a1.223 1.223 0 0 1-.577.14ZM4.773.865l.769 1.376v.002h.857c-.18.72-.32 1.437-.46 2.146C5.294 7.659 4.68 10.77.568 13.48c-.34.22-.044.683.354.503C6.64 12.09 8.378 9.158 9.448 6.64h1.775v3.54H9.367l.841 1.444h5.621l.858-1.443H15.3l-.335-5.475h-2.426L20.143.865h-5.33l-3.928 3.842h-.797l.808-2.466h.649l.638-1.376h-7.41Zm19.128 3.842 1.11-2.466 1.003 2.466H23.9Zm7.686 5.475-1.193-3.448V4.707h-.748L28.86 2.24h1.261L29.038.865h-8.119l-1.046 1.376h.853l-2.928 7.94h-.61l.067 1.444h5.072l.74-1.443h-1.283l1.482-3.458h3.229l1.328 3.458h-1.944l.827 1.443h5.516l.647-1.443h-1.282ZM51.382.865h14.047l-1.468 2.291h-1.503v-.915h-1.806v7.941h1.806l-.609 1.443h-6.807l-.636-1.443h2.267V2.241h-1.967v.915h-1.807L51.382.866ZM44.13 5.92c0 1.513 1.546 2.748 3.43 2.748 1.885 0 3.43-1.237 3.43-2.748 0-1.529-1.545-2.764-3.43-2.764-1.884 0-3.43 1.235-3.43 2.764Zm-4.124.325c0-2.968 3.035-5.38 6.765-5.38 3.728 0 6.766 2.412 6.766 5.38 0 2.954-3.037 5.38-6.766 5.38-3.73 0-6.765-2.426-6.765-5.38ZM29.934.865h11.02c-.52 1.344-.893 2.706-1.26 4.04-1.325 4.828-2.547 9.277-10.142 11.092-.27.038-.434-.237-.215-.494 4.456-2.581 5.423-7.628 6.462-13.049l.042-.215h-2.97v.917h-1.399L29.934.866Zm55.133 10.7a3.13 3.13 0 0 1-1.226-.268 2.912 2.912 0 0 1-.597-.358 2.49 2.49 0 0 1-.514-.54 2.688 2.688 0 0 1-.354-.73c-.09-.3-.135-.612-.131-.925v-4.99c.001-.2.023-.4.065-.597.045-.216.112-.427.203-.629.096-.213.218-.414.363-.598a2.53 2.53 0 0 1 .542-.512c.223-.154.468-.273.726-.354.3-.09.61-.135.922-.131h7.727v2.31h-7.726c-.178 0-.305.041-.387.123-.083.083-.123.217-.123.402v4.976a.45.45 0 0 0 .51.51h5.503V7.41h-4.904V5.086h6.053a1.153 1.153 0 0 1 .827.349 1.147 1.147 0 0 1 .337.815v4.154c0 .157-.03.313-.09.459a1.132 1.132 0 0 1-.617.615c-.146.06-.302.09-.459.09l-6.65-.002ZM102.46 9.07v2.496l2.312-.006V2.092a1.153 1.153 0 0 0-1.163-1.16h-4.154a5.608 5.608 0 0 0-2.115.393 5.104 5.104 0 0 0-1.686 1.1 5.032 5.032 0 0 0-1.115 1.687 5.605 5.605 0 0 0-.4 2.137v5.317h2.311V9.07h6.01Zm0-5.826v3.515h-6.01v-.51a3.344 3.344 0 0 1 .2-1.229c.115-.305.286-.587.503-.831.19-.21.416-.385.666-.518.227-.12.464-.216.71-.287.193-.056.39-.095.59-.116.172-.016.283-.024.336-.024h3.005ZM130.07.933v2.31h-7.388v1.843h6.557V7.41h-6.557v1.334c0 .178.041.306.123.388.081.081.214.123.394.123h6.869v2.31h-6.883a3.184 3.184 0 0 1-.905-.144 2.686 2.686 0 0 1-1.626-1.36c-.2-.41-.298-.861-.285-1.317V2.091a1.146 1.146 0 0 1 .336-.822 1.179 1.179 0 0 1 .83-.336h8.535Zm.97 10.633V9.255h7.344c.29 0 .504-.083.659-.24.155-.156.23-.385.23-.675a1.132 1.132 0 0 0-.063-.387.846.846 0 0 0-.175-.29.745.745 0 0 0-.271-.183.991.991 0 0 0-.377-.069h-4.239a3.516 3.516 0 0 1-1.035-.165 3.138 3.138 0 0 1-1.039-.555 3.054 3.054 0 0 1-.799-1.005c-.212-.411-.319-.923-.319-1.51s.107-1.095.32-1.507a3.052 3.052 0 0 1 1.837-1.564 3.51 3.51 0 0 1 1.032-.17h6.504v2.309h-6.504c-.284 0-.494.082-.646.247-.153.164-.232.393-.232.685 0 .291.074.516.228.678.154.162.364.235.65.235h4.239a3.43 3.43 0 0 1 2.078.757c.221.178.416.386.576.62.174.255.307.534.397.83.101.34.15.693.145 1.047.004.357-.046.712-.149 1.053a3.192 3.192 0 0 1-.395.83 2.65 2.65 0 0 1-.583.62 3.425 3.425 0 0 1-2.07.723l-7.343-.003Z" clip-rule="evenodd"/></g><defs><clipPath id="a"><path fill="#fff" d="M.419.001H141.58v16H.419z"/></clipPath></defs></svg>