<svg xmlns="http://www.w3.org/2000/svg" width="112" height="24" fill="none"><g clip-path="url(#a)"><path fill="#919EAB" fill-rule="evenodd" d="M6.156 15.937c-.941-.003-1.882-.007-2.822.009-.68.003-1.324.534-1.428 1.212a2386.516 2386.516 0 0 1-1.133 5.051c-.06.257-.12.514-.137.778v.105c-.031.486.453.829.9.827.655.003 1.31.002 1.965.002l1.733.001c.666.01 1.334-.46 1.482-1.122l.342-1.528c.322-1.44.644-2.88.96-4.32.087-.38-.161-.768-.503-.925-.176-.092-.376-.09-.57-.088h-.113c-.226 0-.451 0-.676-.002ZM102.939.007c-.379-.003-.758-.006-1.133.057-1.282.17-2.469.968-3.085 2.108-.388.65-.546 1.389-.704 2.122a22.27 22.27 0 0 1-.15.668c-.331 1.47-.667 2.94-1.003 4.408-.427 1.868-.854 3.736-1.27 5.606l-.019.076c-.02.087-.041.175-.048.264-.004.291.257.572.555.556h1.03c.472 0 .944 0 1.417.002.228.01.47-.004.662-.143.278-.176.427-.49.47-.808.368-1.632.74-3.263 1.111-4.895a1528.557 1528.557 0 0 0 1.602-7.083c.028-.136.057-.273.13-.393a.982.982 0 0 1 .871-.488h1.582c.821-.001 1.643-.002 2.464.002.339-.013.68.309.602.658-.107.63-.252 1.251-.397 1.872-.075.324-.151.648-.221.973a.805.805 0 0 1-.779.624c-.911.009-1.858.07-2.681.5a4.224 4.224 0 0 0-1.966 2.128c-.154.353.088.846.496.853.65.012 1.3.01 1.95.007.4-.002.799-.003 1.199-.001.206-.003.435.057.558.236.162.218.12.512.067.761-.237.987-.458 1.977-.68 2.967a284.91 284.91 0 0 1-.355 1.577c-.059.305.19.65.51.65.361.004.722.003 1.084.002h.367c.43.025.819-.32.919-.726l.799-3.514c.82-3.603 1.64-7.207 2.447-10.814.022-.144.041-.296.005-.44a.625.625 0 0 0-.573-.373c-1.706.003-3.412.003-5.118.003h-2.378c-.112 0-.225 0-.337-.002ZM87.493 2.784a.98.98 0 0 1 .718-.678c.793-.042 1.588-.036 2.383-.03.546.004 1.092.009 1.637-.003.276-.009.607.028.774.278.139.195.09.436.044.658-.009.04-.017.08-.023.118-.186.825-.375 1.65-.57 2.473a.696.696 0 0 1-.361.48c-.312.165-.665.162-1.01.16a8.48 8.48 0 0 0-.254 0c-1.19.037-2.405.518-3.175 1.45-.338.402-.663.852-.743 1.384-.041.342.29.637.62.63.436.002.872 0 1.308-.002a72.74 72.74 0 0 1 2.045.01c.343.01.536.406.479.713-.106.52-.224 1.039-.342 1.557-.087.38-.173.759-.255 1.14a.94.94 0 0 1-.637.695 1.144 1.144 0 0 1-.397.04h-.101c-.638-.004-1.277-.003-1.915-.003-.66 0-1.319.001-1.978-.002-.267-.01-.55-.205-.572-.485 0-.385.094-.759.187-1.13l.06-.247.64-2.816c.483-2.13.966-4.258 1.438-6.39ZM88.27.027c-.463.005-.927.009-1.386.074a4.174 4.174 0 0 0-1.995.827c-.65.5-1.135 1.2-1.425 1.963-.136.381-.22.776-.303 1.172-.047.223-.094.445-.15.666-.376 1.69-.761 3.379-1.147 5.067-.385 1.689-.771 3.377-1.147 5.068-.01.05-.024.1-.037.15-.035.132-.07.264-.057.4.04.27.293.49.566.49h8.646c1.314-.04 2.63-.742 3.289-1.898.477-.842.726-1.789.915-2.732.01-.047.018-.095.027-.142.083-.432.166-.87.119-1.31-.06-.763-.422-1.519-1.055-1.967.786-.343 1.51-.92 1.874-1.713.27-.544.437-1.131.576-1.72.11-.48.216-.96.321-1.44.147-.671.294-1.342.455-2.01l.031-.126a1.66 1.66 0 0 0 .054-.27c.002-.297-.274-.553-.564-.562-1.312.002-2.624.002-3.936.002h-3.053c-.206.008-.412.01-.618.011ZM73.132.004c-.39 0-.78-.001-1.165.057-.704.098-1.395.34-1.97.763-.837.604-1.419 1.527-1.666 2.523-.426 1.913-.862 3.825-1.299 5.736a990.051 990.051 0 0 0-1.387 6.136c-.08.308.185.645.5.658.369.002.739 0 1.108 0 .514-.001 1.028-.003 1.542.004.43.005.827-.333.915-.75.393-1.752.79-3.502 1.188-5.253.506-2.23 1.013-4.462 1.51-6.694l.021-.093c.047-.216.096-.435.209-.627.212-.377.743-.502 1.117-.305.2.122.264.389.208.606-.48 2.063-.942 4.13-1.397 6.198-.087.31.16.655.475.686.236.023.473.02.71.019.197-.002.395-.003.592.01.453.017.953-.25 1.068-.712.234-1.009.46-2.018.688-3.028.247-1.101.495-2.202.751-3.302.108-.48.737-.718 1.152-.472.129.071.19.222.204.362.016.215-.032.427-.08.636l-.026.12c-.44 1.982-.892 3.96-1.343 5.939a953.737 953.737 0 0 0-1.356 5.994c-.051.268.118.583.393.644.25.027.5.023.75.019.166-.003.33-.005.496 0l.09.002c.263.005.547.01.76-.17.327-.212.404-.613.474-.972l.013-.064.41-1.806C79.7 8.839 80.615 4.81 81.514.778l.005-.034c.017-.125.036-.257-.02-.375-.103-.233-.365-.368-.613-.366H79.05C77.18 0 75.313 0 73.444.002l-.312.001ZM58.208.01a12.367 12.367 0 0 0-1.195.026c-.73.084-1.451.32-2.053.747-.621.43-1.102 1.045-1.422 1.726-.241.494-.364 1.031-.477 1.566-.39 1.732-.786 3.463-1.181 5.194-.45 1.968-.9 3.936-1.341 5.906-.11.343.204.735.565.697h2.6c.432.011.815-.344.904-.754.397-1.759.797-3.516 1.196-5.274.536-2.356 1.072-4.712 1.6-7.07a.968.968 0 0 1 .95-.711l1.32-.001c.926-.001 1.851-.003 2.777.005.324.004.636.318.566.652-.109.64-.256 1.274-.404 1.907-.074.315-.147.63-.216.947a.805.805 0 0 1-.744.62l-.105.003c-.654.017-1.319.034-1.947.234a4.136 4.136 0 0 0-2.64 2.438c-.134.34.114.784.49.803.623.014 1.246.012 1.868.01.463-.003.925-.005 1.388 0 .274 0 .546.215.572.494.026.29-.048.573-.122.852l-.048.19c-.147.641-.29 1.283-.435 1.924-.152.679-.304 1.357-.46 2.036-.093.328.184.72.537.694.175-.001.35 0 .526.002.343.003.687.006 1.03-.011.433-.043.764-.448.814-.867.38-1.677.76-3.354 1.142-5.03.662-2.911 1.324-5.822 1.974-8.736.01-.051.023-.103.036-.155.055-.225.111-.455.064-.686a.617.617 0 0 0-.544-.379c-2.313.002-4.626.002-6.939.001-.215.004-.43.002-.646 0ZM45.014.012c-.114.002-.229.004-.34.029-.311.108-.576.367-.66.69-.664 3-1.348 5.997-2.033 8.993-.417 1.828-.834 3.656-1.247 5.485-.083.341.234.697.58.676 1.55.004 3.098.003 4.647-.01.89-.025 1.792-.265 2.52-.787a4.233 4.233 0 0 0 1.486-1.912c.127-.38-.226-.786-.611-.776-.546-.007-1.092-.006-1.638-.005-.537.001-1.073.003-1.61-.004a.463.463 0 0 1-.446-.323c-.1-.245-.042-.51.024-.755.322-1.442.65-2.883.978-4.325.477-2.1.955-4.201 1.417-6.305.098-.345-.234-.693-.575-.679-.39.004-.782.003-1.174.002-.39-.001-.78-.002-1.17.001a3.875 3.875 0 0 1-.148.005ZM32.922.01c-.327-.002-.655-.004-.978.052a4.236 4.236 0 0 0-2.199.988c-.468.397-.822.911-1.087 1.46-.224.483-.35 1.003-.466 1.52-.409 1.837-.829 3.672-1.249 5.507-.434 1.895-.867 3.79-1.29 5.687-.068.308.197.647.514.647.522.003 1.043.002 1.565.002h1.088c.438.014.828-.346.915-.763.392-1.742.788-3.482 1.184-5.223.536-2.354 1.072-4.708 1.598-7.064a.964.964 0 0 1 .852-.755c.803-.009 1.607-.008 2.41-.006.546 0 1.091.001 1.636-.001.25-.014.53.069.662.296.104.176.066.386.033.578l-.008.046c-.14.661-.29 1.32-.44 1.978l-.14.608a.806.806 0 0 1-.755.627l-.148.004c-.399.011-.799.022-1.194.078a4.222 4.222 0 0 0-1.908.75 4.138 4.138 0 0 0-1.434 1.846c-.128.337.114.774.484.798.559.017 1.118.013 1.677.01.552-.003 1.104-.006 1.656.01.397.019.595.489.498.834-.217.912-.423 1.827-.628 2.742-.142.632-.284 1.264-.43 1.896-.088.317.139.683.475.707.29.01.581.009.872.007.193 0 .385-.002.577 0a.949.949 0 0 0 .714-.298c.195-.204.253-.486.308-.756l.024-.115.837-3.685a2906.981 2906.981 0 0 0 2.266-10.018c.042-.174.084-.35.062-.53-.03-.268-.303-.457-.561-.464h-1.691c-2.018 0-4.036.002-6.055 0h-.246ZM21.724.008a1.47 1.47 0 0 0-.383.042c-.516.129-.968.544-1.088 1.07-.188.825-.372 1.65-.557 2.477a408.975 408.975 0 0 1-.693 3.07 2.584 2.584 0 0 1-.343.786c-.465.713-1.206 1.187-1.963 1.542-1.041.522-2.201.7-3.342.875a130.016 130.016 0 0 0-.541.086c-.542.086-1.088.174-1.589.404-.313.149-.623.348-.8.657-.347.583-.322 1.376.084 1.924.187.256.47.417.75.551.426.194.88.288 1.336.381.267.055.534.11.795.185.768.205 1.467.618 2.072 1.126.5.451.687 1.133.801 1.774.075.72-.044 1.445-.189 2.15-.128.599-.264 1.197-.4 1.795a145.55 145.55 0 0 0-.445 2.008c-.113.502.34 1.023.848 1.007.735.004 1.47.004 2.204.003a516.924 516.924 0 0 1 1.425 0c.246.004.494.007.724-.09.456-.174.827-.58.928-1.062.142-.688.3-1.372.458-2.057.288-1.252.576-2.504.772-3.774.157-1.075-.237-2.185-.948-2.99-.376-.434-.858-.76-1.354-1.04-.885-.492-1.867-.791-2.863-.95-.109-.017-.219-.03-.329-.043a4.46 4.46 0 0 1-.611-.1c-.102-.015-.183-.13-.132-.227.076-.084.19-.114.297-.14 1.114-.22 2.23-.447 3.317-.785 1.342-.411 2.638-1.026 3.72-1.93.742-.64 1.295-1.51 1.508-2.47l.396-1.766c.236-1.048.472-2.095.703-3.144l.029-.128c.023-.1.046-.2.057-.302.032-.47-.387-.912-.858-.907-.685-.008-1.37-.007-2.055-.006-.58.001-1.16.002-1.741-.002ZM7.263.009c-.188 0-.377-.002-.56.044a1.54 1.54 0 0 0-.956.785c-.067.135-.098.28-.13.426l-.019.088-.171.766-1.051 4.696c-.055.244-.06.52.082.736.18.298.541.436.877.434.623-.002 1.247-.002 1.87-.002h1.773c.653-.002 1.3-.462 1.456-1.107.206-.927.413-1.853.621-2.78.23-1.024.46-2.048.686-3.072.108-.488-.315-1.008-.814-1.006C10.257.008 9.586.01 8.915.011c-.51.001-1.02.002-1.531-.002h-.121Zm79.942 18.345c-.757 0-1.513-.002-2.27.006-.208 1.085-.425 2.168-.643 3.25-.156.78-.313 1.559-.466 2.338l.832.002c1.017.002 2.033.004 3.05-.005.058-.297.116-.595.178-.892a738.842 738.842 0 0 0-2.866-.001l.125-.628c.057-.282.114-.564.168-.847a212.299 212.299 0 0 1 2.684-.003c.057-.307.116-.614.178-.919h-2.667a420.937 420.937 0 0 0 .284-1.41c.435.002.87.002 1.305.001.498 0 .996 0 1.494.003.024-.127.05-.254.077-.38.035-.172.07-.343.1-.516-.52.002-1.042.002-1.563.001Zm-23.114 1.174c-.295 1.474-.59 2.947-.882 4.42l.304.002c.218 0 .436.001.653-.002l.274-1.373.505-2.52c.187.955.376 1.91.566 2.865l.204 1.03h.292l.585.002c.477-.795.946-1.594 1.415-2.394l.886-1.507c-.188.952-.378 1.904-.569 2.856l-.209 1.043h.96l.37-1.86c.249-1.245.496-2.49.75-3.735-.304-.002-.607 0-.911 0h-.135c-.49.778-.983 1.552-1.477 2.325-.409.64-.817 1.281-1.223 1.924-.227-.932-.457-1.864-.688-2.795l-.359-1.454c-.155-.002-.31-.001-.465 0-.204 0-.407 0-.611-.003l-.235 1.176Zm-19.118 1.215c-.667 1.07-1.335 2.139-2 3.21.176-.003.35-.003.526-.002.194 0 .388 0 .583-.004a975.235 975.235 0 0 1 1.944-3.214c.096-.154.19-.31.283-.466.164-.275.328-.55.51-.811.11.435.204.873.3 1.312.054.252.108.504.165.755-.173.004-.347.003-.52.003-.207 0-.414-.001-.62.006-.104.189-.214.374-.325.559-.066.11-.132.221-.196.333.282.002.565.001.848 0 .336 0 .673 0 1.01.003.061.293.125.585.19.877l.14.646a321.246 321.246 0 0 0 1.075 0l-.649-2.785-.656-2.813c-.304.003-.609.003-.913.003h-.207l-1.488 2.388Zm62.338-2.17c-1.131-.336-2.398-.41-3.494.082-.792.386-1.208 1.359-1.014 2.206.094.357.427.599.776.672.315.079.638.072.96.064.306-.007.612-.014.912.053.188.035.311.223.317.407a.975.975 0 0 1-.512.836c-.256.156-.561.171-.851.185l-.032.002a5.148 5.148 0 0 1-1.924-.294c-.068.312-.127.627-.181.942.811.232 1.671.343 2.512.219.527-.066 1.061-.255 1.446-.635.349-.34.538-.817.588-1.296.037-.285.016-.593-.152-.837-.163-.262-.462-.39-.751-.456-.328-.075-.661-.071-.995-.067-.268.003-.536.006-.8-.032-.212-.032-.328-.264-.292-.462.002-.394.32-.712.677-.83.865-.235 1.793-.111 2.628.184l.027-.136c.053-.269.106-.538.155-.807Zm-77.384.006c-.79-.289-1.655-.338-2.481-.199-.742.12-1.476.46-1.953 1.056-.572.724-.814 1.664-.81 2.576-.047.76.421 1.556 1.17 1.78.985.332 2.066.24 3.04-.086.111-.513.213-1.029.315-1.545l.16-.801c-.345-.001-.69-.002-1.034-.001l-.152.751c-.06.3-.12.601-.182.901-.555.094-1.173.14-1.68-.156-.366-.205-.53-.64-.538-1.042-.008-.681.157-1.402.617-1.924.277-.319.676-.497 1.078-.595.752-.182 1.551-.07 2.261.22.06-.312.121-.625.19-.935ZM7.758 10.342c-.52-.5-1.277-.762-1.994-.632-.913.154-1.7.898-1.874 1.81-.095.563-.035 1.173.272 1.664.448.78 1.388 1.237 2.278 1.12a2.33 2.33 0 0 0 1.224-.556 2.392 2.392 0 0 0 .794-1.88 2.299 2.299 0 0 0-.7-1.526Z" clip-rule="evenodd"/></g><defs><clipPath id="a"><path fill="#fff" d="M.635.001h110.73v24H.635z"/></clipPath></defs></svg>