<svg xmlns="http://www.w3.org/2000/svg" width="100" height="30" fill="none"><g clip-path="url(#a)"><path fill="#00AB55" fill-rule="evenodd" d="M31.69.001h4.403l-4.48 11.535c-.022.06-.002.088.061.087l5.909-.001a.073.073 0 0 1 .072.064.07.07 0 0 1-.005.034l-1.619 4.143h-6.722l.198-.05c.062-.016.062-.032 0-.048-1.323-.347-2.126-1.157-2.409-2.43-.012-.056-.029-.057-.05-.003l-.065.165v-1.655l.048.13c.031.078.053.075.067-.007l.018-.099c.02-.115.04-.24.079-.34 1.5-3.838 2.998-7.68 4.495-11.525Zm13.017 0h1.438l-.143.047c-.091.028-.09.055.002.08.752.2 1.218.659 1.398 1.375.22.873-.004 1.587-.671 2.141-1.59 1.326-3.92-.288-3.227-2.288.227-.655.678-1.062 1.351-1.22.085-.02.087-.045.005-.076L44.707 0Zm14.691 0h-1.577l.167.057c.115.039.112.062-.009.069-1.105.06-2.027.983-2.395 1.919a1795.14 1795.14 0 0 0-3.108 7.986c-.045.116-.09.116-.135 0l-3.12-8.009c-.043-.108-.066-.104-.071.012-.087 1.817-1.023 3.023-2.807 3.62a.102.102 0 0 0-.064.132c1.032 2.635 2.069 5.29 3.109 7.967.314.809 1.047 1.697 1.926 1.883.594.125.675.2.243.226H53.3a1.292 1.292 0 0 1-.241-.072c-.103-.045-.098-.065.013-.06.999.042 1.987-1.039 2.313-1.871 1.04-2.651 2.08-5.318 3.122-8.002.05-.132.102-.132.153 0 1.026 2.648 2.07 5.326 3.131 8.034.402 1.022 1.161 1.646 2.28 1.873.069.014.07.028.001.045l-.238.053h1.835a.915.915 0 0 0-.297-.06.019.019 0 0 1-.01-.03.019.019 0 0 1 .009-.006c1.125-.172 1.905-.812 2.341-1.921C69.526 9.229 71.336 4.614 73.143 0h-4.419l-3.893 9.99c-.053.134-.105.134-.157 0-1.016-2.615-2.03-5.216-3.04-7.802C61.27 1.256 60.663.613 59.81.26c-.223-.092-.462-.11-.701-.127a9.862 9.862 0 0 1-.167-.015.008.008 0 0 1-.003-.004c0-.002 0-.003.002-.004a.005.005 0 0 1 .004-.001L59.398 0ZM40.25 15.863h-2.388l4.46-11.51c.042-.107.1-.117.175-.03.796.94 1.771 1.415 2.925 1.425.328.003.512.006.552.008.06.004.087.035.081.093-.03.277-.088.527-.176.75l-2.886 7.34c-.44 1.118-1.355 1.76-2.743 1.924ZM7.424 27.63l-3.962.002c-.085 0-.127-.043-.127-.128l.001-7.37c0-.06-.03-.09-.09-.09H.703c-.058 0-.086.03-.086.088-.003 2.367-.007 4.71-.013 7.033-.003 1.353.338 2.376 1.85 2.48 1.091.074 2.749.091 4.973.05.056 0 .084-.028.084-.085l.002-1.893a.085.085 0 0 0-.026-.061.09.09 0 0 0-.062-.026Zm28.307-6.294a1.252 1.252 0 1 1-2.504 0 1.252 1.252 0 0 1 2.504 0Zm46.723 3.648c-.043-.167-.087-.167-.132 0l-1.237 4.62c-.019.07-.064.104-.137.102a8.023 8.023 0 0 0-.574.005c-.82.026-1.665.053-1.976-.936-.968-3.077-1.864-5.939-2.69-8.586-.013-.047.004-.07.052-.07l2.56.004c.06 0 .096.028.111.085l1.44 5.61c.034.135.07.135.105 0l1.5-5.6c.017-.064.06-.096.127-.096h1.51c.054 0 .09.027.104.08l1.523 5.575c.044.164.088.164.129-.002l1.381-5.55c.016-.069.06-.103.131-.103h2.516a.05.05 0 0 1 .043.026.046.046 0 0 1 .003.034l-2.833 9.416a.125.125 0 0 1-.122.096l-.135.007c-1.041.055-2.091.111-2.424-1.074a189.552 189.552 0 0 1-.975-3.643Zm9.379-3.656a1.253 1.253 0 1 1-2.507 0 1.253 1.253 0 0 1 2.507 0ZM18.109 25.22v2.038a.37.37 0 0 0 .365.37l.724.014c.082.003.123.044.123.124l-.004 1.814c0 .083-.041.123-.124.12-.207-.005-.427 0-.653.004-.694.014-1.44.03-2.009-.253-.96-.474-.948-1.291-.922-2.302a33.51 33.51 0 0 0-.002-1.957c-.002-.069-.038-.103-.107-.103l-.364.002a.093.093 0 0 1-.095-.094l.002-1.768c0-.068.034-.102.102-.102l.395.002a.081.081 0 0 0 .08-.08l.008-1.872c0-.07.034-.104.103-.104h2.295c.058 0 .088.03.088.09l-.002 1.855c0 .073.036.11.109.11l.998.002c.07 0 .105.036.105.107l-.002 1.764c0 .06-.029.09-.087.09h-.995c-.088 0-.131.043-.131.129Zm5.934-2.088-.998-.005c-.089-.001-.133-.046-.133-.135l.009-1.819c0-.066-.034-.1-.1-.1h-2.292c-.06 0-.09.03-.09.09l-.003 1.852c0 .08-.041.12-.12.119l-.363-.006a.108.108 0 0 0-.11.11l-.003 1.721c0 .088.043.132.129.132l.347-.002a.119.119 0 0 1 .119.119c-.008.893-.014 1.8-.018 2.72-.003 1.202.952 1.773 2.052 1.766.513-.005 1.02-.002 1.524.007.082.001.123-.04.123-.12l.003-1.828c0-.073-.036-.11-.107-.11l-.724-.013a.385.385 0 0 1-.381-.386l-.005-2.05c0-.069.035-.103.105-.103h1.024c.068 0 .102-.034.102-.102l.005-1.76c0-.065-.032-.097-.095-.097Zm29.933.01.965-.008a.158.158 0 0 1 .159.16l-.026 1.676a.119.119 0 0 1-.119.117h-.958a.15.15 0 0 0-.141.095.15.15 0 0 0-.011.059l.02 2.017c.002.184.092.297.271.338.228.053.482.063.762.03a.144.144 0 0 1 .16.142l.018 1.778a.129.129 0 0 1-.034.087.125.125 0 0 1-.083.04l-.02.002c-1.392.093-3.586.24-3.58-1.807a141.69 141.69 0 0 0-.021-2.624c-.001-.08-.042-.124-.122-.13l-.271-.027a.1.1 0 0 1-.092-.1l.018-1.712a.164.164 0 0 1 .133-.158l.143-.03c.064-.012.099-.052.105-.117l.16-1.8c.005-.063.04-.095.104-.095l2.203.004c.034 0 .067.013.091.038a.132.132 0 0 1 .038.093l.004 1.808a.124.124 0 0 0 .124.124Zm19.697 3.8c.006-.579.006-1.15-.002-1.712-.001-.092.044-.138.136-.138l.867-.008c.145-.003.217-.076.216-.221l-.01-1.628c0-.055-.028-.084-.083-.086l-1.009-.03a.111.111 0 0 1-.078-.036.114.114 0 0 1-.03-.08l.017-1.75c0-.13-.064-.195-.194-.193l-2.16.02c-.063 0-.098.032-.105.095a65.499 65.499 0 0 0-.145 1.757.213.213 0 0 1-.162.202.229.229 0 0 0-.133.098c-.236.366-.167 1.32-.124 1.731a.098.098 0 0 0 .104.088c.247-.01.374.108.382.352.03.847.044 1.705.045 2.574.003 1.818 1.849 1.76 3.174 1.719.135-.005.264-.009.385-.01.078-.002.117-.04.117-.118l-.002-1.767c0-.114-.056-.166-.17-.155a2.184 2.184 0 0 1-.825-.074.187.187 0 0 1-.129-.121 1.385 1.385 0 0 1-.082-.509Zm-12.554 2.414a.087.087 0 0 0-.054-.057.09.09 0 0 0-.079.009 3.337 3.337 0 0 1-2.067.55c-1.976-.122-3.134-1.097-3.474-2.924-.18-.959.049-1.854.684-2.686 1.387-1.818 4.733-1.871 5.937.241.198.35.363.781.494 1.295.353 1.393.685 2.66.995 3.802.022.079-.008.119-.091.119l-2.13.008c-.07 0-.117-.034-.137-.103l-.078-.254Zm-.938-2.976a1.191 1.191 0 1 0-2.383 0 1.191 1.191 0 0 0 2.383 0Zm-45.423.958c.129-.444.166-.908.11-1.364a3.447 3.447 0 0 0-1.355-2.33 3.683 3.683 0 0 0-2.666-.706 3.727 3.727 0 0 0-1.343.433 3.63 3.63 0 0 0-1.073.897c-.294.364-.512.78-.64 1.224a3.405 3.405 0 0 0-.11 1.364c.113.922.6 1.76 1.354 2.33.754.57 1.713.823 2.666.706a3.727 3.727 0 0 0 1.343-.433c.414-.229.78-.534 1.073-.897.294-.364.512-.78.64-1.224Zm-2.387-1.381a1.196 1.196 0 1 1-2.209.915 1.196 1.196 0 0 1 2.209-.915Zm19.244.023a3.447 3.447 0 0 1-.755 2.587 3.683 3.683 0 0 1-2.418 1.326 3.683 3.683 0 0 1-2.665-.711 3.447 3.447 0 0 1-1.35-2.332 3.447 3.447 0 0 1 .754-2.587 3.684 3.684 0 0 1 2.419-1.326 3.683 3.683 0 0 1 2.665.71 3.447 3.447 0 0 1 1.35 2.333Zm-2.405.435a1.197 1.197 0 1 0-2.393 0 1.197 1.197 0 0 0 2.393 0Zm4.164-3.294 2.262.008c.057 0 .103.047.103.104l-.022 6.365a.103.103 0 0 1-.104.103l-2.262-.008a.103.103 0 0 1-.103-.103l.022-6.366c0-.057.046-.103.104-.103Zm6.566 2.216a7.904 7.904 0 0 0-.212-.091c-.5-.217-.748-.054-.747.491l.007 3.87a.092.092 0 0 1-.091.092l-2.218.02a.077.077 0 0 1-.053-.023.073.073 0 0 1-.023-.052l.002-6.41c0-.072.036-.108.107-.109.983-.02 2-.013 3.05.02 1.964.058 3.264 1.566 3.295 3.494.015.96.012 1.959-.009 2.996a.07.07 0 0 1-.07.071l-2.228.004c-.06 0-.091-.03-.091-.09l.001-3.185a1.196 1.196 0 0 0-.72-1.098Zm27.14-.09.184.083c.5.224.75.61.75 1.159l-.004 3.153a.076.076 0 0 0 .076.076l2.22-.019a.093.093 0 0 0 .094-.095c-.01-.796-.012-1.597-.005-2.403.008-.913-.107-1.625-.345-2.138-.615-1.322-1.764-1.903-3.176-1.933-.911-.018-1.85-.02-2.815-.005a.108.108 0 0 0-.076.033.111.111 0 0 0-.031.077l-.01 6.449c0 .02.01.029.029.029l2.24-.01c.083 0 .125-.042.125-.126l-.005-3.843c-.001-.547.248-.71.748-.487Zm24.752-2.116-2.37-.004a.052.052 0 0 0-.051.051L89.4 29.64c0 .029.023.052.051.052l2.37.004a.052.052 0 0 0 .051-.051l.011-6.462a.052.052 0 0 0-.051-.052Zm7.446 6.577V25.71l-.062.158c-.03.076-.051.074-.063-.007-.286-1.913-1.924-2.78-3.713-2.753-.812.013-1.667.02-2.566.022a.057.057 0 0 0-.057.057V29.6c0 .073.037.109.11.109l2.182.002c.073 0 .11-.037.11-.109l-.003-3.866c-.002-.547.248-.71.748-.49l.177.078c.505.222.757.61.757 1.16v3.127c0 .062.031.093.093.093l2.287.005Zm-52.237-4.59c-.526-.002-.536.067-.029.207.54.15 1.065.313 1.572.486 1.27.435 2.042 1.612 1.36 2.921-.366.705-.987.985-1.765.981a495.768 495.768 0 0 0-4.345-.002c-.068 0-.102-.035-.101-.105l.02-1.583c.002-.064.035-.096.1-.094 1.049.035 2.053.043 3.013.024.34-.007.35-.066.027-.176a33.66 33.66 0 0 0-.411-.137c-.715-.235-1.566-.515-2.02-.88-.78-.628-.984-1.445-.615-2.45.305-.83.99-1.173 1.87-1.171 1.288.002 2.673.002 4.157 0a.22.22 0 0 1 .223.224l-.031 1.723a.05.05 0 0 1-.016.036.054.054 0 0 1-.038.015l-2.97-.019Z" clip-rule="evenodd"/></g><defs><clipPath id="a"><path fill="#fff" d="M.603.001h98.793v30H.603z"/></clipPath></defs></svg>