<svg xmlns="http://www.w3.org/2000/svg" width="110" height="26" fill="none"><g clip-path="url(#a)"><path fill="#00AB55" fill-rule="evenodd" d="M87.577 1.079c.564-.815 1.365-1.17 2.22-.955.864.216 1.414.775 1.565 1.657.15.88-.182 1.584-.92 2.087-.655.447-1.683.408-2.317-.077-.703-.538-1.009-1.484-.732-2.277.038-.11.086-.216.14-.337l.001-.002.043-.096Zm-7.662 3.13.318.145c.652.296 1.284.583 1.923.855.27.114.344.221.21.522-1.36 3.074-2.709 6.153-4.058 9.231v.002l-.844 1.924a252.625 252.625 0 0 0-.781 1.8L72.42 8.936l-4.263 9.754L62.34 5.394l.402-.19h.001c.296-.14.584-.278.874-.41.193-.088.386-.172.58-.257.29-.128.58-.255.866-.392.273-.13.4-.079.525.214A573.62 573.62 0 0 0 67.5 8.776l.656 1.503L72.42.523l4.261 9.752 2.737-6.252c.174.062.321.115.496.187Zm-72.95 8.533c-.153-.345-.29-.66-.484-1.106l-2.746 6.25-3.077-1.363 5.76-13.185.12-.011 4.206 9.621 4.261-9.753 5.824 13.327-.626.279c-.492.22-.971.434-1.454.64-.081.034-.168.078-.255.121-.264.132-.539.27-.735.2-.165-.057-.257-.329-.348-.596-.036-.108-.072-.214-.112-.306a2533.465 2533.465 0 0 1-2.16-4.91 2.384 2.384 0 0 0-.071-.143l-.076-.146-4.248 9.719-.003-.008-.002-.004-.002-.004c-1.284-2.939-2.52-5.765-3.772-8.622ZM97.478 1.521v15.657h3.437v-6.406l8.496 10.277V5.242h-3.424v6.37L97.599 1.47l-.121.052ZM44.054 6.189c.734-.718 1.444-1.417 2.132-2.094l4.831 4.609.493-.52v-.001a113.902 113.902 0 0 1 2.58-2.658c.434-.439.868-.878 1.3-1.32.182-.187.312-.141.473.023.648.658 1.3 1.312 1.956 1.962.16.158.163.28-.002.442l-1.63 1.604c-.876.864-1.751 1.728-2.633 2.584-.235.228-.2.35.014.56a667.73 667.73 0 0 1 3.478 3.463l.79.79c.034.034.062.074.092.116l.046.063-2.436 2.393-4.643-4.692-4.581 4.72-2.478-2.434 4.674-4.617-.445-.457-.007-.008-.016-.017-.002-.001c-.33-.34-.648-.667-.968-.993l-.476-.486c-.837-.855-1.673-1.709-2.516-2.557-.154-.155-.275-.277-.026-.474Zm43.558-.956V17.17h3.434V5.233h-3.434ZM50.535 24.722a89.6 89.6 0 0 0 .115-.36l.295-.91.131.023.014.128c.01.092.02.185.021.277a90.633 90.633 0 0 1 .002 1.41c0 .689.036.717.74.564V22.31c-.078 0-.153.002-.226.004-.157.004-.305.008-.451-.009-.38-.044-.6.072-.675.48-.055.293-.15.577-.245.86l-.078.237c-.059.182-.126.361-.193.541l-.089.24c-.174-.271-.248-.515-.321-.757l-.007-.02-.091-.292v-.001c-.05-.154-.098-.308-.143-.464-.242-.848-.244-.848-1.106-.827l-.037.001c-.302.007-.366.13-.363.4.012.924.01 1.849.002 2.773-.003.266.016.444.364.448.357.005.408-.157.401-.456a54.666 54.666 0 0 1-.006-1.477l.002-.6a.389.389 0 0 1 .207.247l.118.377v.001c.164.517.327 1.034.478 1.555.073.25.196.35.466.353.273.002.35-.14.412-.354.082-.28.17-.558.263-.848Zm24.204-1.705c0 .245 0 .486-.002.725-.002.59-.004 1.165.008 1.739.007.311-.07.42-.41.448-.506.042-.77-.138-.955-.6a25.974 25.974 0 0 0-.656-1.459c-.097-.204-.195-.41-.29-.615l-.127.015v.875l-.002.442c-.001.352-.003.703.004 1.055.004.257-.153.31-.342.263-.139-.034-.37-.14-.371-.22-.02-.891-.019-1.784-.017-2.699v-.674c.102 0 .198-.003.29-.005.215-.006.408-.011.597.017.125.019.276.147.338.266.206.401.4.809.594 1.216v.002c.09.188.179.375.27.562.04.086.088.168.135.25l.065.115.13-.022v-.587c0-.47-.001-.941.001-1.412.003-.357.329-.583.597-.369.091.074.104.245.118.43.006.08.012.164.025.242Zm12.62 2.009V23.99H86.378c-.543.001-.566.032-.424.584l.676.05c-.02.086-.03.177-.04.266-.021.185-.041.356-.137.435-.366.3-1.29-.02-1.42-.488a3.093 3.093 0 0 1-.09-1.121c.056-.549.359-.835.813-.9.483-.068.778.156.887.593h.718c.02-.602-.26-.974-.86-1.12-.726-.177-1.426-.099-1.95.474-.592.645-.645 1.44-.352 2.226.284.764.953.98 1.704 1 .204.006.41.003.614-.016.842-.076.842-.079.842-.948Zm-61.376-.385c.004.229.008.452.03.674.038.389-.107.588-.485.603-.117.005-.234.012-.35.019-.367.022-.736.044-1.093-.006-.862-.12-1.334-.7-1.38-1.565-.056-1.057.381-1.81 1.215-2.053.553-.16 1.104-.156 1.617.149.341.203.518.5.48.937-.061.005-.12.015-.179.024-.28.043-.529.081-.714-.338-.218-.494-1.238-.345-1.401.224a3.36 3.36 0 0 0-.058 1.452c.091.529.958.87 1.399.572.102-.07.13-.247.162-.436.014-.091.03-.185.053-.27l-.723-.06v-.542c.462 0 .922 0 1.406.03.014.2.017.395.02.586Zm35.976-2.331-.007-.005c-.22-.006-.403-.006-.628-.006v2.997c0 .684.042.716.765.55v-.496c0-.966 0-1.938-.004-2.909 0-.042-.06-.084-.126-.131Zm-29.8-18.7-2.705 4.38-5.612 9.141-.006.011 2.971 1.832.265-.433c.221-.366.434-.716.67-1.051.096-.138.314-.268.477-.27 2.629-.016 5.258-.016 7.887.001.159.001.37.14.466.277.241.342.461.699.684 1.06l.259.416 2.963-1.838L32.16 3.609Zm2.137 10.123-.288-.474a356.294 356.294 0 0 0-1.62-2.637l-.235-.385-2.135 3.496h4.278Zm3.86 10.796.46 1.303v.002c-.68.156-.71.149-.918-.417-.076-.207-.176-.316-.409-.289a1.818 1.818 0 0 1-.482 0c-.423-.066-.694.058-.787.51-.061.295-.23.29-.436.285a.884.884 0 0 0-.385.05c.052-.161.099-.309.142-.448.09-.282.166-.527.252-.77.09-.25.184-.5.278-.749.17-.449.338-.897.479-1.354.105-.343.32-.341.547-.34.059.001.119.002.178-.004.282-.026.374.12.45.36.136.436.286.866.44 1.309l.192.552Zm-1.31.033.574-.042-.504-1.462-.519 1.476.12.009.292.019.014-.001h.023Z" clip-rule="evenodd"/></g><defs><clipPath id="a"><path fill="#fff" d="M.576.001h108.847v26H.576z"/></clipPath></defs></svg>