<svg xmlns="http://www.w3.org/2000/svg" width="90" height="32" fill="none"><g clip-path="url(#a)"><path fill="#00AB55" fill-rule="evenodd" d="m26.029 17.153 7.138-4.574-7.787-.462 4.86-6.345-7.528 3.343 1.682-6.772-4.29 3.91L19.616 0 15.75 6.76 11.713.777l.61 7.396-6.516-4.779 2.923 6.806-6.152-1.328 5.571 5.358L.33 15.762l6.736 2.33-5.792 3.46 7.7-.942-4.794 6.198 7.298-3.494-1.483 8.262 4.634-5.608 1.801 5.451 1.925-5.469 4.718 5.966-.85-8.641 6.43 4.163-2.964-7.339 6.895-.175-6.555-2.771Zm-15.563-4.297s.682-1.38 1.835-1.08c1.152.3 1.146 1.704 1.146 1.704s.202-1.66-1.088-1.99c-1.447-.369-1.893 1.366-1.893 1.366Zm6.362 2.641-1.158-.016.003.007c-1.381-.142-1.279-1.524-1.279-1.524.13-1.668 2.123-2.248 2.123-2.248s.573-.202.605-.092c0 0 .051.034-.094.1 0 0-1.052.302-1.632.842 0 0-.737.67-.737 1.441 0 0-.07 1.179 1.105 1.277l1.205.019s.326-.06.28.331c0 0-.057.361-.237.361 0 0-.127-.04-.02-.174 0 0 .145-.372-.164-.324Zm5.206 1.053c.16.575.471 1.097.903 1.51 0 0 .089.207-.142.145a2.496 2.496 0 0 1-.596-.593s-1.725 3.855-5.528 3.658c0 0-.953-.013-1.651-.382a5.808 5.808 0 0 1-2.043-1.479 12.256 12.256 0 0 1-1.44-1.982c-.216.175-.448.33-.692.465-.175.067-.211.007-.211.007-.05-.072.094-.153.094-.153s.721-.362 1.235-1.348c0 0 .028-.1.119-.069 0 0 .06.027.029.145-.105.258-.23.506-.377.743 0 0 4.899 1.274 10.35.116a5.666 5.666 0 0 1-.233-.77s-.039-.105.055-.123c0 0 .087-.022.128.11Zm-10.117.965s1.75 3.44 4.923 3.476c3.37.04 5.045-3.36 5.045-3.36l-.281.055c-2.12.438-4.783.442-4.092.416a20.979 20.979 0 0 1-5.348-.535l-.247-.052Zm10.815-3.59s0-1.84-1.671-1.971c-1.21-.1-1.515 1.358-1.515 1.358s.54-1.213 1.515-1.125c1.409.122 1.67 1.737 1.67 1.737Zm-10.825-1.08c-.815.01-1.2 2.45-.242 2.537.957.089 1.253-2.614.242-2.536Zm-.421.577a.66.66 0 0 1 .195-.219.417.417 0 0 1 .122-.005.314.314 0 0 1 .104.03 2.57 2.57 0 0 0-.145.466.797.797 0 0 0-.025.406.49.49 0 0 1-.205.117.247.247 0 0 1-.184-.042 4.4 4.4 0 0 1 .056-.472.659.659 0 0 1 .082-.281Zm10.145.753c-.017-.329-.095-.678-.278-.814a.955.955 0 0 0-.156-.103 1.392 1.392 0 0 0-.158-.036c-.834-.052-1.222 2.59-.38 2.685.607.07 1.024-.97.972-1.732Zm-.799-.628a.66.66 0 0 0-.277.5 4.407 4.407 0 0 0-.056.47.24.24 0 0 0 .184.043.49.49 0 0 0 .206-.117.799.799 0 0 1 .024-.406c.034-.16.082-.315.145-.466a.314.314 0 0 0-.104-.03.414.414 0 0 0-.122.006Zm18.86-7.806h-2.47l-.448 8.196h2.205l.223-5.007 1.593 3.04h1.406l1.633-3.088.225 5.06h2.215l-.446-8.2H43.45l-1.905 3.705-1.852-3.706Zm14.443 0h-6.293v8.2h6.412v-2.037h-4.125v-1.169h3.507V8.817h-3.507V7.779h4.006V5.74Zm1.577 0H59.3c2.116 0 3.35 1.222 3.35 2.851a2.779 2.779 0 0 1-1.34 2.444l1.84 2.905h-2.64l-1.342-2.379c-.157 0-.341 0-.525-.013a5.967 5.967 0 0 1-.697-.078v2.47h-2.234v-8.2Zm4.547 2.905c0-.605-.42-.986-1.13-.986h-1.183v1.905c.392.06.787.086 1.183.078.723 0 1.13-.406 1.13-.997Zm12.55-2.905v4.047c0 2.682 1.234 4.298 3.862 4.298 2.549 0 3.876-1.67 3.876-4.298V5.741h-2.352v4.127c0 1.458-.512 2.063-1.537 2.063s-1.498-.605-1.498-2.063V5.74h-2.352Zm9.34 0h3.588c2.116 0 3.35 1.222 3.35 2.851a2.777 2.777 0 0 1-1.34 2.444l1.84 2.905h-2.64l-1.342-2.379c-.158 0-.342 0-.525-.013a5.965 5.965 0 0 1-.697-.078v2.47H82.15v-8.2Zm4.547 2.905c0-.605-.42-.986-1.13-.986h-1.183v1.905c.392.06.787.086 1.183.078.723 0 1.13-.406 1.13-.997ZM66.636 5.74H64.3v8.2h2.335v-3.167c.254.033.51.046.766.04l1.882 3.127h2.825L69.71 9.913c1.136-.907 1.715-2.28 1.78-4.17h-2.318c-.13 1.778-.867 2.984-1.868 2.984-.22 0-.439-.014-.657-.04l-.01-2.946ZM89.6 16.514H36.774v1.027H89.6v-1.027ZM38.44 27.002c.67.325 1.41.485 2.154.469a4.705 4.705 0 0 0 2.062-.435 3.154 3.154 0 0 0 1.361-1.21c.326-.556.49-1.192.475-1.836v-.382h-3.475v.903h2.438c-.04.419-.202.816-.469 1.141-.27.313-.62.547-1.013.678a4.126 4.126 0 0 1-1.384.22 3.443 3.443 0 0 1-1.645-.37 2.663 2.663 0 0 1-1.072-1.014 2.83 2.83 0 0 1-.376-1.448 2.737 2.737 0 0 1 .382-1.437c.265-.434.652-.78 1.112-.996a3.875 3.875 0 0 1 1.737-.359 4.094 4.094 0 0 1 1.53.26c.408.158.776.406 1.077.725l.62-.585a3.511 3.511 0 0 0-1.327-.98 4.778 4.778 0 0 0-1.894-.34 4.997 4.997 0 0 0-2.183.462 3.601 3.601 0 0 0-1.512 1.304 3.51 3.51 0 0 0-.544 1.946c-.016.69.16 1.372.51 1.969a3.463 3.463 0 0 0 1.436 1.315Zm7.633.341 3.557-7.228h1.181l3.51 7.228H53.21l-.973-2.05h-4.1l-.962 2.05h-1.1Zm2.503-2.977h3.231l-1.61-3.347-1.621 3.347Zm8.19-4.25-.534 7.227h1.002l.4-5.479 2.462 3.73h.834l2.461-3.869.405 5.618h1.014l-.533-7.228h-.961l-2.798 4.53-2.791-4.53h-.962Zm11.038 7.227v-7.228h1.014v7.228h-1.014Zm4.286-7.228v7.228h.99v-5.78l5.005 5.78h1.008v-7.228h-.985v5.78l-5.004-5.78h-1.014Zm13.6 7.356a4.704 4.704 0 0 1-2.155-.47 3.453 3.453 0 0 1-1.436-1.314 3.737 3.737 0 0 1-.51-1.97 3.51 3.51 0 0 1 .55-1.945c.371-.569.895-1.02 1.512-1.304a4.997 4.997 0 0 1 2.183-.463c.648-.016 1.293.1 1.894.342a3.52 3.52 0 0 1 1.327.979l-.626.59a2.95 2.95 0 0 0-1.077-.724 4.091 4.091 0 0 0-1.53-.26 3.875 3.875 0 0 0-1.73.353c-.461.216-.848.562-1.113.996-.257.435-.39.932-.382 1.437a2.815 2.815 0 0 0 .376 1.448c.255.432.626.783 1.072 1.013a3.44 3.44 0 0 0 1.645.37 4.13 4.13 0 0 0 1.384-.22c.393-.13.743-.364 1.013-.677.267-.325.43-.722.47-1.14h-2.45v-.904h3.486v.382c.015.644-.15 1.28-.474 1.836-.325.529-.799.95-1.362 1.21-.647.3-1.354.449-2.067.435Z" clip-rule="evenodd"/></g><defs><clipPath id="a"><path fill="#fff" d="M.33 0h89.34v32H.33z"/></clipPath></defs></svg>