<svg width="86" height="30" fill="none" xmlns="http://www.w3.org/2000/svg"><path d="M44.97 0h-.865v30h.864v-5.779h10.937v-3.499H47.49V16.7h7.197v-3.527H47.49V9.278h8.415V5.75H44.969V0ZM10.926 17.082l-3.103-5.028-3.98-6.232-.043-.057H.5V24.22h3.67V12.875l2.733 4.42 4.392 6.926h3.33V5.765H10.94v11.317h-.014Zm5.751 7.139h12.099v-3.499h-8.415V16.7h7.196v-3.527h-7.196V9.278h8.415V5.75H16.678v18.47Zm13.586-14.9H34.5v14.914h3.683V9.32h4.208V5.765H30.264V9.32Zm37.924 7.79-3.102-5.029-3.981-6.232-.042-.071h-3.301v18.456h3.655V12.89l2.734 4.419 4.392 6.926h3.329V5.793h-3.684V17.11Zm5.185-11.318v3.555h4.236v14.915h3.684V9.349H85.5V5.793H73.373Z" fill="#919EAB"/></svg>