<svg width="98" height="26" fill="none" xmlns="http://www.w3.org/2000/svg"><g clip-path="url(#a)"><path fill-rule="evenodd" clip-rule="evenodd" d="m90.817 3.06-3.272.003a.14.14 0 0 1-.14-.14l.013-2.782a.14.14 0 0 1 .14-.14h9.699a.14.14 0 0 1 .14.14l.006 2.78a.14.14 0 0 1-.14.14l-3.15.004a.14.14 0 0 0-.14.14l-.012 3.16a.14.14 0 0 1-.14.14L91.094 6.5a.14.14 0 0 1-.14-.14l.003-3.159a.14.14 0 0 0-.14-.14ZM37.036.004H34.32a.146.146 0 0 0-.146.146v6.206c0 .08.065.146.146.146h2.716c.08 0 .146-.065.146-.146V.149a.146.146 0 0 0-.146-.146Zm-9.25 6.367c-.506-2.89-3.349-3.717-5.888-3.16-1.702.373-2.736 1.43-3.101 3.169-.017.081-.067.122-.15.122h-2.67c-.167 0-.236-.082-.205-.247.697-3.749 2.907-5.815 6.629-6.2a9.58 9.58 0 0 1 2.02.022c3.134.34 5.315 2.1 6.211 5.254.1.357.153.708.157 1.055 0 .077-.038.116-.114.116H27.94a.157.157 0 0 1-.155-.131ZM47.482.003h2.712c.082 0 .148.066.148.148v6.202a.148.148 0 0 1-.148.148h-2.712a.148.148 0 0 1-.148-.148V.15c0-.082.066-.148.148-.148ZM66.02 2.68C67.66.454 70.028-.412 72.776.237c2.832.666 4.394 3.423 4.588 6.141.005.082-.033.123-.114.123H74.47a.118.118 0 0 1-.118-.112c-.092-1.996-1.422-3.378-3.464-3.32-2.007.056-3.167 1.141-3.48 3.256-.018.117-.086.176-.205.176h-2.69a.146.146 0 0 1-.146-.131c-.112-1.012-.587-2.087-1.397-2.703-1.102-.838-2.849-.767-3.956-.069-.875.553-1.393 1.48-1.553 2.783-.01.08-.056.12-.138.12H54.54a.104.104 0 0 1-.077-.034.11.11 0 0 1-.028-.082 7.674 7.674 0 0 1 .348-1.756c.815-2.54 2.424-4.034 4.826-4.478 2.598-.481 4.7.398 6.223 2.527.062.088.125.088.19.002ZM81.15.003h2.742c.073 0 .133.06.133.133v6.232c0 .073-.06.133-.133.133H81.15a.133.133 0 0 1-.133-.133V.136c0-.073.06-.133.133-.133ZM3.607 6.393v-3.18a.14.14 0 0 1 .135-.138 43.225 43.225 0 0 1 2.728 0c1.933.063 3.283 1.331 3.268 3.263 0 .109.054.163.163.163h2.742c.096 0 .143-.049.142-.146C12.727 3.267 10.98 1.21 8.156.369 7.5.172 6.726.079 5.84.09 3.948.12 2.242.121.724.1.64.1.599.14.599.225v6.169c0 .028.012.054.032.074.02.02.047.03.076.03l2.793.003c.072 0 .107-.036.107-.107Zm-.11.86H.71a.11.11 0 0 0-.11.11v7.73c0 .061.05.11.11.11h2.789c.06 0 .11-.049.11-.11v-7.73a.11.11 0 0 0-.11-.11Zm21.011 8.02c4.24-.49 6.606-3.806 6.324-7.887-.006-.087-.053-.13-.142-.13l-2.744-.003a.132.132 0 0 0-.085.032.128.128 0 0 0-.044.08c-.037.25-.035.5-.033.75.003.355.005.707-.106 1.05-.524 1.618-1.546 2.603-3.064 2.957-1.252.292-2.355.236-3.31-.168-1.772-.752-2.705-2.529-2.479-4.55.011-.1-.032-.149-.131-.149l-2.725-.002c-.087 0-.138.043-.152.129-.063.38-.08.756-.052 1.13.26 3.442 2.385 6.124 5.918 6.7.922.15 1.864.17 2.825.06Zm12.807-2.968 6.02-.005a.135.135 0 0 1 .136.136l-.008 2.789a.136.136 0 0 1-.136.135h-9.016a.135.135 0 0 1-.135-.135l-.002-7.837a.135.135 0 0 1 .135-.135l2.738.002a.135.135 0 0 1 .135.136l-.002 4.778a.136.136 0 0 0 .135.136Zm10.149-5.052h2.75c.071 0 .129.058.129.129v7.83a.129.129 0 0 1-.129.129h-2.75a.129.129 0 0 1-.13-.129v-7.83c0-.071.058-.129.13-.129Zm9.815 0H54.58a.155.155 0 0 0-.154.155v7.795c0 .086.069.155.154.155h2.7c.085 0 .154-.07.154-.155V7.409a.155.155 0 0 0-.155-.155Zm7.274-.002h2.686c.103 0 .187.084.187.187v7.731a.187.187 0 0 1-.187.187h-2.686a.187.187 0 0 1-.187-.187V7.438c0-.103.084-.187.187-.187Zm12.625 0-2.6.004a.23.23 0 0 0-.23.23l.014 7.642c0 .127.103.23.23.23l2.6-.005a.23.23 0 0 0 .23-.23l-.013-7.642a.23.23 0 0 0-.23-.23Zm4.015.002h2.656c.096 0 .174.078.174.174v7.753a.174.174 0 0 1-.174.174h-2.656a.174.174 0 0 1-.174-.174V7.427c0-.096.078-.174.174-.174Zm12.598-.002h-2.665a.172.172 0 0 0-.171.172v7.761c0 .095.076.172.171.172h2.665a.172.172 0 0 0 .172-.172V7.423a.172.172 0 0 0-.172-.172Zm-83.91.112h2.764c.082 0 .148.066.148.148v7.675a.148.148 0 0 1-.148.149H9.882a.148.148 0 0 1-.148-.149V7.511c0-.082.066-.148.148-.148Zm14.8 14.27c-1.668-.763-2.412.33-2.27 1.811.161 1.672 1.287 1.577 2.574 1.18.072-.023.109.003.11.08v.75a.164.164 0 0 1-.105.152 3.794 3.794 0 0 1-1.631.238c-1.717-.116-2.228-1.478-2.147-2.982.026-.453.128-.858.305-1.216.658-1.32 2.312-1.56 3.597-.95.105.048.136.127.095.236l-.217.574c-.059.153-.163.195-.312.127Zm14.47-1.163h1.005c.048 0 .088.04.088.088v5.14c0 .049-.04.088-.088.088H39.15a.088.088 0 0 1-.088-.088v-5.14c0-.049.04-.088.088-.088Zm17.37 1.03v4.217a.066.066 0 0 1-.067.067l-1.048.002a.067.067 0 0 1-.067-.067v-4.222a.067.067 0 0 0-.067-.066l-1.261.004a.067.067 0 0 1-.067-.067l-.002-.833a.067.067 0 0 1 .067-.067h3.895a.067.067 0 0 1 .067.067v.833a.067.067 0 0 1-.066.067l-1.318-.002a.067.067 0 0 0-.066.066Zm16.748.983a.07.07 0 0 1-.025-.027l-.966-1.943a.08.08 0 0 0-.076-.045l-1.184.002c-.031 0-.04.014-.025.043.505.971 1.021 1.928 1.547 2.87.154.276.227.546.217.81-.017.472-.021.973-.011 1.503.001.06.032.09.092.09l.974-.002c.037 0 .056-.019.058-.056.005-.531.004-1.067-.005-1.607a1.505 1.505 0 0 1 .218-.778c.547-.954 1.058-1.9 1.534-2.836.011-.023.004-.035-.022-.035l-1.169-.004a.04.04 0 0 0-.036.024l-1.023 1.966a.069.069 0 0 1-.098.025Z" fill="#00AB55"/></g><defs><clipPath id="a"><path fill="#fff" transform="translate(.545 .001)" d="M0 0h96.909v26H0z"/></clipPath></defs></svg>