<svg width="74" height="32" fill="none" xmlns="http://www.w3.org/2000/svg"><path fill-rule="evenodd" clip-rule="evenodd" d="M18.26 25.323a1.298 1.298 0 0 1-.656-1.71L27.727.89a1.299 1.299 0 0 1 1.71-.657c.65.29.946 1.06.656 1.71L19.97 24.666c-.29.65-1.059.946-1.71.657Zm4.256 0a1.298 1.298 0 0 1-.656-1.71L29.459 6.55a1.298 1.298 0 0 1 1.71-.656c.65.29.945 1.059.655 1.71l-7.599 17.063c-.29.65-1.059.946-1.71.657Zm3.6-1.71c-.29.65.005 1.42.656 1.71.65.29 1.42-.006 1.71-.657l4.951-11.25c.29-.651-.005-1.42-.656-1.71-.65-.29-1.42.005-1.71.656l-4.951 11.251Zm4.86 1.71a1.298 1.298 0 0 1-.656-1.71l2.357-5.282a1.298 1.298 0 0 1 1.71-.657c.65.29.945 1.06.655 1.71l-2.357 5.282c-.29.65-1.059.946-1.71.657Zm12.146-1.71c-.29.65.006 1.42.656 1.71.65.29 1.42-.006 1.71-.657l2.357-5.282c.289-.65-.006-1.42-.657-1.71-.65-.29-1.42.006-1.709.657l-2.357 5.282Zm4.912 1.71a1.298 1.298 0 0 1-.656-1.71l2.357-5.282a1.299 1.299 0 0 1 1.71-.657c.65.29.945 1.06.656 1.71l-2.358 5.282c-.29.65-1.058.946-1.709.657Zm3.548-1.71c-.29.65.005 1.42.656 1.71.65.29 1.42-.006 1.71-.657l2.357-5.282c.289-.65-.006-1.42-.657-1.71-.65-.29-1.42.006-1.71.657l-2.356 5.282Zm-16.402 1.71a1.298 1.298 0 0 1-.656-1.71L44.647.89a1.298 1.298 0 0 1 1.71-.657c.65.29.946 1.06.656 1.71L36.89 24.666c-.29.65-1.059.946-1.71.657Zm3.634-1.71c-.29.65.006 1.42.656 1.71.65.29 1.42-.006 1.71-.657L51.302 1.942c.29-.65-.005-1.42-.656-1.71-.65-.29-1.42.006-1.71.657L38.815 23.613Zm23.25 8.27v-1.238h-2.521v1.238h-.791v-3.101h.79v1.254h2.523v-1.254h.79v3.1h-.79Zm-33.113-3.101v3.1h3.504v-.61h-2.713v-.628h2.508v-.61l-2.508.001v-.645l2.713.002v-.61H28.95Zm-2.515 3.1v-1.238h-2.521v1.239h-.792v-3.101h.791v1.254h2.522v-1.254h.79v3.1h-.79Zm-24.777 0V29.03l1.965 2.854H5.223v-3.101h-.791v2.884l-1.97-2.884H.868v3.1h.79Zm38.867-2.853v2.854h-.79v-3.101h1.592l1.97 2.884v-2.884h.791v3.1h-1.598l-1.965-2.853Zm-21.032.393v2.461h.85v-2.461l1.498-.002v-.64h-3.845v.642h1.497Zm46.25 2.461v-2.461h-1.498v-.641h3.846v.64h-1.498v2.462h-.85Zm-19.92-3.103v3.104h3.258v-.625l-2.404.001-.004-2.48h-.85Zm4.47-.003h.851v3.113h-.85v-3.113ZM13.692 30.43V29.39l1.751.004c.235 0 .426.191.426.426v.184a.427.427 0 0 1-.426.426l-1.751.001Zm1.46.632.586.823h.907l-.596-.827s.607-.248.607-.824v-.628a.83.83 0 0 0-.828-.828l-2.993-.001v3.11h.854v-.826l1.462.001Zm19.893-1.673v1.041h1.752a.427.427 0 0 0 .425-.427v-.184a.426.426 0 0 0-.425-.426l-1.752-.004Zm2.047 2.496-.587-.823-1.462-.001v.825h-.855v-3.11l2.993.002a.83.83 0 0 1 .829.829v.627c0 .576-.608.824-.608.824l.596.828h-.906ZM7.68 29.95c0-.3.244-.544.544-.544h1.614c.3 0 .544.244.544.544v.765c0 .3-.244.545-.544.545H8.225a.545.545 0 0 1-.544-.545v-.765Zm-.73 1.073c0 .483.393.877.876.877h2.42a.878.878 0 0 0 .877-.877v-1.377a.877.877 0 0 0-.876-.876H7.827a.877.877 0 0 0-.876.876v1.377Zm46.788.875a.877.877 0 0 1-.876-.875v-1.378c0-.482.393-.875.876-.875h2.42c.41 0 .767.292.855.688l-.774.258a.543.543 0 0 0-.49-.311h-1.614c-.3 0-.544.244-.544.544v.765c0 .3.245.545.544.545h1.614c.301 0 .545-.244.545-.544v-.02a.071.071 0 0 0-.07-.07h-1.28l.005-.433h2.083l.003.83a.877.877 0 0 1-.876.877h-2.421Zm19.308-2.218v.054h-.754l.002-.025a.34.34 0 0 0-.338-.339h-1.47c-.095 0-.18.04-.242.103a.337.337 0 0 0 .235.58l1.763.015c.5-.001.826.345.828.846v.07a.914.914 0 0 1-.91.914l-1.805.005a.914.914 0 0 1-.913-.91v-.053l.76-.002a.33.33 0 0 0-.006.064c0 .186.152.316.338.316h1.501a.34.34 0 0 0 .338-.339c0-.186-.152-.315-.338-.315l-1.676-.003a.914.914 0 0 1-.911-.91v-.07c0-.502.41-.912.911-.912h1.775c.501 0 .912.41.912.911Z" fill="#00AB55"/></svg>