<svg width="106" height="30" fill="none" xmlns="http://www.w3.org/2000/svg"><g clip-path="url(#a)" fill="#00AB55"><path d="M10.244 1.838A.972.972 0 0 1 10.9.604C20.234-2.15 29.607 4.88 29.566 14.5a1 1 0 0 1-.986.987 1 1 0 0 1-.987-.987c0-8.346-8.1-14.389-16.116-12.005a.972.972 0 0 1-1.233-.657Z"/><path d="M18.384 20.091c-.37-.41-.288-1.027.123-1.398 3.782-3.165 1.562-9.373-3.412-9.414-5.016 0-7.236 6.331-3.33 9.456.452.329.493.945.164 1.398-.329.452-.946.493-1.398.164a7.246 7.246 0 0 1-2.754-5.715c0-4.029 3.289-7.318 7.318-7.318s7.318 3.29 7.318 7.318a7.282 7.282 0 0 1-2.632 5.633c-.41.37-1.027.287-1.397-.124ZM74.42 9.525c.163.165.246.37.246.617a.838.838 0 0 1-.247.617c-.164.164-.37.246-.657.246H71.5v8.017c0 .247-.082.452-.287.658a1.04 1.04 0 0 1-.699.247c-.288 0-.493-.083-.658-.247-.165-.165-.246-.37-.246-.658v-8.058h-2.303c-.247 0-.493-.082-.658-.247a.837.837 0 0 1-.246-.616c0-.247.082-.452.246-.617.165-.164.37-.246.658-.246h6.496c.246.04.452.123.616.287Z"/><path fill-rule="evenodd" clip-rule="evenodd" d="M48.93 17.296c-.411.822-1.028 1.439-1.768 1.932a4.837 4.837 0 0 1-2.549.7 4.837 4.837 0 0 1-2.549-.7 4.734 4.734 0 0 1-1.768-1.932c-.41-.822-.657-1.686-.657-2.672 0-.987.205-1.85.657-2.673.412-.822 1.028-1.439 1.768-1.932a4.837 4.837 0 0 1 2.55-.699c.945 0 1.808.247 2.548.7a4.734 4.734 0 0 1 1.768 1.931c.411.823.658 1.686.658 2.673-.041.986-.247 1.85-.658 2.672Zm-1.645-4.44a3.026 3.026 0 0 0-1.11-1.274c-.452-.33-.986-.453-1.603-.453s-1.11.165-1.603.453c-.453.287-.823.74-1.07 1.274-.246.534-.37 1.151-.37 1.809 0 .658.124 1.233.37 1.809a3.24 3.24 0 0 0 1.07 1.274c.452.288.986.453 1.603.453.576 0 1.11-.165 1.603-.453.453-.329.823-.74 1.11-1.274.247-.535.412-1.11.412-1.768-.042-.74-.165-1.316-.412-1.85Z"/><path d="M57.111 12.65c.37.575.576 1.398.576 2.466v3.906c0 .247-.082.452-.247.658a.836.836 0 0 1-.616.247.836.836 0 0 1-.617-.247c-.165-.165-.247-.37-.247-.658v-3.905c0-.535-.123-.946-.329-1.275-.205-.288-.616-.452-1.15-.452-.577 0-1.029.164-1.317.493-.328.33-.493.74-.493 1.234v3.905c0 .247-.082.452-.246.658a.837.837 0 0 1-.617.247.836.836 0 0 1-.617-.247c-.164-.165-.247-.37-.247-.658V12.65c0-.247.083-.452.247-.658a.837.837 0 0 1 .617-.247c.246 0 .452.083.617.247.164.164.246.37.246.658v.41c.247-.369.617-.657 1.028-.904.411-.246.904-.37 1.398-.37.945 0 1.644.288 2.014.864Z"/><path fill-rule="evenodd" clip-rule="evenodd" d="M65.58 16.433c.247 0 .452-.041.617-.206.164-.164.288-.329.288-.534 0-.7-.165-1.316-.494-1.932-.329-.617-.78-1.07-1.356-1.44a3.207 3.207 0 0 0-1.81-.534c-.657 0-1.274.165-1.85.493-.575.33-1.027.823-1.397 1.44-.37.657-.535 1.397-.535 2.22 0 .74.165 1.397.494 2.014.329.575.78 1.069 1.398 1.398.616.329 1.315.493 2.137.493.494 0 .946-.082 1.398-.247.452-.164.823-.37 1.11-.575.288-.206.411-.452.411-.699a.651.651 0 0 0-.205-.493c-.165-.124-.33-.206-.535-.206-.164 0-.329.041-.493.123-.082.041-.164.083-.288.165-.123.082-.329.164-.534.247-.247.082-.535.123-.946.123a2.263 2.263 0 0 1-1.439-.494c-.452-.328-.699-.78-.822-1.356h4.851Zm-.986-1.44H60.77c.206-1.068.863-1.603 1.973-1.603.453 0 .864.165 1.234.453.37.288.575.658.617 1.069v.082ZM79.64 19.393c.617-.329 1.07-.822 1.44-1.44.37-.616.534-1.315.534-2.096 0-.78-.164-1.48-.535-2.096a3.466 3.466 0 0 0-1.438-1.44c-.617-.37-1.275-.534-2.015-.534-.74 0-1.398.206-2.014.535-.617.329-1.069.822-1.44 1.439-.37.616-.534 1.315-.534 2.096 0 .781.165 1.48.535 2.097s.822 1.11 1.439 1.439a4.175 4.175 0 0 0 2.014.493c.74 0 1.398-.164 2.015-.493Zm-.904-5.674c.37.206.617.494.822.864.206.37.288.78.288 1.274s-.082.905-.288 1.275c-.205.37-.493.657-.822.863-.329.206-.699.288-1.11.288-.41 0-.781-.082-1.11-.288-.37-.206-.616-.493-.822-.863-.206-.37-.288-.781-.288-1.275 0-.452.082-.904.288-1.274.206-.37.493-.658.822-.864.329-.205.7-.287 1.11-.287.411 0 .781.082 1.11.287Z"/><path d="M89.343 12.034c.164.164.246.37.246.658v3.864c0 1.069-.287 1.891-.863 2.467-.575.617-1.398.904-2.466.904-1.07 0-1.892-.287-2.467-.904-.576-.617-.864-1.44-.864-2.467v-3.864c0-.247.083-.453.247-.658a.836.836 0 0 1 .617-.247c.246 0 .452.082.616.247.165.164.247.37.247.658v3.864c0 .617.124 1.028.411 1.316.247.288.658.452 1.193.452.534 0 .945-.165 1.192-.452.247-.288.411-.74.411-1.316v-3.864c0-.247.082-.453.247-.658a.836.836 0 0 1 .616-.247c.247 0 .453.082.617.247ZM97.525 13.185c0-.412-.288-.781-.782-1.028-.493-.247-1.151-.37-2.014-.247-.74 0-1.398.206-1.974.535-.575.329-1.027.822-1.356 1.438-.329.617-.494 1.316-.494 2.097 0 .74.124 1.44.452 2.056.288.617.74 1.069 1.316 1.439.576.37 1.233.534 1.974.534.492 0 .986-.04 1.438-.164a3.222 3.222 0 0 0 1.069-.493c.288-.206.411-.412.411-.658 0-.247-.082-.453-.206-.617-.122-.165-.328-.247-.575-.247-.123 0-.247 0-.329.041l-.008.004-.03.015-.027.011a.725.725 0 0 0-.222.135 4.291 4.291 0 0 1-.123.078c-.057.035-.098.06-.124.086-.247.124-.576.165-1.069.165a2.083 2.083 0 0 1-1.603-.7c-.411-.492-.617-1.068-.617-1.767 0-.74.206-1.316.617-1.768.41-.452.986-.699 1.726-.699.124 0 .247 0 .453.042.205.04.37.082.452.123a.667.667 0 0 1 .288.164.725.725 0 0 0 .222.135c.024.01.046.02.065.03a.824.824 0 0 0 .37.082c.206 0 .37-.082.494-.247a.984.984 0 0 0 .206-.575ZM104.925 12.65c.37.576.575 1.398.575 2.467v3.906c0 .247-.082.452-.247.658a.834.834 0 0 1-.616.246.838.838 0 0 1-.617-.246c-.165-.165-.246-.37-.246-.658v-3.906c0-.534-.124-.945-.33-1.274-.205-.288-.575-.453-1.11-.453-.534 0-.986.165-1.274.494-.288.329-.452.74-.452 1.233v3.906c0 .247-.083.452-.247.658a.835.835 0 0 1-.617.246.839.839 0 0 1-.617-.246c-.164-.165-.246-.37-.246-.658v-8.84c0-.246.082-.451.246-.657a.839.839 0 0 1 .618-.247c.246 0 .452.083.616.247.164.164.247.37.247.658v2.878c.247-.37.616-.658.986-.905.412-.246.864-.37 1.357-.37.946 0 1.603.288 1.974.863ZM21.55 23.586c2.795-2.014 4.604-5.262 4.604-8.962a1 1 0 0 0-.987-.987 1 1 0 0 0-.987.987c0 3.042-1.48 5.714-3.74 7.318-.453.329-.535.945-.247 1.398.287.493.904.575 1.356.246ZM22.084 6.072C14.93.275 4.077 5.332 4.077 14.665c0 6.084 4.933 11.018 11.018 11.018a1 1 0 0 0 .986-.987 1 1 0 0 0-.986-.987c-4.975 0-9.045-4.029-9.045-9.044 0-7.606 8.88-11.758 14.718-6.99.411.37 1.07.288 1.398-.123.411-.493.329-1.11-.082-1.48Z"/><path d="M.5 14.706a1 1 0 0 1 .987-.987c.575 0 1.027.453 1.027.987 0 6.948 5.633 12.58 12.58 12.58 2.96 0 5.839-1.028 8.1-2.919.41-.37 1.028-.288 1.398.124.37.41.287 1.027-.124 1.397a14.536 14.536 0 0 1-9.373 3.413C7.037 29.3.5 22.764.5 14.706Z"/><path fill-rule="evenodd" clip-rule="evenodd" d="M41.653 23.134c.165.164.247.41.247.699 0 .205-.041.37-.124.534a.97.97 0 0 1-.329.37 1.095 1.095 0 0 1-.493.123h-1.11v1.48c0 .042 0 .042-.041.083-.041.04-.041.04-.082.04s-.041 0-.082-.04c0 0-.042-.041-.042-.082v-3.372c0-.04 0-.04.042-.082.04-.041.04-.041.082-.041h1.233c.288 0 .493.123.699.288Zm-.164 1.274a.891.891 0 0 0 .205-.575.891.891 0 0 0-.205-.576.781.781 0 0 0-.535-.206h-1.11v1.563h1.11a.535.535 0 0 0 .535-.206ZM45.065 26.464c.041 0 .083-.041.083-.041.04-.041.04-.041.04-.083 0-.04 0-.082-.04-.04-.042-.042-.083-.124-.124-.206-.04-.124-.04-.247-.04-.494 0-.246-.042-.41-.165-.575-.124-.123-.247-.247-.412-.288a.819.819 0 0 0 .494-.329c.123-.164.164-.329.164-.575 0-.206-.04-.37-.123-.494a.97.97 0 0 0-.37-.329 1.139 1.139 0 0 0-.535-.123h-1.356c-.018 0-.028 0-.036.003-.013.004-.023.014-.046.038-.041.041-.041.041-.041.082v3.371c0 .042.04.083.04.083.042.04.042.04.083.04s.041 0 .082-.04c.041-.041.041-.041.041-.082v-1.48h1.192c.206 0 .37.04.535.164.123.123.206.288.206.576 0 .246.04.452.082.575a.42.42 0 0 0 .205.247h.041Zm-.452-2.056c-.123.123-.329.206-.534.247h-1.275v-1.563h1.192c.247 0 .453.083.617.206.123.165.206.329.206.535 0 .246-.041.41-.206.575Z"/><path d="M48.066 26.258c0 .02.01.031.021.041.01.01.02.021.02.041 0 .042 0 .042-.04.083 0 0-.042.04-.083.04h-1.932c-.041 0-.041 0-.082-.04 0 0-.041-.041-.041-.082v-3.372c0-.017 0-.027.003-.036.004-.012.014-.022.038-.046.023-.024.033-.034.046-.038.008-.003.019-.003.036-.003h1.932c.018 0 .028 0 .037.003.012.004.022.014.045.038 0 0 .041.041.041.082s0 .041-.04.082c0 0-.042.042-.083.042h-1.809v1.439h1.604c.04 0 .04 0 .082.04 0 .021.01.032.02.042.01.01.021.02.021.04 0 .042 0 .042-.041.083-.02 0-.03.01-.041.02-.01.011-.02.021-.041.021h-1.604V26.3h1.81c0-.04.04-.04.081-.04ZM52.013 22.97c0-.042-.04-.083-.04-.083s-.042-.041-.165 0c-.018 0-.028 0-.037.003-.012.004-.022.014-.046.038l-1.397 2.097-1.398-2.097c0-.041-.041-.041-.082-.041s-.083 0-.083.041c-.04.041-.04.041-.04.082v3.371c0 .042.04.083.04.083.042.04.042.04.083.04.04 0 .082 0 .082-.04.023-.024.034-.034.038-.046.003-.009.003-.02.003-.037v-3.083l1.316 2.015c0 .04.04.04.082.04.04 0 .082 0 .082-.04l1.316-2.015v3.042c0 .041.04.083.04.083.024.023.034.033.046.038a.111.111 0 0 0 .037.003c.017 0 .027 0 .036-.003.012-.005.023-.015.046-.038.041-.041.041-.041.041-.083v-3.37ZM53.164 26.423c-.04.04-.04.04-.082.04-.04 0-.04 0-.082-.04 0 0-.041-.041-.041-.082v-3.372c0-.017 0-.027.003-.036.004-.012.014-.022.038-.046s.034-.034.046-.038c.009-.003.019-.003.036-.003a.11.11 0 0 1 .037.003c.012.004.022.014.045.038 0 0 .042.041.042.082v3.371c0 .021-.01.031-.02.042-.011.01-.022.02-.022.04ZM56.823 22.97c0-.042-.04-.083-.04-.083-.042 0-.042-.041.04-.041-.04 0-.082 0-.082.041-.041.041-.04.041-.04.082v2.22c0 .206-.042.412-.165.576-.124.164-.247.329-.412.411-.205.123-.37.165-.575.165-.164 0-.37-.083-.535-.165-.164-.123-.329-.247-.41-.411a1.027 1.027 0 0 1-.165-.576v-2.22c0-.04-.041-.082-.041-.082-.024-.024-.034-.034-.046-.038a.05.05 0 0 0-.012-.002l-.024-.001c-.021 0-.031.01-.041.02-.01.01-.021.021-.042.021-.023.024-.033.034-.038.046-.003.009-.003.019-.003.036v2.22c0 .247.041.453.165.658.123.206.287.37.493.493.206.124.411.165.658.165.246 0 .452-.041.658-.165.205-.123.37-.287.493-.493.123-.205.164-.411.164-.658v-2.22ZM60.976 22.887s.04.041.04.082v3.371c0 .041 0 .041-.04.083-.024.023-.034.033-.046.038-.01.003-.02.003-.037.003-.017 0-.027 0-.036-.003-.012-.005-.022-.015-.046-.038 0 0-.04-.041-.04-.083v-3.042l-1.316 2.015c0 .04-.042.04-.083.04-.04 0-.082 0-.082-.04l-1.316-2.015v3.084c0 .04 0 .04-.04.082 0 .04-.042.04-.083.04s-.041 0-.082-.04c0 0-.041-.041-.041-.082V23.01c0-.04 0-.04.04-.082 0-.041.042-.041.083-.041s.082 0 .082.041l1.398 2.097 1.398-2.097c.024-.024.034-.034.046-.038.009-.003.019-.003.036-.003.086-.029.112-.017.134-.008a.07.07 0 0 0 .03.008ZM66.526 22.97c0-.042-.041-.083-.041-.083s-.041-.041-.165 0c-.017 0-.027 0-.036.003-.012.004-.022.014-.046.038l-1.398 2.097-1.398-2.097c0-.041-.04-.041-.082-.041-.04 0-.082 0-.082.041-.024.024-.034.034-.038.046-.003.009-.003.019-.003.036v3.371c0 .042.041.083.041.083.041.04.041.04.082.04s.082 0 .082-.04c.024-.024.034-.034.038-.046.004-.009.004-.02.004-.037v-3.083l1.315 2.015c0 .04.041.04.082.04s.082 0 .082-.04l1.316-2.015v3.042c0 .041.041.083.041.083.024.023.034.033.046.038a.052.052 0 0 0 .013.002h.024c.017 0 .027 0 .036-.003.012-.004.022-.014.046-.037.04-.041.04-.041.04-.082v-3.372Z"/><path fill-rule="evenodd" clip-rule="evenodd" d="M70.432 25.6c-.165.288-.33.494-.617.658-.247.165-.535.247-.904.247-.37 0-.618-.082-.905-.247a1.904 1.904 0 0 1-.617-.657c-.164-.288-.205-.617-.205-.946 0-.37.082-.658.205-.946.165-.287.33-.493.617-.657.247-.165.534-.247.905-.247.37 0 .616.082.904.247.247.164.452.37.617.657.164.288.205.617.205.946 0 .37-.082.658-.205.946Zm-.206-1.808c-.124-.247-.288-.453-.535-.576a1.7 1.7 0 0 0-.78-.206 1.7 1.7 0 0 0-.782.206c-.246.123-.41.329-.534.576a1.912 1.912 0 0 0 0 1.726c.123.247.288.453.534.576.247.123.494.205.782.205.287 0 .534-.082.78-.205.247-.123.411-.329.535-.576a1.916 1.916 0 0 0 0-1.726ZM73.926 25.477c0-.246-.082-.452-.206-.617-.123-.164-.288-.246-.493-.328.165-.082.329-.165.411-.33.082-.164.123-.328.123-.534a.838.838 0 0 0-.246-.616c-.165-.165-.37-.247-.658-.247H71.5c-.041 0-.082 0-.082.041-.04.041-.04.041-.04.082V26.3c0 .042.04.083.04.083.04.04.04.04.082.04h1.398c.288 0 .534-.081.74-.246.206-.164.288-.37.288-.699Zm-1.11-2.384c.246 0 .41.04.534.164.123.123.165.288.206.493 0 .247-.083.453-.206.576-.164.123-.329.206-.534.206h-1.233v-1.44h1.233Zm.904 2.384c0 .247-.082.452-.247.576a.785.785 0 0 1-.616.164h-1.274v-1.52h1.274c.247 0 .452.081.616.205.165.123.247.329.247.575Z"/><path d="M74.83 26.423c0 .04-.041.04-.081.04-.042 0-.042 0-.083-.04 0 0-.041-.041-.041-.082v-3.399l.001-.004.002-.005c.004-.012.014-.022.038-.046 0-.041.041-.041.083-.041a.11.11 0 0 1 .035.003c.012.004.022.014.046.038 0 0 .041.041.041.082v3.371c-.04.042-.04.042-.04.083ZM77.91 26.304c-.004-.012-.014-.022-.037-.046h-1.85V22.97c0-.04-.042-.082-.042-.082-.023-.024-.033-.034-.045-.038-.01-.003-.02-.003-.037-.003-.04 0-.082 0-.082.041-.024.024-.034.034-.038.046-.003.009-.003.019-.003.036v3.371c0 .042.041.083.041.083.041.04.041.04.082.04h1.891c.042 0 .083-.04.083-.04.04-.041.04-.041.04-.082v-.027l-.001-.006-.002-.004ZM80.545 26.258c0 .02.01.031.02.041.01.01.02.021.02.041 0 .042 0 .042-.04.083-.02 0-.03.01-.041.02-.01.01-.02.02-.041.02H78.53c-.041 0-.041 0-.083-.04 0 0-.041-.041-.041-.082v-3.372c0-.017 0-.027.003-.036.004-.012.014-.022.038-.046 0-.041.042-.041.083-.041h1.932c.017 0 .027 0 .036.003.012.004.023.014.046.038 0 0 .04.041.04.082s0 .041-.04.082c-.02 0-.03.01-.041.021-.01.01-.02.02-.041.02h-1.81v1.44h1.604c.041 0 .041 0 .083.04.04.042.04.042.04.083 0 .017 0 .027-.003.036-.004.012-.014.023-.037.046 0 0-.041.041-.083.041h-1.603V26.3h1.809c.023-.023.034-.033.046-.038a.052.052 0 0 1 .01-.002.13.13 0 0 1 .011 0h.015ZM85.334 24.737c-.01-.01-.02-.02-.02-.04-.04 0-.082 0-.123-.083h-1.028c-.02 0-.03.01-.041.02-.01.01-.02.021-.041.021-.042.041-.042.041-.042.082s.042.083.042.083c.023.023.034.033.046.038a.057.057 0 0 0 .013.002.169.169 0 0 0 .023 0h.904v1.152a1.51 1.51 0 0 1-.452.205 2.059 2.059 0 0 1-.493.083c-.288 0-.576-.083-.823-.206-.247-.123-.452-.288-.575-.576-.123-.287-.206-.534-.206-.863 0-.329.083-.617.206-.863.123-.247.328-.453.575-.576a1.763 1.763 0 0 1 1.727.041h.082c.018 0 .028 0 .037-.003.012-.004.022-.014.046-.038.04-.04.04-.04.04-.082 0-.041 0-.082-.04-.082a1.525 1.525 0 0 0-.453-.206 2.084 2.084 0 0 0-.534-.082 1.8 1.8 0 0 0-.945.247c-.288.164-.494.37-.658.657a1.797 1.797 0 0 0-.247.946c0 .37.082.658.247.945.164.288.37.494.658.658a1.8 1.8 0 0 0 .945.247c.176 0 .322-.03.49-.065l.086-.017c.205-.041.37-.123.534-.247.04 0 .04-.041.04-.082v-1.275c0-.02-.01-.03-.02-.04Z"/><path fill-rule="evenodd" clip-rule="evenodd" d="M88.685 26.422s-.041.042-.082.042h-.082l-.041-.041-.412-1.07h-1.726l-.411 1.028c0 .041-.041.083-.082.083h-.02a.056.056 0 0 1-.017-.003c-.012-.005-.022-.015-.046-.038l-.041-.042v-.04l1.357-3.372c0-.041.04-.041.04-.041h.042c.041 0 .082.041.082.082l1.48 3.33c0 .041 0 .041-.041.082Zm-2.22-1.274h1.562l-.78-1.932-.782 1.932Z"/><path d="M92.632 22.97c0-.042-.041-.083-.041-.083-.012 0-.021-.004-.03-.008-.023-.01-.049-.02-.134.008-.042 0-.042 0-.083.041l-1.398 2.097-1.398-2.097c0-.041-.04-.041-.082-.041-.04 0-.082 0-.082.041-.024.024-.034.034-.038.046-.003.009-.003.019-.003.036v3.371c0 .042.041.083.041.083.041.04.041.04.082.04.042 0 .042 0 .082-.04.024-.024.034-.034.038-.046.004-.009.004-.02.004-.037v-3.083l1.315 2.015c0 .04.041.04.082.04.042 0 .083 0 .083-.04l1.316-2.015v3.042c0 .041.04.083.04.083.024.023.034.033.046.038.009.003.019.003.037.003.04 0 .04 0 .082-.041.041-.041.041-.041.041-.083v-3.37ZM95.674 26.258c0 .02.01.031.021.041.01.01.02.021.02.041 0 .042 0 .042-.04.083-.021 0-.032.01-.042.02-.01.01-.02.02-.041.02H93.66c-.041 0-.041 0-.083-.04 0 0-.04-.041-.04-.082v-3.372c0-.017 0-.027.002-.036.004-.012.015-.022.038-.046 0-.041.042-.041.083-.041h1.932c.041 0 .041 0 .082.041 0 0 .042.041.042.082s0 .041-.042.082c-.02 0-.03.01-.04.021-.011.01-.022.02-.042.02h-1.81v1.44h1.604c.042 0 .042 0 .083.04.041.042.041.042.041.083l-.001.028a.046.046 0 0 1-.002.008c-.004.012-.014.022-.038.046 0 0-.041.041-.083.041h-1.603V26.3h1.809c.041-.04.082-.04.082-.04ZM96.085 25.97c.206.206.37.33.576.412.206.082.411.123.699.164.205 0 .411-.04.576-.123a.86.86 0 0 0 .41-.33.934.934 0 0 0 .124-.451c0-.206-.082-.411-.165-.535a1.325 1.325 0 0 0-.367-.327l-.002-.002a4.008 4.008 0 0 0-.576-.246c-.07-.035-.138-.062-.204-.088-.091-.036-.177-.07-.249-.118-.121-.04-.243-.162-.326-.244l-.002-.003c-.083-.082-.124-.205-.124-.37 0-.205.083-.37.247-.493.165-.123.412-.164.658-.164.165 0 .329.04.493.123.164.082.288.164.37.288.024.023.034.033.046.038a.11.11 0 0 0 .036.003c.042 0 .042 0 .083-.041s.041-.041.041-.082c0-.042 0-.083-.041-.124-.083-.164-.247-.247-.411-.329a1.316 1.316 0 0 0-.576-.123 1.31 1.31 0 0 0-.575.123.856.856 0 0 0-.411.33.827.827 0 0 0-.124.451c0 .206.041.37.124.494.08.122.203.204.325.285l.003.003c.124.082.288.164.535.246.066.027.127.049.185.07.122.043.224.08.308.136a.642.642 0 0 1 .329.246.693.693 0 0 1 .124.412c0 .205-.083.37-.247.493a1.14 1.14 0 0 1-.658.205c-.205 0-.412-.04-.576-.123a1.125 1.125 0 0 1-.493-.37c-.04-.041-.04-.041-.082-.041-.041 0-.041 0-.083.041-.04.041-.04.041-.04.082s.04.082.04.082Z"/></g><defs><clipPath id="a"><path fill="#fff" transform="translate(.5 .001)" d="M0 0h105v30H0z"/></clipPath></defs></svg>