<svg xmlns="http://www.w3.org/2000/svg" width="74" height="30" fill="none"><g clip-path="url(#a)"><path fill="#00AB55" fill-rule="evenodd" d="m19.56 8.237-.959.012a.148.148 0 0 0-.122.068l-2.87 4.3a.06.06 0 0 1-.08.02.06.06 0 0 1-.022-.02l-2.871-4.306a.143.143 0 0 0-.121-.063c-.733.002-1.498.001-2.294-.003-.038 0-.068.018-.09.055a.078.078 0 0 0 .002.086l3.943 5.692c.015.023.024.05.024.078a.134.134 0 0 1-.024.076l-4.083 5.894a.053.053 0 0 0 .045.084l1.303-.01-4.67 6.797c-.027.04-.06.046-.1.017A14.983 14.983 0 0 1 .699 12.947C1.789 5.014 8.9-.643 16.876.111a14.695 14.695 0 0 1 6.652 2.316.024.024 0 0 1 .003.018.026.026 0 0 1-.004.01L19.56 8.237ZM4.508 10.05c.074.002.151 0 .232 0 .544-.007 1.197-.015 1.196.742-.004 2.63-.005 5.44-.002 8.426 0 .139.005.28.017.425a.082.082 0 0 0 .082.077l2.833.01c.06 0 .09-.03.09-.09-.003-3.268-.002-6.428.003-9.48.002-.985-.602-1.348-1.532-1.339-.962.01-1.935.01-2.919.002-.047 0-.072.024-.072.07L4.43 9.972a.079.079 0 0 0 .077.08Zm8.072 10.094 1.183-1.748 1.8-2.641 2.921 4.33a.282.282 0 0 0 .234.123l2.36.002c.043 0 .057-.02.042-.058a.369.369 0 0 0-.039-.074c-1.364-1.98-2.713-3.929-4.046-5.848a.13.13 0 0 1 0-.147l3.944-5.69a.086.086 0 0 0 .01-.08.087.087 0 0 0-.059-.055.542.542 0 0 0-.182-.017l3.563-5.192a.069.069 0 0 1 .044-.028.068.068 0 0 1 .051.013c6.489 4.945 7.909 14.187 3.07 20.8A14.86 14.86 0 0 1 7.5 27.655c-.04-.025-.046-.056-.02-.094l5.099-7.415Zm11.282-1.614c.009-.436.009-.89 0-1.363-.006-.325.145-.542.373-.742.936-.824 1.891-1.655 2.866-2.492.435-.373.69-.836.694-1.417l.01-1.603.002-.112c.006-.562.011-.964-.515-1.387a2.185 2.185 0 0 0-1.274-.49 18.369 18.369 0 0 0-1.842-.011c-1.224.056-2.39 1.362-2.402 2.537-.007.57-.006 1.121.003 1.656a.035.035 0 0 0 .055.028c.668-.496 1.322-.972 1.96-1.428.215-.154.216-.398.216-.633v-.089c.009-.564.718-.515 1.097-.489h.003c.304.022.46.18.467.478l.002.093c.014.454.032 1.082-.301 1.421a727.68 727.68 0 0 1-3.485 3.52c-.193.192-.288.4-.287.625.006 1.04.005 2.108 0 3.204a.102.102 0 0 0 .102.104l6.336-.001a.118.118 0 0 0 .108-.073.116.116 0 0 0 .009-.045l-.009-1.113c0-.064-.032-.095-.095-.095h-4.013c-.054 0-.08-.028-.08-.083Zm35.757-6.116a1.192 1.192 0 1 1-2.383 0 1.192 1.192 0 0 1 2.383 0Zm-21.817 2.402c-.014.084-.045.09-.093.02-.764-1.127-2.459-.849-3.308-.02-1.378 1.343-1.258 4.518.81 5.15.92.282 1.687.1 2.3-.543a.048.048 0 0 1 .05-.011.047.047 0 0 1 .03.042c.108 2.088-1.797 2.074-3.177 1.38a.055.055 0 0 0-.046 0 .053.053 0 0 0-.03.034l-.317 1.217a.17.17 0 0 0 .1.2c1.404.57 3.993.661 4.837-.905.296-.55.443-1.18.44-1.894a212.31 212.31 0 0 1 .038-5.224.039.039 0 0 0-.04-.039l-1.473-.004a.075.075 0 0 0-.075.073 3.297 3.297 0 0 1-.046.524Zm-1.852 3.73c-.623-.413-.682-1.39-.517-2.051.154-.622.691-1.14 1.351-.96.42.113.668.384.741.814.06.35.069.787.025 1.31-.073.862-.845 1.387-1.6.886Zm8.175 1.121c-.022-.075-.06-.085-.118-.031-.369.348-.781.55-1.236.61-1.209.154-2.255-.486-2.29-1.76-.048-1.823 1.898-2.304 3.316-2.286.095.001.137-.046.126-.141-.063-.542-.566-.696-1.038-.696-.552 0-1.077.135-1.573.404a.079.079 0 0 1-.067.003.075.075 0 0 1-.043-.05l-.28-1c-.022-.083.005-.142.083-.177 1.394-.62 4-.885 4.615 1.039.119.372.173.876.162 1.512v.008c-.017.991-.034 2.024.062 3.004a.03.03 0 0 1-.03.034l-1.497.002a.148.148 0 0 1-.149-.148c0-.12-.014-.23-.043-.327Zm-.217-2.313c-.634-.015-1.652.132-1.611.956.02.407.23.622.626.646.465.028.79-.163.975-.572.093-.207.12-.529.08-.966-.004-.042-.027-.064-.07-.064Zm6.886-3.247c-.786-.066-1.426.208-1.92.821-.06.075-.095.065-.104-.031l-.053-.601a.079.079 0 0 0-.078-.073l-1.419-.003a.035.035 0 0 0-.025.01.033.033 0 0 0-.01.024l.029 5.776a.106.106 0 0 0 .106.106l1.624.006a.052.052 0 0 0 .037-.015.05.05 0 0 0 .015-.037c-.004-1.142-.003-2.292.003-3.449.003-.584.447-1.163 1.088-1.036.513.102.66.693.662 1.14.006 1.1.007 2.195.003 3.281 0 .075.037.113.112.113l1.632.002a.048.048 0 0 0 .033-.014.046.046 0 0 0 .014-.032c-.006-1.12-.004-2.265.005-3.435.005-.478.182-.805.532-.98.322-.162.615-.131.88.094.24.203.339.646.342.945.01 1.118.013 2.23.006 3.337a.083.083 0 0 0 .083.083l1.59.003c.076 0 .115-.037.115-.114l.006-3.308c.002-1.144-.336-2.325-1.563-2.581-.865-.181-1.71.164-2.242.885a.064.064 0 0 1-.109-.007c-.296-.554-.761-.857-1.394-.91Zm11.674.844c.001.009.005.017.01.023a.043.043 0 0 0 .045.013.042.042 0 0 0 .02-.013c.528-.681 1.242-.964 2.143-.85 1.097.139 1.688 1.116 1.721 2.161.033 1 .038 2.255.013 3.763a.096.096 0 0 1-.096.094l-1.645-.003a.094.094 0 0 1-.093-.094c.003-1.135.002-2.236-.003-3.3-.006-1.646-1.92-1.455-1.913.064.004 1.117.005 2.214 0 3.292a.04.04 0 0 1-.04.04h-1.677a.11.11 0 0 1-.11-.11l-.022-5.777a.033.033 0 0 1 .01-.024.033.033 0 0 1 .024-.01l1.446.004c.06 0 .094.03.1.09l.067.637Zm9.44-.651-.034.52c-.005.068-.032.078-.08.03a2.948 2.948 0 0 1-.128-.144 1.547 1.547 0 0 0-.244-.246c-.916-.677-2.275-.365-3.027.424-1.517 1.589-1.022 5.168 1.633 5.206a1.954 1.954 0 0 0 1.486-.611c.112-.115.163-.093.151.067-.048.715-.183 1.408-.984 1.628-.718.196-1.556-.007-2.208-.334-.05-.025-.08-.01-.092.044-.081.39-.182.79-.303 1.201a.16.16 0 0 0 .093.194c1.218.5 2.934.58 4.088-.114.495-.297.832-.762 1.01-1.393.129-.453.192-.834.191-1.142-.01-1.83.002-3.611.034-5.343 0-.046-.022-.07-.069-.07l-1.437.006a.082.082 0 0 0-.081.077Zm-1.91 4.237c-.689-.481-.684-1.627-.41-2.31.432-1.085 1.945-.913 2.024.275a8.58 8.58 0 0 1-.001 1.147c-.06.869-.864 1.413-1.613.888Zm-10.693-4.316h-1.684a.08.08 0 0 0-.08.08v5.758c0 .044.036.08.08.08h1.684a.08.08 0 0 0 .08-.08v-5.758a.08.08 0 0 0-.08-.08Z" clip-rule="evenodd"/></g><defs><clipPath id="a"><path fill="#fff" d="M.474.001h73.053v30H.474z"/></clipPath></defs></svg>