<svg xmlns="http://www.w3.org/2000/svg" width="112" height="22" fill="none"><g fill="#00AB55" clip-path="url(#a)"><path d="M20.014 10.392c-.433.57-1.305.715-2.615.436.257-2.702-.622-4.89-2.636-6.56-2.395-1.984-5.843-2.103-8.461-.473-2.155 1.342-3.293 3.469-3.416 6.38-.726.3-1.573.378-2.542.231a9.862 9.862 0 0 1 4.119-8.562 9.86 9.86 0 0 1 11.742.231 9.843 9.843 0 0 1 2.785 3.39 9.828 9.828 0 0 1 1.024 4.927ZM56.534 8.011l-3.232.101-.01-5.42c0-.113.056-.17.169-.17h2.903a.173.173 0 0 1 .173.173l-.003 5.316ZM86.1 9.948l-3.217-.072-.018-7.184c0-.116.057-.173.17-.173l2.903.003a.173.173 0 0 1 .173.173l-.01 7.253ZM39.175 9.782c-.555.05-.983.101-1.283.152-.497.086-1 .122-1.505.108-.06 0-.212-.098-.458-.292-.894-3.753-3.028-4.56-6.401-2.42-1.012.387-2.218.497-3.617.332a6.779 6.779 0 0 1 1.435-2.294 6.861 6.861 0 0 1 2.224-1.56 6.915 6.915 0 0 1 5.339-.085 6.827 6.827 0 0 1 3.042 2.403 6.723 6.723 0 0 1 1.224 3.656ZM81.405 12.599l-1.014.108a.493.493 0 0 1-.314-.068.596.596 0 0 0-.364-.065 4.482 4.482 0 0 1-1.688-.123c.505-1.508.033-3.094-1.532-3.607-.753-.245-1.448-.09-2.085.462-.907.789-1.101 1.891-.584 3.307-1.063.315-2.22.386-3.47.213l-.018-6.376c0-.229.113-.343.34-.343l2.592.007c.221 0 .33.112.328.336l-.014.772c-.002.211.07.239.216.082 1.041-1.115 2.361-1.518 3.96-1.208 2.95.567 4.151 3.83 3.647 6.503ZM51.2 11.582l-3.203.025c.173-2.205-.738-3.13-2.734-2.777-.375.065-.76.387-1.157.967l-3.358-.022-.043-3.31c-.005-.224.104-.336.328-.336l2.596.003c.231 0 .347.115.347.343l.007.725c0 .211.072.24.216.083 2.006-2.164 6.03-1.49 6.81 1.662a7.6 7.6 0 0 1 .19 2.637ZM98.832 12.357l-3.264-.216c.425-2.43-1.436-4.285-3.813-2.774-.266.214-.589.326-.966.336a.52.52 0 0 1-.325-.101c-.185-.137-.336-.107-.454.09-.065.108-.14.115-.224.022-.192-.214-.423-.3-.692-.256a3.504 3.504 0 0 1-1.115.021c.46-1.584 1.34-2.633 2.64-3.145 1.724-.678 3.327-.369 4.808.927.161.14.234.102.22-.112l-.05-.696a.302.302 0 0 1 .18-.297.293.293 0 0 1 .119-.024h2.669c.197 0 .295.099.295.296l-.028 5.93ZM62.485 10.006l-3.264.306-1.739-4.09a.065.065 0 0 1 .062-.09h3.451a.11.11 0 0 1 .105.072l1.385 3.802ZM67.126 11.412c-1.118.253-2.183.295-3.195.127l1.919-5.306a.16.16 0 0 1 .059-.077A.154.154 0 0 1 66 6.13l3.304.003c.057.003.074.03.05.08l-2.229 5.2ZM104.313 8.6l-3.325.324-1.071-2.41c-.115-.254-.032-.382.249-.382l2.788-.003c.334 0 .555.157.663.472l.696 1.998ZM109.759 10.749c-.324-.284-.63-.38-.916-.289a.497.497 0 0 1-.256.018 1.84 1.84 0 0 0-.786.004.718.718 0 0 1-.39-.022l-.656-.22 1.457-4.032c.017-.05.053-.076.108-.076h3.311a.075.075 0 0 1 .06.033c.006.01.01.02.011.032a.062.062 0 0 1-.006.033l-1.937 4.519Z"/><path d="m13.313 10.886-1.937.112a.685.685 0 0 1-.339-.072c-.154-.078-.285-.109-.393-.094a13.22 13.22 0 0 1-3.625-.054 3.286 3.286 0 0 1 1.525-3.76 3.282 3.282 0 0 1 3.503.146 3.285 3.285 0 0 1 1.266 3.722ZM29.528 7.33c-.97 1.902-.955 3.646.043 5.233-.202.767-.774.897-1.717.39-.09-.051-.152-.037-.183.043a.204.204 0 0 1-.17.133l-1.143.184a6.717 6.717 0 0 1-.448-5.651c1.4.165 2.606.055 3.618-.332ZM56.534 8.011l.003 3.939-3.235-.076V8.112l3.232-.1ZM104.313 8.6l1.317 3.552c.142.377.282.377.422 0l.703-1.912.656.22c.128.043.258.05.39.022a1.84 1.84 0 0 1 .786-.004c.085.017.174.01.256-.018.286-.091.592.005.916.289l-1.525 3.588a1.905 1.905 0 0 1-.927.054c-.281-.06-.524-.021-.729.116a.238.238 0 0 1-.115.043c-.072.007-.123-.022-.152-.087a.132.132 0 0 0-.126-.076l-2.845.116-2.352-5.58 3.325-.324ZM91.755 9.367c-.877 1.183-1.031 2.271-.461 3.264.452.789 1.12 1.216 2.005 1.28 1.041.078 1.797-.513 2.268-1.77l3.265.216.028 4.022c0 .19-.095.284-.285.284l-2.74.004c-.186 0-.271-.091-.257-.274l.062-.71c.028-.37-.08-.418-.329-.141-1.247 1.392-3.397 1.511-4.98.736-2.362-1.158-3.023-4.379-2.352-6.799.33.053.701.046 1.115-.021.27-.044.5.042.692.256.084.093.159.086.224-.022.118-.197.27-.227.454-.09a.52.52 0 0 0 .325.1c.377-.009.7-.12.966-.335Z"/><path d="M35.93 9.75c.245.194.397.292.458.292a7.531 7.531 0 0 0 1.504-.108c.3-.05.728-.101 1.283-.152a6.714 6.714 0 0 1-.682 3.169 6.802 6.802 0 0 1-2.092 2.495 6.92 6.92 0 0 1-6.286.97 6.82 6.82 0 0 1-3.757-3.103l1.143-.184a.204.204 0 0 0 .17-.133c.03-.08.092-.094.183-.044.943.508 1.515.378 1.717-.39 1.164 1.186 2.44 1.55 3.83 1.09.83-.274 1.455-.763 1.876-1.468.413-.685.63-1.497.652-2.434ZM40.748 9.775l3.358.022-.087 6.527a.289.289 0 0 1-.288.285l-2.72.004c-.187 0-.281-.094-.281-.281l.018-6.557ZM86.1 9.948l.011 3.167-3.231-.094.003-3.145 3.217.072ZM62.485 10.006l.836 2.21c.133.35.259.347.379-.007l.23-.67c1.013.168 2.078.126 3.196-.127l-4.31 10.135c-.014.031-.037.047-.068.047a23.06 23.06 0 0 1-3.395-.027.014.014 0 0 1-.006-.005.014.014 0 0 1-.002-.008c0-.002 0-.005.002-.007a645.348 645.348 0 0 0 2.29-5.09.542.542 0 0 0 .004-.436l-2.42-5.709 3.264-.306ZM2.886 10.175c.26 2.253 1.164 4.005 2.712 5.255C10.024 19 16.335 16.537 17.4 10.828c1.31.279 2.182.133 2.615-.436a9.877 9.877 0 0 1-1.378 4.526A9.853 9.853 0 0 1 3.72 17.302a9.854 9.854 0 0 1-3.375-6.896c.969.147 1.816.07 2.542-.23Z"/><path d="M7.02 10.778a13.22 13.22 0 0 0 3.624.054c.108-.015.24.016.393.093a.685.685 0 0 0 .34.073l1.936-.112A3.293 3.293 0 0 1 8.6 12.757a3.292 3.292 0 0 1-1.58-1.98ZM51.2 11.582v4.775c0 .183-.092.274-.274.274l-2.651-.014c-.173-.003-.26-.09-.26-.264l-.018-4.746 3.203-.025ZM56.537 11.95l.008 4.346c0 .194-.098.293-.293.295H53.58a.287.287 0 0 1-.201-.082.28.28 0 0 1-.084-.199l.007-4.436 3.235.076ZM78.025 12.451a4.482 4.482 0 0 0 1.688.123.596.596 0 0 1 .364.065c.097.057.201.08.314.068l1.014-.108c-.426 2.21-1.84 3.873-4.162 4.111-1.412.147-2.553-.282-3.423-1.287-.156-.18-.234-.152-.234.086v5.944c0 .12-.06.18-.177.18H70.52c-.118 0-.177-.06-.177-.18l.011-8.627c1.25.173 2.407.102 3.47-.213.418.851 1.089 1.29 2.012 1.317 1.048.031 1.778-.462 2.19-1.479ZM86.111 13.115l.029 3.228a.238.238 0 0 1-.238.238l-2.745.014c-.197 0-.294-.099-.292-.296l.015-3.278 3.231.094ZM108.234 14.337l-3.073 7.199a.127.127 0 0 1-.126.083l-3.271.01a.071.071 0 0 1-.058-.03.068.068 0 0 1-.01-.032.057.057 0 0 1 .006-.031l2.272-4.995a.445.445 0 0 0 .011-.364l-.645-1.674 2.845-.115a.132.132 0 0 1 .126.075c.029.065.08.094.152.087a.238.238 0 0 0 .115-.043c.205-.137.448-.176.729-.116.281.06.59.043.927-.054Z"/></g><defs><clipPath id="a"><path fill="#fff" d="M.279.001h111.443v22H.279z"/></clipPath></defs></svg>