<svg xmlns="http://www.w3.org/2000/svg" width="146" height="22" fill="none"><g clip-path="url(#a)"><path fill="#919EAB" fill-rule="evenodd" d="M19.517 2.514C18.52 1.51 17.401.826 16.166.464c-1.401-.538-4.352-.88-5.193.72-.47.893.03 1.7.508 2.472.062.099.123.197.181.295l.281-.152 3.026-.974c-2.757 4.948-2.972 9.994-.644 15.138l.611 1.061c-.015.084-.085.111-.21.081a23.748 23.748 0 0 1-2.983-.938c.013-.033-.016-.07-.087-.11l-.168.274c-.47.763-.966 1.567-.544 2.456.76 1.615 3.73 1.295 5.098.784 1.325-.387 2.524-1.117 3.598-2.191.123-.065.156-.1.097-.104l-.534-1.002c-2.044-5.114-1.95-10.171.285-15.17.041-.093.136-.212.285-.357l-.256-.233Zm7.736 4.854c-1.137-1.911-2.83-3.249-5.08-4.012-.312.455-.607 1.057-.883 1.805-1.59 4.312-1.452 8.534.411 12.666l.456.829c2.39-.796 4.146-2.245 5.267-4.345l.408-.796c.05-.1.123-.176.22-.23l.974-.547a.245.245 0 0 0 .133-.265c-.099-.742-.397-1.477-.687-2.19-.12-.297-.24-.591-.342-.88-.337-.943-.629-1.621-.877-2.035Zm-1.096.879a2.262 2.262 0 1 1-3.198 3.198 2.262 2.262 0 0 1 3.198-3.198ZM11.06 5.666c.255-.733.415-1.28.482-1.64-1.684.856-3.058 1.914-4.121 3.173-.233.277-.717.944-1.45 2.003a9.045 9.045 0 0 0-2.138-1.958c-.576-.381-1.118-.46-1.624-.235-1.654.73-1.285 5.079-1 6.46.272 1.314 1.31 2.24 2.617 1.275A6.834 6.834 0 0 0 5.771 13a.224.224 0 0 1 .292-.056.223.223 0 0 1 .076.075c1.31 2.157 3.112 3.818 5.407 4.983-.074-.639-.226-1.072-.457-1.3-.38-1.733-.603-2.905-.67-3.517-.31-2.89-.096-5.397.641-7.52Zm14.544 4.54a.99.99 0 1 0-1.4-1.4.99.99 0 0 0 1.4 1.4Zm.09-.83a.316.316 0 0 1-.094.168.35.35 0 0 1-.12.074.42.42 0 0 1-.504-.206.325.325 0 0 1-.011-.272c.073-.178.292-.258.488-.178.178.073.277.25.242.415ZM73.6 17.819c-.463.766-1.03 1.3-1.955 1.417-3.478.443-4.869-1.805-4.927-4.801a170.753 170.753 0 0 1 0-6.646c.036-1.973.699-4.118 2.77-4.655 1.442-.371 2.816-.32 4.121.155 1.909.699 2.252 3.035 2.177 4.898-.004.123-.069.185-.194.185H73.15a.21.21 0 0 1-.154-.067.204.204 0 0 1-.053-.157c.136-1.595.048-3.633-2.271-3.005-.725.194-.971 1.213-.978 1.834-.025 2.944-.021 5.673.013 8.186.007.353.081.719.224 1.096.398 1.049 2.193 1.21 2.788.282.571-.89.528-2.21.492-3.319l-.006-.179c-.002-.12-.065-.18-.188-.18h-1.472c-.052 0-.078-.028-.078-.082l-.003-1.718c-.002-.069.032-.103.1-.103l4.187.003a.12.12 0 0 1 .12.12l-.004 7.745c0 .175-.086.262-.258.262h-1.375c-.203 0-.318-.101-.343-.304l-.114-.932c-.021-.183-.08-.195-.177-.035Zm26.344-.046c-.433.973-1.26 1.484-2.478 1.534-3.229.13-4.364-2.252-4.393-5.064a312.663 312.663 0 0 1-.004-6.195c.023-2.349.728-4.656 3.407-5.06 1.133-.17 2.193-.11 3.18.184 1.795.533 2.623 2.238 2.485 5.115-.002.059-.033.088-.094.088l-2.669-.007a.084.084 0 0 1-.084-.094c.153-1.6-.04-2.587-.579-2.96-.64-.443-2.016-.404-2.4.482-.167.384-.25.787-.253 1.21-.026 2.776-.02 5.545.016 8.308.017 1.03.573 1.822 1.676 1.825 2.017 0 1.893-2.518 1.82-4.002l-.005-.097c-.004-.119-.066-.178-.184-.178h-1.472c-.054 0-.081-.027-.081-.08v-1.719c0-.069.033-.102.1-.1h4.187a.122.122 0 0 1 .119.12l-.003 7.726c0 .187-.094.28-.281.28h-1.375a.292.292 0 0 1-.191-.07.304.304 0 0 1-.101-.178l-.168-1.042c-.032-.207-.09-.216-.174-.026ZM139.35 6.1c.091-.47.333-.768.725-.893 1.413-.446 2.136.363 2.171 2.427 0 .056.028.078.084.068l2.342-.46c.057-.01.082-.044.078-.1-.222-3.011-1.709-4.42-4.461-4.229-1.744.12-3.226.994-3.611 2.792-.433 2.034.149 3.715 1.747 5.041a49.54 49.54 0 0 1 2.88 2.562c.823.807 1.095 1.822.815 3.045a.603.603 0 0 1-.207.327c-.974.783-2.116.262-2.521-.851-.198-.55-.281-1.038-.249-1.463.028-.34-.126-.476-.462-.407l-1.87.381c-.235.048-.332.19-.291.424.024.142.047.284.069.427.103.646.205 1.294.497 1.877.813 1.637 2.264 2.37 4.354 2.2 3.385-.278 4.329-3.543 3.064-6.303-.58-1.258-2.144-2.561-3.431-3.634a51.64 51.64 0 0 1-.781-.659c-.822-.71-1.136-1.567-.942-2.572ZM39.146 12.072l.003 6.907c0 .073-.038.11-.113.11l-2.757-.003c-.054 0-.08-.026-.08-.078V3.256c0-.11.055-.167.165-.169 2.03-.04 3.71-.03 5.04.033 1.508.073 2.571.789 3.19 2.148.595 1.307.608 4.167-.56 5.416-1.216 1.3-3.034 1.342-4.713 1.226a.162.162 0 0 0-.175.162Zm.016-6.794-.032 4.47a.152.152 0 0 0 .152.153l1.242.01a1.636 1.636 0 0 0 1.183-.491 1.704 1.704 0 0 0 .496-1.202l.007-1.371a1.72 1.72 0 0 0-.48-1.205 1.649 1.649 0 0 0-1.174-.507l-1.242-.01a.152.152 0 0 0-.152.153Zm8.55 13.714.625-3.536a.11.11 0 0 1 .11-.09l2.611.006a.11.11 0 0 1 .107.09l.621 3.53a.11.11 0 0 0 .107.09l2.507.014a.109.109 0 0 0 .087-.04.11.11 0 0 0 .023-.093L51.281 3.165a.11.11 0 0 0-.11-.087l-2.879-.004a.11.11 0 0 0-.11.088l-3.235 15.794a.11.11 0 0 0 .11.133l2.55-.006a.11.11 0 0 0 .106-.091Zm2.984-5.526H48.8a.118.118 0 0 1-.09-.04.117.117 0 0 1-.026-.096l.98-5.979c.047-.293.096-.294.145-.003l1.003 5.979c.015.093-.023.14-.116.14Zm11.427-1.592.003-8.686c0-.03.012-.06.032-.08a.108.108 0 0 1 .078-.034h2.21c.065 0 .097.034.097.1l.003 15.734c0 .12-.06.181-.181.181h-1.572a.262.262 0 0 1-.26-.171L58.74 9.832a.07.07 0 0 0-.12-.015.071.071 0 0 0-.016.044v9.146c0 .02-.009.04-.024.055a.082.082 0 0 1-.057.023l-2.268.003c-.078 0-.116-.038-.116-.113V3.294c0-.146.074-.22.223-.22h1.533c.169 0 .286.078.353.233l3.75 8.593c.084.192.126.184.126-.026Zm17.92 7.095.621-3.487a.136.136 0 0 1 .133-.114h2.562a.136.136 0 0 1 .133.114l.621 3.49a.135.135 0 0 0 .133.114l2.452.003a.136.136 0 0 0 .136-.162L83.612 3.181a.135.135 0 0 0-.133-.11l-2.837.007a.136.136 0 0 0-.133.106l-3.232 15.743a.137.137 0 0 0 .076.153c.019.009.04.013.06.012l2.498-.01a.136.136 0 0 0 .132-.113Zm2.996-5.503-1.925.003c-.08 0-.113-.04-.1-.12l.974-5.988c.05-.3.099-.3.148 0l1.003 5.989c.013.077-.02.116-.1.116Zm24 1.99-.644 3.549a.106.106 0 0 1-.037.06.103.103 0 0 1-.067.024l-2.552-.003a.1.1 0 0 1-.044-.01.095.095 0 0 1-.035-.028.09.09 0 0 1-.02-.04.097.097 0 0 1-.002-.045l3.242-15.805a.102.102 0 0 1 .1-.084h2.893c.023 0 .046.01.065.025.018.015.03.036.035.06l3.232 15.807a.113.113 0 0 1-.001.045.117.117 0 0 1-.02.04.106.106 0 0 1-.079.038h-2.521a.105.105 0 0 1-.067-.023.1.1 0 0 1-.036-.061l-.625-3.552a.1.1 0 0 0-.036-.061.104.104 0 0 0-.067-.024l-2.611.004a.104.104 0 0 0-.103.084Zm1.313-8.095-.958 5.963c-.015.095.025.142.12.142l1.88.013a.113.113 0 0 0 .113-.133l-1-5.985c-.054-.315-.105-.315-.155 0Zm8.684 11.64.174-10.278c.007-.444.056-.448.149-.013l2.161 10.133c.035.164.137.246.308.246h1.216c.168 0 .27-.082.304-.246l2.216-10.479a.035.035 0 0 1 .014-.015.033.033 0 0 1 .02-.004c.006 0 .013.003.018.008.005.005.009.01.01.018l.191 10.65c.002.045.026.068.071.068l2.08-.003c.046 0 .068-.023.068-.068l-.268-15.756c-.003-.123-.065-.184-.188-.184l-2.514-.007a.312.312 0 0 0-.301.246l-2.261 10.596c-.063.295-.125.295-.188 0l-2.21-10.667c-.023-.114-.093-.172-.21-.172h-2.598c-.162 0-.244.082-.246.246l-.262 15.675c0 .063.032.094.094.094h2.061c.06 0 .091-.029.091-.087Zm14.319-7.088-.006 5.05a.103.103 0 0 0 .103.104h3.685c.028 0 .054.01.073.03.02.02.031.046.031.073l-.004 1.815a.103.103 0 0 1-.103.104h-6.581a.103.103 0 0 1-.103-.104V3.178a.103.103 0 0 1 .103-.104h6.539a.103.103 0 0 1 .103.104l.007 1.857a.102.102 0 0 1-.031.073.101.101 0 0 1-.073.03l-3.639-.003a.105.105 0 0 0-.074.03.105.105 0 0 0-.03.074l-.003 4.403a.103.103 0 0 0 .103.104l2.828.006a.103.103 0 0 1 .103.103l.004 1.848a.102.102 0 0 1-.031.073.101.101 0 0 1-.073.03l-2.827.004a.106.106 0 0 0-.074.03.105.105 0 0 0-.03.073Z" clip-rule="evenodd"/></g><defs><clipPath id="a"><path fill="#fff" d="M.853.001h144.294v22H.853z"/></clipPath></defs></svg>