<svg xmlns="http://www.w3.org/2000/svg" width="54" height="32" fill="none"><path fill="#919EAB" d="M36.058 2.408h-1.87a.095.095 0 0 0-.095.095v1.862c0 .052.042.095.095.095h1.87a.095.095 0 0 0 .095-.095V2.503a.095.095 0 0 0-.095-.095ZM22.373 2.41l-1.953.003a.057.057 0 0 0-.058.057l.004 1.918c0 .031.026.057.057.057l1.954-.004a.057.057 0 0 0 .057-.057l-.003-1.917a.057.057 0 0 0-.058-.057ZM1.744 4.75l1.878.007c.054 0 .098.044.098.098l-.007 1.878a.098.098 0 0 1-.098.098l-1.878-.007a.098.098 0 0 1-.097-.098l.006-1.878c0-.054.044-.098.098-.098ZM31.365 7.102l-1.883-.007a.078.078 0 0 0-.079.078l-.007 1.923c0 .043.035.078.078.078l1.884.007a.078.078 0 0 0 .079-.078l.006-1.923a.078.078 0 0 0-.078-.078ZM50.585 11.783l1.884.004c.042 0 .075.033.075.075l-.003 1.898a.076.076 0 0 1-.076.075l-1.883-.003a.075.075 0 0 1-.076-.076l.004-1.897c0-.042.034-.076.075-.076ZM17.629 18.798l-1.842.004a.103.103 0 0 0-.103.103l.003 1.867c0 .057.047.103.104.103l1.841-.003a.103.103 0 0 0 .104-.104l-.004-1.866a.103.103 0 0 0-.103-.104ZM50.619 18.804h1.816c.06 0 .11.049.11.109v1.85c0 .06-.05.109-.11.109H50.62a.109.109 0 0 1-.11-.11v-1.85c0-.06.05-.108.11-.108ZM33.69 21.15l-1.906.006a.08.08 0 0 0-.08.08l.007 1.9c0 .044.036.08.08.08l1.906-.007a.08.08 0 0 0 .08-.08l-.007-1.9a.08.08 0 0 0-.08-.08ZM4.046 23.51H5.92c.053 0 .096.044.096.097v1.856a.096.096 0 0 1-.096.096H4.046a.096.096 0 0 1-.097-.096v-1.856c0-.053.043-.096.097-.096ZM6.379 2.412l1.945-.004c.028 0 .052.023.052.052l.003 1.937a.052.052 0 0 1-.052.051l-1.945.004a.052.052 0 0 1-.051-.052l-.004-1.937c0-.028.023-.051.052-.051ZM4.008 2.408l1.942.004c.035 0 .063.028.063.063L6.01 4.392a.063.063 0 0 1-.063.063L4.005 4.45a.063.063 0 0 1-.063-.063l.003-1.917c0-.035.028-.063.063-.063ZM8.735 2.41l1.946.003c.024 0 .043.02.043.043l-.004 1.946c0 .023-.02.043-.043.043L8.732 4.44a.043.043 0 0 1-.043-.043l.003-1.945c0-.024.02-.043.043-.043ZM11.085 2.41l1.92.003c.04 0 .072.033.072.073l-.003 1.892c0 .04-.033.072-.073.072l-1.92-.003a.073.073 0 0 1-.073-.073l.004-1.892c0-.04.032-.072.072-.072ZM13.419 2.413l1.903-.003a.08.08 0 0 1 .08.08l.003 1.883a.08.08 0 0 1-.08.08l-1.903.003a.08.08 0 0 1-.08-.08l-.003-1.883a.08.08 0 0 1 .08-.08ZM15.744 2.41h1.929c.03 0 .056.025.056.056v1.931c0 .03-.026.056-.056.056h-1.929a.056.056 0 0 1-.056-.056V2.466c0-.031.025-.056.056-.056ZM18.09 2.411h1.937c.03 0 .055.025.055.055V4.39c0 .03-.025.055-.055.055H18.09a.054.054 0 0 1-.054-.055V2.466c0-.03.024-.055.054-.055ZM36.493 2.411h1.928c.042 0 .077.035.077.077v1.89a.077.077 0 0 1-.077.076h-1.928a.077.077 0 0 1-.077-.077V2.488c0-.042.034-.077.077-.077ZM38.848 2.412l1.884-.004a.08.08 0 0 1 .08.08l.003 1.886a.08.08 0 0 1-.08.08l-1.883.003a.08.08 0 0 1-.08-.08l-.003-1.886a.08.08 0 0 1 .08-.08ZM41.194 2.408l1.886.004c.04 0 .073.032.073.072l-.004 1.9c0 .04-.032.073-.072.073l-1.887-.003a.073.073 0 0 1-.072-.073l.003-1.9c0-.04.033-.073.073-.073ZM43.507 2.413l1.96-.003c.03 0 .054.024.054.054l.003 1.931c0 .03-.024.055-.054.055l-1.96.003a.055.055 0 0 1-.054-.054l-.003-1.931c0-.03.024-.055.054-.055ZM4.046 4.755l1.929-.003c.038 0 .068.03.068.068l.004 1.925c0 .038-.03.069-.069.07l-1.928.002a.068.068 0 0 1-.069-.068l-.003-1.925c0-.038.03-.069.068-.07ZM6.399 4.757h1.908a.07.07 0 0 1 .07.07V6.75a.07.07 0 0 1-.07.07H6.4a.07.07 0 0 1-.07-.07V4.827a.07.07 0 0 1 .07-.07ZM8.735 4.767h1.942c.025 0 .045.02.045.045v1.96c0 .024-.02.044-.045.044H8.735a.045.045 0 0 1-.045-.045V4.812c0-.025.02-.045.045-.045ZM11.092 4.76l1.9-.003c.045 0 .082.036.082.081l.003 1.895a.081.081 0 0 1-.08.081l-1.901.003a.081.081 0 0 1-.082-.08l-.003-1.895c0-.045.036-.081.081-.082ZM13.404 4.752l1.943.003c.032 0 .058.026.058.059l-.003 1.948a.059.059 0 0 1-.06.058L13.4 6.817a.059.059 0 0 1-.058-.059l.003-1.948c0-.032.027-.058.06-.058ZM15.758 4.753h1.898c.04 0 .071.032.071.072V6.75c0 .04-.032.071-.071.071h-1.898a.071.071 0 0 1-.071-.07V4.824c0-.04.032-.072.071-.072ZM18.092 4.766l1.937.003c.03 0 .055.025.055.055l-.004 1.94c0 .03-.024.054-.054.054l-1.937-.004a.054.054 0 0 1-.055-.054l.004-1.94c0-.03.024-.054.054-.054ZM20.433 4.767h1.928a.07.07 0 0 1 .07.07v1.909a.07.07 0 0 1-.07.07h-1.928a.07.07 0 0 1-.07-.07V4.837a.07.07 0 0 1 .07-.07ZM31.788 4.755h1.897c.043 0 .077.034.077.076v1.91a.077.077 0 0 1-.077.076h-1.897a.077.077 0 0 1-.077-.077V4.831c0-.042.034-.076.077-.076ZM34.167 4.754l1.909-.004c.042 0 .077.034.077.077l.003 1.909a.077.077 0 0 1-.077.077l-1.908.003a.077.077 0 0 1-.077-.077l-.004-1.908c0-.043.034-.077.077-.077ZM36.489 4.753l1.945.003c.035 0 .063.029.063.063l-.004 1.94a.063.063 0 0 1-.063.063l-1.945-.004a.063.063 0 0 1-.063-.063l.004-1.94c0-.034.028-.062.063-.062ZM38.832 4.752l1.926.003c.032 0 .058.026.058.059l-.003 1.948a.059.059 0 0 1-.059.058l-1.925-.003a.059.059 0 0 1-.059-.059l.003-1.948c0-.032.027-.058.06-.058ZM41.182 4.753h1.904c.035 0 .064.029.064.065v1.94a.064.064 0 0 1-.064.063h-1.904a.064.064 0 0 1-.064-.064v-1.94c0-.035.029-.064.064-.064ZM43.528 4.756h1.915c.041 0 .075.034.075.076v1.911a.075.075 0 0 1-.075.076h-1.915a.075.075 0 0 1-.075-.076V4.832c0-.042.034-.076.075-.076ZM45.866 4.753h1.909c.045 0 .081.037.081.081v1.9a.081.081 0 0 1-.081.082h-1.909a.081.081 0 0 1-.08-.081v-1.9c0-.045.035-.082.08-.082ZM48.21 4.754l1.889-.004c.042 0 .077.035.077.077l.003 1.909a.077.077 0 0 1-.077.077l-1.89.003a.077.077 0 0 1-.076-.077l-.003-1.908c0-.043.034-.077.076-.077ZM1.758 7.105h1.847c.062 0 .112.05.112.112V9.06c0 .062-.05.112-.112.112H1.758a.112.112 0 0 1-.112-.112V7.217c0-.062.05-.112.112-.112ZM4.038 7.102h1.884c.051 0 .092.042.092.093V9.08c0 .051-.041.092-.092.092H4.038a.092.092 0 0 1-.092-.092V7.195c0-.051.041-.093.092-.093ZM18.103 7.11h1.906c.04 0 .073.033.073.073v1.912c0 .04-.033.073-.073.073h-1.906a.073.073 0 0 1-.073-.073V7.183c0-.04.033-.072.073-.072ZM20.454 7.106l1.892.003c.049 0 .088.04.088.089l-.004 1.889c0 .049-.04.088-.088.088L20.45 9.17a.088.088 0 0 1-.088-.088l.004-1.889c0-.049.04-.088.088-.088ZM22.848 7.102l1.886.003c.053 0 .096.044.096.097l-.003 1.872a.096.096 0 0 1-.097.097l-1.886-.004a.096.096 0 0 1-.096-.096l.003-1.873c0-.053.043-.096.097-.096ZM33.69 7.1l-1.916.015a.076.076 0 0 0-.076.075v1.9a.075.075 0 0 0 .076.076l1.917.013a.075.075 0 0 0 .075-.076l-.001-1.928a.075.075 0 0 0-.075-.076ZM34.175 7.102l1.903.003a.08.08 0 0 1 .08.08l-.004 1.906a.08.08 0 0 1-.08.08l-1.903-.004a.08.08 0 0 1-.08-.08l.004-1.905a.08.08 0 0 1 .08-.08ZM45.868 7.105h1.906c.045 0 .082.037.082.082v1.898a.083.083 0 0 1-.082.083h-1.906a.082.082 0 0 1-.083-.083V7.187c0-.045.037-.082.083-.082ZM48.208 7.105l1.89-.003c.04 0 .075.034.075.075l.003 1.912a.076.076 0 0 1-.075.076l-1.89.003a.075.075 0 0 1-.075-.075l-.003-1.912c0-.042.033-.076.075-.076ZM1.748 9.433h1.867a.1.1 0 0 1 .1.1v1.86a.1.1 0 0 1-.1.1H1.748a.1.1 0 0 1-.1-.1v-1.86a.1.1 0 0 1 .1-.1ZM4.035 9.433 5.92 9.43c.05 0 .092.041.092.092l.004 1.878a.092.092 0 0 1-.092.093l-1.884.003a.092.092 0 0 1-.093-.092l-.003-1.878c0-.051.041-.093.092-.093ZM20.45 9.432h1.891c.05 0 .09.04.09.09v1.883c0 .05-.04.09-.09.09H20.45a.09.09 0 0 1-.09-.09V9.52c0-.05.041-.09.09-.09ZM22.831 9.435l1.912-.004c.046 0 .084.038.084.084l.003 1.892a.084.084 0 0 1-.083.084l-1.912.004a.084.084 0 0 1-.084-.084l-.003-1.892c0-.047.037-.084.083-.084ZM29.452 9.433l1.929-.003c.03 0 .056.025.056.056l.003 1.953c0 .031-.025.056-.056.056l-1.928.004a.056.056 0 0 1-.056-.056l-.003-1.954c0-.03.024-.056.055-.056ZM31.782 9.436l1.9-.003c.046 0 .084.037.084.083l.003 1.895a.084.084 0 0 1-.083.084l-1.9.004a.084.084 0 0 1-.085-.084l-.003-1.895c0-.046.037-.084.084-.084ZM1.738 11.777l1.886-.004c.05 0 .091.04.091.091l.004 1.878c0 .05-.04.091-.09.091l-1.887.003a.09.09 0 0 1-.091-.09l-.004-1.878c0-.05.04-.091.091-.091ZM4.049 11.778l1.853-.006c.06 0 .11.049.11.11l.007 1.839a.11.11 0 0 1-.11.11l-1.853.007a.11.11 0 0 1-.11-.11l-.007-1.839a.11.11 0 0 1 .11-.11ZM20.437 11.773l1.926.004c.041 0 .075.034.075.075l-.003 1.91a.075.075 0 0 1-.076.074l-1.925-.003a.076.076 0 0 1-.076-.075l.004-1.91c0-.04.034-.075.075-.075ZM22.862 11.777l1.85-.003c.066 0 .12.053.12.118l.002 1.822a.119.119 0 0 1-.118.12l-1.85.002a.119.119 0 0 1-.12-.118l-.002-1.822c0-.066.053-.12.118-.12ZM29.45 11.78l1.93-.004c.03 0 .056.026.057.058l.003 1.93a.057.057 0 0 1-.057.058l-1.929.003a.057.057 0 0 1-.057-.057l-.003-1.931c0-.032.025-.057.057-.057ZM31.788 11.777h1.894c.05 0 .088.039.088.088v1.875c0 .048-.039.088-.088.088h-1.894a.088.088 0 0 1-.088-.088v-1.876c0-.048.039-.088.088-.088ZM41.14 11.78h1.934c.036 0 .065.03.065.065v1.914a.064.064 0 0 1-.065.065H41.14a.064.064 0 0 1-.064-.065v-1.914c0-.036.029-.064.064-.064ZM43.526 11.778l1.867.003c.05 0 .09.04.09.091l-.003 1.872c0 .05-.04.091-.09.091l-1.867-.003a.09.09 0 0 1-.091-.091l.003-1.873c0-.05.04-.09.091-.09ZM45.868 11.78h1.914c.041 0 .074.034.074.075v1.906c0 .04-.033.074-.074.074h-1.914a.074.074 0 0 1-.074-.074v-1.906c0-.041.033-.074.074-.074ZM48.215 11.78h1.87a.08.08 0 0 1 .08.08v1.895a.08.08 0 0 1-.08.08h-1.87a.08.08 0 0 1-.08-.08V11.86a.08.08 0 0 1 .08-.08ZM1.747 14.134l1.873.003a.1.1 0 0 1 .099.1l-.003 1.85a.1.1 0 0 1-.1.098l-1.872-.003a.1.1 0 0 1-.1-.1l.004-1.85a.1.1 0 0 1 .1-.098ZM4.04 14.134l1.876-.003c.053 0 .097.043.097.096l.003 1.859a.096.096 0 0 1-.096.096l-1.876.003a.096.096 0 0 1-.096-.096l-.003-1.858c0-.054.043-.097.096-.097ZM18.104 14.136l1.908.004c.04 0 .072.032.072.071l-.004 1.9c0 .04-.032.072-.071.072l-1.909-.004a.071.071 0 0 1-.071-.071l.003-1.9c0-.04.032-.072.072-.072ZM20.433 14.14h1.93a.07.07 0 0 1 .07.07v1.9a.07.07 0 0 1-.07.07h-1.93a.07.07 0 0 1-.07-.07v-1.9a.07.07 0 0 1 .07-.07ZM22.827 14.137l1.92-.003a.08.08 0 0 1 .08.08l.003 1.883a.08.08 0 0 1-.08.08l-1.92.003a.08.08 0 0 1-.079-.08l-.003-1.883a.08.08 0 0 1 .08-.08ZM29.44 14.146h1.956c.025 0 .045.02.045.045v1.943c0 .024-.02.044-.045.044H29.44a.045.045 0 0 1-.045-.044V14.19c0-.024.02-.045.045-.045ZM43.5 14.143l1.914-.004c.036 0 .065.029.065.064l.003 1.912a.064.064 0 0 1-.064.064l-1.914.004a.064.064 0 0 1-.065-.064l-.003-1.912c0-.036.029-.064.064-.064ZM45.88 14.134l1.894.003c.047 0 .085.038.085.085l-.003 1.873a.085.085 0 0 1-.086.085l-1.894-.003a.085.085 0 0 1-.085-.086l.003-1.872c0-.047.038-.085.085-.085ZM48.214 14.132l1.876.004c.042 0 .076.034.076.077l-.003 1.897a.077.077 0 0 1-.077.077l-1.875-.003a.077.077 0 0 1-.077-.077l.003-1.898c0-.043.035-.077.077-.077ZM50.581 14.13l1.89.004c.039 0 .07.032.07.072l-.002 1.905c0 .04-.032.072-.072.072l-1.89-.004a.071.071 0 0 1-.07-.071l.003-1.906c0-.04.032-.071.071-.071ZM31.774 14.145h1.922c.04 0 .073.033.073.073v1.889c0 .04-.032.073-.073.073h-1.922a.073.073 0 0 1-.073-.073v-1.89c0-.04.032-.072.073-.072ZM41.13 14.148l1.948-.003c.032 0 .057.025.057.057l.004 1.917a.057.057 0 0 1-.057.058l-1.948.003a.057.057 0 0 1-.058-.057l-.003-1.917c0-.032.025-.058.057-.058ZM1.73 16.483h1.903c.046 0 .083.037.083.082v1.881a.082.082 0 0 1-.083.083H1.73a.082.082 0 0 1-.082-.083v-1.88c0-.046.037-.083.082-.083ZM3.986 16.481l1.987.004c.02 0 .038.017.038.038l-.004 1.97c0 .02-.017.038-.038.037l-1.987-.003a.038.038 0 0 1-.037-.038l.003-1.97c0-.021.017-.038.038-.038ZM6.428 16.473l1.853.003c.053 0 .095.043.095.095l-.003 1.867a.095.095 0 0 1-.095.095l-1.853-.003a.095.095 0 0 1-.095-.095l.003-1.867c0-.053.043-.095.095-.095ZM8.779 16.47l1.858.003c.048 0 .087.04.087.087l-.004 1.887a.087.087 0 0 1-.086.086l-1.859-.003a.087.087 0 0 1-.086-.087l.003-1.886c0-.048.039-.087.087-.087ZM11.086 16.473l1.911.003c.046 0 .083.037.083.083l-.004 1.892a.082.082 0 0 1-.082.082l-1.912-.003a.082.082 0 0 1-.082-.083l.003-1.892c0-.045.037-.082.083-.082ZM13.44 16.473h1.87c.051 0 .093.042.093.094v1.87a.094.094 0 0 1-.093.093h-1.87a.094.094 0 0 1-.094-.094v-1.87c0-.051.042-.093.094-.093ZM15.779 16.47l1.864.006c.048 0 .086.04.086.087l-.006 1.898c0 .048-.04.086-.087.086l-1.864-.006a.087.087 0 0 1-.087-.087l.007-1.898c0-.048.039-.086.087-.086ZM18.11 16.482h1.895c.042 0 .077.034.077.076v1.904a.077.077 0 0 1-.077.076H18.11a.077.077 0 0 1-.077-.076v-1.904c0-.042.035-.076.077-.076ZM20.45 16.484l1.895.003c.047 0 .085.039.085.086l-.004 1.878a.085.085 0 0 1-.085.085l-1.895-.003a.085.085 0 0 1-.085-.086l.003-1.878c0-.047.039-.085.086-.085ZM29.456 16.478l1.925.004c.033 0 .059.026.059.059l-.004 1.933a.059.059 0 0 1-.058.06l-1.926-.004a.059.059 0 0 1-.058-.06l.003-1.933c0-.032.026-.059.059-.059ZM31.772 16.48l1.93.006c.038 0 .068.03.068.067l-.007 1.915c0 .037-.03.067-.067.067l-1.931-.007a.067.067 0 0 1-.067-.067l.006-1.915c0-.037.03-.067.068-.066ZM48.197 16.481l1.906.004c.034 0 .062.027.062.061l-.004 1.923a.061.061 0 0 1-.061.061l-1.906-.003a.061.061 0 0 1-.062-.062l.004-1.922c0-.034.027-.062.061-.062ZM50.581 16.482h1.886c.04 0 .072.032.072.07v1.918c0 .04-.032.071-.072.071h-1.886a.071.071 0 0 1-.071-.071v-1.917c0-.04.032-.071.071-.071ZM1.745 18.8h1.876c.054 0 .098.044.098.098v1.878a.098.098 0 0 1-.098.098H1.745a.098.098 0 0 1-.097-.098v-1.878c0-.054.043-.098.097-.098ZM4.027 18.8l1.895-.003c.047 0 .085.038.085.085l.003 1.906a.085.085 0 0 1-.085.085l-1.894.004a.085.085 0 0 1-.086-.085l-.003-1.907c0-.047.038-.085.085-.085ZM6.42 18.801l1.863-.003c.05 0 .091.04.091.09l.004 1.893c0 .05-.04.09-.091.09l-1.864.004a.09.09 0 0 1-.091-.09l-.003-1.893c0-.05.04-.09.09-.09ZM8.774 18.8l1.858-.003c.048 0 .087.038.087.086l.003 1.903a.087.087 0 0 1-.086.087l-1.859.003a.087.087 0 0 1-.086-.086l-.004-1.903c0-.048.039-.087.087-.087ZM11.08 18.803l1.915-.004c.047 0 .084.038.084.084l.004 1.903a.084.084 0 0 1-.084.084l-1.915.004a.084.084 0 0 1-.083-.084l-.004-1.903c0-.047.038-.084.084-.084ZM13.447 18.8h1.859c.054 0 .097.044.097.098v1.878a.098.098 0 0 1-.098.098h-1.858a.098.098 0 0 1-.098-.098v-1.878c0-.054.044-.098.098-.098ZM29.45 18.803l1.93-.004c.03 0 .056.026.057.058l.003 1.959a.057.057 0 0 1-.057.057l-1.929.003a.057.057 0 0 1-.057-.057l-.003-1.959c0-.031.025-.057.057-.057ZM31.794 18.797l1.88.003c.051 0 .093.041.093.092l-.004 1.892c0 .051-.041.093-.092.093l-1.881-.004a.092.092 0 0 1-.092-.092l.003-1.892c0-.051.042-.092.093-.092ZM34.185 18.794l1.883.003c.05 0 .09.04.09.09l-.004 1.895c0 .05-.04.089-.09.089l-1.883-.003a.09.09 0 0 1-.09-.09l.004-1.895c0-.05.04-.09.09-.09ZM45.864 18.798h1.917c.041 0 .075.034.075.076v1.92a.075.075 0 0 1-.075.075h-1.917a.075.075 0 0 1-.076-.075v-1.92c0-.042.034-.076.076-.076ZM48.22 18.8h1.86c.05 0 .089.04.089.088v1.897c0 .05-.04.088-.088.088h-1.862a.088.088 0 0 1-.088-.088v-1.897c0-.049.04-.088.088-.088ZM1.744 21.153l1.878.003c.053 0 .095.043.095.095l-.003 1.861a.095.095 0 0 1-.095.095l-1.878-.003a.095.095 0 0 1-.095-.095l.003-1.861c0-.053.043-.095.095-.095ZM4.028 21.152l1.898-.004c.047 0 .085.039.085.086l.004 1.892a.085.085 0 0 1-.085.085l-1.898.003a.085.085 0 0 1-.086-.085l-.003-1.892c0-.047.038-.085.085-.085ZM34.168 21.148l1.917.004c.04 0 .072.032.072.073l-.003 1.911c0 .04-.033.073-.073.073l-1.917-.004a.073.073 0 0 1-.072-.072l.003-1.912c0-.04.033-.073.073-.073ZM36.492 21.154l1.94.003c.037 0 .067.031.067.069l-.003 1.912c0 .037-.03.068-.068.068l-1.94-.003a.069.069 0 0 1-.068-.069l.003-1.912c0-.037.03-.068.069-.068ZM38.849 21.153l1.89.003c.04 0 .075.034.075.076l-.004 1.9a.075.075 0 0 1-.075.075l-1.89-.003a.075.075 0 0 1-.075-.076l.003-1.9c0-.042.034-.075.076-.075ZM41.195 21.153h1.88c.042 0 .076.034.076.075v1.904a.075.075 0 0 1-.075.075h-1.881a.075.075 0 0 1-.076-.075v-1.904c0-.041.034-.075.076-.075ZM43.516 21.153l1.945.003a.06.06 0 0 1 .06.06l-.003 1.937a.06.06 0 0 1-.06.06l-1.945-.003a.06.06 0 0 1-.06-.06l.003-1.937a.06.06 0 0 1 .06-.06ZM45.867 21.155l1.9-.004c.049 0 .087.039.087.087l.004 1.886a.087.087 0 0 1-.087.087l-1.9.003a.087.087 0 0 1-.087-.086l-.003-1.887c0-.047.038-.086.086-.086ZM48.21 21.155l1.884-.004c.043 0 .077.035.077.077l.004 1.903a.077.077 0 0 1-.077.077l-1.884.004a.077.077 0 0 1-.077-.077l-.003-1.903c0-.043.034-.077.077-.077ZM1.733 23.51h1.9c.048 0 .087.04.087.087v1.875a.087.087 0 0 1-.087.087h-1.9a.087.087 0 0 1-.087-.087v-1.875c0-.048.039-.087.087-.087ZM34.166 23.51h1.914c.041 0 .074.034.074.074v1.898c0 .041-.033.074-.074.074h-1.914a.074.074 0 0 1-.074-.074v-1.898c0-.04.033-.074.074-.074ZM36.505 23.507l1.912.004c.046 0 .082.037.082.082l-.003 1.881a.082.082 0 0 1-.082.082l-1.912-.003a.082.082 0 0 1-.082-.083l.003-1.88c0-.046.037-.083.082-.083ZM38.836 23.51h1.912c.037 0 .067.03.067.067v1.912c0 .037-.03.067-.067.067h-1.912a.067.067 0 0 1-.067-.067v-1.912c0-.037.03-.067.067-.067ZM41.176 23.512l1.91-.003c.035 0 .063.028.064.064l.003 1.917a.064.064 0 0 1-.064.064l-1.91.004a.064.064 0 0 1-.064-.064l-.003-1.918c0-.035.029-.064.064-.064ZM43.523 23.51l1.931.003c.037 0 .066.03.066.066l-.003 1.915c0 .036-.03.065-.066.065l-1.931-.003a.066.066 0 0 1-.066-.066l.003-1.914c0-.037.03-.066.066-.066ZM45.882 23.512h1.886c.048 0 .087.038.087.086v1.873a.087.087 0 0 1-.087.087h-1.886a.087.087 0 0 1-.087-.087v-1.873c0-.047.039-.086.087-.086ZM30.319 30.137c-.1.08-.166.18-.195.305a.132.132 0 0 1-.086.095.32.32 0 0 1-.136.015.125.125 0 0 1-.109-.078l-.106-.246a.154.154 0 0 0-.293.06l-.009.957c0 .037-.02.056-.057.056l-.613.001c-.046 0-.069-.022-.069-.067l-.02-2.94c0-.06.03-.082.087-.067.057.015.12.055.191.122.349.327.653.664.913 1.011a.16.16 0 0 0 .25.006c.303-.367.605-.693.907-.977.073-.07.12-.1.143-.09.037.017.069.046.092.082.022.037.034.08.035.126l.03 2.7a.091.091 0 0 1-.09.09l-.582.006a.069.069 0 0 1-.068-.067l-.024-1.01c-.004-.158-.067-.188-.191-.09Z"/><path fill="#919EAB" fill-rule="evenodd" d="M7.642 30.515a.81.81 0 0 1-.822.796l-.643-.01a.81.81 0 0 1-.796-.821l.023-1.423a.81.81 0 0 1 .821-.796l.643.01a.81.81 0 0 1 .796.822l-.022 1.422Zm-.727-1.23a.311.311 0 0 0-.31-.313l-.153-.001a.311.311 0 0 0-.314.31l-.007 1.014a.312.312 0 0 0 .31.314h.153a.311.311 0 0 0 .314-.309l.007-1.014ZM3.1 31.202l-.026-.9c0-.02.006-.039.019-.054a.08.08 0 0 1 .05-.027c.08-.009.182-.01.292-.011.304-.004.674-.008.823-.17.316-.348.416-.743.297-1.184-.199-.744-1.375-.64-2.038-.582l-.15.013c-.03.002-.045.018-.045.049l.062 2.825a.13.13 0 0 0 .126.128l.486.018c.072.001.106-.034.105-.105Zm.663-2.175c.082.037.13.093.137.156.005.062-.033.126-.106.177a.608.608 0 0 1-.286.096.608.608 0 0 1-.299-.043c-.081-.037-.13-.093-.136-.155-.006-.063.032-.126.106-.177a.608.608 0 0 1 .286-.096c.11-.01.217.005.298.042Z" clip-rule="evenodd"/><path fill="#919EAB" d="M9.324 30.559c.284.052.457-.05.633-.156.172-.102.346-.205.628-.17a.08.08 0 0 1 .068.053c.44 1.136-1.201 1.11-1.865.923a.213.213 0 0 1-.102-.065c-.355-.398-.282-1.443-.246-1.96l.006-.083c.017-.269.123-.508.318-.716a.22.22 0 0 1 .117-.068c.794-.174 1.957-.127 1.837 1.063a.097.097 0 0 1-.092.085.935.935 0 0 1-.677-.227c-.165-.143-.281-.222-.35-.236-.598-.125-.449.991-.396 1.38l.007.054a.143.143 0 0 0 .114.123ZM13.35 30.12l-.008-.6c-.001-.046.022-.07.068-.072l.258-.008c.068-.002.102-.038.103-.107l.001-.958c0-.075-.036-.112-.11-.112l-.569.002c-.046 0-.07.023-.07.07l-.001 1.047c0 .045-.022.067-.067.067h-.627c-.047 0-.07-.022-.07-.068v-1.05c0-.047-.024-.07-.072-.07l-.617.01c-.058 0-.087.03-.087.087l.008 2.91a.034.034 0 0 0 .034.033l.699.001c.023 0 .035-.011.035-.035v-.99c0-.054.027-.08.082-.08l.597.009c.058.001.086.031.086.089l-.005.958a.05.05 0 0 0 .014.035c.009.01.02.014.033.014h.663c.033 0 .05-.016.05-.05l-.013-.99a.077.077 0 0 0-.03-.06.074.074 0 0 0-.067-.01.454.454 0 0 1-.252.01c-.043-.011-.065-.038-.066-.082ZM15.355 29.435l.982.02a.077.077 0 0 1 .075.074l.018.57a.076.076 0 0 1-.045.073.075.075 0 0 1-.029.007l-.998.038a.077.077 0 0 0-.074.078l.002.186a.077.077 0 0 0 .077.075l1.362.003a.077.077 0 0 1 .077.075l.014.59a.076.076 0 0 1-.022.055.078.078 0 0 1-.055.023H14.61a.077.077 0 0 1-.077-.076l-.003-2.89a.077.077 0 0 1 .077-.077l2.127.014a.077.077 0 0 1 .075.077l-.008.592a.077.077 0 0 1-.076.076l-1.37.025a.076.076 0 0 0-.076.077v.239a.077.077 0 0 0 .075.076ZM19.134 31.24l.04-2.166c.002-.042.023-.065.065-.069l.517-.038c.035-.002.058-.02.068-.054.058-.183.077-.369.058-.558a.058.058 0 0 0-.058-.051l-2.104-.04a.086.086 0 0 0-.065.027.085.085 0 0 0-.023.066l.047.55c.004.05.03.076.08.078l.54.03c.055.003.082.031.082.085l.008 2.135a.056.056 0 0 0 .055.056l.619.016c.046 0 .07-.022.071-.067ZM23.38 30.528c.21.063.414.058.613-.015a.112.112 0 0 0 .072-.096.109.109 0 0 0-.058-.104c-.29-.15-.394-.405-.312-.762a.102.102 0 0 1 .094-.083l.663-.083a.251.251 0 0 1 .283.243l.035 1.234c0 .051-.024.085-.073.1l-.126.041a.112.112 0 0 0-.08.084c-.071.256-.516.238-.889.223a5.25 5.25 0 0 0-.258-.006c-.546.005-.733-.364-.784-.87-.068-.688-.156-1.63.424-2.104a.162.162 0 0 1 .103-.039l1.118-.035a.226.226 0 0 1 .232.214l.022.374c.006.097-.04.147-.136.151l-.884.037a.168.168 0 0 0-.16.171l.036 1.24a.086.086 0 0 0 .066.085Z"/><path fill="#919EAB" fill-rule="evenodd" d="m26.364 31.195-.032-.55c-.005-.074.03-.11.103-.11l.573.003c.073 0 .11.036.11.11l-.003.555c0 .066.033.1.1.1l.552-.002c.074 0 .11-.037.108-.11a39.09 39.09 0 0 0-.097-2.16c-.065-.915-1.003-.828-1.649-.743a.193.193 0 0 0-.117.06c-.242.252-.377.452-.391.826-.027.69-.033 1.367-.017 2.03.002.069.036.102.103.101l.563-.008a.094.094 0 0 0 .07-.03.094.094 0 0 0 .024-.072Zm.757-2.082c.01.026.015.053.015.08l-.004.414a.21.21 0 0 1-.21.206l-.371-.003a.207.207 0 0 1-.207-.21l.004-.414a.21.21 0 0 1 .21-.206l.372.003a.21.21 0 0 1 .19.13Z" clip-rule="evenodd"/><path fill="#919EAB" d="m32.954 30.556 1.358.003c.039 0 .058.019.058.057l.001.617c0 .046-.023.07-.07.07l-2.083-.002c-.083 0-.125-.041-.125-.124l.002-2.788a.125.125 0 0 1 .077-.116.123.123 0 0 1 .047-.009l2.08.019c.053 0 .08.028.076.082l-.03.57c-.003.06-.035.09-.097.09-.348-.01-.726-.005-1.134.015-.127.007-.215.048-.263.124a.164.164 0 0 0 .13.253l.813.052c.152.01.228.09.23.243v.246c.002.132-.064.203-.196.211l-.88.055a.104.104 0 0 0-.101.083.303.303 0 0 0 0 .168c.014.054.05.081.107.081ZM35.56 28.337a.523.523 0 0 1-.056.296.087.087 0 0 1-.09.05.258.258 0 0 0-.158.034.1.1 0 0 0-.052.087l-.01.879c0 .06.03.092.091.093l.193.005c.051.002.078.028.08.08l.007.26c.001.046.025.07.07.07l1.024.02a.114.114 0 0 1 .078.034.114.114 0 0 1 .032.08c0 .115-.067.179-.198.192a9.993 9.993 0 0 1-1.336.028c-.006 0-.011 0-.017.003a.046.046 0 0 0-.015.01h-.001l-.001.002-.001.001a.04.04 0 0 0-.008.024l.002.677c0 .021.01.032.032.033.453.017.92.016 1.4-.004.844-.035.828-.56.81-1.162a10.917 10.917 0 0 1-.006-.224.138.138 0 0 0-.074-.12 2.265 2.265 0 0 1-.17-.103c-.116-.075-.226-.146-.372-.172a7.474 7.474 0 0 0-.755-.096.15.15 0 0 1-.138-.136l-.006-.07a.167.167 0 0 1 .168-.18l1.266.01c.081.002.122-.038.123-.12l.005-.489a.148.148 0 0 0-.145-.15l-1.699-.02a.071.071 0 0 0-.073.078ZM41.587 30.418l.044-.049a.071.071 0 0 0-.047-.117 6.48 6.48 0 0 0-.287-.022c-.389-.024-.793-.048-1.02-.326-.416-.505-.205-1.619.557-1.635.436-.01.87-.011 1.3-.004.155.001.225.08.21.236l-.04.39a.18.18 0 0 1-.13.154.176.176 0 0 1-.071.005l-.01-.001c-.304-.04-.977-.128-1.235.073a.155.155 0 0 0 .071.276c.112.018.217.033.314.047.864.125 1.162.168 1.05 1.385a.166.166 0 0 1-.059.116l-.325.292a.19.19 0 0 1-.132.05l-1.591.013c-.106 0-.155-.052-.147-.158l.03-.433a.154.154 0 0 1 .15-.141l1.073-.016a.385.385 0 0 0 .295-.135Z"/><path fill="#919EAB" fill-rule="evenodd" d="M45.306 30.84a.737.737 0 0 0 .056-.282l-.003-1.548a.736.736 0 0 0-.738-.735l-.777.001a.738.738 0 0 0-.735.738l.003 1.548a.738.738 0 0 0 .737.735h.777a.737.737 0 0 0 .68-.457Zm-.705-1.709c.013.031.02.065.02.098l.006 1.096a.257.257 0 0 1-.256.258l-.255.002a.257.257 0 0 1-.258-.256l-.006-1.096a.258.258 0 0 1 .256-.258l.254-.001a.258.258 0 0 1 .239.157Z" clip-rule="evenodd"/><path fill="#919EAB" d="m46.967 30.306.003.91a.088.088 0 0 1-.088.088l-.577-.003a.088.088 0 0 1-.088-.088l-.002-2.863a.088.088 0 0 1 .088-.088l2.095.005a.088.088 0 0 1 .088.088l-.001.576a.088.088 0 0 1-.087.088l-1.363.017a.088.088 0 0 0-.086.088v.222a.088.088 0 0 0 .084.087l.992.04a.09.09 0 0 1 .062.03.089.089 0 0 1 .022.065l-.044.53a.088.088 0 0 1-.083.08l-.93.04a.088.088 0 0 0-.085.088ZM49.344 28.994l.597.032a.073.073 0 0 1 .068.073l.018 2.128a.072.072 0 0 0 .072.071l.608.006a.074.074 0 0 0 .05-.021.072.072 0 0 0 .022-.052l-.001-2.135c0-.018.007-.036.019-.05a.073.073 0 0 1 .048-.023l.598-.046a.073.073 0 0 0 .067-.07l.026-.542a.072.072 0 0 0-.07-.077l-2.126-.032a.072.072 0 0 0-.053.021.072.072 0 0 0-.021.053l.01.593a.072.072 0 0 0 .068.07Z"/></svg>