<svg xmlns="http://www.w3.org/2000/svg" width="102" height="28" fill="none"><path fill="#919EAB" d="M78.47 17.907c1.013-3.234 2.031-6.489 3.026-9.743 1.16-.011 2.328-.008 3.488-.004.577.002 1.153.004 1.724.004a1309.14 1309.14 0 0 1-3.593 11.554h-5.212l.567-1.81ZM12.02 13.561H9.792c.219-.775.455-1.551.691-2.327h2.26c-.118.388-.24.776-.362 1.164-.123.388-.245.776-.363 1.163ZM27.908 13.561h-2.226c.22-.775.472-1.551.725-2.327h2.227c-.119.388-.24.776-.363 1.164-.122.388-.245.776-.363 1.163Z"/><path fill="#919EAB" fill-rule="evenodd" d="M93.54 2.159c1.028 1.13 1.551 2.648 1.636 4.15.404.018.816.006 1.23-.006 1.102-.03 2.212-.062 3.206.478 1.096.556 1.805 1.686 1.99 2.9v1.131c-.298 1.282-.654 2.546-1.011 3.81v.001c-.249.881-.497 1.763-.726 2.65a6.007 6.007 0 0 1-3.88 4.25c-1.159.367-2.373.336-3.577.305-.564-.014-1.127-.028-1.68-.002l-.005.017c-1.754 3.357-5.23 5.853-9.024 6.157H56.65c-1.586-.169-3.172-.843-4.251-2.007-1.063-1.113-1.636-2.598-1.72-4.133H4.53c-1.113 0-2.26-.287-3.07-1.08-.59-.573-.944-1.4-1.063-2.226v-1.113c.32-1.508.71-2.985 1.1-4.468.187-.706.374-1.414.553-2.127.507-2.497 2.851-4.538 5.415-4.538h47.634v-.016C56.718 2.935 60.075.422 63.785 0h25.352c1.653.202 3.272.894 4.403 2.159Zm-34.712 23.33c1.53.003 3.071.006 4.603-.02 3.12-.185 5.803-2.63 6.78-5.515.534-1.655 1.05-3.31 1.566-4.963l.002-.005v-.001c.398-1.275.795-2.549 1.2-3.819h-8.283c-.287.945-.582 1.885-.877 2.826-.295.94-.59 1.88-.877 2.825h2.867c-.32.978-.624 1.973-.927 2.968h-5.668l.704-2.238c.98-3.121 1.963-6.25 2.957-9.366 2.385.011 4.785.007 7.18.003l3.581-.003.22-.69c.533-1.673 1.064-3.336 1.568-5.011-1.704-.009-3.403-.009-5.103-.009-1.7 0-3.398 0-5.102-.008-3.778-.186-7.37 2.648-8.332 6.257-.635 2.045-1.275 4.079-1.914 6.11-.516 1.64-1.032 3.28-1.544 4.922-.422 1.299-.405 2.817.37 3.98.76 1.181 2.16 1.772 3.51 1.755.503 0 1.008 0 1.515.002h.004Zm21.808.031c3.829.119 7.439-2.698 8.45-6.375.539-1.747 1.084-3.49 1.628-5.229v-.003h.001c.633-2.023 1.264-4.04 1.88-6.053.506-1.67.152-3.71-1.299-4.807-1.164-.961-2.732-.928-4.132-.894-.62.017-1.241.001-1.862-.015-1.206-.03-2.412-.062-3.603.15-2.986.725-5.584 3.087-6.427 6.055-.59 1.88-1.18 3.762-1.769 5.645l-.002.006-.002.007-1.769 5.644c-.422 1.349-.354 2.884.455 4.082.726 1.096 2.025 1.686 3.323 1.754 1.085.043 2.176.038 3.265.033a129.91 129.91 0 0 1 1.863 0Zm-70.9-9.622c.544.01 1.097.022 1.642-.026 1.383-.05 2.648-1.08 3.036-2.429.09-.328.198-.652.307-.976.199-.594.399-1.191.486-1.824.118-.894-.607-1.737-1.501-1.754-.81-.008-1.615-.004-2.42 0-.806.004-1.611.009-2.421 0-.37 1.19-.746 2.382-1.122 3.575v.001c-.6 1.902-1.199 3.805-1.78 5.701h2.379c.157-.494.315-1.004.472-1.514l.236-.763c.226 0 .455.005.685.01h.001Zm5.614-2.345c-.485 1.544-.97 3.087-1.442 4.63h6.967c.506-1.535.995-3.104 1.467-4.655h-2.378a180.05 180.05 0 0 1-.726 2.344h-2.226c.277-.89.557-1.776.837-2.66v-.001a417.84 417.84 0 0 0 1.339-4.288 56.717 56.717 0 0 0-2.395 0c-.473 1.543-.957 3.086-1.442 4.629v.001Zm14.549 1.19c.362-1.148.725-2.295 1.08-3.442.42-.961-.136-2.243-1.232-2.344-.634-.051-1.286-.045-1.93-.038-.212.002-.424.004-.634.004-1.468-.034-2.817 1.096-3.205 2.48-.725 2.26-1.434 4.52-2.142 6.78h2.378c.158-.494.315-1.004.473-1.514l.236-.763h2.226c-.157.495-.315 1.004-.472 1.514l-.001.004-.235.76h2.378c.354-1.148.717-2.295 1.08-3.442Zm5.431 1.163c1.366-.135 2.631-1.063 3.07-2.395.489-1.535.961-3.07 1.434-4.622h-2.379c-.337 1.023-.66 2.062-.982 3.1-.161.52-.322 1.038-.485 1.556H33.76c.315-1.046.645-2.077.975-3.108.165-.515.33-1.03.493-1.548-.81 0-1.603 0-2.395.017-.26.843-.523 1.68-.787 2.516-.2.636-.4 1.27-.596 1.903-.203.624-.27 1.333.117 1.89.268.416.758.544 1.206.66l.178.048c-.118.38-.236.75-.355 1.122-.118.37-.236.742-.354 1.121h2.379l.354-1.13.354-1.13Zm8.89-6.747h-3.105c-.303.894-.607 1.805-.91 2.716h3.086c.169-.535.355-1.064.541-1.595.131-.373.262-.745.387-1.121Zm4.977 6.925c.182-.616.363-1.23.538-1.848.169-.573.287-1.231-.034-1.77-.236-.49-.759-.76-1.299-.794-.81-.05-1.619-.033-2.428-.017-1.468-.016-2.834 1.08-3.205 2.497l-.002.004c-.387 1.348-.775 2.696-1.162 4.027h2.378c.198-.658.39-1.32.58-1.981.214-.745.428-1.487.651-2.219h2.227c-.158.546-.32 1.09-.484 1.633-.255.851-.51 1.703-.748 2.567h2.379c.197-.706.403-1.404.609-2.099ZM97.352 3.761v-.759h.202c.034 0 .101.017.135.034a.237.237 0 0 1 .101.118c.017.034.034.063.05.093.018.03.035.059.051.093.068.135.135.27.203.421h.54a8.081 8.081 0 0 1-.27-.54.6.6 0 0 0-.186-.27.341.341 0 0 0-.185-.1c.017-.009.033-.013.05-.017.017-.004.034-.009.05-.017a.373.373 0 0 0 .22-.203l.015-.035a.512.512 0 0 0 .053-.2c0-.085 0-.152-.034-.237-.017-.067-.068-.118-.101-.152-.085-.084-.203-.118-.32-.151-.102-.017-.203-.017-.321-.017h-.776v1.99c.185-.05.37-.05.523-.05Zm0-1.636h.202c.084 0 .152 0 .22.034a.291.291 0 0 1 .1.101.583.583 0 0 1 .017.152c0 .068-.016.118-.084.135l-.028.015a.348.348 0 0 1-.174.052h-.237c-.016-.151-.016-.303-.016-.489Z" clip-rule="evenodd"/><path fill="#919EAB" fill-rule="evenodd" d="M97.183 4.639a2.38 2.38 0 0 1-.658-.32 3.922 3.922 0 0 1-.523-.54 2.03 2.03 0 0 1-.236-1.046c.017-.321.118-.641.27-.894.169-.27.405-.49.658-.641.253-.135.523-.237.826-.253.195-.033.374-.003.567.03l.024.003c.303.068.573.22.81.422.185.152.337.354.438.573.118.237.202.523.202.776.017.355-.067.709-.253 1.03a1.64 1.64 0 0 1-.506.573 1.73 1.73 0 0 1-.894.354c-.253.017-.489 0-.725-.067Zm-.692-2.75c-.168.203-.27.472-.303.742-.034.186-.017.405.05.624.085.253.22.49.422.675.22.22.506.371.827.405.286.017.556-.017.792-.118a1.86 1.86 0 0 0 .473-.337 1.52 1.52 0 0 0 .422-1.299 1.323 1.323 0 0 0-.355-.76 1.56 1.56 0 0 0-.658-.438c-.168-.084-.388-.101-.59-.084a1.189 1.189 0 0 0-.422.101c-.27.084-.472.27-.658.49Z" clip-rule="evenodd"/></svg>