<svg width="130" height="24" fill="none" xmlns="http://www.w3.org/2000/svg"><path fill-rule="evenodd" clip-rule="evenodd" d="M18.398 7.962c0-.026 0-.052.002-.077-.008-.467-.141-.427-.701-.215-.28.1-.524.28-.702.518.023.34.462.828.818.711.563-.184.573-.573.582-.937Zm-10.928 0c.01.364.02.752.582.937.356.117.794-.368.818-.71a1.52 1.52 0 0 0-.701-.519c-.561-.212-.693-.252-.701.215l.002.077Zm15.216 11.513c-.286.291-.62.53-.99.705l.008.002a.16.16 0 0 1-.204-.22c.098-.199.198-.398.298-.597.336-.67.672-1.34.939-2.037.27-.71.473-1.445.674-2.18.06-.221.121-.443.184-.663a.159.159 0 0 0-.203-.197c-.143.05-.32.119-.486.184l-.194.076a.16.16 0 0 1-.21-.106.16.16 0 0 1 0-.088c.267-.92 1.137-3.615 1.137-3.615-.052.06-.561.801-.598.87a15.556 15.556 0 0 0-1.073 2.056 14.167 14.167 0 0 1-.328.789.146.146 0 0 0 .014.18c.722.612.14 1.78-.17 2.143a4.471 4.471 0 0 0-.891 1.744c-.028.084-.061.192-.098.31l-.064.205a.16.16 0 0 1-.309-.058c.055-.824.2-1.943.473-2.198.417-.395.33-1.755-.14-1.996-.438-.225-.535-.464-.314-.848a.163.163 0 0 0-.01-.182.163.163 0 0 0-.048-.043l-2.011-1.15a.16.16 0 0 1 .053-.298 2.754 2.754 0 0 1 1.945.571.886.886 0 0 0 1.294-.494c.043-.102.078-.207.107-.313.023-.09-.056-.164-.143-.186-.991-.248-1.137-.298-1.186-.598a.16.16 0 0 1 .09-.17.16.16 0 0 1 .067-.015c.344.05.696.007 1.019-.124.19-.195.315-.445.355-.715a.16.16 0 0 0-.215-.192c-.35.148-.445.143-.637-.004a.165.165 0 0 1-.025-.235.96.96 0 0 1 .146-.147c.725-.566 1.839-3.69 1.802-4.612a2.1 2.1 0 0 1 .63.937c.078-.033.156-.063.23-.092.648-.252 1.109-.431 1.011-1.4l-.848.44s-.045-.329.41-.709c.976-.814 1.124-1.9 1.155-3.077a1.037 1.037 0 0 0-1.575-.976c-1.898.892-4.505 1.786-6.66 1.51l-.07-.015-.007-.004.005.003a21.037 21.037 0 0 0-4.075-.432h-.011c-1.37.011-2.735.156-4.076.432l.006-.003-.007.004-.07.015c-2.156.276-4.766-.62-6.66-1.51a1.04 1.04 0 0 0-1.575.976C.587 2.306.735 3.39 1.71 4.205c.455.38.41.709.41.709l-.848-.44c-.097.97.363 1.148 1.012 1.4l.23.092a2.1 2.1 0 0 1 .63-.937c-.037.922 1.077 4.046 1.802 4.612a.94.94 0 0 1 .146.147.164.164 0 0 1-.027.235c-.191.147-.287.152-.636.003a.16.16 0 0 0-.215.104.16.16 0 0 0-.001.089c.04.27.165.52.356.715.323.13.674.173 1.019.123a.159.159 0 0 1 .12.057.16.16 0 0 1 .037.129c-.05.3-.198.35-1.188.598-.086.024-.165.098-.142.185.029.107.064.211.107.313a.884.884 0 0 0 1.294.495 2.755 2.755 0 0 1 1.945-.572.162.162 0 0 1 .133.13.16.16 0 0 1-.08.169l-2.01 1.15a.164.164 0 0 0-.059.224c.221.384.123.623-.314.848-.47.242-.559 1.602-.14 1.996.273.256.418 1.374.473 2.198a.16.16 0 0 1-.31.059l-.063-.205c-.037-.119-.07-.226-.098-.31a4.459 4.459 0 0 0-.892-1.745c-.306-.363-.89-1.53-.168-2.142.053-.046.042-.119.013-.18a15.514 15.514 0 0 1-.329-.79 15.44 15.44 0 0 0-1.073-2.056 22.987 22.987 0 0 0-.597-.87s.87 2.695 1.138 3.616a.16.16 0 0 1-.21.194l-.195-.076c-.166-.066-.344-.135-.486-.184a.16.16 0 0 0-.203.196c.062.218.121.436.181.655.203.739.405 1.477.677 2.188.267.7.605 1.373.943 2.045.098.197.197.393.294.59a.16.16 0 0 1-.204.22 3.483 3.483 0 0 1-.99-.706c-1.406-1.5-1.679-3.228-1.847-5.228-.026-.31-.034-.622-.041-.936-.005-.214-.01-.429-.021-.645l-.001-.022c-.005-.111-.018-.43-.053-.43a1.36 1.36 0 0 0-.258.413 5.591 5.591 0 0 0-.326 1.447 10.846 10.846 0 0 0-.083 2.944c.048.341.16.67.334.968a62.723 62.723 0 0 0 1.71 2.661c.358.536.717 1.073 1.069 1.622.052.081.095.001.133-.07a.272.272 0 0 1 .052-.079l.074-.075c.209-.114.293-.128.394-.058l.032.064c.022.04.043.081.061.122.218.48.61 1.25.882 1.745a.16.16 0 0 0 .3-.079v-.158a94.422 94.422 0 0 1 .004-1.527c.004-.338.01-.735.474-.735.465.002.48.406.485.76v1.015a.161.161 0 0 0 .248.139 5.057 5.057 0 0 1 1.285-.702 2.402 2.402 0 0 1 2.247.247l-.1-.09a2.35 2.35 0 0 0-2.081-.557c-.203.044-.411.06-.619.05a.16.16 0 0 1-.14-.216c.289-.766 1.19-3.573-.661-4.526a.163.163 0 0 1-.09-.124c-.008-.063-.03-.153-.056-.263-.188-.789-.635-2.66 1.605-3.934.173.153.364.395.574.663.279.354.594.754.952 1.056-.992.214-1.568-.3-2.064-.74-.06-.054-.118-.106-.176-.155.17.995.806 1.282 1.457 1.575.196.088.394.178.58.287-.314-.135-.63-.126-.956-.117-.392.012-.802.024-1.251-.212.352.676.91.754 1.458.83.376.053.748.105 1.044.35-.56.36-1.083.274-1.596.19-.128-.02-.256-.041-.383-.055a1.574 1.574 0 0 0-.54.02c.149.218.323.417.517.596.247.186.527.325.825.408.303.096.627.104.935.025a40.042 40.042 0 0 0 2.696-.974.663.663 0 0 0 .353-.42 2.17 2.17 0 0 0 .016-.505 2.913 2.913 0 0 1 0-.393.699.699 0 0 0-.556-.815 3.878 3.878 0 0 1-2.087-1.437 2.426 2.426 0 0 1-.367-.826v-.017a2.27 2.27 0 0 1 .14-.799 1.121 1.121 0 0 0-.014-.618l-.015-.066v-.01h-.003l-.182-.778a1.037 1.037 0 0 0-.454-.624L9.1 9.653a.455.455 0 0 0-.07-.046 6.208 6.208 0 0 0-1.063-.435A4.587 4.587 0 0 1 5.266 6.26a2.696 2.696 0 0 1-.111-1.377c.068.14.158.356.244.565.069.168.136.331.189.445a.934.934 0 0 0 .98.613c1.184.008 2.326.206 2.973 1.442a3.03 3.03 0 0 0 1.414 1.53 2.937 2.937 0 0 0-.163-1.054c.55-.227.334-.547.04-.865-.286-.31-.575-.617-.871-.932l-.357-.38c.358-.09.685-.271.95-.528H8.238l-.002-.02a.418.418 0 0 1-.004-.05 6.573 6.573 0 0 0 2.019-.722c-.749-.462-2.06-.441-2.914-.428-.374.006-.66.01-.775-.027-.003-.069.182-.124.414-.194.07-.02.143-.043.217-.067.301-.078.526-.134.736-.187.307-.077.584-.146 1.024-.264a9.51 9.51 0 0 0 2.11-.855h-3.04a9.06 9.06 0 0 1 3.356-1.113 18.266 18.266 0 0 1 1.56-.034v-.195l.002.195a18.27 18.27 0 0 1 1.56.034c1.18.147 2.32.525 3.355 1.113h-3.04a9.513 9.513 0 0 0 2.11.855c.452.122.732.192 1.051.272.203.05.421.105.71.18.074.024.148.046.217.066.232.07.416.125.413.194-.114.037-.396.032-.765.026-.854-.014-2.172-.035-2.923.429.628.35 1.31.593 2.019.722l-.002.017a.445.445 0 0 0-.004.053h-2.316c.265.257.593.439.95.528l-.28.3c-.324.343-.637.676-.948 1.012-.293.319-.51.64.04.865a2.941 2.941 0 0 0-.161 1.054 3.03 3.03 0 0 0 1.412-1.53c.649-1.233 1.79-1.433 2.974-1.442a.935.935 0 0 0 .98-.613c.053-.115.121-.28.191-.45.085-.208.174-.422.242-.56.083.46.045.935-.111 1.377a4.587 4.587 0 0 1-2.7 2.912 6.206 6.206 0 0 0-1.065.435.453.453 0 0 0-.07.046l-.054.033a1.036 1.036 0 0 0-.408.596l-.181.778h-.004v.01l-.015.066c-.063.2-.069.415-.016.618a2.26 2.26 0 0 1 .14.816 2.424 2.424 0 0 1-.365.826 3.882 3.882 0 0 1-2.088 1.437.7.7 0 0 0-.556.816c.012.13.006.262 0 .394-.007.17-.015.34.017.502a.661.661 0 0 0 .352.42c.89.35 1.784.69 2.696.975.308.079.632.07.936-.026.297-.083.577-.221.824-.408.195-.178.369-.378.519-.595a1.575 1.575 0 0 0-.542-.02 7.109 7.109 0 0 0-.382.055c-.514.084-1.036.17-1.593-.19.295-.246.667-.298 1.043-.35.547-.077 1.106-.154 1.459-.83-.45.237-.86.225-1.253.213-.326-.01-.64-.02-.956.115.187-.109.385-.198.581-.286.651-.293 1.287-.579 1.457-1.576-.058.05-.116.101-.175.155-.496.441-1.07.954-2.065.74.36-.302.674-.703.953-1.057.21-.267.4-.509.572-.662 2.239 1.274 1.794 3.143 1.606 3.933a2.88 2.88 0 0 0-.056.265.162.162 0 0 1-.09.123c-1.851.953-.95 3.76-.663 4.526a.159.159 0 0 1-.14.215 2.323 2.323 0 0 1-.62-.05 2.352 2.352 0 0 0-2.08.557l-.1.09a2.401 2.401 0 0 1 2.248-.246c.46.17.893.407 1.285.702a.161.161 0 0 0 .247-.139l-.001-.367c-.001-.225-.002-.437.001-.648.006-.353.02-.76.486-.76.465 0 .47.398.473.737v.027c.006.412.005.825.005 1.237v.419a.16.16 0 0 0 .118.154.16.16 0 0 0 .18-.075 29.49 29.49 0 0 0 .883-1.745l.03-.063.063-.123c.101-.07.183-.056.394.058l.074.075a.273.273 0 0 1 .052.079c.039.071.081.15.134.07.349-.544.704-1.077 1.058-1.608a63.754 63.754 0 0 0 1.72-2.675c.172-.298.286-.627.334-.968.106-.98.078-1.97-.083-2.944a5.601 5.601 0 0 0-.326-1.447 1.364 1.364 0 0 0-.258-.414c-.035 0-.05.323-.054.433v.02c-.012.216-.017.432-.022.646-.007.314-.014.625-.04.935-.168 2-.442 3.728-1.848 5.228ZM8.48 13.062l-.088.046c.032-.016.061-.03.088-.046Zm-3.63-11.77c.167.041.328.079.483.113a3.475 3.475 0 0 0-.483-.113ZM3.25 3.971c-.433-.978-.847-2.624 1.387-2.449l2.629.646c-.399.1-.81.132-1.22.095a3.68 3.68 0 0 1-.559-.136c-.355-.107-.722-.217-1.35-.152a1.533 1.533 0 0 0-.606.218c.185.097.575.276.95.447.469.215.914.418.905.44a8.62 8.62 0 0 0-.521-.135 10.567 10.567 0 0 1-.691-.179c.036.15.044.357.054.62.029.79.077 2.089.974 3.892A7.508 7.508 0 0 0 7.062 9.64c.101.072.203.138.306.197-2.206-.88-2.91-2.929-3.4-4.357-.105-.306-.2-.584-.298-.816a.043.043 0 0 0-.003-.006.298.298 0 0 0-.055-.09l-.36-.597Zm14.136 9.092c.027.015.057.03.089.045l-.088-.045Zm3.631-11.77c-.168.04-.328.078-.483.112.158-.05.32-.087.483-.112Zm1.183 3.362c-.002.003-.005.007-.005.01-.098.231-.193.508-.298.814-.49 1.428-1.193 3.475-3.402 4.358.103-.06.205-.125.306-.197a7.504 7.504 0 0 0 1.86-2.362c.896-1.8.944-3.098.974-3.89.01-.263.018-.47.054-.622-.126.044-.428.117-.702.183-.228.054-.436.105-.51.13-.008-.02.431-.221.896-.434.378-.173.773-.354.96-.452a1.533 1.533 0 0 0-.607-.218c-.628-.065-.996.045-1.352.152a3.694 3.694 0 0 1-.558.136c-.409.037-.82.005-1.219-.095l2.631-.645c2.233-.175 1.82 1.471 1.386 2.45l-.36.596a.29.29 0 0 0-.054.086Zm-10.387 8.548c.445.008.792.008 1.113.008l.003-.035.006.035c.323.002.67 0 1.114-.008a2.94 2.94 0 0 0 1.179-.228.65.65 0 0 0 .267-.65c-.023-.337-.461-.575-.461-.575.016.788-.668 1-2.096 1.012h-.013c-1.428-.012-2.112-.224-2.096-1.012 0 0-.438.238-.461.575a.647.647 0 0 0 .266.65 2.94 2.94 0 0 0 1.179.228Zm1.12 8.45Zm-3.255.226c1.474.883 3.214.817 3.254-.155.041.973 1.78 1.038 3.257.155.036-.138.026-.317.017-.488-.012-.227-.023-.437.077-.508.26-.18.674.057.937.225.142.09.256.224.37.36.1.116.2.235.32.328-.11-1.606-1.715-3.066-4.179-3.202l-.024-.002c-.262-.014-.527-.029-.774-.03a11.442 11.442 0 0 0-.798.032c-2.465.137-4.068 1.594-4.18 3.201.12-.092.219-.21.318-.325.116-.137.231-.272.373-.362.262-.167.677-.405.937-.225.1.07.089.28.077.507-.01.17-.019.351.018.489ZM129.5 18.946l-3.593-5.816a2.906 2.906 0 0 0 2.014-1.38 4.316 4.316 0 0 0 .819-2.635 3.964 3.964 0 0 0-1.355-3.276 5.546 5.546 0 0 0-3.587-1.05h-5.511V18.95h3.692v-5.461h.037l3.388 5.461 4.096-.004Zm-5.403-11.051c.243.124.446.313.586.546a2.014 2.014 0 0 1 0 1.809c-.14.233-.343.423-.586.546a2.602 2.602 0 0 1-.809.254 6.413 6.413 0 0 1-.951.066h-.358v-3.54h.358c.318-.002.636.02.951.065.282.04.555.125.809.254Zm-8.089-3.106h-8.076v14.157h8.076v-3.23h-4.371v-2.28h4.371v-3.231h-4.371v-2.28h4.371V4.789ZM50.161 7.925h4.37V4.789h-8.076v14.157h8.077v-3.23H50.16v-2.28h4.37v-3.231h-4.37v-2.28Zm-12.71 5.564 3.388 5.461 4.096-.008-3.867-5.816a3.481 3.481 0 0 0 2.288-1.375 4.316 4.316 0 0 0 .82-2.636 3.96 3.96 0 0 0-1.356-3.276 5.547 5.547 0 0 0-3.587-1.05h-5.511V18.95h3.691v-5.461h.037Zm2.08-5.593c.242.124.445.313.585.547a2.005 2.005 0 0 1 0 1.808 1.431 1.431 0 0 1-.585.546 2.593 2.593 0 0 1-.81.254 6.436 6.436 0 0 1-.951.066h-.357v-3.54h.357c.318-.002.637.02.952.065.282.04.555.125.809.254Zm26.83-1.06a6.554 6.554 0 0 0-2.138-1.51v-.002a6.335 6.335 0 0 0-2.576-.534H56.81v14.16h4.836a6.198 6.198 0 0 0 2.558-.546 6.681 6.681 0 0 0 2.138-1.511 7.063 7.063 0 0 0 1.445-2.262 7.641 7.641 0 0 0 .009-5.521 7.059 7.059 0 0 0-1.435-2.273Zm-6.14 8.996V7.908h.799a3.624 3.624 0 0 1 2.715 1.052 3.995 3.995 0 0 1 1.026 2.91 4.808 4.808 0 0 1-.297 1.756 3.247 3.247 0 0 1-2.016 1.972c-.47.159-.965.238-1.461.234h-.765Zm20.43-7.924h3.051V4.79h-9.79v3.118h3.052v11.041h3.688V7.908Zm5.301 11.044h3.692V4.75h-3.692v14.204ZM96.12 5.293a6.36 6.36 0 0 0-2.266 1.453v-.002a6.537 6.537 0 0 0-1.466 2.276 8.007 8.007 0 0 0-.514 2.923c-.011.971.16 1.935.506 2.843a6.32 6.32 0 0 0 3.68 3.66c.903.343 1.862.513 2.827.503a7.301 7.301 0 0 0 3.087-.643 5.853 5.853 0 0 0 2.335-1.963 6.18 6.18 0 0 0 1.056-2.325c.186-.964.282-1.942.287-2.923h-6.783v2.71h2.789a2.367 2.367 0 0 1-.854 1.709 2.956 2.956 0 0 1-1.901.599 3.117 3.117 0 0 1-1.473-.343 3.213 3.213 0 0 1-1.1-.942 4.415 4.415 0 0 1-.672-1.347 5.251 5.251 0 0 1 0-3.047c.145-.485.37-.943.663-1.355a3.195 3.195 0 0 1 1.083-.96 2.97 2.97 0 0 1 1.447-.352 2.772 2.772 0 0 1 1.744.563 3.4 3.4 0 0 1 1.1 1.55l3.244-1.373a6.11 6.11 0 0 0-2.355-2.782 6.684 6.684 0 0 0-3.576-.933 8.084 8.084 0 0 0-2.888.502Z" fill="#00AB55"/></svg>