<svg width="34" height="38" fill="none" xmlns="http://www.w3.org/2000/svg"><g clip-path="url(#a)"><path fill-rule="evenodd" clip-rule="evenodd" d="M32.367 27.904c.19-.26.368-.61.454-.915.054-.192.112-.363.174-.513.154-.369.223-.631.308-.973.077-.304.094-.607.094-.917.004-7.222.003-14.435 0-21.64a.104.104 0 0 0-.077-.1l-.062-.016c-.157-.042-.309-.083-.462-.152a7.25 7.25 0 0 0-1.457-.49 1.482 1.482 0 0 1-.438-.18 2.214 2.214 0 0 0-.697-.266 27 27 0 0 0-.5-.106c-.362-.074-.726-.149-1.08-.255-.255-.077-.519-.152-.791-.224a7.205 7.205 0 0 0-.802-.169 48.763 48.763 0 0 1-2.127-.374c-.184-.037-.366-.067-.548-.097a16.73 16.73 0 0 1-.627-.113c-.25-.051-.52-.09-.811-.115l-2.57-.227a6.655 6.655 0 0 0-.458-.024C18.217.01 16.441.004 14.564.023c-.496.005-.88.02-1.152.046-.968.092-1.904.18-2.809.262-.16.015-.332.054-.51.095-.184.042-.373.086-.556.104-.122.012-.244.03-.365.055C8.37.749 7.616.884 6.91.99a7.347 7.347 0 0 0-.835.172 48 48 0 0 0-.84.234c-.34.097-.692.175-1.045.252-.239.053-.479.106-.715.165a2.224 2.224 0 0 0-.45.186 2.546 2.546 0 0 1-.418.18 5.69 5.69 0 0 1-.295.076 3.24 3.24 0 0 0-.51.15c-.394.163-.796.315-1.203.455a.027.027 0 0 0-.014.01.028.028 0 0 0-.005.017c.003 7.425.003 14.83.001 22.215 0 .16.021.332.053.487.085.424.188.837.309 1.238.073.244.186.498.339.763.169.293.332.57.489.832.064.106.147.193.23.28.064.066.128.132.182.206.112.153.232.296.352.439.095.112.19.225.279.34.116.152.251.27.387.389.134.116.267.233.382.38.197.255.471.426.74.593l.074.046c.1.064.208.172.322.327.125.168.31.318.485.436.343.23.668.466.976.707.147.115.303.211.466.288.416.195.781.478 1.141.757l.058.045c.263.204.554.352.846.5.208.106.416.212.614.338.123.078.253.147.392.208.197.086.393.191.589.317.366.233.809.437 1.328.611.157.053.293.152.43.251.104.076.208.152.323.209.224.111.443.231.658.36.175.105.371.159.57.214.172.047.345.095.506.176.24.121.487.241.738.36.297.141.617.262.962.364.296.087.567.192.842.3l.243.093a.185.185 0 0 0 .117.005c.188-.054.358-.127.527-.2.19-.082.378-.163.59-.216.59-.149 1.163-.437 1.722-.718.117-.06.276-.108.445-.159.184-.056.38-.116.546-.196.423-.207.832-.454 1.242-.717.132-.085.274-.158.425-.218.081-.032.165-.06.25-.089.208-.07.419-.14.59-.27a4.05 4.05 0 0 1 .677-.393c.114-.057.227-.113.338-.174.449-.251.914-.504 1.394-.76.11-.059.198-.142.286-.225.082-.078.164-.156.266-.215.185-.11.362-.232.528-.366.14-.112.299-.192.458-.272l.164-.083c.203-.109.384-.251.564-.393.167-.132.334-.263.517-.367.118-.066.223-.151.316-.257.264-.298.538-.54.82-.724.206-.135.38-.31.552-.486.101-.102.202-.204.31-.299.14-.122.253-.257.365-.392.113-.134.225-.268.362-.387.107-.093.174-.206.242-.32a1.9 1.9 0 0 1 .146-.221c.256-.32.497-.633.722-.94ZM11.11 33.61a85.427 85.427 0 0 0-1.264-.764.455.455 0 0 0-.076-.032.469.469 0 0 1-.072-.031c-.616-.352-1.216-.7-1.801-1.045a2.942 2.942 0 0 1-.506-.398 3.099 3.099 0 0 0-.786-.543 1.89 1.89 0 0 1-.414-.301c-.072-.063-.144-.127-.222-.185-.516-.38-1.038-.812-1.44-1.292a1.805 1.805 0 0 0-.247-.233c-.072-.06-.143-.12-.207-.19a12.09 12.09 0 0 1-1.047-1.327 1.27 1.27 0 0 1-.13-.238c-.147-.36-.3-.717-.46-1.072-.195-.436-.264-.95-.264-1.446.005-6.81.005-13.566 0-20.271 0-.139.04-.303.196-.344.303-.08.627-.164.972-.25.32-.081.64-.173.96-.276.441-.142.815-.246 1.124-.314.41-.09.833-.175 1.268-.257.287-.054.61-.13.97-.225.364-.098.732-.158 1.103-.22.195-.032.39-.064.588-.102.121-.024.243-.044.365-.065.204-.034.407-.068.604-.115.537-.127.99-.204 1.357-.233.566-.044 1.104-.087 1.614-.129.526-.043.986-.071 1.382-.084 2.07-.065 3.81-.057 5.218.024.29.017.58.043.87.07.249.023.499.045.75.062.811.054 1.3.102 1.467.142.726.178 1.5.327 2.32.446.346.05.715.142 1.087.234.274.068.55.136.816.189l1.09.212c.22.044.4.088.541.132.163.052.326.098.49.144.212.06.423.12.632.19.145.05.288.082.43.115.115.026.229.052.344.087.251.075.504.14.759.196a.188.188 0 0 1 .148.17c.017.246.025.498.025.755-.004 6.557-.005 13.1-.001 19.628 0 .517-.07 1-.209 1.447-.11.353-.283.666-.46.984-.057.104-.115.208-.17.315-.167.317-.346.607-.606.868-.14.14-.281.313-.424.517a.996.996 0 0 1-.25.23 1.04 1.04 0 0 0-.239.214c-.082.11-.18.2-.277.29-.083.077-.167.155-.241.244a2.337 2.337 0 0 1-.583.506 2.303 2.303 0 0 0-.346.276 2.293 2.293 0 0 1-.363.287c-.054.033-.107.063-.16.094a3.14 3.14 0 0 0-.602.411 6.22 6.22 0 0 1-.881.697c-.5.313-1.014.604-1.535.886-.42.23-.836.475-1.248.738-.252.162-.673.38-1.261.654-.124.057-.236.127-.349.196-.126.078-.25.155-.39.214-.228.097-.447.182-.657.256-.268.093-.535.23-.794.364-.258.132-.508.26-.743.338a7.842 7.842 0 0 0-.985.39 18.48 18.48 0 0 0-.761.397c-.17.093-.28.024-.401-.052-.045-.028-.09-.056-.142-.079a36.93 36.93 0 0 1-.834-.378 7.76 7.76 0 0 0-.788-.315 4.926 4.926 0 0 1-.884-.408 2.297 2.297 0 0 0-.475-.212 5.565 5.565 0 0 1-1.311-.593 3.623 3.623 0 0 0-.647-.323 3.011 3.011 0 0 1-.537-.267Zm12.434-15.688c-.039-.063-.072-.118-.068-.203a.031.031 0 0 1 .03-.03c.341-.02.686-.05 1.033-.089.216-.024.39-.057.52-.098.313-.098.669-.315.954-.51.43-.293.728-.637.893-1.033.235-.564.366-1.1.392-1.607.022-.445.027-1.029.016-1.752a6.112 6.112 0 0 0-.09-1.035c-.06-.31-.17-.662-.33-1.056a1.022 1.022 0 0 0-.26-.371c-.164-.152-.325-.31-.48-.472a.803.803 0 0 0-.292-.194 24.11 24.11 0 0 1-.647-.261 6.172 6.172 0 0 0-1.504-.41c-.312-.044-.773-.066-1.384-.066-5.88.005-11.138.006-15.775.005a.196.196 0 0 0-.096.024.057.057 0 0 0-.008.095c.141.11.26.239.38.366.074.08.148.158.227.233.17.16.332.35.489.57.079.11.177.2.276.29l.093.087c.152.146.257.31.363.478.042.065.083.13.128.195a.36.36 0 0 0 .313.161c4.46.009 8.92.007 13.383-.005.296 0 .57.008.823.025.282.02.565.117.848.29.277.171.392.598.397.903.01.619.01 1.219.003 1.8-.005.34-.046.576-.34.727-.123.063-.262.133-.418.21-.322.157-.684.159-1.038.159-4.31 0-8.437.001-12.378.006-.456 0-.92.003-1.39.008a.07.07 0 0 0-.07.07l.002 9.296c0 .085.043.128.129.128l2.935.008a.068.068 0 0 0 .068-.064c.02-.369.03-.723.031-1.062.005-1.873.006-3.729.002-5.568 0-.12-.008-.245-.024-.372a.101.101 0 0 1 .059-.105.102.102 0 0 1 .041-.01h8.168a.19.19 0 0 1 .186.149c.045.19.12.449.248.613.171.218.299.457.425.695.085.16.17.32.267.47.127.197.211.427.293.652.07.192.14.38.232.54l.137.235c.181.307.363.614.48.947.088.25.18.455.275.611.076.127.158.253.24.38.212.328.428.663.573 1.032.089.225.191.456.309.693a.28.28 0 0 0 .27.17 130.3 130.3 0 0 1 3.297 0c.034 0 .047-.016.04-.05-.053-.23-.178-.466-.298-.692-.039-.073-.077-.145-.112-.216a6.896 6.896 0 0 0-.362-.637 4.871 4.871 0 0 1-.418-.838 3.01 3.01 0 0 0-.26-.51c-.21-.331-.391-.676-.542-1.034a.525.525 0 0 0-.126-.184c-.155-.143-.242-.342-.33-.54a2.276 2.276 0 0 0-.204-.394 3.078 3.078 0 0 1-.305-.546 8.938 8.938 0 0 0-.525-.978l-.167-.284-.027-.045Z" fill="#00AB55"/></g><defs><clipPath id="a"><path fill="#fff" transform="translate(.566 .001)" d="M0 0h32.869v38H0z"/></clipPath></defs></svg>