<svg width="92" height="32" fill="none" xmlns="http://www.w3.org/2000/svg"><g clip-path="url(#a)"><path fill-rule="evenodd" clip-rule="evenodd" d="M60.553.001h2.697a.917.917 0 0 0-.002.207c.017.171.01.348.005.523a7.946 7.946 0 0 0-.005.262c.002 4.03.003 8.076.002 12.14 0 .213.026.43.065.637.026.136.038.293.036.473-.002.242.005.48.022.714.004.068.026.134.049.2.026.08.053.161.052.25 0 .021.007.04.024.054a.098.098 0 0 1 .031.053c.031.147.103.212.216.194.026.137.06.213.102.228.197.218.38.321.546.31.491.184.865.113 1.372-.046a.91.91 0 0 0 .536-.414.084.084 0 0 1 .097-.038c.013.003.024.01.033.018.067.058.13.122.186.191.266.32.538.658.817 1.01.098.124.194.24.286.347a3.987 3.987 0 0 1 .283.37.048.048 0 0 1 .003.01l.001.005v.017a.056.056 0 0 1-.024.035c-.03.02-.059.037-.088.055a1.126 1.126 0 0 0-.184.13 3.15 3.15 0 0 1-.49.365.419.419 0 0 1-.147.056.269.269 0 0 0-.12.052.423.423 0 0 1-.112.06l-.28.1c-.1.038-.195.06-.285.07-.1.01-.199.021-.298.033a8.87 8.87 0 0 1-.674.061 6.588 6.588 0 0 1-1.11-.036 6.91 6.91 0 0 0-.71-.054.458.458 0 0 1-.295-.09.423.423 0 0 0-.244-.1.248.248 0 0 1-.105-.033 1.03 1.03 0 0 0-.282-.09l-.016-.003a.064.064 0 0 1-.05-.046l-.042-.127a.076.076 0 0 0-.063-.054l-.176-.033a.055.055 0 0 1-.045-.053v-.069a.056.056 0 0 0-.041-.056.468.468 0 0 0-.142-.022.102.102 0 0 1-.102-.094l-.01-.106c-.001-.028-.015-.045-.042-.052a.215.215 0 0 0-.107-.001.09.09 0 0 1-.112-.088l-.002-.165c0-.034-.017-.05-.05-.046l-.135.013a.071.071 0 0 1-.053-.017.072.072 0 0 1-.025-.05l-.016-.216c-.003-.032-.02-.046-.052-.043l-.078.007a.06.06 0 0 1-.043-.013.058.058 0 0 1-.02-.04.836.836 0 0 0-.167-.448.857.857 0 0 1-.13-.253 5.602 5.602 0 0 1-.286-1.737c-.003-4.84-.004-9.678 0-14.517ZM41.338 18.5l-.631.144-.89.053-1.464.017a12 12 0 0 0-.812-.1 3.412 3.412 0 0 1-.752-.154 8.21 8.21 0 0 1-2.213-.94 1.623 1.623 0 0 1-.223-.164 1.478 1.478 0 0 0-.125-.096c-.114-.082-.225-.162-.26-.315a.077.077 0 0 1 .015-.07c.273-.338.527-.689.763-1.051a.608.608 0 0 1 .078-.09.587.587 0 0 0 .077-.09c.12-.182.234-.364.34-.546a.113.113 0 0 1 .07-.054.112.112 0 0 1 .088.017c.087.059.157.126.226.192.076.073.152.145.25.208.249.16.482.29.7.387.595.266 1.29.464 2.084.594.799.13 1.596.027 2.266-.392.474-.297.587-.816.44-1.345a.659.659 0 0 0-.108-.204.83.83 0 0 1-.093-.156.116.116 0 0 0-.08-.068.283.283 0 0 1-.152-.094.532.532 0 0 0-.137-.113 5.088 5.088 0 0 0-.595-.298c-.358-.15-.743-.289-1.157-.418a29.196 29.196 0 0 1-2.288-.808c-.395-.162-.723-.391-1.068-.632l-.056-.04a.775.775 0 0 1-.121-.111c-.06-.064-.116-.124-.22-.15a.082.082 0 0 1-.054-.047l-.07-.163a.084.084 0 0 0-.048-.046c-.06-.023-.106-.05-.13-.113-.035-.09-.075-.178-.113-.265-.088-.195-.174-.387-.211-.61-.04-.237-.072-.476-.097-.717-.011-.11-.009-.22.008-.329a.714.714 0 0 0 .035-.33c.055-.363.111-.588.168-.676.056-.086.101-.176.146-.266.052-.106.104-.21.173-.303l.056-.076c.085-.116.168-.229.267-.332a4.98 4.98 0 0 1 1.911-1.24c.11-.039.221-.072.336-.1a.935.935 0 0 0 .314-.058c.352-.087.576-.136.672-.148a7.096 7.096 0 0 1 1.678.03c.156.02.438.07.846.154.853.174 1.624.475 2.416.893.059.03.11.068.16.105a.758.758 0 0 0 .258.142.078.078 0 0 1 .051.043.079.079 0 0 1 0 .068c-.02.04-.051.063-.085.088a.353.353 0 0 0-.08.074c-.318.43-.648.849-.992 1.258-.026.031-.056.077-.088.128-.125.195-.296.461-.514.247a2.782 2.782 0 0 0-.87-.574 5.306 5.306 0 0 0-1.887-.433c-.158-.007-.433.032-.825.115-.16.034-.295.08-.401.137-.056.03-.113.056-.169.081-.117.054-.231.106-.334.197-.309.273-.403.627-.282 1.062a.57.57 0 0 0 .161.248c.04.04.081.083.122.127.109.117.222.239.35.306.057.03.11.064.163.097.096.061.19.121.303.156.13.04.256.086.381.132.146.054.292.107.444.15.162.047.313.098.455.153.146.057.296.097.446.138.18.048.36.097.535.175.073.032.15.05.225.067.059.013.118.027.175.047a8.68 8.68 0 0 1 1.655.819c.35.219.635.48.857.782.217.297.362.639.435 1.025.09.48.096.963.02 1.45a3.212 3.212 0 0 1-1.09 1.967 5.203 5.203 0 0 1-1.834 1.052ZM56.549 8.228c.005.07.028.123.07.16a.106.106 0 0 1 .034.056c.02.08.044.101.072.062l.07.36a.134.134 0 0 0 .03.06c.058.076.095.165.107.269.008.067.03.127.067.18.01.014.016.03.017.047.038.43.057.727.055.892-.017 2.656-.017 5.31.001 7.964a.27.27 0 0 1-.043.154.064.064 0 0 1-.058.027l-.151-.008-.137-.008c-.616-.034-1.234-.069-1.852-.016a.193.193 0 0 0-.075.022.274.274 0 0 1-.117.034c-.026.001-.039-.01-.04-.036l-.049-1.217a.12.12 0 0 0-.092-.112.12.12 0 0 0-.051 0 .324.324 0 0 0-.21.133c-.479.35-.85.6-1.115.75-.288.16-.7.348-1.236.56a1.13 1.13 0 0 0-.422.085 8.838 8.838 0 0 1-1.521.108 5.827 5.827 0 0 1-.886-.11 2.155 2.155 0 0 1-.44-.14 7.424 7.424 0 0 0-.434-.168c-.109-.038-.162-.092-.239-.169l-.005-.004c-.04-.04-.082-.063-.123-.086-.053-.028-.105-.056-.151-.118-.04-.054-.088-.093-.136-.131-.058-.046-.115-.092-.156-.166a.366.366 0 0 0-.155-.136l-.02-.013a.155.155 0 0 1-.068-.08.394.394 0 0 0-.164-.199.157.157 0 0 1-.066-.08c-.044-.116-.104-.22-.163-.325a1.832 1.832 0 0 1-.197-.426 7.68 7.68 0 0 0-.066-.222c-.064-.21-.128-.42-.14-.638a338.28 338.28 0 0 0-.027-.45c-.05-.811.167-1.717.711-2.364.314-.373.682-.69 1.102-.949.101-.062.225-.12.372-.173.14-.052.267-.103.381-.155a1.26 1.26 0 0 1 .434-.08c.15.018.296.001.439-.05l.215-.023 1.793.024c.355.031.715.05 1.079.057.219.004.41.023.572.058.19.04.374.073.552.097.042.006.082.02.12.042a.283.283 0 0 0 .214.022.056.056 0 0 0 .044-.046c.017-.083.026-.169.028-.255a7.982 7.982 0 0 0-.055-1.175c-.018-.147-.064-.284-.11-.42-.048-.14-.095-.281-.111-.432-.005-.042-.028-.059-.07-.05-.113.025-.164-.025-.154-.148.006-.081-.03-.128-.11-.141a.348.348 0 0 1-.119-.041.094.094 0 0 1-.043-.05c-.024-.064-.057-.128-.127-.151a1.27 1.27 0 0 1-.306-.15 1.134 1.134 0 0 0-.275-.134 4.01 4.01 0 0 0-1.735-.185c-.136.015-.266.04-.39.077-.073.02-.147.039-.22.057-.2.049-.398.098-.572.205-.059.036-.116.068-.173.1-.113.063-.223.124-.334.213-.173.138-.342.276-.506.414-.1.046-.153.107-.16.182l-.13.217a.085.085 0 0 1-.074.04.084.084 0 0 1-.072-.043l-.089-.162a.086.086 0 0 0-.046-.04l-.13-.05a.088.088 0 0 1-.053-.053.232.232 0 0 0-.197-.163.115.115 0 0 1-.082-.056.283.283 0 0 1-.038-.127.06.06 0 0 0-.053-.056.25.25 0 0 1-.22-.192.102.102 0 0 0-.076-.07.28.28 0 0 1-.18-.116.635.635 0 0 0-.117-.127 3.195 3.195 0 0 1-.326-.312.144.144 0 0 0-.067-.043l-.12-.034a.115.115 0 0 1-.054-.187c.15-.172.313-.346.487-.521.165-.166.33-.31.498-.432a5.642 5.642 0 0 1 1.725-.855c.251-.076.51-.125.774-.146.118 0 .23-.024.337-.075a7.647 7.647 0 0 1 2.172-.05c.15.018.43.072.837.163.159.035.303.076.434.124l.072.026c.168.06.336.121.49.207.124.07.25.134.38.195.082.04.157.089.23.138.091.06.181.12.287.161.026.01.045.028.057.052l.044.086a.106.106 0 0 0 .066.054c.105.03.181.088.228.174a.12.12 0 0 0 .066.057c.11.039.177.116.204.232a.092.092 0 0 0 .05.062.524.524 0 0 1 .2.206c.027.04.053.082.086.119.044.05.08.107.107.17.027.066.057.128.09.186Zm-6.975 7.58c.176.177.38.3.613.369.27.08.544.134.825.104.53-.06.999-.181 1.404-.367a8.39 8.39 0 0 0 1.764-1.081.285.285 0 0 0 .105-.192c.041-.304.04-.606-.001-.906a.095.095 0 0 0-.08-.08c-.66-.09-1.332-.186-2.019-.286-.715-.105-1.596-.098-2.255.206-.436.2-.684.552-.744 1.053-.057.473.073.867.388 1.18Zm24.717 2.9a13.142 13.142 0 0 0-1.638.017 2.523 2.523 0 0 0-.64-.088 2.3 2.3 0 0 1-.787-.128l-.449-.16a8.328 8.328 0 0 1-1.382-.558 5.156 5.156 0 0 1-.945-.608c-.152-.126-.172-.356-.006-.485.085-.068.138-.15.19-.233a.99.99 0 0 1 .16-.207c.056-.05.088-.11.12-.17.028-.052.056-.104.1-.152.047-.05.081-.107.115-.162a.782.782 0 0 1 .159-.203.604.604 0 0 0 .182-.274c.088-.261.385-.276.518-.04.057.101.204.195.328.275.043.027.082.052.115.075a.704.704 0 0 0 .183.086.618.618 0 0 1 .182.088c.087.067.187.12.301.157.186.06.382.126.59.195.704.236 1.357.356 1.959.359.647.003 1.319-.168 1.785-.59.328-.297.43-.773.27-1.177-.014-.034-.024-.065-.034-.095a.561.561 0 0 0-.14-.25 2.18 2.18 0 0 0-.32-.263c-.28-.184-.679-.369-1.2-.555-.505-.18-1.07-.366-1.694-.558a8.67 8.67 0 0 1-1.552-.635c-.16-.086-.468-.28-.921-.582a.17.17 0 0 1-.059-.067.268.268 0 0 0-.215-.16.074.074 0 0 1-.065-.055.985.985 0 0 0-.176-.33c-.101-.124-.153-.272-.205-.42-.023-.065-.045-.13-.072-.193-.18-.42-.172-1.063-.118-1.484.068-.521.264-.998.587-1.43l.002-.002a3.45 3.45 0 0 1 .46-.532c.377-.332.81-.613 1.295-.843.348-.165.667-.274.956-.326l.23-.044c.315-.06.627-.12.95-.133.475-.018.91.004 1.305.066.254.04.524.087.809.142.795.154 1.534.451 2.276.813.075.037.142.083.21.13.09.06.179.121.283.16a.12.12 0 0 1 .053.186l-1.46 1.857a.068.068 0 0 1-.086.017.068.068 0 0 1-.023-.022c-.07-.108-.153-.158-.243-.21-.049-.03-.1-.06-.151-.102a1.385 1.385 0 0 0-.229-.152 6.107 6.107 0 0 0-.939-.402c-.303-.102-.622-.15-.94-.197a20.289 20.289 0 0 1-.256-.039 1.283 1.283 0 0 0-.47.013c-.26.053-.488.103-.684.152-.203.05-.576.223-.734.413a.887.887 0 0 1-.147.141c-.155.12-.155.382-.154.575.003.274.101.497.294.667.029.025.057.052.086.08.106.099.217.203.348.257.062.026.111.063.16.1.05.037.098.074.158.097a19.404 19.404 0 0 0 1.715.574c.166.045.337.099.513.162.103.036.207.067.31.099.152.045.303.09.45.152.67.276 1.26.6 1.775.972a.547.547 0 0 1 .173.196.12.12 0 0 0 .065.058.313.313 0 0 1 .197.202c.008.023.02.043.038.06.215.205.382.646.44.905.153.67.149 1.31-.013 1.917-.19.711-.586 1.237-1.131 1.729-.118.106-.24.203-.367.292a5.217 5.217 0 0 1-1.511.73c-.165.048-.37.08-.616.095-.209.013-.416.031-.623.054ZM90.994 8.421c.033.18.082.356.144.53.07.194.114.361.133.502.084.622.112 1.122.086 1.5-.033.473-.05.903-.052 1.287l-.026 5.513c0 .048.004.094.009.14v.001c.004.04.008.08.009.12 0 .023.006.046.016.067.06.123.032.233-.083.328-.224-.002-.45-.008-.674-.017a8.181 8.181 0 0 0-1.512.092.07.07 0 0 1-.032-.003l-.005-.002a.078.078 0 0 1-.022-.014.072.072 0 0 1-.023-.058c.001-.017-.018-.037-.06-.058l-.06-.915a.446.446 0 0 0-.012-.232c-.017-.046-.057-.057-.12-.03a1.113 1.113 0 0 0-.175.102 10.21 10.21 0 0 1-1.747 1.029 5.398 5.398 0 0 1-.54.217 2.922 2.922 0 0 1-.532.126 9.456 9.456 0 0 1-1.637.094 1.494 1.494 0 0 1-.277-.035 2.722 2.722 0 0 0-.655-.062.118.118 0 0 1-.08-.027.168.168 0 0 0-.073-.036.725.725 0 0 1-.331-.178.143.143 0 0 0-.09-.038.283.283 0 0 1-.185-.085 1.165 1.165 0 0 0-.277-.186c-.04-.021-.08-.043-.12-.067a.11.11 0 0 1-.047-.056.303.303 0 0 0-.24-.198.072.072 0 0 1-.057-.046l-.087-.209a.083.083 0 0 0-.055-.05l-.078-.023a.098.098 0 0 1-.055-.041 1.132 1.132 0 0 1-.11-.214c-.027-.075-.072-.115-.126-.163l-.008-.007-.004-.004-.007-.006a.155.155 0 0 1-.046-.075.632.632 0 0 0-.119-.236.631.631 0 0 1-.107-.214 5.195 5.195 0 0 1-.21-.996 8.198 8.198 0 0 1-.012-.934c.01-.317.064-.605.159-.864.29-.79.776-1.322 1.448-1.784.146-.1.315-.192.506-.275a6.69 6.69 0 0 1 .509-.197c.13-.043.28-.066.449-.069.094-.001.193-.012.297-.032a2.04 2.04 0 0 1 .297-.036c.148-.003.295 0 .44.009.508.032 1.023.034 1.545.008.265.047.54.071.823.071.194 0 .357.01.49.03.168.026.331.052.488.079.041.006.115.03.222.07.08.03.158.04.235.029a.136.136 0 0 0 .118-.137c-.002-.109-.002-.217-.002-.325 0-.453 0-.903-.108-1.36a.323.323 0 0 0-.074-.144.131.131 0 0 1-.03-.057l-.099-.372a.545.545 0 0 0-.28-.264l-.02-.019a.637.637 0 0 0-.28-.267c-.112-.004-.19-.06-.266-.116a.573.573 0 0 0-.185-.103c-.128-.034-.26-.071-.394-.11-.492-.14-1.033-.147-1.553-.082a1.867 1.867 0 0 0-.367.083 2.428 2.428 0 0 1-.222.058 1.478 1.478 0 0 0-.355.114 7.34 7.34 0 0 0-.846.512c-.047.032-.075.067-.104.102a.56.56 0 0 1-.088.091l-.014.01-.012.01-.006.005c-.05.04-.099.076-.134.133a.633.633 0 0 1-.344.263.07.07 0 0 1-.063-.007 1.489 1.489 0 0 1-.314-.259 1.552 1.552 0 0 0-.204-.186.637.637 0 0 1-.168-.184.123.123 0 0 0-.081-.059c-.106-.023-.172-.082-.2-.177a.096.096 0 0 0-.065-.066.338.338 0 0 1-.22-.203.108.108 0 0 0-.05-.055l-.126-.066a.191.191 0 0 1-.055-.044.907.907 0 0 0-.318-.24.568.568 0 0 0 0-.195.391.391 0 0 1 .1-.2c.176-.171.377-.351.605-.54a4.6 4.6 0 0 1 .66-.465 7.048 7.048 0 0 1 1.372-.6c.093-.029.189-.054.285-.074.194 0 .382-.034.563-.099a7.45 7.45 0 0 1 1.996-.118c.487.037 1.026.152 1.533.278.13.032.296.092.5.18.263.112.502.258.743.405l.193.118c.084.05.157.101.218.155.042.037.086.07.129.104.088.068.175.136.248.23.032.041.071.073.11.105.04.033.079.065.11.108.091.122.185.24.283.354.04.046.066.098.091.149a.666.666 0 0 0 .084.137c.09.106.145.211.168.317Zm-6.688 5.138c-.472.21-.75.575-.793 1.104-.034.426.087.808.363 1.147.06.073.133.104.206.136a.557.557 0 0 1 .18.107c.068.065.152.11.251.136.292.076.543.106.753.09a4.905 4.905 0 0 0 2.093-.663c.334-.191.718-.443 1.153-.756.098-.07.136-.177.138-.293.002-.28.001-.562-.004-.848a.049.049 0 0 0-.041-.047c-.657-.095-1.319-.192-1.984-.292a5.877 5.877 0 0 0-1.387-.045c-.36.034-.669.109-.928.224ZM72.15 21.6c.009.2.01.4.005.601-.024.846-.019 1.696-.014 2.545l.004.915c0 .448.018.895.052 1.341.008.105.01.21.012.314.004.228.009.454.073.674a.66.66 0 0 1 .02.148c.004.078.009.156.057.22a.635.635 0 0 0 .593.26.548.548 0 0 0 .252-.11 1.69 1.69 0 0 1 .076-.047.185.185 0 0 1 .104-.026.644.644 0 0 1 .2.054h.001l.001.001.001.002.001.001.38.434c.047.035.06.09.04.167a.098.098 0 0 1-.04.056 1.277 1.277 0 0 1-.37.197c-.492.138-.998.12-1.516-.055-.046-.016-.083-.04-.12-.066-.031-.02-.062-.041-.096-.056a.478.478 0 0 1-.274-.239.477.477 0 0 0-.127-.163.12.12 0 0 1-.038-.057l-.05-.162a.774.774 0 0 1-.031-.15 15.716 15.716 0 0 1-.064-1.986c.046-1.462.039-2.93.032-4.402v-.002l-.001-.232v-.126c-.001-.035.017-.053.052-.053l.785.003Zm-31.28 7.565-.724.003c-.053 0-.08-.025-.08-.078v-6.623c0-.023-.01-.034-.033-.034l-.24-.004-1.905-.002.023-.658a.182.182 0 0 0-.01-.066l-.029-.087 5.11-.001c.027 0 .04.013.04.04l.002.726a.048.048 0 0 1-.048.049h-2.062c-.03 0-.044.014-.044.043v6.692Zm12.378-7.545.574-.001a9.734 9.734 0 0 0 .05 1.762c.019.147.028.28.03.396l-.003.166a2.04 2.04 0 0 0 .02.427c.01.054.018.108.024.161a.135.135 0 0 0 .178.114l.14-.048a.156.156 0 0 0 .064-.04l.333-.35c.32-.126.648-.196.984-.21a1.98 1.98 0 0 1 1.152.308.14.14 0 0 0 .079.02.255.255 0 0 1 .102.017.07.07 0 0 1 .043.045l.053.165a.58.58 0 0 0 .156.15c.02.013.034.03.044.051a.516.516 0 0 0 .163.214.5.5 0 0 1 .114.144.636.636 0 0 0 .082.194c-.006.089 0 .179.02.27.022.111.034.2.033.263l-.001.212c0 .064-.008.134-.023.209-.04.21-.063.423-.066.638-.01.753-.01 1.518-.002 2.295l-.817-.027-.006-2.338V26.77c-.002-.518-.002-.936-.252-1.38a.088.088 0 0 0-.05-.041.306.306 0 0 1-.19-.173.141.141 0 0 0-.05-.06 1.431 1.431 0 0 0-.92-.245.831.831 0 0 0-.333.096c-.05.027-.1.048-.151.068a.857.857 0 0 0-.232.12 1.67 1.67 0 0 0-.35.358 1.402 1.402 0 0 0-.157.41 1.36 1.36 0 0 0-.121.5.064.064 0 0 1-.034.055c-.022.012-.034.029-.037.049-.03.233-.049.458-.058.676a35 35 0 0 0-.024 1.946c0 .012-.005.018-.017.019h-.495c-.014 0-.021-.006-.022-.02-.006-.63-.014-1.257-.024-1.88a3.906 3.906 0 0 0-.038-.49c-.016-.119-.016-.235-.016-.352 0-.08 0-.159-.005-.239a3.194 3.194 0 0 1-.004-.385c.006-.108.006-.228.002-.357a40.484 40.484 0 0 1-.028-1.734c0-.091.024-.172.047-.252.02-.071.041-.142.046-.22.028-.54.026-1.08-.007-1.62Zm-6.965 2.767c.032.091.09.146.171.164a.683.683 0 0 1 .198.156c.272.412.44.73.502.955.122.434.168.88.138 1.336-.003.044-.026.066-.07.067a7.197 7.197 0 0 1-.44-.003 54.093 54.093 0 0 0-3.293-.018.116.116 0 0 0-.115.081.173.173 0 0 0 .007.145c.035.069.047.139.059.21a.88.88 0 0 0 .042.174 14 14 0 0 0 .083.21.476.476 0 0 0 .12.17c.07.065.136.128.199.191.059.061.138.114.236.16.305.14.633.2.984.18.143-.008.276-.043.4-.104.17-.084.299-.167.388-.25a3.29 3.29 0 0 0 .351-.389.17.17 0 0 1 .17-.071c.092.014.172.054.239.12.095.095.199.178.31.25a.125.125 0 0 1 .056.13.127.127 0 0 1-.02.046 4.55 4.55 0 0 1-.402.508c-.052.056-.111.09-.174.124l-.054.031a.101.101 0 0 0-.044.05.286.286 0 0 1-.143.137c-.46.234-.955.327-1.488.28a5.472 5.472 0 0 1-.563-.076l-.637-.235a.437.437 0 0 1-.212-.192.094.094 0 0 0-.053-.041.265.265 0 0 1-.143-.099 2.19 2.19 0 0 0-.163-.19 1.2 1.2 0 0 1-.147-.19 1.735 1.735 0 0 1-.244-.523 9.709 9.709 0 0 1-.146-.88c-.02-.165-.019-.323.003-.474.021-.143.04-.286.055-.427.018-.164.04-.326.067-.488.001-.01.005-.011.011-.005l.004.005c.003.004.005.003.006-.002.041-.28.417-.83.67-1.022l.23-.172c.363-.276.795-.356 1.258-.416.16-.021.33-.016.512.015.408.07.692.163 1.082.372ZM43.6 25.548a.27.27 0 0 0-.096.117 4.153 4.153 0 0 1-.026.055l-.017.035-.014.029c-.04.08-.079.16-.11.25-.04.114-.025.301.12.322.757.105 1.486.133 2.186.083.089-.006.176-.018.263-.03.094-.014.189-.027.286-.032a.685.685 0 0 0 .203-.043.069.069 0 0 0 .044-.05c.022-.081.005-.148-.051-.201a.083.083 0 0 1-.027-.057c-.003-.045-.019-.05-.048-.017l-.037-.128-.03-.104a.59.59 0 0 0-.107-.206 5.44 5.44 0 0 1-.214-.286.868.868 0 0 0-.346-.28c-.544-.262-1.062-.223-1.553.114a1.997 1.997 0 0 0-.426.429Zm7.999-.425c-.08-.029-.16-.065-.239-.102a1.706 1.706 0 0 0-.386-.143c-.278-.053-.507-.053-.685-.001-.422.123-.77.339-.973.732-.364.707-.391 1.397-.08 2.07.085.186.2.359.343.517.3.33.961.474 1.315.402.177-.037.416-.14.718-.31a.075.075 0 0 0 .034-.037l.054-.134a.08.08 0 0 1 .056-.05.223.223 0 0 1 .1-.004c.025.004.038.018.041.043.033.33.03.648-.01.958a.067.067 0 0 1-.046.06c-.067.024-.128.054-.19.084-.081.04-.163.08-.259.107a3 3 0 0 1-2.226-.227.597.597 0 0 1-.222-.203.142.142 0 0 0-.061-.05.354.354 0 0 1-.2-.22.115.115 0 0 0-.052-.061.443.443 0 0 1-.176-.181 2.826 2.826 0 0 1-.36-1.253 7.843 7.843 0 0 1 .012-1.058c.026-.315.156-.655.39-1.02a2.064 2.064 0 0 1 1.175-.902c.306-.091.588-.14.845-.146.195-.004.456.038.784.126.1.027.192.066.284.104.097.04.193.081.299.107.024.006.035.021.035.046l-.005.921c0 .037-.018.062-.053.074-.077.026-.172-.018-.188-.105a.618.618 0 0 0-.027-.099.072.072 0 0 0-.047-.045Zm8.966.183c-.14.06-.23.131-.273.214a.731.731 0 0 1-.096.144.714.714 0 0 0-.098.142.394.394 0 0 0-.05.173 60.538 60.538 0 0 0-.025 3.187l-.821-.012.008-4.992c0-.055.027-.08.082-.078l.68.026a.133.133 0 0 1 .128.138.539.539 0 0 0 .029.197.073.073 0 0 0 .052.048c.092.025.171.01.237-.045.206-.169.428-.28.668-.333.16-.034.328-.068.502-.1.484-.09 1.01.08 1.43.324.055.032.103.07.145.116.042.045.086.08.13.117.066.054.13.107.183.186.036.056.075.108.118.155a.444.444 0 0 1 .096.165c.011.036.024.073.038.109a.53.53 0 0 1 .03.11l.014.09v.001c.027.176.054.347.053.525a405.82 405.82 0 0 1-.022 3.366.116.116 0 0 1-.113.115l-.665.02a.06.06 0 0 1-.042-.017l-.002-.002-.002-.002a.058.058 0 0 1-.01-.015.06.06 0 0 1-.004-.023c.005-.974-.005-1.94-.03-2.901a2.328 2.328 0 0 0-.037-.365 1.654 1.654 0 0 0-.124-.4.805.805 0 0 1-.076-.246.081.081 0 0 0-.035-.06.229.229 0 0 0-.114-.041.07.07 0 0 1-.062-.043c-.073-.159-.212-.264-.416-.318a8.971 8.971 0 0 0-.412-.097c-.168-.035-.367.003-.597.114a.3.3 0 0 1-.066.023.497.497 0 0 0-.135.05c-.148.08-.247.159-.296.235Zm4.51 2.177a6.662 6.662 0 0 1-.08-1.174 2.89 2.89 0 0 1 .658-1.534.973.973 0 0 1 .222-.203c.051-.033.095-.07.139-.107.055-.048.11-.095.183-.133.375-.193.78-.308 1.215-.343.197-.016.382.018.57.053l.174.03c.228.037.426.126.628.216l.051.023.035.016a.669.669 0 0 1 .203.155c.043.043.086.086.14.122.075.05.137.109.186.178.034.047.073.089.111.13.045.048.09.097.13.156.54.813.575 1.68.339 2.605-.103.402-.483.995-.824 1.235-.105.073-.209.143-.312.21-.522.336-1.263.364-1.888.26-.231-.04-.442-.137-.654-.236a7.501 7.501 0 0 0-.222-.1.178.178 0 0 1-.076-.062.376.376 0 0 0-.213-.15.103.103 0 0 1-.072-.07.32.32 0 0 0-.158-.198.187.187 0 0 1-.075-.07 27.744 27.744 0 0 0-.228-.375c-.084-.135-.145-.346-.181-.634Zm2.423 1.088c.211.004.422-.04.619-.13.197-.089.377-.222.53-.392.153-.17.276-.372.361-.596a2.103 2.103 0 0 0 .027-1.42 1.9 1.9 0 0 0-.337-.61 1.617 1.617 0 0 0-.515-.412 1.427 1.427 0 0 0-1.233-.024c-.198.09-.378.223-.53.393-.154.169-.276.371-.362.595a2.106 2.106 0 0 0-.027 1.421c.077.227.192.434.338.61.146.175.321.315.515.412.194.097.402.149.614.153Zm6.798-2.362.034-.182a.193.193 0 0 1 .024-.064.364.364 0 0 0 .04-.234c.086-.26.21-.503.373-.731.17-.236.366-.427.59-.573.655-.427 1.391-.538 2.209-.333.259.065.47.16.636.286.117.088.236.166.358.235a.11.11 0 0 1 .043.044.482.482 0 0 0 .123.143.491.491 0 0 1 .115.13c.041.074.086.146.13.217.1.159.199.316.257.498.271.832.236 1.632-.104 2.4-.102.23-.271.461-.508.696-.326.322-.673.524-1.04.607-.698.157-1.347.097-1.947-.181a1.625 1.625 0 0 1-.388-.253 5.003 5.003 0 0 1-.34-.326 2.296 2.296 0 0 1-.545-1c-.102-.38-.122-.84-.06-1.379Zm2.499 2.366c.425.007.836-.182 1.143-.525.306-.344.483-.814.492-1.307a2.02 2.02 0 0 0-.447-1.323c-.294-.354-.698-.557-1.123-.565-.425-.007-.836.182-1.143.525a2.022 2.022 0 0 0-.492 1.307c-.009.493.152.97.446 1.323.295.354.699.557 1.124.565Zm7.144-4.15c.065.298.232.426.5.384.03-.004.045-.02.047-.05.011-.135.002-.29-.028-.463a.076.076 0 0 1 .019-.064l.003-.003a.087.087 0 0 1 .02-.014.076.076 0 0 1 .031-.006l.53-.002c.027 0 .044.014.051.04.042.173.018.341-.005.512a2.437 2.437 0 0 0-.03.299c-.007.465-.008.92-.003 1.368.003.268.027.723.074 1.364.05.675.063 1.358.038 2.05-.005.094-.031.221-.08.381-.176.585-.499 1.03-.97 1.334-.296.192-.65.306-1.06.34a3.82 3.82 0 0 1-1.134-.076l-.408-.173c-.15-.037-.27-.079-.357-.124a.123.123 0 0 1-.072-.11c-.019-.356-.023-.69-.014-1a.04.04 0 0 1 .015-.03.039.039 0 0 1 .031-.008.04.04 0 0 1 .02.01c.074.07.156.12.244.155.054.02.091.057.129.093.03.03.061.06.102.083.52.288 1.24.486 1.773.192.737-.404.892-1.154.885-1.933a.449.449 0 0 0-.02-.127.074.074 0 0 0-.055-.05.076.076 0 0 0-.07.02l-.009.01c-.186.197-.339.359-.61.446-.712.23-1.473.219-2.149-.144a1.211 1.211 0 0 1-.313-.24c-.05-.052-.102-.101-.155-.15-.116-.107-.232-.214-.31-.356-.234-.425-.367-.834-.399-1.229-.074-.915.05-1.768.674-2.462.218-.243.477-.417.778-.522.404-.143.764-.2 1.08-.17.263.023.575.104.936.242.056.021.146.082.271.183Zm.298 1.578c.002-.15-.09-.31-.275-.482a1.683 1.683 0 0 0-.858-.605c-.363-.108-.724-.06-1.082.146-.453.26-.728.66-.825 1.201a2.977 2.977 0 0 0-.022.719c.027.386.154.713.381.98.115.137.26.304.414.393.73.417 1.442.184 1.966-.414a1.21 1.21 0 0 0 .286-.55c.086-.403.091-.866.015-1.388Zm3.537-1.707.001 2.18c0 .641.021 1.033.064 1.176.123.416.43.709.922.876a.9.9 0 0 0 .517.026c.712-.176 1.187-.637 1.189-1.393.002-.963.003-1.92.002-2.872l.748.023a.06.06 0 0 1 .057.06c-.005 1.138-.004 2.159.005 3.062.002.184.017.37.044.557.046.305.063.61.05.917-.009.232-.015.48-.02.746-.003.244-.016.492-.037.743-.272.79-.844 1.374-1.696 1.507l-.512.064c-.439.039-.802-.032-1.27-.122l-.078-.015a.805.805 0 0 1-.308-.12 1.074 1.074 0 0 0-.376-.166.087.087 0 0 1-.067-.084l-.003-.936a.057.057 0 0 1 .014-.038l.002-.002a.056.056 0 0 1 .025-.014l.005-.001.01-.001a.501.501 0 0 1 .372.171.666.666 0 0 0 .211.147c.419.194.843.3 1.271.321.137.007.29-.013.46-.058.585-.156.93-.533 1.038-1.13.053-.292.075-.605.069-.939a.278.278 0 0 0-.036-.126.092.092 0 0 0-.002-.063c-.01-.025-.03-.033-.056-.024-.036.013-.064.042-.083.087-.122.175-.232.284-.328.327a2.637 2.637 0 0 1-1.906.125c-.08-.024-.153-.06-.225-.096a1.695 1.695 0 0 0-.193-.085.33.33 0 0 1-.154-.122.364.364 0 0 0-.108-.1.357.357 0 0 1-.184-.246.067.067 0 0 0-.041-.048c-.082-.033-.132-.083-.15-.15a1.503 1.503 0 0 0-.112-.312c.017-.071.008-.179-.028-.324-.03-.116.002-.246.033-.376.021-.091.043-.182.044-.268.017-.953.016-1.895.014-2.817 0-.034.016-.052.051-.053l.755-.014ZM30 17.166c0 8.115-6.578 14.694-14.693 14.694C7.192 31.86.614 25.28.614 17.166c0-8.114 6.578-14.693 14.693-14.693C23.422 2.473 30 9.052 30 17.167Zm-1.13 0c0 7.491-6.073 13.564-13.563 13.564S1.744 24.657 1.744 17.166c0-7.49 6.072-13.562 13.563-13.562 7.49 0 13.563 6.072 13.563 13.563ZM15.307 29.883c7.022 0 12.715-5.693 12.715-12.716 0-7.022-5.693-12.715-12.715-12.715-7.023 0-12.715 5.693-12.715 12.715 0 7.023 5.692 12.716 12.715 12.716Zm5.496-21.444c-.175-.199-.425-.39-.753-.573l-.288-.103a.124.124 0 0 0-.16.08 1.06 1.06 0 0 1-.408.57c-.685.524-1.508.81-2.31 1.086-.626.215-1.247.421-1.861.62-.685.22-1.496.542-2.434.964a9.659 9.659 0 0 0-2.128 1.298 3.358 3.358 0 0 0-.924 1.145c-.309.636-.33 1.295-.065 1.976.105.27.179.436.221.5.304.454.664.857 1.08 1.21.124.104.262.176.404.25l.122.064c.194.113.543.268 1.047.464.63.245 1.975.812 4.035 1.701.122.053.243.096.363.13.118.034.117.064-.003.09a4.601 4.601 0 0 0-.55.165 6.945 6.945 0 0 1-.325.108c-.407.12-.811.245-1.214.376-.642.219-1.273.463-1.894.734a9.762 9.762 0 0 0-1.893 1.093c-.606.446-1.286 1.077-1.465 1.82a2.079 2.079 0 0 0 .193 1.516c.059.109.137.19.218.272l.072.076c.213.23.556.412.84.563l.002.001.047.025a.073.073 0 0 0 .104-.037c.099-.248.257-.463.475-.643.332-.275.797-.517 1.396-.724l1.833-.6a31.36 31.36 0 0 0 2.984-1.04c.738-.28 1.4-.615 1.987-1.004a6.082 6.082 0 0 0 1.167-1.032c.207-.232.356-.458.448-.678.287-.685.224-1.533-.092-2.187a4.505 4.505 0 0 0-.806-1.126 2.567 2.567 0 0 0-.495-.409 4.855 4.855 0 0 0-.565-.314c-.36-.157-.698-.308-1.013-.45a31.376 31.376 0 0 0-1.019-.446c-1.45-.597-2.39-.977-2.816-1.14a2.074 2.074 0 0 1-.386-.175c.119-.109.24-.183.36-.222.575-.187 1.15-.375 1.724-.566.12-.04.28-.101.483-.186.158-.066.32-.126.485-.18.762-.335 1.31-.599 1.645-.793a9.205 9.205 0 0 0 1.443-1.026c.366-.32.642-.649.827-.989.313-.572.404-1.36.065-1.945a2.168 2.168 0 0 0-.203-.309Z" fill="#00AB55"/></g><defs><clipPath id="a"><path fill="#fff" transform="translate(.614 .001)" d="M0 0h90.773v32H0z"/></clipPath></defs></svg>