<svg width="78" height="32" viewBox="0 0 78 32" fill="none" xmlns="http://www.w3.org/2000/svg">
<g clip-path="url(#clip0_4052_8231)">
<path fill-rule="evenodd" clip-rule="evenodd" d="M38.9134 0.000976562H30.1463C30.1453 0.356071 30.2086 0.672095 30.3361 0.949048C30.6681 1.66961 31.2133 2.12532 31.9719 2.31618C32.1884 2.37046 32.4582 2.39605 32.7815 2.39294C33.6086 2.38499 34.4873 2.38412 35.4178 2.39034C35.4202 2.39036 35.4226 2.39096 35.4247 2.39209C35.4268 2.39322 35.4286 2.39484 35.43 2.39682C35.4314 2.39881 35.4323 2.40109 35.4326 2.40348C35.4329 2.40588 35.4326 2.40831 35.4318 2.41057L34.2441 5.50166C34.2432 5.50402 34.2428 5.50658 34.2431 5.5091C34.2434 5.51162 34.2443 5.51404 34.2457 5.51614C34.2471 5.51823 34.2491 5.51995 34.2513 5.52113C34.2536 5.52231 34.2561 5.52293 34.2586 5.52292H36.7673C36.7842 5.52292 36.7956 5.51514 36.8015 5.49958L38.9134 0.000976562ZM35.2648 8.99937C38.5929 9.00663 40.5253 12.7605 38.5389 15.4559C36.9457 17.6176 33.6954 17.6461 32.07 15.5057C31.3957 14.6178 31.1316 13.6012 31.2775 12.4561C31.2802 12.4347 31.2709 12.4239 31.2495 12.4239H28.9223C28.8943 12.4239 28.8791 12.4379 28.8767 12.4659C28.7733 13.7819 29.0269 15.0026 29.6375 16.1281C30.9201 18.491 33.5533 19.7943 36.1843 19.4209C38.8008 19.0495 40.892 17.1643 41.5398 14.5981C42.4868 10.8483 39.8905 7.12345 36.0624 6.65875C35.5513 6.59686 35.0016 6.60198 34.4564 6.60705C34.2432 6.60903 34.0306 6.61101 33.8214 6.60896C33.8151 6.60895 33.809 6.61082 33.8038 6.61433C33.7986 6.61785 33.7946 6.62285 33.7924 6.62867L32.8904 8.97447C32.8894 8.97715 32.8891 8.98003 32.8894 8.98287C32.8898 8.98571 32.8908 8.98842 32.8925 8.99077C32.8932 8.99183 32.8941 8.99281 32.895 8.99368C32.8961 8.99473 32.8974 8.99563 32.8988 8.99635C32.8999 8.99693 32.9011 8.99739 32.9023 8.99772C32.9039 8.99813 32.9054 8.99834 32.907 8.99833C33.7203 8.99695 34.5062 8.99729 35.2648 8.99937ZM38.8766 32.001H38.611C37.3217 31.9256 36.2939 31.3974 35.5277 30.4165C34.4941 29.093 34.4158 27.2165 35.3244 25.7825C36.6692 23.6597 39.5746 23.2775 41.4532 24.9454C41.4543 24.9464 41.4552 24.9477 41.4558 24.949L41.4565 24.9511L41.4567 24.9534C41.4567 24.955 41.4564 24.9564 41.4558 24.9578C41.4552 24.9592 41.4543 24.9605 41.4532 24.9615L41.1358 25.2514C41.1295 25.2569 41.1231 25.2569 41.1166 25.2514C40.1446 24.3723 38.7573 24.1394 37.5566 24.5538C36.7794 24.8218 36.1667 25.3005 35.7186 25.9899C34.3442 28.1039 35.5028 30.9175 37.9726 31.4694C39.0965 31.7209 40.2432 31.404 41.1192 30.6556C41.1217 30.6534 41.125 30.6522 41.1284 30.6522C41.1302 30.6522 41.1321 30.6526 41.1338 30.6533C41.1351 30.6539 41.1363 30.6547 41.1373 30.6556L41.4516 30.9362C41.4592 30.9431 41.4592 30.95 41.4516 30.9569C40.7203 31.5994 39.862 31.9474 38.8766 32.001ZM26.6958 27.4131V25.0284C26.6958 25.0239 26.6976 25.0195 26.7008 25.0163C26.704 25.0131 26.7084 25.0113 26.7129 25.0113H29.9202C29.9247 25.0113 29.9291 25.0095 29.9323 25.0063C29.9355 25.0031 29.9373 24.9987 29.9373 24.9942V24.003C29.9373 23.9999 29.9364 23.9968 29.9348 23.9941L29.9337 23.9925L29.9323 23.9909C29.9308 23.9894 29.929 23.9882 29.927 23.9873C29.9257 23.9868 29.9244 23.9864 29.9231 23.9862L29.9202 23.9859H25.6871C25.6825 23.9859 25.6782 23.9877 25.675 23.9909C25.6735 23.9924 25.6723 23.9942 25.6715 23.996C25.6705 23.9982 25.67 24.0006 25.67 24.003V31.8864C25.67 31.8886 25.6704 31.8908 25.6713 31.8929C25.6721 31.895 25.6734 31.8969 25.675 31.8985C25.6761 31.8996 25.6774 31.9006 25.6789 31.9014L25.6805 31.9022C25.6818 31.9027 25.6831 31.9031 25.6844 31.9033L25.6871 31.9035L29.9202 31.904L29.9233 31.9037C29.9245 31.9035 29.9256 31.9031 29.9267 31.9027L29.9288 31.9016L29.9302 31.9007L29.9323 31.899C29.9339 31.8974 29.9351 31.8955 29.936 31.8934C29.9369 31.8913 29.9373 31.8891 29.9373 31.8869V30.8906C29.9373 30.886 29.9355 30.8817 29.9323 30.8785C29.9291 30.8753 29.9247 30.8735 29.9202 30.8735H26.7129C26.7084 30.8735 26.704 30.8717 26.7008 30.8684C26.6976 30.8652 26.6958 30.8609 26.6958 30.8563V28.4675C26.6958 28.4629 26.6976 28.4586 26.7008 28.4554C26.704 28.4522 26.7084 28.4504 26.7129 28.4504H29.9202L29.9222 28.4503C29.9233 28.4501 29.9244 28.4499 29.9255 28.4495C29.9281 28.4487 29.9304 28.4473 29.9323 28.4454C29.9355 28.4422 29.9373 28.4378 29.9373 28.4333V27.4473C29.9373 27.4428 29.9355 27.4384 29.9323 27.4352C29.9291 27.432 29.9247 27.4302 29.9202 27.4302H26.7129C26.7084 27.4302 26.704 27.4284 26.7008 27.4252C26.6976 27.422 26.6958 27.4176 26.6958 27.4131ZM69.3596 23.9885L69.8315 23.9854C69.8328 23.9854 69.8341 23.9856 69.8354 23.9858L69.8375 23.9865L69.8397 23.9875C69.8422 23.989 69.8443 23.991 69.8457 23.9935L69.8467 23.9955C69.8474 23.9975 69.8478 23.9996 69.8478 24.0017C69.8478 24.0027 69.8477 24.0038 69.8475 24.0048C69.8471 24.0066 69.8464 24.0083 69.8455 24.0098L67.1325 28.6999C67.1312 28.7022 67.1305 28.7049 67.1304 28.7076L67.1299 31.8874L67.1298 31.8893C67.1296 31.8908 67.1293 31.8922 67.1287 31.8936C67.1279 31.8955 67.1267 31.8973 67.1252 31.8988C67.1237 31.9003 67.1219 31.9015 67.12 31.9023C67.118 31.9031 67.116 31.9035 67.1138 31.9035L66.7036 31.904C66.6993 31.904 66.6952 31.9023 66.6922 31.8993C66.6903 31.8973 66.6889 31.8949 66.6881 31.8923C66.6877 31.8909 66.6875 31.8894 66.6875 31.8879L66.688 28.7113C66.688 28.7085 66.6873 28.7059 66.686 28.7035L63.9839 24.0114L63.9829 24.0096L63.9825 24.0084L63.9819 24.0065L63.9817 24.0051L63.9816 24.0032C63.9815 24.0004 63.9823 23.9975 63.9837 23.9951C63.9846 23.9934 63.9859 23.9919 63.9873 23.9907L63.9897 23.9891L63.9912 23.9883L63.993 23.9877L63.9947 23.9873C63.9957 23.9871 63.9968 23.987 63.9979 23.987L64.4683 23.988C64.4711 23.988 64.4739 23.9888 64.4764 23.9903C64.4789 23.9917 64.4809 23.9938 64.4823 23.9963L66.8945 28.1874C66.8953 28.1889 66.8963 28.1902 66.8975 28.1913L66.8992 28.1927L66.9004 28.1934C66.9028 28.1949 66.9056 28.1956 66.9085 28.1956L66.9105 28.1955L66.9119 28.1952L66.9138 28.1947L66.9166 28.1934C66.919 28.192 66.9211 28.1899 66.9225 28.1874L69.3455 23.9963C69.3463 23.995 69.3473 23.9938 69.3485 23.9928C69.3494 23.9919 69.3504 23.9912 69.3515 23.9906C69.354 23.9892 69.3567 23.9885 69.3596 23.9885ZM5.41763 23.988L0.724472 23.9875V25.0103H2.55371C2.55852 25.0103 2.56314 25.0122 2.56655 25.0156C2.56995 25.019 2.57186 25.0236 2.57186 25.0284V31.8853C2.57186 31.8908 2.57405 31.8961 2.57794 31.9C2.58183 31.9039 2.58711 31.9061 2.59261 31.9061H3.57232C3.59237 31.9061 3.6024 31.8961 3.6024 31.876V25.0383C3.6024 25.0206 3.61121 25.0118 3.62885 25.0118L5.41919 25.0113C5.43648 25.0113 5.44512 25.0027 5.44512 24.9854V24.0155C5.44512 23.9972 5.43596 23.988 5.41763 23.988ZM7.46314 29.4041L7.46262 31.878C7.46262 31.8974 7.45312 31.9071 7.4341 31.9071H6.47358C6.46533 31.9071 6.45741 31.9039 6.45158 31.8981C6.44574 31.8924 6.44246 31.8846 6.44246 31.8765V24.016C6.44246 23.9956 6.45266 23.9856 6.47306 23.9859C7.0695 23.9897 7.72592 23.9894 8.44233 23.9849C8.65912 23.9835 8.85673 24.0049 9.03514 24.0492C10.8509 24.5025 11.6989 26.6491 10.6206 28.2009C10.3319 28.6168 9.96264 28.95 9.5128 29.2003C9.49621 29.2093 9.4931 29.2217 9.50347 29.2377L11.2238 31.8879L11.2247 31.8896L11.2255 31.8921L11.2258 31.8943C11.2258 31.8966 11.2253 31.8988 11.2242 31.9008C11.223 31.9028 11.2214 31.9044 11.2194 31.9055C11.2174 31.9066 11.2152 31.9072 11.2129 31.9071H10.0226C10.0146 31.9071 10.0068 31.9051 9.99982 31.9013C9.99284 31.8975 9.98695 31.892 9.98269 31.8853L8.41536 29.3927C8.40603 29.3775 8.39237 29.3699 8.37439 29.3699L7.49634 29.3704C7.47421 29.3704 7.46314 29.3817 7.46314 29.4041ZM7.46003 25.0315L7.46626 28.328C7.46626 28.333 7.46828 28.3379 7.47188 28.3415C7.47547 28.3451 7.48036 28.3472 7.48544 28.3472L8.38788 28.3456C8.83303 28.3448 9.25964 28.1691 9.57388 27.8572C9.88813 27.5453 10.0643 27.1227 10.0636 26.6823V26.6688C10.0633 26.4507 10.0195 26.2348 9.93477 26.0334C9.85006 25.832 9.72606 25.6491 9.56987 25.4951C9.41368 25.3411 9.22836 25.2191 9.02448 25.136C8.8206 25.0529 8.60217 25.0103 8.38165 25.0107L7.47922 25.0123C7.47413 25.0123 7.46925 25.0143 7.46565 25.0179C7.46205 25.0215 7.46003 25.0264 7.46003 25.0315ZM12.3399 24.0057V31.8884C12.3399 31.8933 12.3418 31.8979 12.3452 31.9013C12.3486 31.9047 12.3532 31.9066 12.3581 31.9066L13.3414 31.9061C13.3462 31.9061 13.3508 31.9042 13.3542 31.9008C13.3576 31.8974 13.3595 31.8927 13.3595 31.8879L13.3606 24.0067C13.3606 24.0019 13.3587 23.9973 13.3553 23.9939C13.3519 23.9905 13.3472 23.9885 13.3424 23.9885L12.3581 23.9875C12.3532 23.9875 12.3486 23.9894 12.3452 23.9928C12.3418 23.9962 12.3399 24.0008 12.3399 24.0057ZM16.0005 29.3684C15.997 29.3683 15.9936 29.3689 15.9904 29.3702C15.9872 29.3715 15.9842 29.3734 15.9818 29.3758C15.9793 29.3782 15.9774 29.3811 15.976 29.3843C15.9747 29.3874 15.974 29.3908 15.974 29.3943V31.8822C15.974 31.8988 15.9655 31.9071 15.9486 31.9071H14.9699C14.9655 31.9071 14.9613 31.9054 14.9582 31.9022C14.9551 31.8991 14.9533 31.8949 14.9533 31.8905L14.9518 24.0015C14.9518 23.9974 14.9534 23.9934 14.9563 23.9905C14.9592 23.9876 14.9632 23.9859 14.9673 23.9859C15.5662 23.9908 16.1884 23.9899 16.8339 23.9833C17.1039 23.9806 17.333 24.0013 17.5211 24.0456C18.7103 24.3262 19.5744 25.3883 19.6045 26.6087C19.6429 28.1506 18.4178 29.359 16.892 29.3704C16.5884 29.3725 16.2912 29.3718 16.0005 29.3684ZM15.974 25.0383V28.3181C15.974 28.3253 15.9768 28.3321 15.9819 28.3372C15.987 28.3422 15.9938 28.3451 16.001 28.3451H16.8987C17.344 28.3451 17.771 28.1701 18.0859 27.8587C18.4007 27.5472 18.5776 27.1248 18.5776 26.6844V26.672C18.5776 26.2315 18.4007 25.8091 18.0859 25.4977C17.771 25.1862 17.344 25.0113 16.8987 25.0113H16.001C15.9938 25.0113 15.987 25.0141 15.9819 25.0192C15.9768 25.0242 15.974 25.0311 15.974 25.0383ZM24.4781 31.8895V30.8947C24.4781 30.8903 24.4764 30.8861 24.4733 30.883C24.4701 30.8799 24.4659 30.8781 24.4615 30.8781H21.6619C21.6575 30.8781 21.6533 30.8764 21.6502 30.8733C21.6471 30.8702 21.6453 30.866 21.6453 30.8616L21.6448 24.0051C21.6448 24.0007 21.643 23.9965 21.6399 23.9934C21.6368 23.9903 21.6326 23.9886 21.6282 23.9886L20.6417 23.987C20.6398 23.987 20.6379 23.9873 20.6362 23.988C20.6339 23.9888 20.6318 23.9901 20.63 23.9919C20.6269 23.995 20.6251 23.9992 20.6251 24.0036L20.6246 31.8895C20.6246 31.8939 20.6264 31.8981 20.6295 31.9012C20.6326 31.9043 20.6368 31.9061 20.6412 31.9061H24.4615C24.4659 31.9061 24.4701 31.9043 24.4733 31.9012C24.4764 31.8981 24.4781 31.8939 24.4781 31.8895ZM43.1641 27.9162H46.4528C46.457 27.9162 46.4609 27.9146 46.4638 27.9116C46.4653 27.9102 46.4665 27.9084 46.4672 27.9065C46.468 27.9047 46.4684 27.9027 46.4684 27.9006V24.0031C46.4684 23.9989 46.47 23.995 46.4729 23.9921C46.4759 23.9891 46.4798 23.9875 46.484 23.9875H46.8942C46.8983 23.9875 46.9023 23.9891 46.9052 23.9921C46.9081 23.995 46.9098 23.9989 46.9098 24.0031L46.9103 31.8905C46.9103 31.8924 46.9099 31.8942 46.9093 31.8959L46.9082 31.8983L46.9067 31.9005L46.9057 31.9015C46.9042 31.903 46.9025 31.9042 46.9006 31.9049C46.8987 31.9057 46.8967 31.9061 46.8947 31.9061L46.484 31.9066C46.4798 31.9066 46.4759 31.905 46.4729 31.902C46.47 31.8991 46.4684 31.8952 46.4684 31.891V28.3731C46.4684 28.372 46.4683 28.371 46.4681 28.3699L46.4675 28.368L46.4667 28.3661C46.466 28.3646 46.465 28.3633 46.4638 28.3621C46.4609 28.3592 46.457 28.3576 46.4528 28.3576H43.1641C43.16 28.3576 43.1561 28.3592 43.1531 28.3621C43.1523 28.3629 43.1516 28.3638 43.1511 28.3647L43.15 28.3666C43.1491 28.3687 43.1486 28.3709 43.1486 28.3731V31.891C43.1486 31.8952 43.1469 31.8991 43.144 31.902C43.1426 31.9034 43.141 31.9046 43.1392 31.9053C43.1373 31.9062 43.1352 31.9066 43.133 31.9066L42.7212 31.9061C42.7194 31.9061 42.7176 31.9058 42.7159 31.9051C42.7138 31.9044 42.7118 31.9031 42.7102 31.9015C42.7091 31.9004 42.7081 31.899 42.7074 31.8976C42.7063 31.8954 42.7057 31.893 42.7057 31.8905V24.0036C42.7057 23.9995 42.7073 23.9955 42.7102 23.9926C42.7111 23.9917 42.712 23.991 42.713 23.9904C42.7154 23.9889 42.7183 23.988 42.7212 23.988L43.133 23.9875C43.1372 23.9875 43.1411 23.9891 43.144 23.9921C43.1469 23.995 43.1486 23.9989 43.1486 24.0031V27.9006C43.1486 27.9048 43.1502 27.9087 43.1531 27.9116C43.1561 27.9146 43.16 27.9162 43.1641 27.9162ZM52.3394 31.4626H48.8578C48.8556 31.4626 48.8534 31.4622 48.8514 31.4614C48.8503 31.4609 48.8492 31.4603 48.8482 31.4596L48.846 31.4578C48.8445 31.4562 48.8433 31.4544 48.8424 31.4524C48.8416 31.4504 48.8412 31.4482 48.8412 31.446V28.1817C48.8412 28.1773 48.8429 28.1731 48.846 28.17C48.8491 28.1669 48.8534 28.1651 48.8578 28.1651H52.3394C52.3414 28.1651 52.3435 28.1648 52.3453 28.164C52.3475 28.1632 52.3495 28.1619 52.3511 28.1603C52.3542 28.1572 52.356 28.1529 52.356 28.1485L52.3555 27.7393C52.3555 27.7372 52.355 27.735 52.3542 27.733C52.3537 27.7317 52.353 27.7305 52.3521 27.7293L52.3506 27.7276C52.3491 27.7261 52.3472 27.7248 52.3452 27.724C52.3441 27.7236 52.343 27.7232 52.3419 27.723L52.3389 27.7227H48.8578C48.8534 27.7227 48.8491 27.721 48.846 27.7179C48.8429 27.7148 48.8412 27.7105 48.8412 27.7061V24.446C48.8412 24.4416 48.8429 24.4374 48.846 24.4342C48.8491 24.4311 48.8534 24.4294 48.8578 24.4294H52.3394C52.3438 24.4294 52.348 24.4276 52.3511 24.4245C52.3542 24.4214 52.356 24.4172 52.356 24.4128L52.3555 24.0041C52.3555 24.0016 52.3549 23.9991 52.3538 23.9969C52.353 23.9953 52.3519 23.9937 52.3506 23.9924C52.3496 23.9914 52.3486 23.9906 52.3475 23.9899L52.3452 23.9888C52.3432 23.9879 52.341 23.9875 52.3389 23.9875H48.4159C48.4142 23.9875 48.4125 23.9878 48.4109 23.9883L48.4082 23.9894C48.4067 23.9902 48.4053 23.9912 48.4041 23.9924C48.401 23.9955 48.3993 23.9997 48.3993 24.0041V31.8895C48.3993 31.8913 48.3996 31.8931 48.4002 31.8948C48.401 31.8972 48.4023 31.8994 48.4041 31.9012C48.4073 31.9043 48.4115 31.9061 48.4159 31.9061H52.3394C52.3438 31.9061 52.348 31.9043 52.3511 31.9012C52.3542 31.8981 52.356 31.8939 52.356 31.8895V31.4792C52.356 31.4781 52.3559 31.477 52.3556 31.4759C52.3554 31.4749 52.3551 31.4739 52.3547 31.4729C52.3542 31.4715 52.3534 31.4703 52.3525 31.4691L52.3511 31.4675L52.3488 31.4656C52.3479 31.4649 52.3468 31.4644 52.3457 31.4639L52.3434 31.4631C52.3421 31.4628 52.3407 31.4626 52.3394 31.4626ZM56.1514 29.0862C56.1494 29.0867 56.1475 29.0877 56.1459 29.089C56.1444 29.0904 56.1431 29.0921 56.1424 29.0941C56.1416 29.096 56.1413 29.0981 56.1415 29.1001C56.1418 29.1022 56.1425 29.1042 56.1436 29.1059L57.9666 31.9009C57.967 31.9015 57.9672 31.9022 57.9672 31.903C57.9672 31.9037 57.967 31.9044 57.9666 31.905C57.9662 31.9057 57.9657 31.9062 57.9651 31.9065L57.9643 31.9069L57.963 31.9071H57.4392C57.4295 31.9071 57.422 31.9029 57.4169 31.8946L55.6597 29.1723C55.6562 29.1669 55.6514 29.1624 55.6457 29.1593C55.643 29.1579 55.6402 29.1568 55.6373 29.156C55.634 29.1551 55.6305 29.1547 55.627 29.1547L54.1831 29.1552C54.1781 29.1552 54.1732 29.1572 54.1696 29.1608C54.166 29.1644 54.164 29.1693 54.164 29.1744V31.8941L54.1637 31.8969L54.1629 31.8992C54.1627 31.8998 54.1624 31.9003 54.162 31.9009C54.1618 31.9012 54.1616 31.9015 54.1614 31.9018L54.1602 31.9033C54.1577 31.9057 54.1544 31.9071 54.151 31.9071H53.733C53.725 31.9071 53.721 31.9031 53.721 31.8952V24.0004C53.721 23.9987 53.7213 23.9971 53.7219 23.9955C53.7226 23.9934 53.7238 23.9914 53.7254 23.9898C53.7283 23.987 53.7321 23.9854 53.7361 23.9854C54.3156 23.9909 54.9053 23.9904 55.5052 23.9839C55.7327 23.9811 55.9315 24.0017 56.1016 24.0456C57.9531 24.5248 58.7467 26.742 57.4905 28.2393C57.1392 28.6583 56.6928 28.9407 56.1514 29.0862ZM54.1671 24.461L54.1598 28.6838C54.1598 28.691 54.1627 28.698 54.1679 28.7032C54.173 28.7083 54.18 28.7112 54.1873 28.7112L55.4279 28.7133C56.0004 28.7143 56.5499 28.4905 56.9555 28.0913C57.3611 27.692 57.5895 27.15 57.5906 26.5843V26.5729C57.5916 26.0072 57.365 25.4642 56.9608 25.0635C56.5565 24.6627 56.0078 24.4371 55.4351 24.4361L54.1946 24.4335L54.1922 24.4336L54.1903 24.4338C54.1889 24.4341 54.1874 24.4344 54.186 24.4349L54.1834 24.4359C54.1803 24.4372 54.1775 24.4392 54.1751 24.4416C54.173 24.4437 54.1712 24.4462 54.1699 24.4488C54.1681 24.4526 54.1671 24.4567 54.1671 24.461ZM59.5578 31.8941V29.1708C59.5578 29.1667 59.5595 29.1627 59.5625 29.1598C59.5655 29.1569 59.5696 29.1552 59.5739 29.1552L61.0172 29.1547C61.0331 29.1547 61.0454 29.1614 61.0541 29.1749L62.8112 31.8978C62.815 31.904 62.8206 31.9071 62.8278 31.9071H63.348C63.3495 31.9072 63.3511 31.9068 63.3524 31.9061C63.3538 31.9053 63.3549 31.9042 63.3557 31.9029C63.3564 31.9015 63.3568 31.9 63.3567 31.8985C63.3566 31.8969 63.3561 31.8954 63.3553 31.8941L61.553 29.1174C61.5416 29.0997 61.5461 29.0878 61.5665 29.0816C62.7065 28.7445 63.473 27.7793 63.4818 26.5838C63.4917 25.2063 62.3377 23.973 60.9353 23.9844C60.3126 23.9896 59.7137 23.9901 59.1387 23.9859C59.119 23.9859 59.1092 23.9958 59.1092 24.0155V31.8952C59.1092 31.8967 59.1095 31.8983 59.1101 31.8997C59.1106 31.9011 59.1115 31.9025 59.1127 31.9036L59.1139 31.9047L59.115 31.9054L59.1162 31.9061C59.1177 31.9068 59.1194 31.9071 59.1211 31.9071H59.5453C59.5487 31.9071 59.5518 31.9057 59.5541 31.9033C59.5565 31.9009 59.5578 31.8976 59.5578 31.8941ZM59.5536 28.6853L59.5609 24.4595C59.5609 24.4526 59.5636 24.446 59.5685 24.4411C59.5734 24.4363 59.58 24.4335 59.5868 24.4335L60.8253 24.4356C61.1093 24.4361 61.3903 24.4918 61.6524 24.5994C61.9145 24.7071 62.1526 24.8647 62.353 25.0632C62.5534 25.2616 62.7122 25.4971 62.8204 25.7562C62.9286 26.0152 62.9839 26.2927 62.9834 26.5729V26.5843C62.9823 27.15 62.7536 27.6921 62.3475 28.0913C61.9415 28.4906 61.3913 28.7143 60.8181 28.7133L59.5796 28.7113C59.5727 28.7113 59.5661 28.7085 59.5612 28.7037C59.5564 28.6988 59.5536 28.6922 59.5536 28.6853ZM70.2651 31.235C70.6691 31.6048 71.2712 31.7137 71.7862 31.5716C72.0259 31.5057 72.224 31.3501 72.2634 31.0929C72.3194 30.7267 72.0456 30.5208 71.7339 30.4363C71.4694 30.3647 71.2057 30.2943 70.9429 30.2252C70.6857 30.1578 70.3688 29.9882 70.278 29.7097C70.1142 29.205 70.4015 28.7668 70.8963 28.6361C71.3724 28.5106 71.9392 28.5702 72.3609 28.8456C72.3806 28.8584 72.3856 28.8755 72.3759 28.8969L72.3199 29.0204C72.3064 29.0501 72.2855 29.0569 72.2572 29.0406C71.797 28.7764 71.3414 28.722 70.8906 28.8772C70.4715 29.0219 70.2988 29.5883 70.7127 29.8585C70.8378 29.9404 70.9779 30.0001 71.1328 30.0374C71.4097 30.1038 71.6663 30.1725 71.9024 30.2433C72.2515 30.3486 72.5061 30.5955 72.5181 30.9544C72.5357 31.4834 72.1125 31.7712 71.6395 31.8309C71.1188 31.8967 70.5431 31.7946 70.1572 31.4289C70.1479 31.4203 70.1463 31.4104 70.1525 31.3994L70.2386 31.2391C70.2455 31.2263 70.2544 31.2249 70.2651 31.235ZM76.4369 31.8366L76.4343 31.6467C76.4343 31.6426 76.4327 31.6387 76.4297 31.6357C76.4268 31.6328 76.4229 31.6312 76.4187 31.6312H74.5698C74.5683 31.6312 74.5669 31.631 74.5655 31.6306C74.563 31.6299 74.5607 31.6285 74.5588 31.6266C74.5581 31.6259 74.5574 31.6251 74.5568 31.6242C74.5563 31.6234 74.5558 31.6225 74.5554 31.6216L74.5548 31.6197C74.5544 31.6184 74.5542 31.617 74.5542 31.6156L74.5548 28.5935C74.5548 28.5894 74.5531 28.5854 74.5502 28.5825C74.5473 28.5796 74.5433 28.578 74.5392 28.578H74.3349C74.3307 28.578 74.3268 28.5796 74.3238 28.5825C74.3209 28.5854 74.3193 28.5894 74.3193 28.5935V31.8366C74.3193 31.8396 74.3202 31.8425 74.3218 31.845C74.3224 31.8459 74.3231 31.8468 74.3238 31.8476C74.3256 31.8493 74.3278 31.8506 74.3301 31.8514C74.3316 31.8519 74.3332 31.8521 74.3349 31.8521H76.4213C76.4255 31.8521 76.4294 31.8505 76.4323 31.8476C76.434 31.8459 76.4353 31.8439 76.436 31.8417C76.4366 31.8401 76.4369 31.8383 76.4369 31.8366ZM73.2773 31.848C73.3888 31.848 73.4791 31.7576 73.4791 31.6462C73.4791 31.5348 73.3888 31.4445 73.2773 31.4445C73.1659 31.4445 73.0756 31.5348 73.0756 31.6462C73.0756 31.7576 73.1659 31.848 73.2773 31.848ZM77.2652 31.6462C77.2652 31.7576 77.1748 31.848 77.0634 31.848C76.952 31.848 76.8617 31.7576 76.8617 31.6462C76.8617 31.5348 76.952 31.4445 77.0634 31.4445C77.1748 31.4445 77.2652 31.5348 77.2652 31.6462Z" fill="#00AB55"/>
</g>
<defs>
<clipPath id="clip0_4052_8231">
<rect width="76.5511" height="32" fill="white" transform="translate(0.724472 0.000976562)"/>
</clipPath>
</defs>
</svg>
