<svg xmlns="http://www.w3.org/2000/svg" width="72" height="34" fill="none"><g clip-path="url(#a)"><path fill="#919EAB" fill-rule="evenodd" d="M16.476 12.978s1.894-12.32 5.718-11.8c5.84.795 1.836 15.793-3.811 15.387 0 0-2.29 13.092-6.087 12.976-7.182 0-15.875-27.826-9.36-29.488 2.057-.586 5.672 3.895 8.801 7.774 1.92 2.38 3.656 4.532 4.74 5.151ZM4.168 2.35c-.632 1.48 4.064 23.238 8.815 23.238 1.338 0 2.794-9.246 2.794-9.246-2.815-1.521-6.402-6.87-8.843-10.512-1.52-2.269-2.597-3.875-2.766-3.48Zm14.617 11.23c-.193 0 2.244-10.924 4.06-10.776.801.193-.93 8.04-4.06 10.776Zm9.202 2.556 3.519 8.218 3.596-8.218h2.314l-4.82 11.016h-2.223L25.55 16.136h2.436Zm11.893-3.758a1.46 1.46 0 0 0-1.072.428 1.412 1.412 0 0 0-.429 1.032c0 .4.145.745.43 1.023.284.277.644.417 1.07.417a1.46 1.46 0 0 0 1.072-.429c.284-.284.428-.638.428-1.052 0-.401-.145-.743-.433-1.015-.283-.269-.642-.404-1.066-.404Zm-1.16 3.758h2.32v11.016h-2.32V16.136Zm13.079.608c-.841-.47-1.804-.707-2.861-.707-.786 0-1.521.15-2.186.447a4.292 4.292 0 0 0-1.324.922v-4.903h-2.319v14.65h2.24V25.82c.38.407.83.733 1.341.973a5.24 5.24 0 0 0 2.248.48c1.058 0 2.021-.239 2.862-.707a5.104 5.104 0 0 0 1.99-1.99c.476-.847.717-1.834.717-2.931 0-1.099-.242-2.082-.717-2.923a5.137 5.137 0 0 0-1.991-1.979Zm.368 4.9c0 .698-.15 1.323-.447 1.859a3.206 3.206 0 0 1-1.209 1.247 3.406 3.406 0 0 1-1.735.444c-.63 0-1.21-.149-1.725-.445a3.124 3.124 0 0 1-1.208-1.244c-.29-.536-.436-1.162-.436-1.86 0-.699.147-1.324.437-1.86a3.05 3.05 0 0 1 1.205-1.235 3.483 3.483 0 0 1 1.727-.435 3.47 3.47 0 0 1 1.736.434c.506.288.912.704 1.207 1.237.298.537.448 1.162.448 1.858Zm9.315-5.607h.197v2.284l-.22-.027c-.1-.012-.24-.018-.418-.018-.98 0-1.759.293-2.311.87-.555.58-.838 1.427-.838 2.518v5.488h-2.318V16.136h2.238v1.336c.318-.387.72-.7 1.198-.935.678-.332 1.51-.5 2.472-.5Zm8.52 1.134c-.816-.753-1.996-1.134-3.51-1.134-.87 0-1.706.12-2.483.36-.783.24-1.465.592-2.03 1.047l-.129.104.998 1.798.184-.154c.393-.33.884-.598 1.46-.797a5.462 5.462 0 0 1 1.78-.3c.879 0 1.55.205 1.99.61.436.4.657.991.657 1.758v.183h-2.848c-1.523 0-2.658.303-3.372.898-.726.604-1.094 1.414-1.094 2.406 0 .994.386 1.808 1.147 2.419.746.6 1.749.905 2.979.905.838 0 1.576-.137 2.193-.408.432-.189.799-.44 1.096-.748v1.035h2.219v-6.61c0-1.481-.418-2.615-1.237-3.372Zm-1.083 5.252v1.247a2.616 2.616 0 0 1-1.068 1.263c-.5.307-1.106.462-1.8.462-.689 0-1.229-.142-1.606-.422-.365-.27-.541-.632-.541-1.104 0-.358 0-1.446 2.247-1.446h2.768Zm-23.175 8.103a1.72 1.72 0 0 1 .824-.196c.453 0 .844.155 1.164.46l.037.034.437-.433-.034-.036a1.904 1.904 0 0 0-.707-.485 2.492 2.492 0 0 0-.921-.164c-.429 0-.82.092-1.163.275a2.058 2.058 0 0 0-.812.768 2.12 2.12 0 0 0-.294 1.104c0 .406.1.776.294 1.1.195.325.467.583.81.768.34.185.729.279 1.154.279.299 0 .591-.046.867-.138.277-.091.523-.224.733-.395l.019-.016v-1.674h-.671v1.358c-.26.159-.57.24-.918.24a1.69 1.69 0 0 1-.819-.198 1.462 1.462 0 0 1-.568-.546 1.507 1.507 0 0 1-.206-.778c0-.29.07-.554.206-.784.136-.231.327-.414.568-.543Zm5.066-.774-1.922 4.2h.724l.454-1.023H52.2l.455 1.024h.735l-1.928-4.2h-.651Zm1.135 2.605H50.32l.814-1.829.812 1.83Zm4.556.226 1.674-2.83h.566l.006 4.2h-.67L58.07 31.1l-1.416 2.355h-.33l-1.415-2.337v2.834h-.672v-4.2h.566l1.698 2.83Zm4.445-2.83h-.695v4.2h.695v-4.2Zm2.081.018 2.392 2.943v-2.962h.695v4.2h-.561l-.016-.017-2.392-2.944v2.962h-.695v-4.2h.561l.016.018Zm7.46 3.365c-.261.16-.57.24-.918.24a1.69 1.69 0 0 1-.82-.198 1.464 1.464 0 0 1-.568-.545 1.504 1.504 0 0 1-.206-.779c0-.29.07-.553.206-.784.137-.23.328-.414.569-.543.241-.13.519-.196.824-.196.453 0 .845.155 1.164.46l.037.035.437-.434-.034-.036a1.903 1.903 0 0 0-.707-.484 2.492 2.492 0 0 0-.92-.165c-.43 0-.82.092-1.163.276a2.058 2.058 0 0 0-.813.767 2.12 2.12 0 0 0-.293 1.104c0 .406.098.777.294 1.1.195.326.466.584.809.769.341.185.73.278 1.154.278.3 0 .591-.046.868-.137.276-.092.522-.225.732-.396l.02-.015v-1.675h-.672v1.358Z" clip-rule="evenodd"/></g><defs><clipPath id="a"><path fill="#fff" d="M.64.001h70.72v34H.64z"/></clipPath></defs></svg>