<svg xmlns="http://www.w3.org/2000/svg" width="132" height="22" fill="none"><g clip-path="url(#a)"><path fill="#00AB55" fill-rule="evenodd" d="M12.47.408c-.171.019-.314.047-.314.066l-.092.674-.242 1.756-.164 1.197c-.1.73-.17 1.233-.17 1.252 0 .02 1.116.039 2.478.039 1.363 0 2.478.019 2.478.047 0 .029-1.277 1.601-2.84 3.507-1.563 1.896-2.916 3.555-2.992 3.688-.086.133-.171.42-.21.648l-.057.4 6.166-.019 6.175-.028.048-.448.057-.458-2.64-.019-2.64-.028 3.069-3.64 3.059-3.64.429-2.536.438-2.525-5.87.019c-3.221 0-6.004.029-6.166.048ZM59.632.055c-2.735.39-4.736 1.773-5.832 4.031-.563 1.182-.8 2.125-.8 3.26 0 1.228.228 1.867.962 2.63.667.704 1.153.952 2.678 1.381 1.83.505 2.306.915 1.543 1.306-.295.152-.514.171-1.906.123-1.067-.028-1.867-.104-2.477-.238-.496-.114-.915-.2-.925-.2-.019 0-.41 1.172-.41 1.258 0 .038 2.678.076 5.957.076h5.946l.124-.41c.076-.257.124-.981.124-2.02 0-1.582-.01-1.63-.267-2.153a3.778 3.778 0 0 0-.696-.944C63.13 7.67 61.89 7.07 60.995 6.86c-1.325-.305-1.506-.372-1.687-.62-.248-.323-.105-.685.314-.838.477-.162 1.897-.124 3.297.095.744.124 1.316.172 1.363.124.134-.143 1.44-4.736 1.363-4.812-.114-.095-1.382-.439-2.316-.61-.99-.181-2.887-.257-3.697-.143Zm-35.66 13.503c0-.18 1.82-12.96 1.868-13.112.038-.105.963-.124 5.851-.086 3.193.019 5.823.057 5.851.086.02.019-.142 1.172-.362 2.563l-.39 2.525-2.688.03-2.677.018-.058.286a9.896 9.896 0 0 1-.057.286c-.021.102-.043.205-.057.286l-.057.286 2.563.019 2.564.028-.315 2.287a85.912 85.912 0 0 1-.314 2.307c0 .019-1.153.028-2.564.028h-2.554l-.066.439c-.01.08-.023.153-.034.219-.03.185-.05.312-.001.398.107.19.548.188 1.951.184l.742-.001h2.716l-.057.4c-.029.229-.067.467-.095.524-.029.096-1.287.124-5.899.124-4.622 0-5.86-.028-5.86-.124ZM38.8.446c-.085.219-1.772 12.56-1.772 12.912v.324h13.894l.095-.41c.057-.219.467-3.059.915-6.308.448-3.25.839-6.07.877-6.27l.057-.353-1.563.01c-.848.009-2.258.047-3.116.076l-1.572.057-.83 5.946-.062.448c-.688 4.962-.807 5.821-1.194 5.966a.803.803 0 0 1-.286.029h-.068c-.324 0-.448-.048-.581-.239-.177-.232-.163-.328.585-5.722l.063-.453c.448-3.26.8-5.956.772-5.975-.029-.029-1.43-.076-3.107-.115C39.315.322 38.838.331 38.8.446Zm31.705 13.017c.029-.114.448-3.126.934-6.68l.896-6.47 4.43.056c4.813.058 5.213.105 6.252.61 1.43.696 2.078 2.002 2.059 4.165-.01 1.105-.296 3.43-.543 4.402-.4 1.544-1.382 2.86-2.602 3.498l-.051.026c-.252.133-.45.236-.657.317-.75.295-1.617.295-5.635.295h-5.131l.048-.219Zm8.49-6.223c.172-1.124.125-1.467-.2-1.639-.095-.057-.371-.124-.619-.162l-.448-.067-.057.315c-.229 1.305-.486 3.345-.42 3.383.106.057.716-.038 1.068-.172.372-.143.505-.457.677-1.658ZM87.23.408c-.276.028-.371.085-.41.247-.066.305-1.762 12.665-1.762 12.865 0 .153.343.162 5.565.162h5.565l.057-.219c.029-.114.057-.352.057-.524v-.305H91.241l.057-.315A2332.74 2332.74 0 0 0 92.966.37c0-.038-5.346 0-5.737.039Zm10.788 13.189c0-.077 4.488-12.522 4.669-12.951l.095-.21h8.348l.686 6.404c.382 3.526.687 6.509.687 6.623v.22h-7.243c-3.983 0-7.242-.039-7.242-.086Zm8.433-3.488.058-2.192c.028-1.21.047-2.211.028-2.22-.009-.02-.152.38-.314.905-.094.315-.244.801-.395 1.288l-.001.005-.001.003c-.095.306-.19.613-.27.877-.201.676-.343 1.277-.305 1.315.047.038.333.066.638.047l.562-.028ZM114.932.55c.085.257 2.544 11.568 2.553 11.75 0 .104-.028.457-.076.79l-.076.591 3.135-.019 3.135-.028.105-.763c.105-.724.248-1.02 3.078-6.547 1.63-3.182 2.964-5.813 2.964-5.841 0-.029-1.401-.038-3.116-.029l-3.107.029-.877 2.458c-.486 1.354-.905 2.478-.924 2.497-.019.029-.162-1.02-.305-2.315-.143-1.296-.286-2.43-.314-2.526-.038-.152-.267-.162-3.126-.162-2.43 0-3.078.029-3.049.115Zm16.675 13.593H.393v.786h131.214v-.786ZM9.559 21.608h12.31l.458-3.143-12.31.197-.458 2.946Zm13.62 0 .523-3.077 11.786-.393-.524 3.47H23.18Zm13.88-3.536 13.554-.327s-1.768 4.19-7.137 4.19c-5.762 0-6.416-3.863-6.416-3.863Zm27.173-.654-12.113.327-.982 3.208s2.684 1.048 6.024 1.048c5.892 0 7.071-4.583 7.071-4.583Zm5.37 4.19.72-4.321 11.065-.262s-1.113.786-2.62.786H76.15l-.59 3.797h-5.958Zm15.255-4.649-.786 4.65h11.131l.72-4.912-11.065.262Zm13.16-.327-1.832 4.976h6.154l.982-2.815h2.619l.197 2.815h6.417l-.524-5.303-14.012.327Zm19.12-.328-.851 5.304h6.285l.786-5.565-6.22.262Z" clip-rule="evenodd"/></g><defs><clipPath id="a"><path fill="#fff" d="M.393.001h131.214v22H.393z"/></clipPath></defs></svg>