<?xml version="1.0" standalone="no"?>
<!DOCTYPE svg PUBLIC "-//W3C//DTD SVG 1.1//EN" "http://www.w3.org/Graphics/SVG/1.1/DTD/svg11.dtd" >
<svg xmlns="http://www.w3.org/2000/svg">
<metadata>
This is a custom SVG webfont generated by Font Squirrel.
Copyright   : Copyright c 1992 1994 Adobe Systems Incorporated  All Rights ReservedMyriad is a trademark of Adobe Systems Incorporated may be registered in certain jurisdictions
</metadata>
<defs>
<font id="MyriadRoman" horiz-adv-x="1050" >
<font-face units-per-em="2048" ascent="1638" descent="-410" />
<missing-glyph horiz-adv-x="434" />
<glyph unicode=" "  horiz-adv-x="434" />
<glyph unicode="&#x09;" horiz-adv-x="434" />
<glyph unicode="&#xa0;" horiz-adv-x="434" />
<glyph unicode="!" horiz-adv-x="471" d="M115 104q0 55 33.5 91t87.5 36q55 0 87.5 -35.5t32.5 -91t-32.5 -91.5t-87.5 -36h-3q-51 0 -84.5 37t-33.5 90zM137 1380h197l-29 -985h-139z" />
<glyph unicode="&#x22;" horiz-adv-x="690" d="M104 1417h177l-33 -491h-111zM410 1417h176l-33 -491h-111z" />
<glyph unicode="#" horiz-adv-x="1017" d="M76 401v121h188l39 297h-178v121h194l54 391h121l-54 -391h215l52 391h120l-51 -391h168v-121h-186l-37 -297h176v-121h-195l-53 -401h-123l54 401h-213l-52 -401h-122l53 401h-170zM385 522h213l39 297h-213z" />
<glyph unicode="$" d="M135 121l49 137q129 -88 291 -88q111 0 178.5 56.5t67.5 144.5q0 82 -56.5 139t-175.5 104q-170 66 -253.5 148t-83.5 209t83.5 217t223.5 112v205h129v-198q154 -4 266 -72l-51 -135q-125 72 -258 71q-109 0 -163 -53t-54 -125q0 -76 56 -125t198 -108 q164 -68 240.5 -154t76.5 -219q0 -129 -85 -227.5t-239 -122.5v-213h-129v207q-190 4 -311 90z" />
<glyph unicode="%" horiz-adv-x="1622" d="M61 938q0 193 91.5 304.5t230.5 111.5h2q139 0 222 -104.5t83 -293.5q0 -201 -90 -310t-227 -109q-133 0 -221.5 104t-90.5 297zM205 944q0 -10 -1 -20q0 -116 45 -194q48 -85 130 -85q86 0 129 82t43 221q0 131 -42 214t-130 83h-2q-80 0 -126 -85t-46 -216zM358 -25 l785 1381h114l-784 -1381h-115zM930 387q0 193 91 304.5t230 111.5h2q139 0 222.5 -104.5t83.5 -292.5q0 -201 -90.5 -310.5t-227.5 -109.5q-133 0 -221 104t-90 297zM1073 393v-20q0 -116 44 -194q48 -85 130 -85q86 0 129 82t43 221q0 131 -42 214t-130 83h-2 q-80 0 -126 -85t-46 -216z" />
<glyph unicode="&#x26;" horiz-adv-x="1239" d="M63 365q0 252 271 403v6q-117 152 -117 289q0 135 94.5 237.5t257.5 102.5q131 0 218 -80t87 -213q0 -111 -70.5 -200t-232.5 -169v-6l336 -385q92 141 133 404h164q-59 -344 -198 -510l227 -244h-213l-129 133q-170 -156 -404 -156q-195 0 -309.5 113t-114.5 275z M238 391q0 -119 78.5 -198.5t201.5 -79.5h2q168 0 283 125l-387 434q-178 -111 -178 -281zM385 1079q0 -113 104 -248q117 66 173.5 127.5t56.5 143.5q0 72 -41 125t-119 53h-2q-80 0 -126 -58.5t-46 -142.5z" />
<glyph unicode="'" horiz-adv-x="385" d="M104 1417h177l-33 -491h-111z" />
<glyph unicode="(" horiz-adv-x="581" d="M131 584q2 483 268 837h140q-256 -348 -256 -839q0 -463 256 -830h-140q-268 355 -268 832z" />
<glyph unicode=")" horiz-adv-x="581" d="M41 -248q256 362 256 835.5t-256 833.5h139q268 -350 269 -833q-2 -477 -269 -836h-139z" />
<glyph unicode="*" horiz-adv-x="849" d="M61 975v139l301 -39v4l-192 252l125 70l127 -283h4l125 285l123 -72l-195 -254v-4l309 41v-139l-309 37v-4l197 -248l-129 -72l-125 287h-4l-131 -289l-117 74l195 250v4z" />
<glyph unicode="+" horiz-adv-x="1220" d="M82 485v123h463v482h131v-482h463v-123h-463v-485h-131v485h-463z" />
<glyph unicode="," horiz-adv-x="423" d="M33 -254q82 225 123 492l200 20q-37 -131 -95 -278.5t-101 -219.5z" />
<glyph unicode="-" horiz-adv-x="628" d="M61 487v131h506v-131h-506z" />
<glyph unicode="." horiz-adv-x="423" d="M106 106.5q0 55.5 35 92.5t88.5 37t87 -36t33.5 -94q0 -55 -33.5 -92t-89.5 -37h-2q-51 0 -85 37t-34 92.5z" />
<glyph unicode="/" horiz-adv-x="702" d="M-2 -82l569 1485h142l-574 -1485h-137z" />
<glyph unicode="0" d="M74 662q0 328 128 510t337 182t324.5 -178.5t115.5 -495.5q0 -338 -121 -520.5t-340 -182.5h-2q-199 0 -319.5 180.5t-122.5 504.5zM254 672v-14q0 -248 71 -393q73 -148 197 -148h2q133 0 202 146.5t69 408.5q0 256 -66.5 399t-204.5 143q-123 0 -196.5 -146t-73.5 -396 z" />
<glyph unicode="1" d="M213 1176l291 155h153v-1331h-174v1163h-4l-231 -125z" />
<glyph unicode="2" d="M92 0v111l141 137q279 264 387.5 409.5t108.5 286.5q0 115 -61.5 187.5t-200.5 72.5q-147 0 -283 -112l-57 127q160 135 377 135q199 0 302 -115t103 -272q0 -170 -108.5 -327t-349.5 -388l-105 -98v-4h596v-150h-850z" />
<glyph unicode="3" d="M86 68l49 137q137 -82 295 -82t230.5 79t70.5 179q-2 131 -101.5 198.5t-242.5 67.5h-100v135h100q113 0 205 58.5t92 167.5q0 86 -58.5 143t-174.5 57q-143 0 -267 -88l-49 131q143 102 350 103q184 0 282.5 -92.5t98.5 -225.5q0 -106 -63.5 -189t-181.5 -126v-4 q129 -25 213 -115t84 -225q0 -168 -129.5 -284t-356.5 -116q-209 1 -346 91z" />
<glyph unicode="4" d="M31 362v117l594 852h194v-829h187v-140h-187v-362h-170v362h-618zM213 502h436v446q0 104 6 209h-6l-110 -199l-326 -452v-4z" />
<glyph unicode="5" d="M86 59l45 138q125 -74 287 -74q131 0 223 80q90 78 90 205q0 143 -95 223t-286 80q-100 0 -186 -15l86 635h637v-151h-508l-51 -338q61 8 108 8q168 0 287 -72q84 -47 137 -135t53 -211q0 -197 -140 -326t-355 -129q-201 0 -332 82z" />
<glyph unicode="6" d="M70 545q0 377 225 602q168 166 426 196q66 10 131 11v-148q-8 0 -16 1q-49 0 -119 -11q-203 -33 -320.5 -164t-142.5 -309h4q115 156 324 156q178 0 289.5 -119t111.5 -311.5t-122 -332t-322 -139.5q-213 0 -341 155t-128 413zM248 500q2 -170 78.5 -276.5t214.5 -106.5 h2q115 0 186.5 88t71.5 231q0 141 -75 223t-200 82q-82 0 -152.5 -45t-107.5 -118q-18 -37 -18 -78z" />
<glyph unicode="7" d="M117 1182v149h839v-119l-579 -1212h-184l575 1178v4h-651z" />
<glyph unicode="8" d="M76 336q0 246 262 358v6q-106 49 -159.5 129t-53.5 170q0 156 116.5 255.5t295.5 99.5h2q184 0 286.5 -96.5t102.5 -231.5q0 -209 -221 -311v-6q268 -106 268 -344q0 -172 -129 -280t-324 -108q-203 0 -324.5 103.5t-121.5 255.5zM262 360v-11q0 -97 69 -167 q73 -74 195 -73h2q121 0 194 66.5t73 170.5q0 115 -75 182.5t-218 108.5q-115 -33 -177.5 -107t-62.5 -170zM301 1006q0 -90 65 -148q67 -59 189 -92q92 31 147.5 93.5t55.5 148.5q0 90 -56.5 153.5t-166.5 63.5h-3q-109 0 -170 -61.5t-61 -157.5z" />
<glyph unicode="9" d="M82 883q0 193 129 332t328 139q203 0 321.5 -151.5t118.5 -409.5q0 -401 -229 -627q-158 -152 -388 -178q-91 -11 -147 -11h-18v148q15 -1 31 -1q50 0 114 9q166 20 279 129q141 127 176 354h-6q-117 -143 -316 -143q-176 0 -284.5 117t-108.5 293zM262 893 q0 -125 69.5 -204t186.5 -79q178 0 264 140q14 29 15 65v10q0 173 -68 281q-70 111 -205 111h-2q-113 0 -186.5 -91.5t-73.5 -232.5z" />
<glyph unicode=":" horiz-adv-x="423" d="M106 104q0 57 34 93t87 36q55 0 88 -35.5t33 -93.5q0 -55 -32.5 -91t-88.5 -36h-2q-51 0 -85 37t-34 90zM109 827q0 57 33.5 93t86.5 36q55 0 88 -35.5t33 -93.5q0 -55 -32.5 -91t-88.5 -36h-2q-51 0 -84.5 37t-33.5 90z" />
<glyph unicode=";" horiz-adv-x="423" d="M35 -252q82 221 123 490l198 20q-37 -131 -95 -278.5t-101 -219.5zM123 827q0 57 33.5 93t87.5 36q55 0 88 -35.5t33 -93.5q0 -55 -33 -91t-88 -36h-2q-51 0 -85 37t-34 90z" />
<glyph unicode="&#x3c;" horiz-adv-x="1220" d="M135 487v111l950 489v-141l-800 -401v-4l800 -400v-141z" />
<glyph unicode="=" horiz-adv-x="1220" d="M82 289v123h1057v-123h-1057zM82 690v123h1057v-123h-1057z" />
<glyph unicode="&#x3e;" horiz-adv-x="1220" d="M135 0v141l807 400v4l-807 401v141l950 -487v-115z" />
<glyph unicode="?" horiz-adv-x="831" d="M104 1319q115 84 293 84q166 0 254 -88t88 -215q0 -94 -44 -173t-132 -182q-117 -140 -117 -282v-19l5 -53h-162l-4 53q-2 22 -3 44q0 156 130 311q143 168 143 278q0 80 -50 128t-145 48q-127 0 -206 -63zM246 104q0 57 33.5 93t87.5 36q55 0 87.5 -35.5t32.5 -93.5 q0 -55 -32.5 -91t-87.5 -36h-2q-51 0 -85 37t-34 90z" />
<glyph unicode="@" horiz-adv-x="1509" d="M88 616q0 326 208 556.5t540 230.5q264 0 429 -167t165 -425q0 -221 -105.5 -354t-257.5 -133q-68 0 -111 45t-41 135h-6q-111 -180 -290 -180q-92 0 -157 70.5t-65 187.5q0 197 138.5 341t347.5 144q129 0 219 -43l-68 -371q-14 -68 -13 -115q0 -111 73 -114h6 q80 0 146 100q69 104 69 273q0 229 -131 370.5t-365 141.5q-258 0 -436 -188.5t-178 -493.5q0 -252 147.5 -401.5t378.5 -149.5q184 0 309 71l33 -88q-156 -82 -364 -82q-260 0 -440.5 176t-180.5 463zM532 590q0 -72 35 -114t101 -42q84 0 158.5 88t93.5 191l43 229 q-41 16 -103 16q-135 0 -231.5 -109t-96.5 -259z" />
<glyph unicode="A" horiz-adv-x="1253" d="M51 0l469 1380h215l471 -1380h-190l-148 434h-489l-143 -434h-185zM416 573h415l-137 398q-27 82 -69 252h-7q-31 -135 -67 -250z" />
<glyph unicode="B" horiz-adv-x="1110" d="M156 4v1356q129 31 325 31q256 0 377 -101q117 -86 117 -243q0 -100 -62.5 -182.5t-171.5 -121.5v-6q115 -27 200 -114.5t85 -229.5q0 -164 -119 -276q-137 -129 -475 -129q-157 0 -276 16zM334 1241v-446h162q137 0 217 65.5t80 167.5q0 225 -301 225q-101 0 -158 -12z M334 662v-527q49 -8 149 -8q154 0 254.5 64.5t100.5 203.5q0 133 -100.5 200t-256.5 67h-147z" />
<glyph unicode="C" horiz-adv-x="1187" d="M74 678q0 326 199.5 525.5t521.5 199.5q209 0 327 -62l-45 -145q-115 57 -276 57q-246 0 -392.5 -150.5t-146.5 -418.5q0 -256 140.5 -405.5t388.5 -149.5q174 0 292 57l35 -143q-127 -66 -364 -66q-301 0 -490.5 184.5t-189.5 516.5z" />
<glyph unicode="D" horiz-adv-x="1363" d="M154 4v1358q195 29 381 29q377 0 559 -170q197 -178 196 -498q0 -338 -198 -537q-203 -199 -613 -198q-202 0 -325 16zM334 139q45 -8 180 -8h8q279 0 428 152q152 154 152 441q0 247 -140 385q-142 140 -419 140q-125 0 -209 -18v-1092z" />
<glyph unicode="E" horiz-adv-x="1007" d="M154 0v1380h747v-149h-567v-436h534v-148h-534v-497h598v-150h-778z" />
<glyph unicode="F" horiz-adv-x="997" d="M154 0v1380h743v-149h-563v-459h520v-147h-520v-625h-180z" />
<glyph unicode="G" horiz-adv-x="1323" d="M74 682q0 313 202.5 513t544.5 200q215 0 346 -64l-45 -145q-125 59 -305 59q-254 0 -404.5 -148.5t-150.5 -406.5q0 -260 144.5 -408.5t388.5 -148.5q164 0 237 37v412h-278v143h454v-664q-197 -76 -426 -75q-326 0 -516 182q-192 186 -192 514z" />
<glyph unicode="H" horiz-adv-x="1335" d="M154 0v1380h180v-577h667v577h181v-1380h-181v647h-667v-647h-180z" />
<glyph unicode="I" horiz-adv-x="489" d="M154 0v1380h180v-1380h-180z" />
<glyph unicode="J" horiz-adv-x="757" d="M8 10l25 146q68 -27 151 -27q127 0 189.5 75t62.5 267v909h180v-923q0 -479 -417 -480q-115 0 -191 33z" />
<glyph unicode="K" horiz-adv-x="1110" d="M156 0v1380h178v-665h6q47 68 109 147l421 518h222l-500 -585l538 -795h-210l-453 678l-133 -152v-526h-178z" />
<glyph unicode="L" horiz-adv-x="966" d="M154 0v1380h180v-1230h590v-150h-770z" />
<glyph unicode="M" horiz-adv-x="1646" d="M119 0l96 1380h227l236 -667q82 -246 139 -465h4q49 188 148 465l245 667h228l86 -1380h-176l-33 606q-23 424 -23 596h-4q-94 -303 -174 -524l-244 -670h-135l-225 658q-104 315 -158 536h-4q-6 -264 -26 -610l-37 -592h-170z" />
<glyph unicode="N" horiz-adv-x="1347" d="M156 0v1380h196l441 -698q164 -266 245 -449l6 3q-20 231 -20 565v579h168v-1380h-180l-439 700q-172 272 -256 461l-6 -2q12 -209 13 -569v-590h-168z" />
<glyph unicode="O" horiz-adv-x="1411" d="M74 678q0 326 179 525.5t460 199.5q283 0 452.5 -194.5t169.5 -503.5q0 -342 -182 -535t-457 -193h-2q-276 0 -448 194t-172 507zM260 682q0 -229 120 -394t320 -165h2q205 0 324 164t119 409q0 225 -116 393t-324 168q-211 0 -328 -167.5t-117 -407.5z" />
<glyph unicode="P" horiz-adv-x="1089" d="M156 0v1362q152 29 342 29q260 0 387 -115q123 -106 123 -289q0 -186 -109 -295q-141 -152 -422 -151q-94 0 -143 12v-553h-178zM334 698q55 -14 147 -14q164 0 255 77t91 216q0 135 -87 203.5t-238 68.5q-96 0 -168 -14v-537z" />
<glyph unicode="Q" horiz-adv-x="1411" d="M74 676q0 328 179 527.5t462 199.5q281 0 450.5 -194.5t169.5 -503.5q0 -256 -106.5 -427.5t-286.5 -234.5v-8q221 -55 404 -88l-52 -150q-281 74 -528 160q-61 20 -84 20q-260 10 -434 195t-174 504zM262 680q0 -231 119 -394t321 -163h3q205 0 323.5 164t118.5 409 q0 225 -114.5 393t-321.5 168q-143 0 -248 -82.5t-153 -211.5t-48 -283z" />
<glyph unicode="R" horiz-adv-x="1101" d="M156 0v1360q150 31 342 31q274 0 401 -115q109 -96 109 -262q0 -129 -73 -220.5t-187 -129.5v-7q147 -51 202 -278q76 -319 105 -379h-185q-31 53 -90 330q-31 143 -94 203.5t-184 64.5h-168v-598h-178zM334 733h182q141 0 226 72t85 190q0 129 -85 192.5t-232 63.5 q-115 0 -176 -16v-502z" />
<glyph unicode="S" horiz-adv-x="1009" d="M86 68l47 149q141 -90 318 -90q135 0 211.5 64.5t76.5 170.5q0 94 -60.5 157t-199.5 116q-365 133 -364 393q0 164 123.5 269.5t322.5 105.5q188 0 303 -68l-49 -145q-106 66 -260 65q-129 0 -194.5 -62.5t-65.5 -143.5q0 -94 62.5 -151.5t211.5 -115.5 q182 -72 266.5 -165t84.5 -240q0 -170 -124 -285t-358 -115q-98 0 -196.5 26t-155.5 65z" />
<glyph unicode="T" horiz-adv-x="1017" d="M-2 1229v151h1022v-151h-422v-1229h-180v1229h-420z" />
<glyph unicode="U" horiz-adv-x="1325" d="M154 567v813h180v-819q0 -221 88 -329.5t233 -108.5q158 0 247 108.5t89 329.5v819h180v-807q0 -303 -142 -449.5t-380 -146.5q-227 0 -361 142.5t-134 447.5z" />
<glyph unicode="V" horiz-adv-x="1142" d="M6 1380h195l215 -680q104 -340 147 -516h4q53 215 158 514l233 682h191l-494 -1380h-196z" />
<glyph unicode="W" horiz-adv-x="1732" d="M31 1380h188l164 -698q66 -283 102 -477h4q23 139 113 479l184 696h187l168 -700q74 -315 96 -473h4q27 143 111 477l182 696h182l-391 -1380h-186l-174 717q-68 276 -91 452h-4q-29 -182 -106 -450l-197 -719h-186z" />
<glyph unicode="X" horiz-adv-x="1169" d="M51 0l422 698l-405 682h206l183 -323q86 -150 127 -234h6q49 102 125 234l186 323h207l-420 -671l430 -709h-207l-178 305q-90 145 -158 273h-4q-47 -96 -149 -275l-166 -303h-205z" />
<glyph unicode="Y" horiz-adv-x="1107" d="M25 1380h204l195 -381l137 -284h4q25 57 140 284l198 381h201l-461 -792v-588h-180v586z" />
<glyph unicode="Z" horiz-adv-x="1132" d="M61 0v104l766 1121v6h-700v149h932v-108l-762 -1116v-6h772v-150h-1008z" />
<glyph unicode="[" horiz-adv-x="581" d="M166 -229v1632h375v-113h-234v-1407h234v-112h-375z" />
<glyph unicode="\" horiz-adv-x="708" d="M4 1403h139l568 -1485h-140z" />
<glyph unicode="]" horiz-adv-x="581" d="M41 -117h233v1407h-233v113h375v-1632h-375v112z" />
<glyph unicode="^" horiz-adv-x="1220" d="M125 387l422 944h129l422 -944h-144l-342 795h-4l-342 -795h-141z" />
<glyph unicode="_" horiz-adv-x="1024" d="M0 -154h1024v-102h-1024v102z" />
<glyph unicode="`" horiz-adv-x="614" d="M45 1405h197l180 -293h-127z" />
<glyph unicode="a" horiz-adv-x="987" d="M72 262q0 180 154 276q151 93 430 93h12v20q0 39 -7.5 73t-29 73t-69.5 61.5t-120 22.5q-152 0 -260 -74l-41 121q137 86 328 86q379 0 379 -406v-370q0 -143 14 -238h-162l-16 125h-6q-43 -63 -123 -105.5t-180 -42.5q-143 0 -223 84t-80 201zM252 283q0 -84 48 -128 t120 -44q92 0 155.5 48t88.5 117q8 25 8 58v172h-28q-392 1 -392 -223z" />
<glyph unicode="b" horiz-adv-x="1165" d="M141 0q8 90 9 256v1198h180v-620h4q104 180 338 180q184 0 301 -140.5t117 -363.5q0 -252 -133.5 -392.5t-313.5 -140.5q-223 0 -332 187h-4l-10 -164h-156zM330 575v-178q0 -35 6 -65q27 -94 100.5 -152.5t169.5 -58.5q141 0 221 104.5t80 276.5q0 158 -77.5 264 t-217.5 106q-94 0 -169.5 -60t-102.5 -161q-10 -37 -10 -76z" />
<glyph unicode="c" horiz-adv-x="917" d="M78 485q0 231 146.5 380t385.5 149q152 0 250 -53l-41 -138q-90 47 -209 47q-164 0 -257 -107.5t-93 -268.5q0 -170 97.5 -270.5t246.5 -100.5q115 0 221 47l31 -135q-121 -57 -285 -58q-223 0 -358 139.5t-135 368.5z" />
<glyph unicode="d" horiz-adv-x="1155" d="M78 489q0 236 128 379q130 145 316 146q109 0 186.5 -43t112.5 -107h4v590h181v-1198q0 -166 8 -256h-162l-8 172h-4q-43 -86 -131 -140.5t-205 -54.5q-182 0 -304 140.5t-122 371.5zM260 492q0 -160 77 -264.5t216 -104.5q92 0 166 58.5t98 156.5q8 33 8 78v172 q0 45 -8 78q-20 88 -91 147t-169 59q-137 0 -217 -107t-80 -273z" />
<glyph unicode="e" horiz-adv-x="1026" d="M78 479q0 231 128 384t339 153q115 0 198.5 -46t126.5 -121t62.5 -149.5t19.5 -150.5q0 -55 -6 -86l-694 2q2 -172 97 -258t241 -86q154 0 274 49l33 -127q-141 -63 -332 -63q-225 0 -356 137t-131 362zM254 594h524v13q0 59 -16 114q-18 61 -78.5 113.5t-153.5 52.5 q-125 0 -194.5 -90t-81.5 -203z" />
<glyph unicode="f" horiz-adv-x="598" d="M29 854v137h137v47q0 236 117 346q94 92 239 93q84 0 154 -29l-23 -139q-53 23 -116 22q-193 0 -193 -287v-53h240v-137h-238v-854h-180v854h-137z" />
<glyph unicode="g" horiz-adv-x="1144" d="M78 489q0 240 133 382.5t315 142.5q215 0 310 -170h4l6 147h160q-8 -92 -9 -270v-576q0 -322 -141 -454q-133 -119 -362 -119q-207 0 -330 82l45 139q121 -80 291 -80q147 0 233 84t86 264v109h-4q-43 -74 -124 -120t-191 -46q-184 0 -303 138t-119 347zM260 498 q0 -152 77 -254.5t216 -102.5q86 0 154.5 50.5t95.5 136.5q14 41 14 96v178q0 49 -10 80q-27 84 -91.5 138t-160.5 54q-131 0 -213 -102t-82 -274z" />
<glyph unicode="h" horiz-adv-x="1136" d="M150 1454h180v-618h4q47 84 129 127q84 51 184 51q57 0 111.5 -19.5t111 -63.5t90 -132t33.5 -209v-590h-180v569q0 133 -54 214t-175 81q-84 0 -149.5 -51t-92.5 -129q-12 -29 -12 -86v-598h-180v1454z" />
<glyph unicode="i" horiz-adv-x="479" d="M123 1290q0 49 32.5 82t84 33t83 -33t31.5 -82t-31.5 -82.5t-84.5 -33.5h-2q-49 0 -81 33.5t-32 82.5zM150 0v991h180v-991h-180z" />
<glyph unicode="j" horiz-adv-x="497" d="M-94 -291q137 10 196 76q39 43 54.5 122t15.5 251v833h180v-903q0 -287 -119 -407q-55 -55 -141 -84t-166 -29zM145 1290q0 49 33 82t84 33t83 -33t32 -82t-32 -82.5t-85 -33.5h-2q-49 0 -81 33.5t-32 82.5z" />
<glyph unicode="k" horiz-adv-x="960" d="M150 0v1454h180v-917h4q53 74 86 112l293 342h215l-383 -407l436 -584h-219l-340 477l-92 -104v-373h-180z" />
<glyph unicode="l" horiz-adv-x="479" d="M150 0v1454h180v-1454h-180z" />
<glyph unicode="m" horiz-adv-x="1708" d="M141 991h158l8 -160h6q106 182 314 183q98 0 171.5 -54.5t106.5 -144.5h4q39 74 113 129q92 70 217 70q55 0 108.5 -19.5t104.5 -64.5t83 -134t32 -212v-584h-176v561q0 147 -54.5 226t-160.5 79q-74 0 -131.5 -46t-83.5 -115q-14 -47 -15 -91v-614h-176v594 q0 123 -53 197.5t-154 74.5q-78 0 -139.5 -53t-83.5 -127q-14 -37 -14 -88v-598h-176v723q-1 104 -9 268z" />
<glyph unicode="n" horiz-adv-x="1136" d="M141 991h160l10 -162h4q41 76 127 130.5t201 54.5q57 0 113.5 -19.5t112 -63.5t90 -131t34.5 -208v-592h-180v571q0 131 -55.5 213t-173.5 82q-84 0 -149.5 -53t-92.5 -131q-12 -35 -12 -84v-598h-180v723q-1 159 -9 268z" />
<glyph unicode="o" horiz-adv-x="1124" d="M78 487q0 242 140 384.5t351 142.5q213 0 345.5 -141.5t132.5 -366.5q0 -258 -147.5 -393.5t-344.5 -135.5h-2q-205 0 -340 140.5t-135 369.5zM260 494q0 -164 84 -272.5t213 -108.5h2q129 0 215 109.5t86 277.5q0 145 -74.5 262t-222 117t-225.5 -114.5t-78 -270.5z" />
<glyph unicode="p" horiz-adv-x="1165" d="M141 991h162l10 -170h4q113 193 351 193q182 0 302 -140.5t120 -363.5q0 -254 -132.5 -393.5t-318.5 -139.5q-211 0 -305 156h-4v-539h-180v1074q-1 198 -9 323zM330 575v-172q0 -43 8 -73q23 -94 97.5 -152.5t170.5 -58.5q141 0 221 104.5t80 278.5q0 156 -77.5 262 t-215.5 106q-94 0 -170.5 -60t-103.5 -161q-10 -62 -10 -74z" />
<glyph unicode="q" horiz-adv-x="1153" d="M78 479q0 258 136 396.5t312 138.5q217 0 305 -172h5l6 149h172q-8 -109 -8 -272v-1125h-181v558h-4q-43 -78 -126 -126.5t-197 -48.5q-178 0 -299 139.5t-121 362.5zM260 489q0 -158 76 -263t217 -105q88 0 157.5 52t100.5 144q14 43 14 86v187q0 45 -8 76 q-23 88 -92.5 146t-165.5 58q-137 0 -218 -105.5t-81 -275.5z" />
<glyph unicode="r" horiz-adv-x="669" d="M143 991h158l8 -194h6q33 98 109 157.5t168 59.5q25 0 49 -6v-168q-41 4 -63 4q-94 0 -159 -63.5t-83 -166.5q-6 -41 -6 -86v-528h-180l2 682q-1 186 -9 309z" />
<glyph unicode="s" horiz-adv-x="811" d="M82 47l43 135q117 -70 240 -69q92 0 141 41t49 106q0 63 -41 104.5t-141 77.5q-264 96 -264 281q0 123 94 207t248 84q147 0 241 -62l-43 -129q-98 57 -203 58q-78 0 -120.5 -39t-42.5 -97q0 -59 42 -95t144 -75q131 -49 195.5 -119.5t64.5 -179.5q0 -135 -98.5 -217 t-270.5 -82q-159 0 -278 70z" />
<glyph unicode="t" horiz-adv-x="677" d="M37 854v137h153v183l177 55v-238h258v-137h-258v-535q0 -193 135 -192q63 0 104 12l8 -137q-70 -25 -159 -25q-125 0 -195 76q-70 78 -70 260v541h-153z" />
<glyph unicode="u" horiz-adv-x="1128" d="M143 412v579h181v-547q0 -317 221 -317q84 0 147.5 49t89.5 117q16 39 17 92v606h180v-721q0 -166 8 -270h-160l-10 162h-4q-41 -74 -125 -129.5t-203 -55.5q-63 0 -119.5 20.5t-108.5 67t-83 135.5t-31 212z" />
<glyph unicode="v" horiz-adv-x="985" d="M27 991h192l195 -555q53 -150 80 -256h6q25 88 84 256l192 555h189l-390 -991h-172z" />
<glyph unicode="w" horiz-adv-x="1507" d="M37 991h184l133 -502q57 -240 72 -317h6q20 92 88 315l162 504h152l153 -495q53 -168 88 -324h6q20 123 76 322l141 497h179l-320 -991h-164l-151 473q-59 195 -88 328h-4q-31 -147 -91 -330l-159 -471h-164z" />
<glyph unicode="x" horiz-adv-x="948" d="M16 0l353 506l-336 485h200l142 -211l100 -162h6q37 66 101 162l137 211h196l-337 -479l346 -512h-205l-146 223q-41 61 -106 172h-4q-18 -35 -105 -172l-143 -223h-199z" />
<glyph unicode="y" horiz-adv-x="964" d="M18 991h197l215 -585q37 -96 66 -203h4q2 6 25.5 85t37.5 122l197 581h190l-270 -706q-100 -264 -175 -403.5t-165 -219.5q-113 -94 -221 -115l-45 152q84 23 157 88q92 72 152 201q14 33 14 43q0 16 -14 45z" />
<glyph unicode="z" horiz-adv-x="876" d="M37 0v104l448 584l131 156v4h-538v143h756v-112l-445 -578q-72 -94 -127 -154v-4h580v-143h-805z" />
<glyph unicode="{" horiz-adv-x="581" d="M57 537v104q98 0 132 42t34 110q0 57 -16.5 171.5t-16.5 170.5q0 135 81 201.5t218 66.5h41v-113h-34q-164 -2 -164 -176q0 -31 14 -145q16 -102 16 -156q2 -180 -147 -221v-4q150 -37 147 -223q0 -57 -16 -156q-14 -119 -14 -148q0 -176 164 -178h34v-112h-43 q-297 0 -297 280q0 68 19 168q14 129 14 164q0 154 -166 154z" />
<glyph unicode="|" horiz-adv-x="489" d="M176 -512v2048h137v-2048h-137z" />
<glyph unicode="}" horiz-adv-x="581" d="M51 -117h35q164 2 164 178q0 29 -14 148q-16 98 -17 161q0 182 148 218v4q-147 40 -148 216q0 58 17 161q14 115 14 145q0 174 -164 176h-35v113h41q137 0 218 -66.5t81 -201.5q0 -55 -16.5 -170t-16.5 -172q0 -68 34 -110t132 -42v-104q-166 0 -166 -154 q0 -53 16.5 -163.5t16.5 -168.5q0 -281 -297 -280h-43v112z" />
<glyph unicode="~" horiz-adv-x="1220" d="M100 432v17q0 136 65 210q69 80 179 80q61 0 119.5 -19.5t171.5 -72.5q180 -86 254 -86q106 0 110 172h121q1 -13 1 -26q0 -140 -61 -208q-67 -75 -173 -75q-102 0 -297 90l-40 20q-28 13 -39 19t-33.5 16.5t-36.5 14.5l-31 10q-18 6 -34 8t-32 2q-119 0 -121 -172h-123z " />
<glyph unicode="&#xa1;" horiz-adv-x="471" d="M115 872.5q0 55.5 33.5 91t87.5 35.5h2q53 0 85.5 -35.5t32.5 -91t-32.5 -91.5t-87.5 -36q-53 0 -87 36t-34 91.5zM137 -397l29 977h139l29 -977h-197z" />
<glyph unicode="&#xa2;" d="M137 668q0 199 112.5 337t299.5 169v206h129v-202q127 -2 223 -52l-41 -137q-90 51 -215 51q-147 0 -237.5 -105.5t-90.5 -260.5q0 -164 91.5 -261.5t230.5 -97.5q131 0 233 52l31 -131q-88 -51 -225 -60v-207h-129v209q-180 20 -295 144q-117 127 -117 346z" />
<glyph unicode="&#xa3;" d="M113 0v102q106 53 169.5 149.5t63.5 209.5q0 76 -10 143h-209v129h190q-23 135 -22 221q0 180 110.5 290t282.5 110q141 0 223 -51l-39 -136q-74 41 -184 41q-115 0 -169 -69.5t-54 -186.5q0 -98 22 -219h293v-129h-276q5 -56 4 -102q0 -77 -12 -127q-33 -129 -142 -221 v-4h611v-150h-852z" />
<glyph unicode="&#xa4;" d="M57 1071l93 94l139 -155q98 84 235 84h2q143 0 236 -82l145 153l92 -94l-161 -145q72 -96 71 -242q0 -156 -71 -250l153 -151l-90 -90l-141 155q-92 -86 -240 -86q-145 0 -233 82l-137 -151l-89 90l148 143q-76 102 -76 248q0 150 80 252zM281 676q0 -137 75.5 -211 t165.5 -74q98 0 171 73t73 218q0 115 -64.5 199t-177.5 84h-2q-109 0 -175 -83t-66 -206z" />
<glyph unicode="&#xa5;" d="M33 1331h192l213 -422q49 -104 82 -186h6q33 92 82 190l221 418h189l-367 -620h267v-101h-320v-149h320v-101h-320v-360h-170v360h-317v101h317v149h-317v101h268z" />
<glyph unicode="&#xa6;" horiz-adv-x="489" d="M176 356h137v-716h-137v716zM176 664v716h137v-716h-137z" />
<glyph unicode="&#xa7;" horiz-adv-x="1062" d="M121 694q0 141 151 242q-33 23 -54 71t-21 99q0 133 107.5 212t269 79t282.5 -68l-45 -117q-102 66 -244 66q-92 0 -152.5 -42t-60.5 -110q0 -72 60.5 -111.5t195.5 -84.5q164 -53 248 -124t84 -198q0 -147 -131 -248q78 -74 78 -182q0 -150 -115 -228.5t-274 -78.5 q-205 0 -322 86l49 117q115 -82 273 -82q100 0 163.5 44t63.5 122q0 72 -53 118t-197 97q-180 61 -268 130.5t-88 190.5zM268 719q0 -57 49.5 -104.5t165.5 -90.5q180 -63 234 -98q78 61 78 158q0 127 -183 190q-213 82 -252 105q-92 -63 -92 -158v-2z" />
<glyph unicode="&#xa8;" horiz-adv-x="614" d="M18 1243q0 41 30 72t73 31q41 0 69.5 -30t28.5 -73t-27.5 -72.5t-70.5 -29.5h-2q-43 0 -72 29.5t-29 72.5zM393 1243q0 43 30 73t73 30q41 0 69.5 -30t28.5 -73t-27.5 -72.5t-72.5 -29.5h-2q-43 0 -71 29.5t-28 72.5z" />
<glyph unicode="&#xa9;" horiz-adv-x="1386" d="M74 696q0 262 181 446.5t441 184.5h2q258 0 436.5 -184.5t178.5 -446.5q0 -264 -179.5 -449.5t-437.5 -185.5q-260 0 -441 185.5t-181 449.5zM178 690q0 -229 149.5 -387t370.5 -158h6q213 0 360 158q148 160 148 393q0 229 -148.5 388t-365.5 159h-2q-219 0 -368.5 -160 t-149.5 -393zM354 684q0 170 115 275.5t276 105.5q74 0 137.5 -17.5t88.5 -37.5l-25 -82q-80 49 -201 49q-137 0 -210.5 -79t-73.5 -208q0 -125 75.5 -207t211.5 -82q127 0 208 54l25 -78q-96 -63 -252 -64q-174 0 -274.5 105.5t-100.5 265.5z" />
<glyph unicode="&#xaa;" horiz-adv-x="708" d="M68 729q0 113 108 175q102 59 280 59h23v20q0 16 -5 34.5t-19.5 41t-48 37t-80.5 14.5q-102 0 -174 -53l-33 86q94 68 233 67q260 0 260 -286v-219q0 -82 11 -160h-121l-10 86h-5q-84 -96 -208 -96q-98 0 -154.5 55t-56.5 139zM203 739q0 -49 34.5 -77.5t84.5 -28.5 q92 0 139 74q20 29 20 55v112q-15 0 -29 1q-249 0 -249 -136z" />
<glyph unicode="&#xab;" horiz-adv-x="858" d="M59 516l271 377h145l-272 -377l274 -377h-145zM395 516l271 377h145l-272 -377l274 -377h-145z" />
<glyph unicode="&#xac;" horiz-adv-x="1220" d="M82 694v123h1057v-569h-131v446h-926z" />
<glyph unicode="&#xad;" horiz-adv-x="628" d="M61 487v131h506v-131h-506z" />
<glyph unicode="&#xae;" horiz-adv-x="1044" d="M68 938q0 193 134 327t322 134h2q188 0 320.5 -134.5t132.5 -326.5q0 -195 -132 -329t-322.5 -134t-323.5 134t-133 329zM156 938q0 -164 108.5 -277.5t261.5 -113.5h6q150 0 255 111q108 114 108 278t-107.5 277.5t-261.5 113.5h-2q-152 0 -260 -113.5t-108 -275.5z M356 670v514q86 12 146 12q106 0 160 -39q47 -35 47 -106q0 -94 -101 -125v-4q72 -12 86 -125q14 -88 33 -127h-86q-18 25 -35 131q-16 90 -110 90h-58v-221h-82zM438 954h60q125 0 125 88q0 39 -31 65t-94 26q-31 0 -60 -5v-174z" />
<glyph unicode="&#xaf;" horiz-adv-x="614" d="M78 1198v111h461v-111h-461z" />
<glyph unicode="&#xb0;" horiz-adv-x="651" d="M59 1128q0 117 79 196t194 79h2q121 0 194.5 -79t73.5 -187q0 -119 -82 -196t-192 -77q-117 0 -193 76.5t-76 187.5zM172 1128q0 -72 45 -119.5t114.5 -47.5t116 49t46.5 125q0 66 -41 119t-121 53h-2q-74 0 -116 -54.5t-42 -124.5z" />
<glyph unicode="&#xb1;" horiz-adv-x="1220" d="M82 0v123h1057v-123h-1057zM82 649v123h463v397h131v-397h463v-123h-463v-409h-131v409h-463z" />
<glyph unicode="&#xb2;" horiz-adv-x="718" d="M90 545v76l129 118q141 131 199.5 207t58.5 150q0 63 -40 103t-115 40q-86 0 -172 -63l-44 94q102 84 252 84q133 0 202 -68.5t69 -161.5q0 -106 -64.5 -192t-208.5 -213l-61 -57v-5h348v-112h-553z" />
<glyph unicode="&#xb3;" horiz-adv-x="696" d="M72 592l37 102q78 -53 190 -53q88 0 135 42q45 40 45 91q0 76 -63.5 112t-153.5 36h-55v94h57q70 0 128.5 32.5t58.5 96.5q0 43 -33 72.5t-96 29.5q-94 0 -175 -55l-34 98q98 63 235 64q125 0 187.5 -55.5t62.5 -137.5q0 -63 -42 -111.5t-116 -74.5v-4 q84 -10 137.5 -65.5t53.5 -131.5q0 -100 -87 -169.5t-237 -69.5q-147 0 -235 57z" />
<glyph unicode="&#xb4;" horiz-adv-x="614" d="M207 1112l180 293h197l-250 -293h-127z" />
<glyph unicode="&#xb5;" horiz-adv-x="1128" d="M143 -406v1397h181v-561q0 -303 225 -303q100 0 173 74.5t77 160.5v629h180v-721q0 -166 8 -270h-160l-10 164h-4q-39 -74 -114.5 -129t-184.5 -55q-145 0 -207 112h-6l10 -498h-168z" />
<glyph unicode="&#xb6;" horiz-adv-x="1048" d="M70 930q0 88 25.5 162.5t86 143.5t176 108.5t275.5 39.5q158 0 239 -16v-1468h-127v1362h-145v-1362h-127v641h-14q-139 0 -263 104.5t-126 284.5z" />
<glyph unicode="&#xb7;" horiz-adv-x="423" d="M90 559q0 57 35 93t88 36t87 -36t34 -93q0 -55 -34 -91t-89 -36h-2q-51 0 -85 37t-34 90z" />
<glyph unicode="&#xb8;" horiz-adv-x="614" d="M111 -373l30 86q53 -29 111 -28q88 0 88 63q-2 72 -160 86l96 172h113l-67 -108q59 -6 101 -45t42 -97q0 -86 -60.5 -126t-154.5 -40q-82 0 -139 37z" />
<glyph unicode="&#xb9;" horiz-adv-x="653" d="M125 1253l192 90h125v-798h-143v674h-4l-148 -72z" />
<glyph unicode="&#xba;" horiz-adv-x="727" d="M37 866q0 156 96 250t234 94h2q145 0 233 -93t88 -240q-2 -166 -99 -254t-229 -88q-139 0 -232 92t-93 239zM176 870q0 -100 56.5 -166.5t134.5 -66.5q82 0 135 65.5t53 169.5q0 90 -49 163t-141 73h-3q-90 0 -138 -73t-48 -165z" />
<glyph unicode="&#xbb;" horiz-adv-x="858" d="M47 893h146l272 -377l-272 -377h-144l273 377zM381 893h145l273 -377l-273 -377h-143l272 377z" />
<glyph unicode="&#xbc;" horiz-adv-x="1554" d="M88 1253l193 90h125v-798h-144v674h-4l-147 -72zM283 -23l778 1377h115l-777 -1377h-116zM813 211v80l395 518h150v-498h123v-100h-123v-211h-135v211h-410zM961 313l2 -2h260v242q0 12 6 129h-4l-33 -55l-35 -58z" />
<glyph unicode="&#xbd;" horiz-adv-x="1554" d="M59 1253l193 90h125v-798h-144v674h-4l-147 -72zM244 -23l776 1377h115l-777 -1377h-114zM901 0v76l129 119q139 127 198.5 204.5t59.5 151.5q0 61 -40 102t-115 41q-86 0 -172 -63l-43 94q102 84 251 84q133 0 202 -68.5t69 -162.5q0 -104 -65.5 -190.5t-207.5 -213.5 l-61 -57v-4h348v-113h-553z" />
<glyph unicode="&#xbe;" horiz-adv-x="1554" d="M61 592l37 102q86 -53 191 -53q88 0 135 42q45 40 45 91q0 76 -63.5 112t-155.5 36h-55v94h57q70 0 128 32.5t58 96.5q0 43 -32.5 72.5t-98.5 29.5q-94 0 -170 -55l-37 96q94 66 234 66q125 0 188.5 -55.5t63.5 -137.5q0 -61 -41 -110.5t-115 -75.5v-4 q84 -10 137.5 -64.5t53.5 -132.5q0 -100 -87.5 -169.5t-236.5 -69.5q-148 0 -236 57zM358 -23l779 1377h114l-776 -1377h-117zM836 211v80l395 518h149v-498h123v-100h-123v-211h-135v211h-409zM981 313l2 -2h262v242q0 18 6 129h-4q-59 -102 -67 -113z" />
<glyph unicode="&#xbf;" horiz-adv-x="831" d="M115 -125q0 94 44 173t132 181q117 142 117 285v18l-5 54h162l4 -54q2 -22 3 -43q0 -156 -130 -311q-76 -90 -109.5 -152.5t-33.5 -127.5q0 -80 50 -128.5t145 -48.5q119 0 208 64l48 -129q-119 -84 -293 -84q-166 0 -254 88t-88 215zM365 870q0 57 33.5 93t86.5 36h2 q53 0 86 -35.5t33 -93.5q0 -55 -32.5 -91t-88.5 -36q-53 0 -86.5 36t-33.5 91z" />
<glyph unicode="&#xc0;" horiz-adv-x="1253" d="M51 0l469 1380h215l471 -1380h-190l-148 434h-489l-143 -434h-185zM319 1696h218l190 -240h-143zM416 573h415l-137 398q-27 82 -69 252h-7q-31 -135 -67 -250z" />
<glyph unicode="&#xc1;" horiz-adv-x="1253" d="M51 0l469 1380h215l471 -1380h-190l-148 434h-489l-143 -434h-185zM416 573h415l-137 398q-27 82 -69 252h-7q-31 -135 -67 -250zM532 1454l193 242h215l-262 -242h-146z" />
<glyph unicode="&#xc2;" horiz-adv-x="1253" d="M51 0l469 1380h215l471 -1380h-190l-148 434h-489l-143 -434h-185zM362 1454l209 242h131l213 -242h-147l-129 152h-4l-129 -152h-144zM416 573h415l-137 398q-27 82 -69 252h-7q-31 -135 -67 -250z" />
<glyph unicode="&#xc3;" horiz-adv-x="1253" d="M53 0l467 1380h215l471 -1380h-190l-148 434h-489l-141 -434h-185zM375 1464q0 9 -1 18q0 78 34 129q37 56 100 56q51 0 127 -43q59 -37 96 -37q29 0 43 17.5t17 66.5h92v-11q0 -184 -138 -183q-51 0 -124.5 38.5t-100.5 38.5q-43 0 -53 -90h-92zM416 573h415l-137 398 q-27 82 -69 252h-7q-31 -135 -67 -250z" />
<glyph unicode="&#xc4;" horiz-adv-x="1253" d="M51 0l469 1380h217l471 -1380h-190l-150 434h-489l-143 -434h-185zM346 1579q0 43 28.5 73.5t71.5 30.5t71 -29.5t28 -74.5q0 -43 -28 -72.5t-71 -29.5h-2q-43 0 -70.5 29.5t-27.5 72.5zM416 573h418l-138 398q-29 84 -71 252h-4q-41 -158 -70 -250zM723 1579 q0 43 28.5 73.5t71.5 30.5t71 -29.5t28 -74.5q0 -43 -28 -72.5t-73 -29.5h-2q-43 0 -69.5 29.5t-26.5 72.5z" />
<glyph unicode="&#xc5;" horiz-adv-x="1253" d="M55 0l461 1360q-45 16 -72.5 57t-27.5 92q0 82 60.5 137.5t160.5 55.5q102 0 160.5 -53.5t58.5 -139.5q0 -53 -30.5 -95t-80.5 -58l463 -1356h-190l-148 434h-489l-141 -434h-185zM416 573h418l-140 406q-20 59 -69 242h-4q-16 -82 -60 -220zM526 1511q0 -43 30 -75.5 t79 -32.5q51 0 80.5 31.5t29.5 78.5q0 49 -29.5 81t-80.5 32h-2q-49 0 -78 -33t-29 -82z" />
<glyph unicode="&#xc6;" horiz-adv-x="1613" d="M-2 0l631 1380h862v-149h-586l53 -440h515v-148h-492l61 -493h504v-150h-659l-62 485h-422l-221 -485h-184zM463 631h344l-45 397q-20 164 -25 223h-8q-35 -92 -88 -217z" />
<glyph unicode="&#xc7;" horiz-adv-x="1198" d="M74 678q0 326 199.5 525.5t521.5 199.5q209 0 327 -62l-43 -145q-119 57 -278 57q-246 0 -392.5 -150.5t-146.5 -418.5q0 -256 140.5 -405.5t388.5 -149.5q174 0 292 57l37 -143q-129 -63 -368 -66l-52 -79q59 -8 101.5 -48t42.5 -98q0 -82 -60.5 -122t-152.5 -40 q-80 0 -142 35l31 88q51 -29 111 -28q86 0 86 63q0 70 -158 86l84 152q-256 33 -412.5 212t-156.5 480z" />
<glyph unicode="&#xc8;" horiz-adv-x="1007" d="M154 0v1380h747v-149h-567v-436h534v-148h-534v-497h598v-150h-778zM250 1696h217l190 -240h-143z" />
<glyph unicode="&#xc9;" horiz-adv-x="1007" d="M154 0v1380h747v-149h-567v-436h534v-148h-534v-497h598v-150h-778zM426 1454l192 242h218l-265 -242h-145z" />
<glyph unicode="&#xca;" horiz-adv-x="1007" d="M154 0v1380h747v-149h-567v-436h534v-148h-534v-497h598v-150h-778zM252 1454l209 242h131l213 -242h-148l-129 152h-4l-129 -152h-143z" />
<glyph unicode="&#xcb;" horiz-adv-x="1007" d="M154 0v1380h747v-149h-567v-436h534v-148h-534v-497h598v-150h-778zM246 1581q0 43 28.5 72.5t71.5 29.5t70.5 -29.5t27.5 -72.5q0 -45 -27.5 -74.5t-70.5 -29.5h-2q-43 0 -70.5 30.5t-27.5 73.5zM623 1581q0 43 28.5 72.5t71.5 29.5t70.5 -29.5t27.5 -72.5 q0 -45 -27.5 -74.5t-72.5 -29.5h-2q-43 0 -69.5 30.5t-26.5 73.5z" />
<glyph unicode="&#xcc;" horiz-adv-x="489" d="M-57 1696h215l192 -240h-145zM154 0v1380h180v-1380h-180z" />
<glyph unicode="&#xcd;" horiz-adv-x="489" d="M139 1454l193 242h215l-262 -242h-146zM154 0v1380h180v-1380h-180z" />
<glyph unicode="&#xce;" horiz-adv-x="489" d="M-33 1454l209 242h131l213 -242h-147l-129 152h-4l-129 -152h-144zM154 0v1380h180v-1380h-180z" />
<glyph unicode="&#xcf;" horiz-adv-x="489" d="M-43 1579q0 43 28.5 73.5t71.5 30.5t70 -29.5t27 -74.5q0 -43 -27 -72.5t-70 -29.5h-2q-43 0 -70.5 29.5t-27.5 72.5zM154 0v1380h180v-1380h-180zM332 1579q0 43 28.5 73.5t71.5 30.5t70.5 -29.5t27.5 -74.5q0 -43 -27.5 -72.5t-72.5 -29.5h-2q-43 0 -69.5 29.5 t-26.5 72.5z" />
<glyph unicode="&#xd0;" horiz-adv-x="1374" d="M-4 772h168v596q193 29 381 29q377 0 557 -170q197 -178 196 -504q0 -340 -198 -539q-203 -199 -611 -198q-197 0 -325 14v629h-168v143zM344 137q45 -8 178 -8q287 0 437.5 152.5t150.5 446.5q0 249 -139 387q-141 140 -418 140q-125 0 -209 -18v-465h369v-143h-369 v-492z" />
<glyph unicode="&#xd1;" horiz-adv-x="1347" d="M156 0v1380h196l441 -698q164 -266 245 -449l6 3q-20 231 -20 565v579h168v-1380h-180l-439 700q-182 295 -256 461l-6 -2q12 -209 13 -569v-590h-168zM440 1464v18q0 78 33 129q37 56 100 56q51 0 127 -43q59 -37 97 -37q29 0 43 17.5t16 66.5h92v-11q0 -184 -137 -183 q-51 0 -125 38.5t-100 38.5q-43 0 -54 -90h-92z" />
<glyph unicode="&#xd2;" horiz-adv-x="1411" d="M74 678q0 326 179 525.5t460 199.5q283 0 452.5 -194.5t169.5 -503.5q0 -342 -182 -535t-457 -193h-2q-276 0 -448 194t-172 507zM260 682q0 -229 120 -394t320 -165h2q205 0 324 164t119 409q0 225 -116 393t-324 168q-211 0 -328 -167.5t-117 -407.5zM395 1696h217 l191 -240h-144z" />
<glyph unicode="&#xd3;" horiz-adv-x="1411" d="M74 678q0 326 179 525.5t460 199.5q283 0 452.5 -194.5t169.5 -503.5q0 -342 -182 -535t-457 -193h-2q-276 0 -448 194t-172 507zM260 682q0 -229 120 -394t320 -165h2q205 0 324 164t119 409q0 225 -116 393t-324 168q-211 0 -328 -167.5t-117 -407.5zM618 1454l193 242 h217l-264 -242h-146z" />
<glyph unicode="&#xd4;" horiz-adv-x="1411" d="M74 678q0 326 179 525.5t460 199.5q283 0 452.5 -194.5t169.5 -503.5q0 -342 -182 -535t-457 -193h-2q-276 0 -448 194t-172 507zM260 682q0 -229 120 -394t320 -165h2q205 0 324 164t119 409q0 225 -116 393t-324 168q-211 0 -328 -167.5t-117 -407.5zM428 1454l209 242 h131l213 -242h-147l-129 152h-5l-127 -152h-145z" />
<glyph unicode="&#xd5;" horiz-adv-x="1411" d="M74 678q0 326 179 525.5t460 199.5q283 0 452.5 -194.5t169.5 -503.5q0 -342 -182 -535t-457 -193h-2q-276 0 -448 194t-172 507zM260 682q0 -229 120 -394t320 -165h2q205 0 324 164t119 409q0 225 -116 393t-324 168q-211 0 -328 -167.5t-117 -407.5zM451 1464 q0 9 -1 18q0 78 34 129q38 56 102 56q49 0 125 -43q63 -37 98 -37q29 0 42 17.5t17 66.5h93v-10q0 -184 -140 -184q-47 0 -125 39q-74 39 -100 38q-43 0 -53 -90h-92z" />
<glyph unicode="&#xd6;" horiz-adv-x="1411" d="M74 678q0 326 180 525.5t460.5 199.5t450.5 -194.5t170 -503.5q0 -342 -181 -535t-456 -193h-2q-276 0 -449 194t-173 507zM260 682q0 -229 120 -394t320 -165h2q207 0 325 164t118 409q0 225 -116 393t-324 168q-211 0 -328 -167.5t-117 -407.5zM418 1579 q0 43 28.5 73.5t71.5 30.5t70.5 -29.5t27.5 -74.5q0 -43 -27.5 -72.5t-70.5 -29.5h-2q-43 0 -70.5 29.5t-27.5 72.5zM795 1579q0 43 28.5 73.5t71.5 30.5t70.5 -29.5t27.5 -74.5q0 -43 -27.5 -72.5t-72.5 -29.5h-2q-43 0 -69.5 29.5t-26.5 72.5z" />
<glyph unicode="&#xd7;" horiz-adv-x="1220" d="M82 90l440 449l-440 448l90 90l438 -448l439 448l90 -90l-439 -448l439 -449l-90 -90l-439 449l-438 -449z" />
<glyph unicode="&#xd8;" horiz-adv-x="1411" d="M74 682q0 324 180 522.5t457 198.5q195 0 344 -109l121 166l108 -74l-127 -176q178 -195 178 -508q0 -344 -182 -534.5t-446 -190.5q-197 0 -349 111l-129 -176l-100 80l127 178q-182 199 -182 512zM256 690q0 -199 100 -368l4 2l607 839q-113 96 -260 97 q-213 0 -332 -168.5t-119 -401.5zM446 219q104 -98 259 -98q207 0 327.5 166t120.5 409q0 199 -96 359h-6z" />
<glyph unicode="&#xd9;" horiz-adv-x="1325" d="M154 567v813h180v-819q0 -221 88 -329.5t233 -108.5q158 0 247 108.5t89 329.5v819h180v-807q0 -303 -142 -449.5t-380 -146.5q-227 0 -361 142.5t-134 447.5zM371 1696h217l192 -240h-145z" />
<glyph unicode="&#xda;" horiz-adv-x="1325" d="M154 567v813h180v-819q0 -221 88 -329.5t233 -108.5q158 0 247 108.5t89 329.5v819h180v-807q0 -303 -142 -449.5t-380 -146.5q-227 0 -361 142.5t-134 447.5zM569 1454l191 242h217l-264 -242h-144z" />
<glyph unicode="&#xdb;" horiz-adv-x="1325" d="M154 567v813h180v-819q0 -221 88 -329.5t233 -108.5q158 0 247 108.5t89 329.5v819h180v-807q0 -303 -142 -449.5t-380 -146.5q-227 0 -361 142.5t-134 447.5zM401 1454l207 242h131l213 -242h-147l-129 152h-4l-127 -152h-144z" />
<glyph unicode="&#xdc;" horiz-adv-x="1325" d="M154 567v813h180v-819q0 -221 88 -329.5t235 -108.5q156 0 245 108.5t89 329.5v819h180v-807q0 -303 -142 -449.5t-380 -146.5q-227 0 -361 142.5t-134 447.5zM381 1579q0 43 28.5 73.5t71.5 30.5t71 -29.5t28 -74.5q0 -43 -28 -72.5t-71 -29.5h-2q-43 0 -70.5 29.5 t-27.5 72.5zM756 1579q0 43 28.5 73.5t71.5 30.5t70.5 -29.5t27.5 -74.5q0 -43 -27.5 -72.5t-72.5 -29.5h-2q-43 0 -69.5 29.5t-26.5 72.5z" />
<glyph unicode="&#xdd;" horiz-adv-x="1107" d="M25 1380h204l195 -381l137 -284h4q25 57 140 284l198 381h201l-461 -792v-588h-180v586zM479 1454l193 242h215l-262 -242h-146z" />
<glyph unicode="&#xde;" horiz-adv-x="1087" d="M156 1380h176v-268q78 14 196 14q240 0 365 -112q113 -102 113 -266q0 -213 -142.5 -326t-376.5 -113q-84 0 -155 10v-319h-176v1380zM332 465q57 -12 153 -12q164 0 253 73.5t89 200.5q0 129 -85 193.5t-230 64.5q-115 0 -180 -16v-504z" />
<glyph unicode="&#xdf;" horiz-adv-x="1122" d="M150 0v926q0 315 147 446q113 104 297 105q156 0 261.5 -92.5t105.5 -254.5q0 -94 -48 -167q-147 -61 -147 -166q0 -33 14.5 -65t32.5 -52l57 -62q53 -53 82 -86.5t56.5 -96t27.5 -132.5q0 -145 -99 -235.5t-267 -90.5q-133 0 -217 43l32 138q82 -41 172 -41 q94 0 147.5 49t53.5 123q0 106 -110 211q-80 76 -120 135t-40 137q0 164 182 252q18 37 18 88q0 104 -58 163.5t-155 59.5q-123 0 -184 -94t-61 -307v-934h-180z" />
<glyph unicode="&#xe0;" horiz-adv-x="987" d="M72 262q0 180 154 276q151 93 430 93h12v20q0 39 -7.5 73t-29 73t-69.5 61.5t-120 22.5q-152 0 -260 -74l-41 121q137 86 328 86q379 0 379 -406v-370q0 -143 14 -238h-162l-16 125h-6q-43 -63 -123 -105.5t-180 -42.5q-143 0 -223 84t-80 201zM195 1405h196l180 -293 h-127zM252 283q0 -84 48 -128t120 -44q92 0 155.5 48t88.5 117q8 25 8 58v172h-28q-392 1 -392 -223z" />
<glyph unicode="&#xe1;" horiz-adv-x="987" d="M72 262q0 180 154 276q151 93 430 93h12v20q0 39 -7.5 73t-29 73t-69.5 61.5t-120 22.5q-152 0 -260 -74l-41 121q137 86 328 86q379 0 379 -406v-370q0 -143 14 -238h-162l-16 125h-6q-43 -63 -123 -105.5t-180 -42.5q-143 0 -223 84t-80 201zM252 283q0 -84 48 -128 t120 -44q92 0 155.5 48t88.5 117q8 25 8 58v172h-28q-392 1 -392 -223zM385 1112l180 293h197l-250 -293h-127z" />
<glyph unicode="&#xe2;" horiz-adv-x="987" d="M72 262q0 180 154 276q151 93 430 93h12v20q0 39 -7.5 73t-29 73t-69.5 61.5t-120 22.5q-152 0 -260 -74l-41 121q137 86 328 86q379 0 379 -406v-370q0 -143 14 -238h-162l-16 125h-6q-43 -63 -123 -105.5t-180 -42.5q-143 0 -223 84t-80 201zM231 1112l193 293h119 l196 -293h-135l-119 193h-4l-119 -193h-131zM252 283q0 -84 48 -128t120 -44q92 0 155.5 48t88.5 117q8 25 8 58v172h-28q-392 1 -392 -223z" />
<glyph unicode="&#xe3;" horiz-adv-x="987" d="M72 262q0 180 154 276q151 93 430 93h12v20q0 39 -7.5 73t-29 73t-69.5 61.5t-120 22.5q-152 0 -260 -74l-41 121q137 86 328 86q379 0 379 -406v-370q0 -143 14 -238h-162l-16 125h-6q-43 -63 -123 -105.5t-180 -42.5q-143 0 -223 84t-80 201zM238 1149q0 94 32 145 q39 59 101 60q45 0 131 -47q57 -35 92 -35q47 0 53 86h90v-11q0 -186 -137 -186q-49 0 -125 45q-63 35 -92 35q-47 0 -53 -92h-92zM252 283q0 -84 48 -128t120 -44q92 0 155.5 48t88.5 117q8 25 8 58v172h-28q-392 1 -392 -223z" />
<glyph unicode="&#xe4;" horiz-adv-x="987" d="M72 262q0 180 154 276q151 93 430 93h12v20q0 39 -7.5 73t-29 73t-69.5 61.5t-120 22.5q-152 0 -260 -74l-41 121q137 86 328 86q379 0 379 -406v-370q0 -143 14 -238h-162l-16 125h-6q-43 -63 -123 -105.5t-180 -42.5q-143 0 -223 84t-80 201zM205 1243q0 41 29.5 72 t72.5 31q41 0 70 -30t29 -73t-28 -72.5t-71 -29.5h-2q-43 0 -71.5 29.5t-28.5 72.5zM252 283q0 -84 48 -128t120 -44q92 0 155.5 48t88.5 117q8 25 8 58v172h-28q-392 1 -392 -223zM580 1243q0 43 29.5 73t72.5 30q41 0 69.5 -30t28.5 -73t-27.5 -72.5t-72.5 -29.5h-2 q-43 0 -70.5 29.5t-27.5 72.5z" />
<glyph unicode="&#xe5;" horiz-adv-x="987" d="M72 262q0 180 154 276q151 93 430 93h12v20q0 39 -7.5 73t-29 73t-69.5 61.5t-120 22.5q-152 0 -260 -74l-41 121q137 86 328 86q379 0 379 -406v-370q0 -143 14 -238h-162l-16 125h-6q-43 -63 -123 -105.5t-180 -42.5q-143 0 -223 84t-80 201zM252 283q0 -84 48 -128 t120 -44q92 0 155.5 48t88.5 117q8 25 8 58v172h-28q-392 1 -392 -223zM283 1282q0 82 57 137.5t152 55.5h2q90 0 146 -55.5t56 -137.5q0 -80 -58 -134t-146 -54q-90 0 -149.5 54t-59.5 134zM387 1282q0 -43 28.5 -77t73.5 -34q47 0 77 33t30 80t-29.5 80t-77.5 33h-2 q-45 0 -72.5 -34t-27.5 -81z" />
<glyph unicode="&#xe6;" horiz-adv-x="1583" d="M74 260q0 174 155 269q149 91 417 92h24v41q0 25 -8.5 56.5t-30 71t-71.5 66.5t-120 27q-147 0 -254 -74l-43 119q139 88 310 88q252 0 319 -209h4q49 98 139.5 153.5t206.5 55.5q86 0 156 -32t112 -81t70.5 -112.5t38.5 -121t10 -110.5q0 -51 -6 -82l-665 2q0 -8 -1 -15 q0 -161 85 -251q88 -94 233 -94q152 0 270 55l33 -127q-129 -68 -325 -67q-131 0 -232.5 57t-144.5 162h-6q-47 -102 -143.5 -160.5t-223.5 -58.5q-147 0 -228 81.5t-81 198.5zM252 276q0 -76 49 -119.5t123 -43.5h7q87 0 148 47q62 49 85 123q10 37 10 71v146h-29 q-393 0 -393 -224zM838 608h499q0 6 1 12q0 52 -17 106q-18 60 -75.5 111.5t-141.5 51.5q-123 0 -191.5 -89.5t-74.5 -191.5z" />
<glyph unicode="&#xe7;" horiz-adv-x="915" d="M78 485q0 231 146.5 380t383.5 149q154 0 252 -53l-41 -138q-90 47 -211 47q-164 0 -256 -107.5t-92 -268.5q0 -170 97.5 -270.5t246.5 -100.5q109 0 221 47l33 -133q-109 -55 -266 -57l-51 -82q59 -8 101 -46t42 -96q0 -84 -60.5 -125t-154.5 -41q-84 0 -137 37l28 86 q51 -29 111 -28q88 0 88 65q-2 72 -160 84l86 152q-186 25 -296.5 159.5t-110.5 339.5z" />
<glyph unicode="&#xe8;" horiz-adv-x="1026" d="M78 479q0 231 128 384t339 153q115 0 198.5 -46t126.5 -121t62.5 -149.5t19.5 -150.5q0 -55 -6 -86l-694 2q2 -172 97 -258t241 -86q154 0 274 49l33 -127q-141 -63 -332 -63q-225 0 -356 137t-131 362zM254 594h524v13q0 59 -16 114q-18 61 -78.5 113.5t-153.5 52.5 q-125 0 -194.5 -90t-81.5 -203zM276 1405h197l180 -293h-127z" />
<glyph unicode="&#xe9;" horiz-adv-x="1026" d="M78 479q0 231 128 384t339 153q115 0 198.5 -46t126.5 -121t62.5 -149.5t19.5 -150.5q0 -55 -6 -86l-694 2q2 -172 97 -258t241 -86q154 0 274 49l33 -127q-141 -63 -332 -63q-225 0 -356 137t-131 362zM254 594h524v13q0 59 -16 114q-18 61 -78.5 113.5t-153.5 52.5 q-125 0 -194.5 -90t-81.5 -203zM444 1112l181 293h196l-250 -293h-127z" />
<glyph unicode="&#xea;" horiz-adv-x="1026" d="M78 479q0 231 128 384t339 153q115 0 198.5 -46t126.5 -121t62.5 -149.5t19.5 -150.5q0 -55 -6 -86l-694 2q2 -172 97 -258t241 -86q154 0 274 49l33 -127q-141 -63 -332 -63q-225 0 -356 137t-131 362zM254 594h524v13q0 59 -16 114q-18 61 -78.5 113.5t-153.5 52.5 q-125 0 -194.5 -90t-81.5 -203zM287 1112l192 293h119l197 -293h-136l-118 193h-4l-119 -193h-131z" />
<glyph unicode="&#xeb;" horiz-adv-x="1026" d="M78 479q0 231 128 384t339 153q115 0 198.5 -46t126.5 -121t62.5 -149.5t19.5 -150.5q0 -55 -6 -86l-694 2q2 -172 97 -258t241 -86q154 0 274 49l33 -127q-141 -63 -332 -63q-225 0 -356 137t-131 362zM254 594h524v13q0 59 -16 114q-18 61 -78.5 113.5t-153.5 52.5 q-125 0 -194.5 -90t-81.5 -203zM262 1243q0 41 30 72t73 31q41 0 69.5 -30t28.5 -73t-27.5 -72.5t-70.5 -29.5h-3q-43 0 -71.5 29.5t-28.5 72.5zM637 1243q0 43 29.5 73t72.5 30q41 0 70 -30t29 -73t-28 -72.5t-73 -29.5h-2q-43 0 -70.5 29.5t-27.5 72.5z" />
<glyph unicode="&#xec;" horiz-adv-x="479" d="M-57 1405h196l180 -293h-126zM150 0v991h180v-991h-180z" />
<glyph unicode="&#xed;" horiz-adv-x="479" d="M150 0v991h180v-991h-180zM150 1112l180 293h196l-250 -293h-126z" />
<glyph unicode="&#xee;" horiz-adv-x="479" d="M-14 1112l192 293h119l197 -293h-136l-118 193h-4l-119 -193h-131zM150 0v991h180v-991h-180z" />
<glyph unicode="&#xef;" horiz-adv-x="479" d="M-49 1243q0 41 29.5 72t72.5 31q41 0 70 -30t29 -73t-28 -72.5t-71 -29.5h-2q-43 0 -71.5 29.5t-28.5 72.5zM150 0v991h180v-991h-180zM326 1243q0 43 29.5 73t72.5 30q41 0 69.5 -30t28.5 -73t-27.5 -72.5t-72.5 -29.5h-2q-43 0 -70.5 29.5t-27.5 72.5z" />
<glyph unicode="&#xf0;" horiz-adv-x="1107" d="M80 483q0 227 136 366.5t321 141.5q133 0 231 -88l4 6q-92 150 -242 265l-290 -136l-39 88l237 113q-72 53 -213 123l80 113q150 -66 287 -166l260 125l45 -91l-217 -102q170 -139 260 -326q88 -176 88 -399q0 -137 -41 -243.5t-110.5 -169t-152.5 -94.5t-175 -32 q-205 0 -337 138.5t-132 367.5zM262 485q0 -158 81 -265t204 -107h2q133 0 213 107.5t80 277.5q0 188 -70 274q-84 96 -217 96q-145 0 -219 -119t-74 -264z" />
<glyph unicode="&#xf1;" horiz-adv-x="1136" d="M141 991h160l10 -162h4q41 76 127 130.5t201 54.5q57 0 113.5 -19.5t112 -63.5t90 -131t34.5 -208v-592h-180v571q0 131 -55.5 213t-173.5 82q-84 0 -149.5 -53t-92.5 -131q-12 -35 -12 -84v-598h-180v723q-1 159 -9 268zM322 1149q0 94 32 145q39 59 101 60 q45 0 131 -47q57 -35 92 -35q47 0 53 86h90v-11q0 -186 -137 -186q-49 0 -125 45q-63 35 -92 35q-47 0 -53 -92h-92z" />
<glyph unicode="&#xf2;" horiz-adv-x="1124" d="M78 487q0 242 140 384.5t351 142.5q213 0 345.5 -141.5t132.5 -366.5q0 -258 -147.5 -393.5t-344.5 -135.5h-2q-205 0 -340 140.5t-135 369.5zM260 494q0 -164 84 -272.5t213 -108.5h2q129 0 215 109.5t86 277.5q0 145 -74.5 262t-222 117t-225.5 -114.5t-78 -270.5z M293 1405h196l181 -293h-127z" />
<glyph unicode="&#xf3;" horiz-adv-x="1124" d="M78 487q0 242 140 384.5t351 142.5q213 0 345.5 -141.5t132.5 -366.5q0 -258 -147.5 -393.5t-344.5 -135.5h-2q-205 0 -340 140.5t-135 369.5zM260 494q0 -164 84 -272.5t213 -108.5h2q129 0 215 109.5t86 277.5q0 145 -74.5 262t-222 117t-225.5 -114.5t-78 -270.5z M457 1112l180 293h197l-250 -293h-127z" />
<glyph unicode="&#xf4;" horiz-adv-x="1124" d="M78 487q0 242 140 384.5t351 142.5q213 0 345.5 -141.5t132.5 -366.5q0 -258 -147.5 -393.5t-344.5 -135.5h-2q-205 0 -340 140.5t-135 369.5zM260 494q0 -164 84 -272.5t213 -108.5h2q129 0 215 109.5t86 277.5q0 145 -74.5 262t-222 117t-225.5 -114.5t-78 -270.5z M309 1112l193 293h119l196 -293h-135l-119 193h-4l-119 -193h-131z" />
<glyph unicode="&#xf5;" horiz-adv-x="1124" d="M78 487q0 242 140 384.5t351 142.5q213 0 345.5 -141.5t132.5 -366.5q0 -258 -147.5 -393.5t-344.5 -135.5h-2q-205 0 -340 140.5t-135 369.5zM260 494q0 -164 84 -272.5t213 -108.5h2q129 0 215 109.5t86 277.5q0 145 -74.5 262t-222 117t-225.5 -114.5t-78 -270.5z M313 1149q0 94 33 145q39 59 100 60q45 0 132 -47q57 -35 92 -35q47 0 53 86h90v-11q0 -186 -137 -186q-49 0 -125 45q-63 35 -92 35q-47 0 -53 -92h-93z" />
<glyph unicode="&#xf6;" horiz-adv-x="1124" d="M78 487q0 242 140 384.5t351 142.5q213 0 345.5 -141.5t132.5 -366.5q0 -258 -147.5 -393.5t-344.5 -135.5h-2q-205 0 -340 140.5t-135 369.5zM260 494q0 -164 84 -272.5t213 -108.5h2q129 0 215 109.5t86 277.5q0 145 -74.5 262t-222 117t-225.5 -114.5t-78 -270.5z M274 1243q0 41 30 72t73 31q41 0 69.5 -30t28.5 -73t-27.5 -72.5t-70.5 -29.5h-2q-43 0 -72 29.5t-29 72.5zM649 1243q0 43 30 73t73 30q41 0 69.5 -30t28.5 -73t-27.5 -72.5t-72.5 -29.5h-2q-43 0 -71 29.5t-28 72.5z" />
<glyph unicode="&#xf7;" horiz-adv-x="1220" d="M80 485v123h1057v-123h-1057zM500 186q0 51 30.5 83t77.5 32q49 0 79 -31.5t30 -83.5q0 -49 -30 -80.5t-79 -31.5h-2q-47 0 -76.5 31.5t-29.5 80.5zM502 905q0 51 30.5 83t77.5 32q49 0 79 -32t30 -83q0 -49 -30 -80.5t-79 -31.5h-2q-47 0 -76.5 31.5t-29.5 80.5z" />
<glyph unicode="&#xf8;" horiz-adv-x="1124" d="M78 489.5q0 239.5 139 382t348 142.5h2q141 0 250 -70l86 123l80 -55l-88 -127q152 -147 152 -381q0 -254 -145.5 -390.5t-338.5 -136.5q-145 0 -252 70l-90 -125l-76 62l86 122q-153 144 -153 383.5zM256 494q0 -147 72 -248l4 -2l405 575q-70 59 -174 60 q-152 0 -229.5 -115.5t-77.5 -269.5zM393 170q70 -57 166 -57q139 0 226 108.5t87 276.5q0 139 -69 241l-4 2z" />
<glyph unicode="&#xf9;" horiz-adv-x="1128" d="M143 412v579h181v-547q0 -317 221 -317q84 0 147.5 49t89.5 117q16 39 17 92v606h180v-721q0 -166 8 -270h-160l-10 162h-4q-41 -74 -125 -129.5t-203 -55.5q-63 0 -119.5 20.5t-108.5 67t-83 135.5t-31 212zM299 1405h197l180 -293h-127z" />
<glyph unicode="&#xfa;" horiz-adv-x="1128" d="M143 412v579h181v-547q0 -317 221 -317q84 0 147.5 49t89.5 117q16 39 17 92v606h180v-721q0 -166 8 -270h-160l-10 162h-4q-41 -74 -125 -129.5t-203 -55.5q-63 0 -119.5 20.5t-108.5 67t-83 135.5t-31 212zM479 1112l180 293h197l-250 -293h-127z" />
<glyph unicode="&#xfb;" horiz-adv-x="1128" d="M143 412v579h181v-547q0 -317 221 -317q84 0 147.5 49t89.5 117q16 39 17 92v606h180v-721q0 -166 8 -270h-160l-10 162h-4q-41 -74 -125 -129.5t-203 -55.5q-63 0 -119.5 20.5t-108.5 67t-83 135.5t-31 212zM311 1112l193 293h119l196 -293h-135l-119 193h-4l-119 -193 h-131z" />
<glyph unicode="&#xfc;" horiz-adv-x="1128" d="M143 412v579h181v-547q0 -317 221 -317q84 0 147.5 49t89.5 117q16 39 17 92v606h180v-721q0 -166 8 -270h-160l-10 162h-4q-41 -74 -125 -129.5t-203 -55.5q-63 0 -119.5 20.5t-108.5 67t-83 135.5t-31 212zM283 1243q0 41 29.5 72t72.5 31q41 0 69.5 -30t28.5 -73 t-27.5 -72.5t-70.5 -29.5h-2q-43 0 -71.5 29.5t-28.5 72.5zM657 1243q0 43 30 73t73 30q41 0 69.5 -30t28.5 -73t-27.5 -72.5t-72.5 -29.5h-2q-43 0 -71 29.5t-28 72.5z" />
<glyph unicode="&#xfd;" horiz-adv-x="964" d="M18 991h197l215 -585q37 -96 66 -203h4q2 6 25.5 85t37.5 122l197 581h190l-270 -706q-100 -264 -175 -403.5t-165 -219.5q-113 -94 -221 -115l-45 152q84 23 157 88q92 72 152 201q14 33 14 43q0 16 -14 45zM410 1112l180 293h196l-249 -293h-127z" />
<glyph unicode="&#xfe;" horiz-adv-x="1165" d="M150 -406v1778h180v-536h4q111 178 336 178h5q175 0 294 -138q121 -140 121 -368q0 -256 -133.5 -393.5t-317.5 -137.5q-205 0 -305 156h-4v-539h-180zM330 575v-184q0 -51 18 -90q31 -84 102.5 -133t161.5 -49q133 0 214 105.5t81 281.5q0 154 -78.5 259t-212.5 105 q-88 0 -161.5 -52t-106.5 -142q-18 -66 -18 -101z" />
<glyph unicode="&#xff;" horiz-adv-x="964" d="M18 991h197l215 -585q37 -96 66 -203h4q2 6 25.5 85t37.5 122l197 581h190l-270 -706q-100 -264 -175 -403.5t-165 -219.5q-113 -94 -221 -115l-45 152q84 23 157 88q92 72 152 201q14 33 14 43q0 16 -14 45zM219 1243q0 41 30 72t73 31q41 0 69.5 -30t28.5 -73 t-27.5 -72.5t-70.5 -29.5h-3q-43 0 -71.5 29.5t-28.5 72.5zM594 1243q0 43 29.5 73t72.5 30q41 0 70 -30t29 -73t-28 -72.5t-73 -29.5h-2q-43 0 -70.5 29.5t-27.5 72.5z" />
<glyph unicode="&#x152;" horiz-adv-x="1830" d="M74 680q0 334 188.5 528.5t491.5 194.5q53 0 180 -10q102 -12 131 -13h659v-149h-567v-438h535v-148h-535v-495h598v-150h-706q-37 0 -136 -12q-127 -10 -170 -11q-313 0 -491 198t-178 505zM262 688q0 -256 137.5 -410.5t376.5 -154.5q131 0 201 29v1075q-88 31 -219 30 q-227 0 -361.5 -156.5t-134.5 -412.5z" />
<glyph unicode="&#x153;" horiz-adv-x="1767" d="M78 492q0 238 135 381t340 143q127 0 227.5 -62.5t145.5 -175.5h4q111 238 362 238q92 0 164 -32t116 -81t72.5 -113.5t39 -123t10.5 -115.5q0 -59 -6 -86l-674 2q0 -164 91 -256t238 -92q125 0 267 55l32 -127q-119 -68 -321 -67q-281 0 -393 233h-4 q-53 -115 -157.5 -174t-225.5 -59q-201 0 -332 140.5t-131 371.5zM262 496q0 -162 83 -271.5t210 -109.5q131 0 211 105.5t80 277.5q0 156 -75 269.5t-216 113.5h-2q-147 0 -219 -117.5t-72 -267.5zM1010 596h508v14q0 58 -16 112q-17 60 -75.5 112.5t-150.5 52.5 q-121 0 -188.5 -89t-77.5 -202z" />
<glyph unicode="&#x178;" horiz-adv-x="1107" d="M25 1380h204l195 -381l137 -284h4q25 57 140 284l198 381h201l-461 -792v-588h-180v586zM272 1579q0 43 29 73.5t72 30.5t70.5 -29.5t27.5 -74.5q0 -43 -27.5 -72.5t-70.5 -29.5h-2q-43 0 -71 29.5t-28 72.5zM649 1579q0 43 29 73.5t72 30.5t70.5 -29.5t27.5 -74.5 q0 -43 -27.5 -72.5t-72.5 -29.5h-3q-43 0 -69.5 29.5t-26.5 72.5z" />
<glyph unicode="&#x2c6;" horiz-adv-x="614" d="M53 1112l193 293h119l196 -293h-135l-119 193h-4l-119 -193h-131z" />
<glyph unicode="&#x2dc;" horiz-adv-x="614" d="M57 1149q0 94 33 145q39 59 100 60q45 0 132 -47q57 -35 92 -35q47 0 53 86h90v-11q0 -186 -137 -186q-49 0 -125 45q-63 35 -92 35q-47 0 -53 -92h-93z" />
<glyph unicode="&#x2013;" horiz-adv-x="1024" d="M61 459v123h902v-123h-902z" />
<glyph unicode="&#x2014;" horiz-adv-x="2048" d="M61 459v123h1926v-123h-1926z" />
<glyph unicode="&#x2018;" horiz-adv-x="423" d="M72 918q35 127 91 271t99 216l115 12q-84 -233 -121 -479z" />
<glyph unicode="&#x2019;" horiz-adv-x="423" d="M70 918q84 233 120 479l185 20q-35 -127 -91.5 -271.5t-99.5 -215.5z" />
<glyph unicode="&#x201a;" horiz-adv-x="423" d="M43 -242q84 233 121 480l184 20q-35 -127 -91 -271.5t-99 -215.5z" />
<glyph unicode="&#x201c;" horiz-adv-x="724" d="M72 918q35 127 91 271t99 216l115 12q-84 -233 -121 -479zM375 918q35 127 91 271t99 216l115 12q-80 -217 -121 -479z" />
<glyph unicode="&#x201d;" horiz-adv-x="724" d="M70 918q80 217 120 479l185 20q-35 -127 -91.5 -271.5t-99.5 -215.5zM373 918q84 233 121 479l184 20q-35 -127 -91.5 -271.5t-99.5 -215.5z" />
<glyph unicode="&#x201e;" horiz-adv-x="729" d="M41 -242q80 217 121 480l184 20q-35 -127 -91 -271.5t-99 -215.5zM344 -242q84 233 121 480l184 20q-35 -127 -91 -271.5t-99 -215.5z" />
<glyph unicode="&#x2022;" horiz-adv-x="577" d="M74 710q0 85 61 146q63 63 153.5 63.5t153 -62t62.5 -153t-63.5 -153t-151.5 -62.5h-2q-88 0 -150.5 62.5t-62.5 158.5z" />
<glyph unicode="&#x2026;" horiz-adv-x="2048" d="M219 106.5q0 55.5 35 92.5t88 37t87 -36t34 -94q0 -55 -34 -92t-89 -37h-2q-51 0 -85 37t-34 92.5zM899 106.5q0 55.5 35 92.5t88 37t87 -36t34 -94q0 -55 -34 -92t-89 -37h-2q-51 0 -85 37t-34 92.5zM1579 106.5q0 55.5 35 92.5t88 37t87 -36t34 -94q0 -55 -34 -92 t-89 -37h-2q-51 0 -85 37t-34 92.5z" />
<glyph unicode="&#x2039;" horiz-adv-x="522" d="M59 516l271 377h145l-272 -377l274 -377h-145z" />
<glyph unicode="&#x203a;" horiz-adv-x="522" d="M47 893h146l272 -377l-272 -377h-144l273 377z" />
<glyph unicode="&#x2122;" horiz-adv-x="1642" d="M31 1276v104h620v-104h-250v-711h-122v711h-248zM680 565l63 815h162l160 -442q10 -31 57 -205h4q33 137 58 207l159 440h160l62 -815h-125l-33 492q-2 35 -2 104v117h-6q-39 -143 -70 -234l-170 -469h-94l-166 482q-25 80 -59 221h-6q0 -25 -1.5 -101.5t-3.5 -119.5 l-30 -492h-119z" />
<glyph unicode="&#xe000;" horiz-adv-x="990" d="M0 990h990v-990h-990v990z" />
<glyph unicode="&#xfb01;" horiz-adv-x="1071" d="M29 854v137h137v56q0 199 113.5 314.5t320.5 115.5q70 0 141.5 -18.5t110.5 -47.5l-51 -137q-84 57 -209 57q-248 0 -248 -291v-49h578v-991h-181v854h-395v-854h-180v854h-137z" />
<glyph unicode="&#xfb02;" horiz-adv-x="1071" d="M29 854v137h137v43q0 223 141 342q117 100 318 101q178 0 299 -66v-1411h-181v1311q-49 27 -147 26q-133 0 -192.5 -81.5t-59.5 -213.5v-51h234v-137h-232v-854h-180v854h-137z" />
<glyph unicode="&#xfb03;" horiz-adv-x="1675" d="M29 854v137h137v47q0 236 117 346q94 92 239 93q84 0 154 -29l-23 -139q-53 23 -116 22q-193 0 -193 -287v-53h240v-137h-238v-854h-180v854h-137zM627 854v137h137v47q0 236 117 346q94 92 239 93q84 0 154 -29l-23 -139q-53 23 -116 22q-193 0 -193 -287v-53h240v-137 h-238v-854h-180v854h-137zM1319 1290q0 49 32.5 82t84 33t83 -33t31.5 -82t-31.5 -82.5t-84.5 -33.5h-2q-49 0 -81 33.5t-32 82.5zM1346 0v991h180v-991h-180z" />
<glyph unicode="&#xfb04;" horiz-adv-x="1675" d="M29 854v137h137v47q0 236 117 346q94 92 239 93q84 0 154 -29l-23 -139q-53 23 -116 22q-193 0 -193 -287v-53h240v-137h-238v-854h-180v854h-137zM627 854v137h137v47q0 236 117 346q94 92 239 93q84 0 154 -29l-23 -139q-53 23 -116 22q-193 0 -193 -287v-53h240v-137 h-238v-854h-180v854h-137zM1346 0v1454h180v-1454h-180z" />
</font>
</defs>
</svg>
