<svg width="16" height="16" viewBox="0 0 16 16" fill="none" xmlns="http://www.w3.org/2000/svg">
<path d="M8 6L8.53033 5.46967C8.23744 5.17678 7.76256 5.17678 7.46967 5.46967L8 6ZM3.46967 9.46967C3.17678 9.76256 3.17678 10.2374 3.46967 10.5303C3.76256 10.8232 4.23744 10.8232 4.53033 10.5303L3.46967 9.46967ZM11.4697 10.5303C11.7626 10.8232 12.2374 10.8232 12.5303 10.5303C12.8232 10.2374 12.8232 9.76256 12.5303 9.46967L11.4697 10.5303ZM7.46967 5.46967L3.46967 9.46967L4.53033 10.5303L8.53033 6.53033L7.46967 5.46967ZM12.5303 9.46967L8.53033 5.46967L7.46967 6.53033L11.4697 10.5303L12.5303 9.46967Z" fill="#000000"/>
</svg>
