<svg width="24" height="24" viewBox="0 0 24 24" fill="none" xmlns="http://www.w3.org/2000/svg">
<path fill-rule="evenodd" clip-rule="evenodd" d="M18.5303 6.53035C18.8232 6.23745 18.8232 5.76258 18.5303 5.46969C18.2374 5.17679 17.7625 5.17679 17.4696 5.46969L12 10.9394L6.5303 5.46969C6.23741 5.17679 5.76253 5.17679 5.46964 5.46969C5.17675 5.76258 5.17675 6.23745 5.46964 6.53035L10.9393 12L5.46964 17.4697C5.17675 17.7626 5.17675 18.2375 5.46964 18.5303C5.76253 18.8232 6.23741 18.8232 6.5303 18.5303L12 13.0607L17.4696 18.5303C17.7625 18.8232 18.2374 18.8232 18.5303 18.5303C18.8232 18.2375 18.8232 17.7626 18.5303 17.4697L13.0606 12L18.5303 6.53035Z" fill="white"/>
</svg>
