<svg width="24" height="25" viewBox="0 0 24 25" fill="none" xmlns="http://www.w3.org/2000/svg">
<path fill-rule="evenodd" clip-rule="evenodd" d="M13.8228 2.37889C12.8848 1.21851 11.1157 1.21851 10.1777 2.37889C9.59487 3.09986 8.64185 3.40952 7.74658 3.1688C6.30566 2.78138 4.8744 3.82125 4.79759 5.31137C4.74987 6.23721 4.16087 7.0479 3.29509 7.37938C1.90164 7.9129 1.35495 9.59545 2.16868 10.8461C2.67426 11.6232 2.67426 12.6253 2.16868 13.4023C1.35495 14.653 1.90164 16.3356 3.29509 16.8691C4.16087 17.2006 4.74987 18.0113 4.79759 18.9371C4.8744 20.4272 6.30566 21.4671 7.74658 21.0797C8.64185 20.8389 9.59487 21.1486 10.1777 21.8696C11.1157 23.03 12.8848 23.03 13.8228 21.8696C14.4056 21.1486 15.3586 20.8389 16.2539 21.0797C17.6948 21.4671 19.1261 20.4272 19.2029 18.9371C19.2506 18.0113 19.8396 17.2006 20.7054 16.8691C22.0989 16.3356 22.6456 14.653 21.8318 13.4023C21.3262 12.6253 21.3262 11.6232 21.8318 10.8461C22.6456 9.59545 22.0989 7.9129 20.7054 7.37938C19.8396 7.0479 19.2506 6.23721 19.2029 5.31137C19.1261 3.82125 17.6948 2.78138 16.2539 3.1688C15.3586 3.40952 14.4056 3.09986 13.8228 2.37889ZM6.20922 15.6162C6.35552 15.7625 6.56104 15.8356 6.82578 15.8356C7.35525 15.8356 7.61999 15.55 7.61999 14.9787V12.7006H10.1907C10.3997 12.7006 10.56 12.6448 10.6714 12.5334C10.7829 12.4219 10.8386 12.2652 10.8386 12.0631C10.8386 11.8611 10.7829 11.7078 10.6714 11.6033C10.56 11.4918 10.3997 11.4361 10.1907 11.4361H7.61999V9.6387H10.4206C10.6296 9.6387 10.7864 9.58644 10.8909 9.48194C11.0023 9.37048 11.0581 9.21024 11.0581 9.00124C11.0581 8.7992 11.0023 8.64593 10.8909 8.54143C10.7864 8.42997 10.6296 8.37423 10.4206 8.37423H6.84668C6.57498 8.37423 6.36597 8.44738 6.21967 8.59368C6.07337 8.73999 6.00022 8.94899 6.00022 9.22069V14.9787C6.00022 15.2574 6.06989 15.4699 6.20922 15.6162ZM12.1795 15.5221C12.3258 15.6684 12.5348 15.7416 12.8065 15.7416H15.4504C16.2446 15.7416 16.8681 15.5604 17.321 15.1982C17.7738 14.8289 18.0002 14.3169 18.0002 13.662C18.0002 13.1674 17.8574 12.7668 17.5718 12.4602C17.3518 12.2127 17.0602 12.0347 16.6969 11.9262C16.9933 11.8099 17.2362 11.6361 17.4255 11.4048C17.6763 11.0982 17.8017 10.7255 17.8017 10.2866C17.8017 9.8895 17.7041 9.54813 17.5091 9.26249C17.321 8.97686 17.0423 8.7574 16.6731 8.60413C16.3038 8.45087 15.8579 8.37423 15.3354 8.37423H12.8065C12.5348 8.37423 12.3258 8.44738 12.1795 8.59368C12.0332 8.73999 11.9601 8.94899 11.9601 9.22069V14.8951C11.9601 15.1668 12.0332 15.3758 12.1795 15.5221ZM15.2309 14.5398H13.5067V12.6065H15.2309C15.6489 12.6065 15.9555 12.6866 16.1505 12.8469C16.3456 13.0071 16.4432 13.2475 16.4432 13.5679C16.4432 13.8884 16.3456 14.1322 16.1505 14.2994C15.9555 14.4597 15.6489 14.5398 15.2309 14.5398ZM15.0533 11.4048H13.5067V9.57599H15.0533C15.4574 9.57599 15.7569 9.65263 15.952 9.8059C16.1471 9.95917 16.2446 10.1856 16.2446 10.4852C16.2446 10.7917 16.1471 11.0216 15.952 11.1749C15.7569 11.3281 15.4574 11.4048 15.0533 11.4048Z" fill="#2A99FF"/>
</svg>
