<svg width="14" height="14" viewBox="0 0 14 14" fill="none" xmlns="http://www.w3.org/2000/svg">
<path fill-rule="evenodd" clip-rule="evenodd" d="M1.5143 5.92222C1.5143 3.48779 3.48779 1.5143 5.92222 1.5143C8.35665 1.5143 10.3301 3.48779 10.3301 5.92222C10.3301 8.35665 8.35665 10.3301 5.92222 10.3301C3.48779 10.3301 1.5143 8.35665 1.5143 5.92222ZM5.92222 0.330078C2.83376 0.330078 0.330078 2.83376 0.330078 5.92222C0.330078 9.01067 2.83376 11.5144 5.92222 11.5144C9.01067 11.5144 11.5144 9.01067 11.5144 5.92222C11.5144 2.83376 9.01067 0.330078 5.92222 0.330078ZM11.4525 10.3919C11.1596 10.099 10.6848 10.099 10.3919 10.3919C10.099 10.6847 10.099 11.1596 10.3919 11.4525L12.3919 13.4525C12.6848 13.7454 13.1596 13.7454 13.4525 13.4525C13.7454 13.1596 13.7454 12.6847 13.4525 12.3919L11.4525 10.3919Z" fill="#919EAB"/>
</svg>
