<svg width="24" height="24" viewBox="0 0 24 24" fill="none" xmlns="http://www.w3.org/2000/svg">
<path fill-rule="evenodd" clip-rule="evenodd" d="M4 2.25C3.58579 2.25 3.25 2.58579 3.25 3C3.25 3.41421 3.58579 3.75 4 3.75H20C20.4142 3.75 20.75 3.41421 20.75 3C20.75 2.58579 20.4142 2.25 20 2.25H4ZM4 20.25C3.58579 20.25 3.25 20.5858 3.25 21C3.25 21.4142 3.58579 21.75 4 21.75H20C20.4142 21.75 20.75 21.4142 20.75 21C20.75 20.5858 20.4142 20.25 20 20.25H4ZM2 8C2 6.34315 3.34315 5 5 5H19C20.6569 5 22 6.34315 22 8V16C22 17.6569 20.6569 19 19 19H5C3.34315 19 2 17.6569 2 16V8ZM5.64022 14.393C5.73764 14.463 5.86522 14.498 6.02296 14.498C6.20389 14.498 6.35002 14.4677 6.46137 14.407C6.57735 14.3417 6.67245 14.2367 6.74668 14.092L8.52815 10.774C8.5931 10.6527 8.64646 10.5383 8.68821 10.431C8.7346 10.319 8.7578 10.1883 8.7578 10.039C8.7578 9.86633 8.69981 9.73333 8.58383 9.64C8.47248 9.54667 8.33099 9.5 8.15933 9.5H5.54279C5.37114 9.5 5.2366 9.54433 5.13918 9.633C5.04639 9.72167 5 9.85233 5 10.025C5 10.1977 5.04639 10.3283 5.13918 10.417C5.2366 10.5057 5.37114 10.55 5.54279 10.55H7.29513L5.57063 13.7C5.49176 13.8447 5.45929 13.9777 5.4732 14.099C5.48712 14.2203 5.54279 14.3183 5.64022 14.393ZM11.144 14.498C10.9863 14.498 10.8587 14.463 10.7613 14.393C10.6639 14.3183 10.6082 14.2203 10.5943 14.099C10.5804 13.9777 10.6129 13.8447 10.6917 13.7L12.4162 10.55H10.6639C10.4922 10.55 10.3577 10.5057 10.2603 10.417C10.1675 10.3283 10.1211 10.1977 10.1211 10.025C10.1211 9.85233 10.1675 9.72167 10.2603 9.633C10.3577 9.54433 10.4922 9.5 10.6639 9.5H13.2804C13.4521 9.5 13.5936 9.54667 13.7049 9.64C13.8209 9.73333 13.8789 9.86633 13.8789 10.039C13.8789 10.1883 13.8557 10.319 13.8093 10.431C13.7675 10.5383 13.7142 10.6527 13.6492 10.774L11.8678 14.092C11.7935 14.2367 11.6984 14.3417 11.5825 14.407C11.4711 14.4677 11.325 14.498 11.144 14.498ZM16.263 14.498C16.1052 14.498 15.9776 14.463 15.8802 14.393C15.7828 14.3183 15.7271 14.2203 15.7132 14.099C15.6993 13.9777 15.7318 13.8447 15.8106 13.7L17.5351 10.55H15.7828C15.6111 10.55 15.4766 10.5057 15.3792 10.417C15.2864 10.3283 15.24 10.1977 15.24 10.025C15.24 9.85233 15.2864 9.72167 15.3792 9.633C15.4766 9.54433 15.6111 9.5 15.7828 9.5H18.3993C18.571 9.5 18.7125 9.54667 18.8238 9.64C18.9398 9.73333 18.9978 9.86633 18.9978 10.039C18.9978 10.1883 18.9746 10.319 18.9282 10.431C18.8865 10.5383 18.8331 10.6527 18.7682 10.774L16.9867 14.092C16.9125 14.2367 16.8173 14.3417 16.7014 14.407C16.59 14.4677 16.4439 14.498 16.263 14.498Z" fill="#54D62C"/>
</svg>
