<svg width="24" height="24" viewBox="0 0 24 24" fill="none" xmlns="http://www.w3.org/2000/svg">
<path fill-rule="evenodd" clip-rule="evenodd" d="M17.1701 3.20952L15.5001 2.81952C12.1601 2.02952 10.1701 2.67952 9.00006 5.09952C8.70006 5.70952 8.46006 6.44952 8.26006 7.29952L7.28006 11.4895C6.30006 15.6695 7.59006 17.7295 11.7601 18.7195L13.4401 19.1195C14.0201 19.2595 14.5601 19.3495 15.0601 19.3895C18.1801 19.6895 19.8401 18.2295 20.6801 14.6195L21.6601 10.4395C22.6401 6.25952 21.3601 4.18952 17.1701 3.20952ZM13.9092 14.0919C13.7779 14.1023 13.5757 14.0521 13.4563 13.9796C12.4951 13.3548 10.5045 11.2727 11.1365 8.72488C11.4234 7.60262 12.5459 6.91943 13.6621 7.19629C14.3253 7.3608 14.8294 7.82068 15.0791 8.40635C15.5735 8.00526 16.2341 7.83426 16.8974 7.99877C18.0135 8.27563 18.6947 9.40621 18.4159 10.5305C17.7758 13.0763 15.051 13.9888 13.9092 14.0919Z" fill="#54D62C"/>
<path d="M12.71 20.4697C12.9776 20.3805 12.9524 20.0206 12.6777 19.9567L11.53 19.6897C6.81998 18.5697 5.20998 15.9697 6.30998 11.2597L7.28998 7.06968C7.34326 6.84944 7.3978 6.63804 7.45451 6.43546C7.5689 6.02679 7.17684 5.62273 6.77397 5.75615L6.24998 5.92968C2.27997 7.20968 1.21997 9.30968 2.49998 13.2797L3.77998 17.2297C5.06998 21.1997 7.15998 22.2697 11.13 20.9897L12.71 20.4697Z" fill="#54D62C"/>
</svg>
