<svg width="16" height="16" viewBox="0 0 16 16" fill="none" xmlns="http://www.w3.org/2000/svg">
<path fill-rule="evenodd" clip-rule="evenodd" d="M7.68277 10.7268L5.27323 8.31723C4.96705 8.01105 4.86126 7.55842 5.02549 7.15778C5.50434 5.98964 6.63684 3.5957 8.18286 2.70256C9.54267 1.917 11.805 1.95594 13.0247 2.04776C13.5259 2.0855 13.9145 2.47411 13.9522 2.97532C14.0441 4.19505 14.083 6.45733 13.2974 7.81714C12.4043 9.36316 10.0104 10.4957 8.84222 10.9745C8.44158 11.1387 7.98895 11.0329 7.68277 10.7268ZM11.5926 6.11231C11.5926 7.05387 10.8293 7.81716 9.88772 7.81716C8.94615 7.81716 8.18286 7.05387 8.18286 6.11231C8.18286 5.17074 8.94615 4.40745 9.88772 4.40745C10.8293 4.40745 11.5926 5.17074 11.5926 6.11231Z" fill="#00AB55"/>
<path d="M2.39112 12.2306L2.80541 10.5734C2.95256 9.98483 3.53604 9.61559 4.13095 9.73457L5.16669 9.94172C5.61661 10.0317 5.96831 10.3834 6.05829 10.8333L6.26544 11.8691C6.38442 12.464 6.01518 13.0475 5.4266 13.1946L3.76941 13.6089C2.93701 13.817 2.18302 13.063 2.39112 12.2306Z" fill="#00AB55"/>
<path d="M5.3414 3.83917L3.63655 6.6806L2.16708 5.21114C1.83595 4.88 2.02496 4.31295 2.48855 4.24672L5.3414 3.83917Z" fill="#00AB55"/>
<path d="M9.31941 12.3635L12.1608 10.6586L11.7533 13.5115C11.6871 13.975 11.12 14.1641 10.7889 13.8329L9.31941 12.3635Z" fill="#00AB55"/>
</svg>
