<svg width="116" height="30" viewBox="0 0 116 30" fill="none" xmlns="http://www.w3.org/2000/svg">
<path fill-rule="evenodd" clip-rule="evenodd" d="M25.3509 0.13871C28.9321 0.535137 32.3861 1.9695 35.1143 4.35074C36.1875 5.28466 37.1223 6.34217 37.9187 7.52342C38.3723 8.19396 38.775 8.90342 39.1268 9.65163C39.633 10.723 40.0089 11.8458 40.2545 13.0199L40.4969 14.6966L40.5558 16.0279C40.5585 17.6627 40.279 19.261 39.7174 20.8226C39.3263 21.919 38.8179 22.9512 38.192 23.9191C38.0241 24.178 37.7862 24.3146 37.4781 24.3289C36.9781 24.353 36.3795 24.3463 35.6821 24.3088C35.2549 24.286 34.967 23.9539 34.8451 23.5709C34.7513 23.2789 34.6438 22.999 34.5223 22.7311C34.4955 22.6713 34.5147 22.6427 34.5799 22.6454C35.2004 22.6713 35.8241 22.6722 36.4509 22.6481C36.5202 22.6455 36.5879 22.6264 36.6483 22.5923C36.7087 22.5583 36.7602 22.5103 36.7984 22.4523C36.8366 22.3943 36.8605 22.328 36.8681 22.2589C36.8757 22.1897 36.8667 22.1198 36.842 22.0548L36.4121 20.9271L35.6004 18.8096C35.5853 18.7695 35.5933 18.7351 35.6245 18.7065C35.8808 18.4672 36.0071 18.1802 36.0036 17.8453C35.9915 16.719 34.7487 16.1819 33.8232 16.6989C32.6621 17.3458 33.0839 18.8578 34.292 19.1043C34.3402 19.1141 34.3728 19.1422 34.3897 19.1886L35.0808 21.1681C35.0879 21.1878 35.0812 21.1976 35.0607 21.1976H34.0268C34.0018 21.1976 33.9853 21.1855 33.9772 21.1614L32.2201 16.3065L31.8451 15.2511C31.8183 15.1752 31.7647 15.1373 31.6844 15.1373L28.5317 15.1359C28.5244 15.1359 28.5173 15.1376 28.5107 15.1408C28.5042 15.144 28.4984 15.1486 28.4938 15.1544C28.4892 15.1601 28.4859 15.1669 28.4841 15.1741C28.4823 15.1813 28.4821 15.1889 28.4835 15.1962L28.8812 17.0993C29.0911 18.1252 29.3031 19.1489 29.5174 20.1703C29.5737 20.4364 29.5835 20.6337 29.5469 20.7623C29.4598 21.0797 29.1129 21.1627 28.821 21.1587C27.9192 21.148 27.0107 21.148 26.0955 21.1587C26.0754 21.1592 26.0557 21.152 26.0404 21.1387C26.0251 21.1253 26.0151 21.1067 26.0125 21.0864L25.5451 17.1435L25.3134 15.2149C25.3071 15.1632 25.2781 15.1373 25.2263 15.1373L24.6411 15.1332C24.5911 15.1324 24.5674 15.1569 24.5701 15.2069L24.6598 16.9466L24.8661 21.0798C24.8687 21.1333 24.8437 21.1601 24.7911 21.1601H21.167C21.1187 21.1601 21.096 21.136 21.0987 21.0878L21.2768 17.6887L21.4013 15.2042C21.4017 15.195 21.4002 15.1859 21.3969 15.1773C21.3937 15.1687 21.3887 15.1608 21.3823 15.1542C21.3759 15.1476 21.3683 15.1423 21.3598 15.1387C21.3513 15.1351 21.3422 15.1332 21.333 15.1332L20.7598 15.1359C20.7071 15.1359 20.6777 15.1623 20.6714 15.2149L20.3326 18.077C20.2612 18.0931 20.1759 18.0806 20.0768 18.0395C20.3018 16.0118 16.9777 15.9636 17.2415 18.1158C17.7464 19.5114 19.6763 19.498 20.0768 18.0395C20.1759 18.0806 20.2612 18.0931 20.3326 18.077L19.975 21.0838C19.9696 21.1329 19.942 21.1579 19.892 21.1588C19.1018 21.1606 18.1884 21.1695 17.1518 21.1856C16.6978 21.1936 16.2799 20.9459 16.3937 20.4262C16.5866 19.5414 16.7719 18.6566 16.9496 17.7718L17.4786 15.2069C17.4884 15.1596 17.4696 15.1359 17.4223 15.1359L14.2643 15.1373C14.2125 15.1373 14.1777 15.1614 14.1598 15.2096L13.7621 16.273C13.696 16.2114 13.5339 16.1922 13.2759 16.2154C13.2695 16.2157 13.2632 16.2138 13.258 16.2101C13.2529 16.2065 13.2493 16.2012 13.2478 16.1953C13.2317 16.1301 13.1879 16.0984 13.1165 16.1002C13.0763 16.1011 13.05 16.1203 13.0375 16.1578L13.0254 16.1926C13.0147 16.223 12.9933 16.2382 12.9612 16.2382H12.2366C12.2134 16.2382 12.1955 16.2279 12.183 16.2073L12.1629 16.1739C12.1237 16.1078 12.096 16.1149 12.0799 16.1953C12.0737 16.2248 12.0562 16.2373 12.0277 16.2328C12.0062 16.2301 11.9866 16.2306 11.9688 16.2341C11.7661 16.2743 11.6022 16.2529 11.4772 16.1698C11.4478 16.1502 11.4237 16.1556 11.4049 16.1859C11.3683 16.2449 11.3161 16.2609 11.2482 16.2341C11.2036 16.2163 11.1576 16.2091 11.1103 16.2127C9.99062 16.2895 8.8683 16.298 7.7433 16.2382C7.69509 16.2364 7.64598 16.2382 7.59598 16.2435C7.52813 16.2515 7.47679 16.2288 7.44196 16.1752C7.42143 16.1431 7.39241 16.1297 7.35491 16.135C7.27812 16.1457 7.20357 16.1368 7.13125 16.1082C7.09375 16.0931 7.06027 16.0998 7.0308 16.1283C7.0192 16.139 7.01116 16.1515 7.0067 16.1658C6.99063 16.214 6.95759 16.2382 6.90759 16.2382H6.5058C6.4558 16.2382 6.42143 16.2154 6.40268 16.1698C6.38125 16.1181 6.34152 16.0944 6.28348 16.0989C6.2442 16.1024 6.2183 16.123 6.2058 16.1605L6.18973 16.206C6.17902 16.2373 6.15714 16.2502 6.12411 16.2449C5.86875 16.2038 5.63393 16.2355 5.41964 16.3399L5.47187 14.8266C5.47102 14.8076 5.47093 14.7895 5.4716 14.7721C5.47362 14.7199 5.48248 14.6746 5.49818 14.6363L5.73169 12.9475C5.96205 11.8404 6.31607 10.7703 6.79375 9.73732L7.86652 7.78065C8.0942 7.76279 8.24688 7.79226 8.32455 7.86904C8.36027 7.90297 8.39822 7.90565 8.43839 7.87708C8.59197 7.76369 8.78839 7.74136 9.02768 7.81011C9.05893 7.81904 9.08527 7.83556 9.1067 7.85967C9.17098 7.9311 9.24822 7.94672 9.33839 7.90654C9.37768 7.88958 9.40089 7.86056 9.40804 7.81949C9.41072 7.80074 9.42143 7.79092 9.44018 7.79003C9.47411 7.78735 9.49464 7.80253 9.50179 7.83556C9.50714 7.85967 9.51964 7.87976 9.53929 7.89583C9.58572 7.93511 9.62322 7.92797 9.65179 7.8744L9.67322 7.83288C9.7125 7.75967 9.74509 7.76279 9.77098 7.84226C9.77545 7.85476 9.7817 7.8677 9.78973 7.8811C9.80491 7.9052 9.82634 7.91592 9.85402 7.91324C9.89152 7.90967 9.91518 7.89136 9.925 7.85833C9.93839 7.81011 9.97054 7.78601 10.0214 7.78601H10.8853C10.9263 7.78601 10.9571 7.80342 10.9777 7.83824C11.0295 7.92217 11.108 7.94985 11.2134 7.92128C11.2518 7.91145 11.2768 7.88735 11.2884 7.84895C11.2955 7.82574 11.3103 7.81101 11.3326 7.80476C11.3366 7.80352 11.3409 7.80309 11.3451 7.8035C11.3493 7.80391 11.3534 7.80514 11.3571 7.80713C11.3609 7.80912 11.3642 7.81183 11.3668 7.8151C11.3695 7.81837 11.3715 7.82214 11.3728 7.82619C11.3871 7.87529 11.4201 7.90654 11.4719 7.91994C11.5665 7.94494 11.6357 7.91681 11.6795 7.83556C11.6902 7.81503 11.7071 7.80119 11.7304 7.79404C11.8795 7.75029 11.9996 7.78422 12.0906 7.89583C12.121 7.93422 12.1491 7.93288 12.175 7.89181C12.2277 7.80877 12.2844 7.80431 12.3451 7.87842C12.3719 7.91056 12.4067 7.92797 12.4496 7.93065C12.5254 7.93511 12.5795 7.9061 12.6116 7.8436C12.6259 7.81502 12.6482 7.79717 12.6786 7.79003C12.8205 7.75431 12.9317 7.78556 13.0121 7.88378C13.0433 7.92128 13.0777 7.92529 13.1152 7.89583C13.1295 7.88422 13.1388 7.87038 13.1433 7.85431C13.1629 7.77574 13.196 7.76994 13.2424 7.8369C13.2942 7.91101 13.3692 7.94137 13.4674 7.92797C13.5237 7.91994 13.558 7.88824 13.5705 7.83288C13.5741 7.8177 13.583 7.80788 13.5973 7.80342C13.625 7.79449 13.6433 7.80386 13.6522 7.83154C13.6656 7.87261 13.6933 7.90029 13.7353 7.91458C13.8112 7.94047 13.8777 7.92485 13.9348 7.8677C13.9965 7.80666 14.0762 7.76848 14.1588 7.76034C14.2415 7.7522 14.3213 7.77466 14.3835 7.82351C14.4558 7.88065 14.5232 7.8744 14.5857 7.80476C14.6143 7.77261 14.6438 7.77172 14.6741 7.80208L14.7652 7.89315C14.8018 7.92976 14.8353 7.92663 14.8656 7.88378C14.8737 7.87128 14.8839 7.85922 14.8964 7.84761C14.9196 7.82529 14.9442 7.82395 14.9701 7.8436C15.1496 7.97842 15.3121 7.96994 15.4576 7.81815C15.4897 7.78422 15.5281 7.77083 15.5728 7.77797C15.6201 7.78601 15.6513 7.80922 15.6665 7.84761C15.676 7.87103 15.693 7.89067 15.7148 7.9035C15.7366 7.91633 15.762 7.92163 15.7871 7.9186C15.9754 7.89538 16.1567 7.92351 16.3308 8.00297L16.0696 8.6994C16.0527 8.74226 16.0674 8.76369 16.1138 8.76369L29.8656 8.76503C29.8751 8.76516 29.8844 8.76292 29.8927 8.75851C29.9011 8.7541 29.9081 8.74767 29.9133 8.7398C29.9185 8.73193 29.9217 8.72288 29.9225 8.71348C29.9233 8.70408 29.9217 8.69463 29.9179 8.68601L29.4679 7.64003C28.959 6.4999 28.296 5.4753 27.4791 4.5664C25.3081 2.09944 21.9853 1.55434 19.3911 3.68112C18.9991 4.00166 18.6348 4.35076 18.2982 4.72844C17.4715 5.71771 16.8156 6.80926 16.3308 8.00297C16.1567 7.92351 15.9754 7.89538 15.7871 7.9186C15.762 7.92163 15.7366 7.91633 15.7148 7.9035C15.693 7.89067 15.676 7.87103 15.6665 7.84761C15.6513 7.80922 15.6201 7.78601 15.5728 7.77797C15.5281 7.77083 15.4897 7.78422 15.4576 7.81815C15.3121 7.96994 15.1496 7.97842 14.9701 7.8436C14.9442 7.82395 14.9196 7.82529 14.8964 7.84761C14.8839 7.85922 14.8737 7.87128 14.8656 7.88378C14.8353 7.92663 14.8018 7.92976 14.7652 7.89315L14.6741 7.80208C14.6438 7.77172 14.6143 7.77261 14.5857 7.80476C14.5232 7.8744 14.4558 7.88065 14.3835 7.82351C14.3213 7.77466 14.2415 7.7522 14.1588 7.76034C14.0762 7.76848 13.9965 7.80666 13.9348 7.8677C13.8777 7.92485 13.8112 7.94047 13.7353 7.91458C13.6933 7.90029 13.6656 7.87261 13.6522 7.83154C13.6433 7.80386 13.625 7.79449 13.5973 7.80342C13.583 7.80788 13.5741 7.8177 13.5705 7.83288C13.558 7.88824 13.5237 7.91994 13.4674 7.92797C13.3692 7.94137 13.2942 7.91101 13.2424 7.8369C13.196 7.76994 13.1629 7.77574 13.1433 7.85431C13.1388 7.87038 13.1295 7.88422 13.1152 7.89583C13.0777 7.92529 13.0433 7.92128 13.0121 7.88378C12.9317 7.78556 12.8205 7.75431 12.6786 7.79003C12.6482 7.79717 12.6259 7.81502 12.6116 7.8436C12.5795 7.9061 12.5254 7.93511 12.4496 7.93065C12.4067 7.92797 12.3719 7.91056 12.3451 7.87842C12.2844 7.80431 12.2277 7.80877 12.175 7.89181C12.1491 7.93288 12.121 7.93422 12.0906 7.89583C11.9996 7.78422 11.8795 7.75029 11.7304 7.79404C11.7071 7.80119 11.6902 7.81503 11.6795 7.83556C11.6357 7.91681 11.5665 7.94494 11.4719 7.91994C11.4201 7.90654 11.3871 7.87529 11.3728 7.82619C11.3715 7.82214 11.3695 7.81837 11.3668 7.8151C11.3642 7.81183 11.3609 7.80912 11.3571 7.80713C11.3534 7.80514 11.3493 7.80391 11.3451 7.8035C11.3409 7.80309 11.3366 7.80352 11.3326 7.80476C11.3103 7.81101 11.2955 7.82574 11.2884 7.84895C11.2768 7.88735 11.2518 7.91145 11.2134 7.92128C11.108 7.94985 11.0295 7.92217 10.9777 7.83824C10.9571 7.80342 10.9263 7.78601 10.8853 7.78601H10.0214C9.97054 7.78601 9.93839 7.81011 9.925 7.85833C9.91518 7.89136 9.89152 7.90967 9.85402 7.91324C9.82634 7.91592 9.80491 7.9052 9.78973 7.8811C9.7817 7.8677 9.77545 7.85476 9.77098 7.84226C9.74509 7.76279 9.7125 7.75967 9.67322 7.83288L9.65179 7.8744C9.62322 7.92797 9.58572 7.93511 9.53929 7.89583C9.51964 7.87976 9.50714 7.85967 9.50179 7.83556C9.49464 7.80253 9.47411 7.78735 9.44018 7.79003C9.42143 7.79092 9.41072 7.80074 9.40804 7.81949C9.40089 7.86056 9.37768 7.88958 9.33839 7.90654C9.24822 7.94672 9.17098 7.9311 9.1067 7.85967C9.08527 7.83556 9.05893 7.81904 9.02768 7.81011C8.78839 7.74136 8.59197 7.76369 8.43839 7.87708C8.39822 7.90565 8.36027 7.90297 8.32455 7.86904C8.24688 7.79226 8.0942 7.76279 7.86652 7.78065C8.66295 6.54761 9.58438 5.46181 10.6308 4.52341C14.6862 0.876606 19.9965 -0.454589 25.3509 0.13871ZM38.3812 20.7695C38.3762 20.7694 38.3713 20.7703 38.3667 20.772C38.3646 20.7728 38.3626 20.7738 38.3606 20.775C38.3544 20.7787 38.3493 20.7841 38.346 20.7905C38.3479 20.7867 38.3505 20.7832 38.3535 20.7803L38.3543 20.7796C38.3549 20.7791 38.3555 20.7785 38.3561 20.778C38.3575 20.7769 38.359 20.7759 38.3606 20.775C38.3668 20.7713 38.374 20.7694 38.3812 20.7695ZM36.976 20.8573C36.9755 20.856 36.975 20.8548 36.9746 20.8534L36.9755 20.8558L36.976 20.8573ZM36.976 20.8573L36.9763 20.8581L36.9768 20.8592C36.9772 20.8603 36.9776 20.8613 36.9781 20.8623C36.9774 20.8607 36.9767 20.859 36.976 20.8573ZM37.2344 20.84C37.2351 20.8421 37.2358 20.844 37.2365 20.8459C37.2373 20.848 37.2381 20.8499 37.2389 20.8519C37.2373 20.8481 37.2358 20.8442 37.2344 20.84ZM26.0272 17.2078C26.6031 16.2971 27.9049 16.2462 28.5344 17.1435C28.9214 17.8199 28.7138 18.5806 28.0375 18.9476C27.5482 19.2145 27.058 19.2172 26.567 18.9556C25.9228 18.6141 25.6951 17.8667 26.0272 17.2078ZM25.8304 17.1435L25.7318 17.1138C25.7393 17.1227 25.7453 17.1326 25.75 17.1435C25.7512 17.1467 25.7525 17.1498 25.7537 17.1527C25.7541 17.1537 25.7546 17.1547 25.755 17.1558C25.7626 17.1731 25.7703 17.1848 25.7779 17.1908C25.7903 17.2008 25.8028 17.1956 25.8153 17.1753C25.8203 17.1672 25.8253 17.1566 25.8304 17.1435ZM21.6411 17.3539C21.5205 17.7101 21.537 18.0454 21.6906 18.3597C22.4165 19.8476 25.0522 18.9932 24.2754 17.2173C23.6245 16.1807 22.1915 16.2784 21.6411 17.3539ZM39.594 14.5849C39.5928 14.5854 39.5917 14.5861 39.5907 14.5869C39.5891 14.5884 39.588 14.5904 39.5875 14.5925C39.5878 14.5911 39.5884 14.5898 39.5892 14.5886C39.5896 14.588 39.5901 14.5875 39.5907 14.5869C39.5916 14.5862 39.5925 14.5855 39.5935 14.585C39.5946 14.5846 39.5957 14.5843 39.5969 14.5841C39.5959 14.5842 39.5949 14.5845 39.594 14.5849ZM34.5217 14.5869C34.5211 14.5854 34.5205 14.5838 34.5201 14.5821C34.5192 14.579 34.5186 14.5756 34.5183 14.5721C34.5183 14.5578 34.5125 14.5471 34.5009 14.5399C34.4696 14.5194 34.4339 14.5105 34.3937 14.5132C34.3054 14.5176 34.259 14.4819 34.2545 14.4061C35.4473 14.148 36.4536 13.5985 37.2732 12.7574L37.8009 11.9699C37.8902 11.836 37.8607 11.7998 37.7125 11.8614C36.8089 12.2329 35.8545 12.6288 34.8491 13.0494C34.4513 13.2168 34.0803 13.2208 33.6879 13.0668C32.0629 12.4248 30.3902 11.7699 28.6696 11.1021C28.6321 11.0878 28.5946 11.0878 28.5571 11.1021C26.908 11.744 25.1339 12.432 23.2348 13.1659C23.0768 13.2275 22.9165 13.2271 22.754 13.1646C20.9576 12.4753 19.1741 11.7887 17.4036 11.1047C17.3616 11.0878 17.3196 11.0878 17.2777 11.1047C15.5071 11.7887 13.8134 12.4507 12.1964 13.0909C11.8991 13.2088 11.5616 13.2463 11.2589 13.1204C10.2473 12.6998 9.25267 12.2815 8.27499 11.8654C8.13303 11.8047 8.0991 11.8418 8.17321 11.9766C8.34821 12.2989 8.57588 12.6163 8.85623 12.9288C9.75891 13.798 10.7821 14.2239 12.0049 14.4904C11.9977 14.5302 11.9886 14.5627 11.9774 14.5881L11.8616 14.5989C11.8565 14.5939 11.7731 14.5777 11.7679 14.5721C11.7428 14.5446 11.7215 14.5379 11.704 14.552C11.6969 14.5577 11.6905 14.5667 11.6847 14.579C11.6834 14.5819 11.6821 14.5849 11.6808 14.5882L11.8616 14.5989C11.9317 14.6691 11.9082 14.6737 11.9477 14.6344C11.9588 14.6233 11.9687 14.6079 11.9774 14.5881L34.5217 14.5869ZM38.0326 20.8293L38.0328 20.831L38.0331 20.8328C38.0329 20.8316 38.0327 20.8305 38.0326 20.8293ZM8.30708 9.61554C8.24148 9.71595 8.17991 9.81102 8.18526 9.93554C8.20312 10.3409 8.20133 10.7521 8.17991 11.169C8.17871 11.1907 8.18442 11.2123 8.1962 11.2306C8.20799 11.2488 8.22525 11.2629 8.24553 11.2708L11.6339 12.5913C11.6649 12.6034 11.6997 12.6034 11.7317 12.5913C13.3978 11.9449 15.1161 11.2766 16.8866 10.5864C17.212 10.4592 17.5911 10.4833 17.9219 10.6159C19.6469 11.3034 21.3116 11.9668 22.9161 12.6061C22.9634 12.6248 23.0103 12.6248 23.0567 12.6061C24.7353 11.9257 26.437 11.2409 28.162 10.5516C28.4406 10.4404 28.7594 10.4793 29.0312 10.5851C30.8777 11.3065 32.5955 11.9735 34.1848 12.586C34.2236 12.6007 34.2665 12.6007 34.3054 12.586L37.7406 11.2654C37.7826 11.2494 37.8036 11.219 37.8036 11.1744L37.8089 9.84315C37.6036 9.46547 37.2804 9.27663 36.8393 9.27663C27.5759 9.27485 18.3125 9.27485 9.04911 9.27663C8.79732 9.27663 8.54994 9.38964 8.30708 9.61554Z" fill="#00AB55"/>
<path fill-rule="evenodd" clip-rule="evenodd" d="M13.7621 16.273L12.0531 20.9632C11.5817 22.2543 11.2634 23.1462 11.0982 23.6391C10.9469 24.0917 10.6308 24.298 10.1687 24.3208C9.36249 24.3609 8.75178 24.3533 8.3366 24.298C8.15803 24.2739 8.00089 24.1609 7.86517 23.9591C7.27054 23.0788 6.7875 22.152 6.41608 21.1788C5.8009 19.6145 5.46875 18.0015 5.41964 16.3399C5.63393 16.2355 5.86875 16.2038 6.12411 16.2449C6.15714 16.2502 6.17902 16.2373 6.18973 16.206L6.2058 16.1605C6.2183 16.123 6.2442 16.1024 6.28348 16.0989C6.34152 16.0944 6.38125 16.1181 6.40268 16.1698C6.42143 16.2154 6.4558 16.2382 6.5058 16.2382H6.90759C6.95759 16.2382 6.99063 16.214 7.0067 16.1658C7.01116 16.1515 7.0192 16.139 7.0308 16.1283C7.06027 16.0998 7.09375 16.0931 7.13125 16.1082C7.20357 16.1368 7.27812 16.1457 7.35491 16.135C7.39241 16.1297 7.42143 16.1431 7.44196 16.1752C7.47679 16.2288 7.52813 16.2515 7.59598 16.2435C7.64598 16.2382 7.69509 16.2364 7.7433 16.2382C8.8683 16.298 9.99062 16.2895 11.1103 16.2127C11.1576 16.2091 11.2036 16.2163 11.2482 16.2341C11.3161 16.2609 11.3683 16.2449 11.4049 16.1859C11.4237 16.1556 11.4478 16.1502 11.4772 16.1698C11.6022 16.2529 11.7661 16.2743 11.9688 16.2341C11.9866 16.2306 12.0062 16.2301 12.0277 16.2328C12.0562 16.2373 12.0737 16.2248 12.0799 16.1953C12.096 16.1149 12.1237 16.1078 12.1629 16.1739L12.183 16.2073C12.1955 16.2279 12.2134 16.2382 12.2366 16.2382H12.9612C12.9933 16.2382 13.0147 16.223 13.0254 16.1926L13.0375 16.1578C13.05 16.1203 13.0763 16.1011 13.1165 16.1002C13.1879 16.0984 13.2317 16.1301 13.2478 16.1953C13.2493 16.2012 13.2529 16.2065 13.258 16.2101C13.2632 16.2138 13.2695 16.2157 13.2759 16.2154C13.5339 16.1922 13.696 16.2114 13.7621 16.273ZM7.7557 20.8493C7.75569 20.8523 7.75557 20.8554 7.75535 20.8587C7.75356 20.8846 7.75536 20.9092 7.76071 20.9324L7.7557 20.8493Z" fill="#00AB55"/>
<path d="M24.8875 24.4695L24.8862 26.3847C24.8862 26.4356 24.9116 26.4615 24.9625 26.4624C29.2679 26.5418 33.542 26.9548 37.7848 27.7012C39.0554 27.9253 40.3357 28.2061 41.6259 28.5436C42.8991 28.8776 44.0656 29.2927 45.1254 29.7892C45.3978 29.9168 45.3853 29.957 45.0879 29.9097C39.4263 29.0142 33.742 28.441 28.0348 28.1901C24.9464 28.0543 21.8143 28.0606 18.6384 28.2088C12.6545 28.4892 6.74241 29.0731 0.902231 29.9606C0.85491 29.9677 0.810714 29.9601 0.769642 29.9378L0.724106 29.9151C0.683035 29.8936 0.683481 29.8731 0.725446 29.8534C2.32723 29.1035 3.90089 28.6119 5.73304 28.2034C10.6335 27.1106 15.8862 26.5829 21.033 26.453C21.0795 26.4521 21.1022 26.4285 21.1013 26.382L21.1 24.4441C21.1 24.3941 21.075 24.3691 21.025 24.3691C19.7955 24.3816 18.5263 24.3816 17.2174 24.3691C16.0897 24.3584 16.0643 22.6601 17.271 22.6615C21.046 22.6642 24.8558 22.6637 28.7004 22.6601C29.8964 22.6588 29.8455 24.3744 28.7446 24.3744C27.5312 24.3753 26.2795 24.3735 24.9893 24.3691C24.9214 24.3691 24.8875 24.4026 24.8875 24.4695Z" fill="#00AB55"/>
<path fill-rule="evenodd" clip-rule="evenodd" d="M114.192 9.60068C112.497 7.69487 109.802 7.39621 107.41 7.58371C106.765 7.63461 106.087 7.77211 105.379 7.99621C104.193 8.37032 103.263 9.08371 102.589 10.1364C102.912 10.1748 103.235 10.1864 103.557 10.1712C103.963 10.1516 104.285 10.1462 104.521 10.1551C104.756 10.1641 104.992 10.1667 105.227 10.1632C105.413 10.1596 105.648 10.1654 105.932 10.1806C106.514 10.2109 107.059 10.1578 107.567 10.0212C108.024 9.33818 108.834 9.12121 109.463 9.73461C109.787 10.1882 109.992 10.6561 110.081 11.1383L110.224 12.6141L110.189 13.4337C110.188 13.9694 110.027 14.5458 109.706 15.1627C109.355 15.6315 108.883 15.8128 108.29 15.7065C108.004 15.6548 107.754 15.5074 107.538 15.2646L103.81 15.2981C103.792 15.2981 103.778 15.2896 103.769 15.2726C103.762 15.2583 103.751 15.2507 103.737 15.2498C103.421 15.24 103.1 15.2128 102.774 15.1681C104.5 17.5628 108.211 17.9753 110.887 17.3673C112.103 17.0914 113.154 16.49 114.04 15.5632C114.192 15.4043 114.312 15.2704 114.403 15.1614C114.819 14.5275 115.059 13.8717 115.125 13.194L115.151 12.4909C115.169 12.0123 115.107 11.5427 114.965 11.082C114.81 10.5481 114.552 10.0542 114.192 9.60068ZM113.019 9.65157C113.018 9.65406 113.018 9.65657 113.017 9.65891C113.015 9.66232 113.014 9.66558 113.013 9.66869C113.014 9.66483 113.016 9.66073 113.018 9.6564C113.018 9.65482 113.019 9.65321 113.019 9.65157Z" fill="#00AB55"/>
<path d="M107.567 10.0212C107.299 10.4632 107.11 10.9793 107 11.5695L106.928 12.4279C106.896 13.0913 106.96 13.7507 107.12 14.406C107.195 14.6855 107.334 14.9717 107.538 15.2646L103.81 15.2981C103.792 15.2981 103.778 15.2896 103.769 15.2726C103.762 15.2583 103.751 15.2507 103.737 15.2498C103.421 15.24 103.1 15.2128 102.774 15.1681L102.349 14.4128C102.084 13.7878 101.973 13.1275 102.017 12.432L102.087 11.6807C102.185 11.1056 102.352 10.5908 102.589 10.1364C102.912 10.1748 103.235 10.1864 103.557 10.1712C103.963 10.1516 104.285 10.1462 104.521 10.1551C104.756 10.1641 104.992 10.1667 105.227 10.1632C105.413 10.1596 105.648 10.1654 105.932 10.1806C106.514 10.2109 107.059 10.1578 107.567 10.0212Z" fill="#00AB55"/>
<path d="M86.3353 9.83646C86.6201 9.5695 86.9129 9.41548 87.2138 9.37441C87.2683 9.36726 87.2955 9.33601 87.2955 9.28066L87.2902 7.81548C87.2902 7.79026 87.28 7.76607 87.2619 7.74824C87.2439 7.73041 87.2193 7.72039 87.1937 7.72039L81.1295 7.70566C81.0161 7.70566 80.9589 7.76235 80.958 7.87575L80.9513 9.27798C80.9513 9.33691 80.9804 9.37084 81.0384 9.37976C81.3438 9.42798 81.6424 9.58959 81.9344 9.86459C82.0522 10.7012 82.0839 11.5833 82.0294 12.5109L82.0549 14.9056C82.0709 15.4823 81.7312 15.8145 81.0357 15.902C80.9911 15.9074 80.9687 15.9328 80.9687 15.9783L80.9674 17.3109C80.9674 17.3565 80.9902 17.3792 81.0357 17.3792L87.329 17.3806C87.396 17.3806 87.4295 17.3466 87.4295 17.2788V15.9449C87.4295 15.8993 87.4067 15.8739 87.3612 15.8685C86.7812 15.8002 86.1652 15.5002 86.2308 14.8212L86.2442 12.6637C86.1808 11.6619 86.2112 10.7195 86.3353 9.83646Z" fill="#00AB55"/>
<path fill-rule="evenodd" clip-rule="evenodd" d="M58.6871 8.46499L58.4219 7.84624C58.4071 7.81164 58.3824 7.78215 58.3507 7.76143C58.319 7.74071 58.2818 7.72968 58.2438 7.72972L54.2179 7.73374C54.1759 7.73463 54.1469 7.75383 54.1308 7.79133L53.7344 8.71008L52.3616 11.9136L51.6973 13.4525C51.615 13.6284 51.5397 13.8134 51.4637 14C51.284 14.4418 51.1003 14.8932 50.8094 15.2566C50.5379 15.5289 50.1879 15.6396 49.7594 15.5887C49.7513 15.5877 49.743 15.5885 49.7352 15.5909C49.7274 15.5933 49.7203 15.5973 49.7142 15.6026C49.7081 15.6079 49.7033 15.6144 49.7 15.6217C49.6967 15.629 49.695 15.6369 49.6951 15.6449L49.7071 17.2762C49.7071 17.3035 49.718 17.3298 49.7374 17.3491C49.7567 17.3684 49.7829 17.3793 49.8103 17.3793L55.221 17.3806C55.2683 17.3806 55.292 17.357 55.292 17.3097L55.2853 15.7856C55.2844 15.7025 55.2429 15.6619 55.1607 15.6637C54.7161 15.6735 54.4071 15.5458 54.2339 15.2807C54.2214 15.0101 54.2701 14.8084 54.3799 14.6753C54.4647 14.5718 54.6366 14.5195 54.8955 14.5186C55.4723 14.5159 56.0496 14.5155 56.6272 14.5173C57.1665 14.5182 57.3808 14.8052 57.2701 15.3784C57.0344 15.5499 56.7446 15.6369 56.4009 15.6396C56.3152 15.6405 56.2723 15.6833 56.2723 15.7682L56.275 17.3284C56.275 17.3419 56.2804 17.3549 56.2899 17.3644C56.2994 17.374 56.3124 17.3793 56.3259 17.3793H62.7866C62.8545 17.3793 62.8884 17.3458 62.8884 17.2789L62.887 15.7039C62.887 15.6503 62.8607 15.6177 62.808 15.6061L62.1183 15.4628C61.7344 15.2298 61.4741 14.9218 61.3375 14.5387C61.283 14.3851 61.1505 14.0887 60.9397 13.6494L59.7625 10.9226L58.6871 8.46499ZM53.2351 13.6607C53.2319 13.6609 53.2287 13.6612 53.2254 13.6615L53.2351 13.6607ZM57.6071 13.6791C57.5934 13.6794 57.5797 13.6798 57.5661 13.6802L57.6071 13.6791ZM56.4009 12.8699C56.4031 12.867 56.4055 12.8642 56.4078 12.8616C56.4092 12.86 56.4107 12.8584 56.4121 12.8569C56.413 12.856 56.4139 12.8551 56.4148 12.8542L56.4168 12.8522C56.4112 12.8575 56.4059 12.8635 56.4009 12.8699ZM60.6665 13.6561C60.6647 13.6571 60.6629 13.6581 60.6611 13.659C60.6592 13.6599 60.6573 13.6609 60.6554 13.6618C60.6591 13.66 60.6628 13.6581 60.6665 13.6561ZM56.2951 13.0092L55.7513 11.5038C55.6674 11.2708 55.604 11.2761 55.5612 11.5199C55.5335 11.6761 55.4701 11.8574 55.371 12.0636L55.0763 12.9436C55.062 12.9873 55.0777 13.0092 55.1232 13.0092L56.2951 13.0092ZM56.5228 8.74445C56.5096 8.74346 56.4964 8.74247 56.4832 8.74151C56.4918 8.74213 56.5003 8.74278 56.5089 8.74343L56.5228 8.74445ZM57.1575 8.73238C57.1602 8.73339 57.1629 8.73444 57.1656 8.73556C57.1599 8.73321 57.1542 8.73111 57.1485 8.72925C57.1515 8.73023 57.1545 8.73127 57.1575 8.73238ZM55.5987 8.74092C55.6145 8.74191 55.6305 8.74278 55.6465 8.74358L55.6373 8.74311C55.6244 8.74243 55.6115 8.74172 55.5987 8.74092Z" fill="#00AB55"/>
<path fill-rule="evenodd" clip-rule="evenodd" d="M69.8071 7.77397C69.7893 7.732 69.7576 7.71102 69.712 7.71102L63.5259 7.72173C63.4616 7.72173 63.4299 7.75388 63.4308 7.81816L63.4415 9.26861C63.4424 9.32664 63.4719 9.36057 63.5299 9.3704C63.7942 9.41415 64.0241 9.51638 64.2196 9.67709C64.4258 9.87168 64.529 10.0949 64.529 10.3467C64.529 11.0628 64.5281 11.7735 64.5263 12.4788L64.5022 13.6936C64.6451 14.6266 64.5509 15.2226 64.2197 15.4815L63.5406 15.7333C63.4942 15.7502 63.471 15.7833 63.471 15.8324L63.4616 17.315C63.4616 17.3596 63.4839 17.3819 63.5286 17.3819L68.5067 17.3793C68.5701 17.3793 68.6018 17.3476 68.6018 17.2842L68.6045 15.8377C68.6045 15.7877 68.5808 15.7547 68.5335 15.7386L67.8223 15.5043C67.6134 15.3659 67.4982 15.2315 67.4768 15.1012C67.4437 14.9012 67.4393 14.6048 67.4634 14.2119L67.4527 12.3195C67.1598 12.4704 66.9402 12.5035 66.7937 12.4186C66.7643 12.4017 66.7397 12.407 66.7201 12.4347C66.679 12.4918 66.6232 12.5008 66.5527 12.4615C66.552 12.4611 66.5514 12.4606 66.5508 12.4601C66.5505 12.4599 66.5502 12.4596 66.5499 12.4594C66.5491 12.4586 66.5483 12.4577 66.5477 12.4568C66.5471 12.4559 66.5466 12.455 66.5462 12.4541C66.5459 12.4534 66.5456 12.4526 66.5454 12.4518C66.5459 12.4536 66.5467 12.4553 66.5477 12.4568C66.549 12.4587 66.5507 12.4603 66.5527 12.4615C66.6232 12.5008 66.679 12.4918 66.7201 12.4347C66.7397 12.407 66.7643 12.4017 66.7937 12.4186C66.9402 12.5035 67.1598 12.4704 67.4527 12.3195L67.4781 11.2895C67.4799 11.2422 67.5045 11.2154 67.5518 11.2092C67.6625 11.1949 67.7495 11.2409 67.8129 11.3471L68.2241 12.3918L69.2259 14.9056C69.3134 14.8538 69.4027 14.8386 69.4938 14.86C69.5366 14.8699 69.5795 14.8685 69.6223 14.856C69.7509 14.8176 69.8826 14.8025 70.0174 14.8105C70.0773 14.8143 70.13 14.8293 70.1807 14.8438C70.2741 14.8705 70.3608 14.8952 70.4728 14.844C70.5156 14.8252 70.5603 14.8176 70.6067 14.8212C70.8969 14.8471 71.2031 14.844 71.5255 14.8118C71.6165 14.8029 71.7067 14.8123 71.796 14.84C71.8397 14.8542 71.8839 14.8547 71.9286 14.8413C72.0643 14.7993 72.1978 14.7998 72.329 14.8426C72.379 14.8596 72.4281 14.8569 72.4763 14.8346C72.5621 14.7953 72.6455 14.7917 72.7268 14.8239C72.7714 14.8417 72.8174 14.8449 72.8647 14.8333C73.0442 14.7895 73.2455 14.7855 73.4688 14.8212L73.7875 14.0016L74.3674 12.5177L74.8683 11.2119C74.9612 11.1601 75.0348 11.1574 75.0893 11.2039C75.1134 11.2253 75.1272 11.2637 75.1308 11.319L75.1469 14.3632L75.1121 15.1855C74.9022 15.4534 74.6107 15.6382 74.2375 15.74C74.2084 15.7478 74.1827 15.7648 74.1641 15.7884C74.1455 15.8121 74.1351 15.8411 74.1344 15.8712L74.1129 17.315C74.1121 17.3578 74.133 17.3792 74.1759 17.3792H80.2629C80.3076 17.3792 80.3304 17.3569 80.3312 17.3123L80.35 15.8364C80.3509 15.7766 80.3219 15.7409 80.2629 15.7292C79.779 15.6391 79.4259 15.4507 79.2036 15.1641L79.162 14.4208L79.1607 10.2677C79.2536 9.74182 79.5728 9.44183 80.1183 9.36772C80.1629 9.36236 80.187 9.33737 80.1906 9.29272C80.2299 8.77754 80.2237 8.28558 80.1719 7.81683C80.1647 7.75076 80.1277 7.71772 80.0607 7.71772L73.6402 7.71638C73.618 7.71638 73.5963 7.72301 73.578 7.73542C73.5596 7.74783 73.5453 7.76545 73.537 7.78602L72.0062 11.4583L71.7879 12.0114C71.7129 12.1998 71.6379 12.1998 71.5629 12.0114L71.2723 11.2895L69.8071 7.77397ZM68.2241 12.3918C68.226 12.3915 68.2279 12.3912 68.2297 12.391C68.2329 12.3906 68.236 12.3904 68.239 12.3903C68.2356 12.3904 68.2321 12.3907 68.2284 12.3911C68.227 12.3913 68.2256 12.3915 68.2241 12.3918ZM73.6174 12.4909C73.6183 12.4908 73.6191 12.4907 73.6199 12.4907L73.6193 12.4908L73.6187 12.4908L73.6174 12.4909ZM73.6321 12.5016C73.6357 12.5141 73.6415 12.5239 73.6495 12.5311L73.6321 12.5016ZM75.2256 14.3674C75.2266 14.3674 75.2276 14.3675 75.2286 14.3675C75.2266 14.3674 75.2246 14.3674 75.2225 14.3676C75.2196 14.3679 75.2166 14.3687 75.2138 14.3699C75.2161 14.3689 75.2185 14.3682 75.2209 14.3678C75.2225 14.3676 75.224 14.3674 75.2256 14.3674ZM64.7058 14.3231C64.7062 14.326 64.7069 14.329 64.7079 14.3318C64.7083 14.3332 64.7088 14.3345 64.7094 14.3359C64.7077 14.3318 64.7065 14.3275 64.7058 14.3231Z" fill="#00AB55"/>
<path d="M73.4688 14.8212L72.5005 17.307C72.4921 17.3283 72.4776 17.3466 72.4587 17.3595C72.4398 17.3724 72.4175 17.3793 72.3946 17.3793H70.3147C70.254 17.3793 70.2121 17.3512 70.1888 17.2949L69.2259 14.9056C69.3134 14.8538 69.4027 14.8386 69.4938 14.86C69.5366 14.8699 69.5795 14.8685 69.6223 14.856C69.7509 14.8176 69.8826 14.8025 70.0174 14.8105C70.0773 14.8143 70.13 14.8293 70.1807 14.8438C70.2741 14.8705 70.3608 14.8952 70.4728 14.844C70.5156 14.8252 70.5603 14.8176 70.6067 14.8212C70.8969 14.8471 71.2031 14.844 71.5255 14.8118C71.6165 14.8029 71.7067 14.8123 71.796 14.84C71.8397 14.8542 71.8839 14.8547 71.9286 14.8413C72.0643 14.7993 72.1978 14.7998 72.329 14.8426C72.379 14.8596 72.4281 14.8569 72.4763 14.8346C72.5621 14.7953 72.6455 14.7917 72.7268 14.8239C72.7714 14.8417 72.8174 14.8449 72.8647 14.8333C73.0442 14.7895 73.2455 14.7855 73.4688 14.8212Z" fill="#00AB55"/>
<path fill-rule="evenodd" clip-rule="evenodd" d="M92.9875 10.6078C93.1955 10.2721 93.4772 10.0114 93.8326 9.82575C94.562 9.56414 95.317 9.65521 96.0973 10.099C96.3964 10.2695 96.5996 10.4302 96.7067 10.5811C96.8304 10.755 96.8488 10.9812 96.8666 11.1993C96.8734 11.2836 96.8802 11.3666 96.8929 11.4449C96.8964 11.4663 96.9074 11.4857 96.9241 11.4996C96.9408 11.5136 96.962 11.5213 96.9839 11.5213L100.394 11.5186C100.442 11.5186 100.466 11.4945 100.466 11.4463L100.471 7.97486C100.471 7.92307 100.446 7.89718 100.394 7.89718L98.6473 7.90254C98.6018 7.90254 98.5639 7.9195 98.5335 7.95343C98.5204 7.96823 98.5067 7.98387 98.4925 8.00009C98.3041 8.21569 98.0247 8.53527 97.7246 8.40075C95.9915 7.62798 94.2237 7.59718 92.3219 7.83557C90.796 8.02754 89.5045 8.67218 88.4473 9.7695L87.7857 10.7351C87.5045 11.2798 87.3692 11.861 87.3799 12.4789C87.3594 12.9297 87.4031 13.3565 87.5112 13.7592L87.7589 14.5025C87.9562 14.9365 88.2303 15.3445 88.5812 15.7266C88.9375 16.0748 89.2143 16.3128 89.4116 16.4404C90.7098 17.2824 92.121 17.6645 93.6451 17.5869C94.9674 17.519 96.4268 17.2779 98.0232 16.8636C98.3125 16.7873 98.5442 16.9708 98.6473 17.2386C98.6661 17.2878 98.7018 17.3128 98.7545 17.3136L100.396 17.3324C100.45 17.3333 100.477 17.307 100.477 17.2534L100.487 15.8177L100.512 14.1262C100.279 14.086 100.093 14.0686 99.9531 14.074C99.1442 14.1007 98.296 14.1088 97.4085 14.0981C97.0513 14.0936 96.6942 14.0981 96.337 14.1115C96.3272 14.1124 96.3214 14.1177 96.3196 14.1275C96.3192 14.1292 96.3188 14.131 96.3184 14.1329C96.3179 14.135 96.3174 14.1372 96.3169 14.1396C96.3178 14.1351 96.3187 14.1311 96.3196 14.1275C96.3214 14.1177 96.3272 14.1124 96.337 14.1115C96.6942 14.0981 97.0513 14.0936 97.4085 14.0981C98.296 14.1088 99.1442 14.1007 99.9531 14.074C100.093 14.0686 100.279 14.086 100.512 14.1262C100.774 13.8253 101.093 13.6623 101.468 13.6373C101.487 13.6363 101.506 13.6279 101.519 13.6139C101.533 13.6 101.54 13.5815 101.54 13.5623L101.539 12.3435C101.539 12.3197 101.529 12.2969 101.512 12.2801C101.495 12.2633 101.472 12.2538 101.448 12.2538L95.2402 12.2511C95.2142 12.2511 95.1894 12.2613 95.171 12.2794C95.1527 12.2974 95.1424 12.322 95.1424 12.3475L95.1357 13.5944C95.1348 13.6373 95.1536 13.6676 95.192 13.6855C95.3262 13.7508 95.452 13.7714 95.5731 13.7912C95.7697 13.8234 95.9537 13.8535 96.1402 14.0699C96.4241 14.7449 95.9594 15.2753 95.3312 15.3985C94.9821 15.4673 94.6317 15.4695 94.2799 15.4052C93.7308 15.3061 93.3219 15.0396 93.0531 14.6057C92.8799 14.2985 92.783 14.0159 92.7625 13.7578L92.7545 12.8351C92.7542 12.7066 92.7508 12.574 92.7473 12.4389C92.7314 11.8263 92.7143 11.1631 92.9875 10.6078ZM88.8116 10.707C88.8064 10.7072 88.8015 10.7093 88.7978 10.7128C88.799 10.7117 88.8003 10.7107 88.8018 10.7099C88.8022 10.7096 88.8026 10.7094 88.8031 10.7092L88.8039 10.7088L88.8046 10.7085C88.8068 10.7076 88.8092 10.7071 88.8116 10.707Z" fill="#00AB55"/>
<path d="M55.7468 23.6924C55.7476 23.7021 55.7459 23.7119 55.742 23.7208C54.8714 25.7512 51.8419 25.0373 51.7402 22.8918C51.7 22.0507 52.2143 21.2338 52.9844 20.9311C53.946 20.5534 54.7969 20.7123 55.537 21.4079C55.5817 21.4507 55.6348 21.4722 55.6964 21.4722L56.9192 21.4695C56.9817 21.4695 56.9973 21.4422 56.9661 21.3878C56.0165 19.7204 54.0853 19.3132 52.3951 19.9681C51.6009 20.2762 50.7478 21.0677 50.5388 21.9034C50.1924 23.2909 50.5478 24.3972 51.6049 25.2222C52.1826 25.6739 52.8669 25.9163 53.658 25.9494C55.1375 26.0119 56.1933 25.4525 56.8254 24.2713C57.0866 23.7824 57.1736 23.2105 57.2125 22.6521C57.213 22.6424 57.2116 22.6327 57.2084 22.6236C57.2051 22.6146 57.2001 22.6062 57.1936 22.5992C57.1921 22.5976 57.1906 22.5961 57.189 22.5947C57.1871 22.593 57.1851 22.5914 57.183 22.5899C57.1791 22.5871 57.1749 22.5847 57.1705 22.5828C57.1697 22.5825 57.1689 22.5821 57.1681 22.5818C57.1674 22.5816 57.1668 22.5813 57.1662 22.5811C57.1653 22.5808 57.1645 22.5805 57.1637 22.5802C57.1625 22.5799 57.1613 22.5795 57.1601 22.5792C57.1545 22.5778 57.1487 22.577 57.1428 22.5771L53.6473 22.573C53.5839 22.573 53.5513 22.6047 53.5495 22.6681L53.5348 23.5748C53.5347 23.5795 53.5351 23.5842 53.536 23.5888C53.5368 23.5925 53.5379 23.5962 53.5393 23.5998C53.5425 23.6078 53.5472 23.615 53.5532 23.6212C53.5591 23.6273 53.5663 23.6321 53.5742 23.6354C53.5821 23.6388 53.5905 23.6405 53.5991 23.6405L55.687 23.6378C55.697 23.6379 55.7068 23.6405 55.7156 23.6452C55.7243 23.65 55.7318 23.6568 55.7372 23.665C55.7427 23.6732 55.7459 23.6826 55.7468 23.6924Z" fill="#00AB55"/>
<path d="M110.74 23.6432L112.775 23.6338C112.787 23.6337 112.799 23.6367 112.81 23.6423C112.82 23.6479 112.829 23.6561 112.836 23.666C112.843 23.676 112.847 23.6874 112.848 23.6993C112.849 23.7112 112.847 23.7232 112.842 23.7343C112.067 25.6226 109.216 25.1057 108.887 23.2066C108.506 20.9901 111.195 19.9682 112.662 21.4186C112.696 21.4526 112.737 21.4695 112.785 21.4695L114.042 21.4735C114.105 21.4735 114.12 21.4467 114.088 21.3932C113.637 20.6441 113.072 20.1508 112.392 19.9133C110.922 19.3976 109.206 19.7097 108.176 20.9485C107.018 22.3401 107.426 24.4856 108.98 25.4124C109.804 25.9043 110.709 26.0646 111.696 25.8932C113.333 25.6093 114.316 24.2713 114.31 22.6307C114.31 22.6161 114.304 22.6021 114.294 22.5919C114.284 22.5816 114.27 22.5758 114.255 22.5758L110.761 22.5744C110.694 22.5744 110.66 22.6079 110.659 22.6749L110.642 23.5441C110.642 23.557 110.644 23.5699 110.649 23.5819C110.652 23.5887 110.655 23.5952 110.659 23.6013C110.663 23.6058 110.666 23.6101 110.67 23.6141C110.679 23.6233 110.69 23.6306 110.702 23.6356C110.714 23.6406 110.727 23.6432 110.74 23.6432Z" fill="#00AB55"/>
<path fill-rule="evenodd" clip-rule="evenodd" d="M63.3692 25.8382L62.0982 25.8462C62.0904 25.8464 62.0827 25.8445 62.0759 25.8408C62.069 25.8371 62.0632 25.8316 62.0591 25.8251C62.0549 25.8185 62.0525 25.8109 62.0521 25.8032C62.0517 25.7954 62.0533 25.7876 62.0567 25.7806L64.983 19.8141C64.9867 19.8066 64.9924 19.8002 64.9995 19.7957C65.0066 19.7912 65.0148 19.7888 65.0232 19.7887L66.2634 19.7954C66.2718 19.7955 66.28 19.7979 66.2871 19.8024C66.2942 19.8069 66.2999 19.8133 66.3036 19.8208L69.2138 25.7833C69.2146 25.7848 69.2152 25.7863 69.2157 25.7878C69.2165 25.79 69.2172 25.7922 69.2176 25.7945C69.2181 25.7968 69.2184 25.7992 69.2185 25.8016C69.2185 25.803 69.2185 25.8044 69.2184 25.8058C69.218 25.8136 69.2156 25.8212 69.2115 25.8277C69.2073 25.8343 69.2015 25.8397 69.1946 25.8434C69.1878 25.8471 69.1801 25.849 69.1723 25.8489L67.8424 25.8369C67.834 25.8367 67.8258 25.8343 67.8187 25.8298C67.8116 25.8253 67.8059 25.819 67.8022 25.8114L67.2049 24.5458C67.2011 24.5381 67.1952 24.5316 67.1878 24.5271C67.1805 24.5226 67.172 24.5202 67.1634 24.5204H64.071C64.0626 24.5205 64.0544 24.5229 64.0473 24.5274C64.0402 24.5319 64.0345 24.5383 64.0308 24.5458L63.4094 25.8128C63.4079 25.8158 63.4061 25.8186 63.4041 25.8211C63.4019 25.8239 63.3993 25.8264 63.3965 25.8286C63.3954 25.8295 63.3941 25.8304 63.3929 25.8312C63.3858 25.8356 63.3776 25.8381 63.3692 25.8382ZM64.6214 23.4034C64.6182 23.4098 64.6167 23.4168 64.617 23.424C64.6173 23.4311 64.6194 23.438 64.6232 23.4441C64.627 23.4501 64.6323 23.4551 64.6385 23.4585C64.6448 23.462 64.6518 23.4637 64.6589 23.4637L66.5848 23.4556C66.5918 23.4556 66.5986 23.4538 66.6047 23.4505C66.6108 23.4471 66.6159 23.4423 66.6197 23.4364C66.6234 23.4305 66.6256 23.4238 66.6261 23.4169C66.6265 23.41 66.6252 23.403 66.6223 23.3967L65.6513 21.4387C65.6478 21.4319 65.6425 21.4263 65.636 21.4223C65.6296 21.4184 65.6221 21.4163 65.6145 21.4163C65.6069 21.4163 65.5995 21.4184 65.593 21.4223C65.5865 21.4263 65.5812 21.4319 65.5777 21.4387L64.6214 23.4034Z" fill="#00AB55"/>
<path d="M79.1902 25.8262L81.0719 22.2034C81.0765 22.1949 81.0839 22.1881 81.0928 22.1841C81.1017 22.1801 81.1116 22.1792 81.1211 22.1815C81.1306 22.1838 81.139 22.1892 81.1451 22.1968C81.1513 22.2044 81.1547 22.2138 81.1549 22.2235L81.1321 25.7994C81.1321 25.8111 81.1368 25.8224 81.1451 25.8307C81.1534 25.8389 81.1646 25.8436 81.1763 25.8436L82.45 25.8476C82.4516 25.8476 82.4532 25.8475 82.4549 25.8473C82.4561 25.8472 82.4574 25.847 82.4587 25.8468C82.4615 25.8462 82.4642 25.8454 82.4669 25.8443C82.4702 25.8429 82.4733 25.8411 82.4761 25.8391C82.4779 25.8377 82.4796 25.8363 82.4812 25.8347C82.4821 25.8338 82.4829 25.833 82.4837 25.8321C82.4846 25.831 82.4855 25.8298 82.4863 25.8286C82.4874 25.8271 82.4884 25.8254 82.4892 25.8238C82.4898 25.8226 82.4903 25.8215 82.4908 25.8203C82.4923 25.8168 82.4933 25.8132 82.4938 25.8095C82.494 25.8075 82.4942 25.8054 82.4942 25.8034L82.4995 19.8369C82.4995 19.8252 82.4949 19.8139 82.4866 19.8057C82.4783 19.7974 82.4671 19.7927 82.4553 19.7927L81.0089 19.7873C81.0045 19.7874 81.0002 19.7881 80.9961 19.7894C80.9926 19.7905 80.9893 19.7921 80.9861 19.794C80.9793 19.7982 80.9737 19.8043 80.9701 19.8115L78.5152 24.4976C78.5114 24.5046 78.5058 24.5104 78.4989 24.5145C78.4921 24.5186 78.4843 24.5207 78.4763 24.5207C78.4684 24.5207 78.4606 24.5186 78.4537 24.5145C78.4469 24.5104 78.4413 24.5046 78.4375 24.4976L75.9826 19.8141C75.9789 19.807 75.9734 19.8009 75.9665 19.7967C75.9597 19.7924 75.9518 19.7901 75.9437 19.79L74.4464 19.7873C74.4347 19.7873 74.4235 19.792 74.4152 19.8003C74.4069 19.8086 74.4022 19.8198 74.4022 19.8315L74.4009 25.7994C74.4009 25.8111 74.4055 25.8224 74.4138 25.8307C74.4221 25.8389 74.4333 25.8436 74.4451 25.8436L75.704 25.8449C75.7157 25.8449 75.727 25.8403 75.7353 25.832C75.7435 25.8237 75.7482 25.8125 75.7482 25.8007L75.7361 22.2007C75.7354 22.1904 75.7383 22.1801 75.7444 22.1716C75.7504 22.1632 75.7593 22.1572 75.7693 22.1546C75.7794 22.1521 75.7901 22.1531 75.7994 22.1577C75.8088 22.1622 75.8163 22.1698 75.8205 22.1793L77.7129 25.8155C77.7166 25.8227 77.7222 25.8287 77.729 25.8329C77.7358 25.8372 77.7437 25.8395 77.7518 25.8396L79.1513 25.8503C79.1594 25.8502 79.1673 25.8479 79.1741 25.8437C79.1809 25.8394 79.1865 25.8334 79.1902 25.8262Z" fill="#00AB55"/>
<path d="M89.5911 19.785L88.4233 19.7871C88.3722 19.7871 88.3309 19.8286 88.331 19.8796L88.3413 25.7564C88.3414 25.8074 88.3828 25.8487 88.4338 25.8487L89.6017 25.8466C89.6527 25.8465 89.694 25.8051 89.694 25.754L89.6837 19.8773C89.6836 19.8262 89.6422 19.7849 89.5911 19.785Z" fill="#00AB55"/>
<path d="M95.729 25.8422L96.9866 25.8462C96.9987 25.8462 97.0103 25.8415 97.0188 25.8329C97.0273 25.8244 97.0321 25.8128 97.0321 25.8007L97.0281 21.7159C97.028 21.7063 97.0309 21.697 97.0365 21.6892C97.042 21.6814 97.0498 21.6755 97.0588 21.6724C97.0679 21.6693 97.0777 21.6691 97.0868 21.6718C97.096 21.6746 97.104 21.6802 97.1098 21.6878L100.406 25.8221C100.408 25.8247 100.41 25.827 100.413 25.8291C100.415 25.8313 100.418 25.8332 100.421 25.8348C100.427 25.8378 100.434 25.8394 100.441 25.8396L101.831 25.8476C101.843 25.8476 101.854 25.8428 101.863 25.8343C101.872 25.8257 101.876 25.8141 101.876 25.8021L101.879 19.8369C101.879 19.8248 101.874 19.8132 101.866 19.8047C101.857 19.7961 101.846 19.7913 101.833 19.7913L100.567 19.7887C100.554 19.7887 100.543 19.7935 100.534 19.802C100.526 19.8105 100.521 19.8221 100.521 19.8342L100.529 23.919C100.529 23.9286 100.526 23.9379 100.521 23.9457C100.518 23.9497 100.514 23.9533 100.51 23.9561C100.507 23.9589 100.503 23.961 100.498 23.9625C100.489 23.9656 100.479 23.9658 100.47 23.9631C100.47 23.9628 100.469 23.9626 100.468 23.9623C100.467 23.9619 100.466 23.9615 100.465 23.9611C100.458 23.958 100.452 23.9532 100.447 23.9471L97.1607 19.8114C97.1596 19.81 97.1583 19.8086 97.157 19.8073C97.1565 19.8068 97.156 19.8063 97.1555 19.8058C97.1524 19.803 97.149 19.8007 97.1453 19.7988C97.1392 19.7958 97.1326 19.7942 97.1259 19.794L95.7277 19.7887C95.7156 19.7887 95.704 19.7935 95.6955 19.802C95.6869 19.8105 95.6821 19.8221 95.6821 19.8342L95.6835 25.7967C95.6835 25.8088 95.6883 25.8204 95.6968 25.8289C95.7054 25.8374 95.7169 25.8422 95.729 25.8422Z" fill="#00AB55"/>
</svg>
