<svg width="126" height="34" fill="none" xmlns="http://www.w3.org/2000/svg"><g clip-path="url(#a)"><path fill-rule="evenodd" clip-rule="evenodd" d="M66.382 7.965a84.988 84.988 0 0 1-.437 5.447 5.166 5.166 0 0 1-.145.819c-.531-.334-1.43-1.005-2.943-2.34-3.307-2.924-4.294-3.722-4.294-3.722s.58.64 3.796 4.23c1.3 1.45 1.99 2.323 2.35 2.847a6.035 6.035 0 0 1-.728.136c-1.196.154-3.041.355-5.423.508-4.397.282-7.913.417-7.913.417s3.118.042 7.92.297c2.707.143 4.573.333 5.69.472.153.025.291.052.417.084-.349.542-1.015 1.43-2.281 2.873-2.91 3.32-3.705 4.31-3.705 4.31s.637-.58 4.214-3.81c1.497-1.353 2.376-2.048 2.89-2.399.053.168.093.363.126.59.01.077.392 3.335.544 5.735.28 4.415.415 7.957.415 7.957s.042-3.141.295-7.964c.15-2.834.349-4.753.489-5.856.028-.17.06-.32.102-.454.531.336 1.43 1.006 2.936 2.338 3.31 2.921 4.294 3.72 4.294 3.72s-.579-.64-3.796-4.23c-1.267-1.415-1.955-2.279-2.323-2.807.198-.05.428-.092.696-.128a85.666 85.666 0 0 1 5.429-.509c4.396-.281 7.912-.417 7.912-.417s-3.118-.04-7.92-.296c-2.724-.145-4.598-.336-5.713-.474a4.593 4.593 0 0 1-.492-.107c.352-.544 1.017-1.426 2.263-2.849 2.913-3.321 3.707-4.31 3.707-4.31s-.637.582-4.214 3.81c-1.41 1.274-2.27 1.965-2.797 2.334a4.163 4.163 0 0 1-.105-.52 84.632 84.632 0 0 1-.544-5.74C66.814 3.543 66.679 0 66.679 0s-.042 3.142-.297 7.965ZM6.39 25.349c.038 0 .073.02.09.052l4.878 8.441c.02.033.02.072 0 .105a.103.103 0 0 1-.09.053h-1.32a.107.107 0 0 1-.092-.052l-.88-1.498h-6.45l-.88 1.498a.106.106 0 0 1-.09.052H.245a.106.106 0 0 1-.092-.158l4.867-8.44a.104.104 0 0 1 .09-.053h1.278ZM3.3 31.09h4.9l-.789-1.36-.005-.009-.002-.003-1.656-2.86c-.144.246-1.784 3.083-2.302 3.98l-.146.252Zm13.559-5.74c1.389 0 2.46.106 3.182.316 1.307.37 1.97 1.109 1.97 2.192 0 1.08-.663 1.816-1.97 2.188-.721.209-1.797.316-3.194.316H13.67v3.533a.105.105 0 0 1-.104.105h-1.15a.105.105 0 0 1-.105-.105v-8.44c0-.058.047-.105.105-.105h4.443Zm.427 3.652c2.234 0 3.366-.385 3.366-1.144 0-.372-.268-.647-.82-.84-.58-.205-1.467-.308-2.637-.308H13.67v2.292h3.616Zm14.624-2.779c-.878-.58-2.153-.873-3.792-.873-1.64 0-2.915.293-3.792.873-1.05.711-1.581 1.874-1.581 3.458 0 1.587.531 2.752 1.58 3.463.874.569 2.15.856 3.793.856 1.642 0 2.918-.288 3.79-.855 1.05-.712 1.582-1.877 1.582-3.464 0-1.584-.531-2.747-1.58-3.458Zm-.95 5.907c-.6.351-1.556.53-2.842.53-1.291 0-2.25-.179-2.85-.53-.772-.447-1.164-1.271-1.164-2.449 0-1.181.392-2.008 1.164-2.454.596-.343 1.555-.518 2.85-.518 1.286 0 2.243.178 2.842.53.778.451 1.17 1.273 1.17 2.442 0 1.174-.392 1.997-1.17 2.449Zm5.136.53h7.2c.057 0 .105.047.105.105v1.13a.105.105 0 0 1-.105.105H34.84a.105.105 0 0 1-.105-.105v-8.44c0-.058.047-.105.105-.105h1.15c.058 0 .105.047.105.104v7.205Zm16.85 0h-7.2v-7.206a.105.105 0 0 0-.105-.105h-1.15a.105.105 0 0 0-.104.105v8.441c0 .057.047.105.105.105h8.454a.106.106 0 0 0 .105-.105v-1.13a.106.106 0 0 0-.105-.106Zm5.45-7.31c1.64 0 2.915.293 3.793.873 1.048.711 1.58 1.874 1.58 3.458 0 1.587-.532 2.752-1.582 3.464-.873.567-2.148.855-3.792.855-1.642 0-2.917-.288-3.792-.856-1.049-.71-1.58-1.876-1.58-3.463 0-1.584.531-2.747 1.581-3.458.877-.58 2.153-.873 3.791-.873Zm0 7.31c1.287 0 2.243-.178 2.842-.53.778-.452 1.17-1.275 1.17-2.449 0-1.169-.392-1.99-1.17-2.442-.599-.352-1.555-.53-2.843-.53-1.294 0-2.253.175-2.849.518-.77.447-1.163 1.273-1.163 2.454 0 1.178.392 2.002 1.163 2.449.6.351 1.559.53 2.85.53Zm21.455-3.658h-4.823a.105.105 0 0 0-.106.105v1.15c0 .057.047.105.106.105h3.568v1.17c-.354.459-.88.78-1.572.953-.236.056-.518.1-.835.13-.319.029-.69.044-1.105.044-1.28 0-2.24-.178-2.852-.53-.772-.446-1.163-1.27-1.163-2.448 0-1.173.391-1.995 1.163-2.442.601-.352 1.56-.53 2.852-.53.873 0 1.56.068 2.043.203.73.197 1.268.568 1.602 1.105.03.046.087.063.135.039l1.04-.501a.11.11 0 0 0 .055-.063.112.112 0 0 0-.01-.084c-.775-1.366-2.411-2.059-4.865-2.059-1.64 0-2.916.294-3.793.874-1.05.711-1.583 1.874-1.583 3.458 0 1.579.532 2.74 1.581 3.45.873.577 2.15.869 3.794.869 1.467 0 2.641-.246 3.513-.716v.611c0 .057.047.105.105.105h1.15a.105.105 0 0 0 .105-.105v-4.789a.104.104 0 0 0-.105-.104Zm7.142-3.6 4.877 8.44c.02.033.02.072 0 .105a.103.103 0 0 1-.09.053h-1.32a.103.103 0 0 1-.09-.052s-.825-1.401-.88-1.498h-6.452l-.88 1.498a.107.107 0 0 1-.091.052h-1.308a.105.105 0 0 1-.09-.053.103.103 0 0 1-.002-.105l4.867-8.44a.107.107 0 0 1 .09-.053h1.278c.038 0 .072.02.091.052Zm-3.18 5.688h4.9l-1.333-2.3-.044-.077-1.075-1.856-2.447 4.233Zm19.487-5.74h-1.132a.107.107 0 0 0-.09.051s-3.916 6.79-4.09 7.094l-4.094-7.093a.104.104 0 0 0-.091-.053h-1.124a.104.104 0 0 0-.105.105v8.441c0 .058.046.105.105.105h1.15a.105.105 0 0 0 .104-.105v-5.71l3.328 5.762c.02.033.054.053.092.053h1.272c.036 0 .072-.02.09-.053l3.329-5.762v5.71c0 .058.048.105.106.105h1.15a.105.105 0 0 0 .104-.105v-8.44a.105.105 0 0 0-.104-.105Zm10.541 1.254a.106.106 0 0 1-.106.106h-7.199v2.292h7.199c.059 0 .106.046.106.105v1.15a.106.106 0 0 1-.106.105h-7.199v2.297h7.199c.059 0 .106.048.106.106v1.13a.105.105 0 0 1-.106.105h-8.453a.106.106 0 0 1-.105-.105v-8.44c0-.058.048-.105.105-.105h8.453c.059 0 .106.047.106.104v1.15Zm10.036 2.72c-.718-.214-1.795-.322-3.2-.322l-1.518-.028c-.406-.018-.73-.044-.961-.076-1.145-.162-1.724-.511-1.724-1.04 0-.772 1.23-1.162 3.66-1.162l1.494.024c.399.016.721.04.954.073 1.074.137 1.712.43 1.899.872a.104.104 0 0 0 .122.06l1.118-.28a.105.105 0 0 0 .076-.131c-.246-.87-1.017-1.457-2.29-1.742-.665-.148-1.681-.223-3.017-.223-1.492 0-2.602.096-3.305.286-1.374.366-2.071 1.115-2.071 2.223 0 1.064.654 1.795 1.945 2.174.739.219 1.793.33 3.133.33l1.568.024c.415.016.739.04.967.072 1.177.162 1.772.517 1.772 1.053 0 .772-1.225 1.162-3.641 1.162l-1.456-.025c-.393-.015-.714-.04-.957-.072-1.086-.133-1.739-.418-1.942-.846a.105.105 0 0 0-.123-.056l-1.119.312a.114.114 0 0 0-.065.051.101.101 0 0 0-.007.082c.268.849 1.043 1.416 2.304 1.683.657.131 1.662.198 2.992.198 1.469 0 2.58-.093 3.302-.272 1.376-.368 2.072-1.114 2.072-2.218 0-1.075-.668-1.81-1.982-2.187Z" fill="#00AB55"/></g><defs><clipPath id="a"><path fill="#fff" transform="translate(.14)" d="M0 0h125.719v34H0z"/></clipPath></defs></svg>