<svg width="152" height="24" fill="none" xmlns="http://www.w3.org/2000/svg"><g clip-path="url(#a)"><path fill-rule="evenodd" clip-rule="evenodd" d="m28.703 12.219 1.397 3.103c-4.297-.277-8.66-.416-13.092-.416-4.458.005-8.842.143-13.154.416l1.4-3.099c3.9-.226 7.818-.338 11.754-.334 3.936.002 7.834.113 11.695.33ZM23.243.098 23.8 1.33c-2.248-.075-4.49-.122-6.791-.122-2.3 0-4.582.047-6.85.122L10.715.1A201.146 201.146 0 0 1 23.243.098Zm1.546 3.439 2.772 6.147c-3.464-.18-6.981-.27-10.552-.27-3.571 0-7.108.091-10.612.275L9.17 3.537c2.618-.1 5.232-.15 7.84-.146 2.608.003 5.202.051 7.78.146Zm-1.23 17.636c3.168.1 6.304.27 9.406.515l.847 1.88c-3.11-.26-6.259-.447-9.446-.56l-.808-1.835Zm-6.55-4.082c4.76 0 9.46.157 14.1.471l.845 1.876a201.268 201.268 0 0 0-14.945-.546c-5.089.004-10.09.192-15.004.561l.844-1.886c4.68-.318 9.4-.476 14.16-.476ZM9.58 23.009a201.66 201.66 0 0 0-9.437.564l.85-1.885c3.112-.243 6.248-.414 9.404-.513l-.817 1.834Zm44.984-6.875L50.69 7.563h-4.453l-3.86 8.57h3.31l.65-1.444h4.26l.652 1.445h3.314Zm-4.992-3.918h-2.225l1.104-2.254 1.12 2.255ZM64.72 7.545h-11.4v2.829h4.3v5.76h2.84v-5.76h4.26V7.544Zm6.585 8.59h2.368l2.215-3.795v3.795h2.862v-8.59h-3.432l-2.791 4.757-2.793-4.757H66.31v8.59h2.864v-3.772l2.13 3.772Zm16.69-8.602a14.58 14.58 0 0 0-2.063-.13c-1.93 0-3.369.346-4.316 1.036-.946.69-1.42 1.753-1.42 3.189 0 1.553.46 2.698 1.382 3.437.922.739 2.4 1.107 4.436 1.107.718.007 1.437-.037 2.15-.133a6.578 6.578 0 0 0 1.657-.449c.45-.18.855-.462 1.183-.82.312-.363.545-.785.687-1.242.17-.564.25-1.151.236-1.74.013-.6-.08-1.198-.272-1.767a3.393 3.393 0 0 0-.755-1.252 3.578 3.578 0 0 0-1.247-.802 7.097 7.097 0 0 0-1.657-.434Zm.064 5.851c-.475.35-1.148.526-2.018.526-.883 0-1.554-.184-2.005-.583-.451-.386-.7-.957-.677-1.548a2.34 2.34 0 0 1 .16-.894c.105-.26.272-.492.485-.673.243-.2.527-.346.831-.425a4.43 4.43 0 0 1 1.168-.14c.833 0 1.517.182 2.016.548.503.367.785.963.75 1.584 0 .719-.236 1.252-.71 1.605Zm12.431-5.766a30.254 30.254 0 0 0-1.98-.054c-.457 0-.842.007-1.177.015-.333.006-.667.021-1.013.047a9.438 9.438 0 0 0-.868.098c-.24.041-.477.097-.71.168a1.88 1.88 0 0 0-.57.257 2.436 2.436 0 0 0-.42.36 1.52 1.52 0 0 0-.307.472 3.113 3.113 0 0 0-.173.613 4.461 4.461 0 0 0-.062.77c-.001.222.025.442.08.656.047.183.108.36.185.532.075.168.19.312.336.423.162.123.308.228.443.318.19.11.396.19.61.236.27.07.5.127.699.171.198.046.487.094.869.137a72.669 72.669 0 0 0 2.07.2c.306.027.685.055 1.144.088.387.016.774.052 1.157.108.14.034.208.105.208.208 0 .179-.099.284-.302.319-.566.047-1.134.065-1.702.05h-.296c-.563 0-1-.008-1.309-.025a3.248 3.248 0 0 1-.71-.1.52.52 0 0 1-.325-.183.614.614 0 0 1-.068-.319h-2.96c0 .329.01.612.034.847.023.23.072.455.147.671.113.388.38.711.739.896.208.12.431.21.662.272.306.074.618.126.93.158.34.036.706.057 1.092.078l.114.006c.428.024.939.024 1.528.024.862 0 1.582-.012 2.16-.042a11.945 11.945 0 0 0 1.543-.165 4.528 4.528 0 0 0 1.058-.3c.242-.108.455-.274.617-.483.159-.209.269-.45.32-.707a4.74 4.74 0 0 0 .081-.966 2.922 2.922 0 0 0-.221-1.273c-.222-.434-.714-.74-1.476-.92-.583-.143-1.956-.3-4.122-.472a.05.05 0 0 0-.035-.01c-1.092-.09-1.747-.151-1.963-.19-.215-.037-.336-.108-.336-.213a.266.266 0 0 1 .135-.258c.206-.075.42-.117.64-.125.335-.032.869-.047 1.597-.047.55 0 .995.014 1.328.043.253.01.501.06.739.146a.699.699 0 0 1 .302.214.602.602 0 0 1 .066.309h3.052a5.062 5.062 0 0 0-.1-1.099 2.25 2.25 0 0 0-.352-.813 1.843 1.843 0 0 0-.637-.583 4.016 4.016 0 0 0-1.029-.36 9.335 9.335 0 0 0-1.462-.203Zm14.722-.092h-9.263v8.609h2.876v-2.642h5v-2.523h-5.004v-.832h6.391V7.525Zm11.236.02h-9.53v8.589h9.53v-2.397h-6.665v-.771h6.246v-2.282h-6.246v-.759h6.665v-2.38Zm8.175 0h-6.346.001v8.589h2.852V14.1h2.605l1.474 2.023h3.314l-1.771-2.533c1.057-.58 1.585-1.547 1.585-2.904a3.615 3.615 0 0 0-.165-1.136 2.772 2.772 0 0 0-.419-.828 2.53 2.53 0 0 0-.615-.547 3.154 3.154 0 0 0-.694-.353 4.253 4.253 0 0 0-.727-.187 6.998 6.998 0 0 0-.62-.08c-.154-.012-.31-.012-.474-.012Zm.798 3.238c0 .54-.355.809-1.067.809h-3.21v-1.544h3.161c.744 0 1.116.245 1.116.735Zm15.975 5.351-3.874-8.571h-4.451l-3.86 8.57h3.304l.654-1.444h4.26l.654 1.445h3.313Zm-4.994-3.918h-2.225l1.108-2.254 1.117 2.255Z" fill="#00AB55"/></g><defs><clipPath id="a"><path fill="#fff" transform="translate(.143 .001)" d="M0 0h151.714v24H0z"/></clipPath></defs></svg>