<svg width="92" height="28" fill="none" xmlns="http://www.w3.org/2000/svg"><path fill-rule="evenodd" clip-rule="evenodd" d="M30.071 13.752c.433.764.737 1.593.9 2.455.217.7.301 1.435.249 2.167a5.686 5.686 0 0 1-.277 1.89 6.617 6.617 0 0 1-1.38 2.71 6.184 6.184 0 0 1-2.251 1.892c-1.813 1.04-3.716 1.13-5.684.566-.415-.118-.83-.25-1.197-.492a6.584 6.584 0 0 1-2.543-1.973l-.489-.556.061.548c.172.547.386 1.08.638 1.595a6.8 6.8 0 0 0 1.971 1.93c1.14.541 2.318.938 3.592.991.25.01.227.152.204.293-.008.05-.016.1-.012.143a.11.11 0 0 1 0 .09H9.626l.011-.097c0-.036-.005-.073-.01-.11-.018-.16-.037-.315.257-.328 1.207-.051 2.34-.406 3.421-.935l.11-.06.443-.277a6.71 6.71 0 0 0 1.693-1.917c.223-.546.41-1.106.56-1.677a.169.169 0 0 1-.014-.061c-.008-.06-.015-.122-.114-.02a2.915 2.915 0 0 0-.208.25c-.028.037-.057.074-.087.11a6.032 6.032 0 0 1-1.98 1.712c-2.176 1.557-5.835 1.565-7.966.018a5.752 5.752 0 0 1-1.734-1.544 6.179 6.179 0 0 1-1.314-2.357 6.505 6.505 0 0 1-.38-3.27c-.006-.419.062-.836.2-1.231a7.607 7.607 0 0 1 .804-2.253c.148-.47.401-.887.655-1.302l.138-.228c.118-.198.126-.32-.054-.485a7.8 7.8 0 0 1-.525-.533c-.071-.078-.142-.155-.215-.231a26.944 26.944 0 0 1-1.89-1.89c-.21-.165-.299-.39-.36-.631l-.041-.01H.984v-.72a.063.063 0 0 1 .073-.016c.087-.466.4-.773.738-1.065l3.33-3.317c.474-.528.975-1.03 1.502-1.505.01-.017.02-.026.03-.026l.143-.153c.497-.53.991-1.058 1.556-1.514a.894.894 0 0 1 .531-.254.17.17 0 0 1 .02-.073h.72a.186.186 0 0 0 .014.08c.39.063.642.322.897.584l.075.078c.193.196.382.393.572.591l.263.275.383.371c.33.32.66.64.98.97.157.16.255.17.435.032.37-.283.752-.553 1.134-.822h.001l.378-.268c.42-.342.87-.635 1.32-.927.172-.11.343-.222.512-.336a.236.236 0 0 1 .316 0c.296.21.595.417.894.623l.384.265c.752.476 1.472 1 2.156 1.57.12.047.223.13.296.235a.058.058 0 0 1 .064.04 28.26 28.26 0 0 1 2.623 2.182 25.261 25.261 0 0 1 2.644 2.547 13.222 13.222 0 0 1 1.492 1.7 12.57 12.57 0 0 1 1.53 2.07c.438.584.8 1.22 1.081 1.891ZM6.481 2.77l.251-.248h-.017l-.233.248ZM2.775 6.18l.406-.437c-.139.14-.28.278-.421.417l.015.02Zm.34 3.904a.96.96 0 0 0-.143-.02v.005a.13.13 0 0 0 .143.015Zm9.537 2.686-.001.001c-.053.2-.199.326-.343.45a2.35 2.35 0 0 0-.161.149c-.342.356-.693.703-1.043 1.05l-.37.367a2.757 2.757 0 0 0-.32.322c-.172.193-.344.387-.597.488-.575.303-.827.257-1.305-.199-.233-.222-.456-.453-.68-.685-.403-.417-.805-.834-1.26-1.195a18.934 18.934 0 0 0-1.71-1.737 23 23 0 0 0-1.711-1.71l-.33-.345c-.238-.249-.476-.499-.725-.736-.278-.265-.417-.567-.38-.95a.797.797 0 0 1 .13-.334c.163-.24.37-.437.578-.635a7.26 7.26 0 0 0 .342-.341c.339-.394.696-.771 1.073-1.13.028-.026.055-.055.081-.083.084-.089.17-.179.306-.192l2.818-2.78C7.555 2.04 8.072 1.54 8.59 1.043c.459-.439.864-.428 1.335.013.084.08.164.165.243.25.164.175.328.351.538.477l2.34 2.39c.078.08.162.153.245.227l.116.103c.453.507.934.988 1.44 1.44l.378.387c.376.384.752.769 1.13 1.152.167.151.305.33.408.53.07.409-.09.713-.378 1-.911.905-1.815 1.818-2.718 2.73v.001l-.995 1.004v.022h-.022Zm77.114.443a18.074 18.074 0 0 0-.9-2.171c-.077-.05-.085-.124-.093-.198-.005-.045-.01-.09-.03-.129l-.125-.286a.204.204 0 0 0-.032-.074c-.18-.516-.36-1.03-.639-1.502l-.008-.018-.014-.033a.888.888 0 0 1-.043-.106 18.206 18.206 0 0 0-.939-2.315c-.37-.068-.742-.059-1.114-.05-.222.006-.444.012-.665.001a.36.36 0 0 1-.045 0c-.197-.035-.3.06-.37.238-.12.313-.243.624-.367.936v.002l-.001.002-.001.002v.001c-.101.254-.202.508-.3.762a.731.731 0 0 0-.16.37.296.296 0 0 0-.105.27 20.748 20.748 0 0 0-.917 2.221 15.27 15.27 0 0 0-.794 1.918l-.819 1.876h.694c.432-.002.842-.003 1.253 0a.284.284 0 0 0 .299-.21c.131-.33.264-.66.396-.989l.234-.583c.09-.201.255-.207.443-.206l.495.007c.578.01 1.157.018 1.733-.015.483-.028.836.05.961.572l.141.352v.001c.115.284.23.567.338.852a.304.304 0 0 0 .337.22c.4-.006.802-.004 1.226-.002l.684.002-.752-1.71-.001-.008Zm-3.202-1.907a11.734 11.734 0 0 0-.636 0c-.377.007-.754.014-1.129-.043a.534.534 0 0 0 .052-.076c.235-.422.408-.87.581-1.318.098-.25.195-.502.303-.749a.301.301 0 0 0 .023-.207l.018-.023c.083-.102.16-.195.263.053a.232.232 0 0 0 .104.11.327.327 0 0 0 .016.248c.18.485.375.966.574 1.44a.344.344 0 0 0 .242.244l.009.006h-.04c-.074.168-.151.322-.38.314Zm-46.409-.256c.69.639.747 1.426.54 2.276-.16.866-.762 1.407-1.698 1.525-.492.057-.986.082-1.48.075a555.835 555.835 0 0 0-4.002 0h-.006c-.21.001-.362.002-.362-.293.007-2.697.007-5.391.007-8.092a.479.479 0 0 1 .06-.157c.008-.005.015-.012.022-.02.016-.015.032-.031.047-.031.636.008 1.272 0 1.908-.008 1.238-.014 2.475-.03 3.71.068 1.043.085 1.61.69 1.806 1.781.009.047.02.094.03.14.036.17.072.334.033.51-.08.81-.458 1.424-1.236 1.804l.621.422ZM37.33 7.965h-1.762c-.143-.002-.287-.004-.413.084a.32.32 0 0 0-.029.037c.054.214.04.434.027.655-.008.124-.015.248-.01.371v.041c.023.616.024.623.648.616.184-.003.367-.001.55 0 .43.005.86.009 1.29-.041.474-.055.825-.246 1.005-.701a.408.408 0 0 1 .14-.18.172.172 0 0 1-.059-.08c-.216-.691-.77-.802-1.387-.802Zm-2.177 4.862c-.012.327.133.46.456.45v.003c.28-.009.563-.005.844-.002.615.008 1.23.016 1.839-.105l.042.01c-.01-.076.032-.136.073-.195a1.3 1.3 0 0 0 .03-.045c.344-.548.326-.817-.107-1.309a.848.848 0 0 1-.056-.07h-.022a2.94 2.94 0 0 1-.791-.136 8.167 8.167 0 0 0-.81-.055c-.247.004-.493.004-.74 0l-.282.005c-.189.004-.377.008-.566.008.098.148.094.315.09.482 0 .05-.002.1 0 .149.008.27.01.54 0 .81Zm7.107 5.63h2.43c.616 0 .923 0 1.068-.153.146-.153.13-.459.098-1.07v-.016c-.011-.205-.055-.29-.279-.287-.475.004-.951.002-1.428 0a60.005 60.005 0 0 0-2.482.025c-1.299.049-2.471.437-3.07 1.762a3.075 3.075 0 0 0-.438 1.44 6.087 6.087 0 0 0 .022 2.438c.09.676.31 1.296.784 1.807.54.72 1.304 1.013 2.17 1.08.878.064 1.757.058 2.637.051.376-.002.751-.005 1.127-.002 1.01.007 1.011 0 .93-1.042a8.41 8.41 0 0 0 0-1.35c.036-.48.036-.962 0-1.441l.003-.284c.002-.22.004-.44.023-.657.019-.253-.069-.335-.325-.331-.655.01-1.31.008-1.962.006h-.734c-1.25 0-1.25 0-1.153 1.266-.07.25.082.258.27.258.504 0 1.008.004 1.512.008l.568.004c-.006.24-.001.48.003.721.009.448.018.896-.04 1.342h-1.916a.977.977 0 0 0-.477-.07c-.496-.026-.844-.298-1.073-.71a4.231 4.231 0 0 1-.25-.585c-.034-.093-.069-.185-.105-.276a14.047 14.047 0 0 1-.115-1.772l.004-.023c.099-.603.197-1.205.634-1.682.466-.33.996-.456 1.564-.456Zm5.926-5.06c.298.003.412.06.412.39v.042c-.005 1.098-.005 1.098-1.136 1.098l-.505.002c-.865.005-1.73.01-2.586-.156-.884-.18-1.573-.63-2.006-1.441a3.789 3.789 0 0 1-.61-1.98c-.141-.928-.09-1.835.284-2.708.408-1.294 1.452-2.154 2.773-2.27.73-.064 1.463-.055 2.197-.047.436.005.872.01 1.309 0 .187-.004.257.047.277.248l.002.023c.06.625.09.936-.052 1.092-.14.155-.45.157-1.07.16h-.018c-.512.002-1.026.014-1.54.026l-.482.01c-.69.015-1.203.319-1.52.938-.121.536-.181.802-.075.935.106.132.376.132.914.132.302 0 .603.002.905.003.833.004 1.667.007 2.5-.012.368-.012.474.115.433.45-.016.133-.01.267-.005.402.01.205.018.41-.052.611-.092.097-.204.084-.313.07-.037-.004-.074-.009-.11-.009-1.331.01-2.663.015-3.995 0a4.612 4.612 0 0 0-.221.025c-.125.044-.148.147-.09.36l.037.14c.07.267.14.533.267.78l.374.34.437.198c.801.186 1.613.17 2.425.155.28-.005.56-.01.84-.007Zm7.29 0-.244.004c-.949.016-1.9.031-2.84-.159l-.046-.031a.942.942 0 0 1-.095-.072c-.39-.35-.421-.804-.452-1.26-.01-.15-.02-.299-.044-.444l.008-4.792.002-.065c.008-.115.017-.247-.155-.241a6.93 6.93 0 0 1-.543-.01c-.363-.015-.727-.031-1.086.066-.067.795-.045 1.592-.023 2.388l.007.223c-.033.87-.038 1.74.004 2.61-.02.589 0 1.171.27 1.711.378.982 1.166 1.395 2.145 1.524.652.085 1.309.081 1.965.078l.325-.001c.584 0 .873 0 1.016-.145.141-.143.139-.428.134-.994v-.031c-.004-.27-.064-.363-.349-.359Zm26.447 7.144c.615.08 1.018.467 1.364.939v-.006c.372.603.494 1.328.339 2.02-.154 1.113-.899 1.875-1.999 1.965-1.169.09-2.34.081-3.511.071h-.001c-.61-.005-1.221-.01-1.831 0-.228.003-.265-.1-.276-.298v-.016c-.033-.603-.05-.902.092-1.052.14-.148.433-.151 1.015-.157h.037c.376-.005.753 0 1.13.004.775.008 1.551.016 2.327-.044.475-.037.822-.234 1.033-.662l.025-.44a1.216 1.216 0 0 0-.549-.81c-.435-.128-.883-.133-1.33-.139l-.132-.001c-.195-.003-.39 0-.586.002-.595.007-1.19.014-1.775-.134-.73-.184-1.243-.615-1.481-1.345a2.117 2.117 0 0 1-.114-1.559c.153-1.03.85-1.719 1.89-1.868.64-.092 1.285-.084 1.932-.076.253.003.506.007.76.004.387-.003.775-.003 1.163-.002.481 0 .962.001 1.442-.005.23-.004.326.058.31.3a4.187 4.187 0 0 0 0 .762c.046.364-.062.483-.45.475-1.012-.019-2.025-.012-3.037-.004h-.002l-.69.004c-.238.004-.477.025-.713.062-.419.064-.65.32-.7.738.081.884.382 1.139 1.266 1.139.557-.002 1.117.012 1.678.025l.747.017h.012c.158-.009.317-.017.459.071l.156.02Zm-5.559-8.892c1.33.04 1.73.34 2.14 1.587l.054.453.114.963c.019.163.06.281.27.278.36-.006.717-.004 1.073-.002l.535.002h.018c.099 0 .198 0 .174-.159-.06-.386-.118-.772-.175-1.157l-.07-.464c-.118-.912-.511-1.62-1.44-1.93.532-.21 1.019-.473 1.26-1.035.334-.574.43-1.256.27-1.9-.074-.696-.45-1.196-1.044-1.526-.562-.311-1.185-.392-1.823-.368a.74.74 0 0 0-.172-.043 584.54 584.54 0 0 0-1.414-.003c-.981-.002-1.963-.003-2.945-.014-.271 0-.27.141-.27.32v3.035L72.92 11v.004c.002 1.18.004 2.358-.007 3.537 0 .312.077.423.398.4.39-.02.78-.02 1.17 0 .194.005.27-.066.262-.259-.01-.423-.014-.845-.018-1.268v-.01l-.005-.518.009-.272v-.001c.008-.208.015-.415.008-.622-.008-.24.052-.355.324-.341.213.005.425.002.638-.001.222-.004.444-.007.665 0Zm2.048-3.275c.018.024.037.046.056.068-.02.147 0 .294.02.442.021.162.043.324.013.486.04.16.03.3-.147.374-.048.033-.1.061-.153.09-.114.062-.228.124-.306.236a.54.54 0 0 1-.09-.048.75.75 0 0 0-.324-.017l-.117.009-.282.01c-.785.028-1.57.057-2.353-.047l-.009-1.392a.18.18 0 0 0 .072-.113c.04-.45.327-.528.72-.514.358.013.717.01 1.076.008.239-.002.478-.003.717 0 .42.001.8.104 1.107.408Zm-6.763 10.1c-.533.014-1.04.124-1.44.52-.26.344-.35.744-.412 1.163-.044.288.045.353.324.353.875-.006 1.75-.004 2.624-.002l1.311.002c.11.001.219.012.328.023l.158.014c.106.315.088.636.07.957a6.461 6.461 0 0 0-.014.365c.005.185-.137.165-.26.148a.72.72 0 0 0-.094-.01h-3.737c-.365 0-.545 0-.624.09-.076.086-.057.257-.02.592.28.876.93 1.217 1.8 1.287.636.05 1.276.044 1.914.038h.001c.216-.003.432-.005.648-.005.281 0 .391.058.391.368v.038c.004.555.006.835-.133.975-.14.142-.424.142-.996.142h-.453c-.823.002-1.646.003-2.464-.122-1.388-.212-2.196-1.058-2.587-2.36a5.33 5.33 0 0 1-.207-2.63c.01-.535.155-1.059.422-1.522.573-1.225 1.515-1.913 2.88-1.946.634-.015 1.267-.015 1.9-.014.448 0 .895 0 1.342-.005.213-.002.312.06.286.279a.283.283 0 0 0 0 .045c.025.602.037.903-.107 1.053-.145.151-.447.151-1.05.151h-.3c-.501 0-1.001.001-1.501.014Zm-2.805-3.543c.236.01.313-.07.308-.305a89.295 89.295 0 0 1-.019-1.63l-.003-.57c-.004-.49-.002-.967-.001-1.444l.001-.717V8.464c.019-.303.028-.457.11-.535.084-.08.245-.08.57-.079h1.129c.534 0 .797 0 .93-.132.13-.128.136-.382.149-.882l.001-.057c.01-.397-.133-.46-.487-.457-1.451.012-2.903.01-4.354.01h-.002l-1.45-.002c-.585 0-.878 0-1.02.147-.142.145-.134.436-.119 1.018l.001.024c.006.248.067.344.33.336.415-.012.832-.01 1.248-.007l.506.002c.642 0 .642 0 .68.615V12.336c0 .219-.002.437-.003.655-.003.547-.006 1.093-.019 1.635-.005.234.072.316.308.306.396-.018.802-.018 1.206 0Zm-13.838 8.74a.23.23 0 0 1 .039.09l.154.358v.002c.173.399.346.799.523 1.2.067.154.03.218-.144.218a72.253 72.253 0 0 0-1.71 0c-.168.001-.243-.085-.295-.221l-.28-.712v-.002l-.08-.203c-.153-.843-.737-.92-1.447-.857a7.099 7.099 0 0 1-1.61-.008c-.548-.078-.713.248-.893.623-.045.109-.084.22-.117.332 0 .03-.004.061-.01.09-.36.956-.36.956-1.372.956l-.302-.003c-.2-.002-.4-.004-.598.003-.222.01-.258-.063-.168-.26.12-.252.23-.507.341-.762l.132-.3a.9.9 0 0 1 .164-.45l.185-.394c.263-.754.568-1.493.913-2.212.22-.649.483-1.282.786-1.897.29-.72.578-1.44.865-2.16a.238.238 0 0 1 .281-.164l.03-.001a.25.25 0 0 1 .06 0c.223.04.465.01.706-.02.428-.054.85-.107 1.138.244.366.444.536 1.069.697 1.66l.029.103c.204.301.32.64.437.978.083.244.167.487.283.716.136.21.233.442.285.686a.706.706 0 0 1 .165.395l.093.25c.28.556.52 1.132.72 1.722Zm-4.903-1.968c.147.19.352.22.579.225.183.005.367 0 .55-.003.37-.008.737-.016 1.1.046l-.001-.002c-.221-.339-.442-.677-.396-1.109-.362-.468-.613-.982-.613-1.592l.014-.006c-.113-.098-.167-.013-.222.072a.636.636 0 0 1-.049.07.279.279 0 0 1-.009.246 30.32 30.32 0 0 1-.76 1.86c-.04.087-.09.172-.193.193Zm7.568-6.775c.41 0 .615 0 .752-.097.139-.098.207-.296.344-.694.135-.266.255-.539.36-.818.09-.286.235-.398.547-.38l.167.009c.486.028.972.056 1.444-.016.96-.146 1.566.148 1.746 1.144.003.018.017.033.032.049l.012.012a.147.147 0 0 1 .008.01c.124.398.185.594.317.69.128.091.321.091.7.091h.45c1.054 0 1.054 0 .545-.974a22.077 22.077 0 0 1-.306-.78c-.179-.472-.358-.944-.594-1.393a16.902 16.902 0 0 0-.819-1.966 12.055 12.055 0 0 0-.72-1.725l-.143-.365v-.001c-.147-.374-.293-.747-.434-1.122-.071-.19-.171-.284-.395-.276-.51.02-1.02.012-1.53 0-.18 0-.311.03-.384.223-.15.393-.31.785-.467 1.178l-.178.442c-.14.193-.226.419-.25.656a4.97 4.97 0 0 0-.45 1.08c-.16.277-.282.575-.36.885a5.11 5.11 0 0 0-.462 1.096 18.865 18.865 0 0 0-.894 2.16l-.031.071c-.08.178-.16.358-.25.531-.143.27-.008.292.217.285.246-.01.496-.008.746-.006l.28.001Zm2.2-3.961a.916.916 0 0 0 .39-.856c.256-.388.51-.776.505-1.26l.015-.018c.058-.07.116-.141.193.012.04.078.068.157.097.234.033.089.065.176.111.259.038.069.063.147.087.225.054.172.108.344.31.423-.077.253.025.46.127.668.044.089.087.177.116.268.09.27.053.393-.254.388a45.31 45.31 0 0 0-.842-.002c-.316.001-.634.002-.959-.004.156-.096.188-.203.104-.335v-.002Zm4.49 5.971h1.974c.148.068.133.186.118.296-.005.033-.01.065-.01.096.002.96.002 1.919.002 2.878v.014c0 1.631 0 3.263.009 4.895 0 .347-.081.502-.45.456-.158-.02-.332 0-.503.018-.309.033-.609.066-.792-.125-.186-.191-.147-.527-.109-.86.016-.138.032-.275.032-.4-.004-.753-.004-1.506-.004-2.259 0-.702 0-1.405-.003-2.107 0-.04.004-.08.008-.12.012-.122.025-.246-.075-.352l-.567 1.609c-.25.825-.534 1.639-.852 2.44l-.188.555c-.148.437-.296.872-.436 1.315-.062.192-.165.254-.36.248-.168-.005-.342.01-.516.024-.36.03-.715.059-.987-.081-.284-.147-.358-.505-.432-.866a3.184 3.184 0 0 0-.128-.494c-.093-.245-.164-.496-.234-.749-.03-.106-.06-.213-.092-.32a15.3 15.3 0 0 1-.603-1.8 7.884 7.884 0 0 1-.405-1.252l-.243-.729c-.125.22-.107.453-.09.686.01.118.02.237.01.354-.016.222-.018.447-.02.672 0 .09 0 .18-.002.269v1.36l.003.663c.004.663.007 1.326.018 1.989.003.217-.073.29-.287.282-.36-.02-.72-.02-1.08 0-.346.031-.424-.12-.35-.42v-6.841c-.046-.676-.069-1.01.087-1.177.154-.163.482-.163 1.13-.163h.631c.86 0 .86 0 1.04.864.224.552.404 1.12.54 1.7.146.274.217.572.287.87.063.267.126.534.243.783.253.646.463 1.307.63 1.98l.191.439.243-.564.036-.145c.018-.16.073-.314.16-.45.134-.533.31-1.055.53-1.56.319-1.091.674-2.17 1.086-3.231.075-.353.112-.525.219-.61.102-.08.267-.08.591-.08Zm.366 3.86h.024a4.403 4.403 0 0 1-.024-.047v.048Zm26.2-15.227a1.123 1.123 0 1 0-1.405 1.466c.501.18 1.016-.013 1.32-.483a4.01 4.01 0 0 1 .109-.159c.022-.03.044-.06.065-.092v-.54l-.038-.08v-.001a3.264 3.264 0 0 1-.051-.111Zm-.41 1.038c-.324.325-.76.344-1.211.041-.486-.49-.45-.99.09-1.418.474-.242.915-.173 1.193.19a.916.916 0 0 1-.07 1.186h-.001Zm-.4-1.217c.153.093.296.287.185.395-.227.222-.125.397-.025.569.033.057.067.115.088.174-.223.103-.289-.024-.354-.15-.015-.029-.03-.058-.047-.084l-.006-.01c-.062-.102-.131-.216-.259-.185-.106.026-.1.124-.093.212l.003.058c.005.151-.052.223-.208.2l-.007-.145a5.147 5.147 0 0 1-.012-.294c-.002-.74-.002-.74.735-.74Zm-.511.34c.005.14.083.178.209.162l.021-.003c.117-.014.245-.03.23-.182-.013-.121-.144-.137-.252-.136h-.003c-.107.002-.212.004-.205.159Z" fill="#919EAB"/></svg>