<svg width="92" height="28" viewBox="0 0 92 28" fill="none" xmlns="http://www.w3.org/2000/svg">
<path fill-rule="evenodd" clip-rule="evenodd" d="M30.0711 13.7525C30.5036 14.5157 30.8078 15.3449 30.9714 16.2068C31.1877 16.9075 31.272 17.6423 31.2199 18.3738C31.2348 19.0152 31.141 19.6545 30.9426 20.2645C30.9346 20.3019 30.9247 20.3389 30.9129 20.3753C30.6627 21.332 30.2012 22.2205 29.5624 22.9754C28.975 23.7774 28.2029 24.4259 27.3116 24.8661C25.4992 25.9059 23.5959 25.9951 21.6278 25.4324C21.2128 25.3135 20.7986 25.1812 20.4313 24.9399C19.4334 24.5029 18.5594 23.8251 17.8879 22.9673L17.399 22.4109L17.4603 22.9592C17.6324 23.5059 17.8455 24.0389 18.0977 24.5536C18.616 25.3253 19.2871 25.9826 20.0694 26.4848C21.2083 27.025 22.3868 27.4221 23.6608 27.4752C23.9114 27.4858 23.8881 27.627 23.8649 27.7676L23.8649 27.7676C23.8567 27.8174 23.8485 27.8671 23.8525 27.9109C23.8589 27.9251 23.8622 27.9404 23.8622 27.956C23.8622 27.9715 23.8589 27.9868 23.8525 28.001H9.62746L9.63826 27.9037C9.63743 27.8681 9.63306 27.8312 9.62872 27.7947C9.60954 27.6331 9.5912 27.4787 9.88495 27.4662C11.0923 27.4149 12.2258 27.0601 13.3062 26.5308L13.4151 26.4704L13.859 26.194C14.5408 25.6695 15.1155 25.0188 15.5516 24.2772C15.7745 23.7309 15.9615 23.1706 16.1116 22.5999C16.1032 22.5863 16.1003 22.5626 16.0975 22.5388C16.0901 22.4782 16.0827 22.417 15.9837 22.5198C15.909 22.597 15.8426 22.683 15.7763 22.7689C15.7475 22.8062 15.7188 22.8434 15.6893 22.8799C15.1622 23.5882 14.4861 24.1722 13.7086 24.5906C11.5325 26.1481 7.87363 26.1562 5.74347 24.6086C5.06661 24.2174 4.47659 23.6923 4.00945 23.0654C3.40297 22.3862 2.95411 21.5813 2.69499 20.7084C2.29006 19.669 2.15923 18.5429 2.31505 17.4384C2.30889 17.0193 2.37654 16.6024 2.51492 16.2068C2.66247 15.4182 2.93382 14.6579 3.31891 13.9542C3.46657 13.4838 3.72041 13.0674 3.97379 12.6518C4.02012 12.5759 4.06644 12.4999 4.11209 12.4236C4.23003 12.2264 4.23814 12.104 4.05807 11.9392C3.87242 11.7732 3.70282 11.5894 3.53326 11.4056L3.53323 11.4055L3.53321 11.4055C3.46187 11.3282 3.39053 11.2509 3.31801 11.1749C2.65897 10.5717 2.02245 9.94863 1.42733 9.28419C1.21846 9.12033 1.12933 8.89525 1.0672 8.65397L1.02669 8.64406H0.984375V7.92381C0.993214 7.91368 1.00506 7.90665 1.01818 7.90373C1.0313 7.90082 1.04501 7.90217 1.0573 7.9076C1.14373 7.44213 1.45794 7.13512 1.79466 6.84342L5.12585 3.52574C5.59937 2.99825 6.10034 2.49608 6.62669 2.0213C6.63659 2.00419 6.6465 1.99519 6.6564 1.99519L6.79997 1.84211L6.79998 1.84211C7.29659 1.31218 7.79119 0.784405 8.35621 0.327793C8.49953 0.185617 8.68675 0.0961317 8.8874 0.0739026C8.88845 0.0484166 8.89522 0.0234934 8.9072 0.000976562H9.62746C9.62612 0.0280556 9.63073 0.0551 9.64097 0.0802049C10.031 0.144123 10.2831 0.403457 10.5377 0.665407C10.5629 0.691255 10.588 0.717128 10.6133 0.742841C10.8059 0.938555 10.9952 1.13637 11.1846 1.33428L11.1846 1.33434L11.1847 1.33442C11.2723 1.42597 11.3599 1.51755 11.4479 1.60895C11.5751 1.73314 11.7029 1.85669 11.8306 1.98022L11.8306 1.98025L11.8307 1.98029L11.8307 1.98032L11.8307 1.98035L11.8308 1.98039L11.8308 1.98042L11.8308 1.98046L11.8309 1.98049L11.8309 1.98052C12.1614 2.3002 12.4918 2.61972 12.8119 2.94953C12.9677 3.10979 13.0658 3.11969 13.2459 2.98194C13.6163 2.69872 13.9984 2.42921 14.3799 2.16006L14.38 2.16L14.3801 2.15994L14.3802 2.15989L14.3802 2.15983L14.3803 2.15977L14.3804 2.15972L14.3805 2.15966L14.3806 2.1596L14.3806 2.15955L14.3807 2.15949L14.3808 2.15943L14.3809 2.15938L14.381 2.15932L14.381 2.15926C14.5073 2.07018 14.6336 1.98114 14.7593 1.89165C15.1785 1.55001 15.6294 1.25746 16.0794 0.965474C16.2508 0.854264 16.4221 0.743134 16.5914 0.629401C16.6348 0.590302 16.6911 0.56866 16.7495 0.56866C16.8078 0.56866 16.8641 0.590302 16.9075 0.629401C17.2035 0.839778 17.5022 1.04575 17.8007 1.25163L17.8008 1.25164L17.8008 1.25167L17.8014 1.25209L17.8016 1.25219L17.8016 1.25223C17.9295 1.34043 18.0574 1.42861 18.185 1.51712C18.9367 1.99343 19.6569 2.5176 20.3413 3.08638C20.4612 3.13396 20.5643 3.21606 20.6375 3.32226C20.6511 3.32012 20.6651 3.32293 20.6768 3.3302C20.6885 3.33747 20.6973 3.34871 20.7014 3.36188C21.6188 4.03585 22.4946 4.76464 23.3241 5.54426C24.2661 6.32798 25.1498 7.17923 25.9683 8.09127C26.5132 8.61423 27.0123 9.18291 27.4601 9.79107C28.0399 10.4271 28.5527 11.121 28.9907 11.8618C29.4275 12.445 29.7904 13.0801 30.0711 13.7525ZM6.48174 2.77037L6.73203 2.52188H6.71492L6.48174 2.77037ZM2.77421 6.17988L3.18026 5.74323C3.04101 5.88248 2.90056 6.02143 2.75891 6.16008C2.76327 6.16722 2.7684 6.17386 2.77421 6.17988ZM3.11364 10.0837C3.06675 10.0739 3.01921 10.0675 2.97138 10.0648V10.0693C2.99107 10.0854 3.01505 10.0953 3.04034 10.0979C3.06564 10.1004 3.09112 10.0955 3.11364 10.0837ZM12.6509 12.7702L12.65 12.7712C12.5967 12.9719 12.4515 13.0972 12.3071 13.2218C12.2514 13.2698 12.1959 13.3178 12.1458 13.3699C11.804 13.7263 11.4534 14.0733 11.1027 14.4205C10.9794 14.5425 10.8561 14.6645 10.7332 14.787C10.6155 14.8819 10.5144 14.9955 10.4133 15.1091L10.4133 15.1091C10.2413 15.3024 10.0692 15.4958 9.81574 15.5973C9.24134 15.8998 8.98925 15.8539 8.51118 15.3983C8.27848 15.1762 8.05485 14.9447 7.83122 14.7132L7.8312 14.7132C7.42842 14.2962 7.02568 13.8793 6.57008 13.5175C6.03808 12.9025 5.46699 12.3224 4.86037 11.7808C4.32018 11.1806 3.74998 10.6104 3.14976 10.0702C3.03908 9.95638 2.92939 9.84131 2.81963 9.72617C2.58209 9.47699 2.34427 9.2275 2.09549 8.9898C1.81729 8.72511 1.67774 8.4226 1.71555 8.03996C1.73258 7.9203 1.7766 7.80608 1.8443 7.70595C2.00791 7.46686 2.21539 7.26906 2.42287 7.07127L2.42288 7.07127L2.42288 7.07127L2.42288 7.07126L2.42288 7.07126L2.42289 7.07126L2.42289 7.07125L2.42289 7.07125L2.42289 7.07125L2.4229 7.07125L2.4229 7.07124L2.4229 7.07124L2.4229 7.07124L2.42291 7.07123L2.42291 7.07123C2.53966 6.95994 2.6564 6.84864 2.76532 6.73C3.10385 6.33566 3.46127 5.95872 3.83761 5.59919C3.86586 5.57355 3.89253 5.54534 3.91928 5.51706C4.00335 5.42814 4.08814 5.33847 4.22475 5.32549C5.16528 4.39816 6.10462 3.47113 7.04275 2.5444C7.55534 2.04022 8.07152 1.53994 8.59131 1.04357C9.04957 0.605109 9.45471 0.615913 9.92558 1.05707C10.0103 1.13646 10.0898 1.22161 10.1693 1.30679L10.1693 1.3068C10.3332 1.48242 10.4973 1.65813 10.7071 1.78363L13.0479 4.17488C13.1253 4.25408 13.2085 4.32741 13.2918 4.40088C13.3307 4.43516 13.3696 4.46946 13.408 4.5044C13.8611 5.01089 14.342 5.49181 14.8485 5.94492L15.2258 6.33061C15.602 6.71539 15.978 7.10004 16.3566 7.48267C16.5232 7.63396 16.6613 7.81386 16.7644 8.01386C16.8346 8.4217 16.6744 8.72601 16.3863 9.01231C15.4749 9.91777 14.5712 10.8308 13.6675 11.7439L13.6671 11.7443C13.3358 12.079 13.0046 12.4137 12.6729 12.748L12.6729 12.7584L12.6732 12.7702H12.6509ZM89.7646 13.2134C89.5119 12.4707 89.2112 11.7453 88.8643 11.0418C88.7884 10.9923 88.7803 10.9179 88.7721 10.8435C88.7672 10.7988 88.7624 10.7542 88.7428 10.715L88.6167 10.4287C88.6112 10.4022 88.6005 10.3771 88.5852 10.3548C88.4051 9.83895 88.2251 9.32487 87.946 8.8531L87.9382 8.83487C87.9335 8.82397 87.9286 8.81309 87.9237 8.8022C87.9079 8.76714 87.8921 8.73195 87.8811 8.69554C87.6215 7.90339 87.3077 7.13 86.9421 6.38082C86.5719 6.31254 86.2 6.32206 85.8279 6.3316C85.6062 6.33727 85.3845 6.34295 85.1631 6.3322C85.1481 6.33314 85.133 6.33314 85.1181 6.3322C84.9209 6.29708 84.8174 6.39252 84.7489 6.56988C84.6289 6.88255 84.5051 7.1944 84.3813 7.50603L84.3809 7.50712L84.3804 7.50834L84.3799 7.50952L84.3794 7.51086L84.3789 7.5122L84.3785 7.51323C84.2776 7.76722 84.1768 8.02106 84.0782 8.27509C83.9916 8.38082 83.9364 8.5087 83.9188 8.64422C83.8795 8.67639 83.8492 8.71814 83.8307 8.76546C83.8123 8.81277 83.8063 8.86404 83.8135 8.91432C83.4653 9.63666 83.1593 10.3786 82.897 11.1363C82.5891 11.7568 82.3238 12.3975 82.1029 13.054L81.2845 14.9303C81.5232 14.9303 81.753 14.9297 81.9769 14.9292L81.9781 14.9292C82.41 14.9282 82.8203 14.9273 83.231 14.9303C83.2975 14.9361 83.364 14.9183 83.4187 14.8799C83.4734 14.8415 83.5127 14.7851 83.5299 14.7205C83.6612 14.3905 83.7936 14.0609 83.9259 13.7313C84.0041 13.5367 84.0822 13.3422 84.1601 13.1476C84.2501 12.9469 84.4149 12.9406 84.6031 12.9424C84.7679 12.944 84.9328 12.9465 85.0977 12.9491L85.0979 12.9491L85.0981 12.9491L85.0983 12.9491C85.6764 12.9581 86.2548 12.9672 86.8305 12.9343C87.3139 12.9063 87.6669 12.9838 87.792 13.506C87.8389 13.6235 87.8862 13.7408 87.9335 13.8582L87.9338 13.8591C88.048 14.1425 88.1622 14.4258 88.271 14.7115C88.2908 14.7828 88.3359 14.8444 88.3979 14.8849C88.4599 14.9253 88.5345 14.9418 88.6077 14.9312C89.0085 14.9247 89.4097 14.9267 89.8337 14.9289C90.0546 14.93 90.2817 14.9312 90.5182 14.9312L89.7655 13.2206L89.7646 13.2134ZM86.5631 11.3056C86.3513 11.2981 86.1391 11.3021 85.9269 11.3061C85.5502 11.3132 85.1734 11.3203 84.7984 11.2633C84.8177 11.2393 84.8349 11.2137 84.8498 11.1867C85.0845 10.765 85.258 10.3171 85.4314 9.86924C85.5286 9.6181 85.6258 9.36697 85.7339 9.12049C85.7663 9.05621 85.7746 8.98241 85.7573 8.91252L85.7754 8.89036C85.8582 8.78825 85.9341 8.69461 86.0382 8.94313C86.0595 8.99025 86.0959 9.0289 86.1417 9.05297C86.1144 9.13442 86.1202 9.22337 86.1579 9.30056C86.338 9.78583 86.5334 10.2666 86.7323 10.7411C86.7477 10.7993 86.778 10.8525 86.8204 10.8953C86.8627 10.9381 86.9156 10.9691 86.9736 10.9851L86.9826 10.9914H86.943C86.8692 11.1588 86.7917 11.3128 86.5631 11.3047V11.3056ZM40.1544 11.0497C40.8449 11.6889 40.9008 12.4758 40.6946 13.3257C40.5343 14.1918 39.932 14.7329 38.9957 14.8508C38.5045 14.9082 38.01 14.9335 37.5155 14.9265C36.1819 14.9217 34.8482 14.9217 33.5145 14.9265L33.5083 14.9265C33.2981 14.9274 33.1463 14.9281 33.1463 14.633C33.1526 11.9356 33.1526 9.24183 33.1526 6.54087C33.1636 6.48545 33.1843 6.43242 33.2138 6.38421C33.2207 6.37867 33.2277 6.37168 33.2348 6.36466C33.2506 6.34886 33.2666 6.33289 33.2822 6.33289C33.918 6.34053 34.5541 6.33292 35.1901 6.32531C36.4276 6.3105 37.6651 6.29569 38.9002 6.39321C39.9428 6.47784 40.5091 7.08376 40.7063 8.17405C40.715 8.22137 40.7252 8.26806 40.7353 8.31444L40.7353 8.31449C40.7722 8.48342 40.8082 8.64821 40.7693 8.82408C40.6892 9.63437 40.311 10.2484 39.5332 10.6283L40.1544 11.0497ZM37.3301 7.96518H35.6294C35.6089 7.96518 35.5883 7.9649 35.5677 7.96463C35.4251 7.96274 35.2807 7.96082 35.1549 8.04891C35.1444 8.06049 35.1348 8.07283 35.1261 8.08582C35.1796 8.29978 35.1662 8.52036 35.1528 8.74051C35.1453 8.86496 35.1377 8.98928 35.1423 9.11219L35.1438 9.15297C35.1663 9.76886 35.1666 9.77645 35.7914 9.76852C35.9747 9.7661 36.1578 9.76786 36.341 9.76962C36.7706 9.77375 37.2003 9.77787 37.6308 9.72801C38.1053 9.67309 38.4564 9.48222 38.6364 9.02666C38.6647 8.95471 38.7127 8.89226 38.7751 8.84659C38.7486 8.82629 38.7286 8.79878 38.7175 8.76736C38.5005 8.07592 37.9477 7.96518 37.3301 7.96518ZM35.1531 12.8269C35.1405 13.1537 35.2863 13.287 35.6087 13.2771V13.2798C35.8899 13.271 36.1715 13.2747 36.453 13.2783C37.0681 13.2863 37.6826 13.2943 38.2916 13.1726L38.3339 13.1825C38.3246 13.1069 38.3659 13.0474 38.4073 12.9879C38.4176 12.9731 38.4279 12.9582 38.4375 12.9431C38.7805 12.3948 38.7625 12.1256 38.3303 11.634C38.3102 11.6116 38.2912 11.5882 38.2736 11.5638H38.252C37.9832 11.5549 37.717 11.5091 37.4606 11.4278C37.1905 11.3945 36.9204 11.3792 36.6503 11.3729C36.4042 11.3765 36.1579 11.3765 35.9112 11.3729C35.8169 11.3744 35.7227 11.3764 35.6285 11.3784C35.44 11.3824 35.2515 11.3864 35.0631 11.3864C35.1607 11.5339 35.1571 11.7012 35.1536 11.8677V11.8678V11.8678V11.8679V11.868V11.8681V11.8682V11.8682V11.8683V11.8684V11.8685V11.8686V11.8687C35.1525 11.9182 35.1514 11.9677 35.1531 12.0166C35.1612 12.2867 35.163 12.5568 35.1531 12.8269ZM42.2596 18.4577H44.6905C45.3056 18.4577 45.6128 18.4577 45.7584 18.3043C45.9037 18.1512 45.8879 17.8453 45.8563 17.2341V17.2341L45.8555 17.218C45.8447 17.0127 45.8015 16.9289 45.5773 16.9307C45.1016 16.9353 44.6255 16.9335 44.1494 16.9316C43.3207 16.9283 42.4923 16.9251 41.6672 16.956C40.3681 17.0046 39.1958 17.3926 38.5962 18.7179C38.3333 19.1544 38.1829 19.6494 38.1587 20.1584C38.0018 20.964 38.0095 21.793 38.1812 22.5956C38.2712 23.2717 38.4918 23.892 38.9645 24.4034C39.5047 25.1237 40.269 25.4163 41.1342 25.4838C42.0126 25.5469 42.8923 25.5406 43.7721 25.5342C44.1476 25.5315 44.5231 25.5288 44.8985 25.5315C45.9095 25.5387 45.9104 25.5315 45.8285 24.4898C45.8647 24.0404 45.8647 23.5888 45.8285 23.1394C45.8649 22.6599 45.8649 22.1783 45.8285 21.6989C45.8307 21.6042 45.8315 21.5094 45.8324 21.4147V21.4146V21.4146V21.4145V21.4144V21.4144V21.4143V21.4142V21.4141V21.4141C45.8344 21.1944 45.8364 20.9749 45.8546 20.758C45.8735 20.505 45.7862 20.4231 45.5296 20.4267C44.8749 20.4365 44.2202 20.4349 43.5676 20.4333H43.5675H43.5674H43.5673H43.5672H43.5671H43.567H43.5669H43.5668H43.5667H43.5666H43.5665C43.322 20.4327 43.0778 20.4321 42.834 20.4321C41.5835 20.4321 41.5835 20.4321 41.6807 21.6989C41.6105 21.9491 41.7627 21.9572 41.9508 21.9572C42.455 21.9572 42.9592 21.9611 43.4634 21.9649C43.6524 21.9663 43.8415 21.9677 44.0306 21.9689C44.0249 22.2093 44.0296 22.4499 44.0342 22.6905C44.0429 23.1383 44.0516 23.5862 43.9937 24.0325H42.0778C41.9274 23.9697 41.7636 23.9456 41.6015 23.9623C41.1045 23.9362 40.757 23.6643 40.5283 23.2519C40.426 23.067 40.3519 22.8668 40.2778 22.6665L40.2778 22.6665L40.2778 22.6665L40.2778 22.6664L40.2778 22.6664L40.2778 22.6664L40.2778 22.6664L40.2778 22.6663L40.2778 22.6663L40.2777 22.6663L40.2777 22.6662L40.2777 22.6662L40.2777 22.6661C40.2436 22.574 40.2095 22.4819 40.1727 22.3912C40.0972 21.8033 40.059 21.2112 40.0583 20.6185L40.0621 20.5956L40.0621 20.5956C40.1607 19.9928 40.2592 19.3907 40.6958 18.9142C41.1621 18.5837 41.6924 18.4577 42.2596 18.4577ZM48.186 13.3969C48.484 13.4005 48.5984 13.4563 48.5984 13.7867L48.5982 13.8287C48.5931 14.9265 48.5931 14.9274 47.4622 14.9274C47.2939 14.9271 47.1256 14.9281 46.9572 14.9291H46.9572H46.9571H46.9571H46.957H46.957H46.957H46.9569H46.9569H46.9568H46.9568H46.9567C46.0919 14.9341 45.2266 14.9391 44.3714 14.7726C43.4872 14.5925 42.7985 14.1423 42.3654 13.332C41.9821 12.7413 41.7711 12.0554 41.7559 11.3513C41.6137 10.424 41.6659 9.51737 42.0395 8.64406C42.4474 7.3503 43.4908 6.49049 44.8125 6.37345C45.5427 6.3102 46.2753 6.31851 47.0089 6.32682C47.4449 6.33176 47.8812 6.3367 48.3175 6.32663C48.5047 6.32303 48.575 6.37435 48.5948 6.57512L48.597 6.59838C48.657 7.22263 48.6869 7.53397 48.5455 7.69002C48.4047 7.84529 48.0944 7.84682 47.4753 7.84989L47.4568 7.84998C46.9453 7.85204 46.4307 7.86401 45.917 7.87597L45.9169 7.87597L45.9169 7.87597L45.9168 7.87597L45.9167 7.87597L45.9167 7.87597C45.7559 7.87972 45.5951 7.88346 45.4346 7.88689C44.7459 7.9013 44.2318 8.20471 43.9149 8.82413C43.7938 9.35961 43.7335 9.62633 43.84 9.75918C43.9458 9.89101 44.2159 9.89101 44.754 9.89101C45.0556 9.89125 45.3571 9.89256 45.6587 9.89388C46.4924 9.89753 47.3259 9.90118 48.159 9.882C48.5272 9.8703 48.6335 9.99724 48.5921 10.3322C48.5757 10.4649 48.5814 10.5992 48.5872 10.7337V10.7337C48.5961 10.9386 48.6049 11.1439 48.5353 11.345C48.4428 11.4422 48.3314 11.4286 48.2225 11.4153C48.1851 11.4108 48.1481 11.4062 48.1122 11.4062C46.7806 11.4153 45.449 11.4207 44.1175 11.4062C44.0436 11.4125 43.9698 11.4207 43.896 11.4306C43.7708 11.4747 43.7483 11.5782 43.806 11.7907C43.8187 11.8377 43.831 11.8848 43.8434 11.9318L43.8434 11.9318L43.8434 11.9319C43.9135 12.1983 43.9832 12.4638 44.1103 12.7117L44.4839 13.0502L44.9206 13.2492C45.7221 13.4352 46.5341 13.4198 47.3455 13.4045C47.6259 13.3992 47.9062 13.3939 48.186 13.3969ZM55.4754 13.3973L55.2324 13.4012C54.283 13.4168 53.3317 13.4324 52.3918 13.2424C52.377 13.2316 52.3617 13.2211 52.3465 13.2106L52.3465 13.2105C52.3137 13.1879 52.2809 13.1653 52.2514 13.1389C51.8604 12.7892 51.8295 12.3345 51.7986 11.8794V11.8794C51.7884 11.7299 51.7782 11.5804 51.7553 11.4346C51.7583 9.83742 51.7607 8.24025 51.7625 6.64308C51.7625 6.62293 51.764 6.60094 51.7654 6.57828L51.7655 6.57801L51.7655 6.57792C51.773 6.46292 51.7817 6.33096 51.6104 6.33697C51.4301 6.34328 51.2486 6.33535 51.0667 6.3274C50.7038 6.31154 50.3395 6.29562 49.9808 6.39279C49.9141 7.1883 49.9363 7.98457 49.9585 8.78089L49.9646 9.00372C49.9322 9.87433 49.9268 10.744 49.9691 11.6147C49.9493 12.2026 49.9691 12.7851 50.2392 13.3253C50.6173 14.3066 51.4051 14.7199 52.3837 14.8486C53.0358 14.9336 53.6925 14.9304 54.3486 14.9272H54.3487C54.4572 14.9267 54.5657 14.9262 54.6742 14.926C55.2576 14.926 55.5475 14.926 55.6903 14.7811C55.8314 14.6379 55.829 14.3533 55.8242 13.7875L55.8239 13.7556C55.8203 13.4855 55.76 13.3928 55.4754 13.3973ZM81.9234 20.541C82.5383 20.6202 82.9408 21.0082 83.2865 21.48L83.2874 21.4737C83.6595 22.0768 83.781 22.8016 83.6259 23.4931C83.4719 24.6068 82.7274 25.3685 81.6272 25.4585C80.4583 25.5497 79.2871 25.54 78.1157 25.5304H78.1155H78.1154H78.1152H78.115H78.1149H78.1147H78.1146H78.1144C77.5042 25.5254 76.8939 25.5204 76.2838 25.5296C76.056 25.5332 76.0191 25.4306 76.0083 25.2316L76.0074 25.2161C75.9746 24.6131 75.9583 24.3137 76.1001 24.1636C76.2398 24.0157 76.533 24.0127 77.1151 24.0067L77.1517 24.0063C77.5282 24.0025 77.9046 24.0065 78.2811 24.0106C79.0571 24.0189 79.833 24.0273 80.6089 23.9667C81.0843 23.9298 81.4309 23.7326 81.6416 23.3049L81.6668 22.8656C81.6365 22.6999 81.5722 22.5423 81.4778 22.4028C81.3834 22.2634 81.261 22.145 81.1185 22.0553C80.6829 21.9273 80.2354 21.9219 79.7874 21.9165L79.6564 21.9149C79.4612 21.9117 79.2656 21.9141 79.07 21.9165C78.4752 21.9238 77.8802 21.9311 77.2948 21.7834C76.5647 21.5988 76.0524 21.1676 75.8138 20.4383C75.5781 19.9522 75.5372 19.3943 75.6995 18.879C75.8534 17.849 76.5503 17.1603 77.5901 17.0108C78.2303 16.9189 78.8755 16.927 79.5222 16.9352C79.7751 16.9384 80.0281 16.9416 80.2812 16.9388C80.6692 16.9356 81.0572 16.9361 81.4452 16.9367H81.4457C81.9262 16.9374 82.4066 16.938 82.8867 16.9316C83.1172 16.928 83.2135 16.9901 83.1973 17.2314C83.1741 17.485 83.1741 17.7403 83.1973 17.994C83.2433 18.3577 83.1352 18.4774 82.7472 18.4693C81.7351 18.4502 80.7224 18.4575 79.7101 18.4647H79.71H79.7098H79.7097H79.7096H79.7094H79.7093H79.7092H79.7088H79.7086H79.7083H79.7081H79.7078H79.7076H79.7073H79.7071C79.4777 18.4663 79.2483 18.468 79.0189 18.4693C78.7798 18.473 78.5412 18.4937 78.305 18.5314C77.8863 18.5945 77.6559 18.8502 77.6054 19.2688C77.6865 20.1529 77.9872 20.4077 78.8713 20.4077C79.4283 20.4065 79.9883 20.4199 80.5492 20.4334L80.5494 20.4334C80.7981 20.4394 81.047 20.4453 81.2959 20.45L81.3084 20.4494C81.4663 20.4414 81.6246 20.4335 81.7667 20.5212L81.9234 20.541ZM76.3644 11.6488C77.6942 11.6884 78.0939 11.9882 78.5045 13.236L78.5583 13.6891C78.5964 14.0102 78.6346 14.3314 78.6719 14.6523C78.6908 14.8152 78.7323 14.9332 78.942 14.9296C79.3021 14.9235 79.6587 14.9256 80.015 14.9276H80.0152C80.1934 14.9286 80.3715 14.9296 80.55 14.9296L80.5678 14.9296C80.6668 14.9302 80.7664 14.9308 80.7418 14.7711C80.682 14.3852 80.6245 13.9994 80.567 13.6136L80.4978 13.1505C80.379 12.2385 79.9855 11.5299 79.0573 11.2193C79.5894 11.0105 80.0755 10.7467 80.3177 10.1849C80.6505 9.61055 80.7473 8.92948 80.5878 8.28518C80.5131 7.58923 80.1377 7.08865 79.5425 6.75914C78.9808 6.44762 78.3577 6.3666 77.7203 6.3909C77.6649 6.36966 77.6072 6.35515 77.5483 6.34769C77.077 6.34594 76.6057 6.34532 76.1344 6.34471C75.1526 6.34342 74.1708 6.34214 73.189 6.33058C72.918 6.33058 72.9184 6.47208 72.9188 6.65116L72.9189 6.67451V9.68608C72.9189 10.1243 72.9195 10.5621 72.9202 10.9998V11.0004V11.001V11.0016V11.0023V11.0029V11.0035V11.0041C72.922 12.1836 72.9238 13.3616 72.9126 14.5406C72.9126 14.853 72.99 14.9638 73.3105 14.9404C73.7004 14.9207 74.0911 14.9207 74.4809 14.9404C74.6754 14.9458 74.751 14.8746 74.7429 14.682C74.7334 14.2593 74.7293 13.8367 74.7251 13.4141L74.725 13.4041C74.7233 13.2314 74.7216 13.0586 74.7195 12.8858C74.7217 12.7952 74.7252 12.7045 74.7287 12.6138V12.6136V12.6133V12.613V12.6128V12.6125V12.6122C74.7365 12.4051 74.7444 12.1978 74.7375 11.9909C74.7294 11.7514 74.7889 11.6362 75.0608 11.6497C75.2737 11.6554 75.4864 11.6521 75.6988 11.6488C75.9211 11.6453 76.143 11.6419 76.3644 11.6488ZM78.4118 8.37431C78.4298 8.39772 78.4487 8.42023 78.4676 8.44184C78.4487 8.5888 78.4682 8.73617 78.4877 8.88357C78.5091 9.04588 78.5306 9.20822 78.5009 9.37007C78.5405 9.53032 78.5315 9.67078 78.3541 9.7437C78.3056 9.77669 78.2536 9.80508 78.2015 9.83351C78.0873 9.89584 77.9729 9.95831 77.895 10.0696C77.8635 10.0566 77.8334 10.0406 77.8049 10.0219C77.6978 9.98487 77.5897 9.99495 77.4814 10.0051C77.4422 10.0087 77.403 10.0124 77.3638 10.0138C77.2699 10.017 77.176 10.0204 77.0822 10.0238C76.2973 10.0522 75.5127 10.0806 74.7294 9.97688L74.7204 8.58499C74.7576 8.55794 74.7831 8.51767 74.7915 8.47245C74.8321 8.02229 75.1193 7.94396 75.5118 7.95836C75.8699 7.97133 76.2287 7.96874 76.5876 7.96614C76.8268 7.96441 77.0661 7.96269 77.3053 7.96557C77.7248 7.96737 78.1047 8.07 78.4118 8.37431ZM71.6489 18.4748C71.1159 18.4883 70.609 18.5981 70.2084 18.9934C69.9491 19.3382 69.859 19.7379 69.7969 20.1566C69.7528 20.4447 69.8419 20.5104 70.121 20.5104C70.9955 20.5044 71.8701 20.5064 72.7446 20.5084C73.1818 20.5094 73.6191 20.5104 74.0563 20.5104C74.1657 20.511 74.2746 20.5219 74.3836 20.5327L74.3837 20.5327C74.4363 20.538 74.4889 20.5432 74.5416 20.5473C74.648 20.8618 74.63 21.1835 74.612 21.5043C74.6051 21.6261 74.5983 21.7478 74.5983 21.869C74.6026 22.0538 74.4614 22.0341 74.3382 22.017C74.3042 22.0122 74.2715 22.0077 74.2436 22.0077H70.5073C70.142 22.0077 69.9622 22.0077 69.8835 22.0969C69.8072 22.1833 69.8259 22.3537 69.8626 22.6892C70.1426 23.5652 70.7927 23.9064 71.6633 23.9758C72.2994 24.0269 72.9385 24.0202 73.5769 24.0136H73.5771H73.5774H73.5776H73.5779H73.5781H73.5784C73.7942 24.0113 74.01 24.0091 74.2256 24.0091C74.5074 24.0091 74.6172 24.0667 74.6172 24.3773L74.6175 24.4145C74.621 24.9704 74.6228 25.2499 74.4839 25.3904C74.3436 25.5324 74.0595 25.5324 73.4882 25.5324C73.3371 25.5318 73.1859 25.5321 73.0347 25.5323C72.2116 25.5335 71.3888 25.5347 70.5712 25.41C69.1829 25.1975 68.3753 24.3521 67.9837 23.0493C67.6954 22.2039 67.6242 21.2996 67.7766 20.4195C67.787 19.8848 67.9322 19.3615 68.1988 18.8979C68.7723 17.6726 69.7141 16.9848 71.0799 16.9523C71.7131 16.937 72.3463 16.9375 72.9796 16.938H72.9798C73.4269 16.9383 73.874 16.9387 74.321 16.9334C74.5335 16.9307 74.6334 16.9938 74.6073 17.2116C74.6061 17.2266 74.6061 17.2417 74.6073 17.2567C74.6321 17.8587 74.6445 18.1599 74.4999 18.3105C74.3553 18.4613 74.0535 18.4613 73.4495 18.4613L73.1493 18.4615C72.6489 18.4618 72.1486 18.462 71.6489 18.4748ZM68.8438 14.9311C69.0797 14.941 69.1572 14.8608 69.1518 14.6258C69.1391 14.0832 69.1363 13.5401 69.1335 12.9969V12.9957V12.9956V12.9955V12.9954V12.9953C69.1325 12.8054 69.1315 12.6154 69.1301 12.4255C69.1265 11.9363 69.1277 11.4591 69.1289 10.9819C69.1295 10.7434 69.1301 10.5048 69.1301 10.2647V8.46404C69.1488 8.16103 69.1582 8.00733 69.2399 7.92948C69.3241 7.84934 69.4847 7.84957 69.8108 7.85003H70.9389C71.4725 7.85003 71.7359 7.85003 71.8692 7.71834C71.9991 7.58997 72.0054 7.33646 72.0178 6.83582L72.0193 6.77864C72.0283 6.3816 71.886 6.31948 71.5322 6.32218C70.081 6.33433 68.6289 6.33281 67.1776 6.3313H67.1774H67.1771H67.1768H67.1766H67.1763H67.176C66.6928 6.33079 66.2098 6.33028 65.7269 6.33028C65.1407 6.33028 64.8481 6.33028 64.7059 6.47653C64.5642 6.6223 64.5719 6.91336 64.5874 7.49452L64.588 7.51871C64.5943 7.7672 64.6546 7.86263 64.9175 7.85543C65.3331 7.84326 65.7496 7.84567 66.1657 7.84807C66.3346 7.84905 66.5035 7.85003 66.6723 7.85003C67.3142 7.85003 67.3142 7.85003 67.3529 8.46494V10.2656V12.3363C67.3511 12.5545 67.3499 12.773 67.3487 12.9915C67.3456 13.5376 67.3426 14.0838 67.3304 14.6258C67.325 14.8599 67.4015 14.9419 67.6383 14.932C68.0345 14.9139 68.4396 14.9139 68.8438 14.9311ZM55.0061 23.6713C55.0253 23.6982 55.0385 23.7289 55.0448 23.7614L55.1994 24.1194L55.1999 24.1207C55.3721 24.5199 55.5446 24.9198 55.7219 25.3207C55.7894 25.4747 55.7516 25.5386 55.5778 25.5386C55.0061 25.5332 54.4371 25.5305 53.8672 25.5386C53.6997 25.5404 53.625 25.454 53.5728 25.318C53.479 25.0808 53.3858 24.8431 53.2928 24.6057L53.2925 24.6051L53.2923 24.6045L53.2127 24.4015C53.0605 23.5579 52.4762 23.4814 51.7658 23.5435C51.2304 23.6022 50.6901 23.5998 50.1552 23.5363C49.6078 23.4579 49.443 23.7839 49.263 24.1593C49.2181 24.2679 49.179 24.3788 49.1459 24.4915C49.146 24.5219 49.1423 24.5521 49.1351 24.5815C48.7759 25.5368 48.7759 25.5368 47.7639 25.5368C47.6632 25.5368 47.5627 25.5356 47.4624 25.5344C47.2622 25.532 47.0627 25.5296 46.8636 25.5368C46.6421 25.5467 46.6061 25.4738 46.6961 25.2766C46.8151 25.0251 46.9261 24.7704 47.0373 24.5155C47.0809 24.4153 47.1246 24.3152 47.1688 24.2151C47.1818 24.053 47.2384 23.8975 47.3327 23.765L47.5181 23.3706C47.7811 22.6169 48.0859 21.8784 48.4311 21.1585C48.6516 20.5101 48.9141 19.8767 49.217 19.2624C49.5069 18.5422 49.7953 17.8219 50.0823 17.1017C50.0997 17.0439 50.1383 16.9949 50.1905 16.9645C50.2426 16.9341 50.3043 16.9245 50.3632 16.9378C50.373 16.9378 50.3831 16.9372 50.3932 16.9366C50.4135 16.9354 50.4339 16.9342 50.4532 16.9378C50.6759 16.9779 50.9184 16.9473 51.1586 16.917C51.5872 16.8629 52.0085 16.8097 52.297 17.1611C52.6628 17.6051 52.8332 18.2298 52.9944 18.8205L52.9944 18.8206L53.0227 18.9239C53.2275 19.2251 53.3436 19.5637 53.4597 19.9023L53.4597 19.9023C53.5432 20.1457 53.6266 20.389 53.743 20.6183C53.8793 20.8276 53.9761 21.0601 54.0284 21.3044C54.1227 21.4156 54.1803 21.5534 54.1931 21.6987L54.2859 21.9481C54.5662 22.5049 54.8068 23.0807 55.0061 23.6713ZM50.103 21.7032C50.2497 21.8923 50.455 21.9229 50.6819 21.9283C50.8655 21.9328 51.049 21.9289 51.232 21.9249C51.6015 21.917 51.969 21.9092 52.3322 21.9706L52.331 21.9688C52.1099 21.63 51.8893 21.2919 51.9351 20.8605C51.5732 20.3924 51.322 19.8783 51.322 19.2679L51.3355 19.2624C51.2227 19.1636 51.1686 19.2489 51.1144 19.3343L51.1144 19.3343C51.0986 19.3593 51.0827 19.3843 51.0654 19.4047C51.0826 19.4435 51.0907 19.4858 51.0891 19.5282C51.0876 19.5706 51.0764 19.6121 51.0564 19.6496C50.8196 20.2762 50.5738 20.8992 50.2956 21.5097C50.2551 21.597 50.2065 21.6816 50.103 21.7032ZM57.671 14.928C58.0805 14.928 58.2865 14.928 58.4234 14.8308C58.562 14.7325 58.63 14.5346 58.7667 14.1366C58.9018 13.871 59.022 13.5981 59.1269 13.3192C59.2169 13.0328 59.3618 12.9212 59.6743 12.9383L59.8413 12.9478C60.3265 12.9758 60.8133 13.0039 61.2849 12.932C62.2447 12.7862 62.8506 13.0797 63.0306 14.0763C63.0337 14.0941 63.0484 14.1093 63.0632 14.1246C63.0671 14.1287 63.071 14.1327 63.0746 14.1368C63.0776 14.14 63.0803 14.1432 63.0829 14.1465C63.2069 14.5453 63.2677 14.7406 63.4003 14.8362C63.5275 14.928 63.721 14.928 64.1002 14.928H64.5504C65.6038 14.928 65.6038 14.928 65.0951 13.9539C64.9866 13.6971 64.8877 13.4358 64.7887 13.1742C64.6101 12.7023 64.4311 12.2295 64.1948 11.7805C63.9636 11.1088 63.6902 10.4524 63.3764 9.8151C63.1813 9.22232 62.9405 8.64558 62.6561 8.09008C62.6086 7.9684 62.561 7.84682 62.5134 7.72527L62.5132 7.72486L62.513 7.72445L62.5127 7.72371L62.5126 7.7234C62.3663 7.35005 62.2201 6.97697 62.079 6.60185C62.0079 6.41188 61.908 6.31825 61.6838 6.32635C61.1742 6.34526 60.6637 6.33806 60.1532 6.32635C59.9732 6.32635 59.8426 6.35606 59.7697 6.54873C59.6191 6.9416 59.4609 7.33447 59.3027 7.72733C59.2433 7.87466 59.184 8.02199 59.1251 8.16931C58.9851 8.3618 58.8987 8.58797 58.8748 8.82475C58.6827 9.16588 58.5316 9.52852 58.4246 9.90513C58.2645 10.1822 58.1433 10.48 58.0645 10.7901C57.8687 11.1362 57.714 11.5039 57.6035 11.8858C57.2611 12.5869 56.9625 13.3086 56.7095 14.0466L56.6779 14.1172L56.6778 14.1173C56.5982 14.2953 56.5176 14.4755 56.4286 14.648C56.2854 14.9181 56.4205 14.9397 56.6447 14.9334C56.8915 14.9236 57.1413 14.9252 57.3907 14.9268H57.3908C57.4843 14.9274 57.5778 14.928 57.671 14.928ZM59.8714 10.9666C60.0076 10.8726 60.1158 10.7434 60.1845 10.5928C60.2531 10.4422 60.2797 10.2758 60.2613 10.1113C60.517 9.72327 60.7708 9.33523 60.7663 8.85085L60.7811 8.83305C60.8391 8.76254 60.8971 8.69192 60.9743 8.84545C61.0133 8.92301 61.0423 9.00154 61.071 9.07895C61.1038 9.1678 61.1361 9.25518 61.1823 9.33793C61.2205 9.40703 61.2449 9.4849 61.2694 9.56283C61.3233 9.73468 61.3774 9.90687 61.5793 9.98616C61.5017 10.2386 61.6041 10.4468 61.7061 10.6541L61.7061 10.6541L61.7061 10.6542L61.7061 10.6542C61.7496 10.7427 61.7931 10.831 61.8224 10.9225C61.9125 11.1926 61.8746 11.315 61.5676 11.3105C61.2881 11.3063 61.0084 11.3072 60.7263 11.3082H60.7262H60.7261H60.726C60.4103 11.3093 60.0917 11.3104 59.767 11.3042C59.9227 11.2079 59.9552 11.1008 59.8714 10.9693V10.9666ZM64.3613 16.9381H66.3348C66.4834 17.0062 66.4675 17.1236 66.4525 17.2344C66.4481 17.2672 66.4437 17.2995 66.4437 17.3297C66.4454 18.2893 66.4454 19.2488 66.4455 20.2084V20.222C66.4456 21.8535 66.4457 23.4851 66.4536 25.1166C66.4536 25.4641 66.3726 25.619 66.0034 25.5731C65.846 25.5537 65.6721 25.5725 65.5007 25.5911C65.1925 25.6243 64.8921 25.6568 64.7088 25.4659C64.5227 25.2747 64.5617 24.9387 64.6004 24.6057C64.6164 24.4683 64.6323 24.3314 64.6323 24.2055C64.6285 23.4529 64.6284 22.7001 64.6283 21.9473C64.6282 21.2448 64.6281 20.5422 64.625 19.8398C64.6248 19.8004 64.6289 19.7599 64.6329 19.7191C64.6451 19.5978 64.6575 19.4738 64.5584 19.368L63.9912 20.9769C63.7415 21.8022 63.4573 22.6155 63.1386 23.4168C63.0764 23.6024 63.0136 23.7875 62.9508 23.9725L62.9508 23.9727C62.8028 24.4086 62.655 24.8444 62.5147 25.2868C62.4526 25.4785 62.3499 25.5406 62.1546 25.5352C61.9875 25.5305 61.8126 25.5449 61.6386 25.5592C61.279 25.5887 60.9238 25.6178 60.6519 25.4776C60.3678 25.331 60.2944 24.9729 60.2202 24.6116L60.2202 24.6116L60.2202 24.6116C60.1851 24.4405 60.1498 24.2686 60.0919 24.1181C59.9988 23.8729 59.9284 23.6219 59.8575 23.3692C59.8277 23.2628 59.7978 23.1561 59.766 23.0495C59.5278 22.4623 59.3264 21.8609 59.1628 21.2488C58.9931 20.8434 58.8576 20.4245 58.7577 19.9965L58.5146 19.2681C58.3899 19.4888 58.4079 19.7212 58.4259 19.9538V19.9539V19.9539C58.435 20.0724 58.4442 20.191 58.4344 20.308C58.419 20.5298 58.4174 20.7548 58.4157 20.9795L58.4157 20.9805C58.415 21.0701 58.4144 21.1596 58.4128 21.2488V22.6083C58.4142 22.8294 58.4153 23.0505 58.4163 23.2717V23.2727C58.4195 23.9353 58.4227 24.598 58.4335 25.2606C58.4371 25.4776 58.3606 25.5506 58.1472 25.5433C57.7874 25.5234 57.4267 25.5234 57.0669 25.5433C56.7211 25.574 56.6428 25.4227 56.7166 25.1238V22.1527V19.992V18.2814C56.6708 17.606 56.6481 17.2711 56.8045 17.105C56.9584 16.9417 57.2856 16.9417 57.9348 16.9417H58.565C59.4248 16.9417 59.4248 16.9417 59.6049 17.806C59.8287 18.3581 60.0093 18.9267 60.1451 19.5067C60.2914 19.7804 60.3618 20.0784 60.4321 20.3765L60.4321 20.3765C60.4951 20.6431 60.558 20.9097 60.6753 21.1588C60.9278 21.8048 61.1383 22.4664 61.3056 23.1395L61.4964 23.5779L61.7386 23.0143L61.7746 22.8694C61.7926 22.7088 61.8477 22.5547 61.9358 22.4192C62.0686 21.8857 62.2454 21.3642 62.4643 20.8599C62.7839 19.7678 63.1395 18.6883 63.551 17.6277C63.6264 17.2752 63.6633 17.1029 63.7699 17.0186C63.8718 16.9381 64.0373 16.9381 64.3613 16.9381ZM64.7268 20.7987H64.7511C64.7427 20.7824 64.7346 20.7665 64.7268 20.7509V20.7987ZM90.9265 5.57055C90.859 5.39347 90.7477 5.23636 90.6031 5.11383C90.4585 4.9913 90.2853 4.90733 90.0996 4.86974C89.9138 4.83215 89.7215 4.84216 89.5407 4.89884C89.3599 4.95551 89.1963 5.05701 89.0652 5.19389C88.9341 5.33077 88.8398 5.49858 88.791 5.68171C88.7422 5.86485 88.7405 6.05735 88.7861 6.2413C88.8317 6.42526 88.9231 6.5947 89.0517 6.73385C89.1804 6.873 89.3422 6.97734 89.522 7.03717C90.0235 7.21724 90.5385 7.02367 90.8419 6.5537C90.8766 6.49969 90.9137 6.44748 90.9509 6.39526L90.9512 6.39491L90.9514 6.39464C90.973 6.36436 90.9945 6.33406 91.0156 6.30341V5.76322C91.0035 5.7362 90.9906 5.70919 90.9778 5.68211L90.9778 5.68204C90.9602 5.64506 90.9426 5.60795 90.9265 5.57055ZM90.5178 6.60862C90.1927 6.93363 89.7561 6.95344 89.3059 6.65003C88.8198 6.16026 88.8558 5.65968 89.396 5.23203C89.8704 4.98984 90.3107 5.05916 90.5889 5.42109C90.7201 5.59497 90.7851 5.80989 90.7722 6.02733C90.7594 6.24478 90.6695 6.45054 90.5187 6.60772L90.5178 6.60862ZM90.117 5.39241C90.27 5.48514 90.4132 5.67871 90.3024 5.78675C90.0751 6.00931 90.1768 6.18388 90.2769 6.35587C90.3104 6.41347 90.3438 6.47079 90.3645 6.52952C90.1421 6.63271 90.076 6.50566 90.0108 6.38003C89.9957 6.35111 89.9808 6.32227 89.9639 6.29633L89.958 6.28654C89.8956 6.18359 89.8266 6.06955 89.6992 6.10096C89.5925 6.12727 89.5997 6.22479 89.6062 6.31258C89.6077 6.33293 89.6092 6.35276 89.6092 6.37106C89.6137 6.52231 89.557 6.59434 89.4012 6.57093C89.3991 6.52256 89.3963 6.47409 89.3935 6.42555C89.3879 6.32774 89.3823 6.22966 89.3823 6.13157C89.3796 5.39241 89.3805 5.39241 90.117 5.39241ZM89.6056 5.73183C89.611 5.87138 89.6893 5.91009 89.8145 5.89389C89.8217 5.89298 89.829 5.8921 89.8364 5.89121C89.9528 5.87718 90.0809 5.86174 90.0656 5.70932C90.053 5.58778 89.9225 5.57157 89.8145 5.57337L89.8108 5.57343C89.704 5.57519 89.5993 5.57692 89.6056 5.73183Z" fill="#919EAB"/>
</svg>
