<svg width="132" height="22" fill="none" xmlns="http://www.w3.org/2000/svg"><g clip-path="url(#a)" fill="#919EAB"><path fill-rule="evenodd" clip-rule="evenodd" d="M47.397 6.395c1.116-1.008 2.41-1.357 3.884-1.046 1.437.303 2.377 1.209 2.823 2.717.546 1.842.53 3.723-.049 5.643-.598 1.993-2.339 3.096-4.382 3.343-1.727.208-3.463-.02-5.21-.682a.153.153 0 0 1-.099-.143V1.694c0-.06.03-.098.087-.113l2.81-.755c.064-.018.096.007.096.072v5.48a.024.024 0 0 0 .04.018Zm3.983 5.576c.126-.97.063-1.865-.19-2.683-.213-.692-.664-1.085-1.353-1.18-1.075-.148-1.84.23-2.3 1.136-.134.265-.199.574-.193.925.02 1.424.021 2.768.006 4.031 0 .028.008.055.024.077.015.023.037.04.062.05.74.279 1.459.343 2.155.192 1.248-.272 1.64-1.412 1.789-2.548Z"/><path d="m69.8 7.917.002 4.739c0 1.41.58 2.005 2.043 1.553.066-.021.1.004.1.074v2.425c0 .07-.034.116-.102.136-1.084.307-2.014.366-2.789.178-1.475-.36-2.212-1.36-2.21-3.001.006-3.942.007-7.796.004-11.561a.092.092 0 0 1 .07-.09l2.772-.748c.074-.02.112.009.112.085v3.47c0 .054.026.081.08.081h1.982c.054 0 .08.027.08.08v2.427c0 .027-.013.04-.04.04h-1.992c-.075 0-.112.038-.112.112Z"/><path fill-rule="evenodd" clip-rule="evenodd" d="M26.342 7.693a7.726 7.726 0 0 0-15.057.429 7.728 7.728 0 1 0 15.057-.43Zm-10.507.39c-.617 1.291-.5 2.506.348 3.642 1.001 1.341 2.96 1.693 4.398.827 1.605-.964 2.152-2.94 1.246-4.584-1.412-2.377-4.633-2.294-5.992.115Z"/><path d="m5.435 5.502 2.79 6.264a165 165 0 0 1 .776 1.742c.249.572.367 1.019.355 1.341-.067 1.869-2.411 2.732-3.66 1.34-.151-.168-.332-.489-.544-.964a608.288 608.288 0 0 1-1.543-3.483L.98 5.822C.456 4.954.427 4.135.891 3.366c.664-1.093 2.254-1.3 3.23-.406.202.186.433.566.693 1.14.21.466.417.934.621 1.403ZM32.418 3.696a904.92 904.92 0 0 1 1.847 4.15l2.548 5.727c.65 1.156.325 2.544-.905 3.109-.784.36-1.764.183-2.355-.42-.179-.183-.367-.492-.564-.93a213.34 213.34 0 0 1-.833-1.872l-2.52-5.657c-.35-.777-.711-1.588-1.081-2.435a2.097 2.097 0 0 1 2.405-2.912c.67.157 1.157.57 1.458 1.24Z"/><path fill-rule="evenodd" clip-rule="evenodd" d="M80.703 15.983c-1.023.958-2.282 1.307-3.779 1.047-3.268-.568-3.543-4.667-3.125-7.231.317-1.945 1.198-3.342 3.03-4.069a6.863 6.863 0 0 1 1.968-.452c1.605-.136 3.224.098 4.858.702a.141.141 0 0 1 .099.144V16.92c0 2.809-1.595 4.473-4.378 4.656-1.325.086-2.75.021-4-.41-.05-.017-.075-.052-.075-.105v-2.42a.09.09 0 0 1 .04-.072.086.086 0 0 1 .082-.007c.756.341 1.539.53 2.349.568 1.294.061 2.538-.045 2.934-1.419.11-.38.104-.768.099-1.157-.003-.174-.005-.35.003-.523.005-.103-.03-.119-.105-.049Zm-.01-7.68c-.7-.275-1.561-.345-2.273-.157-1.661.435-1.81 2.748-1.679 4.205.044.485.16.93.346 1.338.486 1.055 2.165 1.117 2.953.43.433-.378.773-.96.768-1.547-.009-1.274-.01-2.643-.005-4.106a.174.174 0 0 0-.11-.163ZM90.698 8.501c.13.355.173.74.131 1.157-.006.057-.038.086-.095.087-2.705.059-6.128 1.083-5.872 4.47.067.878.406 1.584 1.019 2.117 1.376 1.2 3.48.906 5.005.05a.077.077 0 0 1 .077.002.078.078 0 0 1 .038.067l-.012.572c0 .083.04.125.122.125h2.438c.065 0 .1-.034.103-.1.106-2.928.115-5.646.028-8.152-.02-.558-.048-.93-.085-1.116-.698-3.54-5.614-2.646-7.981-1.86a.116.116 0 0 0-.08.111v2.35a.069.069 0 0 0 .03.057.068.068 0 0 0 .063.007c1.19-.481 2.346-.722 3.467-.723.56 0 1.388.186 1.604.78Zm.264 4.378c.058.79-.92 1.51-1.534 1.62-.902.156-1.99-.334-1.82-1.412.172-1.069 2.518-1.072 3.271-1.027.06.005.088.037.083.097-.02.226-.02.466 0 .722Z"/><path d="M98.28 6.83c1.028-1.21 2.306-1.732 3.836-1.565.92.098 1.923.755 2.217 1.718.029.093.07.1.123.017.769-1.162 1.875-1.751 3.318-1.766 1.328-.015 2.501.406 3.012 1.727.274.71.414 1.576.419 2.597.012 2.383.014 4.885.005 7.504 0 .057-.029.086-.086.086h-2.748c-.068 0-.103-.034-.104-.102a321.958 321.958 0 0 1-.024-6.328c.005-.75.003-1.793-.43-2.42-.215-.313-.655-.408-1.019-.42-.794-.024-1.386.325-1.777 1.049a1.83 1.83 0 0 0-.207.891c.008 2.35.01 4.765.007 7.244 0 .057-.029.086-.086.086h-2.79c-.07 0-.106-.035-.107-.105-.022-2.108-.015-4.015.019-5.724.02-.994-.056-1.854-.226-2.58-.152-.647-.743-.888-1.367-.864-.737.028-1.301.403-1.694 1.123a1.405 1.405 0 0 0-.183.686c.005 2.53.007 4.989.007 7.376 0 .059-.03.088-.087.088h-2.746c-.08 0-.12-.04-.12-.122V6.038a.088.088 0 0 1 .066-.086l2.581-.697c.068-.018.102.008.102.08v1.463c.001.092.03.103.09.032ZM126.441 12.218c.644.227 1.289.453 1.806.88.282.23.33.653.189.978-.64 1.475-3.657.263-4.602-.246-.056-.03-.084-.014-.084.05v2.464c0 .069.032.116.097.142 2.281.914 6.48 1.255 7.454-1.744a3.634 3.634 0 0 0-.048-2.473c-.426-1.123-1.264-1.775-2.377-2.132l-.221-.07h-.001c-.688-.218-1.434-.455-1.983-.89-.402-.32-.452-.693-.152-1.119.271-.383.943-.474 1.364-.446.783.05 1.664.282 2.643.699.066.029.099.007.099-.065V5.983a.134.134 0 0 0-.095-.136c-1.414-.534-3.046-.81-4.527-.489-1.708.37-2.68 1.61-2.638 3.368.031 1.306.604 2.28 1.72 2.922.418.241.887.406 1.356.57Z"/><path fill-rule="evenodd" clip-rule="evenodd" d="M58.593 12.026c.013 1.69 1.49 2.67 3.052 2.663a8.907 8.907 0 0 0 3.179-.586c.056-.022.084-.003.084.057v2.31c0 .072-.035.119-.105.14-1.641.474-3.18.625-4.617.454-2.22-.266-4.028-1.912-4.427-4.162-.486-2.736.011-6.353 3.118-7.328 2.422-.76 5.617-.28 6.401 2.471.289 1.01.267 2.108.245 3.18-.004.21-.008.417-.01.623-.001.055-.029.083-.084.083h-6.74c-.066 0-.097.032-.096.095Zm2.148-4.404c-1.35.106-1.962 1.151-2.074 2.392-.006.065.023.097.09.097h3.919c.051 0 .08-.025.084-.076.134-1.335-.51-2.532-2.019-2.413ZM118.143 14.655c-1.629-.195-2.527-1.074-2.692-2.637-.005-.058.022-.087.08-.087h6.753c.061 0 .091-.03.091-.09.002-.708.002-1.46 0-2.254-.003-1.963-.784-3.271-2.342-3.926-1.286-.54-2.865-.523-4.197-.108-2.13.661-3.123 2.525-3.304 4.652-.083.99-.035 1.932.144 2.826.459 2.297 2.416 3.923 4.736 4.073 1.43.093 2.855-.072 4.274-.493.055-.018.082-.055.082-.112v-2.313c0-.068-.031-.09-.095-.068-1.369.476-2.545.655-3.53.537Zm-2.515-4.544c-.064 0-.092-.032-.084-.095.163-1.345.867-2.474 2.387-2.404 1.311.06 1.854 1.22 1.733 2.402-.008.065-.044.097-.109.097h-3.927Z"/></g><defs><clipPath id="a"><path fill="#fff" transform="translate(.162 .001)" d="M0 0h131.676v22H0z"/></clipPath></defs></svg>