<svg width="68" height="32" viewBox="0 0 68 32" fill="none" xmlns="http://www.w3.org/2000/svg">
<path fill-rule="evenodd" clip-rule="evenodd" d="M46.1967 0.224171L45.2931 1.38006C45.2733 1.40541 45.2453 1.42305 45.2139 1.42993L44.1578 1.65876C44.1316 1.66421 44.1044 1.66193 44.0795 1.65219C44.0546 1.64245 44.033 1.62568 44.0175 1.60391C44.0019 1.58215 43.993 1.55633 43.9919 1.5296C43.9908 1.50288 43.9974 1.4764 44.0111 1.4534L44.7269 0.235906C44.7376 0.217486 44.7525 0.201807 44.7703 0.190099C44.7881 0.178391 44.8084 0.170973 44.8296 0.168429L46.0706 0.00120753C46.0979 -0.00252333 46.1257 0.00203169 46.1504 0.0142823C46.1751 0.0265328 46.1956 0.0459156 46.2092 0.0699263C46.2228 0.093937 46.2289 0.121471 46.2266 0.148968C46.2244 0.176465 46.214 0.202662 46.1967 0.224171ZM31.1848 7.02173C30.2813 7.30924 29.3659 7.4481 28.4389 7.43832C28.4136 7.43763 28.389 7.42995 28.3677 7.41618C28.3465 7.40241 28.3296 7.38309 28.3188 7.36044C28.3081 7.33779 28.3041 7.31272 28.3071 7.2881C28.3102 7.26348 28.3203 7.2403 28.3362 7.22122L31.707 2.9996C31.7716 2.91941 31.8547 2.87248 31.9564 2.85878C33.9279 2.59671 35.8935 2.33071 37.8532 2.06081C38.0422 2.03598 38.2052 1.93136 38.3771 1.82107C38.5707 1.69682 38.7756 1.56538 39.0413 1.53274C39.9664 1.41735 40.8779 1.27947 41.7756 1.11909C42.1648 1.05064 42.2352 1.16994 41.9868 1.477L38.305 6.03894C38.2365 6.12304 38.1495 6.16997 38.0439 6.17975C37.5178 6.2306 37.0073 6.30786 36.5125 6.41152C36.3208 6.45063 36.1379 6.43499 35.9639 6.36458C35.843 6.31632 35.7087 6.31284 35.5851 6.35476C35.4615 6.39668 35.3566 6.48127 35.2891 6.59341L29.4686 16.348C29.4041 16.4556 29.3102 16.4957 29.187 16.4683C28.9836 16.4214 28.789 16.439 28.6032 16.5211C28.3665 16.6248 28.1172 16.6805 27.8551 16.6883C27.0728 16.7138 26.3266 16.7803 25.6167 16.8878C25.6068 16.889 25.5967 16.8875 25.5876 16.8834C25.5784 16.8794 25.5707 16.873 25.5651 16.865C25.5596 16.857 25.5565 16.8478 25.5563 16.8383C25.5561 16.8288 25.5587 16.8196 25.5638 16.8115L31.2993 7.16548C31.3873 7.01684 31.3491 6.96892 31.1848 7.02173ZM49.236 1.74381C48.5701 1.09546 47.5756 1.94917 47.1854 2.57112C47.0798 2.73736 47.0406 2.72269 47.068 2.52711C47.0934 2.34522 47.1335 2.17311 47.1883 2.01078C47.2411 1.85627 47.1854 1.78586 47.0211 1.79955C46.9447 1.80699 46.8676 1.81215 46.7905 1.81731C46.3818 1.84463 45.9749 1.87184 45.7009 2.2396C45.3958 2.6425 45.1024 3.03758 44.8208 3.42483C44.7104 3.57636 44.6739 3.7574 44.636 3.94502C44.5983 4.13153 44.5593 4.32454 44.4453 4.5015C44.0209 5.16257 43.6062 5.84906 43.2014 6.56097C43.1173 6.70766 43.1593 6.76731 43.3275 6.73993L44.2722 6.58738C44.4736 6.55413 44.6272 6.45047 44.7328 6.2764C45.3058 5.34152 45.8525 4.45163 46.3727 3.60672C46.5253 3.36029 46.7482 3.2136 47.0416 3.16666C47.0866 3.15884 47.1306 3.16275 47.1736 3.1784C47.3438 3.23707 47.3839 3.34464 47.2939 3.5011L45.7742 6.11505C45.6491 6.32823 45.7078 6.41233 45.9503 6.36735L46.8245 6.20893C47.0494 6.16785 47.2304 6.05539 47.3673 5.87155C47.456 5.75226 47.5472 5.63965 47.6372 5.52862L47.6373 5.52857C47.9102 5.19176 48.1714 4.86944 48.3148 4.41936C48.4357 4.03758 48.6105 3.68408 48.787 3.32727C48.9876 2.92186 49.1902 2.51217 49.3182 2.05185C49.3333 1.9976 49.3337 1.94037 49.3192 1.88617C49.3048 1.83196 49.2761 1.78279 49.236 1.74381ZM41.6436 6.95711L40.7576 6.97765C40.5776 6.98156 40.5336 6.90626 40.6256 6.75175C41.048 6.04962 41.4587 5.37486 41.8577 4.72749C41.9633 4.55537 42.0249 4.35784 42.0425 4.13487C42.0543 3.9921 42.1032 3.864 42.1892 3.75056L43.0048 2.67975C43.1515 2.48613 43.3432 2.36291 43.5798 2.3101L44.3602 2.13995C44.6203 2.08323 44.6829 2.17026 44.5479 2.40105C44.1353 3.10514 43.7431 3.73882 43.3715 4.3021C43.2122 4.54106 43.2127 4.74627 43.2133 5.00642V5.00673V5.00705V5.00737C43.2134 5.04394 43.2135 5.08161 43.2131 5.1206C43.2131 5.22622 43.1808 5.32107 43.1163 5.40518L42.1071 6.72241C42.0522 6.79386 41.982 6.85205 41.9018 6.89267C41.8215 6.9333 41.7333 6.95532 41.6436 6.95711ZM19.1478 17.9379C19.9282 17.7971 20.6782 17.7404 21.398 17.7678L24.6045 13.6958C24.761 13.4963 24.716 13.4229 24.4696 13.4757C23.5816 13.6654 22.6321 13.7935 21.621 13.86C21.3999 13.8757 21.177 13.9089 20.9521 13.9598C20.7174 14.0126 20.4807 14.0634 20.2421 14.1123C20.0954 14.1436 20.0583 14.0938 20.1306 13.9627L20.6792 12.9858C20.7379 12.8821 20.8259 12.8284 20.9433 12.8244L22.3016 12.7775C22.3974 12.7736 22.4903 12.755 22.5803 12.7218C22.7602 12.6514 22.948 12.5966 23.1435 12.5575C23.3222 12.5209 23.4963 12.536 23.6646 12.5506C23.9827 12.5782 24.2802 12.6039 24.5488 12.2758C25.3546 11.2882 26.1653 10.2692 26.9809 9.2189C27.2566 8.8649 27.1803 8.7544 26.752 8.88739C26.4665 8.97736 26.1663 9.00865 25.8514 8.98127C25.7379 8.97149 25.6333 8.9979 25.5375 9.06048C25.4358 9.12502 25.3253 9.15338 25.206 9.14556C24.4647 9.10449 23.7743 9.20326 23.1347 9.44187C22.902 9.52792 22.8345 9.45653 22.9323 9.2277C23.0595 8.92651 23.2365 8.64585 23.4633 8.38573C23.5655 8.26853 23.7073 8.19241 23.8623 8.17157C24.1908 8.12952 24.5157 8.12043 24.8403 8.11135C25.2404 8.10015 25.64 8.08897 26.045 8.01608C26.3364 7.96132 26.6327 7.91633 26.9339 7.88113C27.0337 7.86939 27.1158 7.82441 27.1803 7.74618L30.8358 3.19011C31.0568 2.9163 30.9952 2.81166 30.6509 2.8762C30.0603 2.98964 29.3757 3.0757 28.5973 3.13437C28.568 3.13633 28.5475 3.15002 28.5357 3.17544C28.4966 3.26345 28.4301 3.2967 28.3362 3.27519C27.8688 3.17544 27.5255 3.28301 27.3065 3.5979C27.2576 3.66831 27.1921 3.70938 27.1099 3.72112L22.5539 4.40467C22.2606 4.44794 21.9963 4.60378 21.8175 4.83886C20.8748 6.07689 19.9184 7.28754 18.9483 8.47081C18.8408 8.6038 18.7694 8.75244 18.7342 8.91673C18.7068 9.05364 18.7586 9.09764 18.8897 9.04875L19.1097 8.9666C19.4422 8.84534 19.5175 8.93629 19.3356 9.23944C17.5695 12.1732 15.7115 15.2937 13.7615 18.6009C13.7068 18.6929 13.7165 18.7682 13.7909 18.8268C13.871 18.8875 13.9512 18.8884 14.0314 18.8298C14.2485 18.6713 14.402 18.6264 14.492 18.6948C15.9315 18.29 17.3631 18.0885 18.787 18.0905C18.8723 18.0905 18.955 18.0616 19.0217 18.0083C19.0745 17.9673 19.1165 17.9438 19.1478 17.9379ZM12.7259 21.1387C12.0336 21.0722 11.3647 21.1788 10.7192 21.4584C10.6488 21.4878 10.5941 21.5367 10.555 21.6051C10.5158 21.6755 10.4572 21.6794 10.3789 21.6169C10.3105 21.5621 10.2362 21.5533 10.156 21.5905L7.87061 22.6671C7.77868 22.7102 7.71414 22.7796 7.67698 22.8754C7.632 22.9908 7.5479 23.0534 7.42468 23.0632C7.32885 23.071 7.24377 23.1062 7.16945 23.1688L6.40668 23.823C5.10411 24.8694 4.13598 26.1299 3.5023 27.6046C3.15905 28.4084 2.7454 30.198 3.73113 30.7378C4.33548 31.0664 4.94373 31.1896 5.5559 31.1074C6.80176 30.9431 8.07108 30.6087 9.36387 30.1041C11.703 29.1888 13.9649 28.0407 16.1496 26.6599C16.617 26.3626 16.574 26.2081 16.0205 26.1964C15.5745 26.1876 14.6915 26.0233 14.4861 25.5304C14.4678 25.4876 14.46 25.4411 14.4632 25.3946C14.4665 25.3482 14.4807 25.3032 14.5048 25.2634C14.5289 25.2235 14.5621 25.19 14.6017 25.1655C14.6413 25.141 14.6862 25.1264 14.7326 25.1227C17.2262 24.9251 19.5488 24.1242 21.7002 22.7199C21.7181 22.7083 21.7388 22.7015 21.7601 22.7001C21.7814 22.6987 21.8028 22.7027 21.8222 22.7118C21.8415 22.7209 21.8583 22.7347 21.8708 22.7521C21.8833 22.7694 21.8912 22.7896 21.8938 22.8109C21.9055 22.9048 21.8879 22.9928 21.841 23.0749C20.0778 26.1553 17.326 28.4554 14.2661 30.462C14.2387 30.4796 14.2143 30.4757 14.1928 30.4503L14.14 30.3828C14.1321 30.373 14.1321 30.3642 14.14 30.3564C15.0201 29.5428 15.8092 28.6842 16.5075 27.7806C16.6346 27.6163 16.7109 27.4462 16.7363 27.2701C16.7578 27.1156 16.7021 27.0785 16.5691 27.1587L14.9174 28.1532C14.3737 28.3292 13.915 28.6001 13.5415 28.9658L12.2653 29.6494C11.7118 29.7863 11.1974 30.0259 10.7222 30.3681C10.4718 30.3936 10.3173 30.4601 10.2587 30.5676C9.93594 30.5794 9.65529 30.6713 9.41668 30.8434C8.84362 30.9979 8.29404 31.1808 7.76793 31.392C7.49216 31.5035 7.20856 31.5749 6.91715 31.6062C6.61204 31.6355 6.30107 31.6873 5.98423 31.7617C4.88995 32.0198 3.71353 32.143 2.66619 31.7382C2.31806 31.6032 1.96699 31.4683 1.61299 31.3333C-0.329136 29.7521 1.12892 27.2408 2.44323 25.8355C4.00788 24.1633 5.85221 22.7855 7.97622 21.7019C8.04272 21.6687 8.11215 21.653 8.18451 21.655C8.20994 21.655 8.23634 21.654 8.26373 21.6521C8.29502 21.6501 8.32338 21.6413 8.3488 21.6257C8.85731 21.2971 9.37071 21.0868 9.889 20.9949C10.1081 20.9577 10.3261 20.8834 10.5432 20.7719C10.7584 20.6605 10.9862 20.5842 11.2268 20.5431C11.4791 20.5001 11.7304 20.4355 11.9807 20.3495C12.0724 20.317 12.1716 20.3129 12.2653 20.3378C12.4492 20.3867 12.6115 20.3505 12.7523 20.2292C12.8266 20.1647 12.9117 20.1324 13.0075 20.1324C13.1562 20.1344 13.299 20.1089 13.4359 20.0561C13.9972 20.0757 14.5536 20.0385 15.1052 19.9446C15.8034 19.8253 16.352 19.7667 16.751 19.7686C18.5484 19.7764 20.3546 19.7598 22.1695 19.7187L29.1987 20.7191C29.2727 20.7296 29.3482 20.7179 29.4155 20.6855C29.4829 20.6531 29.5391 20.6015 29.5772 20.5373L33.9162 13.2382C33.9866 13.1189 33.9533 13.0455 33.8164 13.0181C33.7558 13.0064 33.7 13.022 33.6492 13.0651C33.4869 13.2 33.3451 13.1902 33.2238 13.0357C33.2028 13.0101 33.1914 12.9779 33.1914 12.9448C33.1914 12.9116 33.2028 12.8795 33.2238 12.8538C34.4032 11.4163 35.4837 10.0756 36.4656 8.83171C36.5047 8.78282 36.5457 8.73588 36.5888 8.6909C36.7237 8.54812 36.8274 8.49531 36.8997 8.53247C36.9271 8.54617 36.9565 8.55105 36.9878 8.54714L40.3879 8.00441C40.5581 7.97702 40.5992 8.03765 40.5112 8.1863L37.9706 12.4373C37.8082 12.7091 37.8845 12.8265 38.1994 12.7893L40.2325 12.5487C40.5102 12.5155 40.7204 12.3786 40.8632 12.138L43.527 7.65529C43.5798 7.56532 43.6581 7.51545 43.7617 7.50567C44.9567 7.39615 46.1224 7.21719 47.2587 6.9688C47.2849 6.96312 47.312 6.9653 47.3369 6.97506C47.3618 6.98483 47.3833 7.00177 47.3988 7.02382C47.4143 7.04587 47.4232 7.0721 47.4244 7.0993C47.4256 7.12651 47.419 7.15353 47.4054 7.1771L41.667 16.829C41.534 17.0539 41.5976 17.1537 41.8577 17.1283L42.1159 17.1019C42.3936 17.0745 42.5921 16.9337 42.7114 16.6794C43.3882 15.2419 44.3846 13.9569 45.7009 12.8245C47.1384 11.5865 48.3843 10.721 49.4385 10.2282C50.1817 9.88198 51.1244 9.70987 52.2666 9.71183C52.9296 9.71378 53.4205 9.91915 53.7393 10.3279C54.857 11.7713 53.5545 14.0508 52.5599 15.3534C52.493 15.4407 52.4042 15.5087 52.3027 15.5504C52.2012 15.5921 52.0905 15.6062 51.982 15.591C51.5517 15.5304 51.14 15.5509 50.7469 15.6526C50.344 15.7582 49.9538 15.8189 49.5763 15.8345C49.4093 15.8424 49.2273 15.8464 49.0374 15.8505L49.0373 15.8505C48.3068 15.8666 47.4583 15.8852 46.8832 16.1367C46.8069 16.1699 46.761 16.2276 46.7453 16.3098C46.7218 16.4388 46.7522 16.5572 46.8363 16.6647C46.8637 16.7015 46.8991 16.7316 46.9397 16.7529C46.9803 16.7742 47.0251 16.7862 47.0709 16.788C48.4048 16.8545 49.6966 16.6784 50.9464 16.2599C51.3708 16.1171 51.4422 16.2198 51.1606 16.5679L48.5495 19.7862C48.2503 19.8156 47.6186 19.9701 46.6544 20.2497C45.3088 20.637 44.0336 20.5333 42.8288 19.9388C42.2264 19.2777 42.0514 18.5228 42.3037 17.6739C42.333 17.5761 42.2978 17.5155 42.198 17.4921C42.1374 17.4784 42.0895 17.494 42.0543 17.539C41.1038 18.7614 40.1014 20.0014 39.0472 21.2589C38.9829 21.3366 38.8923 21.3887 38.792 21.4056C37.8747 21.566 36.9017 21.6755 35.8729 21.7342C35.6852 21.744 35.5502 21.8232 35.4681 21.9718C35.4575 21.9917 35.4519 22.0138 35.4516 22.0362C35.4513 22.0587 35.4564 22.0809 35.4664 22.101C35.4765 22.1211 35.4912 22.1385 35.5093 22.1518C35.5275 22.165 35.5486 22.1738 35.5708 22.1772C35.7721 22.2083 35.9789 22.2581 36.1872 22.3083C36.5495 22.3955 36.9163 22.4839 37.2665 22.4764C37.5774 22.4706 37.8718 22.5488 38.1495 22.7111C38.2375 22.7639 38.3334 22.7884 38.437 22.7845C38.6404 22.7786 38.8292 22.8207 39.0032 22.9106C39.2653 23.0456 39.4355 23.1238 39.5137 23.1453C42.0504 23.8494 44.5714 24.5437 47.0768 25.2283C47.5756 25.4727 48.0753 25.5881 48.576 25.5744C53.3286 26.7157 57.7966 25.4014 60.7978 21.5288C61.3807 20.7759 61.8051 20.0121 62.0711 19.2376C62.1036 19.1412 62.1111 19.0379 62.0927 18.9378C62.0742 18.8377 62.0306 18.744 61.9658 18.6657C61.9011 18.5875 61.8174 18.5272 61.7228 18.4907C61.6283 18.4542 61.5259 18.4427 61.4256 18.4572L59.7769 18.6978C59.6889 18.7095 59.6693 18.7526 59.7182 18.8269C59.7456 18.866 59.7446 18.8963 59.7153 18.9178C59.6918 18.9354 59.6654 18.9472 59.6361 18.953C58.9085 19.0821 58.1839 19.1613 57.4622 19.1907C57.3639 19.1944 57.2678 19.162 57.1923 19.0997L56.94 18.8856C56.8363 18.7976 56.7239 18.7858 56.6026 18.8504C56.1606 19.0851 55.6961 19.133 55.2091 18.9941C55.201 18.9915 55.1936 18.9873 55.1874 18.9816C55.1812 18.9759 55.1763 18.969 55.1732 18.9613C55.1701 18.9537 55.1688 18.9455 55.1694 18.9375C55.1701 18.9295 55.1726 18.9217 55.1768 18.9149L61.3288 8.63809C61.4579 8.42295 61.3992 8.33885 61.1528 8.38579L60.9856 8.41512C60.788 8.45229 60.6374 8.55692 60.5338 8.72903L54.3524 19.0704C54.3156 19.1322 54.2602 19.181 54.1939 19.2099C54.1277 19.2389 54.0539 19.2465 53.9828 19.2317C53.6582 19.1621 53.4505 19.238 53.2308 19.3183C53.099 19.3665 52.9629 19.4162 52.7946 19.4371C52.1629 19.5153 51.5742 19.6122 51.0285 19.7275C51.0035 19.7331 50.9774 19.7311 50.9536 19.7218C50.9297 19.7125 50.9091 19.6962 50.8941 19.6751C50.8792 19.654 50.8707 19.6288 50.8695 19.6027C50.8684 19.5766 50.8747 19.5507 50.8877 19.528C52.9511 16.0878 55.0106 12.6504 57.0661 9.21603C57.1189 9.12997 57.1082 9.05272 57.0339 8.98427C57.0065 8.95689 56.9732 8.94515 56.9341 8.94906C56.8559 8.95689 56.7952 8.99013 56.7522 9.04881C56.6857 9.14269 56.6085 9.17887 56.5205 9.15736C56.3268 9.11042 56.2936 9.00969 56.4207 8.85518L59.5833 5.03255C59.7632 4.81545 59.993 4.6893 60.2727 4.6541L62.8221 4.31672C63.0548 4.28738 63.1096 4.37246 62.9864 4.57195L61.2672 7.39126C61.2574 7.4069 61.2604 7.42059 61.276 7.43233L61.3523 7.48514C61.4031 7.52034 61.4471 7.5135 61.4843 7.4646L63.8284 4.46341C63.9882 4.25647 64.2228 4.1197 64.4826 4.08202L67.073 3.70651C67.3312 3.66935 67.3938 3.76323 67.2608 3.98814L59.1872 17.5801C59.0405 17.8284 59.11 17.9712 59.3955 18.0084C59.8238 18.0641 60.3988 18.0524 60.8184 17.9204C61.7532 17.629 62.651 17.452 63.5115 17.3894C63.5977 17.383 63.6842 17.3981 63.7632 17.4331C63.8422 17.4682 63.9113 17.5222 63.9644 17.5904C64.0175 17.6586 64.053 17.7389 64.0676 17.8241C64.0823 17.9093 64.0757 17.9968 64.0484 18.0788C62.8749 21.6022 60.8858 24.9466 57.6646 26.8741C57.348 27.0641 57.0113 27.2024 56.6742 27.3408C56.4491 27.4333 56.2238 27.5259 56.0041 27.6339C55.7753 27.7474 55.5347 27.8207 55.2824 27.8539C53.5026 28.0945 51.7727 28.1737 50.0927 28.0916C49.8541 28.0818 49.6145 28.0759 49.3739 28.074C49.0464 28.0712 48.7337 27.9904 48.4223 27.9098C48.0698 27.8187 47.7188 27.7279 47.3497 27.7513C47.2519 27.7591 47.1609 27.7376 47.0768 27.6867C46.9556 27.6163 46.8294 27.5625 46.6984 27.5254C43.6356 26.6374 40.3381 25.5373 36.8059 24.2249C36.5653 24.135 36.3101 24.0646 36.0402 24.0137C35.8387 23.9746 35.6314 23.914 35.4182 23.8318C34.2193 23.3663 32.8512 22.9928 31.3139 22.7111C30.8798 22.6309 30.4465 22.6163 30.0143 22.6671C29.5293 22.7239 29.056 22.7884 28.5944 22.8608C28.5605 22.8662 28.5259 22.8629 28.4936 22.8513C28.4614 22.8396 28.4326 22.82 28.41 22.7942C28.3874 22.7684 28.3718 22.7373 28.3645 22.7037C28.3573 22.6702 28.3586 22.6354 28.3685 22.6026L28.5093 22.1361C28.5465 22.011 28.5005 21.9386 28.3714 21.919C28.0816 21.8743 27.7984 21.8423 27.5172 21.8105H27.5172L27.5172 21.8105C27.0983 21.7632 26.684 21.7164 26.2592 21.6286C24.364 21.2355 22.3348 20.9441 20.1717 20.7543C19.9331 20.7348 19.6935 20.7543 19.4529 20.813C19.1908 20.8776 18.9366 20.8707 18.6902 20.7925C18.076 20.593 17.4707 20.5725 16.8742 20.7309C16.5378 20.8208 16.1574 20.8551 15.733 20.8336C14.6084 20.7729 13.606 20.8746 12.7259 21.1387ZM49.2302 13.687L50.2775 13.6635C50.5552 13.6577 50.6921 13.5149 50.6882 13.2352L50.6853 13.068C50.6794 12.7433 50.5161 12.6113 50.1954 12.672C49.3974 12.8245 48.7324 13.069 48.2004 13.4054C47.7389 13.6968 47.778 13.8826 48.3178 13.9628C48.486 13.9882 48.7001 13.9227 48.9603 13.7662C49.0444 13.7154 49.1343 13.689 49.2302 13.687ZM33.3059 21.5083C33.4311 21.6178 33.5788 21.6462 33.7489 21.5934C33.8369 21.566 33.9171 21.5807 33.9895 21.6374C34.2262 21.8212 34.5215 21.9239 34.8755 21.9454C34.9713 21.9493 35.0437 21.9102 35.0926 21.8281L37.8972 17.1195C38.0459 16.8711 37.9784 16.7762 37.6948 16.8349C37.4757 16.8818 37.2596 16.919 37.0464 16.9464C36.8466 16.9734 36.657 17.0136 36.4699 17.0533C36.1074 17.1302 35.7542 17.2052 35.3537 17.1781C35.2481 17.1723 35.1679 17.2143 35.1131 17.3043C34.3269 18.5658 33.5612 19.842 32.816 21.1328C32.7417 21.2599 32.7544 21.3812 32.8542 21.4966C32.8767 21.5222 32.9086 21.5378 32.9427 21.54C32.9768 21.5422 33.0103 21.5308 33.036 21.5083C33.0654 21.4829 33.0996 21.4672 33.1387 21.4614C33.2013 21.4516 33.257 21.4672 33.3059 21.5083ZM12.9811 8.54421L12.9283 8.49141C12.9107 8.4738 12.9088 8.45425 12.9225 8.43273L14.5125 5.85106C14.6886 5.56747 14.6142 5.46283 14.2896 5.53715C13.2413 5.77381 12.1509 5.93223 11.0185 6.01241C10.9418 6.017 10.8668 6.03761 10.7981 6.07296C10.7295 6.1083 10.6686 6.15761 10.6195 6.21778L7.30732 10.3074C7.2844 10.336 7.27067 10.3709 7.26793 10.4075C7.26519 10.444 7.27358 10.4806 7.29198 10.5123C7.31038 10.544 7.33793 10.5695 7.37104 10.5852C7.40414 10.601 7.44125 10.6064 7.47748 10.6008L7.72098 10.5626C7.98892 10.5196 8.05249 10.6144 7.91167 10.8472L2.29066 20.2498C2.28031 20.2677 2.27513 20.2882 2.27577 20.3089C2.2764 20.3296 2.2828 20.3496 2.29422 20.3666C2.30564 20.3836 2.3216 20.3968 2.34021 20.4047C2.35882 20.4126 2.37929 20.4148 2.39921 20.4111C4.07339 20.1471 5.75832 19.9114 7.45401 19.7041C7.66524 19.6767 7.88038 19.6581 8.09943 19.6483C8.57664 19.6288 9.04799 19.4977 9.51348 19.2552C9.66799 19.175 9.83619 19.13 10.0181 19.1203C10.1843 19.1124 10.3427 19.0714 10.4933 18.9971C11.6923 18.4103 12.7142 17.6876 13.5591 16.829C14.4715 15.9049 16.0293 13.7574 15.4924 12.3845C15.475 12.344 15.4478 12.3086 15.4132 12.2818L14.8558 11.8446C14.7658 11.7742 14.7717 11.7136 14.8734 11.6628C15.5687 11.3195 16.9299 10.5245 17.3377 9.75877C17.5359 9.38697 17.8265 9.03722 18.1191 8.68507C18.6322 8.06748 19.1515 7.44253 19.1889 6.67837C19.228 5.83933 18.8183 5.39438 17.9597 5.34353C17.2732 5.30441 16.5886 5.30637 15.906 5.34939C15.8209 5.35496 15.7377 5.37814 15.6615 5.4175C15.5853 5.45686 15.5177 5.51157 15.4631 5.57822L13.0603 8.53835C13.0349 8.56964 13.0085 8.5716 12.9811 8.54421ZM12.8315 11.0261C12.6398 11.2667 12.3298 11.344 11.9015 11.2579L11.6932 11.3312C11.6502 11.3465 11.6034 11.3482 11.5594 11.336C11.5153 11.3238 11.4761 11.2984 11.4469 11.2632C11.4178 11.228 11.4002 11.1847 11.3965 11.1391C11.3928 11.0936 11.4032 11.048 11.4263 11.0085L12.2184 9.67076C12.2471 9.62237 12.2919 9.5856 12.345 9.56683C12.3981 9.54807 12.456 9.54852 12.5088 9.56808C12.679 9.63458 12.8599 9.64045 13.0515 9.58568C13.8456 9.36076 14.0441 9.60329 13.6471 10.3132C13.5102 10.5577 13.2383 10.7954 12.8315 11.0261ZM9.46654 14.3618C9.49979 14.35 9.52815 14.3422 9.55162 14.3383C9.87824 14.131 10.3085 14.0772 10.8425 14.177L11.13 14.2679C11.1733 14.2815 11.213 14.3045 11.2464 14.3352C11.2798 14.366 11.306 14.4037 11.3231 14.4458C11.3402 14.4878 11.3478 14.5331 11.3453 14.5785C11.3429 14.6238 11.3304 14.668 11.3089 14.708C11.0243 15.239 10.5608 15.726 9.92713 15.7494C9.63572 15.7612 9.34332 15.8306 9.04995 15.9577C8.61576 16.1474 8.51112 16.033 8.73604 15.6145L9.36386 14.4439C9.38733 14.4029 9.42156 14.3755 9.46654 14.3618Z" fill="#919EAB"/>
</svg>
