<svg xmlns="http://www.w3.org/2000/svg" width="52" height="40" fill="none"><g clip-path="url(#a)"><path fill="#919EAB" fill-rule="evenodd" d="m33.993 16.327 16.46.003a.08.08 0 0 1 .07.044.072.072 0 0 1-.008.078l-3.954 5.122a.394.394 0 0 1-.309.151l-12.185-.003c-.085 0-.127.043-.127.128v7.755c0 .152-.077.228-.23.228H19.863a.077.077 0 0 1-.057-.131 197.186 197.186 0 0 0 13.667-16.06 103.968 103.968 0 0 0 5.291-7.58 16.027 16.027 0 0 0 1.644-3.446.46.46 0 0 0-.115-.474c-.201-.192-.418-.235-.648-.127-.874.41-1.682.93-2.424 1.56a.187.187 0 0 1-.1.043c-.019.002-.026-.007-.024-.027 0-.011.004-.021.013-.03 1.2-1.133 4.145-3.627 5.436-3.533a.65.65 0 0 1 .579.467.658.658 0 0 1 .022.262c-.259 2.226-1.889 4.911-3.055 6.74a.128.128 0 0 0 .107.198h11.523a.077.077 0 0 1 .064.125l-4.232 5.485a.345.345 0 0 1-.286.138H36.168a.217.217 0 0 0-.178.09 134.057 134.057 0 0 1-2.037 2.714.05.05 0 0 0 .014.073.05.05 0 0 0 .026.007ZM15.338 29.833H.286c-.112 0-.168-.056-.168-.168V16.569c0-.132.065-.197.195-.195 6.328.02 12.859.015 19.593-.017 1.071-.004 1.622-.47 1.654-1.395v-.057c-.01-.928-.585-1.395-1.728-1.401-6.665-.05-13.185-.06-19.563-.03a.074.074 0 0 1-.06-.118L4.45 7.873a.354.354 0 0 1 .293-.14c4.46-.005 8.972-.007 13.54-.004 1.562.003 2.86.14 4.604.356.28.034.837.227 1.671.582 2.4 1.017 3.57 2.79 3.513 5.317-.047 2.024-.964 3.48-2.75 4.367-.164.08-.16.15.01.211.704.25 1.345.671 1.923 1.268a.15.15 0 0 1 .006.201 142.526 142.526 0 0 1-13.015 13.6A75.347 75.347 0 0 1 8.83 38.15c-.925.701-1.811 1.197-2.659 1.486a.665.665 0 0 1-.773-.263c-.884-1.34 2.333-5.677 3.21-6.732.023-.025.046-.027.071-.007h.003c.036.029.04.061.01.097-.78.99-1.401 2.074-1.865 3.25a.514.514 0 0 0 .585.693c.25-.051.486-.149.706-.292 2.583-1.676 5.018-3.796 7.304-6.36.114-.125.086-.188-.084-.188Zm-8.346-8.635v2.83a.104.104 0 0 0 .104.104h12.793c.24 0 .477-.037.699-.108.221-.072.422-.176.592-.308.17-.132.304-.29.395-.462.092-.172.14-.357.14-.544v-.195c0-.186-.048-.371-.14-.544a1.456 1.456 0 0 0-.395-.461 1.923 1.923 0 0 0-.592-.308 2.281 2.281 0 0 0-.699-.109H7.096a.104.104 0 0 0-.104.105Zm14.564 15.018.35.007c.152.002.234.078.245.229.025.342.005.666-.06.971a.653.653 0 0 1-.7.518c-.436-.04-.672-.261-.705-.663-.074-.887-.078-1.907-.01-3.058a.654.654 0 0 1 .53-.605c.723-.142 1.06.46.959 1.092a.178.178 0 0 0 .04.147.185.185 0 0 0 .141.065h.084a.235.235 0 0 0 .236-.222c.127-1.916-2.36-2.047-2.485-.407a23.267 23.267 0 0 0-.033 2.72c.04 1.038.783 1.697 1.822 1.17a.234.234 0 0 1 .262.02l.121.087c.188.137.282.088.282-.145v-2.134c0-.137-.07-.204-.208-.202l-.931.024c-.08.002-.131.041-.151.117a.202.202 0 0 0 .01.142c.04.085.107.127.201.127Zm5.506.958-.195.982a.206.206 0 0 1-.076.126.213.213 0 0 1-.142.045l-.121-.006c-.119-.007-.166-.07-.141-.189l.991-4.722a.27.27 0 0 1 .172-.199c.23-.085.37-.01.42.226.34 1.575.67 3.137.988 4.685.03.141-.03.209-.175.202l-.171-.007c-.076-.004-.121-.045-.135-.12l-.181-1.023c-.025-.139-.107-.208-.245-.208l-.74.003c-.139 0-.222.069-.249.205Zm.743-2.487c-.078-.383-.157-.383-.235 0l-.336 1.617c-.034.159.031.24.195.242l.49.003c.175.002.246-.083.212-.255l-.326-1.607Zm6.787 3.2c.23-.722.409-1.595.534-2.619.011-.083.058-.122.141-.117l.088.006c.015 0 .023.007.023.02.023.984.057 1.966.104 2.945.007.123.072.183.195.178l.108-.003c.099-.005.146-.055.141-.151l-.141-4.767a.177.177 0 0 0-.118-.171c-.224-.088-.358-.034-.403.161a96.603 96.603 0 0 1-.854 3.419c-.134.502-.24.495-.32-.02a27.59 27.59 0 0 0-.786-3.47c-.042-.145-.147-.189-.312-.13a.22.22 0 0 0-.152.208l-.134 4.77c-.002.096.045.145.141.148l.148.006c.085.003.132-.039.141-.124.083-.973.098-1.95.044-2.935-.002-.056.025-.087.08-.094l.091-.01c.014-.002.022.004.024.017.21 1.022.428 1.93.652 2.723.18.634.367.637.565.01Zm5.869-2.42.917-.014a.093.093 0 0 1 .068.029.095.095 0 0 1 .026.069l-.013.225a.094.094 0 0 1-.098.087l-.9-.017a.092.092 0 0 0-.07.027.095.095 0 0 0-.028.068l-.003 1.848a.094.094 0 0 0 .094.094l1.217.01a.095.095 0 0 1 .09.101l-.02.229a.094.094 0 0 1-.094.084l-1.684.003a.094.094 0 0 1-.094-.094l.003-4.924a.094.094 0 0 1 .094-.094l1.701-.004a.094.094 0 0 1 .094.101l-.016.232a.094.094 0 0 1-.094.087l-1.194.007a.094.094 0 0 0-.094.094v1.657a.094.094 0 0 0 .06.089.094.094 0 0 0 .038.006Zm5.553-1.648a.655.655 0 0 1 .312-.16c.713-.145.857.382.998.903a.12.12 0 0 0 .126.09.12.12 0 0 0 .052-.016l.095-.053c.132-.077.179-.189.14-.337-.57-2.198-3.606-.595-1.888 1.05.482.463.93.938 1.344 1.424a.684.684 0 0 1 .145.602c-.096.421-.333.623-.71.605-.495-.027-.776-.345-.843-.955a.127.127 0 0 0-.182-.1l-.11.05c-.126.058-.173.155-.142.29.528 2.292 3.6.8 2.078-.952-.43-.493-.906-.99-1.426-1.49a.655.655 0 0 1 .011-.951Z" clip-rule="evenodd"/></g><defs><clipPath id="a"><path fill="#fff" d="M.118.001h51.765v40H.118z"/></clipPath></defs></svg>