<svg xmlns="http://www.w3.org/2000/svg" width="138" height="24" fill="none"><path fill="#00AB55" d="M9.304 6.456H7.715v4.226H9.44c.609 0 1.048-.203 1.42-.575.406-.406.507-.98.507-1.521.034-.575-.101-1.183-.507-1.589-.406-.406-.879-.54-1.555-.54ZM9.811 17.34c.541 0 1.15-.1 1.521-.506.406-.44.507-1.082.541-1.69 0-.609-.067-1.217-.405-1.724-.305-.44-.846-.609-1.42-.609H7.783v4.53h2.028Z"/><path fill="#00AB55" fill-rule="evenodd" d="M17.856 23.797H1.226c-.541 0-1.015-.473-1.015-1.048V1.014A.996.996 0 0 1 1.225 0h16.631a.996.996 0 0 1 1.014 1.014v21.77a.996.996 0 0 1-1.014 1.013Zm-5.172-12.203c.778.17 1.454.609 1.86 1.285.405.676.608 1.386.608 2.298 0 1.521-.44 2.705-1.318 3.448-.913.812-2.13 1.217-3.347 1.217H4.808V3.99h5.037c1.352 0 2.501.338 3.482 1.081.98.744 1.386 1.927 1.386 3.212 0 .676-.17 1.386-.507 1.994-.338.608-.88 1.048-1.522 1.318Z" clip-rule="evenodd"/><path fill="#00AB55" d="M38.611 0h-1.014v23.763h1.014V0ZM58.386 0h-1.115v23.763h1.115V0ZM137.518 23.797h-1.115V0h1.115v23.797ZM117.71 0h-1.115v23.763h1.115V0ZM77.079 0h1.082v23.763h-1.082V0ZM97.936 0H96.82v23.763h1.116V0Z"/><path fill="#00AB55" fill-rule="evenodd" d="m42.025 19.808 4.901-15.82h2.13l4.834 15.82h-2.231l-1.15-3.988h-5.07l-1.15 3.988h-2.264ZM47.907 7.2l-1.995 6.896h4.023L47.975 7.2h-.068Z" clip-rule="evenodd"/><path fill="#00AB55" d="M28.572 13.453v-1.69h4.901v5.747a5.046 5.046 0 0 1-1.758 1.724c-.946.574-2.028.777-3.11.777-1.487 0-2.974-.473-4.022-1.521-1.014-.98-1.521-2.468-1.521-4.327v-4.63c0-1.826.507-3.246 1.453-4.226.98-1.048 2.367-1.555 3.82-1.555 1.386 0 2.704.304 3.718 1.25.947.88 1.386 2.13 1.42 3.415v.067h-2.13c.034-.81-.236-1.656-.777-2.264-.54-.575-1.352-.778-2.197-.778-.879 0-1.724.372-2.265 1.082-.575.71-.811 1.69-.811 3.042v4.732c0 1.353.304 2.367.913 3.077.608.71 1.487 1.081 2.433 1.081.609 0 1.251-.101 1.758-.405.406-.237.676-.609.879-1.014v-3.584h-2.704ZM74.002 3.989h-2.907l-3.38 12.507-3.414-12.507h-2.84v15.82h2.198v-6.085l-.17-6.085h.035l3.448 12.17h1.487l3.448-12.17h.067l-.203 6.085v6.084h2.231V3.988ZM110.307 3.989h2.197v15.82h-2.197l-5.983-11.764h-.102v11.763h-2.197V3.988h2.197l5.983 11.764.102-.034V3.988ZM91.208 3.989h-7.47v1.69h2.637v12.338h-2.637v1.791h7.47v-1.757h-2.636V5.713h2.636V3.989ZM127.377 11.763v1.69h2.705v3.55c-.203.405-.474.777-.879 1.014-.507.304-1.149.405-1.758.405-.946 0-1.825-.371-2.434-1.081-.608-.71-.912-1.724-.912-3.076V9.532c0-1.352.236-2.332.811-3.042.541-.71 1.386-1.082 2.265-1.082.845 0 1.656.203 2.197.778.541.608.811 1.453.777 2.265h2.13v-.068c-.034-1.284-.473-2.535-1.42-3.414-1.014-.946-2.332-1.25-3.718-1.25-1.454 0-2.84.506-3.82 1.554-.946.98-1.453 2.4-1.453 4.226v4.664c0 1.86.507 3.347 1.521 4.327 1.048 1.048 2.535 1.521 4.022 1.521 1.082 0 2.164-.203 3.11-.777a5.05 5.05 0 0 0 1.758-1.724v-5.747h-4.902Z"/></svg>