<svg width="106" height="28" viewBox="0 0 106 28" fill="none" xmlns="http://www.w3.org/2000/svg">
<g clip-path="url(#clip0_4416_8583)">
<path d="M8.76357 11.8172C8.41137 11.0072 7.19628 10.9015 6.66798 11.5531C6.45711 11.8756 6.4734 12.2593 6.48916 12.6302C6.49577 12.7859 6.50229 12.9394 6.49187 13.0852C6.66643 13.0799 6.84098 13.0841 7.01506 13.0883C7.42053 13.0982 7.8234 13.108 8.21766 12.9971C8.71074 12.8738 8.90445 12.2575 8.76357 11.8172Z" fill="#00AB55"/>
<path d="M7.13506 14.7764C6.91941 14.7812 6.70412 14.7861 6.49187 14.7757V17.2588C7.14345 17.5933 7.90068 17.5405 8.58747 17.4525C9.59125 17.1003 9.66168 15.3569 8.65791 14.9518C8.17301 14.7529 7.653 14.7647 7.13506 14.7764Z" fill="#00AB55"/>
<path fill-rule="evenodd" clip-rule="evenodd" d="M26.0743 10.5494C24.3485 4.26258 18.2906 0.282708 11.9686 1.26887C9.94344 1.60346 8.02395 2.39592 6.40382 3.62862C0.7686 7.83742 -0.446495 15.9204 3.69187 21.6613C5.40005 20.9041 7.28432 20.6576 9.11577 20.7104C10.8239 20.7565 12.5079 21.0157 14.1905 21.2747C15.717 21.5096 17.2424 21.7444 18.7837 21.8198C20.7208 21.9079 22.746 21.767 24.5422 20.9393C26.5145 17.928 27.0252 14.0186 26.0743 10.5494ZM13.41 2.93433C13.5622 2.45888 13.7132 1.98715 13.8705 1.51541C14.02 1.99592 14.1759 2.47642 14.3345 2.96477L14.3346 2.96514C14.4374 3.28207 14.5414 3.6023 14.6453 3.92799C14.9212 3.92799 15.1971 3.92604 15.473 3.92408H15.4736C16.0252 3.92017 16.5768 3.91626 17.1283 3.92799C16.4593 4.43855 15.7903 4.93152 15.1213 5.42448L15.1208 5.42485C15.2441 5.82107 15.3717 6.2217 15.4994 6.62233C15.6271 7.02296 15.7548 7.42359 15.878 7.81981L13.8705 6.34057L11.8629 7.81981C12.0032 7.35894 12.1492 6.90378 12.2944 6.45107L12.2945 6.45068C12.4044 6.1078 12.5139 5.76632 12.6202 5.42485C11.951 4.91415 11.2818 4.42107 10.6126 3.92799C11.2333 3.90158 11.8539 3.90488 12.4746 3.90818H12.4749C12.6818 3.90928 12.8887 3.91038 13.0956 3.91038C13.2025 3.58254 13.3066 3.25758 13.41 2.93433ZM7.99753 5.23995C8.03275 5.03744 8.06797 4.83492 8.112 4.6324C8.2881 5.01981 8.4642 5.38963 8.6403 5.7066L9.85539 5.54812C9.57363 5.82988 9.27426 6.12925 8.97489 6.41101C9.06294 6.59591 9.15099 6.78522 9.23904 6.97453C9.32709 7.16384 9.41514 7.35315 9.50319 7.53806C9.2372 7.41139 8.98032 7.2665 8.726 7.12305L8.72583 7.12297L8.72497 7.12249C8.62605 7.06669 8.52751 7.01112 8.42898 6.95692C8.12976 7.25614 7.83055 7.53775 7.53133 7.81936L7.5312 7.81949L7.53086 7.81981C7.57782 7.56157 7.62477 7.28767 7.67173 7.01377C7.69521 6.87681 7.71871 6.73972 7.74219 6.60472L6.66797 6.00598L7.88307 5.84749C7.92709 5.64497 7.96231 5.44246 7.99753 5.23995ZM17.8856 5.60095L19.1007 5.75944C19.2768 5.38963 19.4529 5.01981 19.629 4.66761C19.6747 4.8687 19.7109 5.07927 19.7475 5.29195C19.7814 5.48903 19.8156 5.6879 19.8579 5.88271L21.073 6.0412C20.8471 6.15953 20.6278 6.28443 20.411 6.40787L20.41 6.40844C20.2722 6.48689 20.1355 6.56474 19.9988 6.63994C20.0234 6.78133 20.0458 6.92487 20.0684 7.06905C20.1104 7.33787 20.1528 7.60904 20.2101 7.87265C20.0605 7.73179 19.9108 7.58655 19.7612 7.4413C19.6114 7.29598 19.4617 7.15066 19.312 7.00975L18.2378 7.59088C18.3258 7.40601 18.4139 7.21673 18.5019 7.02745C18.59 6.83811 18.678 6.64877 18.7661 6.46384C18.4668 6.1822 18.1852 5.90056 17.886 5.60134L17.8856 5.60095ZM4.30822 8.27768L4.25539 7.53806C4.41388 7.71416 4.57237 7.90786 4.71325 8.10157L5.40005 7.81981L5.01263 8.45378L5.47049 9.0173L4.76608 8.85881C4.6252 9.05252 4.50193 9.26384 4.37866 9.47516L4.32583 8.73554L3.62143 8.55944L4.30822 8.27768ZM22.3409 7.81981L23.0101 8.10157L23.4856 7.53806L23.4328 8.27768L24.1019 8.55944L23.3975 8.73554L23.3447 9.47516L22.9573 8.85881L22.2529 9.0173C22.3321 8.92044 22.4114 8.82799 22.4906 8.73554C22.5699 8.64309 22.6491 8.55063 22.7283 8.45378L22.3409 7.81981ZM4.22017 10.8135C4.60759 10.0915 5.34722 9.59843 6.12206 9.38711C6.94973 9.15818 7.81263 9.15818 8.6403 9.24623C9.92583 9.38711 11.0881 10.567 11.0705 11.923C11.1057 12.6802 10.6302 13.3494 10.0139 13.7368C10.6302 14.0186 11.2114 14.4764 11.4755 15.128C11.9686 16.2903 11.6868 17.7519 10.7535 18.5796C10.1548 19.1431 9.32709 19.3544 8.51703 19.4072C7.70697 19.4601 6.8969 19.5129 6.10445 19.3016C5.41766 19.1255 4.78369 18.8437 4.20256 18.4387C4.21011 17.344 4.20795 16.2526 4.20579 15.163V15.1628C4.20292 13.7108 4.20005 12.2622 4.22017 10.8135ZM11.4403 11.2714C11.1233 10.3733 10.5246 9.52799 9.60885 9.1934C10.582 9.1934 11.557 9.19535 12.5334 9.19731H12.5336C14.4902 9.20122 16.4521 9.20514 18.4139 9.1934C17.3573 9.5456 16.4944 10.3381 15.878 11.2714H14.7334V19.4248H12.6554V11.2714H11.4403ZM16.107 11.7821C16.6353 10.6903 17.551 9.88019 18.678 9.47516C20.2629 8.94686 22.1824 9.08774 23.4504 10.2676C23.2391 10.6549 23.0435 11.0422 22.8479 11.4296L22.8478 11.4298C22.7499 11.6235 22.6521 11.8173 22.5522 12.011C21.795 11.3594 20.756 10.9192 19.7522 11.1833C18.9422 11.3418 18.2906 11.9758 17.9736 12.7506C17.639 13.5959 17.5862 14.5292 17.7623 15.4274C17.9384 16.3079 18.5195 17.1531 19.3648 17.4877C20.1397 17.7695 21.0554 17.7695 21.7422 17.294V15.4274H20.4214V13.5607H23.8026V18.4387C22.9044 19.1783 21.7246 19.4953 20.5975 19.5833C19.4881 19.6714 18.2906 19.4425 17.3749 18.7204C16.4063 17.9632 15.8076 16.8186 15.6315 15.6035C15.4378 14.3179 15.5258 12.962 16.107 11.7821Z" fill="#00AB55"/>
<path d="M13.8343 21.7651C12.7137 21.5934 11.5936 21.4218 10.4717 21.3091C11.302 21.4988 12.1082 21.7685 12.912 22.0373C13.3017 22.1676 13.6908 22.2978 14.0818 22.4185C15.9837 23.0525 17.8856 23.6688 19.8755 23.933C20.5447 24.0034 21.2315 24.0738 21.9183 23.9506C22.7812 23.299 23.468 22.4713 24.1195 21.6084C23.2743 21.943 22.4114 22.1543 21.5309 22.2424C18.9477 22.5485 16.3901 22.1566 13.8343 21.7651Z" fill="#00AB55"/>
<path d="M12.2638 23.0416C10.8852 22.5885 9.50135 22.1336 8.05917 22.1015C9.30949 22.4009 10.4717 22.9996 11.5988 23.6512C12.2355 24.0304 12.8606 24.4212 13.4835 24.8106C14.3939 25.3798 15.2997 25.946 16.2302 26.4688C16.2801 26.4854 16.3281 26.5107 16.3761 26.536C16.4808 26.5911 16.585 26.6459 16.7057 26.6097C17.9736 26.3279 19.1535 25.8172 20.2806 25.1833C18.1248 25.0108 16.0863 24.3223 14.0503 23.6346C13.5915 23.4796 13.1328 23.3247 12.673 23.1757C12.5366 23.1313 12.4002 23.0865 12.2638 23.0416Z" fill="#00AB55"/>
<path d="M9.3271 24.9367C8.32332 24.4437 7.19628 24.2852 6.08684 24.2147C7.95351 25.6764 10.1724 26.5921 12.4969 26.8915C12.3674 26.8021 12.2382 26.7123 12.1089 26.6224C11.2187 26.0032 10.3266 25.3827 9.3271 24.9367Z" fill="#00AB55"/>
<path fill-rule="evenodd" clip-rule="evenodd" d="M27.5359 12.821C26.8843 5.12539 20.2453 -0.562657 12.6906 0.0889152C8.88685 0.441116 5.38245 2.37822 3.05792 5.44237C-1.59114 11.5531 -0.499313 20.3405 5.48811 25.0776C10.5598 29.0751 17.6919 28.9694 22.6403 24.7782C26.0919 21.855 27.9233 17.382 27.5359 12.821ZM0.645341 15.1103C0.0642091 7.67885 5.50572 1.16313 12.7963 0.564386C15.6843 0.335455 18.5372 1.05747 20.9497 2.62476C24.4541 4.91407 26.7258 8.71785 27.0604 12.9443C27.6416 20.3933 22.2177 26.8914 14.9095 27.4902C7.61893 28.0889 1.22647 22.5417 0.645341 15.1103Z" fill="#00AB55"/>
<path fill-rule="evenodd" clip-rule="evenodd" d="M42.7158 12.9972C43.0328 13.279 43.3674 13.5607 43.7019 13.8425C43.5963 13.9217 43.4862 13.9966 43.3762 14.0714C43.2661 14.1463 43.156 14.2211 43.0504 14.3004C43.473 14.9872 43.4906 15.8677 43.1384 16.5897C42.751 17.2765 41.9762 17.6639 41.2013 17.6639C41.0938 17.6695 40.9845 17.6588 40.8751 17.6481C40.644 17.6255 40.4127 17.6028 40.1975 17.7343C40.0567 17.7872 39.8453 17.9985 40.0743 18.1041C40.2691 18.1876 40.4859 18.1502 40.6987 18.1134C40.7551 18.1036 40.8114 18.0939 40.8667 18.0865C41.624 17.9456 42.4868 17.928 43.156 18.3507C43.9661 18.9318 43.8604 20.3054 43.0328 20.8161C41.6416 21.7142 39.7397 21.5557 38.3837 20.64L38.384 20.6397C38.6833 20.2876 38.9825 19.9355 39.2818 19.601C40.0391 20.2702 41.1837 20.4639 42.0818 19.9708C42.2931 19.8651 42.3636 19.601 42.2579 19.3897C42.2051 19.3016 42.117 19.2136 42.0114 19.1783C41.5682 19.0435 41.1198 19.0931 40.6719 19.1426C40.301 19.1836 39.9305 19.2245 39.5636 19.1607C39.1233 19.1255 38.6302 18.8614 38.595 18.3683C38.507 17.84 38.9648 17.4702 39.3699 17.2412C38.3661 16.6777 38.0315 15.1809 38.7535 14.2651C39.546 13.2261 41.0604 13.1205 42.1875 13.6136L42.7158 12.9972ZM40.4089 14.5117C39.7221 14.7758 39.6164 15.7972 40.1095 16.2727C40.4265 16.5897 40.9196 16.6249 41.3246 16.5016C41.9409 16.2727 42.0994 15.3746 41.7472 14.8639C41.4655 14.4236 40.8667 14.3356 40.4089 14.5117Z" fill="#00AB55"/>
<path fill-rule="evenodd" clip-rule="evenodd" d="M104.281 13.596C104.369 13.4991 104.461 13.3978 104.554 13.2966C104.646 13.1953 104.738 13.0941 104.826 12.9972C105.143 13.279 105.478 13.5607 105.813 13.8425C105.707 13.9217 105.597 13.9966 105.487 14.0714C105.377 14.1463 105.267 14.2211 105.161 14.3004C105.531 14.9167 105.601 15.6915 105.337 16.3607C105.055 17.0299 104.457 17.5054 103.735 17.6111C103.488 17.658 103.242 17.6424 102.995 17.6267C102.872 17.6189 102.748 17.6111 102.625 17.6111C102.597 17.6205 102.567 17.6296 102.535 17.6391C102.334 17.6998 102.095 17.7721 102.079 18.0161C102.256 18.2078 102.507 18.1649 102.739 18.1251C102.785 18.1174 102.829 18.1099 102.872 18.1041C103.629 17.9456 104.474 17.9104 105.179 18.3155C105.989 18.7909 106.006 20.1117 105.302 20.6928C104.598 21.2739 103.682 21.45 102.801 21.4148C101.974 21.3796 101.164 21.1155 100.477 20.64C100.528 20.5792 100.58 20.519 100.632 20.4591C100.675 20.409 100.718 20.3593 100.761 20.3096C100.964 20.0741 101.165 19.8417 101.357 19.601C101.886 20.0588 102.572 20.2878 103.259 20.2349C103.288 20.231 103.318 20.2271 103.348 20.2232C103.719 20.1748 104.157 20.1178 104.369 19.7595C104.492 19.4601 104.21 19.1607 103.928 19.1431C103.562 19.0908 103.19 19.1273 102.817 19.1638C102.313 19.2132 101.809 19.2626 101.322 19.0903C100.935 19.0022 100.671 18.65 100.671 18.245C100.653 17.7695 101.093 17.4526 101.445 17.2412C100.442 16.6953 100.107 15.1809 100.829 14.2651C101.657 13.2261 103.171 13.1029 104.281 13.596ZM102.502 14.5117C101.745 14.811 101.727 16.0438 102.414 16.4136C102.872 16.6601 103.559 16.6073 103.858 16.1318C104.104 15.6916 104.104 15.0752 103.735 14.7054C103.435 14.3884 102.907 14.3532 102.502 14.5117Z" fill="#00AB55"/>
<path d="M54.9372 13.9129C55.8353 13.0677 57.3321 13.1557 58.2655 13.9129C59.0931 13.2261 60.3787 13.1029 61.2944 13.684C61.8227 14.0362 62.0692 14.6878 62.0692 15.3041V19.1607H60.6604V15.6563C60.6604 15.3041 60.6076 14.8991 60.3258 14.6702C59.7975 14.2651 58.9523 14.4412 58.6177 15.0048C58.5975 15.7995 58.6004 16.5885 58.6033 17.3784V17.3794C58.6054 17.9718 58.6076 18.5646 58.6001 19.1607H57.1912C57.1912 18.7322 57.1932 18.3037 57.1952 17.8752V17.8743C57.1991 17.0176 57.203 16.1609 57.1912 15.3041C57.2089 14.5469 56.2403 14.2475 55.6768 14.5821C55.6586 14.5943 55.6394 14.6066 55.6196 14.6191C55.6061 14.6276 55.5923 14.6362 55.5783 14.645C55.3753 14.772 55.1309 14.925 55.1309 15.1809C55.1192 16.0601 55.123 16.9393 55.1269 17.8237C55.1289 18.2678 55.1309 18.7133 55.1309 19.1607H53.7221V13.4375H54.6906L54.9372 13.9129Z" fill="#00AB55"/>
<path fill-rule="evenodd" clip-rule="evenodd" d="M63.3372 14.3356C64.3762 13.1205 66.3309 12.9972 67.5812 13.9658C68.3913 14.5997 68.6906 15.7444 68.3913 16.7129H64.0768C64.1296 17.2765 64.4466 17.8224 64.9749 17.9985C65.7145 18.2626 66.6302 18.1922 67.2818 17.6639C67.3378 17.7702 67.3955 17.8783 67.4539 17.9876C67.5793 18.2223 67.7076 18.4626 67.8277 18.7029C67.0001 19.2664 65.9611 19.3192 64.9925 19.2312C64.0416 19.1431 63.1082 18.4739 62.7913 17.523C62.4391 16.4664 62.5623 15.1809 63.3372 14.3356ZM65.0277 14.5469C64.5347 14.7054 64.2529 15.1985 64.1296 15.6916H67.0881C67.0001 15.3217 66.912 14.9519 66.595 14.723C66.1548 14.406 65.5384 14.3884 65.0277 14.5469Z" fill="#00AB55"/>
<path fill-rule="evenodd" clip-rule="evenodd" d="M77.2491 13.6488C78.2529 13.2438 79.3799 13.2085 80.4189 13.5607C81.0177 13.7721 81.4227 14.3532 81.5284 14.9695C81.6516 15.5551 81.6491 16.1406 81.6465 16.7261C81.6447 17.1444 81.6428 17.5626 81.6869 17.9809C81.7221 18.3331 81.8806 18.65 82.1271 18.879C81.8806 19.2488 81.4227 19.3192 81.0177 19.2312C80.7066 19.1448 80.5312 18.8717 80.3749 18.6286L80.3661 18.6148C79.9787 19.0551 79.3623 19.2312 78.7988 19.2664C78.1824 19.284 77.5309 19.1607 77.073 18.7029C76.5975 18.2274 76.5271 17.4526 76.7208 16.8186C76.9145 16.1846 77.4957 15.7796 78.112 15.5683C78.7988 15.357 79.5208 15.3041 80.2428 15.4274C80.19 15.0752 80.0491 14.7054 79.6969 14.5821C79.0101 14.318 78.2177 14.4236 77.5485 14.6878C77.4428 14.3532 77.3372 14.001 77.2491 13.6488ZM78.4114 16.6953C77.9183 16.9947 77.8831 17.9104 78.4642 18.1217C78.9397 18.2626 79.5384 18.245 79.9435 17.8928C80.244 17.5923 80.2421 17.1639 80.2403 16.7492C80.2399 16.6537 80.2395 16.5588 80.2428 16.4664C79.6265 16.3783 78.9397 16.3607 78.4114 16.6953Z" fill="#00AB55"/>
<path d="M83.8177 13.9129C84.6982 13.0677 86.2126 13.1557 87.1284 13.9129C87.956 13.2261 89.2416 13.1029 90.1397 13.684C90.668 14.0362 90.9321 14.6878 90.9145 15.3041C90.9262 16.1597 90.9224 17.0154 90.9185 17.8762V17.8765C90.9165 18.3089 90.9145 18.7427 90.9145 19.1783H89.5057V15.6739C89.5057 15.3217 89.4529 14.9167 89.1711 14.6702C88.6428 14.2651 87.7975 14.4412 87.4453 15.0048C87.4252 15.7995 87.4281 16.5885 87.431 17.3784V17.3787C87.4331 17.9713 87.4353 18.5644 87.4277 19.1607H86.0189C86.0114 18.6098 86.0135 18.0588 86.0157 17.5079C86.0186 16.7733 86.0214 16.0387 86.0013 15.3041C86.0013 14.5469 85.0328 14.2475 84.4692 14.5821C84.4386 14.6026 84.4053 14.6234 84.3708 14.645C84.1678 14.772 83.9233 14.925 83.9233 15.1809V19.1607H82.5145V13.4375H83.4831C83.624 13.596 83.7296 13.7544 83.8177 13.9129Z" fill="#00AB55"/>
<path d="M96.0038 13.9482C96.6906 13.2614 97.7824 13.1909 98.6629 13.4727C99.4554 13.7368 99.9837 14.5293 100.019 15.3746C100.039 16.0988 100.036 16.823 100.033 17.5472V17.5482C100.031 18.0916 100.029 18.635 100.037 19.1783H98.6277V15.7972C98.6277 15.357 98.5221 14.8463 98.117 14.6173C97.4655 14.2828 96.673 14.4941 96.1799 14.9872C96.1682 15.9146 96.1721 16.8421 96.176 17.7695C96.178 18.2333 96.1799 18.697 96.1799 19.1607H94.7711V13.4375H95.7925C95.8453 13.6136 95.9158 13.7721 96.0038 13.9482Z" fill="#00AB55"/>
<path d="M35.5837 13.4375H37.785V19.1607H36.3585V14.5293H35.5837C35.5954 14.2951 35.5916 14.0532 35.5877 13.8087C35.5857 13.6854 35.5837 13.5614 35.5837 13.4375Z" fill="#00AB55"/>
<path d="M50.4466 13.4375H52.6479V19.1607H51.2214V14.5293H50.4466V13.4375Z" fill="#00AB55"/>
<path d="M91.4781 13.4375H93.6793V19.1607H92.2705V14.5293H91.4957C91.4781 14.1595 91.4781 13.8073 91.4781 13.4375Z" fill="#00AB55"/>
<path d="M71.0504 12.0111C71.8957 11.3595 73.0227 11.1482 74.0793 11.2186C74.7837 11.2714 75.4705 11.518 76.0516 11.9758C75.946 12.1607 75.8447 12.35 75.7435 12.5393C75.6422 12.7287 75.5409 12.918 75.4353 13.1029C74.7309 12.6274 73.8856 12.3104 73.0403 12.5217C72.1246 12.6802 71.4026 13.4727 71.2089 14.3708C71.0152 15.2337 71.0504 16.2022 71.5258 16.9771C72.2126 18.1041 73.868 18.4035 74.9422 17.6639V16.1142H73.7975V14.9167H76.4038V18.4387C75.5233 19.0551 74.4315 19.284 73.3925 19.284C72.3711 19.3016 71.2793 18.9494 70.5925 18.157C69.6768 17.1884 69.4479 15.762 69.6416 14.4589C69.7648 13.5079 70.2755 12.6098 71.0504 12.0111Z" fill="#00AB55"/>
<path fill-rule="evenodd" clip-rule="evenodd" d="M29.79 11.3243C30.1153 11.3172 30.4377 11.3044 30.7596 11.2917C31.2393 11.2727 31.7178 11.2538 32.2026 11.2538C32.907 11.2714 33.6466 11.3947 34.2101 11.835C34.756 12.2752 34.9674 13.05 34.7736 13.7192C34.6328 14.1947 34.2277 14.4941 33.8227 14.723C34.3686 14.9167 34.8969 15.2689 35.1258 15.8148C35.4604 16.5897 35.4076 17.5758 34.8089 18.2098C34.1925 18.879 33.2768 19.1431 32.4139 19.1431C31.8262 19.1549 31.2307 19.1509 30.6379 19.147L30.6359 19.147C30.3411 19.1451 30.047 19.1431 29.7548 19.1431L29.79 11.3243ZM31.2516 12.4513V14.318C31.3274 14.3204 31.4042 14.3239 31.4816 14.3274C31.9621 14.349 32.4672 14.3718 32.907 14.1595C33.4881 13.8953 33.5762 12.9444 33.0126 12.6274C32.5973 12.4059 32.1167 12.4238 31.6393 12.4416L31.639 12.4416C31.5092 12.4465 31.3796 12.4513 31.2516 12.4513ZM31.2516 15.4274V17.9985C31.2884 18.0006 31.3253 18.0027 31.3622 18.0049C31.9435 18.0391 32.5366 18.0739 33.0831 17.8752C34.0516 17.5758 34.0868 15.8677 33.1183 15.5683C32.605 15.3816 32.0369 15.4011 31.4744 15.4203C31.4 15.4228 31.3257 15.4253 31.2516 15.4274Z" fill="#00AB55"/>
<path d="M35.6013 11.3419H37.785V12.5746H35.5837C35.5837 12.3722 35.5881 12.1654 35.5925 11.9586L35.5925 11.9582C35.5969 11.7513 35.6013 11.5444 35.6013 11.3419Z" fill="#00AB55"/>
<path d="M44.1422 11.3243H49.9887V12.5746H48.2453V19.1607H46.7661V12.5746H44.1422V11.3243Z" fill="#00AB55"/>
<path d="M50.4466 12.5746V11.3419H52.6302V12.5746H50.4466Z" fill="#00AB55"/>
<path d="M91.4957 11.3419H93.6969V12.5746H91.5133C91.4957 12.1695 91.4957 11.7469 91.4957 11.3419Z" fill="#00AB55"/>
</g>
<defs>
<clipPath id="clip0_4416_8583">
<rect width="105.836" height="28" fill="white" transform="translate(0.0817871 0.000976562)"/>
</clipPath>
</defs>
</svg>
