<svg width="112" height="26" viewBox="0 0 112 26" fill="none" xmlns="http://www.w3.org/2000/svg">
<path d="M32.0065 0.000976562H33.728C34.3445 0.124617 34.7556 0.431646 34.9615 0.922065C35.0544 1.14332 35.1017 1.52636 35.1035 2.07121C35.1046 2.61723 35.1041 3.16356 35.1017 3.71018C35.0632 3.72852 35.0529 3.70397 35.0706 3.63653C35.0724 3.62883 35.0694 3.62588 35.0618 3.62765C35.0588 3.62824 35.0561 3.62795 35.0538 3.62676C35.0313 3.61967 35.0289 3.60813 35.0467 3.59216C35.052 3.58742 35.0582 3.58387 35.0653 3.58151C35.0674 3.58075 35.0692 3.57948 35.0707 3.57784C35.0721 3.5762 35.0731 3.57423 35.0736 3.57216C35.074 3.57008 35.0739 3.56796 35.0732 3.56602C35.0726 3.56407 35.0714 3.56238 35.0697 3.5611C35.0271 3.52856 35.0135 3.48686 35.0289 3.43598C35.0396 3.40108 35.0269 3.38363 34.9908 3.38363H32.1361C32.1222 3.38362 32.1086 3.38721 32.0965 3.39405C32.0844 3.40088 32.0742 3.41074 32.0669 3.42267L32.0003 3.53359L32.0065 0.000976562Z" fill="#919EAB"/>
<path d="M47.342 3.84417L47.2782 3.44131C47.2722 3.40226 47.2492 3.38274 47.2089 3.38274L44.2664 3.3854C44.2439 3.3854 44.2327 3.37416 44.2327 3.35168V3.30288C44.2328 3.29811 44.2315 3.29341 44.229 3.28935C44.2265 3.28528 44.2229 3.28203 44.2186 3.27997C44.2143 3.27791 44.2095 3.27713 44.2047 3.27774C44.2 3.27834 44.1955 3.28029 44.1919 3.28336C44.1795 3.29341 44.1673 3.31027 44.1555 3.33394L44.1564 0.109239C44.1564 0.0696037 44.1762 0.0497858 44.2158 0.0497858C44.7554 0.0444616 45.2854 0.0432784 45.806 0.0462363C46.4352 0.0497858 47.0368 0.433129 47.2551 1.02944C47.3131 1.18858 47.3426 1.45242 47.3438 1.82097C47.3456 2.49478 47.345 3.16918 47.342 3.84417Z" fill="#919EAB"/>
<path d="M92.5757 0.0516376C93.3166 0.0631734 93.9493 0.699417 94.0221 1.37648C94.0528 1.66458 94.059 2.03905 94.0407 2.49989C94.0395 2.53597 94.0209 2.55402 93.9848 2.55402L90.8968 2.55313C90.866 2.55313 90.8506 2.53804 90.8506 2.50787L90.8488 0.0702724C90.8488 0.0643887 90.8511 0.0587461 90.8551 0.0545858C90.8591 0.0504254 90.8645 0.0480881 90.8701 0.0480881C91.4594 0.0415808 92.0279 0.0427639 92.5757 0.0516376Z" fill="#919EAB"/>
<path d="M109.558 3.66137L111.334 3.66048C111.368 3.66048 111.385 3.67764 111.385 3.71195C111.381 4.25413 111.43 4.78389 111.092 5.22491C110.687 5.75378 110.201 5.85849 109.561 5.84696C109.526 5.84637 109.508 5.86352 109.508 5.89843C109.507 8.16358 109.508 10.4264 109.51 12.6868C109.51 13.1065 109.837 13.3585 110.251 13.3781C110.594 13.3946 110.951 13.3967 111.323 13.3843C111.363 13.3831 111.383 13.4026 111.383 13.4428L111.384 15.7314C111.385 15.7404 111.381 15.7492 111.375 15.7558C111.369 15.7624 111.361 15.7664 111.352 15.7669C110.298 15.8219 109.219 15.8062 108.116 15.7198C106.883 15.6231 106.357 14.7535 106.357 13.6168C106.358 9.11129 106.357 4.6008 106.356 0.085275C106.356 0.079606 106.357 0.0739939 106.359 0.0687675C106.361 0.0635411 106.364 0.0588056 106.368 0.0548386C106.372 0.0508715 106.377 0.0477528 106.383 0.0456652C106.388 0.0435777 106.393 0.0425632 106.399 0.0426813C106.772 0.0497802 107.235 0.0485971 107.789 0.0391318C108.045 0.0343992 108.26 0.0604286 108.435 0.11722C109.053 0.318653 109.5 0.922064 109.506 1.56896C109.511 2.23448 109.511 2.9145 109.506 3.60901C109.506 3.64392 109.523 3.66137 109.558 3.66137Z" fill="#919EAB"/>
<path d="M47.342 3.84429V9.25635L47.3145 8.75676C47.312 8.71424 47.2935 8.67428 47.2626 8.64508C47.2318 8.61587 47.191 8.59964 47.1486 8.5997L44.2664 8.60058C44.2584 8.60063 44.2507 8.60324 44.2443 8.60804C44.2379 8.61283 44.2332 8.61955 44.2309 8.6272C44.228 8.63549 44.2235 8.64288 44.2176 8.64939C44.2011 8.66654 44.1804 8.66891 44.1555 8.65649V3.33405C44.1673 3.31039 44.1795 3.29353 44.1919 3.28347C44.1955 3.2804 44.2 3.27845 44.2047 3.27785C44.2095 3.27725 44.2143 3.27803 44.2186 3.28009C44.2229 3.28214 44.2265 3.2854 44.229 3.28946C44.2315 3.29353 44.2328 3.29822 44.2327 3.30299V3.3518C44.2327 3.37428 44.2439 3.38552 44.2664 3.38552L47.2089 3.38286C47.2492 3.38286 47.2722 3.40238 47.2782 3.44142L47.342 3.84429Z" fill="#919EAB"/>
<path d="M43.3746 11.0967C43.3391 11.0843 43.3276 11.0508 43.34 10.9964C43.3424 10.9854 43.3423 10.974 43.3398 10.963C43.3372 10.952 43.3323 10.9418 43.3253 10.933C43.3183 10.9243 43.3095 10.9172 43.2994 10.9123C43.2894 10.9075 43.2784 10.905 43.2673 10.905H40.3167C40.2972 10.905 40.2878 10.8952 40.2884 10.8757C40.2889 10.8627 40.2857 10.8518 40.2786 10.8429C40.2626 10.824 40.252 10.8266 40.2466 10.8509C40.2401 10.8799 40.2256 10.8941 40.2032 10.8935C40.3931 9.83395 40.3658 8.88742 40.1215 8.05389C39.8899 7.25969 39.3264 6.44154 38.5145 6.19663C37.3982 5.86031 36.1869 6.21526 35.6057 7.28099C35.4105 7.64008 35.2803 7.99384 35.2153 8.34228C35.0816 9.0575 35.0582 9.77952 35.1452 10.5083C34.0939 10.4309 33.0451 10.4306 31.9986 10.5075L32.0003 3.53359L32.0669 3.42267C32.0742 3.41074 32.0844 3.40088 32.0965 3.39405C32.1086 3.38721 32.1222 3.38362 32.1361 3.38363H34.9908C35.0269 3.38363 35.0396 3.40108 35.0289 3.43598C35.0135 3.48686 35.0271 3.52856 35.0697 3.5611C35.0714 3.56238 35.0726 3.56407 35.0732 3.56602C35.0739 3.56796 35.074 3.57008 35.0736 3.57216C35.0731 3.57423 35.0721 3.5762 35.0707 3.57784C35.0692 3.57948 35.0674 3.58075 35.0653 3.58151C35.0582 3.58387 35.052 3.58742 35.0467 3.59216C35.0289 3.60813 35.0313 3.61967 35.0538 3.62676C35.0561 3.62795 35.0588 3.62824 35.0618 3.62765C35.0694 3.62588 35.0724 3.62883 35.0706 3.63653C35.0529 3.70397 35.0632 3.72852 35.1017 3.71018L35.1026 5.13799C35.1027 5.14204 35.104 5.14596 35.1063 5.14929C35.1086 5.15263 35.1118 5.15524 35.1155 5.15682C35.1192 5.1584 35.1233 5.15889 35.1273 5.15823C35.1313 5.15757 35.1351 5.15578 35.1381 5.15308C35.2215 5.0741 35.2561 4.95875 35.3271 4.86557C36.0914 3.86521 37.1364 3.35527 38.4621 3.33575C41.7401 3.28783 43.3471 6.35103 43.4412 9.22965C43.4637 9.91588 43.4415 10.5382 43.3746 11.0967Z" fill="#919EAB"/>
<path d="M69.6327 5.76627L69.6274 5.99876C69.6268 6.03011 69.6109 6.04579 69.5795 6.04579H65.9191C65.8807 6.04579 65.875 6.0594 65.9023 6.08661C65.923 6.10732 65.9395 6.13275 65.9519 6.16292C65.2959 5.95528 64.6457 5.93369 64.0015 6.09815L60.0731 6.04224C60.5949 5.03597 61.3228 4.31069 62.2569 3.86641C63.5445 3.25502 65.1338 3.21242 66.5128 3.52566C67.8799 3.83624 68.9199 4.58311 69.6327 5.76627Z" fill="#919EAB"/>
<path d="M74.1335 14.3159C74.1376 15.8866 74.1385 17.3469 74.1362 18.6969C74.1353 19.3562 73.7031 19.9507 73.0864 20.1601C72.8847 20.2288 72.6081 20.2586 72.2567 20.2498C71.8414 20.2385 71.4436 20.2382 71.0632 20.2489C71.0589 20.249 71.0547 20.2483 71.0507 20.2467C71.0467 20.2452 71.0431 20.2428 71.04 20.2398C71.037 20.2369 71.0345 20.2333 71.0329 20.2294C71.0312 20.2254 71.0304 20.2212 71.0304 20.2169C71.0298 16.3977 71.0301 12.5817 71.0312 8.76899C71.0321 7.00579 71.5007 5.31003 73.0793 4.39427C75.2143 3.15461 77.9199 2.91147 80.1144 4.17065C81.4436 4.9329 82.1731 6.60381 82.386 8.09104C82.6673 10.0504 82.4694 12.314 81.3478 13.9503C80.2327 15.5766 78.6759 16.2315 76.6776 15.915C75.5974 15.744 74.7777 15.203 74.2187 14.292C74.1619 14.1985 74.1335 14.2065 74.1335 14.3159ZM74.2027 8.63589C74.1075 9.38187 74.1137 10.1216 74.2213 10.8552C74.3189 11.5189 74.5807 12.0878 75.0067 12.5616C75.4876 13.0964 76.1378 13.3398 76.9571 13.2919C78.1586 13.2227 78.8933 12.3158 79.1755 11.1959C79.379 10.3873 79.4045 9.49989 79.2518 8.53384C79.0122 7.01822 78.1231 5.92498 76.4477 6.04477C75.0191 6.14771 74.3678 7.34565 74.2027 8.63589Z" fill="#919EAB"/>
<path d="M95.3203 5.97306C95.6069 5.26849 96.0391 4.7485 96.7019 4.35539C97.5183 3.8703 98.3817 3.55706 99.2922 3.41567C100.356 3.25003 101.433 3.36686 102.522 3.76618C103.746 4.2143 104.686 4.85587 105.112 6.10262C105.356 6.81547 105.479 7.57683 105.482 8.38671C105.493 10.8394 105.493 13.2906 105.481 15.7403C105.481 15.744 105.48 15.7477 105.478 15.7511C105.477 15.7545 105.475 15.7575 105.472 15.7601C105.469 15.7627 105.466 15.7647 105.463 15.766C105.459 15.7673 105.455 15.768 105.451 15.7678C105.088 15.7584 104.696 15.7587 104.277 15.7687C103.81 15.78 103.474 15.7436 103.268 15.6596C102.892 15.507 102.623 15.2487 102.462 14.8849C102.376 14.692 102.334 14.4173 102.335 14.0605C102.344 12.0539 102.346 10.0757 102.339 8.12582C102.338 7.40528 102.201 6.73975 101.557 6.31648C100.988 5.94201 100.377 5.81659 99.7216 5.94023C98.9922 6.07777 98.3187 6.56139 98.1581 7.3192C98.106 7.56589 98.0803 7.83595 98.0809 8.12937C98.0839 10.8039 98.0856 13.3273 98.0862 15.6995C98.0862 15.7421 98.0649 15.7634 98.0223 15.7634L94.9343 15.7643C94.9232 15.7643 94.9126 15.7598 94.9048 15.7518C94.897 15.7438 94.8926 15.733 94.8926 15.7217C94.8831 12.9584 94.8858 10.4439 94.9006 8.17817C94.9059 7.38191 95.0458 6.64687 95.3203 5.97306Z" fill="#919EAB"/>
<path d="M92.5908 3.6178C93.1826 3.62401 93.7239 4.06325 93.9369 4.59213C94.0138 4.78202 94.0517 5.0577 94.0505 5.41915C94.0428 8.75448 94.0416 12.1886 94.0469 15.7215C94.047 15.7273 94.046 15.733 94.0439 15.7384C94.0417 15.7438 94.0386 15.7487 94.0345 15.7528C94.0305 15.757 94.0256 15.7602 94.0203 15.7625C94.015 15.7647 94.0092 15.7659 94.0034 15.7659L90.879 15.7632C90.8713 15.7632 90.8638 15.7601 90.8583 15.7546C90.8528 15.7491 90.8497 15.7417 90.8497 15.7339L90.8506 3.63821C90.8506 3.62105 90.8592 3.61247 90.8764 3.61247C91.4052 3.6101 91.9767 3.61188 92.5908 3.6178Z" fill="#919EAB"/>
<path d="M51.3237 7.60839L51.282 7.59508C51.2547 7.5862 51.2447 7.56757 51.2518 7.53917C51.2577 7.51433 51.2506 7.49421 51.2305 7.47883C51.2139 7.46582 51.1953 7.45931 51.1746 7.45931C50.1713 7.45517 49.1609 7.44955 48.1433 7.44245L48.1469 3.64362C48.1469 3.62588 48.1555 3.617 48.1726 3.617H51.274C51.3047 3.617 51.3201 3.63238 51.3201 3.66315L51.3237 7.60839Z" fill="#919EAB"/>
<path d="M58.7163 6.47598C58.6826 6.5032 58.6542 6.49817 58.6312 6.4609C58.6294 6.45853 58.6294 6.45617 58.6312 6.4538L58.6525 6.42097C58.6619 6.40559 58.6575 6.39789 58.6391 6.39789L55.6877 6.40144C55.67 6.40144 55.6579 6.40973 55.6514 6.42629C55.6478 6.43457 55.6428 6.44138 55.6363 6.4467C55.6162 6.46208 55.6032 6.45735 55.5972 6.4325L55.5813 6.37127C55.5807 6.07963 55.5798 5.78798 55.5786 5.49633C55.5768 5.08873 55.6055 4.80093 55.6647 4.63292C55.9158 3.92036 56.5121 3.59736 57.2602 3.61156C57.763 3.62162 58.2307 3.62221 58.6631 3.61333C58.701 3.61274 58.7196 3.63108 58.719 3.66835L58.7163 6.47598Z" fill="#919EAB"/>
<path d="M86.5238 8.02187C86.3369 8.42356 86.2431 8.91368 86.2425 9.49224C86.239 11.561 86.2393 13.6363 86.2434 15.718C86.2434 15.7488 86.228 15.7642 86.1973 15.7642H83.1057C83.0649 15.7642 83.0444 15.7435 83.0444 15.702C83.0421 13.6889 83.0427 11.6855 83.0462 9.6919C83.0471 9.25975 83.095 8.80453 83.1562 8.37771C83.2746 7.56251 83.5443 6.81269 83.9655 6.12823C85.1866 4.14407 87.6197 3.53268 89.8798 3.61875C89.894 3.61934 89.9011 3.62703 89.9011 3.64182L89.9003 6.80973C89.9003 6.84345 89.8834 6.86001 89.8497 6.85942C88.6739 6.83635 87.1263 6.72365 86.5238 8.02187Z" fill="#919EAB"/>
<path d="M69.6327 5.7661C70.1912 6.80964 70.4831 7.92743 70.5086 9.11946C70.5175 9.56019 70.5172 9.99855 70.5077 10.4345C70.5065 10.4878 70.4793 10.5144 70.4261 10.5144H62.6145C62.5814 10.5144 62.5666 10.531 62.5702 10.5641L62.65 11.2749L59.6392 11.2607C59.6392 11.2607 59.5901 11.2737 59.5806 11.3015C59.5587 11.3636 59.5289 11.4136 59.491 11.4515C59.2987 10.3446 59.2816 9.23423 59.4395 8.12029C59.5502 7.34354 59.7614 6.6508 60.0731 6.04207L64.0015 6.09797C63.4431 6.40382 63.0636 6.76823 62.863 7.19121C62.682 7.57396 62.59 7.97979 62.587 8.40868C62.587 8.43944 62.6024 8.45482 62.6332 8.45482L67.2049 8.45571C67.209 8.45572 67.2131 8.45488 67.2169 8.45326C67.2207 8.45163 67.2241 8.44925 67.2269 8.44626C67.2297 8.44327 67.2319 8.43973 67.2333 8.43586C67.2347 8.43199 67.2353 8.42788 67.2351 8.42377C67.1747 7.46985 66.8695 6.60821 65.9519 6.16275C65.9395 6.13258 65.923 6.10714 65.9023 6.08644C65.875 6.05923 65.8807 6.04562 65.9191 6.04562H69.5795C69.6109 6.04562 69.6268 6.02994 69.6274 5.99859L69.6327 5.7661Z" fill="#919EAB"/>
<path d="M55.5813 6.37127L55.5972 6.4325C55.6032 6.45735 55.6162 6.46208 55.6363 6.4467C55.6428 6.44138 55.6478 6.43457 55.6514 6.42629C55.6579 6.40973 55.67 6.40144 55.6877 6.40144L58.6391 6.39789C58.6575 6.39789 58.6619 6.40559 58.6525 6.42097L58.6312 6.4538C58.6294 6.45617 58.6294 6.45853 58.6312 6.4609C58.6542 6.49817 58.6826 6.5032 58.7163 6.47598L58.7039 11.5429L58.6125 11.3858C58.5983 11.3616 58.577 11.3494 58.5486 11.3494H55.7135C55.7064 11.3494 55.7002 11.3474 55.6948 11.3432C55.686 11.3367 55.6795 11.329 55.6753 11.3202C55.6588 11.2876 55.646 11.2891 55.6372 11.3246C55.6342 11.3376 55.6348 11.3509 55.6389 11.3645C55.6543 11.4154 55.6484 11.4181 55.6212 11.3725C55.6117 11.3565 55.5981 11.3459 55.5804 11.3406L55.5813 6.37127Z" fill="#919EAB"/>
<path d="M48.1433 7.44245C49.1609 7.44955 50.1713 7.45517 51.1746 7.45931C51.1953 7.45931 51.2139 7.46582 51.2305 7.47883C51.2506 7.49421 51.2577 7.51433 51.2518 7.53917C51.2447 7.56757 51.2547 7.5862 51.282 7.59508L51.3237 7.60839L51.3263 11.5438L51.2713 11.3921C51.2607 11.3637 51.24 11.3495 51.2092 11.3495H48.3066C48.2794 11.3495 48.2554 11.34 48.2347 11.3211C48.2199 11.3087 48.2114 11.2921 48.209 11.2714C48.2025 11.2258 48.1924 11.2249 48.1788 11.2687C48.1723 11.29 48.162 11.2992 48.1478 11.2962L48.1433 7.44245Z" fill="#919EAB"/>
<path d="M47.342 9.25635L47.3438 15.7314C47.3438 15.7456 47.3364 15.7527 47.3216 15.7527H44.2034C44.1727 15.7527 44.1573 15.7373 44.1573 15.7065L44.1555 8.65649C44.1804 8.66891 44.2011 8.66654 44.2176 8.64939C44.2235 8.64288 44.228 8.63549 44.2309 8.6272C44.2332 8.61955 44.2379 8.61283 44.2443 8.60804C44.2507 8.60324 44.2584 8.60063 44.2664 8.60058L47.1486 8.5997C47.191 8.59964 47.2318 8.61587 47.2626 8.64508C47.2935 8.67428 47.312 8.71424 47.3145 8.75676L47.342 9.25635Z" fill="#919EAB"/>
<path d="M35.1452 10.5083C35.183 10.9189 35.2519 11.284 35.3519 11.6034C35.6297 12.4899 36.3396 13.2149 37.2819 13.3187C38.991 13.506 39.9414 12.4526 40.2032 10.8935C40.2256 10.8941 40.2401 10.8799 40.2466 10.8509C40.252 10.8266 40.2626 10.824 40.2786 10.8429C40.2857 10.8518 40.2889 10.8627 40.2884 10.8757C40.2878 10.8952 40.2972 10.905 40.3167 10.905H43.2673C43.2784 10.905 43.2894 10.9075 43.2994 10.9123C43.3095 10.9172 43.3183 10.9243 43.3253 10.933C43.3323 10.9418 43.3372 10.952 43.3398 10.963C43.3423 10.974 43.3424 10.9854 43.34 10.9964C43.3276 11.0508 43.3391 11.0843 43.3746 11.0967C43.2335 12.1908 42.8697 13.2451 42.2326 14.1573C41.7454 14.8539 41.0763 15.3206 40.2813 15.5922C38.2305 16.2923 36.0441 16.0509 34.1416 15.0189C32.4538 14.1032 31.9808 12.3354 31.9986 10.5075C33.0451 10.4306 34.0939 10.4309 35.1452 10.5083Z" fill="#919EAB"/>
<path d="M51.3263 11.5438C51.3843 12.6039 51.9457 13.234 53.0106 13.4339C54.0399 13.6274 55.2334 13.1287 55.5058 12.047C55.5561 11.8476 55.581 11.6121 55.5804 11.3406C55.5981 11.3459 55.6117 11.3565 55.6212 11.3725C55.6484 11.4181 55.6543 11.4154 55.6389 11.3645C55.6348 11.3509 55.6342 11.3376 55.6372 11.3246C55.646 11.2891 55.6588 11.2876 55.6753 11.3202C55.6795 11.329 55.686 11.3367 55.6948 11.3432C55.7002 11.3474 55.7064 11.3494 55.7135 11.3494H58.5486C58.577 11.3494 58.5983 11.3616 58.6125 11.3858L58.7039 11.5429C58.6572 12.3315 58.4856 13.0506 58.1892 13.7002C57.9257 14.2787 57.4483 14.7765 56.8671 15.0924C54.6628 16.2886 52.219 16.2717 50.0254 15.064C48.902 14.4455 48.4122 13.4339 48.2374 12.1792C48.1806 11.7704 48.1507 11.4761 48.1478 11.2962C48.162 11.2992 48.1723 11.29 48.1788 11.2687C48.1924 11.2249 48.2025 11.2258 48.209 11.2714C48.2114 11.2921 48.2199 11.3087 48.2347 11.3211C48.2554 11.34 48.2794 11.3495 48.3066 11.3495H51.2092C51.24 11.3495 51.2607 11.3637 51.2713 11.3921L51.3263 11.5438Z" fill="#919EAB"/>
<path d="M62.65 11.2751C62.8683 12.3878 63.4957 13.1767 64.6564 13.324C65.3388 13.411 66.2075 13.2725 66.7062 12.7499C67.1038 12.3337 67.3549 12.0205 67.9893 12.0213C68.6963 12.0231 69.4621 12.0231 70.2867 12.0213C70.3276 12.0208 70.3427 12.04 70.332 12.079C69.6745 14.4847 67.7906 15.8397 65.3858 15.9737C64.8114 16.0062 64.2938 15.9876 63.8329 15.9178C62.28 15.6835 61.1028 14.9257 60.3012 13.6443C59.9025 13.0078 59.6324 12.2769 59.491 11.4517C59.5289 11.4138 59.5588 11.3638 59.5806 11.3017C59.5901 11.2739 59.6096 11.2603 59.6392 11.2609L62.65 11.2751Z" fill="#919EAB"/>
<path d="M79.329 26.001H78.8064C77.822 25.9128 77.0136 25.4937 76.3812 24.7436C75.9517 24.2336 75.689 23.661 75.5932 23.0256C75.3962 21.7206 75.7946 20.6194 76.7885 19.722C77.2085 19.3422 77.6969 19.091 78.2535 18.9686C80.0079 18.5817 81.5528 19.2756 82.2893 20.9527C82.3005 20.9782 82.2922 20.9909 82.2644 20.9909L80.7311 20.9891C80.6926 20.9891 80.661 20.9743 80.6361 20.9447C80.2126 20.4526 79.6532 20.2221 78.9581 20.2535C77.8312 20.305 76.9926 21.2624 76.9669 22.3716C76.9136 24.6965 79.8916 25.5023 80.9937 23.4205C80.9968 23.4146 80.9982 23.4079 80.998 23.4013C80.9977 23.3946 80.9958 23.3881 80.9923 23.3824C80.9888 23.3767 80.984 23.372 80.9781 23.3688C80.9723 23.3655 80.9658 23.3637 80.9591 23.3637L78.352 23.3664C78.3422 23.3664 78.3327 23.3624 78.3257 23.3555C78.3187 23.3485 78.3148 23.339 78.3148 23.3291L78.3139 22.274C78.3139 22.2421 78.3301 22.2261 78.3627 22.2261H82.536C82.5715 22.2261 82.5904 22.2436 82.5928 22.2785C82.6324 22.9026 82.5283 23.4669 82.2804 23.9716C81.6841 25.1884 80.7003 25.8649 79.329 26.001Z" fill="#919EAB"/>
<path d="M108.12 26.0009H107.578C106.477 25.8749 105.628 25.4031 105.032 24.5855C103.861 22.9812 104.159 20.7876 105.741 19.5808C106.588 18.9348 107.595 18.7286 108.762 18.9623C109.779 19.1652 110.546 19.8192 111.063 20.9242C111.084 20.9674 111.07 20.989 111.022 20.989L109.51 20.9899C109.476 20.9899 109.448 20.9769 109.425 20.9509C108.891 20.3492 108.2 20.1351 107.352 20.3084C107.093 20.3611 106.843 20.4812 106.601 20.6687C105.531 21.4975 105.445 23.1072 106.428 24.0469C107.071 24.6618 108.035 24.7967 108.828 24.3992C109.225 24.2004 109.539 23.8756 109.77 23.4249C109.774 23.4185 109.775 23.4113 109.775 23.4041C109.775 23.3969 109.773 23.3898 109.769 23.3836C109.765 23.3775 109.76 23.3724 109.754 23.3689C109.747 23.3654 109.74 23.3636 109.733 23.3636L107.137 23.3663C107.106 23.3663 107.09 23.3503 107.09 23.3184V22.2722C107.09 22.2408 107.106 22.2251 107.137 22.2251L111.325 22.226C111.356 22.226 111.373 22.2417 111.374 22.273C111.426 23.4349 111.028 24.3915 110.18 25.1428C109.609 25.6492 108.922 25.9352 108.12 26.0009Z" fill="#919EAB"/>
<path d="M86.4697 24.4277L83.9682 24.4268C83.962 24.4269 83.9559 24.429 83.9508 24.4326C83.9458 24.4362 83.9419 24.4413 83.9398 24.4472L83.4198 25.8457C83.4177 25.8515 83.4138 25.8566 83.4087 25.8603C83.4037 25.8639 83.3976 25.8659 83.3914 25.8661H82.0692C82.0642 25.866 82.0592 25.8647 82.0548 25.8623C82.0504 25.8599 82.0466 25.8564 82.0438 25.8523C82.041 25.8481 82.0393 25.8433 82.0388 25.8382C82.0382 25.8332 82.039 25.8282 82.0408 25.8235L84.6781 19.0289C84.6804 19.0231 84.6845 19.0181 84.6897 19.0146C84.6949 19.0111 84.7011 19.0093 84.7074 19.0094L85.8246 19.0129C85.8309 19.0128 85.837 19.0147 85.8422 19.0181C85.8475 19.0216 85.8515 19.0266 85.8539 19.0325L88.453 25.8244C88.4549 25.8291 88.4556 25.8343 88.455 25.8393C88.4544 25.8444 88.4526 25.8493 88.4497 25.8535C88.4468 25.8577 88.4429 25.8612 88.4384 25.8635C88.4338 25.8659 88.4288 25.867 88.4237 25.867L87.0536 25.8652C87.0472 25.8652 87.0409 25.8633 87.0357 25.8596C87.0305 25.856 87.0265 25.8508 87.0243 25.8448L86.499 24.4481C86.4968 24.4421 86.4928 24.4369 86.4876 24.4332C86.4823 24.4296 86.4761 24.4276 86.4697 24.4277ZM84.4216 23.1161C84.4201 23.1205 84.4196 23.1252 84.4202 23.1299C84.4209 23.1345 84.4226 23.1389 84.4253 23.1428C84.428 23.1466 84.4316 23.1497 84.4357 23.1519C84.4399 23.154 84.4445 23.1552 84.4492 23.1552L86.0074 23.1605C86.012 23.1605 86.0166 23.1593 86.0208 23.1572C86.0249 23.155 86.0285 23.1519 86.0312 23.1481C86.0339 23.1443 86.0356 23.1398 86.0363 23.1352C86.0369 23.1306 86.0364 23.1259 86.0349 23.1214L85.2629 21.0193C85.2607 21.0139 85.2569 21.0093 85.2521 21.0061C85.2473 21.0029 85.2416 21.0012 85.2358 21.0012C85.23 21.0012 85.2243 21.0029 85.2195 21.0061C85.2147 21.0093 85.2109 21.0139 85.2087 21.0193L84.4216 23.1161Z" fill="#919EAB"/>
<path d="M99.845 21.5408C99.855 21.616 99.8601 21.7346 99.8601 21.8967C99.8583 23.1999 99.8562 24.5038 99.8539 25.8082C99.8539 25.8467 99.8349 25.8659 99.7971 25.8659H98.5991C98.5583 25.8659 98.5379 25.8455 98.5379 25.8047V19.0447C98.5379 19.036 98.5414 19.0276 98.5475 19.0215C98.5537 19.0153 98.562 19.0118 98.5707 19.0118L99.7509 19.0101C99.7894 19.0101 99.819 19.026 99.8397 19.058L102.566 23.2739C102.618 23.3549 102.645 23.3472 102.645 23.2508L102.642 19.0624C102.642 19.0287 102.659 19.0118 102.693 19.0118L103.905 19.011C103.912 19.011 103.919 19.0124 103.925 19.0151C103.932 19.0178 103.937 19.0218 103.942 19.0268C103.947 19.0318 103.951 19.0378 103.954 19.0444C103.957 19.0509 103.958 19.058 103.958 19.0651V25.8135C103.958 25.8484 103.941 25.8659 103.906 25.8659H102.768C102.732 25.8659 102.704 25.8508 102.685 25.8206L99.9506 21.5027C99.8559 21.3536 99.8207 21.3663 99.845 21.5408Z" fill="#919EAB"/>
<path d="M90.0822 20.9908C90.0833 20.995 90.0857 20.9982 90.0893 21.0006C90.0975 21.0065 90.1017 21.0145 90.1017 21.0246C90.1194 22.6135 90.1375 24.207 90.1558 25.8048C90.1564 25.845 90.1363 25.8654 90.0955 25.866H88.8762C88.8461 25.866 88.831 25.8509 88.831 25.8208V19.0581C88.831 19.0274 88.8464 19.012 88.8771 19.012L90.5844 19.0111C90.5998 19.0111 90.6099 19.0185 90.6146 19.0333L92.3041 23.8686C92.3343 23.9543 92.3642 23.9543 92.3938 23.8686L94.07 19.0573C94.0746 19.0438 94.0832 19.0321 94.0947 19.0239C94.1061 19.0156 94.1199 19.0111 94.1339 19.0111L95.8208 19.012C95.8509 19.012 95.866 19.0268 95.866 19.0564V25.8226C95.866 25.8515 95.8515 25.866 95.8226 25.866L94.6024 25.8651C94.5604 25.8651 94.5397 25.8441 94.5403 25.8021L94.59 20.9633C94.59 20.9556 94.5876 20.9547 94.5829 20.9607C94.5468 21.0086 94.5187 21.0618 94.4986 21.1204C93.9768 22.636 93.4326 24.2031 92.8658 25.8217C92.8558 25.8512 92.8351 25.866 92.8037 25.866H91.8968C91.8619 25.866 91.8386 25.8495 91.8267 25.8163C91.2706 24.2374 90.7181 22.6508 90.1691 21.0565C90.1567 21.0216 90.1357 20.9941 90.1061 20.974C90.0825 20.9574 90.0745 20.963 90.0822 20.9908Z" fill="#919EAB"/>
<path d="M97.8404 19.012H96.5555C96.5418 19.012 96.5307 19.0231 96.5307 19.0368V25.8412C96.5307 25.8549 96.5418 25.866 96.5555 25.866H97.8404C97.8541 25.866 97.8653 25.8549 97.8653 25.8412V19.0368C97.8653 19.0231 97.8541 19.012 97.8404 19.012Z" fill="#919EAB"/>
<path fill-rule="evenodd" clip-rule="evenodd" d="M27.3646 10.2478L21.5494 13.9741L26.8892 16.2317L21.2722 16.3745L23.6867 22.3525L18.4483 18.9612L19.1419 26.0009L15.2977 21.1411L13.73 25.5963L12.2627 21.1552L8.48807 25.7237L9.69595 18.9931L3.75096 21.8394L7.65648 16.7909L1.38358 17.5588L6.10182 14.7396L0.614502 12.8417L6.98413 11.5937L2.44518 7.22933L7.45714 8.31099L5.0756 2.76705L10.3836 6.6596L9.88703 0.634401L13.1768 5.50717L16.3251 0.000976562L16.7226 5.09432L20.2176 1.90951L18.847 7.42632L24.9807 4.70271L21.0209 9.87155L27.3646 10.2478ZM10.3659 9.59389C9.42701 9.34972 8.87143 10.4738 8.87143 10.4738C8.87143 10.4738 9.23474 9.06073 10.4131 9.36152C11.4641 9.63046 11.3001 10.9822 11.3001 10.9822C11.3001 10.9822 11.3049 9.83806 10.3659 9.59389ZM13.1108 12.6124C13.1603 12.6124 14.0544 12.6253 14.0544 12.6253C14.3057 12.5864 14.1877 12.8896 14.1877 12.8896C14.1004 12.9981 14.2042 13.0311 14.2042 13.0311C14.3505 13.0311 14.3965 12.7374 14.3965 12.7374C14.4342 12.4177 14.1688 12.4673 14.1688 12.4673L13.1874 12.4519C12.2296 12.3717 12.2874 11.4116 12.2874 11.4116C12.2874 10.784 12.8878 10.2379 12.8878 10.2379C13.3597 9.79793 14.2172 9.5514 14.2172 9.5514C14.3352 9.49832 14.2939 9.47001 14.2939 9.47001C14.2679 9.38036 13.8008 9.5455 13.8008 9.5455C13.8008 9.5455 12.1766 10.0173 12.0716 11.3762C12.0716 11.3762 11.9878 12.5027 13.1131 12.6183L13.1108 12.6124ZM19.031 14.7131C18.679 14.3771 18.4247 13.9519 18.2949 13.4829C18.2619 13.3755 18.1911 13.3932 18.1911 13.3932C18.1145 13.4085 18.1463 13.4935 18.1463 13.4935C18.1943 13.7069 18.2574 13.9166 18.335 14.121C13.8952 15.0647 9.90472 14.0266 9.90472 14.0266C10.0233 13.8337 10.1259 13.6313 10.2114 13.4215C10.2374 13.3248 10.1878 13.3036 10.1878 13.3036C10.1135 13.2776 10.0911 13.359 10.0911 13.359C9.67235 14.1623 9.08493 14.4572 9.08493 14.4572C9.08493 14.4572 8.96697 14.5232 9.00826 14.5822C9.00826 14.5822 9.03774 14.6306 9.18047 14.5763C9.37909 14.4668 9.56775 14.3401 9.7443 14.1977C10.0803 14.7737 10.473 15.3147 10.9168 15.8125C11.3767 16.331 11.9448 16.7421 12.5811 17.0168C13.1497 17.3176 13.9258 17.3282 13.9258 17.3282C17.0246 17.4887 18.4294 14.3487 18.4294 14.3487C18.563 14.5358 18.7273 14.6989 18.9154 14.8311C19.1029 14.8818 19.031 14.7131 19.031 14.7131ZM14.0639 17.1006C11.4783 17.0711 10.0533 14.2696 10.0533 14.2696L10.2551 14.3121C11.6824 14.6433 13.1465 14.7896 14.6112 14.7474C14.0485 14.7686 16.2177 14.765 17.9446 14.4088L18.1734 14.364C18.1734 14.364 16.8099 17.1336 14.0639 17.1006ZM17.5023 9.73889C18.8635 9.84623 18.8635 11.3443 18.8635 11.3443C18.8635 11.3443 18.65 10.0279 17.5023 9.9288C16.7084 9.85685 16.2685 10.8453 16.2685 10.8453C16.2685 10.8453 16.5162 9.6575 17.5023 9.73889ZM10.0451 10.4655C9.381 10.4726 9.06841 12.4602 9.8481 12.5321C10.6278 12.6041 10.8684 10.4018 10.0451 10.4655ZM9.86108 10.7569C9.79541 10.8035 9.74105 10.8643 9.70205 10.9347C9.66305 11.0052 9.6404 11.0835 9.63578 11.1639C9.61352 11.2911 9.59817 11.4195 9.58978 11.5484C9.61128 11.5637 9.63557 11.5746 9.66128 11.5804C9.68698 11.5863 9.71359 11.587 9.73958 11.5826C9.80239 11.565 9.85991 11.5322 9.90708 11.4871C9.88516 11.3771 9.89207 11.2633 9.92714 11.1568C9.95431 11.0267 9.99381 10.8996 10.0451 10.777C10.0184 10.7639 9.9897 10.7555 9.96016 10.7522C9.92708 10.7489 9.8937 10.7505 9.86108 10.7569ZM17.7406 10.8855C17.8892 10.9964 17.9529 11.2806 17.967 11.5484C18.0095 12.1688 17.6698 13.0158 17.1744 12.9591C16.489 12.8813 16.8052 10.7298 17.4846 10.7722C17.528 10.7796 17.5709 10.7894 17.6132 10.8017C17.6583 10.8254 17.7009 10.8535 17.7406 10.8855ZM17.1569 11.2143C17.1959 11.1439 17.2502 11.0831 17.3159 11.0365C17.3485 11.0301 17.3819 11.0285 17.415 11.0318C17.4445 11.035 17.4733 11.0434 17.4999 11.0566C17.4486 11.1791 17.4091 11.3063 17.382 11.4364C17.3469 11.5429 17.34 11.6567 17.3619 11.7666C17.3147 11.8117 17.2572 11.8445 17.1944 11.8622C17.1683 11.8667 17.1416 11.8659 17.1159 11.8598C17.0901 11.8538 17.0659 11.8425 17.0446 11.8268C17.0531 11.6983 17.0684 11.5703 17.0906 11.4434C17.0952 11.3631 17.1179 11.2847 17.1569 11.2143Z" fill="#919EAB"/>
</svg>
