<svg xmlns="http://www.w3.org/2000/svg" width="84" height="28" fill="none"><g fill="#919EAB" clip-path="url(#a)"><path d="M83.437 1.427c-.112-.11-.243-.2-.628-.464C81.053-.06 78.791-.2 76.852.383c-1.788.707-3.004 1.736-3.798 3.49-.782 2.303-.451 4.118.596 6.256h.297v.298c.498.68 1.141 1.135 1.88 1.526 1.845.861 3.805 1.17 5.762.551l.018-.006.532-.181c.506-.172.935-.322 1.367-.64.31-.409.34-.686.341-1.192-.001-.11-.004-.217-.007-.323v-.002c0-.23-.002-.457-.003-.685a85.924 85.924 0 0 1-.017-1.077l-.004-.704-.005-.337a24.812 24.812 0 0 0-.034-1.1.628.628 0 0 0-.129-.112c-.072-.04-.164-.043-.42-.054-.265 0-.266 0-.528.002l-.432.001c-.144 0-.288 0-.433.002-.201.001-.402.003-.605.003l-.59.002-1.182.006c-.104.197-.203.395-.298.596-.076.507-.123 1.017.182 1.45.265.188.265.188.602.232l.511-.022.492-.022v1.788c-.95.205-1.964.302-2.91.047-.983-.396-1.483-.962-1.978-1.9-.391-1.175-.35-2.592.066-3.752.408-.858.99-1.32 1.862-1.675 1.193-.347 2.302-.155 3.407.372.39.212.39.212.745.355.415-.023.554-.108.849-.404l.224-.304.001-.002.003-.003.003-.004c.363-.48.41-.585.41-1.22a3.199 3.199 0 0 0-.192-.212ZM22.722 2.873c-.238-.388-.63-.683-1.918-1.653C19.248.187 17.58-.104 15.75.261l-.484.186c-1.531.541-2.622 1.534-3.51 2.887-.789 1.437-.926 3.278-.512 4.858.647 1.652 1.639 2.928 3.244 3.725l.173.077.158.07c1.151.546 2.325.526 3.574.447 3.226-1.075 5.812-3.79 7.806-6.443.404-.542.831-1.045 1.29-1.543l.005-.006c.3-.319.549-.583.747-.974.112-.295.112-.295.429-.426l.447-.14c.235-.086.47-.17.707-.251 1.17-.342 2.093-.124 3.165.4v.298l-.447.298c.15.447.15.447.517.664l.204.094h.001l.002.002.277.128.203.093.32.148c.277.125.554.25.83.378l.212.1c.48.223.957.447 1.455.627h.001a43.495 43.495 0 0 0 .297-.149 19.99 19.99 0 0 0-.098-2.332l-.02-.201-.02-.194-.023-.24c-.053-.563-.104-1.106-.286-1.65-.34.143-.685.276-1.03.408-.157.035-.237.053-.31.04-.076-.015-.146-.063-.287-.16C33.287.305 31.742-.006 29.86.15c-1.632.315-3.026 1.25-4.05 2.542-.187.246-.376.49-.567.734-.735.737-1.474 1.497-1.966 2.425l-.058.126-.06.13h-.299c-.539.81-1.19 1.58-1.958 2.182l-.089.065-.187.136c-1.02.75-1.998 1.455-3.276 1.638-1.233.064-2.01-.478-2.942-1.22-.576-.72-.955-1.578-.995-2.512.127-1.148.438-2.014 1.245-2.861.916-.764 1.908-.92 3.073-.89 1.24.123 1.978.711 2.775 1.629l.126.152c.339.41.602.73 1.186.787l.266-.266.34-.358.082-.084h.001c.318-.324.504-.513.5-1.007-.107-.269-.182-.456-.286-.625ZM40.899.173l-.323-.005-.04-.001c-.56-.027-1.047-.05-1.59.133v.024a4117.82 4117.82 0 0 0-.01 6.515v.005l-.003 2.16c0 .275 0 .547-.002.822v.593l-.001.593v.536l-.002.17c0 .073-.004.146-.008.217-.015.268-.03.52.175.726a27.768 27.768 0 0 0 1.2.01l1.183-.01a1271.57 1271.57 0 0 1 .056-2.906l.01-.492.027-1.453.005-.236v-.003l.005-.22V7.35l.003-.225.005-.216v-.002l.008-.417c.008-.435.04-.707.18-1.126a685.933 685.933 0 0 0 1.143 2.263l.001.003.15.293v.001c.183.364.366.73.55 1.092.06.118.118.233.178.347.205.414.412.822.658 1.214l.116.133c.295.34.507.585.985.69.172-.013.173-.013.342-.023.186-.008.271-.012.357-.02.074-.006.148-.017.285-.035.502-.252.502-.252 2.188-3.557l.17-.334.086-.17c.085-.162.166-.32.248-.48v-.002c.261-.51.534-.96.883-1.415l-.008 2.534-.001 1.03-.002.511-.003 1.014-.001.482-.001.238v.667c0 .223.002.448.016.673.168.167.168.167 1.002.169.171 0 .171 0 .338-.002.399.002.794-.004 1.191-.018a.687.687 0 0 0 .1-.113c.067-.106.068-.255.069-.83-.002-.117-.002-.23-.002-.345l-.001-1.14c-.002-.27-.002-.543-.002-.816l-.001-1.06v-.005c0-.357 0-.713-.002-1.069l-.004-2.215c-.002-1.59-.003-3.18-.008-4.768A54.125 54.125 0 0 0 51.416.27h-.004l-.192-.005-.206-.007-.383-.004C50.28.247 50.28.247 49.968.3c-.261.214-.425.41-.604.695l-.07.136-.074.141-.081.154v.002l-.004.007-.085.16-.18.352c-.642 1.23-1.261 2.47-1.881 3.714l-.088.177c-.056.113-.11.225-.167.337-.08.164-.16.323-.238.481-.216.437-.428.833-.699 1.24l-.223-.449h-.001c-.374-.748-.748-1.495-1.117-2.244l-.299-.606-.006-.012-.305-.617-.308-.624-.001-.002-.471-.954-.076-.153-.075-.15c-.251-.514-.515-1-.84-1.473-.369-.387-.652-.414-1.176-.44ZM37.606 15.49c.46-.022.918-.034 1.378-.046l.033-.001.09-.005.063-.003.207-.01c.578-.01.81-.015 1.002.071.128.059.238.158.422.325l.162.29.069.124.13.225.071.125.06.12.122.243.102.205.105.211.217.442.136.272.092.186.477.96.238.483.484.975.003.005c.398.8.794 1.6 1.188 2.4a316.342 316.342 0 0 0 2.147-4.111l.075-.15.078-.153.105-.205.509-1c.153-.302.306-.603.461-.904l.127-.25.004-.007.137-.271c.132-.228.188-.325.268-.394.06-.052.133-.088.26-.152.216-.012.432-.016.648-.014h.384l.4.005.2.001h.206l.99.008.009 4.77.001.737.003 1.477a1086.004 1086.004 0 0 1 .003 2.544l.002.408v1.14l.001.343c-.001.778-.001.778-.166.943h-2.383l-.15-7.745-1.19 2.383c-.337.666-.674 1.329-1.015 1.993l-.253.498a116.974 116.974 0 0 0-.46.895c-.21.338-.21.338-.656.636-.15.026-.227.04-.306.048-.084.01-.17.012-.346.017l-.338.018c-.46-.109-.682-.36-.97-.688l-.125-.14c-.249-.414-.249-.414-.465-.862l-.147-.3-.098-.2-.002-.002v-.001a152.734 152.734 0 0 0-.74-1.526l-.164-.337-.077-.159a55.934 55.934 0 0 0-1.137-2.124l-.004.282-.001.047v.007c-.016.946-.032 1.893-.05 2.838l-.02 1.08c-.004.347-.01.693-.017 1.04l-.009.509-.002.117-.002.126-.004.246v.002l-.008.453a33.54 33.54 0 0 0-.008.4c-.014.174-.02.247-.051.307-.023.043-.059.08-.122.142-.373.015-.743.02-1.117.018l-.158.001-.159.002c-.577-.001-.727-.002-.835-.07a.697.697 0 0 1-.114-.1c-.014-.381-.019-.756-.016-1.138v-.36c0-.396 0-.792.002-1.189v-.408l.001-.412c0-.718.001-1.436.003-2.153v-.017l.003-2.202c.001-1.444.004-2.889.007-4.334Z"/><path fill-rule="evenodd" d="M2.696.282C1.87.285 1.047.292.223.3.22 1.743.217 3.189.216 4.633c0 .736-.002 1.471-.003 2.207C.21 7.56.21 8.283.21 9.004v.412l-.002.409-.001 1.188v.36c-.003.382.001.757.016 1.139a.693.693 0 0 0 .11.097c.107.068.257.069.844.072h.173a106.476 106.476 0 0 1 .525 0h.358a141.704 141.704 0 0 1 1.496 0h.367l.18-.001h.174c.958.003 1.923-.003 2.848-.28l.187-.094h.002l.183-.092c.577-.274 1.038-.574 1.467-1.052.72-1.036.75-2.034.618-3.268-.336-.673-.698-1.11-1.386-1.397l-.042-.009-.359-.083v-.447c.298 0 .298 0 .578-.166.578-.511.888-.966.975-1.74l-.017-.588c-.018-.983-.128-1.393-.791-2.123C7.636.488 6.474.265 5.12.265l-.19.002-.183.002h-.003c-.403.001-.807.003-1.21.007L2.7.282h-.004Zm.208 5.23v-2.98l1.312-.008.21-.003c.05 0 .102 0 .202-.002h.165l.162-.001c.514-.003.895.033 1.326.344.23.265.23.265.247.663a47.167 47.167 0 0 0-.012.44c-.001.071 0 .142.003.21.009.276.017.535-.19.74-.549.418-.97.497-1.657.486a22.251 22.251 0 0 1-.325-.01h-.012a93.014 93.014 0 0 0-.638-.012l-.25-.009-.243-.007h-.002v.297l-.298-.148Zm.283 2.686a8.095 8.095 0 0 1 .015-.601c.217-.106.33-.16.448-.183.127-.025.261-.013.54.013l.167.001.168.002c.403-.003.804.003 1.209.018.529.175.715.293 1.043.744.074.562.108 1.125-.15 1.639-.576.469-1.05.494-1.763.485l-.194-.005-.174-.005c-.432-.008-.862-.017-1.294-.028v-.01c-.003-.312-.006-.623-.007-.936l-.001-.195v-.191l-.005-.383c0-.125 0-.246-.002-.365Z" clip-rule="evenodd"/><path d="m60.917.142.232.013.241.014.217.009.25.01c.971.228 1.537 1.01 2.095 1.781l.165.228a71.898 71.898 0 0 0 2.392 3.02c.44.526.868 1.056 1.287 1.597l.138.178.142.184.212.271.004-.264.05-2.718.01-.508.01-.507.017-.965v-.006l.01-.486v-.002c.003-.151.006-.303.007-.46l.01-.424.003-.185V.916l.004-.184c.013-.162.019-.232.049-.29a.645.645 0 0 1 .123-.144c.426-.01.85-.013 1.275-.009l.182.002.182.001c.149 0 .297.002.446.003l.447.003.008 4.77a1358.953 1358.953 0 0 1 .003 2.215l.003 2.134.001.813v.004a288.421 288.421 0 0 1 .003 1.485c-.001.574-.001.724-.069.83-.023.036-.055.068-.098.11-.26.025-.521.035-.782.038l-.43.012c-.894-.103-1.372-.669-1.915-1.333l-.175-.21-.037-.045a72.739 72.739 0 0 1-1.894-2.432c-.876-1.153-1.777-2.308-2.81-3.327 0 .09 0 .179.002.271.003.925.005 1.851.006 2.776v.003c.002.344.003.69.003 1.034l.004.992v.496l.001.232.001.238v.624l.002.194c-.018.289-.018.289-.167.438a29.498 29.498 0 0 1-1.372.009l-.171-.002c-.28-.001-.56-.004-.84-.007l-.008-4.827-.004-2.242a1296.126 1296.126 0 0 1-.003-2.16c0-.276 0-.552-.002-.827a276.846 276.846 0 0 0-.001-1.153c0-.116 0-.231-.002-.349.002-.563.003-.792.116-.887.078-.066.208-.068.427-.073ZM23.43 16.403c.291.24.454.387.624.726-.152.25-.309.498-.467.745l-.217.347-.045.072c-.158.164-.237.245-.332.294-.094.048-.204.064-.423.096a3.446 3.446 0 0 1-1.142-.353c-.988-.484-2.044-.69-3.116-.33-.326.148-.642.308-.96.47-.148.047-.296.097-.447.149a2.612 2.612 0 0 0-.15.232 3.01 3.01 0 0 0-.148.364l-.243.473c-.448 1.232-.444 2.912.112 4.105.447.74.934 1.184 1.713 1.574a7.752 7.752 0 0 0 3.184-.046v-1.787l-.568.013-.567.015c-.163-.013-.252-.02-.329-.053-.09-.039-.163-.113-.323-.273-.014-.208-.022-.32-.025-.433-.003-.133 0-.265.005-.555l.01-.536c.002-.137.005-.272.01-.412a374.66 374.66 0 0 1 2.461-.012l.898-.003.546-.003c.267.011.362.015.435.057.04.023.075.057.128.11.058.707.071 1.414.085 2.125.004.238.013.476.023.715.088 1.954.088 1.954-.362 2.567a4.128 4.128 0 0 1-1.087.55l-.072.028c-.097.039-.195.077-.294.118-.876.307-1.728.381-2.65.375a37.05 37.05 0 0 0-.412-.003c-1.779-.047-3.33-.587-4.614-1.858-1.286-1.375-1.846-2.928-1.82-4.8.1-1.307.509-2.45 1.224-3.54l.095-.148.165-.253c2.236-2.3 6.455-2.84 9.095-.922Z"/><path fill-rule="evenodd" d="M29.446 15.475c-.063 0-.126 0-.188-.002-.157.01-.249.015-.32.057-.098.06-.154.193-.287.514l-.148.382-.065.17c-.127.323-.252.648-.377.973l-.168.434-.103.269-.094.242-.334.864a699.063 699.063 0 0 1-1.687 4.329l-.174.444-.173.443-.191.487a478.987 478.987 0 0 0-.469 1.2c-.095.241-.19.482-.283.723-.183.55-.183.55-.034.848.253.008.505.016.758.022l.313.006c.58.022 1.053.022 1.592-.224.165-.131.27-.214.35-.314.138-.17.213-.39.412-.98l.298-1.34 4.617.149.298.744.134.383.136.381c.134.383.134.383.326.726.515.43.938.496 1.604.487l.057-.003.088-.003.159-.006c.357-.008.713-.017 1.07-.028l.15-.298a12.577 12.577 0 0 0-.374-1.023v-.002c-.132-.333-.262-.666-.396-1l-.001-.002-.427-1.079-.122-.31-.17-.433c-.34-.86-.677-1.723-1.006-2.588l-.068-.179-.065-.17c-.17-.447-.34-.893-.508-1.34-.502-1.333-1.017-2.65-1.63-3.938l-.525-.004-.526-.004-.429-.001-.426-.003c-.138-.002-.272-.002-.406-.002l-.188-.001Zm.862 2.845c.157.06.243.093.302.152.07.072.1.182.168.424l.093.288.09.276c.103.31.204.62.304.93l.211.646.62 1.9h-3.277l1.49-4.616Z" clip-rule="evenodd"/><path d="M53.691 15.49h8.043v2.234H56.67l.15 2.681 3.723.15v2.084H56.67v2.83h5.064v2.234c-.197.197-.422.186-.678.174a4.115 4.115 0 0 0-.196-.006H60.576l-.185.002h-.25l-.26-.002h-.254l-.264.002h-.548l-.542-.002c-.557 0-1.116 0-1.674.002h-.527l-.528-.002a52.56 52.56 0 0 0-.51.002l-.141-.001H54.152c-.183-.012-.258-.017-.32-.049-.043-.022-.079-.058-.14-.12-.015-.381-.02-.756-.017-1.138v-.36c0-.396 0-.793.002-1.189v-.409l.001-.411.003-2.16v-.011l.003-2.588.008-3.947ZM70.612 16.327c-.057-.052-.117-.101-.218-.184-1.574-1.01-3.853-1.193-5.532-.355-1.004.553-1.606 1.278-1.937 2.383-.093.882-.144 1.85.295 2.648l.111.159.07.097c.588.867 1.47 1.2 2.427 1.518.27.088.54.174.809.26l.39.132c.375.12.626.217.926.47.138.32.208.484.233.655.027.182.003.372-.048.763-.06.157-.093.24-.15.3-.066.066-.163.1-.371.175-.898.209-1.66.108-2.476-.326-.55-.304-.996-.395-1.62-.447-.433.583-.81 1.092-1.043 1.788.067.06.133.117.199.174 1.6 1.313 3.324 1.448 5.312 1.315 1.165-.389 1.986-.9 2.681-1.936a4.617 4.617 0 0 0 .298-3.426c-.688-1.32-1.898-1.805-3.248-2.262l-.217-.068c-.586-.183-1.137-.356-1.599-.797-.146-.407-.17-.65-.074-1.071.099-.139.154-.216.226-.272.091-.07.208-.108.472-.193.862-.156 1.463-.05 2.225.363.356.213.535.28.955.274.17-.067.261-.103.337-.16.087-.064.154-.157.297-.356.078-.155.152-.306.225-.456.137-.27.271-.54.4-.81-.193-.199-.271-.28-.355-.355ZM55.458.282l.357.003h.19a51.527 51.527 0 0 1 .59.004h.01c.135.002.269.002.407.002l.5.004.498.003c.005 1.59.006 3.178.008 4.767v.004l.004 2.213.002 1.057v.01l.001 1.069a288.446 288.446 0 0 1 .004 2.301c0 .574 0 .723-.069.83-.023.036-.055.068-.099.111a8.81 8.81 0 0 1-.595.02H55.442c-.144-.011-.208-.016-.262-.043a.628.628 0 0 1-.148-.126c-.015-.375-.02-.746-.02-1.121V1.23c.002-.573.003-.79.11-.878.064-.054.168-.06.336-.07ZM36.862 7.895c-.682-.358-1.345-.672-2.085-.894-.27.72-.587 1.352-1.067 1.955-.776.787-1.651 1.068-2.74 1.107-1.612-.077-2.49-.785-3.627-1.863l-.16-.157-.151-.148-.447.149-.149.446h-.298c-.464.492-.596.644-.596 1.34 1.13 1.293 2.649 2.281 4.32 2.682 1.803.205 3.433-.172 4.91-1.237 1.046-.874 1.917-1.994 2.09-3.38Z"/></g><defs><clipPath id="a"><path fill="#fff" d="M.074.001h83.851v28H.075z"/></clipPath></defs></svg>