<svg width="84" height="28" viewBox="0 0 84 28" fill="none" xmlns="http://www.w3.org/2000/svg">
<g clip-path="url(#clip0_4416_8566)">
<path d="M83.4371 1.42683C83.325 1.31726 83.1938 1.22723 82.8091 0.963195C81.0531 -0.0614855 78.7908 -0.201485 76.8516 0.382344C75.0644 1.08979 73.8476 2.11894 73.0538 3.87341C72.2718 6.17596 72.6025 7.99149 73.6495 10.1287H73.9474V10.4266C74.4448 11.1072 75.0882 11.5615 75.8269 11.9532C77.6723 12.814 79.6323 13.1238 81.5893 12.5043L81.6068 12.4982L81.6079 12.4979C81.7876 12.4361 81.9632 12.3756 82.1389 12.3166C82.6452 12.1453 83.0742 11.9949 83.5061 11.6777C83.8159 11.2681 83.8457 10.9911 83.8472 10.4847C83.8457 10.375 83.8427 10.2683 83.8398 10.1616L83.8397 10.16C83.8397 9.93064 83.8382 9.70277 83.8367 9.4749C83.8293 9.11596 83.8233 8.75702 83.8204 8.39809L83.8159 7.69362L83.8114 7.35703C83.8084 6.98915 83.7965 6.62426 83.7772 6.25639C83.7234 6.20257 83.689 6.16821 83.6481 6.14548C83.5759 6.10531 83.4835 6.10153 83.2276 6.09107C82.9627 6.09107 82.9624 6.09107 82.7003 6.09256C82.5559 6.0933 82.4117 6.09367 82.2676 6.09405C82.1236 6.09442 81.9795 6.09479 81.835 6.09554C81.634 6.09702 81.4329 6.09851 81.2304 6.09851C81.0335 6.09951 80.8369 6.10033 80.6403 6.10116C80.2463 6.10281 79.8525 6.10447 79.458 6.10745C79.3538 6.30405 79.2555 6.50213 79.1601 6.7032C79.0842 7.20958 79.0365 7.72043 79.3418 8.15234C79.6069 8.34149 79.6069 8.34149 79.9435 8.38468C80.1138 8.37708 80.2844 8.36987 80.4553 8.36265C80.6192 8.35572 80.7833 8.34879 80.9474 8.34149V10.1287C79.9972 10.3343 78.9829 10.4311 78.0372 10.1764C77.0542 9.78022 76.5538 9.21426 76.0593 8.27596C75.6676 7.10085 75.7093 5.68447 76.1248 4.52426C76.5329 3.66639 77.1152 3.20468 77.9865 2.84873C79.1795 2.50171 80.2891 2.69383 81.3942 3.22107C81.7844 3.43256 81.7844 3.43256 82.1389 3.57554C82.5544 3.5532 82.6929 3.4683 82.9878 3.17192C83.1017 3.01709 83.104 3.01406 83.2124 2.86761L83.2132 2.8665L83.2139 2.86556L83.2155 2.86343L83.2187 2.85915C83.5821 2.37958 83.6282 2.27383 83.6282 1.63937C83.548 1.54542 83.4951 1.48351 83.4371 1.42683Z" fill="#919EAB"/>
<path d="M22.7223 2.8727C22.4838 2.48451 22.0927 2.1901 20.8045 1.22031C19.2466 0.186693 17.58 -0.103733 15.7496 0.261161L15.2656 0.447331C13.7345 0.98797 12.6443 1.98137 11.7566 3.33371C10.9673 4.77095 10.8303 6.6118 11.2443 8.19201C11.8907 9.84372 12.8826 11.1201 14.4881 11.9169C14.5461 11.9432 14.6036 11.9687 14.6608 11.9939L14.6619 11.9944C14.7145 12.0177 14.7668 12.0409 14.8188 12.0644C15.97 12.6095 17.1437 12.5901 18.3932 12.5112C21.6192 11.4358 24.2047 8.72074 26.199 6.06818C26.6026 5.52605 27.03 5.02265 27.4888 4.5252L27.4944 4.51925C27.7942 4.20022 28.0426 3.93597 28.2409 3.5452C28.3526 3.25031 28.3526 3.25031 28.6698 3.11925L29.1166 2.97925C29.352 2.89286 29.5873 2.80946 29.8241 2.72754C30.9947 2.38648 31.9166 2.60393 32.989 3.12818V3.42606L32.5422 3.72393C32.6911 4.17074 32.6911 4.17074 33.059 4.38818C33.1276 4.41999 33.1957 4.45127 33.2633 4.48236L33.2643 4.48281L33.2661 4.48363C33.3589 4.52627 33.4515 4.56881 33.543 4.61159L33.7456 4.70493C33.8528 4.75426 33.9596 4.80344 34.0658 4.85286C34.3428 4.97797 34.6198 5.10308 34.8954 5.23116C34.9664 5.26419 35.0374 5.29734 35.1083 5.33048C35.5874 5.55437 36.0653 5.77764 36.5634 5.95797L36.5644 5.95751C36.6396 5.92029 36.677 5.90175 36.7144 5.88306C36.7513 5.86459 36.7882 5.84597 36.8613 5.80903C36.8747 5.02414 36.8405 4.25861 36.763 3.47669L36.7422 3.27596L36.7228 3.08201C36.7149 3.00152 36.7073 2.92148 36.6999 2.84185C36.6469 2.27904 36.5959 1.73608 36.4145 1.19201C36.0735 1.33499 35.7294 1.46754 35.3839 1.6001C35.2269 1.6353 35.1473 1.65317 35.0736 1.6393C34.9976 1.625 34.928 1.57698 34.7866 1.47946C33.2869 0.305842 31.7424 -0.00543461 29.8613 0.149459C28.229 0.465204 26.8349 1.40052 25.8118 2.6918C25.6241 2.93754 25.4349 3.1818 25.2443 3.42606C24.5086 4.16329 23.7698 4.92286 23.2783 5.85074C23.2587 5.89373 23.239 5.93565 23.2195 5.97721C23.1991 6.02058 23.179 6.06355 23.1592 6.10691H22.8613C22.3222 6.91712 21.6713 7.68712 20.9028 8.28882L20.8143 8.35361C20.7513 8.39971 20.6893 8.44517 20.6273 8.48989C19.6071 9.24052 18.6286 9.94499 17.3507 10.1282C16.1175 10.1922 15.3415 9.6501 14.4092 8.9084C13.8328 8.18754 13.4545 7.32967 13.4143 6.39584C13.5409 5.24754 13.8522 4.38223 14.6594 3.53478C15.5754 2.77074 16.5673 2.61435 17.732 2.64563C18.9711 2.76776 19.7098 3.35606 20.5066 4.2735C20.5504 4.3254 20.5923 4.37626 20.6331 4.42578C20.972 4.83677 21.2353 5.15614 21.8188 5.21329L22.0854 4.94669L22.4249 4.58925C22.4533 4.56005 22.4808 4.53205 22.5074 4.50499L22.5082 4.50417C22.8256 4.18116 23.0115 3.9919 23.0088 3.49754C22.9012 3.22896 22.8262 3.04192 22.7223 2.8727Z" fill="#919EAB"/>
<path d="M40.8989 0.172944L40.5758 0.168476L40.5356 0.166604C39.9762 0.140466 39.489 0.117704 38.9464 0.29954V0.323774C38.9434 1.7589 38.9404 3.1955 38.9389 4.63209C38.9389 5.36784 38.9375 6.10358 38.936 6.83933L38.936 6.84378C38.9345 7.56463 38.933 8.284 38.933 9.00486C38.933 9.2789 38.933 9.55145 38.9315 9.8255C38.9315 10.0236 38.9311 10.2213 38.9307 10.419C38.9304 10.6167 38.93 10.8144 38.93 11.0125V11.3729C38.93 11.4322 38.9296 11.4902 38.9293 11.5479C38.9289 11.6049 38.9285 11.6615 38.9285 11.7185C38.9285 11.7913 38.9244 11.8638 38.9204 11.9352C38.9052 12.2025 38.8909 12.4556 39.0953 12.6612C39.3828 12.6687 39.6687 12.6746 39.9562 12.6732C40.0137 12.6724 40.0701 12.672 40.1259 12.6717C40.1829 12.6713 40.2393 12.6709 40.2957 12.6702L41.4783 12.6612C41.4932 11.8555 41.5081 11.0512 41.5245 10.247C41.5275 10.0832 41.5308 9.91895 41.5342 9.75475C41.5375 9.59055 41.5409 9.42635 41.5438 9.26252L41.5706 7.81039C41.5722 7.73046 41.5741 7.65209 41.576 7.57428L41.576 7.57145C41.5778 7.49818 41.5796 7.42479 41.5811 7.35167L41.5811 7.34927C41.5826 7.23618 41.5833 7.17999 41.5843 7.12381C41.5852 7.06917 41.5863 7.01454 41.5885 6.90761L41.5885 6.9059L41.5975 6.48933C41.6049 6.05443 41.6362 5.78188 41.7762 5.36337C42.0815 5.96954 42.3868 6.57422 42.6936 7.1789C42.7688 7.32829 42.8444 7.47715 42.92 7.62579L42.9214 7.62851C42.9712 7.72643 43.0209 7.82426 43.0704 7.92209L43.0709 7.92303C43.2539 8.28749 43.437 8.65231 43.6215 9.01528C43.6811 9.13294 43.7392 9.24762 43.7987 9.36231C44.0043 9.77635 44.2113 10.1844 44.457 10.5761C44.4973 10.6217 44.5356 10.6659 44.5726 10.7086C44.8679 11.0492 45.0799 11.2937 45.5577 11.3983C45.73 11.3864 45.7306 11.3863 45.9002 11.3759C46.0855 11.3679 46.1714 11.3642 46.257 11.3563C46.331 11.3495 46.4047 11.3395 46.5421 11.3208C47.044 11.0691 47.044 11.0691 48.73 7.76422C48.7882 7.65076 48.8445 7.53992 48.9005 7.42952L48.9862 7.26082C49.0706 7.0979 49.1521 6.9394 49.2335 6.78092L49.2349 6.77826C49.4955 6.26741 49.7681 5.81763 50.1166 5.36337C50.1136 6.20784 50.1106 7.05231 50.1092 7.89677C50.1092 8.24082 50.1092 8.58337 50.1077 8.92741C50.1072 9.09778 50.1065 9.26799 50.1058 9.43809C50.1045 9.77652 50.1032 10.1145 50.1032 10.4525C50.1032 10.6163 50.1032 10.7742 50.1017 10.9336C50.1017 11.0138 50.1013 11.0933 50.101 11.1722C50.1006 11.2501 50.1002 11.3273 50.1002 11.4042V11.8391C50.1002 12.0625 50.1032 12.2874 50.1166 12.5123C50.2849 12.6791 50.2849 12.6791 51.1189 12.6806C51.2901 12.6806 51.2902 12.6806 51.4567 12.6791C51.8559 12.6806 52.2509 12.6746 52.6485 12.6612C52.6919 12.6179 52.724 12.5858 52.7477 12.5484C52.8154 12.442 52.8157 12.2927 52.8168 11.7185C52.8153 11.6008 52.8153 11.4876 52.8153 11.3729C52.8153 10.9932 52.8153 10.6134 52.8138 10.2336C52.8123 9.96252 52.8123 9.68997 52.8123 9.41741C52.8116 9.06393 52.8112 8.71044 52.8109 8.35714V8.35165C52.8105 7.99524 52.8101 7.63901 52.8094 7.28316L52.8049 5.06848C52.8034 3.47784 52.8019 1.88869 52.7975 0.29954C52.4698 0.289114 52.1421 0.281667 51.8145 0.277199C51.679 0.274254 51.5465 0.272765 51.4154 0.271293L51.4109 0.271242C51.3461 0.269107 51.2823 0.267312 51.2191 0.265532C51.1501 0.263587 51.0816 0.26166 51.0132 0.259327L50.6304 0.254859C50.2789 0.247412 50.2789 0.247412 49.9677 0.29954C49.707 0.514008 49.5432 0.709114 49.3645 0.995072L49.2934 1.13146C49.2688 1.17872 49.2444 1.2256 49.22 1.27209L49.139 1.42639L49.1383 1.42773L49.1346 1.43481C49.1064 1.48843 49.0785 1.54167 49.0502 1.59528L48.87 1.94677C48.2281 3.17699 47.6085 4.41762 46.9889 5.66124L46.9013 5.83832C46.8454 5.95142 46.7902 6.06325 46.7343 6.17507C46.6538 6.3389 46.5749 6.49826 46.496 6.65614C46.28 7.09252 46.0685 7.48869 45.7975 7.89528L45.5735 7.44747L45.5728 7.44617C45.1991 6.6992 44.8253 5.95189 44.4555 5.20252C44.3563 5.00103 44.2566 4.79918 44.157 4.59732L44.151 4.58518C44.0493 4.37927 43.9477 4.17337 43.8464 3.96784C43.7425 3.76004 43.6401 3.55224 43.5376 3.34444L43.5366 3.34231C43.3787 3.02358 43.2223 2.70635 43.066 2.38762L42.9899 2.23523L42.9155 2.08528C42.6638 1.57145 42.4002 1.08443 42.0755 0.612306C41.7062 0.225072 41.4232 0.198263 40.8989 0.172944Z" fill="#919EAB"/>
<path d="M37.6064 15.4903C38.0651 15.468 38.5238 15.4561 38.984 15.4442L39.0172 15.4426L39.1064 15.4382L39.1695 15.435C39.2383 15.4315 39.3076 15.4279 39.3772 15.4248C39.955 15.4141 40.1874 15.4098 40.3786 15.4965C40.5072 15.5549 40.6171 15.6544 40.8011 15.821C40.8546 15.9176 40.9081 16.0134 40.9627 16.1111L41.0319 16.235C41.0753 16.3093 41.1181 16.3842 41.1614 16.4601L41.233 16.585L41.2923 16.7041C41.3324 16.7845 41.3729 16.8658 41.4147 16.9484L41.5168 17.153L41.6217 17.364C41.6932 17.5099 41.7647 17.6559 41.8391 17.8063C41.8845 17.8961 41.9293 17.9864 41.9745 18.0776L41.975 18.0786C42.0054 18.1399 42.036 18.2015 42.067 18.2635C42.2267 18.584 42.3851 18.9044 42.5435 19.2248C42.6229 19.3855 42.7023 19.5461 42.7819 19.7067C42.9434 20.0327 43.1049 20.3572 43.2664 20.6817L43.2689 20.6867C43.6666 21.4865 44.0628 22.2863 44.4574 23.0861C45.1798 21.7203 45.9006 20.3531 46.6036 18.9755L46.6794 18.8255L46.757 18.6731L46.8621 18.4676C47.0325 18.1344 47.2026 17.8018 47.3706 17.4682C47.524 17.1659 47.6774 16.865 47.8323 16.5642C47.8743 16.481 47.9166 16.3978 47.9592 16.314L47.9626 16.3073C48.008 16.218 48.0542 16.127 48.1004 16.0355C48.2318 15.8085 48.288 15.7115 48.368 15.6421C48.4276 15.5904 48.5005 15.5539 48.6277 15.4903C48.8436 15.4784 49.0596 15.474 49.2755 15.4755L49.3697 15.4762L49.4654 15.4768C49.5138 15.4769 49.5622 15.4769 49.6598 15.4769L50.0604 15.4814C50.127 15.4814 50.1936 15.4818 50.2605 15.4821C50.3283 15.4825 50.3966 15.4829 50.4655 15.4829C50.796 15.4844 51.1264 15.4874 51.4568 15.4903C51.4598 17.0795 51.4634 18.6701 51.4649 20.2593C51.4654 20.5052 51.4657 20.751 51.466 20.9967C51.4667 21.489 51.4674 21.9812 51.4694 22.474C51.4708 23.1859 51.4708 23.8978 51.4708 24.6097C51.4716 24.7456 51.472 24.8819 51.4723 25.0183C51.4727 25.154 51.4731 25.29 51.4738 25.4259V26.5652C51.4753 26.6784 51.4753 26.7931 51.4753 26.9093C51.4738 27.6867 51.4738 27.6867 51.3085 27.852H48.9255L48.7766 20.1074L47.5851 22.4903C47.2485 23.1561 46.9119 23.8189 46.5708 24.4831L46.3177 24.9806C46.2373 25.1368 46.1567 25.2935 46.0749 25.4542C46.0034 25.5927 45.9319 25.7327 45.8589 25.8757C45.6489 26.2138 45.6489 26.2138 45.2021 26.5116C45.0527 26.5381 44.9746 26.5519 44.8964 26.5602C44.812 26.5691 44.7268 26.5717 44.5499 26.5772C44.4382 26.5831 44.3264 26.5891 44.2117 26.595C43.7524 26.4864 43.53 26.2342 43.2414 25.9069C43.2014 25.8616 43.1603 25.8149 43.117 25.7669C42.8683 25.3529 42.8683 25.3529 42.6523 24.9046C42.6037 24.8047 42.5546 24.7054 42.5049 24.6049C42.4724 24.5391 42.4396 24.4729 42.4066 24.4057L42.4052 24.4028L42.4048 24.4018C42.3235 24.2318 42.2421 24.0618 42.1579 23.8874C41.994 23.5493 41.8302 23.2127 41.6649 22.8761C41.611 22.7643 41.5565 22.6526 41.5013 22.5394L41.4236 22.3801C41.0647 21.6623 40.6774 20.9593 40.2872 20.2563L40.2828 20.5378L40.2819 20.5854L40.2819 20.587L40.2819 20.5895L40.2819 20.5905L40.2818 20.5918L40.2818 20.5928C40.2657 21.538 40.2496 22.485 40.2321 23.4301C40.2247 23.7906 40.2187 24.1495 40.2128 24.5099C40.2078 24.8567 40.2014 25.2035 40.1951 25.5499C40.192 25.7197 40.1889 25.8893 40.186 26.0589L40.1838 26.1765L40.1817 26.3024C40.1808 26.3638 40.18 26.4252 40.1785 26.5481L40.1785 26.5503L40.1696 27.0031C40.1666 27.1342 40.1636 27.2667 40.1621 27.4023C40.1483 27.5767 40.1425 27.65 40.111 27.7098C40.0882 27.7532 40.052 27.7894 39.9894 27.852C39.6155 27.8669 39.2462 27.8729 38.8723 27.8699C38.8198 27.8707 38.7669 27.871 38.7136 27.8714C38.6612 27.8718 38.6082 27.8722 38.5551 27.8729C37.978 27.8718 37.8276 27.8715 37.7204 27.8034C37.6826 27.7794 37.6502 27.747 37.6064 27.7031C37.5915 27.3218 37.587 26.9465 37.59 26.5652V26.2048C37.59 25.8086 37.59 25.4125 37.5915 25.0163C37.5915 24.8808 37.5919 24.7449 37.5922 24.6088V24.6077C37.5926 24.4706 37.593 24.3329 37.593 24.1957C37.593 23.4785 37.5945 22.7598 37.596 22.0426V22.0316L37.596 22.026C37.5974 21.2921 37.5989 20.5583 37.5989 19.8244C37.6004 18.3797 37.6034 16.935 37.6064 15.4903Z" fill="#919EAB"/>
<path fill-rule="evenodd" clip-rule="evenodd" d="M2.69571 0.282375C1.8706 0.285354 1.04699 0.291312 0.22337 0.298758C0.220391 1.74344 0.217412 3.18812 0.215923 4.6328C0.215923 5.36855 0.214434 6.10429 0.212944 6.84003C0.211455 7.56089 0.209966 8.28323 0.209966 9.00408C0.209966 9.14129 0.209592 9.27849 0.209219 9.41551C0.208848 9.55216 0.208476 9.68863 0.208476 9.82472C0.206987 10.2209 0.206987 10.6171 0.206987 11.0132V11.3737C0.204008 11.7549 0.208476 12.1302 0.22337 12.5115C0.265622 12.5538 0.297081 12.5852 0.33365 12.6087C0.440159 12.6771 0.590063 12.678 1.17655 12.6813C1.26406 12.6813 1.30726 12.6813 1.35044 12.6811C1.39251 12.6809 1.43458 12.6806 1.51763 12.6798C1.63677 12.6798 1.75592 12.6802 1.87507 12.6806C1.99422 12.6809 2.11337 12.6813 2.23252 12.6813C2.60933 12.6798 2.98614 12.6783 3.36145 12.6798C3.48358 12.6798 3.60608 12.6802 3.72858 12.6806C3.85108 12.6809 3.97358 12.6813 4.09571 12.6813C4.18582 12.6806 4.2305 12.6802 4.27518 12.68C4.31911 12.6798 4.36305 12.6798 4.45018 12.6798C5.40784 12.6828 6.37294 12.6768 7.29784 12.3998C7.36097 12.3686 7.42299 12.3374 7.48464 12.3064L7.48582 12.3058L7.48673 12.3054C7.5479 12.2746 7.609 12.2439 7.67018 12.2137C8.24656 11.9396 8.70826 11.6402 9.1372 11.1622C9.85656 10.1256 9.88635 9.12769 9.75529 7.8945C9.41869 7.22131 9.05677 6.78344 8.36869 6.49748L8.32706 6.48798C8.20499 6.46013 8.08712 6.43324 7.96805 6.40514V5.95833C8.26592 5.95833 8.26592 5.95833 8.54592 5.79152C9.1238 5.28067 9.43358 4.82642 9.52146 4.05195L9.50358 3.46365C9.48571 2.48067 9.3755 2.0711 8.71273 1.34131C7.63592 0.487907 6.47422 0.264503 5.12039 0.264503C5.02468 0.26601 4.9774 0.266755 4.93012 0.267316C4.88396 0.267863 4.83779 0.268235 4.74656 0.268971L4.74434 0.268979C4.34146 0.270466 3.9371 0.271958 3.53422 0.276418C3.25571 0.279381 2.9772 0.28087 2.70016 0.282352L2.69571 0.282375ZM2.90422 5.51152V2.5328L4.21635 2.52386C4.32164 2.52236 4.37388 2.52161 4.42598 2.52105C4.4768 2.52051 4.52762 2.52014 4.62782 2.5194L4.6289 2.5194C4.71119 2.5194 4.75215 2.5194 4.7931 2.51921C4.83366 2.51902 4.87423 2.51865 4.95494 2.51791C5.46877 2.51493 5.85018 2.55067 6.2806 2.86195C6.51146 3.12706 6.51146 3.12706 6.52784 3.52472C6.52572 3.59594 6.52394 3.66617 6.52218 3.73571C6.52022 3.81297 6.51827 3.88956 6.51592 3.96557C6.51473 4.03627 6.5169 4.10655 6.51905 4.17581C6.52756 4.45089 6.53559 4.70995 6.32975 4.91578C5.78018 5.3328 5.35869 5.41174 4.67209 5.40131C4.61515 5.39977 4.559 5.39784 4.50324 5.39591C4.45109 5.39411 4.39922 5.39232 4.34741 5.39089L4.33492 5.39063C4.12189 5.38625 3.90965 5.38189 3.69656 5.37897C3.57144 5.37448 3.50926 5.37224 3.44708 5.37018C3.38593 5.36816 3.32478 5.36631 3.20379 5.36264L3.20235 5.3626L3.20209 5.66046L2.90422 5.51152ZM3.1872 8.19833C3.18571 7.99727 3.18869 7.79621 3.20209 7.59663C3.41899 7.49106 3.53129 7.43639 3.64973 7.4136C3.7769 7.38912 3.91115 7.40139 4.18954 7.42684C4.24595 7.42759 4.30163 7.42796 4.35711 7.42833C4.41296 7.4287 4.46862 7.42907 4.52465 7.42982C4.92826 7.42684 5.3289 7.4328 5.73401 7.44769C6.26273 7.62344 6.4489 7.7411 6.77656 8.19238C6.85103 8.75386 6.88529 9.31684 6.62763 9.83067C6.05124 10.2998 5.57614 10.3251 4.86422 10.3162C4.79888 10.3146 4.73435 10.3127 4.67041 10.3107C4.61194 10.309 4.55398 10.3072 4.49635 10.3058C4.06443 10.2983 3.63401 10.2894 3.20209 10.2775L3.20201 10.2689C3.19906 9.95606 3.19612 9.64457 3.19465 9.33174C3.19465 9.26587 3.19427 9.20112 3.1939 9.13675C3.19353 9.07308 3.19316 9.00967 3.19316 8.94599L3.18869 8.56323C3.18869 8.43812 3.18869 8.31748 3.1872 8.19833Z" fill="#919EAB"/>
<path d="M60.9166 0.141747L61.1489 0.155025L61.3902 0.168556C61.462 0.171345 61.5342 0.17446 61.6068 0.177596C61.6893 0.181158 61.7724 0.18475 61.8564 0.187917C62.8281 0.415594 63.3941 1.19819 63.9515 1.96906L63.9522 1.96992C64.0071 2.04593 64.062 2.12183 64.1172 2.19707C64.8872 3.2277 65.6855 4.23005 66.5091 5.21749C66.9485 5.74324 67.3774 6.27345 67.796 6.81409L67.9336 6.99178L68.076 7.176C68.146 7.26536 68.216 7.35473 68.2875 7.44707L68.2919 7.18345C68.3083 6.27643 68.3247 5.3709 68.3426 4.46536C68.3455 4.29632 68.3489 4.12691 68.3522 3.95749C68.3556 3.78808 68.3589 3.61866 68.3619 3.44962C68.3668 3.12806 68.3731 2.80649 68.3793 2.48493L68.3794 2.47938C68.3826 2.31726 68.3857 2.15514 68.3887 1.99302L68.3888 1.99088C68.3917 1.83968 68.3947 1.68845 68.3962 1.53132L68.4051 1.10685C68.4066 1.04557 68.4077 0.984293 68.4088 0.922469L68.4088 0.920069L68.4089 0.917819L68.4089 0.915722C68.41 0.85504 68.4111 0.793815 68.4126 0.731534C68.4261 0.570143 68.4319 0.500244 68.4617 0.442832C68.4844 0.399085 68.5209 0.362532 68.5853 0.29813C69.0113 0.287704 69.4343 0.284726 69.8602 0.289194C69.9209 0.289943 69.9812 0.290315 70.0419 0.29069C70.1019 0.29106 70.1622 0.291432 70.2236 0.292173C70.3726 0.292917 70.5215 0.294034 70.6704 0.295151C70.8194 0.296268 70.9683 0.297385 71.1172 0.29813C71.1202 1.88877 71.1232 3.47792 71.1247 5.06856C71.1254 5.43736 71.1258 5.80653 71.1262 6.1759C71.1265 6.54489 71.1269 6.91406 71.1277 7.28324C71.1292 7.99366 71.1306 8.70558 71.1306 9.41749C71.1321 9.68867 71.1321 9.95985 71.1321 10.2296V10.2337C71.1336 10.6134 71.1336 10.9932 71.1336 11.373C71.1351 11.4877 71.1351 11.6009 71.1351 11.7186C71.134 12.2934 71.1337 12.4427 71.0662 12.5485C71.0427 12.5854 71.011 12.6171 70.9683 12.6598C70.7077 12.6837 70.447 12.6941 70.1864 12.6971L69.756 12.709C68.8623 12.6062 68.3843 12.0403 67.8406 11.376C67.7828 11.3071 67.725 11.2372 67.6663 11.1663L67.6292 11.1213C66.9753 10.329 66.3543 9.50834 65.7347 8.68919C64.8589 7.53643 63.9579 6.38068 62.9257 5.36196C62.9257 5.45132 62.9257 5.54068 62.9272 5.63302C62.9302 6.55792 62.9317 7.4843 62.9332 8.40919L62.9332 8.41184C62.9347 8.75649 62.9362 9.10114 62.9362 9.44579C62.9382 9.77657 62.9388 10.1073 62.9395 10.4381C62.9398 10.6033 62.9401 10.7685 62.9406 10.9337C62.9406 11.0106 62.941 11.0878 62.9414 11.1656C62.9417 11.2446 62.9421 11.3241 62.9421 11.4043V11.8377C62.9421 11.9014 62.9425 11.9647 62.9429 12.0282C62.9432 12.0922 62.9436 12.157 62.9436 12.222C62.9257 12.5109 62.9257 12.5109 62.7768 12.6598C62.3747 12.6717 61.977 12.6747 61.5764 12.6703C61.5194 12.6695 61.4625 12.6691 61.4052 12.6688C61.3485 12.6684 61.2915 12.668 61.2338 12.6673C60.9538 12.6658 60.6738 12.6628 60.3938 12.6598C60.3909 11.0513 60.3879 9.44281 60.3864 7.83281L60.3819 5.59132C60.3812 5.23136 60.3808 4.87177 60.3804 4.51217C60.3801 4.15166 60.3797 3.79115 60.3789 3.43026C60.3789 3.15473 60.3789 2.87919 60.3774 2.60366C60.3774 2.41153 60.3771 2.21941 60.3767 2.02728C60.3763 1.83515 60.376 1.64302 60.376 1.4509C60.376 1.33473 60.376 1.22004 60.3745 1.10239C60.3762 0.539009 60.377 0.31018 60.4901 0.214741C60.5676 0.14946 60.6976 0.146587 60.9166 0.141747Z" fill="#919EAB"/>
<path d="M23.4295 16.4026C23.7214 16.6438 23.8838 16.7898 24.0536 17.1294C23.9017 17.3796 23.7453 17.6268 23.5874 17.874C23.5154 17.9882 23.4434 18.1034 23.3697 18.2214L23.3253 18.2926C23.167 18.4569 23.0884 18.5384 22.9931 18.5871C22.8991 18.635 22.7889 18.651 22.5702 18.6828C22.1323 18.6202 21.8225 18.5249 21.4278 18.3298C20.4404 17.8457 19.3844 17.6402 18.3121 18.0006C17.9859 18.1481 17.6702 18.3075 17.3514 18.4698C17.204 18.5175 17.0565 18.5666 16.9046 18.6187C16.8309 18.7266 16.7898 18.7869 16.7556 18.8508C16.7122 18.9316 16.6799 19.0182 16.6068 19.2145C16.5263 19.3709 16.4459 19.5272 16.364 19.6881C15.9157 20.9198 15.9202 22.5998 16.4757 23.7928C16.9225 24.533 17.4095 24.9768 18.1885 25.367C19.2265 25.5785 20.3376 25.5502 21.3727 25.3209V23.5336C21.0894 23.5403 20.947 23.5437 20.8053 23.5472C20.6635 23.5507 20.5217 23.5545 20.2384 23.5619C20.0746 23.5488 19.9859 23.5418 19.9091 23.5086C19.8197 23.47 19.7457 23.3959 19.5855 23.2357C19.5718 23.0279 19.5644 22.9155 19.5614 22.8029C19.5579 22.6703 19.5605 22.5375 19.5661 22.2483L19.5751 21.7121C19.578 21.5751 19.581 21.4396 19.5855 21.2996C20.1976 21.2951 20.8097 21.2921 21.4219 21.2906C21.6304 21.2906 21.8389 21.2892 22.0474 21.2877C22.3468 21.2862 22.6461 21.2847 22.9455 21.2847L23.4906 21.2817C23.7579 21.2932 23.8526 21.2973 23.9263 21.3388C23.9667 21.3616 24.0008 21.3957 24.0536 21.4485C24.1117 22.156 24.1251 22.8634 24.1385 23.5738C24.1429 23.8121 24.1519 24.0504 24.1623 24.2887C24.2502 26.2428 24.2502 26.2428 23.8004 26.8564C23.4459 27.1096 23.1227 27.26 22.7131 27.406L22.6415 27.4342C22.5442 27.4726 22.446 27.5113 22.3468 27.5519C21.471 27.8587 20.6191 27.9332 19.6972 27.9272C19.5617 27.9257 19.4246 27.9243 19.2846 27.9243C17.5063 27.8766 15.9559 27.3375 14.6706 26.0655C13.3853 24.6909 12.8253 23.1375 12.8506 21.2653C12.9519 19.9592 13.3599 18.8153 14.0748 17.7251C14.1068 17.6761 14.1385 17.627 14.1704 17.5779C14.2246 17.4941 14.2792 17.4099 14.3355 17.3245C16.571 15.0249 20.7904 14.4858 23.4295 16.4026Z" fill="#919EAB"/>
<path fill-rule="evenodd" clip-rule="evenodd" d="M29.4458 15.4749C29.383 15.4746 29.3205 15.4742 29.2584 15.4734C29.1012 15.4827 29.009 15.4881 28.9389 15.5302C28.8396 15.5897 28.7843 15.7227 28.6507 16.0439C28.6005 16.173 28.5517 16.3 28.5034 16.4258L28.4378 16.5964C28.3112 16.9195 28.1862 17.2441 28.0611 17.5686C28.0049 17.7133 27.9491 17.8582 27.8934 18.0032L27.7899 18.272L27.6963 18.5137C27.5847 18.8017 27.4729 19.0901 27.3624 19.3785C27.0378 20.2171 26.7131 21.0556 26.3854 21.8926C26.1471 22.4973 25.9103 23.102 25.675 23.7066C25.6169 23.8548 25.5592 24.0026 25.5015 24.1505C25.4438 24.2983 25.3861 24.4461 25.328 24.5943L25.1369 25.0806C25.0317 25.3482 24.9264 25.6161 24.8216 25.8841C24.7695 26.0181 24.7188 26.1492 24.6682 26.2803L24.6678 26.2814C24.5726 26.5222 24.4774 26.7633 24.3852 27.0041C24.202 27.5537 24.202 27.5537 24.351 27.8515C24.6041 27.8605 24.8559 27.8679 25.109 27.8739L25.4218 27.8798C26.0012 27.9022 26.4748 27.9022 27.0139 27.6564C27.1794 27.5248 27.2832 27.4423 27.3648 27.3418C27.5021 27.1726 27.5766 26.9525 27.7765 26.3622L28.0744 25.0217L32.6914 25.1707L32.9893 25.9154C33.0339 26.0464 33.0786 26.173 33.1233 26.2981L33.2588 26.6794C33.3929 27.0622 33.3929 27.0622 33.585 27.4047C34.1003 27.8351 34.5233 27.9007 35.189 27.8917L35.2462 27.8894L35.3337 27.8861C35.3872 27.8841 35.44 27.8822 35.4929 27.8798C35.8503 27.8724 36.2063 27.8634 36.5637 27.8515L36.7127 27.5537C36.6352 27.3124 36.5533 27.0696 36.461 26.8328C36.4193 26.73 36.379 26.6303 36.3388 26.5305L36.3382 26.5289C36.2074 26.1958 36.0765 25.8627 35.9427 25.5296L35.9418 25.5274C35.7992 25.1679 35.6563 24.8078 35.5152 24.4483C35.4748 24.3451 35.4341 24.2418 35.3933 24.1384C35.3366 23.9944 35.2796 23.8499 35.2233 23.7051C34.8822 22.8443 34.5456 21.982 34.2165 21.1166L34.1488 20.938L34.0839 20.7681C33.9141 20.3213 33.7444 19.8745 33.5761 19.4277C33.0741 18.0947 32.5588 16.7781 31.9467 15.4898C31.7717 15.4883 31.5963 15.4872 31.421 15.4861C31.2456 15.485 31.0702 15.4839 30.8952 15.4824C30.7493 15.4824 30.6078 15.4824 30.4663 15.4809L30.0403 15.4779C29.9018 15.4764 29.7678 15.4764 29.6337 15.4764C29.5709 15.4757 29.5079 15.4753 29.4458 15.4749ZM30.3084 18.3196C30.4655 18.3799 30.5511 18.4127 30.6095 18.4723C30.6795 18.5439 30.7101 18.6539 30.7776 18.896L30.8706 19.1837L30.9607 19.4605C31.0635 19.7703 31.1648 20.08 31.2646 20.3898C31.3346 20.6058 31.4046 20.8203 31.4761 21.0362C31.6831 21.6692 31.8901 22.3037 32.0956 22.9366H28.819L30.3084 18.3196Z" fill="#919EAB"/>
<path d="M53.6915 15.4903H61.734V17.7244H56.6702L56.8192 20.4052L60.5426 20.5541V22.6393H56.6702V25.469H61.734V27.7031C61.5372 27.9 61.3116 27.8894 61.0558 27.8774C60.9924 27.8744 60.927 27.8714 60.8598 27.8714C60.7447 27.8714 60.6867 27.8714 60.6286 27.8716L60.5759 27.8718L60.3906 27.8729C60.2663 27.8729 60.2034 27.8729 60.1404 27.8727C60.076 27.8725 60.0116 27.8721 59.8813 27.8714C59.7547 27.8714 59.6906 27.8714 59.6266 27.8716C59.5611 27.8717 59.4956 27.8721 59.363 27.8729C59.1813 27.8729 58.9996 27.8725 58.8179 27.8721L58.8151 27.8721C58.6343 27.8717 58.4536 27.8714 58.2728 27.8714C57.7158 27.8714 57.1572 27.8714 56.5987 27.8729C56.423 27.8729 56.2472 27.8725 56.0715 27.8721C55.8957 27.8718 55.72 27.8714 55.5443 27.8714C55.4609 27.8714 55.3775 27.8717 55.2936 27.8721C55.2084 27.8725 55.1218 27.8729 55.0349 27.8729L54.8929 27.872L54.8037 27.8716C54.7445 27.8714 54.6853 27.8714 54.5658 27.8714H54.1517C53.9692 27.86 53.8937 27.8553 53.8324 27.8234C53.7892 27.8008 53.7531 27.7647 53.6915 27.7031C53.6766 27.3218 53.6721 26.9465 53.6751 26.5652V26.2048C53.6751 25.8086 53.6751 25.4124 53.6766 25.0163C53.6766 24.8802 53.677 24.7437 53.6773 24.6071C53.6777 24.4701 53.6781 24.3328 53.6781 24.1956C53.6781 23.4762 53.6796 22.7553 53.6811 22.0359V22.0316L53.6811 22.025C53.6826 21.1619 53.684 20.2987 53.684 19.4371C53.6855 18.1205 53.6885 16.8054 53.6915 15.4903Z" fill="#919EAB"/>
<path d="M70.6121 16.3266C70.5548 16.2748 70.4951 16.2256 70.3945 16.1426C68.8203 15.1328 66.5415 14.9496 64.8615 15.7881C63.8576 16.3406 63.2559 17.0659 62.9253 18.171C62.8315 19.0527 62.7808 20.0208 63.2202 20.8191C63.2577 20.8731 63.2947 20.9254 63.3314 20.9775L63.4004 21.0753C63.9887 21.9421 64.8719 22.2757 65.8281 22.593C66.0976 22.6808 66.3672 22.7672 66.6368 22.8536L67.027 22.9847C67.4023 23.1053 67.6525 23.2021 67.9534 23.4553C68.0905 23.7742 68.1611 23.9386 68.1864 24.1097C68.2133 24.2919 68.1888 24.4816 68.1381 24.8732C68.0773 25.0303 68.0451 25.1137 67.9876 25.1725C67.9224 25.2391 67.8249 25.2739 67.6168 25.3483C66.7187 25.5568 65.9562 25.4555 65.1415 25.0221C64.5919 24.7183 64.1451 24.6274 63.521 24.5753C63.0876 25.1576 62.7108 25.667 62.4785 26.3625C62.5455 26.4221 62.611 26.4802 62.6766 26.5368C64.2762 27.8504 66.0008 27.9845 67.9891 27.8519C69.1538 27.4632 69.9745 26.9523 70.67 25.9157C71.2047 24.8628 71.3149 23.6236 70.9679 22.4902C70.2798 21.1706 69.0704 20.6851 67.7196 20.2279C67.6469 20.2046 67.5748 20.1821 67.5031 20.1597C66.9174 19.9767 66.3658 19.8044 65.904 19.3625C65.7581 18.9559 65.7342 18.7132 65.8296 18.2917C65.9289 18.1535 65.9845 18.0763 66.0563 18.0201C66.147 17.9492 66.2638 17.9118 66.5281 17.827C67.3904 17.6706 67.9906 17.7779 68.7532 18.1904C69.1091 18.4034 69.2879 18.4704 69.7079 18.4645C69.8781 18.3973 69.9693 18.3614 70.0449 18.3048C70.1321 18.2396 70.1988 18.147 70.3423 17.9476C70.4198 17.7927 70.4942 17.6423 70.5672 17.4919C70.7042 17.2223 70.8383 16.9527 70.9679 16.6817C70.7744 16.483 70.6957 16.4021 70.6121 16.3266Z" fill="#919EAB"/>
<path d="M55.4575 0.281956L55.815 0.284935C55.9095 0.284935 55.9572 0.284935 56.0049 0.285117C56.0533 0.285302 56.1017 0.285674 56.1992 0.286425C56.3304 0.286425 56.4616 0.287851 56.5956 0.289308L56.6043 0.289403C56.7399 0.290893 56.8739 0.290893 57.0124 0.290893C57.1785 0.292382 57.3449 0.293499 57.5113 0.294616C57.6777 0.295733 57.8442 0.29685 58.0103 0.298339C58.0147 1.88769 58.0162 3.47555 58.0177 5.06489V5.06877L58.0222 7.28196C58.0229 7.63432 58.0233 7.98668 58.0237 8.33904L58.0237 8.34983C58.0241 8.70579 58.0244 9.06175 58.0252 9.4177C58.0252 9.69026 58.0252 9.96132 58.0267 10.2339C58.0282 10.6137 58.0282 10.9934 58.0282 11.3732C58.0282 11.4879 58.0282 11.6011 58.0296 11.7188C58.0285 12.2934 58.0283 12.4425 57.9604 12.5483C57.9367 12.5854 57.9046 12.6171 57.8613 12.66C57.6633 12.6749 57.4652 12.6794 57.2656 12.6809H56.9022C56.8403 12.6809 56.7779 12.6805 56.7151 12.6802C56.651 12.6798 56.5863 12.6794 56.5209 12.6794C56.4589 12.6794 56.3965 12.6798 56.3336 12.6801C56.2696 12.6805 56.205 12.6809 56.1396 12.6809H55.7762C55.7217 12.6809 55.6671 12.6805 55.612 12.6802C55.5558 12.6798 55.499 12.6794 55.4411 12.6794C55.2983 12.6688 55.2337 12.664 55.1801 12.6373C55.1358 12.6153 55.0989 12.5784 55.0316 12.5111C55.0167 12.1358 55.0122 11.7649 55.0122 11.3896V11.0337C55.0112 10.7735 55.0115 10.5134 55.0119 10.2532C55.012 10.1232 55.0122 9.99309 55.0122 9.86302V7.35494C55.0132 6.86929 55.0129 6.38365 55.0125 5.89845C55.0124 5.65602 55.0122 5.41369 55.0122 5.17153C55.0112 4.79914 55.0115 4.4274 55.0119 4.05589C55.012 3.87022 55.0122 3.6846 55.0122 3.49898V2.69323C55.0112 2.44396 55.0115 2.19402 55.0119 1.9443C55.012 1.81953 55.0122 1.69481 55.0122 1.57025V1.23068C55.014 0.657026 55.0148 0.440324 55.1216 0.352004C55.1864 0.298385 55.2904 0.292084 55.4575 0.281956Z" fill="#919EAB"/>
<path d="M36.8617 7.89457C36.1796 7.53713 35.5168 7.22287 34.7766 7.00096C34.507 7.72032 34.1898 8.3533 33.7102 8.95649C32.9342 9.74287 32.0585 10.0244 30.9698 10.0631C29.3583 9.98564 28.4796 9.27819 27.3432 8.19989C27.2892 8.14665 27.2359 8.09457 27.1831 8.04286C27.1325 7.99332 27.0822 7.94413 27.0319 7.89457L26.5851 8.04351L26.4362 8.49032H26.1383C25.6736 8.98181 25.5425 9.13372 25.5425 9.83074C26.6715 11.1235 28.1906 12.111 29.8617 12.5116C31.6653 12.7171 33.2947 12.3403 34.7721 11.2754C35.8176 10.4012 36.6889 9.28117 36.8617 7.89457Z" fill="#919EAB"/>
</g>
<defs>
<clipPath id="clip0_4416_8566">
<rect width="83.8511" height="28" fill="white" transform="translate(0.0744629 0.000976562)"/>
</clipPath>
</defs>
</svg>
