<svg width="82" height="26" viewBox="0 0 82 26" fill="none" xmlns="http://www.w3.org/2000/svg">
<g clip-path="url(#clip0_4052_7585)">
<path fill-rule="evenodd" clip-rule="evenodd" d="M18.351 0.000976562H19.4884C21.7536 0.211874 23.5162 1.19928 24.7762 2.96321C25.7309 4.29889 26.1242 5.83286 25.9562 7.56513C25.872 8.28959 25.7022 8.94777 25.4467 9.53968C24.6235 11.4453 23.8003 13.3503 22.9771 15.2548C22.1818 17.1019 21.3836 18.9471 20.5824 20.7905C20.4412 21.1157 20.2048 21.5007 19.8732 21.9456C18.896 23.2569 17.4946 24.1423 15.8927 24.478C13.2831 25.0261 10.6613 24.0175 8.94999 22.0317C8.92155 21.9985 8.59178 21.5748 7.9607 20.7607C6.50964 18.8878 5.06126 17.0129 3.61557 15.1357C3.2689 14.6887 2.92277 14.2414 2.57717 13.7939C2.12801 13.2105 1.81998 12.7721 1.65309 12.4786C1.12504 11.5513 0.811375 10.541 0.712097 9.44792V8.3725L0.799029 7.71485C1.05983 6.2874 1.64423 5.0805 2.55222 4.09417C3.64856 2.90283 5.01377 2.17355 6.64782 1.9063C10.378 1.29668 14.1089 0.68948 17.8407 0.0846917C18.0108 0.0573233 18.1809 0.0294183 18.351 0.000976562ZM18.0339 8.82649L19.2381 7.71485L19.7702 7.21336C19.7802 7.20435 19.7862 7.19172 19.7869 7.17818C19.7877 7.16465 19.7831 7.15127 19.7742 7.14091C18.7685 5.97695 17.4487 5.29354 15.8146 5.0907C15.1181 5.00376 14.425 5.01342 13.7354 5.11967C11.8669 5.40785 10.415 6.27773 9.37983 7.72933C8.94248 8.40174 8.65028 9.07226 8.50324 9.74091C8.06696 11.7259 8.45253 13.7906 9.78795 15.3595C10.9659 16.6598 12.4491 17.37 14.2377 17.4902C14.5366 17.5106 14.8377 17.5173 15.1409 17.5103C16.1718 17.4883 17.1093 17.264 17.9534 16.8374C18.6537 16.4837 19.2588 16.0088 19.7686 15.4126C19.8083 15.3659 19.778 15.3074 19.6776 15.2371L18.0387 13.715C18.0341 13.7107 18.0286 13.7073 18.0226 13.7052C18.0166 13.7031 18.0103 13.7022 18.0039 13.7026C17.9975 13.7029 17.9913 13.7046 17.9855 13.7074C17.9797 13.7102 17.9746 13.7142 17.9703 13.719C17.0564 14.7788 15.8986 15.2374 14.4969 15.0947C12.1481 14.8548 10.8593 12.7917 11.22 10.5523C11.5186 8.6993 12.9925 7.48463 14.8374 7.43311C16.0926 7.39769 17.1388 7.86108 17.9759 8.82327C17.9795 8.82738 17.9838 8.83073 17.9887 8.83313C17.9935 8.83553 17.9988 8.83692 18.0042 8.83722C18.0096 8.83752 18.0151 8.83673 18.0202 8.83488C18.0253 8.83304 18.0299 8.83018 18.0339 8.82649Z" fill="#00AB55"/>
<path fill-rule="evenodd" clip-rule="evenodd" d="M40.6805 1.06835C40.6805 1.05439 40.6874 1.04742 40.7014 1.04742H44.0959C44.1227 1.04742 44.1361 1.0611 44.1361 1.08847L44.1353 17.3163C44.1353 17.3507 44.1182 17.3679 44.0838 17.3679H40.7328C40.699 17.3679 40.6821 17.3509 40.6821 17.3171L40.6805 1.06835ZM40.7553 7.61265C40.7531 7.61486 40.7514 7.61713 40.7503 7.61948C40.7509 7.61826 40.7516 7.61706 40.7525 7.61587C40.7529 7.61538 40.7532 7.61489 40.7537 7.6144C40.7542 7.6138 40.7547 7.61324 40.7553 7.61265ZM40.708 7.6175C40.708 7.6183 40.7127 7.61934 40.7223 7.62067C40.7129 7.61936 40.7081 7.6183 40.708 7.6175ZM40.7341 7.5651C40.7344 7.56553 40.7348 7.56596 40.7351 7.5664C40.7354 7.56685 40.7357 7.5673 40.736 7.56776L40.7363 7.56807C40.7352 7.56653 40.7341 7.56502 40.7328 7.56355L40.7334 7.56429L40.7341 7.5651Z" fill="#00AB55"/>
<path fill-rule="evenodd" clip-rule="evenodd" d="M61.6318 2.95838L61.6286 5.14543L61.6229 5.75722C61.6229 5.78352 61.6098 5.79666 61.5835 5.79666H59.8561C59.8158 5.79666 59.7957 5.81679 59.7957 5.85703V8.41276C59.7957 8.43959 59.8091 8.45301 59.8359 8.45301H61.6052C61.6213 8.45301 61.6294 8.46133 61.6294 8.47796V9.92607C61.6219 11.5918 61.6229 12.8177 61.6326 13.6039C61.6396 14.1555 61.7482 14.7064 61.9586 15.2565C62.4794 16.6209 63.7392 17.3131 65.1382 17.491C66.3899 17.6496 67.7841 17.5353 68.8482 16.8221C68.8567 16.8164 68.8629 16.808 68.866 16.7983C68.8691 16.7887 68.8688 16.7783 68.8651 16.769L67.9539 14.3879C67.9525 14.3846 67.9504 14.3816 67.9477 14.3792C67.945 14.3768 67.9418 14.375 67.9383 14.374C67.9374 14.3737 67.9365 14.3735 67.9355 14.3733C67.9349 14.3732 67.9342 14.3732 67.9336 14.3731C67.9316 14.3729 67.9296 14.373 67.9276 14.3734C67.924 14.374 67.9206 14.3754 67.9177 14.3774C67.4138 14.7343 66.8471 14.8671 66.2176 14.7759C65.465 14.6672 65.0939 14.0925 65.0931 13.3632C65.092 12.1826 65.0896 11.0039 65.0858 9.82707L65.0907 8.49245C65.0912 8.46616 65.1044 8.45301 65.1301 8.45301H67.9861C68.0129 8.45301 68.0263 8.43959 68.0263 8.41276V5.83691C68.0263 5.81008 68.0129 5.79666 67.9861 5.79666H65.1309C65.1057 5.79666 65.0926 5.78405 65.0915 5.75883L65.0818 5.5624L65.0858 2.93986C65.0858 2.92591 65.0789 2.91893 65.0649 2.91893H61.6712C61.6449 2.91893 61.6318 2.93208 61.6318 2.95838ZM64.9753 5.16477L64.9757 5.16476C64.9759 5.16474 64.976 5.16471 64.9762 5.16467C64.9766 5.16459 64.977 5.16446 64.9774 5.16428C64.9771 5.16442 64.9768 5.16453 64.9765 5.16461C64.9762 5.1647 64.9759 5.16476 64.9755 5.16478L64.9752 5.16478L64.975 5.16477L64.9753 5.16477Z" fill="#00AB55"/>
<path fill-rule="evenodd" clip-rule="evenodd" d="M37.4767 9.28694C37.1226 6.88657 35.2583 5.64533 32.9787 5.41028C30.9059 5.19697 28.5208 5.5592 26.787 6.76341C26.7623 6.78004 26.7569 6.80178 26.7709 6.82861L27.9678 9.15171C27.9829 9.17961 28.0032 9.18471 28.029 9.167C29.1635 8.37922 30.4286 8.02611 31.8244 8.10768C32.361 8.13881 32.822 8.27565 33.2073 8.51821C33.5636 8.74252 33.818 9.05055 33.9704 9.44229C34.0825 9.76697 34.1373 10.0745 34.1346 10.3648C34.1346 10.3943 34.1196 10.4091 34.0895 10.4091C33.0254 10.3989 31.9832 10.401 30.9631 10.4155C29.0207 10.4445 26.7121 11.0764 26.3619 13.3407C26.2755 13.8999 26.3029 14.4287 26.4441 14.9273C27.0832 17.186 29.6132 17.7414 31.6465 17.4959C32.7315 17.3647 33.7361 16.9227 34.3133 15.989C34.3433 15.9402 34.3586 15.9445 34.3592 16.0019V17.3276C34.3592 17.3545 34.3726 17.3679 34.3994 17.3679H37.5556C37.583 17.3679 37.5967 17.3545 37.5967 17.3276C37.6004 15.0856 37.6004 12.8454 37.5967 10.6071C37.5956 10.1552 37.5556 9.71518 37.4767 9.28694ZM34.0629 13.8084C33.5792 14.8363 32.5931 15.2508 31.4919 15.2187C30.5091 15.1897 29.5834 14.7671 29.6961 13.6216C29.7902 12.6645 30.8294 12.4295 31.6296 12.4343C32.4372 12.4391 33.2577 12.4394 34.0911 12.4351C34.1255 12.4351 34.1424 12.4526 34.1418 12.4874C34.1332 12.7896 34.134 13.0941 34.1442 13.4011C34.1485 13.547 34.1214 13.6828 34.0629 13.8084Z" fill="#00AB55"/>
<path fill-rule="evenodd" clip-rule="evenodd" d="M55.2091 5.78131C56.9617 6.44513 58.1257 7.725 58.701 9.62094C58.9451 10.5456 58.9974 11.4812 58.8579 12.4278C58.8568 12.4343 58.8531 12.4375 58.8467 12.4375H49.9511C49.9462 12.4375 49.9413 12.4386 49.9368 12.4407C49.9323 12.4429 49.9284 12.4461 49.9253 12.45C49.9222 12.454 49.9201 12.4586 49.9189 12.4635C49.9178 12.4685 49.9178 12.4736 49.9189 12.4785C50.2699 13.8558 51.4596 14.6712 52.8256 14.759C54.157 14.8451 55.2767 14.594 56.2265 13.6602C56.2491 13.6382 56.2711 13.6388 56.2925 13.6618L58.065 15.5784C58.0972 15.6128 58.0972 15.6474 58.065 15.6823C56.9607 16.8889 55.4675 17.433 53.8455 17.5296C52.0698 17.6351 50.2248 17.3115 48.833 16.286C47.4877 15.2937 46.7063 13.9911 46.489 12.3779C46.3693 11.4919 46.4139 10.6368 46.6226 9.81252C47.0739 8.23642 47.9618 7.05636 49.2862 6.27233C50.0584 5.81565 50.8921 5.52963 51.7872 5.41425C52.9407 5.26533 54.1256 5.37159 55.2091 5.78131ZM49.9986 9.84311C50.3517 8.84604 51.0818 8.23427 52.1889 8.00781C52.535 7.93698 53.0462 7.94905 53.4108 8.02633C54.4529 8.24688 55.164 8.85409 55.5439 9.84793L55.6647 10.3631C55.6711 10.391 55.6601 10.405 55.6317 10.405H49.9093C49.8765 10.405 49.8642 10.3892 49.8722 10.3575L49.9986 9.84311Z" fill="#00AB55"/>
<path fill-rule="evenodd" clip-rule="evenodd" d="M81.2236 9.59847C80.8436 6.14281 77.8331 5.16398 74.8089 5.3781C73.2779 5.48677 71.7388 5.9134 70.4799 6.75457C70.4546 6.77174 70.449 6.79375 70.4629 6.82058L71.672 9.17024C71.6822 9.19063 71.6964 9.19412 71.7147 9.1807C72.7885 8.38702 74.2197 8.01513 75.5068 8.10931C76.6217 8.19061 77.5667 8.69612 77.788 9.88262L77.8234 10.3656C77.8256 10.3962 77.8114 10.4112 77.7808 10.4107C76.7365 10.3983 75.7024 10.3999 74.6785 10.4155C73.7034 10.4311 72.8467 10.5853 72.1083 10.8784C70.5917 11.4805 69.8504 12.803 70.0395 14.3871C70.2714 16.3319 71.8933 17.3349 73.7141 17.5136C75.1132 17.6504 76.8567 17.454 77.7792 16.3142C77.8575 16.2171 77.9334 16.1143 78.007 16.0059C78.0354 15.9646 78.0496 15.9689 78.0496 16.0188L78.048 17.3244C78.0475 17.3523 78.0612 17.3663 78.0891 17.3663L81.288 17.3679V10.1941L81.2236 9.59847ZM73.4493 14.2447C73.6538 14.8741 74.2977 15.1462 74.9232 15.2034C76.0872 15.3096 77.1988 14.945 77.7389 13.8494C77.8028 13.7196 77.8334 13.583 77.8307 13.4397C77.8242 13.0979 77.8237 12.7797 77.8291 12.485C77.8296 12.4534 77.814 12.4375 77.7824 12.4375C76.8867 12.4365 76.0225 12.437 75.1896 12.4392C74.5996 12.4408 73.8132 12.6332 73.5242 13.1862C73.3519 13.5151 73.327 13.8679 73.4493 14.2447ZM77.8834 9.83123C77.884 9.83111 77.8847 9.83107 77.8854 9.83111C77.8841 9.83104 77.8829 9.83125 77.8817 9.8317C77.8822 9.83149 77.8828 9.83133 77.8834 9.83123Z" fill="#00AB55"/>
<path d="M32.4699 23.5459L34.0726 22.0833C34.0772 22.0791 34.0833 22.0768 34.0895 22.0768L34.5258 22.0752C34.5308 22.0752 34.5358 22.0767 34.54 22.0795C34.5442 22.0824 34.5474 22.0864 34.5492 22.0911C34.551 22.0958 34.5514 22.101 34.5502 22.1059C34.5491 22.1108 34.5464 22.1153 34.5427 22.1187L33.3932 23.2094C33.3886 23.2137 33.3858 23.2196 33.3854 23.2258C33.3849 23.2321 33.3869 23.2383 33.3908 23.2432L34.6546 24.8346C34.6575 24.8383 34.6592 24.8428 34.6597 24.8475C34.6602 24.8521 34.6593 24.8569 34.6572 24.8611C34.6551 24.8653 34.6518 24.8688 34.6478 24.8712C34.6438 24.8737 34.6392 24.8749 34.6345 24.8748L34.2022 24.8716C34.1985 24.8717 34.1949 24.8709 34.1915 24.8694C34.19 24.8686 34.1885 24.8677 34.1871 24.8667C34.1855 24.8656 34.1841 24.8642 34.1829 24.8628L33.0938 23.5121C33.0917 23.5094 33.089 23.5072 33.086 23.5055C33.083 23.5039 33.0798 23.5029 33.0764 23.5026C33.073 23.5023 33.0695 23.5027 33.0663 23.5038C33.0631 23.5049 33.0601 23.5066 33.0575 23.5088L32.4377 24.0796C32.4353 24.0818 32.4333 24.0846 32.4319 24.0876C32.4305 24.0906 32.4298 24.0939 32.4297 24.0973L32.4224 24.8426C32.4222 24.849 32.4196 24.855 32.4151 24.8595C32.4107 24.864 32.4046 24.8666 32.3983 24.8668L32.0497 24.8716C32.0431 24.8716 32.0368 24.869 32.0321 24.8643C32.0274 24.8596 32.0248 24.8533 32.0248 24.8467V20.9579C32.0248 20.9513 32.0274 20.945 32.0321 20.9403C32.0368 20.9356 32.0431 20.933 32.0497 20.933H32.4015C32.4081 20.933 32.4145 20.9356 32.4192 20.9403C32.4238 20.945 32.4265 20.9513 32.4265 20.9579L32.4281 23.5274C32.428 23.5322 32.4294 23.537 32.4321 23.5411C32.4333 23.5429 32.4347 23.5446 32.4364 23.5461C32.4374 23.547 32.4385 23.5478 32.4396 23.5486C32.4407 23.5492 32.4418 23.5498 32.4429 23.5503C32.4474 23.5523 32.4523 23.5529 32.4571 23.5521C32.4584 23.5519 32.4598 23.5516 32.461 23.5511C32.4621 23.5508 32.4631 23.5504 32.4641 23.5499C32.4655 23.5492 32.4668 23.5484 32.468 23.5475C32.4686 23.547 32.4693 23.5465 32.4699 23.5459Z" fill="#00AB55"/>
<path d="M35.3806 21.4828C35.5296 21.4828 35.6503 21.362 35.6503 21.2131C35.6503 21.0642 35.5296 20.9434 35.3806 20.9434C35.2317 20.9434 35.111 21.0642 35.111 21.2131C35.111 21.362 35.2317 21.4828 35.3806 21.4828Z" fill="#00AB55"/>
<path fill-rule="evenodd" clip-rule="evenodd" d="M63.4719 22.7015C63.6957 21.9261 64.2076 21.5228 65.0078 21.4917C65.4451 21.475 65.8235 21.6191 66.1428 21.9239C66.144 21.9251 66.1454 21.9262 66.1468 21.9271C66.1485 21.9282 66.1504 21.9292 66.1523 21.9299C66.1558 21.9313 66.1595 21.932 66.1631 21.9319C66.165 21.9319 66.1668 21.9316 66.1685 21.9312C66.1703 21.9308 66.172 21.9303 66.1737 21.9295C66.1762 21.9283 66.1785 21.9268 66.1805 21.9249C66.1811 21.9244 66.1816 21.9238 66.1822 21.9231L66.3947 21.6832C66.4076 21.6688 66.4073 21.6551 66.3939 21.6422C65.8465 21.098 64.9683 21.0151 64.264 21.2526C63.7204 21.4361 63.3461 21.8174 63.1411 22.3964C62.799 23.5193 63.4075 24.6728 64.5988 24.8732C65.2551 24.9838 65.8363 24.8531 66.3424 24.4812C66.3591 24.469 66.3726 24.453 66.382 24.4345C66.3914 24.4161 66.3963 24.3957 66.3963 24.375V23.0227C66.3963 23.0098 66.3896 23.0033 66.3762 23.0033L66.014 23.0025C66.0005 23.0025 65.9938 23.0092 65.9938 23.0227V24.2269C65.9939 24.2379 65.991 24.2488 65.9855 24.2586C65.98 24.2683 65.9721 24.2765 65.9624 24.2824C65.6211 24.4906 65.2554 24.5733 64.8653 24.5303C64.1644 24.4536 63.7102 24.0839 63.5025 23.4211C63.4378 23.2157 63.454 22.9724 63.4688 22.7483C63.4699 22.7326 63.4709 22.717 63.4719 22.7015ZM63.3463 22.7096C63.3452 22.7126 63.3449 22.7156 63.3453 22.7185C63.3451 22.7168 63.3451 22.7151 63.3454 22.7133C63.3456 22.7121 63.3459 22.7108 63.3463 22.7096Z" fill="#00AB55"/>
<path d="M24.3174 22.0599V24.8539C24.3174 24.8673 24.3107 24.874 24.2972 24.874L23.9342 24.8724C23.9213 24.8724 23.9149 24.866 23.9149 24.8531V21.1914C23.9149 21.1807 23.9191 21.1705 23.9267 21.1629C23.9342 21.1554 23.9445 21.1511 23.9551 21.1511H24.2015C24.2363 21.1511 24.2626 21.1662 24.2803 21.1962L25.8444 23.8542C25.8449 23.8551 25.8456 23.856 25.8463 23.8568L25.8468 23.8574C25.847 23.8577 25.8473 23.858 25.8476 23.8582L25.8483 23.8589L25.8487 23.8593C25.85 23.8605 25.8515 23.8615 25.853 23.8624C25.8539 23.8629 25.8547 23.8633 25.8556 23.8636L25.8564 23.8639C25.8569 23.8641 25.8573 23.8643 25.8578 23.8644C25.8599 23.8651 25.8622 23.8654 25.8645 23.8654C25.8685 23.8654 25.8723 23.8644 25.8757 23.8624C25.8791 23.8604 25.8819 23.8576 25.8838 23.8542L27.4293 21.197C27.447 21.1664 27.4736 21.1511 27.509 21.1511H27.7489C27.7822 21.1511 27.7988 21.168 27.7988 21.2018V24.8539C27.7988 24.8668 27.7921 24.8732 27.7787 24.8732H27.4164C27.403 24.8732 27.3963 24.8668 27.3963 24.8539V22.0406C27.3963 21.9816 27.3816 21.9776 27.352 22.0285L25.9965 24.3404C25.9821 24.3649 25.9616 24.3853 25.9369 24.3995C25.9123 24.4138 25.8843 24.4213 25.8559 24.4214C25.8274 24.4214 25.7994 24.4141 25.7747 24.4C25.7499 24.3859 25.7293 24.3657 25.7148 24.3412L24.3616 22.0479C24.3321 21.9974 24.3174 22.0014 24.3174 22.0599Z" fill="#00AB55"/>
<path fill-rule="evenodd" clip-rule="evenodd" d="M48.4249 24.0055C48.4716 23.4791 48.2545 23.1362 47.7737 22.9768C47.7367 22.9644 47.7348 22.9483 47.7681 22.9285C48.1298 22.7144 48.2838 22.4031 48.2301 21.9947C48.14 21.3129 47.4702 21.1519 46.8883 21.1511C46.365 21.1506 45.8523 21.1506 45.35 21.1511C45.321 21.1511 45.3065 21.1656 45.3065 21.1946V24.8314C45.3065 24.8604 45.321 24.8749 45.35 24.8749C45.9591 24.8727 46.5502 24.873 47.1233 24.8757C47.6964 24.8781 48.3645 24.6768 48.4249 24.0055ZM45.7291 22.8013L45.7275 21.5198C45.7275 21.5162 45.7284 21.5126 45.7301 21.5094C45.7311 21.5074 45.7325 21.5055 45.7341 21.5039C45.7383 21.4996 45.7441 21.4973 45.7501 21.4973L47.0211 21.4949C47.1263 21.4947 47.2305 21.5105 47.3278 21.5414C47.425 21.5722 47.5134 21.6176 47.5878 21.6747C47.6623 21.7319 47.7214 21.7999 47.7617 21.8747C47.802 21.9495 47.8228 22.0296 47.8228 22.1106V22.204C47.8229 22.3675 47.7387 22.5243 47.5886 22.6401C47.4386 22.7559 47.235 22.8211 47.0227 22.8214L45.7517 22.8238C45.7492 22.8238 45.7468 22.8234 45.7444 22.8226C45.7412 22.8215 45.7382 22.8197 45.7357 22.8172C45.7315 22.813 45.7291 22.8073 45.7291 22.8013ZM45.7275 24.5054L45.7291 23.1901C45.7291 23.1867 45.7298 23.1834 45.7311 23.1802C45.7324 23.1771 45.7343 23.1743 45.7367 23.1719C45.7391 23.1695 45.7419 23.1676 45.745 23.1663C45.7482 23.165 45.7515 23.1643 45.7549 23.1643L47.2022 23.1667C47.4203 23.1671 47.6294 23.2336 47.7835 23.3518C47.9376 23.47 48.0241 23.6301 48.0241 23.797V23.9049C48.024 23.9876 48.0027 24.0695 47.9613 24.1458C47.9199 24.2222 47.8592 24.2915 47.7827 24.3499C47.7062 24.4083 47.6155 24.4546 47.5156 24.4861C47.4157 24.5176 47.3087 24.5337 47.2006 24.5336L45.7533 24.5311C45.7464 24.5311 45.7399 24.5284 45.7351 24.5236C45.7302 24.5188 45.7275 24.5122 45.7275 24.5054Z" fill="#00AB55"/>
<path d="M52.4907 22.0165V21.4932C52.4907 21.4881 52.4929 21.4832 52.4966 21.4796C52.5004 21.476 52.5055 21.4739 52.5109 21.4739L52.8731 21.4731C52.8865 21.4731 52.8932 21.4798 52.8932 21.4932V22.0366C52.8932 22.0634 52.9066 22.0768 52.9335 22.0768H53.6982C53.725 22.0768 53.7384 22.0902 53.7384 22.1171V22.3787C53.7384 22.4055 53.725 22.4189 53.6982 22.4189H52.9359C52.9091 22.4189 52.8954 22.4323 52.8948 22.4592C52.8921 22.9057 52.8911 23.4023 52.8916 23.9492C52.8916 24.2896 52.9584 24.5529 53.3359 24.5585C53.4894 24.5606 53.619 24.5236 53.7247 24.4474C53.7628 24.4195 53.7929 24.4268 53.8149 24.4692L53.9067 24.6487C53.9276 24.6889 53.9187 24.7211 53.8801 24.7452C53.6526 24.888 53.4017 24.9358 53.1275 24.8885C52.7142 24.8182 52.5039 24.5553 52.4964 24.0997C52.4873 23.5759 52.4864 23.0307 52.494 22.464C52.4945 22.434 52.4797 22.4189 52.4497 22.4189H52.048C52.0212 22.4189 52.0078 22.4055 52.0078 22.3787V22.1171C52.0078 22.0902 52.0212 22.0768 52.048 22.0768H52.4304C52.4706 22.0768 52.4907 22.0567 52.4907 22.0165Z" fill="#00AB55"/>
<path d="M54.5836 21.4932V22.0269C54.5836 22.0602 54.5667 22.0768 54.5329 22.0768H54.1216C54.0947 22.0768 54.0813 22.09 54.0813 22.1163L54.0805 22.3787C54.0805 22.4055 54.0939 22.4189 54.1208 22.4189H54.5426C54.5683 22.4189 54.5815 22.4318 54.582 22.4576C54.5874 22.9695 54.5863 23.4772 54.5788 23.9805C54.5723 24.3774 54.6665 24.7324 55.0875 24.8587C55.3797 24.9465 55.7403 24.9135 55.9867 24.7259C55.9957 24.7192 56.002 24.7095 56.0045 24.6984C56.007 24.6874 56.0055 24.6757 56.0003 24.6656L55.8796 24.4353C55.8699 24.416 55.8563 24.4128 55.8385 24.4257C55.5278 24.6503 54.9853 24.6173 54.9861 24.1246C54.9872 23.6277 54.9866 23.0742 54.9845 22.464C54.9845 22.434 54.9995 22.4189 55.0296 22.4189H55.791C55.8179 22.4189 55.8313 22.4055 55.8313 22.3787V22.1171C55.8313 22.0902 55.8179 22.0768 55.791 22.0768H55.0263C54.9995 22.0768 54.9861 22.0634 54.9861 22.0366V21.4932C54.9861 21.4798 54.9794 21.4731 54.966 21.4731L54.6037 21.4739C54.5903 21.4739 54.5836 21.4804 54.5836 21.4932Z" fill="#00AB55"/>
<path fill-rule="evenodd" clip-rule="evenodd" d="M30.6081 24.5327C30.4358 24.7426 30.1946 24.8638 29.8844 24.8966C29.3628 24.9505 28.6697 24.7597 28.6705 24.1029C28.6714 23.5096 29.135 23.2971 29.6663 23.2875C29.9555 23.2826 30.2622 23.2824 30.5863 23.2867C30.6169 23.2872 30.6336 23.2722 30.6362 23.2416C30.7288 22.1686 29.4836 22.2821 28.9378 22.7272C28.9255 22.7374 28.915 22.7355 28.9064 22.7216L28.7454 22.4439C28.74 22.4337 28.7419 22.4254 28.751 22.4189C29.1991 22.1082 29.6885 21.9974 30.2193 22.0865C30.8552 22.1935 31.0436 22.6838 31.0403 23.2633C31.0376 23.7892 31.0374 24.3116 31.0395 24.8306C31.0395 24.859 31.0253 24.8732 30.9969 24.8732L30.6966 24.874C30.6703 24.874 30.6572 24.8606 30.6572 24.8338L30.6556 24.5496C30.6556 24.5003 30.6397 24.4946 30.6081 24.5327ZM29.4143 24.5384C29.8458 24.6792 30.3143 24.5585 30.567 24.1697C30.6451 24.0499 30.6421 23.9218 30.6391 23.7907C30.6379 23.7395 30.6367 23.6878 30.6403 23.636C30.643 23.6027 30.6277 23.5861 30.5944 23.5861C30.2697 23.584 29.9555 23.5861 29.6518 23.5925C29.366 23.5982 29.0545 23.7374 29.0634 24.0683C29.0693 24.3071 29.1863 24.4638 29.4143 24.5384Z" fill="#00AB55"/>
<path d="M39.1865 23.17C39.18 21.9312 37.6699 21.7283 37.0139 22.5123C36.9876 22.544 36.9745 22.5394 36.9745 22.4986L36.9753 22.097C36.9753 22.0836 36.9686 22.0769 36.9551 22.0769H36.6332C36.6197 22.0769 36.613 22.0836 36.613 22.097V24.8338C36.613 24.8601 36.6264 24.8733 36.6533 24.8733L36.9576 24.8741C36.9849 24.8741 36.9986 24.8604 36.9986 24.833C36.9927 24.3597 36.9935 23.8708 37.001 23.3664C37.0107 22.7144 37.4856 22.357 38.1151 22.4238C38.5272 22.4673 38.7872 22.7868 38.7872 23.1893C38.7867 23.7179 38.7864 24.2532 38.7864 24.7952C38.7869 24.8472 38.813 24.8733 38.8645 24.8733L39.1108 24.8741C39.1313 24.8741 39.151 24.866 39.1654 24.8517C39.1799 24.8373 39.1881 24.8179 39.1881 24.7976C39.1902 24.2352 39.1897 23.6927 39.1865 23.17Z" fill="#00AB55"/>
<path d="M42.808 23.6915C42.8091 23.7489 42.8105 23.8067 42.812 23.8647C42.8358 24.8256 42.8611 25.843 41.5941 25.9197C41.0011 25.9557 40.5112 25.8269 40.1242 25.5333C40.0958 25.5119 40.0915 25.4861 40.1114 25.4561L40.2579 25.2355C40.2766 25.2065 40.2997 25.2025 40.3271 25.2234C40.7156 25.5197 41.1648 25.6307 41.6746 25.5567C42.3363 25.4601 42.457 24.9055 42.4023 24.3372C42.3985 24.2959 42.3837 24.2916 42.358 24.3243C42.2539 24.4585 42.1216 24.5634 41.9611 24.639C41.6536 24.7834 41.3217 24.8105 40.9654 24.7203C40.3574 24.5669 40.0137 24.185 39.9343 23.5749C40.0266 23.6114 40.0867 23.632 40.1146 23.6369C40.2144 23.6546 40.2882 23.6441 40.3359 23.6055C40.49 24.2129 40.8857 24.4815 41.5232 24.4112C42.0921 24.3479 42.395 24.0074 42.432 23.3897C42.409 23.0264 42.2649 22.7583 41.9998 22.5855C41.5659 22.303 40.9308 22.3465 40.5798 22.7264C40.3791 22.9437 40.2978 23.2368 40.3359 23.6055C40.2882 23.6441 40.2144 23.6546 40.1146 23.6369C40.0867 23.632 40.0266 23.6114 39.9343 23.5749C39.8554 22.7901 40.3271 22.179 41.1111 22.0728C41.6429 22.0014 42.0701 22.1535 42.3926 22.5292C42.4167 22.5571 42.4288 22.5528 42.4288 22.5163V22.117C42.4288 22.0908 42.4422 22.0776 42.4691 22.0776L42.7709 22.0768C42.7972 22.0768 42.8104 22.0899 42.8104 22.1162L42.808 23.6915Z" fill="#00AB55"/>
<path fill-rule="evenodd" clip-rule="evenodd" d="M50.2417 24.536C49.7469 24.4592 49.4488 24.1692 49.3474 23.6658C49.3399 23.6261 49.3562 23.6062 49.3965 23.6062H51.6431C51.6689 23.6062 51.6826 23.5931 51.6842 23.5668C51.7236 22.7562 51.2044 22.0688 50.3737 22.0591C49.799 22.0527 49.3844 22.2824 49.1301 22.7482C48.9149 23.1431 48.8854 23.5585 49.0415 23.9942C49.2299 24.5191 49.6222 24.8182 50.2184 24.8917C50.7088 24.9519 51.1242 24.8244 51.4644 24.5094C51.5036 24.4729 51.506 24.4337 51.4717 24.3919L51.338 24.2309C51.3058 24.1917 51.272 24.1904 51.2366 24.2269C50.9801 24.4962 50.6485 24.5993 50.2417 24.536ZM51.2825 23.3044H49.3732C49.3708 23.3044 49.3685 23.3034 49.3669 23.3018C49.3652 23.3001 49.3643 23.2979 49.3643 23.2955V23.2891C49.3643 23.0545 49.4647 22.8295 49.6434 22.6635C49.8222 22.4976 50.0646 22.4044 50.3174 22.4044H50.3383C50.4635 22.4044 50.5874 22.4273 50.703 22.4718C50.8186 22.5162 50.9237 22.5814 51.0122 22.6635C51.1007 22.7457 51.1709 22.8432 51.2188 22.9505C51.2667 23.0579 51.2914 23.1729 51.2914 23.2891V23.2955C51.2914 23.2979 51.2904 23.3001 51.2888 23.3018C51.2871 23.3034 51.2848 23.3044 51.2825 23.3044Z" fill="#00AB55"/>
<path fill-rule="evenodd" clip-rule="evenodd" d="M56.7352 23.6063C56.734 23.6064 56.7328 23.6065 56.7316 23.6067C56.7287 23.607 56.7259 23.6077 56.7232 23.6085C56.7218 23.609 56.7205 23.6094 56.7192 23.61C56.7184 23.6103 56.7177 23.6107 56.7169 23.611C56.7101 23.6142 56.7042 23.619 56.6995 23.6248C56.6947 23.6307 56.6914 23.6376 56.6897 23.645C56.6879 23.6523 56.6878 23.66 56.6894 23.6674C56.7951 24.1767 57.0994 24.4676 57.6022 24.54C57.9966 24.5969 58.3307 24.4869 58.6044 24.21C58.6253 24.1885 58.6454 24.1893 58.6647 24.2124L58.8322 24.4128C58.8395 24.4216 58.8435 24.4327 58.8435 24.4442C58.8435 24.4557 58.8395 24.4668 58.8322 24.4756C58.4732 24.9054 57.7632 24.9851 57.2746 24.833C55.7532 24.3605 56.0591 21.9786 57.735 22.0607C58.569 22.101 59.0672 22.7562 59.0294 23.566C59.0278 23.5928 59.0138 23.6063 58.9875 23.6063H56.7385C56.7378 23.6063 56.7371 23.6063 56.7365 23.6063L56.7352 23.6063ZM56.7135 23.3012L58.6261 23.3076C58.6284 23.3076 58.6307 23.3067 58.6324 23.305C58.634 23.3034 58.635 23.3011 58.635 23.2988V23.2931C58.6357 23.0583 58.5359 22.8328 58.3573 22.6662C58.1787 22.4995 57.9361 22.4054 57.6827 22.4045H57.6634C57.5379 22.404 57.4135 22.4265 57.2974 22.4706C57.1813 22.5147 57.0757 22.5795 56.9867 22.6614C56.8977 22.7434 56.827 22.8407 56.7786 22.948C56.7302 23.0553 56.7051 23.1704 56.7047 23.2867V23.2923C56.7047 23.2929 56.7047 23.2934 56.7048 23.2939C56.7049 23.2945 56.7051 23.2951 56.7054 23.2957C56.7058 23.2968 56.7065 23.2978 56.7073 23.2986L56.7076 23.2989L56.708 23.2992L56.7082 23.2994C56.7084 23.2996 56.7087 23.2997 56.7089 23.2999C56.7093 23.3001 56.7097 23.3003 56.7101 23.3005C56.7112 23.3009 56.7124 23.3012 56.7135 23.3012Z" fill="#00AB55"/>
<path d="M61.185 22.06C60.7525 22.046 60.4233 22.1963 60.1974 22.5107C60.1711 22.5472 60.1579 22.5429 60.1579 22.4978L60.1571 22.097C60.1571 22.0836 60.1507 22.0769 60.1378 22.0769H59.7957C59.7922 22.0769 59.7888 22.0778 59.7858 22.0795C59.7842 22.0804 59.7828 22.0815 59.7815 22.0827C59.7777 22.0865 59.7756 22.0916 59.7756 22.097V24.8338C59.7756 24.8607 59.789 24.8741 59.8158 24.8741L60.141 24.8733C60.1619 24.8733 60.1727 24.8628 60.1732 24.8419C60.1834 24.4818 60.1831 24.101 60.1724 23.6996C60.1633 23.3476 60.1979 23.0873 60.2762 22.9188C60.4308 22.5877 60.7335 22.4262 61.1842 22.4343C61.1971 22.4348 61.2036 22.4286 61.2036 22.4157L61.2044 22.0801C61.2044 22.0672 61.1979 22.0605 61.185 22.06Z" fill="#00AB55"/>
<path fill-rule="evenodd" clip-rule="evenodd" d="M69.1179 24.5142C68.9703 24.7068 68.7607 24.8281 68.4892 24.878C67.8976 24.9867 67.1691 24.7855 67.1667 24.0755C67.165 23.5466 67.5957 23.3116 68.073 23.2939C68.4208 23.281 68.758 23.2791 69.0849 23.2883C69.1203 23.2893 69.1383 23.2722 69.1388 23.2367C69.1431 22.6824 68.8807 22.405 68.3515 22.4044C68.0097 22.4044 67.7041 22.5109 67.4347 22.724C67.4213 22.7347 67.41 22.7326 67.4009 22.7175L67.2383 22.4447C67.2329 22.4361 67.2345 22.4288 67.2431 22.4229C67.703 22.0999 68.2042 21.9899 68.7468 22.0929C69.1943 22.1774 69.5075 22.5332 69.5115 22.9856C69.5169 23.5528 69.5177 24.1686 69.5139 24.833C69.5139 24.8598 69.5002 24.8732 69.4728 24.8732H69.1927C69.1659 24.8732 69.1525 24.8598 69.1525 24.833L69.1549 24.5271C69.1554 24.4852 69.1431 24.4809 69.1179 24.5142ZM68.1085 23.5949C67.3808 23.6247 67.3695 24.4892 68.0706 24.5786C68.5101 24.6349 68.8385 24.5002 69.0559 24.1745C69.1432 24.0444 69.1397 23.9088 69.1361 23.7683V23.7678C69.135 23.7232 69.1338 23.6782 69.1356 23.6328C69.1366 23.6027 69.1224 23.5874 69.0929 23.5869C68.7291 23.581 68.4009 23.5837 68.1085 23.5949Z" fill="#00AB55"/>
<path d="M72.8842 22.5678C72.5067 21.8659 71.4241 21.919 70.9604 22.4825C70.9228 22.5281 70.9041 22.5214 70.9041 22.4624V22.1171C70.9041 22.0902 70.8906 22.0768 70.8638 22.0768H70.562C70.5351 22.0773 70.5217 22.0908 70.5217 22.1171V24.8338C70.5217 24.8601 70.5351 24.8732 70.562 24.8732L70.8871 24.874C70.9097 24.874 70.921 24.8628 70.921 24.8402C70.9274 24.4324 70.9271 23.9902 70.9202 23.5137C70.9164 23.2743 70.9424 23.0894 70.9982 22.959C71.1995 22.4906 71.6824 22.3167 72.1493 22.4624C72.5647 22.592 72.6452 22.9993 72.6508 23.3744C72.6572 23.8649 72.6581 24.3519 72.6532 24.8354C72.6527 24.8611 72.6653 24.874 72.6911 24.874H73.0002C73.0211 24.874 73.0318 24.8633 73.0324 24.8418C73.0409 24.4318 73.0407 24.0189 73.0315 23.603C73.0163 22.9293 73.2585 22.3932 74.0321 22.4189C74.4491 22.4326 74.7461 22.7578 74.7469 23.1651C74.7485 23.7039 74.7488 24.2612 74.7477 24.837C74.7477 24.8617 74.7601 24.874 74.7847 24.874L75.1115 24.8732C75.1357 24.8732 75.1478 24.8614 75.1478 24.8378C75.1547 24.1418 75.1529 23.5569 75.1421 23.083C75.1309 22.5654 74.7847 22.1404 74.2575 22.0752C73.6833 22.0038 73.2459 22.1694 72.9454 22.5719C72.9229 22.6024 72.9025 22.6011 72.8842 22.5678Z" fill="#00AB55"/>
<path fill-rule="evenodd" clip-rule="evenodd" d="M76.2779 23.6618C76.4132 24.2736 76.8044 24.5692 77.4516 24.5489C77.7376 24.5397 77.985 24.4286 78.1937 24.2156C78.2152 24.1936 78.2361 24.1941 78.2565 24.2172L78.4223 24.4015C78.4332 24.4133 78.4389 24.4289 78.4383 24.445C78.4377 24.4611 78.4308 24.4764 78.4191 24.4877C78.059 24.8333 77.6107 24.9645 77.074 24.8813C76.2135 24.7477 75.7829 24.0208 75.9117 23.1837C76.0968 21.9827 77.6584 21.6575 78.3579 22.6017C78.5474 22.8571 78.6321 23.1777 78.6123 23.5636C78.6107 23.592 78.5957 23.6063 78.5672 23.6063H76.3222C76.2846 23.6063 76.2699 23.6248 76.2779 23.6618ZM76.3045 23.3044H78.2171C78.2192 23.3044 78.2212 23.3035 78.2227 23.302C78.2243 23.3005 78.2251 23.2985 78.2251 23.2963V23.2907C78.2251 23.0552 78.1245 22.8294 77.9455 22.6629C77.7664 22.4964 77.5236 22.4028 77.2704 22.4028H77.2511C76.9979 22.4028 76.7551 22.4964 76.5761 22.6629C76.397 22.8294 76.2964 23.0552 76.2964 23.2907V23.2963C76.2964 23.2985 76.2973 23.3005 76.2988 23.302C76.2993 23.3025 76.2999 23.303 76.3005 23.3033C76.3008 23.3035 76.3011 23.3036 76.3014 23.3038C76.3024 23.3042 76.3034 23.3044 76.3045 23.3044Z" fill="#00AB55"/>
<path d="M81.288 24.2486V23.9774C81.2262 23.7021 81.058 23.5258 80.7832 23.4485C80.5289 23.3771 80.2219 23.3095 79.8624 23.2456C79.7255 23.2207 79.5299 23.0959 79.4929 22.947C79.4044 22.5912 79.7497 22.4238 80.0491 22.4021C80.4119 22.3758 80.7296 22.4517 81.0022 22.6299C81.0151 22.6379 81.0253 22.6352 81.0328 22.6218L81.1938 22.3272C81.197 22.3213 81.1956 22.317 81.1898 22.3143C80.7583 22.0809 80.3043 22.0058 79.8278 22.0889C79.4591 22.1533 79.1097 22.4029 79.084 22.7989C79.0582 23.2003 79.2525 23.4533 79.6668 23.558C79.8927 23.6154 80.1524 23.6717 80.446 23.727C80.5393 23.7447 80.6303 23.778 80.7188 23.8268C80.9587 23.9588 80.9338 24.2712 80.7309 24.4201C80.6327 24.492 80.5147 24.5344 80.3767 24.5473C79.919 24.5891 79.5286 24.4976 79.2055 24.2728C79.1728 24.2497 79.1462 24.2556 79.1258 24.2905L78.9954 24.5167C78.9876 24.5302 78.9853 24.5462 78.9891 24.5613C78.9929 24.5763 79.0024 24.5892 79.0156 24.5972C79.3987 24.8295 79.8342 24.9277 80.322 24.8918C80.8334 24.8548 81.1554 24.6404 81.288 24.2486Z" fill="#00AB55"/>
<path d="M35.5344 22.0768H35.2156C35.1983 22.0768 35.1842 22.0909 35.1842 22.1082V24.8418C35.1842 24.8592 35.1983 24.8732 35.2156 24.8732H35.5344C35.5517 24.8732 35.5658 24.8592 35.5658 24.8418V22.1082C35.5658 22.0909 35.5517 22.0768 35.5344 22.0768Z" fill="#00AB55"/>
</g>
<defs>
<clipPath id="clip0_4052_7585">
<rect width="80.5759" height="26" fill="white" transform="translate(0.712097 0.000976562)"/>
</clipPath>
</defs>
</svg>
