<svg xmlns="http://www.w3.org/2000/svg" width="84" height="28" fill="none"><g clip-path="url(#a)"><path fill="#919EAB" fill-rule="evenodd" d="M23.066 4.563a4.613 4.613 0 0 1-1.302 3.313 4.752 4.752 0 0 1-5.098 1.122 4.704 4.704 0 0 1-1.548-.971 4.637 4.637 0 0 1-1.052-1.483 4.59 4.59 0 0 1-.398-1.768 4.613 4.613 0 0 1 1.302-3.313A4.75 4.75 0 0 1 20.067.341c.575.22 1.1.55 1.547.971.446.422.804.925 1.053 1.483.249.558.384 1.158.398 1.768Zm-4.75 3.696a3.551 3.551 0 0 0 2.54-1.024 3.64 3.64 0 0 0 1.083-2.543 3.64 3.64 0 0 0-1.01-2.573 3.551 3.551 0 0 0-2.512-1.094 3.551 3.551 0 0 0-2.542 1.024 3.64 3.64 0 0 0-1.082 2.543 3.64 3.64 0 0 0 1.01 2.573 3.552 3.552 0 0 0 2.512 1.094ZM6.155 1.25c-1.258.417-2.07 1.457-2.292 2.771-.239 1.426.35 2.994 1.643 3.729a4.14 4.14 0 0 0 1.563.512c.624.075 1.367-.07 1.897-.375.251-.145.504-.3.759-.466a.029.029 0 0 1 .029-.002.027.027 0 0 1 .014.025l.001 1.163a.1.1 0 0 1-.066.1 6.173 6.173 0 0 1-2.63.505 4.864 4.864 0 0 1-1.47-.259C4.362 8.513 3.489 7.675 2.987 6.44a4.845 4.845 0 0 1-.334-1.457 4.705 4.705 0 0 1 .118-1.425c.172-.745.59-1.37 1.056-1.958C4.469.792 5.289.3 6.285.125A5.229 5.229 0 0 1 7.406.038C8.008.066 8.7.16 9.24.388c.157.067.316.132.478.197.034.014.052.04.052.077l.003 1.04c0 .095-.04.117-.119.065a4.41 4.41 0 0 0-1.54-.645c-.379-.077-.82-.074-1.199-.04-.226.02-.479.076-.758.168ZM38.81 5.087c-.087-.679.022-1.362.326-2.05.487-1.102 1.596-1.855 2.815-1.96.345-.03.672-.023.982.02.592.086 1.17.317 1.732.696.084.057.123.034.116-.068a8.447 8.447 0 0 1-.008-1.032.062.062 0 0 0-.032-.056 4.514 4.514 0 0 0-1.56-.518c-.427-.058-.848-.11-1.283-.07a9.32 9.32 0 0 0-.587.064c-1 .171-1.819.641-2.455 1.41-.506.613-.934 1.279-1.124 2.086-.04.171-.056.338-.072.506-.007.081-.015.163-.025.246a2.098 2.098 0 0 0-.001.557c.013.097.02.194.028.291.01.142.021.284.05.426.241 1.156.936 2.266 1.95 2.882.582.353 1.242.598 1.917.66.21.02.41.032.603.036.809.02 1.655-.155 2.538-.527a.067.067 0 0 0 .044-.066l.01-1.18a.023.023 0 0 0-.01-.021.025.025 0 0 0-.022-.004 1.053 1.053 0 0 0-.252.128c-.503.348-.955.585-1.579.691-.33.056-.646.06-.947.015-1.733-.261-2.924-1.364-3.154-3.162ZM27.315 2.529c.006.046.012.092.012.137.003 2.1.004 4.215.006 6.344 0 .029-.015.043-.044.043l-.94.002a.052.052 0 0 1-.051-.052l.001-8.865c0-.035.018-.056.053-.06.098-.013.236 0 .307.081a1135.67 1135.67 0 0 0 5.668 6.359c.161.179.282.325.363.437.065.092.098.082.098-.03L32.781.361a.05.05 0 0 1 .014-.036.05.05 0 0 1 .035-.015l.964.001c.043 0 .065.021.065.064a597.759 597.759 0 0 1-.025 8.839.1.1 0 0 1-.158.077 2.066 2.066 0 0 1-.335-.305c-1.668-1.85-3.415-3.8-5.24-5.848a38.017 38.017 0 0 0-.748-.816.028.028 0 0 0-.029-.007.027.027 0 0 0-.018.023.707.707 0 0 0 .01.19Zm28.172 1.304-3.584-.003a.034.034 0 0 1-.033-.033l-.01-2.47a.034.034 0 0 1 .034-.034l3.593.007a.034.034 0 0 0 .034-.034V.35a.034.034 0 0 0-.034-.034l-4.68.002a.034.034 0 0 0-.033.033v8.67c0 .005.002.01.003.013l.001.002a.034.034 0 0 0 .01.012l.002.001a.034.034 0 0 0 .019.006h4.683a.034.034 0 0 0 .034-.033l-.007-.93a.034.034 0 0 0-.033-.034l-3.587.01a.034.034 0 0 1-.033-.033l-.001-3.245a.034.034 0 0 1 .02-.03.034.034 0 0 1 .014-.003l3.59.008a.034.034 0 0 0 .033-.034v-.866a.034.034 0 0 0-.035-.033Zm8.25 1.328.007 3.823c0 .048-.024.072-.072.071l-1.03-.006a.028.028 0 0 1-.019-.008.028.028 0 0 1-.008-.02l.002-8.64c0-.04.02-.06.06-.06.772 0 1.595-.002 2.47-.008.342-.002.64.039.89.122.905.298 1.597.992 1.611 1.991.004.27-.004.508-.024.717-.083.87-.767 1.618-1.58 1.882-.248.08-.567.117-.959.107a25.893 25.893 0 0 0-1.318-.001.031.031 0 0 0-.022.009.03.03 0 0 0-.008.02Zm.006-3.868-.01 2.89c0 .007.002.013.006.018.005.004.01.006.017.006l1.32.005a1.435 1.435 0 0 0 1.025-.424 1.463 1.463 0 0 0 .427-1.033V2.74c.001-.387-.15-.76-.42-1.034a1.44 1.44 0 0 0-1.021-.432l-1.32-.004a.024.024 0 0 0-.024.023Zm9.836-.029 2.335-.013c.025 0 .037.012.037.036l-.004 7.723a.04.04 0 0 0 .04.04l1.053.004c.048 0 .072-.024.072-.073l-.009-7.716a.012.012 0 0 1 .013-.012l2.422.006a.055.055 0 0 0 .055-.056l-.002-.805c0-.054-.027-.08-.08-.08-1.8-.003-3.605-.003-5.417 0-.178 0-.354.004-.527.013-.03.002-.046.017-.049.046-.024.292-.024.57-.001.83.003.039.024.057.062.057ZM34.465 18.021c0 .047.013.052.04.013l4.69-6.784a.07.07 0 0 1 .06-.032l2.81.005a.032.032 0 0 1 .032.033l.002 16.648c0 .01-.005.02-.012.028a.04.04 0 0 1-.028.011l-3.08.001c-.026 0-.04-.013-.04-.038l.015-11.001c0-.099-.027-.107-.081-.026l-7.4 10.942a.42.42 0 0 1-.1.104.026.026 0 0 1-.028 0 .027.027 0 0 1-.01-.01c-.002-.005-.003-.01-.002-.015.023-.133.035-.26.035-.38.005-3.402.005-6.967-.002-10.693a.022.022 0 0 0-.01-.02h-.002a.022.022 0 0 0-.023.001.132.132 0 0 0-.038.04 9816.321 9816.321 0 0 0-7.47 11.03.151.151 0 0 1-.125.066h-3.602c-.06 0-.073-.024-.04-.073l11.53-16.576a.178.178 0 0 1 .145-.076l2.691.002c.028 0 .042.014.042.042v6.758Zm28.522 5.177a.76.76 0 0 1 0 .138.03.03 0 0 1-.04.016.031.031 0 0 1-.014-.013l-6.766-12.066a.1.1 0 0 0-.088-.051l-3.464.002a.025.025 0 0 0-.018.006.023.023 0 0 0-.007.017l.001 16.656a.04.04 0 0 0 .04.041h3.026c.027 0 .04-.014.04-.04V15.97c0-.135.034-.144.101-.027l6.791 11.974a.055.055 0 0 0 .027.024l.005.002c.005.002.01.003.016.003l3.328-.002a.057.057 0 0 0 .057-.056V11.264c0-.027-.013-.041-.04-.041l-2.98.002c-.028 0-.042.014-.042.042-.005 3.986.002 7.934.022 11.845 0 .029.002.058.005.086Zm14.868-.958v-.005a.033.033 0 0 0-.01-.021.034.034 0 0 0-.028-.01 4.144 4.144 0 0 1-.482.029l-4.328.01c-.049 0-.073-.024-.074-.073l-.004-2.75.001-.01.001-.004.001-.003.001-.004.002-.004.002-.004a.056.056 0 0 1 .008-.01.055.055 0 0 1 .015-.01l.003-.002a.054.054 0 0 1 .021-.004l10.177.008a.053.053 0 0 1 .052.055c0 .01-.003.018-.009.026a3503.14 3503.14 0 0 0-5.268 7.788.533.533 0 0 1-.288.212c-1.2.385-2.379.605-3.593.44a94.828 94.828 0 0 1-.452-.062c-1.793-.25-3.425-1.065-4.75-2.326a7.595 7.595 0 0 1-.972-1.126c-1.329-1.885-1.794-3.999-1.396-6.34a7.489 7.489 0 0 1 .68-2.043c1.454-2.956 4.494-4.858 7.805-4.784 2.582.057 5.302 1.413 6.78 3.562.293.427.537.935.759 1.426a.068.068 0 0 1-.061.096h-3.405a.117.117 0 0 1-.096-.052 5.006 5.006 0 0 0-4.013-2.215c-2.813-.1-5.139 1.944-5.545 4.696a5.923 5.923 0 0 0-.052 1.11c.036.873.33 1.781.736 2.523.88 1.612 2.486 2.595 4.327 2.732.414.03.888.02 1.422-.032.107-.01.16-.078.216-.16a169.887 169.887 0 0 1 1.737-2.5l.005-.005.012-.016c.031-.04.062-.08.063-.138Zm-65.843-.025.23-.003a.044.044 0 0 1 .035.07l-1.861 2.681a.208.208 0 0 1-.157.093c-.774.083-1.626.083-2.363-.107-2.563-.663-3.974-2.738-4.166-5.32a2.28 2.28 0 0 1 .037-.499c.012-.083.024-.167.032-.25.071-.764.342-1.529.725-2.184 1.408-2.406 4.407-3.358 6.935-2.135a4.762 4.762 0 0 1 1.89 1.647c.04.06.097.09.169.09l3.41-.005a.031.031 0 0 0 .029-.043c-.15-.336-.307-.656-.47-.96a6.426 6.426 0 0 0-1.243-1.61c-1.26-1.205-2.768-1.982-4.525-2.332a7.598 7.598 0 0 0-1.51-.136 8.003 8.003 0 0 0-1.667.164c-1.866.405-3.431 1.316-4.694 2.73-1.22 1.369-2.042 3.28-2.07 5.173-.007.553.008.986.048 1.299.443 3.498 3.004 6.284 6.428 7.111.208.05.474.1.796.146.265.039.529.07.794.095 1.072.1 2.167-.13 3.256-.481a.485.485 0 0 0 .261-.197l5.086-7.534c.056-.083.116-.187.18-.313.013-.022.006-.033-.02-.033-3.399 0-6.783-.002-10.152-.007-.048 0-.072.024-.072.073l-.002 2.748a.055.055 0 0 0 .054.055c1.52.006 3.045-.003 4.577-.026Zm11.53-5.3c0-.077-.022-.084-.065-.02l-7.455 10.979a.154.154 0 0 1-.134.07h-3.55c-.06 0-.074-.025-.039-.076l11.505-16.583a.13.13 0 0 1 .109-.057l2.708-.002c.025 0 .038.013.038.038l-.015 6.09a.306.306 0 0 1-.065.186l-2.908 3.744c-.111.143-.162.124-.153-.056.001-.036.005-.072.01-.107.005-.047.01-.094.01-.143-.004-1.324-.003-2.679.003-4.063Zm22.246 8.05c0 .017-.008.025-.025.025l-2.732-.008c-.039 0-.058.019-.058.057v2.837c0 .045.023.068.068.068h8.655a.056.056 0 0 0 .056-.057l-.006-2.835c0-.048-.024-.072-.072-.072l-2.754.011a.05.05 0 0 1-.05-.054c.011-.109.017-.225.017-.347l-.005-10.383c0-.016.008-.024.025-.024l2.826.011.006-.001a.016.016 0 0 0 .006-.004.02.02 0 0 0 .005-.013l.001-2.913c0-.026-.013-.039-.039-.039l-8.717.002h-.004a.019.019 0 0 0-.008.004l-.003.002a.022.022 0 0 0-.005.007.024.024 0 0 0-.001.005v.002l-.002 2.896c0 .013.005.025.014.034a.048.048 0 0 0 .035.014l2.745-.004c.006 0 .012.002.017.007.004.004.006.01.006.016v10.756Z" clip-rule="evenodd"/></g><defs><clipPath id="a"><path fill="#fff" d="M.765.001h82.47v28H.765z"/></clipPath></defs></svg>