<svg width="40" height="34" viewBox="0 0 40 34" fill="none" xmlns="http://www.w3.org/2000/svg">
<g clip-path="url(#clip0_4416_8548)">
<path d="M14.9006 13.3869C14.9006 13.1361 14.9006 12.8852 14.9006 12.6049C14.8183 12.9645 14.7403 13.3051 14.6405 13.6553C14.5451 13.6917 14.4624 13.7051 14.399 13.7475C13.831 14.1278 13.2651 14.5114 12.701 14.8974C11.914 15.4359 11.1271 15.9746 10.3445 16.5195C10.1252 16.6722 9.92116 16.8469 9.7101 17.0116C9.61367 16.777 9.51077 16.5448 9.42298 16.307C9.36032 16.1373 9.31795 15.9602 9.27123 15.7596C9.33745 15.6592 9.38647 15.5675 9.46247 15.5146C9.99902 15.1412 10.5422 14.7772 11.0812 14.4073C12.146 13.6767 13.2082 12.9425 14.2738 12.2132C15.1312 11.6264 15.9938 11.0472 16.8507 10.4598C17.6507 9.91138 18.444 9.35296 19.2469 8.80868C19.3534 8.73646 19.4989 8.72171 19.6264 8.68034C19.9207 8.97396 20.215 9.26757 20.5066 9.58089C20.0153 9.92296 19.5231 10.2401 19.0389 10.569C18.3741 11.0205 17.7154 11.481 17.0539 11.9374C16.5103 12.3124 15.9677 12.6889 15.422 13.0608C15.2527 13.1761 15.0746 13.2786 14.9006 13.3869Z" fill="#00AB55"/>
<path d="M19.6216 8.66957C19.4989 8.72171 19.3534 8.73646 19.2469 8.80868C18.444 9.35296 17.6507 9.91138 16.8507 10.4598C15.9938 11.0472 15.1312 11.6264 14.2738 12.2132C13.2082 12.9425 12.146 13.6767 11.0812 14.4073C10.5422 14.7772 9.99902 15.1412 9.46247 15.5146C9.38647 15.5675 9.33745 15.6592 9.27348 15.7466C9.20438 15.5682 9.13508 15.377 9.07222 15.1837C9.04084 15.0872 9.02121 14.9869 8.99255 14.8736C8.82911 15.1275 8.69679 15.3838 8.51603 15.5995C8.33212 15.819 8.1005 15.9985 7.87551 16.1929C7.86125 16.1902 7.85759 16.1866 7.85759 16.1866C7.97583 16.0224 8.09794 15.8608 8.21147 15.6934C8.44119 15.3547 8.59305 14.9825 8.69521 14.5705C8.79045 14.4904 8.85726 14.4109 8.93952 14.3535C9.45741 13.992 9.97898 13.6358 10.4989 13.2772C11.5193 12.5735 12.5389 11.8687 13.5597 11.1656C14.3115 10.6478 15.0645 10.132 15.8172 9.61553C16.6024 9.07669 17.3849 8.53367 18.1758 8.00315C18.338 7.89431 18.532 7.83274 18.7114 7.74938C19.0132 8.05252 19.3149 8.35566 19.6216 8.66957Z" fill="#00AB55"/>
<path d="M9.4834 7.12596C9.72615 6.42057 10.0622 5.76091 10.4594 5.131C11.5033 3.47543 12.9344 2.23975 14.6313 1.29626C14.9815 1.10155 15.3483 0.936278 15.7114 0.765746C15.7502 0.747501 15.835 0.766994 15.8652 0.7997C16.1636 1.12296 16.4541 1.45342 16.7489 1.78006C16.813 1.85113 16.8851 1.91508 16.9414 1.99449C16.8282 2.03853 16.7129 2.04915 16.6283 2.10571C16.0845 2.46927 15.5478 2.84339 15.0081 3.2131C14.3315 3.67661 13.6541 4.13901 12.9773 4.60228C12.116 5.19185 11.2503 5.77513 10.3964 6.37516C10.0917 6.58927 9.72668 6.74147 9.54658 7.10487C9.53963 7.11889 9.50509 7.11924 9.4834 7.12596Z" fill="#00AB55"/>
<path d="M9.47404 7.13403C9.50509 7.11924 9.53963 7.11889 9.54658 7.10487C9.72668 6.74147 10.0917 6.58927 10.3964 6.37516C11.2503 5.77513 12.116 5.19185 12.9773 4.60228C13.6541 4.13901 14.3315 3.67661 15.0081 3.2131C15.5478 2.84339 16.0845 2.46927 16.6283 2.10571C16.7129 2.04915 16.8282 2.03853 16.9439 2.00622C16.9585 2.00577 16.957 2.00636 16.9583 2.01728C16.9918 2.0562 17.0241 2.08421 17.0563 2.11222C17.2905 2.36717 17.5247 2.62213 17.7486 2.89152C17.6757 2.9332 17.6068 2.95125 17.5514 2.98909C16.9025 3.43244 16.2567 3.88026 15.608 4.32387C14.9821 4.75182 14.3519 5.17331 13.7273 5.60297C13.0367 6.07798 12.3518 6.56121 11.6617 7.03685C10.9716 7.51246 10.2776 7.98239 9.5864 8.45639C9.37944 8.59831 9.17611 8.74551 8.97111 8.89029C9.09747 8.41458 9.22218 7.93843 9.35143 7.46351C9.38118 7.3542 9.42651 7.24912 9.47404 7.13403Z" fill="#00AB55"/>
<path d="M8.69315 11.1755C8.69515 11.1134 8.69715 11.0513 8.71877 10.9765C9.011 10.7837 9.28647 10.6078 9.55571 10.4228C10.6065 9.70088 11.655 8.97563 12.705 8.25253C13.4378 7.74785 14.1713 7.24414 14.9051 6.74092C15.5733 6.28275 16.2369 5.81772 16.9134 5.3723C17.1879 5.19161 17.4234 4.93784 17.7663 4.8719C18.0035 5.11723 18.2406 5.36256 18.4719 5.62929C18.2882 5.74918 18.1024 5.83583 17.9339 5.94829C17.2936 6.37561 16.6573 6.8091 16.0223 7.24427C14.7378 8.12447 13.4551 9.00729 12.1716 9.889C11.7552 10.1751 11.3391 10.4618 10.922 10.7469C10.5952 10.9702 10.2652 11.1887 9.94 11.4143C9.53484 11.6955 9.13323 11.9817 8.72418 12.2699C8.72418 12.0283 8.72723 11.7706 8.72277 11.5131C8.72081 11.4004 8.7035 11.288 8.69315 11.1755Z" fill="#00AB55"/>
<path d="M18.7077 7.73861C18.532 7.83274 18.338 7.89431 18.1758 8.00315C17.3849 8.53367 16.6024 9.07669 15.8172 9.61553C15.0645 10.132 14.3115 10.6478 13.5597 11.1656C12.5389 11.8687 11.5193 12.5735 10.4989 13.2772C9.97898 13.6358 9.45741 13.992 8.93952 14.3535C8.85726 14.4109 8.79045 14.4904 8.70493 14.5619C8.70513 14.17 8.71691 13.7761 8.74387 13.3668C8.78069 13.3447 8.80675 13.3435 8.82331 13.3303C9.01974 13.1744 9.20608 13.0041 9.41174 12.8617C10.0393 12.4271 10.6757 12.0054 11.3057 11.5743C11.9685 11.1206 12.6268 10.6603 13.2891 10.2059C13.8098 9.84858 14.335 9.4978 14.8557 9.14049C15.575 8.64685 16.2914 8.14877 17.0104 7.65457C17.4687 7.33954 17.9251 7.02133 18.3911 6.71788C18.6231 6.56678 18.8203 6.34375 19.1241 6.32371C19.2955 6.49492 19.4669 6.66613 19.6768 6.87574C19.143 6.97775 18.6643 7.06923 18.1523 7.16707C18.3496 7.36763 18.5268 7.54774 18.7077 7.73861Z" fill="#00AB55"/>
<path d="M19.1195 6.31173C18.8203 6.34375 18.6231 6.56678 18.3911 6.71788C17.9251 7.02133 17.4687 7.33954 17.0104 7.65457C16.2914 8.14877 15.575 8.64685 14.8557 9.14049C14.335 9.4978 13.8098 9.84858 13.2891 10.2059C12.6268 10.6603 11.9685 11.1206 11.3057 11.5743C10.6757 12.0054 10.0393 12.4271 9.41174 12.8617C9.20608 13.0041 9.01974 13.1744 8.82331 13.3303C8.80675 13.3435 8.78069 13.3447 8.74711 13.3519C8.71546 12.6341 8.69575 11.9158 8.6846 11.1865C8.7035 11.288 8.72081 11.4004 8.72277 11.5131C8.72723 11.7706 8.72418 12.0283 8.72418 12.2699C9.13323 11.9817 9.53484 11.6955 9.94 11.4143C10.2652 11.1887 10.5952 10.9702 10.922 10.7469C11.3391 10.4618 11.7552 10.1751 12.1716 9.889C13.4551 9.00729 14.7378 8.12447 16.0223 7.24427C16.6573 6.8091 17.2936 6.37561 17.9339 5.94829C18.1024 5.83583 18.2882 5.74918 18.4748 5.64047C18.694 5.85343 18.9044 6.07659 19.1195 6.31173Z" fill="#00AB55"/>
<path d="M8.96705 8.90362C9.17611 8.74551 9.37944 8.59831 9.5864 8.45639C10.2776 7.98239 10.9716 7.51246 11.6617 7.03685C12.3518 6.56121 13.0367 6.07798 13.7273 5.60297C14.3519 5.17331 14.9821 4.75182 15.608 4.32387C16.2567 3.88026 16.9025 3.43244 17.5514 2.98909C17.6068 2.95125 17.6757 2.9332 17.7517 2.90327C17.8785 3.00974 17.9963 3.11465 18.1041 3.22899C18.3008 3.43756 18.4916 3.65172 18.7062 3.88699C18.1281 3.92664 17.5874 3.96373 16.997 4.00421C17.1019 4.12351 17.1804 4.21288 17.2476 4.31135C17.134 4.33192 17.0119 4.31139 16.933 4.36043C16.5967 4.56939 16.2713 4.79611 15.9455 5.02155C15.2994 5.46865 14.658 5.92248 14.0105 6.3674C13.3106 6.84828 12.6053 7.32127 11.9035 7.79931C11.0116 8.40684 10.1184 9.01243 9.23182 9.62767C9.0693 9.74046 8.86211 9.82701 8.82405 10.0644C8.82171 10.079 8.78843 10.0886 8.76954 10.1006C8.83402 9.70604 8.8985 9.3115 8.96705 8.90362Z" fill="#00AB55"/>
<path d="M14.8925 13.3966C15.0746 13.2786 15.2527 13.1761 15.422 13.0608C15.9677 12.6889 16.5103 12.3124 17.0539 11.9374C17.7154 11.481 18.3741 11.0205 19.0389 10.569C19.5231 10.2401 20.0153 9.92296 20.5113 9.59148C20.7955 9.85846 21.0723 10.1346 21.3458 10.4323C21.0287 10.6666 20.7139 10.8777 20.4015 11.0921C19.5252 11.6935 18.6497 12.296 17.7744 12.8987C17.0887 13.3708 16.4039 13.8443 15.7183 14.3165C15.5641 14.4227 15.4082 14.5265 15.2531 14.6313C15.2531 14.5232 15.2531 14.415 15.2531 14.2624C15.094 14.3954 14.9576 14.5095 14.7906 14.649C14.7983 14.49 14.8011 14.3578 14.8117 14.2263C14.8338 13.9528 14.86 13.6796 14.8925 13.3966Z" fill="#00AB55"/>
<path d="M8.76561 10.115C8.78843 10.0886 8.82171 10.079 8.82405 10.0644C8.86211 9.82701 9.0693 9.74046 9.23182 9.62767C10.1184 9.01243 11.0116 8.40684 11.9035 7.79931C12.6053 7.32127 13.3106 6.84828 14.0105 6.3674C14.658 5.92248 15.2994 5.46865 15.9455 5.02155C16.2713 4.79611 16.5967 4.56939 16.933 4.36043C17.0119 4.31139 17.134 4.33192 17.2494 4.32269C17.4279 4.49959 17.5933 4.67425 17.7625 4.8604C17.4234 4.93784 17.1879 5.19161 16.9134 5.3723C16.2369 5.81772 15.5733 6.28275 14.9051 6.74092C14.1713 7.24414 13.4378 7.74785 12.705 8.25253C11.655 8.97563 10.6065 9.70088 9.55571 10.4228C9.28647 10.6078 9.011 10.7837 8.72525 10.9649C8.71479 10.8143 8.71746 10.6627 8.7351 10.4933C8.75279 10.4198 8.75553 10.364 8.75826 10.3082C8.7594 10.2486 8.76054 10.189 8.76561 10.115Z" fill="#00AB55"/>
<path d="M21.5205 12.5913C21.2412 13.0083 21.0797 13.4762 20.9163 13.9671C20.8533 14.1763 20.8071 14.3689 20.7476 14.5619C20.662 14.5931 20.5825 14.6131 20.5186 14.6562C20.0192 14.9927 19.5218 15.3321 19.0257 15.6733C18.1459 16.2783 17.2662 16.8835 16.3899 17.4934C16.2908 17.5623 16.2134 17.6623 16.1259 17.7479C15.9138 17.7479 15.7016 17.7479 15.503 17.7479C15.503 17.3868 15.503 17.0283 15.517 16.6514C15.6229 16.5555 15.7094 16.4702 15.8077 16.4018C16.2361 16.1036 16.6679 15.8104 17.0985 15.5153C17.9074 14.9607 18.7163 14.4061 19.5251 13.8515C20.0645 13.4816 20.6011 13.1076 21.1453 12.7451C21.2556 12.6716 21.3947 12.6414 21.5205 12.5913Z" fill="#00AB55"/>
<path d="M21.5265 12.5812C21.3947 12.6414 21.2556 12.6716 21.1453 12.7451C20.6011 13.1076 20.0645 13.4816 19.5251 13.8515C18.7163 14.4061 17.9074 14.9607 17.0985 15.5153C16.6679 15.8104 16.2361 16.1036 15.8077 16.4018C15.7094 16.4702 15.6229 16.5555 15.5199 16.6356C15.5091 16.5672 15.5092 16.4963 15.5248 16.4054C15.5485 16.2775 15.5567 16.1695 15.5649 16.0615C15.5627 15.9466 15.5604 15.8317 15.5633 15.692C15.5591 15.6508 15.5499 15.6344 15.5406 15.6181C15.5283 15.6319 15.5161 15.6457 15.5038 15.6595C15.5038 15.6595 15.4946 15.671 15.4759 15.6701C15.3623 15.6016 15.4499 15.5821 15.4894 15.5545C16.0112 15.1896 16.5316 14.8225 17.0565 14.4621C17.6805 14.0336 18.3109 13.6145 18.9344 13.1854C19.8177 12.5776 20.6961 11.9629 21.5794 11.3552C21.7196 11.2588 21.8743 11.1836 22.0223 11.0986C22.1789 11.2535 22.3355 11.4083 22.4645 11.536C22.1453 11.8905 21.8389 12.2308 21.5265 12.5812Z" fill="#00AB55"/>
<path d="M22.0172 11.0876C21.8743 11.1836 21.7196 11.2588 21.5794 11.3552C20.6961 11.9629 19.8177 12.5776 18.9344 13.1854C18.3109 13.6145 17.6805 14.0336 17.0565 14.4621C16.5316 14.8225 16.0112 15.1896 15.4894 15.5545C15.4499 15.5821 15.3623 15.6016 15.4687 15.6715C15.3748 15.7657 15.2695 15.8574 15.1641 15.9492C15.1509 15.9438 15.1377 15.9384 15.1245 15.933C15.1398 15.7279 15.1551 15.5228 15.1843 15.3001C15.1971 15.2621 15.1961 15.2418 15.195 15.2215C15.2093 15.0342 15.2235 14.847 15.2454 14.6456C15.4082 14.5265 15.5641 14.4227 15.7183 14.3165C16.4039 13.8443 17.0887 13.3708 17.7744 12.8987C18.6497 12.296 19.5252 11.6935 20.4015 11.0921C20.7139 10.8777 21.0287 10.6666 21.3493 10.4431C21.5748 10.647 21.7935 10.8618 22.0172 11.0876Z" fill="#00AB55"/>
<path d="M9.70936 17.0238C9.92116 16.8469 10.1252 16.6722 10.3445 16.5195C11.1271 15.9746 11.914 15.4359 12.701 14.8974C13.2651 14.5114 13.831 14.1278 14.399 13.7475C14.4624 13.7051 14.5451 13.6917 14.6328 13.6656C14.597 14.0933 14.5471 14.5204 14.4817 14.9674C14.4546 15.0408 14.4474 15.0958 14.4296 15.1472C14.4163 15.1858 14.3983 15.2329 14.3673 15.2539C14.0213 15.4873 13.6697 15.7123 13.3248 15.9473C12.5487 16.4761 11.7745 17.0076 11.0032 17.5433C10.9332 17.5919 10.8898 17.6788 10.8341 17.748C10.5825 17.7507 10.3308 17.7573 10.0794 17.7524C10.0366 17.7515 9.97242 17.7106 9.95603 17.6721C9.867 17.4628 9.78987 17.2485 9.70936 17.0238Z" fill="#00AB55"/>
<path d="M16.1419 17.7511C16.2134 17.6623 16.2908 17.5623 16.3899 17.4934C17.2662 16.8835 18.1459 16.2783 19.0257 15.6733C19.5218 15.3321 20.0192 14.9927 20.5186 14.6562C20.5825 14.6131 20.662 14.5931 20.7543 14.5621C20.7743 14.562 20.7877 14.5611 20.7877 14.5611C20.7876 14.5879 20.7874 14.6147 20.7714 14.6596C20.7473 14.781 20.7391 14.8841 20.7309 14.9872C20.7312 15.0227 20.7315 15.0581 20.7184 15.1171C20.6997 15.4437 20.6942 15.7468 20.677 16.0517C20.6009 16.1003 20.5376 16.1487 20.472 16.1937C20.061 16.4751 19.6586 16.7706 19.2353 17.0322C18.8883 17.2465 18.6075 17.5694 18.1937 17.6765C18.1687 17.683 18.1524 17.7234 18.132 17.748C17.474 17.7501 16.8159 17.7522 16.1419 17.7511Z" fill="#00AB55"/>
<path d="M10.85 17.7512C10.8898 17.6788 10.9332 17.5919 11.0032 17.5433C11.7745 17.0076 12.5487 16.4761 13.3248 15.9473C13.6697 15.7123 14.0213 15.4873 14.3673 15.2539C14.3983 15.2329 14.4163 15.1858 14.4296 15.1472C14.4474 15.0958 14.4546 15.0408 14.4782 14.9828C14.4831 15.1255 14.4761 15.2727 14.4669 15.4657C14.6038 15.3759 14.7094 15.3066 14.8466 15.2166C14.7949 15.599 14.7478 15.9482 14.6837 16.3121C14.6001 16.3568 14.5271 16.3776 14.4677 16.4181C13.9271 16.7875 13.3891 17.1605 12.8499 17.5319C12.7434 17.6053 12.6351 17.6761 12.5277 17.7481C11.9738 17.7502 11.4199 17.7523 10.85 17.7512Z" fill="#00AB55"/>
<path d="M18.148 17.7513C18.1524 17.7234 18.1687 17.683 18.1937 17.6765C18.6075 17.5694 18.8883 17.2465 19.2353 17.0322C19.6586 16.7706 20.061 16.4751 20.472 16.1937C20.5376 16.1487 20.6009 16.1003 20.6781 16.0639C20.7017 16.1113 20.7124 16.1482 20.7232 16.1851C20.7275 16.2354 20.7318 16.2857 20.7309 16.3642C20.7341 16.46 20.7425 16.5277 20.751 16.5954C20.8213 16.9698 20.8917 17.3442 20.9688 17.7547C20.0287 17.7547 19.0963 17.7547 18.148 17.7513Z" fill="#00AB55"/>
<path d="M26.7107 2.00545C27.0223 2.29566 27.3355 2.58427 27.6444 2.87736C27.7099 2.93957 27.76 3.01809 27.8049 3.10132C27.726 3.1253 27.6501 3.12045 27.5949 3.15191C27.4304 3.2456 27.2714 3.34961 27.115 3.45659C26.3576 3.97477 25.602 4.49573 24.8452 5.01479C24.0312 5.57303 23.2157 6.12901 22.4025 6.68835C21.8065 7.09829 21.2146 7.51423 20.6173 7.92217C20.5085 7.99646 20.4339 8.07611 20.4447 8.21401C20.2623 7.96797 20.08 7.72193 19.8805 7.45282C20.2017 7.31328 20.488 7.18889 20.7923 7.05669C20.6288 6.8368 20.4794 6.63569 20.3398 6.4194C20.3707 6.39545 20.3943 6.39025 20.4126 6.37742C20.8161 6.09373 21.2171 5.80645 21.6225 5.52544C22.3252 5.03826 23.0297 4.55362 23.7352 4.07032C24.1944 3.75571 24.6572 3.44647 25.1171 3.1328C25.5865 2.81258 26.0549 2.49081 26.5221 2.16726C26.5898 2.12035 26.6481 2.05973 26.7107 2.00545Z" fill="#00AB55"/>
<path d="M20.4495 8.22407C20.4339 8.07611 20.5085 7.99646 20.6173 7.92217C21.2146 7.51423 21.8065 7.09829 22.4025 6.68835C23.2157 6.12901 24.0312 5.57303 24.8452 5.01479C25.602 4.49573 26.3576 3.97477 27.115 3.45659C27.2714 3.34961 27.4304 3.2456 27.5949 3.15191C27.6501 3.12045 27.726 3.1253 27.8072 3.1131C28.0424 3.42057 28.2628 3.72847 28.4793 4.06182C28.4024 4.13849 28.33 4.19053 28.2564 4.24085C27.6115 4.68177 26.9643 5.1194 26.3221 5.56424C25.9602 5.81491 25.6065 6.07732 25.2361 6.33377C25.1406 6.31224 25.059 6.27764 24.9756 6.27284C24.5374 6.2476 24.2247 6.52943 24.1234 7.0272C24.0481 7.09632 23.9863 7.16471 23.917 7.22432C23.8699 7.26479 23.8112 7.29149 23.7594 7.32683C23.2633 7.66536 22.7646 8.00009 22.2727 8.34472C21.8902 8.61278 21.5164 8.89336 21.1387 9.16838C20.9106 8.85696 20.6824 8.54554 20.4495 8.22407Z" fill="#00AB55"/>
<path d="M24.9745 11.1451C24.9488 11.1452 24.9231 11.1453 24.8747 11.1322C24.5503 11.1247 24.2486 11.1304 23.9469 11.1361C23.9219 11.1404 23.8968 11.1447 23.8436 11.1449C23.7425 11.1402 23.6696 11.1397 23.5984 11.1273C23.6209 11.0893 23.6371 11.0568 23.6632 11.0382C23.9478 10.8352 24.2321 10.6316 24.52 10.4333C25.3521 9.86052 26.1869 9.29168 27.0186 8.71831C27.7319 8.22661 28.44 7.72745 29.1558 7.23957C29.3049 7.13789 29.478 7.07119 29.64 6.98837C29.6447 7.00337 29.6494 7.01837 29.6454 7.0506C29.649 7.08735 29.6614 7.10688 29.6737 7.12641C29.748 7.55431 29.8222 7.98221 29.8823 8.42701C29.3473 8.79944 28.8261 9.15443 28.3058 9.51064C27.5248 10.0452 26.7433 10.579 25.9657 11.1185C25.887 11.1732 25.8342 11.2653 25.7694 11.34C25.5841 11.2939 25.3989 11.2477 25.1951 11.1857C25.1092 11.1617 25.0419 11.1534 24.9745 11.1451Z" fill="#00AB55"/>
<path d="M26.7044 1.99587C26.6481 2.05973 26.5898 2.12035 26.5221 2.16726C26.0549 2.49081 25.5865 2.81258 25.1171 3.1328C24.6572 3.44647 24.1944 3.75571 23.7352 4.07032C23.0297 4.55362 22.3252 5.03826 21.6225 5.52544C21.2171 5.80645 20.8161 6.09373 20.4126 6.37742C20.3943 6.39025 20.3707 6.39545 20.3357 6.40767C20.1382 6.18022 19.9546 5.94932 19.7639 5.69555C19.6964 5.53164 19.7455 5.44532 19.8733 5.36193C20.2292 5.12969 20.5744 4.881 20.9253 4.64106C22.1194 3.82472 23.3106 3.00415 24.5104 2.19642C24.9358 1.91006 25.3202 1.55558 25.8143 1.37794C26.1089 1.58072 26.4035 1.7835 26.7044 1.99587Z" fill="#00AB55"/>
<path d="M29.6418 6.97499C29.478 7.07119 29.3049 7.13789 29.1558 7.23957C28.44 7.72745 27.7319 8.22661 27.0186 8.71831C26.1869 9.29168 25.3521 9.86052 24.52 10.4333C24.2321 10.6316 23.9478 10.8352 23.6632 11.0382C23.6371 11.0568 23.6209 11.0893 23.5914 11.1322C23.5765 11.1644 23.5703 11.1799 23.5642 11.1954C23.3292 11.2476 23.0912 11.2896 22.8604 11.3563C22.7417 11.3906 22.6825 11.3554 22.6209 11.2646C22.5021 11.0894 22.3758 10.9194 22.2642 10.7351C22.2979 10.7176 22.3241 10.7181 22.3416 10.706C22.7191 10.4449 23.0946 10.1809 23.4727 9.92055C24.7351 9.05116 25.9986 8.18338 27.2611 7.31414C27.7624 6.96903 28.2591 6.61723 28.7641 6.27773C28.9478 6.15424 29.1496 6.05766 29.3432 5.94881C29.4433 6.28641 29.5435 6.62401 29.6418 6.97499Z" fill="#00AB55"/>
<path d="M29.3439 5.93514C29.1496 6.05766 28.9478 6.15424 28.7641 6.27773C28.2591 6.61723 27.7624 6.96903 27.2611 7.31414C25.9986 8.18338 24.7351 9.05116 23.4727 9.92055C23.0946 10.1809 22.7191 10.4449 22.3416 10.706C22.3241 10.7181 22.2979 10.7176 22.2634 10.7233C22.0832 10.4926 21.9155 10.2616 21.7567 10.0158C21.8345 9.94202 21.8985 9.87602 21.9729 9.82525C22.2618 9.6282 22.5561 9.43921 22.8444 9.24133C23.4639 8.81602 24.0814 8.38761 24.6982 7.9584C24.7417 7.92815 24.7734 7.88093 24.8252 7.83967C24.9437 7.82976 25.0477 7.82178 25.1573 7.82154C25.1829 7.81544 25.2028 7.80159 25.2333 7.78172C25.4575 7.66383 25.6032 7.49418 25.6907 7.26306C25.7384 7.24377 25.7777 7.2309 25.81 7.20815C26.1002 7.00384 26.3871 6.79495 26.6787 6.59281C27.3513 6.12662 28.0243 5.661 28.7018 5.20198C28.7923 5.14067 28.9097 5.11902 29.0146 5.07901C29.1246 5.35983 29.2347 5.64065 29.3439 5.93514Z" fill="#00AB55"/>
<path d="M29.9242 12.6251C29.8739 13.0996 29.8471 13.578 29.7681 14.0477C29.6279 14.8808 29.4643 15.7103 29.2935 16.5378C29.2159 16.9139 29.1001 17.2822 28.9949 17.6521C28.9827 17.6948 28.9277 17.7558 28.8916 17.7565C28.4953 17.764 28.0989 17.7612 27.6938 17.7612C27.7329 17.4472 27.7697 17.1523 27.8063 16.8574C27.9289 15.8687 27.9336 14.8823 27.7622 13.8858C27.8934 13.9198 27.9926 13.8932 28.0941 13.8177C28.2503 13.7016 28.418 13.6013 28.5778 13.4899C28.9861 13.2054 29.392 12.9174 29.8016 12.6348C29.8308 12.6147 29.8828 12.6275 29.9242 12.6251Z" fill="#00AB55"/>
<path d="M25.7781 11.3465C25.8342 11.2653 25.887 11.1732 25.9657 11.1185C26.7433 10.579 27.5248 10.0452 28.3058 9.51064C28.8261 9.15443 29.3473 8.79944 29.88 8.44232C29.9268 8.77189 29.9683 9.10253 29.9941 9.43439C30.0132 9.68064 30.0119 9.92848 30.0028 10.1914C29.9301 10.2875 29.8896 10.3884 29.8153 10.4445C29.5865 10.6174 29.3464 10.7756 29.1077 10.9351C28.4447 11.3784 27.78 11.8192 27.117 12.2625C27.101 12.2732 27.0971 12.302 27.0876 12.3224C26.9234 12.1578 26.7768 11.9689 26.5908 11.8345C26.3386 11.6521 26.0562 11.5115 25.7781 11.3465Z" fill="#00AB55"/>
<path d="M25.8082 1.36808C25.3202 1.55558 24.9358 1.91006 24.5104 2.19642C23.3106 3.00415 22.1194 3.82472 20.9253 4.64106C20.5744 4.881 20.2292 5.12969 19.8733 5.36193C19.7455 5.44532 19.6964 5.53164 19.7574 5.68524C19.477 5.348 19.1961 4.99819 18.8827 4.60794C19.3303 4.60794 19.7269 4.60794 20.1538 4.60794C20.1024 4.50141 20.0666 4.42708 20.0413 4.33722C20.1124 4.25135 20.1615 4.16467 20.2352 4.11331C20.7433 3.75916 21.2565 3.41212 21.7684 3.0633C22.2847 2.71148 22.8018 2.36085 23.3178 2.0086C23.82 1.66578 24.3215 1.322 24.822 0.976713C24.8472 0.959359 24.8597 0.923693 24.8781 0.896554C25.1861 1.05045 25.4941 1.20434 25.8082 1.36808Z" fill="#00AB55"/>
<path d="M27.0913 12.3335C27.0971 12.302 27.101 12.2732 27.117 12.2625C27.78 11.8192 28.4447 11.3784 29.1077 10.9351C29.3464 10.7756 29.5865 10.6174 29.8153 10.4445C29.8896 10.3884 29.9301 10.2875 29.9972 10.206C30.0138 10.4749 30.0319 10.7454 30.022 11.0149C30.0025 11.5442 29.9673 12.0729 29.9314 12.6135C29.8828 12.6275 29.8308 12.6147 29.8016 12.6348C29.392 12.9174 28.9861 13.2054 28.5778 13.4899C28.418 13.6013 28.2503 13.7016 28.0941 13.8177C27.9926 13.8932 27.8934 13.9198 27.7628 13.8714C27.6644 13.6122 27.5967 13.3461 27.4895 13.097C27.3779 12.8376 27.2281 12.5947 27.0913 12.3335Z" fill="#00AB55"/>
<path d="M24.8693 0.888233C24.8597 0.923693 24.8472 0.959359 24.822 0.976713C24.3215 1.322 23.82 1.66578 23.3178 2.0086C22.8018 2.36085 22.2847 2.71148 21.7684 3.0633C21.2565 3.41212 20.7433 3.75916 20.2352 4.11331C20.1615 4.16467 20.1124 4.25135 20.0395 4.32451C19.8786 4.07425 19.7302 3.82118 19.5823 3.54213C19.631 3.44322 19.6637 3.34907 19.7298 3.30103C20.0177 3.09203 20.3165 2.89822 20.6091 2.69562C21.095 2.35917 21.5783 2.01906 22.0643 1.68272C22.3755 1.46732 22.6863 1.25109 23.0032 1.04431C23.2469 0.885313 23.5007 0.741855 23.7474 0.587417C23.775 0.570152 23.786 0.526324 23.8047 0.494814C24.1566 0.62318 24.5086 0.751547 24.8693 0.888233Z" fill="#00AB55"/>
<path d="M23.7907 0.490044C23.786 0.526324 23.775 0.570152 23.7474 0.587417C23.5007 0.741855 23.2469 0.885313 23.0032 1.04431C22.6863 1.25109 22.3755 1.46732 22.0643 1.68272C21.5783 2.01906 21.095 2.35917 20.6091 2.69562C20.3165 2.89822 20.0177 3.09203 19.7298 3.30103C19.6637 3.34907 19.631 3.44322 19.5816 3.53016C19.423 3.27131 19.2657 2.99846 19.1043 2.70218C19.0787 2.65103 19.0572 2.6233 19.0357 2.59557C19.0357 2.59557 19.0273 2.58587 19.0285 2.56424C19.0653 2.45182 19.075 2.32744 19.1413 2.27624C19.3902 2.08393 19.6577 1.9157 19.918 1.73806C20.344 1.44732 20.7626 1.14493 21.1979 0.868869C21.5599 0.639309 21.8593 0.295653 22.3161 0.229982C22.3303 0.227953 22.3399 0.194821 22.3516 0.17619C22.3892 0.177374 22.4267 0.178558 22.4821 0.195923C22.5384 0.2207 22.5767 0.229296 22.615 0.237893C22.9245 0.305556 23.2339 0.373627 23.5436 0.440595C23.6209 0.457314 23.699 0.470477 23.7907 0.490044Z" fill="#00AB55"/>
<path d="M29.0124 5.06579C28.9097 5.11902 28.7923 5.14067 28.7018 5.20198C28.0243 5.661 27.3513 6.12662 26.6787 6.59281C26.3871 6.79495 26.1002 7.00384 25.81 7.20815C25.7777 7.2309 25.7384 7.24377 25.6899 7.24905C25.7624 6.82799 25.5846 6.54376 25.249 6.33445C25.6065 6.07732 25.9602 5.81491 26.3221 5.56424C26.9643 5.1194 27.6115 4.68177 28.2564 4.24085C28.33 4.19053 28.4024 4.13849 28.4785 4.07357C28.6174 4.29623 28.7559 4.53101 28.8874 4.76969C28.9368 4.85933 28.9698 4.95801 29.0124 5.06579Z" fill="#00AB55"/>
<path d="M22.3409 0.167771C22.3399 0.194821 22.3303 0.227953 22.3161 0.229982C21.8593 0.295653 21.5599 0.639309 21.1979 0.868869C20.7626 1.14493 20.344 1.44732 19.918 1.73806C19.6577 1.9157 19.3902 2.08393 19.1413 2.27624C19.075 2.32744 19.0653 2.45182 19.0286 2.55785C18.8512 2.27714 18.6745 1.9814 18.4988 1.68509C18.4585 1.61707 18.4215 1.54706 18.3934 1.46246C18.4431 1.32704 18.5121 1.24055 18.6241 1.16841C19.0234 0.911387 19.4221 0.651701 19.8032 0.369098C20.0202 0.208197 20.2452 0.114573 20.5115 0.101509C20.5498 0.0996273 20.586 0.0532874 20.6232 0.0275216C20.9603 0.0500847 21.2976 0.0705055 21.6345 0.0959498C21.8667 0.113483 22.0983 0.137973 22.3409 0.167771Z" fill="#00AB55"/>
<path d="M24.8105 7.8416C24.7734 7.88093 24.7417 7.92815 24.6982 7.9584C24.0814 8.38761 23.4639 8.81602 22.8444 9.24133C22.5561 9.43921 22.2618 9.6282 21.9729 9.82525C21.8985 9.87602 21.8345 9.94202 21.7521 10.0044C21.5394 9.73604 21.3403 9.46441 21.14 9.18058C21.5164 8.89336 21.8902 8.61278 22.2727 8.34472C22.7646 8.00009 23.2633 7.66536 23.7594 7.32683C23.8112 7.29149 23.8699 7.26479 23.917 7.22432C23.9863 7.16471 24.0481 7.09632 24.1276 7.04219C24.1313 7.2703 24.1936 7.46836 24.3657 7.60035C24.4979 7.70175 24.6611 7.76267 24.8105 7.8416Z" fill="#00AB55"/>
<path d="M20.6072 0.0242266C20.586 0.0532873 20.5498 0.0996273 20.5115 0.101509C20.2452 0.114573 20.0202 0.208197 19.8032 0.369098C19.4221 0.651701 19.0234 0.911387 18.6241 1.16841C18.5121 1.24055 18.4431 1.32704 18.3921 1.4504C18.3668 1.4309 18.3534 1.40796 18.3377 1.36347C18.3165 1.32171 18.2974 1.30148 18.2784 1.28126C18.0603 0.905806 17.8423 0.530352 17.6079 0.126752C18.6151 -0.0309971 19.6047 0.0306103 20.6072 0.0242266Z" fill="#00AB55"/>
<path d="M12.5406 17.7537C12.6351 17.6761 12.7434 17.6053 12.8499 17.5319C13.3891 17.1605 13.9271 16.7875 14.4677 16.4181C14.5271 16.3776 14.6001 16.3568 14.6789 16.3267C14.6579 16.5372 14.6247 16.7479 14.584 17.0059C14.6959 16.9304 14.7883 16.8682 14.9182 16.7805C14.892 17.114 14.8678 17.4227 14.8413 17.7593C14.0765 17.7593 13.315 17.7593 12.5406 17.7537Z" fill="#00AB55"/>
<path d="M16.3704 28.5019C16.3685 28.2935 16.3665 28.085 16.3834 27.8606C16.6772 27.8331 16.952 27.8202 17.2268 27.8103C17.5879 27.7973 17.9493 27.7917 18.3101 27.7733C18.5898 27.7591 18.8685 27.7164 19.148 27.7113C19.4454 27.7059 19.7433 27.73 20.041 27.7412C20.0438 27.954 20.0406 28.1672 20.0515 28.3797C20.0584 28.5137 20.0155 28.5594 19.8764 28.5578C19.2717 28.5508 18.6669 28.5542 18.0621 28.5554C17.9938 28.5556 17.9255 28.566 17.8405 28.5623C17.8296 28.4358 17.7536 28.4277 17.6656 28.4325C17.2339 28.456 16.8022 28.4788 16.3704 28.5019Z" fill="#00AB55"/>
<path d="M11.9126 29.3333C11.9126 29.5556 11.9126 29.7779 11.9126 30.024C10.7092 30.024 9.50717 30.024 8.28973 30.0037C8.27446 29.8569 8.27796 29.7303 8.27367 29.604C8.2705 29.5108 8.303 29.4738 8.40149 29.4682C8.92661 29.4384 9.45087 29.3894 9.97628 29.3699C10.6213 29.346 11.2671 29.3445 11.9126 29.3333Z" fill="#00AB55"/>
<path d="M12.297 27.1871C12.2951 26.9903 12.2932 26.7936 12.3083 26.5808C12.4046 26.5534 12.4835 26.5349 12.5631 26.5318C13.1935 26.5066 13.8241 26.4857 14.4545 26.4604C14.6892 26.451 14.9246 26.4426 15.1578 26.4171C15.4317 26.3872 15.7029 26.3534 15.9681 26.461C15.9756 26.604 15.9785 26.7474 15.992 26.8898C16.004 27.0175 15.9578 27.0589 15.8275 27.0577C15.1661 27.0514 14.5046 27.0541 13.8164 27.0524C13.7723 27.0621 13.7548 27.073 13.7237 27.0835C13.5186 27.0833 13.3261 27.0711 13.136 27.0867C12.8555 27.1098 12.5766 27.1526 12.297 27.1871Z" fill="#00AB55"/>
<path d="M4.18192 25.9665C4.22025 25.9591 4.25858 25.9452 4.29692 25.9452C5.44595 25.944 6.59499 25.9442 7.74402 25.9446C7.77225 25.9446 7.80047 25.9493 7.8558 25.9541C7.8558 26.0902 7.8558 26.2253 7.8422 26.3792C7.79101 26.4241 7.7546 26.4704 7.71563 26.4727C7.31722 26.4958 6.91844 26.5132 6.51965 26.5294C5.9137 26.5539 5.30749 26.5727 4.70177 26.6018C4.53226 26.61 4.36411 26.6461 4.19439 26.6532C4.1896 26.4135 4.18576 26.19 4.18192 25.9665Z" fill="#00AB55"/>
<path d="M16.3708 26.634C16.3708 26.4112 16.3708 26.1884 16.3708 25.9552C17.5947 25.9552 18.8065 25.9552 20.0473 25.9552C20.0473 26.1711 20.0473 26.3868 20.0306 26.6156C19.9628 26.4597 19.8345 26.4456 19.6867 26.4601C19.5271 26.4759 19.3669 26.4887 19.2067 26.4948C18.5526 26.5199 17.8982 26.5382 17.2442 26.5669C16.9527 26.5796 16.6619 26.611 16.3708 26.634Z" fill="#00AB55"/>
<path d="M24.5078 26.5993C24.5035 26.4388 24.5047 26.2779 24.4931 26.1179C24.4836 25.9859 24.5241 25.9399 24.6653 25.941C25.5506 25.9476 26.436 25.9443 27.3213 25.9443C27.6024 25.9443 27.8836 25.9443 28.195 25.9443C28.195 26.1132 28.195 26.2714 28.1753 26.4453C27.6053 26.4839 27.055 26.5087 26.5045 26.5294C25.839 26.5545 25.1734 26.5761 24.5078 26.5993Z" fill="#00AB55"/>
<path d="M11.9188 29.3184C11.2671 29.3445 10.6213 29.346 9.97628 29.3699C9.45087 29.3894 8.92661 29.4384 8.40149 29.4682C8.303 29.4738 8.2705 29.5108 8.27367 29.604C8.27796 29.7303 8.27446 29.8569 8.27413 29.9988C8.25439 29.9688 8.21841 29.9236 8.21785 29.878C8.21375 29.5453 8.21677 29.2126 8.23544 28.8641C8.29915 28.8449 8.34493 28.8394 8.39079 28.8385C8.82461 28.8303 9.25844 28.8228 9.69228 28.8151C9.74189 28.8487 9.7898 28.9078 9.84142 28.9113C10.0228 28.9233 10.2054 28.9162 10.4158 28.9139C10.5245 28.8673 10.6019 28.7924 10.6856 28.7847C10.969 28.7583 11.2547 28.7512 11.5396 28.7452C11.8159 28.7393 11.8158 28.744 11.8881 28.997C11.8906 29.006 11.9046 29.0118 11.9132 29.0191C11.9172 29.1139 11.9212 29.2087 11.9188 29.3184Z" fill="#00AB55"/>
<path d="M24.5032 26.615C25.1734 26.5761 25.839 26.5545 26.5045 26.5294C27.055 26.5087 27.6053 26.4839 28.171 26.461C28.1892 26.612 28.1921 26.763 28.1754 26.9297C27.7749 26.957 27.3938 26.9642 27.0132 26.9834C26.9076 26.9887 26.8038 27.0295 26.6838 27.0548C26.4466 27.0555 26.2248 27.0555 26.0002 27.0555C25.9875 27.1227 25.9781 27.1723 25.9534 27.2219C25.4614 27.2335 24.9846 27.245 24.5079 27.2565C24.5048 27.0479 24.5017 26.8392 24.5032 26.615Z" fill="#00AB55"/>
<path d="M32.6541 26.6343C32.6541 26.4116 32.6541 26.1888 32.6541 25.9553C33.8775 25.9553 35.0892 25.9553 36.33 25.9553C36.33 26.113 36.33 26.2711 36.3126 26.4446C36.1589 26.4493 36.0218 26.4244 35.8861 26.4303C35.2179 26.4591 34.5501 26.4964 33.8821 26.5301C33.6308 26.5428 33.379 26.5484 33.1282 26.5677C32.9694 26.5799 32.8121 26.6114 32.6541 26.6343Z" fill="#00AB55"/>
<path d="M15.9695 29.4041C15.9718 29.5651 15.9725 29.726 15.9771 29.8869C15.9796 29.9755 15.9558 30.0266 15.8527 30.0264C14.6847 30.0238 13.5168 30.0238 12.3489 30.0225C12.3382 30.0225 12.3276 30.0154 12.2916 30.0025C12.2916 29.911 12.2916 29.81 12.3055 29.6898C12.3966 29.5031 12.5569 29.5135 12.6985 29.5074C13.1276 29.4889 13.5574 29.4842 13.9868 29.4693C14.2383 29.4605 14.4893 29.4378 14.7407 29.4301C15.1502 29.4177 15.5599 29.4124 15.9695 29.4041Z" fill="#00AB55"/>
<path d="M32.6505 26.6482C32.8121 26.6114 32.9694 26.5799 33.1282 26.5677C33.379 26.5484 33.6308 26.5428 33.8821 26.5301C34.5501 26.4964 35.2179 26.4591 35.8861 26.4303C36.0218 26.4244 36.1589 26.4493 36.3097 26.4605C36.3242 26.6497 36.3242 26.8384 36.3242 27.0681C35.9611 27.0681 35.6024 27.0681 35.2152 27.0758C34.8483 27.0904 34.5095 27.1077 34.1713 27.1006C33.9294 27.0955 33.7703 27.1603 33.7635 27.4304C33.7576 27.4143 33.7481 27.3986 33.7466 27.3821C33.7174 27.0552 33.7176 27.0551 33.3788 27.0551C33.1384 27.0551 32.898 27.0551 32.647 27.0551C32.647 26.9111 32.647 26.7866 32.6505 26.6482Z" fill="#00AB55"/>
<path d="M4.17198 25.9747C4.18576 26.19 4.1896 26.4135 4.19336 26.6692C4.19417 26.8635 4.19506 27.0256 4.19496 27.2038C4.19397 27.3757 4.19397 27.5316 4.19397 27.6689C4.43182 27.6443 4.63429 27.6127 4.83769 27.6047C5.30259 27.5862 5.76799 27.581 6.23307 27.5664C6.37019 27.5621 6.50766 27.5497 6.64333 27.5298C6.68301 27.524 6.71704 27.4796 6.75366 27.4528C7.1125 27.4528 7.47133 27.4528 7.85572 27.4528C7.85572 27.6145 7.85572 27.7827 7.83758 27.9669C7.379 28.0056 6.93869 28.0314 6.49807 28.0501C5.87364 28.0766 5.24911 28.1021 4.62438 28.1196C4.2783 28.1293 4.23844 28.1509 4.17012 28.4573C4.16133 28.4132 4.14499 28.3692 4.14488 28.3251C4.143 27.5777 4.14288 26.8302 4.14364 26.0828C4.14367 26.0495 4.15563 26.0163 4.17198 25.9747Z" fill="#00AB55"/>
<path d="M32.2496 28.1213C32.2517 28.2951 32.2539 28.469 32.237 28.6587C31.689 28.6981 31.16 28.7185 30.6314 28.7476C30.5312 28.7531 30.4329 28.7928 30.3337 28.8167C30.2511 28.744 30.1685 28.6713 30.058 28.574C30.0495 28.6508 30.0439 28.7011 30.0194 28.7649C29.5271 28.8131 29.0537 28.8477 28.5803 28.8823C28.5778 28.6968 28.5752 28.5113 28.5917 28.31C29.0108 28.2714 29.4107 28.245 29.8109 28.2266C30.6237 28.1892 31.4367 28.1561 32.2496 28.1213Z" fill="#00AB55"/>
<path d="M22.6622 28.7093C22.6697 28.5754 22.6053 28.5309 22.4751 28.5409C22.3443 28.5508 22.2116 28.5505 22.0808 28.5408C21.9458 28.5308 21.8873 28.5809 21.8844 28.7298C21.4933 28.7555 21.1217 28.7652 20.7502 28.7796C20.6481 28.7836 20.5465 28.8016 20.4447 28.8132C20.4426 28.6277 20.4405 28.4422 20.4579 28.2409C21.0598 28.1909 21.6419 28.1516 22.2245 28.1241C22.8539 28.0944 23.4837 28.0757 24.1133 28.0523C24.1158 28.2492 24.1183 28.4461 24.1025 28.6589C24.005 28.6651 23.9253 28.6443 23.8466 28.6477C23.4517 28.6648 23.057 28.6882 22.6622 28.7093Z" fill="#00AB55"/>
<path d="M15.9766 29.3918C15.5599 29.4124 15.1502 29.4177 14.7407 29.4301C14.4893 29.4378 14.2383 29.4605 13.9868 29.4693C13.5574 29.4842 13.1276 29.4889 12.6985 29.5074C12.5569 29.5135 12.3966 29.5031 12.3082 29.6742C12.2951 29.4463 12.2933 29.2149 12.3089 28.9674C12.3837 28.9488 12.4409 28.9454 12.4983 28.9438C12.92 28.9322 13.3418 28.921 13.7635 28.9097C14.4366 28.9117 15.1097 28.919 15.7826 28.9119C15.9468 28.9102 16.0155 28.9529 15.9924 29.1214C15.9808 29.2062 15.9861 29.2934 15.9766 29.3918Z" fill="#00AB55"/>
<path d="M4.19595 27.1877C4.19506 27.0256 4.19417 26.8635 4.19431 26.6854C4.36411 26.6461 4.53226 26.61 4.70177 26.6018C5.30749 26.5727 5.9137 26.5539 6.51965 26.5294C6.91844 26.5132 7.31722 26.4958 7.71563 26.4727C7.7546 26.4704 7.79101 26.4241 7.83959 26.3951C7.85058 26.6036 7.85058 26.8152 7.85058 27.0451C7.7856 27.0485 7.72497 27.0544 7.66433 27.0545C7.04955 27.0552 6.43477 27.054 5.82 27.0566C5.76214 27.0569 5.70437 27.0794 5.63116 27.1049C5.60295 27.1187 5.59012 27.1191 5.56362 27.1172C5.41562 27.1161 5.28094 27.1113 5.14706 27.1195C4.82982 27.139 4.51296 27.1646 4.19595 27.1877Z" fill="#00AB55"/>
<path d="M4.16211 28.4722C4.23844 28.1509 4.2783 28.1293 4.62438 28.1196C5.24911 28.1021 5.87364 28.0766 6.49807 28.0501C6.93869 28.0314 7.379 28.0056 7.83497 27.9829C7.85048 28.1651 7.85048 28.3474 7.85048 28.5436C7.77007 28.5476 7.70253 28.5537 7.63498 28.5538C7.02549 28.5546 6.41599 28.5534 5.8065 28.5557C5.74057 28.5559 5.64526 28.5196 5.62563 28.6552C5.53461 28.5528 5.41875 28.566 5.30503 28.5728C5.12388 28.5836 4.94287 28.599 4.76156 28.6045C4.55909 28.6105 4.35161 28.58 4.1706 28.707C4.1651 28.6337 4.1596 28.5604 4.16211 28.4722Z" fill="#00AB55"/>
<path d="M15.9716 26.4451C15.7029 26.3534 15.4317 26.3872 15.1578 26.4171C14.9246 26.4426 14.6892 26.451 14.4545 26.4604C13.8241 26.4857 13.1935 26.5066 12.5631 26.5318C12.4835 26.5349 12.4046 26.5534 12.3111 26.5649C12.2968 26.3653 12.2968 26.1657 12.2968 25.9552C13.5192 25.9552 14.7301 25.9552 15.975 25.9552C15.975 26.1138 15.975 26.2715 15.9716 26.4451Z" fill="#00AB55"/>
<path d="M24.5076 28.398C24.5048 28.247 24.502 28.096 24.5177 27.9295C25.7529 27.8563 26.9695 27.7987 28.1861 27.7411C28.1891 27.9035 28.1921 28.0659 28.1755 28.244C27.5939 28.2826 27.032 28.3069 26.47 28.3281C25.8159 28.3528 25.1618 28.3748 24.5076 28.398Z" fill="#00AB55"/>
<path d="M7.85044 29.5048C7.85044 29.67 7.85044 29.8352 7.85044 30.0138C6.62604 30.0138 5.41112 30.0138 4.16165 30.0138C4.16165 29.898 4.16165 29.7854 4.17961 29.6575C4.3731 29.6194 4.54807 29.5897 4.72428 29.5758C4.95856 29.5574 5.19373 29.5495 5.42865 29.5405C6.0653 29.5161 6.70203 29.4939 7.33869 29.47C7.40731 29.4674 7.47651 29.4506 7.54407 29.4564C7.64683 29.4652 7.74838 29.488 7.85044 29.5048Z" fill="#00AB55"/>
<path d="M28.1906 27.7256C26.9695 27.7987 25.7529 27.8563 24.5222 27.914C24.505 27.7053 24.5019 27.4966 24.5033 27.2722C24.9846 27.245 25.4614 27.2335 25.9577 27.2358C25.9951 27.3109 26.0113 27.4248 26.0314 27.4255C26.2504 27.4332 26.47 27.4241 26.6893 27.4156C26.7021 27.4151 26.7136 27.3797 26.7409 27.3605C27.2328 27.3374 27.7095 27.3144 28.1862 27.2914C28.1891 27.4309 28.1921 27.5705 28.1906 27.7256Z" fill="#00AB55"/>
<path d="M16.3677 26.6498C16.6619 26.611 16.9527 26.5796 17.2442 26.5669C17.8982 26.5382 18.5526 26.5199 19.2067 26.4948C19.3669 26.4887 19.5271 26.4759 19.6867 26.4601C19.8345 26.4456 19.9628 26.4597 20.0273 26.6315C20.0428 26.7504 20.0451 26.8663 20.0306 26.9956C19.951 26.9878 19.8878 26.9475 19.8254 26.9486C19.5346 26.9537 19.2436 26.9647 18.9536 26.9852C18.8245 26.9943 18.6975 27.0309 18.5542 27.0555C18.3023 27.0654 18.0657 27.0748 17.8142 27.0823C17.7436 27.07 17.6873 27.0484 17.6321 27.051C17.2115 27.0708 16.7911 27.0952 16.3707 27.1182C16.3687 26.9673 16.3667 26.8165 16.3677 26.6498Z" fill="#00AB55"/>
<path d="M32.2526 28.1055C31.4367 28.1562 30.6237 28.1892 29.8109 28.2266C29.4107 28.245 29.0108 28.2715 28.5956 28.2943C28.5779 28.1434 28.5754 27.9925 28.5922 27.8259C29.2011 27.7756 29.7904 27.7357 30.3802 27.7078C31.0031 27.6783 31.6264 27.6601 32.2495 27.637C32.2516 27.7879 32.2536 27.9388 32.2526 28.1055Z" fill="#00AB55"/>
<path d="M7.8531 29.4892C7.74838 29.488 7.64683 29.4652 7.54407 29.4564C7.47651 29.4506 7.40731 29.4674 7.33869 29.47C6.70203 29.4939 6.0653 29.5161 5.42865 29.5405C5.19373 29.5495 4.95856 29.5574 4.72428 29.5758C4.54807 29.5897 4.3731 29.6195 4.18473 29.6429C4.16821 29.4924 4.16452 29.3412 4.17939 29.1745C4.32174 29.1361 4.44478 29.0996 4.56947 29.0927C5.09035 29.0639 5.6116 29.0405 6.13296 29.0218C6.59197 29.0054 7.05136 28.9994 7.5104 28.9835C7.5583 28.9819 7.60496 28.9444 7.65219 28.9236C7.66758 28.9218 7.68296 28.9201 7.71255 28.932C7.76801 29.0052 7.80927 29.0647 7.85053 29.1242C7.85227 29.2406 7.85401 29.3571 7.8531 29.4892Z" fill="#00AB55"/>
<path d="M24.1173 28.0366C23.4837 28.0758 22.8539 28.0944 22.2245 28.1241C21.6419 28.1516 21.0598 28.1909 20.4609 28.225C20.4423 28.0742 20.4402 27.9234 20.4579 27.7568C20.6949 27.7296 20.9121 27.7159 21.1295 27.7075C21.7654 27.6829 22.4014 27.6606 23.0373 27.6368C23.1059 27.6342 23.1743 27.6247 23.2429 27.6229C23.533 27.6152 23.8232 27.6092 24.1134 27.6025C24.116 27.742 24.1186 27.8815 24.1173 28.0366Z" fill="#00AB55"/>
<path d="M32.2526 27.6213C31.6264 27.6601 31.0031 27.6783 30.3802 27.7078C29.7904 27.7357 29.2011 27.7756 28.5959 27.8102C28.5777 27.6822 28.5752 27.5541 28.5913 27.4105C29.8232 27.3373 31.0363 27.2797 32.2495 27.2221C32.2516 27.3499 32.2537 27.4778 32.2526 27.6213Z" fill="#00AB55"/>
<path d="M15.608 27.4526C15.6898 27.4503 15.7717 27.448 15.8699 27.461C15.9075 27.4951 15.9288 27.5139 15.951 27.5485C15.9515 27.692 15.951 27.8196 15.937 27.9471C15.873 27.9391 15.8222 27.9221 15.7723 27.9246C14.9615 27.9656 14.1509 28.0113 13.3401 28.0511C13.0211 28.0668 12.7016 28.0709 12.3799 28.0803C12.3586 28.0466 12.3278 27.9976 12.2969 27.9487C12.2951 27.8665 12.2934 27.7843 12.3087 27.6869C12.4048 27.6603 12.4835 27.6423 12.5629 27.6385C13.0831 27.6133 13.6033 27.5879 14.1237 27.569C14.5704 27.5527 15.0175 27.5472 15.4642 27.5299C15.513 27.528 15.5601 27.4795 15.608 27.4526Z" fill="#00AB55"/>
<path d="M24.5031 28.4134C25.1618 28.3748 25.8159 28.3528 26.47 28.3281C27.032 28.3069 27.5939 28.2826 28.1712 28.2596C28.1894 28.4223 28.1924 28.585 28.1755 28.7632C27.6789 28.8018 27.2021 28.8248 26.7254 28.8478C26.6914 28.555 26.6914 28.555 26.3883 28.5548C26.3082 28.5547 26.2272 28.5618 26.148 28.5531C26.0222 28.5391 25.9641 28.5859 25.9578 28.729C25.4615 28.767 24.9846 28.7901 24.5077 28.8132C24.5047 28.6851 24.5016 28.557 24.5031 28.4134Z" fill="#00AB55"/>
<path d="M20.044 27.7261C19.7433 27.73 19.4454 27.7059 19.148 27.7113C18.8685 27.7164 18.5898 27.7591 18.3101 27.7733C17.9493 27.7917 17.5879 27.7973 17.2268 27.8103C16.952 27.8202 16.6772 27.8331 16.3864 27.8447C16.3685 27.7282 16.3666 27.6118 16.3823 27.4796C16.8798 27.4519 17.3598 27.4399 17.8514 27.4317C18.0408 27.4384 18.2185 27.4458 18.396 27.4417C18.4592 27.4403 18.5218 27.4113 18.5978 27.3929C18.6755 27.3694 18.7387 27.3361 18.8048 27.3288C18.9743 27.3102 19.148 27.2779 19.3145 27.2975C19.5606 27.3265 19.8636 27.1389 20.041 27.4658C20.0431 27.5475 20.0451 27.6293 20.044 27.7261Z" fill="#00AB55"/>
<path d="M24.1171 27.5868C23.8232 27.6092 23.533 27.6152 23.2429 27.6229C23.1743 27.6247 23.1059 27.6342 23.0373 27.6368C22.4014 27.6606 21.7654 27.6829 21.1295 27.7075C20.9121 27.7159 20.6949 27.7296 20.461 27.741C20.4424 27.636 20.4403 27.531 20.458 27.4105C20.9505 27.3835 21.4232 27.372 21.8959 27.3605C21.9558 27.3923 22.0136 27.4456 22.0759 27.4515C22.2221 27.4655 22.3707 27.4614 22.518 27.4559C22.6847 27.4497 22.6475 27.3177 22.6737 27.2012C23.1655 27.1753 23.6394 27.1641 24.1133 27.153C24.1158 27.2924 24.1184 27.4318 24.1171 27.5868Z" fill="#00AB55"/>
<path d="M12.2941 27.9646C12.3278 27.9976 12.3586 28.0466 12.3799 28.0803C12.7016 28.0709 13.0211 28.0668 13.3401 28.0511C14.1509 28.0113 14.9615 27.9656 15.7723 27.9246C15.8222 27.9221 15.873 27.9391 15.9381 27.963C15.9523 28.0956 15.9518 28.2123 15.9384 28.327C15.8104 28.3147 15.6948 28.2926 15.58 28.2957C14.8818 28.3151 14.1838 28.3394 13.4857 28.3639C13.217 28.3733 12.9475 28.3773 12.6802 28.403C12.5242 28.418 12.3118 28.3962 12.346 28.6684C12.3474 28.6796 12.314 28.6953 12.2969 28.7089C12.295 28.4661 12.2932 28.2234 12.2941 27.9646Z" fill="#00AB55"/>
<path d="M25.9682 29.1943C25.9682 29.463 25.9682 29.7317 25.9682 30.014C25.4844 30.014 25.005 30.014 24.4992 30.014C24.4992 29.7729 24.4992 29.5337 24.5178 29.2787C25.0136 29.2401 25.4909 29.2172 25.9682 29.1943Z" fill="#00AB55"/>
<path d="M12.2942 28.7239C12.314 28.6953 12.3474 28.6796 12.346 28.6684C12.3118 28.3962 12.5242 28.418 12.6802 28.403C12.9475 28.3773 13.217 28.3733 13.4857 28.3639C14.1838 28.3394 14.8818 28.3151 15.58 28.2957C15.6948 28.2926 15.8104 28.3147 15.9395 28.3417C15.9553 28.4075 15.9572 28.4568 15.959 28.506C15.959 28.506 15.9575 28.5061 15.9413 28.5046C15.2537 28.5026 14.5823 28.5013 13.911 28.5031C13.845 28.5033 13.7496 28.4677 13.745 28.5914C13.7503 28.6878 13.7557 28.7843 13.7623 28.8952C13.3418 28.921 12.92 28.9322 12.4983 28.9438C12.4409 28.9454 12.3837 28.9489 12.3117 28.9515C12.2952 28.8806 12.2933 28.8098 12.2942 28.7239Z" fill="#00AB55"/>
<path d="M32.2525 27.2067C31.0363 27.2797 29.8232 27.3373 28.5952 27.395C28.5779 27.3128 28.5754 27.2305 28.5905 27.1328C28.9427 27.0831 29.2766 27.0351 29.6121 27.0182C29.9763 27 30.3419 27.0108 30.7069 27.009C30.7219 27.0134 30.7369 27.0177 30.7642 27.0291C30.7836 27.0329 30.7888 27.0276 30.7922 27.0203C30.7918 27.0134 30.7913 27.0064 30.8086 26.9891C30.8824 26.9677 30.9382 26.9488 30.9945 26.9469C31.4128 26.933 31.8311 26.9224 32.2494 26.9107C32.2514 27.0043 32.2535 27.0978 32.2525 27.2067Z" fill="#00AB55"/>
<path d="M9.69985 28.8003C9.25844 28.8228 8.82461 28.8303 8.39079 28.8385C8.34493 28.8394 8.29915 28.8449 8.23974 28.8485C8.22321 28.6624 8.22027 28.4761 8.23167 28.2696C8.29915 28.118 8.40876 28.0909 8.53549 28.086C8.74623 28.0779 8.95707 28.0513 9.16728 28.0565C9.36027 28.0612 9.60648 27.9586 9.69211 28.2565C9.69721 28.4328 9.70231 28.6091 9.69985 28.8003Z" fill="#00AB55"/>
<path d="M9.6996 28.2421C9.60648 27.9586 9.36027 28.0612 9.16728 28.0565C8.95707 28.0513 8.74623 28.0779 8.53549 28.086C8.40876 28.0909 8.29915 28.118 8.23616 28.2539C8.22324 27.8779 8.22016 27.4973 8.23241 27.1068C8.26262 27.2238 8.27748 27.3508 8.28969 27.455C8.52459 27.4462 8.74635 27.4389 8.96801 27.4292C9.18997 27.4195 9.41183 27.4075 9.6568 27.3953C9.6568 27.2411 9.6568 27.076 9.66097 26.904C9.67182 26.8881 9.68037 26.8818 9.69077 26.8778C9.69844 27.0704 9.7108 27.263 9.71262 27.4557C9.71506 27.713 9.70932 27.9704 9.6996 28.2421Z" fill="#00AB55"/>
<path d="M24.1127 29.2653C24.119 29.4995 24.1277 29.7338 24.1289 29.968C24.1291 30.0009 24.1004 30.0439 24.0722 30.0655C23.6098 30.4197 23.1453 30.7712 22.6535 31.1443C22.6535 30.7353 22.6535 30.3584 22.6741 29.968C23.1113 29.9429 23.5278 29.9284 23.9444 29.9218C24.0496 29.9201 24.0867 29.8824 24.0829 29.7799C24.0774 29.6312 24.0813 29.4823 24.0823 29.3237C24.0932 29.2977 24.103 29.2815 24.1127 29.2653Z" fill="#00AB55"/>
<path d="M30.3381 28.8277C30.4329 28.7928 30.5312 28.7531 30.6314 28.7476C31.16 28.7185 31.689 28.6981 32.2337 28.6746C32.2517 28.86 32.2538 29.0455 32.2365 29.2469C31.9425 29.2748 31.6676 29.2809 31.3936 29.3008C31.224 29.3132 31.0559 29.3465 30.887 29.3705C30.7055 29.1932 30.524 29.0159 30.3381 28.8277Z" fill="#00AB55"/>
<path d="M30.7977 26.6687C30.7945 26.4623 30.7908 26.2559 30.7885 26.0494C30.7882 26.0219 30.7956 25.9942 30.8008 25.9558C31.2796 25.9558 31.7531 25.9558 32.2559 25.9558C32.2559 26.1602 32.2559 26.3639 32.2361 26.5835C31.7434 26.6225 31.2706 26.6456 30.7977 26.6687Z" fill="#00AB55"/>
<path d="M28.5802 26.8071C28.5776 26.6784 28.5749 26.5497 28.5847 26.3959C28.6355 26.1183 28.6796 26.0811 28.9423 26.0806C29.1255 26.0802 29.3087 26.0844 29.4917 26.0788C29.5798 26.076 29.6674 26.0552 29.7552 26.0425C29.963 26.2543 30.1707 26.466 30.3682 26.6895C29.7617 26.6746 29.1686 26.7025 28.5802 26.8071Z" fill="#00AB55"/>
<path d="M22.6621 26.6342C22.6621 26.4117 22.6621 26.1891 22.6621 25.9555C23.1455 25.9555 23.6195 25.9555 24.1211 25.9555C24.1211 26.1604 24.1211 26.3643 24.1031 26.5838C24.0115 26.5889 23.9375 26.5665 23.8646 26.5698C23.4636 26.5878 23.0629 26.6121 22.6621 26.6342Z" fill="#00AB55"/>
<path d="M24.1169 29.2493C24.103 29.2815 24.0932 29.2977 24.0661 29.3231C23.5866 29.3438 23.1244 29.3551 22.6622 29.3665C22.6601 29.1581 22.658 28.9497 22.659 28.7253C23.057 28.6882 23.4517 28.6648 23.8466 28.6477C23.9253 28.6443 24.005 28.6651 24.0986 28.6747C24.1156 28.8609 24.1183 29.0471 24.1169 29.2493Z" fill="#00AB55"/>
<path d="M11.9195 29.0041C11.9046 29.0118 11.8906 29.006 11.8881 28.997C11.8158 28.744 11.8159 28.7393 11.5396 28.7452C11.2547 28.7512 10.969 28.7583 10.6856 28.7847C10.6019 28.7924 10.5245 28.8674 10.4321 28.9142C10.4233 28.7162 10.4312 28.5155 10.4279 28.3149C10.4261 28.2088 10.4516 28.1592 10.5709 28.1609C10.9783 28.1667 11.3859 28.1658 11.7934 28.1611C11.8991 28.1599 11.9351 28.1963 11.9319 28.3007C11.9251 28.53 11.9272 28.7596 11.9195 29.0041Z" fill="#00AB55"/>
<path d="M15.592 27.4494C15.5601 27.4795 15.513 27.528 15.4642 27.5299C15.0175 27.5472 14.5704 27.5527 14.1237 27.569C13.6033 27.5879 13.0831 27.6133 12.5629 27.6385C12.4835 27.6423 12.4048 27.6603 12.3114 27.6717C12.2952 27.5208 12.2933 27.3699 12.2942 27.203C12.5766 27.1527 12.8555 27.1098 13.136 27.0867C13.3261 27.0711 13.5186 27.0833 13.7243 27.0989C13.7566 27.2207 13.7746 27.3267 13.7927 27.4327C14.3871 27.4371 14.9815 27.4416 15.592 27.4494Z" fill="#00AB55"/>
<path d="M28.1862 29.3666C28.1904 29.5504 28.2 29.7342 28.1943 29.9177C28.1931 29.9544 28.1343 30.0199 28.1013 30.0204C27.6477 30.0273 27.1939 30.0251 26.7168 30.0251C26.7168 29.831 26.7168 29.6491 26.7352 29.4515C27.2311 29.4128 27.7087 29.3897 28.1862 29.3666Z" fill="#00AB55"/>
<path d="M35.2149 29.3666C35.2149 29.5785 35.2149 29.7904 35.2149 30.0149C34.7331 30.0149 34.2583 30.0149 33.7564 30.0149C33.7564 29.8306 33.7564 29.6489 33.775 29.4514C34.2674 29.4125 34.7411 29.3895 35.2149 29.3666Z" fill="#00AB55"/>
<path d="M20.4416 28.8291C20.5465 28.8016 20.6481 28.7836 20.7502 28.7796C21.1217 28.7652 21.4933 28.7555 21.8806 28.744C21.8989 28.9411 21.9015 29.1381 21.8846 29.351C21.3917 29.3897 20.9182 29.4127 20.4447 29.4357C20.4426 29.2388 20.4406 29.0419 20.4416 28.8291Z" fill="#00AB55"/>
<path d="M7.6362 28.9207C7.60496 28.9444 7.5583 28.9819 7.5104 28.9835C7.05136 28.9994 6.59197 29.0054 6.13296 29.0218C5.6116 29.0405 5.09035 29.0639 4.56947 29.0927C4.44478 29.0996 4.32174 29.1361 4.18458 29.1592C4.16532 29.0177 4.15942 28.8761 4.16206 28.7207C4.35161 28.58 4.55909 28.6105 4.76156 28.6045C4.94287 28.599 5.12388 28.5836 5.30503 28.5728C5.41875 28.566 5.53461 28.5528 5.62243 28.6706C5.63939 28.7478 5.64501 28.8215 5.65236 28.9177C6.31152 28.9177 6.96586 28.9177 7.6362 28.9207Z" fill="#00AB55"/>
<path d="M20.4416 29.4517C20.9182 29.4127 21.3917 29.3897 21.8808 29.3668C21.8963 29.5784 21.8963 29.79 21.8963 30.0144C21.4147 30.0144 20.94 30.0144 20.4384 30.0144C20.4384 29.8308 20.4384 29.6492 20.4416 29.4517Z" fill="#00AB55"/>
<path d="M30.0314 29.3667C30.0314 29.5785 30.0314 29.7903 30.0314 30.0275C29.8653 30.0275 29.7062 30.0275 29.5472 30.0275C29.2649 30.0274 28.9825 30.0247 28.7003 30.0287C28.6047 30.0301 28.5644 29.9979 28.5686 29.8995C28.5747 29.7557 28.572 29.6115 28.5929 29.4518C29.0856 29.4129 29.5585 29.3898 30.0314 29.3667Z" fill="#00AB55"/>
<path d="M16.3676 28.5179C16.8022 28.4789 17.2339 28.456 17.6656 28.4325C17.7536 28.4277 17.8296 28.4359 17.8255 28.5683C17.8283 28.7418 17.8293 28.9 17.8137 29.0723C17.6399 29.0761 17.4821 29.0516 17.3255 29.0582C17.0068 29.0714 16.6889 29.1013 16.3706 29.1244C16.3687 28.9276 16.3667 28.7307 16.3676 28.5179Z" fill="#00AB55"/>
<path d="M33.76 27.4457C33.7703 27.1603 33.9294 27.0955 34.1713 27.1006C34.5095 27.1077 34.8483 27.0905 35.203 27.0837C35.22 27.2807 35.2206 27.4775 35.204 27.6902C35.1016 27.6956 35.016 27.6728 34.9316 27.6765C34.5421 27.6939 34.1528 27.7188 33.7635 27.7409C33.7612 27.6476 33.7589 27.5542 33.76 27.4457Z" fill="#00AB55"/>
<path d="M28.1907 29.351C27.7087 29.3897 27.2311 29.4128 26.7395 29.4359C26.7226 29.2504 26.7197 29.0648 26.7211 28.8635C27.2021 28.8248 27.6789 28.8018 28.171 28.7788C28.1893 28.9643 28.1923 29.1498 28.1907 29.351Z" fill="#00AB55"/>
<path d="M30.0348 29.3508C29.5585 29.3898 29.0856 29.4129 28.5968 29.436C28.5782 29.2619 28.5755 29.0879 28.5765 28.8981C29.0537 28.8477 29.5271 28.8131 30.0162 28.7785C30.034 28.964 30.0361 29.1494 30.0348 29.3508Z" fill="#00AB55"/>
<path d="M22.659 29.3824C23.1244 29.3551 23.5866 29.3438 24.065 29.3329C24.0813 29.4823 24.0774 29.6312 24.0829 29.7799C24.0867 29.8824 24.0496 29.9201 23.9444 29.9218C23.5278 29.9284 23.1113 29.9429 22.6785 29.9545C22.6601 29.7691 22.6579 29.5837 22.659 29.3824Z" fill="#00AB55"/>
<path d="M29.7496 26.0323C29.6674 26.0552 29.5798 26.076 29.4917 26.0788C29.3087 26.0844 29.1255 26.0802 28.9423 26.0806C28.6796 26.0811 28.6355 26.1183 28.5887 26.3802C28.5732 25.9936 28.5658 25.5975 28.5595 25.2013C28.5578 25.095 28.5592 24.9887 28.5592 24.8506C28.9746 25.2613 29.3592 25.6417 29.7496 26.0323Z" fill="#00AB55"/>
<path d="M33.7601 27.7568C34.1528 27.7188 34.5421 27.6939 34.9316 27.6765C35.016 27.6728 35.1016 27.6956 35.2009 27.7062C35.2172 27.8801 35.2191 28.054 35.2021 28.2438C34.71 28.2828 34.2369 28.3058 33.7638 28.3288C33.7615 28.1435 33.7592 27.9581 33.7601 27.7568Z" fill="#00AB55"/>
<path d="M21.8966 25.9077C21.899 26.0816 21.9014 26.2556 21.8843 26.4453C21.3915 26.4841 20.9182 26.5073 20.4448 26.5304C20.4457 26.3392 20.4466 26.148 20.4763 25.9485C20.9689 25.9294 21.4327 25.9185 21.8966 25.9077Z" fill="#00AB55"/>
<path d="M33.7603 28.3447C34.2369 28.3058 34.71 28.2828 35.199 28.2597C35.217 28.4336 35.2191 28.6075 35.2022 28.7973C34.71 28.8362 34.2368 28.8592 33.7637 28.8822C33.7614 28.7083 33.7591 28.5344 33.7603 28.3447Z" fill="#00AB55"/>
<path d="M33.7602 28.898C34.2368 28.8592 34.71 28.8362 35.199 28.8132C35.2171 28.9871 35.2192 29.1609 35.2181 29.3507C34.7411 29.3895 34.2674 29.4125 33.7786 29.4355C33.7613 29.2616 33.759 29.0878 33.7602 28.898Z" fill="#00AB55"/>
<path d="M4.19496 27.2038C4.51296 27.1646 4.82982 27.139 5.14706 27.1195C5.28094 27.1113 5.41562 27.1161 5.56356 27.1324C5.6005 27.243 5.62381 27.3361 5.64712 27.4293C6.00527 27.435 6.36342 27.4407 6.73761 27.4496C6.71704 27.4796 6.68301 27.524 6.64333 27.5298C6.50766 27.5497 6.37019 27.5621 6.23307 27.5664C5.76799 27.581 5.30259 27.5862 4.83769 27.6047C4.63429 27.6127 4.43182 27.6443 4.19397 27.6689C4.19397 27.5316 4.19397 27.3757 4.19496 27.2038Z" fill="#00AB55"/>
<path d="M20.4416 26.5462C20.9182 26.5073 21.3915 26.4841 21.8805 26.461C21.8988 26.635 21.9013 26.809 21.8868 26.9982C21.8199 27.0055 21.7696 26.9889 21.72 26.991C21.2949 27.0085 20.8698 27.0294 20.4447 27.0494C20.4426 26.8869 20.4405 26.7245 20.4416 26.5462Z" fill="#00AB55"/>
<path d="M22.6588 26.6501C23.0629 26.6121 23.4636 26.5878 23.8646 26.5698C23.9375 26.5665 24.0115 26.5889 24.0992 26.5997C24.116 26.7737 24.1185 26.9476 24.1172 27.1372C23.6394 27.1641 23.1655 27.1753 22.6769 27.187C22.66 27.0137 22.6578 26.8398 22.6588 26.6501Z" fill="#00AB55"/>
<path d="M21.9003 25.8918C21.4327 25.9185 20.9689 25.9294 20.4882 25.9391C20.6766 25.7748 20.8795 25.6086 21.0878 25.4493C21.3447 25.2529 21.6061 25.0623 21.9041 24.8405C21.9041 25.2161 21.9041 25.546 21.9003 25.8918Z" fill="#00AB55"/>
<path d="M16.3677 29.1403C16.6889 29.1013 17.0068 29.0714 17.3255 29.0582C17.4821 29.0516 17.6399 29.0761 17.8105 29.0882C17.8261 29.2292 17.8283 29.3685 17.8124 29.5241C17.7325 29.5515 17.6709 29.5704 17.6087 29.5725C17.1961 29.5865 16.7833 29.597 16.3705 29.6086C16.3686 29.4578 16.3667 29.3069 16.3677 29.1403Z" fill="#00AB55"/>
<path d="M9.69511 26.8628C9.68037 26.8818 9.67182 26.8881 9.64735 26.9035C9.58485 26.9008 9.53937 26.8809 9.49552 26.884C9.07415 26.9138 8.65305 26.9474 8.23188 26.9799C8.22696 26.7603 8.22203 26.5406 8.23192 26.3103C8.26346 26.3575 8.28019 26.4154 8.28377 26.4278C8.76398 26.4278 9.22771 26.4278 9.69144 26.4278C9.69411 26.5677 9.69678 26.7077 9.69511 26.8628Z" fill="#00AB55"/>
<path d="M9.69887 26.4138C9.22771 26.4278 8.76398 26.4278 8.28377 26.4278C8.28019 26.4154 8.26346 26.3575 8.23633 26.2949C8.22592 26.1826 8.22592 26.0751 8.22592 25.9457C8.6985 25.9457 9.16316 25.9457 9.6435 25.9594C9.66945 25.9964 9.6797 26.0198 9.68995 26.0433C9.68981 26.0714 9.68967 26.0995 9.69335 26.1463C9.70054 26.1714 9.70519 26.1765 9.71114 26.1804C9.70952 26.2536 9.70791 26.3267 9.69887 26.4138Z" fill="#00AB55"/>
<path d="M8.22634 26.9895C8.65305 26.9474 9.07415 26.9138 9.49552 26.884C9.53937 26.8809 9.58485 26.9008 9.64319 26.9104C9.6568 27.076 9.6568 27.2411 9.6568 27.3953C9.41183 27.4075 9.18997 27.4195 8.96801 27.4292C8.74635 27.4389 8.52459 27.4462 8.28969 27.455C8.27748 27.3508 8.26262 27.2238 8.23671 27.0914C8.22404 27.0569 8.22242 27.0279 8.22634 26.9895Z" fill="#00AB55"/>
<path d="M25.9727 29.1788C25.4909 29.2172 25.0136 29.2401 24.5222 29.2631C24.505 29.1236 24.5019 28.9839 24.5032 28.8287C24.9846 28.7901 25.4615 28.767 25.9535 28.7439C25.9714 28.8836 25.9743 29.0234 25.9727 29.1788Z" fill="#00AB55"/>
<path d="M30.8918 29.3812C31.0559 29.3465 31.224 29.3132 31.3936 29.3008C31.6676 29.2809 31.9425 29.2748 32.2331 29.2628C32.2515 29.4479 32.2538 29.6329 32.2364 29.8341C32.1537 29.8504 32.0901 29.8447 32.028 29.8519C31.8331 29.8746 31.6387 29.9022 31.4441 29.9278C31.2616 29.7492 31.0791 29.5706 30.8918 29.3812Z" fill="#00AB55"/>
<path d="M16.3676 29.6244C16.7833 29.597 17.1961 29.5865 17.6087 29.5725C17.6709 29.5704 17.7325 29.5515 17.8092 29.5398C17.824 29.6929 17.824 29.8465 17.824 30.0137C17.3415 30.0137 16.8646 30.0137 16.3647 30.0137C16.3647 29.8877 16.3647 29.764 16.3676 29.6244Z" fill="#00AB55"/>
<path d="M28.5764 26.8223C29.1686 26.7025 29.7617 26.6746 30.3738 26.7002C30.493 26.7945 30.5962 26.8899 30.7031 26.9972C30.3419 27.0108 29.9763 27 29.6121 27.0182C29.2766 27.0351 28.9427 27.0831 28.5943 27.1178C28.5779 27.0247 28.5752 26.9311 28.5764 26.8223Z" fill="#00AB55"/>
<path d="M28.1906 27.2761C27.7095 27.3144 27.2328 27.3374 26.7365 27.3455C26.711 27.2385 26.7051 27.1463 26.6992 27.0541C26.8038 27.0296 26.9076 26.9887 27.0132 26.9834C27.3938 26.9642 27.7749 26.957 28.171 26.9452C28.1892 27.0504 28.1921 27.1557 28.1906 27.2761Z" fill="#00AB55"/>
<path d="M20.0472 27.4533C19.8636 27.1389 19.5606 27.3265 19.3145 27.2975C19.148 27.2779 18.9743 27.3102 18.8048 27.3288C18.7387 27.3361 18.6755 27.3694 18.5959 27.3774C18.577 27.261 18.5733 27.158 18.5695 27.055C18.6975 27.0309 18.8245 26.9943 18.9536 26.9852C19.2436 26.9647 19.5346 26.9537 19.8254 26.9486C19.8878 26.9475 19.951 26.9878 20.0274 27.0111C20.0451 27.1558 20.0493 27.2983 20.0472 27.4533Z" fill="#00AB55"/>
<path d="M17.8397 27.4279C17.3598 27.4399 16.8798 27.4519 16.3853 27.464C16.3686 27.3591 16.3667 27.2541 16.3677 27.1337C16.7911 27.0952 17.2115 27.0708 17.6321 27.051C17.6873 27.0484 17.7436 27.07 17.8159 27.0979C17.8348 27.2195 17.8373 27.3237 17.8397 27.4279Z" fill="#00AB55"/>
<path d="M20.4416 27.0648C20.8698 27.0294 21.2949 27.0085 21.72 26.991C21.7696 26.9889 21.8199 27.0055 21.8831 27.014C21.8989 27.1196 21.9014 27.2248 21.8999 27.3452C21.4232 27.372 20.9505 27.3835 20.4612 27.395C20.4425 27.2901 20.4404 27.1852 20.4416 27.0648Z" fill="#00AB55"/>
<path d="M30.7941 26.6839C31.2706 26.6456 31.7434 26.6225 32.2329 26.5994C32.2516 26.6929 32.2536 26.7865 32.2525 26.8954C31.8311 26.9224 31.4128 26.933 30.9945 26.9469C30.9382 26.9488 30.8824 26.9677 30.8122 26.9794C30.7956 26.8864 30.793 26.7928 30.7941 26.6839Z" fill="#00AB55"/>
<path d="M31.4473 29.939C31.6387 29.9022 31.8331 29.8746 32.028 29.8519C32.0901 29.8447 32.1537 29.8504 32.233 29.8499C32.2493 30.1395 32.2493 30.4296 32.2493 30.7403C31.9744 30.4684 31.7124 30.2092 31.4473 29.939Z" fill="#00AB55"/>
<path d="M13.7601 28.5851C13.7496 28.4677 13.845 28.5033 13.911 28.5031C14.5823 28.5013 15.2537 28.5026 15.9417 28.5042C15.903 28.5219 15.8477 28.5524 15.7923 28.5527C15.1878 28.5562 14.5832 28.5541 13.9787 28.5559C13.9108 28.5561 13.843 28.5708 13.7601 28.5851Z" fill="#00AB55"/>
<path d="M15.9705 28.5001C15.9572 28.4568 15.9553 28.4075 15.9523 28.3436C15.9518 28.2123 15.9523 28.0956 15.9517 27.9631C15.951 27.8196 15.9515 27.692 15.952 27.5369C15.9526 27.4937 15.953 27.4781 15.9534 27.4625C15.9689 27.477 15.998 27.4916 15.9978 27.5059C15.9945 27.8353 15.9879 28.1648 15.9705 28.5001Z" fill="#00AB55"/>
<path d="M13.793 27.4166C13.7746 27.3267 13.7566 27.2207 13.7379 27.0993C13.7548 27.073 13.7723 27.0621 13.8005 27.0506C13.8052 27.1668 13.7992 27.2837 13.793 27.4166Z" fill="#00AB55"/>
<path d="M5.64642 27.4137C5.62381 27.3361 5.6005 27.243 5.57724 27.1347C5.59012 27.1191 5.60295 27.1187 5.62539 27.1184C5.63858 27.2117 5.64215 27.305 5.64642 27.4137Z" fill="#00AB55"/>
<path d="M7.85314 29.1097C7.80927 29.0647 7.76801 29.0052 7.72394 28.9346C7.89044 28.8833 7.85492 29.0035 7.85314 29.1097Z" fill="#00AB55"/>
<path d="M9.6995 26.0397C9.6797 26.0198 9.66945 25.9964 9.65946 25.9629C9.67617 25.9805 9.69261 26.0083 9.6995 26.0397Z" fill="#00AB55"/>
<path d="M15.9428 27.4561C15.953 27.4781 15.9526 27.4937 15.9511 27.521C15.9288 27.5139 15.9075 27.4951 15.8849 27.4645C15.8998 27.4516 15.9161 27.4506 15.9428 27.4561Z" fill="#00AB55"/>
<path d="M30.7853 27.0231C30.7888 27.0276 30.7836 27.0329 30.7731 27.037C30.7698 27.0378 30.7785 27.0258 30.7853 27.0231Z" fill="#00AB55"/>
<path d="M9.71407 26.1739C9.70519 26.1765 9.70054 26.1714 9.69515 26.1603C9.7041 26.1534 9.71206 26.1574 9.71407 26.1739Z" fill="#00AB55"/>
<path d="M33.3509 17.1926C33.4105 17.1926 33.4684 17.1925 33.5252 17.1925C33.655 17.1924 33.7791 17.1923 33.9031 17.1931C34.044 17.1939 34.1213 17.2403 34.1157 17.4074C34.1038 17.7561 34.1085 18.1055 34.1131 18.4546V18.4547L34.1137 18.4942C34.1151 18.6037 34.0824 18.6476 33.967 18.6466C33.4265 18.6422 32.8858 18.6427 32.3452 18.6463C32.2376 18.6471 32.2067 18.6043 32.2076 18.503C32.2113 18.1119 32.2117 17.7208 32.2075 17.3297C32.2064 17.2232 32.2478 17.1898 32.3502 17.1911C32.5857 17.1941 32.8213 17.1935 33.0633 17.193C33.158 17.1928 33.2538 17.1926 33.3509 17.1926Z" fill="#00AB55"/>
<path d="M20.5188 24.4202C20.2074 24.4202 19.897 24.42 19.5873 24.4198C18.5899 24.4193 17.6002 24.4187 16.6105 24.4239C16.4433 24.4247 16.3978 24.3779 16.3984 24.2113C16.4044 22.5858 16.4046 20.9602 16.3982 19.3346C16.3976 19.1636 16.4508 19.1246 16.6136 19.1253C17.6951 19.1297 18.7766 19.1293 19.8582 19.129H19.8582C20.2236 19.1289 20.5889 19.1288 20.9543 19.1288C21.1733 19.1289 21.176 19.1317 21.1761 19.3524C21.1762 19.5451 21.176 19.7378 21.1758 19.9305C21.1752 20.4007 21.1747 20.8709 21.1789 21.3411C21.1802 21.4767 21.1409 21.5207 21.0029 21.5188C20.4842 21.5116 19.9653 21.5116 19.4466 21.5188C19.309 21.5207 19.2637 21.4779 19.2705 21.3413C19.2764 21.2224 19.2752 21.1032 19.2741 20.984C19.2732 20.9014 19.2724 20.8187 19.274 20.7362C19.276 20.627 19.2329 20.5782 19.1212 20.58C18.9022 20.5836 18.6831 20.5834 18.4641 20.5799C18.3576 20.5782 18.3041 20.6154 18.3044 20.7295C18.3064 21.4328 18.3065 22.136 18.3041 22.8393C18.3038 22.9374 18.343 22.9708 18.4379 22.9693C18.6742 22.9654 18.9106 22.9651 19.1469 22.9693C19.2478 22.9711 19.2757 22.9254 19.2741 22.8329C19.2725 22.7392 19.273 22.6454 19.2736 22.5515C19.2743 22.432 19.275 22.3125 19.2711 22.1932C19.2674 22.0766 19.3013 22.0293 19.4263 22.0306C19.9566 22.0362 20.487 22.0356 21.0172 22.0309C21.1352 22.0298 21.1793 22.0642 21.1784 22.1875C21.1737 22.8792 21.174 23.571 21.1783 24.2627C21.1791 24.3824 21.1423 24.4284 21.0202 24.4222C20.9087 24.4164 20.7967 24.4177 20.6791 24.419H20.6789C20.6268 24.4196 20.5736 24.4202 20.5188 24.4202Z" fill="#00AB55"/>
<path fill-rule="evenodd" clip-rule="evenodd" d="M26.9185 21.1485C26.9183 21.3619 26.918 21.5763 26.918 21.7917C26.918 22.0012 26.9182 22.2095 26.9183 22.417C26.9188 23.0258 26.9192 23.6275 26.9158 24.2291C26.915 24.3688 26.9566 24.4244 27.1029 24.4226C27.6214 24.4163 28.1401 24.4157 28.6586 24.423C28.8116 24.4251 28.8583 24.371 28.8563 24.2219C28.8528 23.9563 28.8531 23.6908 28.8534 23.4252C28.8538 23.1779 28.8541 22.9307 28.8513 22.6834C28.8498 22.556 28.8884 22.5087 29.0183 22.5148C29.208 22.5238 29.3992 22.527 29.5884 22.5141C29.7481 22.5032 29.7934 22.5569 29.7922 22.7167C29.787 23.4423 29.7876 24.168 29.7883 24.8937C29.7885 25.1361 29.7887 25.3784 29.7887 25.6208L29.7887 25.847C29.81 25.8346 29.8268 25.8253 29.8405 25.8176L29.8407 25.8176L29.8411 25.8174L29.8412 25.8173C29.8642 25.8045 29.8788 25.7964 29.892 25.7865C30.0496 25.6681 30.2069 25.5494 30.3642 25.4307C30.7691 25.1253 31.174 24.8199 31.5829 24.52C31.6897 24.4417 31.7288 24.3625 31.7273 24.2345C31.727 24.2139 31.7267 24.1933 31.7265 24.1727C31.7261 24.1437 31.7257 24.1146 31.7254 24.0855V24.0854C31.7196 23.6453 31.7139 23.2048 31.7304 22.7654C31.7391 22.5323 31.6313 22.4104 31.4565 22.2937C31.2958 22.1864 31.1419 22.0687 30.9803 21.9452C30.9087 21.8905 30.8357 21.8347 30.7599 21.778C30.8413 21.7165 30.9201 21.6563 30.9973 21.5973L30.9974 21.5973C31.1769 21.4603 31.3478 21.3298 31.5218 21.2037C31.6624 21.1019 31.7345 20.9873 31.7294 20.8014C31.7159 20.312 31.7193 19.8219 31.728 19.3322C31.7308 19.1703 31.6739 19.1254 31.5173 19.1259C30.048 19.1306 28.5786 19.1309 27.1093 19.1255C26.9571 19.1249 26.9133 19.167 26.9146 19.3198C26.92 19.927 26.9192 20.5342 26.9185 21.1485ZM29.7851 20.9253C29.7853 20.9503 29.7854 20.9754 29.785 21.0003C29.4909 21.0408 29.2066 21.0528 28.9221 21.0587C28.9031 21.0591 28.8811 21.0263 28.8641 21.001L28.8608 20.9962C28.8599 20.9948 28.859 20.9935 28.8582 20.9922C28.8519 20.983 28.8527 20.9686 28.8536 20.9547C28.8538 20.9501 28.8541 20.9456 28.8541 20.9414C28.8542 20.8969 28.854 20.8579 28.8537 20.8236C28.8527 20.6844 28.8522 20.623 28.8824 20.5969C28.9062 20.5763 28.949 20.5776 29.0257 20.58C29.0682 20.5813 29.1211 20.583 29.1868 20.5814C29.2438 20.58 29.3009 20.5811 29.358 20.5821C29.4451 20.5838 29.5321 20.5854 29.6185 20.5784C29.7624 20.5667 29.8028 20.6282 29.7899 20.7587C29.7845 20.8139 29.7848 20.8696 29.7851 20.9253Z" fill="#00AB55"/>
<path d="M14.9108 22.9688C14.7982 22.9685 14.6846 22.9682 14.5697 22.9681C14.4625 22.9681 14.3562 22.9682 14.2507 22.9683H14.2492C13.9013 22.9685 13.5611 22.9687 13.2209 22.9665C13.1673 22.9661 13.07 22.9491 13.0674 22.9298C13.0514 22.8115 13.0416 22.6871 13.0654 22.5721C13.0719 22.5407 13.201 22.5198 13.274 22.5194C13.8566 22.5167 14.4393 22.5169 15.0219 22.517C15.2347 22.517 15.4475 22.5171 15.6603 22.517C15.9098 22.5169 15.9181 22.5084 15.9183 22.2694C15.9184 22.1663 15.918 22.0633 15.9176 21.9602C15.9167 21.7174 15.9158 21.4746 15.9208 21.2319C15.9234 21.1052 15.8854 21.0591 15.7547 21.0626C15.5417 21.0683 15.3286 21.0672 15.1154 21.0661C15.0288 21.0656 14.9422 21.0651 14.8556 21.0651C14.7095 21.0651 14.5635 21.0649 14.4175 21.0646L14.417 21.0646C14.0156 21.064 13.6142 21.0633 13.2128 21.0676C13.0846 21.069 13.0301 21.0289 13.0467 20.9001C13.0511 20.8661 13.0522 20.8302 13.0466 20.7966C13.0165 20.618 13.0936 20.575 13.2664 20.5769C13.7199 20.5818 14.1735 20.5816 14.6271 20.5813C14.992 20.5812 15.3569 20.581 15.7218 20.5835C15.873 20.5845 15.9247 20.5349 15.921 20.3839C15.9126 20.0325 15.9131 19.6806 15.9209 19.3291C15.9241 19.1823 15.8805 19.1255 15.7253 19.126C14.2497 19.1306 12.7741 19.1302 11.2985 19.1264C11.1541 19.126 11.1092 19.1768 11.1095 19.3182C11.113 20.9552 11.113 22.5922 11.1096 24.2292C11.1093 24.3691 11.1509 24.4229 11.2969 24.4225C12.784 24.4186 14.2712 24.4192 15.7583 24.4221C15.8746 24.4223 15.9229 24.3921 15.9207 24.267C15.9141 23.8866 15.9146 23.5061 15.9205 23.1257C15.9223 23.0063 15.885 22.964 15.7628 22.9659C15.481 22.9703 15.1991 22.9696 14.9108 22.9688Z" fill="#00AB55"/>
<path d="M2.82547 22.5164C2.78951 22.5156 2.75857 22.515 2.72795 22.5178C2.71076 22.5195 2.69029 22.5208 2.66901 22.5222C2.59997 22.5268 2.52231 22.532 2.51967 22.5481C2.49964 22.6707 2.50159 22.7993 2.51769 22.9231C2.52052 22.9449 2.62529 22.9661 2.68306 22.9663C2.77893 22.9666 2.8748 22.9669 2.97067 22.9673H2.97094C3.69897 22.9699 4.42704 22.9726 5.15497 22.9638C5.33478 22.9616 5.37994 23.0159 5.37357 23.188C5.36058 23.539 5.36543 23.8909 5.37177 24.2423C5.37423 24.379 5.3215 24.4223 5.18849 24.4221C3.71915 24.419 2.24979 24.4186 0.780451 24.4226C0.632503 24.423 0.594759 24.3652 0.595033 24.2275C0.598297 22.591 0.598401 20.9546 0.594911 19.3181C0.59461 19.1767 0.639543 19.126 0.78383 19.1264C2.24741 19.1302 3.71101 19.1305 5.17458 19.1261C5.32746 19.1256 5.37575 19.1785 5.37225 19.3275C5.36414 19.673 5.36261 20.0191 5.37276 20.3645C5.37758 20.5288 5.3265 20.5856 5.15755 20.5841C4.33939 20.5768 3.52112 20.5793 2.70292 20.5839C2.63761 20.5842 2.52046 20.6205 2.51647 20.6515C2.5001 20.7789 2.51258 20.9115 2.5309 21.0399C2.53314 21.0556 2.63475 21.064 2.69033 21.0641C2.83389 21.0644 2.97746 21.0647 3.12103 21.0651H3.12107C3.80148 21.0667 4.48192 21.0683 5.16225 21.0613C5.33083 21.0596 5.37909 21.1089 5.37336 21.2748C5.36125 21.6259 5.36472 21.9778 5.37205 22.3291C5.37504 22.4725 5.32392 22.5204 5.18133 22.5194C4.61692 22.5158 4.05249 22.5163 3.48124 22.5168H3.48013C3.28195 22.517 3.08295 22.5171 2.88285 22.5171C2.86216 22.5171 2.84324 22.5167 2.82554 22.5164H2.82547Z" fill="#00AB55"/>
<path d="M35.6329 24.4195C35.7474 24.4198 35.8628 24.4202 35.9796 24.4202L38.058 24.4201C38.4432 24.42 38.8283 24.42 39.2135 24.4205L39.2195 24.4205C39.3142 24.4207 39.4032 24.4209 39.403 24.2853C39.4023 23.8975 39.4023 23.5097 39.4023 23.122C39.4022 22.8122 39.4022 22.5025 39.4018 22.1928C39.4017 22.08 39.3479 22.0304 39.2294 22.0313C38.6875 22.0352 38.1457 22.035 37.6038 22.0314C37.4964 22.0306 37.463 22.0729 37.4653 22.1749C37.4676 22.2785 37.467 22.3821 37.4665 22.4857C37.4659 22.5954 37.4654 22.7051 37.4682 22.8147C37.4709 22.9215 37.4426 22.9736 37.3237 22.9701C37.0934 22.9632 36.8626 22.9654 36.6321 22.9693C36.5374 22.9709 36.4976 22.938 36.4979 22.8397C36.5003 22.1364 36.5002 21.4331 36.4982 20.7299C36.4979 20.6162 36.5504 20.5782 36.6573 20.5799C36.8763 20.5835 37.0954 20.5836 37.3144 20.58C37.426 20.5782 37.4694 20.627 37.4675 20.7362C37.466 20.8251 37.4666 20.9141 37.4672 21.003C37.468 21.1216 37.4688 21.2402 37.4645 21.3587C37.4602 21.4792 37.5021 21.5192 37.6232 21.5181C38.1592 21.513 38.6954 21.5114 39.2314 21.5189C39.372 21.5208 39.4066 21.4719 39.4054 21.339C39.4014 20.8662 39.4019 20.3933 39.4024 19.9204V19.9191C39.4026 19.7353 39.4028 19.5515 39.4028 19.3676C39.4027 19.1452 39.3884 19.1291 39.1703 19.129C38.7448 19.1288 38.3193 19.1289 37.8938 19.1289C36.8609 19.129 35.828 19.1291 34.7952 19.1263C34.6473 19.1259 34.5927 19.1693 34.5931 19.3232C34.5974 20.9602 34.5971 22.5973 34.5934 24.2344C34.5931 24.3799 34.6461 24.4248 34.7865 24.4225C35.0664 24.4177 35.3465 24.4186 35.6329 24.4195Z" fill="#00AB55"/>
<path d="M7.33706 24.4196C7.49869 24.4199 7.66123 24.4202 7.82502 24.4202C8.02836 24.4202 8.2308 24.4201 8.43253 24.4201H8.43481C9.11277 24.42 9.78283 24.4199 10.4529 24.421L10.456 24.421C10.5544 24.4212 10.6308 24.4213 10.6298 24.2814C10.6246 23.5784 10.626 22.8753 10.629 22.1723C10.6295 22.0676 10.5926 22.0308 10.4881 22.0315C9.94638 22.0349 9.40465 22.035 8.86296 22.0314C8.75697 22.0307 8.72086 22.0701 8.72332 22.1736C8.72563 22.2706 8.72494 22.3677 8.72425 22.4647C8.72343 22.5809 8.7226 22.6971 8.72691 22.8131C8.73148 22.9361 8.68541 22.9745 8.56648 22.9703C8.35928 22.963 8.15099 22.9583 7.94438 22.9715C7.78614 22.9817 7.75261 22.9212 7.75331 22.7737C7.7562 22.1672 7.75635 21.5608 7.7565 20.9543C7.75664 20.4082 7.75677 19.8621 7.75891 19.316C7.75945 19.1786 7.72856 19.123 7.57833 19.1255C7.06557 19.134 6.55255 19.1325 6.03973 19.1263C5.89491 19.1246 5.85102 19.1777 5.85132 19.3187C5.85481 20.9611 5.85499 22.6036 5.85087 24.246C5.85053 24.382 5.88969 24.4246 6.02703 24.423C6.46127 24.4182 6.89558 24.4189 7.33666 24.4196H7.33706Z" fill="#00AB55"/>
<path d="M21.6617 19.6875C21.6634 19.5665 21.6651 19.4511 21.6578 19.3363C21.6477 19.179 21.7021 19.1243 21.8638 19.1256C22.4561 19.1306 23.0484 19.1299 23.6407 19.1292C23.8494 19.129 24.0582 19.1287 24.2669 19.1287C24.4464 19.1287 24.626 19.1291 24.8055 19.1294C25.2887 19.1304 25.7719 19.1313 26.2551 19.1254C26.4243 19.1233 26.4749 19.1808 26.4701 19.3449C26.46 19.6904 26.4615 20.0365 26.4696 20.3821C26.4731 20.531 26.4257 20.5874 26.2722 20.5836C26.1023 20.5794 25.9324 20.5802 25.7624 20.5811C25.5808 20.582 25.3992 20.5829 25.2177 20.5776C25.0625 20.5731 25.0105 20.6144 25.0115 20.7782C25.015 21.338 25.0151 21.8978 25.0151 22.4576C25.0152 23.0389 25.0153 23.6201 25.0192 24.2014C25.0203 24.374 24.9788 24.4291 24.7999 24.4246C24.3046 24.4119 23.8086 24.4143 23.3132 24.4236C23.1556 24.4266 23.1076 24.3826 23.1085 24.2213C23.1137 23.3435 23.1131 22.4656 23.1124 21.5876V21.5867C23.1122 21.3296 23.1121 21.0725 23.112 20.8155C23.112 20.582 23.1112 20.5813 22.8839 20.581C22.7942 20.5809 22.7045 20.5805 22.6148 20.58C22.3587 20.5789 22.1026 20.5777 21.8466 20.5832C21.7015 20.5864 21.6513 20.5319 21.6582 20.3907C21.664 20.2713 21.6627 20.1516 21.6614 20.0262V20.0259C21.6608 19.9701 21.6601 19.9133 21.6601 19.8548C21.6601 19.7977 21.6609 19.7421 21.6617 19.6877V19.6875Z" fill="#00AB55"/>
<path d="M34.1114 22.8269C34.1116 22.6558 34.1119 22.4838 34.1119 22.3105C34.1119 22.0655 34.1118 21.8215 34.1117 21.5782V21.5772C34.1113 20.8195 34.1109 20.0693 34.1142 19.3191C34.1148 19.1784 34.0712 19.1246 33.926 19.1263C33.4074 19.1325 32.8885 19.1327 32.3698 19.126C32.2353 19.1243 32.2067 19.1754 32.2069 19.2986C32.2101 20.9471 32.2104 22.5956 32.2066 24.244C32.2063 24.377 32.2403 24.4253 32.3809 24.4232C32.8995 24.4155 33.4184 24.4161 33.937 24.4229C34.0722 24.4246 34.1162 24.3856 34.1148 24.2472C34.1099 23.7773 34.1107 23.3073 34.1114 22.8304V22.8269Z" fill="#00AB55"/>
<path d="M32.2443 33.4357C32.2455 33.5177 32.2467 33.5944 32.2418 33.6708C32.2293 33.8635 32.1236 33.9624 31.9329 33.9663C31.9195 33.9666 31.9061 33.9669 31.8927 33.9672L31.8924 33.9672C31.7964 33.9694 31.7001 33.9716 31.6046 33.9646C31.4155 33.9507 31.2706 33.7089 31.3552 33.54C31.3724 33.5055 31.4503 33.4829 31.4973 33.487C31.5403 33.4909 31.6098 33.5337 31.615 33.5675C31.6358 33.7037 31.722 33.6966 31.8053 33.6899C31.8224 33.6885 31.8394 33.6871 31.8557 33.687C31.965 33.6861 31.9659 33.607 31.9668 33.5303C31.9668 33.5272 31.9669 33.524 31.9669 33.5209C31.9669 33.5178 31.967 33.5147 31.9671 33.5117C31.9718 33.2835 31.9557 33.2636 31.7406 33.2393C31.4471 33.206 31.3432 33.0916 31.3444 32.7986C31.3445 32.77 31.3434 32.7408 31.3422 32.7115C31.3359 32.5507 31.3295 32.3875 31.5313 32.3124C31.7259 32.24 31.9295 32.2367 32.1125 32.3404C32.2584 32.4231 32.2614 32.5799 32.234 32.7254C32.2285 32.7545 32.1454 32.787 32.0993 32.7853C32.0552 32.7837 31.9771 32.7416 31.9756 32.7139C31.9681 32.5818 31.8937 32.5293 31.7841 32.5577C31.722 32.5738 31.6412 32.6446 31.63 32.7026C31.6293 32.7061 31.6286 32.7095 31.628 32.7131C31.6082 32.8141 31.5829 32.9438 31.7483 32.9772C31.7771 32.983 31.8054 32.9916 31.8337 33.0003C31.8717 33.0118 31.9096 33.0234 31.9485 33.028C32.1212 33.0486 32.2158 33.1436 32.2431 33.3273C32.2432 33.3646 32.2437 33.4006 32.2443 33.4357V33.4357Z" fill="#00AB55"/>
<path d="M8.34128 33.4531C8.37149 33.6692 8.32694 33.7038 8.05733 33.6718C8.03673 33.3339 8.02346 33.0045 8.02268 32.6751C8.02242 32.5639 8.11168 32.5459 8.209 32.548C8.31677 32.5504 8.34588 32.6074 8.34631 32.7028C8.34686 32.8255 8.42658 32.8255 8.50671 32.8255C8.51958 32.8255 8.53247 32.8255 8.54503 32.826C8.65258 32.8303 8.65361 32.762 8.65471 32.6893L8.65471 32.6892C8.65479 32.6844 8.65486 32.6796 8.65496 32.6749C8.65991 32.4454 8.60937 32.3429 8.39336 32.2927C8.25379 32.2603 8.09468 32.272 7.95231 32.302C7.78818 32.3365 7.71417 32.4618 7.71962 32.6378C7.72497 32.8108 7.72376 32.984 7.72255 33.1572V33.1573C7.72203 33.2316 7.72151 33.306 7.72151 33.3803C7.7215 33.9466 7.76885 33.9914 8.33005 33.9673C8.49626 33.9602 8.60325 33.8792 8.6367 33.7186C8.65327 33.639 8.6535 33.5554 8.65372 33.4729C8.65374 33.4635 8.65377 33.454 8.65382 33.4446C8.6556 33.1067 8.6543 33.1046 8.32208 33.1397C8.28219 33.1439 8.22279 33.1811 8.21495 33.2134C8.20743 33.2443 8.23134 33.285 8.2527 33.3213C8.25665 33.328 8.26051 33.3346 8.26408 33.341C8.27298 33.3568 8.28618 33.3715 8.29918 33.3859C8.31877 33.4077 8.33792 33.429 8.34128 33.4531Z" fill="#00AB55"/>
<path d="M20.3453 33.371L20.3453 33.6887C20.3454 33.7061 20.3457 33.7216 20.346 33.7359C20.3466 33.7634 20.3471 33.7861 20.3451 33.8087C20.3363 33.9116 20.3919 33.9348 20.4823 33.9343C20.5703 33.9338 20.6236 33.9162 20.6229 33.8112C20.6216 33.6196 20.6216 33.428 20.6216 33.2364V33.2355C20.6215 32.9723 20.6215 32.7092 20.6181 32.4461C20.6176 32.4012 20.5592 32.3163 20.5425 32.3198C20.4839 32.3322 20.4075 32.3622 20.3823 32.4093C20.3401 32.4881 20.3111 32.5741 20.2822 32.66L20.2822 32.6601C20.2708 32.6938 20.2595 32.7274 20.2474 32.7606C20.2033 32.8814 20.1593 33.0024 20.1108 33.1358L20.1081 33.1432L20.108 33.1433L20.1037 33.1552C20.0826 33.2132 20.0606 33.2737 20.0373 33.3377C20.0231 33.3072 20.0112 33.2828 20.0011 33.262C19.9834 33.2257 19.9711 33.2006 19.9618 33.1745C19.9353 33.1 19.9096 33.0252 19.8839 32.9503C19.8262 32.7824 19.7685 32.6144 19.7017 32.4502C19.6852 32.4098 19.6406 32.3809 19.5959 32.3519L19.5959 32.3519C19.5754 32.3386 19.5549 32.3254 19.5371 32.311C19.5276 32.3279 19.5155 32.3448 19.5035 32.3617C19.4775 32.3981 19.4515 32.4345 19.4509 32.4714C19.4466 32.7427 19.4467 33.014 19.4468 33.2854V33.2858C19.4468 33.4578 19.4469 33.6299 19.4458 33.8019C19.4452 33.8977 19.4802 33.9349 19.5773 33.9348C19.6744 33.9347 19.7304 33.9131 19.725 33.8008C19.7205 33.7082 19.7216 33.6154 19.7226 33.5225C19.723 33.4823 19.7235 33.4421 19.7235 33.4018L19.7697 33.3988C19.7837 33.4373 19.7974 33.476 19.8111 33.5148L19.8111 33.515C19.8458 33.6134 19.8805 33.7117 19.9215 33.8073C19.9356 33.8401 19.9638 33.8669 19.9919 33.8936C20.0048 33.9058 20.0176 33.918 20.0291 33.9308C20.0417 33.918 20.056 33.9058 20.0702 33.8936C20.1014 33.867 20.1325 33.8403 20.1464 33.8066C20.1889 33.7033 20.2238 33.5969 20.2587 33.4906L20.2587 33.4905C20.2724 33.4488 20.2861 33.4072 20.3002 33.3657L20.3453 33.371Z" fill="#00AB55"/>
<path d="M26.0633 32.5801C26.1812 32.5816 26.2993 32.5624 26.4227 32.5385C26.4587 32.366 26.3897 32.3007 26.2324 32.3062C26.0889 32.3112 25.9449 32.3111 25.8013 32.3061C25.6844 32.302 25.6354 32.3478 25.6364 32.4676C25.64 32.9103 25.6391 33.353 25.6368 33.7958C25.6363 33.886 25.6595 33.9364 25.7619 33.9338C25.9458 33.9293 26.1299 33.9301 26.3139 33.9335C26.4038 33.9352 26.4349 33.8965 26.4352 33.8097C26.4355 33.7203 26.399 33.685 26.3113 33.6885L26.3065 33.6887C26.2162 33.6923 26.1249 33.6959 26.0357 33.6856C25.9944 33.6808 25.9258 33.6441 25.9236 33.6174C25.9143 33.5042 25.9083 33.3843 25.9394 33.2781C25.9441 33.2617 25.9842 33.2591 26.0312 33.2561C26.075 33.2533 26.1247 33.25 26.1575 33.2349C26.1955 33.2174 26.2243 33.18 26.2531 33.1426L26.2531 33.1425C26.2659 33.126 26.2786 33.1094 26.2922 33.0946C26.2789 33.0843 26.2659 33.0717 26.2528 33.0591C26.2245 33.0317 26.1962 33.0044 26.1657 33.0015L26.1545 33.0005C26.0311 32.989 25.9703 32.9833 25.9405 32.9499C25.9115 32.9175 25.9118 32.859 25.9125 32.7437L25.9125 32.7294C25.9131 32.6163 25.9518 32.5786 26.0633 32.5801Z" fill="#00AB55"/>
<path fill-rule="evenodd" clip-rule="evenodd" d="M14.5883 33.8937C14.5382 33.7014 14.4883 33.5097 14.4345 33.3043C14.4282 33.2802 14.4227 33.2584 14.4176 33.238C14.4104 33.2093 14.4039 33.1834 14.3968 33.1577C14.3793 33.0946 14.3624 33.0313 14.3455 32.968L14.3454 32.968C14.295 32.7794 14.2445 32.5907 14.1809 32.4067C14.1639 32.3578 14.0562 32.3161 13.9905 32.3164C13.9424 32.3165 13.8657 32.3826 13.8513 32.4334C13.7313 32.8555 13.6195 33.2801 13.5139 33.7061C13.5113 33.7165 13.5079 33.7278 13.5044 33.7396C13.4824 33.813 13.4552 33.9042 13.5796 33.9285C13.6989 33.9518 13.7975 33.92 13.8097 33.7697C13.8189 33.6574 13.8529 33.5736 13.998 33.5842C14.0099 33.5851 14.0216 33.5858 14.0332 33.5865C14.1432 33.5929 14.2369 33.5984 14.2667 33.7519C14.3066 33.9574 14.3833 33.9827 14.5883 33.8937ZM13.947 33.0778C13.9479 33.0723 13.9487 33.0667 13.9494 33.0612L13.9501 33.0583C13.9506 33.0545 13.9512 33.0506 13.9517 33.0468C13.9687 32.9721 13.9834 32.9118 13.9985 32.85L13.9985 32.8499C14.0635 32.9042 14.142 33.1003 14.1552 33.2258C14.1563 33.2364 14.157 33.2466 14.1571 33.256C14.1575 33.2839 14.1535 33.3063 14.1438 33.3199C14.1173 33.3572 14.0398 33.3712 13.986 33.3698C13.9641 33.3692 13.9289 33.3043 13.9256 33.2654C13.9255 33.2645 13.9254 33.2637 13.9254 33.2629L13.9253 33.2618C13.9251 33.2574 13.925 33.253 13.925 33.2486C13.9247 33.2066 13.9321 33.1638 13.9403 33.117C13.9425 33.1043 13.9448 33.0912 13.947 33.0778Z" fill="#00AB55"/>
</g>
<defs>
<clipPath id="clip0_4416_8548">
<rect width="38.8769" height="34" fill="white" transform="translate(0.561523 0.000976562)"/>
</clipPath>
</defs>
</svg>
