<svg xmlns="http://www.w3.org/2000/svg" width="104" height="32" fill="none"><g clip-path="url(#a)"><path fill="#919EAB" fill-rule="evenodd" d="M53.756 2.292 56.068.12c.021-.018.044-.018.068 0l.08.064c.013.011.015.023.004.036a243.234 243.234 0 0 0-3.496 4.828.31.31 0 0 1-.352.136c-2.852-.644-4.62 1.944-1.508 3.468.147.072.173.175.08.308l-2.784 4.032c-.179.262-.239.236-.18-.076.295-1.577-.041-1.897-.58-2.408-.264-.251-.577-.549-.888-1.064-.725-1.202-.863-2.526-.412-3.972.96-3.084 4.52-3.68 7.24-3.064a.44.44 0 0 0 .416-.116Zm33.652 16.612-2.88-.004a.124.124 0 0 1-.124-.124l-.028-16.86a.124.124 0 0 1 .228-.072l8.112 11.576a.124.124 0 0 0 .2 0l8.312-11.6a.12.12 0 0 1 .062-.045.122.122 0 0 1 .139.047.13.13 0 0 1 .023.074l-.028 4.328a.132.132 0 0 1-.024.072l-8.624 12.156a.124.124 0 0 1-.2 0l-4.832-6.724a.125.125 0 0 0-.202.002.124.124 0 0 0-.022.074l.012 6.976a.124.124 0 0 1-.124.124ZM36.11 9.775a.141.141 0 0 1-.047-.035l-6.376-7.344a.334.334 0 0 0-.268-.124l-.9-.016c-.147-.002-.185.06-.116.188 1.744 3.184 3.525 6.426 5.344 9.724.867 1.577 1.335 3.347 1.793 5.084v.001c.11.418.22.833.335 1.243.157.568.308.567.452-.004.323-1.274.644-2.516.964-3.724.25-.946.696-1.981 1.336-3.104a917.882 917.882 0 0 0 5.108-9.112c.12-.22.055-.32-.196-.296-.105.01-.217.007-.33.004-.304-.01-.618-.018-.822.22-2.139 2.54-4.179 4.96-6.12 7.26a.128.128 0 0 1-.1.047.137.137 0 0 1-.057-.012Zm44.337 3.186c-.008 3.432-2.772 5.768-6.076 6.068-3.844.348-7.32-2.192-7.332-6.224-.008-3.235-.01-6.698-.008-10.388 0-.102.052-.152.156-.152l2.94.004c.112 0 .168.057.168.172.016 3.256.012 6.609-.012 10.06-.028 4.396 6.948 4.576 6.964-.06.008-3.254.006-6.598-.004-10.032 0-.088.044-.132.132-.132h2.932c.101 0 .152.049.152.148l-.012 10.536ZM1.904 5.265l2.992 1.76a.14.14 0 0 0 .212-.124l-.012-1.332a.14.14 0 0 1 .14-.14h7.744a.14.14 0 0 0 .14-.14l.004-2.868a.14.14 0 0 0-.14-.14L1.972 2.277a.14.14 0 0 0-.14.14l.004 2.728a.14.14 0 0 0 .068.12ZM20.58 15.74l7.416-.016a.192.192 0 0 1 .192.191l.012 2.796a.192.192 0 0 1-.192.192l-10.712-.003a.192.192 0 0 1-.192-.192l.02-16.248a.191.191 0 0 1 .192-.192l2.888.016a.192.192 0 0 1 .192.192l-.008 13.072a.19.19 0 0 0 .119.177c.023.01.048.014.073.014ZM59.96 2.272h3a.14.14 0 0 1 .14.14v16.352a.14.14 0 0 1-.14.14h-3a.14.14 0 0 1-.14-.14V2.412a.14.14 0 0 1 .14-.14Zm-57.836 9.42C2.452 9.938 2.062 8.507.952 7.4c-.368-.368-.33-.416.116-.144l5.328 3.236a.116.116 0 0 1 0 .2l-5.28 3.224c-.52.32-.57.258-.152-.188.552-.588 1.012-1.232 1.16-2.036Zm100.65-2.879.001-.002c.179-.331.356-.659.517-.983.016-.032.008-.058-.024-.08h-.004c-.035-.018-.063-.012-.084.02a231.417 231.417 0 0 1-4.84 6.988.777.777 0 0 0-.148.456v3.584a.1.1 0 0 0 .031.074.108.108 0 0 0 .077.03l3.008.004a.124.124 0 0 0 .124-.12c0-1.984-.01-3.988-.028-6.012-.013-1.4.694-2.708 1.37-3.959Zm-48.646 1.332c1.104.714 1.77 1.568 2 2.56.627 2.711-.236 4.642-2.588 5.791-1.376.672-3.117.76-5.224.26a.337.337 0 0 0-.336.092 20.684 20.684 0 0 0-1.976 2.208c-.019.027-.043.031-.072.012-.04-.024-.05-.056-.028-.096a696.28 696.28 0 0 1 2.672-5.008.206.206 0 0 1 .114-.095.198.198 0 0 1 .146.007c.808.352 1.676.414 2.604.184 1.38-.34 2.112-1.784.976-2.888a3.338 3.338 0 0 0-.932-.64c-.165-.074-.197-.188-.096-.34.973-1.44 1.923-2.89 2.848-4.352.035-.05.077-.06.128-.032l.004.004c.056.032.07.078.044.136a6.89 6.89 0 0 0-.516 1.668.49.49 0 0 0 .232.529Zm-41.12 5.584-7.768.012a.14.14 0 0 1-.14-.14l.008-1.332a.14.14 0 0 0-.212-.124l-2.988 1.764a.14.14 0 0 0-.068.12l-.012 2.736a.14.14 0 0 0 .14.14l11.028-.004a.14.14 0 0 0 .14-.14l.012-2.892a.14.14 0 0 0-.14-.14ZM38.424 32h-.36c.26-1.267-.582-1.587-1.43-1.908-.157-.06-.313-.119-.462-.184-1.084-.468-1.6-1.676-.432-2.436.71-.464 1.521-.47 2.436-.02.061.03.083.078.064.144l-.048.188c-.03.11-.095.138-.196.084-.82-.444-1.9-.604-2.396.384a.718.718 0 0 0 .28.94c.219.128.481.248.755.373 1.07.49 2.315 1.06 1.789 2.435Zm24.864 0h.476c2.584-3.307-2.748-7.16-5.016-3.251-.621 1.069-.525 2.153.288 3.252h.468c-1.101-1.888-.77-3.318.996-4.288.676-.372 1.692-.16 2.324.312 1.33 1.002 1.485 2.328.464 3.976Zm5.776 0h-.424c.343-1.25-.648-1.658-1.553-2.031-.204-.084-.404-.167-.583-.257-1.236-.624-.904-2.08.256-2.464.592-.197 1.252-.14 1.98.172.13.056.185.154.164.292a.134.134 0 0 1-.068.096.222.222 0 0 1-.184.016c-.627-.216-1.044-.328-1.252-.336-.512-.02-1.364.588-1.176 1.212.183.602.835.852 1.45 1.088.395.15.773.296 1.002.524.507.504.636 1.067.388 1.688Zm-27.916 0h.42l.028-4.211c0-.144.072-.214.216-.208l1.324.052c.117.005.168-.051.152-.168l-.02-.148a.155.155 0 0 0-.052-.1.162.162 0 0 0-.108-.04l-3.496.004c-.03 0-.059.01-.08.03a.114.114 0 0 0-.04.074l-.024.204c-.008.088.032.13.12.128l1.3-.036c.15-.003.225.07.228.22l.032 4.2Zm4.02 0h-.424l-.096-4.708a.101.101 0 0 1 .034-.08.11.11 0 0 1 .086-.028l.116.02c.061.009.117.04.159.086a.266.266 0 0 1 .065.17l.06 4.54Zm2.98 0h.432l.088-4.703c0-.08-.039-.118-.116-.113l-.116.012c-.147.011-.221.09-.224.236l-.064 4.569Zm6.228 0h-.336c1.147-2.458.37-3.942-2.332-4.451-.512-.096-.77.114-.776.631L50.9 32h-.384l.012-4.572c0-.133.065-.207.196-.224 2.444-.303 4.704.736 4.32 3.596a1.812 1.812 0 0 1-.668 1.2Zm2.16 0h.408l.036-4.667c.003-.072-.032-.114-.104-.124l-.156-.016c-.125-.016-.188.04-.188.168l.004 4.64Z" clip-rule="evenodd"/></g><defs><clipPath id="a"><path fill="#fff" d="M.4.001h103.2v32H.4z"/></clipPath></defs></svg>