<svg xmlns="http://www.w3.org/2000/svg" width="70" height="32" fill="none"><path fill="#00AB55" fill-rule="evenodd" d="M.1 6.315c.132-.64.528-1.312 1.301-2.016C4.315 1.643 9.37-.943 15.938.339c6.57 1.28 9.15 5.868 9.15 5.868-3.024-2.722-7.058-3.835-10.725-4.07-3.666-.236-6.076.658-7.05 2.08-.976 1.421-1.059 2.89.093 4.877 1.119 1.928 4.728 4.365 4.938 4.506l.003.001a.102.102 0 0 1 .007.005s2.175 1.164 2.175 2.315c0 .027-.002.053-.003.079l.002.079c0 1.151-2.174 2.315-2.174 2.315-.048.032-3.803 2.54-4.947 4.513-1.152 1.986-1.07 3.455-.094 4.877.975 1.422 3.384 2.315 7.05 2.08 3.667-.235 7.701-1.349 10.726-4.07 0 0-2.581 4.587-9.15 5.868-6.57 1.281-11.623-1.305-14.538-3.96-.773-.705-1.17-1.377-1.3-2.018-.353-1.732 1.24-3.235 2.608-4.526h.001l.101-.096c1.858-1.754 2.684-3.497 2.67-5.061.014-1.565-.812-3.308-2.67-5.062l-.1-.095C1.34 9.552-.254 8.048.1 6.315Zm52.6 7.42c.289-.118.772-.177 1.449-.177.33 0 .612.056.847.168.236.111.407.24.513.384.106.144.187.309.243.495.055.185.086.323.092.414.006.092.006.17 0 .235v3.215c-.883.117-1.325-.156-1.325-.822v-.971c.006-.878-.035-1.412-.123-1.604-.088-.191-.365-.293-.83-.304-.29 0-.578.053-.866.159v2.72c.011.353-.099.585-.331.694-.233.109-.564.151-.994.128v-6.89a.822.822 0 0 0 .42.137c.173.015.32.022.442.022.12 0 .228.064.322.19.094.127.141.334.141.623v1.183Zm-20.394-2.076Zm0 0a.71.71 0 0 0 .331.123c.133.018.253.026.362.026.11 0 .213.017.314.05.1.031.178.11.234.233.056.124.084.303.084.539v5.211a3.23 3.23 0 0 0-.084.102c-.05.061-.096.111-.137.15a1.292 1.292 0 0 1-.23.15 1.6 1.6 0 0 1-.37.146 4.6 4.6 0 0 1-.548.097c-.23.03-.49.044-.777.044-.907 0-1.558-.196-1.953-.587-.394-.392-.591-1.044-.591-1.957 0-.353.047-.67.141-.95.094-.279.22-.507.376-.684.155-.177.34-.324.552-.442.212-.117.427-.2.645-.247a3.23 3.23 0 0 1 .68-.07c.453 0 .777.07.971.212v-2.146Zm0 3.162v1.254c.006.777.006 1.165 0 1.166h-.01a3.846 3.846 0 0 1-.154.035 3.148 3.148 0 0 1-.689.049 1.953 1.953 0 0 1-.406-.08 1.015 1.015 0 0 1-.38-.198 1.015 1.015 0 0 1-.26-.38 1.466 1.466 0 0 1-.106-.583c0-.236.03-.44.088-.614.059-.173.136-.309.23-.406a1.194 1.194 0 0 1 .711-.34 2.791 2.791 0 0 1 .724.035c.092.018.175.038.252.062Zm-4.62.432v3.215c-.206.012-.382.01-.53-.004a1.54 1.54 0 0 1-.419-.102.541.541 0 0 1-.291-.26.926.926 0 0 1-.084-.455V15.28c-.088-.43-.49-.601-1.201-.513-.371.048-.586.083-.645.107.017.1.026.217.026.353v2.42a.897.897 0 0 1-.088.455.563.563 0 0 1-.292.26c-.13.053-.267.087-.415.102a3.435 3.435 0 0 1-.53.004v-4.301c0-.383.616-.589 1.847-.618 1.742-.048 2.617.52 2.623 1.704Zm-8.858 1.52c0 .182.091.319.274.41.182.092.413.139.693.142a7.5 7.5 0 0 0 .822-.035c.268-.027.52-.058.76-.093a5.43 5.43 0 0 1 .41-.053c.024.512-.078.874-.305 1.086-.226.212-.681.318-1.365.318-.942 0-1.634-.191-2.075-.574-.442-.382-.663-1.045-.663-1.987 0-.471.06-.87.181-1.197.12-.327.298-.576.53-.747.233-.17.492-.291.778-.362.285-.07.62-.106 1.002-.106.73 0 1.267.155 1.612.464.344.309.517.802.517 1.48 0 .258-.05.466-.15.622a.729.729 0 0 1-.394.313 2.857 2.857 0 0 1-.582.115c-.227.024-.451.031-.672.022-.22-.008-.46.002-.715.031-.256.03-.476.08-.658.15Zm-.044-.928c.1-.07.263-.118.49-.141.226-.024.438-.037.636-.04a1.16 1.16 0 0 0 .525-.124.379.379 0 0 0 .221-.375c0-.153-.12-.28-.362-.38a1.29 1.29 0 0 0-.98-.035c-.442.159-.619.524-.53 1.095Zm16.101.177a1.346 1.346 0 0 1-.013-.141 2.506 2.506 0 0 1 .026-.345 2.192 2.192 0 0 1 .349-1.007c.117-.188.263-.35.437-.486.173-.135.408-.248.702-.34.295-.091.63-.137 1.007-.137.265 0 .51.021.733.062.224.041.417.097.579.168.162.07.306.159.433.265.126.106.23.21.313.313.083.103.152.226.208.367.056.142.098.264.128.367.029.103.05.224.062.362a4.272 4.272 0 0 1 .022.583l-.005.18c0 .095-.003.18-.009.257a4.179 4.179 0 0 1-.053.362 2.18 2.18 0 0 1-.123.442c-.053.13-.137.27-.252.424-.115.153-.25.281-.406.384-.156.103-.36.19-.61.26-.25.071-.531.107-.843.107-.324 0-.613-.02-.866-.062a3.307 3.307 0 0 1-.645-.163 1.497 1.497 0 0 1-.463-.278 1.882 1.882 0 0 1-.322-.362 1.655 1.655 0 0 1-.203-.46 4.298 4.298 0 0 1-.12-.525 7.704 7.704 0 0 1-.066-.597Zm1.316.08c.017.206.042.37.075.49.032.12.091.24.177.358a.719.719 0 0 0 .384.256c.17.053.388.08.653.08.206 0 .383-.033.53-.098a.907.907 0 0 0 .327-.22.926.926 0 0 0 .168-.301c.041-.118.065-.206.07-.265.006-.06.01-.124.01-.195V15.973c0-.038-.004-.095-.01-.172a1.138 1.138 0 0 0-.03-.199 2.978 2.978 0 0 0-.062-.199.845.845 0 0 0-.247-.371.843.843 0 0 0-.208-.146 1.193 1.193 0 0 0-.278-.092 1.691 1.691 0 0 0-.358-.036c-.236 0-.436.033-.6.098a.946.946 0 0 0-.363.225.867.867 0 0 0-.176.336 1.416 1.416 0 0 0-.067.322 3.32 3.32 0 0 0 .005.291v.072Zm8.166-2.35a.76.76 0 0 1-.005-.186h-1.545c-.23 0-.437.03-.623.088a1.52 1.52 0 0 0-.454.221 1.355 1.355 0 0 0-.3.31 1.57 1.57 0 0 0-.274.666 2.426 2.426 0 0 0-.036.402v2.368c0 .218.047.384.141.498a.553.553 0 0 0 .323.208c.12.024.268.058.441.102.174.044.314.104.42.18v-2.826c0-.223.018-.4.053-.53a.507.507 0 0 1 .212-.3.834.834 0 0 1 .362-.133c.135-.017.327-.026.574-.026a.76.76 0 0 0 .42-.106.502.502 0 0 0 .216-.283 1.65 1.65 0 0 0 .075-.653Zm2.398 6.668a.822.822 0 0 0-.42-.136 5.297 5.297 0 0 0-.442-.023c-.12 0-.228-.063-.322-.19-.094-.126-.141-.334-.141-.622v-5.211a3.02 3.02 0 0 0 .084-.102c.05-.061.095-.11.136-.145a1.745 1.745 0 0 1 .6-.3c.136-.036.319-.069.549-.098.229-.03.488-.044.777-.044.907 0 1.557.196 1.952.587.395.392.592 1.044.592 1.957 0 .441-.07.824-.212 1.148-.141.324-.33.573-.57.746a2.48 2.48 0 0 1-.76.38c-.267.08-.551.12-.851.12-.406 0-.73-.042-.972-.125v2.058Zm0-4.416v1.254c.094.03.195.053.304.07.11.018.246.033.411.045a1.17 1.17 0 0 0 .46-.053c.14-.047.276-.115.406-.203a.886.886 0 0 0 .309-.424c.076-.194.115-.427.115-.698 0-.224-.037-.418-.11-.582a1.124 1.124 0 0 0-.257-.38.938.938 0 0 0-.384-.2 2.247 2.247 0 0 0-.398-.078 2.09 2.09 0 0 0-.397.013 8.44 8.44 0 0 0-.291.035 2.35 2.35 0 0 0-.16.035h-.008c-.006 0-.006.389 0 1.166Zm10.554-2.94a.703.703 0 0 1-.203-.504c0-.194.07-.36.208-.499a.68.68 0 0 1 .499-.207c.194 0 .36.069.499.207a.681.681 0 0 1 .208.5c0 .193-.07.36-.208.498a.68.68 0 0 1-.5.208.703.703 0 0 1-.503-.204Zm1.157 1.386c0-.288-.047-.496-.141-.622-.094-.127-.202-.19-.322-.19s-.268-.008-.442-.023a.822.822 0 0 1-.42-.136v4.99c.43.023.761-.02.994-.128.233-.11.343-.34.331-.694V14.45Zm5.777 4.018v-3.215c-.006-1.183-.88-1.752-2.623-1.704-1.231.03-1.846.236-1.846.618v4.301c.206.012.382.01.53-.004.147-.015.285-.049.414-.102a.563.563 0 0 0 .292-.26.896.896 0 0 0 .088-.455v-2.42c0-.136-.009-.253-.026-.353.059-.024.274-.06.645-.107.712-.088 1.113.083 1.2.513v2.367a.925.925 0 0 0 .085.455c.062.12.159.207.291.26.133.053.273.087.42.102.147.015.323.016.53.004Zm1.607-3.665a.402.402 0 0 0-.009-.07 1.536 1.536 0 0 1 .022-.415c.015-.077.044-.164.089-.261a.753.753 0 0 1 .176-.247.909.909 0 0 1 .3-.173c.127-.047.276-.07.447-.07h.247c.153-.006.31-.006.472 0 .162.006.324.013.486.022.162.009.32.034.472.075.154.041.3.091.438.15.138.06.265.143.38.252.114.109.215.234.3.375.085.142.151.316.199.521.047.207.07.44.07.698v.97c0 .242-.026.462-.08.659-.052.197-.118.358-.198.481-.08.124-.178.233-.296.327a1.485 1.485 0 0 1-.33.207c-.104.045-.223.08-.359.107-.135.026-.24.042-.313.048-.074.006-.16.01-.26.01h-1.22a.94.94 0 0 1-.079-.006 3.391 3.391 0 0 1-.199-.026 1.654 1.654 0 0 1-.278-.066 1.432 1.432 0 0 1-.296-.146 1.153 1.153 0 0 1-.278-.238 1.166 1.166 0 0 1-.194-.358 1.454 1.454 0 0 1-.08-.495c0-.323.042-.596.124-.817.083-.22.208-.391.376-.512.168-.12.355-.204.56-.252a3.44 3.44 0 0 1 .751-.07c.513 0 .862-.034 1.047-.102.186-.067.278-.172.278-.313 0-.2-.193-.336-.578-.406a4.457 4.457 0 0 0-1.228-.044c-.433.041-.753.103-.959.185Zm2.8 1.334c-.023.03-.057.065-.101.106a1.21 1.21 0 0 1-.296.163 1.167 1.167 0 0 1-.477.102c-.289 0-.523.035-.703.106-.18.07-.269.171-.269.3 0 .153.065.268.194.345.13.076.389.115.778.115.159 0 .28-.002.367-.005a.517.517 0 0 0 .238-.066.553.553 0 0 0 .154-.115.543.543 0 0 0 .075-.225c.02-.115.033-.226.036-.331.002-.107.004-.271.004-.495Z" clip-rule="evenodd"/></svg>