<svg width="116" height="22" viewBox="0 0 116 22" fill="none" xmlns="http://www.w3.org/2000/svg">
<g clip-path="url(#clip0_4132_8352)">
<path fill-rule="evenodd" clip-rule="evenodd" d="M0.817875 0.000976562H0.68725C0.41775 0.0628516 0.272 0.246414 0.25 0.551664V21.3733C0.303167 21.8509 0.552729 22.0237 0.998688 21.8917C5.14431 20.667 9.15061 19.482 13.0176 18.3366C13.6652 18.1446 14.7835 17.818 16.3726 17.3569C16.6609 17.273 16.808 17.0622 16.8139 16.7244C16.8295 15.8334 16.8309 14.9399 16.8181 14.0438C16.8146 13.7709 16.6833 13.5035 16.3987 13.4334C16.3121 13.4123 16.1833 13.4267 16.0123 13.4767C15.5494 13.6114 15.0977 13.7432 14.6573 13.872C12.2258 14.5838 9.81862 15.2942 7.43575 16.0032C6.83992 16.1806 6.22117 16.3665 5.5795 16.5608C5.40717 16.6135 5.21329 16.6415 4.99787 16.6447C4.82004 16.6474 4.65206 16.5929 4.49394 16.481C4.22948 16.2945 4.09748 16.0266 4.09794 15.6774C4.0984 15.1704 4.09817 14.5909 4.09725 13.9387C4.09679 13.7132 4.12865 13.5374 4.19281 13.4114C4.37981 13.0442 4.68369 12.8765 5.079 12.871C6.62587 12.8497 8.17069 12.8524 9.71275 12.8614C9.88646 12.8623 10.0116 12.8449 10.0881 12.8091C10.2593 12.7294 10.3542 12.554 10.3556 12.3609C10.3638 10.9895 10.3627 10.0602 10.3521 9.57304C10.3443 9.24166 10.1837 9.07598 9.87019 9.07598C8.35998 9.07598 6.82777 9.07552 5.27356 9.0746C4.63419 9.07391 4.10206 8.77829 4.09862 8.0626C4.09633 7.46081 4.09588 6.86498 4.09725 6.2751C4.09817 5.77598 4.3239 5.45629 4.77444 5.31604C5.02675 5.23698 5.4035 5.31948 5.67231 5.39991C9.18865 6.44583 12.6979 7.48189 16.2 8.5081C16.2852 8.53285 16.3776 8.51727 16.4771 8.46135C16.6978 8.33691 16.8208 8.13479 16.8208 7.88591C16.8194 6.97062 16.8201 6.08535 16.8229 5.2301C16.8248 4.69336 16.4741 4.59425 16.066 4.47889C16.0308 4.46895 15.9952 4.45889 15.9594 4.44841C12.9147 3.55741 9.87179 2.65816 6.83075 1.75066C6.03233 1.51233 5.24973 1.2795 4.48294 1.05216C3.26377 0.691456 2.04208 0.34106 0.817875 0.000976562ZM49.3025 0.000976562H49.1732C48.3157 0.241602 46.8696 0.662581 44.8351 1.26391C41.0997 2.36758 37.3645 3.47102 33.6295 4.57423C33.1744 4.70828 33.1768 5.05987 33.1795 5.44517L33.1797 5.48164L33.1799 5.53466C33.1807 6.89525 33.1795 8.2563 33.1783 9.61762C33.1762 11.9515 33.1742 14.2862 33.182 16.6206C33.1834 16.9946 33.2528 17.2469 33.6179 17.3542C37.8822 18.6072 42.3784 19.9348 47.1066 21.3368C47.8789 21.5656 48.5453 21.7544 49.1059 21.9033C49.379 21.9762 49.5777 21.8811 49.7019 21.618C49.7452 21.5252 49.7507 21.3843 49.7507 21.2798C49.7494 17.5719 49.7494 13.8649 49.7507 10.1588C49.7507 10.1093 49.7523 10.0559 49.7539 10.0002C49.7658 9.59639 49.7811 9.074 49.2282 9.0746C47.0631 9.07598 44.7888 9.07575 42.4055 9.07391C41.9139 9.07391 41.7922 9.28016 41.7812 9.75041C41.762 10.5676 41.7624 11.3954 41.7826 12.2337C41.7915 12.5994 41.9194 12.8538 42.3285 12.8552C43.0999 12.8575 43.9363 12.8584 44.8379 12.8579C45.4387 12.8579 45.8897 13.2189 45.898 13.8404C45.9062 14.4903 45.9076 15.1418 45.9021 15.7949C45.9007 15.9732 45.8334 16.1306 45.7 16.2672L45.661 16.3073C45.5105 16.4626 45.3571 16.6208 45.1287 16.6392C44.9036 16.6575 44.7084 16.6419 44.5429 16.5924C42.4346 15.9617 40.3036 15.3318 38.1499 14.7025C38.1191 14.6935 38.0882 14.6847 38.0573 14.6759C37.6781 14.5676 37.2936 14.4578 37.1207 14.0542C37.0547 13.9006 37.0226 13.6655 37.0244 13.3488C37.035 11.7313 37.0361 10.1038 37.0279 8.46616C37.0265 8.09904 37.0849 7.79104 37.3723 7.5401C37.491 7.43698 37.7044 7.34279 38.0124 7.25754C38.6955 7.06787 39.3849 6.8624 40.0765 6.65626L40.0766 6.65621C40.6509 6.48504 41.2267 6.3134 41.8019 6.14998C42.6191 5.9176 43.4363 5.67216 44.2535 5.41366C44.9004 5.20948 45.5109 5.17579 45.854 5.89354C45.8952 5.98008 45.8998 6.07054 45.9045 6.16238C45.9094 6.25878 45.9144 6.35669 45.9619 6.45316C46.076 6.68325 46.2628 6.79989 46.5222 6.8031C47.4247 6.81502 48.3285 6.81502 49.2337 6.8031C49.6091 6.79829 49.7487 6.5281 49.748 6.19604C49.7471 4.48737 49.75 2.63021 49.7569 0.624539C49.7574 0.518206 49.7429 0.424477 49.7136 0.343352C49.6462 0.154977 49.5092 0.0408516 49.3025 0.000976562ZM60.7528 0.000976562H69.8057L69.8229 2.3371C69.8231 2.35527 69.8197 2.3733 69.8129 2.39014C69.806 2.40698 69.7959 2.4223 69.7832 2.43522C69.7704 2.44813 69.7551 2.45838 69.7384 2.46538C69.7216 2.47238 69.7036 2.47598 69.6854 2.47598L63.6712 2.47666C63.6623 2.47666 63.6537 2.48029 63.6474 2.48673C63.641 2.49318 63.6375 2.50192 63.6375 2.51104L63.6382 4.09848C63.6382 4.15989 63.6689 4.1906 63.7303 4.1906L67.6346 4.19679C67.674 4.19679 67.6937 4.2165 67.6937 4.25591V6.61954C67.6937 6.65483 67.6761 6.67248 67.6408 6.67248L63.6712 6.67041C63.6483 6.67041 63.637 6.68187 63.6375 6.70479L63.6382 8.52529C63.6382 8.54316 63.6453 8.56029 63.6579 8.57293C63.6706 8.58557 63.6877 8.59266 63.7056 8.59266L69.7659 8.59473C69.7819 8.59473 69.7973 8.60117 69.8087 8.61265C69.82 8.62412 69.8264 8.63969 69.8264 8.65591L69.8243 10.9329C69.8243 10.9509 69.8208 10.9687 69.8139 10.9853C69.8069 11.0019 69.7968 11.0169 69.784 11.0297C69.7713 11.0424 69.7561 11.0524 69.7394 11.0593C69.7227 11.0662 69.7049 11.0697 69.6868 11.0697H60.8325C60.7775 11.0697 60.75 11.0422 60.75 10.9872L60.7528 0.000976562ZM74.3618 0.000976562H71.6146L71.6125 11.0182C71.6125 11.0318 71.618 11.045 71.6276 11.0546C71.6373 11.0643 71.6504 11.0697 71.6641 11.0697H74.3969C74.406 11.0697 74.4148 11.0661 74.4212 11.0597C74.4277 11.0532 74.4313 11.0445 74.4313 11.0354L74.4306 4.73166C74.4306 4.57766 74.4773 4.56185 74.5708 4.68423L79.4095 10.9975C79.4223 11.014 79.4388 11.025 79.459 11.0305C79.5855 11.0658 79.7216 11.083 79.8673 11.0821C80.658 11.0757 81.4374 11.0711 82.2055 11.0684C82.2404 11.0682 82.2738 11.0541 82.2984 11.0292C82.323 11.0044 82.3368 10.9707 82.3368 10.9357L82.3341 0.000976562H79.4548L79.448 6.30191C79.4475 6.43071 79.4081 6.444 79.3297 6.34179L74.52 0.0724766C74.5058 0.0541432 74.4874 0.0413099 74.465 0.0339766L74.3618 0.000976562ZM89.2819 0.000976562H92.1653L92.1687 11.0326C92.1687 11.0424 92.1648 11.0519 92.1579 11.0589C92.1509 11.0658 92.1414 11.0697 92.1316 11.0697H84.2453C84.2109 11.0697 84.1937 11.0525 84.1937 11.0182V6.65254C84.1937 6.63886 84.1992 6.62575 84.2088 6.61608C84.2185 6.60641 84.2316 6.60098 84.2453 6.60098H86.952C86.9919 6.60098 87.0118 6.62091 87.0118 6.66079L87.0145 8.41529C87.015 8.53491 87.0748 8.5945 87.194 8.59404L89.1444 8.59198C89.1752 8.59198 89.2048 8.57973 89.2266 8.55795C89.2484 8.53616 89.2606 8.5066 89.2606 8.47579L89.2819 0.000976562ZM104.815 0.000976562H94.08C94.0254 0.127935 94.0023 0.281935 94.0105 0.462977C94.0202 0.666935 94.025 0.771664 94.025 0.777164C94.024 4.19037 94.0236 7.59808 94.0236 11.0003C94.0236 11.0187 94.031 11.0364 94.0441 11.0494C94.0573 11.0624 94.0751 11.0697 94.0937 11.0697H104.782C104.791 11.0697 104.801 11.0658 104.808 11.0589C104.815 11.0519 104.819 11.0424 104.819 11.0326L104.815 0.000976562ZM101.911 2.49442C101.923 2.50667 101.93 2.52328 101.93 2.5406V8.52873C101.93 8.54605 101.923 8.56266 101.911 8.57491C101.898 8.58716 101.882 8.59404 101.865 8.59404H96.9778C96.9604 8.59404 96.9438 8.58716 96.9316 8.57491C96.9193 8.56266 96.9125 8.54605 96.9125 8.52873V2.5406C96.9125 2.52328 96.9193 2.50667 96.9316 2.49442C96.9438 2.48217 96.9604 2.47529 96.9778 2.47529H101.865C101.882 2.47529 101.898 2.48217 101.911 2.49442ZM106.641 0.000976562H109.414L109.426 4.09573C109.426 4.14028 109.444 4.18295 109.475 4.21439C109.507 4.24582 109.55 4.26348 109.594 4.26348H112.742C112.756 4.26348 112.769 4.25804 112.779 4.24837C112.788 4.2387 112.794 4.22559 112.794 4.21191L112.799 0.000976562H115.628L115.654 0.0236641C115.663 0.0309894 115.67 0.0401191 115.674 0.0504371C115.679 0.0607552 115.681 0.0720217 115.681 0.0834766V11.0498L115.681 11.0527L115.681 11.0548C115.68 11.0561 115.68 11.0573 115.679 11.0584C115.679 11.0596 115.678 11.0607 115.677 11.0618L115.675 11.0639C115.672 11.0676 115.667 11.0697 115.661 11.0697H106.658C106.644 11.0697 106.631 11.0643 106.622 11.0546C106.612 11.045 106.607 11.0318 106.607 11.0182L106.605 8.6621C106.605 8.64314 106.612 8.62495 106.626 8.61154C106.639 8.59813 106.657 8.5906 106.676 8.5906L112.719 8.59335C112.737 8.59335 112.755 8.58599 112.769 8.57285C112.782 8.55972 112.789 8.54189 112.79 8.52323L112.794 6.80791C112.794 6.78968 112.787 6.77219 112.774 6.7593C112.761 6.74641 112.744 6.73916 112.726 6.73916L106.656 6.73848C106.643 6.73848 106.63 6.73326 106.621 6.72398C106.611 6.71469 106.606 6.7021 106.606 6.68898C106.603 4.54993 106.602 2.41227 106.604 0.275977C106.604 0.134352 106.617 0.0426849 106.641 0.000976562ZM20.0507 3.43713H29.9507C30.2544 3.43713 30.5007 3.68338 30.5007 3.98713V17.9448C30.5007 18.2485 30.2544 18.4948 29.9507 18.4948H20.0507C19.7469 18.4948 19.5007 18.2485 19.5007 17.9448V3.98713C19.5007 3.68338 19.7469 3.43713 20.0507 3.43713ZM75.2074 21.2625C75.1986 21.2372 75.1821 21.2153 75.1601 21.1998C75.1382 21.1843 75.112 21.1759 75.085 21.1759H72.9724C72.9396 21.1759 72.9075 21.1858 72.8804 21.2041C72.8533 21.2225 72.8324 21.2486 72.8204 21.279L72.5929 21.8497C72.5826 21.876 72.5644 21.8985 72.5408 21.9144C72.5173 21.9302 72.4894 21.9386 72.4609 21.9383L71.0549 21.9294C71.0429 21.9293 71.031 21.9263 71.0204 21.9205C71.0098 21.9148 71.0008 21.9065 70.9942 21.8965C70.9875 21.8864 70.9834 21.8749 70.9823 21.8629C70.9811 21.8509 70.9829 21.8388 70.9875 21.8277L73.1896 16.4927C73.1988 16.4705 73.2144 16.4516 73.2345 16.4383C73.2546 16.4251 73.2782 16.4182 73.3024 16.4184L74.6512 16.4246C74.6982 16.4248 74.7442 16.4389 74.7832 16.4652C74.8222 16.4915 74.8526 16.5288 74.8706 16.5724L77.0492 21.8455C77.0535 21.8559 77.0545 21.8674 77.0522 21.8786C77.0499 21.8897 77.0443 21.9 77.0362 21.9081C77.0206 21.9237 77.0011 21.9317 76.9777 21.9322C76.4942 21.9386 76.0141 21.9358 75.5374 21.9239C75.5091 21.9231 75.4816 21.9138 75.4587 21.8973C75.4358 21.8807 75.4184 21.8577 75.4089 21.8311L75.2074 21.2625ZM73.4763 19.693C73.4268 19.8025 73.4011 19.9077 73.3993 20.0085C73.3992 20.0121 73.3994 20.0157 73.3999 20.0192C73.4007 20.0246 73.4021 20.0299 73.4041 20.035C73.406 20.0397 73.4083 20.0442 73.4112 20.0484L73.4137 20.0519C73.4153 20.0538 73.417 20.0557 73.4187 20.0575C73.4251 20.064 73.4326 20.0691 73.441 20.0727C73.4493 20.0762 73.4583 20.078 73.4674 20.078L74.5515 20.0787C74.6166 20.0787 74.6441 20.0463 74.634 19.9817C74.6235 19.9134 74.6054 19.8472 74.5797 19.783C74.4115 19.3618 74.244 18.9571 74.0772 18.5689C74.03 18.4589 73.9848 18.4598 73.9417 18.5717C73.7905 18.9677 73.6353 19.3414 73.4763 19.693ZM83.7125 19.1624C83.7125 19.0868 83.718 19.0105 83.729 18.9335C83.7363 18.8803 83.7535 18.8771 83.7805 18.9238L85.3061 21.559C85.3386 21.6154 85.3712 21.6154 85.4037 21.559C85.9088 20.6786 86.3894 19.8398 86.8454 19.0428C86.8637 19.0107 86.8857 18.9827 86.9114 18.9589C86.9792 18.8961 87.0132 18.911 87.0132 19.0036L87.0118 21.8629C87.0117 21.8663 87.012 21.8697 87.0124 21.8731C87.0132 21.8787 87.0147 21.8842 87.0168 21.8894C87.0202 21.8978 87.0253 21.9055 87.0317 21.912C87.0381 21.9184 87.0457 21.9235 87.0541 21.927C87.0624 21.9305 87.0714 21.9323 87.0805 21.9323H88.3531C88.3622 21.9323 88.3709 21.9287 88.3774 21.9223C88.3838 21.9158 88.3875 21.9071 88.3875 21.898V16.4825C88.3875 16.4702 88.3827 16.4585 88.3742 16.4497C88.3657 16.441 88.3542 16.436 88.3421 16.4358C87.958 16.428 87.5792 16.4232 87.2057 16.4213C87.0668 16.4209 86.9657 16.4759 86.9025 16.5863C86.4666 17.3449 86.055 18.0633 85.6677 18.7417C85.5719 18.9099 85.4732 19.0751 85.3714 19.2373C85.3685 19.2419 85.3644 19.2457 85.3596 19.2483C85.3579 19.2492 85.3561 19.25 85.3543 19.2506C85.351 19.2517 85.3475 19.2522 85.3441 19.2522C85.3387 19.2521 85.3334 19.2506 85.3288 19.2479C85.3263 19.2464 85.3241 19.2446 85.3221 19.2426C85.3204 19.2408 85.319 19.2388 85.3178 19.2367L83.7379 16.4901C83.7191 16.4576 83.6909 16.4401 83.6533 16.4378C83.2294 16.4131 82.7963 16.4147 82.354 16.4427C82.3363 16.4438 82.3196 16.4512 82.3071 16.4636C82.2946 16.476 82.287 16.4925 82.2859 16.51C82.2772 16.6352 82.2726 16.7543 82.2722 16.8675C82.2662 18.5052 82.2655 20.182 82.2701 21.898C82.2701 21.9071 82.2737 21.9158 82.2802 21.9223C82.2866 21.9287 82.2953 21.9323 82.3045 21.9323H83.6602C83.6672 21.9323 83.6742 21.931 83.6806 21.9282C83.6848 21.9265 83.6887 21.9243 83.6923 21.9215L83.6951 21.9192L83.6979 21.9166C83.6986 21.9159 83.6993 21.9151 83.7 21.9144C83.7007 21.9135 83.7014 21.9127 83.7021 21.9118L83.7051 21.9075C83.7067 21.9049 83.7082 21.9021 83.7093 21.8992C83.7102 21.897 83.711 21.8947 83.7115 21.8924C83.7127 21.8879 83.7132 21.8833 83.7132 21.8787C83.7113 20.9941 83.7111 20.0887 83.7125 19.1624ZM101.739 18.8721C101.683 18.8135 101.654 18.8249 101.654 18.9065L101.657 21.88C101.657 21.8938 101.651 21.9071 101.642 21.9169C101.632 21.9267 101.619 21.9322 101.605 21.9322H100.264C100.25 21.9322 100.237 21.9268 100.228 21.9171C100.218 21.9074 100.213 21.8943 100.213 21.8806V16.4927C100.213 16.4723 100.221 16.4527 100.235 16.4383C100.25 16.4238 100.269 16.4157 100.29 16.4157L101.548 16.4253C101.57 16.4256 101.592 16.4308 101.612 16.4407C101.632 16.4506 101.649 16.4648 101.663 16.4824L104.005 19.5342C104.09 19.6447 104.132 19.6305 104.131 19.4916L104.13 16.4838C104.13 16.4697 104.135 16.4563 104.145 16.4463C104.155 16.4364 104.169 16.4308 104.183 16.4308L105.438 16.4329C105.456 16.4329 105.474 16.4401 105.486 16.453C105.499 16.4659 105.506 16.4834 105.506 16.5016V21.8834C105.506 21.8978 105.501 21.9116 105.49 21.9218C105.48 21.932 105.466 21.9377 105.452 21.9377L104.18 21.9384C104.128 21.9384 104.087 21.918 104.055 21.8772C103.448 21.0889 102.835 20.2948 102.216 19.495C102.161 19.4238 102.108 19.3497 102.056 19.2756L102.056 19.2755L102.056 19.2754L102.056 19.2753C101.955 19.1341 101.855 18.9929 101.739 18.8721ZM62.1937 20.6434V17.7216C62.1937 17.6872 62.2109 17.67 62.2453 17.67H65.7021C65.7447 17.67 65.7662 17.6487 65.7667 17.6061C65.7704 17.2921 65.7694 16.9811 65.7639 16.6731C65.763 16.6012 65.7584 16.5521 65.7502 16.526C65.7309 16.4641 65.689 16.4332 65.6244 16.4332L60.8187 16.4318C60.8005 16.4318 60.783 16.4391 60.7701 16.4522C60.7572 16.4652 60.75 16.4828 60.75 16.5013V21.8638C60.75 21.882 60.7572 21.8995 60.7701 21.9124C60.783 21.9253 60.8005 21.9325 60.8187 21.9325H65.733C65.7423 21.9325 65.7512 21.9289 65.7578 21.9224C65.7644 21.916 65.7681 21.9073 65.7681 21.8981C65.7694 20.8742 65.7697 19.8359 65.7688 18.7831C65.7688 18.7052 65.7591 18.6286 65.7399 18.5534C65.7339 18.5296 65.7186 18.5159 65.6938 18.5122C65.6306 18.5026 65.5678 18.4975 65.5054 18.4971C64.8977 18.4916 64.3018 18.4916 63.7179 18.4971C63.6185 18.498 63.5687 18.5482 63.5687 18.6476V19.672C63.5687 19.6879 63.5751 19.7031 63.5863 19.7143C63.5975 19.7255 63.6127 19.7318 63.6286 19.7318L64.2755 19.7311C64.2901 19.7311 64.3041 19.7369 64.3144 19.7472C64.3247 19.7576 64.3305 19.7715 64.3305 19.7861L64.325 20.6434C64.3248 20.6572 64.3193 20.6703 64.3097 20.6799C64.3 20.6896 64.287 20.695 64.2734 20.695H62.2453C62.2316 20.695 62.2185 20.6896 62.2089 20.6799C62.1992 20.6702 62.1937 20.6571 62.1937 20.6434ZM94.9559 16.4318C94.9827 16.4318 95.0084 16.4425 95.0274 16.4614C95.0463 16.4804 95.057 16.5061 95.057 16.5329V21.8679C95.057 21.8852 95.0519 21.9018 95.0429 21.9141C95.0338 21.9263 95.0216 21.9332 95.0088 21.9332H93.6613C93.6486 21.9332 93.6363 21.9263 93.6273 21.9141C93.6183 21.9018 93.6132 21.8852 93.6132 21.8679V16.5329C93.6132 16.5061 93.6239 16.4804 93.6428 16.4614C93.6618 16.4425 93.6875 16.4318 93.7143 16.4318H94.9559ZM112.128 20.6695C112.126 20.6661 112.124 20.6624 112.123 20.6586C112.112 20.6269 112.107 20.596 112.107 20.5657C112.106 19.7563 112.106 18.8488 112.108 17.8432C112.108 17.7277 112.166 17.67 112.282 17.67H115.639C115.65 17.67 115.661 17.6655 115.669 17.6575C115.677 17.6495 115.681 17.6387 115.681 17.6274V16.5012C115.681 16.483 115.674 16.4655 115.661 16.4526C115.648 16.4397 115.631 16.4325 115.612 16.4325H110.817C110.715 16.4325 110.663 16.4841 110.663 16.5872L110.662 21.8809C110.662 21.8946 110.668 21.9077 110.678 21.9174C110.687 21.9271 110.7 21.9325 110.714 21.9325H115.63C115.664 21.9325 115.681 21.9153 115.681 21.8809V18.5637C115.681 18.5454 115.674 18.5279 115.661 18.5149C115.648 18.5019 115.631 18.4945 115.612 18.4943L113.687 18.4936C113.651 18.4936 113.615 18.5083 113.589 18.5343C113.563 18.5603 113.549 18.5957 113.549 18.6325L113.55 19.672C113.55 19.6879 113.556 19.7031 113.567 19.7143C113.579 19.7255 113.594 19.7318 113.61 19.7318L114.186 19.7304C114.2 19.7304 114.214 19.7361 114.224 19.7461C114.234 19.7562 114.24 19.7698 114.24 19.7841L114.237 20.6524C114.237 20.658 114.236 20.6635 114.234 20.6687C114.231 20.6739 114.228 20.6786 114.224 20.6825C114.22 20.6865 114.216 20.6896 114.21 20.6918C114.205 20.6939 114.2 20.695 114.194 20.695H112.174C112.162 20.695 112.151 20.6915 112.142 20.685C112.136 20.6808 112.132 20.6755 112.128 20.6695Z" fill="#919EAB"/>
</g>
<defs>
<clipPath id="clip0_4132_8352">
<rect width="115.5" height="22" fill="white" transform="translate(0.25 0.000976562)"/>
</clipPath>
</defs>
</svg>
