<svg xmlns="http://www.w3.org/2000/svg" width="116" height="22" fill="none"><g clip-path="url(#a)"><path fill="#00AB55" fill-rule="evenodd" d="M.818.001h-.13C.417.063.271.246.25.551v20.822c.053.478.303.65.749.519 4.145-1.225 8.152-2.41 12.019-3.555.647-.192 1.765-.519 3.355-.98.288-.084.435-.295.44-.633a84.32 84.32 0 0 0 .005-2.68c-.003-.273-.135-.54-.42-.61-.086-.022-.215-.007-.386.043l-1.355.395c-2.431.712-4.838 1.422-7.221 2.131-.596.178-1.215.363-1.856.558-.173.052-.367.08-.582.084a.834.834 0 0 1-.504-.164c-.265-.187-.397-.454-.396-.804V13.94c-.001-.226.03-.402.095-.528.187-.367.49-.534.886-.54 1.547-.021 3.092-.019 4.634-.01.173.001.299-.016.375-.052a.483.483 0 0 0 .268-.448c.008-1.372.007-2.3-.004-2.788-.008-.331-.168-.497-.482-.497l-4.596-.001c-.64-.001-1.172-.297-1.175-1.012a291.72 291.72 0 0 1-.002-1.788c.001-.499.227-.819.677-.959.253-.079.63.003.898.084C9.19 6.446 12.698 7.482 16.2 8.508c.085.025.178.01.277-.047a.639.639 0 0 0 .344-.575c-.002-.915 0-1.8.002-2.656.002-.537-.349-.636-.757-.751l-.107-.03c-3.044-.892-6.087-1.79-9.128-2.698-.799-.239-1.581-.471-2.348-.699C3.263.692 2.043.342.818.001Zm48.485 0h-.13c-.857.24-2.303.662-4.338 1.263L33.63 4.574c-.455.134-.452.486-.45.871v.09c.002 1.36 0 2.721 0 4.083-.003 2.333-.005 4.668.003 7.003.001.374.07.626.436.733 4.264 1.253 8.76 2.58 13.489 3.983.772.229 1.438.417 1.999.566.273.073.472-.022.596-.285.043-.093.049-.234.049-.338-.002-3.708-.002-7.415 0-11.121l.003-.159c.012-.404.027-.926-.526-.925-2.165.001-4.44 0-6.822-.001-.492 0-.614.206-.625.676-.019.818-.019 1.645.002 2.484.008.365.136.62.545.621.772.002 1.608.003 2.51.003.6 0 1.052.36 1.06.982.008.65.01 1.302.004 1.955a.664.664 0 0 1-.202.472l-.039.04c-.15.156-.304.314-.532.332-.225.018-.42.003-.586-.047a1042.26 1042.26 0 0 0-6.486-1.916c-.379-.108-.763-.218-.936-.622-.066-.153-.098-.389-.097-.705.011-1.618.012-3.245.004-4.883-.002-.367.057-.675.344-.926.119-.103.332-.197.64-.282.684-.19 1.373-.396 2.065-.602.574-.171 1.15-.343 1.725-.506a87.315 87.315 0 0 0 2.452-.736c.646-.205 1.257-.238 1.6.48.041.086.046.177.05.268.005.097.01.195.058.291.114.23.3.347.56.35.903.012 1.806.012 2.712 0 .375-.005.515-.275.514-.607 0-1.709.002-3.566.009-5.571 0-.107-.014-.2-.043-.282a.507.507 0 0 0-.411-.342Zm11.45 0h9.053l.017 2.336a.138.138 0 0 1-.138.139h-6.014a.033.033 0 0 0-.024.01.034.034 0 0 0-.01.025l.001 1.587c0 .062.03.093.092.093l3.905.006c.039 0 .059.02.059.059V6.62c0 .035-.018.052-.053.052l-3.97-.002c-.023 0-.034.012-.033.035v1.82a.067.067 0 0 0 .068.068l6.06.002a.06.06 0 0 1 .06.06l-.002 2.278a.136.136 0 0 1-.137.137h-8.854c-.055 0-.083-.028-.083-.083L60.753.001Zm13.609 0h-2.747l-.002 11.017a.052.052 0 0 0 .051.052h2.733a.034.034 0 0 0 .034-.035V4.732c0-.154.046-.17.14-.048l4.838 6.314c.013.016.03.027.05.033.126.035.263.052.408.051.791-.006 1.57-.01 2.338-.014a.132.132 0 0 0 .132-.132L82.334 0h-2.88l-.006 6.3c0 .13-.04.143-.118.04L74.52.073a.112.112 0 0 0-.055-.038l-.103-.033Zm14.92 0h2.883l.004 11.032c0 .01-.004.019-.011.026a.038.038 0 0 1-.026.01h-7.887c-.034 0-.051-.017-.051-.05V6.652a.052.052 0 0 1 .051-.052h2.707c.04 0 .06.02.06.06l.002 1.754c.001.12.06.18.18.179l1.95-.002a.116.116 0 0 0 .117-.116L89.28 0Zm15.533 0H94.08a1.045 1.045 0 0 0-.07.462l.015.314L94.024 11a.07.07 0 0 0 .07.07h10.688a.037.037 0 0 0 .037-.037L104.815 0Zm-2.904 2.493a.066.066 0 0 1 .019.047v5.988a.066.066 0 0 1-.019.046.067.067 0 0 1-.046.019h-4.887a.065.065 0 0 1-.066-.065V2.54a.065.065 0 0 1 .066-.066h4.887c.017 0 .033.007.046.02Zm4.73-2.493h2.773l.012 4.095a.17.17 0 0 0 .049.118.17.17 0 0 0 .119.05h3.148a.053.053 0 0 0 .037-.016.054.054 0 0 0 .015-.036L112.799 0h2.829l.026.023a.065.065 0 0 1 .02.026c.005.01.007.022.007.033V11.055l-.002.003-.002.004-.002.002a.018.018 0 0 1-.014.006h-9.003a.049.049 0 0 1-.036-.015.05.05 0 0 1-.015-.037l-.002-2.356a.07.07 0 0 1 .021-.05.07.07 0 0 1 .05-.021l6.043.002a.074.074 0 0 0 .05-.02.076.076 0 0 0 .021-.05l.004-1.715a.068.068 0 0 0-.068-.069h-6.07a.05.05 0 0 1-.035-.015.047.047 0 0 1-.015-.035c-.003-2.14-.004-4.277-.002-6.413 0-.142.013-.233.037-.275Zm-86.59 3.436h9.9a.55.55 0 0 1 .55.55v13.958a.55.55 0 0 1-.55.55h-9.9a.55.55 0 0 1-.55-.55V3.987a.55.55 0 0 1 .55-.55Zm55.156 17.825a.128.128 0 0 0-.122-.086h-2.113a.165.165 0 0 0-.152.103l-.227.57a.14.14 0 0 1-.132.09l-1.406-.01a.073.073 0 0 1-.073-.066.073.073 0 0 1 .005-.035l2.203-5.335a.12.12 0 0 1 .112-.075l1.35.007a.238.238 0 0 1 .219.147l2.178 5.274c.004.01.005.021.003.033a.059.059 0 0 1-.016.03.082.082 0 0 1-.058.023 37.71 37.71 0 0 1-1.44-.008.142.142 0 0 1-.13-.093l-.2-.569Zm-1.73-1.569a.8.8 0 0 0-.077.326.072.072 0 0 0 .011.03l.003.003a.07.07 0 0 0 .054.026h1.084c.065 0 .092-.032.082-.096a.901.901 0 0 0-.054-.199 50.798 50.798 0 0 0-.503-1.214c-.047-.11-.092-.11-.135.003-.151.396-.307.77-.466 1.121Zm10.236-.53c0-.076.005-.152.016-.23.007-.053.025-.056.052-.01l1.525 2.636c.033.056.065.056.098 0l1.441-2.516a.349.349 0 0 1 .066-.084c.068-.063.102-.048.102.045l-.001 2.859a.07.07 0 0 0 .005.026.07.07 0 0 0 .037.038.068.068 0 0 0 .026.005h1.273c.01 0 .018-.003.024-.01a.035.035 0 0 0 .01-.024v-5.415a.047.047 0 0 0-.013-.033.046.046 0 0 0-.032-.014 74.688 74.688 0 0 0-1.136-.015c-.14 0-.24.055-.303.165a892.28 892.28 0 0 0-1.235 2.156c-.096.168-.195.333-.297.495a.032.032 0 0 1-.042.01.03.03 0 0 1-.011-.011l-1.58-2.746a.1.1 0 0 0-.085-.052 10.7 10.7 0 0 0-1.299.005.073.073 0 0 0-.068.067 5.444 5.444 0 0 0-.014.357 793.232 793.232 0 0 0-.002 5.031.034.034 0 0 0 .035.034h1.355a.05.05 0 0 0 .032-.01l.003-.003.003-.002.002-.003.002-.002.003-.005a.05.05 0 0 0 .007-.015 742.765 742.765 0 0 1 .001-2.73Zm18.026-.29c-.056-.06-.085-.048-.085.034l.003 2.973a.056.056 0 0 1-.015.037.052.052 0 0 1-.037.015h-1.341a.049.049 0 0 1-.036-.015.05.05 0 0 1-.015-.036v-5.388c0-.02.008-.04.022-.055a.078.078 0 0 1 .055-.022l1.258.01a.15.15 0 0 1 .115.056l2.342 3.052c.085.11.127.097.126-.042l-.001-3.008c0-.014.005-.028.015-.038a.055.055 0 0 1 .038-.015l1.255.002a.068.068 0 0 1 .068.069v5.381a.051.051 0 0 1-.016.039.054.054 0 0 1-.038.016h-1.272a.15.15 0 0 1-.125-.06c-.607-.79-1.22-1.583-1.839-2.383a5.948 5.948 0 0 1-.16-.22c-.101-.14-.201-.282-.317-.403Zm-39.545 1.77v-2.921c0-.035.017-.052.051-.052h3.457c.043 0 .064-.021.065-.064a31.48 31.48 0 0 0-.003-.933.601.601 0 0 0-.014-.147c-.02-.062-.061-.093-.126-.093l-4.805-.001a.07.07 0 0 0-.069.07v5.362a.069.069 0 0 0 .069.069h4.914c.01 0 .018-.004.025-.01a.034.034 0 0 0 .01-.025c.001-1.024.002-2.062 0-3.115a.925.925 0 0 0-.028-.23.051.051 0 0 0-.046-.04 1.31 1.31 0 0 0-.189-.016 96.815 96.815 0 0 0-1.787 0c-.1.001-.15.051-.15.15v1.025a.06.06 0 0 0 .06.06h.647a.055.055 0 0 1 .055.054l-.005.857a.053.053 0 0 1-.015.037.051.051 0 0 1-.037.015h-2.028a.052.052 0 0 1-.052-.052Zm32.762-4.211a.101.101 0 0 1 .101.1v5.336a.08.08 0 0 1-.014.046.043.043 0 0 1-.034.02H93.66a.043.043 0 0 1-.034-.02.08.08 0 0 1-.014-.046v-5.335a.101.101 0 0 1 .101-.101h1.242Zm17.172 4.238a.281.281 0 0 1-.021-.104c-.001-.81-.001-1.717.001-2.723 0-.115.058-.173.174-.173h3.357a.042.042 0 0 0 .042-.043v-1.126a.068.068 0 0 0-.069-.069h-4.795c-.102 0-.154.052-.154.155l-.001 5.294c0 .014.006.027.016.036.009.01.022.015.036.015h4.916c.034 0 .051-.017.051-.051v-3.317a.07.07 0 0 0-.069-.07h-1.925a.138.138 0 0 0-.138.139l.001 1.039a.06.06 0 0 0 .017.042.063.063 0 0 0 .043.018l.576-.002a.054.054 0 0 1 .054.054l-.003.868a.045.045 0 0 1-.003.017.062.062 0 0 1-.01.014.037.037 0 0 1-.014.009.04.04 0 0 1-.016.003h-2.02a.054.054 0 0 1-.032-.01.055.055 0 0 1-.014-.015Z" clip-rule="evenodd"/></g><defs><clipPath id="a"><path fill="#fff" d="M.25.001h115.5v22H.25z"/></clipPath></defs></svg>