<svg width="124" height="28" viewBox="0 0 124 28" fill="none" xmlns="http://www.w3.org/2000/svg">
<g clip-path="url(#clip0_4132_7622)">
<path fill-rule="evenodd" clip-rule="evenodd" d="M47.3961 3.89914C46.331 7.97286 43.2729 12.074 40.2369 14.9399C40.2222 14.9509 40.2204 14.9619 40.2314 14.9729L40.3412 15.0772C40.3888 15.1284 40.44 15.1321 40.4949 15.0882C43.6865 12.6688 46.1718 9.64371 47.9506 6.01286C48.7192 4.44815 49.658 2.296 48.1537 0.852079C47.138 -0.125176 45.4745 0.0285475 44.4314 0.863057C44.0654 1.15221 43.6701 1.36632 43.2455 1.50541C43.1211 1.54933 43.0881 1.62986 43.1467 1.74698L43.2126 1.87874C43.2235 1.9007 43.24 1.90619 43.262 1.89521C44.7992 1.20345 46.0748 1.24005 47.0886 2.00502C47.2241 2.1075 47.3156 2.2411 47.3631 2.4058C47.5132 2.9109 47.5242 3.40868 47.3961 3.89914ZM14.1715 22.7324C14.1516 22.747 14.1281 22.7557 14.1035 22.7576C12.6468 22.8454 11.3657 22.5489 10.2604 21.8681C10.1964 21.8281 10.1427 21.7735 10.1036 21.709C10.0645 21.6444 10.0411 21.5716 10.0352 21.4963C10.0293 21.421 10.0412 21.3454 10.0698 21.2756C10.0984 21.2057 10.143 21.1435 10.2 21.094C10.3574 20.9586 10.4781 20.7994 10.5623 20.6164C10.6612 20.4078 10.6081 20.3547 10.4031 20.4572C9.64547 20.8378 9.09279 21.2972 8.74508 21.8352C8.69864 21.9066 8.66755 21.9869 8.65374 22.0711C8.63993 22.1553 8.6437 22.2415 8.66482 22.3245C8.68594 22.4074 8.72395 22.4852 8.77649 22.5531C8.82902 22.621 8.89495 22.6775 8.97017 22.7191C9.96573 23.2608 11.0235 23.6104 12.1435 23.7677C18.3145 24.6389 24.2768 24.6517 30.0306 23.8062C32.2083 23.4878 34.28 22.8911 36.2455 22.0164C37.3215 21.5387 37.6784 19.1944 37.7882 18.1513C37.8175 17.8694 37.7663 17.853 37.6345 18.1019C37.3527 18.6436 37.0983 19.2054 36.8714 19.7874C36.5895 20.5157 36.2747 20.9476 35.927 21.083C29.7121 23.4932 21.5043 24.3607 15.4541 20.8854C10.6282 18.1128 7.99841 11.5905 8.32782 6.05089C8.42116 4.46971 9.65645 3.11363 11.2376 3.06422C12.2295 3.03494 13.2361 3.23625 14.2572 3.66814C18.2761 5.36461 22.5968 6.86893 27.0549 7.23128C31.3317 7.58265 36.0753 6.21559 39.88 3.78893C40.0593 3.67546 40.1819 3.71938 40.2478 3.92069C40.7639 5.53115 40.892 6.91102 40.6321 8.0603C40.354 9.2901 39.8598 10.7176 39.1498 12.3427C39.1205 12.4085 39.1388 12.4598 39.2047 12.4964L39.3584 12.5787C39.4463 12.6263 39.5158 12.6044 39.567 12.5128C40.8517 10.174 41.4374 7.82971 41.3239 5.47991C41.2727 4.42945 40.9963 3.38631 40.4949 2.35049C40.3741 2.10893 40.2057 2.06866 39.9898 2.22971C34.7192 6.17533 28.8337 7.0135 22.3333 4.74422C21.2661 4.37076 20.1939 3.92925 19.1142 3.48463C16.4004 2.36709 13.6389 1.22991 10.7874 1.10422C7.30665 0.955987 6.70821 3.95363 6.87292 6.7701C7.22429 12.716 10.0188 18.0689 14.1913 22.5379C14.2078 22.5562 14.2189 22.5788 14.2232 22.603C14.2275 22.6273 14.225 22.6522 14.2158 22.6751C14.2067 22.698 14.1913 22.7178 14.1715 22.7324ZM56.8337 10.5695C58.5174 10.7562 59.6502 10.1943 60.2322 8.88402C60.3054 8.71199 60.4353 8.62964 60.622 8.63696L61.149 8.64794C61.3028 8.65526 61.3485 8.72846 61.2863 8.86755C60.6348 10.3499 59.9943 11.8505 59.3647 13.3695C59.2366 13.6696 59.0207 13.8106 58.7169 13.7923C58.5009 13.7813 58.4094 13.6678 58.4424 13.4519L58.5741 12.5515C58.662 11.9585 58.4058 11.6621 57.8055 11.6621L56.422 11.6566C56.1401 11.6566 55.9425 11.7847 55.829 12.0409L53.6549 17.015C53.6444 17.0395 53.6393 17.0661 53.6402 17.0927C53.6411 17.1192 53.6479 17.1452 53.6601 17.1684C53.6723 17.1917 53.6895 17.2118 53.7105 17.227C53.7315 17.2423 53.7556 17.2524 53.7812 17.2566C57.0826 17.8239 59.5075 16.9162 61.0557 14.5334C61.2021 14.3065 61.4052 14.2278 61.6651 14.2973L61.8079 14.3303C61.8447 14.3399 61.8788 14.3578 61.9078 14.3825C61.9367 14.4072 61.9597 14.4381 61.975 14.473C61.9903 14.5078 61.9976 14.5457 61.9962 14.5837C61.9948 14.6218 61.9849 14.659 61.9671 14.6926L60.1773 18.135C60.0931 18.2997 59.9577 18.3821 59.771 18.3821H49.4879C49.4442 18.3826 49.4018 18.3673 49.3685 18.339C49.3353 18.3108 49.3133 18.2715 49.3067 18.2283L49.2792 18.0636C49.2721 18.0184 49.275 17.9721 49.2877 17.9281C49.3005 17.884 49.3227 17.8431 49.3529 17.8082C49.3831 17.7733 49.4206 17.7451 49.4629 17.7257C49.5051 17.7064 49.5511 17.6961 49.5977 17.6958C50.5639 17.6885 51.2319 17.2694 51.6016 16.4385C53.2047 12.8479 54.7164 9.37996 56.1365 6.0346C56.1707 5.95453 56.1862 5.86771 56.1818 5.78065C56.1773 5.6936 56.153 5.60858 56.1108 5.53197C56.0685 5.45537 56.0093 5.38916 55.9377 5.33834C55.8661 5.28752 55.7839 5.25339 55.6973 5.23852L55.0494 5.13421C54.6798 5.07199 54.6303 4.91094 54.9012 4.65107C54.9561 4.59617 55.0147 4.54859 55.0769 4.50833C55.205 4.42049 55.3459 4.37656 55.4996 4.37656C58.5302 4.36924 61.6212 4.36924 64.7726 4.37656C64.8327 4.37671 64.8918 4.39157 64.9448 4.41986C64.9979 4.44815 65.0431 4.489 65.0767 4.53883C65.1103 4.58867 65.1312 4.64598 65.1375 4.70574C65.1438 4.7655 65.1354 4.82591 65.113 4.88166C64.7543 5.80401 64.3736 6.71173 63.971 7.6048C63.8282 7.92323 63.5739 8.05316 63.2079 7.9946C63.0029 7.96166 62.9151 7.84271 62.9443 7.63774L63.0486 6.91852C63.0719 6.75436 63.0602 6.58715 63.0145 6.42779C62.9688 6.26842 62.89 6.12046 62.7834 5.99356C62.6767 5.86666 62.5444 5.76366 62.3953 5.69128C62.2461 5.61889 62.0834 5.57873 61.9177 5.57343L59.1231 5.4746C58.8413 5.46362 58.6437 5.58624 58.5302 5.84245L56.6196 10.1852C56.5171 10.4121 56.5885 10.5402 56.8337 10.5695ZM105.043 8.85094L104.593 9.098C104.403 9.20414 104.214 9.20231 104.027 9.09251C102.743 8.36048 101.5 8.53251 100.3 9.60859C99.3663 10.4486 99.3333 12.0298 99.9867 13.1004C100.072 13.2407 100.179 13.4029 100.296 13.5809L100.296 13.581L100.297 13.5818L100.297 13.582C101.112 14.8179 102.428 16.8126 100.366 17.5035C99.7213 17.7194 99.1686 17.595 98.7075 17.1302C98.3149 16.7376 98.334 16.245 98.3532 15.7467L98.3532 15.7463C98.3574 15.6384 98.3616 15.5302 98.3616 15.4227C98.3616 15.1592 98.2426 14.9725 98.0047 14.8627C97.9096 14.8188 97.8162 14.806 97.7247 14.8243C97.5454 14.8645 97.4264 14.9725 97.3679 15.1482L96.4235 18.0031C96.3503 18.2154 96.4254 18.3362 96.6486 18.3654C96.8975 18.3984 97.1208 18.3325 97.3184 18.1678C97.6515 17.8933 98.012 17.8604 98.4 18.069C99.4871 18.6619 100.98 18.4423 101.952 17.7945C104.412 16.1364 103.671 13.9568 102.117 12.0353C101.447 11.2007 101.337 9.94898 102.523 9.50976C102.608 9.47859 102.698 9.46541 102.788 9.47109C102.878 9.47676 102.965 9.50115 103.045 9.5427C103.828 9.95996 104.139 10.7414 103.978 11.887C103.971 11.9284 103.976 11.971 103.992 12.0096C104.009 12.0482 104.036 12.0814 104.071 12.1051C104.105 12.1288 104.146 12.142 104.188 12.1433C104.23 12.1445 104.271 12.1337 104.307 12.1121L104.527 11.9913C104.736 11.8705 104.878 11.6967 104.955 11.4698L105.658 9.35604C105.885 8.66428 105.68 8.49591 105.043 8.85094ZM112.142 12.0354C112.01 12.0098 111.908 11.9073 111.835 11.7279C111.802 11.6562 111.793 11.5794 111.807 11.5083C111.957 10.7067 111.78 10.0973 111.275 9.68008C110.832 9.31406 110.424 9.35067 110.05 9.78988L109.891 9.98204C109.481 10.4652 109.452 10.9703 109.803 11.4973C109.882 11.615 109.967 11.7389 110.056 11.8681C110.968 13.1976 112.266 15.0906 111.17 16.5867C109.842 18.4022 108.13 18.8579 106.037 17.9538C105.839 17.8696 105.662 17.9026 105.504 18.0526C105.263 18.2759 104.979 18.3747 104.653 18.3491C104.401 18.3308 104.313 18.2009 104.39 17.9593L105.307 15.1703C105.335 15.0807 105.388 15.001 105.459 14.9404C105.531 14.8798 105.618 14.8406 105.712 14.8275C105.805 14.8143 105.9 14.8276 105.987 14.8659C106.074 14.9042 106.148 14.9659 106.202 15.044C106.341 15.2453 106.379 15.4686 106.317 15.7138C106.258 15.9444 106.26 16.1805 106.322 16.422C106.899 18.6675 110.435 17.3993 109.276 15.2581C109.102 14.9375 108.89 14.6105 108.674 14.2766C108.12 13.4214 107.538 12.5219 107.486 11.5742C107.398 9.78439 109.205 8.604 110.813 8.66988C111.04 8.68086 111.249 8.74492 111.439 8.86204C111.783 9.07799 112.142 9.16034 112.515 9.1091C112.691 9.08348 112.847 9.01394 112.982 8.90047C113.103 8.79433 113.245 8.73577 113.41 8.72478C113.703 8.70282 113.809 8.83276 113.729 9.11459C113.469 10.0113 113.161 10.8751 112.806 11.706C112.682 11.9878 112.46 12.0976 112.142 12.0354ZM123.303 12.6333C123.611 11.3657 123.398 10.2477 122.71 9.52542C122.37 9.16776 121.923 8.918 121.395 8.7904C120.868 8.6628 120.27 8.65985 119.635 8.78174C119.001 8.90362 118.342 9.14793 117.698 9.50074C117.053 9.85355 116.435 10.3079 115.879 10.838C114.755 11.9084 113.95 13.2219 113.641 14.4895C113.333 15.7572 113.546 16.8751 114.234 17.5974C114.574 17.9551 115.021 18.2048 115.549 18.3324C116.077 18.4601 116.675 18.463 117.309 18.3411C117.943 18.2192 118.602 17.9749 119.246 17.6221C119.891 17.2693 120.509 16.8149 121.066 16.2849C122.19 15.2145 122.994 13.901 123.303 12.6333ZM116.993 17.587C116.675 17.6682 116.398 17.6445 116.177 17.5173C115.732 17.2603 115.546 16.597 115.659 15.6734C115.773 14.7498 116.177 13.6416 116.783 12.5924C117.083 12.0729 117.423 11.5836 117.785 11.1523C118.146 10.7211 118.521 10.3563 118.889 10.079C119.257 9.80164 119.611 9.61708 119.929 9.53585C120.247 9.45462 120.525 9.47831 120.745 9.60557C121.19 9.86257 121.376 10.5258 121.263 11.4494C121.149 12.373 120.745 13.4813 120.14 14.5304C119.84 15.0499 119.499 15.5393 119.138 15.9705C118.776 16.4018 118.401 16.7665 118.033 17.0439C117.665 17.3212 117.312 17.5058 116.993 17.587ZM70.1749 9.33428C70.4494 9.16226 70.7606 9.06526 71.1083 9.0433C71.3755 9.025 71.4651 9.14213 71.3773 9.39468L70.4714 11.9531C70.4055 12.1434 70.2738 12.2423 70.0761 12.2496L69.8345 12.2606C69.6186 12.2715 69.5106 12.1691 69.5106 11.9531C69.5143 11.6713 69.5216 11.3913 69.5326 11.1131C69.5655 10.2566 68.9122 9.52095 68.0063 9.83389C67.8281 9.89547 67.6665 9.99737 67.5342 10.1317C67.4018 10.2659 67.3023 10.429 67.2433 10.608C67.1843 10.7871 67.1675 10.9774 67.1941 11.164C67.2208 11.3507 67.2902 11.5287 67.3969 11.6841C67.4643 11.7815 67.5352 11.8825 67.6083 11.9867C68.5779 13.3677 69.9402 15.3081 68.72 16.9162C67.428 18.6145 65.7663 19.0464 63.7349 18.2119C63.5666 18.1424 63.4019 18.1497 63.2408 18.2339C62.9663 18.3803 62.6698 18.4663 62.3514 18.4919C62.0842 18.5102 61.9927 18.3949 62.0769 18.146L62.9938 15.4174C63.067 15.1978 63.2189 15.0898 63.4494 15.0935C63.5226 15.0972 63.594 15.1081 63.6636 15.1264C63.8539 15.1777 63.9454 15.3021 63.9381 15.4998C63.9351 15.5715 63.9312 15.6434 63.9274 15.7152L63.9274 15.7158C63.8955 16.3084 63.864 16.8947 64.3389 17.35C65.0709 18.0454 65.7993 18.0747 66.524 17.4378C67.6433 16.4574 66.9415 15.3757 66.181 14.2033C65.3486 12.9202 64.4459 11.5286 65.7828 10.0425C66.8772 8.82735 68.1875 8.5986 69.7138 9.35624C69.8748 9.43677 70.0285 9.42945 70.1749 9.33428ZM77.3231 9.58137C77.012 9.78268 76.7101 9.98948 76.4172 10.2018C76.1464 10.3994 76.0988 10.3555 76.2745 10.07C76.4465 9.78817 76.5142 9.50451 76.4776 9.21902C76.452 9.02137 76.3404 8.93719 76.1427 8.96647C75.1435 9.1202 74.1077 9.27758 73.0353 9.43863C72.8523 9.46425 72.7242 9.55941 72.651 9.72412C72.5448 9.94739 72.6144 10.0737 72.8596 10.1029L73.6337 10.1963C73.6851 10.2025 73.7343 10.2205 73.7775 10.2489C73.8207 10.2773 73.8568 10.3153 73.8828 10.36C73.9089 10.4047 73.9243 10.4548 73.9277 10.5064C73.9312 10.558 73.9226 10.6097 73.9027 10.6575C72.4387 14.0138 70.9033 17.5239 69.2965 21.1876C68.9945 21.8794 68.1216 22.0935 67.4353 22.2033C67.3877 22.2107 67.3548 22.2363 67.3365 22.2802L67.2816 22.4175C67.2637 22.4614 67.257 22.5091 67.2622 22.5564C67.2674 22.6036 67.2843 22.649 67.3114 22.6885C67.3384 22.728 67.3749 22.7605 67.4175 22.7831C67.4602 22.8057 67.5077 22.8178 67.5561 22.8182L72.2227 22.8237C72.2841 22.8239 72.3445 22.8077 72.3975 22.7768C72.4506 22.7459 72.4945 22.7015 72.5247 22.648C72.6199 22.487 72.6272 22.3388 72.5467 22.2033C72.4369 22.024 72.2795 21.9581 72.0745 22.0057C71.7671 22.0752 71.5145 22.0002 71.3169 21.7806C71.2695 21.7283 71.2386 21.663 71.2279 21.5928C71.2172 21.5226 71.2271 21.4505 71.2565 21.3853L72.4423 18.6457C72.5448 18.4078 72.7224 18.3218 72.9749 18.3876C73.1025 18.4201 73.221 18.4547 73.3352 18.488C73.7417 18.6067 74.0917 18.7088 74.589 18.6402C75.8664 18.4572 77.001 17.9466 77.9929 17.1084C79.7059 15.659 82.0667 12.5571 81.3255 10.2951C80.749 8.54922 78.6243 8.73588 77.3231 9.58137ZM79.2722 11.4865C79.1038 12.3612 78.8128 13.2177 78.3992 14.0559C77.6251 15.6261 75.2533 18.9422 73.3098 17.4927C73.1451 17.3683 73.0993 17.2109 73.1725 17.0206C74.1443 14.5006 75.2643 11.7116 77.7184 10.3555C77.895 10.2575 78.0959 10.2121 78.2974 10.2245C78.499 10.2368 78.6928 10.3066 78.856 10.4254C79.0193 10.5442 79.1452 10.7072 79.2189 10.8952C79.2926 11.0832 79.3111 11.2883 79.2722 11.4865ZM86.307 11.3268L86.3079 11.3258C87.2007 10.3705 88.1459 9.35909 89.3632 8.96643C89.4967 8.92383 89.6388 8.91446 89.7767 8.93915C89.9147 8.96384 90.0444 9.02183 90.1544 9.10803C90.2645 9.19423 90.3515 9.30599 90.4079 9.43351C90.4642 9.56102 90.4882 9.70039 90.4777 9.83937C90.4191 10.6043 90.0586 11.1936 89.3961 11.6072C88.8471 11.9513 88.4591 11.814 88.2322 11.1954C88.1334 10.9246 87.9796 10.888 87.771 11.0856C85.6115 13.117 84.067 15.3936 83.1373 17.9154C83.0238 18.2229 82.8042 18.3766 82.4785 18.3766L81.331 18.3876C81.0089 18.3876 80.9119 18.2412 81.04 17.9484L84.2683 10.6025C84.2895 10.5555 84.2978 10.5038 84.2925 10.4525C84.2872 10.4012 84.2683 10.3521 84.2379 10.3099C84.2074 10.2678 84.1663 10.2342 84.1187 10.2123C84.0711 10.1904 84.0185 10.1811 83.9663 10.1853C83.593 10.2182 83.3404 10.2054 83.2087 10.1468C82.6047 9.87963 82.623 9.66185 83.2635 9.49348C84.3616 9.20799 85.4541 9.05427 86.5412 9.03231C86.5932 9.03093 86.6446 9.04351 86.6901 9.06875C86.7356 9.09398 86.7734 9.13095 86.7998 9.17579C86.8261 9.22063 86.84 9.27172 86.8399 9.32373C86.8398 9.37574 86.8258 9.42678 86.7992 9.47152C86.3966 10.156 86.0636 10.8459 85.8 11.5413C85.6646 11.9 85.7287 11.9403 85.9922 11.6621C86.0966 11.5519 86.2015 11.4397 86.307 11.3268ZM92.2619 17.2622C91.1968 17.1359 90.7302 15.8457 91.0376 14.9563C91.0927 14.7924 91.1951 14.6487 91.3319 14.5431C91.4687 14.4375 91.6338 14.375 91.8062 14.3633C93.9529 14.2151 97.5545 13.0567 98.098 10.6574C98.1741 10.3274 98.1202 9.98065 97.9474 9.68929C97.7747 9.39792 97.4963 9.18428 97.1702 9.09274C94.1396 8.23627 91.0651 10.7014 89.5772 13.1884C88.3529 15.2308 88.0564 18.5908 91.389 18.5633C93.2886 18.5487 94.9777 17.7398 96.4564 16.1367C96.4973 16.0944 96.5196 16.0374 96.5186 15.9779C96.5176 15.9184 96.4933 15.8611 96.451 15.8182L96.2423 15.6096C96.2021 15.5693 96.16 15.5657 96.1161 15.5986C95.2376 16.2501 94.4196 16.7424 93.6619 17.0755C93.2447 17.2621 92.778 17.3244 92.2619 17.2622ZM91.8117 13.6331C91.464 13.699 91.3744 13.5764 91.5427 13.2653C92.5602 11.395 93.6144 10.3061 94.7051 9.99862C96.3009 9.55208 96.6468 10.0444 95.7427 11.4755C95.0729 12.5406 93.7626 13.2598 91.8117 13.6331ZM2.43683 21.7146C2.09278 22.3478 2.22637 22.8566 2.83761 23.2409C5.70349 25.0581 10.1341 25.5907 13.3898 25.9256C22.1814 26.8186 30.5338 26.4984 38.447 24.9648C40.9066 24.4871 47.3247 22.9664 48.2306 20.2103C48.2928 20.0126 48.269 19.8278 48.1592 19.6558C47.6023 18.7931 46.3586 18.0936 45.3208 17.5099C45.1104 17.3915 44.9084 17.2779 44.7223 17.1687C44.3783 16.9674 44.4002 16.9143 44.7882 17.0095C46.1022 17.3316 47.3649 17.8751 48.5764 18.6401C49.4732 19.2074 49.8227 19.9284 49.6251 20.8032C49.0815 23.2134 42.6141 25.0032 40.5113 25.4699C32.3858 27.2853 24.0023 27.9771 15.3607 27.5452C11.6567 27.3585 8.18323 26.8424 4.94036 25.9969C3.8899 25.7224 2.85957 25.2997 1.84938 24.7287C0.399965 23.9162 0.098005 22.1977 1.39918 21.1271C2.20807 20.4683 3.08284 19.9248 4.02349 19.4966C5.21304 18.9622 5.27526 19.072 4.21016 19.826C3.40493 20.3933 2.81382 21.0228 2.43683 21.7146ZM80.2329 20.441C78.6298 20.0786 77.6141 22.0002 79.1459 23.0323C79.4314 23.2263 79.4076 23.3727 79.0745 23.4716C78.9976 23.4972 78.9116 23.5027 78.8165 23.488C78.5237 23.4441 78.445 23.5539 78.5804 23.8174C78.6646 23.9858 78.8 24.1048 78.9867 24.1743C80.0408 24.5733 80.8606 24.447 81.4463 23.7955C81.5631 23.6644 81.6276 23.4943 81.6274 23.3178L81.6384 20.8747C81.6384 20.6514 81.5286 20.5434 81.309 20.5508C80.954 20.5618 80.5953 20.5252 80.2329 20.441ZM80.586 21.4C80.7237 21.5199 80.8001 21.6813 80.7984 21.8487C80.7966 22.0161 80.7169 22.1759 80.5766 22.2928C80.4364 22.4098 80.2472 22.4743 80.0507 22.4723C79.8541 22.4702 79.6663 22.4017 79.5285 22.2819C79.3908 22.1621 79.3144 22.0007 79.3161 21.8332C79.3179 21.6658 79.3976 21.506 79.5379 21.3891C79.6781 21.2721 79.8673 21.2076 80.0638 21.2096C80.2604 21.2117 80.4482 21.2802 80.586 21.4ZM91.1035 22.8074C91.1028 22.8751 91.0888 22.9421 91.0622 23.0044C91.0356 23.0668 90.9969 23.1233 90.9485 23.1707C90.9001 23.2181 90.8428 23.2555 90.7799 23.2808C90.717 23.306 90.6497 23.3187 90.582 23.3179L89.1875 23.3124C88.8089 23.3095 88.447 23.1609 88.1814 22.8994C87.9158 22.6379 87.7681 22.2848 87.771 21.9179V21.8191C87.7724 21.6374 87.8107 21.4578 87.8838 21.2904C87.9568 21.1231 88.0632 20.9714 88.1967 20.8439C88.3303 20.7165 88.4885 20.6158 88.6623 20.5476C88.836 20.4794 89.0219 20.4451 89.2094 20.4466L90.6039 20.4521C90.6717 20.4528 90.7387 20.4668 90.801 20.4934C90.8633 20.52 90.9198 20.5587 90.9673 20.6071C91.0147 20.6555 91.0521 20.7128 91.0773 20.7757C91.1026 20.8386 91.1152 20.9059 91.1145 20.9736L91.1035 22.8074ZM90.1428 21.8685C90.1428 21.6836 90.0693 21.5063 89.9385 21.3755C89.8078 21.2447 89.6304 21.1713 89.4455 21.1713C89.2606 21.1713 89.0832 21.2447 88.9525 21.3755C88.8217 21.5063 88.7482 21.6836 88.7482 21.8685C88.7482 22.0535 88.8217 22.2308 88.9525 22.3616C89.0832 22.4923 89.2606 22.5658 89.4455 22.5658C89.6304 22.5658 89.8078 22.4923 89.9385 22.3616C90.0693 22.2308 90.1428 22.0535 90.1428 21.8685ZM111.011 23.1584C111.285 23.0193 111.324 22.8271 111.126 22.5819C110.951 22.366 111.002 22.2781 111.28 22.3184C111.536 22.3513 111.626 22.0439 111.549 21.396C111.521 21.1706 111.407 20.9642 111.231 20.8196C110.391 20.1278 109.199 20.1827 108.617 21.1325C107.634 22.7356 109.633 23.8556 111.011 23.1584ZM109.874 21.7913C109.955 21.8096 110.006 21.8444 110.028 21.8956C110.072 22.0018 110.142 22.0713 110.237 22.1043C110.292 22.1226 110.35 22.1372 110.413 22.1482C110.607 22.1811 110.616 22.2415 110.44 22.3294L110.017 22.549C109.827 22.6478 109.706 22.5929 109.655 22.3843C109.622 22.2488 109.613 22.1098 109.627 21.967C109.642 21.8096 109.724 21.7511 109.874 21.7913ZM98.9984 21.2148C98.5153 21.5295 98.3689 22.0694 98.5592 22.8344C98.6287 23.1089 98.5208 23.2535 98.2353 23.2681L98.0431 23.2736C97.8016 23.2846 97.6808 23.1693 97.6808 22.9277V20.8854C97.6808 20.7097 97.7686 20.6127 97.9443 20.5944L99.3223 20.4461C99.5053 20.4278 99.6829 20.4553 99.8549 20.5285C100.272 20.7152 100.693 20.6932 101.118 20.4626C101.25 20.3913 101.397 20.355 101.547 20.3571C101.697 20.3591 101.844 20.3995 101.974 20.4743C102.104 20.5492 102.212 20.656 102.289 20.7846C102.366 20.9133 102.409 21.0595 102.413 21.2093L102.463 23.0101C102.47 23.2443 102.358 23.3358 102.128 23.2846L101.678 23.1858C101.645 23.1784 101.615 23.1643 101.588 23.1442C101.561 23.1242 101.539 23.0986 101.522 23.0692C101.506 23.0398 101.495 23.0072 101.492 22.9734C101.488 22.9396 101.492 22.9054 101.502 22.8728C101.667 22.3421 101.645 21.848 101.436 21.3905C101.395 21.2956 101.322 21.2177 101.23 21.1696C101.138 21.1215 101.033 21.1061 100.931 21.126C100.83 21.1458 100.738 21.1996 100.671 21.2787C100.604 21.3577 100.566 21.4571 100.563 21.5607L100.514 22.9497C100.511 23.0333 100.477 23.1127 100.417 23.1718C100.358 23.2309 100.279 23.2654 100.195 23.2681L100.014 23.2736C99.7689 23.2809 99.6463 23.162 99.6463 22.9167L99.6298 21.5497C99.6292 21.4764 99.6088 21.4047 99.5708 21.3421C99.5328 21.2795 99.4786 21.2284 99.4139 21.1941C99.3492 21.1598 99.2765 21.1436 99.2033 21.1472C99.1302 21.1509 99.0594 21.1742 98.9984 21.2148ZM118.275 21.7968C118.571 21.8627 118.752 22.0219 118.818 22.2745C118.869 22.4721 118.796 22.5417 118.598 22.4831C118.555 22.4721 118.509 22.4612 118.461 22.4502C118.34 22.4282 118.227 22.4484 118.121 22.5106C117.989 22.5838 117.909 22.6954 117.879 22.8455C117.839 23.0468 117.916 23.1767 118.11 23.2353C118.845 23.4585 119.387 23.3945 119.735 23.0431C120.196 22.5746 120.121 22.1464 119.51 21.7584C119.118 21.5095 119.147 21.332 119.598 21.2259C119.847 21.1673 119.911 20.9898 119.79 20.6933C119.751 20.6024 119.685 20.5252 119.602 20.4714C119.519 20.4177 119.422 20.3898 119.323 20.3914C118.372 20.4133 117.879 20.6933 117.846 21.2314C117.828 21.5388 117.971 21.7273 118.275 21.7968Z" fill="#00AB55"/>
</g>
<defs>
<clipPath id="clip0_4132_7622">
<rect width="122.98" height="28" fill="white" transform="translate(0.509796 0.000976562)"/>
</clipPath>
</defs>
</svg>
