<svg width="98" height="32" viewBox="0 0 98 32" fill="none" xmlns="http://www.w3.org/2000/svg">
<path fill-rule="evenodd" clip-rule="evenodd" d="M61.3218 3.39975L61.3218 3.39965C61.3141 3.3346 61.306 3.26572 61.306 3.18872C61.2704 3.18872 61.2444 3.18388 61.2242 3.18012C61.1947 3.17463 61.1774 3.1714 61.16 3.18872C60.8303 3.18872 60.5023 3.18688 60.1757 3.18504C59.2015 3.17958 58.2395 3.17418 57.2776 3.21791C56.2267 3.2471 55.3217 4.12285 55.0298 5.11536C54.7963 5.90353 54.8255 6.75009 55.0882 7.56745C55.4385 8.70592 56.431 9.4649 57.5987 9.49409H61.3644C62.3277 9.49409 63.0575 9.05622 63.5538 8.26805C63.8749 7.7426 64.05 7.15877 64.05 6.51655C64.05 5.84515 64.0573 5.17374 64.0646 4.50234C64.0719 3.83093 64.0792 3.15952 64.0792 2.48812C64.0792 2.25459 64.0792 2.02105 63.9916 1.8459C63.8749 1.55399 63.6997 1.29126 63.4954 1.05773C62.8824 0.327943 62.1234 0.00683594 61.1892 0.00683594H57.2484C56.8981 0.00683594 56.8689 0.0360284 56.8689 0.386327V1.99186C56.8689 2.31297 56.8981 2.34216 57.2192 2.34216H61.1892C61.8315 2.34216 62.1526 2.60488 62.1526 3.2471C62.172 3.90738 62.1656 4.55474 62.1591 5.20637V5.20641V5.20645V5.20649V5.20653V5.20656V5.2066V5.20664V5.20668V5.20672V5.20676V5.2068V5.20684V5.20687V5.20691V5.20695V5.20728V5.20749V5.2077V5.20791V5.20812V5.20832V5.20853V5.20874V5.20895V5.20915V5.20935V5.20956V5.20976V5.20996V5.21016V5.21036V5.21056C62.1558 5.53706 62.1526 5.86463 62.1526 6.19545C62.1526 6.3706 62.0942 6.54574 62.0358 6.6917C61.8606 7.042 61.5395 7.12958 61.1892 7.12958H57.8322C57.7154 7.12958 57.5695 7.10039 57.4235 7.07119C57.1024 6.98362 56.8105 6.63332 56.8105 6.3414C56.8105 5.90353 57.1316 5.52404 57.5987 5.46566H57.9198H61.0141C61.2768 5.46566 61.306 5.43647 61.3352 5.17374V5.02778V3.56821C61.3352 3.51308 61.3287 3.45795 61.3218 3.39975ZM79.3172 0.0652936C79.361 0.0652936 79.4121 0.0579949 79.4632 0.0506964L79.4632 0.0506932C79.5143 0.0433961 79.5653 0.0361003 79.6091 0.0361003H83.7251C84.8344 0.0361003 85.6518 0.561548 86.2064 1.49568C86.3816 1.81678 86.4983 2.13789 86.4691 2.48819C86.4691 2.78009 86.4703 3.07199 86.4715 3.36389C86.4761 4.53157 86.4808 5.69925 86.4108 6.86692C86.3524 7.94701 85.7977 8.85195 84.7176 9.28982C84.4549 9.40659 84.163 9.46497 83.8711 9.46497C83.0159 9.48441 82.1736 9.47796 81.3271 9.47148C80.9022 9.46823 80.4762 9.46497 80.047 9.46497C78.8793 9.46497 77.916 8.73518 77.5365 7.6551C77.2446 6.80854 77.1862 5.9328 77.4489 5.05705C77.7701 4.03534 78.7334 3.1596 79.8427 3.1596H83.4916C83.5178 3.1596 83.5441 3.1655 83.573 3.17199C83.6084 3.17994 83.6477 3.18879 83.6959 3.18879C83.7251 3.30552 83.7251 3.42226 83.7251 3.56817V3.56828V5.05705V5.20301C83.6959 5.43654 83.6667 5.43654 83.4332 5.43654H80.3389H79.9594C79.4632 5.49492 79.1129 5.99118 79.2296 6.45824C79.3172 6.75016 79.4924 6.98369 79.8135 7.07127C79.9594 7.10046 80.1346 7.12965 80.2805 7.12965H83.4916C84.163 7.12965 84.5425 6.92531 84.5425 6.10794V3.56828C84.5425 3.49862 84.5359 3.42897 84.5289 3.35614V3.35606V3.35599V3.35591V3.35583V3.35575V3.35567V3.35559V3.3555V3.35542V3.35534V3.35525V3.35517V3.35509V3.35501V3.35493V3.35484V3.35476C84.5213 3.2754 84.5133 3.19225 84.5133 3.10121C84.5133 2.72172 84.2214 2.37142 83.7543 2.34223H83.4332H79.5799C79.288 2.34223 79.2588 2.31304 79.2296 2.05032V0.269634L79.2297 0.269537C79.2589 0.211186 79.288 0.15282 79.3172 0.0652936ZM26.2436 11.6498V11.6499C26.2527 11.8342 26.2617 12.0198 26.2761 12.2072C26.3053 12.6743 26.3053 13.1413 26.3053 13.6084C26.3053 14.8053 26.3053 15.9729 26.2761 17.1698C26.2761 17.6368 26.2761 18.1331 26.1886 18.6002C26.0718 19.3591 25.7215 20.0014 25.1377 20.5268C24.583 21.0522 23.9992 21.4901 23.2402 21.6945C22.744 21.8404 22.2769 21.9572 21.7515 21.9572H14.1617C14.0741 21.9572 13.9573 21.9572 13.8405 21.928C13.8405 21.851 13.8324 21.782 13.8247 21.717C13.8179 21.6588 13.8114 21.6036 13.8114 21.5485V19.1548C13.8114 18.9213 13.8405 18.8921 14.1033 18.8921C14.5557 18.8921 15.0155 18.8994 15.4753 18.9067C15.935 18.914 16.3948 18.9213 16.8473 18.9213H21.4595C21.8098 18.9213 22.1601 18.8921 22.4521 18.6585C22.598 18.5418 22.744 18.3958 22.8024 18.2207C22.9483 17.8996 22.9775 17.5493 22.9775 17.1698C22.9775 16.98 22.9921 16.7976 23.0067 16.6151C23.0213 16.4327 23.0359 16.2502 23.0359 16.0605C23.0359 15.5205 23.0286 14.9804 23.0213 14.4404C23.014 13.9003 23.0067 13.3603 23.0067 12.8202C23.0359 11.8277 22.3353 11.3315 21.4887 11.3315C20.2259 11.3509 18.9631 11.3445 17.6917 11.338C17.0527 11.3347 16.4116 11.3315 15.7672 11.3315C15.5337 11.3315 15.3001 11.3607 15.0958 11.419C14.5703 11.565 14.2784 11.9445 14.1908 12.4699C14.1617 12.6159 14.22 12.7619 14.2784 12.9078C14.3036 13.0085 14.3722 13.1092 14.4281 13.1912L14.4536 13.2289C14.7163 13.696 15.1542 13.8419 15.6504 13.8419C16.4288 13.8614 17.2072 13.8549 17.9857 13.8484H17.9857C18.375 13.8452 18.7642 13.8419 19.1534 13.8419H21.3428H21.6055V17.2574C21.5573 17.2574 21.5268 17.2662 21.4993 17.2742C21.4769 17.2806 21.4566 17.2865 21.4303 17.2865H15.3585C14.4536 17.2865 13.6362 17.0238 12.9064 16.4984C12.1474 15.9437 11.622 15.2431 11.3301 14.3382C11.0382 13.4333 10.9214 12.5283 11.0965 11.565V11.419C11.1257 11.1855 11.1549 11.1271 11.3885 11.1271C12.1766 11.0396 12.9064 10.7476 13.5778 10.339C14.4828 9.78432 15.2126 9.02534 15.738 8.09121C15.8548 7.91606 15.9715 7.82848 16.1759 7.82848H21.2844H21.2844C21.6639 7.82848 22.0434 7.82848 22.3937 7.85767C22.9483 7.91606 23.5029 8.03282 23.9992 8.29555C24.1707 8.39842 24.3466 8.48339 24.5217 8.56798C24.7939 8.69943 25.0642 8.82996 25.3128 9.02534C25.3249 9.03743 25.3771 9.09961 25.4382 9.17247C25.5246 9.27548 25.6289 9.39982 25.6631 9.43402L26.0134 9.98866C26.1893 10.5382 26.2162 11.0878 26.2436 11.6498ZM56.9272 15.1284V16.1502V21.6382V21.8425C56.9272 22.0177 56.8689 22.076 56.6937 22.076H55.1466C54.9714 22.076 54.8838 21.9885 54.8838 21.8133V21.1711V14.0192C54.8838 13.8148 54.913 13.6105 54.9422 13.4061C55.0298 12.9683 55.4093 12.6472 55.8763 12.6472H59.6129C60.1383 12.6472 60.6346 12.8223 61.0724 13.1142C61.1016 13.1288 61.1381 13.1507 61.1746 13.1726C61.2111 13.1945 61.2476 13.2164 61.2768 13.231H61.3352V12.8515C61.3352 12.7055 61.3936 12.618 61.5395 12.618C61.766 12.618 61.9925 12.6161 62.2185 12.6143H62.2185H62.2186H62.2186H62.2186H62.2187H62.2187H62.2187H62.2188H62.2188H62.2188H62.2189H62.2189H62.2189H62.219H62.219H62.219H62.2191H62.2191H62.2191H62.2192C62.896 12.6088 63.5688 12.6034 64.2251 12.6472C65.2176 12.7055 66.0058 13.1726 66.5313 14.0484C66.8232 14.5446 66.8816 15.0993 66.8816 15.6247C66.901 16.4215 66.8946 17.2054 66.8881 17.9936C66.8848 18.3893 66.8816 18.786 66.8816 19.1861V21.6382C66.8816 21.7257 66.8816 21.8133 66.8524 21.8717C66.8232 21.9301 66.7648 22.0177 66.7064 22.0177H64.8382V21.5798V16.8799C64.8382 16.5296 64.8382 16.1793 64.809 15.829C64.809 15.3328 64.5462 15.0701 64.0792 15.0701H62.4736C62.4445 15.0701 62.4153 15.0774 62.3861 15.0847C62.3569 15.092 62.3277 15.0993 62.2985 15.0993V21.9885C62.2547 21.9885 62.2109 21.9958 62.1672 22.003L62.1671 22.0031L62.1671 22.0031C62.1233 22.0104 62.0795 22.0177 62.0358 22.0177H60.547C60.2879 22.0177 60.2843 21.9893 60.2563 21.7644L60.2551 21.7549V20.9084C60.2551 19.2153 60.2551 17.5222 60.2259 15.829C60.2259 15.3912 59.9924 15.0993 59.5545 15.0993C58.7664 15.1284 57.8615 15.1284 56.9274 15.1284H56.9272ZM47.4984 22.0729H49.425H51.6728C51.8187 22.0729 51.9355 22.0437 52.0523 22.0145C52.8405 21.781 53.3659 21.2847 53.7162 20.555C53.9789 20.0003 54.0373 19.4165 54.0665 18.8035C54.0957 17.8693 54.0957 16.9644 54.0957 16.0303C54.0957 15.762 54.0705 15.5064 54.045 15.2468L54.045 15.2467L54.045 15.2466L54.045 15.2465L54.045 15.2464L54.0449 15.2462L54.0449 15.246C54.0316 15.1103 54.0181 14.9736 54.0081 14.8334C54.0081 14.6875 53.9789 14.5415 53.9205 14.4247C53.3367 13.3155 52.461 12.6732 51.1765 12.6732H47.2065C46.8562 12.6732 46.827 12.6732 46.827 13.0235V14.6875C46.827 15.0086 46.8562 15.0378 47.1773 15.0378H51.1765C51.7896 15.0086 52.1107 15.3589 52.1107 15.9427C52.1107 16.2736 52.114 16.6014 52.1172 16.9269V16.9273V16.9276V16.928V16.9283V16.9287V16.929V16.9294V16.9297V16.93V16.9304V16.9307V16.931V16.9314V16.9317V16.932V16.9324V16.9327V16.933V16.9331V16.9332V16.9333V16.9334V16.9335V16.9336V16.9338V16.9339V16.934V16.9341V16.9342V16.9343V16.9344V16.9345V16.9346V16.9347V16.9348V16.9349C52.1237 17.5829 52.1301 18.2224 52.1107 18.8618C52.0815 19.4165 51.7896 19.796 51.1473 19.796H47.7319H47.5276C47.1189 19.7376 46.7102 19.2997 46.7686 18.9202C46.827 18.4532 47.1189 18.1321 47.6152 18.1321H47.9363H50.943C51.2057 18.1321 51.2641 18.1029 51.2641 17.811V16.0887C51.2641 15.8259 51.2057 15.7967 50.9722 15.7967H47.4984C46.214 15.7675 45.0755 16.8476 44.8712 18.0153C44.8566 18.0883 44.8566 18.1612 44.8566 18.2342V18.2342C44.8566 18.3072 44.8566 18.3802 44.842 18.4532C44.7544 19.1246 44.8128 19.7668 45.0755 20.409C45.455 21.3723 46.4183 22.1021 47.4984 22.0729ZM43.2072 13.4944C43.2656 13.5528 43.2948 13.6112 43.324 13.6696C43.7035 14.1075 43.8495 14.6329 43.8786 15.1875C43.8786 15.2751 43.8932 15.37 43.9078 15.4649C43.9224 15.5597 43.937 15.6546 43.937 15.7422C43.937 15.9744 43.9388 16.2084 43.9406 16.4433L43.9407 16.4446C43.9461 17.1543 43.9517 17.8723 43.9078 18.5738C43.8786 19.1284 43.8495 19.683 43.7035 20.2377C43.4408 21.201 42.7986 21.814 41.8352 22.0768C41.6621 22.1152 41.4762 22.1284 41.2944 22.1412C41.2003 22.1478 41.1074 22.1544 41.0179 22.1643H37.0186C36.9894 22.1643 36.9311 22.1643 36.8435 22.1351C36.8435 22.0945 36.8372 22.0539 36.8305 22.0103C36.8227 21.96 36.8143 21.9058 36.8143 21.8432V20.0625C36.8143 19.8874 36.8435 19.8582 37.077 19.8582C37.4565 19.8582 37.836 19.8655 38.2155 19.8728C38.595 19.8801 38.9745 19.8874 39.354 19.8874H40.8427H40.8428C40.9595 19.8874 41.0763 19.8874 41.193 19.8582C41.6309 19.7998 41.7477 19.6247 41.8644 19.1868C42.058 18.3479 42.0297 17.509 42.0014 16.6702L42.0014 16.6698C41.9913 16.3703 41.9812 16.0709 41.9812 15.7714C41.9812 15.3043 41.6601 14.954 41.1346 14.954H37.5149C37.0478 14.954 36.7559 15.1875 36.6975 15.567C36.6099 16.1217 36.9894 16.5595 37.5733 16.5887H40.58C41.1346 16.5887 41.1346 16.5887 41.1346 17.1434V18.5446C41.1346 18.8073 41.1054 18.8657 40.8135 18.8657H37.5441C36.9311 18.8657 36.318 18.7489 35.8218 18.3402C35.3255 17.9316 34.9752 17.4061 34.8293 16.7931C34.6249 15.9757 34.6833 15.1875 34.8293 14.3702C34.8975 14.0292 35.0719 13.7944 35.2698 13.528L35.2699 13.5279L35.2701 13.5276L35.2703 13.5273C35.3264 13.4518 35.3843 13.3738 35.4423 13.2901L35.5591 13.1733C35.6466 13.1149 35.6685 13.1076 35.6795 13.104L35.6843 13.1023C35.6916 13.0991 35.6977 13.0931 35.7341 13.0566L35.7342 13.0566L35.7342 13.0566C35.7753 13.0292 35.8227 13.0146 35.8676 13.0009C35.9184 12.9853 35.9659 12.9708 35.9969 12.9398C36.4661 12.6928 36.6846 12.6966 37.0943 12.7036H37.0943C37.1689 12.7049 37.2498 12.7063 37.3397 12.7063H41.2806C41.952 12.7063 42.5066 12.969 42.9737 13.4069C43.0029 13.4215 43.0248 13.4434 43.0467 13.4652C43.0686 13.4871 43.0905 13.509 43.1197 13.5236L43.2072 13.4944ZM81.9841 13.081C81.8512 13.1432 81.714 13.2075 81.5649 13.3193L81.419 13.582C81.2438 13.8447 81.1563 14.1074 81.0687 14.4286C80.8643 15.1875 80.8643 16.0049 81.0687 16.7639C81.3314 17.7272 81.9152 18.457 82.9369 18.7197C83.258 18.7781 83.5792 18.8073 83.9003 18.8073H86.9946C87.0352 18.8073 87.0821 18.801 87.1324 18.7943C87.1905 18.7865 87.2531 18.7781 87.3157 18.7781V18.457V16.8223C87.3303 16.6761 87.3376 16.6031 87.3046 16.5667C87.2717 16.5303 87.1987 16.5303 87.053 16.5303H83.9295C83.7543 16.5303 83.5792 16.5012 83.404 16.4428C83.0537 16.3552 82.9369 16.0633 82.8786 15.7714C82.8202 15.4503 82.9369 15.1875 83.2289 15.0416C83.404 14.9832 83.6083 14.9248 83.8127 14.9248H87.1697H87.4032C87.8119 14.9832 88.133 15.3043 88.133 15.713C88.139 15.9323 88.1473 16.1504 88.1556 16.3676C88.1882 17.2198 88.2202 18.0574 88.1038 18.8949C88.0747 19.07 88.0163 19.2744 87.9579 19.4495C87.8411 19.7414 87.5492 19.829 87.2573 19.829H83.8419H83.1705C83.0537 19.829 82.9953 19.8874 82.9953 20.0333V21.8724C82.9953 22.0038 82.9953 22.0694 83.0282 22.1023C83.061 22.1351 83.1267 22.1351 83.258 22.1351H85.3015C85.6955 22.1205 86.0896 22.1132 86.4837 22.1059C86.8778 22.0986 87.2719 22.0913 87.666 22.0767C88.4249 22.0184 89.0088 21.6389 89.4758 21.0258C89.9137 20.4712 90.0305 19.7998 90.0597 19.0992C90.0889 17.9023 90.1181 16.7055 90.0889 15.5086C90.0889 14.9248 90.0013 14.3118 89.6218 13.8155C89.1255 13.1441 88.5125 12.6771 87.666 12.6479C86.7318 12.6284 85.7977 12.6349 84.8636 12.6414C84.3965 12.6446 83.9295 12.6479 83.4624 12.6479C83.0245 12.6479 82.5866 12.7646 82.2072 12.969C82.1333 13.0112 82.0594 13.0458 81.9841 13.081ZM32.5524 0.0361003H34.3622C35.5007 0.0361003 36.3473 0.56155 36.9311 1.52487C37.0479 1.72921 37.1354 1.96274 37.1646 2.19627C37.2522 2.89687 37.2814 3.59747 37.077 4.29807C36.7559 5.46573 35.8218 6.34148 34.479 6.34148H31.1512C30.8592 6.34148 30.8301 6.31228 30.8301 5.99118V4.35645C30.8301 4.06453 30.8592 4.03534 31.1512 4.03534H33.5157H34.4498C35.0628 4.03534 35.2964 3.59747 35.2964 3.18879C35.2964 2.72172 34.9461 2.37142 34.4206 2.37142H31.2971H30.9176C30.3338 2.37142 30.0127 2.69253 29.9835 3.30555C29.9543 4.18119 29.9543 5.02764 29.9543 5.90326V5.9036C29.9543 5.9414 29.9537 5.97859 29.9531 6.01535V6.01545V6.01556V6.01566V6.01576V6.01586C29.9495 6.23444 29.9462 6.43783 30.0711 6.66258C30.1878 6.89611 30.3338 7.07126 30.5965 7.12965C30.7425 7.15884 30.9176 7.18803 31.0636 7.18803H34.1287C34.4498 7.18803 34.4498 7.18803 34.479 7.50914V9.14386C34.479 9.49416 34.4498 9.49416 34.1287 9.49416H30.8301C29.7208 9.49416 28.7866 8.85195 28.3488 7.83024C28.1444 7.33399 28.0861 6.80854 28.0569 6.28309C28.0277 5.2322 28.0277 4.21049 28.0569 3.1596C28.0569 2.40062 28.232 1.67083 28.7575 1.0578C29.3121 0.444782 29.9543 0.0652931 30.8009 0.0944847C31.3555 0.0361016 31.9685 0.0361003 32.5524 0.0361003ZM65.2177 8.85209V9.46512C65.3345 9.46512 65.4221 9.46512 65.4512 9.5235H70.5598C70.8225 9.5235 71.0852 9.49431 71.3187 9.43593C72.6615 9.08563 73.2454 8.12231 73.3913 7.07141C73.4351 6.7 73.4297 6.31223 73.4242 5.92035V5.92026V5.92016V5.92007V5.91998V5.91988V5.91979V5.9197V5.91961V5.91951V5.91942V5.91933V5.91923V5.91898V5.91871V5.91845V5.91818V5.91791V5.91765V5.91738V5.91711V5.91683V5.91656V5.91628V5.916C73.4224 5.78572 73.4205 5.65499 73.4205 5.52426L73.4172 5.49725C73.389 5.2706 73.3577 5.01904 73.2454 4.79447C72.6615 3.656 71.7858 3.07217 70.4722 3.10136C69.83 3.12082 69.1878 3.11433 68.5455 3.10784C68.2244 3.1046 67.9033 3.10136 67.5822 3.10136C67.5637 3.10136 67.5423 3.10428 67.5198 3.10736C67.4713 3.11399 67.4178 3.12131 67.3779 3.10136C67.2611 3.07217 67.1443 3.01378 67.1443 2.86783C67.1152 2.72187 67.1735 2.6051 67.3195 2.57591C67.4655 2.54672 67.5822 2.54672 67.7282 2.54672H72.1945C72.4864 2.54672 72.5156 2.51753 72.5156 2.22561V0.415736C72.5156 0.375133 72.5093 0.334531 72.5026 0.291019V0.291011V0.291001V0.290991V0.290979V0.290965V0.29095V0.290931V0.290911V0.290887V0.290875V0.290862V0.29085V0.290838V0.290826V0.290814V0.290802V0.29079V0.290777V0.290765V0.290753V0.290741C72.4948 0.240481 72.4864 0.186334 72.4864 0.12382C72.4426 0.12382 72.3915 0.116522 72.3404 0.109224C72.2894 0.101927 72.2383 0.0946289 72.1945 0.0946289H67.6406C67.3487 0.0946289 67.0276 0.123821 66.7649 0.211396C66.0059 0.444928 65.4512 0.970375 65.2177 1.75855C65.0134 2.48834 65.0425 3.24732 65.3345 3.9771C65.714 4.85285 66.3562 5.40749 67.3487 5.43668C68.3996 5.46587 69.4213 5.46588 70.4722 5.46588C70.5101 5.46588 70.551 5.4628 70.5931 5.45964C70.6806 5.45308 70.7728 5.44616 70.8517 5.46588C71.2312 5.52426 71.4063 5.69941 71.4939 6.10809C71.5523 6.4292 71.4063 6.80869 71.1436 6.92545C70.9684 7.01303 70.7641 7.04222 70.5889 7.04222H69.2169C68.5893 7.04222 67.969 7.03492 67.3487 7.02762C66.7284 7.02032 66.108 7.01303 65.4804 7.01303C65.2469 7.01303 65.2177 7.04222 65.2177 7.21737V8.85209ZM89.4759 2.51738C89.4759 2.57576 89.4686 2.62685 89.4613 2.67794C89.454 2.72902 89.4467 2.78011 89.4467 2.83849C89.4467 4.91109 89.4467 6.9545 89.4175 9.0271C89.4175 9.10008 89.4102 9.17305 89.4029 9.24603C89.3956 9.31901 89.3883 9.39199 89.3883 9.46497H87.4033C87.4033 9.4024 87.3949 9.3482 87.3871 9.2979C87.3804 9.25434 87.3741 9.2137 87.3741 9.17305V1.23296C87.3741 1.087 87.3741 0.970231 87.4033 0.824273C87.4908 0.415592 87.812 0.123677 88.2206 0.0652936C88.2644 0.0652936 88.3155 0.0579977 88.3666 0.0507007L88.3666 0.0506974C88.4177 0.0433989 88.4688 0.0361003 88.5126 0.0361003H92.8037C94.0589 0.0361003 95.1098 0.503165 95.898 1.49568C96.3943 2.07951 96.657 2.78011 96.657 3.53909V9.28982C96.657 9.3482 96.657 9.3774 96.6278 9.46497C96.5986 9.46497 96.5694 9.47227 96.5402 9.47957C96.511 9.48686 96.4818 9.49416 96.4527 9.49416H94.8763C94.7012 9.49416 94.6136 9.43578 94.6136 9.26063V8.99791V4.21049C94.6136 3.39313 94.0006 2.54657 92.9789 2.51738C92.2188 2.49789 91.4457 2.50443 90.677 2.51092C90.2943 2.51416 89.9127 2.51738 89.5343 2.51738C89.5635 2.48819 89.5343 2.48819 89.4759 2.51738ZM72.7345 16.8611C72.7418 16.2919 72.7491 15.7227 72.7491 15.1534C72.8075 15.1534 72.8367 15.1242 72.8075 15.0659C73.2075 15.0659 73.6042 15.0626 73.9998 15.0594L74 15.0594C74.7882 15.0529 75.5721 15.0464 76.3689 15.0659C76.6024 15.0659 76.8067 15.1534 77.0111 15.241C77.6825 15.5913 77.9452 16.1751 77.9452 16.8757C77.9452 17.386 77.9525 17.9036 77.9598 18.4212L77.9598 18.4229C77.9671 18.941 77.9744 19.4592 77.9744 19.97V21.7507C77.9744 21.9843 78.0036 22.0135 78.2371 22.0135H79.6967C79.9302 22.0135 79.9594 21.9843 79.9886 21.7507V21.5756C79.9886 20.6561 79.9813 19.7292 79.974 18.8024C79.9667 17.8756 79.9594 16.9487 79.9594 16.0292C79.9594 15.4745 79.7843 14.9491 79.4924 14.482C78.7334 13.2852 77.5949 12.6722 76.1645 12.643H74.6466H71.7566C71.2603 12.643 70.8517 12.9641 70.7641 13.4311L70.7543 13.4989C70.7287 13.6751 70.7057 13.8336 70.7057 14.015V21.0501V21.7507C70.7057 22.0135 70.7641 22.0718 71.0268 22.0718H72.4864C72.5302 22.0718 72.5667 22.0645 72.6032 22.0572C72.6397 22.0499 72.6761 22.0427 72.7199 22.0427V18.5689C72.7199 17.9996 72.7272 17.4304 72.7345 16.8611ZM40.0837 0.0652204V0.503094C40.0837 1.03787 40.0805 1.56941 40.0772 2.09986V2.10035V2.10084V2.10133V2.10182V2.10231V2.1028V2.1033V2.10379V2.10429V2.1047C40.0707 3.16519 40.0643 4.22137 40.0837 5.29051C40.0837 6.0203 40.434 6.63332 41.1638 6.92524C41.3973 7.01281 41.6601 7.042 41.9228 7.042H44.9587C45.1339 7.042 45.2214 7.042 45.2652 6.99821C45.309 6.95443 45.309 6.86685 45.309 6.6917V6.6909C45.309 4.64775 45.309 2.57543 45.2798 0.532285C45.2798 0.0360284 45.2798 0.036027 45.7761 0.036027C45.995 0.036027 46.2066 0.0287295 46.4183 0.0214319L46.4183 0.0214315C46.6299 0.0141337 46.8416 0.00683594 47.0605 0.00683594C47.294 0.00683594 47.3232 0.00683594 47.3232 0.26956V2.28378C47.3232 4.21042 47.3232 6.10787 47.294 8.03451C47.294 8.08091 47.2946 8.1267 47.2952 8.17197C47.2988 8.43998 47.3021 8.68972 47.1773 8.93945C47.0021 9.28975 46.7102 9.49409 46.3015 9.49409H41.7184C40.3172 9.49409 38.9744 8.58915 38.4198 7.30473C38.1571 6.66251 38.0111 6.0203 38.0111 5.34889C37.9819 3.74357 37.9819 2.10906 37.9819 0.503723V0.503094V0.503083C37.9819 0.0652204 37.9819 0.0652202 38.449 0.0944115C38.916 0.0944115 39.3831 0.0944111 39.8502 0.123603C39.918 0.055768 39.9508 0.0579928 40.0164 0.0624423C40.0355 0.0637371 40.0574 0.0652204 40.0837 0.0652204ZM48.6077 9.4649H50.4175V9.46484C50.4175 9.31891 50.4175 9.20216 50.3884 9.08541V4.06446V3.2471C50.4175 2.80922 50.6219 2.5465 51.0598 2.48812C51.2057 2.45893 51.3517 2.45893 51.4976 2.45893H55.4385C55.599 2.45893 55.6793 2.45893 55.7195 2.41879C55.7596 2.37865 55.7596 2.29837 55.7596 2.13782V0.26956V0.26955C55.7596 0.0360271 55.7596 0.00683594 55.4969 0.00683594C54.7963 0.00683594 54.0957 0.0141337 53.3951 0.0214315C52.6945 0.0287293 51.9939 0.036027 51.2933 0.036027C50.8846 0.036027 50.5051 0.094411 50.1256 0.26956C49.3083 0.64905 48.6952 1.26207 48.4909 2.16701C48.4033 2.51731 48.3741 2.86761 48.3741 3.21791V9.02702C48.3741 9.07081 48.3814 9.1146 48.3887 9.15839C48.396 9.20217 48.4033 9.24596 48.4033 9.28975C48.4325 9.40651 48.4909 9.4649 48.6077 9.4649ZM74.3254 9.46497V0.0652936C74.3692 0.0652936 74.4057 0.0579949 74.4422 0.0506964C74.4787 0.0433983 74.5152 0.0361003 74.559 0.0361003H76.0769C76.3105 0.0361003 76.3396 0.0361011 76.3396 0.269634V1.67083V8.99791V9.14386C76.3105 9.40659 76.2813 9.43578 76.0185 9.46497H74.6173H74.3254ZM67.7865 12.643V22.0718H67.7867C68.3704 22.0718 68.8958 22.0718 69.4213 22.0427C69.7716 22.0427 69.8008 22.0135 69.8008 21.6632V13.0517V12.8181C69.8008 12.7014 69.7424 12.643 69.6256 12.643H67.7865ZM9.54938 10.8656H9.8413C9.8413 10.8656 10.1332 10.8072 10.1332 11.1283V13.7848C10.1332 13.7848 10.1624 14.0183 9.8413 14.0183H2.95209C2.95209 14.0183 0.5 13.7264 0.5 10.4861V3.01308C0.5 3.01308 0.529191 0.619368 4.67439 0.619368C8.81959 0.619368 12.9064 0.677753 12.9064 0.677753C12.9064 0.677753 15.6796 0.79452 15.6796 2.54601V5.58193C15.6796 5.58193 15.8839 9.72713 11.1257 9.72713H5.28741C5.28741 9.72713 5.05388 9.78551 5.05388 9.4936V6.51606C5.05388 6.51606 5.02469 6.19496 5.3458 6.19496H11.3884C11.3884 6.19496 12.4393 6.19495 12.4393 5.08568C12.4393 3.9764 11.3593 3.77206 11.3593 3.77206H4.90792C4.90792 3.77206 3.71107 3.88882 3.71107 5.43597V9.93147C3.71107 9.93147 3.68188 10.8656 4.76197 10.8656H9.54938ZM80.143 26.7412C80.3172 26.8187 80.4576 26.9252 80.5641 27.0607L81.3556 26.2257C81.1281 26.0175 80.8618 25.8602 80.5569 25.7537C80.2567 25.6472 79.9614 25.5939 79.671 25.5939C79.4289 25.5939 79.1893 25.6254 78.9521 25.6883C78.7149 25.7464 78.5019 25.8408 78.3131 25.9715C78.1243 26.1022 77.9718 26.2693 77.8556 26.4726C77.7394 26.6759 77.6814 26.9204 77.6814 27.206C77.6814 27.4383 77.7177 27.6368 77.7903 27.8014C77.8677 27.9612 77.967 28.0991 78.088 28.2153C78.2139 28.3267 78.3542 28.4186 78.5091 28.4912C78.6689 28.5639 78.8311 28.6268 78.9957 28.68C79.1651 28.7333 79.3152 28.7841 79.4459 28.8325C79.5814 28.8761 79.6928 28.9269 79.7799 28.985C79.8719 29.0383 79.9421 29.0988 79.9905 29.1666C80.0389 29.2343 80.0631 29.3166 80.0631 29.4134C80.0631 29.5151 80.0437 29.6022 80.005 29.6749C79.9663 29.7475 79.913 29.8056 79.8452 29.8491C79.7823 29.8927 79.7073 29.9242 79.6201 29.9435C79.533 29.9629 79.4435 29.9726 79.3515 29.9726C79.1481 29.9726 78.9424 29.9217 78.7343 29.8201C78.5309 29.7136 78.3663 29.5829 78.2405 29.428L77.4272 30.2558C77.6547 30.493 77.9403 30.6769 78.284 30.8076C78.6277 30.9335 78.9836 30.9964 79.3515 30.9964C79.6032 30.9964 79.8477 30.9625 80.0849 30.8948C80.3221 30.827 80.5327 30.7229 80.7166 30.5825C80.9006 30.4421 81.0458 30.2654 81.1523 30.0524C81.2636 29.8346 81.3193 29.578 81.3193 29.2827C81.3193 29.0262 81.2685 28.8132 81.1668 28.6437C81.0652 28.4695 80.9369 28.3242 80.782 28.208C80.6271 28.0919 80.4552 27.9999 80.2664 27.9321C80.0776 27.8595 79.8961 27.7941 79.7218 27.7361C79.6008 27.6973 79.4919 27.661 79.395 27.6271C79.2982 27.5884 79.2135 27.5473 79.1409 27.5037C79.0731 27.4601 79.0199 27.4093 78.9811 27.3512C78.9473 27.2931 78.9303 27.2205 78.9303 27.1334C78.9303 27.0317 78.9521 26.9494 78.9957 26.8865C79.0441 26.8187 79.1022 26.7654 79.1699 26.7267C79.2377 26.6832 79.3127 26.6541 79.395 26.6396C79.4822 26.6251 79.5669 26.6178 79.6492 26.6178C79.8089 26.6178 79.9735 26.6589 80.143 26.7412ZM71.4366 26.7863V30.8672H70.1949V26.7863H68.7426V25.7261H72.8889V26.7863H71.4366ZM63.9937 29.3949C64.134 29.056 64.2042 28.6833 64.2042 28.2766C64.2042 27.8651 64.134 27.4948 63.9937 27.1656C63.8533 26.8316 63.6572 26.5484 63.4055 26.316C63.1586 26.0837 62.8633 25.9046 62.5196 25.7787C62.1759 25.6528 61.8031 25.5899 61.4013 25.5899C60.9995 25.5899 60.6268 25.6528 60.2831 25.7787C59.9442 25.9046 59.6489 26.0837 59.3972 26.316C59.1503 26.5484 58.9567 26.8316 58.8163 27.1656C58.6759 27.4948 58.6057 27.8651 58.6057 28.2766C58.6057 28.6833 58.6759 29.056 58.8163 29.3949C58.9567 29.7289 59.1503 30.0169 59.3972 30.259C59.6489 30.4962 59.9442 30.6801 60.2831 30.8109C60.6268 30.9416 60.9995 31.0069 61.4013 31.0069C61.8031 31.0069 62.1759 30.9416 62.5196 30.8109C62.8633 30.6801 63.1586 30.4962 63.4055 30.259C63.6572 30.0169 63.8533 29.7289 63.9937 29.3949ZM62.7665 27.6521C62.8391 27.8458 62.8754 28.0539 62.8754 28.2766C62.8754 28.509 62.8391 28.7244 62.7665 28.9229C62.6939 29.1165 62.5922 29.2835 62.4615 29.4239C62.3308 29.5643 62.1759 29.6757 61.9968 29.758C61.8177 29.8354 61.6192 29.8741 61.4013 29.8741C61.1835 29.8741 60.985 29.8354 60.8059 29.758C60.6268 29.6757 60.4719 29.5643 60.3412 29.4239C60.2153 29.2835 60.1161 29.1165 60.0435 28.9229C59.9708 28.7244 59.9345 28.509 59.9345 28.2766C59.9345 28.0539 59.9684 27.8458 60.0362 27.6521C60.1088 27.4585 60.2105 27.2939 60.3412 27.1584C60.4719 27.018 60.6268 26.9091 60.8059 26.8316C60.985 26.7493 61.1835 26.7082 61.4013 26.7082C61.6192 26.7082 61.8177 26.7493 61.9968 26.8316C62.1807 26.9091 62.3356 27.018 62.4615 27.1584C62.5922 27.2939 62.6939 27.4585 62.7665 27.6521ZM50.8288 30.8672V25.7261H52.0777V29.7853H54.0674V30.8672H50.8288ZM45.0777 26.7412C45.252 26.8187 45.3924 26.9252 45.4989 27.0607L46.2904 26.2257C46.0629 26.0175 45.7966 25.8602 45.4916 25.7537C45.1915 25.6472 44.8962 25.5939 44.6057 25.5939C44.3637 25.5939 44.1241 25.6254 43.8869 25.6883C43.6497 25.7464 43.4367 25.8408 43.2479 25.9715C43.0591 26.1022 42.9066 26.2693 42.7904 26.4726C42.6742 26.6759 42.6161 26.9204 42.6161 27.206C42.6161 27.4383 42.6524 27.6368 42.725 27.8014C42.8025 27.9612 42.9017 28.0991 43.0228 28.2153C43.1486 28.3267 43.289 28.4186 43.4439 28.4912C43.6037 28.5639 43.7658 28.6268 43.9304 28.68C44.0999 28.7333 44.2499 28.7841 44.3806 28.8325C44.5162 28.8761 44.6275 28.9269 44.7147 28.985C44.8066 29.0383 44.8768 29.0988 44.9252 29.1666C44.9736 29.2343 44.9979 29.3166 44.9979 29.4134C44.9979 29.5151 44.9785 29.6022 44.9398 29.6749C44.901 29.7475 44.8478 29.8056 44.78 29.8491C44.7171 29.8927 44.642 29.9242 44.5549 29.9435C44.4678 29.9629 44.3782 29.9726 44.2862 29.9726C44.0829 29.9726 43.8772 29.9217 43.669 29.8201C43.4657 29.7136 43.3011 29.5829 43.1752 29.428L42.362 30.2558C42.5895 30.493 42.8751 30.6769 43.2188 30.8076C43.5625 30.9335 43.9183 30.9964 44.2862 30.9964C44.538 30.9964 44.7824 30.9625 45.0196 30.8948C45.2568 30.827 45.4674 30.7229 45.6514 30.5825C45.8353 30.4421 45.9806 30.2654 46.0871 30.0524C46.1984 29.8346 46.2541 29.578 46.2541 29.2827C46.2541 29.0262 46.2032 28.8132 46.1016 28.6437C45.9999 28.4695 45.8716 28.3242 45.7167 28.208C45.5618 28.0919 45.39 27.9999 45.2012 27.9321C45.0124 27.8595 44.8308 27.7941 44.6566 27.7361C44.5355 27.6973 44.4266 27.661 44.3298 27.6271C44.233 27.5884 44.1483 27.5473 44.0757 27.5037C44.0079 27.4601 43.9546 27.4093 43.9159 27.3512C43.882 27.2931 43.8651 27.2205 43.8651 27.1334C43.8651 27.0317 43.8869 26.9494 43.9304 26.8865C43.9788 26.8187 44.0369 26.7654 44.1047 26.7267C44.1725 26.6832 44.2475 26.6541 44.3298 26.6396C44.4169 26.6251 44.5017 26.6178 44.584 26.6178C44.7437 26.6178 44.9083 26.6589 45.0777 26.7412Z" fill="#00AB55"/>
</svg>
