<svg width="122" height="28" viewBox="0 0 122 28" fill="none" xmlns="http://www.w3.org/2000/svg">
<g clip-path="url(#clip0_4132_7391)">
<path fill-rule="evenodd" clip-rule="evenodd" d="M77.0843 4.02206C77.0843 4.11942 77.0946 4.20651 77.1043 4.28874C77.113 4.3623 77.1212 4.43197 77.1212 4.50164V6.34617V6.53062C77.0843 6.86264 77.0474 6.89953 76.7154 6.89953H72.805H72.3992C71.8089 6.97331 71.4031 7.45289 71.4031 8.00625C71.4031 8.37516 71.772 8.81784 72.1778 8.92851C72.3623 8.96541 72.5467 9.00229 72.6943 9.00229H76.9367C77.3794 9.00229 77.7852 8.89162 78.0066 8.44894C78.0803 8.26448 78.1541 8.04314 78.1541 7.8218C78.1541 7.40417 78.1582 6.99062 78.1624 6.57845V6.57797V6.57748V6.57699V6.5765V6.57601V6.57552V6.57502V6.57452V6.57402V6.57351V6.57301V6.57241C78.1705 5.74873 78.1787 4.93045 78.1541 4.09584C78.1541 3.28424 77.7483 2.95223 76.9367 2.95223H71.9196C71.5138 2.95223 71.4769 2.91534 71.4769 2.50954V0.480556C71.4769 0.0378683 71.5138 0.000976562 71.9565 0.000976562H76.9367C78.1172 0.000976562 79.0764 0.406773 79.8511 1.32904C80.1093 1.62416 80.3307 1.95618 80.4782 2.32509C80.5889 2.54643 80.5889 2.84156 80.5889 3.13668C80.5889 3.98517 80.5797 4.83365 80.5704 5.68214L80.5704 5.68424C80.5612 6.53202 80.552 7.37981 80.552 8.22759C80.552 9.03919 80.3307 9.777 79.9249 10.441C79.2977 11.4371 78.3755 11.9904 77.1581 11.9904H72.3992C70.9236 11.9535 69.6693 10.9944 69.2266 9.55565C68.8946 8.52272 68.8577 7.45289 69.1528 6.45684C69.5217 5.20256 70.6653 4.09584 71.9934 4.05895C73.2091 4.00369 74.4247 4.01051 75.6559 4.01742C76.0686 4.01973 76.4831 4.02206 76.8998 4.02206C76.9217 4.00018 76.9436 4.00425 76.9809 4.01119C77.0064 4.01595 77.0393 4.02206 77.0843 4.02206ZM100.03 0.0561696C99.9657 0.0653928 99.9012 0.074616 99.8458 0.074616C99.8089 0.185288 99.772 0.259068 99.7352 0.332849V2.58318C99.772 2.91519 99.8089 2.95208 100.178 2.95208H105.047H105.453C106.043 2.98898 106.412 3.43166 106.412 3.91124C106.412 4.02689 106.422 4.13246 106.432 4.23323L106.432 4.23341C106.441 4.32544 106.449 4.41347 106.449 4.50149V7.71098C106.449 8.74392 105.97 9.00215 105.121 9.00215H101.063C100.879 9.00215 100.657 8.96526 100.473 8.92837C100.067 8.8177 99.8458 8.52257 99.7352 8.15366C99.5876 7.56341 100.03 6.93627 100.657 6.86249H101.137H105.047C105.343 6.86249 105.379 6.86249 105.416 6.56737V6.38292V4.50149V4.50138C105.416 4.31698 105.416 4.16945 105.379 4.02191C105.319 4.02191 105.269 4.01073 105.224 4.00068C105.188 3.99248 105.154 3.98502 105.121 3.98502H100.51C99.108 3.98502 97.8906 5.09174 97.4848 6.38292C97.1528 7.48963 97.2266 8.59635 97.5955 9.66618C98.0751 11.0311 99.2925 11.9534 100.768 11.9534C101.311 11.9534 101.849 11.9575 102.386 11.9616C103.456 11.9698 104.52 11.978 105.601 11.9534C105.97 11.9534 106.339 11.8796 106.671 11.7321C108.036 11.1787 108.736 10.0351 108.81 8.67013C108.899 7.19449 108.893 5.71885 108.887 4.24321C108.886 3.87432 108.884 3.50543 108.884 3.13654C108.921 2.69385 108.773 2.28805 108.552 1.88226C107.851 0.701755 106.818 0.0377231 105.416 0.0377231H100.215C100.159 0.0377231 100.095 0.0469438 100.03 0.0561658L100.03 0.0561696ZM32.7744 14.7168V14.7168C32.7397 14.0065 32.7057 13.312 32.4835 12.6175L32.0408 11.9166C31.9976 11.8734 31.8658 11.7163 31.7566 11.5861L31.7565 11.586L31.7564 11.5859C31.6793 11.4939 31.6134 11.4154 31.5981 11.4001C31.2839 11.1532 30.9423 10.9882 30.5984 10.8221C30.3771 10.7152 30.1547 10.6079 29.938 10.4778C29.3109 10.1458 28.61 9.99827 27.9091 9.92449C27.4664 9.8876 26.9868 9.8876 26.5073 9.8876H26.5072H20.0514C19.7931 9.8876 19.6456 9.99827 19.498 10.2196C18.834 11.4001 17.9117 12.3593 16.7681 13.0602C15.9196 13.5767 14.9973 13.9456 14.0013 14.0562C13.7062 14.0562 13.6693 14.13 13.6324 14.4251V14.6096C13.411 15.827 13.5586 16.9706 13.9275 18.1142C14.2964 19.2578 14.9604 20.1432 15.9196 20.8441C16.8419 21.5082 17.8748 21.8402 19.0184 21.8402H26.6917C26.7248 21.8402 26.7505 21.8327 26.7789 21.8245C26.8135 21.8145 26.8521 21.8033 26.913 21.8033V17.4871H26.581H23.8142C23.3223 17.4871 22.8305 17.4912 22.3386 17.4953C21.3548 17.5035 20.3711 17.5117 19.3873 17.4871C18.7602 17.4871 18.2068 17.3026 17.8748 16.7124C17.8647 16.6972 17.8538 16.6812 17.8426 16.6647C17.772 16.5611 17.6853 16.4338 17.6535 16.3066C17.5797 16.1221 17.5059 15.9377 17.5428 15.7532C17.6535 15.0892 18.0224 14.6096 18.6864 14.4251C18.9446 14.3514 19.2398 14.3145 19.5349 14.3145C20.3492 14.3145 21.1595 14.3186 21.9669 14.3227H21.9671C23.5738 14.3309 25.1696 14.339 26.7655 14.3145C27.8353 14.3145 28.7207 14.9416 28.6838 16.1959C28.6838 16.8784 28.693 17.5609 28.7022 18.2433C28.7114 18.9258 28.7207 19.6083 28.7207 20.2908C28.7207 20.5305 28.7022 20.7611 28.6838 20.9917L28.6838 20.9917C28.6653 21.2223 28.6469 21.4528 28.6469 21.6926C28.6469 22.1722 28.61 22.6149 28.4255 23.0207C28.3518 23.242 28.1673 23.4265 27.9828 23.574C27.6139 23.8692 27.1713 23.906 26.7286 23.906H20.8998C20.3282 23.906 19.7473 23.8968 19.1663 23.8876L19.166 23.8876C18.585 23.8784 18.0039 23.8692 17.4321 23.8692C17.1001 23.8692 17.0632 23.906 17.0632 24.2012V27.2262C17.0632 27.2958 17.0714 27.3655 17.0801 27.439V27.439L17.0801 27.4391C17.0898 27.5213 17.1001 27.6084 17.1001 27.7058C17.2477 27.7427 17.3952 27.7427 17.5059 27.7427H27.0975C27.7615 27.7427 28.3518 27.5951 28.9789 27.4107C29.938 27.1524 30.6759 26.5991 31.3768 25.935C32.1146 25.271 32.5573 24.4594 32.7048 23.5002C32.8155 22.91 32.8155 22.2829 32.8155 21.6926C32.8524 20.1801 32.8524 18.7045 32.8524 17.1919C32.8524 16.6017 32.8524 16.0114 32.8155 15.4212C32.7973 15.1843 32.7858 14.9497 32.7744 14.7168ZM71.5507 20.4014V19.1103H71.5511C72.7314 19.1103 73.8749 19.1103 74.8709 19.0734C75.4242 19.0734 75.7194 19.4423 75.7194 19.9956C75.7562 22.1353 75.7562 24.2749 75.7562 26.4146V27.4844L75.7577 27.4964C75.7932 27.7806 75.7977 27.8165 76.1251 27.8165H78.0066C78.0619 27.8165 78.1172 27.8072 78.1726 27.798C78.2279 27.7888 78.2832 27.7796 78.3386 27.7796V19.0734C78.3755 19.0734 78.4124 19.0641 78.4493 19.0549C78.4861 19.0457 78.523 19.0365 78.5599 19.0365H80.5889C81.1792 19.0365 81.5112 19.3685 81.5112 19.9956C81.5481 20.4383 81.5481 20.881 81.5481 21.3237V27.2631V27.8165H83.9091C83.9829 27.8165 84.0566 27.7058 84.0935 27.632C84.1304 27.5582 84.1304 27.4475 84.1304 27.3369V24.2381C84.1304 23.7325 84.1345 23.2311 84.1386 22.731V22.7304C84.1468 21.7346 84.155 20.7442 84.1304 19.7374C84.1304 19.0734 84.0566 18.3724 83.6877 17.7453C83.0237 16.6386 82.0276 16.0483 80.7734 15.9746C79.9439 15.9193 79.0937 15.9261 78.2383 15.933C77.9524 15.9353 77.6659 15.9377 77.3794 15.9377C77.195 15.9377 77.1212 16.0483 77.1212 16.2328V16.7124H77.0474C77.0105 16.6939 76.9644 16.6663 76.9183 16.6386C76.8722 16.6109 76.8261 16.5833 76.7892 16.5648C76.2358 16.1959 75.6087 15.9746 74.9446 15.9746H70.2226C69.6324 15.9746 69.1528 16.3804 69.0421 16.9337C69.0052 17.1919 68.9684 17.4502 68.9684 17.7084V26.7466V27.5582C68.9684 27.7796 69.079 27.8902 69.3004 27.8902H71.2556C71.4769 27.8902 71.5507 27.8164 71.5507 27.5951V27.3369V20.4014ZM62.0698 27.8904H59.635C58.2701 27.9273 57.0527 27.0051 56.5731 25.7877C56.2411 24.9761 56.1673 24.1645 56.278 23.316C56.2964 23.2238 56.2964 23.1316 56.2964 23.0394V23.0393C56.2964 22.9471 56.2964 22.8549 56.3149 22.7627C56.5731 21.287 58.0118 19.9221 59.635 19.959H64.025C64.3201 19.959 64.3939 19.9959 64.3939 20.3279V22.5044C64.3939 22.8733 64.3201 22.9102 63.9881 22.9102H60.1884H59.7826C59.1555 22.9102 58.7865 23.316 58.7128 23.9063C58.639 24.3858 59.1555 24.9392 59.6719 25.013H59.9302H64.2464C65.058 25.013 65.4269 24.5334 65.4638 23.8325C65.4883 23.0239 65.4802 22.2154 65.472 21.396V21.3959V21.3958V21.3957V21.3957V21.3956V21.3955V21.3954V21.3953V21.3953V21.3952V21.3951V21.395V21.3949C65.4679 20.981 65.4638 20.5643 65.4638 20.1434C65.4638 19.4056 65.058 18.9629 64.2832 18.9998H59.2292C58.8234 18.9998 58.7865 18.9629 58.7865 18.5571V16.4543C58.7865 16.0117 58.8234 16.0117 59.2661 16.0117H64.2832C65.9064 16.0117 67.0132 16.8233 67.751 18.2251C67.8248 18.3727 67.8616 18.5571 67.8616 18.7416C67.8743 18.919 67.8913 19.0921 67.9082 19.2638C67.9405 19.5919 67.9723 19.9151 67.9723 20.2541C67.9723 21.4346 67.9723 22.5782 67.9354 23.7587C67.8985 24.5334 67.8248 25.2712 67.4927 25.9721C67.05 26.8944 66.386 27.5215 65.39 27.8167C65.2424 27.8536 65.0948 27.8904 64.9104 27.8904H62.0698ZM54.3597 17.2657C54.3228 17.1919 54.2859 17.1181 54.2121 17.0444L54.1014 17.0812C54.0645 17.0628 54.0369 17.0351 54.0092 17.0075C53.9815 16.9798 53.9539 16.9521 53.917 16.9337C53.3267 16.3803 52.6258 16.0483 51.7773 16.0483H46.7971C46.6834 16.0483 46.5812 16.0466 46.4869 16.0449H46.4869C45.9692 16.0361 45.6931 16.0314 45.1001 16.3434C45.0609 16.3826 45.0009 16.401 44.9367 16.4207C44.88 16.438 44.82 16.4564 44.7681 16.491C44.722 16.5371 44.7143 16.5448 44.705 16.5487C44.7032 16.5495 44.7012 16.5502 44.6989 16.5509C44.6851 16.5555 44.6574 16.5648 44.5468 16.6386L44.3992 16.7861C44.3258 16.8921 44.2524 16.9909 44.1814 17.0865L44.1812 17.0868L44.1812 17.0868C43.9311 17.4235 43.7107 17.7202 43.6245 18.1511C43.44 19.184 43.3662 20.1801 43.6245 21.213C43.8089 21.9877 44.2516 22.6517 44.8788 23.1682C45.5059 23.6847 46.2806 23.8322 47.0553 23.8322H51.1871C51.556 23.8322 51.5929 23.7584 51.5929 23.4264V21.6557C51.5929 20.9548 51.5929 20.9548 50.8919 20.9548H47.0922C46.3544 20.9179 45.8748 20.3645 45.9855 19.6636C46.0593 19.184 46.4282 18.8889 47.0184 18.8889H51.5929C52.2569 18.8889 52.6627 19.3316 52.6627 19.9218C52.6627 20.3004 52.6755 20.679 52.6882 21.0577C52.724 22.1178 52.7598 23.1779 52.5151 24.238C52.3676 24.7914 52.22 25.0127 51.6666 25.0865C51.5191 25.1234 51.3715 25.1234 51.224 25.1234H51.224H49.3425C48.863 25.1234 48.3834 25.1142 47.9038 25.105C47.4242 25.0957 46.9446 25.0865 46.4651 25.0865C46.1699 25.0865 46.133 25.1234 46.133 25.3447V27.5951C46.133 27.6742 46.1436 27.7426 46.1535 27.8062L46.1535 27.8062L46.1535 27.8065C46.162 27.8614 46.1699 27.9127 46.1699 27.964C46.2806 28.0009 46.3544 28.0009 46.3913 28.0009H51.4453C51.5584 27.9883 51.6758 27.98 51.7946 27.9716L51.7947 27.9716C52.0245 27.9554 52.2594 27.9388 52.4782 27.8902C53.6956 27.5582 54.5072 26.7835 54.8392 25.5661C55.0237 24.8652 55.0606 24.1643 55.0975 23.4634V23.4633C55.1529 22.5768 55.1459 21.6696 55.139 20.7727V20.7726V20.7721V20.7716V20.7711V20.7706V20.7701V20.7696V20.7691V20.7686V20.768C55.1367 20.4722 55.1344 20.1774 55.1344 19.8849C55.1344 19.7743 55.1159 19.6544 55.0975 19.5345C55.079 19.4146 55.0606 19.2947 55.0606 19.184C55.0237 18.4831 54.8392 17.8191 54.3597 17.2657ZM102.686 16.8232C102.875 16.6819 103.048 16.6007 103.216 16.5221L103.216 16.5221C103.311 16.4776 103.405 16.4339 103.498 16.3805C103.978 16.1223 104.531 15.9747 105.084 15.9747C105.675 15.9747 106.265 15.9706 106.855 15.9665C108.036 15.9583 109.216 15.9501 110.397 15.9747C111.466 16.0116 112.241 16.6019 112.868 17.4504C113.348 18.0775 113.458 18.8522 113.458 19.59C113.495 21.101 113.458 22.612 113.422 24.1229V24.1234V24.1239V24.1243V24.1248V24.1252V24.1257V24.1262V24.1266V24.1271V24.1276C113.385 25.0129 113.237 25.8614 112.684 26.5624C112.094 27.3371 111.356 27.8166 110.397 27.8904C109.899 27.9089 109.401 27.9181 108.903 27.9273L108.902 27.9273C108.404 27.9365 107.906 27.9457 107.408 27.9642H104.826C104.494 27.9642 104.494 27.9642 104.494 27.6322V25.3081C104.494 25.1236 104.568 25.0498 104.715 25.0498H105.564H109.88C110.249 25.0498 110.618 24.9392 110.765 24.5703C110.839 24.3489 110.913 24.0907 110.95 23.8693C111.097 22.8109 111.056 21.7525 111.015 20.6755C111.005 20.401 110.994 20.1254 110.987 19.8483C110.987 19.3318 110.581 18.926 110.065 18.8522H109.769H105.527C105.269 18.8522 105.011 18.926 104.789 18.9998C104.42 19.1842 104.273 19.5162 104.346 19.922C104.42 20.2909 104.568 20.6598 105.011 20.7705C105.232 20.8443 105.453 20.8812 105.675 20.8812H109.622C109.806 20.8812 109.898 20.8812 109.94 20.9271C109.982 20.9731 109.972 21.0653 109.954 21.2501V23.316V23.7218C109.875 23.7218 109.796 23.7324 109.722 23.7422C109.659 23.7507 109.599 23.7587 109.548 23.7587H105.638C105.232 23.7587 104.826 23.7218 104.42 23.648C103.129 23.316 102.391 22.3937 102.059 21.1763C101.801 20.2172 101.801 19.1842 102.059 18.2251C102.17 17.8193 102.281 17.4873 102.502 17.1552L102.686 16.8232ZM43.0342 0.0377231H40.747C40.0092 0.0377231 39.2345 0.0377248 38.5336 0.111506C37.4638 0.0746154 36.6522 0.554192 35.9512 1.3289C35.2872 2.1036 35.0659 3.02587 35.0659 3.98502C35.029 5.31309 35.029 6.60426 35.0659 7.93232C35.1028 8.59635 35.1765 9.26039 35.4348 9.88753C35.9881 11.1787 37.1686 11.9903 38.5705 11.9903H42.7391C43.1449 11.9903 43.1818 11.9903 43.1818 11.5476V9.48173C43.1449 9.07593 43.1449 9.07593 42.7391 9.07593H38.8656C38.6812 9.07593 38.4598 9.03904 38.2754 9.00215C37.9433 8.92837 37.7589 8.70703 37.6113 8.4119C37.4535 8.12787 37.4577 7.87083 37.4622 7.5946C37.463 7.54794 37.4638 7.50073 37.4638 7.45275V7.4524C37.4638 6.3458 37.4638 5.27608 37.5007 4.16948C37.5375 3.39477 37.9433 2.98897 38.6812 2.98897H39.1607H43.108C43.7721 2.98897 44.2147 3.43166 44.2147 4.02191C44.2147 4.53838 43.9196 5.09174 43.1449 5.09174H41.9644H38.9763C38.6074 5.09174 38.5705 5.12863 38.5705 5.49754V7.56342C38.5705 7.96921 38.6074 8.00611 38.9763 8.00611H43.1818C44.8788 8.00611 46.0593 6.89939 46.4651 5.42376C46.7233 4.53838 46.6864 3.65301 46.5758 2.76763C46.5389 2.47251 46.4282 2.17738 46.2806 1.91915C45.5428 0.701757 44.473 0.0377231 43.0342 0.0377231ZM82.0276 11.9535V11.1788V9.11289C82.0276 8.89155 82.0645 8.85466 82.3597 8.85466C83.1528 8.85466 83.9367 8.86388 84.7207 8.8731C85.5046 8.88233 86.2885 8.89155 87.0817 8.89155H88.8155C89.0369 8.89155 89.2951 8.85466 89.5165 8.74399C89.8485 8.59643 90.0329 8.11685 89.9591 7.71105C89.8485 7.19458 89.6271 6.97324 89.1476 6.89946C89.0479 6.87454 88.9314 6.88328 88.8208 6.89158C88.7676 6.89557 88.7159 6.89946 88.668 6.89946C87.3399 6.89946 86.0487 6.89945 84.7207 6.86256C83.4664 6.82567 82.6548 6.12475 82.1752 5.01803C81.8063 4.09576 81.7694 3.13661 82.0276 2.21434C82.3228 1.21829 83.0237 0.554265 83.9829 0.25914C84.3149 0.148468 84.7207 0.111576 85.0896 0.111576H90.8445C90.8998 0.111576 90.9644 0.120799 91.029 0.130021C91.0935 0.139244 91.1581 0.148467 91.2134 0.148467C91.2134 0.227443 91.224 0.295852 91.2338 0.35935V0.359385V0.35942V0.359455V0.359491V0.359526V0.359561V0.359596C91.2424 0.414647 91.2503 0.46601 91.2503 0.517373V2.80459C91.2503 3.1735 91.2134 3.21039 90.8445 3.21039H85.2002C85.0158 3.21039 84.8682 3.21039 84.6838 3.24728C84.4993 3.28417 84.4255 3.43173 84.4624 3.61619C84.4624 3.80064 84.61 3.87442 84.7576 3.91131C84.808 3.93652 84.8756 3.92728 84.937 3.91889C84.9654 3.91501 84.9924 3.91131 85.0158 3.91131C85.4216 3.91131 85.8274 3.91541 86.2332 3.91951C87.0448 3.92771 87.8564 3.9359 88.668 3.91131C90.328 3.87442 91.4348 4.61223 92.1726 6.05097C92.3145 6.33481 92.354 6.65278 92.3897 6.93923L92.3939 6.97324C92.3939 7.13982 92.3962 7.30641 92.3986 7.47242C92.4055 7.96812 92.4123 8.45863 92.357 8.92844C92.1726 10.2565 91.4348 11.4739 89.7378 11.9166C89.4427 11.9904 89.1107 12.0273 88.7786 12.0273H82.3228C82.2859 11.9535 82.1752 11.9535 82.0276 11.9535ZM112.665 3.37633C112.675 3.31177 112.684 3.24721 112.684 3.17343C112.758 3.13654 112.794 3.13654 112.758 3.17343C113.236 3.17343 113.718 3.16935 114.202 3.16527L114.202 3.16527C115.173 3.15706 116.15 3.1488 117.111 3.17343C118.402 3.21032 119.177 4.28015 119.177 5.31309V11.3632V11.6952C119.177 11.9165 119.287 11.9903 119.509 11.9903H121.501C121.538 11.9903 121.574 11.9811 121.611 11.9718C121.648 11.9626 121.685 11.9534 121.722 11.9534C121.759 11.8427 121.759 11.8058 121.759 11.7321V4.4646C121.759 3.50544 121.427 2.62007 120.8 1.88226C119.804 0.627973 118.476 0.0377231 116.889 0.0377231H111.466C111.411 0.0377231 111.347 0.0469463 111.282 0.0561696L111.282 0.0561734C111.217 0.0653953 111.153 0.074616 111.098 0.074616C110.581 0.148397 110.175 0.517303 110.065 1.03377C110.028 1.21823 110.028 1.36579 110.028 1.55024V11.5845C110.028 11.6359 110.036 11.6872 110.044 11.7423C110.054 11.8058 110.065 11.8743 110.065 11.9534H112.573C112.573 11.8612 112.582 11.7689 112.592 11.6767C112.601 11.5845 112.61 11.4923 112.61 11.4C112.647 8.78081 112.647 6.19846 112.647 3.57923C112.647 3.5055 112.656 3.44098 112.665 3.37647L112.665 3.37633ZM91.5454 19.1472C91.5454 19.8665 91.5362 20.5859 91.527 21.3053C91.5178 22.0246 91.5086 22.744 91.5086 23.4634V27.8533C91.4532 27.8533 91.4071 27.8626 91.361 27.8718C91.3149 27.881 91.2688 27.8902 91.2134 27.8902H89.3689C89.0369 27.8902 88.9631 27.8165 88.9631 27.4844V26.5991V17.7084C88.9631 17.4792 88.9922 17.279 89.0245 17.0563L89.0369 16.9706C89.1476 16.3804 89.664 15.9746 90.2912 15.9746H93.9433H95.8616C97.6693 16.0114 99.108 16.7861 100.067 18.2987C100.436 18.8889 100.657 19.5529 100.657 20.2539C100.657 21.4159 100.667 22.5872 100.676 23.7585C100.685 24.9298 100.694 26.101 100.694 27.2631V27.4844C100.657 27.7796 100.621 27.8165 100.325 27.8165H98.4809C98.1858 27.8165 98.1489 27.7796 98.1489 27.4844V25.2341C98.1489 24.5891 98.1397 23.9348 98.1305 23.2805L98.1304 23.2789C98.1212 22.6241 98.112 21.9693 98.112 21.3237C98.112 20.4383 97.78 19.7005 96.9315 19.2578C96.6732 19.1472 96.415 19.0365 96.1199 19.0365C95.1129 19.0119 94.1223 19.0201 93.1263 19.0282H93.1262H93.1261H93.1261H93.126H93.1259C92.626 19.0324 92.1247 19.0365 91.6192 19.0365C91.6561 19.1103 91.6192 19.1472 91.5454 19.1472ZM50.2648 0.628119V0.0747595C50.2315 0.0747595 50.2039 0.0728851 50.1798 0.0712488C50.0968 0.0656257 50.0554 0.062814 49.9697 0.14854C49.3794 0.111649 48.7892 0.11165 48.1989 0.11165C47.6087 0.074759 47.6087 0.0747595 47.6087 0.628119V0.628749C47.6087 2.65753 47.6087 4.72319 47.6455 6.75197C47.6455 7.60045 47.83 8.41204 48.162 9.22364C48.8629 10.8468 50.5599 11.9904 52.3307 11.9904H58.1225C58.639 11.9904 59.0079 11.7322 59.2292 11.2895C59.387 10.9739 59.3828 10.6583 59.3783 10.3196V10.3196C59.3775 10.2624 59.3768 10.2045 59.3768 10.1459C59.4137 7.71112 59.4137 5.31323 59.4137 2.87845V0.332993C59.4137 0.000976562 59.3768 0.000976562 59.0816 0.000976562C58.805 0.000976562 58.5375 0.0101991 58.2701 0.0194216C58.0026 0.0286441 57.7351 0.0378666 57.4585 0.0378666C56.8313 0.0378666 56.8313 0.0378683 56.8313 0.665009C56.8682 3.24735 56.8682 5.86659 56.8682 8.44894C56.8682 8.67028 56.8682 8.78095 56.8129 8.83629C56.7575 8.89162 56.6469 8.89162 56.4255 8.89162H52.5889C52.2569 8.89162 51.9249 8.85473 51.6297 8.74406C50.7075 8.37516 50.2648 7.60045 50.2648 6.67818C50.2402 5.32701 50.2484 3.99219 50.2566 2.65195V2.65162C50.2607 1.9794 50.2648 1.30582 50.2648 0.628119ZM63.3241 11.9535H61.0369C60.8893 11.9535 60.8155 11.8798 60.7786 11.7322C60.7786 11.6769 60.7694 11.6215 60.7602 11.5662C60.751 11.5109 60.7417 11.4555 60.7417 11.4002V4.05895C60.7417 3.61626 60.7786 3.17357 60.8893 2.73089C61.1475 1.58728 61.9222 0.812571 62.9552 0.332993C63.4347 0.111649 63.9143 0.0378666 64.4308 0.0378666C65.3162 0.0378666 66.2015 0.0286441 67.0869 0.0194216C67.9723 0.0101991 68.8577 0.000976562 69.743 0.000976562C70.0751 0.000976562 70.0751 0.0378678 70.0751 0.332993V2.69399C70.0751 2.89689 70.0751 2.99834 70.0243 3.04907C69.9736 3.09979 69.8722 3.09979 69.6693 3.09979H64.689C64.5046 3.09979 64.3201 3.09979 64.1357 3.13668C63.5823 3.21046 63.3241 3.54248 63.2872 4.09584V5.12878V11.474C63.3241 11.6215 63.3241 11.7691 63.3241 11.9535V11.9535ZM93.5375 0.074616V11.9534H93.9064H95.6772C96.0092 11.9165 96.0461 11.8796 96.083 11.5476V11.3632V2.1036V0.332849C96.083 0.0377242 96.0461 0.0377231 95.751 0.0377231H93.8326C93.7773 0.0377231 93.7312 0.0469463 93.6851 0.0561696C93.639 0.0653928 93.5929 0.074616 93.5375 0.074616ZM85.274 27.8902V15.9746H87.5981C87.7457 15.9746 87.8195 16.0483 87.8195 16.1959V16.491V27.3738C87.8195 27.8165 87.7826 27.8533 87.3399 27.8533C86.6759 27.8902 86.0119 27.8902 85.2742 27.8902H85.274ZM12.0461 13.7242H11.6772H5.62712C4.26217 13.7242 4.29906 12.5437 4.29906 12.5437V6.86249C4.29906 4.90729 5.81158 4.75973 5.81158 4.75973H13.9644C13.9644 4.75973 15.3294 5.01796 15.3294 6.41981C15.3294 7.82165 14.0013 7.82165 14.0013 7.82165H6.36494C5.95914 7.82165 5.99603 8.22745 5.99603 8.22745V11.9903C5.99603 12.3592 6.29115 12.2854 6.29115 12.2854H13.6693C19.6825 12.2854 19.4242 7.04695 19.4242 7.04695V3.21032C19.4242 0.996882 15.9196 0.849319 15.9196 0.849319C15.9196 0.849319 10.7549 0.775536 5.51645 0.775536C0.277979 0.775536 0.241089 3.80057 0.241089 3.80057V13.2446C0.241089 17.3394 3.3399 17.7083 3.3399 17.7083H12.0461C12.4519 17.7083 12.415 17.4132 12.415 17.4132V14.0562C12.415 13.6504 12.0461 13.7242 12.0461 13.7242Z" fill="#00AB55"/>
</g>
<defs>
<clipPath id="clip0_4132_7391">
<rect width="121.518" height="28" fill="white" transform="translate(0.241089 0.000976562)"/>
</clipPath>
</defs>
</svg>
