<svg width="100" height="36" viewBox="0 0 100 36" fill="none" xmlns="http://www.w3.org/2000/svg">
<g clip-path="url(#clip0_4595_7940)">
<path fill-rule="evenodd" clip-rule="evenodd" d="M46.9077 8.55181C46.9865 8.5675 47.0681 8.57534 47.1524 8.57534C49.6798 8.57455 52.2216 8.57397 54.7777 8.57357C54.7981 8.57357 54.8083 8.58357 54.8083 8.60357L54.8071 9.92887C54.8071 9.94808 54.7973 9.95769 54.7777 9.95769L45.4295 9.95828C45.3906 9.95828 45.3712 9.93906 45.3712 9.90063V0.366514C45.3712 0.359182 45.3741 0.35215 45.3793 0.346965C45.3845 0.34178 45.3915 0.338867 45.3989 0.338867H46.8412C46.8496 0.338867 46.8577 0.342276 46.8637 0.348343C46.8696 0.354411 46.873 0.36264 46.873 0.37122L46.8724 8.50887C46.8724 8.53279 46.8842 8.5471 46.9077 8.55181ZM65.7647 8.59474V9.93827C65.7647 9.94388 65.7625 9.94927 65.7585 9.95324C65.7546 9.95721 65.7492 9.95944 65.7436 9.95944L56.3436 9.95768C56.3419 9.95768 56.3402 9.95747 56.3385 9.95707L56.3355 9.95607C56.3329 9.955 56.3306 9.95344 56.3286 9.95148L56.3275 9.95031C56.3267 9.94938 56.326 9.94838 56.3254 9.94732L56.324 9.9446C56.3229 9.94203 56.3224 9.93928 56.3224 9.9365L56.323 0.360618C56.323 0.355002 56.3252 0.349615 56.3292 0.345644C56.3332 0.341673 56.3385 0.339442 56.3442 0.339442H57.8159C57.8215 0.339442 57.8269 0.341673 57.8309 0.345644C57.8349 0.349615 57.8371 0.355002 57.8371 0.360618L57.8377 8.55238C57.8377 8.55516 57.8382 8.55792 57.8393 8.56049C57.8404 8.56306 57.8419 8.56539 57.8439 8.56736C57.8459 8.56932 57.8482 8.57088 57.8508 8.57195C57.8533 8.57301 57.8561 8.57356 57.8589 8.57356H65.7436C65.7492 8.57356 65.7546 8.57579 65.7585 8.57976C65.7625 8.58373 65.7647 8.58912 65.7647 8.59474ZM2.34592 4.1218L2.35063 1.82886C2.35063 1.80533 2.36239 1.79357 2.38592 1.79357L9.81122 1.79298C9.82323 1.79298 9.83475 1.78827 9.84324 1.77989C9.85174 1.7715 9.85651 1.76013 9.85651 1.74827L9.86004 0.40651C9.86004 0.402802 9.85932 0.399131 9.85793 0.395705C9.85655 0.392279 9.85451 0.389167 9.85194 0.386545C9.84937 0.383923 9.84633 0.381843 9.84297 0.380424C9.83962 0.379005 9.83602 0.378275 9.83239 0.378275L0.857099 0.378863C0.851794 0.378863 0.846707 0.38097 0.842956 0.384721C0.839206 0.388472 0.837099 0.393559 0.837099 0.398863V9.98592C0.837052 9.9906 0.838194 9.99522 0.840417 9.99933C0.842641 10.0035 0.845873 10.0069 0.849811 10.0095C0.85375 10.012 0.858265 10.0135 0.862935 10.0138C0.867605 10.0141 0.872276 10.0132 0.87651 10.0112C0.883177 10.0081 0.89102 10.0045 0.90004 10.0006C0.907099 9.99788 0.91455 9.99651 0.922393 9.99651C4.02396 10 7.12572 10.0006 10.2277 9.99827C10.2536 9.99827 10.2665 9.98533 10.2665 9.95945L10.2689 8.64298C10.2689 8.6171 10.2561 8.60416 10.2306 8.60416L2.3818 8.60592C2.37748 8.60592 2.37319 8.60509 2.3692 8.60346C2.3652 8.60183 2.36157 8.59945 2.35851 8.59645C2.35545 8.59344 2.35303 8.58987 2.35137 8.58595C2.34972 8.58202 2.34886 8.57782 2.34886 8.57357L2.35004 5.60474C2.35004 5.5971 2.35308 5.58977 2.35848 5.58436C2.36389 5.57896 2.37122 5.57592 2.37886 5.57592C3.97886 5.57043 5.58259 5.57239 7.19004 5.5818C7.20926 5.5822 7.22886 5.58298 7.24886 5.58416C7.25269 5.58448 7.25654 5.58401 7.26017 5.58277C7.2638 5.58153 7.26713 5.57954 7.26995 5.57694C7.27277 5.57434 7.27502 5.57118 7.27656 5.56766C7.27809 5.56415 7.27888 5.56035 7.27886 5.55651L7.27945 4.19122C7.27945 4.18141 7.27455 4.17651 7.26475 4.17651L2.40063 4.1771C2.36416 4.1771 2.34592 4.15867 2.34592 4.1218ZM68.8195 5.59592V8.58298C68.8195 8.58875 68.8217 8.59429 68.8258 8.59837C68.8299 8.60245 68.8354 8.60475 68.8412 8.60475H76.7324C76.7382 8.60475 76.7437 8.60704 76.7478 8.61112C76.7519 8.6152 76.7542 8.62074 76.7542 8.62651L76.7495 9.97769C76.7495 9.98346 76.7472 9.98899 76.7431 9.99308C76.739 9.99716 76.7335 9.99945 76.7277 9.99945L67.3312 9.99886C67.3284 9.99886 67.3255 9.9983 67.3229 9.99721L67.3214 9.99651L67.3195 9.99543C67.3182 9.99459 67.3169 9.9936 67.3158 9.99249L67.314 9.99046L67.3128 9.98873C67.3122 9.98769 67.3116 9.98658 67.3111 9.98543C67.31 9.98279 67.3094 9.97996 67.3094 9.9771L67.3089 0.400039C67.3089 0.394267 67.3112 0.388731 67.3152 0.384649C67.3193 0.380568 67.3249 0.378275 67.3306 0.378275L76.3118 0.378863C76.3176 0.378863 76.3231 0.381156 76.3272 0.385238C76.3313 0.389319 76.3336 0.394855 76.3336 0.400628L76.3294 1.77122C76.3294 1.77699 76.3272 1.78252 76.3231 1.78661C76.319 1.79069 76.3135 1.79298 76.3077 1.79298L68.8412 1.79416C68.8354 1.79416 68.8299 1.79645 68.8258 1.80053C68.8217 1.80461 68.8195 1.81015 68.8195 1.81592L68.8189 4.15475C68.8189 4.16052 68.8212 4.16605 68.8252 4.17014C68.8293 4.17422 68.8349 4.17651 68.8406 4.17651H73.7289C73.7346 4.17651 73.7402 4.1788 73.7442 4.18288C73.7483 4.18697 73.7506 4.1925 73.7506 4.19827L73.7512 5.55298C73.7512 5.55584 73.7506 5.55867 73.7496 5.56131C73.7489 5.56296 73.748 5.56451 73.7469 5.56594L73.7448 5.56837C73.7428 5.57039 73.7404 5.57199 73.7378 5.57309C73.7351 5.57418 73.7323 5.57475 73.7294 5.57475L68.8412 5.57416C68.8354 5.57416 68.8299 5.57645 68.8258 5.58053C68.8217 5.58461 68.8195 5.59015 68.8195 5.59592ZM19.7665 0.409481L16.7377 4.02183C16.7185 4.04458 16.6995 4.04458 16.6806 4.02183L13.6783 0.435951C13.6634 0.418251 13.6447 0.404026 13.6237 0.394272C13.6027 0.384517 13.5797 0.379469 13.5565 0.379481L11.8077 0.381834C11.8058 0.381891 11.8039 0.382468 11.8023 0.383495C11.8007 0.384522 11.7994 0.385957 11.7986 0.38763C11.7978 0.389302 11.7975 0.391141 11.7978 0.392929C11.798 0.394717 11.7988 0.396378 11.8 0.397716L15.7577 5.15183C15.771 5.16791 15.771 5.18399 15.7577 5.20007L11.7747 9.9536C11.7715 9.95744 11.7694 9.96212 11.7688 9.9671C11.7681 9.97208 11.7688 9.97715 11.7709 9.98171C11.773 9.98627 11.7764 9.99015 11.7806 9.99288C11.7848 9.99561 11.7897 9.99708 11.7947 9.99713L13.4747 9.9983C13.4939 9.99829 13.5128 9.99407 13.5302 9.98594C13.5476 9.97781 13.563 9.96597 13.5753 9.95125C14.4518 8.91556 15.3334 7.8734 16.22 6.82477C16.3016 6.7283 16.3789 6.63909 16.4518 6.55713C16.4757 6.52968 16.5518 6.43556 16.68 6.27477C16.683 6.27105 16.6867 6.26804 16.691 6.26594C16.6952 6.26385 16.6999 6.26274 16.7046 6.26268C16.7093 6.26262 16.714 6.26363 16.7183 6.26562C16.7226 6.26761 16.7264 6.27054 16.7295 6.27419L19.8295 9.96242C19.8392 9.97403 19.8514 9.98336 19.8651 9.98976C19.8788 9.99617 19.8938 9.99948 19.9089 9.99948L21.6489 9.99595C21.6522 9.99589 21.6555 9.99496 21.6584 9.99325C21.6613 9.99155 21.6636 9.98913 21.6653 9.98625C21.6669 9.98337 21.6677 9.98013 21.6676 9.97687C21.6675 9.97361 21.6665 9.97045 21.6647 9.96772C21.6357 9.92066 21.6032 9.87556 21.5671 9.83242C20.2361 8.23674 18.9367 6.68124 17.6689 5.16595C17.6608 5.15643 17.6564 5.14439 17.6564 5.13199C17.6564 5.11959 17.6608 5.10764 17.6689 5.0983L21.6242 0.417716C21.6268 0.414456 21.6285 0.410514 21.629 0.406341C21.6295 0.402168 21.6289 0.397935 21.6271 0.394126C21.6253 0.390318 21.6225 0.387089 21.6189 0.38481C21.6154 0.382532 21.6113 0.381296 21.6071 0.381245H19.8271C19.8024 0.381245 19.7822 0.390657 19.7665 0.409481ZM32.5512 8.63298L32.5477 9.97004C32.5477 9.97768 32.5446 9.98501 32.5392 9.99042C32.5338 9.99583 32.5265 9.99886 32.5189 9.99886L23.5853 9.99945C23.5777 9.99945 23.5704 9.99641 23.5649 9.99101C23.5595 9.9856 23.5565 9.97827 23.5565 9.97063L23.5559 0.407098C23.5559 0.399454 23.559 0.392122 23.5644 0.386717C23.5698 0.381311 23.5771 0.378275 23.5847 0.378275H32.5165C32.5242 0.378275 32.5315 0.381311 32.5369 0.386717C32.5423 0.392122 32.5453 0.399454 32.5453 0.407098L32.5436 1.76475C32.5436 1.77239 32.5405 1.77972 32.5351 1.78513C32.5297 1.79053 32.5224 1.79357 32.5147 1.79357H25.08C25.0724 1.79357 25.0651 1.79661 25.0597 1.80201C25.0542 1.80742 25.0512 1.81475 25.0512 1.82239V8.57769C25.0512 8.58533 25.0542 8.59266 25.0597 8.59807C25.0651 8.60347 25.0724 8.60651 25.08 8.60651L32.5224 8.60416C32.53 8.60416 32.5374 8.60719 32.5428 8.6126C32.5482 8.618 32.5512 8.62534 32.5512 8.63298ZM35.9118 8.59536L35.9124 5.61594C35.9124 5.60861 35.9153 5.60158 35.9205 5.5964C35.9257 5.59121 35.9327 5.5883 35.94 5.5883L40.8259 5.58889C40.8296 5.58889 40.8331 5.58817 40.8365 5.58678C40.8399 5.58539 40.8429 5.58335 40.8455 5.58079C40.848 5.57822 40.8501 5.57517 40.8515 5.57182C40.8529 5.56846 40.8536 5.56487 40.8536 5.56124V4.23418C40.8536 4.23055 40.8529 4.22695 40.8515 4.2236C40.8501 4.22025 40.848 4.2172 40.8455 4.21463C40.8429 4.21206 40.8399 4.21003 40.8365 4.20864C40.8331 4.20725 40.8296 4.20653 40.8259 4.20653L35.94 4.20536C35.9327 4.20536 35.9257 4.20244 35.9205 4.19726C35.9153 4.19207 35.9124 4.18504 35.9124 4.17771L35.9118 1.84477C35.9118 1.84114 35.9125 1.83754 35.9139 1.83419C35.9153 1.83083 35.9173 1.82779 35.9199 1.82522C35.9225 1.82265 35.9255 1.82061 35.9289 1.81923C35.9322 1.81784 35.9358 1.81712 35.9394 1.81712L43.3989 1.8183C43.4062 1.8183 43.4132 1.81538 43.4184 1.8102C43.4236 1.80501 43.4265 1.79798 43.4265 1.79065L43.4253 0.429474C43.4253 0.422141 43.4224 0.415109 43.4172 0.409924C43.4121 0.404739 43.405 0.401827 43.3977 0.401827L34.4436 0.402415C34.4362 0.402415 34.4292 0.405328 34.424 0.410513C34.4188 0.415697 34.4159 0.42273 34.4159 0.430062L34.4153 9.98418C34.4153 9.99151 34.4182 9.99854 34.4234 10.0037C34.4286 10.0089 34.4356 10.0118 34.443 10.0118L43.8177 10.0106C43.825 10.0106 43.8321 10.0077 43.8372 10.0026C43.8424 9.99737 43.8453 9.99034 43.8453 9.983L43.8518 8.64889C43.8518 8.64155 43.8489 8.63452 43.8437 8.62934C43.8385 8.62415 43.8315 8.62124 43.8242 8.62124L35.9394 8.623C35.9358 8.623 35.9322 8.62229 35.9289 8.6209C35.9255 8.61951 35.9225 8.61747 35.9199 8.61491C35.9173 8.61234 35.9153 8.60929 35.9139 8.60594C35.9125 8.60258 35.9118 8.59899 35.9118 8.59536ZM89.6606 1.94826L89.6612 0.420025C89.6612 0.414253 89.6635 0.408717 89.6676 0.404635C89.6717 0.400554 89.6772 0.398261 89.683 0.398261L99.0706 0.393555C99.0764 0.393555 99.0819 0.395848 99.086 0.39993C99.0901 0.404011 99.0924 0.409547 99.0924 0.415319L99.09 1.94591C99.09 1.95168 99.0877 1.95722 99.0837 1.9613C99.0796 1.96538 99.074 1.96767 99.0683 1.96767L95.0365 1.97061C95.0307 1.97061 95.0252 1.97291 95.0211 1.97699C95.017 1.98107 95.0147 1.98661 95.0147 1.99238L95.0142 10.0094C95.0142 10.0123 95.0136 10.0151 95.0125 10.0178C95.0114 10.0204 95.0098 10.0228 95.0078 10.0248C95.0058 10.0269 95.0034 10.0285 95.0007 10.0295C94.9981 10.0306 94.9952 10.0312 94.9924 10.0312L93.6483 10.0336C93.6425 10.0336 93.637 10.0313 93.6329 10.0272C93.6288 10.0231 93.6265 10.0176 93.6265 10.0118L93.6259 1.98885C93.6259 1.98308 93.6236 1.97754 93.6195 1.97346C93.6155 1.96938 93.6099 1.96708 93.6042 1.96708L89.6824 1.97003C89.6766 1.97003 89.6711 1.96773 89.667 1.96365C89.6629 1.95957 89.6606 1.95403 89.6606 1.94826ZM78.3124 10.0336L79.6606 10.0324C79.6655 10.0324 79.6701 10.0305 79.6735 10.027C79.6769 10.0236 79.6789 10.019 79.6789 10.0141V2.22179C79.6789 2.21806 79.6802 2.21445 79.6823 2.21143C79.6845 2.20841 79.6876 2.20614 79.6911 2.20492C79.6947 2.2037 79.6985 2.20359 79.7021 2.20461C79.7057 2.20563 79.7088 2.20773 79.7112 2.21062L85.9847 10.0289L85.9867 10.031L85.9873 10.0316L85.9888 10.0327L85.991 10.034C85.9934 10.0352 85.9961 10.0359 85.9989 10.0359L87.7324 10.0477C87.7372 10.0477 87.7419 10.0458 87.7453 10.0423C87.7487 10.0389 87.7506 10.0343 87.7506 10.0294V0.447089C87.7506 0.442253 87.7487 0.437614 87.7453 0.434195C87.7419 0.430775 87.7372 0.428854 87.7324 0.428854L86.3794 0.430618C86.3746 0.430618 86.37 0.43254 86.3666 0.435959C86.3631 0.439379 86.3612 0.444017 86.3612 0.448854L86.3642 8.27356C86.3641 8.27729 86.3629 8.28091 86.3607 8.28393C86.3585 8.28694 86.3554 8.28922 86.3519 8.29043C86.3484 8.29165 86.3445 8.29176 86.3409 8.29074C86.3373 8.28972 86.3342 8.28763 86.3318 8.28474L80.0371 0.435324C80.0354 0.433273 80.0332 0.431629 80.0308 0.430511C80.0283 0.429392 80.0257 0.428826 80.023 0.428854L78.3112 0.412971C78.3064 0.412971 78.3017 0.414892 78.2983 0.418312C78.2949 0.421732 78.293 0.42637 78.293 0.431207L78.2942 10.0153C78.2942 10.0202 78.2961 10.0248 78.2995 10.0282C78.3029 10.0316 78.3076 10.0336 78.3124 10.0336ZM76.1689 19.7812C76.1673 19.0945 76.1669 18.4075 76.1677 17.72C76.1677 17.6783 76.168 17.6376 76.1684 17.5977V17.5975V17.5974V17.5972C76.1717 17.2144 76.1743 16.9083 75.8612 16.5877C75.6608 16.3826 75.4085 16.28 75.1042 16.28C58.2473 16.2804 41.3887 16.2802 24.5283 16.2794C24.4569 16.2794 24.3869 16.2832 24.3183 16.2906C24.2038 16.3036 24.1232 16.3216 24.0765 16.3447C23.6687 16.5467 23.4496 16.8738 23.4195 17.3259L22.1853 17.323C22.1924 17.0351 22.2393 16.761 22.3259 16.5006C22.3506 16.4261 22.4236 16.2843 22.5447 16.0753C22.5816 16.0114 22.62 15.9577 22.66 15.9141C22.7083 15.8612 22.7547 15.8047 22.7995 15.7447C22.8073 15.7341 22.8175 15.7267 22.83 15.7224C22.8359 15.72 22.8418 15.7183 22.8477 15.7171C22.8547 15.7155 22.8604 15.712 22.8647 15.7065C22.9636 15.5904 23.0712 15.501 23.1877 15.4383C23.2524 15.4034 23.3153 15.3643 23.3765 15.3212C23.4357 15.28 23.4993 15.2449 23.5671 15.2159C23.8381 15.0994 24.122 15.0412 24.4189 15.0412C41.5475 15.0424 58.4661 15.0422 75.1747 15.0406C76.4489 15.0406 77.4171 16.13 77.4142 17.3388C77.4122 18.1518 77.411 18.9722 77.4106 19.8C78.4671 19.8004 79.5238 19.8 80.5807 19.7989C81.0159 19.7985 81.3132 19.8212 81.4724 19.8671C81.993 20.0165 82.4165 20.4194 82.593 20.94C82.6408 21.0804 82.6648 21.2473 82.6648 21.4406C82.6616 24.4265 82.6609 27.2936 82.6624 30.0418C82.6624 30.19 82.6265 30.3559 82.5689 30.493C82.3626 30.9824 82.0114 31.3098 81.5154 31.4753C81.3491 31.531 80.9791 31.5589 80.4054 31.5589C79.4136 31.5585 78.4175 31.5592 77.4171 31.5612C77.4161 31.6066 77.4154 31.6521 77.4146 31.6977C77.4107 31.943 77.4068 32.1901 77.3577 32.4212C77.1847 33.2312 76.5706 33.8977 75.7653 34.1306C75.5747 34.1855 75.3489 34.213 75.0877 34.213C57.6642 34.2039 40.7892 34.2032 24.463 34.2106C23.9283 34.2106 23.4906 34.0689 23.0759 33.7477C22.6822 33.4422 22.4147 33.0502 22.2736 32.5718C22.2194 32.3879 22.1916 32.0887 22.19 31.6741C22.1873 30.8197 22.1877 29.9585 22.1912 29.0907L18.7212 29.0865C18.7017 29.0866 18.6826 29.0804 18.6665 29.0689C18.6246 29.0386 18.5808 29.0365 18.5347 29.0342C18.5012 29.0326 18.4666 29.0309 18.4306 29.0183C17.8698 28.8187 17.5018 28.4463 17.3265 27.9012C17.2763 27.7452 17.2514 27.5611 17.2518 27.3489C17.2581 24.5971 17.2571 21.8458 17.2489 19.0948C17.2477 18.5842 17.4093 18.1622 17.7336 17.8289C17.8183 17.7422 17.9211 17.6736 18.0262 17.6035L18.0789 17.5683C18.3071 17.4148 18.6647 17.3271 18.9118 17.3271C20.0091 17.3287 21.1002 17.3273 22.1853 17.323L23.4194 17.326C26.0002 17.3256 28.5769 17.3258 31.1494 17.3265C31.4749 17.3265 31.7204 17.3469 31.8859 17.3877C32.1404 17.4501 32.3769 17.5787 32.5953 17.7736C32.8114 17.9665 32.964 18.1993 33.053 18.4718C33.1114 18.6507 33.1402 18.8897 33.1395 19.1889C33.1336 21.9791 33.1328 24.7246 33.1371 27.4254C33.1375 27.763 33.0447 28.0705 32.8589 28.3477C32.6393 28.6744 32.3336 28.8997 31.9418 29.0236C31.9014 29.0362 31.86 29.0416 31.8177 29.0401C31.7989 29.0393 31.7808 29.0426 31.7636 29.0501C31.7024 29.0771 31.6293 29.0905 31.5442 29.0901C28.8481 29.0889 26.1424 29.0887 23.4271 29.0895C23.4259 29.9212 23.4251 30.751 23.4247 31.5789C23.4247 31.9334 23.4467 32.1692 23.4906 32.2865C23.5851 32.5379 23.7534 32.7314 23.9953 32.8671C24.0479 32.8969 24.1032 32.9175 24.1612 32.9289C24.1795 32.9326 24.198 32.9368 24.2166 32.9411C24.2739 32.9543 24.3323 32.9677 24.39 32.9677C41.303 32.9681 58.2198 32.9681 75.1406 32.9677C75.5912 32.9677 75.9924 32.663 76.1171 32.2547C76.1598 32.1149 76.1644 31.9662 76.1691 31.8145C76.1717 31.73 76.1743 31.6446 76.1836 31.5594C73.6271 31.5594 71.0659 31.559 68.5001 31.5583C68.0628 31.5579 67.6756 31.4112 67.3383 31.1183C66.9799 30.8069 66.8003 30.3755 66.7995 29.8241C66.7963 27.0661 66.7959 24.2873 66.7983 21.4877C66.7983 21.0006 66.9965 20.5124 67.3871 20.2C67.7208 19.933 68.0771 19.7994 68.4559 19.7994C71.0199 19.7998 73.5836 19.8 76.1471 19.8C76.1616 19.8 76.1689 19.7938 76.1689 19.7812ZM50.3048 27.4253C50.3048 27.6837 50.3838 27.9379 50.5418 28.1877C50.7626 28.5359 51.0667 28.7732 51.4542 28.8994C51.6044 28.9484 51.755 28.973 51.9059 28.973C56.3938 28.9745 60.6197 28.9749 64.5836 28.9741C64.7173 28.9741 64.8548 28.9514 64.9959 28.9059C65.5246 28.7353 65.8887 28.3837 66.0883 27.8512C66.1459 27.6971 66.1748 27.5439 66.1748 27.3918C66.1744 24.5196 66.175 21.6869 66.1765 18.8935C66.1765 18.6559 66.1365 18.4083 66.0177 18.2035C65.9991 18.1715 65.984 18.1372 65.969 18.103C65.9498 18.0594 65.9308 18.0162 65.9048 17.9783C65.6758 17.6477 65.3969 17.4279 65.0683 17.3188C64.8883 17.2588 64.6146 17.229 64.2471 17.2294C60.391 17.2341 56.3479 17.2343 52.1177 17.23C52.0087 17.23 51.9032 17.2373 51.8012 17.2518C51.7048 17.2655 51.6008 17.2808 51.4895 17.2977C51.3938 17.3122 51.3089 17.3404 51.2348 17.3824C51.1528 17.429 51.0728 17.4794 50.9948 17.5335C50.8238 17.652 50.703 17.7767 50.6324 17.9077C50.6246 17.9218 50.6134 17.932 50.5989 17.9383C50.5899 17.9422 50.5828 17.9483 50.5777 17.9565C50.4848 18.1051 50.4071 18.263 50.3448 18.43C50.3346 18.4575 50.3285 18.4857 50.3265 18.5147C50.3241 18.5469 50.3191 18.5788 50.3141 18.6106L50.3141 18.6107C50.3071 18.6556 50.3001 18.7006 50.3001 18.7471C50.3024 21.611 50.304 24.5037 50.3048 27.4253ZM57.0842 23.3941L57.0959 25.1306C57.0959 25.1479 57.1046 25.1569 57.1218 25.1577C57.2842 25.1624 57.4438 25.1637 57.6006 25.1618C58.4356 25.152 59.3091 25.1422 60.2212 25.1324C60.3228 25.1312 60.4112 25.1533 60.4865 25.1988C60.9189 25.4618 60.7765 26.143 60.2359 26.153C59.0379 26.1753 57.8224 26.1955 56.5895 26.2135C56.0565 26.2218 55.8159 25.9706 55.8095 25.4453C55.7848 23.4802 55.7593 21.9112 55.733 20.7383C55.7224 20.27 55.8306 19.8583 56.3848 19.8424C57.5055 19.8098 58.7216 19.7908 60.033 19.7853C60.3536 19.7841 60.5924 20.0135 60.5483 20.34C60.5106 20.6239 60.3422 20.7692 60.043 20.7759C59.3026 20.7924 58.4697 20.8065 57.5442 20.8183C57.3752 20.8206 57.2201 20.8241 57.0789 20.8288C57.0676 20.8293 57.0569 20.8341 57.0492 20.8423C57.0415 20.8504 57.0374 20.8612 57.0377 20.8724L57.0653 22.3606C57.0654 22.3637 57.0661 22.3667 57.0674 22.3696C57.0687 22.3724 57.0705 22.3749 57.0728 22.3771C57.0741 22.3783 57.0756 22.3794 57.0771 22.3803C57.0783 22.3809 57.0795 22.3815 57.0808 22.382C57.0837 22.3831 57.0869 22.3836 57.0901 22.3835C57.3548 22.3785 57.6232 22.3766 57.8933 22.3748H57.8934H57.8934H57.8935H57.8936H57.8936H57.8937H57.8938H57.8938C58.3418 22.3717 58.7942 22.3686 59.2418 22.3506C59.4928 22.3404 59.723 22.3443 59.9324 22.3624C60.1583 22.3824 60.3206 22.5453 60.3348 22.7847C60.3618 23.24 60.0401 23.3247 59.6483 23.3306C58.7891 23.3424 57.9444 23.3534 57.1142 23.3635C57.0942 23.3635 57.0842 23.3737 57.0842 23.3941ZM27.3965 24.9836C27.3294 24.8773 27.2612 24.7781 27.1918 24.686C27.1098 24.646 27.0587 24.5789 27.0383 24.4848C26.872 24.2714 26.7069 24.0969 26.543 23.9612C26.4512 23.8852 26.3469 23.8199 26.23 23.7654C26.2065 23.7544 26.2057 23.742 26.2277 23.7283C26.27 23.7013 26.3181 23.686 26.3718 23.6824C26.4334 23.6789 26.4963 23.6622 26.5606 23.6324C26.6806 23.5767 26.7967 23.5234 26.9089 23.4724C27.0136 23.4375 27.104 23.3832 27.18 23.3095C27.38 23.1405 27.5193 22.9765 27.5977 22.8177C27.8098 22.3883 27.8377 21.9201 27.6812 21.413C27.5608 21.0244 27.3171 20.7212 26.95 20.5036C26.8916 20.5028 26.8275 20.472 26.7577 20.4113C26.4377 20.2944 26.0722 20.2385 25.6612 20.2436C24.4455 20.2585 23.6242 20.2734 23.1971 20.2883C22.6612 20.3065 22.5483 20.6765 22.5547 21.1524C22.5616 21.6625 22.5708 22.1742 22.5799 22.6854L22.5799 22.6865L22.5799 22.6876V22.6877V22.6877V22.6878V22.6878V22.6879V22.6879V22.688C22.5988 23.7475 22.6177 24.8046 22.6165 25.8401C22.6159 26.2489 22.7047 26.7471 23.2224 26.7636C23.8524 26.7836 23.9394 26.336 23.93 25.8265C23.9183 25.1705 23.9091 24.5487 23.9024 23.9612C23.902 23.9362 23.9144 23.924 23.9394 23.9248C24.0221 23.9273 24.1093 23.9255 24.1981 23.9236H24.1982H24.1982H24.1983H24.1983H24.1984H24.1984H24.1984C24.4353 23.9186 24.6839 23.9133 24.8883 23.9907C25.0447 24.0495 25.1787 24.1369 25.29 24.253C25.4661 24.4362 25.6398 24.6665 25.8112 24.9442C26.0108 25.2681 26.2138 25.5958 26.42 25.9271C26.5318 26.1067 26.644 26.2736 26.7565 26.4277C26.8294 26.5283 27.0159 26.6701 27.1394 26.6942C27.3434 26.7338 27.5277 26.7048 27.6924 26.6071C27.8506 26.513 27.9877 26.2948 27.9389 26.1148C27.8663 25.8446 27.7634 25.5989 27.63 25.3777C27.6103 25.3446 27.5933 25.3111 27.5765 25.2781L27.5765 25.2781C27.5393 25.2049 27.5032 25.134 27.4412 25.0748C27.4263 25.0611 27.4169 25.0442 27.413 25.0242C27.4102 25.0097 27.4047 24.9962 27.3965 24.9836ZM26.3942 22.4412C26.3024 22.6453 26.1253 22.7524 25.9271 22.8412C25.8203 22.8891 25.7001 22.9072 25.5828 22.9247L25.5828 22.9247C25.5431 22.9307 25.5037 22.9366 25.4653 22.9436C25.3849 22.9585 25.3055 22.9665 25.2271 22.9677C24.7769 22.9755 24.3351 22.9802 23.9018 22.9818C23.8838 22.9818 23.8747 22.973 23.8747 22.9553L23.8577 21.2795C23.8576 21.275 23.8584 21.2705 23.8601 21.2664C23.8617 21.2622 23.8641 21.2584 23.8673 21.2552C23.8704 21.2519 23.8741 21.2494 23.8782 21.2476L23.8799 21.2469L23.8832 21.2459C23.8858 21.2452 23.8885 21.2448 23.8912 21.2448C24.4359 21.2338 24.9712 21.2306 25.4971 21.2353C25.8994 21.2389 26.31 21.4183 26.4147 21.8236C26.4594 21.9983 26.47 22.2742 26.3942 22.4412ZM73.0477 28.6118C72.7171 28.6177 72.4318 28.5677 72.2977 28.2206C72.2487 28.094 72.223 27.9685 72.2206 27.8441C72.1897 26.2755 72.1646 24.5983 72.1454 22.8124C72.1412 22.4177 72.4095 22.1012 72.8136 22.1206C73.1014 22.134 73.2924 22.2655 73.3865 22.5153C73.4261 22.6204 73.4481 22.7902 73.4524 23.0247C73.4803 24.5585 73.5022 26.051 73.5183 27.5024C73.5185 27.509 73.5212 27.5153 73.5259 27.5199C73.5306 27.5245 73.537 27.5271 73.5436 27.5271C74.4248 27.5145 75.2769 27.5051 76.1001 27.4989C76.3606 27.4971 76.5554 27.5241 76.7048 27.723C76.8436 27.9083 76.8159 28.2765 76.6218 28.4212C76.4936 28.5173 76.3452 28.5661 76.1765 28.5677C75.0742 28.5794 74.0312 28.5941 73.0477 28.6118ZM49.6324 30.39C49.6324 30.8308 49.4573 31.2534 49.1457 31.5651C48.834 31.8767 48.4113 32.0518 47.9706 32.0518H35.4047C34.964 32.0518 34.5413 31.8767 34.2297 31.5651C33.918 31.2534 33.743 30.8308 33.743 30.39V21.9618C33.743 21.5211 33.918 21.0984 34.2297 20.7868C34.5413 20.4751 34.964 20.3 35.4047 20.3H47.9706C48.4113 20.3 48.834 20.4751 49.1457 20.7868C49.4573 21.0984 49.6324 21.5211 49.6324 21.9618V30.39ZM40.9112 25.673L40.8853 24.1694C40.8849 24.1357 40.9014 24.1196 40.9347 24.1212C41.1755 24.1298 41.4065 24.1294 41.6277 24.12C42.0758 24.0999 42.4959 24.1004 42.919 24.101L43.1312 24.1012C43.2216 24.1012 43.3102 24.0946 43.3984 24.088C43.517 24.0791 43.6347 24.0703 43.7547 24.0777C44.1312 24.1012 44.4371 23.9253 44.3953 23.4953C44.3918 23.4565 44.3804 23.4214 44.3612 23.39C44.3458 23.3645 44.3351 23.3396 44.325 23.3158C44.3022 23.2624 44.2818 23.2149 44.2159 23.1794C44.0963 23.1155 43.9828 23.0842 43.8753 23.0853C42.7157 23.0967 41.5271 23.112 40.3094 23.1312C40.1596 23.1336 40.0269 23.1645 39.9112 23.2242C39.6777 23.3447 39.6041 23.5542 39.6018 23.8065C39.5959 24.3889 39.6008 24.9504 39.6165 25.4912C39.6222 25.6909 39.6224 25.8863 39.6226 26.0805V26.0806V26.0808V26.0809C39.6228 26.2899 39.623 26.4974 39.63 26.7071C39.6418 27.0704 39.6464 27.4274 39.6509 27.7805V27.7807C39.6554 28.1313 39.6598 28.4781 39.6712 28.8236C39.6771 29.0165 39.72 29.2389 39.8853 29.3577C40.0328 29.4643 40.2081 29.5173 40.4112 29.5165C40.679 29.5153 40.9469 29.5144 41.2147 29.5136C41.2513 29.5136 41.2852 29.5076 41.319 29.5017C41.3515 29.496 41.3839 29.4903 41.4183 29.49C41.8865 29.4861 42.3704 29.4844 42.87 29.4847C42.9091 29.4847 42.9467 29.4792 42.9844 29.4736C43.0212 29.4681 43.0579 29.4627 43.0959 29.4624C43.3622 29.4593 43.6355 29.4581 43.9159 29.4589C43.9658 29.4589 44.0123 29.4527 44.0588 29.4464L44.0589 29.4464C44.1017 29.4407 44.1446 29.435 44.19 29.4342C44.4341 29.4283 44.583 29.1606 44.583 28.943C44.5826 28.7316 44.4977 28.5824 44.3283 28.4953C44.2494 28.4549 44.103 28.4355 43.8889 28.4371C42.8857 28.4434 41.9243 28.4542 41.0047 28.4694C40.9687 28.4698 40.9502 28.452 40.9494 28.4159L40.9247 26.673L40.9249 26.6704L40.9255 26.6679L40.9261 26.6663L40.9267 26.665L40.9279 26.663L40.9299 26.6607C40.9309 26.6598 40.932 26.659 40.9331 26.6583L40.9357 26.657C40.9378 26.6562 40.9401 26.6558 40.9424 26.6559C41.4306 26.6649 41.8996 26.6598 42.3494 26.6406C42.6949 26.6261 43.052 26.6242 43.4206 26.6347C43.6006 26.6402 43.7536 26.6226 43.8794 26.5818C44.0747 26.5191 44.1757 26.3732 44.1824 26.1442C44.19 25.86 44.0024 25.6489 43.7065 25.6571C43.6834 25.6579 43.6616 25.6526 43.6412 25.6412C43.6141 25.6263 43.5877 25.6265 43.5618 25.6418C43.5426 25.6528 43.522 25.6585 43.5 25.6589C43.3245 25.6603 43.1471 25.6597 42.9689 25.6592H42.9688H42.9687H42.9685C42.5534 25.6579 42.134 25.6566 41.7241 25.68C41.5061 25.6926 41.2818 25.6918 41.0512 25.6777C41.0147 25.6757 40.9792 25.6816 40.9447 25.6953C40.9228 25.7043 40.9116 25.6969 40.9112 25.673ZM27.18 23.3095C27.104 23.3832 27.0136 23.4375 26.9089 23.4724C26.9853 23.3846 27.0757 23.3302 27.18 23.3095Z" fill="#00AB55"/>
</g>
<defs>
<clipPath id="clip0_4595_7940">
<rect width="99.2941" height="36" fill="white" transform="translate(0.352966 0.000976562)"/>
</clipPath>
</defs>
</svg>
