<svg xmlns="http://www.w3.org/2000/svg" width="114" height="22" fill="none"><g clip-path="url(#a)"><path fill="#00AB55" fill-rule="evenodd" d="M8.369.834c-2.022.51-3.878 3.127-3.894 5.49-.006 1.004-.173 1.205-1.488 1.791C0 9.445.04 10.914 3.113 12.775c2.428 1.472 2.502 1.45 2.267-.661-.197-1.776-.194-1.785.328-.807.845 1.582.505 5.557-.549 6.417-1.28 1.044-2.808.726-3.259-.68-.323-1.007-.414-1.071-.818-.581C-.185 18 3.318 21.103 6.435 21.2c2.052.066 3.303-.723 4.159-2.623.624-1.385.643-1.396.638-.4-.003.564-.223 1.41-.49 1.879-.78 1.376-.637 1.474 1.782 1.227 2.898-.297 5.496-1.476 6.56-2.977 1.283-1.814 1.194-5.781-.17-7.579-.864-1.137-2.103-4.585-1.769-4.921.066-.067.527.713 1.022 1.733 1.3 2.675 2.058 3.233 1.393 1.024-.275-.913-.499-2.199-.496-2.856l.003-1.196.747 1.538.748 1.537.113-1.665c.174-2.543.105-2.606-2.819-2.606-2.356 0-2.682-.087-3.847-1.03C12.21.83 10.32.343 8.37.835Zm26.299.479c-1.306.32-3.416.685-4.689.81-1.973.195-2.281.312-2.092.796.676 1.73.892 5.187.683 10.903l-.228 6.235h1.89c2.078 0 2.148-.102 1.355-1.976-1.637-3.867-.88-7.713 1.272-6.469l.96.556V8.129l-1.325.472c-1.628.579-1.727.487-1.727-1.606 0-2.938 1.114-3.77 3.798-2.84 1.69.587 1.749.543 2.277-1.649.484-2.012.694-1.897-2.174-1.193Zm55.845.154c.82 3.28.83 13.9.015 17.48-.164.72-.066.768 1.564.768 1.632 0 1.727-.047 1.555-.768-1.332-5.551-.389-8.074 1.282-3.433l1.322 3.67 1.44-4.261c1.594-4.717 1.599-4.713 1.642 1.205l.02 2.733 1.656.106c1.586.102 1.647.072 1.443-.683-1.247-4.611-1.55-12.718-.595-15.907l.332-1.11h-3.265l-1.272 5.21c-.7 2.865-1.375 5.325-1.5 5.467-.125.142-.668-2.043-1.205-4.856l-.978-5.115-1.378-.561c-.758-.31-.316-.647-.577-.751-.372-.15-1.696.025-1.501.806Zm-35.151.381c-.739.144-.757.267-.848 5.676l-.093 5.53-1.588-3.246c-.873-1.786-1.788-3.9-2.033-4.698-.427-1.392-.5-1.452-1.804-1.451l-1.359.001-.054 4.526c-.03 2.489-.276 5.652-.547 7.03-.545 2.777-.614 2.654 1.837 3.25l.895.219.291-3.841.291-3.841 1.778 2.712c.977 1.49 2.027 3.374 2.335 4.184.495 1.307.68 1.474 1.626 1.474h1.068l-.291-3.33c-.16-1.833-.208-5.83-.108-8.883.14-4.24.084-5.54-.23-5.505-.227.026-.75.112-1.166.193Zm12.157.132c-.653.166-3.133.405-5.511.53-4.746.25-4.516.108-4.114 2.56l.205 1.24 1.715-.456c2.684-.714 2.923-.105 3.199 8.139l.191 5.722h3.034l-.235-1.261c-.457-2.453-.846-7.15-.852-10.28-.006-3.556-.101-3.426 2.76-3.785 1.74-.218 1.742-.22 1.778-1.5.038-1.396-.072-1.443-2.17-.909Zm-54.72.472c.623.475.603.502-.4.512-.58.006-1.458.33-1.95.719-1.119.886-1.293.036-.215-1.05.805-.81 1.66-.87 2.564-.181Zm29.71.193c-1.305.339-3.099.628-3.985.643-1.05.019-1.61.177-1.607.455.011 1.01.44 1.913.973 2.054.678.178.442 5.407-.47 10.357-.655 3.567-.677 3.407.541 3.916.877.365 1.098.358 1.346-.044.392-.635.998-3.506.998-4.726 0-.908.824-1.393 2.372-1.393.14 0 .356 1.053.482 2.339.353 3.609.626 4.338 1.588 4.24 2.297-.235 2.324-.266 1.783-2.05-1.32-4.363-2.174-14.095-1.236-14.095.532 0 .617-.201.502-1.195-.157-1.35-.069-1.337-3.287-.501Zm34.209-.141c-.84.267-2.645.583-4.011.702-2.313.2-2.472.265-2.295.931.105.394.193.891.196 1.104.003.213.324.472.714.575.67.175.697.337.482 2.857-.248 2.91-1.046 8.802-1.367 10.092-.168.672-.003.9.995 1.38l1.196.575.518-1.76c.285-.969.519-2.351.519-3.073 0-1.096.144-1.369.87-1.647 1.922-.736 2.071-.573 2.272 2.486.248 3.8.352 4.007 1.887 3.773 1.723-.262 1.801-.406 1.243-2.273-1.345-4.503-2.106-13.885-1.125-13.885.559 0 .657-.153.494-.768-.113-.423-.207-.961-.21-1.196-.005-.522-.41-.5-2.379.127Zm33.021 0c-.84.267-2.645.583-4.012.702-2.312.2-2.471.265-2.294.931.106.394.194.91.196 1.144.002.235.328.427.723.427.962 0 .418 7.76-.922 13.166-.133.537.093.824.99 1.255 1.425.684 1.748.198 2.251-3.382.368-2.612.273-2.473 1.839-2.728l1.229-.201v1.737c0 .954.163 2.5.362 3.435l.362 1.7 1.249-.19c1.767-.27 1.782-.318 1.069-3.314-.563-2.368-.966-5.382-1.504-11.222-.132-1.433-.072-1.622.513-1.622.693 0 .788-.345.448-1.623-.232-.873-.391-.886-2.499-.215ZM8.422 3.524c.418.634.395.816-.193 1.537-.78.958-1.816.601-2.006-.688-.24-1.636 1.292-2.228 2.199-.85Zm75.62-.529c-4.584 1.344-4.52 6.95.1 8.863 2.582 1.068 3.47 1.872 3.47 3.144 0 2.719-2.236 4.228-4.06 2.741l-.743-.606.705-.643c1.356-1.235.328-3.612-1.562-3.612-3.893 0-2.134 6.363 1.866 6.75 6.727.651 9.284-8.308 2.961-10.376-2.826-.924-3.95-2.505-2.813-3.96 1.085-1.392 3.445-.783 2.663.688-.766 1.442 1.347 2.725 2.456 1.491 2.26-2.516-1.214-5.602-5.043-4.48Zm-70.601.98c.307.5-1.187 4.17-2.053 5.043-1.216 1.225-2.972 1.077-4.41-.372-1.857-1.87-1.494-2.83.868-2.296 1.328.3 1.46.25 3.159-1.182 1.87-1.577 2.124-1.702 2.436-1.193Zm28.899 3.57c0 .822.091 1.955.203 2.518.187.94.118 1.036-.848 1.179l-1.051.156V8.723c0-2.624.016-2.673.848-2.673.775 0 .848.128.848 1.495Zm33.597 1.034c.068 2.518.066 2.523-.876 2.662l-.944.14.028-2.665c.028-2.609.047-2.665.876-2.662.822.002.85.08.916 2.525Zm33.029.034c.058 1.994-.03 2.561-.396 2.561a3.088 3.088 0 0 0-.931.178c-.389.15-.538-2.619-.283-5.217.005-.047.352-.084.772-.084.717.001.767.157.838 2.562Z" clip-rule="evenodd"/></g><defs><clipPath id="a"><path fill="#fff" d="M.778.001h112.444v22H.778z"/></clipPath></defs></svg>