<svg width="116" height="32" fill="none" xmlns="http://www.w3.org/2000/svg"><path d="M17.257 19.035c-.007.169.052.368-.241.373-.058.002-.113.17-.201.314-.101.028-.325.023-.293.298.003.022-.07.075-.107.075-.156 0-.174.107-.25.214-.129.18-.329.315-.483.492-.064.074-.292.044-.428.002-.067-.021-.131-.174-.132-.268-.01-1.07-.006-2.142-.006-3.212 0-.307-.013-.615.004-.922.012-.228-.077-.285-.293-.284-1.457.008-2.915.006-4.372.003-.172 0-.399.08-.418-.227-.002-.027-.101-.04-.144-.075a1.446 1.446 0 0 1-.187-.186c-.04-.048-.068-.153-.101-.153-.265 0-.264-.188-.274-.381-.161-.057-.397-.039-.36-.318.003-.021-.046-.058-.077-.074-.082-.04-.23-.06-.24-.111a1.917 1.917 0 0 1-.01-.502c.003-.039.074-.103.115-.104.155-.005.248-.055.233-.227 0-.01 0-.028.004-.028.275-.047.312-.369.54-.47.027-.01.08-.003.084-.016.069-.214.262-.299.402-.438.1-.098.113-.28.32-.282.024 0 .054-.071.07-.114.014-.036.005-.111.014-.112.28-.043.32-.356.543-.475.206-.11.277-.409.562-.444.022-.003.026-.144.038-.22l.08.048c.086-.114.172-.229.26-.341a.592.592 0 0 1 .098-.097c.111-.088.225-.173.338-.26l-.046-.08.275-.047c.047-.16.038-.386.314-.353.023.002.076-.07.077-.107 0-.155.052-.24.224-.24.046 0 .128-.076.13-.12.007-.156.06-.244.23-.232.027.001.08-.013.08-.023.022-.251.19-.352.38-.489.094-.067.113-.275.318-.278.024 0 .053-.072.069-.115.013-.036.005-.112.014-.113.283-.038.3-.389.549-.464.018-.006.056-.004.056-.009.028-.288.374-.303.468-.547.038-.097.184-.152.329-.263.012-.103.022-.297.283-.267.023.003.061-.044.077-.075.04-.083.058-.232.109-.242.161-.033.334-.023.501-.012.04.002.107.074.106.113-.003.182.088.226.252.253.053.008.078.184.117.335.037.15.073.337.11.337.287 0 .247.193.247.369 0 1.926.005 3.852-.007 5.779-.002.286.077.405.364.355.644 0 1.287.008 1.93-.003.21-.003.276.068.272.274a37.78 37.78 0 0 0 0 1.604c.005.209-.067.276-.273.272-.604-.01-1.208-.003-1.866-.003-.34-.044-.433.08-.426.364.017.641.01 1.283 0 1.924-.001.088-.074.25-.116.25-.293.003-.23.206-.235.375Zm-4.388-5.42c-.131.007-.286.006-.242.198.014.066.12.157.185.158.703.011 1.407.011 2.11 0 .065-.001.183-.102.184-.158.012-.723.014-1.446-.003-2.17-.001-.053-.157-.103-.242-.155-.058.257-.349.31-.457.518-.114.22-.425.262-.472.538 0 .003-.018.004-.028.003-.17-.014-.22.077-.228.233-.002.044-.085.118-.13.119-.172 0-.224.084-.224.24 0 .037-.055.11-.076.106-.285-.04-.249.21-.377.37ZM101.42 19.034l-.001-9.72c0-.388.003-.395.406-.388.582.01 1.164.032 1.775.074.058.064.083.128.118.135.395.073.789.175 1.187.195.622.032 1.247.007 1.871.006.101 0 .203 0 .329.026-.002.356.227.335.445.33.118.002.237.006.356.004.154-.002.306-.013.305.212 0 .04.051.113.078.113.321-.006.265.26.309.438.037.15.006.312.24.338.05.006.091.196.114.306.022.106.015.217.005.37-.023.493-.031.942-.035 1.392 0 .034.033.068.051.102a6.509 6.509 0 0 1-.081.63c-.315-.002-.345.154-.275.381l-.101.325c-.125.05-.363.005-.329.285.003.028-.094.088-.15.099-.211.04-.463-.021-.531.3-.01.044-.231.037-.352.065-.134.03-.379-.1-.366.156.011.212-.202.538.222.632.058.013.101.182.115.284.024.168.006.281.232.393.169.082.366.34.476.559.096.19.003.488.351.515.029.002.049.115.075.177.024.06.048.17.074.17.26.007.211.21.249.36.038.154.022.347.274.343.038 0 .074.12.117.18.054.074.117.143.171.218.046.063.122.136.114.196-.007.057-.104.146-.162.147-.832.01-1.665.007-2.497.006-.03 0-.084-.004-.085-.01-.031-.325-.524-.363-.458-.751.027-.163.018-.331-.227-.311-.01 0-.028-.003-.028-.005-.027-.289-.35-.318-.469-.546-.106-.203-.4-.285-.433-.563-.297.026-.271-.18-.267-.372.003-.152.019-.304-.214-.304-.047 0-.138-.098-.134-.145.019-.25-.121-.28-.34-.286-.043-.148.036-.324-.194-.33-.249-.006-.186.181-.187.315-.004.984-.002 1.969-.031 2.954h-2.112Zm2.446-7.91c-.252-.041-.315.078-.309.316.014.61.019 1.22-.002 1.829-.01.287.08.401.419.353.564 0 1.128.001 1.692-.001.187-.001.419.065.412-.26 0-.03.109-.056.155-.096.181-.155.359-.314.532-.478.021-.02.007-.076.008-.116 0-.099.012-.2-.002-.296-.032-.219.151-.553-.291-.563-.017 0-.049-.044-.048-.067.008-.198-.086-.282-.282-.284-.03 0-.085-.086-.084-.132.005-.209-.129-.207-.278-.206-.623.002-1.246 0-1.922 0ZM99.22 9.22c0 .535-.01 1.07.005 1.604.007.237-.071.305-.305.303-1.218-.01-2.436.004-3.655-.01-.262-.002-.347.073-.333.336.021.395.015.792.002 1.188-.007.212.072.271.276.27 1.109-.007 2.218.006 3.328-.009.267-.003.34.081.33.338a21.44 21.44 0 0 0 0 1.515c.01.244-.081.301-.308.299-1.07-.01-2.14-.004-3.263-.004-.274-.03-.374.04-.366.288.018.543.003 1.087.006 1.63.002.302.045.328.356.226 1.29 0 2.581 0 3.898.027.026.74.026 1.454.025 2.168-1.962 0-3.925 0-5.916-.023-.04-.412-.33-.322-.56-.335-.001-3.211-.001-6.422.023-9.662.282-.011.476-.07.448-.388 1.7 0 3.4.002 5.1-.002.166 0 .332-.034.524-.03.027.276.212.266.385.271ZM63.294 15.407a44.9 44.9 0 0 1-.357 0c-.19 0-.326.006-.463-.002-.256-.015-.39.09-.37.358l-1.366.002c-.307-.001-.56-.003-.812-.001-.268.002-.317.133-.203.355-.018.62-.047 1.24-.052 1.86-.002.363.022.728.056 1.09.026.271-.085.334-.338.326-.602-.016-1.204-.005-1.835-.034-.028-3.478-.028-6.928-.028-10.378l4.041-.001c.155 0 .294-.004.36.182.02.053.114.104.179.11.304.03.61.045.914.066.06.004.166-.005.17.013.067.243.283.329.456.46.074.056.14.123.21.181.014.011.055.005.056.011.042.28.307.385.451.584.027.037.025.13.043.132.505.057.256.45.316.759v2.143c0 .148-.006.297 0 .446.005.153-.01.276-.213.274-.047 0-.133.076-.133.116 0 .182-.083.244-.254.246-.037 0-.106.075-.104.113.011.245-.147.241-.366.232-.36-.059-.38.131-.358.357Zm-2.563-1.429c.263 0 .527-.02.787.005.29.027.39-.088.4-.361.167.009.323.015.317-.23 0-.041.11-.078.158-.129.068-.071.172-.15.178-.232.02-.325.013-.653.005-.98-.002-.068-.041-.186-.081-.194-.18-.039-.213-.223-.307-.292-.165-.121-.345-.19-.39-.418-.004-.017-.092-.022-.14-.022-.575-.002-1.15-.008-1.724.008-.072.002-.2.128-.2.199a68.926 68.926 0 0 0 0 2.436c0 .07.124.192.2.2.245.025.494.009.797.01ZM75.426 19.39c-.416 0-.833 0-1.279-.023-.087-.105-.131-.239-.208-.262-.238-.07-.256-.232-.237-.429 0-.148.006-.297 0-.445-.004-.154.01-.264.212-.282.056-.005.124-.164.14-.26.033-.195-.083-.457.279-.47.031 0 .07-.198.08-.307.019-.198-.057-.435.272-.46.036-.002.075-.178.085-.276.019-.19-.052-.416.265-.434.036-.002.087-.158.09-.244.01-.318-.004-.63.314-.846.063-.042.041-.22.048-.335.01-.163.028-.281.227-.361.104-.042.147-.283.18-.442.026-.134.045-.206.195-.275.1-.046.13-.276.161-.43.026-.127.005-.252.194-.275.046-.005.09-.145.111-.229.05-.194-.026-.432.288-.51.075-.018.098-.293.124-.453.02-.126-.001-.258.012-.385.006-.06.044-.163.078-.168.305-.04.267-.274.271-.474.003-.157.02-.257.217-.28.057-.006.095-.187.166-.314.261-.016.355-.13.336-.364-.012-.143-.002-.289-.001-.433 0 0-.001-.001.024-.001l.33.001s.001-.001.001.026c-.048.31.06.442.355.39.001.15.007.298.002.447-.005.154.012.263.212.281.055.005.123.164.139.26.033.195-.083.457.28.47.031.001.072.218.079.337.01.179-.03.37.254.363.033-.001.094.113.1.177.015.167.006.337.008.505.003.181-.052.393.256.393.033 0 .083.19.096.296.023.183-.065.416.263.42.034 0 .082.192.094.298.02.187-.058.415.267.416.031 0 .078.175.09.273.023.19-.075.441.27.438.029 0 .083.104.084.161.01.35-.05.709.326.95.074.048.02.282.043.426.012.076.066.21.1.208.28-.004.255.18.253.363-.003.183-.048.392.256.392.033 0 .082.172.095.269.028.208-.081.477.284.513.035.003.065.202.074.312.014.181-.045.377.257.405.049.004.084.34.09.523.002.049-.124.146-.192.147-.693.01-1.387.001-2.08.01-.237.002-.21-.148-.214-.298-.006-.193.076-.438-.267-.443-.031 0-.077-.178-.085-.276-.018-.195.064-.441-.276-.43-.024 0-.072-.053-.071-.08.014-.327-.22-.26-.408-.26-.921-.002-1.842 0-2.816 0-.427.01-.465.054-.36.357 0 .102 0 .203-.026.33-.207.014-.318.06-.34.278-.024.247-.018.53-.35.625-.052.016-.078.127-.117.193Zm3.078-5.42c-.035-.161-.089-.322-.098-.486-.01-.166-.082-.275-.228-.206-.182.087-.179.409-.462.41a.61.61 0 0 0-.025.165c-.005.09.004.179-.005.267-.022.237.092.543-.298.601-.022.004-.046.062-.05.098-.023.165-.09.347-.044.493.048.153-.095.447.239.45.464.003.93.003 1.394-.004.057 0 .163-.05.164-.08.012-.304.007-.61.001-.915 0-.019-.041-.053-.063-.053-.365.008-.26-.263-.27-.459-.006-.145.007-.29-.255-.28ZM87.737 19.388c-.614 0-1.229-.009-1.843.007-.24.006-.302-.076-.3-.306.008-1.189.002-2.377.002-3.618.001-.234.005-.413-.25-.433-.036-.003-.098-.078-.096-.117.012-.24-.139-.241-.306-.228-.027-.112-.045-.227-.083-.336-.055-.155.02-.385-.27-.418-.053-.006-.095-.257-.111-.399-.018-.16-.025-.3-.242-.28-.025.002-.075-.017-.077-.03-.034-.313-.457-.42-.404-.78.023-.156-.026-.26-.22-.271-.05-.004-.116-.149-.133-.236-.037-.199.1-.487-.285-.485-.025 0-.052-.091-.075-.141-.027-.059-.042-.165-.077-.171-.302-.056-.281-.278-.287-.5-.002-.076-.059-.216-.088-.215-.327.007-.258-.225-.264-.412-.003-.089-.001-.178-.001-.32.008-.193-.045-.363.199-.361.581.006 1.162-.001 1.744.006.064 0 .18.059.182.094.014.314.24.252.43.26l.002.298c-.047.333.059.466.355.415.005.17-.043.36.238.386.05.004.1.224.116.349.021.162-.034.345.237.352.044.002.104.176.12.277.031.186-.076.445.271.433.022-.001.055.027.067.05.094.185.167.382.282.552.044.065.183.092.277.088.06-.002.145-.08.17-.143.03-.078.009-.176.01-.265.002-.059-.013-.162.008-.17.236-.094.307-.388.508-.465.182-.07.192-.15.197-.294.008-.199-.09-.461.275-.469.029 0 .067-.2.078-.309.017-.177-.055-.392.255-.396.036 0 .088-.207.1-.322.02-.18-.046-.393.261-.39.033 0 .093-.174.096-.268.016-.451-.048-.424.446-.425.604-.001 1.208.003 1.812-.002.225-.002.346.05.26.311-.034.109-.013.236-.013.355-.001.14-.05.212-.173.319-.226.197-.398.478-.528.755-.077.163.053.431-.288.433-.028 0-.068.2-.08.31-.018.176.055.398-.256.388-.032-.002-.07.097-.102.15-.037.062-.073.18-.106.179-.283-.01-.254.179-.253.36.001.183.048.392-.258.391-.032 0-.083.191-.094.297-.02.186.057.421-.267.407-.026-.001-.077.048-.078.074 0 .19-.075.284-.278.295-.036.002-.079.175-.09.272-.024.19.072.441-.272.437-.029 0-.08.104-.084.162-.013.157-.006.316-.033.503-.28-.012-.337.11-.335.347.01 1.22.003 2.442.002 3.663ZM71.916 19.388c-1.764 0-3.53.001-5.326-.023a1.662 1.662 0 0 1-.082-.463c-.003-3.307-.002-6.613-.002-9.92.678.003 1.355.003 2.033.014.037 0 .093.092.104.149.03.164.059.331.059.497.004 2.397.002 4.794.003 7.19 0 .395.02.416.423.417.912.001 1.823 0 2.762.029a53.9 53.9 0 0 1 .026 2.11ZM45.686 9.34c0 3.213 0 6.425-.027 9.665-.366.029-.704.029-1.042.03l-.002-4.338c.043-.31-.078-.368-.317-.366-1.407.01-2.813 0-4.22.01-.204 0-.501-.138-.552.244-.002.017-.047.04-.073.04-.273.001-.249.193-.249.375.001 1.239-.008 2.477.007 3.715.003.276-.096.336-.345.325-.225-.01-.384.008-.383-.317.013-3.021.011-6.043.002-9.064-.001-.275.094-.338.344-.326.224.01.39-.01.384.317-.02 1.178-.009 2.357-.008 3.536 0 .434 0 .435.42.436 1.546 0 3.091-.007 4.636.006.288.003.407-.077.353-.366 0-1.29 0-2.578.03-3.895.366-.028.704-.027 1.042-.027ZM54.669 18.321c0 .22 0 .438-.029.685-1.932.028-3.836.028-5.74 0 0-3.12.003-6.211-.006-9.303-.001-.279.063-.374.359-.37 1.446.014 2.893.006 4.34.006.723 0 .723 0 .69.712-1.474.001-2.92.006-4.367-.002-.23-.001-.31.06-.307.3.012.981.014 1.963 0 2.943-.005.262.07.337.333.335 1.457-.012 2.913-.005 4.37.023v.265c0 .42 0 .42-.415.42-1.308 0-2.617.009-3.925-.006-.285-.003-.409.074-.357.392l-.001 3.266c-.038.31.13.357.385.332l4.67.002ZM5.049 20.468a49.301 49.301 0 0 1-.344-.007c-.272-.002-.493-.002-.715-.002l-.021-.364s.009.005.04.006c.362.06.362-.142.324-.397.007-.12.013-.216.044-.313.35.053.353-.145.32-.397 0-.124-.003-.223 0-.347.004-.127.001-.23 0-.332 0 0 .002.006.03.003.341.05.362-.131.323-.39.002-.126 0-.227-.003-.33 0 0 .007.004.037.005.35.052.366-.135.323-.395.01-.12.014-.217.044-.314.4.052.324-.211.322-.448 0-.128-.003-.23-.004-.332 0 0 .008-.001.035.003.306.055.355-.107.36-.336.124-.008.222-.01.32-.013 0 0 .001-.003.002.024l.027.339.31.051.048.32a1.5 1.5 0 0 1 .332.064l.019.28.322.057.04.311c.121.015.227.027.333.065l.017.305c.131.011.235.02.34.052.003.119.007.214.008.336-.062.347.119.38.363.333-.002-.002.004-.001 0 .026-.074.346.114.372.354.337.001 0 .003-.001 0 .025-.001.13 0 .234-.026.34-.182.002-.359-.032-.348.221.002.039-.044.114-.067.114-.376-.002-.28.273-.28.48 0 .161-.064.204-.213.278-.2.1-.339.323-.5.497-.016.017.002.063-.012.086-.024.038-.063.098-.093.096-.303-.015-.257.198-.255.381.002.178.036.372-.248.359-.033-.002-.101.077-.1.117.009.245-.152.232-.317.228-.138-.003-.276.002-.414.004 0 0 .002.005.002-.02.066-.34-.124-.363-.356-.338V21.174h-.35s-.006 0-.006-.023v-.348c.06-.346-.13-.368-.367-.335ZM11.554 3.916c.099.003.197.007.32.04.03.12.038.213.046.32.136 0 .24 0 .37.003.127.001.229 0 .33-.001 0 0-.008.004-.007.034-.052.346.147.348.393.324.126 0 .227 0 .329-.002 0 0 .001.01-.002.036-.056.325.128.349.35.328.003-.002.009-.004.007.022v.336h-.025c-.12.006-.213.012-.335.02v.333h-.025l-.334.024v.332h-.025l-.332.024v.333s0 .002-.024.003l-.333.027c-.02.13-.037.234-.079.338l-.283.018c0 .12 0 .215-.023.317-.129.017-.236.027-.37.031-.37-.012-.386.007-.36.352-.003-.003.005.004-.014.005-.136-.01-.244-.012-.378-.015-.126-.037-.31-.065-.314-.11-.025-.292-.228-.237-.41-.253-.106-.01-.295-.052-.298-.092-.017-.2-.105-.276-.294-.28-.029 0-.081-.069-.08-.104.013-.237-.137-.243-.309-.235a1.807 1.807 0 0 1-.413-.025c.02-.214-.017-.323-.25-.355-.102-.014-.176-.217-.268-.33-.013-.016-.062.002-.084-.011-.038-.024-.1-.061-.098-.09.018-.295-.184-.264-.37-.285l-.001-.332h.022c.332.06.356-.127.337-.354h.022l.338-.019V4.29s0-.005.023-.005l.35-.002c.337.058.362-.128.333-.36.004-.101.007-.202.01-.354l.001-.705.356-.024s-.008.006-.006.036c-.05.352.14.365.398.323.12.009.217.014.314.045-.048.347.147.352.4.316.143.004.26.004.378.004.08.002.162.004.27.033-.022.395.228.335.447.32ZM32.008 19.034c0-2.842 0-5.684-.002-8.525 0-.511.047-.453-.468-.455-.802-.003-1.604 0-2.406-.003-.117 0-.234-.025-.373-.076a.645.645 0 0 1-.023-.186c0-.45 0-.45.446-.45l7.163.002c-.018.185-.014.378-.066.554-.021.07-.164.15-.252.15-.86.012-1.721.023-2.581 0-.312-.008-.375.095-.374.386.01 2.85.006 5.698-.022 8.575-.366.028-.704.028-1.042.028ZM21.248 25.504s-.006-.018-.01-.051c.05-.363-.133-.381-.4-.322-.119-.01-.214-.018-.31-.05-.023-.349-.066-.379-.38-.28-.125-.02-.229-.035-.333-.076.047-.363-.151-.368-.418-.317l-.662-.006v-.03c.05-.405-.2-.34-.447-.319-.104-.005-.185-.009-.268-.037.038-.38-.192-.35-.447-.321-.125 0-.225.002-.325.005-.08-.005-.16-.01-.27-.043a6.274 6.274 0 0 1-.07-.686s-.004-.002.023-.001c.12-.007.213-.014.32-.023l.016-.331.023-.001c.122-.007.216-.014.335-.023v-.333s0-.002.023-.002l.34-.015c.07-.115.117-.228.186-.343.065-.005.109-.008.175-.01.069-.116.114-.23.182-.348.067-.004.112-.005.183-.006.322.042.44-.08.374-.375.004 0-.002.003.023.007.332.057.289-.157.299-.345a.095.095 0 0 1 .059-.012c.13.003.233.003.362.004.184.004.355-.025.351.227 0 .044.097.095.155.132.054.034.167.055.167.082-.002.36.257.273.46.276.144.003.28-.012.287.202.002.053.105.105.164.155.059.05.172.096.172.146.005.231.154.21.307.213.193.004.444-.08.434.266 0 .025.05.075.076.074.201-.006.283.093.282.285 0 .026.053.075.078.073.304-.022.262.194.268.377.001-.002.003.003-.023 0-.344-.063-.369.124-.332.361 0 0 .005.002-.021.003-.12.002-.215.002-.34.002v.347s0 .004-.023.005c-.121.001-.22 0-.346-.002-.339-.063-.381.113-.349.386-.002.243 0 .46-.001.702-.016.139-.027.253-.06.365-.111.003-.2.008-.289.013ZM25.525 7.849c.102.006.205.012.359.019h.715c0 .133 0 .239-.026.346-.402-.045-.34.204-.313.453a.838.838 0 0 1-.04.26c-.379-.04-.346.195-.329.447 0 .128.004.23.006.333 0 0-.01.001-.037-.005-.348-.064-.36.131-.329.387l.01.333a1.237 1.237 0 0 1-.042.316c-.122.03-.214.038-.316.046 0 .138 0 .243-.003.374-.002.127 0 .228.002.33 0 0-.006-.007-.035-.006a21.43 21.43 0 0 0-.318.022l-.001.375.002.323-.04-.005c-.337-.06-.357.129-.334.355.002.001.003.007-.023.005-.129-.004-.232-.005-.335-.007v-.024l-.018-.335h-.337s-.003.003 0-.024c-.005-.12-.01-.214-.019-.332h-.338s-.002 0-.002-.025c-.006-.119-.012-.213-.02-.333h-.335l-.001-.025-.018-.335h-.334s-.003 0-.003-.025c-.006-.12-.012-.216-.02-.333h-.334s-.004 0-.004-.024c-.007-.12-.014-.215-.023-.333h-.33s-.006.007-.004-.02l-.002-.353c-.008-.19-.018-.346.224-.352.045 0 .09-.106.13-.168.029-.047.044-.144.07-.145.386-.02.264-.309.293-.524.013-.093.063-.248.113-.255.164-.024.253-.071.25-.252 0-.039.07-.114.105-.113.261.012.244-.16.243-.335-.001-.188-.062-.419.262-.406.028.001.084-.066.084-.1-.003-.172.066-.254.244-.251.039 0 .113-.07.111-.107-.01-.29.193-.238.381-.222.125.025.235.034.347.068-.04.326.166.286.35.276 0 0 .006 0 .005.022.003.121.005.22.006.346.004.404.042.437.351.338Z" fill="#00AB55"/><path d="M44.586 13.263c.082.288-.037.368-.325.365-1.545-.013-3.09-.006-4.636-.006-.42 0-.42-.002-.42-.436 0-1.179-.013-2.358.008-3.536.005-.327-.16-.307-.384-.317-.25-.012-.345.05-.344.326.01 3.021.011 6.042-.002 9.064-.001.325.158.307.383.317.249.011.348-.049.345-.325-.015-1.238-.006-2.476-.007-3.715 0-.182-.024-.374.25-.375.025 0 .07-.023.072-.04.05-.382.348-.243.552-.245 1.407-.009 2.813 0 4.22-.01.239 0 .36.057.317.34-1.588.024-3.174.028-4.76.017-.244-.002-.3.083-.298.31.009 1.358 0 2.716.009 4.074.002.238-.057.353-.313.323-.137-.016-.277-.003-.416-.003-.466 0-.703-.234-.703-.696v-9.16c0-.316.177-.512.5-.551.02-.003.04-.001.06-.002.867-.044.867-.044.867.831 0 1.051.007 2.102-.004 3.153-.003.234.067.305.303.304 1.566-.01 3.133-.006 4.726-.007ZM98.861 22.601c0-.128.003-.257.001-.385-.002-.17-.026-.35.24-.338.035.002.107-.072.107-.11-.002-.177.075-.248.25-.248.037 0 .107-.072.106-.11-.002-.179.079-.248.252-.245.035 0 .102-.055.1-.082-.014-.327.221-.262.408-.263.514-.002 1.027.002 1.541-.002.153 0 .276.007.275.212 0 .046.074.133.115.133.178.002.246.08.246.252 0 .038.073.107.111.106.18-.003.25.08.242.252-.001.026.021.073.036.075.505.054.254.447.315.754v1.49c0 .148-.006.296-.001.444.005.152-.006.276-.211.275-.047 0-.134.074-.134.114-.002.178-.08.252-.253.242-.018-.002-.054.012-.054.016.039.336-.326.306-.463.493-.088.12-.316.179-.486.188-.453.025-.908.01-1.362.008-.04 0-.094.01-.116-.011-.187-.182-.369-.369-.55-.555-.043-.044-.081-.134-.121-.134-.18 0-.252-.079-.243-.252.001-.025-.02-.073-.035-.075-.506-.054-.255-.447-.315-.754l-.001-1.49Zm3.092-1.064c-.564-.002-1.128-.006-1.692 0-.086.002-.243.053-.245.088-.012.199-.099.279-.292.285-.032.002-.065.103-.088.162-.078.204.047.518-.313.575-.023.003-.041.104-.042.16-.004.343-.004.685 0 1.028 0 .055.028.157.046.158.309.013.228.262.272.434.04.154.025.348.276.338.035-.002.103.079.104.122.003.223.148.217.305.216.5-.003 1.001.002 1.501-.004.155-.001.369.059.318-.238-.005-.03.074-.104.116-.105.282-.009.258-.209.275-.4.01-.107.047-.295.091-.3.195-.025.219-.152.22-.292.002-.332-.007-.665-.019-.998-.002-.05-.046-.138-.075-.14-.284-.02-.219-.23-.219-.395 0-.185.02-.367-.257-.356-.032.002-.068-.098-.104-.15a.667.667 0 0 0-.178-.189ZM94.22 22.363c.04-.184-.125-.464.238-.502.026-.003.037-.101.065-.15.034-.061.077-.165.12-.166.177-.005.246-.08.246-.254 0-.037.076-.108.112-.105.212.017.31-.067.316-.282.001-.03.107-.08.164-.08.585-.006 1.169-.004 1.753-.003.03 0 .08-.006.086.007.095.22.322.318.453.49.074.096.076.209.238.231.051.008.08.172.12.264-.14.026-.278.07-.416.07-.091 0-.258-.057-.262-.1-.019-.223-.198-.228-.323-.233-.505-.018-1.01-.02-1.514-.002-.139.004-.335.012-.334.248 0 .027-.05.079-.073.078-.346-.016-.273.235-.27.428.002.175-.004.316-.24.316-.04 0-.11.126-.113.196-.012.336-.01.673-.001 1.01.002.066.054.187.087.188.311.014.267.235.263.43-.003.169-.006.323.235.313.038-.002.115.07.113.105-.012.264.165.243.338.242.346-.002.693.006 1.04-.002.178-.004.42.091.444-.23.002-.025.077-.056.12-.061.236-.026.471-.058.706-.055.073 0 .206.11.202.162-.006.084-.095.168-.162.24-.028.03-.128.024-.13.043-.055.393-.435.39-.675.552a.754.754 0 0 1-.377.117c-.416.014-.832.002-1.248.007-.146.001-.26-.019-.249-.203.002-.029-.012-.084-.017-.084-.313.014-.354-.341-.59-.434-.057-.022-.139-.073-.145-.12-.02-.146-.107-.184-.217-.261-.093-.065-.072-.293-.101-.503-.075-.671.017-1.29-.001-1.907ZM54.31 10.05c.006-.71.006-.71-.717-.71-1.447 0-2.894.007-4.34-.008-.296-.003-.36.092-.36.371.01 3.092.007 6.184-.019 9.303-.127.028-.228.028-.33.028 0-3.24.002-6.48-.005-9.721-.001-.23.04-.356.3-.346.145.005.292-.04.44-.041 1.525-.003 3.051-.002 4.577-.002.819 0 .821 0 .81.817-.002.1-.046.2-.117.305-.11.006-.174.005-.238.004ZM104.63 22.423c.001-.456-.005-.911.01-1.366.003-.08.094-.157.145-.234.068.06.141.116.202.183.041.046.068.154.1.153.328-.008.253.228.258.413.005.156-.034.328.22.33.046.001.122.114.13.182.019.166.006.336.009.504.002.18-.055.393.253.394.035 0 .085.19.099.295.023.182-.069.42.261.416.032 0 .084.117.094.184.016.117-.012.242.016.354.016.061.107.142.165.143.059.001.155-.077.17-.137.029-.112.001-.237.016-.354.009-.069.048-.187.086-.191.309-.04.268-.264.267-.47-.001-.11.012-.22-.002-.327-.033-.248.085-.32.348-.276.071.125.1.233.129.364-.02.127-.039.23-.058.335-.02.135-.048.269-.058.405-.013.169.051.357-.225.4-.057.008-.101.215-.12.335-.023.145-.006.296-.019.443-.006.062-.042.172-.069.173-.365.021-.258.293-.29.503-.016.102-.084.27-.147.28-.222.03-.199-.157-.203-.305-.005-.188.059-.415-.264-.414-.031 0-.076-.156-.09-.244-.036-.214.118-.52-.295-.546-.029-.002-.057-.226-.062-.348-.008-.17.022-.347-.242-.341-.038 0-.098-.105-.111-.17-.02-.095.017-.204-.014-.293-.031-.088-.115-.157-.176-.235-.058.08-.15.155-.166.243-.028.153-.009.315-.035.501a.932.932 0 0 1-.346.013 2.873 2.873 0 0 0-.339-.044c0-.102-.001-.204.025-.331.272.012.354-.1.333-.338-.017-.192-.004-.388-.005-.582Z" fill="#00AB55"/><path d="M54.283 10.05c.092 0 .155.002.243.003-.058.264-.237.362-.512.36-1.239-.008-2.478.004-3.717-.01-.265-.002-.338.077-.332.338.016.733.017 1.467-.001 2.2-.007.27.085.331.34.33 1.348-.012 2.696-.001 4.044-.01.236-.002.363.051.295.335-.127.026-.23.026-.331.026-1.457 0-2.913-.007-4.37.005-.262.002-.338-.073-.334-.335.015-.98.013-1.962.001-2.942-.003-.24.077-.302.307-.301 1.446.008 2.893.003 4.367.002ZM66.48 8.982c.026 3.307.025 6.614.028 9.92 0 .146.032.292.054.462-.413.029-.413.029-.413-.389 0-3.224.002-6.449-.005-9.673 0-.236.053-.361.336-.32ZM57.5 8.983c.026 3.45.026 6.9.027 10.378-.277.054-.362-.088-.362-.346.004-3.248.005-6.495-.003-9.743 0-.247.09-.319.338-.289ZM36.346 9.315c-2.389.025-4.777.025-7.164.024-.445 0-.445 0-.446.45v.176c-.098-.047-.258-.105-.282-.199-.045-.171-.061-.382.182-.47.052-.018.128-.07.13-.109.007-.336.25-.262.445-.262 2.256-.002 4.513.003 6.769-.006.282-.001.413.08.366.396ZM6.127 21.919c.137-.027.275-.032.413-.029.165.004.326.017.317-.228-.001-.04.067-.119.1-.117.284.013.25-.18.248-.359-.002-.183-.048-.396.255-.38.03 0 .069-.06.093-.097.014-.023-.004-.069.011-.086.162-.174.301-.397.501-.497.15-.075.213-.117.213-.278 0-.207-.096-.482.28-.48.023 0 .069-.075.067-.114-.011-.253.166-.22.373-.222l.361-.01-.002.024c-.063.342.111.38.358.334 0 0 .002-.002-.002.024-.007.13-.012.233-.016.34 0 .002.005.003-.023 0-.243.004-.46.01-.703.012-.267-.048-.364.049-.337.293.015.134.002.27 0 .432-.045.128-.084.316-.134.319-.238.013-.23.158-.226.322.004.137 0 .273 0 .41H8.25c-.188-.006-.256.045-.362.208-.113.175-.3.359-.488.503-.02.015-.064-.002-.086.012-.038.024-.098.063-.096.092.02.303-.198.251-.374.26.003-.002 0 .003.002-.023.063-.344-.13-.361-.386-.336l-.323-.006-.01-.323ZM20.89 3.563c.098.004.195.007.318.038-.027.35.18.34.397.316l-.005.034c-.001.129 0 .23-.026.331-.127.047-.302.079-.315.143-.03.158-.086.217-.243.227-.047.003-.094.097-.128.157-.028.048-.036.153-.056.154-.316.014-.216.26-.259.433-.028.115-.1.22-.16.324-.055.097-.12.189-.207.326.365-.016.337.19.284.392a41.333 41.333 0 0 0-.297-.03l-.059-.317-.295-.046-.073-.337c-.11 0-.208 0-.308-.024.05-.322-.13-.352-.356-.355-.02-.126-.039-.229-.032-.332.195.012.346.01.341-.232 0-.04.108-.08.16-.125.085-.072.166-.147.245-.225.038-.038.068-.119.103-.12.297-.008.265-.221.248-.404-.022-.24.057-.357.334-.325.147 0 .268-.002.39-.003ZM23.032 4.992l.335.02c.006.1.011.194.014.316-.002.03-.01.037-.036.034-.055-.005-.086-.012-.114-.006-.221.046-.572-.166-.588.294 0 .017-.045.048-.067.047-.326-.02-.249.217-.268.403-.01.106-.05.295-.091.299-.198.018-.278.103-.28.295 0 .028-.066.078-.103.08-.227.006-.24.154-.237.326.002.138-.008.276-.037.411-.123-.007-.22-.01-.321-.04.06-.33-.138-.343-.355-.36a7.593 7.593 0 0 1-.006-.34c.005-.146-.008-.267.012-.381.033-.179.047-.382.144-.522.155-.224.373-.403.562-.603.121-.128.293-.24.346-.393.073-.214.196-.245.4-.234.127 0 .229 0 .33-.002 0 0-.002.004-.003.03-.058.345.139.352.363.326ZM10.419 25.141c-.077-.001-.154-.002-.262-.025-.002-.356-.195-.38-.448-.32a1.703 1.703 0 0 1-.321-.038.814.814 0 0 1-.033-.361c.175-.017.357.031.363-.222.002-.049.11-.09.158-.143.066-.074.16-.15.176-.237.037-.208-.077-.483.291-.5.027-.002.048-.095.075-.144.031-.057.066-.162.099-.162.293 0 .257-.21.286-.38.14.029.262.047.382.088-.046.279.135.27.3.306.02.29.05.555.055.82.001.083-.063.235-.108.239-.189.017-.25.112-.27.282-.004.037-.086.092-.133.093-.184.005-.203.115-.198.26.005.138 0 .277-.025.414-.145.01-.266.02-.387.03ZM4.694 8.557c.002-.08.004-.161.03-.268.128-.044.232-.061.361-.079.187-.006.354-.025.342.223-.002.037.045.11.07.11.203.003.22.199.315.278.173.142.362.224.379.483 0 .015.123.033.19.034.274.003.55.001.824.027.063.314-.176.28-.341.327-.007.105-.014.2-.04.308-.122.04-.223.068-.334.1v.31l-.03-.002-.352.001c-.19.008-.278-.013-.359-.217-.07-.175-.349-.265-.44-.487-.005-.012-.056-.006-.085-.009-.509-.049-.509-.049-.518-.578-.001-.049-.006-.098-.007-.172 0-.147-.003-.268-.005-.39ZM23.368 19.026c.005-.099.01-.197.04-.323.33.026.37-.145.332-.382 0 0 0 .002.026 0l.318-.026c.008-.127.015-.225.046-.326.123-.004.222-.006.346-.007.123.027.298.04.306.082.034.184.212.215.278.306.13.181.248.338.452.43.019.008.001.078.017.112.023.048.064.129.093.127.305-.018.256.2.265.406.001.128.004.23.006.333-.004.099-.008.198-.04.32a1.74 1.74 0 0 1-.351.027c-.128-.046-.304-.076-.317-.14-.031-.157-.083-.227-.243-.225-.038 0-.11-.047-.11-.072.006-.357-.254-.256-.454-.283-.097-.013-.261-.08-.264-.132-.015-.22-.142-.225-.302-.22-.148.004-.296-.004-.444-.007Z" fill="#00AB55"/><path d="M10.783 22.596c-.009.184.027.393-.266.393-.034 0-.068.105-.1.162-.026.05-.047.142-.074.143-.368.018-.254.293-.291.5-.016.088-.11.164-.176.238-.048.054-.156.094-.158.143-.006.253-.188.205-.388.222a42.2 42.2 0 0 1-.35.015 1.366 1.366 0 0 1-.271-.037 1.53 1.53 0 0 1-.08-.357c.042-.128.077-.314.123-.317.281-.016.239-.207.237-.38-.003-.188-.035-.391.262-.376.028.001.085-.065.085-.1 0-.168.06-.252.242-.254.043 0 .086-.102.126-.159.037-.053.069-.158.103-.158.296 0 .25-.213.286-.39.118.013.21.022.3.03.029.124.055.233.08.365-.03.263.064.369.309.318h.001ZM10.83 25.112c0-.138.006-.277.001-.416-.005-.144.014-.254.198-.259.047 0 .129-.056.133-.093.02-.17.081-.265.27-.282.045-.004.11-.156.108-.24-.004-.264-.035-.53-.042-.823.013-.029.041-.033.041-.033l.33.025c-.012.234.057.39.35.364-.017.32.12.424.398.413 0 .156.014.287-.005.413-.013.087-.062.232-.111.24-.26.037-.234.215-.246.397-.007.109-.052.302-.095.306-.223.022-.24.205-.347.339-.245-.006-.463-.011-.681-.04.033-.273-.125-.278-.302-.273v-.038ZM16.19 3.916c-.188.016-.384.053-.375-.246.001-.032-.112-.09-.177-.096-.154-.015-.31-.007-.493-.034-.018-.195-.021-.346-.262-.34-.04 0-.12-.11-.112-.16.009-.066.083-.125.135-.18.067-.073.142-.138.21-.21.043-.045.08-.14.117-.138.293.009.235-.198.24-.368.732 0 1.465.01 2.197-.004.237-.004.327.076.276.33a7.492 7.492 0 0 1-1.063.024c-.28-.02-.372.082-.344.351.019.182.052.394-.253.385-.031 0-.09.117-.095.182-.013.167-.002.336-.002.504ZM17.97 13.95c-.286.078-.364-.041-.363-.327.012-1.927.006-3.853.007-5.78 0-.175.04-.367-.247-.368-.037 0-.073-.186-.11-.312.18-.034.367-.055.39.207.002.033.04.088.067.09.34.032.255.285.255.487.002 1.992.001 3.983.002 6.003Z" fill="#00AB55"/><path d="M11.84 25.463c.08-.134.097-.317.32-.339.043-.004.088-.197.095-.306.012-.182-.015-.36.246-.398.049-.007.098-.152.111-.24.019-.125.005-.256.006-.426v-.07c.098 0 .196 0 .32.026-.015.323.169.346.389.324v.032c-.002.177-.006.305.204.347.234.046.16.266.15.417-.007.11-.06.28-.133.306-.137.047-.225.08-.23.242-.002.043-.07.12-.106.12-.278 0-.239.196-.266.37-.126.003-.227.004-.328.005a7.18 7.18 0 0 1-.74-.04 1.726 1.726 0 0 1-.038-.37ZM16.214 3.919a2.23 2.23 0 0 1-.023-.507c.005-.065.064-.183.095-.182.305.01.272-.203.253-.385-.028-.27.064-.37.344-.351.344.023.691.004 1.066.002.245 0 .462.001.707.029.029.127.03.227.003.328-.277.067-.674-.196-.728.314-.002.015-.05.038-.074.037-.17-.006-.256.058-.256.24 0 .041-.086.117-.132.117-.202-.001-.22.118-.214.273.007.148.003.296.004.445a1.54 1.54 0 0 1-.33-.023c.026-.335-.163-.352-.388-.325-.1-.003-.201-.006-.327-.012ZM107.607 22.96c-.03-.108-.059-.216-.104-.34a1.022 1.022 0 0 1 .012-.348c.335.03.349-.162.329-.383 0-.219.001-.437.028-.684.244-.062.332.018.347.252.013.223.014.52.395.436.001.317.002.634-.013.997-.005.237.016.428.013.62-.004.252.116.356.357.345l-.054 1.007c-.001.13-.004.208-.001.286.015.37.016.37-.356.367 0-.101-.001-.203.014-.347.005-.284-.011-.525-.015-.766-.004-.202-.09-.314-.301-.311l-.001-.83c-.002-.193.022-.34-.017-.467-.023-.078-.134-.155-.22-.177-.042-.01-.113.11-.176.165-.076.063-.158.12-.237.178ZM6.486 6.06c.003-.096.005-.193.034-.315a.694.694 0 0 1 .327-.008c.063.278-.197.672.311.727.016.002.04.049.038.074-.006.168.056.258.24.254.039-.001.115.069.114.103-.013.259.157.247.333.245.188-.003.42-.064.406.26-.001.025.048.079.072.077.316-.019.27.207.277.423.001.12.001.216-.015.323-.118.006-.22.003-.349-.004-.194-.01-.38.018-.368-.248.001-.037-.086-.086-.14-.115-.05-.026-.156-.024-.16-.047-.06-.356-.37-.237-.575-.316-.064-.025-.167-.073-.17-.114-.007-.172-.07-.253-.25-.251-.038 0-.11-.072-.11-.109.011-.296-.2-.23-.368-.263v-.332h.028c.34.056.352-.138.325-.364ZM48.544 19.06c.102-.026.204-.026.33-.026h5.766c.079.285-.04.365-.326.363-1.817-.012-3.635-.01-5.452-.002-.237.002-.36-.054-.318-.335ZM6.135 10.768c-.001.1-.002.2-.031.325-.337-.024-.35.168-.325.39 0 0-.004-.002-.03-.003-.333-.054-.351.135-.328.358h-.025c-.123-.027-.303-.052-.304-.08-.008-.382-.288-.251-.487-.281-.085-.013-.237-.066-.236-.098.006-.303-.202-.255-.382-.284-.003-.25-.007-.471-.008-.718-.002-.126-.007-.228-.012-.329.009-.1.017-.2.048-.334a.625.625 0 0 1 .291-.06c.065.184-.013.444.31.415.023-.002.075.05.074.075-.005.198.088.285.283.283.026 0 .076.05.075.076-.017.326.217.26.405.263.228.003.455.002.682.002ZM24.456 17.551c0-.082 0-.165.025-.276.318.024.352-.156.365-.38.21.004.388.01.394-.256 0-.034.096-.087.15-.091.04-.004.12.056.122.09.005.187.102.259.277.27.03.002.083.064.083.1.005.248.174.264.348.239.296-.042.423.07.38.394l.014.688c-.006.099-.01.198-.044.322a.729.729 0 0 1-.327.01c-.004-.184.024-.356-.224-.355-.042 0-.12-.07-.12-.109-.002-.288-.207-.232-.377-.233-.17-.002-.345.024-.367-.231-.005-.047-.12-.113-.19-.12-.167-.017-.336-.003-.506-.017a2.005 2.005 0 0 1-.003-.045ZM19.404 2.848c.1.003.2.005.325.032.046.128.066.23.085.36.005.186.02.342-.226.34-.062 0-.13.11-.187.176-.04.047-.063.152-.096.154-.306.01-.252.228-.269.42-.008.103-.057.285-.1.289-.262.024-.262.19-.251.377-.1 0-.2 0-.327-.027.01-.262-.093-.362-.327-.361 0-.175-.007-.322.002-.469.003-.063.031-.177.056-.18.307-.028.213-.26.246-.437.02-.105.095-.285.145-.285.296 0 .27-.19.291-.38l.633-.009ZM54.312 13.65c.102-.028.204-.028.331-.028.026.258.011.517.03.773.017.24-.074.303-.306.302-1.446-.01-2.893-.004-4.394-.004h-.358c-.052-.29.072-.367.357-.364 1.308.015 2.617.007 3.925.006.415 0 .415 0 .415-.42v-.265ZM25.889 14.339c.014-.264.03-.527.042-.79.007-.154.015-.293.225-.306.032-.002.073-.124.08-.193.012-.146.004-.294.032-.47a.585.585 0 0 1 .204-.028c.496-.001.508-.002.535.51.012.24.162.198.304.202 0 .459 0 .917-.025 1.402-.164.035-.276.022-.285-.165-.003-.055-.088-.11-.14-.16a5.4 5.4 0 0 0-.27-.245c-.053-.044-.115-.107-.173-.107-.058 0-.168.07-.167.105.01.29-.194.237-.363.245ZM3.28 15.405c-.001-.417-.002-.834.024-1.28.185-.001.445-.022.482.06.131.285.28.305.535.18.106-.053.251-.024.379-.032.002.148 0 .297.005.445.006.151-.002.273-.208.282-.052.002-.136.127-.141.2-.018.266-.008.535-.036.83-.247.03-.466.03-.685.03v-.027c0-.125-.008-.223.003-.32.031-.273-.068-.41-.358-.368Z" fill="#00AB55"/><path d="M12.971 25.867c.002-.173-.037-.368.241-.368.037 0 .104-.078.105-.121.006-.161.094-.195.231-.242.073-.025.126-.197.133-.306.01-.151.084-.371-.15-.417-.21-.042-.206-.17-.204-.345a.73.73 0 0 1 .33-.004c-.023.33.166.346.386.325.108.01.216.018.341.068-.039.358.154.372.383.34.1.001.2.002.324.028a.78.78 0 0 1-.12.31c-.064.09-.146.168-.226.244-.054.05-.12.088-.182.131-.051.037-.148.075-.147.11.012.303-.2.253-.38.254l-.79.001a35.954 35.954 0 0 1-.275-.008ZM16.54 26.228c-.457 0-.914 0-1.399-.026.03-.109.08-.198.144-.275.052-.062.12-.112.184-.165.076-.064.154-.125.231-.187.055-.044.16-.096.155-.13-.016-.095-.078-.263-.12-.262-.297.003-.27-.19-.263-.38.318-.106.515-.037.741.235.04.047.139.058.211.062.265.015.53.02.814.072.018.263.018.482.018.702h-.027c-.127 0-.228.012-.325-.002-.283-.041-.408.068-.364.356ZM7.547 23.328c-.097-.002-.193-.004-.314-.035a.754.754 0 0 1-.011-.33c.18-.005.282-.002.367-.212.072-.182.299-.372.471-.474.168-.1.223-.165.216-.333-.005-.137-.001-.275-.001-.412H8.3c.188.007.35.02.34-.224 0-.04.066-.121.098-.12.308.018.242-.207.282-.378.126.005.226.006.327.008 0 0 .005 0 .007.023 0 .12 0 .22-.003.347-.003.137-.006.246-.005.354.002.177-.041.262-.223.388-.16.11-.387.28-.49.505-.008.017.001.044-.009.057-.027.037-.062.099-.092.097-.302-.015-.275.2-.252.38.038.301-.106.383-.395.353l-.338.006ZM23.344 19.026c.172.003.32.01.468.007.16-.005.287 0 .302.22.003.052.167.12.264.132.2.027.46-.074.454.283 0 .025.072.072.11.072.16-.002.212.068.243.225.013.064.19.094.316.166.028.132.032.237.035.342-.003.098-.006.197-.038.32a1.681 1.681 0 0 1-.348.027c-.086-.002-.179.02-.199-.009-.134-.194-.328-.329-.479-.498-.076-.086-.082-.218-.244-.215-.038 0-.11-.048-.11-.072.006-.36-.255-.26-.456-.282-.094-.01-.26-.068-.26-.106-.004-.284-.184-.255-.372-.243l-.015-.016.024-.336.305-.017ZM25.526 15.764c.002-.198.004-.396.03-.623.395.027.324-.236.328-.445h.029c.199-.018.345-.007.335.23-.001.038.069.112.106.112.17.001.25.066.254.245 0 .042.103.115.161.117.202.006.24.117.245.29.007.243.037.485.054.75-.039.146-.074.27-.133.393a8.954 8.954 0 0 1-.594-.46c-.133-.112-.328-.217-.365-.36-.074-.281-.252-.255-.45-.249ZM5.063 12.908c-.001.1-.002.2-.029.328-.33-.028-.344.167-.357.384-.121-.027-.3-.053-.3-.082-.004-.362-.265-.279-.461-.269-.222.011-.295-.071-.284-.288.013-.264-.001-.53-.003-.819.001-.124.002-.223.03-.323.48-.159.695.232.905.466.161.18.28.264.498.27l.001.333Z" fill="#00AB55"/><path d="M25.525 15.764c.199-.006.377-.032.451.25.037.142.233.247.365.359.186.158.38.307.594.484.04.127.056.23.072.334-.014.105-.028.21-.066.338-.13.043-.235.064-.34.086.042-.298-.085-.41-.38-.368-.175.024-.344.009-.349-.239 0-.036-.052-.098-.083-.1-.175-.011-.272-.083-.277-.27-.002-.034-.082-.094-.122-.09-.054.004-.15.057-.15.09-.006.267-.185.261-.397.242-.029-.025-.03-.035-.031-.045.005-.178-.04-.386.259-.372.03.001.066-.15.126-.257.399.032.325-.233.329-.44 0 0-.002-.002 0-.002ZM3.628 12.187c.003.264.017.53.004.794-.011.217.062.3.284.288.196-.01.457-.093.46.27 0 .027.18.054.302.107.028.128.029.23.03.333l-.006.329c-.13.033-.275.004-.38.056-.257.126-.405.106-.536-.18-.037-.08-.297-.06-.481-.086a22.705 22.705 0 0 1-.003-1.877c.126-.03.226-.032.326-.034ZM54.669 18.295c-1.547.026-3.095.025-4.67 0a1.403 1.403 0 0 1-.028-.332c1.46 0 2.92.005 4.38-.004.238-.002.359.056.318.336ZM15.447 24.802c.018.191-.009.384.288.38.042 0 .104.168.12.264.006.033-.1.085-.155.13-.077.061-.155.122-.231.186-.063.053-.132.103-.184.165a1.568 1.568 0 0 0-.172.273c-.595.025-1.189.025-1.811 0a1.353 1.353 0 0 1-.031-.325h.765c.18-.002.392.048.38-.255-.001-.035.096-.073.147-.11.061-.043.127-.08.182-.131.08-.076.162-.154.225-.244.06-.086.098-.189.146-.309.102-.024.204-.025.33-.024ZM15.445 2.143c.023.171.081.378-.212.369-.037-.001-.074.093-.116.138-.069.072-.144.137-.211.21-.052.055-.126.114-.135.18-.008.05.073.16.112.16.24-.006.244.145.234.339-.155.026-.31.025-.466.03-.139.004-.245-.009-.258-.193-.004-.058-.11-.138-.182-.156-.11-.027-.232-.008-.382-.03a6.053 6.053 0 0 1-.14-.69h.026c.134 0 .242-.014.345.002.29.043.383-.091.343-.358h1.042ZM27.07 16.418c-.02-.243-.049-.485-.056-.728-.005-.173-.043-.284-.245-.29-.058-.002-.16-.075-.161-.117-.004-.18-.083-.244-.254-.245-.037 0-.107-.074-.106-.111.01-.238-.136-.25-.334-.232a1.294 1.294 0 0 1-.027-.331c.17-.033.374.02.364-.27 0-.036.109-.105.167-.105.058 0 .12.063.173.107a5.4 5.4 0 0 1 .27.246c.052.05.137.104.14.16.01.186.121.199.285.19.043.392.066.785.075 1.18.004.125-.028.252-.064.41-.09.067-.158.101-.226.136ZM5.062 12.55c-.218.019-.337-.066-.498-.245-.21-.234-.425-.625-.905-.492-.03-.129-.033-.232-.036-.336-.015-.102-.03-.204-.02-.33.146-.024.264-.025.382-.025.182.002.39-.046.384.257 0 .032.15.085.236.098.2.03.48-.101.487.28 0 .03.181.054.304.107.026.127.027.23.028.331a1.558 1.558 0 0 1-.037.323c-.126.029-.225.03-.325.032ZM6.135 10.768c-.227 0-.454.001-.682-.002-.188-.002-.422.063-.405-.263.001-.026-.049-.077-.075-.076-.195.002-.288-.085-.283-.283 0-.026-.051-.077-.075-.075-.322.029-.244-.23-.31-.441-.018-.145-.02-.248-.021-.35.003-.08.006-.16.039-.267.144-.03.26-.035.375-.04.002.05.007.098.008.147.01.53.009.53.518.578.03.003.08-.003.085.009.091.222.37.312.44.487.081.204.17.225.359.243.026.128.026.23.027.333 0 0-.001 0 0 0ZM18.683 4.996c-.009-.186-.009-.353.253-.377.043-.004.092-.186.1-.289.017-.192-.037-.41.269-.42.033-.002.056-.107.096-.154.057-.067.125-.176.187-.175.247.001.231-.155.252-.342.13-.029.233-.031.336-.034.08.003.16.006.267.035.028.126.03.225.032.325-.251-.031-.33.087-.308.326.017.183.05.396-.248.404-.035.001-.065.082-.103.12-.079.078-.16.153-.244.225-.053.046-.162.085-.161.125.005.242-.146.244-.367.232L18.682 5l.001-.003ZM24.46 17.61c.169 0 .338-.014.505.003.07.007.185.073.19.12.022.255.197.23.367.23.17.002.375-.054.378.234 0 .038.077.109.119.109.248-.001.22.171.223.376.015.146.03.245.043.344-.013.106-.026.213-.068.343-.13.025-.23.028-.33.03-.01-.18.04-.398-.265-.38-.029.002-.07-.079-.093-.127-.016-.034.002-.104-.017-.113-.204-.091-.322-.247-.452-.429-.066-.091-.244-.122-.278-.306-.008-.043-.183-.055-.305-.107-.022-.126-.019-.226-.016-.326ZM87.762 19.39c-.024-1.223-.018-2.444-.027-3.665-.002-.236.054-.36.335-.32.026 1.216.022 2.433.03 3.65.001.23-.05.37-.338.334ZM84.883 9.672c-.19.018-.416.08-.431-.234-.002-.035-.118-.093-.182-.094-.582-.007-1.163 0-1.744-.006-.244-.002-.191.168-.2.334-.114-.006-.32-.021-.328-.071-.034-.2-.016-.41.005-.615.003-.028.136-.059.21-.06.681-.004 1.364-.002 2.046-.002.04 0 .082-.004.117.01.044.016.119.06.115.074-.092.352.518.271.392.664ZM18.744 2.857c.006.19.032.38-.264.38-.05 0-.125.18-.145.285-.033.177.061.41-.246.437-.025.003-.053.117-.056.18-.009.147-.003.294-.018.471-.026.031-.037.033-.047.034-.081-.002-.162-.004-.269-.032.028-.393-.228-.332-.444-.327l.003-.005c0-.15.004-.298-.003-.446-.007-.155.012-.274.214-.273.046 0 .132-.076.132-.116 0-.183.087-.247.256-.24.025 0 .072-.023.074-.038.054-.51.45-.247.742-.313.042 0 .071.003.071.003ZM103.56 19.034c.001-.985-.001-1.97.003-2.954.001-.134-.062-.321.187-.315.23.006.151.182.168.33 0 1.013-.005 2.001.004 2.989.001.231-.08.334-.337.28a1.668 1.668 0 0 1-.025-.33ZM27.326 13.247c-.157.013-.307.055-.32-.185-.026-.512-.038-.511-.534-.51l-.204.001c-.028-.137-.025-.276-.03-.413-.009-.171-.005-.317.233-.317.041 0 .112-.121.118-.19.016-.197.004-.395.007-.592.002-.123-.033-.27.172-.274.2-.003.184.132.184.262 0 .286.002.572 0 .858-.002.16.006.298.218.315.048.004.126.076.13.122.023.301.03.604.026.923Z" fill="#00AB55"/><path d="M49.615 14.72c.102-.027.203-.027.33-.027.026 1.071.026 2.143.026 3.242 0 .028 0 .029-.026.029l-.33-.001V14.72ZM106.775 9.31c-.623.027-1.248.052-1.87.02-.398-.02-.792-.122-1.187-.195-.035-.007-.06-.071-.093-.131a.82.82 0 0 1 .307-.078c.743-.005 1.487-.005 2.23 0 .117 0 .234.037.351.037.227 0 .289.122.262.348ZM17.282 19.035c-.02-.169-.083-.372.21-.375.042 0 .115-.162.116-.25a45.71 45.71 0 0 0 0-1.924c-.007-.285.086-.409.398-.364.006.363-.024.724-.033 1.086-.01.404-.004.808-.002 1.212 0 .136.002.256-.188.267-.05.003-.132.078-.138.127-.025.222-.168.237-.363.22ZM95.293 17.165c-.31.13-.355.105-.356-.196-.003-.544.012-1.088-.006-1.63-.008-.25.092-.319.338-.289.025.696.025 1.392.024 2.115ZM99.243 19.39c-.026-.715-.025-1.428-.026-2.17.265-.067.375.031.365.314a23.389 23.389 0 0 0-.001 1.54c.007.24-.059.358-.338.315ZM13.66 2.5c.064.222.1.445.142.69-.321.022-.649.035-.974.013-.075-.005-.193-.124-.202-.201-.056-.496-.043-.503.442-.503h.592ZM71.942 19.39c-.025-.696-.025-1.39-.024-2.112.282-.076.377.037.363.325-.023.49-.017.982-.001 1.473.007.24-.06.355-.338.313ZM103.532 19.034c.028.101.029.203.028.33-.608.026-1.217.017-1.824.031-.238.006-.356-.057-.316-.335.695-.026 1.39-.026 2.112-.026ZM17.284 25.874a5.4 5.4 0 0 1-.028-.686c.288-.027.576-.041.861-.017.075.006.193.124.201.2.056.497.043.503-.442.503h-.592ZM64.748 13.622a55.78 55.78 0 0 1-.026-2.115c.281-.072.376.04.362.327-.023.49-.017.981-.002 1.47.008.238-.056.357-.334.318ZM104.631 25.457c.001.398-.202.543-.592.404-.057-.02-.112-.13-.115-.2-.012-.326.01-.654-.01-.98-.015-.245.083-.324.335-.266.026.25.044.475.022.696-.03.288.083.393.36.346ZM92.733 25.647c-.005-.034-.005-.045-.011-.052l-.277-.316c.154-.059.304-.15.462-.168.16-.018.42-.02.475.07a.737.737 0 0 1 .057.569c-.03.086-.306.111-.47.112-.078 0-.155-.124-.236-.215ZM11.529 7.162c.107-.01.214-.02.346-.02.025.022.026.034.027.046 0 .185.043.397-.261.377-.029-.002-.071.058-.09.098-.02.043-.002.116-.031.14-.185.16-.38.31-.57.465-.047.04-.104.086-.122.14-.058.175-.169.233-.361.16a.877.877 0 0 1 .047-.348c.33.049.26-.182.28-.347 0-.003-.004-.001.021-.003l.319-.028.02-.322c-.007-.008-.015-.015.013-.014.132 0 .226-.008.341-.018l.02-.326ZM3.635 16.148c.22-.028.438-.029.685-.03.028.128.028.256.03.383 0 .167.034.345-.23.354-.045.001-.076.139-.133.195-.058.058-.14.124-.212.125-.045.002-.129-.109-.132-.173-.016-.274-.007-.55-.008-.854Z" fill="#00AB55"/><path d="M104.631 25.43c-.277.074-.39-.03-.36-.319.022-.22.004-.446.003-.697l.002-.712a.586.586 0 0 1 .34.043c.017.323.017.602.017.882l-.002.803ZM20.875 6.8l.008.329c0 .052-.002.064-.003.075-.201-.016-.442.026-.418-.306.002-.035-.073-.108-.11-.107-.181.003-.243-.08-.248-.251-.002-.04-.096-.073-.14-.116-.072-.068-.139-.142-.207-.214-.042-.046-.084-.133-.123-.132-.245.011-.24-.148-.222-.34.027-.028.038-.029.05-.03h.304l.073.337.295.046.058.317c.086.008.18.018.3.054.034.119.04.21.048.306l.335.032ZM94.2 22.366c.039.615-.053 1.233.021 1.878-.254.006-.358-.14-.356-.386.003-.314.012-.63-.003-.943-.012-.26.104-.426.338-.549ZM6.843 9.989l.021-.297c.165-.047.404-.013.36-.339.115-.05.21-.063.336-.08 0-.101 0-.196.02-.304.119-.028.22-.044.317-.06.02-.122.035-.226.075-.326.117-.002.21-.006.303.006v.047c.006.178.038.372-.247.357-.033-.002-.1.075-.1.116-.004.156-.058.236-.227.238-.045 0-.127.076-.129.12-.007.156-.058.235-.227.237-.046 0-.13.079-.13.119.01.246-.15.237-.342.214-.028-.026-.029-.037-.03-.048ZM108.997 12.967c-.042-.034-.075-.068-.075-.102.004-.45.012-.899.035-1.366.302-.067.406.05.379.338a4.071 4.071 0 0 0-.001.741c.022.247-.067.373-.338.389ZM20.528 8.625l-.025-.016-.306-.2c.131-.06.258-.158.393-.171.313-.032.63-.022.975-.007.03.125.032.23.012.347a12.89 12.89 0 0 1-.717.048h-.332ZM26.6 8.212v-.344c-.237 0-.45 0-.691-.006-.07-.28.03-.408.322-.368.125.017.255-.006.381.004.16.013.371-.074.398.212.034.362-.035.487-.37.545-.032-.023-.037-.033-.04-.043ZM3.944 20.097c.031.106.037.213.046.362.222 0 .443 0 .69.005.058.262-.03.4-.313.353-.067-.01-.137.002-.206.002-.645.002-.653-.008-.545-.693l.328-.029ZM108.615 21.865c-.382.112-.383-.185-.396-.408-.015-.234-.103-.314-.347-.28.002-.114.01-.317.062-.328.176-.04.368-.02.552-.005.027.002.063.093.068.145.025.282.042.565.061.876ZM98.835 22.602c.026.477.027.955.027 1.462-.264.06-.38-.038-.36-.319.02-.283.02-.57 0-.854-.018-.246.088-.317.333-.29ZM103.231 24.09c-.025-.477-.025-.954-.025-1.46.283-.073.386.042.361.329a5.97 5.97 0 0 0-.003.824c.011.23-.077.333-.333.308ZM9.351 2.814c-.106.032-.213.04-.354.05 0 .222 0 .437-.005.68-.29.071-.4-.05-.362-.332.014-.096.002-.196.002-.295.002-.422.002-.41.412-.423.228-.007.336.06.307.32ZM108.559 25.54c.373-.021.372-.021.357-.392-.003-.078 0-.157.002-.26.3-.056.347.172.406.379.02.073.02.159.003.233-.028.123-.057.33-.121.344-.182.04-.385.016-.573-.02-.04-.007-.05-.168-.074-.284ZM45.687 9.314c-.34.026-.677.025-1.044.025-.14-.337-.092-.412.248-.416.148-.001.3.016.445-.003.297-.04.397.09.35.394ZM9.765 8.94l-.426.04c0-.378 0-.716.022-1.085a.69.69 0 0 1 .335-.007l.06.724.01.328ZM20.463 19.744c.04-.363.292-.517.658-.387.05.018.101.11.107.172.014.174.006.35-.022.552a.661.661 0 0 1-.317-.004c.042-.318-.11-.377-.374-.325a.833.833 0 0 1-.052-.008ZM10.473 22.255l-.08-.34a40.536 40.536 0 0 0-.3-.029c-.026-.002-.025-.003-.024-.028-.006-.117-.012-.209-.018-.3-.132-.018-.235-.031-.338-.07-.003-.12-.008-.216.004-.312l.05-.001c.172.002.376-.046.362.244-.002.035.074.105.113.104.183-.004.241.085.244.254 0 .037.076.105.114.103.244-.012.24.147.216.34-.027.028-.039.03-.075.03l-.268.005ZM19.443 20.807s-.023.009-.059.013c-.12.01-.203.016-.298.022v.321s.006-.003-.021 0c-.138.013-.248.021-.367.024a.545.545 0 0 1-.022-.016c.01-.185.016-.311.266-.397.124-.042.373-.266.432-.43.087-.24.217-.234.416-.213.021.125.02.225.02.325l-.027.002-.34.027v.322ZM44.617 19.06c.338-.026.676-.026 1.041-.027.077.278-.028.4-.318.361a1.725 1.725 0 0 0-.41 0c-.239.026-.352-.06-.313-.334ZM32.008 19.06c.338-.026.676-.026 1.041-.026.075.276-.03.399-.32.36a1.72 1.72 0 0 0-.409 0c-.24.026-.351-.06-.312-.334ZM73.676 18.677c.007.196.025.358.263.428.077.023.12.157.18.262a1.526 1.526 0 0 1-.32.024c-.454 0-.564-.13-.439-.572.02-.07.19-.096.316-.142ZM108.242 24.11c.227-.022.313.09.317.292.004.241.02.482.015.741-.209.041-.331-.002-.323-.24.009-.258-.015-.517-.009-.794ZM75.453 19.39c.012-.067.038-.178.09-.194.332-.095.326-.378.35-.625.022-.219.133-.264.34-.252.004.193-.008.389-.041.58-.009.05-.077.094-.125.13-.044.034-.14.054-.14.078.008.352-.24.283-.474.283ZM59.752 16.12c-.143-.223-.094-.354.174-.356.252-.002.505 0 .785.001.044.263-.067.382-.34.358-.196-.018-.394-.003-.62-.003ZM107.606 22.983c.08-.082.162-.138.238-.201.063-.055.134-.175.176-.165.086.022.197.1.22.177.039.128.015.274.017.439-.22.046-.439.065-.683.084-.007-.103.012-.207.032-.334ZM108.972 23.828c-.242.038-.362-.066-.358-.319.003-.19-.018-.382-.013-.591.201-.033.316.02.318.239.002.215.035.43.053.671ZM104.659 24.626c-.026-.279-.026-.558-.027-.865.102-.028.203-.028.33-.028.026.194.013.389.03.581.021.239-.062.349-.333.312ZM104.605 22.423c.026.194.013.39.03.582.021.239-.061.35-.333.312-.026-.194-.013-.389-.03-.581-.021-.238.061-.349.333-.313ZM26.6 17.641c.106-.048.211-.069.34-.09.038.2.085.407.048.597-.014.076-.212.118-.35.178a6.185 6.185 0 0 1-.037-.685ZM7.917 17.253l-.333-.039-.04-.311-.322-.058a9.896 9.896 0 0 1-.017-.297c.001-.054.002-.065.004-.077.174.018.385-.024.387.26 0 .037.078.103.12.103.23-.003.2.157.203.342 0 .054-.001.066-.002.078ZM8.284 17.945c-.003-.095-.007-.19-.01-.326l.005-.077c.207.007.398-.01.441.299.019.133.335.165.276.442 0 .029-.008.039-.033.035-.12-.008-.217-.01-.314-.014 0 0-.006 0-.006-.024l-.027-.316-.332-.019ZM16.882 22.968c.04.222.054.442.072.687-.118.037-.24.047-.386.06v-.733c.099-.005.193-.01.314-.014Z" fill="#00AB55"/><path d="M7.206 16.446a.447.447 0 0 1-.002.077c-.107.005-.212-.007-.333-.021l-.048-.32-.31-.051c-.01-.106-.018-.21-.026-.339.106-.02.213-.014.335-.007l.05.313.313.065.021.283ZM62.12 15.777c-.036-.282.098-.387.354-.372.137.008.274.002.438.003.07.288-.054.391-.337.36-.144-.017-.293.014-.455.009ZM27.068 16.44c.071-.057.14-.09.225-.133.015.256.022.52-.003.783-.004.04-.151.067-.258.1a1.29 1.29 0 0 1-.074-.333c.036-.147.071-.271.11-.417ZM18.74 24.425c.207-.022.42-.02.662.005.045.13.06.236.074.342l-.677-.04c-.021-.114-.037-.2-.059-.307ZM3.987 11.095c-.12.027-.238.028-.382.03-.007-.22.012-.442.055-.69.122-.028.219-.03.316-.033.004.222.008.444.01.693ZM3.599 11.478c.027.103.03.206.032.335 0 .126 0 .225-.002.35a1.347 1.347 0 0 1-.327.03 2.862 2.862 0 0 1 .01-.65c.005-.033.17-.043.287-.065ZM78.02 8.924c.025.144.015.29.027.433.02.233-.075.348-.335.338-.025-.156-.015-.313-.026-.469-.017-.231.082-.328.334-.302ZM11.813 25.463c.03.115.033.229.039.367-.177.008-.365.018-.534-.033-.073-.022-.109-.17-.176-.29-.014-.032-.01-.06-.01-.06l.68.016ZM14.375 2.143c.068.268-.024.402-.315.359-.103-.015-.211-.003-.344-.003-.071-.269.022-.402.313-.36.104.016.212.003.346.004ZM4.733 13.979c-.026-.102-.027-.205-.03-.333-.013-.243.001-.438.331-.385.026.134.017.27.032.406.026.238-.06.35-.333.312ZM21.602 25.1a5.24 5.24 0 0 1 .021-.676 1.14 1.14 0 0 1 .33-.036l.007.028c-.003.211-.006.423-.035.66a1.45 1.45 0 0 1-.323.025ZM16.568 26.23c-.072-.29.053-.399.336-.358.097.014.198.002.324.002.072.27-.023.402-.314.36-.104-.016-.212-.004-.346-.005ZM21.247 25.53a.859.859 0 0 1 .318-.032c.16.01.27.01.379.011.016.189.066.397-.247.365-.212-.022-.52.102-.45-.343ZM8.998 19.76c.216-.006.433-.012.677.01.026.126.024.224.022.323-.214.006-.428.013-.67-.004-.03-.125-.03-.227-.03-.33ZM6.487 15.742c-.1.028-.2.031-.347.033l-.353-.007v-.335h.686c.006.097.012.19.014.309Z" fill="#00AB55"/><path d="M8.971 19.756c.027.106.027.208.03.336.001.123 0 .22-.004.342-.003.025-.021.029-.045.029a77.03 77.03 0 0 1-.316-.009c0-.135.013-.271-.002-.405-.027-.244.07-.34.337-.293ZM18.771 2.857c-.027 0-.056-.002-.07-.003a2.314 2.314 0 0 1-.018-.328c.138-.025.278-.011.414-.027.235-.026.33.07.304.325-.199.027-.4.03-.63.033ZM21.597 8.565c0-.104-.001-.209-.005-.34a3.905 3.905 0 0 1 .003-.298c.006-.053.008-.065.035-.076.124.001.224.002.325.03 0 .134-.011.242.003.346.04.29-.087.39-.36.338ZM9.693 7.863c-.103 0-.206.001-.335.005a5.26 5.26 0 0 1-.34.004c-.023-.003-.028-.027-.028-.052-.06-.336.14-.34.38-.323.126.001.226.002.329.028 0 .13-.003.234-.006.338ZM3.28 15.433c.29-.07.39.067.358.34-.011.097-.002.195-.003.32-.268.07-.402-.024-.359-.315.015-.104.003-.212.003-.345ZM84.945 14.715c.166-.035.317-.033.305.206-.002.039.06.114.096.117.255.02.251.199.25.405-.255.046-.438.015-.43-.323.004-.125-.143-.255-.221-.405ZM13.246 25.875c.025.1.026.2.028.324-.115.026-.233.019-.348.033-.239.029-.347-.063-.308-.333.101-.027.202-.028.328-.03.108 0 .192.003.3.006ZM93.194 8.965c.045.335-.148.393-.43.376-.029-.427 0-.452.43-.376ZM92.738 19.057c.232-.013.522-.103.534.31-.076.023-.155.016-.23.026-.245.033-.343-.07-.304-.336ZM10.49 8.22l-.048.34c-.114.035-.223.05-.356.055-.024-.022-.025-.034-.025-.072-.058-.332.14-.344.374-.332l.054.009ZM5.06 8.21l-.335.055c-.132-.375-.112-.403.302-.413.033-.001.05-.002.044.023-.007.129-.01.232-.012.335ZM5.426 16.895c-.005.096-.01.193-.043.314-.127.031-.225.036-.324.04-.094-.35-.063-.394.33-.401.031.025.034.036.037.047ZM4.7 8.946c-.118.03-.233.034-.373.042-.057-.258-.02-.463.343-.428.026.118.028.24.03.386ZM12.204 6.79l.053-.338c.104-.009.206-.018.334-.027.027.217.065.465-.326.4-.048-.01-.056-.02-.061-.035ZM10.766 22.25a6.56 6.56 0 0 1 .052-.004c.241-.02.425.008.37.35l-.001.077c-.122-.017-.244-.035-.384-.065-.02-.012-.021-.01-.02-.036l-.017-.322ZM8.629 24.044l.055.332c-.375.118-.4.1-.41-.3.002-.034.002-.052.027-.047.126.009.227.012.328.015ZM10.058 3.218a1.373 1.373 0 0 1-.313-.045 1.779 1.779 0 0 1-.041-.326c.35-.1.4-.062.4.332-.025.032-.035.036-.046.039ZM10.806 25.111c.024.001.023.027.024.064l.012.323c-.24.038-.463.05-.423-.33a1.67 1.67 0 0 1 .387-.057ZM17.598 23.697c.23-.032.46-.062.413.326-.022.037-.034.046-.041.06-.1.002-.199.004-.325-.023-.033-.14-.04-.251-.047-.363ZM20.528 25.107c.096.006.191.013.316.047.033.124.037.22.04.317-.352.08-.391.053-.396-.31.022-.034.033-.041.04-.054ZM21.605 7.85a.524.524 0 0 1-.011.053c-.194-.019-.461.036-.375-.34l.022-.067c.098.004.196.008.32.039.033.122.038.219.044.315ZM4.352 19.392a1.613 1.613 0 0 1-.043.315c-.123.028-.222.03-.32.032-.1-.349-.075-.385.324-.394.033.025.036.036.039.047ZM107.549 9.667c-.217.03-.446.05-.418-.305.338-.144.405-.094.418.305ZM9.707 24.822c.255-.086.448-.062.427.294-.418.07-.42.069-.427-.294ZM8.3 8.63c-.025-.005-.025-.015-.024-.067.01-.14.017-.24.026-.34.101.003.203.006.338.003.044-.004.055 0 .066.003-.006.248-.06.45-.406.402ZM8.982 24.436c.097-.028.198-.032.322-.036.034.112.044.223.06.356-.364.067-.364.067-.382-.32ZM25.561 20.47a1.364 1.364 0 0 1-.034-.338c.1-.027.198-.028.322-.029.132.33.119.346-.288.367ZM24.786 16.835c.027.01.028.02.033.046.015.238-.02.418-.338.37-.03-.214-.094-.474.305-.416ZM8.277 17.517a.51.51 0 0 1-.003.078c-.105.009-.209 0-.34-.01a29.898 29.898 0 0 1-.017-.306c0-.037.002-.049.004-.078.206-.014.41-.01.356.316ZM23.391 23.338c-.02.203.058.496-.35.325-.013-.14-.01-.24-.006-.338 0 0-.002-.005.021-.004.123-.003.222-.007.325-.004l.01.02ZM26.573 8.214c.03.008.035.018.045.042a1.175 1.175 0 0 1-.05.338c-.122.031-.215.04-.308.049-.027-.225-.089-.474.313-.429ZM20.174 3.18c-.101.028-.205.03-.334.033a1.292 1.292 0 0 1-.086-.332c.213-.028.467-.088.42.3ZM24.46 17.596c-.002.115-.005.215-.009.34a.87.87 0 0 1-.323.017c-.028-.026-.03-.037-.03-.048v-.324c.117-.009.212-.016.332-.027.026.007.027.017.03.042ZM21.947 25.485a1.343 1.343 0 0 1-.36.015 1.469 1.469 0 0 1 .01-.374 1.32 1.32 0 0 1 .325-.023c.026.12.027.238.025.381ZM12.618 23.658v.07c-.278.051-.416-.054-.374-.372.237-.07.427-.05.374.302Z" fill="#00AB55"/><path d="M24.072 17.906c.027.01.028.021.031.05-.004.114-.01.212-.02.34l-.316.025c-.031-.215-.089-.47.305-.415ZM17.256 4.31c.215-.03.47-.091.419.302-.212.027-.475.099-.419-.302ZM19.458 5.684c-.008.025-.02.026-.048.03-.247.027-.41-.022-.355-.333.026-.028.038-.029.05-.03.223-.02.404.01.353.333ZM10.832 3.538a.915.915 0 0 1-.376-.003c-.032-.125-.037-.222-.042-.32h.374l.044.323ZM21.239 7.47c-.002.038-.006.05-.018.068-.228.037-.384-.008-.34-.309 0-.036.001-.048.004-.076.216-.025.413-.013.354.318ZM18.313 24.055c.222-.023.473-.088.42.315a.894.894 0 0 1-.378-.006c-.03-.122-.036-.215-.043-.309ZM20.5 3.566c-.027-.1-.03-.2-.033-.325.214-.032.47-.097.421.297-.119.026-.24.028-.387.028ZM11.551 3.891c-.216.04-.466.1-.42-.294.217-.041.463-.095.42.294ZM24.81 6.842c-.11-.009-.219-.018-.342-.068a2.66 2.66 0 0 1-.029-.343.032.032 0 0 1 .025-.003c.013.004.039.004.039.004h.3c.007.115.013.2.015.329a.89.89 0 0 1-.008.08ZM19.5 24.774c-.039-.108-.053-.214-.072-.343.236-.074.434-.07.385.308a.496.496 0 0 0 .001.067l-.314-.032ZM9.763 21.15c-.008.025-.019.026-.071.026-.14-.006-.24-.011-.338-.017v-.32c.21-.019.468-.075.41.31ZM25.176 20.82l.318-.003c.14.33.124.35-.284.36-.034-.002-.051-.003-.047-.028.008-.126.01-.227.013-.328ZM21.597 10.06l-.309-.055c-.015-.099-.03-.203-.047-.337-.001-.03.01-.04.033-.035.118.01.212.016.314.044.013.128.02.235.022.352-.003.01-.013.03-.013.03ZM5.451 16.893c-.028-.009-.03-.02-.038-.048 0-.114.005-.212.04-.333a1.84 1.84 0 0 1 .32-.04c.002.21.078.474-.322.421ZM26.26 8.667c.093-.033.186-.042.302-.048.156.315.127.355-.274.35-.034-.023-.038-.033-.042-.042l.014-.26ZM25.858 14.695c.022.21.093.473-.3.419-.037-.218-.105-.478.3-.419ZM24.855 12.202a.706.706 0 0 1-.003-.325c.123-.031.22-.035.318-.04.102.328.084.35-.315.365ZM25.921 9.701a.744.744 0 0 1-.007-.332c.12-.03.214-.03.309-.03l.06.311c-.136.018-.237.032-.362.051ZM25.565 10.42a.769.769 0 0 1-.01-.336c.123-.03.221-.03.32-.031l.056.327-.366.04ZM78.757 9.315c-.296.077-.404-.055-.357-.364.3-.083.406.05.357.364ZM25.5 15.765c.021.208.096.473-.3.416-.026-.21-.102-.476.3-.416ZM25.526 7.824c-.31.124-.348.09-.329-.308.123-.016.22-.011.318-.007l.01.315ZM85.24 10.386c-.297.077-.403-.057-.356-.365.289-.07.395.064.355.365ZM17.573 23.695c.032.114.039.226.048.362-.279.087-.395-.033-.372-.334.099-.026.199-.028.324-.028Z" fill="#00AB55"/><path d="M26.233 9.316c-.105.024-.199.023-.316.028-.043-.222-.076-.458.304-.416.03.008.034.018.043.041-.004.118-.012.22-.031.347ZM12.178 6.79c.03.014.04.026.06.039.047.237-.003.396-.311.359-.026-.012-.027-.024-.03-.053-.002-.112-.002-.206-.002-.327l.283-.018ZM76.284 17.963c-.13-.303-.092-.347.307-.357.049.227.003.395-.307.357ZM18.288 24.053c.03.096.037.19.042.306-.271.12-.334.077-.36-.25.007-.04.019-.05.043-.06.09-.005.17-.001.275.004ZM63.31 15.422c-.038-.24-.017-.43.317-.371.022.219.06.473-.318.37ZM19.102 5.329c-.01.023-.02.024-.05.027-.246.026-.42-.013-.368-.332.101-.025.205-.026.335-.027.044.103.062.206.083.332ZM4.26 9.279c.026.1.027.204.03.332-.084.04-.168.055-.272.078-.145-.304-.102-.38.242-.41ZM20.528 25.082c-.007.038-.018.045-.04.054a.929.929 0 0 1-.305-.046 1.368 1.368 0 0 1-.012-.284c.291-.104.334-.074.357.276ZM6.823 10c.021 0 .022.01.025.038.02.24-.004.427-.332.37-.026-.097-.026-.196-.026-.308.111-.032.212-.06.333-.1ZM13.682 5c-.22.019-.405-.005-.354-.328a.687.687 0 0 1 .329-.001c.026.128.025.229.025.33ZM6.834 22.972c-.213.007-.393-.021-.348-.335 0-.029.01-.038.034-.034.124.005.224.006.323.007 0 0 .003-.005.003.02.002.126.005.225.002.329a1.158 1.158 0 0 1-.014.013ZM7.894 4.64c.045.229.021.417-.311.355-.026-.108-.026-.213-.026-.341.121-.006.216-.01.337-.013ZM13.684 4.998c-.002-.098 0-.199-.002-.324.105-.025.211-.025.357-.025 0 .113 0 .207-.027.326-.125.023-.223.02-.32.019l-.008.004ZM22.672 4.611a.728.728 0 0 1-.331.003 1.313 1.313 0 0 1-.032-.326.207.207 0 0 1 .007-.018c.21.002.42.005.356.341ZM7.196 22.964c.005.1.01.2.014.325-.219.047-.415.041-.372-.293-.004-.024.006-.033.035-.034.127 0 .225 0 .323.002ZM21.955 10.054c.002.1.003.2.007.324-.218.05-.419.05-.365-.293 0-.025.01-.045.037-.051.125.003.223.011.32.02ZM13.333 4.609c-.1.026-.2.028-.33.003a1.365 1.365 0 0 1-.038-.32c.23-.038.416-.022.368.317ZM23.754 22.977c.007.217-.034.391-.339.354-.024.007-.03-.007-.034-.038 0-.129.003-.226.03-.326a5.13 5.13 0 0 1 .329-.006.698.698 0 0 1 .014.016ZM12.94 4.289c.028.1.031.199.037.322-.217.05-.416.047-.363-.295.1-.026.2-.028.326-.027ZM23.009 23.323c.022.1.019.2.016.325-.099.03-.199.035-.323.038-.062-.24-.037-.427.307-.363ZM6.16 10.767a1.35 1.35 0 0 1-.027-.332c.1-.026.2-.027.326-.029.059.23.038.416-.299.361ZM24.453 22.244c.018.211.016.407-.318.362-.03 0-.042-.006-.04-.03.005-.122.007-.22.033-.32.125-.006.225-.009.325-.012ZM24.834 21.539l-.032.34c-.096.006-.189.012-.315.016-.033-.003-.048-.01-.043-.034.007-.126.009-.227.036-.328.123 0 .221 0 .328.002l.026.004ZM13.69 5.02c.1-.024.197-.022.318-.019.025.107.025.212.025.342-.106.006-.2.01-.318.014a1.31 1.31 0 0 1-.025-.337ZM17.967 22.244a81.43 81.43 0 0 1-.32.012c-.053-.222-.048-.418.297-.367.03.003.038.017.036.04-.006.122-.01.218-.013.315Z" fill="#00AB55"/><path d="M24.456 22.22a.745.745 0 0 1-.33.01c-.085-.312.075-.37.313-.345l.023.01c.004.101 0 .2-.006.325ZM107.818 21.889c.046.221.032.413-.302.358-.052-.227-.031-.413.302-.358ZM6.135 22.268c.1-.024.2-.022.327.005.03.126.031.226.033.326l-.013.014c-.224.009-.408-.026-.347-.345ZM17.599 22.255a1.4 1.4 0 0 1 .026.337c-.12.009-.213.016-.333.022-.026-.108-.026-.214-.026-.362.118 0 .212 0 .333.003ZM17.969 4.67c.01-.027.02-.029.047-.033.249-.03.352.07.317.33-.227.057-.415.04-.364-.297ZM7.536 4.996a.732.732 0 0 1 0 .333.726.726 0 0 1-.331 0L7.212 5l.324-.005Z" fill="#00AB55"/><path d="M7.186 5c.024.102.022.202.02.329-.002.025-.002.024-.027.027a4.835 4.835 0 0 1-.326.003l-.014-.014c-.012-.226.024-.407.347-.345ZM21.948 3.932c.217-.024.416-.025.366.313.002.025-.003.037-.03.04-.125 0-.225-.002-.327-.03-.005-.124-.007-.224-.01-.323ZM23.03 4.967c-.222.051-.42.044-.362-.299.105-.025.21-.025.34-.025l.022.324ZM11.185 22.697a4.85 4.85 0 0 0 .004-.076c.226-.036.413-.012.35.32 0 .025-.028.03-.042.033-.177-.008-.358.002-.312-.277ZM17.241 22.613c.021.107.016.21.01.334-.107.009-.2.016-.318.022-.054-.233-.035-.424.308-.356ZM24.111 22.608c-.006.205-.015.408-.333.364-.024.005-.033-.006-.037-.036 0-.13.003-.229.004-.326-.002 0 .003.003.027.002l.321-.011.018.007ZM20.91 25.474c-.03-.1-.033-.196-.043-.316.238-.086.42-.068.366.287-.1.028-.2.03-.324.03ZM8.627 4.28l-.327.004c-.047-.232-.02-.42.315-.328.02.126.016.225.012.324ZM14.764 24.773c-.226.056-.419.042-.363-.3.222-.047.41-.028.363.3ZM24.453 12.55c-.02-.224 0-.414.332-.356.028.102.03.204.003.33a1.595 1.595 0 0 1-.335.026ZM21.603 3.892c-.215.048-.422.06-.371-.288.225-.062.413-.049.37.288ZM23.743 12.217c.105-.026.21-.026.337-.026.007.123.012.216.016.335-.106.026-.211.026-.338.026l-.015-.335ZM25.183 11.133v-.35c.102-.007.194-.015.31-.02a.68.68 0 0 1 .006.33 1.56 1.56 0 0 1-.316.04ZM23.385 11.86c.106-.025.21-.025.339-.025.008.118.014.211.02.33-.107.026-.213.026-.344.026a16.35 16.35 0 0 1-.015-.33ZM5.45 12.195a1.34 1.34 0 0 1-.029-.331c0-.026 0-.026.025-.026.126-.002.226-.005.326-.008.028.225.018.42-.322.365ZM8.653 4.282c-.022-.1-.017-.2-.012-.324.099-.029.197-.032.32-.036.054.232.029.418-.308.36ZM5.805 11.482c-.05-.221-.038-.413.296-.364.06.228.043.416-.296.364ZM10.39 3.213c.03.1.034.197.041.319-.225.063-.42.058-.372-.29.01-.027.02-.03.047-.039.097 0 .178.003.284.01ZM22.674 11.143c.107-.026.213-.026.335-.026.008.12.013.215.019.336-.105.026-.21.026-.342.026-.006-.122-.01-.216-.012-.336ZM9.678 2.847c.031.1.037.199.043.323-.234.07-.423.057-.373-.29.1-.028.203-.03.33-.033ZM25.18 11.158a1.24 1.24 0 0 1 .315-.04c.054.22.042.409-.289.368a1.23 1.23 0 0 1-.026-.328ZM25.174 11.812c-.101.03-.2.034-.32.04-.025-.104-.025-.21-.025-.348.102-.008.195-.015.314-.022.028.101.03.203.03.33ZM23.028 11.503c.106-.026.212-.026.337-.026l.019.334c-.106.026-.21.026-.342.026l-.014-.334ZM14.043 24.363c-.22.047-.41.031-.362-.297.23-.062.416-.043.362.297ZM8.254 4.287c.026.107.026.212.026.336-.123.007-.218.013-.338.017a1.41 1.41 0 0 1-.007-.342c.106-.004.2-.009.32-.01ZM13.328 24.009c-.221.047-.405.024-.365-.297.23-.065.42-.05.365.297ZM21.96 10.428c.107-.026.212-.026.332-.026.01.118.016.214.024.335-.229.052-.422.034-.356-.31ZM22.342 24.038c-.026-.108-.026-.212-.026-.35l.34.001c.017.106.009.21-.002.34-.1.004-.194.009-.312.01Z" fill="#00AB55"/><path d="M21.923 3.929c.027.102.03.202.009.327a1.521 1.521 0 0 1-.332.026l-.002-.328c.1-.026.2-.027.325-.025ZM22.317 10.785c.108-.026.214-.026.336-.026l.021.334c-.225.047-.425.038-.357-.308ZM16.541 3.956c.225-.052.414-.035.362.3-.223.05-.415.038-.361-.3ZM8.274 24.052c-.106-.006-.21-.021-.33-.038-.01-.094-.019-.18-.029-.298 0-.033.005-.05.03-.046.12.013.215.02.331.03v.324s0 .018-.002.028ZM24.456 12.552c.099-.002.2-.001.327-.002.025.105.025.212.025.343-.115.005-.21.01-.33-.013-.022-.125-.02-.223-.019-.321 0 0-.001-.006-.003-.007ZM21.974 24.04l.321.002a1.29 1.29 0 0 1-.001.322c-.096.013-.19.024-.31.044-.024.008-.029-.01-.032-.044.006-.13.014-.227.022-.323ZM12.619 4.253a.709.709 0 0 1-.331.001 1.393 1.393 0 0 1-.037-.322c.227-.03.419-.02.368.32ZM24.433 12.557c.025.1.023.198.02.32-.108.025-.213.025-.34.025l-.015-.326a1.29 1.29 0 0 1 .335-.019ZM12.226 3.929c.028.102.03.2.037.323-.102.025-.207.025-.343.025-.008-.108-.015-.2-.022-.317a1.18 1.18 0 0 1 .328-.031ZM5.062 12.576c.1-.028.2-.03.324-.033.06.229.045.418-.297.365a1.35 1.35 0 0 1-.027-.332ZM5.052 7.852a1.061 1.061 0 0 1 .039-.321.722.722 0 0 1 .326-.018c.002.13.002.235-.022.34a55.9 55.9 0 0 1-.318-.003s-.017 0-.025.002ZM6.108 6.426a.73.73 0 0 1 0 .33 1.346 1.346 0 0 1-.345.023c.01-.103.02-.207.03-.328l.315-.025ZM21.95 20.082c-.027-.228.033-.38.333-.34.028.001.034.013.032.037-.007.123-.01.221-.039.32-.122.005-.22.009-.32.005l-.006-.022ZM5.023 17.6c.027.1.03.202.003.331-.125.03-.222.032-.318.034l.017-.329.298-.035ZM20.439 19.745c.036.001.047.003.074.032.075.332-.128.34-.342.331l-.01-.024c-.003-.177-.05-.388.278-.339ZM9.723 20.097c-.024-.103-.022-.201-.021-.325 0-.025-.005-.026.02-.026l.333-.002c.04.24.005.417-.332.353ZM5.403 7.136l.033-.328.303-.028c.024-.001.04 0 .04.026a1.307 1.307 0 0 1-.031.327c-.121.005-.219.007-.323.008l-.022-.005ZM3.984 19.765c.103-.028.202-.03.325-.034.062.228.062.43-.295.371a1.185 1.185 0 0 1-.03-.337ZM25.887 19.425c.1-.028.2-.031.326-.034.059.23.034.41-.295.365-.027-.1-.03-.203-.031-.33ZM24.813 6.867a.271.271 0 0 1 .007-.082c.21-.007.423-.003.347.332-.188.036-.393.076-.354-.25ZM22.672 19.392l.319-.012c.024 0 .034.01.036.04.051.341-.143.35-.363.3.005-.126.006-.227.008-.328Z" fill="#00AB55"/><path d="M22.646 19.392c.024.101.023.202-.006.329-.126.029-.224.031-.323.034l-.01-.017c-.017-.23.024-.404.339-.346ZM10.057 19.719a1.278 1.278 0 0 1-.335.025 1.266 1.266 0 0 1-.007-.34c.107-.02.21-.013.33-.005.005.108.01.201.012.32ZM5.415 7.487l-.32.019c-.05-.216-.058-.417.284-.369.024 0 .038.003.04.028 0 .124-.002.223-.004.322ZM25.517 7.483c-.1.022-.197.017-.317.007a1.394 1.394 0 0 1-.031-.328c.232-.044.417-.013.348.32ZM25.882 10.028c-.106.025-.204.025-.327.03-.055-.225-.043-.42.304-.36.027.102.028.204.023.33ZM21.234 9.644a4.65 4.65 0 0 1-.305-.057 1.149 1.149 0 0 1-.016-.283c.12-.021.216-.019.316-.016.001 0 .005 0 .008.024l.014.315-.017.017ZM9.717 19.354c-.249.072-.423.034-.36-.307a1.39 1.39 0 0 1 .342-.01c.007.105.014.198.018.317ZM4.377 19.391c-.028-.01-.031-.021-.04-.047a.817.817 0 0 1 .034-.286c.127-.03.225-.035.324-.04.035.228.031.425-.318.373ZM5.782 15.793c.106-.023.207-.02.334-.013.043.23-.006.392-.31.341a1.13 1.13 0 0 1-.024-.328ZM9.36 18.998c-.104.027-.207.03-.336.033a.734.734 0 0 1 0-.337c.125-.022.223-.02.322-.017.005.099.01.197.014.32Z" fill="#00AB55"/><path d="M4.697 18.994c-.1.029-.199.034-.322.04a.679.679 0 0 1 .003-.325 1.52 1.52 0 0 1 .314-.037l.005.322ZM23.715 18.32c.062.238.022.41-.305.359-.048-.223-.033-.416.305-.358ZM9.345 18.652c-.098.023-.196.02-.319.016-.024-.001-.026 0-.028-.024-.005-.124-.008-.223-.01-.322L9 18.307c.212.004.403.032.344.345ZM4.697 18.647a1.27 1.27 0 0 1-.315.037c-.023-.105-.023-.21-.023-.327l.313-.04c.026.1.029.203.025.33ZM8.73 8.227c-.035-.002-.046-.005-.074-.012a.85.85 0 0 1 .007-.32c.125-.035.226-.043.327-.05l.006.036c0 .182.039.38-.266.346ZM4.705 17.99c.1-.027.196-.03.316-.034.068.23.047.412-.29.362-.027-.1-.028-.201-.026-.328ZM18.688 21.534c-.045.002-.09.003-.178.002-.086.002-.128.007-.175.005l-.013-.02c-.015-.218.011-.4.33-.349.024-.001.038.01.044.04.002.127-.003.224-.008.322ZM24.093 5.717c.004.097.008.195.007.322-.005.03-.017.042-.04.038-.123-.006-.222-.008-.32-.034-.004-.123-.008-.222-.007-.325.004-.004.013-.013.038-.01.124.005.223.007.322.009ZM21.227 9.288l-.316-.008a1.05 1.05 0 0 1-.04-.314c.005-.032.02-.05.045-.047.333-.041.353.14.31.369ZM19.808 20.456c.002-.1.003-.2.007-.324.1-.03.199-.034.322-.043.024-.005.03.012.032.044 0 .13-.002.227-.03.326a25.3 25.3 0 0 1-.33-.003Z" fill="#00AB55"/><path d="M24.094 5.691a.67.67 0 0 1-.325-.008 1.534 1.534 0 0 1-.037-.324c.23-.028.422-.01.362.332ZM23.707 5.357c.028.1.032.2.037.323.002.025-.007.034-.036.034a1.27 1.27 0 0 1-.325-.028l-.011-.32.011-.012c.103-.002.201 0 .324.003ZM5.42 21.2c.107-.026.212-.026.352-.026 0 .126 0 .22-.002.34-.107.02-.212.015-.338.008a13.29 13.29 0 0 1-.012-.322ZM5.058 17.275c.1-.03.198-.035.321-.042.071.235.055.422-.292.372a1.257 1.257 0 0 1-.029-.33ZM13.355 5.712c-.025-.107-.025-.21-.025-.336.122-.008.216-.014.335-.02.02.107.015.213.008.344-.104.005-.198.01-.318.012ZM12.997 6.067c-.026-.107-.026-.211-.026-.334.12-.009.215-.016.335-.022.02.105.013.21.005.343-.103.005-.196.01-.314.013ZM3.979 10.377c-.1.028-.197.03-.318.033-.04-.207-.044-.405.283-.36.028.1.033.2.035.327ZM25.185 21.177a3.967 3.967 0 0 1-.032.34c-.09.008-.18.015-.295.022-.024 0-.041-.002-.044-.029-.05-.313.111-.365.345-.336 0 0 .018.001.026.003ZM5.773 16.446a1.147 1.147 0 0 1-.316.042c-.074-.237-.04-.407.287-.37.026.098.028.2.03.328ZM5.771 21.562c.233-.05.423-.028.355.312-.11.027-.215.027-.339.027a15.602 15.602 0 0 1-.016-.339ZM6.847 5.71l-.325.011c-.053-.221-.047-.417.292-.373.025-.003.034.006.037.036 0 .128-.002.227-.004.327V5.71ZM18.327 21.89a2.627 2.627 0 0 1-.174.004c-.085.002-.128.007-.17.012l-.014-.02c-.018-.226.013-.405.328-.36.025-.005.034.008.037.04 0 .128-.004.226-.007.323ZM5.415 20.83v.324c-.224.041-.415.021-.326-.312.126-.02.226-.017.326-.013ZM20.892 20.102l.31.006c.027.101.032.2.036.329 0 .03-.01.038-.034.034-.12-.007-.218-.01-.318-.038 0-.127.003-.23.006-.331ZM21.594 20.443v-.314c.116-.013.212-.024.331-.04.025-.007.03.008.03.04 0 .129-.001.227-.027.327a3.924 3.924 0 0 1-.329.009 1.492 1.492 0 0 0-.005-.022ZM5.773 11.805c-.1.028-.201.03-.327.034-.048-.224-.03-.413.302-.36.025.1.026.2.025.326ZM5.416 20.803c-.101.022-.201.018-.326.014-.029-.1-.033-.2-.04-.324.236-.058.426-.036.366.31ZM24.1 6.064c.162.025.415-.079.354.288-.004.052-.003.062-.002.073 0 0-.008.004-.036.003-.32.052-.333-.142-.333-.347l.018-.017ZM9.348 20.792a.695.695 0 0 1-.329-.006c-.031-.126-.037-.225-.043-.323l.026-.006c.107.005.204.01.33.018.006.103.012.197.016.317ZM12.64 6.424c-.026-.107-.026-.213-.026-.335.117-.009.212-.016.333-.023.026.105.026.21.026.343a9.517 9.517 0 0 1-.333.015Z" fill="#00AB55"/><path d="M21.242 20.462c.104-.006.204-.007.328-.014.024-.005.027.01.027.041-.008.125-.016.218-.025.323-.13 0-.227 0-.326-.024l-.018-.313.014-.014ZM6.461 6.063c.052.223.04.417-.3.363-.025-.106-.025-.213-.025-.342l.325-.021ZM26.311 19.028c-.04-.101-.054-.2-.067-.32.1-.025.2-.029.324-.033.031.185.082.401-.257.353ZM108.641 13.978c-.094-.227-.064-.383.251-.356.12.245.033.362-.251.356ZM7.55 23.352a.779.779 0 0 1 .337-.005c.03.123.03.22.033.319 0 0-.006.017-.007.026a1.114 1.114 0 0 1-.276-.022c-.04-.033-.054-.047-.072-.056a17.61 17.61 0 0 0-.015-.262ZM20.148 24.8c.02.09.017.175.012.285-.18.026-.395.077-.348-.254.002-.025 0-.053.001-.066.106 0 .21.016.335.036ZM99.235 9.205c-.189.01-.373.02-.375-.256.167.008.456-.138.375.256ZM10.865 25.502c-.027-.1-.03-.195-.034-.315.176-.042.334-.037.3.236a.488.488 0 0 1-.006.066c-.08.015-.159.016-.26.013ZM78.4 8.899c-.102.025-.203.025-.33.024-.01-.122-.083-.288.143-.298.192-.008.193.115.187.274ZM20.524 8.65a.76.76 0 0 1 .337 0c.027.105.029.186.03.266l-.023.027c-.182-.008-.408.039-.344-.292ZM10.06 8.568l.004.056c.034.215.002.357-.273.317a.74.74 0 0 1-.01-.333c.11-.033.194-.036.279-.04Z" fill="#00AB55"/><path d="M7.567 23.63c.016-.006.03.007.046.037-.011.002-.028-.01-.046-.037ZM24.464 6.428c-.013-.014-.014-.024-.01-.05.016-.002.027.013.043.042.006.012-.02.012-.033.008ZM103.892 11.123c.026.815.026 1.629.026 2.47-.283.077-.373-.037-.363-.325.021-.608.016-1.219.002-1.828-.006-.238.057-.357.335-.317ZM60.703 13.977c-.046-.263.063-.38.338-.36.256.02.513.005.798.005.07.274-.03.388-.32.361-.26-.024-.525-.005-.816-.006ZM49.614 17.987c.102-.024.204-.023.33-.023.026.102.026.203.027.33-.228.05-.395.003-.357-.307ZM8.963 18.318c.027.103.03.202.035.326-.24.06-.427.033-.353-.313a1.08 1.08 0 0 1 .318-.013ZM8.282 17.972c.107-.02.212-.015.334-.008l.029.318c-.244.07-.425.037-.363-.31ZM9.697 7.5c-.1-.001-.201-.002-.33-.025-.19-.216-.318-.473-.526-.589-.225-.126-.206-.278-.21-.46l.001-.001c.138 0 .276.005.413-.001.172-.008.322-.002.31.235-.002.035.05.104.079.104.19.004.277.08.294.28.003.04.192.082.297.092.183.016.386-.039.411.253.004.045.188.073.313.136.03.134.036.24.041.348 0 0 .005-.002-.022-.006-.134-.006-.241-.008-.373-.01-.124-.042-.3-.068-.31-.125-.045-.249-.205-.246-.388-.231Z" fill="#00AB55"/><path d="M7.204 5.354h.332c.212-.005.414-.036.396.26-.001.028.06.066.098.089.022.013.071-.005.084.011.092.113.166.316.268.33.233.032.27.141.25.355 0 .026 0 .026-.028.026-.186 0-.346.01-.503-.006-.062-.007-.167-.07-.169-.112-.008-.172-.073-.252-.25-.25-.039 0-.112-.072-.11-.109.01-.296-.201-.23-.369-.263l.001-.332s0 .001 0 0ZM10.815 7.87a1.417 1.417 0 0 1-.04-.345 1.22 1.22 0 0 1 .352-.012c.02.11.014.212.007.329l-.319.028ZM11.502 7.156c.02.11.014.215.006.332l-.328.029c-.064-.354-.048-.373.322-.36ZM19.81 20.456l.356.004c.152.034.34.069.34.102-.001.298.196.26.38.255v.026c-.042.282.08.355.32.337.12-.009.352.039.351.053-.017.357.289.29.473.361.275.106.656-.022.793.387.024.07.131.114.202.168.098.073.189.176.3.207.128.037.274.01.413.035l.01.222s-.005-.002-.029-.005c-.344-.065-.36.13-.332.361l-.009.317c-.1.028-.199.032-.323.036-.03-.183.013-.399-.291-.377-.025.002-.078-.047-.078-.073.001-.192-.08-.291-.282-.285-.025.001-.076-.049-.076-.074.01-.345-.241-.262-.434-.266-.153-.003-.302.018-.307-.213 0-.05-.113-.095-.172-.146-.06-.05-.162-.102-.164-.155-.007-.214-.143-.2-.287-.202-.203-.003-.462.084-.46-.276 0-.027-.113-.048-.167-.082-.058-.037-.155-.088-.155-.132.004-.252-.167-.223-.349-.252a1.685 1.685 0 0 1-.024-.333ZM18.714 21.535a1.2 1.2 0 0 1-.01-.318c.113-.033.223-.041.357-.053.093.29-.025.413-.347.37ZM21.947 24.038c.019.1.01.196.003.317-.098.03-.198.037-.322.043-.062-.247-.02-.423.32-.36ZM19.783 20.458c.026.1.026.202.024.33a1.293 1.293 0 0 1-.338.022c-.026-.106-.026-.21-.026-.325l.34-.027ZM19.111 21.167c-.025-.102-.025-.2-.025-.325.095-.006.179-.012.288-.015.026.183.069.397-.263.34ZM18.35 21.888a1.343 1.343 0 0 1-.012-.316c.044-.03.086-.034.15-.034-.025.12-.07.235-.139.35ZM17.98 21.93c.045-.03.088-.034.151-.034-.026.118-.073.231-.142.346a1.324 1.324 0 0 1-.009-.312ZM24.06 6.077c.023.209.036.403.352.353.03.103.036.202.04.327-.174.026-.378-.027-.367.264.002.036-.072.107-.11.107-.18-.003-.248.079-.245.25 0 .035-.056.102-.084.101-.324-.013-.263.218-.262.406.001.174.018.347-.243.335-.035-.001-.105.074-.105.113.003.18-.086.228-.25.252-.05.007-.1.162-.113.255-.03.215.093.504-.293.524-.026.001-.041.098-.07.145-.04.062-.085.167-.13.168-.242.006-.232.162-.224.352a1.133 1.133 0 0 1-.318-.006 1.778 1.778 0 0 1-.046-.373c-.001-.154 0-.259.007-.385.177-.212.456-.381.5-.599.09-.434.51-.553.69-.885.081-.151.211-.319.36-.38.216-.09.247-.22.235-.413a1.88 1.88 0 0 1 .006-.384c.009-.062.075-.166.114-.165.293.004.23-.202.236-.371.098.001.197.003.32.009ZM7.222 22.963c-.124 0-.222-.001-.344-.005-.027-.103-.03-.202-.035-.326.176-.034.394.018.374-.285-.002-.03.058-.068.096-.092.022-.014.066.003.086-.012.188-.144.375-.328.488-.503.106-.163.174-.214.362-.208.026.137.022.275.027.412.007.168-.048.233-.216.333-.172.102-.399.292-.471.474-.085.21-.186.207-.367.212ZM8.952 20.463c.03.098.036.197.043.32-.015.198.05.423-.257.405-.032-.001-.099.08-.097.12.01.245-.153.23-.34.224-.026-.137-.023-.273-.027-.41-.005-.164-.012-.309.226-.322.05-.003.09-.19.135-.32.098-.023.195-.02.317-.017ZM6.52 22.603c-.027-.104-.029-.204-.034-.329.228-.051.422-.034.359.31-.101.025-.201.024-.325.019ZM21.574 4.282h.36c.125 0 .225.003.349.01.026.1.028.199.032.321-.177.014-.3.045-.373.259-.053.152-.225.265-.346.393-.19.2-.407.38-.562.603-.097.14-.111.343-.143.522-.021.114-.008.235-.013.382a1.242 1.242 0 0 1-.338-.004l-.023-.303c.026-.23.054-.435-.311-.419.088-.137.152-.229.207-.326.06-.105.132-.21.16-.324.043-.174-.057-.419.26-.433.02-.001.027-.106.055-.154.034-.06.081-.154.128-.157.157-.01.213-.07.243-.227.013-.064.188-.096.315-.143ZM23.345 5.362c.03.102.034.2.038.35-.047.151-.08.327-.144.338-.164.029-.22.094-.222.249 0 .037-.05.107-.076.107-.366-.005-.245.267-.276.46-.015.093-.066.248-.115.254-.17.02-.25.078-.249.256 0 .037-.072.11-.109.109-.296-.012-.228.202-.238.369l-.325-.003c-.03-.097-.035-.194-.043-.314.003-.161.013-.299.01-.437-.002-.172.01-.32.238-.327.037 0 .104-.051.104-.08.001-.19.08-.276.279-.294.04-.004.08-.193.091-.3.02-.185-.058-.421.268-.402.022.001.066-.03.067-.047.016-.46.367-.248.588-.294.028-.006.058.001.114.006ZM5.071 7.875a.843.843 0 0 1 .336-.003c.117.046.2.1.278.094.386-.027.462.435.79.494.01.002.002.062.018.082.045.053.096.103.15.146.06.047.176.08.182.128.036.307.223.228.411.188.105-.022.216-.015.324-.022v.29c-.126.018-.221.031-.335.056-.295.011-.57.013-.844.01-.067-.001-.19-.019-.19-.034-.017-.259-.206-.341-.379-.483-.096-.08-.112-.275-.315-.277-.025 0-.072-.074-.07-.111.012-.248-.155-.229-.342-.223a1.159 1.159 0 0 1-.014-.335ZM7.944 23.67c-.026-.102-.028-.2-.032-.323.262.005.406-.077.368-.378-.023-.18-.05-.395.252-.38.03.002.065-.06.092-.097.01-.014 0-.04.008-.057.104-.225.331-.394.491-.505.182-.125.225-.21.223-.388 0-.108.002-.217.005-.354.101-.023.2-.018.324-.012.03.096.035.193.036.34-.063.36.109.408.357.367 0 0 0 .002 0 0-.012.178.035.392-.261.39-.034 0-.066.105-.103.159-.04.057-.083.159-.126.16-.182.002-.243.085-.242.254 0 .034-.057.1-.085.099-.297-.015-.265.188-.262.377.002.172.044.363-.237.38-.046.002-.081.188-.122.316-.102.023-.203.02-.329.011-.025-.103-.025-.201-.025-.328-.116-.01-.211-.018-.332-.03ZM10.742 22.25c.03.1.035.198.04.321-.245.077-.339-.03-.308-.292a.885.885 0 0 1 .268-.029Z" fill="#00AB55"/><path d="M7.203 5.71c.168.008.38-.058.369.238-.002.037.071.11.11.11.177-.003.242.077.25.25.002.041.107.104.17.11.156.017.316.007.501.008.032.182.013.334.238.46.208.116.336.373.502.589-.213.006-.412.01-.353.345-.101.032-.202.04-.328.051-.03-.187.014-.413-.301-.394-.024.002-.073-.052-.072-.078.013-.323-.218-.262-.406-.26-.176.003-.346.015-.333-.244.001-.034-.075-.104-.114-.103-.184.004-.246-.086-.24-.254.001-.025-.022-.072-.037-.074-.51-.055-.249-.449-.312-.727 0-.027 0-.026.026-.026h.33ZM5.772 7.13c.003-.1.006-.2.016-.322.103-.025.2-.025.32-.026.193.006.404-.059.393.237 0 .037.072.11.11.109.18-.002.243.079.25.251.003.041.106.09.17.114.205.08.516-.04.575.316.004.023.11.021.16.047.054.029.141.078.14.115-.011.266.174.238.368.248.02.103.011.203.002.328-.094.03-.187.034-.334.032-.32-.057-.696.137-.786-.33-.005-.022-.106-.035-.162-.038-.229-.01-.498.06-.531-.302-.002-.024-.089-.032-.123-.063-.074-.065-.14-.139-.207-.21-.043-.045-.077-.126-.124-.134-.231-.035-.243-.195-.237-.372ZM25.163 21.149c-.238-.004-.4.048-.358.36a1.458 1.458 0 0 1-.35.024c-.213.005-.375.02-.37-.227 0-.042-.095-.103-.157-.125a.322.322 0 0 0-.204-.003c-.384.143-.306-.469-.648-.396-.007.002-.023-.09-.051-.125a1.66 1.66 0 0 0-.193-.195c-.046-.04-.15-.072-.148-.104.015-.309-.21-.243-.384-.26.005-.098.008-.196.015-.319.1-.027.2-.03.322-.033.247.025.441.016.395-.321.186-.042.366-.07.37.213 0 .038.166.095.26.106.2.022.462-.078.456.282 0 .024.072.072.11.072.162-.003.168.13.244.215.15.17.345.304.48.498.019.03.112.007.198.01.023.1.02.202.013.328ZM10.42 7.856c.107.002.214.004.348.012.006.17.076.4-.254.352-.037-.003-.049-.005-.079-.034a2.134 2.134 0 0 1-.015-.33Z" fill="#00AB55"/><path d="M5.748 7.133c.018.174.03.334.26.37.048.007.082.088.125.133.067.071.133.145.207.21.034.03.12.04.123.063.033.362.302.292.53.302.057.003.158.016.163.038.09.467.465.273.763.328.013.106-.003.21-.022.333-.097.015-.198.03-.318.06-.127.019-.238.012-.343.034-.188.04-.375.119-.411-.188-.006-.049-.122-.08-.181-.128a1.061 1.061 0 0 1-.15-.146c-.017-.02-.009-.08-.019-.082-.328-.059-.404-.52-.79-.494-.079.006-.161-.048-.253-.095-.013-.123-.013-.228-.015-.358 0-.125.003-.224.01-.347.102-.026.2-.028.32-.033ZM21.955 7.88c.009-.193-.06-.407.237-.395.037.001.11-.072.11-.11-.002-.177.078-.234.248-.255.05-.006.1-.161.115-.254.03-.193-.09-.465.276-.46.026 0 .076-.07.076-.107.002-.155.058-.22.222-.249.063-.01.097-.187.144-.314.099-.024.198-.022.32-.017.029.102.033.2.037.324-.005.194.058.4-.236.396-.04 0-.105.103-.114.165a1.88 1.88 0 0 0-.006.384c.012.192-.018.323-.235.412-.149.062-.279.23-.36.38-.18.333-.6.452-.69.886-.044.218-.323.387-.526.598-.133.02-.236.022-.339.024h-.006c.04-.23.02-.41-.312-.369a.922.922 0 0 1-.03-.268c.224-.036.447-.048.691-.073.294.039.421-.061.381-.35-.014-.105-.002-.213-.003-.347ZM10.395 7.855c.024.102.023.203.022.33-.216.014-.414.026-.356.358-.086.029-.17.032-.28.04-.044-.22-.064-.445-.085-.695 0-.13.002-.233.003-.363.181-.04.341-.043.387.206.01.057.185.083.309.124ZM20.887 20.817c-.185.004-.382.043-.38-.255 0-.033-.189-.068-.316-.103a1.165 1.165 0 0 1-.018-.319c.212-.023.415-.031.358-.361.249-.079.4-.02.358.298 0 .127-.002.229-.004.382l.002.358ZM10.069 21.858c-.25.066-.42.019-.36-.318.107-.013.21 0 .342.018.006.091.012.183.018.3ZM21.237 9.312c.1-.026.203-.027.331-.028.024.107.023.212.017.344a1.01 1.01 0 0 1-.31.005c-.028-.103-.032-.2-.038-.321ZM23.412 22.967c-.053-.23-.037-.424.31-.36.022.1.02.2.015.323-.102.029-.201.032-.325.037ZM22.276 20.1c.198.015.423-.05.408.258-.002.032.102.063.148.104.069.06.135.124.193.195.028.034.044.127.05.125.343-.073.265.539.65.396a.322.322 0 0 1 .203.003c.062.022.157.083.157.125-.005.247.156.232.345.226.023.102.02.203.014.329-.243 0-.403.057-.342.372 0 .124-.002.221-.006.343-.102.028-.2.032-.324.036a.65.65 0 0 1-.033-.248c0-.259.067-.508-.283-.497-.021 0-.065-.057-.063-.086.017-.31-.221-.289-.38-.24-.39.122-.307-.475-.65-.4a.524.524 0 0 1-.049-.127c-.008-.028.003-.064-.01-.087-.025-.037-.064-.097-.093-.095-.304.017-.253-.198-.258-.379 0-.097.001-.195.004-.317.1-.028.197-.032.32-.037ZM7.203 5.685a1.34 1.34 0 0 1-.33.025 1.187 1.187 0 0 1-.018-.321c.102-.027.2-.028.324-.033.025.1.025.202.024.33Z" fill="#00AB55"/><path d="m20.886 20.817.001-.333c.099-.023.196-.02.317-.013a.7.7 0 0 1 .016.319c-.128.026-.23.027-.333.027 0 0-.002 0 0 0Z" fill="#00AB55"/><path d="M20.886 20.843c.103-.026.206-.027.335-.029.123-.002.22-.002.351-.002l.027-.315c.102-.03.203-.034.33-.04.029.177-.022.392.282.375.03-.002.068.058.093.095.014.023.002.06.01.087a.524.524 0 0 0 .05.127c.342-.075.259.522.649.4.159-.049.397-.07.38.24-.002.029.042.086.063.086.35-.01.283.238.283.473-.14.026-.286.053-.414.016-.111-.031-.202-.134-.3-.207-.07-.054-.178-.097-.202-.168-.137-.41-.518-.281-.793-.387-.184-.07-.49-.004-.473-.361 0-.014-.231-.062-.352-.053-.239.018-.361-.055-.319-.337Z" fill="#00AB55"/></svg>