<svg width="132" height="18" fill="none" xmlns="http://www.w3.org/2000/svg"><g clip-path="url(#a)"><path fill-rule="evenodd" clip-rule="evenodd" d="M15.44 10.075V8.022H7.963v2.969h3.982c-.061 2.21-1.246 3.789-3.83 3.789-3.04 0-4.529-2.526-4.529-5.81 0-3.285 1.52-5.748 4.499-5.748 1.793 0 2.887.758 3.252 2.053h3.647C14.316 2.085 11.914 0 8.084 0 2.858.001 0 3.791 0 9.033S2.857 18 8.115 18s7.325-3.916 7.325-7.926Zm5.896 2.936h6.352l1.368 4.674h3.556L27.262.317h-5.41l-5.319 17.368h3.405l1.398-4.674Zm5.44-3.158h-4.559l1.733-6.031h1.063l1.763 6.031Zm7.63-9.536h5.288l2.735 7.01h.608l2.735-7.01h5.41v17.368H47.93V4.738h-.608l-2.796 7.01h-3.495l-2.766-7.01h-.608v12.947h-3.252V.317Zm28.509 17.368.517-3.221v-.032H57.96v-4.105h6.17l.547-3.158H57.96V3.538h7.264l.608-3.221H54.465v17.368h8.45ZM77.29 8.938a3.826 3.826 0 0 1 1.854 3.379c0 3.631-2.857 5.337-6.048 5.337h-7.264L68.75.254h6.626c2.371 0 4.529 1.358 4.529 3.979.03 1.768-.973 3.442-2.553 4.168l-.06.537Zm-4.377 7.263v.063c2.54-.009 4.711-1.148 4.711-3.979 0-2.147-1.823-2.968-3.647-2.968h-5.136L67.687 16.2h5.227Zm-3.83-8.305h5.168c2.249 0 4.164-.884 4.164-3.442 0-1.863-1.58-2.621-3.131-2.621h-5.136l-1.064 6.063Zm18.025 9.852.73-1.484h-5.471l1.185-6.852h7.72l.73-1.485h-8.207l1.064-6.094h10.273l.73-1.485h-12.34l-2.918 17.4h6.504Zm17.872-.063h-1.611l-.942-5.59H94.89l-2.827 5.59h-1.671L99.145.317h2.858l2.978 17.368Zm-9.391-7.074h6.564l-1.429-8.59h-.88l-4.255 8.59Zm16.866-8.841h5.532l.244-1.484h-12.614l-.213 1.484h5.532l-2.706 15.915h1.52l2.705-15.915Z" fill="#00AB55"/><path d="M128.991 17.685h-9.088L122.912.316H132l-3.009 17.369Z" fill="url(#b)"/><path d="M124.22 17.685h-9.089L118.232.316h9.088l-3.1 17.369Z" fill="url(#c)"/></g><defs><linearGradient id="b" x1="125.957" y1="17.842" x2="125.957" y2="1.671" gradientUnits="userSpaceOnUse"><stop offset=".2" stop-color="#00AB55" stop-opacity="0"/><stop offset="1" stop-color="#00AB55"/></linearGradient><linearGradient id="c" x1="121.235" y1=".244" x2="121.235" y2="18.618" gradientUnits="userSpaceOnUse"><stop offset=".2" stop-color="#00AB55" stop-opacity="0"/><stop offset="1" stop-color="#00AB55"/></linearGradient><clipPath id="a"><path fill="#fff" transform="translate(0 .001)" d="M0 0h132v18H0z"/></clipPath></defs></svg>