<svg width="106" height="15" fill="none" xmlns="http://www.w3.org/2000/svg"><path fill-rule="evenodd" clip-rule="evenodd" d="m57.446 12.485 8.529-.005a.165.165 0 0 1 .135.073l1.44 2.162a.166.166 0 0 0 .136.073h3.467a.165.165 0 0 0 .135-.257l-9.13-13.489a.165.165 0 0 0-.135-.072H.56a.165.165 0 0 0-.165.165v13.488a.165.165 0 0 0 .165.165h55.147a.165.165 0 0 0 .135-.073l1.47-2.157a.165.165 0 0 1 .135-.073Zm-38.183-1.558a.155.155 0 0 0-.057.05l-1.159 1.687a.155.155 0 0 1-.126.068l-1.716.01a.155.155 0 0 1-.131-.243l6.536-9.764a.156.156 0 0 1 .257-.005l6.623 9.78a.156.156 0 0 1-.126.242l-1.794-.03a.156.156 0 0 1-.126-.067l-1.12-1.678a.156.156 0 0 0-.126-.068h-6.861a.156.156 0 0 0-.074.018Zm-6.389-.76.005-1.013c0-.204-.1-.305-.3-.305l-4.064.004a.119.119 0 0 1-.086-.037.129.129 0 0 1-.035-.089l-.005-1.454c0-.032.013-.063.037-.086a.129.129 0 0 1 .09-.035h5.939c.161 0 .242.08.242.242v3.52c0 .187-.07.343-.208.465-2.28 1.998-6.72 1.756-9.019.708-1.529-.701-2.392-1.918-2.589-3.65-.693-6.08 8.374-6.808 11.53-4.05a.111.111 0 0 1 .014.16l-.863 1.097c-.054.068-.117.077-.189.029-1.551-1.025-3.402-1.364-5.551-1.018-1.586.257-2.827 1.124-2.938 2.787-.152 2.244.929 3.472 3.243 3.685 1.752.165 3.242-.014 4.47-.538a.427.427 0 0 0 .277-.422Zm20.514 2.553a.165.165 0 0 1-.063.012h-1.62a.165.165 0 0 1-.164-.165l.01-9.682a.165.165 0 0 1 .276-.121l6.148 5.653a.165.165 0 0 0 .223 0l5.915-5.658a.164.164 0 0 1 .276.116l.01 9.692a.164.164 0 0 1-.165.165H42.61a.165.165 0 0 1-.165-.165l.02-5.425a.165.165 0 0 0-.282-.117l-4 3.84a.165.165 0 0 1-.228 0l-4.194-3.873a.165.165 0 0 0-.276.12l.005 5.455a.164.164 0 0 1-.102.153Zm16.385-5.856c.029.029.068.045.11.045l6.215-.005a.155.155 0 0 1 .126.243l-.935 1.391a.155.155 0 0 1-.131.068l-5.27.005a.155.155 0 0 0-.156.155l-.005 1.988a.155.155 0 0 0 .156.155l3.636-.005a.154.154 0 0 1 .153.165.155.155 0 0 1-.027.078l-1.018 1.512a.155.155 0 0 1-.126.068l-4.558.005a.155.155 0 0 1-.155-.155V3.185a.155.155 0 0 1 .155-.155l10.633-.005a.155.155 0 0 1 .13.238l-.984 1.513a.155.155 0 0 1-.126.073h-7.709a.155.155 0 0 0-.155.155l-.005 1.75c0 .041.017.08.046.11Zm9.763 2.313a.15.15 0 0 1 .024-.076l1.959-2.939a.151.151 0 0 1 .252 0l1.959 2.939a.15.15 0 0 1-.126.232h-3.918a.15.15 0 0 1-.15-.156Zm29.789 5.538a141.718 141.718 0 0 1-4.35-4.814c-.17-.197-.128-.325.127-.383 1.639-.373 2.85-1.765 2.943-3.462.149-2.596-1.214-4.112-4.087-4.548-1.597-.242-5.233-.288-10.91-.136-.193.007-.29.107-.29.301v12.994a.121.121 0 0 0 .12.121l3.152-.005c.081 0 .122-.038.122-.116v-4.364c0-.161.08-.242.242-.242h4.097a.67.67 0 0 1 .514.228l3.956 4.407a.25.25 0 0 0 .184.087 70.517 70.517 0 0 0 4.17-.04.019.019 0 0 0 .013-.013.02.02 0 0 0 0-.005.021.021 0 0 0-.003-.01ZM76.152 6.9V4.63a.134.134 0 0 1 .038-.099.135.135 0 0 1 .097-.041l6.211-.01c.572 0 1.12.11 1.524.309.405.198.633.467.634.748v.417a.63.63 0 0 1-.163.407c-.108.13-.267.247-.468.346-.2.1-.438.178-.7.232a4.166 4.166 0 0 1-.827.082l-6.21.01a.136.136 0 0 1-.136-.131Zm19.486-2.415h-5.76a.15.15 0 0 1-.15-.15V1.484a.15.15 0 0 1 .15-.15h15.331a.15.15 0 0 1 .15.15l.005 2.85a.151.151 0 0 1-.151.15h-5.88a.15.15 0 0 0-.151.151v10.003a.15.15 0 0 1-.15.15h-3.094a.15.15 0 0 1-.15-.15V4.635a.15.15 0 0 0-.15-.15ZM22.57 5.87l-2.08 3.103a.16.16 0 0 0 .136.253l4.194-.025a.16.16 0 0 0 .13-.252l-2.113-3.083a.16.16 0 0 0-.267.004Z" fill="#919EAB"/></svg>