<svg width="100" height="22" fill="none" xmlns="http://www.w3.org/2000/svg"><g clip-path="url(#a)"><path fill-rule="evenodd" clip-rule="evenodd" d="M20.714 16.643a9.979 9.979 0 0 0 1.203-3.611c.07-.498.097-1.021.08-1.57a59.034 59.034 0 0 0-.023-.586c0-.017-.009-.025-.025-.025H11.645c-.016 0-.025.008-.025.024v3.636c0 .016.008.024.025.024h5.92l.004.001.003.003.001.004v.004a6.897 6.897 0 0 1-1.185 1.791c-1.315 1.413-3.21 1.834-5.118 1.699-1.142-.081-2.178-.386-3.107-.912a7.32 7.32 0 0 1-1.409-1.045c-1.434-1.35-2.184-3.04-2.223-4.972-.032-1.57.4-3.038 1.36-4.287 1.108-1.44 2.654-2.402 4.462-2.69 1.912-.304 3.86.055 5.503 1.083a9.386 9.386 0 0 1 1.896 1.567l.004.004.006.003a.028.028 0 0 0 .031-.006l2.727-2.698c.01-.01.01-.02 0-.03-.47-.512-.982-.995-1.536-1.45a9.998 9.998 0 0 0-3.63-1.893 13.29 13.29 0 0 0-5.483-.4C7.735.597 5.875 1.43 4.29 2.809 2.561 4.261 1.418 6.191.863 8.371a10.917 10.917 0 0 0 .15 5.855 9.778 9.778 0 0 0 1.52 3.042c.292.392.634.8 1.028 1.226 1.394 1.551 3.125 2.54 5.191 2.967l.285.076c1.08.223 2.19.31 3.327.263a11.024 11.024 0 0 0 3.237-.619c2.23-.829 3.99-2.456 5.113-4.538Zm59.864-14.34a5.518 5.518 0 0 0-4.43 0 3.03 3.03 0 0 0-.796.515c-.02.017-.026.013-.019-.011.178-.657.461-1.208.848-1.652C76.89.345 77.843.08 78.89.233c.908.131 1.64.614 2.104 1.425.202.352.336.732.402 1.138.006.032-.004.038-.028.016a3.006 3.006 0 0 0-.79-.51ZM26.074 17.702l-1.482 3.75a.014.014 0 0 1-.005.006.015.015 0 0 1-.007.003h-3.59c-.002 0-.005 0-.007-.002a.015.015 0 0 1-.008-.01v-.004l.002-.003 7.037-18.253a.014.014 0 0 1 .014-.009h3.513c.003 0 .006.001.008.003a.014.014 0 0 1 .006.006l7.019 18.253v.006a.015.015 0 0 1-.007.011.015.015 0 0 1-.006.002h-3.59c-.002 0-.005 0-.007-.002a.015.015 0 0 1-.006-.007l-1.424-3.75a.014.014 0 0 0-.005-.007.014.014 0 0 0-.009-.002h-7.434c-.002 0-.005 0-.007.002a.015.015 0 0 0-.005.007Zm1.293-3.425v.008c0 .002 0 .005.002.007a.016.016 0 0 0 .005.004.016.016 0 0 0 .007.002h4.84c.003 0 .005 0 .007-.002a.014.014 0 0 0 .008-.012v-.007l-2.42-6.21a.016.016 0 0 0-.006-.008.015.015 0 0 0-.009-.003.015.015 0 0 0-.008.003.014.014 0 0 0-.006.007l-2.42 6.211ZM54.935 3.198l-4.26 12.706c-.005.013-.01.013-.014 0L46.437 3.192c-.002-.008-.007-.011-.015-.011h-3.373a.011.011 0 0 0-.007.002.013.013 0 0 0-.004.007l-3.16 18.248c-.002.015.005.023.02.023h3.35c.015 0 .023-.007.026-.02l1.995-11.48c.005-.028.012-.028.02-.001l3.826 11.478c.005.015.016.023.033.023h3.02c.015 0 .025-.007.03-.022l3.86-11.477c.01-.027.017-.027.022.002l1.949 11.484c.001.009.006.013.015.013h3.332c.015 0 .022-.008.02-.023L58.335 3.2c-.002-.014-.01-.02-.024-.02H54.96c-.013 0-.021.005-.025.017ZM69.12 6.623h-5.91a.013.013 0 0 1-.013-.013V3.194c0-.003.002-.006.005-.009a.013.013 0 0 1 .009-.004H74.242l.002.002a.013.013 0 0 1 .007.01V3.2l-6.49 14.895a.013.013 0 0 0 .006.017.013.013 0 0 0 .006.001h6.05c.003 0 .007.002.01.004a.013.013 0 0 1 .003.01v3.321a.013.013 0 0 1-.013.014H62.68l-.006-.002a.013.013 0 0 1-.007-.01v-.002l.001-.005 6.463-14.802.001-.006a.013.013 0 0 0-.007-.01.013.013 0 0 0-.006-.002Zm7.541-3.443h3.415c.012 0 .02.01.02.02v18.241a.02.02 0 0 1-.02.02h-3.414a.02.02 0 0 1-.021-.02V3.201c0-.012.01-.02.02-.02Zm13.93 5.846 3.83-5.84a.014.014 0 0 1 .008-.006h3.884a.015.015 0 0 1 .013.007.015.015 0 0 1 0 .016l-5.78 8.83v.002a.014.014 0 0 0-.001.01l.002.005 6.146 9.389a.014.014 0 0 1 0 .015.015.015 0 0 1-.013.007h-3.884a.015.015 0 0 1-.012-.007l-4.19-6.4v-.002l-.002-.001-.003-.002a.014.014 0 0 0-.013 0l-.002.001a.013.013 0 0 0-.003.004l-4.188 6.4a.015.015 0 0 1-.012.006h-3.91l-.007-.001a.015.015 0 0 1-.005-.006.015.015 0 0 1 0-.015l6.164-9.396a.014.014 0 0 0 .002-.008c0-.003 0-.006-.002-.008l-5.776-8.823a.014.014 0 0 1 0-.016.014.014 0 0 1 .005-.005.015.015 0 0 1 .007-.002l3.884-.001a.015.015 0 0 1 .012.006l3.822 5.84a.015.015 0 0 0 .012.007.014.014 0 0 0 .006-.001.013.013 0 0 0 .004-.003l.002-.002Z" fill="#919EAB"/></g><defs><clipPath id="a"><path fill="#fff" transform="translate(.5 .001)" d="M0 0h99v22H0z"/></clipPath></defs></svg>