<svg width="126" height="26" viewBox="0 0 126 26" fill="none" xmlns="http://www.w3.org/2000/svg">
<path d="M7.77032 1.14431C8.08497 1.14431 8.34004 0.889238 8.34004 0.574594C8.34004 0.259951 8.08497 0.00488281 7.77032 0.00488281C7.45568 0.00488281 7.20061 0.259951 7.20061 0.574594C7.20061 0.889238 7.45568 1.14431 7.77032 1.14431Z" fill="#00AB55"/>
<path d="M10.0707 0.652215L10.0241 0.652459C9.7219 0.654042 9.47819 0.900321 9.47977 1.20254L9.48863 2.89429C9.49021 3.19651 9.73649 3.44023 10.0387 3.43864L10.0853 3.4384C10.3875 3.43682 10.6312 3.19054 10.6296 2.88832L10.6208 1.19657C10.6192 0.894347 10.3729 0.650633 10.0707 0.652215Z" fill="#00AB55"/>
<path d="M7.74948 2.1673L7.79525 2.16738C8.09812 2.16791 8.34322 2.41387 8.34269 2.71675L8.33974 4.40931C8.33921 4.71218 8.09325 4.95728 7.79038 4.95676L7.74461 4.95668C7.44173 4.95615 7.19663 4.71019 7.19716 4.40731L7.20012 2.71475C7.20064 2.41188 7.4466 2.16677 7.74948 2.1673Z" fill="#00AB55"/>
<path d="M12.3402 5.40215C12.6549 5.40215 12.91 5.14708 12.91 4.83244C12.91 4.5178 12.6549 4.26273 12.3402 4.26273C12.0256 4.26273 11.7705 4.5178 11.7705 4.83244C11.7705 5.14708 12.0256 5.40215 12.3402 5.40215Z" fill="#00AB55"/>
<path fill-rule="evenodd" clip-rule="evenodd" d="M10.6212 7.59854C10.6265 6.76423 10.628 5.93175 10.6256 5.10112C10.6253 4.95725 10.611 4.8519 10.5826 4.7851C10.3869 4.32467 9.74459 4.32901 9.53509 4.77247C9.49984 4.84743 9.48222 4.93252 9.48222 5.02774C9.48353 5.73028 9.4838 6.47174 9.48301 7.25214C9.48301 7.42534 9.39542 7.59302 9.26088 7.69718C8.94762 7.93903 8.48878 7.79699 8.37002 7.41705C8.35029 7.3534 8.34069 7.2762 8.34122 7.18546C8.34306 6.96057 8.34438 6.73372 8.34516 6.50488C8.34569 6.39941 8.33306 6.31248 8.30729 6.24409C8.1258 5.76 7.42905 5.74303 7.23849 6.2291C7.21034 6.30064 7.19627 6.42085 7.19627 6.58971C7.19653 7.13496 7.19627 7.68021 7.19548 8.22546C7.19548 8.27543 7.17549 8.34237 7.13551 8.42628C6.83132 8.95417 6.05685 8.75769 6.05803 8.1501C6.05935 7.40153 6.06027 6.6214 6.06079 5.80971C6.06106 5.70976 6.0437 5.62086 6.00871 5.543C5.80868 5.09599 5.17979 5.08731 4.96556 5.53195C4.9311 5.60376 4.91387 5.72475 4.91387 5.89493V9.43866C4.91387 9.51178 4.89507 9.59135 4.85746 9.67736C4.62665 10.1145 4.02183 10.1062 3.82101 9.65645C3.78418 9.57333 3.76695 9.45326 3.76932 9.29623C3.77379 9.00033 3.77406 8.71074 3.77011 8.42746C3.76735 8.23769 3.64425 8.05186 3.48092 7.96467C3.16686 7.79739 2.7668 7.93508 2.65988 8.27793C2.63411 8.36026 2.62161 8.48322 2.6224 8.64683C2.62582 9.44984 2.62727 10.2681 2.62674 11.1016C2.62674 11.2124 2.61346 11.301 2.58689 11.3676C2.39949 11.8355 1.73075 11.8426 1.53466 11.3778C1.50257 11.3021 1.48719 11.2193 1.4885 11.1296C1.49271 10.8259 1.49297 10.5431 1.48929 10.2814C1.48061 9.63751 0.624466 9.47259 0.382615 10.0601C0.356312 10.1242 0.342503 10.2588 0.341188 10.4637C0.340136 10.6154 0.335665 10.7669 0.327774 10.9182V20.9939L0.33961 21.04C0.343029 21.0529 0.350526 21.0628 0.362099 21.0696L8.90028 25.9994H8.91369L10.4697 25.0986L17.459 21.0625C17.4653 21.0588 17.4706 21.0535 17.4743 21.0471C17.478 21.0407 17.4799 21.0335 17.4799 21.0262C17.4804 17.4778 17.4817 13.8804 17.4838 10.234C17.4842 9.55426 16.574 9.39487 16.3629 10.0352C16.3304 10.1341 16.3326 10.2358 16.3348 10.3371C16.3372 10.4472 16.3396 10.5569 16.2975 10.6625C16.1882 10.9359 15.8899 11.0886 15.6043 11.0002C15.3186 10.9123 15.1939 10.6692 15.1939 10.3836C15.1939 9.95485 15.1945 9.50626 15.1955 9.03781C15.1967 8.38051 14.2897 8.23335 14.0833 8.84567C14.0731 8.87592 14.0633 8.95022 14.0541 9.06859C14.0483 9.14513 14.0323 9.21943 14.006 9.2915C13.7357 9.8545 12.9151 9.67262 12.9143 9.04846C12.913 8.30989 12.9134 7.53423 12.9155 6.72148C12.9159 6.4962 12.8413 6.31156 12.6488 6.18886C12.3564 6.00264 11.9765 6.11271 11.8258 6.42361C11.7858 6.50567 11.7667 6.60851 11.7686 6.73214C11.7733 7.04593 11.7732 7.3317 11.7682 7.58947C11.7607 7.96822 11.3748 8.24755 11.0103 8.11933C10.7859 8.04016 10.6562 7.86656 10.6212 7.59854ZM7.53439 19.3364C7.54991 19.3367 7.55767 19.3289 7.55767 19.3131V17.3195C7.55767 17.2998 7.56753 17.29 7.58726 17.29H10.2295C10.2361 17.29 10.2424 17.2926 10.247 17.2972C10.2517 17.3019 10.2543 17.3082 10.2543 17.3148C10.2562 17.9829 10.2556 18.6466 10.2528 19.306C10.2528 19.3139 10.2545 19.3208 10.2579 19.3266C10.2621 19.3331 10.2668 19.3388 10.2721 19.3435L12.9356 19.3368C12.9376 19.3368 12.9395 19.336 12.9409 19.3346C12.9423 19.3332 12.9431 19.3313 12.9431 19.3293V12.9418C12.9431 12.9291 12.9368 12.9228 12.9242 12.9228L10.4469 12.9212L10.2745 12.9208C10.2618 12.9208 10.2555 12.9273 10.2555 12.9402L10.2547 15.0592C10.2547 15.0742 10.2472 15.0817 10.2322 15.0817L7.57818 15.0821C7.56451 15.0821 7.55767 15.0753 7.55767 15.0616V12.9418C7.55767 12.9297 7.55149 12.9236 7.53912 12.9236L7.10513 12.9201L4.919 12.9201C4.90717 12.9182 4.89678 12.9183 4.88784 12.9205C4.87416 12.9236 4.86732 12.9323 4.86732 12.9465V19.3139C4.86732 19.3266 4.87324 19.335 4.88507 19.3392C4.89323 19.3421 4.90099 19.3413 4.90835 19.3368L7.53439 19.3364ZM14.0315 11.688C14.0289 11.7201 14.0264 11.7524 14.0289 11.7869C14.0307 11.8113 14.0321 11.8359 14.033 11.8609L14.0364 12.2283C14.0356 12.1271 14.0349 12.0259 14.0344 11.9246C14.0343 11.9032 14.0338 11.8819 14.033 11.8609L14.0315 11.688Z" fill="#00AB55"/>
<path fill-rule="evenodd" clip-rule="evenodd" d="M108.908 20.4457C108.357 20.1542 107.959 19.6401 107.73 19.0577C107.544 18.5827 107.431 18.0944 107.392 17.5928C107.367 17.2714 107.353 16.9474 107.351 16.6207C107.346 15.9605 107.345 15.2886 107.349 14.605C107.353 13.9193 107.406 13.2533 107.51 12.6071C107.671 11.6049 108.151 10.6695 109.078 10.2359C109.286 10.1388 109.529 10.0469 109.807 9.96011C110.519 9.73838 111.24 9.60924 111.973 9.57268C112.21 9.56084 112.473 9.55584 112.76 9.55768C113.424 9.56163 114.042 9.60779 114.613 9.69617C115.394 9.8169 116.235 10.0662 116.82 10.5705C117.369 11.0439 117.656 11.7967 117.803 12.5234C117.891 12.9558 117.945 13.393 117.967 13.8211C118.027 15.0089 117.982 16.1914 117.83 17.3687C117.746 18.0229 117.606 18.6331 117.408 19.1994C117.369 19.312 117.324 19.4247 117.273 19.5375C116.877 20.4071 115.818 20.7929 114.914 20.9551C113.791 21.1563 112.609 21.1559 111.462 21.0868C110.82 21.0482 110.211 20.9344 109.636 20.7456C109.351 20.6519 109.109 20.552 108.908 20.4457ZM111.749 18.475C112.176 18.5308 112.627 18.5362 113.101 18.4912C113.432 18.46 113.758 18.4056 114.066 18.2691C114.428 18.1089 114.592 17.8027 114.689 17.4401C114.78 17.0977 114.827 16.7212 114.83 16.3106C114.832 15.8955 114.838 15.523 114.848 15.1929C114.86 14.806 114.859 14.4375 114.846 14.0874C114.827 13.5891 114.757 13.0576 114.499 12.673C114.31 12.392 113.883 12.2567 113.55 12.2188C113.073 12.1644 112.532 12.1711 111.93 12.239C111.624 12.2733 111.268 12.3431 111.009 12.5151C110.877 12.6032 110.781 12.7501 110.722 12.9558C110.66 13.1728 110.617 13.3811 110.593 13.5808C110.483 14.487 110.479 15.3712 110.49 16.2711C110.496 16.8164 110.56 17.2975 110.68 17.7143C110.756 17.9768 110.895 18.1625 111.1 18.2714C111.297 18.3764 111.513 18.4442 111.749 18.475Z" fill="#00AB55"/>
<path d="M34.1463 13.9113L34.1475 9.62983C34.1475 9.62585 34.1491 9.62204 34.1519 9.61923C34.1547 9.61642 34.1585 9.61484 34.1625 9.61484L37.2024 9.61444C37.2064 9.61444 37.2102 9.61602 37.213 9.61883C37.2146 9.6204 37.2158 9.62227 37.2165 9.62432C37.2168 9.62516 37.217 9.62603 37.2172 9.62693L37.2174 9.62943V21.0284C37.2174 21.0296 37.2173 21.0308 37.217 21.032C37.2163 21.0346 37.215 21.0371 37.213 21.039C37.2113 21.0407 37.2092 21.042 37.2069 21.0427C37.2055 21.0432 37.204 21.0434 37.2024 21.0434L34.1621 21.043C34.1581 21.043 34.1543 21.0414 34.1515 21.0386C34.1487 21.0358 34.1471 21.032 34.1471 21.028L34.1467 16.5701C34.1467 16.5662 34.1451 16.5623 34.1423 16.5595C34.1395 16.5567 34.1357 16.5551 34.1317 16.5551L30.1887 16.5559C30.1873 16.5559 30.1859 16.5561 30.1846 16.5565L30.1822 16.5574C30.1807 16.5582 30.1793 16.5591 30.1781 16.5603L30.1764 16.5623L30.1757 16.5634L30.175 16.5649C30.1742 16.5668 30.1737 16.5688 30.1737 16.5709V21.0276C30.1737 21.0316 30.1721 21.0354 30.1693 21.0382C30.1679 21.0397 30.1661 21.0408 30.1642 21.0416C30.1624 21.0423 30.1606 21.0426 30.1587 21.0426L27.1208 21.0434C27.1168 21.0434 27.113 21.0418 27.1102 21.039C27.1074 21.0362 27.1058 21.0324 27.1058 21.0284V9.62983C27.1058 9.62585 27.1074 9.62204 27.1102 9.61923C27.113 9.61642 27.1168 9.61484 27.1208 9.61484H30.1579C30.1619 9.61484 30.1657 9.61642 30.1685 9.61923C30.1714 9.62204 30.1729 9.62585 30.1729 9.62983L30.1741 13.9117C30.1741 13.9157 30.1757 13.9195 30.1785 13.9223C30.1813 13.9252 30.1851 13.9267 30.1891 13.9267L34.1313 13.9263C34.1353 13.9263 34.1391 13.9248 34.1419 13.9219C34.1447 13.9191 34.1463 13.9153 34.1463 13.9113Z" fill="#00AB55"/>
<path fill-rule="evenodd" clip-rule="evenodd" d="M41.5533 21.0323L42.0986 19.077C42.0989 19.0758 42.0994 19.0746 42.1001 19.0735C42.101 19.072 42.1021 19.0707 42.1035 19.0696C42.106 19.0677 42.109 19.0667 42.112 19.0668H46.1805C46.1835 19.0667 46.1864 19.0677 46.1888 19.0694C46.1913 19.0712 46.193 19.0737 46.1939 19.0766L46.7892 21.0331C46.7897 21.0348 46.7905 21.0363 46.7915 21.0376C46.7923 21.0386 46.7932 21.0395 46.7943 21.0403C46.7967 21.0421 46.7997 21.043 46.8027 21.043H49.8962C49.8984 21.043 49.9005 21.0424 49.9024 21.0415C49.9042 21.0405 49.9059 21.0391 49.9072 21.0374C49.9084 21.0356 49.9093 21.0336 49.9096 21.0315C49.91 21.0294 49.9099 21.0273 49.9092 21.0252L46.4393 9.62431C46.4384 9.62143 46.4367 9.61891 46.4342 9.61712C46.4318 9.61535 46.4289 9.6144 46.4259 9.61444H41.7972C41.7959 9.61446 41.7947 9.61465 41.7935 9.61499C41.7924 9.6153 41.7914 9.61575 41.7904 9.61633L41.789 9.61724C41.7867 9.61902 41.785 9.62149 41.7841 9.62431L38.3651 21.0252C38.3647 21.0264 38.3645 21.0276 38.3645 21.0288C38.3645 21.0297 38.3646 21.0307 38.3647 21.0315C38.3651 21.0336 38.3659 21.0356 38.3672 21.0374C38.3684 21.0391 38.3701 21.0405 38.372 21.0415C38.3739 21.0424 38.376 21.043 38.3781 21.043L41.5399 21.0426C41.543 21.0426 41.546 21.0416 41.5484 21.0398C41.5508 21.0379 41.5526 21.0353 41.5533 21.0323ZM44.1656 11.9346L44.1662 11.9357L44.1668 11.9371L45.5859 16.8396L45.5863 16.8412L45.5864 16.8432L45.5862 16.8454C45.586 16.8464 45.5857 16.8474 45.5853 16.8483C45.5849 16.8492 45.5844 16.85 45.5839 16.8508C45.5827 16.8523 45.5811 16.8536 45.5794 16.8545C45.5776 16.8554 45.5757 16.8558 45.5737 16.8558H42.7693C42.7684 16.8558 42.7675 16.8556 42.7666 16.8554C42.7656 16.8552 42.7647 16.8548 42.7637 16.8544L42.762 16.8533C42.761 16.8525 42.7601 16.8516 42.7594 16.8506C42.7583 16.849 42.7575 16.8472 42.7572 16.8453C42.7568 16.8434 42.7569 16.8415 42.7575 16.8396L44.1427 11.9375C44.1435 11.9349 44.145 11.9327 44.1472 11.931C44.148 11.9304 44.1489 11.9299 44.1498 11.9295C44.1513 11.9288 44.1529 11.9285 44.1546 11.9285C44.1573 11.9284 44.1599 11.9292 44.1621 11.9308C44.1635 11.9318 44.1647 11.9331 44.1656 11.9346Z" fill="#00AB55"/>
<path fill-rule="evenodd" clip-rule="evenodd" d="M58.9386 15.2856C59.3077 15.3227 59.6337 15.4079 59.9167 15.5412C60.2786 15.7117 60.534 16.0099 60.6829 16.436C60.8026 16.779 60.8671 17.159 60.8766 17.5759C60.8983 18.5164 60.8182 19.8831 59.9826 20.4718C59.7314 20.6485 59.4329 20.7781 59.087 20.8604C58.5807 20.9808 58.045 21.0413 57.48 21.0419C55.3482 21.044 53.2113 21.0442 51.0692 21.0427L51.0671 21.0425L51.0661 21.0423L51.0643 21.0418C51.0625 21.0411 51.0608 21.04 51.0594 21.0386C51.0568 21.036 51.0554 21.0325 51.0554 21.0288V9.62751C51.0554 9.61909 51.0595 9.61489 51.0676 9.61489C53.3654 9.6141 55.4749 9.61436 57.396 9.61567C58.2233 9.61646 59.1998 9.79677 59.8725 10.2753C60.5046 10.7247 60.6671 11.6251 60.6896 12.3471C60.7085 12.9565 60.6446 13.5242 60.4978 14.0503C60.4389 14.2612 60.362 14.4282 60.267 14.5513C59.9636 14.9455 59.4097 15.1195 58.9375 15.1932C58.9267 15.1951 58.9189 15.201 58.9142 15.211C58.9063 15.2281 58.9058 15.2462 58.9126 15.2654C58.9171 15.2775 58.9258 15.2843 58.9386 15.2856ZM56.2258 14.1978C56.5379 14.2144 56.8902 14.1643 57.2078 14.0779C57.4015 14.025 57.5392 13.8917 57.5925 13.7015C57.6745 13.4072 57.6782 13.0802 57.6035 12.7207C57.5572 12.4979 57.4515 12.3472 57.2863 12.2685C57.1277 12.1931 56.9485 12.1548 56.7486 12.1537C55.8659 12.149 54.9989 12.1478 54.1478 12.1502C54.1354 12.1504 54.1292 12.1566 54.1292 12.1687V14.1623C54.1292 14.1794 54.1378 14.188 54.1549 14.188C54.7259 14.188 55.2953 14.1881 55.8632 14.1884C55.9834 14.1884 56.1043 14.1915 56.2258 14.1978ZM57.4031 16.4364C57.0969 16.339 56.7497 16.3122 56.4266 16.3129C55.6457 16.3143 54.8873 16.3144 54.1513 16.3133C54.1369 16.3133 54.1296 16.3207 54.1296 16.3354L54.13 18.4943C54.13 18.5015 54.1328 18.5083 54.1379 18.5133C54.1429 18.5183 54.1497 18.5212 54.1568 18.5212C54.8904 18.5227 55.6433 18.5226 56.4156 18.5208C56.6578 18.5202 56.927 18.4904 57.2232 18.4312C57.5328 18.3694 57.7194 18.1761 57.783 17.8512C57.8506 17.5072 57.8427 17.1717 57.7594 16.8448C57.7104 16.6522 57.5948 16.4976 57.4031 16.4364Z" fill="#00AB55"/>
<path d="M81.9536 9.62983L82.0731 18.2828C82.0731 18.2847 82.0727 18.2865 82.0721 18.2882C82.0714 18.29 82.0703 18.2916 82.069 18.293C82.0668 18.2953 82.0639 18.2967 82.0609 18.2972L82.0589 18.2974L81.967 18.2986C81.964 18.2986 81.9611 18.2977 81.9586 18.296C81.9561 18.2943 81.9542 18.2919 81.9532 18.2891L78.7401 9.62391C78.7396 9.62259 78.7389 9.62135 78.738 9.62023L78.7364 9.61838L78.7346 9.617C78.7322 9.61531 78.7292 9.61441 78.7262 9.61444L73.5886 9.61484C73.5847 9.61484 73.581 9.61637 73.5783 9.61911C73.5768 9.62061 73.5756 9.62239 73.5749 9.62433C73.5743 9.62595 73.574 9.62768 73.574 9.62944V21.0288L73.5741 21.0309C73.5743 21.032 73.5746 21.0331 73.575 21.0342C73.5757 21.036 73.5769 21.0377 73.5783 21.0391C73.581 21.0419 73.5847 21.0434 73.5886 21.0434L76.5606 21.0426C76.5626 21.0426 76.5645 21.0422 76.5663 21.0415C76.5681 21.0407 76.5697 21.0396 76.5711 21.0382L76.5725 21.0365L76.5735 21.0349L76.5742 21.0333L76.575 21.0308C76.5752 21.0297 76.5753 21.0287 76.5752 21.0276L76.4387 12.2657C76.4387 12.2642 76.439 12.2628 76.4394 12.2614C76.4401 12.2592 76.4413 12.2572 76.4429 12.2555C76.4455 12.2528 76.4491 12.2512 76.4529 12.2511L76.5622 12.2507C76.5652 12.2507 76.5681 12.2516 76.5706 12.2533C76.5731 12.255 76.575 12.2574 76.576 12.2602L79.7911 21.0339L79.7918 21.0355L79.7932 21.0377C79.7941 21.0389 79.7953 21.04 79.7965 21.0408L79.7981 21.0418L79.8001 21.0426C79.8017 21.0432 79.8033 21.0434 79.8049 21.0434H84.9777C84.9816 21.0434 84.9853 21.0419 84.988 21.0391C84.9907 21.0364 84.9923 21.0327 84.9923 21.0288V9.62944C84.9923 9.62556 84.9907 9.62185 84.988 9.61911C84.9853 9.61637 84.9816 9.61484 84.9777 9.61484H81.9682C81.9662 9.61484 81.9643 9.61523 81.9625 9.61598C81.9614 9.61646 81.9603 9.61706 81.9594 9.61779L81.9577 9.61925C81.9563 9.62065 81.9553 9.6223 81.9546 9.62412C81.9541 9.6252 81.9539 9.62631 81.9537 9.62745L81.9536 9.62983Z" fill="#00AB55"/>
<path fill-rule="evenodd" clip-rule="evenodd" d="M103.992 16.6283V16.6784C103.992 16.6974 104.002 16.7073 104.02 16.7084C104.356 16.725 104.668 16.7944 104.956 16.9167C105.801 17.2765 106.067 18.1141 106.068 18.9754C106.069 19.6393 106.069 20.321 106.069 21.0207C106.069 21.0239 106.068 21.027 106.067 21.0298C106.066 21.0323 106.064 21.0346 106.062 21.0366C106.058 21.0408 106.052 21.0432 106.046 21.0432H102.958C102.946 21.0432 102.941 21.0377 102.941 21.0266C102.942 20.5032 102.942 19.9771 102.941 19.4485C102.941 19.0371 102.85 18.6934 102.669 18.4175C102.484 18.1354 102.088 18.0317 101.763 18.0301C100.994 18.0259 100.205 18.0254 99.396 18.0285C99.3889 18.0285 99.3854 18.0321 99.3854 18.0392L99.3846 21.0191C99.3846 21.0214 99.3843 21.0237 99.3836 21.0259L99.3832 21.0271C99.3826 21.0288 99.3818 21.0305 99.3807 21.0321C99.3799 21.0334 99.3788 21.0347 99.3777 21.0359C99.3732 21.0403 99.3672 21.0428 99.3609 21.0428L96.3242 21.0432C96.3205 21.0432 96.317 21.0417 96.3144 21.039C96.3136 21.0382 96.3129 21.0373 96.3123 21.0363L96.3114 21.0343L96.3108 21.0325C96.3105 21.0314 96.3104 21.0302 96.3104 21.029V9.62567C96.3104 9.62416 96.3107 9.62269 96.3113 9.62133C96.3118 9.62004 96.3126 9.61886 96.3136 9.61786C96.3157 9.61578 96.3185 9.61462 96.3214 9.61462C98.327 9.61252 100.361 9.61383 102.422 9.61856C102.692 9.61909 103.03 9.64855 103.436 9.70694C103.953 9.78085 104.405 9.91144 104.794 10.0987C105.222 10.3047 105.533 10.607 105.728 11.0058C105.895 11.349 106.008 11.7339 106.069 12.1606C106.161 12.8058 106.177 13.4931 106.116 14.2224C106.081 14.6367 106.012 15.0695 105.869 15.4613C105.617 16.1549 104.708 16.4535 104.017 16.5975C104.001 16.601 103.992 16.6112 103.992 16.6283ZM99.4091 12.2549C99.393 12.2546 99.385 12.2625 99.385 12.2785L99.3854 15.3666C99.3854 15.3916 99.3979 15.4041 99.4229 15.4041C100.272 15.4062 101.108 15.4058 101.932 15.4029C102.258 15.4021 102.692 15.335 102.834 15.0182C102.942 14.7791 102.984 14.5006 103.001 14.2358C103.032 13.7616 103.006 13.3339 102.923 12.9528C102.893 12.8163 102.849 12.7 102.788 12.604C102.616 12.329 102.087 12.2754 101.798 12.2722C101.013 12.2633 100.217 12.2575 99.4091 12.2549Z" fill="#00AB55"/>
<path fill-rule="evenodd" clip-rule="evenodd" d="M61.2368 21.043H64.3986C64.4017 21.043 64.4047 21.042 64.4071 21.0402C64.4089 21.0388 64.4103 21.037 64.4112 21.035L64.412 21.0327L64.9565 19.077L64.9573 19.0748L64.9585 19.0727C64.9593 19.0715 64.9603 19.0705 64.9615 19.0696C64.9622 19.069 64.963 19.0686 64.9638 19.0682L64.9653 19.0675C64.9668 19.067 64.9683 19.0668 64.9699 19.0668H69.0396C69.0426 19.0667 69.0455 19.0677 69.0479 19.0694C69.0504 19.0712 69.0521 19.0737 69.053 19.0766L69.6472 21.0331C69.6477 21.0349 69.6485 21.0365 69.6497 21.0379L69.6508 21.0391L69.6522 21.0403C69.6546 21.0421 69.6576 21.043 69.6606 21.043H72.7549C72.7571 21.043 72.7592 21.0424 72.761 21.0415C72.7623 21.0408 72.7634 21.04 72.7644 21.0391L72.7659 21.0374C72.7671 21.0356 72.768 21.0336 72.7683 21.0315C72.7685 21.0307 72.7685 21.0298 72.7685 21.0289C72.7685 21.028 72.7684 21.0272 72.7682 21.0263L72.7679 21.0252L69.2976 9.62431C69.2972 9.62284 69.2965 9.62147 69.2956 9.62025C69.2948 9.61906 69.2937 9.618 69.2925 9.61712C69.2913 9.61624 69.29 9.61556 69.2886 9.61511C69.2872 9.61465 69.2857 9.61442 69.2842 9.61444H64.6555C64.6538 9.61447 64.6521 9.61481 64.6505 9.61544C64.6494 9.6159 64.6483 9.6165 64.6473 9.61724C64.645 9.61902 64.6433 9.62149 64.6425 9.62431L61.2238 21.0252C61.2232 21.0273 61.2231 21.0294 61.2234 21.0315C61.2238 21.0336 61.2246 21.0356 61.2259 21.0374C61.2272 21.0391 61.2288 21.0405 61.2307 21.0415C61.2326 21.0424 61.2347 21.043 61.2368 21.043ZM65.6124 16.8482C65.6121 16.8464 65.6121 16.8445 65.6126 16.8428L67.0069 11.9375C67.0077 11.935 67.0093 11.9329 67.0114 11.9313C67.0135 11.9298 67.016 11.929 67.0186 11.929C67.0198 11.929 67.0211 11.9292 67.0223 11.9296L67.0235 11.9301C67.0243 11.9304 67.025 11.9308 67.0258 11.9313C67.0271 11.9324 67.0283 11.9336 67.0291 11.9351L67.0297 11.9362L67.0302 11.9375L68.4418 16.8376L68.4421 16.8386L68.4423 16.8402L68.4424 16.8411L68.4422 16.8433C68.4418 16.8452 68.4411 16.847 68.4399 16.8485C68.4388 16.8501 68.4373 16.8513 68.4356 16.8522C68.4347 16.8526 68.4337 16.8529 68.4327 16.8531L68.4318 16.8533L68.43 16.8534L65.6241 16.8581C65.6222 16.8581 65.6204 16.8576 65.6188 16.8568C65.6171 16.8559 65.6157 16.8547 65.6146 16.8532C65.6135 16.8517 65.6128 16.85 65.6124 16.8482Z" fill="#00AB55"/>
<path d="M89.5622 16.3283V18.5069C89.5622 18.5109 89.5638 18.5147 89.5666 18.5175C89.5694 18.5203 89.5732 18.5219 89.5772 18.5219L94.8632 18.5211C94.8672 18.5211 94.871 18.5227 94.8738 18.5255C94.8766 18.5283 94.8782 18.5321 94.8782 18.5361L94.8774 21.0276C94.8774 21.03 94.8769 21.0323 94.8758 21.0344C94.8751 21.0358 94.8742 21.0371 94.873 21.0382C94.8702 21.041 94.8664 21.0426 94.8624 21.0426L86.5093 21.043C86.5053 21.043 86.5015 21.0414 86.4987 21.0386C86.4959 21.0358 86.4943 21.032 86.4943 21.028V9.62943C86.4943 9.62546 86.4959 9.62164 86.4987 9.61883C86.5001 9.61746 86.5017 9.61639 86.5034 9.61564C86.5053 9.61486 86.5073 9.61444 86.5093 9.61444H94.7598C94.7609 9.61444 94.7619 9.61455 94.7629 9.61477C94.7639 9.61497 94.7648 9.61526 94.7657 9.61564C94.7675 9.61638 94.7691 9.61746 94.7705 9.61883C94.7733 9.62164 94.7748 9.62546 94.7748 9.62943L94.7752 12.1162C94.7752 12.1182 94.7749 12.1201 94.7741 12.1219C94.7733 12.1238 94.7722 12.1254 94.7709 12.1268C94.7695 12.1282 94.7678 12.1293 94.766 12.1301L94.7644 12.1306C94.7631 12.131 94.7617 12.1312 94.7602 12.1312H89.5772C89.5732 12.1312 89.5694 12.1328 89.5666 12.1356C89.5661 12.1361 89.5657 12.1366 89.5653 12.1371C89.5651 12.1374 89.5649 12.1376 89.5647 12.1379C89.5642 12.1387 89.5637 12.1396 89.5633 12.1405C89.5626 12.1423 89.5622 12.1442 89.5622 12.1462V14.1725C89.5622 14.1765 89.5638 14.1803 89.5666 14.1831C89.5694 14.1859 89.5732 14.1875 89.5772 14.1875H94.4182C94.4203 14.1875 94.4223 14.188 94.4242 14.1888L94.4264 14.19C94.4273 14.1906 94.4281 14.1912 94.4288 14.1919C94.4297 14.1928 94.4305 14.1938 94.4311 14.1949C94.4324 14.1972 94.4332 14.1998 94.4332 14.2025L94.4328 16.2987C94.4328 16.3027 94.4312 16.3065 94.4284 16.3093C94.4273 16.3103 94.4262 16.3112 94.4249 16.3119C94.4227 16.3131 94.4203 16.3137 94.4178 16.3137L89.5772 16.3133L89.575 16.3135C89.5739 16.3136 89.5729 16.3139 89.5719 16.3143C89.5707 16.3147 89.5695 16.3153 89.5685 16.3161L89.5666 16.3177C89.5638 16.3205 89.5622 16.3243 89.5622 16.3283Z" fill="#00AB55"/>
<path d="M121.203 12.4771V10.4495C121.203 10.4444 121.205 10.4395 121.209 10.4359C121.213 10.4323 121.218 10.4302 121.223 10.4302L121.913 10.4318C121.914 10.4318 121.916 10.4316 121.917 10.4312L121.92 10.4303C121.922 10.4293 121.925 10.4279 121.926 10.4261C121.928 10.4243 121.93 10.4222 121.931 10.4199C121.931 10.4188 121.931 10.4176 121.932 10.4165C121.932 10.4152 121.932 10.4138 121.932 10.4125L121.93 9.8242C121.93 9.81908 121.928 9.81416 121.925 9.81053C121.924 9.80962 121.923 9.80881 121.922 9.8081C121.921 9.80768 121.921 9.8073 121.92 9.80695C121.917 9.8056 121.914 9.80487 121.911 9.80487L119.817 9.80527C119.812 9.80527 119.807 9.8073 119.804 9.81093C119.802 9.81211 119.801 9.81343 119.801 9.81484C119.8 9.8159 119.799 9.81702 119.799 9.81817C119.799 9.81873 119.799 9.81929 119.799 9.81987C119.798 9.8214 119.798 9.82299 119.798 9.8246L119.8 10.4105C119.8 10.4156 119.802 10.4205 119.806 10.4242C119.808 10.4257 119.809 10.427 119.811 10.428C119.814 10.4292 119.817 10.4298 119.82 10.4298L120.462 10.431C120.467 10.431 120.472 10.433 120.476 10.4367C120.479 10.4403 120.481 10.4452 120.481 10.4503L120.482 12.4775C120.482 12.4826 120.485 12.4875 120.488 12.4911C120.492 12.4948 120.497 12.4968 120.502 12.4968L121.184 12.4964C121.189 12.4964 121.194 12.4944 121.198 12.4907C121.201 12.4871 121.203 12.4822 121.203 12.4771Z" fill="#00AB55"/>
<path d="M123.032 12.496H122.346C122.343 12.496 122.34 12.4947 122.338 12.4924C122.335 12.4901 122.334 12.487 122.334 12.4838L122.332 9.81472C122.332 9.81304 122.332 9.8114 122.333 9.80989C122.334 9.80848 122.335 9.80718 122.336 9.80607C122.337 9.80483 122.338 9.80388 122.34 9.80327C122.341 9.80276 122.343 9.80249 122.344 9.80249L123.462 9.80525C123.465 9.80522 123.468 9.80606 123.47 9.80762C123.472 9.80919 123.474 9.8114 123.474 9.81393L123.985 11.4958C123.985 11.4985 123.987 11.5008 123.989 11.5024C123.991 11.5041 123.994 11.505 123.997 11.505C123.999 11.505 124.002 11.5041 124.004 11.5024C124.005 11.5018 124.006 11.501 124.006 11.5001C124.007 11.4989 124.008 11.4974 124.008 11.4958L124.49 9.81314C124.491 9.81067 124.492 9.80851 124.495 9.80695C124.497 9.80539 124.499 9.80452 124.502 9.80446L125.65 9.80565C125.653 9.80565 125.657 9.80694 125.659 9.80923C125.661 9.81152 125.662 9.81463 125.662 9.81788V12.4838C125.662 12.487 125.661 12.4901 125.659 12.4924C125.657 12.4947 125.653 12.496 125.65 12.496H124.961C124.96 12.496 124.958 12.4957 124.957 12.495C124.956 12.4946 124.955 12.4941 124.954 12.4935C124.953 12.4931 124.953 12.4927 124.952 12.4923C124.951 12.4911 124.95 12.4897 124.95 12.4882L124.949 12.4859C124.949 12.4851 124.949 12.4842 124.949 12.4834L125 10.4614C125 10.4583 124.999 10.4552 124.997 10.4528C124.996 10.4518 124.995 10.4509 124.994 10.4502C124.993 10.4492 124.991 10.4486 124.989 10.4483C124.986 10.4478 124.983 10.4484 124.981 10.4501C124.979 10.4511 124.978 10.4525 124.977 10.4541C124.976 10.4551 124.976 10.4562 124.976 10.4574L124.317 12.4873C124.317 12.4898 124.315 12.4919 124.313 12.4934C124.311 12.4949 124.308 12.4957 124.306 12.4956L123.699 12.496L123.697 12.4958C123.695 12.4954 123.693 12.4947 123.692 12.4937C123.69 12.4922 123.688 12.4901 123.687 12.4877L123.009 10.442C123.008 10.439 123.007 10.4364 123.004 10.4347C123.003 10.434 123.002 10.4334 123 10.4331C122.999 10.4327 122.997 10.4326 122.995 10.4329C122.994 10.4331 122.992 10.4336 122.991 10.4343C122.99 10.4351 122.989 10.4361 122.988 10.4374C122.986 10.4399 122.985 10.4429 122.985 10.446L123.045 12.4834L123.045 12.4855C123.044 12.4864 123.044 12.4873 123.044 12.4882C123.043 12.4897 123.042 12.4911 123.041 12.4923C123.04 12.4935 123.039 12.4944 123.037 12.495C123.036 12.4954 123.035 12.4957 123.034 12.4958C123.034 12.4959 123.033 12.496 123.032 12.496Z" fill="#00AB55"/>
</svg>
