<svg width="84" height="28" viewBox="0 0 84 28" fill="none" xmlns="http://www.w3.org/2000/svg">
<path d="M12.614 0H13.2309C13.3974 0.0135861 13.5625 0.0333821 13.7263 0.0593879C16.0541 0.427209 17.0676 2.46029 17.153 4.63847C17.1531 4.64063 17.1528 4.64282 17.152 4.64485C17.1512 4.6469 17.15 4.64876 17.1485 4.65034C17.147 4.65191 17.1452 4.65318 17.1432 4.65404C17.1412 4.65486 17.139 4.65531 17.1369 4.65531H15.4646C15.4442 4.65531 15.4333 4.64512 15.4319 4.62474C15.3349 3.26935 14.8076 1.82895 13.2678 1.60412C11.4901 1.34486 10.1537 2.58675 10.5233 4.41608C10.7471 5.52167 11.6394 6.32654 12.5279 6.96101C12.8135 7.16487 13.1076 7.36544 13.4019 7.56614L13.4024 7.56655L13.4038 7.56748L13.4065 7.56933L13.407 7.56964C13.9159 7.91674 14.4253 8.26418 14.8919 8.62908C15.472 9.08264 16.0154 9.60574 16.43 10.2026C17.2131 11.33 17.4632 12.6636 17.2981 14.0183C17.244 14.4613 17.1369 14.9121 16.9615 15.3157C16.4592 16.4723 15.5117 17.1949 14.281 17.4665C13.7151 17.5916 13.1351 17.633 12.5409 17.5909C12.0985 17.5595 11.6757 17.4647 11.2726 17.3066C9.41768 16.5787 8.61633 14.6623 8.60614 12.7806C8.60614 12.768 8.61246 12.7616 8.62511 12.7616L10.3016 12.7613C10.3145 12.7613 10.321 12.7678 10.3213 12.781C10.3374 13.4773 10.466 14.1754 10.804 14.7708C11.3331 15.7029 12.2669 16.0788 13.324 16.0261C14.9773 15.9439 15.7119 14.6496 15.6726 13.1274C15.6423 11.9659 14.958 11.0785 14.0969 10.3537C13.8011 10.1047 13.5122 9.88035 13.2302 9.68057C13.0601 9.56008 12.889 9.44055 12.7177 9.32095L12.7173 9.32074C11.9423 8.77953 11.165 8.23677 10.478 7.59692C9.89864 7.05728 9.40785 6.42243 9.11801 5.70223C8.83016 4.98601 8.73285 4.22155 8.82606 3.40885C8.97432 2.11635 9.67906 1.00723 10.8486 0.441241C11.3866 0.181046 11.975 0.0339653 12.614 0Z" fill="#919EAB"/>
<path d="M34.4038 9.22001V17.3576C34.4038 17.3617 34.4022 17.3656 34.3993 17.3685L34.3983 17.3695L34.3971 17.3703L34.3958 17.3711C34.3936 17.3724 34.391 17.373 34.3883 17.373H32.5562C32.5521 17.373 32.5482 17.3714 32.5453 17.3685C32.5424 17.3656 32.5408 17.3617 32.5408 17.3576V0.252613C32.5408 0.250143 32.5413 0.247741 32.5424 0.245614C32.5431 0.244173 32.5441 0.242835 32.5453 0.241669C32.5482 0.238752 32.5521 0.23714 32.5562 0.23714H39.8942C39.8983 0.23714 39.9022 0.238752 39.9051 0.241669C39.9067 0.243247 39.9079 0.245134 39.9087 0.247227L39.9094 0.249594L39.9096 0.251687L39.9097 0.252613V1.79419C39.9097 1.79563 39.9094 1.79708 39.909 1.79845C39.9087 1.79961 39.9082 1.80075 39.9076 1.80181C39.9072 1.80263 39.9066 1.80339 39.906 1.80411L39.9051 1.8051C39.9022 1.80802 39.8983 1.80963 39.8942 1.80963H34.4193C34.4182 1.80963 34.4171 1.80974 34.4161 1.80998C34.4132 1.81059 34.4105 1.81203 34.4083 1.81416C34.4054 1.81708 34.4038 1.82099 34.4038 1.82511V7.61692C34.4038 7.61915 34.4043 7.62131 34.4052 7.6233C34.4059 7.62498 34.407 7.62652 34.4083 7.62786C34.4099 7.62947 34.4118 7.63067 34.4139 7.63146C34.4156 7.63208 34.4174 7.63239 34.4193 7.63239L38.5156 7.63205C38.5197 7.63205 38.5237 7.63366 38.5266 7.63658C38.5276 7.63764 38.5285 7.63887 38.5292 7.64018C38.5297 7.6411 38.5301 7.6421 38.5304 7.64313C38.5307 7.64409 38.5309 7.64512 38.531 7.64615L38.5311 7.64749L38.5314 9.18907C38.5314 9.19318 38.5298 9.19713 38.5269 9.20001C38.524 9.20293 38.5201 9.20454 38.516 9.20454H34.4193C34.4151 9.20454 34.4112 9.20615 34.4083 9.20907C34.4073 9.2101 34.4064 9.21126 34.4057 9.2125L34.4052 9.21349L34.4045 9.21528C34.404 9.21679 34.4038 9.21837 34.4038 9.22001Z" fill="#919EAB"/>
<path d="M47.5252 17.3569V1.82579C47.5252 1.82342 47.5257 1.82116 47.5267 1.81907C47.5271 1.81818 47.5276 1.81732 47.5281 1.81649L47.529 1.81533L47.5299 1.81437C47.5329 1.81135 47.5371 1.80963 47.5413 1.80963L51.0219 1.80929C51.0261 1.80929 51.0302 1.80757 51.0333 1.80455C51.035 1.8028 51.0363 1.80071 51.0371 1.79841C51.0377 1.79673 51.038 1.79495 51.038 1.79313L51.0377 0.253299C51.0377 0.249011 51.036 0.244894 51.0329 0.241874C51.0299 0.238855 51.0258 0.23714 51.0215 0.23714H42.1655C42.1633 0.23714 42.1611 0.237586 42.1591 0.238444C42.1573 0.239233 42.1555 0.240399 42.154 0.241874C42.151 0.244894 42.1493 0.249011 42.1493 0.253299V1.79347C42.1493 1.79776 42.151 1.80188 42.154 1.8049C42.1554 1.8063 42.1571 1.80744 42.1588 1.80823C42.1599 1.80867 42.1609 1.80901 42.1621 1.80926C42.1632 1.8095 42.1643 1.80963 42.1655 1.80963L45.6463 1.80929C45.6479 1.80929 45.6494 1.80953 45.6509 1.80994L45.6527 1.81063L45.6537 1.81111C45.6552 1.81186 45.6566 1.81286 45.6578 1.81402L45.6592 1.8157L45.6605 1.81766L45.6612 1.81914C45.6616 1.82013 45.6619 1.82116 45.6622 1.82219C45.6624 1.82325 45.6625 1.82435 45.6625 1.82545V17.3565C45.6625 17.3608 45.6642 17.3649 45.6672 17.368C45.6703 17.371 45.6744 17.3727 45.6786 17.3727L47.509 17.373C47.5098 17.373 47.5107 17.373 47.5115 17.3728C47.513 17.3726 47.5144 17.3722 47.5158 17.3716C47.5166 17.3712 47.5173 17.3708 47.5181 17.3703L47.5186 17.3699L47.5204 17.3683C47.5213 17.3674 47.5221 17.3664 47.5227 17.3654C47.5236 17.3641 47.5242 17.3627 47.5246 17.3612C47.525 17.3598 47.5252 17.3583 47.5252 17.3569Z" fill="#919EAB"/>
<path d="M66.751 1.81546L66.7496 1.81667C66.7467 1.81958 66.7446 1.82308 66.7433 1.82692C66.7424 1.8296 66.7419 1.83241 66.7419 1.8353L66.7423 7.58532C66.7423 7.59472 66.7459 7.60374 66.7525 7.61057C66.759 7.61736 66.768 7.62141 66.7774 7.62186C66.8266 7.62419 66.8737 7.6256 66.9186 7.62608C68.2715 7.6352 69.6745 7.63627 71.1278 7.62923C71.1303 7.6292 71.1327 7.62947 71.1351 7.63002C71.1367 7.6304 71.1383 7.63092 71.1399 7.63153C71.1437 7.63311 71.1472 7.63544 71.1501 7.63836C71.1531 7.64131 71.1554 7.64481 71.157 7.64869C71.1586 7.65253 71.1594 7.65668 71.1594 7.66087L71.1598 9.17819C71.1598 9.18056 71.1594 9.18289 71.1588 9.18515C71.1581 9.18783 71.1569 9.1904 71.1553 9.1927L71.1541 9.19435L71.1535 9.19514L71.1519 9.19682C71.1469 9.20176 71.1401 9.20454 71.1331 9.20454L66.7725 9.20488C66.7645 9.20488 66.7568 9.20807 66.7511 9.21373C66.7455 9.21943 66.7423 9.22711 66.7423 9.23511V15.7492C66.7423 15.7562 66.744 15.7631 66.7473 15.7691C66.7492 15.7727 66.7516 15.7759 66.7545 15.7788C66.7624 15.7866 66.773 15.7911 66.7841 15.7911L72.9771 15.7914C72.9797 15.7914 72.9821 15.7918 72.9845 15.7925L72.9874 15.7936C72.9904 15.7949 72.9932 15.7968 72.9955 15.7991C73.0004 15.8041 73.0031 15.8108 73.0031 15.8178L73.0021 17.3428C73.0021 17.3627 72.9921 17.3727 72.9722 17.3727L64.9059 17.3723C64.899 17.3723 64.8923 17.3696 64.8873 17.3647C64.8824 17.3599 64.8796 17.3532 64.8796 17.3463V0.254706C64.8796 0.253745 64.8797 0.252784 64.8798 0.251824C64.88 0.250589 64.8804 0.249388 64.8808 0.248221C64.8817 0.245923 64.8831 0.24383 64.8848 0.242046C64.8882 0.238684 64.8928 0.236797 64.8975 0.236797H72.6866L72.6879 0.236831C72.6889 0.236865 72.6898 0.2369 72.6908 0.237037L72.6932 0.237414L72.6958 0.238032C72.7015 0.23961 72.7067 0.242629 72.7109 0.246883C72.7123 0.248221 72.7135 0.249662 72.7146 0.251206C72.7188 0.257004 72.721 0.264003 72.721 0.271242L72.7217 1.78328C72.7217 1.79001 72.719 1.79646 72.7142 1.80119C72.7094 1.80593 72.7029 1.8086 72.6961 1.8086L66.7683 1.80895C66.7652 1.80895 66.7622 1.8095 66.7593 1.81052C66.757 1.81138 66.7548 1.81255 66.7528 1.81402L66.751 1.81546Z" fill="#919EAB"/>
<path d="M83.4907 1.8072V0.236797L74.654 0.236454C74.6256 0.236454 74.6115 0.250726 74.6115 0.279305L74.6111 1.77381C74.6111 1.78304 74.6148 1.79189 74.6213 1.79841C74.6278 1.80493 74.6367 1.8086 74.6459 1.8086H78.1064C78.1088 1.8086 78.1111 1.80908 78.1133 1.80998C78.1155 1.81087 78.1176 1.81221 78.1193 1.81396C78.1227 1.81739 78.1246 1.82202 78.1246 1.82686V17.3376C78.1246 17.3428 78.1258 17.3479 78.128 17.3525C78.1296 17.3562 78.132 17.3595 78.1348 17.3624C78.1376 17.3652 78.1408 17.3675 78.1442 17.3692C78.1489 17.3715 78.1541 17.3727 78.1594 17.3727H79.9511C79.9746 17.3727 79.9863 17.361 79.9863 17.3376V1.8367C79.9863 1.82953 79.9891 1.82267 79.9942 1.81759C79.9993 1.81251 80.0062 1.80967 80.0133 1.80967L83.4907 1.8072Z" fill="#919EAB"/>
<path fill-rule="evenodd" clip-rule="evenodd" d="M0.509308 2.69565V3.18643C0.571842 3.99309 0.895875 4.64464 1.48141 5.14119C3.1976 6.59634 6.02044 5.72752 6.34576 3.40357C6.4905 2.36893 6.17186 1.35501 5.35258 0.688913C4.84809 0.278825 4.27345 0.0561972 3.62866 0.0210654C2.80775 -0.0234327 2.08989 0.214874 1.47508 0.735984C0.894001 1.22855 0.561654 1.93047 0.509308 2.69565ZM2.2263 3.84748C1.87734 3.39499 1.86285 2.73322 2.0934 2.22874C2.11286 2.18624 2.1359 2.14486 2.162 2.10479C2.34466 1.82435 2.67681 1.60828 2.97345 1.51945C3.78008 1.27775 4.7304 1.69473 4.9036 2.56919C5.00478 3.08035 4.91238 3.62139 4.53366 3.98746C3.93782 4.5636 3.00788 4.5552 2.39659 4.0275C2.33283 3.97247 2.27615 3.91212 2.2263 3.84748Z" fill="#919EAB"/>
<path fill-rule="evenodd" clip-rule="evenodd" d="M24.5233 0H25.1192C25.2871 0.0154731 25.4537 0.0372246 25.6191 0.0653576C28.0804 0.485155 29.0174 2.97461 29.3828 5.11765C29.6389 6.62094 29.6916 8.19872 29.6441 9.7519C29.6149 10.7068 29.5297 11.6063 29.3887 12.4504C29.1235 14.0373 28.5473 15.8676 27.1944 16.8717C26.599 17.3137 25.8935 17.5563 25.0777 17.5996C23.8379 17.6653 22.7116 17.2859 21.8674 16.3602C21.3404 15.7826 20.9602 15.0477 20.7013 14.2934C20.3662 13.3174 20.1768 12.2793 20.0788 11.252C19.9709 10.119 19.9495 8.93436 19.9878 7.74269C20.0175 6.81427 20.1065 5.91961 20.2548 5.05864C20.6254 2.90647 21.5863 0.45565 24.0564 0.0541044C24.182 0.0337252 24.3376 0.015679 24.5233 0ZM27.0247 14.3823C27.2006 13.9743 27.3405 13.5213 27.4445 13.0234C27.5677 12.4341 27.6546 11.8278 27.7052 11.2046C27.8141 9.85798 27.8236 8.4854 27.7551 7.10576C27.7223 6.44645 27.6539 5.78903 27.5499 5.13347C27.4581 4.55661 27.3248 4.0227 27.1501 3.53181C26.8378 2.65455 26.2785 1.81317 25.3085 1.61853C25.0425 1.56512 24.7647 1.55681 24.4752 1.59359C23.4156 1.72884 22.8277 2.57636 22.4855 3.50464C22.4366 3.63728 22.3927 3.77153 22.3532 3.9056C22.0969 4.77587 21.9626 5.74724 21.897 6.6934C21.8877 6.82858 21.8797 6.9632 21.873 7.09697C21.8226 8.09398 21.8142 9.05557 21.8479 9.98176C21.8527 10.1141 21.8584 10.2457 21.8649 10.3765C21.9046 11.1752 21.9799 11.8992 22.0907 12.5487C22.1065 12.6414 22.1231 12.7327 22.1403 12.8224C22.3679 14.0032 22.8546 15.5458 24.1173 15.9326C24.2015 15.9584 24.2891 15.979 24.3803 15.9941C25.0313 16.1013 25.6879 15.9829 26.197 15.5581C26.5624 15.2532 26.8322 14.8288 27.0247 14.3823Z" fill="#919EAB"/>
<path d="M2.70329 7.2305C3.2127 7.34924 3.73359 7.33459 4.26595 7.18659C4.26945 7.18556 4.27314 7.18535 4.27673 7.186C4.27914 7.18645 4.28147 7.18727 4.28363 7.18844C4.28467 7.18902 4.28568 7.18967 4.28664 7.19039C4.28784 7.19129 4.28896 7.19232 4.28996 7.19341C4.29068 7.1942 4.29135 7.19506 4.29195 7.19595L4.2931 7.19781L4.29361 7.19877C4.29465 7.20082 4.29538 7.20305 4.29579 7.20532L4.29602 7.20693L4.29617 7.2094V17.3801C4.29617 17.3974 4.28738 17.4061 4.26982 17.4061L2.52904 17.4071C2.52762 17.4071 2.5262 17.407 2.5248 17.4068C2.52286 17.4065 2.52095 17.406 2.51912 17.4052C2.51596 17.404 2.51309 17.4021 2.51068 17.3996C2.50988 17.3988 2.50914 17.398 2.50846 17.3971L2.50669 17.3945C2.50606 17.3934 2.5055 17.3923 2.50503 17.3911C2.50371 17.388 2.50304 17.3846 2.50304 17.3811L2.50269 7.20134C2.50267 7.19925 2.50314 7.19722 2.50405 7.19534C2.50496 7.19348 2.5063 7.19184 2.50795 7.19057C2.50961 7.1893 2.51155 7.18837 2.51362 7.18792C2.51568 7.18748 2.51783 7.18751 2.5199 7.18799L2.70329 7.2305Z" fill="#919EAB"/>
<path fill-rule="evenodd" clip-rule="evenodd" d="M59.0147 8.28415C59.0148 8.28205 59.0154 8.28 59.0164 8.27814L59.0185 8.27499C59.0196 8.27324 59.0209 8.27159 59.0222 8.27001L59.0239 8.26819L59.0258 8.2662C59.0282 8.26387 59.0308 8.26181 59.0336 8.26003C59.0366 8.25814 59.0398 8.25656 59.0431 8.25529L59.1497 8.21615L59.3017 8.16009C59.9502 7.92024 60.4741 7.53238 60.8732 6.99652C61.6847 5.90674 61.7669 4.34372 61.4507 3.07441C61.1475 1.85849 60.3219 0.876546 59.1159 0.47253C58.6465 0.315397 58.1759 0.236797 57.7039 0.236797C56.9349 0.2369 56.1693 0.236934 55.4071 0.2369L53.0384 0.236454C53.0274 0.236454 53.0219 0.24208 53.0219 0.253333V17.3369C53.0219 17.3458 53.0254 17.3543 53.0318 17.3606C53.0329 17.3618 53.0342 17.3629 53.0355 17.3639L53.038 17.3655L53.0407 17.367C53.0453 17.3693 53.0504 17.3705 53.0556 17.3706C54.1902 17.3753 55.327 17.3747 56.4662 17.3688C57.6941 17.3625 58.9469 17.2311 60.0188 16.6311C61.2357 15.9495 61.815 14.7881 61.9577 13.4313C62.0578 12.4788 61.9974 11.4621 61.6531 10.5919C61.2336 9.53092 60.4776 8.80474 59.385 8.41339C59.2712 8.37263 59.1511 8.33434 59.0249 8.29852C59.0228 8.29794 59.021 8.29691 59.0194 8.29547C59.0185 8.29475 59.0178 8.29389 59.0172 8.293C59.0166 8.29218 59.0161 8.29128 59.0157 8.29036C59.0149 8.2884 59.0146 8.28627 59.0147 8.28415ZM57.7619 1.87818C58.5358 1.99692 59.2079 2.30855 59.5248 3.05578C59.7005 3.46961 59.7514 3.91648 59.7577 4.38126C59.7665 5.04423 59.6864 5.6998 59.3765 6.25666C59.0358 6.86968 58.4379 7.22275 57.7567 7.39419C57.3489 7.4968 56.9196 7.55629 56.4687 7.57269C55.9743 7.59095 55.4534 7.59493 54.906 7.58463L54.9053 7.5846L54.9045 7.58456C54.9007 7.58429 54.897 7.58329 54.8936 7.58172C54.8902 7.58014 54.887 7.57794 54.8844 7.57523L54.8823 7.57293C54.8779 7.56741 54.8755 7.56051 54.8755 7.55334L54.8758 1.83495L54.8758 1.83372C54.8761 1.82754 54.8787 1.82171 54.883 1.81732L54.8848 1.81567C54.8892 1.81203 54.8947 1.81001 54.9004 1.81001L55.0346 1.8096C55.7031 1.80778 56.3381 1.80874 56.9397 1.81248C57.212 1.81389 57.486 1.83578 57.7619 1.87818ZM56.9135 9.16447C56.2638 9.15864 55.5924 9.15826 54.8993 9.16344C54.8977 9.16344 54.896 9.16361 54.8944 9.16395C54.89 9.16491 54.8859 9.16711 54.8827 9.17033C54.8803 9.17274 54.8785 9.17558 54.8773 9.17867C54.8763 9.18131 54.8758 9.18413 54.8758 9.18697V15.7387C54.8758 15.7479 54.8787 15.7568 54.8839 15.7642L54.8863 15.7673C54.8931 15.7753 54.9024 15.7806 54.9127 15.7823L54.9232 15.784L54.937 15.786L54.9491 15.7874C54.9547 15.788 54.9604 15.7886 54.9661 15.789C54.9739 15.7897 54.9819 15.7902 54.9898 15.7907C55.0005 15.7912 55.0112 15.7914 55.022 15.7914C55.5951 15.7907 56.162 15.7912 56.7227 15.7928C56.8972 15.7933 57.0715 15.7876 57.2437 15.7743C58.4496 15.6814 59.557 15.2176 59.9622 13.9108C59.9706 13.8837 59.9788 13.8564 59.9866 13.829L59.9912 13.8124L59.9977 13.7891C60.0757 13.5031 60.1207 13.2022 60.1326 12.8864C60.1357 12.8043 60.1376 12.7219 60.1381 12.6393C60.1457 11.4 59.8372 10.1221 58.6374 9.53551C58.3192 9.38003 57.9549 9.27604 57.583 9.21861C57.4982 9.20553 57.413 9.19486 57.3278 9.18656C57.1889 9.17301 57.0501 9.1657 56.9135 9.16447Z" fill="#919EAB"/>
<path d="M20.5215 28H20.076C19.5701 27.9575 19.0094 27.7646 18.683 27.3613C18.4972 27.1316 18.5485 26.8656 18.8439 26.7753C18.8491 26.7737 18.8547 26.7739 18.8598 26.7759C18.8628 26.777 18.8656 26.7788 18.8679 26.7811C18.8695 26.7826 18.8709 26.7843 18.872 26.7862C19.2486 27.4102 19.9203 27.6603 20.6254 27.5401C21.0439 27.4688 21.3815 27.2366 21.4272 26.7831C21.4858 26.196 20.9237 25.9578 20.4621 25.8489C20.2016 25.7875 19.9509 25.7219 19.7099 25.6518C19.3178 25.5376 18.9208 25.3047 18.7817 24.9095C18.4427 23.9451 19.1794 23.2129 20.0964 23.148C20.6553 23.1086 21.2965 23.2358 21.6847 23.6468C21.8902 23.8647 21.8835 24.1618 21.5652 24.2581C21.5486 24.2633 21.5357 24.2585 21.5266 24.2437C21.3366 23.9393 21.0676 23.7372 20.7196 23.6377C20.258 23.5059 19.6375 23.5664 19.3277 23.9809C19.2511 24.0836 19.2062 24.2012 19.1931 24.334C19.1439 24.8364 19.4875 25.0756 19.9232 25.1853C20.1857 25.2516 20.4473 25.3192 20.708 25.3883C21.2388 25.5288 21.7707 25.8067 21.8912 26.3773C22.0616 27.1839 21.5737 27.7994 20.7976 27.9547C20.7552 27.9632 20.6632 27.9782 20.5215 28Z" fill="#919EAB"/>
<path d="M23.7659 23.1969H23.8811C23.9874 23.1969 24.0736 23.2831 24.0736 23.3894V27.7556C24.0736 27.8619 23.9874 27.9481 23.8811 27.9481H23.7659C23.6595 27.9481 23.5734 27.8619 23.5734 27.7556V23.3894C23.5734 23.2831 23.6595 23.1969 23.7659 23.1969Z" fill="#919EAB"/>
<path d="M26.4499 23.87C26.457 25.1571 26.4579 26.4606 26.4528 27.7804C26.4525 27.8407 26.427 27.886 26.3762 27.9164C26.3317 27.9428 26.2659 27.9547 26.1787 27.9519C26.0417 27.9474 25.9731 27.8722 25.9729 27.726C25.971 26.3591 25.97 24.9977 25.97 23.6416C25.97 23.5155 25.9816 23.4274 26.0048 23.377C26.0986 23.1729 26.3994 23.1722 26.5908 23.2133C26.7148 23.2404 26.7851 23.3513 26.8357 23.4638L28.0973 26.2631C28.0982 26.265 28.0996 26.2665 28.1013 26.2676C28.1019 26.268 28.1026 26.2684 28.1033 26.2687C28.1045 26.2691 28.1058 26.2693 28.1071 26.2693C28.1092 26.2693 28.1112 26.2687 28.1129 26.2676C28.1147 26.2665 28.1161 26.265 28.117 26.2631C28.5442 25.3237 28.9743 24.3761 29.4073 23.4202C29.453 23.3205 29.5391 23.2288 29.6526 23.2091C29.8862 23.1687 30.2319 23.1968 30.2315 23.5056C30.2306 24.8868 30.2305 26.3017 30.2312 27.7502C30.2312 27.9322 30.0875 27.9603 29.9382 27.9476C29.804 27.9365 29.7569 27.8609 29.7569 27.7411C29.7553 26.3743 29.7555 25.0771 29.7576 23.8496C29.7576 23.8029 29.7479 23.8009 29.7284 23.8432C29.3062 24.7637 28.8982 25.6488 28.5045 26.4985C28.4178 26.6861 28.2672 26.7715 28.0527 26.7546C27.8296 26.7367 27.7481 26.6137 27.6532 26.4075C27.2707 25.5747 26.8822 24.7259 26.4875 23.8615C26.4622 23.8062 26.4497 23.809 26.4499 23.87Z" fill="#919EAB"/>
<path d="M39.5928 27.4563C38.8983 27.4548 38.1402 27.4547 37.3183 27.4559C37.3017 27.4561 37.2934 27.4478 37.2934 27.431C37.292 26.1432 37.2919 24.8165 37.293 23.4505C37.293 23.323 37.2526 23.2134 37.1149 23.1989C36.96 23.1825 36.7906 23.1972 36.791 23.3996C36.7929 24.8084 36.7926 26.2176 36.7903 27.6273C36.7899 27.8547 36.9498 27.9238 37.1525 27.9231C38.0057 27.9199 38.801 27.9195 39.5383 27.9221C39.6623 27.9225 39.7769 27.8501 39.7702 27.7173C39.7692 27.6955 39.7695 27.6741 39.7709 27.653C39.7779 27.5483 39.6961 27.4566 39.5928 27.4563Z" fill="#919EAB"/>
<path d="M42.7216 25.4896C43.1507 24.8235 43.5918 24.1328 44.045 23.4175C44.1115 23.3123 44.1706 23.2481 44.2221 23.225C44.3568 23.1641 44.4837 23.2011 44.6029 23.336C44.6146 23.3493 44.6217 23.3661 44.623 23.3837C44.6243 23.4014 44.6199 23.4189 44.6103 23.4336L42.9805 25.9343C42.9647 25.9586 42.9563 25.9871 42.9563 26.0161C42.9586 26.6296 42.9584 27.2081 42.9556 27.7517C42.9545 27.934 42.7926 27.96 42.6492 27.9481C42.5209 27.9376 42.4567 27.8678 42.4567 27.739V26.0425C42.4567 25.9965 42.4433 25.9514 42.4181 25.9129L40.7981 23.4305C40.7916 23.4204 40.7879 23.4087 40.7874 23.3967C40.7871 23.3904 40.7877 23.3841 40.7891 23.378C40.7904 23.3725 40.7924 23.3673 40.795 23.3623C40.8958 23.1712 41.1906 23.1277 41.3195 23.329C41.7884 24.0597 42.2491 24.7799 42.7016 25.4896C42.7027 25.4912 42.7041 25.4926 42.7059 25.4936C42.7068 25.494 42.7078 25.4944 42.7088 25.4947C42.7097 25.4949 42.7106 25.495 42.7116 25.495C42.7136 25.495 42.7155 25.4945 42.7173 25.4936C42.719 25.4926 42.7205 25.4912 42.7216 25.4896Z" fill="#919EAB"/>
<path d="M55.4421 27.4534C54.7098 27.4553 53.9527 27.4557 53.1709 27.4548C53.1689 27.4548 53.1669 27.4544 53.165 27.4537C53.1643 27.4535 53.1637 27.4532 53.163 27.4528L53.1615 27.4519C53.1609 27.4515 53.1603 27.451 53.1597 27.4504L53.1592 27.45C53.1561 27.447 53.1544 27.4429 53.1544 27.4386C53.1546 26.09 53.1546 24.7445 53.1544 23.402C53.154 23.2014 52.9717 23.1764 52.8188 23.1996C52.7092 23.2165 52.6544 23.2817 52.6544 23.3953C52.6537 24.8088 52.6535 26.2163 52.6537 27.6178C52.6537 27.8022 52.7704 27.9214 52.9439 27.921C53.7159 27.9201 54.5282 27.9207 55.381 27.9231C55.4031 27.9232 55.4242 27.9217 55.4443 27.9186C55.4748 27.914 55.503 27.9058 55.5289 27.8939C55.7046 27.8149 55.6856 27.4527 55.4421 27.4534Z" fill="#919EAB"/>
<path d="M63.6957 25.4892C63.697 25.4912 63.6988 25.4929 63.7009 25.494L63.7016 25.4945L63.7032 25.4951C63.7047 25.4956 63.7062 25.4958 63.7078 25.4958C63.7102 25.4958 63.7126 25.4952 63.7147 25.494C63.7168 25.4929 63.7186 25.4912 63.7199 25.4892C64.1747 24.7784 64.6291 24.0671 65.083 23.3553C65.1233 23.2923 65.1756 23.2462 65.2401 23.2169C65.3743 23.1561 65.5492 23.2394 65.6117 23.3612C65.6353 23.4084 65.6044 23.4382 65.5805 23.4747C65.042 24.3008 64.5043 25.1256 63.9672 25.949C63.9551 25.9676 63.9487 25.9894 63.949 26.0116C63.9504 26.6924 63.9501 27.2761 63.9483 27.7626C63.9475 27.9277 63.8053 27.954 63.6725 27.9505C63.4641 27.9446 63.4494 27.823 63.449 27.6421C63.4479 27.0741 63.4476 26.5284 63.4483 26.0049C63.4483 25.9802 63.4411 25.9559 63.4276 25.935L61.8045 23.4452C61.7304 23.331 61.9194 23.2232 62.0044 23.2049C62.2093 23.1612 62.2869 23.2838 62.3927 23.4506L62.4019 23.4652L62.4228 23.4979C62.8435 24.1502 63.2677 24.814 63.6957 25.4892Z" fill="#919EAB"/>
<path fill-rule="evenodd" clip-rule="evenodd" d="M32.5667 26.1212C32.5677 26.643 32.5678 27.1717 32.5671 27.7071C32.5669 27.8298 32.5135 27.9073 32.4069 27.9397C32.3939 27.9435 32.38 27.9459 32.3655 27.9472C32.3344 27.9501 32.301 27.9484 32.27 27.9468H32.2694L32.2449 27.9457C32.1339 27.9407 32.0654 27.8634 32.0654 27.7559C32.0668 26.3157 32.0669 24.8967 32.0658 23.499C32.0658 23.3535 32.1733 23.2313 32.3236 23.2309C32.79 23.2298 33.2435 23.2302 33.6843 23.2324C34.2942 23.2355 34.9575 23.4919 35.1791 24.1061C35.2745 24.37 35.297 24.6533 35.2466 24.9559C35.1057 25.8033 34.3564 26.085 33.5803 26.0925C33.2594 26.0955 32.9311 26.0957 32.5952 26.0931C32.5762 26.0929 32.5667 26.1023 32.5667 26.1212ZM32.5671 25.6399C32.5671 25.6423 32.5681 25.6447 32.5698 25.6464C32.5707 25.6473 32.5718 25.648 32.573 25.6484C32.5736 25.6487 32.5742 25.6488 32.5749 25.649L32.5762 25.649H33.7437C34.0115 25.649 34.2685 25.5537 34.4579 25.384L34.4584 25.3835C34.6475 25.2139 34.7537 24.9839 34.7537 24.7441V24.586C34.7537 24.3459 34.6473 24.1157 34.4579 23.946L34.4573 23.9456C34.2679 23.7762 34.0113 23.681 33.7437 23.681H32.5762C32.575 23.6809 32.5738 23.6811 32.5727 23.6817L32.5721 23.6819L32.5717 23.6822L32.571 23.6826L32.5704 23.6831L32.5698 23.6837C32.5689 23.6844 32.5683 23.6854 32.5678 23.6866C32.5676 23.6872 32.5674 23.6876 32.5673 23.6882L32.5671 23.6901V25.6399Z" fill="#919EAB"/>
<path fill-rule="evenodd" clip-rule="evenodd" d="M48.439 27.7071C48.4397 27.1717 48.4395 26.643 48.4386 26.1212C48.4386 26.1023 48.4481 26.0929 48.4671 26.0931C48.8029 26.0957 49.1313 26.0955 49.4522 26.0925C50.2282 26.085 50.9776 25.8033 51.1185 24.9559C51.1688 24.6533 51.1463 24.37 51.051 24.1061C50.8293 23.4919 50.166 23.2355 49.5562 23.2324C49.1154 23.2302 48.6618 23.2298 48.1955 23.2309C48.0451 23.2313 47.9376 23.3535 47.9376 23.499C47.9388 24.8967 47.9387 26.3157 47.9373 27.7559C47.9373 27.8634 48.0058 27.9407 48.1168 27.9457L48.1412 27.9468H48.1418C48.1873 27.9492 48.238 27.9518 48.2788 27.9397C48.3853 27.9073 48.4387 27.8298 48.439 27.7071ZM48.4416 25.6464C48.4399 25.6447 48.439 25.6423 48.439 25.6399V23.6901L48.4391 23.6882L48.4394 23.6872L48.4397 23.6866C48.4401 23.6854 48.4408 23.6844 48.4416 23.6837L48.4422 23.6831L48.4429 23.6826C48.4434 23.6822 48.444 23.6819 48.4446 23.6817L48.4458 23.6812C48.4466 23.681 48.4473 23.6809 48.4481 23.681H49.6155C49.8831 23.681 50.1398 23.7762 50.3292 23.9456L50.3297 23.946C50.5191 24.1157 50.6256 24.3459 50.6256 24.586V24.7441C50.6256 24.9839 50.5194 25.2139 50.3303 25.3835L50.3297 25.384C50.1403 25.5537 49.8834 25.649 49.6155 25.649H48.4481C48.447 25.649 48.4459 25.6488 48.4448 25.6484L48.4434 25.6477L48.4416 25.6464Z" fill="#919EAB"/>
<path fill-rule="evenodd" clip-rule="evenodd" d="M59.7588 26.3928H57.7921C57.7785 26.3928 57.7693 26.3992 57.7643 26.4121C57.5964 26.8515 57.43 27.2883 57.2651 27.7225C57.1913 27.9171 57.0569 27.985 56.8618 27.9259C56.8021 27.9076 56.7509 27.8773 56.7083 27.8349C56.6956 27.8228 56.6926 27.8085 56.6992 27.7921C57.2919 26.2622 57.8639 24.7852 58.415 23.3609C58.454 23.2608 58.5439 23.2028 58.6497 23.1919C58.8376 23.1729 59.0828 23.16 59.1643 23.3708L60.8728 27.7826C60.8743 27.7864 60.8753 27.7904 60.8759 27.7944C60.8768 27.8007 60.8766 27.8072 60.8753 27.8135C60.874 27.8197 60.8716 27.8255 60.8683 27.8309C60.8661 27.8345 60.8635 27.8379 60.8605 27.8409C60.7347 27.9681 60.511 27.986 60.3862 27.8725C60.3424 27.8329 60.3004 27.7592 60.2601 27.6512C60.0997 27.2226 59.9437 26.8107 59.7922 26.4156C59.7863 26.4004 59.7752 26.3928 59.7588 26.3928ZM57.9495 25.9255C57.9487 25.9275 57.9485 25.9296 57.9488 25.9317C57.949 25.9338 57.9498 25.9358 57.951 25.9375C57.9522 25.9393 57.9538 25.9407 57.9557 25.9416C57.9576 25.9426 57.9597 25.9431 57.9618 25.9431L59.5923 25.9459C59.5944 25.9459 59.5965 25.9454 59.5983 25.9444L59.5994 25.9438C59.6008 25.9429 59.6021 25.9418 59.603 25.9403C59.6037 25.9394 59.6042 25.9385 59.6045 25.9375C59.6049 25.9366 59.6052 25.9355 59.6053 25.9345C59.6055 25.9329 59.6054 25.9313 59.605 25.9298L59.6046 25.9283L58.793 23.7934L58.7926 23.7925L58.7924 23.792C58.792 23.7912 58.7914 23.7904 58.7908 23.7897C58.7901 23.7888 58.7892 23.788 58.7882 23.7873L58.7873 23.7867L58.7865 23.7863C58.7858 23.786 58.785 23.7857 58.7841 23.7855L58.7823 23.7851L58.7809 23.7851C58.7783 23.7851 58.7757 23.7858 58.7735 23.7873C58.7714 23.7888 58.7697 23.7909 58.7688 23.7934L57.9495 25.9255Z" fill="#919EAB"/>
</svg>
