<svg width="90" height="38" viewBox="0 0 90 38" fill="none" xmlns="http://www.w3.org/2000/svg">
<g clip-path="url(#clip0_4132_7918)">
<path fill-rule="evenodd" clip-rule="evenodd" d="M41.5369 2.39254C40.2989 1.03027 38.7156 0.296563 36.7869 0.191406C35.9624 0.346752 34.9108 0.867758 33.6322 1.75442L32.883 1.65763C32.7181 1.63612 32.6476 1.70663 32.6715 1.86914C32.7025 2.07468 32.6081 2.18461 32.3882 2.19895C31.0188 2.29216 29.8716 4.07027 29.2837 5.11348C29.181 5.29512 29.2228 5.33694 29.4092 5.23895C29.5359 5.17442 29.6589 5.10751 29.7784 5.0382C29.972 4.93065 30.0437 4.98442 29.9935 5.19952C29.8167 5.9882 29.408 6.6287 28.7675 7.12103C28.1581 7.25008 27.5343 7.35644 26.8962 7.44008C26.4684 7.49744 26.2365 7.71971 26.2007 8.10688C26.1888 8.24788 26.1182 8.35065 25.9892 8.41518C25.1049 8.85971 24.3413 9.54442 23.6984 10.4693C23.6196 10.584 23.6482 10.6271 23.7845 10.5984C23.8299 10.5888 23.8729 10.596 23.9135 10.6199C24.0259 10.682 24.0629 10.7729 24.0247 10.8923C23.7402 11.7764 23.1779 11.8537 22.5832 11.9354C22.2036 11.9876 21.8108 12.0416 21.4686 12.3084C20.9596 12.7075 20.4517 13.1186 19.945 13.5416C19.7801 13.6802 19.8016 13.7184 20.0096 13.6563C20.3083 13.5631 20.6154 13.4579 20.9309 13.3408C20.9859 13.3217 21.0265 13.3384 21.0528 13.391C21.0791 13.4436 21.0671 13.4842 21.0169 13.5129C19.9008 14.1439 18.9042 14.9266 18.0271 15.861C17.9398 15.9553 17.8331 16.0277 17.7152 16.0725C17.536 16.1395 17.3962 16.2554 17.2958 16.4203C17.1882 16.5947 17.2217 16.627 17.3962 16.5171C17.5826 16.4 17.7869 16.3127 18.0092 16.2554C18.2267 16.2004 18.2506 16.2446 18.0809 16.388L15.5179 18.5602L15.5177 18.5602L13.4067 18.7645C14.4102 18.136 15.2322 17.5172 15.8726 16.9078C16.3147 16.4848 16.2789 16.4394 15.765 16.7716C15.0887 17.2066 14.343 17.6929 13.5281 18.2306C13.331 18.3597 13.2485 18.5281 13.2198 18.7466C13.2126 18.8064 13.1899 18.8649 13.1517 18.9223C13.1206 18.9653 13.0716 19.0035 13.0047 19.037C11.4453 19.8077 10.5562 21.1413 10.273 22.8513C10.2443 23.0186 10.1571 23.1441 10.0113 23.2277C9.42337 23.5695 8.95136 23.9722 8.59525 24.4359C8.38733 24.7083 8.41959 24.743 8.69205 24.5398C9.12941 24.2172 9.56915 23.8587 10.0113 23.4643C10.0276 23.4501 10.0477 23.4408 10.0691 23.4375C10.0905 23.4342 10.1124 23.437 10.1323 23.4456C10.1522 23.4542 10.1692 23.4683 10.1814 23.4862C10.1936 23.5041 10.2005 23.5251 10.2013 23.5468C10.2825 26.7015 11.8551 28.3792 14.919 28.58C16.3626 28.6756 17.7607 28.494 19.1134 28.0351C19.1875 28.0112 19.2173 27.961 19.203 27.8845L18.7871 25.7228C18.7752 25.6607 18.7393 25.638 18.6796 25.6547C17.052 26.1172 14.8868 26.576 13.7611 25.013C13.7394 24.983 13.7248 24.9483 13.7185 24.9118C13.7122 24.8752 13.7143 24.8377 13.7247 24.8021C13.7351 24.7665 13.7534 24.7337 13.7784 24.7063C13.8033 24.6789 13.8342 24.6575 13.8687 24.6438C13.9762 24.5984 14.0993 24.5721 14.2379 24.5649C14.3789 24.5577 14.398 24.6031 14.2953 24.7011C14.2044 24.7824 14.1781 24.8804 14.2164 24.9951C14.2244 25.0204 14.2386 25.0433 14.2578 25.0617C14.277 25.0801 14.3006 25.0934 14.3265 25.1005C14.3524 25.1076 14.3798 25.1083 14.4062 25.1024C14.4327 25.0965 14.4573 25.0843 14.4781 25.0668C14.8151 24.7752 15.2249 24.6318 15.7077 24.6366C16.9648 24.6462 18.2159 24.6486 19.4611 24.6438C19.5949 24.6438 19.6642 24.5769 19.669 24.443L19.7371 23.0342C19.7419 22.9266 19.7885 22.8418 19.877 22.7796L21.3109 21.8117C21.3372 21.7926 21.3492 21.7818 21.3468 21.7794L21.2966 21.7006C21.2894 21.6886 21.2798 21.6862 21.2679 21.6934C20.7827 21.942 20.3083 22.1845 19.8447 22.4211C19.7276 22.4809 19.6595 22.445 19.6404 22.3136C19.528 21.5608 19.2699 20.8904 18.866 20.3025C18.7871 20.1854 18.8087 20.0921 18.9305 20.0228L20.0383 19.3811C20.1434 19.319 20.1351 19.282 20.0132 19.27C19.92 19.2628 19.7587 19.3023 19.6834 19.3596C18.9425 19.9427 18.2292 19.8472 17.5433 19.073L21.4292 17.3774C21.6897 17.2627 21.7279 17.3129 21.5439 17.528L21.4435 17.6499C21.324 17.7885 21.3551 17.8734 21.5367 17.9044C21.6299 17.9212 21.7399 17.9188 21.8666 17.8973C22.0745 18.1625 22.1032 18.3812 21.9526 18.5533C21.9303 18.5801 21.9021 18.6018 21.8699 18.6166C21.8377 18.6315 21.8023 18.6392 21.7662 18.6393L20.9237 18.6465C20.7971 18.6465 20.7301 18.7098 20.723 18.8365L20.6405 20.2705C20.1793 20.464 19.8554 20.7198 19.669 21.0376C19.5806 21.1906 19.6116 21.2205 19.7622 21.1273L20.7015 20.5322C20.5222 21.0221 20.8795 21.2444 21.7733 21.199C21.912 21.1918 21.9813 21.2575 21.9813 21.3961C21.9717 22.5696 21.9633 23.6821 21.9562 24.7337C21.949 25.8844 22.1892 27.5156 23.2933 28.1142C24.462 28.7488 25.9283 28.634 27.226 28.419C27.3095 28.4046 27.3851 28.3614 27.4396 28.2971C27.494 28.2328 27.5238 28.1515 27.5235 28.0676V25.9956C27.5235 25.8785 27.465 25.8139 27.3479 25.802C27.169 25.7861 27.0035 25.8143 26.8423 25.8419C26.6027 25.8827 26.3725 25.922 26.1218 25.8127C25.6988 25.6263 25.4825 25.2989 25.473 24.8305C25.4467 23.7072 25.4383 22.5445 25.4479 21.3424C25.4503 21.2157 25.5148 21.1523 25.6415 21.1523H27.4303C27.5498 21.1523 27.6084 21.0938 27.606 20.9767L27.5988 19.5356C27.5977 19.4525 27.6196 19.3707 27.6619 19.2992C27.7043 19.2278 27.7656 19.1694 27.839 19.1305L28.7747 18.6393C28.7842 18.6346 28.7932 18.6297 28.7998 18.6258C28.8064 18.6218 28.8102 18.619 28.8105 18.6178L28.7567 18.539C28.7496 18.527 28.7388 18.5234 28.7245 18.5282C28.4688 18.6644 28.2262 18.7947 27.9967 18.919C27.8749 18.9835 27.7625 18.9715 27.6598 18.8831C27.5259 18.7708 27.4112 18.6286 27.3156 18.4565C27.8008 18.1817 28.2321 17.8996 28.6098 17.6105C28.8249 17.4432 28.8057 17.4097 28.5524 17.5101C28.0577 17.7061 27.5403 17.9881 27.0001 18.3561C26.57 18.5951 26.1183 18.6907 25.645 18.6429C25.516 18.6286 25.4538 18.5569 25.4586 18.4278L25.516 17.2018C26.4839 17.2783 27.3323 17.0548 28.0613 16.5314C28.2931 16.3641 28.6301 16.1681 29.0722 15.9435C29.4379 15.7595 29.7414 15.4906 29.9828 15.1369C30.7738 15.1895 31.3916 15.1022 31.8362 14.8752C32.1755 14.7031 32.4695 14.3613 32.7181 13.8499C32.785 13.7089 32.8889 13.6718 33.0299 13.7388C33.3144 13.8774 33.5892 14.0208 33.8545 14.169C34.6683 14.6206 35.3745 13.5631 35.6756 12.9859C35.8142 12.7111 36.0018 12.4948 36.2384 12.3371C36.3962 12.2367 36.4655 12.2785 36.4464 12.4625L36.4069 12.8461C36.3902 13.0015 36.4571 13.054 36.6077 13.0039L37.1741 12.8103C37.2936 12.7696 37.4167 12.7565 37.5433 12.7708C38.2173 12.8401 38.6762 12.5701 38.9199 11.9606C38.9292 11.9374 38.9428 11.9162 38.9601 11.8983C38.9773 11.8803 38.9979 11.8659 39.0205 11.8559C39.0431 11.8459 39.0674 11.8405 39.092 11.84C39.1166 11.8396 39.141 11.844 39.1637 11.8531C39.2474 11.8866 39.2808 11.9487 39.2641 12.0395C39.2259 12.2451 39.2832 12.2773 39.4362 12.1363C40.0217 11.5962 40.71 11.111 41.5011 10.6808C42.4738 9.43329 43.0103 8.08417 43.1107 6.63348C43.2183 5.08002 42.6937 3.66637 41.5369 2.39254ZM29.5956 9.82405C28.9623 9.89813 28.7149 9.71172 28.8535 9.2648C28.8966 9.29587 28.9396 9.32813 28.9826 9.36159C29.4893 8.80235 29.9768 8.35901 30.4452 8.03159C30.6436 7.89537 30.793 7.6504 30.8933 7.29669C31.0792 6.66429 31.6029 6.18603 32.0818 5.7487C32.1295 5.70508 32.1769 5.66187 32.2233 5.61895C32.362 5.49229 32.3393 5.40744 32.1552 5.36442C32.1218 5.35486 32.0931 5.33813 32.0692 5.31424C32.031 5.276 32.0142 5.22939 32.019 5.17442C32.0333 5.05493 32.0919 4.96291 32.1947 4.89839C32.3452 4.80279 32.4169 4.66537 32.4098 4.48612L32.399 4.2531C32.3942 4.12644 32.4396 4.02008 32.5352 3.93405C32.7694 3.72851 32.9786 3.51103 33.1626 3.28159C33.2845 3.13103 33.3394 3.15254 33.3275 3.34612C33.3251 3.38197 33.3454 3.40587 33.3884 3.41782C33.4291 3.42977 33.435 3.45008 33.4064 3.47876C32.7539 4.2077 32.4707 5.03461 32.5567 5.95952C32.4253 7.28832 32.6727 8.35681 33.2989 9.16461C33.5193 9.9281 33.9336 10.0397 34.3982 10.1648C34.7274 10.2535 35.0818 10.3489 35.4103 10.6878C34.7698 10.9005 34.1974 10.7932 33.6932 10.3654C33.6023 10.2865 33.496 10.2435 33.3741 10.2363L32.7288 10.1933C32.6093 10.1837 32.5042 10.1395 32.4133 10.0606C32.0525 9.73323 31.6354 9.51216 31.1622 9.39744C31.0479 9.36943 30.9275 9.37821 30.8181 9.42254C30.2421 9.66392 29.8346 9.79776 29.5956 9.82405ZM35.2192 2.04634C34.6816 2.27316 34.2442 2.45769 33.7828 2.93027C33.5725 2.88486 33.5952 2.77015 33.8509 2.58612C34.293 2.26826 34.7555 1.97669 35.2383 1.71141C35.8023 1.40071 36.395 1.29914 37.0164 1.40669C36.6985 1.37562 36.53 1.3635 36.5109 1.37067C36.0855 1.56904 36.1058 1.69451 36.5718 1.74709C36.9614 1.79011 37.2781 1.73394 37.5218 1.5786C37.6963 1.46866 37.7943 1.51765 37.8158 1.72558C37.8182 1.74948 37.8254 1.77099 37.8373 1.79011C37.897 1.92155 37.9974 1.99564 38.1384 2.01237C38.4706 2.053 38.8028 2.11036 39.135 2.18445C39.1828 2.1964 39.2199 2.22388 39.2462 2.2669C39.3442 2.43897 39.2952 2.52143 39.0992 2.51426C38.8411 2.50231 38.6033 2.5513 38.3858 2.66124C38.2352 2.74011 38.1695 2.86199 38.1886 3.0269C38.1969 3.09639 38.2291 3.16073 38.2796 3.20859C38.3301 3.25645 38.3956 3.28478 38.4647 3.2886C38.7586 3.30533 39.0406 3.36866 39.3107 3.4786C39.4445 3.53357 39.5425 3.62558 39.6047 3.75463L40.0349 4.65086C40.0646 4.71288 40.0734 4.78304 40.0598 4.85087C40.0463 4.9187 40.0111 4.98058 39.9596 5.02728L39.6799 5.27463C39.5007 5.43476 39.3585 5.40728 39.2533 5.19218L39.0633 4.80143C39.0181 4.70876 38.9508 4.62882 38.8676 4.56875C38.7844 4.50869 38.6878 4.47038 38.5865 4.45728C38.4288 4.43816 38.2723 4.44294 38.1169 4.47162C37.9162 4.50985 37.8361 4.62935 37.8767 4.83011C37.9365 5.12646 38.0285 5.36904 38.1528 5.55784C38.2197 5.65822 38.3117 5.71677 38.4288 5.7335C38.675 5.76696 38.816 5.89033 38.8518 6.10304C38.8542 6.15322 38.8363 6.19624 38.7981 6.23209C38.7901 6.23989 38.7802 6.24586 38.7691 6.24957C38.7579 6.25329 38.7458 6.25466 38.7335 6.2536C37.7035 6.07914 37.3306 5.53423 37.615 4.61888C37.6557 4.49461 37.7417 4.43247 37.8732 4.43247L38.8124 4.43964C38.9056 4.43964 38.9462 4.39423 38.9343 4.30341L38.9235 4.19228C38.9182 4.14561 38.8983 4.10192 38.8667 4.0677C38.835 4.03348 38.7934 4.01054 38.7479 4.00228C38.3846 3.93536 38.0273 3.93536 37.676 4.00228C37.578 4.0214 37.4932 4.06681 37.4215 4.13851C36.8574 4.70492 36.0341 5.05385 34.9515 5.1853C34.7101 5.21398 34.6683 5.13631 34.826 4.95228C34.9362 4.82367 35.0587 4.74743 35.1761 4.67437C35.3565 4.5621 35.5249 4.45732 35.6183 4.18153C35.6493 4.0931 35.7091 4.03574 35.7975 4.00945C35.9313 3.97121 35.9971 3.88278 35.9947 3.74417C35.9923 3.63423 35.9373 3.56492 35.8298 3.53624C35.5167 3.45977 35.3936 3.26379 35.4605 2.94832C35.5346 2.59461 35.7258 2.30901 36.0341 2.09153C36.2372 1.95052 36.2181 1.85612 35.9767 1.80832C35.8788 1.7892 35.7867 1.79876 35.7007 1.837C35.5307 1.91493 35.3713 1.98218 35.2199 2.04604L35.2192 2.04634ZM39.1028 6.61926C39.0789 6.89171 38.9188 7.00404 38.6224 6.95624C38.4725 6.93055 38.3674 6.86651 38.262 6.80229C38.1909 6.75897 38.1197 6.71556 38.0345 6.68379C37.903 6.63599 37.7776 6.64794 37.6581 6.71964C37.5529 6.78417 37.4418 6.81285 37.3247 6.80568C37.186 6.79851 37.1072 6.72681 37.0881 6.59058L36.9124 5.46851C36.8885 5.31555 36.7989 5.24505 36.6435 5.257C36.2994 5.28568 36.0855 5.41354 36.0018 5.64058C35.8871 5.95127 35.7449 6.23448 35.5752 6.49021C35.5179 6.57624 35.5047 6.66945 35.5358 6.76983C35.6983 7.30039 36.0401 7.57046 36.5611 7.58002C36.5984 7.58108 36.6346 7.59271 36.6656 7.61355C36.6966 7.63439 36.721 7.6636 36.736 7.69777C36.751 7.73193 36.756 7.76966 36.7504 7.80657C36.7449 7.84347 36.7289 7.87804 36.7045 7.90624L35.9696 8.75587C35.9082 8.82588 35.8225 8.86995 35.7294 8.87926C35.6364 8.88856 35.5429 8.86242 35.4677 8.80605C35.2526 8.64354 35.0076 8.56109 34.7328 8.5587C34.5607 8.5587 34.4926 8.64234 34.5284 8.80964C34.5667 8.97932 34.6527 9.11436 34.7866 9.21473C34.9037 9.30077 35.0901 9.33065 35.3458 9.30436C35.9456 9.24462 36.3339 9.32225 36.5108 9.53725C36.6948 9.68543 36.9602 9.65658 37.3067 9.45105C37.4334 9.37457 37.4872 9.26344 37.4681 9.11765L37.4143 8.66237C37.3928 8.4879 37.4645 8.3708 37.6294 8.31105C37.9998 8.18199 38.2974 7.9657 38.522 7.66218C38.6224 7.52835 38.755 7.45426 38.9199 7.43992C39.1661 7.41602 39.3465 7.28218 39.4613 7.03841C39.5091 6.93564 39.4995 6.84124 39.4326 6.7552C39.3657 6.67155 39.2557 6.62643 39.1028 6.61926ZM37.278 2.78317C36.9984 3.34003 36.5814 3.42129 36.0269 3.02695C35.9699 2.98612 35.9259 2.92948 35.9004 2.86407C35.875 2.79866 35.8691 2.72735 35.8836 2.659C35.8982 2.59065 35.9324 2.52827 35.9821 2.47961C36.0318 2.43094 36.0947 2.39813 36.1631 2.38525C36.5097 2.31833 36.8395 2.34343 37.1526 2.46053C37.3127 2.52267 37.3545 2.63022 37.278 2.78317ZM28.4558 4.16364L25.286 6.00106C25.2415 6.02687 25.2263 6.0839 25.2522 6.12844L25.2737 6.16566C25.2995 6.21019 25.3566 6.22537 25.4011 6.19955L28.5708 4.36213C28.6154 4.33631 28.6305 4.27928 28.6047 4.23475L28.5831 4.19753C28.5573 4.15299 28.5003 4.13782 28.4558 4.16364ZM25.0071 7.33487L22.1469 9.15703C22.0918 9.19213 22.0756 9.26526 22.1107 9.32037L22.1261 9.34455C22.1612 9.39966 22.2343 9.41587 22.2894 9.38077L25.1496 7.55861C25.2047 7.52351 25.2209 7.45038 25.1858 7.39527L25.1704 7.37109C25.1353 7.31598 25.0622 7.29977 25.0071 7.33487ZM17.9335 12.8532L23.6339 9.15126C23.6787 9.12215 23.7387 9.13489 23.7678 9.17972L23.799 9.22783C23.8281 9.27266 23.8154 9.33261 23.7706 9.36172L18.0701 13.0636C18.0253 13.0927 17.9654 13.08 17.9363 13.0352L17.905 12.9871C17.8759 12.9422 17.8886 12.8823 17.9335 12.8532ZM14.937 16.0429C14.9356 16.0437 14.9342 16.0444 14.9326 16.0449C14.9313 16.0453 14.93 16.0456 14.9286 16.0458C14.9269 16.046 14.9253 16.046 14.9236 16.0458C14.9205 16.0455 14.9176 16.0445 14.9149 16.0429C14.9123 16.0413 14.91 16.0392 14.9082 16.0367L14.8258 15.9076C14.7987 15.8607 15.1295 15.5823 15.7457 15.1334C16.362 14.6845 17.2133 14.1017 18.1132 13.5129L18.2422 13.4269C18.6895 13.1342 19.1353 12.8488 19.5541 12.587C19.9729 12.3252 20.3565 12.0923 20.6829 11.9014C21.0093 11.7106 21.272 11.5657 21.4561 11.4749C21.6401 11.3842 21.7418 11.3495 21.7554 11.3727L21.8379 11.5018C21.8406 11.5066 21.8413 11.5122 21.84 11.5175C21.8387 11.5229 21.8353 11.5275 21.8307 11.5305L14.9405 16.0403C14.9394 16.0413 14.9383 16.0421 14.937 16.0429ZM17.7182 15.3453C18.1558 15.0214 18.4772 14.7137 18.436 14.658C18.3948 14.6023 18.0066 14.8197 17.5689 15.1436C17.1312 15.4674 16.8098 15.7751 16.8511 15.8308C16.8923 15.8865 17.2805 15.6691 17.7182 15.3453ZM4.85618 23.4717C4.86693 25.6513 3.65165 26.2679 1.40033 25.5796C1.35731 25.5653 1.33102 25.5808 1.32146 25.6262C1.05618 26.9956 0.935484 27.8644 0.959384 28.2324C0.961774 28.2492 0.970139 28.2587 0.984478 28.2611C2.43517 28.6555 3.89781 28.6853 5.3724 28.3507C6.96052 27.9887 7.72051 26.9311 8.16146 25.4398C8.25945 25.1076 8.30963 24.773 8.31202 24.436C8.35504 20.6838 8.36102 17.4682 8.32995 14.789C8.32995 14.7317 8.30007 14.703 8.24033 14.703L4.9458 14.6994C4.92108 14.6994 4.89737 14.7092 4.87989 14.7267C4.86241 14.7442 4.85259 14.7679 4.85259 14.7926C4.84542 17.8517 4.84662 20.7448 4.85618 23.4717ZM35.4103 23.3927H37.2028C37.382 23.3927 37.4716 23.4823 37.4716 23.6616V25.3823C37.4716 25.6906 37.3187 25.8556 37.0128 25.8771C34.3169 26.0683 32.7252 24.9629 32.2377 22.561C32.0369 21.5788 32.2078 20.5702 32.7503 19.5354C33.6322 17.8505 35.6577 17.1407 37.4501 17.4776C38.1456 17.6067 38.822 17.7955 39.4792 18.044C39.5168 18.058 39.557 18.064 39.597 18.0617C39.637 18.0593 39.676 18.0487 39.7115 18.0304C39.747 18.0122 39.7781 17.9867 39.803 17.9557C39.8278 17.9247 39.8457 17.8889 39.8556 17.8505L40.4399 15.6242C40.483 15.4641 40.4268 15.353 40.2715 15.2908C39.9679 15.1761 39.6632 15.0841 39.3573 15.0148C37.431 14.5846 35.5155 14.599 33.6107 15.0578C32.6834 15.2825 31.786 15.7079 30.9184 16.334C30.1298 16.9052 29.5693 17.6139 29.2371 18.4599C27.563 22.7223 28.6707 27.4078 33.6788 28.3757C35.8178 28.7868 38.1408 28.6339 40.6479 27.9169C40.7937 27.8739 40.8665 27.7771 40.8665 27.6265V21.0123C40.8665 20.8666 40.7937 20.7937 40.6479 20.7937H35.4103C35.3866 20.7937 35.3638 20.8031 35.3469 20.8199C35.3301 20.8367 35.3207 20.8595 35.3207 20.8833V23.3031C35.3231 23.3629 35.353 23.3927 35.4103 23.3927ZM15.9013 21.4676C15.7388 21.6038 15.5559 21.7113 15.3528 21.7902C15.2248 21.84 15.1069 21.9129 15.0051 22.0053C14.7231 22.2658 14.3765 22.4056 13.9654 22.4247C13.7097 22.4367 13.632 22.3255 13.7324 22.0913C14.208 21.0015 14.9202 20.6992 15.869 21.1843C16.022 21.2632 16.0327 21.3576 15.9013 21.4676ZM15.3851 22.3028C15.4161 22.2503 15.4532 22.2443 15.4962 22.2849C15.5201 22.3064 15.544 22.3064 15.5679 22.2849L15.9336 21.9408C16.0459 21.8332 16.1558 21.8368 16.2634 21.9515C16.3327 22.0232 16.3769 22.1176 16.396 22.2347C16.4175 22.3662 16.3626 22.4307 16.2311 22.4283L15.4568 22.4247C15.3659 22.4223 15.342 22.3817 15.3851 22.3028ZM47.8428 21.8656C48.0842 21.8561 48.1284 21.7569 47.9755 21.5681C47.8082 21.3673 47.6146 21.2084 47.3947 21.0913C47.0594 20.9144 46.676 20.8503 46.3013 20.9085C45.4601 21.0351 44.7036 21.2646 44.0321 21.5968C43.9912 21.6164 43.9466 21.6271 43.9013 21.628C43.8561 21.6289 43.8112 21.62 43.7699 21.6019C43.7286 21.5838 43.6919 21.557 43.6623 21.5233C43.6326 21.4896 43.6108 21.4498 43.5983 21.4068L43.1251 19.8043C43.0981 19.7116 43.1071 19.612 43.1503 19.5256C43.1935 19.4393 43.2677 19.3723 43.3581 19.3383C45.2892 18.6213 47.1235 18.4576 48.8609 18.8471C51.1194 19.349 51.7253 21.1917 51.6392 23.2566C51.5723 24.8865 51.5986 26.5977 51.7181 28.3902C51.7277 28.5192 51.6667 28.5837 51.5353 28.5837L48.6709 28.5873C48.5538 28.5873 48.4845 28.5288 48.463 28.4117L48.4057 28.0532C48.3818 27.9169 48.3124 27.8859 48.1977 27.96C46.9287 28.7845 44.6451 28.9422 43.376 27.8166C41.9994 26.5941 42.1249 24.4575 43.3689 23.2566C44.5017 22.1596 46.2941 21.9266 47.8428 21.8656ZM48.1475 24.3679C48.1404 24.3034 48.1547 24.1886 48.1834 24.1313C48.1878 24.1237 48.1901 24.1151 48.1901 24.1063C48.1901 24.0975 48.1879 24.0889 48.1835 24.0813C48.1791 24.0737 48.1729 24.0673 48.1653 24.0629C48.1605 24.06 48.1552 24.0581 48.1497 24.057C48.1467 24.0564 48.1435 24.056 48.1404 24.056C47.139 24.001 46.4208 24.2914 45.9858 24.9271C45.8687 25.1016 45.8472 25.2856 45.9213 25.4792C46.1173 26.0074 46.4483 26.2273 46.9143 26.1388C47.8273 25.9691 48.2384 25.3788 48.1475 24.3679ZM66.8356 18.9116C65.1866 18.3141 63.7442 18.583 62.5086 19.7182C62.382 19.8329 62.2684 19.8234 62.1681 19.6895C61.1607 18.3273 58.3107 18.3093 57.1133 19.3274C57.0321 19.3968 56.9449 19.4553 56.8516 19.5031C56.6915 19.5891 56.6162 19.5413 56.6258 19.3597L56.6545 18.8291C56.6593 18.7049 56.6007 18.6427 56.4788 18.6427H53.7722C53.6455 18.6427 53.5822 18.7061 53.5822 18.8327L53.6145 28.4582C53.6145 28.5442 53.6575 28.5873 53.7435 28.5873L56.9305 28.5837C56.9736 28.5837 57.015 28.5668 57.0459 28.5366C57.0767 28.5065 57.0945 28.4655 57.0954 28.4223C57.0978 26.6275 57.0966 24.8171 57.0918 22.9912C57.0894 22.4463 57.3105 21.991 57.755 21.6254C58.7696 20.7865 59.5905 22.0054 59.5977 22.9088C59.612 24.7012 59.6144 26.5594 59.6049 28.4833C59.6049 28.5526 59.6383 28.5873 59.7052 28.5873H63.0141C63.0667 28.5873 63.093 28.561 63.093 28.5084C63.1001 26.7135 63.0966 24.8972 63.0822 23.0593C63.075 22.4571 63.3224 21.8835 63.792 21.5071C63.9219 21.4042 64.0837 21.3501 64.2494 21.354C64.415 21.3579 64.5741 21.4197 64.699 21.5286C65.1125 21.8871 65.3216 22.3519 65.3264 22.9231C65.3479 24.7992 65.3527 26.6538 65.3407 28.4869C65.3407 28.5538 65.373 28.5873 65.4375 28.5873H68.7499C68.8025 28.5873 68.8288 28.5598 68.8288 28.5048C68.8336 26.6359 68.8312 24.6929 68.8216 22.6757C68.8181 21.2239 68.3162 19.4493 66.8356 18.9116ZM74.1309 24.6405C73.9397 24.6405 73.8836 24.7277 73.9624 24.9022C74.1058 25.2224 74.3233 25.4734 74.6149 25.655C75.0307 25.9179 75.4848 26.0565 75.9772 26.0709C76.9355 26.0972 77.9166 25.955 78.9204 25.6443C78.9281 25.6415 78.9364 25.6405 78.9446 25.6413C78.9528 25.642 78.9607 25.6445 78.9678 25.6486C78.9719 25.6509 78.9756 25.6537 78.979 25.6569C78.9815 25.6593 78.9839 25.662 78.9859 25.6649C78.9907 25.6716 78.9941 25.6792 78.9956 25.6873C79.1653 26.4234 79.3063 27.1714 79.4187 27.9314C79.423 27.9583 79.417 27.986 79.4018 28.0091C79.3866 28.0322 79.3633 28.0492 79.3362 28.0569C75.3856 29.2256 70.46 28.9065 70.4636 23.5686C70.4636 21.2671 71.9119 19.1735 74.2672 18.7612C78.1962 18.0694 80.426 20.5788 79.8811 24.4577C79.8644 24.5819 79.7939 24.6441 79.6696 24.6441L74.1309 24.6405ZM74.07 22.4286L76.4934 22.4143C76.5172 22.4143 76.5399 22.4048 76.5568 22.388C76.5736 22.3712 76.583 22.3484 76.583 22.3246V22.2601C76.5821 22.092 76.5476 21.9258 76.4815 21.7709C76.4154 21.6159 76.319 21.4754 76.1979 21.3572C76.0767 21.239 75.9331 21.1456 75.7753 21.0821C75.6175 21.0187 75.4485 20.9865 75.2781 20.9875H75.2709C74.9268 20.9894 74.5974 21.1261 74.3554 21.3674C74.1134 21.6088 73.9785 21.935 73.9804 22.2744V22.339C73.9804 22.3627 73.9898 22.3855 74.0066 22.4023C74.0234 22.4192 74.0462 22.4286 74.07 22.4286ZM86.0436 22.3532C85.6158 22.2337 85.219 22.0604 84.8534 21.8334C84.7856 21.791 84.7311 21.7303 84.6961 21.6584C84.6611 21.5865 84.6472 21.5062 84.6558 21.4271C84.6644 21.3479 84.6953 21.2729 84.7449 21.211C84.7945 21.149 84.8607 21.1025 84.9358 21.0769C85.6839 20.8164 86.4941 20.918 87.3664 21.3817C87.7201 21.5681 87.9495 21.4677 88.0547 21.0805L88.4454 19.6143C88.5243 19.3132 88.4144 19.1208 88.1156 19.0371C86.1726 18.4815 82.6594 18.2843 81.6019 20.3384C80.8012 21.8919 81.149 23.1538 82.6451 24.1241C83.0753 24.4045 83.557 24.5635 84.0416 24.7235C84.4615 24.8621 84.8836 25.0014 85.2764 25.2211C85.3398 25.256 85.3933 25.3062 85.4321 25.3673C85.4709 25.4283 85.4937 25.4982 85.4983 25.5704C85.503 25.6426 85.4894 25.7148 85.4587 25.7803C85.4281 25.8458 85.3814 25.9025 85.323 25.9452C84.4268 26.6013 82.8817 25.9811 81.9604 25.5652C81.6879 25.441 81.5158 25.5246 81.4441 25.8162L81.0139 27.5334C80.9422 27.8201 81.0462 28.0078 81.3258 28.0962C83.9894 28.9351 89.356 29.1358 88.8685 24.8913C88.7071 23.4645 87.3019 22.7081 86.0436 22.3532ZM31.9423 37.663C31.6646 37.645 31.3936 37.5665 31.1448 37.4318C30.8959 37.2971 30.674 37.1089 30.4918 36.8779C30.3096 36.647 30.1706 36.3778 30.0828 36.0858C29.995 35.7937 29.9601 35.4846 29.98 35.1759C30 34.8672 30.0744 34.5651 30.1991 34.2868C30.3238 34.0086 30.4963 33.7595 30.7067 33.554C30.9172 33.3484 31.1615 33.1904 31.4256 33.0888C31.6898 32.9873 31.9686 32.9443 32.2463 32.9623C32.5239 32.9802 32.7949 33.0588 33.0438 33.1935C33.2927 33.3282 33.5146 33.5164 33.6968 33.7473C33.879 33.9783 34.018 34.2475 34.1058 34.5395C34.1936 34.8315 34.2285 35.1407 34.2086 35.4494C34.1886 35.758 34.1141 36.0601 33.9894 36.3384C33.8648 36.6167 33.6923 36.8657 33.4818 37.0713C33.2714 37.2768 33.0271 37.4349 32.7629 37.5364C32.4988 37.6379 32.2199 37.681 31.9423 37.663ZM32.0879 37.1517C32.2795 37.1523 32.4694 37.1054 32.6467 37.0136C32.8241 36.9218 32.9854 36.7869 33.1215 36.6166C33.2575 36.4463 33.3657 36.244 33.4398 36.0211C33.5139 35.7982 33.5525 35.5592 33.5533 35.3177C33.5542 35.0762 33.5173 34.8369 33.4447 34.6135C33.3722 34.3902 33.2654 34.1871 33.1305 34.0158C32.9956 33.8446 32.8353 33.7085 32.6586 33.6155C32.4819 33.5225 32.2923 33.4742 32.1007 33.4736C31.9091 33.4729 31.7192 33.5198 31.5419 33.6116C31.3645 33.7034 31.2032 33.8383 31.0671 34.0086C30.931 34.1789 30.8228 34.3813 30.7487 34.6041C30.6746 34.827 30.6361 35.066 30.6352 35.3075C30.6344 35.549 30.6713 35.7883 30.7438 36.0117C30.8164 36.2351 30.9231 36.4382 31.058 36.6094C31.1929 36.7807 31.3533 36.9167 31.53 37.0097C31.7067 37.1028 31.8963 37.151 32.0879 37.1517ZM37.8373 37.4242C37.725 36.7311 37.4896 36.1348 37.1311 35.6353C37.0905 35.5804 37.0976 35.5326 37.1526 35.4919C37.664 35.1191 37.8576 34.6232 37.7334 34.0042C37.5039 32.8534 36.0377 32.8893 35.163 33.0399C35.0315 33.0614 34.9658 33.139 34.9658 33.2729L34.9622 37.4636C34.9622 37.5855 35.022 37.6453 35.1415 37.6429L35.4785 37.6357C35.5788 37.6357 35.6278 37.5855 35.6254 37.4851L35.5967 36.0512C35.5967 35.9388 35.6517 35.8731 35.7617 35.854C36.579 35.7034 37.0224 36.1492 37.0917 37.1912C37.0988 37.2986 37.1415 37.4005 37.2131 37.4804C37.2846 37.5604 37.3807 37.6138 37.486 37.6321C37.5314 37.6417 37.5768 37.6488 37.6222 37.6536C37.7943 37.6775 37.866 37.601 37.8373 37.4242ZM35.6039 35.1657L35.6111 33.66C35.6111 33.6182 35.6277 33.5781 35.6573 33.5485C35.6869 33.5189 35.727 33.5023 35.7688 33.5023L36.2384 33.5059C36.4713 33.5069 36.6943 33.5917 36.8584 33.7416C37.0224 33.8915 37.1141 34.0943 37.1132 34.3053V34.5348C37.1127 34.6393 37.0896 34.7427 37.045 34.8391C37.0004 34.9355 36.9354 35.023 36.8535 35.0965C36.7716 35.1701 36.6745 35.2283 36.5677 35.2679C36.461 35.3074 36.3466 35.3275 36.2313 35.327L35.7617 35.3234C35.7198 35.3234 35.6797 35.3068 35.6501 35.2772C35.6205 35.2477 35.6039 35.2075 35.6039 35.1657ZM38.7761 32.9857L38.3818 32.9864C38.3125 32.9865 38.2564 33.0428 38.2565 33.1121L38.2642 37.5072C38.2643 37.5765 38.3206 37.6326 38.3899 37.6324L38.7842 37.6318C38.8535 37.6316 38.9096 37.5754 38.9095 37.5061L38.9018 33.111C38.9017 33.0417 38.8454 32.9856 38.7761 32.9857ZM41.6768 35.5601C41.7819 35.8637 42.0496 35.9497 42.4798 35.8182C42.5109 35.8087 42.53 35.8194 42.5371 35.8505C42.6136 36.1325 42.6232 36.4898 42.5658 36.9224C42.5618 36.9592 42.545 36.9935 42.5183 37.0196C42.4915 37.0457 42.4564 37.062 42.4188 37.0658C40.9227 37.2331 40.2165 36.6416 40.3002 35.2913C40.391 33.8525 41.2179 33.3088 42.7809 33.6601C42.8222 33.6692 42.8654 33.6625 42.9019 33.6412C42.9384 33.62 42.9656 33.5858 42.9781 33.5454L43.0426 33.3447C43.0489 33.3244 43.0511 33.3031 43.0493 33.282C43.0474 33.2609 43.0415 33.2404 43.0318 33.2218C43.0222 33.2031 43.009 33.1866 42.993 33.1733C42.977 33.1599 42.9585 33.1499 42.9387 33.1439C41.8584 32.8093 40.9837 32.9826 40.3145 33.6637C39.4147 34.5779 39.3538 36.3847 40.3934 37.1805C41.0315 37.6704 41.899 37.7637 42.996 37.4601C43.137 37.4219 43.2075 37.3299 43.2075 37.1841V35.5386C43.2051 35.3904 43.1311 35.3176 42.9853 35.3199L41.8381 35.3343C41.8111 35.3346 41.7845 35.3413 41.7605 35.3538C41.7366 35.3664 41.7159 35.3843 41.7002 35.4063C41.6845 35.4283 41.6742 35.4537 41.6701 35.4804C41.666 35.5072 41.6683 35.5345 41.6768 35.5601ZM44.5165 32.9865L44.1221 32.9858C44.0508 32.9857 43.993 33.0434 43.9928 33.1146L43.9852 37.5026C43.9851 37.5738 44.0427 37.6317 44.114 37.6318L44.5084 37.6325C44.5796 37.6327 44.6375 37.575 44.6376 37.5037L44.6453 33.1158C44.6454 33.0445 44.5877 32.9866 44.5165 32.9865ZM46.079 37.5068L46.0611 34.2409C46.0587 34.0736 46.1005 34.0617 46.1866 34.2051L48.1188 37.4673C48.169 37.5534 48.2419 37.6083 48.3375 37.6322C48.4403 37.6585 48.5442 37.6609 48.6494 37.6394C48.7832 37.6107 48.8502 37.5295 48.8502 37.3956V33.1618C48.8502 33.0447 48.7916 32.9862 48.6745 32.9862L48.3985 32.9826C48.2742 32.9826 48.2132 33.0447 48.2156 33.169L48.2515 36.2915C48.2539 36.4946 48.2049 36.5066 48.1045 36.3273C47.5381 35.3212 46.9167 34.2684 46.2403 33.169C46.1902 33.0878 46.1232 33.0328 46.0396 33.0041C45.8962 32.9587 45.7564 32.9575 45.6202 33.0005C45.5078 33.0364 45.4517 33.114 45.4517 33.2335L45.4553 37.4601C45.4553 37.5725 45.5114 37.6298 45.6237 37.6322L45.9428 37.643C46.036 37.643 46.0814 37.5976 46.079 37.5068ZM50.5566 36.5746L50.2304 37.4278C50.1825 37.5545 50.0905 37.6214 49.9543 37.6286L49.732 37.6429C49.7082 37.6447 49.6844 37.6406 49.6626 37.6308C49.6407 37.6211 49.6216 37.606 49.6068 37.587C49.592 37.5679 49.5819 37.5454 49.5775 37.5214C49.5731 37.4975 49.5745 37.4727 49.5815 37.4493L50.9653 33.1833C50.9963 33.0829 51.062 33.0208 51.1624 32.9969C51.2891 32.9682 51.4158 32.9646 51.5424 32.9861C51.6834 33.0076 51.7754 33.0865 51.8185 33.2227L53.1843 37.4529C53.2249 37.5748 53.1807 37.6369 53.0517 37.6393L52.7828 37.6429C52.6466 37.6453 52.5546 37.582 52.5068 37.4529L52.1877 36.5746C52.1399 36.4431 52.0467 36.3774 51.9081 36.3774L50.8398 36.381C50.7012 36.381 50.6068 36.4455 50.5566 36.5746ZM51.9188 35.6891L51.4636 34.0616C51.4062 33.856 51.3476 33.8548 51.2879 34.058L50.8362 35.6031C50.7884 35.768 50.8505 35.8504 51.0226 35.8504H51.797C51.9069 35.8504 51.9475 35.7967 51.9188 35.6891ZM56.0379 37.0907L54.439 37.0871C54.4239 37.0871 54.409 37.0842 54.3951 37.0784C54.3812 37.0727 54.3685 37.0642 54.3579 37.0536C54.3472 37.0429 54.3388 37.0303 54.333 37.0163C54.3273 37.0024 54.3243 36.9875 54.3243 36.9724L54.3207 33.0971C54.3207 33.0667 54.3086 33.0375 54.2871 33.016C54.2656 32.9945 54.2364 32.9824 54.206 32.9824L53.7865 32.986C53.7561 32.986 53.7269 32.9981 53.7054 33.0196C53.6839 33.0411 53.6718 33.0703 53.6718 33.1007V37.5281C53.6718 37.5585 53.6839 37.5877 53.7054 37.6092C53.7269 37.6307 53.7561 37.6428 53.7865 37.6428L56.0415 37.6392C56.0568 37.6392 56.072 37.6362 56.0862 37.6302C56.1004 37.6242 56.1132 37.6154 56.1239 37.6044C56.1346 37.5933 56.1429 37.5803 56.1485 37.5659C56.154 37.5516 56.1566 37.5363 56.1562 37.5209L56.1526 37.2019C56.1516 37.1721 56.1392 37.1438 56.1177 37.1231C56.0963 37.1023 56.0677 37.0907 56.0379 37.0907ZM57.9164 34.8217C58.4075 35.0367 59.0277 35.3128 59.2177 35.8505C59.777 37.4315 58.0383 37.9047 56.8517 37.4064C56.7967 37.3849 56.7752 37.3442 56.7871 37.2845L56.8481 36.9332C56.8493 36.925 56.8516 36.9171 56.855 36.9096C56.8576 36.9035 56.8609 36.8977 56.8649 36.8923C56.8736 36.8803 56.8852 36.8705 56.8985 36.8638C56.9119 36.8571 56.9267 36.8538 56.9416 36.854C56.9565 36.8542 56.9712 36.858 56.9843 36.865C57.4754 37.1196 58.3609 37.3418 58.6262 36.6571C58.7 36.4699 58.6987 36.2614 58.6225 36.075C58.5464 35.8887 58.4013 35.7389 58.2175 35.6569C57.9307 35.5255 57.6607 35.3725 57.4073 35.1981C55.8945 34.1584 57.5436 32.5022 59.017 33.1726C59.1293 33.2228 59.1615 33.3052 59.1137 33.42L59.0707 33.5132C59.0086 33.6542 58.9058 33.696 58.7624 33.6386C58.5497 33.555 58.3275 33.5155 58.0956 33.5203C57.3571 33.5383 57.2711 34.5384 57.9164 34.8217Z" fill="#00AB55"/>
</g>
<defs>
<clipPath id="clip0_4132_7918">
<rect width="88.1887" height="38" fill="white" transform="translate(0.90564 0.000976562)"/>
</clipPath>
</defs>
</svg>
