<svg width="98" height="32" viewBox="0 0 98 32" fill="none" xmlns="http://www.w3.org/2000/svg">
<g clip-path="url(#clip0_4052_8023)">
<path d="M9.70105 1.12305L9.70598 3.85634C9.13359 3.622 8.52247 3.50188 7.87262 3.49597C7.85687 3.4835 7.83652 3.47201 7.81158 3.46151C7.74856 3.43591 7.75053 3.4172 7.81748 3.40539C7.82142 3.40473 7.82536 3.40506 7.8293 3.40637C7.86606 3.42212 7.88542 3.40932 7.88739 3.36797C7.90774 2.89076 7.91529 2.40699 7.91004 1.91665L9.70105 1.12305Z" fill="#00AB55"/>
<path d="M30.7787 5.56749L30.9707 6.41525C30.758 6.37652 30.6182 6.42936 30.5513 6.57377C30.4955 6.69389 30.4377 6.77627 30.378 6.82091C30.3399 6.84914 30.3232 6.88688 30.3278 6.93414C30.3323 6.98534 30.312 7.01586 30.2667 7.02571C30.2424 7.03162 30.2303 7.04704 30.2303 7.07199V7.1222C30.2303 7.15305 30.2191 7.17931 30.1968 7.20097L30.0619 7.33193C30.037 7.35621 30.0281 7.38542 30.0353 7.41956C30.0432 7.455 30.0314 7.48093 29.9999 7.49734C29.9671 7.51375 29.9474 7.53968 29.9408 7.57513C29.9218 7.68015 29.8617 7.7622 29.7606 7.82128C29.7429 7.83178 29.7347 7.84721 29.736 7.86756C29.7367 7.87675 29.7376 7.88626 29.739 7.89611C29.7442 7.93024 29.7344 7.95945 29.7094 7.98374L29.5686 8.1206C29.547 8.14161 29.5394 8.16721 29.546 8.1974C29.5558 8.24401 29.5381 8.27584 29.4928 8.29291C29.4665 8.30276 29.4524 8.32179 29.4505 8.35002C29.4426 8.45439 29.3848 8.53709 29.2772 8.59814C29.2636 8.60609 29.2531 8.61823 29.2472 8.63266C29.2414 8.64709 29.2405 8.663 29.2447 8.67789C29.2591 8.72778 29.2437 8.76454 29.1984 8.78817C29.1695 8.80261 29.1531 8.82624 29.1492 8.85906C29.136 8.95949 29.0776 9.03958 28.9739 9.09931C28.9562 9.11047 28.9477 9.12655 28.9483 9.14756C28.949 9.15609 28.95 9.16462 28.9513 9.17316C28.9539 9.20335 28.945 9.22994 28.9247 9.25291L28.7858 9.40356C28.7622 9.42916 28.7514 9.45968 28.7534 9.49513C28.756 9.54173 28.7337 9.57357 28.6864 9.59063C28.6582 9.60179 28.6378 9.62116 28.6254 9.64873C28.5906 9.72618 28.5449 9.79543 28.4885 9.85648C28.4744 9.87151 28.4643 9.88998 28.4593 9.91014C28.4543 9.93029 28.4546 9.95148 28.4599 9.97168C28.4698 10.0111 28.458 10.0393 28.4245 10.0564C28.3917 10.0741 28.372 10.101 28.3654 10.1371C28.3457 10.2388 28.2866 10.3199 28.1882 10.3803C28.1711 10.3908 28.1623 10.4062 28.1616 10.4266C28.1609 10.4364 28.1613 10.4466 28.1626 10.4571C28.1678 10.4912 28.158 10.5204 28.133 10.5447L27.9942 10.6796C27.9699 10.7032 27.9611 10.7318 27.9676 10.7653C27.9749 10.802 27.9621 10.8293 27.9292 10.847C27.8977 10.8641 27.8787 10.8903 27.8721 10.9258C27.8531 11.0282 27.794 11.1089 27.6949 11.168C27.6772 11.1785 27.6686 11.1939 27.6693 11.2143C27.6693 11.2248 27.67 11.2349 27.6713 11.2448C27.6752 11.2796 27.6647 11.3091 27.6398 11.3334L27.5029 11.4663C27.4786 11.49 27.4694 11.5185 27.4753 11.552C27.4832 11.5927 27.4684 11.6219 27.431 11.6396C27.3943 11.6567 27.3782 11.6852 27.3828 11.7253C27.3887 11.7883 27.3628 11.8293 27.305 11.8484C27.2689 11.8602 27.2489 11.8851 27.2449 11.9232C27.2318 12.0564 27.2439 12.1936 27.2814 12.3348C27.2367 12.2698 27.217 12.1956 27.2223 12.1122C27.2351 11.9153 27.1376 11.81 27.1248 11.6308C27.1097 11.4214 27.0752 11.1962 27.0214 10.9553C27.0011 10.8614 26.9453 10.786 26.854 10.7288C26.6945 10.6284 26.5518 10.5775 26.4257 10.5762C26.2511 10.5749 26.0778 10.6317 25.9058 10.7466C25.7332 10.8102 25.5806 10.8995 25.448 11.0144C25.3062 11.0505 25.1894 11.1181 25.0975 11.2172C24.875 11.3524 24.7168 11.5392 24.6229 11.7775C24.6065 11.8201 24.619 11.8323 24.6603 11.8139L24.7007 11.7962C24.5638 11.9793 24.4545 12.1349 24.4112 12.3722C24.3193 12.8724 24.2297 13.3607 24.1424 13.8373L23.2316 18.5437C23.2073 18.5254 23.189 18.4991 23.1765 18.465C23.1647 18.4335 23.145 18.4269 23.1174 18.4453C23.1076 18.4525 23.1026 18.461 23.1026 18.4709C23.1059 18.5247 23.0849 18.5641 23.0396 18.589C22.993 18.614 22.9779 18.6524 22.9943 18.7042C23.0101 18.7522 22.9934 18.7814 22.9441 18.7919C22.8995 18.8017 22.8824 18.8296 22.8929 18.8756C22.9008 18.9103 22.8916 18.9399 22.8654 18.9642L22.7167 19.105C22.7042 19.1168 22.698 19.1312 22.698 19.1483V19.2064C22.698 19.2241 22.6917 19.2389 22.6793 19.2507L22.5286 19.3935C22.505 19.4158 22.4968 19.4427 22.504 19.4742C22.5132 19.5188 22.4968 19.5497 22.4548 19.5668C22.4279 19.5773 22.4131 19.5966 22.4105 19.6248C22.4019 19.7279 22.3455 19.81 22.2411 19.871C22.2083 19.89 22.1968 19.9179 22.2066 19.9547C22.2185 20.0013 22.204 20.0361 22.1633 20.0591C22.1325 20.0761 22.1144 20.1021 22.1092 20.1368C22.0934 20.2353 22.035 20.3147 21.9339 20.3751C21.9162 20.3856 21.9077 20.4011 21.9083 20.4214C21.909 20.4312 21.91 20.4408 21.9113 20.45C21.9165 20.4847 21.9067 20.514 21.8817 20.5376L21.7419 20.6735C21.7183 20.6971 21.7097 20.725 21.7163 20.7572C21.7248 20.8005 21.7084 20.83 21.6671 20.8458C21.6402 20.8563 21.6254 20.876 21.6228 20.9048C21.6142 21.0086 21.5571 21.0909 21.4514 21.152C21.4193 21.1704 21.4085 21.1979 21.419 21.2347C21.4327 21.2833 21.4173 21.3181 21.3727 21.3391C21.3464 21.3509 21.331 21.3712 21.3264 21.4001C21.3093 21.511 21.248 21.597 21.1423 21.6581C21.1292 21.6653 21.1226 21.6765 21.1226 21.6916V21.7428C21.1226 21.7743 21.1114 21.8008 21.0891 21.8225L20.9503 21.9574C20.9339 21.9732 20.9257 21.9925 20.9257 22.0155V22.0578C20.9257 22.0933 20.9096 22.1186 20.8774 22.1336C20.8282 22.1566 20.8032 22.1973 20.8026 22.2557C20.8019 22.2866 20.7872 22.3076 20.7583 22.3188C20.7077 22.3378 20.6677 22.3696 20.6382 22.4143C20.4255 22.732 20.2105 23.0431 19.9932 23.3477C19.9223 23.4468 19.8301 23.4908 19.7166 23.4796C19.6857 23.477 19.668 23.4908 19.6634 23.521L19.5866 24.0143C19.5767 23.7812 19.5761 23.2518 19.5846 22.4261C19.5997 20.999 19.623 19.5717 19.6545 18.144C19.6663 17.5992 19.6883 17.058 19.7205 16.5204C19.7481 16.0642 19.7595 15.521 19.755 14.8908C19.751 14.2082 19.7835 13.6748 19.8524 13.2908C19.9128 12.9574 20.0047 12.6078 20.1281 12.2422C20.1675 12.1254 20.2177 12.0115 20.2788 11.9005C20.3378 11.7929 20.4032 11.6846 20.4747 11.5756C20.816 11.0505 21.2421 10.6465 21.7527 10.3636C24.1526 9.03104 26.7172 7.59285 29.4465 6.04897C29.5791 5.97348 29.7186 5.88815 29.865 5.79297C30.1545 5.60393 30.459 5.52877 30.7787 5.56749Z" fill="#00AB55"/>
<path fill-rule="evenodd" clip-rule="evenodd" d="M13.0251 0.000976562H13.6041C14.2447 0.103377 14.8792 0.237941 15.5073 0.404669C16.3462 0.627848 16.769 0.740423 16.7755 0.742392C17.3637 0.890084 17.9505 1.04303 18.536 1.20122L18.536 1.20126L22.6724 2.26957C22.4604 2.60369 22.4072 3.01755 22.5129 3.51117C22.5201 3.54662 22.5414 3.56008 22.5769 3.55154C22.6681 3.52922 22.764 3.5243 22.8644 3.53677C23.1598 3.57222 23.4433 3.56369 23.7151 3.51117C23.7517 3.50477 23.789 3.50923 23.8224 3.52397C23.9452 3.57714 24.0666 3.59125 24.1867 3.56631C24.3062 3.54268 24.4125 3.57616 24.5057 3.66674C24.5235 3.68381 24.5438 3.6884 24.5668 3.68053C24.6823 3.64049 24.7864 3.66346 24.8789 3.74945C24.9032 3.77242 24.9321 3.78654 24.9656 3.79179C25.1612 3.82395 25.3482 3.89156 25.5268 3.99462C25.5951 4.034 25.6512 4.08291 25.6952 4.14133C25.7411 4.20303 25.7962 4.25948 25.8606 4.31068C25.9302 4.36713 25.9453 4.43868 25.9059 4.52533C25.5895 4.19056 25.1645 3.96245 24.6308 3.84102C23.5306 3.59093 22.482 3.64672 21.4849 4.0084C21.1334 4.13542 20.3792 4.53616 20.6411 4.99597C20.7068 5.11019 20.8026 5.21259 20.9286 5.30317C21.9083 6.01406 23.4876 6.01702 24.6367 5.76003C24.7148 6.09283 24.7286 6.44697 24.6781 6.82243C24.6551 6.99441 24.6531 7.20512 24.6721 7.45456C24.6733 7.46938 24.6701 7.48428 24.6627 7.49741C24.6554 7.51053 24.6443 7.52131 24.6308 7.5284C23.574 8.07322 22.5155 8.62494 21.4554 9.18354C20.5194 9.67585 19.5318 10.0247 18.4927 10.2302L18.4927 10.2301C18.0221 10.3234 17.5376 10.3578 17.0394 10.3335C16.6692 10.3158 16.2081 10.2265 15.656 10.0657C14.716 9.79199 13.7797 9.51236 12.8469 9.22682L12.6401 9.15495L12.6401 9.15493L9.57132 8.2396C9.57092 8.2395 9.57052 8.2394 9.57011 8.23929L8.80703 8.00791L6.76889 7.39942L6.76888 7.39941L6.06686 7.18576L5.17676 6.90514C5.20039 6.46207 5.20565 6.0226 5.19252 5.58674C5.18858 5.45809 5.26374 5.40229 5.41799 5.41936C5.8952 5.67798 6.39768 5.83651 6.92543 5.89493C6.92543 5.89493 6.92543 5.89492 6.92543 5.89492C7.94943 5.95991 8.74205 5.95498 9.69122 5.60348C9.71784 6.11976 9.73145 6.63077 9.73201 7.13651C9.73145 6.63075 9.71785 6.11973 9.69122 5.60343C9.98136 5.48921 10.236 5.29951 10.4553 5.03432C10.4999 4.93126 10.515 4.79998 10.5006 4.64047C10.4067 4.30833 10.1419 4.04708 9.70599 3.85672L9.70107 1.12343C10.3929 0.784062 11.136 0.484083 11.9302 0.223488C12.1153 0.163098 12.3477 0.109601 12.6273 0.0630073L13.0251 0.000976562ZM9.7247 7.82275C9.7247 7.82277 9.7247 7.82278 9.7247 7.8228L9.72666 7.98231C9.72667 7.98283 9.72668 7.98335 9.72669 7.98388C9.72668 7.98334 9.72668 7.9828 9.72667 7.98226L9.7247 7.82275ZM18.5725 1.35285C18.5633 1.36467 18.5521 1.36926 18.539 1.36664C18.5189 1.36269 18.5048 1.3661 18.4968 1.37685C18.5048 1.36612 18.5189 1.36274 18.539 1.36668C18.5521 1.36931 18.5633 1.36471 18.5725 1.3529C18.5759 1.34793 18.5786 1.34307 18.5805 1.33832C18.5786 1.34306 18.5759 1.3479 18.5725 1.35285ZM12.6795 5.05598C12.6667 5.06162 12.6589 5.07047 12.6561 5.08252C12.6589 5.07048 12.6667 5.06163 12.6795 5.05599C12.6908 5.05064 12.6978 5.04016 12.7005 5.02456C12.6978 5.04015 12.6908 5.05063 12.6795 5.05598ZM12.78 4.57845C12.7281 4.73796 12.7337 4.88729 12.7967 5.02645C12.9857 5.28639 13.3044 5.49973 13.7528 5.66645C14.5592 5.96676 15.4197 5.96085 16.2862 5.89784C17.0955 5.83942 17.7546 5.54863 18.2633 5.02547C18.2941 4.83905 18.2682 4.64639 18.1855 4.4475C18.0207 4.16524 17.7454 3.9565 17.3594 3.82128C16.3466 3.46748 15.315 3.40578 14.2648 3.63618C13.9871 3.69722 13.6957 3.80159 13.3904 3.94928C13.0773 4.10091 12.8738 4.31064 12.78 4.57845ZM7.91005 1.91703C7.91531 2.40737 7.90776 2.89115 7.88741 3.36836C7.88544 3.40971 7.86608 3.42251 7.82932 3.40676C7.82538 3.40544 7.82144 3.40512 7.8175 3.40577C7.75055 3.41759 7.74858 3.4363 7.81159 3.4619C7.83654 3.4724 7.85689 3.48389 7.87264 3.49636C7.05049 3.46387 6.10427 3.61747 5.39141 4.04577L5.39138 4.04577C5.09864 4.24203 4.94111 4.48424 4.91879 4.7724L5.01824 5.01067C5.09438 5.14195 5.22763 5.27816 5.41799 5.41929C5.26373 5.40222 5.18857 5.45802 5.19251 5.58667C5.20564 6.02253 5.20039 6.462 5.17676 6.90507L2.26427 6.04649C2.22029 6.03402 2.20256 6.04977 2.2111 6.09375C2.23538 6.22175 2.1878 6.32579 2.06833 6.40587C2.04142 6.42425 2.02566 6.44985 2.02107 6.48267C2.01582 6.52074 2.00302 6.55553 1.98267 6.58704C1.95641 6.6284 1.96659 6.65629 2.01319 6.67073L5.7183 7.81289L6.87916 8.1772C6.86406 8.35902 6.80827 8.44337 6.71177 8.43024C6.69632 8.42813 6.68061 8.42981 6.66602 8.43513C6.65143 8.44045 6.63841 8.44925 6.62808 8.46076C6.56704 8.52772 6.51223 8.60518 6.46365 8.69313C6.4479 8.72136 6.42525 8.74335 6.39571 8.7591C6.2513 8.83656 6.14037 8.94848 6.06291 9.09486C6.05142 9.11723 6.0328 9.13552 6.00974 9.14704C5.95461 9.17461 5.90538 9.21564 5.86205 9.27012C5.84499 9.29047 5.83711 9.31377 5.83842 9.34003C5.83908 9.37153 5.82529 9.39976 5.79707 9.4247C5.6054 9.59274 5.39567 9.81264 5.1679 10.0844C5.11407 10.1487 5.0422 10.2022 4.95227 10.2449C4.91657 10.2618 4.88502 10.2859 4.85971 10.3158C4.77898 10.4116 4.75928 10.4782 4.80064 10.5157C4.39694 10.3968 3.98964 10.2725 3.57873 10.1425C3.27547 10.0467 3.03358 10.0647 2.85307 10.1966C2.51356 10.4454 2.54748 10.8483 2.58455 11.2886C2.59135 11.3693 2.59825 11.4512 2.60297 11.5337C2.45922 11.8108 2.27969 12.0461 2.06439 12.2397C2.05192 12.2509 2.04568 12.265 2.04568 12.2821V12.3313C2.04568 12.3477 2.03977 12.3618 2.02796 12.3736L0.470298 13.9382C0.455857 13.9526 0.448636 13.97 0.448636 13.9904C0.447323 14.0678 0.411221 14.0983 0.340329 14.0819L0.0646362 9.1943V8.0039C0.161129 7.08033 0.530359 6.25982 1.17233 5.54237C1.66857 4.98704 2.20683 4.55808 2.7871 4.25547C3.57479 3.84325 4.37889 3.46614 5.19941 3.12415L5.19942 3.12417L7.91005 1.91703ZM5.28499 3.32903C5.28166 3.3459 5.27282 3.36196 5.25848 3.3772C5.25116 3.38483 5.24747 3.39247 5.2474 3.40011C5.24748 3.39248 5.25117 3.38485 5.25849 3.37722C5.27283 3.36197 5.28166 3.34591 5.28499 3.32903ZM5.28956 3.49574C5.28952 3.50451 5.28835 3.51357 5.28605 3.52292C5.27883 3.55311 5.26472 3.56559 5.24371 3.56033C5.22074 3.55443 5.20695 3.56296 5.20236 3.58593C5.19446 3.62285 5.1887 3.65756 5.1851 3.69008C5.1887 3.65757 5.19446 3.62286 5.20236 3.58596C5.20696 3.56298 5.22074 3.55445 5.24372 3.56036C5.26472 3.56561 5.27883 3.55314 5.28605 3.52294C5.28835 3.51359 5.28952 3.50452 5.28956 3.49574ZM12.6352 4.6454C12.632 4.64745 12.6292 4.64957 12.6267 4.65175C12.6292 4.64957 12.632 4.64746 12.6352 4.64541C12.6539 4.63343 12.6691 4.62009 12.6808 4.60541C12.6691 4.62009 12.6539 4.63342 12.6352 4.6454Z" fill="#00AB55"/>
<path fill-rule="evenodd" clip-rule="evenodd" d="M28.2148 3.69427C26.3762 3.21903 24.5287 2.74412 22.6724 2.26953C22.4603 2.60364 22.4072 3.01751 22.5129 3.51113C22.5201 3.54658 22.5414 3.56003 22.5769 3.5515C22.6681 3.52918 22.7639 3.52426 22.8644 3.53673C23.1598 3.57218 23.4433 3.56364 23.7151 3.51113C23.7517 3.50473 23.789 3.50919 23.8224 3.52393C23.9451 3.5771 24.0666 3.59121 24.1867 3.56627C24.3062 3.54264 24.4125 3.57612 24.5057 3.6667C24.5234 3.68377 24.5438 3.68836 24.5668 3.68048C24.6823 3.64044 24.7863 3.66342 24.8789 3.74941C24.9032 3.77238 24.9321 3.7865 24.9655 3.79175C25.1611 3.82391 25.3482 3.89152 25.5268 3.99458C25.595 4.03396 25.6512 4.08286 25.6951 4.14128C25.7411 4.20299 25.7962 4.25944 25.8606 4.31064C25.9301 4.36709 25.9452 4.43864 25.9058 4.52529C26.0187 4.67757 26.0296 4.83445 25.9383 4.99593C25.832 5.17973 25.6754 5.32742 25.4687 5.43901C25.1884 5.58998 24.9111 5.69698 24.6367 5.75999C24.7148 6.09279 24.7286 6.44693 24.678 6.82239C24.6551 6.99437 24.6531 7.20508 24.6721 7.45452C24.6733 7.46934 24.67 7.48424 24.6627 7.49736C24.6553 7.51049 24.6442 7.52127 24.6308 7.52836C23.5739 8.07318 22.5155 8.6249 21.4554 9.1835C20.5193 9.67581 19.5318 10.0247 18.4927 10.2301C18.022 10.3234 17.5376 10.3578 17.0394 10.3335C16.6692 10.3158 16.208 10.2265 15.656 10.0657C14.716 9.79199 13.7797 9.51236 12.8469 9.22682L12.8469 9.22685L12.6401 9.15497L9.57009 8.23928L8.80701 8.0079C8.77813 8.11358 8.72299 8.20022 8.6416 8.26783C8.62781 8.27899 8.62026 8.29311 8.61895 8.31017C8.6187 8.31213 8.61851 8.3141 8.61835 8.31609C8.61851 8.31408 8.61871 8.31209 8.61895 8.31011C8.62027 8.29305 8.62782 8.27894 8.6416 8.26778C8.723 8.20017 8.77813 8.11352 8.80702 8.00784L6.76886 7.39935L6.06683 7.18568C6.08499 7.23229 6.09178 7.27234 6.08719 7.30584C6.09176 7.27236 6.08497 7.23233 6.06682 7.18575L5.17673 6.90513L2.26424 6.04655C2.22026 6.03408 2.20254 6.04983 2.21107 6.09381C2.23536 6.22181 2.18777 6.32585 2.0683 6.40593C2.04139 6.42431 2.02563 6.44991 2.02104 6.48273C2.01579 6.52081 2.00299 6.55559 1.98264 6.5871C1.95638 6.62846 1.96656 6.65635 2.01316 6.67079L5.71827 7.81295L5.71832 7.8129L6.87914 8.17719L8.3856 8.65473L8.59532 8.41645C8.60989 8.40038 8.61792 8.38219 8.61942 8.36189C8.61793 8.38221 8.6099 8.40042 8.59532 8.41651L8.3856 8.65479L8.87003 8.80346L11.8278 9.74673L12.4245 9.92691C12.4245 9.9269 12.4245 9.9269 12.4245 9.92689L14.8279 10.69C14.9385 10.724 15.0519 10.7581 15.1668 10.7925C15.7189 10.958 16.3029 11.1331 16.7479 11.3703C17.5192 11.7806 18.0939 12.3671 18.472 13.1298C18.6794 13.5473 18.7858 13.9382 18.791 14.3025C18.8127 15.6633 18.8104 17.2774 18.7841 19.1449C18.7835 19.1961 18.7579 19.2187 18.7073 19.2128C18.6555 19.2069 18.623 19.2299 18.6098 19.2817C18.601 19.3171 18.5792 19.3478 18.5488 19.3674C18.3703 19.4796 18.2216 19.6119 18.1028 19.7642C18.0378 19.8482 17.9715 19.9299 17.9039 20.0093C17.722 20.2233 17.5379 20.4419 17.3515 20.6651L17.3438 20.673L17.3358 20.6818C16.8868 21.1466 16.4187 21.629 15.9317 22.1292C15.7801 22.2848 15.6202 22.4318 15.4522 22.5703C15.1194 22.8447 14.8014 23.149 14.4981 23.4831C14.481 23.5008 14.4728 23.5221 14.4735 23.5471C14.4735 23.5556 14.4745 23.5641 14.4764 23.5727C14.4791 23.5805 14.4774 23.5874 14.4715 23.5933C14.3855 23.6813 14.3028 23.7722 14.2234 23.8661C14.2188 23.872 14.1817 23.9058 14.1121 23.9675C14.0498 24.0226 14.0169 24.1017 14.0137 24.2048C14.6589 25.4927 15.3061 26.7805 15.9553 28.0684C16.0105 28.1787 16.0433 28.2886 16.0538 28.3983C16.0607 28.4681 16.0395 28.5378 15.995 28.5921C15.9505 28.6464 15.8863 28.6808 15.8165 28.6877C15.6931 28.6996 15.5566 28.6789 15.4069 28.6257C14.2424 28.2115 13.309 27.8689 12.6066 27.5978C11.849 27.3056 11.5964 26.7864 11.2818 26.1396L11.2817 26.1396C11.2496 26.0736 11.2169 26.0063 11.1829 25.9377C10.923 26.2626 10.7119 26.5026 10.5498 26.6575C10.5111 26.6936 10.4907 26.7323 10.4887 26.7737C10.4868 26.8065 10.474 26.8347 10.4503 26.8583L8.84935 28.4603C8.82572 28.4839 8.81555 28.5128 8.81883 28.5469C8.82211 28.5811 8.80636 28.606 8.77157 28.6218C8.74728 28.6336 8.72726 28.6507 8.71151 28.673C8.6288 28.7898 8.50408 28.8358 8.33735 28.8108C10.8311 29.7029 13.3241 30.5966 15.8165 31.4919C15.9314 31.5339 16.1772 31.6055 16.554 31.7066C16.724 31.6468 16.8904 31.5999 17.0532 31.5658C17.2901 31.5165 17.4555 31.4709 17.5494 31.4289C18.4789 31.0095 18.853 30.1302 18.8393 29.1357C18.8255 28.1971 18.8251 27.2066 18.8383 26.1642C18.8389 26.132 18.8547 26.1123 18.8855 26.1051C18.9755 26.0834 19.0372 26.0257 19.0706 25.9318C19.1074 25.8301 19.1678 25.7493 19.2518 25.6896C19.2735 25.6738 19.2833 25.6525 19.2814 25.6256C19.2807 25.6125 19.2735 25.6069 19.2597 25.6089C19.258 25.6091 19.2563 25.6092 19.2546 25.6092C19.2524 25.6091 19.2503 25.6087 19.2482 25.6081C19.2444 25.6069 19.241 25.6049 19.2382 25.6023C19.2353 25.5996 19.2331 25.5964 19.2317 25.5927C19.2303 25.5891 19.2298 25.5852 19.2302 25.5813C19.2334 25.5294 19.2597 25.493 19.3089 25.472C19.3273 25.4641 19.3339 25.4503 19.3286 25.4306C19.3129 25.3722 19.3296 25.3282 19.3788 25.2987C19.4084 25.281 19.4218 25.2551 19.4192 25.2209C19.3949 24.9045 19.4497 24.6344 19.5836 24.4106L19.5866 24.0138C19.5767 23.7808 19.5761 23.2514 19.5846 22.4256C19.5997 20.9986 19.623 19.5712 19.6545 18.1435C19.6663 17.5987 19.6883 17.0575 19.7205 16.5199C19.7481 16.0637 19.7595 15.5205 19.755 14.8903C19.751 14.2077 19.7835 13.6743 19.8524 13.2903C19.9128 12.9569 20.0047 12.6073 20.1281 12.2417C20.1675 12.1249 20.2177 12.011 20.2788 11.9001C20.3378 11.7924 20.4032 11.6841 20.4747 11.5751C20.816 11.05 21.2421 10.646 21.7527 10.3631C24.1526 9.03056 26.7172 7.59236 29.4465 6.04848C29.5791 5.973 29.7186 5.88766 29.865 5.79248C30.1545 5.60344 30.459 5.52828 30.7787 5.56701C30.629 5.02416 30.3235 4.61587 29.862 4.34215C29.4176 4.07958 28.8686 3.86362 28.2148 3.69427ZM12.6867 9.52043C12.6864 9.51747 12.6859 9.51445 12.6854 9.51138C12.6854 9.51138 12.6854 9.51139 12.6854 9.5114C12.6859 9.51447 12.6864 9.51748 12.6867 9.52043ZM5.98412 7.49682C5.98412 7.50013 5.98397 7.50337 5.98368 7.50656C5.98397 7.50339 5.98411 7.50017 5.98411 7.49689V7.46735C5.98411 7.46291 5.98438 7.45862 5.98492 7.45449C5.98439 7.4586 5.98412 7.46286 5.98412 7.46728V7.49682Z" fill="#00AB55"/>
<path d="M6.87914 8.17676L8.3856 8.6543L8.87003 8.80297C8.74925 9.02943 8.59073 9.21881 8.39446 9.3711C8.3787 9.38291 8.37083 9.39834 8.37083 9.41737C8.37083 9.42656 8.37116 9.43575 8.37181 9.44494C8.37378 9.47973 8.36229 9.5096 8.33735 9.53454C7.89362 9.97828 7.45021 10.4223 7.00714 10.8667C6.94872 10.9251 6.89128 10.998 6.83483 11.0853C6.76656 11.189 6.70748 11.2625 6.6576 11.3059C6.60508 11.3518 6.54995 11.3439 6.49218 11.2822C6.28673 11.0722 6.1072 10.9439 5.9536 10.8972C5.57091 10.7798 5.18658 10.6524 4.80061 10.5152C4.75926 10.4778 4.77895 10.4112 4.85969 10.3153C4.88499 10.2855 4.91655 10.2613 4.95224 10.2445C5.04217 10.2018 5.11405 10.1483 5.16787 10.084C5.39565 9.8122 5.60537 9.59231 5.79704 9.42427C5.82527 9.39932 5.83905 9.3711 5.8384 9.33959C5.83708 9.31333 5.84496 9.29003 5.86203 9.26968C5.90535 9.2152 5.95458 9.17417 6.00972 9.1466C6.03277 9.13508 6.0514 9.1168 6.06289 9.09442C6.14035 8.94804 6.25128 8.83612 6.39569 8.75867C6.42523 8.74291 6.44787 8.72092 6.46363 8.6927C6.5122 8.60474 6.56701 8.52728 6.62806 8.46033C6.63838 8.44881 6.65141 8.44001 6.666 8.43469C6.68059 8.42937 6.6963 8.42769 6.71175 8.4298C6.80824 8.44293 6.86404 8.35858 6.87914 8.17676Z" fill="#00AB55"/>
<path d="M8.87002 8.80371L11.8278 9.74697C11.8265 9.76666 11.8301 9.77914 11.8386 9.78439C11.8452 9.78767 11.8455 9.79161 11.8396 9.7962C11.8311 9.80408 11.8212 9.80933 11.8101 9.81196C11.791 9.8159 11.7746 9.82443 11.7609 9.83756L11.2223 10.3702C11.2105 10.382 11.2045 10.3965 11.2045 10.4136V10.4618C11.2045 10.4828 11.1963 10.5005 11.1799 10.515C11.1281 10.5603 11.0798 10.6088 11.0352 10.6607C11.0181 10.681 10.9965 10.6929 10.9702 10.6961C10.9157 10.704 10.8809 10.7349 10.8658 10.7887C10.8586 10.8163 10.8409 10.8304 10.8127 10.831C10.7838 10.8323 10.7697 10.8478 10.7703 10.8773C10.7716 10.9036 10.7588 10.9187 10.7319 10.9226C10.6919 10.9279 10.6696 10.9508 10.665 10.9915C10.6624 11.0145 10.6492 11.026 10.6256 11.026C10.5915 11.026 10.5741 11.0424 10.5734 11.0752C10.5728 11.1028 10.559 11.1179 10.5321 11.1205C10.4992 11.1244 10.4795 11.1422 10.473 11.1737C10.4677 11.2019 10.4549 11.2262 10.4346 11.2465C10.1786 11.4993 9.91569 11.7628 9.6459 12.0372C9.62096 12.0621 9.6075 12.092 9.60553 12.1268C9.60356 12.1596 9.59076 12.1878 9.56713 12.2115L8.82769 12.9499C8.80537 12.9729 8.77846 12.988 8.74695 12.9952C8.71872 13.0011 8.7033 13.0188 8.70067 13.0484C8.69804 13.0812 8.68492 13.1091 8.66129 13.1321C8.46305 13.3238 8.26744 13.5203 8.07445 13.7219C8.06592 13.7304 8.06001 13.7406 8.05673 13.7524C8.05411 13.7655 8.05279 13.7786 8.05279 13.7918C8.05148 13.8233 8.04098 13.8515 8.02129 13.8764C7.83158 14.1088 7.62284 14.3458 7.39507 14.5873C7.33599 14.6497 7.27232 14.7012 7.20406 14.7419C7.1161 14.7944 7.0777 14.8748 7.08885 14.9832C7.09017 14.993 7.09181 14.993 7.09378 14.9832C7.10953 14.9037 7.09673 14.8391 7.05538 14.7892C7.02978 13.9647 7.00746 13.138 6.98842 12.3089C6.97989 11.9302 6.80988 11.6069 6.47839 11.3391C6.50728 11.3345 6.51187 11.3158 6.49218 11.283C6.54994 11.3447 6.60508 11.3526 6.65759 11.3066C6.70748 11.2633 6.76656 11.1898 6.83482 11.086C6.89128 10.9987 6.94871 10.9259 7.00713 10.8675C7.45021 10.4231 7.89361 9.97901 8.33735 9.53528C8.36229 9.51034 8.37378 9.48047 8.37181 9.44568C8.37115 9.43649 8.37082 9.4273 8.37082 9.41811C8.37082 9.39907 8.3787 9.38365 8.39445 9.37183C8.59072 9.21955 8.74924 9.03017 8.87002 8.80371Z" fill="#00AB55"/>
<path d="M11.8279 9.74707L12.4245 9.92725L14.828 10.6903L14.0787 11.4455C14.0669 11.4573 14.0596 11.4715 14.057 11.4879C14.0557 11.4964 14.0557 11.5053 14.057 11.5145C14.061 11.5479 14.0511 11.5768 14.0275 11.6011L12.7357 12.8929C12.6963 12.9323 12.7045 12.9517 12.7603 12.951C12.7819 12.9504 12.8033 12.95 12.8243 12.95C12.8545 12.95 12.8784 12.9622 12.8962 12.9865C12.9001 12.9917 12.9014 12.9976 12.9001 13.0042C12.8883 13.0495 12.9083 13.0744 12.9602 13.079C13.1289 13.0921 13.2063 13.143 13.1925 13.2316C12.758 13.0912 12.3271 12.9622 11.8997 12.8447C11.6043 12.7629 11.2203 12.7029 11.0589 12.9412C10.0611 14.4082 9.03023 15.8517 7.96619 17.2715C7.83031 17.4537 7.75647 17.6811 7.68853 17.8967C7.67934 17.9243 7.6882 17.944 7.71511 17.9558C7.73415 17.9643 7.75909 17.962 7.78994 17.9489L7.6964 18.3684C7.67146 18.4609 7.66719 18.5554 7.6836 18.6519C7.68951 18.7064 7.70034 18.7481 7.7161 18.777L7.85099 19.1472L7.78404 19.0989C7.74334 19.0701 7.71019 19.077 7.68459 19.1196C7.67474 19.136 7.65932 19.1423 7.63831 19.1383C7.62881 19.1364 7.61894 19.1381 7.61059 19.143C7.60223 19.1479 7.59598 19.1557 7.59302 19.1649C7.58514 19.1918 7.58744 19.2046 7.59991 19.2033C7.63011 19.2007 7.63798 19.2132 7.62354 19.2407C7.56118 19.3569 7.51852 19.4829 7.49554 19.6188C7.48964 19.6536 7.47421 19.6838 7.44927 19.7094C7.39741 19.7639 7.38363 19.824 7.40791 19.8896C7.41841 19.9172 7.41809 19.9447 7.40693 19.9723C7.37083 20.0563 7.30354 20.1387 7.20508 20.2194L7.05542 14.7893C7.09677 14.8392 7.10957 14.9038 7.09382 14.9833C7.09185 14.9931 7.09021 14.9931 7.0889 14.9833C7.07774 14.8749 7.11614 14.7945 7.2041 14.742C7.27236 14.7013 7.33604 14.6498 7.39511 14.5874C7.62289 14.3459 7.83162 14.1089 8.02133 13.8765C8.04102 13.8516 8.05152 13.8234 8.05284 13.7919C8.05284 13.7787 8.05415 13.7656 8.05677 13.7525C8.06006 13.7407 8.06596 13.7305 8.0745 13.722C8.26748 13.5204 8.46309 13.3238 8.66133 13.1322C8.68496 13.1092 8.69809 13.0813 8.70071 13.0485C8.70334 13.0189 8.71876 13.0012 8.74699 12.9953C8.7785 12.9881 8.80541 12.973 8.82773 12.95L9.56717 12.2116C9.5908 12.1879 9.6036 12.1597 9.60557 12.1269C9.60754 12.0921 9.621 12.0622 9.64594 12.0373C9.91573 11.7629 10.1786 11.4994 10.4346 11.2466C10.455 11.2263 10.4678 11.202 10.473 11.1738C10.4796 11.1423 10.4993 11.1245 10.5321 11.1206C10.559 11.118 10.5728 11.1029 10.5735 11.0753C10.5741 11.0425 10.5915 11.0261 10.6256 11.0261C10.6493 11.0261 10.6624 11.0146 10.665 10.9916C10.6696 10.9509 10.6919 10.928 10.732 10.9227C10.7589 10.9188 10.7717 10.9037 10.7704 10.8774C10.7697 10.8479 10.7838 10.8324 10.8127 10.8311C10.8409 10.8305 10.8587 10.8164 10.8659 10.7888C10.881 10.735 10.9158 10.7041 10.9703 10.6962C10.9965 10.693 11.0182 10.6811 11.0352 10.6608C11.0799 10.6089 11.1281 10.5604 11.18 10.5151C11.1964 10.5006 11.2046 10.4829 11.2046 10.4619V10.4137C11.2046 10.3966 11.2105 10.3821 11.2223 10.3703L11.7609 9.83765C11.7747 9.82453 11.7911 9.81599 11.8101 9.81205C11.8213 9.80943 11.8311 9.80418 11.8397 9.7963C11.8456 9.79171 11.8452 9.78777 11.8387 9.78449C11.8301 9.77923 11.8265 9.76676 11.8279 9.74707Z" fill="#00AB55"/>
<path d="M14.8279 10.6904C15.4699 10.8883 16.2103 11.0843 16.7479 11.3708C17.5192 11.7811 18.0939 12.3676 18.472 13.1303L16.6554 14.9075C16.6455 14.9167 16.6403 14.9279 16.6396 14.941C16.639 14.9502 16.6387 14.9597 16.6387 14.9696C16.6387 15.005 16.6262 15.0352 16.6012 15.0602L15.8756 15.7878C15.8526 15.8108 15.8411 15.8383 15.8411 15.8705V15.9522C15.8411 16.0008 15.8181 16.0172 15.7722 16.0014C15.7545 15.9949 15.7364 15.9936 15.718 15.9975C15.6885 16.0034 15.6626 16.0165 15.6403 16.0369C15.4387 16.2213 15.2556 16.4114 15.0908 16.607C15.0757 16.6247 15.0662 16.6447 15.0623 16.667C15.0551 16.7051 15.0377 16.7383 15.0101 16.7665C14.5381 17.2444 14.077 17.7068 13.6267 18.1538C13.6005 18.1801 13.5775 18.209 13.5578 18.2405C13.5374 18.272 13.5168 18.3045 13.4958 18.3379C13.4656 18.3865 13.4304 18.4305 13.3904 18.4699C12.9723 18.8874 12.5551 19.3048 12.139 19.7223C12.137 19.7243 12.1222 19.7456 12.0947 19.7863C12.0612 19.8362 11.9857 19.8762 11.8682 19.9064C11.8432 19.51 11.8774 19.2494 11.9706 19.1246C12.073 18.9875 12.178 18.8526 12.2857 18.72C13.3431 17.4229 14.4088 16.1324 15.4827 14.8485C15.5759 14.7375 15.6058 14.6276 15.5723 14.5186C15.6038 14.1852 15.4453 13.9623 15.0967 13.8501C14.4554 13.6426 13.8207 13.4365 13.1925 13.2317C13.2063 13.1431 13.1288 13.0922 12.9601 13.0791C12.9083 13.0745 12.8883 13.0496 12.9001 13.0043C12.9014 12.9977 12.9001 12.9918 12.8961 12.9866C12.8784 12.9623 12.8544 12.9501 12.8243 12.9501C12.8032 12.9501 12.7819 12.9505 12.7603 12.9511C12.7045 12.9518 12.6963 12.9324 12.7356 12.893L14.0275 11.6012C14.0511 11.5769 14.0609 11.548 14.057 11.5146C14.0557 11.5054 14.0557 11.4965 14.057 11.488C14.0596 11.4716 14.0668 11.4574 14.0787 11.4456L14.8279 10.6904Z" fill="#00AB55"/>
<path d="M2.60298 11.5342L2.81369 15.5573C2.7487 15.6013 2.72212 15.5498 2.73393 15.4027C2.73721 15.3627 2.73426 15.3624 2.72507 15.4017C2.71719 15.4333 2.69717 15.4516 2.66501 15.4569C2.62891 15.4635 2.61118 15.4848 2.61184 15.5209C2.6125 15.5465 2.60396 15.5681 2.58624 15.5859C2.37881 15.788 2.17828 15.9879 1.98464 16.1855C1.97676 16.1934 1.97217 16.2029 1.97086 16.2141C1.9702 16.2226 1.9702 16.2311 1.97086 16.2397C1.97479 16.2751 1.96429 16.3053 1.93935 16.3302C1.57241 16.6972 1.18874 17.0792 0.788332 17.4763C0.743104 17.5209 0.688937 17.5531 0.630794 17.5699C0.596004 17.5797 0.556619 17.5725 0.51264 17.5482L0.340332 14.0824C0.411224 14.0988 0.447327 14.0683 0.44864 13.9908C0.44864 13.9704 0.45586 13.9531 0.470301 13.9386L2.02796 12.3741C2.03978 12.3622 2.04569 12.3481 2.04569 12.3317V12.2825C2.04569 12.2654 2.05192 12.2513 2.06439 12.2401C2.2797 12.0465 2.45922 11.8112 2.60298 11.5342Z" fill="#00AB55"/>
<path fill-rule="evenodd" clip-rule="evenodd" d="M82.8531 10.6357H81.6774C81.5393 10.6357 81.4273 10.7477 81.4273 10.8858V11.9394C81.4273 12.0775 81.5393 12.1895 81.6774 12.1895H82.8531C82.9912 12.1895 83.1031 12.0775 83.1031 11.9394V10.8858C83.1031 10.7477 82.9912 10.6357 82.8531 10.6357ZM50.2367 17.4286H47.5487C47.5152 17.4286 47.4945 17.445 47.4867 17.4779L46.9333 19.7927C46.9198 19.8486 46.888 19.8982 46.843 19.9338C46.798 19.9693 46.7424 19.9886 46.6852 19.9886H45.4091C45.3759 19.9886 45.3432 19.9809 45.3135 19.9661C45.2837 19.9514 45.2578 19.93 45.2376 19.9037C45.2174 19.8773 45.2036 19.8467 45.1971 19.8141C45.1907 19.7816 45.1918 19.748 45.2004 19.7159C45.7761 17.5596 46.3868 15.2169 47.0328 12.6877C47.2001 12.0326 47.3531 11.6125 47.4916 11.4274C47.8067 11.008 48.3091 10.8101 48.999 10.8337C49.597 10.8547 50.0273 11.0487 50.2899 11.4156C50.433 11.6158 50.5734 11.9837 50.7113 12.5193C51.3854 15.1299 52.0097 17.5192 52.584 19.6873C52.6372 19.8882 52.5601 19.9886 52.3526 19.9886H51.1179C51.0575 19.9886 50.9989 19.9682 50.9516 19.9309C50.9043 19.8935 50.8709 19.8414 50.857 19.7829L50.3066 17.4838C50.2981 17.447 50.2748 17.4286 50.2367 17.4286ZM48.1843 14.5575L48.1842 14.5576C48.0713 15.0307 47.9576 15.5067 47.8382 15.9852C47.8277 16.0285 47.8447 16.0502 47.8894 16.0502H49.9137C49.9485 16.0502 49.9617 16.0331 49.9531 15.999L49.0719 12.3835C49.0638 12.3507 49.046 12.321 49.0209 12.2984C48.9958 12.2758 48.9646 12.2612 48.9311 12.2565C48.8051 12.2387 48.7401 12.3185 48.7105 12.4288C48.5249 13.1309 48.3554 13.8408 48.1843 14.5573L48.1843 14.5574L48.1843 14.5574L48.1843 14.5575L48.1843 14.5575ZM61.0123 15.487V18.5324C61.0123 18.5724 60.9923 18.5941 60.9523 18.5974C60.4947 18.6354 60.0819 18.6446 59.7136 18.6249C58.6739 18.5708 58.278 17.4444 58.2623 16.5228C58.2498 15.7699 58.2498 15.0501 58.2623 14.3635C58.283 13.2598 58.7418 12.2574 59.9972 12.2781C60.9188 12.2925 61.7331 12.3273 62.44 12.3825C62.6041 12.3956 62.6862 12.3198 62.6862 12.155V11.2767C62.6862 11.2242 62.6677 11.1733 62.6338 11.1331C62.5999 11.0929 62.5529 11.066 62.5011 11.0572C61.8939 10.9521 61.2329 10.879 60.518 10.8376C59.7264 10.7923 59.0821 10.8662 58.5852 11.0591C57.1516 11.6154 56.5658 13.0018 56.5569 14.4738C56.553 15.1637 56.5543 15.8532 56.5609 16.5425C56.5806 18.4615 57.7621 20.0398 59.7678 20.0851C60.6638 20.1055 61.5601 20.0398 62.4567 19.8882C62.5208 19.8775 62.579 19.8444 62.621 19.7948C62.6631 19.7452 62.6861 19.6824 62.6862 19.6174V15.487C62.6862 15.4222 62.6605 15.3601 62.6149 15.3143C62.5693 15.2685 62.5075 15.2428 62.443 15.2428H61.2555C61.191 15.2428 61.1292 15.2685 61.0835 15.3143C61.0379 15.3601 61.0123 15.4222 61.0123 15.487ZM39.7693 14.9464C39.7693 15.0048 39.7867 15.0107 39.8214 14.9641L42.7517 11.0188C42.7721 10.9913 42.7987 10.9689 42.8293 10.9536C42.8599 10.9382 42.8937 10.9302 42.9279 10.9302L44.5112 10.9311C44.5297 10.9311 44.548 10.9353 44.5648 10.9433C44.5817 10.9513 44.5966 10.9629 44.6086 10.9774C44.6756 11.0575 44.6667 11.152 44.5821 11.261C43.5502 12.5974 42.5144 13.9375 41.4746 15.2812C41.4589 15.3015 41.4585 15.3219 41.4736 15.3422C42.5193 16.8139 43.5574 18.2737 44.588 19.7218C44.6142 19.7585 44.6323 19.7989 44.6421 19.8429C44.6459 19.8604 44.6458 19.8786 44.6417 19.896C44.6376 19.9135 44.6296 19.9298 44.6184 19.9438C44.6071 19.9577 44.5929 19.969 44.5768 19.9768C44.5606 19.9845 44.5429 19.9886 44.525 19.9886H42.795C42.7474 19.9887 42.7005 19.9769 42.6584 19.9544C42.6164 19.9319 42.5804 19.8994 42.5538 19.8596L39.8264 15.7892C39.7883 15.7321 39.7693 15.738 39.7693 15.807V19.7425C39.7693 19.8078 39.7433 19.8704 39.6972 19.9165C39.651 19.9627 39.5884 19.9886 39.5231 19.9886H38.317C38.2517 19.9886 38.1891 19.9627 38.1429 19.9165C38.0967 19.8704 38.0708 19.8078 38.0708 19.7425V11.1763C38.0708 11.111 38.0967 11.0484 38.1429 11.0023C38.1891 10.9561 38.2517 10.9302 38.317 10.9302H39.5231C39.5884 10.9302 39.651 10.9561 39.6972 11.0023C39.7433 11.0484 39.7693 11.111 39.7693 11.1763V14.9464ZM65.0768 19.8006C65.9964 20.281 67.0884 20.1363 68.009 19.5869C68.0628 19.5541 68.0835 19.5688 68.071 19.6312C68.0428 19.7736 68.0796 19.8819 68.1813 19.9561C68.2102 19.9778 68.2427 19.9886 68.2788 19.9886H69.3372C69.3697 19.9886 69.4018 19.9822 69.4318 19.9697C69.4617 19.9573 69.4889 19.939 69.5117 19.916C69.5345 19.8931 69.5525 19.8658 69.5646 19.8358C69.5767 19.8059 69.5828 19.7738 69.5824 19.7415C69.5713 18.4621 69.5726 17.1526 69.5864 15.8129C69.5936 15.1098 69.5325 14.6015 69.4032 14.2877C68.9975 13.3011 67.9755 13.0018 66.9712 12.9969C66.2144 12.9929 65.5015 13.0599 64.8326 13.1977C64.6981 13.2259 64.6308 13.3087 64.6308 13.4458L64.6318 14.2473C64.6318 14.2728 64.6371 14.2979 64.6474 14.3212C64.6577 14.3445 64.6727 14.3653 64.6915 14.3825C64.7104 14.3996 64.7325 14.4126 64.7566 14.4207C64.7808 14.4288 64.8063 14.4318 64.8316 14.4295C65.6174 14.356 66.3562 14.3231 67.048 14.331C68.0031 14.3418 68.0257 15.0577 67.9726 15.804C67.9699 15.8401 67.9506 15.8578 67.9145 15.8572L67.9141 15.8572C66.6646 15.8276 64.6308 15.7795 64.3009 17.3912C64.1345 18.1996 64.2458 19.3663 65.0768 19.8006ZM67.9352 18.4634C67.4783 18.75 66.0053 19.1379 65.8694 18.3236C65.7552 17.6442 65.9019 17.0742 66.666 16.9767C67.0408 16.9288 67.4596 16.9179 67.9223 16.9442C67.9598 16.9462 67.9785 16.9658 67.9785 17.0033V18.3857C67.9785 18.4198 67.964 18.4457 67.9352 18.4634ZM72.7647 13.5315C73.5081 13.0441 74.3342 12.8531 75.1849 13.1061C75.4127 13.1737 75.6152 13.3014 75.7924 13.4891C75.807 13.5044 75.8262 13.5143 75.8471 13.5173C75.868 13.5204 75.8893 13.5163 75.9076 13.5059C76.6362 13.0864 77.5066 12.919 78.3199 13.0274C79.5763 13.1947 79.913 14.267 79.915 15.3638C79.9176 16.8237 79.9183 18.2836 79.9169 19.7434C79.9167 19.8085 79.8906 19.8709 79.8445 19.9168C79.7984 19.9628 79.7359 19.9886 79.6708 19.9886H78.5828C78.5115 19.9886 78.4431 19.9603 78.3927 19.9099C78.3423 19.8594 78.314 19.7911 78.314 19.7198C78.3186 18.1424 78.3186 16.7039 78.314 15.4042C78.313 15.1275 78.2667 14.6756 78.0107 14.5102C77.5657 14.2246 76.7485 14.4422 76.3064 14.6589C76.2749 14.674 76.2604 14.6989 76.263 14.7337C76.2749 14.9044 76.2817 15.0668 76.2837 15.2211C76.3041 16.6363 76.3073 18.1454 76.2936 19.7483C76.2928 19.8123 76.2669 19.8734 76.2216 19.9184C76.1762 19.9634 76.1151 19.9886 76.0513 19.9886H74.9446C74.8794 19.9886 74.8167 19.9627 74.7706 19.9165C74.7244 19.8703 74.6985 19.8077 74.6985 19.7424C74.7005 18.3371 74.6988 16.8496 74.6936 15.2802C74.6929 15.0176 74.6394 14.7993 74.5331 14.6254C74.3627 14.3458 73.8537 14.3428 73.5938 14.4196C73.3292 14.4984 73.065 14.6185 72.8011 14.78C72.7696 14.7997 72.7539 14.8282 72.7539 14.8656V19.7424C72.7539 19.8077 72.7279 19.8703 72.6818 19.9165C72.6356 19.9627 72.573 19.9886 72.5077 19.9886H71.4C71.3347 19.9886 71.2721 19.9627 71.226 19.9165C71.1798 19.8703 71.1539 19.8077 71.1539 19.7424V13.3237C71.1539 13.2939 71.1598 13.2644 71.1712 13.2368C71.1826 13.2093 71.1994 13.1843 71.2205 13.1632C71.2417 13.1422 71.2668 13.1255 71.2943 13.1142C71.3219 13.1029 71.3515 13.0971 71.3813 13.0973C71.6898 13.0973 72.0404 13.0963 72.4329 13.0943C72.6495 13.0923 72.7293 13.2902 72.6918 13.4822C72.6781 13.5558 72.7023 13.5722 72.7647 13.5315ZM86.3563 13.5266C86.2894 13.5686 86.2641 13.5509 86.2805 13.4734C86.3159 13.3041 86.2391 13.0963 86.0412 13.0963C85.6822 13.0963 85.3303 13.096 84.9857 13.0954C84.921 13.0954 84.8589 13.1211 84.8131 13.1669C84.7673 13.2127 84.7415 13.2748 84.7415 13.3395V19.7425C84.7415 19.8078 84.7675 19.8704 84.8136 19.9166C84.8598 19.9627 84.9224 19.9886 84.9877 19.9886H86.0708C86.1426 19.9886 86.2115 19.9601 86.2622 19.9093C86.313 19.8586 86.3415 19.7897 86.3415 19.7179V14.8933C86.3415 14.8565 86.357 14.8286 86.3878 14.8096C86.9175 14.4722 87.4545 14.3245 87.9987 14.3665C88.6505 14.4167 88.7696 14.8322 88.7726 15.3984C88.7804 16.8589 88.7817 18.3004 88.7765 19.7228C88.7764 19.7577 88.7831 19.7922 88.7965 19.8245C88.8098 19.8567 88.8293 19.886 88.854 19.9107C88.8787 19.9354 88.9081 19.955 88.9404 19.9684C88.9727 19.9818 89.0074 19.9886 89.0423 19.9886H90.1274C90.1933 19.9887 90.2565 19.9625 90.3032 19.916C90.3499 19.8695 90.3762 19.8064 90.3765 19.7405C90.3837 17.9374 90.3811 16.4499 90.3686 15.2783C90.3647 14.9435 90.3076 14.6012 90.1973 14.2513C89.9774 13.5535 89.5051 13.1502 88.7804 13.0412C87.8976 12.9086 87.0895 13.0704 86.3563 13.5266ZM82.8245 13.0954H81.7119C81.577 13.0954 81.4677 13.2047 81.4677 13.3395V19.7435C81.4677 19.8783 81.577 19.9877 81.7119 19.9877H82.8245C82.9594 19.9877 83.0687 19.8783 83.0687 19.7435V13.3395C83.0687 13.2047 82.9594 13.0954 82.8245 13.0954ZM97.9354 14.0652V13.3484C97.8852 13.2164 97.7759 13.1002 97.6282 13.0992C96.6259 13.0933 95.6081 13.094 94.5749 13.1012C92.8489 13.113 91.6132 13.9775 91.8554 15.8611C91.9033 16.2287 92.0441 16.549 92.2778 16.8221C92.3028 16.851 92.3008 16.8782 92.2719 16.9038C91.6683 17.4503 91.7363 18.4152 92.3536 18.94C92.3838 18.9656 92.3842 18.9915 92.3546 19.0178C91.8794 19.4313 91.6742 19.966 91.7392 20.6217C91.8781 22.0366 93.3038 22.4048 94.5424 22.4423C95.8067 22.4816 97.6558 22.3231 97.7631 20.666C97.8137 19.881 97.516 19.3434 96.8701 19.0532C96.4637 18.8707 95.9639 18.7125 95.3705 18.5786C94.7029 18.4277 94.0764 18.2783 93.4909 18.1306C93.4114 18.1106 93.3413 18.0636 93.2928 17.9976C93.2443 17.9317 93.2203 17.8509 93.225 17.7693C93.2263 17.7476 93.2273 17.7325 93.228 17.724C93.2398 17.5159 93.3465 17.4388 93.548 17.4926C94.36 17.7118 95.1962 17.7132 96.0568 17.4965C96.8727 17.2917 97.3742 16.8227 97.5613 16.0895C97.7247 15.4456 97.6637 14.8867 97.3781 14.4127C97.3578 14.3792 97.3663 14.3566 97.4037 14.3448C97.6079 14.2791 97.7851 14.1859 97.9354 14.0652ZM95.79 14.625C95.9656 14.8024 96.0635 15.0424 96.0622 15.292L96.0611 15.4988C96.0598 15.7484 95.9594 15.9873 95.782 16.1629C95.6045 16.3385 95.3646 16.4365 95.1149 16.4351L94.3509 16.4311C94.1012 16.4298 93.8623 16.3294 93.6867 16.152C93.5111 15.9745 93.4132 15.7346 93.4145 15.4849L93.4156 15.2782C93.4169 15.0285 93.5173 14.7896 93.6948 14.614C93.8722 14.4384 94.1122 14.3405 94.3618 14.3418L95.1259 14.3458C95.3755 14.3471 95.6144 14.4476 95.79 14.625ZM93.6651 19.4894C94.3865 19.6377 95.0548 19.8068 95.6698 19.9965C95.8805 20.0615 96.1346 20.1875 96.1602 20.4366C96.232 21.1455 95.6039 21.1948 95.1007 21.2263C94.5611 21.2597 93.4328 21.2765 93.3264 20.6109C93.2575 20.177 93.3442 19.8127 93.5864 19.518C93.6074 19.4924 93.6336 19.4828 93.6651 19.4894Z" fill="#00AB55"/>
<path d="M18.472 13.1299C18.6795 13.5474 18.7858 13.9383 18.7911 14.3026C18.8127 15.6633 18.8104 17.2774 18.7842 19.1449C18.7835 19.1961 18.7579 19.2187 18.7074 19.2128C18.6555 19.2069 18.623 19.2299 18.6099 19.2818C18.6011 19.3172 18.5792 19.3478 18.5488 19.3674C18.3703 19.4797 18.2216 19.6119 18.1028 19.7642C18.0378 19.8482 17.9715 19.93 17.9039 20.0094C17.7221 20.2234 17.538 20.442 17.3515 20.6651C17.3463 20.6704 17.341 20.676 17.3358 20.6819C16.8868 21.1466 16.4188 21.6291 15.9317 22.1293C15.7801 22.2848 15.6203 22.4319 15.4522 22.5704C15.1194 22.8448 14.8014 23.149 14.4981 23.4831C14.4811 23.5008 14.4729 23.5222 14.4735 23.5471C14.4735 23.5556 14.4745 23.5642 14.4765 23.5727C14.4791 23.5806 14.4775 23.5875 14.4715 23.5934C14.3856 23.6813 14.3029 23.7723 14.2234 23.8661C14.2188 23.872 14.1817 23.9058 14.1122 23.9675C14.0498 24.0227 14.017 24.1018 14.0137 24.2048L11.8682 19.906C11.9857 19.8758 12.0612 19.8358 12.0947 19.7859C12.1223 19.7452 12.137 19.7239 12.139 19.7219C12.5552 19.3044 12.9723 18.8869 13.3904 18.4695C13.4305 18.4301 13.4656 18.3861 13.4958 18.3375C13.5168 18.304 13.5375 18.2715 13.5578 18.24C13.5775 18.2085 13.6005 18.1796 13.6267 18.1534C14.077 17.7064 14.5382 17.2439 15.0101 16.7661C15.0377 16.7378 15.0551 16.7047 15.0623 16.6666C15.0663 16.6443 15.0758 16.6243 15.0909 16.6066C15.2556 16.4109 15.4388 16.2209 15.6403 16.0365C15.6626 16.0161 15.6885 16.003 15.7181 15.9971C15.7365 15.9931 15.7545 15.9945 15.7722 16.001C15.8182 16.0168 15.8411 16.0004 15.8411 15.9518V15.8701C15.8411 15.8379 15.8526 15.8103 15.8756 15.7874L16.6013 15.0597C16.6262 15.0348 16.6387 15.0046 16.6387 14.9691C16.6387 14.9593 16.639 14.9498 16.6397 14.9406C16.6403 14.9275 16.6456 14.9163 16.6554 14.9071L18.472 13.1299Z" fill="#00AB55"/>
<path d="M30.9304 9.45512C30.9652 8.43637 30.9786 7.42288 30.9707 6.41463C30.7581 6.3759 30.6182 6.42874 30.5513 6.57315C30.4955 6.69327 30.4377 6.77565 30.378 6.82029C30.3399 6.84852 30.3232 6.88626 30.3278 6.93352C30.3324 6.98472 30.312 7.01524 30.2667 7.02509C30.2425 7.031 30.2303 7.04642 30.2303 7.07137V7.12158C30.2303 7.15243 30.2192 7.17869 30.1968 7.20035L30.0619 7.33131C30.037 7.35559 30.0281 7.3848 30.0354 7.41894C30.0432 7.45438 30.0314 7.48031 29.9999 7.49672C29.9671 7.51313 29.9474 7.53906 29.9408 7.57451C29.9218 7.67953 29.8617 7.76158 29.7606 7.82066C29.7429 7.83116 29.7347 7.84659 29.736 7.86694C29.7367 7.87613 29.7377 7.88564 29.739 7.89549C29.7442 7.92962 29.7344 7.95883 29.7094 7.98312L29.5686 8.11998C29.547 8.14099 29.5394 8.16659 29.546 8.19678C29.5559 8.24339 29.5381 8.27522 29.4928 8.29229C29.4666 8.30214 29.4525 8.32117 29.4505 8.3494C29.4426 8.45377 29.3849 8.53647 29.2772 8.59752C29.2637 8.60547 29.2531 8.61761 29.2473 8.63204C29.2414 8.64647 29.2405 8.66238 29.2447 8.67727C29.2592 8.72716 29.2437 8.76392 29.1984 8.78755C29.1696 8.80199 29.1531 8.82562 29.1492 8.85844C29.1361 8.95887 29.0777 9.03896 28.9739 9.09869C28.9562 9.10985 28.9477 9.12593 28.9483 9.14694C28.9487 9.15105 28.9491 9.15517 28.9495 9.15928C28.95 9.1637 28.9506 9.16812 28.9513 9.17254C28.9539 9.20273 28.9451 9.22932 28.9247 9.25229L28.7859 9.40294C28.7622 9.42854 28.7514 9.45906 28.7534 9.49451C28.756 9.54111 28.7337 9.57295 28.6864 9.59001C28.6582 9.60117 28.6379 9.62054 28.6254 9.64811C28.5906 9.72556 28.545 9.79481 28.4885 9.85586C28.4744 9.87089 28.4644 9.88936 28.4594 9.90952C28.4544 9.92967 28.4546 9.95086 28.46 9.97106C28.4698 10.0104 28.458 10.0387 28.4245 10.0557C28.3917 10.0735 28.372 10.1004 28.3654 10.1365C28.3458 10.2382 28.2867 10.3193 28.1882 10.3797C28.1712 10.3902 28.1623 10.4056 28.1616 10.426C28.161 10.4358 28.1613 10.446 28.1626 10.4565C28.1679 10.4906 28.158 10.5198 28.1331 10.5441L27.9943 10.679C27.97 10.7026 27.9611 10.7312 27.9677 10.7647C27.9749 10.8014 27.9621 10.8287 27.9293 10.8464C27.8978 10.8635 27.8787 10.8897 27.8722 10.9252C27.8531 11.0276 27.794 11.1083 27.6949 11.1674C27.6772 11.1779 27.6687 11.1933 27.6693 11.2136C27.6693 11.2241 27.67 11.2343 27.6713 11.2442C27.6752 11.279 27.6647 11.3085 27.6398 11.3328L27.5029 11.4657C27.4786 11.4893 27.4695 11.5179 27.4754 11.5514C27.4832 11.5921 27.4685 11.6213 27.431 11.639C27.3943 11.6561 27.3782 11.6846 27.3828 11.7247C27.3887 11.7877 27.3628 11.8287 27.305 11.8477C27.2689 11.8596 27.2489 11.8845 27.245 11.9226C27.2318 12.0558 27.244 12.193 27.2814 12.3341L27.5147 13.9528C27.5193 13.9857 27.5298 14.0168 27.5462 14.0464C27.6036 14.1483 27.6128 14.2557 27.6222 14.3653C27.63 14.4568 27.6379 14.5497 27.6742 14.6421C27.7017 14.7117 27.706 14.7802 27.7103 14.8492C27.7146 14.9187 27.7189 14.9889 27.7471 15.0615C27.7957 15.1889 27.8206 15.3284 27.8219 15.48C27.8219 15.541 27.842 15.5933 27.8615 15.6439C27.8812 15.6953 27.9003 15.7449 27.8968 15.8C27.889 15.9346 27.9201 16.0511 27.9538 16.1775C27.9716 16.2444 27.9901 16.3141 28.0041 16.3908C28.0343 16.5535 28.0612 16.7229 28.0848 16.8988C28.1012 17.0248 28.1268 17.143 28.1616 17.2533C28.1971 17.3649 28.2158 17.4833 28.2178 17.6087C28.2184 17.6481 28.2292 17.6845 28.2503 17.718C28.2951 17.7894 28.2985 17.8825 28.3021 17.9769C28.3048 18.0506 28.3076 18.1251 28.33 18.1906C28.3504 18.249 28.3664 18.3078 28.3782 18.3669C28.4288 18.6104 28.4715 18.8582 28.5062 19.1103C28.5187 19.2002 28.5397 19.2888 28.5693 19.3761C28.5919 19.4417 28.5975 19.5143 28.6032 19.5885C28.6078 19.647 28.6124 19.7064 28.6254 19.764C28.7199 20.1763 28.8003 20.5878 28.8666 20.9988C28.8673 21.0053 28.8991 21.1497 28.9621 21.432C29.0219 21.6991 29.0156 21.9699 28.9434 22.2443C28.9421 22.4058 28.8604 22.5636 28.6982 22.7179L27.3749 23.7675C27.346 23.7903 27.3116 23.8052 27.2752 23.8107C27.2387 23.8163 27.2015 23.8122 27.1672 23.799C27.1329 23.7857 27.1026 23.7638 27.0795 23.7353C27.0564 23.7068 27.0411 23.6728 27.0352 23.6365L26.5232 20.5409C26.5222 20.5337 26.5193 20.5269 26.5148 20.5211C26.5103 20.5154 26.5043 20.5109 26.4975 20.5081C26.4907 20.5054 26.4832 20.5044 26.4758 20.5053C26.4684 20.5062 26.4613 20.509 26.4553 20.5133L25.769 21.0175L24.2754 22.1222C24.2481 22.1425 24.2295 22.1723 24.2232 22.2059C23.9823 23.5568 23.7397 24.9622 23.4955 26.422C23.4404 26.7499 23.2543 26.996 22.9796 27.2097C22.6166 27.4933 22.2503 27.7801 21.8808 28.0703C21.7075 28.2061 21.483 28.1264 21.4643 27.896C21.4544 27.7745 21.459 27.6659 21.4781 27.5701C22.0715 24.5617 22.656 21.5528 23.2317 18.5431C23.2074 18.5247 23.189 18.4985 23.1765 18.4644C23.1647 18.4328 23.145 18.4263 23.1175 18.4447C23.1076 18.4519 23.1027 18.4604 23.1027 18.4703C23.106 18.5241 23.085 18.5635 23.0397 18.5884C22.9931 18.6134 22.978 18.6518 22.9944 18.7036C23.0101 18.7515 22.9934 18.7807 22.9442 18.7912C22.8995 18.8011 22.8825 18.829 22.893 18.8749C22.9008 18.9097 22.8916 18.9393 22.8654 18.9636L22.7167 19.1044C22.7042 19.1162 22.698 19.1306 22.698 19.1477V19.2058C22.698 19.2235 22.6918 19.2383 22.6793 19.2501L22.5286 19.3928C22.505 19.4152 22.4968 19.4421 22.504 19.4736C22.5132 19.5182 22.4968 19.5491 22.4548 19.5661C22.4279 19.5766 22.4131 19.596 22.4105 19.6242C22.402 19.7273 22.3455 19.8093 22.2411 19.8704C22.2083 19.8894 22.1968 19.9173 22.2067 19.9541C22.2185 20.0007 22.2041 20.0355 22.1634 20.0584C22.1325 20.0755 22.1145 20.1014 22.1092 20.1362C22.0934 20.2347 22.035 20.3141 21.9339 20.3745C21.9162 20.385 21.9077 20.4004 21.9083 20.4208C21.909 20.4306 21.91 20.4401 21.9113 20.4493C21.9165 20.4841 21.9067 20.5133 21.8818 20.537L21.7419 20.6728C21.7183 20.6965 21.7098 20.7244 21.7163 20.7565C21.7249 20.7999 21.7085 20.8294 21.6671 20.8452C21.6402 20.8557 21.6254 20.8753 21.6228 20.9042C21.6143 21.0079 21.5572 21.0903 21.4515 21.1514C21.4193 21.1697 21.4085 21.1973 21.419 21.2341C21.4328 21.2826 21.4173 21.3174 21.3727 21.3384C21.3465 21.3503 21.331 21.3706 21.3264 21.3995C21.3094 21.5104 21.248 21.5964 21.1423 21.6575C21.1292 21.6647 21.1226 21.6758 21.1226 21.6909V21.7421C21.1226 21.7736 21.1115 21.8002 21.0891 21.8219L20.9503 21.9568C20.9339 21.9725 20.9257 21.9919 20.9257 22.0149V22.0572C20.9257 22.0927 20.9096 22.1179 20.8775 22.133C20.8282 22.156 20.8033 22.1967 20.8026 22.2551C20.802 22.286 20.7872 22.307 20.7583 22.3181C20.7078 22.3372 20.6677 22.369 20.6382 22.4136C20.4255 22.7313 20.2105 23.0425 19.9933 23.3471C19.9224 23.4462 19.8301 23.4902 19.7166 23.479C19.6857 23.4764 19.668 23.4902 19.6634 23.5204L19.5866 24.0136L19.5837 24.4104C19.5843 25.8893 19.5607 27.3581 19.5128 28.8166C19.4921 29.4566 19.5807 30.6047 20.2138 30.9808C20.4528 31.1226 20.6943 31.1626 20.9385 31.1009C21.1794 31.0405 21.3386 31.0294 21.416 31.0674C21.6674 30.8974 21.825 30.7868 21.8886 30.7356C24.3856 28.7303 26.8445 26.7322 29.2654 24.7413C30.4896 23.7346 30.5508 22.1415 30.6067 20.6847L30.6074 20.665C30.7243 17.6284 30.8125 14.5476 30.8723 11.4224C30.8808 10.9865 30.9002 10.3308 30.9304 9.45512Z" fill="#00AB55"/>
<path d="M24.9154 18.5391C25 18.5509 25.0942 18.5053 25.1979 18.4022C25.3935 18.2657 25.5911 18.1275 25.7907 17.9877C26.0152 17.8302 26.1648 17.6461 26.1205 17.3684C25.9551 16.3352 25.7986 15.3437 25.6509 14.3939C25.6358 14.3 25.6098 14.2971 25.5731 14.385C25.5586 14.4191 25.5448 14.4733 25.5317 14.5475C25.3335 15.6988 25.127 16.8466 24.9124 17.9907C24.8651 18.1613 24.8477 18.3245 24.8602 18.48C24.8628 18.5148 24.8812 18.5345 24.9154 18.5391Z" fill="#00AB55"/>
<path d="M2.81368 15.5569L2.97023 18.5876L2.89048 19.4422C2.8872 19.4836 2.86751 19.4934 2.8314 19.4718C2.81762 19.4639 2.80974 19.4517 2.80777 19.4353C2.80318 19.4005 2.78841 19.3956 2.76347 19.4206L1.66956 20.5145C1.65971 20.5237 1.65413 20.5348 1.65282 20.5479C1.65216 20.5565 1.65249 20.565 1.6538 20.5735C1.65971 20.6083 1.64987 20.6375 1.62427 20.6612C1.556 20.7255 1.48708 20.7931 1.4175 20.864C1.38008 20.9027 1.33807 20.9333 1.29147 20.9556C1.23239 20.9838 1.18939 21.0347 1.16248 21.1082C1.15019 21.1406 1.13064 21.1696 1.10537 21.1929L0.708573 21.5493L0.512634 17.5478C0.556614 17.5721 0.595998 17.5793 0.630788 17.5695C0.688932 17.5527 0.743099 17.5205 0.788327 17.4759C1.18874 17.0788 1.57241 16.6968 1.93934 16.3299C1.96429 16.3049 1.97479 16.2747 1.97085 16.2393C1.97019 16.2307 1.97019 16.2222 1.97085 16.2137C1.97216 16.2025 1.97676 16.193 1.98463 16.1851C2.17828 15.9875 2.37881 15.7877 2.58623 15.5855C2.60396 15.5678 2.61249 15.5461 2.61183 15.5205C2.61118 15.4844 2.6289 15.4631 2.665 15.4565C2.69717 15.4513 2.71719 15.4329 2.72507 15.4014C2.73425 15.362 2.73721 15.3623 2.73393 15.4023C2.72211 15.5494 2.7487 15.6009 2.81368 15.5569Z" fill="#00AB55"/>
<path d="M2.97022 18.5879L3.12283 21.8795C3.12086 21.9011 3.1189 21.9238 3.11693 21.9474C3.11496 21.9684 3.10872 21.9871 3.09822 22.0035C3.07656 22.039 3.04603 22.0482 3.00665 22.0311C2.97711 22.0186 2.95053 22.0235 2.9269 22.0459L2.48086 22.4761C2.46971 22.4866 2.46413 22.4994 2.46413 22.5145V22.5716C2.46414 22.5819 2.46205 22.5921 2.45799 22.6016C2.45393 22.611 2.44798 22.6196 2.4405 22.6268C2.195 22.8565 1.96164 23.0981 1.74043 23.3515C1.72468 23.3685 1.70532 23.3784 1.68234 23.381C1.66068 23.383 1.64919 23.3951 1.64788 23.4174C1.64725 23.4422 1.63782 23.4659 1.6213 23.4844L0.941911 24.2465C0.878896 23.9905 0.83787 23.724 0.818834 23.447C0.776824 22.8247 0.740065 22.1922 0.708557 21.5496L1.10536 21.1932C1.13062 21.1699 1.15017 21.1409 1.16246 21.1085C1.18938 21.035 1.23237 20.9841 1.29145 20.9559C1.33805 20.9336 1.38006 20.903 1.41748 20.8643C1.48706 20.7934 1.55598 20.7258 1.62425 20.6615C1.64985 20.6379 1.6597 20.6086 1.65379 20.5739C1.65247 20.5653 1.65215 20.5568 1.6528 20.5483C1.65412 20.5351 1.6597 20.524 1.66954 20.5148L2.76345 19.4209C2.78839 19.3959 2.80316 19.4009 2.80776 19.4356C2.80973 19.4521 2.8176 19.4642 2.83139 19.4721C2.86749 19.4937 2.88718 19.4839 2.89046 19.4425L2.97022 18.5879Z" fill="#00AB55"/>
<path d="M7.85099 19.1468L8.31572 20.0841L9.50908 22.5191C9.49464 22.5342 9.48184 22.5417 9.47068 22.5417C9.45492 22.5404 9.4477 22.5476 9.44902 22.5634C9.44967 22.5739 9.45296 22.5838 9.45886 22.5929C9.46094 22.5961 9.46214 22.5998 9.46236 22.6035C9.46258 22.6073 9.4618 22.6111 9.46011 22.6145C9.45842 22.6179 9.45587 22.6208 9.45271 22.6229C9.44955 22.6249 9.4459 22.6262 9.44212 22.6264C9.42178 22.6277 9.40832 22.6189 9.40176 22.5998C9.38338 22.548 9.35909 22.5447 9.32889 22.59C9.16085 22.8394 8.96327 23.0597 8.73616 23.2507C8.7204 23.2638 8.71351 23.2805 8.71548 23.3009C8.71679 23.3094 8.71745 23.3183 8.71745 23.3275C8.7181 23.3623 8.70596 23.3918 8.68102 23.4161C8.28192 23.8112 7.88939 24.2038 7.50342 24.5937C7.49882 24.5989 7.4939 24.6016 7.48865 24.6016C7.48077 24.6029 7.47224 24.6016 7.46305 24.5976C7.4532 24.593 7.45025 24.5858 7.45419 24.576C7.4765 24.5221 7.46403 24.4873 7.41677 24.4716L7.20508 20.219C7.30354 20.1383 7.37082 20.0559 7.40692 19.9719C7.41808 19.9443 7.41841 19.9168 7.40791 19.8892C7.38362 19.8235 7.39741 19.7635 7.44926 19.709C7.47421 19.6834 7.48963 19.6532 7.49554 19.6184C7.51851 19.4825 7.56118 19.3565 7.62354 19.2403C7.63798 19.2128 7.6301 19.2003 7.59991 19.2029C7.58744 19.2042 7.58514 19.1914 7.59302 19.1645C7.59597 19.1553 7.60223 19.1475 7.61059 19.1426C7.61894 19.1377 7.62881 19.136 7.63831 19.1379C7.65931 19.1419 7.67474 19.1356 7.68459 19.1192C7.71019 19.0766 7.74334 19.0697 7.78403 19.0985L7.85099 19.1468Z" fill="#00AB55"/>
<path d="M3.12288 21.8789C3.17277 22.3148 3.20427 22.7503 3.2174 23.1855C3.22528 23.4415 3.2604 23.6341 3.32276 23.7635C3.41071 23.9479 3.53904 24.1055 3.70774 24.2361C3.87841 24.4383 4.11668 24.5722 4.42257 24.6378L6.48928 25.3694C6.47024 25.3982 6.47024 25.434 6.48928 25.4767C6.50503 25.5115 6.53162 25.5243 6.56903 25.5151C6.58741 25.5105 6.60513 25.5141 6.6222 25.5259C6.65437 25.5469 6.65338 25.566 6.61925 25.583C6.55426 25.6152 6.48665 25.6237 6.41642 25.6086C6.38228 25.6008 6.3685 25.6142 6.37506 25.649C6.39377 25.7465 6.38294 25.8154 6.31106 25.8863C6.02749 26.164 5.75016 26.4406 5.47906 26.7163C5.47053 26.7249 5.46626 26.7354 5.46626 26.7478C5.46626 26.7577 5.46659 26.7675 5.46725 26.7774C5.46856 26.8095 5.45806 26.8368 5.43574 26.8591C5.25654 27.0383 5.08161 27.2093 4.91094 27.3721C4.86897 27.4117 4.81598 27.4363 4.76205 27.4412C4.70813 27.4462 4.65704 27.431 4.61851 27.3987C4.56797 27.3567 4.50003 27.3524 4.41469 27.3859C3.8981 27.1935 3.37855 26.9966 2.85605 26.7951C1.7838 26.3806 1.16054 25.332 0.941956 24.2459L1.62134 23.4838C1.63787 23.4654 1.64729 23.4416 1.64792 23.4169C1.64924 23.3946 1.66072 23.3824 1.68239 23.3804C1.70536 23.3778 1.72472 23.368 1.74048 23.3509C1.96169 23.0975 2.19504 22.856 2.44054 22.6262C2.44802 22.6191 2.45397 22.6105 2.45803 22.601C2.46209 22.5915 2.46418 22.5814 2.46417 22.5711V22.514C2.46417 22.4989 2.46975 22.4861 2.48091 22.4756L2.92694 22.0453C2.95057 22.023 2.97716 22.0181 3.00669 22.0305C3.04608 22.0476 3.0766 22.0384 3.09826 22.003C3.10877 21.9866 3.115 21.9679 3.11697 21.9468C3.11894 21.9232 3.12091 21.9006 3.12288 21.8789Z" fill="#00AB55"/>
<path d="M9.50907 22.5195L11.1829 25.9381C10.923 26.263 10.7119 26.503 10.5498 26.6579C10.5111 26.694 10.4907 26.7327 10.4888 26.7741C10.4868 26.8069 10.474 26.8351 10.4504 26.8587L8.84938 28.4607C8.82575 28.4843 8.81558 28.5132 8.81886 28.5473C8.82214 28.5815 8.80639 28.6064 8.7716 28.6222C8.74731 28.634 8.72729 28.6511 8.71153 28.6734C8.62883 28.7902 8.50411 28.8362 8.33738 28.8112L4.41467 27.3865C4.50001 27.353 4.56794 27.3573 4.61849 27.3993C4.65701 27.4316 4.7081 27.4468 4.76203 27.4419C4.81595 27.437 4.86895 27.4123 4.91092 27.3727C5.08159 27.2099 5.25652 27.0389 5.43572 26.8597C5.45804 26.8374 5.46854 26.8102 5.46723 26.778C5.46657 26.7681 5.46624 26.7583 5.46624 26.7485C5.46624 26.736 5.47051 26.7255 5.47904 26.7169C5.75014 26.4413 6.02747 26.1646 6.31104 25.8869C6.38292 25.816 6.39375 25.7471 6.37504 25.6496C6.36848 25.6148 6.38226 25.6014 6.4164 25.6093C6.48663 25.6244 6.55424 25.6158 6.61923 25.5837C6.65336 25.5666 6.65434 25.5476 6.62218 25.5265C6.60511 25.5147 6.58739 25.5111 6.56901 25.5157C6.5316 25.5249 6.50501 25.5121 6.48926 25.4773C6.47022 25.4346 6.47022 25.3989 6.48926 25.37C7.16273 25.4734 7.50341 25.1406 7.41676 24.472C7.46403 24.4878 7.4765 24.5226 7.45418 24.5764C7.45024 24.5862 7.4532 24.5935 7.46304 24.5981C7.47223 24.602 7.48077 24.6033 7.48864 24.602C7.49389 24.602 7.49882 24.5994 7.50341 24.5941C7.88938 24.2042 8.28191 23.8117 8.68101 23.4165C8.70596 23.3922 8.7181 23.3627 8.71744 23.3279C8.71744 23.3187 8.71679 23.3098 8.71547 23.3013C8.7135 23.281 8.7204 23.2642 8.73615 23.2511C8.96327 23.0601 9.16085 22.8399 9.32889 22.5904C9.35908 22.5451 9.38337 22.5484 9.40175 22.6003C9.40831 22.6193 9.42177 22.6282 9.44212 22.6269C9.4459 22.6266 9.44955 22.6254 9.4527 22.6233C9.45586 22.6212 9.45841 22.6183 9.46011 22.6149C9.4618 22.6115 9.46257 22.6078 9.46236 22.604C9.46214 22.6002 9.46093 22.5965 9.45886 22.5934C9.45295 22.5842 9.44967 22.5743 9.44901 22.5638C9.4477 22.5481 9.45492 22.5409 9.47067 22.5422C9.48183 22.5422 9.49463 22.5346 9.50907 22.5195Z" fill="#00AB55"/>
<path d="M19.5837 24.4102C19.5843 25.889 19.5607 27.3578 19.5128 28.8163C19.4921 29.4563 19.5807 30.6044 20.2138 30.9805C20.4528 31.1223 20.6943 31.1623 20.9385 31.1006C21.1794 31.0402 21.3386 31.0291 21.416 31.0671C20.6487 31.6034 19.7977 31.9146 18.8629 32.0006H18.0792C17.5751 31.952 17.0667 31.8538 16.554 31.7062C16.724 31.6464 16.8904 31.5995 17.0532 31.5654C17.2902 31.5161 17.4556 31.4705 17.5495 31.4285C18.4789 31.009 18.8531 30.1298 18.8393 29.1353C18.8255 28.1967 18.8252 27.2061 18.8383 26.1638C18.839 26.1316 18.8547 26.1119 18.8856 26.1047C18.9755 26.083 19.0372 26.0253 19.0707 25.9314C19.1075 25.8296 19.1678 25.7489 19.2519 25.6892C19.2735 25.6734 19.2834 25.6521 19.2814 25.6252C19.2807 25.612 19.2735 25.6065 19.2597 25.6084C19.2559 25.609 19.252 25.6088 19.2482 25.6076C19.2445 25.6065 19.2411 25.6045 19.2382 25.6019C19.2354 25.5992 19.2332 25.5959 19.2318 25.5923C19.2304 25.5887 19.2299 25.5847 19.2302 25.5809C19.2335 25.529 19.2597 25.4926 19.309 25.4716C19.3273 25.4637 19.3339 25.4499 19.3287 25.4302C19.3129 25.3718 19.3296 25.3278 19.3789 25.2983C19.4084 25.2806 19.4219 25.2546 19.4192 25.2205C19.395 24.9041 19.4498 24.634 19.5837 24.4102Z" fill="#00AB55"/>
</g>
<defs>
<clipPath id="clip0_4052_8023">
<rect width="97.8708" height="32" fill="white" transform="translate(0.0646362 0.000976562)"/>
</clipPath>
</defs>
</svg>
