<svg xmlns="http://www.w3.org/2000/svg" width="98" height="32" fill="none"><g fill="#00AB55" clip-path="url(#a)"><path d="m9.701 1.123.005 2.733a4.911 4.911 0 0 0-1.833-.36.262.262 0 0 0-.061-.034c-.063-.026-.061-.045.005-.057l.012.001c.037.016.056.003.058-.038.02-.477.028-.961.023-1.451l1.791-.794ZM30.779 5.567l.192.848c-.213-.038-.353.014-.42.159a.648.648 0 0 1-.173.247.118.118 0 0 0-.05.113c.004.051-.016.082-.061.092-.025.006-.037.021-.037.046v.05c0 .031-.01.057-.033.079l-.135.13a.09.09 0 0 0-.027.089c.008.035-.004.06-.035.077a.104.104 0 0 0-.06.078.35.35 0 0 1-.18.246.047.047 0 0 0-.024.047l.003.028a.096.096 0 0 1-.03.088l-.14.137a.078.078 0 0 0-.023.076c.01.047-.008.079-.053.096a.06.06 0 0 0-.042.057c-.008.104-.066.187-.174.248a.07.07 0 0 0-.032.08c.014.05-.001.087-.047.11a.086.086 0 0 0-.049.071c-.013.1-.071.18-.175.24a.052.052 0 0 0-.026.049l.003.025a.103.103 0 0 1-.026.08l-.14.15a.12.12 0 0 0-.032.092c.003.047-.02.079-.067.096a.108.108 0 0 0-.06.058.768.768 0 0 1-.138.207.121.121 0 0 0-.028.116c.01.04-.002.067-.036.084a.11.11 0 0 0-.059.081.36.36 0 0 1-.177.243.053.053 0 0 0-.026.047v.03a.096.096 0 0 1-.029.088l-.139.135a.089.089 0 0 0-.026.085c.007.037-.006.064-.039.082a.108.108 0 0 0-.057.079.35.35 0 0 1-.177.242.049.049 0 0 0-.026.046l.002.03a.102.102 0 0 1-.031.09l-.137.132a.091.091 0 0 0-.028.086c.008.04-.007.07-.044.088-.037.017-.053.045-.048.085.006.063-.02.104-.078.123a.082.082 0 0 0-.06.075c-.013.133-.001.27.036.412a.343.343 0 0 1-.059-.223c.013-.197-.084-.302-.097-.481a4.647 4.647 0 0 0-.104-.676.35.35 0 0 0-.167-.226c-.16-.1-.302-.151-.428-.153a.916.916 0 0 0-.52.17 1.466 1.466 0 0 0-.458.268.702.702 0 0 0-.35.203c-.223.135-.381.322-.475.56-.017.043-.004.055.037.037l.04-.018c-.136.183-.245.339-.289.576l-.269 1.465-.91 4.707a.167.167 0 0 1-.055-.079c-.012-.032-.032-.038-.06-.02-.01.008-.014.016-.014.026a.116.116 0 0 1-.063.118c-.047.025-.062.063-.046.115.016.048 0 .077-.05.088-.044.01-.062.038-.051.084a.087.087 0 0 1-.028.088l-.148.141a.057.057 0 0 0-.019.043v.058a.059.059 0 0 1-.019.045l-.15.142a.08.08 0 0 0-.025.081c.01.045-.007.076-.05.093a.065.065 0 0 0-.044.058c-.008.103-.064.185-.169.246-.033.019-.044.047-.034.084.011.046-.003.081-.044.104a.102.102 0 0 0-.054.078.336.336 0 0 1-.175.238.049.049 0 0 0-.026.046l.003.029a.095.095 0 0 1-.03.088l-.14.136a.087.087 0 0 0-.025.083c.009.043-.008.073-.049.089a.065.065 0 0 0-.044.059c-.009.104-.066.186-.172.247-.032.018-.043.046-.032.083.014.048-.002.083-.046.104a.076.076 0 0 0-.047.061.35.35 0 0 1-.184.258.036.036 0 0 0-.02.034v.05a.107.107 0 0 1-.033.08l-.139.135a.077.077 0 0 0-.024.058v.043c0 .035-.016.06-.049.076-.049.023-.074.063-.074.122-.001.03-.016.052-.045.063a.242.242 0 0 0-.12.095c-.213.318-.428.63-.645.934a.287.287 0 0 1-.276.132c-.031-.003-.049.01-.054.041l-.076.493a40.48 40.48 0 0 1-.002-1.588c.015-1.427.038-2.854.07-4.282.011-.545.033-1.086.066-1.624.027-.456.038-.999.034-1.63-.004-.682.029-1.215.097-1.6.06-.333.153-.682.276-1.048.04-.117.09-.23.15-.342.06-.107.125-.215.197-.324.341-.526.767-.93 1.278-1.212 2.4-1.333 4.964-2.771 7.694-4.315.132-.076.272-.16.418-.256.29-.19.594-.264.914-.226Z"/><path fill-rule="evenodd" d="M13.025.001h.58c.64.102 1.274.237 1.902.404l1.269.337c.588.148 1.175.301 1.76.46l4.136 1.068c-.212.334-.265.748-.16 1.241.008.036.03.05.065.04a.79.79 0 0 1 .287-.014c.296.035.58.027.851-.026a.186.186 0 0 1 .107.013.594.594 0 0 0 .365.042.34.34 0 0 1 .319.1.056.056 0 0 0 .06.015.29.29 0 0 1 .313.068.16.16 0 0 0 .087.043c.195.032.382.1.56.203.07.039.125.088.17.146a.912.912 0 0 0 .165.17c.07.056.084.128.045.214-.316-.334-.741-.563-1.275-.684-1.1-.25-2.149-.194-3.146.167-.352.127-1.106.528-.844.988a.99.99 0 0 0 .288.307c.98.711 2.559.714 3.708.457.078.333.092.687.041 1.062a3.1 3.1 0 0 0-.006.633.078.078 0 0 1-.041.074 399.672 399.672 0 0 0-3.176 1.655c-.936.492-1.923.84-2.962 1.046-.47.093-.955.128-1.454.104-.37-.018-.83-.107-1.383-.268-.94-.274-1.876-.554-2.81-.84l-.206-.071-3.069-.915-.764-.232-2.038-.609-.702-.213-.89-.28c.023-.444.029-.883.016-1.32-.004-.128.07-.184.225-.167.477.259.98.418 1.507.476 1.024.065 1.817.06 2.766-.292.29-.114.545-.303.764-.569a.81.81 0 0 0 .046-.394c-.094-.332-.36-.593-.795-.783l-.005-2.734a17.31 17.31 0 0 1 2.23-.9c.184-.06.417-.113.696-.16l.398-.062Zm-3.3 7.822.002.16-.002-.16Zm8.848-6.47c-.01.012-.02.016-.034.014-.02-.004-.034 0-.042.01.008-.01.022-.014.042-.01.013.002.024-.002.034-.014ZM12.68 5.056c.01-.005.018-.016.02-.031-.002.015-.01.026-.02.031Zm.1-.478a.6.6 0 0 0 .017.448c.189.26.507.474.956.64.806.3 1.667.295 2.533.232.81-.059 1.469-.35 1.977-.873.031-.186.005-.379-.078-.578-.164-.282-.44-.49-.826-.626a5.582 5.582 0 0 0-3.094-.185c-.278.061-.57.166-.875.313-.313.152-.516.362-.61.63ZM7.91 1.917c.005.49-.002.974-.023 1.451-.002.042-.02.055-.058.039a.024.024 0 0 0-.011-.001c-.067.012-.07.03-.006.056.025.01.045.022.06.034-.822-.032-1.768.121-2.48.55-.293.196-.45.438-.473.726l.1.239c.075.13.209.267.399.408-.154-.017-.23.039-.225.168.013.436.007.875-.016 1.318l-2.913-.859c-.044-.012-.061.004-.053.048.024.128-.023.232-.143.312a.107.107 0 0 0-.047.077.254.254 0 0 1-.038.104c-.027.041-.016.07.03.084l3.705 1.142 1.161.364c-.015.182-.07.266-.167.253a.096.096 0 0 0-.084.03 1.215 1.215 0 0 0-.164.233.165.165 0 0 1-.068.066.793.793 0 0 0-.333.336.12.12 0 0 1-.053.052.441.441 0 0 0-.148.123.098.098 0 0 0-.024.07c.001.032-.013.06-.04.085a6.061 6.061 0 0 0-.63.66.626.626 0 0 1-.216.16.275.275 0 0 0-.092.07c-.081.097-.1.163-.06.2a63.939 63.939 0 0 1-1.221-.373c-.304-.095-.545-.077-.726.055-.34.248-.306.651-.268 1.092.006.08.013.162.018.245a2.464 2.464 0 0 1-.539.706.054.054 0 0 0-.018.042v.05c0 .016-.006.03-.018.042L.47 13.938a.071.071 0 0 0-.021.052c-.002.078-.038.108-.109.092L.065 9.194v-1.19C.16 7.08.53 6.26 1.172 5.542a5.725 5.725 0 0 1 1.615-1.287c.788-.412 1.592-.789 2.412-1.13L7.91 1.916ZM5.285 3.329a.098.098 0 0 1-.027.048c-.007.008-.01.015-.01.023 0-.008.003-.015.01-.023a.098.098 0 0 0 .027-.048Zm.005.167a.116.116 0 0 1-.004.027c-.007.03-.021.043-.042.037-.023-.006-.037.003-.042.026.005-.023.019-.032.042-.026.02.006.035-.007.042-.037a.116.116 0 0 0 .004-.027Zm7.345 1.15Z" clip-rule="evenodd"/><path fill-rule="evenodd" d="M28.215 3.694c-1.839-.475-3.686-.95-5.543-1.424-.212.334-.265.748-.16 1.241.008.036.03.049.065.04a.79.79 0 0 1 .287-.014c.296.035.58.027.851-.026a.186.186 0 0 1 .107.013.594.594 0 0 0 .365.042.34.34 0 0 1 .319.1.056.056 0 0 0 .06.014.29.29 0 0 1 .313.07.16.16 0 0 0 .086.042c.196.032.383.1.562.203.068.039.124.088.168.146a.915.915 0 0 0 .166.17c.07.056.084.128.045.214.113.153.124.31.032.47a1.166 1.166 0 0 1-.47.444c-.28.151-.557.258-.831.321.078.333.092.687.041 1.062a3.107 3.107 0 0 0-.006.633.076.076 0 0 1-.01.042.08.08 0 0 1-.031.031 397.952 397.952 0 0 0-3.176 1.656c-.936.492-1.923.84-2.962 1.046-.471.093-.955.128-1.454.104-.37-.018-.831-.107-1.383-.268-.94-.274-1.876-.554-2.81-.84l-.206-.071-3.07-.916-.763-.231a.5.5 0 0 1-.165.26.058.058 0 0 1 0 0 .5.5 0 0 0 .165-.26l-2.038-.609-.702-.213-.89-.28-2.913-.86c-.044-.012-.061.004-.053.048.024.128-.023.232-.143.312a.107.107 0 0 0-.047.077.254.254 0 0 1-.038.104c-.027.041-.016.07.03.084l3.705 1.142 1.161.364 1.507.478.21-.239-.21.239.484.148 2.958.944.597.18 2.403.763.339.103c.552.165 1.136.34 1.58.577.772.41 1.347.997 1.725 1.76.207.417.314.808.319 1.172.022 1.361.02 2.975-.007 4.843 0 .051-.026.074-.077.068-.052-.006-.084.017-.097.069a.143.143 0 0 1-.061.085 1.718 1.718 0 0 0-.446.397 6.755 6.755 0 0 1-.2.245c-.181.214-.365.433-.551.656l-.008.008-.008.009c-.45.465-.917.947-1.404 1.447a5.978 5.978 0 0 1-.48.441c-.333.275-.65.579-.954.913a.085.085 0 0 0-.024.064c0 .009 0 .017.002.026a.019.019 0 0 1-.005.02 5.122 5.122 0 0 0-.248.273c-.004.006-.041.04-.11.102a.314.314 0 0 0-.1.237c.646 1.288 1.293 2.576 1.942 3.863.056.11.088.22.099.33a.265.265 0 0 1-.237.29.954.954 0 0 1-.41-.062 117.378 117.378 0 0 1-2.8-1.028c-.758-.292-1.01-.812-1.325-1.458-.032-.066-.065-.134-.1-.202-.259.325-.47.565-.632.72a.17.17 0 0 0-.061.116.126.126 0 0 1-.039.084l-1.6 1.602a.103.103 0 0 0-.031.087c.003.034-.013.059-.047.075a.156.156 0 0 0-.06.051c-.083.117-.208.163-.375.138 2.494.892 4.987 1.786 7.48 2.68.114.043.36.114.737.216.17-.06.336-.107.5-.141.236-.05.402-.095.495-.137.93-.42 1.304-1.299 1.29-2.293a108.8 108.8 0 0 1 0-2.972c0-.032.016-.052.047-.059a.252.252 0 0 0 .185-.173.496.496 0 0 1 .18-.242.068.068 0 0 0 .03-.064c0-.014-.008-.02-.021-.017h-.012a.026.026 0 0 1-.016-.016.025.025 0 0 1-.002-.012.12.12 0 0 1 .079-.109c.018-.008.025-.022.02-.041-.016-.059 0-.103.05-.132a.078.078 0 0 0 .04-.078c-.024-.317.03-.587.165-.81l.003-.397c-.01-.233-.01-.763-.002-1.588.015-1.427.038-2.855.07-4.282.011-.545.033-1.086.066-1.624.027-.456.038-1 .034-1.63-.004-.682.029-1.216.097-1.6.06-.333.153-.683.276-1.048.04-.117.09-.231.15-.342.06-.108.125-.216.197-.325.341-.525.767-.929 1.278-1.212 2.4-1.332 4.964-2.77 7.694-4.315.132-.075.272-.16.418-.256.29-.189.594-.264.914-.225-.15-.543-.456-.951-.917-1.225-.444-.262-.993-.478-1.647-.648ZM12.687 9.52l-.002-.009.002.01ZM5.984 7.497v-.03.03Z" clip-rule="evenodd"/><path d="m6.88 8.177 1.506.477.484.149c-.12.226-.28.416-.476.568a.055.055 0 0 0-.023.046v.028a.113.113 0 0 1-.034.09l-1.33 1.332a1.328 1.328 0 0 0-.172.218 1.116 1.116 0 0 1-.177.22c-.053.047-.108.039-.166-.023-.205-.21-.385-.338-.538-.385a27.686 27.686 0 0 1-1.153-.382c-.042-.037-.022-.104.059-.2a.275.275 0 0 1 .092-.07.625.625 0 0 0 .216-.161c.228-.272.437-.492.629-.66a.108.108 0 0 0 .041-.084.098.098 0 0 1 .024-.07.441.441 0 0 1 .148-.123.12.12 0 0 0 .053-.053.793.793 0 0 1 .333-.335.165.165 0 0 0 .068-.066c.048-.088.103-.166.164-.233a.094.094 0 0 1 .084-.03c.096.013.152-.071.167-.253Z"/><path d="m8.87 8.804 2.958.943c-.002.02.002.032.01.037.007.004.008.008.002.012a.065.065 0 0 1-.03.016.098.098 0 0 0-.05.026l-.538.532a.06.06 0 0 0-.018.044v.048a.068.068 0 0 1-.024.053c-.052.045-.1.094-.145.146a.098.098 0 0 1-.065.035.119.119 0 0 0-.104.093c-.007.027-.025.041-.053.042-.03.001-.043.017-.043.046.002.027-.011.042-.038.046-.04.005-.062.028-.067.069-.003.022-.016.034-.04.034-.034 0-.05.016-.052.05 0 .027-.014.042-.04.044-.034.004-.053.022-.06.054a.136.136 0 0 1-.038.072c-.256.253-.52.517-.79.791a.133.133 0 0 0-.04.09.127.127 0 0 1-.038.084l-.74.739a.16.16 0 0 1-.08.045c-.028.006-.044.024-.046.053a.127.127 0 0 1-.04.084c-.198.192-.394.388-.587.59a.068.068 0 0 0-.017.03.2.2 0 0 0-.004.04.143.143 0 0 1-.032.084c-.19.233-.398.47-.626.711a.893.893 0 0 1-.19.155c-.089.052-.127.133-.116.241.001.01.003.01.005 0 .016-.08.003-.144-.039-.194-.025-.824-.048-1.651-.067-2.48-.008-.379-.178-.702-.51-.97.03-.005.034-.023.014-.056.058.062.113.07.166.024a1.11 1.11 0 0 0 .177-.221c.056-.087.114-.16.172-.219l1.33-1.332a.113.113 0 0 0 .035-.09.385.385 0 0 1-.001-.027c0-.019.008-.034.023-.046.197-.152.355-.342.476-.568Z"/><path d="m11.828 9.747.597.18 2.403.763-.75.755a.075.075 0 0 0-.021.043.091.091 0 0 0 0 .027.101.101 0 0 1-.03.086l-1.291 1.292c-.04.04-.032.059.024.058l.064-.001c.03 0 .054.012.072.037a.021.021 0 0 1 .004.017c-.012.046.008.07.06.075.169.013.246.064.232.153a30.5 30.5 0 0 0-1.292-.387c-.296-.082-.68-.142-.841.096a116.062 116.062 0 0 1-3.093 4.33c-.136.183-.21.41-.277.626-.01.027 0 .047.026.059.02.008.044.006.075-.007l-.094.42a.655.655 0 0 0-.012.283.346.346 0 0 0 .032.125l.135.37-.067-.048c-.04-.029-.074-.022-.1.02-.01.017-.025.023-.046.02a.04.04 0 0 0-.045.026c-.008.027-.006.04.007.038.03-.002.038.01.024.038a1.226 1.226 0 0 0-.128.378.167.167 0 0 1-.047.09c-.052.055-.065.115-.041.18a.11.11 0 0 1-.001.083.678.678 0 0 1-.202.247l-.15-5.43c.042.05.055.115.039.194-.002.01-.004.01-.005 0-.011-.108.027-.189.115-.241a.893.893 0 0 0 .191-.155c.228-.241.437-.478.626-.71a.143.143 0 0 0 .032-.085.2.2 0 0 1 .004-.04.068.068 0 0 1 .018-.03c.192-.202.388-.398.586-.59a.127.127 0 0 0 .04-.083c.002-.03.018-.048.046-.054a.16.16 0 0 0 .08-.045l.74-.738a.127.127 0 0 0 .039-.085.133.133 0 0 1 .04-.09c.27-.274.533-.538.789-.79a.135.135 0 0 0 .038-.073c.007-.032.026-.05.06-.053.026-.003.04-.018.04-.046.001-.032.018-.049.053-.049.023 0 .036-.011.039-.034.005-.041.027-.064.067-.07.027-.003.04-.018.038-.045 0-.03.014-.045.043-.046.028 0 .046-.015.053-.042a.119.119 0 0 1 .104-.093.097.097 0 0 0 .065-.035c.045-.052.093-.1.145-.146a.068.068 0 0 0 .025-.053v-.048a.06.06 0 0 1 .017-.044l.539-.532a.1.1 0 0 1 .05-.026.065.065 0 0 0 .029-.016c.006-.004.005-.008-.001-.012-.009-.005-.013-.017-.011-.037Z"/><path d="M14.828 10.69c.642.198 1.382.394 1.92.68.771.411 1.346.998 1.724 1.76l-1.817 1.777a.048.048 0 0 0-.015.034l-.001.029a.123.123 0 0 1-.038.09l-.725.728a.113.113 0 0 0-.035.082v.082c0 .049-.023.065-.069.05a.096.096 0 0 0-.054-.004.16.16 0 0 0-.078.039 6.103 6.103 0 0 0-.55.57.124.124 0 0 0-.028.06.19.19 0 0 1-.052.1c-.472.477-.933.94-1.383 1.387a.493.493 0 0 0-.07.087l-.061.097a.712.712 0 0 1-.106.132l-1.251 1.252a1.528 1.528 0 0 0-.044.064c-.034.05-.11.09-.227.12-.025-.396.01-.657.103-.781.102-.137.207-.272.315-.405a397.732 397.732 0 0 1 3.197-3.871c.093-.111.123-.221.09-.33.03-.334-.128-.557-.476-.669-.642-.207-1.276-.413-1.904-.618.013-.089-.064-.14-.233-.153-.052-.005-.072-.03-.06-.075a.021.021 0 0 0-.004-.017.084.084 0 0 0-.072-.037l-.064.001c-.056 0-.064-.019-.024-.058l1.291-1.292a.102.102 0 0 0 .03-.086.091.091 0 0 1 0-.027.075.075 0 0 1 .022-.042l.749-.756ZM2.603 11.534l.21 4.023c-.064.044-.09-.007-.08-.154.004-.04.001-.04-.008-.001a.069.069 0 0 1-.06.055c-.036.006-.054.028-.053.064a.085.085 0 0 1-.026.065c-.207.202-.408.402-.601.6a.047.047 0 0 0-.014.028v.026a.105.105 0 0 1-.032.09c-.367.367-.75.75-1.15 1.146a.373.373 0 0 1-.158.094c-.035.01-.074.003-.118-.022L.34 14.082c.071.017.107-.014.109-.091 0-.02.007-.038.021-.052l1.558-1.565a.058.058 0 0 0 .018-.042v-.05c0-.017.006-.03.018-.042.216-.194.395-.429.539-.706Z"/><path fill-rule="evenodd" d="M82.853 10.636h-1.176a.25.25 0 0 0-.25.25v1.053c0 .139.112.25.25.25h1.176a.25.25 0 0 0 .25-.25v-1.053a.25.25 0 0 0-.25-.25Zm-32.616 6.793h-2.688c-.034 0-.054.016-.062.049l-.554 2.315a.257.257 0 0 1-.248.196H45.41a.214.214 0 0 1-.171-.085.217.217 0 0 1-.038-.188 673.948 673.948 0 0 0 1.833-7.028c.167-.655.32-1.075.459-1.26.315-.42.817-.618 1.507-.594.598.02 1.028.215 1.29.582.144.2.284.568.422 1.103.674 2.61 1.299 5 1.873 7.168.053.201-.024.302-.231.302h-1.235a.269.269 0 0 1-.261-.206l-.55-2.3c-.009-.036-.032-.054-.07-.054Zm-2.053-2.871c-.113.473-.226.949-.346 1.427-.01.044.007.065.051.065h2.025c.035 0 .048-.017.04-.051l-.882-3.616a.17.17 0 0 0-.14-.126c-.127-.018-.192.062-.221.172-.186.702-.356 1.412-.527 2.128Zm12.828.929v3.045c0 .04-.02.062-.06.065a9.17 9.17 0 0 1-1.238.028c-1.04-.054-1.436-1.18-1.452-2.102a62.14 62.14 0 0 1 0-2.16c.021-1.103.48-2.106 1.735-2.085.922.014 1.736.05 2.443.104.164.014.246-.062.246-.227v-.878a.223.223 0 0 0-.185-.22 17.643 17.643 0 0 0-1.983-.22c-.792-.045-1.436.03-1.933.222-1.433.556-2.02 1.943-2.028 3.415-.004.69-.003 1.38.004 2.069.02 1.919 1.201 3.497 3.207 3.542a14.16 14.16 0 0 0 2.689-.197.275.275 0 0 0 .23-.27v-4.131a.245.245 0 0 0-.244-.244h-1.188a.243.243 0 0 0-.243.244Zm-21.243-.54c0 .058.018.064.052.017l2.93-3.945a.218.218 0 0 1 .177-.089l1.583.001a.125.125 0 0 1 .098.046c.067.08.058.175-.027.284a4818.783 4818.783 0 0 1-3.107 4.02c-.016.02-.017.04-.001.061 1.045 1.472 2.083 2.932 3.114 4.38a.33.33 0 0 1 .054.12.12.12 0 0 1-.117.147h-1.73a.289.289 0 0 1-.241-.13l-2.728-4.07c-.038-.057-.057-.051-.057.018v3.935a.246.246 0 0 1-.246.247h-1.206a.246.246 0 0 1-.246-.247v-8.566a.246.246 0 0 1 .246-.246h1.206a.246.246 0 0 1 .246.246v3.77ZM65.077 19.8c.92.48 2.011.335 2.932-.214.054-.033.075-.018.062.044-.028.143.009.25.11.325a.158.158 0 0 0 .098.033h1.058a.246.246 0 0 0 .245-.248 207.1 207.1 0 0 1 .004-3.928c.008-.703-.053-1.212-.183-1.525-.406-.987-1.428-1.286-2.432-1.291-.757-.004-1.47.063-2.138.2-.135.029-.202.112-.202.249v.801a.183.183 0 0 0 .2.183 21.259 21.259 0 0 1 2.217-.099c.955.01.978.727.925 1.473-.003.036-.022.054-.058.053-1.25-.03-3.284-.077-3.614 1.534-.166.809-.055 1.975.776 2.41Zm2.858-1.338c-.457.287-1.93.675-2.066-.14-.114-.679.033-1.249.797-1.346a6.883 6.883 0 0 1 1.256-.033c.038.002.056.022.056.06v1.382c0 .034-.014.06-.043.077Zm4.83-4.932c.743-.487 1.57-.678 2.42-.425.228.068.43.195.607.383a.094.094 0 0 0 .116.017 3.873 3.873 0 0 1 2.412-.479c1.256.168 1.593 1.24 1.595 2.337.003 1.46.003 2.92.002 4.38a.246.246 0 0 1-.246.245h-1.088a.269.269 0 0 1-.269-.27c.005-1.577.005-3.015 0-4.315-.001-.277-.047-.728-.303-.894-.445-.285-1.262-.068-1.705.149a.07.07 0 0 0-.043.075c.012.17.019.333.02.487.021 1.415.024 2.924.01 4.527a.244.244 0 0 1-.242.24h-1.106a.246.246 0 0 1-.246-.246c.002-1.405 0-2.892-.005-4.462-.001-.262-.055-.48-.16-.655-.171-.28-.68-.282-.94-.205a3.356 3.356 0 0 0-.793.36.095.095 0 0 0-.047.086v4.876a.247.247 0 0 1-.246.247H71.4a.246.246 0 0 1-.246-.247v-6.418a.228.228 0 0 1 .227-.227c.309 0 .66 0 1.052-.003.216-.002.296.196.259.388-.014.074.01.09.073.05Zm13.591-.004c-.067.042-.092.024-.075-.054.035-.169-.042-.377-.24-.377h-1.055a.244.244 0 0 0-.245.243v6.403a.247.247 0 0 0 .247.247h1.083a.27.27 0 0 0 .27-.271v-4.825c0-.037.016-.064.047-.083.53-.338 1.066-.486 1.61-.444.652.05.772.466.775 1.032.007 1.46.009 2.902.004 4.325a.263.263 0 0 0 .163.245c.033.014.067.02.102.02h1.085a.249.249 0 0 0 .25-.247c.007-1.804.004-3.291-.008-4.463a3.544 3.544 0 0 0-.172-1.027c-.22-.697-.692-1.1-1.417-1.21-.882-.132-1.69.03-2.424.486Zm-3.531-.432h-1.113a.244.244 0 0 0-.244.244v6.405c0 .134.109.244.244.244h1.112c.135 0 .245-.11.245-.244v-6.405a.244.244 0 0 0-.245-.244Zm15.11.97v-.717c-.05-.132-.16-.248-.307-.249-1.002-.006-2.02-.005-3.053.002-1.726.012-2.962.876-2.72 2.76.048.368.19.688.423.961.025.029.023.056-.006.082-.604.546-.536 1.511.082 2.036.03.026.03.051 0 .078-.475.413-.68.948-.615 1.604.14 1.415 1.565 1.783 2.803 1.82 1.265.04 3.114-.119 3.221-1.776.05-.785-.247-1.323-.893-1.613a7.996 7.996 0 0 0-1.5-.474c-.667-.151-1.294-.3-1.88-.448a.353.353 0 0 1-.265-.362l.003-.045c.012-.208.119-.285.32-.231.812.219 1.648.22 2.509.004.816-.205 1.317-.674 1.504-1.407.164-.644.103-1.203-.183-1.677-.02-.034-.012-.056.026-.068.204-.066.381-.16.531-.28Zm-2.145.56a.941.941 0 0 1 .272.667v.207a.941.941 0 0 1-.947.936l-.764-.004a.941.941 0 0 1-.936-.946v-.207a.941.941 0 0 1 .947-.936l.764.004c.25.001.488.102.664.279Zm-2.125 4.864c.721.149 1.39.318 2.005.508.21.064.465.19.49.44.072.708-.556.758-1.06.79-.539.033-1.667.05-1.774-.616-.069-.434.018-.798.26-1.093a.075.075 0 0 1 .08-.029Z" clip-rule="evenodd"/><path d="M18.472 13.13c.207.417.314.808.32 1.173.02 1.36.018 2.974-.008 4.842 0 .051-.026.074-.077.068-.052-.006-.084.017-.097.069a.143.143 0 0 1-.061.085 1.72 1.72 0 0 0-.446.397 6.758 6.758 0 0 1-.2.245 108 108 0 0 0-.567.673c-.45.465-.917.947-1.404 1.447a5.98 5.98 0 0 1-.48.441c-.333.275-.65.579-.954.913a.086.086 0 0 0-.024.064c0 .009 0 .017.002.026a.019.019 0 0 1-.005.02 5.207 5.207 0 0 0-.248.273c-.004.006-.041.04-.11.102a.314.314 0 0 0-.1.237l-2.145-4.299c.118-.03.193-.07.227-.12l.044-.064 1.251-1.253a.708.708 0 0 0 .106-.132l.062-.097a.488.488 0 0 1 .069-.087c.45-.447.911-.91 1.383-1.387a.19.19 0 0 0 .052-.1.125.125 0 0 1 .029-.06 6.09 6.09 0 0 1 .55-.57.16.16 0 0 1 .077-.039.095.095 0 0 1 .054.004c.046.016.07 0 .07-.05v-.08c0-.033.01-.06.034-.084l.725-.727a.123.123 0 0 0 .038-.09v-.03c.001-.012.007-.024.016-.033l1.817-1.777ZM30.93 9.455a72.43 72.43 0 0 0 .04-3.04c-.212-.04-.352.014-.419.158a.648.648 0 0 1-.173.247.118.118 0 0 0-.05.114c.004.05-.016.081-.061.091-.024.006-.037.021-.037.046v.05c0 .031-.01.058-.033.08l-.135.13a.09.09 0 0 0-.027.088c.008.035-.004.061-.035.078a.104.104 0 0 0-.06.078.35.35 0 0 1-.18.246.047.047 0 0 0-.024.046c0 .01.002.019.003.028a.096.096 0 0 1-.03.088l-.14.137a.078.078 0 0 0-.023.077c.01.046-.008.078-.053.095a.061.061 0 0 0-.042.057c-.008.105-.066.187-.174.249a.071.071 0 0 0-.032.08c.014.05-.001.086-.047.11a.086.086 0 0 0-.049.07c-.013.1-.071.181-.175.24a.052.052 0 0 0-.026.049l.002.012.001.014a.102.102 0 0 1-.026.08l-.14.15a.12.12 0 0 0-.032.092c.003.046-.02.078-.067.095a.108.108 0 0 0-.06.058.765.765 0 0 1-.138.208.12.12 0 0 0-.028.115c.01.04-.002.068-.036.085a.11.11 0 0 0-.059.08.359.359 0 0 1-.177.244.053.053 0 0 0-.026.046v.03a.096.096 0 0 1-.029.088l-.139.135a.089.089 0 0 0-.026.086c.007.036-.006.064-.039.081a.108.108 0 0 0-.057.08.35.35 0 0 1-.177.241.049.049 0 0 0-.026.047l.002.03a.102.102 0 0 1-.031.089l-.137.133a.09.09 0 0 0-.028.085c.008.041-.007.07-.044.088-.037.017-.053.046-.048.086.006.063-.02.104-.078.123a.082.082 0 0 0-.06.075c-.013.133-.001.27.036.411l.234 1.619a.268.268 0 0 0 .031.093c.058.102.067.21.076.32.008.09.016.184.052.276.028.07.032.138.036.207.005.07.009.14.037.213.049.127.074.266.075.418 0 .061.02.113.04.164.02.051.038.1.035.156-.008.135.023.251.057.377.018.067.036.137.05.214.03.163.057.332.08.508.017.126.043.244.078.354.035.112.054.23.056.356 0 .04.011.075.032.109.045.071.049.165.052.259a.755.755 0 0 0 .028.214c.02.058.036.117.048.176.05.243.093.491.128.743.013.09.034.179.063.266a.858.858 0 0 1 .034.212c.005.059.01.118.022.176.095.412.175.824.242 1.235 0 .006.032.15.095.433.06.267.054.538-.019.812 0 .162-.083.32-.245.474l-1.323 1.05a.212.212 0 0 1-.34-.131l-.512-3.096a.042.042 0 0 0-.026-.033.044.044 0 0 0-.042.005l-.686.504-1.494 1.105a.135.135 0 0 0-.052.084c-.24 1.35-.483 2.756-.727 4.216-.056.328-.242.574-.516.788l-1.1.86c-.172.136-.397.056-.416-.174-.01-.122-.005-.23.014-.326.593-3.008 1.178-6.017 1.754-9.027a.168.168 0 0 1-.055-.079c-.012-.031-.032-.038-.06-.02-.01.008-.014.016-.014.026a.116.116 0 0 1-.063.118c-.047.025-.062.064-.046.116.016.047 0 .077-.05.087-.044.01-.061.038-.051.084a.088.088 0 0 1-.028.089l-.148.14a.057.057 0 0 0-.019.044v.058a.058.058 0 0 1-.019.044l-.15.143a.08.08 0 0 0-.025.08c.01.045-.007.076-.05.093a.065.065 0 0 0-.044.058c-.008.103-.064.185-.169.246-.033.02-.044.047-.034.084.011.047-.003.081-.044.104a.102.102 0 0 0-.054.078.336.336 0 0 1-.175.239.049.049 0 0 0-.026.046l.003.028a.095.095 0 0 1-.03.088l-.14.136a.088.088 0 0 0-.025.084c.009.043-.008.072-.049.088a.065.065 0 0 0-.044.06c-.009.103-.066.185-.172.246-.032.019-.043.046-.032.083.014.049-.002.083-.046.104a.076.076 0 0 0-.047.061.35.35 0 0 1-.184.258.036.036 0 0 0-.02.034v.051a.107.107 0 0 1-.033.08l-.139.135a.077.077 0 0 0-.024.058v.042c0 .036-.016.06-.048.076-.05.023-.075.064-.075.122-.001.031-.016.052-.045.063-.05.02-.09.051-.12.096-.213.317-.428.628-.645.933a.288.288 0 0 1-.276.132c-.031-.003-.049.011-.054.041l-.076.494-.003.396c0 1.48-.023 2.948-.071 4.407-.02.64.068 1.788.7 2.164a.93.93 0 0 0 .726.12c.24-.06.4-.072.477-.034.251-.17.409-.28.473-.331a818.012 818.012 0 0 0 7.376-5.995c1.225-1.006 1.286-2.6 1.342-4.056v-.02c.117-3.037.206-6.117.265-9.243.009-.436.028-1.091.058-1.967Z"/><path d="M24.915 18.54c.085.01.18-.035.283-.138l.593-.414c.224-.158.374-.342.33-.62a674.753 674.753 0 0 1-.47-2.974c-.015-.094-.041-.097-.078-.009a.81.81 0 0 0-.041.162 234.26 234.26 0 0 1-.62 3.444c-.047.17-.064.334-.052.489.003.035.021.055.055.06ZM2.814 15.557l.156 3.03-.08.855c-.003.042-.022.051-.059.03a.046.046 0 0 1-.023-.037c-.005-.034-.02-.04-.045-.014L1.67 20.515a.051.051 0 0 0-.017.033v.026a.092.092 0 0 1-.029.087 7.368 7.368 0 0 0-.207.203.437.437 0 0 1-.126.092.257.257 0 0 0-.129.152.222.222 0 0 1-.057.085l-.396.356-.196-4.001c.044.024.083.031.118.022a.373.373 0 0 0 .157-.094L1.94 16.33a.106.106 0 0 0 .032-.09v-.026a.047.047 0 0 1 .014-.029c.193-.197.394-.397.601-.6a.085.085 0 0 0 .026-.065c0-.036.017-.057.053-.063a.069.069 0 0 0 .06-.056c.01-.039.012-.039.009.001-.012.147.015.199.08.155Z"/><path d="m2.97 18.588.153 3.291a8.94 8.94 0 0 0-.006.068.124.124 0 0 1-.019.056c-.021.036-.052.045-.091.028a.069.069 0 0 0-.08.015l-.446.43a.05.05 0 0 0-.017.039v.057a.076.076 0 0 1-.023.055c-.246.23-.48.471-.7.725a.09.09 0 0 1-.059.029c-.021.002-.033.014-.034.036 0 .025-.01.049-.027.067l-.68.762a4.682 4.682 0 0 1-.122-.799c-.042-.622-.079-1.255-.11-1.897l.396-.357a.223.223 0 0 0 .057-.085.257.257 0 0 1 .13-.152.437.437 0 0 0 .125-.092c.07-.07.139-.138.207-.203a.092.092 0 0 0 .03-.087.112.112 0 0 1-.001-.026.051.051 0 0 1 .017-.033l1.093-1.094c.025-.025.04-.02.045.015.002.016.01.028.023.036.036.022.056.012.06-.03l.08-.854ZM7.851 19.147l.465.937 1.193 2.435c-.014.015-.027.023-.038.023-.016-.002-.023.006-.022.021 0 .01.004.02.01.03a.022.022 0 0 1 .001.021.022.022 0 0 1-.018.012c-.02.002-.034-.007-.04-.026-.019-.052-.043-.055-.073-.01a3.18 3.18 0 0 1-.593.66.055.055 0 0 0-.02.05.175.175 0 0 1 .001.027.116.116 0 0 1-.036.09c-.4.394-.792.787-1.178 1.177-.004.005-.01.008-.014.008a.045.045 0 0 1-.026-.004c-.01-.005-.013-.012-.009-.022.022-.054.01-.089-.037-.104l-.212-4.253a.678.678 0 0 0 .202-.247.11.11 0 0 0 0-.083c-.023-.066-.01-.125.042-.18a.167.167 0 0 0 .047-.09c.023-.136.065-.262.128-.379.014-.027.006-.04-.024-.037-.013.001-.015-.012-.007-.038a.04.04 0 0 1 .045-.027c.021.004.037-.002.047-.019.025-.042.058-.05.099-.02l.067.048Z"/><path d="M3.123 21.879c.05.436.081.871.094 1.306.008.257.043.45.106.579a1.3 1.3 0 0 0 .385.472c.17.202.409.336.715.402l2.066.731c-.019.03-.019.065 0 .108.016.035.043.047.08.038a.063.063 0 0 1 .053.01c.032.022.031.041-.003.058a.302.302 0 0 1-.203.026c-.034-.008-.048.005-.04.04.018.098.007.166-.065.237-.284.278-.56.555-.832.83a.043.043 0 0 0-.013.032l.001.03a.105.105 0 0 1-.031.081c-.18.18-.354.35-.525.513a.253.253 0 0 1-.149.07.194.194 0 0 1-.143-.043c-.051-.042-.119-.047-.204-.013a144.38 144.38 0 0 1-1.559-.59c-1.072-.415-1.695-1.464-1.914-2.55l.68-.762a.104.104 0 0 0 .026-.067c.001-.022.013-.035.034-.037a.09.09 0 0 0 .058-.03 10 10 0 0 1 .7-.724.076.076 0 0 0 .024-.055v-.057a.05.05 0 0 1 .017-.038l.446-.43a.069.069 0 0 1 .08-.015c.04.017.07.007.091-.028a.124.124 0 0 0 .019-.056l.006-.068Z"/><path d="m9.51 22.52 1.673 3.418c-.26.325-.471.565-.633.72a.17.17 0 0 0-.061.116.127.127 0 0 1-.039.085l-1.6 1.602a.103.103 0 0 0-.031.086c.003.034-.013.06-.047.075a.156.156 0 0 0-.06.051c-.083.117-.208.163-.375.138l-3.922-1.424c.085-.034.153-.03.203.012.039.033.09.048.144.043a.253.253 0 0 0 .149-.07c.17-.162.346-.333.525-.512a.105.105 0 0 0 .031-.082v-.03c0-.012.004-.023.012-.031.271-.276.548-.552.832-.83.072-.071.083-.14.064-.237-.007-.035.007-.049.041-.04.07.014.138.006.203-.026.034-.017.035-.036.003-.058a.063.063 0 0 0-.053-.01c-.037.009-.064-.004-.08-.039-.019-.042-.019-.078 0-.107.674.103 1.014-.23.928-.898.047.016.06.05.037.104-.004.01 0 .017.009.022.01.004.018.005.026.004.005 0 .01-.003.014-.008.386-.39.779-.782 1.178-1.178a.116.116 0 0 0 .036-.088c0-.01 0-.018-.002-.027a.055.055 0 0 1 .021-.05c.227-.19.425-.411.593-.66.03-.046.054-.043.073.01.006.018.02.027.04.026a.022.022 0 0 0 .018-.012.022.022 0 0 0-.001-.022.061.061 0 0 1-.01-.03c-.001-.015.006-.022.022-.02.01 0 .024-.008.038-.023ZM19.584 24.41c0 1.479-.023 2.948-.071 4.406-.02.64.068 1.788.7 2.165a.93.93 0 0 0 .726.12c.24-.06.4-.072.477-.034a5.217 5.217 0 0 1-2.553.934h-.784a8.432 8.432 0 0 1-1.525-.295c.17-.06.336-.107.5-.14.236-.05.402-.095.495-.137.93-.42 1.304-1.3 1.29-2.294-.013-.938-.014-1.929 0-2.971 0-.032.016-.052.047-.06a.252.252 0 0 0 .185-.173.495.495 0 0 1 .18-.242.068.068 0 0 0 .03-.064c0-.013-.008-.018-.021-.017h-.012a.026.026 0 0 1-.01-.006.026.026 0 0 1-.008-.021.12.12 0 0 1 .079-.11c.018-.007.025-.021.02-.04-.016-.06 0-.103.05-.133a.078.078 0 0 0 .04-.077c-.024-.317.03-.587.165-.81Z"/></g><defs><clipPath id="a"><path fill="#fff" d="M.065.001h97.87v32H.066z"/></clipPath></defs></svg>