<svg width="112" height="24" viewBox="0 0 112 24" fill="none" xmlns="http://www.w3.org/2000/svg">
<g clip-path="url(#clip0_4717_8412)">
<path fill-rule="evenodd" clip-rule="evenodd" d="M6.15553 15.9373C5.215 15.9338 4.27427 15.9303 3.33387 15.9456C2.65478 15.9491 2.00969 16.4803 1.90621 17.1579C1.54496 18.7769 1.18164 20.3955 0.816889 22.0143C0.802567 22.0792 0.787552 22.1441 0.772532 22.209C0.713119 22.4657 0.653611 22.7229 0.636468 22.9872V23.0923C0.604998 23.578 1.08868 23.9205 1.53646 23.9194C2.1911 23.9216 2.84589 23.9213 3.50067 23.9211C4.07841 23.9208 4.65614 23.9206 5.23378 23.922C5.9004 23.9328 6.56847 23.4626 6.71593 22.8002C6.82968 22.2907 6.94368 21.7812 7.05768 21.2717C7.37983 19.8319 7.70197 18.3921 8.01863 16.9515C8.1046 16.5712 7.85675 16.1839 7.51543 16.027C7.33879 15.9354 7.13934 15.9373 6.9444 15.9392C6.90663 15.9396 6.86904 15.9399 6.83181 15.9396C6.6064 15.939 6.38097 15.9382 6.15553 15.9373ZM102.939 0.00737804C102.56 0.00424352 102.181 0.00110128 101.806 0.0639092C100.524 0.234802 99.337 1.03184 98.7205 2.17215C98.3329 2.82274 98.1746 3.56078 98.0172 4.2943C97.9693 4.518 97.9214 4.74129 97.8671 4.96154C97.536 6.43187 97.2001 7.90114 96.8643 9.37041C96.4373 11.2383 96.0103 13.1061 95.5931 14.9762C95.5874 15.0015 95.5814 15.0269 95.5753 15.0522C95.5545 15.1393 95.5336 15.2267 95.5272 15.3165C95.5231 15.6073 95.7842 15.8881 96.0819 15.8716C96.4253 15.8723 96.7685 15.8722 97.1117 15.8721C97.5841 15.872 98.0564 15.8719 98.5289 15.8736C98.7566 15.8846 98.9991 15.8696 99.1913 15.7307C99.4689 15.5548 99.6182 15.241 99.661 14.9232C100.029 13.2911 100.401 11.6598 100.772 10.0285C101.304 7.69649 101.835 5.36444 102.356 3.03017C102.362 3.00182 102.368 2.97321 102.374 2.94453C102.402 2.8089 102.431 2.67158 102.504 2.55195C102.678 2.24761 103.023 2.05076 103.375 2.06374C103.902 2.06452 104.43 2.06408 104.957 2.06363C105.778 2.06294 106.6 2.06225 107.421 2.06621C107.76 2.05323 108.101 2.37456 108.023 2.72433C107.916 3.35368 107.771 3.97506 107.626 4.59626C107.551 4.92008 107.475 5.24386 107.405 5.56868C107.33 5.92195 106.99 6.20178 106.626 6.19333C105.715 6.20178 104.768 6.26276 103.945 6.69251C103.063 7.13777 102.359 7.9123 101.979 8.82125C101.825 9.17406 102.067 9.66727 102.475 9.67376C103.125 9.68613 103.775 9.68358 104.425 9.68102C104.825 9.67945 105.224 9.67788 105.624 9.67978C105.83 9.67726 106.059 9.73721 106.182 9.91614C106.344 10.1345 106.302 10.4283 106.249 10.6772C106.012 11.6636 105.791 12.6536 105.569 13.6436C105.452 14.1696 105.334 14.6956 105.214 15.221C105.155 15.5263 105.404 15.8711 105.724 15.8706C106.085 15.8747 106.446 15.8738 106.808 15.8729C106.93 15.8726 107.053 15.8723 107.175 15.8721C107.605 15.8981 107.994 15.5528 108.094 15.1465C108.36 13.9755 108.626 12.8045 108.893 11.6335C109.713 8.0298 110.533 4.42578 111.34 0.819431C111.362 0.674549 111.381 0.523126 111.345 0.379222C111.252 0.154867 111.013 0.00344326 110.772 0.00643053C109.066 0.00917347 107.36 0.00886677 105.654 0.00856009C104.861 0.0084176 104.069 0.00827511 103.276 0.0084385C103.164 0.00924111 103.051 0.00830992 102.939 0.00737804ZM87.4925 2.78382C87.5836 2.44899 87.8741 2.18317 88.2105 2.10623C89.004 2.06414 89.7992 2.07021 90.5945 2.07628C91.1404 2.08045 91.6862 2.08461 92.2314 2.07321C92.507 2.06425 92.8376 2.10072 93.005 2.35108C93.1435 2.546 93.0942 2.78689 93.0486 3.0092C93.0405 3.04905 93.0324 3.0883 93.0256 3.12659C92.8402 3.9521 92.6507 4.77715 92.4555 5.60015C92.4168 5.80555 92.2788 5.98391 92.0949 6.08038C91.7834 6.24476 91.43 6.24218 91.0844 6.23966C90.9992 6.23903 90.9145 6.23841 90.831 6.2403C89.6407 6.27676 88.4258 6.75797 87.6563 7.69093C87.3179 8.09169 86.9934 8.54241 86.913 9.07363C86.8718 9.41593 87.2035 9.71125 87.5337 9.70327C87.9694 9.70618 88.4053 9.70408 88.8414 9.70197C89.5228 9.69868 90.2044 9.69539 90.8856 9.71125C91.2291 9.72274 91.4223 10.118 91.3646 10.4253C91.2588 10.9458 91.1408 11.4637 91.0228 11.9816C90.9363 12.3611 90.8499 12.7406 90.7682 13.1212C90.7053 13.4476 90.4447 13.7189 90.1306 13.8173C90.0022 13.8616 89.867 13.8594 89.7335 13.8572C89.6998 13.8567 89.6663 13.8561 89.633 13.8563C88.9947 13.8531 88.3563 13.8537 87.718 13.8542C87.0585 13.8548 86.3991 13.8554 85.7398 13.8518C85.473 13.8428 85.1897 13.6474 85.1681 13.3666C85.1676 12.9818 85.2616 12.608 85.3551 12.2362C85.3757 12.1542 85.3963 12.0723 85.4158 11.9904C85.6279 11.0515 85.8411 10.1128 86.0543 9.17417C86.5378 7.04492 87.0213 4.9157 87.4925 2.78382ZM88.2699 0.0274144C87.8066 0.0316411 87.3432 0.0358691 86.8837 0.10089C86.1631 0.202302 85.4627 0.477647 84.8889 0.928416C84.2384 1.42858 83.7543 2.12719 83.4643 2.89074C83.3279 3.27203 83.2446 3.66741 83.1614 4.06278C83.1144 4.28559 83.0675 4.50841 83.0111 4.72869C82.6351 6.41935 82.2496 8.10776 81.8641 9.79619C81.4786 11.4848 81.093 13.1734 80.717 14.8642C80.7065 14.9142 80.6934 14.9641 80.6802 15.0141C80.6455 15.1455 80.6106 15.2776 80.6233 15.4144C80.663 15.6837 80.9158 15.9031 81.1893 15.9046C82.6302 15.9044 84.071 15.9044 85.5119 15.9044C86.9528 15.9044 88.3938 15.9044 89.8349 15.9041C91.1493 15.8642 92.4642 15.1615 93.1235 14.0057C93.6009 13.1637 93.8502 12.2173 94.0392 11.2738C94.0481 11.2267 94.0571 11.1794 94.0661 11.1322C94.1487 10.6999 94.2324 10.2622 94.185 9.82117C94.1242 9.0591 93.7627 8.30306 93.1297 7.85533C93.9161 7.51154 94.6393 6.93489 95.0039 6.14183C95.2733 5.59814 95.4412 5.01099 95.5803 4.42183C95.6908 3.94253 95.7961 3.4621 95.9014 2.98166C96.0483 2.31105 96.1953 1.64043 96.3564 0.972864C96.3657 0.930497 96.3766 0.888384 96.3874 0.846247C96.4104 0.757198 96.4334 0.668038 96.4414 0.576125C96.4435 0.278788 96.1674 0.0229114 95.8769 0.0139496C94.5651 0.0164729 93.2533 0.0161548 91.9414 0.0158367C90.9236 0.0155899 89.9057 0.0153432 88.8877 0.0164232C88.6821 0.0236542 88.476 0.0255342 88.2699 0.0274144ZM73.1324 0.00401841C72.7428 0.00332619 72.3528 0.00263329 71.9669 0.0613865C71.2634 0.158833 70.5722 0.401677 69.9969 0.824428C69.1599 1.4276 68.5784 2.35108 68.3307 3.34697C67.9049 5.26049 67.4685 7.17179 67.0321 9.08312C66.5653 11.1274 66.0985 13.1718 65.6447 15.219C65.5659 15.5273 65.8296 15.8636 66.1443 15.8766C66.5139 15.8785 66.8835 15.8777 67.2532 15.8768C67.7672 15.8757 68.2812 15.8745 68.7952 15.8806C69.2248 15.8856 69.6224 15.5483 69.7095 15.131C70.1026 13.3794 70.5002 11.6287 70.8977 9.87793C71.4043 7.64717 71.9108 5.41638 72.4083 3.18355C72.4153 3.15267 72.4221 3.12165 72.429 3.09056C72.4764 2.87464 72.5246 2.65572 72.638 2.46351C72.8497 2.08722 73.3812 1.96227 73.7551 2.15866C73.955 2.28108 74.0189 2.54793 73.9632 2.76533C73.4822 4.82763 73.0207 6.89441 72.5664 8.96268C72.4789 9.27248 72.7251 9.61777 73.0413 9.64929C73.2774 9.67161 73.514 9.66974 73.7507 9.66787C73.9484 9.66631 74.146 9.66474 74.3433 9.67726C74.7955 9.69523 75.2962 9.42793 75.411 8.96567C75.6446 7.95742 75.8717 6.9477 76.0987 5.93798C76.3464 4.83683 76.594 3.73567 76.8501 2.63641C76.9582 2.15515 77.5871 1.91782 78.0022 2.16365C78.1305 2.23514 78.1918 2.38554 78.2057 2.52645C78.2221 2.7414 78.174 2.95282 78.1265 3.16192C78.1174 3.2022 78.1082 3.24238 78.0996 3.28249C77.6602 5.26376 77.2084 7.24229 76.7566 9.2208C76.3005 11.2179 75.8444 13.2151 75.4012 15.215C75.3497 15.4829 75.5187 15.7977 75.7937 15.8592C76.0433 15.886 76.2938 15.8819 76.5443 15.8778C76.7095 15.8751 76.8747 15.8725 77.0396 15.8786C77.0691 15.8789 77.0989 15.8794 77.1291 15.8799C77.3932 15.8846 77.6772 15.8897 77.8894 15.7107C78.2168 15.4982 78.2945 15.0972 78.3641 14.7383C78.3683 14.7166 78.3725 14.6951 78.3767 14.6738C78.5133 14.0718 78.6499 13.4698 78.7866 12.8677C79.701 8.83904 80.6155 4.81028 81.5143 0.778486C81.5158 0.767206 81.5174 0.755849 81.519 0.744432C81.5363 0.619271 81.5546 0.486897 81.4994 0.369229C81.3959 0.135861 81.1342 0.000920381 80.886 0.00344411C80.2739 0.00318994 79.6619 0.00275703 79.0498 0.00232411C77.1814 0.00100253 75.3129 -0.000319115 73.4441 0.00344411C73.3403 0.00438763 73.2364 0.00420304 73.1324 0.00401841ZM58.2076 0.00981754C57.8087 0.00567371 57.4096 0.00152823 57.0125 0.0358919C56.2827 0.12036 55.5616 0.356251 54.9595 0.782968C54.3389 1.2137 53.8584 1.82784 53.5385 2.50894C53.297 3.00266 53.1744 3.54037 53.0606 4.07504C52.6709 5.807 52.2753 7.53774 51.8797 9.26852C51.4299 11.2366 50.9801 13.2046 50.5389 15.1746C50.4297 15.5178 50.7434 15.9101 51.1044 15.8716C51.5818 15.873 52.0593 15.8727 52.5369 15.8724C52.926 15.8722 53.3152 15.8719 53.7044 15.8726C54.136 15.8831 54.5192 15.5283 54.6083 15.1176C55.0046 13.3592 55.4045 11.6017 55.8044 9.84412C56.3404 7.48801 56.8765 5.1319 57.404 2.77383C57.5059 2.35556 57.9257 2.04823 58.3547 2.0627C58.7945 2.06303 59.2344 2.06243 59.6743 2.06183C60.5996 2.06056 61.5251 2.05929 62.4509 2.06672C62.7749 2.0712 63.0875 2.38456 63.0175 2.71882C62.9084 3.35978 62.7606 3.99295 62.6128 4.62619C62.5392 4.94133 62.4656 5.2565 62.3968 5.57265C62.3232 5.91299 62.0028 6.18581 61.6531 6.19379C61.6182 6.19471 61.5834 6.19559 61.5484 6.19648C60.8935 6.2131 60.229 6.22996 59.6006 6.43015C58.4093 6.78095 57.4091 7.71241 56.9605 8.86822C56.8271 9.20851 57.0754 9.65228 57.4519 9.67077C58.0742 9.6854 58.6967 9.68275 59.3193 9.6801C59.7818 9.67813 60.2444 9.67616 60.707 9.68128C60.981 9.68024 61.2529 9.89564 61.2792 10.1749C61.3052 10.4658 61.231 10.748 61.1574 11.0275C61.1408 11.0909 61.1241 11.1542 61.1087 11.2174C60.9625 11.8584 60.8184 12.4998 60.6743 13.1413C60.5219 13.8198 60.3695 14.4984 60.2146 15.1765C60.1213 15.5053 60.3984 15.8961 60.7512 15.8711C60.9265 15.8699 61.1019 15.8714 61.2773 15.8729C61.6205 15.8759 61.9638 15.8788 62.3067 15.8616C62.7404 15.8187 63.071 15.4144 63.1215 14.9947C63.5004 13.3176 63.8817 11.641 64.2629 9.96448C64.9249 7.05366 65.5868 4.14283 66.2365 1.22921C66.2478 1.17793 66.2604 1.12634 66.273 1.07448C66.3281 0.848948 66.3844 0.618503 66.3374 0.387719C66.2525 0.169339 66.0264 0.0174002 65.793 0.00941694C63.4805 0.0109106 61.1674 0.011427 58.8543 0.0104484C58.639 0.0142988 58.4234 0.0120584 58.2076 0.00981754ZM45.0136 0.0118366C44.8995 0.0138105 44.785 0.0157899 44.6735 0.0408863C44.363 0.14884 44.0977 0.408218 44.0138 0.730483C43.3497 3.73135 42.6656 6.72776 41.9815 9.72404C41.5641 11.5521 41.1467 13.3801 40.7339 15.209C40.6515 15.5503 40.9683 15.9061 41.3141 15.8846C42.8632 15.8886 44.4124 15.8876 45.9612 15.8756C46.8501 15.8501 47.753 15.6098 48.4818 15.0876C49.1472 14.6119 49.6746 13.9403 49.9672 13.1762C50.0939 12.7964 49.7411 12.3902 49.3558 12.3996C48.8103 12.3928 48.2644 12.394 47.7185 12.3953C47.1815 12.3964 46.6446 12.3976 46.108 12.3912C45.9055 12.4007 45.7248 12.2553 45.6624 12.0679C45.5625 11.8235 45.6197 11.5576 45.6856 11.3133C46.0082 9.87085 46.3359 8.42954 46.6636 6.98825C47.1413 4.88749 47.619 2.78676 48.0806 0.682532C48.1795 0.338223 47.8473 -0.0100503 47.5063 0.00442256C47.1151 0.00792977 46.7238 0.00693041 46.3324 0.00593089C45.942 0.00493416 45.5517 0.00393727 45.1613 0.00740897C45.1123 0.0101302 45.063 0.0109829 45.0136 0.0118366ZM32.9224 0.00961398C32.5953 0.00798825 32.2673 0.00635827 31.9441 0.0619012C31.1361 0.170834 30.3615 0.515656 29.7454 1.05033C29.2772 1.44707 28.9229 1.96129 28.6581 2.51095C28.4337 2.99319 28.3077 3.51287 28.1923 4.02956C27.7832 5.86704 27.3631 7.70197 26.943 9.53693C26.5093 11.4317 26.0755 13.3264 25.6538 15.224C25.5848 15.5318 25.8497 15.8711 26.167 15.8706C26.6886 15.8736 27.2101 15.8731 27.7316 15.8725C28.0945 15.8722 28.4572 15.8718 28.8199 15.8726C29.2577 15.8871 29.6484 15.5273 29.7349 15.1096C30.127 13.3682 30.5232 11.6278 30.9194 9.88736C31.4552 7.53336 31.991 5.1794 32.5168 2.82327C32.5932 2.42051 32.962 2.09968 33.3688 2.0677C34.1724 2.05938 34.9759 2.06045 35.7796 2.06151C36.3248 2.06223 36.8701 2.06295 37.4154 2.06075C37.6643 2.04725 37.9446 2.12971 38.077 2.35705C38.1805 2.53262 38.1434 2.74279 38.1096 2.93461C38.1069 2.95027 38.1041 2.9658 38.1015 2.98119C37.9624 3.64219 37.812 4.30055 37.6615 4.95897C37.6152 5.16168 37.5688 5.36439 37.5228 5.56718C37.4504 5.91345 37.1231 6.1908 36.7673 6.19431C36.7179 6.19574 36.6685 6.19708 36.6191 6.19843C36.2201 6.2093 35.8203 6.22019 35.4246 6.27573C34.7415 6.37071 34.0754 6.61907 33.5172 7.02683C32.878 7.48955 32.3669 8.13464 32.083 8.87224C31.9551 9.20903 32.1965 9.64579 32.5667 9.67025C33.1257 9.68661 33.6848 9.68346 34.2439 9.68032C34.7959 9.67722 35.3479 9.67412 35.8998 9.68977C36.2971 9.70873 36.495 10.1785 36.398 10.5243C36.1808 11.4363 35.9755 12.3512 35.7701 13.2662C35.6283 13.8983 35.4864 14.5304 35.3406 15.1615C35.2522 15.4789 35.479 15.8446 35.8154 15.8692C36.1056 15.8794 36.3964 15.8778 36.6872 15.8763C36.8795 15.8753 37.0718 15.8742 37.264 15.8766C37.5313 15.8836 37.7957 15.7742 37.9781 15.5783C38.173 15.3737 38.2307 15.0919 38.2859 14.8221C38.2938 14.7835 38.3017 14.7452 38.3099 14.7073C38.5885 13.4787 38.8677 12.2503 39.1469 11.0218C39.8988 7.71398 40.6507 4.4061 41.3911 1.09529C41.3981 1.06487 41.4054 1.03435 41.4128 1.00375C41.4546 0.830272 41.497 0.653898 41.4745 0.474659C41.4446 0.205805 41.1717 0.0169383 40.9139 0.00993367C40.3502 0.0100461 39.7864 0.0102053 39.2227 0.0103644C37.2048 0.010934 35.1866 0.0115037 33.1684 0.00993367C33.0865 0.0104296 33.0045 0.0100219 32.9224 0.00961398ZM21.7236 0.00792374C21.5952 0.0064301 21.4663 0.0179162 21.3414 0.0499006C20.8247 0.178817 20.3729 0.593585 20.2535 1.12027C20.065 1.94515 19.8807 2.77091 19.6964 3.59668C19.4678 4.62086 19.2392 5.64504 19.0027 6.66753C18.9347 6.94638 18.8153 7.21173 18.6599 7.45257C18.1947 8.16565 17.4541 8.63985 16.6966 8.99518C15.6558 9.5172 14.4956 9.69516 13.355 9.87011C13.2607 9.88457 13.1666 9.899 13.0727 9.91361C12.9867 9.928 12.9003 9.94183 12.8138 9.95567C12.2723 10.0424 11.726 10.1298 11.2253 10.3604C10.912 10.5088 10.6016 10.7082 10.4252 11.017C10.0779 11.6001 10.1034 12.3932 10.5092 12.9409C10.6961 13.1972 10.9794 13.3576 11.2597 13.492C11.6847 13.6864 12.1399 13.7799 12.5952 13.8734C12.8621 13.9282 13.1291 13.983 13.39 14.0582C14.158 14.2626 14.8567 14.6764 15.4623 15.1835C15.9615 15.6353 16.1489 16.3169 16.2633 16.9575C16.3383 17.6786 16.2193 18.4027 16.0744 19.1077C15.9456 19.7069 15.81 20.3049 15.6744 20.9028C15.5227 21.5714 15.3711 22.24 15.2289 22.9105C15.1155 23.4126 15.5687 23.9344 16.0774 23.9179C16.812 23.9222 17.5466 23.9216 18.2811 23.9211C18.6962 23.9207 19.1113 23.9204 19.5264 23.921C19.5859 23.9203 19.646 23.921 19.7063 23.9218C19.9518 23.925 20.2004 23.9281 20.4304 23.8314C20.8861 23.6568 21.2574 23.2519 21.3578 22.7693C21.5004 22.0815 21.658 21.3966 21.8156 20.7117C22.1037 19.4597 22.3917 18.2076 22.5881 16.9375C22.745 15.8631 22.3507 14.7533 21.6397 13.9478C21.2639 13.5135 20.7822 13.1887 20.286 12.9074C19.4015 12.4157 18.4195 12.1168 17.4231 11.9579C17.3141 11.9409 17.2042 11.9281 17.0943 11.9153C16.8888 11.8915 16.6832 11.8676 16.4827 11.8155C16.3807 11.7995 16.3003 11.6856 16.3513 11.5876C16.4272 11.5042 16.5416 11.4742 16.6476 11.4487C17.7624 11.2288 18.8788 11.001 19.9651 10.6627C21.3074 10.2519 22.6031 9.63678 23.685 8.7323C24.4265 8.0922 24.9802 7.2227 25.1931 6.26276C25.3246 5.67414 25.457 5.08564 25.5895 4.49714C25.8252 3.44943 26.0609 2.40168 26.2919 1.35312C26.3009 1.31043 26.3108 1.26786 26.3207 1.22528C26.3439 1.12537 26.3672 1.02537 26.3784 0.92342C26.4099 0.453645 25.9906 0.0109106 25.5199 0.0159065C24.8351 0.00835222 24.1503 0.00941272 23.4654 0.0104733C22.8849 0.0113724 22.3043 0.0122715 21.7236 0.00792374ZM7.26275 0.00926883C7.07487 0.00831018 6.88578 0.00734531 6.70243 0.0534037C6.29565 0.169856 5.93336 0.455654 5.74697 0.838436C5.68046 0.972742 5.64886 1.11881 5.61739 1.26425C5.61104 1.29361 5.60469 1.32294 5.59807 1.35214C5.54105 1.6074 5.48403 1.86266 5.42702 2.11792C5.07732 3.68359 4.72765 5.24918 4.37576 6.81442C4.32132 7.0583 4.31632 7.33313 4.45822 7.5495C4.63715 7.84833 4.99943 7.98574 5.33519 7.98373C5.95847 7.9817 6.5816 7.98202 7.20473 7.98235C7.79564 7.98266 8.38655 7.98297 8.9776 7.98126C9.63068 7.97977 10.2778 7.52004 10.4342 6.8754C10.6396 5.9484 10.8473 5.02185 11.055 4.09527C11.2845 3.07138 11.5141 2.04745 11.7405 1.02282C11.8489 0.534611 11.4256 0.0149295 10.9269 0.0174017C10.2563 0.0080452 9.58586 0.00947749 8.91547 0.0109097C8.40495 0.0120003 7.89448 0.0130908 7.38399 0.00941694C7.34368 0.00968179 7.30324 0.00947546 7.26275 0.00926883ZM87.2051 18.3541C86.4483 18.3533 85.6916 18.3525 84.9353 18.3596C84.7271 19.4447 84.5096 20.5277 84.2921 21.6108C84.1357 22.3897 83.9793 23.1686 83.8264 23.9483C84.1036 23.9486 84.3809 23.9491 84.6582 23.9497C85.6747 23.9517 86.6914 23.9537 87.7083 23.9452C87.766 23.6475 87.8242 23.3498 87.886 23.0526C87.2783 23.0513 86.6705 23.0514 86.0625 23.0516C85.7151 23.0517 85.3677 23.0518 85.0203 23.0516C85.0612 22.8424 85.1032 22.6333 85.1452 22.4243C85.2019 22.142 85.2586 21.8597 85.3128 21.577C86.0699 21.5705 86.827 21.572 87.5841 21.5736C87.7216 21.5739 87.8592 21.5742 87.9967 21.5744C88.0544 21.2674 88.1131 20.9605 88.1754 20.6551C87.8791 20.6551 87.5828 20.655 87.2865 20.6549C86.6938 20.6548 86.1012 20.6547 85.5085 20.6551C85.55 20.4494 85.5912 20.2437 85.6324 20.0379C85.6853 19.7736 85.7382 19.5093 85.7918 19.2451C86.227 19.247 86.6621 19.2467 87.0972 19.2464C87.5951 19.246 88.093 19.2457 88.5911 19.2486C88.6152 19.1216 88.6414 18.9949 88.6676 18.8682C88.7031 18.6969 88.7386 18.5255 88.7688 18.3532C88.2476 18.3552 87.7263 18.3547 87.2051 18.3541ZM64.0905 19.5284C63.7958 21.0018 63.5011 22.475 63.2091 23.9488C63.3105 23.9488 63.412 23.9491 63.5135 23.9495C63.731 23.9503 63.9486 23.9511 64.166 23.9483C64.2576 23.4905 64.349 23.0325 64.4404 22.5745C64.6081 21.7344 64.7758 20.8941 64.9448 20.0545C65.132 21.0101 65.3214 21.9652 65.5107 22.9201C65.5788 23.2632 65.6468 23.6062 65.7148 23.9493C65.8122 23.9496 65.9095 23.9499 66.0068 23.9501C66.2019 23.9506 66.3969 23.951 66.5924 23.9524C67.0689 23.1574 67.5377 22.3579 68.0066 21.5583C68.3014 21.0556 68.5963 20.5527 68.8931 20.0509C68.7052 21.0034 68.5146 21.9554 68.3241 22.9071C68.2544 23.2547 68.1848 23.6023 68.1154 23.9498C68.4347 23.9503 68.7546 23.9503 69.0749 23.9498C69.199 23.3302 69.3223 22.7105 69.4456 22.0908C69.6935 20.8452 69.9413 19.5997 70.1952 18.3552C69.8914 18.3534 69.5876 18.3543 69.2835 18.3552L69.1486 18.3556C68.6599 19.1328 68.166 19.9066 67.672 20.6804C67.2633 21.3208 66.8545 21.9612 66.4487 22.6035C66.2221 21.6717 65.9918 20.7404 65.7614 19.8093C65.6415 19.3244 65.5215 18.8395 65.4021 18.3547C65.247 18.3534 65.0921 18.3538 64.9371 18.3543C64.7333 18.3549 64.5296 18.3556 64.3257 18.3522C64.2473 18.7443 64.1689 19.1364 64.0905 19.5284ZM44.973 20.7426C44.3056 21.8123 43.6381 22.8819 42.9739 23.9534C43.1488 23.9498 43.3237 23.9503 43.4987 23.9508C43.693 23.9513 43.8874 23.9519 44.0818 23.9467C44.6448 23.0108 45.2109 22.0768 45.7771 21.1427C45.8599 21.0061 45.9427 20.8695 46.0255 20.7328C46.1222 20.5791 46.2154 20.4231 46.3087 20.2671C46.4729 19.9924 46.6371 19.7177 46.8198 19.4555C46.9287 19.8906 47.0235 20.3293 47.1183 20.7679C47.1728 21.0198 47.2272 21.2717 47.2843 21.5229C47.1105 21.5269 46.9369 21.5264 46.7633 21.5259C46.5567 21.5253 46.3503 21.5247 46.144 21.5317C46.0399 21.7205 45.9296 21.9057 45.8193 22.0908C45.7533 22.2016 45.6874 22.3123 45.6228 22.4237C45.9054 22.4256 46.1881 22.4252 46.4708 22.4249C46.8074 22.4244 47.1441 22.424 47.4806 22.4273C47.5425 22.7197 47.6064 23.0117 47.6702 23.3037C47.7173 23.519 47.7644 23.7343 47.8107 23.9498C47.9899 23.9501 48.1692 23.9501 48.3484 23.9501C48.5276 23.9501 48.7069 23.9501 48.8861 23.9503C48.6701 23.0217 48.4536 22.0934 48.237 21.1651C48.0184 20.2276 47.7997 19.2901 47.5815 18.3522C47.2768 18.355 46.9725 18.3549 46.6684 18.3547C46.5994 18.3547 46.5303 18.3547 46.4613 18.3547C45.9661 19.1512 45.4695 19.9469 44.973 20.7426ZM107.311 18.5725C106.18 18.2367 104.913 18.1627 103.817 18.655C103.025 19.0413 102.609 20.0138 102.803 20.8606C102.897 21.2175 103.23 21.4596 103.579 21.5327C103.894 21.612 104.217 21.6045 104.539 21.5969C104.845 21.5898 105.151 21.5827 105.451 21.6496C105.639 21.6851 105.762 21.8731 105.768 22.057C105.769 22.4036 105.557 22.7291 105.256 22.8934C105 23.049 104.695 23.0641 104.405 23.0783L104.373 23.0799C103.721 23.1051 103.063 23.0052 102.449 22.7858C102.381 23.0984 102.322 23.4126 102.268 23.7278C103.079 23.9601 103.939 24.0714 104.78 23.9467C105.307 23.8813 105.841 23.6923 106.226 23.3122C106.575 22.9728 106.764 22.4953 106.814 22.0158C106.851 21.731 106.83 21.4225 106.662 21.1794C106.499 20.9172 106.2 20.7885 105.911 20.723C105.583 20.6482 105.25 20.6519 104.916 20.6557C104.648 20.6587 104.38 20.6618 104.116 20.6242C103.904 20.5917 103.788 20.3599 103.824 20.1622C103.826 19.7676 104.144 19.4495 104.501 19.3311C105.366 19.0972 106.294 19.2206 107.129 19.5163C107.138 19.4709 107.147 19.4255 107.156 19.3801C107.209 19.1113 107.262 18.8423 107.311 18.5725ZM29.9273 18.579C29.1373 18.2902 28.2718 18.2407 27.4458 18.3801C26.7037 18.5 25.9696 18.8399 25.4934 19.436C24.9212 20.1601 24.6789 21.1001 24.6833 22.0122C24.6364 22.7729 25.1041 23.5682 25.8527 23.7922C26.8376 24.1239 27.919 24.0327 28.8924 23.7062C29.0043 23.1926 29.1062 22.677 29.2082 22.1613C29.261 21.894 29.3139 21.6267 29.3681 21.3596C29.0233 21.3586 28.6785 21.3576 28.3337 21.3586C28.2826 21.609 28.2325 21.8597 28.1824 22.1104C28.1223 22.4108 28.0623 22.7112 28.0004 23.0114C27.4448 23.1046 26.8266 23.1505 26.3204 22.8553C25.9541 22.6503 25.7902 22.2156 25.7822 21.8129C25.7738 21.1315 25.9386 20.4109 26.3994 19.8892C26.6757 19.5704 27.075 19.3915 27.4772 19.2936C28.2293 19.1117 29.0283 19.2247 29.7384 19.5142C29.7984 19.2016 29.8593 18.8893 29.9273 18.579ZM7.75829 10.3424C7.23809 9.84262 6.48056 9.5798 5.76444 9.70974C4.85101 9.86364 4.06494 10.6077 3.88957 11.5206C3.79465 12.0828 3.8546 12.693 4.16239 13.1837C4.61012 13.9637 5.54962 14.4214 6.44008 14.304C6.88879 14.2376 7.32653 14.0542 7.66435 13.7479C8.18856 13.2796 8.49584 12.5716 8.45788 11.8679C8.4209 11.2973 8.17903 10.7351 7.75829 10.3424Z" fill="#919EAB"/>
</g>
<defs>
<clipPath id="clip0_4717_8412">
<rect width="110.73" height="24" fill="white" transform="translate(0.63501 0.000976562)"/>
</clipPath>
</defs>
</svg>
