<svg width="100" height="30" viewBox="0 0 100 30" fill="none" xmlns="http://www.w3.org/2000/svg">
<g clip-path="url(#clip0_4132_6849)">
<path fill-rule="evenodd" clip-rule="evenodd" d="M31.6897 0.000976562H36.0931L31.6138 11.5355C31.5908 11.5952 31.6109 11.6245 31.6741 11.6234L37.5828 11.6217C37.5947 11.6217 37.6064 11.6246 37.617 11.6302C37.6275 11.6357 37.6365 11.6437 37.6431 11.6534C37.6498 11.6632 37.6539 11.6743 37.6551 11.6859C37.6563 11.6975 37.6545 11.7092 37.65 11.7199L36.031 15.863H29.3086L29.5069 15.813C29.569 15.797 29.569 15.7809 29.5069 15.7648C28.1839 15.4176 27.381 14.6079 27.0983 13.3355C27.0856 13.2791 27.069 13.278 27.0483 13.332L26.9828 13.4975V11.8424L27.031 11.9717C27.0621 12.0498 27.0845 12.0475 27.0983 11.9648C27.1042 11.9333 27.1098 11.9002 27.1156 11.8662C27.1351 11.7511 27.1562 11.6267 27.1948 11.5268C28.6948 7.68776 30.1931 3.8458 31.6897 0.000976562ZM44.7069 0.000976562H46.1448L46.0017 0.0475283C45.9109 0.0762639 45.9115 0.103275 46.0035 0.128563C46.7563 0.328563 47.2224 0.786609 47.4017 1.5027C47.6213 2.37626 47.3977 3.09006 46.731 3.64408C45.1414 4.96994 42.8104 3.35615 43.5035 1.35615C43.731 0.700977 44.1816 0.29408 44.8552 0.135459C44.9402 0.115919 44.942 0.0906317 44.8604 0.0595973L44.7069 0.000976562ZM59.3983 0.000976562H57.8207L57.9879 0.0578731C58.1029 0.0969536 58.1 0.119942 57.9793 0.126839C56.8741 0.187183 55.9517 1.1096 55.5845 2.0458C54.5374 4.71707 53.5012 7.37914 52.4759 10.032C52.431 10.1481 52.3862 10.1481 52.3414 10.032L49.2207 2.02339C49.1782 1.91534 49.1546 1.91937 49.15 2.03546C49.0626 3.85155 48.127 5.05787 46.3431 5.65443C46.33 5.65867 46.3179 5.66553 46.3075 5.67459C46.2972 5.68365 46.2887 5.69473 46.2828 5.70714C46.2768 5.71955 46.2734 5.73305 46.2728 5.74681C46.2722 5.76057 46.2744 5.7743 46.2793 5.78718C47.3115 8.42167 48.3477 11.0774 49.3879 13.7544C49.7017 14.563 50.4345 15.451 51.3138 15.6372C51.908 15.7625 51.9891 15.8378 51.5569 15.863H53.3C53.2103 15.8447 53.1299 15.8205 53.0586 15.7906C52.9563 15.7458 52.9609 15.7257 53.0724 15.7303C54.0707 15.7734 55.0586 14.6924 55.3845 13.8596C56.4247 11.209 57.4655 8.54178 58.5069 5.85787C58.5575 5.72569 58.6086 5.72569 58.6603 5.85787C59.6856 8.50615 60.7293 11.1843 61.7914 13.8924C62.1925 14.9142 62.9523 15.5383 64.0707 15.7648C64.1397 15.7786 64.1402 15.7935 64.0724 15.8096L63.8345 15.863H65.669C65.5782 15.8274 65.4793 15.8073 65.3724 15.8027C65.3685 15.8017 65.365 15.7995 65.3624 15.7963C65.3599 15.7932 65.3584 15.7893 65.3582 15.7852C65.358 15.7812 65.3591 15.7772 65.3614 15.7738C65.3636 15.7704 65.3669 15.7679 65.3707 15.7665C66.496 15.5952 67.2764 14.955 67.7121 13.8458C69.5259 9.22856 71.3362 4.61362 73.1431 0.000976562H68.7241L64.831 9.99063C64.7782 10.1251 64.7259 10.1251 64.6741 9.99063C63.658 7.37569 62.6448 4.77512 61.6345 2.18891C61.2701 1.25557 60.6621 0.613046 59.8103 0.261321C59.5868 0.168524 59.3483 0.151402 59.109 0.134217C59.0548 0.130329 59.0006 0.126438 58.9466 0.121666C58.9449 0.121434 58.9431 0.120576 58.9418 0.11928C58.9404 0.117984 58.9395 0.116357 58.9393 0.114756C58.9391 0.113156 58.9395 0.111713 58.9405 0.110746C58.9416 0.109778 58.9431 0.109365 58.9448 0.109597L59.3983 0.000976562ZM40.25 15.8631H37.8621L42.3224 4.35275C42.3638 4.24585 42.4218 4.23608 42.4966 4.32344C43.2931 5.26367 44.2684 5.73838 45.4224 5.74758C45.75 5.75103 45.9339 5.7539 45.9741 5.7562C46.0339 5.75965 46.0609 5.79068 46.0552 5.8493C46.0253 6.12631 45.9667 6.37631 45.8793 6.5993C44.9023 9.08206 43.9402 11.5286 42.9931 13.939C42.5529 15.0573 41.6385 15.6987 40.25 15.8631ZM7.42417 27.6303L3.4621 27.632C3.37704 27.632 3.33451 27.5895 3.33451 27.5044L3.33624 20.1337C3.33624 20.074 3.30635 20.0441 3.24658 20.0441H0.701757C0.644286 20.0441 0.615551 20.0734 0.615551 20.132C0.613252 22.4987 0.609227 24.8429 0.60348 27.1648C0.600032 28.5182 0.941413 29.5406 2.45348 29.6441C3.54429 29.7188 5.20176 29.736 7.4259 29.6958C7.48222 29.6958 7.51038 29.6671 7.51038 29.6096L7.5121 27.7165C7.5121 27.6936 7.50284 27.6717 7.48635 27.6555C7.46986 27.6394 7.44749 27.6303 7.42417 27.6303ZM35.7311 21.3355C35.7311 22.0268 35.1707 22.5873 34.4793 22.5873C33.788 22.5873 33.2276 22.0268 33.2276 21.3355C33.2276 20.6442 33.788 20.0838 34.4793 20.0838C35.1707 20.0838 35.7311 20.6442 35.7311 21.3355ZM82.4535 24.9837C82.411 24.817 82.3673 24.817 82.3224 24.9837L81.0845 29.6044C81.0661 29.6745 81.0207 29.7084 80.9483 29.7061C80.7632 29.6985 80.5692 29.7046 80.3738 29.7108H80.3737C79.5535 29.7369 78.7088 29.7637 78.3983 28.7751C77.4305 25.6981 76.534 22.836 75.7087 20.1889C75.6949 20.1417 75.7121 20.1182 75.7604 20.1182L78.3207 20.1233C78.3794 20.1233 78.4161 20.1515 78.4311 20.2078L79.8707 25.8182C79.9052 25.9527 79.9403 25.9527 79.9759 25.8182L81.4759 20.2182C81.4931 20.1538 81.5357 20.1216 81.6035 20.1216H83.1121C83.1673 20.1216 83.2023 20.1486 83.2173 20.2027L84.7397 25.7768C84.7845 25.9412 84.8276 25.9406 84.869 25.7751L86.25 20.2251C86.2661 20.1561 86.3098 20.1216 86.3811 20.1216H88.8966C88.9041 20.1216 88.9116 20.1234 88.9183 20.1267C88.9251 20.13 88.931 20.1347 88.9355 20.1406C88.9374 20.143 88.939 20.1456 88.9403 20.1483C88.9422 20.1521 88.9436 20.1562 88.9444 20.1605C88.9457 20.1676 88.9453 20.175 88.9431 20.182L86.1104 29.5975C86.092 29.6584 86.0512 29.6906 85.988 29.694L85.8535 29.7011C84.8117 29.7563 83.7616 29.812 83.4294 28.6268C83.1064 27.4693 82.7811 26.255 82.4535 24.9837ZM91.8328 21.3285C91.8328 22.0208 91.2716 22.582 90.5794 22.582C89.8871 22.582 89.3259 22.0208 89.3259 21.3285C89.3259 20.6362 89.8871 20.0751 90.5794 20.0751C91.2716 20.0751 91.8328 20.6362 91.8328 21.3285ZM18.1087 25.2199V27.2578C18.1087 27.355 18.1469 27.4482 18.2153 27.5175C18.2837 27.5869 18.3766 27.6267 18.4742 27.6285L19.1983 27.6423C19.2799 27.6446 19.3207 27.686 19.3207 27.7664L19.3173 29.5802C19.3173 29.663 19.2759 29.7032 19.1931 29.7009C18.9862 29.695 18.7658 29.6995 18.54 29.704C17.8457 29.7181 17.0996 29.7332 16.5311 29.4509C15.5707 28.9768 15.5828 28.1595 15.6087 27.1492C15.6271 26.4595 15.6265 25.8073 15.6069 25.1923C15.6046 25.1233 15.569 25.0889 15.5 25.0889L15.1362 25.0906C15.1239 25.0908 15.1116 25.0886 15.1001 25.084C15.0886 25.0794 15.0781 25.0726 15.0693 25.0639C15.0605 25.0553 15.0535 25.0449 15.0487 25.0335C15.0439 25.0221 15.0414 25.0099 15.0414 24.9975L15.0431 23.2285C15.0431 23.1607 15.0771 23.1268 15.1449 23.1268L15.5397 23.1285C15.5609 23.1285 15.5812 23.1202 15.5964 23.1054C15.6115 23.0906 15.6203 23.0704 15.6207 23.0492L15.6276 21.1768C15.6276 21.1078 15.6621 21.0733 15.7311 21.0733H18.0259C18.0845 21.0733 18.1138 21.1032 18.1138 21.163L18.1121 23.0182C18.1121 23.0906 18.1483 23.1274 18.2207 23.1285L19.219 23.1302C19.2891 23.1302 19.3242 23.1659 19.3242 23.2371L19.3225 25.0009C19.3225 25.0607 19.2931 25.0906 19.2345 25.0906H18.2397C18.1523 25.0906 18.1087 25.1337 18.1087 25.2199ZM24.0431 23.132L23.0449 23.1268C22.9564 23.1256 22.9121 23.0808 22.9121 22.9923L22.9207 21.1733C22.9207 21.1067 22.8874 21.0733 22.8207 21.0733H20.5294C20.4696 21.0733 20.4397 21.1032 20.4397 21.163L20.4362 23.0147C20.4351 23.0952 20.3949 23.1348 20.3156 23.1337L19.9535 23.1285C19.9391 23.1283 19.9248 23.1309 19.9114 23.1363C19.898 23.1416 19.8858 23.1496 19.8756 23.1597C19.8653 23.1698 19.8571 23.1819 19.8516 23.1952C19.846 23.2085 19.8431 23.2227 19.8431 23.2371L19.8397 24.9595C19.8397 25.0469 19.8828 25.0906 19.969 25.0906L20.3156 25.0889C20.3312 25.0889 20.3466 25.0919 20.3611 25.0979C20.3755 25.1039 20.3886 25.1127 20.3997 25.1237C20.4107 25.1348 20.4195 25.1479 20.4255 25.1623C20.4314 25.1767 20.4345 25.1922 20.4345 25.2078C20.4265 26.1009 20.4207 27.0078 20.4173 27.9285C20.4138 29.1302 21.369 29.7009 22.469 29.694C22.9816 29.6894 23.4897 29.6917 23.9931 29.7009C24.0748 29.7021 24.1156 29.6618 24.1156 29.5802L24.119 27.7527C24.119 27.6802 24.0834 27.6435 24.0121 27.6423L23.288 27.6302C23.1867 27.6289 23.0901 27.5877 23.0188 27.5154C22.9475 27.4432 22.9074 27.3457 22.9069 27.244L22.9018 25.194C22.9018 25.1251 22.9368 25.0906 23.0069 25.0906H24.0311C24.0989 25.0906 24.1328 25.0567 24.1328 24.9889L24.138 23.2285C24.138 23.1641 24.1064 23.132 24.0431 23.132ZM53.9759 23.1424L54.9414 23.1338C54.9623 23.1336 54.983 23.1376 55.0024 23.1455C55.0217 23.1535 55.0393 23.1653 55.0541 23.1803C55.0689 23.1952 55.0805 23.213 55.0884 23.2325C55.0963 23.2521 55.1003 23.273 55.1 23.2942L55.0742 24.97C55.0737 25.0013 55.061 25.0311 55.0387 25.053C55.0165 25.075 54.9865 25.0873 54.9552 25.0873H53.9966C53.9765 25.0873 53.9566 25.0912 53.9381 25.099C53.9196 25.1067 53.9028 25.118 53.8887 25.1323C53.8746 25.1466 53.8634 25.1635 53.8559 25.1821C53.8484 25.2007 53.8446 25.2206 53.8449 25.2407L53.8656 27.258C53.8667 27.4419 53.9569 27.5545 54.1362 27.5959C54.3638 27.6488 54.6179 27.6591 54.8983 27.6269C54.9184 27.6245 54.9387 27.6263 54.958 27.6323C54.9773 27.6383 54.9951 27.6483 55.0102 27.6616C55.0254 27.675 55.0375 27.6914 55.0458 27.7098C55.0542 27.7282 55.0586 27.7481 55.0587 27.7683L55.0759 29.5459C55.076 29.5783 55.0639 29.6095 55.0422 29.6332C55.0204 29.6569 54.9906 29.6713 54.9587 29.6735L54.9382 29.6748C53.5474 29.7681 51.3535 29.9151 51.3587 27.8683C51.3598 26.9809 51.3529 26.1062 51.338 25.2442C51.3368 25.1637 51.296 25.12 51.2156 25.1131L50.9449 25.0873C50.9199 25.0851 50.8966 25.0736 50.8797 25.0551C50.8627 25.0366 50.8534 25.0124 50.8535 24.9873L50.8707 23.2752C50.8712 23.2378 50.8847 23.2016 50.9088 23.1727C50.933 23.1439 50.9664 23.124 51.0035 23.1166L51.1466 23.0873C51.211 23.0746 51.246 23.0355 51.2518 22.97L51.4121 21.17C51.4167 21.1068 51.4512 21.0752 51.5156 21.0752L53.719 21.0786C53.7533 21.0786 53.7862 21.0924 53.8104 21.117C53.8347 21.1416 53.8483 21.1749 53.8483 21.2097L53.8518 23.0183C53.8518 23.0512 53.8648 23.0828 53.8881 23.1061C53.9114 23.1294 53.943 23.1424 53.9759 23.1424ZM73.6725 26.9423C73.6794 26.363 73.6788 25.7923 73.6707 25.2302C73.6696 25.1383 73.715 25.0923 73.8069 25.0923L74.6742 25.0837C74.819 25.0814 74.8908 25.0078 74.8897 24.863L74.8793 23.2354C74.8793 23.1802 74.8518 23.1515 74.7966 23.1492L73.788 23.1182C73.7585 23.1173 73.7307 23.1047 73.7103 23.083C73.69 23.0614 73.6789 23.0326 73.6794 23.0027L73.6966 21.2527C73.6977 21.1228 73.6334 21.0584 73.5035 21.0596L71.3431 21.0802C71.2799 21.0802 71.2449 21.1119 71.238 21.1751C71.184 21.7337 71.1357 22.3193 71.0931 22.932C71.0851 23.0354 71.0311 23.1027 70.9311 23.1337C70.8748 23.1498 70.8305 23.1825 70.7983 23.232C70.5621 23.5975 70.6311 24.5527 70.6742 24.963C70.6768 24.9882 70.689 25.0113 70.7083 25.0277C70.7275 25.0441 70.7524 25.0524 70.7776 25.0509C71.0248 25.0417 71.1523 25.159 71.1604 25.4027C71.1891 26.2498 71.2041 27.1078 71.2052 27.9768C71.2083 29.7954 73.054 29.7373 74.3785 29.6956L74.3787 29.6956L74.3794 29.6956C74.5137 29.6914 74.6427 29.6873 74.7638 29.6854C74.842 29.6843 74.8811 29.6452 74.8811 29.5682L74.8793 27.8009C74.8793 27.6871 74.8225 27.6354 74.7087 27.6458C74.4144 27.6722 74.1397 27.6475 73.8845 27.5716C73.8213 27.5532 73.7782 27.513 73.7552 27.4509C73.6966 27.2912 73.669 27.1216 73.6725 26.9423ZM61.119 29.3562C61.1151 29.3433 61.1083 29.3314 61.0989 29.3215C61.0896 29.3117 61.0781 29.3041 61.0652 29.2994C61.0524 29.2948 61.0386 29.2931 61.0249 29.2946C61.0112 29.2961 60.9979 29.3006 60.9862 29.308C60.3483 29.7206 59.6592 29.9039 58.919 29.858C56.9431 29.7361 55.7851 28.7614 55.4449 26.9338C55.2656 25.9752 55.4937 25.0798 56.1293 24.2476C57.5156 22.4304 60.8621 22.3769 62.0656 24.489C62.2644 24.8384 62.4293 25.27 62.5604 25.7838C62.9133 27.1769 63.2449 28.4442 63.5552 29.5855C63.577 29.6648 63.5466 29.7045 63.4638 29.7045L61.3345 29.7131C61.2633 29.7131 61.2173 29.6786 61.1966 29.6097L61.119 29.3562ZM60.1811 26.3804C60.1811 26.0644 60.0556 25.7614 59.8321 25.5379C59.6087 25.3145 59.3057 25.189 58.9897 25.189C58.6737 25.189 58.3707 25.3145 58.1473 25.5379C57.9238 25.7614 57.7983 26.0644 57.7983 26.3804C57.7983 26.6963 57.9238 26.9994 58.1473 27.2228C58.3707 27.4462 58.6737 27.5717 58.9897 27.5717C59.3057 27.5717 59.6087 27.4462 59.8321 27.2228C60.0556 26.9994 60.1811 26.6963 60.1811 26.3804ZM14.7577 27.3379C14.8865 26.8938 14.9239 26.4302 14.8679 25.9736C14.7546 25.0513 14.2674 24.2134 13.5134 23.644C12.7594 23.0746 11.8003 22.8205 10.8472 22.9375C10.3753 22.9955 9.91901 23.1428 9.50446 23.3711C9.0899 23.5994 8.72519 23.9041 8.43113 24.268C8.13707 24.6319 7.91943 25.0477 7.79063 25.4918C7.66183 25.9359 7.6244 26.3995 7.68047 26.8561C7.79371 27.7783 8.28093 28.6163 9.03495 29.1857C9.78898 29.7551 10.748 30.0092 11.7011 29.8922C12.1731 29.8342 12.6293 29.6869 13.0439 29.4586C13.4584 29.2303 13.8232 28.9255 14.1172 28.5617C14.4113 28.1978 14.6289 27.782 14.7577 27.3379ZM12.371 25.9569C12.4312 26.1021 12.4621 26.2577 12.4621 26.4148C12.4621 26.572 12.4312 26.7276 12.371 26.8727C12.3109 27.0179 12.2228 27.1498 12.1116 27.2609C12.0005 27.372 11.8686 27.4602 11.7235 27.5203C11.5783 27.5804 11.4227 27.6114 11.2656 27.6114C10.9482 27.6114 10.6439 27.4853 10.4195 27.2609C10.1951 27.0365 10.069 26.7322 10.069 26.4148C10.069 26.0975 10.1951 25.7932 10.4195 25.5688C10.6439 25.3444 10.9482 25.2183 11.2656 25.2183C11.4227 25.2183 11.5783 25.2492 11.7235 25.3094C11.8686 25.3695 12.0005 25.4576 12.1116 25.5688C12.2228 25.6799 12.3109 25.8118 12.371 25.9569ZM31.6152 25.9798C31.7268 26.9023 31.4552 27.8327 30.86 28.5666C30.2649 29.3004 29.3949 29.7775 28.4416 29.8929C27.4883 30.0082 26.5297 29.7524 25.7767 29.1817C25.0237 28.6111 24.5379 27.7722 24.4263 26.8498C24.3146 25.9273 24.5863 24.9968 25.1814 24.263C25.7766 23.5292 26.6465 23.0521 27.5998 22.9367C28.5531 22.8214 29.5118 23.0772 30.2648 23.6479C31.0178 24.2185 31.5036 25.0574 31.6152 25.9798ZM29.2104 26.4148C29.2104 26.0975 29.0843 25.7931 28.8599 25.5687C28.6355 25.3443 28.3312 25.2182 28.0138 25.2182C27.6965 25.2182 27.3921 25.3443 27.1677 25.5687C26.9433 25.7931 26.8173 26.0975 26.8173 26.4148C26.8173 26.7321 26.9433 27.0365 27.1677 27.2609C27.3921 27.4853 27.6965 27.6113 28.0138 27.6113C28.3312 27.6113 28.6355 27.4853 28.8599 27.2609C29.0843 27.0365 29.2104 26.7321 29.2104 26.4148ZM33.3736 23.1211L35.6356 23.129C35.6928 23.1292 35.7389 23.1757 35.7387 23.2328L35.7165 29.5983C35.7163 29.6554 35.6698 29.7016 35.6127 29.7014L33.3506 29.6935C33.2935 29.6933 33.2473 29.6468 33.2476 29.5897L33.2698 23.2242C33.27 23.1671 33.3164 23.1209 33.3736 23.1211ZM39.9397 25.3372C39.8248 25.2866 39.7541 25.2561 39.7276 25.2458C39.2288 25.0285 38.9799 25.1923 38.9811 25.7372L38.988 29.6061C38.9882 29.6183 38.986 29.6303 38.9815 29.6416C38.977 29.6529 38.9703 29.6632 38.9618 29.6719C38.9533 29.6805 38.9432 29.6874 38.932 29.6921C38.9208 29.6968 38.9087 29.6992 38.8966 29.6992L36.6793 29.7182C36.6592 29.7182 36.6399 29.7104 36.6257 29.6965C36.6115 29.6826 36.6035 29.6637 36.6035 29.6441L36.6052 23.2337C36.6052 23.1625 36.6408 23.1262 36.7121 23.1251C37.6949 23.1056 38.7115 23.1119 39.7621 23.1441C41.7259 23.2027 43.0259 24.7113 43.0569 26.6389C43.0719 27.5987 43.069 28.5975 43.0483 29.6354C43.0483 29.6542 43.0409 29.6722 43.0276 29.6854C43.0144 29.6987 42.9964 29.7061 42.9776 29.7061L40.75 29.7096C40.6891 29.7096 40.6587 29.6797 40.6587 29.6199L40.6604 26.4354C40.6605 26.202 40.5923 25.9737 40.4642 25.7786C40.3362 25.5834 40.1538 25.43 39.9397 25.3372ZM67.0794 25.2475C67.138 25.2739 67.1995 25.3015 67.2638 25.3303C67.7638 25.5544 68.0138 25.9406 68.0138 26.4889L68.0104 29.6423C68.0104 29.6624 68.0184 29.6817 68.0326 29.696C68.0468 29.7102 68.0661 29.7182 68.0863 29.7182L70.3069 29.6992C70.3193 29.6992 70.3316 29.6968 70.343 29.692C70.3544 29.6872 70.3647 29.6802 70.3734 29.6713C70.3821 29.6625 70.3889 29.652 70.3935 29.6406C70.398 29.6291 70.4003 29.6168 70.4001 29.6044C70.3897 28.8078 70.388 28.0067 70.3949 27.2009C70.4029 26.2883 70.288 25.5757 70.05 25.063C69.4345 23.7406 68.2863 23.1596 66.8742 23.1303C65.9627 23.1119 65.0242 23.1101 64.0587 23.1251C64.0302 23.1255 64.003 23.1374 63.983 23.158C63.963 23.1786 63.9518 23.2065 63.9518 23.2354L63.9414 29.6837C63.9414 29.7032 63.9512 29.713 63.9707 29.713L66.2104 29.7027C66.2943 29.7027 66.3363 29.6607 66.3363 29.5768L66.3311 25.7337C66.3299 25.1866 66.5794 25.0245 67.0794 25.2475ZM91.8316 23.1307L89.4627 23.1266C89.4341 23.1265 89.4109 23.1496 89.4108 23.1782L89.3996 29.6403C89.3995 29.6688 89.4226 29.692 89.4512 29.6921L91.8202 29.6962C91.8487 29.6963 91.8719 29.6731 91.872 29.6446L91.8833 23.1825C91.8833 23.154 91.8602 23.1308 91.8316 23.1307ZM99.2776 29.7079V25.7096L99.2156 25.8683C99.1857 25.9441 99.165 25.9418 99.1535 25.8614C98.8673 23.9476 97.2294 23.0803 95.4397 23.1079C94.6282 23.1206 93.773 23.128 92.8742 23.1303C92.8591 23.1303 92.8446 23.1363 92.8339 23.147C92.8233 23.1577 92.8173 23.1721 92.8173 23.1872V29.5993C92.8173 29.6717 92.8541 29.7079 92.9276 29.7079L95.1087 29.7096C95.1822 29.7096 95.219 29.6734 95.219 29.601L95.2156 25.7355C95.2144 25.1884 95.4638 25.0252 95.9638 25.2459C96.0397 25.2792 96.0989 25.305 96.1414 25.3234C96.646 25.5453 96.8983 25.9321 96.8983 26.4838V29.6096C96.8983 29.6717 96.9294 29.7028 96.9914 29.7028L99.2776 29.7079ZM47.0414 25.1183C46.515 25.116 46.5052 25.1849 47.0121 25.3252C47.5523 25.4757 48.0765 25.6378 48.5845 25.8114C49.8535 26.2458 50.6259 27.4234 49.9449 28.7321C49.5776 29.4372 48.9569 29.7165 48.1794 29.7131C46.7219 29.7062 45.2736 29.7056 43.8345 29.7114C43.7656 29.7114 43.7317 29.6763 43.7328 29.6062L43.7535 28.0234C43.7546 27.9591 43.788 27.9275 43.8535 27.9286C44.9018 27.9642 45.9058 27.9723 46.8656 27.9527C47.2069 27.9458 47.2161 27.8872 46.8931 27.7769C46.7647 27.7329 46.6262 27.6874 46.482 27.6401L46.4819 27.64C45.7675 27.4054 44.9155 27.1255 44.4621 26.7596C43.6828 26.1321 43.4776 25.3154 43.8466 24.3096C44.1518 23.4803 44.8362 23.1372 45.7173 23.139C47.0046 23.1413 48.3903 23.1413 49.8742 23.139C49.9036 23.1387 49.9328 23.1444 49.96 23.1556C49.9872 23.1668 50.0119 23.1833 50.0326 23.2042C50.0533 23.2251 50.0696 23.2499 50.0806 23.2772C50.0916 23.3045 50.0971 23.3337 50.0966 23.3631L50.0656 25.0855C50.0656 25.0923 50.0642 25.099 50.0615 25.1053C50.0588 25.1116 50.0549 25.1173 50.0499 25.1221C50.0449 25.1269 50.0391 25.1307 50.0326 25.1333C50.0261 25.1359 50.0191 25.1372 50.0121 25.1372L47.0414 25.1183Z" fill="#00AB55"/>
</g>
<defs>
<clipPath id="clip0_4132_6849">
<rect width="98.7931" height="30" fill="white" transform="translate(0.603455 0.000976562)"/>
</clipPath>
</defs>
</svg>
