<svg xmlns="http://www.w3.org/2000/svg" width="112" height="28" fill="none"><g clip-path="url(#a)"><path fill="#00AB55" fill-rule="evenodd" d="M11.799.001h2.434c.715.115 1.423.224 2.123.327 3.535.517 6.463 2.026 8.784 4.528a5.366 5.366 0 0 1 1.05 1.667c.225.56.506 1.093.845 1.598 1.941 2.886 2.613 6.01 2.016 9.37-.767 4.31-3.22 7.526-7.357 9.648-.219.112-.279.056-.181-.168a9.557 9.557 0 0 0 .822-3.528.204.204 0 0 0-.168-.204.203.203 0 0 0-.094.006c-2.315.741-4.63.578-6.944-.49-.242-.11-.288-.057-.138.159a13.33 13.33 0 0 0 4.734 4.23c.442.235.413.375-.086.418-6.28.545-10.907-1.904-13.88-7.35-.025-.048-.015-.087.03-.116h.005c.043-.026.079-.02.108.018 2.524 3.407 6.263 6.19 10.493 6.582.454.04.5-.076.138-.35-3.808-2.885-7.181-8.365-6.38-13.413.276-1.73.984-3.323 2.124-4.782 2.633-3.374 6.2-4.263 10.7-2.666.006 0 .007.003.005.008l-.03.104c-.015.04-.044.054-.087.043-3.928-1.117-7.178-.243-9.748 2.623-.193.216-.147.306.138.272.822-.104 1.74-.104 2.36.568.85.916 1.99 1.366 3.42 1.348.22-.002.4.06.586.123.119.04.239.08.371.106.083.017.103.062.06.133l-.082.138a.043.043 0 0 1-.043.017 55.537 55.537 0 0 1-3.105-.564c-.563-.118-1.103-.44-1.62-.97a.851.851 0 0 0-.388-.227c-.896-.239-1.823-.085-2.783.46a.256.256 0 0 0-.111.13.248.248 0 0 0-.005.168l.039.125c.014.046.043.059.086.038 1.492-.671 2.23-.19 3.038.337.544.355 1.12.73 1.98.788.687.043 1.412.132 2.176.267.244.04.254.112.03.215-.345.155-.67.13-.974-.073a.728.728 0 0 0-.413-.12c-1.103.042-2.275-.005-3.17-.716-.833-.655-1.89-.583-3.171.216a.65.65 0 0 0-.302.47l-.025.206c-.032.235.053.29.254.164 1.114-.704 2.118-.753 3.01-.147 1.09.737 2.5.612 3.736.418.005 0 .008.003.008.009l.022.107c.008.052-.012.082-.06.09-1.073.225-2.641.492-3.662-.055-.539-.293-1.12-.565-1.745-.35a7.324 7.324 0 0 0-1.805.905.195.195 0 0 0-.09.173l-.009 1.378a.064.064 0 0 0 .088.068.065.065 0 0 0 .033-.029c.58-.833 1.437-1.196 2.572-1.09 2.377.22 4.406-.465 6.396-1.701.342-.21.384-.163.125.142l-.269.317c-.679.796-1.281 1.503-1.712 2.543a.643.643 0 0 0 .258.793c3.774 2.277 5.213 5.738 4.317 10.381-.038.204.03.25.202.138 6.341-4.114 7.495-12.22 3.192-18.316a.258.258 0 0 0-.288-.1 9.05 9.05 0 0 0-3.283 1.75c-.011.011-.023.01-.034-.005l-.078-.09a.116.116 0 0 1 0-.155.955.955 0 0 0 .203-.332c.094-.258.034-.3-.181-.125-.75.6-1.639 1.014-2.667 1.24-.017.004-.029-.002-.034-.016l-.005-.005c-.023-.06-.004-.103.056-.129a7.424 7.424 0 0 0 1.917-1.22.918.918 0 0 0 .009-1.378c-.488-.433-1.193-.758-2.115-.973-.267-.063-.267-.125 0-.185a6.465 6.465 0 0 1 2.507-.078 3.66 3.66 0 0 0 1.49-.03.536.536 0 0 1 .414.065c.293.18.606.32.939.417.382.112.415.046.1-.198-3.665-2.82-7.693-3.86-12.084-3.118C6.986 3.999 2.732 7.3.176 12.898c-.057.127-.08.12-.068-.017C.53 8.078 3.343 3.775 7.276 1.069 7.864.661 8.592.4 9.46.281c.778-.11 1.558-.202 2.339-.28Zm2.7 21.616c2.4 1.322 4.929 1.525 7.56.99.156-.03.223-.126.203-.284-.373-2.955-1.769-5.175-4.187-6.66a.535.535 0 0 0-.465-.06 2.194 2.194 0 0 0-.922.556c-.943.935-3.847 4.55-2.188 5.458Zm58.788-11.575c-1.919-.387-3.363.252-4.334 1.917-.892 1.53-.478 3.653.9 4.713 1.694 1.305 3.778 1.206 5.355-.332a.233.233 0 0 1 .292-.031.242.242 0 0 1 .1.28l-1.684 4.864a.455.455 0 0 1-.367.302 8.374 8.374 0 0 1-3.553-.293.521.521 0 0 1-.34-.328L65.747 9.65a.9.9 0 0 1 .19-.9c2.995-3.268 6.496-3.932 10.502-1.99a.444.444 0 0 1 .224.543l-1.215 3.583c-.075.222-.21.268-.405.138-.131-.088-.258-.18-.383-.27-.42-.306-.827-.602-1.374-.712Zm-28.836 5.14c-.057.169-.115.169-.172 0l-3.106-9.155a.15.15 0 0 0-.052-.072.135.135 0 0 0-.082-.027l-3.459-.004a.482.482 0 0 0-.456.327L31.95 21.518a.081.081 0 0 0 .011.074.081.081 0 0 0 .067.034l3.816.021c.063 0 .105-.03.125-.09l3.097-9.12c.08-.235.161-.235.242 0l3.02 8.896c.071.21.218.314.439.314h3.149a.531.531 0 0 0 .5-.357l3.028-8.9c.063-.19.126-.19.19 0l3.096 9.102c.026.08.082.122.168.125 1.787.069 3.075.057 3.864-.035a.035.035 0 0 0 .016-.004.039.039 0 0 0 .013-.012.044.044 0 0 0 .006-.017.048.048 0 0 0 0-.018L51.554 6.139a.305.305 0 0 0-.293-.215h-3.476c-.129 0-.215.062-.258.185l-3.076 9.072Zm16.206-2.68a.173.173 0 0 0-.16-.113.162.162 0 0 0-.155.113c-.715 2.16-1.396 4.203-2.042 6.13-.034.1-.103.15-.206.146a.187.187 0 0 1-.11-.035.2.2 0 0 1-.071-.094l-1.784-5.17a.657.657 0 0 1 0-.426l2.382-6.995a.199.199 0 0 1 .186-.13l3.57-.004a.263.263 0 0 1 .25.181l5.221 15.409c.004.01.005.021.004.033a.07.07 0 0 1-.034.053.066.066 0 0 1-.03.008 55.423 55.423 0 0 1-3.851.022c-.057 0-.095-.027-.112-.082l-3.058-9.046Zm19.333 9.055 3.101-9.072a.132.132 0 0 1 .125-.087.134.134 0 0 1 .125.087l3.093 9.063a.133.133 0 0 0 .125.09h3.743a.133.133 0 0 0 .125-.176L85.21 6.019a.134.134 0 0 0-.124-.09l-3.692-.005a.133.133 0 0 0-.125.09l-5.264 15.444a.134.134 0 0 0 .125.176l3.735.013a.133.133 0 0 0 .125-.09ZM112 5.959v.349l-5.182 15.176a.24.24 0 0 1-.228.163h-3.296c-.287 0-.478-.136-.573-.409l-2.96-8.745c-.091-.27-.183-.27-.275 0l-3.045 8.97c-.04.117-.122.176-.246.176l-3.347.013a.46.46 0 0 1-.435-.31L87.227 6.036c-.02-.057 0-.086.06-.086l3.83-.034c.068 0 .114.033.137.099l3.028 8.925c.112.333.226.333.34 0l2.977-8.8c.05-.144.148-.216.298-.216l3.45.005c.155 0 .259.073.31.22l2.994 8.847c.101.296.201.296.302 0l2.998-8.852c.046-.135.14-.203.284-.203L112 5.96ZM19.281 8.03a1.56 1.56 0 1 1-3.119 0 1.56 1.56 0 0 1 3.12 0ZM52.743 25.7c-.224.044-.402-.005-.534-.146a.227.227 0 0 1 .014-.32.229.229 0 0 1 .102-.055 3.5 3.5 0 0 1 1.263-.077c.172.023.258.12.258.293v1.09c0 .17-.074.296-.224.379-1.04.569-1.954.534-2.744-.104-.84-.684-.784-2.2.06-2.864.681-.531 1.47-.618 2.365-.259a.375.375 0 0 1 .194.522l-.069.129a.273.273 0 0 1-.153.132.265.265 0 0 1-.2-.012c-1-.476-1.654-.22-1.964.771a.918.918 0 0 0 .15.836c.34.44.819.596 1.44.47.206-.043.308-.17.305-.38l-.004-.193c-.003-.175-.09-.246-.259-.211Zm40.14-.115c.137.152.315.2.534.146a.232.232 0 0 1 .197.04.222.222 0 0 1 .087.18l-.004.21c-.003.17-.087.274-.25.311-2.62.556-1.814-3.3.16-2.068a.277.277 0 0 0 .336-.039l.245-.25c.117-.114.109-.218-.026-.31-1.228-.844-2.947-.267-3.18 1.276-.296 1.977 1.767 2.636 3.279 1.8a.326.326 0 0 0 .18-.306l.005-1.266c0-.135-.067-.208-.202-.22a4.667 4.667 0 0 0-1.215.065c-.304.057-.353.2-.147.43Zm-33.256 1.154c-.089.35-.304.531-.646.543-.27.011-.352-.107-.246-.354l1.336-3.14a.56.56 0 0 1 1.034 0l1.348 3.166c.083.198.017.305-.198.319-.42.026-.666-.158-.741-.551-.043-.227-.18-.34-.41-.34l-1.025.004c-.24 0-.392.117-.452.353Zm.771-2.085-.215.715c-.055.172.008.261.19.267l.34.009c.33.005.406-.133.228-.414l-.38-.599a.09.09 0 0 0-.163.022Zm7.879 2.378-.004-1.805c0-.287.079-.312.237-.073l.693 1.038a.16.16 0 0 0 .21.05.16.16 0 0 0 .057-.054l.715-1.146c.178-.287.266-.263.263.073l-.022 1.913c-.002.146.07.22.216.22l.327-.005c.144-.003.216-.075.216-.215v-3.21c0-.295-.147-.419-.44-.37-.46.077-.83.47-1.111 1.18-.161.41-.35.424-.569.039a8.468 8.468 0 0 1-.139-.265c-.267-.526-.537-1.056-1.265-.92-.164.03-.246.127-.246.293v3.257c0 .143.072.214.216.211h.43c.144 0 .216-.07.216-.211Zm8.834-3.554h-.465a.177.177 0 0 0-.177.176l-.006 3.394c0 .098.079.177.176.177h.465a.177.177 0 0 0 .177-.175l.006-3.395a.177.177 0 0 0-.176-.177Zm7.966.215.004 1.706c0 .244-.079.273-.237.086a24.053 24.053 0 0 1-1.31-1.71c-.202-.293-.486-.375-.826-.289-.144.035-.216.128-.216.28v3.27c0 .143.073.214.22.211l.538-.009c.067-.003.1-.037.1-.103l.004-1.939c0-.298.085-.323.254-.073.413.62.846 1.192 1.297 1.715.617.715.926.6.926-.345v-2.796c0-.14-.07-.212-.211-.215l-.328-.004c-.143 0-.215.071-.215.215Z" clip-rule="evenodd"/></g><defs><clipPath id="a"><path fill="#fff" d="M0 .001h112v28H0z"/></clipPath></defs></svg>