<svg width="146" height="28" viewBox="0 0 146 28" fill="none" xmlns="http://www.w3.org/2000/svg">
<path d="M2.26997 1.79284H22.3244C22.3665 1.79284 22.3875 1.81389 22.3875 1.85601C22.4049 4.47511 22.4039 7.09455 22.3845 9.71433C22.3832 9.82463 22.3387 10.0422 22.2512 10.3671C21.9965 11.3077 21.5195 12.0276 20.8203 12.527C20.6592 12.6419 20.4947 12.7502 20.327 12.8518C19.9574 13.0753 19.4942 13.1751 19.0785 13.2646L19.0164 13.278C18.3356 13.4244 17.6637 13.2529 16.9849 13.0464C16.8005 12.9904 16.6451 12.8929 16.4884 12.7946C16.3979 12.7378 16.307 12.6808 16.2098 12.6312C16.1472 12.5992 16.1007 12.5525 16.0536 12.5052C16.0094 12.4609 15.9647 12.4161 15.906 12.3826C15.8912 12.3741 15.8738 12.3716 15.8572 12.3755C15.8406 12.3794 15.8262 12.3895 15.8167 12.4036C15.5453 12.8007 15.3451 13.2339 15.2161 13.7031C15.1847 13.8161 15.1706 13.9284 15.174 14.0401C15.1746 14.0728 15.1884 14.0996 15.2151 14.1203C15.3581 14.2312 15.5086 14.3161 15.6663 14.375C15.6971 14.3863 15.7228 14.4047 15.7435 14.4301C15.7843 14.4823 15.8358 14.518 15.8979 14.5374C16.0432 14.5821 16.1796 14.6428 16.3153 14.7032C16.481 14.777 16.6458 14.8504 16.8245 14.8934C17.9622 15.1668 19.0906 15.1554 20.2096 14.8593C20.3146 14.8312 20.4145 14.7924 20.5095 14.743C20.5962 14.6975 20.6884 14.6635 20.7798 14.6296C20.9124 14.5806 21.0437 14.5321 21.1552 14.4502C21.2414 14.3866 21.3324 14.3363 21.4243 14.2854C21.5237 14.2304 21.6244 14.1747 21.7207 14.1012C22.3845 13.5979 23.0724 12.9461 23.4334 12.2001C23.4532 12.1591 23.4824 12.1241 23.5111 12.0898C23.545 12.0492 23.5781 12.0097 23.5938 11.9624C23.7028 11.6349 23.8188 11.3167 23.9418 11.0078C24.0173 10.818 24.0718 10.5289 24.1052 10.1405C24.1286 9.86641 24.1403 9.59868 24.1403 9.33731C24.1416 6.19812 24.142 3.09871 24.1413 0.0390799C24.1413 0.0289743 24.1373 0.0192826 24.1301 0.0121368C24.123 0.00499101 24.1133 0.000976562 24.1032 0.000976562H0.44001C0.407254 0.000976562 0.390877 0.0170201 0.390877 0.0491071C0.388871 3.54192 0.389205 6.7426 0.391879 9.65116C0.392548 10.0903 0.476442 10.5526 0.643562 11.0379C0.656932 11.076 0.673644 11.0777 0.693698 11.0429C1.07072 10.4059 1.55503 9.8634 2.14664 9.41552C2.17873 9.39078 2.19477 9.35836 2.19477 9.31825V1.86804C2.19477 1.81791 2.21984 1.79284 2.26997 1.79284Z" fill="#919EAB"/>
<path d="M8.18326 4.06026C8.15334 4.0513 8.12344 4.04235 8.09377 4.03289C8.04698 4.01818 8.02626 3.98676 8.03161 3.93863C8.08475 3.43727 7.79998 2.69426 7.24748 2.50173C6.67593 2.30119 6.16521 2.356 5.71532 2.66618C5.68591 2.68623 5.65416 2.69125 5.62006 2.68122C5.20694 2.5629 4.91014 2.66217 4.54916 2.84166C4.34519 2.94245 4.24739 3.08595 4.13741 3.24732C4.10844 3.28982 4.07861 3.33358 4.04579 3.37811C3.79311 3.72204 3.82219 4.43297 4.06685 4.77089C4.12701 4.85378 4.18684 4.93266 4.24634 5.00753C4.38204 5.17733 4.56888 5.30333 4.80686 5.38556C4.84028 5.39759 4.86 5.42099 4.86602 5.45575C4.91281 5.7452 5.06422 5.97616 5.32025 6.14863C5.35582 6.17284 5.38597 6.20021 5.41553 6.22704C5.46431 6.27132 5.51153 6.31417 5.57895 6.33914C6.00009 6.49757 6.75514 6.5437 7.08002 6.17771C7.11782 6.13487 7.16543 6.09915 7.21285 6.06357C7.29752 6.00004 7.38156 5.93698 7.40791 5.83478C7.44201 5.69774 7.51821 5.66799 7.63653 5.74553C7.75407 5.82302 7.87595 5.8852 7.99725 5.94708C8.15537 6.02774 8.3125 6.10791 8.45776 6.22082C8.89027 6.55774 9.2469 6.96217 9.52766 7.43411C9.61832 7.58673 9.67674 7.74995 9.7352 7.91329C9.76655 8.0009 9.79811 8.08907 9.8345 8.17512C10.0721 8.74367 10.0631 9.4947 9.97287 10.0993C9.94492 10.2855 9.88194 10.4515 9.81838 10.6191C9.78163 10.716 9.74465 10.8135 9.71417 10.9156C9.65066 11.1255 9.55173 11.3233 9.41737 11.5092C8.92336 12.1957 8.37186 12.6783 7.76288 12.9571C7.561 13.05 7.27956 13.1393 6.91859 13.2248C6.67994 13.281 6.45633 13.3147 6.24777 13.3261C5.98773 13.3408 5.76245 13.3288 5.57193 13.29C5.19959 13.2138 4.80452 13.1038 4.38672 12.9601C4.32032 12.9373 4.2711 12.8954 4.22183 12.8535C4.17587 12.8144 4.12987 12.7753 4.06986 12.7515C3.89338 12.6813 3.73695 12.55 3.59657 12.4267C3.58109 12.4131 3.56264 12.4033 3.5427 12.3981C3.52276 12.3928 3.50188 12.3924 3.48173 12.3967C3.46157 12.4009 3.44269 12.4099 3.42659 12.4227C3.4105 12.4356 3.39763 12.4521 3.38901 12.4708C3.34032 12.5782 3.27903 12.6808 3.21785 12.7832C3.12658 12.936 3.03554 13.0884 2.98692 13.2559C2.92007 13.4839 2.86225 13.7041 2.81345 13.9167C2.78872 14.0243 2.82314 14.1079 2.91673 14.1674C3.21955 14.3592 3.54209 14.53 3.88435 14.6798C4.22194 14.8275 4.55985 14.9301 4.8981 14.9876C5.84935 15.1507 6.7889 15.118 7.71675 14.8893C7.98652 14.8229 8.24783 14.7016 8.50541 14.582C8.55496 14.559 8.605 14.5358 8.65429 14.5133C9.03399 14.3402 9.41536 14.0845 9.7984 13.7462C10.156 13.4307 10.4679 13.0998 10.7339 12.7535C10.9933 12.4153 11.1878 12.0687 11.3175 11.7137C11.3527 11.6172 11.3938 11.5269 11.4343 11.4376C11.5093 11.2726 11.5828 11.1108 11.6153 10.9196C11.6394 10.7819 11.6665 10.6488 11.6934 10.5171C11.774 10.1219 11.8522 9.73853 11.8379 9.27912C11.8306 9.0271 11.8032 8.78578 11.7557 8.55515C11.739 8.4725 11.7236 8.38828 11.7082 8.30352C11.6512 7.99141 11.5928 7.67177 11.4619 7.39501C11.3897 7.24259 11.3255 7.08283 11.2694 6.91571C11.2111 6.74212 11.1208 6.59789 11.0295 6.45221C10.9652 6.34963 10.9005 6.24634 10.8462 6.13158C10.8435 6.12639 10.8367 6.11686 10.8266 6.10409C10.8165 6.09132 10.8035 6.07582 10.7891 6.05938L9.99593 5.16195C9.97737 5.14139 9.95529 5.1244 9.93076 5.11181C9.81377 5.05031 9.71785 4.96809 9.64298 4.86514C9.61691 4.82905 9.58348 4.80264 9.5427 4.78593C9.45124 4.74842 9.38426 4.69168 9.31721 4.63488C9.25343 4.58085 9.18958 4.52677 9.10452 4.48912C8.88993 4.39487 8.68939 4.29326 8.50288 4.1843C8.40284 4.126 8.2929 4.09309 8.18326 4.06026Z" fill="#919EAB"/>
<path d="M16.5698 3.93671C16.5297 3.56303 16.5995 3.23581 16.7793 2.95504C16.9465 2.69501 17.1901 2.52254 17.5103 2.43764C17.9736 2.31464 18.4195 2.38517 18.8479 2.64922C18.8894 2.67529 18.9335 2.68231 18.9803 2.67027C19.3613 2.57334 19.7457 2.6569 20.1334 2.92095C20.1883 2.95772 20.2327 3.00485 20.2668 3.06234C20.2939 3.10791 20.3302 3.13614 20.3664 3.16425C20.405 3.19427 20.4434 3.22416 20.4704 3.27491C20.7611 3.82574 20.7611 4.33546 20.4704 4.80406C20.3052 5.07012 20.0826 5.26097 19.8025 5.37661C19.7705 5.38932 19.7464 5.41104 19.7303 5.44179C19.6991 5.50043 19.6717 5.56477 19.6439 5.62988C19.5853 5.76738 19.5252 5.90833 19.4245 6.00632C18.9586 6.46089 18.4208 6.57988 17.8111 6.36329C17.5578 6.27305 17.3158 6.06615 17.0852 5.74261C17.0718 5.72456 17.0541 5.71687 17.032 5.71954C16.9144 5.73518 16.832 5.79061 16.7471 5.84763C16.696 5.88202 16.6439 5.91699 16.5828 5.94415C16.3181 6.06181 16.0574 6.24163 15.8007 6.48362C15.5574 6.71291 15.3632 6.93852 15.2181 7.16045C15.1419 7.2761 15.0664 7.39676 14.9915 7.52244C14.9133 7.65212 14.8528 7.78414 14.81 7.91851C14.6669 8.36973 14.5603 8.8497 14.4901 9.35841C14.4854 9.38983 14.4711 9.41557 14.447 9.43563C14.0085 9.79861 13.6107 10.2284 13.2538 10.7251C13.1836 10.8227 13.1274 10.9297 13.0853 11.046C13.0826 11.0531 13.0779 11.0593 13.0718 11.0639C13.0657 11.0686 13.0585 11.0714 13.0509 11.0721C13.0433 11.0728 13.0356 11.0714 13.0288 11.0681C13.0219 11.0647 13.0162 11.0595 13.0121 11.053C12.966 10.9755 12.9332 10.8936 12.9138 10.8073C12.7093 9.89788 12.6531 8.63044 12.9991 7.70393C13.0304 7.61949 13.0604 7.51963 13.092 7.41475C13.1682 7.16088 13.2533 6.87756 13.3881 6.71224C13.4379 6.65208 13.4669 6.58858 13.4963 6.52444C13.5178 6.4774 13.5395 6.43001 13.5696 6.38335C14.0275 5.68077 14.5967 5.08683 15.2773 4.60151C15.3966 4.51665 15.5273 4.4563 15.658 4.39599C15.7666 4.34583 15.8752 4.2957 15.9772 4.23151C16.1386 4.12923 16.3251 4.06806 16.5086 4.02394C16.5547 4.01258 16.5751 3.9835 16.5698 3.93671Z" fill="#919EAB"/>
<path d="M6.93183 25.365C6.93555 25.3667 6.93957 25.3677 6.94365 25.3678L8.34145 25.3718C8.34553 25.3719 8.3496 25.3713 8.35342 25.3698C8.35724 25.3684 8.36074 25.3662 8.36372 25.3634C8.3667 25.3606 8.3691 25.3573 8.37079 25.3535C8.37138 25.3522 8.37189 25.3509 8.37229 25.3495L8.37293 25.3469C8.37328 25.3452 8.37348 25.3435 8.37353 25.3417L8.37554 24.6629C8.37596 24.5652 8.35926 24.4683 8.32638 24.3779C8.29349 24.2874 8.24508 24.2052 8.18391 24.1358C8.12273 24.0664 8.04998 24.0113 7.96983 23.9736C7.88967 23.9358 7.80368 23.9162 7.71675 23.9159H7.58038C7.4049 23.9151 7.23628 23.9928 7.11161 24.1317C6.98694 24.2707 6.91643 24.4596 6.91558 24.6569L6.91357 25.3357C6.91344 25.3398 6.91411 25.3439 6.91555 25.3477C6.91699 25.3515 6.91917 25.355 6.92196 25.358C6.92476 25.361 6.92811 25.3634 6.93183 25.365Z" fill="#919EAB"/>
<path d="M16.6794 24.9434C16.6647 25.5452 17.1168 26.0443 17.6892 26.0583C18.2617 26.0723 18.7377 25.5958 18.7524 24.994C18.7671 24.3922 18.315 23.8931 17.7425 23.8791C17.1701 23.8651 16.6941 24.3416 16.6794 24.9434Z" fill="#919EAB"/>
<path fill-rule="evenodd" clip-rule="evenodd" d="M22.3996 14.4512V21.9536C22.3996 21.9917 22.3805 22.0107 22.3424 22.0107H2.22987C2.2058 22.0107 2.19377 21.9987 2.19377 21.9746C2.19645 19.5013 2.19578 17.0312 2.19177 14.5645C2.19076 14.1083 2.21984 13.4495 2.40434 13.0795C2.50729 12.8743 2.5962 12.6744 2.67107 12.4799C2.75931 12.2533 2.99093 11.9548 3.36595 11.5844C3.54377 11.4086 3.83623 11.1941 4.24333 10.9407C4.3436 10.8785 4.4422 10.8314 4.53913 10.7993C4.62972 10.7698 4.71799 10.7346 4.80598 10.6994C4.96341 10.6365 5.11992 10.5739 5.28716 10.5456C5.94495 10.4327 6.5399 10.4457 7.07201 10.5847C7.45438 10.6843 7.86014 10.8662 8.28931 11.1302C8.3498 11.1674 8.39762 11.2104 8.44459 11.2525C8.50896 11.3103 8.57173 11.3667 8.66332 11.405C8.7021 11.421 8.73117 11.4106 8.75056 11.3739C8.78217 11.3129 8.82233 11.2615 8.86195 11.2108C8.91032 11.1489 8.95789 11.0879 8.9882 11.0119C9.04035 10.8809 9.09951 10.7532 9.16569 10.6289C9.29848 10.3761 9.33823 10.0647 9.37399 9.78444L9.37525 9.77453C9.38528 9.69298 9.35219 9.63616 9.27599 9.60407C9.07477 9.51984 8.8896 9.42091 8.72048 9.30727C8.61313 9.23472 8.48601 9.18889 8.35544 9.14181C8.26403 9.10885 8.17093 9.07529 8.08175 9.03152C7.80003 8.89421 7.43449 8.82895 7.10288 8.76974C7.01312 8.75371 6.92584 8.73813 6.84339 8.72168C6.40821 8.63444 5.77348 8.6204 5.29117 8.73672C5.13208 8.77482 4.96997 8.80791 4.80485 8.83599C4.5769 8.87476 4.33291 8.94729 4.07287 9.05358C3.5548 9.26682 3.15438 9.47272 2.87161 9.67125C2.08414 10.2228 1.45343 10.9434 0.979477 11.8331C0.871851 12.0357 0.791968 12.2365 0.739826 12.4358C0.68568 12.6403 0.624848 12.8479 0.557331 13.0584C0.455054 13.3763 0.404918 13.7343 0.404918 14.0652C0.402244 18.681 0.401575 23.3136 0.402912 27.9629C0.402912 27.973 0.406927 27.9827 0.414073 27.9898C0.421218 27.997 0.43091 28.001 0.441016 28.001H24.1072C24.1088 28.001 24.1104 28.0009 24.112 28.0007C24.1143 28.0005 24.1166 28.0001 24.1189 27.9995L24.1219 27.9986L24.1249 27.9975C24.1305 27.9951 24.1356 27.9918 24.1398 27.9875C24.1441 27.9832 24.1475 27.9781 24.1498 27.9725C24.1522 27.9669 24.1533 27.9609 24.1533 27.9549C24.1547 23.4914 24.155 18.9391 24.1544 14.2978C24.1544 13.7934 24.0842 13.2971 23.9638 12.8038C23.9311 12.668 23.8846 12.6634 23.8245 12.7897C23.7376 12.9742 23.6346 13.1403 23.5156 13.2881C23.1994 13.6831 22.8405 14.0434 22.4387 14.369C22.4126 14.3897 22.3996 14.4171 22.3996 14.4512ZM8.38657 26.4347V25.8331C8.38657 25.783 8.3615 25.7579 8.31137 25.7579H6.98276C6.94867 25.7579 6.93163 25.7746 6.93163 25.808L6.93363 26.4337C6.93363 26.4511 6.92494 26.4598 6.90756 26.4598H6.47739C6.45667 26.4598 6.44597 26.4494 6.4453 26.4287C6.44063 25.8431 6.43929 25.2261 6.44129 24.5777C6.4433 24.1044 6.68295 23.6381 7.17328 23.5198C7.70272 23.3915 8.52595 23.4336 8.74856 24.0603C8.83579 24.306 8.91601 24.5556 8.91501 24.8183C8.913 25.3652 8.91233 25.9033 8.913 26.4327C8.913 26.4508 8.90398 26.4598 8.88593 26.4598H8.41164C8.39493 26.4598 8.38657 26.4514 8.38657 26.4347ZM10.1453 25.8231C10.4923 26.0016 11.0709 26.2332 11.3165 25.813C11.5421 25.428 10.9225 25.1863 10.6487 25.1141C10.4622 25.064 10.0782 24.8113 10.017 24.6248C9.82046 24.0212 10.1173 23.5539 10.738 23.4797C11.0715 23.4403 11.386 23.4814 11.6815 23.603C11.7143 23.6164 11.7256 23.6398 11.7156 23.6732L11.6133 24.0212C11.6118 24.0264 11.6092 24.0313 11.6056 24.0354C11.6021 24.0395 11.5976 24.0427 11.5927 24.0449C11.5877 24.0471 11.5823 24.0482 11.5768 24.0481C11.5714 24.048 11.5661 24.0467 11.5612 24.0442C11.2614 23.8988 10.5254 23.7023 10.4702 24.2568C10.45 24.4612 10.6083 24.5461 10.7594 24.6271C10.7876 24.6423 10.8157 24.6573 10.8422 24.6729C10.9118 24.7137 10.9843 24.7475 11.0598 24.7742C11.3907 24.8892 11.6317 25.045 11.7828 25.2415C11.9342 25.439 11.9873 25.9564 11.7286 26.163C11.6745 26.2058 11.6277 26.2562 11.5883 26.3144C11.5669 26.3465 11.5385 26.3692 11.503 26.3826C11.0371 26.5617 10.5337 26.5424 9.99293 26.3244C9.91204 26.2917 9.88531 26.2342 9.91271 26.152L10.002 25.8812C10.0267 25.8057 10.0745 25.7863 10.1453 25.8231ZM15.3986 23.6923L15.2091 24.0753C15.1997 24.094 15.1857 24.0991 15.167 24.0904C14.827 23.9279 14.0991 23.8046 13.7782 24.0834C13.7432 24.1136 13.7098 24.1379 13.6779 24.1612C13.6094 24.2112 13.5473 24.2564 13.4884 24.3461C13.2404 24.7224 13.2113 25.0914 13.4012 25.4531C13.5055 25.6509 13.6502 25.796 13.8354 25.8882C14.0753 26.0086 14.2963 26.0624 14.4982 26.0497C14.6584 26.0394 14.8045 25.9852 14.952 25.9305C15.0195 25.9054 15.0873 25.8803 15.1569 25.8592C15.2131 25.8425 15.2525 25.8615 15.2753 25.9163L15.3926 26.1981C15.4166 26.2562 15.3996 26.2974 15.3414 26.3214C14.8327 26.5313 14.2959 26.5591 13.7311 26.4046C13.6151 26.3733 13.5207 26.3047 13.4252 26.2354C13.368 26.1939 13.3105 26.1521 13.2478 26.1179C13.2125 26.0989 13.1838 26.0699 13.1655 26.0346C13.1276 25.9613 13.0786 25.8998 13.03 25.8388C12.9644 25.7563 12.8995 25.6747 12.8637 25.5664C12.7414 25.1924 12.7063 24.5316 12.979 24.2067C13.0292 24.1472 13.0756 24.0854 13.1184 24.0212C13.5877 23.3143 14.7007 23.3784 15.3916 23.6732C15.4009 23.6772 15.4033 23.6836 15.3986 23.6923ZM19.1631 24.3115C19.2531 24.4935 19.305 24.691 19.3159 24.8927C19.3268 25.0944 19.2965 25.2964 19.2268 25.4871C19.157 25.6777 19.0491 25.8534 18.9093 26.004C18.7695 26.1546 18.6005 26.2772 18.4118 26.3649C18.2232 26.4525 18.0188 26.5034 17.8101 26.5147C17.6014 26.526 17.3927 26.4975 17.1957 26.4307C16.9987 26.364 16.8174 26.2603 16.6621 26.1257C16.5069 25.9911 16.3807 25.8281 16.2907 25.6461C16.2008 25.464 16.1488 25.2665 16.1379 25.0648C16.127 24.8631 16.1573 24.6612 16.227 24.4705C16.2968 24.2798 16.4047 24.1042 16.5445 23.9536C16.6843 23.803 16.8534 23.6803 17.042 23.5927C17.2306 23.5051 17.4351 23.4542 17.6437 23.4429C17.8524 23.4316 18.0612 23.4601 18.2581 23.5268C18.4551 23.5936 18.6364 23.6972 18.7917 23.8319C18.947 23.9665 19.0732 24.1295 19.1631 24.3115ZM3.6056 26.4217L2.73725 24.8725C2.69379 24.7943 2.67173 24.8 2.67107 24.8895L2.67006 26.4097C2.67006 26.4431 2.65369 26.4598 2.62093 26.4598H2.24491C2.21082 26.4598 2.19411 26.4427 2.19477 26.4087L2.26095 23.5539C2.26162 23.5138 2.28201 23.4904 2.32212 23.4837C2.44913 23.463 2.53737 23.5148 2.58684 23.6391C2.65636 23.8156 2.7466 23.9964 2.85757 24.1816C3.139 24.6509 3.40539 25.1105 3.65674 25.5604C3.66445 25.5739 3.67578 25.585 3.68944 25.5925C3.7031 25.5999 3.71854 25.6035 3.73401 25.6026C3.74947 25.6018 3.76433 25.5966 3.77691 25.5877C3.78949 25.5789 3.79927 25.5666 3.80514 25.5523C3.85996 25.42 3.92413 25.2956 3.99766 25.1793C4.06852 25.0677 4.13504 24.9484 4.19721 24.8214C4.38906 24.4323 4.61701 24.0158 4.88106 23.572C4.91449 23.5165 4.9576 23.4874 5.01041 23.4847C5.03916 23.4834 5.0679 23.4834 5.09665 23.4847C5.14077 23.4861 5.16349 23.5088 5.16483 23.5529L5.23302 26.4317C5.23302 26.439 5.2302 26.446 5.22515 26.4512C5.2201 26.4565 5.21321 26.4595 5.20594 26.4598H4.77076C4.7467 26.4598 4.73433 26.4481 4.73366 26.4247C4.70759 25.9414 4.69656 25.4654 4.70057 24.9968C4.70191 24.7455 4.66347 24.7391 4.58526 24.9778C4.55718 25.0633 4.51574 25.1439 4.46092 25.2194C4.36844 25.3475 4.30621 25.491 4.24414 25.634C4.18037 25.781 4.11677 25.9276 4.02073 26.0567C3.96056 26.1376 3.91745 26.2288 3.89138 26.3304C3.874 26.396 3.8379 26.4417 3.78308 26.4678C3.74899 26.4832 3.7159 26.4872 3.68381 26.4799C3.64905 26.4725 3.62298 26.4531 3.6056 26.4217ZM20.8846 23.9639C20.8777 23.9569 20.8682 23.953 20.8584 23.953H19.9429C19.9331 23.953 19.9236 23.9491 19.9167 23.9421C19.9097 23.9352 19.9058 23.9257 19.9058 23.9159L19.9048 23.5389C19.9048 23.529 19.9087 23.5196 19.9157 23.5126C19.9226 23.5057 19.9321 23.5018 19.9419 23.5018H22.3625C22.3723 23.5018 22.3818 23.5057 22.3887 23.5126C22.3957 23.5196 22.3996 23.529 22.3996 23.5389V23.9159C22.3996 23.9257 22.3957 23.9352 22.3887 23.9421C22.3818 23.9491 22.3723 23.953 22.3625 23.953L21.459 23.954C21.4492 23.954 21.4398 23.9579 21.4328 23.9649C21.4258 23.9718 21.4219 23.9813 21.4219 23.9911V26.4227C21.4219 26.4325 21.418 26.442 21.4111 26.4489C21.4041 26.4559 21.3947 26.4598 21.3848 26.4598H20.9326C20.9228 26.4598 20.9133 26.4559 20.9064 26.4489C20.8994 26.442 20.8955 26.4325 20.8955 26.4227V23.9901C20.8955 23.9803 20.8916 23.9708 20.8846 23.9639Z" fill="#919EAB"/>
<path d="M16.4986 19.7776C16.3361 19.7405 16.1446 19.6774 16.0052 19.5851C15.9304 19.5358 15.845 19.4967 15.7593 19.4575C15.6291 19.3979 15.4982 19.338 15.4026 19.2412C15.3518 19.1899 15.2904 19.157 15.2274 19.1232C15.171 19.093 15.1133 19.0621 15.0607 19.0166C14.8154 18.804 14.5747 18.5911 14.3387 18.3778C14.0733 18.1379 13.7635 17.711 13.4092 17.0974C13.2882 16.8875 13.1946 16.6729 13.1284 16.4536C13.097 16.3495 13.0613 16.248 13.0257 16.1469C12.9547 15.9451 12.8844 15.7452 12.8497 15.5301C12.7093 14.6608 12.6852 13.5447 13.0071 12.6894C13.0456 12.5871 13.0791 12.4861 13.1123 12.3859C13.1907 12.1494 13.2675 11.9177 13.4042 11.6867C13.9828 10.705 14.8441 9.76348 15.8919 9.28217C16.267 9.1097 16.642 8.93824 17.0501 8.85501C17.3081 8.8022 17.5722 8.7514 17.8422 8.7026C18.5562 8.57225 19.3152 8.71864 20.0803 8.91016C20.2401 8.95027 20.3962 9.00809 20.5486 9.08363C20.6258 9.12205 20.7039 9.1515 20.7817 9.18086C20.8968 9.2243 21.0114 9.26753 21.1221 9.33933C21.2966 9.45163 21.4821 9.5509 21.6786 9.63713C21.7127 9.65184 21.7298 9.67758 21.7298 9.71434C21.7314 10.0624 21.6224 10.3342 21.507 10.6219C21.4775 10.6955 21.4475 10.7702 21.4189 10.8474C21.381 10.9482 21.3258 11.0277 21.271 11.1068C21.2173 11.1844 21.1639 11.2615 21.1271 11.3578C21.1222 11.371 21.1144 11.3829 21.1043 11.3927C21.0941 11.4025 21.0819 11.41 21.0684 11.4145C21.055 11.419 21.0407 11.4205 21.0266 11.4188C21.0125 11.4172 20.9989 11.4124 20.9868 11.4049C20.9255 11.367 20.8757 11.3212 20.8264 11.2758C20.7635 11.218 20.7015 11.1609 20.6178 11.1222C20.4994 11.068 20.3895 11.0035 20.2879 10.9286C20.156 10.8313 19.9957 10.7781 19.8362 10.7251C19.7543 10.698 19.6726 10.6709 19.595 10.6378C19.48 10.589 19.3607 10.5546 19.237 10.5346C18.7056 10.4497 18.1705 10.4523 17.6317 10.5426C17.5107 10.5633 17.395 10.5987 17.2847 10.6489C17.1969 10.6889 17.1104 10.7188 17.0247 10.7484C16.8872 10.7958 16.7518 10.8426 16.6159 10.9296C16.5083 10.9978 16.4 11.066 16.291 11.1342C15.7556 11.4698 15.3277 11.9197 15.0075 12.4839C14.7498 12.9381 14.6205 13.4766 14.5312 13.9839C14.429 14.5605 14.5704 15.107 14.7318 15.6815C14.8067 15.9476 14.927 16.211 15.0928 16.4717C15.4477 17.0332 15.9043 17.4761 16.4625 17.8003C16.528 17.8384 16.5885 17.8755 16.644 17.9116C16.7656 17.9911 16.8853 18.0486 17.003 18.084C17.0384 18.0947 17.0661 18.0847 17.0862 18.054C17.2747 17.7699 17.4157 17.6057 17.5093 17.5616C17.5418 17.5464 17.5741 17.531 17.6061 17.5157C17.9764 17.339 18.3205 17.1747 18.7487 17.3731C18.8563 17.4233 18.9643 17.4687 19.0726 17.5095C19.1705 17.5472 19.224 17.6096 19.2792 17.6739C19.3178 17.719 19.3573 17.7651 19.4135 17.8043C19.5243 17.8827 19.6039 18.1125 19.6586 18.2702C19.6682 18.2981 19.6771 18.3236 19.6852 18.3458C19.6979 18.3805 19.7213 18.4046 19.7554 18.418L20.0592 18.5423C20.0896 18.5548 20.1161 18.5745 20.1365 18.5994C20.1802 18.6546 20.2288 18.705 20.2773 18.7552C20.3733 18.8546 20.4685 18.9532 20.5225 19.0858C20.7712 19.7008 20.694 20.2389 20.2909 20.7001C20.1211 20.8947 19.9245 21.0173 19.7013 21.0681C19.4386 21.1283 19.1835 21.133 18.9362 21.0822C18.9001 21.0742 18.8667 21.0802 18.8359 21.1002C18.7949 21.1256 18.7619 21.1562 18.7292 21.1864C18.6845 21.2278 18.6404 21.2687 18.5772 21.2948C18.1554 21.4692 17.7226 21.4682 17.2787 21.2917C17.1717 21.2486 17.1056 21.1841 17.0373 21.1174C16.993 21.074 16.9477 21.0298 16.8896 20.9899C16.8328 20.9505 16.787 20.898 16.7523 20.8325C16.5825 20.5076 16.5173 20.1841 16.5567 19.8619C16.5628 19.8164 16.5434 19.7883 16.4986 19.7776Z" fill="#919EAB"/>
<path d="M7.4595 18.0483C7.4433 18.0346 7.43045 18.0173 7.42195 17.9978C7.37516 17.8908 7.29762 17.7859 7.18932 17.6829C7.0944 17.5927 6.98778 17.5188 6.86946 17.4613C6.49043 17.2758 6.13847 17.1796 5.73137 17.3791C5.69163 17.3984 5.65184 17.4161 5.61249 17.4335C5.47016 17.4966 5.33362 17.5571 5.226 17.686C5.14645 17.7822 5.07057 17.8711 4.99838 17.9527C4.95225 18.0048 4.9068 18.1335 4.86201 18.3387C4.85399 18.3742 4.83293 18.3972 4.79884 18.4079C4.59428 18.4731 4.40978 18.5443 4.2694 18.7228C4.14841 18.8758 4.05549 19.0172 3.99064 19.1469C3.83623 19.4578 3.82921 19.8344 3.96959 20.277C3.98871 20.3377 4.02709 20.3805 4.06648 20.4244C4.0973 20.4587 4.12875 20.4938 4.15208 20.5387C4.4158 21.0421 5.06757 21.1734 5.62408 21.0611C5.71231 21.0431 5.77749 21.1062 5.8186 21.1754C5.8382 21.2087 5.86765 21.235 5.90283 21.2506C6.3467 21.4545 6.80227 21.4632 7.26954 21.2767C7.31901 21.2566 7.36246 21.2279 7.39989 21.1905C7.44197 21.1476 7.48703 21.1152 7.5311 21.0835C7.5952 21.0374 7.65718 20.9928 7.70472 20.9197C7.95874 20.532 8.06704 20.1737 8.0296 19.8448C8.02492 19.806 8.04063 19.78 8.07673 19.7666C8.5928 19.5788 9.06541 19.3227 9.49458 18.9985C9.76197 18.796 10.0167 18.5714 10.2586 18.3247C10.5167 18.0613 10.7861 17.7053 11.0668 17.2568C11.1686 17.0939 11.2353 16.9275 11.3024 16.7603C11.3431 16.6589 11.384 16.5571 11.4328 16.4556C11.5822 16.1447 11.6444 15.8046 11.7062 15.4669C11.7261 15.358 11.746 15.2494 11.7687 15.1421C11.9357 14.3503 11.7728 13.609 11.6068 12.8532L11.5933 12.7917C11.5719 12.6941 11.5341 12.6871 11.48 12.7706C11.0929 13.3682 10.6377 13.8893 10.1143 14.3339C10.0895 14.3546 10.0728 14.3807 10.0641 14.4121C10.0295 14.534 10.0179 14.659 10.0062 14.785C9.99789 14.8744 9.98953 14.9643 9.97288 15.0538C9.76431 16.1769 9.18875 17.0562 8.24619 17.692C8.16034 17.7499 8.07032 17.7967 7.98008 17.8436C7.86282 17.9045 7.74483 17.9659 7.63553 18.0519C7.61878 18.065 7.59924 18.0741 7.57843 18.0785C7.55762 18.0829 7.53609 18.0824 7.51547 18.0772C7.49486 18.072 7.47571 18.0621 7.4595 18.0483Z" fill="#919EAB"/>
<path d="M145.61 17.825C145.032 18.1269 144.428 18.3449 143.799 18.4791C143.17 18.6133 142.529 18.6803 141.874 18.6803C141.178 18.6803 140.537 18.5713 139.95 18.3533C139.363 18.1353 138.855 17.825 138.428 17.4224C138 17.0115 137.665 16.5168 137.421 15.9381C137.187 15.3595 137.069 14.7138 137.069 14.001C137.069 13.2882 137.187 12.6425 137.421 12.0638C137.665 11.4852 138 10.9946 138.428 10.5921C138.855 10.1812 139.363 9.8667 139.95 9.64867C140.537 9.43063 141.178 9.32162 141.874 9.32162C142.587 9.32162 143.241 9.40967 143.837 9.58577C144.441 9.75349 144.969 10.047 145.422 10.4663L144.038 11.9758C143.77 11.699 143.468 11.4894 143.132 11.3468C142.797 11.2043 142.378 11.133 141.874 11.133C141.455 11.133 141.074 11.2043 140.73 11.3468C140.394 11.4894 140.105 11.6906 139.862 11.9506C139.619 12.2022 139.43 12.5041 139.296 12.8563C139.17 13.2085 139.107 13.5901 139.107 14.001C139.107 14.4203 139.17 14.806 139.296 15.1582C139.43 15.5021 139.619 15.804 139.862 16.0639C140.105 16.3155 140.394 16.5126 140.73 16.6551C141.074 16.7977 141.455 16.869 141.874 16.869C142.302 16.869 142.671 16.8229 142.981 16.7306C143.292 16.63 143.539 16.5293 143.724 16.4287V14.9821H142.126V13.1708H145.61V17.825Z" fill="#919EAB"/>
<path d="M129.957 9.54858H127.29V18.4545H129.252V12.1147H129.278L133.164 18.4545H135.731V9.54858H133.768V15.7374H133.743L129.957 9.54858Z" fill="#919EAB"/>
<path d="M123.543 9.54858H125.505V18.4545H123.543V9.54858Z" fill="#919EAB"/>
<path d="M114.658 9.54858H111.689V18.4545H113.652V11.6241H113.677L115.928 18.4545H117.425L119.765 11.6241H119.79V18.4545H121.752V9.54858H118.796L116.733 15.36H116.708L114.658 9.54858Z" fill="#919EAB"/>
<path fill-rule="evenodd" clip-rule="evenodd" d="M105.297 9.54858H106.919L110.794 18.4545H108.58L107.812 16.5676H104.353L103.611 18.4545H101.447L105.297 9.54858ZM106.051 12.1398L104.969 14.9072H107.146L106.051 12.1398Z" fill="#919EAB"/>
<path d="M98.8269 18.4791C99.4558 18.3449 100.06 18.1269 100.638 17.825V13.1708H97.1539V14.9821H98.7514V16.4287C98.5669 16.5293 98.3195 16.63 98.0092 16.7306C97.699 16.8229 97.33 16.869 96.9023 16.869C96.483 16.869 96.1014 16.7977 95.7576 16.6551C95.4222 16.5126 95.1329 16.3155 94.8897 16.0639C94.6465 15.804 94.4578 15.5021 94.3236 15.1582C94.1978 14.806 94.1349 14.4203 94.1349 14.001C94.1349 13.5901 94.1978 13.2085 94.3236 12.8563C94.4578 12.5041 94.6465 12.2022 94.8897 11.9506C95.1329 11.6906 95.4222 11.4894 95.7576 11.3468C96.1014 11.2043 96.483 11.133 96.9023 11.133C97.4055 11.133 97.8248 11.2043 98.1602 11.3468C98.4956 11.4894 98.7975 11.699 99.0659 11.9758L100.45 10.4663C99.9967 10.047 99.4684 9.75349 98.8646 9.58577C98.2692 9.40967 97.6151 9.32162 96.9023 9.32162C96.2063 9.32162 95.5647 9.43063 94.9777 9.64867C94.3907 9.8667 93.8834 10.1812 93.4557 10.5921C93.028 10.9946 92.6926 11.4852 92.4494 12.0638C92.2146 12.6425 92.0972 13.2882 92.0972 14.001C92.0972 14.7138 92.2146 15.3595 92.4494 15.9381C92.6926 16.5168 93.028 17.0115 93.4557 17.4224C93.8834 17.825 94.3907 18.1353 94.9777 18.3533C95.5647 18.5713 96.2063 18.6803 96.9023 18.6803C97.5564 18.6803 98.1979 18.6133 98.8269 18.4791Z" fill="#919EAB"/>
<path d="M83.3533 11.2845H80.8124V9.54858H87.8566V11.2845H85.3157V18.4545H83.3533V11.2845Z" fill="#919EAB"/>
<path fill-rule="evenodd" clip-rule="evenodd" d="M71.0382 12.0638C70.8034 12.6425 70.686 13.2882 70.686 14.001C70.686 14.7138 70.8034 15.3595 71.0382 15.9381C71.2814 16.5168 71.6168 17.0115 72.0445 17.4224C72.4722 17.825 72.9795 18.1353 73.5665 18.3533C74.1536 18.5713 74.7951 18.6803 75.4911 18.6803C76.1872 18.6803 76.8287 18.5713 77.4157 18.3533C78.0027 18.1353 78.5101 17.825 78.9377 17.4224C79.3654 17.0115 79.6967 16.5168 79.9315 15.9381C80.1747 15.3595 80.2963 14.7138 80.2963 14.001C80.2963 13.2882 80.1747 12.6425 79.9315 12.0638C79.6967 11.4852 79.3654 10.9946 78.9377 10.5921C78.5101 10.1812 78.0027 9.8667 77.4157 9.64867C76.8287 9.43063 76.1872 9.32162 75.4911 9.32162C74.7951 9.32162 74.1536 9.43063 73.5665 9.64867C72.9795 9.8667 72.4722 10.1812 72.0445 10.5921C71.6168 10.9946 71.2814 11.4852 71.0382 12.0638ZM72.9124 15.1582C72.7867 14.806 72.7238 14.4203 72.7238 14.001C72.7238 13.5901 72.7867 13.2085 72.9124 12.8563C73.0466 12.5041 73.2353 12.2022 73.4785 11.9506C73.7217 11.6906 74.011 11.4894 74.3464 11.3468C74.6903 11.2043 75.0718 11.133 75.4911 11.133C75.9104 11.133 76.2878 11.2043 76.6232 11.3468C76.967 11.4894 77.2606 11.6906 77.5037 11.9506C77.7469 12.2022 77.9314 12.5041 78.0572 12.8563C78.1914 13.2085 78.2585 13.5901 78.2585 14.001C78.2585 14.4203 78.1914 14.806 78.0572 15.1582C77.9314 15.5021 77.7469 15.804 77.5037 16.0639C77.2606 16.3155 76.967 16.5126 76.6232 16.6551C76.2878 16.7977 75.9104 16.869 75.4911 16.869C75.0718 16.869 74.6903 16.7977 74.3464 16.6551C74.011 16.5126 73.7217 16.3155 73.4785 16.0639C73.2353 15.804 73.0466 15.5021 72.9124 15.1582Z" fill="#919EAB"/>
<path d="M68.3769 11.8626C68.184 11.6278 67.945 11.4475 67.6599 11.3217C67.3832 11.1959 67.0603 11.133 66.6913 11.133C66.3223 11.133 65.9785 11.2043 65.6599 11.3468C65.3496 11.4894 65.077 11.6906 64.8422 11.9506C64.6158 12.2022 64.4355 12.5041 64.3013 12.8563C64.1755 13.2085 64.1127 13.5901 64.1127 14.001C64.1127 14.4203 64.1755 14.806 64.3013 15.1582C64.4355 15.5021 64.6158 15.804 64.8422 16.0639C65.0686 16.3155 65.3328 16.5126 65.6347 16.6551C65.945 16.7977 66.2762 16.869 66.6284 16.869C67.031 16.869 67.3874 16.7851 67.6976 16.6174C68.0079 16.4497 68.2637 16.2149 68.465 15.913L70.1002 17.1331C69.7229 17.6614 69.2449 18.0514 68.6662 18.303C68.0876 18.5545 67.4922 18.6803 66.88 18.6803C66.184 18.6803 65.5425 18.5713 64.9554 18.3533C64.3684 18.1353 63.8611 17.825 63.4334 17.4224C63.0057 17.0115 62.6703 16.5168 62.4271 15.9381C62.1923 15.3595 62.0749 14.7138 62.0749 14.001C62.0749 13.2882 62.1923 12.6425 62.4271 12.0638C62.6703 11.4852 63.0057 10.9946 63.4334 10.5921C63.8611 10.1812 64.3684 9.8667 64.9554 9.64867C65.5425 9.43063 66.184 9.32162 66.88 9.32162C67.1316 9.32162 67.3916 9.34678 67.6599 9.39709C67.9366 9.43902 68.205 9.5103 68.465 9.61093C68.7333 9.71156 68.9891 9.84574 69.2323 10.0135C69.4755 10.1812 69.6935 10.3866 69.8864 10.6298L68.3769 11.8626Z" fill="#919EAB"/>
<path d="M59.0783 11.2839C59.3551 11.3762 59.5731 11.5229 59.7324 11.7242L61.0784 10.2525C60.701 9.91702 60.2775 9.67802 59.8079 9.53546C59.3383 9.3929 58.8519 9.32162 58.3487 9.32162C57.9127 9.32162 57.4892 9.38451 57.0783 9.5103C56.6674 9.6277 56.3026 9.808 55.9839 10.0512C55.6736 10.2944 55.422 10.5963 55.2292 10.9569C55.0447 11.3175 54.9524 11.7368 54.9524 12.2148C54.9524 12.7095 55.0531 13.1079 55.2543 13.4098C55.464 13.7117 55.7239 13.9549 56.0342 14.1393C56.3445 14.3238 56.6799 14.4706 57.0405 14.5796C57.4011 14.6886 57.7366 14.7976 58.0468 14.9067C58.3571 15.0157 58.6129 15.1499 58.8142 15.3092C59.0238 15.4601 59.1286 15.6698 59.1286 15.9381C59.1286 16.0975 59.0867 16.2358 59.0028 16.3532C58.9274 16.4706 58.8226 16.5671 58.6884 16.6426C58.5626 16.718 58.4158 16.7767 58.2481 16.8187C58.0888 16.8522 57.9294 16.869 57.7701 16.869C57.4431 16.869 57.1244 16.7977 56.8141 16.6551C56.5122 16.5042 56.2606 16.2945 56.0594 16.0262L54.6631 17.5608C55.0908 17.955 55.552 18.2401 56.0468 18.4162C56.5416 18.5923 57.0783 18.6803 57.6569 18.6803C58.1181 18.6803 58.5542 18.6216 58.9651 18.5042C59.3844 18.3868 59.7492 18.2065 60.0595 17.9633C60.3781 17.7201 60.6297 17.4141 60.8142 17.0451C60.9987 16.6761 61.091 16.2442 61.091 15.7494C61.091 15.2295 60.9903 14.8144 60.7891 14.5041C60.5878 14.1939 60.332 13.9465 60.0217 13.762C59.7198 13.5775 59.3928 13.4349 59.0406 13.3343C58.6884 13.2337 58.3571 13.133 58.0468 13.0324C57.745 12.9318 57.4934 12.8102 57.2921 12.6676C57.0908 12.5251 56.9902 12.3196 56.9902 12.0512C56.9902 11.8835 57.0322 11.741 57.116 11.6236C57.1999 11.5062 57.3089 11.4139 57.4431 11.3468C57.5772 11.2714 57.7198 11.2168 57.8707 11.1833C58.0217 11.1498 58.1684 11.133 58.311 11.133C58.5542 11.133 58.81 11.1833 59.0783 11.2839Z" fill="#919EAB"/>
<path fill-rule="evenodd" clip-rule="evenodd" d="M48.9371 9.54858H50.5597L54.434 18.4545H52.2202L51.4528 16.5676H47.9936L47.2515 18.4545H45.0879L48.9371 9.54858ZM49.6918 12.1398L48.61 14.9072H50.7862L49.6918 12.1398Z" fill="#919EAB"/>
<path d="M37.096 9.54858H34.1274V18.4545H36.0897V11.6241H36.1149L38.3665 18.4545H39.8634L42.2031 11.6241H42.2282V18.4545H44.1906V9.54858H41.2345L39.1716 15.36H39.1464L37.096 9.54858Z" fill="#919EAB"/>
</svg>
