<svg xmlns="http://www.w3.org/2000/svg" width="146" height="28" fill="none"><path fill="#919EAB" d="M2.27 1.793h20.054c.042 0 .063.02.063.063.018 2.62.017 5.239-.003 7.858 0 .11-.045.328-.133.653-.255.94-.732 1.66-1.43 2.16a7.893 7.893 0 0 1-.494.325c-.37.223-.833.323-1.249.413l-.062.013c-.68.146-1.352-.025-2.031-.232-.184-.056-.34-.153-.497-.251a3.624 3.624 0 0 0-.278-.164c-.063-.032-.11-.079-.156-.126a.701.701 0 0 0-.148-.122.067.067 0 0 0-.09.02c-.27.398-.47.83-.6 1.3a1.125 1.125 0 0 0-.042.337.1.1 0 0 0 .041.08c.143.111.294.196.451.255.031.011.057.03.077.055.041.052.093.088.155.107.145.045.282.106.417.166.166.074.33.147.51.19a6.813 6.813 0 0 0 3.385-.034c.105-.028.204-.067.3-.116.086-.046.178-.08.27-.113.132-.05.264-.098.375-.18.086-.063.177-.114.27-.165.099-.055.2-.11.296-.184.663-.503 1.351-1.155 1.712-1.9a.547.547 0 0 1 .078-.111c.034-.04.067-.08.083-.128.109-.327.225-.645.348-.954.075-.19.13-.48.163-.867.024-.275.035-.542.035-.804.002-3.139.002-6.238.001-9.298a.038.038 0 0 0-.038-.038H.44C.407.001.39.017.39.049.39 3.542.39 6.743.393 9.651c0 .44.084.902.252 1.387.013.038.03.04.05.005a5.6 5.6 0 0 1 1.453-1.627.117.117 0 0 0 .048-.098v-7.45c0-.05.025-.075.075-.075Z"/><path fill="#919EAB" d="m8.183 4.06-.09-.027c-.046-.015-.067-.046-.061-.094.053-.502-.232-1.245-.785-1.437-.571-.2-1.082-.146-1.532.164a.108.108 0 0 1-.095.015c-.413-.118-.71-.019-1.07.16-.205.101-.303.245-.413.406a4.273 4.273 0 0 1-.091.131c-.253.344-.224 1.055.02 1.393.061.083.12.162.18.237.136.17.323.295.56.378a.086.086 0 0 1 .06.07c.047.29.198.52.454.693.036.024.066.051.096.078a.5.5 0 0 0 .163.112c.421.159 1.176.205 1.501-.161.038-.043.085-.079.133-.114.085-.064.169-.127.195-.23.034-.136.11-.166.229-.088.117.077.239.14.36.201.158.08.316.16.46.274.433.337.79.741 1.07 1.213.091.153.15.316.208.48.032.087.063.175.1.261.237.569.228 1.32.138 1.924-.028.187-.091.352-.155.52-.036.097-.073.194-.104.297-.063.21-.162.407-.297.593-.494.687-1.045 1.17-1.654 1.448a4.677 4.677 0 0 1-.844.268c-.24.056-.463.09-.671.101-.26.015-.486.003-.676-.036a9.545 9.545 0 0 1-1.185-.33c-.067-.023-.116-.065-.165-.107a.548.548 0 0 0-.152-.101c-.177-.07-.333-.202-.473-.325a.132.132 0 0 0-.208.044 3.17 3.17 0 0 1-.171.312c-.091.153-.182.305-.231.473a11.48 11.48 0 0 0-.174.66.216.216 0 0 0 .104.251 7.2 7.2 0 0 0 .967.513c.338.148.676.25 1.014.308.951.163 1.89.13 2.819-.099.27-.066.53-.187.788-.307l.15-.069c.379-.173.76-.428 1.143-.767.358-.315.67-.646.936-.992.26-.339.454-.685.584-1.04.035-.097.076-.187.116-.276.075-.165.149-.327.181-.518.024-.138.051-.271.078-.403.081-.395.16-.778.145-1.238a4.185 4.185 0 0 0-.082-.724 13.098 13.098 0 0 1-.048-.251c-.057-.313-.115-.632-.246-.909a4.359 4.359 0 0 1-.193-.48 2.162 2.162 0 0 0-.24-.463 3.09 3.09 0 0 1-.183-.32 1.206 1.206 0 0 0-.057-.072l-.793-.898a.228.228 0 0 0-.065-.05.824.824 0 0 1-.288-.247.228.228 0 0 0-.1-.08.834.834 0 0 1-.226-.15.872.872 0 0 0-.212-.146 5.877 5.877 0 0 1-.602-.305c-.1-.058-.21-.09-.32-.124ZM16.57 3.937c-.04-.374.03-.701.21-.982.166-.26.41-.432.73-.517.464-.123.91-.053 1.338.211a.163.163 0 0 0 .132.021c.381-.097.766-.013 1.153.251.055.037.1.084.134.141a.365.365 0 0 0 .1.102c.038.03.076.06.103.11.291.552.291 1.061 0 1.53a1.4 1.4 0 0 1-.668.573.136.136 0 0 0-.072.065c-.03.058-.058.123-.086.188-.059.137-.119.278-.22.376-.465.455-1.003.574-1.613.357-.253-.09-.495-.297-.726-.62a.054.054 0 0 0-.053-.023c-.118.015-.2.07-.285.128-.051.034-.103.069-.164.096a2.828 2.828 0 0 0-.782.54c-.244.229-.438.455-.583.676a9.463 9.463 0 0 0-.226.362 1.86 1.86 0 0 0-.182.397c-.143.45-.25.93-.32 1.44a.12.12 0 0 1-.043.077 6.852 6.852 0 0 0-1.193 1.29 1.31 1.31 0 0 0-.169.32.04.04 0 0 1-.013.018.04.04 0 0 1-.021.008c-.008 0-.015 0-.022-.004a.041.041 0 0 1-.017-.015.837.837 0 0 1-.098-.246c-.205-.91-.26-2.177.085-3.103.031-.085.061-.184.093-.29.076-.253.161-.536.296-.702.05-.06.079-.123.108-.188a1.08 1.08 0 0 1 .074-.14 6.585 6.585 0 0 1 1.707-1.782c.12-.085.25-.146.381-.206.109-.05.217-.1.32-.164.16-.103.347-.164.53-.208.047-.011.067-.04.062-.087ZM6.932 25.365a.03.03 0 0 0 .012.003l1.397.004a.03.03 0 0 0 .023-.009.03.03 0 0 0 .008-.014v-.002a.03.03 0 0 0 .002-.005l.002-.68a.825.825 0 0 0-.05-.284.756.756 0 0 0-.142-.242.662.662 0 0 0-.214-.162.597.597 0 0 0-.253-.058H7.58a.627.627 0 0 0-.468.216.793.793 0 0 0-.196.525l-.002.679a.031.031 0 0 0 .018.029ZM16.68 24.943c-.015.602.437 1.101 1.01 1.115.572.014 1.048-.462 1.062-1.064.015-.602-.437-1.1-1.01-1.115-.572-.014-1.048.463-1.063 1.064Z"/><path fill="#919EAB" fill-rule="evenodd" d="M22.4 14.451v7.503c0 .038-.02.057-.058.057H2.23c-.024 0-.036-.012-.036-.036.002-2.474.002-4.944-.002-7.41-.001-.457.028-1.115.212-1.486.103-.205.192-.405.267-.6.088-.226.32-.524.695-.895.178-.175.47-.39.877-.643.1-.063.2-.11.296-.142.09-.03.179-.064.267-.1.157-.063.314-.125.481-.153.658-.113 1.253-.1 1.785.039.382.1.788.281 1.217.545.06.037.109.08.156.122.064.058.127.115.218.153.04.016.068.006.088-.031.031-.061.071-.113.111-.163a.816.816 0 0 0 .126-.2c.052-.13.112-.258.178-.382.132-.253.172-.564.208-.845l.001-.01c.01-.081-.023-.138-.099-.17a3.227 3.227 0 0 1-.556-.297c-.107-.072-.234-.118-.365-.165-.091-.033-.184-.067-.273-.11-.282-.138-.648-.203-.98-.262l-.259-.048c-.435-.088-1.07-.102-1.552.015-.159.038-.321.07-.486.099a3.5 3.5 0 0 0-.732.218c-.518.213-.919.419-1.201.617a6.084 6.084 0 0 0-1.893 2.162 2.793 2.793 0 0 0-.24.603c-.053.204-.114.412-.182.622a3.373 3.373 0 0 0-.152 1.007C.402 18.681.402 23.314.403 27.963A.038.038 0 0 0 .44 28h23.671c.002 0 .005 0 .007-.002h.003l.003-.002a.046.046 0 0 0 .028-.042c.002-4.464.002-9.016.001-13.657 0-.505-.07-1-.19-1.494-.033-.136-.08-.14-.14-.014-.086.184-.19.35-.308.498a7.1 7.1 0 0 1-1.077 1.081.1.1 0 0 0-.04.082ZM8.387 26.435v-.602c0-.05-.026-.075-.076-.075H6.983c-.034 0-.051.017-.051.05l.002.626c0 .017-.01.026-.026.026h-.43c-.021 0-.032-.01-.033-.031-.004-.586-.006-1.203-.004-1.851.002-.474.242-.94.732-1.058.53-.128 1.353-.086 1.576.54.087.246.167.496.166.758-.002.547-.003 1.085-.002 1.615 0 .018-.009.027-.027.027h-.474c-.017 0-.025-.009-.025-.025Zm1.758-.612c.347.179.926.41 1.171-.01.226-.385-.394-.627-.667-.699-.187-.05-.57-.303-.632-.49-.197-.603.1-1.07.721-1.144.334-.04.648.001.944.123.032.013.044.037.034.07l-.103.348a.037.037 0 0 1-.052.023c-.3-.145-1.036-.342-1.09.213-.021.204.137.29.288.37.029.015.057.03.083.046.07.04.142.075.218.101.33.115.572.271.723.467.151.198.204.715-.054.922a.672.672 0 0 0-.14.151.174.174 0 0 1-.086.069c-.466.179-.97.16-1.51-.059-.081-.032-.108-.09-.08-.172l.089-.27c.025-.076.072-.096.143-.059Zm5.254-2.13-.19.382c-.01.019-.023.024-.042.015-.34-.162-1.068-.285-1.389-.007-.035.03-.068.055-.1.078-.069.05-.13.095-.19.185-.248.376-.277.745-.087 1.107a.98.98 0 0 0 .434.435c.24.12.461.174.663.162.16-.01.307-.065.454-.12.068-.025.135-.05.205-.07.056-.017.095.002.118.056l.118.282c.024.058.007.1-.052.123a2.43 2.43 0 0 1-1.61.084c-.116-.032-.21-.1-.306-.17-.057-.041-.115-.083-.177-.117a.199.199 0 0 1-.082-.083c-.038-.074-.087-.135-.136-.196-.066-.083-.13-.164-.166-.273-.123-.374-.158-1.034.115-1.36.05-.059.097-.12.14-.185.469-.707 1.582-.643 2.273-.348.009.004.011.01.007.02Zm3.764.618a1.492 1.492 0 0 1 .064 1.176c-.07.19-.178.366-.318.517-.14.15-.308.273-.497.36a1.64 1.64 0 0 1-1.75-.238 1.537 1.537 0 0 1-.371-.48 1.495 1.495 0 0 1 .253-1.692c.14-.151.31-.274.498-.361a1.64 1.64 0 0 1 1.75.239c.155.134.281.297.371.48Zm-15.557 2.11-.869-1.549c-.043-.078-.065-.072-.066.018v1.52c0 .033-.017.05-.05.05h-.376c-.034 0-.05-.017-.05-.051l.066-2.855c0-.04.021-.064.061-.07.127-.021.215.03.265.155.07.177.16.357.27.543.282.469.548.928.8 1.378a.084.084 0 0 0 .077.043.082.082 0 0 0 .071-.05c.055-.133.12-.257.193-.374.07-.111.137-.23.2-.358.191-.389.419-.805.683-1.249.033-.055.077-.085.13-.087a.954.954 0 0 1 .086 0c.044.001.066.024.068.068l.068 2.879a.028.028 0 0 1-.027.028H4.77c-.024 0-.037-.012-.037-.035-.026-.484-.037-.96-.033-1.428 0-.252-.038-.258-.116-.02a.873.873 0 0 1-.124.242c-.093.128-.155.272-.217.415a2.072 2.072 0 0 1-.223.423.777.777 0 0 0-.13.273.2.2 0 0 1-.108.138.154.154 0 0 1-.1.012.112.112 0 0 1-.077-.058Zm17.279-2.457a.037.037 0 0 0-.027-.011h-.915a.037.037 0 0 1-.026-.01.037.037 0 0 1-.011-.027l-.001-.377a.037.037 0 0 1 .037-.037h2.42a.037.037 0 0 1 .038.037v.377c0 .01-.004.02-.011.026a.037.037 0 0 1-.026.011l-.904.001a.037.037 0 0 0-.037.037v2.432a.037.037 0 0 1-.037.037h-.452a.037.037 0 0 1-.027-.011.037.037 0 0 1-.01-.026V23.99c0-.01-.004-.02-.011-.026Z" clip-rule="evenodd"/><path fill="#919EAB" d="M16.499 19.778a1.574 1.574 0 0 1-.494-.193 1.832 1.832 0 0 0-.246-.128c-.13-.06-.26-.119-.356-.216-.051-.051-.113-.084-.176-.118a.876.876 0 0 1-.166-.106 46.328 46.328 0 0 1-.722-.64c-.266-.24-.575-.666-.93-1.28a3.055 3.055 0 0 1-.28-.643 7.067 7.067 0 0 0-.103-.307 3.564 3.564 0 0 1-.176-.617c-.14-.87-.165-1.985.157-2.84.039-.103.072-.204.105-.304.079-.237.155-.468.292-.7.579-.981 1.44-1.923 2.488-2.404.375-.172.75-.344 1.158-.427.258-.053.522-.104.792-.152.714-.13 1.473.016 2.238.207.16.04.316.098.469.174.077.038.155.068.233.097.115.043.23.087.34.158.175.113.36.212.557.298.034.015.05.04.05.077.002.348-.107.62-.222.908-.03.073-.06.148-.088.225-.038.101-.093.18-.148.26-.054.077-.107.155-.144.25a.094.094 0 0 1-.1.062.096.096 0 0 1-.04-.014 1.06 1.06 0 0 1-.16-.13c-.064-.057-.126-.114-.21-.153a1.855 1.855 0 0 1-.33-.193c-.131-.098-.291-.15-.45-.204a3.088 3.088 0 0 1-.242-.087 1.544 1.544 0 0 0-.358-.103 4.937 4.937 0 0 0-1.605.008c-.121.02-.237.056-.347.106-.088.04-.175.07-.26.1a1.814 1.814 0 0 0-.41.18 65.87 65.87 0 0 1-.324.205 3.747 3.747 0 0 0-1.284 1.35c-.257.454-.386.993-.476 1.5-.102.576.04 1.123.2 1.697.076.267.196.53.362.79a3.95 3.95 0 0 0 1.37 1.33c.065.037.125.075.181.11.122.08.241.138.359.173.035.01.063 0 .083-.03.189-.284.33-.448.423-.492l.097-.046c.37-.177.714-.341 1.143-.143.107.05.215.096.324.136.098.038.151.1.206.165a.71.71 0 0 0 .134.13c.111.079.19.309.246.466l.026.076a.118.118 0 0 0 .07.072l.304.124c.03.013.057.032.078.057.043.056.092.106.14.156.096.1.191.198.245.33.25.616.172 1.154-.231 1.615-.17.195-.367.317-.59.368-.262.06-.518.065-.765.014a.127.127 0 0 0-.1.018c-.041.026-.074.056-.107.086-.044.042-.089.083-.152.109a1.667 1.667 0 0 1-1.298-.003.714.714 0 0 1-.242-.175 1.089 1.089 0 0 0-.147-.127.436.436 0 0 1-.138-.157 1.634 1.634 0 0 1-.195-.971c.006-.046-.014-.074-.058-.084ZM7.46 18.048a.139.139 0 0 1-.038-.05.991.991 0 0 0-.233-.315 1.263 1.263 0 0 0-.32-.222c-.379-.185-.73-.281-1.138-.082-.04.02-.08.037-.119.054-.142.064-.278.124-.386.253-.08.096-.155.185-.228.267-.046.052-.091.18-.136.386a.088.088 0 0 1-.063.069c-.205.065-.39.136-.53.315a2.51 2.51 0 0 0-.278.424c-.155.31-.162.687-.021 1.13.019.06.057.104.096.147.031.035.063.07.086.115.264.503.916.634 1.472.522.088-.018.153.045.195.114.02.034.049.06.084.076.444.203.9.212 1.367.026a.39.39 0 0 0 .13-.087c.042-.042.087-.075.131-.107a.618.618 0 0 0 .174-.163c.254-.388.362-.746.325-1.075-.005-.039.01-.065.047-.078a5.403 5.403 0 0 0 1.418-.768c.267-.203.522-.428.764-.674.258-.264.527-.62.808-1.068.102-.163.168-.33.235-.497.041-.101.082-.203.13-.304.15-.311.212-.651.274-.99.02-.108.04-.217.063-.324.167-.792.004-1.533-.162-2.289l-.014-.061c-.021-.098-.059-.105-.113-.021a7.102 7.102 0 0 1-1.366 1.563.153.153 0 0 0-.05.078c-.034.122-.046.247-.058.373a2.96 2.96 0 0 1-.033.269c-.209 1.123-.784 2.002-1.727 2.638a2.667 2.667 0 0 1-.266.152c-.117.06-.235.122-.344.208a.14.14 0 0 1-.176-.004ZM145.61 17.825a7.093 7.093 0 0 1-1.811.654 9.195 9.195 0 0 1-1.925.201 5.484 5.484 0 0 1-1.924-.327 4.447 4.447 0 0 1-1.522-.93 4.396 4.396 0 0 1-1.007-1.485c-.234-.579-.352-1.224-.352-1.937 0-.713.118-1.358.352-1.937a4.264 4.264 0 0 1 1.007-1.472c.427-.41.935-.725 1.522-.943a5.483 5.483 0 0 1 1.924-.327c.713 0 1.367.088 1.963.264a3.792 3.792 0 0 1 1.585.88l-1.384 1.51a2.749 2.749 0 0 0-.906-.63c-.335-.142-.754-.213-1.258-.213-.419 0-.8.071-1.144.214a2.521 2.521 0 0 0-.868.604 2.635 2.635 0 0 0-.566.905 3.375 3.375 0 0 0-.189 1.145c0 .42.063.805.189 1.157.134.344.323.646.566.906.243.252.532.449.868.591.344.143.725.214 1.144.214.428 0 .797-.046 1.107-.138.311-.101.558-.202.743-.302v-1.447h-1.598v-1.811h3.484v4.654ZM129.957 9.549h-2.667v8.905h1.962v-6.34h.026l3.886 6.34h2.567V9.55h-1.963v6.188h-.025l-3.786-6.188ZM123.543 9.549h1.962v8.905h-1.962V9.55ZM114.658 9.549h-2.969v8.905h1.963v-6.83h.025l2.251 6.83h1.497l2.34-6.83h.025v6.83h1.962V9.55h-2.956l-2.063 5.811h-.025l-2.05-5.811Z"/><path fill="#919EAB" fill-rule="evenodd" d="M105.297 9.549h1.622l3.875 8.905h-2.214l-.768-1.886h-3.459l-.742 1.886h-2.164l3.85-8.905Zm.754 2.59-1.082 2.768h2.177l-1.095-2.767Z" clip-rule="evenodd"/><path fill="#919EAB" d="M98.827 18.48a7.095 7.095 0 0 0 1.811-.655v-4.654h-3.484v1.811h1.597v1.447a4.47 4.47 0 0 1-.742.302c-.31.092-.679.138-1.107.138-.419 0-.8-.071-1.144-.214a2.614 2.614 0 0 1-.868-.591 2.802 2.802 0 0 1-.566-.906 3.418 3.418 0 0 1-.19-1.157c0-.41.064-.792.19-1.145.134-.352.323-.654.566-.905.243-.26.532-.462.868-.604a2.962 2.962 0 0 1 1.144-.214c.504 0 .923.071 1.258.214.336.142.638.352.906.629l1.384-1.51a3.796 3.796 0 0 0-1.585-.88 6.898 6.898 0 0 0-1.963-.264c-.696 0-1.337.109-1.924.327a4.358 4.358 0 0 0-1.522.943 4.255 4.255 0 0 0-1.007 1.472c-.234.579-.352 1.224-.352 1.937 0 .713.118 1.359.352 1.937a4.387 4.387 0 0 0 1.007 1.484c.427.403.935.713 1.522.931a5.488 5.488 0 0 0 1.924.327c.654 0 1.296-.067 1.925-.2ZM83.353 11.284h-2.54V9.55h7.044v1.736h-2.541v7.17h-1.963v-7.17Z"/><path fill="#919EAB" fill-rule="evenodd" d="M71.038 12.064c-.235.579-.352 1.224-.352 1.937 0 .713.117 1.359.352 1.937a4.387 4.387 0 0 0 1.007 1.484c.427.403.934.713 1.522.931a5.488 5.488 0 0 0 1.924.327c.696 0 1.338-.109 1.925-.327a4.453 4.453 0 0 0 1.522-.93 4.24 4.24 0 0 0 .993-1.485c.244-.579.365-1.224.365-1.937 0-.713-.121-1.358-.365-1.937a4.115 4.115 0 0 0-.993-1.472 4.357 4.357 0 0 0-1.522-.943 5.486 5.486 0 0 0-1.925-.327c-.696 0-1.337.109-1.924.327a4.358 4.358 0 0 0-1.522.943 4.255 4.255 0 0 0-1.007 1.472Zm1.874 3.094a3.42 3.42 0 0 1-.188-1.157c0-.41.063-.792.188-1.145.135-.352.323-.654.566-.905.244-.26.533-.462.868-.604a2.963 2.963 0 0 1 1.145-.214c.42 0 .797.071 1.132.214a2.5 2.5 0 0 1 .88.604c.244.251.428.553.554.905.134.353.201.734.201 1.145 0 .42-.067.805-.2 1.157-.127.344-.311.646-.554.906a2.582 2.582 0 0 1-.88.591 2.867 2.867 0 0 1-1.133.214c-.42 0-.8-.071-1.145-.214a2.614 2.614 0 0 1-.868-.591 2.802 2.802 0 0 1-.566-.906Z" clip-rule="evenodd"/><path fill="#919EAB" d="M68.377 11.863a1.913 1.913 0 0 0-.717-.541 2.32 2.32 0 0 0-.969-.189c-.369 0-.713.071-1.031.214-.31.142-.583.344-.818.604a2.86 2.86 0 0 0-.54.905 3.38 3.38 0 0 0-.19 1.145c0 .42.064.805.19 1.157.133.344.314.646.54.906a2.351 2.351 0 0 0 1.786.805c.403 0 .76-.084 1.07-.252.31-.167.566-.402.767-.704l1.635 1.22a3.405 3.405 0 0 1-1.434 1.17 4.438 4.438 0 0 1-1.786.377 5.488 5.488 0 0 1-1.925-.327 4.454 4.454 0 0 1-1.522-.93 4.387 4.387 0 0 1-1.006-1.485c-.235-.579-.352-1.224-.352-1.937 0-.713.117-1.358.352-1.937a4.255 4.255 0 0 1 1.006-1.472c.428-.41.935-.725 1.522-.943a5.487 5.487 0 0 1 1.925-.327c.252 0 .512.025.78.075a3.802 3.802 0 0 1 1.572.617c.243.167.462.373.654.616l-1.51 1.233ZM59.078 11.284c.277.092.495.239.654.44l1.346-1.472a3.365 3.365 0 0 0-1.27-.717 4.995 4.995 0 0 0-1.46-.213c-.435 0-.859.063-1.27.188-.41.118-.775.298-1.094.541-.31.243-.562.545-.755.906-.184.36-.277.78-.277 1.258 0 .495.101.893.302 1.195.21.302.47.545.78.73.31.184.646.33 1.007.44.36.109.696.218 1.006.327.31.109.566.243.767.402.21.151.315.36.315.63 0 .159-.042.297-.126.414a.874.874 0 0 1-.315.29 1.615 1.615 0 0 1-.44.176 2.267 2.267 0 0 1-1.434-.164 2.11 2.11 0 0 1-.755-.629l-1.396 1.535c.428.394.889.68 1.384.855a4.769 4.769 0 0 0 1.61.264 4.74 4.74 0 0 0 1.308-.176c.42-.117.784-.298 1.094-.54a2.6 2.6 0 0 0 .755-.919c.185-.369.277-.8.277-1.296 0-.52-.1-.935-.302-1.245a2.318 2.318 0 0 0-.767-.742 3.954 3.954 0 0 0-.981-.428c-.353-.1-.684-.201-.994-.302a2.875 2.875 0 0 1-.755-.364c-.201-.143-.302-.348-.302-.617 0-.168.042-.31.126-.427a.877.877 0 0 1 .327-.277c.134-.076.277-.13.428-.164a2.03 2.03 0 0 1 .44-.05c.243 0 .499.05.767.15Z"/><path fill="#919EAB" fill-rule="evenodd" d="M48.937 9.549h1.623l3.874 8.905H52.22l-.767-1.886h-3.46l-.742 1.886h-2.163l3.85-8.905Zm.755 2.59-1.082 2.768h2.176l-1.094-2.767Z" clip-rule="evenodd"/><path fill="#919EAB" d="M37.096 9.549h-2.969v8.905h1.963v-6.83h.025l2.252 6.83h1.496l2.34-6.83h.025v6.83h1.963V9.55h-2.957l-2.062 5.811h-.026l-2.05-5.811Z"/></svg>