<svg xmlns="http://www.w3.org/2000/svg" width="122" height="30" fill="none"><path fill="#919EAB" fill-rule="evenodd" d="M0 15.05C0 6.727 6.75 0 15.077 0c5.09 0 9.82 2.564 12.614 6.726 4.565 6.946 2.628 16.263-4.343 20.812-6.971 4.548-16.321 2.618-20.886-4.328.664-1.02 1.328-2.068 1.964-3.115a127.552 127.552 0 0 0 2.933-4.907l.691-1.24c.25-.414.47-.827.692-1.24.276-.497.553-1.02.83-1.544v2.178c.027 1.543.083 3.06.249 4.603.083.772.193 1.571.36 2.343.165.854.442 1.681.83 2.453.248.496.608.938 1.023 1.296.276.22.58.413.913.524.332.11.719.165 1.079.137l.497-.082c.066 0 .114-.018.173-.038.015-.006.031-.012.049-.017l.11-.028h.056l.083-.028h.027l.139-.055.249-.137c.138-.056.249-.138.36-.221.359-.303.719-.607 1.023-.965a17.203 17.203 0 0 0 1.466-1.957c.443-.662.83-1.323 1.217-2.04.775-1.35 1.439-2.701 2.103-4.052.098-.18.187-.37.278-.564.062-.132.125-.266.192-.4.083.183.163.366.242.55.16.368.32.736.505 1.103.415.8.857 1.6 1.383 2.343a11.624 11.624 0 0 0 1.826 2.04c.11.11.304.11.442 0 .139-.11.166-.33.056-.496a9.383 9.383 0 0 1-1.273-2.15 18.532 18.532 0 0 1-.83-2.37c-.22-.8-.387-1.627-.525-2.454-.083-.413-.139-.827-.194-1.24l-.083-.634c-.027-.221-.055-.441-.055-.607a1.314 1.314 0 0 0-.83-1.02c-.692-.275-1.494.055-1.77.744-.277.662-.582 1.351-.886 2.013-.181.41-.372.811-.562 1.208-.128.27-.256.537-.378.804a64.576 64.576 0 0 1-2.02 3.887c-.36.634-.72 1.268-1.106 1.846-.36.58-.775 1.103-1.218 1.627-.193.22-.387.413-.608.579-.014.014-.035.027-.056.041a.386.386 0 0 0-.055.041l-.083.028h-.027l-.056.028h-.055c-.02 0-.026.003-.029.005v.001H13.8c-.002 0-.004 0-.014-.008a1.534 1.534 0 0 0-.038-.026 1.809 1.809 0 0 1-.332-.469 6.606 6.606 0 0 1-.581-1.764 26.72 26.72 0 0 1-.332-2.067 44.435 44.435 0 0 1-.221-4.328c0-1.46.027-2.95.083-4.41.027-.362.047-.724.067-1.083.021-.379.043-.754.071-1.123.02-.266.053-.535.085-.806.054-.459.109-.92.109-1.371a1.487 1.487 0 0 0-.775-1.378c-.691-.304-1.494-.028-1.826.634l-.055.082-.609 1.24c-.193.387-.415.8-.636 1.214l-.158.297c-.16.306-.317.603-.506.915-.249.414-.47.8-.691 1.213-.443.8-.913 1.6-1.411 2.399-.222.385-.47.799-.72 1.185l-.746 1.185a272.71 272.71 0 0 1-3.099 4.659c-.249.413-.525.799-.802 1.185A14.46 14.46 0 0 1 0 15.05Zm43.212-4.575V20.481h1.328V9.428h-2.379l-2.794 8.765-2.85-8.765h-2.35v11.026h1.327v-9.979h.25l3.208 10.006h.802l3.21-10.006h.248Zm3.268.386V9.428h1.438v1.433H46.48Zm.027 9.593v-8.518h1.411v8.518h-1.41Zm6.555.137c2.766 0 3.402-1.268 3.402-2.922l-1.328-.055c0 1.35-.47 2.012-2.074 2.012-2.158 0-2.269-1.158-2.269-3.473s.11-3.473 2.269-3.473c1.604 0 2.074.661 2.074 2.012h1.328c0-1.654-.636-2.922-3.402-2.922-3.486 0-3.68 1.985-3.68 4.41 0 2.426.194 4.411 3.68 4.411Zm6.143-7.746.068-.042c.653-.408 1.48-.924 2.255-.95.166-.028.333-.028.498-.028.222 0 .415 0 .664.028l-.11 1.02c-.221-.028-.415-.028-.609-.028-.166 0-.332 0-.525.028-.632.023-1.304.421-1.848.744-.099.058-.193.115-.282.165v6.699h-1.411v-8.545h1.106l.194.91Zm7.66 7.774c3.541 0 3.735-1.985 3.735-4.41 0-2.426-.194-4.41-3.735-4.41-3.54 0-3.734 1.984-3.734 4.41 0 2.425.193 4.41 3.734 4.41Zm0-.937c-2.213 0-2.323-1.158-2.323-3.473 0-2.343.11-3.474 2.323-3.474 2.214 0 2.324 1.13 2.324 3.474 0 2.343-.11 3.473-2.324 3.473Zm6.31 2.756c.526.055 1.218.083 1.992.083 2.158 0 2.435-.579 2.462-2.84-.636.36-1.521.773-2.434.8-3.126.055-3.32-1.626-3.32-4.273 0-2.646.166-4.41 3.182-4.41 1.023 0 1.964.469 2.71.937l.139-.771h1.106v7.552c0 3.06-.691 3.997-3.513 3.997-.83 0-1.66-.082-2.462-.193l.138-.882Zm4.454-8.93c-.608-.387-1.383-.773-2.13-.773-2.075 0-2.213 1.158-2.213 3.474 0 2.26.138 3.335 2.213 3.335.747 0 1.55-.413 2.13-.717v-5.32Zm8.904 6.174.138.772h1.08v-8.518h-1.108l-.138.744c-.691-.413-1.604-.882-2.628-.882-3.098 0-3.264 1.71-3.264 4.41 0 2.702.194 4.466 3.32 4.411.995 0 1.908-.496 2.6-.937Zm-2.269-6.947c.747 0 1.55.386 2.13.717v5.458c-.608.358-1.383.772-2.13.772-2.074 0-2.213-1.158-2.213-3.473 0-2.316.139-3.474 2.213-3.474Zm6.476-.055c.636-.386 1.493-.854 2.406-.882 1.439-.055 2.186.33 2.545.937.664-.413 1.55-.91 2.518-.937 2.932-.083 3.126 1.406 3.126 3.473v5.182h-1.411v-5.1c0-1.763-.11-2.618-2.02-2.618-.691 0-1.41.414-1.991.772a7.07 7.07 0 0 1 .166 1.874v5.1h-1.217v-5.127c0-1.764-.111-2.619-2.02-2.619-.632 0-1.315.376-1.857.673l-.08.044v7.001h-1.41v-8.517H90.6l.139.744Zm12.336-3.252v1.433h1.439V9.428h-1.439Zm.028 2.508v8.518h1.411v-8.518h-1.411Zm4.399.744c.692-.386 1.604-.854 2.6-.882 3.126-.083 3.32 1.406 3.32 3.473v5.183h-1.411v-5.1c0-1.764-.138-2.619-2.213-2.619-.747 0-1.549.414-2.13.745v7.001h-1.411v-8.545h1.107l.138.744Zm10.652 9.841c-.775 0-1.466-.028-1.992-.083l-.138.882c.802.11 1.632.193 2.462.193 2.821 0 3.513-.937 3.513-3.997v-7.552h-1.107l-.138.771c-.747-.468-1.687-.937-2.711-.937-3.015 0-3.181 1.764-3.181 4.41 0 2.647.193 4.328 3.319 4.273.913-.027 1.799-.44 2.435-.8-.028 2.261-.304 2.84-2.462 2.84Zm.304-9.786c.747 0 1.522.386 2.13.772v5.32c-.581.303-1.383.717-2.13.717-2.075 0-2.213-1.075-2.213-3.335 0-2.316.138-3.474 2.213-3.474Z" clip-rule="evenodd"/></svg>