<svg width="128" height="20" fill="none" xmlns="http://www.w3.org/2000/svg"><g clip-path="url(#a)"><path fill-rule="evenodd" clip-rule="evenodd" d="m18.532 8.459-3.992-6.19C13.375.467 10.978-.092 9.225 1.138c-.404.283-.893.866-1.466 1.748a1467.798 1467.798 0 0 0-6.507 10.126c.245.546.704.924 1.378 1.134.94.292 1.835.103 2.682-.567l4.926-7.52a.194.194 0 0 1 .17-.087.188.188 0 0 1-.096.02.194.194 0 0 0-.074.067l-4.926 7.52 2.033 3.753c.003.006.004.01.004.013 0-.003-.001-.007-.004-.012l-2.033-3.754c-.847.67-1.741.86-2.682.567-.674-.21-1.133-.588-1.378-1.134-3.21 4.107 2.82 8.91 6.126 4.455-.075-.016-.119-.033-.131-.05-.008-.008-.011-.015-.011-.022 0 .007.003.014.01.023.013.016.057.032.132.049l3.978-6.17c.278-.422.724-.764 1.34-1.025.946-.297 1.841-.117 2.685.543.343.255.563.511.66.767.18.471.36.948.545 1.43l-.545-1.43c-.097-.256-.317-.512-.66-.767-.844-.66-1.739-.84-2.685-.542-.616.26-1.062.602-1.34 1.024l1.874 2.91 1.493 2.317.825 1.274 1.14-1.11-1.14 1.11a3.539 3.539 0 0 0 2.362 1.422c1.698.266 3.068-.534 3.975-1.953 2.26-3.55 4.488-7.008 6.685-10.378.975-1.496 1.353-2.995.416-4.551C28.12.897 26.773.308 24.942.571l1.535 1.866L24.942.57c-.979.206-1.771.77-2.378 1.69L21.31 4.168l-2.778 4.29ZM15.61 15.43a.205.205 0 0 1 0 0Zm6.156-5.865c-.007.057-.076.099-.208.125.132-.026.201-.068.208-.125Zm-4.948 6.662a.266.266 0 0 1 .08-.049.264.264 0 0 0 .148-.167c.111-.376.29-.73.537-1.063a.473.473 0 0 1 .605-.134c1.82.979 3.496.891 5.03-.263a.327.327 0 0 1 0 0c-1.534 1.154-3.21 1.242-5.03.263a.474.474 0 0 0-.605.134 3.395 3.395 0 0 0-.537 1.063.27.27 0 0 1-.148.167.263.263 0 0 0-.08.05Zm86.044-12.21a1.715 1.715 0 1 1-3.43 0 1.715 1.715 0 0 1 3.43 0ZM58.438 6.576h1.524c.186 0 .28.093.28.277v2.19c0 .186-.095.278-.283.276l-1.57-.014c-.064-.002-.096.03-.096.096-.004 1.123-.004 2.26 0 3.411.003.74 1.137.754 1.65.677.199-.031.298.054.298.255v2.093c0 .171-.086.266-.258.285a7.615 7.615 0 0 1-2.421-.107c-1.694-.367-2.13-1.702-2.118-3.228.007-1.066.008-2.161.003-3.284 0-.106-.053-.165-.16-.176-.416-.042-.755-.04-1.016.008-.23.04-.345-.056-.345-.29l.003-2.296c0-.115.057-.173.172-.173h1.206c.095 0 .142-.047.142-.142l-.002-1.507c0-.117.056-.192.17-.224l2.553-.754a.096.096 0 0 1 .123.09l-.003 2.39c0 .098.05.147.148.147Zm-17.101.318c-1.575-.926-3.101-.802-4.58.37-.105.084-.152.06-.143-.074l.03-.452c.007-.108-.044-.162-.154-.162h-2.559c-.093 0-.14.046-.14.137v9.244c0 .037.015.073.04.1.027.025.061.04.098.04h2.537c.11 0 .163-.055.161-.164a250.107 250.107 0 0 1 0-4.979c.015-1.282.575-1.955 1.68-2.019.986-.057 1.745.595 1.748 1.603.007 1.861.01 3.659.01 5.392 0 .111.056.167.165.167h2.532c.11 0 .163-.055.161-.164-.022-1.847-.02-3.714.003-5.6.016-1.296-.43-2.757-1.589-3.439Zm5.696 5.795c.786 1.416 2.81 1.4 3.92.498a.237.237 0 0 1 .274-.021l1.99 1.17c.1.058.114.132.04.221-.737.906-1.67 1.464-2.797 1.674-2.704.504-5.408-.542-6.287-3.257-1.124-3.458 1.32-6.713 4.884-6.66 3.305.049 5.13 2.926 4.68 6.016-.013.093-.066.14-.159.14h-6.416c-.167.002-.21.075-.13.219Zm-.041-2.337h3.89a.03.03 0 0 0 .022-.009.03.03 0 0 0 .008-.021v-.014c0-.385-.205-.754-.571-1.027-.366-.272-.862-.425-1.38-.425h-.049c-.517 0-1.013.153-1.379.425-.366.273-.571.642-.571 1.027v.014a.03.03 0 0 0 .03.03Zm17.29 9.65h3.304c2.267-.678 3.4-2.139 3.398-4.382-.004-2.953-.007-5.91-.009-8.87 0-.116-.058-.173-.175-.173h-2.488c-.093 0-.138.046-.137.14l.011.498c.004.17-.058.198-.186.085-2.299-2.011-5.874-.795-6.899 1.972-.76 2.063-.379 3.875 1.143 5.439 1.361 1.397 4.375 1.868 5.775.203.084-.101.134-.086.15.043.184 1.493-.304 2.364-1.462 2.614-1.211.261-2.127-.058-2.748-.959-.07-.102-.157-.122-.263-.06l-2.115 1.227c-.097.057-.115.133-.055.228.615 1 1.534 1.665 2.756 1.994Zm3.75-9.745a2.153 2.153 0 0 1 .02 1.71 2.23 2.23 0 0 1-.497.73c-.214.21-.469.377-.75.493a2.422 2.422 0 0 1-1.784.022 2.342 2.342 0 0 1-.763-.475 2.23 2.23 0 0 1-.514-.718 2.151 2.151 0 0 1-.02-1.709 2.23 2.23 0 0 1 .496-.73c.214-.21.469-.378.75-.494a2.42 2.42 0 0 1 1.785-.022c.284.11.543.27.762.475.219.205.394.449.514.718Zm11.261 5.136c-1.45 1.383-3.91 1.197-5.397-.069-3.09-2.627-2.017-8.353 2.197-8.97 1.253-.182 2.322.127 3.206.926.116.105.175.078.175-.079l.003-.488c.001-.091.048-.137.14-.137h2.602c.092-.001.137.044.137.137v9.247c0 .091-.045.137-.137.137h-2.531c-.137 0-.207-.068-.209-.203l-.005-.425c-.004-.162-.064-.188-.18-.076Zm.165-4.328a2.035 2.035 0 0 0-2.03-2.036h-.394a2.033 2.033 0 0 0-2.036 2.028l-.001.527a2.033 2.033 0 0 0 2.03 2.036h.394a2.033 2.033 0 0 0 2.036-2.029l.001-.526Zm8.454-4.483a2.307 2.307 0 0 0-.926.636c-.11.124-.171.103-.186-.063a.978.978 0 0 1 .022-.326.208.208 0 0 0-.203-.253h-2.498c-.105 0-.157.052-.157.154v9.178c0 .126.063.189.19.189h2.512a.144.144 0 0 0 .131-.088.142.142 0 0 0 .011-.054c.004-1.679.002-3.371-.005-5.077a3.215 3.215 0 0 1 .178-1.069c.38-1.11 2.08-1.172 2.518-.186.133.298.198.634.194 1.008a522.53 522.53 0 0 0-.01 5.318.148.148 0 0 0 .147.148h2.534c.112 0 .166-.056.165-.167-.006-1.61-.007-3.257-.003-4.943.002-.584.065-1.004.189-1.26.655-1.348 2.66-.964 2.658.677a931.084 931.084 0 0 0 0 5.545c0 .099.049.148.147.148h2.532c.13 0 .193-.065.19-.195a91.704 91.704 0 0 1 0-4.487c.034-1.483-.1-2.53-.404-3.143-1.076-2.175-4.246-2.734-5.863-.865-.067.076-.135.076-.202 0-1.007-1.12-2.294-1.395-3.86-.825Zm19.321.652c1.322-1.098 2.758-1.251 4.307-.46 1.427.729 1.822 2.364 1.794 3.915a166.961 166.961 0 0 0-.005 5.244c.002.11-.052.164-.162.164h-2.531a.176.176 0 0 1-.176-.175c.002-1.565.003-3.253.003-5.063.002-1.441-.682-2.064-2.052-1.869-.871.124-1.322.706-1.351 1.745a117.7 117.7 0 0 0-.008 5.176c.002.124-.059.186-.184.186h-2.528c-.092 0-.137-.046-.137-.14V6.714c0-.092.046-.137.139-.137h2.524a.186.186 0 0 1 .186.197l-.019.361c-.011.187.056.22.2.1Zm10.611 12.767h3.356c2.254-.68 3.379-2.231 3.375-4.655-.005-2.87-.007-5.741-.005-8.616 0-.104-.052-.156-.156-.156l-2.439.002c-.117 0-.174.059-.172.176l.002.575c.002.174-.055.197-.172.071-.986-1.071-2.403-1.312-3.825-.931-4.559 1.216-4.63 8.046-.06 9.334 1.389.389 2.877.186 3.896-.874.095-.1.149-.082.161.055.116 1.337-.263 2.482-1.772 2.657-1.112.13-1.944-.216-2.493-1.038-.057-.084-.13-.1-.219-.05l-2.165 1.256a.153.153 0 0 0-.072.164c.004.02.013.04.026.057a5.1 5.1 0 0 0 2.734 1.973Zm3.802-9.726c.118.27.18.56.181.854a2.189 2.189 0 0 1-.673 1.582 2.383 2.383 0 0 1-1.644.663 2.415 2.415 0 0 1-.892-.166 2.348 2.348 0 0 1-.758-.48 2.226 2.226 0 0 1-.508-.722 2.134 2.134 0 0 1-.182-.853 2.186 2.186 0 0 1 .674-1.583 2.378 2.378 0 0 1 1.643-.662c.306-.002.609.054.892.165.283.11.541.274.758.48.217.206.39.452.509.722Zm-19.164-3.701h-2.68a.082.082 0 0 0-.082.082v9.359c0 .045.037.082.083.082h2.679a.082.082 0 0 0 .082-.082V6.656a.082.082 0 0 0-.082-.082Zm23.37 1.518V6.996c0-.084.042-.132.126-.143l.321-.035c.042-.006.064-.03.065-.074l.003-.077c.002-.059-.026-.088-.085-.088l-1.126-.003c-.179 0-.194.05-.046.151.091.062.19.099.298.11.093.01.14.063.14.156l-.011 1.08c0 .063.032.099.096.106l.109.011c.074.01.11-.024.11-.098Zm2.121-1.537v.493c-.161.272-.198.591-.11.959.02.085-.007.106-.082.063-.048-.03-.067-.067-.058-.113.022-.106-.013-.176-.107-.21-.116-.045-.161-.006-.134.114a.203.203 0 0 1-.044.187c-.148.186-.244.161-.287-.074a1.604 1.604 0 0 0-.288-.685c-.071-.097-.103-.085-.096.035l.049.74a.06.06 0 0 1-.007.035.091.091 0 0 1-.025.028l-.132.088a.11.11 0 0 1-.111.004.1.1 0 0 1-.04-.04.096.096 0 0 1-.013-.055l.019-1.31a.222.222 0 0 1 .151-.216.396.396 0 0 1 .115-.027c.084-.006.139.032.167.112l.224.644c.139.398.241.39.304-.027.059-.398.227-.647.505-.745Z" fill="#00AB55"/></g><defs><clipPath id="a"><path fill="#fff" transform="translate(.027 .001)" d="M0 0h127.945v20H0z"/></clipPath></defs></svg>