<svg width="120" height="32" viewBox="0 0 120 32" fill="none" xmlns="http://www.w3.org/2000/svg">
<path fill-rule="evenodd" clip-rule="evenodd" d="M8.90382 10.6237L19.5349 0.000976562L30.235 10.7304L30.057 10.875L27.6909 13.2265L19.6165 21.2883C19.597 21.4223 19.4916 21.379 19.3003 21.1585L13.9984 15.8712L9.40427 11.254C9.30096 11.0711 9.19906 10.9748 9.09855 10.965C9.0469 10.9413 9.00153 10.8868 8.96245 10.8016C8.93313 10.7989 8.9101 10.7856 8.89334 10.7619C8.85845 10.713 8.86194 10.6669 8.90382 10.6237ZM19.516 3.45811L26.759 10.6949L19.4951 17.9442L12.2667 10.7304L19.516 3.45811ZM24.3866 10.9084C24.4648 10.847 24.5143 10.7898 24.5352 10.7367C24.5534 10.6865 24.5429 10.6418 24.5038 10.6027C22.8538 8.96245 21.2296 7.34172 19.6312 5.74053C19.6005 5.70982 19.5635 5.69307 19.5202 5.69028C19.4699 5.68609 19.4483 5.69098 19.4553 5.70494L14.5219 10.6195C14.4675 10.674 14.464 10.7305 14.5115 10.7891C14.5436 10.8282 14.5945 10.8603 14.6643 10.8855C14.6796 10.8994 14.6887 10.9161 14.6915 10.9356C14.6929 10.9509 14.6992 10.9642 14.7104 10.9754L19.3736 15.6386C19.4323 15.774 19.5083 15.7957 19.6019 15.7036C21.1975 14.1038 22.7924 12.5054 24.3866 10.9084ZM19.5202 13.017C20.0255 11.8542 20.8261 11.0815 21.9219 10.699C20.7368 10.2593 19.9362 9.46638 19.5202 8.3203C19.1433 9.45658 18.3532 10.2558 17.15 10.7179C18.2862 11.1046 19.0763 11.871 19.5202 13.017ZM5.75658 23.2859L8.95615 20.103L12.2436 23.4136L9.06714 26.5691C9.0127 26.6222 8.95337 26.6284 8.88916 26.588C8.85009 26.5628 8.81585 26.5225 8.78654 26.4667L5.84243 23.5246C5.80055 23.5092 5.76844 23.4869 5.74611 23.4576C5.69864 23.3975 5.70213 23.3403 5.75658 23.2859ZM8.97919 21.7342C8.67207 22.4978 8.10949 23.0639 7.29145 23.4324C8.1402 23.7172 8.70489 24.2776 8.98548 25.1138C9.33585 24.2651 9.92142 23.6997 10.7422 23.4177C10.1825 23.1846 9.74835 22.8552 9.43986 22.4294C9.28211 22.2144 9.12855 21.9827 8.97919 21.7342ZM9.76862 15.6367L12.8593 18.7253L14.7899 20.681L17.4576 23.4303L9.00431 31.8879L9.06294 32.001L0.83157 23.8115L0.527982 23.4786C0.501458 23.4786 0.480486 23.4702 0.46513 23.4535C0.431627 23.42 0.431627 23.3857 0.46513 23.3509L8.95407 14.8473L9.76862 15.6367ZM8.97291 28.4894L14.0717 23.3927L8.9771 18.2772L3.86782 23.3906L8.97291 28.4894ZM26.8471 23.4178L30.1178 20.1178L33.3946 23.4074L30.0843 26.655L26.8471 23.4178ZM30.1073 21.6673C30.4381 22.5397 31.0243 23.1134 31.866 23.3884C31.0481 23.6691 30.4591 24.2436 30.0989 25.1118C29.7988 24.3063 29.2265 23.7361 28.382 23.4011C29.2237 23.0562 29.7988 22.4783 30.1073 21.6673ZM37.9869 24.0752L38.6737 23.4157L30.1157 14.843L29.4351 15.4837L27.8144 17.138C24.5981 20.3627 22.5767 22.3798 21.7503 23.1895C21.6135 23.3249 21.6142 23.461 21.7524 23.5978C21.7301 23.5658 21.7078 23.5331 21.6855 23.4997L30.0864 31.9151L31.9332 30.1205L37.9869 24.0752ZM25.0231 23.399L21.6855 23.4997L21.6854 23.4994L25.0231 23.399ZM25.0231 23.399L30.1282 28.4788L35.2312 23.3863L30.1387 18.2792L25.0231 23.399ZM19.4448 25.4531L19.4567 25.4564C19.4537 25.4547 19.4497 25.4536 19.4448 25.4531ZM19.4567 25.4564C19.5764 25.4911 19.6667 25.5396 19.7275 25.6017C20.3389 26.2174 20.9497 26.8309 21.5597 27.4423L25.89 31.7685C25.9766 31.855 25.9584 31.8983 25.8356 31.8983L13.0373 31.9004L18.8753 26.0729L19.3736 25.5913C19.4509 25.514 19.4786 25.4691 19.4567 25.4564ZM42.2267 4.00098L50.56 12.4516C50.72 12.6134 50.8 12.5805 50.8 12.353L50.792 4.69431C50.7902 4.59119 50.8409 4.53875 50.944 4.53697L52.3813 4.52631L52.384 16.241C52.384 16.4472 52.3111 16.4774 52.1653 16.3316L48.2267 12.3796L44.136 8.09964C43.9635 7.91653 43.8773 7.9512 43.8773 8.20364L43.896 12.2943V15.9663L42.7653 16.073C42.5929 16.0836 42.4133 16.0588 42.2267 15.9983V4.00098ZM110.571 15.8224L109.392 11.2224L107.557 4.19303C107.536 4.10591 107.507 4.10325 107.469 4.18503L104.957 9.87311C104.611 10.2446 104.451 10.6411 104.477 11.0624L103.941 12.3717C103.9 12.4695 103.86 12.4695 103.819 12.3717L100.408 4.25702C100.328 4.06858 100.261 4.07302 100.208 4.27036L99.368 7.40636L97.1653 15.9504C97.1629 15.9601 97.1627 15.9703 97.1648 15.9801C97.1669 15.99 97.1712 15.9992 97.1773 16.0072C97.1835 16.0151 97.1914 16.0216 97.2004 16.0261C97.2094 16.0305 97.2193 16.0329 97.2293 16.033L98.6213 16.0277C98.6622 16.0277 98.6871 16.0081 98.696 15.969L100.528 8.85702C100.571 8.69169 100.625 8.68724 100.691 8.84369L103.811 16.2517C103.818 16.269 103.83 16.2839 103.845 16.2943C103.86 16.3048 103.879 16.3104 103.897 16.3104C103.916 16.3104 103.934 16.3048 103.95 16.2943C103.965 16.2839 103.977 16.269 103.984 16.2517L107.008 9.08369C107.125 8.80636 107.221 8.81347 107.296 9.10503L109.072 15.9637C109.284 16.0401 109.57 16.0624 109.931 16.0304C110.119 16.0641 110.3 16.0526 110.475 15.9957C110.56 15.9672 110.592 15.9095 110.571 15.8224ZM81.0853 15.8064C78.8453 16.7984 75.9627 16.6144 73.9627 15.1771C72.6809 14.2562 71.8658 12.9264 71.5173 11.1878C71.2293 8.60109 72.1591 6.57353 74.3067 5.10509C75.4676 4.39575 76.7964 4.08553 78.2933 4.17442C80.0782 4.2793 81.6302 4.96553 82.9493 6.23309C83.0329 6.31309 83.0338 6.39397 82.952 6.47575L82.032 7.38509C81.9984 7.41784 81.9533 7.43613 81.9061 7.43613C81.8588 7.43613 81.8132 7.41784 81.7787 7.38509C79.5573 5.21709 75.968 5.15308 74.0107 7.61175C73.0027 8.87575 72.8187 10.7771 73.5947 12.2171C74.64 14.1584 76.3707 14.9922 78.7867 14.7184C80.5804 14.514 81.7564 13.602 82.3147 11.9824C82.3644 11.842 82.3147 11.7718 82.1653 11.7718L79.408 11.7904C79.3847 11.7904 79.3615 11.7858 79.34 11.777C79.3185 11.7681 79.299 11.7551 79.2826 11.7387C79.2662 11.7223 79.2533 11.7029 79.2446 11.6816C79.2359 11.6602 79.2316 11.6374 79.232 11.6144L79.2427 10.3824C79.2444 10.2704 79.3004 10.2144 79.4107 10.2144L84.0133 10.2224C84.1111 10.2224 84.1609 10.2713 84.1627 10.3691C84.1929 12.7851 83.1671 14.5975 81.0853 15.8064ZM90.1627 4.06243L92.3573 8.85177L95.5147 15.7638C95.5911 15.9344 95.536 16.0207 95.3493 16.0224L94.2187 16.0358C94.0622 16.0375 93.952 15.9673 93.888 15.8251L92.7093 13.2278C92.6649 13.1318 92.5902 13.0838 92.4853 13.0838L87.9147 13.0891C87.7955 13.0891 87.712 13.1433 87.664 13.2518L86.5013 15.8598C86.4498 15.9718 86.3627 16.0278 86.24 16.0278L84.7733 16.0171L88.272 8.13177L90.1627 4.06243ZM88.4 11.6278C88.3928 11.6437 88.3898 11.6612 88.3912 11.6786C88.3925 11.696 88.3982 11.7128 88.4078 11.7274C88.4174 11.742 88.4305 11.754 88.4459 11.7622C88.4613 11.7704 88.4785 11.7746 88.496 11.7744L91.8933 11.7611C91.9106 11.7609 91.9275 11.7563 91.9425 11.7479C91.9576 11.7395 91.9703 11.7275 91.9796 11.7129C91.9888 11.6984 91.9943 11.6818 91.9956 11.6646C91.9968 11.6474 91.9937 11.6302 91.9867 11.6144L90.2747 7.83844C90.2664 7.82026 90.2531 7.80485 90.2363 7.79405C90.2195 7.78324 90.2 7.77749 90.18 7.77749C90.16 7.77749 90.1405 7.78324 90.1237 7.79405C90.1069 7.80485 90.0936 7.82026 90.0853 7.83844L88.4 11.6278ZM61.3067 5.41713C61.3262 5.61625 61.3111 5.7958 61.2613 5.9558C61.2364 6.0358 61.1813 6.0758 61.096 6.0758L56.544 6.0518C56.5143 6.0518 56.4858 6.06388 56.4648 6.08538C56.4438 6.10689 56.432 6.13606 56.432 6.16647L56.4507 8.74513C56.4524 8.89091 56.5262 8.9638 56.672 8.9638L61.0933 8.9558C61.232 8.9558 61.3013 9.02602 61.3013 9.16647L61.2933 10.3025C61.2915 10.4376 61.224 10.5051 61.0907 10.5051L56.5493 10.4891C56.5217 10.4891 56.4953 10.5004 56.4758 10.5204C56.4563 10.5404 56.4453 10.5675 56.4453 10.5958L56.456 14.3238C56.456 14.4287 56.5075 14.4811 56.6107 14.4811L61.1147 14.4945C61.2231 14.4945 61.2773 14.5478 61.2773 14.6545L61.2853 15.7985C61.3227 15.8607 61.3049 15.9176 61.232 15.9691C61.1947 15.9976 61.144 16.0118 61.08 16.0118C59.144 16.0242 57.2133 16.0305 55.288 16.0305C55.1991 16.0554 55.1235 16.058 55.0613 16.0385C54.9707 16.0118 54.9253 15.9514 54.9253 15.8571L54.92 8.63847L54.944 4.63047C54.944 4.5398 54.9893 4.49447 55.08 4.49447H61.1707C61.2364 4.49447 61.2764 4.52646 61.2907 4.59047L61.312 4.69447L61.504 5.2278C61.4791 5.30069 61.4133 5.3638 61.3067 5.41713ZM119.56 4.49974V6.05174C119.42 6.12463 119.36 6.19129 119.381 6.25174L119.317 6.16107C119.295 6.12904 119.265 6.10287 119.231 6.08476C119.197 6.06665 119.159 6.05716 119.12 6.05707L114.976 6.04907C114.864 6.04907 114.807 6.10507 114.805 6.21707L114.789 8.77174C114.788 8.89263 114.848 8.95307 114.971 8.95307L117.469 8.96107L119.56 8.92907V10.4997C119.512 10.4766 119.474 10.5051 119.445 10.5851L114.952 10.5077C114.863 10.506 114.818 10.5504 114.816 10.6411L114.797 14.2997C114.797 14.3851 114.839 14.4277 114.923 14.4277L116.456 14.4357L119.56 14.4437V15.9877C119.455 16.0144 119.372 16.0562 119.312 16.1131L113.221 16.0304L113.197 4.75307C113.188 4.74773 113.202 4.70418 113.237 4.6224C113.273 4.53885 113.336 4.49707 113.427 4.49707L119.56 4.49974ZM69.552 4.49707L70.1973 4.51573C70.2951 4.51751 70.344 4.56729 70.344 4.66507L70.352 6.08374L67.8827 6.0544C67.7227 6.05262 67.6427 6.13173 67.6427 6.29174L67.6533 15.8437C67.6533 15.9397 67.6053 15.9886 67.5093 15.9904L66.168 16.0091L66.0267 13.7904L66.0907 6.30774C66.091 6.27564 66.085 6.2438 66.073 6.21405C66.0609 6.1843 66.0431 6.15723 66.0205 6.13442C65.998 6.1116 65.9711 6.09349 65.9415 6.08112C65.9119 6.06876 65.8801 6.0624 65.848 6.0624L63.2373 6.06774L63.216 5.99307L63.376 4.65974C63.3867 4.56552 63.44 4.5184 63.536 4.5184L69.552 4.49707ZM68.128 22.577L68.3973 23.3397L66.32 23.393C66.2806 23.394 66.2419 23.4029 66.206 23.4191C66.1702 23.4353 66.1379 23.4584 66.111 23.4872C66.0842 23.516 66.0634 23.5499 66.0499 23.5868C66.0363 23.6238 66.0302 23.663 66.032 23.7024L66.064 24.441C66.0693 24.5939 66.1484 24.6704 66.3013 24.6704L67.984 24.6757C68.1475 24.6757 68.2267 24.7584 68.2213 24.9237L68.216 25.177C68.2142 25.3068 68.1475 25.3726 68.016 25.3744L66.2 25.393C66.1111 25.3948 66.0667 25.4392 66.0667 25.5264L66.0693 26.905C66.0693 27.0135 66.1227 27.0695 66.2293 27.073L67.8987 27.129C68.0622 27.1344 68.1662 27.2161 68.2107 27.3743L68.2507 27.521C68.3075 27.7219 68.232 27.8223 68.024 27.8223L65.664 27.833C65.4684 27.8615 65.3724 27.7281 65.376 27.433C65.392 26.1406 65.3964 24.8588 65.3893 23.5877L65.3707 22.873C65.3671 22.7824 65.4107 22.7344 65.5013 22.729L68.128 22.577ZM89.6587 27.9876L86.0987 24.409C85.9493 24.2596 85.8747 24.2908 85.8747 24.5023L85.888 27.5556C85.888 27.6588 85.8418 27.7316 85.7493 27.7743C85.6373 27.8241 85.5182 27.8472 85.392 27.8437C85.2907 27.8419 85.2249 27.793 85.1947 27.697C85.168 27.6134 85.16 27.5272 85.1707 27.4383L85.1387 22.825C85.1369 22.5672 85.2258 22.5317 85.4053 22.7183L88.7467 26.185C88.8907 26.3343 88.9627 26.305 88.9627 26.097V22.777C88.9627 22.6988 89.0027 22.6623 89.0827 22.6677L89.5547 22.7103C89.6187 22.7156 89.6507 22.7503 89.6507 22.8143L89.6587 27.9876ZM92.8587 24.3129L93.0693 24.9689L93.608 26.1529C93.6138 26.1666 93.6236 26.1783 93.6361 26.1865C93.6486 26.1946 93.6633 26.1988 93.6782 26.1985C93.6932 26.1982 93.7077 26.1935 93.7199 26.1849C93.7321 26.1763 93.7414 26.1642 93.7467 26.1502L95.1413 22.7076C95.2089 22.5404 95.2658 22.544 95.312 22.7182L96.6053 27.6996C96.4204 27.8329 96.2542 27.8613 96.1067 27.7849C96.0053 27.7333 95.9253 27.6133 95.8667 27.4249C95.616 26.5964 95.4071 25.7778 95.24 24.9689C95.1707 24.6329 95.0702 24.6231 94.9387 24.9396L93.8293 27.6302C93.712 27.9147 93.5947 27.9147 93.4773 27.6302L92.3947 24.9689C92.256 24.6293 92.1422 24.6373 92.0533 24.9929C91.8667 25.7271 91.6702 26.496 91.464 27.2996C91.3467 27.76 91.0711 27.9351 90.6373 27.8249L91.9787 22.7289C92.0196 22.5671 92.0747 22.5627 92.144 22.7156L92.8587 24.3129ZM54.4133 27.9051C53.4338 27.674 52.5938 27.7193 51.8933 28.0411C51.5431 27.7318 51.4284 27.0411 51.5493 25.9691C51.5564 25.8962 51.512 25.7495 51.416 25.5291C51.4818 25.522 51.5182 25.4669 51.5253 25.3638C51.5573 24.9087 51.5671 24.4678 51.5547 24.0411L51.6133 22.8411C51.6187 22.7522 51.6667 22.7069 51.7573 22.7051L54.288 22.6971C54.3057 22.6967 54.3234 22.6999 54.3398 22.7065C54.3563 22.713 54.3713 22.7228 54.384 22.7352C54.3967 22.7476 54.4067 22.7624 54.4136 22.7788C54.4205 22.7951 54.424 22.8127 54.424 22.8304V23.2918C54.424 23.3735 54.3831 23.4135 54.3013 23.4118L52.416 23.3798C52.3813 23.3798 52.3481 23.3935 52.3236 23.418C52.2991 23.4425 52.2853 23.4758 52.2853 23.5104L52.288 24.5558C52.288 24.6393 52.3307 24.6811 52.416 24.6811L54.2133 24.6704C54.3591 24.6704 54.4293 24.7433 54.424 24.8891L54.4133 25.1958C54.4062 25.3344 54.3342 25.4029 54.1973 25.4011L52.416 25.3851C52.3307 25.3851 52.288 25.4269 52.288 25.5104L52.2827 26.9691C52.2809 27.0687 52.3298 27.1184 52.4293 27.1184L54.1707 27.1104C54.2613 27.1087 54.3253 27.1504 54.3627 27.2358C54.4569 27.458 54.4738 27.6811 54.4133 27.9051ZM60.096 27.3289L60.0426 27.8382C60.0413 27.8515 60.0362 27.8642 60.0278 27.8746C60.0195 27.8851 60.0083 27.8929 59.9956 27.8971C59.9829 27.9013 59.9693 27.9018 59.9563 27.8984C59.9434 27.8951 59.9317 27.8881 59.9226 27.8783L56.4933 24.3956C56.3529 24.2534 56.2826 24.2818 56.2826 24.4809L56.288 27.6756C56.288 27.7609 56.2462 27.808 56.1627 27.8169C55.9813 27.8383 55.7947 27.8249 55.6026 27.7769L55.6053 22.9716C55.6071 22.5965 55.7307 22.5503 55.976 22.8329C57.0675 24.0934 58.1547 25.224 59.2373 26.2249C59.3244 26.3067 59.3689 26.288 59.3707 26.1689L59.3787 22.9209C59.3787 22.7485 59.4658 22.6623 59.64 22.6623C59.6649 22.6623 59.6898 22.6614 59.7147 22.6596C59.7597 22.6559 59.805 22.6615 59.8478 22.676C59.8906 22.6906 59.9298 22.7137 59.9631 22.744C59.9964 22.7743 60.0231 22.8111 60.0413 22.8521C60.0596 22.8931 60.0691 22.9374 60.0693 22.9823L60.096 27.3289ZM81.9093 27.5211C82.0249 27.8731 81.8329 27.9407 81.3333 27.7238C81.2462 27.6864 81.1858 27.6233 81.152 27.5344L80.8827 26.8331C80.8475 26.7412 80.785 26.6621 80.7036 26.6064C80.6222 26.5507 80.5256 26.5209 80.4267 26.5211L78.6747 26.5264C78.6259 26.5264 78.5785 26.5419 78.5392 26.5707C78.4998 26.5995 78.4707 26.64 78.456 26.6864C78.3387 27.0687 78.1662 27.4153 77.9387 27.7264C77.8818 27.8047 77.8053 27.8456 77.7093 27.8491C77.4302 27.858 77.2889 27.7869 77.2853 27.6358L79.52 22.7051C79.5295 22.6841 79.5449 22.6662 79.5643 22.6537C79.5837 22.6412 79.6062 22.6346 79.6293 22.6346C79.6524 22.6346 79.675 22.6412 79.6944 22.6537C79.7138 22.6662 79.7291 22.6841 79.7386 22.7051L81.9093 27.5211ZM78.8533 25.8224C78.8471 25.8363 78.8444 25.8514 78.8455 25.8665C78.8467 25.8816 78.8516 25.8962 78.8598 25.909C78.868 25.9217 78.8793 25.9322 78.8926 25.9394C78.9059 25.9467 78.9208 25.9505 78.936 25.9504H80.3147C80.3302 25.9507 80.3455 25.9469 80.3591 25.9395C80.3728 25.9321 80.3843 25.9214 80.3926 25.9083C80.4009 25.8952 80.4057 25.8801 80.4065 25.8646C80.4073 25.8491 80.4042 25.8337 80.3973 25.8198L79.704 24.3291C79.6968 24.3132 79.6852 24.2997 79.6705 24.2902C79.6559 24.2807 79.6388 24.2757 79.6213 24.2757C79.6039 24.2757 79.5868 24.2807 79.5721 24.2902C79.5574 24.2997 79.5458 24.3132 79.5387 24.3291L78.8533 25.8224ZM103.603 24.2996L105.285 26.0996C105.493 26.3218 105.596 26.2818 105.595 25.9796L105.571 22.7636C105.571 22.7245 105.59 22.7049 105.629 22.7049L106.224 22.7129C106.283 22.7147 106.313 22.7449 106.315 22.8036C106.327 24.464 106.327 26.1289 106.315 27.7983C106.313 27.8463 106.292 27.8818 106.251 27.9049C106.228 27.9158 106.203 27.9194 106.179 27.9151C106.154 27.9107 106.132 27.8988 106.115 27.8809L102.736 24.4116C102.596 24.2694 102.529 24.2978 102.536 24.4969C102.563 25.3627 102.562 26.2738 102.533 27.2303C102.514 27.8649 102.266 28.0063 101.789 27.6543L101.781 22.9156C101.78 22.5903 101.892 22.544 102.12 22.7769L103.603 24.2996ZM64.1867 23.4489C63.8347 23.3671 63.4836 23.3627 63.1333 23.4355C63.0409 23.4551 62.9956 23.5129 62.9973 23.6089L63.056 27.6116C63.0578 27.7058 63.0133 27.7644 62.9227 27.7875C62.7147 27.8427 62.5147 27.824 62.3227 27.7315L62.32 23.5689C62.32 23.5272 62.3031 23.4871 62.2731 23.4576C62.2431 23.4281 62.2024 23.4115 62.16 23.4115L61.28 23.4062C61.2557 23.4062 61.2317 23.4014 61.2094 23.3919C61.187 23.3825 61.1668 23.3686 61.1498 23.3512C61.1329 23.3338 61.1197 23.3132 61.1109 23.2906C61.1021 23.268 61.0979 23.2438 61.0987 23.2195L61.104 22.8969C61.1058 22.7724 61.1698 22.7102 61.296 22.7102L64.08 22.7049C64.1671 22.7049 64.2196 22.7475 64.2373 22.8329C64.2729 23.0142 64.256 23.2195 64.1867 23.4489ZM72.136 25.1796L71.3147 25.6009C71.2151 25.6525 71.1973 25.7245 71.2613 25.8169L72.496 27.6169C72.5973 27.7627 72.5591 27.8338 72.3813 27.8303L72.1333 27.8276C72.0387 27.8259 71.946 27.8012 71.8633 27.7556C71.7806 27.7101 71.7104 27.6451 71.6587 27.5663L70.6507 26.0143C70.3733 25.5894 70.2453 25.6303 70.2667 26.1369C70.288 26.6152 70.2924 27.096 70.28 27.5796C70.2747 27.7485 70.1875 27.8329 70.0187 27.8329L69.768 27.8303C69.6187 27.8303 69.544 27.7547 69.544 27.6036L69.5573 26.0303C69.6071 25.328 69.5298 24.8312 69.3253 24.5396C69.5582 24.0863 69.6507 23.5289 69.6027 22.8676C69.5956 22.7716 69.64 22.72 69.736 22.7129C70.5013 22.6569 71.4 22.6409 72.0453 23.1369C72.704 23.6409 72.6373 24.5769 72.136 25.1796ZM70.2827 23.4143L70.288 25.0089C70.288 25.0379 70.2995 25.0657 70.32 25.0862C70.3405 25.1068 70.3683 25.1183 70.3973 25.1183H70.5547C70.8792 25.1175 71.1903 25.03 71.4197 24.8751C71.6491 24.7201 71.7782 24.5103 71.7787 24.2916V24.1316C71.7789 24.0228 71.7472 23.9151 71.6855 23.8146C71.6238 23.7141 71.5333 23.6228 71.419 23.546C71.3048 23.4692 71.1692 23.4084 71.02 23.367C70.8707 23.3256 70.7108 23.3045 70.5493 23.3049H70.392C70.363 23.3049 70.3352 23.3165 70.3147 23.337C70.2942 23.3575 70.2827 23.3853 70.2827 23.4143ZM75.5947 26.5956L75.568 27.6142C75.5627 27.7689 75.4827 27.8427 75.328 27.8355L75.1173 27.8276C74.9467 27.8204 74.8613 27.7307 74.8613 27.5582L74.8747 23.6329C74.8747 23.5387 74.8293 23.4755 74.7387 23.4435C74.4329 23.3351 74.1173 23.3342 73.792 23.4409C73.6107 23.3164 73.5618 23.1155 73.6453 22.8382C73.672 22.7529 73.7307 22.7093 73.8213 22.7075L76.64 22.7049C76.678 22.7049 76.7145 22.7196 76.7419 22.7459C76.7692 22.7723 76.7853 22.8082 76.7867 22.8462L76.8053 23.2649C76.8089 23.3627 76.7618 23.4098 76.664 23.4062L75.7653 23.3742C75.7337 23.3731 75.7023 23.3785 75.6728 23.39C75.6434 23.4015 75.6166 23.4189 75.5941 23.4411C75.5717 23.4633 75.554 23.4899 75.5421 23.5192C75.5303 23.5485 75.5246 23.58 75.5253 23.6115L75.5947 26.5956ZM83.4827 27.8329L83.2 27.8303C83.1004 27.8303 83.0391 27.7823 83.016 27.6863L82.9573 27.4383L82.96 22.9609C82.96 22.7814 83.0498 22.6916 83.2293 22.6916H83.4533C83.6115 22.6916 83.6915 22.7707 83.6933 22.9289C83.6987 24.4649 83.6951 26.016 83.6827 27.5823C83.6827 27.6409 83.6649 27.6925 83.6293 27.7369C83.5831 27.7938 83.5342 27.8258 83.4827 27.8329ZM100.627 27.225C100.666 27.4295 100.65 27.5877 100.579 27.6997C100.529 27.7779 100.458 27.8161 100.365 27.8143L97.7787 27.7717L97.792 22.889C97.792 22.8414 97.8107 22.7957 97.8442 22.7617C97.8776 22.7278 97.923 22.7084 97.9707 22.7077L100.365 22.6784C100.522 22.6766 100.61 22.7521 100.629 22.905L100.664 23.169C100.689 23.3504 100.61 23.4401 100.427 23.4384L98.696 23.4144C98.6671 23.414 98.6383 23.4193 98.6115 23.43C98.5847 23.4407 98.5602 23.4566 98.5396 23.4767C98.5191 23.4968 98.5027 23.5207 98.4916 23.5471C98.4804 23.5735 98.4747 23.6018 98.4747 23.6304L98.4667 24.4144C98.466 24.4507 98.4726 24.4869 98.4861 24.5207C98.4996 24.5545 98.5198 24.5852 98.5454 24.6111C98.571 24.637 98.6015 24.6574 98.6352 24.6713C98.6688 24.6851 98.7049 24.6921 98.7413 24.6917L100.379 24.6704C100.546 24.6686 100.63 24.7512 100.632 24.9184L100.637 25.169C100.639 25.3148 100.567 25.3868 100.421 25.385L98.5947 25.3717C98.5325 25.3717 98.5013 25.4028 98.5013 25.465L98.4987 27.057C98.4987 27.1086 98.5245 27.1335 98.576 27.1317C99.2427 27.0944 99.8818 27.0872 100.493 27.1104C100.559 27.1121 100.604 27.1504 100.627 27.225ZM109.403 27.4811L109.053 27.9531C108.735 27.9602 108.575 27.8073 108.573 27.4944C108.566 26.1558 108.567 24.8464 108.576 23.5664C108.576 23.4313 108.508 23.3655 108.373 23.3691L107.525 23.3877C107.417 23.3913 107.362 23.3389 107.36 23.2304L107.349 22.8757C107.349 22.8538 107.353 22.832 107.361 22.8117C107.37 22.7913 107.382 22.7728 107.398 22.7571C107.413 22.7415 107.432 22.7291 107.452 22.7206C107.473 22.7121 107.495 22.7078 107.517 22.7077L110.299 22.7131C110.428 22.7131 110.492 22.778 110.491 22.9077L110.488 23.1424C110.486 23.2971 110.407 23.3753 110.251 23.3771L109.443 23.3824C109.416 23.3828 109.389 23.3884 109.364 23.3989C109.34 23.4094 109.317 23.4246 109.298 23.4437C109.279 23.4627 109.265 23.4853 109.255 23.51C109.245 23.5347 109.24 23.5611 109.24 23.5877C109.244 24.7202 109.237 25.8677 109.221 27.0304C109.22 27.1495 109.28 27.2997 109.403 27.4811Z" fill="#919EAB"/>
</svg>
