<svg width="106" height="28" viewBox="0 0 106 28" fill="none" xmlns="http://www.w3.org/2000/svg">
<g clip-path="url(#clip0_4132_7599)">
<path d="M25.9866 7.84852L25.9318 7.44555C25.1731 2.92204 21.0176 0.94501 16.9462 0.2942C14.1178 -0.157963 11.3241 -0.0558006 8.56513 0.600686C7.81721 0.778524 7.0759 1.02447 6.34122 1.33852C6.5159 1.33159 6.75617 1.29312 7.06203 1.22312C7.47824 1.12789 7.94081 1.09731 8.44973 1.13136C11.6395 1.20893 14.5747 2.41596 16.6757 4.84893C17.4217 5.71352 18.0312 6.66168 18.5042 7.69339C18.6574 8.02825 18.7955 8.45172 18.9185 8.96379C18.9847 9.23749 19.0014 9.49888 18.9686 9.74798C19.1168 10.4284 19.1408 11.1136 19.0405 11.8035L19.0538 12.1724C19.0557 12.2216 19.0746 12.2295 19.1105 12.1961C19.1534 12.1564 19.1872 12.1075 19.2118 12.0495C19.225 12.0186 19.2483 12.0031 19.2818 12.0031H19.4255C19.464 12.0031 19.493 11.9867 19.5126 11.9539C19.5372 11.911 19.5744 11.8959 19.6242 11.9085C19.6379 11.9121 19.6523 11.9111 19.6655 11.9056C19.6786 11.9001 19.6897 11.8905 19.697 11.8783C19.7569 11.7748 19.8336 11.7209 19.9269 11.7165C19.9553 11.7146 19.9748 11.7007 19.9855 11.6749C20.0057 11.6276 20.0395 11.6115 20.0868 11.6266C20.1019 11.6313 20.1182 11.6303 20.1326 11.6239C20.147 11.6174 20.1586 11.606 20.1653 11.5916C20.1918 11.5342 20.2356 11.5144 20.2968 11.532C20.3079 11.5353 20.3199 11.5341 20.3302 11.5286C20.3404 11.5231 20.3481 11.5138 20.3516 11.5027C20.368 11.4497 20.4036 11.428 20.4585 11.4374C20.4913 11.4425 20.5187 11.4327 20.5408 11.4081C20.5856 11.3583 20.6379 11.3186 20.6978 11.2889C20.7287 11.2738 20.7584 11.2754 20.7868 11.2937L21.115 11.5037C21.1434 11.5217 21.1772 11.5292 21.2106 11.5249C21.2439 11.5206 21.2747 11.5047 21.2976 11.48C21.3285 11.4472 21.3638 11.4324 21.4035 11.4356C21.4407 11.4393 21.4726 11.428 21.4991 11.4015L21.5322 11.3684C21.5568 11.3438 21.5861 11.335 21.6201 11.3419C21.6504 11.3482 21.6734 11.34 21.6892 11.3173C21.7002 11.3014 21.7148 11.2883 21.7317 11.2789C21.7487 11.2696 21.7675 11.2643 21.7868 11.2635C21.806 11.2626 21.8252 11.2663 21.8427 11.2742C21.8603 11.282 21.8757 11.2939 21.8878 11.3088C21.8935 11.3157 21.8948 11.3236 21.8916 11.3324C21.8784 11.3633 21.8869 11.3712 21.9172 11.3561C22.0559 11.2848 22.2 11.2344 22.3495 11.2047C22.3672 11.2012 22.384 11.1939 22.3985 11.1833C22.4131 11.1726 22.4251 11.159 22.4336 11.1433C22.4664 11.0846 22.5178 11.0483 22.5878 11.0345C22.8237 10.9884 23.0662 10.9493 23.3153 10.9172C23.3506 10.9128 23.3805 10.9235 23.4051 10.9493L24.1543 11.7534C24.1764 11.7774 24.2032 11.7928 24.2347 11.7997C24.2883 11.8117 24.3359 11.8338 24.3776 11.866C24.4337 11.9095 24.4756 11.9363 24.5034 11.9464C24.5803 11.9747 24.6626 11.9997 24.7503 12.0211C24.7679 12.0249 24.7846 12.023 24.8004 12.0154C24.8105 12.0104 24.8174 12.0025 24.8212 11.9918C24.8282 11.9678 24.843 11.9612 24.8657 11.9719C24.8833 11.9807 24.8925 11.9937 24.8931 12.0107C24.9 12.14 24.8777 12.279 24.8259 12.4278C24.1647 14.3169 23.2812 16.066 22.0524 17.5738C20.3541 19.5596 18.4064 21.2633 16.2093 22.6847C16.181 22.7029 16.1599 22.7082 16.1337 22.7149C16.1257 22.7169 16.1173 22.719 16.1081 22.7216C16.0969 22.7247 16.0869 22.7313 16.0797 22.7405C16.0726 22.7498 16.0686 22.761 16.0684 22.7727C16.0677 22.8011 16.0832 22.8216 16.1147 22.8342C18.6612 21.5067 20.8287 19.722 22.6172 17.4801C24.6926 14.8788 26.1947 11.5916 26.0159 8.21461L25.9866 7.84852Z" fill="#919EAB"/>
<path d="M8.5973 12.4477C8.1877 10.9531 8.40338 9.50298 9.18378 8.17203C9.12135 8.04464 9.06176 7.92104 9.005 7.80122C8.95076 7.68771 8.91135 7.57167 8.88675 7.45311C8.84198 7.23365 8.70103 7.05865 8.46392 6.92811C8.34914 6.86505 8.24919 6.77676 8.16405 6.66324C8.15144 6.64685 8.13599 6.63518 8.1177 6.62824C8.09941 6.62131 8.08112 6.61595 8.06284 6.61216C8.03004 6.60586 8.00167 6.59104 7.9777 6.5677L7.49527 6.10987C7.46815 6.08401 7.43599 6.0673 7.39878 6.05973C7.3641 6.05279 7.33793 6.04018 7.32027 6.02189C7.00117 5.6927 6.62689 5.3468 6.19743 4.98419C5.99121 4.81014 5.78058 4.60707 5.56554 4.375C5.42932 4.22743 5.26189 4.07892 5.06324 3.92946C4.8854 3.79577 4.71797 3.6318 4.56094 3.43757C4.54392 3.41632 4.51978 3.40272 4.49378 3.39973L4.44554 3.39406C4.4159 3.3909 4.39193 3.37734 4.37365 3.35338C4.27211 3.22473 4.15324 3.11595 4.01702 3.02703C3.99054 3.01 3.96216 2.99897 3.93189 2.99392C3.89468 2.98761 3.87734 2.96712 3.87986 2.93243C3.88302 2.88514 3.8641 2.87347 3.82311 2.89743C3.76383 2.93275 3.70297 2.95135 3.64054 2.95325C2.21531 4.18613 1.36491 5.73937 1.08932 7.61297C0.93671 8.88117 1.01711 10.1355 1.33054 11.3759C1.95013 13.8354 3.25932 16.1161 4.91662 18.0231C5.12473 18.0818 5.35491 18.0852 5.60716 18.0335C5.69671 18.0146 5.76009 17.9736 5.7973 17.9105C5.81369 17.8834 5.83797 17.8699 5.87013 17.8699H5.91459C5.94928 17.8699 5.97387 17.8538 5.98838 17.8216C6.00856 17.7781 6.04261 17.7627 6.09054 17.7753C6.13153 17.7866 6.15865 17.7721 6.17189 17.7318C6.17567 17.7217 6.18135 17.7125 6.18892 17.7043C6.20027 17.6911 6.21446 17.6845 6.23148 17.6845H6.86243C6.89459 17.6845 6.91761 17.6993 6.93148 17.7289C6.95103 17.7687 6.98256 17.786 7.02608 17.7809C7.23356 17.7545 7.43567 17.7485 7.63243 17.763C7.82351 17.7781 8.02563 17.8223 8.23878 17.8954C11.018 18.8574 14.0724 17.9597 16.2963 16.1709C16.396 16.0902 16.4852 15.9975 16.5641 15.8928C16.5828 15.8679 16.6063 15.8473 16.6331 15.8323C16.6968 15.7964 16.7406 15.7431 16.7646 15.6724C16.7747 15.6434 16.7923 15.6195 16.8176 15.6005C17.2111 15.3111 17.5589 14.9668 17.8609 14.5676C17.8859 14.5347 17.8974 14.4948 17.8931 14.4559C17.8918 14.4433 17.8704 14.4373 17.8288 14.438C16.2793 16.2741 13.6874 16.8322 11.5345 15.8588C10.0695 15.1973 9.09045 14.0602 8.5973 12.4477Z" fill="#919EAB"/>
<path fill-rule="evenodd" clip-rule="evenodd" d="M8.44973 1.13136C11.6395 1.20893 14.5747 2.41596 16.6757 4.84893C17.4217 5.71352 18.0312 6.66168 18.5042 7.69339C18.6574 8.02825 18.7955 8.45172 18.9185 8.96379C18.9847 9.23749 19.0014 9.49888 18.9686 9.74798C18.3645 7.61456 17.009 6.29025 14.902 5.77502C14.1629 5.59403 13.3687 5.59655 12.5192 5.78259C11.6086 5.9989 10.8152 6.41319 10.1392 7.02553C9.76901 7.37049 9.45054 7.75266 9.18378 8.17203C9.12135 8.04464 9.06176 7.92104 9.005 7.80122C8.95076 7.68771 8.91135 7.57167 8.88675 7.45311C8.84198 7.23365 8.70103 7.05865 8.46392 6.92811C8.34914 6.86505 8.24919 6.77676 8.16405 6.66324C8.15144 6.64685 8.13599 6.63518 8.1177 6.62824C8.09941 6.62131 8.08112 6.61595 8.06284 6.61216C8.03004 6.60586 8.00167 6.59104 7.9777 6.5677L7.49527 6.10987C7.46815 6.08401 7.43599 6.0673 7.39878 6.05973C7.3641 6.05279 7.33793 6.04018 7.32027 6.02189C7.00117 5.6927 6.62689 5.3468 6.19743 4.98419C5.99121 4.81014 5.78058 4.60707 5.56554 4.375C5.42932 4.22743 5.26189 4.07892 5.06324 3.92946C4.8854 3.79577 4.71797 3.6318 4.56094 3.43757C4.54392 3.41632 4.51978 3.40272 4.49378 3.39973L4.44554 3.39406C4.4159 3.3909 4.39193 3.37734 4.37365 3.35338C4.27211 3.22473 4.15324 3.11595 4.01702 3.02703C3.99054 3.01 3.96216 2.99897 3.93189 2.99392C3.89468 2.98761 3.87734 2.96712 3.87986 2.93243C3.88302 2.88514 3.8641 2.87347 3.82311 2.89743C3.76383 2.93275 3.70297 2.95135 3.64054 2.95325C4.24342 2.44054 4.89203 2.01672 5.58635 1.68185L6.34122 1.33852C6.5159 1.33159 6.75617 1.29312 7.06203 1.22312C7.47824 1.12789 7.94081 1.09731 8.44973 1.13136ZM6.35351 2.25037C6.35351 2.24954 6.35351 2.24875 6.35349 2.24793C6.35347 2.24703 6.35344 2.24613 6.3534 2.24524C6.35348 2.24693 6.35351 2.24864 6.35351 2.25037Z" fill="#919EAB"/>
<path fill-rule="evenodd" clip-rule="evenodd" d="M24.8259 12.4278C24.1647 14.3169 23.2812 16.066 22.0524 17.5738C20.3541 19.5596 18.4064 21.2633 16.2093 22.6847C16.181 22.7029 16.1599 22.7082 16.1337 22.7149C16.1257 22.7169 16.1173 22.719 16.1081 22.7216C16.0969 22.7247 16.0869 22.7313 16.0797 22.7405C16.0726 22.7498 16.0686 22.761 16.0684 22.7727C16.0677 22.8011 16.0832 22.8216 16.1147 22.8342C15.2432 23.2876 14.5713 23.5843 14.0989 23.7243C13.8769 23.7899 13.5969 23.8025 13.2589 23.7622C12.9972 23.73 12.7342 23.6578 12.47 23.5455C11.2813 23.041 10.1691 22.4438 9.13365 21.7539L9.11851 21.7426C7.91653 20.9417 6.8082 20.0257 5.79351 18.9946C5.4864 18.6831 5.1941 18.3592 4.91662 18.0231C5.12473 18.0818 5.35491 18.0852 5.60716 18.0335C5.69671 18.0146 5.76009 17.9736 5.7973 17.9105C5.81369 17.8834 5.83797 17.8699 5.87013 17.8699H5.91459C5.94928 17.8699 5.97387 17.8538 5.98838 17.8216C6.00856 17.7781 6.04261 17.7627 6.09054 17.7753C6.13153 17.7866 6.15865 17.7721 6.17189 17.7318C6.17567 17.7217 6.18135 17.7125 6.18892 17.7043C6.20027 17.6911 6.21446 17.6845 6.23148 17.6845H6.86243C6.89459 17.6845 6.91761 17.6993 6.93148 17.7289C6.95103 17.7687 6.98256 17.786 7.02608 17.7809C7.23356 17.7545 7.43567 17.7485 7.63243 17.763C7.82351 17.7781 8.02563 17.8223 8.23878 17.8954C11.018 18.8574 14.0724 17.9597 16.2963 16.1709C16.396 16.0902 16.4852 15.9975 16.5641 15.8928C16.5828 15.8679 16.6063 15.8473 16.6331 15.8323C16.6968 15.7964 16.7406 15.7431 16.7646 15.6724C16.7747 15.6434 16.7923 15.6195 16.8176 15.6005C17.2111 15.3111 17.5589 14.9668 17.8609 14.5676C17.8859 14.5347 17.8974 14.4948 17.8931 14.4559C17.8918 14.4433 17.8704 14.4373 17.8288 14.438C18.3491 13.8231 18.7085 13.1357 18.9072 12.3758L19.0405 11.8035L19.0538 12.1724C19.0557 12.2216 19.0746 12.2295 19.1105 12.1961C19.1534 12.1564 19.1872 12.1075 19.2118 12.0495C19.225 12.0186 19.2483 12.0031 19.2818 12.0031H19.4255C19.464 12.0031 19.493 11.9867 19.5126 11.9539C19.5372 11.911 19.5744 11.8959 19.6242 11.9085C19.6379 11.9121 19.6523 11.9111 19.6655 11.9056C19.6786 11.9001 19.6897 11.8905 19.697 11.8783C19.7569 11.7748 19.8336 11.7209 19.9269 11.7165C19.9553 11.7146 19.9748 11.7007 19.9855 11.6749C20.0057 11.6276 20.0395 11.6115 20.0868 11.6266C20.1019 11.6313 20.1182 11.6303 20.1326 11.6239C20.147 11.6174 20.1586 11.606 20.1653 11.5916C20.1918 11.5342 20.2356 11.5144 20.2968 11.532C20.3079 11.5353 20.3199 11.5341 20.3302 11.5286C20.3404 11.5231 20.3481 11.5138 20.3516 11.5027C20.368 11.4497 20.4036 11.428 20.4585 11.4374C20.4913 11.4425 20.5187 11.4327 20.5408 11.4081C20.5856 11.3583 20.6379 11.3186 20.6978 11.2889C20.7287 11.2738 20.7584 11.2754 20.7868 11.2937L21.115 11.5037C21.1434 11.5217 21.1772 11.5292 21.2106 11.5249C21.2439 11.5206 21.2747 11.5047 21.2976 11.48C21.3285 11.4472 21.3638 11.4324 21.4035 11.4356C21.4407 11.4393 21.4726 11.428 21.4991 11.4015L21.5322 11.3684C21.5568 11.3438 21.5861 11.335 21.6201 11.3419C21.6504 11.3482 21.6734 11.34 21.6892 11.3173C21.7002 11.3014 21.7148 11.2883 21.7317 11.2789C21.7487 11.2696 21.7675 11.2643 21.7868 11.2635C21.806 11.2626 21.8252 11.2663 21.8427 11.2742C21.8603 11.282 21.8757 11.2939 21.8878 11.3088C21.8935 11.3157 21.8948 11.3236 21.8916 11.3324C21.8784 11.3633 21.8869 11.3712 21.9172 11.3561C22.0559 11.2848 22.2 11.2344 22.3495 11.2047C22.3672 11.2012 22.384 11.1939 22.3985 11.1833C22.4131 11.1726 22.4251 11.159 22.4336 11.1433C22.4664 11.0846 22.5178 11.0483 22.5878 11.0345C22.8237 10.9884 23.0662 10.9493 23.3153 10.9172C23.3506 10.9128 23.3805 10.9235 23.4051 10.9493L24.1543 11.7534C24.1764 11.7774 24.2032 11.7928 24.2347 11.7997C24.2883 11.8117 24.3359 11.8338 24.3776 11.866C24.4337 11.9095 24.4756 11.9363 24.5034 11.9464C24.5803 11.9747 24.6626 11.9997 24.7503 12.0211C24.7679 12.0249 24.7846 12.023 24.8004 12.0154C24.8105 12.0104 24.8174 12.0025 24.8212 11.9918C24.8282 11.9678 24.843 11.9612 24.8657 11.9719C24.8833 11.9807 24.8925 11.9937 24.8931 12.0107C24.9 12.14 24.8777 12.279 24.8259 12.4278ZM10.143 21.231C10.1433 21.2303 10.1436 21.2296 10.1439 21.2289L10.143 21.231ZM12.9259 21.1296C12.9285 21.1371 12.9294 21.145 12.9288 21.1532L12.9259 21.1296Z" fill="#919EAB"/>
<path d="M61.1276 6.28389C61.7718 6.30091 62.5172 6.36618 63.1699 6.5478C63.5098 6.6424 63.7371 6.76695 63.8519 6.92145C64.014 7.13902 64.0502 7.43353 63.9607 7.80497L63.6599 9.12362C63.3591 9.50073 62.9592 9.62181 62.4604 9.48686C62.2025 9.41749 61.9452 9.34686 61.6885 9.27497C60.9176 9.05929 60.2015 9.00064 59.3861 9.06118C58.4089 9.13402 57.9114 9.65618 57.6143 10.551C57.4712 10.9786 57.3618 11.4163 57.2861 11.864C57.211 12.308 57.1322 12.751 57.0496 13.1931C56.9399 13.7777 56.9667 14.3383 57.13 14.875C57.3198 15.2382 57.6553 15.4422 58.1365 15.487C58.8838 15.5595 59.6213 15.5043 60.3491 15.3215C60.6505 15.2458 60.9513 15.1679 61.2515 15.0878C61.662 14.9781 62.082 14.9525 62.3961 15.2789L62.5493 15.6156C62.4932 16.1851 62.4216 16.6562 62.3346 17.0289C62.228 17.4817 61.984 17.7822 61.6024 17.9304C61.1503 18.1063 60.542 18.1915 60.0435 18.2293C59.3227 18.2829 58.5672 18.2996 57.777 18.2794C56.2531 18.2397 54.4842 17.7715 54.0074 16.117C53.8807 15.6768 53.8157 15.206 53.8126 14.7047C53.8157 14.2248 53.8586 13.7143 53.9412 13.1732C54.2014 11.4733 54.4927 9.80848 55.2996 8.30916C55.6471 7.66276 56.1431 7.17339 56.7876 6.84105C56.9061 6.77988 57.1347 6.68654 57.4734 6.56105L57.8546 6.45226L58.3039 6.36713C59.2391 6.27253 60.1804 6.24479 61.1276 6.28389Z" fill="#919EAB"/>
<path d="M35.2739 6.30855L35.7053 6.35963C35.7463 6.37729 35.7945 6.38738 35.85 6.3899C36.3012 6.50152 36.7704 6.69639 36.9832 7.07949C37.1056 7.29958 37.2043 7.57769 37.2793 7.91382C37.2907 8.12382 37.2992 8.32436 37.3049 8.51544C37.3812 10.9396 37.4417 13.0519 37.4865 14.8523C37.4915 15.0598 37.5354 15.2522 37.618 15.4294C37.6283 15.4514 37.6449 15.4699 37.6657 15.4825C37.6864 15.4952 37.7105 15.5015 37.7348 15.5005C37.7591 15.4996 37.7826 15.4916 37.8023 15.4774C37.8221 15.4633 37.8373 15.4436 37.8459 15.4208C37.933 15.1932 37.991 14.9646 38.02 14.735C38.0982 14.1031 38.1821 13.4712 38.2716 12.8394C38.6323 10.2449 38.9032 8.33035 39.0842 7.09557C39.1145 6.88999 39.2132 6.70711 39.3803 6.54693L39.5893 6.42963C39.6511 6.43152 39.7035 6.41481 39.7463 6.37949L41.573 6.36814C41.8315 6.40283 42.0242 6.5381 42.1509 6.77395C42.1585 6.83008 42.1755 6.8717 42.202 6.89882C42.1951 6.97386 42.2049 7.04607 42.2313 7.11544C41.7111 10.0668 41.188 13.0166 40.662 15.9648C40.4492 17.1604 39.8911 17.9948 38.5866 18.2048C37.7135 18.3448 36.3551 18.359 35.5785 17.8453C35.0734 17.5114 34.8851 16.7546 34.8681 16.1965C34.8019 13.9559 34.742 11.8234 34.6884 9.79909L34.6884 9.79835C34.6827 9.61552 34.6712 9.24552 34.537 9.10571C34.5211 9.08903 34.5009 9.07701 34.4786 9.07096C34.4563 9.06492 34.4328 9.06506 34.4106 9.07139C34.3884 9.07772 34.3684 9.08999 34.3527 9.10687C34.3369 9.12375 34.3261 9.14461 34.3214 9.1672C34.2495 9.49828 34.1946 9.79499 34.1568 10.0573C33.8377 12.2935 33.5047 14.7126 33.1578 17.3146C33.0834 17.8727 32.7848 18.1635 32.262 18.1868C31.9808 18.1994 31.5075 18.2026 30.8422 18.1963C30.2468 18.1906 29.9703 17.8863 30.0126 17.2834C30.8355 12.6514 31.3656 9.68904 31.6027 8.39625C31.6784 7.98319 31.8449 7.58305 32.1022 7.19584L32.3301 6.93949C32.5729 6.73454 32.8523 6.57499 33.1682 6.46084C33.8512 6.28175 34.5531 6.23098 35.2739 6.30855Z" fill="#919EAB"/>
<path d="M102.958 6.3558L102.538 6.31607C101.44 6.25553 100.339 6.25995 99.2341 6.32932C99.0764 6.33941 98.9206 6.35486 98.7667 6.37567L98.2853 6.45797L97.3214 6.76918C96.4877 7.12612 95.9163 7.76116 95.6073 8.67432C95.3311 9.49098 95.2046 10.2572 95.228 10.973C95.327 11.4409 95.501 11.8051 95.7501 12.0655C96.2931 12.6331 97.2835 13.0503 98.0639 13.2981C98.6554 13.486 99.2672 13.6837 99.8991 13.8912C100.136 13.9688 100.336 14.0719 100.5 14.2005C100.798 14.4342 100.721 14.8504 100.485 15.1285C100.288 15.3171 100.036 15.4214 99.7288 15.4416C99.7231 15.4441 99.7174 15.4463 99.7118 15.4482C99.0061 15.5447 98.2995 15.5463 97.5919 15.453C97.5704 15.4448 97.5515 15.4422 97.5351 15.4454L96.6951 15.2581C96.6674 15.2594 96.6472 15.2515 96.6346 15.2345L96.172 15.1134C96.1001 15.1127 96.027 15.0982 95.9526 15.0699C95.7167 15.02 95.4849 15.0125 95.2573 15.0472C95.2434 15.0579 95.2135 15.0664 95.1674 15.0727C94.854 15.2064 94.6544 15.4722 94.5686 15.8701C94.4728 16.3179 94.4053 16.6644 94.3662 16.9097C94.3448 17.0434 94.3441 17.1907 94.3643 17.3515C94.4986 17.833 94.9224 17.9786 95.3774 18.0676C96.732 18.3305 98.185 18.3182 99.5235 18.252C100.493 18.2047 101.3 18.0281 101.944 17.7223C103.379 17.0412 103.888 15.2524 103.893 13.7455C103.831 12.5905 103.145 12.058 102.184 11.5945C101.555 11.2901 100.827 11.0801 100.134 10.8801C99.8192 10.7893 99.5115 10.7005 99.2236 10.6059C99.0162 10.5378 98.8049 10.4461 98.5899 10.3307C98.2903 9.83058 98.4546 9.45882 99.0827 9.2154C99.2776 9.14035 99.5134 9.09211 99.7903 9.07067C100.719 8.99783 101.661 9.04797 102.541 9.32797C103.312 9.57202 104.288 9.81797 104.53 8.72635C104.621 8.31707 104.701 7.89738 104.771 7.46729C104.767 6.97603 104.498 6.67112 103.963 6.55256C103.52 6.45418 103.21 6.3927 103.033 6.3681C103.012 6.37378 102.987 6.36968 102.958 6.3558Z" fill="#919EAB"/>
<path d="M82.0916 6.34924L82.6336 6.34734L83.0035 6.4618C83.2595 6.65099 83.3699 6.9105 83.3346 7.24032C83.2362 7.83563 83.1719 8.21307 83.1416 8.37262C83.029 8.97235 82.6034 9.14262 82.033 9.13883C80.9539 9.1319 79.8589 9.13032 78.7477 9.1341C78.3775 9.13536 78.0281 9.16563 77.6996 9.22491C77.0109 9.34978 76.8492 9.95708 76.7868 10.553C76.7672 10.7365 76.8473 10.8289 77.027 10.8302C78.0316 10.8384 79.4048 10.8346 81.1466 10.8188C81.3825 10.8314 81.5707 10.921 81.7113 11.0875C81.8362 11.2735 81.8876 11.4684 81.8655 11.6721C81.8245 11.9634 81.7782 12.2507 81.7265 12.5338C81.6149 13.1411 81.4332 13.5346 80.773 13.5384C79.3692 13.5473 77.9616 13.5488 76.5503 13.5432C76.3214 13.5422 76.2457 13.6737 76.2003 13.8837C76.0931 14.3781 76.1072 14.7931 76.2428 15.1286C76.4535 15.2862 76.6991 15.3758 76.9797 15.3972C77.2711 15.4199 77.5631 15.4335 77.8557 15.4379C78.9334 15.4518 80.0178 15.4376 81.1088 15.3953C81.1649 15.4489 81.2544 15.4883 81.3774 15.5136C81.6303 15.6838 81.7526 15.9238 81.7445 16.2334C81.6801 16.6269 81.6167 17.011 81.5543 17.3856C81.4654 17.9185 81.139 18.1865 80.5753 18.1896C79.2869 18.1978 77.9528 18.2013 76.573 18.2C75.2222 18.1991 73.4258 17.9437 73.0749 16.3186C72.9601 15.7869 72.926 15.1916 72.9727 14.5326C73.1531 13.3584 73.3851 12.0227 73.6689 10.5256C73.7938 9.86469 73.9615 9.24793 74.1722 8.67532C74.5531 7.63793 75.2603 6.93762 76.2939 6.57437C76.8577 6.43248 77.378 6.35744 77.8547 6.34924C78.8032 6.33284 80.2155 6.33284 82.0916 6.34924Z" fill="#919EAB"/>
<path d="M46.8353 7.05485C46.7861 6.84107 46.7054 6.67238 46.5931 6.54877C46.4474 6.43148 46.297 6.37062 46.1419 6.3662C45.8915 6.35864 45.3634 6.35895 44.5574 6.36715C44.3279 6.36904 44.1169 6.46332 43.9246 6.64999C43.7953 6.83098 43.7159 7.00314 43.6862 7.16648C43.3299 9.14476 42.9749 11.1234 42.6211 13.1023C42.5069 13.7436 42.4581 14.4241 42.4745 15.1436C42.5136 15.5441 42.5533 15.8263 42.5937 15.9903C42.8358 16.9803 43.4513 17.6365 44.4401 17.9588C44.8261 18.0849 45.1855 18.1669 45.5185 18.2047C46.5187 18.3176 47.5116 18.3185 48.4973 18.2076C49.9597 18.043 51.2226 17.3666 51.8696 15.9865C52.2625 15.1496 52.5396 14.2753 52.7011 13.3634C53.0574 11.3535 53.4127 9.34057 53.7672 7.32445C53.8227 7.01922 53.7558 6.76098 53.5666 6.54972C53.4241 6.43557 53.2825 6.37567 53.1419 6.36999C52.7799 6.35548 52.2142 6.35548 51.4449 6.36999C51.0003 6.4444 50.7392 6.69413 50.6616 7.11918C50.6074 7.41747 50.5632 7.6199 50.5292 7.72648L50.4005 8.52296C50.4043 8.58603 50.3949 8.65256 50.3722 8.72256L50.288 9.20877C50.0761 10.4587 49.8541 11.7089 49.622 12.9594C49.5028 13.6021 49.3613 14.1264 49.1973 14.5326C48.7773 15.5674 47.7689 15.5589 46.8182 15.5116C46.5862 15.4996 46.3803 15.4583 46.2005 15.3877C46.0189 15.3158 45.8745 15.1935 45.7673 15.0207C45.6229 14.5073 45.6081 13.9385 45.7228 13.3142C45.883 12.4376 46.2538 10.3512 46.8353 7.05485Z" fill="#919EAB"/>
<path d="M68.0973 6.48354C68.2852 6.74841 68.3691 6.98395 68.3489 7.19016C67.9264 9.5298 67.5136 11.8707 67.1107 14.2129C67.0665 14.4695 67.0971 14.7691 67.2024 15.1115C67.56 15.3398 67.9992 15.4502 68.5201 15.4426C68.8367 15.4382 68.9988 15.436 69.0064 15.436C69.8054 15.4492 70.6059 15.4347 71.4081 15.3925L71.8234 15.6223C71.9218 15.7541 71.9905 15.8995 72.0296 16.0584C71.9836 16.6291 71.9091 17.1116 71.8064 17.5057C71.6954 17.9364 71.427 18.16 71.0014 18.1764C70.4111 18.1997 69.1791 18.2054 67.3055 18.1934C66.7928 18.1906 66.2896 18.1452 65.8043 18.0089C64.8666 17.7447 64.2722 17.1491 64.0212 16.2221C63.9087 15.4388 63.9588 14.718 64.0269 13.9376L64.1801 12.9718C64.5219 11.0597 64.8618 9.14039 65.1999 7.21381C65.2604 6.8676 65.419 6.61661 65.6757 6.46084C65.8283 6.40408 65.9623 6.37192 66.0777 6.36435C66.8263 6.31138 67.4995 6.35111 68.0973 6.48354Z" fill="#919EAB"/>
<path d="M86.7684 6.35107L85.2095 6.36716C84.7554 6.4567 84.4836 6.75089 84.3941 7.24972C84.2761 7.8999 84.1595 8.54787 84.0441 9.19364L83.9901 9.49351C83.7631 10.7478 83.5411 12.0063 83.3242 13.2688C83.1634 14.2021 83.159 15.1181 83.3109 16.0167C83.5727 16.9804 84.1705 17.6198 85.1045 17.9351C86.2178 18.3107 87.3095 18.3192 88.5259 18.269C90.065 18.2047 91.5795 17.7365 92.3911 16.3545C92.8943 15.4965 93.1989 14.5051 93.3777 13.5261C93.7548 11.4608 94.1259 9.39355 94.4911 7.32445C94.5649 6.79977 94.3631 6.48035 93.8857 6.36621L92.1886 6.36905C91.7283 6.43905 91.4546 6.72062 91.3676 7.21378C90.9797 9.41405 90.6155 11.4409 90.275 13.2943C90.2012 13.6929 90.0965 14.0766 89.9609 14.4455C89.7232 15.09 89.2553 15.4407 88.5572 15.4974C88.0754 15.5372 87.6305 15.5286 87.2224 15.4719C86.9112 15.4293 86.5981 15.2562 86.4619 14.9573C86.3465 14.437 86.337 13.9048 86.4335 13.3605C86.7911 11.3482 87.1468 9.33553 87.5005 7.32256C87.5157 7.23616 87.5311 7.15166 87.5469 7.06905C87.5185 6.79157 87.3914 6.58251 87.1657 6.44188L86.8005 6.35391C86.7898 6.35328 86.7791 6.35234 86.7684 6.35107Z" fill="#919EAB"/>
<path d="M50.6323 27.615C49.867 28.2563 48.6969 27.7559 48.2608 26.9405C47.6564 25.812 48.4964 24.4593 49.7573 24.3988C50.3457 24.371 50.8492 24.5965 51.268 25.0751C51.2688 25.0759 51.2695 25.0769 51.2699 25.078C51.27 25.0783 51.2701 25.0785 51.2702 25.0788L51.2703 25.0791L51.2703 25.0795C51.2705 25.0802 51.2705 25.0809 51.2704 25.0816C51.2704 25.0819 51.2704 25.0822 51.2703 25.0825C51.2703 25.0828 51.2702 25.0832 51.2701 25.0836L51.27 25.084C51.2699 25.0842 51.2698 25.0844 51.2697 25.0845C51.2696 25.0848 51.2695 25.085 51.2694 25.0853C51.2688 25.0864 51.268 25.0875 51.267 25.0883C51.0583 25.2574 50.8373 25.4109 50.6039 25.549C50.5982 25.5522 50.5916 25.5536 50.5852 25.5529C50.5787 25.5523 50.5727 25.5496 50.568 25.5452C50.2514 25.24 49.9049 25.1542 49.5284 25.2879C48.6884 25.585 48.7584 26.8374 49.6334 27.0436C50.001 27.13 50.3135 27.0133 50.5708 26.6936C50.5788 26.6836 50.5839 26.6715 50.5853 26.6588C50.5868 26.6461 50.5846 26.6332 50.5791 26.6216C50.5736 26.6101 50.5649 26.6003 50.554 26.5935C50.5432 26.5866 50.5307 26.583 50.5178 26.5829L49.8557 26.5848C49.792 26.5848 49.7601 26.5527 49.7601 26.4883V25.9671C49.7601 25.9034 49.7917 25.8716 49.8547 25.8716H51.2935C51.3179 25.8716 51.3412 25.8813 51.3584 25.8985C51.3756 25.9157 51.3853 25.939 51.3853 25.9633L51.3872 27.7379C51.3872 27.7636 51.3769 27.7883 51.3587 27.8065C51.3404 27.8247 51.3157 27.8351 51.2897 27.8354C51.1384 27.836 50.9842 27.8366 50.8272 27.8373C50.7925 27.8373 50.7628 27.8246 50.7383 27.7994C50.7055 27.766 50.6941 27.7181 50.7042 27.6556C50.7168 27.5781 50.6928 27.5645 50.6323 27.615Z" fill="#919EAB"/>
<path d="M80.2953 27.9565C80.5771 27.9754 80.9016 27.9007 81.1097 27.6992C81.2056 27.6065 81.2444 27.6264 81.2261 27.7588C81.2135 27.8439 81.2497 27.8881 81.3349 27.8912C81.4881 27.8957 81.6508 27.895 81.823 27.8894C81.8435 27.8889 81.8629 27.8804 81.8773 27.8657C81.8916 27.851 81.8996 27.8313 81.8996 27.8108V26.0202C81.8996 25.9963 81.8901 25.9735 81.8733 25.9566C81.8564 25.9398 81.8336 25.9303 81.8097 25.9303L80.3842 25.9312C80.3123 25.9312 80.276 25.9672 80.2754 26.0391V26.5395C80.2754 26.5668 80.2862 26.5931 80.3053 26.6124C80.3245 26.6317 80.3505 26.6426 80.3776 26.6426L81.0454 26.6416C81.0545 26.6415 81.0634 26.6438 81.0714 26.6481C81.0794 26.6525 81.0862 26.6588 81.0911 26.6665C81.096 26.6743 81.0989 26.6832 81.0995 26.6924C81.1001 26.7016 81.0984 26.7108 81.0946 26.7192C80.9111 27.1089 80.3861 27.1988 80.0257 27.0588C79.2916 26.7731 79.2349 25.6806 79.9982 25.3656C80.3854 25.206 80.7421 25.2814 81.0681 25.5916C81.0883 25.6106 81.11 25.6131 81.1334 25.5992C81.3572 25.4624 81.5704 25.3161 81.7728 25.1603C81.7848 25.1508 81.7858 25.1401 81.7757 25.1281C81.2989 24.5871 80.7247 24.3726 80.0531 24.4849C78.9388 24.6722 78.1877 25.9416 78.7751 26.9954C79.1062 27.592 79.6129 27.9124 80.2953 27.9565Z" fill="#919EAB"/>
<path d="M73.3984 27.8732H72.6189C72.6086 27.8732 72.5988 27.8691 72.5915 27.8619C72.5842 27.8546 72.5801 27.8447 72.5801 27.8344V24.5425C72.5801 24.5323 72.5842 24.5224 72.5915 24.5151C72.5988 24.5079 72.6086 24.5038 72.6189 24.5038L73.2896 24.5019C73.2954 24.5018 73.3011 24.5031 73.3063 24.5055C73.3116 24.508 73.3162 24.5116 73.3199 24.5161L74.7539 26.3105C74.759 26.3168 74.7658 26.3214 74.7736 26.3236C74.7814 26.3258 74.7896 26.3255 74.7972 26.3228C74.8048 26.3201 74.8114 26.3151 74.816 26.3085C74.8206 26.3019 74.823 26.294 74.823 26.2859L74.8258 24.5407C74.8258 24.5381 74.8261 24.5356 74.8265 24.5331C74.8267 24.5323 74.8269 24.5314 74.8271 24.5306C74.8276 24.529 74.8281 24.5274 74.8288 24.5258C74.8307 24.5211 74.8336 24.5168 74.8372 24.5132C74.8408 24.5096 74.845 24.5068 74.8497 24.5048C74.8545 24.5029 74.8595 24.5019 74.8646 24.5019L75.6384 24.5028C75.6435 24.5028 75.6485 24.5038 75.6532 24.5058C75.6548 24.5064 75.6563 24.5072 75.6578 24.508C75.6592 24.5089 75.6606 24.5098 75.6619 24.5108C75.6628 24.5114 75.6636 24.5121 75.6643 24.5128C75.6648 24.5132 75.6653 24.5137 75.6658 24.5142C75.6694 24.5178 75.6723 24.5221 75.6742 24.5268C75.6762 24.5315 75.6772 24.5365 75.6772 24.5416L75.6781 27.8344C75.6781 27.8447 75.674 27.8546 75.6667 27.8619C75.6595 27.8691 75.6496 27.8732 75.6393 27.8732H74.9677C74.9619 27.8733 74.9562 27.872 74.951 27.8696C74.9457 27.8671 74.9411 27.8635 74.9374 27.859L73.5015 26.0721C73.4964 26.0658 73.4896 26.0613 73.4818 26.0591C73.474 26.0569 73.4658 26.0571 73.4582 26.0599C73.4506 26.0626 73.444 26.0676 73.4394 26.0742C73.4348 26.0808 73.4324 26.0887 73.4324 26.0967L73.4372 27.8344C73.4372 27.8447 73.4331 27.8546 73.4258 27.8619C73.4185 27.8691 73.4087 27.8732 73.3984 27.8732Z" fill="#919EAB"/>
<path fill-rule="evenodd" clip-rule="evenodd" d="M54.9732 27.843L55.1359 27.4485C55.1417 27.4345 55.1516 27.4225 55.1642 27.4141C55.1769 27.4057 55.1917 27.4012 55.2069 27.4012L56.4234 27.4003C56.4385 27.4002 56.4534 27.4047 56.466 27.4131C56.4787 27.4216 56.4885 27.4335 56.4943 27.4476L56.6561 27.842C56.6617 27.8561 56.6713 27.8682 56.6838 27.8768C56.6962 27.8853 56.7109 27.89 56.7261 27.8903L57.497 27.8978C57.5096 27.8979 57.5221 27.8948 57.5332 27.8889C57.5443 27.8829 57.5538 27.8743 57.5608 27.8639C57.5679 27.8534 57.5722 27.8413 57.5734 27.8288C57.5747 27.8162 57.5728 27.8036 57.568 27.7919L56.2663 24.5728C56.2606 24.5585 56.2507 24.5462 56.2379 24.5376C56.225 24.529 56.2099 24.5245 56.1945 24.5246L55.4396 24.5255C55.4245 24.5258 55.4097 24.5305 55.3973 24.5391C55.3848 24.5477 55.3752 24.5597 55.3696 24.5738L54.0642 27.7919C54.0593 27.8036 54.0575 27.8162 54.0587 27.8288C54.06 27.8413 54.0643 27.8534 54.0713 27.8639C54.0783 27.8743 54.0878 27.8829 54.099 27.8889C54.1101 27.8948 54.1225 27.8979 54.1351 27.8978L54.9023 27.8903C54.9175 27.8903 54.9323 27.8858 54.945 27.8774C54.9576 27.869 54.9674 27.857 54.9732 27.843ZM55.458 26.5905C55.4573 26.5841 55.4581 26.5776 55.4604 26.5716L55.7801 25.7203C55.7831 25.7129 55.7882 25.7066 55.7947 25.7021C55.8013 25.6977 55.8091 25.6953 55.817 25.6953C55.825 25.6953 55.8327 25.6977 55.8393 25.7021C55.8459 25.7066 55.851 25.7129 55.8539 25.7203L56.1708 26.5726C56.1731 26.5786 56.1739 26.585 56.1731 26.5914C56.1724 26.5978 56.1701 26.6039 56.1665 26.6092C56.1628 26.6145 56.158 26.6188 56.1523 26.6219C56.1466 26.6249 56.1403 26.6265 56.1339 26.6265L55.4973 26.6255C55.4909 26.6255 55.4845 26.6239 55.4789 26.6209C55.4732 26.6179 55.4683 26.6136 55.4647 26.6083C55.4611 26.603 55.4588 26.5969 55.458 26.5905Z" fill="#919EAB"/>
<path d="M62.9059 26.2434C62.8731 26.2636 62.8482 26.291 62.8312 26.3257C62.6332 26.7337 62.4415 27.1197 62.2561 27.4835C62.2432 27.5083 62.2238 27.5291 62.2 27.5436C62.1761 27.5582 62.1487 27.5658 62.1208 27.5658L61.732 27.5649C61.7068 27.5649 61.682 27.5579 61.6606 27.5445C61.6392 27.5311 61.622 27.5119 61.6109 27.4892L61.0301 26.3181C60.9721 26.2008 60.9434 26.2078 60.944 26.3389L60.9488 27.7815C60.9488 27.8116 60.9367 27.8405 60.9153 27.8618C60.8938 27.8831 60.8647 27.895 60.8343 27.895L60.2119 27.8941C60.1775 27.8941 60.1446 27.8804 60.1203 27.8561C60.0959 27.8318 60.0823 27.7989 60.0823 27.7645V24.6362C60.0823 24.6064 60.0942 24.5778 60.1153 24.5566C60.1364 24.5355 60.165 24.5237 60.1949 24.5237H60.8551C60.8862 24.5237 60.9166 24.5324 60.9431 24.5487C60.9697 24.5651 60.9913 24.5885 61.0055 24.6164L61.89 26.3758C61.894 26.3836 61.9 26.3901 61.9074 26.3946C61.9149 26.3992 61.9234 26.4016 61.9321 26.4016C61.9351 26.4016 61.9381 26.4013 61.9411 26.4007C61.9433 26.4003 61.9455 26.3997 61.9476 26.3989C61.9508 26.3978 61.9539 26.3964 61.9568 26.3946C61.9642 26.3901 61.9702 26.3836 61.9742 26.3758L62.8766 24.5899C62.8866 24.5702 62.9018 24.5536 62.9205 24.5419C62.9391 24.5302 62.9606 24.5239 62.9826 24.5237H63.6882C63.7133 24.5237 63.7374 24.5336 63.7551 24.5514C63.7729 24.5691 63.7828 24.5932 63.7828 24.6183V27.7834C63.7828 27.8133 63.771 27.8419 63.7499 27.863C63.7288 27.8841 63.7001 27.896 63.6703 27.896L63.0299 27.8931C62.9548 27.8925 62.9176 27.8547 62.9182 27.7796L62.9258 26.2538C62.9259 26.2516 62.9254 26.2494 62.9242 26.2475C62.9231 26.2456 62.9214 26.244 62.9194 26.2429C62.9174 26.2419 62.915 26.2413 62.9127 26.2414C62.9103 26.2415 62.908 26.2422 62.9059 26.2434Z" fill="#919EAB"/>
<path d="M67.7028 24.5228H68.3669C68.4217 24.5228 68.4662 24.5672 68.4662 24.6221V27.7948C68.4662 27.8496 68.4217 27.8941 68.3669 27.8941H67.7028C67.648 27.8941 67.6035 27.8496 67.6035 27.7948V24.6221C67.6035 24.5672 67.648 24.5228 67.7028 24.5228Z" fill="#919EAB"/>
</g>
<defs>
<clipPath id="clip0_4132_7599">
<rect width="104.622" height="28" fill="white" transform="translate(0.689194 0.000976562)"/>
</clipPath>
</defs>
</svg>
