<svg width="106" height="28" fill="none" xmlns="http://www.w3.org/2000/svg"><g clip-path="url(#a)" fill="#00AB55"><path d="m25.987 7.849-.055-.403C25.173 2.922 21.018.945 16.946.294a21.322 21.322 0 0 0-8.38.307c-.749.178-1.49.423-2.225.738.175-.007.415-.046.721-.116a4.787 4.787 0 0 1 1.388-.092c3.19.078 6.125 1.285 8.226 3.718a11.97 11.97 0 0 1 1.828 2.844c.153.335.291.759.415 1.27.066.274.082.536.05.785.148.68.172 1.366.072 2.056l.013.368c.002.05.02.057.056.024a.42.42 0 0 0 .102-.146.07.07 0 0 1 .07-.047h.143a.095.095 0 0 0 .088-.05c.024-.042.061-.057.111-.044a.064.064 0 0 0 .042-.003.067.067 0 0 0 .031-.028c.06-.103.137-.157.23-.162a.063.063 0 0 0 .058-.041c.02-.047.055-.064.102-.048a.065.065 0 0 0 .078-.035c.027-.058.07-.078.132-.06a.044.044 0 0 0 .055-.03c.016-.052.052-.074.107-.065a.087.087 0 0 0 .082-.029.52.52 0 0 1 .157-.12.085.085 0 0 1 .089.006l.328.21a.144.144 0 0 0 .183-.024.127.127 0 0 1 .106-.044.113.113 0 0 0 .095-.034l.033-.034a.092.092 0 0 1 .088-.026c.03.006.053-.002.07-.025a.126.126 0 0 1 .097-.053.122.122 0 0 1 .1.045.023.023 0 0 1 .005.023c-.014.031-.005.04.025.024a1.64 1.64 0 0 1 .432-.151.124.124 0 0 0 .085-.062.215.215 0 0 1 .154-.109c.236-.046.478-.085.727-.117a.1.1 0 0 1 .09.032l.75.804a.15.15 0 0 0 .08.047.359.359 0 0 1 .143.066c.056.043.098.07.125.08.077.029.16.054.247.075a.076.076 0 0 0 .05-.006.04.04 0 0 0 .021-.023c.007-.024.022-.03.045-.02.017.009.026.022.027.039.007.129-.015.268-.067.417-.661 1.889-1.545 3.638-2.774 5.146a26.81 26.81 0 0 1-5.843 5.11c-.028.019-.05.024-.075.03a.843.843 0 0 0-.026.008.055.055 0 0 0-.028.018.055.055 0 0 0-.012.033c0 .028.015.049.047.061a20.135 20.135 0 0 0 6.502-5.354c2.076-2.601 3.578-5.888 3.399-9.265l-.03-.366Z"/><path d="M8.597 12.448c-.41-1.495-.194-2.945.587-4.276a31.032 31.032 0 0 1-.179-.37 1.523 1.523 0 0 1-.118-.349c-.045-.22-.186-.394-.423-.525a.94.94 0 0 1-.3-.265.105.105 0 0 0-.046-.035.362.362 0 0 0-.055-.016.164.164 0 0 1-.085-.044l-.483-.458a.193.193 0 0 0-.096-.05.146.146 0 0 1-.079-.038c-.319-.33-.693-.675-1.123-1.038a7.199 7.199 0 0 1-.631-.609 3.752 3.752 0 0 0-.503-.446 2.858 2.858 0 0 1-.502-.491.101.101 0 0 0-.067-.038l-.048-.006a.1.1 0 0 1-.072-.04 1.487 1.487 0 0 0-.357-.327.224.224 0 0 0-.085-.033c-.037-.006-.055-.027-.052-.062.003-.047-.016-.059-.057-.035a.375.375 0 0 1-.182.056C2.215 4.186 1.365 5.74 1.089 7.613a10.239 10.239 0 0 0 .242 3.763c.62 2.46 1.928 4.74 3.586 6.647.208.059.438.062.69.01.09-.018.153-.06.19-.123a.08.08 0 0 1 .073-.04h.045c.034 0 .059-.016.073-.048.02-.044.055-.06.103-.047.04.012.068-.003.08-.043.005-.01.01-.02.018-.028a.054.054 0 0 1 .042-.02h.631c.033 0 .056.015.07.045.019.04.05.057.094.052a2.477 2.477 0 0 1 1.213.114c2.779.962 5.833.065 8.057-1.724.1-.08.19-.173.268-.278a.222.222 0 0 1 .07-.06.28.28 0 0 0 .13-.16.15.15 0 0 1 .054-.072c.393-.29.74-.634 1.043-1.033a.157.157 0 0 0 .032-.112c-.001-.013-.023-.019-.064-.018a5.369 5.369 0 0 1-6.295 1.42c-1.465-.66-2.444-1.798-2.937-3.41Z"/><path fill-rule="evenodd" clip-rule="evenodd" d="M8.45 1.131c3.19.078 6.125 1.285 8.226 3.718a11.97 11.97 0 0 1 1.828 2.844c.153.335.291.759.415 1.27.066.274.082.536.05.785-.605-2.133-1.96-3.458-4.067-3.973-.74-.181-1.533-.178-2.383.008-.91.216-1.704.63-2.38 1.243-.37.344-.688.727-.955 1.146a31.032 31.032 0 0 1-.179-.37 1.523 1.523 0 0 1-.118-.349c-.045-.22-.186-.394-.423-.525a.94.94 0 0 1-.3-.265.105.105 0 0 0-.046-.035.362.362 0 0 0-.055-.016.164.164 0 0 1-.085-.044l-.483-.458a.193.193 0 0 0-.096-.05.146.146 0 0 1-.079-.038c-.319-.33-.693-.675-1.123-1.038a7.199 7.199 0 0 1-.631-.609 3.752 3.752 0 0 0-.503-.446 2.858 2.858 0 0 1-.502-.491.101.101 0 0 0-.067-.038l-.048-.006a.1.1 0 0 1-.072-.04 1.487 1.487 0 0 0-.357-.327.224.224 0 0 0-.085-.033c-.037-.006-.055-.027-.052-.062.003-.047-.016-.059-.057-.035a.375.375 0 0 1-.182.056 9.091 9.091 0 0 1 1.945-1.271l.755-.343c.175-.007.415-.046.721-.116a4.787 4.787 0 0 1 1.388-.092Zm-2.096 1.12v-.003a.119.119 0 0 0 0 .002ZM24.826 12.428c-.661 1.889-1.545 3.638-2.774 5.146a26.81 26.81 0 0 1-5.843 5.11c-.028.019-.05.024-.075.03a.843.843 0 0 0-.026.008.055.055 0 0 0-.028.018.055.055 0 0 0-.012.033c0 .028.015.049.047.061-.872.454-1.544.75-2.016.89-.222.066-.502.078-.84.038a2.927 2.927 0 0 1-.789-.216 20.312 20.312 0 0 1-3.336-1.792l-.015-.011a20.956 20.956 0 0 1-3.325-2.748c-.308-.312-.6-.636-.877-.972.208.059.438.062.69.01.09-.018.153-.06.19-.123a.08.08 0 0 1 .073-.04h.045c.034 0 .059-.016.073-.048.02-.044.055-.06.103-.047.04.012.068-.003.08-.043.005-.01.01-.02.018-.028a.054.054 0 0 1 .042-.02h.631c.033 0 .056.015.07.045.019.04.05.057.094.052a2.477 2.477 0 0 1 1.213.114c2.779.962 5.833.065 8.057-1.724.1-.08.19-.173.268-.278a.222.222 0 0 1 .07-.06.28.28 0 0 0 .13-.16.15.15 0 0 1 .054-.072c.393-.29.74-.634 1.043-1.033a.157.157 0 0 0 .032-.112c-.001-.013-.023-.019-.064-.018.52-.615.88-1.302 1.078-2.062l.134-.572.013.368c.002.05.02.057.056.024a.42.42 0 0 0 .102-.146.07.07 0 0 1 .07-.047h.143a.095.095 0 0 0 .088-.05c.024-.042.061-.057.111-.044a.064.064 0 0 0 .042-.003.067.067 0 0 0 .031-.028c.06-.103.137-.157.23-.162a.063.063 0 0 0 .058-.041c.02-.047.055-.064.102-.048a.065.065 0 0 0 .078-.035c.027-.058.07-.078.132-.06a.044.044 0 0 0 .055-.03c.016-.052.052-.074.107-.065a.087.087 0 0 0 .082-.029.52.52 0 0 1 .157-.12.085.085 0 0 1 .089.006l.328.21a.144.144 0 0 0 .183-.024.127.127 0 0 1 .106-.044.113.113 0 0 0 .095-.034l.033-.034a.092.092 0 0 1 .088-.026c.03.006.053-.002.07-.025a.126.126 0 0 1 .097-.053.122.122 0 0 1 .1.045.023.023 0 0 1 .005.023c-.014.031-.005.04.025.024a1.64 1.64 0 0 1 .432-.151.124.124 0 0 0 .085-.062.215.215 0 0 1 .154-.109c.236-.046.478-.085.727-.117a.1.1 0 0 1 .09.032l.75.804a.15.15 0 0 0 .08.047.359.359 0 0 1 .143.066c.056.043.098.07.125.08.077.029.16.054.247.075a.076.076 0 0 0 .05-.006.04.04 0 0 0 .021-.023c.007-.024.022-.03.045-.02.017.009.026.022.027.039.007.129-.015.268-.067.417ZM10.143 21.23v-.002.002Zm2.783-.101a.058.058 0 0 1 .003.023l-.003-.023Z"/><path d="M61.128 6.284c.644.017 1.39.082 2.042.264.34.094.567.219.682.373.162.218.198.513.109.884l-.301 1.319c-.3.377-.7.498-1.2.363-.258-.07-.515-.14-.772-.212a6.437 6.437 0 0 0-2.302-.214c-.977.073-1.475.595-1.772 1.49a8.703 8.703 0 0 0-.328 1.313c-.075.444-.154.887-.236 1.33a3.488 3.488 0 0 0 .08 1.681c.19.363.525.567 1.006.612a6.457 6.457 0 0 0 2.213-.165c.302-.076.602-.154.903-.234.41-.11.83-.135 1.144.19l.153.338c-.056.57-.127 1.04-.214 1.413-.107.453-.351.753-.733.901-.452.176-1.06.262-1.558.3-.721.053-1.477.07-2.267.05-1.524-.04-3.293-.509-3.77-2.163a5.202 5.202 0 0 1-.194-1.412c.003-.48.046-.99.128-1.532.26-1.7.552-3.365 1.359-4.864a3.451 3.451 0 0 1 1.488-1.468c.118-.061.347-.154.685-.28l.382-.109.449-.085a19.877 19.877 0 0 1 2.824-.083ZM35.274 6.309l.431.05c.041.018.09.028.145.03.451.113.92.307 1.133.69.123.22.221.499.296.835.012.21.02.41.026.601.076 2.425.137 4.537.181 6.337.006.208.05.4.132.577a.123.123 0 0 0 .117.072.123.123 0 0 0 .11-.08c.088-.228.146-.456.175-.686.078-.632.162-1.264.252-1.896.36-2.594.631-4.509.812-5.743a.939.939 0 0 1 .296-.55l.21-.116a.227.227 0 0 0 .156-.05l1.827-.012c.258.035.451.17.578.406a.216.216 0 0 0 .051.125.478.478 0 0 0 .03.216c-.52 2.952-1.044 5.902-1.57 8.85-.213 1.195-.77 2.03-2.075 2.24-.873.14-2.232.154-3.009-.36-.505-.334-.693-1.09-.71-1.648-.066-2.241-.126-4.374-.18-6.398-.005-.183-.017-.553-.151-.693a.126.126 0 0 0-.216.061c-.072.331-.126.628-.164.89-.32 2.236-.652 4.656-1 7.258-.074.558-.372.848-.895.872-.281.012-.755.016-1.42.01-.595-.006-.872-.31-.83-.914.823-4.632 1.354-7.594 1.59-8.887.076-.413.243-.813.5-1.2l.228-.257c.243-.204.522-.364.838-.478a5.79 5.79 0 0 1 2.106-.152ZM102.958 6.356l-.42-.04a28.04 28.04 0 0 0-3.304.013c-.158.01-.313.026-.467.047l-.482.082-.964.311c-.833.357-1.405.992-1.714 1.905-.276.817-.402 1.583-.379 2.299.099.468.273.832.522 1.092.543.568 1.534.985 2.314 1.233.591.188 1.203.386 1.835.593.237.078.437.18.601.31.298.233.221.65-.015.928a1.165 1.165 0 0 1-.756.313.212.212 0 0 1-.017.006 7.928 7.928 0 0 1-2.12.005.104.104 0 0 0-.057-.008l-.84-.187c-.028.001-.048-.006-.06-.023l-.463-.122a.632.632 0 0 1-.22-.043 1.93 1.93 0 0 0-.695-.023.214.214 0 0 1-.09.026c-.313.133-.513.4-.598.797-.096.448-.164.794-.203 1.04a1.564 1.564 0 0 0-.002.442c.135.481.558.627 1.013.716 1.355.262 2.808.25 4.147.184.969-.047 1.776-.224 2.42-.53 1.435-.68 1.944-2.47 1.949-3.977-.062-1.154-.748-1.687-1.709-2.15-.629-.305-1.357-.515-2.05-.715-.315-.09-.623-.18-.91-.274a3.947 3.947 0 0 1-.634-.275c-.3-.5-.135-.872.493-1.116.195-.075.43-.123.707-.144.929-.073 1.871-.023 2.751.257.771.244 1.747.49 1.989-.602.091-.409.171-.829.241-1.259-.004-.491-.273-.796-.808-.914-.443-.099-.753-.16-.93-.185-.021.006-.046.002-.075-.012ZM82.092 6.35l.542-.003.37.115c.255.189.366.449.33.778-.098.596-.162.973-.192 1.133-.113.6-.539.77-1.109.766-1.08-.007-2.174-.009-3.285-.005-.37.001-.72.032-1.048.09-.69.126-.85.733-.913 1.329-.02.183.06.276.24.277 1.005.008 2.378.005 4.12-.011a.758.758 0 0 1 .564.268c.125.187.177.381.154.585-.04.291-.087.579-.138.862-.112.607-.294 1-.954 1.004-1.404.01-2.811.01-4.223.005-.229 0-.304.13-.35.34-.107.495-.093.91.043 1.246.21.157.456.247.737.268.291.023.583.037.876.04 1.077.015 2.162 0 3.253-.042a.545.545 0 0 0 .268.119c.253.17.376.41.368.72l-.19 1.152c-.09.533-.416.8-.98.804-1.288.008-2.622.011-4.002.01-1.35 0-3.147-.256-3.498-1.881a6.347 6.347 0 0 1-.102-1.786c.18-1.175.412-2.51.696-4.007.125-.661.293-1.278.503-1.85.381-1.038 1.088-1.738 2.122-2.102a6.92 6.92 0 0 1 1.56-.225c.95-.016 2.362-.016 4.238 0ZM46.835 7.055a1.107 1.107 0 0 0-.242-.506.749.749 0 0 0-.451-.183 50.5 50.5 0 0 0-1.585.001c-.23.002-.44.096-.632.283-.13.181-.21.353-.239.516-.356 1.979-.711 3.957-1.065 5.936a10.295 10.295 0 0 0-.147 2.042c.04.4.08.682.12.846.242.99.857 1.647 1.846 1.969a5.49 5.49 0 0 0 1.079.246c1 .113 1.993.114 2.978.003 1.463-.165 2.726-.841 3.373-2.221.393-.837.67-1.712.831-2.624.356-2.01.712-4.022 1.066-6.039.056-.305-.011-.563-.2-.774a.73.73 0 0 0-.425-.18 32.012 32.012 0 0 0-1.697 0c-.445.074-.706.324-.783.75-.055.297-.099.5-.133.606l-.129.797a.54.54 0 0 1-.028.2l-.084.486c-.212 1.25-.434 2.5-.666 3.75-.12.643-.26 1.167-.425 1.574-.42 1.034-1.428 1.026-2.379.979a1.962 1.962 0 0 1-.617-.124.882.882 0 0 1-.434-.367c-.144-.514-.159-1.083-.044-1.707.16-.876.53-2.963 1.112-6.26ZM68.097 6.484c.188.264.272.5.252.706-.423 2.34-.835 4.68-1.238 7.023-.044.257-.014.556.091.899.358.228.797.338 1.318.33l.486-.006c.8.013 1.6-.001 2.402-.043l.415.23c.099.131.168.277.207.435a8.57 8.57 0 0 1-.224 1.448c-.11.43-.379.654-.805.67-.59.024-1.822.03-3.696.017-.512-.002-1.015-.048-1.5-.184-.938-.264-1.533-.86-1.784-1.787-.112-.783-.062-1.504.006-2.284l.153-.966c.342-1.912.682-3.832 1.02-5.758.06-.346.219-.597.476-.753.152-.057.286-.09.402-.097.748-.053 1.421-.013 2.02.12ZM86.768 6.351l-1.558.016c-.455.09-.726.384-.816.883-.118.65-.235 1.298-.35 1.944l-.054.3a430.753 430.753 0 0 0-.666 3.775 8.112 8.112 0 0 0-.013 2.748c.262.963.86 1.603 1.793 1.918 1.114.376 2.206.384 3.422.334 1.539-.064 3.053-.532 3.865-1.914.503-.859.808-1.85.987-2.829.377-2.065.748-4.132 1.113-6.202.074-.524-.128-.844-.605-.958l-1.697.003c-.46.07-.734.352-.821.845-.388 2.2-.752 4.227-1.093 6.08a7.05 7.05 0 0 1-.314 1.151c-.238.645-.706.996-1.404 1.052-.482.04-.927.032-1.335-.025-.31-.043-.624-.216-.76-.515a4.044 4.044 0 0 1-.029-1.597 3166.91 3166.91 0 0 0 1.114-6.29.794.794 0 0 0-.381-.628l-.365-.088a.543.543 0 0 1-.033-.003ZM50.632 27.615c-.765.641-1.935.14-2.371-.674-.605-1.129.235-2.482 1.496-2.542.589-.028 1.092.197 1.511.676l.002.003v.007a5.502 5.502 0 0 1-.665.464.031.031 0 0 1-.02.004.029.029 0 0 1-.017-.008c-.317-.305-.663-.39-1.04-.257-.84.297-.77 1.55.105 1.756.368.086.68-.03.938-.35a.068.068 0 0 0-.017-.1.068.068 0 0 0-.036-.011l-.662.002c-.064 0-.096-.032-.096-.097v-.52c0-.065.032-.096.095-.096h1.439a.092.092 0 0 1 .091.091l.002 1.775c0 .026-.01.05-.028.069a.1.1 0 0 1-.07.028l-.462.002a.12.12 0 0 1-.089-.038c-.032-.033-.044-.08-.034-.143.013-.078-.011-.091-.072-.041ZM80.295 27.956c.282.02.607-.055.815-.257.096-.093.134-.073.116.06-.013.085.024.13.109.132.153.005.316.004.488-.002a.079.079 0 0 0 .077-.078v-1.79a.09.09 0 0 0-.09-.09h-1.426c-.072 0-.108.036-.109.108v.5a.102.102 0 0 0 .102.103h.668a.054.054 0 0 1 .055.05c0 .01-.002.019-.005.027-.184.39-.709.48-1.07.34-.733-.286-.79-1.378-.027-1.693.387-.16.744-.085 1.07.226.02.019.042.021.065.007.224-.137.437-.283.64-.439.012-.01.013-.02.003-.032-.477-.54-1.051-.755-1.723-.643-1.114.187-1.865 1.457-1.278 2.51.331.597.838.917 1.52.961ZM73.398 27.873h-.78a.039.039 0 0 1-.038-.039v-3.291a.039.039 0 0 1 .039-.04l.67-.001a.038.038 0 0 1 .03.014l1.435 1.795a.039.039 0 0 0 .062-.003.04.04 0 0 0 .007-.022l.003-1.745v-.008l.001-.002.002-.005a.038.038 0 0 1 .02-.021.04.04 0 0 1 .016-.003h.773a.038.038 0 0 1 .02.006l.004.003.002.002.002.001a.038.038 0 0 1 .011.028l.001 3.292a.039.039 0 0 1-.039.04h-.671a.038.038 0 0 1-.03-.015L73.5 26.072a.039.039 0 0 0-.069.025l.005 1.737a.039.039 0 0 1-.039.04Z"/><path fill-rule="evenodd" clip-rule="evenodd" d="m54.973 27.843.163-.395a.077.077 0 0 1 .07-.047h1.217a.076.076 0 0 1 .071.047l.162.394a.076.076 0 0 0 .07.048l.771.008a.076.076 0 0 0 .076-.07.076.076 0 0 0-.005-.036l-1.302-3.22a.077.077 0 0 0-.072-.047h-.754a.077.077 0 0 0-.07.049l-1.306 3.218a.076.076 0 0 0 .071.106l.767-.008a.077.077 0 0 0 .071-.047Zm.485-1.253c0-.006 0-.012.002-.018l.32-.852a.04.04 0 0 1 .015-.018.04.04 0 0 1 .044 0 .04.04 0 0 1 .015.018l.317.853a.04.04 0 0 1-.037.054l-.637-.002a.04.04 0 0 1-.032-.017.04.04 0 0 1-.007-.018Z"/><path d="M62.906 26.243a.196.196 0 0 0-.075.083c-.198.408-.39.794-.575 1.157a.153.153 0 0 1-.135.083l-.389-.001a.135.135 0 0 1-.121-.076l-.58-1.17c-.059-.118-.088-.111-.087.02l.005 1.443a.113.113 0 0 1-.115.113h-.622a.13.13 0 0 1-.13-.13v-3.129a.113.113 0 0 1 .113-.112h.66a.168.168 0 0 1 .15.092l.885 1.76a.047.047 0 0 0 .067.019.047.047 0 0 0 .017-.02l.903-1.785a.122.122 0 0 1 .106-.066h.705a.094.094 0 0 1 .095.094v3.165a.112.112 0 0 1-.113.113l-.64-.003c-.075 0-.112-.038-.112-.113l.008-1.526a.01.01 0 0 0-.002-.007.012.012 0 0 0-.011-.006l-.007.002ZM67.703 24.523h.664a.1.1 0 0 1 .1.1v3.172a.1.1 0 0 1-.1.1h-.664a.1.1 0 0 1-.1-.1v-3.173a.1.1 0 0 1 .1-.1Z"/></g><defs><clipPath id="a"><path fill="#fff" transform="translate(.69 .001)" d="M0 0h104.622v28H0z"/></clipPath></defs></svg>