<svg xmlns="http://www.w3.org/2000/svg" width="148" height="28" fill="none"><g clip-path="url(#a)"><path fill="#00AB55" fill-rule="evenodd" d="M2.1 4.395c-.233.182-.407.43-.502.71C1.107 6.56.82 8.173.737 9.946c-.092 2.052 1.281 3.85 2.45 5.325.33.417.76.652 1.287.706l2.202.231c.546.058.66-.138.345-.586-1.255-1.767-1.923-3.414-1.503-5.665.137-.725.505-1.27 1.104-1.632 1.62-.976 3.116-1.427 4.491-1.351a.492.492 0 0 0 .5-.28c.715-1.307 1.801-2.152 3.258-2.536.248-.065.306-.205.173-.42-.727-1.185-1.567-2.445-3.059-2.709A53.88 53.88 0 0 0 8.717.55c-.632-.074-1.262.09-1.89.496a56.352 56.352 0 0 0-4.728 3.35Zm18.533 2.578c1.447-.06 2.953.388 4.518 1.347 1.798 1.103 1.297 4.329.484 5.799-.348.632-.698 1.24-1.05 1.825-.161.273-.086.39.226.35.225-.028.456-.05.69-.072 1.244-.119 2.56-.244 3.376-1.328l.139-.183c1.032-1.362 2.17-2.864 2.036-4.641-.133-1.745-.387-3.314-.764-4.707a1.74 1.74 0 0 0-.582-.899c-1.163-.962-2.536-1.972-4.12-3.031-1.975-1.314-4.064-.83-6.213-.313-1.038.246-1.637 1.087-2.218 1.902-.118.166-.236.33-.356.49a.469.469 0 0 0-.067.435.455.455 0 0 0 .326.291c1.49.352 2.547 1.185 3.171 2.499a.391.391 0 0 0 .404.236ZM14 15.314l1.223 1.228c.15.15.226.33.226.538l-.006 1.045a.73.73 0 0 1-.382.662L12.987 20c-.23.133-.352.068-.366-.194l-.286-4.75a.527.527 0 0 1 .296-.532c.09-.05.182-.098.275-.148h.001c.882-.47 1.867-.995 2.223-1.969.76-2.094-.28-4.194-2.267-5.163-.215-.104-.251-.253-.108-.447 1.285-1.766 2.985-2.174 5.1-1.223.294.133.71.586 1.249 1.357.122.18.088.322-.102.426l-.27.142c-.724.38-1.433.751-1.83 1.532-.772 1.5-.636 2.926.409 4.276.413.533.998.757 1.598.986l.055.02a.6.6 0 0 1 .382.588l-.183 4.786c-.01.288-.136.356-.377.205l-1.793-1.114a1.501 1.501 0 0 1-.296-2.31l1.12-1.174a.243.243 0 0 0-.135-.404c-1.055-.169-2.241-.15-3.559.059-.284.043-.325.165-.124.366Zm85.648-.387-1.023 1.06c-.15.155-.293.148-.425-.021l-1.627-2.003c-.165-.205-.152-.4.038-.587.116-.113.24-.226.366-.341.339-.31.691-.63.926-.984 1.497-2.272.264-4.781-2.369-5.271-3.78-.706-5.552 3.257-3.457 6.117.169.233.131.427-.113.581-1.938 1.228-2.79 2.782-2.558 4.663.55 4.362 5.708 5.03 8.626 2.445a.329.329 0 0 1 .25-.082.34.34 0 0 1 .235.125l.657.824c.201.248.458.39.77.425.959.119 1.843.104 2.655-.043a.212.212 0 0 0 .124-.34l-2.359-2.912c-.122-.15-.122-.3 0-.447l1.174-1.39c.266-.319.242-.617-.07-.893l-1.082-.959c-.255-.222-.501-.211-.738.033Zm-5.24-3.463a1.205 1.205 0 0 1-.064-.14.497.497 0 0 0-.124-.21c-.556-.592-.522-1.2.103-1.825.305-.301.638-.336 1.001-.102.323.208.52.515.592.92a.533.533 0 0 1-.156.501l-.91.91c-.172.173-.32.155-.441-.054Zm-.333 3.818 2.407 2.875a.13.13 0 0 1 .016.144.129.129 0 0 1-.032.04l-.9.748c-.445.372-.997.58-1.535.577-.538-.003-1.018-.217-1.335-.593l-.188-.226a1.615 1.615 0 0 1-.329-.653 1.872 1.872 0 0 1-.022-.767c.046-.264.143-.524.288-.766.144-.242.332-.462.553-.647l.9-.748a.128.128 0 0 1 .177.016Zm20.165-4.614c-1.987-3.226-5.901.183-2.283 1.777 2.827 1.243 5.363 2.579 4.819 5.885-.387 2.362-1.848 3.617-4.383 3.764-2.667.154-4.462-1.007-5.384-3.484-.076-.201-.022-.357.161-.469l1.653-.98c.219-.129.381-.079.485.151.592 1.287 1.642 2.52 3.241 2.17.823-.18 1.336-.684 1.54-1.513.237-.98-.818-1.863-1.599-2.235-.214-.1-.432-.2-.652-.3-1.737-.791-3.577-1.63-4.016-3.684-1.136-5.336 6.682-7.038 8.712-2.256.043.104.014.181-.086.231l-1.96 1.013c-.104.053-.187.03-.248-.07Zm-74.162 11.14.005-4.603c0-.313.155-.45.463-.415 1.06.13 2.048.048 2.967-.242 4.163-1.303 4.297-7.41.453-9.079-1.288-.557-2.843-.525-4.35-.493a25.03 25.03 0 0 1-1.891-.008c-.226-.014-.34.094-.34.324v14.516c0 .09.045.135.135.135l2.423-.005c.09 0 .135-.043.135-.13Zm0-7.646.01-4.555a.141.141 0 0 1 .044-.101.14.14 0 0 1 .102-.04l1.13.006a2.798 2.798 0 0 1 1.853.692c.49.44.766 1.036.765 1.656v.15c0 .309-.07.614-.202.898a2.345 2.345 0 0 1-.573.76 2.669 2.669 0 0 1-.856.505c-.32.117-.662.176-1.008.175l-1.13-.006a.14.14 0 0 1-.135-.14ZM9.403 9.092c-1.012 1.223-.857 3.022.346 4.017 1.203.995 2.998.81 4.01-.413 1.013-1.224.858-3.023-.345-4.018-1.203-.995-2.998-.81-4.01.414Zm12.668 4.057a2.51 2.51 0 0 0 .902-1.695l.055-.568a2.51 2.51 0 0 0-2.258-2.738l-.514-.05a2.51 2.51 0 0 0-2.738 2.257l-.055.568a2.508 2.508 0 0 0 2.257 2.739l.515.05a2.51 2.51 0 0 0 1.836-.563Zm-1.923-3.057a.312.312 0 0 0 .178-.065l.668-.522a.312.312 0 0 1 .452.414l-.463.71a.313.313 0 0 0 .016.362l.523.667a.313.313 0 0 1-.415.453l-.71-.463a.312.312 0 0 0-.362.016l-.667.522a.313.313 0 0 1-.453-.415l.463-.71a.312.312 0 0 0-.016-.361l-.522-.668a.312.312 0 0 1 .415-.452l.71.463a.313.313 0 0 0 .183.05Zm41.704 5.077.113 3.936a.636.636 0 0 0 .42.587.649.649 0 0 0 .706-.178l.63-.705c.161-.18.343-.201.544-.065l1.464.991c.198.133.232.298.103.495-1.038 1.584-2.452 2.169-4.243 1.756-2.522-.578-2.402-3.284-2.305-5.47.022-.484.042-.943.032-1.347-.003-.233-.122-.352-.355-.355h-.846c-.18-.004-.269-.096-.269-.275v-1.955c0-.226.113-.337.34-.333l.866.01c.18 0 .27-.091.27-.274l.01-2.833a.137.137 0 0 1 .04-.091.127.127 0 0 1 .09-.038h2.283c.086 0 .129.041.129.124l.016 2.838c0 .18.09.269.27.269l2.955-.005a.135.135 0 0 1 .135.134v2.289c0 .09-.045.134-.135.134h-2.913c-.24 0-.357.12-.35.36ZM54.201 18.9c-1.201 1.287-3.161 1.028-3.834-.652-.09-.23-.01-.345.237-.345l5.66-.005c.214 0 .335-.108.36-.323.28-2.768-1.013-5.352-4.006-5.557-3.926-.27-5.547 2.778-5.083 6.262.317 2.375 2.294 3.84 4.744 3.845 1.604.003 2.988-.63 4.151-1.9.165-.184.144-.342-.065-.475l-1.48-.942c-.252-.158-.48-.127-.684.091Zm-.469-3.005-3.177-.022a.08.08 0 0 1-.08-.08v-.043c0-.17.043-.337.124-.492.08-.156.199-.297.347-.416.148-.118.323-.212.516-.275.192-.063.398-.095.606-.094h.173c.42.003.82.142 1.116.385.294.243.459.572.456.913v.043a.08.08 0 0 1-.05.075.082.082 0 0 1-.03.006Zm16.246 2.456c.7 1.577 2.757 1.906 3.904.516.165-.2.358-.231.581-.091l1.4.894c.24.154.266.335.076.544-1.551 1.73-3.472 2.286-5.762 1.669-1.192-.323-2.048-1.04-2.569-2.149-1.696-3.618.41-8.454 4.987-7.683 2.751.457 3.877 2.983 3.694 5.573-.011.186-.11.28-.297.28h-5.729c-.323 0-.418.148-.285.447Zm.188-2.547 3.096.107a.082.082 0 0 0 .078-.045.08.08 0 0 0 .008-.03v-.049c.012-.339-.14-.67-.424-.92a1.75 1.75 0 0 0-1.089-.415l-.14-.005a1.864 1.864 0 0 0-.6.075 1.62 1.62 0 0 0-.518.258 1.3 1.3 0 0 0-.354.403 1.087 1.087 0 0 0-.138.486v.048a.08.08 0 0 0 .049.08.08.08 0 0 0 .032.007Zm14.926-2.914c-1.511-1.192-2.796-1.208-3.855-.048-.287.312-.407.256-.36-.167.01-.097.008-.192-.006-.286-.018-.093-.074-.14-.167-.14l-2.262.006c-.09 0-.134.043-.134.129v9.423c0 .034.014.067.04.091.024.025.059.038.094.038l2.289.006c.04 0 .078-.017.106-.046a.159.159 0 0 0 .044-.11 78.945 78.945 0 0 1 .022-4.9c.075-1.966 1.18-2.779 3-1.713.06.036.107.022.14-.043l1.076-2.116c.025-.05.016-.091-.027-.124Zm43.346 4.2a5.11 5.11 0 1 1-10.221.001 5.11 5.11 0 0 1 10.221 0Zm-5.107 2.65a2.316 2.316 0 0 0 1.713-.766 2.771 2.771 0 0 0 .718-1.866 2.771 2.771 0 0 0-.698-1.873 2.318 2.318 0 0 0-1.706-.783 2.316 2.316 0 0 0-1.713.765 2.776 2.776 0 0 0-.718 1.866 2.771 2.771 0 0 0 .698 1.873 2.32 2.32 0 0 0 1.706.784Zm11.865-7.716c-.696 0-1.296.28-1.798.84-.223.247-.392.213-.506-.103l-.087-.242a.373.373 0 0 0-.382-.27h-2.019c-.18 0-.269.09-.269.27v9.288c0 .09.044.135.134.135l2.423-.005c.097 0 .144-.047.14-.14a84.363 84.363 0 0 1 .054-4.987c.032-.886.345-1.57.937-2.051.657-.528 1.222-.45 1.696.231.223.324.347.767.372 1.33.089 1.878.118 3.712.086 5.503 0 .072.036.108.108.108l2.38.011c.071 0 .109-.036.113-.108.111-2.689.077-4.995-.103-6.919-.176-1.928-1.269-2.892-3.279-2.892Zm9.132 7.554c.201-.169.245-.413.13-.733a.616.616 0 0 0-.28-.323c-.205-.113-.431-.227-.666-.346-1.196-.605-2.633-1.331-2.813-2.664-.538-4.033 3.985-4.48 6.063-1.803.151.2.122.367-.086.5l-1.368.873a.386.386 0 0 1-.495-.065 2.027 2.027 0 0 0-1.19-.652c-.262-.05-.429.054-.501.313l-.048.172a.234.234 0 0 0 .097.264c.424.28.877.512 1.319.739 1.5.767 2.873 1.47 2.552 3.795-.125.933-.574 1.586-1.346 1.96-2.319 1.127-4.194.581-5.627-1.637-.029-.043-.023-.08.016-.113a9.013 9.013 0 0 1 1.96-1.223c.051-.025.092-.014.124.033.366.492.788.84 1.266 1.044.326.14.624.096.893-.134ZM9.433 14.619l-.937 2.144a.393.393 0 0 0 .452.538l1.95-.484a.393.393 0 0 0 .296-.356l.102-1.4a.393.393 0 0 0-.307-.414l-1.109-.253a.393.393 0 0 0-.447.226Zm13.51 2.736-1.836-.49a.685.685 0 0 1-.495-.56l-.205-1.34c-.032-.216.057-.352.27-.41l1.092-.29c.277-.076.467.02.571.285l.942 2.434c.133.344.02.468-.339.371Zm-4.157 4.782c.255.122.257.247.005.377l-2.546 1.324a.785.785 0 0 1-.636.043c-1.253-.456-2.294-1.055-3.123-1.798-.441-.395-.61-.302-.506.28l.452 2.498c.076.419.311.793.657 1.045a18.42 18.42 0 0 0 2.59 1.562c1.084.539 2.289.348 3.439.165.239-.038.475-.076.707-.106.209-.025.306-.144.291-.356l-.323-3.909a.327.327 0 0 1 .348-.354.328.328 0 0 1 .174.063c1.89 1.368 4.604 2.413 6.15-.14.32-.524.233-.969-.259-1.335a5.526 5.526 0 0 0-1.97-.915c-.392-.097-.686.03-.884.382l-.797 1.438c-.14.25-.334.308-.581.172l-5.638-3.09a1.061 1.061 0 0 0-1.093.042l-2.052 1.346c-.254.166-.26.34-.016.523a8.235 8.235 0 0 0 2.493 1.27.789.789 0 0 0 .593-.037l1.648-.76a.414.414 0 0 1 .344.006l.533.264Z" clip-rule="evenodd"/></g><defs><clipPath id="a"><path fill="#fff" d="M.5.001h147v28H.5z"/></clipPath></defs></svg>