<svg width="54" height="32" viewBox="0 0 54 32" fill="none" xmlns="http://www.w3.org/2000/svg">
<path d="M36.0576 2.4082H34.1879C34.1354 2.4082 34.0928 2.45075 34.0928 2.50323V4.36454C34.0928 4.41701 34.1354 4.45956 34.1879 4.45956H36.0576C36.11 4.45956 36.1526 4.41701 36.1526 4.36454V2.50323C36.1526 2.45075 36.11 2.4082 36.0576 2.4082Z" fill="#00AB55"/>
<path d="M22.3732 2.40958L20.4197 2.41299C20.388 2.41304 20.3624 2.43874 20.3625 2.47038L20.3658 4.38758C20.3659 4.41922 20.3916 4.44483 20.4232 4.44477L22.3767 4.44136C22.4084 4.44131 22.434 4.41561 22.4339 4.38397L22.4306 2.46677C22.4305 2.43513 22.4048 2.40952 22.3732 2.40958Z" fill="#00AB55"/>
<path d="M1.74436 4.75034L3.62243 4.7569C3.67645 4.75709 3.72009 4.80103 3.7199 4.85505L3.71335 6.73312C3.71316 6.78714 3.66921 6.83078 3.61519 6.8306L1.73712 6.82404C1.6831 6.82385 1.63946 6.77991 1.63965 6.72588L1.6462 4.84782C1.64639 4.79379 1.69034 4.75015 1.74436 4.75034Z" fill="#00AB55"/>
<path d="M31.3653 7.10157L29.4816 7.095C29.4384 7.09485 29.4033 7.12976 29.4031 7.17298L29.3964 9.09576C29.3962 9.13898 29.4312 9.17414 29.4744 9.17429L31.358 9.18086C31.4013 9.18101 31.4364 9.1461 31.4366 9.10288L31.4433 7.1801C31.4434 7.13688 31.4085 7.10173 31.3653 7.10157Z" fill="#00AB55"/>
<path d="M50.5853 11.7833L52.4689 11.7866C52.5106 11.7867 52.5443 11.8205 52.5443 11.8622L52.541 13.7599C52.5409 13.8015 52.507 13.8353 52.4654 13.8352L50.5817 13.8319C50.54 13.8318 50.5063 13.798 50.5064 13.7563L50.5097 11.8587C50.5098 11.817 50.5436 11.7833 50.5853 11.7833Z" fill="#00AB55"/>
<path d="M17.6288 18.7984L15.7871 18.8016C15.73 18.8017 15.6837 18.8481 15.6838 18.9052L15.6871 20.7721C15.6872 20.8292 15.7336 20.8754 15.7907 20.8753L17.6324 20.8721C17.6895 20.872 17.7357 20.8256 17.7356 20.7685L17.7324 18.9016C17.7323 18.8445 17.6859 18.7983 17.6288 18.7984Z" fill="#00AB55"/>
<path d="M50.6188 18.8037H52.4354C52.4956 18.8037 52.5444 18.8525 52.5444 18.9127V20.7628C52.5444 20.823 52.4956 20.8718 52.4354 20.8718H50.6188C50.5586 20.8718 50.5098 20.823 50.5098 20.7628V18.9127C50.5098 18.8525 50.5586 18.8037 50.6188 18.8037Z" fill="#00AB55"/>
<path d="M33.6898 21.1493L31.7838 21.156C31.7398 21.1561 31.7043 21.1919 31.7044 21.2359L31.7111 23.1363C31.7112 23.1803 31.747 23.2159 31.791 23.2157L33.697 23.209C33.741 23.2089 33.7765 23.1731 33.7764 23.1291L33.7698 21.2287C33.7696 21.1847 33.7338 21.1492 33.6898 21.1493Z" fill="#00AB55"/>
<path d="M4.0457 23.5107H5.92098C5.97423 23.5107 6.0174 23.5539 6.0174 23.6072V25.4629C6.0174 25.5161 5.97423 25.5593 5.92098 25.5593H4.0457C3.99245 25.5593 3.94928 25.5161 3.94928 25.4629V23.6072C3.94928 23.5539 3.99245 23.5107 4.0457 23.5107Z" fill="#00AB55"/>
<path d="M6.37874 2.4116L8.32389 2.4082C8.35244 2.40815 8.37563 2.43126 8.37568 2.45982L8.37906 4.39658C8.37911 4.42514 8.356 4.44833 8.32745 4.44837L6.3823 4.45177C6.35374 4.45182 6.33055 4.42871 6.33051 4.40016L6.32712 2.46339C6.32708 2.43484 6.35018 2.41165 6.37874 2.4116Z" fill="#00AB55"/>
<path d="M4.00809 2.40825L5.95045 2.41164C5.98518 2.4117 6.01328 2.4399 6.01322 2.47463L6.00987 4.39183C6.00981 4.42656 5.98161 4.45467 5.94688 4.45461L4.00453 4.45122C3.9698 4.45116 3.9417 4.42295 3.94176 4.38822L3.9451 2.47102C3.94516 2.43629 3.97336 2.40819 4.00809 2.40825Z" fill="#00AB55"/>
<path d="M8.73539 2.40958L10.6805 2.41298C10.7045 2.41302 10.7238 2.43245 10.7238 2.45637L10.7204 4.40152C10.7203 4.42544 10.7009 4.4448 10.677 4.44476L8.73184 4.44137C8.70792 4.44133 8.68856 4.4219 8.6886 4.39797L8.692 2.45282C8.69204 2.4289 8.71147 2.40954 8.73539 2.40958Z" fill="#00AB55"/>
<path d="M11.0845 2.40963L13.0045 2.41298C13.0446 2.41305 13.0771 2.44564 13.077 2.48577L13.0737 4.37782C13.0736 4.41795 13.041 4.45043 13.0009 4.45036L11.0809 4.44701C11.0408 4.44694 11.0083 4.41435 11.0084 4.37422L11.0117 2.48217C11.0117 2.44204 11.0443 2.40956 11.0845 2.40963Z" fill="#00AB55"/>
<path d="M13.4187 2.41291L15.3219 2.40959C15.3659 2.40952 15.4016 2.44511 15.4017 2.4891L15.405 4.37277C15.4051 4.41676 15.3695 4.45248 15.3255 4.45256L13.4223 4.45588C13.3783 4.45596 13.3425 4.42036 13.3425 4.37637L13.3392 2.4927C13.3391 2.44871 13.3747 2.41299 13.4187 2.41291Z" fill="#00AB55"/>
<path d="M15.7443 2.40991H17.6727C17.7035 2.40991 17.7286 2.43494 17.7286 2.46581V4.39699C17.7286 4.42786 17.7035 4.45288 17.6727 4.45288H15.7443C15.7134 4.45288 15.6884 4.42786 15.6884 4.39699V2.46581C15.6884 2.43494 15.7134 2.40991 15.7443 2.40991Z" fill="#00AB55"/>
<path d="M18.0905 2.41128H20.0272C20.0573 2.41128 20.0817 2.43568 20.0817 2.46578V4.39137C20.0817 4.42146 20.0573 4.44586 20.0272 4.44586H18.0905C18.0604 4.44586 18.036 4.42146 18.036 4.39137V2.46578C18.036 2.43568 18.0604 2.41128 18.0905 2.41128Z" fill="#00AB55"/>
<path d="M36.4926 2.41128H38.421C38.4634 2.41128 38.4978 2.44569 38.4978 2.48813V4.37739C38.4978 4.41984 38.4634 4.45425 38.421 4.45425H36.4926C36.4501 4.45425 36.4157 4.41984 36.4157 4.37739V2.48813C36.4157 2.44569 36.4501 2.41128 36.4926 2.41128Z" fill="#00AB55"/>
<path d="M38.8481 2.41155L40.7318 2.40826C40.7758 2.40818 40.8115 2.44378 40.8116 2.48777L40.8149 4.37423C40.815 4.41822 40.7794 4.45395 40.7354 4.45402L38.8517 4.45731C38.8077 4.45739 38.772 4.42179 38.7719 4.3778L38.7686 2.49134C38.7686 2.44735 38.8041 2.41163 38.8481 2.41155Z" fill="#00AB55"/>
<path d="M41.1938 2.40827L43.0802 2.41156C43.1204 2.41163 43.1528 2.44422 43.1528 2.48435L43.1494 4.38478C43.1494 4.42492 43.1168 4.45739 43.0767 4.45732L41.1902 4.45403C41.1501 4.45396 41.1176 4.42137 41.1177 4.38124L41.121 2.4808C41.1211 2.44067 41.1536 2.4082 41.1938 2.40827Z" fill="#00AB55"/>
<path d="M43.5071 2.41296L45.4662 2.40954C45.4963 2.40949 45.5207 2.43384 45.5208 2.46394L45.5242 4.39512C45.5242 4.42522 45.4999 4.44966 45.4698 4.44971L43.5106 4.45313C43.4805 4.45318 43.4561 4.42883 43.456 4.39873L43.4527 2.46755C43.4526 2.43745 43.477 2.41301 43.5071 2.41296Z" fill="#00AB55"/>
<path d="M4.04643 4.75491L5.97482 4.75154C6.01263 4.75148 6.04334 4.78208 6.04341 4.8199L6.04677 6.74548C6.04683 6.7833 6.01623 6.81401 5.97842 6.81407L4.05003 6.81744C4.01222 6.8175 3.98151 6.7869 3.98144 6.74909L3.97808 4.8235C3.97802 4.78568 4.00862 4.75498 4.04643 4.75491Z" fill="#00AB55"/>
<path d="M6.39868 4.75749H8.3075C8.34609 4.75749 8.37737 4.78877 8.37737 4.82735V6.75015C8.37737 6.78874 8.34609 6.82002 8.3075 6.82002H6.39868C6.36009 6.82002 6.32881 6.78874 6.32881 6.75015V4.82735C6.32881 4.78877 6.36009 4.75749 6.39868 4.75749Z" fill="#00AB55"/>
<path d="M8.73501 4.76731H10.6774C10.7021 4.76731 10.7221 4.78733 10.7221 4.81203V6.77115C10.7221 6.79585 10.7021 6.81587 10.6774 6.81587H8.73501C8.71032 6.81587 8.6903 6.79585 8.6903 6.77115V4.81203C8.6903 4.78733 8.71032 4.76731 8.73501 4.76731Z" fill="#00AB55"/>
<path d="M11.092 4.76048L12.9925 4.75717C13.0372 4.75709 13.0736 4.79331 13.0737 4.83807L13.077 6.73292C13.077 6.77768 13.0408 6.81403 12.9961 6.81411L11.0956 6.81742C11.0509 6.8175 11.0145 6.78128 11.0144 6.73652L11.0111 4.84167C11.011 4.79691 11.0473 4.76056 11.092 4.76048Z" fill="#00AB55"/>
<path d="M13.4041 4.75158L15.3465 4.75497C15.3789 4.75503 15.4051 4.78135 15.4051 4.81377L15.4017 6.76171C15.4016 6.79412 15.3753 6.82035 15.3429 6.8203L13.4005 6.81691C13.3681 6.81685 13.3419 6.79053 13.342 6.75812L13.3454 4.81017C13.3454 4.77776 13.3717 4.75153 13.4041 4.75158Z" fill="#00AB55"/>
<path d="M15.7583 4.75325H17.6559C17.6953 4.75325 17.7272 4.78516 17.7272 4.82452V6.75011C17.7272 6.78947 17.6953 6.82138 17.6559 6.82138H15.7583C15.7189 6.82138 15.687 6.78947 15.687 6.75011V4.82452C15.687 4.78516 15.7189 4.75325 15.7583 4.75325Z" fill="#00AB55"/>
<path d="M18.0924 4.76563L20.0291 4.76901C20.0592 4.76906 20.0836 4.79351 20.0835 4.8236L20.0801 6.76316C20.0801 6.79326 20.0557 6.81762 20.0256 6.81757L18.0888 6.81419C18.0587 6.81414 18.0343 6.78969 18.0344 6.75959L18.0378 4.82003C18.0378 4.78994 18.0623 4.76558 18.0924 4.76563Z" fill="#00AB55"/>
<path d="M20.4325 4.76731H22.3609C22.3995 4.76731 22.4308 4.79859 22.4308 4.83718V6.746C22.4308 6.78459 22.3995 6.81587 22.3609 6.81587H20.4325C20.3939 6.81587 20.3626 6.78459 20.3626 6.746V4.83718C20.3626 4.79859 20.3939 4.76731 20.4325 4.76731Z" fill="#00AB55"/>
<path d="M31.7876 4.75462H33.6853C33.7277 4.75462 33.7621 4.78903 33.7621 4.83148V6.7403C33.7621 6.78274 33.7277 6.81715 33.6853 6.81715H31.7876C31.7452 6.81715 31.7108 6.78274 31.7108 6.7403V4.83148C31.7108 4.78903 31.7452 4.75462 31.7876 4.75462Z" fill="#00AB55"/>
<path d="M34.167 4.75353L36.0758 4.7502C36.1183 4.75012 36.1527 4.78447 36.1528 4.82692L36.1561 6.73574C36.1562 6.77818 36.1219 6.81265 36.0794 6.81273L34.1706 6.81606C34.1281 6.81613 34.0937 6.78178 34.0936 6.73934L34.0903 4.83052C34.0902 4.78807 34.1245 4.7536 34.167 4.75353Z" fill="#00AB55"/>
<path d="M36.4888 4.75296L38.434 4.75635C38.4687 4.75641 38.4968 4.78461 38.4968 4.81934L38.4934 6.7589C38.4933 6.79363 38.4651 6.82174 38.4304 6.82167L36.4852 6.81828C36.4505 6.81822 36.4224 6.79002 36.4225 6.75529L36.4259 4.81573C36.4259 4.781 36.4541 4.75289 36.4888 4.75296Z" fill="#00AB55"/>
<path d="M38.8322 4.75158L40.7578 4.75494C40.7902 4.755 40.8165 4.78132 40.8164 4.81374L40.813 6.76168C40.8129 6.79409 40.7866 6.82032 40.7542 6.82027L38.8286 6.81691C38.7962 6.81685 38.77 6.79053 38.77 6.75812L38.7734 4.81017C38.7735 4.77776 38.7998 4.75153 38.8322 4.75158Z" fill="#00AB55"/>
<path d="M41.1822 4.75325H43.0855C43.121 4.75325 43.1498 4.78203 43.1498 4.81753V6.7571C43.1498 6.7926 43.121 6.82138 43.0855 6.82138H41.1822C41.1467 6.82138 41.118 6.7926 41.118 6.7571V4.81753C41.118 4.78203 41.1467 4.75325 41.1822 4.75325Z" fill="#00AB55"/>
<path d="M43.5284 4.75612H45.4429C45.4845 4.75612 45.5183 4.7899 45.5183 4.83158V6.7432C45.5183 6.78487 45.4845 6.81865 45.4429 6.81865H43.5284C43.4868 6.81865 43.453 6.78487 43.453 6.7432V4.83158C43.453 4.7899 43.4868 4.75612 43.5284 4.75612Z" fill="#00AB55"/>
<path d="M45.8662 4.75325H47.775C47.8198 4.75325 47.8561 4.78954 47.8561 4.8343V6.73474C47.8561 6.7795 47.8198 6.81579 47.775 6.81579H45.8662C45.8214 6.81579 45.7851 6.7795 45.7851 6.73474V4.8343C45.7851 4.78954 45.8214 4.75325 45.8662 4.75325Z" fill="#00AB55"/>
<path d="M48.2093 4.75353L50.0985 4.75023C50.141 4.75016 50.1755 4.78451 50.1755 4.82695L50.1789 6.73577C50.1789 6.77822 50.1446 6.81269 50.1021 6.81276L48.2129 6.81606C48.1704 6.81613 48.136 6.78178 48.1359 6.73934L48.1326 4.83052C48.1325 4.78807 48.1668 4.7536 48.2093 4.75353Z" fill="#00AB55"/>
<path d="M1.75788 7.10506H3.60521C3.66695 7.10506 3.717 7.15511 3.717 7.21685V9.06139C3.717 9.12313 3.66695 9.17318 3.60521 9.17318H1.75788C1.69614 9.17318 1.64609 9.12313 1.64609 9.06139V7.21685C1.64609 7.15511 1.69614 7.10506 1.75788 7.10506Z" fill="#00AB55"/>
<path d="M4.03839 7.10233H5.92206C5.973 7.10233 6.01429 7.14362 6.01429 7.19455V9.08102C6.01429 9.13195 5.973 9.17324 5.92206 9.17324H4.03839C3.98746 9.17324 3.94617 9.13195 3.94617 9.08102V7.19455C3.94617 7.14362 3.98746 7.10233 4.03839 7.10233Z" fill="#00AB55"/>
<path d="M18.103 7.11065H20.0091C20.0492 7.11065 20.0817 7.14318 20.0817 7.18331V9.09493C20.0817 9.13506 20.0492 9.16759 20.0091 9.16759H18.103C18.0629 9.16759 18.0304 9.13506 18.0304 9.09493V7.18331C18.0304 7.14318 18.0629 7.11065 18.103 7.11065Z" fill="#00AB55"/>
<path d="M20.4538 7.10616L22.3459 7.10947C22.3945 7.10955 22.4338 7.14904 22.4338 7.19766L22.4305 9.08691C22.4304 9.13553 22.3909 9.17488 22.3423 9.17479L20.4502 9.17149C20.4016 9.1714 20.3623 9.13192 20.3623 9.0833L20.3656 7.19405C20.3657 7.14543 20.4052 7.10608 20.4538 7.10616Z" fill="#00AB55"/>
<path d="M22.8476 7.10209L24.734 7.10538C24.7873 7.10547 24.8304 7.14871 24.8303 7.20197L24.827 9.07445C24.8269 9.1277 24.7837 9.1708 24.7304 9.1707L22.844 9.16741C22.7907 9.16732 22.7476 9.12407 22.7477 9.07082L22.751 7.19834C22.7511 7.14509 22.7943 7.10199 22.8476 7.10209Z" fill="#00AB55"/>
<path d="M33.6895 7.09946L31.7737 7.11483C31.7537 7.11483 31.7345 7.12278 31.7203 7.13693C31.7062 7.15108 31.6982 7.17028 31.6982 7.19029V9.09073C31.6982 9.10064 31.7002 9.11045 31.704 9.1196C31.7077 9.12876 31.7133 9.13708 31.7203 9.14408C31.7273 9.15109 31.7356 9.15665 31.7448 9.16044C31.754 9.16423 31.7638 9.16619 31.7737 9.16619L33.6909 9.17876C33.7109 9.17876 33.7301 9.17081 33.7442 9.15666C33.7584 9.14251 33.7663 9.12332 33.7663 9.1033L33.7649 7.17492C33.7649 7.15491 33.757 7.13571 33.7428 7.12156C33.7287 7.10741 33.7095 7.09946 33.6895 7.09946Z" fill="#00AB55"/>
<path d="M34.1747 7.10206L36.0779 7.10538C36.1219 7.10545 36.1575 7.14118 36.1574 7.18517L36.1541 9.09119C36.154 9.13518 36.1183 9.17078 36.0743 9.1707L34.1711 9.16738C34.1271 9.1673 34.0915 9.13158 34.0916 9.08759L34.0949 7.18157C34.095 7.13758 34.1307 7.10198 34.1747 7.10206Z" fill="#00AB55"/>
<path d="M45.8676 7.10506H47.7736C47.8191 7.10506 47.8561 7.14197 47.8561 7.1875V9.08514C47.8561 9.13068 47.8191 9.16759 47.7736 9.16759H45.8676C45.822 9.16759 45.7851 9.13068 45.7851 9.08514V7.1875C45.7851 7.14197 45.822 7.10506 45.8676 7.10506Z" fill="#00AB55"/>
<path d="M48.2079 7.10533L50.0971 7.10204C50.1388 7.10196 50.1727 7.13569 50.1727 7.17736L50.1761 9.08898C50.1761 9.13065 50.1424 9.16449 50.1007 9.16457L48.2115 9.16786C48.1698 9.16794 48.136 9.13421 48.1359 9.09254L48.1326 7.18092C48.1325 7.13925 48.1662 7.10541 48.2079 7.10533Z" fill="#00AB55"/>
<path d="M1.7482 9.43311H3.6151C3.67066 9.43311 3.71571 9.47816 3.71571 9.53372V11.3922C3.71571 11.4478 3.67066 11.4929 3.6151 11.4929H1.7482C1.69263 11.4929 1.64759 11.4478 1.64759 11.3922V9.53372C1.64759 9.47816 1.69263 9.43311 1.7482 9.43311Z" fill="#00AB55"/>
<path d="M4.03526 9.43336L5.91892 9.43007C5.96986 9.42999 6.01122 9.4712 6.01131 9.52214L6.01459 11.4002C6.01467 11.4512 5.97346 11.4925 5.92252 11.4926L4.03886 11.4959C3.98792 11.496 3.94656 11.4548 3.94647 11.4038L3.94319 9.52575C3.9431 9.47481 3.98432 9.43345 4.03526 9.43336Z" fill="#00AB55"/>
<path d="M20.4494 9.43175H22.3414C22.3908 9.43175 22.4308 9.47179 22.4308 9.52118V11.4048C22.4308 11.4542 22.3908 11.4943 22.3414 11.4943H20.4494C20.4 11.4943 20.3599 11.4542 20.3599 11.4048V9.52118C20.3599 9.47179 20.4 9.43175 20.4494 9.43175Z" fill="#00AB55"/>
<path d="M22.8315 9.43474L24.7431 9.4314C24.7894 9.43132 24.827 9.4688 24.8271 9.5151L24.8304 11.4072C24.8304 11.4535 24.793 11.4911 24.7467 11.4911L22.8351 11.4945C22.7887 11.4946 22.7511 11.4571 22.7511 11.4108L22.7478 9.51873C22.7477 9.47243 22.7851 9.43482 22.8315 9.43474Z" fill="#00AB55"/>
<path d="M29.4522 9.43342L31.3806 9.43006C31.4115 9.43001 31.4366 9.45499 31.4366 9.48586L31.44 11.4394C31.4401 11.4703 31.4151 11.4953 31.3842 11.4954L29.4559 11.4987C29.425 11.4988 29.3999 11.4738 29.3999 11.443L29.3965 9.48942C29.3964 9.45855 29.4214 9.43348 29.4522 9.43342Z" fill="#00AB55"/>
<path d="M31.7816 9.43611L33.6821 9.43279C33.7284 9.43271 33.766 9.47018 33.7661 9.51648L33.7694 11.4113C33.7695 11.4576 33.732 11.4952 33.6857 11.4953L31.7852 11.4986C31.7389 11.4987 31.7013 11.4612 31.7013 11.4149L31.6979 9.52009C31.6979 9.47379 31.7353 9.43619 31.7816 9.43611Z" fill="#00AB55"/>
<path d="M1.73801 11.7767L3.62447 11.7734C3.67463 11.7733 3.71537 11.8139 3.71545 11.8641L3.71873 13.7422C3.71882 13.7923 3.67822 13.8331 3.62806 13.8331L1.7416 13.8364C1.69144 13.8365 1.6507 13.7959 1.65061 13.7458L1.64734 11.8677C1.64725 11.8175 1.68784 11.7768 1.73801 11.7767Z" fill="#00AB55"/>
<path d="M4.04878 11.7784L5.9017 11.7719C5.96266 11.7717 6.01226 11.821 6.01247 11.8819L6.01889 13.7209C6.0191 13.7818 5.96985 13.8314 5.90889 13.8316L4.05597 13.8381C3.995 13.8383 3.94541 13.7891 3.94519 13.7281L3.93877 11.8892C3.93856 11.8282 3.98781 11.7786 4.04878 11.7784Z" fill="#00AB55"/>
<path d="M20.4372 11.7734L22.3627 11.7768C22.4044 11.7769 22.4381 11.8107 22.4381 11.8524L22.4347 13.7612C22.4347 13.8029 22.4008 13.8366 22.3591 13.8365L20.4336 13.8332C20.3919 13.8331 20.3582 13.7993 20.3582 13.7576L20.3616 11.8488C20.3616 11.8071 20.3955 11.7734 20.4372 11.7734Z" fill="#00AB55"/>
<path d="M22.8622 11.7768L24.7123 11.7736C24.7779 11.7734 24.8312 11.8265 24.8313 11.8921L24.8344 13.7143C24.8346 13.7799 24.7815 13.8332 24.7159 13.8333L22.8658 13.8365C22.8002 13.8366 22.7469 13.7836 22.7468 13.718L22.7436 11.8958C22.7435 11.8302 22.7966 11.7769 22.8622 11.7768Z" fill="#00AB55"/>
<path d="M29.4508 11.7796L31.3792 11.7763C31.4108 11.7762 31.4365 11.8018 31.4366 11.8335L31.4399 13.7646C31.44 13.7963 31.4144 13.822 31.3827 13.822L29.4544 13.8254C29.4227 13.8254 29.397 13.7998 29.397 13.7682L29.3936 11.837C29.3935 11.8054 29.4191 11.7797 29.4508 11.7796Z" fill="#00AB55"/>
<path d="M31.7876 11.7765H33.6825C33.7311 11.7765 33.7705 11.8159 33.7705 11.8645V13.7398C33.7705 13.7884 33.7311 13.8278 33.6825 13.8278H31.7876C31.739 13.8278 31.6996 13.7884 31.6996 13.7398V11.8645C31.6996 11.8159 31.739 11.7765 31.7876 11.7765Z" fill="#00AB55"/>
<path d="M41.1404 11.7807H43.0743C43.1098 11.7807 43.1386 11.8095 43.1386 11.845V13.7594C43.1386 13.7949 43.1098 13.8237 43.0743 13.8237H41.1404C41.1049 13.8237 41.0761 13.7949 41.0761 13.7594V11.845C41.0761 11.8095 41.1049 11.7807 41.1404 11.7807Z" fill="#00AB55"/>
<path d="M43.5261 11.7777L45.393 11.781C45.4431 11.781 45.4837 11.8218 45.4836 11.872L45.4804 13.7444C45.4803 13.7946 45.4395 13.8352 45.3894 13.8351L43.5225 13.8318C43.4723 13.8318 43.4317 13.791 43.4318 13.7409L43.4351 11.8684C43.4352 11.8182 43.4759 11.7776 43.5261 11.7777Z" fill="#00AB55"/>
<path d="M45.8677 11.7807H47.7821C47.823 11.7807 47.8561 11.8138 47.8561 11.8547V13.7608C47.8561 13.8017 47.823 13.8348 47.7821 13.8348H45.8677C45.8268 13.8348 45.7936 13.8017 45.7936 13.7608V11.8547C45.7936 11.8138 45.8268 11.7807 45.8677 11.7807Z" fill="#00AB55"/>
<path d="M48.2152 11.7807H50.0849C50.1289 11.7807 50.1646 11.8163 50.1646 11.8603V13.7552C50.1646 13.7992 50.1289 13.8348 50.0849 13.8348H48.2152C48.1712 13.8348 48.1356 13.7992 48.1356 13.7552V11.8603C48.1356 11.8163 48.1712 11.7807 48.2152 11.7807Z" fill="#00AB55"/>
<path d="M1.74721 14.1336L3.6197 14.1369C3.67449 14.137 3.71883 14.1815 3.71874 14.2363L3.71551 16.0864C3.71541 16.1412 3.67091 16.1855 3.61612 16.1854L1.74363 16.1822C1.68884 16.1821 1.6445 16.1376 1.64459 16.0828L1.64782 14.2327C1.64792 14.1779 1.69242 14.1335 1.74721 14.1336Z" fill="#00AB55"/>
<path d="M4.04081 14.1341L5.91609 14.1308C5.96934 14.1307 6.01259 14.1738 6.01268 14.2271L6.01592 16.0856C6.01602 16.1388 5.97292 16.1821 5.91967 16.1822L4.04439 16.1854C3.99114 16.1855 3.9479 16.1424 3.9478 16.0892L3.94456 14.2307C3.94447 14.1774 3.98756 14.1342 4.04081 14.1341Z" fill="#00AB55"/>
<path d="M18.1035 14.1364L20.0124 14.1398C20.0517 14.1398 20.0836 14.1718 20.0835 14.2112L20.0802 16.1116C20.0801 16.1509 20.0482 16.1828 20.0088 16.1827L18.1 16.1794C18.0606 16.1793 18.0288 16.1474 18.0288 16.108L18.0321 14.2076C18.0322 14.1682 18.0642 14.1364 18.1035 14.1364Z" fill="#00AB55"/>
<path d="M20.4325 14.1394H22.3637C22.4023 14.1394 22.4336 14.1707 22.4336 14.2093V16.1098C22.4336 16.1483 22.4023 16.1796 22.3637 16.1796H20.4325C20.3939 16.1796 20.3626 16.1483 20.3626 16.1098V14.2093C20.3626 14.1707 20.3939 14.1394 20.4325 14.1394Z" fill="#00AB55"/>
<path d="M22.8273 14.137L24.7473 14.1336C24.7913 14.1336 24.827 14.1692 24.827 14.2131L24.8303 16.0968C24.8304 16.1408 24.7948 16.1765 24.7508 16.1766L22.8308 16.18C22.7868 16.18 22.7511 16.1444 22.751 16.1004L22.7477 14.2168C22.7477 14.1728 22.7833 14.1371 22.8273 14.137Z" fill="#00AB55"/>
<path d="M29.44 14.1465H31.3963C31.421 14.1465 31.441 14.1666 31.441 14.1913V16.1336C31.441 16.1583 31.421 16.1783 31.3963 16.1783H29.44C29.4153 16.1783 29.3953 16.1583 29.3953 16.1336V14.1913C29.3953 14.1666 29.4153 14.1465 29.44 14.1465Z" fill="#00AB55"/>
<path d="M43.5001 14.1426L45.4145 14.1393C45.45 14.1392 45.4788 14.1679 45.4789 14.2034L45.4822 16.115C45.4823 16.1505 45.4535 16.1794 45.418 16.1794L43.5036 16.1828C43.4681 16.1828 43.4393 16.1541 43.4392 16.1186L43.4359 14.207C43.4358 14.1715 43.4646 14.1427 43.5001 14.1426Z" fill="#00AB55"/>
<path d="M45.8792 14.1336L47.7741 14.1369C47.8212 14.137 47.8593 14.1752 47.8592 14.2223L47.8559 16.0948C47.8558 16.1418 47.8176 16.1799 47.7705 16.1799L45.8757 16.1766C45.8286 16.1765 45.7905 16.1382 45.7906 16.0912L45.7939 14.2187C45.7939 14.1716 45.8322 14.1335 45.8792 14.1336Z" fill="#00AB55"/>
<path d="M48.2142 14.1322L50.0895 14.1355C50.1319 14.1356 50.1663 14.17 50.1662 14.2125L50.1629 16.1101C50.1628 16.1526 50.1283 16.1869 50.0859 16.1868L48.2106 16.1836C48.1682 16.1835 48.1338 16.149 48.1339 16.1066L48.1372 14.2089C48.1373 14.1665 48.1718 14.1321 48.2142 14.1322Z" fill="#00AB55"/>
<path d="M50.5814 14.1308L52.4707 14.1341C52.51 14.1342 52.5419 14.1662 52.5418 14.2055L52.5385 16.1115C52.5384 16.1509 52.5065 16.1828 52.4671 16.1827L50.5779 16.1794C50.5385 16.1793 50.5066 16.1474 50.5067 16.108L50.51 14.202C50.5101 14.1626 50.5421 14.1308 50.5814 14.1308Z" fill="#00AB55"/>
<path d="M31.7736 14.145H33.6964C33.7365 14.145 33.7691 14.1776 33.7691 14.2177V16.107C33.7691 16.1471 33.7365 16.1796 33.6964 16.1796H31.7736C31.7335 16.1796 31.7009 16.1471 31.7009 16.107V14.2177C31.7009 14.1776 31.7335 14.145 31.7736 14.145Z" fill="#00AB55"/>
<path d="M41.1301 14.1482L43.078 14.1448C43.1097 14.1448 43.1354 14.1704 43.1354 14.202L43.1388 16.1192C43.1388 16.1509 43.1132 16.1765 43.0816 16.1766L41.1336 16.18C41.102 16.1801 41.0763 16.1545 41.0762 16.1228L41.0729 14.2056C41.0728 14.174 41.0984 14.1483 41.1301 14.1482Z" fill="#00AB55"/>
<path d="M1.73003 16.4829H3.63326C3.6788 16.4829 3.71571 16.5198 3.71571 16.5654V18.4462C3.71571 18.4918 3.6788 18.5287 3.63326 18.5287H1.73003C1.6845 18.5287 1.64759 18.4918 1.64759 18.4462V16.5654C1.64759 16.5198 1.6845 16.4829 1.73003 16.4829Z" fill="#00AB55"/>
<path d="M3.98581 16.4812L5.97288 16.4847C5.99371 16.4847 6.01058 16.5016 6.01054 16.5225L6.0071 18.4928C6.00707 18.5136 5.99014 18.5305 5.96931 18.5304L3.98224 18.527C3.9614 18.5269 3.94454 18.51 3.94457 18.4892L3.94801 16.5189C3.94805 16.498 3.96497 16.4812 3.98581 16.4812Z" fill="#00AB55"/>
<path d="M6.42833 16.4729L8.28126 16.4761C8.33374 16.4762 8.3762 16.5188 8.37611 16.5713L8.37285 18.4382C8.37276 18.4907 8.33015 18.5331 8.27767 18.533L6.42474 18.5298C6.37226 18.5297 6.3298 18.4871 6.32989 18.4346L6.33315 16.5677C6.33324 16.5152 6.37585 16.4728 6.42833 16.4729Z" fill="#00AB55"/>
<path d="M8.77871 16.4701L10.6372 16.4734C10.6851 16.4734 10.7238 16.5123 10.7237 16.5601L10.7204 18.4466C10.7203 18.4945 10.6815 18.5332 10.6336 18.5331L8.77512 18.5298C8.72727 18.5298 8.68855 18.4909 8.68863 18.4431L8.69192 16.5566C8.69201 16.5087 8.73086 16.47 8.77871 16.4701Z" fill="#00AB55"/>
<path d="M11.0858 16.4728L12.9974 16.4762C13.0429 16.4762 13.0798 16.5132 13.0797 16.5588L13.0764 18.4508C13.0763 18.4963 13.0393 18.5332 12.9938 18.5331L11.0822 18.5298C11.0367 18.5297 10.9998 18.4927 10.9999 18.4472L11.0032 16.5551C11.0033 16.5096 11.0403 16.4728 11.0858 16.4728Z" fill="#00AB55"/>
<path d="M13.44 16.4731H15.3097C15.3614 16.4731 15.4034 16.515 15.4034 16.5667V18.4364C15.4034 18.4881 15.3614 18.53 15.3097 18.53H13.44C13.3883 18.53 13.3464 18.4881 13.3464 18.4364V16.5667C13.3464 16.515 13.3883 16.4731 13.44 16.4731Z" fill="#00AB55"/>
<path d="M15.7787 16.4699L17.6428 16.4764C17.6906 16.4765 17.7293 16.5154 17.7291 16.5633L17.7225 18.4609C17.7223 18.5088 17.6834 18.5474 17.6356 18.5473L15.7715 18.5408C15.7236 18.5406 15.685 18.5017 15.6851 18.4538L15.6918 16.5562C15.6919 16.5083 15.7309 16.4697 15.7787 16.4699Z" fill="#00AB55"/>
<path d="M18.1101 16.4816H20.0049C20.0474 16.4816 20.0818 16.516 20.0818 16.5584V18.4616C20.0818 18.5041 20.0474 18.5385 20.0049 18.5385H18.1101C18.0676 18.5385 18.0332 18.5041 18.0332 18.4616V16.5584C18.0332 16.516 18.0676 16.4816 18.1101 16.4816Z" fill="#00AB55"/>
<path d="M20.4497 16.484L22.3445 16.4873C22.3916 16.4874 22.4297 16.5256 22.4296 16.5727L22.4263 18.4508C22.4262 18.4979 22.388 18.536 22.3409 18.5359L20.4461 18.5326C20.399 18.5325 20.3609 18.4943 20.361 18.4472L20.3643 16.5691C20.3644 16.522 20.4026 16.4839 20.4497 16.484Z" fill="#00AB55"/>
<path d="M29.4557 16.4784L31.3813 16.4817C31.4137 16.4818 31.44 16.5081 31.4399 16.5405L31.4365 18.4745C31.4365 18.5069 31.4101 18.5332 31.3777 18.5331L29.4521 18.5297C29.4197 18.5297 29.3935 18.5034 29.3936 18.4709L29.3969 16.537C29.397 16.5046 29.4233 16.4783 29.4557 16.4784Z" fill="#00AB55"/>
<path d="M31.7717 16.4795L33.7029 16.4862C33.7399 16.4863 33.7698 16.5165 33.7697 16.5535L33.763 18.4679C33.7629 18.505 33.7328 18.5349 33.6957 18.5348L31.7645 18.528C31.7275 18.5279 31.6976 18.4978 31.6977 18.4607L31.7044 16.5463C31.7045 16.5093 31.7347 16.4793 31.7717 16.4795Z" fill="#00AB55"/>
<path d="M48.1975 16.4813L50.1035 16.4846C50.1374 16.4846 50.1649 16.5122 50.1649 16.5462L50.1615 18.469C50.1615 18.5029 50.1339 18.5304 50.0999 18.5303L48.1939 18.527C48.1599 18.527 48.1325 18.4994 48.1325 18.4654L48.1359 16.5426C48.1359 16.5087 48.1635 16.4812 48.1975 16.4813Z" fill="#00AB55"/>
<path d="M50.581 16.4816H52.4675C52.5068 16.4816 52.5388 16.5135 52.5388 16.5528V18.47C52.5388 18.5094 52.5068 18.5413 52.4675 18.5413H50.581C50.5417 18.5413 50.5098 18.5094 50.5098 18.47V16.5528C50.5098 16.5135 50.5417 16.4816 50.581 16.4816Z" fill="#00AB55"/>
<path d="M1.7454 18.7998H3.62069C3.67471 18.7998 3.7185 18.8436 3.7185 18.8976V20.7757C3.7185 20.8297 3.67471 20.8735 3.62069 20.8735H1.7454C1.69138 20.8735 1.64759 20.8297 1.64759 20.7757V18.8976C1.64759 18.8436 1.69138 18.7998 1.7454 18.7998Z" fill="#00AB55"/>
<path d="M4.0269 18.8L5.92175 18.7967C5.96882 18.7967 6.00705 18.8348 6.00714 18.8818L6.01046 20.7879C6.01055 20.8349 5.97245 20.8732 5.92537 20.8732L4.03053 20.8766C3.98345 20.8766 3.94522 20.8385 3.94514 20.7915L3.94181 18.8854C3.94173 18.8384 3.97983 18.8001 4.0269 18.8Z" fill="#00AB55"/>
<path d="M6.41923 18.8014L8.28333 18.7982C8.33349 18.7981 8.37423 18.8387 8.37432 18.8888L8.37762 20.7809C8.37771 20.831 8.33711 20.8718 8.28695 20.8719L6.42285 20.8751C6.37268 20.8752 6.33195 20.8346 6.33186 20.7844L6.32856 18.8924C6.32847 18.8422 6.36907 18.8015 6.41923 18.8014Z" fill="#00AB55"/>
<path d="M8.7738 18.7999L10.6323 18.7967C10.6802 18.7966 10.719 18.8353 10.7191 18.8832L10.7224 20.7864C10.7225 20.8342 10.6838 20.8731 10.6359 20.8732L8.77742 20.8764C8.72957 20.8765 8.69072 20.8378 8.69063 20.7899L8.68731 18.8867C8.68723 18.8389 8.72595 18.8 8.7738 18.7999Z" fill="#00AB55"/>
<path d="M11.0809 18.8028L12.9953 18.7994C13.0416 18.7994 13.0792 18.8368 13.0793 18.8831L13.0826 20.7864C13.0827 20.8327 13.0452 20.8703 12.9989 20.8704L11.0845 20.8737C11.0382 20.8738 11.0006 20.8363 11.0005 20.79L10.9972 18.8868C10.9971 18.8405 11.0346 18.8029 11.0809 18.8028Z" fill="#00AB55"/>
<path d="M13.447 18.7998H15.3055C15.3595 18.7998 15.4033 18.8436 15.4033 18.8976V20.7757C15.4033 20.8297 15.3595 20.8735 15.3055 20.8735H13.447C13.3929 20.8735 13.3491 20.8297 13.3491 20.7757V18.8976C13.3491 18.8436 13.3929 18.7998 13.447 18.7998Z" fill="#00AB55"/>
<path d="M29.4508 18.8028L31.3792 18.7995C31.4108 18.7994 31.4365 18.825 31.4366 18.8567L31.44 20.8158C31.44 20.8474 31.4144 20.8731 31.3828 20.8732L29.4544 20.8765C29.4228 20.8766 29.3971 20.851 29.397 20.8193L29.3936 18.8602C29.3935 18.8286 29.4191 18.8029 29.4508 18.8028Z" fill="#00AB55"/>
<path d="M31.7936 18.7967L33.6744 18.8C33.7254 18.8 33.7666 18.8414 33.7665 18.8923L33.7632 20.7844C33.7631 20.8353 33.7218 20.8766 33.6708 20.8765L31.79 20.8732C31.739 20.8731 31.6978 20.8317 31.6979 20.7808L31.7012 18.8887C31.7013 18.8378 31.7426 18.7966 31.7936 18.7967Z" fill="#00AB55"/>
<path d="M34.1846 18.7939L36.0683 18.7972C36.1177 18.7973 36.1576 18.8374 36.1576 18.8868L36.1542 20.7817C36.1542 20.8311 36.1141 20.871 36.0647 20.8709L34.181 20.8677C34.1316 20.8676 34.0916 20.8275 34.0917 20.7781L34.095 18.8832C34.0951 18.8338 34.1352 18.7939 34.1846 18.7939Z" fill="#00AB55"/>
<path d="M45.8635 18.7983H47.7807C47.8223 18.7983 47.8561 18.8321 47.8561 18.8737V20.7937C47.8561 20.8354 47.8223 20.8692 47.7807 20.8692H45.8635C45.8218 20.8692 45.788 20.8354 45.788 20.7937V18.8737C45.788 18.8321 45.8218 18.7983 45.8635 18.7983Z" fill="#00AB55"/>
<path d="M48.2194 18.7998H50.0807C50.1293 18.7998 50.1687 18.8392 50.1687 18.8878V20.7855C50.1687 20.8341 50.1293 20.8735 50.0807 20.8735H48.2194C48.1708 20.8735 48.1313 20.8341 48.1313 20.7855V18.8878C48.1313 18.8392 48.1708 18.7998 48.2194 18.7998Z" fill="#00AB55"/>
<path d="M1.74438 21.1527L3.62246 21.156C3.67494 21.1561 3.7174 21.1987 3.71731 21.2512L3.71406 23.1125C3.71397 23.165 3.67136 23.2074 3.61888 23.2073L1.7408 23.2041C1.68832 23.204 1.64585 23.1614 1.64595 23.1089L1.64919 21.2476C1.64929 21.1951 1.6919 21.1526 1.74438 21.1527Z" fill="#00AB55"/>
<path d="M4.02827 21.1519L5.92591 21.1485C5.97298 21.1485 6.01121 21.1866 6.0113 21.2336L6.0146 23.1257C6.01468 23.1728 5.97658 23.211 5.92951 23.2111L4.03187 23.2144C3.98479 23.2145 3.94656 23.1764 3.94648 23.1293L3.94318 21.2372C3.94309 21.1902 3.98119 21.1519 4.02827 21.1519Z" fill="#00AB55"/>
<path d="M34.1677 21.1484L36.0849 21.1518C36.125 21.1519 36.1575 21.1844 36.1574 21.2246L36.1541 23.1362C36.154 23.1763 36.1215 23.2088 36.0813 23.2087L34.1641 23.2054C34.124 23.2053 34.0915 23.1727 34.0916 23.1326L34.0949 21.221C34.095 21.1808 34.1276 21.1484 34.1677 21.1484Z" fill="#00AB55"/>
<path d="M36.4916 21.154L38.4311 21.1574C38.4689 21.1575 38.4995 21.1882 38.4995 21.226L38.4961 23.1376C38.4961 23.1754 38.4654 23.206 38.4276 23.206L36.488 23.2026C36.4502 23.2025 36.4196 23.1718 36.4196 23.134L36.423 21.2224C36.423 21.1846 36.4538 21.154 36.4916 21.154Z" fill="#00AB55"/>
<path d="M38.849 21.1527L40.7383 21.156C40.7799 21.156 40.8136 21.1899 40.8136 21.2316L40.8103 23.132C40.8102 23.1737 40.7763 23.2074 40.7347 23.2073L38.8454 23.204C38.8037 23.204 38.77 23.1701 38.7701 23.1284L38.7734 21.228C38.7735 21.1863 38.8073 21.1526 38.849 21.1527Z" fill="#00AB55"/>
<path d="M41.1948 21.153H43.0757C43.1173 21.153 43.1511 21.1867 43.1511 21.2284V23.1316C43.1511 23.1733 43.1173 23.2071 43.0757 23.2071H41.1948C41.1531 23.2071 41.1193 23.1733 41.1193 23.1316V21.2284C41.1193 21.1867 41.1531 21.153 41.1948 21.153Z" fill="#00AB55"/>
<path d="M43.5162 21.1527L45.4614 21.156C45.4945 21.1561 45.5214 21.1831 45.5213 21.2162L45.518 23.153C45.5179 23.1862 45.491 23.213 45.4578 23.213L43.5126 23.2096C43.4794 23.2095 43.4526 23.1826 43.4526 23.1494L43.456 21.2126C43.4561 21.1794 43.483 21.1526 43.5162 21.1527Z" fill="#00AB55"/>
<path d="M45.8673 21.1546L47.7677 21.1513C47.8156 21.1512 47.8544 21.1899 47.8545 21.2377L47.8578 23.1242C47.8579 23.1721 47.8191 23.2109 47.7713 23.211L45.8709 23.2143C45.823 23.2144 45.7842 23.1757 45.7841 23.1278L45.7808 21.2414C45.7807 21.1935 45.8194 21.1547 45.8673 21.1546Z" fill="#00AB55"/>
<path d="M48.2107 21.1546L50.0943 21.1513C50.1368 21.1512 50.1712 21.1856 50.1713 21.228L50.1746 23.1313C50.1747 23.1737 50.1404 23.2082 50.0979 23.2082L48.2142 23.2115C48.1718 23.2116 48.1373 23.1773 48.1373 23.1348L48.1339 21.2316C48.1339 21.1891 48.1682 21.1547 48.2107 21.1546Z" fill="#00AB55"/>
<path d="M1.73272 23.5104H3.63316C3.68101 23.5104 3.7198 23.5491 3.7198 23.597V25.4723C3.7198 25.5201 3.68101 25.5589 3.63316 25.5589H1.73272C1.68487 25.5589 1.64609 25.5201 1.64609 25.4723V23.597C1.64609 23.5491 1.68487 23.5104 1.73272 23.5104Z" fill="#00AB55"/>
<path d="M34.166 23.5104H36.0804C36.1213 23.5104 36.1544 23.5435 36.1544 23.5844V25.4821C36.1544 25.523 36.1213 25.5561 36.0804 25.5561H34.166C34.1251 25.5561 34.0919 25.523 34.0919 25.4821V23.5844C34.0919 23.5435 34.1251 23.5104 34.166 23.5104Z" fill="#00AB55"/>
<path d="M36.5055 23.5072L38.4172 23.5106C38.4627 23.5106 38.4995 23.5476 38.4995 23.5931L38.4962 25.474C38.4961 25.5196 38.4591 25.5564 38.4136 25.5563L36.502 25.553C36.4564 25.5529 36.4196 25.5159 36.4197 25.4704L36.423 23.5895C36.423 23.544 36.46 23.5071 36.5055 23.5072Z" fill="#00AB55"/>
<path d="M38.836 23.5104H40.7476C40.7846 23.5104 40.8147 23.5404 40.8147 23.5774V25.489C40.8147 25.5261 40.7846 25.5561 40.7476 25.5561H38.836C38.7989 25.5561 38.7689 25.5261 38.7689 25.489V23.5774C38.7689 23.5404 38.7989 23.5104 38.836 23.5104Z" fill="#00AB55"/>
<path d="M41.1762 23.512L43.0851 23.5087C43.1206 23.5086 43.1494 23.5373 43.1495 23.5728L43.1528 25.4901C43.1529 25.5256 43.1241 25.5544 43.0886 25.5544L41.1798 25.5578C41.1443 25.5578 41.1155 25.5291 41.1154 25.4936L41.1121 23.5764C41.112 23.5409 41.1407 23.5121 41.1762 23.512Z" fill="#00AB55"/>
<path d="M43.5232 23.5101L45.4543 23.5134C45.4906 23.5135 45.52 23.5429 45.5199 23.5792L45.5166 25.4936C45.5165 25.5299 45.487 25.5593 45.4508 25.5592L43.5196 25.5558C43.4833 25.5558 43.454 25.5263 43.454 25.49L43.4574 23.5756C43.4574 23.5393 43.4869 23.51 43.5232 23.5101Z" fill="#00AB55"/>
<path d="M45.8816 23.5117H47.7681C47.8159 23.5117 47.8547 23.5505 47.8547 23.5984V25.4708C47.8547 25.5187 47.8159 25.5575 47.7681 25.5575H45.8816C45.8338 25.5575 45.795 25.5187 45.795 25.4708V23.5984C45.795 23.5505 45.8338 23.5117 45.8816 23.5117Z" fill="#00AB55"/>
<path d="M30.3187 30.1369C30.2181 30.2161 30.1533 30.3177 30.1244 30.4416C30.1193 30.4637 30.1086 30.4841 30.0934 30.5008C30.0783 30.5175 30.0591 30.5298 30.0378 30.5366C29.9931 30.5515 29.9479 30.5566 29.9023 30.5519C29.851 30.5473 29.8147 30.5212 29.7933 30.4737L29.6871 30.2278C29.6726 30.1961 29.6479 30.1704 29.6169 30.1546C29.5859 30.1389 29.5505 30.1341 29.5164 30.1411C29.4824 30.1481 29.4517 30.1664 29.4294 30.193C29.4071 30.2197 29.3945 30.2531 29.3936 30.2878L29.3852 31.245C29.3843 31.2823 29.3652 31.3009 29.3279 31.3009L28.7145 31.3023C28.6688 31.3023 28.646 31.28 28.646 31.2353L28.6264 28.2952C28.6264 28.2356 28.6553 28.2132 28.7131 28.2281C28.7699 28.243 28.8337 28.2835 28.9045 28.3497C29.2529 28.6767 29.5571 29.0139 29.817 29.3614C29.8315 29.3806 29.8501 29.3963 29.8716 29.4073C29.893 29.4183 29.9166 29.4243 29.9407 29.4248C29.9648 29.4254 29.9887 29.4204 30.0106 29.4104C30.0325 29.4004 30.0518 29.3855 30.0671 29.367C30.3699 28.9999 30.6722 28.6743 30.974 28.3902C31.0467 28.3203 31.0942 28.2905 31.1166 28.3008C31.1541 28.3174 31.186 28.3458 31.2086 28.3825C31.2311 28.4192 31.2433 28.4626 31.2437 28.5076L31.2731 31.2073C31.2731 31.2312 31.2637 31.2541 31.247 31.2711C31.2302 31.2881 31.2075 31.2978 31.1836 31.2981L30.6023 31.3037C30.5844 31.3037 30.5672 31.2967 30.5544 31.2842C30.5416 31.2716 30.5342 31.2546 30.5339 31.2367L30.5101 30.2278C30.5064 30.0694 30.4426 30.0391 30.3187 30.1369Z" fill="#00AB55"/>
<path fill-rule="evenodd" clip-rule="evenodd" d="M7.64188 30.5151C7.64021 30.6214 7.61763 30.7262 7.57543 30.8238C7.53324 30.9213 7.47225 31.0095 7.39594 31.0835C7.31964 31.1574 7.22952 31.2156 7.13073 31.2547C7.03194 31.2938 6.92641 31.3131 6.82017 31.3114L6.17746 31.3013C6.07123 31.2996 5.96636 31.2771 5.86885 31.2349C5.77133 31.1927 5.68309 31.1317 5.60914 31.0554C5.5352 30.9791 5.47701 30.889 5.4379 30.7902C5.39879 30.6914 5.37951 30.5859 5.38118 30.4796L5.40353 29.0573C5.40519 28.951 5.42777 28.8462 5.46997 28.7486C5.51216 28.6511 5.57316 28.5629 5.64946 28.4889C5.72576 28.415 5.81588 28.3568 5.91467 28.3177C6.01346 28.2786 6.11899 28.2593 6.22523 28.261L6.86794 28.2711C6.97417 28.2728 7.07904 28.2953 7.17656 28.3375C7.27407 28.3797 7.36231 28.4407 7.43626 28.517C7.5102 28.5933 7.56839 28.6834 7.6075 28.7822C7.64662 28.881 7.66589 28.9865 7.66422 29.0928L7.64188 30.5151ZM6.91471 29.2859C6.91499 29.2449 6.90722 29.2044 6.89182 29.1665C6.87642 29.1285 6.85371 29.094 6.82498 29.0649C6.79624 29.0358 6.76205 29.0126 6.72435 28.9966C6.68666 28.9807 6.64619 28.9724 6.60527 28.9721L6.45156 28.971C6.41064 28.9707 6.37006 28.9785 6.33215 28.9939C6.29423 29.0093 6.25972 29.032 6.23058 29.0607C6.20144 29.0895 6.17825 29.1237 6.16233 29.1614C6.14641 29.1991 6.13806 29.2395 6.13778 29.2804L6.13069 30.2949C6.13041 30.3358 6.13819 30.3764 6.15358 30.4143C6.16898 30.4522 6.19169 30.4868 6.22042 30.5159C6.24916 30.545 6.28335 30.5682 6.32105 30.5841C6.35874 30.6001 6.39921 30.6084 6.44013 30.6087L6.59384 30.6098C6.63476 30.6101 6.67534 30.6023 6.71325 30.5869C6.75117 30.5715 6.78568 30.5488 6.81482 30.52C6.84396 30.4913 6.86715 30.4571 6.88307 30.4194C6.89899 30.3817 6.90734 30.3413 6.90762 30.3003L6.91471 29.2859Z" fill="#00AB55"/>
<path fill-rule="evenodd" clip-rule="evenodd" d="M3.10061 31.2018L3.07406 30.3019C3.07324 30.2822 3.07998 30.263 3.09292 30.248C3.10587 30.233 3.12407 30.2233 3.14393 30.2208C3.22337 30.2123 3.3249 30.2111 3.43497 30.2099C3.73926 30.2065 4.10884 30.2023 4.25764 30.0392C4.57438 29.6917 4.67359 29.2972 4.55528 28.8556C4.35615 28.1121 3.17952 28.2157 2.51665 28.2741L2.51649 28.2741C2.46305 28.2788 2.41295 28.2832 2.36698 28.2868C2.33717 28.2887 2.32227 28.305 2.32227 28.3358L2.38375 31.1613C2.38444 31.1949 2.39786 31.227 2.42126 31.2509C2.44466 31.2748 2.47625 31.2887 2.50951 31.2898L2.9958 31.3066C3.06753 31.3084 3.10247 31.2735 3.10061 31.2018ZM3.7634 29.0274C3.84493 29.0644 3.89392 29.1203 3.8996 29.1827C3.90528 29.2451 3.86717 29.3088 3.79368 29.36C3.72018 29.4112 3.61731 29.4455 3.50769 29.4555C3.39807 29.4655 3.29069 29.4502 3.20917 29.4132C3.12764 29.3761 3.07865 29.3203 3.07297 29.2579C3.06729 29.1955 3.10539 29.1318 3.17889 29.0806C3.25239 29.0294 3.35526 28.9951 3.46488 28.9851C3.57449 28.9751 3.68187 28.9903 3.7634 29.0274Z" fill="#00AB55"/>
<path d="M9.32447 30.5589C9.60777 30.6113 9.78087 30.5083 9.95711 30.4034C10.1286 30.3013 10.3031 30.1975 10.5849 30.2333C10.6184 30.238 10.6413 30.2557 10.6534 30.2864C11.0921 31.4225 9.45163 31.3959 8.78787 31.2087C8.74688 31.1966 8.71288 31.1751 8.68586 31.1444C8.33126 30.7461 8.40388 29.7014 8.43988 29.1835L8.43989 29.1833C8.44191 29.1543 8.44381 29.1269 8.44551 29.1014C8.46321 28.8322 8.56941 28.5933 8.76411 28.3846C8.79579 28.3501 8.83492 28.3278 8.88149 28.3175C9.67521 28.1428 10.8378 28.1903 10.7177 29.3795C10.7153 29.4023 10.7047 29.4235 10.6877 29.4391C10.6708 29.4548 10.6487 29.4639 10.6254 29.4648C10.3618 29.4759 10.1363 29.4005 9.94909 29.2384C9.7842 29.0949 9.66775 29.0162 9.59975 29.0022C9.00053 28.8773 9.15044 29.993 9.20267 30.3817C9.20538 30.4018 9.20782 30.42 9.20988 30.4359C9.21348 30.4659 9.22652 30.494 9.24712 30.5161C9.26771 30.5382 9.2948 30.5532 9.32447 30.5589Z" fill="#00AB55"/>
<path d="M13.3504 30.1202L13.342 29.5208C13.341 29.4742 13.3639 29.45 13.4104 29.4481L13.6676 29.4397C13.7356 29.4379 13.77 29.4025 13.771 29.3335L13.7724 28.3749C13.7724 28.3004 13.7356 28.2631 13.662 28.2631L13.0932 28.2645C13.0467 28.2645 13.0234 28.2878 13.0234 28.3344L13.022 29.3824C13.022 29.4271 12.9996 29.4495 12.9549 29.4495H12.3275C12.2809 29.4495 12.2576 29.4267 12.2576 29.381V28.3316C12.2576 28.2841 12.2339 28.2608 12.1863 28.2617L11.5687 28.2701C11.5109 28.271 11.4821 28.3004 11.4821 28.3582L11.4904 31.2675C11.4904 31.2764 11.494 31.2849 11.5003 31.2912C11.5066 31.2975 11.5151 31.301 11.524 31.301L12.2227 31.3024C12.246 31.3024 12.2576 31.2908 12.2576 31.2675V30.2768C12.2576 30.2227 12.2851 30.1962 12.3401 30.1971L12.9367 30.2055C12.9945 30.2073 13.0234 30.2372 13.0234 30.2949L13.0178 31.2535C13.0178 31.2665 13.0228 31.2789 13.0317 31.2881C13.0406 31.2973 13.0527 31.3024 13.0653 31.3024H13.7277C13.7612 31.3024 13.778 31.2857 13.778 31.2521L13.7654 30.2628C13.7653 30.2509 13.7624 30.2391 13.757 30.2285C13.7515 30.218 13.7437 30.2088 13.7342 30.2019C13.7246 30.1949 13.7136 30.1903 13.702 30.1885C13.6905 30.1867 13.6787 30.1878 13.6676 30.1915C13.5837 30.2185 13.4999 30.2218 13.416 30.2013C13.3732 30.191 13.3513 30.164 13.3504 30.1202Z" fill="#00AB55"/>
<path d="M15.3555 29.4354L16.3365 29.455C16.3561 29.4553 16.3749 29.4632 16.389 29.477C16.403 29.4908 16.4112 29.5094 16.4119 29.5291L16.4301 30.0992C16.4305 30.1093 16.4288 30.1194 16.4253 30.1288C16.4218 30.1383 16.4165 30.147 16.4096 30.1544C16.4027 30.1618 16.3944 30.1677 16.3852 30.1719C16.3761 30.1761 16.3661 30.1785 16.356 30.1788L15.3583 30.2166C15.3382 30.2173 15.3191 30.2259 15.3053 30.2405C15.2914 30.2552 15.2839 30.2747 15.2842 30.2948L15.2856 30.4807C15.286 30.5008 15.2943 30.52 15.3086 30.5341C15.323 30.5482 15.3424 30.5561 15.3625 30.5561L16.7249 30.5589C16.7451 30.5589 16.7644 30.5668 16.7788 30.5809C16.7932 30.5951 16.8014 30.6142 16.8018 30.6344L16.8158 31.2241C16.816 31.2343 16.8141 31.2444 16.8103 31.2539C16.8065 31.2634 16.8009 31.272 16.7938 31.2793C16.7866 31.2866 16.7781 31.2924 16.7687 31.2964C16.7592 31.3003 16.7491 31.3023 16.7389 31.3023H14.6107C14.5903 31.3023 14.5708 31.2942 14.5564 31.2798C14.5419 31.2654 14.5338 31.2459 14.5338 31.2255L14.5311 28.3357C14.5311 28.3153 14.5392 28.2958 14.5536 28.2814C14.568 28.2669 14.5875 28.2588 14.6079 28.2588L16.7347 28.2728C16.7549 28.2732 16.7741 28.2814 16.7882 28.2958C16.8023 28.3102 16.8102 28.3295 16.8102 28.3497L16.8018 28.9422C16.8014 28.9621 16.7934 28.981 16.7793 28.9951C16.7652 29.0092 16.7462 29.0173 16.7263 29.0176L15.3555 29.0428C15.3354 29.0431 15.3162 29.0514 15.3021 29.0658C15.288 29.0801 15.28 29.0995 15.28 29.1196V29.3586C15.28 29.3787 15.288 29.3981 15.3021 29.4124C15.3162 29.4268 15.3354 29.4351 15.3555 29.4354Z" fill="#00AB55"/>
<path d="M19.1341 31.2395L19.1746 29.0736C19.1756 29.0317 19.197 29.0088 19.2389 29.0051L19.7559 28.9674C19.7913 28.9655 19.8142 28.9473 19.8244 28.9129C19.8822 28.7303 19.9013 28.5444 19.8817 28.3553C19.88 28.3412 19.8733 28.3282 19.8627 28.3187C19.8522 28.3092 19.8386 28.3039 19.8244 28.3036L17.72 28.2645C17.7079 28.2641 17.6959 28.2662 17.6848 28.2707C17.6736 28.2753 17.6635 28.2821 17.6552 28.2908C17.6469 28.2995 17.6405 28.3099 17.6365 28.3213C17.6325 28.3326 17.6309 28.3447 17.6319 28.3567L17.6794 28.9073C17.6832 28.9567 17.7097 28.9827 17.7591 28.9855L18.2999 29.0149C18.3539 29.0177 18.3809 29.0461 18.3809 29.1001L18.3893 31.2353C18.3893 31.2499 18.395 31.2639 18.4052 31.2744C18.4154 31.2848 18.4292 31.2909 18.4438 31.2912L19.0628 31.3066C19.1094 31.3075 19.1332 31.2852 19.1341 31.2395Z" fill="#00AB55"/>
<path d="M23.3807 30.5282C23.5903 30.5906 23.7944 30.5855 23.9928 30.5128C24.0127 30.5053 24.0301 30.4922 24.0428 30.4752C24.0556 30.4581 24.0632 30.4377 24.0646 30.4166C24.0661 30.3955 24.0614 30.3745 24.0512 30.3561C24.0409 30.3377 24.0255 30.3227 24.0068 30.313C23.717 30.1621 23.6132 29.9082 23.6952 29.5514C23.7073 29.5021 23.7385 29.4741 23.7888 29.4676L24.4525 29.3851C24.4872 29.3809 24.5224 29.3839 24.5559 29.3941C24.5894 29.4042 24.6204 29.4213 24.6469 29.4442C24.6735 29.467 24.695 29.4952 24.7102 29.5269C24.7253 29.5586 24.7337 29.5931 24.7348 29.6283L24.7697 30.8622C24.7707 30.9134 24.7464 30.9469 24.6971 30.9628L24.5713 31.0033C24.5294 31.0163 24.5028 31.0443 24.4917 31.0871C24.42 31.3435 23.9752 31.3254 23.6021 31.3103H23.6018C23.5094 31.3065 23.4213 31.3029 23.3444 31.3037C22.798 31.3093 22.6108 30.9404 22.5605 30.4346C22.492 29.7457 22.404 28.8038 22.9839 28.3301C23.0137 28.305 23.0482 28.2919 23.0873 28.291L24.2052 28.2561C24.2641 28.2545 24.3212 28.276 24.3646 28.3159C24.4079 28.3558 24.4339 28.411 24.4372 28.4699L24.4595 28.8444C24.4651 28.9412 24.4195 28.9915 24.3226 28.9953L23.4394 29.0316C23.3954 29.0334 23.3539 29.0525 23.3239 29.0846C23.2938 29.1168 23.2776 29.1595 23.2787 29.2035L23.3151 30.443C23.3169 30.4867 23.3388 30.5152 23.3807 30.5282Z" fill="#00AB55"/>
<path fill-rule="evenodd" clip-rule="evenodd" d="M26.3641 31.1948L26.332 30.6443C26.3273 30.5707 26.3618 30.5343 26.4354 30.5353L27.0083 30.5381C27.081 30.5381 27.1173 30.5744 27.1173 30.6471L27.1145 31.2032C27.1145 31.2694 27.1481 31.3024 27.2151 31.3024L27.7671 31.301C27.8407 31.301 27.8766 31.2642 27.8747 31.1906C27.8635 30.4938 27.8314 29.7742 27.7783 29.0317C27.7126 28.1164 26.775 28.203 26.1294 28.2883C26.0828 28.2948 26.0437 28.3148 26.012 28.3484C25.7703 28.5999 25.6347 28.7997 25.6207 29.1742C25.5937 29.8645 25.5881 30.5413 25.604 31.2046C25.6058 31.2726 25.6403 31.3062 25.7074 31.3052L26.2705 31.2968C26.2835 31.2967 26.2963 31.2939 26.3081 31.2886C26.32 31.2833 26.3306 31.2756 26.3394 31.2661C26.3482 31.2565 26.3549 31.2453 26.3591 31.233C26.3634 31.2208 26.3651 31.2078 26.3641 31.1948ZM27.1207 29.1132C27.131 29.1386 27.1361 29.1657 27.1359 29.193L27.1323 29.6067C27.132 29.634 27.1264 29.661 27.1157 29.6862C27.1051 29.7114 27.0895 29.7342 27.07 29.7533C27.0505 29.7725 27.0274 29.7876 27.0021 29.7979C26.9767 29.8081 26.9496 29.8133 26.9223 29.813L26.5506 29.8098C26.5232 29.8096 26.4962 29.8039 26.471 29.7932C26.4459 29.7826 26.423 29.767 26.4039 29.7475C26.3847 29.728 26.3696 29.7049 26.3593 29.6796C26.3491 29.6542 26.344 29.6271 26.3442 29.5998L26.3478 29.1862C26.348 29.1588 26.3537 29.1318 26.3643 29.1066C26.375 29.0814 26.3906 29.0586 26.4101 29.0395C26.4296 29.0203 26.4527 29.0052 26.478 28.9949C26.5034 28.9847 26.5305 28.9795 26.5578 28.9798L26.9295 28.983C26.9569 28.9833 26.9839 28.9889 27.0091 28.9996C27.0342 29.0102 27.057 29.0258 27.0762 29.0453C27.0954 29.0648 27.1105 29.0879 27.1207 29.1132Z" fill="#00AB55"/>
<path d="M32.9542 30.5561L34.3125 30.5589C34.3507 30.5589 34.3698 30.578 34.3698 30.6162L34.3711 31.2325C34.3711 31.2791 34.3479 31.3023 34.3013 31.3023L32.2178 31.301C32.1349 31.301 32.0934 31.2595 32.0934 31.1766L32.0948 28.3888C32.0948 28.3724 32.098 28.3561 32.1043 28.3409C32.1106 28.3257 32.1198 28.3119 32.1313 28.3004C32.1429 28.2888 32.1566 28.2797 32.1717 28.2735C32.1868 28.2673 32.2029 28.2643 32.2192 28.2644L34.2985 28.2826C34.3525 28.2835 34.3781 28.311 34.3753 28.3651L34.3446 28.9352C34.3418 28.9957 34.3097 29.0256 34.2482 29.0246C33.8998 29.0153 33.5215 29.0204 33.1135 29.04C32.9868 29.0465 32.8992 29.088 32.8508 29.1644C32.8354 29.1886 32.8266 29.2165 32.8253 29.2452C32.824 29.2739 32.8303 29.3025 32.8434 29.328C32.8565 29.3536 32.8761 29.3753 32.9002 29.3909C32.9243 29.4066 32.9521 29.4157 32.9808 29.4173L33.794 29.469C33.9459 29.4783 34.0223 29.5593 34.0232 29.7121L34.0246 29.9581C34.0255 30.0904 33.9599 30.1607 33.8276 30.1691L32.9486 30.2236C32.8946 30.2273 32.8606 30.2552 32.8466 30.3074C32.8308 30.3624 32.8308 30.4183 32.8466 30.4751C32.8615 30.5291 32.8974 30.5561 32.9542 30.5561Z" fill="#00AB55"/>
<path d="M35.5603 28.3371C35.5706 28.4424 35.5519 28.5411 35.5044 28.6334C35.4848 28.6697 35.4546 28.686 35.4136 28.6823C35.3586 28.6767 35.306 28.6883 35.2557 28.7172C35.24 28.7258 35.2269 28.7383 35.2178 28.7536C35.2087 28.7688 35.2039 28.7862 35.204 28.8038L35.1942 29.6828C35.1942 29.7433 35.2245 29.7746 35.285 29.7764L35.4779 29.7806C35.5291 29.7825 35.5556 29.809 35.5575 29.8603L35.5645 30.1216C35.5664 30.1672 35.5901 30.1905 35.6358 30.1914L36.6586 30.211C36.6733 30.2112 36.6878 30.2143 36.7013 30.22C36.7148 30.2258 36.727 30.2342 36.7373 30.2447C36.7475 30.2552 36.7556 30.2677 36.7611 30.2813C36.7665 30.2949 36.7692 30.3095 36.769 30.3242C36.7681 30.4397 36.702 30.504 36.5706 30.517C36.1682 30.5552 35.7229 30.5645 35.2347 30.545C35.2291 30.5448 35.2235 30.5457 35.2182 30.5476C35.213 30.5496 35.2082 30.5526 35.2041 30.5563C35.2039 30.5566 35.2036 30.5569 35.2033 30.5571L35.2028 30.5577L35.2016 30.5589L35.2008 30.5599L35.1999 30.561C35.1978 30.5637 35.1961 30.5666 35.1947 30.5697C35.1925 30.5747 35.1914 30.5801 35.1914 30.5855L35.1942 31.2618C35.1942 31.2833 35.2049 31.2944 35.2263 31.2954C35.6791 31.3121 36.1453 31.3107 36.6251 31.2912C37.4702 31.2563 37.454 30.7316 37.4354 30.1295L37.4354 30.1292C37.4331 30.0553 37.4308 29.9804 37.43 29.905C37.4296 29.88 37.4225 29.8557 37.4094 29.8345C37.3964 29.8133 37.3779 29.7962 37.3559 29.7848C37.2951 29.7526 37.2397 29.7168 37.1854 29.6817C37.0702 29.6073 36.96 29.5361 36.8138 29.5095C36.5548 29.4639 36.3032 29.4322 36.0592 29.4145C36.0237 29.4117 35.9903 29.3964 35.965 29.3713C35.9397 29.3462 35.924 29.313 35.9208 29.2776L35.9152 29.2077C35.9133 29.1846 35.9162 29.1613 35.9238 29.1394C35.9313 29.1175 35.9434 29.0974 35.9592 29.0804C35.975 29.0635 35.9941 29.05 36.0155 29.0408C36.0368 29.0317 36.0597 29.0271 36.0829 29.0274L37.349 29.0386C37.43 29.0395 37.471 28.9995 37.4719 28.9184L37.4775 28.4293C37.4779 28.4099 37.4744 28.3906 37.4673 28.3724C37.4602 28.3543 37.4496 28.3378 37.4361 28.3238C37.4226 28.3098 37.4065 28.2985 37.3887 28.2908C37.3708 28.283 37.3516 28.2788 37.3322 28.2784L35.633 28.2589C35.6229 28.2586 35.6128 28.2605 35.6035 28.2644C35.5942 28.2684 35.5859 28.2742 35.579 28.2816C35.5721 28.289 35.5669 28.2978 35.5637 28.3074C35.5605 28.3169 35.5593 28.3271 35.5603 28.3371Z" fill="#00AB55"/>
<path d="M41.5872 30.4179L41.6306 30.369C41.639 30.3591 41.6447 30.3472 41.6468 30.3344C41.649 30.3216 41.6477 30.3084 41.6429 30.2964C41.6382 30.2843 41.6302 30.2737 41.6199 30.2658C41.6096 30.2579 41.5973 30.253 41.5844 30.2516C41.4917 30.2418 41.395 30.2359 41.2973 30.23C40.9082 30.2063 40.5044 30.1818 40.2765 29.9036C39.8615 29.3992 40.0725 28.2855 40.834 28.2687C41.27 28.2594 41.7032 28.258 42.1336 28.2645C42.2892 28.2664 42.3591 28.3451 42.3432 28.5007L42.3041 28.8919C42.3015 28.9157 42.2942 28.9388 42.2826 28.9597C42.271 28.9806 42.2553 28.999 42.2366 29.0137C42.2178 29.0284 42.1963 29.0392 42.1733 29.0454C42.1504 29.0516 42.1264 29.0531 42.1029 29.0498L42.0931 29.0486C41.7892 29.0088 41.1163 28.9207 40.8578 29.1225C40.834 29.1411 40.8162 29.1663 40.8065 29.1949C40.7969 29.2235 40.7957 29.2542 40.8033 29.2835C40.8109 29.3127 40.8268 29.3391 40.8491 29.3594C40.8715 29.3797 40.8993 29.393 40.9291 29.3978C41.041 29.4158 41.1456 29.4309 41.2429 29.445C42.1068 29.5701 42.4047 29.6132 42.2929 30.8301C42.2892 30.8767 42.2696 30.9153 42.2342 30.9461L41.9086 31.2381C41.8714 31.2717 41.8276 31.2884 41.7773 31.2884L40.1857 31.301C40.0795 31.3019 40.0306 31.2493 40.0389 31.1431L40.0697 30.7099C40.0728 30.6721 40.0898 30.6367 40.1174 30.6107C40.145 30.5846 40.1812 30.5697 40.2192 30.5688L41.2924 30.5534C41.4107 30.5516 41.509 30.5064 41.5872 30.4179Z" fill="#00AB55"/>
<path fill-rule="evenodd" clip-rule="evenodd" d="M45.3059 30.8403C45.3428 30.7509 45.3616 30.6551 45.3615 30.5584L45.3588 29.0101C45.3586 28.9134 45.3394 28.8176 45.3022 28.7284C45.265 28.6391 45.2107 28.558 45.1422 28.4897C45.0737 28.4215 44.9924 28.3674 44.903 28.3305C44.8136 28.2937 44.7178 28.2748 44.6211 28.2749L43.8441 28.2763C43.7474 28.2765 43.6517 28.2957 43.5624 28.3328C43.4731 28.37 43.392 28.4244 43.3238 28.4929C43.2555 28.5614 43.2014 28.6427 43.1645 28.7321C43.1277 28.8215 43.1088 28.9173 43.109 29.014L43.1117 30.5623C43.1119 30.659 43.1311 30.7547 43.1682 30.844C43.2054 30.9333 43.2598 31.0144 43.3283 31.0826C43.3968 31.1509 43.4781 31.205 43.5675 31.2419C43.6569 31.2787 43.7527 31.2976 43.8494 31.2974L44.6263 31.2961C44.723 31.2959 44.8188 31.2767 44.9081 31.2395C44.9973 31.2024 45.0784 31.148 45.1467 31.0795C45.215 31.011 45.2691 30.9297 45.3059 30.8403ZM44.6007 29.1311C44.6138 29.1623 44.6206 29.1957 44.6208 29.2294L44.6266 30.3249C44.6267 30.3587 44.6203 30.3922 44.6075 30.4234C44.5947 30.4547 44.576 30.4832 44.5522 30.5072C44.5285 30.5312 44.5002 30.5502 44.4691 30.5633C44.438 30.5764 44.4045 30.5832 44.3708 30.5834L44.1165 30.5847C44.0827 30.5849 44.0492 30.5784 44.018 30.5657C43.9867 30.5529 43.9583 30.5341 43.9343 30.5104C43.9103 30.4866 43.8912 30.4584 43.8781 30.4273C43.865 30.3961 43.8582 30.3627 43.858 30.329L43.8523 29.2334C43.8521 29.1997 43.8586 29.1662 43.8713 29.1349C43.8841 29.1037 43.9029 29.0752 43.9266 29.0512C43.9504 29.0272 43.9786 29.0081 44.0098 28.9951C44.0409 28.982 44.0743 28.9752 44.108 28.975L44.3624 28.9736C44.3961 28.9735 44.4296 28.9799 44.4609 28.9927C44.4921 29.0055 44.5206 29.0243 44.5446 29.048C44.5686 29.0718 44.5876 29.1 44.6007 29.1311Z" fill="#00AB55"/>
<path d="M46.9671 30.3061L46.9699 31.2158C46.9699 31.2391 46.9606 31.2615 46.9441 31.278C46.9276 31.2945 46.9052 31.3038 46.8818 31.3038L46.3047 31.301C46.2814 31.301 46.259 31.2917 46.2425 31.2752C46.226 31.2587 46.2167 31.2363 46.2167 31.213L46.2153 28.3497C46.2153 28.3264 46.2246 28.304 46.2411 28.2875C46.2576 28.271 46.28 28.2617 46.3033 28.2617L48.398 28.2673C48.4213 28.2673 48.4437 28.2766 48.4602 28.2931C48.4767 28.3096 48.486 28.332 48.486 28.3553L48.4846 28.9311C48.4846 28.9542 48.4755 28.9763 48.4593 28.9928C48.4431 29.0093 48.4211 29.0187 48.398 29.0191L47.0355 29.0359C47.0124 29.0362 46.9904 29.0457 46.9742 29.0621C46.958 29.0786 46.9489 29.1008 46.9489 29.1239V29.3461C46.9492 29.3685 46.9581 29.3899 46.9737 29.406C46.9892 29.4221 47.0104 29.4316 47.0327 29.4327L48.0249 29.4732C48.0367 29.4738 48.0483 29.4767 48.059 29.4818C48.0696 29.4869 48.0792 29.4941 48.087 29.5029C48.0948 29.5118 48.1008 29.5222 48.1045 29.5334C48.1082 29.5446 48.1097 29.5565 48.1087 29.5683L48.0654 30.0979C48.0637 30.1193 48.0543 30.1393 48.0388 30.1543C48.0234 30.1692 48.003 30.178 47.9816 30.1789L47.0523 30.218C47.0294 30.2188 47.0078 30.2284 46.9919 30.2448C46.9759 30.2612 46.9671 30.2832 46.9671 30.3061Z" fill="#00AB55"/>
<path d="M49.344 28.9939L49.9407 29.0261C49.9593 29.0272 49.9767 29.0353 49.9894 29.0488C50.0021 29.0623 50.0092 29.0802 50.0092 29.0987L50.0274 31.227C50.0277 31.2457 50.0353 31.2637 50.0486 31.277C50.0619 31.2902 50.0798 31.2979 50.0986 31.2982L50.7065 31.3038C50.716 31.3038 50.7255 31.3019 50.7343 31.2983C50.7431 31.2946 50.7511 31.2893 50.7579 31.2825C50.7646 31.2758 50.77 31.2678 50.7736 31.259C50.7773 31.2501 50.7791 31.2407 50.7791 31.2311L50.7777 29.096C50.7777 29.0776 50.7846 29.0599 50.797 29.0464C50.8095 29.033 50.8265 29.0247 50.8448 29.0233L51.4429 28.9772C51.4607 28.9758 51.4774 28.9679 51.4898 28.955C51.5022 28.9422 51.5093 28.9252 51.51 28.9073L51.5365 28.3651C51.5371 28.3553 51.5357 28.3456 51.5324 28.3363C51.5291 28.3271 51.5239 28.3187 51.5173 28.3115C51.5106 28.3043 51.5026 28.2986 51.4936 28.2946C51.4847 28.2906 51.475 28.2884 51.4653 28.2883L49.3398 28.2561C49.3301 28.2559 49.3204 28.2577 49.3113 28.2614C49.3022 28.265 49.294 28.2705 49.2871 28.2774C49.2801 28.2843 49.2747 28.2925 49.271 28.3016C49.2674 28.3107 49.2656 28.3204 49.2658 28.3302L49.2756 28.9227C49.2759 28.941 49.2831 28.9585 49.2958 28.9717C49.3085 28.985 49.3257 28.9929 49.344 28.9939Z" fill="#00AB55"/>
</svg>
