<svg xmlns="http://www.w3.org/2000/svg" width="124" height="24" fill="none"><g clip-path="url(#a)"><path fill="#919EAB" fill-rule="evenodd" d="M4.343 22.424c.003-5.621.003-11.548 0-17.78 0-.097.043-.123.13-.08l14.69 7.364a.083.083 0 0 1 .033.116.083.083 0 0 1-.033.03l-8.198 4.112a.095.095 0 0 1-.095-.004.095.095 0 0 1-.045-.082l.018-4.103c.01-2.272-3.396-2.2-3.394-.11.002 2.398 0 4.81-.004 7.232-.003 1.374 1.501 1.943 2.605 1.385a3195.76 3195.76 0 0 1 13.7-6.866c1.44-.718 1.548-2.496.065-3.237A8609.373 8609.373 0 0 1 3.573.253C2.496-.287.973.198.973 1.578L.972 22.42c.003 1.67 2.21 2.062 3.095.842.185-.255.277-.534.277-.837Zm30.395-6.334c.008-.7.005-1.417-.009-2.153-.001-.102.049-.154.151-.155 1.719-.012 3.512-.012 5.38 0 1.73.011 2.922-.96 2.92-2.752-.001-.186.002-.373.005-.56.023-1.356.044-2.688-1.336-3.45-.404-.222-.88-.33-1.426-.326-2.43.018-4.687.02-6.768.004a1.042 1.042 0 0 0-1.05 1.043c.004 3.15.005 5.967.005 8.452 0 1.516 2.115 1.474 2.128-.103Zm.288-7.284 5.7.009a.294.294 0 0 1 .296.295l-.005 2.22a.24.24 0 0 1-.025.106.282.282 0 0 1-.072.09.34.34 0 0 1-.107.06.387.387 0 0 1-.127.022l-5.628-.01a.366.366 0 0 1-.234-.08.258.258 0 0 1-.097-.198l.004-2.22a.295.295 0 0 1 .295-.294Zm13.136 6.386c2.01-.003 4.042-.005 6.096-.005.748 0 1.116.346 1.102 1.036v.041c-.014.684-.362 1.026-1.045 1.026-2.5.005-4.963.008-7.39.01a1.033 1.033 0 0 1-1.032-1.031c-.004-2.572-.001-5.4.006-8.483.004-.656.347-1.005 1.031-1.044h.044c.69.01 1.035.39 1.035 1.136-.003 2.418-.004 4.804-.004 7.159 0 .103.052.155.157.155Zm11.667 1.481a1990.74 1990.74 0 0 1 3.894-6.697c.035-.06.07-.06.103 0a759.847 759.847 0 0 0 3.934 6.757c.747 1.273 2.603.233 1.785-1.166a2026.851 2026.851 0 0 1-4.77-8.199c-.46-.79-1.46-.958-1.957-.098a1099.964 1099.964 0 0 1-4.807 8.253c-.365.622-.28 1.168.256 1.64a.142.142 0 0 0 .05.029c.673.232 1.176.059 1.512-.519Zm15.453-5.01c1.286-1.48 2.595-2.983 3.927-4.51 1.042-1.19 2.642.229 1.618 1.399-1.647 1.883-3.144 3.6-4.491 5.15a.332.332 0 0 0-.085.22 52.244 52.244 0 0 0-.004 2.193c.014.748-.601 1.36-1.349 1.148-.685-.197-.855-.816-.832-1.456.023-.684.026-1.322.01-1.913a.34.34 0 0 0-.087-.222 756.377 756.377 0 0 1-4.458-5.1c-1.062-1.227.576-2.576 1.546-1.467 1.33 1.522 2.656 3.042 3.979 4.558.075.087.15.087.226 0Zm10.544-.766c-.259-.004-.388-.136-.388-.393V9.361c0-.369.184-.553.553-.553h7.207c1.405 0 1.44-2.13-.195-2.112-2.122.023-4.39.021-6.804-.005-1.278-.013-2.254.469-2.716 1.648-.163.416-.148.897-.133 1.37a7.25 7.25 0 0 1-.001.699c-.122 1.77 1.334 2.702 2.925 2.686 2.05-.023 3.95-.027 5.7-.012.347.003.52.178.52.524l-.003 1.017c0 .376-.188.564-.564.564-2.449.004-4.838.003-7.166-.002-.61-.001-.985.345-1.127 1.038a.125.125 0 0 0 0 .048c.156.693.549 1.037 1.18 1.03 1.923-.016 4.239-.013 6.948.01 1.628.014 2.921-1.045 2.855-2.759a8.23 8.23 0 0 1 .002-.752c.053-1.127-.486-2.167-1.522-2.635-.425-.192-.981-.284-1.668-.275-1.99.028-3.858.03-5.603.007Zm22.825 3.86a2.532 2.532 0 0 1-.743 1.796 2.543 2.543 0 0 1-1.796.744h-6.199a2.54 2.54 0 0 1-2.54-2.54V9.246a2.54 2.54 0 0 1 2.54-2.54h6.199a2.538 2.538 0 0 1 2.539 2.54v5.513Zm-2.153-5.498a.456.456 0 0 0-.458-.456l-6.098.01a.457.457 0 0 0-.456.458l.01 5.468a.456.456 0 0 0 .457.456l6.098-.01a.456.456 0 0 0 .457-.459l-.01-5.467Zm14.199-1.4c-.001 1.956.003 3.895.014 5.82 0 .098-.035.113-.105.046a6142.45 6142.45 0 0 0-7.221-6.697c-.711-.659-1.847-.247-1.844.747l.004 8.38c.002.716.344 1.084 1.026 1.106h.044c.673-.011 1.016-.34 1.026-.985.038-2.079.039-4.078.002-5.998 0-.008.002-.016.006-.023a.037.037 0 0 1 .018-.016.042.042 0 0 1 .024-.003.05.05 0 0 1 .016.005l.007.005a8528.6 8528.6 0 0 0 7.285 6.745c.674.624 1.815.233 1.81-.736a1170.2 1170.2 0 0 1 0-8.382c.002-.7-.339-1.092-1.022-1.18a.203.203 0 0 0-.043 0c-.698.068-1.047.456-1.047 1.167Z" clip-rule="evenodd"/></g><defs><clipPath id="a"><path fill="#fff" d="M.971.001h122.057v24H.971z"/></clipPath></defs></svg>