<svg xmlns="http://www.w3.org/2000/svg" width="128" height="24" fill="none"><path fill="#00AB55" fill-rule="evenodd" d="M49.773.763c.581-.038 1.161-.095 1.742-.153.58-.057 1.16-.114 1.741-.152C54.329.306 55.4.153 56.383.001l-4.465 14.933c0 .031-.016.063-.034.1a.44.44 0 0 0-.056.204c-.089.229-.089.305-.089.381 0 .153 0 .305.09.381.089.076.178.152.357.152.178 0 .357-.076.535-.304.18-.153.626-.686 1.161-1.448l.04.025a7.963 7.963 0 0 1 .856-2.845c.268-1.22 1.072-2.362 2.054-3.276.803-.762 1.607-1.372 2.5-1.753.893-.38 1.697-.61 2.5-.61.715 0 1.34.153 1.787.458.446.305.714.762.893 1.448l.446-1.448 4.019-.076-.058.183a89.586 89.586 0 0 0 2.11-.26c1.16-.152 1.786-.228 1.875-.228.447 0 1.072 1.752 1.875 5.333.201 1.085.402 2 .565 2.742l.15.686a80.955 80.955 0 0 0 1.875-3.352c.357-.686.536-1.219.536-1.524 0-.228-.268-.61-.804-.914-.536-.38-.804-.762-.804-1.219 0-.533.179-.99.536-1.295.357-.305.893-.457 1.518-.457.482 0 .91.09 1.245.271l.094-.268a7.12 7.12 0 0 0 3.037-1.371c.893-.762 1.696-1.753 2.41-3.048h.894L84.869 5.87h2.322l-.268.914h-2.5l-2.412 8.152c-.089.152-.089.38-.089.533v.381c0 .305.09.457.179.61.089.152.357.228.535.228.358 0 .715-.152 1.161-.457.409-.279.893-.75 1.52-1.412.018-1.034.285-2.136.802-3.239a9.647 9.647 0 0 1 2.143-2.97 10.785 10.785 0 0 1 2.858-1.905c1.072-.458 2.143-.686 3.215-.686.982 0 1.786.228 2.41.61.626.38.894.99.894 1.675 0 1.296-.893 2.362-2.59 3.276-1.786.838-4.018 1.448-6.787 1.6-.089.305-.178.61-.178.915-.09.304-.09.533-.09.761 0 .686.179 1.22.626 1.6.446.381.982.686 1.785.686.804 0 1.697-.305 2.68-.762a16.96 16.96 0 0 0 2.985-1.811 5.166 5.166 0 0 1-.037-.626c0-.99.268-1.981.714-2.972.536-.99 1.161-1.904 2.054-2.742.804-.762 1.697-1.296 2.768-1.677.983-.38 2.054-.61 3.037-.61 1.071 0 1.964.23 2.589.687.625.457.983.99.983 1.752 0 .457-.179.762-.536 1.067-.357.304-.715.457-1.25.457-.358 0-.715-.077-.893-.305-.268-.229-.358-.457-.358-.838 0-.229.09-.533.268-.838.179-.305.268-.534.268-.61a.414.414 0 0 0-.268-.38 2.034 2.034 0 0 0-.803-.153c-.715 0-1.34.152-2.054.533-.715.381-1.34.838-1.875 1.524-.626.762-1.161 1.6-1.519 2.438a6.368 6.368 0 0 0-.535 2.514c0 .914.267 1.676.803 2.21.536.533 1.34.914 2.322.914.714 0 1.518-.305 2.233-.686.962-.298 2.096-1.11 3.402-2.79l3.384-10.466c0-.032.015-.064.033-.1a.433.433 0 0 0 .056-.205V2.36c0-.305-.089-.457-.268-.533-.178-.076-.625-.153-1.339-.153h-1.161l.178-.685c.625 0 1.249-.075 1.843-.146.256-.03.505-.06.747-.083.804-.152 1.518-.305 2.233-.533h.893l-3.483 10.666c1.786-1.524 3.393-2.743 4.911-3.58 1.519-.839 2.679-1.296 3.572-1.296.447 0 .804.076.983.305.178.228.357.457.357.914 0 .152 0 .305-.089.457 0 .152-.09.381-.179.61l-2.5 7.237c0 .076-.023.153-.045.229-.022.076-.045.152-.045.229 0 .076-.022.152-.044.228a.805.805 0 0 0-.045.229c0 .076.089.152.179.228a.85.85 0 0 1 .064.064c.072.076.156.165.293.165.268 0 .625-.229.982-.534a8.928 8.928 0 0 0 1.34-1.142l.535.38c-.893.915-1.696 1.6-2.5 2.134-.804.457-1.518.762-2.232.762-.447 0-.804-.077-1.072-.305-.268-.152-.357-.457-.357-.762v-.38c0-.153.089-.306.178-.458l2.59-7.543c.089-.152.089-.304.089-.38v-.229c0-.18-.056-.266-.123-.37-.018-.027-.037-.055-.055-.087-.09-.076-.268-.152-.536-.152-.357 0-.893.228-1.607.609-.547.292-1.146.717-1.838 1.208-.212.15-.432.307-.663.468-.893.686-1.518 1.22-1.875 1.676-.357.457-.715.914-.893 1.448l-1.697 5.18c-.089 0-.312-.019-.536-.038-.223-.019-.446-.038-.535-.038h-.715c-.178 0-.357 0-.625.076l.816-2.522a10.6 10.6 0 0 1-2.155 1.608 8.119 8.119 0 0 1-3.572.838c-1.429 0-2.59-.38-3.483-1.219-.458-.43-.799-.92-1.022-1.471-1.204.885-2.388 1.554-3.444 2.004-1.25.534-2.59.838-3.75.838-1.25 0-2.144-.304-2.858-.914-.518-.441-.8-1.043-.918-1.775-.672.72-1.331 1.298-1.94 1.702-.804.61-1.607.838-2.322.838-.535 0-.982-.152-1.34-.457-.356-.305-.446-.762-.446-1.295 0-.152 0-.381.09-.61 0-.18.056-.361.123-.58.018-.057.037-.118.055-.181l2.5-8.457h-1.963c.178.278.267.633.267 1.063 0 .762-.446 1.905-1.25 3.505-.804 1.6-1.965 3.428-3.304 5.485-1.607 2.286-3.036 3.962-4.376 5.029-1.34 1.066-2.59 1.6-3.75 1.6-.804 0-1.43-.153-1.876-.457-.446-.305-.714-.762-.714-1.296 0-.457.178-.914.625-1.219.357-.304.893-.457 1.518-.457.447 0 .982.153 1.518.457.536.305.893.457 1.072.457.357 0 .714-.228 1.16-.685.447-.457.626-.915.626-1.372 0-.304 0-.685-.09-1.219a25.387 25.387 0 0 1-.267-1.828 99.946 99.946 0 0 0-.804-4.114c-.268-1.22-.536-2.21-.804-2.971a3.51 3.51 0 0 0-.625-1.22 1.228 1.228 0 0 0-.403-.213l-2.006 6.385c-.358 1.143-.536 1.829-.536 1.98 0 .153 0 .306.09.458.088.076.178.152.356.152.358 0 .893-.38 1.519-1.143.078-.1.156-.185.227-.262.09-.1.169-.185.219-.27l.714.456c-.803 1.143-1.518 1.981-2.321 2.515-.804.533-1.608.838-2.5.838-.715 0-1.34-.153-1.697-.458-.358-.304-.626-.685-.626-1.295 0-.152 0-.38.09-.61 0-.228.09-.609.178-.99-.714 1.143-1.518 1.905-2.321 2.438a5.066 5.066 0 0 1-2.769.838c-1.071 0-1.875-.304-2.5-.838-.492-.479-.762-1.052-.855-1.757-.664.825-1.315 1.436-1.916 1.835-.804.533-1.607.838-2.5.838-.804 0-1.34-.152-1.786-.533-.447-.381-.626-.914-.626-1.6 0-.305.18-1.22.626-2.667v-.007a9.808 9.808 0 0 1-1.156 1.609c-.893 1.066-1.786 1.828-2.769 2.362-.982.533-2.053.761-3.125.761a6.12 6.12 0 0 1-1.25-.152c-.358-.152-.715-.305-1.072-.533l-.893 2.819c-.09.152-.09.38-.09.533v.533c0 .305.09.61.358.686.268.152.714.228 1.429.228v.686h-8.037v-.686h.178c.536 0 .893-.076 1.161-.304.268-.229.536-.838.804-1.753l3.215-11.123c.09-.152.09-.38.09-.533 0-.09.03-.179.055-.253.018-.052.033-.096.033-.128 0-.305-.089-.533-.357-.61-.178-.152-.625-.152-1.16-.152l-.18-.686c1.162-.076 2.322-.152 3.394-.304.341-.049.683-.09 1.021-.13.724-.087 1.435-.172 2.105-.327l-.804 2.59c.804-.99 1.607-1.752 2.411-2.21.714-.457 1.518-.685 2.411-.685 1.161 0 1.965.305 2.59.914.617.602.886 1.428.893 2.55l1.691-5.599c0-.031.016-.076.034-.128a.798.798 0 0 0 .056-.253c.178-.61.268-1.066.268-1.219 0-.228-.09-.457-.268-.533-.179-.152-.536-.152-.893-.152h-.268l.178-.686ZM29.502 8.622a.19.19 0 0 1 .006.066c.178-2.286-1.43-3.886-4.733-4.115-2.143-.076-4.822.381-7.412 1.372l.893.457c5.358-1.22 9.912-.381 11.162 2.133.053.045.075.064.084.087ZM10.932 20.039c4.197.305 10.448-2.285 13.842-6.018 3.393-3.657 2.768-6.933-1.608-7.238-1.16-.076-2.5.076-3.84.457l5.09 2.514c.983.457 1.072 1.676.09 2.21l-12.591 6.552c-.893.457-2.233-.077-2.233-1.296v-4.647c0 .076-.09.152-.178.229-3.394 3.733-2.769 6.933 1.428 7.237Zm-6.518-3.352c-.983 2.971.535 5.18 4.375 5.41 3.304.152 7.59-1.067 11.43-3.2-.089.038-.156.057-.223.076-.067.019-.134.038-.223.076-6.787 2.59-13.573 2.21-15.092-.99-.178-.381-.267-.915-.267-1.372Zm17.234-6.628-8.483-4.571c-.714-.305-1.607.152-1.607.838v8.837c-.09.762.893 1.143 1.518.838l8.572-4.418c.715-.381.625-1.22 0-1.524ZM15.665 5.03c7.948-2.362 15.27-1.6 17.056 2.133 1.965 4.114-3.66 10.209-12.501 13.561C11.29 24.153 2.538 23.62.574 19.506c-1.697-3.58 2.232-8.61 9.108-12.114V4.345c.09-1.067 1.34-1.752 2.411-1.22l3.572 1.906Zm23.308 9.904.804-2.438c.536-1.524.982-2.667 1.697-3.352.625-.686 1.25-1.067 1.875-1.067.268 0 .536.153.714.381.179.229.268.61.268.99 0 .534-.178 1.372-.536 2.362-.357 1.067-.803 2.057-1.34 3.124-.446.762-.981 1.371-1.428 1.829-.536.457-.982.685-1.429.685-.268 0-.535-.076-.714-.228a.798.798 0 0 1-.268-.61c0-.152 0-.38.09-.686.089-.304.178-.61.267-.99Zm24.377-7.24c.178.228.268.456.268.837 0 .457-.179 1.143-.447 2.057-.088.225-.176.455-.265.688-.273.714-.56 1.46-.896 2.207-.446.915-.893 1.6-1.429 2.057-.446.534-.982.762-1.428.762-.358 0-.625-.076-.804-.304-.179-.229-.268-.61-.268-.99 0-.687.179-1.448.536-2.439.357-.914.803-1.905 1.429-2.895.535-.762.982-1.371 1.34-1.752.446-.381.803-.534 1.25-.534.267 0 .535.077.714.305Zm25.18 4.57c1.965-.076 3.662-.533 4.912-1.371 1.34-.838 1.964-1.752 1.964-2.82 0-.38-.089-.609-.357-.837-.178-.153-.536-.229-.982-.229-1.161 0-2.322.457-3.304 1.372-.893.99-1.697 2.285-2.233 3.885Zm-12.412 10.67v-.229l-.715.076V23.24c0 .229.179.457.447.61.178.076.536.152.982.152.982 0 1.518-.305 1.518-.99 0-.381-.178-.686-.536-.838-.089-.076-.268-.153-.535-.229-.268-.076-.447-.152-.626-.228-.267-.153-.446-.305-.446-.534 0-.38.268-.533.714-.533.357 0 .625.076.625.381V21.259h.715v-.077c0-.38-.09-.61-.268-.761-.179-.153-.536-.23-1.072-.23-.446 0-.714.077-.982.153-.268.153-.446.381-.446.762s.178.61.446.762l.536.229.536.228c.178.076.357.152.446.229.179.152.268.305.268.457 0 .305-.179.457-.447.533-.089.076-.178.076-.357.076-.446 0-.625-.152-.714-.38-.09-.077-.09-.23-.09-.305Zm2.769-1.524c0-.305 0-.533.09-.686.089-.228.267-.38.624-.457.268-.076.447-.076.804-.076.268 0 .536 0 .804.076.357.076.536.229.625.457v2.438c-.09.457-.536.686-1.429.686-.625 0-1.072-.076-1.25-.305-.179-.152-.268-.457-.268-.914v-1.22Zm.714 1.219c0 .305 0 .533.09.61l.268.228c.178.076.267.076.446.076.09 0 .268 0 .357-.076.268-.076.358-.229.358-.381v-1.676c0-.229 0-.457-.09-.533-.09-.153-.357-.229-.714-.229-.09 0-.268 0-.357.076-.268.076-.358.229-.358.457v1.448Zm3.57-2.362h-.715v2.819l.042.112c.053.147.08.22.226.345.268.229.714.305 1.25.305s.893-.076 1.161-.305c.179-.152.268-.305.268-.457v-2.895h-.804v2.818c0 .382-.268.534-.714.534-.447 0-.715-.152-.715-.533V20.268Zm4.11-.002h.893c.535.076.803.38.803.838 0 .229-.09.457-.178.61-.179.152-.358.228-.804.304.17 0 .304.03.402.053.056.013.101.023.134.023.178.077.268.153.268.305 0 .076 0 .229.089.305v.457c0 .152 0 .305.09.381 0 .152 0 .228.089.305h-.715l-.09-.229V22.78c0-.229-.178-.38-.446-.457h-.893v1.6h-.714v-3.58l1.072-.077Zm-.447.38v1.144h.893c.179 0 .357-.076.447-.229.089-.076.089-.228.089-.38 0-.23-.09-.306-.268-.382-.09-.076-.357-.076-.625-.076l-.536-.076Zm4.195.003c.446 0 .625.152.625.457V21.335h.625V20.878c-.09-.457-.536-.686-1.34-.686-.624 0-.982.152-1.25.38a.541.541 0 0 0-.178.382v1.981c0 .533.268.914.893.99.178.076.357.076.536.076.267 0 .446 0 .625-.076a.748.748 0 0 0 .446-.152c.268-.153.357-.305.357-.61v-.381h-.714v.381c0 .305-.268.457-.625.457-.268 0-.536-.076-.625-.228-.09-.076-.09-.305-.09-.534v-1.752c0-.076 0-.152.09-.228.09-.153.268-.229.625-.229Zm1.966-.383h2.321v.38H93.71v1.144h1.518v.38H93.71v1.22h1.697v.38h-2.412v-3.504Zm4.38.46c-.09.152-.09.38-.09.685v1.295c0 .457.09.762.268.914.179.229.625.305 1.25.305.894 0 1.34-.229 1.519-.762V21.41c0-.304 0-.532-.09-.685-.089-.228-.268-.38-.625-.457-.268-.076-.536-.076-.803-.076-.358 0-.536 0-.804.076-.357.076-.536.229-.625.457Zm.714 2.513c-.09-.076-.09-.304-.09-.61l.09-1.142v-.305c0-.228.09-.38.357-.457.09-.076.268-.076.358-.076.267 0 .535.076.625.229.089.076.089.304.089.533v1.676c0 .152-.09.305-.357.38-.09.077-.268.077-.358.077-.178 0-.267 0-.446-.076l-.268-.229Zm5.084-2.973v.38h-1.607v1.144h1.518v.38h-1.518v1.677h-.714v-3.581h2.321Zm2.414 2.669v-.229l-.714.076V23.24c0 .229.178.457.446.61.179.076.536.152.982.152.983 0 1.519-.305 1.519-.99 0-.381-.179-.686-.536-.838-.09-.076-.268-.153-.536-.229a4.753 4.753 0 0 1-.625-.228c-.268-.153-.447-.305-.447-.534 0-.38.268-.533.715-.533.446 0 .625.076.625.381V21.259h.714v-.077c0-.38-.089-.61-.268-.761-.178-.153-.535-.23-1.071-.23-.447 0-.715.077-.983.153-.267.153-.446.381-.446.762s.179.61.446.762l.536.229.536.228c.179.076.357.152.447.229.178.152.267.305.267.457 0 .305-.178.457-.446.533-.179.076-.268.076-.447.076-.446 0-.625-.152-.714-.38v-.305Zm2.764-2.667h.714V23.011c0 .38.268.533.715.533.446 0 .714-.152.714-.533v-2.819h.804v2.895c0 .152-.09.305-.268.457-.268.229-.625.305-1.161.305s-.982-.076-1.25-.305c-.146-.124-.173-.198-.226-.345a7.29 7.29 0 0 0-.042-.112v-2.819Zm5.182.381c.446 0 .625.152.625.457v.152l-.09.077h.715V20.878c-.089-.457-.536-.686-1.34-.686-.625 0-.982.152-1.25.38a.542.542 0 0 0-.178.382v1.981c0 .533.267.914.893.99.178.076.357.076.535.076.268 0 .447 0 .625-.076a.747.747 0 0 0 .447-.152c.268-.153.357-.305.357-.61v-.381h-.714v.381c0 .305-.268.457-.625.457-.268 0-.536-.076-.625-.228-.09-.076-.09-.305-.09-.534v-1.752c0-.076 0-.152.09-.228.089-.153.267-.229.625-.229Zm4.018.457c0-.305-.178-.457-.625-.457-.357 0-.535.076-.625.229-.089.076-.089.152-.089.228v1.752c0 .229 0 .458.089.534.09.152.357.228.625.228.358 0 .625-.152.625-.457v-.381h.715v.381c0 .305-.089.457-.357.61a.75.75 0 0 1-.447.152c-.178.076-.357.076-.625.076-.179 0-.357 0-.536-.076-.625-.076-.893-.457-.893-.99v-1.981c0-.153.09-.305.179-.381.268-.229.625-.381 1.25-.381.804 0 1.25.229 1.34.686V21.335h-.626V21.106Zm3.664-.84h-2.322v3.505h2.411v-.381h-1.697v-1.22h1.518v-.38h-1.518v-1.143h1.608v-.381Zm1.157 2.44v.229c0 .076 0 .228.089.304.089.229.268.381.715.381.178 0 .267 0 .446-.076.268-.076.447-.228.447-.533 0-.152-.09-.305-.268-.457-.09-.076-.268-.153-.447-.229l-.536-.228-.535-.229c-.268-.152-.447-.38-.447-.762 0-.38.179-.61.447-.762.267-.076.535-.152.982-.152.536 0 .893.076 1.072.229.178.152.267.38.267.761v.077h-.714V21.03c0-.305-.268-.381-.625-.381-.447 0-.715.152-.715.533 0 .229.179.381.447.534.179.076.357.152.625.228.268.076.447.153.536.229.357.152.536.457.536.838 0 .686-.536.99-1.518.99-.447 0-.804-.076-.983-.152-.268-.152-.446-.381-.446-.61V22.782l.625-.076Zm3.305.229v-.229l-.804.076V23.24c0 .229.179.457.447.61.178.076.536.152.982.152.982 0 1.518-.305 1.518-.99 0-.381-.178-.686-.536-.838-.089-.076-.268-.153-.535-.229-.268-.076-.447-.152-.626-.228-.267-.153-.446-.305-.446-.534 0-.38.268-.533.714-.533.358 0 .625.076.625.381V21.259h.715v-.077c0-.38-.089-.61-.268-.761-.179-.153-.536-.23-1.072-.23-.446 0-.714.077-.982.153-.268.153-.446.381-.446.762s.178.61.446.762l.536.229.536.228c.178.076.357.152.446.229.179.152.268.305.268.457 0 .305-.179.457-.446.533-.09.076-.179.076-.358.076-.446 0-.625-.152-.714-.38v-.305Z" clip-rule="evenodd"/></svg>