<svg xmlns="http://www.w3.org/2000/svg" width="92" height="32" fill="none"><g clip-path="url(#a)"><path fill="#00AB55" fill-rule="evenodd" d="M21.587 8.437V.491c0-.367 0-.368.357-.368.812 0 1.623-.002 2.434-.003 1.9-.004 3.8-.008 5.7.01 1.828.017 3.458.59 4.77 1.92 1.825 1.855 2.196 4.908.864 7.035-.57.91-1.371 1.561-2.329 2.031l-.003.002c-.26.128-.262.128-.088.355 1.273 1.663 2.548 3.326 3.826 4.989l.029.037.098.13c.066.09.027.125-.07.126H33.04c-.145 0-.212-.09-.28-.182l-.027-.036a8961.337 8961.337 0 0 1-4.172-5.429l-.114-.147c-.472-.61-.943-1.218-1.408-1.835-.022-.028-.05-.057-.08-.085-.078-.079-.16-.16-.113-.254.04-.082.154-.069.262-.056.04.004.078.009.112.009.4-.004.8-.005 1.2-.007h.001c.495-.002.99-.004 1.486-.01a3.234 3.234 0 0 0 1.184-.243c.999-.404 1.52-1.226 1.496-2.353-.022-.996-.634-1.827-1.597-2.174a4.146 4.146 0 0 0-1.402-.226 498.427 498.427 0 0 0-3.561 0h-.179c-.338 0-.346.009-.346.36v12.2c0 .485-.004.485-.305.476a5.12 5.12 0 0 0-.18-.003c-.69.003-1.38.002-2.07.001h-1.038c-.32 0-.321 0-.321-.328V8.437ZM.814 8.442V.522c0-.397 0-.398.4-.398L3.293.123C5.208.12 7.125.12 9.042.127c1.254.006 2.467.237 3.58.845 1.925 1.05 2.905 2.717 3.075 4.87.11 1.403-.152 2.735-.926 3.933-1.014 1.568-2.515 2.365-4.312 2.678a9.504 9.504 0 0 1-1.558.125.435.435 0 0 1-.378-.188c-.467-.603-.936-1.206-1.405-1.808L6.086 9.254c-.01-.013-.023-.026-.037-.04-.044-.044-.092-.092-.052-.155.034-.057.102-.052.166-.047l.052.002h.697c.663.001 1.327.002 1.99-.003.964-.006 1.795-.323 2.381-1.118 1.136-1.54.273-3.705-1.636-4.13a3.755 3.755 0 0 0-.81-.09c-1.263-.002-2.525-.002-3.787 0-.313 0-.322.01-.322.337V16.384c0 .199 0 .292-.046.335-.041.038-.118.037-.262.036l-.122-.001c-1.035.002-2.071.002-3.107 0-.374 0-.377 0-.377-.371V8.442Zm58.135-.73c-.006-.078-.01-.159.044-.24a.654.654 0 0 1 .191.196c.02.026.039.053.06.078 2.292 2.925 4.58 5.852 6.864 8.781.134.17.274.234.49.234 1.043-.007 2.087-.007 3.13-.006h.843c.024 0 .05.003.077.006.076.009.156.018.187-.039.04-.074-.02-.137-.076-.195a.69.69 0 0 1-.05-.056C66.581 11.095 62.458 5.718 58.338.34a.502.502 0 0 0-.453-.219c-.61.007-1.22.006-1.829.005h-.648c-.35 0-.35 0-.35.35V16.344c0 .206 0 .31.052.361.052.053.157.053.369.053h3.085c.386 0 .386 0 .386-.38-.002-2.866-.002-5.733 0-8.6l-.002-.065ZM84.168.124h7.174c.37 0 .37 0 .37.377v2.898c0 .356 0 .357-.367.357h-4.86c-.359 0-.362.003-.362.368V16.32c0 .437 0 .437-.428.437h-3.131c-.348 0-.349 0-.349-.344V4.193l.001-.12v-.001c.002-.151.003-.23-.036-.272-.043-.045-.134-.045-.324-.044h-4.899c-.337 0-.343-.006-.343-.339V.45c0-.316.009-.325.333-.327l7.222.001ZM47.583 16.357V8.462c-.004-2.679-.001-5.357.008-8.035 0-.238-.073-.307-.307-.307-1.107.008-2.213.008-3.318 0-.219-.001-.303.064-.303.293.004 5.35.003 10.698-.003 16.047 0 .243.086.3.314.3.782-.007 1.564-.006 2.346-.004h.854c.41 0 .41 0 .41-.4Zm22.925-4.99-.141-.178c-.131-.164-.262-.328-.391-.492a6122.79 6122.79 0 0 0-3.118-3.966.804.804 0 0 1-.187-.532c.004-1.374.004-2.748.003-4.122V.476c0-.349.005-.352.352-.352h3.225c.31 0 .324.012.324.311v10.698c0 .048-.004.095-.008.143l-.002.031-.002.033-.055.027ZM5.013 26.139c-.67-.289-1.366-.422-2.157-.416-.488-.013-1.028.055-1.532.287-.538.246-.908.629-.95 1.251-.045.652.22 1.148.774 1.49.289.17.599.301.923.389l.547.154c.215.06.43.12.644.183.174.044.337.123.479.233.247.206.229.511-.043.683a1.15 1.15 0 0 1-.533.155c-.766.066-1.484-.125-2.178-.423-.166-.072-.25-.047-.317.124a8.445 8.445 0 0 1-.338.744c-.09.173-.046.258.124.339a5.513 5.513 0 0 0 2.097.504c.69.033 1.373-.014 1.998-.356a1.583 1.583 0 0 0 .14-2.729 3.191 3.191 0 0 0-.576-.308 9.228 9.228 0 0 0-1.018-.335c-.15-.043-.3-.086-.449-.132a2.44 2.44 0 0 1-.56-.227c-.141-.084-.256-.194-.235-.37.022-.177.146-.268.297-.328.198-.071.408-.107.619-.104a4.36 4.36 0 0 1 1.756.342c.184.076.265.034.332-.14a5.79 5.79 0 0 1 .296-.66c.1-.19.04-.273-.14-.35Zm42.87-.263c-.57-.07-1.143-.06-1.716-.049-.339.006-.678.012-1.016.002-.237-.008-.313.076-.31.309.006.64.005 1.28.004 1.92v3.385c0 .165.021.284.237.28.321-.003.642-.002.963 0 .536.002 1.072.004 1.608-.018.831-.034 1.579-.325 2.124-.98.768-.92.892-1.976.485-3.075-.404-1.085-1.26-1.638-2.38-1.774Zm1.185 2.95c-.034.875-.556 1.47-1.397 1.575-.287.036-.576.03-.865.025-.124-.003-.248-.005-.371-.004-.175 0-.2-.108-.2-.248V28.304c.002-.311.003-.623 0-.934-.002-.18.066-.254.247-.247.148.006.297.004.445.002.287-.005.574-.01.86.048.81.166 1.314.814 1.28 1.653Zm21.8-.061c-.002-1.75 1.394-3.132 3.16-3.127 1.765.005 3.142 1.371 3.142 3.117 0 1.76-1.38 3.126-3.155 3.126-1.756-.001-3.147-1.377-3.147-3.116Zm1.389-.01c-.002 1.007.794 1.829 1.767 1.829.967-.002 1.75-.808 1.76-1.811.011-1.011-.772-1.83-1.753-1.834-.982-.003-1.772.808-1.774 1.815Zm19.133 1.03c-.1-.632-.53-.982-1.059-1.245-.393-.194-.813-.314-1.233-.433l-.314-.091-.024-.007c-.23-.069-.462-.138-.67-.264-.13-.081-.233-.182-.218-.356.015-.174.126-.262.267-.324.204-.08.421-.12.64-.117.61-.008 1.215.11 1.776.348.159.065.24.04.303-.12.089-.233.19-.461.305-.683.098-.187.047-.274-.135-.353a5.1 5.1 0 0 0-2.093-.417c-.647-.007-1.277.073-1.842.42-.565.348-.797.892-.685 1.538.093.537.417.888.88 1.139.413.223.862.341 1.31.46.116.03.232.061.347.094l.021.006c.227.063.453.126.659.24.178.1.323.23.3.458-.022.228-.186.327-.38.397-.255.09-.52.093-.786.085a4.715 4.715 0 0 1-1.736-.428c-.19-.084-.28-.044-.35.143-.057.151-.126.297-.194.444-.034.072-.069.145-.101.218-.128.286-.128.288.15.416a5.53 5.53 0 0 0 2.383.494c.567-.003 1.122-.078 1.63-.346.657-.348.966-.983.85-1.717Zm-56.997-3.966c.132.001.263.003.394-.004.2-.011.277.056.269.263-.009.376-.007.751-.006 1.127l.002.44c0 .158 0 .316.002.475.002.316.004.633-.003.95-.037 1.79-1.315 2.94-3.101 2.8-1.56-.12-2.566-1.173-2.594-2.738a85.234 85.234 0 0 1-.007-1.81c.001-.417.003-.835 0-1.252-.002-.192.064-.265.256-.258.287.011.576.014.864 0 .22-.01.28.081.28.288-.005.86-.002 1.72 0 2.58v.271c-.003.14.006.282.029.42.15.798.739 1.266 1.52 1.219.766-.046 1.33-.618 1.352-1.435.018-.647.015-1.295.013-1.942-.002-.303-.003-.606-.002-.91V26.2c0-.198 0-.294.047-.34.045-.044.133-.044.304-.043h.144c.08 0 .158 0 .237.002Zm-14.723.01c-.56.006-1.121.005-1.682.004H16.485c-.534 0-1.069.002-1.603 0-.187 0-.272.058-.264.255.011.264.01.53 0 .794-.006.18.066.251.246.249.29-.005.581-.003.872-.002h.001l.436.002c.419 0 .42 0 .42.417l.001 1.003c.001.966.002 1.932-.004 2.897 0 .214.07.291.28.28a7.86 7.86 0 0 1 .479-.004c.097.001.195.003.292.002.345 0 .346 0 .347-.354v-1.045c.001-.967.002-1.934-.004-2.901 0-.22.065-.305.292-.299.287.008.575.006.863.005.195-.001.39-.002.586 0 .165 0 .242-.056.236-.232a8.68 8.68 0 0 1 0-.77c.015-.228-.065-.305-.29-.302Zm41.7 2.234.001.726v.688c-.002.65-.003 1.299.005 1.951.002.22-.061.31-.29.298a7.373 7.373 0 0 0-.817 0c-.224.012-.296-.074-.296-.296.006-.938.005-1.877.004-2.816v-1.456c.002-.351.003-.702-.003-1.053-.003-.199.067-.283.271-.276.288.01.577.012.864 0 .206-.009.265.075.265.275-.005.653-.004 1.306-.004 1.96Z" clip-rule="evenodd"/></g><defs><clipPath id="a"><path fill="#fff" d="M.286.001h91.429v32H.285z"/></clipPath></defs></svg>