<svg width="102" height="28" fill="none" xmlns="http://www.w3.org/2000/svg"><path d="M18.32 0H2.792A1.86 1.86 0 0 0 .93 1.86v24.28A1.861 1.861 0 0 0 2.79 28H18.32a1.86 1.86 0 0 0 1.866-1.86V1.86A1.862 1.862 0 0 0 18.32 0Zm-1.402 14.937a4.694 4.694 0 0 1-.924 2.797l-2.49 3.358 2.887 2.672a.416.416 0 0 1-.282.719H12.47a.83.83 0 0 1-.563-.217l-.447-.414-.359-.332-.543-.508-1.362-1.251a.416.416 0 0 1-.052-.552l3.86-5.202a3.317 3.317 0 0 0 .652-1.979V9.654c0-1.405-.54-2.006-.742-2.166-.235-.182-.732-.617-2.356-.617-1.623 0-2.123.435-2.358.617-.206.161-.745.761-.745 2.166v4.634a2.761 2.761 0 0 0 .886 2.027l1.294 1.198a.417.417 0 0 1 .053.555L8.139 20.15a.416.416 0 0 1-.613.058L5.7 18.518a4.696 4.696 0 0 1-1.506-3.446V8.25c0-1.963.596-2.85 1.281-3.452.777-.683 2.166-1.283 5.08-1.283 2.915 0 4.304.6 5.08 1.283.687.603 1.283 1.49 1.283 3.452v6.686ZM99.499 14.878v9.337l-4.442-8.062c-.538-.96-.909-1.272-1.61-1.272-.7 0-1.194.484-1.194 1.45V26.614h1.57v-9.337l4.437 8.062c.538.96.909 1.273 1.61 1.273.699 0 1.195-.484 1.195-1.451V14.878h-1.566ZM68.208 14.884h-2.151l-4.328 4.622V14.89h-1.57v11.744h1.57v-4.832l.463-.494 3.984 5.32h2.036l-4.935-6.478 4.931-5.266ZM84.563 15.588c-.875-.575-1.876-.704-2.862-.704h-2.892v11.744h1.627V22.5h1.265c.986 0 1.987-.132 2.862-.704.874-.573 1.596-1.555 1.596-3.103 0-1.549-.728-2.533-1.596-3.105Zm-.834 4.902c-.436.346-1.114.56-2.028.56h-1.265v-4.716h1.265c.914 0 1.592.214 2.028.56a2.28 2.28 0 0 1 0 3.596ZM33.152 25.246c.206-.259.383-.54.528-.836.423-.872.42-1.873.42-2.535v-2.31c0-.66 0-1.663-.42-2.535-.75-1.546-2.092-2.321-3.684-2.324h-.02c-1.59 0-2.931.778-3.682 2.324-.423.872-.42 1.873-.419 2.535v2.31c0 .66 0 1.663.42 2.535.751 1.548 2.096 2.324 3.692 2.324a4.183 4.183 0 0 0 1.792-.384L33.043 28h2.225l-2.116-2.754Zm-.63-3.303c0 .536.007 1.27-.264 1.822-.283.583-.96 1.465-2.28 1.465-1.32 0-1.994-.882-2.275-1.465-.281-.583-.264-1.415-.264-1.952v-2.186c0-.537-.02-1.37.264-1.952.285-.583.96-1.466 2.28-1.466 1.32 0 1.997.883 2.28 1.466.284.583.264 1.415.264 1.952v2.316h-.005ZM53.53 16.785c1.073-.81 2.298-.895 4.19-.454v-1.085s-.937-.54-2.423-.54c-1.487 0-2.353.384-3.043.998-.791.7-1.391 1.82-1.567 3.561-.052.498-.076.998-.07 1.498-.006.5.018 1 .07 1.497.176 1.737.781 2.857 1.567 3.561.69.613 1.546.997 3.043.997s2.422-.54 2.422-.54V25.19c-1.89.44-3.116.357-4.19-.452-1.094-.824-1.312-2.36-1.318-3.974-.007-1.613.224-3.154 1.319-3.979ZM74.203 16.079c.801.033 1.6.115 2.39.247V15.06a10.438 10.438 0 0 0-3.173-.343 9.28 9.28 0 0 0-1.846.255c-.863.222-1.342.632-1.61 1.037a1.934 1.934 0 0 0-.2 1.739c.019.051.038.103.06.155.304.784.766 1.384 1.42 2.093.702.76 2.158 2.12 2.77 2.85.38.468.83 1.092.606 1.63-.245.59-1.319.999-2.602.962-.8-.038-1.598-.122-2.39-.25v1.259s.995.438 3.172.35c2.178-.087 3.043-.67 3.454-1.292.206-.346.322-.737.337-1.14v-.032a1.741 1.741 0 0 0-.008-.202c-.032-.603-.156-1.055-.924-1.944-.86-.992-2.405-2.456-3.1-3.179l-.191-.2c-.51-.546-1.067-1.227-.807-1.875.274-.68 1.487-.879 2.642-.855ZM48.47 14.884h-1.628v11.744h1.627V14.884ZM89.804 14.866h-1.628V26.61h1.628V14.866ZM37.878 14.884h-1.571v7.697c0 1.376.464 4.22 3.995 4.22 3.53 0 3.996-2.849 3.996-4.22v-7.697h-1.571v7.697c0 2.454-1.68 2.762-2.425 2.762-.745 0-2.424-.308-2.424-2.762v-7.697Z" fill="#919EAB"/></svg>