<svg width="88" height="30" fill="none" xmlns="http://www.w3.org/2000/svg"><g clip-path="url(#a)"><path fill-rule="evenodd" clip-rule="evenodd" d="M10.478 12.55c.004-.404.009-.807.009-1.21-.024-.01-.046-.017-.066-.024a.755.755 0 0 1-.089-.035c-.071.093-.13.186-.19.29a134.215 134.215 0 0 1-6.359 10.545c-.416.616-.368 1.01.06 1.568 4.682 6.155 13.751 7.723 20.312 3.495 7.453-4.807 9.093-14.655 3.577-21.519C23.074-.135 14.516-1.702 8.11 2.223 2.915 5.405.54 10.12.883 16.113c.06.975.226 1.962.606 2.914.028-.017.05-.03.07-.04.045-.027.068-.04.085-.064a142.07 142.07 0 0 0 5.871-8.861C8.715 8.076 9.833 6.055 10.891 4c.416-.86 1.224-1.138 1.949-.697.594.348.725.94.665 1.568-.154 1.637-.285 3.275-.332 4.924-.084 3.042-.095 6.085.416 9.093.142.836.344 1.66.76 2.427.203.383.452.43.797.15.416-.336.76-.742 1.07-1.16 1.556-2.114 2.757-4.437 3.898-6.771.4-.823.78-1.663 1.158-2.504.172-.382.344-.763.518-1.142.214-.477.582-.767 1.13-.813.558-.058.95.209 1.247.627.189.28.208.608.226.932.006.105.012.208.024.31.297 2.404.772 4.773 1.89 6.968.237.465.522.906.843 1.324l.005.006c.153.184.326.391.09.61-.231.216-.404.065-.567-.078a2.59 2.59 0 0 0-.086-.073 3.915 3.915 0 0 1-.393-.36c-1.378-1.382-2.281-3.055-3.078-4.797-.015-.034-.028-.071-.04-.109-.047-.138-.097-.285-.293-.367-.856 1.824-1.759 3.612-2.793 5.319l-.11.18c-.89 1.463-1.79 2.942-3.194 4.024-.749.58-1.593.86-2.555.65-1.355-.29-2.045-1.265-2.508-2.415-.856-2.102-1.023-4.332-1.13-6.55a48.194 48.194 0 0 1-.02-2.726Zm24.769.836-.002.056c0 1.103.071 2.113.333 3.089.356 1.254 1.069 2.172 2.448 2.485.938.22.939.232 1.01 1.205v.003c.072.906.464 1.277 1.391 1.3h.95c.262 0 .345-.139.345-.371 0-.232-.083-.383-.332-.395h-.357c-1.105 0-1.248-.162-1.212-1.254.011-.267.071-.395.38-.441 1.521-.233 2.365-1.173 2.722-2.567.463-1.835.463-3.681.06-5.516-.404-1.788-1.332-2.683-3.044-2.857-2.721-.279-4.017.79-4.492 3.112-.15.735-.177 1.49-.2 2.152Zm7.108-.633c.015.28.03.556.057.828-.01.163-.017.326-.024.488-.04.91-.08 1.798-.404 2.636-.464 1.196-1.343 1.765-2.77 1.765-1.39 0-2.33-.592-2.71-1.823-.57-1.846-.546-3.74-.13-5.609.38-1.707 1.355-2.346 3.114-2.276 1.51.058 2.437.929 2.734 2.555.082.481.108.963.133 1.436Zm19.395.851V8.843l-.003-.108c-.009-.248-.018-.496.407-.496.432 0 .43.263.428.533v5.053c0 .048-.008.102-.016.156-.025.167-.051.343.146.413.192.073.366-.088.51-.223l.049-.044c.92-.749 1.839-1.517 2.75-2.278l.001-.002.233-.194.041-.034c.212-.176.43-.358.743-.314a.705.705 0 0 0 .158-.004c.132-.012.263-.024.305.132.051.16-.092.269-.216.363l-.057.043c-.331.27-.66.54-.988.81-.308.252-.615.505-.926.758-.13.106-.258.214-.386.322a11.94 11.94 0 0 1-.898.711c-.403.279-.308.465.013.732 1.159.995 2.294 2.012 3.429 3.03l.053.047c.04.037.094.075.149.113.189.134.404.285.22.491-.214.244-.642.186-.927-.023-.345-.264-.66-.549-.981-.839l-.268-.24-1.245-1.106c-.447-.398-.895-.796-1.346-1.194a1.938 1.938 0 0 1-.071-.068c-.108-.107-.223-.22-.369-.153-.15.064-.137.214-.125.36.004.04.007.08.007.116v2.613c0 .033 0 .067.002.1.007.274.014.55-.442.55-.42-.01-.407-.26-.396-.5.002-.04.004-.078.004-.115 0-.79.003-1.582.006-2.375.003-.792.006-1.585.006-2.375Zm22.276 1.733.735-.002H86.9c.25 0 .5 0 .5-.337 0-.154.004-.309.009-.464.013-.442.027-.886-.069-1.325-.261-1.242-1.01-1.893-2.318-2.02a5.237 5.237 0 0 0-1.129 0c-1.118.127-1.878.685-2.223 1.73-.463 1.394-.44 2.822.012 4.216.369 1.15 1.236 1.765 2.425 1.95.927.152 1.854.07 2.77-.092.285-.047.44-.174.391-.465-.041-.274-.246-.255-.432-.238a12.947 12.947 0 0 0-.69.07c-.288.034-.577.069-.863.075-1.89.047-2.935-.87-3.102-2.694-.036-.325.071-.406.38-.406.491.007.977.005 1.464.002Zm2.172-.664h-1.842c-.197 0-.395-.003-.593-.005-.397-.006-.793-.01-1.19.005-.356.011-.451-.128-.391-.442.017-.092.032-.188.047-.284.015-.096.03-.192.047-.285.238-1.417 1.189-2.032 2.699-1.788 1.14.186 1.818 1.242 1.628 2.508-.036.28-.19.29-.404.29Zm-36.5 3.67c-.796 1.068-3.78.929-4.505.301-.488-.418-.678-.952-.678-1.544-.005-.877-.005-1.757-.005-2.638 0-.88 0-1.764-.006-2.646 0-.314.07-.523.451-.511.366.01.362.24.357.464v5.11c0 .976.404 1.405 1.39 1.533.143.023.274.035.416.047 1.997.093 2.568-.453 2.58-2.393v-4.18l-.001-.073c-.004-.266-.007-.52.428-.52.398.011.395.252.393.5V18.4c0 .03 0 .06.002.092.008.21.017.435-.335.465-.404.058-.523-.14-.487-.615Zm5.455-5.795c-.38.766-.44 1.59-.451 2.427-.012.662.059 1.312.25 1.95.356 1.255 1.2 1.975 2.507 2.16.88.128 1.771.07 2.65-.092.286-.047.523-.116.453-.465-.066-.32-.313-.277-.519-.24a5.185 5.185 0 0 1-.052.008c-.69.105-1.367.186-2.069.116-1.117-.104-1.865-.708-2.187-1.753-.284-.941-.284-1.905-.118-2.869.273-1.602 1.13-2.171 2.77-1.893.938.163 1.366.627 1.414 1.568l.002.023c.023.235.044.453.366.453.345.012.416-.209.416-.5.023-1.149-.523-1.869-1.664-2.16a4.368 4.368 0 0 0-2.223.012c-.713.186-1.224.604-1.545 1.255Zm14.82 2.193v-.002c-.002-.728-.004-1.457.014-2.192.012-.406-.072-.592-.547-.58-.057.002-.123.013-.193.024-.284.047-.627.104-.627-.361 0-.442.309-.393.587-.35.088.014.173.027.245.025.404-.012.558-.117.535-.523-.084-2.265.618-2.59 2.947-2.555.167 0 .333.012.38.198.06.243.036.476-.296.522-.098.017-.203.015-.31.013a5.22 5.22 0 0 0-.106-.001c-1.617.023-1.938.371-1.831 1.962.024.314.143.395.428.384a20.3 20.3 0 0 1 1.189 0l.11-.003c.24-.01.504-.02.483.35-.02.342-.257.34-.495.337h-.135c-.173.008-.342.006-.512.003a17.046 17.046 0 0 0-.26-.002l-.242.001c-.297 0-.441 0-.51.073-.064.068-.062.199-.058.453l.002.24v5.794c0 .267-.095.43-.416.43-.345 0-.392-.198-.392-.453.012-1.022.012-2.056.012-3.078l-.002-.708v-.001Zm10.699-3.587c-1.034-.047-2.02.035-2.805.998-.017-.13-.028-.203-.037-.263v-.003l-.006-.038-.005-.032c.024-.314-.071-.523-.451-.511-.359.01-.352.23-.346.45l.001.084v2.035c0 1.532 0 3.053-.012 4.585 0 .394.119.603.547.499.295-.077.28-.298.267-.503-.003-.043-.006-.085-.006-.124.004-.454.004-.908.004-1.361.001-1.079.002-2.156.044-3.226.035-1.01.547-1.545 1.474-1.8.428-.117.868-.093 1.295-.059.321.024.428-.116.452-.394.034-.316-.173-.326-.376-.335l-.04-.002Zm-5.099 4.018V18.446c0 .27 0 .524-.404.535-.417.011-.416-.252-.416-.523v-.023c0-.501 0-1.003-.002-1.504-.002-1.472-.004-2.943.014-4.407 0-.383-.084-.58-.523-.534-.25.035-.5-.011-.511-.337-.012-.35.253-.35.502-.348h.491c.444-.004.659-.006.76.1.094.1.09.292.082.665-.002.123-.005.266-.005.431.018.675.016 1.35.013 2.02v.651Zm-22.06 3.287v-3.31c0-.29.003-.58.005-.869v-.001c.006-.582.011-1.166-.005-1.755-.006-.25 0-.45.004-.61.007-.29.011-.447-.064-.53-.088-.097-.284-.095-.706-.09-.161 0-.355.002-.59 0-.225 0-.45 0-.462.313-.024.325.19.406.451.371.523-.08.559.198.559.604a316.692 316.692 0 0 0-.014 4.378v.002l.002 1.485c0 .313.06.546.452.534.37 0 .37-.239.368-.48v-.043Zm22.31-9.616c-.06.418-.286.72-.761.731-.476.012-.737-.244-.773-.697-.035-.418.345-.824.761-.79.451.036.701.303.772.756Zm-22.833.72c.475 0 .725-.255.772-.685-.011-.488-.284-.732-.737-.801-.404-.047-.831.348-.796.755.036.44.286.731.761.731Z" fill="#00AB55"/></g><defs><clipPath id="a"><path fill="#fff" transform="translate(.154)" d="M0 0h87.692v30H0z"/></clipPath></defs></svg>