<svg width="130" height="24" viewBox="0 0 130 24" fill="none" xmlns="http://www.w3.org/2000/svg">
<path fill-rule="evenodd" clip-rule="evenodd" d="M18.3975 7.96163C18.3982 7.93585 18.3988 7.91019 18.3997 7.88472C18.3917 7.41807 18.2588 7.45825 17.6985 7.66963C17.4189 7.77032 17.1751 7.95058 16.9967 8.1882C17.0202 8.52815 17.4585 9.01582 17.8154 8.899C18.378 8.71485 18.3881 8.32636 18.3975 7.96163ZM7.46987 7.9616C7.47933 8.32627 7.4894 8.71427 8.052 8.899L8.0514 8.89962C8.40824 9.01644 8.84623 8.53063 8.87035 8.18883C8.69229 7.9512 8.44831 7.77092 8.16886 7.67025C7.60794 7.45825 7.47572 7.41807 7.46768 7.88472C7.46854 7.91018 7.4692 7.93583 7.46987 7.9616ZM22.6862 19.4751C22.4003 19.7662 22.0653 20.0047 21.6966 20.1798L21.7042 20.1822C21.6741 20.1945 21.6409 20.1974 21.6091 20.1904C21.5773 20.1834 21.5485 20.1669 21.5263 20.1431C21.5042 20.1192 21.4896 20.0892 21.485 20.057C21.4803 20.0248 21.4856 19.9919 21.5001 19.9628C21.598 19.7631 21.6978 19.5641 21.7976 19.3652C22.1337 18.695 22.4699 18.0247 22.7369 17.3279C23.0079 16.6187 23.2095 15.8832 23.411 15.148C23.4716 14.9266 23.5323 14.7053 23.5948 14.4847C23.6033 14.4568 23.6037 14.4271 23.5964 14.3988C23.589 14.3706 23.5741 14.3449 23.5532 14.3246C23.5322 14.3043 23.5061 14.2902 23.4777 14.2837C23.4492 14.2773 23.4196 14.2788 23.3919 14.2881C23.2493 14.3374 23.0722 14.407 22.9057 14.4725C22.8382 14.499 22.7725 14.5248 22.7116 14.5483C22.6838 14.5588 22.6537 14.5613 22.6246 14.5556C22.5955 14.5499 22.5685 14.5362 22.5467 14.5161C22.5249 14.496 22.5091 14.4702 22.5011 14.4416C22.4931 14.413 22.4932 14.3828 22.5014 14.3543C22.7692 13.4333 23.6386 10.7391 23.6386 10.7391C23.5867 10.7984 23.0778 11.5401 23.0413 11.6087C22.633 12.2663 22.2741 12.9535 21.9681 13.6645C21.8472 13.9826 21.7401 14.2259 21.6725 14.3793C21.6603 14.4071 21.6494 14.432 21.6399 14.4538C21.6215 14.481 21.6126 14.5136 21.6151 14.5464C21.6176 14.5791 21.6312 14.6101 21.6535 14.6343C22.3758 15.2462 21.7939 16.4131 21.4847 16.7766C21.0621 17.2849 20.7576 17.8807 20.5929 18.5208C20.5651 18.6055 20.5318 18.713 20.4951 18.8314C20.4748 18.897 20.4534 18.966 20.4314 19.0363C20.4183 19.0717 20.3933 19.1013 20.3604 19.1199C20.3276 19.1385 20.2891 19.1448 20.252 19.1378C20.2149 19.1307 20.1815 19.1108 20.1578 19.0814C20.134 19.0521 20.1213 19.0153 20.1222 18.9776C20.1772 18.1543 20.3226 17.0355 20.5947 16.7796C21.0116 16.3853 20.9256 15.0255 20.4549 14.7838C20.0171 14.5595 19.9201 14.3203 20.1409 13.9358C20.1518 13.9173 20.1587 13.8968 20.1617 13.8754C20.1647 13.8541 20.1635 13.8324 20.1581 13.8116C20.1527 13.7908 20.1433 13.7712 20.1303 13.754C20.1173 13.7368 20.1012 13.7224 20.0826 13.7115L18.0715 12.5612C18.0425 12.5448 18.0192 12.5199 18.005 12.4897C17.9908 12.4596 17.9865 12.4259 17.9923 12.3931C17.9982 12.3603 18.0139 12.3302 18.0376 12.3068C18.0614 12.2834 18.0917 12.268 18.1246 12.2627C18.8221 12.199 19.5176 12.4035 20.0696 12.8344C20.1843 12.9022 20.3128 12.9432 20.4456 12.9545C20.5783 12.9657 20.7119 12.9469 20.8363 12.8993C20.9608 12.8518 21.0729 12.7768 21.1643 12.6799C21.2557 12.5831 21.324 12.4669 21.3642 12.3399C21.4067 12.238 21.4421 12.1333 21.4705 12.0265C21.494 11.9369 21.4148 11.8627 21.3282 11.8411C20.3369 11.5933 20.191 11.5432 20.1415 11.2434C20.138 11.2207 20.1394 11.1974 20.1457 11.1753C20.152 11.1532 20.1628 11.1326 20.1777 11.1151C20.1926 11.0975 20.2113 11.0833 20.2321 11.0735C20.2529 11.0636 20.2755 11.0584 20.2985 11.058C20.6432 11.108 20.995 11.0654 21.3177 10.9344C21.5085 10.7393 21.633 10.4891 21.6734 10.2193C21.6818 10.1902 21.6818 10.1594 21.6734 10.1304C21.665 10.1013 21.6486 10.0752 21.626 10.0551C21.6034 10.035 21.5755 10.0217 21.5457 10.0167C21.5158 10.0118 21.4854 10.0153 21.4575 10.027C21.1074 10.1754 21.0126 10.1704 20.8209 10.0233C20.8037 10.0098 20.7896 9.99303 20.7789 9.97392C20.7683 9.95482 20.7617 9.93379 20.7593 9.91206C20.7566 9.89005 20.7582 9.86773 20.7645 9.84647C20.7707 9.82521 20.7813 9.80544 20.7956 9.78843C20.8387 9.73406 20.8879 9.68454 20.9417 9.64072C21.6671 9.07516 22.781 5.95134 22.7439 5.02915C23.0352 5.2781 23.2527 5.6019 23.3732 5.96555C23.4524 5.93321 23.5296 5.90317 23.6043 5.8741C24.2524 5.62198 24.7128 5.44289 24.6152 4.47472L23.7667 4.91356C23.7667 4.91356 23.7216 4.58536 24.1768 4.20523C25.1533 3.39059 25.3009 2.30584 25.3318 1.12776C25.3485 0.936549 25.3118 0.744465 25.2258 0.572864C25.1398 0.401262 25.0079 0.25687 24.8447 0.155736C24.6815 0.054603 24.4932 0.000701211 24.3012 6.79406e-06C24.1091 -0.000687623 23.9207 0.0518626 23.7567 0.151813C21.8593 1.04372 19.2519 1.93809 17.0973 1.6618L17.0263 1.64696L17.02 1.64326L17.0251 1.64635C15.6842 1.36986 14.3192 1.22494 12.95 1.21368H12.9385C11.5694 1.22496 10.2044 1.36988 8.8634 1.64635L8.86853 1.64326L8.86159 1.64696L8.79123 1.6618C6.63596 1.93809 4.0255 1.04186 2.13122 0.151813C1.96727 0.0520348 1.77871 -0.000378663 1.58676 0.000402909C1.39481 0.00118448 1.20694 0.0551168 1.04381 0.156227C0.880688 0.257337 0.748728 0.401662 0.662722 0.573166C0.576715 0.74467 0.540156 0.936641 0.556729 1.12776C0.587651 2.30584 0.735272 3.38997 1.71117 4.20523C2.16634 4.58536 2.12185 4.91356 2.12185 4.91356L1.27331 4.47472C1.17569 5.44317 1.63587 5.62209 2.28462 5.87432C2.35921 5.90332 2.4363 5.93329 2.51533 5.96555C2.63586 5.6019 2.8533 5.2781 3.14464 5.02915C3.10753 5.95134 4.22198 9.07516 4.94742 9.64072C5.00117 9.68445 5.05013 9.73398 5.09297 9.78843C5.10691 9.80543 5.11725 9.82507 5.12347 9.84615C5.12969 9.86723 5.13168 9.88935 5.1292 9.91119C5.12672 9.93303 5.11976 9.95415 5.10897 9.9733C5.09818 9.99246 5.08379 10.0093 5.06639 10.0227C4.87468 10.1698 4.77924 10.1747 4.43044 10.0264C4.40253 10.0148 4.37208 10.0113 4.34226 10.0163C4.31245 10.0213 4.28454 10.0346 4.26194 10.0547C4.23934 10.0747 4.223 10.1007 4.21453 10.1297C4.20606 10.1588 4.20567 10.1896 4.21392 10.2186C4.2542 10.4886 4.379 10.7389 4.57025 10.9338C4.89274 11.0647 5.24432 11.1074 5.58881 11.0574C5.61186 11.0576 5.63468 11.0628 5.65554 11.0727C5.67641 11.0825 5.695 11.0966 5.7099 11.1142C5.7248 11.1318 5.73567 11.1524 5.74191 11.1746C5.74815 11.1968 5.74938 11.22 5.74583 11.2428C5.69636 11.5426 5.54798 11.5933 4.55847 11.8405C4.47189 11.8652 4.39274 11.9388 4.41625 12.0259C4.44457 12.1327 4.48003 12.2374 4.52254 12.3393C4.56262 12.4663 4.63107 12.5826 4.72245 12.6795C4.81382 12.7765 4.92592 12.8515 5.05039 12.8991C5.17485 12.9466 5.30837 12.9654 5.44114 12.9541C5.57391 12.9428 5.70248 12.9017 5.8171 12.8338C6.3691 12.4029 7.06462 12.1985 7.76211 12.262C7.79502 12.2673 7.82558 12.2827 7.84938 12.306C7.87317 12.3293 7.88906 12.3594 7.89497 12.3922C7.90088 12.425 7.89645 12.4588 7.88229 12.489C7.86813 12.5191 7.84486 12.5442 7.81586 12.5606L5.80472 13.7108C5.78609 13.7217 5.76972 13.7361 5.7567 13.7533C5.74368 13.7705 5.73433 13.7901 5.72892 13.8109C5.72352 13.8318 5.72226 13.8535 5.7253 13.8748C5.72834 13.8962 5.73542 13.9167 5.74644 13.9352C5.96722 14.319 5.86902 14.5582 5.43178 14.7832C4.96177 15.0255 4.87327 16.3847 5.29257 16.779C5.56468 17.0349 5.71013 18.1531 5.76455 18.977C5.76539 19.0147 5.75268 19.0515 5.72892 19.0808C5.70517 19.1102 5.6718 19.1301 5.63471 19.1372C5.59761 19.1442 5.55916 19.1379 5.5263 19.1193C5.49343 19.1007 5.4684 19.0711 5.45533 19.0357C5.43331 18.9655 5.41198 18.8965 5.39168 18.8309C5.35497 18.7123 5.32165 18.6046 5.29378 18.5202C5.12953 17.8799 4.82498 17.2841 4.40205 16.7759C4.09592 16.4125 3.51151 15.2456 4.23385 14.6336C4.28704 14.5885 4.27591 14.515 4.24684 14.4532C4.18252 14.311 4.06363 14.0397 3.91829 13.6639C3.61266 12.9527 3.25407 12.2655 2.84538 11.6081C2.80951 11.542 2.30065 10.8003 2.24808 10.7384C2.24808 10.7384 3.11813 13.4327 3.38591 14.3536C3.39419 14.3822 3.39423 14.4125 3.38622 14.4412C3.3782 14.4699 3.36252 14.4957 3.34062 14.5159C3.31871 14.536 3.29164 14.5497 3.26241 14.5553C3.23317 14.561 3.20296 14.5583 3.17514 14.5477C3.11425 14.5242 3.04865 14.4985 2.98131 14.472C2.81472 14.4065 2.63749 14.3368 2.49479 14.2875C2.46715 14.2784 2.43768 14.2771 2.40933 14.2836C2.38098 14.2901 2.35473 14.3043 2.33384 14.3245C2.31295 14.3448 2.29806 14.3703 2.29066 14.3984C2.28326 14.4266 2.28365 14.4562 2.29187 14.4841C2.35356 14.7019 2.41346 14.9204 2.47335 15.139C2.67581 15.8776 2.87821 16.6161 3.14977 17.3273C3.41734 18.0272 3.75493 18.6996 4.09257 19.3722C4.19117 19.5686 4.28978 19.7651 4.38665 19.9622C4.40078 19.9913 4.40565 20.0241 4.40084 20.0561C4.39604 20.0881 4.38184 20.118 4.35978 20.1417C4.33771 20.1654 4.30895 20.1819 4.27734 20.189C4.24572 20.1962 4.21263 20.1936 4.18252 20.1816C3.81386 20.0063 3.47886 19.7676 3.19295 19.4764C1.78724 17.9763 1.514 16.2481 1.34578 14.248C1.31965 13.9379 1.31234 13.6262 1.30496 13.312C1.29994 13.0983 1.2949 12.8833 1.28388 12.6669C1.28361 12.661 1.2833 12.6537 1.28293 12.6451C1.27819 12.5339 1.26454 12.2144 1.22952 12.2144C1.11935 12.3356 1.03199 12.4757 0.97164 12.6279C0.799145 13.0939 0.689329 13.5807 0.645509 14.0755C0.484213 15.0483 0.456463 16.0385 0.562769 17.0189C0.610511 17.3602 0.72394 17.6891 0.896751 17.9874C1.44181 18.9004 2.02335 19.772 2.60792 20.6481C2.9652 21.1836 3.32361 21.7208 3.67551 22.2701C3.72767 22.3513 3.77062 22.2711 3.8091 22.1993C3.8272 22.1655 3.8443 22.1336 3.86092 22.1212L3.9352 22.0464C4.14362 21.932 4.22755 21.9184 4.32897 21.9883C4.33953 22.0094 4.35047 22.0305 4.36141 22.0516C4.38253 22.0923 4.40365 22.133 4.42198 22.1737C4.63967 22.6546 5.03162 23.4247 5.30435 23.9192C5.32184 23.9499 5.34908 23.9739 5.38165 23.9875C5.41423 24.0012 5.45018 24.0037 5.48432 23.9947C5.51847 23.9857 5.54882 23.9656 5.57039 23.9376C5.59195 23.9097 5.60356 23.8754 5.6036 23.8401C5.60348 23.7874 5.60336 23.7347 5.60323 23.682C5.60202 23.1827 5.60082 22.6835 5.60753 22.1842C5.60767 22.1745 5.6078 22.1648 5.60793 22.155C5.61239 21.8167 5.61763 21.4203 6.08163 21.4203C6.54731 21.4215 6.56163 21.8263 6.5672 22.1799V23.1954C6.56685 23.2244 6.57442 23.253 6.58894 23.2781C6.60347 23.3032 6.62432 23.3239 6.64964 23.3381C6.67496 23.3523 6.70367 23.3593 6.73268 23.3586C6.76169 23.3579 6.78995 23.3493 6.81451 23.3339C7.20654 23.0387 7.63952 22.8022 8.09971 22.6317C8.46581 22.4852 8.86247 22.4312 9.25446 22.4743C9.64644 22.5174 10.0215 22.6564 10.347 22.879L10.2464 22.7881C9.96913 22.5364 9.63538 22.3545 9.27348 22.2578C8.91158 22.161 8.53188 22.1521 8.16584 22.2318C7.96283 22.2759 7.75483 22.2925 7.5474 22.2813C7.52258 22.2796 7.49851 22.2723 7.47704 22.2597C7.45557 22.2471 7.43748 22.2298 7.4239 22.2089C7.41031 22.1879 7.40162 22.164 7.39883 22.1391C7.39604 22.1142 7.399 22.0891 7.40759 22.0655C7.69578 21.2997 8.59696 18.493 6.74597 17.5399C6.72192 17.5283 6.70102 17.5109 6.68527 17.4894C6.66952 17.4678 6.65941 17.4427 6.65568 17.4163C6.6476 17.3528 6.62626 17.2634 6.59982 17.1526C6.41166 16.364 5.96538 14.4935 8.2054 13.2188C8.37835 13.3722 8.56856 13.6139 8.77946 13.8819C9.058 14.2357 9.37263 14.6355 9.73127 14.9384C8.73923 15.1519 8.16307 14.6389 7.66721 14.1975C7.60759 14.1444 7.54912 14.0924 7.49124 14.0428C7.66074 15.0383 8.29719 15.3249 8.94751 15.6178C9.14424 15.7064 9.34223 15.7955 9.52895 15.9051C9.21355 15.7695 8.89869 15.7788 8.57153 15.7884C8.17957 15.8 7.76996 15.8121 7.32062 15.5762C7.67345 16.2522 8.23158 16.3301 8.77889 16.4064C9.15543 16.459 9.52685 16.5108 9.82277 16.7562C9.26293 17.1158 8.74025 17.0304 8.22664 16.9465C8.09856 16.9256 7.97103 16.9047 7.84364 16.8909C7.66364 16.8665 7.48075 16.8733 7.30311 16.9113C7.453 17.1287 7.62678 17.3285 7.82129 17.5071C8.0682 17.6933 8.34782 17.8317 8.64568 17.9151C8.94912 18.0106 9.27342 18.0192 9.58149 17.9398C10.4925 17.6549 11.3879 17.3155 12.2772 16.9657C12.3626 16.9249 12.4383 16.8663 12.4992 16.7938C12.56 16.7213 12.6046 16.6366 12.6299 16.5454C12.6614 16.3818 12.6539 16.2114 12.6463 16.0405C12.6405 15.9092 12.6347 15.7777 12.6465 15.6485C12.6806 15.4667 12.6409 15.2788 12.5366 15.126C12.4323 14.9732 12.2718 14.8679 12.09 14.8333C11.2527 14.6013 10.5177 14.095 10.0027 13.3956C9.83007 13.1457 9.70571 12.8656 9.63645 12.5698C9.63735 12.5643 9.63735 12.5587 9.63645 12.5532C9.63489 12.2805 9.68247 12.0098 9.77687 11.754C9.82995 11.5506 9.82485 11.3365 9.76207 11.1359L9.74667 11.0697C9.74697 11.0667 9.74697 11.0635 9.74667 11.0605H9.74365L9.56247 10.2823C9.50243 10.0413 9.35769 9.82986 9.1548 9.68646C9.13893 9.67588 9.12311 9.66665 9.10764 9.65763C9.10503 9.6561 9.10243 9.65459 9.09984 9.65307C9.0782 9.63574 9.05483 9.62043 9.03039 9.60733C8.69007 9.42951 8.33414 9.28364 7.96684 9.17159C7.32714 8.91966 6.75233 8.52724 6.28485 8.02332C5.81737 7.51941 5.46907 6.91691 5.266 6.26039C5.10979 5.81861 5.07132 5.34377 5.15457 4.88266C5.22311 5.0224 5.31257 5.23938 5.39872 5.44832C5.46803 5.61644 5.53521 5.77936 5.5876 5.89262C5.65832 6.09006 5.79359 6.25797 5.97141 6.3693C6.14922 6.48064 6.35919 6.52892 6.5678 6.50638C7.75212 6.51441 8.89382 6.7122 9.54133 7.94838C9.81669 8.60919 10.3174 9.15116 10.9546 9.47816C10.9653 9.11994 10.9103 8.76276 10.7924 8.42431C11.3428 8.19685 11.1257 7.87668 10.832 7.55898C10.546 7.24927 10.2572 6.94209 9.96076 6.62679C9.84309 6.50162 9.72422 6.37518 9.60384 6.24679C9.96153 6.15768 10.289 5.97557 10.5535 5.71894H8.23832C8.23765 5.71256 8.23687 5.70623 8.2361 5.69992C8.23403 5.68299 8.23198 5.6662 8.23198 5.64909C8.93989 5.52036 9.62194 5.27625 10.2507 4.92654C9.50207 4.46533 8.19139 4.48597 7.33659 4.49944C6.96335 4.50531 6.67703 4.50982 6.56237 4.47225C6.55903 4.40319 6.74412 4.3477 6.97638 4.27808C7.04551 4.25736 7.11882 4.23538 7.19258 4.21142C7.49422 4.13322 7.71897 4.07692 7.92943 4.02419C8.23634 3.94729 8.51285 3.87802 8.95309 3.75959C9.6884 3.56023 10.3971 3.27323 11.0639 2.90477H8.02361C9.05797 2.31724 10.1982 1.93919 11.3788 1.79222C12.0461 1.74957 12.5266 1.75081 12.9385 1.7576V1.5629L12.9415 1.7576C13.3528 1.75081 13.8339 1.74957 14.5012 1.79222C15.6817 1.93919 16.8214 2.31724 17.8556 2.90477H14.8153C15.4819 3.27315 16.1904 3.56014 16.9255 3.75959C17.3779 3.88199 17.6581 3.95198 17.977 4.03165C18.1798 4.08233 18.3983 4.13692 18.6869 4.21142C18.761 4.23554 18.8347 4.25765 18.9042 4.27849C19.1357 4.34792 19.3204 4.40332 19.3171 4.47225C19.2034 4.50857 18.921 4.50403 18.5523 4.49811C17.6977 4.48437 16.3799 4.46318 15.6285 4.92654C16.2574 5.27625 16.9397 5.52036 17.6478 5.64909C17.6472 5.65479 17.6465 5.66045 17.6459 5.66609C17.6438 5.68371 17.6418 5.70115 17.6418 5.71894H15.3262C15.591 5.97554 15.919 6.15765 16.2768 6.24679C16.182 6.34775 16.0883 6.4475 15.9953 6.54637C15.6722 6.89 15.3591 7.223 15.0484 7.55898C14.7547 7.87792 14.5376 8.19808 15.088 8.42431C14.9704 8.76283 14.9159 9.11999 14.9267 9.47816C15.5636 9.15105 16.0641 8.60909 16.3393 7.94838C16.9875 6.71468 18.1283 6.51503 19.3126 6.50638C19.5212 6.52892 19.7315 6.48064 19.9093 6.3693C20.0871 6.25797 20.2221 6.09006 20.2928 5.89262C20.346 5.77817 20.414 5.61291 20.4841 5.44285C20.5695 5.23544 20.6578 5.02089 20.7258 4.88266C20.809 5.34373 20.7707 5.81849 20.615 6.26039C20.4117 6.91683 20.0636 7.51925 19.5961 8.02314C19.1287 8.52703 18.554 8.91951 17.9144 9.17159C17.5469 9.28358 17.1905 9.42945 16.85 9.60733C16.8255 9.62043 16.8025 9.63574 16.7808 9.65307L16.7259 9.68646C16.523 9.82986 16.3782 10.0413 16.3182 10.2823L16.137 11.0605H16.1334V11.0697L16.1177 11.1359C16.0545 11.3364 16.0493 11.5506 16.1023 11.754C16.1969 12.0097 16.2445 12.2805 16.2427 12.5532C16.2424 12.5587 16.2424 12.5643 16.2427 12.5698C16.1737 12.8655 16.0498 13.1456 15.8773 13.3956C15.362 14.0948 14.6268 14.6011 13.7895 14.8333C13.6077 14.8679 13.4469 14.9732 13.3426 15.126C13.2382 15.2788 13.1986 15.4667 13.2326 15.6485C13.2448 15.7785 13.239 15.9107 13.2332 16.0425C13.2256 16.2128 13.2182 16.3823 13.2496 16.5454C13.2749 16.6366 13.3192 16.7213 13.38 16.7938C13.4408 16.8663 13.5166 16.9249 13.602 16.9657C14.4913 17.3155 15.3861 17.6549 16.2977 17.9398C16.6058 18.019 16.9301 18.0102 17.2335 17.9145C17.5314 17.8312 17.811 17.6928 18.0579 17.5065C18.2525 17.3279 18.4265 17.128 18.5767 16.9107C18.3988 16.8727 18.2157 16.8658 18.0355 16.8903C17.9083 16.9041 17.7809 16.9249 17.6529 16.9459C17.1394 17.0298 16.6166 17.1152 16.0597 16.7555C16.3554 16.5102 16.7267 16.4583 17.1032 16.4058C17.6504 16.3294 18.2087 16.2515 18.5619 15.5756C18.112 15.813 17.702 15.8006 17.3095 15.7886C16.9828 15.7787 16.6682 15.7691 16.3529 15.9044C16.5398 15.7951 16.7377 15.7061 16.9343 15.6177C17.5852 15.325 18.2211 15.0391 18.3906 14.0421C18.333 14.0916 18.2749 14.1435 18.2156 14.1965C17.7203 14.6384 17.1454 15.1514 16.1512 14.9377C16.5102 14.6346 16.8251 14.2343 17.1036 13.8801C17.314 13.6126 17.5037 13.3714 17.6762 13.2182C19.915 14.4922 19.4702 16.3609 19.2822 17.1505C19.2556 17.262 19.2342 17.3519 19.2262 17.4157C19.2224 17.4421 19.2121 17.4672 19.1963 17.4887C19.1806 17.5103 19.1599 17.5276 19.1359 17.5393C17.2849 18.4924 18.1852 21.2991 18.4734 22.0649C18.4822 22.0884 18.4852 22.1136 18.4824 22.1385C18.4797 22.1634 18.4711 22.1872 18.4574 22.2082C18.4437 22.2291 18.4254 22.2465 18.4036 22.259C18.3819 22.2715 18.3574 22.2787 18.3324 22.28C18.1249 22.2913 17.9169 22.2746 17.7139 22.2306C17.3479 22.1509 16.9682 22.1598 16.6063 22.2565C16.2444 22.3533 15.9109 22.5351 15.6336 22.7869L15.5334 22.8777C15.8589 22.6551 16.2344 22.5161 16.6265 22.473C17.0186 22.4299 17.4151 22.4839 17.7813 22.6305C18.2412 22.8012 18.6739 23.0377 19.0659 23.3326C19.0904 23.3481 19.1187 23.3566 19.1477 23.3574C19.1767 23.3581 19.2054 23.351 19.2307 23.3368C19.2561 23.3227 19.2772 23.302 19.2917 23.2768C19.3063 23.2517 19.3135 23.2232 19.3132 23.1942C19.3132 23.0668 19.3126 22.945 19.312 22.827C19.3109 22.6017 19.3099 22.39 19.3132 22.1787C19.3187 21.8257 19.3331 21.419 19.7987 21.419C20.2637 21.4184 20.2683 21.817 20.2722 22.1558C20.2723 22.1649 20.2724 22.174 20.2725 22.183C20.2781 22.5954 20.2774 23.0077 20.2766 23.4201C20.2764 23.5597 20.2762 23.6993 20.2762 23.8389C20.2762 23.8742 20.2878 23.9085 20.3094 23.9364C20.3309 23.9644 20.3613 23.9844 20.3954 23.9934C20.4296 24.0025 20.4658 24 20.4984 23.9863C20.531 23.9727 20.5579 23.9486 20.5754 23.918C20.8488 23.4216 21.241 22.6534 21.4581 22.1725C21.4685 22.1517 21.4787 22.1309 21.4889 22.1101C21.509 22.0691 21.529 22.0281 21.5508 21.9871C21.6522 21.9178 21.734 21.9314 21.9449 22.0452L22.0189 22.1199C22.0358 22.1325 22.0531 22.1647 22.0713 22.1987C22.1098 22.2703 22.1525 22.3498 22.2046 22.2689C22.5536 21.7246 22.9087 21.1922 23.2627 20.6614C23.8502 19.7805 24.4346 18.9041 24.983 17.9862C25.1555 17.6877 25.269 17.3589 25.317 17.0176C25.423 16.0373 25.3952 15.0471 25.2343 14.0743C25.1903 13.5794 25.0808 13.0927 24.9084 12.6267C24.8478 12.4745 24.7602 12.3344 24.6499 12.2132C24.6147 12.2126 24.6008 12.5361 24.5961 12.6458C24.5958 12.6535 24.5955 12.6602 24.5953 12.6656C24.5842 12.8824 24.5793 13.0977 24.5743 13.3118C24.567 13.6257 24.5598 13.937 24.5337 14.2467C24.3655 16.2469 24.0919 17.975 22.6862 19.4751ZM8.47869 13.0625L8.39051 13.1076C8.42267 13.0921 8.45209 13.0779 8.47869 13.0625ZM4.84867 1.29219C5.01606 1.33339 5.17692 1.37088 5.33153 1.40467C5.17362 1.35572 5.01194 1.31815 4.84867 1.29219ZM3.25123 3.97098C2.81833 2.99316 2.4044 1.34719 4.63759 1.5221L7.26657 2.16802C6.86844 2.26764 6.45659 2.29981 6.0478 2.2632C5.84316 2.23401 5.66724 2.18104 5.4883 2.12716C5.13299 2.02017 4.76578 1.90959 4.13813 1.97454C3.92291 2.0035 3.71602 2.07787 3.53177 2.19273C3.71679 2.29 4.10703 2.46862 4.4821 2.64031C4.95073 2.85481 5.39568 3.05848 5.38709 3.07908C5.31285 3.05283 5.09808 3.00127 4.86561 2.94547C4.59458 2.88041 4.29948 2.80957 4.17497 2.76632C4.21132 2.91613 4.21897 3.12282 4.22871 3.3862C4.25792 4.17581 4.30599 5.47495 5.20288 7.27838C5.65699 8.18279 6.28924 8.9861 7.06183 9.64009C7.16325 9.7122 7.26537 9.77793 7.36803 9.83727C5.16172 8.95616 4.45865 6.90803 3.96835 5.47971C3.86328 5.17365 3.76799 4.89604 3.66977 4.66448C3.66906 4.66237 3.66794 4.66026 3.66681 4.65814C3.66497 4.65469 3.66312 4.65124 3.66312 4.64779C3.65043 4.61843 3.6331 4.5913 3.61179 4.56743L3.25123 3.97098ZM17.3875 13.0631C17.4141 13.0785 17.4444 13.0934 17.476 13.1082L17.3875 13.0631ZM21.0184 1.29279C20.8502 1.33297 20.6899 1.37068 20.5353 1.40529V1.40467C20.6934 1.35585 20.8549 1.31846 21.0184 1.29279ZM22.2008 4.65469C22.1986 4.65836 22.1964 4.66203 22.1964 4.66571V4.66508C22.0983 4.89639 22.0032 5.17348 21.8983 5.4789C21.408 6.90694 20.7049 8.95433 18.4963 9.83727C18.599 9.77793 18.7011 9.71241 18.8025 9.64009C19.5752 8.98619 20.2075 8.18285 20.6615 7.27838C21.558 5.47754 21.6064 4.17953 21.6359 3.38882C21.6457 3.12464 21.6535 2.91708 21.69 2.76632C21.5639 2.81023 21.2622 2.88276 20.988 2.94869C20.7604 3.0034 20.5516 3.05357 20.4779 3.07908C20.47 3.05863 20.909 2.85768 21.3739 2.64484C21.7519 2.47178 22.1471 2.29085 22.3332 2.19273C22.1489 2.0779 21.9424 2.00353 21.7271 1.97454C21.0988 1.90952 20.7313 2.02014 20.3755 2.12724C20.197 2.181 20.0214 2.23387 19.8172 2.2632C19.4084 2.2998 18.9965 2.26763 18.5984 2.16802L21.2292 1.52335C23.4618 1.34843 23.0482 2.99441 22.6152 3.97222L22.2553 4.56868C22.2339 4.59247 22.2165 4.61962 22.204 4.64903C22.2031 4.65092 22.202 4.6528 22.2008 4.65469ZM11.814 13.2028C12.2593 13.2108 12.6064 13.2108 12.9274 13.2108L12.9304 13.1756L12.9364 13.2108C13.2592 13.2133 13.6064 13.2108 14.0498 13.2028C14.4544 13.2089 14.8557 13.1315 15.229 12.9753C15.3312 12.904 15.4109 12.8047 15.4582 12.6894C15.5055 12.5741 15.5184 12.4476 15.4956 12.3251C15.4727 11.9882 15.0348 11.7503 15.0348 11.7503C15.0509 12.5383 14.3671 12.7491 12.9391 12.7621H12.9261C11.4982 12.7497 10.8141 12.5383 10.8301 11.7503C10.8301 11.7503 10.3916 11.9882 10.3687 12.3251C10.3458 12.4475 10.3587 12.574 10.4059 12.6893C10.453 12.8047 10.5326 12.904 10.6348 12.9753C11.008 13.1314 11.4094 13.2089 11.814 13.2028ZM12.9334 21.6533C12.9344 21.6774 12.9344 21.701 12.9334 21.7241C12.9324 21.701 12.9324 21.6774 12.9334 21.6533ZM9.67873 21.8789C11.1533 22.7616 12.8927 22.6965 12.9334 21.7241C12.9741 22.6965 14.7137 22.7616 16.1896 21.8789C16.2258 21.7413 16.2163 21.5616 16.2073 21.3914C16.1952 21.1642 16.184 20.9538 16.2841 20.8831C16.5438 20.7039 16.9576 20.94 17.2211 21.1075C17.3627 21.1975 17.4765 21.3317 17.5918 21.4676C17.691 21.5845 17.7913 21.7028 17.9114 21.7955C17.8001 20.1897 16.1963 18.7303 13.7324 18.5937L13.708 18.5924C13.4457 18.578 13.1805 18.5634 12.934 18.5622C12.7148 18.5611 12.4808 18.5743 12.2472 18.5875C12.21 18.5896 12.1727 18.5917 12.1356 18.5937C9.67109 18.7309 8.0682 20.1884 7.95688 21.7955C8.0751 21.7034 8.17501 21.5859 8.27391 21.4696C8.39023 21.3329 8.50517 21.1977 8.64689 21.1075C8.9091 20.9406 9.32354 20.7033 9.58391 20.8831C9.68386 20.9523 9.67274 21.1624 9.66071 21.3898C9.65167 21.5605 9.64212 21.741 9.67873 21.8789ZM129.5 18.9464L125.907 13.1301C126.323 13.0594 126.718 12.8993 127.065 12.6611C127.413 12.4229 127.705 12.1124 127.921 11.7506C128.475 10.9854 128.763 10.0594 128.74 9.11493C128.784 8.50124 128.685 7.88572 128.45 7.3171C128.215 6.74849 127.85 6.24253 127.385 5.83918C126.347 5.08439 125.079 4.71289 123.798 4.78831H118.287V18.95H121.979V13.4886H122.016L125.404 18.95L129.5 18.9464ZM124.097 7.89475C124.34 8.01854 124.543 8.20802 124.683 8.44131C124.824 8.72181 124.898 9.03144 124.898 9.34551C124.898 9.65958 124.824 9.96921 124.683 10.2497C124.543 10.4835 124.34 10.6732 124.097 10.7963C123.843 10.9246 123.57 11.0102 123.288 11.0501C122.973 11.0955 122.655 11.1174 122.337 11.1156H121.979V7.57514H122.337C122.655 7.57352 122.973 7.59569 123.288 7.64094C123.57 7.68078 123.843 7.76638 124.097 7.89475ZM116.008 4.78891H107.932V18.9464H116.008V15.7156H111.637V13.4355H116.008V10.2047H111.637V7.92463H116.008V4.78891ZM50.1605 7.92463H54.5316V4.78891H46.4547V18.9464H54.5316V15.7156H50.1605V13.4355H54.5316V10.2047H50.1605V7.92463ZM37.4502 13.4886L40.8386 18.95L44.9352 18.9419L41.0675 13.1256C41.5207 13.0583 41.9564 12.9022 42.3491 12.6662C42.7418 12.4302 43.0839 12.1191 43.3558 11.7506C43.9101 10.9853 44.1978 10.0594 44.1751 9.11493C44.2193 8.50124 44.1198 7.88571 43.8846 7.3171C43.6494 6.7485 43.285 6.24257 42.8201 5.83918C41.7822 5.08463 40.5146 4.71315 39.2333 4.78831H33.7217V18.95H37.4133V13.4886H37.4502ZM39.5308 7.89596C39.7732 8.01963 39.9758 8.20915 40.1157 8.44252C40.2574 8.7229 40.3313 9.03258 40.3313 9.34672C40.3313 9.66086 40.2574 9.97054 40.1157 10.2509C39.9767 10.485 39.7738 10.6747 39.5308 10.7975C39.2769 10.926 39.0035 11.0116 38.7218 11.0513C38.4066 11.0967 38.0884 11.1185 37.7699 11.1168H37.4133V7.57665H37.7699C38.0884 7.57505 38.4066 7.59692 38.7218 7.64214C39.0035 7.68186 39.2769 7.76746 39.5308 7.89596ZM66.3616 6.83663C65.7578 6.19425 65.0304 5.68036 64.2231 5.32551V5.3237C63.4112 4.96734 62.5334 4.78524 61.6466 4.78952H56.8112V18.9494H61.6466C62.5284 18.9517 63.4006 18.7657 64.2047 18.4041C65.0103 18.0463 65.7371 17.5328 66.3432 16.893C66.9653 16.2382 67.4558 15.4701 67.7885 14.6307C68.4792 12.8554 68.4822 10.8867 67.7966 9.1095C67.4684 8.2671 66.9811 7.4954 66.3616 6.83663ZM60.2219 15.8318V7.90773L61.0197 7.90894C61.5205 7.8868 62.0202 7.96891 62.4876 8.14977C62.9551 8.33064 63.3798 8.60644 63.7351 8.95981C64.0906 9.35273 64.3644 9.81249 64.5405 10.3122C64.7165 10.8119 64.7914 11.3415 64.7606 11.8704C64.7721 12.469 64.6716 13.0645 64.4644 13.6263C64.2982 14.0853 64.0305 14.5011 63.6813 14.8425C63.3322 15.1839 62.9106 15.442 62.4478 15.5979C61.9773 15.7567 61.4834 15.8359 60.9868 15.8318H60.2219ZM80.6519 7.90773H83.7021V4.79012H73.9128V7.90773H76.9636V18.9494H80.6519V7.90773ZM85.9521 18.9525H89.6441V4.74938H85.9521V18.9525ZM96.1193 5.29262C95.2687 5.60959 94.4958 6.10492 93.8527 6.74519V6.74338C93.2106 7.39149 92.7113 8.16679 92.3869 9.01926C92.0349 9.95308 91.8606 10.9444 91.8729 11.9422C91.8618 12.9133 92.0336 13.8775 92.379 14.7852C92.6987 15.621 93.1923 16.3795 93.8273 17.0104C94.4641 17.6381 95.2242 18.127 96.0598 18.4457C96.9621 18.7876 97.9207 18.9578 98.8856 18.9476C99.9493 18.9608 101.003 18.7414 101.973 18.3048C102.911 17.8684 103.717 17.1909 104.308 16.3416C104.818 15.6482 105.178 14.8565 105.364 14.0165C105.55 13.0533 105.646 12.075 105.651 11.0941H98.8675V13.8049H101.657C101.642 14.1335 101.558 14.4551 101.41 14.7493C101.263 15.0434 101.056 15.3038 100.803 15.5134C100.257 15.9271 99.5856 16.1384 98.9016 16.1116C98.3899 16.1199 97.884 16.0023 97.4286 15.7688C96.9951 15.5425 96.6188 15.2204 96.3288 14.8268C96.0295 14.4196 95.8024 13.9639 95.6573 13.4799C95.3562 12.4867 95.3562 11.4264 95.6573 10.4332C95.8021 9.94798 96.0262 9.49007 96.3204 9.07781C96.603 8.67937 96.9732 8.35115 97.4027 8.11808C97.8475 7.87975 98.3457 7.7585 98.8503 7.76618C99.4785 7.75066 100.093 7.94931 100.594 8.32934C101.1 8.73045 101.482 9.26773 101.694 9.87819L104.938 8.5056C104.454 7.36055 103.633 6.39024 102.583 5.72419C101.503 5.08326 100.263 4.75961 99.0073 4.79072C98.0221 4.78062 97.0433 4.95072 96.1193 5.29262Z" fill="#00AB55"/>
</svg>
