<svg width="72" height="26" fill="none" xmlns="http://www.w3.org/2000/svg"><g clip-path="url(#a)"><path fill-rule="evenodd" clip-rule="evenodd" d="M62.07.001h4.033c1.18.059 2.348.215 3.502.468 1.166.255 1.882.946 2.145 2.072v1.425l-.094.494c-.019.09-.074.135-.166.135l-3.528.003c-.16 0-.223-.078-.19-.234.213-1.009-.806-1.087-1.498-1.108a84.405 84.405 0 0 0-5.566.016c-1.043.041-1.721.535-1.877 1.552A28.629 28.629 0 0 0 58.5 8.5c-.02.843.396 1.29 1.245 1.34 2.586.148 4.887.131 6.903-.053a.817.817 0 0 0 .728-.668l.12-.668c.034-.194-.047-.291-.245-.291l-4.66.005a.083.083 0 0 1-.063-.029.09.09 0 0 1-.022-.067l.244-2.314a.105.105 0 0 1 .034-.067.1.1 0 0 1 .068-.027h8.5c.114 0 .162.057.145.172-.106.66-.207 1.441-.302 2.342-.218 2.057-.51 3.799-2.756 4.348-.802.195-1.707.309-2.714.34-2.241.066-4.444.069-6.607.008-1.729-.05-4.168-.28-4.454-2.335a9.184 9.184 0 0 1-.041-1.991c.114-1.462.264-2.859.45-4.192.257-1.84.938-3.52 2.958-3.902A26.901 26.901 0 0 1 62.07 0ZM35.792 7.957c1.148.07 1.718.658 1.71 1.765a19.433 19.433 0 0 1-.264 2.889c-.013.081-.06.122-.143.122l-3.445-.003c-.129 0-.182-.063-.162-.19.118-.701.166-1.38.143-2.038a.954.954 0 0 0-.951-.923l-6.622-.018c-.082 0-.127.04-.136.122l-.296 2.858c-.014.128-.085.192-.213.192l-3.443-.003c-.117 0-.17-.058-.158-.176l1.24-12.15c.009-.085.056-.128.143-.13 4.136-.007 8.238-.001 12.306.018 1.943.009 2.882.941 2.818 2.798a19.003 19.003 0 0 1-.312 2.805c-.185 1-.925 1.667-2.22 2a.032.032 0 0 0-.012.003.031.031 0 0 0-.006.052.03.03 0 0 0 .023.007Zm-9.524-1.7c-.012.123.043.184.167.184 2.343.014 4.61.006 6.799-.023.42-.005.715-.184.884-.536.283-.598.673-2.444-.583-2.457a479.425 479.425 0 0 0-6.874-.018.114.114 0 0 0-.115.104l-.278 2.746Zm12.977-2.8 5.335-.003a.109.109 0 0 1 .11.12l-.924 9.042a.109.109 0 0 0 .11.12l3.785-.006a.11.11 0 0 0 .11-.098l.922-9.08a.11.11 0 0 1 .11-.098h5.379a.11.11 0 0 0 .109-.1l.302-2.96a.11.11 0 0 0-.029-.085.11.11 0 0 0-.08-.035H39.551a.11.11 0 0 0-.11.099l-.306 2.964a.109.109 0 0 0 .109.12ZM6.895 15.007c-2.27-1.214-4.885-.374-6.099 1.862a.024.024 0 0 1-.011.008.023.023 0 0 1-.03-.021A2003.683 2003.683 0 0 0 2.045 2.08C2.11 1.273 2.18.352 3.261.355c4.151.005 8.282.005 12.391 0a.884.884 0 0 1 .842.6.89.89 0 0 1 .045.364l-1.162 13.294c-.009.1-.045.111-.11.031-1.604-1.986-4.357-2.407-6.354-.736-3.034 2.538-1.409 7.437 2.501 7.715 1.24.088 2.35-.303 3.328-1.173.089-.08.131-.06.128.06l-.005.104c-.034.815-.088 2.082-1.144 2.08-2.094-.004-4.326-.005-6.695-.005-.175 0-.187-.044-.034-.13.522-.29.975-.691 1.36-1.204.064-.085.054-.161-.029-.229-1.76-1.45-2.16-3.835-1.352-5.912.036-.09.011-.159-.075-.206ZM12.214 2.71C10.1 3.888 8.063 5.347 6.316 6.966c-.116.108-.095.155.065.14 2.54-.218 4.568-1.965 5.967-4.255.131-.217.086-.264-.135-.14Zm-6.1 3.105 4.308-2.996a.052.052 0 0 0 .013-.07l-.028-.044c-.035-.05-.126-.061-.268-.032-.142.03-.332.098-.559.203a8.689 8.689 0 0 0-.764.408c-.278.164-.568.35-.853.55l-.042.028c-.286.199-.563.406-.814.61a8.674 8.674 0 0 0-.649.574c-.177.176-.308.33-.384.453-.077.122-.097.211-.061.261l.028.042a.052.052 0 0 0 .073.013ZM2.442 8.922c2.654-.125 5.322 1.307 6.687 3.632.068.118.164.15.289.096l.733-.315c.093-.04.113-.102.06-.187-1.794-2.865-4.368-4.318-7.722-4.36a.18.18 0 0 0-.182.182l.002.824c0 .089.044.131.133.128Zm1.198.964c.713.934 1.386 2.359 1.417 3.594.004.159.085.24.245.241a2.72 2.72 0 0 1 1.084.247c.166.076.244.024.231-.158a9.248 9.248 0 0 0-.81-3.25.405.405 0 0 0-.196-.2 7.219 7.219 0 0 0-1.89-.604c-.14-.026-.167.018-.08.13ZM15.455 22.61a.505.505 0 0 1-.05.18c-.182.387-.517.606-.933.606-4.079.007-8.056.005-11.931-.006-.297 0-.358.121-.185.362l.153.213c.167.23.391.346.674.346h12.113a.956.956 0 0 0 .954-.876l1.732-19.758a.863.863 0 0 0-.216-.652l-.296-.336c-.165-.187-.258-.156-.278.094L15.455 22.61Zm1.599 3.391H4.402c-.268-.168-.486-.42-.652-.757a.153.153 0 0 1 .137-.22h12.036a1.007 1.007 0 0 0 1-.916l1.727-19.69c.023-.27.12-.301.294-.093l.273.322a.966.966 0 0 1 .221.702c-.579 6.576-1.155 13.157-1.729 19.742-.03.334-.248.638-.655.91Zm-8.17-9.846c1.285-1.24 2.853-1.747 4.68-1.487.162.022.18-.018.055-.12-1.817-1.508-4.188-.689-4.849 1.54-.05.166-.012.188.115.067ZM71.5 14.423H21.757a.104.104 0 0 0-.104.104v.65c0 .058.047.104.104.104H71.5a.104.104 0 0 0 .104-.104v-.65a.104.104 0 0 0-.104-.104ZM1.508 17.902c-.007.038.004.044.032.018 1.222-1.142 2.61-1.605 4.162-1.388.219.03.24-.021.065-.156-1.63-1.248-3.863-.45-4.259 1.526Zm22.181 2.03a.45.45 0 0 0 .013.144c.071.272.248.41.53.415 1.216.025 2.435.041 3.659.05.518.003 1.01.055 1.474.156 1.326.283 1.165 1.95.84 2.917-.266.787-.849 1.232-1.75 1.337-1.25.141-2.503.135-3.786.13-.34-.003-.682-.004-1.027-.003-1.565.003-2.847-.26-2.446-2.241.019-.096.078-.143.176-.143l1.88.002c.1.002.158.052.172.151a.13.13 0 0 1-.01.073.257.257 0 0 0-.011.19c.08.24.254.368.523.382 1.31.073 2.477.063 3.5-.029a.586.586 0 0 0 .257-.088c.655-.41.672-.786.052-1.126a.521.521 0 0 0-.253-.065c-1.383-.01-2.71-.017-3.98-.02-1.043-.003-2.062-.287-2.065-1.582 0-1.44.414-2.636 2.086-2.797a31.972 31.972 0 0 1 4.583-.11c1.365.068 2.512.24 2.325 1.995-.021.19-.127.286-.317.286h-1.651c-.21 0-.304-.105-.281-.315.022-.21-.188-.33-.632-.361a22.314 22.314 0 0 0-3.211.018c-.392.031-.608.243-.65.635Zm16.773 3.134c-.003 1.648 1.167 1.986 2.506 2.022 1.615.042 3.187.032 4.714-.028 1.624-.064 2.556-.894 2.795-2.488.125-.836.216-1.663.273-2.483.104-1.507-.568-2.305-2.015-2.395a41.29 41.29 0 0 0-5.156 0c-1.388.088-2.46.554-2.756 2.025a17.202 17.202 0 0 0-.361 3.347Zm3.244.22c-.596-.03-.903-.317-.92-.86-.023-.749.07-1.62.32-2.33.137-.391.472-.601 1.006-.629a32.205 32.205 0 0 1 3.494.003c.598.031.89.34.874.928-.022.832-.121 1.54-.296 2.124-.24.792-1.126.8-1.828.807-.06 0-.12 0-.177.002-.808.014-1.632-.001-2.473-.044Zm20.039.06c.16.1.344.155.548.164 1.317.056 2.487.034 3.51-.065a.555.555 0 0 0 .398-.226c.137-.184.189-.361.156-.533-.06-.32-.254-.484-.58-.489-1.26-.02-2.52-.03-3.778-.026-.904.003-2.236-.09-2.337-1.269-.127-1.495.268-2.914 1.947-3.104 1.664-.187 3.477-.21 5.44-.068 1.2.089 1.736.785 1.544 2.008-.023.145-.108.218-.255.218l-1.705-.003c-.21 0-.298-.103-.266-.31.035-.212-.182-.335-.65-.366a21.38 21.38 0 0 0-3.296.031.539.539 0 0 0-.346.17c-.252.272-.277.548-.076.829a.48.48 0 0 0 .396.2c1.547-.009 3.068.02 4.56.086 1.622.07 1.786 1.165 1.596 2.436-.176 1.182-.836 1.827-1.978 1.934-2.09.193-4.03.202-5.819.026-1.161-.114-1.62-.818-1.378-2.11.023-.12.095-.18.218-.183l1.839-.005c.105 0 .16.053.16.159l.003.228c0 .117.05.206.149.268Zm-24.443-.114-4.901.005a.082.082 0 0 1-.06-.026.08.08 0 0 1-.02-.062l.582-5.346a.08.08 0 0 0-.078-.088l-2.078-.005a.08.08 0 0 0-.08.072l-.783 7.166a.081.081 0 0 0 .048.082c.01.004.021.006.033.006h7.168a.08.08 0 0 0 .08-.072l.17-1.643a.082.082 0 0 0-.021-.063.08.08 0 0 0-.06-.026Zm18.065-3.637-.585 5.371a.08.08 0 0 1-.08.073l-2.078-.003a.082.082 0 0 1-.06-.026.081.081 0 0 1-.02-.062l.579-5.335a.08.08 0 0 0-.08-.091l-3.105.016a.082.082 0 0 1-.06-.027.081.081 0 0 1-.02-.062l.166-1.656a.08.08 0 0 1 .08-.073h8.664c.01 0 .022.002.032.007a.079.079 0 0 1 .044.048.08.08 0 0 1 .004.034l-.187 1.653a.08.08 0 0 1-.08.073l-3.134-.013a.08.08 0 0 0-.08.073ZM.25 21.389v.55c.305.828 1.04.797 1.738.767.154-.006.306-.012.451-.01.175.005.187-.037.037-.127-.893-.53-1.501-1.245-1.826-2.142-.175-.484-.272-.47-.29.044-.011.27-.048.576-.11.918Z" fill="#00AB55"/></g><defs><clipPath id="a"><path fill="#fff" transform="translate(.25 .001)" d="M0 0h71.5v26H0z"/></clipPath></defs></svg>