<svg width="80" height="32" viewBox="0 0 80 32" fill="none" xmlns="http://www.w3.org/2000/svg">
<g clip-path="url(#clip0_4426_7913)">
<path fill-rule="evenodd" clip-rule="evenodd" d="M78.203 16.8436C78.3541 16.9568 79.1032 17.4912 79.4117 17.6609C79.7264 17.8307 79.7894 17.9564 79.5627 18.0507C79.3662 18.1333 78.9274 18.5726 78.7142 18.7858C78.668 18.8321 78.6324 18.8678 78.6122 18.8868C78.4989 18.9937 78.417 19.0126 78.3037 19.0188C78.2527 19.0215 78.1569 18.9578 78.037 18.878C77.8759 18.7708 77.6713 18.6346 77.4728 18.5913C77.1329 18.5159 77.3721 18.78 77.5043 18.8554C77.5209 18.8649 77.5429 18.877 77.5686 18.8912C77.7471 18.9896 78.107 19.188 78.1401 19.3143C78.1688 19.4196 78.0224 19.5213 77.9092 19.5999C77.8737 19.6245 77.8415 19.6469 77.819 19.6664C77.7421 19.733 77.5858 19.8037 77.3978 19.8888C77.355 19.9082 77.3106 19.9283 77.265 19.9493C77.1492 20.0027 77.0264 20.0714 76.9197 20.1312C76.8003 20.1981 76.701 20.2537 76.6544 20.2636C76.56 20.2825 76.3774 19.855 76.2893 19.5469C76.2339 19.3534 76.109 19.1921 75.98 19.0256C75.9037 18.9272 75.826 18.8269 75.7605 18.7171C75.5843 18.4216 75.3325 18.1324 75.2695 18.1953C75.2066 18.2582 75.2318 18.497 75.5276 18.956C75.8235 19.4149 76.1193 19.9996 76.1445 20.0624C76.1697 20.119 76.2956 20.4271 75.7228 20.4522C75.1499 20.4837 74.8477 20.5025 74.6589 20.5465C74.5645 20.5717 74.2371 20.5717 73.9224 20.5717L75.8424 22.7406L76.2075 23.1492L75.8487 23.5642L74.0042 25.7142L73.5699 26.2172L73.0914 25.752L72.5312 25.2113L71.7632 25.796L71.3225 26.1354L70.9322 25.7394L70.6112 25.4125C70.5923 25.4565 70.5734 25.5005 70.5608 25.5382C70.4474 25.8064 70.2435 25.5886 69.9758 25.3027C69.9612 25.2871 69.9463 25.2713 69.9313 25.2553C69.6418 24.9472 69.39 24.8215 69.2703 24.8278C69.1954 24.8317 69.2935 24.9789 69.388 25.1206C69.4443 25.2051 69.4994 25.2877 69.5158 25.337C69.5454 25.4256 69.8102 25.6302 70.0211 25.7932C70.1246 25.8732 70.2152 25.9432 70.2587 25.9846C70.3375 26.0595 70.2686 26.1636 70.1681 26.3153C70.1 26.4181 70.0175 26.5427 69.9565 26.695C69.8469 26.9686 69.4724 27.2852 69.2485 27.4744C69.1637 27.5461 69.1005 27.5995 69.0815 27.6254C69.0152 27.7156 68.8798 27.5123 68.758 27.3294L68.7416 27.3048C68.6157 27.1162 68.4079 27.0407 68.5527 27.4745C68.6975 27.9083 68.5401 28.1032 68.389 28.1912C68.238 28.2792 67.4951 28.713 67.2308 28.9142C66.9664 29.1154 66.8279 29.1216 66.8342 28.8828C66.8395 28.6808 66.6199 28.115 66.5214 27.8612C66.5034 27.8148 66.4894 27.7788 66.4816 27.7574C66.4313 27.6191 66.4502 27.5437 66.4879 27.4431C66.504 27.4003 66.5942 27.3427 66.7075 27.2703C66.8605 27.1725 67.0557 27.0478 67.1678 26.8961C67.3629 26.6321 67.0419 26.739 66.9286 26.8207C66.9071 26.8354 66.8769 26.8575 66.8413 26.8836C66.6789 27.0026 66.4012 27.2059 66.2928 27.1853C66.1858 27.1708 66.1539 26.9986 66.1305 26.8717C66.1236 26.8344 66.1174 26.801 66.1102 26.7767C66.0862 26.6902 66.0842 26.5449 66.0818 26.369C66.081 26.3147 66.0802 26.2576 66.0788 26.1983C66.0759 26.086 66.0643 25.9623 66.054 25.8526C66.0413 25.7168 66.0305 25.6023 66.041 25.5571C66.0599 25.4753 66.4942 25.4753 66.7901 25.5193C66.9763 25.547 67.1601 25.5025 67.3508 25.4563C67.463 25.4291 67.5776 25.4013 67.6966 25.3873C68.0176 25.3496 68.3576 25.2427 68.3324 25.1673C68.3009 25.0918 68.0869 25.029 67.5833 25.1044C67.0797 25.1861 66.4628 25.2113 66.3998 25.2113C66.3494 25.2113 66.1606 25.205 66.1606 24.9787L65.5437 25.4628C65.0904 26.0789 64.5365 26.6195 63.8818 27.0219C62.7927 27.6883 61.4078 27.9649 60.174 27.5688C59.7019 27.4117 59.2549 27.179 58.8458 26.8961C57.9707 27.2105 57.0517 27.3991 56.1137 27.4368C54.2378 27.5185 52.3493 27.0344 50.744 26.0663L47.414 25.8965L46.8096 25.8651C46.7973 25.8692 46.7876 25.868 46.7772 25.8666C46.7716 25.8659 46.7658 25.8651 46.7593 25.8651L46.5452 25.8525L46.5641 25.8085L46.564 25.8085C46.5074 25.7896 46.4508 25.7708 46.3879 25.7457C46.0857 25.6325 45.878 25.6262 45.7961 25.6702C45.7442 25.6982 45.8596 25.7666 45.9702 25.8322C46.0339 25.8699 46.0959 25.9067 46.1235 25.9343C46.1731 25.9838 46.4097 26.0333 46.6039 26.0739C46.7056 26.0952 46.7957 26.114 46.8411 26.1292C46.9203 26.1555 46.9069 26.2496 46.8874 26.3857C46.8744 26.4767 46.8587 26.5866 46.8663 26.7075C46.8801 26.928 46.7259 27.266 46.6344 27.4663C46.6007 27.5402 46.5755 27.5954 46.5704 27.6191C46.5522 27.7042 46.3927 27.6071 46.2513 27.5211L46.2368 27.5122C46.092 27.4242 45.922 27.4368 46.1675 27.6883C46.4131 27.9397 46.369 28.1158 46.2934 28.2289C46.284 28.2431 46.27 28.2639 46.2524 28.2899C46.1303 28.4711 45.8386 28.9041 45.7395 29.0965C45.6262 29.3165 45.538 29.3668 45.4625 29.2034C45.3997 29.0622 45.0755 28.7557 44.9248 28.6132C44.8943 28.5844 44.8709 28.5622 44.8582 28.5496C44.7763 28.4741 44.7638 28.4175 44.7575 28.3358C44.7548 28.3015 44.7966 28.235 44.8492 28.1513C44.9218 28.0356 45.0152 27.8871 45.0407 27.7449C45.0848 27.4997 44.9022 27.6757 44.8519 27.77C44.8452 27.7825 44.8367 27.7991 44.8267 27.8186C44.7609 27.947 44.6308 28.2008 44.5434 28.2226C44.4653 28.2421 44.3872 28.1369 44.3297 28.0593C44.313 28.0369 44.298 28.0167 44.2853 28.0026C44.2457 27.9587 44.2031 27.8718 44.1509 27.7655C44.1284 27.7197 44.1042 27.6703 44.0776 27.6191C44.04 27.5467 43.9944 27.4709 43.9534 27.4028C43.8984 27.3113 43.8519 27.234 43.8447 27.1979C43.8321 27.135 44.128 26.9904 44.342 26.9276C44.4774 26.8878 44.5876 26.7977 44.7029 26.7034C44.7699 26.6487 44.8385 26.5926 44.9148 26.5441C45.1226 26.4121 45.3177 26.2297 45.2736 26.1857C45.2296 26.1417 45.0659 26.1669 44.7449 26.3806C44.4301 26.5944 44.0209 26.8144 43.9769 26.8333L43.9752 26.834C43.9278 26.8543 43.7247 26.9416 43.6936 26.5441C43.6684 26.1417 43.6495 25.928 43.6118 25.796C43.574 25.6639 43.574 24.8718 43.5803 24.8027C43.5866 24.7335 43.8447 24.7021 43.9265 24.6958C44.0146 24.6832 44.3357 24.5323 44.5623 24.3689C44.7826 24.2054 44.8078 24.1488 44.7197 24.1111C44.6768 24.0897 44.5338 24.1443 44.3781 24.2038C44.214 24.2664 44.0358 24.3345 43.9454 24.3249C43.7691 24.2997 43.5425 24.2306 43.5425 24.2306C43.5488 24.2243 43.5614 24.1866 43.574 24.1425C41.2196 24.9787 39.3185 25.4942 39.1989 25.5256L38.8149 25.6262L38.6198 25.6765L38.4309 25.6074L37.8077 25.381L37.2978 25.5508C37.3671 25.7268 37.4678 25.9657 37.6315 26.3178C37.8688 26.8354 37.5486 26.8643 37.4758 26.8708L37.4741 26.871C37.4695 26.871 37.4622 26.871 37.4526 26.8711C37.3173 26.8716 36.7078 26.8739 36.2025 26.827C35.6611 26.7767 35.4345 26.8584 35.4093 26.9401C35.3841 27.0282 35.7555 27.1225 36.1018 27.1413C36.233 27.1485 36.3597 27.1719 36.4837 27.1948C36.6866 27.2323 36.8821 27.2684 37.0775 27.2293C37.386 27.1665 37.8518 27.1413 37.877 27.2293C37.891 27.2784 37.8855 27.4016 37.8789 27.5479C37.8737 27.6641 37.8679 27.7949 37.8707 27.9146C37.8725 27.9893 37.8758 28.0615 37.8788 28.1293C37.8867 28.3012 37.8932 28.445 37.8707 28.5307C37.8627 28.5593 37.8572 28.5999 37.851 28.6451C37.8328 28.779 37.8089 28.9536 37.7007 28.9771C37.5746 29.0099 37.2338 28.7806 37.0647 28.6668C37.0396 28.6499 37.0182 28.6356 37.002 28.625C36.8761 28.5433 36.5298 28.449 36.7502 28.7193C36.8774 28.8754 37.0929 28.9959 37.2619 29.0904C37.3855 29.1596 37.4843 29.2148 37.5056 29.26C37.5559 29.3668 37.5748 29.4423 37.5308 29.5932C37.5232 29.619 37.5086 29.6645 37.4897 29.7234C37.3984 30.0079 37.2066 30.6055 37.2223 30.8191C37.2412 31.0768 37.0964 31.0705 36.8005 30.8757C36.5353 30.6953 35.8504 30.3433 35.5888 30.2088C35.5585 30.1933 35.534 30.1807 35.5163 30.1715C35.3464 30.0835 35.1638 29.8823 35.3023 29.4108C35.4408 28.9393 35.2142 29.0399 35.0946 29.2411L35.0831 29.2604C34.9658 29.4579 34.8276 29.6907 34.7483 29.5994C34.7275 29.5734 34.6566 29.5204 34.5611 29.4491C34.311 29.2623 33.8921 28.9493 33.76 28.6627C33.6858 28.5016 33.5896 28.3727 33.5106 28.2668C33.3953 28.1123 33.3165 28.0066 33.3949 27.9209C33.4403 27.8713 33.539 27.7861 33.6507 27.6898C33.8644 27.5054 34.1255 27.2803 34.1503 27.1853C34.1658 27.1366 34.2157 27.0537 34.268 26.9666C34.3642 26.8063 34.4689 26.6321 34.3832 26.6321C34.251 26.6384 33.9929 26.783 33.6971 27.1287C33.6788 27.1501 33.6608 27.1713 33.643 27.1921C33.3743 27.5081 33.1723 27.7454 33.0424 27.4682C32.9938 27.367 32.9389 27.2389 32.8814 27.1049C32.7674 26.8392 32.6434 26.5499 32.5388 26.3995C32.5148 26.3649 32.4919 26.3359 32.4716 26.3101C32.444 26.2751 32.4211 26.2462 32.4066 26.2172C32.2933 26.6447 32.0855 26.5064 32.0415 26.4749C31.9974 26.4435 31.5945 26.1229 31.2924 25.8274C30.9902 25.5256 30.8139 25.469 30.7573 25.5068C30.7006 25.5445 30.8769 25.7834 31.0783 25.9657C31.155 26.0351 31.2207 26.1127 31.2849 26.1884C31.3893 26.3117 31.4895 26.43 31.626 26.5001C31.8463 26.6132 32.1485 26.8207 32.117 26.8899C32.1005 26.9262 32.0423 26.992 31.9725 27.0709C31.9094 27.1422 31.8368 27.2242 31.7771 27.3048C31.7508 27.3402 31.7256 27.3748 31.7015 27.4079C31.6102 27.5334 31.5347 27.6372 31.4749 27.682C31.4568 27.6956 31.4346 27.7165 31.41 27.7396C31.3323 27.8128 31.2304 27.9088 31.1539 27.8706C31.0624 27.833 30.9708 27.5378 30.9226 27.3824C30.9145 27.3561 30.9075 27.3337 30.9021 27.3174C30.8643 27.2042 30.7006 26.9779 30.7006 27.2482C30.7042 27.4009 30.774 27.5757 30.8296 27.7147C30.8724 27.8218 30.9067 27.9077 30.8958 27.946C30.8706 28.034 30.8454 28.0906 30.7447 28.1598C30.7287 28.1708 30.7008 28.189 30.6647 28.2127C30.4735 28.3379 30.0531 28.6132 29.9578 28.7507C29.8445 28.9142 29.7564 28.845 29.6745 28.581C29.5927 28.3169 29.3031 27.6694 29.2402 27.5311C29.1772 27.3928 29.1646 27.1853 29.4794 26.9653C29.7941 26.739 29.6053 26.695 29.4353 26.7578L29.4222 26.7627C29.2545 26.8248 29.0513 26.9 29.0513 26.8081C29.0513 26.7798 29.0339 26.7097 29.0106 26.6162C28.9513 26.3776 28.854 25.9869 28.9128 25.752C28.938 25.6702 28.9443 25.5948 28.9506 25.5194V25.5193C28.8373 25.752 28.7177 25.9846 28.5918 26.2172C27.5972 28.0089 26.0927 29.5932 24.116 30.2658C22.7815 30.7185 21.3336 30.6996 19.9802 30.335C18.8219 30.8254 17.4748 30.8568 16.2913 30.335C15.7688 30.1024 15.3156 29.7943 14.919 29.4171V31.4037C14.919 31.7306 14.6483 32.001 14.3209 32.001C13.9936 32.001 13.7229 31.7306 13.7229 31.4037V27.8203C13.3956 27.2105 13.1438 26.5441 12.9675 25.884C12.7283 25.8777 12.5268 25.8588 12.3758 25.84C12.3254 25.9154 12.275 25.9783 12.231 26.0223C12.0828 26.1657 12.0275 26.1014 11.8779 25.9273C11.8177 25.8572 11.7422 25.7694 11.6392 25.6702L11.6015 25.6325L11.5133 25.5822C11.4126 25.5256 11.3119 25.469 11.2112 25.4062C11.2234 25.5468 11.5395 26.0564 11.632 26.2055L11.6392 26.2172C11.7211 26.3555 11.7274 26.4121 11.7526 26.6447C11.779 26.8451 11.7433 26.8641 11.6234 26.9281C11.6004 26.9404 11.5742 26.9544 11.5448 26.9716C11.4149 27.0477 11.2148 27.232 11.0398 27.3932C10.969 27.4584 10.9023 27.5199 10.8461 27.5688C10.6663 27.7252 10.5987 27.4975 10.5105 27.2002C10.5029 27.1747 10.4952 27.1488 10.4873 27.1225C10.3865 26.7893 10.2543 26.6007 10.1599 26.5567C10.101 26.5292 10.1181 26.6732 10.1346 26.8128C10.1446 26.8969 10.1544 26.9794 10.1473 27.0219C10.1397 27.0908 10.2394 27.302 10.3285 27.4907C10.3857 27.6118 10.4386 27.7236 10.4558 27.7826C10.4824 27.8738 10.3895 27.9259 10.2548 28.0015C10.1666 28.051 10.0606 28.1105 9.95847 28.1975C9.77649 28.3565 9.38077 28.4466 9.14205 28.5009C9.05047 28.5218 8.982 28.5374 8.95756 28.5496C8.86943 28.5936 8.84425 28.3672 8.82537 28.1849C8.80648 28.0026 8.68058 27.858 8.62392 28.2415C8.57356 28.625 8.37842 28.7067 8.23363 28.713C8.08885 28.7193 7.37121 28.7633 7.10052 28.8073C6.82984 28.8513 6.72912 28.8073 6.82354 28.6313C6.9115 28.4673 6.97215 27.8724 6.99022 27.6951C6.99155 27.6821 6.99265 27.6713 6.99351 27.6631C7.0061 27.5374 7.04387 27.4871 7.11311 27.4305C7.14213 27.4068 7.22864 27.3985 7.33743 27.3882C7.48823 27.3738 7.68183 27.3553 7.82445 27.2859C8.06996 27.1665 7.79298 27.1225 7.67337 27.1413C7.65823 27.1437 7.63855 27.1471 7.61554 27.1511C7.4568 27.1785 7.13973 27.2332 7.06275 27.1728C6.99468 27.1193 7.03553 26.9834 7.06635 26.8808C7.07543 26.8506 7.08364 26.8233 7.08793 26.8018C7.09667 26.7364 7.14486 26.6406 7.203 26.525C7.2286 26.4742 7.25613 26.4194 7.28308 26.3618C7.32132 26.2799 7.35837 26.1875 7.39166 26.1044C7.43511 25.9959 7.47216 25.9034 7.49711 25.8714C7.54747 25.8148 7.86852 25.9846 8.06996 26.1292C8.19604 26.2197 8.34924 26.256 8.50795 26.2936C8.60283 26.3161 8.69968 26.3391 8.79389 26.3743C9.04569 26.4686 9.33526 26.5189 9.34785 26.4498C9.35415 26.3806 9.22195 26.2549 8.81907 26.1166C8.41619 25.9846 7.94406 25.7708 7.89999 25.7457L7.89831 25.7447C7.85065 25.7176 7.63958 25.5975 7.96294 25.3056C7.93432 25.3056 7.89961 25.2995 7.85648 25.2919C7.82371 25.2862 7.7861 25.2796 7.74262 25.2742C7.5559 25.2475 7.20907 25.271 6.9061 25.2916C6.78006 25.3001 6.66162 25.3082 6.56545 25.3119C6.26568 25.3234 6.37768 25.0502 6.52921 24.6806C6.54315 24.6466 6.55742 24.6118 6.57174 24.5763C6.748 24.1614 6.76059 23.8659 6.70394 23.7465C6.66895 23.6766 6.57152 23.8297 6.47544 23.9807C6.41595 24.0742 6.35697 24.1669 6.31364 24.2054C6.23624 24.2741 6.15002 24.6333 6.08308 24.9121C6.05203 25.0415 6.02513 25.1535 6.00519 25.2113C5.96734 25.3209 5.83392 25.2987 5.63914 25.2663C5.50994 25.2448 5.35375 25.2189 5.18054 25.2239C4.86641 25.233 4.39424 25.0053 4.11167 24.8691C4.00353 24.8169 3.92316 24.7782 3.89005 24.7712C3.77045 24.7398 3.92153 24.5009 4.05372 24.2997C4.17962 24.0985 4.16703 23.8534 3.80192 24.1928C3.43681 24.5323 3.17871 24.4632 3.02763 24.35C2.87655 24.2368 2.12744 23.7088 1.81898 23.5327C1.51053 23.3567 1.44128 23.231 1.68049 23.1304C1.87706 23.0477 2.3159 22.6085 2.529 22.3952C2.57524 22.3489 2.61084 22.3133 2.63104 22.2942C2.74436 22.1874 2.8199 22.1685 2.9395 22.1622C2.99054 22.1595 3.0863 22.2233 3.20621 22.3031C3.36729 22.4103 3.57197 22.5465 3.77045 22.5897C4.11038 22.6652 3.87117 22.4011 3.73897 22.3257C3.7223 22.3162 3.70033 22.3041 3.67458 22.2899C3.49611 22.1915 3.13618 21.9931 3.10317 21.8667C3.07442 21.7614 3.22082 21.6598 3.33401 21.5812C3.36948 21.5566 3.40169 21.5342 3.42422 21.5147C3.50113 21.4481 3.65739 21.3774 3.84537 21.2923C3.88818 21.2729 3.93264 21.2528 3.97818 21.2318C4.09399 21.1784 4.2168 21.1096 4.32349 21.0499C4.44298 20.983 4.54224 20.9274 4.5888 20.9174C4.68323 20.8986 4.86578 21.3261 4.95391 21.6341C5.00929 21.8277 5.13426 21.989 5.26322 22.1554C5.33951 22.2539 5.41719 22.3542 5.4827 22.464C5.65896 22.7595 5.91076 23.0487 5.97371 22.9858C6.03666 22.9229 6.01148 22.684 5.71561 22.2251C5.41975 21.7662 5.12388 21.1815 5.0987 21.1186C5.07352 21.0683 4.9728 20.8231 5.3505 20.7477C4.74618 20.0624 4.23628 19.4275 3.8271 18.8617L3.39904 19.2515L2.61216 19.9744L2.36036 18.9371L0.937679 13.0213L0.836958 12.5938L1.20207 12.3486L3.21648 11.0032C2.43773 10.2493 2.25966 10.0503 2.19453 9.97757C2.1907 9.97328 2.18725 9.96943 2.1841 9.96593L1.71826 9.42527L1.48535 9.15494L1.51053 9.07321L0.761418 8.69601L0.30188 8.46969L0.434076 7.97303L1.22725 4.98054L1.40351 4.31415L2.0519 4.54676L2.35406 4.65363L2.8136 4.05639L3.04652 3.75463L3.42422 3.82378L4.17962 3.96209C4.19851 3.96209 4.38736 3.99981 4.70211 4.06896L5.51417 3.78606L5.70302 3.72319L5.89188 3.77977L6.27587 3.88665C6.39548 3.91808 8.39101 4.48389 10.7013 5.38289C10.6777 5.33974 10.6517 5.29658 10.6247 5.25189C10.6085 5.22497 10.592 5.1975 10.5754 5.16915C10.2808 4.68096 10.604 4.61648 10.669 4.60351L10.6698 4.60334C10.7328 4.59076 11.3874 4.51532 11.9351 4.50275C12.4828 4.49646 12.6968 4.38959 12.7094 4.30157C12.722 4.21356 12.3443 4.16327 11.9981 4.18213C11.8674 4.18924 11.7386 4.17936 11.6126 4.16969C11.4046 4.15372 11.2042 4.13835 11.016 4.20099C10.7076 4.30157 10.248 4.3833 10.2166 4.29529C10.1951 4.24894 10.1859 4.12169 10.175 3.97205C10.1666 3.85785 10.1574 3.73061 10.141 3.61632C10.1307 3.54249 10.1195 3.47195 10.1089 3.40596C10.0809 3.23034 10.0581 3.08704 10.0718 3.00022C10.0746 2.97334 10.0749 2.93754 10.0752 2.89762C10.0763 2.76019 10.0778 2.57397 10.1851 2.535C10.3021 2.49049 10.6754 2.6823 10.8557 2.77495C10.8792 2.787 10.8994 2.79737 10.9153 2.80533C11.0538 2.87448 11.4063 2.93106 11.1545 2.68588C11.0099 2.54509 10.7823 2.4499 10.604 2.37532C10.4717 2.32003 10.3666 2.27606 10.3425 2.23324C10.2795 2.13893 10.2543 2.05721 10.2795 1.90632C10.2843 1.87796 10.295 1.82516 10.309 1.7564C10.3694 1.45938 10.4904 0.864565 10.4495 0.655262C10.3991 0.397505 10.5439 0.384932 10.8587 0.548387C11.1734 0.711843 12.0358 1.03875 12.2121 1.10162C12.3884 1.17078 12.5898 1.3468 12.508 1.83088C12.4261 2.31496 12.6402 2.19551 12.7346 1.97548C12.829 1.75544 12.9486 1.4914 13.0367 1.57941C13.0615 1.60409 13.1401 1.65051 13.2455 1.71271C13.516 1.87238 13.9627 2.13605 14.1258 2.40298C14.2172 2.55262 14.3261 2.66951 14.4159 2.76605C14.5489 2.90881 14.6403 3.00704 14.5727 3.10081C14.5331 3.15285 14.4487 3.2435 14.3525 3.34674C14.1581 3.55525 13.916 3.81508 13.8992 3.9118C13.892 3.96641 13.8481 4.06496 13.8033 4.16546C13.7294 4.33105 13.6532 4.50191 13.7355 4.49018C13.8677 4.4776 14.1069 4.30157 14.3587 3.92437C14.3763 3.89848 14.3936 3.87283 14.4105 3.84761C14.6368 3.51163 14.8112 3.25258 14.9693 3.51573C15.0172 3.59534 15.073 3.69337 15.1324 3.79778C15.2842 4.06438 15.4596 4.37253 15.5862 4.52161C15.6154 4.55379 15.6419 4.58082 15.6652 4.60467C15.7878 4.72986 15.8242 4.76704 15.7184 4.9994C15.7049 5.02972 15.6928 5.05778 15.6815 5.08383C15.6508 5.155 15.6265 5.21114 15.5988 5.25716L15.9954 4.83595L16.2598 4.54676L16.6375 4.65992L19.5647 5.53378L21.6295 4.07525L22.643 3.35856L22.6304 4.29529L23.1088 3.9558C23.1592 3.8615 23.2284 3.72948 23.2788 3.61003C23.2959 3.56935 23.3121 3.52977 23.3277 3.49191C23.3866 3.34839 23.4354 3.22965 23.4802 3.16996C23.4928 3.15326 23.5072 3.12978 23.5232 3.10361C23.5796 3.01158 23.6564 2.88634 23.7446 2.90592C23.8447 2.92813 24.0136 3.20553 24.095 3.33923C24.1058 3.35686 24.115 3.37199 24.1223 3.38371C24.1853 3.4843 24.3993 3.66033 24.3301 3.39628C24.2898 3.24296 24.1754 3.08541 24.0864 2.963C24.0222 2.87459 23.9712 2.80452 23.9712 2.76761C23.9712 2.67331 23.9838 2.61044 24.0657 2.52243C24.0799 2.50596 24.1059 2.47762 24.1395 2.44104C24.2981 2.26811 24.6254 1.91112 24.6826 1.75544C24.7518 1.56684 24.8525 1.61713 24.9973 1.84974C25.1421 2.08235 25.5828 2.64816 25.6772 2.76132C25.7716 2.87448 25.8283 3.07566 25.5828 3.36485C25.3373 3.65404 25.5261 3.66033 25.6772 3.55345L25.6883 3.54561C25.8371 3.44028 26.0114 3.31685 26.036 3.40886C26.043 3.43499 26.0761 3.49683 26.1204 3.57968C26.236 3.79585 26.428 4.155 26.4326 4.39588C26.4351 4.52727 26.4611 4.64596 26.4827 4.74499C26.516 4.8971 26.5392 5.00286 26.4515 5.03712C26.4048 5.05618 26.3104 5.08308 26.2027 5.11374C25.9906 5.17412 25.7273 5.24908 25.6772 5.30745C25.6496 5.33958 25.5834 5.38512 25.5151 5.43213C25.3963 5.5139 25.271 5.60014 25.331 5.62808C25.4191 5.67208 25.652 5.65322 25.9731 5.50234C25.9996 5.49038 26.0257 5.47845 26.0512 5.4668C26.3341 5.33757 26.5459 5.24077 26.5459 5.4772C26.5459 5.55281 26.5432 5.64519 26.5403 5.74324C26.5334 5.97942 26.5255 6.24846 26.5522 6.39506C26.5583 6.42865 26.5648 6.45762 26.5704 6.48316C26.5998 6.61534 26.6087 6.65533 26.4452 6.76598L26.4293 6.77706C26.2534 6.90014 26.2015 6.93644 26.0486 6.96087C26.0162 6.96676 25.963 6.97678 25.8982 6.98901C25.8247 7.00288 25.7361 7.0196 25.6457 7.03631L26.206 7.34436C26.2249 7.35065 26.2437 7.36322 26.2563 7.37579L26.6214 7.57697C27.7357 8.18678 28.9821 8.49483 30.3229 8.49483C31.412 8.49483 32.18 8.28737 32.2618 8.26222L33.3005 7.92274L33.6593 7.80329L33.6656 7.77814L33.7852 7.30035L34.2825 7.30664L35.6674 7.31921C35.6863 7.31921 37.4363 7.34436 39.797 7.48267C39.8085 7.41745 39.8224 7.35457 39.8357 7.29403C39.8442 7.25536 39.8526 7.21766 39.8599 7.1809L40.0865 6.1373L40.1998 5.6155L40.7349 5.64065L40.9867 5.65322L41.0686 5.33889L41.5785 5.35775L43.4985 5.4269L45.601 4.68507L46.0165 4.54047L46.2997 4.87995L46.9041 5.60922C46.9135 5.59805 46.9229 5.58694 46.9323 5.57592C47.0594 5.42567 47.1723 5.2923 47.2251 5.25716C47.3573 5.15657 47.5399 4.96797 47.8798 4.59076C48.2197 4.21356 48.3582 4.47132 48.3834 4.52161C48.4086 4.5719 48.6478 5.09999 48.7926 5.55892C48.9437 6.01157 49.0884 6.16874 49.164 6.15616C49.2458 6.14359 49.1892 5.81668 49.0884 5.52749C49.051 5.4223 49.0266 5.31449 49.0026 5.20861C48.9622 5.02973 48.9229 4.85633 48.8241 4.71021C48.6604 4.4776 48.4778 4.11297 48.5408 4.06268C48.5757 4.03474 48.6748 3.9971 48.7938 3.95191C48.8889 3.91576 48.9968 3.87478 49.0947 3.83007C49.1508 3.80445 49.2041 3.77925 49.2541 3.75559C49.4003 3.68635 49.5186 3.63038 49.5983 3.61632C49.6267 3.61298 49.6645 3.603 49.706 3.59202C49.8208 3.56163 49.9646 3.52357 50.0201 3.59746C50.0908 3.69157 50.0127 4.09384 49.9817 4.25339C49.9796 4.26437 49.9777 4.27421 49.976 4.28271C49.9509 4.41474 50.0012 4.72907 50.1397 4.45246C50.2235 4.29234 50.2462 4.07536 50.2638 3.90635C50.2766 3.78338 50.2868 3.68581 50.316 3.65404C50.3852 3.5786 50.4419 3.54088 50.5804 3.52202C50.608 3.51807 50.6632 3.51275 50.7351 3.50583C51.0067 3.47964 51.5164 3.43051 51.6757 3.34599C51.8771 3.23911 51.9275 3.35228 51.8709 3.66033C51.8217 3.92235 51.7772 4.56357 51.7581 4.83904C51.7552 4.88082 51.7529 4.91418 51.7512 4.93654C51.745 5.09999 51.6505 5.31374 51.2162 5.37032C50.7818 5.4269 50.9392 5.5715 51.1469 5.59664C51.1563 5.59778 51.1658 5.59892 51.1753 5.60006C51.3768 5.62422 51.6042 5.65148 51.5561 5.74753C51.542 5.77386 51.5231 5.85067 51.4975 5.95402C51.4317 6.22081 51.3221 6.66441 51.1406 6.87285C51.0409 6.9874 50.9718 7.10689 50.9145 7.20591C50.8272 7.35686 50.7673 7.46026 50.6685 7.42609C50.6115 7.40638 50.5064 7.35463 50.388 7.29635C50.1665 7.18733 49.8985 7.05545 49.8124 7.06774C49.7627 7.07482 49.6697 7.06241 49.5751 7.0498C49.4176 7.02882 49.2561 7.00728 49.2836 7.07403C49.3277 7.17462 49.5417 7.33179 49.9194 7.45123C49.9511 7.4611 49.9823 7.47062 50.0127 7.47991C50.3509 7.58313 50.5962 7.658 50.423 7.85987C50.3627 7.92813 50.2838 8.01114 50.2002 8.09906C50.022 8.28646 49.8225 8.49621 49.7368 8.63314C49.7117 8.67086 49.6928 8.7023 49.6739 8.73373L49.8753 8.77145L50.593 8.91605L50.3915 9.47557C50.4312 9.49786 50.4709 9.51918 50.5102 9.54029C50.5706 9.57276 50.6302 9.60474 50.6874 9.63902L52.8151 8.43197L53.4698 8.06105L53.7153 8.77145L53.8412 9.13608L54.4455 8.92233C54.4442 8.91708 54.4429 8.91211 54.4416 8.90735C54.4369 8.88931 54.4329 8.87439 54.4329 8.85947C54.4078 8.64572 54.307 8.32509 54.1119 7.72785C53.9167 7.12432 54.2756 7.13061 54.3511 7.1369C54.4266 7.14318 55.1443 7.21234 55.736 7.33807C56.3214 7.45752 56.5795 7.39465 56.6173 7.30664C56.6551 7.21862 56.2648 7.06774 55.8871 7.00488C55.7483 6.97946 55.6163 6.93877 55.4874 6.89902C55.2654 6.83059 55.0525 6.76496 54.8295 6.78484C54.477 6.81627 53.9608 6.79113 53.9482 6.69054C53.9413 6.63555 53.9608 6.5054 53.984 6.35042C54.0032 6.22192 54.0249 6.07636 54.0363 5.94242C54.0434 5.85988 54.0485 5.78029 54.0532 5.7057C54.0655 5.51324 54.0756 5.35406 54.1119 5.26345C54.1248 5.23125 54.1364 5.18587 54.1493 5.13585C54.1866 4.9905 54.234 4.80597 54.3511 4.79194C54.4865 4.77572 54.8221 5.0572 54.9975 5.20425C55.026 5.22815 55.0502 5.2485 55.0687 5.26345C55.2009 5.37032 55.566 5.51492 55.3583 5.19429C55.2385 5.00938 55.0161 4.84957 54.842 4.72449C54.7143 4.63269 54.6126 4.5596 54.5966 4.50904C54.5525 4.38959 54.5399 4.30157 54.6092 4.14441C54.6182 4.12396 54.633 4.09169 54.6519 4.0504C54.7782 3.77432 55.0893 3.09461 55.1002 2.84305C55.1128 2.56015 55.2702 2.57901 55.566 2.83048C55.8619 3.08195 56.7054 3.64147 56.8817 3.75463C57.058 3.86779 57.2342 4.10669 57.0265 4.60962C56.8188 5.11256 57.0769 5.03712 57.2342 4.82337L57.2523 4.79956C57.4058 4.59688 57.5833 4.36245 57.656 4.47132C57.6764 4.5019 57.7451 4.56693 57.8376 4.65448C58.0873 4.89087 58.5106 5.29148 58.6254 5.62179C58.6866 5.80513 58.7757 5.9565 58.8492 6.08133C58.9571 6.26468 59.0313 6.39076 58.9339 6.47679C58.8759 6.52806 58.7513 6.61331 58.612 6.70874C58.3583 6.88243 58.0554 7.08981 58.0148 7.18719C57.9918 7.24235 57.9234 7.33279 57.8529 7.42596C57.7305 7.58766 57.6019 7.75759 57.6938 7.76557C57.8323 7.77814 58.1344 7.64612 58.4995 7.30664C58.5267 7.28094 58.5533 7.25553 58.5793 7.23063C58.904 6.9205 59.1442 6.69109 59.2549 7.01116C59.3009 7.14428 59.3536 7.3176 59.4081 7.49689C59.4282 7.56316 59.4486 7.63025 59.469 7.69642L62.8683 3.77977L63.3845 3.18253L63.8062 3.75463L64.4672 3.13224L65.3548 2.2961L65.5248 3.50316L65.7199 4.91768C65.7955 4.57819 65.8962 4.16955 65.9466 4.06896C66.0284 3.90551 66.1165 3.63518 66.2676 3.10709C66.4187 2.58529 66.6768 2.76761 66.7271 2.80533C66.7775 2.84305 67.2622 3.2454 67.621 3.62261C67.9862 3.99352 68.2002 4.07525 68.2694 4.03124C68.3387 3.98724 68.1309 3.69176 67.8917 3.45915C67.8077 3.37523 67.7351 3.28395 67.664 3.19445C67.538 3.03588 67.4164 2.88292 67.2433 2.78647C66.9727 2.63559 66.6201 2.37154 66.6579 2.28982C66.6783 2.24909 66.7537 2.16807 66.8446 2.07047C66.922 1.98727 67.0106 1.89203 67.086 1.79945C67.1219 1.75498 67.1565 1.71117 67.1896 1.66921C67.3017 1.52726 67.3971 1.40647 67.47 1.35309C67.4913 1.33745 67.5172 1.31441 67.5459 1.28885C67.6441 1.2014 67.7754 1.08441 67.8728 1.13305C67.9865 1.19874 68.1058 1.6388 68.1498 1.80129C68.1521 1.80986 68.1542 1.81766 68.1561 1.8246C68.1939 1.96291 68.389 2.24581 68.3953 1.91261C68.4026 1.71937 68.321 1.49652 68.2573 1.32256C68.2111 1.19657 68.1744 1.09622 68.1876 1.05133C68.2191 0.944452 68.2505 0.875298 68.3764 0.79357C68.3849 0.78849 68.3961 0.78187 68.4095 0.77388C68.5956 0.663215 69.2239 0.289657 69.3648 0.102028C69.5096 -0.0928609 69.6166 0.00144026 69.7047 0.322064C69.7928 0.642688 70.1265 1.45997 70.1957 1.62342C70.265 1.78688 70.2775 2.03835 69.881 2.30239C69.4844 2.56643 69.711 2.63559 69.925 2.56015L69.942 2.55416C70.1525 2.47989 70.3972 2.39354 70.3972 2.50985C70.3972 2.54187 70.4143 2.62131 70.4374 2.72808C70.5005 3.01965 70.6077 3.51502 70.5294 3.80492C70.4869 3.96203 70.4771 4.11122 70.469 4.23524C70.4567 4.42386 70.4482 4.55424 70.3342 4.56562C70.266 4.57471 70.1303 4.57558 69.9795 4.57656C69.713 4.57828 69.3994 4.58031 69.327 4.62849C69.2858 4.65595 69.1944 4.68675 69.0995 4.71876C68.9338 4.77467 68.757 4.83427 68.8171 4.88624C68.9052 4.9554 69.1319 5.00569 69.4844 4.96797L69.6606 4.89253L69.6795 4.93654L69.7109 4.93155C70.0922 4.87091 70.3824 4.82476 70.3027 5.10628C70.2803 5.18706 70.2514 5.28066 70.2207 5.38021C70.2083 5.42011 70.1957 5.46097 70.1831 5.50234C70.7371 5.13142 71.2533 4.79823 71.7254 4.52161L74.1994 3.06937L75.4458 2.35268L75.1436 3.75463L73.8154 9.94707L73.7713 10.1671L73.595 10.3054L72.6193 11.0913L72.5689 12.4618L72.5564 12.8201L72.3927 12.9081C72.3958 12.9238 72.3974 12.9411 72.399 12.9584C72.4006 12.9757 72.4021 12.993 72.4053 13.0087C72.4242 13.191 72.5501 13.3356 72.6067 12.9521C72.6571 12.5686 72.8459 12.4869 72.997 12.4806C73.1418 12.4743 73.8594 12.4303 74.1301 12.3863C74.4008 12.3423 74.5015 12.3863 74.4071 12.5624C74.3191 12.7263 74.2585 13.3213 74.2404 13.4985C74.2391 13.5116 74.238 13.5223 74.2371 13.5305C74.2245 13.6563 74.1868 13.7065 74.1175 13.7631C74.0885 13.7868 74.002 13.7951 73.8932 13.8055C73.7424 13.8199 73.5488 13.8383 73.4062 13.9077C73.1607 14.0272 73.4377 14.0712 73.5573 14.0523C73.5724 14.0499 73.5921 14.0465 73.6151 14.0426C73.7738 14.0152 74.0909 13.9605 74.1679 14.0209C74.236 14.0743 74.1951 14.2102 74.1643 14.3128C74.1552 14.343 74.147 14.3703 74.1427 14.3918C74.134 14.4573 74.0858 14.553 74.0276 14.6686C74.002 14.7195 73.9745 14.7742 73.9476 14.8319C73.9093 14.9137 73.8723 15.0062 73.839 15.0893C73.7955 15.1977 73.7585 15.2902 73.7335 15.3222C73.6832 15.3788 73.3621 15.2091 73.1607 15.0645C73.0346 14.974 72.8814 14.9377 72.7227 14.9C72.6278 14.8775 72.531 14.8546 72.4367 14.8193C72.1849 14.725 71.8954 14.6747 71.8828 14.7439C71.8765 14.813 72.0087 14.9387 72.4116 15.0771C72.8145 15.2091 73.2866 15.4228 73.3307 15.448L73.3323 15.4489C73.38 15.4761 73.591 15.5962 73.2677 15.888C73.2963 15.888 73.331 15.8941 73.3742 15.9017C73.4069 15.9075 73.4445 15.9141 73.488 15.9195C73.6747 15.9461 74.0216 15.9226 74.3245 15.902C74.4506 15.8935 74.569 15.8855 74.6652 15.8818C74.965 15.8702 74.853 16.1434 74.7014 16.513C74.6875 16.547 74.6732 16.5818 74.6589 16.6173C74.4826 17.0322 74.47 17.3277 74.5267 17.4472C74.5617 17.5171 74.6591 17.3639 74.7552 17.2129C74.8147 17.1194 74.8737 17.0267 74.917 16.9882C74.9944 16.9195 75.0806 16.5604 75.1476 16.2815C75.1786 16.1522 75.2055 16.0401 75.2254 15.9823C75.2633 15.8727 75.3967 15.8949 75.5915 15.9273C75.7207 15.9488 75.8769 15.9748 76.0501 15.9698C76.3731 15.9604 76.8631 16.1979 77.1424 16.3332C77.2387 16.3798 77.3099 16.4144 77.3406 16.4224C77.4602 16.4539 77.3091 16.6928 77.1769 16.8939C77.051 17.0951 77.0636 17.3403 77.4287 17.0008C77.7938 16.6613 78.0519 16.7305 78.203 16.8436ZM73.2929 14.5364C73.274 14.4295 73.0474 14.2724 72.7452 14.2095C72.443 14.1529 72.5186 14.3289 72.5186 14.3226C72.5186 14.4385 72.6521 14.4758 72.7929 14.5151C72.843 14.5291 72.8941 14.5434 72.9404 14.5615C73.1103 14.6307 73.3118 14.6496 73.2929 14.5364ZM69.8243 2.94364C69.5473 2.93735 69.2829 3.08195 69.1822 3.19511C69.0878 3.30827 69.0311 3.39628 69.1759 3.32713C69.2326 3.30198 69.7614 3.09452 69.9061 3.09452C70.0572 3.09452 70.1013 2.94992 69.8243 2.94364ZM55.6633 6.39449C55.8595 6.44577 56.0442 6.49407 56.1263 6.35734C56.1263 6.35734 56.3403 6.19388 55.9312 6.05558C55.5157 5.91098 55.1317 5.93613 55.0247 6.06186C54.9239 6.18131 55.1758 6.30705 55.4401 6.34477C55.5129 6.35514 55.5889 6.37503 55.6633 6.39449ZM50.8951 5.86697C50.6685 5.74753 50.3852 5.7601 50.2593 5.81668C50.1334 5.86697 50.0516 5.91727 50.2027 5.92355C50.2593 5.92355 50.7818 5.96756 50.9014 6.02414C51.0273 6.08701 51.1217 5.98642 50.8951 5.86697ZM49.7683 5.16286C49.7054 4.82337 49.5291 4.56562 49.4032 4.54047C49.2773 4.52161 49.2899 4.74793 49.3654 4.94282C49.385 4.99342 49.4008 5.04953 49.4164 5.10498C49.461 5.26312 49.504 5.41596 49.6298 5.42062C49.6298 5.42062 49.8313 5.50234 49.7683 5.16286ZM11.6614 3.69754C11.8459 3.70366 12.0215 3.70949 12.0673 3.57231C12.0673 3.57231 12.2247 3.38371 11.8344 3.3397C11.4441 3.2957 11.1042 3.39628 11.0349 3.5283C10.9657 3.66033 11.2175 3.71691 11.4567 3.69805C11.5219 3.6929 11.5923 3.69524 11.6614 3.69754ZM4.76506 22.3068C4.64546 22.0994 4.45661 21.9233 4.38736 22.0491C4.31812 22.1811 4.42513 22.508 4.67693 22.816C4.92873 23.1241 4.99798 22.8852 4.99798 22.8852C5.08667 22.7687 4.98152 22.621 4.87247 22.4679C4.83446 22.4145 4.79598 22.3604 4.76506 22.3068ZM4.99453 23.7943C5.00831 23.7744 5.01829 23.7601 5.02316 23.7528C5.12388 23.6145 5.02316 23.6522 4.89096 23.7213C4.74618 23.7905 4.53844 24.0231 4.47549 24.3123C4.41254 24.6015 4.56992 24.5889 4.60769 24.438C4.63511 24.3121 4.90139 23.9285 4.99453 23.7943ZM7.93147 26.6698C7.95035 26.7767 8.17698 26.9339 8.47914 26.9967C8.7813 27.0596 8.70576 26.8773 8.70576 26.8836C8.70576 26.7677 8.57227 26.7304 8.43149 26.6911C8.38135 26.6771 8.33028 26.6628 8.28399 26.6447C8.11403 26.5755 7.91258 26.5629 7.93147 26.6698ZM9.05199 27.4431C9.00163 27.5562 8.98904 27.8014 9.08976 28.0026C9.19048 28.2038 9.27861 28.1221 9.23454 28.0152C9.18418 27.9083 9.15271 27.4431 9.15271 27.3928C9.14641 27.2608 9.10235 27.3299 9.05199 27.4431ZM36.3731 27.6978C36.1844 27.6709 36.0052 27.6454 35.9444 27.7763C35.9444 27.7763 35.7618 27.9523 36.1521 28.034C36.5424 28.1158 36.8887 28.0529 36.9705 27.9335C37.0523 27.814 36.8068 27.7323 36.5676 27.7197C36.5046 27.7165 36.4383 27.707 36.3731 27.6978ZM32.7937 24.2809C32.7969 24.2824 32.8 24.284 32.8032 24.2871C32.8787 24.3311 33.0487 24.2431 33.1179 24.174C33.1368 24.1614 33.162 24.1363 33.1871 24.1112L33.1872 24.1111L32.9794 23.9099C32.9606 23.9225 32.9354 23.9351 32.9102 23.9476L32.9102 23.9477C32.7969 24.0105 32.7276 24.1991 32.7843 24.2746C32.7874 24.2777 32.7906 24.2793 32.7937 24.2809ZM24.2356 7.35065L24.2923 7.38208C24.3301 7.33807 24.2671 7.27521 24.0594 7.1369C23.8327 6.9923 23.5243 6.86657 23.3858 6.83513L23.3921 7.2312L23.4236 6.94201L24.2356 7.35065ZM25.6898 3.88036C25.4695 3.93694 25.2932 4.10669 25.2428 4.21985C25.1862 4.33301 25.161 4.40845 25.268 4.32672C25.2745 4.32209 25.2879 4.31201 25.3065 4.29809C25.4141 4.21743 25.6939 4.00776 25.7905 3.98095C25.9038 3.94952 25.9101 3.82378 25.6898 3.88036ZM25.6016 6.15616C25.7338 6.11844 25.6646 6.01157 25.2239 6.0933C25.2239 6.0933 25.1358 6.20646 25.161 6.30076C25.1769 6.36038 25.296 6.29938 25.4148 6.23851C25.484 6.2031 25.553 6.16773 25.6016 6.15616ZM24.8399 6.58366C24.8274 6.53337 24.8022 6.47679 24.7707 6.42649C24.6637 6.26304 24.1286 5.84811 23.9838 5.81039C23.8264 5.77896 23.8202 5.89212 23.9398 5.98014C23.9804 6.00649 24.038 6.03546 24.1012 6.06726C24.2341 6.13406 24.3918 6.21334 24.4685 6.30705C24.5013 6.34523 24.5448 6.3846 24.5906 6.42618C24.6505 6.48044 24.7145 6.53846 24.7644 6.60252L24.7833 6.55223L24.8399 6.58366ZM24.5315 4.08782C24.286 3.89922 24.0153 3.83636 23.9209 3.89294C23.8202 3.94952 23.9649 4.08782 24.1349 4.17584C24.1795 4.19894 24.2246 4.22811 24.2688 4.25674C24.3931 4.3372 24.5109 4.41348 24.5944 4.33929C24.5944 4.33929 24.777 4.27643 24.5315 4.08782ZM24.0405 4.55612C23.9055 4.46033 23.7767 4.36888 23.625 4.33301C23.5306 4.31415 23.4173 4.27644 23.3229 4.24501L23.3228 4.24499L23.3291 4.50904C23.4928 4.58448 23.8327 4.74165 24.1097 4.9051C24.4748 5.11885 24.6637 5.13142 24.7078 5.08113C24.7518 5.03084 24.5252 4.84223 24.286 4.7165C24.1984 4.66817 24.1185 4.61142 24.0405 4.55612ZM17.714 24.5386L16.9208 24.9975C16.4235 25.2804 15.9262 25.4879 15.4415 25.6325C16.3416 27.1979 17.6762 28.4993 19.3759 29.1845C19.7598 29.3354 20.1627 29.4611 20.5719 29.5491C20.9496 29.2851 21.2958 28.9645 21.5854 28.5936C22.2527 27.7511 22.687 26.739 22.9892 25.7017L19.3255 26.6698L18.6016 26.8584L18.5386 26.1166L18.4316 24.8907L17.7203 24.5323L17.714 24.5386ZM15.3281 5.55264C15.0889 5.7601 14.5916 6.20646 14.5727 6.32591C14.5664 6.34477 14.5664 6.35734 14.5727 6.36991L15.3281 5.55264ZM14.3839 4.9051C14.5035 4.77937 14.3524 4.71021 13.9243 5.08742C13.9243 5.08742 13.8992 5.26973 13.9936 5.35775C14.0509 5.41091 14.1482 5.25661 14.2421 5.10764C14.2926 5.02758 14.3421 4.94906 14.3839 4.9051ZM13.1438 2.38412C13.2508 2.27096 13.1752 2.13265 12.9675 2.34011C12.7598 2.54757 12.6842 2.85562 12.7031 3.01279C12.722 3.16996 12.7472 3.27055 12.8038 3.11338C12.8227 3.05051 13.0367 2.49728 13.1438 2.38412ZM13.6474 5.74753C13.427 5.64065 12.5646 5.54006 12.3758 5.60293C12.1869 5.6658 12.2499 5.80411 12.4387 5.81668C12.5069 5.82107 12.5981 5.81473 12.6973 5.80782C12.8821 5.79496 13.0948 5.78016 13.2382 5.82925C13.2992 5.84839 13.3727 5.86175 13.4503 5.87586C13.6532 5.91274 13.8843 5.95475 13.9936 6.11844C13.9936 6.11844 13.8677 5.8544 13.6474 5.74753ZM7.28308 23.5956C7.20754 24.1614 7.34603 24.2494 7.3838 24.0797C7.39688 24.0209 7.43485 23.9373 7.47369 23.8517C7.54705 23.6902 7.62349 23.5218 7.54118 23.5013C7.42157 23.4762 7.28308 23.5956 7.28308 23.5956ZM8.25881 25.0667C8.40989 24.9284 8.50432 24.8341 8.56727 24.7524C8.60504 24.7021 8.74353 24.5826 8.9072 24.4506C8.9072 24.3626 8.9009 24.262 8.88832 24.1425C8.83166 24.0954 8.77658 24.0498 8.7215 24.0042C8.66642 23.9587 8.61133 23.9131 8.55468 23.8659C8.49802 24.1551 8.45396 24.5009 8.44137 24.6203C8.42248 24.8027 8.38471 24.8718 8.25881 25.0667ZM9.51782 25.2993C9.37303 25.2679 9.2912 25.3496 9.4171 25.4439C9.543 25.5319 10.204 25.6577 10.3991 25.6325C10.5943 25.6074 10.7454 25.4376 10.7454 25.4376C10.6312 25.5297 10.4589 25.5086 10.3031 25.4896C10.2355 25.4813 10.1711 25.4734 10.1158 25.4753C9.99369 25.4795 9.83208 25.4162 9.69512 25.3625C9.62741 25.336 9.56572 25.3118 9.51782 25.2993ZM10.5565 26.0097C10.4684 26.0537 10.4432 26.192 10.4432 26.192C10.6761 26.5755 10.802 26.5567 10.7391 26.4372C10.7198 26.3965 10.7027 26.3289 10.685 26.2591C10.6508 26.1239 10.6146 25.9807 10.5565 26.0097ZM13.4863 26.1001C13.5172 26.2024 13.5482 26.3054 13.5844 26.4058C13.6096 26.4718 13.6332 26.5378 13.6568 26.6038C13.6804 26.6698 13.704 26.7358 13.7292 26.8018V25.9154C13.6285 25.9217 13.5278 25.928 13.4333 25.928C13.4515 25.9847 13.4689 26.0423 13.4863 26.1001ZM14.9253 28.8199C15.5359 29.5051 16.3102 30.0269 17.2733 30.2344C17.9658 30.379 18.6519 30.3413 19.294 30.159C18.9604 30.0395 18.6393 29.8949 18.3246 29.7377C16.883 29.0022 15.7625 27.9083 14.9253 26.607V28.8199ZM24.5756 29.0965C26.2941 28.2101 27.4776 26.5755 28.2456 24.8467C28.3904 24.526 28.5225 24.1928 28.6422 23.8534C28.3778 23.9414 28.1134 24.0294 27.8616 24.1237L27.3013 24.3374L27.018 24.4443L26.7599 24.2934L26.5711 24.1803L26.4326 24.526L26.313 24.8215L26.0045 24.9032L23.4865 25.5696C23.0899 27.0219 22.4541 28.4867 21.3336 29.5114C21.299 29.5459 21.2615 29.5775 21.2251 29.6081C21.2085 29.6221 21.192 29.6359 21.1762 29.6497C22.3345 29.7943 23.518 29.6372 24.5756 29.0965ZM29.5235 26.4686C29.7501 26.4686 29.9641 26.3429 30.0397 26.2486C30.1152 26.1543 30.1593 26.0851 30.0397 26.1417C30.0307 26.1451 30.01 26.1538 29.9813 26.1659C29.8488 26.2217 29.5463 26.3492 29.4479 26.3492C29.3283 26.3492 29.2968 26.4686 29.5235 26.4686ZM29.3183 25.147C29.5395 25.139 29.8196 25.1289 29.8823 25.0856C29.9179 25.0595 29.9965 25.0298 30.0766 24.9996C30.2087 24.9497 30.3448 24.8984 30.2977 24.8592C30.2222 24.7964 29.9893 24.7649 29.6431 24.8278C29.492 24.8592 29.3535 24.8844 29.2528 24.8907L29.1395 25.1547C29.1882 25.1518 29.2505 25.1495 29.3183 25.147ZM30.1656 24.2871C30.0271 24.2871 30.0711 24.4066 30.5181 24.438C30.5181 24.438 30.6314 24.35 30.6314 24.2557C30.6314 24.1951 30.4935 24.2254 30.3598 24.2548C30.2856 24.2711 30.2127 24.2871 30.1656 24.2871ZM31.242 26.8899C31.349 26.8584 31.242 26.6887 31.1035 26.5629C31.0641 26.5287 31.0261 26.488 30.989 26.4482C30.8898 26.3418 30.7969 26.2423 30.7006 26.2926C30.7006 26.2926 30.5118 26.3115 30.7006 26.5504C30.8895 26.7893 31.135 26.9213 31.242 26.8899ZM30.2474 23.4196C30.4992 23.4321 30.7951 23.4447 30.8517 23.4007C30.9021 23.363 30.9084 23.3378 30.8076 23.2938C30.6252 23.3315 30.4365 23.3755 30.2478 23.4195L30.2474 23.4196ZM31.0406 24.2243C31.1035 24.4066 31.519 24.941 31.6575 25.0101C31.796 25.0793 31.8337 24.9724 31.7393 24.8529C31.7053 24.8122 31.6501 24.7641 31.5898 24.7116C31.4827 24.6183 31.3596 24.5112 31.3113 24.4066C31.2883 24.357 31.2521 24.3034 31.214 24.247C31.1264 24.1173 31.0287 23.9728 31.0594 23.8282C31.0594 23.8282 30.9776 24.042 31.0406 24.2243ZM31.7771 23.3944C31.6701 23.4259 31.689 23.4887 31.903 23.7088C31.9722 23.7779 32.0541 23.8534 32.1296 23.9162C32.1422 23.7968 32.1674 23.6899 32.1989 23.6019C32.179 23.5903 32.1592 23.5786 32.1395 23.567C31.9781 23.4719 31.8276 23.3832 31.7771 23.3944ZM32.5358 25.8391C32.6432 25.6638 32.6845 25.5965 32.8347 25.5005C33.0046 25.3873 33.7348 24.897 33.7726 24.7586C33.8104 24.6203 33.7223 24.6455 33.1179 24.8655C32.9794 24.9158 32.8661 24.9661 32.7717 25.0101C32.7276 25.2113 32.6836 25.3936 32.6584 25.4502C32.6143 25.5382 32.5766 25.6639 32.5199 25.8651C32.5254 25.8562 32.5307 25.8475 32.5358 25.8391ZM33.7915 26.192C33.6593 26.2989 33.7978 26.3869 34.2699 26.06C34.2699 26.06 34.314 25.884 34.2321 25.7897C34.1791 25.7286 34.0654 25.8706 33.9559 26.0072C33.8964 26.0816 33.8381 26.1544 33.7915 26.192ZM34.912 28.8953C35.1386 28.713 35.2519 28.4175 35.2519 28.2604C35.2519 28.1032 35.2394 27.9963 35.1638 28.1472C35.1323 28.2101 34.8617 28.7319 34.742 28.8325C34.6224 28.933 34.6854 29.0776 34.912 28.8953ZM44.6379 27.3236C44.726 27.3739 44.9652 27.2922 45.1729 27.1099C45.3622 26.9381 45.238 26.8863 45.2191 26.8784C45.2173 26.8776 45.2164 26.8773 45.217 26.8773C45.1336 26.8171 45.0332 26.8932 44.9283 26.9726C44.8906 27.0011 44.8524 27.0301 44.8141 27.0533C44.6693 27.1413 44.5497 27.2733 44.6379 27.3236ZM48.8241 7.36951C48.8241 7.36951 48.6667 7.39465 48.6163 7.49524C48.5838 7.55613 48.7376 7.59867 48.8863 7.63979C48.9679 7.66235 49.0479 7.68449 49.0947 7.70899C49.2332 7.77814 49.2521 7.63355 48.8241 7.36951ZM47.9931 6.20017C47.8861 6.05558 47.7917 6.14359 47.8294 6.30705C47.8435 6.36548 47.8723 6.44042 47.9036 6.52186C47.9566 6.65947 48.0167 6.81563 48.0246 6.94201L48.2008 7.14947C48.182 6.84771 48.0749 6.31962 47.9931 6.20017ZM44.5686 25.5822C44.7008 25.5445 45.154 25.1359 45.2422 24.985C45.3303 24.8341 45.2925 24.6329 45.2862 24.6329C45.2907 24.7655 45.18 24.8794 45.081 24.9813C45.0392 25.0243 44.9995 25.0652 44.9715 25.1044C44.9117 25.184 44.789 25.2585 44.6798 25.3248C44.6164 25.3633 44.5575 25.399 44.5182 25.4313C44.4175 25.5193 44.4301 25.6199 44.5686 25.5822ZM45.5443 23.4762C45.4121 23.451 45.2107 23.539 45.3996 23.6019C45.431 23.6145 45.6702 23.6836 45.7395 23.7025C45.7835 23.7088 45.8465 23.715 45.8969 23.7025L45.9283 23.5516C45.8906 23.5202 45.8402 23.4887 45.7898 23.4887C45.7664 23.4887 45.7473 23.4896 45.7296 23.4904C45.6807 23.4927 45.6413 23.4946 45.5443 23.4762ZM45.7961 24.1551C45.5192 24.1991 45.4814 24.218 45.538 24.2809C45.5628 24.3055 45.6421 24.3242 45.7462 24.3486L45.7521 24.35L45.7835 24.2117L45.7961 24.1551ZM45.8261 26.849L45.8213 26.8458C45.7206 26.7767 45.7521 26.8458 45.8024 26.9464C45.8591 27.0407 46.0291 27.1853 46.2305 27.2231C46.4319 27.2608 46.4193 27.1539 46.3123 27.1287C46.2089 27.1044 45.8819 26.8862 45.8261 26.849ZM45.601 25.073C45.5821 25.161 45.6702 25.2553 45.6702 25.2553C46.0731 25.2993 46.1298 25.1987 46.0102 25.1736C45.9665 25.1667 45.9027 25.1397 45.8384 25.1125C45.7265 25.0651 45.613 25.0171 45.601 25.073ZM66.9223 26.1669C67.0041 26.2738 67.3315 26.3178 67.6903 26.2172C68.0491 26.1166 67.8728 25.9657 67.8666 25.9657C67.8077 25.8482 67.6512 25.8802 67.4836 25.9144C67.4182 25.9278 67.3511 25.9415 67.2874 25.9468C67.0608 25.9657 66.8405 26.06 66.9223 26.1669ZM73.9413 17.6169C74.0168 17.0511 73.8783 16.9631 73.8405 17.1328C73.8278 17.188 73.7914 17.2683 73.7535 17.3516C73.6793 17.5151 73.5998 17.6904 73.6832 17.7112C73.8028 17.7364 73.9413 17.6169 73.9413 17.6169ZM72.9655 16.1395C72.8145 16.2778 72.72 16.3721 72.6571 16.4539C72.6193 16.5041 72.4745 16.6299 72.3171 16.7493C72.3171 16.8562 72.3234 16.9819 72.3423 17.1265C72.4179 17.7615 72.4368 17.8495 72.5438 17.7552C72.6508 17.6609 72.7578 16.7933 72.783 16.5859C72.8019 16.4036 72.8396 16.3344 72.9655 16.1395ZM71.0644 14.1592C71.077 14.09 70.9889 13.8889 70.9008 13.7065L70.6616 13.8386C70.6655 13.8532 70.6695 13.868 70.6736 13.8831C70.6887 13.9396 70.7046 13.9991 70.7245 14.0586C70.8252 14.3918 70.9574 14.5804 71.0518 14.6244C71.1108 14.6519 71.0937 14.5079 71.0771 14.3682C71.0671 14.2842 71.0573 14.2017 71.0644 14.1592ZM70.6678 15.2028C70.756 15.1588 70.7812 15.0205 70.7812 15.0205C70.5482 14.637 70.4223 14.6558 70.4853 14.7753C70.5046 14.816 70.5217 14.8836 70.5393 14.9534C70.5735 15.0886 70.6097 15.2318 70.6678 15.2028ZM71.0518 16.6865C70.9763 16.655 70.8945 16.6236 70.8189 16.5984L70.97 16.743C70.9952 16.7242 71.0204 16.7053 71.0518 16.6865ZM71.5355 15.8437C71.6032 15.8702 71.6649 15.8944 71.7128 15.9069C71.8576 15.9446 71.9331 15.8566 71.8135 15.7686C71.6876 15.6743 71.0267 15.5486 70.8315 15.5737C70.6364 15.5989 70.4853 15.7686 70.4853 15.7686C70.5994 15.6765 70.7718 15.6976 70.9275 15.7166C70.9951 15.7249 71.0596 15.7328 71.1148 15.7309C71.2369 15.7267 71.3986 15.79 71.5355 15.8437ZM69.5788 14.9576C69.497 14.8193 69.4907 14.7627 69.4655 14.5301C69.4592 14.5175 69.4592 14.505 69.4592 14.4987L68.9304 14.7879L70.0006 15.8189C70.0006 15.8126 70.0021 15.8079 70.0037 15.8032C70.0053 15.7985 70.0069 15.7937 70.0069 15.7875C70.0257 15.6743 69.6669 15.0959 69.5788 14.9576ZM71.5114 17.6798L71.4799 17.8369L71.568 17.9312C71.5743 17.925 71.5743 17.925 71.5743 17.9187C71.5932 17.8747 71.7002 17.5415 71.7317 17.4409C71.7569 17.3466 71.7632 17.1517 71.6876 17.1077H71.6813C71.675 17.1077 71.6688 17.1014 71.6625 17.1014C71.5995 17.0888 71.524 17.1454 71.4736 17.2271L71.5869 17.334L71.5114 17.6798ZM72.0779 13.8134C72.0842 13.9454 72.1283 13.8763 72.1787 13.7631C72.2227 13.65 72.2416 13.4048 72.1409 13.2036C72.0968 13.1282 72.0591 13.0904 72.0339 13.0842L71.9835 13.1093C71.9772 13.1282 71.9835 13.1596 71.9961 13.191C72.0465 13.2979 72.0779 13.7631 72.0779 13.8134ZM67.7406 2.36526C67.6085 2.40298 67.7281 2.61673 67.898 2.7739C67.9432 2.81566 67.9866 2.86497 68.0291 2.91334C68.1467 3.04698 68.2579 3.17339 68.3827 3.11338C68.3827 3.11338 68.622 3.10081 68.3953 2.79904C68.1687 2.49728 67.8728 2.32754 67.7406 2.36526ZM67.7344 5.35775C67.5581 5.07484 67.2748 4.7165 67.1552 4.65363C66.9915 4.55933 66.9349 4.69135 67.0545 4.83595C67.0957 4.88852 67.1627 4.95107 67.2355 5.01905C67.363 5.13806 67.5083 5.27372 67.5644 5.40175L67.5833 5.43948L67.6651 5.39547L67.7344 5.35775ZM66.5509 5.98642C66.3431 5.80411 66.1291 5.65322 66.0536 5.62808C66.0405 5.62317 66.0235 5.6174 66.0041 5.61079C65.9488 5.592 65.8733 5.56633 65.8081 5.53378L65.8899 6.11216C65.9025 6.11216 65.9167 6.11373 65.9308 6.1153C65.945 6.11687 65.9592 6.11844 65.9717 6.11844C66.0221 6.11844 66.0913 6.14988 66.1669 6.1876L66.5509 5.98642ZM59.4312 26.1732C60.2558 25.796 61.0238 25.2993 61.7037 24.6958L61.3638 24.2557L57.9393 24.7649C57.9707 24.8089 58.0085 24.8529 58.0463 24.897C58.4429 25.3622 58.9087 25.8211 59.4312 26.1732ZM58.7765 10.6512C58.7513 10.6638 58.7136 10.6952 58.6695 10.7329L58.978 10.5569C58.9024 10.5757 58.8206 10.6135 58.7765 10.6512ZM56.5292 12.1223C56.7621 11.9337 57.0139 11.7514 57.2783 11.5753C57.2783 11.5313 57.2531 11.4936 57.1839 11.4622C57.0273 11.4008 56.7665 11.5774 56.5249 11.7409C56.4945 11.7616 56.4643 11.782 56.4348 11.8017C56.4725 11.9085 56.504 12.0154 56.5292 12.1223ZM59.5823 8.94119C59.4753 9.08579 59.4123 9.14237 59.2549 9.2241L59.2464 9.22861C59.0305 9.34314 58.1966 9.78549 58.1407 9.92193C58.0841 10.0728 58.1848 10.0539 58.8709 9.8842C59.0724 9.83581 59.2295 9.78122 59.3538 9.738C59.5364 9.67455 59.6484 9.63561 59.7271 9.67674L59.6956 9.37498L59.6767 9.18638L59.7019 9.13608L59.5823 8.94119ZM58.2855 8.35024C58.4492 8.24965 58.3044 8.13649 57.7504 8.43825C57.7504 8.43825 57.6812 8.62686 57.7567 8.74002C57.8054 8.81289 57.9454 8.67196 58.081 8.53551C58.1559 8.46009 58.2295 8.38605 58.2855 8.35024ZM57.3916 5.26345C57.1209 5.43319 56.9635 5.74124 56.9447 5.91727C56.9195 6.08701 56.9258 6.20646 57.0265 6.04929C57.0305 6.04352 57.0373 6.03374 57.0463 6.02065C57.1356 5.891 57.4484 5.43711 57.5742 5.35146C57.7126 5.25716 57.6623 5.0937 57.3916 5.26345ZM57.2909 9.08579C57.0769 8.91605 56.1767 8.59542 55.9563 8.62057C55.736 8.63943 55.7738 8.80289 55.9752 8.86575C56.048 8.88846 56.152 8.90461 56.2652 8.92219C56.4654 8.95329 56.6946 8.98888 56.8313 9.07321C56.8944 9.11101 56.9735 9.14469 57.0568 9.18014C57.2643 9.26853 57.4978 9.36796 57.5742 9.56987C57.5742 9.56987 57.5049 9.25553 57.2909 9.08579ZM57.0328 10.6386C57.1398 10.5255 57.0706 10.4689 56.6488 10.362C56.2837 10.2677 55.8116 10.2363 55.6038 10.2551L55.7297 10.8209C55.7353 10.8172 55.7404 10.8134 55.7453 10.8098C55.7567 10.8014 55.7668 10.7939 55.7801 10.7895C55.9084 10.7172 56.2155 10.7102 56.4948 10.7038C56.7499 10.6979 56.9817 10.6926 57.0328 10.6386ZM51.7449 26.1103C52.2863 26.3681 52.8592 26.5755 53.4509 26.7264C55.1128 27.1476 56.8251 27.0722 58.3988 26.5692C57.9015 26.1606 57.4608 25.6828 57.0831 25.1924C57.0624 25.1642 57.0416 25.1365 57.0211 25.109C56.973 25.0448 56.9258 24.9819 56.8817 24.9158L51.7449 25.6765V26.1103ZM60.8161 26.7704C61.9051 26.9842 63.0886 26.5567 63.9196 25.8463C64.1147 25.6765 64.291 25.5005 64.4609 25.3182L63.844 24.9787L62.2262 25.3622L61.9807 25.0478C61.8422 25.1673 61.7037 25.2867 61.5589 25.3999C61.0427 25.8085 60.4888 26.1606 59.9096 26.4498C60.1929 26.5944 60.4951 26.7075 60.8161 26.7704ZM67.8603 23.8345C67.6903 23.8785 67.6525 24.0105 67.8351 24.042C67.9043 24.0545 68.0617 24.0294 68.238 23.9791C68.1309 23.9351 68.0365 23.8848 67.9421 23.8219C67.9106 23.8219 67.8854 23.8282 67.8603 23.8345ZM68.5401 26.3806C68.5527 26.5315 68.6723 26.8018 68.8926 26.959C69.113 27.1162 69.1633 26.9779 69.0437 26.8899C68.9304 26.8018 68.6471 26.3303 68.6157 26.2738C68.5338 26.1354 68.5275 26.236 68.5401 26.3806ZM69.5914 24.4003L69.5788 24.4066C69.5843 24.4093 69.5898 24.4109 69.5948 24.4123C69.6012 24.4141 69.6067 24.4156 69.6103 24.4192L69.5914 24.4003ZM72.3864 18.8617C72.4425 18.8804 72.5233 18.9668 72.6532 19.1578L72.3864 18.8617ZM74.005 19.0212C74.0572 19.1124 74.1052 19.1962 74.149 19.2515C74.2686 19.4023 74.4134 19.3835 74.363 19.1886C74.3127 18.9937 73.7524 18.3336 73.5384 18.2079C73.3244 18.0821 73.0348 18.1261 73.0348 18.1261C73.2295 18.1261 73.3916 18.292 73.5352 18.439C73.5913 18.4963 73.6445 18.5508 73.6958 18.5913C73.8115 18.683 73.9146 18.8632 74.005 19.0212ZM76.2299 17.4181C76.2161 17.438 76.2061 17.4524 76.2012 17.4597C76.1005 17.5918 76.2012 17.554 76.3334 17.4912C76.4782 17.422 76.6922 17.1831 76.7489 16.9002C76.8118 16.611 76.6481 16.6299 76.6167 16.7745C76.5892 16.9004 76.323 17.2839 76.2299 17.4181ZM76.4593 18.8994C76.5789 19.1069 76.7677 19.2829 76.837 19.1572C76.9062 19.0314 76.8055 18.6919 76.5474 18.3902C76.2956 18.0821 76.2264 18.321 76.2264 18.321C76.1377 18.4376 76.2428 18.5852 76.3519 18.7384C76.3899 18.7917 76.4284 18.8458 76.4593 18.8994ZM20.1493 24.996C20.0989 24.996 20.0422 24.971 20.0107 24.9335C19.9603 24.8834 19.9477 24.8083 19.9792 24.7395L20.0611 24.5267C20.08 24.4766 20.1241 24.4328 20.1745 24.4203L24.9819 22.7807C25.0008 22.7744 25.0197 22.7681 25.0449 22.7681C25.0953 22.7681 25.1458 22.7869 25.1836 22.8245C25.234 22.8808 25.2466 22.9559 25.2214 23.0247L24.9693 23.6505C24.9441 23.7069 24.9 23.7444 24.8433 23.7632L20.1997 24.9898C20.1903 24.9898 20.1824 24.9913 20.1745 24.9929L20.1745 24.9929C20.1666 24.9945 20.1587 24.996 20.1493 24.996ZM49.0506 24.8396C48.9875 24.8396 48.9308 24.8083 48.8993 24.7645C48.8615 24.7144 48.8552 24.6518 48.8741 24.5955L49.3026 23.2876L48.9749 24.0385C48.956 24.0886 48.9119 24.1199 48.8678 24.1387C48.8489 24.1449 48.8237 24.1512 48.8048 24.1512C48.7733 24.1512 48.7481 24.1449 48.7229 24.1324L48.5276 24.0385C48.4457 24.001 48.4079 23.9134 48.4268 23.8258L48.4646 23.6818H48.0172C47.9542 23.6818 47.8975 23.6505 47.866 23.6005C47.8282 23.5504 47.8219 23.4878 47.8408 23.4315L48.6032 21.2286L48.4457 21.3162C48.4142 21.335 48.3827 21.3413 48.3512 21.3413C48.3134 21.3413 48.2756 21.3288 48.2441 21.3037C48.1874 21.2599 48.1559 21.1911 48.1685 21.116L48.263 20.6153C48.2504 20.6091 48.2378 20.6028 48.2252 20.5903C48.1811 20.5465 48.1559 20.4902 48.1622 20.4276L48.2 20.1397C48.2 20.1335 48.2015 20.1288 48.2031 20.1241C48.2047 20.1194 48.2063 20.1147 48.2063 20.1084L48.1874 20.0897C48.1433 20.0458 48.1244 19.977 48.137 19.9144L48.4079 18.6878C46.8516 20.4839 42.2017 22.3676 39.0136 23.5066C43.5298 22.1943 46.6035 20.393 46.9142 20.2109C46.9295 20.202 46.9381 20.1969 46.9398 20.196C46.9713 20.1773 47.0028 20.171 47.0406 20.171C47.0784 20.171 47.1162 20.1835 47.1478 20.2023C47.2108 20.2461 47.2423 20.3212 47.2297 20.39L47.091 21.1285C47.0784 21.1848 47.0406 21.2411 46.9839 21.2662C43.4005 22.9573 38.9356 24.1779 38.6784 24.2482L38.667 24.2513C38.6481 24.2576 38.6355 24.2576 38.6166 24.2576C38.5977 24.2576 38.5725 24.2513 38.5536 24.2451L38.163 24.1011C38.0874 24.0761 38.037 24.001 38.037 23.9134C38.037 23.8883 38.0433 23.8633 38.0559 23.8445C36.9362 24.2286 36.1232 24.4814 35.9025 24.55L35.9023 24.5501L35.8569 24.5642C35.838 24.5705 35.8191 24.5705 35.8002 24.5705C35.7624 24.5705 35.7246 24.558 35.6931 24.5392C35.5057 24.4099 34.9095 23.8405 34.6548 23.5972C34.6012 23.546 34.5628 23.5093 34.5464 23.4941C34.496 23.444 34.4771 23.3689 34.496 23.3001C34.5212 23.2312 34.5779 23.1812 34.6535 23.1749C35.523 23.0623 36.5185 22.7681 37.2872 22.5053L36.1152 22.5867H36.1026C36.0459 22.5867 35.9955 22.5616 35.9577 22.5178L35.126 21.5165L34.8803 21.2599C34.8762 21.2537 34.872 21.2482 34.8678 21.2429C34.8657 21.2402 34.8636 21.2376 34.8614 21.2349C34.8551 21.2271 34.8488 21.2192 34.8425 21.2099V21.2161C34.811 21.2787 34.7543 21.3162 34.6913 21.3225C34.6913 21.3225 34.5275 21.335 34.2502 21.3663C32.9586 21.5103 29.6759 21.9421 27.1557 22.8933C27.1368 22.8996 27.1116 22.9058 27.0864 22.9058C27.0549 22.9058 27.0234 22.8996 26.9919 22.8808C26.9666 22.8683 26.3681 22.5116 25.675 21.7481C25.6372 21.7105 25.6246 21.6542 25.6246 21.6041C25.6309 21.5541 25.6561 21.504 25.7002 21.4727C26.3681 20.9846 27.1242 20.5402 27.9559 20.1335C27.9527 20.074 27.9511 20.0146 27.9496 19.9551L27.9495 19.9549C27.948 19.8955 27.9464 19.8361 27.9433 19.7767C27.9117 19.1071 27.8613 18.4187 27.792 17.7303C27.729 17.7053 27.6786 17.649 27.6723 17.5801C27.5463 16.6977 27.414 15.9342 27.2817 15.2834C27.2124 15.7653 26.9918 17.0732 26.5571 18.2623C26.5445 18.2998 26.0783 19.6203 25.9837 19.8831C25.9585 19.9582 25.8829 20.0083 25.8073 20.0083L24.0809 19.977C24.0116 19.977 23.9486 19.9395 23.9171 19.8769C23.8919 19.8331 23.3122 18.7441 22.2537 15.1895C22.2411 15.1395 22.2474 15.0894 22.2726 15.0456L22.3545 14.9016L22.319 14.742C22.2749 14.5443 22.2332 14.3577 22.2033 14.1945C22.197 14.1444 22.2033 14.0943 22.2348 14.0505C22.2537 14.0192 22.7452 13.3371 24.1817 12.5986C24.2132 12.5861 24.2448 12.5736 24.2763 12.5736C24.333 12.5736 24.3897 12.5986 24.4275 12.6362C24.4653 12.68 24.4905 12.7363 24.4842 12.7927C24.4842 12.8236 24.4818 12.8856 24.4784 12.9714C24.4764 13.0243 24.474 13.0863 24.4716 13.1556C24.5031 13.1494 24.5346 13.1494 24.5661 13.1494C24.648 13.1494 24.7047 13.1619 24.7299 13.1681C24.9756 13.2182 24.9819 13.3747 24.9756 13.4247C24.9315 13.8002 24.9 14.1694 24.8874 14.5387C24.8559 15.2521 24.8685 15.9718 24.9378 16.6915C25.0701 15.8717 25.1394 15.0143 25.1394 15.0018C25.1457 14.9455 25.171 14.8954 25.2151 14.8641C25.234 14.8516 25.2592 14.8391 25.2844 14.8328C25.2844 14.8015 25.2844 14.764 25.2907 14.7327V14.5825C25.2907 14.5262 25.3159 14.4761 25.36 14.4385C25.3915 14.4073 25.4356 14.3947 25.4797 14.3947H25.5112C25.5112 14.3947 25.5868 14.4073 25.675 14.426L25.7228 14.4349C25.8094 14.4508 25.8997 14.4675 25.99 14.4886C26.0152 14.4949 26.0404 14.5011 26.0593 14.5011H26.0656C26.5319 14.6013 26.9099 14.7327 27.1935 14.8829C26.9981 13.9942 26.8154 13.3434 26.6831 12.9303C25.9081 12.7864 25.3348 12.5924 25.0512 12.4797C24.9063 12.4234 24.8244 12.3859 24.8244 12.3859C24.7488 12.3546 24.7047 12.2732 24.7173 12.1919C24.7614 11.7976 24.8622 11.3345 25.0134 10.8151C24.9178 10.7543 24.8477 10.705 24.806 10.6757L24.806 10.6757C24.779 10.6567 24.7639 10.6461 24.7614 10.6461C24.711 10.6086 24.6795 10.5397 24.6858 10.4771L24.711 10.2206C24.7173 10.158 24.7551 10.1079 24.8055 10.0766C24.8307 10.0641 24.8622 10.0516 24.8937 10.0516C24.9252 10.0516 24.9504 10.0578 24.9756 10.0704C25.0638 10.1142 25.1583 10.158 25.2592 10.2018C25.234 10.158 25.2277 10.1016 25.2466 10.0516C25.3537 9.74493 25.4356 9.54467 25.4419 9.53841C25.4608 9.48835 25.5049 9.4508 25.5553 9.43202C25.5742 9.42577 25.5994 9.41951 25.6183 9.41951C25.6498 9.41951 25.6813 9.42577 25.7065 9.44454C27.0738 10.183 28.5985 10.5647 30.2241 10.5647C31.667 10.5647 32.6625 10.2581 32.6751 10.2518C32.694 10.2456 32.7129 10.2456 32.7318 10.2456C32.8011 10.2456 32.8704 10.2894 32.9019 10.352C32.946 10.4458 32.9964 10.5585 33.0531 10.6899C33.0846 10.765 33.0657 10.8464 33.009 10.9027L33.3114 11.6474C33.3492 11.735 33.3114 11.8414 33.2232 11.8852C32.9019 12.0542 32.4608 12.2232 32.2025 12.3108C32.2151 12.3984 32.1647 12.4797 32.0765 12.511C31.333 12.7739 30.5643 12.9554 29.7768 13.043C29.8083 13.5061 29.8335 14.0255 29.8524 14.595L30.3438 14.4323C30.3627 14.426 30.3816 14.4198 30.4005 14.4198C30.4383 14.4198 30.4824 14.4323 30.5139 14.4573C30.5643 14.4949 30.5895 14.5512 30.5895 14.6138L30.5769 14.8578C30.6084 14.8641 30.6336 14.8766 30.6588 14.8954C30.7093 14.9329 30.7345 14.9893 30.7282 15.0518L30.6336 16.6164C30.6273 16.6977 30.5706 16.7728 30.4824 16.7916L29.865 16.923C29.8587 17.843 29.8461 18.6878 29.8272 19.3136C30.6394 19.0268 31.1931 18.894 31.2633 18.8772L31.27 18.8756C31.2826 18.8693 31.2952 18.8693 31.3141 18.8693C31.3645 18.8693 31.4086 18.8881 31.4464 18.9194L31.5598 19.0258C31.7867 18.9757 32.0072 18.9319 32.2214 18.8943H32.2529C32.2844 18.8943 32.3096 18.9006 32.3411 18.9131C32.3436 18.9146 32.3507 18.9184 32.3619 18.9244C32.4937 18.9948 33.2009 19.3726 33.8974 19.9895C33.9478 20.0333 33.973 20.1084 33.9541 20.1773C33.9352 20.2461 33.8848 20.2962 33.8155 20.3149C33.7714 20.3275 33.7273 20.34 33.6769 20.3462L33.7714 20.4401C33.9352 20.4088 34.0675 20.3838 34.1683 20.365H34.1998C34.2502 20.365 34.3006 20.3838 34.3385 20.4276C34.5149 20.6216 34.6724 20.8156 34.7984 21.0096C34.8047 21.0159 34.811 21.0284 34.811 21.0346C34.8362 20.9846 34.8803 20.9408 34.937 20.9282L34.9442 20.9265C35.0911 20.8903 37.4056 20.3211 39.8453 19.6453L39.8516 19.6015C39.8264 19.5515 39.8137 19.5014 39.82 19.4451C39.8516 19.1071 39.8831 18.7441 39.9146 18.3311C39.9209 18.281 39.9461 18.2372 39.9839 18.1997L39.0136 18.2873H38.9947C38.938 18.2873 38.8812 18.2623 38.8434 18.2122C38.8056 18.1621 38.793 18.0933 38.8182 18.0307L39.442 16.4912C39.3223 16.6039 39.1711 16.7103 39.001 16.8104V16.8229C39.0199 16.9043 38.9821 16.9856 38.9128 17.0232C38.3142 17.3674 37.6337 17.5488 37.1927 17.6302L38.2827 18.9319C38.3205 18.9757 38.3331 19.0383 38.3205 19.0946C38.3079 19.1509 38.2701 19.201 38.2134 19.226L38.0496 19.3011C38.0244 19.3136 37.9992 19.3199 37.9676 19.3199C37.9424 19.3199 37.9172 19.3136 37.892 19.3011L37.9361 19.3762C37.9613 19.42 37.9739 19.4764 37.955 19.5327C37.9361 19.5827 37.8983 19.6265 37.8479 19.6453C37.6835 19.7185 37.2587 19.8526 37.1617 19.8832L37.1423 19.8894C37.1234 19.8956 37.1045 19.8956 37.0856 19.8956C37.0351 19.8956 36.9847 19.8769 36.9469 19.8331L35.3844 18.1309V19.4951C35.3844 19.5577 35.3529 19.614 35.3025 19.6516C35.271 19.6704 35.2332 19.6829 35.1953 19.6829C35.1745 19.6829 35.1579 19.6786 35.1385 19.6735L35.126 19.6704L34.9811 19.614V19.6265C34.9811 19.6618 34.9795 19.697 34.9779 19.7314C34.9763 19.7642 34.9748 19.7963 34.9748 19.8268C34.9685 19.8956 34.9307 19.952 34.8677 19.9833C34.8425 19.9958 34.811 20.002 34.7858 20.002C34.748 20.002 34.7102 19.9895 34.6787 19.9707L34.5149 19.8644C34.4645 19.8331 34.4393 19.783 34.433 19.7267L34.4267 19.6766L34.2061 19.6203C34.1368 19.6015 34.0801 19.5452 34.0675 19.4764L34.0612 19.4576C33.9856 19.4388 33.9226 19.3825 33.8974 19.3574C33.8407 19.2949 33.7714 19.201 33.7462 19.0821C33.7153 18.9425 33.6845 18.7993 33.6527 18.6513C33.6259 18.5273 33.5985 18.3998 33.5698 18.2685L33.5383 18.2498C33.5005 18.2247 33.469 18.1934 33.4564 18.1496L33.4375 18.087C33.3177 18.0933 33.2547 18.0996 33.2547 18.0996H33.2421C33.1728 18.0996 33.1098 18.062 33.0783 17.9994L32.6121 17.1483C32.5806 17.092 32.5806 17.0169 32.6184 16.9606C32.6499 16.9043 32.7129 16.873 32.7822 16.873H32.7885H32.9901H33.0531L32.8578 16.2784C32.8268 16.2819 32.7958 16.2872 32.7658 16.2923L32.7658 16.2923L32.7656 16.2923C32.7408 16.2965 32.7168 16.3006 32.694 16.3035L31.9064 16.4412H31.8749C31.8056 16.4412 31.7363 16.4036 31.7048 16.3348L31.081 15.1019C31.0558 15.0581 31.0558 15.0018 31.0747 14.9517C31.0479 14.9517 31.0019 14.9549 30.9753 14.9567C30.9645 14.9574 30.9568 14.958 30.955 14.958C30.8857 14.958 30.8227 14.9204 30.7912 14.8641L30.6904 14.6889C30.6588 14.6325 30.6588 14.5637 30.6841 14.5074C30.7093 14.4511 30.7723 14.4135 30.8353 14.4073C30.8353 14.4073 30.9046 14.401 31.018 14.3947C30.9613 14.3009 30.9298 14.2508 30.9298 14.2508C30.9172 14.232 30.9109 14.2132 30.9046 14.1945L30.8668 14.1256C30.8353 14.0693 30.8353 14.0005 30.8668 13.9441C30.8983 13.8878 30.955 13.8503 31.0243 13.844L31.0367 13.8434C31.136 13.8387 31.8169 13.8065 32.7633 13.8065C33.8407 13.8065 35.4285 13.8503 36.8965 14.0505C36.991 14.0631 37.0603 14.1444 37.0603 14.2383V14.2571C38.6733 14.5136 39.6058 14.9267 39.82 15.4837L39.8256 15.4998L39.8256 15.4999C39.8376 15.535 39.8524 15.5782 39.8579 15.6213C39.8831 15.6026 39.9146 15.5838 39.9524 15.5775C39.9749 15.5747 39.9999 15.5707 40.0257 15.5665C40.0577 15.5613 40.0911 15.556 40.1225 15.5525C40.1666 14.7076 40.1981 13.8565 40.2233 13.0242C40.2296 12.899 40.3241 12.7676 40.5383 12.7676C40.5824 12.7676 40.6328 12.7739 40.6832 12.7864C40.6895 12.7457 40.6943 12.7066 40.699 12.6675C40.7037 12.6284 40.7084 12.5893 40.7147 12.5486C38.037 12.3859 35.4285 12.3233 35.4033 12.3233C35.3529 12.3233 35.3025 12.2983 35.2647 12.2607L34.3006 11.1468C34.2502 11.0904 34.2439 11.0153 34.2691 10.9528C34.3006 10.8839 34.3637 10.8401 34.433 10.8401L35.9388 10.7713C35.7734 10.7603 35.6141 10.7501 35.471 10.741L35.4704 10.7409C35.2051 10.724 34.9955 10.7106 34.9055 10.7024C34.8488 10.6962 34.7921 10.6649 34.7606 10.6148C34.7291 10.5647 34.7228 10.5022 34.748 10.4458L34.8929 10.0766C34.9181 10.0078 34.9874 9.95771 35.063 9.95771L35.4348 9.94519L35.3781 9.63229C35.3655 9.57596 35.3844 9.51964 35.4222 9.47583C35.46 9.43202 35.5104 9.40699 35.5671 9.40699C35.5923 9.40699 38.0685 9.43202 41.1306 9.66358C41.244 8.93763 41.3511 8.35562 41.4456 7.93007C41.4645 7.84245 41.5401 7.77987 41.6283 7.77987H41.6347L42.208 7.80491L42.2899 7.492C42.3088 7.4169 42.3718 7.36058 42.4474 7.35432L42.8003 7.298H42.8318C42.8822 7.298 42.9326 7.31677 42.9641 7.35432C42.9893 7.38561 43.0082 7.4169 43.0145 7.45445L45.2323 6.90999C45.2449 6.90373 45.2638 6.90373 45.2764 6.90373C45.3332 6.90373 45.3836 6.92876 45.4214 6.97257L45.8624 7.50451C45.9065 7.56084 45.9191 7.62968 45.8939 7.69852C45.8687 7.76736 45.8057 7.80491 45.7364 7.81116L44.01 7.97388L45.2386 7.93007C45.3016 7.93007 45.3584 7.96136 45.3962 8.01142C45.434 8.06149 45.4403 8.13033 45.4151 8.19291L44.7409 9.82629C44.7157 9.88887 44.6527 9.93268 44.5834 9.93893L44.4385 9.95145C44.4385 9.95404 44.4374 9.95663 44.4361 9.95967C44.4343 9.96397 44.4322 9.96915 44.4322 9.97648C44.5183 9.98828 44.6044 9.99869 44.6899 10.009C44.7857 10.0206 44.8807 10.0321 44.974 10.0453C45.005 9.98145 45.0341 9.92026 45.0622 9.86141L45.0626 9.86051L45.0627 9.86032C45.1087 9.7639 45.1516 9.67379 45.1945 9.58848C45.226 9.51964 45.2953 9.48209 45.3647 9.48209C45.3899 9.48209 45.4151 9.48835 45.4403 9.49461C45.497 9.51964 45.6293 9.58222 45.6797 9.71364C45.7049 9.78248 45.7049 9.85758 45.6734 9.92016C45.6576 9.95456 45.6419 9.98739 45.6262 10.0202L45.6261 10.0203C45.6104 10.0531 45.5946 10.086 45.5789 10.1204C46.4547 10.2456 47.2675 10.3833 48.0046 10.5272C48.0613 10.5397 48.1055 10.571 48.1307 10.6211C48.1559 10.6711 48.1622 10.7275 48.1433 10.7775L48.1055 10.8839C49.3089 11.1906 50.0146 11.541 50.2477 11.9541C50.3422 12.123 50.3674 12.3108 50.3107 12.486C49.7688 14.2696 47.8219 15.1833 46.4799 15.6088C47.8975 15.6714 49.0695 15.8028 49.3845 16.1783C49.4664 16.2722 49.4979 16.3786 49.4853 16.4975C49.416 17.0044 49.0065 17.7554 48.8048 18.1058L49.7625 17.8617L51.5456 12.6988C51.5645 12.6487 51.6023 12.6049 51.6527 12.5861L51.7788 12.5361L51.7536 12.2732C51.7472 12.2232 51.7662 12.1668 51.804 12.1293L51.9615 11.9603C51.9867 11.9353 52.0119 11.9165 52.0434 11.9103L51.9489 11.347C51.9363 11.2719 51.9741 11.1906 52.0434 11.153L52.245 11.0404C52.2765 11.0216 52.308 11.0153 52.3395 11.0153C52.3604 11.0153 52.3769 11.0196 52.3963 11.0247L52.4088 11.0279C52.4592 11.0466 52.5033 11.0904 52.5222 11.1405L52.7113 11.685L53.7257 11.3282C53.7446 11.322 53.7698 11.3157 53.7887 11.3157C53.8202 11.3157 53.8517 11.322 53.8832 11.3408C53.9336 11.3658 53.9651 11.4096 53.9777 11.4659L54.2171 12.5486C54.2612 12.5235 54.3179 12.5048 54.3746 12.5048C54.5511 12.5048 54.7653 12.6487 54.7968 12.8615L55.3638 16.9293C55.4394 16.2159 55.975 14.5324 59.1191 12.7614C59.1506 12.7426 59.1821 12.7363 59.2136 12.7363C59.2766 12.7363 59.3333 12.7676 59.3711 12.8177L59.3774 12.8239C59.8562 12.5486 60.3855 12.2544 60.9589 11.9541C60.9841 11.9415 61.0156 11.9353 61.0471 11.9353C61.0849 11.9353 61.1227 11.9478 61.1542 11.9666C61.2109 12.0041 61.2424 12.073 61.2361 12.1418C61.2361 12.1481 61.2046 12.4797 61.1542 12.9303C61.1983 12.9679 61.2235 13.0305 61.2172 13.093L61.2147 13.1135C61.1873 13.3443 61.0306 14.6623 60.7446 15.1457C60.7194 15.1833 60.6816 15.2146 60.6375 15.2271C60.6312 15.2271 60.1398 15.3773 59.5601 15.6401C58.6276 16.0594 58.2496 16.4036 58.1424 16.5538C58.2622 16.5726 58.4008 16.5851 58.5394 16.5851C59.5313 16.5851 60.6097 16.0452 60.6431 16.0285L60.6438 16.0281C60.669 16.0156 60.7005 16.0093 60.732 16.0093C60.7635 16.0093 60.795 16.0156 60.8202 16.0281C60.8769 16.0594 60.9147 16.1095 60.9211 16.1721L60.9274 16.2221L61.1479 16.1721C61.1605 16.1658 61.1794 16.1658 61.192 16.1658C61.2109 16.1658 61.2235 16.1658 61.2424 16.1721L61.2298 16.0219C61.2046 16.0219 61.1731 16.0156 61.1479 16.0031C61.0912 15.978 61.0534 15.9217 61.0408 15.8591L61.003 15.59C60.9967 15.5275 61.0219 15.4586 61.0723 15.4211C61.0734 15.42 61.0864 15.4093 61.1092 15.3906L61.1092 15.3906C61.2174 15.3019 61.5442 15.0339 61.841 14.7702L61.3747 9.97648C61.3684 9.93893 61.381 9.90139 61.3936 9.87009C61.5007 9.67609 61.633 9.46957 61.7842 9.25054C61.822 9.20047 61.8788 9.16918 61.9418 9.16918C61.9544 9.16918 61.967 9.16918 61.9859 9.17544C62.0174 9.1817 62.0426 9.19421 62.0615 9.21299L62.077 9.19176C62.1855 9.0433 62.4172 8.72645 62.723 8.38691L61.6582 9.15041C61.6267 9.17544 61.5889 9.18796 61.5448 9.18796C61.5322 9.18796 61.5196 9.18796 61.507 9.1817C61.4566 9.16918 61.4125 9.13789 61.381 9.09408L61.1983 8.79369C61.1542 8.72485 61.1605 8.63724 61.2109 8.58092L62.8113 6.6096C62.8491 6.56579 62.8995 6.54076 62.9562 6.54076C62.9688 6.54076 62.9877 6.54076 63.0003 6.54702C63.0696 6.56579 63.1263 6.62212 63.1389 6.69096L63.309 7.47948L63.3594 7.04141C63.3657 7.00386 63.3783 6.97257 63.3972 6.94128L63.9706 6.22785C64.0084 6.18404 64.0588 6.15901 64.1155 6.15901C64.1344 6.15901 64.1533 6.15901 64.1722 6.16527C64.2478 6.1903 64.2982 6.25288 64.3045 6.32798C64.3171 6.50321 64.336 6.94754 64.3612 7.64845C64.3801 7.88626 64.3927 8.17414 64.4053 8.4933C64.462 8.49956 64.5124 8.51833 64.5691 8.55588C64.7078 8.65601 64.8023 8.85002 64.8023 9.01273L64.7582 12.1481C64.7928 12.1168 64.8259 12.0855 64.859 12.0542C64.8921 12.0229 64.9251 11.9916 64.9598 11.9603L64.9913 11.735C64.9976 11.6912 65.0165 11.6537 65.048 11.6224L65.5395 11.1405H65.5331H65.5079L65.2937 11.1155C65.237 11.1092 65.1929 11.0779 65.1614 11.0341C65.1299 10.9903 65.1236 10.934 65.1362 10.8777L65.7159 8.78743C65.7285 8.73111 65.7726 8.6873 65.823 8.66227L66.8878 8.2242C66.913 8.21169 66.9382 8.21169 66.9634 8.21169C67.0138 8.21169 67.0705 8.23672 67.102 8.27427C67.1587 8.33685 67.165 8.4182 67.1272 8.4933L65.7726 10.9089L68.6331 8.1053C68.6709 8.06775 68.715 8.04897 68.7654 8.04897H68.7843C68.841 8.05523 68.8914 8.08652 68.9229 8.13033C68.9229 8.13033 69.2443 8.60595 69.2506 8.61221C70.4981 7.67348 71.607 6.92251 72.5458 6.37179C72.5773 6.35301 72.6088 6.34676 72.6403 6.34676C72.6781 6.34676 72.7159 6.35927 72.7537 6.38431C72.8167 6.42811 72.8419 6.50321 72.8293 6.57831L72.193 9.51964C72.1867 9.56345 72.1615 9.60099 72.1237 9.62603L69.4081 11.8039L70.5548 11.1092C70.5863 11.0904 70.6178 11.0842 70.6556 11.0842C70.6871 11.0842 70.7186 11.0904 70.7501 11.1092C70.8131 11.1468 70.8446 11.2093 70.8446 11.2782L70.8131 12.0667C70.8131 12.1355 70.7753 12.1919 70.7123 12.2232L66.0057 14.7953L69.5782 18.1997C69.6286 18.2435 69.6475 18.3123 69.6349 18.3749L69.5656 18.6816L73.7682 23.4002C73.8312 23.4691 73.8312 23.5754 73.7682 23.6443L73.5035 23.9509C73.472 23.9885 73.4216 24.0135 73.3712 24.0135H73.3649C73.3145 24.0135 73.2704 23.9947 73.2326 23.9634L71.7708 22.5679L72.3253 23.2813C72.3631 23.3314 72.3757 23.394 72.3568 23.4503C72.3379 23.5066 72.2938 23.5567 72.2371 23.5754L72.0418 23.6443C72.0229 23.6505 71.9977 23.6568 71.9788 23.6568C71.9409 23.6568 71.8968 23.6443 71.8653 23.6192L71.6826 23.4816L71.3739 23.9009C71.3424 23.9447 71.292 23.976 71.2353 23.976H71.2227C71.1723 23.976 71.1219 23.9572 71.0904 23.9196L69.5026 22.3113C69.5089 22.3614 69.5026 22.4114 69.4774 22.4552C69.4081 22.5929 69.1119 22.7932 68.9418 22.7932C68.8662 22.7932 68.7969 22.7619 68.7528 22.7056L68.7522 22.7047L68.7521 22.7047C68.4058 22.2419 68.0595 21.7791 67.7132 21.335C66.8248 20.1835 65.8734 19.0132 64.8905 17.8617L64.9173 17.9572L64.9175 17.958C65.388 19.6353 66.3411 23.0328 66.4153 23.444C66.4342 23.5567 66.4342 23.5629 65.9427 24.0073L65.9426 24.0073L65.9424 24.0075C65.7156 24.2078 65.3755 24.508 65.0165 24.777C64.9787 24.8083 64.9346 24.8208 64.8842 24.8208C64.8086 24.8208 64.6826 24.8208 64.2163 24.2451C63.561 24.4265 63.0066 24.5767 63.0066 24.5767C62.9877 24.583 62.9751 24.583 62.9562 24.583C62.8995 24.583 62.8491 24.558 62.8113 24.5142C62.3993 24.017 62.2707 23.8601 62.2285 23.8085L62.2284 23.8084C62.2107 23.7868 62.2083 23.7838 62.2064 23.782L62.2 23.7732C62.1685 23.7277 62.1667 23.6616 62.1371 22.5618V22.5616L62.0678 20.1084C62.0488 19.4485 62.0314 18.7902 62.0164 18.2222L62.0164 18.2217L62.0163 18.2171C62.0014 17.6561 61.9889 17.1837 61.9796 16.8855H61.9733C61.8031 16.9981 61.6393 17.1045 61.5574 17.1483C61.5259 17.1671 61.4944 17.1734 61.4629 17.1734C61.4314 17.1734 61.4062 17.1671 61.3747 17.1546C61.3369 17.1358 61.3054 17.1045 61.2928 17.067C61.2188 17.6389 61.0784 18.2064 61.0313 18.397L61.0313 18.3971C61.0222 18.4338 61.0166 18.4565 61.0156 18.4625C60.9904 18.5439 60.9211 18.6002 60.8328 18.6002H60.5745C60.573 18.6002 60.564 18.5999 60.548 18.5993C60.4956 18.5973 60.3688 18.5925 60.1902 18.5877V18.6378C60.1902 18.7379 60.1083 18.8192 60.0075 18.8255C59.7365 18.838 59.4719 18.8443 59.2136 18.8443C56.7563 18.8443 55.8868 18.3436 55.7104 18.2185C55.6726 18.2059 55.6285 18.1809 55.5781 18.1371L56.1451 20.972C56.1577 21.0221 56.1451 21.0722 56.1136 21.116C56.0821 21.1598 56.038 21.1848 55.9876 21.1911L54.1037 21.4664H54.0785C54.0344 21.4664 53.9903 21.4539 53.9588 21.4226L53.858 21.3413L53.4043 21.4039H53.3854C53.2909 21.4039 53.209 21.335 53.1964 21.2411L52.9759 19.37L52.8184 19.4263C52.7995 19.4325 52.7806 19.4388 52.7554 19.4388C52.7176 19.4388 52.6798 19.4263 52.6482 19.4013C52.5978 19.3637 52.5663 19.3074 52.5663 19.2511V19.0258V19.0132L51.4763 19.6203L50.903 21.4414C50.8904 21.4915 50.8526 21.529 50.8084 21.5541L50.7139 21.6041L50.4241 22.4615C50.3989 22.5366 50.3233 22.5867 50.2477 22.5867H50.0587C50.0776 22.6179 50.0839 22.6492 50.0839 22.6805V24.6518C50.0839 24.7582 50.002 24.8396 49.8948 24.8396H49.0506ZM49.6176 22.5616L49.7058 22.5116C49.6869 22.4865 49.6806 22.4615 49.6743 22.4365L49.6176 22.5616ZM42.5926 18.6621L42.5924 18.6628L42.5167 18.8943C43.3169 18.6503 43.9785 18.425 44.4952 18.231C44.5141 18.2247 44.5393 18.2185 44.5645 18.2185C44.6338 18.2185 44.6968 18.256 44.7283 18.3186L44.8039 18.4625C45.749 18.0996 46.2783 17.8492 46.5492 17.699C45.9002 17.699 44.6464 17.7929 42.8192 17.9744C42.737 18.2191 42.6615 18.4507 42.5926 18.6621ZM52.2198 17.2547L52.705 17.1295L52.5852 16.1032L52.2198 17.2547ZM35.8084 16.5279C35.8077 16.5303 35.8071 16.5327 35.8065 16.535C35.8049 16.5413 35.8034 16.5475 35.8002 16.5538C36.6319 16.3786 37.1801 16.1971 37.4132 16.0719C37.4048 16.0703 37.3956 16.0686 37.3857 16.0668C37.3583 16.0619 37.3259 16.0561 37.2935 16.0469C37.0288 16.0093 36.6949 15.9843 36.2917 15.9843H36.2916C36.1845 15.9843 36.0711 15.9843 35.9514 15.9906L35.8128 16.5162C35.8109 16.5201 35.8095 16.524 35.8084 16.5279ZM44.2557 13.6062C44.3061 13.6625 44.3187 13.7376 44.2872 13.8065C44.2127 13.9668 44.1138 14.2304 43.9783 14.5914L43.9782 14.5915L43.9722 14.6075C45.6986 14.0631 46.4169 13.625 46.5114 13.3934C46.524 13.3684 46.5177 13.3559 46.5114 13.3434C46.4799 13.3058 46.2468 13.093 44.3944 12.8615L44.3942 12.8618C44.3124 13.062 44.2305 13.2621 44.1486 13.481L44.2557 13.6062ZM43.428 13.1084L43.4271 13.1116L43.4268 13.1124C43.3487 13.3655 43.2714 13.6157 43.1972 13.8628C43.2004 13.8597 43.2019 13.855 43.2035 13.8503C43.2051 13.8456 43.2067 13.8409 43.2098 13.8378C43.3421 13.4936 43.4808 13.1368 43.6257 12.7801C43.6099 12.7801 43.5942 12.7786 43.5784 12.777C43.5627 12.7754 43.5469 12.7739 43.5312 12.7739C43.4967 12.886 43.4623 12.9975 43.428 13.1084ZM42.92 8.02394H42.9389L42.9263 8.01142L42.92 8.02394ZM13.1555 24.5705C12.7145 24.5705 12.4052 24.5237 12.3212 24.5111C12.308 24.5091 12.3004 24.5079 12.2987 24.5079L12.2419 24.4891C11.7316 24.195 11.2023 23.8383 10.6605 23.419H10.2005C10.1564 23.419 10.1186 23.4065 10.0808 23.3752C5.87825 20.0584 4.02585 16.7353 3.73602 16.1908L3.5344 16.6414C3.50289 16.7103 3.43359 16.7541 3.36428 16.7541H3.34538C3.26347 16.7478 3.20046 16.6915 3.18156 16.6101L2.82242 15.0894C2.80982 15.0393 2.82242 14.983 2.85392 14.9392L3.45879 14.0756L2.99884 14.5825C2.96103 14.62 2.91063 14.6451 2.86022 14.6451C2.84132 14.6451 2.82242 14.6451 2.80352 14.6388C2.73421 14.62 2.6838 14.5574 2.6712 14.4824L2.58929 13.8941C2.57669 13.8252 2.6145 13.7501 2.6712 13.7126L3.6037 13.093C3.63521 13.0743 3.67301 13.0618 3.71082 13.0618C3.72972 13.0618 3.74232 13.0618 3.76122 13.068C3.81163 13.0805 3.85573 13.1181 3.88093 13.1681L3.96914 13.3496C4.00065 13.4185 3.98805 13.4998 3.93764 13.5561L3.78012 13.7314H3.80533H3.82423C3.89354 13.7376 3.95024 13.7814 3.97544 13.8503L4.33458 14.7327C4.35349 14.7765 4.35349 14.8203 4.34088 14.8641C4.34718 14.8641 4.35348 14.8625 4.35977 14.861L4.35979 14.861L4.3598 14.861C4.36609 14.8594 4.37239 14.8578 4.37869 14.8578H4.39129C4.39759 14.8578 4.41019 14.8578 4.41649 14.8641L4.39129 14.7953C4.37239 14.7389 4.37869 14.6826 4.41019 14.6325L4.09516 13.8941C4.06996 13.8378 4.07626 13.7752 4.10776 13.7189L4.31568 13.3934C4.34719 13.3371 4.41019 13.3058 4.4732 13.3058C4.53621 13.3058 4.59921 13.3371 4.63072 13.3934L4.91425 13.8252C5.27969 13.2432 5.63883 12.849 5.88455 12.6112C5.92236 12.5799 5.96646 12.5611 6.01687 12.5611C6.02947 12.5611 6.04207 12.5611 6.05467 12.5674C6.11768 12.5799 6.16808 12.6174 6.19329 12.6737C6.47052 13.287 7.04388 14.3885 7.49753 15.2521L7.32111 14.7452C7.30221 14.6889 7.30851 14.6325 7.34001 14.5825L7.62984 14.1507C7.66765 14.1006 7.72435 14.0693 7.78736 14.0693H7.79996C7.86927 14.0756 7.92597 14.1131 7.95748 14.1757L11.1708 20.6279L12.0781 21.2787L12.1222 21.1473C11.6245 20.0521 9.36253 15.2959 6.45161 12.3108C6.43305 12.2923 6.3155 12.1811 6.13567 12.011L6.13495 12.0103C5.39899 11.3141 3.6226 9.63372 3.31387 9.28183C3.26977 9.23176 3.25717 9.16292 3.27607 9.10034L3.37688 8.79369C2.81612 8.40569 2.41287 8.13659 2.28056 8.07401C2.19865 8.03646 2.16085 7.94258 2.17975 7.86123L2.36247 7.18535C2.37507 7.13528 2.41287 7.09148 2.45698 7.06644C2.48218 7.05393 2.51369 7.04767 2.54519 7.04767C2.56409 7.04767 2.58929 7.05393 2.6082 7.06019L2.99254 7.19787C2.98624 7.16032 2.99254 7.12277 3.00514 7.09148C3.22848 6.58127 3.46171 6.25289 3.5163 6.17603C3.52331 6.16616 3.52738 6.16044 3.5281 6.15901C3.5659 6.11521 3.62261 6.08391 3.67931 6.08391H3.71082C3.71712 6.08391 4.27158 6.18404 5.14737 6.42185C5.10327 6.39056 5.07176 6.33424 5.07176 6.27792C5.07176 6.19656 5.12217 6.12146 5.19778 6.09643L5.53801 5.97753C5.55692 5.97127 5.58212 5.96501 5.60102 5.96501C5.61992 5.96501 5.63883 5.96501 5.65143 5.97127L5.6817 5.98017L5.68171 5.98017C6.05528 6.08915 9.78005 7.17577 12.7775 8.6435C12.8342 8.66853 12.872 8.7186 12.8783 8.78118L12.9854 9.41951C12.998 9.49461 12.9665 9.56345 12.9035 9.60725C12.872 9.62603 12.8342 9.63854 12.7964 9.63854C12.7838 9.63854 12.7712 9.63854 12.7586 9.63229C12.8972 9.7199 12.9665 9.76371 12.9728 9.76996C13.0421 9.81377 13.0736 9.90139 13.0484 9.97648L13.0295 10.0328C13.0484 10.0485 13.0689 10.0641 13.0894 10.0797L13.0894 10.0798C13.1099 10.0954 13.1304 10.111 13.1492 10.1267C13.2059 10.1705 13.2312 10.2331 13.2249 10.3019C13.0925 11.2031 12.8153 11.9353 12.6011 12.3921C12.5822 12.4422 12.5381 12.4735 12.4877 12.4923C12.4688 12.4985 12.4499 12.5048 12.431 12.5048C12.3995 12.5048 12.368 12.4985 12.3428 12.4797L9.66496 11.0153C12.097 13.7251 13.6848 17.0044 14.5984 19.2886C15.5308 21.6332 15.9603 23.4344 16.0161 23.6686C16.0199 23.6845 16.022 23.6932 16.0224 23.6943C16.0413 23.7757 16.0035 23.8571 15.9341 23.8946C14.9386 24.4516 13.8738 24.5705 13.1555 24.5705ZM20.1556 24.2263C20.1241 24.2263 20.0863 24.22 20.0611 24.2075L20.0422 24.195C19.8658 24.1074 19.6768 23.9947 19.494 23.8633L19.4662 23.8436C19.3886 23.7887 19.3166 23.7378 19.2546 23.6818C18.9881 23.47 18.8106 23.2859 18.7851 23.2594L18.7821 23.2563C18.7506 23.2187 18.7317 23.1749 18.7317 23.1311V18.281C18.7317 18.2372 18.7443 18.1934 18.7758 18.1621C18.7758 18.1621 18.8073 18.1183 18.864 18.062C18.5804 14.2883 18.1205 9.77622 18.1142 9.72616C18.1079 9.66983 18.1268 9.61351 18.1709 9.5697C18.2087 9.53216 18.2528 9.49463 18.2969 9.45709L18.2969 9.45706C18.3032 9.4508 18.3095 9.44454 18.3221 9.43828L19.8217 8.43072L19.8847 7.79865C19.891 7.74232 19.9162 7.69852 19.9603 7.66723L20.4832 7.298C20.5147 7.27296 20.5525 7.26045 20.5904 7.26045C20.6219 7.26045 20.6534 7.2667 20.6786 7.27922C20.7416 7.31051 20.7794 7.37935 20.7794 7.44819L20.7668 8.02394L21.107 7.77987C21.1102 7.77674 21.1133 7.77518 21.1165 7.77361C21.1196 7.77205 21.1228 7.77049 21.1259 7.76736L21.2771 7.66097C21.3086 7.63594 21.3464 7.62342 21.3842 7.62342C21.4157 7.62342 21.4409 7.62968 21.4662 7.64219C21.5292 7.67348 21.567 7.73607 21.5733 7.80491V7.90504C21.5859 8.36814 21.6111 10.0516 21.5922 12.2607C21.5922 12.267 21.5922 12.5361 21.5859 12.9741C21.5796 13.3997 21.5733 13.8252 21.5607 14.2445L21.693 14.6263L21.693 14.6263C21.6993 14.6451 21.7056 14.6638 21.7056 14.6889C21.7056 15.8904 21.7434 17.6677 21.7812 18.9507C21.7875 19.201 21.7938 19.3449 21.8001 19.4325L21.9198 19.4638C22.008 19.4889 22.071 19.5702 22.0647 19.6641L22.008 20.3024L22.0206 20.3149C22.0206 20.3149 22.0584 20.3525 22.1151 20.4151L22.4491 20.4088L23.8352 20.1835H23.8667C23.9108 20.1835 23.9549 20.196 23.9864 20.2273C24.0305 20.2649 24.0557 20.3149 24.0557 20.3713V22.0297C24.0557 22.086 24.0305 22.1423 23.9801 22.1799C23.936 22.2174 22.8208 23.056 21.8001 23.5441L20.395 24.1449C20.3698 24.17 20.3446 24.195 20.3068 24.2075C20.2375 24.22 20.1934 24.2263 20.1556 24.2263ZM16.5138 22.1674C16.35 22.1674 16.1925 21.9859 16.1484 21.8607C16.1106 21.7606 16.1358 21.6792 16.1799 21.6292C16.161 21.6292 16.1421 21.6229 16.1232 21.6166C16.0728 21.5979 16.035 21.5541 16.0161 21.504V21.4977C16.0087 21.4758 16.0004 21.4529 15.9918 21.4294C15.9785 21.3926 15.9646 21.3544 15.953 21.3162C15.6884 20.534 14.8126 17.8743 14.5354 16.3348C14.5228 16.2659 14.548 16.2033 14.5984 16.1595L14.8189 15.978C14.8315 15.9655 14.8504 15.953 14.8693 15.9468C14.8441 15.7402 14.8378 15.6276 14.8378 15.6213C14.8315 15.5525 14.863 15.4899 14.9134 15.4524C16.161 14.5574 17.4967 14.232 17.5534 14.2195C17.566 14.2132 17.5849 14.2132 17.5975 14.2132C17.6416 14.2132 17.6857 14.2258 17.7172 14.2571C17.7613 14.2946 17.7865 14.3509 17.7865 14.4135C17.7643 14.7346 17.7469 15.1732 17.7257 15.7077L17.7257 15.708L17.7172 15.9217L17.7361 15.928C17.8055 15.9593 17.8496 16.0281 17.8496 16.1095L17.6794 20.5528C17.6889 20.5528 17.6968 20.5512 17.7046 20.5496C17.7125 20.5481 17.7204 20.5465 17.7298 20.5465C17.8244 20.5465 17.8811 20.5903 17.9126 20.6153L17.9252 20.6216C18.0197 20.6842 18.1772 20.9095 18.1898 21.0534C18.2087 21.2036 18.1205 21.31 18.026 21.3538C17.692 21.5353 16.7406 22.0672 16.6461 22.1235C16.602 22.1548 16.5579 22.1674 16.5138 22.1674ZM13.3194 14.8641C13.269 14.8641 13.2249 14.8453 13.187 14.8078L12.431 14.0631C12.3806 14.013 12.3617 13.9441 12.3806 13.8753L13.269 10.959C13.2942 10.8777 13.3635 10.8276 13.4517 10.8276C13.5336 10.8276 13.6092 10.8839 13.6344 10.9653L13.8423 11.6787C13.8486 11.7037 13.8486 11.7288 13.8486 11.7538L13.5084 14.7014C13.5021 14.7702 13.4517 14.8328 13.3824 14.8578C13.3635 14.8641 13.3446 14.8641 13.3194 14.8641H13.3194ZM15.1655 14.1569C15.1277 14.1569 15.0899 14.1444 15.0647 14.1256C15.0079 14.0881 14.9764 14.0318 14.9764 13.9629C14.989 13.456 14.6173 11.5848 14.2645 10.0078C14.2456 9.93268 14.2771 9.85132 14.3464 9.80751L14.5606 9.66983C14.5795 9.65732 14.6047 9.6448 14.6299 9.6448C14.6614 9.62603 14.6929 9.61977 14.7244 9.61977H14.7433L14.737 9.59474C14.7244 9.51964 14.7622 9.43828 14.8315 9.40073L14.9071 9.35693L14.8693 9.07531C14.863 9.01899 14.8819 8.96266 14.9197 8.91886L15.1025 8.72485C15.1277 8.69982 15.1529 8.68105 15.1907 8.67479C15.1844 8.66227 15.1781 8.6435 15.1781 8.62472C15.1718 8.5684 15.1907 8.51833 15.2285 8.47453L16.5957 6.98509C16.6335 6.94754 16.6839 6.92251 16.7343 6.92251C16.7532 6.92251 16.7721 6.92251 16.791 6.92876L17.3644 7.09773C17.4337 7.11651 17.4841 7.17283 17.4967 7.24167C17.5093 7.31051 17.4841 7.37935 17.4337 7.42316L16.4067 8.25549C16.5957 8.14285 16.7091 8.08026 16.7154 8.08026C16.7469 8.06149 16.7784 8.05523 16.8099 8.05523C16.8414 8.05523 16.8729 8.06149 16.8982 8.07401C16.9549 8.1053 16.9927 8.16162 16.999 8.2242C17.0305 8.5684 17.0557 8.9126 17.0683 9.24428C17.0746 9.24428 17.0809 9.24272 17.0872 9.24115C17.0935 9.23959 17.0998 9.23802 17.1061 9.23802C17.125 9.23802 17.1439 9.23802 17.1628 9.24428L17.5156 9.35067C17.5975 9.3757 17.6542 9.4508 17.6479 9.53215C17.6101 11.8101 16.8919 13.2495 16.8603 13.3121C16.8477 13.3371 16.8225 13.3621 16.7973 13.3809C16.5985 13.5181 15.6735 13.9485 15.3591 14.0949L15.359 14.0949L15.2663 14.1382C15.2222 14.1507 15.1907 14.1569 15.1655 14.1569ZM57.306 23.2642L57.3248 21.9065C57.3248 21.8228 57.2997 21.7971 57.2241 21.8099L56.9976 21.8421C56.9158 21.855 56.8843 21.8871 56.8843 21.9708L56.8654 23.3286C56.8654 23.4122 56.8906 23.438 56.9724 23.4251L57.199 23.3929C57.2745 23.3801 57.306 23.3479 57.306 23.2642ZM57.35 21.4367V21.4045C57.3563 21.2372 57.306 21.1922 57.1423 21.2179L57.0857 21.2243C56.9283 21.2437 56.878 21.3016 56.8717 21.4689V21.5011C56.8654 21.6684 56.9158 21.7134 57.0731 21.6877L57.136 21.6812C57.2934 21.6619 57.3437 21.604 57.35 21.4367ZM55.9088 21.9514C56.3242 21.8935 56.5004 22.1252 56.5004 22.5177L56.4878 23.38C56.4878 23.4636 56.4563 23.4958 56.3745 23.5087L56.1479 23.5409C56.0661 23.5537 56.0409 23.528 56.0409 23.4443L56.0535 22.5692C56.0598 22.4212 55.9906 22.3504 55.8395 22.3761C55.764 22.389 55.7011 22.4083 55.6381 22.434C55.6507 22.4855 55.6507 22.5499 55.6507 22.6142L55.6381 23.4958C55.6381 23.5795 55.6067 23.6116 55.5312 23.6245L55.3046 23.6567C55.2228 23.6696 55.1976 23.6438 55.1976 23.5602L55.2102 22.685C55.2165 22.5177 55.1409 22.4727 54.9962 22.492C54.9333 22.4984 54.8829 22.5177 54.82 22.5434C54.8137 22.5434 54.8074 22.5563 54.8074 22.5627L54.7885 23.6181C54.7885 23.7017 54.757 23.7339 54.6815 23.7468L54.4549 23.7789C54.3731 23.7918 54.3479 23.7661 54.3479 23.6824L54.3668 22.4534C54.3668 22.3504 54.392 22.3118 54.4864 22.2603C54.6123 22.1895 54.7759 22.1059 55.0528 22.0673C55.2039 22.0479 55.3172 22.0608 55.4053 22.1059L55.4286 22.0961C55.5602 22.0408 55.7008 21.9818 55.9088 21.9514ZM53.9074 22.3377C53.8004 22.3055 53.599 22.2798 53.3535 22.3184C52.8941 22.3892 52.6738 22.6015 52.6675 23.0198L52.6612 23.4059C52.6487 23.8049 52.8689 24.0558 53.2969 23.9915C53.5298 23.9593 53.6871 23.9143 53.8822 23.8371C53.9577 23.8049 53.9892 23.7727 53.9892 23.6891L54.0081 22.4922C54.0081 22.3956 53.9955 22.3699 53.9074 22.3377ZM53.1018 23.0198C53.1018 22.8332 53.1899 22.756 53.3724 22.7302C53.4417 22.7174 53.492 22.7174 53.5487 22.7302C53.5612 22.7302 53.5675 22.7367 53.5675 22.7496L53.5549 23.5346C53.4857 23.5604 53.4165 23.5732 53.341 23.5861C53.1836 23.6118 53.0955 23.5539 53.0955 23.3995L53.1018 23.0198ZM52.227 22.5821C52.1263 22.5499 51.9249 22.5242 51.6794 22.5628C51.22 22.6272 50.9934 22.8395 50.9871 23.2707L50.9808 23.5667C50.9745 23.9592 51.1885 24.2166 51.6165 24.1522C51.7172 24.1394 51.7927 24.1201 51.8745 24.0879L51.8682 24.2166C51.8682 24.3839 51.7864 24.4804 51.6354 24.4997C51.5095 24.5126 51.4465 24.4804 51.3962 24.4161C51.3521 24.3582 51.3144 24.3453 51.2326 24.4032L51.0815 24.5062C50.9997 24.5576 50.9808 24.6156 51.0312 24.6863C51.1382 24.8536 51.327 24.9373 51.6479 24.8923C52.1263 24.8215 52.3025 24.5383 52.3088 24.1394L52.334 22.7366C52.334 22.6336 52.3214 22.6143 52.227 22.5821ZM51.4214 23.2578C51.4277 23.084 51.5095 22.994 51.692 22.9682C51.7675 22.9618 51.8242 22.9618 51.8745 22.9618C51.8871 22.9682 51.8871 22.9746 51.8871 22.9811L51.8745 23.6825C51.8116 23.7018 51.7361 23.7211 51.6542 23.734C51.4843 23.7597 51.4151 23.6889 51.4151 23.5474L51.4214 23.2578ZM58.4199 21.5912C58.8479 21.5269 59.043 21.7585 59.0367 22.1575L59.0241 23.0134C59.0241 23.097 58.9926 23.1292 58.9108 23.1421L58.6843 23.1742C58.6087 23.1871 58.5773 23.1614 58.5773 23.0777L58.5899 22.209C58.5961 22.0481 58.5143 21.9902 58.3507 22.0159C58.2752 22.0288 58.2059 22.0481 58.143 22.0739L58.1304 22.0867L58.1115 23.1485C58.1115 23.2321 58.0801 23.2643 58.0045 23.2772L57.778 23.3094C57.6962 23.3222 57.671 23.2965 57.671 23.2128L57.6899 21.9838C57.6899 21.8808 57.715 21.8422 57.8094 21.7907C57.9479 21.7199 58.1304 21.6298 58.4199 21.5912ZM60.6101 21.3722C60.5094 21.34 60.308 21.3143 60.0626 21.3529C59.6032 21.4237 59.3766 21.6296 59.3703 22.0607L59.364 22.3568C59.3577 22.7493 59.5717 23.0067 59.9997 22.9423C60.1004 22.9295 60.1759 22.9102 60.2577 22.878L60.2514 23.0067C60.2514 23.174 60.1696 23.2705 60.0185 23.2898C59.8927 23.3027 59.8297 23.2705 59.7794 23.2062C59.7353 23.1483 59.6976 23.1354 59.6157 23.1933L59.4647 23.2963C59.3829 23.3477 59.364 23.4056 59.4143 23.4764C59.5213 23.6437 59.7101 23.7274 60.0311 23.6824C60.5094 23.6116 60.6857 23.3284 60.692 22.9295L60.7171 21.5266C60.7171 21.4237 60.7045 21.4044 60.6101 21.3722ZM59.8046 22.0543C59.8108 21.8806 59.8927 21.7905 60.0752 21.7647C60.1507 21.7519 60.2073 21.7519 60.2577 21.7583C60.2703 21.7647 60.2703 21.7712 60.2703 21.7776L60.2577 22.479C60.1948 22.4983 60.1192 22.5176 60.0374 22.5305C59.8675 22.5562 59.7983 22.4855 59.7983 22.3439L59.8046 22.0543Z" fill="#919EAB"/>
</g>
<defs>
<clipPath id="clip0_4426_7913">
<rect width="79.3962" height="32" fill="white" transform="translate(0.30188 0.000976562)"/>
</clipPath>
</defs>
</svg>
