<svg width="80" height="32" fill="none" xmlns="http://www.w3.org/2000/svg"><g clip-path="url(#a)"><path fill-rule="evenodd" clip-rule="evenodd" d="M78.203 16.844c.151.113.9.647 1.209.817.314.17.377.295.15.39-.196.082-.635.522-.848.735-.046.046-.082.082-.102.1a.42.42 0 0 1-.308.133c-.051.003-.147-.061-.267-.141-.161-.107-.366-.243-.564-.287-.34-.075-.1.189.031.264l.065.036c.178.099.538.297.571.423.029.106-.118.207-.23.286a1.151 1.151 0 0 0-.091.066c-.077.067-.233.138-.421.223l-.133.06a5.128 5.128 0 0 0-.345.182c-.12.067-.219.123-.266.133-.094.018-.277-.409-.365-.717-.055-.194-.18-.355-.309-.521a3.104 3.104 0 0 1-.22-.309c-.176-.295-.428-.585-.49-.522-.063.063-.038.302.258.761.295.459.591 1.044.616 1.106.026.057.152.365-.421.39-.573.032-.875.05-1.064.095-.095.025-.422.025-.737.025l1.92 2.169.365.408-.358.415-1.845 2.15-.434.503-.479-.465-.56-.54-.768.584-.44.34-.39-.397-.322-.326a1.742 1.742 0 0 0-.05.125c-.114.268-.318.05-.585-.235l-.045-.048c-.29-.308-.541-.433-.66-.427-.076.004.022.15.117.293.056.084.111.167.128.216.03.089.294.293.505.456.104.08.194.15.238.192.079.075.01.179-.09.33-.069.103-.151.228-.212.38-.11.274-.485.59-.708.78-.085.071-.148.124-.167.15-.067.09-.202-.113-.324-.296l-.016-.024c-.126-.189-.334-.264-.19.17.145.433-.012.628-.163.716-.151.088-.894.522-1.158.723-.265.201-.403.208-.397-.031.005-.202-.214-.768-.313-1.022l-.04-.104a.385.385 0 0 1 .007-.314c.016-.043.106-.1.22-.173.153-.098.348-.222.46-.374.195-.264-.126-.157-.24-.075a3.772 3.772 0 0 0-.087.063c-.162.119-.44.322-.548.301-.107-.014-.14-.186-.163-.313a1.96 1.96 0 0 1-.049-.503c0-.054 0-.111-.002-.17a5.293 5.293 0 0 0-.025-.346c-.013-.136-.023-.25-.013-.296.019-.082.453-.082.75-.038.185.028.37-.016.56-.063.112-.027.227-.055.346-.069.32-.037.66-.144.635-.22-.031-.075-.245-.138-.749-.063-.503.082-1.12.107-1.183.107-.05 0-.24-.006-.24-.232l-.616.484a5.95 5.95 0 0 1-1.662 1.559c-1.09.666-2.474.943-3.708.547a5.278 5.278 0 0 1-1.328-.673 9.169 9.169 0 0 1-2.732.54 9.646 9.646 0 0 1-5.37-1.37l-3.33-.17-.604-.03a.066.066 0 0 1-.033 0h-.018l-.214-.014.02-.044h-.001c-.057-.018-.113-.037-.176-.062-.302-.113-.51-.12-.592-.076-.052.028.064.097.174.162a.956.956 0 0 1 .154.102c.05.05.286.1.48.14.102.021.192.04.237.055.08.026.066.12.046.257-.013.09-.028.2-.02.322.013.22-.141.558-.233.758-.033.074-.059.13-.064.153-.018.085-.177-.012-.319-.098l-.014-.009c-.145-.088-.315-.075-.07.176.246.252.202.428.126.54l-.04.062c-.123.181-.414.614-.514.806-.113.22-.201.27-.276.107-.063-.14-.388-.447-.538-.59a4.709 4.709 0 0 1-.067-.063.274.274 0 0 1-.1-.214c-.003-.034.039-.101.091-.185.073-.115.166-.264.192-.406.044-.245-.139-.07-.19.025l-.024.049c-.066.128-.196.382-.284.404-.078.02-.156-.086-.213-.164-.017-.022-.032-.042-.045-.056-.04-.044-.082-.131-.134-.238l-.073-.146a4.075 4.075 0 0 0-.125-.216c-.055-.092-.101-.169-.108-.205-.013-.063.283-.208.497-.27.135-.04.246-.13.36-.225.068-.054.137-.11.213-.159.208-.132.403-.314.359-.358-.044-.044-.208-.02-.53.195a8.043 8.043 0 0 1-.767.452l-.002.001c-.047.02-.25.108-.281-.29-.026-.402-.044-.616-.082-.748-.038-.132-.038-.924-.032-.993.007-.07.265-.1.346-.107.089-.013.41-.164.636-.327.22-.164.246-.22.158-.258-.043-.021-.186.033-.342.093-.164.062-.342.13-.433.12a3.275 3.275 0 0 1-.403-.093.392.392 0 0 0 .032-.089 63.624 63.624 0 0 1-4.375 1.384l-.384.1-.195.05-.19-.069-.622-.226-.51.17c.07.176.17.415.334.767.237.517-.083.546-.156.553h-.023c-.136 0-.745.003-1.25-.044-.542-.05-.769.031-.794.113-.025.088.346.182.693.201.131.008.258.03.382.054.203.037.398.073.593.034.309-.063.775-.088.8 0 .014.05.008.173.002.319a5.554 5.554 0 0 0-.008.367l.008.214c.008.172.014.316-.008.402-.008.028-.014.069-.02.114-.018.134-.042.309-.15.332-.126.033-.467-.196-.636-.31a6.131 6.131 0 0 0-.063-.042c-.126-.082-.472-.176-.252.094.127.156.343.277.512.371.123.07.222.125.244.17.05.107.069.182.025.333a7.371 7.371 0 0 1-.041.13c-.092.285-.283.883-.268 1.096.02.258-.126.252-.422.057-.265-.18-.95-.533-1.211-.667l-.073-.037c-.17-.088-.352-.29-.214-.761.139-.472-.088-.371-.207-.17l-.012.02c-.117.197-.255.43-.335.338a1.558 1.558 0 0 0-.187-.15c-.25-.187-.669-.5-.801-.786-.074-.161-.17-.29-.25-.396-.115-.155-.194-.26-.115-.346.045-.05.144-.135.256-.231.213-.185.474-.41.5-.505.015-.048.065-.131.117-.218.096-.16.2-.335.115-.335-.132.006-.39.151-.686.497l-.054.063c-.269.316-.47.553-.6.276-.05-.101-.104-.23-.162-.363-.114-.266-.238-.555-.342-.706-.024-.034-.047-.063-.067-.089-.028-.035-.05-.064-.065-.093-.114.428-.321.29-.365.258a9.703 9.703 0 0 1-.75-.648c-.302-.301-.478-.358-.535-.32-.056.037.12.276.321.459.077.07.143.147.207.222.104.124.204.242.341.312.22.113.522.32.491.39a1.134 1.134 0 0 1-.144.18c-.064.072-.136.154-.196.235l-.076.103c-.09.125-.166.23-.226.274-.018.014-.04.035-.065.058-.078.073-.18.169-.256.13-.092-.037-.183-.332-.231-.488a3.531 3.531 0 0 0-.02-.065c-.039-.113-.202-.34-.202-.069.003.153.073.328.129.467.042.107.077.193.066.231a.327.327 0 0 1-.151.214l-.08.053c-.191.125-.612.4-.707.538-.113.163-.202.094-.284-.17-.081-.264-.37-.912-.434-1.05-.063-.138-.075-.346.24-.566.314-.226.125-.27-.045-.207l-.013.005c-.168.062-.37.137-.37.045 0-.028-.018-.098-.041-.192-.06-.238-.157-.63-.098-.864.025-.082.031-.157.038-.233-.114.233-.233.466-.36.698-.994 1.792-2.498 3.376-4.475 4.049-1.334.453-2.782.434-4.136.069-1.158.49-2.505.522-3.689 0a4.812 4.812 0 0 1-1.372-.918v1.987c0 .327-.27.597-.598.597a.601.601 0 0 1-.598-.597V27.82a9.089 9.089 0 0 1-.756-1.936 6.103 6.103 0 0 1-.591-.044c-.05.075-.101.138-.145.182-.148.144-.204.08-.353-.095a3.508 3.508 0 0 0-.239-.257l-.037-.038-.089-.05a7.607 7.607 0 0 1-.302-.176c.012.14.329.65.421.8l.007.011c.082.139.088.195.114.428.026.2-.01.22-.13.283-.023.012-.049.026-.078.044-.13.076-.33.26-.505.421-.071.065-.138.127-.194.176-.18.156-.247-.072-.335-.369l-.024-.078c-.1-.333-.233-.521-.327-.565-.059-.028-.042.116-.025.256.01.084.02.166.012.209-.007.069.092.28.181.469.058.12.11.233.128.292.026.09-.066.143-.201.218a1.78 1.78 0 0 0-.297.197c-.182.159-.577.249-.816.303-.092.02-.16.036-.184.049-.089.044-.114-.183-.133-.365-.019-.182-.144-.327-.201.056-.05.384-.246.466-.39.472-.145.006-.863.05-1.133.094-.271.044-.372 0-.277-.176.088-.164.148-.759.166-.936l.004-.032c.012-.126.05-.176.12-.233.028-.023.115-.032.223-.042.151-.014.345-.033.487-.102.246-.12-.031-.164-.15-.145a4.321 4.321 0 0 0-.058.01c-.16.027-.476.082-.553.022-.068-.054-.027-.19.003-.292.01-.03.018-.058.022-.08.009-.065.057-.16.115-.276a5.176 5.176 0 0 0 .189-.42c.043-.11.08-.202.105-.234.05-.056.372.114.573.258.126.09.28.127.438.165.095.022.192.045.286.08.252.095.541.145.554.076.006-.07-.126-.195-.529-.333a8.583 8.583 0 0 1-.919-.371l-.002-.001c-.047-.027-.258-.148.065-.44a.669.669 0 0 1-.107-.013l-.113-.018c-.187-.027-.534-.003-.837.018-.126.008-.244.016-.34.02-.3.011-.188-.262-.037-.631l.043-.105c.176-.415.189-.71.132-.83-.035-.07-.132.084-.229.235-.06.093-.118.186-.161.224-.078.07-.164.428-.23.707a4.24 4.24 0 0 1-.079.3c-.038.109-.171.087-.366.054a2.318 2.318 0 0 0-.458-.042c-.315.009-.787-.219-1.07-.355a1.648 1.648 0 0 0-.22-.098c-.12-.031.03-.27.163-.471.126-.201.113-.447-.252-.107s-.623.27-.774.157c-.151-.113-.9-.641-1.209-.817-.308-.176-.378-.302-.139-.403.197-.082.636-.521.849-.735a6.52 6.52 0 0 1 .102-.1.411.411 0 0 1 .308-.133c.052-.002.147.061.267.141.161.107.366.244.564.287.34.075.101-.189-.031-.264l-.064-.036c-.179-.098-.539-.297-.572-.423-.029-.106.118-.207.231-.286.035-.024.068-.047.09-.066.077-.067.233-.138.421-.223l.133-.06c.116-.054.239-.122.345-.182.12-.067.22-.123.266-.133.094-.018.277.41.365.717.055.194.18.355.31.521.076.099.153.2.219.309.176.296.428.585.49.522.064-.063.038-.302-.257-.76a11.303 11.303 0 0 1-.617-1.107c-.025-.05-.126-.296.252-.371a25.44 25.44 0 0 1-1.524-1.886l-.428.39-.787.722-.252-1.037-1.422-5.916-.101-.427.365-.245 2.014-1.346c-.778-.754-.956-.953-1.021-1.025a3.912 3.912 0 0 0-.01-.012l-.467-.54-.233-.271.026-.082-.75-.377-.46-.226.133-.497.793-2.992.177-.667.648.233.302.107.46-.598.233-.301.377.069.756.138c.019 0 .207.038.522.107l.812-.283.189-.063.189.057.384.107c.12.031 2.115.597 4.425 1.496a3.557 3.557 0 0 0-.076-.131 7.961 7.961 0 0 1-.05-.083c-.294-.488.029-.553.094-.565.064-.013.718-.089 1.266-.101.548-.007.762-.113.774-.201.013-.088-.365-.139-.71-.12-.132.007-.26-.003-.386-.012-.208-.016-.409-.032-.597.031-.308.1-.768.182-.8.094-.02-.046-.03-.173-.041-.323-.008-.114-.018-.241-.034-.356-.01-.074-.021-.144-.032-.21-.028-.176-.05-.319-.037-.406.003-.027.003-.062.003-.102.001-.138.003-.324.11-.363.117-.045.49.147.67.24l.06.03c.139.07.491.126.24-.12-.145-.14-.373-.235-.551-.31-.132-.055-.237-.099-.261-.142-.063-.094-.089-.176-.063-.327.004-.028.015-.08.029-.15.06-.297.181-.891.14-1.1-.05-.258.095-.271.41-.108.314.164 1.177.49 1.353.554.176.069.378.245.296.729-.082.484.132.365.227.144.094-.22.214-.484.302-.396.024.025.103.072.208.134.271.16.718.423.88.69.092.15.201.267.29.363.134.143.225.241.158.335a4.4 4.4 0 0 1-.22.246c-.195.208-.437.468-.454.565a1.267 1.267 0 0 1-.096.253c-.074.166-.15.337-.068.325.133-.012.372-.188.624-.566l.052-.076c.226-.336.4-.595.558-.332.048.08.104.177.163.282.152.266.328.575.454.724l.08.083c.122.125.158.162.052.394l-.037.085c-.03.071-.054.127-.082.173l.396-.421.265-.29.377.114 2.928.874 2.064-1.459 1.014-.716-.013.936.479-.34c.05-.094.12-.226.17-.345l.049-.118a1.778 1.778 0 0 1 .195-.388c.057-.092.133-.218.222-.198.1.022.269.3.35.433l.027.045c.063.1.277.276.208.012-.04-.153-.155-.31-.244-.433-.064-.088-.115-.158-.115-.195 0-.095.013-.158.095-.246l.074-.081c.158-.173.485-.53.543-.686.069-.188.17-.138.314.095.145.232.586.798.68.911.095.113.151.315-.094.604-.246.289-.057.295.094.188l.011-.007c.15-.106.323-.23.348-.137.007.026.04.088.084.17.116.217.308.576.313.817.002.131.028.25.05.349.033.152.056.258-.032.292-.046.02-.14.046-.248.077-.212.06-.476.135-.526.193-.027.033-.094.078-.162.125-.119.082-.244.168-.184.196.088.044.321.025.642-.126l.078-.035c.283-.13.495-.226.495.01 0 .076-.003.168-.006.266-.007.236-.014.505.012.652l.018.088c.03.132.039.172-.125.283l-.016.011c-.176.123-.227.16-.38.184l-.15.028-.253.047.56.308a.137.137 0 0 1 .05.032l.365.201c1.115.61 2.361.918 3.702.918 1.089 0 1.857-.208 1.939-.233l1.038-.34.36-.119.006-.025.12-.478.496.007 1.385.012c.02 0 1.77.025 4.13.164.012-.066.025-.128.039-.189l.024-.113.227-1.044.113-.521.535.025.252.012.082-.314.51.019 1.92.069 2.102-.742.416-.145.283.34.604.73.028-.034c.127-.15.24-.284.293-.319.132-.1.315-.289.655-.666.34-.377.478-.12.503-.07.026.05.265.579.41 1.038.15.453.295.61.371.597.082-.012.025-.34-.076-.629-.037-.105-.061-.213-.085-.318-.04-.18-.08-.353-.179-.499-.164-.232-.346-.597-.283-.647.035-.028.134-.066.253-.111.095-.036.203-.077.3-.122l.16-.074a1.71 1.71 0 0 1 .344-.14.882.882 0 0 0 .108-.024c.115-.03.259-.068.314.005.07.095-.007.497-.038.656l-.006.03c-.025.132.025.446.164.17.084-.16.106-.378.124-.547.013-.123.023-.22.052-.252.07-.075.126-.113.264-.132.028-.004.083-.01.155-.016.272-.026.781-.075.94-.16.202-.107.253.006.196.314-.05.262-.094.904-.113 1.179l-.007.098c-.006.163-.1.377-.535.433-.434.057-.277.202-.07.227l.03.003c.2.024.428.051.38.148-.014.026-.033.103-.058.206-.066.267-.176.71-.357.919-.1.114-.17.234-.227.333-.087.15-.147.254-.245.22-.057-.02-.163-.071-.281-.13-.221-.109-.49-.24-.576-.228-.05.007-.142-.006-.237-.018-.157-.021-.319-.043-.291.024.044.1.258.258.635.377l.094.029c.338.103.583.178.41.38-.06.068-.14.151-.223.24-.178.186-.378.396-.463.533l-.063.1.201.038.718.145-.202.56.12.064c.06.033.12.065.176.099l2.128-1.207.655-.371.245.71.126.365.605-.214a.647.647 0 0 0-.004-.015c-.005-.018-.01-.033-.01-.048-.024-.213-.125-.534-.32-1.131-.195-.604.164-.597.24-.591.075.006.792.075 1.384.201.585.12.844.057.881-.031.038-.088-.352-.24-.73-.302a3.48 3.48 0 0 1-.4-.106c-.222-.068-.434-.134-.657-.114-.353.031-.87.006-.882-.094-.007-.055.013-.186.036-.34a6.693 6.693 0 0 0 .07-.645c.011-.193.022-.352.058-.443.013-.032.024-.077.037-.127.038-.146.085-.33.202-.344.136-.016.471.265.647.412l.07.06c.133.106.498.25.29-.07-.12-.185-.342-.344-.516-.47-.128-.091-.23-.164-.245-.215a.414.414 0 0 1 .012-.365l.043-.094c.126-.276.437-.955.448-1.207.013-.283.17-.264.466-.013.296.252 1.14.811 1.316.925.176.113.352.352.145.855-.208.503.05.427.207.213l.018-.023c.154-.203.331-.438.404-.329.02.03.09.096.182.183.25.237.673.637.787.968.062.183.15.335.224.46.108.183.182.309.085.395-.058.051-.183.136-.322.232-.254.173-.557.38-.597.478a1.51 1.51 0 0 1-.162.239c-.123.162-.251.332-.16.34.14.012.441-.12.806-.46l.08-.075c.325-.31.565-.54.676-.22.046.133.099.307.153.486l.061.2 3.4-3.917.516-.597.421.572.661-.623.888-.836.17 1.207.195 1.415c.076-.34.176-.748.227-.849.081-.163.17-.434.32-.962.152-.522.41-.34.46-.302.05.038.535.44.894.818.365.37.58.452.648.408.07-.044-.138-.34-.377-.572a3.03 3.03 0 0 1-.228-.265c-.126-.158-.248-.311-.42-.408-.271-.15-.624-.414-.586-.496.02-.04.096-.122.187-.22a5.68 5.68 0 0 0 .345-.4c.112-.143.207-.264.28-.317.021-.016.047-.039.076-.064.098-.088.23-.205.327-.156.114.066.233.506.277.668l.006.024c.038.138.233.42.24.088.007-.194-.075-.416-.139-.59-.046-.126-.083-.227-.07-.272a.389.389 0 0 1 .19-.257l.032-.02c.187-.11.815-.484.956-.672.145-.195.252-.1.34.22.088.32.421 1.138.49 1.301.07.164.083.415-.314.68-.397.263-.17.333.044.257l.017-.006c.21-.074.455-.16.455-.044 0 .032.017.111.04.218.064.292.17.787.092 1.077a2.133 2.133 0 0 0-.06.43c-.012.189-.02.32-.135.33-.068.01-.204.01-.355.012-.266.001-.58.003-.652.051-.041.028-.133.059-.227.09-.166.057-.343.116-.283.168.088.07.315.12.667.082l.177-.075.019.044.03-.005c.382-.061.672-.107.593.174-.023.081-.052.175-.082.274l-.038.122c.554-.37 1.07-.704 1.542-.98L74.2 3.069l1.247-.716-.302 1.402-1.329 6.192-.044.22-.176.138-.976.786-.05 1.37-.013.36-.163.087a.508.508 0 0 1 .006.05c.002.018.003.035.006.05.02.183.145.328.202-.056.05-.383.239-.465.39-.471.145-.007.862-.05 1.133-.095.27-.044.371 0 .277.176-.088.164-.148.76-.167.937a3.25 3.25 0 0 1-.003.031c-.012.126-.05.177-.12.233-.029.024-.115.032-.224.043-.15.014-.344.032-.487.102-.245.12.032.163.151.144.015-.002.035-.005.058-.01.159-.027.476-.082.553-.021.068.053.027.19-.004.292a.95.95 0 0 0-.021.079c-.009.065-.057.161-.115.277-.026.05-.053.105-.08.163-.039.082-.076.174-.109.257-.043.109-.08.201-.105.233-.05.057-.372-.113-.573-.257-.126-.091-.28-.127-.438-.165-.095-.023-.192-.045-.286-.08-.252-.095-.542-.145-.554-.076-.007.069.126.195.529.333.402.132.875.346.919.371h.001c.048.028.259.148-.064.44a.67.67 0 0 1 .106.014l.114.018c.187.026.534.003.837-.018.126-.008.244-.016.34-.02.3-.012.188.261.036.631l-.042.104c-.176.415-.189.71-.132.83.035.07.132-.083.228-.234a1.32 1.32 0 0 1 .162-.225c.077-.069.164-.428.23-.706.032-.13.058-.242.078-.3.038-.11.172-.087.367-.055.129.022.285.048.458.043.323-.01.813.228 1.092.363.097.047.168.081.199.09.12.03-.032.27-.164.47-.126.202-.113.447.252.108.365-.34.623-.27.774-.157Zm-4.91-2.308c-.019-.106-.246-.264-.548-.326-.302-.057-.226.119-.226.113 0 .115.133.153.274.192.05.014.101.028.147.046.17.07.372.089.353-.025ZM69.824 2.944c-.277-.007-.541.138-.642.251-.094.113-.15.201-.006.132.057-.025.585-.232.73-.232.151 0 .195-.145-.082-.151Zm-14.16 3.45c.195.052.38.1.462-.037 0 0 .214-.163-.195-.301-.415-.145-.8-.12-.906.006-.101.12.15.245.415.283.073.01.149.03.223.05Zm-4.769-.527c-.227-.12-.51-.107-.636-.05-.126.05-.207.1-.056.107.056 0 .579.044.698.1.126.063.22-.038-.006-.157Zm-1.127-.704c-.063-.34-.239-.597-.365-.623-.126-.018-.113.208-.038.403.02.05.036.107.051.162.045.158.088.311.214.316 0 0 .201.081.138-.258ZM11.661 3.698c.185.006.36.011.406-.126 0 0 .158-.188-.233-.232-.39-.044-.73.056-.8.188-.068.132.183.189.423.17.065-.005.135-.003.204 0ZM4.765 22.307c-.12-.208-.308-.384-.378-.258-.069.132.038.459.29.767s.321.07.321.07c.089-.117-.016-.265-.126-.418a2.08 2.08 0 0 1-.107-.161Zm.23 1.487.028-.041c.1-.139 0-.1-.132-.032-.145.07-.353.302-.416.591-.062.29.095.277.133.126.027-.126.293-.51.387-.644ZM7.93 26.67c.02.107.246.264.548.327.302.063.227-.12.227-.113 0-.116-.134-.154-.275-.193a1.574 1.574 0 0 1-.147-.046c-.17-.07-.371-.082-.353.025Zm1.121.773c-.05.113-.063.358.038.56.1.2.189.12.145.012-.05-.107-.082-.572-.082-.622-.007-.132-.05-.063-.101.05Zm27.321.255c-.189-.027-.368-.053-.429.078 0 0-.182.176.208.258.39.082.737.019.819-.1.081-.12-.164-.202-.403-.214-.063-.003-.13-.013-.195-.022Zm-3.58-3.417a.032.032 0 0 1 .01.006c.076.044.246-.044.315-.113a.567.567 0 0 0 .07-.063l-.209-.201a.656.656 0 0 1-.069.038c-.113.063-.182.251-.126.327.003.003.007.004.01.006ZM24.237 7.35l.056.031c.038-.044-.025-.107-.233-.245a2.67 2.67 0 0 0-.673-.302l.006.396.032-.289.812.409Zm1.454-3.47c-.22.056-.397.226-.447.339-.057.113-.082.188.025.107l.038-.029c.108-.08.388-.29.485-.317.113-.031.12-.157-.101-.1Zm-.088 2.275c.132-.038.063-.144-.378-.063 0 0-.088.113-.063.208.016.06.135-.002.254-.062.069-.036.138-.071.187-.083Zm-.762.428a.568.568 0 0 0-.07-.158c-.106-.163-.641-.578-.786-.616-.158-.031-.164.082-.044.17.04.026.098.055.161.087.133.067.29.146.367.24.033.038.077.078.123.12.06.053.123.111.173.176l.02-.05.056.03Zm-.308-2.496c-.246-.189-.517-.252-.611-.195-.1.057.044.195.214.283.044.023.09.052.134.08.124.081.242.157.325.083 0 0 .183-.063-.063-.251Zm-.491.468c-.136-.096-.264-.187-.416-.223a2.737 2.737 0 0 1-.302-.088l.006.264c.164.075.504.233.78.396.366.214.555.226.599.176.044-.05-.183-.239-.422-.365-.088-.048-.168-.105-.245-.16ZM17.714 24.54l-.793.458a7.09 7.09 0 0 1-1.48.636c.9 1.565 2.235 2.866 3.935 3.552.384.15.787.276 1.196.364a4.705 4.705 0 0 0 1.013-.955c.668-.843 1.102-1.855 1.404-2.892l-3.663.968-.724.188-.063-.741-.107-1.226-.712-.359-.006.007ZM15.328 5.553c-.24.207-.736.653-.755.773-.007.019-.007.031 0 .044l.755-.817Zm-.944-.648c.12-.126-.032-.195-.46.182 0 0-.025.183.07.27.057.054.154-.1.248-.25.05-.08.1-.158.142-.202Zm-1.24-2.52c.107-.114.031-.252-.177-.045-.207.208-.283.516-.264.673.019.157.044.258.1.1.02-.062.234-.616.34-.729Zm.503 3.363c-.22-.107-1.082-.208-1.271-.145-.19.063-.126.201.063.214.068.004.16-.002.258-.01.185-.012.398-.027.541.022.061.02.135.033.212.047.203.037.434.079.544.242 0 0-.126-.264-.347-.37ZM7.283 23.596c-.075.565.063.653.1.484.014-.06.052-.143.09-.228.074-.162.15-.33.068-.35-.12-.026-.258.094-.258.094Zm.976 1.47a2.7 2.7 0 0 0 .308-.314c.038-.05.177-.17.34-.301 0-.088-.006-.189-.019-.309l-.166-.138-.167-.138c-.057.29-.101.635-.114.754-.019.183-.056.252-.182.447Zm1.259.233c-.145-.031-.227.05-.1.145.125.088.786.214.981.189.195-.026.346-.195.346-.195-.114.092-.286.07-.442.052a1.272 1.272 0 0 0-.187-.015c-.122.005-.284-.059-.42-.113-.069-.026-.13-.05-.178-.063Zm1.038.71c-.088.045-.113.183-.113.183.233.384.359.365.296.245-.02-.04-.036-.108-.054-.178-.034-.135-.07-.278-.129-.25Zm2.93.091c.031.102.062.205.098.306.026.066.05.132.073.198l.072.198v-.887c-.1.007-.201.013-.296.013l.053.172Zm1.44 2.72c.61.685 1.384 1.207 2.347 1.414a4.21 4.21 0 0 0 2.021-.075 8.852 8.852 0 0 1-.97-.421c-1.441-.736-2.562-1.83-3.399-3.131v2.213Zm9.65.276c1.718-.886 2.902-2.52 3.67-4.25.144-.32.277-.653.396-.993-.264.088-.529.176-.78.27l-.56.214-.284.107-.258-.15-.189-.114-.138.346-.12.296-.308.081-2.518.667c-.397 1.452-1.033 2.917-2.153 3.941a1.714 1.714 0 0 1-.109.097l-.049.042c1.159.144 2.342-.013 3.4-.553Zm4.947-2.627c.227 0 .441-.126.517-.22.075-.095.12-.164 0-.107l-.059.024c-.132.056-.435.183-.533.183-.12 0-.151.12.075.12Zm-.205-1.322c.221-.008.502-.018.564-.061.036-.026.114-.056.195-.086.132-.05.268-.102.22-.14-.075-.064-.308-.095-.654-.032-.151.031-.29.056-.39.063l-.113.264c.048-.003.11-.006.178-.008Zm.848-.86c-.139 0-.095.12.352.151 0 0 .113-.088.113-.182 0-.06-.137-.03-.271-.001a1.099 1.099 0 0 1-.194.032Zm1.076 2.603c.107-.032 0-.201-.139-.327a1.569 1.569 0 0 1-.114-.115c-.1-.106-.192-.206-.288-.155 0 0-.19.018 0 .257.189.24.434.371.541.34Zm-.995-3.47c.252.012.548.025.605-.02.05-.037.056-.062-.044-.106-.183.037-.372.081-.56.125Zm.794.804c.063.183.478.717.616.786.139.07.177-.038.082-.157a1.474 1.474 0 0 0-.15-.141c-.106-.094-.23-.2-.278-.305a1.243 1.243 0 0 0-.097-.16c-.088-.13-.185-.274-.155-.419 0 0-.081.214-.018.396Zm.736-.83c-.107.032-.088.095.126.315.07.069.151.144.227.207.012-.12.037-.226.069-.314l-.06-.035c-.16-.095-.311-.184-.362-.173Zm.759 2.445c.107-.175.148-.242.299-.338.17-.114.9-.604.938-.742.037-.139-.05-.114-.655.107-.139.05-.252.1-.346.144a3.661 3.661 0 0 1-.114.44 2.577 2.577 0 0 0-.138.415 3.85 3.85 0 0 0 .016-.026Zm1.255.353c-.132.107.007.195.479-.132 0 0 .044-.176-.038-.27-.053-.061-.167.08-.276.217-.06.075-.118.147-.165.185Zm1.121 2.703c.227-.182.34-.477.34-.635 0-.157-.013-.264-.088-.113-.032.063-.302.585-.422.686-.12.1-.057.245.17.062Zm9.726-1.571c.088.05.327-.032.535-.214.19-.172.065-.224.046-.232h-.002c-.083-.06-.184.015-.289.095-.037.028-.076.057-.114.08-.145.088-.264.22-.176.27ZM48.824 7.37s-.157.025-.208.125c-.032.061.122.104.27.145.082.022.162.044.209.069.138.07.157-.075-.27-.34Zm-.83-1.17c-.108-.144-.202-.056-.165.107.014.058.043.133.075.215.053.137.113.294.12.42l.177.207c-.019-.301-.126-.83-.208-.949Zm-3.425 19.382c.132-.038.585-.446.673-.597a.512.512 0 0 0 .044-.352c.005.133-.106.246-.205.348a1.16 1.16 0 0 0-.11.123c-.06.08-.182.155-.291.22-.064.04-.123.075-.162.107-.1.088-.088.189.05.151Zm.975-2.106c-.132-.025-.333.063-.144.126.031.012.27.082.34.1a.442.442 0 0 0 .157 0l.031-.15c-.037-.032-.088-.063-.138-.063l-.06.001c-.05.003-.089.005-.186-.014Zm.252.68c-.277.043-.315.062-.258.125.025.024.104.043.208.068l.006.001.031-.138.013-.057Zm.03 2.693-.005-.003c-.1-.07-.069 0-.019.1a.7.7 0 0 0 .428.277c.202.038.19-.07.082-.094-.103-.025-.43-.243-.486-.28Zm-.225-1.776c-.019.088.07.182.07.182.402.044.459-.056.34-.081-.044-.007-.108-.034-.173-.061-.111-.048-.225-.096-.237-.04Zm21.321 1.094c.082.107.41.15.768.05.36-.1.183-.251.177-.251-.06-.118-.216-.086-.383-.052a1.71 1.71 0 0 1-.197.033c-.226.019-.447.113-.365.22Zm7.02-8.55c.075-.566-.064-.654-.101-.484-.013.055-.05.135-.087.219-.075.163-.154.338-.07.36.119.024.257-.095.257-.095Zm-.976-1.477a2.692 2.692 0 0 0-.309.314c-.038.05-.182.176-.34.295 0 .107.006.233.025.378.076.635.095.723.202.628.107-.094.214-.962.239-1.17.019-.181.057-.25.183-.445Zm-1.902-1.98c.013-.07-.075-.271-.163-.454l-.24.133.013.044c.015.057.03.116.05.176.101.333.233.521.328.565.059.028.042-.116.025-.256a.984.984 0 0 1-.013-.209Zm-.396 1.043c.088-.044.113-.182.113-.182-.233-.384-.359-.365-.296-.246.02.041.037.109.054.178.034.136.07.279.129.25Zm.384 1.483a3.488 3.488 0 0 0-.233-.088l.151.145c.025-.019.05-.038.082-.056Zm.483-.842c.068.026.13.05.178.063.145.038.22-.05.1-.138-.125-.095-.786-.22-.981-.195-.196.025-.347.195-.347.195.114-.092.287-.071.442-.052.068.008.133.016.188.014.122-.004.284.059.42.113Zm-1.956-.886c-.082-.139-.088-.195-.113-.428-.007-.012-.007-.025-.007-.031l-.529.289 1.07 1.03c0-.005.002-.01.004-.015a.046.046 0 0 0 .003-.016c.019-.113-.34-.691-.428-.83Zm1.932 2.722-.031.157.088.094c.006-.006.006-.006.006-.012.02-.044.126-.378.158-.478.025-.094.031-.29-.044-.333h-.007c-.006 0-.012-.007-.019-.007-.063-.012-.138.044-.188.126l.113.107-.076.346Zm.567-3.867c.006.132.05.063.1-.05a.771.771 0 0 0-.037-.56c-.044-.075-.082-.113-.107-.119l-.05.025c-.007.02 0 .05.012.082.05.107.082.572.082.622ZM67.74 2.365c-.132.038-.013.252.157.409.045.042.089.091.131.14.118.133.229.26.354.2 0 0 .239-.013.012-.315-.226-.302-.522-.471-.654-.434Zm-.007 2.993c-.176-.283-.46-.641-.579-.704-.163-.095-.22.037-.1.182.04.053.108.115.18.183.128.12.273.255.33.383l.018.037.082-.044.07-.037Zm-1.183.628c-.208-.182-.422-.333-.497-.358l-.05-.017a1.607 1.607 0 0 1-.196-.077l.082.578.04.003a.523.523 0 0 1 .236.072l.385-.2Zm-7.12 20.187a9.168 9.168 0 0 0 2.273-1.477l-.34-.44-3.425.509c.032.044.07.088.107.132.397.465.863.924 1.385 1.276Zm-.654-15.522a.694.694 0 0 0-.108.082l.309-.176a.545.545 0 0 0-.202.094Zm-2.248 1.471c.233-.188.485-.37.75-.547 0-.044-.026-.081-.095-.113-.157-.061-.417.115-.66.279l-.09.06a3.1 3.1 0 0 1 .095.321Zm3.053-3.18a.79.79 0 0 1-.327.282l-.009.005c-.215.114-1.05.556-1.105.693-.057.15.044.132.73-.038.201-.048.358-.103.483-.146.182-.063.294-.102.373-.061l-.031-.302-.02-.189.026-.05-.12-.195Zm-1.297-.592c.164-.1.02-.214-.535.088 0 0-.069.189.007.302.048.073.188-.068.324-.204.075-.076.148-.15.204-.186Zm-.893-3.087c-.271.17-.428.478-.447.654-.026.17-.02.29.081.132.005-.005.011-.015.02-.028.09-.13.402-.584.528-.67.139-.094.088-.257-.182-.088Zm-.101 3.823c-.214-.17-1.114-.49-1.335-.465-.22.018-.182.182.02.245.072.022.176.039.29.056.2.031.429.067.565.151.063.038.142.072.226.107.207.089.44.188.517.39 0 0-.07-.314-.283-.484Zm-.258 1.553c.107-.114.038-.17-.384-.277a3.775 3.775 0 0 0-1.045-.107l.126.566.015-.011c.012-.009.022-.016.035-.02.128-.073.435-.08.715-.086.255-.006.487-.011.538-.065ZM51.745 26.11a9.345 9.345 0 0 0 1.706.616 8.99 8.99 0 0 0 4.948-.157 8.48 8.48 0 0 1-1.316-1.377l-.062-.083c-.048-.064-.095-.127-.14-.193l-5.136.76v.434Zm9.071.66c1.09.214 2.273-.213 3.104-.924.195-.17.371-.346.54-.528l-.616-.34-1.618.384-.245-.314a9.495 9.495 0 0 1-2.071 1.402c.283.144.585.258.906.32Zm7.044-2.936c-.17.044-.207.177-.025.208.07.012.227-.013.403-.063a1.656 1.656 0 0 1-.296-.157.318.318 0 0 0-.082.012Zm.68 2.547c.013.15.132.42.353.578.22.157.27.019.15-.07-.113-.087-.396-.559-.427-.615-.082-.139-.088-.038-.076.107Zm1.051-1.98-.012.006a.091.091 0 0 0 .016.005c.006.002.012.004.015.007l-.019-.019Zm2.795-5.54c.056.02.137.106.267.297l-.267-.296Zm1.619.16c.052.091.1.175.144.23.12.151.264.133.214-.062-.05-.195-.61-.855-.825-.981-.214-.126-.503-.082-.503-.082.195 0 .357.166.5.313.056.057.11.112.16.152.117.092.22.272.31.43Zm2.225-1.603-.029.042c-.1.132 0 .094.132.031.145-.069.36-.308.416-.59.063-.29-.1-.271-.132-.127-.028.126-.294.51-.387.644Zm.23 1.481c.119.208.308.384.377.258.07-.126-.032-.465-.29-.767-.251-.308-.32-.069-.32-.069-.09.117.016.264.125.417.038.054.076.108.107.161Zm-56.31 6.097a.192.192 0 0 1-.14-.063.17.17 0 0 1-.03-.194l.081-.212a.174.174 0 0 1 .113-.107l4.808-1.64c.019-.006.038-.012.063-.012.05 0 .1.019.139.056.05.057.063.132.037.2l-.252.627a.203.203 0 0 1-.126.112L20.2 24.99a.121.121 0 0 0-.026.003.121.121 0 0 1-.025.003Zm28.9-.156a.188.188 0 0 1-.15-.075.181.181 0 0 1-.026-.17l.429-1.307-.328.75a.186.186 0 0 1-.107.1.176.176 0 0 1-.145-.006l-.195-.094a.185.185 0 0 1-.101-.212l.038-.144h-.448a.178.178 0 0 1-.151-.081.181.181 0 0 1-.025-.17l.762-2.202-.157.087a.179.179 0 0 1-.202-.012.194.194 0 0 1-.075-.188l.094-.5a.13.13 0 0 1-.038-.026.199.199 0 0 1-.063-.162l.038-.288c0-.006.002-.011.003-.016a.046.046 0 0 0 .003-.016l-.019-.018a.197.197 0 0 1-.05-.176l.27-1.226c-1.555 1.796-6.205 3.68-9.393 4.819 4.516-1.313 7.59-3.114 7.9-3.296l.026-.015a.186.186 0 0 1 .1-.025c.038 0 .076.012.108.031a.191.191 0 0 1 .082.188l-.139.738a.198.198 0 0 1-.107.138c-3.584 1.691-8.048 2.912-8.306 2.982l-.011.003c-.019.007-.032.007-.05.007a.227.227 0 0 1-.063-.013l-.391-.144a.193.193 0 0 1-.126-.188c0-.025.006-.05.019-.069-1.12.385-1.933.637-2.153.706l-.046.014c-.019.006-.038.006-.057.006a.213.213 0 0 1-.107-.03c-.187-.13-.783-.7-1.038-.943l-.109-.103a.2.2 0 0 1-.05-.194.183.183 0 0 1 .157-.125c.87-.113 1.866-.407 2.634-.67l-1.172.082h-.012a.189.189 0 0 1-.145-.07l-.832-1-.246-.257a.242.242 0 0 0-.019-.025.362.362 0 0 1-.018-.025v.006a.19.19 0 0 1-.152.107s-.163.012-.44.043c-1.292.144-4.575.576-7.095 1.527a.227.227 0 0 1-.07.013.178.178 0 0 1-.094-.025c-.025-.013-.624-.37-1.317-1.133a.202.202 0 0 1-.05-.144.19.19 0 0 1 .075-.131 14.95 14.95 0 0 1 2.256-1.34 6.252 6.252 0 0 1-.006-.178 38.764 38.764 0 0 0-.157-2.225.185.185 0 0 1-.12-.15 39.96 39.96 0 0 0-.391-2.297c-.07.482-.29 1.79-.725 2.98a450.54 450.54 0 0 1-.573 1.62.19.19 0 0 1-.177.125l-1.726-.031a.182.182 0 0 1-.164-.1c-.025-.044-.605-1.133-1.663-4.687a.19.19 0 0 1 .019-.144l.082-.144-.036-.16c-.044-.198-.086-.384-.116-.548-.006-.05 0-.1.032-.144.019-.03.51-.713 1.947-1.451a.266.266 0 0 1 .094-.025.22.22 0 0 1 .151.062.21.21 0 0 1 .057.157c0 .03-.002.093-.006.178l-.006.185c.031-.007.063-.007.094-.007.082 0 .139.013.164.02.246.05.252.206.246.256-.044.375-.076.744-.089 1.114a15.38 15.38 0 0 0 .05 2.153c.133-.82.202-1.678.202-1.69a.19.19 0 0 1 .076-.138.235.235 0 0 1 .07-.031c0-.031 0-.069.006-.1v-.15c0-.057.025-.107.069-.145a.167.167 0 0 1 .12-.043h.031s.076.012.164.031l.048.009c.086.016.177.032.267.054.025.006.05.012.07.012h.006c.466.1.844.232 1.128.382a22.217 22.217 0 0 0-.51-1.953 9.074 9.074 0 0 1-1.633-.45c-.145-.057-.227-.094-.227-.094a.18.18 0 0 1-.107-.194c.044-.394.145-.857.296-1.377-.095-.06-.165-.11-.207-.14a.34.34 0 0 0-.045-.029.196.196 0 0 1-.075-.169l.025-.256a.193.193 0 0 1 .095-.144.174.174 0 0 1 .17-.006c.088.043.182.087.283.13a.179.179 0 0 1-.012-.15c.107-.306.189-.506.195-.513a.19.19 0 0 1 .113-.106.225.225 0 0 1 .063-.012c.032 0 .063.006.088.025 1.368.738 2.893 1.12 4.518 1.12 1.443 0 2.439-.307 2.451-.313.019-.006.038-.006.057-.006.07 0 .138.043.17.106.044.094.094.207.151.338a.191.191 0 0 1-.044.213l.302.744a.186.186 0 0 1-.088.238 7.991 7.991 0 0 1-1.02.426.183.183 0 0 1-.127.2c-.743.263-1.512.444-2.3.532.032.463.058.982.076 1.552l.492-.163a.184.184 0 0 1 .056-.012.19.19 0 0 1 .189.194l-.012.244a.196.196 0 0 1 .082.037c.05.038.076.094.07.157l-.095 1.564a.193.193 0 0 1-.152.176l-.617.131c-.006.92-.019 1.765-.038 2.39.812-.286 1.366-.419 1.436-.436l.007-.001c.013-.007.025-.007.044-.007.05 0 .095.02.132.05l.114.107c.227-.05.447-.094.661-.132h.032c.031 0 .057.007.088.02a8.294 8.294 0 0 1 1.556 1.076c.05.043.076.118.057.187a.192.192 0 0 1-.139.138.883.883 0 0 1-.138.031l.094.094.397-.075h.032c.05 0 .1.019.139.063.176.194.333.388.46.582a.048.048 0 0 1 .012.025.195.195 0 0 1 .126-.107l.007-.002c.147-.036 2.462-.605 4.901-1.28l.007-.044a.27.27 0 0 1-.032-.157c.032-.338.063-.7.095-1.114a.224.224 0 0 1 .069-.131l-.97.087h-.02a.188.188 0 0 1-.176-.256l.624-1.54c-.12.113-.27.22-.441.32v.012a.18.18 0 0 1-.088.2c-.599.344-1.28.526-1.72.607l1.09 1.302c.038.044.05.106.038.163a.188.188 0 0 1-.108.131l-.163.075a.176.176 0 0 1-.158 0l.044.075c.025.044.038.1.019.157a.19.19 0 0 1-.107.112c-.164.073-.59.208-.686.238l-.02.006c-.019.007-.038.007-.056.007a.18.18 0 0 1-.14-.063l-1.562-1.702v1.364a.195.195 0 0 1-.081.157.213.213 0 0 1-.108.03.211.211 0 0 1-.056-.008l-.013-.004-.145-.056v.012c0 .036-.002.071-.003.105a1.992 1.992 0 0 0-.003.096.19.19 0 0 1-.19.175.213.213 0 0 1-.106-.031l-.164-.107a.178.178 0 0 1-.082-.137l-.006-.05-.22-.057a.19.19 0 0 1-.14-.144l-.006-.018a.385.385 0 0 1-.164-.1.607.607 0 0 1-.15-.276c-.032-.14-.063-.283-.094-.43l-.083-.384-.032-.018a.184.184 0 0 1-.082-.1l-.019-.063c-.12.006-.182.013-.182.013h-.013a.182.182 0 0 1-.164-.1l-.466-.852a.183.183 0 0 1 .006-.187.183.183 0 0 1 .164-.088h.271l-.195-.595-.092.014c-.025.005-.05.009-.072.011l-.788.138h-.031a.186.186 0 0 1-.17-.106l-.624-1.233a.178.178 0 0 1-.006-.15c-.027 0-.073.003-.1.005l-.02.001a.188.188 0 0 1-.164-.094l-.1-.175a.204.204 0 0 1-.007-.182.187.187 0 0 1 .151-.1s.07-.006.183-.012l-.088-.144c-.013-.019-.02-.038-.025-.056l-.038-.07a.186.186 0 0 1 0-.18.197.197 0 0 1 .157-.101h.013c.099-.005.78-.037 1.726-.037 1.078 0 2.666.043 4.134.243a.19.19 0 0 1 .163.188v.02c1.613.256 2.546.669 2.76 1.226l.006.016c.012.035.026.078.032.121a.221.221 0 0 1 .094-.043l.074-.011c.032-.006.065-.011.096-.014.045-.845.076-1.697.101-2.529.007-.125.101-.256.315-.256.044 0 .095.006.145.018.007-.04.011-.08.016-.118l.016-.12a161.496 161.496 0 0 0-5.312-.225c-.05 0-.1-.025-.138-.062l-.964-1.114a.184.184 0 0 1-.032-.194.183.183 0 0 1 .164-.113l1.506-.069a160.91 160.91 0 0 0-.468-.03c-.266-.017-.475-.03-.565-.039a.198.198 0 0 1-.145-.087.179.179 0 0 1-.013-.17l.145-.368a.184.184 0 0 1 .17-.12l.372-.012-.057-.313a.18.18 0 0 1 .044-.156.189.189 0 0 1 .145-.069c.025 0 2.502.025 5.564.257a29 29 0 0 1 .315-1.734.188.188 0 0 1 .182-.15h.007l.573.025.082-.313a.18.18 0 0 1 .157-.138l.353-.056h.032c.05 0 .1.019.132.056a.216.216 0 0 1 .05.1l2.218-.544c.013-.006.032-.006.044-.006.057 0 .108.025.145.069l.441.532a.196.196 0 0 1 .032.194.178.178 0 0 1-.158.112l-1.726.163 1.229-.044c.063 0 .12.031.157.081.038.05.044.12.02.182l-.675 1.633a.188.188 0 0 1-.158.113l-.145.012a.022.022 0 0 1-.002.009.04.04 0 0 0-.004.016l.258.033c.096.012.19.023.284.036l.088-.184.133-.273a.186.186 0 0 1 .17-.106c.025 0 .05.006.075.013.057.025.19.087.24.219a.26.26 0 0 1-.007.206 6.936 6.936 0 0 1-.047.1l-.047.1c.876.126 1.688.263 2.426.407.056.013.1.044.126.094.025.05.031.106.012.156l-.038.107c1.204.307 1.91.657 2.143 1.07.094.169.12.357.063.532-.542 1.784-2.49 2.697-3.831 3.123 1.418.062 2.59.194 2.905.57a.4.4 0 0 1 .1.319c-.069.506-.478 1.257-.68 1.608l.958-.244 1.783-5.163a.19.19 0 0 1 .107-.113l.126-.05-.025-.263a.178.178 0 0 1 .05-.144l.157-.169a.162.162 0 0 1 .082-.05l-.094-.563a.19.19 0 0 1 .094-.194l.202-.113a.179.179 0 0 1 .151-.015l.013.003a.2.2 0 0 1 .113.112l.19.545 1.014-.357a.179.179 0 0 1 .157.013c.05.025.082.069.095.125l.24 1.083a.328.328 0 0 1 .157-.044c.176 0 .39.144.422.356l.567 4.068c.075-.713.611-2.397 3.755-4.168a.179.179 0 0 1 .095-.025c.063 0 .12.032.157.082l.006.006c.48-.275 1.008-.57 1.582-.87a.201.201 0 0 1 .088-.019c.038 0 .076.013.107.032a.19.19 0 0 1 .082.175c0 .006-.031.338-.082.788.044.038.07.1.063.163l-.002.02c-.028.231-.184 1.55-.47 2.033a.198.198 0 0 1-.107.081c-.007 0-.498.15-1.078.413-.932.42-1.31.764-1.418.914.12.019.259.031.397.031.992 0 2.07-.54 2.104-.556a.203.203 0 0 1 .089-.02.185.185 0 0 1 .19.163l.005.05.22-.05c.014-.006.032-.006.045-.006.019 0 .032 0 .05.006l-.012-.15a.195.195 0 0 1-.082-.019.197.197 0 0 1-.107-.144l-.038-.269a.191.191 0 0 1 .07-.169l.036-.03c.108-.09.435-.357.732-.62l-.466-4.795a.201.201 0 0 1 .019-.106c.107-.194.239-.4.39-.62a.198.198 0 0 1 .158-.08c.012 0 .025 0 .044.005a.144.144 0 0 1 .076.038l.015-.021c.108-.149.34-.466.646-.805l-1.065.763a.177.177 0 0 1-.113.038c-.013 0-.025 0-.038-.006a.222.222 0 0 1-.126-.088l-.183-.3a.177.177 0 0 1 .013-.213l1.6-1.971a.189.189 0 0 1 .145-.07c.013 0 .032 0 .044.007a.19.19 0 0 1 .139.144l.17.788.05-.438a.275.275 0 0 1 .038-.1l.574-.713a.189.189 0 0 1 .145-.069c.018 0 .037 0 .056.006a.188.188 0 0 1 .133.163c.012.175.031.62.056 1.32.02.238.032.526.044.845a.355.355 0 0 1 .164.063c.139.1.233.294.233.457l-.044 3.135c.035-.031.068-.063.101-.094l.1-.094.032-.225a.194.194 0 0 1 .057-.113l.492-.482h-.032l-.214-.024a.187.187 0 0 1-.133-.082.192.192 0 0 1-.025-.156l.58-2.09a.194.194 0 0 1 .107-.126l1.065-.438c.025-.012.05-.012.075-.012.05 0 .108.025.139.062a.188.188 0 0 1 .025.22l-1.354 2.415 2.86-2.804a.182.182 0 0 1 .132-.056h.02a.2.2 0 0 1 .138.081s.321.476.328.482c1.247-.939 2.356-1.69 3.295-2.24a.179.179 0 0 1 .094-.025.192.192 0 0 1 .189.232l-.636 2.94a.154.154 0 0 1-.07.107l-2.715 2.178 1.147-.695a.186.186 0 0 1 .1-.025c.032 0 .064.006.095.025.063.038.095.1.095.17l-.032.788a.171.171 0 0 1-.1.156l-4.707 2.572 3.572 3.405c.05.044.07.112.057.175l-.07.307 4.203 4.718a.181.181 0 0 1 0 .244l-.264.307a.178.178 0 0 1-.133.063h-.006a.204.204 0 0 1-.132-.05l-1.462-1.396.554.713c.038.05.05.113.032.17a.197.197 0 0 1-.12.124l-.195.07a.227.227 0 0 1-.063.012.19.19 0 0 1-.114-.038l-.182-.137-.31.419a.173.173 0 0 1-.138.075h-.012c-.05 0-.101-.019-.133-.056l-1.587-1.609c.006.05 0 .1-.026.144-.069.138-.365.338-.535.338a.237.237 0 0 1-.19-.087v-.001c-.346-.463-.692-.926-1.039-1.37a91.053 91.053 0 0 0-2.822-3.473l.026.095v.001c.471 1.677 1.424 5.075 1.498 5.486.02.113.02.119-.472.563-.227.2-.567.501-.927.77a.199.199 0 0 1-.132.044c-.075 0-.201 0-.668-.576-.655.181-1.21.332-1.21.332-.018.006-.03.006-.05.006a.189.189 0 0 1-.145-.069c-.412-.497-.54-.654-.583-.706l-.022-.026-.006-.009c-.032-.045-.033-.111-.063-1.211l-.07-2.454a792.72 792.72 0 0 1-.05-1.886v-.005l-.037-1.331h-.007a7.13 7.13 0 0 1-.416.262.179.179 0 0 1-.094.025.224.224 0 0 1-.088-.018.16.16 0 0 1-.082-.088c-.074.572-.215 1.14-.262 1.33l-.015.066a.189.189 0 0 1-.183.137H60.548c-.052-.003-.18-.008-.358-.012v.05c0 .1-.082.181-.182.188-.272.012-.536.018-.794.018-2.458 0-3.327-.5-3.504-.626a.4.4 0 0 1-.132-.08l.567 2.834c.013.05 0 .1-.031.144a.179.179 0 0 1-.126.075l-1.884.275h-.026a.167.167 0 0 1-.12-.043l-.1-.082-.454.063h-.019a.19.19 0 0 1-.189-.163l-.22-1.871-.158.056c-.018.007-.037.013-.063.013a.172.172 0 0 1-.107-.038.193.193 0 0 1-.082-.15V19.013l-1.09.607-.573 1.821a.187.187 0 0 1-.095.113l-.094.05-.29.858a.19.19 0 0 1-.176.125h-.19a.175.175 0 0 1 .026.093v1.972a.185.185 0 0 1-.19.188h-.843Zm.568-2.278.088-.05a.193.193 0 0 1-.032-.076l-.056.126Zm-7.025-3.9-.076.232c.8-.244 1.461-.469 1.978-.663a.227.227 0 0 1 .07-.013c.069 0 .132.038.163.1l.076.144c.945-.362 1.474-.613 1.745-.763-.649 0-1.903.094-3.73.275-.082.245-.158.477-.226.688Zm9.627-1.407.485-.125-.12-1.027-.365 1.152Zm-16.412-.727c0 .002 0 .005-.002.007l-.006.019c.832-.175 1.38-.357 1.613-.482a7.209 7.209 0 0 0-1.122-.088c-.106 0-.22 0-.34.007l-.138.525a.07.07 0 0 0-.005.012Zm8.448-2.922a.18.18 0 0 1 .031.2c-.074.16-.173.424-.309.785l-.006.017c1.727-.545 2.445-.983 2.54-1.215.012-.025.006-.037 0-.05-.032-.037-.265-.25-2.118-.482-.082.201-.163.401-.245.62l.107.125Zm-.828-.498v.004h-.001c-.078.254-.156.504-.23.75.003-.002.005-.007.006-.012.002-.004.004-.01.007-.012.132-.344.27-.701.416-1.058a.47.47 0 0 1-.048-.003.467.467 0 0 0-.047-.003l-.103.334Zm-.508-5.084h.019l-.013-.013-.006.013ZM13.155 24.57c-.44 0-.75-.047-.834-.06l-.022-.003-.057-.019c-.51-.294-1.04-.65-1.582-1.07h-.46a.177.177 0 0 1-.12-.044c-4.202-3.317-6.054-6.64-6.344-7.184l-.202.45a.192.192 0 0 1-.17.113h-.019a.18.18 0 0 1-.163-.144l-.36-1.52a.185.185 0 0 1 .032-.15l.605-.864-.46.506a.203.203 0 0 1-.139.063c-.019 0-.038 0-.056-.006a.19.19 0 0 1-.133-.157l-.082-.588a.188.188 0 0 1 .082-.181l.933-.62a.214.214 0 0 1 .107-.031.189.189 0 0 1 .17.106l.088.182a.191.191 0 0 1-.031.206l-.158.175h.045c.069.007.125.05.15.12l.36.882a.19.19 0 0 1 .006.131l.019-.003a.078.078 0 0 1 .019-.003h.012c.007 0 .02 0 .025.006l-.025-.069a.186.186 0 0 1 .02-.162l-.316-.739a.192.192 0 0 1 .013-.175l.208-.326a.18.18 0 0 1 .157-.087.18.18 0 0 1 .158.087l.283.432c.366-.582.725-.976.97-1.214a.204.204 0 0 1 .133-.05.08.08 0 0 1 .038.006c.063.013.113.05.138.107.278.613.85 1.715 1.305 2.578l-.177-.507a.186.186 0 0 1 .019-.162l.29-.432a.197.197 0 0 1 .157-.082H7.8a.19.19 0 0 1 .157.107l3.214 6.452.907.65.044-.13c-.498-1.096-2.76-5.852-5.67-8.837l-.316-.3h-.001c-.736-.697-2.512-2.377-2.821-2.73a.19.19 0 0 1-.038-.18l.1-.307c-.56-.388-.963-.657-1.095-.72a.189.189 0 0 1-.101-.213l.182-.676a.199.199 0 0 1 .095-.119.202.202 0 0 1 .088-.018c.02 0 .044.006.063.012l.385.138a.2.2 0 0 1 .012-.107c.223-.51.457-.838.511-.915l.012-.017a.208.208 0 0 1 .151-.075h.032c.006 0 .56.1 1.436.338a.183.183 0 0 1-.075-.144.19.19 0 0 1 .126-.182l.34-.118a.225.225 0 0 1 .063-.013c.019 0 .038 0 .05.006l.03.01c.374.108 4.099 1.195 7.096 2.662a.166.166 0 0 1 .101.138l.107.639a.186.186 0 0 1-.082.187.213.213 0 0 1-.107.032c-.012 0-.025 0-.037-.007.138.088.207.132.214.138.07.044.1.131.075.206l-.018.057c.018.016.039.031.06.047l.06.047a.192.192 0 0 1 .075.175 7.611 7.611 0 0 1-.624 2.09c-.019.05-.063.082-.113.1-.02.006-.038.013-.057.013a.145.145 0 0 1-.088-.025l-2.678-1.465c2.432 2.71 4.02 5.99 4.933 8.274.933 2.344 1.362 4.145 1.418 4.38a.859.859 0 0 0 .006.025.18.18 0 0 1-.088.2c-.995.558-2.06.677-2.778.677Zm7-.345a.232.232 0 0 1-.094-.018l-.019-.013a4.008 4.008 0 0 1-.548-.332l-.028-.02c-.077-.054-.15-.105-.211-.161a4.944 4.944 0 0 1-.47-.423l-.003-.003a.198.198 0 0 1-.05-.125v-4.85c0-.044.012-.088.044-.119 0 0 .031-.044.088-.1a361.23 361.23 0 0 0-.75-8.336.188.188 0 0 1 .057-.156c.038-.038.082-.075.126-.113a.087.087 0 0 1 .025-.019l1.5-1.007.063-.632a.178.178 0 0 1 .075-.132l.523-.369a.172.172 0 0 1 .107-.038c.032 0 .063.007.089.02.063.03.1.1.1.168l-.012.576.34-.244a.033.033 0 0 1 .01-.006l.009-.007.151-.106a.176.176 0 0 1 .19-.019c.062.031.1.094.106.163v.1c.013.463.038 2.147.02 4.356 0 .006 0 .275-.007.713-.006.426-.013.851-.025 1.27l.132.382c.006.02.013.038.013.063 0 1.201.037 2.979.075 4.262.007.25.013.394.02.482l.119.03a.196.196 0 0 1 .145.201l-.057.638.013.013s.037.037.094.1l.334-.006 1.386-.226h.032c.044 0 .088.013.12.044.044.038.069.088.069.144v1.659a.186.186 0 0 1-.076.15c-.044.037-1.16.876-2.18 1.364l-1.405.6a.225.225 0 0 1-.088.064.886.886 0 0 1-.151.018Zm-3.641-2.059c-.164 0-.322-.181-.366-.306-.037-.1-.012-.182.032-.232a.184.184 0 0 1-.164-.125v-.006a2.947 2.947 0 0 0-.024-.069c-.014-.036-.027-.075-.039-.113-.265-.782-1.14-3.442-1.418-4.981a.183.183 0 0 1 .063-.175l.22-.182a.137.137 0 0 1 .051-.031 4.84 4.84 0 0 1-.031-.326.189.189 0 0 1 .075-.169 8.306 8.306 0 0 1 2.64-1.232c.013-.007.032-.007.044-.007.045 0 .089.013.12.044.044.038.07.094.07.157-.023.32-.04.76-.061 1.294l-.009.214.02.006c.069.031.113.1.113.181l-.17 4.444a.12.12 0 0 0 .025-.003c.008-.002.015-.003.025-.003.094 0 .151.043.183.068l.012.007c.095.062.252.288.265.431a.286.286 0 0 1-.164.3c-.334.182-1.285.714-1.38.77a.223.223 0 0 1-.132.044Zm-3.195-7.303a.182.182 0 0 1-.132-.056l-.756-.745a.189.189 0 0 1-.05-.188l.888-2.916a.183.183 0 0 1 .183-.131c.082 0 .157.056.182.137l.208.714c.007.025.007.05.007.075l-.34 2.947a.19.19 0 0 1-.127.157c-.018.006-.037.006-.063.006Zm1.846-.707a.175.175 0 0 1-.1-.031.188.188 0 0 1-.089-.163c.013-.507-.359-2.378-.712-3.955a.184.184 0 0 1 .082-.2l.215-.138a.133.133 0 0 1 .069-.025.179.179 0 0 1 .094-.025h.02l-.007-.025a.19.19 0 0 1 .095-.194l.075-.044-.038-.282a.205.205 0 0 1 .05-.156l.183-.194a.156.156 0 0 1 .089-.05.191.191 0 0 1 .038-.2l1.367-1.49a.203.203 0 0 1 .195-.056l.573.169c.07.019.12.075.133.144a.194.194 0 0 1-.063.181l-1.027.832c.189-.112.302-.175.308-.175a.203.203 0 0 1 .183-.006.195.195 0 0 1 .101.15c.032.344.057.689.07 1.02a.08.08 0 0 0 .018-.003c.006-.001.013-.003.02-.003.018 0 .037 0 .056.006l.353.107a.18.18 0 0 1 .132.181c-.038 2.278-.756 3.717-.788 3.78a.218.218 0 0 1-.063.069c-.198.137-1.123.567-1.438.714l-.093.043a.389.389 0 0 1-.1.019Zm42.141 9.107.019-1.357c0-.084-.025-.11-.1-.097l-.227.032c-.082.013-.114.045-.114.129l-.019 1.358c0 .083.026.109.107.096l.227-.032c.076-.013.107-.045.107-.129Zm.044-1.827v-.033c.006-.167-.044-.212-.208-.186l-.056.006c-.158.02-.208.078-.214.245v.032c-.007.167.044.212.201.187l.063-.007c.157-.02.208-.077.214-.244Zm-1.441.514c.415-.058.591.174.591.567l-.012.862c0 .084-.032.116-.114.129l-.226.032c-.082.013-.107-.013-.107-.097l.013-.875c.006-.148-.063-.219-.215-.193a.931.931 0 0 0-.2.058c.012.051.012.116.012.18l-.013.882c0 .084-.031.116-.107.129l-.226.032c-.082.013-.107-.013-.107-.097l.012-.875c.007-.167-.07-.212-.214-.193a.61.61 0 0 0-.176.051c-.006 0-.013.013-.013.02l-.019 1.055c0 .084-.031.116-.106.129l-.227.032c-.082.013-.107-.013-.107-.097l.019-1.229c0-.103.025-.141.12-.193.125-.07.289-.154.566-.193.15-.02.264-.006.352.039l.024-.01c.131-.055.272-.114.48-.145Zm-2.002.387a1.324 1.324 0 0 0-.553-.02c-.46.071-.68.284-.687.702l-.006.386c-.012.399.208.65.636.585.233-.032.39-.077.585-.154.076-.032.107-.064.107-.148l.02-1.197c0-.096-.014-.122-.102-.154Zm-.805.682c0-.187.088-.264.27-.29a.408.408 0 0 1 .177 0c.012 0 .019.007.019.02l-.013.785c-.07.025-.139.038-.214.051-.157.026-.245-.032-.245-.186l.006-.38Zm-.875-.438a1.285 1.285 0 0 0-.548-.02c-.459.065-.686.277-.692.709l-.006.296c-.007.392.207.65.636.585.1-.013.176-.032.258-.064l-.007.129c0 .167-.082.263-.233.283-.125.013-.188-.02-.239-.084-.044-.058-.082-.07-.163-.013l-.151.103c-.082.052-.101.11-.05.18.106.168.295.251.616.206.478-.07.654-.354.66-.753l.026-1.402c0-.103-.013-.123-.107-.155Zm-.806.676c.007-.174.089-.264.271-.29.075-.006.132-.006.182-.006.013.006.013.013.013.02l-.013.7c-.062.02-.138.04-.22.052-.17.026-.239-.045-.239-.187l.006-.29Zm6.999-1.667c.428-.064.623.168.617.566l-.013.856c0 .084-.031.116-.113.13l-.227.031c-.075.013-.107-.013-.107-.096l.013-.869c.006-.16-.076-.219-.24-.193a.982.982 0 0 0-.207.058l-.013.013-.019 1.061c0 .084-.03.116-.106.13l-.227.031c-.082.013-.107-.012-.107-.096l.019-1.23c0-.102.025-.14.12-.192.138-.071.32-.161.61-.2Zm2.19-.219a1.284 1.284 0 0 0-.547-.02c-.46.072-.686.278-.693.709l-.006.296c-.006.392.208.65.636.585.1-.012.176-.032.258-.064l-.007.129c0 .167-.081.263-.232.283-.126.013-.19-.02-.24-.084-.044-.058-.081-.07-.163-.013l-.151.103c-.082.052-.101.11-.05.18.106.168.295.251.616.206.478-.07.655-.354.661-.752l.025-1.403c0-.103-.012-.123-.107-.155Zm-.805.682c.006-.173.088-.263.27-.29a.604.604 0 0 1 .183-.006c.012.007.012.013.012.02l-.012.701c-.063.02-.139.039-.22.052-.17.025-.24-.046-.24-.187l.007-.29Z" fill="#919EAB"/></g><defs><clipPath id="a"><path fill="#fff" transform="translate(.302 .001)" d="M0 0h79.396v32H0z"/></clipPath></defs></svg>