<svg width="94" height="32" viewBox="0 0 94 32" fill="none" xmlns="http://www.w3.org/2000/svg">
<g clip-path="url(#clip0_4132_7763)">
<path fill-rule="evenodd" clip-rule="evenodd" d="M2.4862 17.9252L9.3613 21.1996C10.3671 21.6827 11.3794 22.152 12.3982 22.6074C12.7529 22.7661 13.0229 22.8672 13.2081 22.9106C14.4343 23.1977 15.6622 22.7815 16.4762 21.8482C16.5815 21.7275 16.6693 21.6014 16.7397 21.47C17.2602 20.6439 17.3421 19.5267 16.912 18.6487C16.5773 17.965 16.0602 17.4529 15.3607 17.1124C15.1659 17.0171 14.9172 16.9108 14.6148 16.7936C13.1424 16.191 11.6714 15.5859 10.2018 14.9783C9.59113 14.7258 9.09727 14.28 8.72025 13.6408C8.4862 13.2231 8.35554 12.8103 8.32825 12.4026C8.22102 10.8132 8.90646 9.06474 10.2767 8.12393C11.6738 7.16505 13.236 6.6835 14.9635 6.67927C15.9977 6.67696 17.0763 6.92716 18.0471 7.284C19.4589 7.80341 20.7802 8.53265 22.0277 9.42216C22.6065 9.83492 23.2568 10.073 23.9601 10.0909C24.6019 10.1066 25.1455 10.0021 25.5909 9.77727C26.4007 9.36874 26.9989 8.71386 27.3855 7.81263C27.5623 7.42639 27.5439 7.08953 27.3302 6.80206C27.2449 6.68753 27.1499 6.59914 27.0454 6.53688C23.6895 4.54572 20.3578 2.56628 17.0504 0.598562C16.7272 0.406402 16.4476 0.269392 16.2116 0.187532C15.2754 -0.13645 14.339 -0.0384484 13.4024 0.481536C9.78021 2.4923 6.17548 4.48557 2.58824 6.46136C2.15165 6.70194 1.84343 6.90333 1.66357 7.06551C1.10246 7.57166 0.749269 8.19234 0.603996 8.92754C0.559799 9.15275 0.539045 9.51055 0.541735 10.0009C0.550575 11.4994 0.551728 12.9873 0.545195 14.4646C0.542889 14.9669 0.6284 15.442 0.801728 15.8897C1.13032 16.7394 1.69181 17.4179 2.4862 17.9252ZM12.0857 10.3728C11.5058 12.0745 12.344 13.7832 13.9593 14.4906C15.3075 15.0805 16.7005 15.6772 18.1382 16.2805C18.649 16.495 18.9931 16.6526 19.1707 16.7533C19.9426 17.1914 20.5 17.9102 20.7399 18.7761C20.814 19.0432 20.8527 19.2584 20.8557 19.4218C20.8796 20.5786 20.5784 21.6458 19.9524 22.6235C19.5419 23.2212 18.9977 23.7167 18.3198 24.1103C17.6657 24.4904 17.011 24.7746 16.3557 24.9629C14.5496 25.4812 12.7833 25.3151 11.0221 24.6781C9.97295 24.2815 8.96103 23.7811 7.9864 23.177C7.59823 22.9368 7.21007 22.6914 6.82191 22.4408C6.10938 21.9808 5.25619 21.7905 4.38455 21.8257C3.11687 21.8764 1.98697 22.4961 1.19431 23.4958C1.07594 23.6449 0.992927 23.7809 0.945271 23.9039C0.78328 24.3247 0.961989 24.7404 1.34189 24.9635C5.01906 27.1203 8.71257 29.2919 12.4224 31.4783C13.316 32.0048 14.2201 32.1335 15.1347 31.8645C15.3769 31.7934 15.7099 31.6412 16.1338 31.4079C17.0066 30.9283 17.878 30.4471 18.7481 29.9644L21.3152 28.5469L22.5408 27.854C22.6764 27.7867 22.8021 27.721 22.9178 27.6568C24.158 26.9677 25.3794 26.2928 26.5819 25.6322C27.0638 25.3678 27.3907 25.1668 27.5625 25.0292C28.3976 24.3609 28.8129 23.4425 28.8083 22.2742C28.8025 20.7681 28.8031 19.236 28.81 17.6779C28.8123 17.2137 28.7952 16.8441 28.7587 16.5694C28.6453 15.7116 28.2929 14.9531 27.7014 14.294C27.3575 13.9108 26.9937 13.6235 26.6102 13.4322C23.3352 11.7961 19.8705 10.0776 16.4428 8.48019C16.2387 8.38488 16.0367 8.31916 15.8369 8.28304C14.765 8.08819 13.8244 8.33338 13.015 9.01862C12.5857 9.38181 12.276 9.83319 12.0857 10.3728ZM38.337 12.2643C38.8009 12.2912 39.4911 12.3311 39.5922 12.8496C39.6619 13.2059 39.3878 13.4399 39.0788 13.5267C38.5727 13.6687 38.1349 13.6209 37.7654 13.3834C37.6125 13.2848 37.5266 13.1415 37.5078 12.9535C37.5051 12.9263 37.49 12.9127 37.4624 12.9127H35.8565C35.8289 12.9127 35.8151 12.9268 35.8151 12.9548C35.8111 14.637 37.4946 15.2457 38.8994 15.1405C39.9189 15.0643 40.995 14.5588 41.2882 13.5353C41.3754 13.2311 41.3873 12.8884 41.3237 12.5071C41.0917 11.1201 39.5975 10.9473 38.4807 10.8493C38.3233 10.8353 38.161 10.7989 37.9935 10.7402C37.5249 10.5752 37.5019 9.95136 37.9436 9.74824C38.4156 9.53131 39.3963 9.57469 39.4581 10.2452C39.4593 10.2566 39.4646 10.2671 39.4729 10.2748C39.4813 10.2824 39.4922 10.2867 39.5035 10.2866L41.0798 10.2879C41.0859 10.2879 41.092 10.2867 41.0976 10.2844C41.1032 10.282 41.1083 10.2786 41.1126 10.2742C41.1152 10.2716 41.1174 10.2687 41.1193 10.2656C41.1205 10.2635 41.1216 10.2613 41.1225 10.2591C41.1248 10.2534 41.1259 10.2473 41.1258 10.2413C41.0989 8.37437 39.0348 7.76237 37.5111 8.20871C36.4731 8.51307 35.8269 9.31832 35.888 10.4398C35.9558 11.671 37.0963 12.168 38.1684 12.2534C38.2195 12.2575 38.2763 12.2608 38.337 12.2643ZM69.567 11.5803C70.177 12.1535 71.0526 12.2488 71.898 12.3014C72.0583 12.3115 72.2223 12.3518 72.3897 12.4223C72.8728 12.6261 72.9109 13.2467 72.4166 13.461C71.9924 13.6455 71.5636 13.6566 71.1302 13.4945C70.865 13.395 70.7099 13.2166 70.6648 12.9594C70.6627 12.9473 70.6565 12.9363 70.6471 12.9283C70.6377 12.9204 70.6258 12.916 70.6135 12.916L69.0207 12.9121C68.9879 12.9121 68.9716 12.9285 68.9721 12.9614C68.9859 13.8685 69.4927 14.5574 70.319 14.8809C71.298 15.2639 72.2691 15.2536 73.2324 14.85C73.9515 14.5489 74.4853 13.9001 74.5228 13.0889C74.5609 12.262 74.2565 11.5822 73.4914 11.2385C72.9643 11.0014 72.4005 10.9346 71.8378 10.868L71.8377 10.868C71.7028 10.852 71.5681 10.836 71.4339 10.8177C71.1354 10.777 70.8022 10.6343 70.7949 10.2781C70.7888 9.95902 70.9571 9.75984 71.2998 9.68052C71.7849 9.56811 72.5514 9.6299 72.6224 10.2472C72.6254 10.2739 72.6403 10.2873 72.6671 10.2873L74.2473 10.2892C74.2589 10.2892 74.2699 10.2846 74.278 10.2763C74.2862 10.2681 74.2907 10.2569 74.2907 10.2452C74.2769 8.63927 72.7302 7.96483 71.351 8.08513C69.9548 8.20608 68.8971 9.08101 69.0694 10.5969C69.1128 10.9816 69.2786 11.3094 69.567 11.5803ZM82.0988 10.7244C82.5379 12.8325 81.4099 14.8591 79.1618 15.0978C77.3764 15.2877 75.7225 14.3648 75.332 12.5314C75.2063 11.9407 75.2023 11.3502 75.3202 10.7599C76.0249 7.23054 81.36 7.17926 82.0988 10.7244ZM79.499 9.9671C78.5583 9.48198 77.3718 9.9533 77.0937 11.009C76.8893 11.7867 77.0674 12.6636 77.732 13.1362C78.0905 13.3913 78.495 13.487 78.9455 13.4235C79.7817 13.3045 80.3207 12.6616 80.3983 11.8366C80.4699 11.0774 80.1912 10.324 79.499 9.9671ZM51.9939 14.1572L54.3854 14.1546C54.4183 14.1546 54.4415 14.1693 54.4551 14.1986L54.8153 14.9612C54.8216 14.9745 54.8315 14.9858 54.844 14.9938C54.8564 15.0017 54.8709 15.0059 54.8856 15.0059H56.6237C56.6443 15.0059 56.6574 14.996 56.6631 14.9763C56.6916 14.8777 56.6839 14.7813 56.6401 14.687C55.648 12.5655 54.638 10.3998 53.6104 8.18975C53.6057 8.17939 53.5981 8.1706 53.5884 8.16443C53.5787 8.15825 53.5674 8.15494 53.5558 8.15491L52.8123 8.14965C52.786 8.14965 52.7674 8.16126 52.7565 8.18449C51.7437 10.3481 50.727 12.509 49.7063 14.6673C49.6612 14.7624 49.6503 14.863 49.6735 14.969C49.6792 14.9945 49.695 15.0072 49.7208 15.0072L51.4805 15.0052C51.4927 15.0052 51.5046 15.0018 51.5148 14.9952C51.5251 14.9887 51.5333 14.9794 51.5384 14.9684L51.8736 14.2348C51.8842 14.2117 51.9012 14.192 51.9225 14.1783C51.9438 14.1645 51.9686 14.1572 51.9939 14.1572ZM52.4973 12.6486C52.4969 12.6439 52.4976 12.6391 52.4994 12.6348L53.1483 11.1156C53.1505 11.1104 53.1542 11.106 53.1589 11.1028C53.1637 11.0997 53.1692 11.098 53.1749 11.098C53.1806 11.098 53.1861 11.0997 53.1908 11.1028C53.1956 11.106 53.1993 11.1104 53.2015 11.1156L53.8556 12.6328C53.8574 12.6372 53.8581 12.6419 53.8577 12.6466C53.8573 12.6513 53.8557 12.6559 53.8531 12.6598C53.852 12.6615 53.8507 12.6631 53.8493 12.6645C53.8474 12.6664 53.8452 12.668 53.8428 12.6693C53.8406 12.6705 53.8383 12.6715 53.8359 12.6721C53.8337 12.6726 53.8315 12.6729 53.8293 12.6729L52.5257 12.6749C52.521 12.6748 52.5164 12.6736 52.5122 12.6713C52.5081 12.669 52.5045 12.6658 52.5019 12.6618C52.4993 12.6579 52.4978 12.6533 52.4973 12.6486ZM44.2205 11.9139C44.2198 11.914 44.219 11.9142 44.2183 11.9144C44.2162 11.9151 44.2143 11.9162 44.2127 11.9177C44.2111 11.9192 44.2098 11.921 44.2089 11.9231C44.208 11.9251 44.2076 11.9274 44.2076 11.9296L44.2082 14.9646C44.2082 14.9922 44.1944 15.006 44.1668 15.006L42.4676 15.0067C42.4571 15.0067 42.4471 15.0026 42.4397 14.9953C42.4323 14.9881 42.4281 14.9782 42.4281 14.9679V8.24384C42.4281 8.2136 42.4432 8.1987 42.4735 8.19914L43.0329 8.20045C43.043 8.20046 43.0531 8.20262 43.0625 8.2068C43.0719 8.21099 43.0804 8.21711 43.0874 8.22478L45.7116 11.083C45.7168 11.0888 45.7232 11.0935 45.7303 11.0967C45.7375 11.0999 45.7453 11.1015 45.7531 11.1015C45.761 11.1015 45.7688 11.0999 45.776 11.0967C45.7833 11.0935 45.7897 11.0888 45.7951 11.083L48.4015 8.23332C48.4108 8.22317 48.4221 8.21506 48.4347 8.20952C48.4473 8.20397 48.4608 8.20111 48.4745 8.20111L49.0207 8.19848C49.0265 8.19848 49.0322 8.19962 49.0376 8.20184C49.0429 8.20405 49.0478 8.20729 49.0519 8.21138C49.056 8.21547 49.0592 8.22033 49.0614 8.22567C49.0636 8.23102 49.0648 8.23674 49.0648 8.24252V14.9686C49.0648 14.9936 49.0523 15.006 49.0273 15.006L47.33 15.0041C47.3046 15.0041 47.2919 14.9914 47.2919 14.9659L47.2912 11.9684C47.2912 11.9101 47.2711 11.902 47.2308 11.9441L45.9187 13.3206C45.8969 13.3434 45.8706 13.3616 45.8416 13.374C45.8125 13.3865 45.7812 13.3929 45.7496 13.3929C45.718 13.3929 45.6866 13.3865 45.6575 13.374C45.6284 13.3616 45.6021 13.3434 45.5801 13.3206C45.1629 12.885 44.7186 12.4196 44.247 11.9244C44.2409 11.9182 44.2334 11.9147 44.2247 11.9138C44.2233 11.9137 44.2219 11.9137 44.2205 11.9139ZM59.069 14.94V12.9272C59.069 12.8921 59.0865 12.8746 59.1216 12.8746H59.9623C59.9709 12.8746 59.9792 12.8769 59.9865 12.8813C59.9938 12.8857 59.9998 12.892 60.0037 12.8996L61.1272 14.9518C61.1342 14.9647 61.1445 14.9755 61.1571 14.983C61.1697 14.9906 61.1841 14.9945 61.1988 14.9945L62.9855 14.9932C63.0065 14.9932 63.0199 14.9832 63.0256 14.963C63.0576 14.8508 63.0447 14.7478 62.9868 14.654C62.5959 14.0225 62.1785 13.3463 61.7346 12.6254C61.721 12.6035 61.7247 12.5849 61.7457 12.5696C62.9684 11.7045 63.0282 9.76464 61.9291 8.7911C61.4394 8.35659 60.836 8.21394 60.1871 8.21C59.2489 8.2043 58.2861 8.20518 57.2987 8.21263C57.2951 8.21263 57.2916 8.21408 57.289 8.21667C57.2864 8.21926 57.2849 8.22277 57.2849 8.22643V14.9623C57.2849 14.9843 57.2959 14.9952 57.3178 14.9952L59.0151 14.9939C59.051 14.9939 59.069 14.9759 59.069 14.94ZM59.0401 11.3811L59.0453 9.79553C59.0453 9.78316 59.0502 9.77129 59.059 9.76253C59.0677 9.75378 59.0796 9.74886 59.092 9.74886L60.2286 9.75281C60.3289 9.75315 60.4281 9.7732 60.5207 9.81181C60.6132 9.85041 60.6972 9.90682 60.7679 9.97781C60.8386 10.0488 60.8946 10.133 60.9326 10.2256C60.9707 10.3181 60.9901 10.4173 60.9898 10.5173V10.6724C60.9894 10.7725 60.9693 10.8715 60.9306 10.9638C60.8919 11.0561 60.8354 11.1399 60.7642 11.2104C60.693 11.2809 60.6086 11.3367 60.5158 11.3747C60.423 11.4127 60.3236 11.432 60.2233 11.4317L59.0867 11.4277C59.0744 11.4277 59.0625 11.4228 59.0537 11.4141C59.045 11.4053 59.0401 11.3935 59.0401 11.3811ZM90.06 9.77985H88.4501C88.4433 9.77985 88.4368 9.77715 88.432 9.77234C88.4272 9.76753 88.4245 9.76101 88.4245 9.75421L88.4251 8.24756C88.4251 8.24076 88.4278 8.23424 88.4326 8.22943C88.4374 8.22462 88.444 8.22192 88.4508 8.22192L93.4322 8.22389C93.439 8.22389 93.4455 8.22659 93.4503 8.2314C93.4551 8.23621 93.4578 8.24273 93.4578 8.24953L93.4585 9.75487C93.4585 9.76167 93.4558 9.76819 93.451 9.773C93.4462 9.7778 93.4396 9.78051 93.4328 9.78051L91.8368 9.78117C91.83 9.78117 91.8235 9.78386 91.8187 9.78867C91.8139 9.79348 91.8111 9.8 91.8111 9.8068L91.8105 14.9802C91.8105 14.9819 91.8103 14.9836 91.81 14.9852C91.8097 14.9868 91.8092 14.9884 91.8085 14.99C91.808 14.9914 91.8073 14.9927 91.8065 14.9939C91.806 14.9947 91.8054 14.9955 91.8048 14.9962C91.8043 14.997 91.8036 14.9976 91.803 14.9983C91.8006 15.0007 91.7978 15.0026 91.7947 15.0039C91.7916 15.0052 91.7882 15.0058 91.7849 15.0058L90.1112 15.0065C90.1044 15.0065 90.0979 15.0038 90.0931 14.999C90.0883 14.9942 90.0856 14.9876 90.0856 14.9808V9.80549C90.0856 9.79869 90.0829 9.79216 90.0781 9.78736C90.0733 9.78255 90.0668 9.77985 90.06 9.77985ZM63.4056 9.78116L65.0089 9.77787C65.0176 9.77787 65.0259 9.78134 65.0321 9.7875C65.0383 9.79367 65.0417 9.80202 65.0417 9.81074V14.9723C65.0417 14.981 65.0452 14.9894 65.0513 14.9955C65.0575 15.0017 65.0659 15.0052 65.0746 15.0052L66.7259 15.0058C66.7346 15.0058 66.7429 15.0024 66.7491 14.9962C66.7553 14.99 66.7587 14.9817 66.7587 14.9729V9.81272C66.7587 9.804 66.7622 9.79564 66.7684 9.78947C66.7745 9.78331 66.7829 9.77985 66.7916 9.77985L68.3791 9.78051C68.3878 9.78051 68.3962 9.77704 68.4024 9.77088C68.4085 9.76471 68.412 9.75636 68.412 9.74764L68.4107 8.25544C68.4107 8.24673 68.4072 8.23837 68.401 8.2322C68.3949 8.22604 68.3865 8.22258 68.3778 8.22258L63.4062 8.22192C63.3975 8.22192 63.3891 8.22538 63.383 8.23155C63.3768 8.23771 63.3734 8.24607 63.3734 8.25479L63.3727 9.7483C63.3727 9.75701 63.3762 9.76537 63.3823 9.77153C63.3885 9.7777 63.3969 9.78116 63.4056 9.78116ZM85.0555 12.8536L85.0523 14.9703C85.0523 14.9797 85.0485 14.9888 85.0419 14.9954C85.0352 15.0021 85.0262 15.0058 85.0168 15.0058L83.3044 15.0052C83.2949 15.0052 83.2859 15.0014 83.2793 14.9948C83.2726 14.9881 83.2689 14.9791 83.2689 14.9697L83.2682 8.25742C83.2682 8.248 83.2719 8.23898 83.2786 8.23232C83.2853 8.22566 83.2943 8.22192 83.3037 8.22192L87.4766 8.22324C87.486 8.22324 87.495 8.22697 87.5017 8.23363C87.5083 8.24029 87.5121 8.24932 87.5121 8.25873V9.73449C87.5121 9.74391 87.5083 9.75293 87.5017 9.75959C87.495 9.76625 87.486 9.76999 87.4766 9.76999L85.0904 9.77064C85.081 9.77064 85.072 9.77439 85.0653 9.78104C85.0586 9.7877 85.0549 9.79673 85.0549 9.80614L85.0562 11.228C85.0562 11.2374 85.06 11.2464 85.0666 11.2531C85.0733 11.2598 85.0823 11.2635 85.0917 11.2635H87.1867C87.1961 11.2635 87.2051 11.2672 87.2118 11.2739C87.2185 11.2806 87.2222 11.2896 87.2222 11.299V12.7833C87.2222 12.7927 87.2185 12.8017 87.2118 12.8084C87.2077 12.8125 87.2026 12.8155 87.1971 12.8172C87.1938 12.8183 87.1903 12.8188 87.1867 12.8188L85.091 12.8181C85.0816 12.8181 85.0726 12.8219 85.0659 12.8285C85.0593 12.8352 85.0555 12.8442 85.0555 12.8536ZM81.4645 22.5974L83.779 22.598C83.8145 22.598 83.8305 22.6158 83.827 22.6513C83.7152 23.6945 83.1368 24.4538 82.1389 24.7036C80.4942 25.1164 79.0428 24.269 78.7989 22.5757C78.5563 20.8929 79.5161 19.3402 81.3435 19.3382C82.3059 19.3369 83.1552 19.6505 83.5161 20.5971C83.5209 20.6097 83.5294 20.6205 83.5404 20.6281C83.5514 20.6358 83.5645 20.6398 83.5779 20.6398L84.2996 20.6411C84.3041 20.6411 84.3084 20.6402 84.3124 20.6382C84.3145 20.6372 84.3164 20.636 84.3182 20.6346C84.3198 20.6332 84.3214 20.6317 84.3227 20.63C84.3241 20.6281 84.3254 20.6261 84.3263 20.6239C84.3272 20.622 84.3278 20.6201 84.3282 20.6181L84.3286 20.616L84.3288 20.6133C84.3289 20.6105 84.3286 20.6077 84.3279 20.6049C84.0571 19.6045 83.2505 18.934 82.2493 18.7006C80.0045 18.1773 78.0383 19.5755 77.945 21.8953C77.8733 23.6853 78.9244 25.286 80.7874 25.5285C81.9798 25.6837 83.1848 25.3392 83.923 24.3808C84.4442 23.7037 84.6237 22.8275 84.5902 21.9591C84.5895 21.9437 84.5829 21.9291 84.5718 21.9185C84.5606 21.9078 84.5458 21.9019 84.5304 21.9019H81.4493C81.4431 21.9019 81.437 21.9044 81.4326 21.9088C81.4309 21.9106 81.4294 21.9126 81.4283 21.9147C81.4266 21.9181 81.4257 21.9218 81.4257 21.9256V22.5586C81.4257 22.5845 81.4386 22.5974 81.4645 22.5974ZM50.526 22.5956L48.2029 22.5969C48.1788 22.5969 48.1668 22.5847 48.1668 22.5601L48.1661 21.9337C48.1661 21.93 48.1668 21.9265 48.1682 21.9231C48.1688 21.9218 48.1694 21.9205 48.1701 21.9193C48.1713 21.9175 48.1726 21.9157 48.1742 21.9142C48.1768 21.9116 48.1798 21.9096 48.1832 21.9082C48.1865 21.9068 48.1901 21.9061 48.1937 21.9061L51.2866 21.9034C51.3098 21.9034 51.3223 21.9153 51.3241 21.9389C51.4108 23.1149 50.9987 24.2962 50.0514 24.9779C48.8932 25.8108 47.0881 25.7509 45.9686 24.8872C44.9747 24.12 44.5934 22.9098 44.6992 21.6655C44.8386 20.0418 45.9995 18.8112 47.6133 18.6272C49.1186 18.455 50.5911 19.0637 51.067 20.5854C51.069 20.5916 51.0694 20.5982 51.0683 20.6046C51.0672 20.611 51.0647 20.6171 51.0607 20.6223C51.0569 20.6275 51.0518 20.6318 51.0459 20.6348C51.0427 20.6364 51.0392 20.6376 51.0357 20.6384C51.0328 20.639 51.0299 20.6393 51.0269 20.6393L50.3255 20.638C50.3101 20.6381 50.295 20.6333 50.2823 20.6245C50.2696 20.6157 50.2599 20.6032 50.2545 20.5887C49.9048 19.6776 49.0891 19.3601 48.1747 19.3384C47.0381 19.3115 46.1034 19.8801 45.6991 20.9542C45.3204 21.9593 45.4651 23.3069 46.2703 24.1049C46.773 24.6028 47.4262 24.8352 48.2299 24.8024C49.5275 24.7498 50.4268 23.9892 50.5688 22.6436C50.5718 22.6116 50.5576 22.5956 50.526 22.5956ZM51.6836 25.4762L52.4284 25.4768C52.4418 25.4767 52.4549 25.4729 52.4662 25.4657C52.4775 25.4585 52.4865 25.4482 52.4922 25.4361L53.2508 23.8433C53.2565 23.8312 53.2655 23.8209 53.2768 23.8137C53.288 23.8065 53.3011 23.8026 53.3145 23.8026L56.6059 23.8012C56.6193 23.8013 56.6324 23.8052 56.6437 23.8124C56.6549 23.8196 56.664 23.8299 56.6697 23.842L57.4256 25.4361C57.4313 25.4482 57.4403 25.4585 57.4516 25.4657C57.4629 25.4729 57.476 25.4767 57.4894 25.4768L58.2263 25.4788C58.2383 25.4788 58.25 25.4758 58.2605 25.4701C58.271 25.4643 58.2799 25.456 58.2864 25.4459C58.2928 25.4358 58.2966 25.4243 58.2973 25.4123C58.2981 25.4004 58.2958 25.3884 58.2907 25.3776L55.1762 18.7002C55.1704 18.688 55.1613 18.6776 55.1499 18.6704C55.1385 18.6632 55.1252 18.6594 55.1117 18.6594L54.8271 18.6601C54.8137 18.6602 54.8006 18.664 54.7893 18.6712C54.7781 18.6785 54.769 18.6887 54.7633 18.7008L51.6192 25.375C51.6141 25.3858 51.6118 25.3977 51.6126 25.4097C51.6133 25.4216 51.6171 25.4332 51.6235 25.4433C51.63 25.4534 51.6389 25.4617 51.6494 25.4675C51.6599 25.4732 51.6717 25.4762 51.6836 25.4762ZM53.5558 23.0759C53.5555 23.0721 53.5562 23.0684 53.5577 23.065L54.9389 19.9912C54.9406 19.9873 54.9435 19.984 54.9471 19.9816C54.9492 19.9803 54.9514 19.9793 54.9538 19.9787C54.9556 19.9783 54.9574 19.978 54.9592 19.978C54.9635 19.978 54.9677 19.9793 54.9714 19.9816C54.975 19.984 54.9778 19.9873 54.9796 19.9912L56.3607 23.065C56.3622 23.0684 56.3629 23.0721 56.3626 23.0759C56.3624 23.0783 56.3619 23.0807 56.3609 23.0829C56.3604 23.0841 56.3598 23.0853 56.3591 23.0863C56.3581 23.0879 56.3569 23.0894 56.3555 23.0907C56.3541 23.0919 56.3526 23.093 56.351 23.0938C56.3477 23.0956 56.3441 23.0966 56.3403 23.0966H53.5781C53.5744 23.0966 53.5707 23.0956 53.5674 23.0938C53.5641 23.0921 53.5614 23.0895 53.5593 23.0863C53.5573 23.0832 53.5561 23.0796 53.5558 23.0759ZM71.8862 20.423L71.8903 20.5269C71.9218 21.3214 71.9531 22.1107 71.9519 22.9164C71.951 23.7666 71.9512 24.6117 71.9525 25.4518C71.9525 25.4584 71.9499 25.4648 71.9452 25.4695C71.9405 25.4742 71.9342 25.4768 71.9276 25.4768L71.169 25.4755C71.1484 25.4755 71.1381 25.4652 71.1381 25.4446V18.7113C71.1381 18.6802 71.1536 18.6648 71.1848 18.6653L71.3852 18.6705C71.4137 18.671 71.4372 18.6819 71.4556 18.7034L75.7797 23.7289C75.8147 23.7696 75.8309 23.7633 75.8283 23.7098L75.8172 23.4745L75.8171 23.4741C75.782 22.7348 75.7482 22.0238 75.7488 21.273C75.7501 20.4057 75.7505 19.5485 75.7501 18.7014C75.7501 18.695 75.7526 18.6888 75.7572 18.6842C75.7618 18.6797 75.768 18.6771 75.7744 18.6771L76.529 18.6778C76.5505 18.6778 76.5613 18.6885 76.5613 18.71L76.5619 25.4334C76.5619 25.4667 76.5453 25.4829 76.512 25.482C76.4932 25.4818 76.4735 25.4828 76.4536 25.4839C76.3813 25.4879 76.3053 25.492 76.2543 25.4327C74.7932 23.7372 73.3494 22.0625 71.923 20.4086C71.8967 20.3779 71.8844 20.3827 71.8862 20.423ZM60.0945 25.4451L60.0939 20.6668C60.0939 20.6208 60.1072 20.6164 60.134 20.6537L62.2782 23.6046C62.2893 23.6198 62.3039 23.6321 62.3207 23.6407C62.3375 23.6492 62.356 23.6537 62.3749 23.6537C62.3937 23.6537 62.4123 23.6492 62.4291 23.6407C62.4459 23.6321 62.4604 23.6198 62.4715 23.6046L64.6171 20.6504C64.6478 20.6083 64.6631 20.6134 64.6631 20.6655L64.6625 25.4451C64.6625 25.4666 64.6732 25.4774 64.6947 25.4774L65.4355 25.476C65.4662 25.476 65.4815 25.4607 65.4815 25.43L65.4802 18.7244C65.4802 18.7122 65.4754 18.7004 65.4669 18.6918C65.4584 18.6832 65.4469 18.6783 65.4349 18.6783L65.2068 18.6764C65.1941 18.6764 65.1816 18.6793 65.1703 18.6849C65.159 18.6905 65.1492 18.6986 65.1417 18.7086L62.4097 22.4193C62.4077 22.422 62.4054 22.4244 62.4027 22.4264C62.4008 22.4279 62.3987 22.4292 62.3965 22.4303C62.3913 22.4329 62.3856 22.4342 62.3798 22.4342C62.3781 22.4342 62.3764 22.4341 62.3748 22.4339C62.3731 22.4337 62.3714 22.4333 62.3698 22.4329L62.3665 22.4318L62.3631 22.4303C62.3579 22.4277 62.3534 22.424 62.3499 22.4193L59.6219 18.7158C59.6039 18.6913 59.5796 18.6788 59.5489 18.6783L59.3136 18.6751C59.2855 18.6746 59.2715 18.6886 59.2715 18.7171V25.4445C59.2715 25.466 59.2822 25.4767 59.3037 25.4767H60.063C60.0713 25.4767 60.0794 25.4734 60.0853 25.4675C60.0912 25.4615 60.0945 25.4535 60.0945 25.4451ZM68.7203 19.3625V24.7902C68.7203 24.7933 68.7209 24.7962 68.7221 24.799C68.7232 24.8018 68.7249 24.8044 68.7271 24.8065C68.7286 24.808 68.7303 24.8093 68.7322 24.8103C68.7329 24.8108 68.7337 24.8112 68.7345 24.8115C68.7373 24.8126 68.7403 24.8132 68.7433 24.8132L69.8661 24.8119C69.8722 24.8119 69.878 24.8144 69.8824 24.8187C69.8867 24.823 69.8891 24.8288 69.8891 24.8349L69.8884 25.4535C69.8884 25.4596 69.886 25.4655 69.8817 25.4698C69.8791 25.4724 69.876 25.4743 69.8726 25.4754C69.8703 25.4761 69.8679 25.4765 69.8654 25.4765L66.7515 25.4759C66.7485 25.4759 66.7455 25.4753 66.7427 25.4741C66.7413 25.4735 66.7399 25.4728 66.7387 25.4719C66.7374 25.4711 66.7363 25.4702 66.7353 25.4691C66.7331 25.467 66.7314 25.4644 66.7303 25.4617L66.7296 25.4598C66.7289 25.4575 66.7285 25.4552 66.7285 25.4528L66.7305 24.8369C66.7305 24.8308 66.7329 24.825 66.7372 24.8206C66.7416 24.8163 66.7474 24.8139 66.7535 24.8139L67.8704 24.8126C67.8765 24.8126 67.8823 24.8102 67.8866 24.8059C67.8909 24.8015 67.8934 24.7957 67.8934 24.7896L67.894 19.3631C67.894 19.357 67.8916 19.3512 67.8873 19.3469C67.883 19.3425 67.8771 19.3401 67.871 19.3401H66.8324C66.8263 19.3401 66.8204 19.3377 66.8161 19.3334C66.8118 19.3291 66.8094 19.3232 66.8094 19.3171L66.8081 18.7156C66.8081 18.7095 66.8105 18.7037 66.8148 18.6994C66.8191 18.695 66.825 18.6926 66.8311 18.6926H69.7925C69.7986 18.6926 69.8044 18.695 69.8087 18.6994C69.813 18.7037 69.8155 18.7095 69.8155 18.7156L69.8161 19.3184C69.8161 19.3245 69.8137 19.3304 69.8094 19.3347C69.8051 19.339 69.7992 19.3414 69.7931 19.3414L68.7433 19.3395C68.7403 19.3395 68.7373 19.3401 68.7345 19.3412C68.7317 19.3424 68.7292 19.3441 68.7271 19.3462C68.7258 19.3474 68.7247 19.3488 68.7238 19.3503C68.7231 19.3514 68.7225 19.3525 68.7221 19.3537C68.7214 19.3552 68.721 19.3568 68.7207 19.3584C68.7204 19.3597 68.7203 19.3611 68.7203 19.3625Z" fill="#00AB55"/>
</g>
<defs>
<clipPath id="clip0_4132_7763">
<rect width="92.917" height="32" fill="white" transform="translate(0.541504 0.000976562)"/>
</clipPath>
</defs>
</svg>
