<svg width="134" height="26" viewBox="0 0 134 26" fill="none" xmlns="http://www.w3.org/2000/svg">
<path fill-rule="evenodd" clip-rule="evenodd" d="M8.31978 12.1116C8.2123 10.9561 6.9682 10.6026 5.55952 10.2022C3.71558 9.67816 1.58962 9.07396 1.36183 6.48614C1.1944 4.60311 1.65827 3.0894 2.75342 1.94501C5.10819 -0.519085 9.0466 0.145688 11.9361 1.52251C12.0484 1.57766 12.076 1.66038 12.0189 1.77069L10.5209 4.66614C10.5062 4.69468 10.4854 4.71958 10.4599 4.73907C10.4343 4.75857 10.4047 4.77218 10.3731 4.77895C10.3415 4.78571 10.3088 4.78547 10.2771 4.77823C10.2455 4.77099 10.2157 4.75693 10.19 4.73705C9.08501 3.87728 7.19115 3.33364 6.07137 4.39728C5.48637 4.95273 5.75819 5.77705 6.3816 6.17887C6.63963 6.3463 6.91539 6.47236 7.20887 6.55705L7.44706 6.62604C10.08 7.38756 12.7692 8.16533 12.7634 11.5266C12.7595 14.0518 11.7274 15.7595 9.66705 16.6498C6.76865 17.9025 3.42115 17.2939 0.827056 15.5773C0.784078 15.549 0.753303 15.5055 0.740739 15.4552C0.728174 15.405 0.734721 15.3516 0.759102 15.3055L2.44615 12.1914C2.45523 12.1741 2.46824 12.1593 2.48413 12.148C2.50003 12.1367 2.51836 12.1293 2.53764 12.1264C2.55692 12.1236 2.5766 12.1253 2.5951 12.1314C2.61359 12.1376 2.63038 12.148 2.6441 12.1618C3.53637 13.0383 4.5813 13.5583 5.77887 13.7218C6.86319 13.8725 8.44683 13.4382 8.31978 12.1116ZM21.0627 13.5386C24.0646 14.094 24.7441 11.9697 24.7471 9.57655C24.749 6.60231 24.749 3.71079 24.7471 0.902003C24.7471 0.858905 24.7642 0.817573 24.7946 0.787098C24.8251 0.756623 24.8665 0.739502 24.9096 0.739502H28.8184C28.9346 0.739502 28.9927 0.798592 28.9927 0.916774C28.9986 4.07814 28.9967 7.2917 28.9868 10.5575C28.9829 11.3473 28.8992 12.1125 28.7357 12.8531C27.8168 17.0397 22.9152 17.8522 19.4525 17.0427C15.6264 16.1475 14.6661 13.4972 14.6898 10.0138C14.7114 6.81306 14.7134 3.77776 14.6957 0.907911C14.6957 0.795638 14.7518 0.739502 14.8641 0.739502H18.77C18.8921 0.739502 18.9522 0.799578 18.9502 0.919729C18.9443 3.77579 18.9463 6.7067 18.9561 9.71246C18.9591 11.2961 19.2132 13.1959 21.0627 13.5386ZM35.9418 16.6912L35.9389 11.6862C35.9389 11.5758 35.995 11.5207 36.1073 11.5207C36.3883 11.5207 36.6717 11.5246 36.9561 11.5285C38.5883 11.551 40.2524 11.5739 41.6766 10.8618C43.73 9.83661 44.3091 7.55865 44.1171 5.39887C43.86 2.47387 41.7711 0.795692 38.8402 0.757283C36.7642 0.729707 34.4084 0.725768 31.773 0.745465C31.7515 0.74623 31.7312 0.755283 31.7164 0.770716C31.7015 0.786148 31.6932 0.806756 31.6932 0.828194V16.6734C31.6932 16.8093 31.7611 16.8773 31.8971 16.8773L35.7557 16.8743C35.8798 16.8743 35.9418 16.8133 35.9418 16.6912ZM35.9389 8.00478V4.23478C35.9389 4.20344 35.9513 4.17338 35.9735 4.15122C35.9956 4.12905 36.0257 4.1166 36.057 4.1166H37.8268C38.3275 4.1166 38.8077 4.30057 39.1618 4.62803C39.5159 4.9555 39.7148 5.39963 39.7148 5.86274V6.37683C39.7148 6.83993 39.5159 7.28407 39.1618 7.61154C38.8077 7.939 38.3275 8.12297 37.8268 8.12297H36.057C36.0257 8.12297 35.9956 8.11052 35.9735 8.08835C35.9513 8.06619 35.9389 8.03613 35.9389 8.00478ZM50.3098 4.38541L50.3068 6.882C50.3068 6.90864 50.3174 6.9342 50.3363 6.95303C50.3551 6.97187 50.3806 6.98246 50.4073 6.98246H55.0046C55.0312 6.98246 55.0567 6.99304 55.0756 7.01188C55.0944 7.03072 55.105 7.05627 55.105 7.08291L55.1109 10.4245C55.1109 10.4377 55.1083 10.4508 55.1033 10.4629C55.0982 10.4751 55.0908 10.4862 55.0815 10.4955C55.0722 10.5049 55.0611 10.5123 55.0489 10.5173C55.0367 10.5224 55.0237 10.525 55.0105 10.525L50.4073 10.522C50.3806 10.522 50.3551 10.5326 50.3363 10.5514C50.3174 10.5703 50.3068 10.5958 50.3068 10.6225V13.2372C50.3068 13.2639 50.3174 13.2894 50.3363 13.3083C50.3551 13.3271 50.3806 13.3377 50.4073 13.3377L55.2675 13.3318C55.2942 13.3318 55.3197 13.3424 55.3385 13.3612C55.3574 13.38 55.368 13.4056 55.368 13.4322L55.3621 16.7768C55.3621 16.8034 55.3515 16.829 55.3326 16.8478C55.3138 16.8666 55.2882 16.8772 55.2616 16.8772H46.1232C46.0965 16.8772 46.071 16.8666 46.0522 16.8478C46.0333 16.829 46.0227 16.8034 46.0227 16.7768V0.839955C46.0227 0.813313 46.0333 0.787764 46.0522 0.768925C46.071 0.750086 46.0965 0.739502 46.1232 0.739502H55.2646C55.2912 0.739502 55.3167 0.750086 55.3356 0.768925C55.3544 0.787764 55.365 0.813313 55.365 0.839955V4.1845C55.365 4.19769 55.3624 4.21076 55.3574 4.22294C55.3523 4.23513 55.3449 4.2462 55.3356 4.25553C55.3263 4.26486 55.3152 4.27226 55.303 4.27731C55.2908 4.28236 55.2777 4.28496 55.2646 4.28496H50.4102C50.3836 4.28496 50.358 4.29554 50.3392 4.31438C50.3204 4.33322 50.3098 4.35877 50.3098 4.38541ZM62.2373 16.6911L62.2314 10.8854C62.2314 10.6904 62.2845 10.6746 62.3909 10.8381L66.2318 16.7827C66.2509 16.8118 66.2769 16.8357 66.3073 16.8522C66.3378 16.8687 66.3717 16.8773 66.4061 16.8772H71.4407C71.4541 16.8774 71.4673 16.8737 71.4787 16.8666C71.4902 16.8596 71.4993 16.8494 71.5052 16.8374C71.5111 16.8253 71.5134 16.8118 71.5119 16.7984C71.5105 16.7851 71.5052 16.7725 71.4968 16.762L66.5332 10.3743C66.4642 10.2876 66.4849 10.2354 66.5952 10.2177C69.3252 9.77744 70.3889 6.95289 69.9014 4.43266C69.4464 2.08676 67.26 0.786756 65.0145 0.760165C62.7455 0.73062 60.4291 0.72668 58.0655 0.748347C58.0451 0.748347 58.0255 0.756441 58.0111 0.770848C57.9967 0.785254 57.9886 0.804792 57.9886 0.825166V16.6733C57.9886 16.7274 58.0101 16.7793 58.0484 16.8175C58.0866 16.8557 58.1384 16.8772 58.1925 16.8772L62.0541 16.8743C62.1762 16.8743 62.2373 16.8132 62.2373 16.6911ZM62.2255 7.87175L62.2432 4.03085C62.2432 4.0205 62.2453 4.01027 62.2493 4.00075C62.2533 3.99123 62.2593 3.98263 62.2667 3.97546C62.2742 3.96828 62.283 3.96269 62.2927 3.959C62.3023 3.95532 62.3126 3.95363 62.323 3.95403L63.3866 3.95994C63.9755 3.9635 64.5391 4.15969 64.9535 4.50539C65.3679 4.8511 65.5992 5.31803 65.5966 5.80357V6.13448C65.5953 6.37518 65.5365 6.61321 65.4235 6.83498C65.3106 7.05674 65.1456 7.25788 64.9382 7.42691C64.7308 7.59593 64.4849 7.72952 64.2146 7.82005C63.9443 7.91057 63.6549 7.95625 63.363 7.95448L62.2993 7.94857C62.2795 7.94781 62.2607 7.93938 62.2469 7.92505C62.2331 7.91073 62.2254 7.89162 62.2255 7.87175ZM133.034 16.8093C133.034 16.8383 133.023 16.8661 133.002 16.8866C132.982 16.9071 132.954 16.9186 132.925 16.9186H72.3211C72.2922 16.9186 72.2643 16.9071 72.2439 16.8866C72.2234 16.8661 72.2118 16.8383 72.2118 16.8093V0.848821C72.2118 0.819828 72.2234 0.792021 72.2439 0.77152C72.2643 0.751018 72.2922 0.739502 72.3211 0.739502H132.925C132.954 0.739502 132.982 0.751018 133.002 0.77152C133.023 0.792021 133.034 0.819828 133.034 0.848821V16.8093ZM96.4273 8.80148C96.4257 7.8862 96.2345 6.98021 95.8647 6.13524C95.4948 5.29026 94.9535 4.52287 94.2717 3.87685C93.5899 3.23083 92.7809 2.71885 91.891 2.37014C91.001 2.02143 90.0475 1.84282 89.0849 1.8445C88.1223 1.84618 87.1694 2.02812 86.2806 2.37994C85.3919 2.73176 84.5847 3.24656 83.9052 3.89495C83.2257 4.54334 82.687 5.31262 82.3201 6.15888C81.9533 7.00514 81.7652 7.91178 81.7668 8.82707C81.7684 9.74235 81.9596 10.6483 82.3295 11.4933C82.6993 12.3383 83.2406 13.1057 83.9224 13.7517C84.6042 14.3977 85.4132 14.9097 86.3031 15.2584C87.1931 15.6071 88.1466 15.7857 89.1092 15.784C90.0719 15.7824 91.0247 15.6004 91.9135 15.2486C92.8022 14.8968 93.6094 14.382 94.2889 13.7336C94.9685 13.0852 95.5071 12.3159 95.874 11.4697C96.2409 10.6234 96.4289 9.71677 96.4273 8.80148ZM131.483 8.7759C131.478 7.8614 131.284 6.95685 130.911 6.11389C130.538 5.27094 129.994 4.50609 129.31 3.863C128.626 3.21992 127.815 2.7112 126.924 2.3659C126.033 2.02059 125.079 1.84546 124.116 1.8505C123.154 1.85554 122.201 2.04065 121.314 2.39527C120.426 2.74989 119.621 3.26707 118.944 3.91728C118.266 4.56749 117.731 5.33799 117.367 6.18481C117.003 7.03162 116.818 7.93816 116.823 8.85265C116.827 9.76715 117.022 10.6717 117.395 11.5147C117.767 12.3576 118.311 13.1225 118.995 13.7655C119.679 14.4086 120.49 14.9174 121.381 15.2627C122.272 15.608 123.227 15.7831 124.189 15.7781C125.152 15.773 126.104 15.5879 126.992 15.2333C127.879 14.8787 128.684 14.3615 129.362 13.7113C130.039 13.0611 130.575 12.2906 130.939 11.4437C131.303 10.5969 131.488 9.69039 131.483 8.7759ZM77.3321 12.4513C77.3046 12.4513 77.2783 12.4404 77.2589 12.421C77.2395 12.4016 77.2286 12.3753 77.2286 12.3479L77.2316 2.39109C77.2316 2.37751 77.2289 2.36407 77.2237 2.35152C77.2185 2.33897 77.2109 2.32757 77.2013 2.31797C77.1917 2.30837 77.1803 2.30075 77.1678 2.29555C77.1552 2.29036 77.1418 2.28768 77.1282 2.28768L73.9343 2.29359C73.9069 2.29359 73.8806 2.30449 73.8612 2.32388C73.8418 2.34327 73.8309 2.36958 73.8309 2.397V15.2227C73.8309 15.2501 73.8418 15.2764 73.8612 15.2958C73.8806 15.3152 73.9069 15.3261 73.9343 15.3261L81.2646 15.3291C81.292 15.3291 81.3183 15.3182 81.3377 15.2988C81.3571 15.2794 81.368 15.2531 81.368 15.2256V12.5518C81.368 12.5244 81.3571 12.498 81.3377 12.4787C81.3183 12.4593 81.292 12.4484 81.2646 12.4484L77.3321 12.4513ZM99.7039 5.17132C99.7282 5.17132 99.7515 5.18097 99.7686 5.19815C99.7858 5.21532 99.7955 5.23862 99.7955 5.26291V15.2315C99.7955 15.2558 99.8051 15.2791 99.8223 15.2963C99.8395 15.3135 99.8628 15.3231 99.887 15.3231L103.14 15.332C103.164 15.332 103.188 15.3224 103.205 15.3052C103.222 15.288 103.232 15.2647 103.232 15.2404L103.229 5.26291C103.229 5.23862 103.238 5.21532 103.255 5.19815C103.273 5.18097 103.296 5.17132 103.32 5.17132H105.941C105.965 5.17132 105.988 5.16167 106.006 5.14449C106.023 5.12732 106.033 5.10402 106.033 5.07973L106.038 2.38223C106.038 2.35794 106.029 2.33464 106.012 2.31746C105.994 2.30029 105.971 2.29064 105.947 2.29064H97.0477C97.0234 2.29064 97.0002 2.30029 96.983 2.31746C96.9658 2.33464 96.9561 2.35794 96.9561 2.38223L96.9502 5.07973C96.9502 5.10402 96.9599 5.12732 96.9771 5.14449C96.9942 5.16167 97.0175 5.17132 97.0418 5.17132H99.7039ZM113.46 5.25996C113.46 5.23645 113.47 5.2139 113.486 5.19728C113.503 5.18066 113.525 5.17132 113.549 5.17132H116.178C116.202 5.17132 116.224 5.16198 116.241 5.14536C116.258 5.12874 116.267 5.10619 116.267 5.08268L116.27 2.37928C116.27 2.35577 116.261 2.33322 116.244 2.3166C116.227 2.29998 116.205 2.29064 116.181 2.29064H107.27C107.247 2.29064 107.224 2.29998 107.208 2.3166C107.191 2.33322 107.182 2.35577 107.182 2.37928V5.08268C107.182 5.10619 107.191 5.12874 107.208 5.14536C107.224 5.16198 107.247 5.17132 107.27 5.17132H109.938C109.962 5.17132 109.984 5.18066 110.001 5.19728C110.018 5.2139 110.027 5.23645 110.027 5.25996L110.024 15.2345C110.024 15.2461 110.026 15.2577 110.031 15.2684C110.033 15.273 110.035 15.2774 110.038 15.2816C110.041 15.2872 110.045 15.2925 110.05 15.2972C110.053 15.3002 110.056 15.303 110.06 15.3056L110.065 15.3093C110.069 15.312 110.074 15.3144 110.079 15.3164C110.084 15.3186 110.09 15.3203 110.096 15.3215C110.101 15.3226 110.107 15.3231 110.113 15.3231L113.372 15.3291C113.383 15.3291 113.395 15.3268 113.406 15.3223L113.409 15.3207L113.413 15.3188C113.417 15.3169 113.42 15.3147 113.424 15.3123C113.427 15.3095 113.431 15.3064 113.434 15.3031C113.443 15.2949 113.449 15.2851 113.453 15.2743L113.456 15.268L113.457 15.2626C113.459 15.2554 113.46 15.2479 113.46 15.2404V5.25996ZM124.325 12.4444C126.379 12.3475 127.966 10.6332 127.871 8.61535C127.776 6.59749 126.034 5.04019 123.98 5.13705C121.927 5.2339 120.339 6.94821 120.434 8.96608C120.529 10.9839 122.271 12.5412 124.325 12.4444ZM92.8137 8.83253C92.7925 10.8509 91.1101 12.4697 89.0558 12.4482C87.0015 12.4266 85.3534 10.773 85.3745 8.75463C85.3957 6.73626 87.0781 5.11749 89.1324 5.13901C91.1866 5.16052 92.8348 6.81417 92.8137 8.83253ZM75.6775 23.2649L76.7677 23.2678C76.9155 23.2698 76.9637 23.3397 76.9125 23.4776C76.6939 24.0646 76.2724 24.363 75.648 24.3728C74.1382 24.3935 73.6655 22.7744 74.0702 21.5483C74.3952 20.5644 75.4116 20.1715 76.3186 20.6412C76.5557 20.7637 76.6871 20.978 76.8202 21.1952C76.8381 21.2243 76.8559 21.2534 76.8741 21.2824C76.9352 21.3828 77.0189 21.4104 77.1252 21.3651L78.3336 20.854C78.3555 20.8445 78.3752 20.8307 78.3914 20.8132C78.4076 20.7957 78.42 20.7751 78.4278 20.7526C78.4356 20.73 78.4386 20.7061 78.4366 20.6824C78.4347 20.6587 78.4278 20.6356 78.4164 20.6147C77.143 18.2865 73.4025 18.579 72.4571 21.0578C71.3993 23.8292 73.695 26.3731 76.558 25.5783C78.0431 25.1666 78.8064 24.038 78.8477 22.1924C78.8497 22.0722 78.7906 22.0121 78.6705 22.0121H75.7159C75.6174 22.0121 75.5682 22.0614 75.5682 22.1599L75.5652 23.1526C75.5652 23.2275 75.6027 23.2649 75.6775 23.2649ZM131.046 23.2295C130.758 23.0724 130.442 22.9698 130.136 22.8703C129.341 22.6122 128.61 22.3747 128.593 21.2618C128.555 18.8686 131.028 18.78 132.623 19.5097C132.738 19.5609 132.764 19.6407 132.703 19.7491L132.174 20.6886C132.119 20.7891 132.046 20.8038 131.956 20.7329C131.548 20.4138 130.461 20.1981 130.316 20.9397C130.296 21.0394 130.315 21.1426 130.368 21.2287C130.422 21.3147 130.505 21.3772 130.602 21.4036L130.726 21.438C131.86 21.7534 133.159 22.1146 133.028 23.6254C132.818 26.0127 130.088 26.0334 128.49 25.0347C128.386 24.9697 128.364 24.885 128.425 24.7806L128.975 23.8116C129.038 23.6993 129.118 23.6845 129.217 23.7672C129.684 24.1661 130.579 24.5354 131.128 24.0834C131.194 24.0295 131.245 23.9604 131.277 23.8821C131.31 23.8038 131.322 23.7188 131.314 23.6344C131.306 23.5501 131.277 23.469 131.23 23.3984C131.184 23.3278 131.12 23.2698 131.046 23.2295ZM89.5701 24.4131H89.5702H89.5702C89.8253 24.4136 90.0762 24.414 90.3202 24.4202C90.3639 24.4218 90.4061 24.4365 90.4414 24.4623C90.4767 24.4881 90.5035 24.5239 90.5182 24.565L90.7723 25.2682C90.8255 25.412 90.9279 25.4839 91.0796 25.4839H92.3352C92.5243 25.4839 92.5854 25.3962 92.5184 25.2209L90.3527 19.5305C90.3197 19.4445 90.2615 19.3707 90.1859 19.319C90.1104 19.2672 90.0212 19.24 89.9302 19.2409L88.6155 19.2439C88.4993 19.2439 88.4205 19.2971 88.3791 19.4034L86.0775 25.3214C86.0342 25.4297 86.0706 25.4839 86.1868 25.4839H87.6227C87.7429 25.4839 87.8177 25.4258 87.8473 25.3096C87.8985 25.1205 87.9615 24.9265 88.0364 24.7275C88.123 24.499 88.2816 24.3887 88.5121 24.3966C88.868 24.4119 89.2229 24.4125 89.5701 24.4131ZM88.6855 23.0868C88.6833 23.0723 88.6846 23.0574 88.6893 23.0434L89.2359 21.3918C89.2425 21.3744 89.2542 21.3594 89.2695 21.3489C89.2848 21.3383 89.303 21.3326 89.3216 21.3326C89.3402 21.3326 89.3584 21.3383 89.3737 21.3489C89.389 21.3594 89.4007 21.3744 89.4073 21.3918L89.9716 23.0375C89.9763 23.0512 89.9776 23.0658 89.9756 23.0802C89.9735 23.0945 89.968 23.1081 89.9597 23.12C89.9513 23.1318 89.9403 23.1415 89.9275 23.1482C89.9146 23.1549 89.9004 23.1585 89.8859 23.1587L88.778 23.1646C88.7632 23.1649 88.7486 23.1616 88.7354 23.1551C88.7222 23.1486 88.7108 23.139 88.7021 23.1271C88.6934 23.1152 88.6877 23.1014 88.6855 23.0868ZM104.865 22.101L103.71 24.8251C103.302 25.7902 102.901 25.7873 102.505 24.8162L101.42 22.1512C101.348 21.9759 101.297 21.9818 101.27 22.1689L100.791 25.3864C100.781 25.4495 100.744 25.481 100.679 25.481L99.2666 25.4869C99.2509 25.4867 99.2354 25.4831 99.2212 25.4763C99.207 25.4695 99.1944 25.4598 99.1843 25.4477C99.1742 25.4357 99.1668 25.4216 99.1627 25.4064C99.1585 25.3912 99.1577 25.3754 99.1602 25.3598L100.182 19.4301C100.204 19.306 100.278 19.2439 100.404 19.2439L101.63 19.241C101.69 19.241 101.749 19.259 101.798 19.2927C101.848 19.3264 101.886 19.3743 101.908 19.4301L102.975 22.2339C103.071 22.4821 103.169 22.4831 103.267 22.2369L104.416 19.3887C104.456 19.2922 104.528 19.2439 104.632 19.2439L105.967 19.238C106.01 19.2382 106.051 19.2535 106.082 19.2812C106.114 19.3088 106.135 19.3469 106.142 19.3887L107.058 25.351C107.06 25.3675 107.059 25.3844 107.055 25.4005C107.05 25.4166 107.042 25.4315 107.031 25.4442C107.02 25.4568 107.006 25.4669 106.991 25.4738C106.976 25.4807 106.959 25.4841 106.942 25.4839H105.533C105.466 25.4839 105.429 25.4504 105.421 25.3835L105.001 22.1187C104.98 21.9454 104.934 21.9395 104.865 22.101ZM118.595 24.1218H116.876C116.842 24.1218 116.811 24.1088 116.787 24.0857C116.763 24.0625 116.749 24.0309 116.749 23.9977L116.734 23.1823C116.734 23.0917 116.779 23.0464 116.87 23.0464H118.498C118.565 23.0464 118.598 23.0129 118.598 22.9459L118.589 21.7848C118.589 21.7563 118.577 21.7292 118.556 21.7094C118.536 21.6895 118.508 21.6784 118.48 21.6784L116.852 21.6873C116.771 21.6873 116.732 21.6469 116.734 21.5661L116.755 20.6975C116.757 20.6384 116.787 20.6089 116.846 20.6089C117.439 20.6089 118.029 20.6079 118.616 20.6059C118.673 20.6059 118.702 20.5773 118.702 20.5202L118.705 19.3384C118.705 19.3257 118.703 19.3131 118.698 19.3013C118.693 19.2895 118.686 19.2788 118.677 19.2697C118.668 19.2606 118.657 19.2533 118.645 19.2484C118.633 19.2435 118.62 19.2409 118.607 19.2409L115.251 19.2439C115.14 19.2439 115.085 19.299 115.085 19.4093V25.3361C115.085 25.3753 115.101 25.4129 115.128 25.4406C115.156 25.4683 115.194 25.4839 115.233 25.4839H118.631C118.678 25.4839 118.702 25.4592 118.702 25.41L118.705 24.2311C118.705 24.2021 118.693 24.1743 118.673 24.1538C118.652 24.1333 118.624 24.1218 118.595 24.1218Z" fill="#00AB55"/>
</svg>
