<svg xmlns="http://www.w3.org/2000/svg" width="128" height="14" fill="none"><g clip-path="url(#a)"><path fill="#919EAB" fill-rule="evenodd" d="M13.099 13.774.417 1.287C-.062.811.277 0 .96 0H13.64c.424 0 .763.339.763.752v12.492c0 .668-.822 1.007-1.305.53Zm2.834-.53V.752c0-.418.343-.752.763-.752h12.681c.683 0 1.022.81.543 1.287L17.238 13.78c-.483.472-1.305.137-1.305-.531v-.004ZM31.475.752v12.496c0 .668.822 1.003 1.305.53l12.682-12.49C45.94.81 45.602 0 44.919 0H32.238a.757.757 0 0 0-.763.752ZM63.088 0v8.621l-3.05-6.105h-1.75l-3.09 6.168V0H52.44v14h2.737l3.954-7.631L63.126 14h2.7V0h-2.738Zm11.99 8.947-1.605-4.93-1.606 4.93h3.212Zm-7.923 5.049L72.096 0h2.758L79.8 13.996h-3.068l-.864-2.658H71.11l-.864 2.658h-3.09ZM80.363 0v2.416h5.766l-5.766 9.716V14h9.597v-2.395h-5.932l5.728-9.737V0h-9.393Zm19.096 6.085V7.91c0 2.416-.66 3.694-2.576 3.694h-2.165V2.411h2.165c1.915 0 2.576 1.258 2.576 3.674ZM91.837 0v13.996h5.046c3.212 0 5.458-1.643 5.458-6.085V6.085c0-4.464-2.246-6.085-5.458-6.085h-5.046Zm17.308 4.016 1.606 4.931h-3.212l1.606-4.93ZM107.768 0l-4.94 13.996h3.089l.864-2.658h4.758l.865 2.658h3.068L110.527 0h-2.759Zm17 8.784V0h2.737v14h-2.407l-5.542-8.663V14h-2.742V0h2.39l5.564 8.784Z" clip-rule="evenodd"/></g><defs><clipPath id="a"><path fill="#fff" d="M.192 0h127.615v14H.192z"/></clipPath></defs></svg>