<svg xmlns="http://www.w3.org/2000/svg" width="76" height="30" fill="none"><path fill="#00AB55" d="M15.82 13.438a.958.958 0 0 1 .282.46.24.24 0 0 1-.025.193 2.944 2.944 0 0 1-.466.593c-2.055 2.013-4.398 3.737-7.028 5.173-.988.54-2.023.959-3.061 1.38-.504.204-1.01.409-1.51.627-1.922.84-3.97 2.354-3.527 4.781.705 3.871 5.323 4.046 7.919 2.202.85-.604 1.456-1.221 1.82-1.852.36-.627.727-1.305 1.1-2.034.713-1.4 1.53-2.766 2.447-4.097 1.28-1.856 2.489-3.242 3.623-4.157l.133-.109c.437-.361 1.01-.835 1.577-.424 1.234.896 2.498 2.212 3.792 3.948.27.362.483.937.608 1.375.69 2.402 2.365 3.958 5.021 3.316a3.596 3.596 0 0 0 2.77-3.639c-.064-1.656-1.322-2.433-2.722-2.885-2.308-.744-4.384-1.73-6.229-2.957a9.982 9.982 0 0 1-1.517-1.246c-.807-.804 1.514-2.416 2.156-2.862l.003-.002.052-.036c1.927-1.345 3.948-2.608 6.189-3.354 1.494-.496 2.671-1.833 2.338-3.443-.536-2.607-4.25-3.251-5.807-1.246a4.171 4.171 0 0 0-.533.898c-.289.648-.689 1.24-1.106 1.793-.62.824-2.198 2.64-4.734 5.446-.395.436-.99.927-1.589.475a9.239 9.239 0 0 1-1.44-1.37c-1.714-1.99-3.298-4.426-4.733-6.796C10.187 1.214 7.902-.555 5.006.214 3.15.71 1.967 2.13 1.779 4.026c-.101 1.024.177 1.872.836 2.542.627.636 1.488 1.14 2.583 1.51.54.182 1.094.347 1.65.512 1.006.3 2.02.601 2.967 1.011 2.258.977 4.26 2.256 6.004 3.836Z"/><path fill="#00AB55" fill-rule="evenodd" d="M75.39 5.65c-.085-.505-.402-.86-.95-1.066-.369-.14-.609-.21-.719-.21-2.949-.004-5.897-.003-8.846.002-.915.003-1.892.178-2.93.527l-1.53.698a.322.322 0 0 0-.09-.08c-4.125 1.986-6.448 6.54-4.637 10.92.467 1.129 1.11 2.081 1.93 2.858 1.503 1.53 3.455 2.483 5.509 2.979.893.217 2.023.32 3.388.308 2.452-.02 4.875-.025 7.272-.014.557.004 1.11-.248 1.41-.713.129-.2.193-.57.193-1.112 0-1.763-.002-3.508-.005-5.234.065-1.233.069-2.085-1.225-2.41-.489-.122-1.13-.153-1.925-.094-.33.023-.63.126-.9.31-.746.505-.706 1.217-.654 2.141v.006l.01.156v.273c.001.577.003 1.21-.26 1.681-.355.632-.948.97-1.777 1.014-1.17.061-2.413.062-3.73.003-.18-.007-.497-.085-.95-.232-1.98-.696-3.206-2.016-3.682-3.958l-.086-1.244c.33-2.149 1.503-3.614 3.517-4.396.76-.295 1.303-.443 1.633-.443 2.777 0 5.552-.003 8.327-.01.345 0 .632-.056.863-.165.915-.434.885-1.254.855-2.08-.005-.139-.01-.278-.01-.416ZM45.8 4.37c1.921-.033 3.226-.055 4.86.577 1.565.67 2.615 1.784 3.15 3.344a9.1 9.1 0 0 1-.589.252.653.653 0 0 1-.244.037c-.085.001-.166.002-.256.05-.106.056-.22.095-.338.117-.954.185-1.866.426-2.735.723a4.84 4.84 0 0 1-.988.221c-.07.008-.113-.023-.127-.092-.096-.462-.285-.672-.566-.63-.484-.437-1.163-.657-2.034-.662-1.722-.01-3.462-.011-5.221-.002-1.01.006-2.16.465-2.149 1.665.008.623.008 1.244 0 1.862l-.003 3.994c.009 1.699.008 3.399-.002 5.1-.003.43-.08.748-.233.952-.337.451-.765.685-1.285.702l-.22.008c-1.17.045-3.041.118-3.045-1.531-.003-1.58 0-3.167.006-4.758l.01-5.325c-.021-1.522-.029-3.072-.024-4.652.003-.593.084-1.01.244-1.248.245-.365.65-.597 1.216-.694h9.95l.623-.01Z" clip-rule="evenodd"/><path fill="#00AB55" fill-rule="evenodd" d="M53.996 10.341c.07-.68.007-1.364-.186-2.05a9.1 9.1 0 0 1-.589.252.653.653 0 0 1-.244.037c-.085.001-.166.002-.256.05-.106.056-.22.095-.338.117-.954.185-1.866.426-2.735.723a4.84 4.84 0 0 1-.988.221c-.07.008-.113-.023-.127-.092-.096-.462-.285-.672-.566-.63 1.11 1.284-.463 2.315-1.652 2.392-.506.033-1.435.039-2.786.017-.494-.008-.907.214-1.24.665-.302.36-.293.774-.284 1.195.002.095.004.19.003.284-.004.34.036.61.12.808.272.638 1.049.94 1.718.954a95.54 95.54 0 0 0 3.633 0c2.796-.056 6.18-1.852 6.517-4.943Z" clip-rule="evenodd"/></svg>